<svg width="24" height="24" viewBox="0 0 24 24" fill="none" xmlns="http://www.w3.org/2000/svg">
<g id="size=24">
<g id="Path">
<path fill-rule="evenodd" clip-rule="evenodd" d="M9.70786 11.4536C10.1531 11.618 10.7172 11.807 11.25 11.9141V14.7729L9.37596 17.584C9.1462 17.9286 9.23933 18.3943 9.58397 18.624C9.92862 18.8538 10.3943 18.7607 10.624 18.416L12 16.3521L13.376 18.416C13.6057 18.7607 14.0714 18.8538 14.416 18.624C14.7607 18.3943 14.8538 17.9286 14.624 17.584L12.75 14.7729V11.9141C13.2828 11.807 13.8469 11.618 14.2921 11.4536C14.6451 11.3232 14.9613 11.1933 15.1891 11.0961C15.3033 11.0475 15.3958 11.0067 15.4605 10.9779C15.4928 10.9635 15.5182 10.952 15.5358 10.944L15.5563 10.9346L15.562 10.932L15.5646 10.9308C15.9406 10.757 16.1046 10.3114 15.9308 9.93537C15.7571 9.5594 15.3108 9.39575 14.9348 9.56943L14.9312 9.57109L14.9151 9.57845C14.9005 9.58509 14.8783 9.59512 14.8493 9.60804C14.7913 9.63391 14.7064 9.6713 14.6007 9.71638C14.3888 9.80675 14.0961 9.92688 13.7723 10.0465C13.0844 10.3007 12.3908 10.5001 12 10.5001C11.6092 10.5001 10.9156 10.3007 10.2277 10.0465C9.90385 9.92688 9.61123 9.80675 9.39931 9.71638C9.29362 9.6713 9.20865 9.63391 9.15068 9.60804C9.12171 9.59512 9.09953 9.58509 9.08491 9.57845L9.06878 9.57109L9.06453 9.56914C8.68854 9.39545 8.24293 9.5594 8.06918 9.93537C7.89542 10.3114 8.06027 10.7575 8.43628 10.9312L8.43797 10.932L8.4437 10.9346L8.46422 10.944C8.48184 10.952 8.50721 10.9635 8.53953 10.9779C8.60415 11.0067 8.69673 11.0475 8.81089 11.0961C9.03867 11.1933 9.35493 11.3232 9.70786 11.4536ZM8.75 10.25C8.43537 10.9308 8.43628 10.9312 8.43628 10.9312L8.75 10.25Z" fill="#000001"/>
<path d="M12 9.5C12.9665 9.5 13.75 8.7165 13.75 7.75C13.75 6.7835 12.9665 6 12 6C11.0335 6 10.25 6.7835 10.25 7.75C10.25 8.7165 11.0335 9.5 12 9.5Z" fill="#000001"/>
<path fill-rule="evenodd" clip-rule="evenodd" d="M0.999996 12C0.999996 5.92487 5.92486 1 12 1C18.0751 1 23 5.92487 23 12C23 18.0751 18.0751 23 12 23C5.92486 23 0.999996 18.0751 0.999996 12ZM12 2.5C6.75329 2.5 2.5 6.75329 2.5 12C2.5 17.2467 6.75329 21.5 12 21.5C17.2467 21.5 21.5 17.2467 21.5 12C21.5 6.75329 17.2467 2.5 12 2.5Z" fill="#000001"/>
</g>
</g>
</svg>
