<svg width="16" height="16" viewBox="0 0 16 16" fill="none" xmlns="http://www.w3.org/2000/svg">
<g id="size=16">
<path id="Path" d="M8 0C12.4183 0 16 3.58172 16 8C16 12.4183 12.4183 16 8 16C3.58172 16 0 12.4183 0 8C0 3.58172 3.58172 0 8 0ZM8 1.5C4.41015 1.5 1.5 4.41015 1.5 8C1.5 11.5899 4.41015 14.5 8 14.5C11.5899 14.5 14.5 11.5899 14.5 8C14.5 4.41015 11.5899 1.5 8 1.5ZM10.1143 6.10742C10.4691 5.89439 10.9292 6.00868 11.1426 6.36328C11.3558 6.71818 11.2414 7.17913 10.8867 7.39258L10.5 6.75C10.882 7.38586 10.8857 7.39355 10.8857 7.39355L10.8838 7.39453L10.8789 7.39746L10.8623 7.40723C10.8483 7.41551 10.8279 7.42679 10.8027 7.44141C10.7519 7.47086 10.68 7.51308 10.5908 7.5625C10.4129 7.66114 10.1647 7.79274 9.8877 7.92578C9.61257 8.05791 9.29764 8.197 8.98633 8.30371C8.90797 8.33057 8.82514 8.35659 8.74023 8.38086C8.74643 8.41967 8.75 8.45944 8.75 8.5V10.2227L10.0693 11.7617C10.3389 12.0762 10.3026 12.5497 9.98828 12.8193C9.67384 13.0889 9.20026 13.0526 8.93066 12.7383L8 11.6523L7.06934 12.7383C6.79975 13.0526 6.32616 13.0889 6.01172 12.8193C5.69737 12.5497 5.66114 12.0762 5.93066 11.7617L7.25 10.2227V8.5C7.25 8.45944 7.25357 8.41967 7.25977 8.38086C7.17486 8.35659 7.09203 8.33057 7.01367 8.30371C6.70236 8.197 6.38743 8.05791 6.1123 7.92578C5.83529 7.79274 5.5871 7.66114 5.40918 7.5625C5.32004 7.51308 5.24805 7.47086 5.19727 7.44141C5.17207 7.42679 5.15172 7.41551 5.1377 7.40723L5.12109 7.39746L5.11621 7.39453L5.11328 7.39258C4.75861 7.17913 4.64421 6.71818 4.85742 6.36328C5.07082 6.00869 5.53185 5.89441 5.88672 6.10742L5.88867 6.1084L5.90039 6.11523L5.94922 6.14453C5.99266 6.16973 6.05698 6.20579 6.13672 6.25C6.29703 6.33888 6.51816 6.45724 6.76172 6.57422C7.00706 6.69204 7.26438 6.804 7.5 6.88477C7.74976 6.97038 7.91662 7 8 7C8.08338 7 8.25024 6.97038 8.5 6.88477C8.73562 6.804 8.99294 6.69204 9.23828 6.57422C9.48184 6.45724 9.70297 6.33888 9.86328 6.25C9.94302 6.20579 10.0073 6.16973 10.0508 6.14453L10.0996 6.11523L10.1113 6.1084L10.1143 6.10742ZM8 3.25C8.82843 3.25 9.5 3.92157 9.5 4.75C9.5 5.57843 8.82843 6.25 8 6.25C7.17157 6.25 6.5 5.57843 6.5 4.75C6.5 3.92157 7.17157 3.25 8 3.25Z" fill="#000001"/>
</g>
</svg>
