<svg width="16" height="16" viewBox="0 0 16 16" fill="none" xmlns="http://www.w3.org/2000/svg">
<g id="size=16">
<path id="Path" d="M7.99982 0C12.4179 0 15.9994 3.58181 15.9996 7.99982C15.9996 12.418 12.418 15.9996 7.99982 15.9996C3.58181 15.9994 0 12.4179 0 7.99982C0.000193413 3.58193 3.58193 0.000193739 7.99982 0ZM7.99982 1.49997C4.41033 1.50016 1.50016 4.41033 1.49997 7.99982C1.49997 11.5895 4.41022 14.4995 7.99982 14.4997C11.5896 14.4997 14.4997 11.5896 14.4997 7.99982C14.4995 4.41021 11.5895 1.49997 7.99982 1.49997ZM10.114 6.10729C10.4688 5.89434 10.9288 6.00888 11.1423 6.36314C11.3555 6.71803 11.2411 7.17897 10.8865 7.39241L10.4998 6.74985C10.8522 7.33649 10.8829 7.38886 10.8855 7.39339L10.8835 7.39437L10.8787 7.3973L10.8621 7.40706C10.848 7.41534 10.8276 7.42666 10.8025 7.44124C10.7517 7.47069 10.6797 7.51294 10.5906 7.56233C10.4127 7.66096 10.1644 7.79259 9.88747 7.9256C9.61239 8.05771 9.29737 8.19684 8.98613 8.30352C8.90783 8.33036 8.82486 8.35642 8.74004 8.38067C8.74622 8.41937 8.74978 8.45937 8.7498 8.49981V10.2224L10.0691 11.7615C10.3386 12.0759 10.3024 12.5495 9.98806 12.819C9.67362 13.0885 9.20004 13.0523 8.93046 12.738L7.99982 11.6521L7.06918 12.738C6.79959 13.0523 6.32602 13.0886 6.01158 12.819C5.6976 12.5494 5.66113 12.0758 5.93053 11.7615L7.24984 10.2224V8.49981C7.24986 8.45937 7.25342 8.41937 7.2596 8.38067C7.17485 8.35643 7.09174 8.33034 7.01351 8.30352C6.70235 8.19684 6.38716 8.05767 6.11217 7.9256C5.83533 7.79263 5.58688 7.66092 5.40906 7.56233C5.32011 7.51301 5.24786 7.47065 5.19715 7.44124C5.17215 7.42674 5.15153 7.4153 5.13758 7.40706L5.12098 7.3973L5.1161 7.39437L5.11317 7.39241C4.75883 7.17886 4.64419 6.71789 4.85731 6.36314C5.07065 6.00878 5.53182 5.89465 5.88659 6.10729L5.88854 6.10826L5.90026 6.1151L5.94909 6.14439C5.99245 6.16954 6.05704 6.20576 6.13658 6.24986C6.29679 6.33868 6.51818 6.45716 6.76157 6.57407C7.00676 6.69182 7.26433 6.80386 7.49983 6.88461C7.74923 6.9701 7.91632 6.99976 7.99982 6.99984C8.08318 6.99984 8.25018 6.97016 8.49981 6.88461C8.73538 6.80386 8.99278 6.69186 9.23807 6.57407C9.48157 6.45713 9.70277 6.33873 9.86306 6.24986C9.94272 6.20569 10.0071 6.16959 10.0506 6.14439L10.0994 6.1151L10.1111 6.10826L10.114 6.10729ZM7.99982 3.24993C8.82811 3.24993 9.49959 3.92165 9.49979 4.74989C9.49979 5.5783 8.82823 6.24986 7.99982 6.24986C7.17158 6.24967 6.49985 5.57818 6.49985 4.74989C6.50005 3.92177 7.1717 3.25012 7.99982 3.24993Z" fill="#000001"/>
</g>
</svg>
