<svg width="24" height="24" viewBox="0 0 24 24" fill="none" xmlns="http://www.w3.org/2000/svg">
<g id="size=24">
<path id="Path" fill-rule="evenodd" clip-rule="evenodd" d="M9.00293 1.99999C9.32687 2.00131 9.61392 2.21041 9.71387 2.51855L14.9902 18.79L17.2852 11.5244C17.3837 11.2124 17.6728 11 18 11H22C22.4142 11 22.75 11.3358 22.75 11.75C22.75 12.1642 22.4142 12.5 22 12.5H18.5498L15.7148 21.4756C15.6166 21.7865 15.329 21.9987 15.0029 22C14.6768 22.0013 14.3868 21.7916 14.2861 21.4814L8.99023 5.15136L6.71191 11.9873C6.60982 12.2935 6.32281 12.5 6 12.5H2C1.5858 12.5 1.25002 12.1642 1.25 11.75C1.25001 11.3358 1.5858 11 2 11H5.45898L8.28809 2.51269C8.39052 2.20542 8.67904 1.99872 9.00293 1.99999Z" fill="#000001"/>
</g>
</svg>
