<svg width="16" height="16" viewBox="0 0 16 16" fill="none" xmlns="http://www.w3.org/2000/svg">
<g id="size=16">
<path id="Path" fill-rule="evenodd" clip-rule="evenodd" d="M6.01562 0.999842C6.33546 1.00652 6.61582 1.21692 6.71387 1.52133L10.0195 11.8514L11.4893 7.50961C11.5927 7.20566 11.879 6.99984 12.2002 6.99984H15C15.4137 6.99984 15.7492 7.33629 15.75 7.74984C15.75 8.16402 15.4142 8.49984 15 8.49984H12.7383L10.71 14.4901C10.6062 14.7967 10.3178 15.0024 9.99414 14.9998C9.67033 14.9971 9.38486 14.7868 9.28613 14.4784L5.95215 4.06039L4.50391 8.00863C4.39544 8.30374 4.11426 8.49984 3.7998 8.49984H1C0.585815 8.49984 0.250046 8.16402 0.25 7.74984C0.250775 7.33629 0.586265 6.99984 1 6.99984H3.27637L5.2959 1.49203C5.40649 1.19187 5.69573 0.99319 6.01562 0.999842Z" fill="#000001"/>
</g>
</svg>
