<svg width="16" height="16" viewBox="0 0 16 16" fill="none" xmlns="http://www.w3.org/2000/svg">
<g id="size=16">
<path id="Vector (Stroke)" fill-rule="evenodd" clip-rule="evenodd" d="M6.01565 1.00016C6.33597 1.00685 6.61667 1.21627 6.71432 1.52142L10.02 11.8516L11.4896 7.50955C11.5927 7.20498 11.8784 7 12.2 7H15C15.4142 7 15.75 7.33579 15.75 7.75C15.75 8.16422 15.4142 8.5 15 8.5H12.7379L10.7104 14.4904C10.6066 14.7972 10.3176 15.0027 9.99375 15C9.66992 14.9973 9.38438 14.787 9.28568 14.4786L5.95178 4.06014L4.50416 8.00819C4.39584 8.30361 4.11465 8.5 3.8 8.5H1C0.585786 8.5 0.25 8.16422 0.25 7.75C0.25 7.33579 0.585786 7 1 7H3.27617L5.29584 1.49181C5.40614 1.191 5.69533 0.993478 6.01565 1.00016Z" fill="#000001"/>
</g>
</svg>
