<svg width="16" height="16" viewBox="0 0 16 16" fill="none" xmlns="http://www.w3.org/2000/svg">
<g id="size=16">
<path id="Path" fill-rule="evenodd" clip-rule="evenodd" d="M6.01562 0.999994C6.33551 1.00667 6.61586 1.217 6.71387 1.52148L10.0195 11.8516L11.4893 7.50976C11.5926 7.20573 11.879 6.99999 12.2002 6.99999H15C15.4138 6.99999 15.7493 7.33636 15.75 7.74999C15.75 8.16417 15.4142 8.49999 15 8.49999H12.7383L10.71 14.4902C10.6062 14.7968 10.3178 15.0025 9.99414 15C9.67033 14.9973 9.38486 14.7869 9.28613 14.4785L5.95215 4.06054L4.50391 8.00878C4.39544 8.3039 4.11426 8.49999 3.7998 8.49999H1C0.585815 8.49999 0.250046 8.16417 0.25 7.74999C0.250687 7.33636 0.58621 6.99999 1 6.99999H3.27637L5.2959 1.49218C5.40645 1.19194 5.69567 0.99334 6.01562 0.999994Z" fill="#000001"/>
</g>
</svg>
