<svg width="16" height="16" viewBox="0 0 16 16" fill="none" xmlns="http://www.w3.org/2000/svg">
<g id="size=16">
<path id="Path" fill-rule="evenodd" clip-rule="evenodd" d="M8.00013 0.999985C8.36674 1 8.72808 1.09424 9.04797 1.27342C9.3681 1.45288 9.63822 1.71505 9.8292 2.02829L15.7129 11.8016C15.9 12.124 15.999 12.4903 16 12.8631C16.001 13.2358 15.904 13.6022 15.7188 13.9256C15.5336 14.2488 15.2666 14.5176 14.9453 14.7058C14.6239 14.894 14.2582 14.9957 13.8858 14.9998H2.11448C1.74208 14.9956 1.37635 14.894 1.05492 14.7058C0.733658 14.5176 0.466633 14.2488 0.281498 13.9256C0.0962889 13.6022 -0.0007644 13.2358 0.000252039 12.8631C0.0013113 12.4867 0.104638 12.117 0.293216 11.7918L6.17301 2.02438C6.36385 1.71134 6.63257 1.45267 6.95229 1.27342C7.27217 1.09423 7.63352 1.00003 8.00013 0.999985ZM8.00013 9.99985C7.44796 9.99998 7.00015 10.4476 7.00015 10.9998C7.00015 11.552 7.44796 11.9997 8.00013 11.9998H8.00697C8.55911 11.9997 9.00695 11.552 9.00695 10.9998C9.00695 10.4476 8.55911 10 8.00697 9.99985H8.00013ZM8.00013 4.99992C7.58603 5.00005 7.25014 5.33579 7.25014 5.74991V8.24987C7.25014 8.664 7.58603 8.99973 8.00013 8.99986C8.41428 8.9998 8.75012 8.66404 8.75012 8.24987V5.74991C8.75012 5.33574 8.41428 4.99999 8.00013 4.99992Z" fill="#000001"/>
</g>
</svg>
