<svg width="24" height="24" viewBox="0 0 24 24" fill="none" xmlns="http://www.w3.org/2000/svg">
<g id="size=24">
<path id="Path" fill-rule="evenodd" clip-rule="evenodd" d="M13.9447 1.92413C12.8707 0.850167 11.1295 0.850159 10.0556 1.92411L1.92386 10.0558C0.849913 11.1298 0.849925 12.871 1.92389 13.9449L10.0556 22.0764C11.1295 23.1504 12.8707 23.1504 13.9446 22.0764L22.0762 13.9449C23.1501 12.871 23.1501 11.1298 22.0762 10.0558L13.9447 1.92413ZM11.2499 7.75C11.2499 7.33578 11.5857 7 11.9999 7C12.4141 7 12.7499 7.33578 12.7499 7.75V12.25C12.7499 12.6642 12.4141 13 11.9999 13C11.5857 13 11.2499 12.6642 11.2499 12.25V7.75ZM10.9999 16C10.9999 15.4477 11.4476 15 11.9999 15H12.0099C12.5622 15 13.0099 15.4477 13.0099 16C13.0099 16.5523 12.5622 17 12.0099 17H11.9999C11.4476 17 10.9999 16.5523 10.9999 16Z" fill="#000001"/>
</g>
</svg>
