<svg width="16" height="16" viewBox="0 0 16 16" fill="none" xmlns="http://www.w3.org/2000/svg">
<g id="size=16">
<path id="Path" fill-rule="evenodd" clip-rule="evenodd" d="M6.40722 0.75197C7.2857 -0.125562 8.71138 -0.125588 9.58984 0.75197L15.2461 6.4092C16.1236 7.28765 16.1236 8.71237 15.2461 9.59084L9.58984 15.2471C8.71136 16.1248 7.28574 16.1248 6.40722 15.2471L0.75097 9.59084C-0.126613 8.71236 -0.126637 7.28766 0.75097 6.4092L6.40722 0.75197ZM8.52929 1.81252C8.23671 1.52085 7.76145 1.52105 7.46874 1.81252L1.81152 7.46974C1.5197 7.76242 1.51973 8.23759 1.81152 8.53029L7.46874 14.1865C7.76148 14.4784 8.23663 14.4785 8.52929 14.1865L14.1855 8.53029C14.4773 8.23761 14.4773 7.76241 14.1855 7.46974L8.52929 1.81252ZM8.00683 9.99904C8.55795 9.99982 9.00602 10.4479 9.00683 10.999C9.00637 11.5505 8.55817 11.9983 8.00683 11.999H7.99999C7.44882 11.9981 7.00045 11.5503 6.99999 10.999C7.0008 10.448 7.44904 10 7.99999 9.99904H8.00683ZM7.99999 4.99904C8.41305 4.99982 8.74919 5.33599 8.74999 5.74904V8.24904C8.74954 8.66238 8.41326 8.99826 7.99999 8.99904C7.58689 8.99806 7.25045 8.66226 7.24999 8.24904V5.74904C7.2508 5.33611 7.58711 5.00002 7.99999 4.99904Z" fill="#000001"/>
</g>
</svg>
