<svg width="24" height="24" viewBox="0 0 24 24" fill="none" xmlns="http://www.w3.org/2000/svg">
<g id="size=24">
<path id="Path" fill-rule="evenodd" clip-rule="evenodd" d="M11.9998 2C12.4716 2 12.934 2.1273 13.3416 2.36621C13.7489 2.60511 14.0875 2.94712 14.3259 3.35645L14.3279 3.36035L22.6433 17.8203C22.8766 18.2411 22.9984 18.7162 22.9998 19.1982C23.0011 19.6803 22.8811 20.156 22.6502 20.5781C22.4191 21.0004 22.0837 21.3567 21.6746 21.6074C21.2654 21.8581 20.7973 21.9945 20.3181 22H3.68141C3.20222 21.9944 2.73409 21.8582 2.32496 21.6074C1.91599 21.3566 1.58039 21.0003 1.34938 20.5781C1.11852 20.1561 0.998471 19.6802 0.999766 19.1982C1.0011 18.7163 1.12401 18.2411 1.35719 17.8203L1.36207 17.8105L9.67164 3.36035L9.67359 3.35645C9.91193 2.94715 10.2507 2.60515 10.658 2.36621C11.0655 2.12723 11.528 2.0001 11.9998 2ZM11.9998 3.5C11.7976 3.5001 11.5966 3.55468 11.4168 3.66016C11.2373 3.76552 11.0826 3.91917 10.9714 4.10938L10.9705 4.11133L2.66578 18.5527C2.55836 18.7486 2.50045 18.9727 2.49977 19.2021C2.49914 19.4337 2.55662 19.6605 2.66481 19.8584C2.77294 20.056 2.92793 20.2169 3.10914 20.3281C3.28895 20.4383 3.49102 20.4969 3.69508 20.5H20.3045C20.5086 20.497 20.7105 20.4382 20.8904 20.3281C21.0717 20.217 21.2265 20.0561 21.3347 19.8584C21.443 19.6605 21.5004 19.4338 21.4998 19.2021C21.4991 18.9726 21.4413 18.7487 21.3337 18.5527L13.0291 4.11133L13.0281 4.10938C12.9168 3.91914 12.7623 3.76548 12.5828 3.66016C12.4029 3.55474 12.202 3.5 11.9998 3.5ZM12.0095 16C12.5618 16 13.0095 16.4477 13.0095 17C13.0095 17.5523 12.5618 18 12.0095 18H11.9998C11.4477 17.9997 10.9998 17.5521 10.9998 17C10.9998 16.4479 11.4477 16.0003 11.9998 16H12.0095ZM11.9998 8C12.414 8 12.7498 8.33579 12.7498 8.75V13.25C12.7498 13.6642 12.414 14 11.9998 14C11.5858 13.9997 11.2498 13.664 11.2498 13.25V8.75C11.2498 8.33598 11.5858 8.00032 11.9998 8Z" fill="#000001"/>
</g>
</svg>
