<svg width="16" height="16" viewBox="0 0 16 16" fill="none" xmlns="http://www.w3.org/2000/svg">
<g id="size=16">
<path id="Path" fill-rule="evenodd" clip-rule="evenodd" d="M6.4072 0.752168C7.28567 -0.125364 8.71136 -0.12539 9.58981 0.752168L15.2461 6.40939C16.1234 7.28787 16.1235 8.71262 15.2461 9.59103L9.58981 15.2473C8.71138 16.1249 7.28571 16.1248 6.4072 15.2473L0.750945 9.59103C-0.126621 8.71257 -0.126613 7.28787 0.750945 6.40939L6.4072 0.752168ZM8.52927 1.81271C8.23669 1.52105 7.76142 1.52125 7.46872 1.81271L1.81149 7.46994C1.51972 7.76262 1.51972 8.23781 1.81149 8.53049L7.46872 14.1867C7.76145 14.4784 8.23665 14.4786 8.52927 14.1867L14.1855 8.53049C14.4772 8.23786 14.4771 7.76262 14.1855 7.46994L8.52927 1.81271ZM8.0068 9.99924C8.55788 10.0001 9.006 10.4482 9.0068 10.9992C9.00624 11.5505 8.55803 11.9984 8.0068 11.9992H7.99997C7.44886 11.9983 7.00053 11.5504 6.99997 10.9992C7.00077 10.4482 7.44901 10.0002 7.99997 9.99924H8.0068ZM7.99997 4.99924C8.41298 5.00007 8.74917 5.33622 8.74997 5.74924V8.24924C8.7494 8.66246 8.41313 8.9984 7.99997 8.99924C7.58693 8.99826 7.25053 8.66237 7.24997 8.24924V5.74924C7.25077 5.33631 7.58708 5.00022 7.99997 4.99924Z" fill="#000001"/>
</g>
</svg>
