<svg width="16" height="16" viewBox="0 0 16 16" fill="none" xmlns="http://www.w3.org/2000/svg">
<g id="size=16">
<path id="Path" fill-rule="evenodd" clip-rule="evenodd" d="M8.00001 1C8.36666 1 8.72793 1.09424 9.04786 1.27344C9.36766 1.45268 9.63628 1.71132 9.82716 2.02441L9.82911 2.02832L15.7129 11.8018C15.9 12.1242 15.999 12.4905 16 12.8633C16.001 13.236 15.904 13.6024 15.7188 13.9258C15.5336 14.249 15.2667 14.5178 14.9453 14.7061C14.6238 14.8942 14.2582 14.9959 13.8857 15H2.11427C1.74183 14.9959 1.37614 14.8943 1.0547 14.7061C0.733413 14.5178 0.466395 14.249 0.281258 13.9258C0.0960487 13.6024 -0.00100854 13.236 7.9022e-06 12.8633C0.00105682 12.4905 0.100066 12.1241 0.287117 11.8018L0.292977 11.792L6.17091 2.02832L6.17286 2.02441C6.3637 1.71134 6.63241 1.4527 6.95216 1.27344C7.27205 1.09422 7.63337 1.00004 8.00001 1ZM8.00001 2.5C7.88978 2.50004 7.7812 2.52845 7.68555 2.58203C7.59058 2.63532 7.51141 2.71194 7.45509 2.80371L7.45411 2.80469L1.58204 12.5596C1.52857 12.6536 1.50033 12.7596 1.50001 12.8672C1.4997 12.9765 1.52845 13.0843 1.58302 13.1797C1.63765 13.2751 1.71662 13.3558 1.81251 13.4121C1.90764 13.4678 2.01711 13.4982 2.12794 13.5H13.8721C13.9829 13.4982 14.0923 13.4678 14.1875 13.4121C14.2834 13.3559 14.3623 13.2751 14.417 13.1797C14.4716 13.0842 14.5003 12.9765 14.5 12.8672C14.4997 12.7595 14.4715 12.6536 14.418 12.5596L8.54591 2.80469L8.54493 2.80371C8.48857 2.71192 8.40949 2.63531 8.31446 2.58203C8.21879 2.52848 8.11025 2.5 8.00001 2.5ZM8.00684 10C8.55905 10.0001 9.00684 10.4478 9.00684 11C9.00684 11.5522 8.55905 11.9999 8.00684 12H8.00001C7.44784 11.9999 7.00001 11.5522 7.00001 11C7.00001 10.4478 7.44784 10.0001 8.00001 10H8.00684ZM8.00001 5C8.41422 5 8.75001 5.33579 8.75001 5.75V8.25C8.75001 8.66421 8.41422 9 8.00001 9C7.58591 8.99986 7.25001 8.66413 7.25001 8.25V5.75C7.25001 5.33587 7.58591 5.00014 8.00001 5Z" fill="#000001"/>
</g>
</svg>
