<svg width="16" height="16" viewBox="0 0 16 16" fill="none" xmlns="http://www.w3.org/2000/svg">
<g id="size=16">
<path id="Path" fill-rule="evenodd" clip-rule="evenodd" d="M8.00001 1C8.36666 1 8.72793 1.09424 9.04786 1.27344C9.36804 1.4529 9.63811 1.71505 9.82911 2.02832L15.7129 11.8018C15.9 12.1242 15.999 12.4905 16 12.8633C16.001 13.236 15.904 13.6024 15.7188 13.9258C15.5336 14.249 15.2667 14.5178 14.9453 14.7061C14.6238 14.8942 14.2582 14.9959 13.8857 15H2.11427C1.74183 14.9959 1.37614 14.8943 1.0547 14.7061C0.733413 14.5178 0.466395 14.249 0.281258 13.9258C0.0960487 13.6024 -0.00100854 13.236 7.9022e-06 12.8633C0.00106711 12.4869 0.104398 12.1172 0.292977 11.792L6.17286 2.02441C6.3637 1.71134 6.63241 1.4527 6.95216 1.27344C7.27205 1.09422 7.63337 1.00004 8.00001 1ZM8.00001 10C7.44784 10.0001 7.00001 10.4478 7.00001 11C7.00001 11.5522 7.44784 11.9999 8.00001 12H8.00684C8.55905 11.9999 9.00684 11.5522 9.00684 11C9.00684 10.4478 8.55905 10.0001 8.00684 10H8.00001ZM8.00001 5C7.58591 5.00014 7.25001 5.33587 7.25001 5.75V8.25C7.25001 8.66413 7.58591 8.99986 8.00001 9C8.41422 9 8.75001 8.66421 8.75001 8.25V5.75C8.75001 5.33579 8.41422 5 8.00001 5Z" fill="#000001"/>
</g>
</svg>
