<svg width="24" height="24" viewBox="0 0 24 24" fill="none" xmlns="http://www.w3.org/2000/svg">
<g id="size=24">
<path id="Path" fill-rule="evenodd" clip-rule="evenodd" d="M12.0003 2C12.4721 2.00003 12.9345 2.12725 13.3421 2.36621C13.7494 2.60513 14.088 2.9471 14.3264 3.35645L14.3284 3.36035L22.6438 17.8203C22.877 18.2411 22.9989 18.7163 23.0003 19.1982C23.0015 19.6803 22.8816 20.156 22.6506 20.5781C22.4196 21.0004 22.0841 21.3567 21.6751 21.6074C21.2659 21.8581 20.7979 21.9944 20.3186 22H3.6819C3.20266 21.9944 2.73463 21.8582 2.32545 21.6074C1.91641 21.3566 1.58091 21.0003 1.34986 20.5781C1.11897 20.156 0.998959 19.6802 1.00025 19.1982C1.00159 18.7163 1.12446 18.2411 1.35768 17.8203L1.36256 17.8105L9.67408 3.35645C9.91246 2.94711 10.2511 2.60514 10.6585 2.36621C11.066 2.12723 11.5284 2.00006 12.0003 2ZM12.0003 16C11.4481 16.0002 11.0003 16.4478 11.0003 17C11.0003 17.5522 11.4481 17.9998 12.0003 18H12.01C12.5622 17.9999 13.01 17.5522 13.01 17C13.01 16.4478 12.5622 16.0001 12.01 16H12.0003ZM12.0003 8C11.5862 8.00017 11.2503 8.33589 11.2503 8.75V13.25C11.2503 13.6641 11.5862 13.9998 12.0003 14C12.4144 13.9999 12.7503 13.6642 12.7503 13.25V8.75C12.7503 8.33584 12.4144 8.00008 12.0003 8Z" fill="#000001"/>
</g>
</svg>
