<svg width="16" height="16" viewBox="0 0 16 16" fill="none" xmlns="http://www.w3.org/2000/svg">
<g id="size=16">
<path id="Path" fill-rule="evenodd" clip-rule="evenodd" d="M8.00025 0.999969C8.36676 1.00004 8.72827 1.09427 9.04807 1.2734C9.36811 1.45285 9.63836 1.7151 9.8293 2.02826L15.7129 11.8014C15.8999 12.1238 15.999 12.4902 16 12.8629C16.001 13.2356 15.9039 13.602 15.7188 13.9254C15.5337 14.2485 15.2665 14.5174 14.9454 14.7056C14.624 14.8937 14.2581 14.9954 13.8858 14.9995H2.11469C1.74238 14.9954 1.37652 14.8937 1.05515 14.7056C0.733931 14.5174 0.466867 14.2485 0.281738 13.9254C0.0965315 13.602 -0.000520255 13.2356 0.000496169 12.8629C0.00155556 12.4865 0.104881 12.1168 0.293456 11.7916L6.17316 2.02435C6.36399 1.71137 6.63275 1.45262 6.95243 1.2734C7.27225 1.09429 7.63373 1.00001 8.00025 0.999969ZM8.00025 9.99969C7.4481 9.99983 7.00028 10.4475 7.00028 10.9997C7.00028 11.5519 7.4481 11.9995 8.00025 11.9996H8.00709C8.5591 11.9993 9.00706 11.5517 9.00706 10.9997C9.00706 10.4476 8.5591 10 8.00709 9.99969H8.00025ZM8.00025 4.99985C7.58616 4.99998 7.25028 5.3357 7.25028 5.74982V8.24975C7.25028 8.66387 7.58616 8.99959 8.00025 8.99973C8.41427 8.99951 8.75023 8.66382 8.75023 8.24975V5.74982C8.75023 5.33576 8.41427 5.00006 8.00025 4.99985Z" fill="#000001"/>
</g>
</svg>
