<svg width="24" height="24" viewBox="0 0 24 24" fill="none" xmlns="http://www.w3.org/2000/svg">
<g id="size=24">
<path id="Path" d="M12 1C18.0751 1 23 5.92487 23 12C23 18.0751 18.0751 23 12 23C5.92487 23 1 18.0751 1 12C1 5.92487 5.92487 1 12 1ZM12 15C11.4477 15 11 15.4477 11 16C11 16.5523 11.4477 17 12 17H12.0098C12.5621 17 13.0098 16.5523 13.0098 16C13.0098 15.4477 12.5621 15 12.0098 15H12ZM12 7C11.5858 7 11.25 7.33579 11.25 7.75V12.25C11.25 12.6642 11.5858 13 12 13C12.4142 13 12.75 12.6642 12.75 12.25V7.75C12.75 7.33579 12.4142 7 12 7Z" fill="#000001"/>
</g>
</svg>
