<svg width="16" height="16" viewBox="0 0 16 16" fill="none" xmlns="http://www.w3.org/2000/svg">
<g id="size=16">
<path id="Path" fill-rule="evenodd" clip-rule="evenodd" d="M6.40719 0.752214C7.28566 -0.125318 8.71135 -0.125344 9.5898 0.752214L15.2461 6.40944C16.1234 7.28791 16.1235 8.71268 15.2461 9.59108L9.5898 15.2473C8.71138 16.125 7.28569 16.1248 6.40719 15.2473L0.750935 9.59108C-0.126625 8.71262 -0.126603 7.28791 0.750935 6.40944L6.40719 0.752214ZM8.52926 1.81276C8.23668 1.52109 7.76141 1.52129 7.46871 1.81276L1.81148 7.46999C1.51973 7.76267 1.51972 8.23786 1.81148 8.53053L7.46871 14.1868C7.76144 14.4784 8.23664 14.4786 8.52926 14.1868L14.1855 8.53053C14.4772 8.23791 14.4771 7.76267 14.1855 7.46999L8.52926 1.81276ZM8.00679 9.99928C8.55787 10.0001 9.00599 10.4482 9.00679 10.9993C9.00621 11.5506 8.55801 11.9984 8.00679 11.9993H7.99996C7.44887 11.9983 7.00055 11.5505 6.99996 10.9993C7.00076 10.4483 7.449 10.0003 7.99996 9.99928H8.00679ZM7.99996 4.99928C8.41297 5.00012 8.74916 5.33627 8.74996 5.74928V8.24928C8.74937 8.66248 8.4131 8.99845 7.99996 8.99928C7.58694 8.99831 7.25055 8.66239 7.24996 8.24928V5.74928C7.25076 5.33636 7.58707 5.00026 7.99996 4.99928Z" fill="#000001"/>
</g>
</svg>
