<svg width="16" height="16" viewBox="0 0 16 16" fill="none" xmlns="http://www.w3.org/2000/svg">
<g id="size=16">
<path id="Path" fill-rule="evenodd" clip-rule="evenodd" d="M8.00013 0.999985C8.36674 1 8.72808 1.09424 9.04797 1.27342C9.36772 1.45266 9.63639 1.71132 9.82725 2.02438L9.8292 2.02829L15.7129 11.8016C15.9 12.124 15.999 12.4903 16 12.8631C16.001 13.2358 15.904 13.6022 15.7188 13.9256C15.5336 14.2488 15.2666 14.5176 14.9453 14.7058C14.6239 14.894 14.2582 14.9957 13.8858 14.9998H2.11448C1.74208 14.9956 1.37635 14.894 1.05492 14.7058C0.733658 14.5176 0.466633 14.2488 0.281498 13.9256C0.0962889 13.6022 -0.0007644 13.2358 0.000252039 12.8631C0.00130101 12.4903 0.100306 12.124 0.287357 11.8016L0.293216 11.7918L6.17106 2.02829L6.17301 2.02438C6.36385 1.71134 6.63257 1.45267 6.95229 1.27342C7.27217 1.09423 7.63352 1.00003 8.00013 0.999985ZM8.00013 2.49996C7.88993 2.5 7.78131 2.52844 7.68568 2.58199C7.59072 2.63527 7.51154 2.71192 7.45522 2.80367L7.45424 2.80464L1.58226 12.5594C1.52878 12.6534 1.50055 12.7594 1.50023 12.867C1.49992 12.9763 1.52867 13.0841 1.58324 13.1795C1.63787 13.2749 1.71685 13.3556 1.81272 13.4119C1.90784 13.4676 2.01735 13.498 2.12815 13.4998H13.8721C13.9829 13.498 14.0924 13.4676 14.1875 13.4119C14.2834 13.3557 14.3624 13.2749 14.417 13.1795C14.4716 13.084 14.5003 12.9763 14.5 12.867C14.4997 12.7594 14.4715 12.6534 14.418 12.5594L8.54602 2.80464L8.54504 2.80367C8.48871 2.71191 8.40956 2.63526 8.31458 2.58199C8.21894 2.52845 8.11033 2.49998 8.00013 2.49996ZM8.00697 9.99985C8.55911 10 9.00695 10.4476 9.00695 10.9998C9.00695 11.552 8.55911 11.9997 8.00697 11.9998H8.00013C7.44796 11.9997 7.00015 11.552 7.00015 10.9998C7.00015 10.4476 7.44796 9.99998 8.00013 9.99985H8.00697ZM8.00013 4.99992C8.41428 4.99999 8.75012 5.33574 8.75012 5.74991V8.24987C8.75012 8.66404 8.41428 8.9998 8.00013 8.99986C7.58603 8.99973 7.25014 8.664 7.25014 8.24987V5.74991C7.25014 5.33579 7.58603 5.00005 8.00013 4.99992Z" fill="#000001"/>
</g>
</svg>
