<svg width="16" height="16" viewBox="0 0 16 16" fill="none" xmlns="http://www.w3.org/2000/svg">
<g id="size=16">
<path id="Path" fill-rule="evenodd" clip-rule="evenodd" d="M6.40735 0.752055C7.28606 -0.126302 8.71042 -0.125555 9.58899 0.753031L15.2462 6.40928C16.1246 7.28784 16.1245 8.71225 15.2462 9.59092L9.58899 15.2481C8.71034 16.1267 7.286 16.1267 6.40735 15.2481L0.750122 9.59092C-0.128207 8.71224 -0.128384 7.28786 0.750122 6.40928L6.40735 0.752055ZM8.00012 10.0001C7.44784 10.0001 7.00012 10.4478 7.00012 11.0001C7.00018 11.5523 7.44787 12.0001 8.00012 12.0001H8.00696C8.55908 12 9.0069 11.5522 9.00696 11.0001C9.00696 10.4479 8.55912 10.0002 8.00696 10.0001H8.00012ZM8.00012 5.0001C7.58591 5.0001 7.25012 5.33589 7.25012 5.7501V8.2501C7.25018 8.66426 7.58594 9.0001 8.00012 9.0001C8.41425 9.00005 8.75006 8.66423 8.75012 8.2501V5.7501C8.75012 5.33592 8.41429 5.00015 8.00012 5.0001Z" fill="#000001"/>
</g>
</svg>
