<svg width="16" height="16" viewBox="0 0 16 16" fill="none" xmlns="http://www.w3.org/2000/svg">
<g id="size=16">
<g id="Union">
<path d="M7 11C7 10.4477 7.44772 10 8 10H8.00667C8.55895 10 9.00667 10.4477 9.00667 11C9.00667 11.5523 8.55895 12 8.00667 12H8C7.44772 12 7 11.5523 7 11Z" fill="#000001"/>
<path d="M8.75 5.75C8.75 5.33579 8.41421 5 8 5C7.58579 5 7.25 5.33579 7.25 5.75V8.25C7.25 8.66421 7.58579 9 8 9C8.41421 9 8.75 8.66421 8.75 8.25V5.75Z" fill="#000001"/>
<path fill-rule="evenodd" clip-rule="evenodd" d="M6.95256 1.2733C7.27254 1.09404 7.63327 1 8 1C8.36673 1 8.72746 1.09404 9.04744 1.2733C9.36743 1.45258 9.63603 1.71115 9.82699 2.02441L9.82916 2.02797L15.7128 11.802C15.8999 12.1244 15.9989 12.4903 16 12.8631C16.001 13.2359 15.904 13.6023 15.7187 13.9257C15.5334 14.2492 15.2665 14.5182 14.945 14.7065C14.6234 14.8948 14.2582 14.9959 13.8856 15L13.8774 15L2.11437 15C1.74181 14.9959 1.3766 14.8948 1.05505 14.7065C0.733464 14.5182 0.466585 14.2492 0.28132 13.9257C0.0960397 13.6023 -0.00104057 13.2359 8.41158e-06 12.8631C0.00105745 12.4903 0.100198 12.1245 0.287291 11.8021L0.293337 11.7916L6.17085 2.02798L6.17301 2.02441C6.36397 1.71115 6.63257 1.45258 6.95256 1.2733ZM7.45469 2.8037L7.45381 2.80515L1.58225 12.5591C1.52856 12.6533 1.50031 12.7595 1.5 12.8673C1.49969 12.9768 1.52818 13.0846 1.58291 13.1802C1.63765 13.2757 1.71684 13.3558 1.81297 13.4121C1.90818 13.4678 2.01654 13.4982 2.12745 13.5H13.8725C13.9835 13.4982 14.0918 13.4678 14.187 13.4121C14.2832 13.3558 14.3624 13.2757 14.4171 13.1802C14.4718 13.0846 14.5003 12.9768 14.5 12.8673C14.4997 12.7595 14.4714 12.6533 14.4177 12.5591L8.54619 2.80515L8.54531 2.8037C8.48891 2.71174 8.40948 2.63526 8.31429 2.58193C8.21857 2.5283 8.11031 2.5 8 2.5C7.88969 2.5 7.78143 2.5283 7.68571 2.58193C7.59052 2.63526 7.51109 2.71174 7.45469 2.8037Z" fill="#000001"/>
</g>
</g>
</svg>
