<svg width="24" height="24" viewBox="0 0 24 24" fill="none" xmlns="http://www.w3.org/2000/svg">
<g id="size=24">
<path id="Path" fill-rule="evenodd" clip-rule="evenodd" d="M10.0555 1.92396C11.1294 0.850184 12.8703 0.85033 13.9442 1.92396L22.076 10.0558C23.1499 11.1297 23.1498 12.8705 22.076 13.9445L13.9442 22.0763C12.8702 23.1501 11.1294 23.1502 10.0555 22.0763L1.92368 13.9445C0.850059 12.8705 0.849907 11.1296 1.92368 10.0558L10.0555 1.92396ZM11.9999 15.0001C11.4476 15.0002 10.9999 15.4479 10.9999 16.0001C10.9999 16.5523 11.4476 17.0001 11.9999 17.0001H12.0096C12.5619 17.0001 13.0096 16.5524 13.0096 16.0001C13.0096 15.4478 12.5619 15.0001 12.0096 15.0001H11.9999ZM11.9999 7.00013C11.5857 7.00015 11.2499 7.33593 11.2499 7.75013V12.2501C11.2499 12.6643 11.5857 13.0001 11.9999 13.0001C12.414 13.0001 12.7498 12.6643 12.7499 12.2501V7.75013C12.7499 7.33592 12.4141 7.00013 11.9999 7.00013Z" fill="#000001"/>
</g>
</svg>
