<svg width="24" height="24" viewBox="0 0 24 24" fill="none" xmlns="http://www.w3.org/2000/svg">
<g id="size=24">
<path id="Path" d="M11.9995 1C18.0746 1 22.9995 5.92487 22.9995 12C22.9995 18.0751 18.0746 23 11.9995 23C5.92455 22.9998 0.999512 18.075 0.999512 12C0.999512 5.92499 5.92455 1.0002 11.9995 1ZM11.9995 2.5C6.75298 2.5002 2.49951 6.75342 2.49951 12C2.49951 17.2466 6.75298 21.4998 11.9995 21.5C17.2462 21.5 21.4995 17.2467 21.4995 12C21.4995 6.75329 17.2462 2.5 11.9995 2.5ZM12.0093 15C12.5616 15 13.0093 15.4477 13.0093 16C13.0093 16.5523 12.5616 17 12.0093 17H11.9995C11.4474 16.9998 10.9995 16.5522 10.9995 16C10.9995 15.4478 11.4474 15.0002 11.9995 15H12.0093ZM11.9995 7C12.4137 7 12.7495 7.33579 12.7495 7.75V12.25C12.7495 12.6642 12.4137 13 11.9995 13C11.5855 12.9998 11.2495 12.6641 11.2495 12.25V7.75C11.2495 7.33591 11.5855 7.0002 11.9995 7Z" fill="#000001"/>
</g>
</svg>
