<svg width="16" height="16" viewBox="0 0 16 16" fill="none" xmlns="http://www.w3.org/2000/svg">
<g id="size=16">
<path id="Path" fill-rule="evenodd" clip-rule="evenodd" d="M3.88238 0.805457C4.39811 0.289732 5.09758 0 5.82693 0H10.1731C10.9024 0 11.6019 0.289731 12.1176 0.805456L15.1945 3.88238C15.7103 4.39811 16 5.09758 16 5.82693V10.1731C16 10.9024 15.7103 11.6019 15.1945 12.1176L12.1176 15.1945C11.6019 15.7103 10.9024 16 10.1731 16H5.82693C5.09758 16 4.39811 15.7103 3.88238 15.1945L0.805456 12.1176C0.289731 11.6019 0 10.9024 0 10.1731V5.82693C0 5.09758 0.289731 4.39811 0.805456 3.88238L3.88238 0.805457ZM7 11C7 10.4477 7.44772 10 8 10H8.00667C8.55895 10 9.00667 10.4477 9.00667 11C9.00667 11.5523 8.55895 12 8.00667 12H8C7.44772 12 7 11.5523 7 11ZM8.75 4.75C8.75 4.33579 8.41421 4 8 4C7.58579 4 7.25 4.33579 7.25 4.75V8.25C7.25 8.66421 7.58579 9 8 9C8.41421 9 8.75 8.66421 8.75 8.25V4.75Z" fill="#000001"/>
</g>
</svg>
