<svg width="24" height="24" viewBox="0 0 24 24" fill="none" xmlns="http://www.w3.org/2000/svg">
<g id="size=24">
<path id="Path" d="M12.0002 2C12.4721 2.00003 12.9345 2.12725 13.342 2.36621C13.7494 2.60513 14.088 2.9471 14.3264 3.35645L14.3284 3.36035L22.6438 17.8203C22.877 18.2411 22.9989 18.7163 23.0002 19.1982C23.0015 19.6803 22.8816 20.156 22.6506 20.5781C22.4196 21.0004 22.0841 21.3567 21.675 21.6074C21.2659 21.8581 20.7978 21.9944 20.3186 22H3.68188C3.20265 21.9944 2.73462 21.8582 2.32544 21.6074C1.9164 21.3566 1.5809 21.0003 1.34985 20.5781C1.11896 20.156 0.998949 19.6802 1.00024 19.1982C1.00158 18.7163 1.12445 18.2411 1.35767 17.8203L1.36255 17.8105L9.67407 3.35645C9.91245 2.94711 10.2511 2.60514 10.6584 2.36621C11.066 2.12723 11.5284 2.00006 12.0002 2ZM12.0002 16C11.4481 16.0002 11.0002 16.4478 11.0002 17C11.0002 17.5522 11.4481 17.9998 12.0002 18H12.01C12.5622 17.9999 13.01 17.5522 13.01 17C13.01 16.4478 12.5622 16.0001 12.01 16H12.0002ZM12.0002 8C11.5862 8.00017 11.2502 8.33589 11.2502 8.75V13.25C11.2502 13.6641 11.5862 13.9998 12.0002 14C12.4144 13.9999 12.7502 13.6642 12.7502 13.25V8.75C12.7502 8.33584 12.4144 8.00008 12.0002 8Z" fill="#000001"/>
</g>
</svg>
