<svg width="16" height="16" viewBox="0 0 16 16" fill="none" xmlns="http://www.w3.org/2000/svg">
<g id="size=16">
<path id="Path" fill-rule="evenodd" clip-rule="evenodd" d="M6.40715 0.752547L0.750318 6.40938C-0.128368 7.28807 -0.12836 8.7127 0.750336 9.59138L6.40717 15.2481C7.28585 16.1267 8.71046 16.1267 9.58913 15.2481L15.2458 9.59136C16.1245 8.71269 16.1245 7.28808 15.2459 6.4094L9.58914 0.752563C8.71047 -0.126133 7.28583 -0.12614 6.40715 0.752547ZM7 11C7 10.4477 7.44772 10 8 10H8.00667C8.55895 10 9.00667 10.4477 9.00667 11C9.00667 11.5523 8.55895 12 8.00667 12H8C7.44772 12 7 11.5523 7 11ZM8.75 5.75C8.75 5.33579 8.41421 5 8 5C7.58579 5 7.25 5.33579 7.25 5.75V8.25C7.25 8.66421 7.58579 9 8 9C8.41421 9 8.75 8.66421 8.75 8.25V5.75Z" fill="#000001"/>
</g>
</svg>
