<svg width="16" height="16" viewBox="0 0 16 16" fill="none" xmlns="http://www.w3.org/2000/svg">
<g id="size=16">
<g id="Path">
<path d="M6.99999 11C6.99999 10.4477 7.44771 10 7.99999 10H8.00666C8.55895 10 9.00666 10.4477 9.00666 11C9.00666 11.5523 8.55895 12 8.00666 12H7.99999C7.44771 12 6.99999 11.5523 6.99999 11Z" fill="#000001"/>
<path d="M8.74999 5.75C8.74999 5.33579 8.41421 5 7.99999 5C7.58578 5 7.24999 5.33579 7.24999 5.75V8.25C7.24999 8.66422 7.58578 9 7.99999 9C8.41421 9 8.74999 8.66422 8.74999 8.25V5.75Z" fill="#000001"/>
<path fill-rule="evenodd" clip-rule="evenodd" d="M0.750318 6.40938L6.40715 0.752547C7.28583 -0.12614 8.71047 -0.126133 9.58914 0.752563L15.2459 6.4094C16.1245 7.28808 16.1245 8.71269 15.2458 9.59136L9.58913 15.2481C8.71046 16.1267 7.28585 16.1267 6.40717 15.2481L0.750336 9.59138C-0.12836 8.7127 -0.128368 7.28807 0.750318 6.40938ZM7.46781 1.81321L1.81098 7.47004C1.51808 7.76294 1.51809 8.23781 1.81098 8.53071L7.46782 14.1874C7.76071 14.4803 8.23558 14.4803 8.52847 14.1874L14.1852 8.5307C14.4781 8.23781 14.4781 7.76294 14.1852 7.47005L8.52847 1.81321C8.23558 1.52031 7.7607 1.52031 7.46781 1.81321Z" fill="#000001"/>
</g>
</g>
</svg>
