<svg width="24" height="24" viewBox="0 0 24 24" fill="none" xmlns="http://www.w3.org/2000/svg">
<g id="size=24">
<path id="Path" fill-rule="evenodd" clip-rule="evenodd" d="M12 2C11.528 2 11.0657 2.12683 10.658 2.36593C10.2505 2.60488 9.9127 2.94702 9.67428 3.35646L1.36269 17.8102L1.35698 17.8205C1.12367 18.2414 1.00131 18.7164 1.00001 19.1985C0.998715 19.6806 1.11853 20.1562 1.34953 20.5784C1.58062 21.0007 1.91594 21.3564 2.3251 21.6072C2.73452 21.8582 3.20239 21.9945 3.68194 22L20.3095 22L20.3181 21.9999C20.7976 21.9945 21.2655 21.8582 21.6749 21.6072C22.0841 21.3564 22.4194 21.0007 22.6505 20.5784C22.8815 20.1562 23.0013 19.6806 23 19.1985C22.9987 18.7164 22.8764 18.2414 22.6431 17.8205L14.3278 3.35999L14.3257 3.35646C14.0873 2.94702 13.7495 2.60488 13.342 2.36593C12.9343 2.12683 12.472 2 12 2ZM11.25 8.75C11.25 8.33579 11.5858 8 12 8C12.4142 8 12.75 8.33579 12.75 8.75V13.25C12.75 13.6642 12.4142 14 12 14C11.5858 14 11.25 13.6642 11.25 13.25V8.75ZM11 17C11 16.4477 11.4477 16 12 16H12.01C12.5623 16 13.01 16.4477 13.01 17C13.01 17.5523 12.5623 18 12.01 18H12C11.4477 18 11 17.5523 11 17Z" fill="#000001"/>
</g>
</svg>
