<svg width="24" height="24" viewBox="0 0 24 24" fill="none" xmlns="http://www.w3.org/2000/svg">
<g id="size=24">
<path id="Path" fill-rule="evenodd" clip-rule="evenodd" d="M12 2C12.4719 2 12.9342 2.12723 13.3418 2.36621C13.7492 2.60514 14.0878 2.94707 14.3262 3.35645L14.3281 3.36035L22.6436 17.8203C22.8768 18.2411 22.9987 18.7162 23 19.1982C23.0013 19.6803 22.8813 20.156 22.6504 20.5781C22.4193 21.0004 22.0839 21.3567 21.6748 21.6074C21.2656 21.8582 20.7977 21.9945 20.3184 22H3.68165C3.20239 21.9944 2.7344 21.8582 2.32521 21.6074C1.91615 21.3566 1.58067 21.0004 1.34962 20.5781C1.11873 20.156 0.998715 19.6802 1.00001 19.1982C1.00135 18.7163 1.12422 18.2411 1.35743 17.8203L1.36232 17.8105L9.67189 3.36035L9.67384 3.35645C9.91221 2.94709 10.2509 2.60516 10.6582 2.36621C11.0658 2.12719 11.5281 2.00006 12 2ZM12 3.5C11.7977 3.50006 11.5969 3.55464 11.417 3.66016C11.2375 3.76552 11.0829 3.91911 10.9717 4.10938L10.9707 4.11133L2.66603 18.5527C2.55857 18.7486 2.50069 18.9726 2.50001 19.2021C2.49939 19.4337 2.55683 19.6605 2.66505 19.8584C2.77322 20.0561 2.9281 20.2169 3.10939 20.3281C3.28926 20.4383 3.49119 20.4969 3.69532 20.5H20.3047C20.5089 20.497 20.7107 20.4383 20.8906 20.3281C21.072 20.217 21.2268 20.0561 21.335 19.8584C21.4432 19.6605 21.5006 19.4338 21.5 19.2021C21.4993 18.9726 21.4415 18.7487 21.334 18.5527L13.0293 4.11133L13.0283 4.10938C12.9171 3.91909 12.7626 3.7655 12.583 3.66016C12.4031 3.55467 12.2023 3.5 12 3.5ZM12.0098 16C12.5621 16 13.0098 16.4477 13.0098 17C13.0098 17.5523 12.5621 18 12.0098 18H12C11.4479 17.9998 11 17.5522 11 17C11 16.4478 11.4479 16.0002 12 16H12.0098ZM12 8C12.4142 8 12.75 8.33579 12.75 8.75V13.25C12.75 13.6642 12.4142 14 12 14C11.586 13.9998 11.25 13.6641 11.25 13.25V8.75C11.25 8.3359 11.586 8.00019 12 8Z" fill="#000001"/>
</g>
</svg>
