<svg width="24" height="24" viewBox="0 0 24 24" fill="none" xmlns="http://www.w3.org/2000/svg">
<g id="size=24">
<path id="Path" fill-rule="evenodd" clip-rule="evenodd" d="M12.0003 2C12.4721 2.00003 12.9345 2.12725 13.3421 2.36621C13.7494 2.60513 14.088 2.9471 14.3264 3.35645L14.3284 3.36035L22.6438 17.8203C22.877 18.2411 22.9989 18.7163 23.0003 19.1982C23.0015 19.6803 22.8816 20.156 22.6506 20.5781C22.4196 21.0004 22.0841 21.3567 21.6751 21.6074C21.2659 21.8581 20.7979 21.9944 20.3186 22H3.6819C3.20266 21.9944 2.73463 21.8582 2.32545 21.6074C1.91641 21.3566 1.58091 21.0004 1.34986 20.5781C1.11897 20.156 0.998959 19.6802 1.00025 19.1982C1.00159 18.7163 1.12446 18.2411 1.35768 17.8203L1.36256 17.8105L9.67213 3.36035L9.67408 3.35645C9.91246 2.94711 10.2511 2.60514 10.6585 2.36621C11.066 2.12723 11.5284 2.00006 12.0003 2ZM12.0003 3.5C11.798 3.50006 11.5971 3.55467 11.4172 3.66016C11.2377 3.76551 11.0832 3.91913 10.9719 4.10938L10.971 4.11133L2.66627 18.5527C2.55881 18.7486 2.50093 18.9726 2.50025 19.2021C2.49963 19.4337 2.55707 19.6605 2.66529 19.8584C2.77347 20.0561 2.92836 20.217 3.10963 20.3281C3.28949 20.4383 3.49146 20.4969 3.69557 20.5H20.3049C20.5091 20.4969 20.711 20.4383 20.8909 20.3281C21.0722 20.217 21.227 20.0561 21.3352 19.8584C21.4435 19.6605 21.5009 19.4337 21.5003 19.2021C21.4996 18.9726 21.4417 18.7487 21.3342 18.5527L13.0296 4.11133L13.0286 4.10938C12.9173 3.91912 12.7628 3.76549 12.5833 3.66016C12.4033 3.55469 12.2025 3.50003 12.0003 3.5ZM12.01 16C12.5622 16.0001 13.01 16.4478 13.01 17C13.01 17.5522 12.5622 17.9999 12.01 18H12.0003C11.4481 17.9998 11.0003 17.5522 11.0003 17C11.0003 16.4478 11.4481 16.0002 12.0003 16H12.01ZM12.0003 8C12.4144 8.00008 12.7503 8.33584 12.7503 8.75V13.25C12.7503 13.6642 12.4144 13.9999 12.0003 14C11.5862 13.9998 11.2503 13.6641 11.2503 13.25V8.75C11.2503 8.33589 11.5862 8.00017 12.0003 8Z" fill="#000001"/>
</g>
</svg>
