<svg width="24" height="24" viewBox="0 0 24 24" fill="none" xmlns="http://www.w3.org/2000/svg">
<g id="size=24">
<g id="Path">
<path d="M15.2105 11.248H8.8052V12.688H15.2105V11.248Z" fill="#000001"/>
<path d="M18.4051 6H14.1722L15.1945 7.456L18.2933 8.4C18.8683 8.576 19.2357 9.12 19.2198 9.68V14.32C19.2198 14.896 18.8524 15.424 18.2933 15.6L15.2105 16.544L14.1722 18H18.4051C20.1782 18 21.5998 16.56 21.5998 14.8V9.2C21.6157 7.44 20.1782 6 18.4051 6Z" fill="#000001"/>
<path d="M5.59456 6H9.82748L8.80519 7.456L5.72234 8.4C5.14731 8.576 4.77992 9.12 4.79589 9.68V14.32C4.79589 14.896 5.16328 15.424 5.72234 15.6L8.80519 16.544L9.82748 18H5.59456C3.8375 18 2.3999 16.56 2.3999 14.8V9.2C2.3999 7.44 3.8375 6 5.59456 6Z" fill="#000001"/>
</g>
</g>
</svg>
