<svg width="24" height="24" viewBox="0 0 24 24" fill="none" xmlns="http://www.w3.org/2000/svg">
<g id="size=24">
<path id="Path" d="M18.25 17C18.6642 17 19 17.3358 19 17.75C19 18.1642 18.6642 18.5 18.25 18.5H5.75C5.33579 18.5 5 18.1642 5 17.75C5 17.3358 5.33579 17 5.75 17H18.25ZM21.25 13C21.6642 13 22 13.3358 22 13.75C22 14.1642 21.6642 14.5 21.25 14.5H2.75C2.33579 14.5 2 14.1642 2 13.75C2 13.3358 2.33579 13 2.75 13H21.25ZM18.25 9C18.6642 9 19 9.33579 19 9.75C19 10.1642 18.6642 10.5 18.25 10.5H5.75C5.33579 10.5 5 10.1642 5 9.75C5 9.33579 5.33579 9 5.75 9H18.25ZM21.25 5C21.6642 5 22 5.33579 22 5.75C22 6.16421 21.6642 6.5 21.25 6.5H2.75C2.33579 6.5 2 6.16421 2 5.75C2 5.33579 2.33579 5 2.75 5H21.25Z" fill="#000001"/>
</g>
</svg>
