<svg width="24" height="24" viewBox="0 0 24 24" fill="none" xmlns="http://www.w3.org/2000/svg">
<g id="size=24">
<g id="Path">
<path d="M2.75 5C2.33579 5 2 5.33579 2 5.75C2 6.16421 2.33579 6.5 2.75 6.5H21.25C21.6642 6.5 22 6.16421 22 5.75C22 5.33579 21.6642 5 21.25 5H2.75Z" fill="#000001"/>
<path d="M6.75 9C6.33579 9 6 9.33579 6 9.75C6 10.1642 6.33579 10.5 6.75 10.5H21.25C21.6642 10.5 22 10.1642 22 9.75C22 9.33579 21.6642 9 21.25 9H6.75Z" fill="#000001"/>
<path d="M2 13.75C2 13.3358 2.33579 13 2.75 13H21.25C21.6642 13 22 13.3358 22 13.75C22 14.1642 21.6642 14.5 21.25 14.5H2.75C2.33579 14.5 2 14.1642 2 13.75Z" fill="#000001"/>
<path d="M6.75 17C6.33579 17 6 17.3358 6 17.75C6 18.1642 6.33579 18.5 6.75 18.5H21.25C21.6642 18.5 22 18.1642 22 17.75C22 17.3358 21.6642 17 21.25 17H6.75Z" fill="#000001"/>
</g>
</g>
</svg>
