<svg width="16" height="16" viewBox="0 0 16 16" fill="none" xmlns="http://www.w3.org/2000/svg">
<g id="size=16">
<path id="Path" d="M11.25 12C11.6642 12 12 12.3358 12 12.75C12 13.1642 11.6642 13.5 11.25 13.5H1.75C1.33579 13.5 1 13.1642 1 12.75C1 12.3358 1.33579 12 1.75 12H11.25ZM14.25 9C14.6642 9 15 9.33579 15 9.75C15 10.1642 14.6642 10.5 14.25 10.5H1.75C1.33579 10.5 1 10.1642 1 9.75C1 9.33579 1.33579 9 1.75 9H14.25ZM11.25 6C11.6642 6 12 6.33579 12 6.75C12 7.16421 11.6642 7.5 11.25 7.5H1.75C1.33579 7.5 1 7.16421 1 6.75C1 6.33579 1.33579 6 1.75 6H11.25ZM14.25 3C14.6642 3 15 3.33579 15 3.75C15 4.16421 14.6642 4.5 14.25 4.5H1.75C1.33579 4.5 1 4.16421 1 3.75C1 3.33579 1.33579 3 1.75 3H14.25Z" fill="#000001"/>
</g>
</svg>
