<svg width="24" height="24" viewBox="0 0 24 24" fill="none" xmlns="http://www.w3.org/2000/svg">
<g id="size=24">
<path id="Path" d="M21.25 17C21.6642 17 22 17.3358 22 17.75C22 18.1642 21.6642 18.5 21.25 18.5H6.75C6.33579 18.5 6 18.1642 6 17.75C6 17.3358 6.33579 17 6.75 17H21.25ZM21.25 13C21.6642 13 22 13.3358 22 13.75C22 14.1642 21.6642 14.5 21.25 14.5H2.75C2.33579 14.5 2 14.1642 2 13.75C2 13.3358 2.33579 13 2.75 13H21.25ZM21.25 9C21.6642 9 22 9.33579 22 9.75C22 10.1642 21.6642 10.5 21.25 10.5H6.75C6.33579 10.5 6 10.1642 6 9.75C6 9.33579 6.33579 9 6.75 9H21.25ZM21.25 5C21.6642 5 22 5.33579 22 5.75C22 6.16421 21.6642 6.5 21.25 6.5H2.75C2.33579 6.5 2 6.16421 2 5.75C2 5.33579 2.33579 5 2.75 5H21.25Z" fill="#000001"/>
</g>
</svg>
