<svg width="24" height="24" viewBox="0 0 24 24" fill="none" xmlns="http://www.w3.org/2000/svg">
<g id="size=24">
<g id="Group 203">
<path id="path46" d="M9.86621 8.47339H10.7903V11.1982L13.4511 8.47339H14.671L11.7513 11.4755L14.8556 14.9396H13.673L10.7903 11.7066V14.9396H9.86621V8.47339Z" fill="url(#paint0_linear_879_136)"/>
<path id="path62" d="M12.7605 5.90732L17.3113 8.53405C17.3888 8.57902 17.4367 8.66187 17.4367 8.75136V14.0049C17.4367 14.0945 17.4848 14.1774 17.5624 14.2222L21.6234 16.5664C21.7908 16.6631 22 16.5422 22 16.3492V6.11717C22 6.0276 21.9521 5.94483 21.8745 5.8999L13.0116 0.784063C12.8442 0.687503 12.6348 0.808275 12.6348 1.0014V5.69005C12.6348 5.77951 12.6827 5.86239 12.7605 5.90732Z" fill="url(#paint1_linear_879_136)"/>
<path id="path78" d="M16.6763 15.3216L12.1255 17.9484C12.0479 17.9933 11.9521 17.9933 11.8745 17.9484L6.68871 14.9551C6.61114 14.9101 6.56299 14.8272 6.56299 14.7378V8.75105C6.56299 8.66148 6.61114 8.57871 6.68871 8.53375L11.2395 5.90691C11.3173 5.86208 11.3651 5.7792 11.3651 5.68974V1.00131C11.3651 0.808186 11.1557 0.687414 10.9884 0.783974L2.12542 5.89981C2.04783 5.94474 2 6.02751 2 6.11708V17.3717C2 17.4612 2.04783 17.5441 2.12542 17.589L11.8745 23.2163C11.9521 23.2612 12.0479 23.2612 12.1255 23.2163L20.9884 18.1006C21.1558 18.0039 21.1558 17.7624 20.9884 17.6658L16.9274 15.3216C16.8495 15.2767 16.7539 15.2767 16.6763 15.3216Z" fill="url(#paint2_linear_879_136)"/>
</g>
</g>
<defs>
<linearGradient id="paint0_linear_879_136" x1="15.3832" y1="14.5697" x2="12.246" y2="7.51399" gradientUnits="userSpaceOnUse">
<stop stop-color="#426DDB"/>
<stop offset="1" stop-color="#3B4BDB"/>
</linearGradient>
<linearGradient id="paint1_linear_879_136" x1="22.9904" y1="15.6937" x2="13.9953" y2="0.202154" gradientUnits="userSpaceOnUse">
<stop stop-color="#426DDB"/>
<stop offset="1" stop-color="#3B4BDB"/>
</linearGradient>
<linearGradient id="paint2_linear_879_136" x1="14.0465" y1="22.0214" x2="4.2388" y2="4.70156" gradientUnits="userSpaceOnUse">
<stop stop-color="#2775FF"/>
<stop offset="1" stop-color="#188DFF"/>
</linearGradient>
</defs>
</svg>
