<svg width="24" height="24" viewBox="0 0 24 24" fill="none" xmlns="http://www.w3.org/2000/svg">
<g id="size=24">
<g id="Path">
<path fill-rule="evenodd" clip-rule="evenodd" d="M11.8893 21.6337L3.31892 17.3171V7.65644L9.85812 3.80001V6.66691L6.26275 8.91714C6.07282 9.03708 5.95676 9.24438 5.95676 9.46862V15.4619C5.95676 15.7096 6.09788 15.9351 6.32342 16.0459L11.5239 18.5934C11.7086 18.6847 11.9288 18.6821 12.1148 18.5895L16.1968 16.5361L18.9389 18.8203L11.8893 21.6337ZM16.7112 15.2611C16.5107 15.0929 16.2219 15.0616 15.9871 15.1789L11.8114 17.2792L7.27567 15.0577V9.82584L10.8697 7.57561C11.061 7.45566 11.177 7.24837 11.177 7.02413V2.65273C11.177 2.41806 11.0491 2.20164 10.8434 2.08561C10.635 1.96828 10.3804 1.97219 10.1799 2.09343L2.32182 6.72558C2.12266 6.84291 2 7.05542 2 7.28618V17.716C2 17.9611 2.13849 18.1853 2.36006 18.2962L11.5582 22.9296C11.6505 22.9765 11.7534 23 11.8576 23C11.9407 23 12.0238 22.9844 12.1042 22.9531L20.449 19.6247C20.6627 19.5386 20.817 19.3483 20.8539 19.1214C20.8896 18.8959 20.8038 18.6677 20.6271 18.5204L16.7112 15.2611Z" fill="url(#paint0_linear_1587_73)"/>
<path fill-rule="evenodd" clip-rule="evenodd" d="M20.3805 15.1787L17.81 13.1827V9.46973C17.81 9.24418 17.6926 9.03428 17.4987 8.91564L13.8189 6.6615V3.79591L20.3805 7.63669V15.1787ZM21.3763 6.70452L13.4958 2.09063C13.2927 1.97199 13.0381 1.96939 12.8324 2.08542C12.6279 2.20145 12.5 2.41657 12.5 2.65124V7.02394C12.5 7.24948 12.6187 7.45938 12.8113 7.57802L16.491 9.83216V13.4995C16.491 13.699 16.5847 13.8881 16.7443 14.0119L20.6325 17.034C20.7512 17.1265 20.8936 17.1735 21.04 17.1735C21.1376 17.1735 21.2365 17.1513 21.3275 17.107C21.5544 16.9988 21.6995 16.7706 21.6995 16.5216V7.26513C21.6995 7.03437 21.5768 6.82055 21.3763 6.70452Z" fill="url(#paint1_linear_1587_73)"/>
</g>
</g>
<defs>
<linearGradient id="paint0_linear_1587_73" x1="13.4885" y1="7" x2="2.17586" y2="12.3704" gradientUnits="userSpaceOnUse">
<stop offset="0.26113" stop-color="#F7981D"/>
<stop offset="0.696918" stop-color="#F37731"/>
<stop offset="1" stop-color="#F1623E"/>
</linearGradient>
<linearGradient id="paint1_linear_1587_73" x1="13.4885" y1="7" x2="2.17586" y2="12.3704" gradientUnits="userSpaceOnUse">
<stop offset="0.26113" stop-color="#F7981D"/>
<stop offset="0.696918" stop-color="#F37731"/>
<stop offset="1" stop-color="#F1623E"/>
</linearGradient>
</defs>
</svg>
