<svg width="16" height="16" viewBox="0 0 16 16" fill="none" xmlns="http://www.w3.org/2000/svg">
<g id="size=16">
<path id="Path" fill-rule="evenodd" clip-rule="evenodd" d="M14.4951 10.057L12.5366 8.53623V5.70726C12.5366 5.53542 12.4471 5.37549 12.2994 5.2851L9.49578 3.56766V1.38435L14.4951 4.31066V10.057ZM15.2538 3.60044L9.24958 0.0850939C9.09483 -0.00529786 8.90088 -0.00728449 8.74412 0.0811206C8.58836 0.169526 8.49089 0.333423 8.49089 0.51222V3.8438C8.49089 4.01564 8.58133 4.17557 8.72804 4.26596L11.5317 5.9834V8.7776C11.5317 8.92958 11.603 9.07361 11.7246 9.16797L14.687 11.4705C14.7775 11.541 14.886 11.5768 14.9976 11.5768C15.0719 11.5768 15.1473 11.5599 15.2166 11.5261C15.3895 11.4437 15.5 11.2698 15.5 11.0801V4.02756C15.5 3.85175 15.4065 3.68884 15.2538 3.60044ZM8.03467 14.959L1.50489 11.6701V4.30967L6.48714 1.37144V3.55574L3.74781 5.2702C3.6031 5.36159 3.51467 5.51952 3.51467 5.69037V10.2566C3.51467 10.4454 3.62219 10.6172 3.79403 10.7017L7.75631 12.6426C7.897 12.7121 8.06482 12.7101 8.2065 12.6396L11.3166 11.0751L13.4058 12.8154L8.03467 14.959ZM11.7085 10.1037C11.5558 9.97554 11.3357 9.9517 11.1569 10.0411L7.97538 11.6413L4.51956 9.94872V5.96254L7.25789 4.24808C7.4036 4.1567 7.49203 3.99876 7.49203 3.82791V0.49732C7.49203 0.318523 7.39455 0.153633 7.23779 0.0652276C7.07902 -0.0241709 6.88507 -0.0211909 6.73233 0.0711875L0.745193 3.60044C0.593455 3.68984 0.5 3.85175 0.5 4.02756V11.9741C0.5 12.1608 0.605514 12.3317 0.774335 12.4161L7.78244 15.9464C7.85278 15.9821 7.93117 16 8.01055 16C8.07386 16 8.13717 15.9881 8.19847 15.9642L14.5564 13.4283C14.7192 13.3627 14.8368 13.2177 14.8649 13.0449C14.892 12.873 14.8267 12.6992 14.6921 12.587L11.7085 10.1037Z" fill="#000001"/>
</g>
</svg>
