<svg width="16" height="16" viewBox="0 0 16 16" fill="none" xmlns="http://www.w3.org/2000/svg">
<g id="size=16">
<g id="Path">
<path d="M8.08785 12.0978L11.2734 10.2882C11.3277 10.2573 11.3946 10.2573 11.4492 10.2882L14.2919 11.9031C14.4091 11.9697 14.4091 12.136 14.2919 12.2026L8.08785 15.7268C8.03355 15.7577 7.96644 15.7577 7.91214 15.7268L1.0878 11.8502C1.03348 11.8192 1 11.7622 1 11.7005V3.94732C1 3.88562 1.03348 3.8286 1.0878 3.79765L7.29185 0.273405C7.40902 0.206885 7.55556 0.290083 7.55556 0.423123V3.65293C7.55556 3.71456 7.52208 3.77166 7.46764 3.80254L4.2821 5.61214C4.2278 5.64311 4.19409 5.70013 4.19409 5.76184V9.88601C4.19409 9.94764 4.2278 10.0047 4.2821 10.0357L7.91214 12.0978C7.96644 12.1287 8.03355 12.1287 8.08785 12.0978Z" fill="#000001"/>
<path d="M8.53234 3.8028L11.7179 5.61233C11.7722 5.6433 11.8057 5.70038 11.8057 5.76203V9.38115C11.8057 9.44286 11.8394 9.49995 11.8937 9.53083L14.7364 11.1457C14.8536 11.2124 15 11.1291 15 10.9961V3.94737C15 3.88566 14.9665 3.82864 14.9122 3.79769L8.70814 0.273448C8.59096 0.206928 8.44434 0.290126 8.44434 0.423166V3.65312C8.44434 3.71475 8.47789 3.77185 8.53234 3.8028Z" fill="#000001"/>
<path d="M6.38123 10.148H7.27806V8.12062L9.11497 10.148H10.2786L7.99679 7.64205L10.1655 5.44747H8.96301L7.27806 7.14552V5.44747H6.38123V10.148Z" fill="#000001"/>
</g>
</g>
</svg>
