<svg width="16" height="16" viewBox="0 0 16 16" fill="none" xmlns="http://www.w3.org/2000/svg">
<g id="size=16">
<g id="Path">
<path fill-rule="evenodd" clip-rule="evenodd" d="M8.0301 14.9499L1.50428 11.6631V4.30705L6.4835 1.37061V3.55358L3.74583 5.267C3.60122 5.35833 3.51284 5.51617 3.51284 5.68692V10.2504C3.51284 10.439 3.6203 10.6108 3.79203 10.6952L7.75191 12.6349C7.89251 12.7044 8.06022 12.7024 8.20183 12.6319L11.3101 11.0684L13.398 12.8077L8.0301 14.9499ZM11.7017 10.0975C11.5491 9.96948 11.3292 9.94566 11.1504 10.035L7.97084 11.6343L4.51712 9.94268V5.95892L7.25379 4.2455C7.39941 4.15417 7.48778 3.99633 7.48778 3.82558V0.497018C7.48778 0.31833 7.39037 0.153539 7.2337 0.065188C7.07503 -0.0241562 6.8812 -0.021178 6.72855 0.0711443L0.745044 3.59825C0.593398 3.6876 0.5 3.84941 0.5 4.02512V11.9668C0.5 12.1535 0.605449 12.3242 0.774169 12.4086L7.77802 15.9367C7.84832 15.9724 7.92665 15.9903 8.00599 15.9903C8.06926 15.9903 8.13253 15.9784 8.19379 15.9546L14.5479 13.4202C14.7106 13.3546 14.8281 13.2097 14.8562 13.037C14.8833 12.8652 14.818 12.6915 14.6835 12.5793L11.7017 10.0975Z" fill="url(#paint0_linear_1587_77)"/>
<path fill-rule="evenodd" clip-rule="evenodd" d="M14.4957 10.0349L12.5384 8.51501V5.68777C12.5384 5.51603 12.449 5.3562 12.3014 5.26586L9.49942 3.54946V1.36748L14.4957 4.29201V10.0349ZM15.254 3.58222L9.25338 0.0690122C9.09872 -0.0213247 8.90489 -0.0233101 8.74822 0.0650413C8.59256 0.153393 8.49514 0.31719 8.49514 0.495879V3.82544C8.49514 3.99718 8.58553 4.157 8.73216 4.24734L11.5341 5.96374V8.75624C11.5341 8.90813 11.6054 9.05207 11.7269 9.14638L14.6875 11.4475C14.7779 11.518 14.8864 11.5537 14.9979 11.5537C15.0722 11.5537 15.1475 11.5368 15.2168 11.5031C15.3895 11.4207 15.5 11.247 15.5 11.0574V4.00909C15.5 3.83338 15.4066 3.67057 15.254 3.58222Z" fill="url(#paint1_linear_1587_77)"/>
</g>
</g>
<defs>
<linearGradient id="paint0_linear_1587_77" x1="9.2478" y1="3.80721" x2="0.633904" y2="7.89649" gradientUnits="userSpaceOnUse">
<stop offset="0.26113" stop-color="#F7981D"/>
<stop offset="0.696918" stop-color="#F37731"/>
<stop offset="1" stop-color="#F1623E"/>
</linearGradient>
<linearGradient id="paint1_linear_1587_77" x1="9.2478" y1="3.80721" x2="0.633904" y2="7.89649" gradientUnits="userSpaceOnUse">
<stop offset="0.26113" stop-color="#F7981D"/>
<stop offset="0.696918" stop-color="#F37731"/>
<stop offset="1" stop-color="#F1623E"/>
</linearGradient>
</defs>
</svg>
