<svg width="16" height="16" viewBox="0 0 16 16" fill="none" xmlns="http://www.w3.org/2000/svg">
<g id="size=16">
<path id="Path" fill-rule="evenodd" clip-rule="evenodd" d="M3.22147 1.08381C3.92486 0.503226 4.81949 0.25 5.64286 0.25C7.30077 0.25 9.24333 1.41185 9.24333 3.76865C9.24333 4.90852 8.6613 5.69349 8.02069 6.28897C7.71309 6.5749 7.37132 6.83625 7.05996 7.07434L7.04106 7.0888C6.95348 7.15578 6.86808 7.22116 6.78489 7.28571C8.19318 8.54626 9.76305 9.84199 11.0774 10.896C11.405 10.2318 11.7174 9.34533 11.9812 8.12307C12.0685 7.71818 12.4676 7.46078 12.8725 7.54817C13.2774 7.63555 13.5348 8.03462 13.4474 8.43951C13.129 9.91484 12.7295 11.0058 12.2746 11.8462C12.6266 12.1228 12.9373 12.3644 13.1927 12.5618C13.4315 12.7464 13.6218 12.8922 13.7521 12.9918L13.9013 13.1054L13.9395 13.1343L13.9514 13.1433C14.2819 13.3929 14.3481 13.8637 14.0985 14.1943C13.8488 14.5248 13.3785 14.5904 13.048 14.3407L13.4389 13.8231C13.048 14.3407 13.048 14.3407 13.048 14.3407L12.9943 14.3001C12.9595 14.2737 12.9083 14.2347 12.842 14.1841C12.7094 14.0828 12.5167 13.9352 12.2753 13.7486C12.0365 13.5639 11.7499 13.3411 11.4266 13.0875C10.942 13.6502 10.4497 14.0248 10.0181 14.3447C7.85598 15.9477 6.02743 15.9514 4.61585 15.4718C4.08622 15.2918 3.38809 14.8835 2.81432 14.2524C2.22993 13.6095 1.75 12.7057 1.75 11.5579C1.75 10.1998 2.3975 9.20231 3.12127 8.4504C3.47998 8.07774 3.86918 7.75292 4.21928 7.46994C4.2953 7.40849 4.36854 7.34972 4.43912 7.29309C4.45166 7.28303 4.46412 7.27303 4.47649 7.2631C4.44533 7.23826 4.41369 7.21308 4.38159 7.18753C4.35228 7.1642 4.32258 7.14056 4.29249 7.11659C3.97599 6.8644 3.62505 6.58138 3.30339 6.27308C2.67698 5.67268 2.025 4.85 2.025 3.76865C2.025 2.58788 2.49744 1.68143 3.22147 1.08381ZM5.64283 6.27579C5.80613 6.14486 5.96844 6.02073 6.12238 5.90301L6.12984 5.89729C6.45841 5.64602 6.74796 5.42408 6.99943 5.19033C7.48941 4.73486 7.74333 4.31929 7.74333 3.76865C7.74333 2.45529 6.7051 1.75 5.64286 1.75C5.10614 1.75 4.56685 1.9183 4.17633 2.24064C3.80645 2.54594 3.525 3.02382 3.525 3.76865C3.525 4.21426 3.79152 4.66319 4.34133 5.19018C4.60778 5.44556 4.90937 5.69018 5.22724 5.94346C5.25809 5.96803 5.28921 5.99279 5.32053 6.0177C5.42674 6.10217 5.53522 6.18845 5.64283 6.27579ZM5.62724 8.26218C5.53685 8.33573 5.44571 8.4088 5.35581 8.48088C5.29036 8.53335 5.22557 8.58529 5.16221 8.63651C4.82057 8.91265 4.49236 9.18895 4.20196 9.49064C3.62751 10.0874 3.25 10.7315 3.25 11.5579C3.25 12.2586 3.53627 12.8166 3.92426 13.2434C4.32286 13.6819 4.80331 13.9512 5.09844 14.0515C6.044 14.3728 7.3583 14.4494 9.12476 13.1398C9.51677 12.8491 9.89132 12.561 10.2498 12.155C8.85739 11.0405 7.14547 9.62995 5.62724 8.26218Z" fill="#000001"/>
</g>
</svg>
