<svg width="16" height="16" viewBox="0 0 16 16" fill="none" xmlns="http://www.w3.org/2000/svg">
<g id="size=16">
<path id="Path" d="M5.64258 0.25C7.30047 0.25 9.24311 1.41182 9.24316 3.76855C9.24316 4.90843 8.66112 5.69358 8.02051 6.28906C7.71295 6.57494 7.37088 6.83616 7.05957 7.07422L7.04102 7.08887C6.95346 7.15583 6.86833 7.2216 6.78516 7.28613C8.19336 8.54659 9.7629 9.84256 11.0771 10.8965C11.4047 10.2323 11.7177 9.34531 11.9814 8.12305C12.0688 7.71836 12.4674 7.46078 12.8721 7.54785C13.277 7.63523 13.5346 8.03457 13.4473 8.43945C13.1289 9.91461 12.7293 11.0054 12.2744 11.8457C12.6263 12.1222 12.9371 12.3642 13.1924 12.5615C13.4311 12.7461 13.6216 12.8927 13.752 12.9922L13.9014 13.1055L13.9395 13.1348L13.9512 13.1436C14.2817 13.3932 14.3482 13.8638 14.0986 14.1943C13.849 14.5249 13.3784 14.5905 13.0479 14.3408L12.9941 14.2998C12.9593 14.2734 12.9079 14.2341 12.8418 14.1836C12.7093 14.0824 12.5164 13.9354 12.2754 13.749C12.0366 13.5644 11.7499 13.3414 11.4268 13.0879C10.9423 13.6503 10.45 14.0248 10.0186 14.3447C7.8566 15.9475 6.02775 15.9512 4.61621 15.4717C4.08658 15.2917 3.38823 14.8831 2.81445 14.252C2.23013 13.6091 1.75 12.7053 1.75 11.5576C1.75008 10.1997 2.39737 9.20206 3.12109 8.4502C3.4798 8.07754 3.86963 7.75271 4.21973 7.46973C4.29561 7.40839 4.36899 7.34951 4.43945 7.29297C4.45191 7.28298 4.46427 7.27256 4.47656 7.2627C4.44549 7.23793 4.41384 7.21297 4.38184 7.1875C4.35256 7.1642 4.32302 7.14015 4.29297 7.11621C3.97659 6.86412 3.62528 6.58161 3.30371 6.27344C2.6773 5.67304 2.02539 4.84991 2.02539 3.76855C2.02541 2.58784 2.49767 1.68159 3.22168 1.08398C3.92498 0.503487 4.81931 0.250057 5.64258 0.25ZM5.35547 8.48047C5.29003 8.53294 5.22547 8.5855 5.16211 8.63672C4.82065 8.91272 4.49243 9.18871 4.20215 9.49023C3.62776 10.087 3.25008 10.7314 3.25 11.5576C3.25 12.2582 3.53599 12.8164 3.92383 13.2432C4.32243 13.6817 4.8035 13.9515 5.09863 14.0518C6.04418 14.373 7.3587 14.4491 9.125 13.1396C9.51691 12.8491 9.89155 12.5611 10.25 12.1553C8.85755 11.0408 7.14518 9.62949 5.62695 8.26172C5.53656 8.33527 5.44537 8.40839 5.35547 8.48047ZM5.64258 1.75C5.10616 1.75006 4.56717 1.9182 4.17676 2.24023C3.80689 2.54553 3.52541 3.02378 3.52539 3.76855C3.52539 4.21417 3.79199 4.66345 4.3418 5.19043C4.60816 5.44569 4.90982 5.6902 5.22754 5.94336L5.64258 6.27539C5.80574 6.14457 5.96825 6.02096 6.12207 5.90332L6.12988 5.89746C6.45833 5.64628 6.74762 5.42409 6.99902 5.19043C7.489 4.73496 7.74316 4.3192 7.74316 3.76855C7.74312 2.45525 6.70479 1.75 5.64258 1.75Z" fill="#000001"/>
</g>
</svg>
