<svg width="16" height="16" viewBox="0 0 16 16" fill="none" xmlns="http://www.w3.org/2000/svg">
<g id="size=16">
<path id="Path" d="M5.64258 0.250168C7.30047 0.250168 9.24311 1.41199 9.24316 3.76872C9.24311 4.90851 8.66109 5.69377 8.02051 6.28923C7.71297 6.57507 7.37086 6.83635 7.05957 7.07439L7.04102 7.08904C6.95349 7.15597 6.8683 7.22179 6.78516 7.2863C8.19334 8.54673 9.76292 9.84275 11.0771 10.8967C11.4047 10.2325 11.7177 9.3454 11.9814 8.12321C12.0688 7.71853 12.4674 7.46095 12.8721 7.54802C13.2769 7.63542 13.5346 8.03475 13.4473 8.43962C13.1289 9.9147 12.7293 11.0056 12.2744 11.8459C12.6263 12.1223 12.9371 12.3643 13.1924 12.5617C13.4311 12.7462 13.6216 12.8928 13.752 12.9924L13.9014 13.1056L13.9395 13.1349L13.9512 13.1437C14.2816 13.3934 14.3482 13.864 14.0986 14.1945C13.849 14.5249 13.3783 14.5905 13.0479 14.341L12.9941 14.3C12.9593 14.2736 12.9079 14.2342 12.8418 14.1838C12.7093 14.0826 12.5164 13.9355 12.2754 13.7492C12.0366 13.5646 11.7498 13.3415 11.4268 13.0881C10.9423 13.6505 10.45 14.025 10.0186 14.3449C7.85666 15.9476 6.02772 15.9514 4.61621 15.4718C4.08661 15.2919 3.38821 14.8833 2.81445 14.2521C2.23015 13.6093 1.75005 12.7054 1.75 11.5578C1.75008 10.1999 2.3974 9.20222 3.12109 8.45036C3.47977 8.07774 3.86965 7.75286 4.21973 7.46989C4.29558 7.40858 4.36901 7.34966 4.43945 7.29314C4.45188 7.28317 4.4643 7.27271 4.47656 7.26286C4.44552 7.23812 4.41381 7.21312 4.38184 7.18767C4.35259 7.16439 4.32299 7.1403 4.29297 7.11638C3.97661 6.86431 3.62525 6.58175 3.30371 6.27361C2.67734 5.67323 2.02546 4.84999 2.02539 3.76872C2.02541 2.58805 2.49771 1.68176 3.22168 1.08415C3.92498 0.503655 4.81931 0.250225 5.64258 0.250168ZM5.35547 8.48064C5.29005 8.53308 5.22545 8.58569 5.16211 8.63689C4.82067 8.91287 4.49241 9.1889 4.20215 9.4904C3.6278 10.0871 3.25008 10.7316 3.25 11.5578C3.25004 12.2583 3.53602 12.8166 3.92383 13.2433C4.32242 13.6818 4.80352 13.9516 5.09863 14.0519C6.04416 14.3731 7.35877 14.4492 9.125 13.1398C9.51688 12.8493 9.89158 12.5612 10.25 12.1554C8.85757 11.041 7.14516 9.62963 5.62695 8.26189C5.53658 8.33541 5.44534 8.40858 5.35547 8.48064ZM5.64258 1.75017C5.10616 1.75023 4.56717 1.91836 4.17676 2.2404C3.80693 2.5457 3.52541 3.024 3.52539 3.76872C3.52546 4.21428 3.79205 4.66368 4.3418 5.1906C4.60814 5.44583 4.90985 5.69039 5.22754 5.94353L5.64258 6.27556C5.80571 6.14476 5.96827 6.02111 6.12207 5.90349L6.12988 5.89763C6.4583 5.64647 6.74764 5.42423 6.99902 5.1906C7.48896 4.73518 7.74311 4.31929 7.74316 3.76872C7.74312 2.45542 6.70479 1.75017 5.64258 1.75017Z" fill="#000001"/>
</g>
</svg>
