<svg width="16" height="16" viewBox="0 0 16 16" fill="none" xmlns="http://www.w3.org/2000/svg">
<g id="size=16">
<g id="Path">
<path d="M7.9999 15.8722C3.65684 15.8722 0.123779 12.3386 0.123779 7.99607C0.123779 3.65357 3.65684 0.119385 7.9999 0.119385C12.343 0.119385 15.876 3.65301 15.876 7.99607C15.876 12.3391 12.343 15.8722 7.9999 15.8722ZM7.9999 1.25001C4.28065 1.25001 1.2544 4.2757 1.2544 7.99551C1.2544 11.7153 4.28065 14.741 7.9999 14.741C11.7192 14.741 14.7454 11.7153 14.7454 7.99551C14.7454 4.2757 11.7192 1.25001 7.9999 1.25001Z" fill="#EE0000"/>
<path d="M5.18684 11.3722C5.09277 11.3721 5.00024 11.3484 4.9177 11.3032C4.83517 11.2581 4.76526 11.193 4.7144 11.1139C4.66353 11.0347 4.63332 10.9441 4.62653 10.8503C4.61974 10.7565 4.63658 10.6624 4.67553 10.5768L7.48803 4.38932C7.53277 4.29112 7.60482 4.20785 7.69558 4.14947C7.78635 4.09108 7.89199 4.06004 7.9999 4.06004C8.10782 4.06004 8.21346 4.09108 8.30422 4.14947C8.39499 4.20785 8.46704 4.29112 8.51178 4.38932L11.3243 10.5768C11.3757 10.6902 11.388 10.8174 11.3594 10.9386C11.3308 11.0597 11.2627 11.1679 11.166 11.2463C11.0693 11.3246 10.9493 11.3686 10.8248 11.3715C10.7004 11.3743 10.5785 11.3358 10.4783 11.2619L6.82484 8.56645L5.69928 11.042C5.65466 11.1405 5.58257 11.2239 5.49167 11.2824C5.40077 11.3409 5.29492 11.3724 5.18684 11.3722ZM7.30072 7.51963L9.40447 9.07213L7.9999 5.9812L7.30072 7.51963Z" fill="#001D6C"/>
</g>
</g>
</svg>
