<svg width="16" height="16" viewBox="0 0 16 16" fill="none" xmlns="http://www.w3.org/2000/svg">
<g id="size=16">
<path id="Path" d="M8 0.119141C12.343 0.119193 15.876 3.65306 15.876 7.99609C15.876 12.3391 12.343 15.872 8 15.8721C3.65694 15.8721 0.124035 12.3386 0.124023 7.99609C0.124023 3.65359 3.65694 0.119141 8 0.119141ZM8 1.25C4.28088 1.25 1.2551 4.27548 1.25488 7.99512C1.25488 11.7149 4.28075 14.7412 8 14.7412C11.7192 14.7412 14.7451 11.7149 14.7451 7.99512C14.7449 4.27552 11.7191 1.25005 8 1.25ZM8 4.05957C8.10792 4.05957 8.21393 4.09103 8.30469 4.14941C8.39536 4.20779 8.467 4.29151 8.51172 4.38965L11.3242 10.5771C11.3756 10.6905 11.388 10.8174 11.3594 10.9385C11.3307 11.0596 11.2628 11.1678 11.166 11.2461C11.0693 11.3244 10.9496 11.3682 10.8252 11.3711C10.7007 11.3739 10.5787 11.3356 10.4785 11.2617L6.8252 8.56641L5.69922 11.042C5.65465 11.1403 5.58292 11.2238 5.49219 11.2822C5.40142 11.3406 5.29542 11.3722 5.1875 11.3721L5.11719 11.3682C5.04759 11.3594 4.9799 11.3375 4.91797 11.3037C4.83557 11.2587 4.76569 11.1932 4.71484 11.1143C4.66403 11.0352 4.63379 10.9443 4.62695 10.8506C4.62017 10.7569 4.63692 10.6627 4.67578 10.5771L7.48828 4.38965C7.53298 4.29155 7.60469 4.20779 7.69531 4.14941C7.78605 4.09104 7.89211 4.05959 8 4.05957ZM7.30078 7.51953L9.4043 9.07227L8 5.98145L7.30078 7.51953Z" fill="#000001"/>
</g>
</svg>
