<svg width="24" height="24" viewBox="0 0 24 24" fill="none" xmlns="http://www.w3.org/2000/svg">
<g id="size=24">
<path id="Path" d="M12 1.49219C17.7908 1.49219 22.502 6.20437 22.502 11.9951C22.5017 17.7857 17.7906 22.4961 12 22.4961C6.20939 22.4961 1.49923 17.7849 1.49902 11.9951C1.49902 6.20513 6.20927 1.49221 12 1.49219ZM12 3C7.04102 3.00002 3.00586 7.0344 3.00586 11.9941C3.00594 16.9538 7.04107 20.9883 12 20.9883C16.959 20.9883 20.9941 16.9538 20.9941 11.9941C20.9941 7.03439 16.959 3 12 3ZM12 6.74707C12.1439 6.74707 12.2852 6.78836 12.4062 6.86621C12.527 6.94402 12.623 7.05482 12.6826 7.18555L16.4326 15.4355C16.5011 15.5867 16.5176 15.7565 16.4795 15.918C16.4413 16.0794 16.3506 16.2237 16.2217 16.3281C16.0927 16.4326 15.9325 16.4913 15.7666 16.4951C15.6008 16.4989 15.4382 16.4479 15.3047 16.3496L10.4336 12.7549L8.93262 16.0557C8.87313 16.1869 8.77647 16.299 8.65527 16.377C8.53419 16.4547 8.39293 16.4954 8.24902 16.4951C8.12374 16.4949 8.00056 16.4644 7.89062 16.4043C7.78058 16.3441 7.68696 16.2569 7.61914 16.1514C7.55155 16.0461 7.51105 15.9256 7.50195 15.8008C7.4929 15.6757 7.51546 15.5497 7.56738 15.4355L11.3174 7.18555C11.377 7.05465 11.4737 6.94404 11.5947 6.86621C11.7157 6.78845 11.8562 6.74708 12 6.74707ZM11.0674 11.3594L13.873 13.4297L12 9.30859L11.0674 11.3594Z" fill="#000001"/>
</g>
</svg>
