<svg width="24" height="24" viewBox="0 0 24 24" fill="none" xmlns="http://www.w3.org/2000/svg">
<g id="size=24">
<g id="Path">
<path d="M12 22.4962C6.20929 22.4962 1.49854 17.7847 1.49854 11.9947C1.49854 6.20474 6.20929 1.49249 12 1.49249C17.7908 1.49249 22.5015 6.20399 22.5015 11.9947C22.5015 17.7855 17.7908 22.4962 12 22.4962ZM12 2.99999C7.04104 2.99999 3.00604 7.03424 3.00604 11.994C3.00604 16.9537 7.04104 20.988 12 20.988C16.959 20.988 20.994 16.9537 20.994 11.994C20.994 7.03424 16.959 2.99999 12 2.99999Z" fill="#EE0000"/>
<path d="M8.24928 16.4962C8.12386 16.4961 8.00048 16.4645 7.89043 16.4043C7.78038 16.3441 7.68718 16.2573 7.61936 16.1518C7.55153 16.0463 7.51125 15.9255 7.5022 15.8004C7.49314 15.6753 7.51561 15.5499 7.56754 15.4357L11.3175 7.18574C11.3772 7.0548 11.4733 6.94379 11.5943 6.86594C11.7153 6.78809 11.8561 6.7467 12 6.7467C12.1439 6.7467 12.2848 6.78809 12.4058 6.86594C12.5268 6.94379 12.6229 7.0548 12.6825 7.18574L16.4325 15.4357C16.5011 15.5869 16.5176 15.7565 16.4794 15.9181C16.4412 16.0796 16.3505 16.2239 16.2215 16.3283C16.0925 16.4328 15.9325 16.4915 15.7666 16.4953C15.6007 16.4991 15.4381 16.4477 15.3045 16.3492L10.4333 12.7552L8.93254 16.056C8.87304 16.1873 8.77693 16.2985 8.65572 16.3765C8.53452 16.4545 8.39339 16.4965 8.24928 16.4962ZM11.0678 11.3595L13.8728 13.4295L12 9.30824L11.0678 11.3595Z" fill="#001D6C"/>
</g>
</g>
</svg>
