<svg width="16" height="16" viewBox="0 0 16 16" fill="none" xmlns="http://www.w3.org/2000/svg">
<g id="size=16">
<path id="Path" d="M13.25 0.499832C14.4926 0.499832 15.4999 1.50727 15.5 2.74983C15.5 3.99247 14.4926 4.99983 13.25 4.99983C12.9027 4.99981 12.5739 4.92062 12.2803 4.78011L10.9355 6.12483L11.2197 6.40901C12.0983 7.28767 12.0983 8.712 11.2197 9.59065L10.9355 9.87483L12.2803 11.2196C12.5739 11.079 12.9027 10.9999 13.25 10.9998C14.4926 10.9998 15.4999 12.0073 15.5 13.2498C15.5 14.4925 14.4926 15.4998 13.25 15.4998C12.0074 15.4997 11 14.4924 11 13.2498C11 12.9026 11.0792 12.5738 11.2197 12.2801L9.875 10.9354L9.59082 11.2196C8.71217 12.0981 7.28783 12.0981 6.40918 11.2196L6.125 10.9354L4.78027 12.2801C4.92079 12.5738 4.99997 12.9026 5 13.2498C5 14.4925 3.99264 15.4998 2.75 15.4998C1.50744 15.4997 0.5 14.4924 0.5 13.2498C0.500092 12.0073 1.50749 10.9999 2.75 10.9998C3.09724 10.9998 3.42608 11.0791 3.71973 11.2196L5.06445 9.87483L4.78027 9.59065C3.90192 8.71199 3.90182 7.28761 4.78027 6.40901L5.06445 6.12483L3.71973 4.78011C3.42604 4.92062 3.09729 4.99983 2.75 4.99983C1.50744 4.99974 0.5 3.99242 0.5 2.74983C0.500092 1.50733 1.50749 0.499924 2.75 0.499832C3.99258 0.499832 4.99991 1.50727 5 2.74983C5 3.09713 4.92079 3.42588 4.78027 3.71956L6.125 5.06429L6.40918 4.78011C7.28777 3.90162 8.71215 3.90174 9.59082 4.78011L9.875 5.06429L11.2197 3.71956C11.0793 3.42591 11 3.09707 11 2.74983C11.0001 1.50733 12.0075 0.499924 13.25 0.499832ZM2.75 12.4998C2.33592 12.4999 2.00009 12.8358 2 13.2498C2 13.664 2.33586 13.9997 2.75 13.9998C3.16421 13.9998 3.5 13.664 3.5 13.2498C3.49991 12.8357 3.16416 12.4998 2.75 12.4998ZM13.25 12.4998C12.8359 12.4999 12.5001 12.8358 12.5 13.2498C12.5 13.664 12.8359 13.9997 13.25 13.9998C13.6642 13.9998 14 13.664 14 13.2498C13.9999 12.8357 13.6642 12.4998 13.25 12.4998ZM8.53027 5.84065C8.23739 5.54808 7.76253 5.54795 7.46973 5.84065L5.84082 7.46956C5.54815 7.76237 5.54826 8.23723 5.84082 8.53011L7.46973 10.159C7.76259 10.4518 8.23741 10.4517 8.53027 10.159L10.1592 8.53011C10.4519 8.23724 10.4519 7.76243 10.1592 7.46956L8.53027 5.84065ZM2.75 1.99983C2.33592 1.99992 2.00009 2.33575 2 2.74983C2 3.16399 2.33586 3.49974 2.75 3.49983C3.16421 3.49983 3.5 3.16405 3.5 2.74983C3.49991 2.3357 3.16416 1.99983 2.75 1.99983ZM13.25 1.99983C12.8359 1.99992 12.5001 2.33575 12.5 2.74983C12.5 3.16399 12.8359 3.49974 13.25 3.49983C13.6642 3.49983 14 3.16405 14 2.74983C13.9999 2.3357 13.6642 1.99983 13.25 1.99983Z" fill="#000001"/>
</g>
</svg>
