<svg width="16" height="16" viewBox="0 0 16 16" fill="none" xmlns="http://www.w3.org/2000/svg">
<g id="size=16">
<path id="Path" fill-rule="evenodd" clip-rule="evenodd" d="M0.5 2.75C0.5 1.50736 1.50736 0.5 2.75 0.5C3.99264 0.5 5 1.50736 5 2.75C5 3.09736 4.92128 3.42634 4.78072 3.72007L6.125 5.06435L6.40903 4.78032C7.28771 3.90164 8.71233 3.90164 9.59101 4.78032L9.87502 5.06433L11.2193 3.72007C11.0787 3.42634 11 3.09736 11 2.75C11 1.50736 12.0074 0.5 13.25 0.5C14.4926 0.5 15.5 1.50736 15.5 2.75C15.5 3.99264 14.4926 5 13.25 5C12.9026 5 12.5737 4.92129 12.2799 4.78072L10.9357 6.12499L11.2197 6.409C12.0984 7.28768 12.0984 8.7123 11.2197 9.59098L10.9357 9.875L12.2799 11.2193C12.5737 11.0787 12.9026 11 13.25 11C14.4926 11 15.5 12.0074 15.5 13.25C15.5 14.4926 14.4926 15.5 13.25 15.5C12.0074 15.5 11 14.4926 11 13.25C11 12.9026 11.0787 12.5737 11.2193 12.2799L9.87501 10.9357L9.59101 11.2197C8.71233 12.0983 7.28771 12.0983 6.40903 11.2197L6.12501 10.9356L4.78072 12.2799C4.92128 12.5737 5 12.9026 5 13.25C5 14.4926 3.99264 15.5 2.75 15.5C1.50736 15.5 0.5 14.4926 0.5 13.25C0.5 12.0074 1.50736 11 2.75 11C3.09736 11 3.42633 11.0787 3.72006 11.2193L5.06435 9.87498L4.78035 9.59098C3.90167 8.7123 3.90167 7.28768 4.78035 6.409L5.06434 6.12501L3.72006 4.78072C3.42633 4.92129 3.09736 5 2.75 5C1.50736 5 0.5 3.99264 0.5 2.75ZM2.75 2C2.33579 2 2 2.33579 2 2.75C2 3.16421 2.33579 3.5 2.75 3.5C3.16421 3.5 3.5 3.16421 3.5 2.75C3.5 2.33579 3.16421 2 2.75 2ZM2.75 12.5C2.33579 12.5 2 12.8358 2 13.25C2 13.6642 2.33579 14 2.75 14C3.16421 14 3.5 13.6642 3.5 13.25C3.5 12.8358 3.16421 12.5 2.75 12.5ZM12.5 13.25C12.5 12.8358 12.8358 12.5 13.25 12.5C13.6642 12.5 14 12.8358 14 13.25C14 13.6642 13.6642 14 13.25 14C12.8358 14 12.5 13.6642 12.5 13.25ZM13.25 2C12.8358 2 12.5 2.33579 12.5 2.75C12.5 3.16421 12.8358 3.5 13.25 3.5C13.6642 3.5 14 3.16421 14 2.75C14 2.33579 13.6642 2 13.25 2ZM7.46969 5.84098C7.76258 5.54808 8.23745 5.54808 8.53035 5.84098L10.159 7.46966C10.4519 7.76255 10.4519 8.23742 10.159 8.53032L8.53035 10.159C8.23745 10.4519 7.76258 10.4519 7.46969 10.159L5.84101 8.53032C5.54811 8.23742 5.54811 7.76255 5.84101 7.46966L7.46969 5.84098Z" fill="#000001"/>
</g>
</svg>
