<svg width="24" height="24" viewBox="0 0 24 24" fill="none" xmlns="http://www.w3.org/2000/svg">
<g id="size=24">
<path id="Path" fill-rule="evenodd" clip-rule="evenodd" d="M2 5C2 3.34315 3.34315 2 5 2C6.65685 2 8 3.34315 8 5C8 5.55636 7.84855 6.07734 7.58463 6.52398L9.375 8.31435L10.0555 7.63389C11.1294 6.55994 12.8706 6.55994 13.9445 7.63389L14.625 8.31434L16.4154 6.52398C16.1514 6.07734 16 5.55636 16 5C16 3.34315 17.3431 2 19 2C20.6569 2 22 3.34315 22 5C22 6.65685 20.6569 8 19 8C18.4436 8 17.9227 7.84855 17.476 7.58464L15.6857 9.375L16.3661 10.0555C17.4401 11.1294 17.4401 12.8706 16.3661 13.9445L15.6857 14.625L17.476 16.4154C17.9227 16.1514 18.4436 16 19 16C20.6569 16 22 17.3431 22 19C22 20.6569 20.6569 22 19 22C17.3431 22 16 20.6569 16 19C16 18.4436 16.1514 17.9227 16.4154 17.476L14.625 15.6857L13.9445 16.3661C12.8706 17.4401 11.1294 17.4401 10.0555 16.3661L9.375 15.6857L7.58463 17.476C7.84855 17.9227 8 18.4436 8 19C8 20.6569 6.65685 22 5 22C3.34315 22 2 20.6569 2 19C2 17.3431 3.34315 16 5 16C5.55635 16 6.07734 16.1514 6.52397 16.4154L8.31434 14.625L7.63389 13.9445C6.55994 12.8706 6.55994 11.1294 7.63389 10.0555L8.31434 9.37501L6.52397 7.58464C6.07734 7.84855 5.55635 8 5 8C3.34315 8 2 6.65685 2 5ZM5 3.5C4.17157 3.5 3.5 4.17157 3.5 5C3.5 5.82843 4.17157 6.5 5 6.5C5.82843 6.5 6.5 5.82843 6.5 5C6.5 4.17157 5.82843 3.5 5 3.5ZM5 17.5C4.17157 17.5 3.5 18.1716 3.5 19C3.5 19.8284 4.17157 20.5 5 20.5C5.82843 20.5 6.5 19.8284 6.5 19C6.5 18.1716 5.82843 17.5 5 17.5ZM17.5 19C17.5 18.1716 18.1716 17.5 19 17.5C19.8284 17.5 20.5 18.1716 20.5 19C20.5 19.8284 19.8284 20.5 19 20.5C18.1716 20.5 17.5 19.8284 17.5 19ZM19 3.5C18.1716 3.5 17.5 4.17157 17.5 5C17.5 5.82843 18.1716 6.5 19 6.5C19.8284 6.5 20.5 5.82843 20.5 5C20.5 4.17157 19.8284 3.5 19 3.5ZM11.1161 8.69455C11.6043 8.20639 12.3957 8.20639 12.8839 8.69455L15.3055 11.1161C15.7936 11.6043 15.7936 12.3957 15.3055 12.8839L12.8839 15.3055C12.3957 15.7936 11.6043 15.7936 11.1161 15.3055L8.69455 12.8839C8.20639 12.3957 8.20639 11.6043 8.69455 11.1161L11.1161 8.69455Z" fill="#000001"/>
</g>
</svg>
