<svg width="16" height="16" viewBox="0 0 16 16" fill="none" xmlns="http://www.w3.org/2000/svg">
<g id="size=16">
<path id="Vector" d="M10.1673 3.24242C10.6017 2.7192 10.9088 2.00163 10.9088 1.28407C10.9088 1.17942 10.9013 1.08225 10.8789 1.00003C10.1748 1.02993 9.32841 1.47093 8.81908 2.0689C8.4221 2.51738 8.04759 3.24242 8.04759 3.95999C8.04759 4.07211 8.07006 4.17675 8.07755 4.21413C8.12249 4.2216 8.1974 4.22907 8.26481 4.22907C8.90147 4.22907 9.69543 3.81049 10.1673 3.24242ZM10.6617 4.38604C9.60554 4.38604 8.74418 5.02886 8.1974 5.02886C7.60567 5.02886 6.84168 4.42342 5.9129 4.42342C4.1677 4.42342 2.40002 5.86602 2.40002 8.57932C2.40002 10.2761 3.05167 12.07 3.8606 13.2211C4.55719 14.1928 5.16389 15 6.04023 15C6.90909 15 7.29109 14.4245 8.36967 14.4245C9.46323 14.4245 9.70292 14.9851 10.6617 14.9851C11.6129 14.9851 12.2496 14.118 12.8413 13.2584C13.5154 12.2718 13.7925 11.315 13.8 11.2702C13.7476 11.2552 11.9275 10.5152 11.9275 8.4373C11.9275 6.64338 13.3581 5.83612 13.4405 5.77633C12.4967 4.42342 11.0586 4.38604 10.6617 4.38604Z" fill="#000001"/>
</g>
</svg>
