<svg width="16" height="16" viewBox="0 0 16 16" fill="none" xmlns="http://www.w3.org/2000/svg">
<g id="size=16">
<path id="Path" fill-rule="evenodd" clip-rule="evenodd" d="M3.21959 3.21975C3.51251 2.92721 3.98736 2.92698 4.28014 3.21975L11.4999 10.4395V6.75003C11.4999 6.33582 11.8357 6.00003 12.2499 6.00003C12.6633 6.00095 12.9999 6.3364 12.9999 6.75003V12.25C12.9997 12.3511 12.9796 12.4492 12.9432 12.5371C12.9067 12.6252 12.8517 12.7087 12.7801 12.7803C12.6341 12.9262 12.4412 12.9996 12.2499 13H6.74986C6.3361 13 6.00059 12.6636 5.99986 12.25C5.99987 11.8358 6.33565 11.5 6.74986 11.5H10.4393L3.21959 4.2803C2.92675 3.98746 2.92686 3.51266 3.21959 3.21975Z" fill="#000001"/>
</g>
</svg>
