<svg width="16" height="16" viewBox="0 0 16 16" fill="none" xmlns="http://www.w3.org/2000/svg">
<g id="size=16">
<path id="Path" fill-rule="evenodd" clip-rule="evenodd" d="M11.7197 3.21967C12.0126 2.92678 12.4874 2.92678 12.7803 3.21967C13.073 3.51257 13.0731 3.98739 12.7803 4.28021L5.56055 11.4999H9.25C9.66421 11.4999 10 11.8357 10 12.2499C9.99977 12.664 9.66407 12.9999 9.25 12.9999H3.75C3.55815 12.9999 3.36615 12.9265 3.21973 12.7802C3.14792 12.7084 3.09324 12.6254 3.05664 12.537C3.02004 12.4488 3.00006 12.3514 3 12.2499V6.74994C3 6.33573 3.33579 5.99994 3.75 5.99994C4.16421 5.99994 4.5 6.33573 4.5 6.74994V10.4394L11.7197 3.21967Z" fill="#000001"/>
</g>
</svg>
