<svg width="16" height="16" viewBox="0 0 16 16" fill="none" xmlns="http://www.w3.org/2000/svg">
<g id="size=16">
<path id="Path" d="M8 0C12.4183 0 16 3.58172 16 8C16 12.4183 12.4183 16 8 16C3.58172 16 0 12.4183 0 8C0 3.58172 3.58172 0 8 0ZM8 1.5C4.41015 1.5 1.5 4.41015 1.5 8C1.5 11.5899 4.41015 14.5 8 14.5C11.5899 14.5 14.5 11.5899 14.5 8C14.5 4.41015 11.5899 1.5 8 1.5ZM6.69531 4.74512C6.97398 4.43895 7.4485 4.41679 7.75488 4.69531C8.06106 4.97398 8.08322 5.4485 7.80469 5.75488L6.44531 7.25H11.25C11.6642 7.25 12 7.58579 12 8C12 8.41421 11.6642 8.75 11.25 8.75H6.44531L7.80469 10.2451C8.08321 10.5515 8.06105 11.026 7.75488 11.3047C7.4485 11.5832 6.97398 11.5611 6.69531 11.2549L4.19629 8.50586C4.07501 8.37301 4.00054 8.19588 4 8.00195V7.99805C4.00054 7.80345 4.07524 7.62617 4.19727 7.49316L6.69531 4.74512Z" fill="#000001"/>
</g>
</svg>
