<svg width="24" height="24" viewBox="0 0 24 24" fill="none" xmlns="http://www.w3.org/2000/svg">
<g id="size=24">
<path id="Path" fill-rule="evenodd" clip-rule="evenodd" d="M17.7197 5.21984C18.0126 4.92694 18.4874 4.92694 18.7803 5.21984C19.073 5.51275 19.0731 5.98755 18.7803 6.28038L7.56055 17.5001H15.25C15.6642 17.5001 16 17.8359 16 18.2501C15.9998 18.6642 15.6641 19.0001 15.25 19.0001H5.75C5.64839 19.0001 5.55127 18.9801 5.46289 18.9435C5.37531 18.9072 5.29309 18.8532 5.22168 18.7823L5.21777 18.7784C5.14689 18.707 5.09291 18.6248 5.05664 18.5372C5.02002 18.4489 5.00005 18.3517 5 18.2501V8.75011C5 8.3359 5.33579 8.00011 5.75 8.00011C6.16421 8.00011 6.5 8.3359 6.5 8.75011V16.4396L17.7197 5.21984Z" fill="#000001"/>
</g>
</svg>
