<svg width="16" height="16" viewBox="0 0 16 16" fill="none" xmlns="http://www.w3.org/2000/svg">
<g id="size=16">
<path id="Path" fill-rule="evenodd" clip-rule="evenodd" d="M12.2499 3C12.4416 3.00023 12.634 3.07351 12.7802 3.21973C12.8519 3.29153 12.9068 3.37462 12.9433 3.46289C12.9799 3.55121 12.9999 3.64846 12.9999 3.75V9.25C12.9999 9.66391 12.6637 9.99951 12.2499 10C11.8357 10 11.4999 9.66421 11.4999 9.25V5.56055L4.28022 12.7803C3.98747 13.073 3.5126 13.0727 3.21967 12.7803C2.92678 12.4874 2.92678 12.0126 3.21967 11.7197L10.4394 4.5H6.74994C6.33573 4.5 5.99994 4.16421 5.99994 3.75C5.99994 3.33579 6.33573 3 6.74994 3H12.2499Z" fill="#000001"/>
</g>
</svg>
