<svg width="16" height="16" viewBox="0 0 16 16" fill="none" xmlns="http://www.w3.org/2000/svg">
<g id="size=16">
<path id="Path" d="M7.74902 2C7.95471 2.00027 8.15253 2.08598 8.29395 2.23535L12.5439 6.73535C12.8277 7.03634 12.8141 7.51061 12.5137 7.79492C12.2127 8.0785 11.7383 8.06508 11.4541 7.76465L8.49902 4.63672V13.25C8.49902 13.6639 8.16278 13.9995 7.74902 14C7.33541 13.9993 6.99902 13.6638 6.99902 13.25V4.63672L4.04395 7.76465C3.75963 8.06498 3.28532 8.07861 2.98438 7.79492C2.68412 7.51064 2.67054 7.03629 2.9541 6.73535L7.2041 2.23535C7.34545 2.08596 7.54338 2.00036 7.74902 2Z" fill="#000001"/>
</g>
</svg>
