<svg width="24" height="24" viewBox="0 0 24 24" fill="none" xmlns="http://www.w3.org/2000/svg">
<g id="size=24">
<path id="Path" fill-rule="evenodd" clip-rule="evenodd" d="M18.2499 5C18.4553 5.00051 18.6431 5.0836 18.7783 5.21777L18.7822 5.22168C18.8526 5.29291 18.9072 5.37563 18.9433 5.46289C18.9798 5.55112 18.9999 5.6486 18.9999 5.75V15.25C18.9999 15.6636 18.6633 15.999 18.2499 16C17.8357 16 17.4999 15.6642 17.4999 15.25V7.56055L6.28022 18.7803C5.98765 19.0728 5.51264 19.0722 5.21967 18.7803C4.92678 18.4874 4.92678 18.0126 5.21967 17.7197L16.4394 6.5H8.74994C8.33573 6.5 7.99994 6.16421 7.99994 5.75C7.99994 5.33579 8.33573 5 8.74994 5H18.2499Z" fill="#000001"/>
</g>
</svg>
