<svg width="24" height="24" viewBox="0 0 24 24" fill="none" xmlns="http://www.w3.org/2000/svg">
<g id="size=24">
<path id="Path" fill-rule="evenodd" clip-rule="evenodd" d="M5.2196 6.22034C5.51255 5.92851 5.98759 5.92786 6.28014 6.22034L17.4999 17.4401V9.75062C17.5001 9.33659 17.8358 9.00062 18.2499 9.00062C18.6625 9.00232 18.9996 9.33764 18.9999 9.75062V19.2506C18.9997 19.3514 18.9795 19.45 18.9432 19.5377C18.9076 19.6235 18.8539 19.7056 18.785 19.776C18.7822 19.7789 18.7783 19.7828 18.7753 19.7858C18.7051 19.8546 18.6226 19.9082 18.537 19.944C18.4495 19.9803 18.3504 20.0002 18.2499 20.0006H8.74987C8.33621 20.0006 8.00077 19.6641 7.99987 19.2506C8.00009 18.8366 8.33579 18.5006 8.74987 18.5006H16.4393L5.2196 7.28089C4.92679 6.98802 4.92681 6.51322 5.2196 6.22034Z" fill="#000001"/>
</g>
</svg>
