<svg width="24" height="24" viewBox="0 0 24 24" fill="none" xmlns="http://www.w3.org/2000/svg">
<g id="size=24">
<path id="Path" fill-rule="evenodd" clip-rule="evenodd" d="M5.2196 6.22022C5.51256 5.92851 5.98763 5.92777 6.28014 6.22022L17.4999 17.4399V9.7505C17.5002 9.33652 17.8358 9.0005 18.2499 9.0005C18.6624 9.00226 18.9996 9.33762 18.9999 9.7505V19.2505C18.9997 19.3513 18.9795 19.4499 18.9432 19.5376C18.9077 19.6234 18.8538 19.7056 18.785 19.7759C18.7822 19.7788 18.7782 19.7827 18.7753 19.7857C18.7052 19.8545 18.6225 19.9081 18.537 19.9439C18.4495 19.9801 18.3504 20.0001 18.2499 20.0005H8.74987C8.33621 20.0005 8.00077 19.6639 7.99987 19.2505C8.00015 18.8365 8.33583 18.5005 8.74987 18.5005H16.4393L5.2196 7.28077C4.92679 6.9879 4.92681 6.5131 5.2196 6.22022Z" fill="#000001"/>
</g>
</svg>
