<svg width="16" height="16" viewBox="0 0 16 16" fill="none" xmlns="http://www.w3.org/2000/svg">
<g id="size=16">
<path id="Path" fill-rule="evenodd" clip-rule="evenodd" d="M8.20508 2.98534C8.48936 2.68506 8.9637 2.67148 9.26465 2.95506L13.7646 7.20506C13.9142 7.34643 13.9996 7.54425 14 7.74998C13.9998 7.9558 13.9141 8.15342 13.7646 8.29491L9.26465 12.5449C8.96361 12.8289 8.48942 12.8153 8.20508 12.5146C7.92143 12.2136 7.93475 11.7393 8.23535 11.4551L11.3633 8.49998H2.75C2.33601 8.49998 2.00036 8.1639 2 7.74998C2.00069 7.33636 2.33621 6.99998 2.75 6.99998H11.3633L8.23535 4.04491C7.93494 3.76054 7.92121 3.28628 8.20508 2.98534Z" fill="#000001"/>
</g>
</svg>
