<svg width="24" height="24" viewBox="0 0 24 24" fill="none" xmlns="http://www.w3.org/2000/svg">
<g id="size=24">
<path id="Path" fill-rule="evenodd" clip-rule="evenodd" d="M10.7285 3.961C11.0263 3.67316 11.5012 3.68092 11.7891 3.97857C12.0768 4.27635 12.0691 4.75127 11.7715 5.03912L5.60449 11.0001H20.25C20.6642 11.0001 21 11.3358 21 11.7501C20.9998 12.1641 20.6641 12.5001 20.25 12.5001H5.60449L11.7715 18.461C12.0689 18.7489 12.0768 19.2239 11.7891 19.5215C11.5012 19.8189 11.0262 19.8267 10.7285 19.5391L3.22852 12.2891C3.08252 12.1479 3.0001 11.9532 3 11.7501C3 11.5469 3.08257 11.3523 3.22852 11.211L10.7285 3.961Z" fill="#000001"/>
</g>
</svg>
