<svg width="24" height="24" viewBox="0 0 24 24" fill="none" xmlns="http://www.w3.org/2000/svg">
<g id="size=24">
<path id="Path" d="M12 1C18.0751 1 23 5.92487 23 12C23 18.0751 18.0751 23 12 23C5.92487 23 1 18.0751 1 12C1 5.92487 5.92487 1 12 1ZM12 2.5C6.75329 2.5 2.5 6.75329 2.5 12C2.5 17.2467 6.75329 21.5 12 21.5C17.2467 21.5 21.5 17.2467 21.5 12C21.5 6.75329 17.2467 2.5 12 2.5ZM12.2051 7.23535C12.4895 6.93421 12.9635 6.92067 13.2646 7.20508L17.7646 11.4551C17.9147 11.5968 18 11.7937 18 12C18 12.2063 17.9147 12.4032 17.7646 12.5449L13.2646 16.7949C12.9635 17.0793 12.4895 17.0658 12.2051 16.7646C11.9207 16.4635 11.9342 15.9895 12.2354 15.7051L15.3633 12.75H6.75C6.33579 12.75 6 12.4142 6 12C6 11.5858 6.33579 11.25 6.75 11.25H15.3633L12.2354 8.29492C11.9342 8.01051 11.9207 7.53649 12.2051 7.23535Z" fill="#000001"/>
</g>
</svg>
