<svg width="16" height="16" viewBox="0 0 16 16" fill="none" xmlns="http://www.w3.org/2000/svg">
<g id="size=16">
<path id="Path" d="M7.74902 2C8.16278 2.00054 8.49902 2.33612 8.49902 2.75V11.3633L11.4541 8.23535C11.7383 7.93493 12.2127 7.9215 12.5137 8.20508C12.8141 8.48939 12.8277 8.96366 12.5439 9.26465L8.29395 13.7646C8.28223 13.777 8.26926 13.7903 8.25684 13.8018C8.12634 13.9215 7.95101 13.9967 7.76074 14H7.7373C7.54022 13.9965 7.35948 13.9165 7.22754 13.7891L7.20215 13.7637L2.9541 9.26465C2.67054 8.96371 2.68412 8.48935 2.98438 8.20508C3.28532 7.92139 3.75963 7.93502 4.04395 8.23535L6.99902 11.3633V2.75C6.99902 2.33622 7.33541 2.0007 7.74902 2Z" fill="#000001"/>
</g>
</svg>
