<svg width="24" height="24" viewBox="0 0 24 24" fill="none" xmlns="http://www.w3.org/2000/svg">
<g id="size=24">
<path id="Path" fill-rule="evenodd" clip-rule="evenodd" d="M12.2109 3.97857C12.4988 3.68092 12.9737 3.67316 13.2715 3.961L20.7715 11.211C20.9174 11.3523 21 11.5469 21 11.7501C20.9999 11.9532 20.9175 12.1479 20.7715 12.2891L13.2715 19.5391C12.9738 19.8267 12.4988 19.8189 12.2109 19.5215C11.9232 19.2239 11.9311 18.7489 12.2285 18.461L18.3955 12.5001H3.75C3.33591 12.5001 3.0002 12.1641 3 11.7501C3 11.3358 3.33579 11.0001 3.75 11.0001H18.3955L12.2285 5.03912C11.9309 4.75127 11.9232 4.27635 12.2109 3.97857Z" fill="#000001"/>
</g>
</svg>
