<svg width="24" height="24" viewBox="0 0 24 24" fill="none" xmlns="http://www.w3.org/2000/svg">
<g id="size=24">
<g id="Path">
<path d="M12.75 8.63642L15.7047 11.765C15.9892 12.0661 16.4638 12.0797 16.765 11.7953C17.0661 11.5108 17.0797 11.0362 16.7953 10.735L12.5453 6.23503C12.4036 6.08501 12.2063 6 12 6C11.7937 6 11.5964 6.08501 11.4547 6.23503L7.20474 10.735C6.92033 11.0362 6.9339 11.5108 7.23503 11.7953C7.53617 12.0797 8.01085 12.0661 8.29526 11.765L11.25 8.63642V17.25C11.25 17.6642 11.5858 18 12 18C12.4142 18 12.75 17.6642 12.75 17.25V8.63642Z" fill="#000001"/>
<path fill-rule="evenodd" clip-rule="evenodd" d="M1 12C1 5.92487 5.92487 1 12 1C18.0751 1 23 5.92487 23 12C23 18.0751 18.0751 23 12 23C5.92487 23 1 18.0751 1 12ZM12 2.5C6.75329 2.5 2.5 6.75329 2.5 12C2.5 17.2467 6.75329 21.5 12 21.5C17.2467 21.5 21.5 17.2467 21.5 12C21.5 6.75329 17.2467 2.5 12 2.5Z" fill="#000001"/>
</g>
</g>
</svg>
