<svg width="24" height="24" viewBox="0 0 24 24" fill="none" xmlns="http://www.w3.org/2000/svg">
<g id="size=24">
<g id="Path">
<path d="M6 12C6 11.5858 6.33579 11.25 6.75 11.25H15.3636L12.235 8.29526C11.9339 8.01085 11.9203 7.53617 12.2047 7.23503C12.4891 6.9339 12.9638 6.92033 13.265 7.20474L17.765 11.4547C17.915 11.5964 18 11.7937 18 12C18 12.2063 17.915 12.4036 17.765 12.5453L13.265 16.7953C12.9638 17.0797 12.4891 17.0661 12.2047 16.765C11.9203 16.4638 11.9339 15.9892 12.235 15.7047L15.3636 12.75H6.75C6.33579 12.75 6 12.4142 6 12Z" fill="#000001"/>
<path fill-rule="evenodd" clip-rule="evenodd" d="M1 12C1 5.92487 5.92487 1 12 1C18.0751 1 23 5.92487 23 12C23 18.0751 18.0751 23 12 23C5.92487 23 1 18.0751 1 12ZM12 2.5C6.75329 2.5 2.5 6.75329 2.5 12C2.5 17.2467 6.75329 21.5 12 21.5C17.2467 21.5 21.5 17.2467 21.5 12C21.5 6.75329 17.2467 2.5 12 2.5Z" fill="#000001"/>
</g>
</g>
</svg>
