<svg width="24" height="24" viewBox="0 0 24 24" fill="none" xmlns="http://www.w3.org/2000/svg">
<g id="size=24">
<path id="Path" fill-rule="evenodd" clip-rule="evenodd" d="M17.7197 5.21978C18.0126 4.92688 18.4874 4.92688 18.7803 5.21978C19.073 5.51268 19.0731 5.98748 18.7803 6.28032L7.56055 17.5001H15.25C15.6642 17.5001 16 17.8358 16 18.2501C15.9998 18.6641 15.6641 19.0001 15.25 19.0001H5.75C5.64838 19.0001 5.55127 18.98 5.46289 18.9434C5.3753 18.9072 5.2931 18.8531 5.22168 18.7823L5.21777 18.7784C5.14688 18.707 5.09291 18.6247 5.05664 18.5372C5.02002 18.4488 5.00004 18.3516 5 18.2501V8.75005C5 8.33584 5.33579 8.00005 5.75 8.00005C6.16421 8.00005 6.5 8.33584 6.5 8.75005V16.4395L17.7197 5.21978Z" fill="#000001"/>
</g>
</svg>
