<svg width="24" height="24" viewBox="0 0 24 24" fill="none" xmlns="http://www.w3.org/2000/svg">
<g id="size=24">
<path id="Path" fill-rule="evenodd" clip-rule="evenodd" d="M11.7499 3C12.1632 3.00113 12.4999 3.33649 12.4999 3.75V18.3955L18.4609 12.2285C18.7489 11.9319 19.224 11.9235 19.5214 12.2109C19.8176 12.4986 19.8255 12.974 19.539 13.2715L12.289 20.7715C12.1482 20.9171 11.9524 20.9994 11.7499 21C11.5472 21 11.3521 20.9169 11.2109 20.7715L3.96087 13.2715C3.67304 12.9737 3.68079 12.4988 3.97845 12.2109C4.27628 11.9241 4.75143 11.9312 5.039 12.2285L10.9999 18.3955V3.75C10.9999 3.33579 11.3357 3 11.7499 3Z" fill="#000001"/>
</g>
</svg>
