<svg width="24" height="24" viewBox="0 0 24 24" fill="none" xmlns="http://www.w3.org/2000/svg">
<g id="size=24">
<path id="Path" fill-rule="evenodd" clip-rule="evenodd" d="M11.7499 2C11.9524 2.00057 12.1482 2.08293 12.289 2.22852L19.539 9.72852C19.8255 10.026 19.8176 10.5014 19.5214 10.7891C19.224 11.0765 18.7489 11.0681 18.4609 10.7715L12.4999 4.60449V20.25C12.4999 20.6635 12.1632 20.9989 11.7499 21C11.3357 21 10.9999 20.6642 10.9999 20.25V4.60449L5.039 10.7715C4.75143 11.0688 4.27628 11.0759 3.97845 10.7891C3.68079 10.5012 3.67304 10.0263 3.96087 9.72852L11.2109 2.22852C11.3521 2.08311 11.5472 2 11.7499 2Z" fill="#000001"/>
</g>
</svg>
