<svg width="16" height="16" viewBox="0 0 16 16" fill="none" xmlns="http://www.w3.org/2000/svg">
<g id="size=16">
<path id="Path" d="M9.25 3C9.66421 3 10 3.33579 10 3.75C10 4.16421 9.66421 4.5 9.25 4.5H5.56055L12.7803 11.7197C13.0732 12.0126 13.0732 12.4874 12.7803 12.7803C12.4874 13.0732 12.0126 13.0732 11.7197 12.7803L4.5 5.56055V9.25C4.5 9.66421 4.16421 10 3.75 10C3.33579 10 3 9.66421 3 9.25V3.75C3 3.64834 3.01999 3.5513 3.05664 3.46289C3.09324 3.37443 3.14782 3.29163 3.21973 3.21973C3.36617 3.07328 3.55806 3 3.75 3H9.25Z" fill="#000001"/>
</g>
</svg>
