<svg width="24" height="24" viewBox="0 0 24 24" fill="none" xmlns="http://www.w3.org/2000/svg">
<g id="size=24">
<path id="Path" fill-rule="evenodd" clip-rule="evenodd" d="M7.3001 2.05428C9.544 0.994495 12.0836 0.72383 14.5003 1.28768C16.9168 1.85219 19.0738 3.21891 20.6165 5.16268C22.1587 7.10683 22.9999 9.51801 23.0003 11.9996V13.024C22.9996 14.9382 21.4929 16.9991 19.1751 17.0006C17.6556 17.0003 16.5693 16.1359 15.9886 15.0172C15.0761 16.221 13.6272 16.9998 12.0003 17.0006C9.23975 17.0002 7.00124 14.761 7.00029 12.0006C7.00094 9.23991 9.23956 7.00092 12.0003 7.00057C13.3617 7.00124 14.599 7.54602 15.5003 8.42928V7.75057C15.5009 7.33712 15.8368 7.00092 16.2503 7.00057C16.663 7.00193 16.9996 7.33774 17.0003 7.75057V13.024C17.0009 14.3572 17.8885 15.5001 19.1751 15.5006C20.5037 15.499 21.4996 14.2803 21.5003 13.024V11.9996C21.4999 9.85663 20.7734 7.77422 19.4417 6.09529C18.1094 4.4167 16.2463 3.2362 14.1595 2.74862C12.0726 2.26172 9.87945 2.49572 7.9417 3.41072C6.004 4.32662 4.43089 5.87291 3.48174 7.79451C2.5331 9.71654 2.26213 11.9052 2.71318 14.0006C3.16482 16.0956 4.31244 17.9785 5.96807 19.3394C7.62411 20.6998 9.69433 21.4616 11.8372 21.4986C13.9798 21.5349 16.0752 20.8453 17.7767 19.5426C18.1052 19.2927 18.576 19.3546 18.8274 19.6822C19.0773 20.0102 19.0151 20.4811 18.6888 20.733C16.7185 22.2416 14.292 23.0407 11.8108 22.9986C9.32963 22.9557 6.93339 22.0739 5.01592 20.4986C3.09855 18.9226 1.77028 16.7422 1.24736 14.316C0.72505 11.8897 1.0385 9.35603 2.13701 7.13045C3.23602 4.90536 5.0564 3.11482 7.3001 2.05428ZM12.0003 8.50057C10.068 8.50092 8.50094 10.0683 8.50029 12.0006C8.50124 13.9325 10.0682 15.5002 12.0003 15.5006C13.9315 15.4992 15.4993 13.9319 15.5003 12.0006C15.4996 10.069 13.9317 8.50193 12.0003 8.50057Z" fill="#000001"/>
</g>
</svg>
