<svg width="16" height="17" viewBox="0 0 16 17" fill="none" xmlns="http://www.w3.org/2000/svg">
<g id="size=16">
<path id="Path" fill-rule="evenodd" clip-rule="evenodd" d="M4.58147 0.768554C6.21292 -0.00168082 8.06077 -0.198833 9.8178 0.210937C11.5742 0.62174 13.1445 1.61544 14.266 3.02832C15.387 4.44213 15.9992 6.19665 15.9994 8.00098V9.00195C15.9985 10.4618 15.0355 11.9998 13.2494 12.002C12.4023 12.0015 11.6908 11.643 11.2065 11.0674C11.1115 10.9541 11.0243 10.8303 10.9487 10.7041C10.2182 11.5001 9.16465 12.0009 7.99944 12.002C5.7917 12.0011 4.00057 10.2096 3.99944 8.00195C3.99952 5.79339 5.79105 4.00278 7.99944 4.00195C8.94356 4.00282 9.81567 4.33107 10.4994 4.87891V4.75195C10.4995 4.33832 10.836 4.00278 11.2494 4.00195C11.6619 4.00398 11.9994 4.33906 11.9994 4.75195V9.00195C11.9999 9.46409 12.1431 9.84863 12.3559 10.1025C12.5584 10.3425 12.8509 10.5015 13.2494 10.502C13.9577 10.4999 14.4986 9.90696 14.4994 9.00195V8.00098C14.4992 6.53524 14.0017 5.10952 13.0912 3.96094C12.1802 2.81314 10.9038 2.00576 9.47698 1.67187C8.04961 1.33901 6.5475 1.4994 5.22209 2.125C3.89679 2.75177 2.82052 3.80955 2.17131 5.12402C1.52236 6.43912 1.33721 7.93646 1.64592 9.37012C1.9551 10.8031 2.74007 12.0925 3.87248 13.0234C5.00508 13.9532 6.42296 14.4755 7.88811 14.501C9.3531 14.5253 10.7881 14.0527 11.9516 13.1621C12.2802 12.9121 12.7519 12.9739 13.0033 13.3018C13.2523 13.6299 13.19 14.102 12.8637 14.3535C11.4315 15.4498 9.666 16.0301 7.86272 16C6.05918 15.9687 4.31444 15.3272 2.92034 14.1826C1.52645 13.0368 0.559656 11.4503 0.179124 9.68652C-0.200873 7.92191 0.0277626 6.07862 0.826585 4.45996C1.62573 2.84188 2.94998 1.53993 4.58147 0.768554ZM7.99944 5.50195C6.61948 5.50278 5.49952 6.62182 5.49944 8.00195C5.50057 9.38119 6.62013 10.5011 7.99944 10.502C9.37773 10.4999 10.4983 9.38045 10.4994 8.00195C10.4994 6.62256 9.37837 5.50398 7.99944 5.50195Z" fill="#000001"/>
</g>
</svg>
