<svg width="24" height="24" viewBox="0 0 24 24" fill="none" xmlns="http://www.w3.org/2000/svg">
<g id="size=24">
<path id="Path" fill-rule="evenodd" clip-rule="evenodd" d="M7.3001 2.05362C9.54392 0.993878 12.0837 0.723258 14.5003 1.28702C16.9167 1.85148 19.0738 3.21834 20.6165 5.16202C22.1588 7.10618 22.9998 9.51729 23.0003 11.9989V13.0233C22.9999 14.9377 21.4931 16.9984 19.1751 16.9999C17.6556 16.9995 16.5692 16.1354 15.9886 15.0165C15.0761 16.2205 13.6274 16.9991 12.0003 16.9999C9.23971 16.9994 7.00099 14.7604 7.00029 11.9999C7.00104 9.23942 9.23974 7.0004 12.0003 6.99991C13.3617 7.00057 14.599 7.54548 15.5003 8.42862V7.74991C15.501 7.33663 15.837 7.0004 16.2503 6.99991C16.6629 7.00124 16.9995 7.33716 17.0003 7.74991V13.0233C17.0007 14.3567 17.8885 15.4993 19.1751 15.4999C20.5038 15.4984 21.4999 14.2798 21.5003 13.0233V11.9989C21.4998 9.85591 20.7735 7.77357 19.4417 6.09464C18.1094 4.41612 16.2462 3.2355 14.1595 2.74796C12.0726 2.26115 9.87936 2.4951 7.9417 3.41007C6.00402 4.32595 4.4309 5.87228 3.48174 7.79386C2.533 9.71589 2.26218 11.9045 2.71319 13.9999C3.16473 16.095 4.31246 17.9777 5.96807 19.3388C7.62409 20.6993 9.69431 21.4609 11.8372 21.498C13.9799 21.5342 16.0752 20.8447 17.7767 19.5419C18.1051 19.2921 18.576 19.3541 18.8274 19.6816C19.0776 20.0096 19.0152 20.4804 18.6888 20.7323C16.7184 22.241 14.292 23.0401 11.8108 22.998C9.32961 22.955 6.93337 22.0733 5.01592 20.498C3.09857 18.9219 1.77019 16.7416 1.24737 14.3153C0.725095 11.8889 1.03839 9.35538 2.13701 7.12979C3.23602 4.90473 5.05642 3.11415 7.3001 2.05362ZM12.0003 8.49991C10.0682 8.5004 8.50104 10.0678 8.50029 11.9999C8.50099 13.932 10.0681 15.4994 12.0003 15.4999C13.9317 15.4986 15.4996 13.9315 15.5003 11.9999C15.4995 10.0684 13.9317 8.50124 12.0003 8.49991Z" fill="#000001"/>
</g>
</svg>
