<svg width="16" height="16" viewBox="0 0 16 16" fill="none" xmlns="http://www.w3.org/2000/svg">
<g id="size=16">
<path id="Path" d="M8 0C11.3137 0 14 2.68629 14 6C14 7.67124 13.3163 9.18257 12.2139 10.2705C12.2254 10.3066 12.2351 10.3443 12.2412 10.3828L12.9912 15.1328C13.0324 15.3938 12.9326 15.6571 12.7295 15.8262C12.5264 15.9952 12.2492 16.045 12 15.957L8 14.5449L4 15.957C3.75082 16.045 3.47362 15.9952 3.27051 15.8262C3.06741 15.6571 2.96758 15.3938 3.00879 15.1328L3.75879 10.3828C3.76488 10.3443 3.77461 10.3066 3.78613 10.2705C2.68367 9.18257 2 7.67125 2 6C2 2.68629 4.68629 0 8 0ZM10.8633 11.2744C10.0124 11.7373 9.03676 12 8 12C6.96325 12 5.98758 11.7373 5.13672 11.2744L4.6875 14.124L7.75 13.043C7.91153 12.986 8.08847 12.986 8.25 13.043L11.3125 14.124L10.8633 11.2744ZM8 1.5C5.51472 1.5 3.5 3.51472 3.5 6C3.5 8.48528 5.51472 10.5 8 10.5C10.4853 10.5 12.5 8.48528 12.5 6C12.5 3.51472 10.4853 1.5 8 1.5Z" fill="#000001"/>
</g>
</svg>
