<svg width="24" height="24" viewBox="0 0 24 24" fill="none" xmlns="http://www.w3.org/2000/svg">
<g id="size=24">
<path id="Path" d="M12 1C16.4183 1 20 4.58172 20 9C20 11.6392 18.7219 13.9804 16.751 15.4375L17.9873 22.1133C18.0367 22.3798 17.9387 22.6526 17.7305 22.8262C17.5224 22.9996 17.2366 23.0475 16.9834 22.9512L12 21.0527L7.0166 22.9512C6.76341 23.0474 6.4776 22.9996 6.26953 22.8262C6.06142 22.6526 5.96335 22.3798 6.0127 22.1133L7.24902 15.4375C5.27816 13.9804 4 11.6392 4 9C4 4.58177 7.58179 1.00007 12 1ZM15.377 16.2549C14.3511 16.7332 13.2066 17 12 17C10.7934 17 9.64893 16.7332 8.62305 16.2549L7.73047 21.0742L11.7334 19.5488C11.9051 19.4836 12.0949 19.4836 12.2666 19.5488L16.2695 21.0742L15.377 16.2549ZM12 2.5C8.41021 2.50007 5.5 5.41019 5.5 9C5.5 12.5898 8.41021 15.4999 12 15.5C15.5899 15.5 18.5 12.5899 18.5 9C18.5 5.41015 15.5899 2.5 12 2.5Z" fill="#000001"/>
</g>
</svg>
