<svg width="16" height="16" viewBox="0 0 16 16" fill="none" xmlns="http://www.w3.org/2000/svg">
<g id="size=16">
<g id="Group">
<path id="Vector" fill-rule="evenodd" clip-rule="evenodd" d="M13.4812 3.09375L10.9602 8.03125L13.4812 12.9688L14.5139 12.375V3.6875L13.4812 3.09375Z" fill="#E25444"/>
<path id="Vector_2" fill-rule="evenodd" clip-rule="evenodd" d="M13.4812 3.09375L8.43915 3.6875L5.87256 8.03125L8.43915 12.375L13.4812 12.9688V3.09375Z" fill="#7B1D13"/>
<path id="Vector_3" fill-rule="evenodd" clip-rule="evenodd" d="M3.30618 3.09375L2.48608 3.46875V12.5938L3.30618 12.9688L8.43935 8.03125L3.30618 3.09375Z" fill="#58150D"/>
<path id="Vector_4" fill-rule="evenodd" clip-rule="evenodd" d="M3.29517 3.08337L8.44617 4.55559V11.6389L3.29517 12.9722V3.08337Z" fill="#E25444"/>
<path id="Vector_5" fill-rule="evenodd" clip-rule="evenodd" d="M8.44888 5.33331L6.26172 4.97219L8.44888 2.41663L10.6306 4.97219L8.44888 5.33331Z" fill="#58150D"/>
<path id="Vector_6" fill-rule="evenodd" clip-rule="evenodd" d="M10.6306 4.97219L8.44617 5.33884L6.26172 4.97219V2.41663" fill="#58150D"/>
<path id="Vector_7" fill-rule="evenodd" clip-rule="evenodd" d="M8.44888 10.6945L6.26172 11.1111L8.44888 13.3056L10.6306 11.1111L8.44888 10.6945Z" fill="#58150D"/>
<path id="Vector_8" fill-rule="evenodd" clip-rule="evenodd" d="M8.43936 0.5L6.25244 1.6875V4.96875L8.44616 4.33334L8.43936 0.5Z" fill="#7B1D13"/>
<path id="Vector_9" fill-rule="evenodd" clip-rule="evenodd" d="M8.44617 6.13885L6.26172 6.38332V9.65951L8.44617 9.91664V6.13885Z" fill="#7B1D13"/>
<path id="Vector_10" fill-rule="evenodd" clip-rule="evenodd" d="M8.44617 11.6667L6.26172 11.1031V14.3239L8.44617 15.5V11.6667Z" fill="#7B1D13"/>
<path id="Vector_11" fill-rule="evenodd" clip-rule="evenodd" d="M10.6305 11.1031L8.44604 11.6668V15.5L10.6305 14.3239V11.1031Z" fill="#E25444"/>
<path id="Vector_12" fill-rule="evenodd" clip-rule="evenodd" d="M8.44604 6.13885L10.6305 6.38332V9.65951L8.44604 9.91664V6.13885Z" fill="#E25444"/>
<path id="Vector_13" fill-rule="evenodd" clip-rule="evenodd" d="M8.43921 0.5L10.6261 1.6875V4.96875L8.43921 4.34375V0.5Z" fill="#E25444"/>
</g>
</g>
</svg>
