<svg width="16" height="16" viewBox="0 0 16 16" fill="none" xmlns="http://www.w3.org/2000/svg">
<g id="size=16">
<path id="Path" fill-rule="evenodd" clip-rule="evenodd" d="M14.9105 12.6729L12.2546 14.0959V10.76L14.9105 9.33801V12.6729ZM11.7202 9.895L9.06106 8.47506L11.7223 6.99809L14.3825 8.46905L11.7202 9.895ZM7.46644 12.6829L4.80945 14.1049V10.76L7.46644 9.33203V12.6829ZM1.06663 9.34103L3.74282 10.762V14.0429L1.06663 12.4079V9.34103ZM7.99016 1.07728L10.6055 2.47924L7.99869 3.73421L5.39184 2.49023L7.99016 1.07728ZM11.1879 6.13111L8.53307 7.60607V4.60116L11.1879 3.3222V6.13111ZM7.46644 7.59508L4.80945 6.13013V3.3342L7.46644 4.60216V7.59508ZM4.274 9.895L1.59995 8.47506L4.27614 6.99711L6.93632 8.46405L4.274 9.895ZM11.1879 14.0979L8.53307 12.6819V9.34302L11.1879 10.761V14.0979ZM15.7147 8.04606L15.7115 8.04408L12.2546 6.13111V2.50424C12.2546 2.32924 12.1575 2.16824 11.9996 2.07725C11.9858 2.06925 11.9698 2.07125 11.9559 2.06525L11.9623 2.05424L8.25255 0.0663227C8.08829 -0.0226745 7.88456 -0.021698 7.7203 0.0672993L4.00841 2.08625L4.00948 2.08924C4.00628 2.09124 4.00095 2.09023 3.99775 2.09223C3.83988 2.18323 3.74282 2.34523 3.74282 2.51922V6.13111L0.266659 8.05106L0.264526 8.05207L0.263456 8.05308C0.101328 8.14308 0 8.30707 0 8.48407V12.6789C0 12.8479 0.0906652 13.0059 0.242127 13.0979L3.98495 15.3849L3.98921 15.3799C3.99774 15.3849 3.99988 15.3938 4.00841 15.3988C4.09054 15.4438 4.18334 15.4658 4.27614 15.4658C4.36787 15.4658 4.45853 15.4438 4.54066 15.4008L7.99976 13.5479L11.4525 15.3889L11.4535 15.3898L11.4578 15.3918V15.3908C11.5388 15.4338 11.6306 15.4568 11.7212 15.4568C11.813 15.4568 11.9036 15.4348 11.9858 15.3908L15.7083 13.3969C15.8747 13.3079 15.9771 13.1419 15.9771 12.9629V8.47604C15.9771 8.29905 15.8768 8.13606 15.7147 8.04606Z" fill="#000001"/>
</g>
</svg>
