<svg width="16" height="16" viewBox="0 0 16 16" fill="none" xmlns="http://www.w3.org/2000/svg">
<g id="size=16">
<g id="Group">
<path id="Vector" d="M7.98325 8.36964C7.92998 8.44272 7.88509 8.50287 7.84188 8.56366C7.15265 9.5428 6.46365 10.5218 5.77487 11.5008C5.13412 12.4114 4.49269 13.3214 3.85059 14.2309C3.83993 14.2452 3.82628 14.2572 3.81052 14.266C3.79477 14.2749 3.77726 14.2804 3.75913 14.2823C2.8526 14.2748 1.94629 14.2653 1.0402 14.2539C1.03015 14.2539 1.01977 14.251 1 14.2481C1.00732 14.2298 1.01582 14.2119 1.02546 14.1947C1.65773 13.2485 2.29001 12.3026 2.92228 11.3569C3.48308 10.5187 4.04422 9.68077 4.6057 8.84305C5.22792 7.91219 5.8498 6.98069 6.47136 6.04855C6.56315 5.91112 6.65863 5.77628 6.74573 5.63626C6.76806 5.59878 6.77477 5.5545 6.76449 5.51241C6.59699 4.99697 6.42613 4.48283 6.25561 3.96868C6.18258 3.74847 6.1062 3.52955 6.03786 3.30805C6.01575 3.23691 5.97923 3.21525 5.90385 3.21557C5.33434 3.21783 4.76817 3.21719 4.20034 3.21719C4.09246 3.21719 4.09213 3.21719 4.09213 3.11436C4.09213 2.44047 4.09213 1.76658 4.09012 1.09269C4.09012 1.01767 4.11558 1.00086 4.18861 1.00086C5.33188 1.0028 6.47538 1.0028 7.6191 1.00086C7.64566 0.997581 7.67255 1.00375 7.69474 1.01821C7.71693 1.03267 7.73292 1.05443 7.7397 1.07944C8.34271 2.54341 8.94573 4.00684 9.54874 5.46973C10.2523 7.17579 10.9558 8.88207 11.6593 10.5886C11.8777 11.1182 12.0978 11.6476 12.3139 12.1785C12.3397 12.2432 12.3665 12.2555 12.4342 12.2354C13.0335 12.0566 13.6342 11.8827 14.2332 11.7035C14.3085 11.6809 14.336 11.6961 14.3595 11.7682C14.5638 12.3881 14.7722 13.0067 14.9792 13.6259C14.9863 13.6472 14.9916 13.6689 15 13.6987C14.9571 13.7139 14.9169 13.731 14.8757 13.742C13.5133 14.1587 12.1518 14.5756 10.791 14.9928C10.726 15.0125 10.7065 14.9911 10.6848 14.9384C10.2691 13.9218 9.85248 12.9056 9.43484 11.8898C9.02635 10.8951 8.61764 9.90044 8.20871 8.90578C8.1474 8.75639 8.0871 8.60635 8.0258 8.45695C8.01608 8.43141 8.00268 8.40909 7.98325 8.36964Z" fill="#000001"/>
</g>
</g>
</svg>
