<svg width="16" height="16" viewBox="0 0 16 16" fill="none" xmlns="http://www.w3.org/2000/svg">
<g id="size=16">
<g id="Group">
<path id="Vector" d="M13.9999 11.8986C13.9848 11.9048 13.9692 11.9105 13.9548 11.9179C11.9912 12.93 10.0277 13.9426 8.06415 14.9547C8.04535 14.9646 8.02455 14.9707 8.00495 14.9786L8.00415 14.9683C8.00415 14.9547 8.00455 14.9407 8.00455 14.927C8.00455 14.2233 8.00455 13.5196 8.00455 12.8163C8.15815 12.7602 8.31174 12.7045 8.46494 12.6485C8.84052 12.5108 9.21611 12.3727 9.5917 12.2346C9.80129 12.1575 10.0113 12.0804 10.2209 12.0037C10.5825 11.8714 10.9445 11.7398 11.306 11.6075C11.5644 11.5131 11.8224 11.4179 12.0808 11.3235C12.4536 11.187 12.8264 11.051 13.1992 10.9153C13.442 10.8267 13.6848 10.7389 13.9276 10.6502C13.9428 10.6449 13.9556 10.6338 13.9696 10.6251L13.9995 10.621V11.8986H13.9999Z" fill="#759C3E"/>
<path id="Vector_2" d="M2.0136 11.8949L2 11.8986V10.6313H2.01C2.0108 10.6498 2.0128 10.6688 2.0128 10.6874C2.0128 10.9665 2.0128 11.2456 2.0128 11.5247C2.0128 11.6479 2.0136 11.7712 2.014 11.8945L2.0136 11.8949Z" fill="#C6CDBD"/>
<path id="Vector_3" d="M6.21582 1C6.22982 1.00453 6.24462 1.00783 6.25822 1.0136C6.35942 1.05566 6.46021 1.09936 6.56181 1.14017C6.6766 1.18634 6.7926 1.22922 6.9074 1.27498C7.00539 1.31456 7.10219 1.35784 7.20059 1.39701C7.29858 1.43659 7.39858 1.47204 7.49658 1.51162C7.59457 1.55119 7.69137 1.59407 7.78977 1.63365C7.88936 1.67364 7.99056 1.71033 8.09056 1.7499C8.21415 1.79855 8.33735 1.84802 8.46015 1.89832C8.55334 1.93666 8.64574 1.97747 8.73934 2.0154C8.82693 2.05086 8.91613 2.08219 9.00413 2.11764C9.11332 2.16175 9.22092 2.20916 9.32972 2.25286C9.42811 2.29244 9.52811 2.32831 9.62691 2.36788C9.7253 2.40746 9.8217 2.45075 9.9201 2.48991C10.0233 2.53155 10.1281 2.56907 10.2313 2.61029C10.3249 2.64781 10.4169 2.68945 10.5105 2.72696C10.6105 2.76695 10.7121 2.80406 10.8125 2.84364C10.8753 2.86837 10.9373 2.89476 11.0037 2.92238C11.0037 4.78786 11.0037 6.65335 11.0037 8.51924C10.9057 8.52213 10.8077 8.5246 10.7097 8.52873C10.6365 8.53161 10.5637 8.53656 10.4909 8.54068C10.4313 8.54398 10.3717 8.54728 10.3121 8.55223C10.1981 8.5613 10.0841 8.57201 9.9697 8.58026C9.8917 8.58603 9.8137 8.5885 9.7357 8.59304C9.6809 8.59634 9.62651 8.59964 9.57171 8.60417C9.45611 8.61324 9.34012 8.62396 9.22452 8.6322C9.15012 8.63756 9.07533 8.64045 9.00053 8.64457C8.94933 8.64746 8.89773 8.65117 8.84653 8.65529C8.73254 8.66436 8.61854 8.67508 8.50414 8.68332C8.38175 8.69198 8.25895 8.69858 8.13616 8.706C8.07816 8.70971 8.02016 8.71342 7.96216 8.71754C7.83137 8.72702 7.70057 8.73733 7.56978 8.74681C7.50538 8.75135 7.44058 8.75382 7.37578 8.75877C7.26179 8.76743 7.14779 8.77856 7.03339 8.7868C6.959 8.79216 6.8842 8.79505 6.8094 8.79917C6.797 8.79999 6.7814 8.79463 6.7778 8.81484L6.7254 8.81195V8.87585C6.7254 9.67976 6.7254 10.4841 6.7254 11.288C6.7254 11.3103 6.7242 11.3325 6.7234 11.3548C6.7134 11.3548 6.7034 11.3531 6.6938 11.3552C6.60381 11.3766 6.51381 11.3993 6.42381 11.4203C6.35462 11.4364 6.28502 11.4508 6.21582 11.4657C6.21582 8.00639 6.21582 4.5471 6.21582 1.08781C6.21582 1.05854 6.21582 1.02927 6.21582 1.00041V1Z" fill="#759C3E"/>
<path id="Vector_4" d="M6.21596 1C6.21596 1.02927 6.21596 1.05854 6.21596 1.0874C6.21596 4.54669 6.21596 8.00598 6.21596 11.4653C6.19516 11.4607 6.17356 11.4583 6.15316 11.4521C5.76317 11.3284 5.37319 11.2043 4.9832 11.0802C4.928 11.0625 4.8732 11.0443 4.81641 11.0258C4.81641 10.9302 4.81641 10.8378 4.81641 10.7455C4.81641 10.7281 4.81721 10.7112 4.81721 10.6939C4.81721 8.29786 4.81721 5.90138 4.81721 3.50532C4.81721 3.47976 4.81681 3.45378 4.81641 3.42822V1.71816C4.82961 1.71074 4.84201 1.70291 4.8552 1.69631C5.29519 1.46915 5.73478 1.24241 6.17476 1.01567C6.18756 1.00907 6.20196 1.00495 6.21556 1H6.21596Z" fill="#4B612C"/>
<path id="Vector_5" d="M12.1341 8.52338H12.3193V8.5815C12.3193 9.1562 12.3193 9.73089 12.3193 10.3056C12.3193 10.3278 12.3217 10.3497 12.3233 10.372C12.3225 10.4561 12.3213 10.5402 12.3205 10.6243C12.3201 10.677 12.3201 10.6766 12.2717 10.691C12.1109 10.7401 11.9501 10.7896 11.7893 10.8395C11.5745 10.9062 11.3601 10.9739 11.1453 11.0406C10.8797 11.1231 10.6138 11.2051 10.3482 11.2876C10.1606 11.3457 9.97297 11.4051 9.78538 11.4632C9.45779 11.5646 9.1298 11.6652 8.80181 11.7671C8.57742 11.8367 8.35343 11.9076 8.12943 11.9773C8.08824 11.9901 8.04624 11.9996 8.00464 12.0107C8.00464 12.0037 8.00544 11.9971 8.00544 11.9901C8.00544 10.9776 8.00544 9.96464 8.00544 8.95213C8.02664 8.94883 8.04784 8.9443 8.06944 8.94223C8.15543 8.9344 8.24143 8.9278 8.32743 8.91915C8.44302 8.90719 8.55822 8.89235 8.67382 8.88081C8.79421 8.86844 8.91501 8.85896 9.0358 8.84741C9.1694 8.83463 9.3034 8.8202 9.43699 8.80701C9.47979 8.80248 9.52299 8.79877 9.56579 8.79423C9.65138 8.78516 9.73738 8.77527 9.82298 8.76661C9.90538 8.75837 9.98817 8.75177 10.071 8.74352C10.1534 8.73487 10.2358 8.72415 10.3182 8.7159C10.4042 8.70725 10.4902 8.70147 10.5762 8.69282C10.7081 8.68004 10.8401 8.66602 10.9721 8.65241C11.0165 8.64788 11.0613 8.64376 11.1057 8.63922C11.1913 8.63015 11.2773 8.62026 11.3629 8.61201C11.4453 8.60377 11.5281 8.59717 11.6109 8.58893C11.7033 8.57986 11.7957 8.56955 11.8881 8.56007C11.9641 8.55223 12.0401 8.54564 12.1161 8.53781C12.1229 8.53698 12.1285 8.52874 12.1349 8.52379L12.1341 8.52338Z" fill="#759C3E"/>
<path id="Vector_6" d="M2.01352 11.8948C2.01352 11.7716 2.01232 11.6483 2.01232 11.525C2.01232 11.2459 2.01232 10.9668 2.01232 10.6877C2.01232 10.6692 2.01072 10.6502 2.00952 10.6317C2.02272 10.6308 2.03632 10.6296 2.04952 10.6288C2.06192 10.6362 2.07352 10.6457 2.08672 10.6502C2.6007 10.8386 3.11468 11.0262 3.62867 11.2142C4.40744 11.4991 5.18622 11.7835 5.96499 12.0688C6.64497 12.3178 7.32454 12.5672 8.00412 12.8167C8.00412 13.5204 8.00412 14.2241 8.00412 14.9274C8.00412 14.941 8.00412 14.9551 8.00372 14.9687C7.99692 14.9691 7.98972 14.9695 7.98292 14.9699C7.96932 14.9637 7.95532 14.9584 7.94212 14.9518C5.97499 13.9376 4.00745 12.923 2.04032 11.9089C2.03152 11.9043 2.02232 11.8998 2.01352 11.8953V11.8948Z" fill="#4B612C"/>
<path id="Vector_7" d="M8.00465 12.8162C7.32507 12.5668 6.6455 12.3174 5.96552 12.0684C5.18674 11.7831 4.40797 11.4986 3.6292 11.2138C3.11521 11.0258 2.60123 10.8382 2.08725 10.6498C2.07405 10.6449 2.06245 10.6354 2.05005 10.6284C2.06285 10.6226 2.07525 10.6135 2.08885 10.6115C2.21804 10.5908 2.34724 10.5715 2.47643 10.5521C2.60083 10.5335 2.72523 10.5154 2.85002 10.4968C2.94842 10.482 3.04642 10.4672 3.14481 10.4523C3.16601 10.449 3.18761 10.4478 3.20881 10.4453L3.21401 10.5138C3.23041 10.5195 3.24561 10.5253 3.26121 10.5302C3.5088 10.6106 3.75599 10.691 4.00358 10.7706C4.07478 10.7937 4.14678 10.8143 4.21838 10.8361L4.22838 10.837C4.23838 10.837 4.24838 10.8378 4.25838 10.8361C4.38237 10.8139 4.50597 10.7904 4.62996 10.7694C4.69156 10.759 4.75436 10.7529 4.81636 10.745V11.0254C4.87355 11.0439 4.92835 11.0625 4.98315 11.0798C5.37314 11.2039 5.76312 11.328 6.15311 11.4516C6.17351 11.4582 6.19471 11.4607 6.21591 11.4648C6.28511 11.4496 6.35471 11.4356 6.4239 11.4195C6.5139 11.3985 6.6039 11.3758 6.69389 11.3544C6.70309 11.3523 6.71349 11.3539 6.72349 11.3539C6.72349 11.4409 6.72349 11.5283 6.72349 11.6145C6.74349 11.6215 6.75749 11.6264 6.77189 11.631C7.09028 11.7299 7.40867 11.8289 7.72706 11.9274C7.81946 11.9558 7.91185 11.9826 8.00465 12.0103C8.04625 11.9991 8.08825 11.9896 8.12945 11.9769C8.35384 11.9072 8.57783 11.8363 8.80182 11.7666C9.12941 11.6648 9.4574 11.5642 9.78539 11.4628C9.97298 11.4046 10.1606 11.3457 10.3482 11.2872C10.6138 11.2047 10.8798 11.1227 11.1453 11.0402C11.3601 10.9734 11.5745 10.9058 11.7893 10.839C11.9501 10.7891 12.1109 10.7397 12.2717 10.6906C12.3201 10.6758 12.3201 10.6762 12.3205 10.6238C12.3213 10.5397 12.3225 10.4556 12.3233 10.3715C12.4153 10.3839 12.5073 10.3954 12.5989 10.4086C12.7037 10.4235 12.8085 10.44 12.9133 10.456C13.0149 10.4713 13.1165 10.4865 13.2181 10.5018C13.3213 10.5175 13.4245 10.5331 13.5277 10.5488C13.6277 10.564 13.7277 10.5793 13.8273 10.5941C13.8649 10.5999 13.9029 10.6044 13.9401 10.611C13.9505 10.6127 13.9597 10.6201 13.9697 10.6246C13.9557 10.6333 13.9425 10.644 13.9277 10.6498C13.6849 10.7384 13.4421 10.8267 13.1993 10.9149C12.8265 11.0509 12.4537 11.187 12.0809 11.323C11.8225 11.4174 11.5645 11.5127 11.3061 11.6071C10.9446 11.7394 10.5826 11.8709 10.221 12.0033C10.011 12.0799 9.80139 12.157 9.5918 12.2341C9.21621 12.3722 8.84062 12.5099 8.46503 12.648C8.31184 12.7041 8.15824 12.7598 8.00465 12.8158V12.8162Z" fill="#B7CA9D"/>
<path id="Vector_8" d="M4.21831 10.8366C4.14671 10.8147 4.07471 10.7937 4.00351 10.771C3.75592 10.6915 3.50833 10.6111 3.26114 10.5307C3.24554 10.5257 3.23034 10.52 3.21394 10.5142L3.20874 10.4458C3.20994 10.4219 3.21194 10.3979 3.21194 10.374C3.21194 8.17131 3.21194 5.96901 3.21194 3.7663C3.21194 3.7215 3.23154 3.6914 3.27074 3.67601C3.57193 3.55646 3.87312 3.4369 4.17471 3.31776C4.19111 3.31116 4.20991 3.31116 4.22791 3.30786C4.22791 3.32312 4.22791 3.33878 4.22791 3.35403C4.22791 5.82802 4.22791 8.30159 4.22791 10.7756C4.22791 10.7929 4.22791 10.8098 4.22751 10.8271L4.21831 10.837V10.8366Z" fill="#4B612C"/>
<path id="Vector_9" d="M4.22705 10.8271C4.22705 10.8098 4.22745 10.7929 4.22745 10.7756C4.22745 8.30159 4.22745 5.82802 4.22745 3.35403C4.22745 3.33878 4.22745 3.32312 4.22745 3.30786C4.27305 3.31569 4.31905 3.32147 4.36385 3.33177C4.50024 3.36269 4.63584 3.39526 4.77223 3.42618C4.78623 3.42948 4.80183 3.42783 4.81623 3.42865C4.81623 3.45421 4.81703 3.48019 4.81703 3.50575C4.81703 5.90181 4.81703 8.29829 4.81703 10.6944C4.81703 10.7117 4.81623 10.7286 4.81623 10.7459C4.75423 10.7537 4.69144 10.7599 4.62984 10.7702C4.50584 10.7912 4.38225 10.8147 4.25825 10.837C4.24865 10.8386 4.23825 10.8378 4.22825 10.8378L4.22705 10.8271Z" fill="#759C3E"/>
<path id="Vector_10" d="M12.134 8.52338C12.1276 8.52833 12.122 8.53699 12.1152 8.5374C12.0392 8.54564 11.9632 8.55224 11.8872 8.55966C11.7948 8.56914 11.7024 8.57904 11.61 8.58852C11.5276 8.59676 11.4448 8.60336 11.362 8.61161C11.276 8.62026 11.1904 8.63016 11.1048 8.63881C11.0604 8.64335 11.0156 8.64747 10.9712 8.65201C10.8392 8.66561 10.7072 8.67963 10.5752 8.69241C10.4892 8.70065 10.4032 8.70684 10.3172 8.71549C10.2348 8.72374 10.1524 8.73487 10.07 8.74312C9.98764 8.75177 9.90484 8.75796 9.82204 8.7662C9.73604 8.77486 9.65045 8.78475 9.56485 8.79382C9.52205 8.79836 9.47885 8.80207 9.43606 8.8066C9.30246 8.82021 9.16886 8.83423 9.03487 8.84701C8.91447 8.85855 8.79368 8.86803 8.67288 8.8804C8.55728 8.89194 8.44209 8.90678 8.32649 8.91874C8.24049 8.9274 8.1545 8.93399 8.0685 8.94183C8.0469 8.94389 8.0257 8.94842 8.0045 8.95172C7.9753 8.94801 7.9461 8.94348 7.91651 8.94018C7.83131 8.93028 7.74571 8.91998 7.66051 8.91049C7.50092 8.89277 7.34132 8.87504 7.18173 8.85814C7.13413 8.85319 7.08573 8.85319 7.03813 8.84742C6.95094 8.83752 6.86454 8.82516 6.77734 8.81361C6.78094 8.79341 6.79654 8.79836 6.80894 8.79795C6.88374 8.79382 6.95814 8.79094 7.03294 8.78558C7.14693 8.77733 7.26093 8.7662 7.37532 8.75755C7.43972 8.7526 7.50452 8.75013 7.56932 8.74559C7.70011 8.73611 7.83091 8.72621 7.9617 8.71632C8.0197 8.7122 8.0777 8.70849 8.1357 8.70478C8.25849 8.69736 8.38089 8.69076 8.50369 8.6821C8.61768 8.67386 8.73168 8.66314 8.84607 8.65407C8.89727 8.64995 8.94887 8.64623 9.00007 8.64335C9.07487 8.63881 9.14926 8.63634 9.22406 8.63098C9.34006 8.62232 9.45565 8.61202 9.57125 8.60295C9.62605 8.59882 9.68045 8.59511 9.73524 8.59182C9.81324 8.58728 9.89124 8.58481 9.96924 8.57904C10.0832 8.57079 10.1972 8.56007 10.3116 8.551C10.3712 8.54647 10.4308 8.54317 10.4904 8.53946C10.5632 8.53534 10.6364 8.53039 10.7092 8.5275C10.8072 8.52338 10.9052 8.52132 11.0032 8.51802C11.1128 8.51761 11.2224 8.51678 11.332 8.51678C11.5796 8.51678 11.8272 8.51678 12.0748 8.51678C12.0944 8.51678 12.114 8.5205 12.1336 8.52214L12.134 8.52338Z" fill="#B6C99B"/>
<path id="Vector_11" d="M7.98307 14.9699C7.98987 14.9695 7.99707 14.9691 8.00387 14.9687C8.00387 14.972 8.00466 14.9757 8.00466 14.979L7.98267 14.9699H7.98307Z" fill="#596F39"/>
<path id="Vector_12" d="M6.77819 8.81442C6.86498 8.82597 6.95178 8.83792 7.03898 8.84823C7.08658 8.85359 7.13498 8.854 7.18257 8.85895C7.34217 8.87585 7.50176 8.89358 7.66136 8.91131C7.74655 8.92079 7.83215 8.93068 7.91735 8.94099C7.94655 8.94429 7.97575 8.94882 8.00535 8.95253C8.00535 9.96505 8.00535 10.978 8.00535 11.9905C8.00535 11.9975 8.00495 12.0041 8.00455 12.0111C7.91215 11.9835 7.81935 11.9567 7.72696 11.9282C7.40857 11.8297 7.09018 11.7308 6.77179 11.6318C6.75739 11.6273 6.74339 11.6223 6.72339 11.6153C6.72339 11.5292 6.72339 11.4418 6.72339 11.3548C6.72419 11.3325 6.72539 11.3103 6.72539 11.288C6.72539 10.4841 6.72539 9.67976 6.72539 8.87585V8.81195L6.77779 8.81484L6.77819 8.81442Z" fill="#4B612C"/>
<path id="Vector_13" d="M4.22779 10.8271L4.22909 10.8386L4.21826 10.8377L4.22823 10.8271H4.22779Z" fill="#567031"/>
</g>
</g>
</svg>
