<svg width="24" height="24" viewBox="0 0 24 24" fill="none" xmlns="http://www.w3.org/2000/svg">
<g id="size=24">
<g id="Vector">
<path d="M9.3456 2.00624C9.35972 2.01012 9.37391 2.01401 9.38733 2.01944C9.44206 2.0411 9.49672 2.06306 9.55138 2.08503C9.6483 2.12399 9.74528 2.16297 9.84271 2.20024C9.9338 2.23514 10.0254 2.26871 10.117 2.30228C10.1985 2.33216 10.28 2.36204 10.3611 2.39283C10.4298 2.41927 10.4982 2.44687 10.5666 2.47449C10.6444 2.50592 10.7223 2.53737 10.8009 2.56715C10.8744 2.59542 10.9486 2.62222 11.0229 2.64902C11.0971 2.67582 11.1714 2.70261 11.2449 2.73088C11.3168 2.75854 11.3882 2.78732 11.4598 2.81612C11.5345 2.8462 11.6093 2.87633 11.6847 2.90521C11.7652 2.936 11.8464 2.96542 11.9276 2.99485C11.9971 3.02003 12.0667 3.04522 12.1358 3.07129C12.3212 3.14079 12.506 3.21146 12.6902 3.28331C12.7535 3.30812 12.8166 3.33366 12.8797 3.3592C12.9559 3.39005 13.0322 3.42094 13.109 3.45057C13.1758 3.4763 13.2431 3.50052 13.3106 3.52475C13.3759 3.54822 13.4413 3.57172 13.5062 3.59663C13.5856 3.6272 13.6645 3.65888 13.7434 3.69053C13.827 3.72411 13.9105 3.75766 13.9946 3.78981C14.0697 3.81858 14.1454 3.84598 14.2212 3.87341C14.2944 3.89987 14.3676 3.92636 14.4404 3.95412C14.511 3.98117 14.5809 4.00943 14.6508 4.03768C14.727 4.06848 14.8032 4.09926 14.8801 4.12845C14.9611 4.15955 15.0426 4.18903 15.1242 4.21851C15.1986 4.24542 15.2731 4.27232 15.3469 4.30042C15.4171 4.32719 15.4866 4.35543 15.5561 4.38367C15.6257 4.41194 15.6955 4.4403 15.7657 4.46709C15.8473 4.49816 15.9296 4.528 16.0119 4.55786C16.0809 4.58291 16.15 4.60798 16.2187 4.63376C16.2909 4.66087 16.3625 4.68935 16.4368 4.71896L16.5055 4.74625C16.5055 6.07835 16.5041 7.22512 16.5027 8.3719C16.5014 9.51908 16.5 10.6671 16.5 12L9.5 12.4563V16.9151L9.32373 16.951V2C9.33092 2.00222 9.33825 2.00423 9.3456 2.00624Z" fill="#000001"/>
<path d="M21 17.5693C20.9772 17.5782 20.9538 17.5864 20.9323 17.597L12.0963 21.9352C12.0772 21.9448 12.0566 21.952 12.0361 21.9591C12.0265 21.9624 12.0169 21.9658 12.0075 21.9694L12.0063 21.9546L12.0069 21.8957V18.8803L12.3007 18.7784C12.4331 18.7325 12.5654 18.6867 12.6975 18.6406C13.2609 18.4439 13.8243 18.2466 14.3877 18.0493C14.7021 17.9392 15.017 17.8291 15.3314 17.7195C15.6028 17.625 15.8742 17.5307 16.1457 17.4364C16.4169 17.3422 16.6881 17.248 16.9592 17.1535C17.153 17.0861 17.3467 17.0184 17.5403 16.9506L17.5414 16.9502C17.7345 16.8827 17.9281 16.815 18.1213 16.7478C18.6805 16.5528 19.2397 16.3585 19.7989 16.1647C19.9811 16.1014 20.1633 16.0383 20.3455 15.9752L20.3468 15.9748L20.348 15.9744C20.5291 15.9117 20.7103 15.849 20.8915 15.786C20.9072 15.7807 20.9213 15.7715 20.9354 15.7622C20.9417 15.758 20.948 15.7539 20.9544 15.7501L20.9994 15.7442L21 17.5693Z" fill="#000001"/>
<path d="M3.0204 17.5641L3 17.5694V15.759H3.015L3.0444 15.7575L3.0744 15.7554C3.07999 15.7586 3.08547 15.7621 3.09094 15.7655C3.10366 15.7735 3.11637 15.7815 3.1302 15.7861C3.64404 15.9654 4.15788 16.1443 4.67172 16.3232L6.61186 16.9988C7.39044 17.2699 8.16902 17.541 8.94761 17.8126C9.96294 18.1667 10.9777 18.5214 11.9924 18.8761L11.9984 18.8782L12.0069 18.8803V21.8957C12.0069 21.9152 12.007 21.9352 12.0063 21.9546L12.0059 21.9593L12.0063 21.9626C12.0066 21.9651 12.0075 21.967 12.0075 21.9694L11.9739 21.957C11.966 21.9536 11.9586 21.9504 11.9507 21.9471C11.938 21.942 11.9254 21.9369 11.9133 21.9311L3.0606 17.5841L3.0204 17.5641Z" fill="#000001"/>
<path d="M9.32373 2V16.951C9.31251 16.9486 9.3011 16.9461 9.28971 16.9442C9.26942 16.9407 9.24909 16.9372 9.2295 16.9315C8.64466 16.7549 8.05982 16.5777 7.47499 16.4004C7.4178 16.3829 7.36048 16.365 7.30268 16.347L7.22437 16.3226V15.9221C7.22437 15.9097 7.22467 15.8975 7.22497 15.8853C7.22527 15.8731 7.22556 15.8608 7.22556 15.8485V5.57902C7.22556 5.54251 7.22497 5.5054 7.22437 5.46889V3.02594L7.24427 3.015C7.25697 3.00793 7.26951 3.00094 7.28256 2.99473C7.94254 2.67022 8.60192 2.3463 9.2619 2.02238C9.27598 2.01547 9.29135 2.01046 9.30659 2.00549L9.32373 2Z" fill="#000001"/>
<path d="M18.4788 12.7477H18.2011L18.2006 12.7459C18.1901 12.745 18.1796 12.7438 18.1691 12.7426C18.1502 12.7404 18.1313 12.7382 18.1124 12.7382H16.9982C16.8886 12.7382 16.779 12.7387 16.6694 12.7393L16.505 12.74C16.4499 12.7418 16.3948 12.7433 16.3397 12.7448C16.2479 12.7473 16.1559 12.7499 16.0641 12.7535C15.9857 12.7565 15.907 12.761 15.8284 12.7654L15.7359 12.7706L15.6688 12.7745C15.6018 12.7784 15.5347 12.7822 15.4677 12.7871C15.3982 12.7923 15.3289 12.798 15.2596 12.8036C15.1577 12.8119 15.0559 12.8201 14.9541 12.8272C14.8821 12.8322 14.8101 12.8355 14.7381 12.8388C14.6931 12.8409 14.6481 12.8429 14.6031 12.8454C14.5209 12.8501 14.4393 12.8554 14.3571 12.8613C14.2836 12.8668 14.2102 12.8726 14.1366 12.8784C14.0368 12.8863 13.9365 12.8942 13.8363 12.9014C13.7709 12.9058 13.7056 12.9089 13.6403 12.912C13.5939 12.9141 13.5468 12.9163 13.5003 12.919C13.4236 12.9231 13.3462 12.9284 13.2694 12.9343C13.1999 12.9396 13.1305 12.9452 13.0612 12.9508C12.9593 12.9591 12.8575 12.9674 12.7558 12.9744C12.6237 12.9833 12.4919 12.9906 12.36 12.998L12.2038 13.0068C12.1169 13.0121 12.0297 13.0174 11.9428 13.0233L11.9418 13.0233C11.746 13.0374 11.55 13.0516 11.3542 13.0651C11.3103 13.068 11.2663 13.0703 11.2224 13.0727C11.1692 13.0755 11.1161 13.0783 11.0632 13.0822C10.9834 13.0879 10.9038 13.0944 10.8242 13.1009C10.7327 13.1084 10.6411 13.1159 10.5496 13.1222C10.4746 13.1273 10.3999 13.1309 10.3251 13.1344C10.288 13.1362 10.2509 13.1379 10.2137 13.1399C10.2104 13.14 10.207 13.1399 10.2036 13.1397C10.1875 13.1391 10.1707 13.1385 10.1663 13.1623L10.2702 13.1756C10.3659 13.1879 10.4614 13.2002 10.5574 13.2106C10.5959 13.215 10.6346 13.217 10.6734 13.2191C10.7066 13.2208 10.7399 13.2226 10.7728 13.2259C11.0119 13.25 11.2509 13.2753 11.4899 13.3005L11.491 13.3007C11.5779 13.3099 11.6651 13.3196 11.7522 13.3294L11.875 13.3431C11.9021 13.3459 11.9289 13.3495 11.9557 13.353C11.9728 13.3552 11.9899 13.3575 12.007 13.3596L12.0207 13.3574L12.0381 13.3546C12.0596 13.351 12.0812 13.3474 12.103 13.3454C12.1514 13.3412 12.1997 13.3373 12.2481 13.3333C12.3287 13.3268 12.4093 13.3202 12.49 13.3124C12.5709 13.3045 12.6517 13.2956 12.7325 13.2867C12.8246 13.2766 12.9172 13.2664 13.0096 13.2577C13.1145 13.2474 13.2195 13.2386 13.3243 13.2297C13.4004 13.2233 13.4766 13.2169 13.5525 13.21C13.7046 13.1962 13.8563 13.1813 14.0078 13.1665L14.1543 13.1522C14.1864 13.149 14.2187 13.1461 14.2509 13.1431C14.2832 13.1402 14.3154 13.1372 14.3475 13.134C14.3976 13.1289 14.4476 13.1237 14.4977 13.1185C14.5758 13.1103 14.6549 13.1021 14.7333 13.0945C14.7893 13.0892 14.8454 13.0845 14.9013 13.0798C14.9694 13.0741 15.0375 13.0683 15.1053 13.0616C15.1671 13.0557 15.2289 13.0487 15.2907 13.0418C15.3525 13.0349 15.4143 13.028 15.4761 13.0221C15.5464 13.0153 15.6168 13.0097 15.6872 13.004C15.7458 12.9992 15.8044 12.9945 15.8631 12.9891C16.0115 12.9754 16.16 12.9607 16.3085 12.9461L16.457 12.9314C16.4903 12.9282 16.5237 12.9251 16.5572 12.922C16.5906 12.9189 16.6241 12.9158 16.6574 12.9125C16.7204 12.9065 16.7834 12.9 16.8465 12.8935C16.9118 12.8868 16.9777 12.88 17.0432 12.8737C17.1047 12.8679 17.1661 12.8626 17.2274 12.8574C17.2901 12.852 17.3528 12.8466 17.4152 12.8407L17.831 12.7995L17.945 12.7891C18.021 12.7823 18.097 12.7755 18.173 12.7677C18.1799 12.7673 18.186 12.7615 18.1922 12.7556C18.1951 12.7528 18.1981 12.75 18.2011 12.7477L18.2022 12.7483C18.1991 12.7505 18.1962 12.7533 18.1932 12.756C18.187 12.7618 18.1809 12.7675 18.174 12.7683C18.117 12.7739 18.06 12.779 18.003 12.7842C17.946 12.7893 17.889 12.7945 17.832 12.8001C17.7766 12.8055 17.7212 12.8111 17.6658 12.8167C17.5826 12.8251 17.4994 12.8335 17.4163 12.8413C17.3548 12.8471 17.2934 12.8524 17.232 12.8576C17.1694 12.863 17.1067 12.8684 17.0443 12.8743C16.958 12.8822 16.8715 12.8912 16.785 12.9002L16.6585 12.9132C16.6252 12.9164 16.5917 12.9195 16.5583 12.9226C16.5248 12.9257 16.4914 12.9288 16.4581 12.932L16.3094 12.9467C16.161 12.9614 16.0125 12.9761 15.8641 12.9897C15.7996 12.9959 15.7351 13.0011 15.6706 13.0062C15.6062 13.0114 15.5416 13.0165 15.4771 13.0227C15.4097 13.0291 15.3423 13.0366 15.2749 13.0441C15.2187 13.0503 15.1625 13.0566 15.1063 13.0622C15.0449 13.068 14.9835 13.0733 14.9221 13.0785C14.8596 13.0838 14.7967 13.0892 14.7343 13.0952C14.6567 13.1026 14.5788 13.1108 14.501 13.1189C14.4503 13.1242 14.3992 13.1295 14.3486 13.1346C14.3165 13.1379 14.2842 13.1408 14.252 13.1437C14.2197 13.1467 14.1875 13.1496 14.1554 13.1529C14.0699 13.1609 13.9842 13.1693 13.8986 13.1776C13.7836 13.1889 13.6684 13.2001 13.5536 13.2106C13.4786 13.2174 13.4037 13.2237 13.3287 13.23C13.2226 13.239 13.1165 13.2479 13.0106 13.2583C12.9182 13.2671 12.826 13.2772 12.7338 13.2873C12.653 13.2962 12.572 13.3051 12.491 13.3131C12.4104 13.3208 12.3297 13.3274 12.2491 13.334C12.2008 13.3379 12.1524 13.3419 12.104 13.346C12.0823 13.348 12.0608 13.3516 12.0394 13.3552C12.029 13.3569 12.0184 13.3586 12.008 13.3602C11.9897 13.358 11.9714 13.3561 11.9532 13.3538C11.9275 13.3504 11.9017 13.347 11.8761 13.3443C11.7484 13.3295 11.62 13.3154 11.4922 13.3018C11.2528 13.2765 11.0134 13.2512 10.774 13.2271C10.7398 13.2237 10.7054 13.2218 10.6709 13.2199C10.6334 13.2178 10.5958 13.2157 10.5586 13.2117C10.4533 13.1999 10.3483 13.1865 10.2434 13.1731L10.1674 13.1634L10.0882 13.1599V16.6971C10.0882 16.721 10.0872 16.7448 10.0862 16.7687L10.0852 16.7925V17.1647L10.0917 17.1669C10.1183 17.1758 10.1378 17.1823 10.1578 17.1883C10.6354 17.3296 11.113 17.471 11.5906 17.6117C11.6809 17.6382 11.7714 17.6637 11.8619 17.6892C11.9102 17.7028 11.9587 17.7164 12.0069 17.7301C12.0277 17.7248 12.0485 17.7192 12.0694 17.7142C12.1111 17.7041 12.1528 17.694 12.194 17.6819C12.3539 17.6345 12.5137 17.5868 12.6736 17.539C12.8496 17.4864 13.0263 17.4336 13.2026 17.3815C13.4812 17.2991 13.7598 17.2173 14.0382 17.1356L14.0429 17.1342C14.2547 17.072 14.4664 17.0098 14.6779 16.9475C14.8186 16.9059 14.9593 16.864 15.1 16.822C15.2407 16.7801 15.3814 16.7381 15.5221 16.6966C15.7203 16.638 15.9187 16.5795 16.1171 16.521L16.125 16.5187C16.3227 16.4604 16.5204 16.4022 16.7179 16.3438C16.879 16.2961 17.0399 16.2481 17.2009 16.2001L17.2022 16.1997C17.3627 16.1518 17.5232 16.1039 17.6838 16.0564C17.925 15.9851 18.1662 15.9144 18.4074 15.8444L18.4091 15.8439C18.48 15.8237 18.48 15.8237 18.4806 15.7489L18.4848 15.3885L18.4828 15.3643C18.4808 15.3408 18.4788 15.3174 18.4788 15.2937V12.7477Z" fill="#000001"/>
<path d="M6.22003 16.0213L6.32758 16.0523L6.34156 16.0532L6.34002 16.0401L6.34138 16.0387C6.34198 16.014 6.34198 15.9898 6.34198 15.9651V5.29694C6.33307 5.29849 6.32402 5.29953 6.31502 5.30057C6.29675 5.30268 6.27866 5.30476 6.26218 5.31107C5.80982 5.48127 5.35806 5.65205 4.9063 5.82284C4.84751 5.84482 4.81803 5.88784 4.81803 5.95184V15.3915C4.81803 15.4159 4.8165 15.4403 4.81497 15.4647L4.81323 15.4939L4.82103 15.5917L4.84334 15.5993C4.85974 15.6049 4.87565 15.6104 4.89183 15.6153C5.26262 15.7301 5.63401 15.8449 6.00539 15.9586C6.07658 15.9802 6.1483 16.0008 6.22003 16.0213Z" fill="#000001"/>
</g>
</g>
</svg>
