<svg width="16" height="16" viewBox="0 0 16 16" fill="none" xmlns="http://www.w3.org/2000/svg">
<g id="size=16">
<g id="Path">
<path d="M4.50933 7.68655C4.50933 7.88411 4.53061 8.04428 4.56786 8.16175C4.61044 8.27921 4.66365 8.40735 4.73815 8.54617C4.76476 8.58889 4.7754 8.6316 4.7754 8.66898C4.7754 8.72237 4.74347 8.77576 4.67429 8.82916L4.33904 9.0534C4.29115 9.08544 4.24326 9.10146 4.20069 9.10146C4.14747 9.10146 4.09426 9.07476 4.04104 9.02671C3.96654 8.94662 3.90269 8.86119 3.84947 8.77576C3.79626 8.685 3.74304 8.58355 3.68451 8.46075C3.26944 8.95196 2.74794 9.19756 2.12001 9.19756C1.67301 9.19756 1.31647 9.06942 1.05572 8.81314C0.79497 8.55685 0.661934 8.21514 0.661934 7.788C0.661934 7.33416 0.821577 6.96575 1.14618 6.68811C1.47079 6.41047 1.90183 6.27165 2.44993 6.27165C2.63086 6.27165 2.81711 6.28766 3.01401 6.31436C3.2109 6.34106 3.41311 6.38377 3.62597 6.43183V6.04206C3.62597 5.63627 3.54083 5.35329 3.37586 5.18778C3.20558 5.02226 2.91822 4.94217 2.50847 4.94217C2.32222 4.94217 2.13065 4.96353 1.93376 5.01158C1.73686 5.05963 1.54529 5.11837 1.35904 5.19312C1.2739 5.23049 1.21004 5.25185 1.17279 5.26253C1.13554 5.2732 1.10893 5.27854 1.08765 5.27854C1.01315 5.27854 0.975899 5.22515 0.975899 5.11303V4.8514C0.975899 4.76597 0.986541 4.7019 1.01315 4.66453C1.03976 4.62715 1.08765 4.58978 1.16215 4.5524C1.3484 4.4563 1.5719 4.37621 1.83265 4.31214C2.0934 4.24273 2.37011 4.21069 2.66279 4.21069C3.29604 4.21069 3.75901 4.35485 4.05701 4.64317C4.34969 4.93149 4.49869 5.36931 4.49869 5.95663V7.68655H4.50933ZM2.34883 8.49812C2.52443 8.49812 2.70536 8.46609 2.89694 8.40201C3.08851 8.33794 3.25879 8.22048 3.40247 8.0603C3.48761 7.95885 3.55147 7.84673 3.5834 7.71859C3.61533 7.59045 3.63661 7.43561 3.63661 7.25407V7.02982C3.48229 6.99245 3.31733 6.96041 3.14704 6.93906C2.97676 6.9177 2.81179 6.90702 2.64683 6.90702C2.29029 6.90702 2.02954 6.97643 1.85393 7.12059C1.67833 7.26475 1.59318 7.46764 1.59318 7.73461C1.59318 7.98555 1.65704 8.17243 1.79008 8.30057C1.91779 8.43405 2.10404 8.49812 2.34883 8.49812ZM6.62194 9.07476C6.52615 9.07476 6.46229 9.05874 6.41972 9.02137C6.37715 8.98933 6.3399 8.91458 6.30797 8.81314L5.05744 4.68589C5.02551 4.5791 5.00954 4.50969 5.00954 4.47231C5.00954 4.38689 5.05211 4.33883 5.13726 4.33883H5.65876C5.75987 4.33883 5.82904 4.35485 5.86629 4.39223C5.90887 4.42426 5.94079 4.49901 5.97272 4.60046L6.86672 8.13505L7.69687 4.60046C7.72347 4.49367 7.7554 4.42426 7.79797 4.39223C7.84054 4.36019 7.91504 4.33883 8.01083 4.33883H8.43654C8.53765 4.33883 8.60683 4.35485 8.6494 4.39223C8.69197 4.42426 8.72922 4.49901 8.75051 4.60046L9.5913 8.17776L10.5119 4.60046C10.5438 4.49367 10.5811 4.42426 10.6183 4.39223C10.6609 4.36019 10.7301 4.33883 10.8259 4.33883H11.3208C11.4059 4.33883 11.4538 4.38155 11.4538 4.47231C11.4538 4.49901 11.4485 4.52571 11.4432 4.55774C11.4378 4.58978 11.4272 4.63249 11.4059 4.69122L10.1234 8.81848C10.0915 8.92526 10.0543 8.99467 10.0117 9.02671C9.96912 9.05874 9.89994 9.0801 9.80947 9.0801H9.35183C9.25072 9.0801 9.18154 9.06408 9.13897 9.02671C9.0964 8.98933 9.05915 8.91992 9.03787 8.81314L8.21304 5.36931L7.39354 8.8078C7.36694 8.91458 7.33501 8.98399 7.29244 9.02137C7.24987 9.05874 7.17537 9.07476 7.07958 9.07476H6.62194ZM13.46 9.21892C13.1833 9.21892 12.9065 9.18689 12.6405 9.12282C12.3744 9.05874 12.1669 8.98933 12.0285 8.90924C11.9434 8.86119 11.8848 8.8078 11.8635 8.75974C11.8423 8.71169 11.8316 8.6583 11.8316 8.61025V8.33794C11.8316 8.22582 11.8742 8.17243 11.954 8.17243C11.9859 8.17243 12.0179 8.17777 12.0498 8.18844C12.0817 8.19912 12.1296 8.22048 12.1828 8.24184C12.3638 8.32193 12.5607 8.386 12.7682 8.42871C12.981 8.47142 13.1886 8.49278 13.4014 8.49278C13.7367 8.49278 13.9974 8.43405 14.1784 8.31659C14.3593 8.19912 14.4551 8.02827 14.4551 7.80936C14.4551 7.65986 14.4072 7.53705 14.3114 7.43561C14.2156 7.33416 14.0347 7.24339 13.7739 7.15797L13.0023 6.9177C12.6139 6.7949 12.3265 6.61336 12.1509 6.37309C11.9753 6.13817 11.8848 5.87654 11.8848 5.5989C11.8848 5.37465 11.9327 5.1771 12.0285 5.00624C12.1243 4.83538 12.252 4.68589 12.4117 4.56842C12.5713 4.44562 12.7522 4.35485 12.9651 4.29078C13.1779 4.22671 13.4014 4.20001 13.6356 4.20001C13.7527 4.20001 13.875 4.20535 13.9921 4.22137C14.1145 4.23739 14.2263 4.25874 14.338 4.2801C14.4444 4.3068 14.5455 4.33349 14.6413 4.36553C14.7371 4.39757 14.8116 4.4296 14.8648 4.46164C14.9393 4.50435 14.9925 4.54706 15.0245 4.59512C15.0564 4.63783 15.0724 4.69656 15.0724 4.77131V5.02226C15.0724 5.13438 15.0298 5.19312 14.95 5.19312C14.9074 5.19312 14.8382 5.17176 14.7478 5.12904C14.4444 4.99022 14.1039 4.92081 13.726 4.92081C13.4227 4.92081 13.1833 4.96887 13.0183 5.07031C12.8533 5.17176 12.7682 5.3266 12.7682 5.54551C12.7682 5.69501 12.8214 5.82315 12.9278 5.92459C13.0343 6.02604 13.2312 6.12749 13.5132 6.21825L14.2688 6.45852C14.652 6.58132 14.9287 6.75218 15.0937 6.97109C15.2586 7.19 15.3384 7.44095 15.3384 7.71859C15.3384 7.94818 15.2905 8.15641 15.2001 8.33794C15.1043 8.51948 14.9766 8.67966 14.8116 8.8078C14.6467 8.94128 14.4498 9.03739 14.2209 9.1068C13.9815 9.18155 13.7314 9.21892 13.46 9.21892Z" fill="#000001"/>
<path fill-rule="evenodd" clip-rule="evenodd" d="M14.4654 11.8129C12.7146 13.1103 10.171 13.7991 7.98385 13.7991C4.91871 13.7991 2.15688 12.6618 0.0708824 10.7717C-0.094082 10.6222 0.0549181 10.4193 0.251811 10.5368C2.5081 11.8503 5.29121 12.6458 8.1701 12.6458C10.1124 12.6458 12.2463 12.24 14.2099 11.4071C14.5026 11.2736 14.7527 11.5993 14.4654 11.8129Z" fill="#000001"/>
<path fill-rule="evenodd" clip-rule="evenodd" d="M15.1944 10.9809C14.9709 10.6926 13.7151 10.8421 13.1457 10.9115C12.9754 10.9328 12.9488 10.7833 13.1031 10.6712C14.1035 9.96644 15.7479 10.1693 15.9394 10.4043C16.131 10.6445 15.8862 12.2944 14.9497 13.0846C14.806 13.2074 14.6676 13.1433 14.7315 12.9831C14.9443 12.4545 15.4179 11.2639 15.1944 10.9809Z" fill="#000001"/>
</g>
</g>
</svg>
