<svg width="24" height="24" viewBox="0 0 24 24" fill="none" xmlns="http://www.w3.org/2000/svg">
<g id="size=24">
<g id="Group">
<path id="Vector" d="M21 17.5693C20.9772 17.5782 20.9538 17.5864 20.9323 17.597C17.9869 19.0429 15.0416 20.4893 12.0963 21.9352C12.0681 21.9493 12.0369 21.9582 12.0075 21.9694L12.0063 21.9546C12.0063 21.9352 12.0069 21.9152 12.0069 21.8957C12.0069 20.8904 12.0069 19.8851 12.0069 18.8803C12.2373 18.8002 12.4677 18.7207 12.6975 18.6406C13.2609 18.4439 13.8243 18.2466 14.3877 18.0493C14.7021 17.9392 15.017 17.8291 15.3314 17.7195C15.8738 17.5305 16.4168 17.3426 16.9592 17.1535C17.3468 17.0187 17.7338 16.8826 18.1213 16.7478C18.6805 16.5528 19.2397 16.3585 19.7989 16.1647C20.1631 16.0381 20.5273 15.9126 20.8915 15.786C20.9143 15.7784 20.9335 15.7625 20.9544 15.7501L20.9994 15.7442V17.5693H21Z" fill="#759C3E"/>
<path id="Vector_2" d="M3.0204 17.5641L3 17.5694V15.759H3.015C3.0162 15.7855 3.0192 15.8126 3.0192 15.8391C3.0192 16.2378 3.0192 16.6365 3.0192 17.0352C3.0192 17.2113 3.0204 17.3874 3.021 17.5635L3.0204 17.5641Z" fill="#C6CDBD"/>
<path id="Vector_3" d="M9.32373 2C9.34473 2.00648 9.36693 2.01119 9.38733 2.01944C9.53912 2.07951 9.69032 2.14194 9.84271 2.20024C10.0149 2.2662 10.1889 2.32745 10.3611 2.39283C10.5081 2.44937 10.6533 2.5112 10.8009 2.56715C10.9479 2.62369 11.0979 2.67434 11.2449 2.73088C11.3919 2.78742 11.5371 2.84867 11.6847 2.90521C11.834 2.96234 11.9858 3.01475 12.1358 3.07129C12.3212 3.14079 12.506 3.21146 12.6902 3.28331C12.83 3.33808 12.9686 3.39639 13.109 3.45057C13.2404 3.50122 13.3742 3.54598 13.5062 3.59663C13.67 3.65965 13.8314 3.72738 13.9946 3.78981C14.1422 3.84634 14.2922 3.89758 14.4404 3.95412C14.588 4.01066 14.7325 4.0725 14.8801 4.12845C15.0349 4.18793 15.1921 4.24153 15.3469 4.30042C15.4873 4.35402 15.6253 4.4135 15.7657 4.46709C15.9157 4.52422 16.0681 4.57723 16.2187 4.63376C16.3129 4.6691 16.4059 4.70679 16.5055 4.74625C16.5055 7.41123 16.5055 10.0762 16.5055 12.7418C16.3585 12.7459 16.2115 12.7494 16.0645 12.7553C15.9547 12.7594 15.8455 12.7665 15.7363 12.7724C15.6469 12.7771 15.5575 12.7818 15.4681 12.7889C15.2971 12.8019 15.1261 12.8172 14.9545 12.8289C14.8375 12.8372 14.7205 12.8407 14.6036 12.8472C14.5214 12.8519 14.4398 12.8566 14.3576 12.8631C14.1842 12.8761 14.0102 12.8914 13.8368 12.9031C13.7252 12.9108 13.613 12.9149 13.5008 12.9208C13.424 12.9249 13.3466 12.9302 13.2698 12.9361C13.0988 12.9491 12.9278 12.9644 12.7562 12.9762C12.5726 12.9885 12.3884 12.998 12.2042 13.0086C12.1172 13.0139 12.0302 13.0192 11.9432 13.0251C11.747 13.0386 11.5509 13.0533 11.3547 13.0669C11.2581 13.0734 11.1609 13.0769 11.0637 13.084C10.8927 13.0963 10.7217 13.1122 10.5501 13.124C10.4385 13.1317 10.3263 13.1358 10.2141 13.1417C10.1955 13.1428 10.1721 13.1352 10.1667 13.1641L10.0881 13.1599V13.2512C10.0881 14.3997 10.0881 15.5487 10.0881 16.6971C10.0881 16.7289 10.0863 16.7607 10.0851 16.7925C10.0701 16.7925 10.0551 16.7902 10.0407 16.7931C9.90571 16.8238 9.77072 16.8562 9.63572 16.8862C9.53192 16.9092 9.42753 16.9298 9.32373 16.951C9.32373 12.0091 9.32373 7.06729 9.32373 2.12545C9.32373 2.08363 9.32373 2.04182 9.32373 2.00059V2Z" fill="#759C3E"/>
<path id="Vector_4" d="M9.32369 2C9.32369 2.04182 9.32369 2.08363 9.32369 2.12486C9.32369 7.0667 9.32369 12.0085 9.32369 16.9504C9.2925 16.9439 9.2601 16.9404 9.2295 16.9315C8.64452 16.7549 8.05954 16.5776 7.47456 16.4003C7.39176 16.375 7.30956 16.3491 7.22437 16.3226C7.22437 16.1859 7.22437 16.054 7.22437 15.9221C7.22437 15.8973 7.22556 15.8732 7.22556 15.8485C7.22556 12.4255 7.22556 9.00197 7.22556 5.57902C7.22556 5.54251 7.22497 5.5054 7.22437 5.46889V3.02594C7.24416 3.01534 7.26276 3.00415 7.28256 2.99473C7.94254 2.67022 8.60192 2.3463 9.2619 2.02238C9.2811 2.01296 9.3027 2.00707 9.32309 2H9.32369Z" fill="#4B612C"/>
<path id="Vector_5" d="M18.201 12.7477H18.4788V12.8307C18.4788 13.6517 18.4788 14.4727 18.4788 15.2937C18.4788 15.3255 18.4824 15.3567 18.4848 15.3885C18.4836 15.5087 18.4818 15.6288 18.4806 15.7489C18.48 15.8243 18.48 15.8237 18.4074 15.8444C18.1662 15.9144 17.925 15.9851 17.6838 16.0564C17.3617 16.1518 17.0401 16.2484 16.7179 16.3438C16.3195 16.4616 15.9205 16.5788 15.5221 16.6966C15.2407 16.7796 14.9593 16.8644 14.6779 16.9475C14.1866 17.0923 13.6946 17.236 13.2026 17.3815C12.866 17.481 12.53 17.5823 12.194 17.6819C12.1322 17.7001 12.0692 17.7137 12.0068 17.7296C12.0068 17.7196 12.008 17.7101 12.008 17.7001C12.008 16.2537 12.008 14.8066 12.008 13.3602C12.0398 13.3555 12.0716 13.349 12.104 13.346C12.233 13.3349 12.362 13.3254 12.491 13.3131C12.6644 13.296 12.8372 13.2748 13.0106 13.2583C13.1912 13.2406 13.3724 13.2271 13.5536 13.2106C13.754 13.1923 13.955 13.1717 14.1554 13.1529C14.2196 13.1464 14.2844 13.1411 14.3486 13.1346C14.477 13.1217 14.6059 13.1075 14.7343 13.0952C14.8579 13.0834 14.9821 13.074 15.1063 13.0622C15.2299 13.0498 15.3535 13.0345 15.4771 13.0227C15.6061 13.0104 15.7351 13.0021 15.8641 12.9897C16.0621 12.9715 16.2601 12.9515 16.4581 12.932C16.5247 12.9255 16.5919 12.9197 16.6585 12.9132C16.7869 12.9002 16.9159 12.8861 17.0443 12.8743C17.1679 12.8625 17.2921 12.8531 17.4163 12.8413C17.5549 12.8284 17.6934 12.8136 17.832 12.8001C17.946 12.7889 18.06 12.7795 18.174 12.7683C18.1842 12.7671 18.1926 12.7553 18.2022 12.7483L18.201 12.7477Z" fill="#759C3E"/>
<path id="Vector_6" d="M3.0204 17.5641C3.0204 17.388 3.0186 17.2119 3.0186 17.0358C3.0186 16.6371 3.0186 16.2384 3.0186 15.8397C3.0186 15.8131 3.0162 15.7861 3.0144 15.7596C3.0342 15.7584 3.0546 15.7566 3.0744 15.7554C3.093 15.766 3.1104 15.7796 3.1302 15.7861C3.90117 16.0552 4.67215 16.3232 5.44312 16.5917C6.61128 16.9987 7.77945 17.4051 8.94761 17.8126C9.96757 18.1683 10.9869 18.5247 12.0063 18.881C12.0063 19.8863 12.0063 20.8916 12.0063 21.8964C12.0063 21.9158 12.0063 21.9358 12.0057 21.9553C11.9955 21.9558 11.9847 21.9564 11.9745 21.957C11.9541 21.9482 11.9331 21.9405 11.9133 21.9311C8.96261 20.4823 6.0113 19.0329 3.0606 17.5841C3.0474 17.5776 3.0336 17.5712 3.0204 17.5647V17.5641Z" fill="#4B612C"/>
<path id="Vector_7" d="M12.0069 18.8804C10.9875 18.5241 9.96812 18.1678 8.94816 17.812C7.77999 17.4045 6.61183 16.9981 5.44367 16.5912C4.6727 16.3226 3.90172 16.0546 3.13075 15.7855C3.11095 15.7784 3.09355 15.7649 3.07495 15.7549C3.09415 15.7466 3.11275 15.7336 3.13315 15.7307C3.32694 15.7013 3.52074 15.6736 3.71453 15.6459C3.90112 15.6194 4.08772 15.5935 4.27491 15.567C4.42251 15.5458 4.5695 15.5246 4.7171 15.5034C4.7489 15.4987 4.78129 15.4969 4.81309 15.4934L4.82089 15.5911C4.84549 15.5994 4.86829 15.6076 4.89169 15.6147C5.26308 15.7295 5.63387 15.8444 6.00525 15.958C6.11205 15.991 6.22005 16.0205 6.32744 16.0517L6.34244 16.0529C6.35744 16.0529 6.37244 16.054 6.38744 16.0517C6.57343 16.0199 6.75883 15.9863 6.94482 15.9563C7.03722 15.9415 7.13142 15.9327 7.22441 15.9215V16.322C7.31021 16.3485 7.39241 16.375 7.4746 16.3997C8.05959 16.577 8.64457 16.7543 9.22955 16.931C9.26015 16.9404 9.29194 16.9439 9.32374 16.9498C9.42754 16.928 9.53194 16.908 9.63573 16.885C9.77073 16.855 9.90572 16.8226 10.0407 16.792C10.0545 16.789 10.0701 16.7914 10.0851 16.7914C10.0851 16.9157 10.0851 17.0405 10.0851 17.1636C10.1151 17.1736 10.1361 17.1807 10.1577 17.1872C10.6353 17.3285 11.1129 17.4699 11.5905 17.6106C11.7291 17.6513 11.8677 17.6895 12.0069 17.729C12.0693 17.7131 12.1322 17.6996 12.194 17.6813C12.5306 17.5818 12.8666 17.4805 13.2026 17.3809C13.694 17.2355 14.186 17.0918 14.678 16.9469C14.9594 16.8638 15.2407 16.7796 15.5221 16.696C15.9205 16.5782 16.3195 16.461 16.7179 16.3432C17.0401 16.2478 17.3617 16.1512 17.6839 16.0558C17.9251 15.9845 18.1662 15.9139 18.4074 15.8438C18.48 15.8226 18.48 15.8232 18.4806 15.7484C18.4818 15.6282 18.4836 15.5081 18.4848 15.3879C18.6228 15.4056 18.7608 15.4221 18.8982 15.4409C19.0554 15.4621 19.2126 15.4857 19.3698 15.5087C19.5222 15.5305 19.6746 15.5523 19.827 15.574C19.9818 15.5964 20.1366 15.6188 20.2914 15.6412C20.4414 15.663 20.5914 15.6848 20.7408 15.706C20.7972 15.7142 20.8542 15.7207 20.91 15.7301C20.9256 15.7325 20.9394 15.7431 20.9544 15.7496C20.9334 15.7619 20.9136 15.7772 20.8914 15.7855C20.5272 15.9121 20.163 16.0381 19.7988 16.1642C19.2396 16.3585 18.6804 16.5529 18.1213 16.7472C17.7337 16.8821 17.3467 17.0181 16.9591 17.153C16.4167 17.3421 15.8737 17.5299 15.3313 17.719C15.0164 17.8285 14.702 17.9387 14.3876 18.0488C13.8242 18.2461 13.2608 18.4428 12.6974 18.6401C12.4676 18.7202 12.2372 18.7997 12.0069 18.8798V18.8804Z" fill="#B7CA9D"/>
<path id="Vector_8" d="M6.32758 16.0523C6.22019 16.021 6.11219 15.991 6.00539 15.9586C5.63401 15.8449 5.26262 15.7301 4.89183 15.6153C4.86843 15.6082 4.84563 15.5999 4.82103 15.5917L4.81323 15.4939C4.81503 15.4598 4.81803 15.4256 4.81803 15.3915C4.81803 12.2447 4.81803 9.09858 4.81803 5.95184C4.81803 5.88784 4.84743 5.84485 4.90623 5.82286C5.35801 5.65207 5.8098 5.48128 6.26218 5.31107C6.28678 5.30165 6.31498 5.30165 6.34198 5.29694C6.34198 5.31873 6.34198 5.34111 6.34198 5.3629C6.34198 8.89716 6.34198 12.4308 6.34198 15.9651C6.34198 15.9898 6.34198 16.014 6.34138 16.0387L6.32758 16.0528V16.0523Z" fill="#4B612C"/>
<path id="Vector_9" d="M6.34058 16.0387C6.34058 16.014 6.34118 15.9898 6.34118 15.9651C6.34118 12.4308 6.34118 8.89716 6.34118 5.3629C6.34118 5.34111 6.34118 5.31873 6.34118 5.29694C6.40957 5.30813 6.47857 5.31637 6.54577 5.33109C6.75036 5.37527 6.95376 5.42179 7.15835 5.46596C7.17935 5.47067 7.20275 5.46832 7.22435 5.4695C7.22435 5.50601 7.22555 5.54312 7.22555 5.57963C7.22555 9.00258 7.22555 12.4261 7.22555 15.8491C7.22555 15.8738 7.22435 15.898 7.22435 15.9227C7.13135 15.9339 7.03715 15.9427 6.94476 15.9574C6.75876 15.9875 6.57337 16.021 6.38737 16.0528C6.37298 16.0552 6.35738 16.054 6.34238 16.054L6.34058 16.0387Z" fill="#759C3E"/>
<path id="Vector_10" d="M18.2012 12.7476C18.1916 12.7547 18.1832 12.7671 18.173 12.7677C18.059 12.7794 17.945 12.7889 17.831 12.7995C17.6924 12.813 17.5538 12.8272 17.4152 12.8407C17.2916 12.8525 17.1674 12.8619 17.0432 12.8737C16.9142 12.886 16.7858 12.9002 16.6574 12.9125C16.5908 12.919 16.5236 12.9249 16.457 12.9314C16.2591 12.9508 16.0611 12.9709 15.8631 12.9891C15.7341 13.0009 15.6051 13.0097 15.4761 13.0221C15.3525 13.0339 15.2289 13.0498 15.1053 13.0616C14.9817 13.0739 14.8575 13.0828 14.7333 13.0945C14.6043 13.1069 14.4759 13.121 14.3475 13.134C14.2833 13.1405 14.2185 13.1458 14.1543 13.1522C13.9539 13.1717 13.7535 13.1917 13.5525 13.21C13.372 13.2265 13.1908 13.24 13.0096 13.2577C12.8362 13.2742 12.6634 13.2954 12.49 13.3124C12.361 13.3248 12.232 13.3342 12.103 13.3454C12.0706 13.3484 12.0388 13.3548 12.007 13.3596C11.9632 13.3543 11.9194 13.3478 11.875 13.3431C11.7472 13.3289 11.6188 13.3142 11.491 13.3007C11.2516 13.2753 11.0122 13.25 10.7728 13.2259C10.7014 13.2188 10.6288 13.2188 10.5574 13.2106C10.4267 13.1964 10.2971 13.1788 10.1663 13.1623C10.1717 13.1334 10.1951 13.1405 10.2137 13.1399C10.3259 13.134 10.4375 13.1299 10.5496 13.1222C10.7206 13.1104 10.8916 13.0945 11.0632 13.0822C11.1598 13.0751 11.257 13.0716 11.3542 13.0651C11.5504 13.0515 11.7466 13.0374 11.9428 13.0233C12.0298 13.0174 12.1168 13.0121 12.2038 13.0068C12.388 12.9962 12.5716 12.9868 12.7558 12.9744C12.9268 12.9626 13.0978 12.9473 13.2694 12.9343C13.3462 12.9284 13.4236 12.9231 13.5003 12.919C13.6125 12.9125 13.7241 12.909 13.8363 12.9014C14.0103 12.889 14.1837 12.8743 14.3571 12.8613C14.4393 12.8554 14.5209 12.8501 14.6031 12.8454C14.7201 12.8389 14.8371 12.8354 14.9541 12.8272C15.1251 12.8154 15.2961 12.8001 15.4677 12.7871C15.5571 12.7806 15.6465 12.7759 15.7359 12.7706C15.8451 12.7647 15.9549 12.7577 16.0641 12.7535C16.2111 12.7476 16.3581 12.7447 16.505 12.74C16.6694 12.7394 16.8338 12.7382 16.9982 12.7382C17.3696 12.7382 17.741 12.7382 18.1124 12.7382C18.1418 12.7382 18.1712 12.7435 18.2006 12.7459L18.2012 12.7476Z" fill="#B6C99B"/>
<path id="Vector_11" d="M11.9745 21.957C11.9847 21.9564 11.9955 21.9559 12.0057 21.9553C12.0057 21.96 12.0069 21.9653 12.0069 21.97L11.9739 21.957H11.9745Z" fill="#596F39"/>
<path id="Vector_12" d="M10.1674 13.1634C10.2976 13.1799 10.4278 13.197 10.5586 13.2117C10.63 13.2194 10.7026 13.22 10.774 13.2271C11.0134 13.2512 11.2528 13.2765 11.4922 13.3018C11.62 13.3154 11.7483 13.3295 11.8761 13.3443C11.9199 13.349 11.9637 13.3554 12.0081 13.3607C12.0081 14.8072 12.0081 16.2542 12.0081 17.7007C12.0081 17.7107 12.0075 17.7201 12.0069 17.7301C11.8683 17.6907 11.7292 17.6524 11.5906 17.6118C11.113 17.471 10.6354 17.3296 10.1578 17.1883C10.1362 17.1818 10.1152 17.1748 10.0852 17.1647C10.0852 17.0417 10.0852 16.9168 10.0852 16.7925C10.0864 16.7607 10.0882 16.7289 10.0882 16.6971C10.0882 15.5487 10.0882 14.3996 10.0882 13.2512V13.1599L10.1668 13.164L10.1674 13.1634Z" fill="#4B612C"/>
<path id="Vector_13" d="M6.33986 16.0387L6.34156 16.0532L6.32739 16.0521L6.34043 16.0387H6.33986Z" fill="#567031"/>
</g>
</g>
</svg>
