<svg width="16" height="16" viewBox="0 0 16 16" fill="none" xmlns="http://www.w3.org/2000/svg">
<g id="size=16">
<g id="Group">
<path id="Vector" d="M4.50935 7.68649C4.50935 7.88405 4.53063 8.04422 4.56788 8.16168C4.61045 8.27915 4.66367 8.40729 4.73817 8.54611C4.76477 8.58882 4.77542 8.63154 4.77542 8.66891C4.77542 8.7223 4.74349 8.7757 4.67431 8.82909L4.33906 9.05334C4.29117 9.08537 4.24328 9.10139 4.20071 9.10139C4.14749 9.10139 4.09428 9.07469 4.04107 9.02664C3.96657 8.94655 3.90271 8.86112 3.8495 8.7757C3.79628 8.68493 3.74307 8.58348 3.68453 8.46068C3.26946 8.95189 2.74797 9.19749 2.12004 9.19749C1.67305 9.19749 1.31651 9.06935 1.05577 8.81307C0.795017 8.55679 0.661982 8.21508 0.661982 7.78794C0.661982 7.33411 0.821624 6.9657 1.14623 6.68806C1.47083 6.41042 1.90187 6.2716 2.44997 6.2716C2.6309 6.2716 2.81715 6.28762 3.01404 6.31431C3.21093 6.34101 3.41314 6.38372 3.626 6.43178V6.04201C3.626 5.63623 3.54085 5.35325 3.37589 5.18774C3.20561 5.02222 2.91825 4.94213 2.5085 4.94213C2.32226 4.94213 2.13069 4.96349 1.93379 5.01154C1.7369 5.0596 1.54533 5.11833 1.35908 5.19308C1.27394 5.23045 1.21009 5.25181 1.17284 5.26249C1.13559 5.27316 1.10898 5.2785 1.08769 5.2785C1.01319 5.2785 0.975944 5.22511 0.975944 5.11299V4.85137C0.975944 4.76594 0.986587 4.70187 1.01319 4.66449C1.0398 4.62712 1.08769 4.58974 1.16219 4.55237C1.34844 4.45626 1.57194 4.37617 1.83269 4.3121C2.09344 4.24269 2.37015 4.21066 2.66283 4.21066C3.29607 4.21066 3.75903 4.35482 4.05703 4.64314C4.34971 4.93145 4.4987 5.36927 4.4987 5.95659V7.68649H4.50935ZM2.34886 8.49806C2.52447 8.49806 2.7054 8.46602 2.89697 8.40195C3.08854 8.33788 3.25882 8.22042 3.4025 8.06024C3.48764 7.95879 3.5515 7.84667 3.58343 7.71853C3.61535 7.59039 3.63664 7.43555 3.63664 7.25402V7.02977C3.48232 6.99239 3.31736 6.96036 3.14707 6.939C2.97679 6.91765 2.81182 6.90697 2.64686 6.90697C2.29033 6.90697 2.02958 6.97638 1.85397 7.12054C1.67837 7.2647 1.59323 7.46759 1.59323 7.73455C1.59323 7.98549 1.65708 8.17236 1.79012 8.3005C1.91783 8.43399 2.10408 8.49806 2.34886 8.49806ZM6.62194 9.07469C6.52615 9.07469 6.4623 9.05867 6.41973 9.0213C6.37716 8.98926 6.33991 8.91452 6.30798 8.81307L5.05745 4.68585C5.02552 4.57907 5.00956 4.50966 5.00956 4.47228C5.00956 4.38685 5.05213 4.3388 5.13727 4.3388H5.65877C5.75987 4.3388 5.82905 4.35482 5.8663 4.39219C5.90887 4.42423 5.9408 4.49898 5.97273 4.60042L6.86672 8.13499L7.69686 4.60042C7.72347 4.49364 7.7554 4.42423 7.79797 4.39219C7.84054 4.36016 7.91504 4.3388 8.01082 4.3388H8.43653C8.53764 4.3388 8.60682 4.35482 8.64939 4.39219C8.69196 4.42423 8.72921 4.49898 8.7505 4.60042L9.59127 8.1777L10.5119 4.60042C10.5438 4.49364 10.5811 4.42423 10.6183 4.39219C10.6609 4.36016 10.7301 4.3388 10.8258 4.3388H11.3207C11.4059 4.3388 11.4538 4.38151 11.4538 4.47228C11.4538 4.49898 11.4484 4.52567 11.4431 4.55771C11.4378 4.58974 11.4272 4.63246 11.4059 4.69119L10.1234 8.81841C10.0915 8.92519 10.0542 8.9946 10.0117 9.02664C9.96909 9.05867 9.89992 9.08003 9.80945 9.08003H9.35181C9.25071 9.08003 9.18153 9.06401 9.13896 9.02664C9.09639 8.98926 9.05914 8.91985 9.03785 8.81307L8.21303 5.36927L7.39354 8.80773C7.36693 8.91452 7.33501 8.98393 7.29243 9.0213C7.24986 9.05867 7.17536 9.07469 7.07958 9.07469H6.62194ZM13.4599 9.21885C13.1832 9.21885 12.9065 9.18682 12.6404 9.12275C12.3744 9.05867 12.1668 8.98926 12.0285 8.90918C11.9433 8.86112 11.8848 8.80773 11.8635 8.75968C11.8422 8.71162 11.8316 8.65823 11.8316 8.61018V8.33788C11.8316 8.22576 11.8742 8.17236 11.954 8.17236C11.9859 8.17236 12.0178 8.1777 12.0498 8.18838C12.0817 8.19906 12.1296 8.22042 12.1828 8.24177C12.3637 8.32186 12.5606 8.38593 12.7681 8.42865C12.981 8.47136 13.1885 8.49272 13.4014 8.49272C13.7366 8.49272 13.9974 8.43399 14.1783 8.31652C14.3592 8.19906 14.455 8.0282 14.455 7.8093C14.455 7.6598 14.4071 7.537 14.3113 7.43555C14.2156 7.33411 14.0346 7.24334 13.7739 7.15791L13.0023 6.91765C12.6138 6.79484 12.3265 6.61331 12.1509 6.37304C11.9753 6.13812 11.8848 5.8765 11.8848 5.59886C11.8848 5.37461 11.9327 5.17706 12.0285 5.0062C12.1243 4.83535 12.252 4.68585 12.4116 4.56839C12.5713 4.44558 12.7522 4.35482 12.965 4.29075C13.1779 4.22668 13.4014 4.19998 13.6355 4.19998C13.7526 4.19998 13.875 4.20532 13.9921 4.22134C14.1145 4.23735 14.2262 4.25871 14.338 4.28007C14.4444 4.30676 14.5455 4.33346 14.6413 4.3655C14.7371 4.39753 14.8116 4.42957 14.8648 4.4616C14.9393 4.50432 14.9925 4.54703 15.0244 4.59508C15.0563 4.6378 15.0723 4.69653 15.0723 4.77128V5.02222C15.0723 5.13434 15.0297 5.19308 14.9499 5.19308C14.9073 5.19308 14.8382 5.17172 14.7477 5.12901C14.4444 4.99019 14.1038 4.92078 13.726 4.92078C13.4227 4.92078 13.1832 4.96883 13.0183 5.07027C12.8533 5.17172 12.7681 5.32656 12.7681 5.54546C12.7681 5.69496 12.8214 5.8231 12.9278 5.92455C13.0342 6.026 13.2311 6.12744 13.5131 6.21821L14.2688 6.45847C14.6519 6.58127 14.9286 6.75213 15.0936 6.97104C15.2586 7.18995 15.3384 7.44089 15.3384 7.71853C15.3384 7.94812 15.2905 8.15635 15.2 8.33788C15.1042 8.51941 14.9765 8.67959 14.8116 8.80773C14.6466 8.94121 14.4497 9.03732 14.2209 9.10673C13.9814 9.18148 13.7313 9.21885 13.4599 9.21885Z" fill="#252F3E"/>
<g id="Group_2">
<path id="Vector_2" fill-rule="evenodd" clip-rule="evenodd" d="M14.4652 11.8128C12.7145 13.1102 10.1709 13.799 7.98379 13.799C4.91867 13.799 2.15687 12.6617 0.0708818 10.7716C-0.0940813 10.6221 0.0549177 10.4192 0.251809 10.5367C2.50808 11.8502 5.29117 12.6457 8.17004 12.6457C10.1123 12.6457 12.2462 12.2399 14.2098 11.407C14.5025 11.2735 14.7526 11.5992 14.4652 11.8128Z" fill="#FF9900"/>
<path id="Vector_3" fill-rule="evenodd" clip-rule="evenodd" d="M15.1944 10.9808C14.9709 10.6925 13.715 10.842 13.1456 10.9114C12.9753 10.9328 12.9487 10.7833 13.1031 10.6711C14.1035 9.96636 15.7478 10.1693 15.9394 10.4042C16.1309 10.6444 15.8861 12.2943 14.9496 13.0845C14.8059 13.2073 14.6676 13.1432 14.7314 12.983C14.9443 12.4544 15.4179 11.2638 15.1944 10.9808Z" fill="#FF9900"/>
</g>
</g>
</g>
</svg>
