<svg width="24" height="24" viewBox="0 0 24 24" fill="none" xmlns="http://www.w3.org/2000/svg">
<g id="size=24">
<g id="Group 204">
<path id="Vector" d="M3.00323 4.46939L2 4.96793V19.0321L3.00323 19.5306L7.06307 12.3644L3.00323 4.46939Z" fill="#9D5025"/>
<path id="Vector_2" d="M5.3411 18.9854L3.00317 19.5306V4.46939L5.3411 5V18.9854Z" fill="#F58536"/>
<path id="Vector_3" d="M4.10913 3.91838L5.34116 3.30905L11.1933 12.6327L5.34116 20.691L4.10913 20.0816V3.91838Z" fill="#9D5025"/>
<path id="Vector_4" d="M8.25688 19.8717L5.34106 20.691V3.30905L8.25688 4.13121V19.8717Z" fill="#F58536"/>
<path id="Vector_5" d="M6.71387 2.62391L8.25684 1.85715L16.8899 13.6531L8.25684 22.1429L6.71387 21.3761V2.62391Z" fill="#9D5025"/>
<path id="Vector_6" d="M11.9969 20.7843L8.25684 22.1429V1.85715L11.9969 3.21866V20.7843Z" fill="#F58536"/>
<path id="Vector_7" d="M10.0024 0.991254L11.9972 0L21.3371 12.6793L11.9972 24L10.0024 23.0087V0.991254Z" fill="#9D5025"/>
<path id="Vector_8" d="M22 19.0292L11.9971 24V0L22 4.97085V19.0292Z" fill="#F58536"/>
</g>
</g>
</svg>
