<svg width="16" height="16" viewBox="0 0 16 16" fill="none" xmlns="http://www.w3.org/2000/svg">
<g id="size=16">
<g id="Vector">
<path d="M6.40654 1.00434C6.41635 1.00703 6.42621 1.00973 6.43552 1.0135C6.47351 1.02853 6.51144 1.04378 6.54938 1.05902C6.61669 1.08608 6.6841 1.11317 6.75176 1.13906C6.81502 1.16329 6.87862 1.1866 6.94221 1.20991C6.99883 1.23067 7.05543 1.25141 7.11175 1.2728C7.15949 1.29116 7.20696 1.31033 7.25445 1.3295C7.3085 1.35133 7.3626 1.37318 7.41715 1.39386C7.46819 1.41349 7.51975 1.4321 7.57132 1.45071C7.62288 1.46931 7.67444 1.48792 7.72548 1.50756C7.77539 1.52675 7.825 1.54673 7.87466 1.56673C7.92653 1.58762 7.97853 1.60856 8.03088 1.62862C8.08677 1.64999 8.14314 1.67041 8.19954 1.69084C8.2478 1.70832 8.29619 1.72585 8.3442 1.74395C8.47295 1.79221 8.60128 1.84129 8.72919 1.89119C8.77318 1.90842 8.81699 1.92616 8.86083 1.94391C8.91374 1.96533 8.96669 1.98676 9.02001 2.00734C9.06638 2.02521 9.11317 2.04203 9.16001 2.05886C9.20536 2.07516 9.25075 2.09147 9.29584 2.10877C9.35102 2.13 9.40581 2.152 9.46054 2.17398C9.51862 2.1973 9.57664 2.2206 9.63499 2.24292C9.68715 2.2629 9.73975 2.28193 9.79239 2.30097C9.84316 2.31934 9.89405 2.33775 9.94456 2.35703C9.99357 2.3758 10.0421 2.39542 10.0906 2.41502C10.1435 2.43641 10.1965 2.45782 10.25 2.47809C10.3061 2.49967 10.3628 2.52013 10.4194 2.54059C10.471 2.55927 10.5228 2.57799 10.5741 2.59751C10.6229 2.61612 10.6712 2.63575 10.7195 2.65538C10.7679 2.67501 10.8162 2.69465 10.8649 2.71325C10.9216 2.73483 10.9787 2.75555 11.0359 2.77628C11.0838 2.79367 11.1318 2.8111 11.1795 2.829C11.2296 2.84779 11.2792 2.86755 11.3308 2.88808L11.3787 2.90711C11.3787 3.83218 11.3777 4.62854 11.3768 5.42491C11.3758 6.22157 11.3749 7.01883 11.3749 7.94443L6.51377 8.26129V11.3577L6.39136 11.3826C6.3836 11.381 6.37573 11.3792 6.36786 11.3779C6.35377 11.3754 6.33965 11.373 6.32604 11.3691C5.91981 11.2464 5.51357 11.1233 5.10734 11.0002C5.06768 10.9881 5.02822 10.9757 4.98814 10.9632L4.93359 10.9462V10.6681C4.93359 10.6595 4.9338 10.651 4.93401 10.6425C4.93422 10.634 4.93443 10.6256 4.93443 10.617V3.48542C4.93443 3.46007 4.93401 3.4343 4.93359 3.40894V1.71246L4.94742 1.70486C4.95624 1.69995 4.96494 1.6951 4.97401 1.69078C5.43233 1.46543 5.89023 1.24049 6.34854 1.01554C6.35832 1.01074 6.36899 1.00726 6.37958 1.00381L6.39104 1C6.396 1.00153 6.40147 1.00295 6.40654 1.00434Z" fill="#000001"/>
<path d="M14.5 11.812L14.4899 11.8159C14.4773 11.8206 14.4647 11.8254 14.4529 11.8312L8.31689 14.8438C8.30357 14.8505 8.28929 14.8555 8.27509 14.8604C8.26842 14.8628 8.26175 14.8651 8.25523 14.8676L8.25439 14.8573L8.25481 14.8164V12.7224L8.45866 12.6517C8.55065 12.6198 8.64258 12.588 8.73438 12.556C9.12561 12.4194 9.51685 12.2823 9.90808 12.1453C10.1264 12.0689 10.3452 11.9924 10.5635 11.9163C10.7506 11.8511 10.9378 11.7861 11.125 11.7211L11.1281 11.72C11.3164 11.6546 11.5056 11.5889 11.6939 11.5233C11.8275 11.4768 11.9611 11.4301 12.0946 11.3833L12.0957 11.383L12.1006 11.3812L12.1017 11.3808C12.2346 11.3344 12.368 11.2877 12.5009 11.2415C12.8892 11.1061 13.2775 10.9711 13.6659 10.8366C13.7923 10.7926 13.9188 10.7488 14.0453 10.7051C14.1717 10.6613 14.2982 10.6176 14.4246 10.5736C14.4355 10.5699 14.4453 10.5635 14.4551 10.557L14.458 10.5552C14.4614 10.5529 14.4648 10.5507 14.4683 10.5486L14.4996 10.5446L14.5 11.812Z" fill="#000001"/>
<path d="M2.01417 11.8084L2 11.812V10.5548H2.01042L2.03087 10.5538L2.05167 10.5524C2.05557 10.5546 2.05939 10.557 2.0632 10.5594C2.07203 10.565 2.08082 10.5705 2.09042 10.5736C2.44736 10.6982 2.80429 10.8225 3.16123 10.9467L4.50921 11.4161C5.04956 11.6043 5.58992 11.7924 6.13028 11.981C6.83595 12.2271 7.54121 12.4736 8.24647 12.7201L8.25481 12.7224V14.8164C8.25481 14.8299 8.25481 14.8438 8.25439 14.8573L8.25419 14.8607L8.25443 14.8629C8.25464 14.8646 8.25523 14.8659 8.25523 14.8676L8.23193 14.859L8.21573 14.8521C8.20696 14.8486 8.19822 14.845 8.18979 14.841L2.04209 11.8223L2.01417 11.8084Z" fill="#000001"/>
<path d="M12.7491 8.46362H12.5564L12.5559 8.46241C12.5487 8.46183 12.5414 8.46098 12.5341 8.46014C12.5209 8.45861 12.5078 8.45709 12.4947 8.45709H11.721C11.6449 8.45709 11.5689 8.45746 11.4929 8.45782L11.3785 8.45832C11.3403 8.45954 11.3021 8.4606 11.2639 8.46165C11.2002 8.4634 11.136 8.46517 11.0722 8.46773C11.0178 8.46978 10.9632 8.47289 10.9086 8.47599L10.8443 8.47959L10.7977 8.4823C10.7512 8.48498 10.7046 8.48767 10.6581 8.49104C10.6098 8.49468 10.5617 8.49859 10.5135 8.5025C10.4428 8.50824 10.3721 8.51398 10.3014 8.51885C10.2514 8.52237 10.2014 8.52466 10.1515 8.52694C10.1202 8.52837 10.089 8.5298 10.0577 8.53153C10.0006 8.5348 9.94395 8.53848 9.88687 8.54257C9.83586 8.54638 9.78484 8.55042 9.73379 8.55445C9.66435 8.55994 9.59485 8.56543 9.52522 8.57038C9.47974 8.57349 9.43439 8.57561 9.38903 8.57774C9.35671 8.57926 9.3243 8.58078 9.2919 8.58265C9.23856 8.58551 9.18482 8.5892 9.13148 8.59329C9.08324 8.59693 9.03506 8.60084 8.98692 8.60475C8.91617 8.61049 8.8455 8.61623 8.77483 8.6211C8.68305 8.62726 8.59148 8.63237 8.49982 8.63748L8.39151 8.64359C8.33117 8.64727 8.27061 8.65096 8.21027 8.65504C8.07423 8.66484 7.93757 8.67469 7.80153 8.68408C7.77103 8.68611 7.74053 8.68773 7.71006 8.68934C7.67316 8.6913 7.63617 8.69326 7.59946 8.69594C7.54409 8.69993 7.48881 8.70445 7.43358 8.70897C7.36998 8.71417 7.30634 8.71938 7.2428 8.72375C7.19072 8.72731 7.13882 8.72976 7.08686 8.73223L7.00948 8.73602C7.00722 8.73609 7.00486 8.736 7.00248 8.73591C6.99126 8.73548 6.97966 8.73503 6.97656 8.75156L7.04874 8.76079C7.11522 8.76936 7.1815 8.77789 7.24822 8.7851C7.2749 8.78818 7.30183 8.78961 7.32873 8.79103C7.35181 8.79225 7.37491 8.79347 7.3978 8.79573C7.56404 8.8125 7.73029 8.83009 7.89653 8.84768C7.95678 8.85406 8.01722 8.86083 8.07759 8.86758L8.16319 8.87712C8.182 8.87912 8.20066 8.88157 8.21925 8.88402L8.25485 8.88858L8.27653 8.8851C8.29141 8.88262 8.30638 8.88013 8.32151 8.87876C8.35511 8.87585 8.38871 8.8731 8.42231 8.87036C8.47829 8.86579 8.53427 8.86122 8.59025 8.85586C8.64647 8.85032 8.7026 8.84416 8.75873 8.838C8.8227 8.83097 8.887 8.82391 8.95107 8.81782C9.02393 8.81072 9.09678 8.80457 9.16955 8.79844C9.22239 8.79398 9.27542 8.78951 9.32814 8.78469C9.43361 8.77511 9.53884 8.76483 9.644 8.75456L9.74605 8.74461C9.76834 8.74236 9.79073 8.74032 9.81313 8.73827C9.83552 8.73623 9.85792 8.73418 9.88021 8.73193L9.98502 8.7211C10.0393 8.71544 10.0937 8.70975 10.1481 8.70453C10.187 8.70084 10.2259 8.69757 10.2647 8.6943C10.312 8.69032 10.3593 8.68634 10.4064 8.68163C10.4494 8.67754 10.4923 8.67273 10.5352 8.66792C10.5781 8.66312 10.621 8.65831 10.6639 8.65422C10.7127 8.64955 10.7615 8.6456 10.8103 8.64165C10.851 8.63836 10.892 8.63504 10.9327 8.63132C11.0358 8.62181 11.139 8.61161 11.2421 8.60141L11.3452 8.59124L11.4843 8.57815C11.5281 8.57393 11.5719 8.56942 11.6158 8.56489C11.6612 8.56021 11.7067 8.55553 11.7522 8.55116C11.7949 8.54712 11.8375 8.54347 11.8801 8.53983C11.9236 8.53611 11.9672 8.53239 12.0105 8.52826L12.2993 8.49963L12.3784 8.49245C12.4312 8.48772 12.484 8.48299 12.5368 8.47754C12.5416 8.47726 12.5458 8.47324 12.5501 8.46915L12.553 8.46644L12.5564 8.46362L12.5545 8.46599L12.5501 8.46915C12.5458 8.47324 12.5416 8.47726 12.5368 8.47754C12.4972 8.48143 12.4582 8.4854 12.4186 8.48898C12.3791 8.49256 12.3388 8.49575 12.2993 8.49963L12.1844 8.51157C12.1267 8.51741 12.0682 8.52286 12.0105 8.52826C11.9679 8.5323 11.9259 8.53634 11.8833 8.53998C11.8398 8.5437 11.7956 8.54703 11.7522 8.55116C11.6922 8.55666 11.6327 8.5633 11.5726 8.56954L11.4843 8.57815L11.3452 8.59124L11.2421 8.60141C11.139 8.61161 11.0358 8.62181 10.9327 8.63132C10.8879 8.63562 10.8437 8.63959 10.7989 8.64317C10.7541 8.64675 10.7087 8.64993 10.6639 8.65422C10.6171 8.65869 10.5709 8.66427 10.5241 8.66947C10.4851 8.67379 10.4455 8.67772 10.4064 8.68163C10.3638 8.68567 10.3218 8.68971 10.2792 8.69335C10.2357 8.69706 10.1914 8.7004 10.1481 8.70453C10.0943 8.70971 10.041 8.71574 9.98701 8.72137L9.88021 8.73193C9.85792 8.73418 9.83552 8.73623 9.81313 8.73827C9.79073 8.74032 9.76834 8.74236 9.74605 8.74461C9.68688 8.75018 9.62826 8.75636 9.56901 8.76215C9.48914 8.76995 9.4079 8.77743 9.32814 8.78469C9.27609 8.78943 9.22465 8.79421 9.17263 8.7986C9.09892 8.80481 9.02458 8.81063 8.95107 8.81782C8.887 8.82391 8.8227 8.83097 8.75873 8.838C8.7026 8.84416 8.64647 8.85032 8.59025 8.85586C8.53427 8.86122 8.47829 8.86579 8.42231 8.87036C8.38871 8.8731 8.35511 8.87585 8.32151 8.87876C8.30638 8.88013 8.29141 8.88262 8.27653 8.8851L8.25485 8.88858L8.25547 8.8894L8.21729 8.88454C8.19943 8.8822 8.18165 8.87986 8.16387 8.87795C8.07512 8.86773 7.98596 8.85791 7.89721 8.84851C7.73097 8.83092 7.56473 8.81333 7.39848 8.79656C7.37476 8.79422 7.35085 8.7929 7.32692 8.79158C7.30085 8.79014 7.27476 8.7887 7.2489 8.78593C7.1758 8.7777 7.10297 8.76841 7.03019 8.75913L6.97725 8.75239L6.92225 8.74994V11.2063C6.92225 11.2229 6.92155 11.2395 6.92084 11.256L6.92017 11.2726V11.5311L6.92452 11.5325C6.94301 11.5387 6.95668 11.5433 6.97058 11.5474C7.30224 11.6456 7.63389 11.7437 7.96554 11.8415C8.02833 11.8599 8.0913 11.8776 8.1542 11.8953L8.2547 11.9237C8.26089 11.9221 8.26711 11.9201 8.27332 11.9186C8.28156 11.9166 8.28981 11.9146 8.29807 11.9126C8.32704 11.9056 8.35602 11.8986 8.38463 11.8901C8.49563 11.8573 8.60662 11.8241 8.71766 11.7909C8.83985 11.7544 8.96266 11.7177 9.08503 11.6815C9.27837 11.6244 9.47171 11.5676 9.66498 11.5109C9.81323 11.4673 9.96144 11.4238 10.1096 11.3801C10.2073 11.3513 10.305 11.3221 10.4027 11.293C10.5004 11.2639 10.5981 11.2347 10.6958 11.2059L11.5262 10.9609C11.6376 10.9279 11.7489 10.8947 11.8602 10.8615L11.8629 10.8607C11.9743 10.8275 12.0856 10.7943 12.197 10.7613C12.3645 10.7118 12.532 10.6628 12.6995 10.6141L12.7006 10.6138C12.7499 10.5998 12.7499 10.5998 12.7503 10.5478L12.7532 10.2975L12.7518 10.2807C12.7504 10.2643 12.7491 10.2481 12.7491 10.2317V8.46362Z" fill="#000001"/>
<path d="M4.23626 10.737L4.31091 10.7585L4.31188 10.7579L4.32001 10.7586L4.31908 10.7505L4.32049 10.7491C4.32091 10.7319 4.32091 10.7152 4.32091 10.698V3.28955C4.31471 3.29063 4.30843 3.29135 4.30218 3.29207C4.2895 3.29354 4.27693 3.29498 4.26549 3.29937C3.95136 3.41756 3.63765 3.53615 3.32393 3.65475C3.2831 3.67002 3.26261 3.6999 3.26261 3.74435V10.2996C3.26261 10.3166 3.26155 10.3335 3.26048 10.3504L3.25928 10.3708L3.26469 10.4387L3.28019 10.4439C3.29158 10.4479 3.30262 10.4516 3.31386 10.455C3.57135 10.5348 3.82926 10.6145 4.08716 10.6935C4.13662 10.7085 4.18644 10.7227 4.23626 10.737Z" fill="#000001"/>
</g>
</g>
</svg>
