<svg width="16" height="16" viewBox="0 0 16 16" fill="none" xmlns="http://www.w3.org/2000/svg">
<g id="size=16">
<g id="Group 204">
<path id="Vector" d="M1.70226 2.97958L1 3.31195V12.688L1.70226 13.0204L4.54415 8.24295L1.70226 2.97958Z" fill="#9D5025"/>
<path id="Vector_2" d="M3.33882 12.6569L1.70227 13.0204V2.97958L3.33882 3.33333V12.6569Z" fill="#F58536"/>
<path id="Vector_3" d="M2.47644 2.61224L3.33886 2.20602L7.43538 8.42177L3.33886 13.794L2.47644 13.3878V2.61224Z" fill="#9D5025"/>
<path id="Vector_4" d="M5.37981 13.2478L3.33875 13.794V2.20602L5.37981 2.75413V13.2478Z" fill="#F58536"/>
<path id="Vector_5" d="M4.29968 1.74927L5.37977 1.2381L11.4229 9.10204L5.37977 14.7619L4.29968 14.2507V1.74927Z" fill="#9D5025"/>
<path id="Vector_6" d="M7.99795 13.8562L5.37988 14.7619V1.2381L7.99795 2.14578V13.8562Z" fill="#F58536"/>
<path id="Vector_7" d="M6.60156 0.660836L7.99787 0L14.5359 8.45287L7.99787 16L6.60156 15.3392V0.660836Z" fill="#9D5025"/>
<path id="Vector_8" d="M15 12.6861L7.99792 16V0L15 3.3139V12.6861Z" fill="#F58536"/>
</g>
</g>
</svg>
