<svg width="24" height="24" viewBox="0 0 24 24" fill="none" xmlns="http://www.w3.org/2000/svg">
<g id="size=24">
<g id="Group">
<path id="Vector" d="M12.0478 12.5231C11.9728 12.6274 11.9095 12.7132 11.8486 12.7999C10.8774 14.1968 9.90645 15.5935 8.93585 16.9901C8.03292 18.2892 7.12904 19.5875 6.22422 20.885C6.2092 20.9054 6.18997 20.9224 6.16776 20.9351C6.14556 20.9477 6.12088 20.9556 6.09534 20.9583C4.81789 20.9476 3.54075 20.934 2.26393 20.9177C2.24976 20.9177 2.23513 20.9136 2.20728 20.9094C2.21759 20.8834 2.22957 20.8579 2.24315 20.8333C3.13413 19.4835 4.0251 18.134 4.91608 16.7848C5.70634 15.5891 6.49708 14.3936 7.28829 13.1985C8.1651 11.8705 9.04144 10.5416 9.91731 9.2118C10.0467 9.01574 10.1812 8.82337 10.3039 8.62362C10.3354 8.57015 10.3449 8.50697 10.3304 8.44694C10.0943 7.71159 9.85358 6.9781 9.61329 6.2446C9.51038 5.93045 9.40274 5.61813 9.30644 5.30213C9.27528 5.20064 9.22382 5.16973 9.11761 5.17019C8.31507 5.17342 7.51725 5.1725 6.71707 5.1725C6.56506 5.1725 6.56459 5.1725 6.56459 5.0258C6.56459 4.06441 6.56459 3.10303 6.56176 2.14164C6.56176 2.03461 6.59763 2.01063 6.70055 2.01063C8.3116 2.01339 9.92298 2.01339 11.5347 2.01063C11.5721 2.00595 11.61 2.01475 11.6413 2.03538C11.6725 2.05601 11.6951 2.08706 11.7046 2.12273C12.5544 4.21127 13.4041 6.29904 14.2539 8.38604C15.2452 10.82 16.2366 13.2542 17.228 15.6887C17.5358 16.4443 17.8459 17.1995 18.1504 17.957C18.1868 18.0493 18.2245 18.0668 18.3199 18.0382C19.1644 17.7831 20.0109 17.5349 20.855 17.2793C20.9612 17.247 20.9999 17.2687 21.0329 17.3716C21.3209 18.2559 21.6145 19.1384 21.9063 20.0219C21.9162 20.0523 21.9238 20.0832 21.9356 20.1257C21.8751 20.1473 21.8185 20.1718 21.7604 20.1875C19.8406 20.782 17.9219 21.3768 16.0043 21.9719C15.9127 22 15.8854 21.9696 15.8547 21.8944C15.269 20.444 14.6819 18.9942 14.0933 17.545C13.5177 16.126 12.9418 14.707 12.3655 13.288C12.2791 13.0749 12.1942 12.8608 12.1078 12.6477C12.0941 12.6113 12.0752 12.5794 12.0478 12.5231Z" fill="#000001"/>
</g>
</g>
</svg>
