<svg width="24" height="24" viewBox="0 0 24 24" fill="none" xmlns="http://www.w3.org/2000/svg">
<g id="size=24">
<g id="Path">
<path d="M3.00323 4.46938L2 4.96793V19.0321L3.00323 19.5306L7.06307 12.3644L3.00323 4.46938Z" fill="#9D5025"/>
<path d="M5.34114 18.9854L3.00323 19.5306V4.46938L5.34114 5V18.9854Z" fill="#F58536"/>
<path d="M4.10911 3.91838L5.34114 3.30905L11.1933 12.6327L5.34114 20.691L4.10911 20.0816V3.91838Z" fill="#9D5025"/>
<path d="M8.25695 19.8717L5.34114 20.691V3.30905L8.25695 4.13121V19.8717Z" fill="#F58536"/>
<path d="M6.71392 2.62391L8.2569 1.85715L16.8899 13.6531L8.2569 22.1429L6.71392 21.3761V2.62391Z" fill="#9D5025"/>
<path d="M11.997 20.7843L8.2569 22.1429V1.85715L11.997 3.21866V20.7843Z" fill="#F58536"/>
<path d="M10.0024 0.991254L11.9971 0L21.3371 12.6793L11.9971 24L10.0024 23.0087V0.991254Z" fill="#9D5025"/>
<path d="M21.9999 19.0292L11.9971 24V0L21.9999 4.97085V19.0292Z" fill="#F58536"/>
</g>
</g>
</svg>
