<svg width="16" height="16" viewBox="0 0 16 16" fill="none" xmlns="http://www.w3.org/2000/svg">
<g id="size=16">
<g id="Group">
<path id="Vector" d="M4.50936 7.68651C4.50936 7.88406 4.53064 8.04424 4.56789 8.1617C4.61046 8.27916 4.66368 8.4073 4.73818 8.54612C4.76478 8.58884 4.77543 8.63155 4.77543 8.66893C4.77543 8.72232 4.7435 8.77571 4.67432 8.8291L4.33907 9.05335C4.29118 9.08539 4.24329 9.1014 4.20071 9.1014C4.1475 9.1014 4.09429 9.07471 4.04107 9.02666C3.96657 8.94657 3.90272 8.86114 3.8495 8.77571C3.79629 8.68494 3.74307 8.5835 3.68454 8.4607C3.26947 8.95191 2.74797 9.19751 2.12005 9.19751C1.67305 9.19751 1.31652 9.06937 1.05577 8.81309C0.795018 8.5568 0.661983 8.21509 0.661983 7.78795C0.661983 7.33412 0.821625 6.96571 1.14623 6.68807C1.47084 6.41043 1.90187 6.27161 2.44997 6.27161C2.6309 6.27161 2.81715 6.28763 3.01404 6.31432C3.21093 6.34102 3.41315 6.38373 3.626 6.43179V6.04202C3.626 5.63624 3.54086 5.35326 3.3759 5.18775C3.20561 5.02223 2.91826 4.94214 2.50851 4.94214C2.32226 4.94214 2.13069 4.9635 1.9338 5.01155C1.73691 5.0596 1.54534 5.11834 1.35909 5.19309C1.27394 5.23046 1.21009 5.25182 1.17284 5.2625C1.13559 5.27317 1.10898 5.27851 1.0877 5.27851C1.0132 5.27851 0.975946 5.22512 0.975946 5.113V4.85137C0.975946 4.76595 0.986589 4.70188 1.0132 4.6645C1.0398 4.62713 1.0877 4.58975 1.1622 4.55238C1.34844 4.45627 1.57194 4.37618 1.83269 4.31211C2.09344 4.2427 2.37015 4.21067 2.66283 4.21067C3.29608 4.21067 3.75904 4.35483 4.05704 4.64314C4.34971 4.93146 4.49871 5.36928 4.49871 5.9566V7.68651H4.50936ZM2.34887 8.49807C2.52447 8.49807 2.7054 8.46604 2.89697 8.40197C3.08854 8.33789 3.25883 8.22043 3.4025 8.06025C3.48765 7.95881 3.5515 7.84668 3.58343 7.71854C3.61536 7.5904 3.63665 7.43556 3.63665 7.25403V7.02978C3.48233 6.99241 3.31736 6.96037 3.14708 6.93901C2.97679 6.91766 2.81183 6.90698 2.64687 6.90698C2.29033 6.90698 2.02958 6.97639 1.85398 7.12055C1.67837 7.26471 1.59323 7.4676 1.59323 7.73456C1.59323 7.9855 1.65709 8.17238 1.79012 8.30052C1.91783 8.434 2.10408 8.49807 2.34887 8.49807ZM6.62195 9.07471C6.52617 9.07471 6.46231 9.05869 6.41974 9.02132C6.37717 8.98928 6.33992 8.91453 6.30799 8.81309L5.05746 4.68586C5.02553 4.57907 5.00957 4.50966 5.00957 4.47229C5.00957 4.38686 5.05214 4.33881 5.13728 4.33881H5.65878C5.75988 4.33881 5.82906 4.35483 5.86631 4.3922C5.90888 4.42424 5.94081 4.49898 5.97274 4.60043L6.86674 8.135L7.69687 4.60043C7.72348 4.49365 7.75541 4.42424 7.79798 4.3922C7.84055 4.36016 7.91505 4.33881 8.01084 4.33881H8.43655C8.53766 4.33881 8.60683 4.35483 8.6494 4.3922C8.69198 4.42424 8.72923 4.49898 8.75051 4.60043L9.59129 8.17772L10.5119 4.60043C10.5438 4.49365 10.5811 4.42424 10.6183 4.3922C10.6609 4.36016 10.7301 4.33881 10.8259 4.33881H11.3207C11.4059 4.33881 11.4538 4.38152 11.4538 4.47229C11.4538 4.49898 11.4485 4.52568 11.4431 4.55772C11.4378 4.58975 11.4272 4.63247 11.4059 4.6912L10.1234 8.81843C10.0915 8.92521 10.0543 8.99462 10.0117 9.02666C9.96911 9.05869 9.89993 9.08005 9.80947 9.08005H9.35183C9.25072 9.08005 9.18154 9.06403 9.13897 9.02666C9.0964 8.98928 9.05915 8.91987 9.03787 8.81309L8.21305 5.36928L7.39355 8.80775C7.36695 8.91453 7.33502 8.98394 7.29245 9.02132C7.24988 9.05869 7.17538 9.07471 7.07959 9.07471H6.62195ZM13.46 9.21887C13.1832 9.21887 12.9065 9.18683 12.6405 9.12276C12.3744 9.05869 12.1668 8.98928 12.0285 8.90919C11.9434 8.86114 11.8848 8.80775 11.8635 8.75969C11.8422 8.71164 11.8316 8.65825 11.8316 8.61019V8.33789C11.8316 8.22577 11.8742 8.17238 11.954 8.17238C11.9859 8.17238 12.0179 8.17772 12.0498 8.1884C12.0817 8.19907 12.1296 8.22043 12.1828 8.24179C12.3637 8.32188 12.5606 8.38595 12.7682 8.42866C12.981 8.47138 13.1886 8.49273 13.4014 8.49273C13.7367 8.49273 13.9974 8.434 14.1783 8.31654C14.3593 8.19907 14.4551 8.02822 14.4551 7.80931C14.4551 7.65981 14.4072 7.53701 14.3114 7.43556C14.2156 7.33412 14.0347 7.24335 13.7739 7.15792L13.0023 6.91766C12.6138 6.79486 12.3265 6.61332 12.1509 6.37306C11.9753 6.13813 11.8848 5.87651 11.8848 5.59887C11.8848 5.37462 11.9327 5.17707 12.0285 5.00621C12.1243 4.83536 12.252 4.68586 12.4116 4.56839C12.5713 4.44559 12.7522 4.35483 12.9651 4.29075C13.1779 4.22668 13.4014 4.19999 13.6356 4.19999C13.7526 4.19999 13.875 4.20533 13.9921 4.22134C14.1145 4.23736 14.2262 4.25872 14.338 4.28008C14.4444 4.30677 14.5455 4.33347 14.6413 4.3655C14.7371 4.39754 14.8116 4.42957 14.8648 4.46161C14.9393 4.50432 14.9925 4.54704 15.0244 4.59509C15.0564 4.6378 15.0723 4.69654 15.0723 4.77129V5.02223C15.0723 5.13435 15.0298 5.19309 14.9499 5.19309C14.9074 5.19309 14.8382 5.17173 14.7477 5.12901C14.4444 4.99019 14.1038 4.92078 13.726 4.92078C13.4227 4.92078 13.1832 4.96884 13.0183 5.07028C12.8533 5.17173 12.7682 5.32657 12.7682 5.54547C12.7682 5.69497 12.8214 5.82311 12.9278 5.92456C13.0342 6.02601 13.2311 6.12745 13.5132 6.21822L14.2688 6.45848C14.6519 6.58129 14.9287 6.75214 15.0936 6.97105C15.2586 7.18996 15.3384 7.4409 15.3384 7.71854C15.3384 7.94813 15.2905 8.15636 15.2 8.33789C15.1043 8.51943 14.9765 8.67961 14.8116 8.80775C14.6466 8.94123 14.4497 9.03733 14.2209 9.10674C13.9814 9.18149 13.7313 9.21887 13.46 9.21887Z" fill="#252F3E"/>
<g id="Group_2">
<path id="Vector_2" fill-rule="evenodd" clip-rule="evenodd" d="M14.4653 11.8128C12.7145 13.1102 10.1709 13.799 7.9838 13.799C4.91868 13.799 2.15687 12.6618 0.0708819 10.7717C-0.0940814 10.6222 0.0549177 10.4193 0.25181 10.5367C2.50808 11.8502 5.29117 12.6457 8.17005 12.6457C10.1124 12.6457 12.2462 12.2399 14.2098 11.407C14.5025 11.2735 14.7526 11.5992 14.4653 11.8128Z" fill="#FF9900"/>
<path id="Vector_3" fill-rule="evenodd" clip-rule="evenodd" d="M15.1944 10.9808C14.9709 10.6925 13.715 10.842 13.1457 10.9114C12.9754 10.9328 12.9488 10.7833 13.1031 10.6712C14.1035 9.96638 15.7478 10.1693 15.9394 10.4042C16.131 10.6445 15.8862 12.2943 14.9496 13.0845C14.8059 13.2073 14.6676 13.1432 14.7314 12.983C14.9443 12.4545 15.4179 11.2638 15.1944 10.9808Z" fill="#FF9900"/>
</g>
</g>
</g>
</svg>
