<svg width="16" height="16" viewBox="0 0 16 16" fill="none" xmlns="http://www.w3.org/2000/svg">
<g id="size=16">
<g id="Path">
<path d="M7.4692 12.4125C9.29357 12.0902 10.8004 11.8235 10.8177 11.8198L10.8492 11.8132L9.12678 9.76419C8.17947 8.63726 7.4044 7.71086 7.4044 7.70552C7.4044 7.69541 9.18291 2.79721 9.1929 2.77978C9.19625 2.77396 10.4066 4.8638 12.1268 7.8457C13.7373 10.6374 15.0651 12.9392 15.0775 12.9608L15.0999 13L4.15216 12.9986L7.4692 12.4125Z" fill="#000001"/>
<path d="M0.899902 11.7877C0.899902 11.7848 1.71148 10.3758 2.70341 8.6566L4.50692 5.53073L6.6087 3.7667C7.76468 2.79649 8.7136 2.00149 8.7174 2.00004C8.72121 1.99859 8.706 2.03687 8.68361 2.0851C8.66122 2.13334 7.63421 4.33642 6.40137 6.98084L4.15984 11.7889L2.52987 11.7909C1.63339 11.792 0.899902 11.7906 0.899902 11.7877Z" fill="#000001"/>
</g>
</g>
</svg>
