<svg width="16" height="16" viewBox="0 0 16 16" fill="none" xmlns="http://www.w3.org/2000/svg">
<g id="size=16">
<g id="Union">
<path d="M3.28662 2.41222L5.51107 2L7.74329 2.76222V5.02556L5.5344 5.91065V5.92002L5.51909 5.91679L5.51107 5.92L3.29416 5.44716L3.28662 5.44557V2.41222Z" fill="#000001"/>
<path d="M10.3255 2.03894L12.55 2.80116V5.05672L10.3333 5.95579V5.9589L10.3283 5.95783L10.3255 5.95894L8.10107 5.4845V2.45116L10.3255 2.03894Z" fill="#000001"/>
<path d="M1 9.60671L1.00781 9.60835V9.63L3.23226 10.1044L5.46448 9.21V6.94667L3.23226 6.18445L1.26252 6.54947L1 6.5967V9.60671Z" fill="#000001"/>
<path d="M5.80664 6.56554L8.03109 6.15332L10.2555 6.91554V9.17888L8.04664 10.0748V10.0811L8.03634 10.079L8.03109 10.0811L7.3795 9.93984L5.80664 9.60671V6.56554Z" fill="#000001"/>
<path d="M10.6055 6.60448L12.8299 6.19226L12.8381 6.19504L12.8532 6.19226V6.20023L15.0621 6.95448V9.21782L12.8299 10.1123L10.6055 9.63782V6.60448Z" fill="#000001"/>
<path d="M5.47996 10.4235V10.3845L3.23585 10.8193L3.23218 10.82V13.8533L5.45662 14.3355L5.46464 14.3323L5.47996 14.3356V14.3261L6.85425 13.7706L7.57214 13.4956C7.59435 13.4878 7.61412 13.4745 7.62973 13.4572L7.68884 13.4333V11.1777L5.47996 10.4235Z" fill="#000001"/>
<path d="M10.2633 10.4467L8.03882 10.8589V13.8922L10.2633 14.3667L10.2713 14.3634L10.2866 14.3667V14.3573L12.4955 13.4722V11.2089L10.2633 10.4467Z" fill="#000001"/>
</g>
</g>
</svg>
