<svg width="16" height="16" viewBox="0 0 16 16" fill="none" xmlns="http://www.w3.org/2000/svg">
<g id="size=16">
<g id="Path">
<path d="M5.51107 2L3.28662 2.41222V5.44556L5.51107 5.92L7.74329 5.02556V2.76222L5.51107 2Z" fill="url(#paint0_linear_2372_185)"/>
<path d="M3.28662 2.41222V5.44556L5.5344 5.92002V2.03113L3.28662 2.41222ZM4.23551 5.21224L3.60551 5.08779V2.75446L4.23551 2.65335V5.21224ZM5.21551 5.39113L4.49218 5.27446V2.60668L5.21551 2.48224V5.39113Z" fill="#341A6E"/>
<path d="M10.3255 2.03891L8.10107 2.45113V5.48447L10.3255 5.95891L12.55 5.05669V2.80113L10.3255 2.03891Z" fill="url(#paint1_linear_2372_185)"/>
<path d="M8.10107 2.45113V5.48447L10.3333 5.9589V2.07001L8.10107 2.45113ZM9.04218 5.25112L8.41219 5.12667V2.79334L9.04218 2.69223V5.25112ZM10.0222 5.43001L9.29885 5.31334V2.64556L10.0222 2.51334V5.43001Z" fill="#341A6E"/>
<path d="M3.23226 6.18445L1.00781 6.59667V9.63L3.23226 10.1044L5.46448 9.21V6.94667L3.23226 6.18445Z" fill="url(#paint2_linear_2372_185)"/>
<path d="M1 6.59667V9.60667L3.24778 10.0811V6.19223L1 6.59667ZM1.94111 9.40445L1.31111 9.27223V6.9389L1.94111 6.83001V9.40445ZM2.92889 9.60667L2.20556 9.49001V6.79112L2.92889 6.66667V9.60667Z" fill="#341A6E"/>
<path d="M8.03109 6.15335L5.80664 6.56557V9.59891L8.03109 10.0811L10.2555 9.17891V6.91557L8.03109 6.15335Z" fill="url(#paint3_linear_2372_185)"/>
<path d="M5.80664 6.56557V9.60667L8.04664 10.0811V6.19223L5.80664 6.56557ZM6.74775 9.37334L6.11775 9.24112V6.90779L6.74775 6.7989V9.37334ZM7.72775 9.54445L7.00442 9.42779V6.76001L7.72775 6.63556V9.54445Z" fill="#341A6E"/>
<path d="M12.8299 6.19223L10.6055 6.60445V9.63779L12.8299 10.1122L15.0621 9.21779V6.95445L12.8299 6.19223Z" fill="url(#paint4_linear_2372_185)"/>
<path d="M10.6055 6.60445V9.60667L12.8532 10.0811V6.19223L10.6055 6.60445ZM11.5544 9.41223L10.9244 9.28001V6.94667L11.5544 6.83779V9.41223ZM12.5344 9.58334L11.811 9.46667V6.7989L12.5344 6.67445V9.58334Z" fill="#341A6E"/>
<path d="M5.45662 10.4156L3.23218 10.82V13.8533L5.45662 14.3356L7.68884 13.4333V11.1778L5.45662 10.4156Z" fill="url(#paint5_linear_2372_185)"/>
<path d="M3.23218 10.82V13.8533L5.47996 14.3356V10.3845L3.23218 10.82ZM4.18107 13.6278L3.55107 13.4956V11.1622L4.18107 11.0533V13.6278ZM5.16107 13.8067L4.43773 13.69V11.0145L5.16107 10.89V13.8067Z" fill="#341A6E"/>
<path d="M10.2633 10.4467L8.03882 10.8589V13.8922L10.2633 14.3667L12.4955 13.4722V11.2089L10.2633 10.4467Z" fill="url(#paint6_linear_2372_185)"/>
<path d="M8.03882 10.8589V13.8922L10.2866 14.3667V10.4778L8.03882 10.8589ZM8.98771 13.6667L8.35771 13.5344V11.2011L8.98771 11.0922V13.6667ZM9.96771 13.8378L9.24437 13.7211V11.0533L9.96771 10.9289V13.8378Z" fill="#341A6E"/>
</g>
</g>
<defs>
<linearGradient id="paint0_linear_2372_185" x1="1" y1="8.18334" x2="15.0621" y2="8.18334" gradientUnits="userSpaceOnUse">
<stop stop-color="#B77AF4"/>
<stop offset="1" stop-color="#773ADC"/>
</linearGradient>
<linearGradient id="paint1_linear_2372_185" x1="1" y1="8.18334" x2="15.0621" y2="8.18334" gradientUnits="userSpaceOnUse">
<stop stop-color="#B77AF4"/>
<stop offset="1" stop-color="#773ADC"/>
</linearGradient>
<linearGradient id="paint2_linear_2372_185" x1="1" y1="8.18334" x2="15.0376" y2="8.18334" gradientUnits="userSpaceOnUse">
<stop stop-color="#B77AF4"/>
<stop offset="1" stop-color="#773ADC"/>
</linearGradient>
<linearGradient id="paint3_linear_2372_185" x1="1" y1="8.1711" x2="15.0621" y2="8.1711" gradientUnits="userSpaceOnUse">
<stop stop-color="#B77AF4"/>
<stop offset="1" stop-color="#773ADC"/>
</linearGradient>
<linearGradient id="paint4_linear_2372_185" x1="1" y1="8.18334" x2="15.0621" y2="8.18334" gradientUnits="userSpaceOnUse">
<stop stop-color="#B77AF4"/>
<stop offset="1" stop-color="#773ADC"/>
</linearGradient>
<linearGradient id="paint5_linear_2372_185" x1="1" y1="8.18334" x2="15.0621" y2="8.18334" gradientUnits="userSpaceOnUse">
<stop stop-color="#B77AF4"/>
<stop offset="1" stop-color="#773ADC"/>
</linearGradient>
<linearGradient id="paint6_linear_2372_185" x1="1" y1="8.18334" x2="15.0621" y2="8.18334" gradientUnits="userSpaceOnUse">
<stop stop-color="#B77AF4"/>
<stop offset="1" stop-color="#773ADC"/>
</linearGradient>
</defs>
</svg>
