<svg width="24" height="24" viewBox="0 0 24 24" fill="none" xmlns="http://www.w3.org/2000/svg">
<g id="size=24">
<g id="Union">
<path d="M11.266 14.4611C11.2601 14.5232 11.2547 14.5849 11.2493 14.6461C11.2356 14.8012 11.2221 14.9537 11.2029 15.1057C11.1934 15.1818 11.1627 15.2574 11.132 15.3291C11.0851 15.4376 10.9953 15.4951 10.8752 15.5093C10.5855 15.5427 10.4839 15.3992 10.4253 15.1561C10.3472 14.8341 10.3555 14.5071 10.3723 14.1796L10.3734 14.1562C10.3796 14.0327 10.3857 13.9099 10.4303 13.793C10.4566 13.724 10.485 13.655 10.5236 13.592C10.6419 13.397 10.9807 13.4151 11.0929 13.5641C11.1488 13.638 11.1845 13.736 11.199 13.828C11.2223 13.9795 11.236 14.1327 11.2496 14.2836C11.2549 14.3428 11.2602 14.4018 11.266 14.46V14.4611Z" fill="#000001"/>
<path d="M12.8217 9.74149C12.7352 9.99395 12.7285 10.2552 12.7335 10.535C12.7251 10.7848 12.7396 11.0498 12.8217 11.3072C12.8585 11.4233 12.9289 11.5142 13.0517 11.5367C13.1884 11.5613 13.328 11.5641 13.4335 11.4436C13.5306 11.3329 13.5719 11.201 13.5898 11.0619C13.6361 10.7053 13.6412 10.3472 13.5898 9.99067C13.5747 9.88442 13.5463 9.77544 13.4983 9.68015C13.4631 9.61115 13.3955 9.53338 13.3252 9.51148C13.1242 9.4485 12.9071 9.49176 12.8217 9.74149Z" fill="#000001"/>
<path fill-rule="evenodd" clip-rule="evenodd" d="M14.6103 8.10077V9.76287H16.2627C16.2643 9.78394 16.2662 9.80353 16.268 9.82213C16.2717 9.86008 16.275 9.8939 16.275 9.92771C16.2753 10.3674 16.2752 10.8071 16.2751 11.247L16.275 16.209C16.2751 16.3259 16.2752 16.4425 16.218 16.552C16.1181 16.7437 15.9713 16.8691 15.7446 16.8855L15.6842 16.89C15.5888 16.8971 15.4935 16.9042 15.3985 16.9042C13.0948 16.9053 10.7915 16.9053 8.48775 16.9042C8.38113 16.9042 8.27339 16.8976 8.16901 16.8779C7.9245 16.8313 7.74364 16.6199 7.72019 16.3866C7.71453 16.3305 7.71457 16.2735 7.71461 16.2172L7.71461 8.79518C7.71461 8.65005 7.72243 8.5115 7.80672 8.38061C7.9139 8.21413 8.0702 8.13965 8.25609 8.10843C8.30934 8.09966 8.36422 8.10013 8.41898 8.1006C8.43596 8.10075 8.45298 8.1009 8.46989 8.10077H14.6103ZM9.76286 14.6717C9.75934 14.6177 9.75582 14.5637 9.75157 14.5099H9.75268C9.75771 14.224 9.78227 13.9403 9.87717 13.6698C9.98267 13.3697 10.1652 13.1364 10.4951 13.0378C10.7765 12.954 11.0533 12.9666 11.3146 13.0827C11.4966 13.1637 11.6423 13.2996 11.7126 13.4989C11.8656 13.9332 11.8924 14.3768 11.841 14.8297C11.8192 15.0214 11.7841 15.2092 11.7109 15.3888C11.5719 15.7295 11.3213 15.9255 10.9434 15.9644C10.786 15.9803 10.6308 15.9792 10.4789 15.9452C10.2361 15.891 10.0625 15.747 9.94639 15.529C9.86042 15.3675 9.81576 15.1961 9.79288 15.0192C9.77801 14.904 9.77043 14.7878 9.76286 14.6717ZM14.2244 10.3225C14.231 10.3784 14.2375 10.4343 14.2436 10.4901C14.2302 10.7809 14.1989 11.0663 14.1057 11.3428C13.9985 11.661 13.7998 11.897 13.4593 11.9743C13.1255 12.0498 12.7956 12.0367 12.5081 11.8176C12.3546 11.701 12.2764 11.5389 12.2251 11.3587C12.1067 10.943 12.1084 10.5197 12.1547 10.0975C12.1815 9.85652 12.2357 9.61446 12.3864 9.40909C12.5672 9.1621 12.8173 9.04436 13.1227 9.0241C13.3091 9.0115 13.4883 9.03943 13.6586 9.10788C13.7641 9.15005 13.8567 9.21741 13.9304 9.30942C14.0901 9.50821 14.1671 9.73439 14.1883 9.98357C14.198 10.0967 14.2112 10.2097 14.2244 10.3225ZM14.1437 15.638C14.1504 15.7355 14.1386 15.8297 14.0761 15.9233L14.075 15.9228L14.0418 15.925C14.0129 15.9271 13.9815 15.9294 13.95 15.9294C13.8017 15.9295 13.6534 15.9292 13.5052 15.9289C13.1759 15.9282 12.8465 15.9276 12.517 15.9321C12.3735 15.9343 12.3333 15.8812 12.3333 15.7563C12.3335 15.7393 12.3333 15.7223 12.3331 15.7053C12.3327 15.6741 12.3323 15.6429 12.3345 15.6117C12.3406 15.5203 12.373 15.4885 12.469 15.4858C12.5519 15.4834 12.6349 15.4839 12.7178 15.4843C12.751 15.4845 12.7841 15.4847 12.8173 15.4847H12.9429C12.9747 15.3779 12.9842 13.8143 12.9569 13.615C12.9449 13.6197 12.933 13.6238 12.9212 13.6279C12.8955 13.6369 12.8708 13.6455 12.8486 13.6583C12.8046 13.6832 12.7612 13.709 12.7177 13.7349C12.6591 13.7697 12.6004 13.8046 12.5404 13.8373C12.5064 13.856 12.4645 13.8642 12.4255 13.8708C12.3735 13.879 12.3356 13.8576 12.3339 13.8023C12.3311 13.7191 12.3283 13.6358 12.335 13.5531C12.3373 13.5235 12.3618 13.4885 12.3869 13.4682C12.4303 13.4323 12.4786 13.4017 12.5269 13.3711L12.5499 13.3565C12.594 13.3284 12.6388 13.3011 12.6835 13.2738C12.7666 13.2231 12.8498 13.1724 12.929 13.1161C13.0367 13.04 13.1551 13.0153 13.2807 13.017C13.34 13.0177 13.399 13.0249 13.4631 13.0327C13.4943 13.0365 13.5267 13.0404 13.5609 13.0438V15.4721C13.5866 15.4738 13.6102 15.4757 13.6325 15.4775C13.673 15.4807 13.7093 15.4836 13.7457 15.4847C13.7858 15.4858 13.826 15.4855 13.8662 15.4852C13.9064 15.4849 13.9466 15.4847 13.9868 15.4858C14.0996 15.4896 14.1364 15.5263 14.1437 15.638ZM11.2013 9.07229V11.5181L11.2024 11.5197L11.3505 11.5195C11.4389 11.5192 11.5203 11.519 11.6015 11.5197C11.7327 11.5208 11.7584 11.5411 11.7656 11.6703C11.7695 11.7432 11.7595 11.8182 11.7489 11.891C11.7422 11.9403 11.7059 11.9655 11.6534 11.9639C11.6385 11.9631 11.6237 11.9634 11.6088 11.9636L11.5864 11.9639H10.1674C10.0173 11.9639 10.0039 11.9513 9.98714 11.8023C9.98546 11.7892 9.98435 11.776 9.98379 11.7629C9.97374 11.5444 9.9983 11.5186 10.216 11.5186C10.2462 11.5186 10.2765 11.5188 10.3067 11.519C10.3747 11.5195 10.4427 11.52 10.5107 11.5181C10.5973 11.5153 10.6084 11.5038 10.6096 11.4162C10.6111 11.3089 10.6108 11.2018 10.6104 11.0947C10.6103 11.0487 10.6101 11.0027 10.6101 10.9567V9.65279C10.5972 9.65718 10.5851 9.6609 10.5736 9.66441C10.5493 9.67184 10.528 9.67835 10.5091 9.68839C10.4598 9.71456 10.4111 9.74167 10.3624 9.76876C10.2991 9.80402 10.2357 9.83926 10.1714 9.8724C10.1399 9.88841 10.1049 9.89858 10.069 9.90901C10.0534 9.91355 10.0375 9.91819 10.0217 9.92333C9.95978 9.80504 9.96704 9.69167 9.98993 9.5805C9.99774 9.54217 10.0301 9.5 10.0636 9.47755C10.2534 9.34994 10.4454 9.22508 10.6414 9.10569C10.6773 9.08363 10.7225 9.07571 10.7671 9.06791C10.78 9.06564 10.7929 9.06338 10.8055 9.06079C10.8827 9.04446 10.958 9.05286 11.0363 9.06161C11.0893 9.06753 11.1438 9.07362 11.2013 9.07229Z" fill="#000001"/>
<path fill-rule="evenodd" clip-rule="evenodd" d="M21.7842 12.8669L21.9999 12.506L21.9179 12.365C21.8428 12.2344 21.7707 12.1091 21.6974 11.9847C21.6468 11.8987 21.5956 11.8131 21.5444 11.7275C21.4809 11.6215 21.4173 11.5152 21.3552 11.4085C21.2386 11.2083 21.1227 11.0076 21.0068 10.8069C20.8759 10.5804 20.7447 10.3532 20.6128 10.1271C20.4235 9.80285 20.2315 9.47974 20.0395 9.15663C19.968 9.03635 19.8962 8.91626 19.8244 8.79616C19.7167 8.61604 19.609 8.43592 19.5024 8.2552C19.3889 8.06274 19.2768 7.86948 19.1646 7.67615C19.0904 7.54821 19.0161 7.42024 18.9414 7.29244C18.7455 6.95674 18.5496 6.62103 18.352 6.28642C18.2253 6.07183 18.0972 5.85779 17.9691 5.64371L17.8082 5.37459L17.6869 5.17212C17.6059 5.03716 17.5249 4.90216 17.4448 4.7667L17.418 4.72117C17.2935 4.51016 17.1689 4.29898 17.0496 4.08543C17.0145 4.02245 16.9726 3.99507 16.9017 4.00219C16.8808 4.00402 16.86 4.00341 16.8392 4.0028C16.8287 4.00249 16.8183 4.00219 16.8079 4.00219L9.42584 4.00228C8.65445 4.00245 7.88283 4.00263 7.11158 4C7.01389 4 6.96198 4.03286 6.91565 4.11665C6.68216 4.52643 6.44375 4.93379 6.20534 5.34116L6.08613 5.54491C5.90135 5.86145 5.71602 6.17798 5.52958 6.49343C5.43831 6.64759 5.34648 6.80149 5.25465 6.95538C5.16282 7.10926 5.071 7.26315 4.97973 7.41731C4.7704 7.77108 4.56218 8.12486 4.35508 8.47919C4.27604 8.61439 4.19769 8.74993 4.11935 8.88545C4.02507 9.04855 3.9308 9.21163 3.83537 9.37404C3.72727 9.55802 3.61768 9.74117 3.50804 9.92438C3.44048 10.0373 3.37287 10.1503 3.30562 10.2634C3.22858 10.3932 3.15181 10.523 3.07504 10.6528C2.9983 10.7826 2.92155 10.9124 2.84453 11.0422C2.79412 11.1268 2.74355 11.2114 2.69298 11.296C2.61137 11.4325 2.52974 11.569 2.44875 11.7059C2.3064 11.9469 2.16573 12.1884 2.02506 12.4299C1.99994 12.4732 1.98877 12.5126 2.02003 12.5635C2.07995 12.6616 2.1372 12.761 2.19446 12.8604C2.23536 12.9313 2.27626 13.0023 2.31812 13.0728C2.37963 13.1765 2.44211 13.2799 2.50463 13.3832C2.59133 13.5266 2.67815 13.6701 2.76247 13.8149C2.85922 13.9811 2.95447 14.1482 3.04974 14.3154C3.16443 14.5166 3.27923 14.718 3.39661 14.9179C3.5391 15.1602 3.68408 15.4011 3.82908 15.6421C3.93171 15.8126 4.03447 15.9833 4.13625 16.1544C4.21221 16.2823 4.28683 16.4107 4.36145 16.5391C4.41402 16.6296 4.4667 16.7202 4.51975 16.8105C4.60937 16.9631 4.69927 17.1156 4.78916 17.2682C4.87902 17.4207 4.96887 17.5731 5.05844 17.7256C5.29066 18.121 5.52232 18.5164 5.75398 18.9124C5.80958 19.0076 5.86483 19.1032 5.92011 19.1988C6.00689 19.3489 6.09384 19.4992 6.18214 19.6484C6.26491 19.7885 6.34828 19.9282 6.43165 20.0679C6.58782 20.3296 6.74398 20.5912 6.89611 20.8554C6.95528 20.9578 7.01836 21 7.14396 21C9.27129 20.9963 11.399 20.9965 13.5265 20.9967L15.3231 20.9966C15.8422 20.9964 16.3612 20.9962 16.8805 20.9978C16.9637 20.9984 17.0145 20.9803 17.0597 20.9003C17.3332 20.4179 17.614 19.9392 17.8953 19.4611C18.0265 19.2379 18.1592 19.0155 18.2918 18.793C18.4143 18.5876 18.5371 18.3818 18.6584 18.1758C18.8209 17.8993 18.9824 17.6222 19.1439 17.3451C19.2859 17.1014 19.4279 16.8577 19.5706 16.6145C19.7564 16.2979 19.944 15.9825 20.1321 15.6676C20.1915 15.5681 20.2517 15.4691 20.3118 15.37C20.4036 15.2187 20.4955 15.0675 20.5848 14.9146C20.6865 14.7411 20.7863 14.5668 20.8861 14.3925C20.9947 14.203 21.1032 14.0136 21.214 13.8253C21.4022 13.5052 21.5929 13.1866 21.7842 12.8669ZM6.96756 16.2032V8.80997C6.96756 8.62103 6.98096 8.43647 7.04962 8.25575C7.15624 7.9759 7.33543 7.75685 7.5883 7.59365C7.84174 7.4299 8.12476 7.36966 8.42452 7.36966L9.58339 7.36973C11.3216 7.3699 13.0601 7.37006 14.7983 7.36692C14.91 7.36637 14.9797 7.408 15.0501 7.48138C15.1313 7.56574 15.2157 7.6471 15.3 7.72845C15.3454 7.77222 15.3909 7.81612 15.4358 7.86035C15.4813 7.90536 15.5264 7.95065 15.5716 7.99595C15.6507 8.07519 15.7298 8.15451 15.8104 8.2322C15.9465 8.36333 16.0833 8.49363 16.22 8.62394C16.3567 8.75427 16.4936 8.88473 16.6298 9.01588C16.6843 9.06826 16.7375 9.12214 16.7907 9.17603C16.8487 9.23481 16.9067 9.29364 16.9664 9.35049C17.0089 9.39102 17.02 9.43538 17.02 9.49014C17.0188 9.67474 17.0191 9.85905 17.0193 10.0435L17.0195 16.1479L17.0197 16.1934C17.0199 16.2441 17.0202 16.2949 17.0172 16.345C16.9854 16.8379 16.751 17.2059 16.315 17.4562C16.0789 17.5915 15.8243 17.6243 15.5586 17.6243L9.23849 17.6246C8.96184 17.6248 8.68515 17.625 8.40833 17.6243C8.21184 17.6238 8.0159 17.6145 7.83169 17.535C7.4521 17.3713 7.1808 17.1112 7.04292 16.7191C6.98263 16.5493 6.96756 16.3779 6.96756 16.2032Z" fill="#000001"/>
</g>
</g>
</svg>
