<svg width="16" height="16" viewBox="0 0 16 16" fill="none" xmlns="http://www.w3.org/2000/svg">
<g id="size=16">
<g id="Group">
<path id="Vector" d="M15 8.00425C14.8156 8.31583 14.6311 8.6247 14.4498 8.93551C14.3009 9.19064 14.1579 9.44888 14.0094 9.7044C13.9059 9.883 13.7976 10.0585 13.6925 10.2359C13.5609 10.4582 13.4296 10.6809 13.2994 10.9043C13.0861 11.2712 12.8747 11.6396 12.6609 12.0064C12.4839 12.3095 12.3034 12.6107 12.1268 12.9137C11.9298 13.2512 11.7333 13.5891 11.5418 13.9296C11.5102 13.9861 11.4746 13.9988 11.4164 13.9985C10.9318 13.9969 10.4477 13.9977 9.96316 13.9977C8.17585 13.9977 6.38814 13.9969 4.60082 14C4.5129 14 4.46874 13.9702 4.42732 13.8979C4.26399 13.6119 4.09401 13.3301 3.92755 13.0459C3.82634 12.8735 3.72787 12.6992 3.62784 12.5264C3.46567 12.2469 3.30351 11.9678 3.14096 11.6887C3.01552 11.4734 2.88931 11.258 2.76388 11.0427C2.674 10.8885 2.58608 10.7335 2.49543 10.5796C2.32349 10.2881 2.14805 9.99897 1.97768 9.70672C1.82723 9.44849 1.68305 9.18678 1.53378 8.92816C1.43218 8.75227 1.3255 8.57909 1.22274 8.40436C1.1524 8.2849 1.08597 8.16352 1.01407 8.04484C0.99219 8.00889 1 7.98106 1.01759 7.95052C1.11606 7.78004 1.21453 7.60956 1.31417 7.43947C1.406 7.28291 1.499 7.12712 1.59122 6.97094C1.69907 6.78771 1.80613 6.60447 1.91398 6.42124C2.03746 6.21171 2.1625 6.00335 2.28481 5.79344C2.40712 5.58353 2.52669 5.37208 2.6486 5.16178C2.79357 4.91167 2.93933 4.66194 3.08586 4.41222C3.21364 4.19458 3.34298 3.97771 3.47075 3.76007C3.60127 3.5374 3.731 3.31396 3.86034 3.09052C4.05493 2.75498 4.25031 2.41982 4.441 2.08234C4.47343 2.02319 4.50977 2 4.57816 2C5.25299 2.00232 5.92822 2.00155 6.60305 2.00155C8.19069 2.00155 9.77794 2.00155 11.3656 2.00155C11.3875 2.00155 11.4094 2.00348 11.4312 2.00155C11.4809 1.99652 11.5102 2.01585 11.5348 2.06031C11.6243 2.22189 11.718 2.38155 11.8114 2.5412C11.8954 2.68462 11.981 2.82727 12.0658 2.9703C12.1928 3.18485 12.3206 3.39901 12.4464 3.61394C12.5847 3.85014 12.7219 4.08711 12.8591 4.32408C12.9903 4.55061 13.1197 4.77791 13.2518 5.00367C13.376 5.21629 13.5026 5.42774 13.6277 5.63997C13.7621 5.86805 13.8965 6.09613 14.029 6.32498C14.2033 6.62612 14.3748 6.92842 14.5487 7.22956C14.6272 7.36563 14.7089 7.50016 14.7882 7.63623C14.8578 7.7553 14.9258 7.87552 14.9996 8.00464L15 8.00425ZM4.47734 7.99072C4.47734 8.86515 4.47734 9.73958 4.47734 10.614C4.47734 10.7373 4.48789 10.8583 4.53009 10.9782C4.62661 11.2549 4.81652 11.4386 5.08223 11.5542C5.21118 11.6102 5.34834 11.6168 5.48588 11.6172C5.7766 11.6179 6.06694 11.6172 6.35766 11.6172C7.73546 11.6172 9.11327 11.6172 10.4911 11.6172C10.6771 11.6172 10.8553 11.594 11.0205 11.4985C11.3257 11.3218 11.4898 11.062 11.5121 10.7141C11.5149 10.6681 11.5137 10.6214 11.5137 10.575C11.5137 9.19064 11.5137 7.80671 11.5137 6.4224C11.5137 6.23993 11.5129 6.05786 11.5141 5.87539C11.5141 5.83674 11.5063 5.80542 11.4766 5.77682C11.3965 5.69989 11.3206 5.61794 11.2409 5.54062C11.0502 5.35545 10.858 5.1726 10.6673 4.98744C10.5786 4.90123 10.4926 4.81232 10.4051 4.72495C10.3152 4.63565 10.2226 4.54906 10.1351 4.45744C10.0859 4.40564 10.037 4.37626 9.95886 4.37665C8.47165 4.37936 6.98443 4.37858 5.49721 4.37858C5.28738 4.37858 5.08926 4.42111 4.91186 4.53669C4.73485 4.65189 4.60942 4.80652 4.53478 5.00406C4.48672 5.13163 4.47734 5.2619 4.47734 5.39527C4.47734 6.26042 4.47734 7.12557 4.47734 7.99072Z" fill="#2378BC"/>
<path id="Vector_2" d="M4.47722 7.99072C4.47722 7.12557 4.47722 6.26042 4.47722 5.39527C4.47722 5.26229 4.4866 5.13163 4.53467 5.00406C4.6093 4.80652 4.73473 4.65189 4.91175 4.53669C5.08915 4.4211 5.28726 4.37858 5.4971 4.37858C6.98431 4.37858 8.47153 4.37935 9.95875 4.37665C10.0369 4.37665 10.0857 4.40564 10.135 4.45744C10.2225 4.54906 10.3151 4.63565 10.405 4.72495C10.4929 4.81193 10.5785 4.90123 10.6672 4.98743C10.8579 5.1726 11.0501 5.35545 11.2408 5.54062C11.3205 5.61793 11.3963 5.69989 11.4764 5.77682C11.5065 5.80542 11.5143 5.83673 11.514 5.87539C11.5128 6.05785 11.5136 6.23993 11.5136 6.42239C11.5136 7.80671 11.5136 9.19064 11.5136 10.575C11.5136 10.6213 11.5147 10.6677 11.512 10.7141C11.4901 11.0624 11.326 11.3222 11.0204 11.4985C10.8551 11.5944 10.677 11.6172 10.491 11.6172C9.11315 11.6168 7.73535 11.6172 6.35754 11.6172C6.06682 11.6172 5.77649 11.6179 5.48577 11.6172C5.34822 11.6168 5.21106 11.6102 5.08211 11.5541C4.8164 11.439 4.62649 11.2549 4.52998 10.9782C4.48817 10.8583 4.47762 10.7377 4.47722 10.614C4.47683 9.73958 4.47722 8.86515 4.47722 7.99072ZM9.82706 4.89388H9.466C8.15346 4.89388 6.84091 4.89388 5.52836 4.89388C5.47834 4.89388 5.42754 4.89079 5.3787 4.89929C5.24858 4.92094 5.13916 4.9739 5.06414 5.09142C5.00514 5.18381 4.99967 5.28162 4.99967 5.38406C4.99967 7.12712 4.99967 8.87017 4.99967 10.6132C4.99967 10.6565 4.99888 10.6998 5.00357 10.7427C5.02038 10.9074 5.14659 11.0566 5.31774 11.0895C5.39081 11.1034 5.46623 11.108 5.54086 11.108C7.15351 11.1092 8.76577 11.1092 10.3784 11.108C10.4593 11.108 10.5402 11.1007 10.6207 11.0949C10.7793 11.0833 10.8821 10.9952 10.952 10.8595C10.9939 10.7787 10.9919 10.6925 10.9919 10.6063C10.9919 9.59886 10.9919 8.59145 10.9919 7.58366C10.9919 7.11706 10.9919 6.65047 10.9919 6.18349C10.9919 6.14793 10.9868 6.11236 10.9833 6.06713H9.82667V4.89311L9.82706 4.89388Z" fill="#FAFDFE"/>
<path id="Vector_3" d="M9.82726 4.89392V6.06794H10.9839C10.9874 6.11317 10.9925 6.14874 10.9925 6.1843C10.9929 6.6509 10.9925 7.11749 10.9925 7.58447C10.9925 8.59188 10.9925 9.59929 10.9925 10.6071C10.9925 10.6933 10.9944 10.7795 10.9526 10.8603C10.8827 10.9956 10.7799 11.0841 10.6213 11.0957C10.5404 11.1015 10.4595 11.1089 10.379 11.1089C8.76636 11.1096 7.1541 11.1096 5.54145 11.1089C5.46682 11.1089 5.3914 11.1042 5.31833 11.0903C5.14718 11.0574 5.02057 10.9082 5.00416 10.7435C4.99986 10.7006 5.00025 10.657 5.00025 10.614C5.00025 8.87098 5.00025 7.12793 5.00025 5.38487C5.00025 5.28243 5.00572 5.18462 5.06473 5.09223C5.13975 4.97471 5.24916 4.92214 5.37929 4.90011C5.42813 4.89199 5.47893 4.89508 5.52895 4.89469C6.84149 4.89469 8.15404 4.89469 9.46659 4.89469H9.82765L9.82726 4.89392ZM6.42612 9.41876C6.4355 9.5386 6.4398 9.65921 6.45504 9.77827C6.47106 9.90313 6.50232 10.0241 6.5625 10.1382C6.64377 10.292 6.7653 10.3937 6.93528 10.432C7.04156 10.4559 7.15019 10.4567 7.26039 10.4455C7.52493 10.418 7.70038 10.2797 7.79767 10.0392C7.84886 9.91241 7.87348 9.77982 7.88872 9.64452C7.92467 9.32482 7.90591 9.0117 7.79885 8.70514C7.74961 8.56443 7.64762 8.46856 7.52024 8.41135C7.33736 8.3294 7.14355 8.3205 6.94661 8.37965C6.71567 8.44923 6.58789 8.61391 6.51404 8.82576C6.44761 9.01672 6.43042 9.21697 6.4269 9.41876H6.42612ZM9.57053 6.58131C9.55764 6.46225 9.54201 6.34318 9.53185 6.22373C9.517 6.04784 9.46308 5.88819 9.35132 5.74786C9.29974 5.68292 9.23487 5.63537 9.16102 5.6056C9.04184 5.55728 8.91641 5.53756 8.7859 5.54646C8.57215 5.56076 8.39709 5.64387 8.27049 5.81822C8.16498 5.96318 8.12708 6.13405 8.10833 6.30414C8.07589 6.60219 8.07472 6.90101 8.15756 7.19442C8.19351 7.3216 8.24822 7.43602 8.35567 7.51836C8.55691 7.67299 8.78785 7.68227 9.02152 7.62892C9.25988 7.57442 9.39899 7.40781 9.47402 7.18321C9.53927 6.98799 9.56155 6.78697 9.57092 6.5817L9.57053 6.58131ZM9.45331 10.4165C9.49707 10.3504 9.50528 10.2839 9.50059 10.2151C9.49551 10.1362 9.46972 10.1103 9.39079 10.1076C9.33452 10.1061 9.27825 10.1084 9.22198 10.1069C9.18251 10.1057 9.14344 10.1014 9.09264 10.098V8.3839C9.01957 8.37656 8.95822 8.36573 8.89648 8.36496C8.80856 8.3638 8.72572 8.3812 8.6503 8.43493C8.56512 8.49601 8.47329 8.54781 8.38498 8.60464C8.3459 8.62976 8.30605 8.65412 8.27088 8.6835C8.2533 8.6978 8.2361 8.72254 8.23454 8.74341C8.22985 8.80179 8.2318 8.86055 8.23376 8.91931C8.23493 8.95835 8.2615 8.97343 8.29784 8.96763C8.32519 8.96299 8.3545 8.95719 8.37834 8.94405C8.45141 8.90384 8.52174 8.859 8.59403 8.81764C8.6167 8.80449 8.64327 8.79754 8.66984 8.7871C8.68899 8.92781 8.68235 10.0315 8.66007 10.1069C8.63311 10.1069 8.60263 10.1069 8.57215 10.1069C8.49087 10.1069 8.4096 10.1053 8.32832 10.1076C8.26111 10.1096 8.23845 10.132 8.23415 10.1965C8.2318 10.2306 8.23376 10.2646 8.23337 10.2986C8.23337 10.3867 8.2615 10.4242 8.36193 10.4227C8.69641 10.418 9.03051 10.4211 9.365 10.4208C9.39587 10.4208 9.42634 10.4177 9.45252 10.4161L9.45331 10.4165ZM7.44091 7.30691V5.58047C7.34127 5.58279 7.25452 5.55303 7.16387 5.57236C7.12479 5.58047 7.08142 5.58395 7.04899 5.60406C6.91183 5.68833 6.77741 5.77647 6.64455 5.86654C6.62111 5.88239 6.59844 5.91215 6.59297 5.93921C6.57695 6.01769 6.57187 6.09771 6.61525 6.18121C6.65159 6.16923 6.68832 6.16149 6.71997 6.14526C6.79968 6.10389 6.87705 6.05789 6.95638 6.01537C6.97591 6.00493 6.99897 5.99991 7.0271 5.99024C7.0271 6.3053 7.0271 6.60799 7.0271 6.91067C7.0271 7.01891 7.02828 7.12677 7.02671 7.23501C7.02593 7.29686 7.01812 7.30498 6.95755 7.30691C6.88878 7.30884 6.82 7.3073 6.75123 7.3073C6.59883 7.3073 6.58164 7.32546 6.58868 7.47971C6.58907 7.48899 6.58985 7.49826 6.59102 7.50754C6.60274 7.61269 6.61212 7.62158 6.71723 7.62158C7.0482 7.62158 7.37957 7.62158 7.71054 7.62158C7.72617 7.62158 7.7418 7.62081 7.75743 7.62158C7.79416 7.62274 7.81956 7.60496 7.82425 7.57017C7.83167 7.51875 7.8387 7.46579 7.83597 7.41438C7.83089 7.32315 7.81291 7.30884 7.72109 7.30807C7.63395 7.3073 7.54681 7.30807 7.4417 7.30807L7.44091 7.30691Z" fill="#2478BD"/>
<path id="Vector_4" d="M6.42607 9.4187C6.42959 9.21691 6.44678 9.01666 6.51321 8.8257C6.58707 8.61385 6.71523 8.44917 6.94578 8.37959C7.14272 8.32044 7.33654 8.32934 7.51941 8.41129C7.64719 8.4685 7.74878 8.56437 7.79802 8.70508C7.90509 9.01164 7.92384 9.32476 7.88789 9.64446C7.87265 9.77976 7.84804 9.91274 7.79685 10.0391C7.69955 10.2796 7.5241 10.418 7.25956 10.4454C7.14975 10.457 7.04073 10.4563 6.93445 10.4319C6.76447 10.3936 6.64333 10.292 6.56167 10.1381C6.50149 10.0241 6.46984 9.90307 6.45421 9.77821C6.43897 9.65915 6.43467 9.53854 6.42529 9.4187H6.42607ZM7.4862 9.38429C7.47174 9.23778 7.46197 9.08702 7.4393 8.93819C7.42954 8.87324 7.40414 8.80405 7.36506 8.75186C7.28613 8.64671 7.04933 8.63434 6.96649 8.77157C6.93992 8.81603 6.9196 8.86474 6.90123 8.91345C6.86802 9.0012 6.86528 9.09359 6.86059 9.18637C6.84887 9.41754 6.84301 9.64832 6.89772 9.87563C6.93875 10.0473 7.00986 10.1485 7.21267 10.125C7.29629 10.1153 7.3592 10.0747 7.39241 9.99778C7.4143 9.94714 7.4354 9.8938 7.44204 9.84006C7.4608 9.69046 7.47174 9.54008 7.4862 9.38507V9.38429Z" fill="#F9FCFE"/>
<path id="Vector_5" d="M9.57055 6.58166C9.56118 6.78693 9.5389 6.98795 9.47365 7.18317C9.39862 7.40777 9.2599 7.57438 9.02115 7.62889C8.78787 7.68224 8.55654 7.67296 8.3553 7.51833C8.24785 7.43599 8.19314 7.32156 8.15719 7.19438C8.07435 6.90097 8.07552 6.60177 8.10796 6.3041C8.12632 6.13401 8.16462 5.96353 8.27012 5.81818C8.39672 5.64384 8.57178 5.56072 8.78553 5.54642C8.91604 5.53753 9.04147 5.55763 9.16065 5.60557C9.2345 5.63533 9.29937 5.68288 9.35095 5.74783C9.46271 5.88815 9.51663 6.04781 9.53148 6.2237C9.54164 6.34315 9.55688 6.46221 9.57016 6.58128L9.57055 6.58166ZM8.51356 6.61336C8.5077 6.78964 8.51786 6.97636 8.57491 7.15843C8.6007 7.24038 8.64993 7.30456 8.7359 7.32041C8.83164 7.3378 8.92893 7.33973 9.00318 7.25469C9.07117 7.1766 9.09969 7.08344 9.11259 6.98525C9.14502 6.7332 9.14854 6.48077 9.11259 6.22911C9.10204 6.15411 9.08211 6.07719 9.0485 6.00992C9.02428 5.96121 8.97661 5.90632 8.92737 5.89086C8.7867 5.8464 8.63469 5.87694 8.57491 6.05322C8.51473 6.23143 8.50965 6.41582 8.51317 6.61336H8.51356Z" fill="#F9FCFE"/>
<path id="Vector_6" d="M9.45274 10.4169C9.42655 10.4184 9.39568 10.4215 9.36521 10.4215C9.03072 10.4215 8.69623 10.4188 8.36214 10.4234C8.26132 10.425 8.23358 10.3871 8.23358 10.2994C8.23358 10.2653 8.23201 10.2313 8.23436 10.1973C8.23866 10.1331 8.26093 10.1103 8.32853 10.1084C8.40981 10.1061 8.49108 10.1076 8.57236 10.1076C8.60284 10.1076 8.63332 10.1076 8.66028 10.1076C8.68256 10.0326 8.68881 8.92857 8.67005 8.78785C8.64348 8.79829 8.6173 8.80525 8.59424 8.81839C8.52195 8.85976 8.45162 8.9046 8.37855 8.9448C8.35471 8.95795 8.3258 8.96374 8.29805 8.96838C8.26171 8.97418 8.23553 8.95911 8.23397 8.92006C8.23201 8.86169 8.22967 8.80254 8.23475 8.74417C8.23631 8.72291 8.2539 8.69856 8.27109 8.68425C8.30665 8.65487 8.34611 8.63013 8.38519 8.60539C8.4735 8.54895 8.56533 8.49715 8.65051 8.43569C8.72554 8.38157 8.80838 8.36456 8.89669 8.36572C8.95843 8.36649 9.01978 8.37731 9.09285 8.38466V10.0987C9.14365 10.1022 9.18272 10.1065 9.22219 10.1076C9.27846 10.1092 9.33473 10.1065 9.391 10.1084C9.46993 10.1107 9.49533 10.137 9.5008 10.2159C9.50549 10.2851 9.49689 10.3512 9.45352 10.4173L9.45274 10.4169Z" fill="#FAFCFE"/>
<path id="Vector_7" d="M7.44042 7.30728C7.54553 7.30728 7.63267 7.30651 7.71981 7.30728C7.81203 7.30806 7.83 7.32236 7.83469 7.41359C7.83743 7.46539 7.83039 7.51797 7.82297 7.56938C7.81789 7.60417 7.79288 7.62157 7.75615 7.62079C7.74052 7.62041 7.72489 7.62079 7.70926 7.62079C7.37829 7.62079 7.04693 7.62079 6.71596 7.62079C6.61084 7.62079 6.60186 7.6119 6.58974 7.50675C6.58857 7.49748 6.58779 7.4882 6.5874 7.47892C6.58036 7.32468 6.59756 7.30651 6.74995 7.30651C6.81873 7.30651 6.8875 7.30806 6.95627 7.30612C7.01684 7.30419 7.02465 7.29646 7.02544 7.23422C7.027 7.12598 7.02583 7.01813 7.02583 6.90989C7.02583 6.6072 7.02583 6.30451 7.02583 5.98946C6.99769 5.99912 6.97503 6.00415 6.9551 6.01458C6.87578 6.05711 6.7988 6.10311 6.71869 6.14447C6.68665 6.16109 6.65031 6.16844 6.61397 6.18042C6.5706 6.09692 6.57568 6.0169 6.5917 5.93843C6.59717 5.91137 6.61983 5.8816 6.64328 5.86575C6.77652 5.77568 6.91094 5.68754 7.04771 5.60327C7.08014 5.58317 7.12391 5.58008 7.16259 5.57157C7.25325 5.55224 7.33999 5.58239 7.43964 5.57969V7.30612L7.44042 7.30728Z" fill="#FAFCFE"/>
<path id="Vector_8" d="M7.48622 9.38433C7.47176 9.53934 7.46082 9.68972 7.44206 9.83932C7.43542 9.89306 7.41393 9.9464 7.39244 9.99705C7.35961 10.0736 7.2967 10.1142 7.21269 10.1242C7.00989 10.1478 6.93877 10.0465 6.89774 9.87489C6.84303 9.64758 6.84889 9.4168 6.86062 9.18563C6.86531 9.09285 6.86804 9.00046 6.90126 8.91271C6.91962 8.864 6.93955 8.81529 6.96651 8.77084C7.04935 8.63322 7.28654 8.64597 7.36508 8.75112C7.40416 8.80331 7.42917 8.87251 7.43933 8.93745C7.46199 9.08628 7.47176 9.23743 7.48622 9.38355V9.38433Z" fill="#267ABE"/>
<path id="Vector_9" d="M8.51354 6.61299C8.51003 6.41545 8.51471 6.23105 8.57528 6.05284C8.63507 5.87656 8.78707 5.84602 8.92774 5.89048C8.97698 5.90594 9.02426 5.96084 9.04888 6.00954C9.08248 6.07681 9.10241 6.15374 9.11296 6.22873C9.14891 6.48039 9.14539 6.73321 9.11296 6.98487C9.10046 7.08306 9.07154 7.17622 9.00355 7.25431C8.9297 7.33936 8.83201 7.33742 8.73627 7.32003C8.65031 7.30418 8.60107 7.24001 8.57528 7.15805C8.51784 6.97636 8.50807 6.78926 8.51393 6.61299H8.51354Z" fill="#267ABE"/>
</g>
</g>
</svg>
