<svg width="16" height="16" viewBox="0 0 16 16" fill="none" xmlns="http://www.w3.org/2000/svg">
<g id="size=16">
<g id="Subtract">
<path d="M6.00635 5.30871L8 4.17222L9.99375 5.30871L8.00007 6.47514L6.00635 5.30871Z" fill="#000001"/>
<path d="M8.34792 6.67866L10.17 5.61263V7.74471L8.34792 6.67866Z" fill="#000001"/>
<path d="M8.17506 6.98456L9.99375 8.04863L8.17501 9.08536L8.17506 6.98456Z" fill="#000001"/>
<path d="M7.82506 6.98456L7.82501 9.08536L6.00634 8.04863L7.82506 6.98456Z" fill="#000001"/>
<path d="M5.8301 5.61263V7.74471L7.65221 6.67866L5.8301 5.61263Z" fill="#000001"/>
<path fill-rule="evenodd" clip-rule="evenodd" d="M14.5333 2H1.46667C1.20893 2 1 2.20999 1 2.46903V10.9116C1 11.1707 1.20893 11.3807 1.46667 11.3807H6.62335C6.62335 12.9988 6.57666 13.9994 5.19224 14.2183C5.00112 14.2395 4.82461 14.3312 4.69678 14.4755C4.56895 14.6199 4.49885 14.8067 4.50001 15H11.5C11.5012 14.8067 11.4311 14.6199 11.3032 14.4755C11.1754 14.3312 10.9989 14.2395 10.8078 14.2183C9.42336 13.9994 9.3689 12.9988 9.3689 11.3807H14.5333C14.7911 11.3807 15 11.1707 15 10.9116V2.46903C15 2.20999 14.7911 2 14.5333 2ZM10.52 5.20428L8 3.76781L5.4801 5.20428V8.15306L8 9.58953L10.52 8.15306V5.20428Z" fill="#000001"/>
</g>
</g>
</svg>
