<svg width="24" height="24" viewBox="0 0 24 24" fill="none" xmlns="http://www.w3.org/2000/svg">
<g id="size=24">
<g id="Path">
<path d="M11.275 18.1989C13.7675 17.7594 15.8261 17.3957 15.8497 17.3907L15.8927 17.3816L13.5396 14.5875C12.2454 13.0508 11.1865 11.7875 11.1865 11.7803C11.1865 11.7665 13.6163 5.0871 13.6299 5.06334C13.6345 5.0554 15.288 7.90518 17.6382 11.9714C19.8385 15.7783 21.6526 18.9171 21.6694 18.9465L21.7001 19L6.74328 18.998L11.275 18.1989Z" fill="#000001"/>
<path d="M2.30005 17.3469C2.30005 17.343 3.40883 15.4216 4.764 13.0772L7.22795 8.81463L10.0994 6.40914C11.6787 5.08612 12.9751 4.00203 12.9803 4.00005C12.9855 3.99808 12.9647 4.05027 12.9341 4.11605C12.9035 4.18182 11.5004 7.18602 9.81614 10.7921L6.75377 17.3485L4.52691 17.3513C3.30214 17.3528 2.30005 17.3508 2.30005 17.3469Z" fill="#000001"/>
</g>
</g>
</svg>
