<svg width="16" height="16" viewBox="0 0 16 16" fill="none" xmlns="http://www.w3.org/2000/svg">
<g id="size=16">
<path id="Path" d="M13.75 1C14.9926 1 16 2.00736 16 3.25V12.75C16 13.9926 14.9926 15 13.75 15H13V15.25C13 15.6642 12.6642 16 12.25 16C11.8358 16 11.5 15.6642 11.5 15.25V15H4.5V15.25C4.5 15.6642 4.16421 16 3.75 16C3.33579 16 3 15.6642 3 15.25V15H2.25C1.00736 15 0 13.9926 0 12.75V3.25C0 2.00736 1.00736 1 2.25 1H13.75ZM2.25 2.5C1.83579 2.5 1.5 2.83579 1.5 3.25V12.75C1.5 13.1642 1.83579 13.5 2.25 13.5H13.75C14.1642 13.5 14.5 13.1642 14.5 12.75V3.25C14.5 2.83579 14.1642 2.5 13.75 2.5H2.25ZM9 3C10.1101 3 11.1362 3.36152 11.9658 3.97363L11.9697 3.96973C12.2626 3.67683 12.7374 3.67683 13.0303 3.96973C13.3232 4.26262 13.3232 4.73738 13.0303 5.03027L13.0264 5.03418C13.6385 5.86384 14 6.88986 14 8C14 9.11014 13.6385 10.1362 13.0264 10.9658L13.0303 10.9697C13.3232 11.2626 13.3232 11.7374 13.0303 12.0303C12.7374 12.3232 12.2626 12.3232 11.9697 12.0303L11.9658 12.0264C11.1362 12.6385 10.1101 13 9 13C7.88986 13 6.86384 12.6385 6.03418 12.0264L6.03027 12.0303C5.73738 12.3232 5.26262 12.3232 4.96973 12.0303C4.67683 11.7374 4.67683 11.2626 4.96973 10.9697L4.97363 10.9658C4.36152 10.1362 4 9.11014 4 8C4 6.88986 4.36152 5.86384 4.97363 5.03418L4.96973 5.03027C4.67683 4.73738 4.67683 4.26262 4.96973 3.96973C5.26262 3.67683 5.73738 3.67683 6.03027 3.96973L6.03418 3.97363C6.86384 3.36152 7.88986 3 9 3ZM2.75 9.75C3.16421 9.75 3.5 10.0858 3.5 10.5V12C3.5 12.4142 3.16421 12.75 2.75 12.75C2.33579 12.75 2 12.4142 2 12V10.5C2 10.0858 2.33579 9.75 2.75 9.75ZM9 4.5C8.30495 4.5 7.65688 4.70239 7.1123 5.05176L8.03027 5.96973C8.32317 6.26262 8.32317 6.73738 8.03027 7.03027C7.73738 7.32317 7.26262 7.32317 6.96973 7.03027L6.05176 6.1123C5.70239 6.65688 5.5 7.30495 5.5 8C5.5 8.69505 5.70239 9.34312 6.05176 9.8877L6.96973 8.96973C7.26262 8.67683 7.73738 8.67683 8.03027 8.96973C8.32317 9.26262 8.32317 9.73738 8.03027 10.0303L7.1123 10.9482C7.65688 11.2976 8.30495 11.5 9 11.5C9.69505 11.5 10.3431 11.2976 10.8877 10.9482L9.96973 10.0303C9.67683 9.73738 9.67683 9.26262 9.96973 8.96973C10.2626 8.67683 10.7374 8.67683 11.0303 8.96973L11.9482 9.8877C12.2976 9.34312 12.5 8.69505 12.5 8C12.5 7.30495 12.2976 6.65688 11.9482 6.1123L11.0303 7.03027C10.7374 7.32317 10.2626 7.32317 9.96973 7.03027C9.67683 6.73738 9.67683 6.26262 9.96973 5.96973L10.8877 5.05176C10.3431 4.70239 9.69506 4.5 9 4.5ZM2.75 3.25C3.16421 3.25 3.5 3.58579 3.5 4V5.5C3.5 5.91421 3.16421 6.25 2.75 6.25C2.33579 6.25 2 5.91421 2 5.5V4C2 3.58579 2.33579 3.25 2.75 3.25Z" fill="#000001"/>
</g>
</svg>
