<svg width="24" height="24" viewBox="0 0 24 24" fill="none" xmlns="http://www.w3.org/2000/svg">
<g id="size=24">
<path id="Path" fill-rule="evenodd" clip-rule="evenodd" d="M11.9443 4.99744C12.2221 4.69046 12.6958 4.66618 13.0029 4.94373C13.3097 5.22156 13.3341 5.69622 13.0566 6.0033L9.09668 10.3803L14.4707 12.0336C14.7099 12.1073 14.897 12.2958 14.9688 12.5355C15.0402 12.7751 14.9874 13.0351 14.8281 13.2279L10.0781 18.9779C9.81435 19.2968 9.34168 19.3419 9.02246 19.0785C8.70326 18.8148 8.65844 18.3422 8.92188 18.0228L12.957 13.1371L7.5293 11.4672C7.28465 11.3918 7.09556 11.1963 7.02734 10.9496C6.95939 10.7025 7.02254 10.4375 7.19434 10.2474L11.9443 4.99744ZM8.25 5.00037C8.66421 5.00037 8.99999 5.33616 9 5.75037C8.99966 6.1643 8.66401 6.50037 8.25 6.50037H3.75C3.05965 6.50037 2.50001 7.06002 2.5 7.75037V16.2504C2.50034 16.9404 3.05985 17.5004 3.75 17.5004H6.25C6.66421 17.5004 6.99999 17.8362 7 18.2504C6.99966 18.6643 6.66401 19.0004 6.25 19.0004H3.75C2.23143 19.0004 1.00034 17.7689 1 16.2504V7.75037C1.00001 6.2316 2.23122 5.00037 3.75 5.00037H8.25ZM18.25 5.00037C19.7688 5.00037 21 6.2316 21 7.75037V16.2504C20.9997 17.7689 19.7686 19.0004 18.25 19.0004H13.75C13.336 19.0004 13.0003 18.6643 13 18.2504C13 17.8362 13.3358 17.5004 13.75 17.5004H18.25C18.9401 17.5004 19.4997 16.9404 19.5 16.2504V7.75037C19.5 7.06002 18.9403 6.50037 18.25 6.50037H15.75C15.336 6.50037 15.0003 6.1643 15 5.75037C15 5.33616 15.3358 5.00037 15.75 5.00037H18.25ZM22.75 10.0004C23.1642 10.0004 23.5 10.3362 23.5 10.7504V13.2504C23.4997 13.6643 23.164 14.0004 22.75 14.0004C22.336 14.0004 22.0003 13.6643 22 13.2504V10.7504C22 10.3362 22.3358 10.0004 22.75 10.0004Z" fill="#000001"/>
</g>
</svg>
