<svg width="16" height="16" viewBox="0 0 16 16" fill="none" xmlns="http://www.w3.org/2000/svg">
<g id="size=16">
<path id="Path" d="M10.75 3C11.9926 3 13 4.00736 13 5.25V10.75C13 11.9926 11.9926 13 10.75 13H2.25C1.00736 13 0 11.9926 0 10.75V5.25C0 4.00736 1.00736 3 2.25 3H10.75ZM2.25 4.5C1.83579 4.5 1.5 4.83579 1.5 5.25V10.75C1.5 11.1642 1.83579 11.5 2.25 11.5H10.75C11.1642 11.5 11.5 11.1642 11.5 10.75V5.25C11.5 4.83579 11.1642 4.5 10.75 4.5H2.25ZM14.75 6C15.1642 6 15.5 6.33579 15.5 6.75V9.25C15.5 9.66421 15.1642 10 14.75 10C14.3358 10 14 9.66421 14 9.25V6.75C14 6.33579 14.3358 6 14.75 6Z" fill="#000001"/>
</g>
</svg>
