<svg width="16" height="16" viewBox="0 0 16 16" fill="none" xmlns="http://www.w3.org/2000/svg">
<g id="size=16">
<path id="Path" fill-rule="evenodd" clip-rule="evenodd" d="M6.39551 3.05688C6.64047 2.72292 7.10936 2.65081 7.44336 2.89575C7.77645 3.14092 7.84917 3.60994 7.60449 3.9436L5.46289 6.8645L8.9873 8.03832C9.21433 8.11424 9.39222 8.29458 9.46484 8.5227C9.53664 8.75052 9.4958 9.00091 9.35449 9.1936L6.60449 12.9436C6.3595 13.276 5.8901 13.3484 5.55664 13.1047C5.22316 12.8601 5.15186 12.3908 5.39551 12.0569L7.53711 9.13598L4.0127 7.96215C3.78602 7.88659 3.60825 7.70519 3.53516 7.47778C3.46266 7.24999 3.50465 6.99993 3.64551 6.80688L6.39551 3.05688ZM2.75 3.00024C3.1642 3.00024 3.49997 3.33605 3.5 3.75024C3.49879 4.16342 3.16346 4.50024 2.75 4.50024H2.25C1.8358 4.50024 1.50003 4.83605 1.5 5.25024V10.7502C1.50121 11.1634 1.83654 11.5002 2.25 11.5002H2.75C3.1642 11.5002 3.49997 11.8361 3.5 12.2502C3.49878 12.6634 3.16346 13.0002 2.75 13.0002H2.25C1.00811 13.0002 0.00121278 11.9918 0 10.7502V5.25024C2.94634e-05 4.00762 1.00738 3.00024 2.25 3.00024H2.75ZM10.75 3.00024C11.9926 3.00024 13 4.00762 13 5.25024V10.7502C12.9988 11.9918 11.9919 13.0002 10.75 13.0002H10.25C9.83654 13.0002 9.50121 12.6634 9.5 12.2502C9.50003 11.8361 9.8358 11.5002 10.25 11.5002H10.75C11.1635 11.5002 11.4988 11.1634 11.5 10.7502V5.25024C11.5 4.83605 11.1642 4.50024 10.75 4.50024H10.25C9.83654 4.50024 9.50121 4.16342 9.5 3.75024C9.50003 3.33605 9.8358 3.00024 10.25 3.00024H10.75ZM14.75 6.00024C15.1642 6.00024 15.5 6.33605 15.5 6.75024V9.25024C15.4988 9.66342 15.1635 10.0002 14.75 10.0002C14.3365 10.0002 14.0012 9.66342 14 9.25024V6.75024C14 6.33605 14.3358 6.00024 14.75 6.00024Z" fill="#000001"/>
</g>
</svg>
