<svg width="24" height="24" viewBox="0 0 24 24" fill="none" xmlns="http://www.w3.org/2000/svg">
<g id="size=24">
<g id="Path">
<path d="M13.0562 6.00319C13.3341 5.69604 13.3104 5.22176 13.0032 4.94385C12.696 4.66595 12.2218 4.68967 11.9439 4.99682L7.19386 10.2468C7.02186 10.4369 6.95888 10.7017 7.02687 10.9489C7.09487 11.1961 7.28441 11.3914 7.52945 11.4668L12.9575 13.137L8.92179 18.0223C8.65799 18.3417 8.70301 18.8144 9.02235 19.0782C9.34169 19.342 9.81443 19.297 10.0782 18.9777L14.8282 13.2277C14.9877 13.0346 15.0403 12.7747 14.9685 12.5349C14.8967 12.295 14.7099 12.1068 14.4706 12.0332L9.09654 10.3796L13.0562 6.00319Z" fill="#000001"/>
<path d="M3.75 6.5C3.05964 6.5 2.5 7.05964 2.5 7.75V16.25C2.5 16.9404 3.05964 17.5 3.75 17.5H6.25C6.66421 17.5 7 17.8358 7 18.25C7 18.6642 6.66421 19 6.25 19H3.75C2.23122 19 1 17.7688 1 16.25V7.75C1 6.23122 2.23122 5 3.75 5H8.25C8.66421 5 9 5.33579 9 5.75C9 6.16421 8.66421 6.5 8.25 6.5H3.75Z" fill="#000001"/>
<path d="M15 5.75C15 5.33579 15.3358 5 15.75 5H18.25C19.7688 5 21 6.23122 21 7.75V16.25C21 17.7688 19.7688 19 18.25 19H13.75C13.3358 19 13 18.6642 13 18.25C13 17.8358 13.3358 17.5 13.75 17.5H18.25C18.9404 17.5 19.5 16.9404 19.5 16.25V7.75C19.5 7.05964 18.9404 6.5 18.25 6.5H15.75C15.3358 6.5 15 6.16421 15 5.75Z" fill="#000001"/>
<path d="M22.75 10C23.1642 10 23.5 10.3358 23.5 10.75V13.25C23.5 13.6642 23.1642 14 22.75 14C22.3358 14 22 13.6642 22 13.25V10.75C22 10.3358 22.3358 10 22.75 10Z" fill="#000001"/>
</g>
</g>
</svg>
