<svg width="24" height="24" viewBox="0 0 24 24" fill="none" xmlns="http://www.w3.org/2000/svg">
<g id="size=24">
<path id="Path" fill-rule="evenodd" clip-rule="evenodd" d="M11.9443 4.99711C12.2221 4.69012 12.6958 4.66585 13.0029 4.94339C13.3099 5.22121 13.3342 5.69583 13.0566 6.00296L9.09668 10.3799L14.4707 12.0332C14.7099 12.1069 14.8969 12.2954 14.9688 12.5352C15.0403 12.7749 14.9875 13.0347 14.8281 13.2276L10.0781 18.9776C9.81434 19.2967 9.34175 19.3418 9.02246 19.0782C8.70319 18.8144 8.65826 18.3418 8.92188 18.0225L12.957 13.1368L7.5293 11.4668C7.28455 11.3915 7.09549 11.1961 7.02734 10.9493C6.95937 10.7021 7.02241 10.4372 7.19434 10.2471L11.9443 4.99711ZM8.25 5.00004C8.66421 5.00004 8.99999 5.33583 9 5.75004C8.99984 6.16411 8.66411 6.50004 8.25 6.50004H3.75C3.05965 6.50004 2.50001 7.05969 2.5 7.75004V16.25C2.50016 16.9403 3.05974 17.5 3.75 17.5H6.25C6.66421 17.5 6.99999 17.8358 7 18.25C6.99984 18.6641 6.66411 19 6.25 19H3.75C2.23132 19 1.00016 17.7687 1 16.25V7.75004C1.00001 6.23126 2.23122 5.00004 3.75 5.00004H8.25ZM18.25 5.00004C19.7688 5.00004 21 6.23126 21 7.75004V16.25C20.9998 17.7687 19.7687 19 18.25 19H13.75C13.3359 19 13.0002 18.6641 13 18.25C13 17.8358 13.3358 17.5 13.75 17.5H18.25C18.9403 17.5 19.4998 16.9403 19.5 16.25V7.75004C19.5 7.05969 18.9403 6.50004 18.25 6.50004H15.75C15.3359 6.50004 15.0002 6.16411 15 5.75004C15 5.33583 15.3358 5.00004 15.75 5.00004H18.25ZM22.75 10C23.1642 10 23.5 10.3358 23.5 10.75V13.25C23.4998 13.6641 23.1641 14 22.75 14C22.3359 14 22.0002 13.6641 22 13.25V10.75C22 10.3358 22.3358 10 22.75 10Z" fill="#000001"/>
</g>
</svg>
