<svg width="16" height="16" viewBox="0 0 16 16" fill="none" xmlns="http://www.w3.org/2000/svg">
<g id="size=16">
<path id="Path" fill-rule="evenodd" clip-rule="evenodd" d="M6.39551 3.05671C6.64047 2.72275 7.10936 2.65065 7.44336 2.89558C7.77652 3.14074 7.84919 3.60975 7.60449 3.94343L5.46289 6.86433L8.9873 8.03816C9.21435 8.11406 9.39221 8.29439 9.46484 8.52253C9.53671 8.75039 9.49583 9.0007 9.35449 9.19343L6.60449 12.9434C6.35951 13.276 5.89015 13.3483 5.55664 13.1046C5.22312 12.8599 5.15176 12.3906 5.39551 12.0567L7.53711 9.13581L4.0127 7.96199C3.78596 7.8864 3.60822 7.70509 3.53516 7.47761C3.46265 7.24978 3.50458 6.99978 3.64551 6.80671L6.39551 3.05671ZM2.75 3.00007C3.1642 3.00007 3.49997 3.33588 3.5 3.75007C3.49888 4.16333 3.16352 4.50007 2.75 4.50007H2.25C1.8358 4.50007 1.50003 4.83588 1.5 5.25007V10.7501C1.50112 11.1633 1.83648 11.5001 2.25 11.5001H2.75C3.1642 11.5001 3.49997 11.8359 3.5 12.2501C3.49887 12.6633 3.16352 13.0001 2.75 13.0001H2.25C1.00805 13.0001 0.00112296 11.9918 0 10.7501V5.25007C2.94634e-05 4.00746 1.00738 3.00007 2.25 3.00007H2.75ZM10.75 3.00007C11.9926 3.00007 13 4.00746 13 5.25007V10.7501C12.9989 11.9918 11.9919 13.0001 10.75 13.0001H10.25C9.83648 13.0001 9.50113 12.6633 9.5 12.2501C9.50003 11.8359 9.8358 11.5001 10.25 11.5001H10.75C11.1635 11.5001 11.4989 11.1633 11.5 10.7501V5.25007C11.5 4.83588 11.1642 4.50007 10.75 4.50007H10.25C9.83648 4.50007 9.50112 4.16333 9.5 3.75007C9.50003 3.33588 9.8358 3.00007 10.25 3.00007H10.75ZM14.75 6.00007C15.1642 6.00007 15.5 6.33588 15.5 6.75007V9.25007C15.4989 9.66333 15.1635 10.0001 14.75 10.0001C14.3365 10.0001 14.0011 9.66333 14 9.25007V6.75007C14 6.33588 14.3358 6.00007 14.75 6.00007Z" fill="#000001"/>
</g>
</svg>
