<svg width="24" height="24" viewBox="0 0 24 24" fill="none" xmlns="http://www.w3.org/2000/svg">
<g id="size=24">
<path id="Path" fill-rule="evenodd" clip-rule="evenodd" d="M17.2501 4C17.6641 4.00017 18.0001 4.33589 18.0001 4.75C18.0001 5.16411 17.6641 5.49983 17.2501 5.5H16.588L15.1465 8.38379C15.1113 8.45468 15.1116 8.53883 15.1475 8.60938L19.8038 17.7266C20.5682 19.2235 19.4807 20.9998 17.7999 21H6.20026C4.51963 20.9997 3.43214 19.2235 4.19635 17.7266L8.85163 8.60938C8.88773 8.53867 8.88806 8.45481 8.8526 8.38379L7.4112 5.5H6.75007C6.33605 5.49976 6.00007 5.16407 6.00007 4.75C6.00007 4.33593 6.33605 4.00024 6.75007 4H17.2501ZM5.53229 18.4092C5.27783 18.908 5.64031 19.4997 6.20026 19.5H17.7999C18.3599 19.4998 18.7223 18.908 18.4678 18.4092L15.961 13.5H8.03913L5.53229 18.4092ZM10.1944 7.71289C10.443 8.21021 10.4404 8.79584 10.1876 9.29102L8.80475 12H15.1954L13.8116 9.29102C13.5589 8.79601 13.5564 8.21004 13.8048 7.71289L14.9112 5.5H9.08796L10.1944 7.71289Z" fill="#000001"/>
</g>
</svg>
