<svg width="16" height="16" viewBox="0 0 16 16" fill="none" xmlns="http://www.w3.org/2000/svg">
<g id="size=16">
<path id="Path" fill-rule="evenodd" clip-rule="evenodd" d="M12.2502 2C12.6642 2.0003 13.0002 2.33597 13.0002 2.75C13.0002 3.16403 12.6642 3.4997 12.2502 3.5H11.8567L10.8693 5.65332C10.8399 5.71794 10.839 5.79333 10.8674 5.8584L13.8166 12.5439C14.3266 13.7005 13.48 14.9996 12.216 15H3.78439C2.52102 14.9992 1.6734 13.7001 2.18282 12.5439L5.13204 5.8584C5.16074 5.79309 5.16075 5.71819 5.13106 5.65332L4.14376 3.5H3.75021C3.33656 3.49933 3.00021 3.1638 3.00021 2.75C3.00021 2.3362 3.33656 2.00067 3.75021 2H12.2502ZM3.55587 13.1494C3.48365 13.3141 3.60465 13.4992 3.78439 13.5H12.216C12.3962 13.4996 12.517 13.3144 12.4445 13.1494L10.8342 9.5H5.16524L3.55587 13.1494ZM6.49435 5.02832C6.70276 5.48313 6.70686 6.00609 6.50509 6.46387L5.82735 8H10.1731L9.49532 6.46387C9.29368 6.00625 9.29686 5.48299 9.50509 5.02832L10.2063 3.5H5.79415L6.49435 5.02832Z" fill="#000001"/>
</g>
</svg>
