<svg width="16" height="16" viewBox="0 0 16 16" fill="none" xmlns="http://www.w3.org/2000/svg">
<g id="size=16">
<path id="Path" fill-rule="evenodd" clip-rule="evenodd" d="M12.2507 2C12.6646 2.0003 13.0007 2.33597 13.0007 2.75C13.0007 3.16403 12.6646 3.4997 12.2507 3.5H11.8571L10.8698 5.65332C10.8403 5.71801 10.8394 5.79326 10.8678 5.8584L13.8171 12.5439C14.3271 13.7005 13.4804 14.9996 12.2165 15H3.78484C2.52124 14.9994 1.67368 13.7003 2.18328 12.5439L5.1325 5.8584C5.1612 5.79309 5.16121 5.71819 5.13152 5.65332L4.14421 3.5H3.75066C3.33685 3.49952 3.00066 3.16392 3.00066 2.75C3.00066 2.33608 3.33685 2.00048 3.75066 2H12.2507ZM3.55632 13.1494C3.48394 13.3143 3.60487 13.4994 3.78484 13.5H12.2165C12.3967 13.4996 12.5175 13.3144 12.445 13.1494L10.8346 9.5H5.1657L3.55632 13.1494ZM6.4948 5.02832C6.70321 5.48313 6.70731 6.00609 6.50554 6.46387L5.82781 8H10.1735L9.49578 6.46387C9.29406 6.00617 9.29723 5.48307 9.50554 5.02832L10.2067 3.5H5.7946L6.4948 5.02832Z" fill="#000001"/>
</g>
</svg>
