<svg width="16" height="16" viewBox="0 0 16 16" fill="none" xmlns="http://www.w3.org/2000/svg">
<g id="size=16">
<path id="Path" fill-rule="evenodd" clip-rule="evenodd" d="M4.60802 2H3.75C3.33579 2 3 2.33579 3 2.75C3 3.16421 3.33579 3.5 3.75 3.5H4.14374L5.13083 5.65366C5.16062 5.71866 5.16116 5.79331 5.13229 5.85873L2.18307 12.5436C1.67274 13.7004 2.51984 15 3.78418 15H12.2158C13.4802 15 14.3273 13.7004 13.8169 12.5436L10.8677 5.85873C10.8389 5.79331 10.8394 5.71866 10.8692 5.65366L11.8563 3.5H12.25C12.6642 3.5 13 3.16421 13 2.75C13 2.33579 12.6642 2 12.25 2H11.392C11.381 1.99976 11.3699 1.99976 11.3589 2H4.64108C4.63008 1.99976 4.61906 1.99976 4.60802 2ZM10.2062 3.5H5.79378L6.49443 5.02868C6.70298 5.4837 6.70671 6.00624 6.50467 6.46419L5.82711 8H10.1729L9.49535 6.46419C9.29331 6.00624 9.29704 5.4837 9.50559 5.02868L10.2062 3.5ZM3.55545 13.1491L5.16534 9.5H10.8347L12.4446 13.1491C12.5175 13.3143 12.3965 13.5 12.2158 13.5H3.78418C3.60356 13.5 3.48255 13.3143 3.55545 13.1491Z" fill="#000001"/>
</g>
</svg>
