<svg width="24" height="24" viewBox="0 0 24 24" fill="none" xmlns="http://www.w3.org/2000/svg">
<g id="size=24">
<path id="Path" d="M13.5791 20.4141C13.7646 20.0437 14.2156 19.8937 14.5859 20.0791C14.9563 20.2646 15.1064 20.7156 14.9209 21.0859C14.3689 22.188 13.2957 23 12 23C10.7043 23 9.6311 22.188 9.0791 21.0859C8.89366 20.7156 9.04373 20.2646 9.41406 20.0791C9.78441 19.8936 10.2354 20.0437 10.4209 20.4141C10.7671 21.1053 11.3729 21.5 12 21.5C12.6271 21.5 13.2329 21.1053 13.5791 20.4141ZM1.21973 1.21973C1.51262 0.926833 1.98738 0.926833 2.28027 1.21973L22.7803 21.7197C23.0732 22.0126 23.0732 22.4874 22.7803 22.7803C22.4874 23.0732 22.0126 23.0732 21.7197 22.7803L16.9395 18H1.75C1.33579 18 1 17.6642 1 17.25C1 16.8358 1.33579 16.5 1.75 16.5C2.98101 16.5 3.9998 15.4546 4 14.1504V8.9834C4 7.84717 4.25667 6.75753 4.70996 5.77051L1.21973 2.28027C0.926833 1.98738 0.926833 1.51262 1.21973 1.21973ZM5.86035 6.9209C5.6272 7.57491 5.5 8.26948 5.5 8.9834V14.1504C5.49991 15.0227 5.21058 15.8428 4.71777 16.5H15.4395L5.86035 6.9209ZM12 1C16.2976 1 20 4.66518 20 8.9834V14.1504C20 14.323 20.0186 14.4912 20.0527 14.6533C20.1382 15.0585 19.8787 15.4563 19.4736 15.542C19.0683 15.6275 18.6704 15.3682 18.585 14.9629C18.5295 14.6999 18.5 14.4279 18.5 14.1504V8.9834C18.5 5.49995 15.4756 2.5 12 2.5C10.5997 2.5 9.26567 2.98718 8.16992 3.80957C7.83864 4.05818 7.36875 3.99046 7.12012 3.65918C6.87159 3.3279 6.93829 2.85798 7.26953 2.60938C8.60285 1.60876 10.2485 1 12 1Z" fill="#000001"/>
</g>
</svg>
