<svg width="24" height="24" viewBox="0 0 24 24" fill="none" xmlns="http://www.w3.org/2000/svg">
<g id="size=24">
<path id="Path" d="M13.5791 20.4141C13.7646 20.0437 14.2156 19.8937 14.5859 20.0791C14.9563 20.2646 15.1064 20.7156 14.9209 21.0859C14.3689 22.188 13.2957 23 12 23C10.7043 23 9.6311 22.188 9.0791 21.0859C8.89366 20.7156 9.04373 20.2646 9.41406 20.0791C9.78441 19.8936 10.2354 20.0437 10.4209 20.4141C10.7671 21.1053 11.3729 21.5 12 21.5C12.6271 21.5 13.2329 21.1053 13.5791 20.4141ZM12 1C12.6984 1 13.3809 1.09721 14.0332 1.27734C14.1527 1.31036 14.2712 1.34625 14.3887 1.38477C14.7823 1.51386 14.9973 1.93747 14.8682 2.33105C14.7391 2.72449 14.3153 2.9384 13.9219 2.80957C13.8267 2.77837 13.7304 2.74934 13.6338 2.72266C13.1073 2.57727 12.5592 2.5 12 2.5C8.52444 2.5 5.5 5.49995 5.5 8.9834V14.1504C5.49991 15.0227 5.21058 15.8428 4.71777 16.5H19.2822C18.7894 15.8428 18.5001 15.0227 18.5 14.1504V8.9834C18.5 8.68772 18.4785 8.39552 18.4365 8.1084C18.3767 7.69853 18.6604 7.31768 19.0703 7.25781C19.4801 7.1981 19.861 7.48182 19.9209 7.8916C19.9732 8.24947 20 8.61414 20 8.9834V14.1504C20.0002 15.4546 21.019 16.5 22.25 16.5C22.6642 16.5 23 16.8358 23 17.25C23 17.6642 22.6642 18 22.25 18H1.75C1.33579 18 1 17.6642 1 17.25C1 16.8358 1.33579 16.5 1.75 16.5C2.98101 16.5 3.9998 15.4546 4 14.1504V8.9834C4 4.66517 7.70238 1 12 1ZM18.5 1C19.8807 1 21 2.11929 21 3.5C21 4.88071 19.8807 6 18.5 6C17.1193 6 16 4.88071 16 3.5C16 2.11929 17.1193 1 18.5 1Z" fill="#000001"/>
</g>
</svg>
