<svg width="16" height="16" viewBox="0 0 16 16" fill="none" xmlns="http://www.w3.org/2000/svg">
<g id="size=16">
<path id="Path" d="M9.10254 12.8721C9.31146 12.5145 9.77034 12.3938 10.1279 12.6025C10.4855 12.8115 10.6062 13.2703 10.3975 13.6279C9.91791 14.4486 9.02264 15 8 15C6.97736 15 6.08209 14.4486 5.60254 13.6279C5.3938 13.2703 5.51454 12.8115 5.87207 12.6025C6.22966 12.3938 6.68854 12.5145 6.89746 12.8721C7.11658 13.2468 7.52719 13.5 8 13.5C8.47281 13.5 8.88342 13.2468 9.10254 12.8721ZM8 1C11.093 1 13 3.66552 13 6.40527V8.78027C13.0001 10.1137 13.7883 10.5 14.25 10.5C14.6642 10.5 15 10.8358 15 11.25C15 11.6642 14.6642 12 14.25 12H1.75C1.33579 12 1 11.6642 1 11.25C1 10.8358 1.33579 10.5 1.75 10.5C2.21167 10.5 2.99989 10.1137 3 8.78027V6.40527C3 3.66552 4.907 1 8 1ZM8 2.5C5.93769 2.5 4.5 4.27606 4.5 6.40527V8.78027C4.49996 9.45739 4.35506 10.0321 4.11328 10.5H11.8867C11.6449 10.0321 11.5 9.45739 11.5 8.78027V6.40527C11.5 4.27606 10.0623 2.5 8 2.5Z" fill="#000001"/>
</g>
</svg>
