<svg width="16" height="16" viewBox="0 0 16 16" fill="none" xmlns="http://www.w3.org/2000/svg">
<g id="size=16">
<g id="Path">
<path d="M14.25 10.5C13.7883 10.5 13 10.1136 13 8.78V6.7418C13 6.53433 12.9141 6.33613 12.7626 6.19433C12.6112 6.05253 12.4078 5.97979 12.2007 5.99342C12.1345 5.99778 12.0676 6 12 6C10.3431 6 9 4.65685 9 3C9 2.6551 9.0579 2.3253 9.16391 2.01883C9.23867 1.80267 9.21072 1.56421 9.08799 1.37121C8.96526 1.17821 8.76116 1.05176 8.5337 1.02779C8.35897 1.00938 8.18097 1 8 1C4.907 1 3 3.66524 3 6.405V8.78C3 10.1136 2.2117 10.5 1.75 10.5C1.33579 10.5 1 10.8358 1 11.25C1 11.6642 1.33579 12 1.75 12H14.25C14.6642 12 15 11.6642 15 11.25C15 10.8358 14.6642 10.5 14.25 10.5Z" fill="#000001"/>
<path d="M12 5C13.1046 5 14 4.10457 14 3C14 1.89543 13.1046 1 12 1C10.8954 1 10 1.89543 10 3C10 4.10457 10.8954 5 12 5Z" fill="#000001"/>
<path d="M6.89755 12.8716C6.68857 12.514 6.22925 12.3935 5.87161 12.6024C5.51398 12.8114 5.39347 13.2708 5.60245 13.6284C6.082 14.4491 6.97736 15 8 15C9.02264 15 9.918 14.4491 10.3976 13.6284C10.6065 13.2708 10.486 12.8114 10.1284 12.6024C9.77075 12.3935 9.31143 12.514 9.10245 12.8716C8.88337 13.2465 8.47294 13.5 8 13.5C7.52706 13.5 7.11663 13.2465 6.89755 12.8716Z" fill="#000001"/>
</g>
</g>
</svg>
