<svg width="24" height="24" viewBox="0 0 24 24" fill="none" xmlns="http://www.w3.org/2000/svg">
<g id="size=24">
<g id="Group">
<path id="Shape" fill-rule="evenodd" clip-rule="evenodd" d="M2.15298 3.22506C2.27507 3.0818 2.45401 2.99949 2.64227 3L21.3577 3.00334C21.546 3.00283 21.7249 3.08514 21.847 3.2284C21.9691 3.37165 22.022 3.56135 21.9916 3.74708L19.2894 20.4497C19.2388 20.7606 18.9706 20.9892 18.6555 20.99H5.57135C5.15383 20.984 4.79885 20.6836 4.72399 20.273L2.00841 3.74375C1.97801 3.55802 2.03088 3.36832 2.15298 3.22506ZM9.9184 14.9466H14.1052L15.116 9.04999H8.80414L9.9184 14.9466Z" fill="#2684FF"/>
<path id="Path" d="M21.1376 9.04999H15.1327L14.1319 14.9466H9.91837L5.01099 20.7899C5.1671 20.9239 5.36566 20.9984 5.57145 21H18.6556C18.9706 20.9992 19.2388 20.7706 19.2895 20.4597L21.1376 9.04999Z" fill="url(#paint0_linear)"/>
</g>
</g>
<defs>
<linearGradient id="paint0_linear" x1="17.2898" y1="7.01381" x2="10.3391" y2="16.8901" gradientUnits="userSpaceOnUse">
<stop offset="0.18" stop-color="#0052CC"/>
<stop offset="1" stop-color="#2684FF"/>
</linearGradient>
</defs>
</svg>
