<svg width="24" height="24" viewBox="0 0 24 24" fill="none" xmlns="http://www.w3.org/2000/svg">
<g id="size=24">
<path id="Subtract (Stroke)" fill-rule="evenodd" clip-rule="evenodd" d="M4 4.75C4 3.23122 5.23122 2 6.75 2H17.25C18.7688 2 20 3.23122 20 4.75V21.126C20 21.8385 19.276 22.3225 18.6176 22.05L12.0956 19.3512C12.0344 19.3259 11.9656 19.3259 11.9044 19.3512L5.38235 22.05C4.72396 22.3224 4 21.8385 4 21.126V4.75ZM11.75 7C11.3358 7 11 7.33579 11 7.75V10H8.75C8.33579 10 8 10.3358 8 10.75C8 11.1642 8.33579 11.5 8.75 11.5H11V13.75C11 14.1642 11.3358 14.5 11.75 14.5C12.1642 14.5 12.5 14.1642 12.5 13.75V11.5H14.75C15.1642 11.5 15.5 11.1642 15.5 10.75C15.5 10.3358 15.1642 10 14.75 10H12.5V7.75C12.5 7.33579 12.1642 7 11.75 7Z" fill="#000001"/>
</g>
</svg>
