<svg width="24" height="24" viewBox="0 0 24 24" fill="none" xmlns="http://www.w3.org/2000/svg">
<g id="size=24">
<path id="Path" fill-rule="evenodd" clip-rule="evenodd" d="M4 4.75C4 3.23122 5.23122 2 6.75 2H17.25C18.7688 2 20 3.23122 20 4.75V21.126C20 21.8385 19.276 22.3224 18.6176 22.05L12.0956 19.3512C12.0344 19.3259 11.9656 19.3259 11.9044 19.3512L5.38235 22.05C4.72397 22.3224 4 21.8385 4 21.126V4.75ZM6.75 3.5C6.05964 3.5 5.5 4.05964 5.5 4.75V20.378L11.3309 17.9652C11.7593 17.7879 12.2407 17.7879 12.6691 17.9652L18.5 20.378V4.75C18.5 4.05964 17.9404 3.5 17.25 3.5H6.75Z" fill="#000001"/>
</g>
</svg>
