<svg width="24" height="24" viewBox="0 0 24 24" fill="none" xmlns="http://www.w3.org/2000/svg">
<g id="size=24">
<path id="Path" d="M17.25 2C18.7688 2 20 3.23122 20 4.75V21.126C20 21.8385 19.2756 22.3222 18.6172 22.0498L12.0957 19.3516C12.0345 19.3262 11.9655 19.3262 11.9043 19.3516L5.38281 22.0498C4.72443 22.3222 4 21.8385 4 21.126V4.75C4 3.23122 5.23122 2 6.75 2H17.25ZM6.75 3.5C6.05964 3.5 5.5 4.05964 5.5 4.75V20.3779L11.3311 17.9648C11.7594 17.7877 12.2406 17.7877 12.6689 17.9648L18.5 20.3779V4.75C18.5 4.05964 17.9404 3.5 17.25 3.5H6.75ZM11.75 7C12.1642 7 12.5 7.33579 12.5 7.75V10H14.75C15.1642 10 15.5 10.3358 15.5 10.75C15.5 11.1642 15.1642 11.5 14.75 11.5H12.5V13.75C12.5 14.1642 12.1642 14.5 11.75 14.5C11.3358 14.5 11 14.1642 11 13.75V11.5H8.75C8.33579 11.5 8 11.1642 8 10.75C8 10.3358 8.33579 10 8.75 10H11V7.75C11 7.33579 11.3358 7 11.75 7Z" fill="#000001"/>
</g>
</svg>
