<svg width="24" height="24" viewBox="0 0 24 24" fill="none" xmlns="http://www.w3.org/2000/svg">
<g id="size=24">
<path id="Path" d="M20.25 20.5C20.6642 20.5 21 20.8358 21 21.25C21 21.6642 20.6642 22 20.25 22H3.75C3.33579 22 3 21.6642 3 21.25C3 20.8358 3.33579 20.5 3.75 20.5H20.25ZM12 2C12.4142 2 12.75 2.33579 12.75 2.75V15.3877L17.709 10.2305C17.996 9.93201 18.4709 9.92224 18.7695 10.209C19.068 10.496 19.0778 10.9709 18.791 11.2695L12.541 17.7695C12.3996 17.9166 12.204 18 12 18C11.796 18 11.6004 17.9166 11.459 17.7695L5.20898 11.2695C4.92224 10.9709 4.93201 10.496 5.23047 10.209C5.52907 9.92223 6.00403 9.93201 6.29102 10.2305L11.25 15.3877V2.75C11.25 2.33579 11.5858 2 12 2Z" fill="#000001"/>
</g>
</svg>
