<svg width="24" height="24" viewBox="0 0 24 24" fill="none" xmlns="http://www.w3.org/2000/svg">
<g id="size=24">
<g id="Path">
<path d="M11.75 2C12.1642 2 12.5 2.33579 12.5 2.75V15.3879L17.4594 10.2302C17.7465 9.93159 18.2213 9.92228 18.5198 10.2094C18.8184 10.4965 18.8277 10.9713 18.5406 11.2698L12.2906 17.7698C12.1492 17.9169 11.954 18 11.75 18C11.546 18 11.3508 17.9169 11.2094 17.7698L4.95938 11.2698C4.67228 10.9713 4.68159 10.4965 4.98017 10.2094C5.27875 9.92228 5.75353 9.93159 6.04063 10.2302L11 15.3879V2.75C11 2.33579 11.3358 2 11.75 2Z" fill="#000001"/>
<path d="M3.5 20.5C3.08579 20.5 2.75 20.8358 2.75 21.25C2.75 21.6642 3.08579 22 3.5 22H20C20.4142 22 20.75 21.6642 20.75 21.25C20.75 20.8358 20.4142 20.5 20 20.5H3.5Z" fill="#000001"/>
</g>
</g>
</svg>
