<svg width="24" height="24" viewBox="0 0 24 24" fill="none" xmlns="http://www.w3.org/2000/svg">
<g id="size=24">
<g id="Path">
<path d="M12 2C12.4142 2 12.75 2.33579 12.75 2.75V15.3879L17.7094 10.2302C17.9965 9.93159 18.4713 9.92228 18.7698 10.2094C19.0684 10.4965 19.0777 10.9713 18.7906 11.2698L12.5406 17.7698C12.3992 17.9169 12.204 18 12 18C11.796 18 11.6008 17.9169 11.4594 17.7698L5.20938 11.2698C4.92228 10.9713 4.93159 10.4965 5.23017 10.2094C5.52875 9.92228 6.00353 9.93159 6.29063 10.2302L11.25 15.3879V2.75C11.25 2.33579 11.5858 2 12 2Z" fill="#000001"/>
<path d="M3.75 20.5C3.33579 20.5 3 20.8358 3 21.25C3 21.6642 3.33579 22 3.75 22H20.25C20.6642 22 21 21.6642 21 21.25C21 20.8358 20.6642 20.5 20.25 20.5H3.75Z" fill="#000001"/>
</g>
</g>
</svg>
