<svg width="16" height="16" viewBox="0 0 16 16" fill="none" xmlns="http://www.w3.org/2000/svg">
<g id="size=16">
<path id="Path" d="M13.25 13.5C13.6642 13.5 14 13.8358 14 14.25C14 14.6642 13.6642 15 13.25 15H2.75C2.33579 15 2 14.6642 2 14.25C2 13.8358 2.33579 13.5 2.75 13.5H13.25ZM8 1C8.41421 1 8.75 1.33579 8.75 1.75V9.36328L11.7051 6.23535C11.9895 5.93421 12.4635 5.92067 12.7646 6.20508C13.0658 6.48949 13.0793 6.96351 12.7949 7.26465L8.54492 11.7646C8.53286 11.7774 8.52065 11.7899 8.50781 11.8018C8.37701 11.9221 8.20272 11.997 8.01172 12H7.98828C7.79043 11.9969 7.61079 11.9171 7.47852 11.7891L7.45312 11.7637L3.20508 7.26465C2.92067 6.96351 2.93421 6.48949 3.23535 6.20508C3.53649 5.92067 4.01051 5.93421 4.29492 6.23535L7.25 9.36328V1.75C7.25 1.33579 7.58579 1 8 1Z" fill="#000001"/>
</g>
</svg>
