<svg width="24" height="24" viewBox="0 0 24 24" fill="none" xmlns="http://www.w3.org/2000/svg">
<g id="size=24">
<path id="Path" fill-rule="evenodd" clip-rule="evenodd" d="M2 0C0.895431 0 0 0.89543 0 2V22C0 23.1046 0.89543 24 2 24H22C23.1046 24 24 23.1046 24 22V2C24 0.895431 23.1046 0 22 0H2ZM8.81047 19V17.9147H11.0595V17.2441H9.96902V16.1522H15.1177L12.726 12L15.1177 7.84646H9.84073V13.6063H7V5H16.775L18.4061 7.83202L16.0065 12L18.4545 16.252L16.8719 19H8.81047ZM9.24761 16.1522H8.15845V17.2441H9.24761V16.1522ZM8.08916 17.9068H7V18.9987H8.08916V17.9068Z" fill="#F24C53"/>
</g>
</svg>
