<svg width="16" height="16" viewBox="0 0 16 16" fill="none" xmlns="http://www.w3.org/2000/svg">
<g id="size=16">
<path id="Path" fill-rule="evenodd" clip-rule="evenodd" d="M6.97949 0.677622C7.62046 0.3516 8.37954 0.3516 9.02051 0.677622L14.3174 3.37391C14.7354 3.58707 14.9993 4.018 15 4.48719V11.204C14.9997 11.8617 14.6299 12.4649 14.0439 12.7636L9.02051 15.3212C8.37947 15.6473 7.62053 15.6473 6.97949 15.3212L1.95605 12.7636C1.37009 12.4649 1.00029 11.8617 1 11.204V4.48719C1.00072 4.018 1.26457 3.58707 1.68262 3.37391L6.97949 0.677622ZM2.5 11.204C2.50029 11.2975 2.55356 11.384 2.63672 11.4266L7.25 13.7753V7.96278L2.5 5.58778V11.204ZM8.75 7.96278V13.7753L13.3633 11.4266C13.4464 11.384 13.4997 11.2975 13.5 11.204V5.58778L8.75 7.96278ZM8.33984 2.01356C8.12669 1.90551 7.87331 1.90551 7.66016 2.01356L3.22363 4.27235L8 6.66004L12.7764 4.27235L8.33984 2.01356Z" fill="#000001"/>
</g>
</svg>
