<svg width="24" height="24" viewBox="0 0 24 24" fill="none" xmlns="http://www.w3.org/2000/svg">
<g id="size=24">
<path id="Path" fill-rule="evenodd" clip-rule="evenodd" d="M10.7939 0.753858C11.5548 0.382747 12.4452 0.382747 13.2061 0.753858L22.0176 5.05171C22.6187 5.34502 22.9999 5.95609 23 6.62495V16.5273C23 17.5591 22.4222 18.504 21.5039 18.9746L13.2539 23.2001C12.4668 23.6033 11.5332 23.6033 10.7461 23.2001L2.49609 18.9746C1.57784 18.504 1.00001 17.5591 1 16.5273V6.62495C1.00011 5.95609 1.38129 5.34502 1.98242 5.05171L10.7939 0.753858ZM2.5 16.5273C2.50001 16.9962 2.76253 17.4257 3.17969 17.6396L11.25 21.7734V11.4736L2.5 7.31733V16.5273ZM12.75 11.4746V21.7734L20.8203 17.6396C21.2375 17.4257 21.5 16.9962 21.5 16.5273V7.31831L12.75 11.4746ZM12.5479 2.10151C12.2022 1.93304 11.7978 1.93304 11.4521 2.10151L3.34277 6.05757L12 10.1699L20.6572 6.05757L12.5479 2.10151Z" fill="#000001"/>
</g>
</svg>
