<svg width="16" height="16" viewBox="0 0 16 16" fill="none" xmlns="http://www.w3.org/2000/svg">
<g id="size=16">
<path id="Path" fill-rule="evenodd" clip-rule="evenodd" d="M6.97949 0.677736C7.62047 0.351705 8.37953 0.351704 9.02051 0.677736L14.3174 3.37402C14.7354 3.58719 14.9993 4.01811 15 4.48731V11.2041C14.9997 11.8618 14.6299 12.465 14.0439 12.7637L9.02051 15.3213C8.37949 15.6474 7.62051 15.6474 6.97949 15.3213L1.95605 12.7637C1.37011 12.465 1.00032 11.8618 1 11.2041V4.48731C1.00071 4.01811 1.26458 3.58719 1.68262 3.37402L6.97949 0.677736ZM2.5 11.2041C2.50032 11.2975 2.55358 11.3841 2.63672 11.4268L7.25 13.7754V7.96289L2.5 5.58789V11.2041ZM8.75 7.96289V13.7754L13.3633 11.4268C13.4464 11.3841 13.4997 11.2975 13.5 11.2041V5.58789L8.75 7.96289ZM8.33984 2.01367C8.12668 1.90561 7.87332 1.90561 7.66016 2.01367L3.22363 4.27246L8 6.66016L12.7764 4.27246L8.33984 2.01367Z" fill="#000001"/>
</g>
</svg>
