<svg width="16" height="16" viewBox="0 0 16 16" fill="none" xmlns="http://www.w3.org/2000/svg">
<g id="size=16">
<path id="Path" fill-rule="evenodd" clip-rule="evenodd" d="M6.97921 0.678049C7.62057 0.351539 8.37943 0.351539 9.02079 0.678049L14.3171 3.37436C14.7361 3.58768 15 4.01811 15 4.48831V11.2051C15 11.8634 14.6306 12.466 14.0439 12.7647L9.02079 15.3219C8.37943 15.6484 7.62057 15.6484 6.97921 15.3219L1.95605 12.7647C1.36941 12.466 1 11.8634 1 11.2051V4.48831C1 4.01811 1.26387 3.58768 1.6829 3.37436L6.97921 0.678049ZM8.34026 2.01479C8.12648 1.90596 7.87352 1.90596 7.65974 2.01479L3.22368 4.27315L8.00004 6.66133L12.7764 4.27317L8.34026 2.01479ZM2.5 11.2051V5.58836L7.25 7.96336V13.7766L2.63658 11.4279C2.55277 11.3852 2.5 11.2992 2.5 11.2051ZM8.75 13.7766L13.3634 11.4279C13.4472 11.3852 13.5 11.2992 13.5 11.2051V5.58841L8.75 7.96341V13.7766Z" fill="#000001"/>
</g>
</svg>
