<svg width="24" height="24" viewBox="0 0 24 24" fill="none" xmlns="http://www.w3.org/2000/svg">
<g id="size=24">
<g id="Path">
<path d="M10.1337 5.86323C10.178 5.80855 10.2216 5.75318 10.266 5.6985C11.3809 4.29302 12.772 4.05539 14.2574 5.07392C14.758 5.4174 15.2286 5.83729 15.6141 6.30135C17.372 8.41832 19.0956 10.5619 20.8285 12.6985C21.3269 13.314 21.7589 13.9666 21.937 14.751C22.1415 15.6525 21.8476 16.385 21.141 16.9633C20.35 17.6103 19.4024 17.8985 18.4061 18.0716C15.4103 18.5924 12.4158 19.1245 9.41919 19.6432C8.63535 19.7785 7.84651 19.8843 7.05767 19.9902C6.87315 20.0147 6.68148 19.9839 6.49268 19.9783C7.33015 19.8822 8.011 19.4617 8.6282 18.9415C9.50072 18.2055 10.3525 17.4463 11.2064 16.69C11.672 16.2778 12.124 15.8516 12.5817 15.4317C14.0178 16.7425 16.0582 16.8063 17.141 15.6055C16.8177 15.2803 16.4959 14.9571 16.1726 14.6326C15.1506 15.2256 14.3475 15.1842 13.6995 14.5001C13.9541 14.2765 14.213 14.0564 14.4634 13.8271C15.082 13.2593 15.7614 12.7434 16.1519 11.9758C16.4752 11.6337 16.7984 11.2924 17.1317 10.9391L16.7069 10.6145C16.8485 10.086 16.7176 9.59528 16.4487 9.14314C15.9502 8.30476 15.1335 7.85263 14.256 7.49723C12.8864 6.94205 11.5089 6.40579 10.1344 5.86183L10.1337 5.86323Z" fill="#662FFE"/>
<path d="M4.53765 18.8691C4.05061 18.2109 3.84106 17.4489 3.69945 16.6673C3.15306 13.6475 2.59951 10.6283 2.08386 7.60359C1.98517 7.02528 1.97587 6.41262 2.04524 5.8301C2.1847 4.67067 2.95209 4.00403 4.14072 3.99983C4.71644 3.99772 5.32649 4.04259 5.86144 4.22975C7.27893 4.72605 8.66352 5.31207 10.061 5.86234C10.0395 5.92824 10.0259 5.99834 9.99447 6.05932C9.54605 6.92013 9.08619 7.77604 8.64778 8.64175C8.3846 9.16188 8.15431 9.69744 7.90972 10.2267C7.63223 10.3458 7.35474 10.4657 7.02933 10.6052V7.72697H5.56178V8.09498C5.56178 9.64557 5.53818 11.1961 5.57394 12.7453C5.58753 13.3313 5.73557 13.9146 5.82211 14.4985C5.77634 14.53 5.70625 14.5511 5.68765 14.5938C5.3272 15.4112 4.95817 16.225 4.62204 17.0515C4.38245 17.6403 4.48329 18.2593 4.53765 18.8691Z" fill="#062982"/>
<path d="M7.90972 10.2267C8.15431 9.69744 8.3846 9.16188 8.64778 8.64175C9.08619 7.77604 9.54605 6.92013 9.99447 6.05932C10.0259 5.99834 10.0395 5.92824 10.061 5.86234C10.0853 5.86234 10.1093 5.86323 10.1337 5.86323C11.5082 6.4072 12.8857 6.94344 14.2552 7.49862C15.1328 7.85402 15.9495 8.30616 16.448 9.14453C16.7169 9.59667 16.8478 10.0874 16.7062 10.6159C16.6432 10.5837 16.5788 10.5521 16.5166 10.5192C14.9275 9.68009 12.9765 10.2542 12.1254 11.8139C12.0389 11.973 11.9659 12.1391 11.8751 12.327C11.5032 11.3477 10.8553 10.6741 9.88119 10.3173C9.23395 10.0796 8.57384 10.1126 7.91016 10.2283L7.90972 10.2267Z" fill="#01147D"/>
<path d="M4.53765 18.8691C4.48329 18.2593 4.38245 17.6403 4.62204 17.0515C4.95817 16.225 5.3272 15.4112 5.68765 14.5938C5.70625 14.5511 5.77634 14.53 5.82211 14.4985C6.71966 16.4935 9.08375 17.0131 10.7086 15.8411C11.2593 15.4436 11.6284 14.9151 11.8544 14.3206C12.0968 14.6921 12.3385 15.0623 12.581 15.4324C12.1233 15.8523 11.6706 16.2785 11.2057 16.6906C10.3518 17.447 9.49999 18.2062 8.62747 18.9422C8.01027 19.4623 7.32942 19.8829 6.49194 19.979C5.63015 19.9664 4.95603 19.6332 4.53765 18.8691Z" fill="#01147D"/>
<path d="M13.6995 14.5001C13.0795 13.8951 13.0089 12.9278 13.5359 12.2471C14.0809 11.5433 15.0629 11.3323 15.8295 11.7585C15.9425 11.8216 16.0446 11.9029 16.1519 11.9758C15.7614 12.7434 15.082 13.2593 14.4634 13.8271C14.2138 14.0564 13.9549 14.2758 13.6995 14.5001Z" fill="#02157E"/>
<path d="M8.7505 11.5454C9.7539 11.5237 10.5585 12.2758 10.5771 13.2523C10.5957 14.2281 9.81827 15.0335 8.83704 15.0538C7.84437 15.0742 7.00547 14.2757 6.99688 13.3021C6.98902 12.3586 7.78001 11.5664 8.7505 11.5454Z" fill="#02157E"/>
</g>
</g>
</svg>
