<svg width="24" height="24" viewBox="0 0 24 24" fill="none" xmlns="http://www.w3.org/2000/svg">
<g id="size=24">
<g id="Union">
<path fill-rule="evenodd" clip-rule="evenodd" d="M5.68736 14.5946C5.70014 14.5653 5.73724 14.5458 5.77405 14.5265C5.7908 14.5177 5.8075 14.509 5.82182 14.4993C6.71937 16.4943 9.08375 17.013 10.7086 15.841C11.2593 15.4435 11.6284 14.915 11.8544 14.3206C12.0968 14.6921 12.3385 15.0622 12.581 15.4323C12.4427 15.5592 12.3048 15.6866 12.167 15.8141C11.852 16.1054 11.5369 16.3967 11.2161 16.6814C11.5369 16.3971 11.8513 16.1063 12.1656 15.8155C12.3042 15.6873 12.442 15.5599 12.581 15.4323C14.0171 16.7432 16.0582 16.8063 17.141 15.6055C16.8177 15.2802 16.4959 14.9571 16.1726 14.6325C15.1507 15.2255 14.3476 15.1842 13.6997 14.5002C13.0796 13.8952 13.0089 12.9277 13.5359 12.2471C14.0809 11.5433 15.0629 11.3323 15.8295 11.7585C15.9055 11.8009 15.9763 11.8519 16.0472 11.9029C16.0817 11.9277 16.1162 11.9526 16.1514 11.9765L16.4872 11.6211C16.6996 11.3965 16.9135 11.1703 17.1317 10.939L16.7069 10.6145C16.8485 10.0859 16.7176 9.59525 16.4487 9.14311C15.9502 8.30473 15.1335 7.8526 14.256 7.4972C13.2786 7.10101 12.2972 6.71446 11.3158 6.32787C10.922 6.17278 10.5282 6.01765 10.1347 5.86193C10.1565 5.83501 10.1782 5.80792 10.1998 5.78083C10.2218 5.75332 10.2438 5.72581 10.266 5.69847C11.3809 4.29299 12.772 4.05536 14.2574 5.07389C14.758 5.41737 15.2286 5.83726 15.6141 6.30132C17.0005 7.97097 18.3656 9.6572 19.7308 11.3435C20.0965 11.7953 20.4623 12.247 20.8285 12.6985C21.3269 13.314 21.7589 13.9666 21.937 14.751C22.1415 15.6525 21.8476 16.385 21.141 16.9633C20.35 17.6103 19.4024 17.8984 18.4061 18.0716C17.0408 18.3089 15.6758 18.5486 14.3108 18.7883L14.3095 18.7885C12.6797 19.0747 11.0497 19.3609 9.41919 19.6432C8.63535 19.7785 7.84651 19.8843 7.05767 19.9902C6.93096 20.007 6.80088 19.9977 6.67066 19.9885C6.61259 19.9843 6.55448 19.9802 6.49664 19.9784L6.49194 19.9789C5.63015 19.9663 4.95645 19.634 4.53807 18.87L4.53735 18.8693C4.05056 18.2111 3.84103 17.4488 3.69945 16.6673C3.61344 16.1919 3.52724 15.7166 3.44105 15.2412L3.44084 15.24C2.97958 12.696 2.51827 10.1518 2.08386 7.60359C1.98517 7.02528 1.97587 6.41262 2.04524 5.8301C2.1847 4.67067 2.95209 4.00403 4.14072 3.99983C4.71644 3.99772 5.32649 4.04259 5.86144 4.22975C6.87573 4.58488 7.87317 4.98594 8.87053 5.38698C9.267 5.5464 9.66349 5.70583 10.061 5.86234C10.0544 5.88254 10.0486 5.90312 10.0427 5.92372C10.0295 5.97031 10.0163 6.01705 9.99447 6.05932C9.83973 6.35636 9.68364 6.65281 9.52753 6.94928C9.23124 7.51198 8.93491 8.07476 8.64778 8.64175C8.46377 9.00541 8.29584 9.37661 8.12786 9.74791C8.05561 9.90764 7.98328 10.0675 7.90972 10.2267L7.56341 10.3756C7.39546 10.4479 7.22068 10.5232 7.02933 10.6052V7.72697H5.56178V8.09498C5.56178 8.53613 5.55987 8.97727 5.55796 9.41839C5.55316 10.5277 5.54836 11.6369 5.57394 12.7453C5.58327 13.1476 5.65596 13.5486 5.72862 13.9494C5.7618 14.1324 5.79469 14.3162 5.82182 14.4993C5.80703 14.5095 5.78999 14.5178 5.77268 14.5269C5.73642 14.5459 5.69995 14.5657 5.68736 14.5946Z" fill="#000001"/>
<path d="M8.13264 9.73958C8.29917 9.37151 8.4658 9.00321 8.64822 8.64269C8.93535 8.0757 9.23168 7.51293 9.52797 6.95022C9.68407 6.65375 9.84017 6.3573 9.99491 6.06026C10.0167 6.01799 10.0299 5.97134 10.0431 5.92474C10.049 5.90412 10.0548 5.8835 10.0614 5.86328L10.1337 5.8632C10.5272 6.01892 10.9209 6.17409 11.3146 6.32917C12.2961 6.71578 13.2778 7.10248 14.2552 7.49868C15.1328 7.85408 15.9495 8.30622 16.448 9.1446C16.7169 9.59673 16.8478 10.0874 16.7062 10.616C16.6832 10.6042 16.6601 10.5926 16.637 10.5809C16.5966 10.5606 16.5562 10.5402 16.5166 10.5192C14.9275 9.68015 12.9765 10.2543 12.1254 11.8139C12.0659 11.9235 12.0127 12.0363 11.9558 12.1573C11.93 12.212 11.9034 12.2686 11.8751 12.3271C11.5032 11.3478 10.8553 10.6741 9.88119 10.3173C9.23395 10.0797 8.57384 10.1127 7.91016 10.2283C7.98519 10.0662 8.05893 9.90249 8.13264 9.73958Z" fill="#000001"/>
<path d="M10.5771 13.2523C10.5585 12.2758 9.7539 11.5236 8.7505 11.5454C7.78001 11.5664 6.98902 12.3585 6.99688 13.302C7.00547 14.2757 7.84437 15.0741 8.83704 15.0538C9.81827 15.0335 10.5957 14.2281 10.5771 13.2523Z" fill="#000001"/>
</g>
</g>
</svg>
