<svg width="16" height="16" viewBox="0 0 16 16" fill="none" xmlns="http://www.w3.org/2000/svg">
<g id="size=16">
<g id="Group">
<path id="Vector" d="M6.69371 3.28097C6.72474 3.24338 6.75528 3.2053 6.78632 3.16771C7.5668 2.20145 8.54051 2.03807 9.58031 2.73831C9.93075 2.97446 10.2602 3.26313 10.53 3.58217C11.7605 5.03759 12.967 6.51133 14.1801 7.98024C14.529 8.40338 14.8314 8.85205 14.956 9.39133C15.0992 10.0111 14.8935 10.5147 14.3988 10.9123C13.8451 11.3571 13.1818 11.5552 12.4844 11.6742C10.3873 12.0323 8.2912 12.3981 6.19358 12.7547C5.64489 12.8477 5.0927 12.9205 4.54051 12.9933C4.41135 13.0101 4.27718 12.9889 4.14502 12.9851C4.73125 12.919 5.20785 12.6299 5.63989 12.2723C6.25065 11.7663 6.8469 11.2443 7.44464 10.7243C7.77055 10.441 8.08695 10.148 8.40735 9.85928C9.4126 10.7605 10.8409 10.8043 11.5988 9.9788C11.3726 9.75518 11.1473 9.53301 10.921 9.30988C10.2056 9.71759 9.64339 9.68916 9.18983 9.2188C9.36805 9.06506 9.54927 8.91374 9.72449 8.75615C10.1575 8.36579 10.6331 8.01109 10.9065 7.48338C11.1328 7.24819 11.359 7.0135 11.5923 6.7706L11.295 6.54747C11.3941 6.1841 11.3025 5.84675 11.1142 5.53591C10.7653 4.95952 10.1936 4.64868 9.57931 4.40434C8.62061 4.02265 7.65641 3.65398 6.69421 3.28L6.69371 3.28097Z" fill="#662FFE"/>
<path id="Vector_2" d="M2.77643 12.2225C2.4355 11.7699 2.28882 11.2461 2.18969 10.7087C1.80721 8.63258 1.41973 6.55691 1.05878 4.47739C0.989692 4.0798 0.983183 3.6586 1.03174 3.25812C1.12937 2.46101 1.66654 2.0027 2.49858 1.9998C2.90158 1.99836 3.32862 2.0292 3.70308 2.15788C4.69532 2.49908 5.66454 2.90197 6.64276 3.28029C6.62774 3.32559 6.61823 3.37378 6.5962 3.41571C6.28231 4.00751 5.9604 4.59595 5.65352 5.19113C5.46929 5.54872 5.30809 5.91691 5.13688 6.28077C4.94263 6.3627 4.74839 6.44511 4.52061 6.54101V4.56221H3.49332V4.81523C3.49332 5.88125 3.4768 6.94727 3.50183 8.01233C3.51134 8.41523 3.61497 8.81619 3.67555 9.21764C3.64351 9.23932 3.59445 9.25378 3.58143 9.28318C3.32912 9.84511 3.07079 10.4046 2.8355 10.9728C2.66779 11.3776 2.73838 11.8027 2.77643 12.222V12.2225Z" fill="#062982"/>
<path id="Vector_3" d="M5.13721 6.28149C5.30842 5.91811 5.46962 5.54944 5.65385 5.19185C5.96074 4.59667 6.28264 4.00823 6.59653 3.41643C6.61856 3.3745 6.62807 3.32631 6.64309 3.28101C6.66011 3.28101 6.67663 3.28101 6.69365 3.28101C7.65586 3.65498 8.62006 4.02366 9.57876 4.40534C10.193 4.64968 10.7647 4.96052 11.1137 5.53691C11.3019 5.84775 11.3935 6.1851 11.2944 6.54848C11.2503 6.52631 11.2053 6.50462 11.1617 6.48197C10.0493 5.9051 8.68364 6.2998 8.0879 7.37209C8.02732 7.48149 7.97626 7.5957 7.91268 7.72486C7.65235 7.05161 7.19878 6.58848 6.51693 6.34317C6.06387 6.1798 5.60179 6.20245 5.13721 6.28197V6.28149Z" fill="#01147D"/>
<path id="Vector_4" d="M2.7762 12.2227C2.73815 11.8034 2.66756 11.3784 2.83527 10.9735C3.07057 10.4053 3.32889 9.84534 3.5812 9.28389C3.59422 9.2545 3.64328 9.23956 3.67532 9.21835C4.30361 10.5899 5.95868 10.9465 7.0961 10.1408C7.48158 9.86751 7.7399 9.50413 7.8981 9.09546C8.06781 9.35088 8.23702 9.60534 8.40674 9.8598C8.08634 10.1485 7.76944 10.4415 7.44403 10.7249C6.84629 11.2449 6.25004 11.7668 5.63928 12.2728C5.20724 12.6304 4.73064 12.9196 4.14441 12.9856C3.54115 12.9769 3.06956 12.7485 2.7767 12.2232L2.7762 12.2227Z" fill="#01147D"/>
<path id="Vector_5" d="M9.18918 9.21928C8.75514 8.80337 8.70608 8.13783 9.07504 7.66988C9.45652 7.18602 10.1439 7.04096 10.6805 7.33398C10.7596 7.37735 10.8307 7.43374 10.9058 7.48386C10.6325 8.01157 10.1569 8.36627 9.72385 8.75663C9.54913 8.91422 9.36791 9.06506 9.18918 9.21928Z" fill="#02157E"/>
<path id="Vector_6" d="M5.72538 7.18749C6.42776 7.17255 6.99096 7.68966 7.00398 8.36099C7.01699 9.03183 6.47281 9.58557 5.78595 9.59954C5.09108 9.61352 4.50385 9.0646 4.49784 8.3952C4.49234 7.74653 5.04603 7.20147 5.72538 7.18701V7.18749Z" fill="#02157E"/>
</g>
</g>
</svg>
