<svg width="16" height="16" viewBox="0 0 16 16" fill="none" xmlns="http://www.w3.org/2000/svg">
<g id="size=16">
<path id="Exclude" fill-rule="evenodd" clip-rule="evenodd" d="M9.7099 8.76925C9.59258 8.87434 9.47268 8.97674 9.35291 9.07904C9.29844 9.12557 9.24399 9.17207 9.18983 9.2188C9.64339 9.68916 10.2056 9.71759 10.921 9.30988C11.1473 9.53301 11.3726 9.75518 11.5988 9.9788C10.8409 10.8043 9.4126 10.7605 8.40735 9.85928C8.31007 9.94693 8.21316 10.035 8.11624 10.123C7.89401 10.3249 7.67153 10.5271 7.44464 10.7243C7.67172 10.5266 7.89404 10.3247 8.11691 10.1223C8.21342 10.0347 8.31053 9.94651 8.40735 9.85928C8.23764 9.60482 8.06781 9.35088 7.8981 9.09546C7.7399 9.50413 7.48158 9.86751 7.0961 10.1408C5.95868 10.9465 4.30361 10.5899 3.67532 9.21835C3.6653 9.22498 3.65361 9.231 3.64189 9.23704C3.61612 9.25031 3.59015 9.26369 3.5812 9.28389C3.53088 9.39586 3.48032 9.50778 3.42976 9.61971L3.36016 9.77382L3.42313 9.63435C3.47595 9.51741 3.52865 9.40094 3.5812 9.28389C3.59015 9.26369 3.61612 9.25031 3.64189 9.23704C3.65361 9.231 3.6653 9.22498 3.67532 9.21835C3.65633 9.0925 3.63334 8.96599 3.61011 8.84016C3.55925 8.56461 3.50836 8.28892 3.50183 8.01233C3.48392 7.25029 3.48728 6.48774 3.49065 5.72506C3.49198 5.42183 3.49332 5.11848 3.49332 4.81523V4.56221H4.52061V6.54101C4.65447 6.48465 4.77675 6.43295 4.89425 6.38327L5.13688 6.28077C5.18838 6.1713 5.23899 6.06145 5.28958 5.95161C5.40717 5.69633 5.52472 5.44114 5.65352 5.19113C5.85447 4.8014 6.06186 4.41456 6.26923 4.02777C6.3785 3.82395 6.48789 3.61992 6.5962 3.41571C6.61147 3.38665 6.62072 3.35457 6.62997 3.32254C6.63406 3.30836 6.63815 3.29419 6.64276 3.28029C6.3645 3.17268 6.08698 3.06308 5.80945 2.95347C5.11129 2.67776 4.41308 2.40203 3.70308 2.15788C3.32862 2.0292 2.90158 1.99836 2.49858 1.9998C1.66654 2.0027 1.12937 2.46101 1.03174 3.25812C0.983183 3.6586 0.989692 4.0798 1.05878 4.47739C1.36286 6.22926 1.68577 7.97839 2.00865 9.72738L2.18969 10.7087C2.28879 11.2459 2.4357 11.77 2.77643 12.2225C3.06929 12.7478 3.54115 12.9769 4.14441 12.9856L4.14813 12.9852C4.18851 12.9864 4.22907 12.9893 4.26961 12.9921C4.36076 12.9985 4.45182 13.0048 4.54051 12.9933C5.0927 12.9205 5.64489 12.8477 6.19358 12.7547C7.33467 12.5607 8.47531 12.364 9.6159 12.1673L9.61776 12.167C10.5733 12.0022 11.5288 11.8374 12.4844 11.6742C13.1818 11.5552 13.8451 11.3571 14.3988 10.9123C14.8935 10.5147 15.0992 10.0111 14.956 9.39133C14.8314 8.85205 14.529 8.40338 14.1801 7.98024C13.924 7.67016 13.6682 7.35987 13.4125 7.04957L13.4117 7.04868C12.4561 5.88939 11.5005 4.73002 10.53 3.58217C10.2602 3.26313 9.93075 2.97446 9.58031 2.73831C8.54051 2.03807 7.5668 2.20145 6.78632 3.16771C6.7708 3.18651 6.75541 3.20542 6.74001 3.22434C6.72486 3.24296 6.7097 3.26158 6.69443 3.28009C6.96963 3.38705 7.24499 3.49358 7.52035 3.6001C8.20741 3.86589 8.89513 4.13195 9.57931 4.40434C10.1936 4.64868 10.7653 4.95952 11.1142 5.53591C11.3025 5.84675 11.3941 6.1841 11.295 6.54747L11.5923 6.7706C11.4396 6.92962 11.2899 7.08513 11.1412 7.23956L10.9065 7.48338C10.6802 7.92012 10.3155 8.23836 9.95097 8.55639C9.87509 8.6226 9.79911 8.68889 9.72449 8.75615L9.7099 8.76925ZM9.7099 8.76925L9.72449 8.75615C9.79911 8.68889 9.87509 8.6226 9.95097 8.55639C10.3155 8.23836 10.6802 7.92012 10.9065 7.48338C10.8819 7.46696 10.8571 7.45041 10.8329 7.43333C10.7833 7.39825 10.7337 7.3632 10.6805 7.33404C10.1439 7.04103 9.45652 7.18609 9.07504 7.66994C8.70608 8.13789 8.75578 8.80289 9.18983 9.2188C9.24504 9.17116 9.29984 9.12438 9.35527 9.07709C9.47439 8.97543 9.59366 8.87365 9.7099 8.76925ZM4.14813 12.9852C4.73266 12.9183 5.20815 12.6296 5.63928 12.2728C5.20724 12.6304 4.73064 12.9196 4.14441 12.9856L4.14813 12.9852ZM7.25878 10.8861L7.26151 10.8837C7.0099 11.1027 6.75883 11.3213 6.50598 11.539C6.75772 11.3223 7.00828 11.1041 7.25878 10.8861ZM5.13688 6.28077C5.18941 6.16927 5.24134 6.05799 5.29294 5.94597C5.40952 5.69291 5.52582 5.439 5.65352 5.19113C5.85447 4.8014 6.06186 4.41456 6.26923 4.02777C6.3785 3.82395 6.48789 3.61992 6.5962 3.41571C6.61147 3.38665 6.62072 3.35457 6.62997 3.32254C6.63406 3.30836 6.63815 3.29419 6.64276 3.28029L6.69371 3.28097C6.96912 3.38801 7.24464 3.49466 7.52021 3.60126C8.20726 3.86705 8.89459 4.13295 9.57876 4.40534C10.193 4.64968 10.7647 4.96052 11.1137 5.53691C11.3019 5.84775 11.3935 6.1851 11.2944 6.54848L11.246 6.52438C11.2177 6.51038 11.1894 6.49637 11.1617 6.48197C10.0493 5.9051 8.68364 6.2998 8.0879 7.37209C8.0462 7.44738 8.00902 7.52496 7.96915 7.60812C7.9511 7.64579 7.9325 7.6846 7.91268 7.72486C7.65235 7.05161 7.19878 6.58848 6.51693 6.34317C6.06387 6.1798 5.60179 6.20245 5.13721 6.28197L5.13688 6.28077ZM7.00398 8.36099C6.99096 7.68966 6.42776 7.17255 5.72538 7.18749C5.04603 7.20195 4.49234 7.74653 4.49784 8.3952C4.50385 9.0646 5.09108 9.61352 5.78595 9.59954C6.47281 9.58557 7.01699 9.03183 7.00398 8.36099Z" fill="#000001"/>
</g>
</svg>
