<svg width="24" height="24" viewBox="0 0 24 24" fill="none" xmlns="http://www.w3.org/2000/svg">
<g id="size=24">
<path id="Path" d="M14.25 2C15.7688 2 17 3.23122 17 4.75V6H20.25C21.7688 6 23 7.23122 23 8.75V19.25C23 20.7688 21.7688 22 20.25 22H3.75C2.23122 22 1 20.7688 1 19.25V8.75C1 7.23122 2.23122 6 3.75 6H7V4.75C7 3.23122 8.23122 2 9.75 2H14.25ZM3.75 7.5C3.05964 7.5 2.5 8.05964 2.5 8.75V19.25C2.5 19.9404 3.05964 20.5 3.75 20.5H6V7.5H3.75ZM7.5 20.5H16.5V7.5H7.5V20.5ZM18 20.5H20.25C20.9404 20.5 21.5 19.9404 21.5 19.25V8.75C21.5 8.05964 20.9404 7.5 20.25 7.5H18V20.5ZM9.75 3.5C9.05964 3.5 8.5 4.05964 8.5 4.75V6H15.5V4.75C15.5 4.05964 14.9404 3.5 14.25 3.5H9.75Z" fill="#000001"/>
</g>
</svg>
