<svg width="16" height="16" viewBox="0 0 16 16" fill="none" xmlns="http://www.w3.org/2000/svg">
<g id="size=16">
<path id="Path" d="M10.25 1C11.2165 1 12 1.7835 12 2.75V4H13.75C14.9926 4 16 5.00736 16 6.25V12.75C16 13.9926 14.9926 15 13.75 15H2.25C1.00736 15 0 13.9926 0 12.75V6.25C0 5.00736 1.00736 4 2.25 4H4V2.75C4 1.7835 4.7835 1 5.75 1H10.25ZM2.25 5.5C1.83579 5.5 1.5 5.83579 1.5 6.25V12.75C1.5 13.1642 1.83579 13.5 2.25 13.5H3.5V5.5H2.25ZM5 13.5H11V5.5H5V13.5ZM12.5 13.5H13.75C14.1642 13.5 14.5 13.1642 14.5 12.75V6.25C14.5 5.83579 14.1642 5.5 13.75 5.5H12.5V13.5ZM5.75 2.5C5.61193 2.5 5.5 2.61193 5.5 2.75V4H10.5V2.75C10.5 2.61193 10.3881 2.5 10.25 2.5H5.75Z" fill="#000001"/>
</g>
</svg>
