<svg width="24" height="24" viewBox="0 0 24 24" fill="none" xmlns="http://www.w3.org/2000/svg">
<g id="size=24">
<path id="Path" fill-rule="evenodd" clip-rule="evenodd" d="M9.75 2C8.23122 2 7 3.23122 7 4.75V6H3.75C2.23122 6 1 7.23122 1 8.75V19.25C1 20.7688 2.23122 22 3.75 22H20.25C21.7688 22 23 20.7688 23 19.25V8.75C23 7.23122 21.7688 6 20.25 6H17V4.75C17 3.23122 15.7688 2 14.25 2H9.75ZM16.5 7.5H7.5V20.5H16.5V7.5ZM18 20.5V7.5H20.25C20.9404 7.5 21.5 8.05964 21.5 8.75V19.25C21.5 19.9404 20.9404 20.5 20.25 20.5H18ZM3.75 7.5H6V20.5H3.75C3.05964 20.5 2.5 19.9404 2.5 19.25V8.75C2.5 8.05964 3.05964 7.5 3.75 7.5ZM15.5 6V4.75C15.5 4.05964 14.9404 3.5 14.25 3.5H9.75C9.05964 3.5 8.5 4.05964 8.5 4.75V6H15.5Z" fill="#000001"/>
</g>
</svg>
