<svg width="24" height="24" viewBox="0 0 24 24" fill="none" xmlns="http://www.w3.org/2000/svg">
<g id="size=24">
<path id="Path" fill-rule="evenodd" clip-rule="evenodd" d="M2.80595 11.4104C2.70008 11.4676 2.5789 11.5 2.45013 11.5C2.03592 11.5 1.70013 11.1642 1.70013 10.75C1.70013 8.37939 2.89701 5.94743 4.73422 4.12243C6.57831 2.2906 9.13683 1 11.9557 1C14.7726 1 17.3638 2.28886 19.2413 4.11721C21.1115 5.93851 22.35 8.37162 22.35 10.75C22.35 11.1642 22.0142 11.5 21.6 11.5C21.4539 11.5 21.3174 11.4582 21.2021 11.3859C21.1949 11.4077 21.1876 11.4295 21.1801 11.4513C20.5482 13.8224 20.1007 15.6885 19.7648 17.0892L19.7203 17.2746C19.3884 18.6581 19.1501 19.6508 18.9361 20.1532C18.7156 20.671 18.3032 21.0437 17.8399 21.312C17.3772 21.5799 16.8185 21.7708 16.2197 21.9095C15.0222 22.1868 13.5314 22.2852 12 22.2852C10.4687 22.2852 8.9771 22.1873 7.77878 21.9104C7.17951 21.7719 6.62037 21.5813 6.15726 21.3136C5.69361 21.0456 5.28061 20.6729 5.05997 20.1548C5.04511 20.1199 5.03292 20.084 5.0235 20.0472L2.81878 11.4482C2.81446 11.4356 2.81019 11.423 2.80595 11.4104ZM3.55839 8.68477C3.97787 7.44353 4.75005 6.22099 5.79133 5.18662C7.4066 3.5821 9.60087 2.5 11.9557 2.5C14.3125 2.5 16.5435 3.58385 18.1948 5.19184C19.2669 6.23591 20.0625 7.46881 20.4911 8.71695C19.9629 8.36595 19.2406 8.0739 18.3876 7.83752C16.6627 7.35946 14.3658 7.10001 12.0001 7.10001C9.63448 7.10001 7.33756 7.35946 5.61263 7.83752C4.78589 8.06664 4.08186 8.34806 3.55839 8.68477ZM19.667 9.97034C19.8201 10.0728 19.9035 10.1532 19.9487 10.2078C19.94 10.2638 19.9302 10.3196 19.9193 10.3753C19.8701 10.4275 19.7916 10.4963 19.667 10.5797C19.3249 10.8086 18.7696 11.0501 17.987 11.267C16.43 11.6985 14.2758 11.95 12.0001 11.95C9.72448 11.95 7.57021 11.6985 6.01324 11.267C5.23067 11.0501 4.67535 10.8086 4.33324 10.5797C4.20791 10.4958 4.12927 10.4267 4.08007 10.3744C4.06927 10.3192 4.05957 10.2639 4.05095 10.2085C4.09602 10.1538 4.1795 10.0732 4.33324 9.97034C4.67535 9.74144 5.23067 9.49991 6.01324 9.28303C7.57021 8.85153 9.72448 8.60001 12.0001 8.60001C14.2758 8.60001 16.43 8.85153 17.987 9.28303C18.7696 9.49991 19.3249 9.74144 19.667 9.97034ZM18.3876 12.7125C18.7439 12.6137 19.0775 12.5053 19.3836 12.3869C18.9247 14.16 18.5781 15.6053 18.3066 16.7375L18.2617 16.9247C17.9099 18.3909 17.7067 19.2118 17.5561 19.5655C17.5031 19.6898 17.3755 19.8476 17.0883 20.0139C16.8004 20.1806 16.398 20.3284 15.8812 20.4482C14.8473 20.6876 13.4884 20.7852 12 20.7852C10.5114 20.7852 9.1515 20.688 8.11649 20.4489C7.5991 20.3293 7.19614 20.1816 6.90796 20.015C6.65045 19.8661 6.5213 19.7242 6.45918 19.6071L4.607 12.3831C4.91574 12.503 5.25255 12.6127 5.61263 12.7125C7.33756 13.1905 9.63448 13.45 12.0001 13.45C14.3658 13.45 16.6627 13.1905 18.3876 12.7125Z" fill="#000001"/>
</g>
</svg>
