<svg width="16" height="16" viewBox="0 0 16 16" fill="none" xmlns="http://www.w3.org/2000/svg">
<g id="size=16">
<path id="Path" fill-rule="evenodd" clip-rule="evenodd" d="M1.61578 8.73161C1.56244 8.74365 1.50694 8.75 1.44995 8.75C1.03574 8.75 0.699951 8.41422 0.699951 8C0.699951 3.7927 3.9132 0.300003 7.97495 0.300003C12.0367 0.300003 15.25 3.7927 15.25 8C15.25 8.41422 14.9142 8.75 14.5 8.75C14.4848 8.75 14.4697 8.74955 14.4548 8.74866C14.3193 9.30064 14.102 10.1552 13.8821 10.9952C13.7138 11.6381 13.5405 12.2858 13.3948 12.805C13.2592 13.2885 13.1258 13.743 13.0407 13.9306C12.8538 14.3424 12.5118 14.6166 12.1681 14.8005C11.8216 14.986 11.412 15.1134 10.9863 15.2041C10.1341 15.3859 9.08408 15.4479 8.025 15.4479C6.96562 15.4479 5.9019 15.3858 5.03631 15.2047C4.60426 15.1144 4.1881 14.9877 3.83671 14.8036C3.49003 14.622 3.1383 14.3482 2.94885 13.9306C2.93006 13.8891 2.91508 13.8461 2.90409 13.802L2.69883 12.9804C2.5748 12.485 2.40809 11.821 2.23731 11.1461C2.06645 10.4709 1.89184 9.78602 1.7519 9.24847C1.70111 9.0534 1.65517 8.87877 1.61578 8.73161ZM2.42187 6.28808C3.11825 3.67327 5.36956 1.8 7.97495 1.8C10.5714 1.8 12.8162 3.66048 13.5208 6.26128C13.2039 6.11582 12.8356 5.99155 12.4331 5.88588C11.2277 5.56946 9.63378 5.39999 8 5.39999C6.36622 5.39999 4.77235 5.56946 3.56694 5.88588C3.13988 5.99798 2.75142 6.13101 2.42187 6.28808ZM12.4331 9.56411C12.5321 9.53811 12.6291 9.51098 12.7238 9.48268C12.6333 9.83708 12.5335 10.224 12.431 10.6154C12.2637 11.2545 12.0928 11.8927 11.9506 12.3998C11.8793 12.6538 11.8162 12.8713 11.765 13.038C11.7393 13.1215 11.7177 13.1888 11.7002 13.2399C11.6853 13.2836 11.6771 13.3046 11.6749 13.31L11.6744 13.3115C11.6708 13.3187 11.6334 13.3854 11.4603 13.478C11.2841 13.5723 11.024 13.6624 10.6734 13.7371C9.97331 13.8864 9.0453 13.9479 8.025 13.9479C7.00501 13.9479 6.06044 13.8865 5.34344 13.7365C4.98421 13.6614 4.7155 13.5706 4.53277 13.4749C4.4154 13.4134 4.35912 13.3636 4.33374 13.3356L4.15391 12.6161C4.0297 12.12 3.86267 11.4547 3.69148 10.7782C3.5823 10.3467 3.4713 9.91014 3.36856 9.5097C3.43368 9.52836 3.49983 9.5465 3.56694 9.56411C4.77235 9.88053 6.36622 10.05 8 10.05C9.63378 10.05 11.2277 9.88053 12.4331 9.56411ZM8 6.89999C6.45118 6.89999 4.99281 7.0624 3.94778 7.33672C3.46169 7.46432 3.12092 7.60175 2.90894 7.72499C3.12092 7.84824 3.46169 7.98567 3.94778 8.11326C4.99281 8.38758 6.45118 8.54999 8 8.54999C9.54882 8.54999 11.0072 8.38758 12.0522 8.11326C12.5383 7.98567 12.8791 7.84824 13.0911 7.72499C12.8791 7.60175 12.5383 7.46432 12.0522 7.33672C11.0072 7.0624 9.54882 6.89999 8 6.89999Z" fill="#000001"/>
</g>
</svg>
