<svg width="24" height="24" viewBox="0 0 24 24" fill="none" xmlns="http://www.w3.org/2000/svg">
<g id="size=24">
<path id="Path" d="M11.9561 1C14.7728 1.0001 17.3638 2.28893 19.2412 4.11719C21.1115 5.93849 22.3496 8.37162 22.3496 10.75C22.3496 11.1642 22.0138 11.5 21.5996 11.5C21.4536 11.4999 21.3174 11.458 21.2021 11.3857C21.1949 11.4076 21.1871 11.4294 21.1797 11.4512C20.5478 13.8221 20.1006 15.6882 19.7646 17.0889L19.7207 17.2744C19.3888 18.6578 19.1505 19.6509 18.9365 20.1533C18.7161 20.671 18.3031 21.0433 17.8398 21.3115C17.3771 21.5794 16.8185 21.7705 16.2197 21.9092C15.0223 22.1866 13.5314 22.2852 12 22.2852C10.4687 22.2852 8.97664 22.1871 7.77832 21.9102C7.17924 21.7717 6.62021 21.5811 6.15723 21.3135C5.69368 21.0455 5.28022 20.6732 5.05957 20.1553C5.04471 20.1204 5.03286 20.0836 5.02344 20.0469L2.81836 11.4482C2.81405 11.4357 2.80988 11.4227 2.80566 11.4102C2.69984 11.4673 2.57888 11.5 2.4502 11.5C2.03598 11.5 1.7002 11.1642 1.7002 10.75C1.7002 8.37939 2.89716 5.94707 4.73438 4.12207C6.57845 2.29038 9.13731 1 11.9561 1ZM6.45898 19.6074C6.52113 19.7245 6.6508 19.8659 6.9082 20.0146C7.19635 20.1812 7.59893 20.3297 8.11621 20.4492C9.15121 20.6884 10.5114 20.7852 12 20.7852C13.4883 20.7852 14.847 20.6877 15.8809 20.4482C16.3976 20.3286 16.8001 20.1803 17.0879 20.0137C17.3751 19.8474 17.5027 19.6897 17.5557 19.5654C17.7063 19.2118 17.91 18.3909 18.2617 16.9248L18.3066 16.7373C18.5782 15.6051 18.925 14.1598 19.3838 12.3867C19.0777 12.5051 18.744 12.6141 18.3877 12.7129C16.6628 13.1909 14.3656 13.4502 12 13.4502C9.6344 13.4502 7.3372 13.1909 5.6123 12.7129C5.2524 12.6131 4.91604 12.5026 4.60742 12.3828L6.45898 19.6074ZM12 8.59961C9.72457 8.59962 7.57058 8.85177 6.01367 9.2832C5.2311 9.50009 4.67512 9.7418 4.33301 9.9707C4.17947 10.0735 4.09582 10.1543 4.05078 10.209C4.05936 10.2641 4.06934 10.3191 4.08008 10.374C4.12928 10.4263 4.20767 10.4962 4.33301 10.5801C4.67512 10.809 5.23112 11.0497 6.01367 11.2666C7.57058 11.698 9.72455 11.9502 12 11.9502C14.2756 11.9502 16.4303 11.6981 17.9873 11.2666C18.7695 11.0498 19.3249 10.8089 19.667 10.5801C19.7916 10.4967 19.8697 10.4272 19.9189 10.375C19.9298 10.3194 19.9405 10.2638 19.9492 10.208C19.904 10.1534 19.82 10.0731 19.667 9.9707C19.3249 9.74184 18.7697 9.50006 17.9873 9.2832C16.4303 8.8517 14.2756 8.59961 12 8.59961ZM11.9561 2.5C9.60121 2.5 7.40628 3.582 5.79102 5.18652C4.74985 6.22079 3.97808 7.44346 3.55859 8.68457C4.08195 8.34798 4.78586 8.06696 5.6123 7.83789C7.3372 7.35985 9.6344 7.09962 12 7.09961C14.3656 7.09961 16.6628 7.35984 18.3877 7.83789C19.2406 8.07427 19.9631 8.36582 20.4912 8.7168C20.0626 7.46869 19.2664 6.23545 18.1943 5.19141C16.5432 3.58372 14.3125 2.5001 11.9561 2.5Z" fill="#000001"/>
</g>
</svg>
