<svg width="16" height="16" viewBox="0 0 16 16" fill="none" xmlns="http://www.w3.org/2000/svg">
<g id="size=16">
<path id="Path" d="M7.97461 0.299805C12.0364 0.299805 15.25 3.79269 15.25 8C15.25 8.4142 14.9142 8.74997 14.5 8.75C14.4849 8.75 14.4699 8.7499 14.4551 8.74902C14.3196 9.301 14.1017 10.1552 13.8818 10.9951C13.7136 11.6379 13.5402 12.2855 13.3945 12.8047C13.2589 13.2881 13.1261 13.743 13.041 13.9307C12.8542 14.3426 12.5116 14.6169 12.168 14.8008C11.8215 14.9862 11.4119 15.1133 10.9863 15.2041C10.1342 15.3858 9.08434 15.4482 8.02539 15.4482C6.96601 15.4482 5.90172 15.3862 5.03613 15.2051C4.6042 15.1147 4.18823 14.9877 3.83691 14.8037C3.49029 14.6221 3.13869 14.3482 2.94922 13.9307C2.93043 13.8892 2.91529 13.8459 2.9043 13.8018L2.69922 12.9805C2.57521 12.4852 2.40806 11.8213 2.2373 11.1465C2.06644 10.4712 1.8919 9.7856 1.75195 9.24805C1.70121 9.05313 1.65557 8.87852 1.61621 8.73145C1.56294 8.74347 1.50709 8.74998 1.4502 8.75C1.03598 8.75 0.700195 8.41421 0.700195 8C0.700197 3.79281 3.91302 0.300001 7.97461 0.299805ZM12.4326 9.56445C11.2273 9.88079 9.63355 10.0498 8 10.0498C6.36645 10.0498 4.77273 9.88079 3.56738 9.56445C3.50028 9.54684 3.43328 9.52843 3.36816 9.50977C3.47091 9.9102 3.58223 10.3469 3.69141 10.7783C3.86259 11.4548 4.0301 12.1202 4.1543 12.6162L4.33398 13.3359C4.3595 13.364 4.41625 13.4133 4.5332 13.4746C4.71593 13.5703 4.98466 13.6612 5.34375 13.7363C6.06071 13.8863 7.00552 13.9482 8.02539 13.9482C9.04554 13.9482 9.97378 13.8866 10.6738 13.7373C11.0241 13.6626 11.2838 13.5718 11.46 13.4775C11.6331 13.3849 11.6712 13.3188 11.6748 13.3115V13.3096C11.6771 13.3037 11.6856 13.2829 11.7002 13.2402C11.7176 13.1892 11.739 13.1215 11.7646 13.0381C11.8159 12.8714 11.8789 12.6534 11.9502 12.3994C12.0925 11.8923 12.2634 11.2542 12.4307 10.6152C12.5331 10.2239 12.6332 9.83681 12.7236 9.48242C12.629 9.51071 12.5317 9.53845 12.4326 9.56445ZM8 6.90039C6.45137 6.90039 4.99324 7.06266 3.94824 7.33691C3.46241 7.46444 3.12119 7.60142 2.90918 7.72461C3.12116 7.84785 3.46216 7.98568 3.94824 8.11328C4.99324 8.38753 6.4514 8.5498 8 8.5498C9.5486 8.5498 11.0068 8.38753 12.0518 8.11328C12.5378 7.98568 12.8788 7.84785 13.0908 7.72461C12.8788 7.60142 12.5376 7.46444 12.0518 7.33691C11.0068 7.06266 9.54863 6.90039 8 6.90039ZM7.97461 1.7998C5.36936 1.79997 3.11823 3.67339 2.42188 6.28809C2.75142 6.13102 3.14033 5.99784 3.56738 5.88574C4.77274 5.5694 6.36642 5.40039 8 5.40039C9.63358 5.40039 11.2273 5.5694 12.4326 5.88574C12.8351 5.9914 13.2036 6.11627 13.5205 6.26172C12.8159 3.66091 10.5711 1.7998 7.97461 1.7998Z" fill="#000001"/>
</g>
</svg>
