<svg width="16" height="16" viewBox="0 0 16 16" fill="none" xmlns="http://www.w3.org/2000/svg">
<g id="size=16">
<path id="Path" fill-rule="evenodd" clip-rule="evenodd" d="M10.1367 0.802983C10.4296 0.51009 10.9044 0.51009 11.1973 0.802983C11.4902 1.09588 11.4902 1.57075 11.1973 1.86364L10.7822 2.27876C11.5255 2.93235 12.0002 3.8529 12.0002 4.90909C12.0002 5.01196 11.9956 5.11384 11.9865 5.21458C12.0807 5.23052 12.1592 5.24591 12.2243 5.26014C12.6665 5.35679 13.0002 5.73747 13.0002 6.21129V6.59883L14.5716 5.97028C14.9562 5.81645 15.3927 6.00351 15.5465 6.3881C15.7003 6.77269 15.5133 7.20916 15.1287 7.363L13.0002 8.21438V9.34339L14.8493 9.58993C15.2599 9.64467 15.5483 10.0219 15.4936 10.4325C15.4388 10.8431 15.0616 11.1315 14.651 11.0768L12.9926 10.8556C12.9582 11.4145 12.8083 11.9376 12.5663 12.4113L14.9301 13.2977C15.318 13.4432 15.5145 13.8755 15.369 14.2633C15.2236 14.6512 14.7913 14.8477 14.4034 14.7022L11.7368 13.7022C11.6942 13.6863 11.654 13.6668 11.6162 13.6444C10.6876 14.4913 9.38456 15 8.00024 15C6.61593 15 5.31289 14.4913 4.38428 13.6444C4.34653 13.6668 4.30627 13.6863 4.26371 13.7022L1.59704 14.7022C1.2092 14.8477 0.776893 14.6512 0.631453 14.2633C0.486012 13.8755 0.682517 13.4432 1.07036 13.2977L3.43424 12.4113C3.1922 11.9376 3.04229 11.4145 3.00787 10.8556L1.34945 11.0768C0.938874 11.1315 0.561654 10.8431 0.50691 10.4325C0.452166 10.0219 0.740628 9.64467 1.15121 9.58993L3.00024 9.34339V8.17444L0.971656 7.363C0.587069 7.20916 0.400007 6.77269 0.553842 6.3881C0.707677 6.00351 1.14415 5.81645 1.52874 5.97028L3.00024 6.55889V6.21129C3.00024 5.73747 3.33397 5.35679 3.77623 5.26014C3.84131 5.24591 3.91979 5.23052 4.014 5.21458C4.00489 5.11384 4.00024 5.01196 4.00024 4.90909C4.00024 3.8529 4.47499 2.93235 5.21829 2.27876L4.80317 1.86364C4.51027 1.57075 4.51027 1.09588 4.80317 0.802983C5.09606 0.51009 5.57093 0.51009 5.86383 0.802983L6.55809 1.49724C7.01036 1.33691 7.49813 1.25 8.00024 1.25C8.50235 1.25 8.99013 1.33691 9.4424 1.49724L10.1367 0.802983ZM5.50648 5.06278C6.13279 5.02561 6.94639 5 8.00024 5C9.0541 5 9.86769 5.02561 10.494 5.06278C10.4981 5.01202 10.5002 4.96077 10.5002 4.90909C10.5002 3.79265 9.46128 2.75 8.00024 2.75C6.53921 2.75 5.50024 3.79265 5.50024 4.90909C5.50024 4.96077 5.50234 5.01202 5.50648 5.06278ZM4.50024 7.65169V6.65823C5.0431 6.58615 6.09294 6.5 8.00024 6.5C9.90755 6.5 10.9574 6.58615 11.5002 6.65823V9.98483C11.5 9.99562 11.5 10.0064 11.5002 10.0171V10.6071C11.5002 12.1005 10.0459 13.5 8.00024 13.5C5.95462 13.5 4.50024 12.1005 4.50024 10.6071V10.0171C4.50047 10.0064 4.50048 9.99562 4.50024 9.98483V7.68206C4.50045 7.67192 4.50045 7.66179 4.50024 7.65169Z" fill="#000001"/>
</g>
</svg>
