<svg width="16" height="16" viewBox="0 0 16 16" fill="none" xmlns="http://www.w3.org/2000/svg">
<g id="size=16">
<path id="Path" fill-rule="evenodd" clip-rule="evenodd" d="M10.1354 0.803059C10.428 0.511344 10.9033 0.511389 11.1959 0.803059C11.4876 1.09574 11.4876 1.57097 11.1959 1.86361L10.7809 2.27864C11.5233 2.93193 11.9983 3.85428 11.9987 4.9095C11.9986 5.01142 11.994 5.11535 11.985 5.21517C12.0782 5.23095 12.1587 5.246 12.2233 5.26009C12.6644 5.35711 12.998 5.73859 12.9987 6.21126V6.59896L14.57 5.97103C14.9539 5.81813 15.3914 6.00465 15.5456 6.38802C15.6982 6.77191 15.511 7.20958 15.1276 7.36361L12.9987 8.21419V9.34407L14.8483 9.59017C15.2578 9.64553 15.5468 10.0233 15.4928 10.4329C15.4373 10.8422 15.0595 11.1313 14.65 11.0775L12.9918 10.8558C12.9573 11.4136 12.8066 11.9385 12.5651 12.4115L14.9293 13.2982C15.3158 13.4441 15.5123 13.8769 15.3678 14.264C15.2219 14.6503 14.789 14.8469 14.402 14.7025L11.736 13.7025C11.6942 13.6867 11.6521 13.6668 11.6149 13.6449C10.6866 14.4909 9.38196 15 7.99867 15.0003C6.61557 15 5.31163 14.4907 4.38344 13.6449C4.34631 13.6668 4.30412 13.6867 4.26235 13.7025L1.59535 14.7025C1.20856 14.8465 0.776446 14.65 0.630511 14.264C0.486013 13.8769 0.682432 13.444 1.06899 13.2982L3.43325 12.4115C3.19174 11.9385 3.04108 11.4137 3.00649 10.8558L1.34828 11.0775C0.938765 11.1314 0.561039 10.8422 0.505511 10.4329C0.451519 10.0232 0.740498 9.64545 1.15004 9.59017L2.99868 9.34407V8.17513L0.970355 7.36361C0.586898 7.20959 0.39967 6.77194 0.552386 6.38802C0.706522 6.00459 1.14403 5.81808 1.52797 5.97103L2.99868 6.55892V6.21126C2.99936 5.73855 3.33384 5.35708 3.77504 5.26009C3.83949 5.24604 3.91949 5.23091 4.01235 5.21517C4.00336 5.11536 3.99873 5.0114 3.99868 4.9095C3.99902 3.85429 4.475 2.93193 5.21742 2.27864L4.80239 1.86361C4.51058 1.57099 4.51075 1.09578 4.80239 0.803059C5.09512 0.511529 5.57035 0.511292 5.86293 0.803059L6.55727 1.49739C7.00867 1.33756 7.49765 1.2505 7.99867 1.25032C8.49994 1.25046 8.98947 1.33745 9.44106 1.49739L10.1354 0.803059ZM7.99867 6.50032C6.09371 6.50037 5.04173 6.5865 4.49868 6.65853V10.6077C4.49991 12.1 5.95472 13.4996 7.99867 13.5003C10.0428 13.4998 11.4974 12.1001 11.4987 10.6077V6.65853C10.9555 6.5865 9.90353 6.50036 7.99867 6.50032ZM7.99867 2.75032C6.53895 2.75105 5.49939 3.79389 5.49867 4.9095C5.49873 4.96016 5.50148 5.01305 5.50551 5.06282C6.13133 5.02571 6.94637 5.00035 7.99867 5.00032C9.05131 5.00034 9.86689 5.0257 10.4928 5.06282C10.4968 5.01305 10.4986 4.96017 10.4987 4.9095C10.498 3.7938 9.45858 2.75089 7.99867 2.75032Z" fill="#000001"/>
</g>
</svg>
