<svg width="24" height="24" viewBox="0 0 24 24" fill="none" xmlns="http://www.w3.org/2000/svg">
<g id="size=24">
<path id="Path" fill-rule="evenodd" clip-rule="evenodd" d="M15.7199 1.21967C16.0128 0.926777 16.4877 0.926777 16.7806 1.21967C17.0735 1.51256 17.0735 1.98744 16.7806 2.28033L15.6041 3.45679C16.465 4.30437 17.0002 5.45903 17.0002 6.75C17.0002 7.0798 16.9648 7.40204 16.8972 7.71328C17.5092 7.78413 17.9054 7.86043 18.1549 7.92148C18.6954 8.05379 19.0002 8.53113 19.0002 9.00978V10.4178L21.9869 9.29777C22.3748 9.15233 22.8071 9.34884 22.9525 9.73668C23.098 10.1245 22.9015 10.5568 22.5136 10.7023L19.0002 12.0198V14.3379L22.3432 14.7558C22.7542 14.8072 23.0457 15.182 22.9944 15.593C22.943 16.004 22.5682 16.2956 22.1571 16.2442L19.0002 15.8496V16.25C19.0002 17.1814 18.8058 18.0659 18.4548 18.8694L22.2636 20.2977C22.6515 20.4432 22.848 20.8755 22.7025 21.2633C22.5571 21.6512 22.1248 21.8477 21.7369 21.7022L17.7369 20.2022C17.7212 20.1963 17.7059 20.19 17.6908 20.1832C16.4155 21.8941 14.3323 23 12.0002 23C9.66818 23 7.585 21.8941 6.30969 20.1832C6.29463 20.19 6.27925 20.1963 6.26355 20.2022L2.26355 21.7022C1.87571 21.8477 1.4434 21.6512 1.29796 21.2633C1.15252 20.8755 1.34902 20.4432 1.73686 20.2977L5.54566 18.8694C5.1947 18.0659 5.00024 17.1814 5.00024 16.25V15.8496L1.84335 16.2442C1.43233 16.2956 1.05749 16.004 1.00611 15.593C0.954738 15.182 1.24628 14.8072 1.6573 14.7558L5.00024 14.3379V12.0198L1.48686 10.7023C1.09902 10.5568 0.902516 10.1245 1.04796 9.73668C1.1934 9.34884 1.62571 9.15233 2.01355 9.29777L5.00024 10.4178V9.00978C5.00024 8.53113 5.30505 8.05379 5.84563 7.92148C6.09507 7.86043 6.49126 7.78413 7.10323 7.71328C7.03573 7.40204 7.00024 7.0798 7.00024 6.75C7.00024 5.45903 7.53553 4.30437 8.39637 3.45679L7.21991 2.28033C6.92702 1.98744 6.92702 1.51256 7.21991 1.21967C7.51281 0.926777 7.98768 0.926777 8.28057 1.21967L9.62926 2.56836C10.3388 2.2049 11.1481 2 12.0002 2C12.8524 2 13.6617 2.2049 14.3712 2.56836L15.7199 1.21967ZM8.61706 7.58608C9.49237 7.53451 10.6007 7.5 12.0002 7.5C13.3998 7.5 14.5081 7.53451 15.3834 7.58608C15.4597 7.31952 15.5002 7.03943 15.5002 6.75C15.5002 4.99726 13.9767 3.5 12.0002 3.5C10.0238 3.5 8.50024 4.99726 8.50024 6.75C8.50024 7.03943 8.54083 7.31952 8.61706 7.58608ZM6.50024 11.4846V9.31575C7.19778 9.18729 8.7726 9 12.0002 9C15.2279 9 16.8027 9.18729 17.5002 9.31575V11.4846L17.5001 11.5019L17.5002 11.5157V14.9855C17.5 14.9958 17.5 15.0061 17.5002 15.0163V16.25C17.5002 19.1209 15.067 21.5 12.0002 21.5C8.93353 21.5 6.50024 19.1209 6.50024 16.25V15.0163C6.50045 15.0061 6.50046 14.9958 6.50024 14.9855V11.5157C6.50046 11.5053 6.50046 11.4949 6.50024 11.4846Z" fill="#000001"/>
</g>
</svg>
