<svg width="24" height="24" viewBox="0 0 24 24" fill="none" xmlns="http://www.w3.org/2000/svg">
<g id="size=24">
<path id="Path" fill-rule="evenodd" clip-rule="evenodd" d="M15.7197 1.22C16.0126 0.927176 16.4874 0.927214 16.7803 1.22C17.0725 1.51294 17.0729 1.98787 16.7803 2.28055L15.6045 3.45731C16.4647 4.3048 17 5.45981 17 6.75028C16.9999 7.0796 16.9648 7.40236 16.8974 7.71317C17.509 7.78399 17.9059 7.86015 18.1553 7.92118C18.6953 8.05377 19 8.53164 19 9.01004V10.4182L21.9873 9.29813C22.3749 9.15298 22.8066 9.3491 22.9521 9.73661C23.0969 10.1242 22.9011 10.5571 22.5137 10.7024L19 12.0198V14.3382L22.3428 14.7561C22.7535 14.8077 23.0454 15.1822 22.9941 15.5931C22.9423 16.0034 22.5677 16.2954 22.1572 16.2444L19 15.8499V16.2503C18.9998 17.1812 18.8058 18.0662 18.4551 18.8694L22.2637 20.2981C22.651 20.4438 22.8475 20.8763 22.7021 21.264C22.5563 21.6506 22.1245 21.847 21.7373 21.7024L17.7373 20.2024C17.7218 20.1966 17.7053 20.1896 17.6904 20.1829C16.4151 21.8935 14.3317 23.0002 12 23.0003C9.66842 23.0002 7.58485 21.8933 6.30956 20.1829C6.29462 20.1896 6.27922 20.1966 6.26366 20.2024L2.26366 21.7024C1.8763 21.8476 1.44374 21.6509 1.29784 21.264C1.15242 20.8762 1.34956 20.4436 1.73729 20.2981L5.54588 18.8694C5.19508 18.0662 5.00014 17.1812 4.99999 16.2503V15.8499L1.84374 16.2444C1.43308 16.2957 1.0577 16.0035 1.00585 15.5931C0.954568 15.1822 1.24636 14.8076 1.65721 14.7561L4.99999 14.3382V12.0198L1.48729 10.7024C1.09973 10.5571 0.90294 10.1242 1.04784 9.73661C1.19333 9.34889 1.62588 9.15274 2.01366 9.29813L4.99999 10.4182V9.01004C4.99999 8.53143 5.30518 8.05352 5.84569 7.92118C6.09513 7.86014 6.49184 7.78398 7.1035 7.71317C7.0361 7.40234 7.00006 7.07963 6.99999 6.75028C6.99999 5.45956 7.53592 4.30484 8.39647 3.45731L7.21971 2.28055C6.9271 1.98784 6.92741 1.51291 7.21971 1.22C7.51258 0.927174 7.98737 0.927214 8.28026 1.22L9.62889 2.56864C10.3383 2.20526 11.148 2.00033 12 2.00028C12.8519 2.00034 13.6617 2.20527 14.3711 2.56864L15.7197 1.22ZM12 9.00028C8.77291 9.00029 7.1976 9.18725 6.49999 9.31571V16.2503C6.5006 19.1206 8.93382 21.5001 12 21.5003C15.0661 21.5001 17.4994 19.1206 17.5 16.2503V9.31571C16.8023 9.18725 15.2268 9.00029 12 9.00028ZM12 3.50028C10.0237 3.50046 8.49999 4.99764 8.49999 6.75028C8.50009 7.03932 8.54104 7.31999 8.61717 7.58622C9.49235 7.53466 10.6009 7.50028 12 7.50028C13.3993 7.50029 14.5086 7.53465 15.3838 7.58622C15.4599 7.32002 15.4999 7.03928 15.5 6.75028C15.5 4.99765 13.9763 3.50047 12 3.50028Z" fill="#000001"/>
</g>
</svg>
