<svg width="16" height="16" viewBox="0 0 16 16" fill="none" xmlns="http://www.w3.org/2000/svg">
<g id="size=16">
<path id="Path" fill-rule="evenodd" clip-rule="evenodd" d="M10.1359 0.80288C10.4285 0.51137 10.9038 0.511278 11.1964 0.80288C11.4879 1.0955 11.4879 1.5708 11.1964 1.86343L10.7814 2.27847C11.5238 2.93175 11.9988 3.85415 11.9992 4.90933C11.9991 5.01129 11.9945 5.11512 11.9855 5.21499C12.0786 5.23076 12.1592 5.24583 12.2238 5.25991C12.6648 5.35703 12.9985 5.73851 12.9992 6.21108V6.59878L14.5705 5.97085C14.9543 5.8182 15.3919 6.00458 15.546 6.38784C15.6987 6.77162 15.5112 7.20927 15.1281 7.36343L12.9992 8.21401V9.3439L14.8488 9.58999C15.2581 9.64549 15.5473 10.0232 15.4933 10.4328C15.4379 10.842 15.0599 11.1309 14.6505 11.0773L12.9923 10.8556C12.9578 11.4135 12.807 11.9383 12.5656 12.4113L14.9298 13.298C15.3161 13.444 15.5127 13.8769 15.3683 14.2638C15.2225 14.6501 14.7894 14.8465 14.4025 14.7023L11.7365 13.7023C11.6947 13.6866 11.6525 13.6666 11.6154 13.6447C10.6872 14.4906 9.38235 14.9998 7.99916 15.0001C6.61611 14.9998 5.31211 14.4905 4.38393 13.6447C4.3469 13.6666 4.3045 13.6866 4.26284 13.7023L1.59584 14.7023C1.20903 14.8464 0.776917 14.6499 0.630999 14.2638C0.486502 13.8767 0.682921 13.4438 1.06948 13.298L3.43373 12.4113C3.1922 11.9382 3.04154 11.4135 3.00698 10.8556L1.34877 11.0773C0.939209 11.1312 0.561463 10.8421 0.505999 10.4328C0.452007 10.023 0.740986 9.64527 1.15053 9.58999L2.99916 9.3439V8.17495L0.970843 7.36343C0.587339 7.20939 0.400054 6.7718 0.552874 6.38784C0.707057 6.0045 1.14456 5.81792 1.52846 5.97085L2.99916 6.55874V6.21108C2.99985 5.73837 3.33433 5.3569 3.77553 5.25991C3.83992 5.24588 3.92015 5.2307 4.01284 5.21499C4.00384 5.11512 3.99921 5.01128 3.99916 4.90933C3.99951 3.85409 4.47547 2.93176 5.21791 2.27847L4.80287 1.86343C4.51105 1.57079 4.51118 1.0956 4.80287 0.80288C5.09562 0.511555 5.57091 0.511182 5.86342 0.80288L6.55776 1.49722C7.00906 1.33746 7.49827 1.25032 7.99916 1.25015C8.50031 1.25032 8.99006 1.33731 9.44155 1.49722L10.1359 0.80288ZM7.99916 6.50015C6.09461 6.50019 5.04232 6.58633 4.49916 6.65835V10.6076C4.50028 12.0999 5.95513 13.4995 7.99916 13.5001C10.0432 13.4995 11.498 12.0999 11.4992 10.6076V6.65835C10.956 6.58633 9.90381 6.50019 7.99916 6.50015ZM7.99916 2.75015C6.53944 2.75087 5.49988 3.79371 5.49916 4.90933C5.49922 4.96004 5.50197 5.01281 5.506 5.06265C6.13177 5.02555 6.94706 5.00017 7.99916 5.00015C9.05164 5.00017 9.86744 5.02553 10.4933 5.06265C10.4973 5.01281 10.4991 4.96004 10.4992 4.90933C10.4984 3.79371 9.45889 2.75087 7.99916 2.75015Z" fill="#000001"/>
</g>
</svg>
