<svg width="16" height="16" viewBox="0 0 16 16" fill="none" xmlns="http://www.w3.org/2000/svg">
<g id="size=16">
<path id="Path" fill-rule="evenodd" clip-rule="evenodd" d="M10.1359 0.80304C10.4285 0.511393 10.9038 0.511392 11.1964 0.80304C11.4879 1.09571 11.488 1.57097 11.1964 1.86359L10.7814 2.27863C11.5238 2.93191 11.9988 3.85431 11.9992 4.90949C11.9991 5.01141 11.9945 5.11532 11.9855 5.21515C12.0786 5.23092 12.1592 5.24599 12.2238 5.26007C12.6648 5.35716 12.9985 5.73864 12.9992 6.21124V6.59894L14.5705 5.97101C14.9543 5.81825 15.3919 6.00469 15.546 6.388C15.6986 6.77181 15.5113 7.2095 15.1281 7.36359L12.9992 8.21417V9.34406L14.8488 9.59015C15.2581 9.64561 15.5473 10.0233 15.4933 10.4329C15.4379 10.8421 15.0599 11.1311 14.6505 11.0775L12.9923 10.8558C12.9577 11.4136 12.8071 11.9384 12.5656 12.4114L14.9298 13.2982C15.3162 13.4441 15.5128 13.877 15.3683 14.264C15.2224 14.6503 14.7894 14.8467 14.4025 14.7025L11.7365 13.7025C11.6947 13.6867 11.6525 13.6668 11.6154 13.6448C10.6872 14.4908 9.3824 15 7.99916 15.0003C6.61611 14.9999 5.31211 14.4906 4.38393 13.6448C4.34685 13.6668 4.30455 13.6867 4.26284 13.7025L1.59584 14.7025C1.20907 14.8465 0.776951 14.65 0.630999 14.264C0.486502 13.8769 0.682921 13.444 1.06948 13.2982L3.43373 12.4114C3.19222 11.9384 3.04156 11.4136 3.00698 10.8558L1.34877 11.0775C0.939254 11.1314 0.561527 10.8422 0.505999 10.4329C0.452007 10.0232 0.740986 9.64543 1.15053 9.59015L2.99916 9.34406V8.17511L0.970843 7.36359C0.587354 7.20956 0.400087 6.77195 0.552874 6.388C0.707011 6.00457 1.14452 5.81806 1.52846 5.97101L2.99916 6.5589V6.21124C2.99985 5.73853 3.33433 5.35706 3.77553 5.26007C3.83995 5.24603 3.92008 5.23087 4.01284 5.21515C4.00385 5.11533 3.99921 5.01139 3.99916 4.90949C3.99951 3.85425 4.47547 2.93192 5.21791 2.27863L4.80287 1.86359C4.51105 1.57095 4.51118 1.09576 4.80287 0.80304C5.09561 0.511578 5.57086 0.511296 5.86342 0.80304L6.55776 1.49738C7.0091 1.33758 7.49821 1.25048 7.99916 1.25031C8.50035 1.25047 8.99002 1.33746 9.44155 1.49738L10.1359 0.80304ZM7.99916 6.50031C6.09445 6.50035 5.04228 6.58648 4.49916 6.65851V10.6077C4.50038 12.1 5.9552 13.4996 7.99916 13.5003C10.0432 13.4997 11.4979 12.1001 11.4992 10.6077V6.65851C10.956 6.58648 9.90389 6.50035 7.99916 6.50031ZM7.99916 2.75031C6.53944 2.75103 5.49988 3.79387 5.49916 4.90949C5.49922 4.96015 5.50197 5.01302 5.506 5.06281C6.13179 5.0257 6.94698 5.00033 7.99916 5.00031C9.0517 5.00033 9.86742 5.02568 10.4933 5.06281C10.4973 5.01302 10.4991 4.96016 10.4992 4.90949C10.4984 3.79384 9.45896 2.75097 7.99916 2.75031Z" fill="#000001"/>
</g>
</svg>
