<svg width="24" height="24" viewBox="0 0 24 24" fill="none" xmlns="http://www.w3.org/2000/svg">
<g id="size=24">
<path id="Path" fill-rule="evenodd" clip-rule="evenodd" d="M15.7197 1.21977C16.0126 0.926939 16.4874 0.926978 16.7803 1.21977C17.0726 1.51269 17.0729 1.98759 16.7803 2.28031L15.6045 3.45707C16.4648 4.30457 17 5.45951 17 6.75004C16.9999 7.07945 16.9649 7.40205 16.8974 7.71293C17.509 7.78375 17.9059 7.85991 18.1553 7.92094C18.6954 8.0535 19 8.53138 19 9.00981V10.418L21.9873 9.29789C22.3749 9.15274 22.8066 9.34887 22.9521 9.73637C23.097 10.124 22.9012 10.5568 22.5137 10.7022L19 12.0196V14.3379L22.3428 14.7559C22.7535 14.8075 23.0454 15.182 22.9941 15.5928C22.9424 16.0033 22.5678 16.2952 22.1572 16.2442L19 15.8497V16.25C18.9999 17.181 18.8059 18.0659 18.4551 18.8692L22.2637 20.2979C22.6511 20.4436 22.8475 20.8761 22.7021 21.2637C22.5564 21.6506 22.1246 21.8469 21.7373 21.7022L17.7373 20.2022C17.7218 20.1964 17.7053 20.1894 17.6904 20.1827C16.4151 21.8933 14.3317 22.9999 12 23C9.66834 22.9999 7.58484 21.8932 6.30956 20.1827C6.2946 20.1894 6.27924 20.1963 6.26366 20.2022L2.26366 21.7022C1.87621 21.8474 1.44366 21.6508 1.29784 21.2637C1.15241 20.8759 1.34953 20.4434 1.73729 20.2979L5.54588 18.8692C5.19505 18.0659 5.0001 17.1811 4.99999 16.25V15.8497L1.84374 16.2442C1.433 16.2955 1.05758 16.0034 1.00585 15.5928C0.954568 15.1819 1.24636 14.8074 1.65721 14.7559L4.99999 14.3379V12.0196L1.48729 10.7022C1.09966 10.5568 0.902796 10.1241 1.04784 9.73637C1.19333 9.34865 1.62588 9.15251 2.01366 9.29789L4.99999 10.418V9.00981C4.99999 8.53119 5.30517 8.05328 5.84569 7.92094C6.09513 7.85991 6.49185 7.78374 7.1035 7.71293C7.03608 7.40203 7.00005 7.07948 6.99999 6.75004C6.99999 5.45927 7.53586 4.30462 8.39647 3.45707L7.21971 2.28031C6.92706 1.98757 6.9273 1.51267 7.21971 1.21977C7.51258 0.926938 7.98737 0.926977 8.28026 1.21977L9.62889 2.5684C10.3383 2.20502 11.148 2.0001 12 2.00004C12.8519 2.0001 13.6617 2.20503 14.3711 2.5684L15.7197 1.21977ZM12 9.00004C8.77294 9.00005 7.19761 9.18701 6.49999 9.31547V16.25C6.50046 19.1205 8.93374 21.4999 12 21.5C15.0662 21.4999 17.4995 19.1205 17.5 16.25V9.31547C16.8023 9.18702 15.2268 9.00006 12 9.00004ZM12 3.50004C10.0237 3.50022 8.49999 4.99741 8.49999 6.75004C8.50007 7.03917 8.54102 7.31968 8.61717 7.58598C9.49235 7.53443 10.6009 7.50005 12 7.50004C13.3993 7.50005 14.5085 7.53441 15.3838 7.58598C15.4599 7.31971 15.4999 7.03913 15.5 6.75004C15.5 4.99741 13.9763 3.50023 12 3.50004Z" fill="#000001"/>
</g>
</svg>
