<svg width="16" height="16" viewBox="0 0 16 16" fill="none" xmlns="http://www.w3.org/2000/svg">
<g id="size=16">
<path id="Path" fill-rule="evenodd" clip-rule="evenodd" d="M8.60256 2.54901C6.56265 2.86082 5.00003 4.62292 5.00003 6.75C5.00003 7.45265 5.16996 8.11342 5.47032 8.69555C5.67504 9.09232 5.62518 9.60443 5.27957 9.95003C5.25909 9.97051 5.23745 9.98978 5.21474 10.0078L2.21554 12.382C1.89077 12.6391 1.41907 12.5842 1.16198 12.2594C0.904887 11.9346 0.959752 11.463 1.28452 11.2059L3.98622 9.06717C3.67347 8.35758 3.50003 7.57322 3.50003 6.75C3.50003 3.57436 6.07439 1 9.25003 1C9.32338 1 9.39645 1.00138 9.46921 1.00411C9.9981 1.02398 10.3933 1.36708 10.5353 1.80146C10.6723 2.22066 10.5703 2.70256 10.2293 3.04362L8.75003 4.52286V6.11939L9.88033 7.24969H11.4769L12.9564 5.77019C13.2974 5.42915 13.7793 5.32721 14.1985 5.46415C14.6328 5.60605 14.976 6.00125 14.9959 6.53011C14.9986 6.6031 15 6.67641 15 6.75C15 9.92564 12.4257 12.5 9.25003 12.5C8.45955 12.5 7.70481 12.3401 7.01767 12.0504L4.9164 14.7145C4.65988 15.0397 4.18828 15.0954 3.86306 14.8389C3.53783 14.5824 3.48214 14.1108 3.73865 13.7855L6.07206 10.8271C6.09027 10.804 6.10982 10.782 6.1306 10.7613C6.4711 10.4208 6.97412 10.367 7.36867 10.5621C7.93493 10.8422 8.57299 11 9.25003 11C11.3774 11 13.1396 9.43701 13.4511 7.39675L12.4094 8.4385C12.2101 8.63775 11.9399 8.74969 11.6581 8.74969H9.69911C9.41732 8.74969 9.14707 8.63775 8.94781 8.4385L7.56123 7.05191C7.36197 6.85265 7.25003 6.5824 7.25003 6.30061V4.34164C7.25003 4.05985 7.36197 3.78959 7.56123 3.59034L8.60256 2.54901Z" fill="#000001"/>
</g>
</svg>
