<svg width="24" height="24" viewBox="0 0 24 24" fill="none" xmlns="http://www.w3.org/2000/svg">
<g id="size=24">
<g id="Path">
<path d="M12 1C12.4142 1 12.75 1.33579 12.75 1.75V3.25C12.75 3.66421 12.4142 4 12 4C11.5858 4 11.25 3.66421 11.25 3.25V1.75C11.25 1.33579 11.5858 1 12 1Z" fill="#000001"/>
<path d="M22.5 11.75C22.5 12.1642 22.1642 12.5 21.75 12.5H20.25C19.8358 12.5 19.5 12.1642 19.5 11.75C19.5 11.3358 19.8358 11 20.25 11H21.75C22.1642 11 22.5 11.3358 22.5 11.75Z" fill="#000001"/>
<path d="M3.75 12.5C4.16421 12.5 4.5 12.1642 4.5 11.75C4.5 11.3358 4.16421 11 3.75 11H2.25C1.83579 11 1.5 11.3358 1.5 11.75C1.5 12.1642 1.83579 12.5 2.25 12.5H3.75Z" fill="#000001"/>
<path d="M19.5303 4.21966C19.8232 4.51255 19.8232 4.98743 19.5303 5.28032L18.4697 6.34098C18.1768 6.63387 17.7019 6.63387 17.409 6.34098C17.1161 6.04809 17.1161 5.57321 17.409 5.28032L18.4697 4.21966C18.7626 3.92677 19.2374 3.92677 19.5303 4.21966Z" fill="#000001"/>
<path d="M4.46967 5.28032C4.17678 4.98743 4.17678 4.51255 4.46967 4.21966C4.76256 3.92677 5.23744 3.92677 5.53033 4.21966L6.59099 5.28032C6.88388 5.57321 6.88388 6.04809 6.59099 6.34098C6.2981 6.63387 5.82322 6.63387 5.53033 6.34098L4.46967 5.28032Z" fill="#000001"/>
<path d="M9.5 22.25C9.5 21.8358 9.83579 21.5 10.25 21.5H13.75C14.1642 21.5 14.5 21.8358 14.5 22.25C14.5 22.6642 14.1642 23 13.75 23H10.25C9.83579 23 9.5 22.6642 9.5 22.25Z" fill="#000001"/>
<path fill-rule="evenodd" clip-rule="evenodd" d="M12 5.5C8.68629 5.5 6 8.18629 6 11.5C6 13.4929 7.18615 14.6795 8.28747 15.7813C8.39383 15.8877 8.49939 15.9933 8.60302 16.0988C8.72617 16.2241 8.79881 16.4001 8.79891 16.5926L8.79924 17.2511C8.79987 18.4933 9.80704 19.5 11.0492 19.5H12.95C14.1926 19.5 15.2 18.4926 15.2 17.25V16.6213C15.2 16.422 15.2791 16.2353 15.4163 16.1017L15.5381 15.9833C16.7038 14.8513 18 13.5925 18 11.5C18 8.18629 15.3137 5.5 12 5.5ZM7.5 11.5C7.5 9.01472 9.51472 7 12 7C14.4853 7 16.5 9.01472 16.5 11.5C16.5 12.9358 15.6502 13.7808 14.37 15.0268C13.9371 15.4482 13.7 16.025 13.7 16.6213V17.25C13.7 17.6642 13.3642 18 12.95 18H11.0492C10.6352 18 10.2994 17.6644 10.2992 17.2504L10.2989 16.5918C10.2986 16.0233 10.0832 15.465 9.67296 15.0475C9.58263 14.9556 9.49451 14.8664 9.4087 14.7796C8.23886 13.5959 7.5 12.8483 7.5 11.5Z" fill="#000001"/>
</g>
</g>
</svg>
