<svg width="24" height="24" viewBox="0 0 24 24" fill="none" xmlns="http://www.w3.org/2000/svg">
<g id="size=24">
<path id="Path" d="M13.75 21.5C14.1642 21.5 14.5 21.8358 14.5 22.25C14.5 22.6642 14.1642 23 13.75 23H10.25C9.83579 23 9.5 22.6642 9.5 22.25C9.5 21.8358 9.83579 21.5 10.25 21.5H13.75ZM12 5.5C15.3137 5.5 18 8.18629 18 11.5C18 13.5925 16.7037 14.8514 15.5381 15.9834L15.416 16.1016C15.2789 16.2351 15.2003 16.4218 15.2002 16.6211V17.25C15.2002 18.4926 14.1927 19.4999 12.9502 19.5H11.0488C9.80682 19.4998 8.79946 18.493 8.79883 17.251V16.5928C8.79873 16.4003 8.72569 16.224 8.60254 16.0986C8.49901 15.9933 8.39336 15.8875 8.28711 15.7812C7.18585 14.6795 6 13.4928 6 11.5C6 8.18629 8.68629 5.5 12 5.5ZM12 7C9.51472 7 7.5 9.01472 7.5 11.5C7.5 12.8483 8.23934 13.5956 9.40918 14.7793C9.49496 14.8661 9.58256 14.956 9.67285 15.0479C10.083 15.4653 10.2985 16.0233 10.2988 16.5918V17.25C10.299 17.6639 10.635 17.9998 11.0488 18H12.9502C13.3643 17.9999 13.7002 17.6641 13.7002 17.25V16.6211C13.7003 16.0249 13.9372 15.4477 14.3701 15.0264C15.6501 13.7805 16.5 12.9357 16.5 11.5C16.5 9.01472 14.4853 7 12 7ZM3.75 11C4.16421 11 4.5 11.3358 4.5 11.75C4.5 12.1642 4.16421 12.5 3.75 12.5H2.25C1.83579 12.5 1.5 12.1642 1.5 11.75C1.5 11.3358 1.83579 11 2.25 11H3.75ZM21.75 11C22.1642 11 22.5 11.3358 22.5 11.75C22.5 12.1642 22.1642 12.5 21.75 12.5H20.25C19.8358 12.5 19.5 12.1642 19.5 11.75C19.5 11.3358 19.8358 11 20.25 11H21.75ZM4.46973 4.21973C4.76262 3.92683 5.23738 3.92683 5.53027 4.21973L6.59082 5.28027C6.88371 5.57317 6.88371 6.04793 6.59082 6.34082C6.29793 6.63371 5.82316 6.63371 5.53027 6.34082L4.46973 5.28027C4.17683 4.98738 4.17684 4.51262 4.46973 4.21973ZM18.4697 4.21973C18.7626 3.92683 19.2374 3.92683 19.5303 4.21973C19.8232 4.51262 19.8232 4.98738 19.5303 5.28027L18.4697 6.34082C18.1768 6.63371 17.7021 6.63371 17.4092 6.34082C17.1163 6.04793 17.1163 5.57317 17.4092 5.28027L18.4697 4.21973ZM12 1C12.4142 1 12.75 1.33579 12.75 1.75V3.25C12.75 3.66421 12.4142 4 12 4C11.5858 4 11.25 3.66421 11.25 3.25V1.75C11.25 1.33579 11.5858 1 12 1Z" fill="#000001"/>
</g>
</svg>
