<svg width="16" height="16" viewBox="0 0 16 16" fill="none" xmlns="http://www.w3.org/2000/svg">
<g id="size=16">
<g id="Path">
<path d="M8 0C8.41421 0 8.75 0.335786 8.75 0.75V1.75C8.75 2.16421 8.41421 2.5 8 2.5C7.58579 2.5 7.25 2.16421 7.25 1.75V0.75C7.25 0.335786 7.58579 0 8 0Z" fill="#000001"/>
<path d="M13.2803 2.21966C13.5732 2.51255 13.5732 2.98743 13.2803 3.28032L12.5732 3.98743C12.2803 4.28032 11.8055 4.28032 11.5126 3.98743C11.2197 3.69453 11.2197 3.21966 11.5126 2.92677L12.2197 2.21966C12.5126 1.92677 12.9874 1.92677 13.2803 2.21966Z" fill="#000001"/>
<path d="M2.71967 3.28032C2.42678 2.98743 2.42678 2.51255 2.71967 2.21966C3.01256 1.92677 3.48744 1.92677 3.78033 2.21966L4.48744 2.92677C4.78033 3.21966 4.78033 3.69453 4.48744 3.98743C4.19454 4.28032 3.71967 4.28032 3.42678 3.98743L2.71967 3.28032Z" fill="#000001"/>
<path d="M15.5 7.5C15.5 7.91421 15.1642 8.25 14.75 8.25H13.75C13.3358 8.25 13 7.91421 13 7.5C13 7.08579 13.3358 6.75 13.75 6.75H14.75C15.1642 6.75 15.5 7.08579 15.5 7.5Z" fill="#000001"/>
<path d="M2.25 8.25C2.66421 8.25 3 7.91421 3 7.5C3 7.08579 2.66421 6.75 2.25 6.75H1.25C0.835786 6.75 0.5 7.08579 0.5 7.5C0.5 7.91421 0.835786 8.25 1.25 8.25H2.25Z" fill="#000001"/>
<path d="M6.25 15.25C6.25 14.8358 6.58579 14.5 7 14.5H9C9.41421 14.5 9.75 14.8358 9.75 15.25C9.75 15.6642 9.41421 16 9 16H7C6.58579 16 6.25 15.6642 6.25 15.25Z" fill="#000001"/>
<path fill-rule="evenodd" clip-rule="evenodd" d="M8 3.5C5.51472 3.5 3.5 5.51472 3.5 8C3.5 9.53026 4.42591 10.4648 5.21807 11.2642C5.28603 11.3328 5.35308 11.4005 5.4184 11.4674C5.46741 11.5176 5.49923 11.5908 5.49929 11.6752C5.49996 12.6832 6.31729 13.5 7.3253 13.5H8.68934C9.68934 13.5 10.5 12.6893 10.5 11.6893C10.5 11.6069 10.5327 11.531 10.5878 11.4769L10.6552 11.411C11.4917 10.5922 12.5 9.60528 12.5 8C12.5 5.51472 10.4853 3.5 8 3.5ZM5 8C5 6.34315 6.34315 5 8 5C9.65685 5 11 6.34315 11 8C11 8.92753 10.4602 9.50162 9.53778 10.4057C9.19111 10.7455 9 11.2092 9 11.6893C9 11.8609 8.86091 12 8.68934 12H7.3253C7.14533 12 6.99941 11.8542 6.99929 11.6742C6.99898 11.2129 6.82389 10.7597 6.4916 10.4194L6.37661 10.3018C5.49142 9.39686 5 8.89449 5 8Z" fill="#000001"/>
</g>
</g>
</svg>
