<svg width="16" height="16" viewBox="0 0 16 16" fill="none" xmlns="http://www.w3.org/2000/svg">
<g id="size=16">
<path id="Path" d="M8.99976 14.5C9.41397 14.5 9.74976 14.8358 9.74976 15.25C9.74976 15.6642 9.41397 16 8.99976 16H6.99976C6.58565 15.9999 6.24976 15.6641 6.24976 15.25C6.24976 14.8359 6.58565 14.5001 6.99976 14.5H8.99976ZM7.99976 3.5C10.485 3.5 12.4998 5.51472 12.4998 8C12.4998 9.60528 11.4916 10.5923 10.655 11.4111L10.5876 11.4766C10.5326 11.5306 10.4998 11.6071 10.4998 11.6895C10.4997 12.6894 9.68912 13.4999 8.68921 13.5H7.32495C6.3171 13.4998 5.49945 12.6827 5.49878 11.6748C5.49862 11.5905 5.46666 11.5179 5.41772 11.4678C5.35247 11.4009 5.28542 11.3332 5.21753 11.2646C4.4254 10.4652 3.49976 9.53019 3.49976 8C3.49976 5.5148 5.51459 3.50013 7.99976 3.5ZM7.99976 5C6.34301 5.00013 4.99976 6.34323 4.99976 8C4.99976 8.89445 5.49159 9.3969 6.37671 10.3018L6.49097 10.4189C6.82317 10.7591 6.99838 11.2126 6.99878 11.6738C6.9989 11.8537 7.14514 11.9998 7.32495 12H8.68921C8.86069 11.9999 8.99969 11.8609 8.99976 11.6895C8.99976 11.2093 9.19125 10.7451 9.53784 10.4053C10.46 9.50138 10.9998 8.9274 10.9998 8C10.9998 6.34315 9.65661 5 7.99976 5ZM2.24976 6.75C2.66397 6.75 2.99976 7.08579 2.99976 7.5C2.99976 7.91421 2.66397 8.25 2.24976 8.25H1.24976C0.835653 8.24987 0.499756 7.91413 0.499756 7.5C0.499756 7.08587 0.835653 6.75013 1.24976 6.75H2.24976ZM14.7498 6.75C15.164 6.75 15.4998 7.08579 15.4998 7.5C15.4998 7.91421 15.164 8.25 14.7498 8.25H13.7498C13.3357 8.24987 12.9998 7.91413 12.9998 7.5C12.9998 7.08587 13.3357 6.75013 13.7498 6.75H14.7498ZM2.71948 2.21973C3.01234 1.92687 3.48713 1.92695 3.78003 2.21973L4.48706 2.92676C4.77995 3.21965 4.77995 3.69441 4.48706 3.9873C4.19416 4.28007 3.71937 4.28016 3.42651 3.9873L2.71948 3.28027C2.42675 2.98741 2.42675 2.51259 2.71948 2.21973ZM12.2195 2.21973C12.5123 1.92687 12.9871 1.92695 13.28 2.21973C13.5729 2.51262 13.5729 2.98738 13.28 3.28027L12.573 3.9873C12.2801 4.28008 11.8053 4.28015 11.5125 3.9873C11.2197 3.69444 11.2197 3.21962 11.5125 2.92676L12.2195 2.21973ZM7.99976 0C8.41397 0 8.74976 0.335786 8.74976 0.75V1.75C8.74976 2.16421 8.41397 2.5 7.99976 2.5C7.58565 2.49987 7.24976 2.16413 7.24976 1.75V0.75C7.24976 0.335867 7.58565 0.000130625 7.99976 0Z" fill="#000001"/>
</g>
</svg>
