<svg width="24" height="24" viewBox="0 0 24 24" fill="none" xmlns="http://www.w3.org/2000/svg">
<g id="size=24">
<path id="Path" d="M13.7501 21.5C14.1643 21.5001 14.5001 21.8358 14.5001 22.25C14.5001 22.6642 14.1643 22.9999 13.7501 23H10.2501C9.83591 23 9.50012 22.6642 9.50012 22.25C9.50012 21.8358 9.83591 21.5 10.2501 21.5H13.7501ZM12.0001 5.5C15.3138 5.50005 18.0001 8.18633 18.0001 11.5C18.0001 13.5925 16.7039 14.8514 15.5382 15.9834L15.4161 16.1016C15.279 16.2351 15.2004 16.4218 15.2003 16.6211V17.25C15.2003 18.4925 14.1928 19.4998 12.9503 19.5H11.049C9.80694 19.4998 8.79958 18.493 8.79895 17.251V16.5928C8.79885 16.4003 8.72578 16.224 8.60266 16.0986C8.49915 15.9933 8.39346 15.8875 8.28723 15.7812C7.18597 14.6795 6.00012 13.4928 6.00012 11.5C6.00012 8.18629 8.68641 5.5 12.0001 5.5ZM12.0001 7C9.51484 7 7.50012 9.01472 7.50012 11.5C7.50012 12.8483 8.23946 13.5956 9.4093 14.7793C9.49506 14.8661 9.5827 14.956 9.67297 15.0479C10.0831 15.4653 10.2987 16.0233 10.299 16.5918V17.25C10.2992 17.6639 10.6351 17.9998 11.049 18H12.9503C13.3644 17.9998 13.7003 17.6641 13.7003 17.25V16.6211C13.7004 16.0249 13.9373 15.4477 14.3702 15.0264C15.6502 13.7805 16.5001 12.9357 16.5001 11.5C16.5001 9.01475 14.4854 7.00005 12.0001 7ZM3.75012 11C4.16429 11.0001 4.50012 11.3358 4.50012 11.75C4.50012 12.1642 4.16429 12.4999 3.75012 12.5H2.25012C1.83591 12.5 1.50012 12.1642 1.50012 11.75C1.50012 11.3358 1.83591 11 2.25012 11H3.75012ZM21.7501 11C22.1643 11.0001 22.5001 11.3358 22.5001 11.75C22.5001 12.1642 22.1643 12.4999 21.7501 12.5H20.2501C19.8359 12.5 19.5001 12.1642 19.5001 11.75C19.5001 11.3358 19.8359 11 20.2501 11H21.7501ZM4.46985 4.21973C4.76275 3.92688 5.23752 3.92685 5.5304 4.21973L6.59094 5.28027C6.88377 5.57315 6.88377 6.04794 6.59094 6.34082C6.29807 6.63369 5.82329 6.63366 5.5304 6.34082L4.46985 5.28027C4.17696 4.98738 4.17696 4.51262 4.46985 4.21973ZM18.4698 4.21973C18.7627 3.92688 19.2375 3.92685 19.5304 4.21973C19.8232 4.51261 19.8232 4.98739 19.5304 5.28027L18.4698 6.34082C18.177 6.63369 17.7022 6.63366 17.4093 6.34082C17.1164 6.04793 17.1164 5.57317 17.4093 5.28027L18.4698 4.21973ZM12.0001 1C12.4143 1.00005 12.7501 1.33582 12.7501 1.75V3.25C12.7501 3.66418 12.4143 3.99995 12.0001 4C11.5859 4 11.2501 3.66421 11.2501 3.25V1.75C11.2501 1.33579 11.5859 1 12.0001 1Z" fill="#000001"/>
</g>
</svg>
