<svg width="16" height="16" viewBox="0 0 16 16" fill="none" xmlns="http://www.w3.org/2000/svg">
<g id="size=16">
<path id="Path" d="M9.82324 1C10.2985 1 10.7335 1.26936 10.9443 1.69531L11.4844 2.78906L12.9414 2.91309C14.1055 3.01248 14.9998 3.98598 15 5.1543V11.75C15 12.9926 13.9926 14 12.75 14H3.25C2.00736 14 1 12.9926 1 11.75V5.1543C1.00016 3.98598 1.89452 3.01248 3.05859 2.91309L4.51562 2.78906L5.05566 1.69531C5.2665 1.26936 5.70147 1 6.17676 1H9.82324ZM5.67188 3.83301C5.55545 4.0679 5.32471 4.2248 5.06348 4.24707L3.18652 4.40723C2.79851 4.4403 2.50016 4.76491 2.5 5.1543V11.75C2.5 12.1642 2.83579 12.5 3.25 12.5H12.75C13.1642 12.5 13.5 12.1642 13.5 11.75V5.1543C13.4998 4.76491 13.2015 4.4403 12.8135 4.40723L10.9365 4.24707C10.6753 4.2248 10.4445 4.0679 10.3281 3.83301L9.66797 2.5H6.33203L5.67188 3.83301ZM8 5C9.65685 5 11 6.34315 11 8C11 9.65685 9.65685 11 8 11C6.34315 11 5 9.65685 5 8C5 6.34315 6.34315 5 8 5ZM8 6.5C7.17157 6.5 6.5 7.17157 6.5 8C6.5 8.82843 7.17157 9.5 8 9.5C8.82843 9.5 9.5 8.82843 9.5 8C9.5 7.17157 8.82843 6.5 8 6.5ZM4.00977 5C4.56205 5 5.00977 5.44772 5.00977 6C5.00977 6.55228 4.56205 7 4.00977 7H4C3.44772 7 3 6.55228 3 6C3 5.44772 3.44772 5 4 5H4.00977Z" fill="#000001"/>
</g>
</svg>
