<svg width="16" height="16" viewBox="0 0 16 16" fill="none" xmlns="http://www.w3.org/2000/svg">
<g id="size=16">
<g id="Path">
<path fill-rule="evenodd" clip-rule="evenodd" d="M1.21967 1.21967C1.51256 0.926777 1.98744 0.926777 2.28033 1.21967L14.7803 13.7197C15.0732 14.0126 15.0732 14.4874 14.7803 14.7803C14.4874 15.0732 14.0126 15.0732 13.7197 14.7803L12.9393 14H3.25C2.00736 14 1 12.9926 1 11.75V5.15461C1 4.32148 1.4547 3.58722 2.1377 3.19836L1.21967 2.28033C0.926777 1.98744 0.926777 1.51256 1.21967 1.21967ZM9.52387 10.5845L11.4393 12.5H3.25C2.83579 12.5 2.5 12.1642 2.5 11.75V5.15461C2.5 4.76509 2.79819 4.4404 3.1863 4.40732L3.33406 4.39472L5.41548 6.47614C5.15172 6.92272 5 7.44398 5 8C5 9.65686 6.34315 11 8 11C8.55602 11 9.07728 10.8483 9.52387 10.5845ZM8.38866 9.44932L6.55069 7.61135C6.5176 7.73524 6.5 7.86549 6.5 8C6.5 8.82843 7.17157 9.5 8 9.5C8.13452 9.5 8.26477 9.4824 8.38866 9.44932Z" fill="#000001"/>
<path d="M5.86585 1H9.82368C10.299 1 10.7332 1.26962 10.944 1.69567L11.4848 2.7886L12.9411 2.91274C14.1054 3.01199 15 3.98604 15 5.15461V10.75C15 11.1642 14.6642 11.5 14.25 11.5C13.8358 11.5 13.5 11.1642 13.5 10.75V5.15461C13.5 4.76509 13.2018 4.4404 12.8137 4.40732L10.9363 4.24729C10.6749 4.22501 10.4441 4.06775 10.3278 3.8326L9.66845 2.5H5.86585C5.45164 2.5 5.11585 2.16421 5.11585 1.75C5.11585 1.33579 5.45164 1 5.86585 1Z" fill="#000001"/>
</g>
</g>
</svg>
