<svg width="24" height="24" viewBox="0 0 24 24" fill="none" xmlns="http://www.w3.org/2000/svg">
<g id="size=24">
<path id="Path" d="M14.9062 2C15.5466 2 16.1357 2.34993 16.4424 2.91211L17.457 4.77051L20.3809 4.91016C21.8471 4.98001 23 6.18932 23 7.65723V19.25C23 20.7688 21.7688 22 20.25 22H3.75C2.23122 22 1 20.7688 1 19.25V7.65723C1 6.18932 2.1529 4.98001 3.61914 4.91016L6.54297 4.77051L7.55762 2.91211C7.86428 2.34993 8.45337 2 9.09375 2H14.9062ZM9.09375 3.5C9.00236 3.5 8.91787 3.54972 8.87402 3.62988L7.6582 5.85938C7.53292 6.08883 7.29726 6.23643 7.03613 6.24902L3.69043 6.4082C3.02399 6.43999 2.5 6.99002 2.5 7.65723V19.25C2.5 19.9404 3.05964 20.5 3.75 20.5H20.25C20.9404 20.5 21.5 19.9404 21.5 19.25V7.65723C21.5 6.99002 20.976 6.43999 20.3096 6.4082L16.9639 6.24902C16.7027 6.23643 16.4671 6.08883 16.3418 5.85938L15.126 3.62988C15.0821 3.54972 14.9976 3.5 14.9062 3.5H9.09375ZM12 8C14.7614 8 17 10.2386 17 13C17 15.7614 14.7614 18 12 18C9.23858 18 7 15.7614 7 13C7 10.2386 9.23858 8 12 8ZM12 9.5C10.067 9.5 8.5 11.067 8.5 13C8.5 14.933 10.067 16.5 12 16.5C13.933 16.5 15.5 14.933 15.5 13C15.5 11.067 13.933 9.5 12 9.5ZM5.00977 8C5.56205 8 6.00977 8.44772 6.00977 9C6.00977 9.55228 5.56205 10 5.00977 10H5C4.44772 10 4 9.55228 4 9C4 8.44772 4.44772 8 5 8H5.00977Z" fill="#000001"/>
</g>
</svg>
