<svg width="16" height="16" viewBox="0 0 16 16" fill="none" xmlns="http://www.w3.org/2000/svg">
<g id="size=16">
<path id="Path" fill-rule="evenodd" clip-rule="evenodd" d="M10.7 9.23926C10.9822 8.93814 11.4579 8.91914 11.7606 9.2002C12.0607 9.48159 12.0783 9.95799 11.7996 10.2607L8.54965 13.7607C8.40889 13.9122 8.20651 13.9986 7.99984 14C7.79253 13.9999 7.59175 13.912 7.45004 13.7607L4.20004 10.2607C3.9182 9.95721 3.93655 9.48204 4.24008 9.2002C4.54366 8.92128 5.01869 8.93695 5.29965 9.23926L7.99984 12.1475L10.7 9.23926ZM7.99984 2C8.2065 2.00138 8.40889 2.08781 8.54965 2.23926L11.7996 5.73926C12.0783 6.04201 12.0607 6.51841 11.7606 6.7998C11.4579 7.08085 10.9822 7.06186 10.7 6.76074L7.99984 3.85254L5.29965 6.76074C5.01869 7.06305 4.54366 7.07872 4.24008 6.7998C3.93655 6.51796 3.9182 6.04279 4.20004 5.73926L7.45004 2.23926C7.59175 2.08804 7.79253 2.00007 7.99984 2Z" fill="#000001"/>
</g>
</svg>
