<svg width="16" height="16" viewBox="0 0 16 16" fill="none" xmlns="http://www.w3.org/2000/svg">
<g id="size=16">
<g id="Path">
<path d="M8.5496 2.23966C8.40769 2.08684 8.20855 2 8 2C7.79145 2 7.59232 2.08684 7.45041 2.23966L4.20041 5.73966C3.91856 6.04319 3.93613 6.51774 4.23966 6.79959C4.5432 7.08145 5.01775 7.06387 5.2996 6.76034L8 3.85221L10.7004 6.76034C10.9823 7.06387 11.4568 7.08145 11.7603 6.79959C12.0639 6.51774 12.0815 6.04319 11.7996 5.73966L8.5496 2.23966Z" fill="#000001"/>
<path d="M7.4504 13.7603C7.59231 13.9132 7.79144 14 8 14C8.20855 14 8.40768 13.9132 8.54959 13.7603L11.7996 10.2603C12.0814 9.95681 12.0639 9.48226 11.7603 9.20041C11.4568 8.91855 10.9823 8.93613 10.7004 9.23966L8 12.1478L5.29959 9.23966C5.01774 8.93613 4.54319 8.91855 4.23966 9.20041C3.93612 9.48226 3.91855 9.95681 4.2004 10.2603L7.4504 13.7603Z" fill="#000001"/>
</g>
</g>
</svg>
