<svg width="24" height="24" viewBox="0 0 24 24" fill="none" xmlns="http://www.w3.org/2000/svg">
<g id="size=24">
<path id="Path" fill-rule="evenodd" clip-rule="evenodd" d="M16.707 14.2324C16.993 13.9339 17.4682 13.9217 17.7675 14.207C18.0658 14.4928 18.0767 14.9682 17.7919 15.2676L12.5419 20.7676C12.4009 20.9153 12.2041 20.9995 11.9999 21C11.7954 21 11.5984 20.9152 11.457 20.7676L6.20697 15.2676C5.92129 14.9679 5.93285 14.4929 6.23236 14.207C6.53204 13.9224 7.00637 13.9333 7.29193 14.2324L11.9999 19.1641L16.707 14.2324ZM11.9999 3C12.2041 3.00055 12.4009 3.0847 12.5419 3.23242L17.7919 8.73242C18.0767 9.03176 18.0658 9.50717 17.7675 9.79297C17.4682 10.0783 16.993 10.0661 16.707 9.76758L11.9999 4.83594L7.29193 9.76758C7.00637 10.0667 6.53204 10.0776 6.23236 9.79297C5.93285 9.50707 5.92129 9.03206 6.20697 8.73242L11.457 3.23242C11.5984 3.08476 11.7954 3 11.9999 3Z" fill="#000001"/>
</g>
</svg>
