<svg width="24" height="24" viewBox="0 0 24 24" fill="none" xmlns="http://www.w3.org/2000/svg">
<g id="size=24">
<g id="Path">
<path d="M3.75012 3C2.23134 3 1.00012 4.23122 1.00012 5.75V8C1.00012 8.41421 1.33591 8.75 1.75012 8.75C2.16434 8.75 2.50012 8.41421 2.50012 8V5.75C2.50012 5.05964 3.05977 4.5 3.75012 4.5H20.2501C20.9405 4.5 21.5001 5.05964 21.5001 5.75V18.25C21.5001 18.9404 20.9405 19.5 20.2501 19.5H14.0001C13.5859 19.5 13.2501 19.8358 13.2501 20.25C13.2501 20.6642 13.5859 21 14.0001 21H20.2501C21.7689 21 23.0001 19.7688 23.0001 18.25V5.75C23.0001 4.23122 21.7689 3 20.2501 3H3.75012Z" fill="#000001"/>
<path d="M1.83305 11.0046C1.42138 10.9588 1.05053 11.2554 1.00474 11.6671C0.958957 12.0788 1.25557 12.4496 1.66724 12.4954C3.6693 12.7181 5.53599 13.6154 6.96038 15.0398C8.38477 16.4642 9.28208 18.3309 9.50474 20.3329C9.55053 20.7446 9.92138 21.0412 10.3331 20.9954C10.7447 20.9496 11.0413 20.5788 10.9956 20.1671C10.7352 17.8266 9.68624 15.6443 8.02104 13.9791C6.35584 12.3139 4.17357 11.2649 1.83305 11.0046Z" fill="#000001"/>
<path d="M1.90002 15.3453C1.49416 15.2625 1.09805 15.5245 1.01527 15.9303C0.932502 16.3362 1.19442 16.7323 1.60027 16.8151C2.48351 16.9952 3.29427 17.4311 3.93167 18.0685C4.56907 18.7059 5.00496 19.5166 5.18509 20.3999C5.26786 20.8057 5.66397 21.0676 6.06983 20.9849C6.47569 20.9021 6.7376 20.506 6.65483 20.1001C6.41591 18.9286 5.83776 17.8533 4.99233 17.0078C4.1469 16.1624 3.07152 15.5842 1.90002 15.3453Z" fill="#000001"/>
</g>
</g>
</svg>
