<svg width="16" height="16" viewBox="0 0 16 16" fill="none" xmlns="http://www.w3.org/2000/svg">
<g id="size=16">
<g id="Path">
<path d="M3.25012 2C2.00748 2 1.00012 3.00736 1.00012 4.25V5.48C1.00012 5.89421 1.33591 6.23 1.75012 6.23C2.16434 6.23 2.50012 5.89421 2.50012 5.48V4.25C2.50012 3.83579 2.83591 3.5 3.25012 3.5H12.7501C13.1643 3.5 13.5001 3.83579 13.5001 4.25V11.75C13.5001 12.1642 13.1643 12.5 12.7501 12.5H9.72426C9.31005 12.5 8.97426 12.8358 8.97426 13.25C8.97426 13.6642 9.31005 14 9.72426 14H12.7501C13.9928 14 15.0001 12.9926 15.0001 11.75V4.25C15.0001 3.00736 13.9928 2 12.7501 2H3.25012Z" fill="#000001"/>
<path d="M1.83305 7.50454C1.42138 7.45875 1.05053 7.75536 1.00474 8.16704C0.958957 8.57872 1.25557 8.94956 1.66724 8.99535C2.77524 9.11858 3.80832 9.61517 4.59662 10.4035C5.38492 11.1918 5.88151 12.2249 6.00474 13.3328C6.05053 13.7445 6.42138 14.0411 6.83305 13.9953C7.24473 13.9496 7.54134 13.5787 7.49555 13.167C7.33468 11.7206 6.68639 10.3719 5.65728 9.34281C4.62817 8.3137 3.27951 7.66542 1.83305 7.50454Z" fill="#000001"/>
<path d="M1.90002 10.0622C1.49416 9.97947 1.09805 10.2414 1.01527 10.6472C0.932502 11.0531 1.19442 11.4492 1.60027 11.532C2.06048 11.6258 2.48292 11.853 2.81503 12.1851C3.14714 12.5172 3.37425 12.9396 3.46811 13.3998C3.55088 13.8057 3.94699 14.0676 4.35285 13.9848C4.75871 13.902 5.02062 13.5059 4.93785 13.1001C4.78521 12.3516 4.41583 11.6645 3.87569 11.1244C3.33555 10.5843 2.64849 10.2149 1.90002 10.0622Z" fill="#000001"/>
</g>
</g>
</svg>
