<svg width="24" height="24" viewBox="0 0 24 24" fill="none" xmlns="http://www.w3.org/2000/svg">
<g id="size=24">
<path id="Path" d="M18.25 1C19.7688 1 21 2.23122 21 3.75V18.25C21 19.7688 19.7688 21 18.25 21H16.7646L16.9854 22.1025C17.0409 22.3803 16.9349 22.6662 16.7119 22.8408C16.4889 23.0152 16.1868 23.0492 15.9307 22.9287L12 21.0791L8.06934 22.9287C7.8132 23.0492 7.51106 23.0152 7.28809 22.8408C7.06506 22.6662 6.9591 22.3803 7.01465 22.1025L7.23535 21H5.75C4.23122 21 3 19.7688 3 18.25V3.75C3 2.23122 4.23122 1 5.75 1H18.25ZM14.501 17.3301C13.7653 17.7559 12.9112 18 12 18C11.0888 18 10.2347 17.7559 9.49902 17.3301L8.77734 20.9375L11.6807 19.5713C11.8829 19.4761 12.1171 19.4761 12.3193 19.5713L15.2227 20.9375L14.501 17.3301ZM5.75 2.5C5.05964 2.5 4.5 3.05964 4.5 3.75V18.25C4.5 18.9404 5.05964 19.5 5.75 19.5H7.53516L8.18848 16.2354C7.4475 15.3633 7 14.234 7 13C7 10.2386 9.23858 8 12 8C14.7614 8 17 10.2386 17 13C17 14.234 16.5525 15.3633 15.8115 16.2354L16.4648 19.5H18.25C18.9404 19.5 19.5 18.9404 19.5 18.25V3.75C19.5 3.05964 18.9404 2.5 18.25 2.5H5.75ZM12 9.5C10.067 9.5 8.5 11.067 8.5 13C8.5 13.9319 8.86421 14.7791 9.45801 15.4062C9.50891 15.4456 9.55482 15.4906 9.59375 15.541C10.221 16.1352 11.0678 16.5 12 16.5C12.9322 16.5 13.779 16.1352 14.4062 15.541C14.4452 15.4907 14.4911 15.4455 14.542 15.4062C15.1359 14.779 15.5 13.9319 15.5 13C15.5 11.067 13.933 9.5 12 9.5ZM14 5C14.4142 5 14.75 5.33579 14.75 5.75C14.75 6.16421 14.4142 6.5 14 6.5H10C9.58579 6.5 9.25 6.16421 9.25 5.75C9.25 5.33579 9.58579 5 10 5H14Z" fill="#000001"/>
</g>
</svg>
