<svg width="16" height="16" viewBox="0 0 16 16" fill="none" xmlns="http://www.w3.org/2000/svg">
<g id="size=16">
<g id="Union">
<path d="M8.5861 7.53208C9.06275 8.12907 9.45043 8.36629 9.72149 8.45263C9.97709 8.53405 10.1986 8.50404 10.411 8.41179C10.6391 8.31273 10.8526 8.14168 11.0381 7.95444C11.1283 7.86344 11.2058 7.77492 11.2718 7.69697L11.3019 7.66098C11.35 7.60327 11.4215 7.51763 11.4712 7.4682C11.7649 7.17614 12.2398 7.1775 12.5318 7.47122C12.8217 7.76272 12.8225 8.23263 12.5354 8.52521C12.5352 8.52547 12.5347 8.52608 12.5338 8.5271C12.5307 8.53061 12.5235 8.53892 12.5106 8.55424L12.4858 8.58381C12.4641 8.60962 12.4344 8.64509 12.4167 8.66601C12.3386 8.75833 12.2328 8.87989 12.1036 9.01022C11.8505 9.26563 11.4814 9.58228 11.0086 9.78763C10.5201 9.99978 9.92246 10.0909 9.26623 9.88187C8.62546 9.67776 8.00868 9.21294 7.4139 8.468C6.93725 7.87101 6.54957 7.63381 6.27852 7.54747C6.02293 7.46606 5.80138 7.49607 5.58897 7.58833C5.36088 7.6874 5.14742 7.85846 4.96188 8.0457C4.87171 8.1367 4.79421 8.22522 4.72822 8.30317L4.69815 8.33908C4.65 8.3968 4.57848 8.48252 4.52869 8.53201C4.23489 8.82399 3.76002 8.82252 3.46803 8.52873C3.17827 8.23717 3.17751 7.76729 3.46464 7.47478C3.46486 7.47452 3.4654 7.47391 3.46627 7.47291C3.46932 7.46941 3.47657 7.4611 3.48949 7.4458L3.51394 7.41665C3.53568 7.3907 3.56582 7.35472 3.5833 7.33407C3.66143 7.24177 3.76724 7.12023 3.89638 6.9899C4.14945 6.7345 4.51859 6.41786 4.99139 6.21251C5.47987 6.00034 6.07752 5.9092 6.73376 6.11822C7.37454 6.32232 7.99132 6.78714 8.5861 7.53208Z" fill="#000001"/>
<path fill-rule="evenodd" clip-rule="evenodd" d="M3.25 1C2.00736 1 1 2.00736 1 3.25V12.75C1 13.9926 2.00736 15 3.25 15H12.75C13.9926 15 15 13.9926 15 12.75V3.25C15 2.00736 13.9926 1 12.75 1H3.25ZM2.5 3.25C2.5 2.83579 2.83579 2.5 3.25 2.5H12.75C13.1642 2.5 13.5 2.83579 13.5 3.25V12.75C13.5 13.1642 13.1642 13.5 12.75 13.5H3.25C2.83579 13.5 2.5 13.1642 2.5 12.75V3.25Z" fill="#000001"/>
</g>
</g>
</svg>
