<svg width="24" height="24" viewBox="0 0 24 24" fill="none" xmlns="http://www.w3.org/2000/svg">
<g id="size=24">
<path id="Path" fill-rule="evenodd" clip-rule="evenodd" d="M16.6035 5.5H13C12.3096 5.5 11.75 6.05964 11.75 6.75V11.25H15.3535C15.68 10.0957 16.7412 9.25 18 9.25C19.5188 9.25 20.75 10.4812 20.75 12C20.75 13.5188 19.5188 14.75 18 14.75C16.7412 14.75 15.68 13.9043 15.3535 12.75H11.75V17.25C11.75 17.9404 12.3096 18.5 13 18.5H16.6035C16.93 17.3457 17.9912 16.5 19.25 16.5C20.7688 16.5 22 17.7312 22 19.25C22 20.7688 20.7688 22 19.25 22C17.9912 22 16.93 21.1543 16.6035 20H13C11.4812 20 10.25 18.7688 10.25 17.25V12.75H7.39648C7.07002 13.9043 6.00878 14.75 4.75 14.75C3.23122 14.75 2 13.5188 2 12C2 10.4812 3.23122 9.25 4.75 9.25C6.00878 9.25 7.07002 10.0957 7.39648 11.25H10.25V6.75C10.25 5.23122 11.4812 4 13 4H16.6035C16.93 2.84575 17.9912 2 19.25 2C20.7688 2 22 3.23122 22 4.75C22 6.26878 20.7688 7.5 19.25 7.5C17.9912 7.5 16.93 6.65425 16.6035 5.5ZM18 4.75C18 4.05964 18.5596 3.5 19.25 3.5C19.9404 3.5 20.5 4.05964 20.5 4.75C20.5 5.44036 19.9404 6 19.25 6C18.5596 6 18 5.44036 18 4.75ZM4.75 10.75C4.05964 10.75 3.5 11.3096 3.5 12C3.5 12.6904 4.05964 13.25 4.75 13.25C5.44036 13.25 6 12.6904 6 12C6 11.3096 5.44036 10.75 4.75 10.75ZM18 10.75C17.3096 10.75 16.75 11.3096 16.75 12C16.75 12.6904 17.3096 13.25 18 13.25C18.6904 13.25 19.25 12.6904 19.25 12C19.25 11.3096 18.6904 10.75 18 10.75ZM18 19.25C18 18.5596 18.5596 18 19.25 18C19.9404 18 20.5 18.5596 20.5 19.25C20.5 19.9404 19.9404 20.5 19.25 20.5C18.5596 20.5 18 19.9404 18 19.25Z" fill="#000001"/>
</g>
</svg>
