<svg width="24" height="24" viewBox="0 0 24 24" fill="none" xmlns="http://www.w3.org/2000/svg">
<g id="size=24">
<path id="Path" d="M19.25 1.99952C20.7686 1.99952 21.9997 3.23096 22 4.74952C22 6.26829 20.7688 7.49952 19.25 7.49952C17.9912 7.49952 16.93 6.65376 16.6035 5.49952H13C12.3098 5.49952 11.7503 6.05938 11.75 6.74952V11.2495H15.3535C15.6801 10.0955 16.7414 9.24952 18 9.24952C19.5186 9.24952 20.7497 10.481 20.75 11.9995C20.75 13.5183 19.5188 14.7495 18 14.7495C16.7412 14.7495 15.68 13.9038 15.3535 12.7495H11.75V17.2495C11.75 17.9399 12.3097 18.4995 13 18.4995H16.6035C16.9301 17.3455 17.9914 16.4995 19.25 16.4995C20.7686 16.4995 21.9997 17.731 22 19.2495C22 20.7683 20.7688 21.9995 19.25 21.9995C17.9912 21.9995 16.93 21.1538 16.6035 19.9995H13C11.4812 19.9995 10.25 18.7683 10.25 17.2495V12.7495H7.39648C7.07001 13.9038 6.00877 14.7495 4.75 14.7495C3.23123 14.7495 2.00002 13.5183 2 11.9995C2.00026 10.481 3.23138 9.24952 4.75 9.24952C6.00862 9.24952 7.06987 10.0955 7.39648 11.2495H10.25V6.74952C10.2503 5.23096 11.4814 3.99952 13 3.99952H16.6035C16.9301 2.84549 17.9914 1.99952 19.25 1.99952ZM19.25 17.9995C18.5598 17.9995 18.0003 18.5594 18 19.2495C18 19.9399 18.5597 20.4995 19.25 20.4995C19.9403 20.4995 20.5 19.9399 20.5 19.2495C20.4997 18.5594 19.9402 17.9995 19.25 17.9995ZM4.75 10.7495C4.0598 10.7495 3.50026 11.3094 3.5 11.9995C3.50002 12.6899 4.05965 13.2495 4.75 13.2495C5.44035 13.2495 5.99998 12.6899 6 11.9995C5.99974 11.3094 5.4402 10.7495 4.75 10.7495ZM18 10.7495C17.3098 10.7495 16.7503 11.3094 16.75 11.9995C16.75 12.6899 17.3097 13.2495 18 13.2495C18.6903 13.2495 19.25 12.6899 19.25 11.9995C19.2497 11.3094 18.6902 10.7495 18 10.7495ZM19.25 3.49952C18.5598 3.49952 18.0003 4.05938 18 4.74952C18 5.43986 18.5597 5.99952 19.25 5.99952C19.9403 5.99952 20.5 5.43986 20.5 4.74952C20.4997 4.05938 19.9402 3.49952 19.25 3.49952Z" fill="#000001"/>
</g>
</svg>
