<svg width="16" height="16" viewBox="0 0 16 16" fill="none" xmlns="http://www.w3.org/2000/svg">
<g id="size=16">
<path id="Path" d="M8 0C12.4183 0 16 3.58172 16 8C16 12.4183 12.4183 16 8 16C3.58172 16 0 12.4183 0 8C0 3.58172 3.58172 0 8 0ZM8 1.5C4.41015 1.5 1.5 4.41015 1.5 8C1.5 11.5899 4.41015 14.5 8 14.5C11.5899 14.5 14.5 11.5899 14.5 8C14.5 4.41015 11.5899 1.5 8 1.5ZM4.99121 6.21289C5.47961 6.00076 6.07729 5.90928 6.7334 6.11816C7.37418 6.32226 7.99116 6.78728 8.58594 7.53223C9.06258 8.12921 9.45062 8.36581 9.72168 8.45215C9.97724 8.53355 10.1987 8.50434 10.4111 8.41211C10.6392 8.31305 10.8526 8.14135 11.0381 7.9541C11.1281 7.86328 11.2056 7.7751 11.2715 7.69727L11.3018 7.66113C11.3499 7.60343 11.421 7.51721 11.4707 7.46777C11.7644 7.17571 12.2402 7.17795 12.5322 7.47168C12.8217 7.76321 12.8221 8.23296 12.5352 8.52539L12.5342 8.52734C12.5311 8.53085 12.5237 8.53937 12.5107 8.55469L12.4854 8.58398C12.4638 8.60971 12.4346 8.64516 12.417 8.66602C12.3389 8.7583 12.2326 8.8795 12.1035 9.00977C11.8504 9.26518 11.4816 9.58274 11.0088 9.78809C10.5204 10.0002 9.92271 10.0907 9.2666 9.88184C8.62583 9.67773 8.00884 9.21272 7.41406 8.46777C6.93744 7.87083 6.54936 7.63418 6.27832 7.54785C6.02279 7.46648 5.80124 7.49567 5.58887 7.58789C5.36077 7.68696 5.14746 7.85865 4.96191 8.0459C4.87193 8.13671 4.79441 8.2249 4.72852 8.30273L4.69824 8.33887C4.65009 8.39658 4.57811 8.48275 4.52832 8.53223C4.2345 8.82392 3.75966 8.82202 3.46777 8.52832C3.17835 8.23674 3.17782 7.767 3.46484 7.47461C3.46633 7.47288 3.47362 7.46481 3.48926 7.44629L3.51367 7.41699C3.53537 7.3911 3.56556 7.3546 3.58301 7.33398C3.66111 7.24171 3.7674 7.12052 3.89648 6.99023C4.14951 6.73489 4.51855 6.41825 4.99121 6.21289Z" fill="#000001"/>
</g>
</svg>
