<svg width="16" height="16" viewBox="0 0 16 16" fill="none" xmlns="http://www.w3.org/2000/svg">
<g id="size=16">
<path id="Path" d="M12.75 1C13.9926 1 15 2.00736 15 3.25C15 4.49264 13.9926 5.5 12.75 5.5C11.6792 5.5 10.783 4.75199 10.5557 3.75H9C8.30964 3.75 7.75 4.30964 7.75 5V7.25H9.37793C9.68681 6.37611 10.5203 5.75 11.5 5.75C12.7426 5.75 13.75 6.75736 13.75 8C13.75 9.24264 12.7426 10.25 11.5 10.25C10.5203 10.25 9.68681 9.62389 9.37793 8.75H7.75V11C7.75 11.6904 8.30964 12.25 9 12.25H10.5557C10.783 11.248 11.6792 10.5 12.75 10.5C13.9926 10.5 15 11.5074 15 12.75C15 13.9926 13.9926 15 12.75 15C11.8666 15 11.1016 14.4909 10.7334 13.75H9C7.48122 13.75 6.25 12.5188 6.25 11V8.75H5.37207C5.06319 9.62389 4.22966 10.25 3.25 10.25C2.00736 10.25 1 9.24264 1 8C1 6.75736 2.00736 5.75 3.25 5.75C4.22966 5.75 5.06319 6.37611 5.37207 7.25H6.25V5C6.25 3.48122 7.48122 2.25 9 2.25H10.7334C11.1016 1.50914 11.8666 1 12.75 1ZM12.75 12C12.3358 12 12 12.3358 12 12.75C12 13.1642 12.3358 13.5 12.75 13.5C13.1642 13.5 13.5 13.1642 13.5 12.75C13.5 12.3358 13.1642 12 12.75 12ZM3.25 7.25C2.83579 7.25 2.5 7.58579 2.5 8C2.5 8.41421 2.83579 8.75 3.25 8.75C3.65965 8.75 3.99271 8.42158 4 8.01367V7.98633C3.99271 7.57842 3.65965 7.25 3.25 7.25ZM11.5 7.25C11.0858 7.25 10.75 7.58579 10.75 8C10.75 8.41421 11.0858 8.75 11.5 8.75C11.9142 8.75 12.25 8.41421 12.25 8C12.25 7.58579 11.9142 7.25 11.5 7.25ZM12.75 2.5C12.3358 2.5 12 2.83579 12 3.25C12 3.66421 12.3358 4 12.75 4C13.1642 4 13.5 3.66421 13.5 3.25C13.5 2.83579 13.1642 2.5 12.75 2.5Z" fill="#000001"/>
</g>
</svg>
