<svg width="24" height="24" viewBox="0 0 24 24" fill="none" xmlns="http://www.w3.org/2000/svg">
<g id="size=24">
<path id="Path" d="M19.25 1.99979C20.7686 1.99979 21.9997 3.23123 22 4.74979C21.9998 6.26844 20.7687 7.49979 19.25 7.49979C17.9913 7.49979 16.9301 6.6539 16.6035 5.49979H13C12.3098 5.49979 11.7503 6.05966 11.75 6.74979V11.2498H15.3535C15.6801 10.0958 16.7414 9.24979 18 9.24979C19.5186 9.24979 20.7497 10.4812 20.75 11.9998C20.7498 13.5184 19.5187 14.7498 18 14.7498C16.7413 14.7498 15.6801 13.9039 15.3535 12.7498H11.75V17.2498C11.7502 17.94 12.3097 18.4998 13 18.4998H16.6035C16.9301 17.3458 17.9914 16.4998 19.25 16.4998C20.7686 16.4998 21.9997 17.7312 22 19.2498C21.9998 20.7684 20.7687 21.9998 19.25 21.9998C17.9913 21.9998 16.9301 21.1539 16.6035 19.9998H13C11.4813 19.9998 10.2502 18.7684 10.25 17.2498V12.7498H7.39648C7.06993 13.9039 6.00867 14.7498 4.75 14.7498C3.23132 14.7498 2.00016 13.5184 2 11.9998C2.00026 10.4812 3.23138 9.24979 4.75 9.24979C6.00862 9.24979 7.06987 10.0958 7.39648 11.2498H10.25V6.74979C10.2503 5.23123 11.4814 3.99979 13 3.99979H16.6035C16.9301 2.84577 17.9914 1.99979 19.25 1.99979ZM19.25 17.9998C18.5598 17.9998 18.0003 18.5597 18 19.2498C18.0002 19.94 18.5597 20.4998 19.25 20.4998C19.9403 20.4998 20.4998 19.94 20.5 19.2498C20.4997 18.5597 19.9402 17.9998 19.25 17.9998ZM4.75 10.7498C4.0598 10.7498 3.50026 11.3097 3.5 11.9998C3.50016 12.69 4.05975 13.2498 4.75 13.2498C5.44025 13.2498 5.99984 12.69 6 11.9998C5.99974 11.3097 5.4402 10.7498 4.75 10.7498ZM18 10.7498C17.3098 10.7498 16.7503 11.3097 16.75 11.9998C16.7502 12.69 17.3097 13.2498 18 13.2498C18.6903 13.2498 19.2498 12.69 19.25 11.9998C19.2497 11.3097 18.6902 10.7498 18 10.7498ZM19.25 3.49979C18.5598 3.49979 18.0003 4.05966 18 4.74979C18.0002 5.44001 18.5597 5.99979 19.25 5.99979C19.9403 5.99979 20.4998 5.44001 20.5 4.74979C20.4997 4.05966 19.9402 3.49979 19.25 3.49979Z" fill="#000001"/>
</g>
</svg>
