<svg width="16" height="16" viewBox="0 0 16 16" fill="none" xmlns="http://www.w3.org/2000/svg">
<g id="size=16">
<path id="Path" fill-rule="evenodd" clip-rule="evenodd" d="M9.72149 8.45252C9.45043 8.36618 9.06275 8.12896 8.5861 7.53197C7.99132 6.78703 7.37454 6.32221 6.73376 6.11811C6.07752 5.90909 5.47987 6.00023 4.99139 6.2124C4.51859 6.41775 4.14945 6.7344 3.89638 6.9898C3.76724 7.12012 3.66143 7.24167 3.5833 7.33397C3.56582 7.35462 3.53568 7.39059 3.51394 7.41654C3.50231 7.43042 3.49309 7.44143 3.48949 7.4457C3.47288 7.46537 3.46464 7.47468 3.46464 7.47468C3.17751 7.76718 3.17827 8.23706 3.46803 8.52862C3.76002 8.82242 4.23489 8.82389 4.52869 8.5319C4.57848 8.48241 4.65 8.39669 4.69815 8.33897C4.70974 8.32508 4.71997 8.31282 4.72822 8.30307C4.79421 8.22511 4.87171 8.13659 4.96188 8.04559C5.14742 7.85835 5.36088 7.68729 5.58897 7.58822C5.80138 7.49597 6.02293 7.46595 6.27852 7.54736C6.54957 7.6337 6.93725 7.8709 7.4139 8.46789C8.00868 9.21283 8.62546 9.67765 9.26623 9.88176C9.92246 10.0908 10.5201 9.99968 11.0086 9.78752C11.4814 9.58217 11.8505 9.26553 12.1036 9.01011C12.2328 8.87978 12.3386 8.75822 12.4167 8.6659C12.4344 8.64498 12.4641 8.60951 12.4858 8.5837C12.4974 8.56975 12.5068 8.55862 12.5106 8.55413C12.5272 8.5344 12.5354 8.5251 12.5354 8.5251C12.8225 8.23252 12.8217 7.76261 12.5318 7.47111C12.2398 7.17739 11.7649 7.17604 11.4712 7.46809C11.4215 7.51752 11.35 7.60316 11.3019 7.66087C11.2903 7.67479 11.28 7.68709 11.2718 7.69686C11.2058 7.77481 11.1283 7.86333 11.0381 7.95433C10.8526 8.14157 10.6391 8.31262 10.411 8.41168C10.1986 8.50393 9.97709 8.53394 9.72149 8.45252Z" fill="#000001"/>
</g>
</svg>
