<svg width="24" height="24" viewBox="0 0 24 24" fill="none" xmlns="http://www.w3.org/2000/svg">
<g id="size=24">
<path id="Path" d="M19.25 1.99969C20.7686 1.99969 21.9997 3.23113 22 4.74969C21.9999 6.26838 20.7687 7.49969 19.25 7.49969C17.9913 7.49969 16.93 6.65385 16.6035 5.49969H13C12.3098 5.49969 11.7503 6.05956 11.75 6.74969V11.2497H15.3535C15.6801 10.0957 16.7414 9.24969 18 9.24969C19.5186 9.24969 20.7497 10.4811 20.75 11.9997C20.7499 13.5184 19.5187 14.7497 18 14.7497C16.7413 14.7497 15.68 13.9038 15.3535 12.7497H11.75V17.2497C11.7501 17.94 12.3097 18.4997 13 18.4997H16.6035C16.9301 17.3457 17.9914 16.4997 19.25 16.4997C20.7686 16.4997 21.9997 17.7311 22 19.2497C21.9999 20.7684 20.7687 21.9997 19.25 21.9997C17.9913 21.9997 16.93 21.1539 16.6035 19.9997H13C11.4813 19.9997 10.2501 18.7684 10.25 17.2497V12.7497H7.39648C7.06996 13.9038 6.00871 14.7497 4.75 14.7497C3.23129 14.7497 2.00011 13.5184 2 11.9997C2.00026 10.4811 3.23138 9.24969 4.75 9.24969C6.00862 9.24969 7.06987 10.0957 7.39648 11.2497H10.25V6.74969C10.2503 5.23113 11.4814 3.99969 13 3.99969H16.6035C16.9301 2.84567 17.9914 1.99969 19.25 1.99969ZM19.25 17.9997C18.5598 17.9997 18.0003 18.5596 18 19.2497C18.0001 19.94 18.5597 20.4997 19.25 20.4997C19.9403 20.4997 20.4999 19.94 20.5 19.2497C20.4997 18.5596 19.9402 17.9997 19.25 17.9997ZM4.75 10.7497C4.0598 10.7497 3.50026 11.3096 3.5 11.9997C3.50011 12.69 4.05971 13.2497 4.75 13.2497C5.44029 13.2497 5.99989 12.69 6 11.9997C5.99974 11.3096 5.4402 10.7497 4.75 10.7497ZM18 10.7497C17.3098 10.7497 16.7503 11.3096 16.75 11.9997C16.7501 12.69 17.3097 13.2497 18 13.2497C18.6903 13.2497 19.2499 12.69 19.25 11.9997C19.2497 11.3096 18.6902 10.7497 18 10.7497ZM19.25 3.49969C18.5598 3.49969 18.0003 4.05956 18 4.74969C18.0001 5.43996 18.5597 5.99969 19.25 5.99969C19.9403 5.99969 20.4999 5.43996 20.5 4.74969C20.4997 4.05956 19.9402 3.49969 19.25 3.49969Z" fill="#000001"/>
</g>
</svg>
