<svg width="16" height="16" viewBox="0 0 16 16" fill="none" xmlns="http://www.w3.org/2000/svg">
<g id="size=16">
<path id="Path" d="M12.75 1.00006C13.9926 1.00006 15 2.00742 15 3.25006C15 4.49268 13.9926 5.50006 12.75 5.50006C11.6792 5.50006 10.783 4.75203 10.5557 3.75006H9C8.30964 3.75006 7.75 4.30971 7.75 5.00006V7.25006H9.37793C9.68681 6.37617 10.5203 5.75006 11.5 5.75006C12.7426 5.75006 13.75 6.75742 13.75 8.00006C13.75 9.24267 12.7426 10.2501 11.5 10.2501C10.5204 10.2501 9.68682 9.62393 9.37793 8.75006H7.75V11.0001C7.75003 11.6904 8.30966 12.2501 9 12.2501H10.5557C10.783 11.2481 11.6792 10.5001 12.75 10.5001C13.9926 10.5001 15 11.5074 15 12.7501C15 13.9927 13.9926 15.0001 12.75 15.0001C11.8666 15.0001 11.1016 14.4909 10.7334 13.7501H9C7.48124 13.7501 6.25003 12.5188 6.25 11.0001V8.75006H5.37207C5.06318 9.62393 4.22965 10.2501 3.25 10.2501C2.00738 10.2501 1.00003 9.24267 1 8.00006C1 6.75742 2.00736 5.75006 3.25 5.75006C4.22966 5.75006 5.06319 6.37617 5.37207 7.25006H6.25V5.00006C6.25 3.48128 7.48122 2.25006 9 2.25006H10.7334C11.1016 1.5092 11.8666 1.00006 12.75 1.00006ZM12.75 12.0001C12.3358 12.0001 12 12.3358 12 12.7501C12 13.1642 12.3358 13.5001 12.75 13.5001C13.1642 13.5001 13.5 13.1642 13.5 12.7501C13.5 12.3358 13.1642 12.0001 12.75 12.0001ZM3.25 7.25006C2.83579 7.25006 2.5 7.58585 2.5 8.00006C2.50003 8.41425 2.83581 8.75006 3.25 8.75006C3.65963 8.75006 3.99268 8.42161 4 8.01373V7.98639C3.99271 7.57848 3.65965 7.25006 3.25 7.25006ZM11.5 7.25006C11.0858 7.25006 10.75 7.58585 10.75 8.00006C10.75 8.41425 11.0858 8.75006 11.5 8.75006C11.9142 8.75006 12.25 8.41425 12.25 8.00006C12.25 7.58585 11.9142 7.25006 11.5 7.25006ZM12.75 2.50006C12.3358 2.50006 12 2.83585 12 3.25006C12 3.66425 12.3358 4.00006 12.75 4.00006C13.1642 4.00006 13.5 3.66425 13.5 3.25006C13.5 2.83585 13.1642 2.50006 12.75 2.50006Z" fill="#000001"/>
</g>
</svg>
