<svg width="24" height="24" viewBox="0 0 24 24" fill="none" xmlns="http://www.w3.org/2000/svg">
<g id="size=24">
<path id="Path" d="M12 1C18.0751 1 23 5.92487 23 12C23 18.0751 18.0751 23 12 23C5.92487 23 1 18.0751 1 12C1 5.92487 5.92487 1 12 1ZM12 2.5C6.75329 2.5 2.5 6.75329 2.5 12C2.5 17.2467 6.75329 21.5 12 21.5C17.2467 21.5 21.5 17.2467 21.5 12C21.5 6.75329 17.2467 2.5 12 2.5ZM7.9209 9.75293C8.53864 9.48535 9.28105 9.39118 10.1055 9.66406C10.9104 9.93055 11.7308 10.5254 12.5713 11.5137C13.3021 12.373 13.9067 12.76 14.3662 12.9121C14.806 13.0576 15.1683 13.0076 15.4834 12.8711C16.0701 12.6169 16.4633 12.1086 16.7471 11.7422C16.8132 11.6568 16.8734 11.5787 16.9287 11.5137C17.1971 11.1984 17.6709 11.1604 17.9863 11.4287C18.3016 11.6971 18.3396 12.1709 18.0713 12.4863C18.0598 12.4999 18.0397 12.5267 18.0117 12.5645C17.7941 12.8586 17.0905 13.8089 16.0791 14.2471C15.4614 14.5146 14.7189 14.6088 13.8945 14.3359C13.0896 14.0694 12.2692 13.4746 11.4287 12.4863C10.6981 11.6273 10.0942 11.2401 9.63477 11.0879C9.19482 10.9422 8.83182 10.9924 8.5166 11.1289C7.92998 11.3831 7.53668 11.8914 7.25293 12.2578C7.1868 12.3432 7.12658 12.4213 7.07129 12.4863C6.80288 12.8016 6.3291 12.8396 6.01367 12.5713C5.69837 12.3029 5.66041 11.8291 5.92871 11.5137C5.94022 11.5001 5.96033 11.4733 5.98828 11.4355C6.20589 11.1415 6.90951 10.1911 7.9209 9.75293Z" fill="#000001"/>
</g>
</svg>
