<svg width="16" height="16" viewBox="0 0 16 16" fill="none" xmlns="http://www.w3.org/2000/svg">
<g id="size=16">
<path id="Path" fill-rule="evenodd" clip-rule="evenodd" d="M9.16624 0.329833C8.44947 -0.104574 7.55065 -0.104573 6.83388 0.329833L1.58388 3.51165C0.911031 3.91944 0.500061 4.64907 0.500061 5.43585V10.5642C0.500061 11.351 0.911031 12.0807 1.58388 12.4884L6.83388 15.6703C7.55065 16.1047 8.44947 16.1047 9.16624 15.6703L14.4162 12.4884C15.0891 12.0807 15.5001 11.351 15.5001 10.5642V5.43585C15.5001 4.64907 15.0891 3.91944 14.4162 3.51165L9.16624 0.329833ZM10.2197 5.71972C10.5126 5.42682 10.9874 5.42683 11.2803 5.71972C11.5732 6.01261 11.5732 6.48748 11.2803 6.78038L7.28033 10.7804C6.98744 11.0733 6.51256 11.0733 6.21967 10.7804L4.21967 8.78038C3.92678 8.48748 3.92678 8.01261 4.21967 7.71972C4.51256 7.42683 4.98744 7.42682 5.28033 7.71972L6.75 9.18939L10.2197 5.71972Z" fill="#000001"/>
</g>
</svg>
