<svg width="24" height="24" viewBox="0 0 24 24" fill="none" xmlns="http://www.w3.org/2000/svg">
<g id="size=24">
<path id="Path" d="M12 1C18.0751 1.00003 23 5.92488 23 12C23 18.0751 18.0751 23 12 23C5.92487 23 1 18.0751 1 12C1 5.92487 5.92487 1 12 1ZM17.7803 8.21973C17.4874 7.92684 17.0126 7.92686 16.7197 8.21973L9.75 15.1895L7.28027 12.7197C6.98739 12.4268 6.51262 12.4269 6.21973 12.7197C5.92683 13.0126 5.92683 13.4874 6.21973 13.7803L9.21973 16.7803C9.51262 17.0731 9.98739 17.0732 10.2803 16.7803L17.7803 9.28027C18.0731 8.98739 18.0731 8.51261 17.7803 8.21973Z" fill="#000001"/>
</g>
</svg>
