<svg width="16" height="16" viewBox="0 0 16 16" fill="none" xmlns="http://www.w3.org/2000/svg">
<g id="size=16">
<path id="Path" d="M8 0C12.4182 3.80108e-05 16 3.58175 16 8C16 12.4183 12.4182 16 8 16C3.58172 16 0 12.4183 0 8C0 3.58172 3.58172 0 8 0ZM11.7803 5.21973C11.4874 4.92685 11.0126 4.92687 10.7197 5.21973L6.75 9.18945L5.28027 7.71973C4.98739 7.42685 4.51262 7.42687 4.21973 7.71973C3.92683 8.01262 3.92683 8.48738 4.21973 8.78027L6.21973 10.7803C6.51262 11.0731 6.98739 11.0732 7.28027 10.7803L11.7803 6.28027C12.0731 5.98739 12.0731 5.51261 11.7803 5.21973Z" fill="#000001"/>
</g>
</svg>
