<svg width="24" height="24" viewBox="0 0 24 24" fill="none" xmlns="http://www.w3.org/2000/svg">
<g id="size=24">
<path id="Path" d="M19.25 2C20.7688 2 22 3.23122 22 4.75V19.25C22 20.7688 20.7688 22 19.25 22H4.75C3.23122 22 2 20.7688 2 19.25V4.75C2 3.23122 3.23122 2 4.75 2H19.25ZM17.7803 8.21973C17.4874 7.92683 17.0126 7.92683 16.7197 8.21973L9.75 15.1895L7.28027 12.7197C6.98738 12.4268 6.51262 12.4268 6.21973 12.7197C5.92683 13.0126 5.92683 13.4874 6.21973 13.7803L9.21973 16.7803C9.51262 17.0732 9.98738 17.0732 10.2803 16.7803L17.7803 9.28027C18.0732 8.98738 18.0732 8.51262 17.7803 8.21973Z" fill="#000001"/>
</g>
</svg>
