<svg width="16" height="16" viewBox="0 0 16 16" fill="none" xmlns="http://www.w3.org/2000/svg">
<g id="size=16">
<g id="Path">
<path d="M11.2803 5.71964C11.5732 6.01253 11.5732 6.48741 11.2803 6.7803L7.28032 10.7803C6.98743 11.0732 6.51256 11.0732 6.21966 10.7803L4.21966 8.7803C3.92677 8.48741 3.92677 8.01253 4.21966 7.71964C4.51256 7.42675 4.98743 7.42675 5.28032 7.71964L6.74999 9.18931L10.2197 5.71964C10.5126 5.42675 10.9874 5.42675 11.2803 5.71964Z" fill="#000001"/>
<path fill-rule="evenodd" clip-rule="evenodd" d="M0.750287 6.40935L6.40712 0.752516C7.2858 -0.126171 8.71044 -0.126163 9.58911 0.752533L15.2458 6.40937C16.1245 7.28805 16.1245 8.71266 15.2458 9.59133L9.5891 15.248C8.71043 16.1267 7.28582 16.1267 6.40714 15.2481L0.750305 9.59135C-0.12839 8.71267 -0.128399 7.28804 0.750287 6.40935ZM7.46778 1.81318L1.81095 7.47001C1.51805 7.7629 1.51806 8.23778 1.81095 8.53068L7.46778 14.1874C7.76068 14.4803 8.23555 14.4803 8.52844 14.1874L14.1851 8.53067C14.478 8.23778 14.478 7.76291 14.1852 7.47002L8.52844 1.81318C8.23555 1.52028 7.76067 1.52028 7.46778 1.81318Z" fill="#000001"/>
</g>
</g>
</svg>
