<svg width="24" height="24" viewBox="0 0 24 24" fill="none" xmlns="http://www.w3.org/2000/svg">
<g id="size=24">
<g id="Path">
<path d="M16.2804 8.71967C16.5733 9.01256 16.5733 9.48744 16.2804 9.78033L10.7804 15.2803C10.4875 15.5732 10.0126 15.5732 9.71974 15.2803L7.21974 12.7803C6.92685 12.4874 6.92685 12.0126 7.21974 11.7197C7.51263 11.4268 7.98751 11.4268 8.2804 11.7197L10.2501 13.6893L15.2197 8.71967C15.5126 8.42678 15.9875 8.42678 16.2804 8.71967Z" fill="#000001"/>
<path fill-rule="evenodd" clip-rule="evenodd" d="M1.88382 10.0558L10.0555 1.88416C11.1294 0.810211 12.8707 0.81022 13.9446 1.88418L22.1161 10.0558C23.19 11.1298 23.19 12.871 22.1161 13.9449L13.9446 22.1164C12.8706 23.1903 11.1295 23.1903 10.0555 22.1164L1.88385 13.9449C0.809886 12.871 0.809874 11.1298 1.88382 10.0558ZM11.1161 2.94482L2.94448 11.1165C2.45633 11.6046 2.45633 12.3961 2.9445 12.8843L11.1162 21.0557C11.6043 21.5439 12.3958 21.5439 12.8839 21.0557L21.0554 12.8843C21.5435 12.3961 21.5436 11.6047 21.0554 11.1165L12.8839 2.94483C12.3958 2.45667 11.6043 2.45666 11.1161 2.94482Z" fill="#000001"/>
</g>
</g>
</svg>
