<svg width="24" height="24" viewBox="0 0 24 24" fill="none" xmlns="http://www.w3.org/2000/svg">
<g id="size=24">
<path id="Path" d="M11.9995 1C18.0746 1 22.9995 5.92487 22.9995 12C22.9995 18.0751 18.0746 23 11.9995 23C5.92455 22.9998 0.999512 18.075 0.999512 12C0.999512 5.92499 5.92455 1.0002 11.9995 1ZM17.7798 8.21973C17.4869 7.92702 17.0121 7.9269 16.7192 8.21973L9.74951 15.1895L7.27979 12.7197C6.98688 12.427 6.51207 12.4269 6.21924 12.7197C5.9266 13.0126 5.9266 13.4874 6.21924 13.7803L9.21924 16.7803C9.51207 17.0731 9.98688 17.073 10.2798 16.7803L17.7798 9.28027C18.0727 8.98738 18.0727 8.51262 17.7798 8.21973Z" fill="#000001"/>
</g>
</svg>
