<svg width="24" height="24" viewBox="0 0 24 24" fill="none" xmlns="http://www.w3.org/2000/svg">
<g id="size=24">
<g id="Path">
<path d="M17.7803 8.21967C18.0732 8.51256 18.0732 8.98744 17.7803 9.28033L10.2803 16.7803C9.98744 17.0732 9.51256 17.0732 9.21967 16.7803L6.21967 13.7803C5.92678 13.4874 5.92678 13.0126 6.21967 12.7197C6.51256 12.4268 6.98744 12.4268 7.28033 12.7197L9.75 15.1893L16.7197 8.21967C17.0126 7.92678 17.4874 7.92678 17.7803 8.21967Z" fill="#000001"/>
<path fill-rule="evenodd" clip-rule="evenodd" d="M2 4.75C2 3.23122 3.23122 2 4.75 2H19.25C20.7688 2 22 3.23122 22 4.75V19.25C22 20.7688 20.7688 22 19.25 22H4.75C3.23122 22 2 20.7688 2 19.25V4.75ZM4.75 3.5C4.05964 3.5 3.5 4.05964 3.5 4.75V19.25C3.5 19.9404 4.05964 20.5 4.75 20.5H19.25C19.9404 20.5 20.5 19.9404 20.5 19.25V4.75C20.5 4.05964 19.9404 3.5 19.25 3.5H4.75Z" fill="#000001"/>
</g>
</g>
</svg>
