<svg width="16" height="16" viewBox="0 0 16 16" fill="none" xmlns="http://www.w3.org/2000/svg">
<g id="size=16">
<path id="Path" d="M7.99988 0C12.4181 0 15.9998 3.58167 15.9998 7.99988C15.9998 12.4181 12.4181 15.9998 7.99988 15.9998C3.58179 15.9996 0 12.418 0 7.99988C0 3.58176 3.58179 0.000148144 7.99988 0ZM7.99988 1.49998C4.41021 1.50013 1.49998 4.41017 1.49998 7.99988C1.49998 11.5896 4.41021 14.4996 7.99988 14.4998C11.5897 14.4998 14.4998 11.5897 14.4998 7.99988C14.4998 4.41008 11.5897 1.49998 7.99988 1.49998ZM10.7196 5.21965C11.0124 4.9268 11.4872 4.9269 11.7801 5.21965C12.073 5.51254 12.073 5.98729 11.7801 6.28018L7.28016 10.7801C6.98726 11.0729 6.51247 11.073 6.21963 10.7801L4.21966 8.78014C3.92696 8.48729 3.92696 8.01246 4.21966 7.71961C4.51251 7.42677 4.98729 7.42686 5.28019 7.71961L6.7499 9.18931L10.7196 5.21965Z" fill="#000001"/>
</g>
</svg>
