<svg width="16" height="16" viewBox="0 0 16 16" fill="none" xmlns="http://www.w3.org/2000/svg">
<g id="size=16">
<path id="Path" d="M12.75 1C13.9926 1 15 2.00736 15 3.25V12.75C15 13.9926 13.9926 15 12.75 15H3.25C2.00736 15 1 13.9926 1 12.75V3.25C1 2.00736 2.00736 1 3.25 1H12.75ZM3.25 2.5C2.83579 2.5 2.5 2.83579 2.5 3.25V12.75C2.5 13.1642 2.83579 13.5 3.25 13.5H12.75C13.1642 13.5 13.5 13.1642 13.5 12.75V3.25C13.5 2.83579 13.1642 2.5 12.75 2.5H3.25ZM10.7197 5.21973C11.0126 4.92683 11.4874 4.92683 11.7803 5.21973C12.0732 5.51262 12.0732 5.98738 11.7803 6.28027L7.28027 10.7803C6.98738 11.0732 6.51262 11.0732 6.21973 10.7803L4.21973 8.78027C3.92683 8.48738 3.92683 8.01262 4.21973 7.71973C4.51262 7.42683 4.98738 7.42683 5.28027 7.71973L6.75 9.18945L10.7197 5.21973Z" fill="#000001"/>
</g>
</svg>
