<svg width="24" height="24" viewBox="0 0 24 24" fill="none" xmlns="http://www.w3.org/2000/svg">
<g id="size=24">
<path id="Path" fill-rule="evenodd" clip-rule="evenodd" d="M13.4412 1.00633C12.5573 0.462409 11.4425 0.462408 10.5587 1.00633L2.80867 5.77556C1.99537 6.27605 1.49994 7.16265 1.49994 8.11762V15.8824C1.49994 16.8374 1.99537 17.724 2.80867 18.2245L10.5587 22.9937C11.4425 23.5376 12.5573 23.5376 13.4412 22.9937L21.1912 18.2245C22.0045 17.724 22.4999 16.8374 22.4999 15.8824V8.11762C22.4999 7.16265 22.0045 6.27605 21.1912 5.77556L13.4412 1.00633ZM16.2803 9.78034L10.7803 15.2803C10.4874 15.5732 10.0126 15.5732 9.71967 15.2803L7.21967 12.7803C6.92678 12.4874 6.92678 12.0126 7.21967 11.7197C7.51256 11.4268 7.98744 11.4268 8.28033 11.7197L10.25 13.6893L15.2197 8.71968C15.5126 8.42679 15.9874 8.42679 16.2803 8.71968C16.5732 9.01257 16.5732 9.48745 16.2803 9.78034Z" fill="#000001"/>
</g>
</svg>
