<svg width="24" height="24" viewBox="0 0 24 24" fill="none" xmlns="http://www.w3.org/2000/svg">
<g id="size=24">
<path id="Path" d="M12 1C18.0751 1 23 5.92487 23 12C23 18.0751 18.0751 23 12 23C5.92487 23 1 18.0751 1 12C1 5.92487 5.92487 1 12 1ZM12 2.5C6.75329 2.5 2.5 6.75329 2.5 12C2.5 17.2467 6.75329 21.5 12 21.5C17.2467 21.5 21.5 17.2467 21.5 12C21.5 6.75329 17.2467 2.5 12 2.5ZM16.7197 8.21973C17.0126 7.92683 17.4874 7.92683 17.7803 8.21973C18.0732 8.51262 18.0732 8.98738 17.7803 9.28027L10.2803 16.7803C9.98738 17.0732 9.51262 17.0732 9.21973 16.7803L6.21973 13.7803C5.92683 13.4874 5.92683 13.0126 6.21973 12.7197C6.51262 12.4268 6.98738 12.4268 7.28027 12.7197L9.75 15.1895L16.7197 8.21973Z" fill="#000001"/>
</g>
</svg>
