<svg width="24" height="24" viewBox="0 0 24 24" fill="none" xmlns="http://www.w3.org/2000/svg">
<g id="size=24">
<g id="Union">
<path d="M7.29252 5.23214C7.00651 4.93252 6.53177 4.92148 6.23214 5.20748C5.93252 5.49349 5.92148 5.96823 6.20748 6.26786L11.4575 11.7679C11.599 11.9161 11.795 12 12 12C12.205 12 12.401 11.9161 12.5425 11.7679L17.7925 6.26786C18.0785 5.96823 18.0675 5.49349 17.7679 5.20748C17.4682 4.92148 16.9935 4.93252 16.7075 5.23214L12 10.1638L7.29252 5.23214Z" fill="#000001"/>
<path d="M7.29252 12.2321C7.00651 11.9325 6.53177 11.9215 6.23214 12.2075C5.93252 12.4935 5.92148 12.9682 6.20748 13.2679L11.4575 18.7679C11.599 18.9161 11.795 19 12 19C12.205 19 12.401 18.9161 12.5425 18.7679L17.7925 13.2679C18.0785 12.9682 18.0675 12.4935 17.7679 12.2075C17.4682 11.9215 16.9935 11.9325 16.7075 12.2321L12 17.1638L7.29252 12.2321Z" fill="#000001"/>
</g>
</g>
</svg>
