<svg width="24" height="24" viewBox="0 0 24 24" fill="none" xmlns="http://www.w3.org/2000/svg">
<g id="size=24">
<g id="Path">
<path d="M5.23214 16.7075C4.93252 16.9935 4.92148 17.4682 5.20748 17.7679C5.49349 18.0675 5.96823 18.0785 6.26786 17.7925L11.7679 12.5425C11.9161 12.401 12 12.205 12 12C12 11.795 11.9161 11.599 11.7679 11.4575L6.26786 6.20748C5.96823 5.92148 5.49349 5.93252 5.20749 6.23214C4.92148 6.53177 4.93252 7.00651 5.23214 7.29252L10.1638 12L5.23214 16.7075Z" fill="#000001"/>
<path d="M12.2321 16.7075C11.9325 16.9935 11.9215 17.4682 12.2075 17.7679C12.4935 18.0675 12.9682 18.0785 13.2679 17.7925L18.7679 12.5425C18.9161 12.401 19 12.205 19 12C19 11.795 18.9161 11.599 18.7679 11.4575L13.2679 6.20748C12.9682 5.92148 12.4935 5.93252 12.2075 6.23214C11.9215 6.53177 11.9325 7.00651 12.2321 7.29252L17.1638 12L12.2321 16.7075Z" fill="#000001"/>
</g>
</g>
</svg>
