<svg width="24" height="24" viewBox="0 0 24 24" fill="none" xmlns="http://www.w3.org/2000/svg">
<g id="size=24">
<g id="Path">
<path d="M11.7679 16.7075C12.0675 16.9935 12.0785 17.4682 11.7925 17.7679C11.5065 18.0675 11.0318 18.0785 10.7321 17.7925L5.23214 12.5425C5.08388 12.401 5 12.205 5 12C5 11.795 5.08388 11.599 5.23214 11.4575L10.7321 6.20748C11.0318 5.92148 11.5065 5.93252 11.7925 6.23214C12.0785 6.53177 12.0675 7.00651 11.7679 7.29252L6.83621 12L11.7679 16.7075Z" fill="#000001"/>
<path d="M18.7679 16.7075C19.0675 16.9935 19.0785 17.4682 18.7925 17.7679C18.5065 18.0675 18.0318 18.0785 17.7321 17.7925L12.2321 12.5425C12.0839 12.401 12 12.205 12 12C12 11.795 12.0839 11.599 12.2321 11.4575L17.7321 6.20748C18.0318 5.92148 18.5065 5.93252 18.7925 6.23214C19.0785 6.53177 19.0675 7.00651 18.7679 7.29252L13.8362 12L18.7679 16.7075Z" fill="#000001"/>
</g>
</g>
</svg>
