<svg width="16" height="16" viewBox="0 0 16 16" fill="none" xmlns="http://www.w3.org/2000/svg">
<g id="size=16">
<path id="Path" d="M7.99998 0C12.4182 0 16 3.58173 16 7.99998C16 12.4183 12.4183 16 7.99998 16C3.58173 16 0 12.4182 0 7.99998C1.40124e-05 3.58174 3.58174 1.40129e-05 7.99998 0ZM7.99998 1.5C4.41016 1.50001 1.50001 4.41016 1.5 7.99998C1.5 11.5898 4.41015 14.5 7.99998 14.5C11.5898 14.5 14.5 11.5898 14.5 7.99998C14.5 4.41015 11.5898 1.5 7.99998 1.5ZM7.99998 2.99999C10.7614 2.99999 13 5.23858 13 7.99998C13 10.7614 10.7614 13 7.99998 13C5.23858 13 2.99999 10.7614 2.99999 7.99998C3.00001 5.23859 5.23859 3.00001 7.99998 2.99999Z" fill="#000001"/>
</g>
</svg>
