<svg width="16" height="16" viewBox="0 0 16 16" fill="none" xmlns="http://www.w3.org/2000/svg">
<g id="size=16">
<g id="Union">
<path d="M4.54984 6.57889C4.54998 6.98575 4.55012 7.39328 4.54939 7.80013C4.54905 8.00148 4.44229 8.13035 4.25351 8.16377C4.06167 8.19767 3.87408 8.07121 3.84645 7.88787C3.84086 7.85091 3.83849 7.81331 3.83849 7.77603C3.83815 6.64688 3.83798 5.51756 3.83832 4.38841C3.83832 4.17132 3.93678 4.04486 4.13251 4.00662C4.32553 3.96902 4.5194 4.09901 4.54414 4.28445C4.54939 4.32414 4.54973 4.36447 4.54973 4.40464C4.54999 4.82618 4.54995 5.24773 4.54992 5.66927L4.54984 6.57889Z" fill="#02A5DD"/>
<path d="M3.57173 9.30765V10.0549C3.38905 9.96101 3.19925 9.92019 2.99945 9.91666C2.659 9.91039 2.37362 10.0714 2.25533 10.3386C2.0496 10.8037 2.38802 11.2872 2.93183 11.3039C3.12672 11.3098 3.31313 11.274 3.49039 11.1961C3.5105 11.1872 3.53101 11.179 3.55157 11.1708L3.56004 11.1675C3.56128 11.167 3.56302 11.1675 3.56634 11.1687C3.56847 11.1694 3.57124 11.1703 3.57495 11.1713L3.57501 11.2979C3.57515 11.4756 3.57528 11.6544 3.57309 11.833C3.57292 11.8497 3.55004 11.8771 3.53292 11.8811C3.07774 11.9878 2.62883 12.0013 2.19687 11.7916C1.63289 11.5178 1.39852 10.9836 1.45037 10.4516C1.52833 9.65345 2.25025 9.15307 3.08537 9.22827C3.16112 9.23502 3.23704 9.24306 3.31177 9.25543C3.37175 9.26534 3.43122 9.27801 3.49224 9.29101C3.51821 9.29654 3.54505 9.30219 3.57173 9.30765Z" fill="#02A5DD"/>
<path d="M10.893 10.0549V9.29949C10.8414 9.29187 10.7907 9.28345 10.7399 9.27523C10.628 9.25712 10.5174 9.23923 10.4061 9.22895C9.57453 9.15198 8.85058 9.64963 8.77195 10.4511C8.72263 10.9538 8.92006 11.4794 9.45997 11.7665C9.906 12.0037 10.3776 11.992 10.8565 11.8805C10.8723 11.8768 10.8942 11.8531 10.8942 11.8385C10.8961 11.6562 10.896 11.4737 10.8959 11.2867L10.8958 11.1603L10.8629 11.174C10.8429 11.1823 10.8259 11.1893 10.8093 11.1966C10.6347 11.2731 10.451 11.3086 10.2592 11.3039C9.7118 11.2909 9.36897 10.8048 9.57673 10.337C9.69502 10.0708 9.98074 9.91026 10.3214 9.91653C10.521 9.92006 10.7105 9.96184 10.893 10.0549Z" fill="#02A5DD"/>
<path fill-rule="evenodd" clip-rule="evenodd" d="M14.5561 10.6305C14.5566 9.85016 13.9297 9.26413 13.0941 9.26349C12.2646 9.26285 11.6276 9.85546 11.6267 10.6285C11.6259 11.4013 12.2651 12.0005 13.0897 11.9998C13.916 11.9994 14.5556 11.4019 14.5561 10.6305ZM13.8242 10.6277C13.8275 11.0153 13.5012 11.3233 13.0873 11.3232C12.6796 11.323 12.3573 11.0164 12.3578 10.6292C12.3583 10.243 12.6815 9.93741 13.0899 9.93741C13.4988 9.93725 13.8208 10.2398 13.8242 10.6277Z" fill="#02A5DD"/>
<path d="M7.89516 9.90287V9.36842C7.64299 9.31524 7.39354 9.2733 7.13816 9.28438C6.92412 9.29354 6.71924 9.33853 6.53639 9.45134C6.07528 9.73559 6.03664 10.3801 6.46437 10.6861C6.60282 10.785 6.7589 10.8488 6.92785 10.8927C7.04529 10.9232 7.16459 10.9689 7.26424 11.0338C7.38625 11.1135 7.36982 11.2657 7.24526 11.3438C7.20391 11.3698 7.1551 11.3886 7.10681 11.4008C6.92328 11.4469 6.7372 11.4366 6.55249 11.4084C6.4645 11.3949 6.37724 11.377 6.28965 11.359C6.25165 11.3512 6.2128 11.3432 6.17458 11.3357V11.9303C6.38336 11.9855 6.92362 12.0146 7.13019 11.9875C7.34829 11.9587 7.5547 11.9018 7.73552 11.7779C8.18375 11.4707 8.1968 10.8431 7.75298 10.5326C7.65897 10.4669 7.5486 10.4212 7.43921 10.3759C7.41134 10.3644 7.38354 10.3529 7.35609 10.3411C7.3012 10.3174 7.2444 10.2978 7.1876 10.2781C7.13328 10.2593 7.07881 10.2404 7.02614 10.2181C6.94632 10.1842 6.89599 10.1211 6.90192 10.0337C6.90769 9.9477 6.96988 9.89243 7.05004 9.87732C7.17578 9.85354 7.30593 9.83297 7.43303 9.83827C7.53981 9.84274 7.64594 9.86105 7.7533 9.87957C7.80027 9.88767 7.84756 9.89583 7.89516 9.90287Z" fill="#02A5DD"/>
<path d="M11.4725 5.54743L11.4727 6.0809C11.4727 6.26324 11.4728 6.44525 11.4727 6.62758C11.4724 7.02854 11.4722 7.42951 11.4737 7.83047C11.4745 8.06218 11.692 8.21548 11.9253 8.15506C12.0885 8.1128 12.1831 7.98152 12.1831 7.79303V4.37344L12.1831 4.36597C12.1831 4.34979 12.1832 4.3335 12.1815 4.31736C12.1598 4.09898 11.9609 3.96063 11.7401 4.01028C11.5769 4.04708 11.4732 4.17531 11.4728 4.34692C11.4723 4.74709 11.4724 5.14726 11.4725 5.54743Z" fill="#02A5DD"/>
<path d="M4.55298 9.30768H5.25338V11.9303H4.55298V9.30768Z" fill="#02A5DD"/>
<path d="M14.0872 6.62353C14.087 6.54304 14.0868 6.46255 14.0868 6.38204L14.0877 6.17712C14.088 5.98591 14.0884 5.79471 14.0861 5.60351C14.0856 5.54855 14.0782 5.4899 14.0563 5.43976C13.9928 5.29354 13.8297 5.21898 13.6591 5.24919C13.5013 5.27715 13.3801 5.40972 13.379 5.57764C13.3752 6.11256 13.3768 6.64766 13.3791 7.18275C13.3793 7.22934 13.3929 7.279 13.4128 7.32206C13.4784 7.46379 13.6418 7.53963 13.8046 7.51007C13.966 7.48082 14.0841 7.35259 14.086 7.19271C14.0882 7.00297 14.0877 6.81322 14.0872 6.62353Z" fill="#02A5DD"/>
<path d="M10.2724 6.62249C10.2726 6.80212 10.2727 6.98174 10.2721 7.16137C10.2714 7.36994 10.1274 7.51376 9.92065 7.51408C9.71035 7.51456 9.56274 7.36914 9.5624 7.15783C9.56156 6.63881 9.56156 6.11979 9.5624 5.60077C9.56274 5.3885 9.70967 5.24356 9.92014 5.2442C10.1313 5.24501 10.2718 5.38818 10.2723 5.6043C10.2726 5.77731 10.2725 5.95032 10.2724 6.12333L10.2724 6.62249Z" fill="#02A5DD"/>
<path d="M6.45781 6.62076L6.45768 6.38125L6.45782 6.20808C6.45801 6.00643 6.4582 5.80437 6.45768 5.60272C6.457 5.38884 6.31329 5.24438 6.10282 5.24438C5.89217 5.24438 5.74762 5.38836 5.74728 5.6024C5.74644 6.12142 5.74627 6.64044 5.74728 7.15946C5.74762 7.37077 5.89607 7.51538 6.10672 7.51426C6.31228 7.51313 6.45683 7.36819 6.45751 7.15978C6.45809 6.98011 6.45795 6.80043 6.45781 6.62076Z" fill="#02A5DD"/>
<path d="M1.93256 6.37367L1.93244 6.11686C1.93233 5.94566 1.93222 5.77432 1.93256 5.60317C1.93306 5.40183 2.04593 5.26187 2.21946 5.24596C2.42587 5.227 2.57212 5.33209 2.6138 5.53616C2.63058 5.61827 2.64177 5.70263 2.64227 5.78603C2.64498 6.24351 2.64498 6.70099 2.64295 7.15846C2.64193 7.41299 2.40943 7.57609 2.16709 7.49655C2.02474 7.44979 1.93374 7.32831 1.93273 7.17614C1.93164 6.98504 1.93184 6.79393 1.93205 6.60283L1.93256 6.37367Z" fill="#02A5DD"/>
<path d="M7.65731 6.72539C7.65748 6.76215 7.65764 6.79891 7.65764 6.83567C7.65764 6.87157 7.65748 6.90748 7.65731 6.94338C7.65695 7.02235 7.65659 7.10138 7.65798 7.18035C7.66137 7.36594 7.79982 7.50574 7.98539 7.51377C8.18773 7.52261 8.35075 7.40274 8.36024 7.21168C8.37261 6.9586 8.37278 6.70407 8.36024 6.45082C8.35075 6.26089 8.18282 6.137 7.98505 6.14809C7.79915 6.15853 7.6612 6.29833 7.65798 6.48296C7.65659 6.5637 7.65695 6.64455 7.65731 6.72539Z" fill="#02A5DD"/>
<path d="M0.712197 6.83678C0.712197 6.87289 0.712381 6.909 0.712565 6.94511C0.712967 7.02389 0.713368 7.10267 0.711858 7.18146C0.708129 7.37316 0.555103 7.51504 0.355643 7.51424C0.156014 7.51344 0.00400411 7.37187 0.00197054 7.17905C-0.000571431 6.94653 -0.000740895 6.71402 0.00197054 6.48166C0.00434304 6.29044 0.160081 6.14743 0.358355 6.14807C0.556628 6.14872 0.708638 6.29205 0.711688 6.48423C0.712974 6.56534 0.712647 6.64638 0.712321 6.72744L0.712197 6.83678Z" fill="#02A5DD"/>
<path d="M15.2865 6.72643C15.2867 6.76186 15.2868 6.7973 15.2868 6.83275C15.2868 6.86875 15.2866 6.90476 15.2865 6.94076C15.2861 7.01995 15.2857 7.09913 15.2871 7.17822C15.2904 7.36976 15.4371 7.51165 15.6322 7.51422C15.8342 7.51695 15.9918 7.38069 15.9962 7.18787C16.0016 6.9523 16.0006 6.71641 15.9965 6.48084C15.9931 6.28705 15.8379 6.14677 15.6383 6.14789C15.4405 6.14902 15.29 6.29348 15.2871 6.48727C15.286 6.56703 15.2863 6.64672 15.2865 6.72643Z" fill="#02A5DD"/>
</g>
</g>
</svg>
