<svg width="24" height="24" viewBox="0 0 24 24" fill="none" xmlns="http://www.w3.org/2000/svg">
<g id="size=24">
<g id="Union">
<path d="M7.25594 9.86818C7.25613 10.4788 7.25632 11.0895 7.25532 11.7001C7.25486 12.0022 7.10806 12.1955 6.84848 12.2456C6.58471 12.2965 6.32676 12.1068 6.28878 11.8317C6.28109 11.7763 6.27783 11.7199 6.27783 11.664C6.27736 9.97025 6.27713 8.27628 6.2776 6.58256C6.2776 6.25692 6.41298 6.06723 6.68211 6.00986C6.94751 5.95346 7.21408 6.14846 7.2481 6.42661C7.25532 6.48614 7.25579 6.54664 7.25579 6.6069C7.25614 7.23917 7.2561 7.87145 7.25605 8.50372L7.25594 9.86818Z" fill="#02A5DD"/>
<path d="M5.91089 13.9615V15.0823C5.6597 14.9415 5.39872 14.8803 5.124 14.875C4.65587 14.8656 4.26348 15.1071 4.10084 15.5079C3.81796 16.2055 4.28329 16.9307 5.03103 16.9558C5.29899 16.9647 5.55531 16.911 5.79904 16.7941C5.82667 16.7807 5.85484 16.7685 5.88308 16.7563L5.89481 16.7512C5.89651 16.7504 5.89891 16.7513 5.90347 16.753C5.90639 16.7541 5.91024 16.7555 5.91531 16.757L5.9154 16.9468C5.91558 17.2135 5.91576 17.4816 5.91275 17.7495C5.91252 17.7746 5.88106 17.8156 5.85753 17.8216C5.23165 17.9816 4.6144 18.0019 4.02045 17.6873C3.24498 17.2766 2.92272 16.4754 2.99402 15.6774C3.10121 14.4802 4.09384 13.7296 5.24214 13.8424C5.34629 13.8525 5.45068 13.8646 5.55344 13.8831C5.63591 13.898 5.71768 13.917 5.80158 13.9365C5.8374 13.9448 5.87407 13.9533 5.91089 13.9615Z" fill="#02A5DD"/>
<path d="M15.978 15.0823V13.9492C15.9071 13.9378 15.8373 13.9251 15.7675 13.9128C15.6137 13.8857 15.4615 13.8588 15.3085 13.8434C14.1651 13.7279 13.1697 14.4744 13.0616 15.6767C12.9937 16.4306 13.2652 17.219 14.0076 17.6498C14.6209 18.0055 15.2694 17.9879 15.9279 17.8207C15.9495 17.8151 15.9796 17.7797 15.9796 17.7577C15.9822 17.4841 15.9821 17.2103 15.982 16.9296L15.9819 16.7403L15.9367 16.7609C15.9092 16.7733 15.8858 16.7839 15.8628 16.7948C15.6228 16.9096 15.3703 16.9628 15.1065 16.9558C14.3538 16.9363 13.8825 16.2072 14.1681 15.5055C14.3308 15.1062 14.7236 14.8654 15.192 14.8748C15.4665 14.8801 15.727 14.9427 15.978 15.0823Z" fill="#02A5DD"/>
<path fill-rule="evenodd" clip-rule="evenodd" d="M21.0145 15.9457C21.0151 14.7752 20.1532 13.8962 19.0042 13.8952C17.8636 13.8942 16.9877 14.7832 16.9866 15.9428C16.9854 17.1019 17.8643 18.0007 18.9982 17.9997C20.1344 17.999 21.0138 17.1029 21.0145 15.9457ZM20.0081 15.9416C20.0127 16.5229 19.5639 16.985 18.9949 16.9847C18.4343 16.9845 17.9911 16.5246 17.9918 15.9437C17.9925 15.3645 18.4369 14.9061 18.9984 14.9061C19.5607 14.9058 20.0034 15.3597 20.0081 15.9416Z" fill="#02A5DD"/>
<path d="M11.8559 14.8543V14.0526C11.5092 13.9728 11.1662 13.9099 10.8151 13.9265C10.5208 13.9403 10.239 14.0078 9.98763 14.177C9.3536 14.6034 9.30047 15.5701 9.88859 16.0291C10.079 16.1775 10.2936 16.2732 10.5259 16.339C10.6874 16.3848 10.8514 16.4533 10.9884 16.5507C11.1562 16.6702 11.1336 16.8985 10.9623 17.0156C10.9055 17.0547 10.8384 17.0829 10.772 17.1012C10.5196 17.1703 10.2637 17.1549 10.0098 17.1125C9.88878 17.0924 9.76882 17.0655 9.64837 17.0385C9.59579 17.0267 9.54303 17.0148 9.49014 17.0036V17.8954C9.77721 17.9783 10.5201 18.0219 10.8041 17.9812C11.104 17.938 11.3878 17.8527 11.6364 17.6669C12.2528 17.206 12.2707 16.2645 11.6604 15.7989C11.5312 15.7003 11.3794 15.6318 11.229 15.5639C11.1908 15.5466 11.1523 15.5292 11.1147 15.5116C11.0392 15.4761 10.9611 15.4466 10.883 15.4171C10.8083 15.3889 10.7335 15.3607 10.661 15.3272C10.5513 15.2763 10.4821 15.1816 10.4902 15.0505C10.4982 14.9215 10.5837 14.8386 10.6939 14.816C10.8668 14.7803 11.0457 14.7494 11.2205 14.7574C11.3673 14.7641 11.5133 14.7915 11.6609 14.8193C11.7255 14.8315 11.7905 14.8437 11.8559 14.8543Z" fill="#02A5DD"/>
<path d="M16.7748 9.12133C16.7748 9.39469 16.7749 9.66757 16.7748 9.94094V9.94236C16.7744 10.5435 16.7741 11.1446 16.7762 11.7457C16.7773 12.0932 17.0763 12.3232 17.3971 12.2326C17.6215 12.1692 17.7516 11.9722 17.7516 11.6895C17.7517 10.5498 17.7517 9.41005 17.7516 8.27023L17.7516 6.56012L17.7516 6.54892C17.7516 6.52464 17.7517 6.50023 17.7495 6.476C17.7196 6.14844 17.4461 5.94091 17.1425 6.01539C16.9181 6.07059 16.7755 6.26293 16.775 6.52035C16.7742 7.1194 16.7744 7.71845 16.7746 8.3175L16.7748 9.12133Z" fill="#02A5DD"/>
<path d="M7.2605 13.9615H8.22354V17.8954H7.2605V13.9615Z" fill="#02A5DD"/>
<path d="M20.3698 9.93527C20.3695 9.81453 20.3692 9.69379 20.3692 9.57303C20.3692 9.47054 20.3703 9.36804 20.3705 9.26555C20.3709 8.97878 20.3714 8.692 20.3683 8.40523C20.3676 8.3228 20.3573 8.23482 20.3273 8.15962C20.2399 7.94028 20.0157 7.82844 19.7811 7.87375C19.5641 7.91569 19.3975 8.11454 19.3959 8.36642C19.3908 9.16882 19.3929 9.97145 19.3961 10.7741C19.3964 10.844 19.415 10.9185 19.4425 10.9831C19.5327 11.1957 19.7573 11.3094 19.9812 11.2651C20.2031 11.2212 20.3655 11.0289 20.368 10.789C20.3712 10.5046 20.3705 10.2197 20.3698 9.93527Z" fill="#02A5DD"/>
<path d="M15.1246 9.93372C15.1248 10.2032 15.125 10.4726 15.1242 10.742C15.1233 11.0549 14.9252 11.2706 14.6409 11.2711C14.3518 11.2718 14.1488 11.0537 14.1483 10.7367C14.1472 9.95819 14.1472 9.17966 14.1483 8.40112C14.1488 8.08272 14.3508 7.86531 14.6402 7.86628C14.9306 7.86748 15.1237 8.08224 15.1244 8.40643C15.1249 8.66594 15.1247 8.92545 15.1246 9.18496L15.1246 9.93372Z" fill="#02A5DD"/>
<path d="M9.8793 9.93116L9.87912 9.57181L9.87932 9.31266C9.87959 9.00978 9.87985 8.7069 9.87912 8.40402C9.87819 8.0832 9.6806 7.86652 9.39119 7.86652C9.10156 7.86652 8.9028 8.08248 8.90233 8.40353C8.90117 9.18207 8.90093 9.9606 8.90233 10.7391C8.9028 11.0561 9.10692 11.273 9.39655 11.2713C9.6792 11.2696 9.87796 11.0522 9.87889 10.7396C9.8797 10.4701 9.8795 10.2006 9.8793 9.93116Z" fill="#02A5DD"/>
<path d="M3.65717 9.5605L3.65702 9.17529C3.65686 8.91852 3.65671 8.66145 3.65717 8.40475C3.65787 8.10274 3.81306 7.8928 4.05166 7.86894C4.33548 7.8405 4.53657 7.99813 4.59389 8.30424C4.61696 8.42741 4.63234 8.55395 4.63303 8.67905C4.63676 9.36526 4.63676 10.0515 4.63397 10.7377C4.63257 11.1195 4.31287 11.3641 3.97966 11.2448C3.78393 11.1747 3.6588 10.9925 3.65741 10.7642C3.65591 10.4775 3.65619 10.1909 3.65648 9.90422L3.65717 9.5605Z" fill="#02A5DD"/>
<path d="M11.5288 10.0887C11.529 10.1436 11.5292 10.1985 11.5292 10.2534C11.5292 10.3073 11.529 10.3612 11.5288 10.415C11.5283 10.5335 11.5278 10.652 11.5297 10.7705C11.5344 11.0488 11.7247 11.2585 11.9799 11.2706C12.2581 11.2839 12.4823 11.104 12.4953 10.8175C12.5123 10.4378 12.5125 10.056 12.4953 9.67617C12.4823 9.39128 12.2513 9.20544 11.9794 9.22207C11.7238 9.23774 11.5341 9.44744 11.5297 9.72438C11.5278 9.84549 11.5283 9.96743 11.5288 10.0887Z" fill="#02A5DD"/>
<path d="M1.97927 10.2551C1.97927 10.3093 1.97952 10.3635 1.97978 10.4176C1.98033 10.5358 1.98088 10.654 1.9788 10.7722C1.97368 11.0597 1.76327 11.2725 1.48901 11.2713C1.21452 11.2701 1.00551 11.0578 1.00271 10.7685C0.999214 10.4198 0.998981 10.071 1.00271 9.72246C1.00597 9.43563 1.22011 9.22112 1.49274 9.22208C1.76536 9.22304 1.97438 9.43804 1.97857 9.72632C1.98034 9.84799 1.97989 9.96954 1.97944 10.0911C1.97924 10.1459 1.97927 10.2004 1.97927 10.2551Z" fill="#02A5DD"/>
<path d="M22.0191 10.0897C22.0193 10.1428 22.0195 10.1959 22.0195 10.2491C22.0195 10.3031 22.0192 10.3571 22.019 10.4111C22.0185 10.5299 22.018 10.6487 22.0199 10.7673C22.0244 11.0546 22.2261 11.2675 22.4943 11.2713C22.7721 11.2754 22.9888 11.071 22.9949 10.7818C23.0023 10.4284 23.0009 10.0746 22.9953 9.72126C22.9907 9.43058 22.7772 9.22015 22.5027 9.22184C22.2308 9.22353 22.0239 9.44022 22.0199 9.7309C22.0183 9.85055 22.0187 9.97008 22.0191 10.0897Z" fill="#02A5DD"/>
</g>
</g>
</svg>
