<svg width="16" height="16" viewBox="0 0 16 16" fill="none" xmlns="http://www.w3.org/2000/svg">
<g id="size=16">
<path id="Path" d="M10.75 0C11.3547 0 11.8588 0.429478 11.9746 1H12.75C13.9926 1 15 2.00736 15 3.25V13.75C15 14.9926 13.9926 16 12.75 16H3.25C2.00736 16 1 14.9926 1 13.75V3.25C1 2.00736 2.00736 1 3.25 1H4.02539C4.14124 0.429477 4.64529 0 5.25 0H10.75ZM3.25 2.5C2.83579 2.5 2.5 2.83579 2.5 3.25V13.75C2.5 14.1642 2.83579 14.5 3.25 14.5H12.75C13.1642 14.5 13.5 14.1642 13.5 13.75V3.25C13.5 2.83579 13.1642 2.5 12.75 2.5H12V2.75C12 3.44036 11.4404 4 10.75 4H5.25C4.55964 4 4 3.44036 4 2.75V2.5H3.25ZM5.5 2.5H10.5V1.5H5.5V2.5Z" fill="#000001"/>
</g>
</svg>
