<svg width="16" height="16" viewBox="0 0 16 16" fill="none" xmlns="http://www.w3.org/2000/svg">
<g id="size=16">
<path id="Path" fill-rule="evenodd" clip-rule="evenodd" d="M11.975 1H12.75C13.9926 1 15 2.00736 15 3.25V13.75C15 14.9926 13.9926 16 12.75 16H3.25C2.00736 16 1 14.9926 1 13.75V3.25C1 2.00736 2.00736 1 3.25 1H4.025C4.14082 0.42944 4.64526 0 5.25 0H10.75C11.3547 0 11.8592 0.42944 11.975 1ZM4 2.5H3.25C2.83579 2.5 2.5 2.83579 2.5 3.25V13.75C2.5 14.1642 2.83579 14.5 3.25 14.5H12.75C13.1642 14.5 13.5 14.1642 13.5 13.75V3.25C13.5 2.83579 13.1642 2.5 12.75 2.5H12V2.75C12 3.44036 11.4404 4 10.75 4H5.25C4.55964 4 4 3.44036 4 2.75V2.5ZM5.5 2.5V1.5H10.5V2.5H5.5Z" fill="#000001"/>
</g>
</svg>
