<svg width="24" height="24" viewBox="0 0 24 24" fill="none" xmlns="http://www.w3.org/2000/svg">
<g id="size=24">
<path id="Path" d="M15.25 1C16.2165 1 17 1.7835 17 2.75V3H18.25C19.7688 3 21 4.23122 21 5.75V20.25C21 21.7688 19.7688 23 18.25 23H5.75C4.23122 23 3 21.7688 3 20.25V5.75C3 4.23122 4.23122 3 5.75 3H7V2.75C7 1.7835 7.7835 1 8.75 1H15.25ZM5.75 4.5C5.05964 4.5 4.5 5.05964 4.5 5.75V20.25C4.5 20.9404 5.05964 21.5 5.75 21.5H18.25C18.9404 21.5 19.5 20.9404 19.5 20.25V5.75C19.5 5.05964 18.9404 4.5 18.25 4.5H16.9824C16.8611 5.34807 16.1316 6 15.25 6H8.75C7.86838 6 7.13889 5.34807 7.01758 4.5H5.75ZM8.75 2.5C8.61193 2.5 8.5 2.61193 8.5 2.75V4.25C8.5 4.38807 8.61193 4.5 8.75 4.5H15.25C15.3881 4.5 15.5 4.38807 15.5 4.25V2.75C15.5 2.61193 15.3881 2.5 15.25 2.5H8.75Z" fill="#000001"/>
</g>
</svg>
