<svg width="24" height="24" viewBox="0 0 24 24" fill="none" xmlns="http://www.w3.org/2000/svg">
<g id="size=24">
<path id="Path" d="M15.25 1C16.2165 1 17 1.7835 17 2.75V3H18.25C19.7688 3 21 4.23122 21 5.75V10.25C21 10.6642 20.6642 11 20.25 11C19.8358 11 19.5 10.6642 19.5 10.25V5.75C19.5 5.05964 18.9404 4.5 18.25 4.5H16.9824C16.8611 5.34807 16.1316 6 15.25 6H8.75C7.86838 6 7.13889 5.34807 7.01758 4.5H5.75C5.05964 4.5 4.5 5.05964 4.5 5.75V20.25C4.5 20.9404 5.05964 21.5 5.75 21.5H18.25C18.9404 21.5 19.5 20.9404 19.5 20.25V17.75C19.5 17.3358 19.8358 17 20.25 17C20.6642 17 21 17.3358 21 17.75V20.25C21 21.7688 19.7688 23 18.25 23H5.75C4.23122 23 3 21.7688 3 20.25V5.75C3 4.23122 4.23122 3 5.75 3H7V2.75C7 1.7835 7.7835 1 8.75 1H15.25ZM12.25 17C12.6642 17 13 17.3358 13 17.75C13 18.1642 12.6642 18.5 12.25 18.5H7.75C7.33579 18.5 7 18.1642 7 17.75C7 17.3358 7.33579 17 7.75 17H12.25ZM16.7393 10.2002C17.0428 9.91838 17.5179 9.93583 17.7998 10.2393C18.0816 10.5428 18.0642 11.0179 17.7607 11.2998L15.6602 13.25H22C22.4142 13.25 22.75 13.5858 22.75 14C22.75 14.4142 22.4142 14.75 22 14.75H15.6602L17.7607 16.7002C18.0642 16.9821 18.0816 17.4572 17.7998 17.7607C17.5179 18.0642 17.0428 18.0816 16.7393 17.7998L13.2393 14.5498C13.222 14.5338 13.206 14.5164 13.1904 14.499C13.0756 14.3704 13.0041 14.2016 13 14.0166V13.9834C13.0043 13.7917 13.0809 13.6176 13.2031 13.4873C13.2112 13.4787 13.2191 13.4701 13.2275 13.4619L16.7393 10.2002ZM10.25 13C10.6642 13 11 13.3358 11 13.75C11 14.1642 10.6642 14.5 10.25 14.5H7.75C7.33579 14.5 7 14.1642 7 13.75C7 13.3358 7.33579 13 7.75 13H10.25ZM12.25 9C12.6642 9 13 9.33579 13 9.75C13 10.1642 12.6642 10.5 12.25 10.5H7.75C7.33579 10.5 7 10.1642 7 9.75C7 9.33579 7.33579 9 7.75 9H12.25ZM8.75 2.5C8.61193 2.5 8.5 2.61193 8.5 2.75V4.25C8.5 4.38807 8.61193 4.5 8.75 4.5H15.25C15.3881 4.5 15.5 4.38807 15.5 4.25V2.75C15.5 2.61193 15.3881 2.5 15.25 2.5H8.75Z" fill="#000001"/>
</g>
</svg>
