<svg width="24" height="24" viewBox="0 0 24 24" fill="none" xmlns="http://www.w3.org/2000/svg">
<g id="size=24">
<path id="Path" d="M15.25 1C16.2165 1 17 1.7835 17 2.75V3H18.25C19.7688 3 21 4.23122 21 5.75V20.25C21 21.7688 19.7688 23 18.25 23H5.75C4.23122 23 3 21.7688 3 20.25V5.75C3 4.23122 4.23122 3 5.75 3H7V2.75C7 1.7835 7.7835 1 8.75 1H15.25ZM16.7803 10.2197C16.4874 9.92683 16.0126 9.92683 15.7197 10.2197L10.25 15.6895L8.28027 13.7197C7.98738 13.4268 7.51262 13.4268 7.21973 13.7197C6.92683 14.0126 6.92683 14.4874 7.21973 14.7803L9.71973 17.2803C10.0126 17.5732 10.4874 17.5732 10.7803 17.2803L16.7803 11.2803C17.0732 10.9874 17.0732 10.5126 16.7803 10.2197ZM8.75 2.5C8.61193 2.5 8.5 2.61193 8.5 2.75V4.25C8.5 4.38807 8.61193 4.5 8.75 4.5H15.25C15.3881 4.5 15.5 4.38807 15.5 4.25V2.75C15.5 2.61193 15.3881 2.5 15.25 2.5H8.75Z" fill="#000001"/>
</g>
</svg>
