<svg width="16" height="16" viewBox="0 0 16 16" fill="none" xmlns="http://www.w3.org/2000/svg">
<g id="size=16">
<path id="Path" d="M10.75 0C11.3547 0 11.8588 0.429478 11.9746 1H12.75C13.9926 1 15 2.00736 15 3.25V13.75C15 14.9926 13.9926 16 12.75 16H3.25C2.00736 16 1 14.9926 1 13.75V3.25C1 2.00736 2.00736 1 3.25 1H4.02539C4.14124 0.429477 4.64529 0 5.25 0H10.75ZM11.0479 5.95215C10.7452 5.64949 10.2548 5.64949 9.95215 5.95215L8 7.9043L6.04785 5.95215C5.74519 5.64949 5.2548 5.64949 4.95215 5.95215C4.64949 6.25481 4.64949 6.74519 4.95215 7.04785L6.9043 9L4.95215 10.9521C4.64949 11.2548 4.64949 11.7452 4.95215 12.0479C5.2548 12.3505 5.74519 12.3505 6.04785 12.0479L8 10.0957L9.95215 12.0479C10.2548 12.3505 10.7452 12.3505 11.0479 12.0479C11.3505 11.7452 11.3505 11.2548 11.0479 10.9521L9.0957 9L11.0479 7.04785C11.3505 6.74519 11.3505 6.25481 11.0479 5.95215ZM5.5 2.5H10.5V1.5H5.5V2.5Z" fill="#000001"/>
</g>
</svg>
