<svg width="24" height="24" viewBox="0 0 24 24" fill="none" xmlns="http://www.w3.org/2000/svg">
<g id="size=24">
<g id="Path">
<path fill-rule="evenodd" clip-rule="evenodd" d="M8.75 1C7.7835 1 7 1.7835 7 2.75V3H5.75C4.23122 3 3 4.23122 3 5.75V20.25C3 21.7688 4.23122 23 5.75 23H18.25C19.7688 23 21 21.7688 21 20.25V17.75C21 17.3358 20.6642 17 20.25 17C19.8358 17 19.5 17.3358 19.5 17.75V20.25C19.5 20.9404 18.9404 21.5 18.25 21.5H5.75C5.05964 21.5 4.5 20.9404 4.5 20.25V5.75C4.5 5.05964 5.05964 4.5 5.75 4.5H7.01772C7.13903 5.34807 7.86838 6 8.75 6H15.25C16.1316 6 16.861 5.34807 16.9823 4.5H18.25C18.9404 4.5 19.5 5.05964 19.5 5.75V10.25C19.5 10.6642 19.8358 11 20.25 11C20.6642 11 21 10.6642 21 10.25V5.75C21 4.23122 19.7688 3 18.25 3H17V2.75C17 1.7835 16.2165 1 15.25 1H8.75ZM8.5 2.75C8.5 2.61193 8.61193 2.5 8.75 2.5H15.25C15.3881 2.5 15.5 2.61193 15.5 2.75V4.25C15.5 4.38807 15.3881 4.5 15.25 4.5H8.75C8.61193 4.5 8.5 4.38807 8.5 4.25V2.75Z" fill="#000001"/>
<path d="M7 9.75C7 9.33579 7.33579 9 7.75 9H12.25C12.6642 9 13 9.33579 13 9.75C13 10.1642 12.6642 10.5 12.25 10.5H7.75C7.33579 10.5 7 10.1642 7 9.75Z" fill="#000001"/>
<path d="M7 17.75C7 17.3358 7.33579 17 7.75 17H12.25C12.6642 17 13 17.3358 13 17.75C13 18.1642 12.6642 18.5 12.25 18.5H7.75C7.33579 18.5 7 18.1642 7 17.75Z" fill="#000001"/>
<path d="M7.75 13C7.33579 13 7 13.3358 7 13.75C7 14.1642 7.33579 14.5 7.75 14.5H10.25C10.6642 14.5 11 14.1642 11 13.75C11 13.3358 10.6642 13 10.25 13H7.75Z" fill="#000001"/>
<path d="M22.75 14C22.75 14.4142 22.4142 14.75 22 14.75H15.6599L17.7603 16.7004C18.0639 16.9823 18.0814 17.4568 17.7996 17.7603C17.5177 18.0639 17.0432 18.0815 16.7397 17.7996L13.2397 14.5496C13.2224 14.5335 13.2059 14.5167 13.1903 14.4993C13.0755 14.3706 13.0043 14.2021 13.0002 14.017L13 14L13.0002 13.983C13.0045 13.7913 13.0807 13.6173 13.2029 13.487C13.2109 13.4785 13.2191 13.4701 13.2275 13.4619L13.2414 13.4488L16.7397 10.2004C17.0432 9.91856 17.5177 9.93613 17.7996 10.2397C18.0814 10.5432 18.0639 11.0177 17.7603 11.2996L15.6599 13.25H22C22.4142 13.25 22.75 13.5858 22.75 14Z" fill="#000001"/>
</g>
</g>
</svg>
