<svg width="16" height="16" viewBox="0 0 16 16" fill="none" xmlns="http://www.w3.org/2000/svg">
<g id="size=16">
<path id="Path" d="M10.75 0C11.3547 0 11.8588 0.429478 11.9746 1H12.75C13.9926 1 15 2.00736 15 3.25V13.75C15 14.9926 13.9926 16 12.75 16H3.25C2.00736 16 1 14.9926 1 13.75V3.25C1 2.00736 2.00736 1 3.25 1H4.02539C4.14124 0.429477 4.64529 0 5.25 0H10.75ZM11.7803 6.21973C11.4874 5.92683 11.0126 5.92683 10.7197 6.21973L6.75 10.1895L5.28027 8.71973C4.98738 8.42683 4.51262 8.42683 4.21973 8.71973C3.92683 9.01262 3.92683 9.48738 4.21973 9.78027L6.21973 11.7803C6.51262 12.0732 6.98738 12.0732 7.28027 11.7803L11.7803 7.28027C12.0732 6.98738 12.0732 6.51262 11.7803 6.21973ZM5.5 2.5H10.5V1.5H5.5V2.5Z" fill="#000001"/>
</g>
</svg>
