<svg width="16" height="16" viewBox="0 0 16 16" fill="none" xmlns="http://www.w3.org/2000/svg">
<g id="size=16">
<path id="Path" fill-rule="evenodd" clip-rule="evenodd" d="M0 8C0 3.58172 3.58172 0 8 0C12.4183 0 16 3.58172 16 8C16 12.4183 12.4183 16 8 16C3.58172 16 0 12.4183 0 8ZM8.5 3.75C8.5 3.33579 8.16421 3 7.75 3C7.33579 3 7 3.33579 7 3.75V8C7 8.28408 7.1605 8.54378 7.41459 8.67082L9.91459 9.92082C10.2851 10.1061 10.7356 9.95589 10.9208 9.58541C11.1061 9.21493 10.9559 8.76442 10.5854 8.57918L8.5 7.53647V3.75Z" fill="#000001"/>
</g>
</svg>
