<svg width="16" height="16" viewBox="0 0 16 16" fill="none" xmlns="http://www.w3.org/2000/svg">
<g id="size=16">
<path id="Path" d="M7.99983 0.000335686C12.4179 0.00051614 15.9997 3.58209 15.9997 8.00017C15.9995 12.4181 12.4178 15.9998 7.99983 16C3.58176 16 0.000180458 12.4182 0 8.00017C0 3.58198 3.58165 0.000335686 7.99983 0.000335686ZM7.99983 1.5003C4.41006 1.5003 1.49997 4.41039 1.49997 8.00017C1.50015 11.5898 4.41017 14.5 7.99983 14.5C11.5893 14.4999 14.4995 11.5897 14.4997 8.00017C14.4997 4.4105 11.5895 1.50048 7.99983 1.5003ZM7.74984 3.00027C8.16389 3.00045 8.49982 3.33616 8.49982 3.75026V7.53631L10.5847 8.57926C10.9548 8.76455 11.1055 9.21483 10.9207 9.5851C10.7355 9.95521 10.2851 10.1056 9.91483 9.92103L7.41488 8.67105C7.1609 8.54406 6.99998 8.28411 6.99985 8.00017V3.75026C6.99985 3.33605 7.33563 3.00027 7.74984 3.00027Z" fill="#000001"/>
</g>
</svg>
