<svg width="24" height="24" viewBox="0 0 24 24" fill="none" xmlns="http://www.w3.org/2000/svg">
<g id="size=24">
<path id="Path" d="M12 1C18.0751 1 23 5.92487 23 12C23 18.0751 18.0751 23 12 23C5.92487 23 1 18.0751 1 12C1 5.92487 5.92487 1 12 1ZM12 2.5C6.75329 2.5 2.5 6.75329 2.5 12C2.5 17.2467 6.75329 21.5 12 21.5C17.2467 21.5 21.5 17.2467 21.5 12C21.5 6.75329 17.2467 2.5 12 2.5ZM11.75 5C12.1642 5 12.5 5.33579 12.5 5.75V11.5361L16.585 13.5791C16.9553 13.7643 17.1058 14.2146 16.9209 14.585C16.7357 14.9553 16.2854 15.1058 15.915 14.9209L11.415 12.6709C11.161 12.5439 11 12.2841 11 12V5.75C11 5.33579 11.3358 5 11.75 5Z" fill="#000001"/>
</g>
</svg>
