<svg width="24" height="24" viewBox="0 0 24 24" fill="none" xmlns="http://www.w3.org/2000/svg">
<g id="size=24">
<path id="Path" d="M12 1C18.0751 1 23 5.92487 23 12C23 18.0751 18.0751 23 12 23C5.92487 23 1 18.0751 1 12C1 5.92487 5.92487 1 12 1ZM11.75 5C11.3358 5 11 5.33579 11 5.75V12C11 12.2841 11.161 12.5439 11.415 12.6709L15.915 14.9209C16.2854 15.1058 16.7357 14.9553 16.9209 14.585C17.1058 14.2146 16.9553 13.7643 16.585 13.5791L12.5 11.5361V5.75C12.5 5.33579 12.1642 5 11.75 5Z" fill="#000001"/>
</g>
</svg>
