<svg width="24" height="24" viewBox="0 0 24 24" fill="none" xmlns="http://www.w3.org/2000/svg">
<g id="size=24">
<path id="Path" d="M12 1.00018C18.0751 1.00027 23 5.9251 23 12.0002C22.9999 18.0752 18.075 23.0001 12 23.0002C5.92493 23.0002 1.00009 18.0752 1 12.0002C1 5.92504 5.92487 1.00018 12 1.00018ZM12 2.50018C6.75329 2.50018 2.5 6.75347 2.5 12.0002C2.50009 17.2468 6.75335 21.5002 12 21.5002C17.2466 21.5001 21.4999 17.2467 21.5 12.0002C21.5 6.75353 17.2466 2.50027 12 2.50018ZM11.75 5.00018C12.1641 5.00027 12.5 5.33602 12.5 5.75018V11.5363L16.585 13.5793C16.9552 13.7645 17.1058 14.2148 16.9209 14.5851C16.7357 14.9554 16.2854 15.1058 15.915 14.9211L11.415 12.6711C11.161 12.5441 11.0001 12.2842 11 12.0002V5.75018C11 5.33596 11.3358 5.00018 11.75 5.00018Z" fill="#000001"/>
</g>
</svg>
