<svg width="24" height="24" viewBox="0 0 24 24" fill="none" xmlns="http://www.w3.org/2000/svg">
<g id="size=24">
<path id="Path" fill-rule="evenodd" clip-rule="evenodd" d="M1 12C1 5.92487 5.92487 1 12 1C18.0751 1 23 5.92487 23 12C23 18.0751 18.0751 23 12 23C5.92487 23 1 18.0751 1 12ZM12.5 5.75C12.5 5.33579 12.1642 5 11.75 5C11.3358 5 11 5.33579 11 5.75V12C11 12.2841 11.1605 12.5438 11.4146 12.6708L15.9146 14.9208C16.2851 15.1061 16.7356 14.9559 16.9208 14.5854C17.1061 14.2149 16.9559 13.7644 16.5854 13.5792L12.5 11.5365V5.75Z" fill="#000001"/>
</g>
</svg>
