<svg width="16" height="16" viewBox="0 0 16 16" fill="none" xmlns="http://www.w3.org/2000/svg">
<g id="size=16">
<path id="Path" d="M8 0C12.4183 0 16 3.58172 16 8C16 12.4183 12.4183 16 8 16C3.58172 16 0 12.4183 0 8C0 3.58172 3.58172 0 8 0ZM8 1.5C4.41015 1.5 1.5 4.41015 1.5 8C1.5 11.5899 4.41015 14.5 8 14.5C11.5899 14.5 14.5 11.5899 14.5 8C14.5 4.41015 11.5899 1.5 8 1.5ZM7.75 3C8.16421 3 8.5 3.33579 8.5 3.75V7.53613L10.585 8.5791C10.9553 8.76428 11.1058 9.21455 10.9209 9.58496C10.7357 9.95531 10.2854 10.1058 9.91504 9.9209L7.41504 8.6709C7.16095 8.54385 7 8.28408 7 8V3.75C7 3.33579 7.33579 3 7.75 3Z" fill="#000001"/>
</g>
</svg>
