<svg width="16" height="16" viewBox="0 0 16 16" fill="none" xmlns="http://www.w3.org/2000/svg">
<g id="size=16">
<path id="Path" d="M13.75 1C14.9926 1 16 2.00736 16 3.25V12.25C16 13.4926 14.9926 14.5 13.75 14.5H2.25C1.00736 14.5 0 13.4926 0 12.25V3.25C0 2.00736 1.00736 1 2.25 1H13.75ZM2.25 2.5C1.83579 2.5 1.5 2.83579 1.5 3.25V12.25C1.5 12.6642 1.83579 13 2.25 13H13.75C14.1642 13 14.5 12.6642 14.5 12.25V3.25C14.5 2.83579 14.1642 2.5 13.75 2.5H2.25ZM5.75 5C6.45728 5 7.10397 5.26826 7.59082 5.70703C7.89822 5.98432 7.92259 6.45801 7.64551 6.76562C7.3682 7.07332 6.89363 7.09859 6.58594 6.82129C6.3639 6.62123 6.07211 6.5 5.75 6.5C5.05964 6.5 4.5 7.05964 4.5 7.75C4.5 8.44036 5.05964 9 5.75 9C6.07212 9 6.3639 8.87877 6.58594 8.67871C6.89363 8.40141 7.3682 8.42668 7.64551 8.73438C7.92259 9.04198 7.89822 9.51568 7.59082 9.79297C7.10397 10.2317 6.45728 10.5 5.75 10.5C4.23122 10.5 3 9.26878 3 7.75C3 6.23122 4.23122 5 5.75 5ZM11.25 5C11.9573 5 12.604 5.26826 13.0908 5.70703C13.3982 5.98432 13.4226 6.45801 13.1455 6.76562C12.8682 7.07332 12.3936 7.09859 12.0859 6.82129C11.8639 6.62123 11.5721 6.5 11.25 6.5C10.5596 6.5 10 7.05964 10 7.75C10 8.44036 10.5596 9 11.25 9C11.5721 9 11.8639 8.87877 12.0859 8.67871C12.3936 8.40141 12.8682 8.42668 13.1455 8.73438C13.4226 9.04198 13.3982 9.51568 13.0908 9.79297C12.604 10.2317 11.9573 10.5 11.25 10.5C9.73122 10.5 8.5 9.26878 8.5 7.75C8.5 6.23122 9.73122 5 11.25 5Z" fill="#000001"/>
</g>
</svg>
