<svg width="24" height="24" viewBox="0 0 24 24" fill="none" xmlns="http://www.w3.org/2000/svg">
<g id="size=24">
<path id="Path" fill-rule="evenodd" clip-rule="evenodd" d="M16.719 14.2195C17.0118 13.9268 17.4867 13.927 17.7796 14.2195C18.0724 14.5124 18.0724 14.9872 17.7796 15.2801L10.2796 22.7801C9.98668 23.0728 9.51187 23.0729 9.21904 22.7801L6.21904 19.7801C5.92652 19.4872 5.92644 19.0123 6.21904 18.7195C6.51184 18.4268 6.98671 18.427 7.27959 18.7195L9.74932 21.1892L16.719 14.2195ZM8.02568 1.04568C9.43464 0.901011 10.8578 1.09657 12.177 1.61501C13.4962 2.13353 14.6745 2.96048 15.6136 4.02712C16.4233 4.94698 17.0354 6.0238 17.4153 7.18728H18.1419C19.4892 7.18888 20.7955 7.65729 21.8392 8.51345C22.8827 9.36973 23.6017 10.562 23.8763 11.8875C24.1506 13.2128 23.9645 14.5936 23.3489 15.7976C22.733 17.002 21.7241 17.9579 20.4905 18.5027C20.1116 18.67 19.6686 18.4978 19.5013 18.1189C19.3344 17.7402 19.5054 17.2969 19.8841 17.1297C20.8007 16.7249 21.553 16.0143 22.013 15.115C22.4729 14.2155 22.6128 13.1826 22.4075 12.1912C22.2022 11.2001 21.6649 10.3111 20.888 9.67361C20.1112 9.0363 19.1406 8.68855 18.1409 8.68728H16.8528C16.5105 8.687 16.2112 8.45447 16.1263 8.12283C15.8313 6.97145 15.2697 5.90686 14.4876 5.01833C13.7055 4.12992 12.7247 3.4425 11.6282 3.0115C10.5317 2.58057 9.34943 2.41769 8.179 2.53786C7.00848 2.65808 5.88218 3.05757 4.89385 3.7029C3.90561 4.34825 3.08318 5.22202 2.49443 6.25173C1.90576 7.2814 1.56789 8.43799 1.50908 9.62576C1.45041 10.8137 1.67214 11.9998 2.15654 13.0838C2.64096 14.1675 3.3744 15.1188 4.29424 15.8601C4.61668 16.1199 4.66716 16.5923 4.40752 16.9148C4.14764 17.2373 3.67537 17.2889 3.35283 17.0291C2.24738 16.1383 1.36829 14.9947 0.787401 13.6951C0.206707 12.3956 -0.0592123 10.9756 0.0110336 9.55251C0.0813948 8.12926 0.485501 6.74183 1.1917 5.50661C1.89796 4.27144 2.88649 3.22278 4.07451 2.44704C5.26255 1.67135 6.61674 1.19039 8.02568 1.04568Z" fill="#000001"/>
</g>
</svg>
