<svg width="16" height="16" viewBox="0 0 16 16" fill="none" xmlns="http://www.w3.org/2000/svg">
<g id="size=16">
<path id="Path" fill-rule="evenodd" clip-rule="evenodd" d="M7.99934 7.24914C8.41133 7.25072 8.74792 7.5871 8.74934 7.99914V12.4386L10.2191 10.9689C10.5117 10.6786 10.9874 10.678 11.2796 10.9689C11.5701 11.2611 11.5697 11.7369 11.2796 12.0294L8.52961 14.7794C8.38975 14.9187 8.19667 14.9984 7.99934 14.9991C7.80172 14.9987 7.60921 14.9187 7.46907 14.7794L4.71907 12.0294C4.42783 11.7368 4.42773 11.2614 4.71907 10.9689C5.01171 10.6786 5.48736 10.678 5.77961 10.9689L7.24934 12.4386V7.99914C7.25075 7.58662 7.58668 7.24994 7.99934 7.24914ZM3.93098 1.37121C4.98553 0.982992 6.13257 0.896799 7.23371 1.12218C8.33477 1.34844 9.35498 1.87934 10.1702 2.65148C10.842 3.28857 11.3577 4.07355 11.6751 4.93664H11.9544C13.0245 4.93741 14.0559 5.36214 14.8138 6.11632C15.5709 6.87131 15.9986 7.8995 15.9993 8.96789C15.9988 10.0363 15.5708 11.0643 14.8138 11.8194C14.611 12.0213 14.3848 12.2019 14.1478 12.3546C13.8002 12.5772 13.3359 12.4764 13.1116 12.13C12.8892 11.7822 12.9895 11.3169 13.3363 11.0929C13.4849 10.997 13.628 10.8825 13.7552 10.756C14.2301 10.2817 14.4988 9.63642 14.4993 8.96789C14.4986 8.29919 14.2305 7.653 13.7552 7.17882C13.279 6.70527 12.6286 6.43741 11.9544 6.43664H11.1243C10.7839 6.43586 10.4849 6.2035 10.3988 5.87414C10.1875 5.0613 9.74906 4.31901 9.13801 3.73937C8.52643 3.16043 7.76 2.76103 6.93293 2.59093C6.1055 2.4216 5.24275 2.48795 4.45051 2.77941C3.65859 3.07163 2.96155 3.58122 2.44465 4.24523C1.92837 4.91 1.60841 5.70961 1.52278 6.54503C1.43796 7.38065 1.59077 8.22719 1.96223 8.98156C2.1834 9.42955 2.47923 9.83842 2.83137 10.1876C3.12311 10.4784 3.12457 10.9542 2.83625 11.2482C2.54514 11.5409 2.06877 11.5427 1.77473 11.253C1.30524 10.7875 0.91163 10.2427 0.616526 9.64464C0.120615 8.63784 -0.0828286 7.50875 0.0305888 6.39269C0.144813 5.27695 0.571442 4.21187 1.26008 3.32531C1.94935 2.43935 2.87654 1.76024 3.93098 1.37121Z" fill="#000001"/>
</g>
</svg>
