<svg width="16" height="16" viewBox="0 0 16 16" fill="none" xmlns="http://www.w3.org/2000/svg">
<g id="size=16">
<path id="Path" fill-rule="evenodd" clip-rule="evenodd" d="M10.7193 9.21998C11.0122 8.92718 11.487 8.92714 11.7798 9.21998C12.0725 9.51286 12.0726 9.98769 11.7798 10.2805L7.27983 14.7805C6.98699 15.0732 6.51214 15.0732 6.21928 14.7805L4.21928 12.7805C3.92647 12.4877 3.92656 12.0129 4.21928 11.72C4.51217 11.4272 4.98696 11.4271 5.27983 11.72L6.74956 13.1897L10.7193 9.21998ZM3.9312 1.3733C4.98706 0.984044 6.13229 0.897254 7.23491 1.1233C8.33731 1.34945 9.35449 1.87932 10.1705 2.65259C10.8435 3.29046 11.3577 4.07319 11.6753 4.93775H11.9556C13.0271 4.93794 14.0554 5.36194 14.814 6.11744C15.5727 6.87318 15.9996 7.89899 15.9996 8.969C15.9995 10.039 15.5727 11.0649 14.814 11.8206C14.6104 12.0234 14.3871 12.2025 14.149 12.3557C13.8007 12.5798 13.336 12.4792 13.1119 12.1311C12.8878 11.7828 12.9891 11.3181 13.3374 11.094C13.4871 10.9977 13.6275 10.8854 13.7554 10.7581C14.2322 10.2832 14.4995 9.63922 14.4996 8.969C14.4996 8.29875 14.2321 7.65486 13.7554 7.17994C13.2786 6.70515 12.6311 6.43794 11.9556 6.43775H11.1246C10.7832 6.43757 10.4849 6.20659 10.399 5.87623C10.1879 5.06192 9.75144 4.32186 9.1392 3.74146C8.52672 3.16103 7.76197 2.763 6.93315 2.59302C6.10433 2.42311 5.24418 2.48806 4.45073 2.78052C3.65721 3.0731 2.96224 3.58161 2.44487 4.24732C1.92759 4.91301 1.60825 5.70934 1.52299 6.54615C1.43775 7.38299 1.59007 8.22734 1.96245 8.98267C2.18398 9.43186 2.47845 9.8398 2.83159 10.1897C3.12517 10.4813 3.12771 10.9562 2.83647 11.2503C2.54514 11.5443 2.07021 11.546 1.77592 11.2551C1.30525 10.7888 0.912298 10.2452 0.616743 9.64576C0.119932 8.63803 -0.0830093 7.51105 0.0308054 6.39381C0.144684 5.27665 0.570604 4.2139 1.2603 3.32642C1.94993 2.43906 2.87546 1.76264 3.9312 1.3733Z" fill="#000001"/>
</g>
</svg>
