<svg width="24" height="24" viewBox="0 0 24 24" fill="none" xmlns="http://www.w3.org/2000/svg">
<g id="size=24">
<path id="Path" fill-rule="evenodd" clip-rule="evenodd" d="M12.0012 9.00055C13.0671 9.00079 14.0879 9.43629 14.8362 10.2027C15.5836 10.9695 16.0008 12.0073 16.0012 13.0836V14.0142C17.1254 14.1389 18.0006 15.0933 18.0012 16.2506V20.7505C18.0005 21.9923 16.993 23.0001 15.7512 23.0005H8.25119C7.01053 22.9987 6.0019 21.9915 6.00119 20.7505V16.2506C6.00179 15.0941 6.87819 14.1401 8.00119 14.0142V13.0836C8.00154 12.0079 8.41867 10.9693 9.16525 10.2027C9.91303 9.43593 10.9355 9.00146 12.0012 9.00055ZM8.25119 15.5006C7.83891 15.5024 7.50184 15.838 7.50119 16.2506V20.7505C7.5019 21.163 7.83895 21.4987 8.25119 21.5005H15.7512C16.1646 21.5001 16.5005 21.1639 16.5012 20.7505V16.2506C16.5005 15.8372 16.1646 15.501 15.7512 15.5006H8.25119ZM12.0012 18.0005C12.4146 18.001 12.7505 18.3372 12.7512 18.7505V19.2505C12.7505 19.6639 12.4146 20.0001 12.0012 20.0005C11.589 19.9987 11.2519 19.663 11.2512 19.2505V18.7505C11.2518 18.338 11.5889 18.0024 12.0012 18.0005ZM8.02756 1.04645C9.43539 0.902048 10.8607 1.09813 12.1789 1.61578C13.4973 2.1341 14.6758 2.96302 15.6145 4.02887C16.4236 4.94828 17.0373 6.02528 17.4172 7.18805H18.1428C19.4891 7.18975 20.7968 7.65918 21.8401 8.51422C22.8831 9.37025 23.6025 10.5633 23.8772 11.8882C24.1513 13.2133 23.9653 14.5946 23.3498 15.7984C22.914 16.65 22.2802 17.3791 21.511 17.9244C21.1734 18.1616 20.7051 18.0824 20.466 17.7457C20.2288 17.4087 20.3086 16.9403 20.6438 16.7007C21.216 16.2951 21.6885 15.7513 22.0139 15.1158C22.4736 14.2166 22.6134 13.183 22.4084 12.192C22.2029 11.2013 21.6654 10.3117 20.8889 9.67438C20.1125 9.03813 19.1414 8.68947 18.1428 8.68805H16.8547C16.5138 8.68653 16.2131 8.45391 16.1281 8.1236C15.8331 6.97278 15.2702 5.9073 14.4885 5.0191C13.7068 4.13171 12.7256 3.44301 11.6301 3.01227C10.5344 2.5821 9.34934 2.41863 8.1799 2.53864C7.01083 2.65927 5.88295 3.05918 4.89572 3.70367C3.9085 4.34884 3.08365 5.22363 2.49533 6.2525C1.90733 7.28165 1.56878 8.44051 1.50998 9.6275C1.45163 10.8144 1.67467 12.0015 2.15842 13.0845C2.44683 13.729 3.23372 14.7658 3.76584 15.3746C4.03789 15.6863 4.00586 16.1606 3.69455 16.4332C3.38291 16.7035 2.90903 16.6724 2.63693 16.3619C2.09115 15.7376 1.17397 14.5583 0.788298 13.6959C0.208242 12.3972 -0.0580755 10.9754 0.0119312 9.55328C0.0823632 8.13093 0.488093 6.74197 1.19357 5.50739C1.89934 4.27328 2.88863 3.22328 4.07541 2.44782C5.26257 1.67272 6.61974 1.19154 8.02756 1.04645ZM12.0012 10.5006C11.3457 10.5015 10.709 10.7691 10.2395 11.2506C9.76996 11.7331 9.50154 12.3938 9.50119 13.0836V14.0006H14.5012V13.0836C14.5008 12.3931 14.2323 11.7333 13.7619 11.2506C13.2919 10.7695 12.6569 10.5008 12.0012 10.5006Z" fill="#000001"/>
</g>
</svg>
