<svg width="24" height="24" viewBox="0 0 24 24" fill="none" xmlns="http://www.w3.org/2000/svg">
<g id="size=24">
<path id="Path" fill-rule="evenodd" clip-rule="evenodd" d="M12 1C18.0751 1.00001 23 5.92489 23 12C23 18.0751 18.0751 23 12 23C5.92487 23 1 18.0751 1 12C1.00003 5.92489 5.92488 1 12 1ZM13.6504 7.3252C12.0035 7.3252 10.9046 8.69496 10.9004 8.7002C10.9004 8.7002 9.25039 8.42514 8.15039 9.25C7.05039 10.075 6.77539 11.4502 6.77539 11.4502C6.77539 11.4502 4.57538 11.7251 4.5752 13.9248C4.5752 16.1248 6.77539 16.4004 6.77539 16.4004H17.5C17.5 16.4004 19.1504 15.8498 19.1504 13.9248C19.1502 12 17.5 11.7246 17.5 11.7246V9.7998L14.2002 12.5498L12.8252 11.1748L7.0498 14.4746L12.8252 9.25L14.2002 10.625L16.4004 8.7002C16.4004 8.7002 15.3003 7.3253 13.6504 7.3252Z" fill="#000001"/>
</g>
</svg>
