<svg width="16" height="16" viewBox="0 0 16 16" fill="none" xmlns="http://www.w3.org/2000/svg">
<g id="size=16">
<path id="Path" fill-rule="evenodd" clip-rule="evenodd" d="M7.99932 7.24997C8.41147 7.25155 8.74816 7.58772 8.74932 7.99997V12.4394L10.219 10.9697C10.5118 10.6792 10.9873 10.6784 11.2796 10.9697C11.5701 11.262 11.5698 11.7377 11.2796 12.0302L8.5296 14.7802C8.38976 14.9193 8.19649 14.9992 7.99932 15C7.80176 14.9995 7.60917 14.9195 7.46905 14.7802L4.71905 12.0302C4.42759 11.7378 4.42794 11.2624 4.71905 10.9697C5.0118 10.6792 5.48732 10.6784 5.7796 10.9697L7.24932 12.4394V7.99997C7.25048 7.58727 7.58656 7.25084 7.99932 7.24997ZM3.93096 1.37204C4.98553 0.983818 6.13254 0.897617 7.2337 1.12301C8.3349 1.34931 9.35491 1.88 10.1702 2.65231C10.8421 3.28952 11.3577 4.0742 11.6751 4.93747H11.9544C13.0246 4.93824 14.0558 5.36276 14.8138 6.11715C15.571 6.87225 15.9988 7.90017 15.9993 8.96872C15.9987 10.0371 15.5708 11.0652 14.8138 11.8203C14.6111 12.022 14.3847 12.2028 14.1478 12.3554C13.8003 12.5776 13.3358 12.477 13.1116 12.1308C12.8889 11.7832 12.9896 11.318 13.3362 11.0937C13.4848 10.9979 13.6281 10.8832 13.7552 10.7568C14.2301 10.2826 14.4987 9.63719 14.4993 8.96872C14.4988 8.29987 14.2306 7.65394 13.7552 7.17965C13.279 6.70589 12.6287 6.43824 11.9544 6.43747H11.1243C10.784 6.43664 10.485 6.20415 10.3987 5.87497C10.1875 5.06195 9.74916 4.31995 9.13799 3.7402C8.52636 3.16109 7.76014 2.76189 6.93292 2.59176C6.10547 2.42242 5.24275 2.48878 4.45049 2.78024C3.65864 3.07252 2.96147 3.58206 2.44463 4.24606C1.92843 4.91087 1.60831 5.71044 1.52276 6.54587C1.43802 7.38152 1.59065 8.22803 1.96221 8.98239C2.18345 9.43046 2.4791 9.83922 2.83135 10.1884C3.12312 10.4793 3.12469 10.9551 2.83624 11.249C2.5451 11.5414 2.06864 11.5434 1.77471 11.2539C1.30512 10.7883 0.911675 10.2436 0.61651 9.64547C0.120492 8.63867 -0.0827761 7.50963 0.0305722 6.39352C0.144713 5.27778 0.571505 4.21274 1.26006 3.32614C1.94926 2.44019 2.87659 1.76112 3.93096 1.37204Z" fill="#000001"/>
</g>
</svg>
