<svg width="17" height="16" viewBox="0 0 17 16" fill="none" xmlns="http://www.w3.org/2000/svg">
<g id="size=16">
<path id="Path" fill-rule="evenodd" clip-rule="evenodd" d="M8.00196 6.00051C8.48073 6.00063 8.92336 6.10158 9.3017 6.33448C9.68276 6.56963 9.9439 6.90491 10.1181 7.27486C10.3541 7.77679 10.4496 8.38587 10.4843 9.01208C11.6173 9.1286 12.5015 10.0865 12.5017 11.2503V13.7501C12.5011 14.9919 11.4937 15.9996 10.2519 16H5.75208C4.51088 15.9988 3.50283 14.9914 3.50219 13.7501V11.2503C3.50238 10.0868 4.38812 9.12909 5.52064 9.01208C5.55532 8.38636 5.65021 7.77656 5.88586 7.27486C6.05985 6.90534 6.32186 6.56958 6.70222 6.33448C7.08037 6.10149 7.52341 6.00081 8.00196 6.00051ZM5.75208 10.5003C5.339 10.5015 5.00232 10.837 5.00211 11.2503V13.7501C5.00275 14.1631 5.33927 14.4989 5.75208 14.5001H10.2519C10.6653 14.4996 11.0012 14.1635 11.0018 13.7501V11.2503C11.0016 10.8365 10.6655 10.5007 10.2519 10.5003H5.75208ZM8.00196 11.5002C8.41565 11.5007 8.75172 11.8365 8.75193 12.2502V12.7502C8.75128 13.1635 8.41538 13.4997 8.00196 13.5001C7.58916 13.499 7.25264 13.1631 7.252 12.7502V12.2502C7.25221 11.8369 7.58889 11.5014 8.00196 11.5002ZM3.93478 1.37379C4.98984 0.985019 6.13559 0.898241 7.23735 1.1238C8.3393 1.34992 9.35701 1.88019 10.1728 2.65302C10.8456 3.29074 11.36 4.07376 11.6776 4.93806H11.9578C13.0288 4.93836 14.0577 5.36268 14.8161 6.11769C15.5745 6.8733 16.0015 7.89935 16.0016 8.96911C16.0014 9.6306 15.8378 10.2766 15.5338 10.8509C15.3396 11.2155 14.8856 11.3563 14.5202 11.1633C14.1555 10.9694 14.0162 10.5141 14.2087 10.1487C14.3993 9.78861 14.5014 9.38325 14.5016 8.96911C14.5015 8.29912 14.234 7.65493 13.7575 7.18014C13.2809 6.70586 12.6329 6.43828 11.9578 6.43799H11.1278C10.7872 6.43717 10.4872 6.20611 10.4013 5.87649C10.1901 5.0624 9.75362 4.32212 9.14156 3.74183C8.52931 3.16183 7.76396 2.76342 6.93561 2.59345C6.1075 2.42401 5.24607 2.48883 4.45331 2.78094C3.66079 3.07355 2.96446 3.58273 2.44755 4.24767C1.93107 4.9129 1.61098 5.7104 1.52572 6.54638C1.44075 7.38266 1.59311 8.22794 1.96515 8.98279C2.02054 9.09508 2.08058 9.20605 2.14483 9.31285C2.35784 9.66744 2.24316 10.1284 1.88899 10.3421C1.53456 10.5539 1.07305 10.44 0.85974 10.0862C0.773901 9.94359 0.693507 9.79588 0.619517 9.64584C0.123054 8.63861 -0.079929 7.5107 0.0336088 6.39405C0.147488 5.27772 0.574142 4.21383 1.26304 3.32682C1.95229 2.44012 2.87988 1.76313 3.93478 1.37379ZM8.00196 7.50044C7.73367 7.50073 7.57901 7.55663 7.48929 7.61176C7.40295 7.66561 7.31824 7.75426 7.24321 7.9135C7.12666 8.16211 7.05679 8.52042 7.02447 9.00036H8.98043C8.94807 8.51973 8.87757 8.16216 8.76071 7.9135C8.68521 7.75326 8.60156 7.66552 8.51463 7.61176C8.42473 7.55659 8.27078 7.50055 8.00196 7.50044Z" fill="#000001"/>
</g>
</svg>
