<svg width="16" height="16" viewBox="0 0 16 16" fill="none" xmlns="http://www.w3.org/2000/svg">
<g id="size=16">
<g id="Path">
<path d="M15 8C15 11.866 11.866 15 8 15C4.13401 15 1 11.866 1 8C1 4.13401 4.13401 1 8 1C11.866 1 15 4.13401 15 8Z" fill="#6DC8EC"/>
<path d="M11.5 10.8H4.67497C4.67497 10.8 3.27497 10.625 3.27497 9.22501C3.27497 7.82501 4.67497 7.65001 4.67497 7.65001C4.67497 7.65001 4.84997 6.77501 5.54997 6.25001C6.24997 5.72501 7.29997 5.90001 7.29997 5.90001C7.29997 5.90001 7.99997 5.02501 9.04997 5.02501C10.1 5.02501 10.8 5.90001 10.8 5.90001L9.39997 7.12501L8.52497 6.25001L4.84997 9.57501L8.52497 7.47501L9.39997 8.35001L11.5 6.60001V7.82501C11.5 7.82501 12.55 8.00001 12.55 9.22501C12.55 10.45 11.5 10.8 11.5 10.8Z" fill="white"/>
</g>
</g>
</svg>
