<svg width="16" height="16" viewBox="0 0 16 16" fill="none" xmlns="http://www.w3.org/2000/svg">
<g id="size=16">
<g id="Path">
<path fill-rule="evenodd" clip-rule="evenodd" d="M1.21967 1.21967C1.51256 0.926777 1.98744 0.926777 2.28033 1.21967L14.7803 13.7197C15.0732 14.0126 15.0732 14.4874 14.7803 14.7803C14.4874 15.0732 14.0126 15.0732 13.7197 14.7803L12.6101 13.6708C12.3517 13.7231 12.0867 13.75 11.819 13.75H6.09656L6.09388 13.75C5.00425 13.7508 3.93534 13.4514 3.00851 12.8846C2.08157 12.3177 1.3332 11.5056 0.850133 10.5391C0.367628 9.57367 0.169673 8.49385 0.279547 7.42237L0.279971 7.41814C0.390783 6.34533 0.805583 5.3259 1.47562 4.47545C1.76047 4.11389 2.08655 3.78909 2.44591 3.50657L1.21967 2.28033C0.926777 1.98744 0.926777 1.51256 1.21967 1.21967ZM3.5168 4.57747C3.19256 4.81125 2.90181 5.08903 2.65386 5.40374C2.15916 6.03165 1.85438 6.78171 1.7724 7.56869L1.77204 7.57232C1.69062 8.36056 1.83577 9.15595 2.19188 9.86846C2.54806 10.5811 3.10154 11.1832 3.79111 11.6049C4.47997 12.0262 5.27635 12.2501 6.08985 12.25L6.09332 12.25H11.1894L3.5168 4.57747Z" fill="#000001"/>
<path d="M6.3805 2.95403C6.4626 2.54804 6.85828 2.28547 7.26428 2.36756C8.33187 2.58345 9.31799 3.08948 10.11 3.82986C10.758 4.4356 11.2549 5.17844 11.5644 6.00001H11.819C12.8573 6.00001 13.8557 6.4051 14.5939 7.13029C15.3325 7.85593 15.75 8.84296 15.75 9.87501C15.75 10.2838 15.6845 10.6859 15.5592 11.0675C15.4301 11.4611 15.0064 11.6754 14.6128 11.5463C14.2192 11.4172 14.0049 10.9934 14.134 10.5999C14.2102 10.3676 14.25 10.1233 14.25 9.87501C14.25 9.24946 13.9972 8.64678 13.5427 8.20032C13.0878 7.75341 12.468 7.50001 11.819 7.50001H11.0174C10.6766 7.50001 10.3787 7.27025 10.2921 6.94065C10.0903 6.17303 9.67301 5.47466 9.08571 4.92566C8.49829 4.37655 7.76443 3.99907 6.96697 3.83781C6.56098 3.75571 6.29841 3.36003 6.3805 2.95403Z" fill="#000001"/>
</g>
</g>
</svg>
