<svg width="24" height="24" viewBox="0 0 24 24" fill="none" xmlns="http://www.w3.org/2000/svg">
<g id="size=24">
<path id="Path" fill-rule="evenodd" clip-rule="evenodd" d="M1.2208 1.21977C1.51339 0.928396 1.98874 0.92843 2.28135 1.21977L22.7813 21.7198C23.0728 22.0124 23.0727 22.4877 22.7813 22.7803C22.4887 23.0713 22.0133 23.0716 21.7208 22.7803L19.7198 20.7793C19.2093 20.9238 18.6736 20.9999 18.1339 21H8.93467C7.26441 21.0009 5.62426 20.5285 4.20713 19.6387C2.79042 18.7485 1.64813 17.4735 0.913184 15.9639C0.17931 14.4552 -0.121185 12.7661 0.0459962 11.0948V11.0918C0.214509 9.41964 0.846106 7.82475 1.86631 6.49418C2.38308 5.82082 2.99214 5.22473 3.66807 4.72758L1.2208 2.28031C0.929588 1.98783 0.929818 1.51239 1.2208 1.21977ZM4.74326 5.80375C4.10578 6.24303 3.5343 6.78505 3.05674 7.40727C2.20736 8.51513 1.68028 9.84459 1.53916 11.2393V11.2422C1.39912 12.6381 1.64949 14.0487 2.26182 15.3077C2.87468 16.5664 3.82688 17.6278 5.00498 18.3682C6.18069 19.1064 7.54038 19.4988 8.92393 19.5H18.1339C18.2318 19.5 18.3327 19.4959 18.4298 19.4893L4.74326 5.80375ZM9.70225 3.00297C11.5468 3.16757 13.2971 3.90721 14.7062 5.11625C15.9657 6.19775 16.9005 7.60991 17.4093 9.18754C18.5159 9.19269 19.7409 9.25718 20.9103 9.88871C21.7633 10.3501 22.4911 11.019 23.0255 11.8311C23.5595 12.6435 23.8862 13.5793 23.9757 14.5489C24.0645 15.5181 23.9135 16.4977 23.5372 17.3946C23.3763 17.7747 22.9367 17.9551 22.5558 17.7959C22.1758 17.6353 21.9959 17.1953 22.1544 16.8145C22.4355 16.1444 22.548 15.4105 22.4815 14.6856C22.4145 13.9607 22.1699 13.2613 21.7716 12.6553C21.3728 12.0496 20.8303 11.5519 20.1964 11.209C19.2324 10.6886 18.2072 10.6874 16.9044 10.6875H16.8438C16.5016 10.6865 16.2005 10.4519 16.1163 10.1202C15.7365 8.61307 14.9009 7.26057 13.7286 6.25395C12.5561 5.24806 11.101 4.63387 9.56943 4.49711C9.15863 4.45935 8.85329 4.09464 8.88877 3.68363C8.92627 3.27261 9.29112 2.96755 9.70225 3.00297Z" fill="#000001"/>
</g>
</svg>
