<svg width="16" height="16" viewBox="0 0 16 16" fill="none" xmlns="http://www.w3.org/2000/svg">
<g id="size=16">
<path id="Path" fill-rule="evenodd" clip-rule="evenodd" d="M1.21967 1.22071C1.51235 0.928738 1.98748 0.928844 2.28022 1.22071L14.7802 13.7207C15.0722 14.0134 15.0722 14.4885 14.7802 14.7813C14.4874 15.0723 14.0121 15.0729 13.7197 14.7813L12.6103 13.6719C12.3528 13.7239 12.086 13.7509 11.8193 13.751H6.09369C5.00515 13.7514 3.93476 13.4518 3.00873 12.8857C2.08268 12.3191 1.33343 11.5057 0.85053 10.54C0.368653 9.57553 0.16991 8.49428 0.279241 7.42383L0.280217 7.41895C0.391112 6.34729 0.806569 5.32637 1.47553 4.47657C1.75981 4.11586 2.08778 3.78984 2.44623 3.50782L1.21967 2.28125C0.92812 1.98882 0.928632 1.51346 1.21967 1.22071ZM3.51655 4.57813C3.19342 4.81137 2.90153 5.09064 2.65424 5.4043C2.16056 6.03156 1.85449 6.78348 1.7724 7.56934V7.57325C1.69142 8.36059 1.8368 9.15739 2.19233 9.86914C2.54827 10.5808 3.10242 11.184 3.79096 11.6055C4.47909 12.0261 5.27727 12.2507 6.08979 12.251H11.1894L3.51655 4.57813ZM6.3808 2.95508C6.46318 2.5501 6.85944 2.28714 7.26459 2.36817C8.33143 2.5841 9.31864 3.09131 10.1103 3.83106C10.7576 4.43642 11.255 5.18014 11.5644 6.00098H11.8193C12.8567 6.00124 13.8559 6.40659 14.5937 7.13086C15.3317 7.85624 15.7497 8.84456 15.7499 9.87598C15.7498 10.2839 15.6843 10.6876 15.5595 11.0684C15.4298 11.4604 15.0059 11.6751 14.6132 11.5469C14.2212 11.4174 14.006 10.9932 14.1337 10.6006C14.2096 10.3691 14.2498 10.1233 14.2499 9.87598C14.2497 9.25105 13.9967 8.64737 13.5429 8.20118C13.0883 7.75496 12.4675 7.50124 11.8193 7.50098H11.0175C10.6779 7.50019 10.3789 7.2697 10.2919 6.94141C10.0902 6.17458 9.67247 5.47538 9.08588 4.92676C8.49881 4.37825 7.7635 4.00016 6.96674 3.83887C6.56243 3.75605 6.29999 3.35981 6.3808 2.95508Z" fill="#000001"/>
</g>
</svg>
