<svg width="24" height="24" viewBox="0 0 24 24" fill="none" xmlns="http://www.w3.org/2000/svg">
<g id="size=24">
<path id="Path" fill-rule="evenodd" clip-rule="evenodd" d="M12.0012 12.0014C12.4144 12.0024 12.7509 12.338 12.7512 12.7514V19.3646L15.7053 16.2367C15.9895 15.9363 16.4648 15.923 16.7658 16.2064C17.0652 16.4908 17.0794 16.9654 16.7961 17.266L12.5461 21.766C12.5416 21.7708 12.536 21.777 12.5315 21.7816C12.5149 21.7982 12.4958 21.8155 12.4778 21.8305C12.3515 21.9342 12.1883 21.9982 12.0129 22.0014H11.9885C11.7792 21.9976 11.5882 21.9066 11.4543 21.765L7.2053 17.266C6.92231 16.9652 6.93591 16.4906 7.23557 16.2064C7.53647 15.9228 8.01178 15.9365 8.29612 16.2367L11.2512 19.3646V12.7514C11.2515 12.3378 11.5877 12.002 12.0012 12.0014ZM8.02756 1.04725C9.43571 0.902967 10.8605 1.09855 12.1789 1.61659C13.4972 2.13511 14.6759 2.96368 15.6145 4.02968C16.4234 4.94912 17.0375 6.02613 17.4172 7.18886H18.1428C19.4894 7.19081 20.7978 7.66033 21.841 8.516C22.8834 9.37211 23.6028 10.5645 23.8772 11.8891C24.1511 13.2139 23.9651 14.5956 23.3498 15.7992C22.734 17.0027 21.7242 17.9596 20.4914 18.5043C20.1133 18.6704 19.6699 18.4978 19.5022 18.1205C19.3359 17.7422 19.5082 17.2997 19.886 17.1322C20.8018 16.7275 21.555 16.0152 22.0149 15.1166C22.4744 14.2177 22.6132 13.1835 22.4084 12.1928C22.2031 11.2024 21.6649 10.3125 20.8889 9.67518C20.1126 9.0386 19.1415 8.69051 18.1428 8.68886H16.8547C16.5132 8.6883 16.2136 8.45499 16.1281 8.1244C15.8333 6.9738 15.2698 5.90904 14.4885 5.02089C13.7069 4.13317 12.7256 3.44408 11.6301 3.01307C10.5342 2.58252 9.34964 2.41957 8.17991 2.53944C7.01022 2.65981 5.88346 3.05972 4.89573 3.70448C3.90785 4.34973 3.08396 5.22394 2.49534 6.25331C1.90702 7.28279 1.56872 8.44087 1.50999 9.62831C1.45163 10.8155 1.67438 12.002 2.15842 13.0853C2.64277 14.1681 3.37601 15.1218 4.29514 15.8627C4.61614 16.1227 4.66841 16.5954 4.4094 16.9174C4.14983 17.2384 3.67686 17.2886 3.35471 17.0307C2.25001 16.1403 1.3691 14.9954 0.788306 13.6967C0.207985 12.3977 -0.0580668 10.9765 0.0119386 9.55409C0.0822948 8.13137 0.487856 6.74403 1.19358 5.50917C1.89966 4.27435 2.88782 3.22428 4.07542 2.44862C5.26311 1.67325 6.6191 1.19207 8.02756 1.04725Z" fill="#000001"/>
</g>
</svg>
