<svg width="24" height="24" viewBox="0 0 24 24" fill="none" xmlns="http://www.w3.org/2000/svg">
<g id="size=24">
<g id="Path">
<path d="M23 12C23 18.0751 18.0751 23 12 23C5.92487 23 1 18.0751 1 12C1 5.92487 5.92487 1 12 1C18.0751 1 23 5.92487 23 12Z" fill="#6DC8EC"/>
<path d="M17.5 16.4H6.775C6.775 16.4 4.575 16.125 4.575 13.925C4.575 11.725 6.775 11.45 6.775 11.45C6.775 11.45 7.05 10.075 8.15 9.25C9.25 8.425 10.9 8.7 10.9 8.7C10.9 8.7 12 7.325 13.65 7.325C15.3 7.325 16.4 8.7 16.4 8.7L14.2 10.625L12.825 9.25L7.05 14.475L12.825 11.175L14.2 12.55L17.5 9.8V11.725C17.5 11.725 19.15 12 19.15 13.925C19.15 15.85 17.5 16.4 17.5 16.4Z" fill="white"/>
</g>
</g>
</svg>
