<svg width="24" height="24" viewBox="0 0 24 24" fill="none" xmlns="http://www.w3.org/2000/svg">
<g id="size=24">
<path id="Path" fill-rule="evenodd" clip-rule="evenodd" d="M12.0129 12.0009C12.1968 12.0042 12.3753 12.0761 12.51 12.2001C12.5216 12.2109 12.5351 12.2246 12.5461 12.2362L16.7961 16.7362C17.0788 17.0372 17.0658 17.5118 16.7659 17.7958C16.4651 18.079 15.9896 18.0651 15.7053 17.7655L12.7512 14.6376V21.2509C12.7505 21.6639 12.4141 21.9998 12.0012 22.0009C11.5882 22 11.2519 21.664 11.2512 21.2509V14.6376L8.29613 17.7655C8.01204 18.0654 7.53652 18.0787 7.23558 17.7958C6.93623 17.5116 6.92245 17.0369 7.20531 16.7362L11.4543 12.2372C11.5881 12.0951 11.7789 12.0047 11.9885 12.0009H12.0129ZM8.02757 1.04676C9.43556 0.902489 10.8606 1.09819 12.1789 1.6161C13.4971 2.13456 14.676 2.96333 15.6145 4.02918C16.4234 4.94858 17.0374 6.02569 17.4172 7.18836H18.1428C19.4893 7.19031 20.7979 7.66002 21.841 8.51551C22.8834 9.37156 23.6027 10.5641 23.8772 11.8886C24.1512 13.2135 23.9652 14.595 23.3498 15.7987C22.734 17.0023 21.7243 17.9591 20.4914 18.5038C20.1133 18.6698 19.6698 18.4974 19.5022 18.12C19.3362 17.7418 19.5084 17.2992 19.886 17.1317C20.8019 16.727 21.555 16.0148 22.0149 15.1161C22.4744 14.2171 22.6133 13.1831 22.4084 12.1923C22.2031 11.2019 21.6649 10.312 20.8889 9.67469C20.1127 9.03829 19.1414 8.69001 18.1428 8.68836H16.8547C16.5133 8.6876 16.2135 8.45449 16.1282 8.12391C15.8333 6.97336 15.2698 5.9085 14.4885 5.02039C13.7069 4.13282 12.7255 3.44353 11.6301 3.01258C10.5344 2.58216 9.34948 2.41909 8.17992 2.53895C7.01036 2.65936 5.88337 3.05929 4.89574 3.70399C3.9079 4.34923 3.08395 5.22347 2.49535 6.25281C1.90699 7.28229 1.56876 8.44037 1.50999 9.62781C1.4516 10.815 1.67445 12.0015 2.15843 13.0848C2.64271 14.1676 3.37613 15.1213 4.29515 15.8622C4.61625 16.1222 4.66845 16.5948 4.40941 16.9169C4.14982 17.238 3.6769 17.2882 3.35472 17.0302C2.25013 16.1398 1.36904 14.9949 0.788315 13.6962C0.208058 12.3973 -0.0581011 10.976 0.0119477 9.5536C0.0823305 8.13087 0.487833 6.74353 1.19359 5.50867C1.89965 4.27388 2.88787 3.22378 4.07542 2.44813C5.26301 1.67283 6.61925 1.19162 8.02757 1.04676Z" fill="#000001"/>
</g>
</svg>
