<svg width="16" height="16" viewBox="0 0 16 16" fill="none" xmlns="http://www.w3.org/2000/svg">
<g id="size=16">
<path id="Path" fill-rule="evenodd" clip-rule="evenodd" d="M10.7193 9.21989C11.0121 8.92703 11.4869 8.9271 11.7798 9.21989C12.0727 9.51278 12.0727 9.98754 11.7798 10.2804L7.27983 14.7804C6.98692 15.0731 6.51209 15.0732 6.21928 14.7804L4.21928 12.7804C3.92659 12.4876 3.92669 12.0128 4.21928 11.7199C4.51214 11.427 4.98693 11.4271 5.27983 11.7199L6.74956 13.1896L10.7193 9.21989ZM3.9312 1.37321C4.98707 0.983905 6.13227 0.89719 7.23491 1.12321C8.3374 1.34932 9.35443 1.8792 10.1705 2.6525C10.8436 3.2904 11.3577 4.07302 11.6753 4.93766H11.9556C13.0271 4.93777 14.0554 5.36182 14.814 6.11735C15.5728 6.87311 15.9996 7.8988 15.9996 8.96891C15.9995 10.039 15.5728 11.0647 14.814 11.8205C14.6104 12.0233 14.3871 12.2024 14.149 12.3556C13.8007 12.5796 13.336 12.4793 13.1119 12.131C12.8878 11.7827 12.9892 11.318 13.3374 11.0939C13.4871 10.9976 13.6275 10.8853 13.7554 10.758C14.2322 10.2831 14.4995 9.6392 14.4996 8.96891C14.4996 8.29856 14.2323 7.65478 13.7554 7.17985C13.2786 6.70503 12.6312 6.43777 11.9556 6.43766H11.1246C10.7832 6.43739 10.4848 6.20654 10.399 5.87614C10.1878 5.06174 9.75154 4.3218 9.13921 3.74137C8.52666 3.16091 7.76205 2.76287 6.93315 2.59293C6.1043 2.42305 5.24419 2.48792 4.45073 2.78043C3.65725 3.07303 2.96221 3.58153 2.44487 4.24723C1.92764 4.91289 1.60825 5.70929 1.52299 6.54606C1.43774 7.3829 1.59008 8.22725 1.96245 8.98258C2.18397 9.43182 2.47843 9.83967 2.83159 10.1896C3.1254 10.4812 3.12786 10.9561 2.83647 11.2502C2.54506 11.5442 2.07016 11.5461 1.77592 11.255C1.30523 10.7886 0.912296 10.2451 0.616745 9.64567C0.119945 8.63794 -0.0830152 7.51095 0.0308073 6.39371C0.144682 5.2766 0.570654 4.21379 1.2603 3.32633C1.9499 2.43898 2.87551 1.76256 3.9312 1.37321Z" fill="#000001"/>
</g>
</svg>
