<svg width="16" height="16" viewBox="0 0 16 16" fill="none" xmlns="http://www.w3.org/2000/svg">
<g id="size=16">
<path id="Path" fill-rule="evenodd" clip-rule="evenodd" d="M7.99933 7.24986C8.41149 7.25144 8.74817 7.58761 8.74933 7.99986V12.4393L10.2191 10.9696C10.5118 10.6791 10.9873 10.6783 11.2796 10.9696C11.5701 11.2619 11.5699 11.7376 11.2796 12.0301L8.52961 14.7801C8.38976 14.9193 8.19656 14.9991 7.99933 14.9999C7.80173 14.9995 7.60921 14.9194 7.46906 14.7801L4.71906 12.0301C4.42756 11.7376 4.42783 11.2623 4.71906 10.9696C5.01181 10.6791 5.48733 10.6783 5.77961 10.9696L7.24933 12.4393V7.99986C7.25049 7.58712 7.58652 7.25066 7.99933 7.24986ZM3.93097 1.37193C4.98557 0.983698 6.13252 0.897483 7.23371 1.12291C8.33491 1.3492 9.35492 1.87989 10.1702 2.6522C10.8421 3.28941 11.3577 4.0741 11.6751 4.93736H11.9544C13.0246 4.93813 14.0558 5.36266 14.8138 6.11705C15.571 6.87215 15.9988 7.90007 15.9993 8.96861C15.9988 10.037 15.5708 11.0651 14.8138 11.8202C14.611 12.0219 14.3847 12.2027 14.1478 12.3553C13.8002 12.5777 13.3359 12.477 13.1116 12.1307C12.8889 11.783 12.9895 11.3178 13.3362 11.0936C13.4848 10.9978 13.6281 10.8831 13.7552 10.7567C14.2301 10.2825 14.4988 9.63712 14.4993 8.96861C14.4988 8.29976 14.2306 7.65383 13.7552 7.17955C13.279 6.70579 12.6287 6.43813 11.9544 6.43736H11.1243C10.7839 6.43659 10.485 6.20413 10.3987 5.87486C10.1875 5.06184 9.74917 4.31985 9.13801 3.74009C8.52637 3.16098 7.76015 2.76178 6.93293 2.59166C6.10545 2.42229 5.24279 2.48866 4.45051 2.78013C3.65859 3.0724 2.96151 3.58191 2.44465 4.24595C1.92838 4.91079 1.60833 5.71028 1.52277 6.54576C1.438 7.38145 1.59064 8.22788 1.96222 8.98228C2.18346 9.43037 2.47911 9.8391 2.83137 10.1883C3.12312 10.4792 3.12469 10.955 2.83625 11.2489C2.54512 11.5414 2.0687 11.5434 1.77472 11.2538C1.30512 10.7882 0.911689 10.2435 0.616521 9.64537C0.120485 8.63852 -0.0827924 7.50956 0.0305838 6.39341C0.14473 5.27762 0.571456 4.21266 1.26008 3.32603C1.94931 2.44004 2.87654 1.761 3.93097 1.37193Z" fill="#000001"/>
</g>
</svg>
