<svg width="24" height="24" viewBox="0 0 24 24" fill="none" xmlns="http://www.w3.org/2000/svg">
<g id="size=24">
<path id="Path" fill-rule="evenodd" clip-rule="evenodd" d="M1.22079 1.21992C1.51339 0.928551 1.98873 0.928577 2.28134 1.21992L22.7813 21.7199C23.0724 22.0126 23.0726 22.488 22.7813 22.7805C22.4888 23.0716 22.0134 23.0715 21.7208 22.7805L19.7198 20.7795C19.2092 20.9239 18.6736 21 18.1339 21.0002H8.93466C7.26446 21.0011 5.62424 20.5285 4.20712 19.6389C2.79048 18.7487 1.64814 17.4735 0.913174 15.9641C0.179316 14.4554 -0.121172 12.7663 0.0459869 11.0949V11.092C0.214506 9.41974 0.846029 7.82493 1.8663 6.49434C2.38314 5.82089 2.99203 5.22492 3.66806 4.72774L1.22079 2.28047C0.929511 1.98793 0.929628 1.51254 1.22079 1.21992ZM4.74325 5.80391C4.10567 6.24322 3.53435 6.78513 3.05673 7.40742C2.20728 8.51531 1.68027 9.84468 1.53915 11.2395V11.2424C1.39913 12.6382 1.6495 14.0489 2.26181 15.3078C2.87468 16.5664 3.82694 17.628 5.00497 18.3684C6.18067 19.1064 7.54044 19.499 8.92392 19.5002H18.1339C18.2318 19.5002 18.3327 19.4961 18.4298 19.4895L4.74325 5.80391ZM9.70224 3.00313C11.5466 3.16778 13.2972 3.90742 14.7061 5.11641C15.9655 6.19787 16.9006 7.61021 17.4093 9.1877C18.5159 9.19285 19.741 9.25734 20.9102 9.88887C21.7632 10.3502 22.4911 11.0192 23.0255 11.8313C23.5594 12.6436 23.8862 13.5796 23.9757 14.549C24.0645 15.5182 23.9135 16.4979 23.5372 17.3947C23.3764 17.7748 22.9367 17.955 22.5558 17.7961C22.1757 17.6355 21.9958 17.1955 22.1544 16.8146C22.4354 16.1446 22.5479 15.4106 22.4815 14.6857C22.4145 13.961 22.1697 13.2614 21.7716 12.6555C21.3729 12.0499 20.8301 11.552 20.1964 11.2092C19.2324 10.6887 18.2071 10.6876 16.9044 10.6877H16.8438C16.5016 10.6867 16.2006 10.452 16.1163 10.1203C15.7365 8.61337 14.9008 7.2607 13.7286 6.2541C12.5562 5.24828 11.1009 4.63409 9.56942 4.49727C9.15855 4.45962 8.85334 4.09483 8.88876 3.68379C8.92627 3.2727 9.29102 2.96758 9.70224 3.00313Z" fill="#000001"/>
</g>
</svg>
