<svg width="24" height="24" viewBox="0 0 24 24" fill="none" xmlns="http://www.w3.org/2000/svg">
<g id="size=24">
<path id="Path" fill-rule="evenodd" clip-rule="evenodd" d="M5.83549 3.55806C7.39996 2.97603 9.09729 2.84593 10.731 3.18502C12.3674 3.52513 13.8782 4.3224 15.0874 5.48287C16.1551 6.50801 16.9529 7.78273 17.4117 9.18794H18.1373C19.6933 9.18847 21.1863 9.81263 22.2847 10.9204C23.3825 12.0282 23.9993 13.5307 23.9996 15.0942C23.9992 16.6575 23.3823 18.1603 22.2847 19.268C21.1864 20.3754 19.693 20.9999 18.1373 21.0004H8.92827C7.25996 21.0002 5.62322 20.5276 4.20756 19.6391C2.78991 18.7489 1.64802 17.4744 0.912641 15.9643C0.177612 14.4541 -0.122667 12.7653 0.0454535 11.0922C0.21397 9.41925 0.844599 7.8246 1.86577 6.49361C2.8873 5.16302 4.2612 4.14601 5.82768 3.56099C5.82986 3.56017 5.83351 3.55879 5.83549 3.55806ZM10.4263 4.65377C9.06697 4.37163 7.65399 4.48055 6.35209 4.96627C6.3502 4.96697 6.34645 4.96839 6.34428 4.96919C5.04572 5.45585 3.90558 6.30136 3.0562 7.40767C2.20546 8.51665 1.67831 9.84629 1.53764 11.2426C1.39738 12.6392 1.64826 14.0486 2.26127 15.3081C2.87454 16.5673 3.82628 17.6281 5.00541 18.3686C6.18459 19.1086 7.54737 19.5014 8.9351 19.5004H18.1373C19.2911 19.4999 20.4022 19.0371 21.2203 18.2124C22.0379 17.3869 22.4992 16.2638 22.4996 15.0942C22.4993 13.9244 22.038 12.8016 21.2203 11.976C20.4022 11.151 19.2913 10.6885 18.1373 10.6879H16.8492C16.5072 10.6877 16.2079 10.4546 16.1226 10.1235C15.7746 8.76487 15.0548 7.5312 14.0484 6.5649C13.0417 5.5989 11.7855 4.93637 10.4263 4.65377Z" fill="#000001"/>
</g>
</svg>
