<svg width="24" height="24" viewBox="0 0 24 24" fill="none" xmlns="http://www.w3.org/2000/svg">
<g id="size=24">
<path id="Path" fill-rule="evenodd" clip-rule="evenodd" d="M16.719 14.2195C17.0119 13.9269 17.4867 13.9269 17.7796 14.2195C18.0724 14.5123 18.0723 14.9871 17.7796 15.28L10.2796 22.78C9.98668 23.0727 9.51187 23.0729 9.21904 22.78L6.21904 19.78C5.92647 19.4872 5.92642 19.0123 6.21904 18.7195C6.51187 18.4269 6.98674 18.4269 7.27959 18.7195L9.74932 21.1892L16.719 14.2195ZM8.02568 1.04566C9.43467 0.900989 10.8578 1.09652 12.177 1.61499C13.4962 2.13352 14.6745 2.96044 15.6136 4.0271C16.4233 4.94696 17.0354 6.02378 17.4153 7.18726H18.1419C19.4892 7.18886 20.7955 7.65724 21.8392 8.51343C22.8827 9.36971 23.6017 10.562 23.8763 11.8875C24.1506 13.2128 23.9645 14.5936 23.3489 15.7976C22.733 17.0019 21.7241 17.9579 20.4905 18.5027C20.1116 18.67 19.6686 18.4978 19.5013 18.1189C19.3344 17.7401 19.5054 17.2969 19.8841 17.1296C20.8006 16.7249 21.553 16.0143 22.013 15.115C22.4729 14.2155 22.6128 13.1825 22.4075 12.1912C22.2022 11.2 21.6649 10.3111 20.888 9.67359C20.1112 9.03625 19.1406 8.68854 18.1409 8.68726H16.8528C16.5105 8.68704 16.2112 8.45449 16.1263 8.12281C15.8313 6.97143 15.2697 5.90685 14.4876 5.01831C13.7054 4.12988 12.7247 3.44249 11.6282 3.01148C10.5317 2.58053 9.34947 2.41767 8.179 2.53785C7.00847 2.65804 5.88219 3.05756 4.89385 3.70289C3.90563 4.34822 3.08318 5.22203 2.49443 6.25171C1.90576 7.28138 1.56789 8.43798 1.50908 9.62574C1.45041 10.8137 1.67213 11.9998 2.15654 13.0837C2.64097 14.1675 3.37437 15.1188 4.29424 15.8601C4.61666 16.1199 4.66709 16.5923 4.40752 16.9148C4.14764 17.2373 3.67537 17.2889 3.35283 17.0291C2.24735 16.1382 1.36831 14.9948 0.787401 13.6951C0.206699 12.3956 -0.0592125 10.9756 0.011034 9.5525C0.0813989 8.12925 0.485506 6.74181 1.1917 5.5066C1.89796 4.27145 2.88651 3.22275 4.07451 2.44703C5.26257 1.67135 6.61673 1.19035 8.02568 1.04566Z" fill="#000001"/>
</g>
</svg>
