<svg width="16" height="16" viewBox="0 0 16 16" fill="none" xmlns="http://www.w3.org/2000/svg">
<g id="size=16">
<path id="Path" fill-rule="evenodd" clip-rule="evenodd" d="M10.7193 9.21985C11.0121 8.927 11.4869 8.9271 11.7798 9.21985C12.0727 9.51274 12.0727 9.9875 11.7798 10.2804L7.27983 14.7804C6.98692 15.073 6.51209 15.0732 6.21929 14.7804L4.21929 12.7804C3.92662 12.4876 3.9267 12.0127 4.21929 11.7199C4.51213 11.427 4.98693 11.4271 5.27983 11.7199L6.74956 13.1896L10.7193 9.21985ZM3.9312 1.37317C4.98706 0.983873 6.13228 0.897163 7.23491 1.12317C8.33738 1.34928 9.35443 1.87918 10.1705 2.65247C10.8436 3.29035 11.3577 4.07301 11.6753 4.93762H11.9556C13.0271 4.93773 14.0554 5.36181 14.814 6.11731C15.5728 6.87307 15.9996 7.89877 15.9996 8.96887C15.9995 10.039 15.5728 11.0647 14.814 11.8204C14.6104 12.0232 14.3872 12.2023 14.149 12.3556C13.8007 12.5796 13.336 12.4792 13.1119 12.131C12.8879 11.7827 12.9892 11.318 13.3375 11.0939C13.4871 10.9976 13.6275 10.8853 13.7554 10.7579C14.2323 10.283 14.4995 9.63917 14.4996 8.96887C14.4996 8.29853 14.2323 7.65475 13.7554 7.17981C13.2786 6.70502 12.6312 6.43773 11.9556 6.43762H11.1246C10.7832 6.43735 10.4848 6.20649 10.399 5.8761C10.1878 5.06172 9.75154 4.32175 9.13921 3.74134C8.52667 3.16089 7.76203 2.76283 6.93315 2.5929C6.10431 2.42302 5.24419 2.48789 4.45073 2.7804C3.65726 3.07299 2.96221 3.5815 2.44487 4.24719C1.92763 4.91286 1.60825 5.70925 1.523 6.54602C1.43774 7.38286 1.59009 8.22721 1.96245 8.98255C2.18397 9.43177 2.47844 9.83964 2.83159 10.1896C3.1254 10.4812 3.12787 10.956 2.83647 11.2501C2.54506 11.5441 2.07016 11.5461 1.77593 11.255C1.30524 10.7886 0.912291 10.2451 0.616746 9.64563C0.119956 8.6379 -0.0830201 7.51092 0.030809 6.39368C0.144684 5.27656 0.570649 4.21375 1.2603 3.3263C1.9499 2.43895 2.87551 1.76253 3.9312 1.37317Z" fill="#000001"/>
</g>
</svg>
