<svg width="24" height="24" viewBox="0 0 24 24" fill="none" xmlns="http://www.w3.org/2000/svg">
<g id="size=24">
<path id="Path" fill-rule="evenodd" clip-rule="evenodd" d="M5.83549 3.55789C7.39994 2.97589 9.09732 2.84575 10.731 3.18484C12.3674 3.52495 13.8782 4.32224 15.0874 5.48269C16.1551 6.50781 16.9529 7.78261 17.4117 9.18777H18.1372C19.6932 9.18831 21.1863 9.81249 22.2847 10.9202C23.3824 12.028 23.9993 13.5306 23.9996 15.094C23.9992 16.6573 23.3822 18.1602 22.2847 19.2678C21.1864 20.3752 19.693 20.9997 18.1372 21.0003H8.92826C7.25994 21 5.62323 20.5274 4.20756 19.6389C2.7899 18.7487 1.64801 17.4742 0.912637 15.9641C0.177641 14.454 -0.122668 12.7651 0.0454495 11.0921C0.213993 9.41914 0.844631 7.82438 1.86576 6.49343C2.88728 5.16292 4.26126 4.14581 5.82768 3.56082C5.82987 3.55999 5.83355 3.5586 5.83549 3.55789ZM10.4263 4.65359C9.067 4.37145 7.65397 4.48042 6.35209 4.96609C6.35024 4.96678 6.34646 4.96821 6.34428 4.96902C5.04577 5.45566 3.90556 6.30126 3.05619 7.4075C2.20549 8.51643 1.67833 9.84618 1.53764 11.2425C1.39738 12.639 1.64829 14.0485 2.26127 15.3079C2.87454 16.5671 3.82628 17.628 5.00541 18.3684C6.18459 19.1084 7.54736 19.5012 8.9351 19.5003H18.1372C19.2911 19.4997 20.4022 19.0369 21.2203 18.2122C22.0379 17.3868 22.4992 16.2636 22.4996 15.094C22.4993 13.9243 22.038 12.8013 21.2203 11.9759C20.4022 11.1509 19.2913 10.6883 18.1372 10.6878H16.8492C16.5072 10.6876 16.2079 10.4544 16.1226 10.1233C15.7746 8.76475 15.0548 7.531 14.0484 6.56472C13.0417 5.59874 11.7855 4.93619 10.4263 4.65359Z" fill="#000001"/>
</g>
</svg>
