<svg width="24" height="24" viewBox="0 0 24 24" fill="none" xmlns="http://www.w3.org/2000/svg">
<g id="size=24">
<g id="Path">
<path fill-rule="evenodd" clip-rule="evenodd" d="M2.28033 1.21967C1.98744 0.926777 1.51256 0.926777 1.21967 1.21967C0.926777 1.51256 0.926777 1.98744 1.21967 2.28033L3.66744 4.7281C2.99041 5.22581 2.38309 5.81944 1.86567 6.49388C0.844215 7.8253 0.213885 9.41841 0.0455457 11.0921L0.0452363 11.0952C-0.122417 12.7678 0.177963 14.4547 0.912731 15.9644C1.64798 17.4751 2.78898 18.7484 4.2069 19.6389C5.62489 20.5295 7.26268 21.0013 8.93408 21L8.94378 21H18.1331C18.6741 21 19.2073 20.9246 19.719 20.7796L21.7197 22.7803C22.0126 23.0732 22.4874 23.0732 22.7803 22.7803C23.0732 22.4874 23.0732 22.0126 22.7803 21.7197L2.28033 1.21967ZM18.4292 19.4898L4.74292 5.80358C4.10416 6.24341 3.53407 6.78349 3.05578 7.40692C2.20522 8.51558 1.67925 9.84326 1.5383 11.2394L1.53802 11.2422C1.39749 12.6394 1.64828 14.048 2.26148 15.308C2.87465 16.5679 3.82533 17.628 5.00468 18.3687C6.18122 19.1076 7.53861 19.4993 8.92327 19.5L8.93352 19.5H18.1331C18.2322 19.5 18.3309 19.4966 18.4292 19.4898Z" fill="#000001"/>
<path d="M9.70166 3.00301C9.28908 2.96625 8.92482 3.27091 8.88807 3.68349C8.85131 4.09607 9.15597 4.46033 9.56855 4.49709C11.1014 4.63365 12.5551 5.24739 13.7283 6.25443C14.9015 7.26156 15.7364 8.61241 16.1161 10.1206C16.2 10.4539 16.4997 10.6875 16.8434 10.6875L16.9041 10.6875C18.2083 10.6874 19.2311 10.6873 20.1959 11.2088C20.8309 11.552 21.3723 12.0489 21.7714 12.6557C22.1704 13.2625 22.4145 13.9601 22.4813 14.6861C22.5481 15.4121 22.4354 16.1433 22.1537 16.8143C21.9933 17.1962 22.1729 17.6358 22.5548 17.7962C22.9367 17.9566 23.3763 17.777 23.5367 17.3951C23.9138 16.4971 24.0643 15.5192 23.975 14.5487C23.8857 13.5781 23.5593 12.6446 23.0246 11.8315C22.4899 11.0184 21.7632 10.3509 20.9092 9.88924C19.7388 9.25658 18.5158 9.19261 17.4082 9.18752C16.8994 7.60887 15.9657 6.19819 14.7053 5.11625C13.2957 3.90627 11.5472 3.16743 9.70166 3.00301Z" fill="#000001"/>
</g>
</g>
</svg>
