<svg width="16" height="16" viewBox="0 0 16 16" fill="none" xmlns="http://www.w3.org/2000/svg">
<g id="size=16">
<path id="Path" fill-rule="evenodd" clip-rule="evenodd" d="M1.21968 1.21994C1.51236 0.928307 1.98759 0.928239 2.28023 1.21994L14.7802 13.7199C15.0723 14.0126 15.072 14.4877 14.7802 14.7805C14.4874 15.0716 14.0121 15.0724 13.7197 14.7805L12.6103 13.6711C12.3528 13.7231 12.086 13.7501 11.8193 13.7502H6.0937C5.00508 13.7506 3.93482 13.4511 3.00874 12.885C2.08261 12.3183 1.33343 11.505 0.850539 10.5393C0.368705 9.57476 0.169884 8.4935 0.27925 7.42307L0.280227 7.41818C0.391184 6.34666 0.806643 5.3255 1.47554 4.4758C1.75975 4.11524 2.08791 3.78898 2.44624 3.50705L1.21968 2.28049C0.928182 1.98805 0.92865 1.51267 1.21968 1.21994ZM3.51655 4.57736C3.19355 4.81051 2.90148 5.09002 2.65425 5.40353C2.16063 6.0307 1.85456 6.78285 1.77241 7.56857V7.57248C1.69139 8.35982 1.83685 9.15662 2.19234 9.86838C2.54827 10.5801 3.10235 11.1832 3.79097 11.6047C4.47915 12.0254 5.2772 12.2499 6.0898 12.2502H11.1894L3.51655 4.57736ZM6.38081 2.95432C6.46337 2.54957 6.85959 2.2864 7.2646 2.3674C8.33144 2.58332 9.31865 3.09056 10.1103 3.83029C10.7577 4.43563 11.255 5.17938 11.5644 6.00021H11.8193C12.8567 6.0005 13.8559 6.40588 14.5937 7.1301C15.3317 7.8554 15.7496 8.84384 15.75 9.87521C15.7498 10.283 15.6843 10.6868 15.5595 11.0676C15.4298 11.4598 15.006 11.6744 14.6132 11.5461C14.2212 11.4166 14.006 10.9924 14.1337 10.5998C14.2095 10.3684 14.2498 10.1225 14.25 9.87521C14.2496 9.25033 13.9968 8.64653 13.5429 8.20041C13.0883 7.75424 12.4675 7.5005 11.8193 7.50021H11.0175C10.6779 7.49942 10.3788 7.26906 10.2919 6.94064C10.0901 6.17384 9.67251 5.47457 9.08589 4.926C8.49882 4.3775 7.76351 3.99938 6.96675 3.83811C6.56238 3.75528 6.2999 3.3591 6.38081 2.95432Z" fill="#000001"/>
</g>
</svg>
