<svg width="24" height="24" viewBox="0 0 24 24" fill="none" xmlns="http://www.w3.org/2000/svg">
<g id="size=24">
<path id="Path" fill-rule="evenodd" clip-rule="evenodd" d="M13.5264 3.55235C13.6358 3.15353 14.0481 2.9174 14.4473 3.02599C14.8465 3.13487 15.0818 3.54766 14.9736 3.94688L10.4736 20.4469C10.3646 20.8464 9.95231 21.0822 9.55273 20.9733C9.15332 20.8642 8.91747 20.4518 9.02637 20.0524L13.5264 3.55235ZM6.73242 6.20763C7.03192 5.9223 7.50709 5.93306 7.79297 6.23204C8.07862 6.53152 8.06669 7.00661 7.76758 7.29259L2.83594 11.9996L7.76758 16.7076C8.06697 16.9935 8.07842 17.4685 7.79297 17.7682C7.50703 18.0677 7.03204 18.0784 6.73242 17.7926L1.23242 12.5426C1.08447 12.4011 1.00003 12.2043 1 11.9996C1.00036 11.7952 1.08451 11.5988 1.23242 11.4576L6.73242 6.20763ZM16.207 6.23204C16.4929 5.93306 16.9681 5.9223 17.2676 6.20763L22.7676 11.4576C22.9155 11.5988 22.9996 11.7952 23 11.9996C23 12.2043 22.9155 12.4011 22.7676 12.5426L17.2676 17.7926C16.968 18.0784 16.493 18.0677 16.207 17.7682C15.9216 17.4685 15.933 16.9935 16.2324 16.7076L21.1641 11.9996L16.2324 7.29259C15.9333 7.00661 15.9214 6.53152 16.207 6.23204Z" fill="#000001"/>
</g>
</svg>
