<svg width="16" height="16" viewBox="0 0 16 16" fill="none" xmlns="http://www.w3.org/2000/svg">
<g id="size=16">
<g id="Group 231">
<g id="icon-merged">
<path d="M4.4157 7.37844V8.62156L5.34509 8L4.4157 7.37844Z" fill="black"/>
<path d="M7.62712 6.4727V4.73824L4.71169 6.68285L6.01401 7.55304L7.62712 6.4727Z" fill="black"/>
<path d="M11.2854 6.68285L8.36998 4.73824V6.4727L9.98309 7.55304L11.2854 6.68285Z" fill="black"/>
<path d="M4.71169 9.32009L7.62712 11.2617V9.52728L6.01401 8.44694L4.71169 9.32009Z" fill="black"/>
<path d="M8.36998 9.52728V11.2617L11.2854 9.32009L9.98309 8.44694L8.36998 9.52728Z" fill="black"/>
<path d="M8 7.1209L6.68288 7.99997L8 8.87904L9.31416 7.99997L8 7.1209Z" fill="black"/>
<path d="M8 1C4.13446 1 1 4.13446 1 8C1 11.8655 4.13446 15 8 15C11.8655 15 15 11.8655 15 8C15 4.13446 11.8655 1 8 1ZM12.3273 9.32008C12.3273 9.33784 12.3273 9.35264 12.3243 9.36744C12.3243 9.37336 12.3214 9.37928 12.3214 9.38224C12.3184 9.39408 12.3184 9.40296 12.3154 9.4148C12.3125 9.42072 12.3125 9.42664 12.3095 9.43256C12.3066 9.44144 12.3036 9.45032 12.3006 9.4592C12.2977 9.46512 12.2947 9.47104 12.2918 9.47696C12.2888 9.48584 12.2829 9.49471 12.2799 9.50063C12.277 9.50655 12.274 9.51247 12.2681 9.51839C12.2622 9.52727 12.2592 9.53319 12.2533 9.54207C12.2503 9.54799 12.2444 9.55391 12.2414 9.55687C12.2355 9.56279 12.2296 9.57167 12.2237 9.57759C12.2178 9.58351 12.2148 9.58647 12.2089 9.59239C12.203 9.59831 12.1941 9.60423 12.1882 9.61015C12.1822 9.61311 12.1763 9.61903 12.1704 9.62199C12.1674 9.62199 12.1674 9.62495 12.1645 9.62791L8.20423 12.2681C8.14207 12.3095 8.07103 12.3302 7.99704 12.3302C7.926 12.3302 7.85201 12.3095 7.78985 12.2681L3.83256 9.63087C3.8296 9.63087 3.8296 9.62791 3.82664 9.62495C3.82072 9.62199 3.8148 9.61607 3.80888 9.61311C3.80296 9.60719 3.79408 9.60127 3.78816 9.59535C3.78224 9.58943 3.77928 9.58647 3.77336 9.58055C3.76744 9.57463 3.76152 9.56871 3.7556 9.55983C3.75264 9.55391 3.74672 9.54799 3.74376 9.54503C3.73784 9.53911 3.73192 9.53023 3.72896 9.52135C3.726 9.51543 3.72304 9.50951 3.71712 9.50359C3.71121 9.49471 3.70825 9.48584 3.70529 9.47991C3.70233 9.474 3.69937 9.46808 3.69641 9.46216C3.69345 9.45328 3.69049 9.4444 3.68753 9.43552C3.68457 9.4296 3.68457 9.42368 3.68161 9.41776C3.67865 9.40888 3.67569 9.39704 3.67569 9.3852C3.67569 9.37928 3.67273 9.37336 3.67273 9.3704C3.66977 9.3556 3.66977 9.33784 3.66977 9.32304V6.68583C3.66977 6.66808 3.66977 6.65328 3.67273 6.63848C3.67273 6.63256 3.67569 6.62664 3.67569 6.62368C3.67865 6.61184 3.67865 6.60296 3.68161 6.59112C3.68457 6.5852 3.68457 6.57928 3.68753 6.57336C3.69049 6.56448 3.69345 6.5556 3.69641 6.54672C3.69937 6.5408 3.70233 6.53488 3.70529 6.52896C3.70825 6.52008 3.71416 6.5112 3.71712 6.50529C3.72008 6.49937 3.72304 6.49345 3.72896 6.48753C3.73488 6.47865 3.73784 6.47273 3.74376 6.46385C3.74672 6.45793 3.75264 6.45201 3.7556 6.44905C3.76152 6.44313 3.76744 6.43425 3.77336 6.42833C3.77928 6.42241 3.78224 6.41945 3.78816 6.41353C3.79408 6.40761 3.80296 6.40169 3.80888 6.39577C3.8148 6.39281 3.82072 6.38689 3.82664 6.38393C3.8296 6.38393 3.8296 6.38097 3.83256 6.37801L7.78985 3.7408C7.91416 3.65793 8.07695 3.65793 8.20127 3.7408L12.1586 6.37801C12.1615 6.37801 12.1615 6.38097 12.1645 6.38393C12.1704 6.38689 12.1763 6.39281 12.1822 6.39577C12.1882 6.40169 12.197 6.40761 12.203 6.41353C12.2089 6.41945 12.2118 6.42241 12.2178 6.42833C12.2237 6.43425 12.2296 6.44017 12.2355 6.44905C12.2414 6.45497 12.2444 6.46089 12.2474 6.46385C12.2533 6.46977 12.2592 6.47865 12.2622 6.48753C12.2651 6.49345 12.2681 6.49937 12.274 6.50529C12.2799 6.51416 12.2829 6.52008 12.2858 6.52896C12.2888 6.53488 12.2918 6.5408 12.2947 6.54672C12.2977 6.5556 12.3006 6.56448 12.3036 6.57336C12.3066 6.57928 12.3066 6.5852 12.3095 6.59112C12.3125 6.6 12.3154 6.61184 12.3154 6.62368C12.3154 6.6296 12.3184 6.63552 12.3184 6.63848C12.3214 6.65328 12.3214 6.67104 12.3214 6.68583V9.32008H12.3273Z" fill="black"/>
<path d="M11.5843 8.62156V7.37844L10.652 8L11.5843 8.62156Z" fill="black"/>
</g>
<path id="icon-merged_2" fill-rule="evenodd" clip-rule="evenodd" d="M12.3272 9.32015C12.3272 9.33791 12.3272 9.35271 12.3242 9.36751C12.3242 9.37097 12.3232 9.37444 12.3224 9.37731C12.3218 9.37934 12.3213 9.3823 12.3213 9.3823C12.3198 9.38822 12.319 9.3934 12.3183 9.39858C12.3177 9.40247 12.3172 9.40635 12.3163 9.41055L12.3153 9.41486C12.3139 9.41782 12.3131 9.42079 12.3124 9.42375C12.3118 9.42597 12.3113 9.42819 12.3104 9.4304L12.3094 9.43262L12.3005 9.45926L12.2917 9.47702C12.2896 9.4832 12.2861 9.48941 12.2832 9.49459L12.2798 9.5007C12.2769 9.50662 12.2739 9.51254 12.268 9.51846L12.2647 9.52354L12.2606 9.5303C12.2584 9.53399 12.2561 9.53769 12.2532 9.54213C12.2502 9.54805 12.2443 9.55397 12.2413 9.55693C12.2384 9.55989 12.2354 9.56359 12.2325 9.56729C12.2295 9.57099 12.2265 9.57469 12.2236 9.57765L12.2088 9.59245C12.2058 9.59541 12.2021 9.59838 12.1984 9.60133C12.1947 9.60429 12.191 9.60725 12.1881 9.61021C12.1851 9.61169 12.1822 9.61391 12.1792 9.61613C12.1762 9.61835 12.1733 9.62057 12.1703 9.62205L12.1668 9.62474L12.1661 9.62591L12.1644 9.62797L8.20414 12.2681C8.14198 12.3096 8.07095 12.3303 7.99695 12.3303C7.92591 12.3303 7.85192 12.3096 7.78976 12.2681L3.83247 9.63093L3.82897 9.62824L3.82655 9.62501C3.82359 9.62353 3.82063 9.62131 3.81767 9.61909C3.81471 9.61687 3.81175 9.61465 3.80879 9.61317C3.80583 9.61021 3.80212 9.60724 3.79842 9.60428C3.79472 9.60133 3.79103 9.59837 3.78807 9.59541L3.77327 9.58061C3.76735 9.57469 3.76143 9.56877 3.75551 9.55989C3.75255 9.55397 3.74663 9.54805 3.74367 9.54509C3.73775 9.53918 3.73183 9.5303 3.72887 9.52142C3.72591 9.5155 3.72295 9.50958 3.71704 9.50366C3.71291 9.49747 3.71022 9.49127 3.70797 9.48609L3.7052 9.47998L3.69632 9.46222L3.68744 9.43558C3.68596 9.43262 3.68522 9.42966 3.68448 9.4267C3.68374 9.42374 3.683 9.42078 3.68152 9.41782C3.67856 9.40894 3.6756 9.3971 3.6756 9.38526C3.6756 9.3818 3.67458 9.37833 3.67374 9.37546C3.67315 9.37342 3.67264 9.37046 3.67264 9.37046C3.66968 9.35567 3.66968 9.33791 3.66968 9.32311V6.6859C3.66968 6.66814 3.66968 6.65334 3.67264 6.63854C3.67264 6.63507 3.67365 6.63161 3.67449 6.62873C3.67509 6.6267 3.6756 6.62374 3.6756 6.62374C3.67708 6.61782 3.67782 6.61264 3.67856 6.60746C3.67911 6.60358 3.67967 6.59969 3.68053 6.5955L3.68152 6.59118C3.683 6.58822 3.68374 6.58526 3.68448 6.5823C3.68522 6.57934 3.68596 6.57639 3.68744 6.57343L3.69632 6.54679L3.7052 6.52903C3.70726 6.52284 3.71076 6.51665 3.7137 6.51146L3.71704 6.50535C3.71999 6.49943 3.72295 6.49351 3.72887 6.48759C3.73183 6.48315 3.73405 6.47945 3.73627 6.47575C3.73849 6.47205 3.74071 6.46835 3.74367 6.46391C3.74663 6.45799 3.75255 6.45207 3.75551 6.44911C3.75847 6.44615 3.76143 6.44245 3.76439 6.43875C3.76735 6.43505 3.77031 6.43135 3.77327 6.42839L3.78807 6.41359C3.79103 6.41064 3.79474 6.40767 3.79844 6.40471C3.80213 6.40175 3.80583 6.39879 3.80879 6.39584L3.81212 6.3939L3.81767 6.38991C3.82063 6.38769 3.82359 6.38548 3.82655 6.384L3.83004 6.3813L3.83247 6.37808L7.78976 3.74087C7.91407 3.65799 8.07686 3.65799 8.20118 3.74087L12.1585 6.37808L12.162 6.38077L12.1644 6.384C12.1674 6.38548 12.1703 6.3877 12.1733 6.38992C12.1753 6.39144 12.1773 6.39297 12.1794 6.39425L12.1821 6.39584C12.184 6.39768 12.1861 6.39953 12.1884 6.40138L12.1925 6.40471C12.1962 6.40767 12.1999 6.41063 12.2029 6.41359L12.2177 6.42839C12.2236 6.43431 12.2295 6.44023 12.2354 6.44911C12.2389 6.45258 12.2413 6.45605 12.2434 6.45892C12.2448 6.46095 12.2473 6.46391 12.2473 6.46391C12.2532 6.46983 12.2591 6.47871 12.2621 6.48759C12.265 6.49351 12.268 6.49943 12.2739 6.50535C12.2798 6.51423 12.2828 6.52015 12.2857 6.52903L12.2946 6.54679L12.3035 6.57343C12.305 6.57639 12.3057 6.57934 12.3065 6.5823C12.3072 6.58526 12.3079 6.58822 12.3094 6.59118C12.3124 6.60006 12.3153 6.6119 12.3153 6.62374C12.3153 6.6272 12.3164 6.63068 12.3172 6.63355C12.3178 6.63558 12.3183 6.63854 12.3183 6.63854C12.3213 6.65334 12.3213 6.6711 12.3213 6.6859V9.32015H12.3272ZM4.41561 8.62162V7.3785L5.345 8.00006L4.41561 8.62162ZM7.62703 4.7383V6.47276L6.01392 7.5531L4.7116 6.68291L7.62703 4.7383ZM8.36989 4.7383L11.2853 6.68291L9.983 7.5531L8.36989 6.47276V4.7383ZM7.62703 11.2618L4.7116 9.32016L6.01392 8.44701L7.62703 9.52735V11.2618ZM8.36989 11.2618V9.52735L9.983 8.44701L11.2853 9.32016L8.36989 11.2618ZM7.99991 8.87911L6.68279 8.00004L7.99991 7.12097L9.31407 8.00004L7.99991 8.87911ZM11.5842 7.3785V8.62162L10.6519 8.00006L11.5842 7.3785Z" fill="white"/>
</g>
</g>
</svg>
