<svg width="24" height="24" viewBox="0 0 24 24" fill="none" xmlns="http://www.w3.org/2000/svg">
<g id="size=24">
<path id="Path" fill-rule="evenodd" clip-rule="evenodd" d="M13.5264 3.55266C13.6357 3.15367 14.048 2.91764 14.4473 3.0263C14.8465 3.1352 15.082 3.54789 14.9736 3.9472L10.4736 20.4472C10.3646 20.8468 9.95231 21.0825 9.55273 20.9736C9.15328 20.8645 8.91746 20.4522 9.02637 20.0527L13.5264 3.55266ZM6.73242 6.20794C7.03196 5.92243 7.50706 5.93319 7.79297 6.23235C8.07866 6.53188 8.06682 7.00693 7.76758 7.2929L2.83594 11.9999L7.76758 16.7079C8.06702 16.9938 8.07856 17.4689 7.79297 17.7685C7.50703 18.068 7.03204 18.0787 6.73242 17.7929L1.23242 12.5429C1.08438 12.4014 1.00003 12.2047 1 11.9999C1.00028 11.7954 1.08444 11.5992 1.23242 11.4579L6.73242 6.20794ZM16.207 6.23235C16.4929 5.93319 16.968 5.92243 17.2676 6.20794L22.7676 11.4579C22.9156 11.5992 22.9997 11.7954 23 11.9999C23 12.2047 22.9156 12.4014 22.7676 12.5429L17.2676 17.7929C16.968 18.0787 16.493 18.068 16.207 17.7685C15.9214 17.4689 15.933 16.9938 16.2324 16.7079L21.1641 11.9999L16.2324 7.2929C15.9332 7.00693 15.9213 6.53188 16.207 6.23235Z" fill="#000001"/>
</g>
</svg>
