<svg width="16" height="16" viewBox="0 0 16 16" fill="none" xmlns="http://www.w3.org/2000/svg">
<g id="size=16">
<path id="Path" fill-rule="evenodd" clip-rule="evenodd" d="M8.52051 2.576C8.61673 2.17348 9.02114 1.92451 9.42383 2.02033C9.82653 2.11632 10.0751 2.52091 9.97949 2.92366L7.47949 13.4237C7.3835 13.8265 6.97907 14.0752 6.57617 13.9793C6.17338 13.8833 5.92465 13.4788 6.02051 13.076L8.52051 2.576ZM3.73926 4.20002C4.04267 3.91851 4.51798 3.936 4.7998 4.23908C5.08149 4.5425 5.0639 5.01775 4.76074 5.29963L1.85254 7.99983L4.76074 10.7C5.06407 10.9818 5.08138 11.4571 4.7998 11.7606C4.51795 12.064 4.04275 12.0814 3.73926 11.7996L0.239258 8.54963C0.0866866 8.40777 2.85508e-05 8.20817 0 7.99983C0.000141956 7.79152 0.0866401 7.59181 0.239258 7.45002L3.73926 4.20002ZM11.2002 4.23908C11.482 3.936 11.9573 3.91851 12.2607 4.20002L15.7607 7.45002C15.9134 7.59181 15.9999 7.79152 16 7.99983C16 8.20817 15.9133 8.40777 15.7607 8.54963L12.2607 11.7996C11.9573 12.0814 11.482 12.064 11.2002 11.7606C10.9186 11.4571 10.9359 10.9818 11.2393 10.7L14.1475 7.99983L11.2393 5.29963C10.9361 5.01775 10.9185 4.5425 11.2002 4.23908Z" fill="#000001"/>
</g>
</svg>
