<svg width="24" height="24" viewBox="0 0 24 24" fill="none" xmlns="http://www.w3.org/2000/svg">
<g id="size=24">
<g id="Group 230">
<g id="icon-merged">
<path d="M6.36753 11.0233V12.9767L7.828 12L6.36753 11.0233Z" fill="#000001"/>
<path d="M11.414 9.59996V6.87438L6.83265 9.93019L8.87916 11.2976L11.414 9.59996Z" fill="#000001"/>
<path d="M17.1628 9.93019L12.5814 6.87438V9.59996L15.1163 11.2976L17.1628 9.93019Z" fill="#000001"/>
<path d="M6.83265 14.0744L11.414 17.1256V14.4L8.87916 12.7023L6.83265 14.0744Z" fill="#000001"/>
<path d="M12.5814 14.4V17.1256L17.1628 14.0744L15.1163 12.7023L12.5814 14.4Z" fill="#000001"/>
<path d="M12 10.6186L9.93023 12L12 13.3814L14.0651 12L12 10.6186Z" fill="#000001"/>
<path d="M12 1C5.92558 1 1 5.92558 1 12C1 18.0744 5.92558 23 12 23C18.0744 23 23 18.0744 23 12C23 5.92558 18.0744 1 12 1ZM18.8 14.0744C18.8 14.1023 18.8 14.1256 18.7953 14.1488C18.7953 14.1581 18.7907 14.1674 18.7907 14.1721C18.786 14.1907 18.786 14.2046 18.7814 14.2233C18.7767 14.2326 18.7767 14.2419 18.7721 14.2512C18.7674 14.2651 18.7628 14.2791 18.7581 14.293C18.7535 14.3023 18.7488 14.3116 18.7442 14.3209C18.7395 14.3349 18.7302 14.3488 18.7256 14.3581C18.7209 14.3674 18.7163 14.3767 18.707 14.386C18.6977 14.4 18.693 14.4093 18.6837 14.4233C18.6791 14.4326 18.6698 14.4419 18.6651 14.4465C18.6558 14.4558 18.6465 14.4698 18.6372 14.4791C18.6279 14.4884 18.6233 14.493 18.614 14.5023C18.6047 14.5116 18.5907 14.5209 18.5814 14.5302C18.5721 14.5349 18.5628 14.5442 18.5535 14.5488C18.5488 14.5488 18.5488 14.5535 18.5442 14.5581L12.3209 18.707C12.2233 18.7721 12.1116 18.8046 11.9953 18.8046C11.8837 18.8046 11.7674 18.7721 11.6698 18.707L5.45116 14.5628C5.44651 14.5628 5.44651 14.5581 5.44186 14.5535C5.43256 14.5488 5.42326 14.5395 5.41395 14.5349C5.40465 14.5256 5.3907 14.5163 5.3814 14.507C5.37209 14.4977 5.36744 14.493 5.35814 14.4837C5.34884 14.4744 5.33953 14.4651 5.33023 14.4512C5.32558 14.4419 5.31628 14.4326 5.31163 14.4279C5.30233 14.4186 5.29302 14.4046 5.28837 14.3907C5.28372 14.3814 5.27907 14.3721 5.26977 14.3628C5.26047 14.3488 5.25581 14.3349 5.25116 14.3256C5.24651 14.3163 5.24186 14.307 5.23721 14.2977C5.23256 14.2837 5.22791 14.2698 5.22326 14.2558C5.21861 14.2465 5.2186 14.2372 5.21395 14.2279C5.2093 14.214 5.20465 14.1953 5.20465 14.1767C5.20465 14.1674 5.2 14.1581 5.2 14.1535C5.19535 14.1302 5.19535 14.1023 5.19535 14.0791V9.93488C5.19535 9.90698 5.19535 9.88372 5.2 9.86046C5.2 9.85116 5.20465 9.84186 5.20465 9.83721C5.2093 9.8186 5.2093 9.80465 5.21395 9.78605C5.2186 9.77674 5.21861 9.76744 5.22326 9.75814C5.22791 9.74419 5.23256 9.73023 5.23721 9.71628C5.24186 9.70698 5.24651 9.69767 5.25116 9.68837C5.25581 9.67442 5.26512 9.66046 5.26977 9.65116C5.27442 9.64186 5.27907 9.63256 5.28837 9.62325C5.29767 9.6093 5.30233 9.6 5.31163 9.58605C5.31628 9.57674 5.32558 9.56744 5.33023 9.56279C5.33953 9.55349 5.34884 9.53953 5.35814 9.53023C5.36744 9.52093 5.37209 9.51628 5.3814 9.50698C5.3907 9.49767 5.40465 9.48837 5.41395 9.47907C5.42326 9.47442 5.43256 9.46512 5.44186 9.46047C5.44651 9.46047 5.44651 9.45581 5.45116 9.45116L11.6698 5.30698C11.8651 5.17674 12.1209 5.17674 12.3163 5.30698L18.5349 9.45116C18.5395 9.45116 18.5395 9.45581 18.5442 9.46047C18.5535 9.46512 18.5628 9.47442 18.5721 9.47907C18.5814 9.48837 18.5953 9.49767 18.6047 9.50698C18.614 9.51628 18.6186 9.52093 18.6279 9.53023C18.6372 9.53953 18.6465 9.54884 18.6558 9.56279C18.6651 9.57209 18.6698 9.5814 18.6744 9.58605C18.6837 9.59535 18.693 9.6093 18.6977 9.62325C18.7023 9.63256 18.707 9.64186 18.7163 9.65116C18.7256 9.66512 18.7302 9.67442 18.7349 9.68837C18.7395 9.69767 18.7442 9.70698 18.7488 9.71628C18.7535 9.73023 18.7581 9.74419 18.7628 9.75814C18.7674 9.76744 18.7674 9.77674 18.7721 9.78605C18.7767 9.8 18.7814 9.8186 18.7814 9.83721C18.7814 9.84651 18.786 9.85581 18.786 9.86046C18.7907 9.88372 18.7907 9.91163 18.7907 9.93488V14.0744H18.8Z" fill="#000001"/>
<path d="M17.6325 12.9767V11.0233L16.1674 12L17.6325 12.9767Z" fill="#000001"/>
</g>
</g>
</g>
</svg>
