<svg width="16" height="16" viewBox="0 0 16 16" fill="none" xmlns="http://www.w3.org/2000/svg">
<g id="size=16">
<path id="Path" d="M8.75 1C9.63343 1 10.3984 1.50914 10.7666 2.25H11.75C12.4481 2.25 13.0512 2.65876 13.332 3.25H14.25C15.2165 3.25 16 4.0335 16 5V11C16 11.9665 15.2165 12.75 14.25 12.75H13.332C13.0512 13.3412 12.4481 13.75 11.75 13.75H10.7666C10.3984 14.4909 9.63343 15 8.75 15H2.25C1.00736 15 0 13.9926 0 12.75V3.25C0 2.00736 1.00736 1 2.25 1H8.75ZM2.25 2.5C1.83579 2.5 1.5 2.83579 1.5 3.25V12.75C1.5 13.1642 1.83579 13.5 2.25 13.5H8.75C9.16421 13.5 9.5 13.1642 9.5 12.75V3.25C9.5 2.83579 9.16421 2.5 8.75 2.5H2.25ZM11 12.25H11.75C11.8881 12.25 12 12.1381 12 12V4C12 3.86193 11.8881 3.75 11.75 3.75H11V12.25ZM13.5 11.25H14.25C14.3881 11.25 14.5 11.1381 14.5 11V5C14.5 4.86193 14.3881 4.75 14.25 4.75H13.5V11.25ZM6.25 7.0498C6.63658 7.0498 6.95017 7.36342 6.9502 7.75C6.9502 8.1366 6.6366 8.4502 6.25 8.4502H3.75C3.36342 8.45017 3.0498 8.13658 3.0498 7.75C3.04983 7.36344 3.36344 7.04983 3.75 7.0498H6.25ZM7.25 4.0498C7.63658 4.0498 7.95017 4.36342 7.9502 4.75C7.9502 5.1366 7.6366 5.4502 7.25 5.4502H3.75C3.36342 5.45017 3.0498 5.13658 3.0498 4.75C3.04983 4.36344 3.36344 4.04983 3.75 4.0498H7.25Z" fill="#000001"/>
</g>
</svg>
