<svg width="24" height="24" viewBox="0 0 24 24" fill="none" xmlns="http://www.w3.org/2000/svg">
<g id="size=24">
<path id="Path" d="M14.25 2C15.1039 2 15.8667 2.38934 16.3711 3H17.25C18.1039 3 18.8667 3.38934 19.3711 4H20.25C21.7688 4 23 5.23122 23 6.75V17.25C23 18.7688 21.7688 20 20.25 20H19.3711C18.8667 20.6107 18.1039 21 17.25 21H16.3711C15.8667 21.6107 15.1039 22 14.25 22H3.75C2.23122 22 1 20.7688 1 19.25V4.75C1 3.23122 2.23122 2 3.75 2H14.25ZM3.75 3.5C3.05964 3.5 2.5 4.05964 2.5 4.75V19.25C2.5 19.9404 3.05964 20.5 3.75 20.5H14.25C14.9404 20.5 15.5 19.9404 15.5 19.25V4.75C15.5 4.05964 14.9404 3.5 14.25 3.5H3.75ZM17 4.75V19.25C17 19.3343 16.9967 19.4177 16.9893 19.5H17.25C17.9404 19.5 18.5 18.9404 18.5 18.25V5.75C18.5 5.05964 17.9404 4.5 17.25 4.5H16.9893C16.9967 4.58233 17 4.66574 17 4.75ZM20 5.75V18.25C20 18.3343 19.9967 18.4177 19.9893 18.5H20.25C20.9404 18.5 21.5 17.9404 21.5 17.25V6.75C21.5 6.05964 20.9404 5.5 20.25 5.5H19.9893C19.9967 5.58233 20 5.66574 20 5.75ZM10.25 9C10.6642 9 11 9.33579 11 9.75C11 10.1642 10.6642 10.5 10.25 10.5H5.75C5.33579 10.5 5 10.1642 5 9.75C5 9.33579 5.33579 9 5.75 9H10.25ZM12.25 6C12.6642 6 13 6.33579 13 6.75C13 7.16421 12.6642 7.5 12.25 7.5H5.75C5.33579 7.5 5 7.16421 5 6.75C5 6.33579 5.33579 6 5.75 6H12.25Z" fill="#000001"/>
</g>
</svg>
