<svg width="16" height="16" viewBox="0 0 16 16" fill="none" xmlns="http://www.w3.org/2000/svg">
<g id="size=16">
<g id="Path">
<path d="M3.05005 4.75005C3.05005 4.36345 3.36345 4.05005 3.75005 4.05005H7.25005C7.63665 4.05005 7.95005 4.36345 7.95005 4.75005C7.95005 5.13665 7.63665 5.45005 7.25005 5.45005H3.75005C3.36345 5.45005 3.05005 5.13665 3.05005 4.75005Z" fill="#000001"/>
<path d="M3.75005 7.05005C3.36345 7.05005 3.05005 7.36345 3.05005 7.75005C3.05005 8.13665 3.36345 8.45005 3.75005 8.45005H6.25005C6.63665 8.45005 6.95005 8.13665 6.95005 7.75005C6.95005 7.36345 6.63665 7.05005 6.25005 7.05005H3.75005Z" fill="#000001"/>
<path fill-rule="evenodd" clip-rule="evenodd" d="M0 3.25C0 2.00736 1.00736 1 2.25 1H8.75C9.63343 1 10.3979 1.50914 10.7661 2.25H11.75C12.4481 2.25 13.0507 2.65876 13.3316 3.25H14.25C15.2165 3.25 16 4.0335 16 5V11C16 11.9665 15.2165 12.75 14.25 12.75H13.3316C13.0507 13.3412 12.4481 13.75 11.75 13.75H10.7661C10.3979 14.4909 9.63343 15 8.75 15H2.25C1.00736 15 0 13.9926 0 12.75V3.25ZM13.5 11.25H14.25C14.3881 11.25 14.5 11.1381 14.5 11V5C14.5 4.86193 14.3881 4.75 14.25 4.75H13.5V11.25ZM11 12.25V3.75H11.75C11.8881 3.75 12 3.86193 12 4V12C12 12.1381 11.8881 12.25 11.75 12.25H11ZM2.25 2.5C1.83579 2.5 1.5 2.83579 1.5 3.25V12.75C1.5 13.1642 1.83579 13.5 2.25 13.5H8.75C9.16421 13.5 9.5 13.1642 9.5 12.75V3.25C9.5 2.83579 9.16421 2.5 8.75 2.5H2.25Z" fill="#000001"/>
</g>
</g>
</svg>
