<svg width="24" height="24" viewBox="0 0 24 24" fill="none" xmlns="http://www.w3.org/2000/svg">
<g id="size=24">
<path id="Path" d="M12 1C18.0751 1 23 5.92487 23 12C23 18.0751 18.0751 23 12 23C5.92487 23 1 18.0751 1 12C1 5.92487 5.92487 1 12 1ZM12 2.5C6.75329 2.5 2.5 6.75329 2.5 12C2.5 17.2467 6.75329 21.5 12 21.5C17.2467 21.5 21.5 17.2467 21.5 12C21.5 6.75329 17.2467 2.5 12 2.5ZM16.0029 7.04883C16.2724 6.959 16.5696 7.02864 16.7705 7.22949C16.9714 7.43037 17.041 7.72757 16.9512 7.99707L14.832 14.3574C14.7574 14.5813 14.5813 14.7574 14.3574 14.832L7.99707 16.9512C7.72757 17.041 7.43037 16.9714 7.22949 16.7705C7.02864 16.5696 6.959 16.2724 7.04883 16.0029L9.16895 9.64258C9.24363 9.41893 9.41893 9.24363 9.64258 9.16895L16.0029 7.04883ZM10.4727 10.4727L8.94629 15.0537L13.5273 13.5273L15.0537 8.94629L10.4727 10.4727Z" fill="#000001"/>
</g>
</svg>
