<svg width="24" height="24" viewBox="0 0 24 24" fill="none" xmlns="http://www.w3.org/2000/svg">
<g id="size=24">
<g id="group" clip-path="url(#clip0_7057_66)">
<path id="Vector" d="M2.70986 17.1775C2.50284 17.5151 2.27034 17.9069 2.0888 18.219C2.00383 18.3626 1.97859 18.5338 2.01849 18.6958C2.05839 18.8578 2.16026 18.9976 2.30219 19.0853L6.44265 21.6333C6.5146 21.6777 6.59467 21.7074 6.6782 21.7205C6.76173 21.7337 6.84704 21.7301 6.92916 21.7099C7.01128 21.6898 7.08857 21.6534 7.15651 21.6031C7.22445 21.5528 7.28169 21.4894 7.32489 21.4167C7.48732 21.1396 7.70071 20.7797 7.93322 20.3943C9.57348 17.6871 11.2265 18.0184 14.1981 19.4389L18.3035 21.3912C18.3804 21.4279 18.464 21.4487 18.5491 21.4524C18.6343 21.4562 18.7193 21.4428 18.7992 21.4131C18.8791 21.3834 18.9522 21.338 19.0142 21.2795C19.0762 21.2211 19.1259 21.1507 19.1602 21.0727L21.1317 16.6138C21.1987 16.4607 21.2028 16.2875 21.1432 16.1314C21.0837 15.9753 20.9652 15.8489 20.8132 15.7793C19.9469 15.3716 18.2239 14.5563 16.6728 13.811C11.08 11.091 6.33755 11.2694 2.70986 17.1775Z" fill="#000001"/>
<path id="Vector_2" d="M21.275 7.04932C21.4821 6.71172 21.7146 6.31678 21.912 6.00784C21.9967 5.86388 22.0215 5.69242 21.981 5.53038C21.9405 5.36835 21.8379 5.2287 21.6955 5.14153L17.555 2.59355C17.4832 2.54963 17.4034 2.52039 17.3202 2.5075C17.237 2.49462 17.152 2.49836 17.0703 2.5185C16.9886 2.53864 16.9116 2.57478 16.8439 2.62483C16.7762 2.67489 16.7191 2.73787 16.6759 2.81013C16.5103 3.08722 16.2969 3.44712 16.0644 3.8325C14.4242 6.53973 12.7744 6.20849 9.7996 4.788L5.68143 2.84516C5.60463 2.80904 5.52138 2.78863 5.43658 2.78513C5.35178 2.78162 5.26713 2.7951 5.18761 2.82478C5.1081 2.85445 5.03531 2.89971 4.97353 2.9579C4.91175 3.0161 4.86222 3.08606 4.82786 3.16366L2.85636 7.62262C2.78941 7.77569 2.78528 7.94894 2.84485 8.10502C2.90443 8.26111 3.02294 8.38755 3.17486 8.45708C4.04117 8.86476 5.76742 9.67693 7.31532 10.4254C12.9049 13.1231 17.6474 12.9447 21.275 7.04932Z" fill="#000001"/>
</g>
</g>
<defs>
<clipPath id="clip0_7057_66">
<rect width="20" height="20" fill="white" transform="translate(2 2)"/>
</clipPath>
</defs>
</svg>
