<svg width="16" height="16" viewBox="0 0 16 16" fill="none" xmlns="http://www.w3.org/2000/svg">
<g id="size=16">
<g id="Path">
<path d="M11.6233 8.46046C11.4442 8.46861 11.2651 8.47674 11.086 8.49302L10.0116 8.52558C9.7186 8.55814 9.39302 8.55814 9.1 8.55814C9.32309 8.6325 9.52731 8.72574 9.74139 8.82348C9.8085 8.85412 9.87658 8.8852 9.94651 8.91628L10.9233 9.37209C11.2488 9.50233 11.5744 9.66512 11.9 9.82791L11.8023 10.0884C11.4767 9.9907 11.1186 9.86047 10.793 9.73023L9.78372 9.33953C9.63721 9.2907 9.49884 9.23372 9.36046 9.17674C9.22209 9.11977 9.08372 9.06279 8.93721 9.01395C9.13255 9.2093 9.36047 9.43722 9.55581 9.66512L10.3047 10.4465C10.4544 10.6391 10.6183 10.8176 10.7778 10.9914C10.8609 11.0819 10.9428 11.1712 11.0209 11.2605L10.8256 11.4558C10.633 11.306 10.4544 11.1421 10.2807 10.9827C10.1902 10.8996 10.1009 10.8176 10.0116 10.7395L9.23023 9.9907C9.00233 9.79535 8.80698 9.60001 8.57908 9.3721C8.62792 9.51861 8.68488 9.65698 8.74186 9.79535C8.79884 9.93372 8.85581 10.0721 8.90465 10.2186L9.23023 11.293C9.36047 11.6186 9.4907 11.9442 9.58837 12.3023L9.32791 12.4C9.24651 12.2372 9.17326 12.0744 9.1 11.9116C9.02674 11.7488 8.95349 11.586 8.87209 11.4233L8.41628 10.4465C8.35116 10.3 8.29419 10.1616 8.23721 10.0233C8.18023 9.88488 8.12326 9.74651 8.05814 9.6C8.02558 9.89302 8.02558 10.2186 8.02558 10.5116L7.99302 11.586C7.97674 11.7651 7.9686 11.9442 7.96046 12.1233C7.95233 12.3023 7.94419 12.4814 7.92791 12.6605H7.66744C7.65116 12.4814 7.64302 12.3023 7.63488 12.1233C7.62674 11.9442 7.6186 11.7651 7.60233 11.586L7.56977 10.5116C7.53721 9.89302 7.53721 9.24186 7.53721 8.62326C6.9186 8.62326 6.3 8.62326 5.64884 8.5907L4.57442 8.55814C4.39535 8.54186 4.21628 8.53372 4.03721 8.52558C3.85814 8.51744 3.67907 8.5093 3.5 8.49302V8.2C3.67907 8.18372 3.85814 8.17558 4.03721 8.16744C4.21628 8.1593 4.39535 8.15116 4.57442 8.13488L5.64884 8.10233H6.52791C6.39767 8.03721 6.2593 7.98023 6.12093 7.92326C5.98256 7.86628 5.84419 7.8093 5.71395 7.74419L4.73721 7.28837C4.57442 7.20698 4.41163 7.13372 4.24884 7.06047C4.08605 6.98721 3.92326 6.91395 3.76047 6.83256L3.8907 6.53954C4.21628 6.63721 4.57442 6.76744 4.9 6.89767L5.9093 7.28837C6.09277 7.34953 6.27625 7.42345 6.45173 7.49415C6.5565 7.53637 6.65843 7.57744 6.75581 7.61395C6.65814 7.5 6.55232 7.39419 6.44651 7.28837C6.3407 7.18256 6.23488 7.07674 6.13721 6.96279L5.38837 6.1814C5.23857 5.9888 5.07471 5.81026 4.91527 5.63655C4.83213 5.54597 4.7502 5.45671 4.67209 5.36744L4.9 5.13953C5.0926 5.28933 5.27113 5.4532 5.44484 5.61264C5.53542 5.69577 5.62469 5.77771 5.71395 5.85581L6.49535 6.60465C6.6093 6.70233 6.71512 6.80814 6.82093 6.91395C6.92674 7.01977 7.03256 7.12558 7.14651 7.22326C7.09767 7.07674 7.0407 6.93837 6.98372 6.8C6.92674 6.66163 6.86977 6.52326 6.82093 6.37674L6.43023 5.36744C6.35179 5.17134 6.28516 4.97523 6.21611 4.77201C6.17052 4.63784 6.12388 4.50056 6.07209 4.35814L6.33256 4.26047C6.41395 4.42326 6.48721 4.58605 6.56046 4.74884C6.63372 4.91163 6.70698 5.07442 6.78837 5.23721L7.24419 6.21395C7.3093 6.34419 7.36628 6.48256 7.42326 6.62093C7.48023 6.7593 7.53721 6.89768 7.60233 7.02791V6.14884L7.63488 5.07442C7.65116 4.89535 7.6593 4.71628 7.66744 4.53721C7.67558 4.35814 7.68372 4.17907 7.7 4H7.99302C8.0093 4.17907 8.01744 4.35814 8.02558 4.53721C8.03372 4.71628 8.04186 4.89535 8.05814 5.07442L8.0907 6.14884C8.12326 6.76744 8.12326 7.4186 8.12326 8.03721C8.74186 8.03721 9.39302 8.03721 10.0116 8.06977L11.086 8.10233C11.2651 8.11861 11.4442 8.12674 11.6233 8.13488C11.8023 8.14302 11.9814 8.15116 12.1605 8.16744V8.42791C11.9814 8.44419 11.8023 8.45233 11.6233 8.46046Z" fill="#000001"/>
<path fill-rule="evenodd" clip-rule="evenodd" d="M1 8C1 11.8744 4.12558 15 8 15C11.8744 15 15 11.8744 15 8C15 4.12558 11.8744 1 8 1C4.12558 1 1 4.12558 1 8ZM1.65116 8C1.65116 4.51628 4.51628 1.65116 8 1.65116C11.4837 1.65116 14.3488 4.51628 14.3488 8C14.3488 11.4837 11.4837 14.3488 8 14.3488C4.51628 14.3488 1.65116 11.4837 1.65116 8Z" fill="#000001"/>
</g>
</g>
</svg>
