<svg width="24" height="24" viewBox="0 0 24 24" fill="none" xmlns="http://www.w3.org/2000/svg">
<g id="size=24">
<g id="Path">
<path d="M16.9364 12.7667C16.7492 12.7753 16.5621 12.784 16.375 12.794L14.75 12.8448C14.2913 12.859 13.8326 12.8665 13.3745 12.8727C13.7954 13.0547 14.2164 13.2367 14.6349 13.4249L16.1162 14.0934C16.2824 14.1728 16.449 14.2511 16.6156 14.3294C16.9399 14.4817 17.2642 14.6341 17.5852 14.7948L17.4255 15.1799C17.0817 15.066 16.7418 14.9432 16.4019 14.8205C16.2319 14.7592 16.062 14.6978 15.8915 14.6376L14.3705 14.0625C13.9415 13.8997 13.515 13.7319 13.0891 13.5617C13.4094 13.8898 13.727 14.2206 14.0418 14.554L15.1555 15.7389C15.2826 15.8805 15.4108 16.0212 15.539 16.162C15.776 16.4221 16.0132 16.6823 16.2438 16.9491L15.9491 17.2438C15.6817 17.0129 15.4213 16.7756 15.1611 16.5383C15.0207 16.4103 14.8803 16.2824 14.7389 16.1555L13.5546 15.0418C13.2197 14.7273 12.8904 14.4085 12.5617 14.0885C12.7313 14.515 12.8997 14.9415 13.0619 15.3711L13.6376 16.8909C13.6979 17.0618 13.7594 17.2322 13.8208 17.4024C13.9434 17.7423 14.0658 18.0818 14.1792 18.4249L13.7954 18.5852C13.6355 18.2675 13.4849 17.9463 13.3344 17.6253C13.2547 17.4554 13.175 17.2855 13.094 17.1162L12.4255 15.6349C12.2367 15.2164 12.054 14.7954 11.8733 14.3739C11.8665 14.8326 11.859 15.2913 11.8448 15.75L11.7947 17.375C11.7841 17.5684 11.775 17.7619 11.766 17.9553C11.7497 18.3036 11.7335 18.6518 11.708 19H11.292C11.2661 18.6455 11.2497 18.2909 11.2333 17.9364C11.2247 17.7493 11.216 17.5621 11.206 17.375L11.1552 15.75C11.1261 14.796 11.1187 13.8421 11.1125 12.8888C10.1585 12.8869 9.20457 12.8826 8.25 12.8566L6.625 12.8114C6.43494 12.8016 6.24489 12.7934 6.05483 12.7851C5.70322 12.7698 5.35161 12.7546 5 12.7297V12.2703C5.35161 12.2454 5.70322 12.2302 6.05483 12.2149C6.24489 12.2066 6.43494 12.1984 6.625 12.1886L8.24938 12.1428C8.69757 12.131 9.14514 12.1255 9.59271 12.1205C9.18105 11.9447 8.76938 11.7683 8.36081 11.5857L6.87695 10.922C6.70101 10.8382 6.52442 10.7559 6.34783 10.6735C6.03295 10.5267 5.71805 10.3799 5.40671 10.2244L5.58252 9.80033C5.91547 9.91158 6.24506 10.0316 6.57446 10.1516C6.75462 10.2172 6.93472 10.2828 7.11529 10.347L8.63381 10.927C9.05229 11.0867 9.46767 11.2526 9.88367 11.4198C9.57043 11.0997 9.25781 10.779 8.94952 10.454L7.83276 9.2729C7.71006 9.13703 7.58636 9.00207 7.46266 8.8671C7.22002 8.60237 6.97734 8.3376 6.742 8.06576L7.06576 7.74138C7.33577 7.97555 7.59881 8.21668 7.86175 8.45773C7.99851 8.58309 8.13523 8.70844 8.2729 8.83276L9.45405 9.94952C9.77856 10.2582 10.1005 10.5696 10.4198 10.8837C10.2526 10.4677 10.0867 10.0523 9.927 9.63443L9.34695 8.11529C9.28349 7.93661 9.2186 7.75838 9.15369 7.58013C9.03308 7.2489 8.91244 6.91759 8.80095 6.58314L9.22438 6.40671C9.37824 6.71482 9.52363 7.02665 9.66893 7.33828C9.7528 7.51816 9.83664 7.69797 9.92205 7.87695L10.5857 9.36081C10.7683 9.77 10.9447 10.1817 11.1211 10.5933C11.1255 10.1458 11.131 9.69757 11.1434 9.25L11.1886 7.625C11.1984 7.43494 11.2066 7.24489 11.2149 7.05483C11.2302 6.70322 11.2454 6.35161 11.2703 6H11.7297C11.7546 6.35161 11.7698 6.70322 11.7851 7.05483C11.7934 7.24489 11.8016 7.43494 11.8114 7.625L11.8572 9.25C11.8826 10.204 11.8869 11.1585 11.8888 12.1119C12.8433 12.118 13.7967 12.1261 14.75 12.1552L16.375 12.2053C16.5685 12.2159 16.7619 12.225 16.9554 12.234C17.3036 12.2503 17.6518 12.2665 18 12.292V12.708C17.6455 12.7339 17.2909 12.7503 16.9364 12.7667Z" fill="#173361"/>
<path fill-rule="evenodd" clip-rule="evenodd" d="M1 12C1 18.0884 5.91163 23 12 23C18.0884 23 23 18.0884 23 12C23 5.91163 18.0884 1 12 1C5.91163 1 1 5.91163 1 12ZM2.02326 12C2.02326 6.52558 6.52558 2.02326 12 2.02326C17.4744 2.02326 21.9767 6.52558 21.9767 12C21.9767 17.4744 17.4744 21.9767 12 21.9767C6.52558 21.9767 2.02326 17.4744 2.02326 12Z" fill="#173361"/>
</g>
</g>
</svg>
