<svg width="16" height="16" viewBox="0 0 16 16" fill="none" xmlns="http://www.w3.org/2000/svg">
<g id="size=16">
<g id="group" clip-path="url(#clip0_7057_81)">
<path id="Vector" d="M1.4969 11.6243C1.35199 11.8606 1.18924 12.1349 1.06216 12.3533C1.00268 12.4539 0.985011 12.5737 1.01294 12.6871C1.04087 12.8005 1.11218 12.8984 1.21153 12.9598L4.10986 14.7434C4.16022 14.7744 4.21627 14.7952 4.27474 14.8044C4.33321 14.8136 4.39293 14.8111 4.45041 14.797C4.5079 14.7829 4.562 14.7575 4.60956 14.7222C4.65711 14.687 4.69718 14.6426 4.72742 14.5917C4.84112 14.3978 4.9905 14.1458 5.15325 13.8761C6.30143 11.981 7.45853 12.2129 9.53864 13.2072L12.4124 14.5739C12.4663 14.5995 12.5248 14.6141 12.5844 14.6168C12.644 14.6194 12.7035 14.61 12.7594 14.5892C12.8154 14.5685 12.8665 14.5367 12.91 14.4957C12.9534 14.4548 12.9881 14.4056 13.0122 14.351L14.3922 11.2297C14.4391 11.1225 14.442 11.0013 14.4003 10.892C14.3586 10.7827 14.2756 10.6942 14.1693 10.6456C13.5628 10.3602 12.3567 9.78945 11.2709 9.26775C7.35598 7.36377 4.03628 7.48862 1.4969 11.6243Z" fill="url(#paint0_linear_7057_81)"/>
<path id="Vector_2" d="M14.4925 4.5345C14.6374 4.29818 14.8001 4.02172 14.9384 3.80546C14.9976 3.70469 15.015 3.58467 14.9866 3.47124C14.9582 3.35782 14.8865 3.26007 14.7867 3.19905L11.8884 1.41546C11.8382 1.38472 11.7823 1.36425 11.724 1.35523C11.6658 1.34621 11.6064 1.34882 11.5491 1.36292C11.4919 1.37702 11.4381 1.40232 11.3907 1.43736C11.3433 1.4724 11.3033 1.51649 11.2731 1.56707C11.1572 1.76103 11.0078 2.01296 10.845 2.28273C9.69685 4.17779 8.54198 3.94592 6.45964 2.95157L3.57693 1.59159C3.52317 1.5663 3.46489 1.55201 3.40553 1.54956C3.34617 1.54711 3.28692 1.55655 3.23126 1.57732C3.17559 1.59809 3.12464 1.62977 3.0814 1.67051C3.03815 1.71125 3.00348 1.76022 2.97943 1.81454L1.59938 4.93581C1.55251 5.04296 1.54962 5.16423 1.59132 5.27349C1.63303 5.38275 1.71599 5.47126 1.82233 5.51993C2.42875 5.80531 3.63712 6.37382 4.72065 6.89775C8.63339 8.78612 11.9531 8.66127 14.4925 4.5345Z" fill="url(#paint1_linear_7057_81)"/>
</g>
</g>
<defs>
<linearGradient id="paint0_linear_7057_81" x1="14.3053" y1="15.6574" x2="5.53672" y2="10.6166" gradientUnits="userSpaceOnUse">
<stop stop-color="#0050D3"/>
<stop offset="0.94" stop-color="#007FFC"/>
<stop offset="1" stop-color="#0082FF"/>
</linearGradient>
<linearGradient id="paint1_linear_7057_81" x1="1.6841" y1="0.494687" x2="10.4526" y2="5.53331" gradientUnits="userSpaceOnUse">
<stop stop-color="#0050D3"/>
<stop offset="0.94" stop-color="#007FFC"/>
<stop offset="1" stop-color="#0082FF"/>
</linearGradient>
<clipPath id="clip0_7057_81">
<rect width="14" height="14" fill="white" transform="translate(1 1)"/>
</clipPath>
</defs>
</svg>
