<svg width="16" height="16" viewBox="0 0 16 16" fill="none" xmlns="http://www.w3.org/2000/svg">
<g id="size=16">
<path id="Path" d="M13.75 0.500122C14.9926 0.500122 16 1.50748 16 2.75012C15.9999 3.99271 14.9926 5.00012 13.75 5.00012C13.5399 5.00012 13.3365 4.971 13.1436 4.91711L12.0303 6.0304C11.9873 6.07333 11.9402 6.1104 11.8906 6.14075C11.9611 6.33052 12 6.53581 12 6.75012V9.25012C12 9.46443 11.9611 9.66973 11.8906 9.8595C11.9402 9.88985 11.9873 9.9269 12.0303 9.96985L13.1436 11.0831C13.3365 11.0292 13.5398 11.0001 13.75 11.0001C14.9926 11.0001 16 12.0075 16 13.2501C15.9999 14.4927 14.9926 15.5001 13.75 15.5001C12.5074 15.5001 11.5001 14.4927 11.5 13.2501C11.5 12.772 11.6491 12.3285 11.9033 11.964L10.9697 11.0304C10.9268 10.9875 10.8897 10.9404 10.8594 10.8907C10.6696 10.9613 10.4643 11.0001 10.25 11.0001H7.75C6.78354 11.0001 6.00006 10.2166 6 9.25012V8.75012H4.37207C4.06317 9.62397 3.22963 10.2501 2.25 10.2501C1.0074 10.2501 5.87541e-05 9.24271 0 8.00012C0 6.75748 1.00736 5.75012 2.25 5.75012C3.22966 5.75012 4.06319 6.37623 4.37207 7.25012H6V6.75012C6 5.78362 6.7835 5.00012 7.75 5.00012H10.25C10.4643 5.00012 10.6696 5.03897 10.8594 5.1095C10.8897 5.05988 10.9268 5.01279 10.9697 4.96985L11.9033 4.03625C11.649 3.6718 11.5 3.22821 11.5 2.75012C11.5 1.50748 12.5074 0.500122 13.75 0.500122ZM13.75 12.5001C13.3358 12.5001 13 12.8359 13 13.2501C13.0001 13.6643 13.3358 14.0001 13.75 14.0001C14.1642 14.0001 14.4999 13.6643 14.5 13.2501C14.5 12.8359 14.1642 12.5001 13.75 12.5001ZM7.75 6.50012C7.61193 6.50012 7.5 6.61205 7.5 6.75012V9.25012C7.50006 9.38814 7.61197 9.50012 7.75 9.50012H10.25C10.388 9.50012 10.4999 9.38814 10.5 9.25012V6.75012C10.5 6.61205 10.3881 6.50012 10.25 6.50012H7.75ZM2.25 7.25012C1.83579 7.25012 1.5 7.58591 1.5 8.00012C1.50006 8.41429 1.83582 8.75012 2.25 8.75012C2.66418 8.75012 2.99994 8.41429 3 8.00012C3 7.58591 2.66421 7.25012 2.25 7.25012ZM13.75 2.00012C13.3358 2.00012 13 2.33591 13 2.75012C13.0001 3.16429 13.3358 3.50012 13.75 3.50012C14.1642 3.50012 14.4999 3.16429 14.5 2.75012C14.5 2.33591 14.1642 2.00012 13.75 2.00012Z" fill="#000001"/>
</g>
</svg>
