<svg width="16" height="16" viewBox="0 0 16 16" fill="none" xmlns="http://www.w3.org/2000/svg">
<g id="size=16">
<path id="Path" fill-rule="evenodd" clip-rule="evenodd" d="M13.75 0.5C12.5074 0.5 11.5 1.50736 11.5 2.75C11.5 3.22813 11.6491 3.67143 11.9034 4.03591L10.9697 4.96967C10.9267 5.01263 10.8901 5.0595 10.8597 5.10914C10.6698 5.03857 10.4644 5 10.25 5H7.75C6.7835 5 6 5.7835 6 6.75V7.25H4.37197C4.06309 6.37611 3.22966 5.75 2.25 5.75C1.00736 5.75 0 6.75736 0 8C0 9.24264 1.00736 10.25 2.25 10.25C3.22966 10.25 4.06309 9.62389 4.37197 8.75L6 8.75V9.25C6 10.2165 6.7835 11 7.75 11H10.25C10.4644 11 10.6698 10.9614 10.8597 10.8909C10.8901 10.9405 10.9267 10.9874 10.9697 11.0303L11.9034 11.9641C11.6491 12.3286 11.5 12.7719 11.5 13.25C11.5 14.4926 12.5074 15.5 13.75 15.5C14.9926 15.5 16 14.4926 16 13.25C16 12.0074 14.9926 11 13.75 11C13.5398 11 13.3364 11.0288 13.1434 11.0827L12.0303 9.96967C11.9874 9.92671 11.9405 9.89006 11.8909 9.8597C11.9614 9.66985 12 9.46443 12 9.25V6.75C12 6.53557 11.9614 6.33016 11.8909 6.1403C11.9405 6.10994 11.9874 6.07329 12.0303 6.03033L13.1434 4.91728C13.3364 4.97118 13.5398 5 13.75 5C14.9926 5 16 3.99264 16 2.75C16 1.50736 14.9926 0.5 13.75 0.5ZM13 2.75C13 2.33579 13.3358 2 13.75 2C14.1642 2 14.5 2.33579 14.5 2.75C14.5 3.16421 14.1642 3.5 13.75 3.5C13.3358 3.5 13 3.16421 13 2.75ZM7.75 6.5C7.61193 6.5 7.5 6.61193 7.5 6.75V9.25C7.5 9.38807 7.61193 9.5 7.75 9.5H10.25C10.3881 9.5 10.5 9.38807 10.5 9.25V6.75C10.5 6.61193 10.3881 6.5 10.25 6.5H7.75ZM13.75 12.5C13.3358 12.5 13 12.8358 13 13.25C13 13.6642 13.3358 14 13.75 14C14.1642 14 14.5 13.6642 14.5 13.25C14.5 12.8358 14.1642 12.5 13.75 12.5ZM1.5 8C1.5 7.58579 1.83579 7.25 2.25 7.25C2.66421 7.25 3 7.58579 3 8C3 8.41421 2.66421 8.75 2.25 8.75C1.83579 8.75 1.5 8.41421 1.5 8Z" fill="black"/>
</g>
</svg>
