<svg width="16" height="16" viewBox="0 0 16 16" fill="none" xmlns="http://www.w3.org/2000/svg">
<g id="size=16">
<path id="Path" d="M13.75 0.499695C14.9925 0.499695 15.9998 1.5072 16 2.74969C16 3.99234 14.9926 4.99969 13.75 4.99969C13.5398 4.99969 13.3365 4.97057 13.1436 4.91669L12.0303 6.02997C11.9874 6.07289 11.9402 6.10998 11.8906 6.14032C11.9611 6.33002 12 6.53546 12 6.74969V9.24969C12 9.46394 11.9611 9.66935 11.8906 9.85907C11.9402 9.88939 11.9874 9.92653 12.0303 9.96942L13.1436 11.0827C13.3365 11.0288 13.5399 10.9997 13.75 10.9997C14.9925 10.9997 15.9998 12.0072 16 13.2497C16 14.4923 14.9926 15.4997 13.75 15.4997C12.5074 15.4997 11.5 14.4923 11.5 13.2497C11.5001 12.7717 11.6491 12.328 11.9033 11.9636L10.9697 11.03C10.9268 10.9871 10.8897 10.9399 10.8594 10.8903C10.6696 10.9608 10.4643 10.9997 10.25 10.9997H7.75C6.7835 10.9997 6 10.2162 6 9.24969V8.74969H4.37207C4.06319 9.62359 3.22966 10.2497 2.25 10.2497C1.00736 10.2497 0 9.24234 0 7.99969C0.000169486 6.7572 1.00746 5.74969 2.25 5.74969C3.22956 5.74969 4.06311 6.37595 4.37207 7.24969H6V6.74969C6.00017 5.78334 6.78361 4.99969 7.75 4.99969H10.25C10.4643 4.99969 10.6696 5.03857 10.8594 5.10907C10.8897 5.05951 10.9268 5.01231 10.9697 4.96942L11.9033 4.03583C11.6491 3.67138 11.5 3.22773 11.5 2.74969C11.5002 1.5072 12.5075 0.499695 13.75 0.499695ZM13.75 12.4997C13.3359 12.4997 13.0002 12.8356 13 13.2497C13 13.6639 13.3358 13.9997 13.75 13.9997C14.1642 13.9997 14.5 13.6639 14.5 13.2497C14.4998 12.8356 14.1641 12.4997 13.75 12.4997ZM7.75 6.49969C7.61203 6.49969 7.50017 6.61177 7.5 6.74969V9.24969C7.5 9.38777 7.61193 9.49969 7.75 9.49969H10.25C10.3881 9.49969 10.5 9.38777 10.5 9.24969V6.74969C10.4998 6.61177 10.388 6.49969 10.25 6.49969H7.75ZM2.25 7.24969C1.83589 7.24969 1.50017 7.58563 1.5 7.99969C1.5 8.41391 1.83579 8.74969 2.25 8.74969C2.66421 8.74969 3 8.41391 3 7.99969C2.99983 7.58563 2.66411 7.24969 2.25 7.24969ZM13.75 1.99969C13.3359 1.99969 13.0002 2.33563 13 2.74969C13 3.16391 13.3358 3.49969 13.75 3.49969C14.1642 3.49969 14.5 3.16391 14.5 2.74969C14.4998 2.33563 14.1641 1.99969 13.75 1.99969Z" fill="#000001"/>
</g>
</svg>
