<svg width="16" height="16" viewBox="0 0 16 16" fill="none" xmlns="http://www.w3.org/2000/svg">
<g id="size=16">
<path id="Path" d="M13.75 0.5C14.9926 0.5 16 1.50736 16 2.75C16 3.99264 14.9926 5 13.75 5C13.5398 5 13.3365 4.97088 13.1436 4.91699L12.0303 6.03027C11.9873 6.07323 11.9403 6.11027 11.8906 6.14062C11.9611 6.33042 12 6.53565 12 6.75V9.25C12 9.46435 11.9611 9.66958 11.8906 9.85938C11.9403 9.88973 11.9873 9.92677 12.0303 9.96973L13.1436 11.083C13.3365 11.0291 13.5398 11 13.75 11C14.9926 11 16 12.0074 16 13.25C16 14.4926 14.9926 15.5 13.75 15.5C12.5074 15.5 11.5 14.4926 11.5 13.25C11.5 12.7719 11.649 12.3284 11.9033 11.9639L10.9697 11.0303C10.9268 10.9873 10.8897 10.9403 10.8594 10.8906C10.6696 10.9611 10.4643 11 10.25 11H7.75C6.7835 11 6 10.2165 6 9.25V8.75H4.37207C4.06319 9.62389 3.22966 10.25 2.25 10.25C1.00736 10.25 0 9.24264 0 8C0 6.75736 1.00736 5.75 2.25 5.75C3.22966 5.75 4.06319 6.37611 4.37207 7.25H6V6.75C6 5.7835 6.7835 5 7.75 5H10.25C10.4643 5 10.6696 5.03885 10.8594 5.10938C10.8897 5.05974 10.9268 5.01268 10.9697 4.96973L11.9033 4.03613C11.649 3.67165 11.5 3.22813 11.5 2.75C11.5 1.50736 12.5074 0.5 13.75 0.5ZM13.75 12.5C13.3358 12.5 13 12.8358 13 13.25C13 13.6642 13.3358 14 13.75 14C14.1642 14 14.5 13.6642 14.5 13.25C14.5 12.8358 14.1642 12.5 13.75 12.5ZM7.75 6.5C7.61193 6.5 7.5 6.61193 7.5 6.75V9.25C7.5 9.38807 7.61193 9.5 7.75 9.5H10.25C10.3881 9.5 10.5 9.38807 10.5 9.25V6.75C10.5 6.61193 10.3881 6.5 10.25 6.5H7.75ZM2.25 7.25C1.83579 7.25 1.5 7.58579 1.5 8C1.5 8.41421 1.83579 8.75 2.25 8.75C2.66421 8.75 3 8.41421 3 8C3 7.58579 2.66421 7.25 2.25 7.25ZM13.75 2C13.3358 2 13 2.33579 13 2.75C13 3.16421 13.3358 3.5 13.75 3.5C14.1642 3.5 14.5 3.16421 14.5 2.75C14.5 2.33579 14.1642 2 13.75 2Z" fill="#000001"/>
</g>
</svg>
