<svg width="24" height="24" viewBox="0 0 24 24" fill="none" xmlns="http://www.w3.org/2000/svg">
<g id="size=24">
<path id="Path" d="M19.5 8.25037C21.433 8.25037 23 9.81737 23 11.7504C22.9998 13.6832 21.4329 15.2504 19.5 15.2504C17.8245 15.2504 16.4235 14.0728 16.0801 12.5004H7.91992C7.5765 14.0728 6.17547 15.2504 4.5 15.2504C2.56712 15.2504 1.00019 13.6832 1 11.7504C1.00001 9.81737 2.56701 8.25037 4.5 8.25037C6.17556 8.25037 7.57658 9.42778 7.91992 11.0004H16.0801C16.4234 9.42778 17.8244 8.25037 19.5 8.25037ZM4.5 9.75037C3.39543 9.75037 2.50001 10.6458 2.5 11.7504C2.50019 12.8548 3.39555 13.7504 4.5 13.7504C5.60445 13.7504 6.49981 12.8548 6.5 11.7504C6.49999 10.6458 5.60457 9.75037 4.5 9.75037ZM19.5 9.75037C18.3954 9.75037 17.5 10.6458 17.5 11.7504C17.5002 12.8548 18.3955 13.7504 19.5 13.7504C20.6045 13.7504 21.4998 12.8548 21.5 11.7504C21.5 10.6458 20.6046 9.75037 19.5 9.75037Z" fill="#000001"/>
</g>
</svg>
