<svg width="24" height="24" viewBox="0 0 24 24" fill="none" xmlns="http://www.w3.org/2000/svg">
<g id="size=24">
<path id="Path" d="M19.5 8.25061C21.433 8.25061 23 9.81761 23 11.7506C22.9997 13.6833 21.4328 15.2506 19.5 15.2506C17.8247 15.2505 16.4235 14.0729 16.0801 12.5006H7.91992C7.57639 14.0729 6.17537 15.2506 4.5 15.2506C2.56733 15.2505 1.00032 13.6832 1 11.7506C1 9.81771 2.56713 8.25076 4.5 8.25061C6.17556 8.25061 7.57659 9.42802 7.91992 11.0006H16.0801C16.4234 9.42811 17.8246 8.25074 19.5 8.25061ZM4.5 9.75061C3.39556 9.75076 2.5 10.6461 2.5 11.7506C2.50032 12.8548 3.39576 13.7505 4.5 13.7506C5.60437 13.7506 6.49968 12.8549 6.5 11.7506C6.5 10.646 5.60457 9.75061 4.5 9.75061ZM19.5 9.75061C18.3956 9.75076 17.5 10.6461 17.5 11.7506C17.5003 12.8548 18.3958 13.7505 19.5 13.7506C20.6044 13.7506 21.4997 12.8549 21.5 11.7506C21.5 10.646 20.6046 9.75061 19.5 9.75061Z" fill="#000001"/>
</g>
</svg>
