<svg width="24" height="24" viewBox="0 0 24 24" fill="none" xmlns="http://www.w3.org/2000/svg">
<g id="size=24">
<path id="Union" fill-rule="evenodd" clip-rule="evenodd" d="M1 11.75C1 9.817 2.567 8.25 4.5 8.25C6.17556 8.25 7.57612 9.42741 7.91946 11L16.0805 11C16.4239 9.42741 17.8244 8.25 19.5 8.25C21.433 8.25 23 9.817 23 11.75C23 13.683 21.433 15.25 19.5 15.25C17.8244 15.25 16.4239 14.0726 16.0805 12.5L7.91946 12.5C7.57612 14.0726 6.17556 15.25 4.5 15.25C2.567 15.25 1 13.683 1 11.75ZM4.5 9.75C3.39543 9.75 2.5 10.6454 2.5 11.75C2.5 12.8546 3.39543 13.75 4.5 13.75C5.60457 13.75 6.5 12.8546 6.5 11.75C6.5 10.6454 5.60457 9.75 4.5 9.75ZM19.5 9.75C18.3954 9.75 17.5 10.6454 17.5 11.75C17.5 12.8546 18.3954 13.75 19.5 13.75C20.6046 13.75 21.5 12.8546 21.5 11.75C21.5 10.6454 20.6046 9.75 19.5 9.75Z" fill="#000001"/>
</g>
</svg>
