<svg width="24" height="24" viewBox="0 0 24 24" fill="none" xmlns="http://www.w3.org/2000/svg">
<g id="size=24">
<path id="Path" d="M20.5 1.75037C22.1569 1.75037 23.5 3.09351 23.5 4.75037C23.4998 6.40703 22.1567 7.75037 20.5 7.75037C19.8841 7.75037 19.3113 7.56475 18.835 7.24646L16.3584 9.46228C16.45 9.70738 16.5 9.97332 16.5 10.2504V13.2504C16.5 13.5274 16.45 13.7934 16.3584 14.0385L18.835 16.2543C19.3113 15.9359 19.8841 15.7504 20.5 15.7504C22.1569 15.7504 23.5 17.0935 23.5 18.7504C23.4998 20.407 22.1567 21.7504 20.5 21.7504C18.8433 21.7504 17.5002 20.407 17.5 18.7504C17.5 18.2535 17.6212 17.7841 17.835 17.3715L15.3936 15.1879C15.0584 15.3861 14.6675 15.5004 14.25 15.5004H11.25C10.0075 15.5004 9.00022 14.4928 9 13.2504V12.5004H6.40527C6.07209 13.7941 4.89772 14.7504 3.5 14.7504C1.84328 14.7504 0.500219 13.407 0.5 11.7504C0.5 10.0935 1.84315 8.75037 3.5 8.75037C4.89788 8.75037 6.07224 9.70645 6.40527 11.0004H9V10.2504C9 9.00773 10.0074 8.00037 11.25 8.00037H14.25C14.6676 8.00037 15.0584 8.11461 15.3936 8.31287L17.835 6.1283C17.6212 5.71573 17.5001 5.24707 17.5 4.75037C17.5 3.09351 18.8431 1.75037 20.5 1.75037ZM20.5 17.2504C19.6716 17.2504 19 17.9219 19 18.7504C19.0002 19.5786 19.6717 20.2504 20.5 20.2504C21.3283 20.2504 21.9998 19.5786 22 18.7504C22 17.9219 21.3284 17.2504 20.5 17.2504ZM11.25 9.50037C10.8358 9.50037 10.5 9.83615 10.5 10.2504V13.2504C10.5002 13.6644 10.8359 14.0004 11.25 14.0004H14.25C14.6641 14.0004 14.9998 13.6644 15 13.2504V10.2504C15 9.83615 14.6642 9.50037 14.25 9.50037H11.25ZM3.5 10.2504C2.67157 10.2504 2 10.9219 2 11.7504C2.00022 12.5786 2.67171 13.2504 3.5 13.2504C4.32829 13.2504 4.99978 12.5786 5 11.7504C5 10.9219 4.32843 10.2504 3.5 10.2504ZM20.5 3.25037C19.6716 3.25037 19 3.92194 19 4.75037C19.0002 5.57861 19.6717 6.25037 20.5 6.25037C21.3283 6.25037 21.9998 5.57861 22 4.75037C22 3.92194 21.3284 3.25037 20.5 3.25037Z" fill="#000001"/>
</g>
</svg>
