<svg width="16" height="16" viewBox="0 0 16 16" fill="none" xmlns="http://www.w3.org/2000/svg">
<g id="size=16">
<g id="Path">
<path d="M8.00357 12.375C7.29158 12.3756 6.59021 12.2024 5.96033 11.8704C5.33045 11.5385 4.7911 11.0579 4.3891 10.4702C3.98709 9.88258 3.73458 9.2057 3.65348 8.49835C3.57238 7.79099 3.66514 7.07453 3.9237 6.41115C4.18227 5.74777 4.59884 5.15753 5.13724 4.69164C5.67565 4.22575 6.31962 3.89831 7.01327 3.73773C7.70691 3.57714 8.42927 3.58828 9.11763 3.77016C9.806 3.95205 10.4396 4.29918 10.9634 4.78144L9.92512 5.86761C9.51236 5.49477 9.00031 5.24966 8.45104 5.16199C7.90177 5.07433 7.33886 5.14787 6.83055 5.3737C6.32224 5.59954 5.89035 5.96796 5.58722 6.43433C5.2841 6.9007 5.12276 7.44498 5.12276 8.0012C5.12276 8.55742 5.2841 9.1017 5.58722 9.56806C5.89035 10.0344 6.32224 10.4029 6.83055 10.6287C7.33886 10.8545 7.90177 10.9281 8.45104 10.8404C9.00031 10.7527 9.51236 10.5076 9.92512 10.1348L10.9634 11.221C10.1568 11.9639 9.10014 12.3759 8.00357 12.375Z" fill="#000001"/>
<path d="M11.524 10.1867C11.4531 10.1867 11.3838 10.1657 11.3248 10.1263C11.2658 10.0869 11.2199 10.0309 11.1927 9.96534C11.1656 9.89981 11.1585 9.82771 11.1723 9.75815C11.1862 9.68859 11.2203 9.6247 11.2705 9.57455C11.3206 9.5244 11.3845 9.49024 11.4541 9.47641C11.5236 9.46257 11.5957 9.46967 11.6613 9.49681C11.7268 9.52395 11.7828 9.56992 11.8222 9.62889C11.8616 9.68786 11.8826 9.75719 11.8826 9.82811C11.8824 9.92315 11.8446 10.0142 11.7774 10.0814C11.7102 10.1486 11.6191 10.1865 11.524 10.1867Z" fill="#000001"/>
<path d="M7.97558 8.948C7.78788 8.94879 7.60417 8.89384 7.44773 8.79012C7.2913 8.6864 7.16917 8.53857 7.09683 8.36537C7.02449 8.19217 7.00519 8.0014 7.04138 7.81722C7.07757 7.63304 7.16762 7.46375 7.30012 7.33081C7.43262 7.19786 7.6016 7.10723 7.78566 7.07042C7.96971 7.03361 8.16055 7.05226 8.33399 7.12402C8.50744 7.19577 8.65568 7.3174 8.75992 7.47349C8.86417 7.62958 8.91974 7.8131 8.91958 8.0008C8.91916 8.25133 8.81967 8.49153 8.64282 8.66898C8.46597 8.84643 8.22611 8.94673 7.97558 8.948Z" fill="#000001"/>
<path d="M11.9353 8.96478C11.8644 8.96478 11.7951 8.94375 11.7361 8.90435C11.6771 8.86494 11.6312 8.80894 11.604 8.74341C11.5769 8.67789 11.5698 8.60579 11.5836 8.53623C11.5975 8.46667 11.6316 8.40277 11.6818 8.35262C11.7319 8.30247 11.7958 8.26832 11.8654 8.25448C11.9349 8.24065 12.007 8.24775 12.0726 8.27489C12.1381 8.30203 12.1941 8.34799 12.2335 8.40696C12.2729 8.46593 12.2939 8.53526 12.2939 8.60619C12.2937 8.70123 12.2559 8.79231 12.1887 8.85952C12.1215 8.92672 12.0304 8.96457 11.9353 8.96478Z" fill="#000001"/>
<path d="M10.8691 8.92005C10.798 8.92005 10.7285 8.89891 10.6695 8.85933C10.6104 8.81975 10.5645 8.76351 10.5374 8.69775C10.5104 8.63199 10.5036 8.55969 10.5177 8.49002C10.5319 8.42035 10.5664 8.35647 10.617 8.30648C10.6675 8.25649 10.7318 8.22266 10.8016 8.20928C10.8714 8.19589 10.9437 8.20357 11.0091 8.23132C11.0746 8.25908 11.1303 8.30566 11.1692 8.36515C11.2081 8.42465 11.2285 8.49436 11.2277 8.56545C11.2266 8.65986 11.1884 8.75005 11.1213 8.81644C11.0541 8.88283 10.9635 8.92006 10.8691 8.92005Z" fill="#000001"/>
<path d="M11.9353 7.7564C11.8644 7.7564 11.7951 7.73537 11.7361 7.69596C11.6771 7.65656 11.6312 7.60056 11.604 7.53503C11.5769 7.46951 11.5698 7.39741 11.5836 7.32785C11.5975 7.25829 11.6316 7.19439 11.6818 7.14424C11.7319 7.09409 11.7958 7.05994 11.8654 7.0461C11.9349 7.03227 12.007 7.03937 12.0726 7.06651C12.1381 7.09365 12.1941 7.13961 12.2335 7.19858C12.2729 7.25755 12.2939 7.32688 12.2939 7.3978C12.2937 7.49284 12.2559 7.58393 12.1887 7.65114C12.1215 7.71834 12.0304 7.75619 11.9353 7.7564Z" fill="#000001"/>
<path d="M10.8691 7.79714C10.7982 7.79714 10.7289 7.77611 10.6699 7.73671C10.6109 7.6973 10.565 7.6413 10.5378 7.57577C10.5107 7.51025 10.5036 7.43815 10.5174 7.36859C10.5313 7.29903 10.5654 7.23513 10.6156 7.18498C10.6657 7.13483 10.7296 7.10068 10.7992 7.08684C10.8687 7.07301 10.9408 7.08011 11.0064 7.10725C11.0719 7.13439 11.1279 7.18035 11.1673 7.23932C11.2067 7.29829 11.2277 7.36762 11.2277 7.43855C11.2277 7.53365 11.1899 7.62486 11.1227 7.69211C11.0554 7.75936 10.9642 7.79714 10.8691 7.79714Z" fill="#000001"/>
<path d="M11.5448 6.55046C11.4739 6.55061 11.4045 6.52972 11.3454 6.49041C11.2863 6.45111 11.2402 6.39516 11.213 6.32965C11.1857 6.26414 11.1785 6.19201 11.1922 6.1224C11.206 6.05278 11.2401 5.98881 11.2902 5.93858C11.3403 5.88835 11.4042 5.85412 11.4738 5.84022C11.5433 5.82632 11.6155 5.83337 11.6811 5.86049C11.7466 5.88761 11.8027 5.93357 11.8421 5.99256C11.8816 6.05154 11.9026 6.12091 11.9026 6.19186C11.9026 6.28683 11.8649 6.37792 11.7979 6.44515C11.7308 6.51237 11.6398 6.55025 11.5448 6.55046Z" fill="#000001"/>
<path fill-rule="evenodd" clip-rule="evenodd" d="M0 2.13333C0 1.3866 0 1.01323 0.145325 0.728013C0.273156 0.47713 0.47713 0.273156 0.728013 0.145325C1.01323 0 1.3866 0 2.13333 0H13.8667C14.6134 0 14.9868 0 15.272 0.145325C15.5229 0.273156 15.7268 0.47713 15.8547 0.728013C16 1.01323 16 1.3866 16 2.13333V13.8667C16 14.6134 16 14.9868 15.8547 15.272C15.7268 15.5229 15.5229 15.7268 15.272 15.8547C14.9868 16 14.6134 16 13.8667 16H2.13333C1.3866 16 1.01323 16 0.728013 15.8547C0.47713 15.7268 0.273156 15.5229 0.145325 15.272C0 14.9868 0 14.6134 0 13.8667V2.13333ZM2.13333 0.666667H13.8667C14.251 0.666667 14.4992 0.667185 14.6881 0.682618C14.8692 0.697415 14.9364 0.722534 14.9693 0.739329C15.0948 0.803245 15.1968 0.905232 15.2607 1.03067C15.2775 1.06364 15.3026 1.13078 15.3174 1.31189C15.3328 1.50078 15.3333 1.74896 15.3333 2.13333V13.8667C15.3333 14.251 15.3328 14.4992 15.3174 14.6881C15.3026 14.8692 15.2775 14.9364 15.2607 14.9693C15.1968 15.0948 15.0948 15.1968 14.9693 15.2607C14.9364 15.2775 14.8692 15.3026 14.6881 15.3174C14.4992 15.3328 14.251 15.3333 13.8667 15.3333H2.13333C1.74896 15.3333 1.50078 15.3328 1.31189 15.3174C1.13078 15.3026 1.06364 15.2775 1.03067 15.2607C0.905232 15.1968 0.803245 15.0948 0.739329 14.9693C0.722534 14.9364 0.697415 14.8692 0.682618 14.6881C0.667185 14.4992 0.666667 14.251 0.666667 13.8667V2.13333C0.666667 1.74897 0.667185 1.50078 0.682618 1.31189C0.697415 1.13078 0.722534 1.06364 0.739329 1.03067C0.803245 0.905232 0.905232 0.803245 1.03067 0.739329C1.06364 0.722534 1.13078 0.697415 1.31189 0.682618C1.50078 0.667185 1.74896 0.666667 2.13333 0.666667Z" fill="#000001"/>
</g>
</g>
</svg>
