<svg width="16" height="16" viewBox="0 0 16 16" fill="none" xmlns="http://www.w3.org/2000/svg">
<g id="size=16">
<g id="Path">
<path d="M8.00571 15C6.86653 15.0009 5.74433 14.7238 4.73652 14.1927C3.72872 13.6616 2.86576 12.8926 2.22255 11.9524C1.57934 11.0121 1.17533 9.92913 1.04556 8.79736C0.9158 7.66559 1.06422 6.51925 1.47793 5.45785C1.89164 4.39644 2.55814 3.45204 3.41959 2.70662C4.28104 1.9612 5.31139 1.43729 6.42123 1.18036C7.53106 0.923431 8.68683 0.941246 9.78821 1.23226C10.8896 1.52327 11.9033 2.07869 12.7414 2.85031L11.0802 4.58817C10.4198 3.99163 9.60049 3.59946 8.72166 3.45919C7.84283 3.31893 6.94218 3.43659 6.12888 3.79792C5.31558 4.15926 4.62455 4.74874 4.13955 5.49493C3.65455 6.24111 3.39641 7.11196 3.39641 8.00191C3.39641 8.89187 3.65455 9.76272 4.13955 10.5089C4.62455 11.2551 5.31558 11.8446 6.12888 12.2059C6.94218 12.5672 7.84283 12.6849 8.72166 12.5446C9.60049 12.4044 10.4198 12.0122 11.0802 11.4157L12.7414 13.1535C11.451 14.3423 9.76022 15.0015 8.00571 15Z" fill="#E03875"/>
<path d="M13.6385 11.4987C13.525 11.4987 13.4141 11.4651 13.3197 11.402C13.2254 11.339 13.1518 11.2494 13.1084 11.1445C13.065 11.0397 13.0536 10.9243 13.0758 10.813C13.0979 10.7017 13.1525 10.5995 13.2328 10.5193C13.313 10.439 13.4153 10.3844 13.5265 10.3622C13.6378 10.3401 13.7532 10.3515 13.858 10.3949C13.9629 10.4383 14.0525 10.5119 14.1155 10.6062C14.1786 10.7006 14.2122 10.8115 14.2122 10.925C14.2119 11.077 14.1513 11.2228 14.0438 11.3303C13.9363 11.4378 13.7905 11.4984 13.6385 11.4987Z" fill="#E03875"/>
<path d="M7.96094 9.5168C7.66062 9.51806 7.36669 9.43015 7.11639 9.26419C6.86608 9.09824 6.67068 8.86172 6.55493 8.5846C6.43919 8.30748 6.40831 8.00224 6.46622 7.70755C6.52412 7.41287 6.66821 7.14201 6.8802 6.92929C7.0922 6.71657 7.36258 6.57158 7.65706 6.51268C7.95155 6.45378 8.25689 6.48362 8.5344 6.59843C8.81191 6.71324 9.04909 6.90784 9.21589 7.15758C9.38269 7.40732 9.47159 7.70096 9.47134 8.00128C9.47067 8.40213 9.31149 8.78644 9.02852 9.07037C8.74556 9.35429 8.36178 9.51477 7.96094 9.5168Z" fill="#E03875"/>
<path d="M14.2965 9.54363C14.183 9.54363 14.0721 9.50998 13.9778 9.44694C13.8834 9.3839 13.8099 9.29429 13.7664 9.18945C13.723 9.08461 13.7117 8.96925 13.7338 8.85795C13.7559 8.74665 13.8106 8.64442 13.8908 8.56418C13.9711 8.48394 14.0733 8.4293 14.1846 8.40716C14.2959 8.38502 14.4112 8.39638 14.5161 8.43981C14.6209 8.48323 14.7105 8.55677 14.7736 8.65113C14.8366 8.74548 14.8703 8.85641 14.8703 8.96989C14.8699 9.12195 14.8094 9.26769 14.7018 9.37521C14.5943 9.48274 14.4486 9.5433 14.2965 9.54363Z" fill="#E03875"/>
<path d="M12.5905 9.47207C12.4768 9.47206 12.3656 9.43825 12.2711 9.37492C12.1766 9.31158 12.1031 9.2216 12.0599 9.11638C12.0166 9.01117 12.0057 8.89548 12.0283 8.78402C12.051 8.67255 12.1063 8.57033 12.1871 8.49035C12.268 8.41037 12.3708 8.35624 12.4826 8.33483C12.5943 8.31342 12.7098 8.3257 12.8146 8.3701C12.9193 8.41451 13.0084 8.48904 13.0707 8.58423C13.133 8.67942 13.1655 8.79097 13.1643 8.90471C13.1626 9.05577 13.1014 9.20007 12.994 9.30629C12.8866 9.41251 12.7416 9.47208 12.5905 9.47207Z" fill="#E03875"/>
<path d="M14.2965 7.61025C14.183 7.61025 14.0721 7.5766 13.9778 7.51355C13.8834 7.45051 13.8099 7.3609 13.7664 7.25606C13.723 7.15122 13.7117 7.03586 13.7338 6.92457C13.7559 6.81327 13.8106 6.71104 13.8908 6.6308C13.9711 6.55056 14.0733 6.49591 14.1846 6.47377C14.2959 6.45164 14.4112 6.463 14.5161 6.50642C14.6209 6.54985 14.7105 6.62339 14.7736 6.71774C14.8366 6.81209 14.8703 6.92302 14.8703 7.0365C14.8699 7.18856 14.8094 7.3343 14.7018 7.44183C14.5943 7.54935 14.4486 7.60991 14.2965 7.61025Z" fill="#E03875"/>
<path d="M12.5906 7.67542C12.4771 7.67542 12.3662 7.64177 12.2718 7.57873C12.1775 7.51568 12.1039 7.42608 12.0605 7.32124C12.0171 7.2164 12.0057 7.10104 12.0278 6.98974C12.05 6.87844 12.1046 6.77621 12.1849 6.69597C12.2651 6.61573 12.3673 6.56109 12.4786 6.53895C12.5899 6.51681 12.7053 6.52817 12.8101 6.5716C12.915 6.61502 13.0046 6.68856 13.0676 6.78292C13.1307 6.87727 13.1643 6.9882 13.1643 7.10167C13.1643 7.25384 13.1039 7.39978 12.9963 7.50738C12.8887 7.61497 12.7427 7.67542 12.5906 7.67542Z" fill="#E03875"/>
<path d="M13.6717 5.68073C13.5582 5.68098 13.4471 5.64754 13.3526 5.58465C13.2581 5.52176 13.1843 5.43224 13.1407 5.32743C13.0971 5.22261 13.0855 5.10721 13.1075 4.99583C13.1295 4.88445 13.1841 4.7821 13.2643 4.70173C13.3444 4.62136 13.4467 4.56659 13.558 4.54435C13.6693 4.5221 13.7848 4.53339 13.8897 4.57678C13.9946 4.62017 14.0843 4.69371 14.1474 4.78809C14.2105 4.88247 14.2442 4.99345 14.2442 5.10698C14.2442 5.25892 14.1839 5.40467 14.0766 5.51223C13.9692 5.61979 13.8236 5.68039 13.6717 5.68073Z" fill="#E03875"/>
</g>
</g>
</svg>
