<svg width="24" height="24" viewBox="0 0 24 24" fill="none" xmlns="http://www.w3.org/2000/svg">
<g id="size=24">
<path id="Path" fill-rule="evenodd" clip-rule="evenodd" d="M2 0C0.895431 0 0 0.89543 0 2V22C0 23.1046 0.89543 24 2 24H22C23.1046 24 24 23.1046 24 22V2C24 0.895431 23.1046 0 22 0H2ZM12.0057 19C10.8665 19.0009 9.74433 18.7238 8.73652 18.1927C7.72872 17.6616 6.86576 16.8926 6.22255 15.9524C5.57934 15.0121 5.17533 13.9291 5.04556 12.7974C4.9158 11.6656 5.06422 10.5193 5.47793 9.45784C5.89164 8.39644 6.55814 7.45204 7.41959 6.70662C8.28104 5.9612 9.31139 5.43729 10.4212 5.18036C11.5311 4.92343 12.6868 4.94125 13.7882 5.23226C14.8896 5.52327 15.9033 6.07869 16.7414 6.85031L15.0802 8.58817C14.4198 7.99163 13.6005 7.59945 12.7217 7.45919C11.8428 7.31893 10.9422 7.43659 10.1289 7.79792C9.31558 8.15926 8.62455 8.74874 8.13955 9.49493C7.65455 10.2411 7.39641 11.112 7.39641 12.0019C7.39641 12.8919 7.65455 13.7627 8.13955 14.5089C8.62455 15.2551 9.31558 15.8446 10.1289 16.2059C10.9422 16.5672 11.8428 16.6849 12.7217 16.5446C13.6005 16.4044 14.4198 16.0122 15.0802 15.4157L16.7414 17.1535C15.451 18.3423 13.7602 19.0015 12.0057 19ZM17.6384 15.4987C17.525 15.4987 17.414 15.4651 17.3197 15.402C17.2253 15.339 17.1518 15.2494 17.1084 15.1445C17.0649 15.0397 17.0536 14.9243 17.0757 14.813C17.0979 14.7017 17.1525 14.5995 17.2327 14.5193C17.313 14.439 17.4152 14.3844 17.5265 14.3623C17.6378 14.3401 17.7532 14.3515 17.858 14.3949C17.9629 14.4383 18.0525 14.5119 18.1155 14.6062C18.1785 14.7006 18.2122 14.8115 18.2122 14.925C18.2119 15.077 18.1513 15.2228 18.0438 15.3303C17.9363 15.4378 17.7905 15.4984 17.6384 15.4987ZM11.9609 13.5168C11.6606 13.5181 11.3667 13.4301 11.1164 13.2642C10.8661 13.0982 10.6707 12.8617 10.5549 12.5846C10.4392 12.3075 10.4083 12.0022 10.4662 11.7076C10.5241 11.4129 10.6682 11.142 10.8802 10.9293C11.0922 10.7166 11.3626 10.5716 11.6571 10.5127C11.9515 10.4538 12.2569 10.4836 12.5344 10.5984C12.8119 10.7132 13.0491 10.9078 13.2159 11.1576C13.3827 11.4073 13.4716 11.701 13.4713 12.0013C13.4707 12.4021 13.3115 12.7864 13.0285 13.0704C12.7455 13.3543 12.3618 13.5148 11.9609 13.5168ZM18.2965 13.5436C18.1831 13.5436 18.0721 13.51 17.9778 13.447C17.8834 13.3839 17.8099 13.2943 17.7665 13.1895C17.723 13.0846 17.7117 12.9693 17.7338 12.858C17.7559 12.7467 17.8106 12.6444 17.8908 12.5642C17.9711 12.484 18.0733 12.4293 18.1846 12.4072C18.2959 12.385 18.4113 12.3964 18.5161 12.4398C18.6209 12.4832 18.7105 12.5568 18.7736 12.6511C18.8366 12.7455 18.8703 12.8564 18.8703 12.9699C18.8699 13.122 18.8094 13.2677 18.7019 13.3752C18.5943 13.4828 18.4486 13.5433 18.2965 13.5436ZM16.5906 13.4721C16.4768 13.4721 16.3656 13.4383 16.2711 13.3749C16.1767 13.3116 16.1031 13.2216 16.0599 13.1164C16.0167 13.0112 16.0057 12.8955 16.0283 12.784C16.051 12.6726 16.1063 12.5703 16.1872 12.4904C16.2681 12.4104 16.3709 12.3563 16.4826 12.3348C16.5943 12.3134 16.7099 12.3257 16.8146 12.3701C16.9193 12.4145 17.0085 12.4891 17.0707 12.5842C17.133 12.6794 17.1656 12.791 17.1643 12.9047C17.1626 13.0558 17.1014 13.2001 16.994 13.3063C16.8866 13.4125 16.7416 13.4721 16.5906 13.4721ZM18.2965 11.6102C18.1831 11.6102 18.0721 11.5766 17.9778 11.5135C17.8834 11.4505 17.8099 11.3609 17.7665 11.2561C17.723 11.1512 17.7117 11.0359 17.7338 10.9246C17.7559 10.8133 17.8106 10.711 17.8908 10.6308C17.9711 10.5505 18.0733 10.4959 18.1846 10.4738C18.2959 10.4516 18.4113 10.463 18.5161 10.5064C18.6209 10.5498 18.7105 10.6234 18.7736 10.7177C18.8366 10.8121 18.8703 10.923 18.8703 11.0365C18.8699 11.1886 18.8094 11.3343 18.7019 11.4418C18.5943 11.5493 18.4486 11.6099 18.2965 11.6102ZM16.5906 11.6754C16.4771 11.6754 16.3662 11.6418 16.2718 11.5787C16.1775 11.5157 16.1039 11.4261 16.0605 11.3212C16.0171 11.2164 16.0057 11.101 16.0279 10.9897C16.05 10.8784 16.1047 10.7762 16.1849 10.696C16.2651 10.6157 16.3674 10.5611 16.4787 10.5389C16.59 10.5168 16.7053 10.5282 16.8102 10.5716C16.915 10.615 17.0046 10.6886 17.0677 10.7829C17.1307 10.8773 17.1643 10.9882 17.1643 11.1017C17.1643 11.2538 17.1039 11.3998 16.9963 11.5074C16.8887 11.615 16.7428 11.6754 16.5906 11.6754ZM17.6717 9.68073C17.5582 9.68098 17.4471 9.64755 17.3526 9.58466C17.2581 9.52177 17.1843 9.43225 17.1407 9.32743C17.0971 9.22262 17.0856 9.10721 17.1075 8.99583C17.1295 8.88445 17.1841 8.7821 17.2643 8.70173C17.3445 8.62137 17.4467 8.56659 17.558 8.54435C17.6694 8.52211 17.7848 8.5334 17.8897 8.57679C17.9946 8.62017 18.0843 8.69371 18.1474 8.78809C18.2105 8.88247 18.2442 8.99345 18.2442 9.10698C18.2442 9.25893 18.1839 9.40467 18.0766 9.51223C17.9693 9.61979 17.8237 9.68039 17.6717 9.68073Z" fill="#000001"/>
</g>
</svg>
