<svg width="16" height="16" viewBox="0 0 16 16" fill="none" xmlns="http://www.w3.org/2000/svg">
<g id="size=16">
<g id="Logo Group">
<path id="Vector" d="M8.00571 15C6.86653 15.0009 5.74433 14.7238 4.73652 14.1927C3.72872 13.6616 2.86576 12.8926 2.22255 11.9524C1.57934 11.0121 1.17533 9.92913 1.04556 8.79736C0.9158 7.66559 1.06422 6.51925 1.47793 5.45785C1.89164 4.39644 2.55814 3.45204 3.41959 2.70662C4.28104 1.9612 5.31139 1.43729 6.42123 1.18036C7.53106 0.923431 8.68683 0.941246 9.78821 1.23226C10.8896 1.52327 11.9033 2.07869 12.7414 2.85031L11.0802 4.58817C10.4198 3.99163 9.60049 3.59946 8.72166 3.45919C7.84283 3.31893 6.94218 3.43659 6.12888 3.79792C5.31558 4.15926 4.62455 4.74874 4.13955 5.49493C3.65455 6.24111 3.39641 7.11196 3.39641 8.00191C3.39641 8.89187 3.65455 9.76272 4.13955 10.5089C4.62455 11.2551 5.31558 11.8446 6.12888 12.2059C6.94218 12.5672 7.84283 12.6849 8.72166 12.5446C9.60049 12.4044 10.4198 12.0122 11.0802 11.4157L12.7414 13.1535C11.451 14.3423 9.76022 15.0015 8.00571 15Z" fill="#E03875"/>
<path id="Vector_2" d="M13.6384 11.4987C13.525 11.4987 13.414 11.4651 13.3197 11.402C13.2253 11.339 13.1518 11.2494 13.1084 11.1445C13.0649 11.0397 13.0536 10.9243 13.0757 10.813C13.0979 10.7017 13.1525 10.5995 13.2327 10.5193C13.313 10.439 13.4152 10.3844 13.5265 10.3623C13.6378 10.3401 13.7532 10.3515 13.858 10.3949C13.9628 10.4383 14.0525 10.5119 14.1155 10.6062C14.1785 10.7006 14.2122 10.8115 14.2122 10.925C14.2119 11.077 14.1513 11.2228 14.0438 11.3303C13.9363 11.4378 13.7905 11.4984 13.6384 11.4987Z" fill="#E03875"/>
<path id="Vector_3" d="M7.96093 9.51679C7.66061 9.51806 7.36668 9.43014 7.11638 9.26419C6.86607 9.09824 6.67067 8.86171 6.55492 8.5846C6.43918 8.30748 6.4083 8.00224 6.46621 7.70755C6.52411 7.41287 6.66819 7.142 6.88019 6.92929C7.09219 6.71657 7.36257 6.57158 7.65705 6.51267C7.95154 6.45377 8.25688 6.48362 8.53439 6.59843C8.8119 6.71324 9.04908 6.90784 9.21588 7.15758C9.38268 7.40732 9.47158 7.70096 9.47133 8.00128C9.47066 8.40213 9.31148 8.78644 9.02851 9.07036C8.74555 9.35429 8.36177 9.51477 7.96093 9.51679Z" fill="#E03875"/>
<path id="Vector_4" d="M14.2965 9.54365C14.1831 9.54365 14.0721 9.51 13.9778 9.44695C13.8834 9.38391 13.8099 9.2943 13.7665 9.18946C13.723 9.08462 13.7117 8.96926 13.7338 8.85796C13.7559 8.74667 13.8106 8.64444 13.8908 8.5642C13.9711 8.48396 14.0733 8.42931 14.1846 8.40717C14.2959 8.38504 14.4113 8.3964 14.5161 8.43982C14.6209 8.48325 14.7105 8.55679 14.7736 8.65114C14.8366 8.74549 14.8703 8.85642 14.8703 8.9699C14.8699 9.12196 14.8094 9.2677 14.7019 9.37523C14.5943 9.48275 14.4486 9.54331 14.2965 9.54365Z" fill="#E03875"/>
<path id="Vector_5" d="M12.5906 9.47208C12.4768 9.47208 12.3656 9.43826 12.2711 9.37493C12.1767 9.3116 12.1031 9.22161 12.0599 9.1164C12.0167 9.01119 12.0057 8.8955 12.0283 8.78403C12.051 8.67256 12.1063 8.57035 12.1872 8.49037C12.2681 8.41039 12.3709 8.35625 12.4826 8.33484C12.5943 8.31343 12.7099 8.32571 12.8146 8.37012C12.9193 8.41452 13.0085 8.48905 13.0707 8.58424C13.133 8.67943 13.1656 8.79098 13.1643 8.90472C13.1626 9.05578 13.1014 9.20008 12.994 9.3063C12.8866 9.41252 12.7416 9.47209 12.5906 9.47208Z" fill="#E03875"/>
<path id="Vector_6" d="M14.2965 7.61024C14.1831 7.61024 14.0721 7.57659 13.9778 7.51354C13.8834 7.4505 13.8099 7.36089 13.7665 7.25605C13.723 7.15121 13.7117 7.03585 13.7338 6.92455C13.7559 6.81326 13.8106 6.71103 13.8908 6.63079C13.9711 6.55055 14.0733 6.4959 14.1846 6.47376C14.2959 6.45162 14.4113 6.46299 14.5161 6.50641C14.6209 6.54984 14.7105 6.62338 14.7736 6.71773C14.8366 6.81208 14.8703 6.92301 14.8703 7.03649C14.8699 7.18855 14.8094 7.33429 14.7019 7.44182C14.5943 7.54934 14.4486 7.6099 14.2965 7.61024Z" fill="#E03875"/>
<path id="Vector_7" d="M12.5906 7.67542C12.4771 7.67542 12.3662 7.64177 12.2718 7.57873C12.1775 7.51568 12.1039 7.42608 12.0605 7.32124C12.0171 7.2164 12.0057 7.10104 12.0279 6.98974C12.05 6.87844 12.1047 6.77621 12.1849 6.69597C12.2651 6.61573 12.3674 6.56109 12.4787 6.53895C12.59 6.51681 12.7053 6.52817 12.8102 6.5716C12.915 6.61502 13.0046 6.68856 13.0677 6.78292C13.1307 6.87727 13.1643 6.9882 13.1643 7.10167C13.1643 7.25384 13.1039 7.39978 12.9963 7.50738C12.8887 7.61497 12.7428 7.67542 12.5906 7.67542Z" fill="#E03875"/>
<path id="Vector_8" d="M13.6717 5.68073C13.5582 5.68098 13.4471 5.64755 13.3526 5.58466C13.2581 5.52177 13.1843 5.43225 13.1407 5.32743C13.0971 5.22262 13.0856 5.10722 13.1075 4.99583C13.1295 4.88445 13.1841 4.7821 13.2643 4.70173C13.3445 4.62137 13.4467 4.56659 13.558 4.54435C13.6694 4.52211 13.7848 4.5334 13.8897 4.57679C13.9946 4.62017 14.0843 4.69371 14.1474 4.78809C14.2105 4.88247 14.2442 4.99345 14.2442 5.10698C14.2442 5.25893 14.1839 5.40467 14.0766 5.51223C13.9693 5.6198 13.8237 5.68039 13.6717 5.68073Z" fill="#E03875"/>
</g>
</g>
</svg>
