<svg width="24" height="24" viewBox="0 0 24 24" fill="none" xmlns="http://www.w3.org/2000/svg">
<g id="size=24">
<g id="Logo Group">
<path id="Vector" d="M12.009 23C10.2188 23.0015 8.45538 22.566 6.87168 21.7314C5.28799 20.8968 3.93191 19.6883 2.92115 18.2108C1.9104 16.7333 1.27551 15.0315 1.0716 13.253C0.867686 11.4745 1.10091 9.67311 1.75103 8.00519C2.40115 6.33726 3.44851 4.85321 4.80222 3.68184C6.15592 2.51046 7.77505 1.68717 9.51907 1.28343C11.2631 0.879677 13.0793 0.907672 14.81 1.36498C16.5408 1.82229 18.1338 2.69509 19.4507 3.90763L16.8403 6.63855C15.8025 5.70113 14.5151 5.08486 13.134 4.86444C11.753 4.64403 10.3377 4.82893 9.05967 5.39674C7.78163 5.96455 6.69572 6.89088 5.93358 8.06346C5.17144 9.23603 4.76579 10.6045 4.76579 12.003C4.76579 13.4015 5.17144 14.77 5.93358 15.9426C6.69572 17.1151 7.78163 18.0415 9.05967 18.6093C10.3377 19.1771 11.753 19.362 13.134 19.1416C14.5151 18.9212 15.8025 18.3049 16.8403 17.3675L19.4507 20.0984C17.4229 21.9664 14.7661 23.0023 12.009 23Z" fill="#E03875"/>
<path id="Vector_2" d="M20.8605 17.498C20.6821 17.498 20.5078 17.4451 20.3596 17.346C20.2113 17.247 20.0957 17.1062 20.0275 16.9414C19.9593 16.7767 19.9414 16.5954 19.9762 16.4205C20.011 16.2456 20.0968 16.0849 20.2229 15.9589C20.349 15.8328 20.5097 15.7469 20.6846 15.7121C20.8595 15.6773 21.0408 15.6952 21.2055 15.7634C21.3702 15.8317 21.5111 15.9472 21.6101 16.0955C21.7092 16.2437 21.7621 16.4181 21.7621 16.5964C21.7615 16.8353 21.6664 17.0644 21.4974 17.2333C21.3284 17.4023 21.0994 17.4975 20.8605 17.498Z" fill="#E03875"/>
<path id="Vector_3" d="M11.9386 14.3835C11.4667 14.3855 11.0048 14.2474 10.6115 13.9866C10.2181 13.7258 9.91107 13.3541 9.72918 12.9187C9.5473 12.4832 9.49878 12.0035 9.58977 11.5404C9.68077 11.0774 9.90718 10.6517 10.2403 10.3175C10.5735 9.98319 10.9983 9.75534 11.4611 9.66278C11.9239 9.57022 12.4037 9.61712 12.8398 9.79753C13.2759 9.97795 13.6486 10.2838 13.9107 10.6762C14.1728 11.0687 14.3125 11.5301 14.3121 12.002C14.3111 12.6319 14.0609 13.2358 13.6163 13.682C13.1716 14.1282 12.5685 14.3804 11.9386 14.3835Z" fill="#E03875"/>
<path id="Vector_4" d="M21.8945 14.4257C21.7162 14.4257 21.5419 14.3728 21.3936 14.2738C21.2454 14.1747 21.1298 14.0339 21.0616 13.8691C20.9933 13.7044 20.9755 13.5231 21.0102 13.3482C21.045 13.1733 21.1309 13.0127 21.257 12.8866C21.3831 12.7605 21.5437 12.6746 21.7186 12.6398C21.8935 12.605 22.0748 12.6229 22.2396 12.6911C22.4043 12.7594 22.5451 12.8749 22.6442 13.0232C22.7433 13.1715 22.7961 13.3458 22.7961 13.5241C22.7956 13.7631 22.7004 13.9921 22.5315 14.1611C22.3625 14.33 22.1335 14.4252 21.8945 14.4257Z" fill="#E03875"/>
<path id="Vector_5" d="M19.2137 14.3133C19.0349 14.3132 18.8602 14.2601 18.7118 14.1606C18.5633 14.0611 18.4477 13.9197 18.3798 13.7543C18.3119 13.589 18.2946 13.4072 18.3302 13.232C18.3658 13.0569 18.4527 12.8962 18.5798 12.7706C18.7069 12.6449 18.8685 12.5598 19.044 12.5262C19.2196 12.4925 19.4012 12.5118 19.5657 12.5816C19.7303 12.6514 19.8704 12.7685 19.9682 12.9181C20.0661 13.0677 20.1173 13.243 20.1153 13.4217C20.1126 13.6591 20.0165 13.8858 19.8477 14.0527C19.6789 14.2197 19.4511 14.3133 19.2137 14.3133Z" fill="#E03875"/>
<path id="Vector_6" d="M21.8945 11.3875C21.7162 11.3875 21.5419 11.3347 21.3936 11.2356C21.2454 11.1365 21.1298 10.9957 21.0616 10.831C20.9933 10.6662 20.9755 10.4849 21.0102 10.31C21.045 10.1351 21.1309 9.97449 21.257 9.8484C21.3831 9.7223 21.5437 9.63643 21.7186 9.60164C21.8935 9.56686 22.0748 9.58471 22.2396 9.65295C22.4043 9.72119 22.5451 9.83675 22.6442 9.98502C22.7433 10.1333 22.7961 10.3076 22.7961 10.4859C22.7956 10.7249 22.7004 10.9539 22.5315 11.1229C22.3625 11.2918 22.1335 11.387 21.8945 11.3875Z" fill="#E03875"/>
<path id="Vector_7" d="M19.2137 11.4899C19.0354 11.4899 18.8611 11.4371 18.7128 11.338C18.5646 11.2389 18.449 11.0981 18.3808 10.9334C18.3125 10.7686 18.2947 10.5873 18.3295 10.4124C18.3642 10.2376 18.4501 10.0769 18.5762 9.95081C18.7023 9.82472 18.863 9.73885 19.0378 9.70406C19.2127 9.66927 19.394 9.68713 19.5588 9.75537C19.7235 9.82361 19.8643 9.93917 19.9634 10.0874C20.0625 10.2357 20.1153 10.41 20.1153 10.5883C20.1153 10.8275 20.0204 11.0568 19.8513 11.2259C19.6822 11.395 19.4529 11.4899 19.2137 11.4899Z" fill="#E03875"/>
<path id="Vector_8" d="M20.9126 8.35543C20.7342 8.35582 20.5597 8.30328 20.4112 8.20446C20.2627 8.10563 20.1468 7.96496 20.0782 7.80024C20.0097 7.63553 19.9916 7.45419 20.0261 7.27916C20.0607 7.10413 20.1464 6.94329 20.2724 6.817C20.3984 6.69071 20.5591 6.60464 20.734 6.56969C20.909 6.53474 21.0903 6.55247 21.2552 6.62065C21.4201 6.68884 21.561 6.8044 21.6602 6.95271C21.7593 7.10102 21.8122 7.27541 21.8122 7.45382C21.8122 7.69259 21.7175 7.92162 21.5489 8.09064C21.3802 8.25967 21.1514 8.35489 20.9126 8.35543Z" fill="#E03875"/>
</g>
</g>
</svg>
