<svg width="16" height="16" viewBox="0 0 16 16" fill="none" xmlns="http://www.w3.org/2000/svg">
<g id="size=16">
<path id="Path" fill-rule="evenodd" clip-rule="evenodd" d="M9.21973 2.21967C9.51262 1.92678 9.98738 1.92678 10.2803 2.21967L13.7803 5.71967C14.0731 6.01257 14.0732 6.48733 13.7803 6.78022L10.2803 10.2802C9.98739 10.5731 9.51261 10.5731 9.21973 10.2802C8.92684 9.98733 8.92686 9.51257 9.21973 9.21967L11.4395 6.99994H5.75C5.28587 6.99994 4.84088 7.18445 4.5127 7.51264C4.18453 7.84082 4 8.28583 4 8.74994V13.2499C3.99997 13.6641 3.66419 13.9999 3.25 13.9999C2.83581 13.9999 2.50003 13.6641 2.5 13.2499V8.74994C2.5 7.888 2.84267 7.06158 3.45215 6.45209C4.06164 5.8426 4.88805 5.49994 5.75 5.49994H11.4395L9.21973 3.28022C8.92684 2.98733 8.92686 2.51257 9.21973 2.21967Z" fill="#000001"/>
</g>
</svg>
