<svg width="24" height="24" viewBox="0 0 24 24" fill="none" xmlns="http://www.w3.org/2000/svg">
<g id="size=24">
<path id="Path" d="M3.75 2.5C3.33579 2.5 3 2.83579 3 3.25C3 3.66421 3.33579 4 3.75 4L10.75 4C11.5968 4 12.4188 4.35699 13.0323 5.00882C13.6472 5.66219 14 6.55757 14 7.5L14 18.3781L10.0425 14.2321C9.75651 13.9325 9.28177 13.9215 8.98215 14.2075C8.68252 14.4935 8.67148 14.9682 8.95749 15.2679L14.2075 20.7679C14.349 20.9161 14.545 21 14.75 21C14.955 21 15.151 20.9161 15.2925 20.7679L20.5425 15.2679C20.8285 14.9682 20.8175 14.4935 20.5179 14.2075C20.2182 13.9215 19.7435 13.9325 19.4575 14.2321L15.5 18.3781L15.5 7.5C15.5 6.18809 15.0099 4.92146 14.1246 3.98077C13.2378 3.03855 12.025 2.5 10.75 2.5H3.75Z" fill="#000001"/>
</g>
</svg>
