<svg width="24" height="24" viewBox="0 0 24 24" fill="none" xmlns="http://www.w3.org/2000/svg">
<g id="size=24">
<path id="Union" d="M21.5 3.75C21.5 3.33579 21.1642 3 20.75 3C20.3358 3 20 3.33579 20 3.75V10.75C20 11.5968 19.643 12.4188 18.9912 13.0323C18.3378 13.6472 17.4424 14 16.5 14H5.62192L9.76786 10.0425C10.0675 9.75651 10.0785 9.28177 9.79252 8.98214C9.50651 8.68252 9.03177 8.67148 8.73214 8.95748L3.23363 14.2061C3.08973 14.3427 3 14.5359 3 14.75C3 14.9478 3.07661 15.1278 3.20178 15.2618C3.21157 15.2723 3.2217 15.2825 3.23214 15.2925L8.73214 20.5425C9.03177 20.8285 9.50651 20.8175 9.79252 20.5179C10.0785 20.2182 10.0675 19.7435 9.76786 19.4575L5.62192 15.5H16.5C17.8119 15.5 19.0785 15.0099 20.0192 14.1246C20.9615 13.2378 21.5 12.025 21.5 10.75V3.75Z" fill="#000001"/>
</g>
</svg>
