<svg width="16" height="16" viewBox="0 0 16 16" fill="none" xmlns="http://www.w3.org/2000/svg">
<g id="size=16">
<path id="Path" d="M2.75 2.5C2.33579 2.5 2 2.83579 2 3.25C2 3.66421 2.33579 4 2.75 4L7.25 4C7.71413 4 8.15925 4.18437 8.48744 4.51256C8.81563 4.84075 9 5.28587 9 5.75L9 11.4393L6.78033 9.21967C6.48744 8.92678 6.01256 8.92678 5.71967 9.21967C5.42678 9.51256 5.42678 9.98744 5.71967 10.2803L9.21967 13.7803C9.51256 14.0732 9.98744 14.0732 10.2803 13.7803L13.7803 10.2803C14.0732 9.98744 14.0732 9.51256 13.7803 9.21967C13.4874 8.92678 13.0126 8.92678 12.7197 9.21967L10.5 11.4393V5.75C10.5 4.88805 10.1576 4.0614 9.5481 3.4519C8.9386 2.84241 8.11195 2.5 7.25 2.5H2.75Z" fill="#000001"/>
</g>
</svg>
