<svg width="24" height="24" viewBox="0 0 24 24" fill="none" xmlns="http://www.w3.org/2000/svg">
<g id="size=24">
<path id="Path" fill-rule="evenodd" clip-rule="evenodd" d="M14.207 3.48248C14.4929 3.18297 14.9679 3.17141 15.2676 3.45709L20.7676 8.70709C20.9158 8.84861 21 9.04513 21 9.25006C20.9999 9.45492 20.9157 9.65058 20.7676 9.79205L15.2676 15.0421C14.968 15.328 14.493 15.3172 14.207 15.0176C13.9214 14.718 13.933 14.243 14.2324 13.9571L18.3779 10.0001H7.5C6.55757 10.0001 5.66216 10.3529 5.00879 10.9678C4.35705 11.5813 4 12.4033 4 13.2501V20.2501C3.99989 20.6642 3.66415 21.0001 3.25 21.0001C2.83585 21.0001 2.50011 20.6642 2.5 20.2501V13.2501C2.5 11.9751 3.03828 10.7619 3.98047 9.87506C4.92115 8.98972 6.1881 8.50006 7.5 8.50006H18.3779L14.2324 4.54205C13.933 4.25619 13.9215 3.78211 14.207 3.48248Z" fill="#000001"/>
</g>
</svg>
