<svg width="24" height="24" viewBox="0 0 24 24" fill="none" xmlns="http://www.w3.org/2000/svg">
<g id="size=24">
<path id="Path" fill-rule="evenodd" clip-rule="evenodd" d="M14.207 3.48242C14.4929 3.18291 14.9679 3.17135 15.2676 3.45703L20.7676 8.70703C20.9158 8.84855 21 9.04505 21 9.25C21 9.45488 20.9158 9.65051 20.7676 9.79199L15.2676 15.042C14.968 15.328 14.493 15.3172 14.207 15.0176C13.9214 14.7179 13.9329 14.2429 14.2324 13.957L18.3779 10H7.5C6.55757 10 5.66216 10.3528 5.00879 10.9678C4.35703 11.5813 4 12.4033 4 13.25V20.25C3.99992 20.6641 3.66417 21 3.25 21C2.83583 21 2.50008 20.6641 2.5 20.25V13.25C2.5 11.9751 3.03826 10.7618 3.98047 9.875C4.92115 8.98966 6.1881 8.5 7.5 8.5H18.3779L14.2324 4.54199C13.933 4.25612 13.9215 3.78205 14.207 3.48242Z" fill="#000001"/>
</g>
</svg>
