<svg width="16" height="16" viewBox="0 0 16 16" fill="none" xmlns="http://www.w3.org/2000/svg">
<g id="size=16">
<path id="Path" fill-rule="evenodd" clip-rule="evenodd" d="M5.71967 2.21972C6.01257 1.92685 6.48733 1.92683 6.78022 2.21972L10.2802 5.71972C10.573 6.01262 10.573 6.48742 10.2802 6.78027C9.98737 7.07311 9.51257 7.07301 9.21967 6.78027L6.99994 4.56054V10.25C6.99998 10.7141 7.18448 11.1591 7.51264 11.4873C7.84081 11.8154 8.28588 12 8.74994 12H13.2499C13.6641 12.0001 13.9999 12.3358 13.9999 12.75C13.9999 13.1641 13.664 13.4999 13.2499 13.5H8.74994C7.88806 13.5 7.06157 13.1572 6.45209 12.5478C5.84263 11.9384 5.49998 11.1119 5.49994 10.25V4.56054L3.28022 6.78027C2.98737 7.07311 2.51258 7.07301 2.21967 6.78027C1.92678 6.48737 1.92678 6.01261 2.21967 5.71972L5.71967 2.21972Z" fill="#000001"/>
</g>
</svg>
