<svg width="24" height="24" viewBox="0 0 24 24" fill="none" xmlns="http://www.w3.org/2000/svg">
<g id="size=24">
<path id="Path" d="M10.0425 9.76786C9.75651 10.0675 9.28177 10.0785 8.98215 9.79252C8.68252 9.50651 8.67148 9.03177 8.95749 8.73214L14.2075 3.23214C14.349 3.08388 14.545 3 14.75 3C14.955 3 15.151 3.08388 15.2925 3.23214L20.5425 8.73214C20.8285 9.03177 20.8175 9.50651 20.5179 9.79252C20.2182 10.0785 19.7435 10.0675 19.4575 9.76786L15.5 5.62192L15.5 16.5C15.5 17.8119 15.0099 19.0785 14.1246 20.0192C13.2378 20.9615 12.025 21.5 10.75 21.5H3.75C3.33579 21.5 3 21.1642 3 20.75C3 20.3358 3.33579 20 3.75 20H10.75C11.5968 20 12.4188 19.643 13.0323 18.9912C13.6472 18.3378 14 17.4424 14 16.5L14 5.62192L10.0425 9.76786Z" fill="#000001"/>
</g>
</svg>
