<svg width="24" height="24" viewBox="0 0 24 24" fill="none" xmlns="http://www.w3.org/2000/svg">
<g id="size=24">
<path id="Path" fill-rule="evenodd" clip-rule="evenodd" d="M9.24994 3C9.45479 3.00006 9.65046 3.08426 9.79193 3.23242L15.0419 8.73242C15.3279 9.03203 15.3171 9.50698 15.0175 9.79297C14.7179 10.0786 14.2429 10.067 13.957 9.76758L9.99994 5.62207V16.5C9.99994 17.4424 10.3528 18.3378 10.9677 18.9912C11.5812 19.643 12.4032 20 13.2499 20H20.2499C20.6641 20.0001 20.9999 20.3359 20.9999 20.75C20.9999 21.1641 20.6641 21.4999 20.2499 21.5H13.2499C11.975 21.5 10.7617 20.9617 9.87494 20.0195C8.98959 19.0788 8.49994 17.8119 8.49994 16.5V5.62207L4.54193 9.76758C4.25607 10.067 3.78199 10.0785 3.48236 9.79297C3.18285 9.50707 3.17129 9.03206 3.45697 8.73242L8.70697 3.23242C8.84849 3.0842 9.04501 3 9.24994 3Z" fill="#000001"/>
</g>
</svg>
