<svg width="24" height="24" viewBox="0 0 24 24" fill="none" xmlns="http://www.w3.org/2000/svg">
<g id="size=24">
<path id="Path" d="M20.75 3C21.1642 3 21.5 3.33579 21.5 3.75V10.75C21.5 12.025 20.9618 13.2382 20.0195 14.125C19.0789 15.0103 17.8119 15.5 16.5 15.5H5.62207L9.76758 19.457C10.0671 19.7429 10.0786 20.2179 9.79297 20.5176C9.50708 20.8171 9.03207 20.8286 8.73242 20.543L3.23242 15.293C3.22202 15.283 3.21191 15.2722 3.20215 15.2617C3.07698 15.1277 3 14.9478 3 14.75C3 14.5359 3.08956 14.3427 3.2334 14.2061L8.73242 8.95703C9.03207 8.67139 9.50708 8.68292 9.79297 8.98242C10.0786 9.28207 10.0671 9.75708 9.76758 10.043L5.62207 14H16.5C17.4424 14 18.3378 13.6472 18.9912 13.0322C19.643 12.4187 20 11.5968 20 10.75V3.75C20 3.33579 20.3358 3 20.75 3Z" fill="#000001"/>
</g>
</svg>
