<svg width="16" height="16" viewBox="0 0 16 16" fill="none" xmlns="http://www.w3.org/2000/svg">
<g id="size=16">
<path id="Path" d="M12.75 2C13.1642 2 13.5 2.33579 13.5 2.75V7.25C13.5 8.11195 13.1573 8.93836 12.5479 9.54785C11.9384 10.1573 11.112 10.5 10.25 10.5H4.56055L6.78027 12.7197C7.07317 13.0126 7.07317 13.4874 6.78027 13.7803C6.48738 14.0732 6.01262 14.0732 5.71973 13.7803L2.21973 10.2803C2.14782 10.2084 2.09324 10.1256 2.05664 10.0371C2.01999 9.9487 2 9.85166 2 9.75C2 9.64834 2.01999 9.5513 2.05664 9.46289C2.09324 9.37443 2.14782 9.29163 2.21973 9.21973L5.71973 5.71973C6.01262 5.42683 6.48738 5.42683 6.78027 5.71973C7.07317 6.01262 7.07317 6.48738 6.78027 6.78027L4.56055 9H10.25C10.7141 9 11.1591 8.81549 11.4873 8.4873C11.8155 8.15912 12 7.71413 12 7.25V2.75C12 2.33579 12.3358 2 12.75 2Z" fill="#000001"/>
</g>
</svg>
