<svg width="16" height="16" viewBox="0 0 16 16" fill="none" xmlns="http://www.w3.org/2000/svg">
<g id="size=16">
<path id="Path" fill-rule="evenodd" clip-rule="evenodd" d="M5.71967 2.21981C6.01257 1.92694 6.48733 1.92693 6.78022 2.21981L10.2802 5.71981C10.5729 6.01272 10.573 6.48754 10.2802 6.78036C9.98739 7.07318 9.51258 7.07304 9.21967 6.78036L6.99994 4.56063V10.2501C6.99999 10.7141 7.1845 11.1592 7.51264 11.4874C7.84081 11.8154 8.28591 12.0001 8.74994 12.0001H13.2499C13.6641 12.0002 13.9999 12.3359 13.9999 12.7501C13.9998 13.1641 13.664 13.5 13.2499 13.5001H8.74994C7.88809 13.5001 7.06156 13.1573 6.45209 12.5479C5.84264 11.9385 5.49999 11.112 5.49994 10.2501V4.56063L3.28022 6.78036C2.98739 7.07318 2.51258 7.07304 2.21967 6.78036C1.92678 6.48747 1.92678 6.01271 2.21967 5.71981L5.71967 2.21981Z" fill="#000001"/>
</g>
</svg>
