<svg width="16" height="16" viewBox="0 0 16 16" fill="none" xmlns="http://www.w3.org/2000/svg">
<g id="size=16">
<path id="Path" d="M9.75 0.0498047C10.1365 0.0499103 10.4502 0.363488 10.4502 0.75V2H11.75C12.9925 2.00013 14 3.00744 14 4.25V5.5498H15.25C15.6365 5.54991 15.9502 5.86349 15.9502 6.25C15.9502 6.63653 15.6365 6.95009 15.25 6.9502H14V9.0498H15.25C15.6365 9.04991 15.9502 9.36349 15.9502 9.75C15.9502 10.1365 15.6365 10.4501 15.25 10.4502H14V11.75C14 12.9926 12.9925 13.9999 11.75 14H10.4502V15.25C10.4502 15.6365 10.1365 15.9501 9.75 15.9502C9.3634 15.9502 9.0498 15.6366 9.0498 15.25V14H6.9502V15.25C6.9502 15.6365 6.63651 15.9501 6.25 15.9502C5.8634 15.9502 5.5498 15.6366 5.5498 15.25V14H4.25C3.00736 14 2 12.9926 2 11.75V10.4502H0.75C0.363401 10.4502 0.0498047 10.1366 0.0498047 9.75C0.049831 9.36342 0.363417 9.0498 0.75 9.0498H2V6.9502H0.75C0.363401 6.9502 0.0498047 6.6366 0.0498047 6.25C0.049831 5.86342 0.363417 5.5498 0.75 5.5498H2V4.25C2 3.00736 3.00736 2 4.25 2H5.5498V0.75C5.54983 0.363423 5.86342 0.0498047 6.25 0.0498047C6.63649 0.0499103 6.95017 0.363488 6.9502 0.75V2H9.0498V0.75C9.04983 0.363423 9.36342 0.0498047 9.75 0.0498047ZM4.25 3.5C3.83579 3.5 3.5 3.83579 3.5 4.25V11.75C3.5 12.1642 3.83579 12.5 4.25 12.5H11.75C12.1641 12.4999 12.5 12.1641 12.5 11.75V4.25C12.5 3.83587 12.1641 3.50013 11.75 3.5H4.25ZM9.75 5C10.4402 5.00013 11 5.55973 11 6.25V9.75C11 10.4403 10.4402 10.9999 9.75 11H6.25C5.55964 11 5 10.4404 5 9.75V6.25C5 5.55964 5.55964 5 6.25 5H9.75ZM6.5 9.5H9.5V6.5H6.5V9.5Z" fill="#000001"/>
</g>
</svg>
