<svg width="24" height="24" viewBox="0 0 24 24" fill="none" xmlns="http://www.w3.org/2000/svg">
<g id="size=24">
<g id="Path">
<path fill-rule="evenodd" clip-rule="evenodd" d="M9.75 8C8.7835 8 8 8.7835 8 9.75V14.25C8 15.2165 8.7835 16 9.75 16H14.25C15.2165 16 16 15.2165 16 14.25V9.75C16 8.7835 15.2165 8 14.25 8H9.75ZM9.5 9.75C9.5 9.61193 9.61193 9.5 9.75 9.5H14.25C14.3881 9.5 14.5 9.61193 14.5 9.75V14.25C14.5 14.3881 14.3881 14.5 14.25 14.5H9.75C9.61193 14.5 9.5 14.3881 9.5 14.25V9.75Z" fill="#000001"/>
<path fill-rule="evenodd" clip-rule="evenodd" d="M9.25 0C9.66421 0 10 0.335786 10 0.75V3H14V0.75C14 0.335786 14.3358 0 14.75 0C15.1642 0 15.5 0.335786 15.5 0.75V3H18.25C19.7688 3 21 4.23122 21 5.75V8.5H23.25C23.6642 8.5 24 8.83579 24 9.25C24 9.66421 23.6642 10 23.25 10H21V13H23.25C23.6642 13 24 13.3358 24 13.75C24 14.1642 23.6642 14.5 23.25 14.5H21V18.25C21 19.7688 19.7688 21 18.25 21H15.5V23.25C15.5 23.6642 15.1642 24 14.75 24C14.3358 24 14 23.6642 14 23.25V21H10V23.25C10 23.6642 9.66421 24 9.25 24C8.83579 24 8.5 23.6642 8.5 23.25V21H5.75C4.23122 21 3 19.7688 3 18.25V14.5H0.75C0.335786 14.5 0 14.1642 0 13.75C0 13.3358 0.335786 13 0.75 13H3V10H0.75C0.335786 10 0 9.66421 0 9.25C0 8.83579 0.335786 8.5 0.75 8.5H3V5.75C3 4.23122 4.23122 3 5.75 3H8.5V0.75C8.5 0.335786 8.83579 0 9.25 0ZM4.5 18.25C4.5 18.9404 5.05964 19.5 5.75 19.5H18.25C18.9404 19.5 19.5 18.9404 19.5 18.25V5.75C19.5 5.05964 18.9404 4.5 18.25 4.5H5.75C5.05964 4.5 4.5 5.05964 4.5 5.75V18.25Z" fill="#000001"/>
</g>
</g>
</svg>
