<svg width="24" height="24" viewBox="0 0 24 24" fill="none" xmlns="http://www.w3.org/2000/svg">
<g id="size=24">
<path id="Path" d="M5.75 0.5C6.16421 0.5 6.5 0.835786 6.5 1.25V5H16.25C16.9793 5 17.6786 5.28994 18.1943 5.80566C18.7101 6.32139 19 7.02065 19 7.75V17.5H22.75C23.1642 17.5 23.5 17.8358 23.5 18.25C23.5 18.6642 23.1642 19 22.75 19H19V22.75C19 23.1642 18.6642 23.5 18.25 23.5C17.8358 23.5 17.5 23.1642 17.5 22.75V19H7.75C7.02065 19 6.32139 18.7101 5.80566 18.1943C5.28994 17.6786 5 16.9793 5 16.25V6.5H1.25C0.835786 6.5 0.5 6.16421 0.5 5.75C0.5 5.33579 0.835786 5 1.25 5H5V1.25C5 0.835786 5.33579 0.5 5.75 0.5ZM6.5 16.25C6.5 16.5815 6.63179 16.8994 6.86621 17.1338C7.10063 17.3682 7.41848 17.5 7.75 17.5H17.5V7.75C17.5 7.41848 17.3682 7.10063 17.1338 6.86621C16.8994 6.63179 16.5815 6.5 16.25 6.5H6.5V16.25Z" fill="#000001"/>
</g>
</svg>
