<svg width="16" height="16" viewBox="0 0 16 16" fill="none" xmlns="http://www.w3.org/2000/svg">
<g id="size=16">
<path id="Path" fill-rule="evenodd" clip-rule="evenodd" d="M4.5 1.25C4.5 0.835786 4.16421 0.5 3.75 0.5C3.33579 0.5 3 0.835786 3 1.25V3H1.25C0.835786 3 0.5 3.33579 0.5 3.75C0.5 4.16421 0.835786 4.5 1.25 4.5H3V10.9559C3 11.498 3.21536 12.0179 3.59871 12.4013C3.98206 12.7846 4.50198 13 5.04412 13H11.5V14.75C11.5 15.1642 11.8358 15.5 12.25 15.5C12.6642 15.5 13 15.1642 13 14.75V13H14.75C15.1642 13 15.5 12.6642 15.5 12.25C15.5 11.8358 15.1642 11.5 14.75 11.5H13V5.04412C13 4.50198 12.7846 3.98205 12.4013 3.59871C12.0179 3.21536 11.498 3 10.9559 3H4.5V1.25ZM4.5 4.5V10.9559C4.5 11.1002 4.55733 11.2386 4.65937 11.3406C4.76141 11.4427 4.89981 11.5 5.04412 11.5H11.5V5.04412C11.5 4.89981 11.4427 4.76141 11.3406 4.65937C11.2386 4.55733 11.1002 4.5 10.9559 4.5H4.5Z" fill="#000001"/>
</g>
</svg>
