<svg width="24" height="24" viewBox="0 0 24 24" fill="none" xmlns="http://www.w3.org/2000/svg">
<g id="size=24">
<path id="Path" d="M12 1C18.0751 1 23 5.92487 23 12C23 18.0751 18.0751 23 12 23C5.92487 23 1 18.0751 1 12C1 5.92487 5.92487 1 12 1ZM12.75 5.25C12.75 5.66421 12.4142 6 12 6C11.5858 6 11.25 5.66421 11.25 5.25V2.5293C6.60135 2.89236 2.89236 6.60135 2.5293 11.25H5.25C5.66421 11.25 6 11.5858 6 12C6 12.4142 5.66421 12.75 5.25 12.75H2.5293C2.89236 17.3986 6.60135 21.1076 11.25 21.4707V18.75C11.25 18.3358 11.5858 18 12 18C12.4142 18 12.75 18.3358 12.75 18.75V21.4707C17.3986 21.1076 21.1076 17.3986 21.4707 12.75H18.75C18.3358 12.75 18 12.4142 18 12C18 11.5858 18.3358 11.25 18.75 11.25H21.4707C21.1076 6.60135 17.3986 2.89236 12.75 2.5293V5.25Z" fill="#000001"/>
</g>
</svg>
