<svg width="16" height="16" viewBox="0 0 16 16" fill="none" xmlns="http://www.w3.org/2000/svg">
<g id="size=16">
<path id="Path" d="M8 0C12.4183 0 16 3.58172 16 8C16 12.4183 12.4183 16 8 16C3.58172 16 0 12.4183 0 8C0 3.58172 3.58172 0 8 0ZM8.75 3.25C8.75 3.66421 8.41421 4 8 4C7.58579 4 7.25 3.66421 7.25 3.25V1.54297C4.25952 1.88655 1.88655 4.25952 1.54297 7.25H3.25C3.66421 7.25 4 7.58579 4 8C4 8.41421 3.66421 8.75 3.25 8.75H1.54297C1.88655 11.7405 4.25952 14.1134 7.25 14.457V12.75C7.25 12.3358 7.58579 12 8 12C8.41421 12 8.75 12.3358 8.75 12.75V14.457C11.7405 14.1134 14.1134 11.7405 14.457 8.75H12.75C12.3358 8.75 12 8.41421 12 8C12 7.58579 12.3358 7.25 12.75 7.25H14.457C14.1134 4.25952 11.7405 1.88655 8.75 1.54297V3.25Z" fill="#000001"/>
</g>
</svg>
