<svg width="16" height="16" viewBox="0 0 16 16" fill="none" xmlns="http://www.w3.org/2000/svg">
<g id="size=16">
<path id="Path" d="M5.75 1C6.44036 1 7 1.55964 7 2.25V13.75C7 14.4404 6.44036 15 5.75 15H2.25C1.55964 15 1 14.4404 1 13.75V2.25C1 1.55964 1.55964 1 2.25 1H5.75ZM13.75 9C14.4404 9 15 9.55964 15 10.25V13.75C15 14.4404 14.4404 15 13.75 15H10.25C9.55964 15 9 14.4404 9 13.75V10.25C9 9.55964 9.55964 9 10.25 9H13.75ZM2.5 13.5H5.5V2.5H2.5V13.5ZM10.5 13.5H13.5V10.5H10.5V13.5ZM13.75 1C14.4404 1 15 1.55964 15 2.25V5.75C15 6.44036 14.4404 7 13.75 7H10.25C9.55964 7 9 6.44036 9 5.75V2.25C9 1.55964 9.55964 1 10.25 1H13.75ZM10.5 5.5H13.5V2.5H10.5V5.5Z" fill="#000001"/>
</g>
</svg>
