<svg width="16" height="16" viewBox="0 0 16 16" fill="none" xmlns="http://www.w3.org/2000/svg">
<g id="size=16">
<path id="background" d="M15 1H1V15H15V1Z" fill="black"/>
<g id="text-combined">
<path d="M9.26464 7.70058V7.5H8.3071L8.04704 7.70058V7.97612L8.3071 8.1767H9.14174V8.45944H8.09878V8.66003H9.08226L9.34232 8.45944V8.1767L9.08226 7.97612H8.24762V7.70058H9.26464Z" fill="white"/>
<path d="M4.25204 7.5H4.06938L3.39933 8.66003H3.63101L4.16118 7.74254L4.69054 8.66003H4.92222L4.25204 7.5Z" fill="white"/>
<path d="M6.24385 7.5H4.94857V7.70058H5.49599V8.66003H5.69657V7.70058H6.24385V7.5Z" fill="white"/>
<path d="M10.9595 7.5H9.66431V7.70058H10.2116V8.66003H10.4122V7.70058H10.9595V7.5Z" fill="white"/>
<path d="M2.88532 7.5H1.8501V8.66003H2.88532L3.14538 8.45944V7.70058L2.88532 7.5ZM2.05068 8.45944V7.70058H2.9448V8.45944H2.05068Z" fill="white"/>
<path d="M13.3285 8.08001L12.9932 7.5H12.7617L13.0967 8.08001L12.7617 8.66003H12.9932L13.3285 8.08001Z" fill="white"/>
<path d="M13.6581 8.08001L13.9933 7.5H14.2248L13.8898 8.08001L14.2248 8.66003H13.9933L13.6581 8.08001Z" fill="white"/>
<path d="M6.94038 7.5H7.12304L7.79309 8.66003H7.56154L7.03137 7.74254L6.50188 8.66003H6.27033L6.94038 7.5Z" fill="white"/>
<path d="M11.656 7.5H11.8386L12.5087 8.66003H12.2771L11.747 7.74254L11.2175 8.66003H10.9859L11.656 7.5Z" fill="white"/>
</g>
</g>
</svg>
