<svg width="24" height="24" viewBox="0 0 24 24" fill="none" xmlns="http://www.w3.org/2000/svg">
<g id="size=24">
<path id="background" d="M23 1H1V23H23V1Z" fill="black"/>
<g id="text-combined">
<path d="M13.8406 11.4309V11.13H12.4043L12.0142 11.4309V11.8442L12.4043 12.1451H13.6562V12.5692H12.0918V12.87H13.567L13.9571 12.5692V12.1451L13.567 11.8442H12.315V11.4309H13.8406Z" fill="white"/>
<path d="M6.32166 11.13H6.04768L5.0426 12.87H5.39012L6.18538 11.4938L6.97942 12.87H7.32694L6.32166 11.13Z" fill="white"/>
<path d="M9.30938 11.13H7.36645V11.4309H8.18758V12.87H8.48845V11.4309H9.30938V11.13Z" fill="white"/>
<path d="M16.3828 11.13H14.4401V11.4309H15.261V12.87H15.5619V11.4309H16.3828V11.13Z" fill="white"/>
<path d="M4.27158 11.13H2.71875V12.87H4.27158L4.66168 12.5692V11.4309L4.27158 11.13ZM3.01962 12.5692V11.4309H4.36081V12.5692H3.01962Z" fill="white"/>
<path d="M19.9364 12L19.4335 11.13H19.0861L19.5887 12L19.0861 12.87H19.4335L19.9364 12Z" fill="white"/>
<path d="M20.4308 12L20.9335 11.13H21.2808L20.7783 12L21.2808 12.87H20.9335L20.4308 12Z" fill="white"/>
<path d="M10.3542 11.13H10.6282L11.6332 12.87H11.2859L10.4907 11.4938L9.69642 12.87H9.3491L10.3542 11.13Z" fill="white"/>
<path d="M17.4276 11.13H17.7016L18.7066 12.87H18.3593L17.5641 11.4938L16.7698 12.87H16.4225L17.4276 11.13Z" fill="white"/>
</g>
</g>
</svg>
