<svg width="24" height="24" viewBox="0 0 24 24" fill="none" xmlns="http://www.w3.org/2000/svg">
<g id="size=24">
<path id="datastax" fill-rule="evenodd" clip-rule="evenodd" d="M1 1H23V23H1V1ZM2.71875 11.13H4.27158L4.66168 11.4309V12.5692L4.27158 12.87H2.71875V11.13ZM3.01962 11.4309V12.5692H4.36081V11.4309H3.01962ZM6.32166 11.13H6.04768L5.0426 12.87H5.39012L6.18538 11.4938L6.97942 12.87H7.32693L6.32166 11.13ZM13.8406 11.4309V11.13H12.4043L12.0142 11.4309V11.8442L12.4043 12.1451H13.6562V12.5692H12.0918V12.87H13.567L13.9571 12.5692V12.1451L13.567 11.8442H12.315V11.4309H13.8406ZM7.36645 11.13H9.30938V11.4309H8.48845V12.87H8.18758V11.4309H7.36645V11.13ZM16.3828 11.13H14.4401V11.4309H15.261V12.87H15.5619V11.4309H16.3828V11.13ZM19.9364 12L19.4335 11.13H19.0861L19.5887 12L19.0861 12.87H19.4335L19.9364 12ZM20.9335 11.13L20.4308 12L20.9335 12.87H21.2808L20.7783 12L21.2808 11.13H20.9335ZM10.3542 11.13H10.6282L11.6332 12.87H11.2859L10.4907 11.4938L9.69642 12.87H9.3491L10.3542 11.13ZM17.7016 11.13H17.4276L16.4225 12.87H16.7698L17.5641 11.4938L18.3593 12.87H18.7066L17.7016 11.13Z" fill="#000001"/>
</g>
</svg>
