<svg width="16" height="16" viewBox="0 0 16 16" fill="none" xmlns="http://www.w3.org/2000/svg">
<g id="size=16">
<path id="Path" d="M8 1C9.78157 1 11.4252 1.22966 12.6484 1.62109C13.2554 1.81536 13.801 2.063 14.2109 2.37305C14.6088 2.67406 15 3.13213 15 3.75V12.25C15 12.8658 14.6135 13.3234 14.2158 13.626C13.807 13.9369 13.2625 14.1846 12.6562 14.3789C11.435 14.7703 9.79121 15 8 15C6.2088 15 4.56503 14.7703 3.34375 14.3789C2.73748 14.1846 2.19297 13.9369 1.78418 13.626C1.38648 13.3234 1 12.8658 1 12.25V3.75C1 3.13213 1.39119 2.67406 1.78906 2.37305C2.19902 2.063 2.74455 1.81536 3.35156 1.62109C4.57479 1.22966 6.21843 1 8 1ZM13.5 9.72266C13.228 9.83602 12.9305 9.9321 12.6191 10.0146C11.4049 10.3365 9.77178 10.5 8 10.5C6.22822 10.5 4.59508 10.3365 3.38086 10.0146C3.06947 9.9321 2.77202 9.83602 2.5 9.72266V12.2344C2.50931 12.2554 2.5489 12.3235 2.69238 12.4326C2.91287 12.6003 3.27976 12.7839 3.80176 12.9512C4.83742 13.2831 6.31901 13.5 8 13.5C9.68098 13.5 11.1626 13.2831 12.1982 12.9512C12.7202 12.7839 13.0871 12.6003 13.3076 12.4326C13.4511 12.3235 13.4907 12.2554 13.5 12.2344V9.72266ZM13.5 5.54785C13.2374 5.672 12.9506 5.78221 12.6484 5.87891C11.4252 6.27034 9.78157 6.5 8 6.5C6.21843 6.5 4.57479 6.27034 3.35156 5.87891C3.04941 5.78221 2.76258 5.672 2.5 5.54785V7.97656C2.51406 7.99861 2.55565 8.04834 2.66309 8.12207C2.87662 8.2685 3.23849 8.42592 3.76465 8.56543C4.80737 8.84186 6.29958 9 8 9C9.70042 9 11.1926 8.84186 12.2354 8.56543C12.7615 8.42592 13.1234 8.2685 13.3369 8.12207C13.4443 8.04834 13.4859 7.99861 13.5 7.97656V5.54785ZM8 2.5C6.33003 2.5 4.84837 2.71746 3.80957 3.0498C3.28588 3.21738 2.91582 3.40103 2.69336 3.56934C2.57747 3.65702 2.52932 3.71856 2.50977 3.75C2.52932 3.78144 2.57747 3.84298 2.69336 3.93066C2.91582 4.09897 3.28588 4.28262 3.80957 4.4502C4.84837 4.78254 6.33003 5 8 5C9.66997 5 11.1516 4.78254 12.1904 4.4502C12.7141 4.28262 13.0842 4.09897 13.3066 3.93066C13.4225 3.84298 13.4707 3.78144 13.4902 3.75C13.4707 3.71856 13.4225 3.65702 13.3066 3.56934C13.0842 3.40103 12.7141 3.21738 12.1904 3.0498C11.1516 2.71746 9.66997 2.5 8 2.5Z" fill="#000001"/>
</g>
</svg>
