<svg width="24" height="24" viewBox="0 0 24 24" fill="none" xmlns="http://www.w3.org/2000/svg">
<g id="size=24">
<path id="Vector" fill-rule="evenodd" clip-rule="evenodd" d="M18.9105 16.1979L17.2197 15.1011L15.8092 17.4181L14.1688 16.9464L12.7243 19.1146L12.7984 19.7971L20.6519 18.374L20.1957 13.5482L18.9105 16.1979ZM11.5865 14.1172L12.8466 13.9468C13.0504 14.0369 13.1924 14.0712 13.4368 14.1324C13.8175 14.23 14.2582 14.3236 14.9109 14C15.0628 13.9261 15.3792 13.6415 15.5071 13.4793L20.6697 12.5583L21.1963 18.8268L12.352 20.3944L11.5865 14.1172ZM21.1764 11.8585L20.6668 11.9539L19.6878 2.00635L3.00635 3.90866L5.06145 20.3101L7.01402 20.0314C6.85809 19.8125 6.61529 19.5476 6.20066 19.2084C5.6256 18.7386 5.82899 17.9405 6.16815 17.4366C6.61695 16.5851 8.92933 15.503 8.79832 14.142C8.75132 13.6471 8.67134 13.0029 8.20426 12.5615C8.1867 12.7448 8.21826 12.9212 8.21826 12.9212C8.21826 12.9212 8.0265 12.6806 7.93085 12.3524C7.83591 12.2266 7.76139 12.1864 7.66052 12.0184C7.58861 12.2128 7.5981 12.4383 7.5981 12.4383C7.5981 12.4383 7.44122 12.0737 7.41583 11.766C7.32279 11.9038 7.2993 12.1654 7.2993 12.1654C7.2993 12.1654 7.09542 11.5908 7.14194 11.2813C7.04891 11.0119 6.77312 10.4774 6.8512 9.26246C7.36029 9.61328 8.481 9.52995 8.9177 8.89694C9.06271 8.68733 9.16192 8.115 8.84531 6.98738C8.64191 6.26427 8.13828 5.18753 7.942 4.77906L7.91851 4.79563C8.02199 5.12475 8.23535 5.81472 8.31723 6.1492C8.56501 7.16384 8.63147 7.517 8.51517 7.98476C8.4162 8.39136 8.17887 8.65745 7.57722 8.95482C6.97557 9.25312 6.17717 8.52721 6.12662 8.48706C5.54205 8.02911 5.08993 7.28195 5.03938 6.91899C4.98692 6.52172 5.2722 6.28318 5.41603 5.95826C5.21026 6.01615 4.98075 6.11885 4.98075 6.11885C4.98075 6.11885 5.25464 5.84016 5.59237 5.59904C5.73216 5.50801 5.81428 5.45012 5.96167 5.32968C5.7483 5.32618 5.57504 5.33225 5.57504 5.33225C5.57504 5.33225 5.93081 5.14319 6.29963 5.00547C6.02978 4.9938 5.77156 5.0036 5.77156 5.0036C5.77156 5.0036 6.56545 4.65442 7.19249 4.39813C7.62374 4.22424 8.04501 4.27559 8.28163 4.61217C8.59231 5.05309 8.91865 5.29257 9.61024 5.44102C10.0348 5.25592 10.164 5.16069 10.6975 5.01784C11.1672 4.50994 11.536 4.44411 11.536 4.44411C11.536 4.44411 11.353 4.60914 11.3041 4.86846C11.5704 4.66212 11.8623 4.48986 11.8623 4.48986C11.8623 4.48986 11.7494 4.62711 11.644 4.84512L11.6684 4.88083C11.9791 4.6976 12.3444 4.55312 12.3444 4.55312C12.3444 4.55312 12.2399 4.6829 12.1175 4.85095C12.3517 4.84909 12.8269 4.86076 13.0113 4.8813C14.0999 4.90487 14.3259 3.73781 14.7436 3.59146C15.2667 3.40776 15.5005 3.29666 16.3919 4.15772C17.1568 4.89694 17.7545 6.22015 17.4578 6.51659C17.2091 6.76261 16.7182 6.42066 16.1743 5.75379C15.8869 5.40064 15.6695 4.9833 15.5676 4.45275C15.4817 4.00506 15.1473 3.74528 15.1473 3.74528C15.1473 3.74528 15.3415 4.16962 15.3415 4.54448C15.3415 4.74919 15.3676 5.51455 15.7013 5.94403C15.6683 6.00681 15.6528 6.2547 15.6163 6.30208C15.228 5.84062 14.3942 5.51034 14.2582 5.41301C14.7184 5.78391 15.7763 6.63586 16.1826 7.45234C16.5668 8.22447 16.3404 8.93218 16.5348 9.11541C16.5901 9.16793 17.3612 10.1128 17.5095 10.5875C17.7682 11.415 17.525 12.2845 17.1863 12.8239L16.2405 12.9688C16.1021 12.931 16.0088 12.9121 15.8847 12.8414C15.9531 12.7223 16.0891 12.4254 16.0905 12.3643L16.0371 12.2721C15.7428 12.6822 15.2496 13.0804 14.84 13.3091C14.3038 13.6079 13.6858 13.5619 13.2835 13.4394C12.1417 13.093 11.062 12.3342 10.8017 12.1348C10.8017 12.1348 10.7936 12.294 10.8427 12.3297C11.1306 12.6491 11.7902 13.2267 12.4277 13.6294L11.0687 13.7764L11.7112 18.6963C11.4263 18.7365 11.382 18.7561 11.0701 18.7997C10.7953 17.8448 10.2696 17.2214 9.69497 16.8582C9.18826 16.5379 8.4893 16.4658 7.82025 16.5961L7.77729 16.6451C8.24247 16.5975 8.79167 16.6638 9.35582 17.015C9.90953 17.3593 10.3557 18.2486 10.52 18.7841C10.7302 19.4684 10.8757 20.2004 10.3097 20.9763C9.90692 21.5279 8.73115 21.8327 7.78133 21.1733C8.03504 21.5745 8.37799 21.9027 8.83961 21.9646C9.52504 22.0561 10.1756 21.9391 10.6234 21.487C11.0058 21.1005 11.2085 20.2922 11.1551 19.4409L11.76 19.3545L11.9784 20.8825L21.9935 19.6965L21.1764 11.8585ZM15.0832 7.7091C15.0552 7.77188 15.0113 7.81297 15.0773 8.0172L15.0813 8.02887L15.0918 8.05525L15.1193 8.1164C15.2382 8.35542 15.3687 8.58089 15.5869 8.69597C15.6433 8.68663 15.7017 8.68033 15.7623 8.67729C15.9671 8.66842 16.0964 8.7004 16.1785 8.74382C16.1859 8.70367 16.1876 8.64485 16.1831 8.55825C16.1671 8.25552 16.244 7.74061 15.6524 7.46961C15.429 7.36761 15.1157 7.39912 15.0113 7.52633C15.0303 7.52867 15.0474 7.53264 15.0607 7.53707C15.2185 7.59146 15.1115 7.64491 15.0832 7.7091ZM16.7415 10.5339C16.6639 10.4918 16.3012 10.5084 16.0463 10.5383C15.5608 10.5945 15.0365 10.7603 14.9216 10.8485C14.7127 11.0072 14.8077 11.2841 14.962 11.3977C15.3946 11.7156 15.7739 11.9287 16.1743 11.8769C16.4202 11.8452 16.6368 11.4624 16.7904 11.1151C16.8955 10.8758 16.8955 10.6177 16.7415 10.5339ZM12.4424 8.08396C12.5793 7.95605 11.7603 7.78799 11.1247 8.2142C10.656 8.52861 10.641 9.20271 11.0898 9.5848C11.1347 9.62262 11.1717 9.64946 11.2063 9.6714C11.3373 9.61071 11.4866 9.54932 11.6585 9.49447C11.9487 9.40181 12.1901 9.35396 12.3885 9.32852C12.4834 9.22418 12.5938 9.04048 12.5663 8.70787C12.5288 8.25668 12.1811 8.32834 12.4424 8.08396Z" fill="#632CA6"/>
</g>
</svg>
