<svg width="16" height="16" viewBox="0 0 16 16" fill="none" xmlns="http://www.w3.org/2000/svg">
<g id="size=16">
<path id="datastax" fill-rule="evenodd" clip-rule="evenodd" d="M1 1H15V15H1V1ZM2.09375 7.44637H3.08192L3.33016 7.63783V8.3622L3.08192 8.55366H2.09375V7.44637ZM2.28521 7.63783V8.3622H3.13869V7.63783H2.28521ZM4.38651 7.44637H4.21216L3.57256 8.55366H3.79371L4.29979 7.67789L4.80508 8.55366H5.02623L4.38651 7.44637ZM9.17127 7.63783V7.44637H8.25725L8.00901 7.63783V7.90085L8.25725 8.09231H9.05395V8.3622H8.0584V8.55366H8.99718L9.24542 8.3622V8.09231L8.99718 7.90085H8.20047V7.63783H9.17127ZM5.05138 7.44637H6.28779V7.63783H5.76538V8.55366H5.57392V7.63783H5.05138V7.44637ZM10.789 7.44637H9.55277V7.63783H10.0752V8.55366H10.2666V7.63783H10.789V7.44637ZM13.0504 8.00001L12.7304 7.44637H12.5094L12.8292 8.00001L12.5094 8.55366H12.7304L13.0504 8.00001ZM13.685 7.44637L13.365 8.00001L13.685 8.55366H13.906L13.5862 8.00001L13.906 7.44637H13.685ZM6.95266 7.44637H7.12701L7.7666 8.55366H7.54558L7.03951 7.67789L6.53408 8.55366H6.31306L6.95266 7.44637ZM11.6283 7.44637H11.4539L10.8143 8.55366H11.0353L11.5408 7.67789L12.0468 8.55366H12.2679L11.6283 7.44637Z" fill="#000001"/>
</g>
</svg>
