<svg width="24" height="24" viewBox="0 0 24 24" fill="none" xmlns="http://www.w3.org/2000/svg">
<g id="size=24">
<path id="Path" d="M12 2C14.6108 2 17.0054 2.34192 18.7725 2.91504C19.6517 3.20023 20.4176 3.55645 20.9795 3.9873C21.5305 4.40984 22 4.99856 22 5.75V18.1621C21.9999 18.9144 21.5457 19.5146 20.9932 19.9531C20.4332 20.3974 19.6689 20.7637 18.79 21.0576C17.024 21.6482 14.6271 22 12 22C9.37288 22 6.97604 21.6482 5.20996 21.0576C4.33113 20.7637 3.56675 20.3974 3.00684 19.9531C2.45427 19.5146 2.00014 18.9144 2 18.1621V5.75C2 4.99856 2.46951 4.40984 3.02051 3.9873C3.5824 3.55645 4.34825 3.20023 5.22754 2.91504C6.99464 2.34192 9.3892 2 12 2ZM20.5 13.8398C20.0136 14.1281 19.4297 14.3762 18.7842 14.5859C17.0202 15.1589 14.6253 15.5 12 15.5C9.37466 15.5 6.97975 15.1589 5.21582 14.5859C4.57026 14.3762 3.98645 14.1281 3.5 13.8398V18.1621C3.50013 18.2641 3.56054 18.4772 3.93848 18.7773C4.30988 19.0721 4.89463 19.3713 5.68555 19.6357C7.25975 20.1621 9.48823 20.5 12 20.5C14.5118 20.5 16.7402 20.1621 18.3145 19.6357C19.1054 19.3713 19.6901 19.0721 20.0615 18.7773C20.4395 18.4772 20.4999 18.2641 20.5 18.1621V13.8398ZM20.5 7.83496C20.0105 8.12472 19.4225 8.37414 18.7725 8.58496C17.0054 9.15808 14.6108 9.5 12 9.5C9.3892 9.5 6.99464 9.15808 5.22754 8.58496C4.57755 8.37414 3.98947 8.12472 3.5 7.83496V11.75C3.5 11.8303 3.54935 12.0312 3.93066 12.3252C4.30213 12.6116 4.88746 12.9018 5.67969 13.1592C7.25603 13.6712 9.48648 14 12 14C14.5135 14 16.744 13.6712 18.3203 13.1592C19.1125 12.9018 19.6979 12.6116 20.0693 12.3252C20.4506 12.0312 20.5 11.8303 20.5 11.75V7.83496ZM12 3.5C9.50217 3.5 7.27117 3.82912 5.69043 4.3418C4.89599 4.59946 4.30778 4.89083 3.93359 5.17773C3.54849 5.47303 3.5 5.67306 3.5 5.75C3.5 5.82694 3.54849 6.02697 3.93359 6.32227C4.30778 6.60918 4.89599 6.90054 5.69043 7.1582C7.27117 7.67088 9.50217 8 12 8C14.4978 8 16.7288 7.67088 18.3096 7.1582C19.104 6.90054 19.6922 6.60918 20.0664 6.32227C20.4515 6.02697 20.5 5.82694 20.5 5.75C20.5 5.67306 20.4515 5.47303 20.0664 5.17773C19.6922 4.89083 19.104 4.59946 18.3096 4.3418C16.7288 3.82912 14.4978 3.5 12 3.5Z" fill="#000001"/>
</g>
</svg>
