<svg width="24" height="24" viewBox="0 0 24 24" fill="none" xmlns="http://www.w3.org/2000/svg">
<g id="size=24">
<path id="Path" d="M21.25 3C22.7684 3.00044 24 4.23149 24 5.75V18.25C24 19.7685 22.7684 20.9996 21.25 21H8.67578C7.86872 20.9997 7.1014 20.6446 6.5791 20.0293L0.177734 12.4854C-0.0592448 12.2056 -0.0592448 11.7944 0.177734 11.5146L6.5791 3.9707C7.1014 3.35543 7.86872 3.00027 8.67578 3H21.25ZM8.67578 4.5C8.30913 4.50027 7.95996 4.66188 7.72266 4.94141L1.7334 12L7.72266 19.0586C7.95996 19.3381 8.30913 19.4997 8.67578 19.5H21.25C21.94 19.4996 22.5 18.9401 22.5 18.25V5.75C22.5 5.05991 21.94 4.50043 21.25 4.5H8.67578ZM17.7197 8.21973C18.0125 7.92739 18.4875 7.92743 18.7803 8.21973C19.0726 8.51252 19.0726 8.98748 18.7803 9.28027L16.0605 12L18.7803 14.7197C19.0726 15.0125 19.0726 15.4875 18.7803 15.7803C18.4875 16.0726 18.0125 16.0726 17.7197 15.7803L15 13.0605L12.2803 15.7803C11.9875 16.0726 11.5125 16.0726 11.2197 15.7803C10.9274 15.4875 10.9274 15.0125 11.2197 14.7197L13.9395 12L11.2197 9.28027C10.9274 8.9875 10.9274 8.5125 11.2197 8.21973C11.5125 7.92739 11.9875 7.92743 12.2803 8.21973L15 10.9395L17.7197 8.21973Z" fill="#000001"/>
</g>
</svg>
