<svg width="16" height="16" viewBox="0 0 16 16" fill="none" xmlns="http://www.w3.org/2000/svg">
<g id="size=16">
<path id="Path" d="M13.749 2C14.9903 2.00158 15.999 3.00833 15.999 4.25V11.75C15.999 12.9917 14.9903 13.9984 13.749 14H5.71973C5.21066 13.9997 4.72377 13.7764 4.3916 13.3906L0.180664 8.48926C-0.0602215 8.20836 -0.0602215 7.79164 0.180664 7.51074L4.3916 2.60938C4.72377 2.22365 5.21066 2.00034 5.71973 2H13.749ZM5.71973 3.5C5.64789 3.50034 5.57652 3.53282 5.5293 3.58691L1.73828 8L5.5293 12.4131C5.57652 12.4672 5.64789 12.4997 5.71973 12.5H13.749C14.1619 12.4984 14.499 12.1632 14.499 11.75V4.25C14.499 3.83676 14.1619 3.50157 13.749 3.5H5.71973ZM10.7188 5.21973C11.0116 4.92848 11.4868 4.9279 11.7793 5.21973C12.0702 5.51225 12.0702 5.98775 11.7793 6.28027L10.0596 8L11.7793 9.71973C12.0702 10.0123 12.0702 10.4877 11.7793 10.7803C11.4868 11.0721 11.0116 11.0715 10.7188 10.7803L8.99902 9.06055L7.2793 10.7803C6.98684 11.0721 6.51157 11.0715 6.21875 10.7803C5.92663 10.4875 5.92663 10.0125 6.21875 9.71973L7.93848 8L6.21875 6.28027C5.92662 5.98753 5.92662 5.51247 6.21875 5.21973C6.51157 4.92849 6.98684 4.9279 7.2793 5.21973L8.99902 6.93945L10.7188 5.21973Z" fill="#000001"/>
</g>
</svg>
