<svg width="24" height="24" viewBox="0 0 24 24" fill="none" xmlns="http://www.w3.org/2000/svg">
<g id="size=24">
<path id="Path" d="M21.25 3C22.7685 3.00034 24 4.23143 24 5.75V18.25C24 19.7686 22.7685 20.9997 21.25 21H8.67578C7.86868 20.9997 7.1014 20.6446 6.5791 20.0293L0.177734 12.4854C-0.0592448 12.2056 -0.0592448 11.7944 0.177734 11.5146L6.5791 3.9707C7.1014 3.35537 7.86868 3.00027 8.67578 3H21.25ZM8.67578 4.5C8.30909 4.50027 7.95996 4.66182 7.72266 4.94141L1.7334 12L7.72266 19.0586C7.95996 19.3382 8.30909 19.4997 8.67578 19.5H21.25C21.9401 19.4997 22.5 18.9401 22.5 18.25V5.75C22.5 5.05985 21.9401 4.50034 21.25 4.5H8.67578ZM17.7197 8.21973C18.0125 7.9273 18.4874 7.9274 18.7803 8.21973C19.0727 8.51254 19.0727 8.98746 18.7803 9.28027L16.0605 12L18.7803 14.7197C19.0727 15.0125 19.0727 15.4875 18.7803 15.7803C18.4874 16.0726 18.0125 16.0727 17.7197 15.7803L15 13.0605L12.2803 15.7803C11.9874 16.0726 11.5125 16.0727 11.2197 15.7803C10.9274 15.4875 10.9274 15.0125 11.2197 14.7197L13.9395 12L11.2197 9.28027C10.9274 8.9875 10.9274 8.5125 11.2197 8.21973C11.5125 7.9273 11.9874 7.9274 12.2803 8.21973L15 10.9395L17.7197 8.21973Z" fill="#000001"/>
</g>
</svg>
