<svg width="24" height="24" viewBox="0 0 24 24" fill="none" xmlns="http://www.w3.org/2000/svg">
<g id="size=24">
<path id="Path" fill-rule="evenodd" clip-rule="evenodd" d="M10.0557 1.9248C11.1294 0.851915 12.8716 0.851861 13.9453 1.9248L22.0771 10.0557C23.15 11.1293 23.1499 12.8715 22.0771 13.9453L13.9453 22.0771C12.8717 23.1497 11.1304 23.1496 10.0566 22.0771L1.9248 13.9453C0.851849 12.8716 0.851891 11.1294 1.9248 10.0557L10.0557 1.9248ZM12.8848 2.98535C12.3968 2.49822 11.6052 2.49831 11.1172 2.98535L2.98534 11.1172C2.49831 11.6052 2.49822 12.3968 2.98534 12.8848L11.1172 21.0156C11.6051 21.5028 12.3968 21.5027 12.8848 21.0156L21.0156 12.8848C21.5027 12.3968 21.5028 11.6051 21.0156 11.1172L12.8848 2.98535Z" fill="#000001"/>
</g>
</svg>
