<svg width="16" height="16" viewBox="0 0 16 16" fill="none" xmlns="http://www.w3.org/2000/svg">
<g id="size=16">
<path id="Path" fill-rule="evenodd" clip-rule="evenodd" d="M7.46783 1.81318L1.811 7.47001C1.51811 7.7629 1.51811 8.23778 1.81101 8.53068L7.46784 14.1874C7.76073 14.4803 8.2356 14.4803 8.52849 14.1874L14.1852 8.53067C14.4781 8.23778 14.4781 7.76291 14.1852 7.47002L8.5285 1.81318C8.2356 1.52028 7.76073 1.52028 7.46783 1.81318ZM0.75034 6.40935L6.40717 0.752516C7.28586 -0.126171 8.71049 -0.126163 9.58917 0.752533L15.2459 6.40937C16.1245 7.28805 16.1245 8.71266 15.2459 9.59133L9.58915 15.248C8.71048 16.1267 7.28587 16.1267 6.40719 15.2481L0.750359 9.59135C-0.128337 8.71267 -0.128346 7.28804 0.75034 6.40935Z" fill="#000001"/>
</g>
</svg>
