<svg width="16" height="16" viewBox="0 0 16 16" fill="none" xmlns="http://www.w3.org/2000/svg">
<g id="size=16">
<path id="Path" fill-rule="evenodd" clip-rule="evenodd" d="M6.40635 0.752045C7.28505 -0.126507 8.71034 -0.126606 9.58897 0.752045L15.2452 6.40927C16.1224 7.28803 16.1233 8.71271 15.2452 9.59091L9.58897 15.2472C8.71074 16.1254 7.28514 16.1245 6.40635 15.2472L0.750101 9.59091C-0.128546 8.71229 -0.128439 7.28797 0.750101 6.40927L6.40635 0.752045ZM8.52842 1.81259C8.23566 1.51983 7.7608 1.5201 7.46787 1.81259L1.81065 7.46982C1.5179 7.76273 1.5178 8.23752 1.81065 8.53037L7.46787 14.1866C7.76088 14.478 8.23601 14.479 8.52842 14.1866L14.1847 8.53037C14.4769 8.23795 14.4761 7.76279 14.1847 7.46982L8.52842 1.81259Z" fill="#000001"/>
</g>
</svg>
