<svg width="16" height="16" viewBox="0 0 16 16" fill="none" xmlns="http://www.w3.org/2000/svg">
<g id="size=16">
<path id="Path" fill-rule="evenodd" clip-rule="evenodd" d="M7.46784 1.81319L1.81101 7.47002C1.51811 7.76292 1.51812 8.2378 1.81102 8.53069L7.46785 14.1874C7.76074 14.4803 8.23561 14.4803 8.5285 14.1874L14.1852 8.53069C14.4781 8.2378 14.4781 7.76293 14.1852 7.47003L8.5285 1.8132C8.23561 1.5203 7.76073 1.5203 7.46784 1.81319ZM0.750348 6.40937L6.40718 0.752532C7.28586 -0.126156 8.7105 -0.126148 9.58918 0.752548L15.2459 6.40938C16.1245 7.28806 16.1245 8.71267 15.2459 9.59135L9.58916 15.2481C8.71049 16.1267 7.28588 16.1267 6.4072 15.2481L0.750366 9.59136C-0.128329 8.71269 -0.128338 7.28805 0.750348 6.40937Z" fill="#000001"/>
</g>
</svg>
