<svg width="16" height="16" viewBox="0 0 16 16" fill="none" xmlns="http://www.w3.org/2000/svg">
<g id="size=16">
<path id="Path" fill-rule="evenodd" clip-rule="evenodd" d="M6.4065 0.752178C7.2852 -0.126365 8.71049 -0.12647 9.58912 0.752178L15.2454 6.4094C16.1224 7.28817 16.1234 8.71289 15.2454 9.59105L9.58912 15.2473C8.71094 16.1255 7.2853 16.1245 6.4065 15.2473L0.750253 9.59105C-0.128393 8.71242 -0.128286 7.2881 0.750253 6.4094L6.4065 0.752178ZM8.52857 1.81272C8.23582 1.51996 7.76095 1.52024 7.46803 1.81272L1.8108 7.46995C1.51805 7.76286 1.51795 8.23766 1.8108 8.5305L7.46803 14.1867C7.76104 14.478 8.23621 14.4791 8.52857 14.1867L14.1848 8.5305C14.477 8.23813 14.4761 7.76293 14.1848 7.46995L8.52857 1.81272Z" fill="#000001"/>
</g>
</svg>
