<svg width="16" height="16" viewBox="0 0 16 16" fill="none" xmlns="http://www.w3.org/2000/svg">
<g id="size=16">
<g id="Path">
<path fill-rule="evenodd" clip-rule="evenodd" d="M9.83301 4.25C12.6403 4.25 14.9168 6.52571 14.917 9.33301C14.917 10.1278 14.7338 10.8821 14.4072 11.5537C14.4129 11.5865 14.4223 11.6307 14.4365 11.6865C14.4869 11.8843 14.576 12.1404 14.6846 12.4209C14.7707 12.6435 14.8614 12.8637 14.9453 13.0664L15.0059 13.2129C15.0542 13.3301 15.1002 13.4431 15.1367 13.5391C15.1676 13.6201 15.2119 13.7382 15.2344 13.8447C15.281 14.0659 15.2254 14.2971 15.083 14.4727C14.9406 14.6482 14.7261 14.75 14.5 14.75C14.3314 14.75 14.1681 14.7105 14.0527 14.6777C13.9252 14.6415 13.7898 14.5938 13.6592 14.5439C13.4708 14.472 13.2568 14.3816 13.0527 14.2959C12.9793 14.2651 12.9071 14.2348 12.8379 14.2061C12.5591 14.0903 12.318 13.9953 12.1318 13.9404C12.0937 13.9292 12.0622 13.9209 12.0371 13.915C11.3697 14.2365 10.6211 14.417 9.83301 14.417C7.02577 14.4167 4.75 12.1403 4.75 9.33301C4.75018 6.52586 7.02588 4.25024 9.83301 4.25ZM9.83301 5.75C7.8543 5.75024 6.25018 7.35429 6.25 9.33301C6.25 11.3119 7.85419 12.9167 9.83301 12.917C10.4307 12.917 10.9926 12.7709 11.4863 12.5137C11.7322 12.3855 11.9833 12.3963 12.1133 12.4092C12.2664 12.4244 12.4203 12.4621 12.5557 12.502C12.7593 12.562 12.9835 12.6466 13.1992 12.7334C13.1156 12.5059 13.037 12.2711 12.9824 12.0566C12.9461 11.9139 12.9142 11.756 12.9033 11.6016C12.8942 11.4721 12.8892 11.2252 13.0137 10.9863C13.271 10.4926 13.417 9.93075 13.417 9.33301C13.4168 7.35414 11.8119 5.75 9.83301 5.75Z" fill="#000001"/>
<path d="M5.98145 1.0498C7.2036 1.04992 8.32547 1.48698 9.19727 2.21191C9.49446 2.45907 9.53514 2.90002 9.28809 3.19727C9.04091 3.49446 8.59997 3.53519 8.30273 3.28809C7.67302 2.76441 6.86471 2.45031 5.98145 2.4502C3.97495 2.45021 2.34786 4.07656 2.34766 6.08301C2.34766 6.68912 2.49582 7.25895 2.75684 7.75977C2.88053 7.99714 2.8673 8.24983 2.85742 8.37012C2.84476 8.52397 2.81244 8.68692 2.77441 8.83887C2.72274 9.04527 2.65148 9.27099 2.57422 9.49316C2.83358 9.40324 3.0946 9.32187 3.32324 9.26953C3.70002 9.18331 4.07577 9.41918 4.16211 9.7959C4.24835 10.1728 4.0126 10.5485 3.63574 10.6348C3.29559 10.7126 2.79876 10.8933 2.3584 11.0693C2.14454 11.1549 1.95408 11.2352 1.81738 11.2939C1.74914 11.3233 1.69449 11.3478 1.65723 11.3643L1.61426 11.3828L1.60449 11.3867L1.60156 11.3887C1.33605 11.5078 1.02379 11.4503 0.818359 11.2441C0.612927 11.0379 0.556558 10.726 0.676758 10.4609L0.677734 10.46L0.679688 10.4551L0.6875 10.4385L0.717773 10.3691C0.744448 10.3088 0.782889 10.2213 0.828125 10.1152C0.918967 9.90214 1.03657 9.61588 1.14746 9.32031C1.25973 9.02105 1.35832 8.72941 1.41602 8.49902C1.43826 8.41015 1.45135 8.34168 1.45801 8.29395C1.131 7.62593 0.947266 6.87477 0.947266 6.08301C0.947468 3.30336 3.20175 1.04982 5.98145 1.0498Z" fill="#000001"/>
</g>
</g>
</svg>
