<svg width="24" height="24" viewBox="0 0 24 24" fill="none" xmlns="http://www.w3.org/2000/svg">
<g id="size=24">
<path id="Path" d="M20.25 7C21.7688 7 23 8.23122 23 9.75V22.25C23 22.5382 22.8349 22.8008 22.5752 22.9258C22.3153 23.0507 22.0064 23.016 21.7812 22.8359L18.5791 20.2734C18.3576 20.0964 18.0824 20.0001 17.7988 20H9.75C8.23122 20 7 18.7688 7 17.25V9.75C7 8.23122 8.23122 7 9.75 7H20.25ZM9.75 8.5C9.05964 8.5 8.5 9.05964 8.5 9.75V17.25C8.5 17.9404 9.05964 18.5 9.75 18.5H17.7988C18.4231 18.5001 19.0291 18.7125 19.5166 19.1025L21.5 20.6895V9.75C21.5 9.05964 20.9404 8.5 20.25 8.5H9.75ZM14.25 2C15.7688 2 17 3.23122 17 4.75V5.25C17 5.66421 16.6642 6 16.25 6C15.8358 6 15.5 5.66421 15.5 5.25V4.75C15.5 4.05964 14.9404 3.5 14.25 3.5H3.75C3.05964 3.5 2.5 4.05964 2.5 4.75V15.6895L5.03125 13.6641C5.3547 13.4053 5.82718 13.4578 6.08594 13.7812C6.3447 14.1047 6.2922 14.5772 5.96875 14.8359L2.21875 17.8359C1.99362 18.016 1.68465 18.0507 1.4248 17.9258C1.16514 17.8008 1 17.5382 1 17.25V4.75C1 3.23122 2.23122 2 3.75 2H14.25Z" fill="#000001"/>
</g>
</svg>
