<svg width="16" height="16" viewBox="0 0 16 16" fill="none" xmlns="http://www.w3.org/2000/svg">
<g id="size=16">
<path id="Path" d="M8 0C12.4183 0 16 3.58172 16 8C16 12.4183 12.4183 16 8 16C3.58172 16 0 12.4183 0 8C0 3.58172 3.58172 0 8 0ZM8 1.5C4.41015 1.5 1.5 4.41015 1.5 8C1.5 11.5899 4.41015 14.5 8 14.5C11.5899 14.5 14.5 11.5899 14.5 8C14.5 4.41015 11.5899 1.5 8 1.5ZM8 5.0498C9.62922 5.0498 10.9502 6.37078 10.9502 8C10.9502 9.62924 9.62924 10.9502 8 10.9502C6.37078 10.9502 5.0498 9.62922 5.0498 8C5.04983 6.3708 6.3708 5.04983 8 5.0498ZM8 6.4502C7.144 6.45022 6.45022 7.144 6.4502 8C6.4502 8.85603 7.14398 9.54978 8 9.5498C8.85604 9.5498 9.5498 8.85604 9.5498 8C9.54978 7.14398 8.85603 6.4502 8 6.4502Z" fill="#000001"/>
</g>
</svg>
