<svg width="24" height="24" viewBox="0 0 24 24" fill="none" xmlns="http://www.w3.org/2000/svg">
<g id="size=24">
<g id="Path">
<path fill-rule="evenodd" clip-rule="evenodd" d="M14.2559 6C18.2584 6.00176 21.5059 9.24702 21.5059 13.25C21.5059 14.4207 21.2267 15.5301 20.7324 16.5107L20.7344 16.5322C20.742 16.6249 20.7669 16.7631 20.8125 16.9453C20.9031 17.3071 21.0549 17.7584 21.2246 18.2109C21.3928 18.6591 21.5718 19.0933 21.709 19.415C21.7772 19.5749 21.8356 19.7084 21.876 19.7998L21.9385 19.9404C22.0663 20.2235 22.0056 20.5586 21.7871 20.7793C21.5676 20.9992 21.232 21.0598 20.9483 20.9336L20.9404 20.9307L20.9131 20.918C20.8894 20.9075 20.8508 20.8914 20.8067 20.8721C20.7151 20.832 20.5804 20.7725 20.4209 20.7051C20.0982 20.5687 19.6606 20.3902 19.2119 20.2227C18.7594 20.0538 18.3058 19.9008 17.9443 19.8096C17.7641 19.7643 17.6228 19.7388 17.5303 19.7305L17.5117 19.7295C16.5331 20.2219 15.4237 20.4995 14.2559 20.5C10.2523 20.4994 7.00587 17.2537 7.00587 13.25C7.00587 9.24632 10.2523 6.00062 14.2559 6ZM14.2559 7.5C11.0808 7.50062 8.50587 10.0747 8.50587 13.25C8.50587 16.4253 11.0808 18.9994 14.2559 19C15.2129 18.9995 16.1173 18.7651 16.9092 18.3525C17.1848 18.21 17.4931 18.2219 17.6602 18.2363C17.8646 18.2543 18.0918 18.2997 18.3096 18.3545C18.7508 18.4658 19.266 18.6415 19.7373 18.8174C19.7802 18.8334 19.8266 18.8511 19.8692 18.8672C19.853 18.8249 19.8363 18.781 19.8203 18.7383C19.6434 18.2666 19.4676 17.7533 19.3565 17.3096C19.3014 17.0894 19.2563 16.8629 19.2393 16.6553C19.2252 16.4835 19.215 16.1789 19.3584 15.9033C19.7713 15.1106 20.0059 14.2081 20.0059 13.25C20.0059 10.0754 17.43 7.50176 14.2559 7.5Z" fill="#000001"/>
<path d="M9.35255 2C11.1119 2.00084 12.7303 2.63032 13.9854 3.67383C14.3014 3.93858 14.3448 4.41174 14.082 4.72949C13.8176 5.04665 13.3446 5.08906 13.0264 4.82617C12.0307 3.99848 10.7486 3.50083 9.35255 3.5C6.17744 3.50062 3.60255 6.07475 3.60255 9.25C3.60255 10.2084 3.83685 11.1104 4.25001 11.9033C4.39284 12.1785 4.38226 12.4837 4.36818 12.6553C4.35112 12.8628 4.30605 13.0894 4.25099 13.3096C4.13994 13.7532 3.96502 14.2666 3.7881 14.7383C3.77208 14.781 3.7554 14.8249 3.73927 14.8672C4.30115 14.654 4.92731 14.438 5.43263 14.3223C5.83516 14.2319 6.23862 14.4834 6.33107 14.8857C6.42278 15.2882 6.16933 15.6905 5.76759 15.7842C5.23321 15.9066 4.46681 16.1863 3.80665 16.4502C3.48472 16.5789 3.19469 16.7013 2.98829 16.79C2.88706 16.8336 2.80156 16.8716 2.74513 16.8965L2.68068 16.9248L2.66505 16.9316L2.66115 16.9336C2.37753 17.0606 2.0413 16.9987 1.8213 16.7793C1.60181 16.5585 1.54067 16.2241 1.66896 15.9404L1.66993 15.9385L1.67286 15.9316L1.68556 15.9043C1.69624 15.8805 1.7128 15.8442 1.73243 15.7998C1.77285 15.7083 1.83035 15.5748 1.89845 15.415C2.03565 15.0932 2.21468 14.6591 2.38283 14.2109C2.55259 13.7584 2.70534 13.3071 2.79591 12.9453C2.84144 12.7633 2.86642 12.6248 2.87404 12.5322L2.87501 12.5107C2.38049 11.5299 2.10255 10.4211 2.10255 9.25C2.10255 5.24632 5.34902 2.00062 9.35255 2Z" fill="#000001"/>
</g>
</g>
</svg>
