<svg width="16" height="16" viewBox="0 0 16 16" fill="none" xmlns="http://www.w3.org/2000/svg">
<g id="size=16">
<g id="Path">
<path fill-rule="evenodd" clip-rule="evenodd" d="M8.30241 3.28825C7.67258 2.76447 6.8644 2.45005 5.98094 2.45005C3.97431 2.45005 2.34761 4.07675 2.34761 6.08338C2.34761 6.6895 2.49548 7.25903 2.7565 7.75985C2.88022 7.99724 2.86775 8.24965 2.85786 8.36994C2.84522 8.52386 2.81231 8.68646 2.77426 8.83849C2.72258 9.04498 2.65137 9.27084 2.57406 9.49313C2.83354 9.40317 3.09477 9.32229 3.3235 9.26994C3.70036 9.1837 4.07577 9.4193 4.16201 9.79615C4.24825 10.173 4.01266 10.5484 3.6358 10.6347C3.29558 10.7125 2.79863 10.8934 2.35815 11.0695C2.14417 11.1551 1.9539 11.2353 1.81718 11.2941C1.74892 11.3234 1.69428 11.3473 1.65701 11.3638L1.61467 11.3825L1.6042 11.3872L1.60179 11.3883C1.3362 11.5077 1.02391 11.4504 0.818382 11.2441C0.612856 11.0378 0.556513 10.7258 0.676889 10.4607L0.677337 10.4597L0.679204 10.4556L0.687069 10.4381L0.717865 10.3689C0.744551 10.3085 0.782711 10.2212 0.827973 10.115C0.918816 9.90194 1.03679 9.61616 1.14768 9.32059C1.26005 9.02107 1.35846 8.72908 1.41615 8.49857C1.4384 8.40969 1.45146 8.34208 1.45812 8.29434C1.13099 7.62623 0.947611 6.8753 0.947611 6.08338C0.947611 3.30355 3.20111 1.05005 5.98094 1.05005C7.20337 1.05005 8.32565 1.48672 9.19758 2.21184C9.49483 2.45904 9.5354 2.90039 9.2882 3.19764C9.041 3.49488 8.59965 3.53545 8.30241 3.28825ZM1.46341 8.22585C1.46314 8.22613 1.4629 8.23124 1.46355 8.24034C1.46401 8.23012 1.46369 8.22557 1.46341 8.22585Z" fill="#000001"/>
<path fill-rule="evenodd" clip-rule="evenodd" d="M4.75006 9.33333C4.75006 6.52589 7.02595 4.25 9.8334 4.25C12.6408 4.25 14.9167 6.52589 14.9167 9.33333C14.9167 10.1283 14.7337 10.8824 14.4071 11.5541C14.4127 11.587 14.4219 11.6308 14.4361 11.6866C14.4864 11.8845 14.5758 12.1402 14.6843 12.4207C14.7706 12.6435 14.8617 12.8637 14.9456 13.0665L15.0062 13.2132C15.0546 13.3306 15.1005 13.4434 15.137 13.5394C15.1679 13.6205 15.2114 13.7385 15.2339 13.8452C15.2806 14.0664 15.225 14.2969 15.0826 14.4724C14.9401 14.648 14.7261 14.75 14.5001 14.75C14.3314 14.75 14.1683 14.7106 14.053 14.6779C13.9254 14.6416 13.7902 14.5937 13.6595 14.5438C13.4711 14.4718 13.2571 14.3819 13.0529 14.2961C12.9793 14.2652 12.9069 14.2348 12.8374 14.2059C12.5586 14.0901 12.318 13.9956 12.1319 13.9408C12.0935 13.9295 12.062 13.9213 12.0368 13.9154C11.3695 14.2368 10.6215 14.4167 9.8334 14.4167C7.02595 14.4167 4.75006 12.1408 4.75006 9.33333ZM6.25006 9.33333C6.25006 7.35431 7.85437 5.75 9.8334 5.75C11.8124 5.75 13.4167 7.35431 13.4167 9.33333C13.4167 9.93122 13.2709 10.4928 13.0135 10.9867C12.889 11.2255 12.894 11.472 12.9031 11.6015C12.9139 11.756 12.9461 11.9139 12.9824 12.0566C13.037 12.271 13.1153 12.5055 13.1989 12.733C12.9832 12.6462 12.7594 12.5619 12.5558 12.5019C12.4203 12.462 12.2664 12.4245 12.1131 12.4093C11.9831 12.3964 11.7327 12.3853 11.4868 12.5134C10.9929 12.7708 10.4313 12.9167 9.8334 12.9167C7.85437 12.9167 6.25006 11.3124 6.25006 9.33333ZM14.3992 11.4936C14.3996 11.4858 14.3991 11.4813 14.3991 11.4813C14.3991 11.4813 14.399 11.4825 14.3989 11.485C14.3989 11.487 14.399 11.4898 14.3992 11.4936Z" fill="#000001"/>
</g>
</g>
</svg>
