<svg width="16" height="16" viewBox="0 0 16 16" fill="none" xmlns="http://www.w3.org/2000/svg">
<g id="size=16">
<path id="Path" d="M8.00006 0C12.4183 3.83971e-05 16 3.58172 16 7.99994C16 12.4182 12.4183 15.9998 8.00006 15.9999C3.58182 15.9999 0.000122069 12.4182 0.000122069 7.99994C0.000122069 3.58169 3.58182 0 8.00006 0ZM8.00006 1.49999C4.41024 1.49999 1.50011 4.41012 1.50011 7.99994C1.50011 11.5898 4.41024 14.4999 8.00006 14.4999C11.5899 14.4999 14.5 11.5897 14.5 7.99994C14.5 4.41014 11.5899 1.50003 8.00006 1.49999ZM8.00006 5.04977C9.62924 5.0498 10.9502 6.37076 10.9502 7.99994C10.9502 9.62914 9.62926 10.9501 8.00006 10.9501C6.37086 10.9501 5.04989 9.62915 5.04989 7.99994C5.04991 6.37075 6.37087 5.04979 8.00006 5.04977ZM8.00006 6.45015C7.14407 6.45017 6.45029 7.14394 6.45027 7.99994C6.45027 8.85596 7.14405 9.54971 8.00006 9.54973C8.85606 9.54969 9.54985 8.85595 9.54985 7.99994C9.54983 7.14395 8.85605 6.45018 8.00006 6.45015Z" fill="#000001"/>
</g>
</svg>
