<svg width="24" height="24" viewBox="0 0 24 24" fill="none" xmlns="http://www.w3.org/2000/svg">
<g id="size=24">
<g id="Group">
<path id="Vector" d="M17.9698 7.4448L18.1773 7.13571L18.5372 7.35175L18.6959 7.4645C19.0813 7.75787 19.8905 8.50883 20.0661 9.7521C20.372 9.69882 20.6815 9.67136 20.9917 9.66996C21.7259 9.66996 22.2188 9.83959 22.4997 9.97875L22.6431 10.057L22.7371 10.1183L23 10.3302L22.91 10.6021C22.7665 10.9771 22.5453 11.3153 22.262 11.5929C21.8642 11.9991 21.1643 12.4786 20.0507 12.5407L19.8057 12.5475H19.603C19.0943 13.8757 18.4103 15.3702 17.2622 16.7122C16.5755 17.5146 15.7678 18.1972 14.8703 18.7339C13.7811 19.3707 12.5964 19.815 11.3653 20.0484C10.4797 20.2185 9.58052 20.3027 8.6797 20.2999C6.68565 20.2999 4.92652 19.9086 3.84376 19.2239C2.87751 18.6145 2.13482 17.6189 1.63561 16.2671C1.19911 15.0361 0.984021 13.7331 1.00092 12.4223C1.00282 12.0641 1.26106 11.7688 1.59565 11.7217L1.68866 11.7151H16.1804L16.308 11.7064L16.5123 11.684C16.865 11.6383 17.4007 11.5344 17.7785 11.317C17.3266 10.5796 17.1987 9.71691 17.409 8.79847C17.4981 8.41387 17.6373 8.04401 17.8224 7.69887L17.9698 7.4448ZM4.97435 9.13983L5.02837 9.14907C5.0788 9.16672 5.11854 9.20821 5.13509 9.26049L5.14343 9.31588V11.1019L5.13479 11.1572C5.11797 11.2094 5.07801 11.2507 5.02747 11.268L4.97387 11.277H3.03192C2.95699 11.277 2.89343 11.2268 2.87101 11.1572L2.86237 11.1019V9.31539L2.87101 9.25957C2.88783 9.2074 2.92778 9.16613 2.97832 9.14876L3.03192 9.13983H4.97435ZM7.65044 9.13983L7.70447 9.14907C7.75492 9.16672 7.79466 9.20821 7.8112 9.26049L7.81955 9.31588V11.1019L7.81091 11.1572C7.79409 11.2094 7.75413 11.2507 7.70359 11.268L7.64999 11.277H5.70804C5.63299 11.277 5.56923 11.2269 5.54644 11.1573L5.5375 11.1019V9.31588C5.5375 9.23809 5.58635 9.17209 5.65411 9.14881L5.70801 9.13983H7.65044ZM10.3673 9.13983L10.4213 9.14907C10.4717 9.16672 10.5115 9.20821 10.528 9.26049L10.5364 9.31588V11.1019L10.5277 11.1572C10.5109 11.2094 10.471 11.2507 10.4204 11.268L10.3668 11.277H8.42486C8.34996 11.277 8.28638 11.2268 8.26393 11.1572L8.25527 11.1019V9.31539L8.26392 9.25957C8.28074 9.2074 8.32069 9.16613 8.37123 9.14876L8.42483 9.13983H10.3673ZM13.0515 9.13983L13.1054 9.14881C13.1562 9.16627 13.1964 9.20776 13.2133 9.26023L13.222 9.31588V11.1019C13.2216 11.1794 13.1727 11.2449 13.1052 11.2681L13.0515 11.277H11.1095C11.0346 11.277 10.971 11.2268 10.9486 11.1572L10.9399 11.1019V9.31539L10.9486 9.25957C10.9654 9.2074 11.0054 9.16613 11.0559 9.14876L11.1095 9.13983H13.0515ZM15.7598 9.13983L15.8137 9.14881C15.8645 9.16627 15.9047 9.20776 15.9216 9.26023L15.9303 9.31588V11.1019C15.9299 11.1794 15.881 11.2449 15.8135 11.2681L15.7598 11.277H13.8178C13.7429 11.277 13.6794 11.2268 13.6569 11.1572L13.6483 11.1019V9.31539L13.6569 9.25957C13.6737 9.2074 13.7137 9.16613 13.7642 9.14876L13.8178 9.13983H15.7598ZM7.64999 6.57042L7.70358 6.57935C7.75411 6.59671 7.79408 6.63797 7.8109 6.69015L7.81955 6.74549V8.53147C7.81955 8.60894 7.77105 8.67479 7.70364 8.6983L7.64999 8.70752H5.70804C5.63286 8.70709 5.56918 8.65677 5.54644 8.58699L5.53753 8.53147V6.74549C5.53795 6.668 5.5868 6.60245 5.65434 6.57933L5.70804 6.57042H7.64999ZM10.3668 6.57042L10.4204 6.57935C10.4709 6.59671 10.5109 6.63797 10.5277 6.69015L10.5364 6.74549V8.53147C10.5364 8.60894 10.4879 8.67479 10.4205 8.6983L10.3668 8.70752H8.42486C8.34983 8.70709 8.28633 8.65665 8.26393 8.58691L8.2553 8.53147V6.74549L8.26395 6.69016C8.28077 6.63799 8.32072 6.59672 8.37126 6.57935L8.42486 6.57042H10.3668ZM13.0515 6.57042C13.1265 6.57042 13.1903 6.62047 13.213 6.69009L13.222 6.74549V8.53147C13.2216 8.60909 13.1728 8.67485 13.1052 8.69832L13.0515 8.70752H11.1095C11.0345 8.70709 10.971 8.65665 10.9486 8.58691L10.9399 8.53147V6.74549L10.9486 6.69016C10.9654 6.63799 11.0054 6.59672 11.0559 6.57935L11.1095 6.57042H13.0515ZM13.0515 4C13.1265 4 13.1903 4.05005 13.213 4.11966L13.222 4.17507V5.96206C13.2216 6.03953 13.1727 6.10509 13.1052 6.12822L13.0515 6.13713H11.1095C11.0346 6.13713 10.971 6.08696 10.9486 6.01738L10.9399 5.96203V4.17507L10.9486 4.11972C10.9654 4.06754 11.0054 4.02629 11.0559 4.00892L11.1095 4H13.0515Z" fill="#2396ED"/>
</g>
</g>
</svg>
