<svg width="16" height="16" viewBox="0 0 16 16" fill="none" xmlns="http://www.w3.org/2000/svg">
<g id="size=16">
<path id="Path" d="M11 6.04947C13.7337 6.04947 15.95 8.26603 15.9502 10.9997C15.9502 13.7335 13.7338 15.9499 11 15.9499C8.26621 15.9498 6.0498 13.7335 6.0498 10.9997C6.05001 8.26605 8.26634 6.0495 11 6.04947ZM12.75 0.999664C13.4402 0.999664 13.9998 1.55947 14 2.24966V4.49966C14 4.91388 13.6642 5.24966 13.25 5.24966C12.8358 5.24966 12.5 4.91388 12.5 4.49966V2.49966H4.25C3.8359 2.49966 3.50018 2.83561 3.5 3.24966V10.1276C3.73455 10.0447 3.98708 9.99967 4.25 9.99966H4.5C4.91409 9.99967 5.24982 10.3356 5.25 10.7497C5.25 11.1639 4.91421 11.4997 4.5 11.4997H4.25C3.83582 11.4997 3.50018 11.8357 3.5 12.2497V12.7497C3.50022 13.1637 3.83593 13.4997 4.25 13.4997H5.25C5.6641 13.4997 5.99982 13.8356 6 14.2497C6 14.6639 5.66421 14.9997 5.25 14.9997H4.25C3.00736 14.9997 2 13.9923 2 12.7497V3.24966C2.00018 2.00718 3.00747 0.999664 4.25 0.999664H12.75ZM11 7.44986C9.03954 7.44989 7.45041 9.03925 7.4502 10.9997C7.4502 12.9603 9.03941 14.5494 11 14.5495C12.9606 14.5495 14.5498 12.9603 14.5498 10.9997C14.5496 9.03923 12.9605 7.44986 11 7.44986ZM11 8.40005C11.3313 8.40005 11.5994 8.66845 11.5996 8.99966V11.5514L12.3262 10.8249C12.5603 10.5913 12.9397 10.5914 13.1738 10.8249C13.4081 11.0591 13.408 11.4392 13.1738 11.6735L11.4238 13.4235C11.3113 13.536 11.1591 13.5993 11 13.5993C10.8409 13.5993 10.6887 13.536 10.5762 13.4235L8.82617 11.6735C8.59203 11.4392 8.59191 11.0591 8.82617 10.8249C9.06033 10.5913 9.43966 10.5914 9.67383 10.8249L10.4004 11.5514V8.99966C10.4006 8.66846 10.6688 8.40007 11 8.40005Z" fill="#000001"/>
</g>
</svg>
