<svg width="24" height="24" viewBox="0 0 24 24" fill="none" xmlns="http://www.w3.org/2000/svg">
<g id="size=24">
<g id="Path">
<path d="M3 3.75C3 2.23122 4.23122 1 5.75 1H19.25C20.2165 1 21 1.7835 21 2.75V9.25C21 9.66421 20.6642 10 20.25 10C19.8358 10 19.5 9.66421 19.5 9.25V2.75C19.5 2.61193 19.3881 2.5 19.25 2.5H5.75C5.05964 2.5 4.5 3.05964 4.5 3.75V17.7999C4.87503 17.6081 5.29989 17.5 5.75 17.5H7.25C7.66421 17.5 8 17.8358 8 18.25C8 18.6642 7.66421 19 7.25 19H5.75C5.05964 19 4.5 19.5596 4.5 20.25C4.5 20.9404 5.05964 21.5 5.75 21.5H8.75C9.16421 21.5 9.5 21.8358 9.5 22.25C9.5 22.6642 9.16421 23 8.75 23H5.75C4.23122 23 3 21.7688 3 20.25V3.75Z" fill="#000001"/>
<path d="M12.9697 17.2197C13.2626 16.9268 13.7374 16.9268 14.0303 17.2197L15.25 18.4393V13.75C15.25 13.3358 15.5858 13 16 13C16.4142 13 16.75 13.3358 16.75 13.75V18.4393L17.9697 17.2197C18.2626 16.9268 18.7374 16.9268 19.0303 17.2197C19.3232 17.5126 19.3232 17.9874 19.0303 18.2803L16.5303 20.7803C16.3839 20.9268 16.1919 21 16 21C15.8983 21 15.8013 20.9798 15.7129 20.9431C15.6245 20.9065 15.5416 20.8522 15.4697 20.7803L12.9697 18.2803C12.6768 17.9874 12.6768 17.5126 12.9697 17.2197Z" fill="#000001"/>
<path fill-rule="evenodd" clip-rule="evenodd" d="M16 10C12.134 10 9 13.134 9 17C9 20.866 12.134 24 16 24C19.866 24 23 20.866 23 17C23 13.134 19.866 10 16 10ZM10.5 17C10.5 13.9624 12.9624 11.5 16 11.5C19.0376 11.5 21.5 13.9624 21.5 17C21.5 20.0376 19.0376 22.5 16 22.5C12.9624 22.5 10.5 20.0376 10.5 17Z" fill="#000001"/>
</g>
</g>
</svg>
