<svg width="24" height="24" viewBox="0 0 24 24" fill="none" xmlns="http://www.w3.org/2000/svg">
<g id="size=24">
<path id="Path" d="M19.25 1C20.2165 1 21 1.7835 21 2.75V21.25C21 22.2165 20.2165 23 19.25 23H5.75C4.23122 23 3 21.7688 3 20.25V3.75C3 2.23122 4.23122 1 5.75 1H19.25ZM5.75 19C5.05964 19 4.5 19.5596 4.5 20.25C4.5 20.9404 5.05964 21.5 5.75 21.5H19.25C19.3881 21.5 19.5 21.3881 19.5 21.25V19H5.75ZM5.75 2.5C5.05964 2.5 4.5 3.05964 4.5 3.75V17.7998C4.87503 17.6081 5.2999 17.5 5.75 17.5H19.5V2.75C19.5 2.61193 19.3881 2.5 19.25 2.5H5.75Z" fill="#000001"/>
</g>
</svg>
