<svg width="16" height="16" viewBox="0 0 16 16" fill="none" xmlns="http://www.w3.org/2000/svg">
<g id="size=16">
<path id="Path" d="M11 6.0498C13.7338 6.0498 15.9502 8.26621 15.9502 11C15.9502 13.7338 13.7338 15.9502 11 15.9502C8.26621 15.9502 6.0498 13.7338 6.0498 11C6.04983 8.26623 8.26623 6.04983 11 6.0498ZM12.75 1C13.4404 1 14 1.55964 14 2.25V4.5C14 4.91421 13.6642 5.25 13.25 5.25C12.8358 5.25 12.5 4.91421 12.5 4.5V2.5H4.25C3.83579 2.5 3.5 2.83579 3.5 3.25V10.1279C3.73458 10.045 3.98704 10 4.25 10H4.5C4.91421 10 5.25 10.3358 5.25 10.75C5.25 11.1642 4.91421 11.5 4.5 11.5H4.25C3.83571 11.5 3.5 11.8359 3.5 12.25V12.75C3.50022 13.164 3.83593 13.5 4.25 13.5H5.25C5.66421 13.5 6 13.8358 6 14.25C6 14.6642 5.66421 15 5.25 15H4.25C3.00736 15 2 13.9926 2 12.75V3.25C2 2.00736 3.00736 1 4.25 1H12.75ZM11 7.4502C9.03943 7.45022 7.45022 9.03943 7.4502 11C7.4502 12.9606 9.03941 14.5498 11 14.5498C12.9606 14.5498 14.5498 12.9606 14.5498 11C14.5498 9.03941 12.9606 7.4502 11 7.4502ZM11 8.40039C11.3314 8.40039 11.5996 8.66863 11.5996 9V11.5518L12.3262 10.8252C12.5604 10.5915 12.9396 10.5915 13.1738 10.8252C13.4081 11.0595 13.4081 11.4395 13.1738 11.6738L11.4238 13.4238C11.3113 13.5363 11.1591 13.5996 11 13.5996C10.8409 13.5996 10.6887 13.5363 10.5762 13.4238L8.82617 11.6738C8.59186 11.4395 8.59186 11.0595 8.82617 10.8252C9.06037 10.5915 9.43962 10.5915 9.67383 10.8252L10.4004 11.5518V9C10.4004 8.66864 10.6686 8.4004 11 8.40039Z" fill="#000001"/>
</g>
</svg>
