<svg width="16" height="16" viewBox="0 0 16 16" fill="none" xmlns="http://www.w3.org/2000/svg">
<g id="size=16">
<g id="Path">
<path d="M2 3.25C2 2.00736 3.00736 1 4.25 1H12.75C13.4404 1 14 1.55964 14 2.25V4.5C14 4.91421 13.6642 5.25 13.25 5.25C12.8358 5.25 12.5 4.91421 12.5 4.5V2.5H4.25C3.83579 2.5 3.5 2.83579 3.5 3.25V10.128C3.73459 10.0451 3.98704 10 4.25001 10H4.49998C4.9142 10 5.24998 10.3358 5.24998 10.75C5.24998 11.1642 4.9142 11.5 4.49998 11.5H4.25001C3.83571 11.5 3.5 11.8358 3.5 12.2499V12.75C3.50022 13.164 3.83593 13.5 4.25 13.5H5.25C5.66421 13.5 6 13.8358 6 14.25C6 14.6642 5.66421 15 5.25 15H4.25C3.00736 15 2 13.9926 2 12.75V3.25Z" fill="#000001"/>
<path d="M8.82576 10.8256C9.06007 10.5913 9.43997 10.5913 9.67429 10.8256L10.4 11.5514V8.9999C10.4 8.66853 10.6687 8.3999 11 8.3999C11.3314 8.3999 11.6 8.66853 11.6 8.9999V11.5514L12.3258 10.8256C12.5601 10.5913 12.94 10.5913 13.1743 10.8256C13.4086 11.06 13.4086 11.4399 13.1743 11.6742L11.4243 13.4242C11.3118 13.5367 11.1592 13.5999 11 13.5999C10.8409 13.5999 10.6883 13.5367 10.5758 13.4242L8.82576 11.6742C8.59145 11.4399 8.59145 11.06 8.82576 10.8256Z" fill="#000001"/>
<path fill-rule="evenodd" clip-rule="evenodd" d="M11 6.05005C8.26624 6.05005 6.05005 8.26624 6.05005 11C6.05005 13.7339 8.26624 15.95 11 15.95C13.7339 15.95 15.95 13.7339 15.95 11C15.95 8.26624 13.7339 6.05005 11 6.05005ZM7.45005 11C7.45005 9.03944 9.03944 7.45005 11 7.45005C12.9607 7.45005 14.55 9.03944 14.55 11C14.55 12.9607 12.9607 14.55 11 14.55C9.03944 14.55 7.45005 12.9607 7.45005 11Z" fill="#000001"/>
</g>
</g>
</svg>
