<svg width="16" height="16" viewBox="0 0 16 16" fill="none" xmlns="http://www.w3.org/2000/svg">
<g id="size=16">
<path id="Path" d="M12.75 1C13.4404 1 14 1.55964 14 2.25V13.75C14 14.4404 13.4404 15 12.75 15H4.25C3.00736 15 2 13.9926 2 12.75V3.25C2 2.00736 3.00736 1 4.25 1H12.75ZM4.25 11.5C3.83571 11.5 3.5 11.8359 3.5 12.25V12.75C3.50019 13.1641 3.8359 13.5 4.25 13.5H12.5V11.5H4.25ZM4.25 2.5C3.83579 2.5 3.5 2.83579 3.5 3.25V10.1279C3.73458 10.045 3.98704 10 4.25 10H12.5V2.5H4.25Z" fill="#000001"/>
</g>
</svg>
