<svg width="16" height="16" viewBox="0 0 16 16" fill="none" xmlns="http://www.w3.org/2000/svg">
<g id="size=16">
<path id="Path" d="M7.75 0C8.16421 0 8.5 0.335786 8.5 0.75V2H11.75C12.1642 2 12.5 2.33579 12.5 2.75C12.5 3.16421 12.1642 3.5 11.75 3.5H8.5V7.25H9.59375C10.4943 7.25 11.3596 7.60348 11.999 8.23535C12.6388 8.86759 13 9.72701 13 10.625C13 11.523 12.6388 12.3824 11.999 13.0146C11.3596 13.6465 10.4943 14 9.59375 14H8.5V15.25C8.5 15.6642 8.16421 16 7.75 16C7.33579 16 7 15.6642 7 15.25V14H4.25C3.83579 14 3.5 13.6642 3.5 13.25C3.5 12.8358 3.83579 12.5 4.25 12.5H7V8.75H6.40625C5.50575 8.75 4.64043 8.39652 4.00098 7.76465C3.36122 7.13242 3 6.27299 3 5.375C3 4.47701 3.36122 3.61758 4.00098 2.98535C4.64043 2.35348 5.50575 2 6.40625 2H7V0.75C7 0.335786 7.33579 0 7.75 0ZM8.5 12.5H9.59375C10.1022 12.5 10.5875 12.2999 10.9443 11.9473C11.3009 11.5949 11.5 11.1194 11.5 10.625C11.5 10.1306 11.3009 9.65507 10.9443 9.30273C10.5875 8.95012 10.1022 8.75 9.59375 8.75H8.5V12.5ZM6.40625 3.5C5.89785 3.5 5.41249 3.70012 5.05566 4.05273C4.69914 4.40507 4.5 4.8806 4.5 5.375C4.5 5.8694 4.69914 6.34493 5.05566 6.69727C5.41249 7.04988 5.89785 7.25 6.40625 7.25H7V3.5H6.40625Z" fill="#000001"/>
</g>
</svg>
