<svg width="16" height="16" viewBox="0 0 16 16" fill="none" xmlns="http://www.w3.org/2000/svg">
<g id="size=16">
<path id="Path" d="M14.25 9C14.6642 9 15 9.33579 15 9.75V12.75C15 13.9926 13.9926 15 12.75 15H3.25C2.00736 15 1 13.9926 1 12.75V9.75C1 9.33579 1.33579 9 1.75 9C2.16421 9 2.5 9.33579 2.5 9.75V12.75C2.5 13.1642 2.83579 13.5 3.25 13.5H12.75C13.1642 13.5 13.5 13.1642 13.5 12.75V9.75C13.5 9.33579 13.8358 9 14.25 9ZM8 1C8.41421 1 8.75 1.33579 8.75 1.75V8.33984L10.7002 6.23926C10.9821 5.93583 11.4572 5.91838 11.7607 6.2002C12.0642 6.48206 12.0816 6.95725 11.7998 7.26074L8.5498 10.7607C8.53377 10.778 8.51645 10.794 8.49902 10.8096C8.37036 10.9244 8.20163 10.9959 8.0166 11H7.9834C7.7917 10.9957 7.6176 10.9191 7.4873 10.7969C7.47875 10.7888 7.47009 10.7809 7.46191 10.7725C7.45758 10.768 7.45344 10.7634 7.44922 10.7588L4.2002 7.26074C3.91838 6.95725 3.93583 6.48206 4.23926 6.2002C4.54275 5.91838 5.01794 5.93584 5.2998 6.23926L7.25 8.33984V1.75C7.25 1.33579 7.58579 1 8 1Z" fill="#000001"/>
</g>
</svg>
