<svg width="16" height="16" viewBox="0 0 16 16" fill="none" xmlns="http://www.w3.org/2000/svg">
<g id="size=16">
<g id="Path">
<path d="M8.75 1.75C8.75 1.33579 8.41421 1 8 1C7.58579 1 7.25 1.33579 7.25 1.75V8.3401L5.2996 6.23967C5.01775 5.93613 4.5432 5.91856 4.23966 6.20041C3.93613 6.48226 3.91856 6.95681 4.20041 7.26034L7.4488 10.7586C7.45311 10.7633 7.45748 10.7679 7.46191 10.7725C7.47009 10.7809 7.47846 10.7891 7.48702 10.7971C7.61732 10.9193 7.79128 10.9955 7.983 10.9998C7.98865 10.9999 7.99432 11 8 11C8.00568 11 8.01135 10.9999 8.01701 10.9998C8.20207 10.9957 8.3706 10.9245 8.49927 10.8097C8.51673 10.7941 8.53353 10.7776 8.5496 10.7603L11.7996 7.26034C12.0815 6.95681 12.0639 6.48226 11.7603 6.20041C11.4568 5.91856 10.9823 5.93613 10.7004 6.23967L8.75 8.3401V1.75Z" fill="#000001"/>
<path d="M1.75 9C2.16421 9 2.5 9.33579 2.5 9.75V12.75C2.5 13.1642 2.83579 13.5 3.25 13.5H12.75C13.1642 13.5 13.5 13.1642 13.5 12.75V9.75C13.5 9.33579 13.8358 9 14.25 9C14.6642 9 15 9.33579 15 9.75V12.75C15 13.9926 13.9926 15 12.75 15H3.25C2.00736 15 1 13.9926 1 12.75V9.75C1 9.33579 1.33579 9 1.75 9Z" fill="#000001"/>
</g>
</g>
</svg>
