<svg width="24" height="24" viewBox="0 0 24 24" fill="none" xmlns="http://www.w3.org/2000/svg">
<g id="size=24">
<path id="Path" d="M12 1C12.2056 1 12.4023 1.08432 12.5439 1.2334L18.541 7.54688C20.0662 9.18868 21 11.4053 21 13.8398C20.9999 18.8852 16.9841 23 12 23C7.01593 23 3.00005 18.8852 3 13.8398C3 11.4053 3.93472 9.18869 5.45996 7.54688L5.46484 7.54102L11.4561 1.2334C11.5977 1.08432 11.7944 1 12 1ZM6.55566 8.57129C5.28223 9.94354 4.5 11.7966 4.5 13.8398C4.50005 18.0841 7.87143 21.5 12 21.5C16.1286 21.5 19.4999 18.0841 19.5 13.8398C19.5 11.7966 18.7178 9.94354 17.4443 8.57129L12 2.83887L6.55566 8.57129Z" fill="#000001"/>
</g>
</svg>
