<svg width="16" height="16" viewBox="0 0 16 16" fill="none" xmlns="http://www.w3.org/2000/svg">
<g id="size=16">
<g id="Path">
<path d="M5.51267 8.12451H1V10.5H3.25867C4.46733 10.5 5.45433 9.44875 5.51267 8.12451Z" fill="#85C562"/>
<path d="M3.25867 5.5H1V7.87548H5.515C5.45433 6.55124 4.46733 5.5 3.25867 5.5Z" fill="#6BBF4E"/>
<path d="M12.7436 5.5C11.5349 5.5 10.5456 6.55364 10.4873 7.87548H14.9976C14.9416 6.55124 13.9523 5.5 12.7436 5.5Z" fill="#6BBF4E"/>
<path d="M15 8.12451H10.4873C10.5456 9.44875 11.5326 10.5 12.7436 10.5C13.9523 10.5 14.9416 9.44875 15 8.12451Z" fill="#85C562"/>
<path d="M5.74141 5.5V8C5.74141 9.3386 6.69107 10.433 7.88807 10.4976V5.5H5.74141Z" fill="#6BBF4E"/>
<path d="M10.2587 5.5H8.11433V10.5H10.2587V5.5Z" fill="#85C562"/>
</g>
</g>
</svg>
