<svg width="16" height="16" viewBox="0 0 16 16" fill="none" xmlns="http://www.w3.org/2000/svg">
<g id="size=16">
<path id="Path" d="M13.75 4C14.9926 4 16 5.00736 16 6.25V13.75C16 14.9926 14.9926 16 13.75 16H6.25C5.00736 16 4 14.9926 4 13.75V6.25C4 5.00736 5.00736 4 6.25 4H13.75ZM6.25 5.5C5.83579 5.5 5.5 5.83579 5.5 6.25V13.75C5.5 14.1642 5.83579 14.5 6.25 14.5H13.75C14.1642 14.5 14.5 14.1642 14.5 13.75V6.25C14.5 5.83579 14.1642 5.5 13.75 5.5H6.25ZM9.75 0C10.9926 0 12 1.00736 12 2.25V2.5C12 2.91421 11.6642 3.25 11.25 3.25C10.8358 3.25 10.5 2.91421 10.5 2.5V2.25C10.5 1.83579 10.1642 1.5 9.75 1.5H2.25C1.83579 1.5 1.5 1.83579 1.5 2.25V9.75C1.5 10.1642 1.83579 10.5 2.25 10.5H2.5C2.91421 10.5 3.25 10.8358 3.25 11.25C3.25 11.6642 2.91421 12 2.5 12H2.25C1.00736 12 0 10.9926 0 9.75V2.25C0 1.00736 1.00736 0 2.25 0H9.75Z" fill="#000001"/>
</g>
</svg>
