<svg width="24" height="24" viewBox="0 0 24 24" fill="none" xmlns="http://www.w3.org/2000/svg">
<g id="size=24">
<path id="Path" d="M20.25 7C21.7688 7 23 8.23122 23 9.75V20.25C23 21.7688 21.7688 23 20.25 23H9.75C8.23122 23 7 21.7688 7 20.25V9.75C7 8.23122 8.23122 7 9.75 7H20.25ZM9.75 8.5C9.05964 8.5 8.5 9.05964 8.5 9.75V20.25C8.5 20.9404 9.05964 21.5 9.75 21.5H20.25C20.9404 21.5 21.5 20.9404 21.5 20.25V9.75C21.5 9.05964 20.9404 8.5 20.25 8.5H9.75ZM14.25 1C15.7688 1 17 2.23122 17 3.75V4.75C17 5.16421 16.6642 5.5 16.25 5.5C15.8358 5.5 15.5 5.16421 15.5 4.75V3.75C15.5 3.05964 14.9404 2.5 14.25 2.5H3.75C3.05964 2.5 2.5 3.05964 2.5 3.75V14.25C2.5 14.9404 3.05964 15.5 3.75 15.5H4.75C5.16421 15.5 5.5 15.8358 5.5 16.25C5.5 16.6642 5.16421 17 4.75 17H3.75C2.23122 17 1 15.7688 1 14.25V3.75C1 2.23122 2.23122 1 3.75 1H14.25Z" fill="#000001"/>
</g>
</svg>
