<svg width="24" height="24" viewBox="0 0 24 24" fill="none" xmlns="http://www.w3.org/2000/svg">
<g id="size=24">
<path id="Path" fill-rule="evenodd" clip-rule="evenodd" d="M11 3.00043C11.4142 3.00043 11.75 3.33622 11.75 3.75043C11.7491 4.16386 11.4136 4.50043 11 4.50043H3.75C3.05964 4.50043 2.5 5.06008 2.5 5.75043V20.2504C2.50093 20.94 3.06022 21.5004 3.75 21.5004H18.25C18.9398 21.5004 19.4991 20.94 19.5 20.2504V13.0004C19.5 12.5862 19.8358 12.2504 20.25 12.2504C20.6642 12.2504 21 12.5862 21 13.0004V20.2504C20.9991 21.7684 19.7682 23.0004 18.25 23.0004H3.75C2.23179 23.0004 1.00093 21.7684 1 20.2504V5.75043C1 4.23165 2.23122 3.00043 3.75 3.00043H11ZM17.0557 2.88422C18.1296 1.81028 19.8704 1.81028 20.9443 2.88422L21.1162 3.05512C22.1895 4.12911 22.1899 5.87104 21.1162 6.94477L12.1113 15.9497C11.6566 16.4042 11.1135 16.7626 10.5166 17.0014L6.27832 18.6967C6.00033 18.8075 5.68167 18.742 5.46973 18.5307C5.25786 18.3188 5.19289 17.9994 5.30371 17.7211L6.99902 13.4838C7.23777 12.887 7.59536 12.3438 8.0498 11.8891L17.0557 2.88422ZM9.11133 12.9497C8.80048 13.2607 8.55495 13.6322 8.3916 14.0405L7.34668 16.6538L9.95898 15.6088C10.3673 15.4455 10.7388 15.1999 11.0498 14.8891L18.4395 7.50043L16.5 5.56098L9.11133 12.9497ZM19.8838 3.94477C19.3956 3.45661 18.6044 3.45661 18.1162 3.94477L17.5605 4.50043L19.5 6.43891L20.0557 5.88422C20.5436 5.39628 20.5432 4.60388 20.0557 4.11567L19.8838 3.94477Z" fill="#000001"/>
</g>
</svg>
