<svg width="16" height="16" viewBox="0 0 16 16" fill="none" xmlns="http://www.w3.org/2000/svg">
<g id="size=16">
<path id="Path" fill-rule="evenodd" clip-rule="evenodd" d="M6 1.99982C6.41397 1.99982 6.7496 2.33595 6.75 2.74982C6.74979 3.16385 6.41408 3.49982 6 3.49982H3.25C2.83604 3.49982 2.5004 3.83595 2.5 4.24982V13.7498C2.50021 14.1638 2.83592 14.4998 3.25 14.4998H12.75C13.1641 14.4998 13.4998 14.1638 13.5 13.7498V8.99982C13.5004 8.58595 13.836 8.24982 14.25 8.24982C14.664 8.24982 14.9996 8.58595 15 8.99982V13.7498C14.9998 14.9923 13.9925 15.9998 12.75 15.9998H3.25C2.00749 15.9998 1.00021 14.9923 1 13.7498V4.24982C1.0004 3.00752 2.00761 1.99982 3.25 1.99982H6ZM11.4365 1.00568C12.0577 0.265671 13.1611 0.169016 13.9014 0.789858L14.6045 1.3797C15.3442 2.00102 15.4402 3.1044 14.8193 3.84455L9.11523 10.6424C8.70192 11.1349 8.19298 11.539 7.61914 11.8289L5.04688 13.1277C4.77919 13.2629 4.45633 13.2257 4.22656 13.033C3.99708 12.8402 3.90472 12.529 3.99121 12.242L4.82324 9.48419C5.00916 8.86857 5.31908 8.29619 5.73242 7.80353L11.4365 1.00568ZM6.88086 8.7674C6.59822 9.10431 6.38698 9.49585 6.25977 9.91681L5.93262 10.9998L6.94238 10.4901C7.33507 10.2916 7.68396 10.0155 7.9668 9.67853L12.1729 4.66583L11.0908 3.7508L6.88086 8.7674ZM12.9375 1.93927C12.8318 1.85069 12.6737 1.86397 12.585 1.96955L12.0547 2.60236L13.1367 3.51642L13.6709 2.88068C13.7594 2.77497 13.7452 2.61687 13.6396 2.52814L12.9375 1.93927Z" fill="#000001"/>
</g>
</svg>
