<svg width="16" height="16" viewBox="0 0 16 16" fill="none" xmlns="http://www.w3.org/2000/svg">
<g id="size=16">
<path id="Path" d="M6 2C6.41401 2 6.74966 2.33607 6.75 2.75C6.74979 3.16403 6.41408 3.5 6 3.5H3.25C2.83599 3.5 2.50034 3.83607 2.5 4.25V13.75C2.50021 14.164 2.83592 14.5 3.25 14.5H12.75C13.1641 14.5 13.4998 14.164 13.5 13.75V9C13.5003 8.58607 13.836 8.25 14.25 8.25C14.664 8.25 14.9997 8.58607 15 9V13.75C14.9998 14.9925 13.9925 16 12.75 16H3.25C2.00749 16 1.00021 14.9925 1 13.75V4.25C1.00034 3.00765 2.00757 2 3.25 2H6ZM11.4365 1.00586C12.0577 0.265767 13.1611 0.169122 13.9014 0.790039L14.6045 1.37988C15.3442 2.00122 15.4403 3.10458 14.8193 3.84473L9.11523 10.6426C8.70191 11.1351 8.193 11.5391 7.61914 11.8291L5.04688 13.1279C4.77919 13.2631 4.45633 13.2259 4.22656 13.0332C3.99704 12.8404 3.90471 12.5292 3.99121 12.2422L4.82324 9.48438C5.00916 8.86871 5.31906 8.2964 5.73242 7.80371L11.4365 1.00586ZM6.88086 8.76758C6.59819 9.10452 6.38698 9.49599 6.25977 9.91699L5.93262 11L6.94238 10.4902C7.33509 10.2918 7.68395 10.0157 7.9668 9.67871L12.1729 4.66602L11.0908 3.75098L6.88086 8.76758ZM12.9375 1.93945C12.8318 1.8508 12.6737 1.86406 12.585 1.96973L12.0547 2.60254L13.1367 3.5166L13.6709 2.88086C13.7595 2.77516 13.7452 2.61707 13.6396 2.52832L12.9375 1.93945Z" fill="#000001"/>
</g>
</svg>
