<svg width="24" height="24" viewBox="0 0 24 24" fill="none" xmlns="http://www.w3.org/2000/svg">
<g id="size=24">
<g id="Path">
<path d="M21.25 3C21.6382 3 21.9575 3.29488 21.9961 3.67285L22 3.75V20.25C22 20.6642 21.6642 21 21.25 21C20.8358 21 20.5 20.6642 20.5 20.25V3.75L20.5039 3.67285C20.5425 3.29488 20.8618 3 21.25 3Z" fill="#000001"/>
<path d="M10.209 5.23047C10.4782 4.95056 10.9127 4.92466 11.2119 5.15918L11.2695 5.20898L17.7695 11.459C17.9166 11.6004 18 11.796 18 12C18 12.204 17.9166 12.3996 17.7695 12.541L11.2695 18.791L11.2119 18.8408C10.9127 19.0753 10.4782 19.0494 10.209 18.7695C9.94019 18.4896 9.93193 18.0553 10.1777 17.7656L10.2305 17.709L15.3867 12.75H2.75C2.33579 12.75 2 12.4142 2 12C2 11.5858 2.33579 11.25 2.75 11.25H15.3867L10.2305 6.29102L10.1777 6.23438C9.93193 5.94468 9.94019 5.51037 10.209 5.23047Z" fill="#000001"/>
</g>
</g>
</svg>
