<svg width="16" height="16" viewBox="0 0 16 16" fill="none" xmlns="http://www.w3.org/2000/svg">
<g id="size=16">
<path id="Path" d="M13.75 5.5C14.9926 5.5 16 6.50736 16 7.75V15.25C16 15.6642 15.6642 16 15.25 16C14.8358 16 14.5 15.6642 14.5 15.25V7.75C14.5 7.33579 14.1642 7 13.75 7H9.75C9.33579 7 9 7.33579 9 7.75V15.25C9 15.6642 8.66421 16 8.25 16C7.83579 16 7.5 15.6642 7.5 15.25V7.75C7.5 6.50736 8.50736 5.5 9.75 5.5H13.75ZM13.25 12C13.6642 12 14 12.3358 14 12.75V15.25C14 15.6642 13.6642 16 13.25 16C12.8358 16 12.5 15.6642 12.5 15.25V13.5H11V15.25C11 15.6642 10.6642 16 10.25 16C9.83579 16 9.5 15.6642 9.5 15.25V12.75C9.5 12.3358 9.83579 12 10.25 12H13.25ZM8 0C10.9047 0 13.447 1.54842 14.8477 3.86133C15.0622 4.21561 14.949 4.67702 14.5947 4.8916C14.2405 5.10612 13.7791 4.99283 13.5645 4.63867C12.7389 3.27536 11.428 2.24049 9.87207 1.77344C10.3689 2.45997 10.7847 3.19056 11.1133 3.95312C11.2771 4.33338 11.1018 4.77441 10.7217 4.93848C10.3413 5.1024 9.89927 4.92727 9.73535 4.54688C9.31798 3.57834 8.73537 2.6631 8 1.83594C6.66722 3.33499 5.83441 5.1237 5.58008 7H6.25C6.66421 7 7 7.33579 7 7.75C7 8.16421 6.66421 8.5 6.25 8.5H5.52637C5.63495 9.85585 6.0441 11.1747 6.72461 12.3828C6.9278 12.7437 6.80031 13.201 6.43945 13.4043C6.0787 13.6074 5.62133 13.4797 5.41797 13.1191C4.61409 11.692 4.13392 10.1211 4.02246 8.5H1.51855C1.72743 11.2452 3.64211 13.5156 6.20605 14.25C6.60418 14.364 6.83458 14.7786 6.7207 15.1768C6.60669 15.5748 6.19205 15.8052 5.79395 15.6914C2.44938 14.7336 0 11.6539 0 8C0 3.58172 3.58172 0 8 0ZM10.75 9.75C11.1642 9.75 11.5 10.0858 11.5 10.5C11.5 10.9142 11.1642 11.25 10.75 11.25H10.5C10.0858 11.25 9.75 10.9142 9.75 10.5C9.75 10.0858 10.0858 9.75 10.5 9.75H10.75ZM13 9.75C13.4142 9.75 13.75 10.0858 13.75 10.5C13.75 10.9142 13.4142 11.25 13 11.25H12.75C12.3358 11.25 12 10.9142 12 10.5C12 10.0858 12.3358 9.75 12.75 9.75H13ZM10.75 7.75C11.1642 7.75 11.5 8.08579 11.5 8.5C11.5 8.91421 11.1642 9.25 10.75 9.25H10.5C10.0858 9.25 9.75 8.91421 9.75 8.5C9.75 8.08579 10.0858 7.75 10.5 7.75H10.75ZM13 7.75C13.4142 7.75 13.75 8.08579 13.75 8.5C13.75 8.91421 13.4142 9.25 13 9.25H12.75C12.3358 9.25 12 8.91421 12 8.5C12 8.08579 12.3358 7.75 12.75 7.75H13ZM6.12793 1.77344C3.7604 2.48426 1.96086 4.50871 1.57617 7H4.06836C4.28603 5.12647 4.99679 3.3364 6.12793 1.77344Z" fill="#000001"/>
</g>
</svg>
