<svg width="24" height="24" viewBox="0 0 24 24" fill="none" xmlns="http://www.w3.org/2000/svg">
<g id="size=24">
<g id="Path">
<path d="M12 4.5C9.17829 4.5 6.71942 6.05795 5.43851 8.36416C5.23738 8.72627 4.7808 8.85678 4.41869 8.65566C4.05658 8.45453 3.92607 7.99794 4.1272 7.63584C5.66193 4.87265 8.61176 3 12 3C16.9706 3 21 7.02944 21 12C21 16.9706 16.9706 21 12 21C8.61176 21 5.66193 19.1274 4.1272 16.3642C3.92607 16.0021 4.05658 15.5455 4.41869 15.3443C4.7808 15.1432 5.23738 15.2737 5.43851 15.6358C6.71942 17.942 9.17829 19.5 12 19.5C16.1421 19.5 19.5 16.1421 19.5 12C19.5 7.85786 16.1421 4.5 12 4.5Z" fill="#000001"/>
<path d="M3 12C3 11.5858 3.33579 11.25 3.75 11.25H13.3636L10.235 8.29526C9.93389 8.01085 9.92033 7.53617 10.2047 7.23503C10.4891 6.9339 10.9638 6.92033 11.265 7.20474L15.765 11.4547C15.915 11.5964 16 11.7937 16 12C16 12.2063 15.915 12.4036 15.765 12.5453L11.265 16.7953C10.9638 17.0797 10.4891 17.0661 10.2047 16.765C9.92033 16.4638 9.93389 15.9892 10.235 15.7047L13.3636 12.75H3.75C3.33579 12.75 3 12.4142 3 12Z" fill="#000001"/>
</g>
</g>
</svg>
