<svg width="16" height="16" viewBox="0 0 16 16" fill="none" xmlns="http://www.w3.org/2000/svg">
<g id="size=16">
<path id="Path" d="M8 1C11.866 1.00002 15 4.13402 15 8C15 11.866 11.866 15 8 15C5.58589 15 3.45744 13.7774 2.2002 11.9209C1.96797 11.578 2.0575 11.1112 2.40039 10.8789C2.74332 10.6467 3.2101 10.7362 3.44238 11.0791C4.43247 12.5412 6.10433 13.5 8 13.5C11.0375 13.5 13.5 11.0376 13.5 8C13.5 4.96245 11.0375 2.50003 8 2.5C6.10433 2.5 4.43247 3.45877 3.44238 4.9209C3.2101 5.26376 2.74332 5.35331 2.40039 5.12109C2.0575 4.88882 1.96797 4.42204 2.2002 4.0791C3.45744 2.22264 5.58589 1 8 1ZM7.24512 4.69531C7.5515 4.41679 8.02602 4.43895 8.30469 4.74512L10.8047 7.49512C11.0647 7.78118 11.0647 8.21882 10.8047 8.50488L8.30469 11.2549C8.02602 11.5611 7.5515 11.5832 7.24512 11.3047C6.93895 11.026 6.91679 10.5515 7.19531 10.2451L8.55469 8.75H1.75C1.33579 8.75 1 8.41421 1 8C1 7.58579 1.33579 7.25 1.75 7.25H8.55469L7.19531 5.75488C6.91678 5.4485 6.93894 4.97398 7.24512 4.69531Z" fill="#000001"/>
</g>
</svg>
