<svg width="24" height="24" viewBox="0 0 24 24" fill="none" xmlns="http://www.w3.org/2000/svg">
<g id="size=24">
<path id="Path" d="M16.25 1.25C16.6642 1.25 17 1.58579 17 2V3H19.25C20.7688 3 22 4.23122 22 5.75V20.25C22 21.7688 20.7688 23 19.25 23H4.75C3.23122 23 2 21.7688 2 20.25V5.75C2 4.23122 3.23122 3 4.75 3H7V2C7 1.58579 7.33579 1.25 7.75 1.25C8.16421 1.25 8.5 1.58579 8.5 2V3H15.5V2C15.5 1.58579 15.8358 1.25 16.25 1.25ZM4.75 4.5C4.05964 4.5 3.5 5.05964 3.5 5.75V20.25C3.5 20.9404 4.05964 21.5 4.75 21.5H19.25C19.9404 21.5 20.5 20.9404 20.5 20.25V5.75C20.5 5.05964 19.9404 4.5 19.25 4.5H17V6C17 6.41421 16.6642 6.75 16.25 6.75C15.8358 6.75 15.5 6.41421 15.5 6V4.5H8.5V6C8.5 6.41421 8.16421 6.75 7.75 6.75C7.33579 6.75 7 6.41421 7 6V4.5H4.75ZM12 7.25C12.2855 7.25 12.5465 7.41199 12.6729 7.66797L14.1973 10.7578L17.6084 11.2568C17.8908 11.2981 18.1258 11.4961 18.2139 11.7676C18.3017 12.039 18.2278 12.3371 18.0234 12.5361L15.5557 14.9395L16.1387 18.334C16.1869 18.6153 16.0707 18.8996 15.8398 19.0674C15.6089 19.2352 15.3025 19.2579 15.0498 19.125L12 17.5205L8.9502 19.125C8.69751 19.2579 8.39114 19.2352 8.16016 19.0674C7.92933 18.8996 7.81308 18.6153 7.86133 18.334L8.44434 14.9395L5.97656 12.5361C5.77222 12.3371 5.69835 12.039 5.78613 11.7676C5.87416 11.4961 6.10919 11.2981 6.3916 11.2568L9.80273 10.7578L11.3271 7.66797C11.4535 7.412 11.7145 7.25001 12 7.25ZM10.9727 11.7754C10.8634 11.9962 10.653 12.1499 10.4092 12.1855L8.11133 12.5205L9.77344 14.1396C9.95031 14.3119 10.031 14.5603 9.98926 14.8037L9.59668 17.0898L11.6514 16.0098C11.8697 15.8951 12.1303 15.8951 12.3486 16.0098L14.4033 17.0898L14.0107 14.8037C13.969 14.5604 14.0497 14.3119 14.2266 14.1396L15.8887 12.5205L13.5908 12.1855C13.3471 12.1499 13.1365 11.9962 13.0273 11.7754L12 9.69434L10.9727 11.7754Z" fill="#000001"/>
</g>
</svg>
