<svg width="24" height="24" viewBox="0 0 24 24" fill="none" xmlns="http://www.w3.org/2000/svg">
<g id="size=24">
<path id="Path" d="M10 5C11.36 5 12.6316 5.38902 13.707 6.06152C14.058 6.28122 14.1648 6.74364 13.9453 7.09473C13.7257 7.44592 13.2623 7.55263 12.9111 7.33301C12.0673 6.80537 11.0705 6.5 10 6.5C6.96243 6.5 4.5 8.96243 4.5 12C4.5 15.0376 6.96243 17.5 10 17.5C11.0705 17.5 12.0673 17.1946 12.9111 16.667C13.2623 16.4474 13.7257 16.5541 13.9453 16.9053C14.1648 17.2564 14.058 17.7188 13.707 17.9385C12.6316 18.611 11.36 19 10 19C6.13401 19 3 15.866 3 12C3 8.13401 6.13401 5 10 5ZM16.2051 7.23535C16.4895 6.93421 16.9635 6.92067 17.2646 7.20508L21.7627 11.4531C21.9085 11.59 22 11.7842 22 12C22 12.1999 21.9214 12.3812 21.7939 12.5156C21.7841 12.526 21.7741 12.5361 21.7637 12.5459L17.2646 16.7949C16.9635 17.0793 16.4895 17.0658 16.2051 16.7646C15.9207 16.4635 15.9342 15.9895 16.2354 15.7051L19.3633 12.75H9.75C9.33579 12.75 9 12.4142 9 12C9 11.5858 9.33579 11.25 9.75 11.25H19.3633L16.2354 8.29492C15.9342 8.01051 15.9207 7.53649 16.2051 7.23535Z" fill="#000001"/>
</g>
</svg>
