<svg width="24" height="24" viewBox="0 0 24 24" fill="none" xmlns="http://www.w3.org/2000/svg">
<g id="size=24">
<g id="Path">
<path d="M3 12C3 8.13401 6.13401 5 10 5C11.36 5 12.6314 5.38857 13.7069 6.06107C14.0581 6.28069 14.1647 6.74343 13.9451 7.09462C13.7255 7.44582 13.2628 7.55249 12.9116 7.33287C12.0676 6.80514 11.0706 6.5 10 6.5C6.96243 6.5 4.5 8.96243 4.5 12C4.5 15.0376 6.96243 17.5 10 17.5C11.0706 17.5 12.0676 17.1949 12.9116 16.6671C13.2628 16.4475 13.7255 16.5542 13.9451 16.9054C14.1647 17.2566 14.0581 17.7193 13.7069 17.9389C12.6314 18.6114 11.36 19 10 19C6.13401 19 3 15.866 3 12Z" fill="#000001"/>
<path d="M9 12C9 11.5858 9.33579 11.25 9.75 11.25H19.3636L16.235 8.29526C15.9339 8.01085 15.9203 7.53617 16.2047 7.23503C16.4891 6.9339 16.9638 6.92033 17.265 7.20474L21.7631 11.4529C21.9089 11.5898 22 11.7842 22 12C22 12.1999 21.9218 12.3816 21.7943 12.516C21.7844 12.5264 21.7743 12.5365 21.7638 12.5463L17.265 16.7953C16.9638 17.0797 16.4891 17.0661 16.2047 16.765C15.9203 16.4638 15.9339 15.9892 16.235 15.7047L19.3636 12.75H9.75C9.33579 12.75 9 12.4142 9 12Z" fill="#000001"/>
</g>
</g>
</svg>
