<svg width="16" height="16" viewBox="0 0 16 16" fill="none" xmlns="http://www.w3.org/2000/svg">
<g id="size=16">
<path id="Path" d="M7 2C7.89631 2 8.74896 2.19696 9.51465 2.55078C9.89036 2.72454 10.0543 3.17005 9.88086 3.5459C9.70711 3.92191 9.26077 4.08586 8.88477 3.91211C8.31241 3.64771 7.67446 3.5 7 3.5C4.51472 3.5 2.5 5.51472 2.5 8C2.5 10.4853 4.51472 12.5 7 12.5C7.67446 12.5 8.31241 12.3523 8.88477 12.0879C9.26077 11.9141 9.70711 12.0781 9.88086 12.4541C10.0543 12.8299 9.89036 13.2755 9.51465 13.4492C8.74896 13.803 7.89631 14 7 14C3.68629 14 1 11.3137 1 8C1 4.68629 3.68629 2 7 2ZM11.2451 4.69531C11.5515 4.41679 12.026 4.43895 12.3047 4.74512L14.8027 7.49316C14.9252 7.62665 15 7.80457 15 8C15 8.00846 15.0003 8.01693 15 8.02539C14.9938 8.21009 14.92 8.37837 14.8037 8.50586L12.3047 11.2549C12.026 11.5611 11.5515 11.5832 11.2451 11.3047C10.9389 11.026 10.9168 10.5515 11.1953 10.2451L12.5547 8.75H6.75C6.33579 8.75 6 8.41421 6 8C6 7.58579 6.33579 7.25 6.75 7.25H12.5547L11.1953 5.75488C10.9168 5.4485 10.9389 4.97398 11.2451 4.69531Z" fill="#000001"/>
</g>
</svg>
