<svg width="16" height="16" viewBox="0 0 16 16" fill="none" xmlns="http://www.w3.org/2000/svg">
<g id="size=16">
<path id="Path" d="M7.25 2C7.66421 2 8 2.33579 8 2.75C8 3.16421 7.66421 3.5 7.25 3.5H3.25C2.83579 3.5 2.5 3.83579 2.5 4.25V11.75C2.5 12.1642 2.83579 12.5 3.25 12.5H10.75C11.1642 12.5 11.5 12.1642 11.5 11.75V7.75C11.5 7.33579 11.8358 7 12.25 7C12.6642 7 13 7.33579 13 7.75V11.75C13 12.9926 11.9926 14 10.75 14H3.25C2.00736 14 1 12.9926 1 11.75V4.25C1 3.00736 2.00736 2 3.25 2H7.25ZM14.25 0C14.4561 0 14.6428 0.0831963 14.7783 0.217773L14.7822 0.22168C14.8532 0.293132 14.9071 0.375233 14.9434 0.462891C14.98 0.5513 15 0.648337 15 0.75V5.25C15 5.66421 14.6642 6 14.25 6C13.8358 6 13.5 5.66421 13.5 5.25V2.56055L7.28027 8.78027C6.98738 9.07317 6.51262 9.07317 6.21973 8.78027C5.92683 8.48738 5.92683 8.01262 6.21973 7.71973L12.4395 1.5H9.75C9.33579 1.5 9 1.16421 9 0.75C9 0.335786 9.33579 0 9.75 0H14.25Z" fill="#000001"/>
</g>
</svg>
