<svg width="24" height="24" viewBox="0 0 24 24" fill="none" xmlns="http://www.w3.org/2000/svg">
<g id="size=24">
<path id="Path" d="M11.25 4C11.6642 4 12 4.33579 12 4.75C12 5.16421 11.6642 5.5 11.25 5.5H4.75C4.05964 5.5 3.5 6.05964 3.5 6.75V18.25C3.5 18.9404 4.05964 19.5 4.75 19.5H16.25C16.9404 19.5 17.5 18.9404 17.5 18.25V11.75C17.5 11.3358 17.8358 11 18.25 11C18.6642 11 19 11.3358 19 11.75V18.25C19 19.7688 17.7688 21 16.25 21H4.75C3.23122 21 2 19.7688 2 18.25V6.75C2 5.23122 3.23122 4 4.75 4H11.25ZM21.25 1C21.3517 1 21.4487 1.01999 21.5371 1.05664C21.6256 1.09324 21.7084 1.14782 21.7803 1.21973C21.8522 1.29163 21.9068 1.37443 21.9434 1.46289C21.9753 1.53991 21.9945 1.62349 21.999 1.71094C21.9997 1.72372 22 1.73706 22 1.75V7.25C22 7.66421 21.6642 8 21.25 8C20.8358 8 20.5 7.66421 20.5 7.25V3.56055L10.2803 13.7803C9.98738 14.0732 9.51262 14.0732 9.21973 13.7803C8.92683 13.4874 8.92683 13.0126 9.21973 12.7197L19.4395 2.5H15.75C15.3358 2.5 15 2.16421 15 1.75C15 1.33579 15.3358 1 15.75 1H21.25Z" fill="#000001"/>
</g>
</svg>
