<svg width="16" height="16" viewBox="0 0 16 16" fill="none" xmlns="http://www.w3.org/2000/svg">
<g id="size=16">
<path id="Path" d="M8 2C10.5777 2.00003 12.5703 3.32118 13.8877 4.65039C14.5494 5.31807 15.0581 6.00404 15.4043 6.56445C15.577 6.84412 15.7146 7.10006 15.8115 7.31445C15.8597 7.42112 15.902 7.52688 15.9336 7.625C15.9592 7.70459 16 7.84563 16 8C16 8.15437 15.9592 8.29541 15.9336 8.375C15.902 8.47312 15.8597 8.57888 15.8115 8.68555C15.7146 8.89994 15.577 9.15588 15.4043 9.43555C15.0581 9.99596 14.5494 10.6819 13.8877 11.3496C12.5703 12.6788 10.5777 14 8 14C5.42232 14 3.42972 12.6788 2.1123 11.3496C1.45057 10.6819 0.941903 9.99597 0.595703 9.43555C0.422964 9.15588 0.285386 8.89995 0.188477 8.68555C0.140269 8.57888 0.0980127 8.47312 0.0664062 8.375C0.0407912 8.29542 0 8.15438 0 8C0 7.84561 0.0407912 7.70458 0.0664062 7.625C0.0980127 7.52688 0.140269 7.42112 0.188477 7.31445C0.285386 7.10005 0.422964 6.84412 0.595703 6.56445C0.941903 6.00403 1.45057 5.31807 2.1123 4.65039C3.42972 3.32118 5.42232 2 8 2ZM8 3.5C5.96415 3.5 4.3319 4.54159 3.17773 5.70605C2.60374 6.2852 2.16435 6.8794 1.87207 7.35254C1.72578 7.58936 1.62089 7.7883 1.55566 7.93262C1.54432 7.95772 1.53457 7.9802 1.52637 8C1.53457 8.0198 1.54432 8.04228 1.55566 8.06738C1.62089 8.2117 1.72578 8.41064 1.87207 8.64746C2.16435 9.1206 2.60374 9.7148 3.17773 10.2939C4.3319 11.4584 5.96415 12.5 8 12.5C10.0358 12.5 11.6681 11.4584 12.8223 10.2939C13.3963 9.7148 13.8357 9.1206 14.1279 8.64746C14.2742 8.41064 14.3791 8.2117 14.4443 8.06738C14.4557 8.04228 14.4654 8.0198 14.4736 8C14.4654 7.9802 14.4557 7.95772 14.4443 7.93262C14.3791 7.7883 14.2742 7.58936 14.1279 7.35254C13.8357 6.8794 13.3963 6.2852 12.8223 5.70605C11.6681 4.54159 10.0358 3.50003 8 3.5ZM8 5C9.65682 5.00005 11 6.34317 11 8C11 9.65683 9.65682 11 8 11C6.34315 11 5 9.65685 5 8C5 6.34315 6.34315 5 8 5ZM8 6.5C7.17157 6.5 6.5 7.17157 6.5 8C6.5 8.82843 7.17157 9.5 8 9.5C8.82839 9.49995 9.5 8.8284 9.5 8C9.5 7.1716 8.82839 6.50005 8 6.5Z" fill="#000001"/>
</g>
</svg>
