<svg width="24" height="24" viewBox="0 0 24 24" fill="none" xmlns="http://www.w3.org/2000/svg">
<g id="size=24">
<path id="Path" fill-rule="evenodd" clip-rule="evenodd" d="M1.2197 1.21993C1.51257 0.927067 1.98733 0.927112 2.28023 1.21993L22.7798 21.7195C23.0725 22.0124 23.0726 22.4872 22.7798 22.78C22.4869 23.0723 22.012 23.0725 21.7193 22.78L18.0797 19.1405C16.4001 20.2186 14.3604 20.9998 11.9998 20.9998C8.13574 20.9997 5.14042 18.9122 3.14935 16.8378C2.14932 15.7958 1.3829 14.7373 0.86424 13.9023C0.60506 13.485 0.403858 13.1166 0.264643 12.8281C0.195568 12.6849 0.137046 12.5528 0.0947246 12.4394C0.0738055 12.3833 0.0531877 12.3227 0.0371086 12.2627C0.0244754 12.2154 9.64787e-05 12.1157 0 12C0 11.8584 0.0382122 11.732 0.0546864 11.6787C0.0777511 11.6041 0.107784 11.5243 0.140622 11.4453C0.20709 11.2856 0.300708 11.0902 0.416984 10.8711C0.650659 10.4309 0.99235 9.8631 1.43649 9.23637C2.2035 8.15417 3.29383 6.86925 4.6874 5.74816L1.2197 2.28046C0.927066 1.98775 0.927389 1.51284 1.2197 1.21993ZM5.75477 6.8165C4.43647 7.85123 3.39364 9.06857 2.6601 10.1035C2.2514 10.6803 1.94424 11.1935 1.74215 11.5742C1.64762 11.7524 1.57825 11.8966 1.53415 12C1.5547 12.0481 1.58177 12.1075 1.6152 12.1767C1.72761 12.4097 1.90191 12.7307 2.13765 13.1103C2.6097 13.8703 3.31421 14.8431 4.23136 15.7987C6.07529 17.7199 8.70558 19.4997 11.9998 19.4998C13.8904 19.4998 15.5601 18.9148 16.9909 18.0516L14.2507 15.3114C13.6085 15.7492 12.8341 15.9999 11.9998 15.9999C9.79106 15.9997 8.00018 14.2087 7.99984 12C7.99984 11.1657 8.25059 10.3912 8.6883 9.74905L5.75477 6.8165ZM11.9998 3.00017C15.8641 3.00017 18.859 5.08762 20.8502 7.16219C21.8503 8.20429 22.6166 9.26265 23.1353 10.0977C23.3945 10.515 23.5957 10.8834 23.7349 11.1719C23.8039 11.3151 23.8625 11.4472 23.9048 11.5605C23.9257 11.6166 23.9464 11.6773 23.9624 11.7373C23.9751 11.7849 23.9995 11.8844 23.9995 12C23.9994 12.171 23.9429 12.3318 23.9204 12.3955C23.886 12.4932 23.8396 12.6045 23.7856 12.7217C23.6767 12.9581 23.5204 13.2573 23.3208 13.5966C22.9207 14.2768 22.3309 15.1479 21.5621 16.0507C21.2935 16.3654 20.8196 16.4029 20.5045 16.1347C20.1897 15.8663 20.1518 15.3933 20.4195 15.078C21.1274 14.2468 21.668 13.4476 22.0279 12.8359C22.2077 12.5301 22.3396 12.2764 22.4234 12.0947C22.4395 12.0597 22.4537 12.0274 22.4654 12C22.4448 11.9518 22.4178 11.8926 22.3843 11.8232C22.2719 11.5902 22.0978 11.2687 21.8619 10.8887C21.3898 10.1287 20.6853 9.1569 19.7682 8.20124C17.9241 6.2799 15.2942 4.50014 11.9998 4.50014C11.1867 4.50017 10.4165 4.60842 9.69023 4.79896C9.29002 4.90364 8.87962 4.66381 8.77424 4.26382C8.66919 3.86339 8.90914 3.45321 9.30938 3.34782C10.1541 3.12621 11.0524 3.00021 11.9998 3.00017ZM9.78007 10.8408C9.60078 11.1849 9.49981 11.578 9.49981 12C9.50015 13.3802 10.6195 14.4997 11.9998 14.4999C12.4216 14.4999 12.8149 14.3998 13.1589 14.2206L9.78007 10.8408Z" fill="#000001"/>
</g>
</svg>
