<svg width="24" height="24" viewBox="0 0 24 24" fill="none" xmlns="http://www.w3.org/2000/svg">
<g id="size=24">
<path id="Path" fill-rule="evenodd" clip-rule="evenodd" d="M1.21973 1.2201C1.51262 0.927212 1.98738 0.927212 2.28027 1.2201L22.7803 21.7201C23.0727 22.013 23.073 22.4879 22.7803 22.7807C22.4875 23.0731 22.0126 23.0729 21.7197 22.7807L18.0801 19.141C16.4004 20.2192 14.3608 21.0003 12 21.0004C8.13588 21.0004 5.14059 18.9127 3.14941 16.8383C2.14947 15.7964 1.38293 14.7377 0.864258 13.9027C0.605168 13.4856 0.40386 13.117 0.264648 12.8285C0.195631 12.6854 0.137041 12.5531 0.0947266 12.4398C0.0738361 12.3838 0.0531789 12.323 0.0371094 12.2631C0.0244801 12.2158 0.000112349 12.1161 0 12.0004C0 11.8587 0.0382231 11.7324 0.0546875 11.6791C0.0777633 11.6045 0.107768 11.5247 0.140625 11.4457C0.20711 11.2859 0.300677 11.0907 0.416992 10.8715C0.650697 10.4312 0.992302 9.86353 1.43652 9.23671C2.2036 8.15441 3.29376 6.86959 4.6875 5.74843L1.21973 2.28065C0.92694 1.98787 0.927153 1.51302 1.21973 1.2201ZM5.75488 6.81678C4.43642 7.85159 3.39376 9.06882 2.66016 10.1039C2.25138 10.6807 1.94431 11.1938 1.74219 11.5746C1.64761 11.7528 1.57829 11.897 1.53418 12.0004C1.55472 12.0485 1.58188 12.108 1.61523 12.1771C1.72765 12.4101 1.90205 12.7313 2.1377 13.1107C2.60976 13.8707 3.31439 14.8437 4.23145 15.7992C6.07547 17.7204 8.70573 19.5004 12 19.5004C13.8907 19.5003 15.5603 18.9155 16.9912 18.0521L14.251 15.3119C13.6088 15.7497 12.8344 16.0003 12 16.0004C9.79111 16.0004 8.0004 14.2092 8 12.0004C8.00001 11.166 8.25068 10.3916 8.68848 9.7494L5.75488 6.81678ZM12 3.00038C15.8644 3.00044 18.8594 5.08788 20.8506 7.16249C21.8506 8.20451 22.6171 9.26306 23.1357 10.098C23.3948 10.5153 23.5962 10.8838 23.7354 11.1723C23.8044 11.3153 23.863 11.4477 23.9053 11.5609C23.9261 11.6169 23.9469 11.6778 23.9629 11.7377C23.9756 11.7854 24 11.885 24 12.0004C23.9998 12.1713 23.9433 12.3322 23.9209 12.3959C23.8864 12.4936 23.8401 12.6049 23.7861 12.7221C23.6772 12.9585 23.521 13.2576 23.3213 13.5971C22.9211 14.2773 22.3314 15.1483 21.5625 16.0512C21.294 16.366 20.8201 16.4032 20.5049 16.1351C20.19 15.8667 20.152 15.3938 20.4199 15.0785C21.1279 14.2472 21.6684 13.4481 22.0283 12.8363C22.2082 12.5305 22.3401 12.2769 22.4238 12.0951C22.44 12.06 22.4541 12.0278 22.4658 12.0004C22.4453 11.9523 22.4181 11.8928 22.3848 11.8236C22.2724 11.5906 22.0982 11.2689 21.8623 10.8891C21.3903 10.1291 20.6856 9.15714 19.7686 8.20155C17.9245 6.28018 15.2945 4.50044 12 4.50038C11.1868 4.50038 10.4169 4.60864 9.69043 4.79921C9.29015 4.90416 8.87995 4.66406 8.77441 4.26405C8.66932 3.86347 8.90905 3.45323 9.30957 3.34803C10.1544 3.1264 11.0525 3.00038 12 3.00038ZM9.78027 10.8412C9.60093 11.1854 9.50001 11.5783 9.5 12.0004C9.5004 13.3807 10.6195 14.5004 12 14.5004C12.4219 14.5004 12.8151 14.4004 13.1592 14.2211L9.78027 10.8412Z" fill="#000001"/>
</g>
</svg>
