<svg width="24" height="24" viewBox="0 0 24 24" fill="none" xmlns="http://www.w3.org/2000/svg">
<g id="size=24">
<path id="Path" d="M12 3C15.8644 3 18.8594 5.08748 20.8506 7.16211C21.8508 8.20427 22.6171 9.26256 23.1357 10.0977C23.395 10.5151 23.5961 10.8833 23.7354 11.1719C23.8045 11.3152 23.8629 11.4471 23.9053 11.5605C23.9262 11.6168 23.9468 11.6771 23.9629 11.7373C23.9756 11.7847 24 11.884 24 12C24 12.116 23.9756 12.2153 23.9629 12.2627C23.9468 12.3229 23.9262 12.3832 23.9053 12.4395C23.8629 12.5529 23.8045 12.6848 23.7354 12.8281C23.5961 13.1167 23.395 13.4849 23.1357 13.9023C22.6171 14.7374 21.8508 15.7957 20.8506 16.8379C18.8594 18.9125 15.8644 21 12 21C8.13557 21 5.14059 18.9125 3.14941 16.8379C2.14921 15.7957 1.38294 14.7374 0.864258 13.9023C0.604967 13.4849 0.403872 13.1167 0.264648 12.8281C0.195496 12.6848 0.137057 12.5529 0.0947266 12.4395C0.0737569 12.3832 0.0532033 12.3229 0.0371094 12.2627C0.0244466 12.2153 0 12.116 0 12C0 11.884 0.0244466 11.7847 0.0371094 11.7373C0.0532033 11.6771 0.0737569 11.6168 0.0947266 11.5605C0.137057 11.4471 0.195496 11.3152 0.264648 11.1719C0.403872 10.8833 0.604967 10.5151 0.864258 10.0977C1.38294 9.26256 2.14921 8.20427 3.14941 7.16211C5.14059 5.08748 8.13557 3 12 3ZM12 4.5C8.70546 4.5 6.0755 6.27977 4.23145 8.20117C3.3142 9.15691 2.60976 10.1286 2.1377 10.8887C1.90163 11.2687 1.7277 11.5901 1.61523 11.8232C1.58171 11.8927 1.55475 11.9518 1.53418 12C1.55475 12.0482 1.58171 12.1073 1.61523 12.1768C1.7277 12.4099 1.90163 12.7313 2.1377 13.1113C2.60976 13.8714 3.3142 14.8431 4.23145 15.7988C6.0755 17.7202 8.70546 19.5 12 19.5C15.2945 19.5 17.9245 17.7202 19.7686 15.7988C20.6858 14.8431 21.3902 13.8714 21.8623 13.1113C22.0984 12.7313 22.2723 12.4099 22.3848 12.1768C22.4183 12.1073 22.4452 12.0482 22.4658 12C22.4452 11.9518 22.4183 11.8927 22.3848 11.8232C22.2723 11.5901 22.0984 11.2687 21.8623 10.8887C21.3902 10.1286 20.6858 9.15691 19.7686 8.20117C17.9245 6.27977 15.2945 4.5 12 4.5ZM12 8C14.2091 8 16 9.79086 16 12C16 14.2091 14.2091 16 12 16C9.79086 16 8 14.2091 8 12C8 9.79086 9.79086 8 12 8ZM12 9.5C10.6193 9.5 9.5 10.6193 9.5 12C9.5 13.3807 10.6193 14.5 12 14.5C13.3807 14.5 14.5 13.3807 14.5 12C14.5 10.6193 13.3807 9.5 12 9.5Z" fill="#000001"/>
</g>
</svg>
