<svg width="24" height="24" viewBox="0 0 24 24" fill="none" xmlns="http://www.w3.org/2000/svg">
<g id="size=24">
<g id="Path">
<path fill-rule="evenodd" clip-rule="evenodd" d="M12 8C9.79086 8 8 9.79086 8 12C8 14.2091 9.79086 16 12 16C14.2091 16 16 14.2091 16 12C16 9.79086 14.2091 8 12 8ZM9.5 12C9.5 10.6193 10.6193 9.5 12 9.5C13.3807 9.5 14.5 10.6193 14.5 12C14.5 13.3807 13.3807 14.5 12 14.5C10.6193 14.5 9.5 13.3807 9.5 12Z" fill="#000001"/>
<path fill-rule="evenodd" clip-rule="evenodd" d="M12 3C8.13545 3 5.14041 5.08762 3.14923 7.16231C2.14896 8.20454 1.38263 9.26258 0.863949 10.0977C0.604657 10.5152 0.403496 10.883 0.264273 11.1716C0.195098 11.3149 0.137367 11.4467 0.0950257 11.5602C0.0739976 11.6165 0.0535592 11.6768 0.0374227 11.7372C0.0247759 11.7845 0 11.8838 0 12C0 12.1162 0.0247759 12.2155 0.0374227 12.2628C0.0535592 12.3232 0.0739976 12.3835 0.0950257 12.4398C0.137367 12.5533 0.195098 12.6851 0.264273 12.8284C0.403496 13.117 0.604657 13.4848 0.863949 13.9023C1.38263 14.7374 2.14896 15.7955 3.14923 16.8377C5.14041 18.9124 8.13545 21 12 21C15.8645 21 18.8596 18.9124 20.8508 16.8377C21.851 15.7955 22.6174 14.7374 23.1361 13.9023C23.3953 13.4848 23.5965 13.117 23.7357 12.8284C23.8049 12.6851 23.8626 12.5533 23.905 12.4398C23.926 12.3835 23.9464 12.3232 23.9626 12.2628C23.9752 12.2155 24 12.1162 24 12C24 11.8838 23.9752 11.7845 23.9626 11.7372C23.9464 11.6768 23.926 11.6165 23.905 11.5602C23.8626 11.4467 23.8049 11.3149 23.7357 11.1716C23.5965 10.883 23.3953 10.5152 23.1361 10.0977C22.6174 9.26258 21.851 8.20454 20.8508 7.16231C18.8596 5.08762 15.8645 3 12 3ZM1.61525 12.1766C1.58174 12.1072 1.55504 12.0482 1.53447 12C1.55504 11.9518 1.58174 11.8928 1.61525 11.8234C1.72772 11.5903 1.90209 11.2692 2.13818 10.8891C2.61027 10.129 3.31411 9.15678 4.23145 8.20097C6.0755 6.27957 8.70546 4.5 12 4.5C15.2945 4.5 17.9245 6.27957 19.7685 8.20097C20.6859 9.15678 21.3897 10.129 21.8618 10.8891C22.0979 11.2692 22.2723 11.5903 22.3847 11.8234C22.4183 11.8928 22.445 11.9518 22.4655 12C22.445 12.0482 22.4183 12.1072 22.3847 12.1766C22.2723 12.4097 22.0979 12.7308 21.8618 13.1109C21.3897 13.871 20.6859 14.8432 19.7685 15.799C17.9245 17.7204 15.2945 19.5 12 19.5C8.70546 19.5 6.0755 17.7204 4.23145 15.799C3.31411 14.8432 2.61027 13.871 2.13818 13.1109C1.90209 12.7308 1.72772 12.4097 1.61525 12.1766Z" fill="#000001"/>
</g>
</g>
</svg>
