<svg width="16" height="16" viewBox="0 0 16 16" fill="none" xmlns="http://www.w3.org/2000/svg">
<g id="size=16">
<path id="Path" d="M13.7772 4.04766C13.6914 4.40228 13.6465 4.76978 13.5636 5.14568C12.5136 5.00946 11.2805 4.90964 9.8956 4.86092C9.78444 5.21246 9.67916 5.55658 9.55876 5.9322C11.8765 6.07472 13.0028 6.68554 13.6708 7.40528C14.3206 8.13328 14.4585 8.93757 14.421 9.68433C14.3374 10.898 13.8023 11.6651 13.068 12.2337C12.3249 12.7937 11.4259 13.0715 10.7069 13.132C9.64584 13.2114 8.22708 12.9588 7.92524 12.774C7.74324 12.3604 7.56446 11.9438 7.37168 11.4894C7.32478 11.3926 7.29524 11.2934 7.42768 11.1781C7.63404 10.9803 7.83256 10.7889 8.04144 10.5862C8.1337 10.4961 8.23604 10.4121 8.3136 10.5413C8.59892 10.9813 8.86632 11.3851 9.13414 11.7873C9.43836 12.236 9.90176 12.6449 10.9141 12.5769C11.7652 12.5007 12.4121 11.857 12.4811 11.1489C12.5556 9.83847 11.2298 8.90887 7.78216 8.61109C8.4438 6.614 9.0885 4.68102 9.60426 3.1448C10.4233 3.1826 11.1814 3.24938 11.9056 3.3429C12.4412 3.41108 12.9389 3.53582 13.438 3.5935C12.1548 2.01164 10.1963 1 8 1C4.13418 1 1.00001 4.13404 1.00001 8C0.997919 9.49298 1.47549 10.9471 2.36235 12.1482C2.65886 12.1504 2.86438 12.0842 2.88664 11.9564C2.9138 11.8227 2.89098 11.6158 2.8676 11.407C2.7276 10.0334 2.67819 8.55019 2.73083 7.06396C2.37579 7.07936 2.05715 7.09532 1.75167 7.11324C1.76399 6.83842 1.77883 6.57802 1.80095 6.30698C2.10265 6.278 2.42227 6.25266 2.77338 6.22298C2.78836 5.98624 2.80531 5.75706 2.82574 5.52564C2.98338 4.108 4.47606 3.24112 5.7194 2.90652C6.27114 2.77212 6.60854 2.7297 6.87342 2.71584C6.96918 2.71276 7.07236 2.70898 7.17512 2.70898C7.43286 2.70898 7.69438 2.73306 7.86 2.84562C8.12824 3.04666 8.39326 3.24672 8.67508 3.46918C8.70308 3.50726 8.73388 3.56718 8.66388 3.67008C8.53452 3.82142 8.40964 3.96604 8.27818 4.12172C8.20244 4.2137 8.07672 4.18948 7.97088 4.16078C7.74912 4.04724 7.53576 3.94294 7.31932 3.83808C6.92732 3.66364 6.52132 3.48416 6.06954 3.50208C5.78772 3.52462 5.51486 3.81302 5.48658 4.20754C5.44752 4.80786 5.42134 5.4233 5.39922 6.08998C6.18252 6.068 6.964 6.054 7.7879 6.05036C7.7879 6.23782 7.78664 6.40974 7.78664 6.60182C7.51784 6.72194 7.26444 6.84332 6.99508 6.96582C6.43928 6.97226 5.91036 6.9766 5.37766 6.98584C5.35302 8.57189 5.3764 10.1521 5.44766 11.613C5.46166 11.8335 5.4723 12.0568 5.53572 12.2063C5.61174 12.3945 6.04896 12.5395 7.00012 12.5931C7.0039 12.7587 7.00852 12.9151 7.01412 13.0756C5.4653 13.0305 3.97808 12.8822 2.78613 12.6677C4.06698 14.0988 5.928 15 8 15C11.8661 15 15 11.8658 15 8C15.002 6.58913 14.5756 5.21089 13.7772 4.04766Z" fill="#000001"/>
</g>
</svg>
