<svg width="16" height="16" viewBox="0 0 16 16" fill="none" xmlns="http://www.w3.org/2000/svg">
<g id="size=16">
<g id="Group">
<path id="Vector" d="M13.7772 4.04766C13.6914 4.40228 13.6465 4.76978 13.5636 5.14568C12.5136 5.00946 11.2805 4.90964 9.8956 4.86092C9.78444 5.21246 9.67916 5.55658 9.55876 5.9322C11.8765 6.07472 13.0028 6.68554 13.6708 7.40528C14.3206 8.13328 14.4585 8.93757 14.421 9.68433C14.3374 10.898 13.8023 11.6651 13.068 12.2337C12.3249 12.7937 11.4259 13.0715 10.7069 13.132C9.64584 13.2114 8.22708 12.9588 7.92524 12.774C7.74324 12.3604 7.56446 11.9438 7.37168 11.4894C7.32478 11.3926 7.29524 11.2934 7.42768 11.1781C7.63404 10.9803 7.83256 10.7889 8.04144 10.5862C8.1337 10.4961 8.23604 10.4121 8.3136 10.5413C8.59892 10.9813 8.86632 11.3851 9.13414 11.7873C9.43836 12.236 9.90176 12.6449 10.9141 12.5769C11.7652 12.5007 12.4121 11.857 12.4811 11.1489C12.5556 9.83847 11.2298 8.90887 7.78216 8.61109C8.4438 6.614 9.0885 4.68102 9.60426 3.1448C10.4233 3.1826 11.1814 3.24938 11.9056 3.3429C12.4412 3.41108 12.9389 3.53582 13.438 3.5935C12.1548 2.01164 10.1963 1 8 1C4.13418 1 1.00001 4.13404 1.00001 8C0.997919 9.49298 1.47549 10.9471 2.36235 12.1482C2.65887 12.1504 2.86438 12.0842 2.88664 11.9564C2.9138 11.8227 2.89098 11.6158 2.8676 11.407C2.7276 10.0334 2.67819 8.55019 2.73083 7.06396C2.37579 7.07936 2.05715 7.09532 1.75167 7.11324C1.76399 6.83842 1.77883 6.57802 1.80095 6.30698C2.10265 6.278 2.42227 6.25266 2.77338 6.22298C2.78837 5.98624 2.80531 5.75706 2.82574 5.52564C2.98338 4.108 4.47606 3.24112 5.7194 2.90652C6.27114 2.77212 6.60854 2.7297 6.87342 2.71584C6.96918 2.71276 7.07236 2.70898 7.17512 2.70898C7.43286 2.70898 7.69438 2.73306 7.86 2.84562C8.12824 3.04666 8.39326 3.24672 8.67508 3.46918C8.70308 3.50726 8.73388 3.56718 8.66388 3.67008C8.53452 3.82142 8.40964 3.96604 8.27818 4.12172C8.20244 4.2137 8.07672 4.18948 7.97088 4.16078C7.74912 4.04724 7.53576 3.94294 7.31932 3.83808C6.92732 3.66364 6.52132 3.48416 6.06954 3.50208C5.78772 3.52462 5.51486 3.81302 5.48658 4.20754C5.44752 4.80786 5.42134 5.4233 5.39922 6.08998C6.18252 6.068 6.964 6.054 7.7879 6.05036C7.7879 6.23782 7.78664 6.40974 7.78664 6.60182C7.51784 6.72194 7.26444 6.84332 6.99508 6.96582C6.43928 6.97226 5.91036 6.9766 5.37766 6.98584C5.35302 8.57189 5.3764 10.1521 5.44766 11.613C5.46166 11.8335 5.4723 12.0568 5.53572 12.2063C5.61174 12.3945 6.04896 12.5395 7.00012 12.5931C7.0039 12.7587 7.00852 12.9151 7.01412 13.0756C5.4653 13.0305 3.97808 12.8822 2.78613 12.6677C4.06698 14.0988 5.928 15 8 15C11.8661 15 15 11.8658 15 8C15.002 6.58913 14.5756 5.21089 13.7772 4.04766Z" fill="#E4002B"/>
<path id="Vector_2" d="M14.4207 9.68431C14.4582 8.93755 14.3203 8.13311 13.6705 7.40525C13.0027 6.68551 11.8762 6.07525 9.55845 5.93217C9.67885 5.55655 9.78413 5.21243 9.89529 4.86089C11.2813 4.90961 12.5141 5.00943 13.5633 5.14565C13.6462 4.76975 13.6911 4.40225 13.7769 4.04763C13.6704 3.89186 13.5576 3.74048 13.4384 3.59348C12.9393 3.5358 12.4416 3.41148 11.906 3.34288C11.1818 3.24936 10.4237 3.18258 9.60465 3.14478C9.08889 4.68099 8.44419 6.61397 7.78283 8.61177C11.2305 8.90997 12.5563 9.83915 12.4818 11.15C12.4131 11.8579 11.7658 12.5017 10.9148 12.578C9.90243 12.646 9.43903 12.2371 9.13481 11.7884C8.86685 11.3854 8.59959 10.9817 8.31427 10.5424C8.23671 10.4132 8.13437 10.4972 8.04211 10.5873C7.83323 10.79 7.63471 10.9814 7.42835 11.1792C7.29563 11.2946 7.32517 11.3937 7.37235 11.4904C7.56513 11.9449 7.74461 12.3615 7.92591 12.7751C8.22775 12.96 9.64651 13.2126 10.7076 13.1332C11.4266 13.0727 12.3256 12.7947 13.0687 12.235C13.8027 11.665 14.3378 10.898 14.4207 9.68431Z" fill="white"/>
<path id="Vector_3" d="M2.36263 12.1482C2.49535 12.3283 2.63629 12.5015 2.78543 12.6681C3.97809 12.8825 5.46531 13.0308 7.01413 13.0759C7.00895 12.9152 7.00433 12.7591 7.00013 12.5934C6.04897 12.5398 5.61175 12.3948 5.53573 12.2066C5.47231 12.0571 5.46125 11.8338 5.44767 11.6133C5.37627 10.1524 5.35289 8.57222 5.37767 6.98616C5.90967 6.97692 6.43929 6.97216 6.99509 6.96614C7.26445 6.84336 7.51785 6.72198 7.78665 6.60214C7.78665 6.41006 7.78791 6.23814 7.78791 6.05068C6.96429 6.05404 6.18281 6.06804 5.39951 6.08974C5.42163 5.42306 5.44781 4.80762 5.48687 4.2073C5.51487 3.81278 5.78801 3.52438 6.06983 3.50184C6.52147 3.4842 6.92705 3.66368 7.31961 3.83784C7.53605 3.9427 7.74941 4.047 7.97117 4.16054C8.07701 4.18854 8.20273 4.21346 8.27847 4.12148C8.40993 3.9658 8.53481 3.82118 8.66417 3.66984C8.73417 3.56638 8.70393 3.50702 8.67523 3.46894C8.39355 3.24648 8.12853 3.04642 7.86029 2.84538C7.69467 2.73338 7.43315 2.70874 7.17541 2.70874C7.07265 2.70874 6.96947 2.71252 6.87371 2.7156C6.60883 2.7296 6.27171 2.7716 5.71969 2.90628C4.47635 3.24116 2.98367 4.10804 2.82589 5.52582C2.80559 5.75724 2.78865 5.98642 2.77367 6.22316C2.42255 6.2527 2.10293 6.27804 1.80123 6.30716C1.77911 6.5782 1.76427 6.83916 1.75195 7.11342C2.05743 7.0955 2.37607 7.07954 2.73111 7.06414C2.67847 8.55038 2.72831 10.0335 2.86789 11.4072C2.89127 11.616 2.91409 11.8229 2.88693 11.9566C2.86467 12.0843 2.65915 12.1505 2.36263 12.1482Z" fill="white"/>
</g>
</g>
</svg>
