<svg width="24" height="24" viewBox="0 0 24 24" fill="none" xmlns="http://www.w3.org/2000/svg">
<g id="size=24">
<g id="Group 227">
<path id="Vector" d="M23 12C23 5.92422 18.0758 1 12 1C5.92422 1 1 5.92422 1 12C1 17.4914 5.02187 22.0418 10.2812 22.8668V15.1797H7.48828V12H10.2812V9.57656C10.2812 6.82012 11.9227 5.29688 14.4363 5.29688C15.6395 5.29688 16.8984 5.51172 16.8984 5.51172V8.21875H15.5105C14.1441 8.21875 13.7188 9.06738 13.7188 9.9375V12H16.7695L16.2818 15.1797H13.7188V22.8668C18.9781 22.0418 23 17.4914 23 12Z" fill="#1877F2"/>
<path id="Vector_2" d="M16.2818 15.1797L16.7695 12H13.7188V9.9375C13.7188 9.06738 14.1441 8.21875 15.5105 8.21875H16.8984V5.51172C16.8984 5.51172 15.6395 5.29688 14.4363 5.29688C11.9227 5.29688 10.2812 6.82012 10.2812 9.57656V12H7.48828V15.1797H10.2812V22.8668C10.842 22.9549 11.4156 23 12 23C12.5844 23 13.158 22.9549 13.7188 22.8668V15.1797H16.2818Z" fill="white"/>
</g>
</g>
</svg>
