<svg width="16" height="16" viewBox="0 0 16 16" fill="none" xmlns="http://www.w3.org/2000/svg">
<g id="size=16">
<g id="Group 228">
<path id="Vector" d="M15 8C15 4.13359 11.8664 1 8 1C4.13359 1 1 4.13359 1 8C1 11.4945 3.55938 14.3902 6.90625 14.9152V10.0234H5.12891V8H6.90625V6.45781C6.90625 4.70371 7.95078 3.73438 9.55039 3.73438C10.316 3.73438 11.1172 3.87109 11.1172 3.87109V5.59375H10.234C9.36445 5.59375 9.09375 6.13379 9.09375 6.6875V8H11.0352L10.7248 10.0234H9.09375V14.9152C12.4406 14.3902 15 11.4945 15 8Z" fill="#1877F2"/>
<path id="Vector_2" d="M10.7247 10.0234L11.035 8H9.09363V6.6875C9.09363 6.13379 9.36433 5.59375 10.2339 5.59375H11.1171V3.87109C11.1171 3.87109 10.3159 3.73438 9.55027 3.73438C7.95066 3.73438 6.90613 4.70371 6.90613 6.45781V8H5.12878V10.0234H6.90613V14.9152C7.26296 14.9713 7.628 15 7.99988 15C8.37175 15 8.73679 14.9713 9.09363 14.9152V10.0234H10.7247Z" fill="white"/>
</g>
</g>
</svg>
