<svg width="16" height="16" viewBox="0 0 16 16" fill="none" xmlns="http://www.w3.org/2000/svg">
<g id="size=16">
<g id="Path">
<path d="M8.55 7.99997C8.55 6.71133 9.56854 5.66664 10.825 5.66664C12.0814 5.66664 13.1 6.71133 13.1 7.99997C13.1 9.28865 12.0814 10.3333 10.825 10.3333C9.56854 10.3333 8.55 9.28865 8.55 7.99997Z" fill="#1ABCFE"/>
<path d="M4 12.6667C4 11.378 5.01855 10.3333 6.275 10.3333H8.55V12.6667C8.55 13.9553 7.53146 15 6.275 15C5.01855 15 4 13.9553 4 12.6667Z" fill="#0ACF83"/>
<path d="M8.55 1V5.66666L10.825 5.66664C12.0815 5.66664 13.1 4.622 13.1 3.33333C13.1 2.04467 12.0815 1 10.825 1H8.55Z" fill="#FF7262"/>
<path d="M4 3.33334C4 4.622 5.01855 5.66666 6.275 5.66666L8.55 5.66666V1H6.275C5.01855 1 4 2.04467 4 3.33334Z" fill="#F24E1E"/>
<path d="M4 7.99997C4 9.28865 5.01855 10.3333 6.275 10.3333H8.55L8.55 5.66666L6.275 5.66666C5.01855 5.66666 4 6.71133 4 7.99997Z" fill="#A259FF"/>
</g>
</g>
</svg>
