<svg width="24" height="24" viewBox="0 0 24 24" fill="none" xmlns="http://www.w3.org/2000/svg">
<g id="size=24">
<g id="Group">
<path id="Vector" d="M12.5 12C12.5 10.159 13.9551 8.66663 15.75 8.66663C17.5449 8.66663 19 10.159 19 12C19 13.8409 17.5449 15.3333 15.75 15.3333C13.9551 15.3333 12.5 13.8409 12.5 12Z" fill="#1ABCFE"/>
<path id="Vector_2" d="M6 18.6667C6 16.8258 7.45507 15.3334 9.25 15.3334H12.5V18.6667C12.5 20.5077 11.0449 22 9.25 22C7.45507 22 6 20.5077 6 18.6667Z" fill="#0ACF83"/>
<path id="Vector_3" d="M12.5 2V8.66665H15.75C17.5449 8.66665 19 7.17428 19 5.33333C19 3.49239 17.5449 2 15.75 2H12.5Z" fill="#FF7262"/>
<path id="Vector_4" d="M6 5.33334C6 7.17428 7.45507 8.66665 9.25 8.66665H12.5V2H9.25C7.45507 2 6 3.49238 6 5.33334Z" fill="#F24E1E"/>
<path id="Vector_5" d="M6 12C6 13.8409 7.45507 15.3333 9.25 15.3333H12.5V8.66663H9.25C7.45507 8.66663 6 10.159 6 12Z" fill="#A259FF"/>
</g>
</g>
</svg>
