<svg width="24" height="24" viewBox="0 0 24 24" fill="none" xmlns="http://www.w3.org/2000/svg">
<g id="size=24">
<g id="Path">
<path d="M12.5 12C12.5 10.159 13.9551 8.66663 15.75 8.66663C17.5449 8.66663 19 10.159 19 12C19 13.8409 17.5449 15.3333 15.75 15.3333C13.9551 15.3333 12.5 13.8409 12.5 12Z" fill="#1ABCFE"/>
<path d="M6 18.6667C6 16.8257 7.45507 15.3333 9.25 15.3333H12.5V18.6667C12.5 20.5076 11.0449 22 9.25 22C7.45507 22 6 20.5076 6 18.6667Z" fill="#0ACF83"/>
<path d="M12.5 2V8.66665L15.75 8.66663C17.545 8.66663 19 7.17428 19 5.33333C19 3.49239 17.545 2 15.75 2H12.5Z" fill="#FF7262"/>
<path d="M6 5.33334C6 7.17428 7.45507 8.66665 9.25 8.66665L12.5 8.66665V2H9.25C7.45507 2 6 3.49238 6 5.33334Z" fill="#F24E1E"/>
<path d="M6 12C6 13.8409 7.45507 15.3333 9.25 15.3333H12.5L12.5 8.66665L9.25 8.66665C7.45507 8.66665 6 10.159 6 12Z" fill="#A259FF"/>
</g>
</g>
</svg>
