<svg width="16" height="16" viewBox="0 0 16 16" fill="none" xmlns="http://www.w3.org/2000/svg">
<g id="size=16">
<g id="Group">
<path id="Vector" d="M8.55005 7.99996C8.55005 6.71132 9.56859 5.66663 10.8251 5.66663C12.0815 5.66663 13.1001 6.71132 13.1001 7.99996C13.1001 9.28864 12.0815 10.3333 10.8251 10.3333C9.56859 10.3333 8.55005 9.28864 8.55005 7.99996Z" fill="#1ABCFE"/>
<path id="Vector_2" d="M4 12.6667C4 11.3781 5.01855 10.3334 6.275 10.3334H8.55V12.6667C8.55 13.9554 7.53146 15 6.275 15C5.01855 15 4 13.9554 4 12.6667Z" fill="#0ACF83"/>
<path id="Vector_3" d="M8.55005 1V5.66666H10.8251C12.0815 5.66666 13.1001 4.622 13.1001 3.33333C13.1001 2.04467 12.0815 1 10.8251 1H8.55005Z" fill="#FF7262"/>
<path id="Vector_4" d="M4 3.33334C4 4.622 5.01855 5.66666 6.275 5.66666H8.55V1H6.275C5.01855 1 4 2.04467 4 3.33334Z" fill="#F24E1E"/>
<path id="Vector_5" d="M4 7.99996C4 9.28864 5.01855 10.3333 6.275 10.3333H8.55V5.66663H6.275C5.01855 5.66663 4 6.71132 4 7.99996Z" fill="#A259FF"/>
</g>
</g>
</svg>
