<svg width="16" height="16" viewBox="0 0 16 16" fill="none" xmlns="http://www.w3.org/2000/svg">
<g id="size=16">
<path id="Path" fill-rule="evenodd" clip-rule="evenodd" d="M3 3.61932C3 2.17271 4.20487 1 5.69115 1H10.3088C11.7951 1 13 2.17271 13 3.61932C13 4.53534 12.5169 5.34152 11.7852 5.80969C12.5169 6.27786 13 7.08404 13 8.00005C13 9.44667 11.7951 10.6194 10.3088 10.6194H10.2504C9.55362 10.6194 8.91869 10.3616 8.44076 9.93878V12.3522C8.44076 13.8181 7.2044 15 5.70567 15C4.22308 15 3 13.8309 3 12.3807C3 11.4647 3.48305 10.6585 4.21474 10.1904C3.48305 9.72219 3 8.91603 3 8.00005C3 7.08404 3.4831 6.27786 4.21483 5.80969C3.4831 5.34152 3 4.53534 3 3.61932ZM7.55924 6.23872H5.69115C4.69171 6.23872 3.88151 7.02729 3.88151 8.00005C3.88151 8.96912 4.68556 9.75539 5.67975 9.76136C5.68355 9.76135 5.68735 9.76134 5.69115 9.76134H7.55924V6.23872ZM8.44076 8.00005C8.44076 8.97282 9.25096 9.7614 10.2504 9.7614H10.3088C11.3083 9.7614 12.1185 8.97282 12.1185 8.00005C12.1185 7.02729 11.3083 6.23872 10.3088 6.23872H10.2504C9.25096 6.23872 8.44076 7.02729 8.44076 8.00005ZM5.69115 10.6194C5.68735 10.6194 5.68355 10.6194 5.67975 10.6194C4.68556 10.6253 3.88151 11.4116 3.88151 12.3807C3.88151 13.3499 4.70254 14.142 5.70567 14.142C6.72494 14.142 7.55924 13.3371 7.55924 12.3522V10.6194H5.69115ZM5.69115 1.85799H7.55924V5.38067H5.69115C4.69171 5.38067 3.88151 4.59209 3.88151 3.61932C3.88151 2.64657 4.69171 1.85799 5.69115 1.85799ZM8.44076 5.38067V1.85799H10.3088C11.3083 1.85799 12.1185 2.64657 12.1185 3.61932C12.1185 4.59209 11.3083 5.38067 10.3088 5.38067H8.44076Z" fill="#000001"/>
</g>
</svg>
