<svg width="24" height="24" viewBox="0 0 24 24" fill="none" xmlns="http://www.w3.org/2000/svg">
<g id="size=24">
<path id="Path" fill-rule="evenodd" clip-rule="evenodd" d="M5 5.74189C5 3.6753 6.68682 2 8.76761 2H15.2324C17.3132 2 19 3.6753 19 5.74189C19 7.05048 18.3237 8.20217 17.2992 8.87099C18.3237 9.5398 19 10.6915 19 12.0001C19 14.0667 17.3132 15.742 15.2324 15.742H15.1506C14.1751 15.742 13.2862 15.3738 12.6171 14.7697V18.2175C12.6171 20.3116 10.8862 22 8.78794 22C6.71232 22 5 20.3298 5 18.2581C5 16.9496 5.67628 15.7979 6.70064 15.1291C5.67628 14.4603 5 13.3086 5 12.0001C5 10.6915 5.67633 9.5398 6.70077 8.87099C5.67633 8.20217 5 7.05048 5 5.74189ZM11.3829 9.48388H8.76761C7.3684 9.48388 6.23412 10.6104 6.23412 12.0001C6.23412 13.3845 7.35978 14.5077 8.75165 14.5162C8.75697 14.5162 8.76229 14.5162 8.76761 14.5162H11.3829V9.48388ZM12.6171 12.0001C12.6171 13.3897 13.7513 14.5163 15.1506 14.5163H15.2324C16.6316 14.5163 17.7659 13.3897 17.7659 12.0001C17.7659 10.6104 16.6316 9.48388 15.2324 9.48388H15.1506C13.7513 9.48388 12.6171 10.6104 12.6171 12.0001ZM8.76761 15.742C8.76229 15.742 8.75697 15.742 8.75166 15.7419C7.35979 15.7505 6.23412 16.8737 6.23412 18.2581C6.23412 19.6426 7.38355 20.7743 8.78794 20.7743C10.2149 20.7743 11.3829 19.6244 11.3829 18.2175V15.742H8.76761ZM8.76761 3.22569H11.3829V8.2581H8.76761C7.3684 8.2581 6.23412 7.13156 6.23412 5.74189C6.23412 4.35224 7.3684 3.22569 8.76761 3.22569ZM12.6171 8.2581V3.22569H15.2324C16.6316 3.22569 17.7659 4.35224 17.7659 5.74189C17.7659 7.13156 16.6316 8.2581 15.2324 8.2581H12.6171Z" fill="#000001"/>
</g>
</svg>
