<svg width="24" height="24" viewBox="0 0 24 24" fill="none" xmlns="http://www.w3.org/2000/svg">
<g id="size=24">
<g id="Path">
<path fill-rule="evenodd" clip-rule="evenodd" d="M5.75 2.5C5.05964 2.5 4.5 3.05964 4.5 3.75V20.25C4.5 20.9404 5.05964 21.5 5.75 21.5H11C11.4142 21.5 11.75 21.8358 11.75 22.25C11.75 22.6642 11.4142 23 11 23H5.75C4.23122 23 3 21.7688 3 20.25V3.75C3 2.23122 4.23122 1 5.75 1H13.3358C13.7999 1 14.245 1.18437 14.5732 1.51256L20.4874 7.42678C20.8156 7.75497 21 8.20008 21 8.66421V13C21 13.4142 20.6642 13.75 20.25 13.75C19.8358 13.75 19.5 13.4142 19.5 13V9H13.75C13.3358 9 13 8.66421 13 8.25V2.5H5.75ZM14.5 3.56066L18.4393 7.5H14.5V3.56066Z" fill="#000001"/>
<path fill-rule="evenodd" clip-rule="evenodd" d="M22 19C22 21.7614 19.7614 24 17 24C14.2386 24 12 21.7614 12 19C12 16.2386 14.2386 14 17 14C19.7614 14 22 16.2386 22 19ZM20.1212 16.9697C20.4141 17.2626 20.4141 17.7374 20.1212 18.0303L16.6212 21.5303C16.4806 21.671 16.2898 21.75 16.0909 21.75C15.892 21.75 15.7012 21.671 15.5606 21.5303L13.9697 19.9394C13.6768 19.6465 13.6768 19.1717 13.9697 18.8788C14.2626 18.5859 14.7374 18.5859 15.0303 18.8788L16.0909 19.9393L19.0606 16.9697C19.3535 16.6768 19.8283 16.6768 20.1212 16.9697Z" fill="#000001"/>
</g>
</g>
</svg>
