<svg width="16" height="16" viewBox="0 0 16 16" fill="none" xmlns="http://www.w3.org/2000/svg">
<g id="size=16">
<path id="Path" d="M9.54277 0C9.87417 1.99456e-05 10.1922 0.131912 10.4265 0.366203L14.6335 4.57315C14.8678 4.80746 14.9996 5.12555 14.9997 5.45692V13.7497C14.9997 14.9923 13.9923 15.9997 12.7497 15.9997H3.24993C2.00732 15.9997 0.999979 14.9923 0.999979 13.7497V2.24995C1.00016 1.0075 2.00743 0 3.24993 0H9.54277ZM3.24993 1.49997C2.83584 1.49997 2.50013 1.83591 2.49995 2.24995V13.7497C2.49995 14.1639 2.83573 14.4997 3.24993 14.4997H12.7497C13.1639 14.4997 13.4997 14.1639 13.4997 13.7497V5.99987H9.7498C9.33559 5.99987 8.99981 5.66409 8.99981 5.24989V1.49997H3.24993ZM7.74984 6.99985C8.16393 6.99985 8.49964 7.33579 8.49982 7.74984V8.99981H9.7498C10.1639 8.99981 10.4996 9.33575 10.4998 9.7498C10.4998 10.164 10.164 10.4998 9.7498 10.4998H8.49982V11.7498C8.49982 12.164 8.16404 12.4997 7.74984 12.4997C7.33563 12.4997 6.99985 12.164 6.99985 11.7498V10.4998H5.74988C5.33567 10.4998 4.9999 10.164 4.9999 9.7498C5.00008 9.33575 5.33579 8.99981 5.74988 8.99981H6.99985V7.74984C7.00004 7.33579 7.33575 6.99985 7.74984 6.99985ZM10.4998 4.49991H12.4392L10.4998 2.56049V4.49991Z" fill="#000001"/>
</g>
</svg>
