<svg width="16" height="16" viewBox="0 0 16 16" fill="none" xmlns="http://www.w3.org/2000/svg">
<g id="size=16">
<path id="Path" d="M9.54297 0C9.87446 1.99508e-05 10.1924 0.131808 10.4268 0.366211L14.6338 4.57324C14.8682 4.80765 15 5.12554 15 5.45703V13.75C15 14.9926 13.9926 16 12.75 16H3.25C2.00736 16 1 14.9926 1 13.75V2.25C1 1.00736 2.00736 0 3.25 0H9.54297ZM3.25 1.5C2.83579 1.5 2.5 1.83579 2.5 2.25V13.75C2.5 14.1642 2.83579 14.5 3.25 14.5H12.75C13.1642 14.5 13.5 14.1642 13.5 13.75V6H9.75C9.33579 6 9 5.66421 9 5.25V1.5H3.25ZM6.33887 7.7793C6.59865 7.55239 6.99352 7.57923 7.2207 7.83887C7.44762 8.09865 7.42077 8.49352 7.16113 8.7207L5.69922 10L7.16113 11.2793C7.42077 11.5065 7.44761 11.9014 7.2207 12.1611C6.99352 12.4208 6.59865 12.4476 6.33887 12.2207L4.33887 10.4707C4.20323 10.352 4.125 10.1802 4.125 10C4.125 9.81978 4.20323 9.64797 4.33887 9.5293L6.33887 7.7793ZM8.7793 7.83887C9.00648 7.57923 9.40135 7.55239 9.66113 7.7793L11.6611 9.5293C11.7968 9.64797 11.875 9.81978 11.875 10C11.875 10.1802 11.7968 10.352 11.6611 10.4707L9.66113 12.2207C9.40135 12.4476 9.00648 12.4208 8.7793 12.1611C8.55239 11.9014 8.57923 11.5065 8.83887 11.2793L10.3008 10L8.83887 8.7207C8.57923 8.49352 8.55238 8.09865 8.7793 7.83887ZM10.5 4.5H12.4395L10.5 2.56055V4.5Z" fill="#000001"/>
</g>
</svg>
