<svg width="16" height="16" viewBox="0 0 16 16" fill="none" xmlns="http://www.w3.org/2000/svg">
<g id="size=16">
<path id="Path" d="M9.5429 0.000122069C9.87439 0.000142022 10.1923 0.131929 10.4267 0.36633L14.6337 4.57333C14.868 4.80772 14.9999 5.12565 14.9999 5.45711V13.75C14.9998 14.9926 13.9925 16 12.7499 16H3.24998C2.00738 16 1.00006 14.9926 0.999992 13.75V2.2501C0.999992 1.00747 2.00734 0.000122069 3.24998 0.000122069H9.5429ZM3.24998 1.50011C2.83576 1.50011 2.49998 1.83589 2.49998 2.2501V13.75C2.50004 14.1642 2.8358 14.5 3.24998 14.5H12.7499C13.1641 14.5 13.4998 14.1642 13.4999 13.75V6.00008H9.74993C9.33575 6.00008 8.99999 5.66424 8.99993 5.25008V1.50011H3.24998ZM10.2499 9.00005C10.6641 9.00005 10.9999 9.33584 10.9999 9.75005C10.9999 10.1642 10.6641 10.5 10.2499 10.5H5.74996C5.33578 10.5 5.00002 10.1642 4.99996 9.75005C4.99996 9.33584 5.33575 9.00005 5.74996 9.00005H10.2499ZM10.4999 4.50009H12.4394L10.4999 2.56065V4.50009Z" fill="#000001"/>
</g>
</svg>
