<svg width="24" height="24" viewBox="0 0 24 24" fill="none" xmlns="http://www.w3.org/2000/svg">
<g id="size=24">
<path id="Path" d="M13.3359 1.00046C13.8 1.0005 14.2451 1.185 14.5732 1.51315L20.4873 7.42722C20.8153 7.75535 21 8.20055 21 8.66452V20.2505C20.9998 21.769 19.7686 23.0005 18.25 23.0005H5.75C4.23137 23.0005 3.00025 21.769 3 20.2505V3.75046C3 2.23168 4.23122 1.00046 5.75 1.00046H13.3359ZM5.75 2.50046C5.05964 2.50046 4.5 3.0601 4.5 3.75046V20.2505C4.50025 20.9406 5.0598 21.5005 5.75 21.5005H18.25C18.9402 21.5005 19.4998 20.9406 19.5 20.2505V9.00046H13.75C13.3359 9.00046 13.0002 8.66446 13 8.25046V2.50046H5.75ZM11.75 10.7505C12.1642 10.7505 12.5 11.0862 12.5 11.5005V14.0005H15C15.4142 14.0005 15.75 14.3362 15.75 14.7505C15.7498 15.1645 15.4141 15.5005 15 15.5005H12.5V18.0005C12.4998 18.4145 12.1641 18.7505 11.75 18.7505C11.3359 18.7505 11.0002 18.4145 11 18.0005V15.5005H8.5C8.08594 15.5005 7.75025 15.1645 7.75 14.7505C7.75 14.3362 8.08579 14.0005 8.5 14.0005H11V11.5005C11 11.0862 11.3358 10.7505 11.75 10.7505ZM14.5 7.50046H18.4395L14.5 3.561V7.50046Z" fill="#000001"/>
</g>
</svg>
