<svg width="24" height="24" viewBox="0 0 24 24" fill="none" xmlns="http://www.w3.org/2000/svg">
<g id="size=24">
<path id="Path" d="M13.3359 1C13.8 1.00004 14.2451 1.18454 14.5732 1.5127L20.4873 7.42676C20.8155 7.75491 21 8.19999 21 8.66406V20.25C21 21.7688 19.7688 23 18.25 23H5.75C4.23122 23 3 21.7688 3 20.25V3.75C3 2.23122 4.23122 1 5.75 1H13.3359ZM5.75 2.5C5.05964 2.5 4.5 3.05964 4.5 3.75V20.25C4.5 20.9404 5.05964 21.5 5.75 21.5H18.25C18.9404 21.5 19.5 20.9404 19.5 20.25V9H13.75C13.3358 9 13 8.66421 13 8.25V2.5H5.75ZM14.5 7.5H18.4395L14.5 3.56055V7.5Z" fill="#000001"/>
</g>
</svg>
