<svg width="16" height="16" viewBox="0 0 16 16" fill="none" xmlns="http://www.w3.org/2000/svg">
<g id="size=16">
<g id="Path">
<path fill-rule="evenodd" clip-rule="evenodd" d="M3.25 0C2.00736 0 1 1.00736 1 2.25V13.75C1 14.9926 2.00736 16 3.25 16H12.75C13.9926 16 15 14.9926 15 13.75V5.45711C15 5.12559 14.8683 4.80764 14.6339 4.57322L10.4268 0.366116C10.1924 0.131695 9.87441 0 9.54289 0H3.25ZM2.5 2.25C2.5 1.83579 2.83579 1.5 3.25 1.5H9V5.25C9 5.66421 9.33579 6 9.75 6H13.5V13.75C13.5 14.1642 13.1642 14.5 12.75 14.5H3.25C2.83579 14.5 2.5 14.1642 2.5 13.75V2.25ZM12.4393 4.5L10.5 2.56066V4.5H12.4393Z" fill="#000001"/>
<path fill-rule="evenodd" clip-rule="evenodd" d="M9.58326 9.15639L9.58376 9.15548L9.58326 9.15639Z" fill="#000001"/>
<path d="M5.50084 8.59467C5.77009 8.32542 6.23085 8 6.87492 8C7.77875 8 8.31546 8.70973 8.57409 9.01747C8.94576 9.45973 9.03935 9.5 9.12492 9.5C9.31855 9.5 9.49973 9.32058 9.58326 9.15639C9.77101 8.7919 10.2176 8.64531 10.5853 8.82918C10.9558 9.01442 11.106 9.46493 10.9207 9.83541C10.8144 10.0478 10.6665 10.2378 10.499 10.4053C10.2298 10.6746 9.76899 11 9.12492 11C8.22109 11 7.68438 10.2903 7.42576 9.98253C7.05408 9.54027 6.96049 9.5 6.87492 9.5C6.6752 9.5 6.50812 9.68107 6.41658 9.8436C6.22883 10.2081 5.78225 10.3547 5.41451 10.1708C5.04403 9.98558 4.89386 9.53507 5.0791 9.16459C5.1855 8.95221 5.3333 8.76221 5.50084 8.59467Z" fill="#000001"/>
</g>
</g>
</svg>
