<svg width="24" height="24" viewBox="0 0 24 24" fill="none" xmlns="http://www.w3.org/2000/svg">
<g id="size=24">
<path id="Path" d="M13.3359 1C13.8 1.00004 14.2451 1.18454 14.5732 1.5127L20.4873 7.42676C20.8155 7.75491 21 8.19999 21 8.66406V20.25C21 21.7688 19.7688 23 18.25 23H5.75C4.23122 23 3 21.7688 3 20.25V3.75C3 2.23122 4.23122 1 5.75 1H13.3359ZM5.75 2.5C5.05964 2.5 4.5 3.05964 4.5 3.75V20.25C4.5 20.9404 5.05964 21.5 5.75 21.5H18.25C18.9404 21.5 19.5 20.9404 19.5 20.25V9H13.75C13.3358 9 13 8.66421 13 8.25V2.5H5.75ZM13.75 16C14.1642 16 14.5 16.3358 14.5 16.75C14.5 17.1642 14.1642 17.5 13.75 17.5H7.75C7.33579 17.5 7 17.1642 7 16.75C7 16.3358 7.33579 16 7.75 16H13.75ZM15.75 12C16.1642 12 16.5 12.3358 16.5 12.75C16.5 13.1642 16.1642 13.5 15.75 13.5H7.75C7.33579 13.5 7 13.1642 7 12.75C7 12.3358 7.33579 12 7.75 12H15.75ZM9.75 8C10.1642 8 10.5 8.33579 10.5 8.75C10.5 9.16421 10.1642 9.5 9.75 9.5H7.75C7.33579 9.5 7 9.16421 7 8.75C7 8.33579 7.33579 8 7.75 8H9.75ZM14.5 7.5H18.4395L14.5 3.56055V7.5Z" fill="#000001"/>
</g>
</svg>
