<svg width="16" height="16" viewBox="0 0 16 16" fill="none" xmlns="http://www.w3.org/2000/svg">
<g id="size=16">
<path id="Path" d="M9.5429 0.000122069C9.87439 0.000142022 10.1923 0.131929 10.4267 0.36633L14.6337 4.57333C14.868 4.80772 14.9999 5.12565 14.9999 5.45711V6.75007C14.9998 7.16423 14.6641 7.50006 14.2499 7.50006C13.8357 7.50006 13.5 7.16423 13.4999 6.75007V6.00008H9.74993C9.33575 6.00008 8.99999 5.66424 8.99993 5.25008V1.50011H3.24998C2.83576 1.50011 2.49998 1.83589 2.49998 2.2501V13.75C2.50004 14.1642 2.8358 14.5 3.24998 14.5H7.24994C7.66416 14.5 7.99994 14.8358 7.99994 15.25C7.99988 15.6642 7.66412 16 7.24994 16H3.24998C2.00738 16 1.00006 14.9926 0.999992 13.75V2.2501C0.999992 1.00747 2.00734 0.000122069 3.24998 0.000122069H9.5429ZM11.9999 8.00006C14.209 8.00006 15.9999 9.79091 15.9999 12C15.9998 14.2091 14.209 16 11.9999 16C9.79083 16 8 14.2091 7.99994 12C7.99994 9.79091 9.79079 8.00006 11.9999 8.00006ZM14.288 10.7276C13.9996 10.4306 13.5247 10.4237 13.2274 10.712L11.3437 12.5391L10.7724 11.9844C10.475 11.6961 10.0002 11.7036 9.71184 12.001C9.42356 12.2984 9.43013 12.7732 9.72746 13.0615L10.8212 14.1221C11.1121 14.4041 11.5752 14.4041 11.8661 14.1221L14.2724 11.7881C14.5693 11.4998 14.5762 11.0248 14.288 10.7276ZM10.4999 4.50009H12.4394L10.4999 2.56065V4.50009Z" fill="#000001"/>
</g>
</svg>
