<svg width="16" height="16" viewBox="0 0 16 16" fill="none" xmlns="http://www.w3.org/2000/svg">
<g id="size=16">
<path id="Path" d="M9.54297 0C9.87446 1.99508e-05 10.1924 0.131808 10.4268 0.366211L14.6338 4.57324C14.8682 4.80765 15 5.12554 15 5.45703V13.75C15 14.9926 13.9926 16 12.75 16H3.25C2.00736 16 1 14.9926 1 13.75V2.25C1 1.00736 2.00736 0 3.25 0H9.54297ZM3.25 1.5C2.83579 1.5 2.5 1.83579 2.5 2.25V13.75C2.5 14.1642 2.83579 14.5 3.25 14.5H12.75C13.1642 14.5 13.5 14.1642 13.5 13.75V6H9.75C9.33579 6 9 5.66421 9 5.25V1.5H3.25ZM9.75 11.5C10.1642 11.5 10.5 11.8358 10.5 12.25C10.5 12.6642 10.1642 13 9.75 13H5.75C5.33579 13 5 12.6642 5 12.25C5 11.8358 5.33579 11.5 5.75 11.5H9.75ZM7.75 5.5C8.16421 5.5 8.5 5.83579 8.5 6.25V7.5H9.75C10.1642 7.5 10.5 7.83579 10.5 8.25C10.5 8.66421 10.1642 9 9.75 9H8.5V10.25C8.5 10.6642 8.16421 11 7.75 11C7.33579 11 7 10.6642 7 10.25V9H5.75C5.33579 9 5 8.66421 5 8.25C5 7.83579 5.33579 7.5 5.75 7.5H7V6.25C7 5.83579 7.33579 5.5 7.75 5.5ZM10.5 4.5H12.4395L10.5 2.56055V4.5Z" fill="#000001"/>
</g>
</svg>
