<svg width="16" height="16" viewBox="0 0 16 16" fill="none" xmlns="http://www.w3.org/2000/svg">
<g id="size=16">
<path id="Path" d="M9.54291 9.15522e-05C9.87441 0.000111504 10.1923 0.131899 10.4267 0.3663L14.6337 4.57331C14.8681 4.80771 14.9999 5.12562 14.9999 5.45709V13.75C14.9999 14.9926 13.9925 16 12.7499 16H3.24998C2.00738 16 1.00004 14.9926 0.999994 13.75V2.25008C0.999994 1.00745 2.00735 9.15522e-05 3.24998 9.15522e-05H9.54291ZM3.24998 1.50008C2.83577 1.50008 2.49999 1.83587 2.49999 2.25008V13.75C2.50003 14.1642 2.8358 14.5 3.24998 14.5H12.7499C13.1641 14.5 13.4999 14.1642 13.4999 13.75V6.00006H9.74994C9.33576 6.00006 9 5.66423 8.99995 5.25006V1.50008H3.24998ZM10.4999 4.50007H12.4394L10.4999 2.56062V4.50007Z" fill="#000001"/>
</g>
</svg>
