<svg width="16" height="16" viewBox="0 0 16 16" fill="none" xmlns="http://www.w3.org/2000/svg">
<g id="size=16">
<path id="Path" d="M9.54276 0C9.87416 1.99454e-05 10.1921 0.131915 10.4265 0.366203L14.6335 4.57314C14.8678 4.80746 14.9996 5.12555 14.9997 5.45691V13.7497C14.9997 14.9923 13.9923 15.9996 12.7497 15.9996H3.24993C2.00732 15.9996 0.999978 14.9923 0.999978 13.7497V2.24995C1.00017 1.0075 2.00743 0 3.24993 0H9.54276ZM3.24993 1.49997C2.83584 1.49997 2.50014 1.83591 2.49995 2.24995V13.7497C2.49995 14.1639 2.83572 14.4997 3.24993 14.4997H12.7497C13.1639 14.4997 13.4997 14.1639 13.4997 13.7497V5.99987H9.74979C9.33558 5.99987 8.9998 5.66409 8.9998 5.24988V1.49997H3.24993ZM10.4998 4.4999H12.4392L10.4998 2.56049V4.4999Z" fill="#000001"/>
</g>
</svg>
