<svg width="16" height="16" viewBox="0 0 16 16" fill="none" xmlns="http://www.w3.org/2000/svg">
<g id="size=16">
<path id="Path" d="M9.54277 0C9.87417 1.99456e-05 10.1922 0.131912 10.4265 0.366203L14.6335 4.57315C14.8678 4.80746 14.9996 5.12555 14.9997 5.45692V13.7497C14.9997 14.9923 13.9923 15.9997 12.7497 15.9997H3.24993C2.00732 15.9997 0.999979 14.9923 0.999979 13.7497V2.24995C1.00016 1.0075 2.00743 0 3.24993 0H9.54277ZM3.24993 1.49997C2.83584 1.49997 2.50013 1.83591 2.49995 2.24995V13.7497C2.49995 14.1639 2.83573 14.4997 3.24993 14.4997H12.7497C13.1639 14.4997 13.4997 14.1639 13.4997 13.7497V5.99987H9.7498C9.33559 5.99987 8.99981 5.66409 8.99981 5.24989V1.49997H3.24993ZM6.33873 7.77913C6.59844 7.55245 6.9934 7.57931 7.22055 7.8387C7.44741 8.09842 7.42046 8.49332 7.16098 8.72052L5.6991 9.99979L7.16098 11.2791C7.42055 11.5062 7.44727 11.9011 7.22055 12.1609C6.99337 12.4205 6.59851 12.4474 6.33873 12.2204L4.33878 10.4705C4.20325 10.3518 4.12491 10.1799 4.12491 9.99979C4.12501 9.8197 4.20323 9.6477 4.33878 9.5291L6.33873 7.77913ZM8.77911 7.8387C9.00626 7.57931 9.40122 7.55245 9.66093 7.77913L11.6609 9.5291C11.7964 9.6477 11.8746 9.8197 11.8748 9.99979C11.8748 10.1799 11.7964 10.3518 11.6609 10.4705L9.66093 12.2204C9.40116 12.4474 9.00629 12.4205 8.77911 12.1609C8.55239 11.9011 8.57912 11.5062 8.83868 11.2791L10.3006 9.99979L8.83868 8.72052C8.57921 8.49332 8.55225 8.09842 8.77911 7.8387ZM10.4998 4.49991H12.4392L10.4998 2.56049V4.49991Z" fill="#000001"/>
</g>
</svg>
