<svg width="24" height="24" viewBox="0 0 24 24" fill="none" xmlns="http://www.w3.org/2000/svg">
<g id="size=24">
<path id="Path" d="M13.3359 1.00046C13.8 1.0005 14.2451 1.185 14.5732 1.51315L20.4873 7.42722C20.8153 7.75535 21 8.20055 21 8.66452V20.2505C20.9998 21.769 19.7686 23.0005 18.25 23.0005H5.75C4.23137 23.0005 3.00025 21.769 3 20.2505V3.75046C3 2.23168 4.23122 1.00046 5.75 1.00046H13.3359ZM5.75 2.50046C5.05964 2.50046 4.5 3.0601 4.5 3.75046V20.2505C4.50025 20.9406 5.0598 21.5005 5.75 21.5005H18.25C18.9402 21.5005 19.4998 20.9406 19.5 20.2505V9.00046H13.75C13.3359 9.00046 13.0002 8.66446 13 8.25046V2.50046H5.75ZM9.7998 12.1508C10.1311 11.9024 10.601 11.9692 10.8496 12.3003C11.0978 12.6315 11.0312 13.1015 10.7002 13.3501L8.5 15.0005L10.7002 16.6508C11.0311 16.8995 11.098 17.3695 10.8496 17.7007C10.601 18.0314 10.131 18.0983 9.7998 17.8501L6.7998 15.6001C6.61128 15.4585 6.50014 15.2362 6.5 15.0005C6.50001 14.7646 6.61127 14.5425 6.7998 14.4008L9.7998 12.1508ZM13.1504 12.3003C13.399 11.9692 13.8689 11.9024 14.2002 12.1508L17.2002 14.4008C17.3887 14.5425 17.5 14.7646 17.5 15.0005C17.4999 15.2362 17.3887 15.4585 17.2002 15.6001L14.2002 17.8501C13.869 18.0983 13.399 18.0315 13.1504 17.7007C12.902 17.3695 12.9689 16.8995 13.2998 16.6508L15.5 15.0005L13.2998 13.3501C12.9688 13.1015 12.9022 12.6315 13.1504 12.3003ZM14.5 7.50046H18.4395L14.5 3.561V7.50046Z" fill="#000001"/>
</g>
</svg>
