<svg width="16" height="16" viewBox="0 0 16 16" fill="none" xmlns="http://www.w3.org/2000/svg">
<g id="size=16">
<path id="Path" d="M9.5429 0.000122069C9.87439 0.000142022 10.1923 0.131929 10.4267 0.36633L14.6337 4.57333C14.868 4.80772 14.9999 5.12565 14.9999 5.45711V13.75C14.9998 14.9926 13.9925 16 12.7499 16H3.24998C2.00739 16 1.00006 14.9926 0.999992 13.75V2.2501C0.999992 1.00747 2.00734 0.000122069 3.24998 0.000122069H9.5429ZM3.24998 1.50011C2.83576 1.50011 2.49998 1.83589 2.49998 2.2501V13.75C2.50005 14.1642 2.83581 14.5 3.24998 14.5H12.7499C13.1641 14.5 13.4998 14.1642 13.4999 13.75V6.00008H9.74993C9.33576 6.00008 9 5.66423 8.99993 5.25008V1.50011H3.24998ZM6.33882 7.77936C6.59859 7.55245 6.99347 7.5793 7.22065 7.83893C7.44749 8.09871 7.42069 8.4936 7.16108 8.72076L5.69918 10L7.16108 11.2793C7.42065 11.5065 7.44753 11.9014 7.22065 12.1612C6.99348 12.4207 6.59857 12.4476 6.33882 12.2207L4.33883 10.4707C4.20323 10.3521 4.12501 10.1802 4.12497 10C4.12497 9.81985 4.20324 9.64802 4.33883 9.52935L6.33882 7.77936ZM8.77923 7.83893C9.00641 7.5793 9.40128 7.55246 9.66106 7.77936L11.661 9.52935C11.7966 9.64802 11.8749 9.81985 11.8749 10C11.8749 10.1802 11.7966 10.3521 11.661 10.4707L9.66106 12.2207C9.4013 12.4476 9.0064 12.4207 8.77923 12.1612C8.55234 11.9014 8.57923 11.5065 8.8388 11.2793L10.3007 10L8.8388 8.72076C8.57919 8.4936 8.55239 8.09871 8.77923 7.83893ZM10.4999 4.50009H12.4394L10.4999 2.56065V4.50009Z" fill="#000001"/>
</g>
</svg>
