<svg width="24" height="24" viewBox="0 0 24 24" fill="none" xmlns="http://www.w3.org/2000/svg">
<g id="size=24">
<path id="Path" d="M13.3359 1C13.8 1.00004 14.2451 1.18454 14.5732 1.5127L20.4873 7.42676C20.8155 7.75491 21 8.19999 21 8.66406V20.25C21 21.7688 19.7688 23 18.25 23H5.75C4.23122 23 3 21.7688 3 20.25V3.75C3 2.23122 4.23122 1 5.75 1H13.3359ZM5.75 2.5C5.05964 2.5 4.5 3.05964 4.5 3.75V20.25C4.5 20.9404 5.05964 21.5 5.75 21.5H18.25C18.9404 21.5 19.5 20.9404 19.5 20.25V9H13.75C13.3358 9 13 8.66421 13 8.25V2.5H5.75ZM14.75 18C15.1642 18 15.5 18.3358 15.5 18.75C15.5 19.1642 15.1642 19.5 14.75 19.5H8.75C8.33579 19.5 8 19.1642 8 18.75C8 18.3358 8.33579 18 8.75 18H14.75ZM11.75 9.5C12.1642 9.5 12.5 9.83579 12.5 10.25V12.5H14.75C15.1642 12.5 15.5 12.8358 15.5 13.25C15.5 13.6642 15.1642 14 14.75 14H12.5V16.25C12.5 16.6642 12.1642 17 11.75 17C11.3358 17 11 16.6642 11 16.25V14H8.75C8.33579 14 8 13.6642 8 13.25C8 12.8358 8.33579 12.5 8.75 12.5H11V10.25C11 9.83579 11.3358 9.5 11.75 9.5ZM14.5 7.5H18.4395L14.5 3.56055V7.5Z" fill="#000001"/>
</g>
</svg>
