<svg width="16" height="16" viewBox="0 0 16 16" fill="none" xmlns="http://www.w3.org/2000/svg">
<g id="size=16">
<path id="Path" d="M9.54297 0C9.87446 1.99508e-05 10.1924 0.131808 10.4268 0.366211L14.6338 4.57324C14.8682 4.80765 15 5.12554 15 5.45703V13.75C15 14.9926 13.9926 16 12.75 16H3.25C2.00736 16 1 14.9926 1 13.75V2.25C1 1.00736 2.00736 0 3.25 0H9.54297ZM3.25 1.5C2.83579 1.5 2.5 1.83579 2.5 2.25V13.75C2.5 14.1642 2.83579 14.5 3.25 14.5H12.75C13.1642 14.5 13.5 14.1642 13.5 13.75V6H9.75C9.33579 6 9 5.66421 9 5.25V1.5H3.25ZM6.875 8C7.77878 8.00004 8.3156 8.70985 8.57422 9.01758C8.94581 9.45972 9.03944 9.5 9.125 9.5C9.3186 9.49995 9.49949 9.32041 9.58301 9.15625C9.77071 8.79187 10.2173 8.64548 10.585 8.8291C10.9553 9.01427 11.1058 9.46456 10.9209 9.83496C10.8145 10.0473 10.6665 10.2378 10.499 10.4053C10.2298 10.6745 9.76903 11 9.125 11C8.22117 11 7.68441 10.2902 7.42578 9.98242C7.05426 9.54035 6.96055 9.50002 6.875 9.5C6.6753 9.5 6.50853 9.68124 6.41699 9.84375C6.22924 10.2082 5.7818 10.3548 5.41406 10.1709C5.04394 9.98561 4.89419 9.53535 5.0791 9.16504C5.1855 8.95266 5.33344 8.76226 5.50098 8.59473C5.77023 8.32549 6.23096 8 6.875 8ZM10.5 4.5H12.4395L10.5 2.56055V4.5Z" fill="#000001"/>
</g>
</svg>
