<svg width="16" height="16" viewBox="0 0 16 16" fill="none" xmlns="http://www.w3.org/2000/svg">
<g id="size=16">
<path id="Path" d="M9.54297 0C9.87446 1.99508e-05 10.1924 0.131808 10.4268 0.366211L14.6338 4.57324C14.8682 4.80765 15 5.12554 15 5.45703V6.75C15 7.16421 14.6642 7.5 14.25 7.5C13.8358 7.5 13.5 7.16421 13.5 6.75V6H9.75C9.33579 6 9 5.66421 9 5.25V1.5H3.25C2.83579 1.5 2.5 1.83579 2.5 2.25V13.75C2.5 14.1642 2.83579 14.5 3.25 14.5H7.25C7.66421 14.5 8 14.8358 8 15.25C8 15.6642 7.66421 16 7.25 16H3.25C2.00736 16 1 14.9926 1 13.75V2.25C1 1.00736 2.00736 0 3.25 0H9.54297ZM12 8C14.2091 8 16 9.79086 16 12C16 14.2091 14.2091 16 12 16C9.79086 16 8 14.2091 8 12C8 9.79086 9.79086 8 12 8ZM14.2881 10.7275C13.9997 10.4305 13.5248 10.4237 13.2275 10.7119L11.3438 12.5391L10.7725 11.9844C10.4751 11.696 10.0003 11.7036 9.71191 12.001C9.42358 12.2983 9.43018 12.7732 9.72754 13.0615L10.8213 14.1221C11.1122 14.4042 11.5753 14.4042 11.8662 14.1221L14.2725 11.7881C14.5695 11.4997 14.5763 11.0248 14.2881 10.7275ZM10.5 4.5H12.4395L10.5 2.56055V4.5Z" fill="#000001"/>
</g>
</svg>
