<svg width="16" height="16" viewBox="0 0 16 16" fill="none" xmlns="http://www.w3.org/2000/svg">
<g id="size=16">
<path id="Path" d="M8.04297 0C8.37446 1.99509e-05 8.69235 0.131808 8.92676 0.366211L12.1338 3.57324C12.2099 3.64939 12.2756 3.7348 12.3291 3.82617C12.4017 3.86165 12.4699 3.90936 12.5303 3.96973L14.6338 6.07324C14.8682 6.30765 15 6.62554 15 6.95703V13.75C15 14.9926 13.9926 16 12.75 16H5.75C4.50736 16 3.5 14.9926 3.5 13.75V13.5H3.25C2.00736 13.5 1 12.4926 1 11.25V2.25C1 1.00736 2.00736 0 3.25 0H8.04297ZM12.5 11.25C12.5 12.4926 11.4926 13.5 10.25 13.5H5V13.75C5 14.1642 5.33579 14.5 5.75 14.5H12.75C13.1642 14.5 13.5 14.1642 13.5 13.75V7.06055L12.5 6.06055V11.25ZM3.25 1.5C2.83579 1.5 2.5 1.83579 2.5 2.25V11.25C2.5 11.6642 2.83579 12 3.25 12H10.25C10.6642 12 11 11.6642 11 11.25V6H7.75C7.33579 6 7 5.66421 7 5.25V1.5H3.25ZM8.5 4.5H10.9395L8.5 2.06055V4.5Z" fill="#000001"/>
</g>
</svg>
