<svg width="24" height="24" viewBox="0 0 24 24" fill="none" xmlns="http://www.w3.org/2000/svg">
<g id="size=24">
<path id="Path" d="M20.25 1C21.7688 1 23 2.23122 23 3.75V20.25C23 21.7688 21.7688 23 20.25 23H3.75C2.23122 23 1 21.7688 1 20.25V3.75C1 2.23122 2.23122 1 3.75 1H20.25ZM2.5 20.25C2.5 20.9404 3.05964 21.5 3.75 21.5H6V17.5H2.5V20.25ZM7.5 21.5H16.5V12.5H7.5V21.5ZM18 21.5H20.25C20.9404 21.5 21.5 20.9404 21.5 20.25V17.5H18V21.5ZM2.5 16H6V12.5H2.5V16ZM18 16H21.5V12.5H18V16ZM2.5 11H6V7.5H2.5V11ZM7.5 11H16.5V2.5H7.5V11ZM18 11H21.5V7.5H18V11ZM3.75 2.5C3.05964 2.5 2.5 3.05964 2.5 3.75V6H6V2.5H3.75ZM18 6H21.5V3.75C21.5 3.05964 20.9404 2.5 20.25 2.5H18V6Z" fill="#000001"/>
</g>
</svg>
