<svg width="16" height="16" viewBox="0 0 16 16" fill="none" xmlns="http://www.w3.org/2000/svg">
<g id="size=16">
<path id="Path" d="M13.75 0C14.9926 0 16 1.00736 16 2.25V13.75C16 14.9926 14.9926 16 13.75 16H2.25C1.00736 16 0 14.9926 0 13.75V2.25C0 1.00736 1.00736 0 2.25 0H13.75ZM1.5 13.75C1.5 14.1642 1.83579 14.5 2.25 14.5H3.5V12H1.5V13.75ZM5 14.5H11V8.5H5V14.5ZM12.5 14.5H13.75C14.1642 14.5 14.5 14.1642 14.5 13.75V12H12.5V14.5ZM1.5 10.5H3.5V8.5H1.5V10.5ZM12.5 10.5H14.5V8.5H12.5V10.5ZM1.5 7H3.5V5H1.5V7ZM5 7H11V1.5H5V7ZM12.5 7H14.5V5H12.5V7ZM2.25 1.5C1.83579 1.5 1.5 1.83579 1.5 2.25V3.5H3.5V1.5H2.25ZM12.5 3.5H14.5V2.25C14.5 1.83579 14.1642 1.5 13.75 1.5H12.5V3.5Z" fill="#000001"/>
</g>
</svg>
