<svg width="24" height="24" viewBox="0 0 24 24" fill="none" xmlns="http://www.w3.org/2000/svg">
<g id="size=24">
<path id="Path" d="M12 1C18.0751 1 23 5.92487 23 12C23 18.0751 18.0751 23 12 23C5.92487 23 1 18.0751 1 12C1 5.92487 5.92487 1 12 1ZM10.75 16C10.3358 16 10 16.3358 10 16.75C10 17.1642 10.3358 17.5 10.75 17.5H13.25C13.6642 17.5 14 17.1642 14 16.75C14 16.3358 13.6642 16 13.25 16H10.75ZM8.25 12C7.83579 12 7.5 12.3358 7.5 12.75C7.5 13.1642 7.83579 13.5 8.25 13.5H15.75C16.1642 13.5 16.5 13.1642 16.5 12.75C16.5 12.3358 16.1642 12 15.75 12H8.25ZM5.75 8C5.33579 8 5 8.33579 5 8.75C5 9.16421 5.33579 9.5 5.75 9.5H18.25C18.6642 9.5 19 9.16421 19 8.75C19 8.33579 18.6642 8 18.25 8H5.75Z" fill="#000001"/>
</g>
</svg>
