<svg width="16" height="16" viewBox="0 0 16 16" fill="none" xmlns="http://www.w3.org/2000/svg">
<g id="size=16">
<path id="Path" d="M9.25 11C9.66421 11 10 11.3358 10 11.75C10 12.1642 9.66421 12.5 9.25 12.5H6.75C6.33579 12.5 6 12.1642 6 11.75C6 11.3358 6.33579 11 6.75 11H9.25ZM11.75 7C12.1642 7 12.5 7.33579 12.5 7.75C12.5 8.16421 12.1642 8.5 11.75 8.5H4.25C3.83579 8.5 3.5 8.16421 3.5 7.75C3.5 7.33579 3.83579 7 4.25 7H11.75ZM14.25 3C14.6642 3 15 3.33579 15 3.75C15 4.16421 14.6642 4.5 14.25 4.5H1.75C1.33579 4.5 1 4.16421 1 3.75C1 3.33579 1.33579 3 1.75 3H14.25Z" fill="#000001"/>
</g>
</svg>
