<svg width="16" height="16" viewBox="0 0 16 16" fill="none" xmlns="http://www.w3.org/2000/svg">
<g id="size=16">
<path id="Path" d="M8 0C12.4183 0 16 3.58172 16 8C16 12.4183 12.4183 16 8 16C3.58172 16 0 12.4183 0 8C0 3.58172 3.58172 0 8 0ZM8 1.5C4.41015 1.5 1.5 4.41015 1.5 8C1.5 11.5899 4.41015 14.5 8 14.5C11.5899 14.5 14.5 11.5899 14.5 8C14.5 4.41015 11.5899 1.5 8 1.5ZM9 10C9.41421 10 9.75 10.3358 9.75 10.75C9.75 11.1642 9.41421 11.5 9 11.5H7C6.58579 11.5 6.25 11.1642 6.25 10.75C6.25 10.3358 6.58579 10 7 10H9ZM10.25 7.5C10.6642 7.5 11 7.83579 11 8.25C11 8.66421 10.6642 9 10.25 9H5.75C5.33579 9 5 8.66421 5 8.25C5 7.83579 5.33579 7.5 5.75 7.5H10.25ZM11.75 5C12.1642 5 12.5 5.33579 12.5 5.75C12.5 6.16421 12.1642 6.5 11.75 6.5H4.25C3.83579 6.5 3.5 6.16421 3.5 5.75C3.5 5.33579 3.83579 5 4.25 5H11.75Z" fill="#000001"/>
</g>
</svg>
