<svg width="16" height="16" viewBox="0 0 16 16" fill="none" xmlns="http://www.w3.org/2000/svg">
<g id="size=16">
<path id="Path" fill-rule="evenodd" clip-rule="evenodd" d="M7.34199 12.7114C7.50179 12.3301 7.94189 12.1505 8.32343 12.3091C8.70485 12.4693 8.88547 12.9088 8.72578 13.2905C8.45163 13.9448 8.15318 14.5744 7.82734 15.186C7.7658 15.3015 7.70143 15.4193 7.63788 15.5337C7.43615 15.8935 6.97945 16.0247 6.61835 15.8247C6.25815 15.6236 6.12846 15.1664 6.32734 14.8052C6.38659 14.6985 6.4458 14.5885 6.50312 14.4809C6.80691 13.9107 7.08558 13.3233 7.34199 12.7114ZM11.5305 8.3784C11.6222 7.97537 12.0249 7.72266 12.4279 7.81298C12.8313 7.90512 13.085 8.30688 12.9934 8.71044C12.4239 11.2143 11.7438 13.3376 10.8156 15.3188C10.6392 15.6918 10.1926 15.8548 9.81855 15.6802C9.44545 15.5044 9.28394 15.0571 9.45722 14.6831C10.3283 12.8239 10.9779 10.8079 11.5305 8.3784ZM5.73554 9.0034C5.84838 8.60573 6.26348 8.37425 6.66132 8.48583C7.05928 8.59901 7.29058 9.01437 7.17792 9.41258C6.64747 11.2853 6.03216 12.7969 5.24921 14.2065C5.19262 14.3083 5.13287 14.4121 5.07441 14.5132C4.86648 14.8695 4.40758 14.9938 4.04999 14.7876C3.69318 14.5803 3.57138 14.12 3.77656 13.7622C3.83067 13.6686 3.88541 13.5721 3.93769 13.478C4.65718 12.1826 5.23218 10.7806 5.73554 9.0034ZM13.6076 11.2954C13.721 10.8978 14.1367 10.6677 14.5344 10.7798C14.9322 10.8935 15.1643 11.3085 15.051 11.7065C14.7997 12.5883 14.5237 13.4387 14.218 14.2622C14.0729 14.6484 13.6413 14.8468 13.2541 14.7036C12.8677 14.5591 12.6696 14.1268 12.8117 13.7397C13.1026 12.9564 13.366 12.1434 13.6076 11.2954ZM2.18574 10.8677C2.3526 10.4895 2.79544 10.3182 3.17402 10.4839C3.55242 10.651 3.72442 11.0934 3.55781 11.4722C3.33956 11.9678 3.10717 12.4336 2.85956 12.8794C2.65792 13.2392 2.20112 13.3712 1.84003 13.1714C1.47969 12.9704 1.34913 12.5122 1.54804 12.1509C1.77379 11.7444 1.98657 11.3199 2.18574 10.8677ZM7.08417 5.87841C7.54961 5.5659 8.14236 5.43791 8.73359 5.57176C9.87278 5.83123 10.587 6.96461 10.3283 8.10399C10.1164 9.03587 9.89008 9.904 9.64374 10.7182C9.52285 11.1126 9.10438 11.3381 8.70917 11.2192C8.31468 11.0988 8.09019 10.6788 8.2082 10.2837C8.44277 9.50831 8.65998 8.67526 8.86542 7.77196C8.94074 7.44035 8.73288 7.10966 8.40156 7.03368C8.22976 6.99519 8.05682 7.03177 7.92011 7.12352C7.57686 7.35212 7.10974 7.26158 6.8791 6.91942C6.64899 6.57645 6.74248 6.10987 7.08417 5.87841ZM4.92402 0.827624C6.42669 0.0893498 8.18623 -0.157834 9.9455 0.241686C14.0286 1.17053 16.5868 5.23355 15.6584 9.31688C15.5654 9.71886 15.1636 9.97248 14.7609 9.88133C14.359 9.78883 14.1055 9.38626 14.1955 8.98387C14.9402 5.70845 12.8886 2.44888 9.61347 1.7036C8.20098 1.38291 6.79089 1.58184 5.58515 2.1743C5.21434 2.35471 4.76388 2.20147 4.58124 1.83153C4.39932 1.46073 4.55428 1.01105 4.92402 0.827624ZM2.22578 3.04735C2.47635 2.71806 2.94696 2.65381 3.27656 2.9038C3.60543 3.15462 3.66937 3.62518 3.41913 3.95458C2.91104 4.62323 2.53213 5.41187 2.3332 6.28661C2.0731 7.43016 1.80587 8.37492 1.52167 9.187C1.38395 9.57602 0.955505 9.78294 0.565619 9.64696C0.176965 9.50968 -0.0289162 9.08137 0.105658 8.69188C0.367064 7.94495 0.61962 7.05577 0.870307 5.9536C1.11768 4.86607 1.59071 3.88295 2.22578 3.04735ZM3.53535 6.56005C4.12912 3.94905 6.729 2.31415 9.34003 2.90673C10.9038 3.26269 12.1182 4.33846 12.7121 5.70165C12.8763 6.08088 12.7033 6.52358 12.3244 6.68895C11.9457 6.85226 11.5026 6.67823 11.3371 6.30028C10.9254 5.35543 10.0862 4.61428 9.00703 4.36864C7.20385 3.95983 5.40832 5.08991 4.99824 6.89305C4.82424 7.65805 4.64418 8.35416 4.45527 8.99169C4.33659 9.38694 3.91868 9.61445 3.52265 9.49755C3.12752 9.37936 2.90104 8.96068 3.01679 8.56493C3.19514 7.96301 3.36734 7.29871 3.53535 6.56005Z" fill="#000001"/>
</g>
</svg>
