<svg width="16" height="16" viewBox="0 0 16 16" fill="none" xmlns="http://www.w3.org/2000/svg">
<g id="size=16">
<path id="Path" fill-rule="evenodd" clip-rule="evenodd" d="M4.92507 0.826665C6.42848 0.0878342 8.18688 -0.160189 9.94712 0.24005C14.0307 1.16858 16.5885 5.23174 15.6599 9.31537C15.5681 9.71927 15.1662 9.97225 14.7623 9.88041C14.3584 9.78857 14.1054 9.38669 14.1973 8.98279C14.9421 5.70697 12.8904 2.44757 9.61454 1.70272C8.20126 1.38137 6.79302 1.58003 5.58665 2.17289C5.21491 2.35558 4.76544 2.20231 4.58275 1.83057C4.40006 1.45882 4.55332 1.00936 4.92507 0.826665ZM3.27775 2.90284C3.60743 3.1536 3.6714 3.62415 3.42063 3.95383C2.91161 4.62304 2.53361 5.40961 2.33446 6.28544C2.07415 7.43028 1.80749 8.37318 1.52304 9.18593C1.38621 9.57689 0.958356 9.78291 0.567395 9.64608C0.176434 9.50925 -0.0295812 9.08139 0.107248 8.69043C0.368875 7.94288 0.620902 7.05629 0.871797 5.95287C1.11937 4.86407 1.59066 3.88198 2.22675 3.04572C2.47752 2.71604 2.94807 2.65207 3.27775 2.90284ZM3.53686 6.55885C4.13071 3.94711 6.72936 2.31129 9.3411 2.90514C10.9055 3.26085 12.1195 4.33657 12.7135 5.7002C12.879 6.07994 12.7052 6.52189 12.3255 6.68732C11.9457 6.85274 11.5038 6.679 11.3383 6.29925C10.9266 5.35405 10.0882 4.6133 9.00852 4.36781C7.20459 3.95763 5.4097 5.08749 4.99953 6.89143C4.8253 7.65765 4.6455 8.35193 4.45633 8.99032C4.33865 9.38746 3.9213 9.61401 3.52416 9.49633C3.12701 9.37864 2.90046 8.9613 3.01815 8.56415C3.19676 7.96138 3.36862 7.29878 3.53686 6.55885ZM7.08525 5.87725C7.55128 5.56416 8.14299 5.43548 8.73508 5.57011C9.87493 5.82929 10.5889 6.96343 10.3297 8.10328C10.1176 9.03619 9.89184 9.90195 9.64526 10.717C9.52531 11.1135 9.10667 11.3376 8.71021 11.2177C8.31374 11.0977 8.08958 10.6791 8.20953 10.2826C8.44436 9.5064 8.66137 8.67514 8.86702 7.7707C8.94252 7.43865 8.73455 7.10828 8.40251 7.03278C8.22996 6.99355 8.05902 7.03013 7.92175 7.12235C7.57793 7.35334 7.11195 7.26188 6.88096 6.91805C6.64996 6.57423 6.74143 6.10825 7.08525 5.87725ZM12.4298 7.81176C12.8337 7.9036 13.0866 8.30548 12.9948 8.70938C12.4252 11.2145 11.7458 13.3359 10.8172 15.3179C10.6415 15.693 10.1949 15.8546 9.81985 15.6789C9.44477 15.5031 9.28316 15.0566 9.4589 14.6815C10.3303 12.8216 10.9794 10.8077 11.5321 8.3768C11.624 7.9729 12.0259 7.71992 12.4298 7.81176ZM6.66251 8.48507C7.06106 8.59791 7.29266 9.01248 7.17982 9.41102C6.64914 11.2853 6.03376 12.7949 5.25031 14.2053C5.19325 14.3081 5.13525 14.4104 5.07625 14.5124C4.86884 14.8709 4.41005 14.9934 4.0515 14.786C3.69296 14.5786 3.57044 14.1198 3.77784 13.7613C3.83252 13.6668 3.88623 13.572 3.93902 13.477C4.65895 12.1809 5.23298 10.7809 5.73656 9.00237C5.8494 8.60383 6.26397 8.37222 6.66251 8.48507ZM3.17532 10.4825C3.55443 10.6494 3.72648 11.092 3.55961 11.4711C3.34099 11.9678 3.10915 12.4317 2.86107 12.8783C2.65994 13.2404 2.20334 13.3709 1.84124 13.1698C1.47914 12.9687 1.34864 12.5121 1.54978 12.15C1.77601 11.7427 1.98719 11.3201 2.18672 10.8668C2.3536 10.4877 2.79621 10.3157 3.17532 10.4825ZM14.5361 10.7785C14.9345 10.8919 15.1654 11.3069 15.052 11.7052C14.8005 12.588 14.5255 13.4365 14.2193 14.2609C14.0752 14.6492 13.6435 14.8471 13.2552 14.7029C12.8669 14.5587 12.669 14.127 12.8132 13.7387C13.1044 12.9545 13.3675 12.1434 13.6094 11.2943C13.7228 10.8959 14.1378 10.665 14.5361 10.7785ZM8.32531 12.308C8.70736 12.4681 8.88735 12.9075 8.72732 13.2896C8.45281 13.9449 8.15496 14.5725 7.8286 15.1851C7.76662 15.3014 7.70363 15.4172 7.63959 15.5325C7.43846 15.8946 6.98187 16.0251 6.61976 15.8239C6.25766 15.6228 6.12717 15.1662 6.3283 14.8041C6.38811 14.6964 6.44691 14.5884 6.50475 14.4798C6.80905 13.9086 7.08702 13.323 7.34379 12.71C7.50381 12.328 7.94326 12.148 8.32531 12.308Z" fill="#000001"/>
</g>
</svg>
