<svg width="16" height="16" viewBox="0 0 16 16" fill="none" xmlns="http://www.w3.org/2000/svg">
<g id="size=16">
<path id="Path" fill-rule="evenodd" clip-rule="evenodd" d="M7.34309 12.7113C7.50293 12.3299 7.94293 12.1502 8.32453 12.309C8.70573 12.4693 8.88652 12.9088 8.72687 13.2904C8.45269 13.9448 8.15433 14.5742 7.82844 15.1859C7.76684 15.3015 7.7026 15.4191 7.63898 15.5336C7.43741 15.8936 6.98063 16.0244 6.61945 15.8246C6.259 15.6235 6.12924 15.1664 6.32844 14.8051C6.38775 14.6983 6.44684 14.5885 6.50422 14.4809C6.80806 13.9105 7.08664 13.3233 7.34309 12.7113ZM11.5316 8.37831C11.6233 7.97516 12.0258 7.72234 12.429 7.81288C12.8322 7.90515 13.086 8.30688 12.9945 8.71034C12.425 11.2143 11.745 13.3375 10.8167 15.3187C10.6405 15.6918 10.1937 15.8545 9.81965 15.6801C9.44629 15.5044 9.28475 15.0571 9.45832 14.683C10.3294 12.8238 10.979 10.8079 11.5316 8.37831ZM5.73664 9.00331C5.84951 8.60553 6.26448 8.37394 6.66242 8.48573C7.0602 8.59904 7.29166 9.01438 7.17902 9.41249C6.64855 11.2853 6.03329 12.7968 5.25031 14.2064C5.19366 14.3084 5.13404 14.4119 5.07551 14.5131C4.86775 14.8696 4.40875 14.9935 4.05109 14.7875C3.69404 14.5802 3.57215 14.12 3.77766 13.7621C3.83184 13.6684 3.88644 13.5721 3.93879 13.4779C4.65832 12.1825 5.23326 10.7806 5.73664 9.00331ZM13.6087 11.2953C13.7221 10.8976 14.1377 10.6674 14.5355 10.7797C14.9331 10.8936 15.1653 11.3085 15.0521 11.7064C14.8008 12.5883 14.5249 13.4385 14.2191 14.2621C14.0741 14.6484 13.6424 14.8465 13.2552 14.7035C12.8685 14.5591 12.6704 14.1269 12.8128 13.7396C13.1037 12.9563 13.3671 12.1434 13.6087 11.2953ZM2.18684 10.8676C2.35374 10.4893 2.79649 10.3179 3.17512 10.4838C3.5533 10.6511 3.72548 11.0934 3.55891 11.4721C3.34061 11.9678 3.10832 12.4334 2.86066 12.8793C2.65918 13.2393 2.20229 13.3709 1.84113 13.1713C1.48054 12.9702 1.34991 12.5122 1.54914 12.1508C1.77495 11.7442 1.98763 11.3199 2.18684 10.8676ZM7.08527 5.87831C7.5508 5.56574 8.14334 5.43768 8.73469 5.57167C9.87371 5.83126 10.5881 6.96461 10.3294 8.1039C10.1175 9.03587 9.8912 9.90384 9.64484 10.7182C9.52409 11.1126 9.10548 11.3378 8.71027 11.2191C8.3155 11.0988 8.09107 10.6789 8.2093 10.2836C8.44389 9.50815 8.66106 8.67526 8.86652 7.77187C8.94182 7.44035 8.73381 7.10969 8.40266 7.03358C8.23074 6.99496 8.05801 7.03161 7.92121 7.12343C7.57799 7.35241 7.11102 7.26145 6.8802 6.91933C6.64997 6.57618 6.74315 6.10966 7.08527 5.87831ZM4.92512 0.82753C6.42788 0.0892142 8.18722 -0.15804 9.9466 0.241592C14.0296 1.17056 16.5878 5.23355 15.6595 9.31679C15.5666 9.71881 15.1647 9.97221 14.762 9.88124C14.3598 9.78887 14.1064 9.38637 14.1966 8.98378C14.9412 5.70846 12.8896 2.44891 9.61457 1.70351C8.20196 1.3827 6.79209 1.58171 5.58625 2.17421C5.2154 2.35502 4.76514 2.20142 4.58234 1.83144C4.40032 1.46044 4.55497 1.01078 4.92512 0.82753ZM2.22687 3.04726C2.47747 2.71794 2.94806 2.65365 3.27766 2.9037C3.60625 3.15458 3.67039 3.62519 3.42023 3.95448C2.91199 4.62322 2.53326 5.41161 2.3343 6.28651C2.07418 7.43017 1.80699 8.37477 1.52277 9.1869C1.3852 9.57602 0.956622 9.78267 0.566718 9.64687C0.177785 9.50965 -0.0280573 9.08145 0.106758 8.69179C0.368182 7.9448 0.620702 7.05578 0.871406 5.95351C1.11881 4.86581 1.59166 3.88294 2.22687 3.04726ZM3.53645 6.55995C4.13024 3.94884 6.72998 2.31382 9.34113 2.90663C10.9047 3.26266 12.1193 4.33845 12.7132 5.70155C12.8773 6.08073 12.7043 6.5235 12.3255 6.68886C11.9467 6.85256 11.5038 6.67821 11.3382 6.30019C10.9265 5.35542 10.0872 4.61425 9.00812 4.36855C7.20483 3.95951 5.40945 5.0897 4.99934 6.89296C4.82532 7.65805 4.6453 8.354 4.45637 8.99159C4.33783 9.38692 3.91979 9.61418 3.52375 9.49745C3.12834 9.37937 2.90192 8.96077 3.01789 8.56483C3.19626 7.96285 3.36842 7.29872 3.53645 6.55995Z" fill="#000001"/>
</g>
</svg>
