<svg width="16" height="16" viewBox="0 0 16 16" fill="none" xmlns="http://www.w3.org/2000/svg">
<g id="size=16">
<path id="Path" fill-rule="evenodd" clip-rule="evenodd" d="M7.3426 12.7112C7.50244 12.3299 7.94245 12.1501 8.32405 12.3089C8.70537 12.4692 8.88606 12.9087 8.72639 13.2903C8.45221 13.9447 8.15385 14.5741 7.82796 15.1858C7.76636 15.3014 7.70211 15.419 7.6385 15.5335C7.43689 15.8936 6.98017 16.0245 6.61897 15.8245C6.25852 15.6234 6.12876 15.1663 6.32796 14.805C6.38727 14.6982 6.44636 14.5884 6.50374 14.4808C6.80758 13.9104 7.08616 13.3233 7.3426 12.7112ZM11.5311 8.37822C11.6228 7.97507 12.0254 7.72225 12.4285 7.81279C12.8319 7.90498 13.0856 8.30672 12.994 8.71025C12.4245 11.2142 11.7445 13.3374 10.8162 15.3187C10.6399 15.6918 10.1933 15.8546 9.81917 15.68C9.44581 15.5043 9.28427 15.0571 9.45784 14.6829C10.3289 12.8237 10.9785 10.8079 11.5311 8.37822ZM5.73616 9.00322C5.84903 8.60544 6.264 8.37385 6.66194 8.48564C7.05984 8.59888 7.29119 9.01423 7.17854 9.4124C6.64807 11.2853 6.03282 12.7967 5.24983 14.2063C5.19318 14.3083 5.13356 14.4118 5.07503 14.513C4.86723 14.8695 4.40829 14.9936 4.05061 14.7874C3.69356 14.5801 3.57168 14.1199 3.77717 13.762C3.83135 13.6683 3.88596 13.572 3.93831 13.4778C4.65784 12.1824 5.23277 10.7805 5.73616 9.00322ZM13.6082 11.2952C13.7216 10.8975 14.1372 10.6673 14.535 10.7796C14.9328 10.8934 15.1649 11.3083 15.0516 11.7063C14.8003 12.5882 14.5244 13.4384 14.2186 14.262C14.0736 14.6484 13.642 14.8466 13.2547 14.7034C12.8681 14.559 12.6699 14.1268 12.8123 13.7395C13.1032 12.9562 13.3666 12.1433 13.6082 11.2952ZM2.18635 10.8675C2.35325 10.4892 2.79601 10.3178 3.17463 10.4837C3.55294 10.6509 3.72502 11.0933 3.55842 11.472C3.34013 11.9677 3.10784 12.4333 2.86018 12.8792C2.65867 13.2392 2.20183 13.3709 1.84065 13.1712C1.48006 12.9702 1.34944 12.5121 1.54866 12.1507C1.77447 11.7441 1.98715 11.3198 2.18635 10.8675ZM7.08479 5.87822C7.55032 5.56565 8.14286 5.4376 8.73421 5.57158C9.87334 5.83109 10.5876 6.96446 10.3289 8.10381C10.117 9.0358 9.89072 9.90374 9.64436 10.7181C9.5236 11.1126 9.10507 11.3378 8.70979 11.219C8.315 11.0987 8.09057 10.6788 8.20881 10.2835C8.44341 9.50805 8.66058 8.67518 8.86604 7.77178C8.94135 7.4402 8.73344 7.10952 8.40217 7.0335C8.23026 6.99488 8.05753 7.03152 7.92073 7.12334C7.57747 7.35228 7.11048 7.26145 6.87971 6.91924C6.64951 6.57612 6.74274 6.10959 7.08479 5.87822ZM4.92463 0.827441C6.42741 0.089117 8.18673 -0.158131 9.94612 0.241503C14.0292 1.17039 16.5874 5.2334 15.659 9.3167C15.5661 9.71881 15.1643 9.97225 14.7615 9.88115C14.3593 9.78878 14.1059 9.38629 14.1961 8.98369C14.9408 5.7083 12.8892 2.44874 9.61409 1.70342C8.20147 1.38261 6.79161 1.58161 5.58577 2.17412C5.21489 2.35488 4.7646 2.2014 4.58186 1.83135C4.39986 1.46038 4.55455 1.01072 4.92463 0.827441ZM2.22639 3.04717C2.47699 2.71785 2.94757 2.65356 3.27717 2.90361C3.6059 3.15446 3.66994 3.62505 3.41975 3.95439C2.91152 4.62313 2.53278 5.41153 2.33381 6.28643C2.0737 7.4301 1.80651 8.37467 1.52229 9.18682C1.3847 9.576 0.956198 9.78271 0.566237 9.64678C0.177296 9.50956 -0.0285537 9.08137 0.106276 8.6917C0.367704 7.9447 0.620216 7.05571 0.870924 5.95342C1.11833 4.86573 1.59119 3.88284 2.22639 3.04717ZM3.53596 6.55986C4.12976 3.94875 6.7295 2.31374 9.34065 2.90654C10.9043 3.26253 12.1188 4.3383 12.7127 5.70146C12.8769 6.08069 12.7039 6.52341 12.325 6.68877C11.9462 6.85243 11.5033 6.67819 11.3377 6.3001C10.926 5.35527 10.0868 4.61412 9.00764 4.36846C7.20435 3.95942 5.40896 5.08961 4.99885 6.89287C4.82483 7.65798 4.64482 8.3539 4.45588 8.9915C4.33734 9.38691 3.91937 9.61422 3.52327 9.49736C3.12785 9.37928 2.90142 8.96069 3.01741 8.56474C3.19578 7.96275 3.36794 7.29864 3.53596 6.55986Z" fill="#000001"/>
</g>
</svg>
