<svg width="24" height="24" viewBox="0 0 24 24" fill="none" xmlns="http://www.w3.org/2000/svg">
<g id="size=24">
<path id="Path" fill-rule="evenodd" clip-rule="evenodd" d="M14.8016 1.25944C11.0097 0.39725 7.23179 1.73911 4.807 4.43748C4.53014 4.74557 4.55546 5.21977 4.86356 5.49663C5.17165 5.77349 5.64585 5.74816 5.92271 5.44007C7.99864 3.12992 11.2288 1.98535 14.4691 2.72211C16.3264 3.14444 17.9114 4.12147 19.0914 5.43913C19.3678 5.74769 19.8419 5.77381 20.1505 5.49747C20.4591 5.22113 20.4852 4.74697 20.2088 4.43841C18.8282 2.89677 16.972 1.75293 14.8016 1.25944ZM4.73684 7.11899C4.93455 6.755 4.79976 6.29966 4.43578 6.10195C4.0718 5.90424 3.61646 6.03902 3.41875 6.40301C2.97607 7.21795 2.63679 8.10576 2.42149 9.05261C1.95534 11.1027 1.52417 12.1274 1.09449 12.901C0.893359 13.2631 1.02385 13.7197 1.38595 13.9208C1.74806 14.122 2.20465 13.9915 2.40578 13.6294C2.92182 12.7003 3.39563 11.5337 3.88416 9.38519C4.06873 8.57345 4.35903 7.81451 4.73684 7.11899ZM21.5945 6.40231C21.3964 6.03854 20.9409 5.90423 20.5772 6.10232C20.2134 6.30042 20.0791 6.7559 20.2772 7.11968C21.2707 8.94413 21.6289 11.1222 21.1321 13.307C20.7471 15.0005 20.3037 16.5692 19.7578 18.0667C19.6159 18.4559 19.8163 18.8864 20.2055 19.0283C20.5946 19.1701 21.0251 18.9697 21.167 18.5805C21.739 17.0115 22.199 15.3803 22.5948 13.6396C23.1756 11.0853 22.7559 8.53507 21.5945 6.40231ZM13.604 6.58732C10.9921 5.99342 8.39326 7.62935 7.79936 10.2413C7.57039 11.2483 7.30853 12.2305 6.9797 13.1811C6.84428 13.5726 7.05184 13.9997 7.4433 14.1351C7.83475 14.2705 8.26186 14.0629 8.39728 13.6715C8.74955 12.6532 9.02537 11.6146 9.26203 10.5738C9.67224 8.76974 11.4673 7.63977 13.2714 8.04998C14.4331 8.31414 15.3161 9.15214 15.6878 10.2006C15.8263 10.591 16.255 10.7952 16.6454 10.6568C17.0358 10.5184 17.24 10.0897 17.1016 9.6993C16.5653 8.18672 15.2878 6.97019 13.604 6.58732ZM17.2579 12.3919C17.3498 11.988 17.0968 11.5862 16.6929 11.4943C16.289 11.4025 15.8871 11.6555 15.7953 12.0594C15.097 15.1301 14.2442 17.5394 12.9805 19.8146C12.5968 20.5054 12.1818 21.1714 11.7346 21.8275C11.5013 22.1698 11.5897 22.6364 11.932 22.8697C12.2743 23.103 12.7408 23.0146 12.9741 22.6723C13.4443 21.9824 13.8837 21.2776 14.2918 20.5429C15.6419 18.1123 16.5373 15.5612 17.2579 12.3919ZM7.12341 16.5612C7.32454 16.1991 7.19405 15.7425 6.83195 15.5414C6.46984 15.3402 6.01325 15.4707 5.81212 15.8328C5.324 16.7116 4.72985 17.5857 3.9382 18.5994C3.68326 18.9259 3.74124 19.3972 4.0677 19.6522C4.39416 19.9071 4.86548 19.8491 5.12042 19.5227C5.94593 18.4656 6.58767 17.5257 7.12341 16.5612ZM12.3608 4.44229C12.416 4.8528 12.1281 5.23039 11.7176 5.28566C9.27231 5.61489 7.17534 7.4228 6.59667 9.96776C6.03924 12.4193 5.4546 13.9364 4.73389 15.2339C4.41107 15.8151 4.03571 16.3989 3.56878 17.0419C3.32538 17.377 2.85637 17.4514 2.52121 17.208C2.18606 16.9646 2.11168 16.4956 2.35508 16.1604C2.79208 15.5587 3.13352 15.026 3.4226 14.5055C4.05695 13.3635 4.59896 11.9883 5.13401 9.63519C5.85595 6.46011 8.47198 4.20911 11.5174 3.79907C11.9279 3.7438 12.3055 4.03178 12.3608 4.44229ZM13.3123 4.48701C13.4042 4.08311 13.8061 3.83013 14.21 3.92197C18.2939 4.85056 20.8518 8.91401 19.9232 12.9979C19.7156 13.9108 19.4922 14.7841 19.2464 15.6266C19.1303 16.0243 18.7139 16.2526 18.3163 16.1365C17.9187 16.0205 17.6904 15.6041 17.8064 15.2065C18.0427 14.3968 18.2587 13.5531 18.4605 12.6653C19.2054 9.38923 17.1535 6.12955 13.8774 5.38463C13.4735 5.2928 13.2205 4.89092 13.3123 4.48701ZM17.8743 17.4513C18.2602 17.602 18.4508 18.037 18.3 18.4228C17.8359 19.6109 17.3037 20.7494 16.6812 21.8701C16.4801 22.2322 16.0235 22.3627 15.6614 22.1616C15.2993 21.9604 15.1688 21.5039 15.3699 21.1418C15.9587 20.0818 16.4624 19.0045 16.9029 17.877C17.0536 17.4912 17.4885 17.3006 17.8743 17.4513ZM12.998 9.25257C12.303 9.09454 11.6101 9.29903 11.1181 9.73829C10.8091 10.0141 10.7823 10.4883 11.0581 10.7972C11.334 11.1062 11.8081 11.1331 12.1171 10.8572C12.2626 10.7274 12.4637 10.6694 12.6654 10.7152C12.9975 10.7908 13.2055 11.1212 13.13 11.4533C12.6841 13.4147 12.1845 15.0326 11.5657 16.4901C11.4039 16.8714 11.5817 17.3117 11.963 17.4736C12.3443 17.6355 12.7846 17.4576 12.9465 17.0763C13.6087 15.5164 14.1326 13.8094 14.5927 11.7859C14.8519 10.646 14.1379 9.51176 12.998 9.25257ZM11.5016 12.8826C11.6117 12.4833 11.3773 12.0703 10.978 11.9602C10.5787 11.8501 10.1657 12.0845 10.0556 12.4838C9.53835 14.3592 8.94838 15.8157 8.20165 17.16C7.63907 18.1729 6.97064 19.1529 6.1359 20.2262C5.8816 20.5532 5.94051 21.0244 6.26747 21.2787C6.59443 21.533 7.06564 21.4741 7.31994 21.1471C8.18856 20.0303 8.90365 18.9853 9.51295 17.8884C10.3258 16.4249 10.9576 14.855 11.5016 12.8826ZM11.9024 19.2156C12.1035 18.8535 11.973 18.3969 11.6109 18.1958C11.2488 17.9947 10.7922 18.1252 10.5911 18.4873C10.0506 19.4603 9.43354 20.3906 8.71995 21.3453C8.47197 21.6771 8.53991 22.1471 8.87169 22.3951C9.20348 22.6431 9.67346 22.5751 9.92144 22.2433C10.6669 21.2459 11.323 20.2588 11.9024 19.2156Z" fill="#000001"/>
</g>
</svg>
