<svg width="24" height="24" viewBox="0 0 24 24" fill="none" xmlns="http://www.w3.org/2000/svg">
<g id="size=24">
<path id="Path" fill-rule="evenodd" clip-rule="evenodd" d="M15.794 12.0598C15.886 11.6569 16.2884 11.4038 16.6915 11.4944C17.0944 11.5866 17.3481 11.9886 17.2569 12.3919C16.5364 15.5603 15.6399 18.1131 14.2901 20.5432C13.8824 21.2772 13.4424 21.9829 12.9727 22.6721C12.7394 23.0131 12.2725 23.1024 11.9307 22.8704C11.5899 22.6371 11.5015 22.1692 11.7335 21.8274C12.1802 21.1719 12.5962 20.5048 12.9796 19.8147C14.2429 17.5401 15.0959 15.1296 15.794 12.0598ZM10.5899 18.4876C10.7909 18.1264 11.2478 17.9959 11.6094 18.1956C11.9707 18.3969 12.102 18.8544 11.9014 19.2161C11.3222 20.2587 10.665 21.2465 9.91999 22.2434C9.67202 22.5739 9.20154 22.6426 8.87019 22.3958C8.53986 22.1479 8.47229 21.6773 8.71882 21.346C9.43197 20.3918 10.0497 19.46 10.5899 18.4876ZM16.9014 17.8772C17.0522 17.4923 17.4879 17.3019 17.8731 17.4514C18.258 17.6024 18.4491 18.0378 18.2989 18.4231C17.835 19.6106 17.3019 20.7502 16.6798 21.8704C16.4784 22.2312 16.0218 22.3615 15.6602 22.1614C15.2997 21.9601 15.1684 21.5033 15.3682 21.1419C15.9566 20.0825 16.4612 19.0041 16.9014 17.8772ZM10.0538 12.4837C10.1641 12.0855 10.5782 11.8514 10.9766 11.9602C11.3751 12.0707 11.6097 12.4843 11.5001 12.8831C10.9563 14.8546 10.3243 16.426 9.51179 17.8889C8.90274 18.9852 8.18653 20.0315 7.31843 21.1477C7.06407 21.4731 6.59214 21.5318 6.2657 21.2786C5.94055 21.0243 5.88207 20.5532 6.13484 20.2268C6.96904 19.1542 7.63791 18.1726 8.20027 17.1604C8.9467 15.8165 9.53671 14.3582 10.0538 12.4837ZM5.81062 15.8333C6.01164 15.472 6.46942 15.3414 6.83112 15.5413C7.19216 15.7426 7.32264 16.2001 7.12214 16.5618C6.58666 17.5256 5.94408 18.4664 5.11921 19.5227C4.86432 19.8479 4.39253 19.9064 4.06648 19.6526C3.74149 19.3978 3.68321 18.9259 3.93659 18.5999C4.72763 17.5869 5.32272 16.7114 5.81062 15.8333ZM20.5762 6.10279C20.9396 5.9056 21.3947 6.0398 21.5928 6.4026C22.7538 8.53503 23.1743 11.0861 22.5938 13.6399C22.1982 15.3798 21.7378 17.012 21.1661 18.5803C21.0239 18.9683 20.5927 19.1696 20.2042 19.0286C19.8165 18.8862 19.6161 18.4549 19.7569 18.0667C20.3026 16.5698 20.746 14.9996 21.1309 13.3069C21.6273 11.1227 21.2684 8.94438 20.2755 7.12037C20.0783 6.75725 20.2139 6.3012 20.5762 6.10279ZM11.1173 9.73853C11.6088 9.30012 12.3031 9.09598 12.9971 9.25318C14.136 9.513 14.8506 10.6472 14.5919 11.7864C14.1319 13.809 13.6073 15.5171 12.9454 17.0764C12.7833 17.4564 12.3426 17.6346 11.962 17.4739C11.5822 17.3117 11.4038 16.8709 11.5645 16.4905C12.1831 15.0334 12.6831 13.414 13.129 11.4534C13.2039 11.1219 12.9954 10.791 12.6641 10.7151C12.4633 10.6701 12.2603 10.7285 12.1153 10.8577C11.8065 11.1318 11.3322 11.1049 11.0567 10.7971C10.7823 10.4885 10.8098 10.0142 11.1173 9.73853ZM11.5157 3.79908C11.9256 3.74443 12.3039 4.03278 12.3594 4.44263C12.414 4.85241 12.1255 5.22971 11.7159 5.28541C9.27177 5.61539 7.17448 7.42416 6.59577 9.96803C6.03854 12.4184 5.45287 13.9365 4.73249 15.2337C4.40989 15.8143 4.03391 16.3999 3.56745 17.0422C3.324 17.376 2.85428 17.4506 2.5196 17.2083C2.186 16.9648 2.11151 16.495 2.35359 16.1604C2.78995 15.5595 3.13216 15.0259 3.42097 14.5061C4.05509 13.3644 4.598 11.9871 5.13288 9.63502C5.85497 6.46125 8.47155 4.20988 11.5157 3.79908ZM13.3106 4.48756C13.4026 4.08459 13.8059 3.83148 14.2091 3.92213C18.2919 4.85129 20.85 8.91506 19.9219 12.9983C19.7145 13.9105 19.4908 14.7852 19.2452 15.6272C19.1287 16.0234 18.7122 16.2518 18.3155 16.137C17.9193 16.0204 17.6897 15.603 17.8048 15.2063C18.0408 14.3973 18.2574 13.5523 18.4591 12.6653C19.2034 9.38981 17.1513 6.13033 13.876 5.38502C13.4737 5.29252 13.2199 4.89034 13.3106 4.48756ZM7.79792 10.2415C8.39193 7.63054 10.9915 5.99456 13.6026 6.58717C15.2857 6.97025 16.5643 8.18752 17.1007 9.69947C17.2384 10.0894 17.0332 10.5188 16.6436 10.6575C16.2541 10.7942 15.825 10.5896 15.6866 10.2004C15.3148 9.15291 14.4312 8.3145 13.2706 8.05006C11.4673 7.64103 9.67115 8.7713 9.26081 10.5745C9.02428 11.6146 8.74758 12.6545 8.39558 13.6721C8.25967 14.062 7.83297 14.2693 7.44245 14.135C7.05247 13.9991 6.8442 13.5715 6.97859 13.1809C7.30713 12.231 7.5691 11.2477 7.79792 10.2415ZM3.41706 6.40357C3.61466 6.04047 4.07107 5.90535 4.43464 6.10181C4.79773 6.29971 4.93255 6.75581 4.73542 7.11939C4.35813 7.81427 4.06734 8.57419 3.88288 9.38502C3.39458 11.5322 2.92014 12.7004 2.40437 13.6292C2.2031 13.99 1.74636 14.1212 1.38484 13.9212C1.02436 13.7199 0.893283 13.263 1.09284 12.9016C1.52233 12.1283 1.95406 11.1018 2.41999 9.05299C2.63515 8.107 2.97492 7.2179 3.41706 6.40357ZM4.80573 4.43775C7.23009 1.74019 11.0089 0.398858 14.7999 1.26002C16.9693 1.75352 18.8268 2.89788 20.2071 4.43873C20.4825 4.74702 20.457 5.22109 20.1495 5.49732C19.8412 5.77229 19.366 5.7471 19.0899 5.4397C17.9101 4.12275 16.3243 3.14429 14.4678 2.72193C11.2284 1.98604 7.99653 3.13126 5.92097 5.44068C5.64423 5.74696 5.16998 5.77271 4.86237 5.49732C4.55561 5.22067 4.53025 4.74554 4.80573 4.43775Z" fill="#000001"/>
</g>
</svg>
