<svg width="24" height="24" viewBox="0 0 24 24" fill="none" xmlns="http://www.w3.org/2000/svg">
<g id="size=24">
<path id="Path" fill-rule="evenodd" clip-rule="evenodd" d="M15.7951 12.0604C15.887 11.6572 16.2893 11.4041 16.6925 11.495C17.0953 11.5874 17.3492 11.9893 17.258 12.3924C16.5375 15.5608 15.6409 18.1137 14.2912 20.5438C13.8834 21.2777 13.4435 21.9835 12.9738 22.6727C12.7406 23.0135 12.2735 23.1026 11.9318 22.8709C11.5906 22.6377 11.5024 22.1699 11.7345 21.828C12.1813 21.1724 12.5972 20.5054 12.9806 19.8153C14.244 17.5407 15.097 15.1301 15.7951 12.0604ZM10.591 18.4881C10.792 18.1268 11.2488 17.9962 11.6105 18.1961C11.9714 18.3976 12.103 18.8551 11.9025 19.2166C11.3233 20.2592 10.6661 21.2471 9.92105 22.244C9.6732 22.5743 9.20258 22.6428 8.87125 22.3963C8.54061 22.1485 8.47326 21.678 8.71988 21.3465C9.43302 20.3923 10.0507 19.4606 10.591 18.4881ZM16.9025 17.8778C17.0532 17.4927 17.4888 17.3022 17.8742 17.452C18.2588 17.6032 18.4502 18.0385 18.3 18.4237C17.836 19.6112 17.303 20.7508 16.6808 21.8709C16.4796 22.2316 16.0227 22.3617 15.6613 22.162C15.3004 21.9608 15.1694 21.504 15.3693 21.1424C15.9577 20.0831 16.4622 19.0047 16.9025 17.8778ZM10.0548 12.4842C10.1651 12.0858 10.579 11.8517 10.9777 11.9608C11.3759 12.0715 11.6108 12.485 11.5011 12.8836C10.9573 14.8551 10.3254 16.4266 9.51285 17.8895C8.90381 18.9858 8.18757 20.0321 7.31949 21.1483C7.06525 21.4735 6.59318 21.5319 6.26676 21.2791C5.9413 21.025 5.88304 20.5539 6.1359 20.2274C6.97008 19.1548 7.63898 18.1732 8.20133 17.161C8.94776 15.8171 9.53778 14.3588 10.0548 12.4842ZM5.81168 15.8338C6.01275 15.4724 6.47039 15.3416 6.83219 15.5418C7.19289 15.7434 7.32368 16.2009 7.1232 16.5624C6.58773 17.5262 5.94512 18.467 5.12027 19.5233C4.86549 19.8483 4.39357 19.9066 4.06754 19.6532C3.74224 19.3984 3.68418 18.9266 3.93766 18.6004C4.72867 17.5875 5.32379 16.712 5.81168 15.8338ZM20.5773 6.10337C20.9407 5.9063 21.3959 6.04018 21.5939 6.40317C22.7548 8.53558 23.1754 11.0868 22.5949 13.6405C22.1992 15.3804 21.7389 17.0126 21.1671 18.5809C21.025 18.9687 20.5936 19.1698 20.2052 19.0291C19.8173 18.887 19.6172 18.4556 19.758 18.0672C20.3037 16.5704 20.7471 15.0001 21.132 13.3075C21.6284 11.1234 21.2694 8.94492 20.2765 7.12094C20.079 6.75771 20.2147 6.3018 20.5773 6.10337ZM11.1183 9.73911C11.6099 9.30068 12.304 9.0964 12.9982 9.25376C14.1368 9.51381 14.8517 10.6479 14.5929 11.787C14.133 13.8096 13.6084 15.5177 12.9464 17.077C12.7844 17.4568 12.3435 17.6348 11.963 17.4745C11.583 17.3124 11.4049 16.8716 11.5656 16.4911C12.1841 15.0339 12.6842 13.4146 13.13 11.454C13.2051 11.1226 12.9962 10.7918 12.6652 10.7157C12.4642 10.6705 12.2614 10.7291 12.1164 10.8582C11.8077 11.1323 11.3333 11.1051 11.0578 10.7977C10.783 10.4891 10.8107 10.0149 11.1183 9.73911ZM11.5168 3.79966C11.9266 3.74525 12.3052 4.03332 12.3605 4.44321C12.4149 4.85272 12.1263 5.2301 11.717 5.28598C9.27264 5.61587 7.1755 7.42452 6.59684 9.9686C6.03961 12.4189 5.45394 13.9371 4.73355 15.2342C4.41096 15.8149 4.03496 16.4005 3.56852 17.0428C3.32517 17.3765 2.85531 17.4508 2.52066 17.2088C2.18675 16.9655 2.11248 16.4957 2.35465 16.161C2.79101 15.5601 3.13323 15.0265 3.42203 14.5067C4.05616 13.365 4.59906 11.9876 5.13395 9.63559C5.85599 6.46161 8.47242 4.21036 11.5168 3.79966ZM13.3117 4.48813C13.4036 4.08491 13.8068 3.83178 14.2101 3.9227C18.2928 4.85211 20.8512 8.91573 19.923 12.9989C19.7156 13.911 19.4919 14.7858 19.2463 15.6278C19.1298 16.0237 18.713 16.252 18.3166 16.1375C17.9202 16.0211 17.6908 15.6037 17.8058 15.2069C18.0419 14.3978 18.2584 13.5529 18.4601 12.6659C19.2045 9.39049 17.1521 6.13115 13.8771 5.38559C13.4746 5.29329 13.2211 4.89099 13.3117 4.48813ZM7.79898 10.242C8.39293 7.63086 10.9924 5.99486 13.6037 6.58774C15.2866 6.97099 16.5655 8.18807 17.1017 9.70005C17.2391 10.0897 17.0339 10.5193 16.6447 10.6581C16.2552 10.7949 15.8263 10.59 15.6877 10.201C15.316 9.15346 14.4322 8.31524 13.2716 8.05063C11.4681 7.64134 9.67216 8.77163 9.26188 10.575C9.02534 11.6151 8.74865 12.6551 8.39664 13.6727C8.26075 14.0624 7.83386 14.2695 7.44352 14.1356C7.05331 13.9998 6.84529 13.5722 6.97965 13.1815C7.3082 12.2316 7.57016 11.2483 7.79898 10.242ZM3.41813 6.40415C3.61577 6.04085 4.07204 5.9056 4.4357 6.10239C4.79846 6.30044 4.93359 6.75654 4.73648 7.11997C4.35917 7.81489 4.0684 8.57469 3.88395 9.38559C3.39564 11.5327 2.92121 12.701 2.40543 13.6297C2.20425 13.9904 1.74734 14.1214 1.3859 13.9217C1.02513 13.7206 0.894287 13.2637 1.09391 12.9022C1.5234 12.1289 1.95512 11.1023 2.42105 9.05356C2.63621 8.1075 2.97595 7.21853 3.41813 6.40415ZM4.8068 4.43833C7.23124 1.74072 11.0099 0.399258 14.8009 1.26059C16.9703 1.7542 18.8279 2.8984 20.2082 4.4393C20.4832 4.74756 20.4578 5.22176 20.1505 5.4979C19.8424 5.77279 19.3671 5.74733 19.091 5.44028C17.9113 4.12328 16.3253 3.14497 14.4689 2.72251C11.2294 1.98644 7.99768 3.13179 5.92203 5.44126C5.64541 5.74742 5.17106 5.77291 4.86344 5.4979C4.55635 5.22128 4.5312 4.74623 4.8068 4.43833Z" fill="#000001"/>
</g>
</svg>
