<svg width="24" height="24" viewBox="0 0 24 24" fill="none" xmlns="http://www.w3.org/2000/svg">
<g id="size=24">
<path id="Path" fill-rule="evenodd" clip-rule="evenodd" d="M7.875 1C6.24319 1 5.11573 1.27344 4.37276 1.57192C4.00196 1.72088 3.73025 1.87477 3.5422 2.00068C3.44832 2.06354 3.3757 2.11915 3.32235 2.16328L3.21853 2.25653C3.07857 2.39709 3 2.58736 3 2.78571V22.25C3 22.6642 3.33579 23 3.75 23C4.16421 23 4.5 22.6642 4.5 22.25V15.5993C4.60415 15.5392 4.74638 15.4669 4.93193 15.3924C5.47802 15.173 6.41306 14.9286 7.875 14.9286C9.25671 14.9286 10.4177 15.3869 11.7204 15.9102L11.7644 15.9279C13.0284 16.4358 14.4326 17 16.125 17C17.7568 17 18.8843 16.7266 19.6272 16.4281C19.998 16.2791 20.2697 16.1252 20.4578 15.9993C20.4578 15.9993 20.6415 15.884 20.7815 15.7435C20.9214 15.6029 21 15.4126 21 15.2143V2.78571C21 2.48207 20.8169 2.20839 20.5363 2.0925C20.2608 1.97873 19.9446 2.03904 19.7305 2.24481L19.7216 2.25228C19.7065 2.26479 19.6744 2.2901 19.6233 2.32434C19.5213 2.39263 19.3418 2.49767 19.0681 2.60763C18.522 2.82701 17.5869 3.07143 16.125 3.07143C14.7433 3.07143 13.5823 2.61313 12.2796 2.08977L12.2356 2.0721C10.9716 1.56423 9.56738 1 7.875 1ZM4.5 13.9511V3.17071C4.60415 3.11061 4.74638 3.03834 4.93193 2.9638C5.47802 2.74441 6.41306 2.5 7.875 2.5C9.25671 2.5 10.4177 2.9583 11.7204 3.48166L11.7644 3.49933C13.0284 4.0072 14.4326 4.57143 16.125 4.57143C17.6663 4.57143 18.7576 4.32749 19.5 4.04892V14.8293C19.3958 14.8894 19.2536 14.9617 19.0681 15.0362C18.522 15.2556 17.5869 15.5 16.125 15.5C14.7433 15.5 13.5823 15.0417 12.2796 14.5183L12.2356 14.5007C10.9716 13.9928 9.56738 13.4286 7.875 13.4286C6.33373 13.4286 5.24239 13.6725 4.5 13.9511Z" fill="#000001"/>
</g>
</svg>
