<svg width="16" height="16" viewBox="0 0 16 16" fill="none" xmlns="http://www.w3.org/2000/svg">
<g id="size=16">
<path id="Path" d="M5.375 1C6.50898 1 7.4475 1.38813 8.24414 1.71777L8.28711 1.73535C9.12185 2.0806 9.8106 2.35742 10.625 2.35742C11.5212 2.35742 12.0787 2.20331 12.3887 2.0752C12.5444 2.01079 12.6422 1.9509 12.6914 1.91699C12.7118 1.9029 12.7243 1.89296 12.7295 1.88867C12.942 1.68393 13.2562 1.62214 13.5312 1.7334C13.8145 1.84801 14 2.12311 14 2.42871V10.5713C14 10.7659 13.9243 10.9529 13.7891 11.0928C12.8937 10.2269 13.7791 11.0851 13.7881 11.0938L13.7559 11.126C13.7418 11.1392 13.7244 11.1546 13.7041 11.1719C13.6634 11.2066 13.6094 11.2484 13.542 11.2949C13.4067 11.3882 13.2169 11.4984 12.9629 11.6035C12.4524 11.8146 11.697 12 10.625 12C9.49102 12 8.5525 11.6119 7.75586 11.2822L7.71289 11.2646C6.87815 10.9194 6.1894 10.6426 5.375 10.6426C4.47877 10.6426 3.92128 10.7967 3.61133 10.9248C3.57038 10.9417 3.53303 10.9587 3.5 10.9746V14.25C3.5 14.6642 3.16421 15 2.75 15C2.33579 15 2 14.6642 2 14.25V2.42871C2 2.23414 2.07568 2.04709 2.21094 1.90723C3.10588 2.77273 2.22092 1.91498 2.21191 1.90625L2.24414 1.87402C2.2582 1.86081 2.27563 1.84538 2.2959 1.82812C2.33664 1.79344 2.39056 1.75157 2.45801 1.70508C2.59329 1.61184 2.78305 1.5016 3.03711 1.39648C3.54757 1.18535 4.30299 1 5.375 1ZM5.375 2.5C4.47867 2.5 3.92126 2.65411 3.61133 2.78223C3.57038 2.79916 3.53303 2.81616 3.5 2.83203V9.37891C3.97368 9.24263 4.58915 9.14258 5.375 9.14258C6.5091 9.14258 7.44745 9.53166 8.24414 9.86133L8.28711 9.87793C9.1219 10.2232 9.81057 10.5 10.625 10.5C11.5213 10.5 12.0787 10.3459 12.3887 10.2178C12.4296 10.2008 12.467 10.1838 12.5 10.168V3.62109C12.0263 3.75737 11.4108 3.85742 10.625 3.85742C9.4909 3.85742 8.55255 3.46834 7.75586 3.13867L7.71289 3.12207C6.8781 2.7768 6.18943 2.5 5.375 2.5Z" fill="#000001"/>
</g>
</svg>
