<svg width="24" height="24" viewBox="0 0 24 24" fill="none" xmlns="http://www.w3.org/2000/svg">
<g id="size=24">
<path id="Path" d="M9.42188 2C10.1511 2.00008 10.8506 2.29001 11.3662 2.80566L12.1943 3.63379C12.4287 3.86814 12.7467 3.99992 13.0781 4H20.25C21.7688 4 23 5.23122 23 6.75V19.25C23 20.7688 21.7688 22 20.25 22H3.75C2.23122 22 1 20.7688 1 19.25V4.75C1 3.23122 2.23122 2 3.75 2H9.42188ZM3.75 3.5C3.05964 3.5 2.5 4.05964 2.5 4.75V7H19.25C19.6642 7 20 7.33579 20 7.75C20 8.16421 19.6642 8.5 19.25 8.5H2.5V19.25C2.5 19.9404 3.05964 20.5 3.75 20.5H20.25C20.9404 20.5 21.5 19.9404 21.5 19.25V6.75C21.5 6.05964 20.9404 5.5 20.25 5.5H13.0781C12.3489 5.49992 11.6494 5.20999 11.1338 4.69434L10.3057 3.86621C10.0713 3.63186 9.75329 3.50008 9.42188 3.5H3.75Z" fill="#000001"/>
</g>
</svg>
