<svg width="16" height="16" viewBox="0 0 16 16" fill="none" xmlns="http://www.w3.org/2000/svg">
<g id="size=16">
<g id="Union">
<path d="M1.5 3.24999C1.5 2.83578 1.83578 2.5 2.25 2.5H6.62867C6.82758 2.5 7.01834 2.57901 7.159 2.71966L8.28031 3.84098C8.70227 4.26294 9.27457 4.49999 9.8713 4.49999H13.75C14.1642 4.49999 14.5 4.83578 14.5 5.24999V6.49999C14.5 6.9142 14.8358 7.24999 15.25 7.24999C15.6642 7.24999 16 6.9142 16 6.49999V5.24999C16 4.00735 14.9926 2.99999 13.75 2.99999H9.8713C9.67239 2.99999 9.48162 2.92098 9.34097 2.78032L8.21965 1.65901C7.7977 1.23705 7.2254 0.999998 6.62867 0.999998H2.25C1.00736 0.999998 0 2.00736 0 3.24999V12.75C0 13.9926 1.00736 15 2.25 15H4.74999C5.1642 15 5.49999 14.6642 5.49999 14.25C5.49999 13.8358 5.1642 13.5 4.74999 13.5H2.25C1.83578 13.5 1.5 13.1642 1.5 12.75V3.24999Z" fill="#000001"/>
<path fill-rule="evenodd" clip-rule="evenodd" d="M11.1789 5.43129C11.0554 5.16807 10.7908 4.99999 10.5 4.99999C10.2092 4.99999 9.94465 5.16807 9.82109 5.43129L8.52321 8.19613L5.63608 8.63987C5.35488 8.68308 5.12235 8.88168 5.03567 9.15265C4.94899 9.42362 5.02309 9.72031 5.22699 9.9187L7.42843 12.0606L6.76726 15.09C6.70474 15.3765 6.81488 15.6731 7.0492 15.8494C7.28352 16.0256 7.59906 16.0491 7.85693 15.9096L10.5 14.4794L13.1431 15.9096C13.4009 16.0491 13.7165 16.0256 13.9508 15.8494C14.1851 15.6731 14.2953 15.3765 14.2327 15.09L13.5716 12.0606L15.773 9.9187C15.9769 9.72031 16.051 9.42362 15.9643 9.15265C15.8777 8.88168 15.6451 8.68308 15.3639 8.63987L12.4768 8.19613L11.1789 5.43129ZM9.71117 9.19539L10.5 7.51497L11.2888 9.19539C11.395 9.42157 11.6069 9.58003 11.8538 9.61799L13.6477 9.8937L12.227 11.2761C12.0413 11.4567 11.962 11.7204 12.0172 11.9735L12.4185 13.812L10.8569 12.9671C10.6342 12.8466 10.3658 12.8466 10.1431 12.9671L8.5815 13.812L8.98276 11.9735C9.038 11.7204 8.9587 11.4567 8.77302 11.2761L7.35228 9.8937L9.14619 9.61799C9.39315 9.58003 9.605 9.42157 9.71117 9.19539Z" fill="#000001"/>
</g>
</g>
</svg>
