<svg width="16" height="16" viewBox="0 0 16 16" fill="none" xmlns="http://www.w3.org/2000/svg">
<g id="size=16">
<path id="Path" d="M6.62891 1C7.22556 1.00006 7.79782 1.23728 8.21973 1.65918L9.34082 2.78027C9.48142 2.92087 9.67226 2.99994 9.87109 3H13.75C14.9926 3 16 4.00736 16 5.25V10.5C16 10.9142 15.6642 11.25 15.25 11.25C14.8358 11.25 14.5 10.9142 14.5 10.5V5.25C14.5 4.83579 14.1642 4.5 13.75 4.5H9.87109C9.27444 4.49994 8.70218 4.26272 8.28027 3.84082L7.15918 2.71973C7.01858 2.57913 6.82774 2.50006 6.62891 2.5H2.25C1.83579 2.5 1.5 2.83579 1.5 3.25V12.75C1.5 13.1642 1.83579 13.5 2.25 13.5H2.5C2.91421 13.5 3.25 13.8358 3.25 14.25C3.25 14.6642 2.91421 15 2.5 15H2.25C1.00736 15 0 13.9926 0 12.75V3.25C3.22128e-07 2.00736 1.00736 1 2.25 1H6.62891ZM8.875 11C9.49024 11 10.0434 11.2972 10.4258 11.7607C10.8048 12.2202 11 12.8177 11 13.417V14.25C11 14.6642 10.6642 15 10.25 15C9.83581 15 9.50004 14.6642 9.5 14.25V13.417C9.5 13.1323 9.40516 12.8815 9.26855 12.7158C9.13525 12.5542 8.98909 12.5 8.875 12.5H6.125C6.01091 12.5 5.86475 12.5542 5.73145 12.7158C5.59484 12.8815 5.5 13.1323 5.5 13.417V14.25C5.49996 14.6642 5.16419 15 4.75 15C4.33581 15 4.00004 14.6642 4 14.25V13.417C4 12.8177 4.19518 12.2202 4.57422 11.7607C4.95664 11.2972 5.50976 11 6.125 11H8.875ZM11.5176 11.5889C11.6066 11.1843 12.0066 10.9286 12.4111 11.0176C12.9776 11.1422 13.5004 11.4272 13.8857 11.8506C14.2733 12.2765 14.4995 12.82 14.5 13.3975V14.25C14.5 14.6642 14.1642 15 13.75 15C13.3358 15 13 14.6642 13 14.25V13.3984C12.9998 13.2211 12.9316 13.0309 12.7764 12.8604C12.6187 12.6871 12.3805 12.5466 12.0889 12.4824C11.6843 12.3934 11.4286 11.9934 11.5176 11.5889ZM7.5 5.5C8.88071 5.5 10 6.61929 10 8C9.99996 9.38068 8.88069 10.5 7.5 10.5C6.11931 10.5 5.00004 9.38068 5 8C5 6.61929 6.11929 5.5 7.5 5.5ZM10.5195 6.08008C10.6133 5.67696 11.0157 5.42626 11.4189 5.51953C11.9946 5.65301 12.5187 5.95903 12.9004 6.4043C13.2833 6.85108 13.5 7.41214 13.5 8C13.5 8.58785 13.2833 9.14893 12.9004 9.5957C12.5187 10.0409 11.9946 10.347 11.4189 10.4805C11.0156 10.5738 10.6131 10.3223 10.5195 9.91895C10.4262 9.51555 10.6777 9.11307 11.0811 9.01953C11.3634 8.95399 11.6003 8.8075 11.7617 8.61914C11.9217 8.43231 12 8.2142 12 8C12 7.78566 11.9219 7.5668 11.7617 7.37988C11.6003 7.19162 11.3633 7.046 11.0811 6.98047C10.6775 6.88691 10.426 6.48359 10.5195 6.08008ZM7.5 7C6.94772 7 6.5 7.44772 6.5 8C6.50004 8.55225 6.94774 9 7.5 9C8.05226 9 8.49996 8.55225 8.5 8C8.5 7.44772 8.05228 7 7.5 7Z" fill="#000001"/>
</g>
</svg>
