<svg width="16" height="16" viewBox="0 0 16 16" fill="none" xmlns="http://www.w3.org/2000/svg">
<g id="size=16">
<path id="Path" fill-rule="evenodd" clip-rule="evenodd" d="M2.25 1C1.00736 1 0 2.00736 0 3.25V12.75C0 13.9926 1.00736 15 2.25 15H13.75C14.9926 15 16 13.9926 16 12.75V5.25C16 4.00736 14.9926 3 13.75 3H9.87132C9.67241 3 9.48164 2.92098 9.34099 2.78033L8.21967 1.65901C7.79771 1.23705 7.22542 1 6.62868 1H2.25ZM1.5 3.25C1.5 2.83579 1.83579 2.5 2.25 2.5H6.62868C6.82759 2.5 7.01836 2.57902 7.15901 2.71967L8.28033 3.84099C8.70229 4.26295 9.27458 4.5 9.87132 4.5H13.75C14.1642 4.5 14.5 4.83579 14.5 5.25V12.75C14.5 13.1642 14.1642 13.5 13.75 13.5H2.25C1.83579 13.5 1.5 13.1642 1.5 12.75V7H12.25C12.6642 7 13 6.66421 13 6.25C13 5.83579 12.6642 5.5 12.25 5.5H1.5V3.25Z" fill="#000001"/>
</g>
</svg>
