<svg width="16" height="16" viewBox="0 0 16 16" fill="none" xmlns="http://www.w3.org/2000/svg">
<g id="size=16">
<path id="Path" d="M6.62891 1C7.22556 1.00006 7.79782 1.23728 8.21973 1.65918L9.34082 2.78027C9.48142 2.92087 9.67226 2.99994 9.87109 3H13.75C14.9926 3 16 4.00736 16 5.25V12.75C16 13.9926 14.9926 15 13.75 15H2.25C1.00736 15 0 13.9926 0 12.75V3.25C0 2.00736 1.00736 1 2.25 1H6.62891ZM2.25 2.5C1.83579 2.5 1.5 2.83579 1.5 3.25V5.5H12.25C12.6642 5.5 13 5.83579 13 6.25C13 6.66421 12.6642 7 12.25 7H1.5V12.75C1.5 13.1642 1.83579 13.5 2.25 13.5H13.75C14.1642 13.5 14.5 13.1642 14.5 12.75V5.25C14.5 4.83579 14.1642 4.5 13.75 4.5H9.87109C9.27444 4.49994 8.70218 4.26272 8.28027 3.84082L7.15918 2.71973C7.01858 2.57913 6.82774 2.50006 6.62891 2.5H2.25Z" fill="#000001"/>
</g>
</svg>
