<svg width="16" height="16" viewBox="0 0 16 16" fill="none" xmlns="http://www.w3.org/2000/svg">
<g id="size=16">
<g id="Union">
<path d="M7.75 6C8.16421 6 8.5 6.33579 8.5 6.75V8H9.75C10.1642 8 10.5 8.33579 10.5 8.75C10.5 9.16421 10.1642 9.5 9.75 9.5H8.5V10.75C8.5 11.1642 8.16421 11.5 7.75 11.5C7.33579 11.5 7 11.1642 7 10.75V9.5H5.75C5.33579 9.5 5 9.16421 5 8.75C5 8.33579 5.33579 8 5.75 8H7V6.75C7 6.33579 7.33579 6 7.75 6Z" fill="#000001"/>
<path fill-rule="evenodd" clip-rule="evenodd" d="M0 3.25C0 2.00736 1.00736 1 2.25 1H6.62868C7.22542 1 7.79771 1.23705 8.21967 1.65901L9.34099 2.78033C9.48164 2.92098 9.67241 3 9.87132 3H13.75C14.9926 3 16 4.00736 16 5.25V12.75C16 13.9926 14.9926 15 13.75 15H2.25C1.00736 15 0 13.9926 0 12.75V3.25ZM2.25 2.5C1.83579 2.5 1.5 2.83579 1.5 3.25V12.75C1.5 13.1642 1.83579 13.5 2.25 13.5H13.75C14.1642 13.5 14.5 13.1642 14.5 12.75V5.25C14.5 4.83579 14.1642 4.5 13.75 4.5H9.87132C9.27458 4.5 8.70229 4.26295 8.28033 3.84099L7.15901 2.71967C7.01836 2.57902 6.82759 2.5 6.62868 2.5H2.25Z" fill="#000001"/>
</g>
</g>
</svg>
