<svg width="16" height="16" viewBox="0 0 16 16" fill="none" xmlns="http://www.w3.org/2000/svg">
<g id="size=16">
<g id="Path">
<path d="M1.49999 3.24999C1.49999 2.83578 1.83578 2.49999 2.24999 2.49999H6.62865C6.82757 2.49999 7.01833 2.57901 7.15898 2.71966L8.2803 3.84098C8.70225 4.26293 9.27455 4.49998 9.87128 4.49998H13.7499C14.1642 4.49998 14.4999 4.83577 14.4999 5.24998V6.49998C14.4999 6.91419 14.8357 7.24997 15.2499 7.24997C15.6642 7.24997 15.9999 6.91419 15.9999 6.49998V5.24998C15.9999 4.00734 14.9926 2.99999 13.7499 2.99999H9.87128C9.67237 2.99999 9.48161 2.92097 9.34095 2.78032L8.21964 1.659C7.79768 1.23705 7.22539 0.999996 6.62865 0.999996H2.24999C1.00736 0.999996 0 2.00735 0 3.24999V12.75C0 13.9926 1.00736 14.9999 2.24999 14.9999H4.74998C5.16419 14.9999 5.49998 14.6642 5.49998 14.2499C5.49998 13.8357 5.16419 13.4999 4.74998 13.4999H2.24999C1.83578 13.4999 1.49999 13.1642 1.49999 12.75V3.24999Z" fill="#000001"/>
<path fill-rule="evenodd" clip-rule="evenodd" d="M11.1789 5.43128C11.0553 5.16806 10.7908 4.99998 10.5 4.99998C10.2092 4.99998 9.94463 5.16806 9.82107 5.43128L8.52319 8.19611L5.63607 8.63985C5.35487 8.68307 5.12234 8.88167 5.03566 9.15263C4.94898 9.4236 5.02308 9.72029 5.22698 9.91868L7.42842 12.0606L6.76724 15.09C6.70472 15.3765 6.81486 15.6731 7.04919 15.8493C7.28351 16.0256 7.59904 16.0491 7.85691 15.9096L10.5 14.4794L13.143 15.9096C13.4009 16.0491 13.7165 16.0256 13.9508 15.8493C14.1851 15.6731 14.2952 15.3765 14.2327 15.09L13.5715 12.0606L15.773 9.91868C15.9769 9.72029 16.051 9.4236 15.9643 9.15263C15.8776 8.88167 15.6451 8.68307 15.3639 8.63985L12.4768 8.19611L11.1789 5.43128ZM9.71115 9.19537L10.5 7.51495L11.2888 9.19537C11.395 9.42156 11.6068 9.58001 11.8538 9.61797L13.6477 9.89368L12.227 11.276C12.0413 11.4567 11.962 11.7204 12.0172 11.9735L12.4185 13.812L10.8569 12.967C10.6342 12.8465 10.3658 12.8465 10.1431 12.967L8.58148 13.812L8.98274 11.9735C9.03798 11.7204 8.95869 11.4567 8.77301 11.276L7.35226 9.89368L9.14617 9.61797C9.39313 9.58001 9.60498 9.42156 9.71115 9.19537Z" fill="#000001"/>
</g>
</g>
</svg>
