<svg width="24" height="24" viewBox="0 0 24 24" fill="none" xmlns="http://www.w3.org/2000/svg">
<g id="size=24">
<path id="Path" d="M9.42188 2C10.1511 2.00008 10.8506 2.29001 11.3662 2.80566L12.1943 3.63379C12.4287 3.86814 12.7467 3.99992 13.0781 4H20.25C21.7688 4 23 5.23122 23 6.75V15.75C23 16.1642 22.6642 16.5 22.25 16.5C21.8358 16.5 21.5 16.1642 21.5 15.75V6.75C21.5 6.05964 20.9404 5.5 20.25 5.5H13.0781C12.3489 5.49992 11.6494 5.20999 11.1338 4.69434L10.3057 3.86621C10.0713 3.63186 9.75329 3.50008 9.42188 3.5H3.75C3.05964 3.5 2.5 4.05964 2.5 4.75V7H19.25C19.6642 7 20 7.33579 20 7.75C20 8.16421 19.6642 8.5 19.25 8.5H2.5V19.25C2.5 19.9404 3.05964 20.5 3.75 20.5H5.25C5.66421 20.5 6 20.8358 6 21.25C6 21.6642 5.66421 22 5.25 22H3.75C2.23122 22 1 20.7688 1 19.25V4.75C1 3.23122 2.23122 2 3.75 2H9.42188ZM14.625 17C15.4113 17 16.1491 17.3439 16.6816 17.9287C17.212 18.5111 17.4999 19.2868 17.5 20.083V21.25C17.5 21.6642 17.1642 22 16.75 22C16.3358 22 16 21.6642 16 21.25V20.083C15.9999 19.6418 15.8397 19.2311 15.5732 18.9385C15.3088 18.6481 14.9658 18.5 14.625 18.5H10.375C10.0342 18.5 9.6912 18.6481 9.42676 18.9385C9.16031 19.2311 9.00006 19.6418 9 20.083V21.25C8.99997 21.6642 8.66419 22 8.25 22C7.83581 22 7.50003 21.6642 7.5 21.25V20.083C7.50006 19.2868 7.78796 18.5111 8.31836 17.9287C8.85094 17.3439 9.58868 17 10.375 17H14.625ZM18.2744 17.5586C18.3801 17.1581 18.7909 16.9188 19.1914 17.0244C19.8561 17.1998 20.4418 17.5953 20.8584 18.1445C21.2747 18.6935 21.4994 19.3663 21.5 20.0566V21.25C21.5 21.6642 21.1642 22 20.75 22C20.3358 22 20 21.6642 20 21.25V20.0576C19.9997 19.6913 19.8801 19.337 19.6631 19.0508C19.4462 18.765 19.1448 18.5644 18.8086 18.4756C18.4081 18.3699 18.1688 17.959 18.2744 17.5586ZM12.5 10C14.1569 10 15.5 11.3431 15.5 13C15.5 14.6568 14.1568 16 12.5 16C10.8432 16 9.50003 14.6568 9.5 13C9.5 11.3431 10.8431 10 12.5 10ZM16.2734 10.5645C16.376 10.1632 16.7843 9.92095 17.1855 10.0234C17.8472 10.1925 18.4344 10.5763 18.8535 11.1152C19.2726 11.6541 19.5 12.3174 19.5 13C19.5 13.6826 19.2727 14.3459 18.8535 14.8848C18.4344 15.4237 17.8472 15.8075 17.1855 15.9766C16.7843 16.079 16.376 15.8368 16.2734 15.4355C16.1709 15.0342 16.4131 14.626 16.8145 14.5234C17.1539 14.4367 17.4544 14.2396 17.6689 13.9639C17.8835 13.688 18 13.3488 18 13C18 12.6512 17.8835 12.312 17.6689 12.0361C17.4544 11.7604 17.1539 11.5633 16.8145 11.4766C16.4132 11.374 16.171 10.9657 16.2734 10.5645ZM12.5 11.5C11.6716 11.5 11 12.1716 11 13C11 13.8284 11.6716 14.5 12.5 14.5C13.3284 14.5 14 13.8284 14 13C14 12.1716 13.3284 11.5 12.5 11.5Z" fill="#000001"/>
</g>
</svg>
