<svg width="16" height="16" viewBox="0 0 16 16" fill="none" xmlns="http://www.w3.org/2000/svg">
<g id="size=16">
<path id="Path" d="M8 0C12.4183 0 16 3.58172 16 8C16 12.4183 12.4183 16 8 16C3.58172 16 0 12.4183 0 8C0 3.58172 3.58172 0 8 0ZM8 1.5C4.41015 1.5 1.5 4.41015 1.5 8C1.5 11.5899 4.41015 14.5 8 14.5C11.5899 14.5 14.5 11.5899 14.5 8C14.5 4.41015 11.5899 1.5 8 1.5ZM8 9C8.96535 9.00002 9.72066 9.40301 10.2148 9.77734C10.4638 9.96592 10.6566 10.154 10.7881 10.2969C10.8658 10.3814 10.9416 10.4683 11.0088 10.5615C11.2508 10.8977 11.174 11.3664 10.8379 11.6084C10.5017 11.8504 10.0378 11.765 9.79199 11.4395C9.77047 11.4112 9.59352 11.1878 9.30957 10.9727C8.97879 10.7221 8.53441 10.5 8 10.5C7.46561 10.5 7.02122 10.7221 6.69043 10.9727C6.51341 11.1068 6.34058 11.2634 6.20605 11.4414C5.96331 11.7744 5.49703 11.8494 5.16211 11.6084C4.82596 11.3664 4.74918 10.8977 4.99121 10.5615L4.99219 10.5605C5.20898 10.2609 5.49093 9.99953 5.78418 9.77734C6.27837 9.40296 7.03447 9 8 9ZM6.00684 5C6.55904 5.00009 7.00684 5.44777 7.00684 6C7.00684 6.55223 6.55904 6.99991 6.00684 7H6C5.44772 7 5 6.55228 5 6C5 5.44772 5.44772 5 6 5H6.00684ZM10.0068 5C10.559 5.00009 11.0068 5.44777 11.0068 6C11.0068 6.55223 10.559 6.99991 10.0068 7H10C9.44771 7 9 6.55228 9 6C9 5.44772 9.44771 5 10 5H10.0068Z" fill="#000001"/>
</g>
</svg>
