<svg width="24" height="24" viewBox="0 0 24 24" fill="none" xmlns="http://www.w3.org/2000/svg">
<g id="size=24">
<path id="Path" d="M11.9996 1C18.0748 1 22.9996 5.92487 22.9996 12C22.9996 18.0751 18.0748 23 11.9996 23C5.92467 22.9998 0.999634 18.075 0.999634 12C0.999634 5.92499 5.92467 1.0002 11.9996 1ZM11.9996 2.5C6.7531 2.5002 2.49963 6.75342 2.49963 12C2.49963 17.2466 6.7531 21.4998 11.9996 21.5C17.2463 21.5 21.4996 17.2467 21.4996 12C21.4996 6.75329 17.2463 2.5 11.9996 2.5ZM11.9996 13C13.4999 13 14.7296 13.7464 15.5426 14.4238C15.9555 14.7679 16.2807 15.111 16.5035 15.3682C16.6294 15.5133 16.7533 15.6621 16.8639 15.8193C17.1013 16.1587 17.0186 16.6268 16.6793 16.8643C16.3405 17.101 15.8741 17.0195 15.6364 16.6816L15.6344 16.6797C15.5519 16.566 15.4627 16.4567 15.3707 16.3506C15.1874 16.1391 14.9184 15.8568 14.5817 15.5762C13.8947 15.0038 12.999 14.5 11.9996 14.5C11.0003 14.5001 10.1045 15.0038 9.4176 15.5762C9.02878 15.9002 8.66209 16.2698 8.36389 16.6807C8.12625 17.0194 7.65905 17.1015 7.31995 16.8643C6.98096 16.6268 6.89825 16.1595 7.13538 15.8203C7.24605 15.6627 7.36968 15.5136 7.49573 15.3682C7.71856 15.1111 8.04383 14.7679 8.45667 14.4238C9.2696 13.7464 10.4994 13.0001 11.9996 13ZM9.0094 8C9.56168 8 10.0094 8.44772 10.0094 9C10.0094 9.55229 9.56168 10 9.0094 10H8.99963C8.44752 9.9998 7.99963 9.55216 7.99963 9C7.99963 8.44784 8.44752 8.0002 8.99963 8H9.0094ZM15.0094 8C15.5617 8 16.0094 8.44772 16.0094 9C16.0094 9.55229 15.5617 10 15.0094 10H14.9996C14.4475 9.9998 13.9996 9.55216 13.9996 9C13.9996 8.44784 14.4475 8.0002 14.9996 8H15.0094Z" fill="#000001"/>
</g>
</svg>
