<svg width="24" height="24" viewBox="0 0 24 24" fill="none" xmlns="http://www.w3.org/2000/svg">
<g id="size=24">
<path id="Path" d="M12 1C18.0751 1 23 5.92487 23 12C23 18.0751 18.0751 23 12 23C5.92487 23 1 18.0751 1 12C1 5.92487 5.92487 1 12 1ZM12 2.5C6.75329 2.5 2.5 6.75329 2.5 12C2.5 17.2467 6.75329 21.5 12 21.5C17.2467 21.5 21.5 17.2467 21.5 12C21.5 6.75329 17.2467 2.5 12 2.5ZM12 13C13.5004 13 14.73 13.7463 15.543 14.4238C15.9559 14.768 16.281 15.111 16.5039 15.3682C16.6298 15.5134 16.7536 15.662 16.8643 15.8193C17.1017 16.1587 17.019 16.6268 16.6797 16.8643C16.3409 17.1012 15.8745 17.0196 15.6367 16.6816L15.6348 16.6797C15.5522 16.5659 15.4631 16.4568 15.3711 16.3506C15.1878 16.1391 14.9189 15.8569 14.582 15.5762C13.8951 15.0038 12.9995 14.5 12 14.5C11.0005 14.5 10.1049 15.0037 9.41797 15.5762C9.02906 15.9003 8.66251 16.2698 8.36426 16.6807C8.12665 17.0195 7.65947 17.1015 7.32031 16.8643C6.98105 16.6268 6.8984 16.1596 7.13574 15.8203C7.24646 15.6626 7.36999 15.5137 7.49609 15.3682C7.71897 15.111 8.04409 14.768 8.45703 14.4238C9.27003 13.7463 10.4996 13 12 13ZM9.00977 8C9.56205 8 10.0098 8.44772 10.0098 9C10.0098 9.55229 9.56205 10 9.00977 10H9C8.44772 10 8 9.55229 8 9C8 8.44772 8.44772 8 9 8H9.00977ZM15.0098 8C15.5621 8 16.0098 8.44772 16.0098 9C16.0098 9.55229 15.5621 10 15.0098 10H15C14.4477 10 14 9.55229 14 9C14 8.44772 14.4477 8 15 8H15.0098Z" fill="#000001"/>
</g>
</svg>
