<svg width="16" height="16" viewBox="0 0 16 16" fill="none" xmlns="http://www.w3.org/2000/svg">
<g id="size=16">
<path id="Path" d="M8 0C9.67677 0 10.994 0.638956 11.9932 1.66016C12.973 2.66159 13.6249 4.00546 14.0635 5.40918C14.9392 8.21249 15.0327 11.4821 14.9922 13.4492C14.9619 14.9176 13.7428 16 12.332 16H3.66797C2.25664 16 1.03803 14.916 1.00781 13.4482C0.996111 12.8793 0.99574 12.2075 1.02148 11.4736C1.03604 11.0598 1.38311 10.7357 1.79688 10.75C2.21083 10.7645 2.53503 11.1124 2.52051 11.5264C2.49589 12.2281 2.49562 12.8715 2.50684 13.417C2.51908 14.0124 3.01565 14.5 3.66797 14.5H12.332C12.9848 14.5 13.4797 14.0136 13.4922 13.4189C13.5318 11.4946 13.4333 8.42204 12.6318 5.85645C12.2317 4.57562 11.6731 3.47774 10.9209 2.70898C10.1881 1.96008 9.25108 1.5 8 1.5C6.82957 1.5 5.93786 1.90286 5.23145 2.56055C4.50836 3.23386 3.95236 4.2018 3.53711 5.35449C3.39662 5.74401 2.96676 5.94602 2.57715 5.80566C2.18754 5.66522 1.98561 5.23535 2.12598 4.8457C2.58846 3.56194 3.25134 2.3544 4.20996 1.46191C5.18534 0.554016 6.43897 0 8 0ZM6.21973 4.46973C6.51262 4.17683 6.98738 4.17683 7.28027 4.46973L10.5381 7.72754C10.6737 7.86737 10.75 8.05489 10.75 8.25C10.75 8.44891 10.6709 8.63962 10.5303 8.78027L7.28027 12.0303C6.98738 12.3232 6.51262 12.3232 6.21973 12.0303C5.92683 11.7374 5.92683 11.2626 6.21973 10.9697L8.18945 9H1C0.585786 9 0.25 8.66421 0.25 8.25C0.25 7.83579 0.585786 7.5 1 7.5H8.18945L6.21973 5.53027C5.92683 5.23738 5.92683 4.76262 6.21973 4.46973Z" fill="#000001"/>
</g>
</svg>
