<svg width="24" height="24" viewBox="0 0 24 24" fill="none" xmlns="http://www.w3.org/2000/svg">
<g id="size=24">
<path id="Path" d="M12 1C14.4879 1 16.4058 1.94594 17.8457 3.44824C19.2654 4.92951 20.1959 6.92368 20.8096 9.00977C22.0357 13.1782 22.0617 17.9515 21.9658 20.4746C21.9105 21.9297 20.7005 22.9999 19.2939 23H4.70605C3.29746 22.9999 2.08938 21.9237 2.03418 20.4707C1.99497 19.4365 1.97706 18.0379 2.05078 16.4648C2.0702 16.0511 2.42122 15.7316 2.83496 15.751C3.24865 15.7704 3.56822 16.1214 3.54883 16.5352C3.47752 18.0568 3.49521 19.4121 3.5332 20.4141C3.55625 21.0162 4.05803 21.4999 4.70605 21.5H19.2939C19.9442 21.4999 20.4439 21.0182 20.4668 20.418C20.5611 17.9367 20.5265 13.362 19.3711 9.43359C18.7939 7.47121 17.9534 5.72863 16.7627 4.48633C15.5922 3.26508 14.0599 2.5 12 2.5C10.1637 2.5 8.75284 3.10806 7.64453 4.09375C6.52085 5.09321 5.67631 6.51151 5.05273 8.16504C4.90649 8.55245 4.47343 8.74769 4.08594 8.60156C3.69861 8.45542 3.50264 8.02315 3.64844 7.63574C4.32394 5.84449 5.28308 4.18696 6.64844 2.97266C8.02925 1.74473 9.79356 1 12 1ZM9.20703 6.48242C9.49292 6.18292 9.96793 6.17139 10.2676 6.45703L15.7666 11.7061C15.9076 11.8401 15.9967 12.0291 16 12.2383V12.2617C15.997 12.4469 15.9251 12.6245 15.7998 12.7598C15.7895 12.7709 15.7786 12.7824 15.7676 12.793L10.2676 18.043C9.96793 18.3286 9.49292 18.3171 9.20703 18.0176C8.92139 17.7179 8.93292 17.2429 9.23242 16.957L13.3779 13H1.75C1.33579 13 1 12.6642 1 12.25C1 11.8358 1.33579 11.5 1.75 11.5H13.3779L9.23242 7.54297C8.93292 7.25708 8.92139 6.78207 9.20703 6.48242Z" fill="#000001"/>
</g>
</svg>
