<svg width="24" height="24" viewBox="0 0 24 24" fill="none" xmlns="http://www.w3.org/2000/svg">
<g id="size=24">
<g id="Path">
<path d="M15.0841 8.50136L17.6002 6.50016L17.1574 5.94981C15.1327 4.17316 12.2959 3.55494 9.70923 4.32619C7.1225 5.09744 5.11261 7.18097 4.40552 9.77212C4.36441 9.92271 4.82084 9.64135 5.02261 9.69668L8.49948 9.12664C8.49948 9.12664 8.66949 8.96118 8.76787 8.85375C10.3145 7.16508 12.9361 6.94457 14.7217 8.38128L15.0841 8.50136Z" fill="#EA4335"/>
<path d="M19.5157 9.73306C19.1161 8.27014 18.2957 6.955 17.1551 5.94897L14.7152 8.37467C15.7455 9.21161 16.3324 10.4724 16.3072 11.7949V12.2255C17.5065 12.2255 18.4788 13.192 18.4788 14.3843C18.4788 15.5766 17.5065 16.5432 16.3072 16.5432L11.9642 16.54L11.5311 16.5859V19.9297L11.9642 19.9998H16.3072C18.7974 20.0191 21.0064 18.4149 21.7453 16.0506C22.4841 13.6864 21.5784 11.1201 19.5157 9.73306Z" fill="#4285F4"/>
<path d="M7.61501 19.9982H11.9581V16.54H7.61501C7.30559 16.5399 6.99979 16.4527 6.71834 16.3249L6.10836 16.5129L4.35772 18.2412L4.20523 18.8375C5.18695 19.5745 6.38485 20.0036 7.61501 19.9982Z" fill="#34A853"/>
<path d="M7.615 8.76278C5.20259 8.77711 3.06561 10.3131 2.29571 12.5861C1.5258 14.859 2.29294 17.3754 4.20523 18.8375L6.72443 16.3249C5.84425 15.9295 5.33251 15.0038 5.46867 14.0531C5.60483 13.1025 6.35617 12.3556 7.31237 12.2202C8.26856 12.0848 9.19977 12.5936 9.59743 13.4686L12.1166 10.9641C11.0448 9.571 9.37919 8.75653 7.615 8.76278Z" fill="#FBBC05"/>
</g>
</g>
</svg>
