<svg width="16" height="16" viewBox="0 0 16 16" fill="none" xmlns="http://www.w3.org/2000/svg">
<g id="size=16">
<g id="Group">
<path id="Shape" d="M10.3131 5.37602L12.2002 3.87512L11.8681 3.46236C10.3496 2.12987 8.22202 1.66621 6.28198 2.24464C4.34194 2.82308 2.83452 4.38573 2.3042 6.32909C2.27337 6.44203 2.61569 6.23101 2.76702 6.27251L5.37467 5.84498C5.37467 5.84498 5.50217 5.72088 5.57597 5.64031C6.73592 4.37381 8.7021 4.20843 10.0414 5.28596L10.3131 5.37602Z" fill="#EA4335"/>
<path id="Shape_2" d="M13.6369 6.29986C13.3372 5.20267 12.7219 4.21631 11.8664 3.46179L10.0365 5.28106C10.8092 5.90877 11.2494 6.85436 11.2305 7.84624V8.16916C12.13 8.16916 12.8592 8.89408 12.8592 9.78831C12.8592 10.6825 12.13 11.4075 11.2305 11.4075L7.97325 11.4051L7.64844 11.4395V13.9473L7.97325 13.9999H11.2305C13.0981 14.0144 14.7549 12.8112 15.3091 11.038C15.8632 9.26486 15.1839 7.34012 13.6369 6.29986Z" fill="#4285F4"/>
<path id="Shape_3" d="M4.71139 13.9987H7.96867V11.405H4.71139C4.47932 11.4049 4.24997 11.3395 4.03889 11.2437L3.5814 11.3846L2.26842 12.6809L2.15405 13.1281C2.89034 13.6809 3.78877 14.0026 4.71139 13.9987Z" fill="#34A853"/>
<path id="Shape_4" d="M4.71125 5.57205C2.90194 5.58279 1.29921 6.73476 0.721781 8.4395C0.144351 10.1442 0.719698 12.0315 2.15392 13.1281L4.04332 11.2436C3.38319 10.9471 2.99938 10.2528 3.1015 9.53982C3.20362 8.82685 3.76713 8.26663 4.48428 8.1651C5.20142 8.06358 5.89983 8.44515 6.19807 9.10144L8.08748 7.22304C7.28358 6.17822 6.0344 5.56736 4.71125 5.57205Z" fill="#FBBC05"/>
</g>
</g>
</svg>
