<svg width="16" height="16" viewBox="0 0 16 16" fill="none" xmlns="http://www.w3.org/2000/svg">
<g id="size=16">
<path id="Path" d="M12.2861 0C13.0103 0.000111117 13.7021 0.293466 14.21 0.810547C14.7173 1.32724 15 2.02509 15 2.75C15 3.18785 14.8966 3.61584 14.7031 4H15.25C15.6642 4 16 4.33579 16 4.75V8.25C16 8.66421 15.6642 9 15.25 9H14V15.25C14 15.6642 13.6642 16 13.25 16H2.75C2.33579 16 2 15.6642 2 15.25V9H0.75C0.335786 9 0 8.66421 0 8.25V4.75C0 4.33579 0.335786 4 0.75 4H1.79688C1.60341 3.61584 1.5 3.18785 1.5 2.75C1.5 2.02509 1.7827 1.32724 2.29004 0.810547C2.79788 0.293467 3.48974 0.000112917 4.21387 0C6.01276 0 7.09192 1.31818 7.67285 2.39355C7.9356 2.87997 8.12297 3.36098 8.25 3.74512C8.37703 3.36098 8.5644 2.87997 8.82715 2.39355C9.40808 1.31818 10.4872 0 12.2861 0ZM3.5 14.5H7.5V9H3.5V14.5ZM9 14.5H12.5V9H9V14.5ZM1.5 7.5H7.5V5.5H1.5V7.5ZM9 7.5H14.5V5.5H9V7.5ZM4.21387 1.5C3.89637 1.50011 3.58906 1.62846 3.36035 1.86133C3.13112 2.09475 3 2.41418 3 2.75C3 3.08582 3.13112 3.40525 3.36035 3.63867C3.58906 3.87154 3.89637 3.99989 4.21387 4H6.75098C6.65046 3.72378 6.51934 3.41342 6.35352 3.10645C5.85407 2.18185 5.16488 1.5 4.21387 1.5ZM12.2861 1.5C11.3351 1.5 10.6459 2.18185 10.1465 3.10645C9.98066 3.41342 9.84954 3.72378 9.74902 4H12.2861C12.6036 3.99989 12.9109 3.87154 13.1396 3.63867C13.3689 3.40525 13.5 3.08582 13.5 2.75C13.5 2.41418 13.3689 2.09475 13.1396 1.86133C12.9109 1.62846 12.6036 1.50011 12.2861 1.5Z" fill="#000001"/>
</g>
</svg>
