<svg width="16" height="16" viewBox="0 0 16 16" fill="none" xmlns="http://www.w3.org/2000/svg">
<g id="size=16">
<path id="Path" d="M12.2859 0C13.01 0.000111106 13.7019 0.293538 14.2097 0.810535C14.717 1.32717 14.9997 2.02514 14.9998 2.74996C14.9998 3.18773 14.8963 3.61583 14.7029 3.99994H15.2498C15.6639 3.99994 15.9996 4.33583 15.9998 4.74993V8.24987C15.9998 8.66408 15.664 8.99986 15.2498 8.99986H13.9998V15.2498C13.9998 15.664 13.664 15.9998 13.2498 15.9998H2.74996C2.33575 15.9998 1.99997 15.664 1.99997 15.2498V8.99986H0.749989C0.335781 8.99986 0 8.66408 0 8.24987V4.74993C0.000131524 4.33583 0.335862 3.99994 0.749989 3.99994H1.79685C1.60345 3.61583 1.49998 3.18773 1.49998 2.74996C1.50004 2.02514 1.78273 1.32716 2.29 0.810535C2.79783 0.29354 3.48975 0.000112906 4.2138 0C6.01256 0 7.09179 1.3182 7.67273 2.39352C7.93543 2.87983 8.12285 3.36096 8.24987 3.74506C8.3769 3.36096 8.56432 2.87983 8.82701 2.39352C9.40796 1.3182 10.4872 0 12.2859 0ZM3.49995 14.4998H7.49989V8.99986H3.49995V14.4998ZM8.99986 14.4998H12.4998V8.99986H8.99986V14.4998ZM1.49998 7.49989H7.49989V5.49992H1.49998V7.49989ZM8.99986 7.49989H14.4998V5.49992H8.99986V7.49989ZM4.2138 1.49998C3.89637 1.50009 3.58899 1.62852 3.3603 1.8613C3.13112 2.09466 3.00002 2.41423 2.99995 2.74996C2.99995 3.08571 3.13114 3.40521 3.3603 3.63862C3.589 3.87148 3.89631 3.99983 4.2138 3.99994H6.75087C6.65037 3.72377 6.5192 3.41329 6.35342 3.1064C5.85399 2.18191 5.16474 1.49998 4.2138 1.49998ZM12.2859 1.49998C11.335 1.49998 10.6458 2.18191 10.1463 3.1064C9.98055 3.41329 9.84938 3.72377 9.74887 3.99994H12.2859C12.6034 3.99983 12.9107 3.87148 13.1394 3.63862C13.3686 3.40521 13.4998 3.08572 13.4998 2.74996C13.4997 2.41423 13.3686 2.09466 13.1394 1.8613C12.9108 1.62852 12.6034 1.50009 12.2859 1.49998Z" fill="#000001"/>
</g>
</svg>
