<svg width="24" height="24" viewBox="0 0 24 24" fill="none" xmlns="http://www.w3.org/2000/svg">
<g id="size=24">
<path id="Path" d="M17.5713 1C18.4645 1 19.3312 1.33036 19.9775 1.93359C20.6256 2.53846 21 3.3707 21 4.25C21 4.87961 20.808 5.48495 20.4609 6H21.25C22.2165 6 23 6.7835 23 7.75V11.25C23 12.2165 22.2165 13 21.25 13H21V20.25C21 21.7688 19.7688 23 18.25 23H5.75C4.23122 23 3 21.7688 3 20.25V13H2.75C1.7835 13 1 12.2165 1 11.25V7.75C1 6.7835 1.7835 6 2.75 6H4.03906C3.69204 5.48495 3.5 4.8796 3.5 4.25C3.5 3.3707 3.87439 2.53846 4.52246 1.93359C5.16878 1.33036 6.03545 1 6.92871 1C9.19451 1.00006 10.5991 2.52433 11.3916 3.86914C11.7934 4.55105 12.0643 5.22643 12.2344 5.72754C12.2397 5.74325 12.2449 5.75902 12.25 5.77441C12.2551 5.75902 12.2603 5.74325 12.2656 5.72754C12.4357 5.22643 12.7066 4.55105 13.1084 3.86914C13.9009 2.52433 15.3055 1.00007 17.5713 1ZM4.5 20.25C4.5 20.9404 5.05964 21.5 5.75 21.5H11.5V13H4.5V20.25ZM13 21.5H18.25C18.9404 21.5 19.5 20.9404 19.5 20.25V13H13V21.5ZM2.75 7.5C2.61193 7.5 2.5 7.61193 2.5 7.75V11.25C2.5 11.3881 2.61193 11.5 2.75 11.5H11.5V7.5H2.75ZM13 11.5H21.25C21.3881 11.5 21.5 11.3881 21.5 11.25V7.75C21.5 7.61193 21.3881 7.5 21.25 7.5H13V11.5ZM6.92871 2.5C6.40117 2.5 5.90424 2.69583 5.5459 3.03027C5.18936 3.36308 5 3.80325 5 4.25C5 4.69675 5.18936 5.13692 5.5459 5.46973C5.90424 5.80417 6.40117 6 6.92871 6H10.7402C10.5928 5.59754 10.383 5.11182 10.0996 4.63086C9.41893 3.47576 8.41269 2.50006 6.92871 2.5ZM17.5713 2.5C16.0873 2.50006 15.0811 3.47577 14.4004 4.63086C14.117 5.11182 13.9072 5.59754 13.7598 6H17.5713C18.0988 6 18.5958 5.80417 18.9541 5.46973C19.3106 5.13692 19.5 4.69675 19.5 4.25C19.5 3.80325 19.3106 3.36308 18.9541 3.03027C18.5958 2.69583 18.0988 2.5 17.5713 2.5Z" fill="#000001"/>
</g>
</svg>
