<svg width="24" height="24" viewBox="0 0 24 24" fill="none" xmlns="http://www.w3.org/2000/svg">
<g id="size=24">
<path id="Path" d="M17.5713 0.999985C18.4645 0.999985 19.3312 1.33035 19.9775 1.93358C20.6256 2.53844 21 3.37069 21 4.24998C21 4.87959 20.808 5.48494 20.4609 5.99998H21.25C22.2165 5.99998 23 6.78349 23 7.74998V11.25C23 12.2165 22.2165 13 21.25 13H21V20.25C21 21.7688 19.7688 23 18.25 23H5.75C4.23122 23 3 21.7688 3 20.25V13H2.75C1.7835 13 1 12.2165 1 11.25V7.74998C1.00001 6.78349 1.78351 5.99998 2.75 5.99998H4.03906C3.69205 5.48494 3.5 4.87958 3.5 4.24998C3.5 3.37069 3.8744 2.53844 4.52246 1.93358C5.16878 1.33035 6.03546 0.999985 6.92871 0.999985C9.19451 1.00005 10.5991 2.52431 11.3916 3.86913C11.7934 4.55102 12.0643 5.22642 12.2344 5.72752C12.2397 5.74323 12.2449 5.75901 12.25 5.7744C12.2551 5.75901 12.2603 5.74323 12.2656 5.72752C12.4357 5.22642 12.7066 4.55103 13.1084 3.86913C13.9009 2.52431 15.3055 1.00005 17.5713 0.999985ZM4.5 20.25C4.5 20.9403 5.05964 21.5 5.75 21.5H11.5V13H4.5V20.25ZM13 21.5H18.25C18.9404 21.5 19.5 20.9403 19.5 20.25V13H13V21.5ZM2.75 7.49998C2.61193 7.49998 2.50001 7.61192 2.5 7.74998V11.25C2.5 11.3881 2.61193 11.5 2.75 11.5H11.5V7.49998H2.75ZM13 11.5H21.25C21.3881 11.5 21.5 11.3881 21.5 11.25V7.74998C21.5 7.61192 21.3881 7.49998 21.25 7.49998H13V11.5ZM6.92871 2.49998C6.40117 2.49998 5.90423 2.69582 5.5459 3.03026C5.18936 3.36306 5 3.80324 5 4.24998C5 4.69673 5.18936 5.13691 5.5459 5.46971C5.90424 5.80416 6.40117 5.99998 6.92871 5.99998H10.7402C10.5928 5.59753 10.383 5.1118 10.0996 4.63084C9.41893 3.47575 8.41268 2.50005 6.92871 2.49998ZM17.5713 2.49998C16.0873 2.50005 15.0811 3.47576 14.4004 4.63084C14.117 5.1118 13.9072 5.59753 13.7598 5.99998H17.5713C18.0988 5.99998 18.5958 5.80416 18.9541 5.46971C19.3106 5.13691 19.5 4.69673 19.5 4.24998C19.5 3.80324 19.3106 3.36306 18.9541 3.03026C18.5958 2.69582 18.0988 2.49998 17.5713 2.49998Z" fill="#000001"/>
</g>
</svg>
