<svg width="16" height="16" viewBox="0 0 16 16" fill="none" xmlns="http://www.w3.org/2000/svg">
<g id="size=16">
<path id="Path" d="M12 1C13.6569 1 15 2.34315 15 4C15 5.40901 14.0284 6.59095 12.7188 6.91309C12.4155 10.1319 9.91796 12.5511 6.6582 12.7383C6.32924 14.0381 5.15207 15 3.75 15C2.09315 15 0.75 13.6569 0.75 12C0.75 10.6021 1.70611 9.42778 3 9.09473V2C3 1.58579 3.33579 1.25 3.75 1.25C4.16421 1.25 4.5 1.58579 4.5 2V9.09473C5.54927 9.36481 6.37613 10.1882 6.65137 11.2354C9.08829 11.0597 10.9312 9.29133 11.2129 6.89551C9.93803 6.54962 9 5.38435 9 4C9 2.34315 10.3431 1 12 1ZM3.75 10.5C2.92157 10.5 2.25 11.1716 2.25 12C2.25 12.8284 2.92157 13.5 3.75 13.5C4.57843 13.5 5.25 12.8284 5.25 12C5.25 11.1716 4.57843 10.5 3.75 10.5ZM12 2.5C11.1716 2.5 10.5 3.17157 10.5 4C10.5 4.82843 11.1716 5.5 12 5.5C12.8284 5.5 13.5 4.82843 13.5 4C13.5 3.17157 12.8284 2.5 12 2.5Z" fill="#000001"/>
</g>
</svg>
