<svg width="16" height="16" viewBox="0 0 16 16" fill="none" xmlns="http://www.w3.org/2000/svg">
<g id="size=16">
<path id="Path" d="M8 4.75C9.39786 4.75 10.5722 5.70611 10.9053 7H13.25C13.6642 7 14 7.33579 14 7.75C14 8.16421 13.6642 8.5 13.25 8.5H10.9053C10.5722 9.79389 9.39786 10.75 8 10.75C6.60214 10.75 5.42778 9.79389 5.09473 8.5H2.75C2.33579 8.5 2 8.16421 2 7.75C2 7.33579 2.33579 7 2.75 7H5.09473C5.42778 5.70611 6.60214 4.75 8 4.75ZM8 6.25C7.17157 6.25 6.5 6.92157 6.5 7.75C6.5 8.57843 7.17157 9.25 8 9.25C8.82843 9.25 9.5 8.57843 9.5 7.75C9.5 6.92157 8.82843 6.25 8 6.25Z" fill="#000001"/>
</g>
</svg>
