<svg width="24" height="24" viewBox="0 0 24 24" fill="none" xmlns="http://www.w3.org/2000/svg">
<g id="size=24">
<path id="Path" d="M12 7.75C13.9528 7.75 15.5786 9.14936 15.9297 11H20.25C20.6642 11 21 11.3358 21 11.75C21 12.1642 20.6642 12.5 20.25 12.5H15.9297C15.5786 14.3506 13.9528 15.75 12 15.75C10.0472 15.75 8.42138 14.3506 8.07031 12.5H3.75C3.33579 12.5 3 12.1642 3 11.75C3 11.3358 3.33579 11 3.75 11H8.07031C8.42138 9.14936 10.0472 7.75 12 7.75ZM12 9.25C10.6193 9.25 9.5 10.3693 9.5 11.75C9.5 13.1307 10.6193 14.25 12 14.25C13.3807 14.25 14.5 13.1307 14.5 11.75C14.5 10.3693 13.3807 9.25 12 9.25Z" fill="#000001"/>
</g>
</svg>
