<svg width="16" height="16" viewBox="0 0 16 16" fill="none" xmlns="http://www.w3.org/2000/svg">
<g id="size=16">
<path id="Path" d="M8.5 12C8.77614 12 9 12.2239 9 12.5V15.5C9 15.6842 8.89863 15.8533 8.73633 15.9404C8.57375 16.0274 8.37608 16.0183 8.22266 15.916L7 15.1006L5.77734 15.916C5.62392 16.0183 5.42625 16.0274 5.26367 15.9404C5.10137 15.8533 5 15.6842 5 15.5V12.5C5 12.3674 5.05272 12.2403 5.14648 12.1465C5.24025 12.0527 5.36739 12 5.5 12H8.5ZM13.75 0C14.4404 0 15 0.559644 15 1.25V13.75C15 14.4404 14.4404 15 13.75 15H10.5C10.0858 15 9.75 14.6642 9.75 14.25C9.75 13.8358 10.0858 13.5 10.5 13.5H13.5V10.5H3.25C2.83571 10.5 2.5 10.8359 2.5 11.25V12.75C2.5 13.1642 2.83579 13.5 3.25 13.5H3.5C3.91421 13.5 4.25 13.8358 4.25 14.25C4.25 14.6642 3.91421 15 3.5 15H3.25C2.00736 15 1 13.9926 1 12.75V2.25C1 1.00736 2.00736 0 3.25 0H13.75ZM3.25 1.5C2.83579 1.5 2.5 1.83579 2.5 2.25V9.12793C2.73458 9.04503 2.98704 9 3.25 9H13.5V1.5H3.25Z" fill="#000001"/>
</g>
</svg>
