<svg width="16" height="16" viewBox="0 0 16 16" fill="none" xmlns="http://www.w3.org/2000/svg">
<g id="size=16">
<path id="Path" d="M3.75 1C5.40685 1 6.75 2.34315 6.75 4C6.75 5.34562 5.86395 6.48394 4.64355 6.86426C4.71598 7.0551 4.81798 7.27557 4.95508 7.52051C5.2691 8.0815 5.72286 8.69559 6.2627 9.26465C7.16651 10.2173 8.19813 10.9272 9.11816 11.1641C9.48014 9.91399 10.6333 9 12 9C13.6569 9 15 10.3431 15 12C15 13.6569 13.6569 15 12 15C10.5808 15 9.39195 14.0144 9.08008 12.6904C7.61927 12.4337 6.2114 11.3904 5.1748 10.2979C4.93584 10.046 4.70952 9.78408 4.5 9.51855V14C4.5 14.4142 4.16421 14.75 3.75 14.75C3.33579 14.75 3 14.4142 3 14V6.90527C1.70611 6.57222 0.75 5.39786 0.75 4C0.75 2.34315 2.09315 1 3.75 1ZM12 10.5C11.1716 10.5 10.5 11.1716 10.5 12C10.5 12.8284 11.1716 13.5 12 13.5C12.8284 13.5 13.5 12.8284 13.5 12C13.5 11.1716 12.8284 10.5 12 10.5ZM3.75 2.5C2.92157 2.5 2.25 3.17157 2.25 4C2.25 4.82843 2.92157 5.5 3.75 5.5C4.57843 5.5 5.25 4.82843 5.25 4C5.25 3.17157 4.57843 2.5 3.75 2.5Z" fill="#000001"/>
</g>
</svg>
