<svg width="24" height="24" viewBox="0 0 24 24" fill="none" xmlns="http://www.w3.org/2000/svg">
<g id="size=24">
<g id="Path">
<path d="M21.9635 13.2924L18.6262 3.25641C18.5738 3.10376 18.4275 3.00087 18.2627 3.00087C18.0979 3.00087 17.9516 3.10376 17.8992 3.25641L15.6823 9.92451H8.31632L6.09936 3.25641C6.04735 3.1036 5.90103 3.00049 5.73619 3.00049C5.57135 3.00049 5.42503 3.1036 5.37302 3.25641L2.03928 13.2924C1.93719 13.5992 2.0486 13.9352 2.31537 14.1253L12.0002 21L21.6832 14.1253C21.9512 13.9361 22.0643 13.6 21.9635 13.2924Z" fill="#FC6D26"/>
<path d="M12.0002 20.9948L15.6823 9.92451L8.31926 9.92395L12.0002 20.9948Z" fill="#E24329"/>
<path d="M12.0002 20.9948L8.31632 9.92451L3.16197 9.92395L12.0002 20.9948Z" fill="#FC6D26"/>
<path d="M3.15778 9.92743L2.03745 13.2913C1.93535 13.598 2.04676 13.9341 2.31354 14.1241L12.0002 21L3.15778 9.92743Z" fill="#FCA326"/>
<path d="M3.15952 9.92739H8.32038L6.09927 3.25987C6.04694 3.10722 5.90059 3.00433 5.7358 3.00433C5.57102 3.00433 5.42467 3.10722 5.37233 3.25987L3.15952 9.92739Z" fill="#E24329"/>
<path d="M12.0002 20.9948L15.6823 9.92451L20.8454 9.92395L12.0002 20.9948Z" fill="#FC6D26"/>
<path d="M20.8419 9.92743L21.9622 13.2913C22.0649 13.598 21.9534 13.9344 21.6861 14.1241L12.0002 20.9948L20.8395 9.92743H20.8419Z" fill="#FCA326"/>
<path d="M20.8443 9.92741H15.684L17.901 3.25989C17.953 3.10708 18.0993 3.00397 18.2641 3.00397C18.429 3.00397 18.5753 3.10708 18.6273 3.25989L20.8443 9.92741Z" fill="#E24329"/>
</g>
</g>
</svg>
