<svg width="16" height="16" viewBox="0 0 16 16" fill="none" xmlns="http://www.w3.org/2000/svg">
<g id="size=16">
<g id="Group">
<path id="path46" d="M14.9748 8.90422L14.1906 6.54957L12.6388 1.87915C12.6021 1.7723 12.4997 1.70028 12.3844 1.70028C12.269 1.70028 12.1666 1.7723 12.1299 1.87915L10.5781 6.54673H5.42201L3.87017 1.87915C3.83376 1.77219 3.73134 1.70001 3.61595 1.70001C3.50057 1.70001 3.39814 1.77219 3.36174 1.87915L1.81238 6.54673L1.02817 8.90422C0.956702 9.11893 1.03469 9.35419 1.22142 9.48721L8.00067 14.2994L14.7787 9.48721C14.9663 9.35479 15.0454 9.11955 14.9748 8.90422Z" fill="#FC6D26"/>
<path id="path50" d="M7.99993 14.2958L10.5778 6.54639H5.42334L7.99993 14.2958Z" fill="#E24329"/>
<path id="path58" d="M8.0001 14.2958L5.42144 6.54639H1.81348L8.0001 14.2958Z" fill="#FC6D26"/>
<path id="path66" d="M1.81043 6.54877L1.02622 8.90342C0.954749 9.11813 1.03273 9.35339 1.21947 9.48641L7.99996 14.2994L1.81043 6.54877Z" fill="#FCA326"/>
<path id="path74" d="M1.81152 6.54874H5.42405L3.86931 1.88157C3.83267 1.77472 3.73023 1.7027 3.61488 1.7027C3.49954 1.7027 3.3971 1.77472 3.36046 1.88157L1.81152 6.54874Z" fill="#E24329"/>
<path id="path78" d="M8 14.2958L10.5778 6.54639H14.1916L8 14.2958Z" fill="#FC6D26"/>
<path id="path82" d="M14.1891 6.54877L14.9733 8.90342C15.0452 9.11813 14.9671 9.35363 14.7801 9.48641L8 14.2958L14.1875 6.54877L14.1891 6.54877Z" fill="#FCA326"/>
<path id="path86" d="M14.1907 6.54877H10.5786L12.1305 1.88159C12.1669 1.77463 12.2693 1.70245 12.3847 1.70245C12.5001 1.70245 12.6025 1.77463 12.6389 1.88159L14.1907 6.54877Z" fill="#E24329"/>
</g>
</g>
</svg>
