<svg width="16" height="16" viewBox="0 0 16 16" fill="none" xmlns="http://www.w3.org/2000/svg">
<g id="size=16">
<g id="Group">
<path id="path46" d="M14.9748 8.90416L14.1906 6.54951L12.6388 1.87909C12.6021 1.77224 12.4997 1.70022 12.3844 1.70022C12.269 1.70022 12.1666 1.77224 12.1299 1.87909L10.5781 6.54667H5.42201L3.87017 1.87909C3.83376 1.77213 3.73134 1.69995 3.61595 1.69995C3.50057 1.69995 3.39814 1.77213 3.36174 1.87909L1.81238 6.54667L1.02817 8.90416C0.956702 9.11887 1.03469 9.35413 1.22142 9.48715L8.00067 14.2994L14.7787 9.48715C14.9663 9.35473 15.0454 9.11949 14.9748 8.90416Z" fill="#FC6D26"/>
<path id="path50" d="M7.99993 14.2957L10.5778 6.54626H5.42334L7.99993 14.2957Z" fill="#E24329"/>
<path id="path58" d="M8.0001 14.2957L5.42144 6.54626H1.81348L8.0001 14.2957Z" fill="#FC6D26"/>
<path id="path66" d="M1.81043 6.54871L1.02622 8.90336C0.954749 9.11807 1.03273 9.35333 1.21947 9.48635L7.99996 14.2994L1.81043 6.54871Z" fill="#FCA326"/>
<path id="path74" d="M1.81152 6.54868H5.42405L3.86931 1.88151C3.83267 1.77466 3.73023 1.70264 3.61488 1.70264C3.49954 1.70264 3.3971 1.77466 3.36046 1.88151L1.81152 6.54868Z" fill="#E24329"/>
<path id="path78" d="M8 14.2957L10.5778 6.54626H14.1916L8 14.2957Z" fill="#FC6D26"/>
<path id="path82" d="M14.1891 6.54871L14.9733 8.90336C15.0452 9.11807 14.9671 9.35357 14.7801 9.48635L8 14.2957L14.1875 6.54871L14.1891 6.54871Z" fill="#FCA326"/>
<path id="path86" d="M14.1907 6.54871H10.5786L12.1305 1.88153C12.1669 1.77457 12.2693 1.70239 12.3847 1.70239C12.5001 1.70239 12.6025 1.77457 12.6389 1.88153L14.1907 6.54871Z" fill="#E24329"/>
</g>
</g>
</svg>
