<svg width="24" height="24" viewBox="0 0 24 24" fill="none" xmlns="http://www.w3.org/2000/svg">
<g id="size=24">
<g id="Group">
<path id="path46" d="M21.9636 13.2924L20.8433 9.92856L18.6263 3.25641C18.574 3.10376 18.4276 3.00087 18.2628 3.00087C18.0981 3.00087 17.9517 3.10376 17.8994 3.25641L15.6824 9.92451H8.31644L6.09949 3.25641C6.04747 3.1036 5.90115 3.00049 5.73631 3.00049C5.57147 3.00049 5.42515 3.1036 5.37314 3.25641L3.15974 9.92451L2.03941 13.2924C1.93731 13.5992 2.04872 13.9352 2.31549 14.1253L12.0003 21L21.6834 14.1253C21.9513 13.9361 22.0644 13.6 21.9636 13.2924Z" fill="#FC6D26"/>
<path id="path50" d="M12.0002 20.9948L15.6829 9.92395H8.31934L12.0002 20.9948Z" fill="#E24329"/>
<path id="path58" d="M12.0001 20.9948L8.3162 9.92395H3.16187L12.0001 20.9948Z" fill="#FC6D26"/>
<path id="path66" d="M3.15778 9.92743L2.03745 13.2913C1.93535 13.598 2.04676 13.9341 2.31354 14.1241L12.0001 21L3.15778 9.92743Z" fill="#FCA326"/>
<path id="path74" d="M3.15942 9.92739H8.32028L6.09917 3.25987C6.04684 3.10722 5.90049 3.00433 5.7357 3.00433C5.57092 3.00433 5.42457 3.10722 5.37223 3.25987L3.15942 9.92739Z" fill="#E24329"/>
<path id="path78" d="M12 20.9948L15.6827 9.92395H20.8453L12 20.9948Z" fill="#FC6D26"/>
<path id="path82" d="M20.8418 9.92743L21.9621 13.2913C22.0648 13.598 21.9533 13.9344 21.686 14.1241L12 20.9948L20.8394 9.92743L20.8418 9.92743Z" fill="#FCA326"/>
<path id="path86" d="M20.8443 9.92741H15.6841L17.901 3.25989C17.9531 3.10708 18.0994 3.00397 18.2642 3.00397C18.4291 3.00397 18.5754 3.10708 18.6274 3.25989L20.8443 9.92741Z" fill="#E24329"/>
</g>
</g>
</svg>
