<svg width="16" height="16" viewBox="0 0 16 16" fill="none" xmlns="http://www.w3.org/2000/svg">
<g id="size=16">
<path id="Path" d="M8 0C12.4183 0 16 3.58172 16 8C16 12.4183 12.4183 16 8 16C3.58182 15.9999 0 12.4182 0 8C0 3.58179 3.58182 0.000113647 8 0ZM1.51855 8.5C1.7253 11.2178 3.60397 13.4687 6.12793 14.2266C4.89659 12.5251 4.16367 10.5544 4.02246 8.5H1.51855ZM11.9775 8.5C11.8363 10.5545 11.1034 12.5251 9.87207 14.2266C12.3961 13.4687 14.2747 11.2179 14.4814 8.5H11.9775ZM5.52637 8.5C5.69121 10.5574 6.54934 12.5324 8 14.1641C9.45071 12.5324 10.3088 10.5574 10.4736 8.5H5.52637ZM6.12793 1.77344C3.76049 2.48431 1.96084 4.50878 1.57617 7H4.06836C4.28602 5.12651 4.99684 3.33638 6.12793 1.77344ZM8 1.83594C6.66728 3.33497 5.83441 5.12375 5.58008 7H10.4199C10.1656 5.12371 9.33277 3.33498 8 1.83594ZM9.87207 1.77344C11.0032 3.33639 11.714 5.12648 11.9316 7H14.4238C14.0391 4.50872 12.2396 2.48425 9.87207 1.77344Z" fill="#000001"/>
</g>
</svg>
