<svg width="16" height="16" viewBox="0 0 16 16" fill="none" xmlns="http://www.w3.org/2000/svg">
<g id="size=16">
<path id="Path" d="M11 6C11.4796 6 11.921 6.10043 12.2998 6.33398C12.6813 6.56926 12.9419 6.9041 13.1162 7.27441C13.3525 7.77655 13.4477 8.38514 13.4824 9.01172C14.6159 9.12803 15.5 10.0858 15.5 11.25V13.75C15.5 14.9926 14.4926 16 13.25 16H8.75C7.50736 16 6.5 14.9926 6.5 13.75V11.25C6.5 10.0858 7.38413 9.12803 8.51758 9.01172C8.55228 8.38514 8.6475 7.77655 8.88379 7.27441C9.05806 6.9041 9.31867 6.56926 9.7002 6.33398C10.079 6.10043 10.5204 6 11 6ZM8 0C12.4183 0 16 3.58172 16 8C16 8.41421 15.6642 8.75 15.25 8.75C14.8358 8.75 14.5 8.41421 14.5 8C14.5 5.06092 12.5494 2.57726 9.87207 1.77344C10.4107 2.51764 10.8541 3.31414 11.1943 4.14648C11.3507 4.52968 11.1672 4.96722 10.7842 5.12402C10.4008 5.28074 9.96246 5.09717 9.80566 4.71387C9.38445 3.68351 8.77746 2.71045 8 1.83594C6.66722 3.33499 5.83441 5.1237 5.58008 7H7C7.41421 7 7.75 7.33579 7.75 7.75C7.75 8.16421 7.41421 8.5 7 8.5H5.52637C5.56233 8.94908 5.63165 9.39411 5.73242 9.83203C5.82511 10.2354 5.57321 10.6374 5.16992 10.7305C4.76626 10.8234 4.3634 10.5716 4.27051 10.168C4.14454 9.6205 4.06119 9.06322 4.02246 8.5H1.51855C1.70224 10.9147 3.20565 12.9619 5.31152 13.9199C5.68856 14.0914 5.8551 14.5361 5.68359 14.9131C5.51208 15.2901 5.06747 15.4567 4.69043 15.2852C1.92513 14.0271 0 11.2392 0 8C0 3.58172 3.58172 0 8 0ZM8.75 10.5C8.33579 10.5 8 10.8358 8 11.25V13.75C8 14.1642 8.33579 14.5 8.75 14.5H13.25C13.6642 14.5 14 14.1642 14 13.75V11.25C14 10.8358 13.6642 10.5 13.25 10.5H8.75ZM11 11.5C11.4142 11.5 11.75 11.8358 11.75 12.25V12.75C11.75 13.1642 11.4142 13.5 11 13.5C10.5858 13.5 10.25 13.1642 10.25 12.75V12.25C10.25 11.8358 10.5858 11.5 11 11.5ZM11 7.5C10.7297 7.5 10.5772 7.55591 10.4873 7.61133C10.4002 7.66512 10.3169 7.75232 10.2412 7.91309C10.1242 8.16184 10.0548 8.51878 10.0225 9H11.9775C11.9452 8.51878 11.8758 8.16184 11.7588 7.91309C11.6831 7.75231 11.5998 7.66512 11.5127 7.61133C11.4228 7.55591 11.2703 7.5 11 7.5ZM6.12793 1.77344C3.7604 2.48426 1.96086 4.50871 1.57617 7H4.06836C4.28603 5.12647 4.99679 3.3364 6.12793 1.77344Z" fill="#000001"/>
</g>
</svg>
