<svg width="24" height="24" viewBox="0 0 24 24" fill="none" xmlns="http://www.w3.org/2000/svg">
<g id="size=24">
<path id="Path" d="M12 1C18.0751 1 23 5.92487 23 12C23 18.0751 18.0751 23 12 23C5.92502 22.9998 1 18.075 1 12C1 5.92498 5.92502 1.00018 12 1ZM2.5127 12.5C2.74347 16.9505 6.03814 20.5912 10.3271 21.3535C8.49261 18.7769 7.424 15.7006 7.2666 12.5H2.5127ZM16.7334 12.5C16.576 15.7007 15.5075 18.7768 13.6729 21.3535C17.962 20.5914 21.2565 16.9506 21.4873 12.5H16.7334ZM8.76855 12.5C8.9383 15.6434 10.0724 18.6469 12 21.084C13.9276 18.6469 15.0617 15.6435 15.2314 12.5H8.76855ZM10.3271 2.64648C6.19991 3.38001 2.99333 6.77896 2.55176 11H7.29883C7.53769 7.97973 8.58834 5.08867 10.3271 2.64648ZM12 2.91602C10.1749 5.22354 9.06098 8.03891 8.80371 11H15.1963C14.939 8.03885 13.8252 5.22356 12 2.91602ZM13.6729 2.64648C15.4117 5.08869 16.4623 7.97968 16.7012 11H21.4482C21.0066 6.77887 17.8002 3.37989 13.6729 2.64648Z" fill="#000001"/>
</g>
</svg>
