<svg width="24" height="24" viewBox="0 0 24 24" fill="none" xmlns="http://www.w3.org/2000/svg">
<g id="size=24">
<path id="Path" d="M18 10C19.0671 10 20.0864 10.4353 20.835 11.2031C21.5828 11.9702 21.9999 13.0063 22 14.083V15.0137C23.125 15.138 24 16.0919 24 17.25V21.75C24 22.9926 22.9926 24 21.75 24H14.25C13.0074 24 12 22.9926 12 21.75V17.25C12 16.0919 12.875 15.138 14 15.0137V14.083C14.0001 13.0063 14.4172 11.9702 15.165 11.2031C15.9136 10.4353 16.9329 10 18 10ZM12 1C17.1506 1 21.4732 4.53919 22.6709 9.31738C22.7716 9.71917 22.5268 10.1268 22.125 10.2275C21.7234 10.328 21.3166 10.0841 21.2158 9.68262C20.3143 6.0856 17.3605 3.30184 13.6729 2.64648C14.8893 4.35501 15.7692 6.2834 16.2695 8.32129C16.3682 8.72351 16.1219 9.12977 15.7197 9.22852C15.3175 9.32727 14.9113 9.08098 14.8125 8.67871C14.2971 6.57919 13.3404 4.61067 12 2.91602C10.1748 5.22357 9.06099 8.03884 8.80371 11H12.5C12.9142 11 13.25 11.3358 13.25 11.75C13.25 12.1642 12.9142 12.5 12.5 12.5H8.76855C8.89535 14.8479 9.56057 17.1184 10.6924 19.1328C10.8951 19.4939 10.7663 19.9515 10.4053 20.1543C10.0442 20.3568 9.58758 20.2281 9.38477 19.8672C8.12726 17.629 7.39476 15.1062 7.2666 12.5H2.5127C2.73585 16.8028 5.82272 20.3499 9.9043 21.2686C10.3084 21.3595 10.5626 21.7609 10.4717 22.165C10.3806 22.569 9.97919 22.8224 9.5752 22.7314C4.66695 21.6268 1 17.2427 1 12C1 5.92487 5.92487 1 12 1ZM14.25 16.5C13.8358 16.5 13.5 16.8358 13.5 17.25V21.75C13.5 22.1642 13.8358 22.5 14.25 22.5H21.75C22.1642 22.5 22.5 22.1642 22.5 21.75V17.25C22.5 16.8358 22.1642 16.5 21.75 16.5H14.25ZM18 19C18.4142 19 18.75 19.3358 18.75 19.75V20.25C18.75 20.6642 18.4142 21 18 21C17.5858 21 17.25 20.6642 17.25 20.25V19.75C17.25 19.3358 17.5858 19 18 19ZM18 11.5C17.3432 11.5 16.7096 11.7676 16.2393 12.25C15.7683 12.733 15.5001 13.3919 15.5 14.083V15H20.5V14.083C20.4999 13.3919 20.2317 12.733 19.7607 12.25C19.2904 11.7676 18.6568 11.5 18 11.5ZM10.3271 2.64648C6.19975 3.37989 2.99334 6.77886 2.55176 11H7.29883C7.5377 7.97967 8.58828 5.0887 10.3271 2.64648Z" fill="#000001"/>
</g>
</svg>
