<svg width="16" height="16" viewBox="0 0 16 16" fill="none" xmlns="http://www.w3.org/2000/svg">
<g id="size=16">
<path id="Path" d="M8 0C12.4183 0 16 3.58172 16 8C16 12.4183 12.4183 16 8 16C3.58172 16 0 12.4183 0 8C0 3.58172 3.58172 0 8 0ZM1.51855 8.5C1.72531 11.2179 3.60387 13.4687 6.12793 14.2266C4.89655 12.5251 4.16367 10.5545 4.02246 8.5H1.51855ZM11.9775 8.5C11.8363 10.5545 11.1035 12.5251 9.87207 14.2266C12.3961 13.4687 14.2747 11.2179 14.4814 8.5H11.9775ZM5.52637 8.5C5.69121 10.5574 6.54929 12.5324 8 14.1641C9.45071 12.5324 10.3088 10.5574 10.4736 8.5H5.52637ZM6.12793 1.77344C3.7604 2.48426 1.96086 4.50871 1.57617 7H4.06836C4.28603 5.12647 4.99679 3.3364 6.12793 1.77344ZM8 1.83594C6.66722 3.33499 5.83441 5.1237 5.58008 7H10.4199C10.1656 5.1237 9.33278 3.33499 8 1.83594ZM9.87207 1.77344C11.0032 3.3364 11.714 5.12647 11.9316 7H14.4238C14.0391 4.50871 12.2396 2.48426 9.87207 1.77344Z" fill="#000001"/>
</g>
</svg>
