<svg width="24" height="24" viewBox="0 0 24 24" fill="none" xmlns="http://www.w3.org/2000/svg">
<g id="size=24">
<g id="Group 189">
<path id="Vector" d="M21.8042 12.2299C21.8042 11.5502 21.7491 10.8667 21.6314 10.198H12.1995V14.0486H17.6008C17.3766 15.2906 16.6564 16.3892 15.6019 17.0873V19.5859H18.8243C20.7166 17.8443 21.8042 15.2723 21.8042 12.2299Z" fill="#4285F4"/>
<path id="Vector_2" d="M12.1998 22C14.8967 22 17.1712 21.1145 18.8283 19.586L15.606 17.0874C14.7094 17.6973 13.552 18.0428 12.2035 18.0428C9.59475 18.0428 7.38282 16.2827 6.58917 13.9165H3.26392V16.4922C4.96144 19.8689 8.41897 22 12.1998 22Z" fill="#34A853"/>
<path id="Vector_3" d="M6.58524 13.9164C6.16637 12.6745 6.16637 11.3297 6.58524 10.0878V7.51208H3.26366C1.84538 10.3376 1.84538 13.6666 3.26366 16.4921L6.58524 13.9164Z" fill="#FBBC04"/>
<path id="Vector_4" d="M12.1998 5.95791C13.6255 5.93586 15.0034 6.47231 16.0359 7.45703L18.8908 4.60209C17.0831 2.90455 14.6837 1.97128 12.1998 2.00067C8.41898 2.00067 4.96144 4.13177 3.26392 7.51215L6.58549 10.0878C7.37547 7.71791 9.59109 5.95791 12.1998 5.95791Z" fill="#EA4335"/>
</g>
</g>
</svg>
