<svg width="16" height="16" viewBox="0 0 16 16" fill="none" xmlns="http://www.w3.org/2000/svg">
<g id="size=16">
<g id="Path">
<path d="M14.9001 8.16098C14.9001 7.68517 14.8613 7.20677 14.7785 6.73865H8.13905V9.4341H11.9412C11.7834 10.3035 11.2764 11.0725 10.5341 11.5612V13.3102H12.8025C14.1345 12.091 14.9001 10.2906 14.9001 8.16098Z" fill="#4285F4"/>
<path d="M8.13921 15C10.0376 15 11.6387 14.3801 12.8052 13.3102L10.5369 11.5612C9.90577 11.9881 9.09103 12.2299 8.14182 12.2299C6.30542 12.2299 4.74837 10.9979 4.1897 9.34155H1.84896V11.1445C3.0439 13.5083 5.47775 15 8.13921 15Z" fill="#34A853"/>
<path d="M4.18693 9.34153C3.89208 8.47217 3.89208 7.53085 4.18693 6.66147V4.85848H1.84878C0.850414 6.83636 0.850599 9.16666 1.84896 11.1445L4.18693 9.34153Z" fill="#FBBC04"/>
<path d="M8.13921 3.77054C9.14278 3.75511 10.1127 4.13062 10.8395 4.81992L12.8492 2.82147C11.5766 1.63319 9.88767 0.979895 8.13921 1.00047C5.47775 1.00047 3.04371 2.49222 1.84878 4.85848L4.18693 6.66147C4.74302 5.00251 6.30283 3.77054 8.13921 3.77054Z" fill="#EA4335"/>
</g>
</g>
</svg>
