<svg width="16" height="16" viewBox="0 0 16 16" fill="none" xmlns="http://www.w3.org/2000/svg">
<g id="size=16">
<g id="Path">
<path d="M2.05842 12.2846L2.67583 13.3077C2.80412 13.523 2.98855 13.6923 3.20504 13.8153L5.41008 10.1538H1C1 10.3923 1.06415 10.6307 1.19244 10.8461L2.05842 12.2846Z" fill="#0066DA"/>
<path d="M8 5.84611L5.79496 2.18457C5.57846 2.30765 5.39404 2.47688 5.26575 2.69226L1.19244 9.46149C1.06651 9.67223 1.00017 9.91089 1 10.1538H5.41008L8 5.84611Z" fill="#00AC47"/>
<path d="M12.795 13.8153C13.0115 13.6923 13.1959 13.523 13.3242 13.3077L13.5808 12.8846L14.8076 10.8461C14.9359 10.6307 15 10.3923 15 10.1538H10.5896L11.5281 11.923L12.795 13.8153Z" fill="#EA4335"/>
<path d="M8 5.84611L10.205 2.18462C9.98851 2.06154 9.73994 2 9.48335 2H6.51657C6.25998 2 6.01146 2.06919 5.79496 2.18457L8 5.84611Z" fill="#00832D"/>
<path d="M10.5896 10.1538H5.41008L3.20504 13.8153C3.42154 13.9384 3.67014 14 3.92673 14H12.0733C12.3299 14 12.5785 13.9307 12.795 13.8153L10.5896 10.1538Z" fill="#2684FC"/>
<path d="M12.7709 6.07688L10.7343 2.69226C10.606 2.47688 10.4215 2.30769 10.205 2.18462L8 5.84611L10.5896 10.1538L14.992 10.1538C14.992 9.91534 14.9278 9.67688 14.7995 9.46149L12.7709 6.07688Z" fill="#FFBA00"/>
</g>
</g>
</svg>
