<svg width="24" height="24" viewBox="0 0 24 24" fill="none" xmlns="http://www.w3.org/2000/svg">
<g id="size=24">
<g id="Path">
<path d="M17.8906 22H6.10938C5.36172 22 4.75 21.3864 4.75 20.6364V3.36364C4.75 2.61364 5.36172 2 6.10938 2H14.2656L19.25 7V20.6364C19.25 21.3864 18.6383 22 17.8906 22Z" fill="#7248B9"/>
<path d="M14.2656 2L19.25 7H14.2656V2Z" fill="#56368A"/>
<path d="M16.0781 10.8636H10.1875V9.72723H16.0781V10.8636ZM16.0781 12.4545H10.1875V13.5909H16.0781V12.4545ZM16.0781 15.1818H10.1875V16.3181H16.0781V15.1818Z" fill="#FDFFFF"/>
<path d="M9.05469 10.2954C9.05469 10.6406 8.77574 10.9204 8.43164 10.9204C8.08754 10.9204 7.80859 10.6406 7.80859 10.2954C7.80859 9.95023 8.08754 9.67041 8.43164 9.67041C8.77574 9.67041 9.05469 9.95023 9.05469 10.2954Z" fill="#FDFFFF"/>
<path d="M9.05469 13.0227C9.05469 13.3679 8.77574 13.6477 8.43164 13.6477C8.08754 13.6477 7.80859 13.3679 7.80859 13.0227C7.80859 12.6775 8.08754 12.3977 8.43164 12.3977C8.77574 12.3977 9.05469 12.6775 9.05469 13.0227Z" fill="#FDFFFF"/>
<path d="M9.05469 15.75C9.05469 16.0951 8.77574 16.375 8.43164 16.375C8.08754 16.375 7.80859 16.0951 7.80859 15.75C7.80859 15.4048 8.08754 15.125 8.43164 15.125C8.77574 15.125 9.05469 15.4048 9.05469 15.75Z" fill="#FDFFFF"/>
</g>
</g>
</svg>
