<svg width="24" height="24" viewBox="0 0 24 24" fill="none" xmlns="http://www.w3.org/2000/svg">
<g id="size=24">
<path id="Path" d="M16.0359 7.45703C15.0034 6.47231 13.6256 5.93586 12.1999 5.95791C9.59114 5.95791 7.37552 7.71791 6.58554 10.0878C6.16668 11.3298 6.16655 12.6746 6.58542 13.9165L6.58922 13.9165C7.38287 16.2827 9.59481 18.0428 12.2036 18.0428C13.5501 18.0428 14.7062 17.6983 15.6022 17.09V17.0874C16.6567 16.3892 17.3769 15.2906 17.6011 14.0487H12.1998V10.1981H21.6317C21.7494 10.8668 21.8045 11.5502 21.8045 12.23C21.8045 15.2714 20.7175 17.8428 18.8263 19.5844L18.8283 19.586C17.1712 21.1145 14.8968 22 12.1999 22C8.41903 22 4.9615 19.8689 3.26397 16.4922C1.84569 13.6667 1.84556 10.3377 3.26383 7.51215C4.96136 4.13177 8.41903 2.00067 12.1999 2.00067C14.6838 1.97128 17.0831 2.90455 18.8909 4.60209L16.0359 7.45703Z" fill="#000001"/>
</g>
</svg>
