<svg width="16" height="16" viewBox="0 0 16 16" fill="none" xmlns="http://www.w3.org/2000/svg">
<g id="size=16">
<g id="Group 189">
<path id="Vector" d="M14.9002 8.16098C14.9002 7.68517 14.8614 7.20677 14.7786 6.73865H8.13916V9.4341H11.9413C11.7835 10.3035 11.2765 11.0725 10.5342 11.5612V13.3102H12.8026C14.1346 12.091 14.9002 10.2906 14.9002 8.16098Z" fill="#4285F4"/>
<path id="Vector_2" d="M8.13937 15C10.0378 15 11.6388 14.3801 12.8053 13.3102L10.537 11.5612C9.90593 11.9881 9.09119 12.2299 8.14197 12.2299C6.30557 12.2299 4.74853 10.9979 4.18986 9.34155H1.84912V11.1445C3.04406 13.5083 5.47791 15 8.13937 15Z" fill="#34A853"/>
<path id="Vector_3" d="M4.18703 9.34156C3.89217 8.47221 3.89217 7.53088 4.18703 6.66151V4.85852H1.84887C0.850507 6.8364 0.850507 9.16667 1.84887 11.1445L4.18703 9.34156Z" fill="#FBBC04"/>
<path id="Vector_4" d="M8.13937 3.77054C9.14294 3.75511 10.1128 4.13062 10.8397 4.81992L12.8493 2.82147C11.5768 1.63319 9.88783 0.979895 8.13937 1.00047C5.47791 1.00047 3.04406 2.49224 1.84912 4.85851L4.18727 6.66149C4.74336 5.00254 6.30299 3.77054 8.13937 3.77054Z" fill="#EA4335"/>
</g>
</g>
</svg>
