<svg width="24" height="24" viewBox="0 0 24 24" fill="none" xmlns="http://www.w3.org/2000/svg">
<g id="size=24">
<g id="Group 189">
<path id="Vector" d="M21.8043 12.23C21.8043 11.5502 21.7492 10.8668 21.6316 10.1981H12.1996V14.0487H17.6009C17.3768 15.2906 16.6565 16.3892 15.602 17.0874V19.5859H18.8244C20.7167 17.8443 21.8043 15.2723 21.8043 12.23Z" fill="#4285F4"/>
<path id="Vector_2" d="M12.1997 22C14.8966 22 17.1711 21.1145 18.8282 19.586L15.6059 17.0874C14.7093 17.6973 13.5519 18.0428 12.2034 18.0428C9.59463 18.0428 7.3827 16.2827 6.58905 13.9165H3.26379V16.4922C4.96132 19.8689 8.41885 22 12.1997 22Z" fill="#34A853"/>
<path id="Vector_3" d="M6.58524 13.9165C6.16637 12.6746 6.16637 11.3298 6.58524 10.0878V7.51215H3.26366C1.84538 10.3377 1.84538 13.6666 3.26366 16.4922L6.58524 13.9165Z" fill="#FBBC04"/>
<path id="Vector_4" d="M12.1997 5.95791C13.6254 5.93586 15.0033 6.47231 16.0357 7.45703L18.8907 4.60209C17.0829 2.90455 14.6836 1.97128 12.1997 2.00067C8.41885 2.00067 4.96132 4.13177 3.26379 7.51215L6.58537 10.0878C7.37535 7.71791 9.59096 5.95791 12.1997 5.95791Z" fill="#EA4335"/>
</g>
</g>
</svg>
