<svg width="24" height="24" viewBox="0 0 24 24" fill="none" xmlns="http://www.w3.org/2000/svg">
<g id="size=24">
<g id="Path">
<path d="M21.8044 12.23C21.8044 11.5502 21.7493 10.8668 21.6317 10.1981H12.1997V14.0487H17.601C17.3769 15.2906 16.6566 16.3892 15.6022 17.0874V19.5859H18.8246C20.7168 17.8443 21.8044 15.2723 21.8044 12.23Z" fill="#4285F4"/>
<path d="M12.1999 22C14.8968 22 17.1712 21.1144 18.8284 19.5859L15.6061 17.0874C14.7095 17.6973 13.5521 18.0428 12.2036 18.0428C9.59482 18.0428 7.38289 16.2827 6.58924 13.9165H3.26398V16.4922C4.96151 19.8689 8.41904 22 12.1999 22Z" fill="#34A853"/>
<path d="M6.5854 13.9165C6.16654 12.6745 6.16654 11.3298 6.5854 10.0878V7.51212H3.26382C1.84555 10.3377 1.84571 13.6666 3.26398 16.4922L6.5854 13.9165Z" fill="#FBBC04"/>
<path d="M12.1999 5.95791C13.6256 5.93586 15.0034 6.47231 16.0359 7.45703L18.8909 4.60209C17.0831 2.90455 14.6838 1.97128 12.1999 2.00067C8.41904 2.00067 4.96135 4.13175 3.26382 7.51212L6.5854 10.0878C7.37538 7.71788 9.59115 5.95791 12.1999 5.95791Z" fill="#EA4335"/>
</g>
</g>
</svg>
