<svg width="16" height="16" viewBox="0 0 16 16" fill="none" xmlns="http://www.w3.org/2000/svg">
<g id="size=16">
<g id="Path">
<path d="M12.0625 15H3.9375C3.42188 15 3 14.5705 3 14.0455V1.95455C3 1.42955 3.42188 1 3.9375 1H9.5625L13 4.5V14.0455C13 14.5705 12.5781 15 12.0625 15Z" fill="#7248B9"/>
<path d="M9.5625 1L13 4.5H9.5625V1Z" fill="#56368A"/>
<path d="M10.8125 7.20449H6.75V6.40904H10.8125V7.20449ZM10.8125 8.31813H6.75V9.11358H10.8125V8.31813ZM10.8125 10.2272H6.75V11.0227H10.8125V10.2272Z" fill="#FDFFFF"/>
<path d="M5.96875 6.80676C5.96875 7.04839 5.77637 7.24426 5.53906 7.24426C5.30175 7.24426 5.10938 7.04839 5.10938 6.80676C5.10938 6.56514 5.30175 6.36926 5.53906 6.36926C5.77637 6.36926 5.96875 6.56514 5.96875 6.80676Z" fill="#FDFFFF"/>
<path d="M5.96875 8.71585C5.96875 8.95748 5.77637 9.15335 5.53906 9.15335C5.30175 9.15335 5.10938 8.95748 5.10938 8.71585C5.10938 8.47423 5.30175 8.27835 5.53906 8.27835C5.77637 8.27835 5.96875 8.47423 5.96875 8.71585Z" fill="#FDFFFF"/>
<path d="M5.96875 10.6249C5.96875 10.8666 5.77637 11.0624 5.53906 11.0624C5.30175 11.0624 5.10938 10.8666 5.10938 10.6249C5.10938 10.3833 5.30175 10.1874 5.53906 10.1874C5.77637 10.1874 5.96875 10.3833 5.96875 10.6249Z" fill="#FDFFFF"/>
</g>
</g>
</svg>
