<svg width="16" height="16" viewBox="0 0 16 16" fill="none" xmlns="http://www.w3.org/2000/svg">
<g id="size=16">
<g id="Path">
<path d="M9.5 1L13 4.5H9.5V1Z" fill="#188038"/>
<path d="M9.5 4.5V1H3.9375C3.41953 1 3 1.42716 3 1.95455V14.0455C3 14.5728 3.41953 15 3.9375 15H12.0625C12.5805 15 13 14.5728 13 14.0455V4.5H9.5Z" fill="#34A853"/>
<path d="M5 6V11H11V6H5ZM7.625 10.1379H5.75V8.93103H7.625V10.1379ZM7.625 8.06897H5.75V6.86207H7.625V8.06897ZM10.25 10.1379H8.375V8.93103H10.25V10.1379ZM10.25 8.06897H8.375V6.86207H10.25V8.06897Z" fill="#FDFFFF"/>
</g>
</g>
</svg>
