<svg width="16" height="16" viewBox="0 0 16 16" fill="none" xmlns="http://www.w3.org/2000/svg">
<g id="size=16">
<path id="Path" fill-rule="evenodd" clip-rule="evenodd" d="M12.0625 15H3.9375C3.42188 15 3 14.5705 3 14.0455V1.95455C3 1.42955 3.42188 1 3.9375 1H9.56242L12.9999 4.5L13 14.0455C13 14.5705 12.5781 15 12.0625 15ZM6.75 7.20455H10.8125V6.40909H6.75V7.20455ZM6.75 8.31818H10.8125V9.11364H6.75V8.31818ZM6.75 10.2273H10.8125V11.0227H6.75V10.2273ZM5.96875 6.80682C5.96875 7.04844 5.77637 7.24432 5.53906 7.24432C5.30175 7.24432 5.10937 7.04844 5.10937 6.80682C5.10937 6.56519 5.30175 6.36932 5.53906 6.36932C5.77637 6.36932 5.96875 6.56519 5.96875 6.80682ZM5.53906 9.15341C5.77637 9.15341 5.96875 8.95753 5.96875 8.71591C5.96875 8.47428 5.77637 8.27841 5.53906 8.27841C5.30175 8.27841 5.10937 8.47428 5.10937 8.71591C5.10937 8.95753 5.30175 9.15341 5.53906 9.15341ZM5.96875 10.625C5.96875 10.8666 5.77637 11.0625 5.53906 11.0625C5.30175 11.0625 5.10937 10.8666 5.10937 10.625C5.10937 10.3834 5.30175 10.1875 5.53906 10.1875C5.77637 10.1875 5.96875 10.3834 5.96875 10.625Z" fill="#000001"/>
</g>
</svg>
