<svg width="24" height="24" viewBox="0 0 24 24" fill="none" xmlns="http://www.w3.org/2000/svg">
<g id="size=24">
<g id="Path">
<path d="M13.25 1C12.1454 1 11.25 1.89543 11.25 3V5.0412C7.87504 5.41428 5.25 8.27558 5.25 11.75C5.25 12.1642 5.58579 12.5 6 12.5C6.41421 12.5 6.75 12.1642 6.75 11.75C6.75 8.8505 9.1005 6.5 12 6.5C14.8995 6.5 17.25 8.8505 17.25 11.75C17.25 12.1642 17.5858 12.5 18 12.5C18.4142 12.5 18.75 12.1642 18.75 11.75C18.75 8.27558 16.125 5.41428 12.75 5.0412V3C12.75 2.72386 12.9739 2.5 13.25 2.5H15.5C15.9142 2.5 16.25 2.16421 16.25 1.75C16.25 1.33579 15.9142 1 15.5 1H13.25Z" fill="#000001"/>
<path fill-rule="evenodd" clip-rule="evenodd" d="M2 14.75C2 14.3358 2.33579 14 2.75 14H21.25C21.6642 14 22 14.3358 22 14.75C22 15.1642 21.6642 15.5 21.25 15.5H18.75V21.5H21.25C21.6642 21.5 22 21.8358 22 22.25C22 22.6642 21.6642 23 21.25 23H2.75C2.33579 23 2 22.6642 2 22.25C2 21.8358 2.33579 21.5 2.75 21.5H5.25L5.25 15.5H2.75C2.33579 15.5 2 15.1642 2 14.75ZM6.75 21.5H9.25L9.25 15.5H6.75L6.75 21.5ZM13.25 21.5V15.5H10.75V21.5H13.25ZM14.75 21.5H17.25V15.5H14.75V21.5Z" fill="#000001"/>
</g>
</g>
</svg>
