<svg width="24" height="24" viewBox="0 0 24 24" fill="none" xmlns="http://www.w3.org/2000/svg">
<g id="size=24">
<g id="Path">
<path d="M11.25 2.75C11.25 1.7835 12.0335 1 13 1H15.25C15.6642 1 16 1.33579 16 1.75C16 2.16421 15.6642 2.5 15.25 2.5H13C12.8619 2.5 12.75 2.61193 12.75 2.75V4.5C12.75 4.51282 12.7497 4.52556 12.749 4.53822C16.2187 4.8943 18.9628 7.69687 19.2289 11.1929C19.2603 11.6059 18.951 11.9662 18.5379 11.9976C18.1249 12.0291 17.7646 11.7197 17.7332 11.3067C17.5073 8.33859 15.0264 6 12 6C8.97359 6 6.49267 8.33859 6.26679 11.3067C6.23536 11.7197 5.87506 12.0291 5.46205 11.9976C5.04903 11.9662 4.73969 11.6059 4.77112 11.1929C5.03717 7.69686 7.78133 4.8943 11.251 4.53822C11.2503 4.52556 11.25 4.51282 11.25 4.5V2.75Z" fill="#000001"/>
<path fill-rule="evenodd" clip-rule="evenodd" d="M2 13.75C2 13.3358 2.33579 13 2.75 13H21.25C21.6642 13 22 13.3358 22 13.75C22 14.1642 21.6642 14.5 21.25 14.5H19.5V21.5H22.25C22.6642 21.5 23 21.8358 23 22.25C23 22.6642 22.6642 23 22.25 23H1.75C1.33579 23 1 22.6642 1 22.25C1 21.8358 1.33579 21.5 1.75 21.5H4.5L4.5 14.5H2.75C2.33579 14.5 2 14.1642 2 13.75ZM6 21.5H9L9 14.5H6L6 21.5ZM13.5 21.5V14.5H10.5V21.5H13.5ZM15 21.5H18V14.5H15V21.5Z" fill="#000001"/>
</g>
</g>
</svg>
