<svg width="16" height="16" viewBox="0 0 16 16" fill="none" xmlns="http://www.w3.org/2000/svg">
<g id="size=16">
<path id="Path" d="M14.25 9C14.6642 9 15 9.33579 15 9.75C15 10.1642 14.6642 10.5 14.25 10.5H13V14.5H15.25C15.6642 14.5 16 14.8358 16 15.25C16 15.6642 15.6642 16 15.25 16H0.75C0.335786 16 0 15.6642 0 15.25C0 14.8358 0.335786 14.5 0.75 14.5H3V10.5H1.75C1.33579 10.5 1 10.1642 1 9.75C1 9.33579 1.33579 9 1.75 9H14.25ZM4.5 14.5H7.25V10.5H4.5V14.5ZM8.75 14.5H11.5V10.5H8.75V14.5ZM10.25 0C10.6642 0 11 0.335786 11 0.75C11 1.16421 10.6642 1.5 10.25 1.5H8.75V2.55566C11.0618 2.90338 12.8546 4.83399 12.9912 7.20898C13.015 7.62246 12.6996 7.9771 12.2861 8.00098C11.8726 8.02477 11.5179 7.70845 11.4941 7.29492C11.3883 5.45773 9.86412 4.00001 8 4C6.13587 4 4.61165 5.45773 4.50586 7.29492C4.48207 7.70845 4.1274 8.02477 3.71387 8.00098C3.30041 7.97711 2.985 7.62246 3.00879 7.20898C3.14542 4.83398 4.93817 2.90337 7.25 2.55566V1.25C7.25 0.559644 7.80964 0 8.5 0H10.25Z" fill="#000001"/>
</g>
</svg>
