<svg width="16" height="16" viewBox="0 0 16 16" fill="none" xmlns="http://www.w3.org/2000/svg">
<g id="size=16">
<g id="Path">
<path d="M7.25 1.25C7.25 0.559644 7.80964 0 8.5 0H10.25C10.6642 0 11 0.335786 11 0.75C11 1.16421 10.6642 1.5 10.25 1.5H8.75V2.55587C11.0618 2.90358 12.855 4.83397 12.9916 7.20898C13.0154 7.62251 12.6995 7.97702 12.286 8.00081C11.8724 8.0246 11.5179 7.70865 11.4941 7.29512C11.3884 5.45784 9.86419 4 7.99999 4C6.13579 4 4.61156 5.45784 4.50586 7.29512C4.48208 7.70865 4.12756 8.0246 3.71403 8.00081C3.3005 7.97702 2.98455 7.62251 3.00834 7.20898C3.14497 4.83397 4.93816 2.90357 7.25 2.55587V1.25Z" fill="#000001"/>
<path fill-rule="evenodd" clip-rule="evenodd" d="M1 9.75C1 9.33579 1.33579 9 1.75 9H14.25C14.6642 9 15 9.33579 15 9.75C15 10.1642 14.6642 10.5 14.25 10.5H13V14.5H15.25C15.6642 14.5 16 14.8358 16 15.25C16 15.6642 15.6642 16 15.25 16H0.75C0.335786 16 0 15.6642 0 15.25C0 14.8358 0.335786 14.5 0.75 14.5H3L3 10.5H1.75C1.33579 10.5 1 10.1642 1 9.75ZM4.5 14.5H7.25L7.25 10.5H4.5L4.5 14.5ZM8.75 14.5H11.5V10.5H8.75V14.5Z" fill="#000001"/>
</g>
</g>
</svg>
