<svg width="24" height="24" viewBox="0 0 24 24" fill="none" xmlns="http://www.w3.org/2000/svg">
<g id="size=24">
<path id="Path" d="M21.25 13C21.6642 13 22 13.3358 22 13.75C22 14.1642 21.6642 14.5 21.25 14.5H19.5V21.5H22.25C22.6642 21.5 23 21.8358 23 22.25C23 22.6642 22.6642 23 22.25 23H1.75C1.33579 23 1 22.6642 1 22.25C1 21.8358 1.33579 21.5 1.75 21.5H4.5V14.5H2.75C2.33579 14.5 2 14.1642 2 13.75C2 13.3358 2.33579 13 2.75 13H21.25ZM6 21.5H9V14.5H6V21.5ZM10.5 21.5H13.5V14.5H10.5V21.5ZM15 21.5H18V14.5H15V21.5ZM15.25 1C15.6642 1 16 1.33579 16 1.75C16 2.16421 15.6642 2.5 15.25 2.5H13C12.8619 2.5 12.75 2.61193 12.75 2.75V4.5C12.75 4.51277 12.7497 4.52547 12.749 4.53809C16.2186 4.89417 18.9625 7.69733 19.2285 11.1934C19.2597 11.6062 18.9509 11.9666 18.5381 11.998C18.1251 12.0295 17.7648 11.7197 17.7334 11.3066C17.5075 8.33855 15.0264 6 12 6C8.97361 6 6.49251 8.33855 6.2666 11.3066C6.23517 11.7197 5.87493 12.0295 5.46191 11.998C5.04909 11.9666 4.7403 11.6062 4.77148 11.1934C5.03754 7.69733 7.78135 4.89416 11.251 4.53809C11.2503 4.52547 11.25 4.51277 11.25 4.5V2.75C11.25 1.7835 12.0335 1 13 1H15.25Z" fill="#000001"/>
</g>
</svg>
