<svg width="24" height="24" viewBox="0 0 24 24" fill="none" xmlns="http://www.w3.org/2000/svg">
<g id="size=24">
<path id="Vector" d="M20.9788 10.8216C20.9577 10.4757 20.8942 10.1081 20.7885 9.67568C20.6827 9.24324 20.5135 8.78919 20.2808 8.29189C20.0482 7.81622 19.7309 7.2973 19.329 6.82162C19.181 6.62703 19.0118 6.43243 18.8214 6.25946C19.0964 5.13514 18.483 4.16216 18.483 4.16216C17.4254 4.0973 16.7697 4.48649 16.5159 4.68108C16.4736 4.65946 16.4313 4.63784 16.389 4.63784C16.2197 4.57297 16.0294 4.48649 15.839 4.44324C15.6486 4.37838 15.4583 4.33514 15.2679 4.27027C15.0776 4.22703 14.866 4.18378 14.6545 4.14054C14.6122 4.14054 14.5911 4.14054 14.5488 4.11892C14.0834 2.62703 12.772 2 12.772 2C11.3126 2.95135 11.0165 4.29189 11.0165 4.29189C11.0165 4.29189 11.0165 4.31351 10.9953 4.37838C10.9107 4.4 10.8261 4.42162 10.7415 4.44324C10.6357 4.48649 10.5088 4.52973 10.4031 4.55135C10.2973 4.59459 10.1704 4.63784 10.0646 4.68108C9.85311 4.78919 9.62045 4.8973 9.40893 5.00541C9.19741 5.13514 8.9859 5.26486 8.79553 5.39459C8.77438 5.37297 8.75323 5.37297 8.75323 5.37297C6.72268 4.59459 4.92479 5.56757 4.92479 5.56757C4.75558 7.77297 5.72855 9.17838 5.94007 9.43784C5.89777 9.56757 5.85546 9.71892 5.81316 9.84865C5.6651 10.3459 5.55934 10.8649 5.47474 11.4054C5.47474 11.4919 5.45358 11.5568 5.45358 11.6432C3.54994 12.5514 3 14.4973 3 14.4973C4.56522 16.3351 6.40541 16.4649 6.40541 16.4649C6.63807 16.8973 6.91304 17.2865 7.20917 17.6757C7.33607 17.827 7.46298 17.9784 7.61105 18.1297C7.03995 19.7946 7.69565 21.2 7.69565 21.2C9.45123 21.2649 10.5934 20.4216 10.8261 20.227C10.9953 20.2919 11.1857 20.3351 11.3549 20.3784C11.8837 20.5297 12.4336 20.5946 12.9835 20.6378C13.1105 20.6378 13.2585 20.6378 13.3854 20.6378H13.6604C14.4853 21.8486 15.9236 22 15.9236 22C16.96 20.8973 17.0023 19.7946 17.0023 19.5568C17.0023 19.5568 17.0023 19.5568 17.0023 19.5351C17.0023 19.5135 17.0023 19.4919 17.0023 19.4919C17.0023 19.4703 17.0023 19.4486 17.0023 19.4486C17.2139 19.2973 17.4254 19.1243 17.6157 18.9514C18.0176 18.5622 18.3984 18.1297 18.6945 17.6757C18.7156 17.6324 18.7579 17.5892 18.7791 17.5459C19.9424 17.6108 20.7673 16.8108 20.7673 16.8108C20.577 15.5784 19.879 14.973 19.7309 14.8432C19.7309 14.8432 19.7309 14.8432 19.7098 14.8216H19.6886C19.6886 14.8216 19.6674 14.8216 19.6674 14.8C19.6674 14.7351 19.6886 14.6486 19.6886 14.5838C19.6886 14.4541 19.7098 14.3243 19.7098 14.173V14C19.7098 13.9568 19.7098 13.9784 19.7098 13.9568V13.7622C19.7098 13.7189 19.7098 13.6973 19.7098 13.6541C19.7098 13.6108 19.7098 13.5892 19.7098 13.5459V13.4378L19.6886 13.3297C19.6674 13.2 19.6463 13.0486 19.604 12.9189C19.4771 12.3784 19.2867 11.8811 19.0117 11.427C18.7368 10.973 18.3984 10.5622 18.0176 10.2162C17.6369 9.87027 17.2139 9.61081 16.7697 9.3946C16.3255 9.2 15.8602 9.04865 15.3948 9.00541C15.1622 8.98378 14.9295 8.96216 14.6968 8.96216H14.5911C14.5911 8.96216 14.5488 8.96216 14.5699 8.96216H14.443C14.4007 8.96216 14.3796 8.96216 14.3584 8.96216C14.2315 8.98378 14.1257 8.98378 13.9988 9.00541C13.5335 9.09189 13.1105 9.26487 12.7086 9.5027C12.3278 9.74054 11.9894 10.0216 11.7145 10.3676C11.4395 10.6919 11.228 11.0595 11.0799 11.4486C10.9318 11.8378 10.8472 12.227 10.8261 12.6162C10.8261 12.7027 10.8261 12.8108 10.8261 12.8973C10.8261 12.9189 10.8261 12.9405 10.8261 12.9622V13.0486C10.8261 13.0919 10.8261 13.1351 10.8261 13.1784C10.8472 13.373 10.8895 13.5676 10.9318 13.7405C11.0376 14.1081 11.1857 14.4324 11.3972 14.6919C11.5875 14.973 11.8414 15.1892 12.0952 15.3838C12.349 15.5568 12.624 15.6865 12.8989 15.773C13.1739 15.8595 13.4277 15.8811 13.6816 15.8811C13.7027 15.8811 13.745 15.8811 13.7662 15.8811C13.7873 15.8811 13.8085 15.8811 13.8085 15.8811C13.8296 15.8811 13.8508 15.8811 13.8508 15.8811C13.8719 15.8811 13.9142 15.8811 13.9354 15.8811H13.9777C13.9988 15.8811 14.02 15.8811 14.02 15.8811C14.0623 15.8811 14.0834 15.8811 14.1046 15.8595C14.1257 15.8595 14.168 15.8378 14.1892 15.8378C14.2526 15.8162 14.2949 15.8162 14.3584 15.7946C14.4642 15.7514 14.5699 15.7081 14.6757 15.6649C14.7814 15.6216 14.866 15.5568 14.9506 15.4919C14.9718 15.4703 14.9929 15.4486 15.0141 15.4486C15.0987 15.3838 15.1199 15.2541 15.0353 15.1676C14.9718 15.0811 14.866 15.0595 14.7814 15.1243C14.7603 15.1459 14.7391 15.1459 14.718 15.1676C14.6545 15.2108 14.5699 15.2324 14.4853 15.2541C14.4007 15.2757 14.3161 15.2973 14.2315 15.3189C14.1892 15.3189 14.1469 15.3405 14.1046 15.3405C14.0834 15.3405 14.0623 15.3405 14.0411 15.3405C14.02 15.3405 13.9988 15.3405 13.9777 15.3405C13.9565 15.3405 13.9354 15.3405 13.9142 15.3405C13.8931 15.3405 13.8508 15.3405 13.8296 15.3405H13.8085C13.7873 15.3405 13.7873 15.3405 13.7662 15.3405C13.745 15.3405 13.7239 15.3405 13.7027 15.3405C13.5123 15.3189 13.3008 15.2541 13.1105 15.1676C12.9201 15.0811 12.7297 14.9514 12.5605 14.8C12.3913 14.6486 12.2432 14.4541 12.1375 14.2595C12.0317 14.0432 11.9471 13.827 11.9048 13.5676C11.8837 13.4378 11.8837 13.3297 11.8837 13.2C11.8837 13.1568 11.8837 13.1351 11.8837 13.0919V13.0486C11.8837 13.027 11.8837 13.0054 11.8837 13.0054C11.8837 12.9405 11.9048 12.8757 11.9048 12.8108C11.9894 12.2919 12.2644 11.773 12.6663 11.3838C12.772 11.2757 12.8778 11.1892 12.9835 11.1243C13.0893 11.0378 13.2162 10.973 13.3431 10.9081C13.47 10.8432 13.5969 10.8 13.745 10.7568C13.8719 10.7135 14.02 10.6919 14.168 10.6919C14.2315 10.6919 14.3161 10.6919 14.3796 10.6919C14.4007 10.6919 14.4219 10.6919 14.4219 10.6919H14.6122C14.7603 10.7135 14.9295 10.7351 15.0776 10.7568C15.3737 10.8216 15.6698 10.9297 15.9448 11.1027C16.4947 11.4054 16.96 11.9027 17.2562 12.4865C17.4042 12.7892 17.51 13.0919 17.5523 13.4162C17.5734 13.5027 17.5734 13.5892 17.5734 13.6541V13.7838C17.5734 13.8054 17.5734 13.827 17.5734 13.8486C17.5734 13.8703 17.5734 13.8919 17.5734 13.9135V14.0216C17.5734 14.0649 17.5734 14.1297 17.5734 14.173C17.5734 14.2595 17.5523 14.3459 17.5523 14.4324C17.5523 14.5189 17.5311 14.6054 17.51 14.6919C17.4888 14.7784 17.4677 14.8649 17.4465 14.9514C17.4042 15.1243 17.3408 15.2973 17.2773 15.4703C17.1504 15.7946 16.9812 16.1189 16.7697 16.4216C16.3467 17.0054 15.7967 17.4811 15.141 17.7838C14.8237 17.9351 14.4853 18.0432 14.1257 18.1081C13.9565 18.1297 13.7662 18.1514 13.5969 18.173H13.322C13.2374 18.173 13.1316 18.173 13.047 18.1514C12.6663 18.1297 12.2855 18.0432 11.926 17.9351C11.5664 17.827 11.2068 17.6757 10.8895 17.5027C10.2338 17.1351 9.62045 16.6378 9.15511 16.0324C8.92244 15.7297 8.71093 15.4054 8.54172 15.0811C8.3725 14.7351 8.24559 14.3892 8.13984 14.0216C8.03408 13.6541 7.99177 13.2865 7.94947 12.9189V12.4865C7.94947 12.4432 7.94947 12.4 7.94947 12.3568C7.94947 12.1622 7.97062 11.9892 7.99177 11.7946C8.01293 11.6 8.05523 11.4054 8.07638 11.2324C8.11868 11.0378 8.16099 10.8649 8.20329 10.6703C8.30905 10.3027 8.43596 9.93514 8.58402 9.61081C8.88014 8.94054 9.28202 8.33514 9.76851 7.85946C9.89542 7.72973 10.0223 7.62162 10.1492 7.51351C10.2761 7.40541 10.4031 7.31892 10.5511 7.21081C10.678 7.12432 10.8261 7.03784 10.9741 6.95135C11.0376 6.90811 11.1222 6.88649 11.1857 6.84324C11.228 6.82162 11.2703 6.8 11.2914 6.8C11.3337 6.77838 11.376 6.75676 11.3972 6.75676C11.5452 6.69189 11.7145 6.62703 11.8625 6.58378C11.9048 6.56216 11.9471 6.56216 11.9894 6.54054C12.0317 6.51892 12.074 6.51892 12.1163 6.4973C12.2009 6.47568 12.2855 6.45405 12.349 6.43243C12.3913 6.41081 12.4336 6.41081 12.4759 6.41081C12.5182 6.41081 12.5605 6.38919 12.6028 6.38919C12.6451 6.38919 12.6874 6.36757 12.7297 6.36757L12.7932 6.34595H12.8566C12.8989 6.34595 12.9412 6.32432 12.9835 6.32432C13.0259 6.32432 13.0682 6.3027 13.1316 6.3027C13.1739 6.3027 13.2374 6.28108 13.2797 6.28108C13.3008 6.28108 13.3431 6.28108 13.3643 6.28108H13.4912C13.5335 6.28108 13.5758 6.28108 13.6392 6.28108H13.745C13.7873 6.28108 13.8296 6.28108 13.8719 6.28108C14.0411 6.28108 14.1892 6.28108 14.3372 6.28108C14.6545 6.3027 14.9506 6.32432 15.2468 6.38919C15.839 6.4973 16.4101 6.69189 16.9177 6.95135C17.4254 7.21081 17.8907 7.51351 18.2714 7.85946C18.2926 7.88108 18.3137 7.9027 18.3349 7.92432C18.3561 7.94595 18.3772 7.96757 18.3984 7.98919C18.4407 8.03243 18.483 8.07568 18.5464 8.11892C18.5887 8.16216 18.631 8.20541 18.6733 8.24865C18.7156 8.29189 18.7579 8.33514 18.8002 8.37838C18.9694 8.55135 19.1175 8.74595 19.2656 8.94054C19.5405 9.30811 19.7732 9.67568 19.9424 10.0432C19.9636 10.0649 19.9636 10.0865 19.9847 10.1081C20.0059 10.1297 20.0059 10.1514 20.0059 10.173C20.027 10.2162 20.0482 10.2595 20.0693 10.3027C20.0905 10.3459 20.1116 10.3892 20.1328 10.4324C20.1539 10.4757 20.1751 10.5189 20.1962 10.5622C20.2597 10.7351 20.3231 10.8865 20.3655 11.0378C20.4501 11.2757 20.5135 11.4919 20.5558 11.6865C20.577 11.7514 20.6404 11.8162 20.725 11.7946C20.8096 11.7946 20.8731 11.7297 20.8731 11.6432C21 11.3189 21 11.0811 20.9788 10.8216Z" fill="url(#paint0_linear_2372_362)"/>
</g>
<defs>
<linearGradient id="paint0_linear_2372_362" x1="12.0025" y1="26.4885" x2="12.0025" y2="8.22331" gradientUnits="userSpaceOnUse">
<stop stop-color="#FFF200"/>
<stop offset="1" stop-color="#F15A29"/>
</linearGradient>
</defs>
</svg>
