<svg width="16" height="16" viewBox="0 0 16 16" fill="none" xmlns="http://www.w3.org/2000/svg">
<g id="size=16">
<path id="Vector" d="M13.9847 7.17513C13.9694 6.93297 13.9236 6.67568 13.8472 6.37297C13.7709 6.07027 13.6486 5.75243 13.4806 5.40432C13.3126 5.07135 13.0834 4.70811 12.7932 4.37513C12.6863 4.23892 12.564 4.1027 12.4266 3.98162C12.6251 3.19459 12.1821 2.51351 12.1821 2.51351C11.4183 2.46811 10.9448 2.74054 10.7615 2.87676C10.7309 2.86162 10.7004 2.84649 10.6698 2.84649C10.5476 2.80108 10.4101 2.74054 10.2726 2.71027C10.1351 2.66486 9.99765 2.63459 9.86016 2.58919C9.72268 2.55892 9.56992 2.52865 9.41716 2.49838C9.3866 2.49838 9.37133 2.49838 9.34078 2.48324C9.0047 1.43892 8.05758 1 8.05758 1C7.00353 1.66595 6.78966 2.60432 6.78966 2.60432C6.78966 2.60432 6.78966 2.61946 6.77438 2.66486C6.71328 2.68 6.65217 2.69514 6.59107 2.71027C6.51469 2.74054 6.42303 2.77081 6.34665 2.78595C6.27027 2.81622 6.17861 2.84649 6.10223 2.87676C5.94947 2.95243 5.78143 3.02811 5.62867 3.10378C5.47591 3.19459 5.32315 3.28541 5.18566 3.37622C5.17039 3.36108 5.15511 3.36108 5.15511 3.36108C3.6886 2.81622 2.39013 3.4973 2.39013 3.4973C2.26792 5.04108 2.97062 6.02487 3.12338 6.20649C3.09283 6.2973 3.06228 6.40324 3.03173 6.49405C2.92479 6.84216 2.84841 7.20541 2.78731 7.58378C2.78731 7.64432 2.77203 7.68973 2.77203 7.75027C1.39718 8.38595 1 9.74811 1 9.74811C2.13043 11.0346 3.45946 11.1254 3.45946 11.1254C3.6275 11.4281 3.82609 11.7005 4.03995 11.973C4.13161 12.0789 4.22327 12.1849 4.3302 12.2908C3.91774 13.4562 4.3913 14.44 4.3913 14.44C5.65922 14.4854 6.48414 13.8951 6.65217 13.7589C6.77438 13.8043 6.91187 13.8346 7.03408 13.8649C7.41598 13.9708 7.81316 14.0162 8.21034 14.0465C8.302 14.0465 8.40893 14.0465 8.50059 14.0465H8.69918C9.29495 14.8941 10.3337 15 10.3337 15C11.0823 14.2281 11.1128 13.4562 11.1128 13.2897C11.1128 13.2897 11.1128 13.2897 11.1128 13.2746C11.1128 13.2595 11.1128 13.2443 11.1128 13.2443C11.1128 13.2292 11.1128 13.2141 11.1128 13.2141C11.2656 13.1081 11.4183 12.987 11.5558 12.8659C11.8461 12.5935 12.121 12.2908 12.3349 11.973C12.3502 11.9427 12.3807 11.9124 12.396 11.8822C13.2362 11.9276 13.832 11.3676 13.832 11.3676C13.6945 10.5049 13.1904 10.0811 13.0834 9.99027C13.0834 9.99027 13.0834 9.99027 13.0682 9.97513H13.0529C13.0529 9.97513 13.0376 9.97513 13.0376 9.96C13.0376 9.91459 13.0529 9.85405 13.0529 9.80865C13.0529 9.71784 13.0682 9.62703 13.0682 9.52108V9.4C13.0682 9.36973 13.0682 9.38486 13.0682 9.36973V9.23351C13.0682 9.20324 13.0682 9.18811 13.0682 9.15784C13.0682 9.12757 13.0682 9.11243 13.0682 9.08216V9.00649L13.0529 8.93081C13.0376 8.84 13.0223 8.73405 12.9918 8.64324C12.9001 8.26486 12.7626 7.91676 12.564 7.59892C12.3655 7.28108 12.121 6.99351 11.8461 6.75135C11.5711 6.50919 11.2656 6.32757 10.9448 6.17622C10.624 6.04 10.2879 5.93405 9.95182 5.90378C9.78378 5.88865 9.61575 5.87351 9.44771 5.87351H9.37133C9.37133 5.87351 9.34078 5.87351 9.35605 5.87351H9.26439C9.23384 5.87351 9.21857 5.87351 9.20329 5.87351C9.11163 5.88865 9.03525 5.88865 8.9436 5.90378C8.60752 5.96432 8.302 6.08541 8.01175 6.25189C7.73678 6.41838 7.49236 6.61514 7.29377 6.8573C7.09518 7.08432 6.94242 7.34162 6.83549 7.61405C6.72855 7.88649 6.66745 8.15892 6.65217 8.43135C6.65217 8.49189 6.65217 8.56757 6.65217 8.62811C6.65217 8.64324 6.65217 8.65838 6.65217 8.67351V8.73405C6.65217 8.76432 6.65217 8.79459 6.65217 8.82486C6.66745 8.96108 6.698 9.0973 6.72855 9.21838C6.80494 9.47568 6.91187 9.7027 7.06463 9.88432C7.20212 10.0811 7.38543 10.2324 7.56874 10.3686C7.75206 10.4897 7.95065 10.5805 8.14924 10.6411C8.34783 10.7016 8.53114 10.7168 8.71445 10.7168C8.72973 10.7168 8.76028 10.7168 8.77556 10.7168C8.79083 10.7168 8.80611 10.7168 8.80611 10.7168C8.82139 10.7168 8.83666 10.7168 8.83666 10.7168C8.85194 10.7168 8.88249 10.7168 8.89777 10.7168H8.92832C8.9436 10.7168 8.95887 10.7168 8.95887 10.7168C8.98942 10.7168 9.0047 10.7168 9.01998 10.7016C9.03525 10.7016 9.06581 10.6865 9.08108 10.6865C9.12691 10.6714 9.15746 10.6714 9.20329 10.6562C9.27967 10.6259 9.35605 10.5957 9.43243 10.5654C9.50881 10.5351 9.56992 10.4897 9.63102 10.4443C9.6463 10.4292 9.66157 10.4141 9.67685 10.4141C9.73796 10.3686 9.75323 10.2778 9.69213 10.2173C9.6463 10.1568 9.56992 10.1416 9.50881 10.187C9.49354 10.2022 9.47826 10.2022 9.46299 10.2173C9.41716 10.2476 9.35605 10.2627 9.29495 10.2778C9.23384 10.293 9.17274 10.3081 9.11163 10.3232C9.08108 10.3232 9.05053 10.3384 9.01998 10.3384C9.0047 10.3384 8.98942 10.3384 8.97415 10.3384C8.95887 10.3384 8.9436 10.3384 8.92832 10.3384C8.91304 10.3384 8.89777 10.3384 8.88249 10.3384C8.86722 10.3384 8.83666 10.3384 8.82139 10.3384H8.80611C8.79083 10.3384 8.79083 10.3384 8.77556 10.3384C8.76028 10.3384 8.74501 10.3384 8.72973 10.3384C8.59224 10.3232 8.43948 10.2778 8.302 10.2173C8.16451 10.1568 8.02703 10.0659 7.90482 9.96C7.78261 9.85405 7.67568 9.71784 7.5993 9.58162C7.52291 9.43027 7.46181 9.27892 7.43126 9.0973C7.41598 9.00649 7.41598 8.93081 7.41598 8.84C7.41598 8.80973 7.41598 8.79459 7.41598 8.76432V8.73405C7.41598 8.71892 7.41598 8.70378 7.41598 8.70378C7.41598 8.65838 7.43126 8.61297 7.43126 8.56757C7.49236 8.20432 7.69095 7.84108 7.9812 7.56865C8.05758 7.49297 8.13396 7.43243 8.21034 7.38703C8.28672 7.32649 8.37838 7.28108 8.47004 7.23568C8.56169 7.19027 8.65335 7.16 8.76028 7.12973C8.85194 7.09946 8.95887 7.08432 9.0658 7.08432C9.11163 7.08432 9.17274 7.08432 9.21857 7.08432C9.23384 7.08432 9.24912 7.08432 9.24912 7.08432H9.3866C9.49354 7.09946 9.61575 7.11459 9.72268 7.12973C9.93655 7.17514 10.1504 7.25081 10.349 7.37189C10.7462 7.58378 11.0823 7.93189 11.2961 8.34054C11.4031 8.55243 11.4794 8.76432 11.51 8.99135C11.5253 9.05189 11.5253 9.11243 11.5253 9.15784V9.24865C11.5253 9.26378 11.5253 9.27892 11.5253 9.29405C11.5253 9.30919 11.5253 9.32432 11.5253 9.33946V9.41513C11.5253 9.44541 11.5253 9.49081 11.5253 9.52108C11.5253 9.58162 11.51 9.64216 11.51 9.7027C11.51 9.76324 11.4947 9.82378 11.4794 9.88432C11.4642 9.94487 11.4489 10.0054 11.4336 10.0659C11.4031 10.187 11.3572 10.3081 11.3114 10.4292C11.2197 10.6562 11.0975 10.8832 10.9448 11.0951C10.6392 11.5038 10.2421 11.8368 9.76851 12.0486C9.53937 12.1546 9.29495 12.2303 9.03525 12.2757C8.91304 12.2908 8.77556 12.3059 8.65335 12.3211H8.45476C8.39365 12.3211 8.31727 12.3211 8.25617 12.3059C7.9812 12.2908 7.70623 12.2303 7.44653 12.1546C7.18684 12.0789 6.92714 11.973 6.698 11.8519C6.22444 11.5946 5.78143 11.2465 5.44536 10.8227C5.27732 10.6108 5.12456 10.3838 5.00235 10.1568C4.88014 9.91459 4.78848 9.67243 4.7121 9.41513C4.63572 9.15784 4.60517 8.90054 4.57462 8.64324V8.34054C4.57462 8.31027 4.57462 8.28 4.57462 8.24973C4.57462 8.11351 4.58989 7.99243 4.60517 7.85622C4.62045 7.72 4.651 7.58378 4.66628 7.4627C4.69683 7.32649 4.72738 7.20541 4.75793 7.06919C4.83431 6.81189 4.92597 6.55459 5.0329 6.32757C5.24677 5.85838 5.53702 5.43459 5.88837 5.10162C5.98002 5.01081 6.07168 4.93514 6.16334 4.85946C6.25499 4.78378 6.34665 4.72324 6.45358 4.64757C6.54524 4.58703 6.65217 4.52649 6.75911 4.46595C6.80494 4.43568 6.86604 4.42054 6.91187 4.39027C6.94242 4.37513 6.97297 4.36 6.98825 4.36C7.0188 4.34486 7.04935 4.32973 7.06463 4.32973C7.17156 4.28432 7.29377 4.23892 7.40071 4.20865C7.43126 4.19351 7.46181 4.19351 7.49236 4.17838C7.52291 4.16324 7.55347 4.16324 7.58402 4.14811C7.64512 4.13297 7.70623 4.11784 7.75206 4.1027C7.78261 4.08757 7.81316 4.08757 7.84371 4.08757C7.87427 4.08757 7.90482 4.07243 7.93537 4.07243C7.96592 4.07243 7.99647 4.0573 8.02703 4.0573L8.07286 4.04216H8.11868C8.14924 4.04216 8.17979 4.02703 8.21034 4.02703C8.24089 4.02703 8.27145 4.01189 8.31727 4.01189C8.34783 4.01189 8.39365 3.99676 8.42421 3.99676C8.43948 3.99676 8.47004 3.99676 8.48531 3.99676H8.57697C8.60752 3.99676 8.63807 3.99676 8.6839 3.99676H8.76028C8.79083 3.99676 8.82139 3.99676 8.85194 3.99676C8.97415 3.99676 9.08108 3.99676 9.18801 3.99676C9.41716 4.01189 9.63102 4.02703 9.84489 4.07243C10.2726 4.14811 10.6851 4.28432 11.0517 4.46595C11.4183 4.64757 11.7544 4.85946 12.0294 5.10162C12.0447 5.11676 12.0599 5.13189 12.0752 5.14703C12.0905 5.16216 12.1058 5.1773 12.121 5.19243C12.1516 5.2227 12.1821 5.25297 12.228 5.28324C12.2585 5.31351 12.2891 5.34378 12.3196 5.37405C12.3502 5.40432 12.3807 5.43459 12.4113 5.46486C12.5335 5.58595 12.6404 5.72216 12.7474 5.85838C12.9459 6.11568 13.114 6.37297 13.2362 6.63027C13.2515 6.64541 13.2515 6.66054 13.2667 6.67568C13.282 6.69081 13.282 6.70595 13.282 6.72108C13.2973 6.75135 13.3126 6.78162 13.3278 6.81189C13.3431 6.84216 13.3584 6.87243 13.3737 6.9027C13.389 6.93297 13.4042 6.96324 13.4195 6.99351C13.4653 7.11459 13.5112 7.22054 13.5417 7.32649C13.6028 7.49297 13.6486 7.64432 13.6792 7.78054C13.6945 7.82595 13.7403 7.87135 13.8014 7.85622C13.8625 7.85622 13.9083 7.81081 13.9083 7.75027C14 7.52324 14 7.35676 13.9847 7.17513Z" fill="url(#paint0_linear_2372_364)"/>
</g>
<defs>
<linearGradient id="paint0_linear_2372_364" x1="7.50183" y1="18.142" x2="7.50183" y2="5.35632" gradientUnits="userSpaceOnUse">
<stop stop-color="#FFF200"/>
<stop offset="1" stop-color="#F15A29"/>
</linearGradient>
</defs>
</svg>
