<svg width="16" height="16" viewBox="0 0 16 16" fill="none" xmlns="http://www.w3.org/2000/svg">
<g id="size=16">
<g id="Path">
<path fill-rule="evenodd" clip-rule="evenodd" d="M0 0.75C0 0.335786 0.335786 0 0.75 0H3.25C3.66421 0 4 0.335786 4 0.75V3.25C4 3.66421 3.66421 4 3.25 4H0.75C0.335786 4 0 3.66421 0 3.25V0.75ZM1.5 1.5V2.5H2.5V1.5H1.5Z" fill="#000001"/>
<path fill-rule="evenodd" clip-rule="evenodd" d="M6 0.75C6 0.335786 6.33579 0 6.75 0H9.25C9.66421 0 10 0.335786 10 0.75V3.25C10 3.66421 9.66421 4 9.25 4H6.75C6.33579 4 6 3.66421 6 3.25V0.75ZM7.5 1.5V2.5H8.5V1.5H7.5Z" fill="#000001"/>
<path fill-rule="evenodd" clip-rule="evenodd" d="M12.75 0C12.3358 0 12 0.335786 12 0.75V3.25C12 3.66421 12.3358 4 12.75 4H15.25C15.6642 4 16 3.66421 16 3.25V0.75C16 0.335786 15.6642 0 15.25 0H12.75ZM13.5 2.5V1.5H14.5V2.5H13.5Z" fill="#000001"/>
<path fill-rule="evenodd" clip-rule="evenodd" d="M0 6.75C0 6.33579 0.335786 6 0.75 6H3.25C3.66421 6 4 6.33579 4 6.75V9.25C4 9.66421 3.66421 10 3.25 10H0.75C0.335786 10 0 9.66421 0 9.25V6.75ZM1.5 7.5V8.5H2.5V7.5H1.5Z" fill="#000001"/>
<path fill-rule="evenodd" clip-rule="evenodd" d="M6.75 6C6.33579 6 6 6.33579 6 6.75V9.25C6 9.66421 6.33579 10 6.75 10H9.25C9.66421 10 10 9.66421 10 9.25V6.75C10 6.33579 9.66421 6 9.25 6H6.75ZM7.5 8.5V7.5H8.5V8.5H7.5Z" fill="#000001"/>
<path fill-rule="evenodd" clip-rule="evenodd" d="M12 6.75C12 6.33579 12.3358 6 12.75 6H15.25C15.6642 6 16 6.33579 16 6.75V9.25C16 9.66421 15.6642 10 15.25 10H12.75C12.3358 10 12 9.66421 12 9.25V6.75ZM13.5 7.5V8.5H14.5V7.5H13.5Z" fill="#000001"/>
<path fill-rule="evenodd" clip-rule="evenodd" d="M0.75 12C0.335786 12 0 12.3358 0 12.75V15.25C0 15.6642 0.335786 16 0.75 16H3.25C3.66421 16 4 15.6642 4 15.25V12.75C4 12.3358 3.66421 12 3.25 12H0.75ZM1.5 14.5V13.5H2.5V14.5H1.5Z" fill="#000001"/>
<path fill-rule="evenodd" clip-rule="evenodd" d="M6 12.75C6 12.3358 6.33579 12 6.75 12H9.25C9.66421 12 10 12.3358 10 12.75V15.25C10 15.6642 9.66421 16 9.25 16H6.75C6.33579 16 6 15.6642 6 15.25V12.75ZM7.5 13.5V14.5H8.5V13.5H7.5Z" fill="#000001"/>
<path fill-rule="evenodd" clip-rule="evenodd" d="M12.75 12C12.3358 12 12 12.3358 12 12.75V15.25C12 15.6642 12.3358 16 12.75 16H15.25C15.6642 16 16 15.6642 16 15.25V12.75C16 12.3358 15.6642 12 15.25 12H12.75ZM13.5 14.5V13.5H14.5V14.5H13.5Z" fill="#000001"/>
</g>
</g>
</svg>
