<svg width="16" height="16" viewBox="0 0 16 16" fill="none" xmlns="http://www.w3.org/2000/svg">
<g id="size=16">
<path id="Path" d="M3.25 12C3.66421 12 4 12.3358 4 12.75V15.25C4 15.6642 3.66421 16 3.25 16H0.75C0.335786 16 0 15.6642 0 15.25V12.75C0 12.3358 0.335786 12 0.75 12H3.25ZM9.25 12C9.66421 12 10 12.3358 10 12.75V15.25C10 15.6642 9.66421 16 9.25 16H6.75C6.33579 16 6 15.6642 6 15.25V12.75C6 12.3358 6.33579 12 6.75 12H9.25ZM15.25 12C15.6642 12 16 12.3358 16 12.75V15.25C16 15.6642 15.6642 16 15.25 16H12.75C12.3358 16 12 15.6642 12 15.25V12.75C12 12.3358 12.3358 12 12.75 12H15.25ZM1.5 14.5H2.5V13.5H1.5V14.5ZM7.5 14.5H8.5V13.5H7.5V14.5ZM13.5 14.5H14.5V13.5H13.5V14.5ZM3.25 6C3.66421 6 4 6.33579 4 6.75V9.25C4 9.66421 3.66421 10 3.25 10H0.75C0.335786 10 0 9.66421 0 9.25V6.75C0 6.33579 0.335786 6 0.75 6H3.25ZM9.25 6C9.66421 6 10 6.33579 10 6.75V9.25C10 9.66421 9.66421 10 9.25 10H6.75C6.33579 10 6 9.66421 6 9.25V6.75C6 6.33579 6.33579 6 6.75 6H9.25ZM15.25 6C15.6642 6 16 6.33579 16 6.75V9.25C16 9.66421 15.6642 10 15.25 10H12.75C12.3358 10 12 9.66421 12 9.25V6.75C12 6.33579 12.3358 6 12.75 6H15.25ZM1.5 8.5H2.5V7.5H1.5V8.5ZM7.5 8.5H8.5V7.5H7.5V8.5ZM13.5 8.5H14.5V7.5H13.5V8.5ZM3.25 0C3.66421 0 4 0.335786 4 0.75V3.25C4 3.66421 3.66421 4 3.25 4H0.75C0.335786 4 0 3.66421 0 3.25V0.75C0 0.335786 0.335786 0 0.75 0H3.25ZM9.25 0C9.66421 0 10 0.335786 10 0.75V3.25C10 3.66421 9.66421 4 9.25 4H6.75C6.33579 4 6 3.66421 6 3.25V0.75C6 0.335786 6.33579 0 6.75 0H9.25ZM15.25 0C15.6642 0 16 0.335786 16 0.75V3.25C16 3.66421 15.6642 4 15.25 4H12.75C12.3358 4 12 3.66421 12 3.25V0.75C12 0.335786 12.3358 0 12.75 0H15.25ZM1.5 2.5H2.5V1.5H1.5V2.5ZM7.5 2.5H8.5V1.5H7.5V2.5ZM13.5 2.5H14.5V1.5H13.5V2.5Z" fill="#000001"/>
</g>
</svg>
