<svg width="24" height="24" viewBox="0 0 24 24" fill="none" xmlns="http://www.w3.org/2000/svg">
<g id="size=24">
<g id="Path">
<path d="M19.75 2C19.3358 2 19 2.33579 19 2.75C19 3.16421 19.3358 3.5 19.75 3.5H21.4393L18.4697 6.46967C18.1768 6.76256 18.1768 7.23744 18.4697 7.53033C18.7626 7.82322 19.2374 7.82322 19.5303 7.53033L22.5 4.56066V6.25C22.5 6.66421 22.8358 7 23.25 7C23.6642 7 24 6.66421 24 6.25V2.75C24 2.55109 23.921 2.36032 23.7803 2.21967C23.6397 2.07902 23.4489 2 23.25 2H19.75Z" fill="#000001"/>
<path fill-rule="evenodd" clip-rule="evenodd" d="M2.75 3C1.7835 3 1 3.7835 1 4.75V17.25C1 18.2165 1.7835 19 2.75 19H7.925C10.2669 19 11.25 20.1906 11.25 21.25C11.25 21.3457 11.2679 21.4373 11.3006 21.5215C11.4094 21.8015 11.6815 22 12 22C12.3624 22 12.6648 21.7429 12.7348 21.4012C12.7448 21.3523 12.75 21.3018 12.75 21.25C12.75 20.1906 13.7331 19 16.075 19H21.25C22.2165 19 23 18.2165 23 17.25V10.25C23 9.83577 22.6642 9.49998 22.25 9.49998C21.8358 9.49998 21.5 9.83577 21.5 10.25V17.25C21.5 17.388 21.3881 17.5 21.25 17.5H16.075C14.7462 17.5 13.5946 17.8451 12.75 18.4428V7.75C12.75 6.82864 12.9488 6.07491 13.3586 5.54062C13.7515 5.02844 14.4139 4.61934 15.5634 4.52177C15.9762 4.48674 16.2823 4.12376 16.2473 3.71103C16.2123 3.2983 15.8493 2.99211 15.4366 3.02714C13.9556 3.15285 12.8679 3.71578 12.1684 4.62767C12.109 4.70521 12.0529 4.78452 12 4.86543C11.9034 4.71745 11.7959 4.5749 11.6766 4.43877C10.8582 3.50464 9.59994 3 7.9 3H2.75ZM11.25 7.75C11.25 6.76069 11.0213 5.96709 10.5484 5.42723C10.0918 4.90602 9.30006 4.5 7.9 4.5H2.75C2.61193 4.5 2.5 4.61193 2.5 4.75V17.25C2.5 17.3881 2.61193 17.5 2.75 17.5H7.925C9.25379 17.5 10.4054 17.8451 11.25 18.4428V7.75Z" fill="#000001"/>
</g>
</g>
</svg>
