<svg width="16" height="16" viewBox="0 0 16 16" fill="none" xmlns="http://www.w3.org/2000/svg">
<g id="size=16">
<path id="Path" fill-rule="evenodd" clip-rule="evenodd" d="M5.48395 2.91657C6.30122 3.13664 7.09557 3.53763 7.99301 4.32048C8.29937 4.58773 8.33703 5.0504 8.07792 5.36368L7.65571 5.87416L8.7862 6.72878L9.40683 5.9267C9.53217 5.7647 9.71832 5.66102 9.92203 5.63973C10.1257 5.61844 10.3293 5.68139 10.4854 5.81397C11.1635 6.3897 11.3921 6.94739 11.4446 7.45613C11.4561 7.56706 11.4582 7.66575 11.4591 7.73925C11.4593 7.75589 11.4594 7.77043 11.4595 7.78328C11.6634 7.97006 11.8759 8.15195 12.0938 8.33454L13.878 6.23729C13.6401 6.04076 13.4248 5.86458 13.1665 5.65326C13.1393 5.65766 13.1062 5.66336 13.0655 5.67064C13.0589 5.67183 13.0519 5.67309 13.0446 5.67441C12.9487 5.69169 12.7958 5.71924 12.6498 5.72548C12.5182 5.73111 12.1936 5.73369 11.9141 5.50777C11.6573 5.30025 11.5656 5.02138 11.5264 4.86186C11.487 4.70141 11.472 4.53254 11.4625 4.42626L11.4614 4.41365C11.4566 4.36015 11.4527 4.31867 11.4492 4.28572C9.63452 3.08708 7.45965 2.42156 5.48395 2.91657ZM13.2725 5.64024C13.2876 5.63981 13.2853 5.6413 13.2705 5.6403L13.2725 5.64024ZM7.8682 7.91518L6.69877 7.03113L2.72575 11.8347C2.63673 11.9423 2.65316 12.102 2.76222 12.1892L3.67489 12.9194C3.78394 13.0066 3.94332 12.9876 4.02878 12.8771L7.8682 7.91518ZM6.43264 4.99938C5.93946 4.65632 5.50622 4.47463 5.08077 4.36146C4.61848 4.23848 4.17279 4.19353 3.61067 4.13683C3.40253 4.11584 3.17844 4.09324 2.93163 4.06447C2.63033 4.02935 2.37985 3.81619 2.29699 3.52439C2.21413 3.23258 2.3152 2.9196 2.55307 2.73137C5.76335 0.191114 9.76126 1.30352 12.4672 3.16297C12.4813 3.17267 12.4951 3.18284 12.5085 3.19348C12.7744 3.40438 12.8608 3.69475 12.8954 3.84427C12.9214 3.95609 12.9359 4.07416 12.9453 4.16946C13.0308 4.15616 13.1311 4.14366 13.2298 4.14084C13.3729 4.13676 13.6902 4.14358 13.9642 4.36785C14.0151 4.40951 14.0642 4.44967 14.1119 4.48868C14.5612 4.85626 14.8852 5.12139 15.4219 5.57023C15.5753 5.69854 15.6712 5.88282 15.6881 6.08211C15.705 6.2814 15.6416 6.47919 15.512 6.63153L12.7555 9.87168C12.4887 10.1853 12.0189 10.2252 11.7031 9.96102C11.6212 9.89249 11.5366 9.8223 11.4501 9.7506C11.0789 9.44257 10.6743 9.10682 10.3037 8.75672C10.0168 8.48569 9.97503 8.15261 9.96439 7.97843C9.96032 7.91169 9.95978 7.83667 9.95942 7.78576C9.95934 7.77474 9.95927 7.76485 9.95917 7.75642C9.95879 7.72249 9.9581 7.69348 9.95679 7.66706L5.21511 13.7951C4.61687 14.5683 3.50121 14.7014 2.73785 14.0907L1.82518 13.3605C1.06175 12.7498 0.946773 11.632 1.56988 10.8787L6.43264 4.99938ZM12.5857 4.22685C12.5668 4.22766 12.5698 4.22561 12.5881 4.22674L12.5857 4.22685Z" fill="#000001"/>
</g>
</svg>
