<svg width="24" height="24" viewBox="0 0 24 24" fill="none" xmlns="http://www.w3.org/2000/svg">
<g id="size=24">
<path id="Path" fill-rule="evenodd" clip-rule="evenodd" d="M19.5015 5.8582C15.7104 2.77262 10.3835 0.22508 5.33393 3.58936C5.08144 3.75758 4.95517 4.06135 5.01402 4.35898C5.07286 4.65662 5.30523 4.88948 5.60274 4.94896C6.89518 5.20735 7.91952 5.41485 8.91138 5.83658C9.7262 6.18304 10.5373 6.68335 11.4322 7.50694L1.0301 17.909C0.151424 18.7877 0.151423 20.2123 1.0301 21.091L1.90878 21.9697C2.78746 22.8484 4.21208 22.8484 5.09076 21.9697L15.9544 11.1061C16.1672 11.4275 16.1949 11.6376 16.202 11.7658C16.2056 11.8305 16.2042 11.8954 16.2005 11.9753L16.1984 12.017C16.1949 12.0847 16.1901 12.1779 16.1908 12.2622C16.1928 12.505 16.2374 12.8482 16.5182 13.1603C17.0318 13.7311 17.5971 14.2833 18.126 14.8C18.2502 14.9214 18.3725 15.0409 18.4916 15.1581C18.7866 15.4486 19.2612 15.445 19.5519 15.1502L23.7001 10.9419C23.8398 10.8002 23.9174 10.6088 23.9159 10.4098C23.9144 10.2108 23.8339 10.0206 23.6921 9.88097C22.9288 9.12947 22.4676 8.68512 21.8263 8.06722L21.6157 7.8643C21.3325 7.59132 20.9728 7.54778 20.778 7.53747C20.569 7.52641 20.3467 7.54774 20.1889 7.56288L20.1758 7.56414C20.0933 7.57204 20.025 7.57841 19.9671 7.58279C19.9635 7.51221 19.9621 7.42678 19.9613 7.31956L19.9611 7.28894C19.96 7.12752 19.9584 6.90582 19.9282 6.70119C19.8978 6.49523 19.8196 6.15306 19.5402 5.89194C19.5277 5.88026 19.5148 5.869 19.5015 5.8582ZM9.49831 4.45618C8.9891 4.23967 8.47584 4.07332 7.95297 3.93338C11.5501 2.65479 15.2936 4.39703 18.4462 6.9338C18.4582 7.02478 18.4599 7.14368 18.4614 7.33119L18.4615 7.34381C18.4627 7.51128 18.4645 7.74464 18.4998 7.96402C18.5348 8.18144 18.6206 8.51426 18.893 8.77351C19.1803 9.04705 19.5471 9.08069 19.7299 9.08776C19.9253 9.09531 20.1366 9.0749 20.2892 9.06016L20.3188 9.05731C20.4806 9.0418 20.5881 9.03316 20.6682 9.03436L20.7856 9.14746C21.2607 9.60519 21.6341 9.96504 22.1041 10.4243L19.0084 13.5648C18.5546 13.1209 18.1071 12.6784 17.6909 12.2207C17.6914 12.1941 17.6929 12.1645 17.6951 12.122L17.6988 12.0454C17.7033 11.949 17.7076 11.8239 17.6997 11.6822C17.6644 11.0494 17.4 10.3391 16.5299 9.46954C16.237 9.1768 15.7623 9.17688 15.4694 9.46971L13.9998 10.9394L12.0604 9.00003L13.0301 8.03037C13.3203 7.74016 13.3234 7.2706 13.037 6.97665C11.8041 5.71135 10.6752 4.9566 9.49831 4.45618ZM10.9998 10.0607L2.09076 18.9697C1.79787 19.2626 1.79787 19.7375 2.09076 20.0304L2.96944 20.909C3.26234 21.2019 3.73721 21.2019 4.0301 20.909L12.9391 12L10.9998 10.0607ZM20.7403 9.04003C20.7401 9.04021 20.7363 9.03971 20.7296 9.038C20.7372 9.039 20.7405 9.03986 20.7403 9.04003ZM19.7437 7.58452C19.744 7.58429 19.7486 7.5848 19.7567 7.58674C19.7474 7.58572 19.7434 7.58475 19.7437 7.58452Z" fill="#000001"/>
</g>
</svg>
