<svg width="24" height="24" viewBox="0 0 24 24" fill="none" xmlns="http://www.w3.org/2000/svg">
<g id="size=24">
<path id="Path" fill-rule="evenodd" clip-rule="evenodd" d="M5.33374 3.58961C10.3832 0.225595 15.7107 2.77263 19.5017 5.85816C19.5147 5.86878 19.5275 5.8799 19.5398 5.89137C19.8191 6.15241 19.898 6.49498 19.9285 6.70094C19.9587 6.9055 19.9596 7.12742 19.9607 7.28883L19.9617 7.3191C19.9625 7.42625 19.9629 7.51221 19.9666 7.58277C20.0244 7.57839 20.0933 7.5721 20.1755 7.56422L20.1892 7.56227C20.3469 7.54713 20.5694 7.52583 20.7781 7.53688C20.973 7.54722 21.3329 7.59124 21.616 7.86402L21.8259 8.06715C22.4672 8.685 22.9289 9.12917 23.6921 9.88063C23.8339 10.0202 23.9142 10.211 23.9158 10.4099C23.9172 10.6087 23.8394 10.8005 23.7 10.9421L19.5515 15.1502C19.2609 15.4447 18.7869 15.4481 18.4919 15.158C18.3729 15.0407 18.25 14.9209 18.1257 14.7996C17.597 14.283 17.0318 13.7306 16.5183 13.1599C16.2376 12.848 16.1933 12.5052 16.1912 12.2625C16.1905 12.1784 16.1945 12.0849 16.198 12.0173L16.2 11.9754C16.2037 11.8955 16.2055 11.83 16.2019 11.7654C16.1947 11.6372 16.1664 11.4273 15.9539 11.1062L5.09058 21.9695C4.21195 22.8481 2.78763 22.848 1.90894 21.9695L1.03003 21.0906C0.151488 20.2119 0.151408 18.7876 1.03003 17.9089L11.4324 7.5066C10.5375 6.68306 9.72565 6.18313 8.91089 5.83668C7.91917 5.41504 6.89453 5.20733 5.6023 4.94898C5.305 4.88942 5.07232 4.65658 5.01343 4.35914C4.95465 4.06163 5.08144 3.75785 5.33374 3.58961ZM2.09058 18.9695C1.79774 19.2623 1.79782 19.7371 2.09058 20.03L2.96948 20.9089C3.26239 21.2017 3.73719 21.2018 4.03003 20.9089L12.9392 11.9998L10.9998 10.0603L2.09058 18.9695ZM18.446 6.93336C15.2936 4.39673 11.5498 2.65499 7.95288 3.93336C8.47552 4.07324 8.98881 4.23943 9.4978 4.45582C10.6746 4.95623 11.8041 5.71114 13.0369 6.97633C13.3231 7.27018 13.3199 7.73983 13.03 8.03004L12.0603 8.99977L13.9998 10.9392L15.4695 9.46949C15.7623 9.17698 16.2372 9.17686 16.53 9.46949C17.3999 10.3389 17.6646 11.0497 17.7 11.6824C17.7078 11.8238 17.7035 11.9494 17.699 12.0457L17.6951 12.1218C17.6929 12.1642 17.6917 12.1939 17.6912 12.2205C18.1072 12.6781 18.5549 13.1204 19.0085 13.5642L22.1042 10.4246C21.6344 9.96538 21.2609 9.60486 20.7859 9.14723L20.6677 9.03395C20.5878 9.03277 20.4803 9.04194 20.3191 9.05738L20.2888 9.06031C20.1365 9.07503 19.9253 9.09513 19.7302 9.08766C19.5474 9.08059 19.1806 9.04655 18.8933 8.7732C18.621 8.51396 18.5347 8.18105 18.4998 7.96363C18.4645 7.74436 18.4629 7.5109 18.4617 7.34352V7.33082C18.4602 7.14352 18.458 7.02427 18.446 6.93336Z" fill="#000001"/>
</g>
</svg>
