<svg width="16" height="16" viewBox="0 0 16 16" fill="none" xmlns="http://www.w3.org/2000/svg">
<g id="size=16">
<path id="Path" fill-rule="evenodd" clip-rule="evenodd" d="M5.48358 2.91663C6.30086 3.1367 7.0952 3.53769 7.99264 4.32055C8.29901 4.58779 8.33667 5.05046 8.07756 5.36374L7.65534 5.87422L8.78583 6.72884L9.40646 5.92676C9.53181 5.76476 9.71795 5.66108 9.92167 5.63979C10.1254 5.6185 10.3289 5.68145 10.4851 5.81403C11.1631 6.38976 11.3917 6.94745 11.4443 7.45619C11.4557 7.56713 11.4579 7.66582 11.4587 7.73931C11.4589 7.75595 11.459 7.77049 11.4592 7.78334C11.663 7.97012 11.8755 8.15202 12.0934 8.33461L13.8777 6.23735C13.6397 6.04082 13.4244 5.86464 13.1661 5.65332C13.139 5.65772 13.1059 5.66342 13.0652 5.6707C13.0585 5.67189 13.0515 5.67315 13.0442 5.67447C12.9483 5.69175 12.7954 5.7193 12.6494 5.72554C12.5178 5.73117 12.1933 5.73375 11.9137 5.50783C11.6569 5.30031 11.5652 5.02144 11.5261 4.86192C11.4866 4.70147 11.4716 4.5326 11.4622 4.42633L11.461 4.41371C11.4562 4.36021 11.4524 4.31873 11.4488 4.28578C9.63415 3.08714 7.45928 2.42162 5.48358 2.91663ZM13.2722 5.6403C13.2872 5.63987 13.2849 5.64137 13.2701 5.64036L13.2722 5.6403ZM7.86783 7.91525L6.69841 7.03119L2.72538 11.8347C2.63637 11.9424 2.65279 12.1021 2.76185 12.1893L3.67452 12.9194C3.78357 13.0067 3.94295 12.9877 4.02842 12.8772L7.86783 7.91525ZM6.43227 4.99945C5.93909 4.65638 5.50585 4.47469 5.0804 4.36152C4.61811 4.23855 4.17242 4.19359 3.6103 4.13689C3.40217 4.1159 3.17807 4.0933 2.93126 4.06453C2.62996 4.02941 2.37949 3.81625 2.29662 3.52445C2.21376 3.23265 2.31483 2.91966 2.55271 2.73143C5.76299 0.191175 9.76089 1.30358 12.4668 3.16303C12.4809 3.17273 12.4947 3.1829 12.5081 3.19354C12.774 3.40444 12.8604 3.69481 12.8951 3.84433C12.921 3.95615 12.9355 4.07423 12.945 4.16952C13.0304 4.15622 13.1307 4.14372 13.2294 4.14091C13.3726 4.13683 13.6898 4.14364 13.9639 4.36791C14.0148 4.40957 14.0639 4.44973 14.1115 4.48874C14.5608 4.85632 14.8849 5.12145 15.4215 5.57029C15.575 5.6986 15.6708 5.88288 15.6877 6.08217C15.7046 6.28146 15.6412 6.47925 15.5116 6.63159L12.7551 9.87174C12.4883 10.1854 12.0186 10.2252 11.7027 9.96108C11.6208 9.89255 11.5362 9.82236 11.4498 9.75066C11.0786 9.44263 10.6739 9.10688 10.3033 8.75678C10.0164 8.48575 9.97466 8.15267 9.96403 7.97849C9.95995 7.91175 9.95942 7.83673 9.95905 7.78582C9.95897 7.7748 9.9589 7.76491 9.95881 7.75648C9.95842 7.72255 9.95774 7.69354 9.95643 7.66712L5.21475 13.7952C4.6165 14.5683 3.50085 14.7014 2.73748 14.0907L1.82481 13.3606C1.06138 12.7499 0.946406 11.6321 1.56952 10.8787L6.43227 4.99945ZM12.5854 4.22691C12.5664 4.22772 12.5694 4.22567 12.5877 4.2268L12.5854 4.22691Z" fill="#000001"/>
</g>
</svg>
