<svg width="24" height="24" viewBox="0 0 24 24" fill="none" xmlns="http://www.w3.org/2000/svg">
<g id="size=24">
<path id="Path" fill-rule="evenodd" clip-rule="evenodd" d="M5.33352 3.58973C10.383 0.225547 15.7104 2.77282 19.5015 5.85829C19.5145 5.86884 19.5273 5.88009 19.5396 5.89149C19.8189 6.15252 19.8978 6.49508 19.9282 6.70106C19.9585 6.90565 19.9594 7.12754 19.9605 7.28895L19.9615 7.31923C19.9623 7.42638 19.9627 7.51233 19.9663 7.5829C20.0241 7.57853 20.0931 7.57221 20.1753 7.56434L20.189 7.56239C20.3466 7.54727 20.5692 7.526 20.7779 7.537C20.9726 7.54732 21.3326 7.59147 21.6157 7.86415L21.8257 8.06727C22.4669 8.68508 22.9288 9.12943 23.6919 9.88075C23.8337 10.0203 23.914 10.2111 23.9156 10.41C23.917 10.6089 23.8394 10.8006 23.6997 10.9423L19.5513 15.1503C19.2607 15.4447 18.7867 15.4482 18.4917 15.1581C18.3727 15.0409 18.2497 14.921 18.1255 14.7997C17.5968 14.2831 17.0315 13.7306 16.5181 13.16C16.2376 12.8482 16.193 12.5053 16.1909 12.2626C16.1902 12.1786 16.1943 12.085 16.1978 12.0175L16.1997 11.9755C16.2035 11.8956 16.2053 11.8302 16.2017 11.7655C16.1945 11.6373 16.1662 11.4275 15.9536 11.1063L5.09036 21.9696C4.21169 22.8481 2.78734 22.8481 1.90872 21.9696L1.02981 21.0907C0.151592 20.2121 0.151451 18.7876 1.02981 17.9091L11.4322 7.50673C10.5373 6.68329 9.7254 6.18322 8.91067 5.8368C7.91901 5.41526 6.89424 5.20744 5.60208 4.94911C5.30499 4.8894 5.07207 4.65656 5.01321 4.35926C4.95448 4.06189 5.08142 3.75799 5.33352 3.58973ZM2.09036 18.9696C1.79778 19.2624 1.79793 19.7373 2.09036 20.0302L2.96926 20.9091C3.2621 21.2018 3.73693 21.2017 4.02981 20.9091L12.939 11.9999L10.9995 10.0604L2.09036 18.9696ZM18.4458 6.93348C15.2934 4.39692 11.5496 2.65495 7.95266 3.93348C8.47523 4.07334 8.98866 4.23961 9.49758 4.45594C10.6744 4.95632 11.804 5.71136 13.0366 6.97645C13.323 7.27037 13.3199 7.73995 13.0298 8.03016L12.0601 8.99989L13.9995 10.9393L15.4693 9.46962C15.762 9.17698 16.2369 9.17718 16.5298 9.46962C17.3997 10.3391 17.6644 11.0498 17.6997 11.6825C17.7076 11.824 17.7033 11.9495 17.6988 12.0458L17.6948 12.122C17.6927 12.1644 17.6915 12.194 17.6909 12.2206C18.1069 12.6781 18.5547 13.1206 19.0083 13.5643L22.104 10.4247C21.6343 9.96561 21.2606 9.60492 20.7857 9.14735L20.6675 9.03407C20.5876 9.03294 20.4799 9.04208 20.3189 9.05751L20.2886 9.06044C20.1362 9.07516 19.925 9.09528 19.73 9.08778C19.5471 9.08067 19.1802 9.04651 18.8931 8.77333C18.621 8.51412 18.5345 8.1811 18.4995 7.96376C18.4643 7.74449 18.4627 7.51101 18.4615 7.34364V7.33094C18.46 7.14361 18.4578 7.02441 18.4458 6.93348Z" fill="#000001"/>
</g>
</svg>
