<svg width="24" height="24" viewBox="0 0 24 24" fill="none" xmlns="http://www.w3.org/2000/svg">
<g id="size=24">
<path id="Path" fill-rule="evenodd" clip-rule="evenodd" d="M5.33374 3.58992C10.3833 0.225706 15.7107 2.7729 19.5017 5.85848C19.5147 5.86909 19.5275 5.88021 19.5398 5.89168C19.8191 6.15277 19.8981 6.49531 19.9285 6.70125C19.9587 6.90586 19.9596 7.12773 19.9607 7.28914L19.9617 7.31941C19.9625 7.42661 19.9629 7.51251 19.9666 7.58309C20.0244 7.57871 20.0932 7.57242 20.1755 7.56453L20.1892 7.56258C20.3469 7.54744 20.5693 7.52614 20.7781 7.53719C20.9729 7.54752 21.3329 7.59148 21.616 7.86434L21.8259 8.06746C22.4672 8.68531 22.9289 9.12949 23.6921 9.88094C23.8339 10.0205 23.9143 10.2113 23.9158 10.4102C23.9172 10.6091 23.8396 10.8008 23.7 10.9425L19.5515 15.1505C19.261 15.445 18.7869 15.4484 18.4919 15.1583C18.3729 15.0411 18.25 14.9212 18.1257 14.7999C17.597 14.2833 17.0318 13.7309 16.5183 13.1602C16.2376 12.8483 16.1933 12.5055 16.1912 12.2628C16.1905 12.1787 16.1945 12.0853 16.198 12.0177L16.2 11.9757C16.2037 11.8957 16.2055 11.8304 16.2019 11.7657C16.1947 11.6375 16.1665 11.4277 15.9539 11.1065L5.09058 21.9698C4.21196 22.8484 2.78763 22.8483 1.90894 21.9698L1.03003 21.0909C0.151488 20.2122 0.151408 18.7879 1.03003 17.9093L11.4324 7.50691C10.5375 6.68336 9.72567 6.18344 8.91089 5.83699C7.91914 5.41534 6.89458 5.20766 5.6023 4.9493C5.30502 4.88974 5.07234 4.65686 5.01343 4.35945C4.9546 4.06191 5.08142 3.75818 5.33374 3.58992ZM2.09058 18.9698C1.79774 19.2627 1.79782 19.7374 2.09058 20.0304L2.96948 20.9093C3.26239 21.202 3.7372 21.2021 4.03003 20.9093L12.9392 12.0001L10.9998 10.0606L2.09058 18.9698ZM18.446 6.93367C15.2936 4.39699 11.5499 2.65516 7.95288 3.93367C8.47555 4.07356 8.98878 4.23973 9.4978 4.45613C10.6747 4.95654 11.8041 5.71143 13.0369 6.97664C13.3231 7.27055 13.3201 7.74016 13.03 8.03035L12.0603 9.00008L13.9998 10.9395L15.4695 9.4698C15.7623 9.17712 16.2372 9.17711 16.53 9.4698C17.4 10.3393 17.6646 11.05 17.7 11.6827C17.7078 11.8242 17.7035 11.9497 17.699 12.046L17.6951 12.1221C17.6929 12.1646 17.6917 12.1942 17.6912 12.2208C18.1072 12.6784 18.5549 13.1207 19.0085 13.5645L22.1042 10.4249C21.6344 9.9657 21.2608 9.60516 20.7859 9.14754L20.6677 9.03426C20.5878 9.03309 20.4804 9.04225 20.3191 9.05769L20.2888 9.06062C20.1364 9.07535 19.9254 9.09546 19.7302 9.08797C19.5474 9.0809 19.1806 9.04685 18.8933 8.77352C18.621 8.51429 18.5348 8.18137 18.4998 7.96394C18.4645 7.74465 18.4629 7.51124 18.4617 7.34383V7.33113C18.4602 7.14378 18.458 7.0246 18.446 6.93367Z" fill="#000001"/>
</g>
</svg>
