<svg width="16" height="16" viewBox="0 0 16 16" fill="none" xmlns="http://www.w3.org/2000/svg">
<g id="size=16">
<g id="Path">
<path fill-rule="evenodd" clip-rule="evenodd" d="M5 2.75C4.80109 2.75 4.61032 2.82902 4.46967 2.96967L3.68934 3.75C2.70956 3.75 1.72978 3.75 0.75 3.75C0.335786 3.75 0 4.08579 0 4.5C0 4.91421 0.335786 5.25 0.75 5.25H2V10.25C2 10.6642 1.66421 11 1.25 11H0.75C0.335786 11 0 11.3358 0 11.75C0 12.1642 0.335786 12.5 0.75 12.5H1.25C2.13343 12.5 2.89794 11.9909 3.26612 11.25H3.82295L6.88601 12.7815C7.60819 13.1426 8.46849 13.0891 9.14031 12.6412L11.2271 11.25H12.7339C13.1021 11.9909 13.8666 12.5 14.75 12.5H15.25C15.6642 12.5 16 12.1642 16 11.75C16 11.3358 15.6642 11 15.25 11H14.75C14.3358 11 14 10.6642 14 10.25V5.25H15.25C15.6642 5.25 16 4.91421 16 4.5C16 4.08579 15.6642 3.75 15.25 3.75C14.2667 3.75 13.2915 3.75 12.3107 3.75L11.5303 2.96967C11.3897 2.82902 11.1989 2.75 11 2.75H5ZM4 5.25H3.5V9.75H4C4.11643 9.75 4.23127 9.77711 4.33541 9.82918L7.55683 11.4399C7.79755 11.5603 8.08432 11.5424 8.30826 11.3931L9.95994 10.292L9.37596 9.41603C9.1462 9.07138 9.23933 8.60573 9.58397 8.37596C9.92862 8.1462 10.3943 8.23933 10.624 8.58397L11.4014 9.75H12.5V5.25H12C11.8011 5.25 11.6103 5.17098 11.4697 5.03033L10.6893 4.25H8.81066L7.06363 5.99703C6.78585 6.27481 6.78585 6.72519 7.06363 7.00297C7.32842 7.26776 7.75317 7.2819 8.03499 7.03531L9.00612 6.18557C9.31785 5.91281 9.79167 5.94439 10.0644 6.25612C10.3372 6.56785 10.3056 7.04167 9.99388 7.31443L9.02275 8.16417C8.14662 8.93079 6.82616 8.88682 6.00297 8.06363C5.1394 7.20006 5.1394 5.79994 6.00297 4.93637L6.68934 4.25H5.31066L4.53033 5.03033C4.38968 5.17098 4.19891 5.25 4 5.25Z" fill="#000001"/>
<path d="M1.25 9.625C1.25 9.97018 0.970178 10.25 0.625 10.25C0.279822 10.25 0 9.97018 0 9.625C0 9.27982 0.279822 9 0.625 9C0.970178 9 1.25 9.27982 1.25 9.625Z" fill="#000001"/>
<path d="M16 9.625C16 9.97018 15.7202 10.25 15.375 10.25C15.0298 10.25 14.75 9.97018 14.75 9.625C14.75 9.27982 15.0298 9 15.375 9C15.7202 9 16 9.27982 16 9.625Z" fill="#000001"/>
</g>
</g>
</svg>
