<svg width="24" height="24" viewBox="0 0 24 24" fill="none" xmlns="http://www.w3.org/2000/svg">
<g id="size=24">
<path id="Path" d="M10.6113 4.50006C10.8201 4.50012 11.0193 4.58719 11.1611 4.7403L11.6367 5.25397L12.1602 4.72272C12.3011 4.57995 12.4938 4.50009 12.6943 4.50006H16.167C16.3757 4.50015 16.5749 4.58718 16.7168 4.7403L17.8828 6.00006H22.25C22.6642 6.00006 23 6.33585 23 6.75006C22.9999 7.16423 22.6642 7.50006 22.25 7.50006H20V14.9581C20 15.6484 20.5597 16.2081 21.25 16.2081H22.25C22.6641 16.2081 22.9999 16.544 23 16.9581C23 17.3723 22.6642 17.7081 22.25 17.7081H21.25C20.0999 17.7081 19.1146 17.0023 18.7041 16.0001H16.2666L13.5537 18.2042C12.6609 18.9295 11.4103 19.0228 10.4199 18.4376L6.29492 16.0001H5.2959C4.88535 17.0023 3.90009 17.7081 2.75 17.7081H1.75C1.3358 17.7081 1.00002 17.3723 1 16.9581C1.00014 16.544 1.33587 16.2081 1.75 16.2081H2.75C3.44035 16.2081 3.99998 15.6484 4 14.9581V7.50006H1.75C1.33582 7.50006 1.00005 7.16423 1 6.75006C1 6.33585 1.33579 6.00006 1.75 6.00006H6.11719L7.2832 4.7403C7.42506 4.58718 7.62428 4.50015 7.83301 4.50006H10.6113ZM6.99512 7.25983C6.85317 7.41311 6.65325 7.50006 6.44434 7.50006H5.5V14.5001H6.5C6.63422 14.5001 6.76628 14.5363 6.88184 14.6046L11.1836 17.1465C11.6337 17.4122 12.2017 17.3697 12.6074 17.0401L14.9189 15.1622L13.4395 13.4981C13.1644 13.1885 13.1924 12.7147 13.502 12.4395C13.8115 12.1644 14.2854 12.1925 14.5605 12.502L16.3369 14.5001H18.5V7.50006H17.5557C17.3468 7.50006 17.1468 7.41311 17.0049 7.25983L15.8389 6.00006H13.0078L10.3701 8.67291C9.90236 9.14691 9.88803 9.90459 10.3379 10.3956L10.457 10.5255C10.9222 11.0326 11.7105 11.0684 12.2197 10.6055L13.4951 9.44537C13.8015 9.16684 14.276 9.18898 14.5547 9.49518C14.8332 9.80157 14.8111 10.2761 14.5049 10.5547L13.2285 11.7149C12.108 12.7335 10.3748 12.6544 9.35156 11.5381L9.23242 11.4092C8.2423 10.3291 8.27346 8.66213 9.30273 7.6192L10.582 6.32233L10.2832 6.00006H8.16113L6.99512 7.25983ZM1.875 13.1387C2.35819 13.1387 2.7499 13.5306 2.75 14.0137C2.74998 14.497 2.35824 14.8887 1.875 14.8887C1.39176 14.8887 1.00002 14.497 1 14.0137C1.0001 13.5306 1.39181 13.1387 1.875 13.1387ZM22.125 13.0001C22.6082 13.0001 23 13.3918 23 13.8751C22.9999 14.3583 22.6082 14.7501 22.125 14.7501C21.6418 14.7501 21.2501 14.3583 21.25 13.8751C21.25 13.3918 21.6418 13.0001 22.125 13.0001Z" fill="#000001"/>
</g>
</svg>
