<svg width="24" height="24" viewBox="0 0 24 24" fill="none" xmlns="http://www.w3.org/2000/svg">
<g id="size=24">
<path id="Path" d="M10.6113 4.50015C10.8201 4.50021 11.0193 4.58728 11.1611 4.74039L11.6367 5.25406L12.1602 4.72281C12.3011 4.58004 12.4938 4.50018 12.6943 4.50015H16.167C16.3757 4.50024 16.5749 4.58728 16.7168 4.74039L17.8828 6.00015H22.25C22.6642 6.00015 23 6.33594 23 6.75015C22.9999 7.16428 22.6642 7.50015 22.25 7.50015H20V14.9582C20.0001 15.6485 20.5597 16.2082 21.25 16.2082H22.25C22.6641 16.2082 22.9999 16.5441 23 16.9582C22.9999 17.3723 22.6642 17.7082 22.25 17.7082H21.25C20.0999 17.7082 19.1147 17.0024 18.7041 16.0002H16.2666L13.5537 18.2043C12.6609 18.9296 11.4103 19.0228 10.4199 18.4377L6.29492 16.0002H5.2959C4.88533 17.0024 3.90006 17.7082 2.75 17.7082H1.75C1.33583 17.7082 1.00007 17.3723 1 16.9582C1.00014 16.5441 1.33587 16.2082 1.75 16.2082H2.75C3.44032 16.2082 3.99993 15.6485 4 14.9582V7.50015H1.75C1.33585 7.50015 1.0001 7.16428 1 6.75015C1 6.33594 1.33579 6.00015 1.75 6.00015H6.11719L7.2832 4.74039C7.42506 4.58728 7.62428 4.50024 7.83301 4.50015H10.6113ZM6.99512 7.25992C6.85318 7.41318 6.65323 7.50015 6.44434 7.50015H5.5V14.5002H6.5C6.63422 14.5002 6.76628 14.5364 6.88184 14.6046L11.1836 17.1466C11.6337 17.4123 12.2018 17.3698 12.6074 17.0402L14.9189 15.1623L13.4395 13.4982C13.1644 13.1886 13.1925 12.7148 13.502 12.4396C13.8115 12.1645 14.2854 12.1925 14.5605 12.5021L16.3369 14.5002H18.5V7.50015H17.5557C17.3468 7.50015 17.1468 7.41318 17.0049 7.25992L15.8389 6.00015H13.0078L10.3701 8.673C9.90241 9.14701 9.88804 9.9047 10.3379 10.3957L10.457 10.5255C10.9222 11.0326 11.7105 11.0685 12.2197 10.6056L13.4951 9.44547C13.8015 9.16693 14.276 9.18907 14.5547 9.49527C14.8332 9.80166 14.8111 10.2762 14.5049 10.5548L13.2285 11.715C12.108 12.7336 10.3748 12.6545 9.35156 11.5382L9.23242 11.4093C8.24231 10.3292 8.2735 8.66222 9.30273 7.61929L10.582 6.32242L10.2832 6.00015H8.16113L6.99512 7.25992ZM1.875 13.1388C2.35819 13.1388 2.7499 13.5307 2.75 14.0138C2.74993 14.497 2.35821 14.8888 1.875 14.8888C1.39179 14.8888 1.00007 14.497 1 14.0138C1.0001 13.5307 1.39181 13.1388 1.875 13.1388ZM22.125 13.0002C22.6082 13.0002 23 13.3919 23 13.8752C22.9999 14.3583 22.6082 14.7502 22.125 14.7502C21.6418 14.7502 21.2501 14.3583 21.25 13.8752C21.25 13.3919 21.6418 13.0002 22.125 13.0002Z" fill="#000001"/>
</g>
</svg>
