<svg width="16" height="16" viewBox="0 0 16 16" fill="none" xmlns="http://www.w3.org/2000/svg">
<g id="size=16">
<path id="Path" d="M11.252 1C12.1538 1 12.9688 1.53849 13.3223 2.36816L15.8203 8.23535C15.9389 8.51388 15.9999 8.8135 16 9.11621V12.75C16 13.9926 14.9926 15 13.75 15H2.25C1.00736 15 0 13.9926 0 12.75V9.11621C5.67054e-05 8.8135 0.0611247 8.51388 0.179688 8.23535L2.67773 2.36816C3.03118 1.53849 3.84619 1 4.74805 1H11.252ZM1.5 12.75C1.5 13.1642 1.83579 13.5 2.25 13.5H13.75C14.1642 13.5 14.5 13.1642 14.5 12.75V9.5H1.5V12.75ZM4.25 10.5C4.66421 10.5 5 10.8358 5 11.25C5 11.6642 4.66421 12 4.25 12H3.75C3.33579 12 3 11.6642 3 11.25C3 10.8358 3.33579 10.5 3.75 10.5H4.25ZM4.74805 2.5C4.44741 2.5 4.17542 2.67947 4.05762 2.95605L1.91016 8H14.0898L11.9424 2.95605C11.8246 2.67947 11.5526 2.5 11.252 2.5H4.74805Z" fill="#000001"/>
</g>
</svg>
