<svg width="24" height="24" viewBox="0 0 24 24" fill="none" xmlns="http://www.w3.org/2000/svg">
<g id="size=24">
<g id="Path">
<path d="M4 15.75C4 15.3358 4.33579 15 4.75 15H5.25C5.66421 15 6 15.3358 6 15.75C6 16.1642 5.66421 16.5 5.25 16.5H4.75C4.33579 16.5 4 16.1642 4 15.75Z" fill="#000001"/>
<path fill-rule="evenodd" clip-rule="evenodd" d="M7.20221 3C6.185 3 5.25087 3.56151 4.77364 4.45982L1.32143 10.9581C1.11037 11.3554 1 11.7984 1 12.2483V18.25C1 19.7688 2.23122 21 3.75 21H20.25C21.7688 21 23 19.7688 23 18.25V12.2483C23 11.7984 22.8896 11.3554 22.6786 10.9581L19.2264 4.45982C18.7491 3.56151 17.815 3 16.7978 3H7.20221ZM6.09831 5.16356C6.31524 4.75523 6.73984 4.5 7.20221 4.5H16.7978C17.2602 4.5 17.6848 4.75523 17.9017 5.16356L21.2679 11.5H2.73208L6.09831 5.16356ZM2.5 13V18.25C2.5 18.9404 3.05964 19.5 3.75 19.5H20.25C20.9404 19.5 21.5 18.9404 21.5 18.25V13H2.5Z" fill="#000001"/>
</g>
</g>
</svg>
