<svg width="24" height="24" viewBox="0 0 24 24" fill="none" xmlns="http://www.w3.org/2000/svg">
<g id="size=24">
<path id="Path" fill-rule="evenodd" clip-rule="evenodd" d="M10.3623 3.00878C10.7717 3.07093 11.0533 3.45283 10.9912 3.86229L10.3643 7.99999H14.8477L15.5088 3.63768C15.5708 3.22817 15.9528 2.94677 16.3623 3.00878C16.7717 3.07093 17.0533 3.45283 16.9912 3.86229L16.3643 7.99999H19.25C19.6642 7.99999 20 8.33577 20 8.74999C19.9991 9.16341 19.6636 9.49999 19.25 9.49999H16.1377L15.4561 14H19.25C19.6642 14 20 14.3358 20 14.75C19.9991 15.1634 19.6636 15.5 19.25 15.5H15.2285L14.4912 20.3623C14.4284 20.7709 14.0466 21.053 13.6377 20.9912C13.2287 20.9292 12.9477 20.5466 13.0088 20.1377L13.7109 15.5H9.22852L8.49121 20.3623C8.42842 20.7709 8.04662 21.053 7.6377 20.9912C7.22873 20.9292 6.94771 20.5466 7.00879 20.1377L7.71094 15.5H4.75C4.33637 15.5 4.00094 15.1634 4 14.75C4 14.3358 4.33579 14 4.75 14H7.93848L8.62012 9.49999H4.75C4.33636 9.49999 4.00093 9.16341 4 8.74999C4 8.33577 4.33579 7.99999 4.75 7.99999H8.84766L9.50879 3.63768C9.57084 3.22817 9.9528 2.94677 10.3623 3.00878ZM9.45605 14H13.9385L14.6201 9.49999H10.1377L9.45605 14Z" fill="#000001"/>
</g>
</svg>
