<svg width="16" height="16" viewBox="0 0 16 16" fill="none" xmlns="http://www.w3.org/2000/svg">
<g id="size=16">
<path id="Path" fill-rule="evenodd" clip-rule="evenodd" d="M10.5117 2.36415C10.5867 1.95791 10.9771 1.68702 11.3838 1.76063C11.7907 1.83466 12.0603 2.22582 11.9873 2.6327L11.5576 4.99891H12.75C13.1637 4.99891 13.4991 5.33546 13.5 5.74891C13.4997 6.16289 13.164 6.49891 12.75 6.49891H11.2852L10.7393 9.49891H12.75C13.1637 9.49891 13.4991 9.83546 13.5 10.2489C13.4997 10.6629 13.164 10.9989 12.75 10.9989H10.4668L9.9873 13.6327C9.91301 14.04 9.52259 14.3102 9.11523 14.2362C8.70832 14.1618 8.43795 13.7712 8.51172 13.3641L8.94238 10.9989H5.9668L5.4873 13.6327C5.41301 14.04 5.02259 14.3102 4.61523 14.2362C4.20832 14.1618 3.93795 13.7712 4.01172 13.3641L4.44238 10.9989H3.25C2.83595 10.9989 2.50027 10.6629 2.5 10.2489C2.50089 9.83546 2.83634 9.49891 3.25 9.49891H4.71484L5.26074 6.49891H3.25C2.83595 6.49891 2.50027 6.16289 2.5 5.74891C2.50089 5.33546 2.83634 4.99891 3.25 4.99891H5.5332L6.01172 2.36415C6.08668 1.95791 6.47713 1.68702 6.88379 1.76063C7.2907 1.83466 7.56033 2.22582 7.4873 2.6327L7.05762 4.99891H10.0332L10.5117 2.36415ZM6.23926 9.49891H9.21484L9.76074 6.49891H6.78516L6.23926 9.49891Z" fill="#000001"/>
</g>
</svg>
