<svg width="24" height="24" viewBox="0 0 24 24" fill="none" xmlns="http://www.w3.org/2000/svg">
<g id="size=24">
<path id="Path" fill-rule="evenodd" clip-rule="evenodd" d="M2 0C0.895431 0 0 0.89543 0 2V22C0 23.1046 0.89543 24 2 24H22C23.1046 24 24 23.1046 24 22V2C24 0.895431 23.1046 0 22 0H2ZM10.8353 4.59998L5 7.96052V16.0342L7.19184 17.2978V9.22416L10.8353 7.12464V4.59998ZM13.1648 4.59998V11.0294H10.8354V8.63027L8.64221 9.89391V18.1311L10.8354 19.3974V12.9863H13.1648V15.3697L15.3566 14.106V5.86361L13.1648 4.59998ZM13.1647 19.4L19 16.0395V7.96579L16.8068 6.70215V14.7758L13.1647 16.8754V19.4Z" fill="black"/>
</g>
</svg>
