<svg width="24" height="24" viewBox="0 0 24 24" fill="none" xmlns="http://www.w3.org/2000/svg">
<g id="size=24">
<path id="Path" fill-rule="evenodd" clip-rule="evenodd" d="M10.3625 3.00857C10.772 3.07062 11.0537 3.45292 10.9916 3.86246L10.3647 8H14.8476L15.5086 3.63775C15.5706 3.22821 15.9529 2.94652 16.3625 3.00857C16.772 3.07062 17.0537 3.45292 16.9916 3.86246L16.3647 8H19.25C19.6642 8 20 8.33579 20 8.75C20 9.16421 19.6642 9.5 19.25 9.5H16.1375L15.4556 14H19.25C19.6642 14 20 14.3358 20 14.75C20 15.1642 19.6642 15.5 19.25 15.5H15.2284L14.4916 20.3625C14.4296 20.772 14.0473 21.0537 13.6377 20.9916C13.2282 20.9296 12.9465 20.5473 13.0086 20.1377L13.7113 15.5H9.22838L8.49164 20.3625C8.42959 20.772 8.04729 21.0537 7.63775 20.9916C7.22821 20.9296 6.94652 20.5473 7.00857 20.1377L7.71126 15.5H4.75C4.33579 15.5 4 15.1642 4 14.75C4 14.3358 4.33579 14 4.75 14H7.93853L8.62035 9.5H4.75C4.33579 9.5 4 9.16421 4 8.75C4 8.33579 4.33579 8 4.75 8H8.84762L9.50857 3.63775C9.57062 3.22821 9.95292 2.94652 10.3625 3.00857ZM13.9385 14L14.6203 9.5H10.1375L9.45565 14H13.9385Z" fill="#000001"/>
</g>
</svg>
