<svg width="16" height="16" viewBox="0 0 16 16" fill="none" xmlns="http://www.w3.org/2000/svg">
<g id="size=16">
<path id="Path" fill-rule="evenodd" clip-rule="evenodd" d="M2 0C0.895431 0 0 0.895431 0 2V14C0 15.1046 0.895431 16 2 16H14C15.1046 16 16 15.1046 16 14V2C16 0.895431 15.1046 0 14 0H2ZM7.27206 3.37498L3.625 5.47533V10.5214L4.9949 11.3111V6.2651L7.27206 4.9529V3.37498ZM8.72798 3.37498V7.39335H7.2721V5.89392L5.90138 6.6837V11.8319L7.2721 12.6234V8.61643H8.72798V10.106L10.0979 9.31627V4.16476L8.72798 3.37498ZM8.72792 12.625L12.375 10.5247V5.47862L11.0043 4.68884V9.73489L8.72792 11.0471V12.625Z" fill="black"/>
</g>
</svg>
