<svg width="16" height="16" viewBox="0 0 16 16" fill="none" xmlns="http://www.w3.org/2000/svg">
<g id="size=16">
<path id="Path" fill-rule="evenodd" clip-rule="evenodd" d="M10.5117 2.3645C10.5866 1.95811 10.977 1.68733 11.3838 1.76098C11.7908 1.83504 12.0605 2.22609 11.9873 2.63305L11.5576 4.99926H12.75C13.1637 4.99926 13.4992 5.33569 13.5 5.74926C13.4997 6.1632 13.164 6.49926 12.75 6.49926H11.2852L10.7393 9.49926H12.75C13.1637 9.49926 13.4992 9.83569 13.5 10.2493C13.4997 10.6632 13.164 10.9993 12.75 10.9993H10.4668L9.9873 13.6331C9.91297 14.0403 9.52255 14.3106 9.11523 14.2366C8.70833 14.1621 8.43801 13.7716 8.51172 13.3645L8.94238 10.9993H5.9668L5.4873 13.6331C5.41297 14.0403 5.02255 14.3106 4.61523 14.2366C4.20833 14.1621 3.93801 13.7716 4.01172 13.3645L4.44238 10.9993H3.25C2.83599 10.9993 2.50033 10.6632 2.5 10.2493C2.50075 9.83569 2.83625 9.49926 3.25 9.49926H4.71484L5.26074 6.49926H3.25C2.83599 6.49926 2.50033 6.1632 2.5 5.74926C2.50075 5.33569 2.83625 4.99926 3.25 4.99926H5.5332L6.01172 2.3645C6.08657 1.95811 6.47703 1.68733 6.88379 1.76098C7.29078 1.83504 7.56048 2.22609 7.4873 2.63305L7.05762 4.99926H10.0332L10.5117 2.3645ZM6.23926 9.49926H9.21484L9.76074 6.49926H6.78516L6.23926 9.49926Z" fill="#000001"/>
</g>
</svg>
