<svg width="16" height="16" viewBox="0 0 16 16" fill="none" xmlns="http://www.w3.org/2000/svg">
<g id="size=16">
<path id="Path" d="M8 1C9.84686 1 11.6236 1.70451 12.9385 2.9668C14.2544 4.23008 15 5.94971 15 7.75V12.75C15 13.9926 13.9926 15 12.75 15H12.25C11.0074 15 10 13.9926 10 12.75V10.25C10 9.00736 11.0074 8 12.25 8H13.5V7.75C13.5 6.3679 12.9284 5.03594 11.9004 4.04883C10.8711 3.06068 9.46834 2.5 8 2.5C6.53165 2.5 5.12893 3.06068 4.09961 4.04883C3.07159 5.03594 2.5 6.3679 2.5 7.75V8H3.75C4.99264 8 6 9.00736 6 10.25V12.75C6 13.9926 4.99264 15 3.75 15H3.25C2.00736 15 1 13.9926 1 12.75V7.75C1 5.94971 1.74564 4.23008 3.06152 2.9668C4.37641 1.70451 6.15314 1 8 1ZM2.5 12.75C2.5 13.1642 2.83579 13.5 3.25 13.5H3.75C4.16421 13.5 4.5 13.1642 4.5 12.75V10.25C4.5 9.83579 4.16421 9.5 3.75 9.5H2.5V12.75ZM12.25 9.5C11.8358 9.5 11.5 9.83579 11.5 10.25V12.75C11.5 13.1642 11.8358 13.5 12.25 13.5H12.75C13.1642 13.5 13.5 13.1642 13.5 12.75V9.5H12.25Z" fill="#000001"/>
</g>
</svg>
