<svg width="16" height="16" viewBox="0 0 16 16" fill="none" xmlns="http://www.w3.org/2000/svg">
<g id="size=16">
<path id="Path" d="M11.4335 1C10.835 1 10.2422 1.11653 9.68884 1.34316C9.13551 1.56977 8.63208 1.90225 8.20777 2.32179L7.99981 2.52733L7.79174 2.32167C6.93477 1.47466 5.77431 1.00037 4.56612 1.00037C3.35792 1.00037 2.19746 1.47466 1.34049 2.32167C0.483228 3.16897 0 4.32004 0 5.52213C0 6.72422 0.483228 7.87529 1.34049 8.72259L7.47259 14.7834C7.76476 15.0722 8.23487 15.0722 8.52704 14.7834L14.6591 8.72259C15.0836 8.30319 15.4208 7.80477 15.6511 7.25556C15.8814 6.70628 16 6.11723 16 5.52213C16 4.92703 15.8814 4.33798 15.6511 3.7887C15.4209 3.23955 15.0837 2.74117 14.6593 2.32179C14.2349 1.90219 13.7316 1.56979 13.1782 1.34316C12.6248 1.11653 12.032 1 11.4335 1Z" fill="#000001"/>
</g>
</svg>
