<svg width="16" height="16" viewBox="0 0 16 16" fill="none" xmlns="http://www.w3.org/2000/svg">
<g id="size=16">
<path id="Path" d="M11.4336 1C12.0317 1.00005 12.6246 1.11634 13.1777 1.34277C13.731 1.5694 14.2349 1.90273 14.6592 2.32227C15.0834 2.74156 15.4212 3.24007 15.6514 3.78906C15.8815 4.33819 16 4.92756 16 5.52246C16 6.1174 15.8816 6.70671 15.6514 7.25586C15.4212 7.80493 15.0836 8.30333 14.6592 8.72266L8.52734 14.7832C8.23523 15.0719 7.76484 15.0718 7.47266 14.7832L1.34082 8.72266C0.483633 7.87543 8.86834e-05 6.72444 0 5.52246C0 4.32037 0.483555 3.16859 1.34082 2.32129C2.19774 1.47461 3.35846 1 4.56641 1C5.77435 1.00016 6.93518 1.47447 7.79199 2.32129L8 2.52734L8.20801 2.32227C8.63224 1.90284 9.13529 1.56935 9.68848 1.34277C10.2418 1.11623 10.8352 1 11.4336 1Z" fill="#000001"/>
</g>
</svg>
