<svg width="16" height="16" viewBox="0 0 16 16" fill="none" xmlns="http://www.w3.org/2000/svg">
<g id="size=16">
<path id="Path" d="M11.4336 1C12.0319 1.00001 12.6245 1.1163 13.1777 1.34277C13.7311 1.5694 14.2348 1.90266 14.6592 2.32227C15.0835 2.7416 15.4212 3.23999 15.6514 3.78906C15.8815 4.33823 16 4.92751 16 5.52246C16 6.11744 15.8816 6.70668 15.6514 7.25586C15.4211 7.80501 15.0836 8.3033 14.6592 8.72266L8.52734 14.7832C8.23518 15.072 7.76482 15.072 7.47266 14.7832L1.34082 8.72266C0.483633 7.87543 8.86766e-05 6.72444 0 5.52246C0 4.32037 0.483555 3.16859 1.34082 2.32129C2.19775 1.4745 3.35838 1 4.56641 1C5.77447 1.00008 6.9351 1.47439 7.79199 2.32129L8 2.52734L8.20801 2.32227C8.63228 1.90276 9.13522 1.56938 9.68848 1.34277C10.2418 1.11615 10.8351 1 11.4336 1ZM11.4336 2.5C11.0297 2.5 10.6295 2.57884 10.2568 2.73145C9.88441 2.88404 9.54683 3.1077 9.2627 3.38867L8.52734 4.11523C8.23518 4.404 7.76483 4.40399 7.47266 4.11523L6.7373 3.38867C6.16302 2.82106 5.3823 2.50008 4.56641 2.5C3.75041 2.5 2.96888 2.82099 2.39453 3.38867C1.82065 3.95603 1.5 4.72402 1.5 5.52246C1.50009 6.32071 1.82083 7.08801 2.39453 7.65527L8 13.1953L13.6045 7.65527C13.8888 7.37441 14.1142 7.04163 14.2676 6.67578C14.421 6.30993 14.5 5.91795 14.5 5.52246C14.5 5.12686 14.421 4.73412 14.2676 4.36816C14.1142 4.00241 13.8887 3.66947 13.6045 3.38867C13.3202 3.10758 12.982 2.88405 12.6094 2.73145C12.2368 2.57891 11.8373 2.50001 11.4336 2.5Z" fill="#000001"/>
</g>
</svg>
