<svg width="16" height="16" viewBox="0 0 16 16" fill="none" xmlns="http://www.w3.org/2000/svg">
<g id="size=16">
<g id="Union">
<path d="M4.80749 4.3772L4.82291 4.39179C4.77377 4.44178 4.72486 4.49081 4.67638 4.5394C4.56878 4.64725 4.46316 4.75312 4.3618 4.86271C4.16459 5.07593 3.99037 5.31476 3.97306 5.38219L4.24607 5.38206C4.45854 5.38188 4.67102 5.38169 4.88348 5.38317C4.9041 5.38396 4.92462 5.37993 4.9434 5.37138C4.96218 5.36284 4.97871 5.35002 4.99165 5.33396C5.13755 5.1732 5.29654 5.02483 5.46699 4.89039C6.12708 4.36231 6.93427 4.05121 7.77803 3.99969C8.061 3.98062 8.3452 3.9916 8.62586 4.03243C9.57492 4.16795 10.4475 4.6286 11.0948 5.33579C11.1049 5.35005 11.1182 5.36176 11.1336 5.36998C11.1491 5.37819 11.1662 5.38269 11.1837 5.38311C11.3822 5.3819 11.5807 5.38192 11.7792 5.38194L12.0737 5.38182C12.0896 5.38028 12.1054 5.37749 12.121 5.37348C11.9067 5.05766 11.6569 4.76752 11.3764 4.50878L11.3894 4.49647C11.3961 4.49007 11.4012 4.48529 11.4066 4.48105C11.6934 4.25773 11.9191 3.98101 12.1092 3.6738C12.2443 3.46017 12.3456 3.22702 12.4096 2.98254C12.4337 2.8879 12.441 2.78978 12.4313 2.69261C12.4184 2.5608 12.3447 2.45044 12.1693 2.47052C12.1342 2.47462 12.0997 2.48255 12.0663 2.49418C11.9452 2.53773 11.833 2.60305 11.7353 2.68691C11.3169 3.03329 10.9988 3.48539 10.8141 3.99625C10.8102 4.00701 10.8049 4.01728 10.8002 4.02662L10.7943 4.03831C10.74 4.00743 10.6864 3.97608 10.6331 3.9449C10.5125 3.87436 10.3934 3.80468 10.2702 3.74324C10.0905 3.65276 9.90563 3.57265 9.71668 3.5033C9.52926 3.4364 9.33817 3.38028 9.14434 3.33521C9.00945 3.30315 8.87253 3.27963 8.73467 3.25595C8.674 3.24553 8.61315 3.23507 8.55221 3.22385C8.6044 3.04199 8.63717 2.85511 8.64995 2.66634C8.67577 2.35706 8.65574 2.04567 8.59052 1.74224C8.56191 1.59875 8.51226 1.46028 8.44318 1.3313C8.40609 1.25525 8.3497 1.19026 8.27965 1.14281C8.24649 1.12005 8.20716 1.108 8.16695 1.10828C8.12673 1.10856 8.08757 1.12116 8.05474 1.14438C8.02177 1.16658 7.99198 1.19316 7.96616 1.22338C7.89784 1.30798 7.84584 1.40456 7.81282 1.50818C7.74457 1.70491 7.70272 1.90982 7.68838 2.11756C7.65577 2.46422 7.68087 2.81389 7.76266 3.15234C7.76574 3.16451 7.76808 3.17686 7.77075 3.19097L7.7752 3.21394C6.97367 3.25813 6.195 3.49706 5.50663 3.91004C5.50312 3.90685 5.50032 3.90452 5.4981 3.90266C5.49439 3.89957 5.49222 3.89776 5.49097 3.89551C5.48688 3.88769 5.48324 3.87964 5.48007 3.87141C5.33466 3.52568 5.12869 3.2087 4.87185 2.93538C4.72725 2.77852 4.57 2.63549 4.37708 2.53874C4.32606 2.51227 4.27223 2.49164 4.2166 2.47723C4.04022 2.43449 3.91942 2.52569 3.90696 2.70618C3.90641 2.71416 3.90621 2.72216 3.906 2.73016L3.9055 2.746C3.89931 2.88582 3.9342 3.01823 3.98042 3.14804C4.14557 3.61188 4.41896 4.00431 4.77223 4.3437L4.80749 4.3772Z" fill="#000001"/>
<path d="M11.3756 11.5021C11.6248 11.2722 11.8497 11.0174 12.0468 10.7415L12.0419 10.7249H11.971L11.7483 10.7252C11.5481 10.7256 11.3477 10.726 11.1475 10.7235C11.1163 10.722 11.085 10.7273 11.056 10.7391C11.0271 10.7509 11.001 10.769 10.9797 10.7919C10.0293 11.7202 8.89433 12.1201 7.57496 11.9919C7.08933 11.9419 6.61733 11.8016 6.18325 11.5782C5.77293 11.3721 5.40002 11.0987 5.07997 10.7694C5.06716 10.7546 5.0512 10.7428 5.03326 10.735C5.01532 10.7271 4.99585 10.7233 4.97627 10.7239C4.77093 10.7253 4.56557 10.7252 4.36021 10.7251L4.09307 10.7251C4.08098 10.7251 4.06889 10.7263 4.05423 10.7278C4.04652 10.7286 4.03811 10.7294 4.02861 10.7302C4.2587 11.053 4.52628 11.3473 4.82575 11.607C4.82296 11.6135 4.81953 11.6196 4.81552 11.6254C4.80764 11.6331 4.79954 11.6406 4.79145 11.6481L4.77685 11.6618C4.45902 11.9592 4.20627 12.3192 4.03454 12.7191C3.97658 12.8461 3.93601 12.9803 3.91393 13.1182C3.90046 13.2171 3.89344 13.3168 3.93309 13.4126C3.94528 13.4449 3.96563 13.4734 3.99215 13.4954C4.01867 13.5175 4.05045 13.5322 4.08438 13.5383C4.14583 13.5487 4.20896 13.5419 4.26681 13.5187C4.39023 13.475 4.50457 13.4089 4.60412 13.3239C4.98017 13.0111 5.27669 12.6137 5.46935 12.1641C5.47569 12.1497 5.48218 12.1354 5.4892 12.1199L5.5002 12.0956C6.18769 12.5099 6.96592 12.7502 7.76732 12.7954C7.76846 12.8001 7.76954 12.8037 7.77038 12.8065C7.77177 12.8111 7.77256 12.8137 7.7721 12.8161C7.76921 12.8313 7.76562 12.8463 7.7617 12.8612C7.71642 13.037 7.68935 13.217 7.68093 13.3984C7.66548 13.646 7.67824 13.8946 7.71898 14.1394C7.75064 14.3187 7.79498 14.4946 7.88113 14.6563C7.91085 14.7131 7.9476 14.766 7.99053 14.8136C8.09915 14.9317 8.23221 14.9307 8.34365 14.8157C8.3693 14.7912 8.39135 14.7632 8.40913 14.7325C8.45302 14.6533 8.49197 14.5716 8.52574 14.4876C8.5967 14.2848 8.6384 14.0729 8.64958 13.8583C8.67942 13.5159 8.6513 13.1709 8.5664 12.8378C8.56318 12.8257 8.5609 12.8134 8.55835 12.7995L8.55415 12.7774C8.82181 12.7475 9.08676 12.6971 9.34668 12.6265C9.60248 12.5554 9.85232 12.4644 10.0939 12.3542C10.3367 12.2409 10.5708 12.1098 10.7943 11.962L10.8029 11.9842C10.8075 11.996 10.8111 12.0053 10.8145 12.0146C10.9984 12.5257 11.317 12.9776 11.7367 13.3224C11.8164 13.3856 11.9025 13.4402 11.9938 13.4852C12.0535 13.5139 12.1174 13.5328 12.1831 13.5414C12.2318 13.55 12.282 13.5404 12.3241 13.5145C12.3662 13.4886 12.3973 13.4481 12.4116 13.4007C12.4229 13.3673 12.4299 13.3326 12.4325 13.2974C12.4409 13.1599 12.4198 13.0223 12.3708 12.8936C12.1867 12.3659 11.8603 11.8994 11.4277 11.5455L11.3756 11.5021Z" fill="#000001"/>
<path d="M10.8207 6.53735C10.8448 6.53735 10.8687 6.53786 10.8923 6.53836C10.9451 6.53948 10.9968 6.54058 11.0479 6.53595C11.1318 6.52836 11.1918 6.55835 11.253 6.61472C11.5189 6.85979 11.787 7.10259 12.0551 7.3454L12.3186 7.58428C12.3305 7.59509 12.3426 7.60571 12.3561 7.6176L12.3777 7.63664L12.3981 7.6193C12.412 7.60751 12.4254 7.59619 12.4383 7.58441C12.8049 7.2507 13.1712 6.91669 13.5373 6.58239C13.5525 6.56674 13.5708 6.55453 13.5911 6.54658C13.6114 6.53863 13.6332 6.53513 13.655 6.53631C13.7183 6.53887 13.7818 6.53835 13.847 6.53781C13.8745 6.53758 13.9023 6.53735 13.9305 6.53735V9.48768C13.8823 9.50178 13.234 9.50458 13.1566 9.48939V7.99525L13.1416 7.98813L12.3789 8.68367L11.6101 7.99107L11.5954 7.99645C11.595 8.08129 11.5951 8.16615 11.5951 8.25101L11.5951 9.49482H10.8271C10.8128 9.44518 10.8061 6.70428 10.8207 6.53735Z" fill="#000001"/>
<path d="M4.49723 6.54071H3.73386V7.06621C3.73396 7.15475 3.73395 7.24329 3.73383 7.33183L3.73316 7.58596C3.65059 7.60119 2.83984 7.59825 2.78474 7.58233V6.54105H2.01367V9.48877C2.07846 9.5042 2.73014 9.50255 2.7878 9.48532V8.37259H3.73386L3.73378 8.54629C3.73369 8.67643 3.73361 8.80516 3.73397 8.93369C3.73414 8.9944 3.73395 9.05511 3.73377 9.11585C3.73338 9.24219 3.73298 9.36866 3.73583 9.49541H4.49988C4.51566 9.42391 4.51264 6.58978 4.49723 6.54071Z" fill="#000001"/>
<path d="M5.41211 9.4943V6.54944C5.45739 6.53463 7.13537 6.52884 7.24505 6.54371V7.17131C7.23991 7.17168 7.23474 7.17212 7.22955 7.17258C7.2269 7.17282 7.22425 7.17306 7.2216 7.1733C7.20445 7.17487 7.18705 7.17646 7.16965 7.17648C6.87083 7.17685 6.572 7.17694 6.27317 7.17673H6.19007V7.66487H7.12378V8.31423H6.19842C6.18293 8.36982 6.17868 8.7571 6.19125 8.86432L6.21386 8.86612C6.23074 8.86757 6.24817 8.86907 6.2656 8.86909C6.56443 8.86944 6.86325 8.86952 7.16208 8.86932H7.24523V9.4943H5.41211Z" fill="#000001"/>
<path d="M8.12254 6.54095C8.10862 6.59459 8.10579 9.41642 8.11981 9.49544L9.95196 9.49544V8.72275H9.87055C9.56949 8.7229 9.26843 8.72284 8.96738 8.72256C8.95021 8.72255 8.93304 8.72144 8.91378 8.7202C8.90416 8.71958 8.89401 8.71893 8.88308 8.71836V6.54095H8.12254Z" fill="#000001"/>
</g>
</g>
</svg>
