<svg width="24" height="24" viewBox="0 0 24 24" fill="none" xmlns="http://www.w3.org/2000/svg">
<g id="size=24">
<g id="Union">
<path d="M7.43922 6.82455L7.46127 6.8454C7.39101 6.91687 7.32109 6.98696 7.25178 7.05643C7.09806 7.2105 6.94734 7.36158 6.80254 7.51814C6.52081 7.82274 6.27192 8.16393 6.2472 8.26025L6.63707 8.26007C6.94053 8.25981 7.24435 8.25954 7.5478 8.26165C7.57725 8.26278 7.60656 8.25702 7.63339 8.24481C7.66022 8.23261 7.68383 8.2143 7.70233 8.19135C7.91075 7.9617 8.13788 7.74974 8.38137 7.55768C9.32436 6.80329 10.4775 6.35886 11.6829 6.28526C12.0871 6.25801 12.4931 6.27369 12.894 6.33203C14.2499 6.52562 15.4965 7.1837 16.4212 8.19396C16.4356 8.21434 16.4546 8.23107 16.4766 8.2428C16.4986 8.25454 16.5231 8.26097 16.5481 8.26156C16.8317 8.25984 17.1153 8.25987 17.3989 8.25989C17.5391 8.25991 17.6793 8.25992 17.8195 8.25972C17.8423 8.25752 17.8649 8.25354 17.8871 8.24782C17.581 7.79664 17.2241 7.38215 16.8233 7.01252L16.8286 7.00764L16.8418 6.99514C16.8514 6.986 16.8588 6.97896 16.8665 6.97291C17.2763 6.65389 17.5987 6.25856 17.8703 5.81969C18.0632 5.51451 18.2079 5.18144 18.2995 4.83219C18.3338 4.69698 18.3443 4.55681 18.3304 4.418C18.3119 4.2297 18.2067 4.07203 17.9562 4.10073C17.906 4.10658 17.8567 4.11791 17.809 4.13453C17.636 4.19675 17.4757 4.29005 17.3361 4.40985C16.7383 4.90468 16.2839 5.55054 16.0201 6.28034C16.0145 6.29572 16.007 6.3104 16.0002 6.32375L15.9966 6.33081L15.9919 6.34043C15.9142 6.29631 15.8377 6.25153 15.7616 6.20698C15.5893 6.10621 15.4192 6.00667 15.2432 5.91889C14.9863 5.78964 14.7223 5.67519 14.4524 5.57612C14.1846 5.48055 13.9116 5.40038 13.6347 5.33599C13.442 5.2902 13.2464 5.2566 13.0495 5.22277C12.9629 5.20788 12.8759 5.19294 12.7888 5.17691C12.8634 4.91711 12.9102 4.65014 12.9285 4.38047C12.9653 3.93865 12.9367 3.49379 12.8436 3.06033C12.8027 2.85535 12.7318 2.65752 12.6331 2.47327C12.5801 2.36463 12.4995 2.27178 12.3995 2.20399C12.3521 2.17148 12.2959 2.15427 12.2385 2.15467C12.181 2.15507 12.1251 2.17307 12.0782 2.20623C12.0311 2.23796 11.9885 2.27592 11.9516 2.31909C11.854 2.43996 11.7797 2.57792 11.7326 2.72595C11.6351 3.00699 11.5753 3.29973 11.5548 3.5965C11.5082 4.09173 11.5441 4.59126 11.6609 5.07476C11.6653 5.0921 11.6686 5.10972 11.6724 5.12983L11.6788 5.16276C10.5338 5.22588 9.42139 5.56722 8.43801 6.15718C8.43296 6.15259 8.42895 6.14925 8.42576 6.14659C8.42047 6.14218 8.41742 6.13964 8.41564 6.13643C8.4098 6.12526 8.4046 6.11376 8.40006 6.10199C8.19233 5.6081 7.89809 5.15527 7.53118 4.76481C7.32461 4.54072 7.09997 4.33639 6.82436 4.19818C6.75148 4.16037 6.67458 4.1309 6.5951 4.11032C6.34313 4.04925 6.17057 4.17955 6.15277 4.43738C6.15198 4.44879 6.15169 4.46022 6.1514 4.47166L6.15068 4.49427C6.14183 4.69401 6.19168 4.88316 6.25771 5.06862C6.49363 5.73124 6.8842 6.29185 7.38887 6.7767C7.40573 6.7929 7.42284 6.80906 7.43922 6.82455Z" fill="#000001"/>
<path d="M16.8223 17.003C17.1784 16.6747 17.4997 16.3106 17.7813 15.9165L17.7743 15.8928H17.6729C17.5669 15.8928 17.4608 15.893 17.3548 15.8932C17.0687 15.8938 16.7826 15.8944 16.4966 15.8908C16.4519 15.8886 16.4073 15.8962 16.3659 15.9131C16.3245 15.93 16.2873 15.9557 16.2569 15.9886C14.899 17.3146 13.2777 17.886 11.3929 17.7027C10.6992 17.6313 10.0249 17.4309 9.40474 17.1118C8.81858 16.8173 8.28585 16.4268 7.82863 15.9564C7.81033 15.9352 7.78753 15.9184 7.76191 15.9071C7.73628 15.8959 7.70847 15.8905 7.68049 15.8913C7.38716 15.8933 7.09381 15.8932 6.80046 15.8931C6.67324 15.893 6.54601 15.893 6.41878 15.8931C6.40151 15.8931 6.38424 15.8948 6.36331 15.8969C6.35232 15.898 6.34023 15.8992 6.3267 15.9003C6.65538 16.3615 7.03764 16.782 7.46546 17.153C7.46147 17.1622 7.45658 17.171 7.45084 17.1792C7.43958 17.1903 7.42801 17.201 7.41643 17.2117L7.39561 17.2312C6.94156 17.656 6.58049 18.1703 6.33516 18.7417C6.25237 18.9231 6.19441 19.1148 6.16286 19.3117C6.14362 19.453 6.13359 19.5954 6.19023 19.7324C6.20765 19.7785 6.23672 19.8192 6.2746 19.8507C6.31249 19.8822 6.35788 19.9033 6.40636 19.912C6.49415 19.9268 6.58433 19.9171 6.66697 19.8839C6.8433 19.8215 7.00664 19.7271 7.14885 19.6056C7.68606 19.1588 8.10966 18.591 8.3849 17.9488C8.38931 17.9387 8.39378 17.9288 8.39836 17.9186C8.40298 17.9083 8.40773 17.8978 8.41265 17.887L8.42896 17.8509C9.41109 18.4428 10.5228 18.786 11.6677 18.8507L11.6703 18.8605L11.6721 18.8665C11.6741 18.8731 11.6752 18.8768 11.6745 18.8802C11.6704 18.9018 11.6653 18.9233 11.6597 18.9446C11.595 19.1958 11.5563 19.453 11.5443 19.712C11.5222 20.0658 11.5405 20.421 11.5986 20.7706C11.6439 21.0268 11.7072 21.278 11.8303 21.509C11.8727 21.5902 11.9253 21.6657 11.9866 21.7338C12.1417 21.9025 12.3318 21.9011 12.491 21.7367C12.5277 21.7017 12.5592 21.6617 12.5846 21.6179C12.6473 21.5048 12.7029 21.388 12.7512 21.2681C12.8525 20.9783 12.9121 20.6756 12.9281 20.369C12.9707 19.8799 12.9305 19.387 12.8093 18.9113C12.8046 18.894 12.8014 18.8763 12.7978 18.8565C12.7959 18.8466 12.794 18.8361 12.7918 18.8249C13.1741 18.7822 13.5526 18.7101 13.9239 18.6094C14.2894 18.5078 14.6463 18.3777 14.9914 18.2204C15.3382 18.0585 15.6726 17.8712 15.9919 17.6601L16.0042 17.6918C16.0108 17.7087 16.0159 17.7219 16.0208 17.7352C16.2835 18.4653 16.7387 19.1109 17.3382 19.6035C17.4521 19.6938 17.5752 19.7718 17.7055 19.8361C17.7908 19.877 17.8821 19.9041 17.976 19.9163C18.0456 19.9286 18.1172 19.915 18.1774 19.8779C18.2375 19.8409 18.282 19.783 18.3023 19.7154C18.3185 19.6676 18.3286 19.618 18.3322 19.5677C18.3442 19.3714 18.3142 19.1747 18.2442 18.9909C17.9811 18.2371 17.5148 17.5706 16.8968 17.0651L16.8223 17.003Z" fill="#000001"/>
<path d="M16.0295 9.91046C16.064 9.91046 16.0981 9.91119 16.1318 9.9119C16.2072 9.9135 16.2811 9.91507 16.3541 9.90846C16.4739 9.89762 16.5597 9.94046 16.6471 10.021C17.0271 10.3711 17.41 10.718 17.793 11.0649L17.7947 11.0664C17.9196 11.1796 18.0446 11.2928 18.1694 11.4061C18.1863 11.4214 18.2034 11.4365 18.2226 11.4533L18.2538 11.4809L18.2829 11.4561C18.3028 11.4393 18.3219 11.4231 18.3404 11.4063C18.8641 10.9295 19.3874 10.4524 19.9104 9.9748C19.9321 9.95244 19.9583 9.935 19.9873 9.92364C20.0163 9.91229 20.0474 9.90728 20.0785 9.90897C20.169 9.91263 20.2596 9.91188 20.3526 9.91112C20.3919 9.91079 20.4319 9.91046 20.4721 9.91046V14.1252C20.4032 14.1454 19.4771 14.1494 19.3666 14.1277V11.9932L19.3451 11.983L18.2556 12.9766L17.1573 11.9872L17.1363 11.9949C17.1357 12.1158 17.1358 12.2367 17.1358 12.3576L17.1359 12.5294C17.1358 12.7064 17.1358 12.8835 17.1359 13.0605V14.1354H16.0387C16.0182 14.0645 16.0086 10.1489 16.0295 9.91046Z" fill="#000001"/>
<path d="M6.99593 9.91528H5.9054V10.666C5.90555 10.7925 5.90553 10.919 5.90537 11.0455C5.90526 11.1303 5.90499 11.2151 5.90473 11.299L5.90441 11.4085C5.78645 11.4303 4.62824 11.4261 4.54953 11.4033V9.91577H3.448V14.1268C3.54055 14.1488 4.47152 14.1465 4.5539 14.1219V12.5322H5.9054L5.90529 12.7804C5.90517 12.9663 5.90505 13.1502 5.90557 13.3338C5.90581 13.4205 5.90554 13.5072 5.90528 13.5939C5.90472 13.7744 5.90416 13.9552 5.90822 14.1363H6.99972C7.02226 14.0341 7.01796 9.98538 6.99593 9.91528Z" fill="#000001"/>
<path d="M8.30298 14.1347V9.92778C8.36766 9.90661 10.7648 9.89834 10.9215 9.91959V10.8162C10.9104 10.817 10.8993 10.818 10.888 10.819C10.8635 10.8212 10.8386 10.8235 10.8138 10.8235C10.3869 10.8241 9.95996 10.8242 9.53306 10.8239H9.41436V11.5212H10.7482V12.4489H9.42629C9.40415 12.5283 9.39807 13.0816 9.41604 13.2347C9.42659 13.2355 9.43739 13.2364 9.44834 13.2373C9.47246 13.2394 9.49735 13.2415 9.52225 13.2416C9.94915 13.2421 10.376 13.2422 10.8029 13.2419H10.9217V14.1347H8.30298Z" fill="#000001"/>
<path d="M12.1753 9.91565C12.1554 9.99227 12.1513 14.0234 12.1714 14.1363L14.7887 14.1363V13.0325H14.6724C14.2423 13.0327 13.8123 13.0326 13.3822 13.0322C13.3577 13.0322 13.3331 13.0306 13.3056 13.0289C13.2919 13.028 13.2774 13.027 13.2617 13.0262V9.91565H12.1753Z" fill="#000001"/>
</g>
</g>
</svg>
