<svg width="16" height="16" viewBox="0 0 16 16" fill="none" xmlns="http://www.w3.org/2000/svg">
<g id="size=16">
<path id="Path" d="M8 0C12.4183 0 16 3.58172 16 8C16 12.4183 12.4183 16 8 16C3.58172 16 0 12.4183 0 8C0 3.58172 3.58172 0 8 0ZM8 1.5C4.41015 1.5 1.5 4.41015 1.5 8C1.5 11.5899 4.41015 14.5 8 14.5C11.5899 14.5 14.5 11.5899 14.5 8C14.5 4.41015 11.5899 1.5 8 1.5ZM8.00684 11C8.55904 11.0001 9.00684 11.4478 9.00684 12C9.00684 12.5522 8.55904 12.9999 8.00684 13H8C7.44772 13 7 12.5523 7 12C7 11.4477 7.44772 11 8 11H8.00684ZM6.37598 3.43066C7.00109 3.05693 7.7382 2.91983 8.45508 3.04492C9.17156 3.17002 9.81849 3.5489 10.2832 4.11035C10.7476 4.67153 11.0009 5.3798 11 6.10938C10.9999 6.59689 10.9079 7.01511 10.7256 7.37598C10.5434 7.73648 10.294 7.99517 10.0469 8.19336C9.85286 8.34893 9.63622 8.48462 9.46484 8.5918C9.4312 8.61284 9.39881 8.63256 9.36914 8.65137C9.16775 8.77908 9.0267 8.87868 8.91699 8.99023C8.81471 9.09429 8.77366 9.18695 8.75684 9.23828C8.74967 9.26019 8.74636 9.27593 8.74512 9.2832C8.72761 9.68188 8.39909 10 7.99609 10C7.58188 10 7.24609 9.66421 7.24609 9.25C7.24625 9.08697 7.28147 8.92584 7.33203 8.77148C7.4117 8.52836 7.56401 8.22801 7.84766 7.93945C8.08617 7.69682 8.35251 7.5204 8.56641 7.38477C8.61135 7.35627 8.65349 7.32972 8.69336 7.30469C8.86159 7.19905 8.98895 7.11922 9.1084 7.02344C9.24094 6.91714 9.32759 6.81709 9.38672 6.7002C9.44566 6.58354 9.49998 6.40418 9.5 6.10938C9.50056 5.72665 9.36772 5.35618 9.12793 5.06641C8.88846 4.77714 8.55827 4.58553 8.19727 4.52246C7.83618 4.45945 7.46332 4.52874 7.14551 4.71875C6.82759 4.90896 6.58339 5.20958 6.45898 5.56934C6.32357 5.96064 5.89625 6.16844 5.50488 6.0332C5.1135 5.89786 4.90583 5.4705 5.04102 5.0791C5.2795 4.38944 5.75118 3.80421 6.37598 3.43066Z" fill="#000001"/>
</g>
</svg>
