<svg width="24" height="24" viewBox="0 0 24 24" fill="none" xmlns="http://www.w3.org/2000/svg">
<g id="size=24">
<path id="Path" d="M11.9996 1C18.0748 1 22.9996 5.92487 22.9996 12C22.9996 18.0751 18.0748 23 11.9996 23C5.92467 22.9998 0.999634 18.075 0.999634 12C0.999634 5.92499 5.92467 1.0002 11.9996 1ZM11.9996 2.5C6.7531 2.5002 2.49963 6.75342 2.49963 12C2.49963 17.2466 6.7531 21.4998 11.9996 21.5C17.2463 21.5 21.4996 17.2467 21.4996 12C21.4996 6.75329 17.2463 2.5 11.9996 2.5ZM12.0094 16C12.5617 16 13.0094 16.4477 13.0094 17C13.0094 17.5523 12.5617 18 12.0094 18H11.9996C11.4475 17.9998 10.9996 17.5522 10.9996 17C10.9996 16.4478 11.4475 16.0002 11.9996 16H12.0094ZM9.84143 6.54004C10.6726 6.0709 11.647 5.90099 12.5924 6.05664C13.5379 6.21246 14.4021 6.68548 15.028 7.39941C15.6542 8.11404 16.0009 9.02377 15.9996 9.96777C15.9995 10.6041 15.872 11.1367 15.6305 11.5879C15.3901 12.0369 15.0611 12.3588 14.7301 12.6094C14.4669 12.8086 14.1752 12.9815 13.9274 13.1279C13.8775 13.1574 13.8285 13.1855 13.7828 13.2129C13.4884 13.3892 13.2568 13.5413 13.0709 13.7197C12.8861 13.8973 12.8069 14.0609 12.7721 14.1611C12.7542 14.2127 12.7474 14.251 12.7448 14.2686L12.7438 14.2754C12.7303 14.6778 12.3994 15 11.9938 15C11.5798 14.9997 11.2438 14.664 11.2438 14.25C11.2439 14.0519 11.2905 13.8562 11.3551 13.6699C11.4596 13.3687 11.6597 12.9962 12.0319 12.6387C12.3489 12.3342 12.7069 12.1096 13.0123 11.9268C13.0734 11.8902 13.1319 11.8546 13.1881 11.8213C13.433 11.6762 13.6362 11.5559 13.8248 11.4131C14.0424 11.2484 14.2 11.082 14.3082 10.8799C14.4153 10.6798 14.4996 10.3975 14.4996 9.9668C14.5005 9.39397 14.2908 8.83355 13.9 8.3877C13.5086 7.9412 12.9595 7.63683 12.3483 7.53613C11.7369 7.43554 11.1093 7.5463 10.5787 7.8457C10.0487 8.14493 9.65277 8.61092 9.45374 9.1543C9.31122 9.54306 8.88066 9.7429 8.49182 9.60059C8.10321 9.45804 7.90336 9.02741 8.04553 8.63867C8.37065 7.75106 9.00978 7.00957 9.84143 6.54004Z" fill="#000001"/>
</g>
</svg>
