<svg width="24" height="24" viewBox="0 0 24 24" fill="none" xmlns="http://www.w3.org/2000/svg">
<g id="size=24">
<path id="Path" fill-rule="evenodd" clip-rule="evenodd" d="M10.5588 1.00661C11.4423 0.463209 12.5571 0.463294 13.4407 1.00661L21.1907 5.77516C22.0032 6.27552 22.4998 7.16369 22.5002 8.11793V15.8826C22.4998 16.8368 22.0033 17.7241 21.1907 18.2244L13.4407 22.9939C12.5573 23.5371 11.4423 23.5371 10.5588 22.9939L2.80884 18.2244C1.99627 17.724 1.5007 16.8368 1.50024 15.8826V8.11793C1.50066 7.16358 1.99611 6.27549 2.80884 5.77516L10.5588 1.00661ZM12.6545 2.28395C12.2531 2.03737 11.7463 2.03728 11.345 2.28395L3.59497 7.05251C3.22586 7.27984 3.00066 7.68447 3.00024 8.11793V15.8826C3.0007 16.3159 3.22602 16.7197 3.59497 16.947L11.345 21.7166C11.7463 21.963 12.2533 21.9631 12.6545 21.7166L20.4045 16.947C20.7735 16.7197 20.9998 16.3159 21.0002 15.8826V8.11793C20.9998 7.68459 20.7735 7.27987 20.4045 7.05251L12.6545 2.28395Z" fill="#000001"/>
</g>
</svg>
