<svg width="16" height="16" viewBox="0 0 16 16" fill="none" xmlns="http://www.w3.org/2000/svg">
<g id="size=16">
<path id="Path" fill-rule="evenodd" clip-rule="evenodd" d="M6.83382 0.329772C7.55059 -0.104634 8.44941 -0.104635 9.16618 0.329772L14.4162 3.51159C15.089 3.91938 15.5 4.64901 15.5 5.43579V10.5642C15.5 11.351 15.089 12.0806 14.4162 12.4884L9.16618 15.6702C8.44941 16.1046 7.55059 16.1046 6.83382 15.6702L1.58382 12.4884C0.91097 12.0806 0.5 11.351 0.5 10.5642V5.43579C0.5 4.64901 0.91097 3.91938 1.58382 3.51159L6.83382 0.329772ZM8.38873 1.61257C8.1498 1.46777 7.8502 1.46777 7.61127 1.61257L2.36127 4.79439C2.13699 4.93032 2 5.17353 2 5.43579V10.5642C2 10.8264 2.13699 11.0697 2.36127 11.2056L7.61127 14.3874C7.8502 14.5322 8.1498 14.5322 8.38873 14.3874L13.6387 11.2056C13.863 11.0697 14 10.8264 14 10.5642V5.43579C14 5.17353 13.863 4.93032 13.6387 4.79439L8.38873 1.61257Z" fill="#000001"/>
</g>
</svg>
