<svg width="24" height="24" viewBox="0 0 24 24" fill="none" xmlns="http://www.w3.org/2000/svg">
<g id="size=24">
<path id="Path" fill-rule="evenodd" clip-rule="evenodd" d="M10.5587 1.0063C11.4426 0.462378 12.5574 0.462379 13.4413 1.0063L21.1913 5.77553C22.0046 6.27602 22.5 7.16262 22.5 8.11759V15.8824C22.5 16.8374 22.0046 17.724 21.1913 18.2245L13.4413 22.9937C12.5574 23.5376 11.4426 23.5376 10.5587 22.9937L2.80873 18.2245C1.99543 17.724 1.5 16.8374 1.5 15.8824V8.11759C1.5 7.16262 1.99543 6.27602 2.80873 5.77553L10.5587 1.0063ZM12.6551 2.28379C12.2534 2.03655 11.7466 2.03655 11.3449 2.28378L3.59488 7.05301C3.22519 7.28051 3 7.68351 3 8.11759V15.8824C3 16.3165 3.22519 16.7195 3.59488 16.947L11.3449 21.7162C11.7466 21.9634 12.2534 21.9634 12.6551 21.7162L20.4051 16.947C20.7748 16.7195 21 16.3165 21 15.8824V8.11759C21 7.68351 20.7748 7.28051 20.4051 7.05302L12.6551 2.28379Z" fill="#000001"/>
</g>
</svg>
