<svg width="24" height="24" viewBox="0 0 24 24" fill="none" xmlns="http://www.w3.org/2000/svg">
<g id="size=24">
<path id="Path" d="M12 2C17.5228 2 22 6.47715 22 12C22 17.5228 17.5228 22 12 22C6.47715 22 2 17.5228 2 12C2 11.5858 2.33579 11.25 2.75 11.25C3.16421 11.25 3.5 11.5858 3.5 12C3.5 16.6944 7.30558 20.5 12 20.5C16.6944 20.5 20.5 16.6944 20.5 12C20.5 7.30558 16.6944 3.5 12 3.5C9.65258 3.5 7.52828 4.45024 5.98926 5.98926C5.67574 6.30277 5.38663 6.64095 5.125 7H8.25C8.66421 7 9 7.33579 9 7.75C9 8.16421 8.66421 8.5 8.25 8.5H3.75C3.33579 8.5 3 8.16421 3 7.75V3.25C3 2.83579 3.33579 2.5 3.75 2.5C4.16421 2.5 4.5 2.83579 4.5 3.25V5.38574C4.63823 5.22912 4.78106 5.07636 4.92871 4.92871C6.73753 3.11989 9.23878 2 12 2ZM11.75 6C12.1642 6 12.5 6.33579 12.5 6.75V12.5361L16.585 14.5791C16.9553 14.7643 17.1058 15.2146 16.9209 15.585C16.7357 15.9553 16.2854 16.1058 15.915 15.9209L11.415 13.6709C11.161 13.5439 11 13.2841 11 13V6.75C11 6.33579 11.3358 6 11.75 6Z" fill="#000001"/>
</g>
</svg>
