<svg width="16" height="16" viewBox="0 0 16 16" fill="none" xmlns="http://www.w3.org/2000/svg">
<g id="size=16">
<path id="Path" fill-rule="evenodd" clip-rule="evenodd" d="M6.91992 1.39487C7.55391 0.899239 8.4467 0.898065 9.08008 1.39487L14.3301 5.51401C14.7509 5.84556 14.9996 6.35512 15 6.89096V14.2503C14.9993 14.6626 14.6619 14.9982 14.25 15.0003C13.8362 15.0003 13.5007 14.6639 13.5 14.2503V6.89096C13.4996 6.8157 13.4628 6.74091 13.4043 6.69369L8.1543 2.57455C8.06457 2.50431 7.93608 2.50552 7.8457 2.57455L2.5957 6.69369C2.53564 6.74085 2.50036 6.81463 2.5 6.89096V14.2503C2.49927 14.6626 2.16192 14.9982 1.75 15.0003C1.33624 15.0003 1.00073 14.6639 1 14.2503V6.89096C1.00036 6.35399 1.24744 5.84551 1.66992 5.51401L6.91992 1.39487ZM9.75 9.00033C10.4381 9.0025 10.9993 9.56192 11 10.2503V14.2503C10.9993 14.6626 10.6619 14.9982 10.25 15.0003C9.83624 15.0003 9.50073 14.6639 9.5 14.2503V10.5003H6.5V14.2503C6.49927 14.6626 6.16192 14.9982 5.75 15.0003C5.33624 15.0003 5.00073 14.6639 5 14.2503V10.2503C5.00071 9.56058 5.56008 9.00033 6.25 9.00033H9.75Z" fill="#000001"/>
</g>
</svg>
