<svg width="16" height="16" viewBox="0 0 16 16" fill="none" xmlns="http://www.w3.org/2000/svg">
<g id="size=16">
<path id="Path" fill-rule="evenodd" clip-rule="evenodd" d="M6.91992 1.39561C7.55398 0.899805 8.44663 0.89863 9.08008 1.39561L14.3301 5.51475C14.7509 5.84637 14.9997 6.35579 15 6.8917V14.2511C14.9991 14.6632 14.6618 14.9989 14.25 15.0011C13.8363 15.0011 13.5009 14.6646 13.5 14.2511V6.8917C13.4997 6.81638 13.4629 6.74174 13.4043 6.69444L8.1543 2.5753C8.0645 2.50487 7.93615 2.50609 7.8457 2.5753L2.5957 6.69444C2.53562 6.74166 2.50025 6.8153 2.5 6.8917V14.2511C2.49913 14.6632 2.16184 14.9989 1.75 15.0011C1.33632 15.0011 1.00087 14.6646 1 14.2511V6.8917C1.00025 6.35465 1.24742 5.84633 1.66992 5.51475L6.91992 1.39561ZM9.75 9.00108C10.4382 9.00325 10.9995 9.5625 11 10.2511V14.2511C10.9991 14.6632 10.6618 14.9989 10.25 15.0011C9.83632 15.0011 9.50086 14.6646 9.5 14.2511V10.5011H6.5V14.2511C6.49913 14.6632 6.16184 14.9989 5.75 15.0011C5.33632 15.0011 5.00087 14.6646 5 14.2511V10.2511C5.00052 9.56117 5.55997 9.00108 6.25 9.00108H9.75Z" fill="#000001"/>
</g>
</svg>
