<svg width="16" height="16" viewBox="0 0 16 16" fill="none" xmlns="http://www.w3.org/2000/svg">
<g id="size=16">
<path id="Path" fill-rule="evenodd" clip-rule="evenodd" d="M11.9873 0.5C13.1241 0.501114 13.8476 1.71791 13.3046 2.7168L10.4931 7.88086C10.4529 7.95514 10.4529 8.04486 10.4931 8.11914L13.3046 13.2832C13.8476 14.2821 13.1241 15.4989 11.9873 15.5H4.01167C2.8738 15.4999 2.15051 14.2826 2.69429 13.2832L5.50581 8.11914C5.5456 8.04519 5.5456 7.95481 5.50581 7.88086L2.69429 2.7168C2.15051 1.71736 2.8738 0.500066 4.01167 0.5H11.9873ZM6.8232 7.16309C7.10674 7.68443 7.10674 8.31557 6.8232 8.83691L4.01167 14H11.9873L9.17573 8.83691C8.89174 8.31524 8.89174 7.68476 9.17573 7.16309L11.9873 2H4.01167L6.8232 7.16309ZM9.49995 12C9.91328 12.001 10.25 12.3364 10.25 12.75C10.25 13.1636 9.91328 13.499 9.49995 13.5H6.49995C6.08574 13.5 5.74995 13.1642 5.74995 12.75C5.74995 12.3358 6.08574 12 6.49995 12H9.49995ZM8.24995 4.5C8.66328 4.50104 8.99995 4.83643 8.99995 5.25C8.99995 5.66357 8.66328 5.99896 8.24995 6H7.74995C7.33574 6 6.99995 5.66421 6.99995 5.25C6.99995 4.83579 7.33574 4.5 7.74995 4.5H8.24995Z" fill="#000001"/>
</g>
</svg>
