<svg width="24" height="24" viewBox="0 0 24 24" fill="none" xmlns="http://www.w3.org/2000/svg">
<g id="size=24">
<path id="Path" fill-rule="evenodd" clip-rule="evenodd" d="M17.4376 1C19.2358 1.00145 20.3075 3.00879 19.3068 4.50293L14.5587 11.582C14.3892 11.8348 14.3892 12.1652 14.5587 12.418L19.3068 19.4971C20.3075 20.9912 19.2358 22.9985 17.4376 23H6.56262C4.76285 23 3.69131 20.9919 4.69348 19.4971L9.44153 12.418C9.61023 12.1657 9.61023 11.8343 9.44153 11.582L4.69348 4.50293C3.69131 3.00815 4.76285 1 6.56262 1H17.4376ZM6.56262 2.5C5.96265 2.5 5.60537 3.1697 5.93958 3.66797L10.6876 10.7471C11.1951 11.5047 11.1951 12.4953 10.6876 13.2529L5.93958 20.332C5.60537 20.8303 5.96265 21.5 6.56262 21.5H17.4376C18.0361 21.4985 18.3935 20.8297 18.0607 20.332L13.3126 13.2529C12.8043 12.4949 12.8043 11.5051 13.3126 10.7471L18.0607 3.66797C18.3935 3.17033 18.0361 2.50145 17.4376 2.5H6.56262ZM15.2501 19C15.6634 19.0011 16.0001 19.3365 16.0001 19.75C16.0001 20.1635 15.6634 20.4989 15.2501 20.5H8.75012C8.33591 20.5 8.00012 20.1642 8.00012 19.75C8.00012 19.3358 8.33591 19 8.75012 19H15.2501ZM12.2501 8C12.6634 8.00109 13.0001 8.33646 13.0001 8.75C13.0001 9.16354 12.6634 9.49891 12.2501 9.5H11.7501C11.3359 9.5 11.0001 9.16421 11.0001 8.75C11.0001 8.33579 11.3359 8 11.7501 8H12.2501Z" fill="#000001"/>
</g>
</svg>
