<svg width="24" height="24" viewBox="0 0 24 24" fill="none" xmlns="http://www.w3.org/2000/svg">
<g id="size=24">
<path id="Path" d="M15.25 1C16.2165 1 17 1.7835 17 2.75V3H20.25C21.7688 3 23 4.23122 23 5.75V18.25C23 19.7688 21.7688 21 20.25 21H3.75C2.23122 21 1 19.7688 1 18.25V5.75C1 4.23122 2.23122 3 3.75 3H7V2.75C7 1.7835 7.7835 1 8.75 1H15.25ZM3.75 4.5C3.05964 4.5 2.5 5.05964 2.5 5.75V18.25C2.5 18.9404 3.05964 19.5 3.75 19.5H20.25C20.9404 19.5 21.5 18.9404 21.5 18.25V5.75C21.5 5.05964 20.9404 4.5 20.25 4.5H17V4.75C17 5.7165 16.2165 6.5 15.25 6.5H8.75C7.7835 6.5 7 5.7165 7 4.75V4.5H3.75ZM14.125 14C14.8733 14 15.5994 14.2798 16.1416 14.79C16.6852 15.3018 17 16.0056 17 16.75V17.25C17 17.6642 16.6642 18 16.25 18C15.8358 18 15.5 17.6642 15.5 17.25V16.75C15.5 16.4337 15.3666 16.1203 15.1133 15.8818C14.8584 15.6421 14.5037 15.5 14.125 15.5H9.875C9.49625 15.5 9.14156 15.6421 8.88672 15.8818C8.6334 16.1203 8.5 16.4337 8.5 16.75V17.25C8.5 17.6642 8.16421 18 7.75 18C7.33579 18 7 17.6642 7 17.25V16.75C7 16.0056 7.3148 15.3018 7.8584 14.79C8.40057 14.2798 9.12668 14 9.875 14H14.125ZM12 7.5C13.6569 7.5 15 8.84315 15 10.5C15 12.1569 13.6569 13.5 12 13.5C10.3431 13.5 9 12.1569 9 10.5C9 8.84315 10.3431 7.5 12 7.5ZM12 9C11.1716 9 10.5 9.67157 10.5 10.5C10.5 11.3284 11.1716 12 12 12C12.8284 12 13.5 11.3284 13.5 10.5C13.5 9.67157 12.8284 9 12 9ZM8.75 2.5C8.61193 2.5 8.5 2.61193 8.5 2.75V4.75C8.5 4.88807 8.61193 5 8.75 5H15.25C15.3881 5 15.5 4.88807 15.5 4.75V2.75C15.5 2.61193 15.3881 2.5 15.25 2.5H8.75Z" fill="#000001"/>
</g>
</svg>
