<svg width="16" height="16" viewBox="0 0 16 16" fill="none" xmlns="http://www.w3.org/2000/svg">
<g id="size=16">
<path id="Path" d="M10.75 0C11.4404 0 12 0.559644 12 1.25V2H13.75C14.9926 2 16 3.00736 16 4.25V12.75C16 13.9926 14.9926 15 13.75 15H2.25C1.00736 15 0 13.9926 0 12.75V4.25C2.57702e-07 3.00736 1.00736 2 2.25 2H4V1.25C4 0.559644 4.55964 0 5.25 0H10.75ZM2.25 3.5C1.83579 3.5 1.5 3.83579 1.5 4.25V12.75C1.5 13.1642 1.83579 13.5 2.25 13.5H13.75C14.1642 13.5 14.5 13.1642 14.5 12.75V4.25C14.5 3.83579 14.1642 3.5 13.75 3.5H11.75C11.5219 3.80359 11.1589 4 10.75 4H5.25C4.84106 4 4.47805 3.80359 4.25 3.5H2.25ZM9.375 10C9.88957 10 10.4086 10.1612 10.8135 10.4824C11.2226 10.8071 11.5 11.2893 11.5 11.8408V12.25C11.5 12.6642 11.1642 13 10.75 13C10.3358 13 10 12.6642 10 12.25V11.8408C9.99997 11.8138 9.98722 11.7416 9.88086 11.6572C9.77001 11.5693 9.58973 11.5 9.375 11.5H6.625C6.41027 11.5 6.23 11.5693 6.11914 11.6572C6.01278 11.7416 6.00003 11.8138 6 11.8408V12.25C6 12.6642 5.66421 13 5.25 13C4.83579 13 4.5 12.6642 4.5 12.25V11.8408C4.50003 11.2893 4.77743 10.8071 5.18652 10.4824C5.5914 10.1612 6.11043 10 6.625 10H9.375ZM8 4.5C9.38071 4.5 10.5 5.61929 10.5 7C10.5 8.38071 9.38071 9.5 8 9.5C6.61929 9.5 5.5 8.38071 5.5 7C5.5 5.61929 6.61929 4.5 8 4.5ZM8 6C7.44772 6 7 6.44772 7 7C7 7.55228 7.44772 8 8 8C8.55228 8 9 7.55228 9 7C9 6.44772 8.55228 6 8 6ZM5.5 2.5H10.5V1.5H5.5V2.5Z" fill="#000001"/>
</g>
</svg>
