<svg width="16" height="16" viewBox="0 0 16 16" fill="none" xmlns="http://www.w3.org/2000/svg">
<g id="size=16">
<path id="Path" d="M10.75 0C11.4404 0 12 0.559644 12 1.25V2H13.75C14.9926 2 16 3.00736 16 4.25V12.75C16 13.9926 14.9926 15 13.75 15H2.25C1.00736 15 0 13.9926 0 12.75V4.25C2.57706e-07 3.00736 1.00736 2 2.25 2H4V1.25C4 0.559644 4.55964 0 5.25 0H10.75ZM2.25 3.5C1.83579 3.5 1.5 3.83579 1.5 4.25V12.75C1.5 13.1642 1.83579 13.5 2.25 13.5H13.75C14.1642 13.5 14.5 13.1642 14.5 12.75V4.25C14.5 3.83579 14.1642 3.5 13.75 3.5H11.75C11.5219 3.80359 11.1589 4 10.75 4H5.25C4.84106 4 4.47805 3.80359 4.25 3.5H2.25ZM8 5C10.2091 5 12 6.79086 12 9C12 11.2091 10.2091 13 8 13C5.79086 13 4 11.2091 4 9C4 6.79086 5.79086 5 8 5ZM5.5498 9.5C5.75238 10.498 6.54986 11.2804 7.55566 11.4609C7.27238 10.8527 7.09307 10.186 7.02734 9.5H5.5498ZM8.53711 9.5C8.61731 10.1333 8.82296 10.7274 9.13086 11.2305C9.80032 10.8902 10.2965 10.257 10.4502 9.5H8.53711ZM7.55566 6.53906C6.72511 6.68812 6.0367 7.24771 5.70801 8H7.0957C7.18678 7.49104 7.34176 6.99832 7.55566 6.53906ZM9.13086 6.76953C8.90553 7.13769 8.73485 7.55478 8.62793 8H10.292C10.0594 7.46768 9.64652 7.03161 9.13086 6.76953ZM5.5 2.5H10.5V1.5H5.5V2.5Z" fill="#000001"/>
</g>
</svg>
