<svg width="24" height="24" viewBox="0 0 24 24" fill="none" xmlns="http://www.w3.org/2000/svg">
<g id="size=24">
<path id="Path" d="M15.25 1C16.2165 1 17 1.7835 17 2.75V3H20.25C21.7688 3 23 4.23122 23 5.75V18.25C23 19.7688 21.7688 21 20.25 21H3.75C2.23122 21 1 19.7688 1 18.25V5.75C1 4.23122 2.23122 3 3.75 3H7V2.75C7 1.7835 7.7835 1 8.75 1H15.25ZM3.75 4.5C3.05964 4.5 2.5 5.05964 2.5 5.75V18.25C2.5 18.9404 3.05964 19.5 3.75 19.5H20.25C20.9404 19.5 21.5 18.9404 21.5 18.25V5.75C21.5 5.05964 20.9404 4.5 20.25 4.5H17V4.75C17 5.7165 16.2165 6.5 15.25 6.5H8.75C7.7835 6.5 7 5.7165 7 4.75V4.5H3.75ZM12 7.25C15.1756 7.25 17.75 9.82436 17.75 13C17.75 16.1756 15.1756 18.75 12 18.75C8.82436 18.75 6.25 16.1756 6.25 13C6.25 9.82436 8.82436 7.25 12 7.25ZM7.7793 13.5C7.95765 15.0218 8.93994 16.2975 10.29 16.8916C9.71716 15.851 9.36851 14.6954 9.27441 13.5H7.7793ZM14.7256 13.5C14.6315 14.6954 14.2828 15.851 13.71 16.8916C15.0601 16.2975 16.0424 15.0218 16.2207 13.5H14.7256ZM10.7803 13.5C10.8945 14.6901 11.3156 15.8284 12 16.8037C12.6844 15.8284 13.1055 14.6901 13.2197 13.5H10.7803ZM10.29 9.1084C9.09072 9.63617 8.18126 10.7018 7.86816 12H9.3291C9.47082 10.9829 9.79745 10.0032 10.29 9.1084ZM12 9.19629C11.4121 10.0341 11.0185 10.9921 10.8467 12H13.1533C12.9815 10.9921 12.5879 10.0341 12 9.19629ZM13.71 9.1084C14.2026 10.0032 14.5292 10.9829 14.6709 12H16.1318C15.8187 10.7018 14.9093 9.63617 13.71 9.1084ZM8.75 2.5C8.61193 2.5 8.5 2.61193 8.5 2.75V4.75C8.5 4.88807 8.61193 5 8.75 5H15.25C15.3881 5 15.5 4.88807 15.5 4.75V2.75C15.5 2.61193 15.3881 2.5 15.25 2.5H8.75Z" fill="#000001"/>
</g>
</svg>
