<svg width="16" height="16" viewBox="0 0 16 16" fill="none" xmlns="http://www.w3.org/2000/svg">
<g id="size=16">
<path id="Path" d="M13.75 0C14.9926 0 16 1.00736 16 2.25V13.75C16 14.9926 14.9926 16 13.75 16H2.25C1.00736 16 0 14.9926 0 13.75V2.25C0 1.00736 1.00736 0 2.25 0H13.75ZM11.6045 7.41504C11.5142 7.32476 11.37 7.31741 11.2705 7.39746L2.44629 14.5H13.75C14.1642 14.5 14.5 14.1642 14.5 13.75V10.3105L11.6045 7.41504ZM2.25 1.5C1.83579 1.5 1.5 1.83579 1.5 2.25V13.3359L10.3301 6.22852C11.0263 5.66816 12.0331 5.72255 12.665 6.35449L14.5 8.18945V2.25C14.5 1.83579 14.1642 1.5 13.75 1.5H2.25ZM5.5 3C6.88071 3 8 4.11929 8 5.5C8 6.88071 6.88071 8 5.5 8C4.11929 8 3 6.88071 3 5.5C3 4.11929 4.11929 3 5.5 3ZM5.5 4.5C4.94772 4.5 4.5 4.94772 4.5 5.5C4.5 6.05228 4.94772 6.5 5.5 6.5C6.05228 6.5 6.5 6.05228 6.5 5.5C6.5 4.94772 6.05228 4.5 5.5 4.5Z" fill="#000001"/>
</g>
</svg>
