<svg width="16" height="16" viewBox="0 0 16 16" fill="none" xmlns="http://www.w3.org/2000/svg">
<g id="size=16">
<path id="Path" d="M7.99982 0C12.4179 0 15.9994 3.5818 15.9996 7.99982C15.9996 12.418 12.418 15.9996 7.99982 15.9996C3.5818 15.9994 0 12.4179 0 7.99982C0.000193478 3.58192 3.58192 0.000193481 7.99982 0ZM7.99982 1.49997C4.41033 1.50016 1.50016 4.41033 1.49997 7.99982C1.49997 11.5895 4.41021 14.4995 7.99982 14.4997C11.5896 14.4997 14.4997 11.5896 14.4997 7.99982C14.4995 4.41021 11.5895 1.49997 7.99982 1.49997ZM7.99982 6.99984C8.4139 6.99984 8.74961 7.33578 8.7498 7.74982V11.2497C8.7498 11.6639 8.41402 11.9997 7.99982 11.9997C7.58578 11.9995 7.24983 11.6638 7.24983 11.2497V7.74982C7.25003 7.3359 7.5859 7.00003 7.99982 6.99984ZM8.00665 3.99991C8.55873 4 9.00644 4.44783 9.00663 4.99989C9.00663 5.5521 8.55885 5.99977 8.00665 5.99986H7.99982C7.44771 5.99967 6.99984 5.55204 6.99984 4.99989C7.00003 4.4479 7.44783 4.0001 7.99982 3.99991H8.00665Z" fill="#000001"/>
</g>
</svg>
