<svg width="24" height="24" viewBox="0 0 24 24" fill="none" xmlns="http://www.w3.org/2000/svg">
<g id="size=24">
<path id="Path" d="M11.9996 0.999672C18.0747 0.999672 22.9995 5.92469 22.9996 11.9997C22.9996 18.0748 18.0748 22.9997 11.9996 22.9997C5.92465 22.9995 0.999634 18.0747 0.999634 11.9997C0.999811 5.9248 5.92476 0.999849 11.9996 0.999672ZM11.9996 2.49967C6.75319 2.49985 2.49981 6.75323 2.49963 11.9997C2.49963 17.2463 6.75308 21.4995 11.9996 21.4997C17.2463 21.4997 21.4996 17.2464 21.4996 11.9997C21.4995 6.75312 17.2462 2.49967 11.9996 2.49967ZM11.9996 10.4997C12.4137 10.4997 12.7495 10.8356 12.7496 11.2497V16.7497C12.7496 17.1639 12.4138 17.4997 11.9996 17.4997C11.5856 17.4995 11.2496 17.1638 11.2496 16.7497V11.2497C11.2498 10.8357 11.5857 10.4998 11.9996 10.4997ZM12.0094 6.99967C12.5616 6.99967 13.0092 7.44754 13.0094 7.99967C13.0094 8.55196 12.5617 8.99967 12.0094 8.99967H11.9996C11.4475 8.9995 10.9996 8.55185 10.9996 7.99967C10.9998 7.44765 11.4476 6.99985 11.9996 6.99967H12.0094Z" fill="#000001"/>
</g>
</svg>
