<svg width="16" height="16" viewBox="0 0 16 16" fill="none" xmlns="http://www.w3.org/2000/svg">
<g id="size=16">
<path id="Path" d="M8 0C12.4183 0 16 3.58172 16 8C16 12.4183 12.4183 16 8 16C3.58172 16 0 12.4183 0 8C0 3.58172 3.58172 0 8 0ZM8 7C7.58579 7 7.25 7.33579 7.25 7.75V11.25C7.25 11.6642 7.58579 12 8 12C8.41421 12 8.75 11.6642 8.75 11.25V7.75C8.75 7.33579 8.41421 7 8 7ZM8 4C7.44772 4 7 4.44772 7 5C7 5.55228 7.44772 6 8 6H8.00684C8.55904 5.99991 9.00684 5.55223 9.00684 5C9.00684 4.44777 8.55904 4.00009 8.00684 4H8Z" fill="#000001"/>
</g>
</svg>
