<svg width="16" height="16" viewBox="0 0 16 16" fill="none" xmlns="http://www.w3.org/2000/svg">
<g id="size=16">
<path id="Path" d="M7.99988 0C12.4181 0 15.9998 3.58167 15.9998 7.99988C15.9998 12.4181 12.4181 15.9998 7.99988 15.9998C3.58179 15.9996 0 12.418 0 7.99988C0 3.58176 3.58179 0.000148144 7.99988 0ZM7.99988 6.99989C7.5858 7.00004 7.24989 7.33577 7.24989 7.74988V11.2498C7.24989 11.6639 7.5858 11.9997 7.99988 11.9998C8.41408 11.9998 8.74987 11.664 8.74987 11.2498V7.74988C8.74987 7.33567 8.41408 6.99989 7.99988 6.99989ZM7.99988 3.99994C7.44773 4.00009 6.99989 4.44774 6.99989 4.99992C6.99989 5.55211 7.44773 5.99976 7.99988 5.99991H8.00671C8.55891 5.99982 9.0067 5.55214 9.0067 4.99992C9.0067 4.4477 8.55891 4.00003 8.00671 3.99994H7.99988Z" fill="#000001"/>
</g>
</svg>
