<svg width="24" height="24" viewBox="0 0 24 24" fill="none" xmlns="http://www.w3.org/2000/svg">
<g id="size=24">
<path id="Path" d="M11.9996 1C18.0748 1 22.9996 5.92487 22.9996 12C22.9996 18.0751 18.0748 23 11.9996 23C5.92467 22.9998 0.999634 18.075 0.999634 12C0.999634 5.92499 5.92467 1.0002 11.9996 1ZM11.9996 10.5C11.5856 10.5002 11.2496 10.8359 11.2496 11.25V16.75C11.2496 17.1641 11.5856 17.4998 11.9996 17.5C12.4138 17.5 12.7496 17.1642 12.7496 16.75V11.25C12.7496 10.8358 12.4138 10.5 11.9996 10.5ZM11.9996 7C11.4475 7.0002 10.9996 7.44784 10.9996 8C10.9996 8.55216 11.4475 8.9998 11.9996 9H12.0094C12.5617 9 13.0094 8.55228 13.0094 8C13.0094 7.44772 12.5617 7 12.0094 7H11.9996Z" fill="#000001"/>
</g>
</svg>
