<svg width="24" height="24" viewBox="0 0 24 24" fill="none" xmlns="http://www.w3.org/2000/svg">
<g id="size=24">
<path id="Subtract" fill-rule="evenodd" clip-rule="evenodd" d="M6 2H18C20.2091 2 22 3.79086 22 6V18C22 20.2091 20.2091 22 18 22H6C3.79086 22 2 20.2091 2 18V6C2 3.79086 3.79086 2 6 2ZM7.5 7.74C7.5 7.60745 7.60745 7.5 7.74 7.5H8.04C8.17255 7.5 8.28 7.60745 8.28 7.74V10.26C8.28 10.3926 8.17255 10.5 8.04 10.5H7.74C7.60745 10.5 7.5 10.3926 7.5 10.26V7.74ZM8.8499 7.5C8.71735 7.5 8.6099 7.60745 8.6099 7.74V10.26C8.6099 10.3926 8.71735 10.5 8.8499 10.5H9.1499C9.28245 10.5 9.3899 10.3926 9.3899 10.26V7.74C9.3899 7.60745 9.28245 7.5 9.1499 7.5H8.8499ZM9.72005 7.74C9.72005 7.60745 9.8275 7.5 9.96005 7.5H10.26C10.3926 7.5 10.5 7.60745 10.5 7.74V10.5L9.96005 10.5C9.8275 10.5 9.72005 10.3926 9.72005 10.26V7.74ZM10.5 10.5L13.5 7.5C14.94 7.5 16.5 8.65497 16.5 10.5C16.5 11.7316 16.495 13.1775 16.4907 14.3923C16.4876 15.2725 16.485 16.0315 16.485 16.5H13.5V12C13.5 11.46 13.035 10.5 12.015 10.5L10.5 10.5ZM10.5 10.5V16.26C10.5 16.3925 10.3926 16.5 10.26 16.5H9.96005C9.8275 16.5 9.72005 16.3925 9.72005 16.26V11.4788C9.72005 11.3515 9.77063 11.2294 9.86065 11.1394L10.5 10.5ZM7.5 13.6988C7.5 13.5715 7.55058 13.4494 7.6406 13.3594L8.17758 12.8224C8.21537 12.7846 8.28 12.8114 8.28 12.8648V16.26C8.28 16.3925 8.17255 16.5 8.04 16.5H7.74C7.60745 16.5 7.5 16.3925 7.5 16.26V13.6988ZM8.6099 12.5888C8.6099 12.4615 8.66045 12.3394 8.75047 12.2494L9.28747 11.7124C9.32525 11.6746 9.3899 11.7014 9.3899 11.7549V16.26C9.3899 16.3925 9.28245 16.5 9.1499 16.5H8.8499C8.71735 16.5 8.6099 16.3925 8.6099 16.26V12.5888Z" fill="#000001"/>
</g>
</svg>
