<svg width="16" height="16" viewBox="0 0 16 16" fill="none" xmlns="http://www.w3.org/2000/svg">
<g id="size=16">
<path id="Subtract" fill-rule="evenodd" clip-rule="evenodd" d="M3.8 1H12.2C13.7464 1 15 2.2536 15 3.8V12.2C15 13.7464 13.7464 15 12.2 15H3.8C2.2536 15 1 13.7464 1 12.2V3.8C1 2.2536 2.2536 1 3.8 1ZM4.8501 5.01798C4.8501 4.92519 4.92531 4.84998 5.0181 4.84998H5.2281C5.32088 4.84998 5.3961 4.92519 5.3961 5.01798V6.78198C5.3961 6.87476 5.32088 6.94998 5.2281 6.94998H5.0181C4.92531 6.94998 4.8501 6.87476 4.8501 6.78198V5.01798ZM5.79503 4.84998C5.70224 4.84998 5.62703 4.92519 5.62703 5.01798V6.78198C5.62703 6.87476 5.70224 6.94998 5.79503 6.94998H6.00503C6.09781 6.94998 6.17303 6.87476 6.17303 6.78198V5.01798C6.17303 4.92519 6.09781 4.84998 6.00503 4.84998H5.79503ZM6.40413 5.01798C6.40413 4.92519 6.47935 4.84998 6.57213 4.84998H6.78213C6.87492 4.84998 6.95013 4.92519 6.95013 5.01798V6.94979L6.57213 6.94998C6.47935 6.94998 6.40413 6.87476 6.40413 6.78198V5.01798ZM6.95013 6.94979L9.04995 4.84998C10.058 4.84998 11.15 5.65846 11.15 6.94998C11.15 7.81177 11.1464 8.82338 11.1435 9.67357L11.1435 9.6746C11.1413 10.2908 11.1395 10.822 11.1395 11.15H9.04995V7.99998C9.04995 7.62196 8.72445 6.94998 8.01045 6.94998L6.95013 6.94979ZM6.95013 6.94979V10.982C6.95013 11.0747 6.87492 11.15 6.78213 11.15H6.57213C6.47935 11.15 6.40413 11.0747 6.40413 10.982V7.63515C6.40413 7.54604 6.43954 7.46057 6.50255 7.39756L6.95013 6.94979ZM4.8501 9.18914C4.8501 9.10003 4.8855 9.01456 4.94852 8.95154L5.3244 8.57566C5.35086 8.5492 5.3961 8.56794 5.3961 8.60535V10.982C5.3961 11.0747 5.32088 11.15 5.2281 11.15H5.0181C4.92531 11.15 4.8501 11.0747 4.8501 10.982V9.18914ZM5.62703 8.41214C5.62703 8.32303 5.66241 8.23757 5.72543 8.17456L6.10133 7.79866C6.12777 7.77221 6.17303 7.79094 6.17303 7.82837V10.982C6.17303 11.0747 6.09781 11.15 6.00503 11.15H5.79503C5.70224 11.15 5.62703 11.0747 5.62703 10.982V8.41214Z" fill="#000001"/>
</g>
</svg>
