<svg width="16" height="16" viewBox="0 0 16 16" fill="none" xmlns="http://www.w3.org/2000/svg">
<g id="size=16">
<g id="Path">
<path d="M9.60383 7.77375L8.85689 7.88466L7.84911 7.99954L7.19702 8.01538L6.56074 7.99558L6.07463 7.84505L5.64386 7.37763L5.30793 6.42297L5.23284 6.21699L4.78626 6.06646L4.52542 5.63469L4.33967 5.01674L4.54518 4.47405L5.03129 4.30372L5.42254 4.4899L5.60829 4.90186L5.83356 4.86621L5.90865 4.77114L5.83356 4.33937L5.8138 3.79668L5.92445 3.04801L5.9205 2.6202L6.26038 2.07355L6.85714 1.64178L7.90049 1.19416L9.05845 1.36449L10.0662 2.09336L10.5326 2.84203L10.8329 3.38472L10.908 4.73153L10.6828 5.89217L10.2717 6.92209L9.88443 7.4727" fill="#F0D6B7"/>
<path d="M8.97153 11.0101L6.30388 11.121V11.5686L6.52915 13.1412L6.41849 13.2719L4.55311 12.6342L4.4227 12.4084L4.23695 10.2931L3.79827 9.02549L3.70342 8.72444L5.1973 7.69452L5.66365 7.50835L6.07466 8.01538L6.43035 8.33228L6.84136 8.463L7.02711 8.51846L7.25238 9.49292L7.42232 9.6989L7.85309 9.54838L7.55274 10.1307L9.17309 10.8992L8.97153 11.0101Z" fill="#335061"/>
<path d="M4.54533 4.48199L5.03143 4.31166L5.42269 4.49783L5.60844 4.9098L5.8337 4.87415L5.88903 4.64836L5.77838 4.21659L5.88903 3.18667L5.79418 2.62418L6.13011 2.23202L6.85729 1.65368L6.65178 1.37243L5.62424 1.87947L5.19347 2.21617L4.95239 2.73905L4.5809 3.24609L4.47024 3.84423L4.54533 4.48199Z" fill="#6D6B6D"/>
<path d="M5.31186 2.72319C5.31186 2.72319 5.59245 2.02997 6.71089 1.69327C7.82933 1.35657 6.76622 1.45163 6.76622 1.45163L5.55293 1.91906L5.08659 2.38648L4.88108 2.75884L5.31186 2.72319Z" fill="#DCD9D8"/>
<path d="M4.75084 4.35126C4.75084 4.35126 4.35958 3.0401 5.85346 2.85392L5.79814 2.62813L4.7706 2.86976L4.47024 3.84423L4.54533 4.48199L4.75084 4.35126Z" fill="#DCD9D8"/>
<path d="M5.34746 6.09023L5.59249 5.85255C5.59249 5.85255 5.70315 5.86444 5.72291 5.99516C5.74267 6.12588 5.798 7.30632 6.60027 7.94012C6.67536 7.99954 6.0035 7.84505 6.0035 7.84505L5.40674 6.9102" fill="#F7E4CD"/>
<path d="M8.78191 5.73373C8.78191 5.73373 8.82539 5.16728 8.97952 5.21085C9.13365 5.25442 9.13365 5.40891 9.13365 5.40891C9.13365 5.40891 8.76215 5.64658 8.78191 5.73373Z" fill="#F7E4CD"/>
<path d="M10.3311 3.65805C10.3311 3.65805 10.0228 3.72143 9.99518 3.99475C9.96751 4.26808 10.3311 4.05021 10.3864 4.0304" fill="#F7E4CD"/>
<path d="M8.07449 3.67785C8.07449 3.67785 7.66348 3.73331 7.66348 3.99475C7.66348 4.25619 8.12982 4.23638 8.26024 4.12547" fill="#F7E4CD"/>
<path d="M5.53724 4.89394C5.53724 4.89394 4.82982 4.46217 4.75473 4.87414C4.67964 5.2861 4.51365 5.58319 4.86538 6.01497L4.62431 5.9397L4.39904 5.36137L4.32395 4.79887L4.75473 4.35125L5.24083 4.38691L5.52143 4.61269L5.53724 4.89394Z" fill="#F7E4CD"/>
<path d="M5.87309 3.71351C5.87309 3.71351 6.18925 2.06564 7.7938 1.74874C9.11379 1.4873 9.80935 1.8042 10.0702 2.10525C10.0702 2.10525 8.89247 0.702978 7.77403 1.13079C6.6556 1.56256 5.83357 2.34688 5.85333 2.84996C5.88494 3.71351 5.87309 3.71351 5.87309 3.71351Z" fill="#F7E4CD"/>
<path d="M10.2006 2.29142C10.2006 2.29142 9.65916 2.27161 9.6394 2.75884C9.6394 2.75884 9.6394 2.83411 9.67497 2.90937C9.67497 2.90937 10.1057 2.42214 10.3666 2.68358" fill="#F7E4CD"/>
<path d="M7.8333 2.96087C7.8333 2.96087 7.73845 2.21616 7.10611 2.64794C6.6951 2.92918 6.73462 3.32134 6.80576 3.39661C6.88085 3.47187 6.86109 3.6224 6.91641 3.51941C6.97174 3.41641 6.95594 3.07971 7.16144 2.98464C7.363 2.88957 7.70288 2.78658 7.8333 2.96087Z" fill="#F7E4CD"/>
<path d="M6.07859 8.0154L4.32387 8.79972C4.32387 8.79972 5.05105 11.6993 4.67956 12.5985L4.41872 12.5035L4.39896 11.3983L3.91286 9.30676L3.70735 8.72842L5.53716 7.49252L6.07859 8.0154Z" fill="#49728B"/>
<path d="M6.25641 9.61969L6.50539 9.9247V11.0457H6.20898C6.20898 11.0457 6.17341 10.2614 6.17341 10.1663C6.17341 10.0713 6.20898 9.73457 6.20898 9.73457" fill="#49728B"/>
<path d="M6.26445 11.2161L5.42266 11.2517L5.66373 11.422L6.2605 11.5171" fill="#49728B"/>
<path d="M9.13765 11.0299L9.82926 11.0101L9.9992 12.7292L9.29178 12.8243L9.13765 11.0299Z" fill="#335061"/>
<path d="M9.32324 11.0299L10.3666 10.9744C10.3666 10.9744 10.7974 9.88904 10.7974 9.83359C10.7974 9.77813 11.1689 8.26098 11.1689 8.26098L10.3271 7.38159L10.1571 7.23106L9.71055 7.67868V9.41766L9.32324 11.0299Z" fill="#335061"/>
<path d="M9.78974 10.8992L9.13765 11.0299L9.2325 11.5528C9.47357 11.6637 9.88459 11.3666 9.88459 11.3666" fill="#49728B"/>
<path d="M9.80945 7.62324L11.1176 8.5977L11.1532 8.15008L10.1651 7.23504L9.80945 7.62324Z" fill="#49728B"/>
<path d="M6.91262 14.7138L6.52532 13.1412L6.33167 11.9806L6.30005 11.121L8.05082 11.0259H9.13764L9.03884 12.9907L9.20878 14.5078L9.18901 14.7891L7.77022 14.9L6.91262 14.7138Z" fill="white"/>
<path d="M8.89648 11.0101C8.89648 11.0101 8.80163 12.955 9.08223 14.3415C9.08223 14.3415 8.52103 14.698 7.70295 14.7891L9.27193 14.7336L9.45767 14.6227L9.23241 11.5567L9.17309 10.8992" fill="#DCD9D8"/>
<path d="M10.0269 12.5827L10.7541 12.3767L12.1333 12.3014L12.3388 11.6637L11.9673 10.5585L11.5366 10.503L10.9398 10.6892L10.3707 10.9705L10.0664 10.915L9.82926 11.0101" fill="white"/>
<path d="M10.0149 12.2064C10.0149 12.2064 10.501 11.9806 10.5761 12.0004L10.3707 10.9705L10.6116 10.8754C10.6116 10.8754 10.7816 11.8498 10.7816 11.9608C10.7816 11.9608 11.8249 12.0162 11.9198 12.0162C11.9198 12.0162 12.145 11.5844 12.0897 11.1368L12.2952 11.735L12.315 12.0717L12.0146 12.5193L11.6787 12.5946L11.1175 12.5748L10.9318 12.3331L10.2797 12.4282L10.0742 12.5034" fill="#DCD9D8"/>
<path d="M9.27978 10.8794L8.86876 9.8336L8.43799 9.21565C8.43799 9.21565 8.53284 8.95421 8.66326 8.95421H9.09403L9.50505 9.10474L9.46948 9.79795L9.27978 10.8794Z" fill="white"/>
<path d="M9.36275 10.5228C9.36275 10.5228 8.84108 9.51274 8.84108 9.36221C8.84108 9.36221 8.93593 9.13642 9.06635 9.19188C9.19676 9.24734 9.47736 9.39786 9.47736 9.39786V9.04135L8.84108 8.91063L8.4103 8.96609L9.13748 10.6932L9.28766 10.713" fill="#DCD9D8"/>
<path d="M7.07846 8.055L6.56074 7.99954L6.07463 7.84901V8.01934L6.31176 8.28078L7.0587 8.61749" fill="white"/>
<path d="M6.24461 8.11046C6.24461 8.11046 6.82162 8.3521 7.01132 8.29664L7.03108 8.52243L6.5094 8.41152L6.19324 8.18573L6.24461 8.11046Z" fill="#DCD9D8"/>
<path d="M10.0267 9.01758C9.71057 9.00966 9.42207 8.97005 9.17309 8.89874C9.1889 8.79575 9.15728 8.69672 9.18494 8.62146C9.25608 8.56996 9.37069 8.56996 9.4774 8.55808C9.3865 8.51451 9.25608 8.4947 9.15333 8.52243C9.14938 8.45113 9.11776 8.40755 9.098 8.3521C9.27584 8.28872 9.69476 7.87279 9.93189 8.00747C10.0465 8.07481 10.0939 8.44717 10.1018 8.63334C10.1097 8.78387 10.086 8.9344 10.0267 9.01758Z" fill="#D33833"/>
<path d="M9.69087 7.86745C9.78378 7.84152 9.89525 7.83367 9.99765 7.89183L9.99935 7.89277C10.0658 7.93179 10.1043 8.00092 10.1276 8.05419C10.1532 8.11271 10.1724 8.18083 10.1869 8.24757C10.2159 8.38095 10.2304 8.52772 10.2347 8.6264L10.236 8.65788C10.2379 8.73164 10.2331 8.80601 10.2203 8.87489C10.2061 8.95176 10.1804 9.03129 10.1351 9.09481L10.0941 9.15229L10.0235 9.15053C9.69869 9.14239 9.39864 9.10169 9.13653 9.02663L9.02393 8.9944L9.04167 8.87855C9.04702 8.84368 9.04456 8.80907 9.04181 8.75667C9.04085 8.73851 9.03976 8.7158 9.04039 8.69066L9.02969 8.69357L9.02062 8.52978C9.01972 8.51364 9.01593 8.4999 9.00843 8.48143C9.00411 8.47081 8.99969 8.46115 8.99306 8.44629C8.98698 8.43268 8.9795 8.41568 8.97274 8.39673L8.92812 8.27147L9.05345 8.22678C9.07909 8.21764 9.12419 8.19046 9.19571 8.14228C9.26073 8.09848 9.34189 8.04153 9.42375 7.99183C9.50541 7.94226 9.59788 7.89341 9.69087 7.86745ZM9.86183 8.12095C9.84482 8.11311 9.81535 8.10894 9.76237 8.12373C9.70457 8.13987 9.63673 8.17372 9.56181 8.2192C9.48709 8.26456 9.41534 8.31508 9.3444 8.36288C9.33608 8.36848 9.32747 8.37403 9.31887 8.37974C9.39744 8.38731 9.47334 8.40854 9.535 8.4381L9.95371 8.63886L9.49221 8.69025C9.42686 8.69753 9.38689 8.69881 9.33837 8.70636C9.32592 8.7083 9.31532 8.71043 9.30628 8.71259C9.30644 8.72101 9.30688 8.73095 9.3075 8.74272C9.3083 8.75794 9.30927 8.77647 9.31 8.79716C9.49993 8.84289 9.71328 8.87129 9.94531 8.88159C9.95027 8.86584 9.95485 8.84752 9.95872 8.82655C9.96888 8.77157 9.97257 8.70693 9.96908 8.64035L9.96901 8.63899C9.9653 8.55151 9.95213 8.41974 9.92697 8.30417C9.91433 8.24615 9.89967 8.19688 9.8839 8.16083C9.8724 8.13455 9.86405 8.12384 9.86183 8.12095Z" fill="#D33833"/>
<path d="M8.51306 8.49866C8.51306 8.52243 8.51306 8.5462 8.5091 8.56996C8.4103 8.63334 8.25222 8.63334 8.14156 8.6888C8.29964 8.69672 8.42611 8.73633 8.53677 8.78783C8.53282 8.84725 8.53282 8.91063 8.52886 8.97005C8.34707 9.09284 8.18108 9.27902 7.96767 9.39786C7.86492 9.45331 7.51318 9.59592 7.40648 9.56819C7.34719 9.55235 7.33929 9.47708 7.31558 9.40578C7.2642 9.25525 7.14564 9.00966 7.13378 8.77991C7.12193 8.49074 7.09031 8.00351 7.40252 8.06293C7.65546 8.11046 7.94791 8.22534 8.14156 8.33229C8.26408 8.40359 8.33126 8.48282 8.51306 8.49866Z" fill="#D33833"/>
<path d="M7.13193 8.01638C7.2078 7.9385 7.31131 7.91036 7.42707 7.93229C7.69587 7.9828 8.00173 8.10308 8.20593 8.21585L8.2085 8.21734C8.36027 8.30567 8.38231 8.35376 8.5247 8.36617L8.6461 8.37673V8.49867C8.6461 8.52069 8.64639 8.55541 8.64035 8.59177L8.63066 8.65007L8.59918 8.67018L8.67562 8.70573L8.66953 8.79666C8.66773 8.82369 8.66681 8.85207 8.6658 8.88319C8.66483 8.91346 8.66383 8.94649 8.66167 8.97886L8.65734 9.04387L8.60338 9.08029C8.52014 9.13652 8.44092 9.20694 8.34602 9.28708C8.25436 9.36447 8.1512 9.44798 8.03246 9.5141L8.0309 9.51492C7.97123 9.54712 7.85043 9.59936 7.73176 9.64004C7.67193 9.66055 7.60898 9.6794 7.55193 9.6913C7.50187 9.70173 7.43259 9.71237 7.37311 9.69692C7.28432 9.67317 7.24345 9.60349 7.22489 9.55886C7.21557 9.53643 7.20877 9.51346 7.2037 9.49589C7.198 9.47613 7.19423 9.46224 7.18941 9.44775C7.1777 9.41356 7.16203 9.37334 7.14324 9.32486C7.1247 9.27706 7.10387 9.22297 7.08419 9.16588C7.04523 9.05281 7.00786 8.92016 7.00098 8.78677L7.00091 8.78535C6.99526 8.6476 6.98281 8.43467 7.01621 8.26501C7.03286 8.18045 7.06442 8.08568 7.13193 8.01638ZM7.37771 8.19358C7.33752 8.18593 7.32802 8.19633 7.32246 8.20204C7.30846 8.21643 7.29015 8.25046 7.27716 8.3164C7.25138 8.44737 7.26046 8.62194 7.26667 8.77303C7.27164 8.86939 7.29955 8.97441 7.33566 9.07921C7.35353 9.13105 7.37273 9.18095 7.39125 9.22871C7.4048 9.26365 7.41846 9.29862 7.43032 9.33115L7.44149 9.36284L7.44183 9.36379C7.44887 9.38495 7.455 9.40726 7.4593 9.42215C7.46089 9.42766 7.4624 9.43243 7.4637 9.43664C7.47242 9.43549 7.48363 9.43381 7.49762 9.43089C7.53974 9.42211 7.59122 9.40697 7.6455 9.38837C7.75467 9.35094 7.86072 9.30431 7.90408 9.28098C7.99832 9.22834 8.08458 9.15963 8.17437 9.08381C8.24482 9.02433 8.32043 8.9579 8.39903 8.89937C8.39931 8.89141 8.39958 8.88327 8.39984 8.87493C8.32243 8.84668 8.23636 8.82673 8.13497 8.82164L7.63013 8.79632L8.08202 8.5699C8.11892 8.55141 8.15911 8.53784 8.19746 8.52725C8.15016 8.49784 8.11095 8.46838 8.07471 8.44728C7.89157 8.34657 7.61363 8.23792 7.37771 8.19358Z" fill="#D33833"/>
<path d="M8.691 8.8433C8.66334 8.68485 8.63172 8.64127 8.64358 8.50263C9.06645 8.22138 9.14154 8.9859 8.691 8.8433Z" fill="#D33833"/>
<path d="M8.56983 8.39186C8.69891 8.30601 8.83513 8.2795 8.95238 8.33844C9.06346 8.39429 9.1159 8.50682 9.12694 8.6063C9.13802 8.70627 9.11137 8.82472 9.02463 8.90713C8.93112 8.99595 8.79685 9.01635 8.65074 8.9701L8.57375 8.94572L8.55987 8.86617C8.54577 8.78542 8.53527 8.7564 8.52209 8.69236C8.50991 8.63314 8.50379 8.57469 8.51092 8.49133L8.5164 8.42741L8.56983 8.39186ZM8.80525 8.57387C8.79732 8.57507 8.78714 8.57767 8.77465 8.58253C8.77593 8.60251 8.7788 8.62009 8.78264 8.63873C8.78644 8.65724 8.79439 8.68914 8.80308 8.72777C8.80708 8.72755 8.81064 8.7274 8.81371 8.72689C8.82806 8.72449 8.83604 8.71933 8.84141 8.71423C8.85408 8.70218 8.86676 8.67379 8.86253 8.63562C8.85824 8.59696 8.84072 8.58004 8.83288 8.5761C8.82957 8.57444 8.82177 8.57137 8.80525 8.57387Z" fill="#D33833"/>
<path d="M9.29968 8.97005C9.29968 8.97005 9.16927 8.78387 9.26411 8.72841C9.35896 8.67296 9.44986 8.72841 9.50519 8.63334C9.56052 8.53827 9.50519 8.48282 9.52495 8.3719C9.54471 8.26099 9.63561 8.24118 9.73046 8.22138C9.82531 8.20157 10.0861 8.16592 10.1217 8.25703L10.0111 7.92032L9.78579 7.84506L9.07837 8.25703L9.0428 8.46301V8.87498" fill="#EF3D3A"/>
<path d="M7.33941 9.58799C7.3157 9.29486 7.29199 9.00569 7.26827 8.71256C7.22875 8.27683 7.37103 8.35209 7.75043 8.35209C7.80971 8.35209 8.10611 8.41943 8.12587 8.463C8.22863 8.67295 7.95593 8.62541 8.24443 8.78386C8.48551 8.91458 8.91629 8.70464 8.81749 8.40755C8.76216 8.34021 8.53294 8.38774 8.44994 8.34417C8.30372 8.2689 8.15749 8.19364 8.01126 8.11838C7.82551 8.02331 7.39869 7.8807 7.20109 8.01539C6.69917 8.35605 7.2327 9.21167 7.41055 9.56818" fill="#EF3D3A"/>
<path d="M7.8333 2.96087C7.32348 2.84204 7.07055 3.17478 6.91641 3.51941C6.77809 3.48772 6.83357 3.29758 6.86914 3.20251C6.96004 2.95295 7.32758 2.61625 7.62794 2.66378C7.75441 2.67963 7.92815 2.79846 7.8333 2.96087Z" fill="#231F20"/>
<path d="M10.3113 3.53921H10.335C10.4496 3.77688 10.5484 4.0304 10.6946 4.24431C10.5958 4.47406 9.95953 4.67212 9.96743 4.26807C10.1058 4.20866 10.3429 4.25619 10.4654 4.17697C10.3943 3.98287 10.2955 3.81649 10.3113 3.53921Z" fill="#231F20"/>
<path d="M8.09033 3.54713C8.20099 3.74916 8.23656 3.9591 8.39069 4.10963C8.46183 4.17697 8.5962 4.26015 8.52901 4.45029C8.5132 4.49387 8.39859 4.5929 8.33141 4.6127C8.09033 4.684 7.52519 4.62855 7.71489 4.32353C7.91644 4.33146 8.18518 4.45425 8.33536 4.30769C8.22075 4.12547 8.01524 3.76104 8.09033 3.54713Z" fill="#231F20"/>
<path d="M10.2205 5.58319C9.85688 5.8169 9.44982 6.07438 8.84911 6.01497C8.72264 5.90405 8.67126 5.65449 8.79773 5.49208C8.86096 5.603 8.82144 5.80898 9.00324 5.84067C9.34311 5.90009 9.73832 5.63073 9.98335 5.53962C10.1335 5.28214 9.97149 5.19103 9.83317 5.02466C9.55258 4.68796 9.18108 4.26807 9.19294 3.76499C9.30755 3.68181 9.31545 3.89175 9.33126 3.9274C9.47749 4.26807 9.84503 4.70776 10.1098 5.00089C10.177 5.0722 10.2837 5.1435 10.2956 5.19103C10.3311 5.32571 10.2047 5.49208 10.2205 5.58319Z" fill="#231F20"/>
<path d="M5.40671 5.3376C5.2921 5.27026 5.26443 4.98505 5.13006 4.97713C4.93641 4.96525 4.97198 5.34949 4.97198 5.57528C4.84156 5.45644 4.81785 5.08408 4.9127 4.89394C4.80204 4.83849 4.75462 4.95336 4.69138 4.99298C4.77438 4.4186 5.53317 4.72757 5.40671 5.3376Z" fill="#231F20"/>
<path d="M10.4497 5.82483C10.2797 6.14965 10.0387 6.50616 9.5407 6.51804C9.52884 6.41505 9.52094 6.25264 9.5407 6.18926C9.92405 6.14965 10.1612 5.95555 10.4497 5.82483Z" fill="#231F20"/>
<path d="M8.06252 6.03477C8.37869 6.20115 8.9636 6.22095 9.39832 6.20907C9.42204 6.30414 9.42204 6.42297 9.42204 6.53785C8.8648 6.56162 8.20875 6.42297 8.06252 6.03477Z" fill="#231F20"/>
<path d="M8.00333 6.34376C8.22464 6.89833 8.97949 6.83495 9.61577 6.81911C9.58811 6.89041 9.52883 6.97755 9.44979 7.00528C9.24428 7.08847 8.68309 7.15185 8.39854 7.00132C8.22069 6.90625 8.10213 6.68839 8.00333 6.56163C7.95986 6.50221 7.72273 6.34772 8.00333 6.34376Z" fill="#231F20"/>
<path d="M10.1927 9.39785C9.93584 9.84151 9.68685 10.297 9.38254 10.6852C9.50901 10.3089 9.56434 9.67513 9.5841 9.19187C9.85284 9.06511 10.0821 9.21959 10.1927 9.39785Z" fill="#81B0C4"/>
<path d="M11.5799 10.9903C11.2914 11.0497 11.0898 11.3309 10.8053 11.3111C10.9634 11.0933 11.2321 10.9982 11.5799 10.9903Z" fill="#231F20"/>
<path d="M11.7064 11.4418C11.4693 11.4656 11.1926 11.5052 10.9555 11.4854C11.0701 11.3111 11.5048 11.3745 11.7064 11.4418Z" fill="#231F20"/>
<path d="M11.7894 11.834C11.5247 11.838 11.1966 11.834 10.9437 11.8142C11.0939 11.6518 11.6195 11.7548 11.7894 11.834Z" fill="#231F20"/>
<path d="M9.69476 12.9036C9.73428 13.2363 9.8647 13.573 9.84889 13.9374C9.70266 13.985 9.61967 14.0285 9.42207 14.0285C9.41021 13.7196 9.36674 13.2442 9.37859 12.9471C9.47344 12.955 9.61572 12.8798 9.69476 12.9036Z" fill="#DCD9D8"/>
<path d="M9.26793 7.99163C9.13356 8.07877 9.0229 8.18573 8.89248 8.28079C8.60793 8.29664 8.4538 8.26099 8.24829 8.09858C8.25224 8.08669 8.272 8.09066 8.272 8.07481C8.57631 8.20949 8.96362 8.01935 9.26793 7.99163Z" fill="#F0D6B7"/>
<path d="M7.6792 10.0633C7.76219 9.70286 8.09021 9.51272 8.38662 9.31466C8.69093 9.70286 8.87668 10.202 9.08218 10.6852C8.59608 10.5387 8.10207 10.305 7.6792 10.0633Z" fill="#81B0C4"/>
<path d="M9.37863 12.9511C9.36677 13.2482 9.40629 13.7195 9.4221 14.0325C9.6197 14.0325 9.7027 13.9889 9.84892 13.9414C9.86473 13.5769 9.73431 13.2402 9.69479 12.9075C9.61575 12.8798 9.47348 12.955 9.37863 12.9511ZM6.32763 11.2715C6.45804 12.4638 6.64379 13.4621 6.98762 14.5197C7.75037 14.7534 8.66725 14.7732 9.34306 14.5633C9.22054 13.9691 9.27192 13.2442 9.20078 12.6064C9.14545 12.1271 9.17312 11.6478 9.09803 11.1606C8.27995 10.9903 7.12594 11.121 6.32763 11.2715ZM9.29168 11.1685C9.28378 11.6795 9.31539 12.1866 9.35491 12.6976C9.55252 12.6698 9.68294 12.65 9.86473 12.6064C9.80545 12.1153 9.81335 11.5567 9.69084 11.121C9.55252 11.1249 9.43 11.121 9.29168 11.1685ZM10.2837 11.0853C10.1888 11.0655 10.0821 11.0853 9.99515 11.0853C10.0386 11.5013 10.1374 11.9608 10.173 12.4005C10.3113 12.4044 10.3864 12.3371 10.501 12.3173C10.5089 11.933 10.4694 11.4022 10.2837 11.0853ZM11.7894 12.4638C12.0818 12.3925 12.2636 12.036 12.1806 11.6676C12.1253 11.422 12.0305 10.9546 11.9238 10.7962C11.8487 10.6813 11.6392 10.5268 11.4693 10.6338C11.1966 10.8081 10.7184 10.8595 10.5208 11.0695C10.6196 11.4022 10.6512 11.8538 10.6907 12.2737C11.0306 12.2935 11.4456 12.1786 11.7301 12.3014C11.5325 12.3648 11.2796 12.3648 11.1096 12.4599C11.2519 12.5272 11.576 12.5153 11.7894 12.4638ZM9.07827 10.6853C8.87276 10.202 8.68701 9.70287 8.3827 9.31467C8.0863 9.51273 7.76223 9.70287 7.67528 10.0633C8.10211 10.305 8.59612 10.5387 9.07827 10.6853ZM9.5841 9.19187C9.56434 9.67513 9.50901 10.3089 9.38254 10.6852C9.68685 10.2931 9.93584 9.84151 10.1927 9.39785C10.0821 9.21959 9.85284 9.06511 9.5841 9.19187ZM9.01108 8.98985C8.89647 8.97797 8.79767 9.12453 8.64749 9.06115C8.61192 9.10076 8.58031 9.14038 8.54474 9.17999C8.87671 9.58403 9.03084 10.1545 9.28773 10.6258C9.42605 10.1703 9.41024 9.67514 9.44186 9.17999C9.25216 9.18791 9.14545 9.00173 9.01108 8.98985ZM8.691 8.8433C8.66334 8.68485 8.63172 8.64127 8.64358 8.50263C9.06645 8.22138 9.14154 8.9859 8.691 8.8433ZM8.14163 8.33625C7.94798 8.2293 7.65552 8.11442 7.40259 8.06689C7.09038 8.00747 7.12199 8.4947 7.13385 8.78387C7.14571 9.01362 7.26427 9.25525 7.31564 9.40974C7.33936 9.48104 7.34726 9.5563 7.40654 9.57215C7.51325 9.59592 7.86893 9.45728 7.96774 9.40182C8.18115 9.28694 8.34714 9.10077 8.52893 8.97401C8.53288 8.91459 8.53288 8.85121 8.53683 8.79179C8.42618 8.73633 8.30366 8.70068 8.14163 8.69276C8.24833 8.6373 8.41037 8.6373 8.50917 8.57392C8.50917 8.55015 8.50917 8.52639 8.51312 8.50262C8.33133 8.48281 8.26414 8.40359 8.14163 8.33625ZM6.28415 7.99955C6.12212 8.16592 6.73864 8.38774 6.93229 8.39963C6.93229 8.29664 6.99157 8.19761 6.97972 8.12234C6.74655 8.08273 6.44224 8.11046 6.28415 7.99955ZM8.276 8.07481C8.276 8.09065 8.25624 8.08669 8.25229 8.09858C8.46175 8.26099 8.61588 8.29664 8.89647 8.28079C9.02294 8.18968 9.13755 8.07877 9.27192 7.99162C8.96366 8.01935 8.57635 8.20949 8.276 8.07481ZM10.1019 8.62938C10.094 8.44716 10.0465 8.07085 9.93192 8.00351C9.69479 7.86486 9.27587 8.28475 9.09803 8.34813C9.11779 8.40359 9.14941 8.44716 9.15336 8.51847C9.26006 8.49074 9.38653 8.51054 9.47743 8.55412C9.37072 8.566 9.25611 8.566 9.18497 8.6175C9.16126 8.69276 9.19288 8.79179 9.17312 8.89478C9.4221 8.96608 9.7106 9.00173 10.0268 9.01362C10.086 8.93439 10.1098 8.78387 10.1019 8.62938ZM6.01146 8.15799C5.96008 8.12234 5.61625 7.67473 5.56883 7.69453C4.94835 7.94013 4.3674 8.36398 3.84968 8.76802C4.34369 9.83359 4.54524 11.1368 4.58081 12.3925C5.14596 12.6579 5.64392 13.0422 6.41457 13.0818C6.32367 12.452 6.24463 11.8855 6.19326 11.2913C5.9996 11.2081 5.72296 11.2953 5.54116 11.2676C5.54116 11.0497 5.81781 11.1725 5.84152 11.0259C5.85733 10.915 5.68739 10.9071 5.74272 10.7328C5.88499 10.7843 5.96008 10.8992 6.11026 10.9427C6.24858 10.6417 6.11026 10.1069 6.13002 9.8534C6.13397 9.80586 6.15373 9.59196 6.26044 9.62761C6.35529 9.6593 6.25649 10.202 6.26439 10.4397C6.2723 10.6615 6.23673 10.8714 6.32763 11.0101C7.07062 10.9071 7.82546 10.8437 8.63168 10.8199C8.45384 10.7447 8.24438 10.6734 8.01516 10.5426C7.88869 10.4713 7.49744 10.3248 7.46187 10.2059C7.40259 10.0158 7.61205 9.91678 7.64762 9.75437C7.27217 9.96035 7.20103 9.55631 7.11014 9.27506C7.0311 9.01758 6.98367 8.82348 6.96391 8.67691C6.63589 8.51054 6.28811 8.35606 6.01146 8.15799ZM9.77383 7.74603C10.2916 7.49647 10.3864 8.68484 10.1809 9.06908C10.2125 9.18395 10.3192 9.22752 10.3627 9.33052C10.0742 9.84944 9.75407 10.3327 9.45767 10.8437C9.67503 10.7051 9.9912 10.8199 10.2481 10.7169C10.3429 10.6813 10.4101 10.4634 10.4813 10.2891C10.6789 9.81378 10.8844 9.21168 10.9753 8.7601C10.995 8.65711 11.0543 8.43132 11.0385 8.34021C11.0148 8.17384 10.7935 8.05104 10.6789 7.95201C10.4694 7.76187 10.339 7.59946 10.1177 7.42121C10.0347 7.55193 9.84497 7.63907 9.77383 7.74603ZM4.82979 3.14705C4.58476 3.42037 4.63614 3.92741 4.6638 4.29184C5.11039 4.0106 5.69925 4.31561 5.69529 4.79096C5.90871 4.78699 5.77434 4.52555 5.73482 4.35522C5.60835 3.80461 5.94823 3.21043 5.75062 2.70735C5.36727 2.73904 5.05506 2.89353 4.82979 3.14705ZM6.59241 1.56652C6.03517 1.72497 5.31985 2.13298 5.09063 2.63605C5.26847 2.60832 5.39098 2.52118 5.56488 2.50929C5.63206 2.50533 5.71901 2.53702 5.7941 2.51721C5.94427 2.4776 6.07469 2.13694 6.1893 2.01018C6.29996 1.88738 6.43433 1.83192 6.52523 1.72101C6.58451 1.69328 6.67146 1.69328 6.67541 1.60613C6.6517 1.57841 6.62403 1.5586 6.59241 1.56652ZM9.49719 1.71705C8.91623 1.38827 7.93612 1.14267 7.3196 1.45165C6.82164 1.7012 6.14978 2.11317 5.92056 2.63209C6.13397 3.13517 5.85733 3.59467 5.83757 4.10566C5.82966 4.37899 5.96404 4.6127 5.97589 4.90979C5.9008 5.03259 5.67949 5.04447 5.52535 5.03655C5.47398 4.77511 5.38308 4.48198 5.11434 4.45029C4.73494 4.40672 4.45434 4.72361 4.43853 5.0524C4.41877 5.4406 4.73494 6.08231 5.18548 6.03874C5.35937 6.0229 5.40284 5.8486 5.59254 5.8486C5.69529 6.05459 5.43446 6.11796 5.40679 6.26453C5.39889 6.30414 5.42655 6.45071 5.44631 6.52201C5.52931 6.85871 5.7111 7.29841 5.88895 7.55589C6.11817 7.88467 6.56475 7.9322 7.0469 7.96389C7.13385 7.77772 7.45001 7.79356 7.65552 7.8411C7.40654 7.74207 7.17732 7.50439 6.98762 7.29445C6.77026 7.05281 6.54894 6.79533 6.53709 6.47844C6.95205 7.05281 7.29193 7.55589 8.04283 7.80941C8.61192 7.99955 9.27587 7.72226 9.71455 7.41328C9.89635 7.28653 10.0031 7.08054 10.1335 6.89833C10.6156 6.20115 10.8409 5.21085 10.7935 4.24827C10.7737 3.85215 10.7737 3.45602 10.6393 3.19062C10.501 2.91334 10.0307 2.65982 9.75407 2.91334C9.7027 2.64001 9.98329 2.47364 10.3113 2.57267C10.0781 2.26766 9.83311 1.90719 9.49719 1.71705ZM10.5801 10.6734C11.0345 10.4476 11.8803 10.0673 12.1609 10.6734C12.2676 10.8992 12.3901 11.2755 12.4415 11.5092C12.5166 11.834 12.3585 12.5233 12.0226 12.6302C11.7262 12.7253 11.3823 12.7213 11.0266 12.65C10.9832 12.6144 10.9397 12.5549 10.9041 12.4916C10.6512 12.4836 10.4101 12.5035 10.2125 12.6104C10.2323 12.8005 10.1058 12.8283 9.98329 12.8679C9.89635 13.2204 10.1611 13.6799 10.0979 13.9968C10.0544 14.2266 9.77383 14.2622 9.56833 14.3018C9.56042 14.4286 9.57623 14.5356 9.59204 14.6425C9.54461 14.8168 9.33515 14.9158 9.1336 14.9396C8.4736 15.0188 7.47373 15.0545 6.8414 14.8247C6.66355 14.389 6.52523 13.8622 6.379 13.367C5.76248 13.4343 5.26057 13.1016 4.79027 12.8798C4.62823 12.8045 4.40297 12.7609 4.33973 12.6302C4.28045 12.5035 4.30416 12.2618 4.28836 12.036C4.25279 11.4537 4.21722 10.8912 4.06704 10.2971C3.99985 10.0277 3.87734 9.79398 3.79435 9.5365C3.71531 9.29883 3.58094 9.00173 3.54537 8.76406C3.49399 8.41151 3.82596 8.39171 4.03542 8.23722C4.36345 7.99955 4.62033 7.86882 4.97602 7.65492C5.08272 7.59154 5.39889 7.43309 5.43446 7.35783C5.50559 7.21126 5.31194 7.00528 5.26057 6.8904C5.17757 6.70819 5.1341 6.5537 5.12224 6.37544C4.82584 6.32791 4.59662 6.14965 4.46225 5.95159C4.23698 5.61885 4.0789 5.00486 4.2765 4.5414C4.29231 4.50575 4.3674 4.43048 4.37925 4.37503C4.40297 4.26411 4.33578 4.11755 4.33183 3.99871C4.31207 3.39264 4.43458 2.86976 4.84165 2.68755C5.00763 2.02602 5.60044 1.80816 6.15769 1.47937C6.36715 1.35658 6.59637 1.27735 6.83349 1.19021C7.68319 0.877269 8.99132 0.936688 9.69874 1.47145C9.9991 1.69724 10.4773 2.17655 10.6472 2.52514C11.1017 3.44018 11.0662 4.97317 10.75 6.09024C10.7065 6.24076 10.6472 6.45863 10.5603 6.64085C10.501 6.76761 10.3153 7.01716 10.335 7.12808C10.3587 7.24295 10.7619 7.54797 10.8488 7.63115C11.0029 7.78168 11.2993 7.97974 11.323 8.16988C11.3507 8.3719 11.2361 8.64919 11.1768 8.84329C10.9871 9.49293 10.7974 10.0911 10.5801 10.6734Z" fill="#231F20"/>
<path d="M7.55676 6.17343C7.58047 6.14174 7.71484 6.09024 7.90454 6.18135C7.90454 6.18135 7.67927 6.217 7.69903 6.59332L7.60418 6.57351C7.60813 6.57747 7.50933 6.23681 7.55676 6.17343Z" fill="#F7E4CD"/>
<path d="M9.19294 9.38994C9.19294 9.4454 9.14551 9.49293 9.09018 9.49293C9.03485 9.49293 8.98743 9.4454 8.98743 9.38994C8.98743 9.33449 9.03485 9.28695 9.09018 9.28695C9.14946 9.28695 9.19294 9.33449 9.19294 9.38994Z" fill="#1D1919"/>
<path d="M9.29564 9.86925C9.29564 9.92471 9.24822 9.97224 9.19289 9.97224C9.13756 9.97224 9.09014 9.92471 9.09014 9.86925C9.09014 9.81379 9.13756 9.76626 9.19289 9.76626C9.25217 9.76626 9.29564 9.80983 9.29564 9.86925Z" fill="#1D1919"/>
</g>
</g>
</svg>
