<svg width="16" height="16" viewBox="0 0 16 16" fill="none" xmlns="http://www.w3.org/2000/svg">
<g id="size=16">
<g id="Path">
<path d="M7.83348 2.96054C7.32362 2.8417 7.07067 3.17447 6.91653 3.51912C6.7782 3.48743 6.83353 3.29727 6.8691 3.2022C6.96001 2.95262 7.32758 2.61589 7.62796 2.66343C7.75443 2.67928 7.92834 2.79812 7.83348 2.96054Z" fill="#000001"/>
<path d="M10.3115 3.5389H10.3352C10.4498 3.77659 10.5486 4.03013 10.6948 4.24405C10.596 4.47382 9.95969 4.67189 9.9676 4.26782C10.1059 4.2084 10.3431 4.25594 10.4656 4.17671C10.3945 3.98259 10.2956 3.81621 10.3115 3.5389Z" fill="#000001"/>
<path d="M8.09036 3.54685C8.20103 3.74889 8.2366 3.95885 8.39074 4.10939C8.46189 4.17673 8.59627 4.25992 8.52908 4.45008C8.51327 4.49365 8.39865 4.59269 8.33146 4.6125C8.09037 4.6838 7.52518 4.62834 7.71489 4.32331C7.91646 4.33123 8.18522 4.45404 8.33541 4.30746C8.22079 4.12523 8.01527 3.76077 8.09036 3.54685Z" fill="#000001"/>
<path d="M10.2207 5.58305C9.85706 5.81678 9.44997 6.07428 8.84921 6.01486C8.72274 5.90393 8.67135 5.65436 8.79783 5.49194C8.86107 5.60286 8.82154 5.80886 9.00335 5.84055C9.34326 5.89997 9.73849 5.63059 9.98354 5.53947C10.1337 5.28198 9.97168 5.19086 9.83335 5.02448C9.55273 4.68775 9.18121 4.26783 9.19307 3.76472C9.30768 3.68153 9.31559 3.89149 9.3314 3.92714C9.47764 4.26783 9.84521 4.70756 10.11 5.00071C10.1772 5.07202 10.2839 5.14332 10.2958 5.19086C10.3313 5.32555 10.2049 5.49194 10.2207 5.58305Z" fill="#000001"/>
<path d="M5.40659 5.33744C5.29198 5.27009 5.26431 4.98486 5.12993 4.97694C4.93626 4.96506 4.97183 5.34932 4.97183 5.57513C4.84141 5.45628 4.81769 5.0839 4.91255 4.89375C4.80188 4.83829 4.75445 4.95317 4.69122 4.99279C4.77422 4.41837 5.53307 4.72737 5.40659 5.33744Z" fill="#000001"/>
<path d="M10.4499 5.82471C10.2799 6.14955 10.0389 6.50608 9.54085 6.51797C9.529 6.41497 9.52109 6.25255 9.54085 6.18916C9.92423 6.14955 10.1614 5.95543 10.4499 5.82471Z" fill="#000001"/>
<path d="M8.0626 6.03466C8.37879 6.20105 8.96374 6.22085 9.3985 6.20897C9.42221 6.30404 9.42221 6.42289 9.42221 6.53777C8.86493 6.56154 8.20884 6.42289 8.0626 6.03466Z" fill="#000001"/>
<path d="M8.00334 6.34367C8.22467 6.89828 8.97958 6.83489 9.61591 6.81905C9.58824 6.89036 9.52895 6.97751 9.44991 7.00524C9.24438 7.08843 8.68315 7.15182 8.39858 7.00128C8.22072 6.9062 8.10215 6.68832 8.00334 6.56155C7.95987 6.50213 7.72272 6.34763 8.00334 6.34367Z" fill="#000001"/>
<path d="M11.5802 10.9905C11.2916 11.05 11.0901 11.3312 10.8055 11.3114C10.9636 11.0935 11.2324 10.9985 11.5802 10.9905Z" fill="#000001"/>
<path d="M11.7065 11.4421C11.4694 11.4659 11.1927 11.5055 10.9556 11.4857C11.0702 11.3114 11.505 11.3748 11.7065 11.4421Z" fill="#000001"/>
<path d="M11.7898 11.8343C11.525 11.8383 11.197 11.8343 10.944 11.8145C11.0942 11.6521 11.6199 11.7551 11.7898 11.8343Z" fill="#000001"/>
<path d="M9.37881 12.9515C9.36695 13.2486 9.40648 13.72 9.42228 14.0329C9.6199 14.0329 9.7029 13.9894 9.84914 13.9418C9.86495 13.5774 9.73452 13.2406 9.695 12.9079C9.61595 12.8801 9.47367 12.9554 9.37881 12.9515ZM6.32759 11.2718C6.45801 12.4642 6.64377 13.4625 6.98763 14.5202C7.75044 14.7539 8.66738 14.7738 9.34324 14.5638C9.22071 13.9696 9.27209 13.2446 9.20095 12.6068C9.14562 12.1275 9.17329 11.6481 9.09819 11.1609C8.28005 10.9905 7.12596 11.1212 6.32759 11.2718ZM9.29186 11.1688C9.28395 11.6798 9.31557 12.1869 9.35509 12.6979C9.55271 12.6702 9.68314 12.6504 9.86495 12.6068C9.80566 12.1156 9.81357 11.557 9.69105 11.1212C9.55271 11.1252 9.43019 11.1212 9.29186 11.1688ZM10.2839 11.0856C10.189 11.0658 10.0823 11.0856 9.99538 11.0856C10.0389 11.5015 10.1377 11.9611 10.1732 12.4008C10.3116 12.4048 10.3867 12.3374 10.5013 12.3176C10.5092 11.9333 10.4697 11.4025 10.2839 11.0856ZM11.7897 12.4642C12.0822 12.3929 12.264 12.0363 12.181 11.6679C12.1257 11.4223 12.0308 10.9549 11.9241 10.7964C11.849 10.6815 11.6396 10.527 11.4696 10.634C11.1969 10.8083 10.7187 10.8598 10.521 11.0697C10.6199 11.4025 10.6515 11.8541 10.691 12.274C11.0309 12.2938 11.4459 12.179 11.7305 12.3018C11.5328 12.3652 11.2799 12.3652 11.1099 12.4602C11.2522 12.5276 11.5763 12.5157 11.7897 12.4642ZM9.07843 10.6855C8.87291 10.2022 8.68715 9.70302 8.38281 9.31479C8.08639 9.51287 7.76229 9.70302 7.67534 10.0635C8.1022 10.3052 8.59624 10.5389 9.07843 10.6855ZM9.58433 9.19198C9.56457 9.67529 9.50924 10.3091 9.38276 10.6855C9.68709 10.2933 9.93609 9.84167 10.193 9.39798C10.0823 9.21971 9.85309 9.06522 9.58433 9.19198ZM9.01124 8.98995C8.89662 8.97806 8.79781 9.12464 8.64762 9.06125C8.61205 9.10087 8.58043 9.14048 8.54486 9.1801C8.87686 9.58417 9.031 10.1546 9.2879 10.6261C9.42624 10.1705 9.41043 9.67529 9.44205 9.1801C9.25233 9.18802 9.14562 9.00183 9.01124 8.98995ZM8.64367 8.50268C8.63181 8.64133 8.66343 8.68491 8.6911 8.84337C9.14167 8.98598 9.06657 8.22141 8.64367 8.50268ZM8.14172 8.3363C7.94805 8.22934 7.65558 8.11445 7.40263 8.06691C7.09039 8.00749 7.12201 8.49476 7.13387 8.78395C7.14572 9.01371 7.2643 9.25537 7.31568 9.40987C7.33939 9.48117 7.34729 9.55644 7.40658 9.57229C7.51329 9.59606 7.86901 9.45741 7.96782 9.40194C8.18124 9.28706 8.34724 9.10087 8.52905 8.9741C8.533 8.91468 8.533 8.85129 8.53696 8.79187C8.42629 8.73641 8.30377 8.70076 8.14172 8.69283C8.24843 8.63737 8.41048 8.63737 8.50929 8.57399C8.50929 8.55022 8.50929 8.52645 8.51324 8.50268C8.33143 8.48287 8.26424 8.40364 8.14172 8.3363ZM6.28411 7.99957C6.12206 8.16595 6.73863 8.3878 6.9323 8.39968C6.9323 8.29668 6.99158 8.19764 6.97973 8.12238C6.74654 8.08276 6.4422 8.11049 6.28411 7.99957ZM8.2761 8.07484C8.2761 8.09068 8.25634 8.08672 8.25239 8.09861C8.46186 8.26103 8.616 8.29668 8.89662 8.28084C9.0231 8.18972 9.13771 8.0788 9.2721 7.99165C8.96381 8.01938 8.57648 8.20953 8.2761 8.07484ZM10.1021 8.62945C10.0942 8.44722 10.0468 8.07088 9.93214 8.00353C9.695 7.86488 9.27605 8.2848 9.09819 8.34818C9.11795 8.40364 9.14957 8.44722 9.15352 8.51853C9.26024 8.4908 9.38671 8.5106 9.47762 8.55418C9.3709 8.56606 9.25629 8.56606 9.18514 8.61756C9.16143 8.69283 9.19305 8.79187 9.17329 8.89487C9.42229 8.96618 9.71081 9.00183 10.027 9.01371C10.0863 8.93448 10.11 8.78395 10.1021 8.62945ZM6.0114 8.15803C5.96002 8.12238 5.61616 7.67473 5.56873 7.69453C4.94821 7.94015 4.36721 8.36403 3.84945 8.7681C4.3435 9.83375 4.54507 11.1371 4.58064 12.3929C5.14583 12.6583 5.64383 13.0426 6.41454 13.0822C6.32363 12.4523 6.24459 11.8858 6.19321 11.2916C5.99954 11.2084 5.72287 11.2955 5.54107 11.2678C5.54107 11.0499 5.81773 11.1727 5.84144 11.0262C5.85725 10.9152 5.6873 10.9073 5.74264 10.733C5.88492 10.7845 5.96002 10.8994 6.11021 10.943C6.24854 10.6419 6.11021 10.1071 6.12997 9.85356C6.13392 9.80602 6.15368 9.5921 6.2604 9.62775C6.35525 9.65944 6.25644 10.2022 6.26435 10.4399C6.27225 10.6617 6.23668 10.8717 6.32759 11.0103C7.07063 10.9073 7.82553 10.8439 8.63181 10.8202C8.45396 10.7449 8.24448 10.6736 8.01524 10.5429C7.88877 10.4716 7.49748 10.325 7.46191 10.2061C7.40263 10.016 7.6121 9.91694 7.64767 9.75452C7.2722 9.96052 7.20106 9.55644 7.11015 9.27518C7.03111 9.01768 6.98368 8.82356 6.96392 8.67699C6.63587 8.5106 6.28806 8.3561 6.0114 8.15803ZM9.77404 7.74603C10.2918 7.49646 10.3867 8.68491 10.1811 9.06918C10.2128 9.18406 10.3195 9.22764 10.3629 9.33064C10.0744 9.84959 9.75428 10.3329 9.45786 10.8439C9.67524 10.7053 9.99142 10.8202 10.2483 10.7172C10.3432 10.6815 10.4104 10.4636 10.4815 10.2893C10.6791 9.81394 10.8847 9.21179 10.9756 8.76018C10.9953 8.65718 11.0546 8.43137 11.0388 8.34026C11.0151 8.17387 10.7938 8.05107 10.6791 7.95203C10.4697 7.76188 10.3392 7.59946 10.1179 7.42119C10.0349 7.55192 9.84519 7.63907 9.77404 7.74603ZM4.82964 3.14672C4.58459 3.42006 4.63597 3.92713 4.66364 4.29159C5.11026 4.01033 5.69916 4.31536 5.69521 4.79074C5.90864 4.78678 5.77425 4.52532 5.73473 4.35498C5.60826 3.80433 5.94816 3.2101 5.75054 2.70699C5.36716 2.73868 5.05493 2.89318 4.82964 3.14672ZM6.59239 1.56607C6.03511 1.72454 5.31973 2.13257 5.0905 2.63568C5.26835 2.60795 5.39088 2.5208 5.56478 2.50891C5.63197 2.50495 5.71892 2.53664 5.79402 2.51684C5.94421 2.47722 6.07463 2.13653 6.18925 2.00976C6.29992 1.88696 6.4343 1.8315 6.5252 1.72057C6.58449 1.69284 6.67144 1.69284 6.67539 1.60569C6.65168 1.57796 6.62401 1.55815 6.59239 1.56607ZM9.49738 1.71661C8.91638 1.38781 7.9362 1.14219 7.31963 1.45119C6.82163 1.70077 6.14973 2.11276 5.92049 2.63172C6.13392 3.13483 5.85725 3.59437 5.83749 4.1054C5.82959 4.37875 5.96397 4.61248 5.97583 4.90959C5.90073 5.0324 5.6794 5.04428 5.52526 5.03636C5.47388 4.7749 5.38297 4.48175 5.11421 4.45005C4.73478 4.40648 4.45417 4.7234 4.43836 5.0522C4.41859 5.44043 4.73478 6.0822 5.18535 6.03862C5.35926 6.02277 5.40273 5.84847 5.59245 5.84847C5.69521 6.05447 5.43435 6.11785 5.40669 6.26443C5.39878 6.30404 5.42645 6.45062 5.44621 6.52192C5.52921 6.85865 5.71102 7.29838 5.88887 7.55588C6.11811 7.88469 6.56473 7.93222 7.04692 7.96391C7.13387 7.77772 7.45006 7.79357 7.65558 7.84111C7.40658 7.74207 7.17734 7.50438 6.98763 7.29442C6.77025 7.05277 6.54892 6.79527 6.53706 6.47835C6.95206 7.05277 7.29196 7.55588 8.04291 7.80942C8.61205 7.99957 9.27605 7.72226 9.71476 7.41327C9.89657 7.2865 10.0033 7.0805 10.1337 6.89827C10.6159 6.20104 10.8412 5.21066 10.7938 4.24802C10.774 3.85187 10.774 3.45572 10.6396 3.19029C10.5013 2.91299 10.0309 2.65945 9.75428 2.91299C9.7029 2.63964 9.98352 2.47326 10.3116 2.5723C10.0784 2.26726 9.83333 1.90676 9.49738 1.71661ZM10.5803 10.6736C11.0348 10.4478 11.8807 10.0675 12.1613 10.6736C12.268 10.8994 12.3905 11.2757 12.4419 11.5095C12.517 11.8343 12.3589 12.5236 12.0229 12.6306C11.7265 12.7257 11.3827 12.7217 11.0269 12.6504C10.9835 12.6147 10.94 12.5553 10.9044 12.4919C10.6515 12.484 10.4104 12.5038 10.2128 12.6108C10.2325 12.8009 10.106 12.8287 9.98352 12.8683C9.89657 13.2208 10.1614 13.6804 10.0981 13.9973C10.0547 14.2271 9.77404 14.2627 9.56852 14.3023C9.56062 14.4291 9.57643 14.5361 9.59224 14.643C9.54481 14.8173 9.33533 14.9164 9.13376 14.9401C8.47372 15.0194 7.47377 15.055 6.84139 14.8253C6.66354 14.3895 6.5252 13.8626 6.37897 13.3674C5.7624 13.4348 5.26045 13.102 4.79012 12.8801C4.62807 12.8049 4.40279 12.7613 4.33955 12.6306C4.28026 12.5038 4.30398 12.2622 4.28817 12.0363C4.2526 11.454 4.21702 10.8915 4.06683 10.2972C3.99964 10.0279 3.87712 9.79413 3.79412 9.53664C3.71507 9.29894 3.58069 9.00183 3.54512 8.76414C3.49374 8.41157 3.82574 8.39176 4.03522 8.23726C4.36326 7.99957 4.62017 7.86884 4.97588 7.65492C5.08259 7.59153 5.39878 7.43307 5.43435 7.3578C5.50549 7.21123 5.31183 7.00523 5.26045 6.89035C5.17745 6.70812 5.13397 6.55362 5.12212 6.37535C4.82569 6.32781 4.59645 6.14954 4.46207 5.95147C4.23679 5.6187 4.07869 5.00467 4.27631 4.54117C4.29212 4.50552 4.36721 4.43025 4.37907 4.37479C4.40279 4.26386 4.3356 4.11729 4.33164 3.99844C4.31188 3.39233 4.4344 2.86941 4.8415 2.68718C5.0075 2.02561 5.60035 1.80773 6.15763 1.47892C6.36711 1.35611 6.59635 1.27688 6.83349 1.18973C7.68325 0.876772 8.99148 0.936195 9.69895 1.471C9.99933 1.6968 10.4776 2.17615 10.6475 2.52476C11.102 3.43987 11.0665 4.97297 10.7503 6.09012C10.7068 6.24066 10.6475 6.45854 10.5606 6.64077C10.5013 6.76754 10.3155 7.01711 10.3353 7.12804C10.359 7.24292 10.7621 7.54796 10.8491 7.63115C11.0032 7.78169 11.2997 7.97976 11.3234 8.16991C11.351 8.37195 11.2364 8.64926 11.1771 8.84337C10.9874 9.49306 10.7977 10.0912 10.5803 10.6736Z" fill="#000001"/>
<path d="M9.19257 9.3898C9.19257 9.44511 9.14526 9.49252 9.09007 9.49252C9.03489 9.49252 8.98758 9.44511 8.98758 9.3898C8.98758 9.33448 9.03489 9.28707 9.09007 9.28707C9.1492 9.28707 9.19257 9.33448 9.19257 9.3898Z" fill="#000001"/>
<path d="M9.29509 9.86914C9.29509 9.92445 9.24779 9.97187 9.1926 9.97187C9.13742 9.97187 9.09011 9.92445 9.09011 9.86914C9.09011 9.81382 9.13742 9.76641 9.1926 9.76641C9.25173 9.76641 9.29509 9.80987 9.29509 9.86914Z" fill="#000001"/>
</g>
</g>
</svg>
