<svg width="24" height="24" viewBox="0 0 24 24" fill="none" xmlns="http://www.w3.org/2000/svg">
<g id="size=24">
<g id="Path">
<path d="M11.762 4.80124C11.0337 4.63148 10.6724 5.10682 10.4522 5.59915C10.2546 5.55388 10.3337 5.28225 10.3845 5.14644C10.5143 4.78993 11.0394 4.30892 11.4685 4.37683C11.6491 4.39946 11.8975 4.56923 11.762 4.80124Z" fill="#000001"/>
<path d="M15.3019 5.62744H15.3358C15.4995 5.96697 15.6407 6.32914 15.8496 6.63472C15.7084 6.96294 14.7995 7.24588 14.8108 6.66868C15.0084 6.58379 15.3471 6.6517 15.5221 6.53852C15.4205 6.26124 15.2794 6.02356 15.3019 5.62744Z" fill="#000001"/>
<path d="M12.129 5.63876C12.2871 5.92737 12.3379 6.22729 12.5581 6.44233C12.6597 6.53853 12.8517 6.65736 12.7557 6.92899C12.7331 6.99124 12.5694 7.13271 12.4734 7.161C12.129 7.26286 11.3217 7.18364 11.5927 6.74791C11.8806 6.75922 12.2645 6.93465 12.479 6.72527C12.3153 6.46496 12.0217 5.94434 12.129 5.63876Z" fill="#000001"/>
<path d="M15.1721 8.54742C14.6526 8.8813 14.0711 9.24913 13.213 9.16424C13.0323 9.00579 12.9589 8.64928 13.1396 8.41727C13.2299 8.57572 13.1734 8.86998 13.4331 8.91525C13.9187 9.00014 14.4833 8.61533 14.8333 8.48518C15.0478 8.11735 14.8164 7.9872 14.6188 7.74952C14.2179 7.26852 13.6872 6.66867 13.7041 5.95C13.8679 5.83116 13.8792 6.13108 13.9017 6.18201C14.1106 6.66867 14.6357 7.29681 15.014 7.71557C15.11 7.81743 15.2624 7.91929 15.2793 7.9872C15.3301 8.1796 15.1495 8.41727 15.1721 8.54742Z" fill="#000001"/>
<path d="M8.29549 8.19658C8.13176 8.10038 8.09224 7.69294 7.90028 7.68162C7.62364 7.66464 7.67445 8.21355 7.67445 8.53611C7.48814 8.36634 7.45426 7.83441 7.58976 7.56278C7.43168 7.48356 7.36393 7.64767 7.2736 7.70426C7.39216 6.88372 8.47615 7.32511 8.29549 8.19658Z" fill="#000001"/>
<path d="M15.4996 8.89262C15.2568 9.35665 14.9124 9.86595 14.201 9.88293C14.1841 9.73579 14.1728 9.50378 14.201 9.41324C14.7487 9.35665 15.0874 9.07936 15.4996 8.89262Z" fill="#000001"/>
<path d="M12.0895 9.19254C12.5412 9.43022 13.3767 9.45851 13.9978 9.44154C14.0316 9.57735 14.0316 9.74712 14.0316 9.91122C13.2356 9.94518 12.2984 9.74712 12.0895 9.19254Z" fill="#000001"/>
<path d="M12.0048 9.63394C12.321 10.4262 13.3993 10.3356 14.3083 10.313C14.2688 10.4149 14.1841 10.5394 14.0712 10.579C13.7776 10.6978 12.9759 10.7883 12.5694 10.5733C12.3153 10.4375 12.1459 10.1263 12.0048 9.94517C11.9427 9.86029 11.604 9.6396 12.0048 9.63394Z" fill="#000001"/>
<path d="M17.1142 16.2718C16.7021 16.3567 16.4142 16.7585 16.0077 16.7302C16.2335 16.4189 16.6174 16.2831 17.1142 16.2718Z" fill="#000001"/>
<path d="M17.2949 16.9169C16.9562 16.9509 16.561 17.0075 16.2222 16.9792C16.3859 16.7302 17.007 16.8207 17.2949 16.9169Z" fill="#000001"/>
<path d="M17.4135 17.4771C17.0352 17.4828 16.5666 17.4771 16.2053 17.4489C16.4198 17.2168 17.1707 17.364 17.4135 17.4771Z" fill="#000001"/>
<path d="M13.9695 19.073C13.9526 19.4974 14.009 20.1708 14.0316 20.6178C14.3139 20.6178 14.4325 20.5556 14.6414 20.4877C14.6639 19.9671 14.4776 19.4861 14.4212 19.0107C14.3083 18.9711 14.105 19.0786 13.9695 19.073ZM9.61093 16.6736C9.79724 18.3769 10.0626 19.803 10.5538 21.3139C11.6434 21.6478 12.9533 21.676 13.9187 21.3761C13.7437 20.5273 13.8171 19.4917 13.7154 18.5806C13.6364 17.8959 13.6759 17.2112 13.5686 16.5151C12.4 16.2718 10.7514 16.4586 9.61093 16.6736ZM13.8453 16.5265C13.834 17.2565 13.8792 17.9808 13.9356 18.7108C14.2179 18.6712 14.4042 18.6429 14.6639 18.5806C14.5792 17.8789 14.5905 17.081 14.4155 16.4586C14.2179 16.4642 14.0429 16.4586 13.8453 16.5265ZM15.2624 16.4076C15.1269 16.3793 14.9745 16.4076 14.8502 16.4076C14.9124 17.0018 15.0535 17.6582 15.1043 18.2864C15.3019 18.292 15.4092 18.1958 15.5729 18.1675C15.5842 17.6186 15.5277 16.8603 15.2624 16.4076ZM17.4134 18.3769C17.8312 18.2751 18.0909 17.7658 17.9724 17.2395C17.8933 16.8886 17.7578 16.2209 17.6054 15.9945C17.4981 15.8304 17.1989 15.6097 16.9561 15.7625C16.5666 16.0115 15.8834 16.0851 15.6011 16.385C15.7423 16.8603 15.7875 17.5054 15.8439 18.1053C16.3295 18.1336 16.9223 17.9695 17.3288 18.1449C17.0465 18.2354 16.6851 18.2354 16.4424 18.3713C16.6456 18.4675 17.1086 18.4505 17.4134 18.3769ZM13.5404 15.8361C13.2468 15.1457 12.9815 14.4327 12.5468 13.8781C12.1233 14.161 11.6604 14.4327 11.5362 14.9476C12.1459 15.2928 12.8516 15.6267 13.5404 15.8361ZM14.2631 13.7027C14.2349 14.3931 14.1558 15.2985 13.9751 15.8361C14.4099 15.2758 14.7656 14.6307 15.1325 13.9969C14.9745 13.7423 14.647 13.5216 14.2631 13.7027ZM13.4444 13.4141C13.2807 13.3971 13.1396 13.6065 12.925 13.5159C12.8742 13.5725 12.829 13.6291 12.7782 13.6857C13.2525 14.2629 13.4727 15.0778 13.8396 15.7512C14.0373 15.1004 14.0147 14.3931 14.0598 13.6857C13.7888 13.697 13.6364 13.431 13.4444 13.4141ZM12.9194 12.718C12.9024 12.9161 12.9476 12.9783 12.9871 13.2047C13.6308 13.4084 13.5235 12.3162 12.9194 12.718ZM12.2024 12.4804C11.9257 12.3276 11.5079 12.1635 11.1466 12.0956C10.7006 12.0107 10.7457 12.7067 10.7627 13.1198C10.7796 13.448 10.949 13.7932 11.0224 14.0139C11.0563 14.1158 11.0675 14.2233 11.1522 14.2459C11.3047 14.2799 11.8128 14.0818 11.9539 14.0026C12.2588 13.8385 12.4959 13.5725 12.7556 13.3914C12.7613 13.3066 12.7613 13.216 12.7669 13.1311C12.6089 13.0519 12.4338 13.001 12.2024 12.9897C12.3548 12.9104 12.5863 12.9104 12.7274 12.8199C12.7274 12.7859 12.7274 12.752 12.7331 12.718C12.4734 12.6897 12.3774 12.5766 12.2024 12.4804ZM9.54882 11.9994C9.31735 12.237 10.1981 12.5539 10.4747 12.5709C10.4747 12.4238 10.5594 12.2823 10.5425 12.1748C10.2094 12.1182 9.77466 12.1578 9.54882 11.9994ZM12.3943 12.1069C12.3943 12.1295 12.3661 12.1238 12.3604 12.1408C12.6597 12.3728 12.8799 12.4238 13.2807 12.4011C13.4614 12.271 13.6251 12.1125 13.8171 11.988C13.3767 12.0276 12.8234 12.2993 12.3943 12.1069ZM15.0027 12.8991C14.9914 12.6388 14.9236 12.1012 14.7599 12.005C14.4212 11.8069 13.8227 12.4068 13.5686 12.4973C13.5969 12.5766 13.642 12.6388 13.6477 12.7407C13.8001 12.7011 13.9808 12.7293 14.1106 12.7916C13.9582 12.8086 13.7945 12.8086 13.6929 12.8821C13.659 12.9897 13.7041 13.1311 13.6759 13.2783C14.0316 13.3801 14.4437 13.431 14.8954 13.448C14.9801 13.3348 15.014 13.1198 15.0027 12.8991ZM9.15926 12.2257C9.08587 12.1748 8.59468 11.5353 8.52693 11.5636C7.64054 11.9145 6.8106 12.52 6.071 13.0972C6.77673 14.6194 7.06466 16.4812 7.11548 18.2751C7.92283 18.6542 8.6342 19.2031 9.73514 19.2597C9.60528 18.3599 9.49237 17.5507 9.41897 16.7019C9.14233 16.583 8.74712 16.7075 8.48741 16.6679C8.48741 16.3567 8.88262 16.5321 8.91649 16.3227C8.93908 16.1643 8.69631 16.153 8.77535 15.904C8.9786 15.9775 9.08587 16.1417 9.30041 16.2039C9.49801 15.7738 9.30041 15.0099 9.32864 14.6477C9.33428 14.5798 9.36251 14.2742 9.51495 14.3252C9.65045 14.3704 9.5093 15.1457 9.5206 15.4852C9.53189 15.8021 9.48108 16.102 9.61093 16.3001C10.6723 16.153 11.7507 16.0624 12.9024 16.0285C12.6484 15.921 12.3492 15.8191 12.0217 15.6324C11.841 15.5305 11.2821 15.3211 11.2313 15.1514C11.1466 14.8797 11.4458 14.7383 11.4966 14.5062C10.9603 14.8005 10.8587 14.2233 10.7288 13.8215C10.6159 13.4537 10.5481 13.1764 10.5199 12.967C10.0513 12.7293 9.55447 12.5087 9.15926 12.2257ZM14.5341 11.6372C15.2737 11.2807 15.4092 12.9783 15.1156 13.5273C15.1608 13.6914 15.3132 13.7536 15.3753 13.9007C14.9632 14.642 14.5059 15.3324 14.0824 16.0624C14.3929 15.8644 14.8446 16.0285 15.2116 15.8813C15.3471 15.8304 15.4431 15.5192 15.5447 15.2702C15.827 14.5911 16.1206 13.731 16.2504 13.0859C16.2786 12.9387 16.3633 12.6162 16.3407 12.486C16.3069 12.2483 15.9907 12.0729 15.827 11.9314C15.5277 11.6598 15.3414 11.4278 15.0253 11.1732C14.9067 11.3599 14.6357 11.4844 14.5341 11.6372ZM7.47116 5.06721C7.12112 5.45768 7.19452 6.18201 7.23404 6.70263C7.87202 6.30085 8.71324 6.73658 8.7076 7.41565C9.01247 7.40999 8.82051 7.03651 8.76406 6.79317C8.58339 6.00659 9.06893 5.15775 8.78664 4.43908C8.23899 4.48435 7.79298 4.70504 7.47116 5.06721ZM9.9892 2.80932C9.19314 3.03567 8.17125 3.61854 7.84379 4.33722C8.09785 4.2976 8.27287 4.17311 8.52129 4.15613C8.61726 4.15047 8.74147 4.19574 8.84874 4.16745C9.06328 4.11086 9.2496 3.6242 9.41332 3.44311C9.57141 3.26769 9.76337 3.18846 9.89322 3.03001C9.97791 2.9904 10.1021 2.9904 10.1078 2.86591C10.0739 2.82629 10.0344 2.798 9.9892 2.80932ZM14.1389 3.02435C13.3089 2.55467 11.9088 2.20382 11.028 2.64521C10.3167 3.00172 9.35687 3.59024 9.02941 4.33156C9.33428 5.05024 8.93908 5.70667 8.91085 6.43666C8.89956 6.82713 9.09151 7.161 9.10845 7.58542C9.00118 7.76084 8.68501 7.77782 8.46483 7.7665C8.39143 7.39302 8.26158 6.97426 7.87766 6.92899C7.33566 6.86674 6.93481 7.31945 6.91223 7.78914C6.884 8.34371 7.33566 9.26045 7.97929 9.1982C8.2277 9.17557 8.28981 8.92657 8.56081 8.92657C8.7076 9.22084 8.33497 9.31138 8.29545 9.52076C8.28416 9.57735 8.32368 9.78673 8.35191 9.88859C8.47047 10.3696 8.73018 10.9977 8.98424 11.3656C9.3117 11.8352 9.94968 11.9031 10.6385 11.9484C10.7627 11.6825 11.2143 11.7051 11.5079 11.773C11.1522 11.6315 10.8248 11.292 10.5538 10.9921C10.2433 10.6469 9.92709 10.279 9.91016 9.82634C10.503 10.6469 10.9885 11.3656 12.0612 11.7277C12.8742 11.9993 13.8227 11.6032 14.4494 11.1618C14.7091 10.9808 14.8615 10.6865 15.0479 10.4262C15.7366 9.43022 16.0585 8.01549 15.9907 6.64038C15.9625 6.07449 15.9625 5.50861 15.7705 5.12946C15.5729 4.73334 14.9011 4.37117 14.5059 4.73334C14.4325 4.34288 14.8333 4.1052 15.3019 4.24667C14.9688 3.81094 14.6188 3.29598 14.1389 3.02435ZM15.6858 15.8191C16.3351 15.4965 17.5433 14.9533 17.9442 15.8191C18.0966 16.1417 18.2716 16.6792 18.345 17.0131C18.4523 17.4772 18.2264 18.4618 17.7466 18.6146C17.3231 18.7504 16.8319 18.7447 16.3238 18.6429C16.2617 18.592 16.1996 18.5071 16.1488 18.4165C15.7875 18.4052 15.4431 18.4335 15.1608 18.5863C15.189 18.8579 15.0083 18.8975 14.8333 18.9541C14.7091 19.4578 15.0874 20.1142 14.997 20.5669C14.9349 20.8951 14.5341 20.9461 14.2405 21.0026C14.2292 21.1837 14.2518 21.3365 14.2744 21.4893C14.2066 21.7383 13.9074 21.8798 13.6195 21.9137C12.6766 22.0269 11.2482 22.0778 10.3449 21.7496C10.0908 21.1271 9.89322 20.3745 9.68432 19.6671C8.80358 19.7633 8.08656 19.288 7.41471 18.9711C7.18323 18.8636 6.86142 18.8013 6.77108 18.6146C6.68639 18.4335 6.72027 18.0883 6.69769 17.7658C6.64687 16.9339 6.59606 16.1303 6.38152 15.2815C6.28554 14.8967 6.11052 14.5628 5.99196 14.195C5.87904 13.8555 5.68709 13.431 5.63627 13.0915C5.56288 12.5879 6.03713 12.5596 6.33635 12.3389C6.80496 11.9994 7.17194 11.8126 7.68006 11.507C7.8325 11.4165 8.28416 11.1901 8.33497 11.0826C8.4366 10.8732 8.15995 10.579 8.08656 10.4149C7.968 10.1546 7.90589 9.93386 7.88895 9.67921C7.46552 9.6113 7.13806 9.35665 6.9461 9.0737C6.62429 8.59836 6.39846 7.72123 6.68075 7.05914C6.70333 7.00821 6.8106 6.90069 6.82754 6.82147C6.86142 6.66302 6.76544 6.45364 6.75979 6.28387C6.73156 5.41806 6.90658 4.67109 7.4881 4.41078C7.72523 3.46575 8.5721 3.15451 9.36816 2.68482C9.66739 2.5094 9.99484 2.39622 10.3336 2.27172C11.5474 1.82467 13.4162 1.90955 14.4268 2.6735C14.8559 2.99606 15.539 3.68079 15.7818 4.17877C16.4311 5.48597 16.3803 7.67596 15.9286 9.27177C15.8665 9.4868 15.7818 9.79804 15.6576 10.0584C15.5729 10.2394 15.3076 10.5959 15.3358 10.7544C15.3697 10.9185 15.9455 11.3542 16.0697 11.4731C16.2899 11.6881 16.7134 11.9711 16.7472 12.2427C16.7868 12.5313 16.623 12.9274 16.5383 13.2047C16.2673 14.1328 15.9963 14.9872 15.6858 15.8191Z" fill="#000001"/>
<path d="M13.7042 13.9856C13.7042 14.0648 13.6364 14.1327 13.5574 14.1327C13.4783 14.1327 13.4106 14.0648 13.4106 13.9856C13.4106 13.9064 13.4783 13.8385 13.5574 13.8385C13.6421 13.8385 13.7042 13.9064 13.7042 13.9856Z" fill="#000001"/>
<path d="M13.8509 14.6703C13.8509 14.7496 13.7832 14.8175 13.7041 14.8175C13.6251 14.8175 13.5573 14.7496 13.5573 14.6703C13.5573 14.5911 13.6251 14.5232 13.7041 14.5232C13.7888 14.5232 13.8509 14.5855 13.8509 14.6703Z" fill="#000001"/>
</g>
</g>
</svg>
