<svg width="24" height="24" viewBox="0 0 24 24" fill="none" xmlns="http://www.w3.org/2000/svg">
<g id="size=24">
<g id="Path">
<path d="M14.2913 11.6768L13.2243 11.8352L11.7846 11.9993L10.853 12.022L9.94405 11.9937L9.24961 11.7786L8.63422 11.1109L8.15432 9.74711L8.04705 9.45285L7.40907 9.23781L7.03645 8.62099L6.7711 7.7382L7.06468 6.96294L7.75911 6.7196L8.31805 6.98557L8.5834 7.5741L8.90522 7.52317L9.01249 7.38735L8.90522 6.77053L8.87699 5.99527L9.03507 4.92574L9.02942 4.31458L9.51496 3.53365L10.3675 2.91683L11.858 2.27738L13.5122 2.52071L14.9519 3.56195L15.6181 4.63147L16.0472 5.40674L16.1544 7.33076L15.8326 8.98882L15.2455 10.4601L14.6922 11.2467" fill="#F0D6B7"/>
<path d="M13.388 16.3001L9.57705 16.4586V17.098L9.89886 19.3446L9.74078 19.5313L7.07595 18.6202L6.88964 18.2977L6.62429 15.2758L5.9976 13.465L5.8621 13.0349L7.99622 11.5636L8.66243 11.2976L9.24959 12.022L9.75772 12.4747L10.3449 12.6614L10.6102 12.7407L10.932 14.1327L11.1748 14.427L11.7902 14.212L11.3611 15.0438L13.6759 16.1417L13.388 16.3001Z" fill="#335061"/>
<path d="M7.0647 6.97426L7.75914 6.73093L8.31808 6.9969L8.58343 7.58542L8.90524 7.53449L8.98428 7.21193L8.8262 6.59511L8.98428 5.1238L8.84878 4.32024L9.32868 3.76001L10.3675 2.93381L10.0739 2.53203L8.60601 3.25637L7.99062 3.73738L7.64622 4.48435L7.11552 5.20869L6.95743 6.06318L7.0647 6.97426Z" fill="#6D6B6D"/>
<path d="M8.15991 4.46171C8.15991 4.46171 8.56077 3.47141 10.1585 2.9904C11.7563 2.50939 10.2376 2.64521 10.2376 2.64521L8.50431 3.31296L7.8381 3.9807L7.54452 4.51264L8.15991 4.46171Z" fill="#DCD9D8"/>
<path d="M7.35829 6.78751C7.35829 6.78751 6.79935 4.91442 8.93347 4.64845L8.85443 4.3259L7.38652 4.67109L6.95743 6.06318L7.0647 6.97426L7.35829 6.78751Z" fill="#DCD9D8"/>
<path d="M8.21074 9.27176L8.56078 8.93223C8.56078 8.93223 8.71886 8.94921 8.74709 9.13595C8.77532 9.32269 8.85436 11.009 10.0005 11.9145C10.1077 11.9993 9.14794 11.7786 9.14794 11.7786L8.29542 10.4432" fill="#F7E4CD"/>
<path d="M13.117 8.76247C13.117 8.76247 13.1791 7.95325 13.3993 8.01549C13.6194 8.07774 13.6194 8.29844 13.6194 8.29844C13.6194 8.29844 13.0887 8.63797 13.117 8.76247Z" fill="#F7E4CD"/>
<path d="M15.3302 5.79721C15.3302 5.79721 14.8898 5.88775 14.8503 6.27822C14.8108 6.66868 15.3302 6.35744 15.4092 6.32915" fill="#F7E4CD"/>
<path d="M12.1064 5.8255C12.1064 5.8255 11.5192 5.90473 11.5192 6.27822C11.5192 6.6517 12.1854 6.62341 12.3717 6.46496" fill="#F7E4CD"/>
<path d="M8.48174 7.56278C8.48174 7.56278 7.47114 6.94596 7.36387 7.53449C7.2566 8.12301 7.01948 8.54743 7.52195 9.16425L7.17756 9.05673L6.85575 8.23053L6.74848 7.42697L7.36387 6.78751L8.05831 6.83844L8.45916 7.161L8.48174 7.56278Z" fill="#F7E4CD"/>
<path d="M8.96162 5.87643C8.96162 5.87643 9.41328 3.52234 11.7055 3.06963C13.5912 2.69614 14.5849 3.14885 14.9575 3.57893C14.9575 3.57893 13.275 1.57568 11.6773 2.18684C10.0795 2.80366 8.90516 3.92412 8.93339 4.6428C8.97855 5.87643 8.96162 5.87643 8.96162 5.87643Z" fill="#F7E4CD"/>
<path d="M15.1438 3.84489C15.1438 3.84489 14.3703 3.8166 14.3421 4.51264C14.3421 4.51264 14.3421 4.62016 14.3929 4.72768C14.3929 4.72768 15.0083 4.03164 15.3809 4.40512" fill="#F7E4CD"/>
<path d="M11.762 4.80124C11.762 4.80124 11.6265 3.73737 10.7231 4.35419C10.136 4.75597 10.1924 5.3162 10.294 5.42372C10.4013 5.53124 10.3731 5.74628 10.4521 5.59914C10.5312 5.45201 10.5086 4.97101 10.8022 4.83519C11.0901 4.69938 11.5756 4.55225 11.762 4.80124Z" fill="#F7E4CD"/>
<path d="M9.25527 12.022L6.74852 13.1425C6.74852 13.1425 7.78735 17.2848 7.25665 18.5693L6.88402 18.4335L6.85579 16.8547L6.16136 13.8668L5.86778 13.0406L8.48179 11.275L9.25527 12.022Z" fill="#49728B"/>
<path d="M9.50929 14.3138L9.86497 14.7496V16.351H9.44154C9.44154 16.351 9.39073 15.2306 9.39073 15.0948C9.39073 14.9589 9.44154 14.4779 9.44154 14.4779" fill="#49728B"/>
<path d="M9.52057 16.5944L8.31801 16.6453L8.66241 16.8886L9.51493 17.0244" fill="#49728B"/>
<path d="M13.6251 16.3284L14.6131 16.3001L14.8559 18.7561L13.8453 18.8919L13.6251 16.3284Z" fill="#335061"/>
<path d="M13.8905 16.3284L15.3809 16.2492C15.3809 16.2492 15.9963 14.6986 15.9963 14.6194C15.9963 14.5402 16.527 12.3728 16.527 12.3728L15.3245 11.1166L15.0817 10.9015L14.4437 11.541V14.0252L13.8905 16.3284Z" fill="#335061"/>
<path d="M14.5567 16.1417L13.6251 16.3284L13.7606 17.0754C14.105 17.2338 14.6922 16.8094 14.6922 16.8094" fill="#49728B"/>
<path d="M14.5849 11.4618L16.4537 12.8538L16.5045 12.2144L15.093 10.9072L14.5849 11.4618Z" fill="#49728B"/>
<path d="M10.4466 21.5912L9.89327 19.3446L9.61663 17.6865L9.57146 16.4586L12.0726 16.3227H13.6252L13.484 19.1296L13.7268 21.2969L13.6986 21.6987L11.6717 21.8571L10.4466 21.5912Z" fill="white"/>
<path d="M13.2807 16.3001C13.2807 16.3001 13.1452 19.0786 13.5461 21.0592C13.5461 21.0592 12.7444 21.5685 11.5757 21.6987L13.8171 21.6195L14.0825 21.461L13.7606 17.081L13.6759 16.1417" fill="#DCD9D8"/>
<path d="M14.8955 18.5467L15.9343 18.2524L17.9047 18.1449L18.1983 17.2338L17.6676 15.655L17.0522 15.5758L16.1997 15.8417L15.3867 16.2435L14.9519 16.1643L14.6131 16.3001" fill="white"/>
<path d="M14.8784 18.0091C14.8784 18.0091 15.5729 17.6865 15.6801 17.7148L15.3867 16.2435L15.731 16.1077C15.731 16.1077 15.9737 17.4998 15.9737 17.6582C15.9737 17.6582 17.4642 17.7375 17.5997 17.7375C17.5997 17.7375 17.9215 17.1206 17.8425 16.4812L18.1361 17.3357L18.1643 17.8167L17.7352 18.4561L17.2553 18.5637L16.4536 18.5354L16.1883 18.1902L15.2567 18.326L14.9631 18.4335" fill="#DCD9D8"/>
<path d="M13.8284 16.1134L13.2412 14.6194L12.6258 13.7366C12.6258 13.7366 12.7613 13.3631 12.9476 13.3631H13.563L14.1502 13.5782L14.0994 14.5685L13.8284 16.1134Z" fill="white"/>
<path d="M13.9469 15.6041C13.9469 15.6041 13.2016 14.161 13.2016 13.946C13.2016 13.946 13.3371 13.6234 13.5234 13.7027C13.7098 13.7819 14.1106 13.9969 14.1106 13.9969V13.4876L13.2016 13.3009L12.5862 13.3801L13.6251 15.8474L13.8396 15.8757" fill="#DCD9D8"/>
<path d="M10.6836 12.0786L9.94399 11.9994L9.24955 11.7843V12.0276L9.5883 12.4011L10.6554 12.8821" fill="white"/>
<path d="M9.49234 12.1578C9.49234 12.1578 10.3166 12.503 10.5876 12.4238L10.6159 12.7463L9.87061 12.5879L9.41895 12.2653L9.49234 12.1578Z" fill="#DCD9D8"/>
<path d="M14.8954 13.4537C14.4437 13.4424 14.0316 13.3858 13.6759 13.2839C13.6985 13.1368 13.6533 12.9953 13.6928 12.8878C13.7944 12.8142 13.9582 12.8142 14.1106 12.7973C13.9808 12.735 13.7945 12.7067 13.6477 12.7463C13.642 12.6445 13.5968 12.5822 13.5686 12.503C13.8227 12.4124 14.4211 11.8183 14.7599 12.0107C14.9236 12.1069 14.9914 12.6388 15.0027 12.9048C15.0139 13.1198 14.9801 13.3348 14.8954 13.4537Z" fill="#D33833"/>
<path d="M14.4155 11.8106C14.5482 11.7736 14.7075 11.7624 14.8537 11.8455L14.855 11.8461L14.8562 11.8468C14.951 11.9026 15.0061 12.0013 15.0394 12.0774C15.0759 12.161 15.1033 12.2583 15.1241 12.3537C15.1656 12.5442 15.1863 12.7539 15.1924 12.8948L15.1942 12.9398C15.197 13.0452 15.1901 13.1514 15.1719 13.2498C15.1516 13.3597 15.1148 13.4733 15.0501 13.564L14.9916 13.6461L14.8906 13.6436C14.4267 13.632 13.998 13.5738 13.6236 13.4666L13.4627 13.4206L13.4881 13.2551C13.4957 13.2053 13.4922 13.1558 13.4882 13.081C13.4869 13.055 13.4853 13.0226 13.4862 12.9866L13.4709 12.9908L13.458 12.7568C13.4567 12.7338 13.4513 12.7141 13.4406 12.6878C13.4344 12.6726 13.4281 12.6588 13.4186 12.6376C13.4099 12.6181 13.3992 12.5938 13.3896 12.5668L13.3258 12.3878L13.5049 12.324C13.5415 12.3109 13.6059 12.2721 13.7081 12.2033C13.801 12.1407 13.9169 12.0593 14.0339 11.9883C14.1505 11.9175 14.2826 11.8477 14.4155 11.8106ZM14.6597 12.1728C14.6354 12.1616 14.5933 12.1556 14.5176 12.1767C14.435 12.1998 14.3381 12.2482 14.2311 12.3131C14.1244 12.3779 14.0219 12.4501 13.9205 12.5184C13.9086 12.5264 13.8963 12.5343 13.8841 12.5425C13.9963 12.5533 14.1047 12.5836 14.1928 12.6259L14.791 12.9126L14.1317 12.9861C14.0383 12.9965 13.9812 12.9983 13.9119 13.0091C13.8941 13.0119 13.879 13.0149 13.8661 13.018C13.8663 13.03 13.8669 13.0442 13.8678 13.061C13.8689 13.0828 13.8703 13.1092 13.8714 13.1388C14.1427 13.2041 14.4475 13.2447 14.779 13.2594C14.786 13.2369 14.7926 13.2107 14.7981 13.1808C14.8126 13.1022 14.8179 13.0099 14.8129 12.9148L14.8128 12.9128C14.8075 12.7879 14.7887 12.5996 14.7528 12.4345C14.7347 12.3516 14.7138 12.2813 14.6912 12.2298C14.6748 12.1922 14.6629 12.1769 14.6597 12.1728Z" fill="#D33833"/>
<path d="M12.733 12.7124C12.733 12.7463 12.733 12.7803 12.7274 12.8142C12.5862 12.9048 12.3604 12.9048 12.2023 12.984C12.4282 12.9953 12.6088 13.0519 12.7669 13.1255C12.7613 13.2104 12.7613 13.3009 12.7556 13.3858C12.4959 13.5612 12.2588 13.8272 11.9539 13.9969C11.8071 14.0762 11.3046 14.2799 11.1522 14.2403C11.0675 14.2176 11.0562 14.1101 11.0223 14.0083C10.9489 13.7932 10.7796 13.4424 10.7626 13.1142C10.7457 12.7011 10.7005 12.005 11.1466 12.0899C11.5079 12.1578 11.9257 12.3219 12.2023 12.4747C12.3773 12.5766 12.4733 12.6897 12.733 12.7124Z" fill="#D33833"/>
<path d="M10.7599 12.0234C10.8683 11.9121 11.0162 11.8719 11.1816 11.9033C11.5656 11.9754 12.0025 12.1472 12.2942 12.3084L12.2979 12.3105C12.5147 12.4367 12.5462 12.5054 12.7496 12.5231L12.923 12.5382V12.7124C12.923 12.7438 12.9235 12.7934 12.9148 12.8454L12.901 12.9287L12.856 12.9574L12.9652 13.0082L12.9565 13.1381C12.9539 13.1767 12.9526 13.2172 12.9512 13.2617C12.9498 13.3049 12.9484 13.3521 12.9453 13.3984L12.9391 13.4912L12.862 13.5433C12.7431 13.6236 12.6299 13.7242 12.4943 13.8387C12.3634 13.9492 12.216 14.0685 12.0464 14.163L12.0453 14.1636L12.0442 14.1642C11.9589 14.2102 11.7864 14.2848 11.6168 14.3429C11.5314 14.3722 11.4414 14.3991 11.3599 14.4161C11.2884 14.431 11.1894 14.4462 11.1045 14.4242L11.1031 14.4239C10.9763 14.3899 10.9192 14.2907 10.8927 14.2269C10.8794 14.1949 10.8697 14.1621 10.8625 14.137C10.8543 14.1087 10.8489 14.0889 10.8421 14.0682C10.8253 14.0194 10.8029 13.9619 10.7761 13.8926C10.7496 13.8244 10.7198 13.7471 10.6917 13.6655C10.6361 13.504 10.5827 13.3145 10.5729 13.124V13.1229C10.5648 12.9261 10.5469 12.621 10.5946 12.3786C10.6184 12.2578 10.6635 12.1224 10.7599 12.0234ZM11.1111 12.2765C11.0536 12.2656 11.0401 12.2805 11.0321 12.2886C11.0121 12.3092 10.986 12.3578 10.9674 12.452C10.9306 12.6391 10.9436 12.8885 10.9524 13.1043C10.9595 13.242 10.9994 13.392 11.051 13.5417C11.0765 13.6158 11.1039 13.6871 11.1304 13.7553C11.1497 13.8052 11.1693 13.8552 11.1862 13.9016L11.2022 13.9469L11.2027 13.9483C11.2127 13.9785 11.2215 14.0104 11.2276 14.0316C11.2299 14.0395 11.232 14.0463 11.2339 14.0523C11.2463 14.0507 11.2624 14.0483 11.2824 14.0441C11.3425 14.0316 11.4161 14.01 11.4936 13.9834C11.6496 13.9299 11.8011 13.8633 11.863 13.83C11.9976 13.7548 12.1209 13.6566 12.2491 13.5483C12.3498 13.4633 12.4578 13.3684 12.5701 13.2848C12.5705 13.2734 12.5709 13.2618 12.5712 13.2499C12.4606 13.2095 12.3377 13.181 12.1928 13.1738L11.4716 13.1376L12.1172 12.8141C12.1699 12.7877 12.2273 12.7683 12.2821 12.7532C12.2146 12.7112 12.1585 12.6691 12.1068 12.639C11.8451 12.4951 11.4481 12.3399 11.1111 12.2765Z" fill="#D33833"/>
<path d="M12.9871 13.2047C12.9476 12.9783 12.9024 12.9161 12.9193 12.718C13.5234 12.3162 13.6307 13.4084 12.9871 13.2047Z" fill="#D33833"/>
<path d="M12.8142 12.5598C12.9986 12.4372 13.1932 12.3993 13.3607 12.4835C13.5194 12.5633 13.5943 12.724 13.61 12.8661C13.6259 13.0089 13.5878 13.1782 13.4639 13.2959C13.3303 13.4228 13.1385 13.4519 12.9298 13.3858L12.8198 13.351L12.8 13.2374C12.7798 13.122 12.7648 13.0806 12.746 12.9891C12.7286 12.9045 12.7198 12.821 12.73 12.7019L12.7379 12.6106L12.8142 12.5598ZM13.1505 12.8198C13.1392 12.8215 13.1246 12.8252 13.1068 12.8322C13.1086 12.8607 13.1127 12.8858 13.1182 12.9125C13.1236 12.9389 13.135 12.9845 13.1474 13.0397C13.1531 13.0393 13.1582 13.0391 13.1626 13.0384C13.1831 13.035 13.1945 13.0276 13.2021 13.0203C13.2202 13.0031 13.2384 12.9626 13.2323 12.908C13.2262 12.8528 13.2012 12.8286 13.19 12.823C13.1852 12.8206 13.1741 12.8162 13.1505 12.8198Z" fill="#D33833"/>
<path d="M13.8566 13.3858C13.8566 13.3858 13.6703 13.1198 13.8058 13.0406C13.9413 12.9614 14.0712 13.0406 14.1502 12.9048C14.2292 12.769 14.1502 12.6897 14.1784 12.5313C14.2067 12.3728 14.3365 12.3445 14.472 12.3162C14.6075 12.2879 14.9801 12.237 15.0309 12.3672L14.8729 11.8862L14.551 11.7786L13.5404 12.3672L13.4896 12.6614V13.25" fill="#EF3D3A"/>
<path d="M11.0563 14.2686C11.0224 13.8498 10.9885 13.4367 10.9546 13.0179C10.8982 12.3955 11.1014 12.503 11.6434 12.503C11.7281 12.503 12.1516 12.5992 12.1798 12.6614C12.3266 12.9614 11.937 12.8935 12.3492 13.1198C12.6935 13.3066 13.3089 13.0066 13.1678 12.5822C13.0888 12.486 12.7613 12.5539 12.6427 12.4917C12.4338 12.3842 12.2249 12.2766 12.0161 12.1691C11.7507 12.0333 11.1409 11.8296 10.8587 12.022C10.1416 12.5086 10.9038 13.731 11.1579 14.2403" fill="#EF3D3A"/>
<path d="M11.762 4.80124C11.0336 4.63147 10.6723 5.10682 10.4521 5.59914C10.2545 5.55387 10.3337 5.28225 10.3845 5.14644C10.5143 4.78993 11.0394 4.30892 11.4685 4.37683C11.6491 4.39946 11.8975 4.56923 11.762 4.80124Z" fill="#231F20"/>
<path d="M15.3019 5.62744H15.3357C15.4995 5.96697 15.6406 6.32914 15.8495 6.63472C15.7084 6.96294 14.7994 7.24588 14.8107 6.66868C15.0083 6.58379 15.347 6.6517 15.5221 6.53852C15.4204 6.26124 15.2793 6.02356 15.3019 5.62744Z" fill="#231F20"/>
<path d="M12.129 5.63876C12.2871 5.92737 12.3379 6.22729 12.5581 6.44233C12.6597 6.53853 12.8517 6.65736 12.7557 6.92899C12.7331 6.99124 12.5694 7.13271 12.4734 7.161C12.129 7.26286 11.3217 7.18364 11.5927 6.74791C11.8806 6.75922 12.2645 6.93465 12.479 6.72527C12.3153 6.46496 12.0217 5.94434 12.129 5.63876Z" fill="#231F20"/>
<path d="M15.1721 8.54742C14.6526 8.8813 14.0711 9.24913 13.213 9.16424C13.0323 9.00579 12.9589 8.64928 13.1396 8.41727C13.2299 8.57572 13.1734 8.86998 13.4331 8.91525C13.9187 9.00014 14.4833 8.61533 14.8333 8.48518C15.0478 8.11735 14.8164 7.9872 14.6188 7.74952C14.2179 7.26852 13.6872 6.66867 13.7041 5.95C13.8679 5.83116 13.8792 6.13108 13.9017 6.18201C14.1106 6.66867 14.6357 7.29681 15.014 7.71557C15.11 7.81743 15.2624 7.91929 15.2793 7.9872C15.3301 8.1796 15.1495 8.41727 15.1721 8.54742Z" fill="#231F20"/>
<path d="M8.29542 8.19658C8.13169 8.10038 8.09217 7.69294 7.90021 7.68162C7.62356 7.66464 7.67438 8.21355 7.67438 8.53611C7.48807 8.36634 7.45419 7.83441 7.58969 7.56278C7.43161 7.48356 7.36386 7.64767 7.27352 7.70426C7.39209 6.88372 8.47608 7.32511 8.29542 8.19658Z" fill="#231F20"/>
<path d="M15.4996 8.89262C15.2568 9.35665 14.9124 9.86595 14.201 9.88293C14.1841 9.73579 14.1728 9.50378 14.201 9.41324C14.7487 9.35665 15.0874 9.07936 15.4996 8.89262Z" fill="#231F20"/>
<path d="M12.0894 9.19254C12.5411 9.43022 13.3767 9.45851 13.9977 9.44154C14.0316 9.57735 14.0316 9.74712 14.0316 9.91122C13.2355 9.94518 12.2983 9.74712 12.0894 9.19254Z" fill="#231F20"/>
<path d="M12.0047 9.63394C12.3209 10.4262 13.3992 10.3356 14.3082 10.313C14.2687 10.4149 14.184 10.5394 14.0711 10.579C13.7775 10.6978 12.9758 10.7883 12.5693 10.5733C12.3153 10.4375 12.1459 10.1263 12.0047 9.94517C11.9426 9.86029 11.6039 9.6396 12.0047 9.63394Z" fill="#231F20"/>
<path d="M15.1326 13.9969C14.7656 14.6307 14.4099 15.2815 13.9752 15.8361C14.1558 15.2985 14.2349 14.3931 14.2631 13.7027C14.647 13.5216 14.9745 13.7423 15.1326 13.9969Z" fill="#81B0C4"/>
<path d="M17.1142 16.2718C16.7021 16.3567 16.4142 16.7585 16.0077 16.7302C16.2335 16.4189 16.6174 16.2831 17.1142 16.2718Z" fill="#231F20"/>
<path d="M17.2948 16.9169C16.9561 16.9509 16.5609 17.0075 16.2221 16.9792C16.3859 16.7302 17.0069 16.8207 17.2948 16.9169Z" fill="#231F20"/>
<path d="M17.4135 17.4771C17.0352 17.4828 16.5666 17.4771 16.2053 17.4489C16.4198 17.2168 17.1707 17.364 17.4135 17.4771Z" fill="#231F20"/>
<path d="M14.4212 19.0051C14.4777 19.4804 14.664 19.9614 14.6414 20.482C14.4325 20.5499 14.3139 20.6122 14.0316 20.6122C14.0147 20.1708 13.9526 19.4917 13.9695 19.0673C14.105 19.0786 14.3083 18.9711 14.4212 19.0051Z" fill="#DCD9D8"/>
<path d="M13.8114 11.988C13.6195 12.1125 13.4614 12.2653 13.2751 12.4011C12.8686 12.4238 12.6484 12.3728 12.3548 12.1408C12.3605 12.1238 12.3887 12.1295 12.3887 12.1069C12.8234 12.2993 13.3767 12.0276 13.8114 11.988Z" fill="#F0D6B7"/>
<path d="M11.5417 14.9476C11.6603 14.4327 12.1289 14.161 12.5523 13.8781C12.9871 14.4327 13.2524 15.1457 13.546 15.8361C12.8516 15.6267 12.1459 15.2928 11.5417 14.9476Z" fill="#81B0C4"/>
<path d="M13.9695 19.073C13.9526 19.4974 14.009 20.1708 14.0316 20.6178C14.3139 20.6178 14.4325 20.5556 14.6414 20.4877C14.6639 19.9671 14.4776 19.4861 14.4212 19.0107C14.3083 18.9711 14.105 19.0786 13.9695 19.073ZM9.61093 16.6736C9.79724 18.3769 10.0626 19.803 10.5538 21.3139C11.6434 21.6478 12.9533 21.676 13.9187 21.3761C13.7437 20.5273 13.8171 19.4917 13.7154 18.5806C13.6364 17.8959 13.6759 17.2112 13.5686 16.5151C12.4 16.2718 10.7514 16.4586 9.61093 16.6736ZM13.8453 16.5265C13.834 17.2565 13.8792 17.9808 13.9356 18.7108C14.2179 18.6712 14.4042 18.6429 14.6639 18.5806C14.5792 17.8789 14.5905 17.081 14.4155 16.4586C14.2179 16.4642 14.0429 16.4586 13.8453 16.5265ZM15.2624 16.4076C15.1269 16.3793 14.9745 16.4076 14.8502 16.4076C14.9124 17.0018 15.0535 17.6582 15.1043 18.2864C15.3019 18.292 15.4092 18.1958 15.5729 18.1675C15.5842 17.6186 15.5277 16.8603 15.2624 16.4076ZM17.4134 18.3769C17.8312 18.2751 18.0909 17.7658 17.9724 17.2395C17.8933 16.8886 17.7578 16.2209 17.6054 15.9945C17.4981 15.8304 17.1989 15.6097 16.9561 15.7625C16.5666 16.0115 15.8834 16.0851 15.6011 16.385C15.7423 16.8603 15.7875 17.5054 15.8439 18.1053C16.3295 18.1336 16.9223 17.9695 17.3288 18.1449C17.0465 18.2354 16.6851 18.2354 16.4424 18.3713C16.6456 18.4675 17.1086 18.4505 17.4134 18.3769ZM13.5404 15.8361C13.2468 15.1457 12.9815 14.4327 12.5468 13.8781C12.1233 14.161 11.6604 14.4327 11.5362 14.9476C12.1459 15.2928 12.8516 15.6267 13.5404 15.8361ZM14.2631 13.7027C14.2349 14.3931 14.1558 15.2985 13.9752 15.8361C14.4099 15.2758 14.7656 14.6307 15.1326 13.9969C14.9745 13.7423 14.647 13.5216 14.2631 13.7027ZM13.4444 13.4141C13.2807 13.3971 13.1396 13.6065 12.925 13.5159C12.8742 13.5725 12.829 13.6291 12.7782 13.6857C13.2525 14.2629 13.4727 15.0778 13.8396 15.7512C14.0373 15.1004 14.0147 14.3931 14.0598 13.6857C13.7888 13.697 13.6364 13.431 13.4444 13.4141ZM12.9871 13.2047C12.9476 12.9783 12.9024 12.9161 12.9193 12.718C13.5234 12.3162 13.6307 13.4084 12.9871 13.2047ZM12.2024 12.4804C11.9257 12.3276 11.5079 12.1635 11.1466 12.0956C10.7006 12.0107 10.7457 12.7067 10.7627 13.1198C10.7796 13.448 10.949 13.7932 11.0224 14.0139C11.0563 14.1158 11.0675 14.2233 11.1522 14.2459C11.3047 14.2799 11.8128 14.0818 11.9539 14.0026C12.2588 13.8385 12.4959 13.5725 12.7556 13.3914C12.7613 13.3066 12.7613 13.216 12.7669 13.1311C12.6089 13.0519 12.4338 13.001 12.2024 12.9897C12.3548 12.9104 12.5863 12.9104 12.7274 12.8199C12.7274 12.7859 12.7274 12.752 12.7331 12.718C12.4734 12.6897 12.3774 12.5766 12.2024 12.4804ZM9.54882 11.9994C9.31735 12.237 10.1981 12.5539 10.4747 12.5709C10.4747 12.4238 10.5594 12.2823 10.5425 12.1748C10.2094 12.1182 9.77466 12.1578 9.54882 11.9994ZM12.3943 12.1069C12.3943 12.1295 12.3661 12.1238 12.3604 12.1408C12.6597 12.3728 12.8799 12.4238 13.2807 12.4011C13.4614 12.271 13.6251 12.1125 13.8171 11.988C13.3767 12.0276 12.8234 12.2993 12.3943 12.1069ZM15.0027 12.8991C14.9914 12.6388 14.9236 12.1012 14.7599 12.005C14.4212 11.8069 13.8227 12.4068 13.5686 12.4973C13.5969 12.5766 13.642 12.6388 13.6477 12.7407C13.8001 12.7011 13.9808 12.7293 14.1106 12.7916C13.9582 12.8086 13.7945 12.8086 13.6929 12.8821C13.659 12.9897 13.7041 13.1311 13.6759 13.2783C14.0316 13.3801 14.4437 13.431 14.8954 13.448C14.9801 13.3348 15.014 13.1198 15.0027 12.8991ZM9.15926 12.2257C9.08587 12.1748 8.59468 11.5353 8.52693 11.5636C7.64054 11.9145 6.8106 12.52 6.071 13.0972C6.77673 14.6194 7.06466 16.4812 7.11548 18.2751C7.92283 18.6542 8.6342 19.2031 9.73514 19.2597C9.60528 18.3599 9.49237 17.5507 9.41897 16.7019C9.14233 16.583 8.74712 16.7075 8.48741 16.6679C8.48741 16.3567 8.88262 16.5321 8.91649 16.3227C8.93908 16.1643 8.69631 16.153 8.77535 15.904C8.9786 15.9775 9.08587 16.1417 9.30041 16.2039C9.49801 15.7738 9.30041 15.0099 9.32864 14.6477C9.33428 14.5798 9.36251 14.2742 9.51495 14.3252C9.65045 14.3704 9.5093 15.1457 9.5206 15.4852C9.53189 15.8021 9.48108 16.102 9.61093 16.3001C10.6723 16.153 11.7507 16.0624 12.9024 16.0285C12.6484 15.921 12.3492 15.8191 12.0217 15.6324C11.841 15.5305 11.2821 15.3211 11.2313 15.1514C11.1466 14.8797 11.4458 14.7383 11.4966 14.5062C10.9603 14.8005 10.8587 14.2233 10.7288 13.8215C10.6159 13.4537 10.5481 13.1764 10.5199 12.967C10.0513 12.7293 9.55447 12.5087 9.15926 12.2257ZM14.5341 11.6372C15.2737 11.2807 15.4092 12.9783 15.1156 13.5273C15.1608 13.6914 15.3132 13.7536 15.3753 13.9007C14.9632 14.642 14.5059 15.3324 14.0824 16.0624C14.3929 15.8644 14.8446 16.0285 15.2116 15.8813C15.3471 15.8304 15.4431 15.5192 15.5447 15.2702C15.827 14.5911 16.1206 13.731 16.2504 13.0859C16.2786 12.9387 16.3633 12.6162 16.3407 12.486C16.3069 12.2483 15.9907 12.0729 15.827 11.9314C15.5277 11.6598 15.3414 11.4278 15.0253 11.1732C14.9067 11.3599 14.6357 11.4844 14.5341 11.6372ZM7.47116 5.06721C7.12112 5.45768 7.19452 6.18201 7.23404 6.70263C7.87202 6.30085 8.71324 6.73658 8.7076 7.41565C9.01247 7.40999 8.82051 7.03651 8.76406 6.79317C8.58339 6.00659 9.06893 5.15775 8.78664 4.43908C8.23899 4.48435 7.79298 4.70504 7.47116 5.06721ZM9.9892 2.80932C9.19314 3.03567 8.17125 3.61854 7.84379 4.33722C8.09785 4.2976 8.27287 4.17311 8.52129 4.15613C8.61726 4.15047 8.74147 4.19574 8.84874 4.16745C9.06328 4.11086 9.2496 3.6242 9.41332 3.44311C9.57141 3.26769 9.76337 3.18846 9.89322 3.03001C9.97791 2.9904 10.1021 2.9904 10.1078 2.86591C10.0739 2.82629 10.0344 2.798 9.9892 2.80932ZM14.1389 3.02435C13.3089 2.55467 11.9088 2.20382 11.028 2.64521C10.3167 3.00172 9.35687 3.59024 9.02941 4.33156C9.33428 5.05024 8.93908 5.70667 8.91085 6.43666C8.89956 6.82713 9.09151 7.161 9.10845 7.58542C9.00118 7.76084 8.68501 7.77782 8.46483 7.7665C8.39143 7.39302 8.26158 6.97426 7.87766 6.92899C7.33566 6.86674 6.93481 7.31945 6.91223 7.78914C6.884 8.34371 7.33566 9.26045 7.97929 9.1982C8.2277 9.17557 8.28981 8.92657 8.56081 8.92657C8.7076 9.22084 8.33497 9.31138 8.29545 9.52076C8.28416 9.57735 8.32368 9.78673 8.35191 9.88859C8.47047 10.3696 8.73018 10.9977 8.98424 11.3656C9.3117 11.8352 9.94968 11.9031 10.6385 11.9484C10.7627 11.6825 11.2143 11.7051 11.5079 11.773C11.1522 11.6315 10.8248 11.292 10.5538 10.9921C10.2433 10.6469 9.92709 10.279 9.91016 9.82634C10.503 10.6469 10.9885 11.3656 12.0612 11.7277C12.8742 11.9993 13.8227 11.6032 14.4494 11.1618C14.7091 10.9808 14.8615 10.6865 15.0479 10.4262C15.7366 9.43022 16.0585 8.01549 15.9907 6.64038C15.9625 6.07449 15.9625 5.50861 15.7705 5.12946C15.5729 4.73334 14.9011 4.37117 14.5059 4.73334C14.4325 4.34288 14.8333 4.1052 15.3019 4.24667C14.9688 3.81094 14.6188 3.29598 14.1389 3.02435ZM15.6858 15.8191C16.3351 15.4965 17.5433 14.9533 17.9442 15.8191C18.0966 16.1417 18.2716 16.6792 18.345 17.0131C18.4523 17.4772 18.2264 18.4618 17.7466 18.6146C17.3231 18.7504 16.8319 18.7447 16.3238 18.6429C16.2617 18.592 16.1996 18.5071 16.1488 18.4165C15.7875 18.4052 15.4431 18.4335 15.1608 18.5863C15.189 18.8579 15.0083 18.8975 14.8333 18.9541C14.7091 19.4578 15.0874 20.1142 14.997 20.5669C14.9349 20.8951 14.5341 20.9461 14.2405 21.0026C14.2292 21.1837 14.2518 21.3365 14.2744 21.4893C14.2066 21.7383 13.9074 21.8798 13.6195 21.9137C12.6766 22.0269 11.2482 22.0778 10.3449 21.7496C10.0908 21.1271 9.89322 20.3745 9.68432 19.6671C8.80358 19.7633 8.08656 19.288 7.41471 18.9711C7.18323 18.8636 6.86142 18.8013 6.77108 18.6146C6.68639 18.4335 6.72027 18.0883 6.69769 17.7658C6.64687 16.9339 6.59606 16.1303 6.38152 15.2815C6.28554 14.8967 6.11052 14.5628 5.99196 14.195C5.87904 13.8555 5.68709 13.431 5.63627 13.0915C5.56288 12.5879 6.03713 12.5596 6.33635 12.3389C6.80496 11.9994 7.17194 11.8126 7.68006 11.507C7.8325 11.4165 8.28416 11.1901 8.33497 11.0826C8.4366 10.8732 8.15995 10.579 8.08656 10.4149C7.968 10.1546 7.90589 9.93386 7.88895 9.67921C7.46552 9.6113 7.13806 9.35665 6.9461 9.0737C6.62429 8.59836 6.39846 7.72123 6.68075 7.05914C6.70333 7.00821 6.8106 6.90069 6.82754 6.82147C6.86142 6.66302 6.76544 6.45364 6.75979 6.28387C6.73156 5.41806 6.90658 4.67109 7.4881 4.41078C7.72523 3.46575 8.5721 3.15451 9.36816 2.68482C9.66739 2.5094 9.99484 2.39622 10.3336 2.27172C11.5474 1.82467 13.4162 1.90955 14.4268 2.6735C14.8559 2.99606 15.539 3.68079 15.7818 4.17877C16.4311 5.48597 16.3803 7.67596 15.9286 9.27177C15.8665 9.4868 15.7818 9.79804 15.6576 10.0584C15.5729 10.2394 15.3076 10.5959 15.3358 10.7544C15.3697 10.9185 15.9455 11.3542 16.0697 11.4731C16.2899 11.6881 16.7134 11.9711 16.7472 12.2427C16.7868 12.5313 16.623 12.9274 16.5383 13.2047C16.2673 14.1328 15.9963 14.9872 15.6858 15.8191Z" fill="#231F20"/>
<path d="M11.3667 9.3906C11.4006 9.34533 11.5926 9.27177 11.8636 9.40192C11.8636 9.40192 11.5418 9.45285 11.57 9.99044L11.4345 9.96215C11.4401 9.96781 11.299 9.48114 11.3667 9.3906Z" fill="#F7E4CD"/>
<path d="M13.7042 13.9856C13.7042 14.0648 13.6364 14.1327 13.5574 14.1327C13.4783 14.1327 13.4106 14.0648 13.4106 13.9856C13.4106 13.9064 13.4783 13.8385 13.5574 13.8385C13.6421 13.8385 13.7042 13.9064 13.7042 13.9856Z" fill="#1D1919"/>
<path d="M13.8509 14.6703C13.8509 14.7496 13.7832 14.8175 13.7041 14.8175C13.6251 14.8175 13.5573 14.7496 13.5573 14.6703C13.5573 14.5911 13.6251 14.5232 13.7041 14.5232C13.7888 14.5232 13.8509 14.5855 13.8509 14.6703Z" fill="#1D1919"/>
</g>
</g>
</svg>
