<svg width="16" height="16" viewBox="0 0 16 16" fill="none" xmlns="http://www.w3.org/2000/svg">
<g id="size=16">
<path id="Path" d="M7.27146 10.0355L6.58463 10.2335C6.64421 10.4129 6.69296 10.7341 6.69296 11.1669V13.2946H7.46267V11.0436C7.60621 10.8642 7.76167 10.7778 7.9285 10.7778C8.013 10.7778 8.07855 10.7963 8.15005 10.8395L8.35913 10.1039C8.2709 10.0554 8.17188 10.0319 8.07205 10.0355C7.98607 10.0353 7.90088 10.0525 7.82125 10.086C7.67771 10.1594 7.49842 10.3271 7.38521 10.4869C7.38521 10.3075 7.3435 10.1656 7.27146 10.0355ZM4.62001 8.98489H4.53659V13.2884H5.33663V11.3833H6.3463V10.6724H5.33609V9.68346H6.59709L6.64476 9.30614C5.88642 9.25007 5.19959 9.12673 4.62001 8.98489ZM2.75017 13.8625L3.12067 14.3088C3.47926 14.1602 3.92776 13.8267 4.04692 13.294C4.08863 13.1214 4.10109 13.0104 4.10109 12.4475V8.99105H3.29184V12.54C3.29184 13.0042 3.27451 13.1769 3.21492 13.3378C3.13692 13.5172 2.95167 13.7274 2.74909 13.8637L2.75017 13.8625ZM10.0204 11.6805C10.0204 12.4351 9.87742 12.7569 9.54863 12.7569C9.4665 12.7572 9.38605 12.7328 9.3171 12.6866C9.24815 12.6404 9.19365 12.5745 9.16025 12.4968C9.10067 12.3365 9.06492 12.0634 9.06492 11.6928C9.06492 11.3772 9.09471 11.1546 9.14238 10.9819C9.20196 10.784 9.35146 10.6601 9.53671 10.6601C9.67429 10.6601 9.79346 10.7218 9.86496 10.8272C9.97275 10.9758 10.0204 11.2533 10.0204 11.6805ZM10.4917 12.9173C10.7435 12.6084 10.8568 12.2305 10.8568 11.6867C10.8568 11.1731 10.7555 10.821 10.5225 10.5244C10.2712 10.2026 9.94838 10.0479 9.53075 10.0479C8.74209 10.0479 8.21667 10.7094 8.21667 11.7113C8.21667 12.7132 8.73667 13.3563 9.53075 13.3563C9.97871 13.3619 10.2707 13.1898 10.4917 12.9173ZM12.6789 11.1361C12.6789 11.4276 12.511 11.5874 12.2131 11.5874C11.9439 11.5874 11.7646 11.4585 11.7646 11.1361C11.7646 10.8395 11.9325 10.6663 12.2185 10.6663C12.5056 10.6663 12.6789 10.8401 12.6789 11.1361ZM14.0347 10.456L13.7178 9.9307C13.5391 10.1045 13.324 10.2026 13.115 10.2026C13.0191 10.2026 12.9655 10.1903 12.7564 10.1353C12.5862 10.0812 12.409 10.0538 12.231 10.054C11.4835 10.054 11.0003 10.4745 11.0003 11.1305C11.0003 11.5998 11.2034 11.8969 11.6275 12.0141C11.4542 12.0572 11.269 12.1503 11.1855 12.2552C11.1231 12.3382 11.0912 12.4415 11.0956 12.5467C11.0956 12.6454 11.1195 12.7317 11.1552 12.8063C11.1943 12.8745 11.253 12.9284 11.3231 12.9605C11.4602 13.0165 11.6806 13.0535 12.0219 13.0597C12.2006 13.0597 12.3084 13.0653 12.3442 13.0653C12.5533 13.0782 12.6605 13.1158 12.7445 13.1584C12.8219 13.2083 12.8815 13.3193 12.8815 13.4432C12.8815 13.5665 12.81 13.6899 12.6968 13.7644C12.595 13.8384 12.4276 13.8698 12.2125 13.8698C11.8605 13.8698 11.6633 13.7336 11.6633 13.4802C11.6633 13.368 11.6752 13.3439 11.699 13.2761H10.9943C10.9645 13.3378 10.9283 13.4247 10.9283 13.5974C10.9283 13.8138 11.0063 13.9993 11.1677 14.1602C11.4304 14.426 11.8605 14.5 12.2727 14.5C12.7266 14.5 13.1686 14.389 13.4253 14.0924C13.5868 13.9068 13.6582 13.7028 13.6582 13.4364C13.6582 13.1522 13.5808 12.9358 13.4075 12.7569C13.2043 12.5529 12.9714 12.4783 12.5235 12.4721L12.1113 12.4665C12.0338 12.4665 11.9856 12.4351 11.9856 12.392C11.9856 12.3056 12.0934 12.2305 12.2905 12.1318C12.3501 12.1374 12.368 12.1374 12.4043 12.1374C13.025 12.1374 13.479 11.7422 13.479 11.1922C13.479 10.9819 13.4194 10.821 13.3056 10.6724C13.4015 10.6848 13.4313 10.6909 13.5028 10.6909C13.7059 10.6909 13.8673 10.6237 14.0347 10.456ZM4.41634 5.24423C3.46084 5.48531 2.80976 5.9613 2.80976 6.50569C2.80976 6.84545 3.06055 7.15437 3.47276 7.39545C3.35049 7.20255 3.28414 6.97746 3.28155 6.74677C3.28697 6.18388 3.71163 5.65855 4.41634 5.24423ZM14.5 7.37694C14.5 7.01813 14.285 6.69071 13.9264 6.41879C13.9562 6.53092 13.9805 6.64137 13.9805 6.75294C13.9805 7.77332 12.6004 8.65074 10.6412 9.01572C10.8622 9.04039 11.0891 9.05273 11.328 9.05273C13.0776 9.04712 14.5 8.29865 14.5 7.37694ZM13.3712 6.82078C13.3712 6.44346 13.0603 6.09754 12.5289 5.81273C12.6535 5.96747 12.7201 6.13454 12.7201 6.30779C12.7201 7.21604 10.8568 7.95217 8.55034 7.95217C6.25042 7.95217 4.38059 7.2166 4.38059 6.30779C4.38059 6.19005 4.41038 6.07904 4.46996 5.97364C4.10001 6.22705 3.89038 6.51747 3.89038 6.82695C3.89038 7.80977 6.01155 8.60757 8.62834 8.60757C11.2446 8.60757 13.3712 7.79743 13.3712 6.82078ZM11.3042 6.772C10.3368 7.41507 7.36138 7.66231 6.08305 6.83367C5.07934 6.18444 5.42601 5.15172 2.55247 2.88894C2.17655 2.5918 2.62451 2.27671 2.90509 2.48079C3.18567 2.68486 2.92892 2.73476 3.49659 3.32176C4.6433 4.50922 4.63138 3.4395 4.81067 3.84765C5.19309 4.69423 6.02942 5.54754 6.02942 5.54754C6.87171 6.1166 7.54067 6.23995 8.78325 5.36814C9.57192 4.81814 9.24909 6.24611 11.179 5.21396C11.8832 4.83664 11.854 5.09061 12.5706 4.05734C12.8685 3.63124 13.4373 4.38532 12.7916 4.49016C12.5348 4.53389 12.0983 4.82431 11.9135 5.2818C11.6449 5.96803 11.7581 6.47486 11.3042 6.772ZM5.93951 5.02838C5.70117 4.91681 5.44984 4.49576 5.35451 4.32981C5.62317 4.05734 5.51538 3.60657 5.35992 3.35877C5.21096 3.11208 5.02571 3.17936 4.82909 2.95117C4.62542 2.72131 4.90601 2.1287 5.1633 2.58619C6.12476 4.29898 6.75796 3.58751 7.54121 3.48267C8.29413 3.38343 8.96255 3.81009 9.16621 2.60469C9.20142 2.40678 9.38667 2.36361 9.40455 2.68486C9.42242 3.01285 9.54213 3.80392 9.95434 3.90316C10.366 4.008 10.7008 3.80392 10.7966 3.69291C10.892 3.58078 10.9456 3.59368 10.9878 3.87793C11.0295 4.15657 11.1368 4.54622 11.7164 4.1134C12.9053 3.23542 12.5646 2.89511 13.0305 2.66692C13.2932 2.53685 13.7113 2.95734 13.1085 3.27243C12.2483 3.72375 12.1584 4.27991 11.6151 4.63256C10.7008 5.22629 10.9813 4.65723 9.51234 4.44082C8.94467 4.36065 8.76484 5.00988 8.32338 4.82431C7.31371 4.39148 6.60196 4.47782 5.93951 5.02838ZM9.12396 1.85679C9.15971 2.11637 9.20142 2.1102 9.29134 2.1287C9.38071 2.15337 9.49446 2.00536 9.49446 1.86912C9.49988 1.72671 9.43488 1.64037 9.30325 1.64654C9.16567 1.65215 9.118 1.72055 9.12396 1.85679ZM13.544 2.32044C13.6523 2.42528 13.9383 2.35745 14.0044 2.27671C14.1777 2.07936 14.1831 1.96163 14.0938 1.82539C14.0044 1.69588 13.8191 1.71438 13.6333 1.85679C13.4486 1.99863 13.4838 2.26438 13.544 2.32044ZM13.4665 3.63124C13.3771 3.75459 13.3712 3.84765 13.4367 3.91549C13.5082 3.9895 13.6518 4.05117 13.7536 3.97156C13.8549 3.88466 13.8549 3.76075 13.7715 3.65591C13.6815 3.54378 13.5624 3.54378 13.4665 3.63124ZM4.39901 2.08497C4.53605 2.12814 4.60159 2.26438 4.71534 2.10964C4.77492 2.03507 4.78034 1.93023 4.70288 1.8181C4.65521 1.75082 4.42826 1.70036 4.33292 1.80016C4.23705 1.89939 4.32751 2.0603 4.39846 2.08497H4.39901ZM1.59642 1.99807C1.84722 2.15898 2.00809 2.40005 2.19984 2.18308C2.26538 2.10964 2.34284 1.97957 2.20526 1.71999C2.10505 1.52824 1.7768 1.45424 1.66305 1.52824C1.54388 1.59552 1.40034 1.87473 1.59751 1.99807H1.59642ZM3.9088 3.2287C3.98626 3.31504 4.12384 3.30887 4.20726 3.25953C4.28526 3.21019 4.2728 3.08012 4.19534 2.96911C4.14767 2.90072 4.00413 2.86371 3.90826 2.96911C3.81292 3.07396 3.85572 3.16646 3.9088 3.2287Z" fill="#000001"/>
</g>
</svg>
