<svg width="16" height="16" viewBox="0 0 16 16" fill="none" xmlns="http://www.w3.org/2000/svg">
<g id="size=16">
<path id="Path" d="M7.27418 10.0319L6.59006 10.2301C6.65266 10.4101 6.69816 10.733 6.69816 11.1615V13.2837H7.46252V11.0374C7.60484 10.8574 7.75882 10.7704 7.93005 10.7704C8.01534 10.7704 8.07807 10.789 8.1526 10.8324L8.36323 10.1002C8.2436 10.0444 8.19214 10.0319 8.07794 10.0319C7.99265 10.0319 7.89013 10.0505 7.827 10.0816C7.68468 10.1561 7.50231 10.3233 7.39382 10.4848C7.38267 10.3046 7.34236 10.1623 7.27418 10.0319ZM4.62051 8.98299H4.5373V13.2837H5.33587V11.3783H6.34469V10.6709H5.33587V9.68409H6.59563L6.6445 9.30841C5.88701 9.2485 5.19913 9.12265 4.62051 8.98286V8.98299ZM2.74999 13.8544L3.12057 14.3015C3.47961 14.1525 3.92991 13.8171 4.04449 13.2899C4.08441 13.1164 4.10113 13.0042 4.10113 12.4459V8.99277H3.2918V12.539C3.2918 13.0042 3.27469 13.1781 3.21195 13.3333C3.13781 13.5071 2.95505 13.7182 2.74999 13.8544ZM10.0217 11.6763C10.0217 12.4271 9.87925 12.7496 9.54859 12.7496C9.40018 12.7496 9.22908 12.6631 9.1609 12.4893C9.0983 12.3279 9.06395 12.0547 9.06395 11.6888C9.06395 11.372 9.0922 11.149 9.14366 10.9814C9.20627 10.7827 9.35468 10.6585 9.53692 10.6585C9.6738 10.6585 9.79344 10.7205 9.86758 10.8261C9.97011 10.969 10.0216 11.2483 10.0216 11.6764L10.0217 11.6763ZM10.4892 12.9114C10.7402 12.601 10.8542 12.2284 10.8542 11.6825C10.8542 11.1671 10.7513 10.8198 10.5175 10.5218C10.2671 10.1993 9.94185 10.0441 9.52539 10.0441C8.73874 10.0441 8.21417 10.7081 8.21417 11.7073C8.21417 12.7064 8.73277 13.3518 9.52539 13.3518C9.9762 13.3518 10.2669 13.1841 10.4892 12.9114ZM12.6787 11.1299C12.6787 11.4216 12.5132 11.5831 12.2112 11.5831C11.9432 11.5831 11.7604 11.4527 11.7604 11.1299C11.7604 10.8323 11.9259 10.6583 12.2168 10.6583C12.5076 10.6583 12.6787 10.8322 12.6787 11.1299ZM14.0299 10.4535L13.7108 9.92628C13.5341 10.1001 13.317 10.1994 13.1065 10.1994C13.0095 10.1994 12.9581 10.1866 12.747 10.1312C12.536 10.0692 12.388 10.0505 12.2225 10.0505C11.4754 10.0505 10.9911 10.4723 10.9911 11.1242C10.9911 11.5957 11.1962 11.8875 11.6182 12.0055C11.4471 12.0489 11.2588 12.1416 11.1735 12.2471C11.1109 12.3216 11.0821 12.421 11.0821 12.5389C11.0821 12.6382 11.1048 12.7252 11.1391 12.7997C11.1791 12.8681 11.2361 12.924 11.3047 12.9545C11.4415 13.0108 11.6641 13.0481 12.0059 13.0538C12.1826 13.0538 12.2912 13.06 12.331 13.06C12.542 13.0725 12.6501 13.1097 12.7298 13.1536C12.8097 13.2027 12.8667 13.3145 12.8667 13.4388C12.8667 13.5629 12.7929 13.6871 12.6844 13.7616C12.5819 13.8358 12.4164 13.8667 12.1998 13.8667C11.8459 13.8667 11.6526 13.7305 11.6526 13.476C11.6526 13.3642 11.6641 13.3394 11.6864 13.2711H10.9796C10.9513 13.3331 10.911 13.4201 10.911 13.594C10.911 13.8112 10.9912 13.9971 11.1508 14.1585C11.4129 14.4255 11.8409 14.5 12.257 14.5C12.713 14.5 13.1521 14.3882 13.4086 14.0903C13.5682 13.904 13.6423 13.6996 13.6423 13.4326C13.6423 13.147 13.5625 12.9297 13.3914 12.7563C13.1863 12.5514 12.9526 12.4768 12.5078 12.4707L12.0969 12.4645C12.0172 12.4645 11.9717 12.4334 11.9717 12.39C11.9717 12.303 12.0802 12.2286 12.2741 12.1297C12.3311 12.1359 12.3538 12.1359 12.3881 12.1359C13.0097 12.1359 13.4655 11.7385 13.4655 11.192C13.4655 10.9814 13.4085 10.82 13.2944 10.6709C13.3914 10.6834 13.4202 10.6896 13.4939 10.6896C13.7049 10.6896 13.8645 10.6212 14.0301 10.4537L14.0299 10.4535ZM4.41895 5.24775C3.46328 5.48941 2.81402 5.96226 2.81402 6.50641C2.81402 6.84309 3.06315 7.15216 3.47883 7.39609C3.35401 7.18942 3.28583 6.97216 3.28583 6.74766C3.28583 6.1818 3.70955 5.6615 4.41908 5.24775H4.41895ZM14.5 7.37344C14.5 7.01679 14.2873 6.68601 13.9257 6.4146C13.9582 6.5233 13.9767 6.63454 13.9767 6.74766C13.9767 7.7695 12.5966 8.64363 10.6402 9.00604C10.8611 9.03178 11.091 9.04598 11.3269 9.04598C13.0795 9.04598 14.5 8.2973 14.5 7.37358V7.37344ZM13.3725 6.81776C13.3725 6.44302 13.0619 6.09575 12.533 5.8092C12.657 5.9644 12.7244 6.12979 12.7244 6.30148C12.7244 7.20711 10.8581 7.94159 8.55623 7.94159C6.25474 7.94159 4.38849 7.20711 4.38849 6.30148C4.38849 6.18622 4.41895 6.07404 4.47599 5.96574C4.10632 6.21852 3.8953 6.50909 3.8953 6.81763C3.8953 7.79818 6.01663 8.59337 8.63387 8.59337C11.2511 8.59337 13.3725 7.79818 13.3725 6.81763V6.81776ZM11.3026 6.7738C10.3371 7.41915 7.36258 7.66254 6.08144 6.83505C5.07741 6.18622 5.42181 5.15768 2.54986 2.8914C2.17449 2.5952 2.61934 2.28077 2.90074 2.48208C3.18162 2.68339 2.92433 2.73713 3.4918 3.32431C4.63736 4.50979 4.62621 3.444 4.80729 3.84716C5.18772 4.69475 6.02713 5.54838 6.02713 5.54838C6.86822 6.11425 7.53938 6.23755 8.77944 5.37012C9.56609 4.81967 9.24438 6.24519 11.1732 5.218C11.8767 4.84325 11.8475 5.09161 12.5625 4.06133C12.8593 3.63338 13.4268 4.38997 12.7833 4.49505C12.526 4.53713 12.0916 4.82811 11.9049 5.28809C11.6415 5.96802 11.7556 6.4713 11.3027 6.7738H11.3026ZM5.94171 5.03089C5.70321 4.9222 5.45357 4.50229 5.35622 4.33368C5.62298 4.06361 5.51487 3.61167 5.36439 3.36331C5.2139 3.11536 5.03114 3.18586 4.83088 2.95788C4.63062 2.72989 4.90632 2.13561 5.16335 2.59252C6.12499 4.30352 6.75636 3.5917 7.5421 3.4897C8.29609 3.39173 8.96259 3.8166 9.16725 2.61383C9.20069 2.41694 9.38553 2.36989 9.40445 2.69545C9.42377 3.02047 9.54172 3.81258 9.95598 3.91511C10.3708 4.0171 10.6997 3.81445 10.7971 3.70227C10.894 3.59009 10.9446 3.60604 10.9875 3.88495C11.0299 4.1644 11.135 4.54973 11.7171 4.12044C12.9078 3.24188 12.5667 2.90212 13.0295 2.67642C13.2933 2.54775 13.7084 2.96605 13.108 3.27995C12.2493 3.72881 12.1584 4.28623 11.6159 4.6402C10.704 5.23582 10.9828 4.66419 9.51554 4.44814C8.95066 4.36477 8.76881 5.01628 8.32785 4.82824C7.31047 4.39359 6.60069 4.47695 5.94184 5.03089H5.94171ZM9.12163 1.85938C9.15507 2.11618 9.19668 2.10988 9.28585 2.13387C9.37464 2.15733 9.48741 2.01284 9.4913 1.87265C9.49519 1.73205 9.43336 1.64386 9.2992 1.64869C9.16544 1.65405 9.11735 1.72361 9.12163 1.85938ZM13.5433 2.32687C13.6501 2.43463 13.9353 2.36185 14.0017 2.28479C14.1725 2.08696 14.1784 1.96768 14.0905 1.83512C14.0021 1.70297 13.816 1.72696 13.6316 1.86528C13.4475 2.00319 13.4822 2.26575 13.5432 2.32701L13.5433 2.32687ZM13.4631 3.63338C13.3713 3.75937 13.3687 3.8485 13.4339 3.91806C13.5034 3.99217 13.6475 4.05651 13.7513 3.97086C13.8546 3.88616 13.8546 3.76245 13.7668 3.65335C13.6784 3.54425 13.5583 3.54425 13.4631 3.63338ZM4.39977 2.0887C4.53963 2.13307 4.60094 2.2675 4.71889 2.11403C4.77722 2.03817 4.78279 1.93806 4.70567 1.82494C4.6568 1.75444 4.42984 1.70565 4.33341 1.80631C4.23697 1.90696 4.32485 2.06485 4.3999 2.08884L4.39977 2.0887ZM1.596 2.00225C1.84655 2.16094 2.01078 2.40139 2.1995 2.18681C2.26302 2.11537 2.34234 1.98014 2.20547 1.7212C2.10553 1.53181 1.77617 1.45421 1.6599 1.52699C1.54364 1.59923 1.40171 1.87908 1.596 2.00239V2.00225ZM3.91085 3.23076C3.99057 3.3164 4.12615 3.3093 4.20729 3.26319C4.28791 3.21615 4.27119 3.08668 4.19355 2.97356C4.14507 2.90306 4.00055 2.87022 3.90398 2.97088C3.80755 3.07153 3.85512 3.17085 3.91085 3.23076Z" fill="#40BE46"/>
</g>
</svg>
