<svg width="24" height="24" viewBox="0 0 24 24" fill="none" xmlns="http://www.w3.org/2000/svg">
<g id="size=24">
<path id="Path" d="M10.9913 14.8184L10.0403 15.0925C10.1228 15.3409 10.1903 15.7857 10.1903 16.385V19.331H11.256V16.2142C11.4548 15.9658 11.67 15.8462 11.901 15.8462C12.018 15.8462 12.1088 15.8719 12.2078 15.9316L12.4973 14.9132C12.3751 14.846 12.238 14.8133 12.0998 14.8184C11.9807 14.8181 11.8628 14.8419 11.7525 14.8883C11.5538 14.99 11.3055 15.2221 11.1488 15.4434C11.1488 15.1949 11.091 14.9985 10.9913 14.8184ZM7.32001 13.3637H7.20451V19.3224H8.31226V16.6846H9.71026V15.7003H8.31151V14.3309H10.0575L10.1235 13.8085C9.07351 13.7309 8.12251 13.5601 7.32001 13.3637ZM4.73101 20.1174L5.24401 20.7353C5.74051 20.5296 6.36151 20.0677 6.52651 19.3302C6.58426 19.0911 6.60151 18.9374 6.60151 18.158V13.3722H5.48101V18.2861C5.48101 18.9289 5.45701 19.168 5.37451 19.3908C5.26651 19.6392 5.01001 19.9303 4.72951 20.1189L4.73101 20.1174ZM14.7975 17.0961C14.7975 18.1409 14.5995 18.5865 14.1443 18.5865C14.0305 18.5869 13.9192 18.5531 13.8237 18.4891C13.7282 18.4252 13.6528 18.3339 13.6065 18.2263C13.524 18.0043 13.4745 17.6263 13.4745 17.1131C13.4745 16.6761 13.5158 16.3679 13.5818 16.1288C13.6643 15.8548 13.8713 15.6832 14.1278 15.6832C14.3183 15.6832 14.4833 15.7686 14.5823 15.9146C14.7315 16.1203 14.7975 16.5045 14.7975 17.0961ZM15.45 18.8085C15.7988 18.3808 15.9555 17.8576 15.9555 17.1046C15.9555 16.3935 15.8153 15.906 15.4928 15.4954C15.1448 15.0498 14.6978 14.8355 14.1195 14.8355C13.0275 14.8355 12.3 15.7515 12.3 17.1388C12.3 18.526 13.02 19.4164 14.1195 19.4164C14.7398 19.4241 15.144 19.1858 15.45 18.8085ZM18.4785 16.3423C18.4785 16.746 18.246 16.9672 17.8335 16.9672C17.4608 16.9672 17.2125 16.7887 17.2125 16.3423C17.2125 15.9316 17.445 15.6918 17.841 15.6918C18.2385 15.6918 18.4785 15.9324 18.4785 16.3423ZM20.3558 15.4007L19.917 14.6733C19.6695 14.9139 19.3718 15.0498 19.0823 15.0498C18.9495 15.0498 18.8753 15.0327 18.5858 14.9566C18.3501 14.8816 18.1048 14.8437 17.8583 14.8441C16.8233 14.8441 16.1543 15.4263 16.1543 16.3345C16.1543 16.9843 16.4355 17.3957 17.0228 17.558C16.7828 17.6177 16.5263 17.7466 16.4108 17.8918C16.3242 18.0067 16.2801 18.1498 16.2863 18.2954C16.2863 18.4321 16.3193 18.5516 16.3688 18.6548C16.4229 18.7493 16.5042 18.8239 16.6013 18.8683C16.791 18.946 17.0963 18.9972 17.5688 19.0057C17.8163 19.0057 17.9655 19.0135 18.015 19.0135C18.3045 19.0313 18.453 19.0834 18.5693 19.1424C18.6765 19.2114 18.759 19.3651 18.759 19.5367C18.759 19.7075 18.66 19.8783 18.5033 19.9815C18.3623 20.084 18.1305 20.1275 17.8328 20.1275C17.3453 20.1275 17.0723 19.9388 17.0723 19.5879C17.0723 19.4327 17.0888 19.3993 17.1218 19.3054H16.146C16.1048 19.3908 16.0545 19.5111 16.0545 19.7502C16.0545 20.0498 16.1625 20.3068 16.386 20.5296C16.7498 20.8975 17.3453 21 17.916 21C18.5445 21 19.1565 20.8463 19.512 20.4356C19.7355 20.1787 19.8345 19.8961 19.8345 19.5274C19.8345 19.1338 19.7273 18.8342 19.4873 18.5865C19.206 18.304 18.8835 18.2007 18.2633 18.1922L17.6925 18.1844C17.5853 18.1844 17.5185 18.1409 17.5185 18.0812C17.5185 17.9616 17.6678 17.8576 17.9408 17.721C18.0233 17.7287 18.048 17.7287 18.0983 17.7287C18.9578 17.7287 19.5863 17.1815 19.5863 16.4199C19.5863 16.1288 19.5038 15.906 19.3463 15.7003C19.479 15.7174 19.5203 15.7259 19.6193 15.7259C19.9005 15.7259 20.124 15.6328 20.3558 15.4007ZM7.03801 8.18432C5.71501 8.51812 4.81351 9.17719 4.81351 9.93096C4.81351 10.4014 5.16076 10.8291 5.73151 11.1629C5.56222 10.8958 5.47035 10.5842 5.46676 10.2648C5.47426 9.48537 6.06226 8.758 7.03801 8.18432ZM21 11.1373C21 10.6405 20.7022 10.1871 20.2058 9.81064C20.247 9.96589 20.2808 10.1188 20.2808 10.2733C20.2808 11.6861 18.3698 12.901 15.657 13.4064C15.963 13.4405 16.2773 13.4576 16.608 13.4576C19.0305 13.4499 21 12.4135 21 11.1373ZM19.437 10.3672C19.437 9.84479 19.0065 9.36583 18.2708 8.97147C18.4433 9.18573 18.5355 9.41706 18.5355 9.65693C18.5355 10.9145 15.9555 11.9338 12.762 11.9338C9.57751 11.9338 6.98851 10.9153 6.98851 9.65693C6.98851 9.49391 7.02976 9.34021 7.11226 9.19427C6.60001 9.54515 6.30976 9.94726 6.30976 10.3758C6.30976 11.7366 9.24676 12.8413 12.87 12.8413C16.4925 12.8413 19.437 11.7195 19.437 10.3672ZM16.575 10.2997C15.2355 11.1901 11.1158 11.5324 9.34576 10.3851C7.95601 9.48615 8.43601 8.05623 4.45726 4.92315C3.93676 4.51172 4.55701 4.07545 4.94551 4.35801C5.33401 4.64058 4.97851 4.70967 5.76451 5.52244C7.35226 7.16661 7.33576 5.68546 7.58401 6.2506C8.11351 7.42279 9.27151 8.60429 9.27151 8.60429C10.4378 9.39222 11.364 9.563 13.0845 8.35588C14.1765 7.59434 13.7295 9.57154 16.4018 8.1424C17.3768 7.61996 17.3363 7.97162 18.3285 6.54093C18.741 5.95095 19.5285 6.99505 18.6345 7.14022C18.279 7.20077 17.6745 7.60288 17.4188 8.23633C17.0468 9.1865 17.2035 9.88827 16.575 10.2997ZM9.14701 7.88545C8.81701 7.73097 8.46901 7.14798 8.33701 6.9182C8.70901 6.54093 8.55976 5.91679 8.34451 5.57368C8.13826 5.23211 7.88176 5.32526 7.60951 5.00932C7.32751 4.69104 7.71601 3.87051 8.07226 4.50396C9.40351 6.87551 10.2803 5.8904 11.3648 5.74523C12.4073 5.60783 13.3328 6.19859 13.6148 4.52957C13.6635 4.25555 13.92 4.19577 13.9448 4.64058C13.9695 5.09471 14.1353 6.19005 14.706 6.32745C15.276 6.47261 15.7395 6.19005 15.8723 6.03634C16.0043 5.88108 16.0785 5.89894 16.137 6.29252C16.1948 6.67833 16.3433 7.21785 17.1458 6.61855C18.792 5.40289 18.3203 4.93169 18.9653 4.61574C19.329 4.43564 19.908 5.01786 19.0733 5.45413C17.8823 6.07904 17.7578 6.84911 17.0055 7.33739C15.7395 8.15948 16.128 7.37155 14.094 7.07191C13.308 6.9609 13.059 7.85983 12.4478 7.60288C11.0498 7.00359 10.0643 7.12314 9.14701 7.88545ZM13.5563 3.49401C13.6058 3.85343 13.6635 3.84489 13.788 3.87051C13.9118 3.90466 14.0693 3.69973 14.0693 3.51109C14.0768 3.31391 13.9868 3.19436 13.8045 3.2029C13.614 3.21067 13.548 3.30537 13.5563 3.49401ZM19.6763 4.136C19.8263 4.28116 20.2222 4.18723 20.3137 4.07545C20.5537 3.8022 20.5613 3.63918 20.4375 3.45054C20.3138 3.27122 20.0573 3.29683 19.8 3.49401C19.5443 3.69041 19.593 4.05837 19.6763 4.136ZM19.569 5.95095C19.4452 6.12173 19.437 6.2506 19.5278 6.34453C19.6268 6.447 19.8255 6.53239 19.9665 6.42216C20.1068 6.30183 20.1068 6.13027 19.9913 5.98511C19.8668 5.82985 19.7017 5.82985 19.569 5.95095ZM7.01401 3.80996C7.20376 3.86973 7.29451 4.05837 7.45201 3.84411C7.53451 3.74087 7.54201 3.5957 7.43476 3.44045C7.36876 3.34729 7.05451 3.27743 6.92251 3.41561C6.78976 3.55301 6.91501 3.7758 7.01326 3.80996H7.01401ZM3.13351 3.68963C3.48076 3.91243 3.70351 4.24623 3.96901 3.94581C4.05976 3.84411 4.16701 3.66402 3.97651 3.3046C3.83776 3.03911 3.38326 2.93664 3.22576 3.03911C3.06076 3.13226 2.86201 3.51885 3.13501 3.68963H3.13351ZM6.33526 5.39358C6.44251 5.51313 6.63301 5.50459 6.74851 5.43627C6.85651 5.36796 6.83926 5.18786 6.73201 5.03416C6.66601 4.93945 6.46726 4.88822 6.33451 5.03416C6.20251 5.17932 6.26176 5.30741 6.33526 5.39358Z" fill="#000001"/>
</g>
</svg>
