<svg width="24" height="24" viewBox="0 0 24 24" fill="none" xmlns="http://www.w3.org/2000/svg">
<g id="size=24">
<g id="Group">
<path id="Vector" d="M22.2523 11.3923L12.8856 1.91161L11.985 1L4.95997 8.11049L1.74768 11.3619C1.41744 11.6961 1.41744 12.2431 1.74768 12.6077L8.17227 19.1105L11.985 23L19.01 15.8895L19.1301 15.768L22.2523 12.6077C22.5826 12.2734 22.5826 11.7266 22.2523 11.3923ZM11.985 15.2514L8.77271 12L11.985 8.74858L15.1973 12L11.985 15.2514Z" fill="#2684FF"/>
<path id="Vector_2" d="M11.985 8.74864C9.88351 6.6216 9.88351 3.15747 11.955 1.0304L4.92993 8.14089L8.74266 12.0001L11.985 8.74864Z" fill="url(#paint0_linear_4403_89)"/>
<path id="Vector_3" d="M15.1974 12L11.9851 15.2514C14.0866 17.3785 14.0866 20.8425 11.9851 23L19.0401 15.8591L15.1974 12Z" fill="url(#paint1_linear_4403_89)"/>
</g>
</g>
<defs>
<linearGradient id="paint0_linear_4403_89" x1="11.412" y1="5.45452" x2="6.87151" y2="9.94039" gradientUnits="userSpaceOnUse">
<stop offset="0.176" stop-color="#0052CC"/>
<stop offset="1" stop-color="#2684FF"/>
</linearGradient>
<linearGradient id="paint1_linear_4403_89" x1="12.5995" y1="18.4984" x2="17.1309" y2="14.0216" gradientUnits="userSpaceOnUse">
<stop offset="0.176" stop-color="#0052CC"/>
<stop offset="1" stop-color="#2684FF"/>
</linearGradient>
</defs>
</svg>
