<svg width="16" height="16" viewBox="0 0 16 16" fill="none" xmlns="http://www.w3.org/2000/svg">
<g id="size=16">
<g id="Path">
<path d="M15.3231 7.558L7.98925 0L0.676912 7.53593C0.441029 7.779 0.441029 8.1768 0.676912 8.442L5.26591 13.1713L7.98925 16L15.3231 8.442C15.559 8.19887 15.559 7.80113 15.3231 7.558ZM7.98925 10.3647L5.6948 8L7.98925 5.63533L10.2838 8L7.98925 10.3647Z" fill="#2684FF"/>
<path d="M7.98925 5.63533C6.48821 4.0884 6.48827 1.5691 7.96791 0.0221354L2.95001 5.1934L5.67339 8.00007L7.98925 5.63533Z" fill="url(#paint0_linear_4403_94)"/>
<path d="M10.2838 8L7.98925 10.3647C9.4903 11.9116 9.4903 14.4309 7.98925 16L13.0286 10.8066L10.2838 8Z" fill="url(#paint1_linear_4403_94)"/>
</g>
</g>
<defs>
<linearGradient id="paint0_linear_4403_94" x1="14.2817" y1="6.45289" x2="8.07608" y2="15.39" gradientUnits="userSpaceOnUse">
<stop offset="0.176" stop-color="#0052CC"/>
<stop offset="1" stop-color="#2684FF"/>
</linearGradient>
<linearGradient id="paint1_linear_4403_94" x1="8.42811" y1="12.7261" x2="11.7224" y2="9.52961" gradientUnits="userSpaceOnUse">
<stop offset="0.176" stop-color="#0052CC"/>
<stop offset="1" stop-color="#2684FF"/>
</linearGradient>
</defs>
</svg>
