<svg width="24" height="24" viewBox="0 0 24 24" fill="none" xmlns="http://www.w3.org/2000/svg">
<g id="size=24">
<g id="Path">
<path d="M22.2523 11.3923L11.985 1L1.74768 11.3619C1.41744 11.6961 1.41744 12.2431 1.74768 12.6077L8.17227 19.1105L11.985 23L22.2523 12.6077C22.5826 12.2734 22.5826 11.7266 22.2523 11.3923ZM11.985 15.2514L8.77271 12L11.985 8.74858L15.1973 12L11.985 15.2514Z" fill="#2684FF"/>
<path d="M11.985 8.74858C9.88349 6.62155 9.88358 3.15752 11.9551 1.03044L4.93001 8.14093L8.74274 12.0001L11.985 8.74858Z" fill="url(#paint0_linear_4403_89)"/>
<path d="M15.1973 12L11.985 15.2514C14.0864 17.3785 14.0864 20.8425 11.985 23L19.04 15.8591L15.1973 12Z" fill="url(#paint1_linear_4403_89)"/>
</g>
</g>
<defs>
<linearGradient id="paint0_linear_4403_89" x1="20.7944" y1="9.87273" x2="12.3164" y2="22.3044" gradientUnits="userSpaceOnUse">
<stop offset="0.176" stop-color="#0052CC"/>
<stop offset="1" stop-color="#2684FF"/>
</linearGradient>
<linearGradient id="paint1_linear_4403_89" x1="12.5995" y1="18.4984" x2="17.1309" y2="14.0216" gradientUnits="userSpaceOnUse">
<stop offset="0.176" stop-color="#0052CC"/>
<stop offset="1" stop-color="#2684FF"/>
</linearGradient>
</defs>
</svg>
