<svg width="24" height="24" viewBox="0 0 24 24" fill="none" xmlns="http://www.w3.org/2000/svg">
<g id="size=24">
<path id="Path" d="M20 19C20.4142 19 20.75 19.3358 20.75 19.75C20.75 20.1642 20.4142 20.5 20 20.5H3.75C3.33579 20.5 3 20.1642 3 19.75C3 19.3358 3.33579 19 3.75 19H20ZM13.25 4C14.5098 4 15.7176 4.5008 16.6084 5.3916C17.4992 6.2824 18 7.49022 18 8.75V14.5244L20.4883 12.2021C20.791 11.9196 21.2652 11.9357 21.5479 12.2383C21.8304 12.541 21.8143 13.0152 21.5117 13.2979L17.7617 16.7979C17.4736 17.0668 17.0264 17.0668 16.7383 16.7979L12.9883 13.2979C12.6857 13.0152 12.6696 12.541 12.9521 12.2383C13.2348 11.9357 13.709 11.9196 14.0117 12.2021L16.5 14.5244V8.75C16.5 7.88805 16.1573 7.06164 15.5479 6.45215C14.9384 5.84266 14.112 5.5 13.25 5.5H11.25C10.8358 5.5 10.5 5.16421 10.5 4.75C10.5 4.33579 10.8358 4 11.25 4H13.25ZM10.25 14C10.6642 14 11 14.3358 11 14.75C11 15.1642 10.6642 15.5 10.25 15.5H3.75C3.33579 15.5 3 15.1642 3 14.75C3 14.3358 3.33579 14 3.75 14H10.25ZM10.25 9C10.6642 9 11 9.33579 11 9.75C11 10.1642 10.6642 10.5 10.25 10.5H3.75C3.33579 10.5 3 10.1642 3 9.75C3 9.33579 3.33579 9 3.75 9H10.25ZM6.25 4C6.66421 4 7 4.33579 7 4.75C7 5.16421 6.66421 5.5 6.25 5.5H3.75C3.33579 5.5 3 5.16421 3 4.75C3 4.33579 3.33579 4 3.75 4H6.25Z" fill="#000001"/>
</g>
</svg>
