<svg width="16" height="16" viewBox="0 0 16 16" fill="none" xmlns="http://www.w3.org/2000/svg">
<g id="size=16">
<g id="Path">
<path d="M9.08951 0.75V4.6505L7.99984 6.144L6.91042 4.65086V6.5065L5.15241 5.9265L2.84229 2.78L4.61483 1.4895L6.91042 4.65086L6.91016 0.75H9.08951Z" fill="#000001"/>
<path d="M6.91016 15.25V11.3499L4.61483 14.5105L2.84229 13.22L5.15241 10.0735L6.91042 9.49353L6.91016 11.3499L7.99984 9.85596L9.08951 11.3495V15.25H6.91016Z" fill="#000001"/>
<path d="M9.08951 11.3495L11.3854 14.5105L13.158 13.22L10.8479 10.0735L14.5672 11.277L15.25 9.2035L11.5306 8.00001L15.25 6.79652L14.5672 4.72302L10.8479 5.92648L13.158 2.78L11.3854 1.4895L9.08951 4.6505L9.08984 6.5065L10.8479 5.92648L9.75806 7.43452L11.5306 8.00001L9.75806 8.5655L10.8479 10.0735L9.08984 9.49353L9.08951 11.3495Z" fill="#000001"/>
<path d="M5.15241 5.9265L1.43287 4.72302L0.75 6.79652L4.4694 8.00001L0.75 9.2035L1.43287 11.277L5.15241 10.0735L6.24198 8.5655L4.4694 8.00001L6.24198 7.43452L5.15241 5.9265Z" fill="#000001"/>
</g>
</g>
</svg>
