<svg width="24" height="24" viewBox="0 0 24 24" fill="none" xmlns="http://www.w3.org/2000/svg">
<g id="size=24">
<path id="Path" d="M15.3281 1C17.3769 1.00002 19.3082 1.79878 20.7568 3.24707C22.4363 4.92975 23.2486 7.336 22.9336 9.69141L22.9326 9.69238C22.6139 12.0472 21.1957 14.1558 19.1328 15.334C17.9738 15.9957 16.6567 16.3467 15.3213 16.3467C14.4461 16.3466 13.5891 16.198 12.7695 15.9092L11.7295 16.9492C11.5036 17.1854 11.1896 17.3184 10.8652 17.3184H9.60059V18.4072C9.59334 18.757 9.45527 19.0829 9.21777 19.334L9.21094 19.3408C8.95197 19.6071 8.59734 19.749 8.24023 19.749H7.15625V20.9688C7.16694 21.2917 7.0465 21.5993 6.8252 21.8359L5.88086 22.7803C5.74025 22.9208 5.54941 23 5.35059 23H1.75C1.3358 23 1.00002 22.6642 1 22.25V18.6338C1.0001 18.435 1.07913 18.2441 1.21973 18.1035L8.08887 11.2363C7.35312 9.14558 7.55475 6.80122 8.66113 4.86719C9.84225 2.80232 11.9508 1.38397 14.3066 1.06836C14.6467 1.02147 14.9909 1 15.3281 1ZM15.3281 2.5C15.0526 2.5 14.7771 2.51791 14.5107 2.55469H14.5068C12.6141 2.80791 10.9134 3.95241 9.96387 5.6123C9.01536 7.27037 8.89264 9.31246 9.63379 11.0762C9.77524 11.4062 9.68189 11.7644 9.45508 11.9912L2.5 18.9453V21.5H5.04004L5.65625 20.8838V19.2832C5.65625 18.7195 6.11261 18.249 6.69043 18.249H8.10059V16.8525C8.10059 16.289 8.55669 15.8184 9.13477 15.8184H10.7393L12.0205 14.5361C12.1552 14.4015 12.3504 14.2979 12.6025 14.2979C12.7129 14.2979 12.8226 14.3195 12.9248 14.3623C13.6899 14.6827 14.4956 14.8466 15.3213 14.8467C16.3949 14.8467 17.4553 14.5641 18.3887 14.0312C20.0449 13.0854 21.1898 11.3851 21.4463 9.49219C21.6995 7.59924 21.0446 5.65954 19.6953 4.30762C18.5285 3.14139 16.9794 2.50002 15.3281 2.5ZM16.002 5C16.398 5.00006 16.7859 5.07893 17.1494 5.23047C18.2693 5.69795 18.9999 6.7835 19 8.00293C19 8.78956 18.6789 9.55862 18.125 10.1172C17.5602 10.6867 16.8022 10.9999 16.002 11C14.7822 11 13.6965 10.2688 13.2295 9.14844L13.2285 9.14551C12.7659 8.02449 13.0168 6.73778 13.8809 5.87695C14.4489 5.30904 15.203 5 16.002 5ZM16.002 6.5C15.5973 6.5 15.2249 6.65287 14.9404 6.9375L14.9395 6.93945C14.5095 7.36762 14.3825 8.00719 14.6152 8.57227C14.8515 9.1378 15.3933 9.5 16.002 9.5C16.4053 9.49988 16.7796 9.34389 17.0605 9.06055C17.3395 8.77905 17.5 8.38824 17.5 8.00293C17.4999 7.39312 17.1373 6.85134 16.5723 6.61523C16.3895 6.5391 16.1975 6.50006 16.002 6.5Z" fill="#000001"/>
</g>
</svg>
