<svg width="16" height="16" viewBox="0 0 16 16" fill="none" xmlns="http://www.w3.org/2000/svg">
<g id="size=16">
<g id="Path">
<path fill-rule="evenodd" clip-rule="evenodd" d="M9.16056 3.65704C9.58654 3.23151 10.1528 3 10.751 3C11.0485 3 11.3395 3.05908 11.612 3.17258C12.4511 3.5224 13 4.33629 13 5.25086C13 5.842 12.7592 6.41721 12.3441 6.83547C11.9201 7.26261 11.3505 7.49738 10.751 7.49738C9.8364 7.49738 9.02252 6.949 8.67253 6.11008L8.67156 6.10773C8.32456 5.26797 8.51206 4.30267 9.16056 3.65704ZM10.2204 4.7185C10.3628 4.5762 10.5468 4.5 10.751 4.5C10.8481 4.5 10.9435 4.51908 11.0353 4.55729C11.3199 4.67606 11.5 4.94665 11.5 5.25086C11.5 5.44046 11.4197 5.6375 11.2794 5.77881C11.1394 5.9199 10.9541 5.99738 10.751 5.99738C10.4467 5.99738 10.1763 5.81755 10.0574 5.53372C9.9409 5.25051 10.005 4.93276 10.2191 4.71983L10.2204 4.7185Z" fill="#000001"/>
<path fill-rule="evenodd" clip-rule="evenodd" d="M10.354 0C10.1065 0 9.85329 0.0155692 9.60207 0.0501868C7.86804 0.282588 6.31732 1.32627 5.44802 2.84602C4.65676 4.22923 4.49408 5.89619 4.98199 7.40085L0.219727 12.1621C0.0790398 12.3027 0 12.4935 0 12.6925V15.25C0 15.6642 0.335786 16 0.75 16H3.29663C3.49552 16 3.68626 15.921 3.8269 15.7804L4.48238 15.125C4.48828 15.1191 4.49409 15.1131 4.4998 15.107C4.69363 14.8998 4.80195 14.6282 4.79346 14.3406V13.7005H5.34077C5.65062 13.7005 5.95859 13.5779 6.18447 13.3457L6.19164 13.3381C6.39604 13.122 6.51598 12.8402 6.52227 12.5368L6.52243 12.5212V11.9811H7.19756C7.48581 11.9811 7.76423 11.8635 7.96545 11.6541L8.60299 11.0167C9.16582 11.1998 9.75188 11.2938 10.3494 11.2938C11.3323 11.2938 12.3009 11.0357 13.1538 10.5488C14.6726 9.6815 15.7161 8.13035 15.9507 6.39709L15.9508 6.39596C16.1827 4.66226 15.5853 2.89224 14.349 1.65366C13.2832 0.58803 11.8613 0 10.354 0ZM9.80571 1.5363C9.98331 1.51177 10.1682 1.5 10.354 1.5C11.4639 1.5 12.5039 1.9303 13.2881 2.71402C14.194 3.62172 14.634 4.9255 14.4641 6.19653C14.2919 7.46799 13.5221 8.6111 12.41 9.24619C11.7829 9.60423 11.0705 9.79379 10.3494 9.79379C9.7948 9.79379 9.25365 9.6839 8.73891 9.46834C8.69292 9.44908 8.64512 9.43445 8.59623 9.42467L8.57339 9.42011C8.52498 9.41043 8.47573 9.40556 8.42636 9.40556C8.21589 9.40556 8.04304 9.4859 7.9204 9.58433C7.89914 9.60139 7.87883 9.6196 7.85956 9.63887L7.01714 10.4811H5.9734C5.44162 10.4811 5.02243 10.9139 5.02243 11.4321V12.2005H4.24442C3.71289 12.2005 3.29346 12.6331 3.29346 13.1515V14.1926L2.98602 14.5H1.5V13.0032L6.35525 8.14897C6.57446 7.92976 6.66613 7.5822 6.52863 7.26074C6.03109 6.07613 6.11336 4.7038 6.75006 3.59079C7.38777 2.47592 8.53147 1.70671 9.8025 1.53674L9.80571 1.5363Z" fill="#000001"/>
</g>
</g>
</svg>
