<svg width="24" height="24" viewBox="0 0 24 24" fill="none" xmlns="http://www.w3.org/2000/svg">
<g id="size=24">
<path id="Path" d="M7.25 17C7.66421 17 8 17.3358 8 17.75C8 18.1642 7.66421 18.5 7.25 18.5H3.75C3.33579 18.5 3 18.1642 3 17.75C3 17.3358 3.33579 17 3.75 17H7.25ZM20.25 17C20.6642 17 21 17.3358 21 17.75C21 18.1642 20.6642 18.5 20.25 18.5H10.75C10.3358 18.5 10 18.1642 10 17.75C10 17.3358 10.3358 17 10.75 17H20.25ZM5.25 13C5.66421 13 6 13.3358 6 13.75C6 14.1642 5.66421 14.5 5.25 14.5H3.75C3.33579 14.5 3 14.1642 3 13.75C3 13.3358 3.33579 13 3.75 13H5.25ZM18.25 13C18.6642 13 19 13.3358 19 13.75C19 14.1642 18.6642 14.5 18.25 14.5H10.75C10.3358 14.5 10 14.1642 10 13.75C10 13.3358 10.3358 13 10.75 13H18.25ZM7.25 9C7.66421 9 8 9.33579 8 9.75C8 10.1642 7.66421 10.5 7.25 10.5H3.75C3.33579 10.5 3 10.1642 3 9.75C3 9.33579 3.33579 9 3.75 9H7.25ZM16.25 9C16.6642 9 17 9.33579 17 9.75C17 10.1642 16.6642 10.5 16.25 10.5H10.75C10.3358 10.5 10 10.1642 10 9.75C10 9.33579 10.3358 9 10.75 9H16.25ZM6.25 5C6.66421 5 7 5.33579 7 5.75C7 6.16421 6.66421 6.5 6.25 6.5H3.75C3.33579 6.5 3 6.16421 3 5.75C3 5.33579 3.33579 5 3.75 5H6.25ZM19.25 5C19.6642 5 20 5.33579 20 5.75C20 6.16421 19.6642 6.5 19.25 6.5H10.75C10.3358 6.5 10 6.16421 10 5.75C10 5.33579 10.3358 5 10.75 5H19.25Z" fill="#000001"/>
</g>
</svg>
