<svg width="24" height="24" viewBox="0 0 24 24" fill="none" xmlns="http://www.w3.org/2000/svg">
<g id="size=24">
<path id="Path" d="M17.8271 1.61159C18.7424 0.696473 20.1662 0.530032 21.2686 1.20827C22.6403 2.05245 22.8901 3.94348 21.7842 5.11452L19.0566 8.00221C19.3369 8.43307 19.5 8.94797 19.5 9.50026C19.4999 11.0189 18.2687 12.2503 16.75 12.2503C15.2313 12.2503 14.0001 11.0189 14 9.50026C14 7.98148 15.2312 6.75026 16.75 6.75026C17.1717 6.75026 17.5716 6.84529 17.9287 7.01491C17.9372 7.00491 17.946 6.99429 17.9551 6.98463L19.416 5.43776C18.595 4.84719 17.5886 4.50026 16.5 4.50026C13.7386 4.50026 11.5 6.73884 11.5 9.50026C11.5 9.9486 11.5885 10.365 11.7256 10.8118C11.7936 11.0333 11.8712 11.2544 11.9551 11.4944L11.96 11.51C12.0443 11.7513 12.1354 12.0105 12.2178 12.2815C12.2983 12.5464 12.2261 12.8348 12.0303 13.0305L6.25 18.8108V20.5003H8.18945L8.75 19.9397V18.5003C8.75 18.086 9.08579 17.7503 9.5 17.7503H10.75V16.5003C10.75 16.086 11.0858 15.7503 11.5 15.7503H13.1895L14.4697 14.47C14.6559 14.2838 14.9262 14.2091 15.1816 14.2727C15.6466 14.3886 16.1275 14.5003 16.5 14.5003C19.2613 14.5003 21.4999 12.2616 21.5 9.50026C21.5 9.08605 21.8358 8.75026 22.25 8.75026C22.6642 8.75026 23 9.08605 23 9.50026C22.9999 13.09 20.0898 16.0003 16.5 16.0003C16.0779 16.0003 15.6179 15.9148 15.2334 15.8274L14.0303 17.0305C13.8896 17.1711 13.6989 17.2503 13.5 17.2503H12.25V18.5003C12.2499 18.9144 11.9141 19.2503 11.5 19.2503H10.25V20.2503C10.2499 20.4491 10.1709 20.6399 10.0303 20.7805L9.03027 21.7805C8.88963 21.9211 8.69885 22.0003 8.5 22.0003H1.75C1.33587 22.0003 1.00014 21.6644 1 21.2503V18.4602C1 18.2619 1.07888 18.0715 1.21875 17.9309L6.38672 12.7385C5.97837 11.857 5.75003 10.8729 5.75 9.83717C5.75 6.07144 8.76194 3.00026 12.5 3.00026H16.4414C16.4506 2.99002 16.4599 2.97983 16.4697 2.96999L17.8271 1.61159ZM12.3438 4.50221C9.52608 4.58621 7.25 6.93298 7.25 9.83717C7.25004 10.8125 7.50667 11.7244 7.9541 12.509C8.12114 12.802 8.07189 13.1704 7.83398 13.4094L2.5 18.7698V20.5003H4.75V18.5003C4.75 18.3014 4.82915 18.1106 4.96973 17.97L10.6445 12.2942C10.612 12.1988 10.5782 12.1024 10.5439 12.0042L10.5352 11.9788C10.4541 11.7468 10.3685 11.5016 10.292 11.2522C10.1315 10.7293 10 10.1544 10 9.50026C10 7.49113 10.9117 5.69453 12.3438 4.50221ZM16.75 8.25026C16.0596 8.25026 15.5 8.8099 15.5 9.50026C15.5001 10.1905 16.0597 10.7503 16.75 10.7503C17.4403 10.7503 17.9999 10.1905 18 9.50026C18 8.8099 17.4404 8.25026 16.75 8.25026ZM20.4824 2.48561C19.9716 2.17141 19.3118 2.24903 18.8877 2.67311L18.3066 3.25417C19.0938 3.48153 19.8197 3.85424 20.4531 4.3401L20.6934 4.08522C21.1461 3.60582 21.044 2.83121 20.4824 2.48561Z" fill="#000001"/>
</g>
</svg>
