<svg width="16" height="16" viewBox="0 0 16 16" fill="none" xmlns="http://www.w3.org/2000/svg">
<g id="size=16">
<path id="Path" fill-rule="evenodd" clip-rule="evenodd" d="M10.0273 1.14041C10.759 0.225861 11.9962 -0.114573 13.0928 0.29666C14.8724 0.964295 15.4279 3.20997 14.165 4.63064L12.3018 6.72732C12.429 6.99995 12.5 7.30409 12.5 7.62478C12.5 8.79839 11.5486 9.74978 10.375 9.74978C9.20139 9.74978 8.25 8.79839 8.25 7.62478C8.25012 6.45128 9.20147 5.49978 10.375 5.49978C10.6781 5.49978 10.9666 5.56315 11.2275 5.67752L11.8418 4.98709C11.3588 4.67869 10.7853 4.49986 10.1699 4.49978C8.45117 4.49978 7.05762 5.89334 7.05762 7.61209C7.05762 8.18017 7.20929 8.71078 7.47363 9.16775C7.64093 9.45723 7.59617 9.82245 7.36426 10.0633L4 13.5525V14.4998H5.25V13.4998C5.25012 13.0857 5.58586 12.7498 6 12.7498H6.89453L8.46289 10.8328C8.6554 10.5974 8.97081 10.5011 9.26172 10.5896C9.54803 10.6768 9.85295 10.7244 10.1699 10.7244C11.8885 10.7242 13.2812 9.3307 13.2812 7.61209C13.2812 7.198 13.6172 6.86228 14.0312 6.86209C14.4455 6.86209 14.7812 7.19788 14.7812 7.61209C14.7812 10.1591 12.7169 12.2242 10.1699 12.2244C9.88203 12.2244 9.59929 12.198 9.3252 12.1472L7.83105 13.9744C7.68861 14.1486 7.47502 14.2498 7.25 14.2498H6.75V15.2498C6.75 15.664 6.41421 15.9998 6 15.9998H3.25C2.83579 15.9998 2.5 15.664 2.5 15.2498V13.9998H0.75C0.335786 13.9998 0 13.664 0 13.2498V11.2498C5.71783e-05 11.0557 0.0752328 10.869 0.209961 10.7293L3.41797 7.40213C3.18563 6.85085 3.05762 6.24555 3.05762 5.61209C3.05762 3.06491 5.12275 0.999785 7.66992 0.999785C8.41543 0.999845 9.12084 1.17787 9.74512 1.49295L10.0273 1.14041ZM7.66992 2.49978C5.95117 2.49978 4.55762 3.89334 4.55762 5.61209C4.55762 6.07214 4.65727 6.50723 4.83496 6.89822C5.03644 7.34196 4.99915 7.92331 4.60254 8.33475L1.5 11.5525V12.4998H2.93164L5.91797 9.40213C5.68576 8.85116 5.55762 8.24596 5.55762 7.61209C5.55762 5.30393 7.25328 3.39202 9.4668 3.0535C9.42657 3.03672 9.38658 3.01636 9.34863 2.99197C8.86467 2.68103 8.28967 2.49986 7.66992 2.49978ZM10.375 6.99978C10.0299 6.99978 9.75012 7.27971 9.75 7.62478C9.75 7.96996 10.0298 8.24978 10.375 8.24978C10.7202 8.24978 11 7.96996 11 7.62478C10.9999 7.27971 10.7201 6.99978 10.375 6.99978ZM12.5654 1.70096C12.0765 1.51774 11.5255 1.66929 11.1992 2.07693L10.4531 3.00857C11.3423 3.06267 12.1642 3.36908 12.8467 3.85623L13.0439 3.63357C13.6072 2.99991 13.3593 1.99865 12.5654 1.70096Z" fill="#000001"/>
</g>
</svg>
