<svg width="24" height="24" viewBox="0 0 24 24" fill="none" xmlns="http://www.w3.org/2000/svg">
<g id="size=24">
<path id="Path" fill-rule="evenodd" clip-rule="evenodd" d="M17.8271 1.61143C18.7424 0.696312 20.1662 0.529871 21.2686 1.20811C22.6403 2.05229 22.8901 3.94332 21.7842 5.11436L19.0566 8.00205C19.3369 8.43291 19.5 8.94781 19.5 9.5001C19.4999 11.0188 18.2687 12.2501 16.75 12.2501C15.2313 12.2501 14.0001 11.0188 14 9.5001C14 7.98132 15.2312 6.7501 16.75 6.7501C17.1717 6.7501 17.5716 6.84513 17.9287 7.01475C17.9372 7.00475 17.946 6.99413 17.9551 6.98447L19.416 5.4376C18.595 4.84703 17.5886 4.5001 16.5 4.5001C13.7386 4.5001 11.5 6.73868 11.5 9.5001C11.5 9.94844 11.5885 10.3648 11.7256 10.8116C11.7936 11.0331 11.8712 11.2542 11.9551 11.4942L11.96 11.5099C12.0443 11.7512 12.1354 12.0103 12.2178 12.2814C12.2983 12.5463 12.2261 12.8346 12.0303 13.0304L6.25 18.8106V20.5001H8.18945L8.75 19.9396V18.5001C8.75 18.0859 9.08579 17.7501 9.5 17.7501H10.75V16.5001C10.75 16.0859 11.0858 15.7501 11.5 15.7501H13.1895L14.4697 14.4698C14.6559 14.2837 14.9262 14.2089 15.1816 14.2726C15.6466 14.3884 16.1275 14.5001 16.5 14.5001C19.2613 14.5001 21.4999 12.2614 21.5 9.5001C21.5 9.08589 21.8358 8.7501 22.25 8.7501C22.6642 8.7501 23 9.08589 23 9.5001C22.9999 13.0898 20.0898 16.0001 16.5 16.0001C16.0779 16.0001 15.6179 15.9146 15.2334 15.8272L14.0303 17.0304C13.8896 17.1709 13.6989 17.2501 13.5 17.2501H12.25V18.5001C12.2499 18.9142 11.9141 19.2501 11.5 19.2501H10.25V20.2501C10.2499 20.4489 10.1709 20.6398 10.0303 20.7804L9.03027 21.7804C8.88963 21.9209 8.69885 22.0001 8.5 22.0001H1.75C1.33587 22.0001 1.00014 21.6642 1 21.2501V18.4601C1 18.2618 1.07888 18.0713 1.21875 17.9308L6.38672 12.7384C5.97837 11.8569 5.75003 10.8727 5.75 9.83701C5.75 6.07128 8.76194 3.0001 12.5 3.0001H16.4414C16.4506 2.98986 16.4599 2.97967 16.4697 2.96983L17.8271 1.61143ZM12.3438 4.50205C9.52608 4.58605 7.25 6.93282 7.25 9.83701C7.25004 10.8124 7.50667 11.7242 7.9541 12.5089C8.12114 12.8019 8.07189 13.1702 7.83398 13.4093L2.5 18.7696V20.5001H4.75V18.5001C4.75 18.3012 4.82916 18.1105 4.96973 17.9698L10.6445 12.294C10.612 12.1986 10.5782 12.1022 10.5439 12.004L10.5352 11.9786C10.4541 11.7467 10.3685 11.5014 10.292 11.2521C10.1315 10.7292 10 10.1542 10 9.5001C10 7.49097 10.9117 5.69437 12.3438 4.50205ZM16.75 8.2501C16.0596 8.2501 15.5 8.80974 15.5 9.5001C15.5001 10.1903 16.0597 10.7501 16.75 10.7501C17.4403 10.7501 17.9999 10.1903 18 9.5001C18 8.80974 17.4404 8.2501 16.75 8.2501ZM20.4824 2.48545C19.9716 2.17125 19.3118 2.24887 18.8877 2.67295L18.3066 3.25401C19.0938 3.48137 19.8197 3.85408 20.4531 4.33994L20.6934 4.08506C21.1461 3.60566 21.044 2.83105 20.4824 2.48545Z" fill="#000001"/>
</g>
</svg>
