<svg width="16" height="16" viewBox="0 0 16 16" fill="none" xmlns="http://www.w3.org/2000/svg">
<g id="size=16">
<g id="Group">
<path id="Vector" d="M4.5 14.5685C4.71432 14.8466 5.03883 15 5.37428 15H10.625C10.9605 15 11.2857 14.8345 11.5 14.566L14.7576 10.3877C14.9719 10.1096 15.0464 9.75479 14.9719 9.40959L13.8071 4.20274C13.7326 3.85753 13.509 3.57945 13.2015 3.42603L8.48652 1.11507C8.33743 1.03836 8.1697 1 8.00198 1C7.83425 1 7.66653 1.03836 7.51744 1.11507L2.80249 3.43562C2.49499 3.58904 2.27136 3.86712 2.19682 4.21233L1.03206 9.41918C0.948194 9.76438 1.03206 10.1192 1.24637 10.3973L4.5 14.5685Z" fill="#326DE6"/>
<path id="Vector_2" fill-rule="evenodd" clip-rule="evenodd" d="M12.7412 9.12832C12.8393 9.13061 12.9373 9.13848 13.0345 9.15188C13.0509 9.1549 13.0722 9.16022 13.0922 9.16522C13.1034 9.16801 13.1141 9.1707 13.1234 9.17284C13.1658 9.17845 13.2065 9.1928 13.243 9.21498C13.2794 9.23717 13.3109 9.26669 13.3352 9.30167C13.3596 9.33665 13.3764 9.37632 13.3845 9.41814C13.3926 9.45995 13.3919 9.503 13.3824 9.54452C13.3729 9.58605 13.3548 9.62514 13.3293 9.65929C13.3038 9.69345 13.2714 9.72192 13.2342 9.74288C13.197 9.76384 13.1558 9.77684 13.1133 9.78104C13.0708 9.78524 13.0279 9.78055 12.9873 9.76727L12.9829 9.76662L12.9801 9.76565L12.9769 9.76459C12.9674 9.76251 12.9571 9.76043 12.9466 9.75835C12.9292 9.75487 12.9117 9.75137 12.8979 9.74775C12.8044 9.71784 12.7127 9.68255 12.6233 9.64208C12.451 9.57277 12.2723 9.52037 12.0898 9.4856C12.0267 9.48365 11.9653 9.5064 11.9187 9.54899C11.8963 9.54444 11.8274 9.53244 11.7878 9.52615C11.492 10.4542 10.8644 11.2415 10.0243 11.7382C10.0387 11.7803 10.0557 11.8214 10.0753 11.8613C10.0441 11.9159 10.0356 11.9806 10.0518 12.0413C10.1262 12.2111 10.217 12.3733 10.323 12.5256C10.3824 12.6034 10.4372 12.6846 10.4871 12.7687C10.4954 12.7844 10.5056 12.806 10.515 12.8257L10.527 12.8508C10.549 12.8875 10.5631 12.9284 10.5683 12.9708C10.5735 13.0133 10.5698 13.0564 10.5573 13.0973C10.5448 13.1382 10.5239 13.176 10.4959 13.2084C10.4679 13.2408 10.4334 13.267 10.3946 13.2852C10.3558 13.3035 10.3136 13.3135 10.2708 13.3145C10.2279 13.3156 10.1853 13.3077 10.1456 13.2913C10.106 13.275 10.0703 13.2505 10.0407 13.2195C10.0111 13.1886 9.98834 13.1518 9.97387 13.1115L9.96375 13.091C9.95396 13.0713 9.94332 13.0499 9.93603 13.0333C9.90108 12.9419 9.87143 12.8486 9.84723 12.7537C9.79414 12.5764 9.72378 12.4046 9.63716 12.2409C9.59953 12.1901 9.54344 12.1561 9.48095 12.1462C9.47609 12.1377 9.46432 12.1164 9.45138 12.0931C9.43887 12.0704 9.42526 12.0458 9.41571 12.0289C8.50575 12.3725 7.50076 12.3699 6.59256 12.0217L6.52319 12.1467C6.47377 12.1544 6.42781 12.1768 6.39133 12.2109C6.28701 12.3816 6.20727 12.5661 6.15444 12.7589C6.13047 12.8538 6.10099 12.9471 6.06615 13.0385C6.05969 13.0533 6.05033 13.0719 6.04137 13.0897C6.03676 13.0989 6.03225 13.1079 6.02831 13.116V13.1167L6.0278 13.1173C6.0133 13.1575 5.99052 13.1943 5.96091 13.2252C5.9313 13.2562 5.89553 13.2806 5.85589 13.2969C5.81625 13.3132 5.77362 13.3211 5.73075 13.32C5.68789 13.3189 5.64573 13.3088 5.60698 13.2905C5.56824 13.2722 5.53377 13.246 5.50581 13.2135C5.47784 13.1811 5.45698 13.1432 5.44458 13.1023C5.43218 13.0614 5.42852 13.0183 5.43382 12.9759C5.43912 12.9334 5.45327 12.8926 5.47536 12.8559C5.47964 12.8471 5.48443 12.8368 5.48938 12.8261C5.49792 12.8077 5.50694 12.7882 5.51465 12.7737C5.56458 12.6894 5.61935 12.608 5.67869 12.53C5.78662 12.3738 5.87934 12.2076 5.9556 12.0338C5.96369 11.9749 5.95419 11.9149 5.92828 11.8613L5.98401 11.7283C5.14664 11.2356 4.51906 10.4544 4.21964 9.532L4.08626 9.55476C4.03459 9.51814 3.97367 9.49668 3.9104 9.49282C3.72794 9.52762 3.54931 9.58003 3.37703 9.6493C3.28762 9.68943 3.19599 9.72445 3.10259 9.75418C3.08851 9.75799 3.07058 9.76179 3.05291 9.76554C3.04274 9.7677 3.03265 9.76985 3.02343 9.77196L3.02038 9.77289L3.01763 9.77377L3.01306 9.77449C2.97246 9.7878 2.92952 9.79251 2.88699 9.78832C2.84446 9.78413 2.80327 9.77113 2.76606 9.75016C2.72885 9.72919 2.69645 9.7007 2.67092 9.66653C2.64539 9.63235 2.62729 9.59324 2.61779 9.55169C2.60829 9.51014 2.60759 9.46707 2.61574 9.42523C2.6239 9.3834 2.64072 9.34373 2.66513 9.30875C2.68954 9.27377 2.72101 9.24425 2.75752 9.22209C2.79403 9.19994 2.83477 9.18562 2.87715 9.18007L2.8815 9.17877L2.88418 9.17819L2.88986 9.17678C2.91446 9.17065 2.9441 9.16328 2.96588 9.15925C3.06318 9.14578 3.16118 9.13792 3.25939 9.13569C3.44468 9.1235 3.62834 9.09331 3.80776 9.04556C3.86091 9.01185 3.90583 8.96674 3.93926 8.91351L4.06734 8.87635C3.92831 7.91372 4.15059 6.93378 4.69154 6.12449L4.59361 6.03718C4.58998 5.97396 4.56866 5.91301 4.53207 5.86125C4.39119 5.74044 4.23883 5.63364 4.07713 5.54236C3.98981 5.49791 3.90512 5.44849 3.82349 5.39434C3.80932 5.38402 3.79161 5.36941 3.77513 5.3558L3.76028 5.3436L3.75557 5.34027C3.68598 5.29043 3.63901 5.21515 3.62491 5.13089C3.61081 5.04662 3.63073 4.96022 3.68033 4.89055C3.70961 4.85476 3.74695 4.82636 3.7893 4.80765C3.83166 4.78894 3.87784 4.78044 3.92411 4.78286C4.00197 4.78619 4.07671 4.81431 4.13737 4.86309L4.159 4.8801C4.17534 4.8929 4.19265 4.90644 4.20536 4.9173C4.27651 4.98446 4.34372 5.05566 4.40667 5.13052C4.5317 5.26746 4.66984 5.39191 4.81913 5.5021C4.87505 5.53141 4.94025 5.53772 5.00078 5.51967C5.03732 5.54622 5.07419 5.57228 5.1114 5.59787C5.64895 5.02815 6.345 4.63162 7.1102 4.45919C7.29235 4.41806 7.47717 4.38973 7.6633 4.37441L7.67055 4.24532C7.71804 4.20325 7.75249 4.14854 7.76985 4.08761C7.77653 3.90254 7.76512 3.71726 7.73578 3.53439C7.71633 3.43853 7.70239 3.34164 7.69403 3.24419C7.69348 3.22892 7.6939 3.20959 7.6943 3.19076L7.69476 3.16613L7.6944 3.16211C7.69421 3.16062 7.69403 3.15913 7.69403 3.1576C7.68969 3.11496 7.69437 3.07189 7.70776 3.03116C7.72115 2.99043 7.74296 2.95296 7.77177 2.92115C7.80059 2.88935 7.83576 2.86392 7.87504 2.84651C7.91432 2.82909 7.95683 2.82009 7.99981 2.82007C8.0428 2.82005 8.08531 2.82901 8.1246 2.84639C8.1639 2.86376 8.1991 2.88916 8.22794 2.92093C8.25679 2.95271 8.27863 2.99017 8.29206 3.03088C8.30549 3.0716 8.3102 3.11467 8.30591 3.15731C8.30591 3.16712 8.30611 3.17818 8.30631 3.18947C8.30665 3.20871 8.30701 3.22862 8.30642 3.24411C8.29814 3.34149 8.28422 3.43832 8.26473 3.5341C8.23522 3.71699 8.22362 3.90232 8.23009 4.08746C8.24214 4.14933 8.27796 4.20405 8.3299 4.23997L8.33027 4.24747C8.33164 4.2756 8.33473 4.33938 8.3373 4.37614C9.30444 4.46384 10.2068 4.89858 10.8767 5.59961L10.9931 5.5167C11.0557 5.5274 11.1199 5.52044 11.1787 5.49661C11.328 5.38621 11.4661 5.26159 11.5912 5.12452C11.6544 5.04961 11.7219 4.97841 11.7933 4.9113C11.8072 4.89928 11.8267 4.88419 11.8443 4.87048L11.8612 4.85731C11.8919 4.82716 11.9286 4.80379 11.969 4.78871C12.0094 4.77362 12.0524 4.76717 12.0955 4.76976C12.1385 4.77236 12.1805 4.78394 12.2187 4.80376C12.257 4.82358 12.2906 4.85119 12.3174 4.88481C12.3443 4.91842 12.3638 4.95729 12.3746 4.99889C12.3854 5.04049 12.3873 5.08389 12.3802 5.12628C12.3731 5.16867 12.3572 5.2091 12.3334 5.24494C12.3096 5.28079 12.2785 5.31125 12.2422 5.33435C12.2347 5.34033 12.2264 5.34719 12.2178 5.3542C12.2029 5.3665 12.1874 5.37926 12.1749 5.38855C12.0931 5.4427 12.0082 5.49207 11.9206 5.53644C11.759 5.62771 11.6066 5.73447 11.4656 5.85519C11.4246 5.90309 11.404 5.96508 11.4082 6.02793C11.3997 6.03579 11.3801 6.05319 11.3588 6.07218C11.338 6.09072 11.3155 6.11078 11.2998 6.12493C11.8423 6.93133 12.0691 7.90824 11.937 8.87029L12.0605 8.90614C12.0914 8.96159 12.1371 9.00742 12.1925 9.03855C12.372 9.08617 12.5558 9.11624 12.7412 9.12832ZM7.2907 5.24038C7.39848 5.2162 7.50743 5.19752 7.61712 5.18444L7.52614 6.78447L7.51947 6.78765C7.51741 6.83624 7.50218 6.88336 7.47539 6.92399C7.44861 6.96463 7.41126 6.99726 7.36735 7.01841C7.32343 7.03956 7.27459 7.04844 7.22601 7.04411C7.17744 7.03977 7.13095 7.02238 7.0915 6.99379L7.08896 6.99523L5.773 6.06486C6.19194 5.65436 6.71762 5.36879 7.2907 5.24038ZM8.90916 6.99003L10.2166 6.06581C9.71905 5.57969 9.075 5.27003 8.38369 5.18444L8.47452 6.78201L8.47597 6.78274C8.47819 6.83131 8.49358 6.87838 8.52049 6.91893C8.5474 6.95949 8.58482 6.99201 8.62878 7.01305C8.67275 7.03409 8.72161 7.04286 8.77018 7.03843C8.81874 7.03399 8.86519 7.01652 8.90459 6.98786L8.90916 6.99003ZM11.1566 8.64608L9.60882 8.20156L9.60737 8.19506C9.56037 8.18212 9.51776 8.15672 9.48407 8.12158C9.45038 8.08644 9.42686 8.04286 9.416 7.99546C9.40515 7.94807 9.40737 7.89862 9.42243 7.85239C9.43749 7.80615 9.46482 7.76483 9.50153 7.73284L9.50095 7.72973L10.6957 6.66355C11.0616 7.25682 11.2234 7.95282 11.1566 8.64608ZM9.09567 9.50005L9.71385 10.9893C10.3053 10.613 10.7541 10.0509 10.9893 9.3917L9.39621 9.12326L9.39353 9.12659C9.37312 9.1226 9.35231 9.12107 9.33154 9.12203C9.29566 9.12393 9.26053 9.13302 9.22825 9.14877C9.16564 9.17892 9.11711 9.23199 9.09277 9.29693C9.06842 9.36187 9.07014 9.43366 9.09755 9.49737L9.09567 9.50005ZM8.71054 11.405C8.13803 11.5359 7.54027 11.5053 6.98422 11.3166L7.76079 9.91645H7.7621C7.78519 9.87366 7.81946 9.83791 7.86128 9.81297C7.90309 9.78804 7.9509 9.77485 7.99962 9.7748C8.04835 9.77476 8.09618 9.78786 8.13804 9.81272C8.1799 9.83758 8.21424 9.87327 8.23741 9.91601H8.2432L9.02173 11.3185C8.92068 11.3521 8.81695 11.3809 8.71054 11.405ZM6.29254 10.9834L6.90441 9.50915L6.89985 9.50323C6.9173 9.46264 6.92445 9.4184 6.92067 9.3744C6.9169 9.3304 6.90232 9.28801 6.87821 9.25097C6.85411 9.21392 6.82123 9.18337 6.78247 9.16201C6.74372 9.14064 6.70028 9.12912 6.656 9.12847C6.63825 9.12826 6.62052 9.12983 6.60308 9.13316L6.6004 9.12962L5.02137 9.39705C5.25841 10.0509 5.70524 10.6086 6.29254 10.9834ZM5.29581 6.66283L6.49724 7.73428L6.49594 7.74079C6.53276 7.77274 6.5602 7.81405 6.57532 7.86033C6.59045 7.9066 6.59268 7.9561 6.58181 8.00355C6.57093 8.051 6.54734 8.09461 6.51355 8.12974C6.47976 8.16486 6.43705 8.19019 6.38996 8.20301L6.38873 8.20821L4.84871 8.65128C4.77197 7.95736 4.92929 7.25765 5.29581 6.66283ZM8.24567 7.81697H7.75361L7.44692 8.19766L7.55681 8.67347L8 8.88597L8.44189 8.6739L8.55157 8.19831L8.24567 7.81697Z" fill="white"/>
</g>
</g>
</svg>
