<svg width="16" height="16" viewBox="0 0 16 16" fill="none" xmlns="http://www.w3.org/2000/svg">
<g id="size=16">
<g id="Path">
<path d="M4.5 14.5685C4.71432 14.8466 5.03883 15 5.37428 15H10.625C10.9605 15 11.2857 14.8345 11.5 14.566L14.7576 10.3877C14.9719 10.1096 15.0464 9.75479 14.9719 9.40959L13.8071 4.20274C13.7326 3.85753 13.509 3.57945 13.2015 3.42603L8.48652 1.11507C8.33743 1.03836 8.1697 1 8.00198 1C7.83425 1 7.66653 1.03836 7.51744 1.11507L2.80249 3.43562C2.49499 3.58904 2.27136 3.86712 2.19682 4.21233L1.03206 9.41918C0.948194 9.76438 1.03206 10.1192 1.24637 10.3973L4.5 14.5685Z" fill="#326DE6"/>
<path fill-rule="evenodd" clip-rule="evenodd" d="M12.7411 9.12826C12.8392 9.13055 12.9371 9.13842 13.0344 9.15182C13.0508 9.15484 13.0721 9.16015 13.0921 9.16516C13.1032 9.16794 13.114 9.17063 13.1233 9.17278C13.1657 9.17838 13.2064 9.19274 13.2428 9.21492C13.2793 9.2371 13.3107 9.26663 13.3351 9.30161C13.3595 9.33659 13.3763 9.37626 13.3844 9.41807C13.3925 9.45989 13.3918 9.50293 13.3823 9.54446C13.3728 9.58598 13.3547 9.62507 13.3292 9.65923C13.3036 9.69338 13.2712 9.72185 13.2341 9.74282C13.1969 9.76378 13.1557 9.77678 13.1132 9.78098C13.0707 9.78518 13.0278 9.78049 12.9872 9.7672L12.9828 9.76655L12.98 9.76558L12.9768 9.76453C12.9673 9.76245 12.9569 9.76037 12.9465 9.75829C12.9291 9.75481 12.9116 9.75131 12.8978 9.74769C12.8043 9.71777 12.7126 9.68249 12.6232 9.64202C12.4509 9.57271 12.2722 9.5203 12.0897 9.48554C12.0266 9.48358 11.9652 9.50633 11.9186 9.54892C11.8962 9.54437 11.8273 9.53237 11.7877 9.52608C11.4919 10.4542 10.8643 11.2415 10.0242 11.7382C10.0386 11.7802 10.0556 11.8213 10.0752 11.8613C10.044 11.9159 10.0355 11.9805 10.0517 12.0412C10.1261 12.2111 10.2169 12.3733 10.3229 12.5255C10.3823 12.6033 10.437 12.6845 10.487 12.7686C10.4953 12.7844 10.5055 12.8059 10.5149 12.8257L10.5268 12.8507C10.5489 12.8874 10.5629 12.9283 10.5682 12.9708C10.5734 13.0132 10.5697 13.0563 10.5572 13.0972C10.5447 13.1381 10.5238 13.176 10.4958 13.2084C10.4677 13.2407 10.4332 13.2669 10.3945 13.2852C10.3557 13.3034 10.3135 13.3134 10.2706 13.3145C10.2278 13.3155 10.1851 13.3076 10.1455 13.2912C10.1059 13.2749 10.0701 13.2504 10.0406 13.2195C10.011 13.1885 9.98822 13.1517 9.97376 13.1115L9.96364 13.091C9.95385 13.0712 9.9432 13.0498 9.93592 13.0333C9.90096 12.9418 9.87131 12.8485 9.84712 12.7537C9.79402 12.5763 9.72366 12.4045 9.63705 12.2408C9.59941 12.1901 9.54333 12.1561 9.48083 12.1461C9.47597 12.1376 9.46421 12.1164 9.45127 12.093C9.43876 12.0704 9.42514 12.0458 9.41559 12.0288C8.50564 12.3724 7.50064 12.3699 6.59245 12.0216L6.52308 12.1467C6.47365 12.1544 6.42769 12.1767 6.39122 12.2109C6.28689 12.3816 6.20715 12.566 6.15433 12.7589C6.13035 12.8537 6.10087 12.9471 6.06603 13.0385C6.05957 13.0532 6.05021 13.0718 6.04126 13.0897C6.03664 13.0989 6.03214 13.1078 6.02819 13.1159L6.02769 13.1172C6.01319 13.1575 5.9904 13.1943 5.96079 13.2252C5.93119 13.2561 5.89541 13.2805 5.85577 13.2968C5.81613 13.3131 5.77351 13.321 5.73064 13.3199C5.68777 13.3188 5.64561 13.3088 5.60687 13.2904C5.56813 13.2721 5.53366 13.2459 5.50569 13.2135C5.47772 13.1811 5.45686 13.1432 5.44447 13.1022C5.43207 13.0613 5.4284 13.0182 5.4337 12.9758C5.439 12.9334 5.45316 12.8925 5.47525 12.8559C5.47953 12.8471 5.48432 12.8367 5.48926 12.8261C5.4978 12.8076 5.50682 12.7882 5.51454 12.7736C5.56447 12.6893 5.61924 12.6079 5.67858 12.5299C5.78651 12.3737 5.87923 12.2076 5.95548 12.0338C5.96358 11.9748 5.95407 11.9148 5.92816 11.8613L5.9839 11.7283C5.14653 11.2355 4.51894 10.4543 4.21952 9.53193L4.08614 9.5547C4.03448 9.51807 3.97356 9.49662 3.91028 9.49276C3.72783 9.52756 3.54919 9.57996 3.37691 9.64924C3.2875 9.68937 3.19588 9.72439 3.10247 9.75412C3.0884 9.75792 3.07047 9.76173 3.0528 9.76548C3.04262 9.76764 3.03253 9.76978 3.02331 9.7719L3.02027 9.77283L3.01751 9.7737L3.01295 9.77443C2.97235 9.78773 2.92941 9.79244 2.88687 9.78825C2.84434 9.78406 2.80315 9.77107 2.76594 9.7501C2.72874 9.72912 2.69633 9.70064 2.6708 9.66646C2.64527 9.63229 2.62717 9.59317 2.61767 9.55162C2.60817 9.51007 2.60748 9.467 2.61563 9.42517C2.62378 9.38334 2.6406 9.34366 2.66501 9.30868C2.68943 9.2737 2.7209 9.24419 2.7574 9.22203C2.79391 9.19987 2.83465 9.18556 2.87703 9.18001L2.88138 9.17871L2.88407 9.17813L2.88975 9.17671C2.91435 9.17059 2.94398 9.16321 2.96576 9.15919C3.06306 9.14572 3.16106 9.13785 3.25927 9.13563C3.44457 9.12343 3.62823 9.09325 3.80764 9.0455C3.86079 9.01179 3.90572 8.96667 3.93914 8.91344L4.06723 8.87629C3.92819 7.91365 4.15047 6.93372 4.69143 6.12443L4.5935 6.03712C4.58987 5.97389 4.56854 5.91295 4.53195 5.86119C4.39108 5.74038 4.23871 5.63357 4.07701 5.5423C3.98969 5.49785 3.905 5.44842 3.82337 5.39427C3.80921 5.38395 3.7915 5.36934 3.77501 5.35574L3.76017 5.34353L3.75545 5.34021C3.68587 5.29037 3.63889 5.21509 3.62479 5.13082C3.6107 5.04656 3.63062 4.96015 3.68021 4.89049C3.7095 4.8547 3.74683 4.82629 3.78919 4.80758C3.83154 4.78887 3.87773 4.78038 3.92399 4.78279C4.00185 4.78613 4.07659 4.81424 4.13725 4.86302L4.15888 4.88004C4.17523 4.89283 4.19253 4.90638 4.20525 4.91723C4.27639 4.9844 4.3436 5.05559 4.40655 5.13045C4.53159 5.2674 4.66973 5.39185 4.81901 5.50204C4.87493 5.53135 4.94014 5.53765 5.00067 5.5196C5.0372 5.54615 5.07407 5.57222 5.11128 5.59781C5.64883 5.02808 6.34489 4.63155 7.11009 4.45913C7.29223 4.418 7.47705 4.38967 7.66318 4.37435L7.67043 4.24526C7.71792 4.20319 7.75237 4.14847 7.76974 4.08755C7.77641 3.90247 7.765 3.71719 7.73567 3.53433C7.71621 3.43847 7.70227 3.34158 7.69392 3.24413C7.69336 3.22886 7.69378 3.20953 7.69419 3.1907L7.69464 3.16607L7.69428 3.16205C7.6941 3.16056 7.69392 3.15907 7.69392 3.15754C7.68958 3.1149 7.69425 3.07182 7.70764 3.0311C7.72103 2.99037 7.74284 2.95289 7.77166 2.92109C7.80047 2.88928 7.83565 2.86385 7.87493 2.84644C7.91421 2.82903 7.95671 2.82002 7.9997 2.82C8.04268 2.81998 8.08519 2.82895 8.12448 2.84632C8.16378 2.8637 8.19899 2.88909 8.22783 2.92087C8.25667 2.95265 8.27851 2.9901 8.29194 3.03082C8.30537 3.07153 8.31009 3.1146 8.30579 3.15725C8.30579 3.16705 8.30599 3.17811 8.30619 3.1894C8.30654 3.20865 8.3069 3.22856 8.3063 3.24405C8.29802 3.34143 8.2841 3.43825 8.26462 3.53403C8.23511 3.71693 8.2235 3.90226 8.22997 4.0874C8.24203 4.14926 8.27785 4.20399 8.32979 4.2399L8.33015 4.2474C8.33152 4.27554 8.33462 4.33932 8.33718 4.37608C9.30433 4.46378 10.2067 4.89852 10.8766 5.59954L10.993 5.51664C11.0556 5.52734 11.1198 5.52038 11.1786 5.49655C11.3279 5.38615 11.466 5.26153 11.5911 5.12446C11.6543 5.04954 11.7218 4.97835 11.7932 4.91124C11.8071 4.89922 11.8265 4.88413 11.8442 4.87042L11.8611 4.85724C11.8918 4.8271 11.9285 4.80372 11.9689 4.78864C12.0092 4.77356 12.0523 4.76711 12.0953 4.7697C12.1384 4.77229 12.1804 4.78387 12.2186 4.80369C12.2568 4.82351 12.2905 4.85113 12.3173 4.88474C12.3442 4.91836 12.3636 4.95723 12.3745 4.99883C12.3853 5.04043 12.3872 5.08383 12.3801 5.12622C12.373 5.16861 12.357 5.20903 12.3333 5.24488C12.3095 5.28072 12.2784 5.31118 12.2421 5.33428C12.2346 5.34027 12.2262 5.34713 12.2177 5.35414C12.2028 5.36644 12.1873 5.37919 12.1747 5.38849C12.0929 5.44263 12.0081 5.49201 11.9205 5.53637C11.7588 5.62765 11.6064 5.7344 11.4655 5.85512C11.4245 5.90302 11.4039 5.96502 11.4081 6.02787C11.3996 6.03573 11.38 6.05313 11.3587 6.07211C11.3379 6.09066 11.3153 6.11072 11.2997 6.12486C11.8422 6.93127 12.0689 7.90817 11.9369 8.87022L12.0604 8.90607C12.0913 8.96152 12.1369 9.00736 12.1923 9.03849C12.3719 9.08611 12.5557 9.11617 12.7411 9.12826ZM7.29059 5.24032C7.39836 5.21613 7.50731 5.19746 7.617 5.18438L7.52603 6.78441L7.51936 6.78759C7.5173 6.83617 7.50207 6.88329 7.47528 6.92393C7.44849 6.96456 7.41115 6.99719 7.36723 7.01835C7.32332 7.0395 7.27447 7.04838 7.2259 7.04404C7.17732 7.03971 7.13083 7.02232 7.09138 6.99372L7.08885 6.99517L5.77289 6.0648C6.19183 5.65429 6.7175 5.36872 7.29059 5.24032ZM8.90904 6.98997L10.2165 6.06574C9.71893 5.57963 9.07489 5.26997 8.38357 5.18438L8.4744 6.78195L8.47585 6.78267C8.47808 6.83125 8.49346 6.87832 8.52037 6.91887C8.54728 6.95942 8.5847 6.99195 8.62867 7.01299C8.67263 7.03403 8.7215 7.0428 8.77006 7.03836C8.81863 7.03393 8.86508 7.01645 8.90448 6.9878L8.90904 6.98997ZM11.1565 8.64601L9.6087 8.2015L9.60725 8.19499C9.56025 8.18205 9.51765 8.15666 9.48395 8.12152C9.45026 8.08638 9.42674 8.0428 9.41589 7.9954C9.40504 7.948 9.40726 7.89856 9.42232 7.85232C9.43737 7.80608 9.46471 7.76477 9.50142 7.73277L9.50084 7.72966L10.6956 6.66348C11.0615 7.25675 11.2233 7.95276 11.1565 8.64601ZM9.09555 9.49998L9.71374 10.9893C10.3052 10.6129 10.754 10.0508 10.9892 9.39164L9.39609 9.1232L9.39341 9.12652C9.37301 9.12254 9.3522 9.12101 9.33143 9.12197C9.29554 9.12386 9.26041 9.13296 9.22813 9.14871C9.16553 9.17886 9.117 9.23193 9.09265 9.29687C9.06831 9.3618 9.07002 9.4336 9.09744 9.49731L9.09555 9.49998ZM8.71042 11.405C8.13791 11.5359 7.54015 11.5053 6.9841 11.3166L7.76067 9.91638H7.76198C7.78507 9.8736 7.81934 9.83784 7.86116 9.81291C7.90298 9.78797 7.95078 9.77478 7.99951 9.77474C8.04823 9.77469 8.09606 9.7878 8.13792 9.81266C8.17979 9.83752 8.21412 9.87321 8.23729 9.91595H8.24309L9.02162 11.3184C8.92057 11.3521 8.81683 11.3808 8.71042 11.405ZM6.29242 10.9834L6.9043 9.50909L6.89974 9.50317C6.91718 9.46258 6.92433 9.41833 6.92056 9.37434C6.91678 9.33034 6.9022 9.28795 6.8781 9.2509C6.85399 9.21386 6.82111 9.18331 6.78236 9.16194C6.7436 9.14058 6.70016 9.12906 6.65588 9.1284C6.63813 9.12819 6.6204 9.12977 6.60296 9.1331L6.60028 9.12956L5.02125 9.39699C5.2583 10.0509 5.70512 10.6085 6.29242 10.9834ZM5.2957 6.66276L6.49713 7.73422L6.49582 7.74072C6.53265 7.77267 6.56008 7.81399 6.57521 7.86026C6.59033 7.90654 6.59257 7.95604 6.58169 8.00349C6.57081 8.05093 6.54722 8.09455 6.51344 8.12967C6.47965 8.1648 6.43693 8.19012 6.38985 8.20294L6.38861 8.20815L4.84859 8.65122C4.77186 7.95729 4.92917 7.25759 5.2957 6.66276ZM8.24555 7.81691H7.7535L7.4468 8.1976L7.55669 8.67341L7.99989 8.88591L8.44178 8.67384L8.55145 8.19825L8.24555 7.81691Z" fill="white"/>
</g>
</g>
</svg>
