<svg width="16" height="16" viewBox="0 0 16 16" fill="none" xmlns="http://www.w3.org/2000/svg">
<g id="size=16">
<path id="Union" d="M8.00023 1.49996C4.81486 1.49996 2.16327 3.79207 1.60762 6.81712C1.53279 7.2245 1.14187 7.49409 0.734486 7.41926C0.3271 7.34443 0.0575111 6.95352 0.132342 6.54613C0.816416 2.82197 4.07798 0 8.00023 0C12.4184 0 16 3.58162 16 7.99977C16 12.4179 12.4184 15.9995 8.00023 15.9995C4.07798 15.9995 0.816416 13.1776 0.132342 9.45341C0.0575111 9.04602 0.3271 8.65511 0.734486 8.58028C1.14187 8.50545 1.53279 8.77503 1.60762 9.18242C2.16327 12.2075 4.81486 14.4996 8.00023 14.4996C11.4217 14.4996 14.2258 11.8559 14.4811 8.49975H12.9261C12.6819 11.0054 10.5695 12.9636 7.99982 12.9636C5.26609 12.9636 3.04996 10.7474 3.04996 8.0137C3.04996 5.77037 4.54176 3.87728 6.5859 3.26892C6.95643 3.15864 7.34619 3.36962 7.45647 3.74015C7.56674 4.11067 7.35576 4.50044 6.98524 4.61071C5.83989 4.95159 4.93743 5.85507 4.59685 6.9998H5.76261C6.14517 6.14525 7.00297 5.54989 7.99982 5.54989C9.35288 5.54989 10.4497 6.64676 10.4497 7.99982C10.4497 8.72547 10.1334 9.37816 9.63328 9.82575C9.34522 10.0836 8.90269 10.0591 8.64487 9.771C8.38705 9.48294 8.41156 9.04042 8.69962 8.7826C8.91555 8.58934 9.04979 8.31072 9.04979 7.99982C9.04979 7.41994 8.5797 6.94985 7.99982 6.94985C7.41994 6.94985 6.94985 7.41994 6.94985 7.99982C6.94985 8.31072 7.08409 8.58934 7.30001 8.7826C7.58807 9.04042 7.61259 9.48294 7.35476 9.771C7.09694 10.0591 6.65442 10.0836 6.36636 9.82575C5.98431 9.48381 5.70949 9.02218 5.60103 8.49975H4.48292C4.71988 10.2303 6.20415 11.5636 7.99982 11.5636C9.96037 11.5636 11.5497 9.97425 11.5497 8.0137C11.5497 6.40662 10.4813 5.04727 9.0144 4.61071C8.64387 4.50044 8.4329 4.11067 8.54317 3.74015C8.65344 3.36962 9.04321 3.15864 9.41374 3.26892C11.1412 3.78304 12.4742 5.21466 12.8458 6.9998H14.4236C13.9426 3.8848 11.2499 1.49996 8.00023 1.49996Z" fill="#000001"/>
</g>
</svg>
