<svg width="16" height="16" viewBox="0 0 16 16" fill="none" xmlns="http://www.w3.org/2000/svg">
<g id="size=16">
<g id="Path">
<path fill-rule="evenodd" clip-rule="evenodd" d="M7.65556 0.0838355C7.87167 -0.0279452 8.12857 -0.0279452 8.34468 0.0838355L15.5946 3.83378C15.8436 3.96259 16 4.21955 16 4.49993C16 4.78031 15.8436 5.03727 15.5946 5.16608L8.34468 8.91603C8.12857 9.02781 7.87167 9.02781 7.65556 8.91603L0.405671 5.16608C0.156634 5.03727 0.000244133 4.78031 0.000244133 4.49993C0.000244133 4.21955 0.156634 3.96259 0.405671 3.83378L7.65556 0.0838355ZM2.38269 4.49993L8.00012 7.4055L13.6176 4.49993L8.00012 1.59436L2.38269 4.49993Z" fill="#000001"/>
<path d="M0.0934539 10.8874C0.293548 10.5247 0.749759 10.393 1.11243 10.593L8.00002 14.3931L14.8876 10.593C15.2503 10.393 15.7065 10.5247 15.9066 10.8874C16.1067 11.2501 15.9749 11.7063 15.6122 11.9064L8.36232 15.9063C8.13681 16.0308 7.86323 16.0308 7.63771 15.9063L0.387825 11.9064C0.0251541 11.7063 -0.10664 11.2501 0.0934539 10.8874Z" fill="#000001"/>
<path d="M1.11243 7.0931C0.749759 6.89301 0.293548 7.0248 0.0934539 7.38747C-0.10664 7.75014 0.0251541 8.20636 0.387825 8.40645L7.63771 12.4064C7.86323 12.5308 8.13681 12.5308 8.36232 12.4064L15.6122 8.40645C15.9749 8.20636 16.1067 7.75014 15.9066 7.38747C15.7065 7.0248 15.2503 6.89301 14.8876 7.0931L8.00002 10.8932L1.11243 7.0931Z" fill="#000001"/>
</g>
</g>
</svg>
