<svg width="16" height="16" viewBox="0 0 16 16" fill="none" xmlns="http://www.w3.org/2000/svg">
<g id="size=16">
<path id="Path" fill-rule="evenodd" clip-rule="evenodd" d="M14.8875 10.5925C15.2501 10.3924 15.7069 10.5247 15.907 10.8874C16.1062 11.2499 15.9744 11.706 15.6121 11.9059L8.36218 15.9059C8.1369 16.0299 7.86286 16.0299 7.63758 15.9059L0.387689 11.9059C0.0254782 11.7059 -0.105655 11.2498 0.0937486 10.8874C0.293802 10.5248 0.749683 10.3926 1.11229 10.5925L7.99988 14.3932L14.8875 10.5925ZM14.8875 7.09251C15.2501 6.89249 15.7069 7.0248 15.907 7.38743C16.1062 7.74992 15.9744 8.20606 15.6121 8.40597L8.36218 12.4059C8.1369 12.53 7.86286 12.53 7.63758 12.4059L0.387689 8.40597C0.0254783 8.20595 -0.105655 7.74989 0.0937486 7.38743C0.293802 7.0249 0.749683 6.89267 1.11229 7.09251L7.99988 10.8932L14.8875 7.09251ZM7.65516 0.0838309C7.87126 -0.0279448 8.12849 -0.0279425 8.3446 0.0838309L15.5945 3.83377C15.8433 3.96266 15.9998 4.21957 15.9998 4.49978C15.9994 4.77974 15.8432 5.03713 15.5945 5.16578L8.3446 8.91573C8.12872 9.02721 7.87103 9.02721 7.65516 8.91573L0.405267 5.16578C0.156768 5.03707 0.000394322 4.7796 0 4.49978C4.96893e-06 4.21971 0.156707 3.96272 0.405267 3.83377L7.65516 0.0838309ZM2.38278 4.49978L7.99988 7.40501L13.618 4.49978L7.99988 1.59455L2.38278 4.49978Z" fill="#000001"/>
</g>
</svg>
