<svg width="16" height="16" viewBox="0 0 16 16" fill="none" xmlns="http://www.w3.org/2000/svg">
<g id="size=16">
<g id="Union">
<path fill-rule="evenodd" clip-rule="evenodd" d="M7.65553 0.0838352C7.87164 -0.0279451 8.12854 -0.0279451 8.34465 0.0838352L15.5945 3.83376C15.8435 3.96258 15.9999 4.21954 15.9999 4.49991C15.9999 4.78029 15.8435 5.03725 15.5945 5.16606L8.34465 8.91599C8.12854 9.02777 7.87164 9.02777 7.65553 8.91599L0.405669 5.16606C0.156634 5.03725 0.000244132 4.78029 0.000244132 4.49991C0.000244132 4.21954 0.156634 3.96258 0.405669 3.83376L7.65553 0.0838352ZM2.38268 4.49991L8.00009 7.40547L13.6175 4.49991L8.00009 1.59436L2.38268 4.49991Z" fill="#000001"/>
<path d="M0.0934536 10.8874C0.293547 10.5247 0.749756 10.3929 1.11243 10.593L7.99999 14.393L14.8875 10.593C15.2502 10.3929 15.7064 10.5247 15.9065 10.8874C16.1066 11.25 15.9748 11.7063 15.6121 11.9064L8.36229 15.9063C8.13678 16.0307 7.8632 16.0307 7.63769 15.9063L0.387823 11.9064C0.025154 11.7063 -0.10664 11.25 0.0934536 10.8874Z" fill="#000001"/>
<path d="M1.11243 7.09308C0.749756 6.89298 0.293547 7.02478 0.0934536 7.38745C-0.10664 7.75011 0.025154 8.20632 0.387823 8.40642L7.63769 12.4063C7.8632 12.5308 8.13678 12.5308 8.36229 12.4063L15.6121 8.40642C15.9748 8.20632 16.1066 7.75011 15.9065 7.38745C15.7064 7.02478 15.2502 6.89298 14.8875 7.09308L7.99999 10.8931L1.11243 7.09308Z" fill="#000001"/>
</g>
</g>
</svg>
