<svg width="16" height="16" viewBox="0 0 16 16" fill="none" xmlns="http://www.w3.org/2000/svg">
<g id="size=16">
<path id="Path" fill-rule="evenodd" clip-rule="evenodd" d="M1 3.25C1 2.00736 2.00736 1 3.25 1H12.75C13.9926 1 15 2.00736 15 3.25V12.75C15 13.9926 13.9926 15 12.75 15H3.25C2.00736 15 1 13.9926 1 12.75V3.25ZM6.5 13.5H12.75C13.1642 13.5 13.5 13.1642 13.5 12.75V6.5H6.5V13.5ZM5 6.5V13.5H3.25C2.83579 13.5 2.5 13.1642 2.5 12.75V6.5H5ZM13.5 5V3.25C13.5 2.83579 13.1642 2.5 12.75 2.5H3.25C2.83579 2.5 2.5 2.83579 2.5 3.25V5H13.5Z" fill="#000001"/>
</g>
</svg>
