<svg width="16" height="16" viewBox="0 0 16 16" fill="none" xmlns="http://www.w3.org/2000/svg">
<g id="size=16">
<path id="Path" fill-rule="evenodd" clip-rule="evenodd" d="M7.68457 2.07029C7.88448 1.97771 8.11552 1.97771 8.31543 2.07029L15.3154 5.32029C15.5797 5.44304 15.7494 5.70865 15.75 5.99998C15.7499 6.29165 15.5799 6.55764 15.3154 6.68064L13.8818 7.34568C13.9562 7.46189 13.9997 7.60181 14 7.74998V11C14 11.127 13.9668 11.2541 13.9053 11.3652L13.9033 11.3681L13.9014 11.373L13.8945 11.3838C13.8896 11.3923 13.8826 11.4045 13.875 11.417C13.8594 11.4424 13.8374 11.4768 13.8105 11.5166C13.7561 11.5972 13.6771 11.7061 13.5723 11.832C13.3618 12.0845 13.0425 12.4108 12.5947 12.7334C11.6895 13.3851 10.2867 14 8.25 14C6.21689 14 4.7065 13.3884 3.69824 12.7627C3.19663 12.4513 2.82045 12.1371 2.56641 11.8965C2.43968 11.7764 2.34201 11.673 2.27441 11.5976C2.24094 11.5603 2.21353 11.5289 2.19434 11.5058L2.16309 11.4668L2.16016 11.4638L2.15918 11.4619L2.1582 11.4609C2.05624 11.3295 2.00004 11.1664 2 11V7.74998C2.00028 7.60181 2.04375 7.46189 2.11816 7.34568L0.68457 6.68064C0.420126 6.55764 0.250076 6.29165 0.25 5.99998C0.250556 5.70865 0.42027 5.44304 0.68457 5.32029L7.68457 2.07029ZM8.31543 9.93064C8.11542 10.0233 7.88458 10.0233 7.68457 9.93064L3.5 7.98728V10.7119C3.52851 10.7407 3.56152 10.7733 3.59766 10.8076C3.78875 10.9886 4.08553 11.2376 4.48926 11.4883C5.29351 11.9874 6.53342 12.5 8.25 12.5C9.963 12.5 11.0605 11.9898 11.7178 11.5166C12.05 11.2773 12.279 11.0411 12.4199 10.872C12.4504 10.8355 12.4776 10.801 12.5 10.7715V7.98728L8.31543 9.93064ZM2.78125 5.99998L8 8.42283L13.2188 5.99998L8 3.57713L2.78125 5.99998Z" fill="#000001"/>
</g>
</svg>
