<svg width="24" height="24" viewBox="0 0 24 24" fill="none" xmlns="http://www.w3.org/2000/svg">
<g id="size=24">
<path id="Path" fill-rule="evenodd" clip-rule="evenodd" d="M11.6328 3.09569C11.8606 2.96802 12.1394 2.96802 12.3672 3.09569L22.6172 8.84569C22.8535 8.97828 22.9997 9.22904 23 9.49998C23 9.77107 22.8535 10.0215 22.6172 10.1543L19.7969 11.7363C19.9228 11.8703 19.9998 12.0516 20 12.25V17.25C20 17.3488 19.9803 17.4478 19.9424 17.539L19.25 17.25C19.8805 17.5127 19.9365 17.5377 19.9414 17.54L19.9404 17.5439L19.9375 17.5498L19.9307 17.5644C19.9255 17.576 19.9192 17.5915 19.9111 17.6084C19.8948 17.6425 19.8714 17.6875 19.8418 17.7412C19.7824 17.8488 19.6948 17.9934 19.5723 18.1611C19.3262 18.4979 18.9393 18.9299 18.3623 19.3545C17.1992 20.2101 15.3128 20.9999 12.3457 21C9.37757 21 7.33942 20.2103 6.02734 19.3848C5.37485 18.9741 4.90854 18.5587 4.60059 18.2383C4.44698 18.0784 4.33259 17.9415 4.25391 17.8408C4.21465 17.7906 4.18312 17.7487 4.16113 17.7178C4.15043 17.7027 4.1415 17.6896 4.13477 17.6797L4.12598 17.666L4.12305 17.6611L4.12109 17.6592C4.12632 17.6555 4.18112 17.6179 4.75 17.25L4.12012 17.6572C4.04192 17.536 4.00001 17.3942 4 17.25V12.25C4.0002 12.0516 4.07716 11.8703 4.20312 11.7363L1.38281 10.1543C1.1465 10.0215 1.00001 9.77107 1 9.49998C1.00028 9.22904 1.14649 8.97828 1.38281 8.84569L11.6328 3.09569ZM12.3672 15.9043C12.1393 16.0321 11.8607 16.0321 11.6328 15.9043L5.5 12.4639V16.9971C5.54666 17.0527 5.60769 17.1212 5.68262 17.1992C5.91504 17.441 6.28744 17.7762 6.82617 18.1152C7.89803 18.7896 9.6591 19.5 12.3457 19.5C15.0323 19.4999 16.5981 18.7906 17.4736 18.1465C17.9155 17.8213 18.1954 17.502 18.3604 17.2764C18.4217 17.1924 18.468 17.1205 18.5 17.0664V12.4639L12.3672 15.9043ZM3.2832 9.49998L12 14.3906L20.7168 9.49998L12 4.61034L3.2832 9.49998Z" fill="#000001"/>
</g>
</svg>
