<svg width="16" height="16" viewBox="0 0 16 16" fill="none" xmlns="http://www.w3.org/2000/svg">
<g id="size=16">
<path id="Path" fill-rule="evenodd" clip-rule="evenodd" d="M7.68457 2.07008C7.88445 1.97754 8.11555 1.97754 8.31543 2.07008L15.3154 5.32008C15.5797 5.4428 15.7494 5.7085 15.75 5.99976C15.7499 6.29141 15.5798 6.55741 15.3154 6.68043L13.8818 7.34547C13.9562 7.46162 13.9997 7.60166 14 7.74976V10.9998C14 11.1267 13.9667 11.2539 13.9053 11.365L13.9033 11.3679L13.9014 11.3728L13.8945 11.3836C13.8896 11.392 13.8825 11.4044 13.875 11.4168C13.8595 11.4422 13.8374 11.4766 13.8105 11.5164C13.7561 11.597 13.6771 11.706 13.5723 11.8318C13.3618 12.0843 13.0425 12.4106 12.5947 12.7332C11.6895 13.3849 10.2867 13.9998 8.25 13.9998C6.21689 13.9998 4.7065 13.3882 3.69824 12.7625C3.19667 12.4511 2.82043 12.1369 2.56641 11.8962C2.43972 11.7762 2.342 11.6728 2.27441 11.5974C2.24099 11.5601 2.21351 11.5286 2.19434 11.5056L2.16309 11.4666L2.16016 11.4636L2.15918 11.4617L2.1582 11.4607C2.05629 11.3293 2.00004 11.1661 2 10.9998V7.74976C2.00031 7.60166 2.04379 7.46162 2.11816 7.34547L0.68457 6.68043C0.420166 6.55741 0.250076 6.29141 0.25 5.99976C0.250626 5.7085 0.420325 5.4428 0.68457 5.32008L7.68457 2.07008ZM8.31543 9.93043C8.11542 10.0231 7.88458 10.0231 7.68457 9.93043L3.5 7.98707V10.7117C3.52849 10.7405 3.56156 10.7732 3.59766 10.8074C3.78873 10.9884 4.08557 11.2374 4.48926 11.488C5.29351 11.9872 6.53342 12.4998 8.25 12.4998C9.963 12.4998 11.0605 11.9895 11.7178 11.5164C12.05 11.2771 12.279 11.0408 12.4199 10.8718C12.4504 10.8353 12.4777 10.8007 12.5 10.7712V7.98707L8.31543 9.93043ZM2.78125 5.99976L8 8.42261L13.2188 5.99976L8 3.57691L2.78125 5.99976Z" fill="#000001"/>
</g>
</svg>
