<svg width="24" height="24" viewBox="0 0 24 24" fill="none" xmlns="http://www.w3.org/2000/svg">
<g id="size=24">
<path id="Path" fill-rule="evenodd" clip-rule="evenodd" d="M11.6328 3.09559C11.8606 2.96795 12.1394 2.96795 12.3672 3.09559L22.6172 8.84559C22.8535 8.97817 22.9997 9.22897 23 9.49989C23 9.77096 22.8535 10.0214 22.6172 10.1542L19.7969 11.7362C19.9228 11.8702 19.9998 12.0515 20 12.2499V17.2499C20 17.3487 19.9803 17.4477 19.9424 17.539L19.25 17.2499C19.8793 17.5121 19.9363 17.5376 19.9414 17.5399L19.9404 17.5438L19.9375 17.5497L19.9307 17.5643C19.9255 17.5759 19.9192 17.5914 19.9111 17.6083C19.8948 17.6424 19.8714 17.6875 19.8418 17.7411C19.7824 17.8487 19.6948 17.9933 19.5723 18.161C19.3262 18.4978 18.9393 18.9298 18.3623 19.3544C17.1992 20.21 15.3128 20.9998 12.3457 20.9999C9.37757 20.9999 7.33942 20.2102 6.02734 19.3847C5.37487 18.974 4.90854 18.5586 4.60059 18.2382C4.447 18.0783 4.33259 17.9414 4.25391 17.8407C4.21467 17.7905 4.18311 17.7486 4.16113 17.7177C4.15045 17.7026 4.14149 17.6895 4.13477 17.6796L4.12598 17.6659L4.12305 17.661L4.12109 17.6591C4.12654 17.6553 4.18245 17.617 4.75 17.2499L4.12012 17.6571C4.04194 17.5359 4.00001 17.3941 4 17.2499V12.2499C4.00023 12.0515 4.07717 11.8702 4.20312 11.7362L1.38281 10.1542C1.14652 10.0214 1.00001 9.77096 1 9.49989C1.00031 9.22897 1.14651 8.97817 1.38281 8.84559L11.6328 3.09559ZM12.3672 15.9042C12.1393 16.032 11.8607 16.032 11.6328 15.9042L5.5 12.4638V16.997C5.54665 17.0526 5.6077 17.1211 5.68262 17.1991C5.91504 17.4409 6.28746 17.7761 6.82617 18.1151C7.89803 18.7895 9.6591 19.4999 12.3457 19.4999C15.0323 19.4998 16.5981 18.7905 17.4736 18.1464C17.9155 17.8212 18.1954 17.5019 18.3604 17.2763C18.4217 17.1923 18.468 17.1204 18.5 17.0663V12.4638L12.3672 15.9042ZM3.2832 9.49989L12 14.3905L20.7168 9.49989L12 4.61024L3.2832 9.49989Z" fill="#000001"/>
</g>
</svg>
