<svg width="24" height="24" viewBox="0 0 24 24" fill="none" xmlns="http://www.w3.org/2000/svg">
<g id="size=24">
<path id="Path" fill-rule="evenodd" clip-rule="evenodd" d="M20.25 2C21.7688 2 23 3.23122 23 4.75V19.25C23 20.7688 21.7688 22 20.25 22H3.75C2.23127 21.9999 1 20.7687 1 19.25V4.75C1 3.23126 2.23127 2.00007 3.75 2H20.25ZM3.75 3.5C3.0597 3.50007 2.5 4.05968 2.5 4.75V15.5713L8.57422 11.3828C8.70439 11.293 8.85299 11.2499 9 11.25C9.05032 11.25 9.10183 11.2551 9.15234 11.2656C9.20114 11.2757 9.24887 11.2909 9.29492 11.3105L13.5986 13.0322L15.7617 7.98438L14.208 8.68359C13.8303 8.85354 13.3858 8.68536 13.2158 8.30762C13.046 7.9299 13.2151 7.48633 13.5928 7.31641L16.7842 5.87988C16.9656 5.79827 17.1724 5.79174 17.3584 5.8623C17.5442 5.93287 17.6948 6.07458 17.7764 6.25586L19.2119 9.44824C19.3817 9.82585 19.2134 10.2694 18.8359 10.4395C18.4582 10.6094 18.0137 10.4412 17.8438 10.0635L17.1572 8.53711L14.6943 14.2842C14.5386 14.6651 14.1045 14.8494 13.7217 14.6963L9.09473 12.8457L2.5 17.3936V19.25C2.5 19.9403 3.0597 20.4999 3.75 20.5H8V19.75C8 19.3358 8.33584 19.0001 8.75 19C9.16421 19 9.5 19.3358 9.5 19.75V20.5H14.5V19.75C14.5 19.3358 14.8358 19.0001 15.25 19C15.6642 19 16 19.3358 16 19.75V20.5H20.25C20.9404 20.5 21.5 19.9404 21.5 19.25V4.75C21.5 4.05964 20.9404 3.5 20.25 3.5H3.75Z" fill="#000001"/>
</g>
</svg>
