<svg width="24" height="24" viewBox="0 0 24 24" fill="none" xmlns="http://www.w3.org/2000/svg">
<g id="size=24">
<path id="Path" d="M20.25 2C21.7688 2 23 3.23122 23 4.75V19.25C23 20.7688 21.7688 22 20.25 22H3.75C2.23122 22 1 20.7688 1 19.25V4.75C1 3.23122 2.23122 2 3.75 2H20.25ZM3.75 3.5C3.05964 3.5 2.5 4.05964 2.5 4.75V14.4062L8.50684 9.43457C8.54723 9.39936 8.59136 9.36928 8.6377 9.34375C8.71467 9.30114 8.79689 9.2732 8.88086 9.25977C9.00363 9.23997 9.13303 9.25025 9.25586 9.29492C9.28755 9.30639 9.31851 9.32014 9.34863 9.33594L14.9209 12.1221L18.5498 9.40039C18.8811 9.15194 19.351 9.21869 19.5996 9.5498C19.8481 9.88108 19.7813 10.351 19.4502 10.5996L15.4629 13.5908C15.3498 13.6793 15.2133 13.7334 15.0713 13.7471C14.9625 13.7575 14.8498 13.7436 14.7422 13.7041C14.7112 13.6928 14.6808 13.6795 14.6514 13.6641L9.10156 10.8896L2.5 16.3525V19.25C2.5 19.9404 3.05964 20.5 3.75 20.5H8V19.75C8 19.3358 8.33579 19 8.75 19C9.16421 19 9.5 19.3358 9.5 19.75V20.5H14.5V19.75C14.5 19.3358 14.8358 19 15.25 19C15.6642 19 16 19.3358 16 19.75V20.5H20.25C20.9404 20.5 21.5 19.9404 21.5 19.25V4.75C21.5 4.05964 20.9404 3.5 20.25 3.5H3.75Z" fill="#000001"/>
</g>
</svg>
