<svg width="16" height="16" viewBox="0 0 16 16" fill="none" xmlns="http://www.w3.org/2000/svg">
<g id="size=16">
<path id="Path" fill-rule="evenodd" clip-rule="evenodd" d="M13.75 1C14.9926 1 16 2.00736 16 3.25V12.75C16 13.9926 14.9926 15 13.75 15H2.25C1.00736 15 0 13.9926 0 12.75V3.25C0 2.00736 1.00736 1 2.25 1H13.75ZM2.25 2.5C1.83579 2.5 1.5 2.83579 1.5 3.25V10.3252L5.61035 7.8584C5.61783 7.85386 5.62616 7.84998 5.63379 7.8457C5.71501 7.80018 5.8014 7.77091 5.88867 7.75781C5.99156 7.74231 6.09948 7.74789 6.20605 7.77832L9.0791 8.59961L10.4072 5.6123L9.50781 6.01758C9.13008 6.18749 8.68556 6.01836 8.51562 5.64062C8.34592 5.26295 8.51494 4.81931 8.89258 4.64941L11.4717 3.48828C11.6529 3.40681 11.8591 3.40128 12.0449 3.47168C12.2309 3.54224 12.3813 3.68383 12.4629 3.86523L13.624 6.44434C13.7939 6.82207 13.6248 7.26659 13.2471 7.43652C12.8694 7.60606 12.4257 7.43714 12.2559 7.05957L11.8281 6.1084L10.1895 9.79492C10.1113 9.97828 9.96586 10.1177 9.79102 10.1914C9.70631 10.2271 9.61456 10.2475 9.52051 10.25C9.44149 10.2522 9.36088 10.2417 9.28223 10.2178L6.10645 9.31055L1.5 12.0742V12.75C1.5 13.1642 1.83579 13.5 2.25 13.5H5V13C5 12.5858 5.33579 12.25 5.75 12.25C6.16421 12.25 6.5 12.5858 6.5 13V13.5H9.5V13C9.5 12.5858 9.83579 12.25 10.25 12.25C10.6642 12.25 11 12.5858 11 13V13.5H13.75C14.1642 13.5 14.5 13.1642 14.5 12.75V3.25C14.5 2.83579 14.1642 2.5 13.75 2.5H2.25Z" fill="#000001"/>
</g>
</svg>
