<svg width="24" height="24" viewBox="0 0 24 24" fill="none" xmlns="http://www.w3.org/2000/svg">
<g id="size=24">
<path id="Path" fill-rule="evenodd" clip-rule="evenodd" d="M1.00012 4.75C1.00012 3.23122 2.23134 2 3.75012 2H20.2501C21.7689 2 23.0001 3.23122 23.0001 4.75V19.25C23.0001 20.7688 21.7689 22 20.2501 22H3.75012C2.23134 22 1.00012 20.7688 1.00012 19.25V17.0143C0.999959 17.0052 0.999959 16.9962 1.00012 16.9872V4.75ZM2.50012 17.3939V19.25C2.50012 19.9404 3.05977 20.5 3.75012 20.5H8.00012L8.00012 19.75C8.00012 19.3358 8.33591 19 8.75012 19C9.16434 19 9.50012 19.3358 9.50012 19.75V20.5H14.5001V19.75C14.5001 19.3358 14.8359 19 15.2501 19C15.6643 19 16.0001 19.3358 16.0001 19.75V20.5H20.2501C20.9405 20.5 21.5001 19.9404 21.5001 19.25V4.75C21.5001 4.05964 20.9405 3.5 20.2501 3.5H3.75012C3.05977 3.5 2.50012 4.05964 2.50012 4.75V15.5717L8.57427 11.3827C8.70453 11.2928 8.8532 11.2498 9.0003 11.25C9.05062 11.25 9.10139 11.2551 9.15191 11.2656C9.20093 11.2757 9.24896 11.2907 9.29522 11.3105L13.5989 13.032L15.7621 7.98462L14.2079 8.68386C13.8301 8.8538 13.3861 8.68535 13.2162 8.3076C13.0462 7.92985 13.2147 7.48586 13.5924 7.31592L16.7843 5.87993C16.9657 5.79832 17.1721 5.79212 17.358 5.86268C17.544 5.93324 17.6944 6.07479 17.776 6.25619L19.212 9.44805C19.3819 9.82579 19.2134 10.2698 18.8357 10.4397C18.4579 10.6097 18.014 10.4412 17.844 10.0635L17.1573 8.53705L14.6943 14.284C14.5386 14.665 14.1044 14.8497 13.7215 14.6966L9.09474 12.8458L2.50012 17.3939Z" fill="#000001"/>
</g>
</svg>
