<svg width="24" height="24" viewBox="0 0 24 24" fill="none" xmlns="http://www.w3.org/2000/svg">
<g id="size=24">
<path id="Path" fill-rule="evenodd" clip-rule="evenodd" d="M1 4.75C1 3.23122 2.23122 2 3.75 2H20.25C21.7688 2 23 3.23122 23 4.75V19.25C23 20.7688 21.7688 22 20.25 22H3.75C2.23122 22 1 20.7688 1 19.25V17.0143C0.999837 17.0052 0.999837 16.9962 1 16.9872V4.75ZM2.5 17.3939V19.25C2.5 19.9404 3.05964 20.5 3.75 20.5H8L8 19.75C8 19.3358 8.33579 19 8.75 19C9.16421 19 9.5 19.3358 9.5 19.75V20.5H14.5V19.75C14.5 19.3358 14.8358 19 15.25 19C15.6642 19 16 19.3358 16 19.75V20.5H20.25C20.9404 20.5 21.5 19.9404 21.5 19.25V4.75C21.5 4.05964 20.9404 3.5 20.25 3.5H3.75C3.05964 3.5 2.5 4.05964 2.5 4.75V15.5717L8.57415 11.3827C8.70441 11.2928 8.85307 11.2498 9.00018 11.25C9.0505 11.25 9.10127 11.2551 9.15178 11.2656C9.20081 11.2757 9.24884 11.2907 9.29509 11.3105L13.5988 13.032L15.762 7.98462L14.2077 8.68386C13.83 8.8538 13.386 8.68535 13.216 8.3076C13.0461 7.92985 13.2146 7.48586 13.5923 7.31592L16.7842 5.87993C16.9656 5.79832 17.172 5.79212 17.3579 5.86268C17.5439 5.93324 17.6942 6.07479 17.7758 6.25619L19.2118 9.44805C19.3818 9.82579 19.2133 10.2698 18.8356 10.4397C18.4578 10.6097 18.0138 10.4412 17.8439 10.0635L17.1572 8.53705L14.6942 14.284C14.5385 14.665 14.1042 14.8497 13.7214 14.6966L9.09462 12.8458L2.5 17.3939Z" fill="#000001"/>
</g>
</svg>
