<svg width="16" height="16" viewBox="0 0 16 16" fill="none" xmlns="http://www.w3.org/2000/svg">
<g id="size=16">
<path id="Path" d="M13.75 1C14.9926 1 16 2.00736 16 3.25V12.75C16 13.9926 14.9926 15 13.75 15H2.25C1.00736 15 0 13.9926 0 12.75V3.25C0 2.00736 1.00736 1 2.25 1H13.75ZM2.25 2.5C1.83579 2.5 1.5 2.83579 1.5 3.25V9.63965L5.52539 6.41895C5.63848 6.32674 5.77717 6.26915 5.92285 6.25391C6.04336 6.24156 6.16549 6.25872 6.27832 6.30371L9.86426 7.64844L12.0312 5.91406C12.3547 5.65531 12.8272 5.7078 13.0859 6.03125C13.3446 6.3547 13.2922 6.82719 12.9688 7.08594L10.4814 9.0752C10.453 9.09892 10.423 9.12046 10.3916 9.13965C10.309 9.19035 10.2194 9.2235 10.1279 9.23926C10.0252 9.25711 9.91737 9.25319 9.81152 9.22559C9.78147 9.21781 9.75166 9.20877 9.72266 9.19727L6.13574 7.85156L1.5 11.5605V12.75C1.5 13.1642 1.83579 13.5 2.25 13.5H5V13C5 12.5858 5.33579 12.25 5.75 12.25C6.16421 12.25 6.5 12.5858 6.5 13V13.5H9.5V13C9.5 12.5858 9.83579 12.25 10.25 12.25C10.6642 12.25 11 12.5858 11 13V13.5H13.75C14.1642 13.5 14.5 13.1642 14.5 12.75V3.25C14.5 2.83579 14.1642 2.5 13.75 2.5H2.25Z" fill="#000001"/>
</g>
</svg>
