<svg width="16" height="16" viewBox="0 0 16 16" fill="none" xmlns="http://www.w3.org/2000/svg">
<g id="size=16">
<g id="Union">
<path d="M11.1412 1.00015C10.1205 0.991278 9.13717 1.38364 8.40299 2.09274L7.31414 3.17515C7.0204 3.46719 7.01901 3.94206 7.31105 4.2358C7.60309 4.52955 8.07796 4.53093 8.37171 4.2389L9.44871 3.16816C9.89959 2.73452 10.5024 2.49465 11.1281 2.50009C11.7555 2.50554 12.3556 2.75718 12.7993 3.20082C13.2429 3.64445 13.4945 4.24458 13.5 4.87195C13.5054 5.49729 13.2658 6.09982 12.8326 6.55062L10.9518 8.43145C10.7092 8.67411 10.4173 8.86176 10.0958 8.98168C9.77437 9.10159 9.43087 9.15097 9.08864 9.12646C8.74641 9.10195 8.41345 9.00413 8.11235 8.83962C7.81125 8.67512 7.54905 8.44778 7.34354 8.17303C7.09543 7.84135 6.62542 7.77359 6.29373 8.0217C5.96204 8.2698 5.89429 8.73981 6.14239 9.0715C6.47674 9.51849 6.90331 9.88834 7.39317 10.156C7.88303 10.4236 8.42471 10.5828 8.98148 10.6226C9.53826 10.6625 10.0971 10.5822 10.6201 10.3871C11.143 10.192 11.618 9.88665 12.0126 9.49192L13.8983 7.60645L13.9073 7.59707C14.6164 6.86289 15.0088 5.87958 14.9999 4.85892C14.9911 3.83825 14.5817 2.8619 13.8599 2.14016C13.1382 1.41841 12.1618 1.00902 11.1412 1.00015Z" fill="#000001"/>
<path d="M7.01858 5.36493C6.46181 5.32505 5.90297 5.40538 5.37998 5.60048C4.85702 5.79555 4.38204 6.10091 3.98742 6.49564L2.10179 8.38111L2.09274 8.39048C1.38364 9.12466 0.991278 10.108 1.00015 11.1286C1.00902 12.1493 1.41841 13.1257 2.14016 13.8474C2.8619 14.5691 3.83825 14.9785 4.85892 14.9874C5.87958 14.9963 6.86297 14.604 7.59715 13.8949L8.68119 12.8109C8.97408 12.518 8.97408 12.0431 8.68119 11.7502C8.38829 11.4573 7.91342 11.4573 7.62053 11.7502L6.55062 12.8201C6.09982 13.2533 5.49729 13.4929 4.87195 13.4875C4.24458 13.482 3.64445 13.2304 3.20082 12.7867C2.75718 12.3431 2.50554 11.743 2.50009 11.1156C2.49466 10.4903 2.73426 9.88773 3.16745 9.43693L5.04828 7.55611C5.29085 7.31345 5.58276 7.1258 5.90423 7.00588C6.2257 6.88596 6.5692 6.83658 6.91143 6.86109C7.25366 6.8856 7.58662 6.98343 7.88772 7.14793C8.18882 7.31244 8.45102 7.53977 8.65653 7.81452C8.90463 8.14621 9.37465 8.21397 9.70634 7.96586C10.038 7.71776 10.1058 7.24774 9.85768 6.91605C9.52333 6.46907 9.09676 6.09921 8.6069 5.83158C8.11704 5.56395 7.57536 5.4048 7.01858 5.36493Z" fill="#000001"/>
</g>
</g>
</svg>
