<svg width="16" height="16" viewBox="0 0 16 16" fill="none" xmlns="http://www.w3.org/2000/svg">
<g id="size=16">
<path id="Path" fill-rule="evenodd" clip-rule="evenodd" d="M7.01869 5.36498C7.57406 5.40475 8.11867 5.56536 8.60756 5.83178C9.09614 6.09878 9.52363 6.47026 9.85756 6.91576C10.1056 7.24741 10.0378 7.71744 9.70619 7.96557C9.37464 8.21145 8.90386 8.14505 8.65639 7.8142C8.45122 7.54084 8.18779 7.31207 7.88783 7.14818C7.5877 6.98491 7.25208 6.88548 6.91127 6.86107C6.57064 6.83736 6.22437 6.88628 5.90443 7.00561C5.58443 7.12555 5.29061 7.31471 5.04896 7.55639L3.16811 9.43725C2.73622 9.8876 2.495 10.4918 2.50014 11.116C2.50568 11.742 2.75939 12.3436 3.20131 12.7869C3.64391 13.2294 4.24647 13.4805 4.87221 13.4871C5.49668 13.4925 6.10032 13.2521 6.55092 12.8201L7.62123 11.7507C7.91325 11.4588 8.38871 11.4605 8.68178 11.7507C8.97424 12.0436 8.97442 12.5185 8.68178 12.8113L7.59779 13.8953C6.86389 14.6031 5.87921 14.9958 4.85951 14.9871C3.84047 14.9771 2.86148 14.568 2.14076 13.8474C1.42066 13.1259 1.00901 12.1481 1.00014 11.1287C0.991571 10.1092 1.38514 9.1241 2.09291 8.39037L3.98744 6.49584C4.38111 6.10209 4.85856 5.79545 5.38002 5.60033C5.90158 5.40579 6.46343 5.32586 7.01869 5.36498ZM11.1417 0.999746C12.161 1.00868 13.1391 1.42033 13.8605 2.14037C14.5818 2.86184 14.991 3.83896 15.0001 4.85912C15.0089 5.87964 14.6163 6.86329 13.9074 7.5974L12.0128 9.49193C11.6186 9.88577 11.1424 10.1927 10.6203 10.3874C10.0983 10.5815 9.53703 10.6626 8.98158 10.6228C8.42645 10.5824 7.88218 10.4228 7.39369 10.156C6.9055 9.88859 6.47618 9.51773 6.14271 9.07201C5.89761 8.74132 5.9655 8.27015 6.29408 8.02221C6.62478 7.77494 7.09523 7.8435 7.34389 8.1726C7.54851 8.44616 7.81296 8.67524 8.11244 8.83959C8.41227 9.0034 8.74828 9.10167 9.089 9.1267C9.42981 9.15109 9.77552 9.10102 10.0958 8.98217C10.4165 8.86254 10.7101 8.67317 10.9523 8.43139L12.8331 6.55053C13.2661 6.09978 13.5056 5.49699 13.5001 4.87182C13.4944 4.24501 13.2431 3.64423 12.7999 3.20092C12.3566 2.75892 11.7542 2.50519 11.1281 2.49975C10.5043 2.49554 9.89906 2.73548 9.44936 3.16771L8.37221 4.239C8.07841 4.52917 7.60313 4.52895 7.31166 4.23607C7.02285 3.94274 7.02358 3.46685 7.31459 3.17553L8.40346 2.09252C9.13657 1.38463 10.1228 0.992018 11.1417 0.999746Z" fill="#000001"/>
</g>
</svg>
