<svg width="16" height="16" viewBox="0 0 16 16" fill="none" xmlns="http://www.w3.org/2000/svg">
<g id="size=16">
<path id="Vector" d="M12.2248 12.2248H10.4467V9.44026C10.4467 8.77626 10.4348 7.92149 9.52194 7.92149C8.59584 7.92149 8.45414 8.64492 8.45414 9.3919V12.2246H6.67612V6.49848H8.38302V7.28099H8.40696C8.7545 6.68676 9.4031 6.33053 10.0911 6.35608C11.8932 6.35608 12.2255 7.54142 12.2255 9.08354L12.2248 12.2248ZM4.66988 5.71574C4.10382 5.71574 3.63782 5.25001 3.63782 4.68396C3.63782 4.11791 4.10361 3.65212 4.66966 3.65212C5.23566 3.65212 5.70139 4.1178 5.7015 4.68374C5.7015 5.24968 5.23582 5.71569 4.66988 5.71574ZM5.55889 12.2248H3.77898V6.49848H5.55889V12.2248ZM13.1112 2.00093H2.88547C2.40546 1.99551 2.00585 2.38583 2 2.86584V13.134C2.00564 13.6143 2.40519 14.005 2.88547 13.9999H13.1112C13.5926 14.0059 13.9936 13.6152 14 13.134V2.86514C13.9936 2.38411 13.5921 1.9946 13.1112 2.00093Z" fill="#000001"/>
</g>
</svg>
