<svg width="24" height="24" viewBox="0 0 24 24" fill="none" xmlns="http://www.w3.org/2000/svg">
<g id="size=24">
<path id="Path" fill-rule="evenodd" clip-rule="evenodd" d="M10.6398 8.33133C11.4202 8.38705 12.1851 8.61232 12.8723 8.98563C13.5595 9.35995 14.1613 9.88008 14.6311 10.5052C14.8797 10.8365 14.812 11.3073 14.4807 11.5559C14.1496 11.8007 13.6784 11.7354 13.4309 11.4055C13.0903 10.9527 12.6531 10.5746 12.1545 10.303C11.6559 10.0324 11.0999 9.86788 10.5334 9.82742C9.96709 9.78793 9.39237 9.86991 8.86055 10.0677C8.3288 10.2663 7.83988 10.5777 7.43867 10.9778L4.61055 13.7981C3.89208 14.5436 3.49156 15.5434 3.5002 16.5764C3.50931 17.6117 3.92932 18.6065 4.66328 19.3401C5.39809 20.0727 6.39874 20.4896 7.43867 20.5003C8.47728 20.5092 9.48057 20.1094 10.2287 19.3929L11.8391 17.7874C12.1312 17.4963 12.6069 17.4996 12.8996 17.7893C13.1921 18.0827 13.191 18.5574 12.8977 18.8499L11.2736 20.469C10.2417 21.4611 8.85768 22.0127 7.425 22.0003C5.99334 21.9861 4.61691 21.4127 3.60371 20.4026C2.59127 19.3913 2.01278 18.02 2.0002 16.5901C1.98798 15.1601 2.54232 13.7789 3.53731 12.7503L3.5461 12.7405L6.38008 9.91629C6.9335 9.36439 7.6044 8.93483 8.33711 8.66141C9.07 8.38886 9.85971 8.2766 10.6398 8.33133ZM16.5754 2.00125C18.0078 2.01366 19.3822 2.5894 20.3967 3.59891C21.4112 4.61044 21.9875 5.98003 22.0002 7.41141C22.0125 8.84301 21.4601 10.2222 20.4631 11.2513L20.4543 11.261L17.6213 14.0852C17.067 14.6371 16.3969 15.0673 15.6633 15.3401C14.9299 15.6119 14.1409 15.7249 13.3605 15.6692C12.5805 15.6126 11.8147 15.3899 11.1281 15.0159C10.4419 14.6411 9.83926 14.1204 9.37032 13.4954C9.12582 13.1656 9.19294 12.6941 9.51973 12.4456C9.84989 12.1979 10.3203 12.2677 10.5695 12.596C10.9093 13.0488 11.3482 13.4264 11.8459 13.6985C12.344 13.9698 12.9017 14.1318 13.468 14.1731C14.0344 14.2135 14.6086 14.1309 15.1408 13.9339C15.6733 13.7358 16.1598 13.4228 16.5617 13.0227L19.3908 10.2034C20.1113 9.45733 20.5091 8.45894 20.5002 7.4241C20.4909 6.38747 20.0741 5.39419 19.3381 4.66043C18.6021 3.92857 17.6033 3.51031 16.5627 3.50125C15.5246 3.49395 14.5187 3.89142 13.7717 4.60867L12.1506 6.21512C11.8562 6.50361 11.3806 6.50339 11.09 6.21024C10.803 5.91676 10.8049 5.44035 11.0949 5.14969L12.7268 3.53152C13.7574 2.53917 15.1437 1.99058 16.5754 2.00125Z" fill="#000001"/>
</g>
</svg>
