<svg width="24" height="24" viewBox="0 0 24 24" fill="none" xmlns="http://www.w3.org/2000/svg">
<g id="size=24">
<path id="Path" fill-rule="evenodd" clip-rule="evenodd" d="M10.6398 8.33133C11.4203 8.38706 12.185 8.61225 12.8723 8.98563C13.5594 9.35995 14.1613 9.8801 14.6311 10.5052C14.8795 10.8365 14.8119 11.3074 14.4807 11.5559C14.1496 11.8008 13.6785 11.7353 13.4309 11.4056C13.0903 10.9527 12.6531 10.5746 12.1545 10.303C11.6559 10.0324 11.0999 9.86789 10.5334 9.82743C9.96696 9.78786 9.39249 9.86987 8.86055 10.0677C8.32868 10.2663 7.83996 10.5776 7.43867 10.9778L4.61055 13.7981C3.89198 14.5436 3.49156 15.5433 3.5002 16.5764C3.50932 17.6117 3.92928 18.6065 4.66328 19.3401C5.39817 20.0727 6.39867 20.4897 7.43867 20.5003C8.47737 20.5092 9.48055 20.1095 10.2287 19.3929L11.8391 17.7874C12.1312 17.4962 12.6069 17.4995 12.8996 17.7893C13.1919 18.0827 13.191 18.5575 12.8977 18.8499L11.2736 20.469C10.2417 21.4612 8.85776 22.0127 7.425 22.0003C5.99326 21.9862 4.61699 21.4127 3.60371 20.4026C2.59123 19.3913 2.01279 18.02 2.0002 16.5901C1.98798 15.16 2.54222 13.779 3.53731 12.7503L3.5461 12.7405L6.38008 9.91629C6.93358 9.36432 7.60427 8.93483 8.33711 8.66141C9.07012 8.38881 9.85958 8.27654 10.6398 8.33133ZM16.5754 2.00125C18.0079 2.01366 19.3822 2.58935 20.3967 3.59891C21.4111 4.61043 21.9875 5.9801 22.0002 7.41141C22.0125 8.84299 21.4601 10.2222 20.4631 11.2513L20.4543 11.261L17.6213 14.0852C17.067 14.6372 16.397 15.0673 15.6633 15.3401C14.9298 15.612 14.141 15.7249 13.3605 15.6692C12.5804 15.6126 11.8148 15.3899 11.1281 15.0159C10.4419 14.6411 9.83929 14.1204 9.37032 13.4954C9.12573 13.1655 9.19274 12.694 9.51973 12.4456C9.8499 12.1979 10.3203 12.2676 10.5695 12.596C10.9093 13.0488 11.3482 13.4265 11.8459 13.6985C12.3441 13.9698 12.9016 14.1318 13.468 14.1731C14.0345 14.2135 14.6085 14.131 15.1408 13.9339C15.6734 13.7358 16.1597 13.4228 16.5617 13.0227L19.3908 10.2034C20.1113 9.45734 20.5091 8.45893 20.5002 7.42411C20.4909 6.38754 20.074 5.39418 19.3381 4.66043C18.6021 3.92852 17.6033 3.51031 16.5627 3.50125C15.5245 3.49385 14.5188 3.89133 13.7717 4.60868L12.1506 6.21512C11.8562 6.50373 11.3807 6.50331 11.09 6.21024C10.8029 5.91672 10.8047 5.44036 11.0949 5.14969L12.7268 3.53153C13.7575 2.53908 15.1435 1.99048 16.5754 2.00125Z" fill="#000001"/>
</g>
</svg>
