<svg width="16" height="16" viewBox="0 0 16 16" fill="none" xmlns="http://www.w3.org/2000/svg">
<g id="size=16">
<g id="Path">
<path d="M14 7.19721L12.0072 6.12513L10.3254 7.12337L10.3046 8.14478L9.48605 7.62068L8.3743 8.28015L8.32519 7.16391L7.17996 6.41903L8.27384 5.86815C8.26566 5.86815 8.27384 5.97528 8.11237 2.21251L5.52425 1L2 2.06556L2.78656 5.7516L3.96974 6.64633L3.07007 7.0575L3.65794 9.8365L4.48394 10.5908L3.89309 10.9412L4.35223 13.0889L6.20588 15C6.21481 14.9891 6.40084 14.8494 8.58713 13.1555L8.52313 11.6962L9.46223 12.4715C9.47563 12.4584 9.6639 12.3231 11.3843 10.9926L11.4506 9.91324L12.1597 10.3917C12.1724 10.3794 12.3331 10.2593 13.7224 9.18573L14 7.19721Z" fill="#231F20"/>
<path d="M12.3465 8.34601L14 7.19721L12.0072 6.12513L10.3254 7.12337L12.3465 8.34601Z" fill="black"/>
<path d="M12.1634 10.3903L12.3465 8.34601L10.3254 7.12337L10.2837 9.11984L12.1634 10.3903Z" fill="#004B16"/>
<path d="M9.46599 12.4693V10.3519L7.42407 8.84552L7.58481 10.9253L9.46599 12.4693Z" fill="#004B16"/>
<path d="M9.46599 10.3519L11.5168 8.92149L9.48605 7.62068L7.42407 8.84552L9.46599 10.3519Z" fill="black"/>
<path d="M6.20585 14.9978L5.87992 12.8341L3.89307 10.9397L4.3522 13.0875L6.20585 14.9978Z" fill="#004B16"/>
<path d="M5.87992 12.8341L8.49632 11.0179L6.46853 9.41156L3.89307 10.9397L5.87992 12.8341Z" fill="black"/>
<path d="M5.71035 11.7099L5.27875 8.84841L3.06567 7.05896L3.65801 9.83435L5.71035 11.7099Z" fill="#004B16"/>
<path d="M5.27875 8.84841L8.32674 7.1639L6.05042 5.67993L3.06567 7.05896L5.27875 8.84841Z" fill="black"/>
<path d="M5.07181 7.48168L4.48096 3.56255L2 2.06556L2.78656 5.7516L5.07181 7.48168Z" fill="#004B16"/>
<path d="M4.48096 3.56255L8.1079 2.21034L5.52425 1L2 2.06556L4.48096 3.56255Z" fill="black"/>
<path d="M13.7245 9.18357C12.1901 10.3686 12.1559 10.3903 12.1618 10.3903C12.3523 8.24976 12.3359 8.34603 12.3449 8.34603C14.0958 7.127 13.9864 7.19722 13.9983 7.19722L13.7245 9.18357Z" fill="#1CB35C"/>
<path d="M11.3879 10.9897C9.48882 12.4592 9.45855 12.4693 9.46599 12.4693C9.44739 10.2528 9.45855 10.3519 9.46599 10.3519C11.6545 8.83177 11.5094 8.92149 11.5168 8.92149L11.3879 10.9897Z" fill="#1CB35C"/>
<path d="M8.59078 13.1533C6.21995 14.9869 6.19837 14.9978 6.20953 14.9978C5.87318 12.7682 5.88137 12.8341 5.88137 12.8341C8.66891 10.9006 8.49255 11.0179 8.49999 11.0179L8.59078 13.1533Z" fill="#1CB35C"/>
<path d="M8.1079 2.21034C8.27459 5.97456 8.2611 5.86669 8.27003 5.86669C5.13348 7.45128 5.06427 7.48168 5.07023 7.48168C4.46599 3.47496 4.47492 3.56255 4.47938 3.56255L8.1079 2.21034Z" fill="#1CB35C"/>
<path d="M8.32519 7.16391C8.45095 10.0182 8.4346 9.919 8.4465 9.919C5.73337 11.694 5.70212 11.7135 5.71253 11.7135C5.27424 8.77381 5.27424 8.84837 5.28093 8.84837L8.32519 7.16391Z" fill="#1CB35C"/>
</g>
</g>
</svg>
