<svg width="24" height="24" viewBox="0 0 24 24" fill="none" xmlns="http://www.w3.org/2000/svg">
<g id="size=24">
<path id="Vector" d="M20 10.8532L17.3429 9.32161L15.1006 10.7477L15.0728 12.2068L13.9814 11.4581L12.4991 12.4002L12.4336 10.8056L10.9066 9.74147L12.3651 8.9545C12.3542 8.9545 12.3651 9.10755 12.1498 3.73216L8.699 2L4 3.52223L5.04874 8.788L6.62632 10.0662L5.42676 10.6536L6.21059 14.6236L7.31192 15.7011L6.52412 16.2017L7.1363 19.2699L9.60784 22C9.61974 21.9845 9.86779 21.7849 12.7828 19.365L12.6975 17.2802L13.9496 18.3878C13.9675 18.3692 14.2185 18.1758 16.5125 16.2751L16.6008 14.7332L17.5463 15.4168C17.5632 15.3992 17.7775 15.2275 19.6299 13.6939L20 10.8532Z" fill="#000001"/>
</g>
</svg>
