<svg width="24" height="24" viewBox="0 0 24 24" fill="none" xmlns="http://www.w3.org/2000/svg">
<g id="size=24">
<g id="Group">
<path id="Vector" d="M20 10.8532L17.3429 9.32161L15.1006 10.7477L15.0728 12.2068L13.9814 11.4581L12.4991 12.4002L12.4336 10.8056L10.9066 9.74147L12.3651 8.9545C12.3542 8.9545 12.3651 9.10755 12.1498 3.73216L8.699 2L4 3.52223L5.04874 8.788L6.62632 10.0662L5.42676 10.6536L6.21059 14.6236L7.31192 15.7011L6.52412 16.2017L7.1363 19.2699L9.60784 22C9.61974 21.9845 9.86779 21.7849 12.7828 19.365L12.6975 17.2802L13.9496 18.3878C13.9675 18.3692 14.2185 18.1758 16.5125 16.2751L16.6008 14.7332L17.5463 15.4168C17.5632 15.3992 17.7775 15.2275 19.6299 13.6939L20 10.8532Z" fill="#231F20"/>
<path id="Vector_2" d="M17.7954 12.4944L20 10.8532L17.3429 9.32166L15.1006 10.7477L17.7954 12.4944Z" fill="black"/>
<path id="Vector_3" d="M17.5512 15.4147L17.7953 12.4943L15.1005 10.7477L15.0449 13.5998L17.5512 15.4147Z" fill="#004B16"/>
<path id="Vector_4" d="M13.9545 18.3847V15.3599L11.2319 13.2079L11.4462 16.1789L13.9545 18.3847Z" fill="#004B16"/>
<path id="Vector_5" d="M13.9545 15.3599L16.689 13.3165L13.9823 11.4581L11.2319 13.2079L13.9545 15.3599Z" fill="black"/>
<path id="Vector_6" d="M9.60789 21.9969L9.17331 18.9059L6.52417 16.1996L7.13635 19.2678L9.60789 21.9969Z" fill="#004B16"/>
<path id="Vector_7" d="M9.17331 18.906L12.6618 16.3113L9.95813 14.0166L6.52417 16.1996L9.17331 18.906Z" fill="black"/>
<path id="Vector_8" d="M8.94713 17.2999L8.37166 13.212L5.4209 10.6556L6.21068 14.6205L8.94713 17.2999Z" fill="#004B16"/>
<path id="Vector_9" d="M8.37166 13.212L12.4357 10.8056L9.40056 8.68567L5.4209 10.6557L8.37166 13.212Z" fill="black"/>
<path id="Vector_10" d="M8.09575 11.2595L7.30795 5.66079L4 3.52222L5.04874 8.78799L8.09575 11.2595Z" fill="#004B16"/>
<path id="Vector_11" d="M7.30795 5.66081L12.1439 3.72906L8.699 2L4 3.52223L7.30795 5.66081Z" fill="black"/>
<path id="Vector_12" d="M19.633 13.6908C17.5871 15.3836 17.5415 15.4147 17.5494 15.4147C17.8034 12.3567 17.7816 12.4943 17.7935 12.4943C20.1281 10.7528 19.9822 10.8531 19.9981 10.8531L19.633 13.6908Z" fill="#1CB35C"/>
<path id="Vector_13" d="M16.5176 16.2709C13.9855 18.3702 13.9448 18.3836 13.9547 18.3836C13.9299 15.2172 13.9448 15.3588 13.9547 15.3588C16.8728 13.1872 16.6793 13.3154 16.6892 13.3154L16.5176 16.2709Z" fill="#1CB35C"/>
<path id="Vector_14" d="M12.7879 19.362C9.62676 21.9814 9.59799 21.9969 9.61287 21.9969C9.1644 18.8118 9.17532 18.9059 9.17532 18.9059C12.892 16.1438 12.6569 16.3113 12.6668 16.3113L12.7879 19.362Z" fill="#1CB35C"/>
<path id="Vector_15" d="M12.144 3.729C12.3662 9.10646 12.3484 8.95238 12.3603 8.95238C8.17822 11.2161 8.08594 11.2595 8.09388 11.2595C7.28823 5.53562 7.30013 5.66075 7.30608 5.66075L12.144 3.729Z" fill="#1CB35C"/>
<path id="Vector_16" d="M12.4337 10.8057C12.6014 14.8832 12.5795 14.7415 12.5954 14.7415C8.97791 17.2772 8.93624 17.3051 8.95013 17.3051C8.36573 13.1056 8.36573 13.2121 8.37466 13.2121L12.4337 10.8057Z" fill="#1CB35C"/>
</g>
</g>
</svg>
