<svg width="16" height="16" viewBox="0 0 16 16" fill="none" xmlns="http://www.w3.org/2000/svg">
<g id="size=16">
<g id="Group">
<path id="Vector" d="M14 7.19721L12.0072 6.12513L10.3254 7.12337L10.3046 8.14478L9.48605 7.62068L8.3743 8.28015L8.32519 7.16391L7.17996 6.41903L8.27384 5.86815C8.26566 5.86815 8.27384 5.97528 8.11237 2.21251L5.52425 1L2 2.06556L2.78656 5.7516L3.96974 6.64633L3.07007 7.0575L3.65794 9.8365L4.48394 10.5908L3.89309 10.9412L4.35223 13.0889L6.20588 15C6.21481 14.9891 6.40084 14.8494 8.58713 13.1555L8.52313 11.6962L9.46223 12.4715C9.47563 12.4584 9.6639 12.3231 11.3843 10.9926L11.4506 9.91324L12.1597 10.3917C12.1724 10.3794 12.3331 10.2593 13.7224 9.18573L14 7.19721Z" fill="#231F20"/>
<path id="Vector_2" d="M12.3465 8.34601L14 7.1972L12.0072 6.12512L10.3254 7.12336L12.3465 8.34601Z" fill="black"/>
<path id="Vector_3" d="M12.1634 10.3902L12.3464 8.34594L10.3254 7.12329L10.2837 9.11978L12.1634 10.3902Z" fill="#004B16"/>
<path id="Vector_4" d="M9.46599 12.4692V10.3519L7.42407 8.84546L7.58481 10.9252L9.46599 12.4692Z" fill="#004B16"/>
<path id="Vector_5" d="M9.46599 10.3518L11.5168 8.92143L9.48683 7.62061L7.42407 8.84542L9.46599 10.3518Z" fill="black"/>
<path id="Vector_6" d="M6.20585 14.9978L5.87992 12.8341L3.89307 10.9397L4.3522 13.0875L6.20585 14.9978Z" fill="#004B16"/>
<path id="Vector_7" d="M5.87992 12.8342L8.49632 11.0179L6.46853 9.41162L3.89307 10.9397L5.87992 12.8342Z" fill="black"/>
<path id="Vector_8" d="M5.71035 11.7099L5.27875 8.84841L3.06567 7.05896L3.65801 9.83435L5.71035 11.7099Z" fill="#004B16"/>
<path id="Vector_9" d="M5.27875 8.84839L8.32674 7.1639L6.05042 5.67993L3.06567 7.05894L5.27875 8.84839Z" fill="black"/>
<path id="Vector_10" d="M5.07181 7.48168L4.48096 3.56255L2 2.06555L2.78656 5.75159L5.07181 7.48168Z" fill="#004B16"/>
<path id="Vector_11" d="M4.48096 3.56256L8.1079 2.21034L5.52425 1L2 2.06556L4.48096 3.56256Z" fill="black"/>
<path id="Vector_12" d="M13.7245 9.18363C12.1901 10.3686 12.1559 10.3904 12.1618 10.3904C12.3523 8.24982 12.3359 8.34609 12.3449 8.34609C14.0958 7.12707 13.9864 7.19728 13.9983 7.19728L13.7245 9.18363Z" fill="#1CB35C"/>
<path id="Vector_13" d="M11.3879 10.9897C9.48882 12.4592 9.45831 12.4686 9.46575 12.4686C9.44714 10.252 9.45831 10.3512 9.46575 10.3512C11.6543 8.83104 11.5092 8.9208 11.5166 8.9208L11.3879 10.9897Z" fill="#1CB35C"/>
<path id="Vector_14" d="M8.59078 13.1533C6.21995 14.9869 6.19837 14.9978 6.20953 14.9978C5.87318 12.7682 5.88137 12.8341 5.88137 12.8341C8.66891 10.9006 8.49255 11.0179 8.49999 11.0179L8.59078 13.1533Z" fill="#1CB35C"/>
<path id="Vector_15" d="M8.10781 2.21033C8.27449 5.97455 8.2611 5.86669 8.27003 5.86669C5.13348 7.45128 5.06427 7.48168 5.07023 7.48168C4.46599 3.47496 4.47492 3.56255 4.47938 3.56255L8.10781 2.21033Z" fill="#1CB35C"/>
<path id="Vector_16" d="M8.32521 7.16382C8.45097 10.0181 8.4346 9.91894 8.4465 9.91894C5.73337 11.6939 5.70212 11.7135 5.71253 11.7135C5.27424 8.77375 5.27424 8.84831 5.28093 8.84831L8.32521 7.16382Z" fill="#1CB35C"/>
</g>
</g>
</svg>
