<svg width="16" height="16" viewBox="0 0 16 16" fill="none" xmlns="http://www.w3.org/2000/svg">
<g id="size=16">
<g id="Path">
<path d="M13.3379 12.0328C13.3377 12.0326 13.3379 12.0329 13.3379 12.0328C13.2391 11.9213 13.1916 11.7141 13.1411 11.4938C13.0906 11.2737 13.0341 11.0364 12.8534 10.8825C12.8531 10.8822 12.8526 10.8819 12.8523 10.8815C12.8164 10.8503 12.7796 10.8239 12.7427 10.8019C12.7056 10.78 12.668 10.7621 12.6304 10.7479C12.8816 10.003 12.7831 9.26116 12.5294 8.59091C12.2184 7.76818 11.6752 7.05144 11.2602 6.56109C10.7958 5.97521 10.3415 5.41912 10.3505 4.59767C10.3643 3.34403 10.4884 1.01921 8.28225 1.01612C8.19253 1.01596 8.09897 1.0197 8.00143 1.02751C5.53613 1.22596 6.19006 3.83061 6.15343 4.70267C6.10834 5.34049 5.97908 5.84319 5.54036 6.46667C5.02513 7.07944 4.2994 8.07128 3.95575 9.1039C3.79361 9.59109 3.71645 10.0878 3.78759 10.5579C3.76529 10.5779 3.74413 10.599 3.72377 10.6204C3.57255 10.7821 3.46071 10.9777 3.33617 11.1095C3.21978 11.2257 3.05406 11.2698 2.87173 11.3351C2.6894 11.4005 2.48934 11.4969 2.36789 11.73C2.36773 11.7304 2.3674 11.731 2.36708 11.7313C2.30994 11.8379 2.29138 11.953 2.29138 12.0697C2.29138 12.1777 2.30734 12.2871 2.32345 12.3924C2.35698 12.6115 2.39101 12.8187 2.34592 12.9591C2.20168 13.3535 2.18313 13.6262 2.28471 13.8242C2.38661 14.0224 2.5958 14.1099 2.83234 14.1594C3.3054 14.258 3.94598 14.2336 4.4508 14.5012C4.99127 14.7838 5.53971 14.8843 5.9768 14.7845C6.29392 14.7122 6.55113 14.5234 6.68331 14.2329C7.02517 14.2313 7.40043 14.0864 8.00143 14.0534C8.40924 14.0205 8.91861 14.1983 9.50445 14.1657C9.51979 14.2292 9.54196 14.2904 9.57218 14.3485C9.57253 14.349 9.57282 14.3496 9.57317 14.3502C9.80026 14.8043 10.2222 15.0121 10.6721 14.9765C11.1223 14.9411 11.6011 14.6755 11.9882 14.215C12.3571 13.7676 12.9699 13.5816 13.376 13.3368C13.579 13.2144 13.7436 13.061 13.7564 12.8383C13.7691 12.6158 13.6384 12.3664 13.3379 12.0328Z" fill="#202020"/>
<path d="M13.5714 12.8277C13.5636 12.9651 13.4641 13.0672 13.2804 13.1779C12.913 13.3994 12.262 13.5922 11.8465 14.0957C11.4854 14.5253 11.0452 14.7612 10.6576 14.7918C10.27 14.8224 9.93565 14.6615 9.73836 14.2658L9.73755 14.264C9.61511 14.0312 9.66603 13.6641 9.76911 13.2767C9.87212 12.8894 10.0203 12.4915 10.0401 12.1684C10.0609 11.7543 10.0842 11.3916 10.1538 11.1124C10.2234 10.8332 10.333 10.6444 10.527 10.538C10.5361 10.5332 10.5451 10.5285 10.554 10.524C10.576 10.8827 10.7537 11.2486 11.0675 11.3277C11.411 11.4183 11.906 11.1236 12.115 10.8832C12.1569 10.8815 12.1976 10.8794 12.2371 10.8785C12.4206 10.874 12.5743 10.8846 12.7316 11.022L12.7325 11.0228C12.8533 11.1253 12.9108 11.3186 12.9606 11.5352C13.0104 11.7518 13.0501 11.9877 13.1996 12.1558C13.4867 12.4744 13.5794 12.6902 13.5714 12.8277Z" fill="#F8BF11"/>
<path d="M6.59175 13.8433L6.59159 13.8443V13.8454C6.55838 14.2808 6.31289 14.5178 5.93587 14.6039C5.55917 14.69 5.04817 14.6042 4.53799 14.3374C4.53782 14.3374 4.53815 14.3374 4.53799 14.3374C3.97343 14.0384 3.30143 14.068 2.87052 13.9779C2.65515 13.933 2.5145 13.8653 2.45003 13.7396C2.38556 13.6138 2.3841 13.3945 2.52117 13.0206L2.52182 13.0189L2.52231 13.0173C2.5902 12.8081 2.53989 12.5792 2.50701 12.3643C2.47413 12.1497 2.45801 11.9541 2.53143 11.818L2.53208 11.8167C2.62601 11.6357 2.76373 11.5709 2.93466 11.5097C3.10575 11.4483 3.30843 11.4001 3.46845 11.2396L3.46943 11.2388L3.47024 11.238C3.61822 11.0819 3.72941 10.886 3.85947 10.7472C3.9692 10.63 4.07908 10.5523 4.24464 10.5512C4.24659 10.5514 4.24838 10.5514 4.25033 10.5512C4.27931 10.5514 4.31008 10.5538 4.34264 10.5589C4.56241 10.592 4.75401 10.7457 4.93862 10.9961L5.47159 11.9675C5.61338 12.2636 5.91341 12.5901 6.1672 12.9224C6.42099 13.2545 6.61731 13.588 6.59175 13.8433Z" fill="#F8BF11"/>
<path d="M9.24979 4.78784C9.20703 4.704 9.11959 4.62424 8.97078 4.56319C8.66132 4.43068 8.52622 4.42091 8.3535 4.30859C8.07233 4.12789 7.84005 4.06456 7.64697 4.06538C7.54587 4.0657 7.45551 4.08361 7.37461 4.11161C7.13941 4.19251 6.98331 4.36133 6.88542 4.45396C6.88542 4.45379 6.88542 4.45412 6.88542 4.45396C6.86623 4.47219 6.84115 4.48928 6.78126 4.53324C6.72087 4.57735 6.63035 4.64377 6.50012 4.74145C6.38437 4.82821 6.34677 4.94119 6.38682 5.07354C6.4267 5.20589 6.55433 5.35859 6.78777 5.49061C6.93268 5.57576 7.03242 5.691 7.14606 5.78233C7.20287 5.82791 7.26261 5.86861 7.33459 5.89938C7.40652 5.93014 7.49052 5.95098 7.59569 5.95717C7.8425 5.97149 8.02415 5.89742 8.18451 5.80561C8.34522 5.71396 8.48125 5.6018 8.63741 5.55117C8.95748 5.45121 9.18632 5.24951 9.25778 5.05824C9.2936 4.96251 9.29249 4.87168 9.24979 4.78784Z" fill="#D6A312"/>
<path d="M8.43791 5.26029C8.18328 5.39301 7.8859 5.55396 7.56938 5.55396C7.2531 5.55396 7.0032 5.40778 6.8235 5.26533C6.73364 5.1942 6.66071 5.12338 6.60569 5.07194C6.51023 4.99658 6.52166 4.89089 6.56088 4.89401C6.62663 4.90222 6.63657 4.98878 6.67797 5.0275C6.73397 5.07992 6.80413 5.1478 6.8891 5.2152C7.05908 5.34982 7.28565 5.48087 7.56938 5.48087C7.85265 5.48087 8.18334 5.31457 8.38518 5.20136C8.49951 5.13722 8.64499 5.02224 8.76376 4.93507C8.85458 4.86839 8.85126 4.78809 8.92628 4.79683C9.00129 4.80557 8.94582 4.88571 8.84076 4.97739C8.7357 5.06907 8.57138 5.19071 8.43791 5.26029Z" fill="#202020"/>
<path d="M12.3368 10.6936C12.3014 10.6923 12.2666 10.6925 12.2327 10.6933C12.2296 10.6934 12.2265 10.6934 12.2233 10.6934C12.3107 10.4173 12.1173 10.2137 11.6019 9.9806C11.0675 9.74552 10.6416 9.76879 10.5697 10.2458C10.5651 10.2707 10.5614 10.2962 10.5586 10.322C10.5185 10.336 10.4785 10.3535 10.4382 10.3755C10.1873 10.5129 10.0502 10.762 9.974 11.0677C9.898 11.3731 9.876 11.7421 9.85518 12.1571C9.85518 12.157 9.85518 12.1573 9.85518 12.1571C9.84235 12.3657 9.75636 12.6482 9.66945 12.9471C8.79398 13.5718 7.5789 13.8423 6.54713 13.1381C6.47728 13.0276 6.39703 12.918 6.31449 12.8099C6.26175 12.7409 6.20754 12.6723 6.15382 12.6047C6.25964 12.6048 6.34966 12.5874 6.42243 12.5545C6.51294 12.5133 6.57643 12.4476 6.60801 12.3629C6.67084 12.1938 6.60768 11.9551 6.40631 11.6824C6.20494 11.4099 5.86389 11.1024 5.36282 10.795C4.99459 10.566 4.78882 10.2852 4.69245 9.98042C4.59592 9.67551 4.60943 9.34587 4.68382 9.02049C4.82643 8.39586 5.19271 7.78831 5.42647 7.40705C5.48931 7.36079 5.44894 7.49303 5.18977 7.97422C4.95764 8.41411 4.52347 9.42923 5.11782 10.2217C5.13377 9.65778 5.2684 9.08267 5.49452 8.54461C5.82384 7.79823 6.51261 6.50356 6.56731 5.47179C6.59564 5.49231 6.6925 5.55775 6.73564 5.58233C6.73547 5.58233 6.7358 5.58249 6.73564 5.58233C6.86194 5.65673 6.95718 5.76563 7.08009 5.86445C7.20335 5.96342 7.35717 6.04889 7.58963 6.0624C7.61191 6.0637 7.63373 6.06435 7.65508 6.06435C7.89471 6.06435 8.08161 5.98621 8.23719 5.89717C8.40635 5.80047 8.54146 5.69336 8.66961 5.65168C8.66944 5.65168 8.66979 5.65152 8.66961 5.65168C8.94034 5.56703 9.15588 5.4171 9.27826 5.24258C9.48861 6.07152 9.97762 7.26886 10.292 7.85312C10.4592 8.16305 10.7915 8.82169 10.9352 9.61531C11.0262 9.61251 11.1264 9.6257 11.2337 9.65323C11.6093 8.67959 10.9153 7.63105 10.5979 7.33897C10.4697 7.21461 10.4635 7.15896 10.5272 7.16152C10.8713 7.46614 11.3234 8.07841 11.4878 8.7696C11.5629 9.08471 11.5788 9.41622 11.4984 9.74324C11.5376 9.75952 11.5777 9.77725 11.6182 9.7965C12.221 10.09 12.4439 10.3452 12.3368 10.6936Z" fill="white"/>
<path d="M8.04064 8.06158C7.48431 8.06363 6.94117 8.313 6.48179 8.77751C6.02239 9.24196 5.66792 9.90002 5.46436 10.6663L5.5254 10.7043V10.7078C5.99542 11.0062 6.33015 11.3056 6.53702 11.5856C6.7557 11.8817 6.85303 12.1701 6.76039 12.4195C6.71348 12.5453 6.61348 12.6462 6.48965 12.7026C6.47664 12.7085 6.46232 12.713 6.44882 12.718C6.5229 12.8152 6.59545 12.9153 6.6623 13.0181C7.60629 13.6464 8.70441 13.414 9.52854 12.8456C9.60904 12.5682 9.68237 12.3095 9.6924 12.1479C9.71328 11.7324 9.73423 11.3561 9.81584 11.0283C9.89809 10.6982 10.0581 10.3978 10.3597 10.2326C10.3767 10.2234 10.3941 10.2178 10.4111 10.2098C10.4165 10.1772 10.4241 10.1457 10.4332 10.1154C10.1906 9.49338 9.84191 8.97637 9.42214 8.61598C9.00232 8.25566 8.52597 8.06444 8.04064 8.06158ZM10.4093 10.2164L10.4085 10.2214C10.4086 10.2209 10.4088 10.2203 10.4089 10.2197C10.4091 10.2186 10.4091 10.2175 10.4093 10.2164Z" fill="#E6E6E6"/>
<path d="M9.27799 3.8329C9.27933 3.99715 9.25098 4.13699 9.18862 4.27975C9.15315 4.36115 9.11232 4.42952 9.06332 4.48878C9.0467 4.4808 9.02943 4.47315 9.01152 4.46583C8.94951 4.43929 8.89462 4.41748 8.8455 4.39892C8.79633 4.38036 8.75795 4.36768 8.7184 4.35401C8.74704 4.31933 8.8035 4.27847 8.8245 4.22719C8.85641 4.14986 8.87205 4.07433 8.87502 3.98431C8.87502 3.98073 8.87613 3.97763 8.87613 3.9734C8.87794 3.88712 8.8665 3.81338 8.8413 3.73784C8.81494 3.65856 8.7814 3.60159 8.73286 3.55422C8.68421 3.50684 8.63568 3.48535 8.57741 3.4834C8.57466 3.48324 8.57204 3.48324 8.5693 3.48324C8.51458 3.4834 8.46704 3.50228 8.41786 3.54331C8.36624 3.58645 8.32803 3.64163 8.29612 3.71847C8.26439 3.79531 8.24875 3.87149 8.2456 3.96201C8.24514 3.96559 8.24514 3.96868 8.24514 3.97226C8.24403 4.02207 8.2473 4.06765 8.25494 4.11194C8.14294 4.0561 7.99961 4.01538 7.90068 3.99178C7.89496 3.94896 7.8917 3.90485 7.89071 3.85862V3.84608C7.88896 3.68232 7.91579 3.54183 7.97879 3.39922C8.04179 3.25645 8.11978 3.1539 8.22951 3.07038C8.33935 2.98704 8.44732 2.94878 8.57507 2.94748H8.58114C8.70615 2.94748 8.81307 2.98426 8.92297 3.06387C9.0345 3.14494 9.11489 3.2462 9.1797 3.38783C9.24316 3.52587 9.27379 3.66083 9.27688 3.82085C9.27688 3.82508 9.27688 3.82866 9.27799 3.8329Z" fill="white"/>
<path d="M7.38829 3.99654C7.37184 4.00126 7.35586 4.00631 7.34005 4.01168C7.25057 4.04261 7.17946 4.07675 7.11074 4.12216C7.11745 4.07463 7.11839 4.02644 7.11319 3.97256C7.11273 3.96963 7.11273 3.96718 7.11273 3.96426C7.10555 3.89279 7.09039 3.83288 7.06519 3.77233C7.03829 3.70933 7.00819 3.66488 6.96864 3.6307C6.93283 3.59977 6.89899 3.58544 6.86154 3.58577C6.85781 3.58577 6.8539 3.58593 6.84999 3.58626C6.80797 3.58984 6.77313 3.61035 6.74009 3.65056C6.7072 3.6906 6.68555 3.74042 6.66992 3.80651C6.6543 3.87244 6.65023 3.93724 6.65674 4.01163C6.65674 4.01456 6.65739 4.017 6.65739 4.01993C6.66455 4.09205 6.67904 4.15195 6.70476 4.21251C6.73113 4.27486 6.76174 4.3193 6.8013 4.35349C6.80797 4.35918 6.81448 4.36439 6.82099 4.36895C6.77997 4.4007 6.75241 4.42322 6.71855 4.44796C6.6969 4.46375 6.67117 4.48263 6.64122 4.50477C6.57594 4.44356 6.52499 4.36673 6.48038 4.26531C6.42764 4.14549 6.39948 4.02552 6.39101 3.88389V3.88275C6.3832 3.74112 6.39704 3.61935 6.43594 3.49335C6.47501 3.36735 6.52711 3.27619 6.6028 3.20131C6.67834 3.12626 6.75453 3.08849 6.84632 3.08377C6.85349 3.08345 6.86049 3.08328 6.86749 3.08328C6.95068 3.08345 7.02494 3.11112 7.10176 3.17249C7.18512 3.23907 7.24812 3.32422 7.30085 3.44419C7.35376 3.56417 7.38194 3.68414 7.38975 3.82577V3.82691C7.39349 3.88633 7.39296 3.94233 7.38829 3.99654Z" fill="white"/>
<path d="M7.80606 4.33531C7.81662 4.36911 7.87105 4.36351 7.90255 4.37972C7.93014 4.39394 7.95236 4.42512 7.9834 4.42602C8.01303 4.42687 8.05917 4.41575 8.06302 4.38636C8.0681 4.34752 8.0114 4.32284 7.97494 4.30861C7.92798 4.2903 7.86778 4.28101 7.82374 4.30551C7.81365 4.31112 7.80262 4.32428 7.80606 4.33531Z" fill="#202020"/>
<path d="M7.48433 4.33531C7.47378 4.36911 7.41929 4.36351 7.38785 4.37972C7.3602 4.39394 7.33804 4.42512 7.30694 4.42602C7.27731 4.42687 7.23123 4.41575 7.22738 4.38636C7.22224 4.34752 7.27894 4.32284 7.31546 4.30861C7.36242 4.2903 7.42256 4.28101 7.46666 4.30551C7.47675 4.31112 7.48778 4.32428 7.48433 4.33531Z" fill="#202020"/>
</g>
</g>
</svg>
