<svg width="16" height="16" viewBox="0 0 16 16" fill="none" xmlns="http://www.w3.org/2000/svg">
<g id="size=16">
<g id="Group">
<path id="Vector" d="M13.3379 12.0328C13.3377 12.0326 13.3375 12.0325 13.3375 12.0323C13.2387 11.9208 13.1916 11.7141 13.1411 11.4938C13.0906 11.2737 13.0341 11.0364 12.8534 10.8825C12.8531 10.8822 12.8526 10.8819 12.8523 10.8815C12.8164 10.8503 12.7796 10.8239 12.7427 10.8019C12.7056 10.78 12.668 10.7621 12.6304 10.7479C12.8816 10.003 12.7831 9.26116 12.5294 8.59091C12.2184 7.76818 11.6752 7.05144 11.2602 6.56109C10.7958 5.97521 10.3415 5.41912 10.3505 4.59767C10.3643 3.34403 10.4884 1.01921 8.28225 1.01612C8.19253 1.01596 8.09897 1.0197 8.00143 1.02751C5.53613 1.22596 6.19006 3.83061 6.15343 4.70267C6.10834 5.34049 5.97908 5.84319 5.54036 6.46667C5.02513 7.07944 4.2994 8.07128 3.95575 9.1039C3.79361 9.59109 3.71645 10.0878 3.78759 10.5579C3.76529 10.5779 3.74413 10.599 3.72377 10.6204C3.57255 10.7821 3.46071 10.9777 3.33617 11.1095C3.21978 11.2257 3.05406 11.2698 2.87173 11.3351C2.6894 11.4005 2.48934 11.4969 2.36789 11.73C2.36789 11.73 2.36789 11.7302 2.36773 11.7302C2.36757 11.7305 2.3674 11.731 2.36708 11.7313C2.30994 11.8379 2.29138 11.953 2.29138 12.0697C2.29138 12.1777 2.30734 12.2871 2.32345 12.3924C2.35698 12.6115 2.39101 12.8187 2.34592 12.9591C2.20168 13.3535 2.18313 13.6262 2.28471 13.8242C2.38661 14.0224 2.5958 14.1099 2.83234 14.1594C3.3054 14.258 3.94598 14.2336 4.4508 14.5012L4.49427 14.4193L4.45129 14.5014C4.99175 14.784 5.53971 14.8843 5.9768 14.7845C6.29392 14.7122 6.55113 14.5234 6.68331 14.2329C7.02517 14.2313 7.40043 14.0864 8.00143 14.0534C8.40924 14.0205 8.91861 14.1983 9.50445 14.1657C9.51979 14.2292 9.54196 14.2904 9.57218 14.3485C9.57253 14.349 9.57282 14.3496 9.57317 14.3502C9.80026 14.8043 10.2222 15.0121 10.6721 14.9765C11.1223 14.9411 11.6011 14.6755 11.9882 14.215L11.9172 14.1554L11.9887 14.2144C12.3576 13.767 12.9699 13.5816 13.376 13.3368C13.579 13.2144 13.7436 13.061 13.7564 12.8383C13.7691 12.6158 13.6384 12.3664 13.3379 12.0328Z" fill="#202020"/>
<path id="Vector_2" d="M13.5714 12.8276C13.5636 12.965 13.4641 13.0671 13.2804 13.1778C12.913 13.3994 12.262 13.5921 11.8465 14.0956C11.4854 14.5252 11.0452 14.7611 10.6576 14.7917C10.27 14.8223 9.93565 14.6615 9.73836 14.2657L9.73801 14.2649L9.73755 14.2639C9.61511 14.0311 9.66603 13.664 9.76911 13.2766C9.87212 12.8893 10.0203 12.4914 10.0401 12.1683V12.1674C10.0609 11.7532 10.0842 11.3915 10.1538 11.1123C10.2234 10.8331 10.333 10.6443 10.527 10.5379C10.5361 10.5331 10.5451 10.5284 10.554 10.5239C10.576 10.8826 10.7537 11.2485 11.0675 11.3276C11.411 11.4182 11.906 11.1235 12.115 10.8831C12.1569 10.8815 12.1976 10.8794 12.2371 10.8784C12.4206 10.8739 12.5743 10.8845 12.7316 11.0219L12.732 11.0224L12.7325 11.0227C12.8533 11.1252 12.9108 11.3185 12.9606 11.5351C13.0104 11.7517 13.0501 11.9876 13.1996 12.1557L13.1997 12.1559L13.1999 12.1563C13.4871 12.4748 13.5794 12.6901 13.5714 12.8276Z" fill="#F8BF11"/>
<path id="Vector_3" d="M6.59175 13.8434L6.59159 13.8444V13.8455C6.55838 14.2808 6.31289 14.5178 5.93587 14.6039C5.55917 14.6901 5.04817 14.6043 4.53799 14.3375C4.53782 14.3375 4.53766 14.3373 4.5375 14.3373C3.97294 14.0383 3.30143 14.068 2.87052 13.978C2.65515 13.9331 2.5145 13.8654 2.45003 13.7397C2.38556 13.6138 2.3841 13.3946 2.52117 13.0206L2.52182 13.019L2.52231 13.0174C2.5902 12.8082 2.53989 12.5793 2.50701 12.3644C2.47413 12.1497 2.45801 11.9542 2.53143 11.8181L2.53208 11.8168C2.62601 11.6357 2.76373 11.571 2.93466 11.5097C3.10575 11.4484 3.30843 11.4002 3.46845 11.2397L3.46943 11.2388L3.47024 11.2381C3.61822 11.0819 3.72941 10.8861 3.85947 10.7473C3.9692 10.63 4.07908 10.5524 4.24464 10.5513C4.24659 10.5514 4.24838 10.5514 4.25033 10.5513C4.27931 10.5514 4.31008 10.5538 4.34264 10.5589C4.56241 10.5921 4.75401 10.7458 4.93862 10.9962L5.47159 11.9675L5.47175 11.968L5.47208 11.9684C5.61387 12.2645 5.91341 12.5902 6.1672 12.9225C6.42099 13.2546 6.61731 13.5881 6.59175 13.8434Z" fill="#F8BF11"/>
<path id="Vector_4" d="M9.24979 4.7879C9.20703 4.70407 9.11959 4.6243 8.97078 4.56325L8.97049 4.56309L8.96996 4.56293C8.66051 4.43041 8.52622 4.42097 8.3535 4.30865C8.07233 4.12795 7.84005 4.06462 7.64697 4.06544C7.54587 4.06576 7.45552 4.08367 7.37461 4.11167C7.13941 4.19258 6.98331 4.36139 6.88542 4.45402L6.88531 4.45418C6.88531 4.45435 6.88513 4.45435 6.88513 4.45451C6.86594 4.47274 6.84115 4.48935 6.78126 4.5333C6.72087 4.57741 6.63035 4.64384 6.50012 4.74151C6.38437 4.82827 6.34677 4.94125 6.38682 5.0736C6.4267 5.20595 6.55433 5.35865 6.78777 5.49067L6.78809 5.49099L6.78858 5.49116C6.93349 5.5763 7.03242 5.69107 7.14606 5.78239C7.20287 5.82797 7.26261 5.86867 7.33459 5.89944C7.40651 5.9302 7.49051 5.95105 7.59569 5.95723C7.8425 5.97155 8.02415 5.89748 8.18451 5.80567C8.34522 5.71402 8.48125 5.60186 8.63741 5.55123L8.6377 5.55106L8.63805 5.5509C8.95812 5.45095 9.18632 5.24958 9.25778 5.0583C9.2936 4.96258 9.29249 4.87174 9.24979 4.7879Z" fill="#D6A312"/>
<path id="Vector_5" d="M8.43791 5.26026C8.18328 5.39298 7.8859 5.55393 7.56938 5.55393C7.2531 5.55393 7.0032 5.40775 6.8235 5.2653C6.73364 5.19417 6.66071 5.12335 6.60569 5.07191C6.51023 4.99655 6.52166 4.89086 6.56088 4.89398C6.62663 4.90218 6.63657 4.98875 6.67797 5.02747C6.73397 5.07989 6.80413 5.14777 6.8891 5.21517C7.05908 5.34979 7.28565 5.48084 7.56938 5.48084C7.85265 5.48084 8.18334 5.31454 8.38518 5.20133C8.49951 5.13719 8.64499 5.02221 8.76376 4.93504C8.85458 4.86836 8.85126 4.78806 8.92628 4.7968C9.00129 4.80554 8.94582 4.88568 8.84076 4.97736C8.7357 5.06904 8.57138 5.19068 8.43791 5.26026Z" fill="#202020"/>
<path id="Vector_6" d="M12.3368 10.6937C12.3014 10.6924 12.2666 10.6926 12.2327 10.6934C12.2296 10.6935 12.2265 10.6935 12.2233 10.6935C12.3107 10.4174 12.1173 10.2138 11.6019 9.98069C11.0675 9.74561 10.6416 9.76888 10.5697 10.2459C10.5651 10.2708 10.5614 10.2963 10.5586 10.3221C10.5185 10.3361 10.4785 10.3536 10.4382 10.3756C10.1873 10.513 10.0502 10.7621 9.974 11.0678C9.898 11.3732 9.876 11.7422 9.85518 12.1572C9.85518 12.1574 9.85518 12.1574 9.85518 12.1575C9.84235 12.3661 9.75636 12.6483 9.66945 12.9472C8.79398 13.5719 7.5789 13.8424 6.54713 13.1382C6.47728 13.0277 6.39703 12.9181 6.31449 12.81C6.26175 12.741 6.20754 12.6724 6.15382 12.6048C6.25964 12.6049 6.34966 12.5875 6.42243 12.5546C6.51294 12.5134 6.57643 12.4477 6.60801 12.363C6.67084 12.1939 6.60768 11.9552 6.40631 11.6825C6.20494 11.41 5.86389 11.1025 5.36282 10.7951C5.36282 10.7951 5.36282 10.7951 5.36282 10.795C4.99459 10.5659 4.78882 10.2852 4.69245 9.98051C4.59592 9.67561 4.60943 9.34596 4.68382 9.02058C4.82643 8.39595 5.19271 7.78841 5.42647 7.40714C5.48931 7.36088 5.44894 7.49312 5.18977 7.97431C4.95764 8.41421 4.52347 9.42932 5.11782 10.2218C5.13377 9.65787 5.2684 9.08276 5.49452 8.5447C5.82384 7.79832 6.51261 6.50366 6.56731 5.47188C6.59564 5.4924 6.6925 5.55784 6.73564 5.58242C6.7358 5.58258 6.7358 5.58258 6.73596 5.58258C6.86227 5.65698 6.95718 5.76572 7.08009 5.86454C7.20335 5.96351 7.35717 6.04898 7.58963 6.06249C7.61191 6.06379 7.63373 6.06445 7.65508 6.06445C7.89471 6.06445 8.08161 5.9863 8.23719 5.89726C8.40635 5.80056 8.54146 5.69345 8.66961 5.65177C8.66979 5.65161 8.66991 5.65161 8.67008 5.65161C8.9408 5.56696 9.15588 5.41719 9.27826 5.24268C9.48861 6.07161 9.97762 7.26895 10.292 7.85321C10.4592 8.16314 10.7915 8.82178 10.9352 9.61541C11.0262 9.61261 11.1264 9.62579 11.2337 9.65332C11.6093 8.67968 10.9153 7.63114 10.5979 7.33906C10.4697 7.2147 10.4635 7.15905 10.5272 7.16162C10.8713 7.46623 11.3234 8.0785 11.4878 8.76969C11.5629 9.08481 11.5788 9.41631 11.4984 9.74333C11.5376 9.75961 11.5777 9.77734 11.6182 9.79659C12.221 10.0901 12.4439 10.3453 12.3368 10.6937Z" fill="white"/>
<path id="Vector_7" d="M8.04064 8.06152C7.48431 8.06357 6.94117 8.31294 6.48179 8.77745C6.02239 9.2419 5.66792 9.89996 5.46436 10.6663L5.5254 10.7043V10.7077C5.99542 11.0061 6.33015 11.3056 6.53702 11.5855V11.5856H6.53706C6.75573 11.8817 6.85303 12.1701 6.76039 12.4194L6.76035 12.4195L6.76032 12.4196C6.71341 12.5454 6.61348 12.6462 6.48965 12.7025L6.48943 12.7026L6.48924 12.7027C6.47622 12.7086 6.46232 12.7129 6.44882 12.718C6.5229 12.8151 6.59545 12.9153 6.6623 13.018C7.60629 13.6463 8.70441 13.4139 9.52854 12.8455C9.60904 12.5681 9.68237 12.3095 9.6924 12.1478C9.71328 11.7324 9.73423 11.3561 9.81584 11.0282C9.89809 10.6981 10.0581 10.3978 10.3597 10.2326L10.3599 10.2325L10.3601 10.2324C10.3771 10.2232 10.3941 10.2178 10.4111 10.2098C10.4165 10.1771 10.4241 10.1457 10.4332 10.1154C10.1906 9.49332 9.84191 8.97631 9.42214 8.61592C9.00232 8.2556 8.52597 8.06438 8.04064 8.06152ZM10.4093 10.2163L10.4085 10.2214C10.4086 10.2208 10.4088 10.2203 10.4089 10.2197C10.4091 10.2186 10.4091 10.2174 10.4093 10.2163Z" fill="#E6E6E6"/>
<path id="Vector_8" d="M9.27799 3.83293C9.27933 3.99718 9.25098 4.13702 9.18862 4.27978C9.15315 4.36118 9.11232 4.42956 9.06332 4.48881C9.0467 4.48083 9.02943 4.47318 9.01152 4.46586C8.94951 4.43932 8.89462 4.41751 8.8455 4.39895C8.79633 4.38039 8.75795 4.36771 8.7184 4.35404C8.74704 4.31936 8.8035 4.2785 8.8245 4.22722C8.85641 4.14989 8.87205 4.07436 8.87502 3.98434C8.87502 3.98076 8.87613 3.97766 8.87613 3.97343C8.87794 3.88715 8.8665 3.81341 8.8413 3.73787C8.81494 3.65859 8.7814 3.60162 8.73286 3.55425C8.68421 3.50687 8.63568 3.48538 8.57741 3.48343C8.57466 3.48327 8.57204 3.48327 8.5693 3.48327C8.51458 3.48343 8.46704 3.50231 8.41786 3.54334C8.36624 3.58648 8.32803 3.64166 8.29612 3.7185C8.26439 3.79534 8.24875 3.87152 8.2456 3.96204C8.24514 3.96562 8.24514 3.96871 8.24514 3.97229C8.24403 4.0221 8.2473 4.06768 8.25494 4.11197C8.14294 4.05613 7.99961 4.01541 7.90068 3.99181C7.89496 3.94899 7.8917 3.90488 7.89071 3.85865V3.84611C7.88896 3.68235 7.91579 3.54186 7.97879 3.39925C8.04179 3.25648 8.11978 3.15393 8.22951 3.07041C8.33935 2.98707 8.44732 2.94881 8.57507 2.94751H8.58114C8.70615 2.94751 8.81307 2.98429 8.92297 3.0639C9.03451 3.14497 9.11489 3.24623 9.1797 3.38786C9.24316 3.5259 9.27379 3.66086 9.27688 3.82088C9.27688 3.82511 9.27688 3.82869 9.27799 3.83293Z" fill="white"/>
<path id="Vector_9" d="M7.38829 3.99651C7.37184 4.00123 7.35586 4.00628 7.34005 4.01165C7.25057 4.04258 7.17946 4.07672 7.11074 4.12213C7.11745 4.0746 7.11839 4.02641 7.11319 3.97253C7.11273 3.9696 7.11273 3.96715 7.11273 3.96423C7.10555 3.89276 7.09039 3.83285 7.06519 3.7723C7.03829 3.7093 7.00819 3.66485 6.96864 3.63067C6.93283 3.59974 6.89899 3.58541 6.86154 3.58574C6.85781 3.58574 6.8539 3.5859 6.84999 3.58623C6.80797 3.58981 6.77313 3.61032 6.74009 3.65053C6.7072 3.69057 6.68555 3.74039 6.66992 3.80648C6.6543 3.87241 6.65023 3.93721 6.65674 4.0116C6.65674 4.01453 6.65739 4.01697 6.65739 4.0199C6.66455 4.09202 6.67904 4.15192 6.70476 4.21248C6.73113 4.27483 6.76174 4.31927 6.8013 4.35346C6.80797 4.35915 6.81448 4.36436 6.82099 4.36892C6.77997 4.40067 6.75241 4.42319 6.71855 4.44793C6.6969 4.46372 6.67117 4.4826 6.64122 4.50474C6.57594 4.44353 6.52499 4.3667 6.48038 4.26528C6.42764 4.14546 6.39948 4.02549 6.39101 3.88386V3.88272C6.3832 3.74109 6.39704 3.61932 6.43594 3.49332C6.47501 3.36732 6.52711 3.27616 6.6028 3.20128C6.67834 3.12623 6.75453 3.08846 6.84632 3.08374C6.85349 3.08342 6.86049 3.08325 6.86749 3.08325C6.95068 3.08342 7.02494 3.11109 7.10176 3.17246C7.18512 3.23904 7.24812 3.32419 7.30085 3.44416C7.35376 3.56414 7.38194 3.68411 7.38975 3.82574V3.82688C7.39349 3.8863 7.39296 3.9423 7.38829 3.99651Z" fill="white"/>
<path id="Vector_10" d="M7.80606 4.3354C7.81662 4.3692 7.87105 4.3636 7.90255 4.37981C7.93014 4.39403 7.95236 4.42521 7.9834 4.42611C8.01303 4.42696 8.05917 4.41584 8.06302 4.38645C8.0681 4.34761 8.0114 4.32293 7.97494 4.30871C7.92798 4.2904 7.86778 4.2811 7.82374 4.3056C7.81365 4.31121 7.80262 4.32437 7.80606 4.3354Z" fill="#202020"/>
<path id="Vector_11" d="M7.48434 4.3354C7.47378 4.3692 7.41929 4.3636 7.38785 4.37981C7.3602 4.39403 7.33803 4.42521 7.30694 4.42611C7.27731 4.42696 7.23123 4.41584 7.22738 4.38645C7.22224 4.34761 7.27894 4.32293 7.31546 4.30871C7.36242 4.2904 7.42256 4.2811 7.46666 4.3056C7.47675 4.31121 7.48778 4.32437 7.48434 4.3354Z" fill="#202020"/>
</g>
</g>
</svg>
