<svg width="16" height="16" viewBox="0 0 16 16" fill="none" xmlns="http://www.w3.org/2000/svg">
<g id="size=16">
<g id="Group">
<path id="Vector" d="M8.29411 1C8.20369 1 8.11036 1.00467 8.01411 1.01225C5.54894 1.2065 6.20286 3.81633 6.16494 4.68608C6.12061 5.32308 5.98994 5.82533 5.55244 6.44775C5.03619 7.06083 4.31169 8.05192 3.96811 9.085C3.80594 9.57033 3.72894 10.0673 3.80069 10.5369C3.77409 10.5584 3.75224 10.5853 3.73653 10.6157C3.58486 10.772 3.47403 10.9657 3.34978 11.1051C3.23369 11.2212 3.06686 11.2608 2.88486 11.3384C2.70228 11.4177 2.50103 11.4953 2.38086 11.7351C2.32836 11.8453 2.30153 11.9649 2.30386 12.0862C2.30386 12.2023 2.31961 12.3196 2.33594 12.3989C2.36978 12.6317 2.40361 12.8236 2.35928 12.9647C2.21403 13.3614 2.19594 13.6327 2.29744 13.8304C2.39894 14.0253 2.60953 14.1046 2.84578 14.181C3.31828 14.2977 3.95994 14.2597 4.46394 14.531C5.00411 14.8028 5.55244 14.9218 5.98994 14.8052C6.29678 14.7375 6.55578 14.5345 6.69461 14.2533C7.03703 14.2516 7.41211 14.0964 8.01294 14.0585C8.42069 14.0247 8.93111 14.2142 9.51619 14.1752C9.53078 14.2533 9.55294 14.2907 9.58269 14.3694L9.58444 14.3712C9.81253 14.825 10.2337 15.0315 10.6834 14.9959C11.1332 14.9609 11.6121 14.6832 12 14.2341C12.3681 13.7878 12.9818 13.6017 13.3872 13.3573C13.5902 13.2413 13.7541 13.0837 13.7658 12.8597C13.7792 12.6264 13.6491 12.3867 13.3493 12.0571V12.0005L13.3475 11.9987C13.2484 11.8821 13.2017 11.6867 13.1504 11.4586C13.1008 11.2247 13.0442 11.0001 12.8634 10.8484H12.8616C12.8272 10.8169 12.7899 10.8093 12.7519 10.7697C12.7193 10.7469 12.6809 10.7339 12.6411 10.7323C12.8925 9.98683 12.7951 9.24483 12.5402 8.5775C12.2293 7.755 11.6856 7.03867 11.2714 6.54575C10.8071 5.9595 10.3521 5.40417 10.3614 4.58108C10.3766 3.32575 10.4991 1.0035 8.29411 1V1ZM8.60269 2.98625H8.61028C8.73453 2.98625 8.84128 3.02242 8.95094 3.10175C9.06178 3.1805 9.14344 3.29542 9.20644 3.41267C9.26769 3.56375 9.29861 3.68042 9.30328 3.835C9.30328 3.82333 9.30678 3.81167 9.30678 3.8V3.86125C9.30549 3.85728 9.30471 3.85316 9.30444 3.849L9.30211 3.835C9.30094 3.97677 9.27118 4.11684 9.21461 4.24683C9.18737 4.31997 9.14504 4.38656 9.09036 4.44225C9.07383 4.43292 9.05668 4.42473 9.03903 4.41775C8.97836 4.3915 8.92353 4.38042 8.87336 4.34017C8.83179 4.32361 8.78885 4.31072 8.74503 4.30167C8.77419 4.26667 8.83019 4.22408 8.85178 4.18617C8.88269 4.1115 8.89961 4.03217 8.90311 3.95167V3.94C8.90443 3.86078 8.8924 3.7819 8.86753 3.70667C8.84128 3.6285 8.80861 3.59 8.76078 3.51242C8.71178 3.47392 8.66336 3.43542 8.60503 3.43542H8.59569C8.54144 3.43542 8.49303 3.45292 8.44286 3.51242C8.38746 3.56644 8.34637 3.6334 8.32328 3.70725C8.2923 3.78137 8.27453 3.86034 8.27078 3.94058V3.95167C8.27194 4.00358 8.27544 4.05608 8.28244 4.10742C8.16986 4.06833 8.02694 4.02867 7.92836 3.98958C7.92247 3.95095 7.91897 3.91198 7.91786 3.87292V3.86125C7.91328 3.70726 7.94317 3.5542 8.00536 3.41325C8.05319 3.28492 8.14069 3.17642 8.25619 3.10233C8.35591 3.02675 8.47757 2.98579 8.60269 2.98567V2.98625ZM6.87486 3.02067H6.89586C6.97869 3.02067 7.05336 3.04867 7.12861 3.09942C7.21378 3.17467 7.28261 3.26742 7.32928 3.37067C7.38178 3.48675 7.41094 3.604 7.41853 3.75975V3.76208C7.42261 3.84025 7.42203 3.87875 7.41736 3.91725V3.96392C7.39986 3.968 7.38469 3.97442 7.36894 3.97792C7.28028 4.01 7.20911 4.05667 7.13969 4.09458C7.14669 4.04208 7.14728 3.98958 7.14144 3.93883V3.93008C7.13444 3.8525 7.11811 3.81342 7.09361 3.73583C7.07542 3.67638 7.04205 3.6227 6.99678 3.58008C6.9824 3.56701 6.96554 3.55697 6.9472 3.55055C6.92886 3.54414 6.90942 3.54149 6.89003 3.54275H6.87778C6.83636 3.54625 6.80194 3.56608 6.76928 3.61975C6.73207 3.66491 6.70787 3.71936 6.69928 3.77725C6.68351 3.84013 6.67897 3.90529 6.68586 3.96975V3.9785C6.69286 4.05725 6.70744 4.09517 6.73253 4.17333C6.75936 4.2515 6.78969 4.29 6.82936 4.32967C6.83519 4.33492 6.84103 4.34017 6.84919 4.34367C6.80836 4.37692 6.78094 4.3845 6.74653 4.423C6.7247 4.4423 6.69845 4.45592 6.67011 4.46267C6.60947 4.38965 6.55577 4.31114 6.50969 4.22817C6.45454 4.10558 6.42383 3.97342 6.41928 3.83908C6.40962 3.7074 6.42546 3.57509 6.46594 3.44942C6.49807 3.3348 6.55436 3.22839 6.63103 3.13733C6.70569 3.05975 6.78269 3.02067 6.87486 3.02067ZM7.67403 4.01583C7.86769 4.01583 8.10161 4.05375 8.38336 4.24858C8.55428 4.36525 8.68844 4.4055 8.99703 4.52158H8.99878C9.14753 4.60092 9.23503 4.67675 9.27761 4.75433V4.67792C9.29854 4.72033 9.3102 4.76672 9.31181 4.81399C9.31342 4.86127 9.30494 4.90834 9.28694 4.95208C9.21519 5.13292 8.98594 5.32717 8.66686 5.44325V5.44442C8.51053 5.52317 8.37461 5.63867 8.21478 5.71567C8.05378 5.79442 7.87178 5.886 7.62444 5.87142C7.53559 5.87602 7.44673 5.86273 7.36311 5.83233C7.2985 5.79718 7.2358 5.75863 7.17528 5.71683C7.06153 5.63808 6.96353 5.52317 6.81828 5.44558V5.44267H6.81536C6.58203 5.29917 6.45603 5.144 6.41519 5.0285C6.37436 4.87217 6.41228 4.75433 6.52778 4.6785C6.65844 4.59975 6.74944 4.52042 6.80953 4.4825C6.87019 4.43933 6.89294 4.423 6.91219 4.40608H6.91336V4.40433C7.01194 4.2865 7.16769 4.13017 7.40278 4.05375C7.48386 4.03275 7.57428 4.01583 7.67461 4.01583H7.67403ZM9.30736 5.26533C9.51619 6.09192 10.005 7.29242 10.3194 7.87458C10.4863 8.18608 10.8182 8.84233 10.9623 9.63858C11.0533 9.63567 11.1548 9.64908 11.2615 9.67592C11.6384 8.70117 10.943 7.6535 10.6263 7.36242C10.4979 7.24575 10.4909 7.167 10.5545 7.167C10.8987 7.4785 11.3508 8.084 11.5147 8.77525C11.5905 9.08733 11.608 9.41925 11.5269 9.74942C11.566 9.76575 11.6057 9.78442 11.6465 9.7885C12.2485 10.1 12.4708 10.3357 12.364 10.6851V10.66C12.329 10.6582 12.294 10.66 12.259 10.66H12.2497C12.3378 10.3876 12.1435 10.1788 11.6284 9.946C11.0947 9.71267 10.6683 9.75 10.5959 10.2172C10.5913 10.2423 10.5884 10.2557 10.5854 10.296C10.5458 10.3094 10.5044 10.3269 10.4635 10.3333C10.2127 10.4897 10.0774 10.7236 10.0009 11.0258C9.92511 11.3367 9.90178 11.7001 9.88136 12.116V12.1177C9.86969 12.3126 9.78219 12.6066 9.69528 12.9052C8.82028 13.5306 7.60694 13.8024 6.57561 13.1001C6.51089 12.987 6.4321 12.8825 6.34111 12.7892C6.29764 12.7168 6.24356 12.6513 6.18069 12.5949C6.28686 12.5949 6.37786 12.5774 6.45194 12.5558C6.53583 12.5169 6.60145 12.4471 6.63511 12.361C6.69811 12.2052 6.63511 11.9544 6.43386 11.6826C6.23261 11.4102 5.89078 11.1022 5.39086 10.7953C5.02336 10.562 4.81569 10.2878 4.72003 9.981C4.62378 9.6695 4.63661 9.34808 4.71128 9.02142C4.85419 8.39725 5.22053 7.79058 5.45444 7.40967C5.51686 7.37175 5.47603 7.48842 5.21644 7.97783C4.98544 8.41592 4.55144 9.43442 5.14528 10.226C5.16771 9.64844 5.29562 9.07986 5.52269 8.54833C5.85169 7.80283 6.53944 6.50433 6.59369 5.47533C6.62169 5.49633 6.72028 5.55408 6.76228 5.59317C6.88944 5.67075 6.98394 5.78742 7.10644 5.86442C7.22894 5.98167 7.38469 6.05983 7.61744 6.05983C7.64019 6.06158 7.66119 6.06333 7.68161 6.06333C7.92194 6.06333 8.10744 5.98517 8.26319 5.907C8.43236 5.82883 8.56653 5.71217 8.69486 5.67367H8.69778C8.97019 5.59492 9.18486 5.43917 9.30678 5.26533H9.30736ZM10.5819 10.4908C10.6035 10.8408 10.782 11.2171 11.0964 11.2941C11.4394 11.3722 11.9329 11.0998 12.1412 10.8478L12.2643 10.842C12.448 10.8379 12.6009 10.8478 12.7584 10.9983L12.7601 11.0001C12.8814 11.1162 12.938 11.3092 12.9882 11.5111C13.0378 11.7444 13.078 11.9661 13.2268 12.1329C13.5103 12.4403 13.603 12.6614 13.5978 12.7979L13.5995 12.7938V12.8043L13.5978 12.7973C13.589 12.9502 13.4899 13.0283 13.3073 13.1444C12.9398 13.3783 12.2888 13.5597 11.874 14.0602C11.5135 14.4902 11.0749 14.7252 10.6864 14.755C10.299 14.7859 9.96478 14.6383 9.76819 14.2312L9.76528 14.2294C9.64278 13.9961 9.69528 13.6315 9.79794 13.2436C9.90061 12.8539 10.0476 12.4596 10.068 12.137C10.0896 11.7205 10.1124 11.3582 10.1818 11.0788C10.2518 10.8076 10.3614 10.6139 10.5557 10.5048L10.5819 10.492V10.4908ZM4.27378 10.5194H4.27961C4.31053 10.5194 4.34086 10.5223 4.37119 10.5276C4.59053 10.5597 4.78303 10.7218 4.96794 10.9662L5.49878 11.9369L5.50053 11.9387C5.64228 12.2496 5.94036 12.5593 6.19411 12.8936C6.44728 13.2424 6.64328 13.5533 6.61936 13.8094V13.8129C6.58611 14.2469 6.33936 14.4826 5.96311 14.5677C5.58686 14.6465 5.07644 14.5689 4.56603 14.2971C4.00136 13.9844 3.33053 14.0235 2.89944 13.9459C2.68419 13.9074 2.54361 13.8292 2.47769 13.7126C2.41353 13.5959 2.41178 13.3614 2.54944 12.9951V12.9927L2.55061 12.991C2.61886 12.7962 2.56811 12.5523 2.53486 12.3388C2.50278 12.1049 2.48644 11.9247 2.55994 11.7905C2.65328 11.5957 2.79094 11.5572 2.96244 11.4796C3.13394 11.4008 3.33578 11.3618 3.49619 11.2054H3.49736V11.2042C3.64669 11.0479 3.75694 10.8537 3.88703 10.7154C3.99786 10.5982 4.10869 10.5194 4.27378 10.5194ZM8.44986 5.22625C8.19611 5.3435 7.89861 5.53833 7.58186 5.53833C7.26569 5.53833 7.01603 5.38258 6.83519 5.2665C6.74536 5.18833 6.67186 5.11017 6.61761 5.07108C6.52194 4.99292 6.53361 4.87683 6.57444 4.87683C6.63803 4.88617 6.64969 4.955 6.69053 4.9935C6.74653 5.032 6.81594 5.11017 6.90053 5.18775C7.07086 5.30442 7.29719 5.46017 7.58128 5.46017C7.86419 5.46017 8.19553 5.30442 8.39678 5.18833C8.51053 5.10958 8.65636 4.9935 8.77478 4.91592C8.86578 4.83658 8.86169 4.76017 8.93753 4.76017C9.01219 4.7695 8.95736 4.83833 8.85178 4.95383C8.72239 5.05168 8.58804 5.14281 8.44928 5.22683L8.44986 5.22625ZM7.81869 4.30283V4.29C7.81519 4.27833 7.82628 4.2655 7.83561 4.26083C7.87878 4.23575 7.94061 4.24508 7.98728 4.26317C8.02403 4.26317 8.08061 4.30225 8.07478 4.34192C8.07128 4.3705 8.02519 4.38042 7.99603 4.38042C7.96394 4.38042 7.94236 4.35533 7.91378 4.34075C7.88344 4.33025 7.82861 4.33608 7.81869 4.30283ZM7.49728 4.30283C7.48561 4.33667 7.43136 4.33142 7.40044 4.34133C7.37303 4.35592 7.35028 4.381 7.31878 4.381C7.28961 4.381 7.24294 4.36933 7.23944 4.34133C7.23361 4.30283 7.29078 4.26375 7.32694 4.26375C7.37361 4.24567 7.43428 4.23633 7.47803 4.26083C7.48911 4.26608 7.49903 4.27833 7.49553 4.29V4.30167H7.49728V4.30283Z" fill="#000001"/>
</g>
</g>
</svg>
