<svg width="24" height="24" viewBox="0 0 24 24" fill="none" xmlns="http://www.w3.org/2000/svg">
<g id="size=24">
<g id="Path">
<path d="M19.6256 17.7613C19.6253 17.7611 19.6256 17.7615 19.6256 17.7613C19.4844 17.602 19.4167 17.306 19.3444 16.9913C19.2723 16.6769 19.1916 16.3378 18.9335 16.1181C18.933 16.1176 18.9323 16.1172 18.9318 16.1167C18.8807 16.072 18.8281 16.0343 18.7753 16.0029C18.7223 15.9716 18.6686 15.946 18.6149 15.9257C18.9738 14.8616 18.833 13.8018 18.4707 12.8443C18.0262 11.669 17.2503 10.6451 16.6574 9.94459C15.994 9.10762 15.3451 8.3132 15.3579 7.13971C15.3777 5.34878 15.5548 2.02762 12.4033 2.0232C12.2751 2.02297 12.1414 2.02832 12.0021 2.03948C8.48022 2.32297 9.4144 6.0439 9.36208 7.28971C9.29766 8.20088 9.11301 8.91902 8.48626 9.80971C7.75022 10.6851 6.71347 12.102 6.22254 13.5772C5.99091 14.2732 5.88068 14.9828 5.98231 15.6543C5.95045 15.6829 5.92022 15.713 5.89114 15.7437C5.6751 15.9746 5.51533 16.2541 5.33743 16.4423C5.17114 16.6083 4.9344 16.6713 4.67393 16.7646C4.41347 16.8581 4.12766 16.9958 3.95417 17.3288C3.95393 17.3293 3.95347 17.3302 3.95301 17.3306C3.87138 17.4829 3.84487 17.6473 3.84487 17.8141C3.84487 17.9683 3.86766 18.1246 3.89068 18.275C3.93858 18.5881 3.98719 18.8841 3.92278 19.0846C3.71673 19.6481 3.69022 20.0376 3.83533 20.3204C3.98091 20.6037 4.27975 20.7286 4.61766 20.7992C5.29347 20.9402 6.20858 20.9053 6.92975 21.2876C7.70184 21.6913 8.48533 21.8348 9.10975 21.6922C9.56278 21.589 9.93022 21.3193 10.1191 20.9043C10.6074 20.902 11.1435 20.6951 12.0021 20.6479C12.5847 20.6009 13.3123 20.8548 14.1493 20.8083C14.1712 20.899 14.2028 20.9864 14.246 21.0695C14.2465 21.0702 14.2469 21.0711 14.2474 21.0718C14.5718 21.7207 15.1747 22.0174 15.8172 21.9667C16.4604 21.916 17.1444 21.5367 17.6974 20.8787L17.5961 20.7937L17.6982 20.8778C18.2252 20.2388 19.0998 19.9739 19.68 19.6242C19.97 19.4493 20.2052 19.2302 20.2235 18.912C20.2416 18.5942 20.0548 18.2378 19.6256 17.7613Z" fill="#202020"/>
<path d="M19.959 18.8969C19.9478 19.0932 19.8057 19.239 19.5432 19.3972C19.0185 19.7137 18.0885 19.989 17.4948 20.7083C16.979 21.322 16.3502 21.659 15.7965 21.7028C15.2427 21.7464 14.7651 21.5167 14.4832 20.9513L14.4827 20.9502L14.4821 20.9488C14.3072 20.6162 14.3799 20.0918 14.5272 19.5383C14.6743 18.9851 14.886 18.4167 14.9143 17.9551V17.9537C14.9441 17.362 14.9773 16.8453 15.0767 16.4464C15.1762 16.0476 15.3327 15.7778 15.6099 15.6259C15.6229 15.619 15.6357 15.6123 15.6485 15.6059C15.6799 16.1183 15.9337 16.6411 16.382 16.7541C16.8727 16.8834 17.5799 16.4625 17.8785 16.119C17.9382 16.1167 17.9964 16.1137 18.0529 16.1123C18.3151 16.1059 18.5346 16.1211 18.7592 16.3173L18.7606 16.3185C18.9332 16.4648 19.0152 16.7411 19.0864 17.0504C19.1576 17.3599 19.2143 17.6969 19.4278 17.9371C19.8381 18.3922 19.9704 18.7004 19.959 18.8969Z" fill="#F8BF11"/>
<path d="M9.98818 20.3477L9.98795 20.3492V20.3507C9.94051 20.9727 9.58981 21.3112 9.05121 21.4342C8.51307 21.5573 7.78307 21.4347 7.05423 21.0536C7.054 21.0536 7.05447 21.0536 7.05423 21.0536C6.24772 20.6264 5.28772 20.6687 4.67213 20.5401C4.36446 20.4759 4.16353 20.3792 4.07144 20.1996C3.97934 20.0198 3.97725 19.7066 4.17307 19.1724L4.174 19.1701L4.17469 19.1677C4.27167 18.8689 4.19981 18.5419 4.15283 18.2349C4.10586 17.9282 4.08283 17.6489 4.18772 17.4545L4.18865 17.4526C4.32283 17.194 4.51958 17.1015 4.76377 17.014C5.00818 16.9263 5.29772 16.8575 5.52633 16.6282L5.52772 16.627L5.52888 16.6259C5.74028 16.4028 5.89912 16.1231 6.08493 15.9247C6.24168 15.7572 6.39865 15.6463 6.63516 15.6447C6.63795 15.645 6.64051 15.645 6.6433 15.6447C6.68469 15.645 6.72865 15.6484 6.77516 15.6557C7.08912 15.7031 7.36283 15.9226 7.62656 16.2803L8.38795 17.668L8.38865 17.6692C8.59121 18.0922 9.01912 18.5575 9.38168 19.0322C9.74423 19.5066 10.0247 19.9831 9.98818 20.3477Z" fill="#F8BF11"/>
<path d="M13.7854 7.41138C13.7243 7.29161 13.5994 7.17766 13.3868 7.09045L13.3857 7.08998C12.9436 6.90068 12.7517 6.88719 12.505 6.72673C12.1033 6.46858 11.7715 6.37812 11.4957 6.37928C11.3512 6.37975 11.2222 6.40533 11.1066 6.44533C10.7706 6.56091 10.5476 6.80208 10.4077 6.9344C10.4077 6.93417 10.4077 6.93463 10.4077 6.9344C10.3803 6.96044 10.3445 6.98487 10.2589 7.04766C10.1727 7.11068 10.0434 7.20557 9.85731 7.3451C9.69196 7.46905 9.63825 7.63045 9.69546 7.81952C9.75243 8.00858 9.93476 8.22673 10.2682 8.41533L10.2694 8.41603C10.4764 8.53766 10.6177 8.70161 10.7801 8.83208C10.8612 8.89719 10.9466 8.95533 11.0494 8.99928C11.1522 9.04323 11.2722 9.07301 11.4224 9.08184C11.775 9.10231 12.0345 8.99649 12.2636 8.86533C12.4932 8.7344 12.6875 8.57417 12.9106 8.50184L12.9115 8.50138C13.3687 8.35858 13.6947 8.07091 13.7968 7.79766C13.848 7.66091 13.8464 7.53114 13.7854 7.41138Z" fill="#D6A312"/>
<path d="M12.6256 8.0863C12.2618 8.2759 11.837 8.50583 11.3848 8.50583C10.933 8.50583 10.576 8.297 10.3193 8.09351C10.1909 7.99188 10.0867 7.89072 10.0081 7.81723C9.87175 7.70958 9.88808 7.55858 9.94412 7.56304C10.038 7.57477 10.0522 7.69843 10.1114 7.75374C10.1914 7.82863 10.2916 7.9256 10.413 8.02188C10.6558 8.21421 10.9795 8.40142 11.3848 8.40142C11.7895 8.40142 12.2619 8.16385 12.5503 8.00212C12.7136 7.91048 12.9214 7.74622 13.0911 7.62171C13.2208 7.52644 13.2161 7.41173 13.3233 7.42422C13.4304 7.43671 13.3512 7.55119 13.2011 7.68216C13.051 7.81313 12.8162 7.9869 12.6256 8.0863Z" fill="#202020"/>
<path d="M18.1952 15.8482C18.1447 15.8463 18.095 15.8466 18.0466 15.8478C18.0422 15.8479 18.0377 15.8479 18.0332 15.8479C18.158 15.4535 17.8817 15.1626 17.1454 14.8296C16.382 14.4938 15.7736 14.527 15.6708 15.2084C15.6642 15.244 15.6589 15.2805 15.655 15.3173C15.5977 15.3373 15.5406 15.3623 15.4829 15.3938C15.1245 15.59 14.9287 15.9458 14.8198 16.3826C14.7112 16.8189 14.6798 17.3461 14.6501 17.9389C14.6501 17.9388 14.6501 17.9392 14.6501 17.9389C14.6317 18.2369 14.5089 18.6405 14.3847 19.0675C13.1341 19.9598 11.3982 20.3463 9.92429 19.3403C9.82452 19.1824 9.70987 19.0259 9.59196 18.8715C9.51662 18.7729 9.43917 18.6749 9.36242 18.5783C9.51359 18.5785 9.64219 18.5536 9.74615 18.5066C9.87545 18.4478 9.96615 18.3538 10.0113 18.2328C10.101 17.9913 10.0108 17.6503 9.72312 17.2608C9.43545 16.8715 8.94824 16.4322 8.23242 15.9931C7.70638 15.6659 7.41242 15.2647 7.27475 14.8293C7.13685 14.3938 7.15615 13.9228 7.26242 13.458C7.46615 12.5657 7.98941 11.6978 8.32336 11.1531C8.41312 11.087 8.35545 11.2759 7.98522 11.9633C7.65359 12.5918 7.03336 14.0419 7.88242 15.174C7.90522 14.3684 8.09754 13.5468 8.42057 12.7782C8.89103 11.7119 9.87498 9.8624 9.95312 8.38845C9.99359 8.41775 10.132 8.51124 10.1936 8.54635C10.1934 8.54635 10.1938 8.54659 10.1936 8.54635C10.374 8.65264 10.5101 8.80821 10.6857 8.94938C10.8617 9.09077 11.0815 9.21287 11.4136 9.23217C11.4454 9.23403 11.4766 9.23496 11.5071 9.23496C11.8494 9.23496 12.1164 9.12333 12.3387 8.99612C12.5803 8.85799 12.7733 8.70496 12.9564 8.64543C12.9562 8.64543 12.9567 8.6452 12.9564 8.64543C13.3432 8.5245 13.6511 8.31031 13.8259 8.061C14.1264 9.2452 14.825 10.9557 15.2741 11.7903C15.5129 12.2331 15.9877 13.174 16.1929 14.3078C16.3229 14.3038 16.4662 14.3226 16.6194 14.3619C17.1559 12.971 16.1646 11.4731 15.7111 11.0558C15.528 10.8782 15.5192 10.7987 15.6102 10.8023C16.1017 11.2375 16.7476 12.1122 16.9824 13.0996C17.0897 13.5498 17.1124 14.0233 16.9976 14.4905C17.0536 14.5138 17.1108 14.5391 17.1687 14.5666C18.0298 14.9858 18.3482 15.3505 18.1952 15.8482Z" fill="white"/>
<path d="M12.0581 12.0882C11.2633 12.0911 10.4874 12.4473 9.83116 13.1109C9.17488 13.7744 8.66849 14.7145 8.37769 15.8092L8.46489 15.8635V15.8684C9.13634 16.2947 9.61454 16.7225 9.91007 17.1224C10.2225 17.5454 10.3615 17.9575 10.2292 18.3137C10.1621 18.4934 10.0193 18.6377 9.84239 18.7182C9.8238 18.7266 9.80335 18.733 9.78407 18.7402C9.88989 18.879 9.99354 19.0221 10.089 19.1689C11.4376 20.0664 13.0063 19.7344 14.1837 18.9224C14.2987 18.5262 14.4034 18.1567 14.4178 17.9257C14.4476 17.3323 14.4775 16.7947 14.5941 16.3263C14.7116 15.8547 14.9402 15.4257 15.3711 15.1897C15.3953 15.1765 15.4202 15.1685 15.4444 15.1571C15.4522 15.1104 15.463 15.0655 15.4761 15.0222C15.1294 14.1336 14.6313 13.395 14.0317 12.8802C13.4319 12.3654 12.7514 12.0922 12.0581 12.0882ZM15.4419 15.1664L15.4408 15.1737C15.4408 15.1728 15.4412 15.1721 15.4413 15.1712C15.4416 15.1697 15.4417 15.168 15.4419 15.1664Z" fill="#E6E6E6"/>
<path d="M13.8257 6.04717C13.8276 6.28182 13.7871 6.48159 13.698 6.68554C13.6474 6.80182 13.589 6.8995 13.519 6.98415C13.4953 6.97275 13.4706 6.96182 13.445 6.95135C13.3564 6.91345 13.278 6.88229 13.2079 6.85577C13.1376 6.82926 13.0828 6.81115 13.0263 6.79161C13.0672 6.74208 13.1479 6.6837 13.1779 6.61045C13.2234 6.49998 13.2458 6.39208 13.25 6.26347C13.25 6.25835 13.2516 6.25394 13.2516 6.24789C13.2542 6.12464 13.2379 6.01929 13.2019 5.91138C13.1642 5.79812 13.1163 5.71673 13.0469 5.64905C12.9774 5.58138 12.9081 5.55068 12.8249 5.54789C12.8209 5.54765 12.8172 5.54765 12.8133 5.54765C12.7351 5.54789 12.6672 5.57486 12.5969 5.63347C12.5232 5.6951 12.4686 5.77394 12.423 5.8837C12.3777 5.99347 12.3554 6.1023 12.3509 6.23161C12.3502 6.23673 12.3502 6.24115 12.3502 6.24626C12.3486 6.31742 12.3533 6.38254 12.3642 6.4458C12.2042 6.36603 11.9994 6.30786 11.8581 6.27415C11.8499 6.21298 11.8453 6.14995 11.8439 6.08391V6.066C11.8414 5.83205 11.8797 5.63135 11.9697 5.42763C12.0597 5.22368 12.1711 5.07717 12.3279 4.95786C12.4848 4.8388 12.639 4.78415 12.8215 4.78229H12.8302C13.0088 4.78229 13.1615 4.83484 13.3185 4.94856C13.4779 5.06438 13.5927 5.20903 13.6853 5.41135C13.7759 5.60856 13.8197 5.80135 13.8241 6.02995C13.8241 6.036 13.8241 6.04112 13.8257 6.04717Z" fill="white"/>
<path d="M11.1262 6.28094C11.1027 6.28769 11.0798 6.2949 11.0573 6.30257C10.9294 6.34675 10.8278 6.39552 10.7297 6.4604C10.7393 6.3925 10.7406 6.32366 10.7332 6.24668C10.7325 6.2425 10.7325 6.239 10.7325 6.23482C10.7223 6.13273 10.7006 6.04715 10.6646 5.96064C10.6262 5.87064 10.5832 5.80715 10.5267 5.75831C10.4755 5.71412 10.4272 5.69366 10.3737 5.69412C10.3683 5.69412 10.3628 5.69435 10.3572 5.69482C10.2971 5.69994 10.2474 5.72924 10.2002 5.78668C10.1532 5.84389 10.1223 5.91505 10.0999 6.00947C10.0776 6.10366 10.0718 6.19622 10.0811 6.3025C10.0811 6.30668 10.082 6.31017 10.082 6.31435C10.0923 6.41738 10.113 6.50296 10.1497 6.58947C10.1874 6.67855 10.2311 6.74203 10.2876 6.79087C10.2971 6.799 10.3064 6.80645 10.3157 6.81296C10.2571 6.85831 10.2178 6.89048 10.1694 6.92582C10.1385 6.94838 10.1017 6.97536 10.0589 7.00699C9.96567 6.91955 9.89288 6.80978 9.82915 6.6649C9.7538 6.49373 9.71358 6.32234 9.70148 6.12001V6.11838C9.69032 5.91605 9.71009 5.7421 9.76567 5.5621C9.82148 5.3821 9.8959 5.25187 10.004 5.1449C10.1119 5.03769 10.2208 4.98373 10.3519 4.97699C10.3622 4.97652 10.3722 4.97629 10.3822 4.97629C10.501 4.97652 10.6071 5.01605 10.7168 5.10373C10.8359 5.19885 10.9259 5.32048 11.0013 5.49187C11.0768 5.66327 11.1171 5.83466 11.1283 6.03699V6.03861C11.1336 6.1235 11.1328 6.2035 11.1262 6.28094Z" fill="white"/>
<path d="M11.7231 6.7649C11.7382 6.81318 11.8159 6.80518 11.8609 6.82834C11.9003 6.84865 11.9321 6.8932 11.9764 6.89448C12.0188 6.8957 12.0847 6.87981 12.0902 6.83782C12.0974 6.78234 12.0164 6.74709 11.9643 6.72676C11.8973 6.7006 11.8113 6.68733 11.7483 6.72232C11.7339 6.73035 11.7182 6.74915 11.7231 6.7649Z" fill="#202020"/>
<path d="M11.2633 6.7649C11.2482 6.81318 11.1704 6.80518 11.1255 6.82834C11.086 6.84865 11.0543 6.8932 11.0099 6.89448C10.9676 6.8957 10.9017 6.87981 10.8962 6.83782C10.8889 6.78234 10.9699 6.74709 11.0221 6.72676C11.0891 6.7006 11.1751 6.68733 11.2381 6.72232C11.2525 6.73035 11.2682 6.74915 11.2633 6.7649Z" fill="#202020"/>
</g>
</g>
</svg>
