<svg width="24" height="24" viewBox="0 0 24 24" fill="none" xmlns="http://www.w3.org/2000/svg">
<g id="size=24">
<g id="Group">
<path id="Vector" d="M12.4199 2C12.2907 2 12.1574 2.00667 12.0199 2.0175C8.49821 2.295 9.43238 6.02333 9.37821 7.26583C9.31488 8.17583 9.12821 8.89333 8.50321 9.7825C7.76571 10.6583 6.73071 12.0742 6.23988 13.55C6.00821 14.2433 5.89821 14.9533 6.00071 15.6242C5.9627 15.6549 5.93149 15.6932 5.90905 15.7367C5.69238 15.96 5.53405 16.2367 5.35655 16.4358C5.19071 16.6017 4.95238 16.6583 4.69238 16.7692C4.43155 16.8825 4.14405 16.9933 3.97238 17.3358C3.89738 17.4933 3.85905 17.6642 3.86238 17.8375C3.86238 18.0033 3.88488 18.1708 3.90821 18.2842C3.95655 18.6167 4.00488 18.8908 3.94155 19.0925C3.73405 19.6592 3.70821 20.0467 3.85321 20.3292C3.99821 20.6075 4.29905 20.7208 4.63655 20.83C5.31155 20.9967 6.22821 20.9425 6.94821 21.33C7.71988 21.7183 8.50321 21.8883 9.12821 21.7217C9.56655 21.625 9.93655 21.335 10.1349 20.9333C10.624 20.9308 11.1599 20.7092 12.0182 20.655C12.6007 20.6067 13.3299 20.8775 14.1657 20.8217C14.1865 20.9333 14.2182 20.9867 14.2607 21.0992L14.2632 21.1017C14.589 21.75 15.1907 22.045 15.8332 21.9942C16.4757 21.9442 17.1599 21.5475 17.714 20.9058C18.2399 20.2683 19.1165 20.0025 19.6957 19.6533C19.9857 19.4875 20.2199 19.2625 20.2365 18.9425C20.2557 18.6092 20.0699 18.2667 19.6415 17.7958V17.715L19.639 17.7125C19.4974 17.5458 19.4307 17.2667 19.3574 16.9408C19.2865 16.6067 19.2057 16.2858 18.9474 16.0692H18.9449C18.8957 16.0242 18.8424 16.0133 18.7882 15.9567C18.7416 15.9241 18.6867 15.9056 18.6299 15.9033C18.989 14.8383 18.8499 13.7783 18.4857 12.825C18.0415 11.65 17.2649 10.6267 16.6732 9.9225C16.0099 9.085 15.3599 8.29167 15.3732 7.11583C15.3949 5.3225 15.5699 2.005 12.4199 2V2ZM12.8607 4.8375H12.8715C13.049 4.8375 13.2015 4.88917 13.3582 5.0025C13.5165 5.115 13.6332 5.27917 13.7232 5.44667C13.8107 5.6625 13.8549 5.82917 13.8615 6.05C13.8615 6.03333 13.8665 6.01667 13.8665 6V6.0875C13.8647 6.08183 13.8636 6.07595 13.8632 6.07L13.8599 6.05C13.8582 6.25252 13.8157 6.45262 13.7349 6.63833C13.696 6.74282 13.6355 6.83794 13.5574 6.9175C13.5338 6.90417 13.5093 6.89247 13.484 6.8825C13.3974 6.845 13.319 6.82917 13.2474 6.77167C13.188 6.74801 13.1266 6.72961 13.064 6.71667C13.1057 6.66667 13.1857 6.60583 13.2165 6.55167C13.2607 6.445 13.2849 6.33167 13.2899 6.21667V6.2C13.2918 6.08682 13.2746 5.97414 13.239 5.86667C13.2015 5.755 13.1549 5.7 13.0865 5.58917C13.0165 5.53417 12.9474 5.47917 12.864 5.47917H12.8507C12.7732 5.47917 12.704 5.50417 12.6324 5.58917C12.5532 5.66635 12.4945 5.76199 12.4615 5.8675C12.4173 5.97338 12.3919 6.0862 12.3865 6.20083V6.21667C12.3882 6.29083 12.3932 6.36583 12.4032 6.43917C12.2424 6.38333 12.0382 6.32667 11.8974 6.27083C11.889 6.21564 11.884 6.15998 11.8824 6.10417V6.0875C11.8758 5.86752 11.9185 5.64885 12.0074 5.4475C12.0757 5.26417 12.2007 5.10917 12.3657 5.00333C12.5082 4.89536 12.682 4.83684 12.8607 4.83667V4.8375ZM10.3924 4.88667H10.4224C10.5407 4.88667 10.6474 4.92667 10.7549 4.99917C10.8765 5.10667 10.9749 5.23917 11.0415 5.38667C11.1165 5.5525 11.1582 5.72 11.169 5.9425V5.94583C11.1749 6.0575 11.174 6.1125 11.1674 6.1675V6.23417C11.1424 6.24 11.1207 6.24917 11.0982 6.25417C10.9715 6.3 10.8699 6.36667 10.7707 6.42083C10.7807 6.34583 10.7815 6.27083 10.7732 6.19833V6.18583C10.7632 6.075 10.7399 6.01917 10.7049 5.90833C10.6789 5.8234 10.6312 5.74671 10.5665 5.68583C10.546 5.66716 10.5219 5.65281 10.4957 5.64365C10.4695 5.63448 10.4417 5.63069 10.414 5.6325H10.3965C10.3374 5.6375 10.2882 5.66583 10.2415 5.7425C10.1884 5.80702 10.1538 5.88481 10.1415 5.9675C10.119 6.05732 10.1125 6.15042 10.1224 6.2425V6.255C10.1324 6.3675 10.1532 6.42167 10.189 6.53333C10.2274 6.645 10.2707 6.7 10.3274 6.75667C10.3357 6.76417 10.344 6.77167 10.3557 6.77667C10.2974 6.82417 10.2582 6.835 10.209 6.89C10.1779 6.91757 10.1404 6.93703 10.0999 6.94667C10.0133 6.84236 9.93653 6.73021 9.87071 6.61167C9.79193 6.43655 9.74805 6.24775 9.74155 6.05583C9.72775 5.86772 9.75038 5.6787 9.80821 5.49917C9.85411 5.33543 9.93453 5.18342 10.044 5.05333C10.1507 4.9425 10.2607 4.88667 10.3924 4.88667ZM11.534 6.30833C11.8107 6.30833 12.1449 6.3625 12.5474 6.64083C12.7915 6.8075 12.9832 6.865 13.424 7.03083H13.4265C13.639 7.14417 13.764 7.2525 13.8249 7.36333V7.25417C13.8548 7.31476 13.8714 7.38103 13.8737 7.44856C13.876 7.5161 13.8639 7.58335 13.8382 7.64583C13.7357 7.90417 13.4082 8.18167 12.9524 8.3475V8.34917C12.729 8.46167 12.5349 8.62667 12.3065 8.73667C12.0765 8.84917 11.8165 8.98 11.4632 8.95917C11.3363 8.96574 11.2093 8.94675 11.0899 8.90333C10.9976 8.85312 10.908 8.79804 10.8215 8.73833C10.659 8.62583 10.519 8.46167 10.3115 8.35083V8.34667H10.3074C9.97405 8.14167 9.79405 7.92 9.73571 7.755C9.67738 7.53167 9.73155 7.36333 9.89655 7.255C10.0832 7.1425 10.2132 7.02917 10.299 6.975C10.3857 6.91333 10.4182 6.89 10.4457 6.86583H10.4474V6.86333C10.5882 6.695 10.8107 6.47167 11.1465 6.3625C11.2624 6.3325 11.3915 6.30833 11.5349 6.30833H11.534ZM13.8674 8.09333C14.1657 9.27417 14.864 10.9892 15.3132 11.8208C15.5515 12.2658 16.0257 13.2033 16.2315 14.3408C16.3615 14.3367 16.5065 14.3558 16.659 14.3942C17.1974 13.0017 16.204 11.505 15.7515 11.0892C15.5682 10.9225 15.5582 10.81 15.649 10.81C16.1407 11.255 16.7865 12.12 17.0207 13.1075C17.129 13.5533 17.154 14.0275 17.0382 14.4992C17.094 14.5225 17.1507 14.5492 17.209 14.555C18.069 15 18.3865 15.3367 18.234 15.8358V15.8C18.184 15.7975 18.134 15.8 18.084 15.8H18.0707C18.1965 15.4108 17.919 15.1125 17.1832 14.78C16.4207 14.4467 15.8115 14.5 15.7082 15.1675C15.7015 15.2033 15.6974 15.2225 15.6932 15.28C15.6365 15.2992 15.5774 15.3242 15.519 15.3333C15.1607 15.5567 14.9674 15.8908 14.8582 16.3225C14.7499 16.7667 14.7165 17.2858 14.6874 17.88V17.8825C14.6707 18.1608 14.5457 18.5808 14.4215 19.0075C13.1715 19.9008 11.4382 20.2892 9.96488 19.2858C9.87242 19.1242 9.75986 18.975 9.62988 18.8417C9.56777 18.7382 9.49052 18.6447 9.40071 18.5642C9.55238 18.5642 9.68238 18.5392 9.78821 18.5083C9.90805 18.4527 10.0018 18.353 10.0499 18.23C10.1399 18.0075 10.0499 17.6492 9.76238 17.2608C9.47488 16.8717 8.98655 16.4317 8.27238 15.9933C7.74738 15.66 7.45071 15.2683 7.31405 14.83C7.17655 14.385 7.19488 13.9258 7.30155 13.4592C7.50571 12.5675 8.02905 11.7008 8.36321 11.1567C8.45238 11.1025 8.39405 11.2692 8.02321 11.9683C7.69321 12.5942 7.07321 14.0492 7.92155 15.18C7.95359 14.3549 8.13632 13.5427 8.46071 12.7833C8.93071 11.7183 9.91321 9.86333 9.99071 8.39333C10.0307 8.42333 10.1715 8.50583 10.2315 8.56167C10.4132 8.6725 10.5482 8.83917 10.7232 8.94917C10.8982 9.11667 11.1207 9.22833 11.4532 9.22833C11.4857 9.23083 11.5157 9.23333 11.5449 9.23333C11.8882 9.23333 12.1532 9.12167 12.3757 9.01C12.6174 8.89833 12.809 8.73167 12.9924 8.67667H12.9965C13.3857 8.56417 13.6924 8.34167 13.8665 8.09333H13.8674ZM15.6882 15.5583C15.719 16.0583 15.974 16.5958 16.4232 16.7058C16.9132 16.8175 17.6182 16.4283 17.9157 16.0683L18.0915 16.06C18.354 16.0542 18.5724 16.0683 18.7974 16.2833L18.7999 16.2858C18.9732 16.4517 19.054 16.7275 19.1257 17.0158C19.1965 17.3492 19.254 17.6658 19.4665 17.9042C19.8715 18.3433 20.004 18.6592 19.9965 18.8542L19.999 18.8483V18.8633L19.9965 18.8533C19.984 19.0717 19.8424 19.1833 19.5815 19.3492C19.0565 19.6833 18.1265 19.9425 17.534 20.6575C17.019 21.2717 16.3924 21.6075 15.8374 21.65C15.284 21.6942 14.8065 21.4833 14.5257 20.9017L14.5215 20.8992C14.3465 20.5658 14.4215 20.045 14.5682 19.4908C14.7149 18.9342 14.9249 18.3708 14.954 17.91C14.9849 17.315 15.0174 16.7975 15.1165 16.3983C15.2165 16.0108 15.3732 15.7342 15.6507 15.5783L15.6882 15.56V15.5583ZM6.67655 15.5992H6.68488C6.72905 15.5992 6.77238 15.6033 6.81571 15.6108C7.12905 15.6567 7.40405 15.8883 7.66821 16.2375L8.42655 17.6242L8.42905 17.6267C8.63155 18.0708 9.05738 18.5133 9.41988 18.9908C9.78155 19.4892 10.0615 19.9333 10.0274 20.2992V20.3042C9.97988 20.9242 9.62738 21.2608 9.08988 21.3825C8.55238 21.495 7.82321 21.3842 7.09405 20.9958C6.28738 20.5492 5.32905 20.605 4.71321 20.4942C4.40571 20.4392 4.20488 20.3275 4.11071 20.1608C4.01905 19.9942 4.01655 19.6592 4.21321 19.1358V19.1325L4.21488 19.13C4.31238 18.8517 4.23988 18.5033 4.19238 18.1983C4.14655 17.8642 4.12321 17.6067 4.22821 17.415C4.36155 17.1367 4.55821 17.0817 4.80321 16.9708C5.04821 16.8583 5.33655 16.8025 5.56571 16.5792H5.56738V16.5775C5.78071 16.3542 5.93821 16.0767 6.12405 15.8792C6.28238 15.7117 6.44071 15.5992 6.67655 15.5992ZM12.6424 8.0375C12.2799 8.205 11.8549 8.48333 11.4024 8.48333C10.9507 8.48333 10.594 8.26083 10.3357 8.095C10.2074 7.98333 10.1024 7.87167 10.0249 7.81583C9.88821 7.70417 9.90488 7.53833 9.96321 7.53833C10.054 7.55167 10.0707 7.65 10.129 7.705C10.209 7.76 10.3082 7.87167 10.429 7.9825C10.6724 8.14917 10.9957 8.37167 11.4015 8.37167C11.8057 8.37167 12.279 8.14917 12.5665 7.98333C12.729 7.87083 12.9374 7.705 13.1065 7.59417C13.2365 7.48083 13.2307 7.37167 13.339 7.37167C13.4457 7.385 13.3674 7.48333 13.2165 7.64833C13.0317 7.78812 12.8398 7.91829 12.6415 8.03833L12.6424 8.0375ZM11.7407 6.71833V6.7C11.7357 6.68333 11.7515 6.665 11.7649 6.65833C11.8265 6.6225 11.9149 6.63583 11.9815 6.66167C12.034 6.66167 12.1149 6.7175 12.1065 6.77417C12.1015 6.815 12.0357 6.82917 11.994 6.82917C11.9482 6.82917 11.9174 6.79333 11.8765 6.7725C11.8332 6.7575 11.7549 6.76583 11.7407 6.71833ZM11.2815 6.71833C11.2649 6.76667 11.1874 6.75917 11.1432 6.77333C11.104 6.79417 11.0715 6.83 11.0265 6.83C10.9849 6.83 10.9182 6.81333 10.9132 6.77333C10.9049 6.71833 10.9865 6.6625 11.0382 6.6625C11.1049 6.63667 11.1915 6.62333 11.254 6.65833C11.2699 6.66583 11.284 6.68333 11.279 6.7V6.71667H11.2815V6.71833Z" fill="#000001"/>
</g>
</g>
</svg>
