<svg width="24" height="24" viewBox="0 0 24 24" fill="none" xmlns="http://www.w3.org/2000/svg">
<g id="size=24">
<path id="Path" fill-rule="evenodd" clip-rule="evenodd" d="M2.5 5.75C2.5 5.33579 2.83579 5 3.25 5H4.25C4.66421 5 5 5.33579 5 5.75C5 6.16421 4.66421 6.5 4.25 6.5H3.25C2.83579 6.5 2.5 6.16421 2.5 5.75ZM7 5.75C7 5.33579 7.33579 5 7.75 5H20.75C21.1642 5 21.5 5.33579 21.5 5.75C21.5 6.16421 21.1642 6.5 20.75 6.5H7.75C7.33579 6.5 7 6.16421 7 5.75ZM2.5 11.75C2.5 11.3358 2.83579 11 3.25 11H4.25C4.66421 11 5 11.3358 5 11.75C5 12.1642 4.66421 12.5 4.25 12.5H3.25C2.83579 12.5 2.5 12.1642 2.5 11.75ZM7 11.75C7 11.3358 7.33579 11 7.75 11H20.75C21.1642 11 21.5 11.3358 21.5 11.75C21.5 12.1642 21.1642 12.5 20.75 12.5H7.75C7.33579 12.5 7 12.1642 7 11.75ZM2.5 17.75C2.5 17.3358 2.83579 17 3.25 17H4.25C4.66421 17 5 17.3358 5 17.75C5 18.1642 4.66421 18.5 4.25 18.5H3.25C2.83579 18.5 2.5 18.1642 2.5 17.75ZM7 17.75C7 17.3358 7.33579 17 7.75 17H20.75C21.1642 17 21.5 17.3358 21.5 17.75C21.5 18.1642 21.1642 18.5 20.75 18.5H7.75C7.33579 18.5 7 18.1642 7 17.75Z" fill="#000001"/>
</g>
</svg>
