<svg width="24" height="24" viewBox="0 0 24 24" fill="none" xmlns="http://www.w3.org/2000/svg">
<g id="size=24">
<path id="Path" fill-rule="evenodd" clip-rule="evenodd" d="M11.9999 2C12.4129 2.00152 12.7499 2.33673 12.7499 2.75V11H19.4394L17.7197 9.28027C17.4268 8.98738 17.4268 8.51262 17.7197 8.21973C18.0127 7.92825 18.4878 7.92731 18.7802 8.21973L21.7802 11.2197C22.0712 11.5123 22.0712 11.9877 21.7802 12.2803L18.7802 15.2803C18.4878 15.5727 18.0127 15.5718 17.7197 15.2803C17.4268 14.9874 17.4268 14.5126 17.7197 14.2197L19.4394 12.5H12.7499V19.4395L14.4697 17.7197C14.7627 17.4282 15.2378 17.4273 15.5302 17.7197C15.8212 18.0123 15.8212 18.4877 15.5302 18.7803L12.5302 21.7803C12.2378 22.0727 11.7627 22.0718 11.4697 21.7803L8.46967 18.7803C8.17678 18.4874 8.17678 18.0126 8.46967 17.7197C8.76268 17.4282 9.2378 17.4273 9.53022 17.7197L11.2499 19.4395V12.5H4.56049L6.28022 14.2197C6.57123 14.5123 6.57123 14.9877 6.28022 15.2803C5.9878 15.5727 5.51268 15.5718 5.21967 15.2803L2.21967 12.2803C1.92678 11.9874 1.92678 11.5126 2.21967 11.2197L5.21967 8.21973C5.51268 7.92825 5.9878 7.92731 6.28022 8.21973C6.57123 8.51226 6.57123 8.98774 6.28022 9.28027L4.56049 11H11.2499V2.75C11.2499 2.33579 11.5857 2 11.9999 2Z" fill="#000001"/>
</g>
</svg>
