<svg width="16" height="16" viewBox="0 0 16 16" fill="none" xmlns="http://www.w3.org/2000/svg">
<g id="size=16">
<g id="Icon Group">
<path id="Path" opacity="0.2" fill-rule="evenodd" clip-rule="evenodd" d="M8 1.5C4.41015 1.5 1.5 4.41015 1.5 8C1.5 11.5899 4.41015 14.5 8 14.5C11.5899 14.5 14.5 11.5899 14.5 8C14.5 4.41015 11.5899 1.5 8 1.5ZM0 8C0 3.58172 3.58172 0 8 0C12.4183 0 16 3.58172 16 8C16 12.4183 12.4183 16 8 16C3.58172 16 0 12.4183 0 8Z" fill="#000001"/>
<path id="Path_2" fill-rule="evenodd" clip-rule="evenodd" d="M7.25 0.75C7.25 0.335786 7.58579 0 8 0C12.4183 0 16 3.58172 16 8C16 8.41421 15.6642 8.75 15.25 8.75C14.8358 8.75 14.5 8.41421 14.5 8C14.5 4.41015 11.5899 1.5 8 1.5C7.58579 1.5 7.25 1.16421 7.25 0.75Z" fill="#000001"/>
</g>
</g>
</svg>
