<svg width="24" height="24" viewBox="0 0 24 24" fill="none" xmlns="http://www.w3.org/2000/svg">
<g id="size=24">
<path id="Vector (Stroke)" fill-rule="evenodd" clip-rule="evenodd" d="M12 2C12.4142 2 12.75 2.33579 12.75 2.75V11H19.4393L17.7197 9.28033C17.4268 8.98744 17.4268 8.51256 17.7197 8.21967C18.0126 7.92678 18.4874 7.92678 18.7803 8.21967L21.7803 11.2197C22.0732 11.5126 22.0732 11.9874 21.7803 12.2803L18.7803 15.2803C18.4874 15.5732 18.0126 15.5732 17.7197 15.2803C17.4268 14.9874 17.4268 14.5126 17.7197 14.2197L19.4393 12.5H12.75V19.4393L14.4697 17.7197C14.7626 17.4268 15.2374 17.4268 15.5303 17.7197C15.8232 18.0126 15.8232 18.4874 15.5303 18.7803L12.5303 21.7803C12.2374 22.0732 11.7626 22.0732 11.4697 21.7803L8.46967 18.7803C8.17678 18.4874 8.17678 18.0126 8.46967 17.7197C8.76256 17.4268 9.23744 17.4268 9.53033 17.7197L11.25 19.4393V12.5H4.56066L6.28033 14.2197C6.57322 14.5126 6.57322 14.9874 6.28033 15.2803C5.98744 15.5732 5.51256 15.5732 5.21967 15.2803L2.21967 12.2803C1.92678 11.9874 1.92678 11.5126 2.21967 11.2197L5.21967 8.21967C5.51256 7.92678 5.98744 7.92678 6.28033 8.21967C6.57322 8.51256 6.57322 8.98744 6.28033 9.28033L4.56066 11H11.25V2.75C11.25 2.33579 11.5858 2 12 2Z" fill="#000001"/>
</g>
</svg>
