<svg width="16" height="16" viewBox="0 0 16 16" fill="none" xmlns="http://www.w3.org/2000/svg">
<g id="size=16">
<path id="Vector (Stroke)" fill-rule="evenodd" clip-rule="evenodd" d="M8 1C8.41421 1 8.75 1.33579 8.75 1.75V7H12.4393L11.4697 6.03033C11.1768 5.73744 11.1768 5.26256 11.4697 4.96967C11.7626 4.67678 12.2374 4.67678 12.5303 4.96967L14.7803 7.21967C15.0732 7.51256 15.0732 7.98744 14.7803 8.28033L12.5303 10.5303C12.2374 10.8232 11.7626 10.8232 11.4697 10.5303C11.1768 10.2374 11.1768 9.76256 11.4697 9.46967L12.4393 8.5H8.75V12.5799L9.75173 11.6894C10.0613 11.4143 10.5354 11.4421 10.8106 11.7517C11.0857 12.0613 11.0579 12.5354 10.7483 12.8106L8.49828 14.8106C8.21412 15.0631 7.7859 15.0631 7.50174 14.8106L5.25173 12.8106C4.94214 12.5354 4.91425 12.0613 5.18944 11.7517C5.46463 11.4421 5.93868 11.4143 6.24827 11.6894L7.25 12.5799V8.5H3.56066L4.53033 9.46967C4.82322 9.76256 4.82322 10.2374 4.53033 10.5303C4.23744 10.8232 3.76256 10.8232 3.46967 10.5303L1.21967 8.28033C0.926777 7.98744 0.926777 7.51256 1.21967 7.21967L3.46967 4.96967C3.76256 4.67678 4.23744 4.67678 4.53033 4.96967C4.82322 5.26256 4.82322 5.73744 4.53033 6.03033L3.56066 7H7.25V1.75C7.25 1.33579 7.58579 1 8 1Z" fill="#000001"/>
</g>
</svg>
