<svg width="16" height="16" viewBox="0 0 16 16" fill="none" xmlns="http://www.w3.org/2000/svg">
<g id="size=16">
<path id="Path" d="M8 0C9.06708 0 10.0864 0.435332 10.835 1.20312C11.5828 1.97018 11.9999 3.00626 12 4.08301V5.01367C13.125 5.13803 14 6.09186 14 7.25V12.75C14 13.9926 12.9926 15 11.75 15H4.25C3.00736 15 2 13.9926 2 12.75V7.25C2 6.09186 2.87501 5.13803 4 5.01367V4.08301C4.00008 3.00626 4.41723 1.97018 5.16504 1.20312C5.91364 0.435332 6.93292 0 8 0ZM4.25 6.5C3.83579 6.5 3.5 6.83579 3.5 7.25V12.75C3.5 13.1642 3.83579 13.5 4.25 13.5H11.75C12.1642 13.5 12.5 13.1642 12.5 12.75V7.25C12.5 6.83579 12.1642 6.5 11.75 6.5H4.25ZM8 9.25C8.41421 9.25 8.75 9.58579 8.75 10V11C8.75 11.4142 8.41421 11.75 8 11.75C7.58579 11.75 7.25 11.4142 7.25 11V10C7.25 9.58579 7.58579 9.25 8 9.25ZM8 1.5C7.34323 1.5 6.70963 1.76762 6.23926 2.25C5.76831 2.73302 5.50008 3.39194 5.5 4.08301V5H10.5V4.08301C10.4999 3.39194 10.2317 2.73302 9.76074 2.25C9.29037 1.76762 8.65677 1.5 8 1.5Z" fill="#000001"/>
</g>
</svg>
