<svg width="24" height="24" viewBox="0 0 24 24" fill="none" xmlns="http://www.w3.org/2000/svg">
<g id="size=24">
<g id="Path">
<path d="M12.75 17C12.75 16.5858 12.4142 16.25 12 16.25C11.5858 16.25 11.25 16.5858 11.25 17V19C11.25 19.4142 11.5858 19.75 12 19.75C12.4142 19.75 12.75 19.4142 12.75 19V17Z" fill="#000001"/>
<path fill-rule="evenodd" clip-rule="evenodd" d="M1.53033 0.46967C1.23744 0.176777 0.762563 0.176777 0.46967 0.46967C0.176777 0.762563 0.176777 1.23744 0.46967 1.53033L6 7.06066V10.1035C4.84575 10.43 4 11.4912 4 12.75V20.25C4 21.7688 5.23122 23 6.75 23H17.25C18.521 23 19.5905 22.1378 19.9058 20.9664L22.4697 23.5303C22.7626 23.8232 23.2374 23.8232 23.5303 23.5303C23.8232 23.2374 23.8232 22.7626 23.5303 22.4697L1.53033 0.46967ZM18.5 19.5607L10.4393 11.5H6.75C6.05964 11.5 5.5 12.0596 5.5 12.75V20.25C5.5 20.9404 6.05964 21.5 6.75 21.5H17.25C17.9404 21.5 18.5 20.9404 18.5 20.25V19.5607ZM8.93934 10L7.5 8.56066V10H8.93934Z" fill="#000001"/>
<path d="M12 2.5C10.795 2.5 9.64635 2.95622 8.80493 3.75757C8.68193 3.87472 8.56701 3.99778 8.46045 4.12597C8.19566 4.4445 7.72279 4.48807 7.40426 4.22329C7.08573 3.9585 7.04216 3.48563 7.30694 3.1671C7.45074 2.99412 7.6054 2.82855 7.77045 2.67136C8.89816 1.59735 10.4202 1 12 1C13.5798 1 15.1018 1.59735 16.2296 2.67136C17.3585 3.74656 18 5.21287 18 6.75V10.1035C19.1543 10.43 20 11.4912 20 12.75V15.5C20 15.9142 19.6642 16.25 19.25 16.25C18.8358 16.25 18.5 15.9142 18.5 15.5V12.75C18.5 12.0596 17.9404 11.5 17.25 11.5H14.5C14.0858 11.5 13.75 11.1642 13.75 10.75C13.75 10.3358 14.0858 10 14.5 10H16.5V6.75C16.5 5.63496 16.0352 4.55774 15.1951 3.75757C14.3536 2.95622 13.205 2.5 12 2.5Z" fill="#000001"/>
</g>
</g>
</svg>
