<svg width="16" height="16" viewBox="0 0 16 16" fill="none" xmlns="http://www.w3.org/2000/svg">
<g id="size=16">
<path id="Path" d="M9.25 13.5C9.66414 13.5 9.99988 13.8359 10 14.25C9.99994 14.6641 9.66418 15 9.25 15H2.75C2.33582 15 2.00006 14.6641 2 14.25C2.00011 13.8359 2.33586 13.5 2.75 13.5H9.25ZM13.25 10.5C13.6641 10.5 13.9999 10.8359 14 11.25C13.9999 11.6641 13.6642 12 13.25 12H2.75C2.33582 12 2.00006 11.6641 2 11.25C2.00011 10.8359 2.33586 10.5 2.75 10.5H13.25ZM13.25 7.49998C13.6641 7.49998 13.9999 7.83587 14 8.24998C13.9999 8.66415 13.6642 8.99998 13.25 8.99998H2.75C2.33582 8.99998 2.00006 8.66415 2 8.24998C2.00011 7.83587 2.33586 7.49998 2.75 7.49998H13.25ZM4.25586 1.18553C4.5675 0.912886 5.04167 0.944377 5.31445 1.25584C5.58708 1.56749 5.55562 2.04166 5.24414 2.31444L3.88867 3.49998L5.24414 4.68553C5.55574 4.9583 5.58713 5.43244 5.31445 5.74413C5.04169 6.05572 4.56755 6.08711 4.25586 5.81444L2.25586 4.06444C2.09328 3.92205 2.00003 3.71611 2 3.49998C2.00006 3.28385 2.09323 3.07789 2.25586 2.93553L4.25586 1.18553ZM7.18555 1.25584C7.45833 0.944377 7.9325 0.912886 8.24414 1.18553L10.2441 2.93553C10.4068 3.07789 10.4999 3.28385 10.5 3.49998C10.5 3.71611 10.4067 3.92205 10.2441 4.06444L8.24414 5.81444C7.93245 6.08711 7.45831 6.05572 7.18555 5.74413C6.91287 5.43244 6.94426 4.9583 7.25586 4.68553L8.61133 3.49998L7.25586 2.31444C6.94438 2.04166 6.91292 1.56749 7.18555 1.25584Z" fill="#000001"/>
</g>
</svg>
