<svg width="24" height="24" viewBox="0 0 24 24" fill="none" xmlns="http://www.w3.org/2000/svg">
<g id="size=24">
<path id="Path" fill-rule="evenodd" clip-rule="evenodd" d="M14.25 20.5C14.6642 20.5 14.9999 20.8358 15 21.25C14.9999 21.6641 14.6642 22 14.25 22H3.75C3.33584 22 3.00009 21.6641 3 21.25C3.00008 20.8358 3.33583 20.5 3.75 20.5H14.25ZM20.25 16C20.6642 16 20.9999 16.3358 21 16.75C20.9999 17.1641 20.6642 17.5 20.25 17.5H3.75C3.33584 17.5 3.00009 17.1641 3 16.75C3.00008 16.3358 3.33583 16 3.75 16H20.25ZM20.25 11.5C20.6642 11.5 20.9999 11.8358 21 12.25C20.9999 12.6641 20.6642 13 20.25 13H3.75C3.33584 13 3.00009 12.6641 3 12.25C3.00008 11.8358 3.33583 11.5 3.75 11.5H20.25ZM6.78711 2.16015C7.11271 1.90465 7.58398 1.9608 7.83984 2.28613C8.09572 2.61181 8.03853 3.08392 7.71289 3.33984L4.96387 5.49999L7.71289 7.66015C8.03846 7.91597 8.09541 8.3872 7.83984 8.71288C7.58404 9.03844 7.11279 9.09538 6.78711 8.83984L3.28711 6.08984C3.10622 5.94767 3.00004 5.73007 3 5.49999C3.00004 5.26991 3.10619 5.05231 3.28711 4.91015L6.78711 2.16015ZM11.1602 2.28613C11.416 1.9608 11.8873 1.90465 12.2129 2.16015L15.7129 4.91015C15.8938 5.05231 16 5.26991 16 5.49999C16 5.73007 15.8938 5.94767 15.7129 6.08984L12.2129 8.83984C11.8872 9.09538 11.416 9.03844 11.1602 8.71288C10.9046 8.3872 10.9615 7.91597 11.2871 7.66015L14.0361 5.49999L11.2871 3.33984C10.9615 3.08392 10.9043 2.61181 11.1602 2.28613Z" fill="#000001"/>
</g>
</svg>
