<svg width="24" height="24" viewBox="0 0 24 24" fill="none" xmlns="http://www.w3.org/2000/svg">
<g id="size=24">
<path id="Vector" d="M22 10.8879H16.1517L21.2166 7.96368L20.1043 6.0366L15.0394 8.96081L17.963 3.89631L16.0359 2.78337L13.1123 7.84786V2H10.8876V7.84842L7.96297 2.78337L6.03649 3.89575L8.96061 8.96025L3.8957 6.0366L2.78335 7.96312L7.84826 10.8873H2V13.1121H7.8477L2.78335 16.0363L3.8957 17.9634L8.96005 15.0398L6.03593 20.1042L7.96297 21.2166L10.8871 16.1516V22H13.1118V16.1521L16.0354 21.2166L17.9624 20.1042L15.0383 15.0392L20.1032 17.9634L21.2156 16.0363L16.1512 13.1126H21.9988V10.8879H22ZM12 15.0257C10.3225 15.0257 8.96284 13.6661 8.96284 11.9885C8.96284 10.311 10.3225 8.95129 12 8.95129C13.6775 8.95129 15.0371 10.311 15.0371 11.9885C15.0371 13.6661 13.6775 15.0257 12 15.0257Z" fill="#625DF5"/>
</g>
</svg>
