<svg width="24" height="24" viewBox="0 0 24 24" fill="none" xmlns="http://www.w3.org/2000/svg">
<g id="size=24">
<path id="Path" d="M20.25 3C21.7688 3 23 4.23122 23 5.75V18.25C23 19.7688 21.7688 21 20.25 21H3.75C2.23122 21 1 19.7688 1 18.25V5.75C1 4.23122 2.23122 3 3.75 3H20.25ZM12.4502 13.5996C12.1835 13.7996 11.8165 13.7996 11.5498 13.5996L9.21289 11.8477L2.53125 18.5293C2.65817 19.0851 3.1557 19.5 3.75 19.5H20.25C20.8443 19.5 21.3419 19.0852 21.4688 18.5293L14.7871 11.8477L12.4502 13.5996ZM2.5 16.4395L8.00098 10.9385L2.5 6.8125V16.4395ZM15.999 10.9385L21.5 16.4395V6.8125L15.999 10.9385ZM3.75 4.5C3.30531 4.5 2.91494 4.73226 2.69336 5.08203L12 12.0625L21.3066 5.08203C21.0851 4.73226 20.6947 4.5 20.25 4.5H3.75Z" fill="#000001"/>
</g>
</svg>
