<svg width="24" height="24" viewBox="0 0 24 24" fill="none" xmlns="http://www.w3.org/2000/svg">
<g id="size=24">
<path id="Path" fill-rule="evenodd" clip-rule="evenodd" d="M1 5.75C1 4.23122 2.23122 3 3.75 3H20.25C21.7688 3 23 4.23122 23 5.75V18.25C23 19.7688 21.7688 21 20.25 21H3.75C2.23122 21 1 19.7688 1 18.25V5.75ZM3.75 4.5C3.30517 4.5 2.91461 4.73235 2.69307 5.08231L12 12.0625L21.307 5.08236C21.0854 4.73237 20.6948 4.5 20.25 4.5H3.75ZM2.5 16.4395V6.81251L8.00111 10.9383L2.5 16.4395ZM2.53135 18.5294C2.65827 19.0853 3.1557 19.5 3.75 19.5H20.25C20.8443 19.5 21.3418 19.0852 21.4687 18.5293L14.7868 11.8475L12.45 13.6C12.1834 13.8 11.8167 13.8 11.55 13.6L9.21329 11.8475L2.53135 18.5294ZM15.999 10.9383L21.5 16.4393V6.81258L15.999 10.9383Z" fill="#000001"/>
</g>
</svg>
