<svg width="16" height="16" viewBox="0 0 16 16" fill="none" xmlns="http://www.w3.org/2000/svg">
<g id="size=16">
<path id="Path" d="M13.75 1C14.9926 1 16 2.00736 16 3.25V12.75C16 13.9926 14.9926 15 13.75 15H2.25C1.00736 15 0 13.9926 0 12.75V3.25C0 2.00736 1.00736 1 2.25 1H13.75ZM8.46387 9.83984C8.19201 10.0534 7.80905 10.0533 7.53711 9.83984L6.54785 9.0625L2.51367 13.5H13.4863L9.45215 9.0625L8.46387 9.83984ZM1.5 12.3848L5.36523 8.13379L1.5 5.09668V12.3848ZM10.6348 8.13379L14.5 12.3848V5.09668L10.6348 8.13379ZM2.25 2.5C1.85583 2.5 1.5323 2.80405 1.50195 3.19043L8 8.2959L14.498 3.19043C14.4677 2.80405 14.1442 2.5 13.75 2.5H2.25Z" fill="#000001"/>
</g>
</svg>
