<svg width="16" height="16" viewBox="0 0 16 16" fill="none" xmlns="http://www.w3.org/2000/svg">
<g id="size=16">
<path id="Vector (Stroke)" fill-rule="evenodd" clip-rule="evenodd" d="M3 3.25C3 2.00736 4.00736 1 5.25 1H10.75C11.9926 1 13 2.00736 13 3.25V12.75C13 13.9926 11.9926 15 10.75 15H5.25C4.00736 15 3 13.9926 3 12.75V3.25ZM5.25 2.5C4.83579 2.5 4.5 2.83579 4.5 3.25V12.75C4.5 13.1642 4.83579 13.5 5.25 13.5H10.75C11.1642 13.5 11.5 13.1642 11.5 12.75V3.25C11.5 2.83579 11.1642 2.5 10.75 2.5H5.25ZM5.75 4.75C5.75 4.33579 6.08579 4 6.5 4H9.5C9.91421 4 10.25 4.33579 10.25 4.75C10.25 5.16421 9.91421 5.5 9.5 5.5H6.5C6.08579 5.5 5.75 5.16421 5.75 4.75ZM5.75 7.25C5.75 6.83579 6.08579 6.5 6.5 6.5H9.5C9.91421 6.5 10.25 6.83579 10.25 7.25C10.25 7.66421 9.91421 8 9.5 8H6.5C6.08579 8 5.75 7.66421 5.75 7.25ZM5.75 9.75C5.75 9.33579 6.08579 9 6.5 9H9.5C9.91421 9 10.25 9.33579 10.25 9.75C10.25 10.1642 9.91421 10.5 9.5 10.5H6.5C6.08579 10.5 5.75 10.1642 5.75 9.75Z" fill="#000001"/>
</g>
</svg>
