<svg width="24" height="24" viewBox="0 0 24 24" fill="none" xmlns="http://www.w3.org/2000/svg">
<g id="size=24">
<path id="Path" fill-rule="evenodd" clip-rule="evenodd" d="M4 3.75C4 2.23122 5.23122 1 6.75 1H17.25C18.7688 1 20 2.23122 20 3.75V20.25C20 21.7688 18.7688 23 17.25 23H6.75C5.23122 23 4 21.7688 4 20.25V3.75ZM6.75 2.5C6.05964 2.5 5.5 3.05964 5.5 3.75V20.25C5.5 20.9404 6.05964 21.5 6.75 21.5H17.25C17.9404 21.5 18.5 20.9404 18.5 20.25V3.75C18.5 3.05964 17.9404 2.5 17.25 2.5H6.75ZM8.25 6.25C8.25 5.83579 8.58579 5.5 9 5.5H15C15.4142 5.5 15.75 5.83579 15.75 6.25C15.75 6.66421 15.4142 7 15 7H9C8.58579 7 8.25 6.66421 8.25 6.25ZM8.25 10.25C8.25 9.83579 8.58579 9.5 9 9.5H15C15.4142 9.5 15.75 9.83579 15.75 10.25C15.75 10.6642 15.4142 11 15 11H9C8.58579 11 8.25 10.6642 8.25 10.25ZM8.25 14.25C8.25 13.8358 8.58579 13.5 9 13.5H15C15.4142 13.5 15.75 13.8358 15.75 14.25C15.75 14.6642 15.4142 15 15 15H9C8.58579 15 8.25 14.6642 8.25 14.25Z" fill="#000001"/>
</g>
</svg>
