<svg width="24" height="24" viewBox="0 0 24 24" fill="none" xmlns="http://www.w3.org/2000/svg">
<g id="size=24">
<path id="Path" fill-rule="evenodd" clip-rule="evenodd" d="M6.92676 1.60732C7.4217 1.32479 8.0243 1.30035 8.54004 1.54286L16.0986 5.10048C16.1722 5.13501 16.2585 5.13096 16.3291 5.09072L21.3818 2.204C22.548 1.53822 23.9991 2.38081 24 3.72353V17.4198C23.9998 18.0474 23.6629 18.6278 23.1182 18.9393L17.0732 22.3934C16.5782 22.6761 15.9758 22.7006 15.46 22.4579L7.90137 18.9003C7.82806 18.866 7.74132 18.8692 7.6709 18.9091L2.61816 21.7968C1.45179 22.4629 0.000511224 21.6204 0 20.2772V6.58095C0.000447714 5.95354 0.337114 5.37283 0.881836 5.06142L6.92676 1.60732ZM8.5 17.5253C8.51306 17.531 8.52708 17.5368 8.54004 17.5429L15.5 20.8183V6.47548C15.4869 6.46973 15.4729 6.464 15.46 6.4579L8.5 3.18251V17.5253ZM22.5 3.72353C22.4991 3.53251 22.2922 3.41227 22.126 3.50673L17.0732 6.39345C17.0493 6.40713 17.0244 6.42102 17 6.43349V20.7079L22.374 17.6366C22.4513 17.5921 22.4998 17.509 22.5 17.4198V3.72353ZM1.62598 6.36318C1.5486 6.40752 1.50045 6.49181 1.5 6.58095V20.2772C1.50051 20.4687 1.70761 20.5889 1.87402 20.494L6.92676 17.6073C6.95072 17.5936 6.97556 17.5797 7 17.5673V3.29286L1.62598 6.36318Z" fill="#000001"/>
</g>
</svg>
