<svg width="16" height="16" viewBox="0 0 16 16" fill="none" xmlns="http://www.w3.org/2000/svg">
<g id="size=16">
<path id="Path" d="M8 0C11.8618 0 14.9998 3.11374 15 6.96387C15 8.88821 14.2146 10.6315 12.9482 11.8906C12.9376 11.9012 12.9263 11.911 12.915 11.9209L8.49609 15.8125C8.21276 16.062 7.78724 16.062 7.50391 15.8125L3.08496 11.9209C3.07372 11.911 3.06238 11.9012 3.05176 11.8906C1.78541 10.6315 1 8.88821 1 6.96387C1.00023 3.11374 4.1382 0 8 0ZM8 1.5C4.95852 1.5 2.50023 3.95026 2.5 6.96387C2.5 8.46371 3.10722 9.82279 4.09375 10.8115L8 14.251L11.9062 10.8115C12.8928 9.82279 13.5 8.46371 13.5 6.96387C13.4998 3.95026 11.0415 1.5 8 1.5ZM8 4.5C9.38071 4.5 10.5 5.61929 10.5 7C10.5 8.38071 9.38071 9.5 8 9.5C6.61929 9.5 5.5 8.38071 5.5 7C5.5 5.61929 6.61929 4.5 8 4.5ZM8 6C7.44772 6 7 6.44772 7 7C7 7.55229 7.44772 8 8 8C8.55228 8 9 7.55229 9 7C9 6.44772 8.55228 6 8 6Z" fill="#000001"/>
</g>
</svg>
