<svg width="16" height="16" viewBox="0 0 16 16" fill="none" xmlns="http://www.w3.org/2000/svg">
<g id="size=16">
<path id="Path" fill-rule="evenodd" clip-rule="evenodd" d="M5.19922 1.18648C5.539 1.01673 5.93844 1.01054 6.2832 1.16988L10.2656 3.01363L14.2695 1.34566C15.0924 1.00332 15.9994 1.60873 16 2.49996V11.4404C16 11.9137 15.7319 12.3468 15.3086 12.5586L10.8008 14.8134C10.4608 14.9834 10.0618 14.9887 9.7168 14.8291L5.73438 12.9853L1.73047 14.6533C0.907216 14.9962 0.000148675 14.3918 0 13.5V4.55856C0.000432571 4.08554 0.268277 3.65196 0.691406 3.44039L5.19922 1.18648ZM1.5 4.71285V13.125L5 11.666V2.96285L1.5 4.71285ZM6.5 11.6875L9.5 13.0761V4.31246L6.5 2.92379V11.6875ZM11 4.33297V13.0361L14.5 11.2861V2.87496L11 4.33297Z" fill="#000001"/>
</g>
</svg>
