<svg width="24" height="24" viewBox="0 0 24 24" fill="none" xmlns="http://www.w3.org/2000/svg">
<g id="size=24">
<path id="Path" d="M12 0C14.6508 0 17.1937 1.04785 19.0693 2.91406C20.945 4.78051 21.9999 7.31296 22 9.9541C22 13.8365 19.51 17.3437 17.168 19.8037C15.9814 21.0501 14.7976 22.0651 13.9111 22.7676C13.4674 23.1192 13.0962 23.3933 12.835 23.5811C12.7043 23.675 12.6009 23.7475 12.5293 23.7969C12.4936 23.8215 12.4656 23.8405 12.4463 23.8535L12.4238 23.8691L12.418 23.873L12.416 23.874C12.416 23.874 12.4146 23.875 12 23.25L12.415 23.875C12.1638 24.0417 11.8362 24.0416 11.585 23.875L11.5762 23.8691L11.5537 23.8535C11.5344 23.8405 11.5064 23.8215 11.4707 23.7969C11.3991 23.7475 11.2957 23.675 11.165 23.5811C10.9038 23.3933 10.5326 23.1192 10.0889 22.7676C9.20237 22.0651 8.01862 21.0501 6.83203 19.8037C4.49001 17.3437 2 13.8365 2 9.9541C2.00012 7.31296 3.055 4.78051 4.93066 2.91406C6.80628 1.04785 9.34918 0 12 0ZM12 1.5C9.74448 1.5 7.58206 2.39161 5.98828 3.97754C4.39473 5.56326 3.50012 7.71317 3.5 9.9541C3.5 13.2307 5.6351 16.3716 7.91797 18.7695C9.04388 19.9522 10.1726 20.92 11.0205 21.5918C11.421 21.9091 11.7578 22.1591 12 22.334C12.2422 22.1591 12.579 21.9091 12.9795 21.5918C13.8274 20.92 14.9561 19.9522 16.082 18.7695C18.3649 16.3716 20.5 13.2307 20.5 9.9541C20.4999 7.71317 19.6053 5.56326 18.0117 3.97754C16.4179 2.39161 14.2555 1.5 12 1.5ZM12 6C14.2091 6 16 7.79086 16 10C16 12.2091 14.2091 14 12 14C9.79086 14 8 12.2091 8 10C8 7.79086 9.79086 6 12 6ZM12 7.5C10.6193 7.5 9.5 8.61929 9.5 10C9.5 11.3807 10.6193 12.5 12 12.5C13.3807 12.5 14.5 11.3807 14.5 10C14.5 8.61929 13.3807 7.5 12 7.5Z" fill="#000001"/>
</g>
</svg>
