<svg width="24" height="24" viewBox="0 0 24 24" fill="none" xmlns="http://www.w3.org/2000/svg">
<g id="size=24">
<path id="Path" fill-rule="evenodd" clip-rule="evenodd" d="M6.92676 1.6074C7.42172 1.32486 8.02428 1.30042 8.54004 1.54295L16.0986 5.10057C16.1722 5.1351 16.2585 5.13104 16.3291 5.0908L21.3818 2.20408C22.548 1.53826 23.9991 2.38084 24 3.72361V17.4199C23.9998 18.0475 23.6629 18.6279 23.1182 18.9394L17.0732 22.3935C16.5782 22.6762 15.9758 22.7007 15.46 22.458L7.90137 18.9004C7.82804 18.866 7.74134 18.8693 7.6709 18.9092L2.61816 21.7969C1.45179 22.463 0.000511224 21.6204 0 20.2773V6.58103C0.000422424 5.9536 0.337094 5.37292 0.881836 5.0615L6.92676 1.6074ZM8.5 17.5254C8.51307 17.5311 8.52707 17.5369 8.54004 17.5429L15.5 20.8183V6.47557C15.4869 6.46981 15.4729 6.46409 15.46 6.45799L8.5 3.1826V17.5254ZM22.5 3.72361C22.4992 3.53254 22.2922 3.41231 22.126 3.50682L17.0732 6.39353C17.0493 6.40722 17.0244 6.4211 17 6.43357V20.708L22.374 17.6367C22.4513 17.5922 22.4998 17.5091 22.5 17.4199V3.72361ZM1.62598 6.36326C1.54858 6.40761 1.50042 6.49187 1.5 6.58103V20.2773C1.50051 20.4688 1.70761 20.589 1.87402 20.4941L6.92676 17.6074C6.95073 17.5937 6.97555 17.5798 7 17.5674V3.29295L1.62598 6.36326Z" fill="#000001"/>
</g>
</svg>
