<svg width="24" height="24" viewBox="0 0 24 24" fill="none" xmlns="http://www.w3.org/2000/svg">
<g id="size=24">
<path id="Path" fill-rule="evenodd" clip-rule="evenodd" d="M6.92644 1.6068C7.42167 1.32381 8.02374 1.29992 8.53983 1.54279L16.0989 5.09999C16.1726 5.13468 16.2586 5.13127 16.3294 5.09084L21.3818 2.20376C22.5484 1.5371 24 2.37949 24 3.72318V17.4197C24 18.0477 23.6635 18.6275 23.1182 18.9391L17.0736 22.3932C16.5783 22.6762 15.9763 22.7001 15.4602 22.4572L7.90113 18.9C7.8274 18.8653 7.74139 18.8687 7.67065 18.9092L2.61824 21.7962C1.45159 22.4629 0 21.6205 0 20.2768V6.58032C0 5.95233 0.3365 5.37247 0.881757 5.0609L6.92644 1.6068ZM1.62597 6.36326L7 3.29239V17.5671C6.97524 17.5797 6.95071 17.5929 6.92644 17.6068L1.87403 20.4939C1.70737 20.5891 1.5 20.4688 1.5 20.2768V6.58032C1.5 6.49061 1.54807 6.40777 1.62597 6.36326ZM8.53983 17.5428C8.52661 17.5366 8.51333 17.5305 8.5 17.5247V3.18184L15.4602 6.45721C15.4734 6.46344 15.4867 6.46948 15.5 6.47535V20.8182L8.53983 17.5428ZM17 20.7076L22.374 17.6367C22.4519 17.5922 22.5 17.5094 22.5 17.4197V3.72318C22.5 3.53123 22.2926 3.41088 22.126 3.50612L17.0736 6.39321C17.0493 6.40708 17.0248 6.42032 17 6.43295V20.7076Z" fill="#000001"/>
</g>
</svg>
