<svg width="16" height="16" viewBox="0 0 16 16" fill="none" xmlns="http://www.w3.org/2000/svg">
<g id="size=16">
<path id="Path" d="M5.46973 9.46973C5.76262 9.17683 6.23738 9.17683 6.53027 9.46973C6.82317 9.76262 6.82317 10.2374 6.53027 10.5303L3.56055 13.5H5.75C6.16421 13.5 6.5 13.8358 6.5 14.25C6.5 14.6642 6.16421 15 5.75 15H1.75C1.33579 15 1 14.6642 1 14.25V10.25C1 9.83579 1.33579 9.5 1.75 9.5C2.16421 9.5 2.5 9.83579 2.5 10.25V12.4395L5.46973 9.46973ZM14.25 1C14.6642 1 15 1.33579 15 1.75V5.75C15 6.16421 14.6642 6.5 14.25 6.5C13.8358 6.5 13.5 6.16421 13.5 5.75V3.56055L10.5303 6.53027C10.2374 6.82317 9.76262 6.82317 9.46973 6.53027C9.17683 6.23738 9.17683 5.76262 9.46973 5.46973L12.4395 2.5H10.25C9.83579 2.5 9.5 2.16421 9.5 1.75C9.5 1.33579 9.83579 1 10.25 1H14.25Z" fill="#000001"/>
</g>
</svg>
