<svg width="16" height="16" viewBox="0 0 16 16" fill="none" xmlns="http://www.w3.org/2000/svg">
<g id="size=16">
<path id="Path" d="M1.75 9.95312C2.16421 9.95312 2.5 10.2889 2.5 10.7031V12.75C2.5 13.1642 2.83579 13.5 3.25 13.5H5.29688C5.71109 13.5 6.04688 13.8358 6.04688 14.25C6.04688 14.6642 5.71109 15 5.29688 15H3.25C2.00736 15 1 13.9926 1 12.75V10.7031C1 10.2889 1.33579 9.95312 1.75 9.95312ZM14.25 9.95312C14.6642 9.95312 15 10.2889 15 10.7031V12.75C15 13.9926 13.9926 15 12.75 15H10.7031C10.2889 15 9.95312 14.6642 9.95312 14.25C9.95312 13.8358 10.2889 13.5 10.7031 13.5H12.75C13.1642 13.5 13.5 13.1642 13.5 12.75V10.7031C13.5 10.2889 13.8358 9.95312 14.25 9.95312ZM5.29688 1C5.71109 1 6.04688 1.33579 6.04688 1.75C6.04688 2.16421 5.71109 2.5 5.29688 2.5H3.25C2.83579 2.5 2.5 2.83579 2.5 3.25V5.29688C2.5 5.71109 2.16421 6.04688 1.75 6.04688C1.33579 6.04688 1 5.71109 1 5.29688V3.25C1 2.00736 2.00736 1 3.25 1H5.29688ZM12.75 1C13.9926 1 15 2.00736 15 3.25V5.29688C15 5.71109 14.6642 6.04688 14.25 6.04688C13.8358 6.04688 13.5 5.71109 13.5 5.29688V3.25C13.5 2.83579 13.1642 2.5 12.75 2.5H10.7031C10.2889 2.5 9.95312 2.16421 9.95312 1.75C9.95312 1.33579 10.2889 1 10.7031 1H12.75Z" fill="#000001"/>
</g>
</svg>
