<svg width="24" height="24" viewBox="0 0 24 24" fill="none" xmlns="http://www.w3.org/2000/svg">
<g id="size=24">
<path id="Path" fill-rule="evenodd" clip-rule="evenodd" d="M16.3782 20.429C16.4481 20.2524 16.5688 20.1005 16.7249 19.9924C16.8286 19.9206 16.9454 19.8699 17.0687 19.8432C17.192 19.8166 17.3193 19.8146 17.4433 19.8373C17.5674 19.8599 17.6858 19.9069 17.7917 19.9754C17.8976 20.044 17.9889 20.1327 18.0605 20.2366C18.1684 20.393 18.2275 20.5778 18.2305 20.7677C18.2334 20.9577 18.18 21.1442 18.077 21.3038C17.974 21.4634 17.8261 21.5888 17.6518 21.6642C17.4776 21.7397 17.2849 21.7617 17.0982 21.7275C16.9115 21.6934 16.739 21.6046 16.6027 21.4724C16.4664 21.3402 16.3723 21.1705 16.3323 20.9848C16.2924 20.7991 16.3084 20.6057 16.3782 20.429ZM10.9067 21.9395C10.9498 21.8305 11.0243 21.7367 11.1207 21.6701C11.2499 21.5807 11.4092 21.5464 11.5637 21.5746C11.7182 21.6028 11.8551 21.6912 11.9445 21.8205C12.0111 21.9169 12.0477 22.0309 12.0496 22.1481C12.0515 22.2654 12.0186 22.3805 11.9551 22.4791C11.8916 22.5776 11.8003 22.655 11.6928 22.7016C11.5853 22.7482 11.4664 22.7619 11.3511 22.7408C11.2358 22.7198 11.1294 22.665 11.0453 22.5834C10.9611 22.5018 10.903 22.3971 10.8784 22.2825C10.8537 22.1679 10.8636 22.0485 10.9067 21.9395ZM4.43315 19.1323C4.3725 19.0738 4.33052 18.9987 4.31251 18.9164C4.30048 18.8615 4.29938 18.8049 4.3093 18.7496C4.31922 18.6943 4.33995 18.6416 4.3703 18.5944C4.40065 18.5472 4.44002 18.5064 4.48616 18.4745C4.53229 18.4426 4.58428 18.4201 4.63913 18.4083C4.72146 18.3906 4.8072 18.3976 4.88551 18.4286C4.96382 18.4596 5.0312 18.5132 5.07914 18.5824C5.12707 18.6517 5.15342 18.7337 5.15485 18.818C5.15627 18.9022 5.13272 18.985 5.08715 19.0559C5.04159 19.1268 4.97606 19.1826 4.89884 19.2162C4.82162 19.2498 4.73617 19.2598 4.65329 19.2449C4.57041 19.2299 4.4938 19.1908 4.43315 19.1323ZM2.83352 11.8127C2.83125 11.9941 2.77527 12.1708 2.67267 12.3203C2.60458 12.4197 2.5176 12.5046 2.4167 12.5703C2.31579 12.6359 2.20295 12.6811 2.08461 12.7031C1.96626 12.7251 1.84475 12.7236 1.727 12.6986C1.60925 12.6736 1.49758 12.6256 1.39836 12.5574C1.2489 12.4548 1.13322 12.31 1.06594 12.1416C0.998666 11.9731 0.982819 11.7885 1.02041 11.611C1.05799 11.4335 1.14732 11.2712 1.2771 11.1446C1.40688 11.0179 1.57128 10.9326 1.74951 10.8994C1.92773 10.8663 2.11178 10.8867 2.27838 10.9583C2.44498 11.0298 2.58664 11.1491 2.68546 11.3012C2.78427 11.4533 2.8358 11.6313 2.83352 11.8127ZM6.05703 6.08987C6.00641 6.21794 5.91899 6.32811 5.80581 6.40645C5.73063 6.45849 5.64595 6.4952 5.55659 6.51448C5.46724 6.53375 5.37496 6.53523 5.28504 6.51881C5.19511 6.50239 5.1093 6.4684 5.03251 6.41879C4.95571 6.36917 4.88944 6.3049 4.83747 6.22965C4.75923 6.11635 4.71631 5.98238 4.71415 5.84468C4.71198 5.70698 4.75067 5.57172 4.82531 5.45602C4.89995 5.34032 5.0072 5.24936 5.1335 5.19465C5.25979 5.13994 5.39946 5.12393 5.53484 5.14865C5.67023 5.17337 5.79525 5.23771 5.8941 5.33353C5.99295 5.42935 6.06119 5.55234 6.09019 5.68697C6.11919 5.8216 6.10765 5.96181 6.05703 6.08987ZM7.74263 1.88806C7.81193 1.95505 7.85982 2.0411 7.88024 2.13532C7.89383 2.19784 7.89498 2.26243 7.88363 2.32539C7.87227 2.38835 7.84863 2.44846 7.81406 2.50228C7.77948 2.5561 7.73465 2.60257 7.68213 2.63905C7.6296 2.67552 7.57041 2.70128 7.50793 2.71486C7.41379 2.73538 7.31568 2.7275 7.22602 2.69222C7.13635 2.65693 7.05916 2.59583 7.00421 2.51663C6.94925 2.43743 6.919 2.3437 6.91729 2.2473C6.91557 2.1509 6.94247 2.05615 6.99457 1.97505C7.04667 1.89394 7.12164 1.83012 7.21 1.79167C7.29835 1.75321 7.39612 1.74184 7.49093 1.759C7.58574 1.77616 7.67333 1.82107 7.74263 1.88806ZM13.7007 2.42403C13.8633 2.50097 13.9995 2.62446 14.092 2.77887C14.2159 2.9858 14.2526 3.23346 14.1942 3.46748C14.1357 3.70149 13.9869 3.90274 13.7803 4.02702C13.6261 4.11972 13.4478 4.16457 13.2682 4.15589C13.0885 4.14721 12.9154 4.08539 12.7708 3.97824C12.6262 3.8711 12.5166 3.72346 12.4559 3.55398C12.3952 3.38451 12.3861 3.20082 12.4297 3.02616C12.4733 2.85149 12.5677 2.6937 12.701 2.57274C12.8342 2.45178 13.0003 2.37309 13.1783 2.34661C13.3562 2.32014 13.538 2.34708 13.7007 2.42403ZM18.2071 7.29216C18.4874 7.91595 18.6069 8.60014 18.5546 9.2821L18.5563 9.28176C18.9488 9.3954 19.3029 9.61396 19.5805 9.91393C19.8581 10.2139 20.0488 10.5839 20.132 10.9842C20.2152 11.3845 20.1877 11.8 20.0526 12.1858C19.9176 12.5717 19.6799 12.9134 19.3653 13.1742C19.9021 14.0295 20.0885 15.0591 19.8854 16.0484C19.6824 17.0378 19.1056 17.9106 18.2754 18.4848C17.5518 18.9851 16.7215 19.1924 15.9062 19.1623C15.7507 19.7918 15.3714 20.3431 14.8393 20.7132C13.7976 21.4336 12.439 21.3002 11.5343 20.4924C11.5083 20.5126 11.4845 20.5343 11.4608 20.556C11.4303 20.5838 11.3998 20.6116 11.365 20.636C10.8358 21.0033 10.217 21.2204 9.57437 21.2642C8.93175 21.308 8.28927 21.1769 7.71511 20.8848C7.14094 20.5927 6.6565 20.1505 6.3132 19.6051C5.96989 19.0597 5.78052 18.4315 5.76519 17.7871C4.86962 17.6404 4.03599 17.1435 3.50528 16.3208C2.61073 14.9331 2.88218 13.1366 4.05968 12.0575C3.19221 10.6603 3.55301 8.81705 4.92039 7.87171C5.32053 7.59924 5.77973 7.42602 6.26002 7.36636C6.592 6.4896 7.18317 5.73495 7.9547 5.20302C9.53836 4.10831 11.5563 4.14929 13.0817 5.12715C13.7239 4.89304 14.4145 4.82387 15.0903 4.92596C15.7661 5.02806 16.4055 5.29816 16.95 5.71154C17.4945 6.12492 17.9267 6.66838 18.2071 7.29216ZM20.7955 8.3722C20.7391 8.51477 20.6417 8.63739 20.5157 8.72458C20.432 8.78254 20.3377 8.82341 20.2382 8.84487C20.1387 8.86633 20.036 8.86795 19.9359 8.84964C19.8357 8.83133 19.7402 8.79345 19.6547 8.73817C19.5692 8.68289 19.4955 8.61128 19.4377 8.52745C19.3506 8.40129 19.3029 8.25213 19.3005 8.09882C19.2981 7.94551 19.3412 7.79494 19.4244 7.66614C19.5075 7.53735 19.6269 7.43611 19.7676 7.37524C19.9082 7.31436 20.0637 7.29659 20.2144 7.32415C20.3651 7.35171 20.5043 7.42337 20.6143 7.53008C20.7243 7.63679 20.8003 7.77375 20.8325 7.92365C20.8648 8.07354 20.8519 8.22964 20.7955 8.3722ZM21.8523 12.967C21.9342 13.046 21.9909 13.1476 22.0151 13.2589C22.0312 13.3328 22.0325 13.4091 22.0191 13.4836C22.0057 13.558 21.9778 13.6291 21.9369 13.6927C21.8961 13.7563 21.8431 13.8113 21.781 13.8544C21.7189 13.8976 21.6489 13.928 21.5751 13.9441C21.4639 13.9683 21.348 13.9589 21.2421 13.9172C21.1362 13.8755 21.0451 13.8033 20.9802 13.7098C20.9153 13.6162 20.8796 13.5056 20.8776 13.3917C20.8755 13.2778 20.9073 13.1659 20.9688 13.0701C21.0303 12.9743 21.1188 12.8989 21.2232 12.8535C21.3275 12.808 21.443 12.7946 21.5549 12.8148C21.6669 12.835 21.7704 12.8879 21.8523 12.967ZM22.8716 10.2612C22.9324 10.3204 22.9743 10.3964 22.9919 10.4794C23.0153 10.5903 22.9939 10.706 22.9324 10.8012C22.8709 10.8964 22.7742 10.9634 22.6636 10.9875C22.5807 11.0055 22.4943 10.9985 22.4154 10.9673C22.3365 10.9361 22.2686 10.8822 22.2203 10.8124C22.1721 10.7426 22.1456 10.66 22.1443 10.5751C22.1429 10.4902 22.1668 10.4069 22.2129 10.3356C22.259 10.2643 22.3251 10.2083 22.403 10.1747C22.4809 10.1411 22.567 10.1314 22.6505 10.1468C22.7339 10.1622 22.8109 10.202 22.8716 10.2612ZM15.5973 15.679C16.007 15.7357 16.4125 15.7918 16.4771 16.2048H16.4761C16.6477 17.3029 14.5194 16.8931 14.0331 16.656C13.2705 16.2817 12.8075 15.4272 13.0055 14.5834C13.0817 14.2572 13.495 13.4115 13.8839 12.6155C14.2478 11.8709 14.5904 11.1697 14.6159 10.9782C14.6697 10.5741 14.4548 10.5396 14.3194 10.5328C14.1458 10.5237 14.0073 10.6087 13.8381 10.8657C13.7315 11.0271 12.8694 12.7383 12.2915 13.8851C12.029 14.4061 11.8251 14.8107 11.7776 14.9005C11.5054 15.4136 11.1629 15.5372 10.819 15.5189C10.3174 15.4925 10.088 15.2236 10.1604 14.7399C10.1799 14.6097 10.4239 14.0115 10.6882 13.3638C11.0006 12.5979 11.3412 11.7628 11.3724 11.5503C11.408 11.3078 11.3602 11.0503 11.1196 10.9271C10.8789 10.8038 10.5953 10.9931 10.5104 11.136C10.4551 11.2293 10.0756 12.1949 9.67222 13.2212C9.22023 14.3711 8.73824 15.5973 8.64882 15.7584C8.35842 16.2868 8.05245 16.4548 7.59282 16.4765C6.50568 16.528 5.69913 15.6334 6.05485 14.5363C6.0841 14.4461 6.14365 14.2462 6.22465 13.9743C6.58236 12.7734 7.35844 10.168 7.79116 9.39914C8.14756 8.76507 9.13722 8.28376 9.82362 8.58081C10.0494 8.67861 10.3302 8.81352 10.5424 8.91549C10.6647 8.97421 10.7642 9.02201 10.8173 9.04552C11.1111 9.17575 11.4233 8.88304 11.5918 8.72504C11.6157 8.70262 11.6367 8.68292 11.6544 8.66752C11.6703 8.65366 11.6861 8.63973 11.7019 8.62582C11.8273 8.51532 11.9515 8.40591 12.1049 8.34033C12.2775 8.26649 12.5489 8.23567 12.7588 8.26649C12.9097 8.28485 13.0526 8.34464 13.1717 8.43923C13.2995 8.54049 13.3876 8.62526 13.4968 8.73028C13.5194 8.75207 13.543 8.77474 13.568 8.7986C13.7694 8.98988 13.9187 8.89962 14.0269 8.83421C14.0368 8.82827 14.0462 8.82253 14.0554 8.81723L14.0609 8.81401C14.2489 8.70473 14.4007 8.61648 14.9591 8.62654C15.5413 8.6367 16.2084 8.84433 16.3468 9.83472C16.4218 10.3696 15.9991 11.3139 15.5602 12.2942C15.096 13.3312 14.6137 14.4086 14.6833 15.0847C14.7325 15.5594 15.1672 15.6195 15.5973 15.679Z" fill="#ED1C40"/>
</g>
</svg>
