<svg width="24" height="24" viewBox="0 0 24 24" fill="none" xmlns="http://www.w3.org/2000/svg">
<g id="size=24">
<path id="Path" d="M12 1C18.0751 1 23 5.92487 23 12C23 18.0751 18.0751 23 12 23C5.92487 23 1 18.0751 1 12C1 5.92487 5.92487 1 12 1ZM12 2.5C6.75329 2.5 2.5 6.75329 2.5 12C2.5 17.2467 6.75329 21.5 12 21.5C17.2467 21.5 21.5 17.2467 21.5 12C21.5 6.75329 17.2467 2.5 12 2.5ZM16 14.5C16.4142 14.5 16.75 14.8358 16.75 15.25C16.75 15.6642 16.4142 16 16 16H8C7.58579 16 7.25 15.6642 7.25 15.25C7.25 14.8358 7.58579 14.5 8 14.5H16ZM9.00977 8C9.56205 8 10.0098 8.44772 10.0098 9C10.0098 9.55229 9.56205 10 9.00977 10H9C8.44772 10 8 9.55229 8 9C8 8.44772 8.44772 8 9 8H9.00977ZM15.0098 8C15.5621 8 16.0098 8.44772 16.0098 9C16.0098 9.55229 15.5621 10 15.0098 10H15C14.4477 10 14 9.55229 14 9C14 8.44772 14.4477 8 15 8H15.0098Z" fill="#000001"/>
</g>
</svg>
