<svg width="16" height="16" viewBox="0 0 16 16" fill="none" xmlns="http://www.w3.org/2000/svg">
<g id="size=16">
<g id="Path">
<path d="M5.5 9.5C5.08579 9.5 4.75 9.83579 4.75 10.25C4.75 10.6642 5.08579 11 5.5 11H10.5C10.9142 11 11.25 10.6642 11.25 10.25C11.25 9.83579 10.9142 9.5 10.5 9.5H5.5Z" fill="#000001"/>
<path d="M5 6C5 5.44772 5.44772 5 6 5H6.00667C6.55895 5 7.00667 5.44772 7.00667 6C7.00667 6.55228 6.55895 7 6.00667 7H6C5.44772 7 5 6.55228 5 6Z" fill="#000001"/>
<path d="M10 5C9.44771 5 9 5.44772 9 6C9 6.55228 9.44771 7 10 7H10.0067C10.559 7 11.0067 6.55228 11.0067 6C11.0067 5.44772 10.559 5 10.0067 5H10Z" fill="#000001"/>
<path fill-rule="evenodd" clip-rule="evenodd" d="M8 0C3.58172 0 0 3.58172 0 8C0 12.4183 3.58172 16 8 16C12.4183 16 16 12.4183 16 8C16 3.58172 12.4183 0 8 0ZM1.5 8C1.5 4.41015 4.41015 1.5 8 1.5C11.5899 1.5 14.5 4.41015 14.5 8C14.5 11.5899 11.5899 14.5 8 14.5C4.41015 14.5 1.5 11.5899 1.5 8Z" fill="#000001"/>
</g>
</g>
</svg>
