<svg width="16" height="16" viewBox="0 0 16 16" fill="none" xmlns="http://www.w3.org/2000/svg">
<g id="size=16">
<path id="Path" d="M7.99988 0C12.4181 0 15.9998 3.58167 15.9998 7.99988C15.9998 12.4181 12.4181 15.9998 7.99988 15.9998C3.58179 15.9996 0 12.418 0 7.99988C0 3.58176 3.58179 0.000148144 7.99988 0ZM7.99988 1.49998C4.41021 1.50013 1.49998 4.41017 1.49998 7.99988C1.49998 11.5896 4.41021 14.4996 7.99988 14.4998C11.5897 14.4998 14.4998 11.5897 14.4998 7.99988C14.4998 4.41008 11.5897 1.49998 7.99988 1.49998ZM10.4998 9.49986C10.914 9.49986 11.2498 9.83564 11.2498 10.2498C11.2498 10.6641 10.914 10.9998 10.4998 10.9998H5.49992C5.08583 10.9997 4.74993 10.664 4.74993 10.2498C4.74993 9.83573 5.08583 9.5 5.49992 9.49986H10.4998ZM6.00674 4.99992C6.55894 5.00002 7.00673 5.44769 7.00673 5.99991C7.00673 6.55213 6.55894 6.9998 6.00674 6.99989H5.99991C5.44776 6.99974 4.99992 6.55209 4.99992 5.99991C4.99992 5.44772 5.44776 5.00007 5.99991 4.99992H6.00674ZM10.0067 4.99992C10.5589 5.00001 11.0067 5.44769 11.0067 5.99991C11.0067 6.55213 10.5589 6.9998 10.0067 6.99989H9.99985C9.4477 6.99974 8.99986 6.55209 8.99986 5.99991C8.99986 5.44772 9.4477 5.00007 9.99985 4.99992H10.0067Z" fill="#000001"/>
</g>
</svg>
