<svg width="24" height="24" viewBox="0 0 24 24" fill="none" xmlns="http://www.w3.org/2000/svg">
<g id="size=24">
<path id="Path" d="M21.25 17C21.6642 17 22 17.3358 22 17.75C22 18.1642 21.6642 18.5 21.25 18.5H2.75C2.33579 18.5 2 18.1642 2 17.75C2 17.3358 2.33579 17 2.75 17H21.25ZM21.25 11C21.6642 11 22 11.3358 22 11.75C22 12.1642 21.6642 12.5 21.25 12.5H2.75C2.33579 12.5 2 12.1642 2 11.75C2 11.3358 2.33579 11 2.75 11H21.25ZM21.25 5C21.6642 5 22 5.33579 22 5.75C22 6.16421 21.6642 6.5 21.25 6.5H2.75C2.33579 6.5 2 6.16421 2 5.75C2 5.33579 2.33579 5 2.75 5H21.25Z" fill="#000001"/>
</g>
</svg>
