<svg width="16" height="16" viewBox="0 0 16 16" fill="none" xmlns="http://www.w3.org/2000/svg">
<g id="size=16">
<g id="Path">
<path d="M1 3.75C1 3.33579 1.33579 3 1.75 3H14.25C14.6642 3 15 3.33579 15 3.75C15 4.16421 14.6642 4.5 14.25 4.5H1.75C1.33579 4.5 1 4.16421 1 3.75Z" fill="#000001"/>
<path d="M1 7.75C1 7.33579 1.33579 7 1.75 7H14.25C14.6642 7 15 7.33579 15 7.75C15 8.16421 14.6642 8.5 14.25 8.5H1.75C1.33579 8.5 1 8.16421 1 7.75Z" fill="#000001"/>
<path d="M1.75 11C1.33579 11 1 11.3358 1 11.75C1 12.1642 1.33579 12.5 1.75 12.5H14.25C14.6642 12.5 15 12.1642 15 11.75C15 11.3358 14.6642 11 14.25 11H1.75Z" fill="#000001"/>
</g>
</g>
</svg>
