<svg width="16" height="16" viewBox="0 0 16 16" fill="none" xmlns="http://www.w3.org/2000/svg">
<g id="size=16">
<path id="Path" fill-rule="evenodd" clip-rule="evenodd" d="M15.6813 10.2429C15.8888 9.53124 16 8.77861 16 8C16 5.94559 15.2256 4.07206 13.9528 2.65536C13.9837 2.52526 14 2.38954 14 2.25C14 1.2835 13.2165 0.5 12.25 0.5H12.2433C11.9216 0.5 11.6202 0.586799 11.3612 0.738255C10.3393 0.264442 9.20053 0 8 0C6.40815 0 4.92488 0.464935 3.6786 1.26642C3.40947 1.09761 3.09113 1 2.75 1H2.74333C1.77683 1 0.993333 1.7835 0.993333 2.75C0.993333 3.09335 1.09221 3.4136 1.26305 3.68384C0.463633 4.92904 0 6.41038 0 8C0 10.5235 1.16843 12.7741 2.99379 14.2404C3.01528 15.1882 3.79035 15.95 4.74333 15.95H4.75C5.10267 15.95 5.43098 15.8456 5.70574 15.6662C6.43249 15.8833 7.20262 16 8 16C10.5264 16 12.7793 14.8289 14.2454 13H14.25C15.2165 13 16 12.2165 16 11.25C16 10.8751 15.8821 10.5277 15.6813 10.2429ZM2.57339 4.49185C2.5589 4.49046 2.54446 4.48888 2.53008 4.48714C1.87819 5.5001 1.5 6.70588 1.5 8C1.5 9.91803 2.33076 11.642 3.65207 12.8318C3.76361 12.7427 3.88628 12.667 4.01767 12.607C3.98931 9.60432 3.58301 7.46069 2.57339 4.49185ZM6.5 14.2C6.5 14.242 6.49851 14.2837 6.4956 14.325C6.97846 14.4394 7.48216 14.5 8 14.5C9.93199 14.5 11.6671 13.6571 12.8577 12.319C12.6292 12.0233 12.4933 11.6525 12.4933 11.25C12.4933 11.0224 12.5368 10.805 12.6158 10.6056C11.8364 9.80129 11.0872 9.0891 10.3101 8.42718C10.2429 8.54305 10.1745 8.65868 10.1048 8.77417C9.16334 10.3347 8.0037 11.8516 6.39537 13.6025C6.46307 13.7889 6.5 13.9901 6.5 14.2ZM14.3257 9.50161C14.3006 9.50054 14.2754 9.5 14.25 9.5H14.2433C14.0583 9.5 13.8799 9.52873 13.7124 9.58198C12.8093 8.64916 11.9438 7.83387 11.0376 7.07887C11.5224 6.1121 11.9558 5.10273 12.3902 3.99447C12.6035 3.97756 12.8061 3.92237 12.9911 3.83577C13.9331 4.96361 14.5 6.4156 14.5 8C14.5 8.51684 14.4397 9.0196 14.3257 9.50161ZM8 1.5C8.89 1.5 9.73823 1.67887 10.5107 2.00263C10.4992 2.08344 10.4933 2.16603 10.4933 2.25C10.4933 2.72292 10.6809 3.15201 10.9858 3.46695C10.6075 4.43099 10.2358 5.30323 9.83369 6.12933C8.33806 5.01308 6.65975 3.98385 4.49852 2.82259C4.4995 2.79852 4.5 2.77432 4.5 2.75C4.5 2.67568 4.49537 2.60245 4.48637 2.53057C5.49949 1.87838 6.70556 1.5 8 1.5ZM4.09427 4.309C5.05128 7.18699 5.46507 9.39119 5.51412 12.3428C6.95471 10.7518 7.98521 9.38373 8.82041 7.99932C8.92544 7.82523 9.02754 7.65062 9.12712 7.47498C7.71664 6.40318 6.13798 5.41902 4.09427 4.309Z" fill="#000001"/>
</g>
</svg>
