<svg width="16" height="16" viewBox="0 0 16 16" fill="none" xmlns="http://www.w3.org/2000/svg">
<g id="size=16">
<path id="Path" d="M8 0C9.20053 0 10.3394 0.264468 11.3613 0.738281C11.6203 0.586877 11.9216 0.500031 12.2432 0.5H12.25C13.2165 0.5 14 1.2835 14 2.25C14 2.38948 13.984 2.52522 13.9531 2.65527C15.2259 4.07196 16 5.94565 16 8C16 8.77861 15.8891 9.53154 15.6816 10.2432C15.8823 10.5279 16 10.8752 16 11.25C16 12.2165 15.2165 13 14.25 13H14.2451C12.779 14.8289 10.5263 16 8 16C7.20271 16 6.43273 15.8831 5.70605 15.666C5.43129 15.8455 5.10267 15.9502 4.75 15.9502H4.74316C3.79026 15.9501 3.01563 15.188 2.99414 14.2402C1.16877 12.774 0 10.5235 0 8C0 6.41038 0.463277 4.92879 1.2627 3.68359C1.09199 3.41343 0.993164 3.09321 0.993164 2.75C0.993164 1.78356 1.77674 1.00009 2.74316 1H2.75C3.09113 1 3.40958 1.09779 3.67871 1.2666C4.925 0.465118 6.40815 0 8 0ZM10.1045 8.77441C9.1631 10.3348 8.00371 11.8518 6.39551 13.6025C6.4632 13.7889 6.5 13.9904 6.5 14.2002C6.49999 14.2422 6.49803 14.284 6.49512 14.3252C6.97798 14.4396 7.48216 14.5 8 14.5C9.93184 14.5 11.6669 13.6573 12.8574 12.3193C12.629 12.0237 12.4932 11.6525 12.4932 11.25C12.4932 11.0224 12.5372 10.8049 12.6162 10.6055C11.8368 9.80122 11.0876 9.08867 10.3105 8.42676C10.2433 8.54263 10.1742 8.65892 10.1045 8.77441ZM2.53027 4.4873C1.8784 5.50026 1.5 6.7059 1.5 8C1.5 9.91803 2.33103 11.6423 3.65234 12.832C3.76381 12.743 3.8863 12.6673 4.01758 12.6074C3.98922 9.6048 3.5828 7.4609 2.57324 4.49219C2.55886 4.4908 2.54455 4.48904 2.53027 4.4873ZM4.09473 4.30859C5.05173 7.18659 5.46461 9.39118 5.51367 12.3428C6.95426 10.7518 7.98511 9.38343 8.82031 7.99902C8.9253 7.82499 9.02741 7.65019 9.12695 7.47461C7.71659 6.40292 6.13821 5.4185 4.09473 4.30859ZM12.9912 3.83594C12.8064 3.92247 12.6038 3.97719 12.3906 3.99414C11.9563 5.1024 11.5219 6.11233 11.0371 7.0791C11.9433 7.8341 12.8097 8.64922 13.7129 9.58203C13.8802 9.52888 14.0583 9.50002 14.2432 9.5H14.25C14.2754 9.5 14.3011 9.50089 14.3262 9.50195C14.4402 9.01994 14.5 8.51684 14.5 8C14.5 6.41567 13.9331 4.96375 12.9912 3.83594ZM8 1.5C6.7056 1.5 5.49943 1.87813 4.48633 2.53027C4.49532 2.60215 4.5 2.67568 4.5 2.75C4.5 2.77421 4.49902 2.79829 4.49805 2.82227C6.65926 3.98352 8.33836 5.01266 9.83398 6.12891C10.236 5.30294 10.6072 4.43066 10.9854 3.4668C10.6807 3.15188 10.4932 2.72278 10.4932 2.25C10.4932 2.16613 10.4993 2.08365 10.5107 2.00293C9.73829 1.67917 8.89 1.5 8 1.5Z" fill="#000001"/>
</g>
</svg>
