<svg width="24" height="24" viewBox="0 0 24 24" fill="none" xmlns="http://www.w3.org/2000/svg">
<g id="size=24">
<path id="Path" d="M12 1C13.8376 1 15.5701 1.45035 17.0928 2.24707C17.3551 2.09011 17.6623 2 17.9902 2H18C18.9665 2 19.75 2.7835 19.75 3.75C19.75 3.88709 19.7339 4.02042 19.7041 4.14844C21.738 6.14455 23 8.92507 23 12C23 13.0727 22.8469 14.1097 22.5605 15.0898C22.8341 15.3986 23 15.805 23 16.25C23 17.2165 22.2165 18 21.25 18H21.2207C19.258 21.0101 15.8615 23 12 23C10.9273 23 9.89035 22.8469 8.91016 22.5605C8.60136 22.8341 8.19499 23 7.75 23H7.74023C6.77374 23 5.99023 22.2165 5.99023 21.25C5.99023 21.2383 5.99 21.2265 5.99023 21.2148C2.98545 19.2512 1 15.8574 1 12C1 9.55595 1.79712 7.29762 3.14551 5.47168C3.04575 5.25162 2.99023 5.00734 2.99023 4.75C2.99023 3.7835 3.77374 3 4.74023 3H4.75C5.00421 3 5.2459 3.05389 5.46387 3.15137C7.29124 1.79932 9.55231 1 12 1ZM15.4092 11.7754C13.8952 14.6324 12.0506 17.2721 9.34375 20.5254C9.43341 20.7223 9.48741 20.9391 9.49805 21.167C10.2952 21.384 11.1341 21.5 12 21.5C15.2706 21.5 18.1553 19.8469 19.8643 17.3311C19.63 17.0334 19.4902 16.6581 19.4902 16.25C19.4902 16.0331 19.5294 15.8255 19.6016 15.6338C18.1247 14.1438 16.7716 12.8868 15.4092 11.7754ZM4.29395 6.44238C3.16505 8.00499 2.5 9.92496 2.5 12C2.5 15.2712 4.15326 18.1564 6.66992 19.8652C6.77577 19.7833 6.8915 19.7134 7.01465 19.6572C7.00293 14.694 6.38973 11.402 4.60352 6.49512C4.49762 6.48692 4.39372 6.46859 4.29395 6.44238ZM6.07715 6.15918C7.81479 10.9719 8.46131 14.3459 8.51172 19.1787C11.0497 16.0954 12.7793 13.5793 14.209 10.8359C11.8579 9.07354 9.36656 7.65924 6.07715 6.15918ZM18.7607 5.32617C18.578 5.41453 18.3774 5.47226 18.166 5.49219C17.495 7.29608 16.8307 8.89685 16.1016 10.4062C17.5964 11.6057 19.07 12.9664 20.6807 14.5918C20.8344 14.54 20.9975 14.5089 21.167 14.502C21.384 13.7049 21.5 12.8658 21.5 12C21.5 9.39886 20.4543 7.04176 18.7607 5.32617ZM12 2.5C9.92398 2.5 8.00344 3.16602 6.44043 4.2959C6.47536 4.42627 6.49533 4.56263 6.49902 4.70312C9.8868 6.23722 12.4686 7.68584 14.8867 9.4707C15.5405 8.09132 16.1438 6.62757 16.7539 4.98828C16.4367 4.67152 16.2402 4.2337 16.2402 3.75C16.2402 3.66682 16.2456 3.58497 16.2568 3.50488C14.9763 2.86198 13.5305 2.5 12 2.5Z" fill="#000001"/>
</g>
</svg>
