<svg width="24" height="24" viewBox="0 0 24 24" fill="none" xmlns="http://www.w3.org/2000/svg">
<g id="size=24">
<path id="Path" fill-rule="evenodd" clip-rule="evenodd" d="M22.5601 15.0898C22.8464 14.1096 23 13.0727 23 12C23 8.92507 21.7383 6.14482 19.7044 4.14871C19.7342 4.02064 19.75 3.88716 19.75 3.75C19.75 2.7835 18.9665 2 18 2H17.99C17.662 2 17.355 2.09026 17.0926 2.24731C15.5699 1.45059 13.8376 1 12 1C9.5522 1 7.29114 1.79953 5.46373 3.15168C5.24576 3.0542 5.00421 3 4.75 3H4.74C3.7735 3 2.99 3.7835 2.99 4.75C2.99 5.00748 3.04561 5.25198 3.14547 5.47213C1.79708 7.29807 1 9.55595 1 12C1 15.8574 2.98554 19.2511 5.99035 21.2148C5.99012 21.2265 5.99 21.2382 5.99 21.25C5.99 22.2165 6.7735 23 7.74 23H7.75C8.19511 23 8.6014 22.8338 8.91023 22.5601C9.89043 22.8464 10.9273 23 12 23C15.8616 23 19.2584 21.0102 21.2211 17.9999C21.2274 18 21.2337 18 21.24 18H21.25C22.2165 18 23 17.2165 23 16.25C23 15.8049 22.8338 15.3986 22.5601 15.0898ZM4.60309 6.49472C4.4972 6.48653 4.39395 6.46891 4.29418 6.4427C3.16528 8.00531 2.5 9.92496 2.5 12C2.5 15.2712 4.15338 18.1563 6.67006 19.8651C6.77601 19.7831 6.89162 19.713 7.0149 19.6568C7.00318 14.6934 6.38944 11.4018 4.60309 6.49472ZM9.34354 20.5257C9.43321 20.7227 9.48744 20.9392 9.49807 21.1671C10.2952 21.3841 11.1341 21.5 12 21.5C15.2706 21.5 18.1551 19.8473 19.8641 17.3315C19.6298 17.0338 19.49 16.6582 19.49 16.25C19.49 16.033 19.5295 15.8253 19.6017 15.6335C18.1247 14.1435 16.7716 12.8867 15.4092 11.7753C13.8951 14.6324 12.0505 17.2722 9.34354 20.5257ZM21.1672 14.5015C20.9977 14.5084 20.8343 14.5395 20.6805 14.5913C19.0698 12.966 17.5966 11.6058 16.1018 10.4064C16.8309 8.89696 17.4953 7.29614 18.1663 5.4922C18.3778 5.47226 18.5783 5.4147 18.761 5.32629C20.4546 7.04188 21.5 9.39886 21.5 12C21.5 12.8658 21.3842 13.7045 21.1672 14.5015ZM12 2.5C13.5305 2.5 14.9765 2.86193 16.257 3.50488C16.2458 3.58498 16.24 3.66681 16.24 3.75C16.24 4.2337 16.4362 4.67155 16.7534 4.98831C16.1433 6.6276 15.5406 8.09133 14.8868 9.47071C12.4687 7.68582 9.8872 6.23744 6.49939 4.70333C6.49571 4.56272 6.47544 4.42625 6.44048 4.29579C8.00349 3.16591 9.92398 2.5 12 2.5ZM6.07672 6.15877C7.8145 10.9717 8.46132 14.3452 8.51173 19.1782C11.0497 16.0949 12.7788 13.579 14.2085 10.8356C11.8574 9.07311 9.36638 7.65892 6.07672 6.15877Z" fill="#000001"/>
</g>
</svg>
