<svg width="16" height="16" viewBox="0 0 16 16" fill="none" xmlns="http://www.w3.org/2000/svg">
<g id="size=16">
<path id="Path" fill-rule="evenodd" clip-rule="evenodd" d="M8.23137 2.5C11.1411 2.5 13.4999 4.8588 13.4999 7.76852C13.4999 10.6782 11.1411 13.037 8.23137 13.037C7.35293 13.037 6.52677 12.8226 5.80023 12.444C5.59913 12.3392 5.3934 12.3236 5.26575 12.3223C5.12292 12.3208 4.97701 12.3376 4.84225 12.3603C4.5718 12.4059 4.26467 12.4896 3.96314 12.5846C3.69104 12.6703 3.40558 12.7709 3.12925 12.8742C3.23202 12.6004 3.3321 12.3175 3.41736 12.0473C3.51287 11.7446 3.59699 11.4355 3.64232 11.1624C3.66493 11.0262 3.68138 10.8788 3.67922 10.7343C3.67726 10.6038 3.66002 10.3994 3.55591 10.1997C3.17724 9.47312 2.96285 8.64696 2.96285 7.76852C2.96285 4.8588 5.32165 2.5 8.23137 2.5ZM2.05786 14.9338L2.05999 14.9329L2.06924 14.9288L2.1069 14.912C2.14019 14.8973 2.1894 14.8756 2.25189 14.8484C2.37697 14.7941 2.55486 14.7178 2.76478 14.6308C3.2425 14.4329 3.86907 14.1869 4.41374 14.0153C4.68836 13.9288 4.92026 13.8683 5.09157 13.8395C5.1405 13.8312 5.17798 13.8267 5.20525 13.8244C6.11668 14.2806 7.1451 14.537 8.23137 14.537C11.9695 14.537 14.9999 11.5067 14.9999 7.76852C14.9999 4.03037 11.9695 1 8.23137 1C4.49322 1 1.46285 4.03037 1.46285 7.76852C1.46285 8.85649 1.7201 9.88643 2.17767 10.7989C2.17552 10.8267 2.17107 10.8656 2.16257 10.9168C2.13403 11.0887 2.07362 11.321 1.98688 11.5959C1.81484 12.1412 1.5674 12.7667 1.36881 13.2421C1.28217 13.4495 1.20623 13.625 1.1521 13.7484C1.12506 13.81 1.10351 13.8585 1.08885 13.8913L1.07222 13.9283L1.06812 13.9374L1.06718 13.9395C0.938177 14.2236 0.998352 14.5583 1.21857 14.7793C1.43879 15.0004 1.77329 15.0618 2.05786 14.9338Z" fill="#000001"/>
</g>
</svg>
