<svg width="24" height="24" viewBox="0 0 24 24" fill="none" xmlns="http://www.w3.org/2000/svg">
<g id="size=24">
<path id="Path" fill-rule="evenodd" clip-rule="evenodd" d="M12.3425 3.5C16.8477 3.5 20.4999 7.1522 20.4999 11.6574C20.4999 16.1626 16.8477 19.8148 12.3425 19.8148C10.9831 19.8148 9.70346 19.4829 8.57803 18.8963C8.33394 18.7691 8.06969 18.7541 7.88937 18.7572C7.68893 18.7605 7.47345 18.79 7.26153 18.8309C6.83607 18.9129 6.33961 19.0576 5.84463 19.2222C5.27935 19.4102 4.68794 19.6335 4.16079 19.8432C4.36517 19.3325 4.58221 18.7615 4.76674 18.2121C4.93588 17.7084 5.08517 17.2011 5.16967 16.765C5.21178 16.5478 5.24207 16.327 5.24531 16.1216C5.24825 15.9355 5.23198 15.6682 5.10358 15.4219C4.51701 14.2964 4.18509 13.0168 4.18509 11.6574C4.18509 7.1522 7.83729 3.5 12.3425 3.5ZM3.69974 21.6549C4.35246 21.3775 5.38252 20.9566 6.31791 20.6456C6.78864 20.4891 7.21394 20.3677 7.54546 20.3038C7.71203 20.2717 7.83384 20.2583 7.9144 20.2569C7.92604 20.2567 7.93581 20.2568 7.94384 20.257C9.26386 20.9335 10.7597 21.3148 12.3425 21.3148C17.6761 21.3148 21.9999 16.991 21.9999 11.6574C21.9999 6.32377 17.6761 2 12.3425 2C7.00886 2 2.68509 6.32377 2.68509 11.6574C2.68509 13.242 3.06729 14.7394 3.74515 16.0605C3.74554 16.0701 3.74574 16.0825 3.7455 16.0979C3.74417 16.1823 3.73023 16.3085 3.69707 16.4797C3.63104 16.8204 3.50563 17.2556 3.34478 17.7345C3.02471 18.6876 2.59378 19.7281 2.32063 20.3628C2.24369 20.5416 2.1799 20.6867 2.13552 20.7868C2.11333 20.8368 2.096 20.8755 2.08433 20.9015L2.07114 20.9308L2.06717 20.9396C1.93888 21.2221 1.99766 21.5548 2.21528 21.776C2.43291 21.9972 2.76428 22.0615 3.04887 21.9378L3.69702 21.6561L3.69974 21.6549ZM3.74298 16.0339L3.74331 16.036L3.74298 16.0339Z" fill="#000001"/>
</g>
</svg>
