<svg width="24" height="24" viewBox="0 0 24 24" fill="none" xmlns="http://www.w3.org/2000/svg">
<g id="size=24">
<g id="Path">
<path d="M8 8.75C8 8.33579 8.33579 8 8.75 8H15.75C16.1642 8 16.5 8.33579 16.5 8.75C16.5 9.16421 16.1642 9.5 15.75 9.5H8.75C8.33579 9.5 8 9.16421 8 8.75Z" fill="#000001"/>
<path d="M8 11.75C8 11.3358 8.33579 11 8.75 11H11.75C12.1642 11 12.5 11.3358 12.5 11.75C12.5 12.1642 12.1642 12.5 11.75 12.5H8.75C8.33579 12.5 8 12.1642 8 11.75Z" fill="#000001"/>
<path d="M8 14.75C8 14.3358 8.33579 14 8.75 14H13.75C14.1642 14 14.5 14.3358 14.5 14.75C14.5 15.1642 14.1642 15.5 13.75 15.5H8.75C8.33579 15.5 8 15.1642 8 14.75Z" fill="#000001"/>
<path fill-rule="evenodd" clip-rule="evenodd" d="M7.54552 20.3038C7.21401 20.3677 6.7887 20.4891 6.31797 20.6456C5.20481 21.0157 4.12397 21.4705 3.04893 21.9378C2.76434 22.0615 2.43297 21.9972 2.21534 21.776C1.99772 21.5548 1.93894 21.2221 2.06723 20.9396C2.15379 20.7482 2.23768 20.5557 2.32069 20.3628C2.59384 19.7281 3.02477 18.6876 3.34484 17.7345C3.50569 17.2556 3.6311 16.8204 3.69713 16.4797C3.7303 16.3085 3.74423 16.1823 3.74556 16.0979C3.74581 16.0825 3.7456 16.0701 3.74521 16.0605C3.06735 14.7394 2.68515 13.242 2.68515 11.6574C2.68515 6.32377 7.00892 2 12.3426 2C17.6762 2 22 6.32377 22 11.6574C22 16.991 17.6762 21.3148 12.3426 21.3148C10.7598 21.3148 9.26392 20.9335 7.9439 20.257C7.8803 20.2553 7.73616 20.267 7.54552 20.3038ZM20.5 11.6574C20.5 7.1522 16.8478 3.5 12.3426 3.5C7.83735 3.5 4.18515 7.1522 4.18515 11.6574C4.18515 13.0168 4.51707 14.2964 5.10364 15.4219C5.23204 15.6682 5.24831 15.9355 5.24537 16.1216C5.24213 16.327 5.21184 16.5478 5.16973 16.765C5.08523 17.2011 4.93595 17.7084 4.7668 18.2121C4.58227 18.7615 4.36523 19.3325 4.16085 19.8432C4.688 19.6335 5.27941 19.4102 5.84469 19.2222C6.33967 19.0576 6.83613 18.9129 7.26159 18.8309C7.47352 18.79 7.68899 18.7605 7.88943 18.7572C8.06975 18.7541 8.334 18.7691 8.57809 18.8963C9.70352 19.4829 10.9832 19.8148 12.3426 19.8148C16.8478 19.8148 20.5 16.1626 20.5 11.6574Z" fill="#000001"/>
</g>
</g>
</svg>
