<svg width="24" height="24" viewBox="0 0 24 24" fill="none" xmlns="http://www.w3.org/2000/svg">
<g id="size=24">
<path id="Path" fill-rule="evenodd" clip-rule="evenodd" d="M12.3427 2C17.6757 2.00069 21.9999 6.3241 22 11.6572C22 16.9904 17.6758 21.3138 12.3427 21.3145C10.7603 21.3145 9.26316 20.933 7.94333 20.2568C7.93561 20.2566 7.92507 20.2567 7.91403 20.2568C7.8337 20.2582 7.71151 20.2718 7.54587 20.3037C7.21467 20.3676 6.78853 20.4892 6.31833 20.6455C5.38334 20.9564 4.35196 21.3778 3.69919 21.6553L3.69724 21.6562L3.0488 21.9375C2.76442 22.0611 2.43245 21.9972 2.21481 21.7764C1.9972 21.5552 1.93906 21.222 2.06735 20.9395L2.07126 20.9307L2.08395 20.9014C2.09562 20.8754 2.11367 20.8368 2.13571 20.7871C2.18009 20.6871 2.24343 20.5409 2.32028 20.3623C2.59345 19.7275 3.02473 18.6871 3.3447 17.7344C3.50547 17.2556 3.63122 16.8201 3.69724 16.4795C3.73034 16.3086 3.74375 16.182 3.74509 16.0977C3.74532 16.0824 3.74547 16.0701 3.74509 16.0605C3.06723 14.7394 2.68454 13.2418 2.68454 11.6572C2.68464 6.32367 7.00916 2 12.3427 2ZM12.3427 3.5C7.83759 3.5 4.18464 7.1521 4.18454 11.6572C4.18454 13.0166 4.51692 14.2964 5.10349 15.4219C5.23169 15.6681 5.24802 15.936 5.24509 16.1221C5.24181 16.3272 5.2119 16.5478 5.16989 16.7646C5.08541 17.2006 4.93566 17.7084 4.76657 18.2119C4.58214 18.7611 4.36538 19.3324 4.1611 19.8428C4.68792 19.6333 5.27989 19.4105 5.8447 19.2227C6.33939 19.0582 6.83648 18.913 7.26169 18.8311C7.47325 18.7903 7.68953 18.7602 7.88962 18.7568C8.06991 18.7539 8.33459 18.7696 8.57809 18.8965C9.7033 19.4828 10.9837 19.8145 12.3427 19.8145C16.8474 19.8138 20.5 16.162 20.5 11.6572C20.4999 7.15253 16.8473 3.50069 12.3427 3.5Z" fill="#000001"/>
</g>
</svg>
