<svg width="24" height="24" viewBox="0 0 24 24" fill="none" xmlns="http://www.w3.org/2000/svg">
<g id="size=24">
<path id="Path" fill-rule="evenodd" clip-rule="evenodd" d="M22 4.75C22 3.23122 20.7688 2 19.25 2H4.75C3.23122 2 2 3.23122 2 4.75V21.25C2 21.5412 2.16859 21.8061 2.43242 21.9294C2.69626 22.0528 3.00762 22.0122 3.23106 21.8254L7.45862 18.291C7.68349 18.103 7.96728 18 8.26038 18H19.25C20.7688 18 22 16.7688 22 15.25V4.75ZM19.25 3.5C19.9404 3.5 20.5 4.05964 20.5 4.75V15.25C20.5 15.9404 19.9404 16.5 19.25 16.5H8.26038C7.61555 16.5 6.99123 16.7266 6.49651 17.1402L3.5 19.6454V4.75C3.5 4.05964 4.05964 3.5 4.75 3.5H19.25Z" fill="#000001"/>
</g>
</svg>
