<svg width="16" height="16" viewBox="0 0 16 16" fill="none" xmlns="http://www.w3.org/2000/svg">
<g id="size=16">
<g id="Path">
<path d="M4.99999 8.75C4.99999 8.33579 5.33578 8 5.74999 8H8.24999C8.66421 8 8.99999 8.33579 8.99999 8.75C8.99999 9.16421 8.66421 9.5 8.24999 9.5H5.74999C5.33578 9.5 4.99999 9.16421 4.99999 8.75Z" fill="#000001"/>
<path d="M5.74999 5.5C5.33578 5.5 4.99999 5.83579 4.99999 6.25C4.99999 6.66421 5.33578 7 5.74999 7H10.25C10.6642 7 11 6.66421 11 6.25C11 5.83579 10.6642 5.5 10.25 5.5H5.74999Z" fill="#000001"/>
<path fill-rule="evenodd" clip-rule="evenodd" d="M2.05797 14.9338L2.06009 14.9329L2.06934 14.9288L2.107 14.912C2.1403 14.8973 2.1895 14.8756 2.252 14.8484C2.37708 14.7941 2.55497 14.7178 2.76489 14.6308C3.24261 14.4329 3.86917 14.1869 4.41385 14.0153C4.68847 13.9288 4.92036 13.8683 5.09167 13.8395C5.14061 13.8312 5.17809 13.8267 5.20535 13.8244C6.11678 14.2806 7.14521 14.537 8.23147 14.537C11.9696 14.537 15 11.5067 15 7.76852C15 4.03037 11.9696 1 8.23147 1C4.49333 1 1.46296 4.03037 1.46296 7.76852C1.46296 8.85649 1.7202 9.88643 2.17777 10.7989C2.17563 10.8267 2.17118 10.8656 2.16267 10.9168C2.13413 11.0887 2.07372 11.321 1.98699 11.5959C1.81495 12.1412 1.5675 12.7667 1.36891 13.2421C1.28228 13.4495 1.20634 13.625 1.15221 13.7484C1.12516 13.81 1.10361 13.8585 1.08895 13.8913L1.07232 13.9283L1.06822 13.9374L1.06728 13.9395C0.938284 14.2236 0.998459 14.5583 1.21868 14.7793C1.43889 15.0004 1.77339 15.0618 2.05797 14.9338ZM8.23147 2.5C11.1412 2.5 13.5 4.8588 13.5 7.76852C13.5 10.6782 11.1412 13.037 8.23147 13.037C7.35304 13.037 6.52688 12.8226 5.80034 12.444C5.59924 12.3392 5.3935 12.3236 5.26586 12.3223C5.12303 12.3208 4.97711 12.3376 4.84236 12.3603C4.57191 12.4059 4.26477 12.4896 3.96324 12.5846C3.69114 12.6703 3.40569 12.7709 3.12935 12.8742C3.23213 12.6004 3.33221 12.3175 3.41747 12.0473C3.51298 11.7446 3.5971 11.4355 3.64243 11.1624C3.66504 11.0262 3.68149 10.8788 3.67933 10.7343C3.67737 10.6038 3.66012 10.3994 3.55602 10.1997C3.17735 9.47312 2.96296 8.64696 2.96296 7.76852C2.96296 4.8588 5.32175 2.5 8.23147 2.5Z" fill="#000001"/>
</g>
</g>
</svg>
