<svg width="16" height="16" viewBox="0 0 16 16" fill="none" xmlns="http://www.w3.org/2000/svg">
<g id="size=16">
<g id="Path">
<path d="M8.25 7C8.66421 7 9 7.33579 9 7.75C9 8.16421 8.66421 8.5 8.25 8.5H4.75C4.33579 8.5 4 8.16421 4 7.75C4 7.33579 4.33579 7 4.75 7H8.25Z" fill="#000001"/>
<path d="M11.25 4.5C11.6642 4.5 12 4.83579 12 5.25C12 5.66421 11.6642 6 11.25 6H4.75C4.33579 6 4 5.66421 4 5.25C4 4.83579 4.33579 4.5 4.75 4.5H11.25Z" fill="#000001"/>
<path fill-rule="evenodd" clip-rule="evenodd" d="M12.75 1C13.9926 1 15 2.00736 15 3.25V9.75C15 10.9926 13.9926 12 12.75 12H5.57129C5.3822 12.0001 5.20016 12.0716 5.06152 12.2002L2.25977 14.7998C2.04118 15.0025 1.72345 15.0567 1.4502 14.9375C1.17682 14.8182 1 14.5483 1 14.25V3.25C1 2.00736 2.00736 1 3.25 1H12.75ZM3.25 2.5C2.83579 2.5 2.5 2.83579 2.5 3.25V12.5312L4.04102 11.1006C4.45706 10.7145 5.00372 10.5001 5.57129 10.5H12.75C13.1642 10.5 13.5 10.1642 13.5 9.75V3.25C13.5 2.83579 13.1642 2.5 12.75 2.5H3.25Z" fill="#000001"/>
</g>
</g>
</svg>
