<svg width="16" height="16" viewBox="0 0 16 16" fill="none" xmlns="http://www.w3.org/2000/svg">
<g id="size=16">
<path id="Path" fill-rule="evenodd" clip-rule="evenodd" d="M1.21962 1.2199C1.51255 0.927431 1.98741 0.927148 2.28016 1.2199L14.78 13.7198C15.0722 14.0125 15.0723 14.4875 14.78 14.7803C14.4873 15.0729 14.0124 15.0726 13.7195 14.7803L11.3377 12.3985C10.5818 12.9616 9.6892 13.3239 8.74981 13.4502V14.5H10.4998C10.9136 14.5005 11.2498 14.8361 11.2498 15.25C11.2497 15.6638 10.9135 15.9995 10.4998 16H5.49985C5.0857 16 4.74996 15.6641 4.74985 15.25C4.74985 14.8358 5.08564 14.5 5.49985 14.5H7.24983V13.4502C6.07402 13.2924 4.97149 12.7656 4.11803 11.9366C3.08439 10.9322 2.49997 9.56477 2.49988 8.13486V6.75011C2.49988 6.3359 2.83566 6.00011 3.24987 6.00011C3.66366 6.0006 3.99986 6.3362 3.99986 6.75011V8.13486C3.99996 9.15281 4.41614 10.1338 5.16391 10.8604C5.91244 11.5874 6.93244 12 7.99982 12C8.81445 11.9999 9.60192 11.7593 10.2615 11.3223L9.53593 10.5967C9.07296 10.8598 8.54148 10.9999 7.99982 11.0001C7.21932 11.0001 6.46102 10.7092 5.89535 10.1788C5.32812 9.6465 4.99991 8.91342 4.99985 8.13876V6.06066L1.21962 2.28043C0.926755 1.98756 0.926801 1.51279 1.21962 1.2199ZM12.78 6.00011C13.1937 6.00075 13.53 6.33629 13.53 6.75011V8.13486C13.53 8.40062 13.5091 8.66512 13.4695 8.92489C13.4068 9.3337 13.0239 9.61468 12.615 9.55281C12.2058 9.49019 11.9248 9.1076 11.9871 8.69833C12.0153 8.51298 12.03 8.32447 12.03 8.13486V6.75011C12.03 6.3359 12.3658 6.00011 12.78 6.00011ZM6.49983 8.13876C6.49989 8.48368 6.64524 8.82561 6.9217 9.08504C7.19983 9.34571 7.58741 9.50007 7.99982 9.50007C8.13376 9.5 8.26575 9.48317 8.39141 9.45222L6.49983 7.56064V8.13876ZM7.99982 0.000183103C8.78026 0.0004082 9.53877 0.290858 10.1043 0.821463C10.6712 1.35374 10.9998 2.08701 10.9998 2.86148V6.3048C10.9995 6.71845 10.6634 7.0543 10.2498 7.05479C9.83577 7.05479 9.50011 6.71875 9.4998 6.3048V2.86148C9.4998 2.51673 9.35408 2.17461 9.07793 1.9152C8.79996 1.65439 8.41217 1.50039 7.99982 1.50017C7.58735 1.50017 7.19984 1.65446 6.9217 1.9152C6.79309 2.03591 6.69315 2.17501 6.62288 2.32242C6.4449 2.69603 5.99666 2.85433 5.62289 2.67691C5.24923 2.49878 5.09058 2.05172 5.2684 1.6779C5.42005 1.35951 5.63208 1.06852 5.89535 0.821463C6.46103 0.290922 7.21926 0.000183103 7.99982 0.000183103Z" fill="#000001"/>
</g>
</svg>
