<svg width="16" height="16" viewBox="0 0 16 16" fill="none" xmlns="http://www.w3.org/2000/svg">
<g id="size=16">
<path id="Path" fill-rule="evenodd" clip-rule="evenodd" d="M1.21967 1.21973C1.5126 0.927287 1.98747 0.926984 2.28022 1.21973L14.7802 13.7197C15.0725 14.0125 15.0725 14.4875 14.7802 14.7803C14.4875 15.073 14.0126 15.0727 13.7197 14.7803L11.3378 12.3984C10.5819 12.9616 9.68937 13.3239 8.74994 13.4502V14.5H10.4999C10.9137 14.5005 11.2499 14.8361 11.2499 15.25C11.2499 15.6639 10.9137 15.9995 10.4999 16H5.49994C5.08573 16 4.74994 15.6642 4.74994 15.25C4.74994 14.8358 5.08573 14.5 5.49994 14.5H7.24994V13.4502C6.07408 13.2923 4.97159 12.7656 4.11811 11.9365C3.08441 10.9321 2.49998 9.56477 2.49994 8.13477V6.75C2.49994 6.33579 2.83573 6 3.24994 6C3.66374 6.00049 3.99994 6.33609 3.99994 6.75V8.13477C3.99998 9.15281 4.41618 10.1337 5.16401 10.8604C5.91255 11.5874 6.93251 12 7.99994 12C8.8146 11.9998 9.60206 11.7593 10.2617 11.3223L9.53608 10.5967C9.07308 10.8597 8.54163 10.9998 7.99994 11C7.21939 11 6.46114 10.7092 5.89545 10.1787C5.32817 9.64639 4.99994 8.91341 4.99994 8.13867V6.06055L1.21967 2.28027C0.926777 1.98738 0.926777 1.51262 1.21967 1.21973ZM12.7802 6C13.1939 6.00063 13.5302 6.33618 13.5302 6.75V8.13477C13.5302 8.4006 13.5093 8.66497 13.4697 8.9248C13.407 9.33374 13.0242 9.61463 12.6152 9.55273C12.2059 9.49011 11.9248 9.10759 11.9872 8.69824C12.0155 8.51284 12.0302 8.32445 12.0302 8.13477V6.75C12.0302 6.33579 12.366 6 12.7802 6ZM6.49994 8.13867C6.49994 8.48366 6.6453 8.82548 6.92182 9.08496C7.19996 9.34569 7.58748 9.5 7.99994 9.5C8.13388 9.49992 8.26588 9.48309 8.39154 9.45215L6.49994 7.56055V8.13867ZM7.99994 0C8.7804 0.000225085 9.53892 0.290678 10.1044 0.821289C10.6714 1.35358 10.9999 2.08681 10.9999 2.86133V6.30469C10.9997 6.71843 10.6636 7.0542 10.2499 7.05469C9.83585 7.05469 9.50014 6.71873 9.49994 6.30469V2.86133C9.49994 2.51654 9.35428 2.17446 9.07807 1.91504C8.8001 1.65423 8.4123 1.50023 7.99994 1.5C7.58748 1.5 7.19996 1.65431 6.92182 1.91504C6.79317 2.03575 6.69327 2.17484 6.62299 2.32227C6.44504 2.69601 5.99683 2.85426 5.62299 2.67676C5.24928 2.4986 5.09057 2.05159 5.2685 1.67773C5.42016 1.35932 5.63215 1.06836 5.89545 0.821289C6.46114 0.29076 7.21939 0 7.99994 0Z" fill="#000001"/>
</g>
</svg>
