<svg width="16" height="16" viewBox="0 0 16 16" fill="none" xmlns="http://www.w3.org/2000/svg">
<g id="size=16">
<path id="Path" d="M12.75 6C13.1642 6 13.5 6.33579 13.5 6.75V8.13477C13.5 9.56477 12.9155 10.9321 11.8818 11.9365C11.0283 12.7659 9.92608 13.2923 8.75 13.4502V14.5H10.5C10.9142 14.5 11.25 14.8358 11.25 15.25C11.25 15.6642 10.9142 16 10.5 16H5.5C5.08579 16 4.75 15.6642 4.75 15.25C4.75 14.8358 5.08579 14.5 5.5 14.5H7.25V13.4502C6.07392 13.2923 4.97171 12.7659 4.11816 11.9365C3.08447 10.9321 2.50004 9.56477 2.5 8.13477V6.75C2.5 6.33579 2.83579 6 3.25 6C3.66421 6 4 6.33579 4 6.75V8.13477C4.00004 9.15281 4.41623 10.1337 5.16406 10.8604C5.91265 11.5877 6.93234 12 8 12C9.06766 12 10.0873 11.5877 10.8359 10.8604C11.5838 10.1337 12 9.15281 12 8.13477V6.75C12 6.33579 12.3358 6 12.75 6ZM8 0C8.78078 0 9.53875 0.290472 10.1045 0.821289C10.6718 1.35362 11 2.08659 11 2.86133V8.13867C11 8.91341 10.6718 9.64639 10.1045 10.1787C9.53875 10.7095 8.78078 11 8 11C7.21922 11 6.46125 10.7095 5.89551 10.1787C5.32822 9.64639 5 8.91341 5 8.13867V2.86133C5 2.08659 5.32822 1.35362 5.89551 0.821289C6.46125 0.290472 7.21922 0 8 0ZM8 1.5C7.5873 1.5 7.20005 1.65404 6.92188 1.91504C6.64535 2.17452 6.5 2.51634 6.5 2.86133V8.13867C6.5 8.48366 6.64535 8.82548 6.92188 9.08496C7.20005 9.34596 7.5873 9.5 8 9.5C8.4127 9.5 8.79995 9.34596 9.07812 9.08496C9.35465 8.82548 9.5 8.48366 9.5 8.13867V2.86133C9.5 2.51634 9.35465 2.17452 9.07812 1.91504C8.79995 1.65404 8.4127 1.5 8 1.5Z" fill="#000001"/>
</g>
</svg>
