<svg width="24" height="24" viewBox="0 0 24 24" fill="none" xmlns="http://www.w3.org/2000/svg">
<g id="size=24">
<g id="Path">
<path d="M8.20748 5.98214C8.49349 5.68252 8.96823 5.67148 9.26786 5.95748L14.7679 11.2075C14.9161 11.349 15 11.545 15 11.75C15 11.955 14.9161 12.151 14.7679 12.2925L9.26786 17.5425C8.96823 17.8285 8.49349 17.8175 8.20748 17.5179C7.92148 17.2182 7.93252 16.7435 8.23214 16.4575L12.3781 12.5H4C3.58579 12.5 3.25 12.1642 3.25 11.75C3.25 11.3358 3.58579 11 4 11H12.3781L8.23214 7.04252C7.93252 6.75651 7.92148 6.28177 8.20748 5.98214Z" fill="#000001"/>
<path d="M14.2075 5.98214C14.4935 5.68252 14.9682 5.67148 15.2679 5.95748L20.7679 11.2075C20.9161 11.349 21 11.545 21 11.75C21 11.955 20.9161 12.151 20.7679 12.2925L15.2679 17.5425C14.9682 17.8285 14.4935 17.8175 14.2075 17.5179C13.9215 17.2182 13.9325 16.7435 14.2321 16.4575L19.1638 11.75L14.2321 7.04252C13.9325 6.75651 13.9215 6.28177 14.2075 5.98214Z" fill="#000001"/>
</g>
</g>
</svg>
