<svg width="16" height="16" viewBox="0 0 16 16" fill="none" xmlns="http://www.w3.org/2000/svg">
<g id="size=16">
<path id="Path" fill-rule="evenodd" clip-rule="evenodd" d="M5.21973 3.71973C5.51262 3.42684 5.98738 3.42684 6.28027 3.71973L9.78027 7.21973C9.92072 7.36035 10 7.55125 10 7.75C9.99983 7.94868 9.92077 8.13978 9.78027 8.28028L6.28027 11.7803C5.98746 12.0727 5.51254 12.0727 5.21973 11.7803C4.92694 11.4875 4.92716 11.0127 5.21973 10.7197L7.43945 8.5H2C1.586 8.5 1.25035 8.16392 1.25 7.75C1.25 7.33579 1.58579 7 2 7H7.43945L5.21973 4.78028C4.92694 4.48749 4.92716 4.01265 5.21973 3.71973ZM9.21973 3.71973C9.51262 3.42684 9.98738 3.42684 10.2803 3.71973L13.7803 7.21973C14.0728 7.51265 14.0731 7.98749 13.7803 8.28028L10.2803 11.7803C9.98746 12.0727 9.51254 12.0727 9.21973 11.7803C8.92694 11.4875 8.92716 11.0127 9.21973 10.7197L12.1895 7.75L9.21973 4.78028C8.92694 4.48749 8.92716 4.01265 9.21973 3.71973Z" fill="#000001"/>
</g>
</svg>
