<svg width="24" height="24" viewBox="0 0 24 24" fill="none" xmlns="http://www.w3.org/2000/svg">
<g id="size=24">
<path id="Path" fill-rule="evenodd" clip-rule="evenodd" d="M8.20703 5.98254C8.49293 5.68303 8.96794 5.67147 9.26758 5.95715L14.7676 11.2072C14.9158 11.3487 15 11.5452 15 11.7501C14.9999 11.9549 14.9157 12.1507 14.7676 12.2921L9.26758 17.5421C8.96799 17.828 8.49301 17.8172 8.20703 17.5177C7.92138 17.2181 7.93301 16.7431 8.23242 16.4572L12.3779 12.5001H4C3.58588 12.5001 3.25016 12.1642 3.25 11.7501C3.25 11.3359 3.58579 11.0001 4 11.0001H12.3779L8.23242 7.04211C7.93305 6.75627 7.92157 6.28217 8.20703 5.98254ZM14.207 5.98254C14.4929 5.68303 14.9679 5.67147 15.2676 5.95715L20.7676 11.2072C20.9158 11.3487 21 11.5452 21 11.7501C20.9999 11.9549 20.9157 12.1507 20.7676 12.2921L15.2676 17.5421C14.968 17.828 14.493 17.8172 14.207 17.5177C13.9214 17.2181 13.933 16.7431 14.2324 16.4572L19.1641 11.7501L14.2324 7.04211C13.933 6.75627 13.9216 6.28217 14.207 5.98254Z" fill="#000001"/>
</g>
</svg>
