<svg width="16" height="16" viewBox="0 0 16 16" fill="none" xmlns="http://www.w3.org/2000/svg">
<g id="size=16">
<path id="Path" d="M6.75 8.5C7.16421 8.5 7.5 8.83579 7.5 9.25V13.25C7.5 13.6642 7.16421 14 6.75 14C6.33579 14 6 13.6642 6 13.25V11.0605L3.28027 13.7803C2.98738 14.0732 2.51262 14.0732 2.21973 13.7803C1.92683 13.4874 1.92683 13.0126 2.21973 12.7197L4.93945 10H2.75C2.33579 10 2 9.66421 2 9.25C2 8.83579 2.33579 8.5 2.75 8.5H6.75ZM12.7197 2.21973C13.0126 1.92683 13.4874 1.92683 13.7803 2.21973C14.0732 2.51262 14.0732 2.98738 13.7803 3.28027L11.0605 6H13.25C13.6642 6 14 6.33579 14 6.75C14 7.16421 13.6642 7.5 13.25 7.5H9.25C8.83579 7.5 8.5 7.16421 8.5 6.75V2.75C8.5 2.33579 8.83579 2 9.25 2C9.66421 2 10 2.33579 10 2.75V4.93945L12.7197 2.21973Z" fill="#000001"/>
</g>
</svg>
