<svg width="16" height="16" viewBox="0 0 16 16" fill="none" xmlns="http://www.w3.org/2000/svg">
<g id="size=16">
<path id="Path" fill-rule="evenodd" clip-rule="evenodd" d="M5.25 0.952637C5.66421 0.952637 6 1.28842 6 1.70264V3.74993C6 4.99257 4.99264 5.99993 3.75 5.99993H1.7027C1.28848 5.99993 0.952698 5.66415 0.952698 5.24993C0.952698 4.83572 1.28848 4.49993 1.7027 4.49993H3.75C4.16421 4.49993 4.5 4.16415 4.5 3.74993V1.70264C4.5 1.28842 4.83578 0.952637 5.25 0.952637ZM10.75 0.952637C11.1642 0.952637 11.5 1.28842 11.5 1.70264V3.74993C11.5 4.16415 11.8358 4.49993 12.25 4.49993H14.2973C14.7115 4.49993 15.0473 4.83572 15.0473 5.24993C15.0473 5.66415 14.7115 5.99993 14.2973 5.99993H12.25C11.0074 5.99993 10 4.99258 10 3.74993V1.70264C10 1.28842 10.3358 0.952637 10.75 0.952637ZM0.952698 10.7499C0.952698 10.3357 1.28848 9.99993 1.7027 9.99993H3.74999C4.99263 9.99993 6 11.0073 6 12.2499V14.2972C6 14.7114 5.66421 15.0472 5.25 15.0472C4.83578 15.0472 4.5 14.7114 4.5 14.2972V12.2499C4.5 11.8357 4.16421 11.4999 3.74999 11.4999H1.7027C1.28848 11.4999 0.952698 11.1641 0.952698 10.7499ZM10 12.2499C10 11.0073 11.0074 9.99993 12.25 9.99993H14.2973C14.7115 9.99993 15.0473 10.3357 15.0473 10.7499C15.0473 11.1641 14.7115 11.4999 14.2973 11.4999H12.25C11.8358 11.4999 11.5 11.8357 11.5 12.2499V14.2972C11.5 14.7114 11.1642 15.0472 10.75 15.0472C10.3358 15.0472 10 14.7114 10 14.2972V12.2499Z" fill="#000001"/>
</g>
</svg>
