<svg width="24" height="24" viewBox="0 0 24 24" fill="none" xmlns="http://www.w3.org/2000/svg">
<g id="size=24">
<path id="Path" fill-rule="evenodd" clip-rule="evenodd" d="M8.25 2.25C8.66421 2.25 9 2.58579 9 3V6.25C9 7.76878 7.76878 9 6.25 9H3C2.58579 9 2.25 8.66421 2.25 8.25C2.25 7.83579 2.58579 7.5 3 7.5H6.25C6.94036 7.5 7.5 6.94036 7.5 6.25V3C7.5 2.58579 7.83579 2.25 8.25 2.25ZM15.75 2.25C16.1642 2.25 16.5 2.58579 16.5 3V6.25C16.5 6.94036 17.0596 7.5 17.75 7.5H21C21.4142 7.5 21.75 7.83579 21.75 8.25C21.75 8.66421 21.4142 9 21 9H17.75C16.2312 9 15 7.76878 15 6.25V3C15 2.58579 15.3358 2.25 15.75 2.25ZM2.25 15.75C2.25 15.3358 2.58579 15 3 15H6.25C7.76878 15 9 16.2312 9 17.75V21C9 21.4142 8.66421 21.75 8.25 21.75C7.83579 21.75 7.5 21.4142 7.5 21V17.75C7.5 17.0596 6.94036 16.5 6.25 16.5H3C2.58579 16.5 2.25 16.1642 2.25 15.75ZM15 17.75C15 16.2312 16.2312 15 17.75 15H21C21.4142 15 21.75 15.3358 21.75 15.75C21.75 16.1642 21.4142 16.5 21 16.5H17.75C17.0596 16.5 16.5 17.0596 16.5 17.75V21C16.5 21.4142 16.1642 21.75 15.75 21.75C15.3358 21.75 15 21.4142 15 21V17.75Z" fill="#000001"/>
</g>
</svg>
