<svg width="24" height="24" viewBox="0 0 24 24" fill="none" xmlns="http://www.w3.org/2000/svg">
<g id="size=24">
<path id="Path" fill-rule="evenodd" clip-rule="evenodd" d="M10.2498 13.0004C10.4532 13.0012 10.6405 13.083 10.7752 13.2152L10.7849 13.225C10.8534 13.2952 10.9077 13.3778 10.9432 13.4633C10.9791 13.5509 10.9997 13.6498 10.9998 13.7504V19.2504C10.9988 19.6628 10.662 19.9988 10.2498 20.0004C9.83623 20.0003 9.50076 19.6637 9.49979 19.2504V15.5609L4.28007 20.7807C3.98786 21.0725 3.51249 21.0713 3.21952 20.7807C2.92673 20.4879 2.92693 20.013 3.21952 19.7201L8.43925 14.5004H4.74979C4.33623 14.5003 4.00076 14.1637 3.99979 13.7504C4.00002 13.3364 4.33577 13.0004 4.74979 13.0004H10.2498ZM19.7195 3.22011C20.0125 2.92829 20.4875 2.92758 20.7801 3.22011C21.0705 3.51283 21.0712 3.98839 20.7801 4.28066L15.5603 9.50039H19.2498C19.6625 9.50201 19.9996 9.83737 19.9998 10.2504C19.9988 10.6628 19.662 10.9988 19.2498 11.0004H13.7498C13.6493 11.0004 13.5503 10.9796 13.4627 10.9437C13.3771 10.9083 13.2947 10.854 13.2244 10.7855C13.2218 10.783 13.2175 10.7787 13.2146 10.7758C13.1458 10.7057 13.0922 10.6231 13.0564 10.5375C13.02 10.4496 13 10.3514 12.9998 10.2504V4.75039C13 4.3364 13.3358 4.00045 13.7498 4.00039C14.1625 4.00201 14.4996 4.33737 14.4998 4.75039V8.43984L19.7195 3.22011Z" fill="#000001"/>
</g>
</svg>
