<svg width="24" height="24" viewBox="0 0 24 24" fill="none" xmlns="http://www.w3.org/2000/svg">
<g id="size=24">
<path id="Path" fill-rule="evenodd" clip-rule="evenodd" d="M10.2496 13.0004C10.453 13.0011 10.6403 13.0832 10.775 13.2153L10.7847 13.225C10.8531 13.2952 10.9075 13.3779 10.9429 13.4633C10.9789 13.551 10.9995 13.6498 10.9996 13.7504V19.2504C10.9986 19.663 10.662 19.999 10.2496 20.0004C9.83621 20.0001 9.50055 19.6636 9.49959 19.2504V15.561L4.27986 20.7807C3.98764 21.0726 3.51228 21.0714 3.21931 20.7807C2.92693 20.4879 2.92686 20.0129 3.21931 19.7201L8.43904 14.5004H4.74959C4.33621 14.5001 4.00055 14.1636 3.99959 13.7504C3.9998 13.3366 4.33575 13.0007 4.74959 13.0004H10.2496ZM19.7193 3.22013C20.0121 2.92799 20.4871 2.92785 20.7799 3.22013C21.0704 3.51299 21.0714 3.98844 20.7799 4.28068L15.5601 9.50041H19.2496C19.6625 9.50177 19.9994 9.83722 19.9996 10.2504C19.9986 10.663 19.6621 10.999 19.2496 11.0004H13.7496C13.6491 11.0003 13.55 10.9797 13.4625 10.9438C13.3771 10.9084 13.2943 10.8539 13.2242 10.7856C13.2216 10.783 13.2172 10.7786 13.2144 10.7758C13.1458 10.7058 13.0919 10.623 13.0562 10.5375C13.0199 10.4497 12.9998 10.3513 12.9996 10.2504V4.75041C12.9998 4.33655 13.3357 4.00069 13.7496 4.00041C14.1625 4.00178 14.4994 4.33722 14.4996 4.75041V8.43986L19.7193 3.22013Z" fill="#000001"/>
</g>
</svg>
