<svg width="16" height="16" viewBox="0 0 16 16" fill="none" xmlns="http://www.w3.org/2000/svg">
<g id="size=16">
<path id="Path" d="M3.75 10C4.99264 10 6 11.0074 6 12.25V14.2969C6 14.7111 5.66421 15.0469 5.25 15.0469C4.83598 15.0466 4.5 14.7109 4.5 14.2969V12.25C4.5 11.8358 4.16421 11.5 3.75 11.5H1.70312C1.28891 11.5 0.953128 11.1642 0.953125 10.75C0.953125 10.3358 1.28891 10 1.70312 10H3.75ZM14.2979 10C14.712 10.0001 15.0479 10.3358 15.0479 10.75C15.0478 11.1642 14.712 11.4999 14.2979 11.5H12.25C11.836 11.5002 11.5 11.8359 11.5 12.25V14.2969C11.5 14.7111 11.1642 15.0469 10.75 15.0469C10.336 15.0466 10 14.7109 10 14.2969V12.25C10 11.0075 11.0076 10.0002 12.25 10H14.2979ZM5.25 0.953125C5.66421 0.953125 6 1.28891 6 1.70312V3.75C6 4.99264 4.99264 6 3.75 6H1.70312C1.28891 6 0.953128 5.66421 0.953125 5.25C0.953125 4.83579 1.28891 4.5 1.70312 4.5H3.75C4.16421 4.5 4.5 4.16421 4.5 3.75V1.70312C4.5 1.28905 4.83598 0.953353 5.25 0.953125ZM10.75 0.953125C11.1642 0.953125 11.5 1.28891 11.5 1.70312V3.75C11.5 4.16407 11.836 4.49977 12.25 4.5H14.2979C14.712 4.50007 15.0479 4.83583 15.0479 5.25C15.0478 5.66417 14.712 5.99993 14.2979 6H12.25C11.0076 5.99977 10 4.9925 10 3.75V1.70312C10 1.28905 10.336 0.953353 10.75 0.953125Z" fill="#000001"/>
</g>
</svg>
