<svg width="16" height="16" viewBox="0 0 16 16" fill="none" xmlns="http://www.w3.org/2000/svg">
<g id="size=16">
<path id="Path" fill-rule="evenodd" clip-rule="evenodd" d="M5.25006 0.952637C5.66427 0.952637 6.00006 1.28842 6.00006 1.70264V3.74993C6.00006 4.99257 4.9927 5.99993 3.75006 5.99993H1.70276C1.28855 5.99993 0.952759 5.66415 0.952759 5.24993C0.952759 4.83572 1.28855 4.49993 1.70276 4.49993H3.75006C4.16427 4.49993 4.50006 4.16415 4.50006 3.74993V1.70264C4.50006 1.28842 4.83584 0.952637 5.25006 0.952637ZM10.7501 0.952637C11.1643 0.952637 11.5001 1.28842 11.5001 1.70264V3.74993C11.5001 4.16415 11.8358 4.49993 12.2501 4.49993H14.2974C14.7116 4.49993 15.0474 4.83572 15.0474 5.24993C15.0474 5.66415 14.7116 5.99993 14.2974 5.99993H12.2501C11.0074 5.99993 10.0001 4.99258 10.0001 3.74993V1.70264C10.0001 1.28842 10.3358 0.952637 10.7501 0.952637ZM0.952759 10.7499C0.952759 10.3357 1.28855 9.99993 1.70276 9.99993H3.75006C4.99269 9.99993 6.00006 11.0073 6.00006 12.2499V14.2972C6.00006 14.7114 5.66427 15.0472 5.25006 15.0472C4.83584 15.0472 4.50006 14.7114 4.50006 14.2972V12.2499C4.50006 11.8357 4.16427 11.4999 3.75006 11.4999H1.70276C1.28855 11.4999 0.952759 11.1641 0.952759 10.7499ZM10.0001 12.2499C10.0001 11.0073 11.0074 9.99993 12.2501 9.99993H14.2974C14.7116 9.99993 15.0474 10.3357 15.0474 10.7499C15.0474 11.1641 14.7116 11.4999 14.2974 11.4999H12.2501C11.8358 11.4999 11.5001 11.8357 11.5001 12.2499V14.2972C11.5001 14.7114 11.1643 15.0472 10.7501 15.0472C10.3358 15.0472 10.0001 14.7114 10.0001 14.2972V12.2499Z" fill="#000001"/>
</g>
</svg>
