<svg width="16" height="16" viewBox="0 0 16 16" fill="none" xmlns="http://www.w3.org/2000/svg">
<g id="size=16">
<g id="Path">
<path d="M9.5478 2.58566L11.1188 5.15676C11.1224 5.16185 11.1244 5.16796 11.1244 5.17423C11.1244 5.1805 11.1224 5.18661 11.1188 5.19171C11.1161 5.19458 11.1129 5.19687 11.1093 5.19844C11.1057 5.20001 11.1019 5.20082 11.098 5.20082C11.094 5.20082 11.0902 5.20001 11.0866 5.19844C11.083 5.19687 11.0798 5.19458 11.0771 5.19171L9.0419 3.06992L9.5478 2.58566Z" fill="#000001"/>
<path d="M8.89212 8.83952V9.61834L8.1549 9.99277V9.21894L8.89212 8.83952Z" fill="#000001"/>
<path d="M6.07806 9.50682C6.42277 8.77724 6.89122 8.11286 7.46263 7.54313C7.67998 7.32587 7.91123 7.12297 8.15491 6.93572V8.43345L6.07806 9.50682ZM4.87988 10.8947L8.15491 9.23057V13.0415L8.89213 14V8.84116L9.33978 8.60984C9.64941 8.45386 9.91823 8.22759 10.1247 7.94911C10.3313 7.67063 10.4697 7.34769 10.5291 7.00611C10.5884 6.66454 10.567 6.31381 10.4666 5.98199C10.3661 5.65017 10.1894 5.34647 9.95052 5.09518L8.26475 3.33285C8.19751 3.26033 8.1617 3.16415 8.16513 3.06531C8.16856 2.96647 8.21095 2.87301 8.28305 2.80532C8.35586 2.73798 8.45231 2.70213 8.55142 2.70556C8.65053 2.70899 8.74427 2.75142 8.81225 2.82362L9.04856 3.06992L9.5478 2.58399C8.95037 1.8085 8.21649 1.90668 7.79546 2.29443C7.58835 2.48969 7.46713 2.75913 7.4584 3.04364C7.44966 3.32816 7.55412 3.60452 7.74886 3.81212L9.45294 5.58776C9.60768 5.75375 9.72331 5.95225 9.79137 6.16873C9.85943 6.3852 9.87819 6.61416 9.84628 6.83883C9.81437 7.0635 9.73259 7.27817 9.60694 7.46713C9.48129 7.65609 9.31495 7.81454 9.12012 7.93088L8.8888 8.05069V5.64268C7.87408 6.16545 6.9881 6.90702 6.29482 7.81384C5.60154 8.72065 5.11827 9.77009 4.87988 10.8864V10.8947Z" fill="#000001"/>
</g>
</g>
</svg>
