<svg width="24" height="24" viewBox="0 0 24 24" fill="none" xmlns="http://www.w3.org/2000/svg">
<g id="size=24">
<g id="Path">
<path d="M14.5799 2.9761L17.1982 7.26126C17.2043 7.26975 17.2075 7.27994 17.2075 7.29039C17.2075 7.30084 17.2043 7.31102 17.1982 7.31951C17.1938 7.3243 17.1884 7.32812 17.1824 7.33074C17.1765 7.33335 17.17 7.3347 17.1635 7.3347C17.157 7.3347 17.1505 7.33335 17.1446 7.33074C17.1386 7.32812 17.1332 7.3243 17.1288 7.31951L13.7367 3.78321L14.5799 2.9761Z" fill="#C72C48"/>
<path d="M13.4871 13.3992V14.6972L12.2584 15.3213V14.0316L13.4871 13.3992Z" fill="#C72C48"/>
<path d="M8.79702 14.5114C9.37154 13.2954 10.1523 12.1881 11.1046 11.2386C11.4669 10.8764 11.8523 10.5383 12.2584 10.2262V12.7224L8.79702 14.5114ZM6.80005 16.8245L12.2584 14.0509V20.4024L13.4871 22V13.4019L14.2332 13.0164C14.7493 12.7564 15.1973 12.3793 15.5415 11.9152C15.8857 11.4511 16.1165 10.9128 16.2154 10.3435C16.3143 9.77423 16.2786 9.18968 16.1112 8.63665C15.9438 8.08361 15.6492 7.57744 15.2511 7.15863L12.4415 4.22142C12.3294 4.10054 12.2697 3.94024 12.2755 3.77552C12.2812 3.61079 12.3518 3.45501 12.472 3.3422C12.5933 3.22997 12.7541 3.17022 12.9193 3.17593C13.0845 3.18164 13.2407 3.25237 13.354 3.37271L13.7478 3.78319L14.5799 2.97331C13.5842 1.68083 12.3611 1.84447 11.6593 2.49071C11.3142 2.81615 11.1121 3.26521 11.0976 3.7394C11.083 4.21359 11.2571 4.6742 11.5817 5.02021L14.4218 7.97961C14.6797 8.25625 14.8724 8.58709 14.9859 8.94788C15.0993 9.30867 15.1306 9.69027 15.0774 10.0647C15.0242 10.4392 14.8879 10.797 14.6785 11.1119C14.4691 11.4268 14.1918 11.6909 13.8671 11.8848L13.4816 12.0845V8.07113C11.7904 8.94242 10.3137 10.1784 9.15828 11.6897C8.00282 13.2011 7.19735 14.9502 6.80005 16.8107V16.8245Z" fill="#C72C48"/>
</g>
</g>
</svg>
