<svg width="24" height="24" viewBox="0 0 24 24" fill="none" xmlns="http://www.w3.org/2000/svg">
<g id="size=24">
<path id="Path" fill-rule="evenodd" clip-rule="evenodd" d="M17.25 12.7501C17.6642 12.7501 18 13.0859 18 13.5001V16.0001H20.5C20.9142 16.0001 21.25 16.3359 21.25 16.7501C21.2499 17.1642 20.9142 17.5001 20.5 17.5001H18V20.0001C17.9999 20.4142 17.6642 20.7501 17.25 20.7501C16.8358 20.7501 16.5001 20.4142 16.5 20.0001V17.5001H14C13.5858 17.5001 13.2501 17.1642 13.25 16.7501C13.25 16.3359 13.5858 16.0001 14 16.0001H16.5V13.5001C16.5 13.0859 16.8358 12.7501 17.25 12.7501ZM17.7197 5.21984C18.0126 4.92694 18.4874 4.92694 18.7803 5.21984C19.0731 5.51274 19.0731 5.98752 18.7803 6.28038L6.28027 18.7804C5.9874 19.0732 5.5126 19.0732 5.21973 18.7804C4.92686 18.4875 4.92692 18.0127 5.21973 17.7198L17.7197 5.21984ZM9.75 6.00011C10.1642 6.00011 10.5 6.3359 10.5 6.75011C10.4999 7.16425 10.1642 7.50011 9.75 7.50011H4.25C3.83584 7.50011 3.50009 7.16425 3.5 6.75011C3.5 6.3359 3.83579 6.00011 4.25 6.00011H9.75Z" fill="#000001"/>
</g>
</svg>
