<svg width="24" height="24" viewBox="0 0 24 24" fill="none" xmlns="http://www.w3.org/2000/svg">
<g id="size=24">
<path id="Path" fill-rule="evenodd" clip-rule="evenodd" d="M2 4.75C2 3.23122 3.23122 2 4.75 2H19.25C20.7688 2 22 3.23122 22 4.75V19.25C22 20.7688 20.7688 22 19.25 22H4.75C3.23122 22 2 20.7688 2 19.25V4.75ZM8.25 11C7.83579 11 7.5 11.3358 7.5 11.75C7.5 12.1642 7.83579 12.5 8.25 12.5H15.75C16.1642 12.5 16.5 12.1642 16.5 11.75C16.5 11.3358 16.1642 11 15.75 11H8.25Z" fill="#000001"/>
</g>
</svg>
