<svg width="16" height="16" viewBox="0 0 16 16" fill="none" xmlns="http://www.w3.org/2000/svg">
<g id="size=16">
<path id="Path" fill-rule="evenodd" clip-rule="evenodd" d="M12.25 7.75005C12.6642 7.75005 13 8.08584 13 8.50005V10.0001H14.5C14.9142 10.0001 15.25 10.3358 15.25 10.7501C15.2499 11.1642 14.9142 11.5001 14.5 11.5001H13V13.0001C12.9999 13.4142 12.6642 13.7501 12.25 13.7501C11.8358 13.7501 11.5001 13.4142 11.5 13.0001V11.5001H10C9.58582 11.5001 9.25006 11.1642 9.25 10.7501C9.25 10.3358 9.58579 10.0001 10 10.0001H11.5V8.50005C11.5 8.08584 11.8358 7.75005 12.25 7.75005ZM11.7197 3.21978C12.0126 2.92688 12.4874 2.92688 12.7803 3.21978C13.0731 3.51267 13.0731 3.98745 12.7803 4.28032L4.28027 12.7803C3.98739 13.0731 3.51261 13.0731 3.21973 12.7803C2.92685 12.4874 2.92689 12.0127 3.21973 11.7198L11.7197 3.21978ZM6.75 4.00005C7.16421 4.00005 7.5 4.33584 7.5 4.75005C7.49994 5.16421 7.16418 5.50005 6.75 5.50005H2.25C1.83582 5.50005 1.50006 5.16421 1.5 4.75005C1.5 4.33584 1.83579 4.00005 2.25 4.00005H6.75Z" fill="#000001"/>
</g>
</svg>
