<svg width="24" height="24" viewBox="0 0 24 24" fill="none" xmlns="http://www.w3.org/2000/svg">
<g id="size=24">
<path id="Path" fill-rule="evenodd" clip-rule="evenodd" d="M17.6797 2.02839C19.3898 1.66594 20.9997 2.97075 21 4.71882V17.63C21 18.9288 20.0909 20.0508 18.8203 20.3204L6.32031 22.9718C4.61005 23.3343 3 22.0296 3 20.2813V7.37019C3.00027 6.07157 3.90928 4.95021 5.17969 4.68073L17.6797 2.02839ZM19.5 4.71882C19.4997 3.92431 18.7675 3.33132 17.9902 3.49616L5.49023 6.14753C4.91305 6.27012 4.50027 6.78015 4.5 7.37019V20.2813C4.5 21.0761 5.23232 21.6689 6.00977 21.504L18.5098 18.8526C19.0871 18.7299 19.5 18.2202 19.5 17.63V4.71882ZM15.4922 6.64363C16.269 6.48022 16.9998 7.07257 17 7.86628V15.5557C17 16.1467 16.5861 16.6575 16.0078 16.7794L8.50781 18.3575C7.73092 18.521 7 17.9278 7 17.1339V9.44441C7.00013 8.85348 7.41396 8.3426 7.99219 8.22077L15.4922 6.64363ZM8.5 9.64753V16.8262L15.5 15.3536V8.17488L8.5 9.64753Z" fill="#000001"/>
</g>
</svg>
