<svg width="16" height="16" viewBox="0 0 16 16" fill="none" xmlns="http://www.w3.org/2000/svg">
<g id="size=16">
<path id="Path" fill-rule="evenodd" clip-rule="evenodd" d="M12.3086 0.122593C13.7007 -0.155783 14.9998 0.909997 15 2.32962V11.7701C14.9999 12.8424 14.2429 13.7657 13.1914 13.9761L3.69141 15.8765C2.29912 16.155 1 15.0893 1 13.6695V4.22904C1.00028 3.15681 1.75716 2.23334 2.80859 2.02298L12.3086 0.122593ZM13.5 2.32962C13.4998 1.85656 13.0665 1.50153 12.6025 1.59427L3.10254 3.49369C2.75234 3.56389 2.50028 3.8719 2.5 4.22904V13.6695C2.5 14.1428 2.93337 14.4976 3.39746 14.4048L12.8975 12.5054C13.2477 12.4351 13.4999 12.1273 13.5 11.7701V2.32962ZM10.6025 4.01419C10.8228 3.97017 11.0519 4.02716 11.2256 4.16947C11.3992 4.31182 11.4999 4.52502 11.5 4.74955V10.1499C11.4998 10.5072 11.2477 10.815 10.8975 10.8853L5.39746 11.9849C5.17713 12.029 4.94818 11.9721 4.77441 11.8296C4.6008 11.6872 4.5 11.4741 4.5 11.2495V5.84915C4.50041 5.49211 4.7524 5.18397 5.10254 5.1138L10.6025 4.01419ZM6 6.46439V10.3345L10 9.5347V5.66458L6 6.46439Z" fill="#000001"/>
</g>
</svg>
