<svg width="16" height="16" viewBox="0 0 16 16" fill="none" xmlns="http://www.w3.org/2000/svg">
<g id="size=16">
<path id="Path" fill-rule="evenodd" clip-rule="evenodd" d="M12.3086 0.12279C13.7008 -0.155627 14.9999 0.910078 15 2.32982V11.7703C14.9999 12.8426 14.2429 13.7659 13.1914 13.9763L3.69141 15.8767C2.29912 16.1552 1 15.0895 1 13.6697V4.22924C1.00018 3.15692 1.75709 2.23355 2.80859 2.02318L12.3086 0.12279ZM13.5 2.32982C13.4999 1.85665 13.0666 1.50169 12.6025 1.59447L3.10254 3.49388C2.75227 3.5641 2.50018 3.87201 2.5 4.22924V13.6697C2.5 14.143 2.93337 14.4978 3.39746 14.405L12.8975 12.5056C13.2478 12.4354 13.4999 12.1275 13.5 11.7703V2.32982ZM10.6025 4.01439C10.8228 3.97035 11.0518 4.02728 11.2256 4.16966C11.3993 4.31206 11.4999 4.52515 11.5 4.74974V10.1501C11.4998 10.5074 11.2477 10.8153 10.8975 10.8855L5.39746 11.9851C5.17713 12.0292 4.94818 11.9723 4.77441 11.8298C4.60074 11.6874 4.5 11.4744 4.5 11.2497V5.84935C4.50031 5.49222 4.75233 5.18418 5.10254 5.114L10.6025 4.01439ZM6 6.46459V10.3347L10 9.5349V5.66478L6 6.46459Z" fill="#000001"/>
</g>
</svg>
