<svg width="16" height="16" viewBox="0 0 16 16" fill="none" xmlns="http://www.w3.org/2000/svg">
<g id="size=16">
<path id="Vector" d="M9.48819 1.78331C8.76911 0.986575 8.1499 0.177397 8.0234 0.0093367C8.01008 -0.00311223 7.9901 -0.00311223 7.97678 0.0093367C7.85028 0.177397 7.23107 0.986575 6.51198 1.78331C0.339879 9.13438 7.48408 14.0953 7.48408 14.0953L7.544 14.1326C7.59726 14.8983 7.73043 16 7.73043 16H8.26308C8.26308 16 8.39625 14.9045 8.44952 14.1326L8.50944 14.0891C8.51609 14.0891 15.6603 9.13438 9.48819 1.78331ZM7.99676 13.9833C7.99676 13.9833 7.67717 13.7281 7.59061 13.5973V13.5849L7.97678 5.58024C7.97678 5.55534 8.01674 5.55534 8.01674 5.58024L8.4029 13.5849V13.5973C8.31635 13.7281 7.99676 13.9833 7.99676 13.9833Z" fill="#00684A"/>
</g>
</svg>
