<svg width="16" height="16" viewBox="0 0 16 16" fill="none" xmlns="http://www.w3.org/2000/svg">
<g id="size=16">
<path id="Path" fill-rule="evenodd" clip-rule="evenodd" d="M7.36817 1.00292C7.66169 0.976131 7.94558 1.12443 8.09083 1.38085C8.23562 1.63787 8.2148 1.95776 8.04005 2.1953C7.45377 2.98851 7.17134 3.96755 7.24415 4.95116C7.31754 5.9352 7.74288 6.86164 8.44044 7.55956C9.13833 8.25732 10.0637 8.68139 11.0479 8.75488C12.0321 8.82814 13.011 8.54562 13.8047 7.95898C14.042 7.78454 14.3614 7.76481 14.6182 7.90917C14.8751 8.05405 15.0235 8.33817 14.9971 8.63183C14.8745 9.95762 14.3757 11.2228 13.5615 12.2764C12.7471 13.3296 11.6486 14.1294 10.3965 14.582C9.14379 15.0345 7.78731 15.1208 6.48731 14.831C5.18739 14.5411 3.99652 13.887 3.05469 12.9453C2.1132 12.0035 1.45782 10.8125 1.16798 9.51269C0.878509 8.21302 0.964647 6.85585 1.417 5.60351C1.86965 4.35137 2.6703 3.25191 3.72364 2.43749C4.77718 1.62334 6.04234 1.12547 7.36817 1.00292ZM6.03028 2.84179C5.5348 3.03283 5.06602 3.29705 4.64161 3.62499C3.81365 4.26515 3.18399 5.12909 2.82813 6.11327C2.47257 7.09765 2.40438 8.16493 2.63184 9.18652C2.85971 10.2081 3.37526 11.1445 4.11524 11.8848C4.85557 12.625 5.79169 13.1393 6.81348 13.3672C7.83544 13.595 8.90195 13.5276 9.88673 13.1719C10.8711 12.816 11.7347 12.1865 12.375 11.3584C12.7029 10.9341 12.9662 10.4651 13.1572 9.96972C12.449 10.2095 11.6938 10.3074 10.9365 10.251C9.59405 10.1508 8.33187 9.57196 7.37989 8.62011C6.42836 7.66822 5.84921 6.40567 5.74903 5.06347C5.69281 4.30639 5.79053 3.5498 6.03028 2.84179Z" fill="#000001"/>
</g>
</svg>
