<svg width="24" height="24" viewBox="0 0 24 24" fill="none" xmlns="http://www.w3.org/2000/svg">
<g id="size=24">
<path id="Path" fill-rule="evenodd" clip-rule="evenodd" d="M11.0975 2.00408C11.3913 1.97733 11.6751 2.12524 11.8202 2.38201C11.965 2.63915 11.9444 2.95893 11.7694 3.19646C10.85 4.44041 10.4075 5.9742 10.5224 7.51677C10.6375 9.05933 11.3027 10.5098 12.3964 11.6037C13.4904 12.6975 14.9415 13.3626 16.4843 13.4777C18.0267 13.5925 19.5597 13.15 20.8036 12.2306C21.0412 12.0556 21.3609 12.036 21.6181 12.1808C21.875 12.3259 22.0237 12.6097 21.997 12.9035C21.8218 14.7979 21.1097 16.6043 19.9462 18.1095C18.7824 19.6147 17.2131 20.7578 15.4237 21.4045C13.634 22.0509 11.696 22.1749 9.83876 21.7609C7.98146 21.3467 6.28008 20.4111 4.93446 19.0656C3.58909 17.72 2.65427 16.0185 2.24012 14.1613C1.82625 12.3042 1.94927 10.3668 2.59559 8.57732C3.24219 6.78783 4.38524 5.21773 5.89051 4.05388C7.3959 2.89027 9.20293 2.17918 11.0975 2.00408ZM9.70008 3.78338C8.65702 4.07857 7.67374 4.5726 6.80848 5.24138C5.52866 6.23096 4.55651 7.56561 4.00673 9.08709C3.45718 10.6087 3.35207 12.2561 3.70399 13.8351C4.05613 15.4142 4.8511 16.8609 5.99501 18.0051C7.13906 19.149 8.58588 19.9439 10.1649 20.2961C11.7441 20.648 13.3922 20.5439 14.914 19.9943C16.4354 19.4445 17.7701 18.4723 18.7597 17.1926C19.4285 16.3273 19.9225 15.344 20.2177 14.301C19.0201 14.8372 17.6981 15.0726 16.372 14.9738C14.4711 14.8319 12.6837 14.012 11.3358 12.6642C9.98811 11.3163 9.16805 9.52898 9.02626 7.6281C8.92753 6.30197 9.1639 4.98092 9.70008 3.78338Z" fill="#000001"/>
</g>
</svg>
