<svg width="24" height="24" viewBox="0 0 24 24" fill="none" xmlns="http://www.w3.org/2000/svg">
<g id="size=24">
<path id="Path" fill-rule="evenodd" clip-rule="evenodd" d="M11.0976 2.00388C11.3913 1.97719 11.6752 2.12512 11.8203 2.38181C11.965 2.6389 11.9444 2.95874 11.7695 3.19627C10.8501 4.44017 10.4077 5.97406 10.5225 7.51658C10.6376 9.05913 11.3028 10.5096 12.3965 11.6035C13.4905 12.6973 14.9416 13.3624 16.4844 13.4775C18.0268 13.5922 19.5599 13.1498 20.8037 12.2304C21.0413 12.0555 21.3611 12.0358 21.6182 12.1806C21.875 12.3257 22.0238 12.6095 21.9971 12.9033C21.8219 14.7977 21.1097 16.6041 19.9463 18.1094C18.7825 19.6145 17.2131 20.7576 15.4238 21.4043C13.6341 22.0507 11.6961 22.1747 9.83886 21.7607C7.98155 21.3465 6.28019 20.4109 4.93456 19.0654C3.58919 17.7198 2.65437 16.0183 2.24023 14.1611C1.82639 12.3041 1.94939 10.3666 2.59569 8.57713C3.2423 6.78772 4.3854 5.2175 5.89062 4.05369C7.39597 2.89015 9.2031 2.17898 11.0976 2.00388ZM9.70019 3.78318C8.65719 4.07836 7.6738 4.57246 6.80859 5.24119C5.52881 6.23072 4.55663 7.56549 4.00683 9.08689C3.4573 10.6085 3.35221 12.2559 3.70409 13.8349C4.05623 15.414 4.8512 16.8607 5.99511 18.0049C7.13917 19.1488 8.58597 19.9437 10.165 20.2959C11.7442 20.6478 13.3924 20.5437 14.9141 19.9941C16.4354 19.4443 17.7702 18.4721 18.7598 17.1924C19.4285 16.3271 19.9226 15.3438 20.2178 14.3008C19.0202 14.8369 17.6982 15.0723 16.3721 14.9736C14.4712 14.8317 12.6838 14.0118 11.3359 12.664C9.98821 11.3161 9.16815 9.52879 9.02636 7.62791C8.92766 6.30183 9.16402 4.98068 9.70019 3.78318Z" fill="#000001"/>
</g>
</svg>
