<svg width="24" height="24" viewBox="0 0 24 24" fill="none" xmlns="http://www.w3.org/2000/svg">
<g id="size=24">
<path id="Path" d="M12 16.5C13.1046 16.5 14 17.3954 14 18.5C14 19.6046 13.1046 20.5 12 20.5C10.8954 20.5 10 19.6046 10 18.5C10 17.3954 10.8954 16.5 12 16.5ZM12 10C13.1046 10 14 10.8954 14 12C14 13.1046 13.1046 14 12 14C10.8954 14 10 13.1046 10 12C10 10.8954 10.8954 10 12 10ZM12 3.5C13.1046 3.5 14 4.39543 14 5.5C14 6.60457 13.1046 7.5 12 7.5C10.8954 7.5 10 6.60457 10 5.5C10 4.39543 10.8954 3.5 12 3.5Z" fill="#000001"/>
</g>
</svg>
