<svg width="16" height="16" viewBox="0 0 16 16" fill="none" xmlns="http://www.w3.org/2000/svg">
<g id="size=16">
<path id="Path" fill-rule="evenodd" clip-rule="evenodd" d="M1.71964 1.71938C1.93446 1.50496 2.25775 1.44065 2.538 1.55727L14.038 6.34829C14.3251 6.46858 14.5103 6.75483 14.4999 7.06606C14.4891 7.37713 14.2856 7.65005 13.9911 7.75063L10.1249 9.06411L13.7802 12.7194C14.0719 13.0122 14.0722 13.4873 13.7802 13.7799C13.4876 14.0724 13.0126 14.0717 12.7196 13.7799L9.06436 10.1247L7.75089 13.9909C7.65056 14.2855 7.37735 14.4886 7.06632 14.4997C6.75488 14.5101 6.46879 14.3251 6.34854 14.0377L1.55753 2.53774C1.4409 2.25733 1.5049 1.93417 1.71964 1.71938ZM6.96964 11.6276L8.03214 8.50063C8.10716 8.28011 8.28032 8.1068 8.50089 8.03188L11.6278 6.96938L3.64249 3.64223L6.96964 11.6276Z" fill="#000001"/>
</g>
</svg>
