<svg width="24" height="24" viewBox="0 0 24 24" fill="none" xmlns="http://www.w3.org/2000/svg">
<g id="size=24">
<path id="Path" fill-rule="evenodd" clip-rule="evenodd" d="M2.21968 2.21972C2.43451 2.00519 2.75773 1.94096 3.03804 2.05761L20.538 9.34863C20.8253 9.46893 21.0104 9.75508 21 10.0664C20.9891 10.3774 20.7857 10.6505 20.4912 10.751L14.0117 12.9512L19.7802 18.7197C20.072 19.0126 20.0724 19.4877 19.7802 19.7803C19.4877 20.0728 19.0126 20.0721 18.7197 19.7803L12.9511 14.0117L10.7509 20.4912C10.6507 20.7859 10.3774 20.9888 10.0664 21C9.7549 21.0105 9.46882 20.8255 9.34859 20.5381L2.05757 3.03808C1.94087 2.75763 2.00489 2.43454 2.21968 2.21972ZM9.96968 18.1279L11.9189 12.3877C11.9939 12.1673 12.1672 11.9939 12.3877 11.9189L18.1279 9.96972L4.14253 4.14257L9.96968 18.1279Z" fill="#000001"/>
</g>
</svg>
