<svg width="16" height="16" viewBox="0 0 16 16" fill="none" xmlns="http://www.w3.org/2000/svg">
<g id="size=16">
<path id="Path" fill-rule="evenodd" clip-rule="evenodd" d="M2.53845 1.5577C2.25792 1.44083 1.93459 1.5048 1.71969 1.71969C1.5048 1.93459 1.44083 2.25792 1.5577 2.53845L6.3488 14.0385C6.46879 14.3265 6.75455 14.5101 7.06637 14.4996C7.37819 14.4891 7.65094 14.2866 7.75128 13.9912L9.06441 10.1251L12.7197 13.7803C13.0126 14.0732 13.4874 14.0732 13.7803 13.7803C14.0732 13.4874 14.0732 13.0126 13.7803 12.7197L10.1251 9.06441L13.9912 7.75128C14.2866 7.65094 14.4891 7.37819 14.4996 7.06637C14.5101 6.75455 14.3265 6.46879 14.0385 6.3488L2.53845 1.5577ZM6.96967 11.6283L3.64274 3.64274L11.6283 6.96967L8.50086 8.03191C8.28017 8.10687 8.10687 8.28017 8.03191 8.50086L6.96967 11.6283Z" fill="#000001"/>
</g>
</svg>
