<svg width="16" height="16" viewBox="0 0 16 16" fill="none" xmlns="http://www.w3.org/2000/svg">
<g id="size=16">
<path id="Path" fill-rule="evenodd" clip-rule="evenodd" d="M1.71967 1.71972C1.9345 1.5052 2.25773 1.44096 2.53803 1.55761L14.038 6.34863C14.3251 6.46897 14.5104 6.75515 14.4999 7.0664C14.4891 7.37743 14.2857 7.65042 13.9912 7.75097L10.1249 9.06445L13.7802 12.7197C14.0718 13.0126 14.0723 13.4877 13.7802 13.7803C13.4877 14.0727 13.0126 14.072 12.7197 13.7803L9.0644 10.125L7.75092 13.9912C7.65057 14.2858 7.37734 14.4889 7.06635 14.5C6.75497 14.5105 6.46886 14.3254 6.34858 14.0381L1.55756 2.53808C1.44086 2.25765 1.50491 1.93454 1.71967 1.71972ZM6.96967 11.6279L8.03217 8.50097C8.10717 8.28037 8.28029 8.10715 8.50092 8.03222L11.6279 6.96972L3.64252 3.64257L6.96967 11.6279Z" fill="#000001"/>
</g>
</svg>
