<svg width="24" height="24" viewBox="0 0 24 24" fill="none" xmlns="http://www.w3.org/2000/svg">
<g id="size=24">
<path id="Path" fill-rule="evenodd" clip-rule="evenodd" d="M2.21967 2.22003C2.43449 2.0055 2.75772 1.94127 3.03803 2.05792L20.538 9.34893C20.8251 9.46931 21.0104 9.75551 20.9999 10.0667C20.9889 10.3776 20.7856 10.6508 20.4912 10.7513L14.0117 12.9515L19.7802 18.72C20.0717 19.0129 20.0723 19.4881 19.7802 19.7806C19.4877 20.073 19.0126 20.0721 18.7197 19.7806L12.9511 14.012L10.7509 20.4915C10.6506 20.786 10.3772 20.9891 10.0664 21.0003C9.75502 21.0108 9.4689 20.8256 9.34858 20.5384L2.05756 3.03839C1.94086 2.75795 2.00492 2.43485 2.21967 2.22003ZM9.96967 18.1282L11.9189 12.388C11.9939 12.1676 12.1672 11.9942 12.3876 11.9192L18.1279 9.97003L4.14252 4.14288L9.96967 18.1282Z" fill="#000001"/>
</g>
</svg>
