<svg width="24" height="24" viewBox="0 0 24 24" fill="none" xmlns="http://www.w3.org/2000/svg">
<g id="size=24">
<path id="Path" fill-rule="evenodd" clip-rule="evenodd" d="M2.21964 2.21937C2.43445 2.00494 2.75775 1.94066 3.038 2.05726L20.538 9.34828C20.8252 9.46852 21.0103 9.75477 20.9999 10.066C20.9891 10.3771 20.7857 10.6501 20.4911 10.7506L14.0116 12.9508L19.7802 18.7194C20.072 19.0122 20.0723 19.4873 19.7802 19.7799C19.4876 20.0725 19.0126 20.0719 18.7196 19.7799L12.9511 14.0114L10.7509 20.4909C10.6506 20.7856 10.3774 20.9885 10.0663 20.9996C9.7548 21.0101 9.46874 20.8252 9.34854 20.5377L2.05753 3.03773C1.94091 2.7573 2.00487 2.43415 2.21964 2.21937ZM9.96964 18.1276L11.9189 12.3873C11.9939 12.167 12.1672 11.9935 12.3876 11.9186L18.1278 9.96937L4.14249 4.14222L9.96964 18.1276Z" fill="#000001"/>
</g>
</svg>
