<svg width="16" height="16" viewBox="0 0 16 16" fill="none" xmlns="http://www.w3.org/2000/svg">
<g id="size=16">
<path id="Path" fill-rule="evenodd" clip-rule="evenodd" d="M1.71963 1.71937C1.93443 1.50492 2.25773 1.44068 2.53799 1.55726L14.038 6.34827C14.3251 6.46857 14.5103 6.75482 14.4999 7.06605C14.4891 7.37715 14.2857 7.65006 13.9911 7.75062L10.1249 9.06409L13.7802 12.7194C14.0719 13.0122 14.0723 13.4873 13.7802 13.7799C13.4876 14.0724 13.0126 14.0717 12.7196 13.7799L9.06436 10.1246L7.75088 13.9909C7.65054 14.2856 7.37737 14.4886 7.06631 14.4996C6.75489 14.5101 6.46878 14.3251 6.34854 14.0377L1.55752 2.53773C1.44091 2.25732 1.50489 1.93415 1.71963 1.71937ZM6.96963 11.6276L8.03213 8.50062C8.10715 8.28008 8.28029 8.10679 8.50088 8.03187L11.6278 6.96937L3.64248 3.64222L6.96963 11.6276Z" fill="#000001"/>
</g>
</svg>
