<svg width="24" height="24" viewBox="0 0 24 24" fill="none" xmlns="http://www.w3.org/2000/svg">
<g id="size=24">
<path id="Path" fill-rule="evenodd" clip-rule="evenodd" d="M11.9999 2C12.414 2.00019 12.7499 2.3359 12.7499 2.75V21.25C12.7499 21.6641 12.414 21.9998 11.9999 22C11.5857 22 11.2499 21.6642 11.2499 21.25V2.75C11.2499 2.33579 11.5857 2 11.9999 2ZM5.03315 8.66797C5.32772 8.42786 5.76252 8.44519 6.03705 8.71973C6.32969 9.01249 6.3295 9.48739 6.03705 9.78027L4.56733 11.25H9.49994C9.914 11.2502 10.2499 11.5859 10.2499 12C10.2499 12.4141 9.914 12.7498 9.49994 12.75H4.56733L6.03705 14.2197C6.3295 14.5126 6.32969 14.9875 6.03705 15.2803C5.7443 15.573 5.26943 15.5728 4.97651 15.2803L2.22651 12.5303C1.93361 12.2374 1.93361 11.7626 2.22651 11.4697L4.97651 8.71973L5.03315 8.66797ZM17.9765 8.72656C18.2693 8.43402 18.7442 8.43412 19.0371 8.72656L21.7802 11.4697C22.0728 11.7626 22.0728 12.2374 21.7802 12.5303L19.0371 15.2734L18.9804 15.3242C18.6859 15.5645 18.2511 15.5478 17.9765 15.2734C17.7019 14.9988 17.6854 14.5641 17.9257 14.2695L17.9765 14.2129L19.4394 12.75H14.4999C14.0857 12.75 13.7499 12.4142 13.7499 12C13.7499 11.5858 14.0857 11.25 14.4999 11.25H19.4394L17.9765 9.78711C17.684 9.49419 17.6837 9.01933 17.9765 8.72656Z" fill="#000001"/>
</g>
</svg>
