<svg width="16" height="16" viewBox="0 0 16 16" fill="none" xmlns="http://www.w3.org/2000/svg">
<g id="size=16">
<path id="Path" d="M7.75 0C7.94194 0 8.13383 0.0732802 8.28027 0.219727L10.2803 2.21973C10.5732 2.51262 10.5732 2.98738 10.2803 3.28027C9.98738 3.57317 9.51262 3.57317 9.21973 3.28027L8.5 2.56055V7H12.9395L12.2197 6.28027C11.9268 5.98738 11.9268 5.51262 12.2197 5.21973C12.5126 4.92683 12.9874 4.92683 13.2803 5.21973L15.2803 7.21973C15.3522 7.29163 15.4068 7.37443 15.4434 7.46289C15.48 7.5513 15.5 7.64834 15.5 7.75C15.5 7.85166 15.48 7.9487 15.4434 8.03711C15.4068 8.12557 15.3522 8.20837 15.2803 8.28027L13.2803 10.2803C12.9874 10.5732 12.5126 10.5732 12.2197 10.2803C11.9268 9.98738 11.9268 9.51262 12.2197 9.21973L12.9395 8.5H8.5V12.9395L9.21973 12.2197C9.51262 11.9268 9.98738 11.9268 10.2803 12.2197C10.5732 12.5126 10.5732 12.9874 10.2803 13.2803L8.28027 15.2803C8.13383 15.4267 7.94194 15.5 7.75 15.5C7.64834 15.5 7.5513 15.48 7.46289 15.4434C7.37443 15.4068 7.29163 15.3522 7.21973 15.2803L5.21973 13.2803C4.92683 12.9874 4.92683 12.5126 5.21973 12.2197C5.51262 11.9268 5.98738 11.9268 6.28027 12.2197L7 12.9395V8.5H2.56055L3.28027 9.21973C3.57317 9.51262 3.57317 9.98738 3.28027 10.2803C2.98738 10.5732 2.51262 10.5732 2.21973 10.2803L0.219727 8.28027C0.0732802 8.13383 0 7.94194 0 7.75C0 7.64834 0.0199907 7.5513 0.0566406 7.46289C0.0932404 7.37443 0.147819 7.29163 0.219727 7.21973L2.21973 5.21973C2.51262 4.92683 2.98738 4.92683 3.28027 5.21973C3.57317 5.51262 3.57317 5.98738 3.28027 6.28027L2.56055 7H7V2.56055L6.28027 3.28027C5.98738 3.57317 5.51262 3.57317 5.21973 3.28027C4.92683 2.98738 4.92683 2.51262 5.21973 2.21973L7.21973 0.219727C7.29163 0.147819 7.37443 0.0932404 7.46289 0.0566406C7.5513 0.0199907 7.64834 0 7.75 0Z" fill="#000001"/>
</g>
</svg>
