<svg width="16" height="16" viewBox="0 0 16 16" fill="none" xmlns="http://www.w3.org/2000/svg">
<g id="size=16">
<path id="Path" fill-rule="evenodd" clip-rule="evenodd" d="M7.99994 1C8.414 1.00019 8.74994 1.3359 8.74994 1.75V14.25C8.74994 14.6641 8.414 14.9998 7.99994 15C7.58573 15 7.24994 14.6642 7.24994 14.25V1.75C7.24994 1.33579 7.58573 1 7.99994 1ZM3.52631 5.16797C3.82089 4.92791 4.2557 4.94521 4.53022 5.21973C4.82288 5.51251 4.82272 5.98739 4.53022 6.28027L3.56049 7.25H5.49994C5.914 7.25019 6.24994 7.5859 6.24994 8C6.24994 8.4141 5.914 8.74981 5.49994 8.75H3.56049L4.53022 9.71973C4.82272 10.0126 4.82288 10.4875 4.53022 10.7803C4.23744 11.073 3.76259 11.0728 3.46967 10.7803L1.21967 8.53027C0.926777 8.23738 0.926777 7.76262 1.21967 7.46973L3.46967 5.21973L3.52631 5.16797ZM11.4697 5.21973C11.7625 4.9271 12.2374 4.92704 12.5302 5.21973L14.7802 7.46973C15.0728 7.76256 15.0728 8.23744 14.7802 8.53027L12.5302 10.7803C12.2374 11.073 11.7625 11.0729 11.4697 10.7803C11.1768 10.4874 11.1769 10.0126 11.4697 9.71973L12.4394 8.75H10.4999C10.0857 8.75 9.74994 8.41421 9.74994 8C9.74994 7.58579 10.0857 7.25 10.4999 7.25H12.4394L11.4697 6.28027C11.1769 5.98737 11.1768 5.51258 11.4697 5.21973Z" fill="#000001"/>
</g>
</svg>
