<svg width="24" height="24" viewBox="0 0 24 24" fill="none" xmlns="http://www.w3.org/2000/svg">
<g id="size=24">
<path id="Path" d="M11.75 1C11.9419 1 12.1338 1.07328 12.2803 1.21973L15.2803 4.21973C15.5732 4.51262 15.5732 4.98738 15.2803 5.28027C14.9874 5.57317 14.5126 5.57317 14.2197 5.28027L12.5 3.56055V11H19.9395L18.2197 9.28027C17.9268 8.98738 17.9268 8.51262 18.2197 8.21973C18.5126 7.92683 18.9874 7.92683 19.2803 8.21973L22.2803 11.2197C22.4267 11.3662 22.5 11.5581 22.5 11.75C22.5 11.8517 22.48 11.9487 22.4434 12.0371C22.4068 12.1256 22.3522 12.2084 22.2803 12.2803L19.2803 15.2803C18.9874 15.5732 18.5126 15.5732 18.2197 15.2803C17.9268 14.9874 17.9268 14.5126 18.2197 14.2197L19.9395 12.5H12.5V19.9395L14.2197 18.2197C14.5126 17.9268 14.9874 17.9268 15.2803 18.2197C15.5732 18.5126 15.5732 18.9874 15.2803 19.2803L12.2803 22.2803C12.1338 22.4267 11.9419 22.5 11.75 22.5C11.6483 22.5 11.5513 22.48 11.4629 22.4434C11.3744 22.4068 11.2916 22.3522 11.2197 22.2803L8.21973 19.2803C7.92683 18.9874 7.92683 18.5126 8.21973 18.2197C8.51262 17.9268 8.98738 17.9268 9.28027 18.2197L11 19.9395V12.5H3.56055L5.28027 14.2197C5.57317 14.5126 5.57317 14.9874 5.28027 15.2803C4.98738 15.5732 4.51262 15.5732 4.21973 15.2803L1.21973 12.2803C1.07328 12.1338 1 11.9419 1 11.75C1 11.6483 1.01999 11.5513 1.05664 11.4629C1.09324 11.3744 1.14782 11.2916 1.21973 11.2197L4.21973 8.21973C4.51262 7.92683 4.98738 7.92683 5.28027 8.21973C5.57317 8.51262 5.57317 8.98738 5.28027 9.28027L3.56055 11H11V3.56055L9.28027 5.28027C8.98738 5.57317 8.51262 5.57317 8.21973 5.28027C7.92683 4.98738 7.92683 4.51262 8.21973 4.21973L11.2197 1.21973C11.2916 1.14782 11.3744 1.09324 11.4629 1.05664C11.5513 1.01999 11.6483 1 11.75 1Z" fill="#000001"/>
</g>
</svg>
