<svg width="16" height="16" viewBox="0 0 16 16" fill="none" xmlns="http://www.w3.org/2000/svg">
<g id="size=16">
<path id="Path" fill-rule="evenodd" clip-rule="evenodd" d="M7.99993 1C8.41404 1.00012 8.74993 1.33586 8.74993 1.75V14.25C8.74993 14.6641 8.41404 14.9999 7.99993 15C7.58573 15 7.24993 14.6642 7.24993 14.25V1.75C7.24993 1.3358 7.58573 1.00002 7.99993 1ZM3.5263 5.16797C3.82087 4.92785 4.25567 4.94521 4.5302 5.21973C4.82294 5.51253 4.82278 5.98738 4.5302 6.28027L3.56047 7.25H5.49993C5.91404 7.25012 6.24993 7.58586 6.24993 8C6.24993 8.41414 5.91404 8.74988 5.49993 8.75H3.56047L4.5302 9.71973C4.82278 10.0126 4.82294 10.4875 4.5302 10.7803C4.23741 11.0731 3.76257 11.0729 3.46965 10.7803L1.21965 8.53027C0.926781 8.23738 0.926782 7.76262 1.21965 7.46973L3.46965 5.21973L3.5263 5.16797ZM11.4697 5.21973C11.7625 4.92705 12.2374 4.92703 12.5302 5.21973L14.7802 7.46973C15.0729 7.76258 15.0729 8.23742 14.7802 8.53027L12.5302 10.7803C12.2374 11.073 11.7625 11.0729 11.4697 10.7803C11.1768 10.4874 11.1769 10.0126 11.4697 9.71973L12.4394 8.75H10.4999C10.0857 8.74998 9.74993 8.4142 9.74993 8C9.74993 7.5858 10.0857 7.25002 10.4999 7.25H12.4394L11.4697 6.28027C11.1769 5.98737 11.1768 5.51257 11.4697 5.21973Z" fill="#000001"/>
</g>
</svg>
