<svg width="24" height="24" viewBox="0 0 24 24" fill="none" xmlns="http://www.w3.org/2000/svg">
<g id="size=24">
<path id="Path" fill-rule="evenodd" clip-rule="evenodd" d="M19.3799 2.05101C20.751 1.82296 22 2.88063 22 4.27074V17.0559C21.9994 18.3994 21.0273 19.5475 19.7021 19.7688L17.7021 20.1018C16.0264 20.3811 14.5008 19.0876 14.5 17.3889V16.9446C14.5 15.6003 15.4718 14.4527 16.7979 14.2317L20.5 13.6145V4.27074C20.5 3.80767 20.0837 3.45508 19.627 3.5305L10.627 5.0305C10.2653 5.09078 10 5.40411 10 5.77074V19.0559C9.99937 20.3994 9.02731 21.5475 7.70215 21.7688L5.70215 22.1018C4.02637 22.3811 2.50078 21.0876 2.5 19.3889V18.9446C2.5 17.6003 3.47183 16.4527 4.79785 16.2317L8.5 15.6145V5.77074C8.5 4.67089 9.29502 3.73188 10.3799 3.55101L19.3799 2.05101ZM5.04492 17.7112C4.44219 17.8116 4 18.3335 4 18.9446V19.3889C4.00078 20.1606 4.69374 20.749 5.45508 20.6223L7.45508 20.2893C8.05699 20.1886 8.49937 19.6661 8.5 19.0559V17.136L5.04492 17.7112ZM17.0449 15.7112C16.4422 15.8116 16 16.3335 16 16.9446V17.3889C16.0008 18.1606 16.6937 18.749 17.4551 18.6223L19.4551 18.2893C20.057 18.1886 20.4994 17.6661 20.5 17.0559V15.136L17.0449 15.7112Z" fill="#000001"/>
</g>
</svg>
