<svg width="16" height="16" viewBox="0 0 16 16" fill="none" xmlns="http://www.w3.org/2000/svg">
<g id="size=16">
<path id="Path" fill-rule="evenodd" clip-rule="evenodd" d="M12.9531 1.96159C14.022 1.77741 14.9989 2.6018 15 3.68619V11.1559C14.9995 12.5074 14.0174 13.6593 12.6826 13.8717L12.0039 13.9792C10.6914 14.1857 9.50056 13.1715 9.5 11.8424C9.50089 10.7805 10.2759 9.87322 11.3242 9.70475L13.5 9.35905V3.68619C13.4989 3.53216 13.3601 3.41311 13.208 3.43912L6.70801 4.56119C6.59046 4.58311 6.501 4.68762 6.5 4.80729V12.1559C6.49953 13.5074 5.51736 14.6593 4.18262 14.8717L3.50391 14.9792C2.19144 15.1857 1.00057 14.1715 1 12.8424C1.00089 11.7805 1.77585 10.8732 2.82422 10.7047L5 10.359V4.80729C5.001 3.95762 5.61623 3.22873 6.45312 3.08268L12.9531 1.96159ZM3.05957 12.1862C2.73965 12.2389 2.50089 12.518 2.5 12.8424C2.50056 13.2492 2.86693 13.5595 3.26855 13.4977L3.94629 13.3903C4.55287 13.2938 4.99953 12.77 5 12.1559V11.8776L3.05957 12.1862ZM11.5596 11.1862C11.2396 11.2389 11.0009 11.518 11 11.8424C11.0006 12.2492 11.3669 12.5595 11.7686 12.4977L12.4463 12.3903C13.0529 12.2938 13.4995 11.77 13.5 11.1559V10.8776L11.5596 11.1862Z" fill="#000001"/>
</g>
</svg>
