<svg width="24" height="24" viewBox="0 0 24 24" fill="none" xmlns="http://www.w3.org/2000/svg">
<g id="size=24">
<path id="Path" fill-rule="evenodd" clip-rule="evenodd" d="M11.9999 2.00014C12.3085 2.00014 12.5855 2.18941 12.6982 2.4767L19.9482 20.9767C20.0628 21.2694 19.9831 21.603 19.748 21.8117C19.5129 22.02 19.1722 22.0597 18.8954 21.9113L11.9999 18.2072L5.10538 21.9113C4.82843 22.0599 4.48702 22.0203 4.25187 21.8117C4.01684 21.6031 3.9372 21.2693 4.05167 20.9767L11.3017 2.4767C11.4142 2.1895 11.6915 2.00029 11.9999 2.00014ZM6.19327 19.6232L11.6454 16.6945C11.8669 16.5756 12.1339 16.5755 12.3554 16.6945L17.8075 19.6232L11.9999 4.8058L6.19327 19.6232Z" fill="#000001"/>
</g>
</svg>
