<svg width="24" height="24" viewBox="0 0 24 24" fill="none" xmlns="http://www.w3.org/2000/svg">
<g id="size=24">
<path id="Path" fill-rule="evenodd" clip-rule="evenodd" d="M21.7803 2.21969C22.0045 2.44382 22.0635 2.78464 21.9278 3.07109L13.1646 21.5711C13.029 21.8574 12.7282 22.0276 12.4129 21.9964C12.0977 21.9652 11.8361 21.7392 11.7592 21.4319L9.92101 14.079L2.5681 12.2408C2.26078 12.164 2.03486 11.9023 2.00365 11.5871C1.97243 11.2718 2.14265 10.971 2.42893 10.8354L20.9289 2.07222C21.2154 1.93653 21.5562 1.99557 21.7803 2.21969ZM4.96501 11.2938L10.7214 12.7329C10.9901 12.8001 11.1999 13.0099 11.2671 13.2786L12.7062 19.035L19.6732 4.32681L4.96501 11.2938Z" fill="#000001"/>
</g>
</svg>
