<svg width="16" height="16" viewBox="0 0 16 16" fill="none" xmlns="http://www.w3.org/2000/svg">
<g id="size=16">
<path id="Path" fill-rule="evenodd" clip-rule="evenodd" d="M7.99988 0.999649C8.30167 0.999723 8.57428 1.18145 8.69129 1.45961L13.9413 13.9596C14.0626 14.2489 13.9907 14.5832 13.7616 14.7975C13.5325 15.0115 13.1943 15.0609 12.9139 14.9205L7.99988 12.4567L3.08582 14.9205C2.80527 15.061 2.46638 15.0118 2.23719 14.7975C2.00834 14.5832 1.93717 14.2488 2.05848 13.9596L7.30848 1.45961C7.42545 1.18139 7.69808 0.999749 7.99988 0.999649ZM4.22645 12.6705L7.66395 10.9479C7.8753 10.842 8.12444 10.8421 8.33582 10.9479L11.7733 12.6705L7.99988 3.68617L4.22645 12.6705Z" fill="#000001"/>
</g>
</svg>
