<svg width="16" height="16" viewBox="0 0 16 16" fill="none" xmlns="http://www.w3.org/2000/svg">
<g id="size=16">
<path id="Path" fill-rule="evenodd" clip-rule="evenodd" d="M14.7803 1.21969C15.0045 1.44382 15.0635 1.78464 14.9278 2.07109L9.00677 14.5711C8.87116 14.8574 8.5703 15.0276 8.25506 14.9964C7.93982 14.9652 7.67819 14.7392 7.60136 14.4319L6.39471 9.60533L1.56812 8.39868C1.26079 8.32185 1.03488 8.06022 1.00367 7.74498C0.972454 7.42974 1.14267 7.12888 1.42895 6.99327L13.929 1.07222C14.2154 0.936532 14.5562 0.995567 14.7803 1.21969ZM3.96503 7.45174L7.19508 8.25926C7.46379 8.32644 7.6736 8.53625 7.74078 8.80496L8.5483 12.035L12.6732 3.32681L3.96503 7.45174Z" fill="#000001"/>
</g>
</svg>
