<svg width="24" height="24" viewBox="0 0 24 24" fill="none" xmlns="http://www.w3.org/2000/svg">
<g id="size=24">
<path id="Path" fill-rule="evenodd" clip-rule="evenodd" d="M20.9288 2.07334C21.2147 1.93883 21.5567 1.99757 21.7804 2.2208C22.003 2.44459 22.0624 2.78682 21.9279 3.07236L13.1642 21.5724C13.0284 21.8565 12.7267 22.0272 12.4132 21.9972C12.0992 21.9655 11.8363 21.7386 11.7589 21.4327L9.92102 14.0802L2.56848 12.2413C2.26242 12.1643 2.03601 11.9019 2.00403 11.588C1.97338 11.2738 2.14389 10.9719 2.42883 10.836L20.9288 2.07334ZM4.96497 11.295L10.7208 12.7335C10.9882 12.8011 11.1994 13.0119 11.2667 13.2794L12.7062 19.0362L19.673 4.32822L4.96497 11.295Z" fill="#000001"/>
</g>
</svg>
