<svg width="16" height="16" viewBox="0 0 16 16" fill="none" xmlns="http://www.w3.org/2000/svg">
<g id="size=16">
<path id="Path" fill-rule="evenodd" clip-rule="evenodd" d="M7.99994 1C8.30185 1.00007 8.57442 1.1816 8.69135 1.45996L13.9413 13.96C14.0627 14.2493 13.9908 14.5836 13.7617 14.7979C13.5325 15.0119 13.1944 15.0612 12.914 14.9209L7.99994 12.457L3.08588 14.9209C2.80533 15.0614 2.46644 15.0122 2.23725 14.7979C2.00821 14.5835 1.93719 14.2492 2.05854 13.96L7.30854 1.45996C7.42546 1.18156 7.69799 1.00005 7.99994 1ZM4.22651 12.6709L7.66401 10.9482C7.87545 10.8423 8.12444 10.8423 8.33588 10.9482L11.7734 12.6709L7.99994 3.68652L4.22651 12.6709Z" fill="#000001"/>
</g>
</svg>
