<svg width="16" height="16" viewBox="0 0 16 16" fill="none" xmlns="http://www.w3.org/2000/svg">
<g id="size=16">
<path id="Path" fill-rule="evenodd" clip-rule="evenodd" d="M13.9293 1.07292C14.215 0.938306 14.5571 0.997506 14.7809 1.22038C15.0033 1.44417 15.0628 1.78645 14.9283 2.07194L9.00742 14.5719C8.87158 14.8564 8.56927 15.0271 8.25546 14.9967C7.94172 14.9649 7.67951 14.738 7.60214 14.4323L6.39511 9.60612L1.56894 8.39909C1.26326 8.32193 1.03657 8.05935 1.00449 7.74577C0.973988 7.43168 1.14448 7.12962 1.42929 6.99381L13.9293 1.07292ZM3.96542 7.4528L7.19589 8.25944C7.46301 8.32707 7.67336 8.53815 7.74081 8.80534L8.54843 12.0358L12.6734 3.3278L3.96542 7.4528Z" fill="#000001"/>
</g>
</svg>
