<svg width="16" height="16" viewBox="0 0 16 16" fill="none" xmlns="http://www.w3.org/2000/svg">
<g id="size=16">
<path id="Path" fill-rule="evenodd" clip-rule="evenodd" d="M14.7803 1.21969C15.0045 1.44382 15.0635 1.78464 14.9278 2.07109L9.00675 14.5711C8.87114 14.8574 8.57029 15.0276 8.25505 14.9964C7.93981 14.9652 7.67817 14.7392 7.60134 14.4319L6.3947 9.60533L1.5681 8.39868C1.26078 8.32185 1.03487 8.06022 1.00365 7.74498C0.972439 7.42974 1.14265 7.12888 1.42894 6.99327L13.9289 1.07222C14.2154 0.936532 14.5562 0.995567 14.7803 1.21969ZM3.96501 7.45174L7.19506 8.25926C7.46378 8.32644 7.67359 8.53625 7.74077 8.80496L8.54828 12.035L12.6732 3.32681L3.96501 7.45174Z" fill="#000001"/>
</g>
</svg>
