<svg width="24" height="24" viewBox="0 0 24 24" fill="none" xmlns="http://www.w3.org/2000/svg">
<g id="size=24">
<path id="Path" fill-rule="evenodd" clip-rule="evenodd" d="M20.9279 2.07357C21.2137 1.93883 21.5556 1.99784 21.7794 2.22104C22.0022 2.44491 22.0617 2.78694 21.9269 3.0726L13.1632 21.5726C13.0273 21.8568 12.7259 22.0276 12.4122 21.9974C12.0984 21.9656 11.8353 21.7387 11.7579 21.4329L9.92005 14.0804L2.56751 12.2415C2.26163 12.1644 2.03503 11.902 2.00306 11.5882C1.97236 11.2741 2.14306 10.9722 2.42787 10.8363L20.9279 2.07357ZM4.964 11.2953L10.7199 12.7337C10.9874 12.8012 11.1984 13.012 11.2658 13.2796L12.7052 19.0365L19.672 4.32846L4.964 11.2953Z" fill="#000001"/>
</g>
</svg>
