<svg width="16" height="16" viewBox="0 0 16 16" fill="none" xmlns="http://www.w3.org/2000/svg">
<g id="size=16">
<path id="Path" fill-rule="evenodd" clip-rule="evenodd" d="M14.7803 1.21968C15.0045 1.4438 15.0635 1.78462 14.9278 2.07107L9.00677 14.5711C8.87116 14.8574 8.5703 15.0276 8.25506 14.9964C7.93982 14.9651 7.67819 14.7392 7.60136 14.4319L6.39471 9.60531L1.56812 8.39867C1.26079 8.32184 1.03488 8.0602 1.00367 7.74496C0.972454 7.42972 1.14267 7.12886 1.42895 6.99326L13.929 1.0722C14.2154 0.936516 14.5562 0.995551 14.7803 1.21968ZM3.96503 7.45173L7.19508 8.25924C7.46379 8.32642 7.6736 8.53623 7.74078 8.80495L8.5483 12.035L12.6732 3.32679L3.96503 7.45173Z" fill="#000001"/>
</g>
</svg>
