<svg width="16" height="16" viewBox="0 0 16 16" fill="none" xmlns="http://www.w3.org/2000/svg">
<g id="size=16">
<path id="Path" d="M9.75 0C10.4404 0 11 0.559644 11 1.25V4.75C11 5.44036 10.4404 6 9.75 6H8.5V7H15C15.4142 7 15.75 7.33579 15.75 7.75C15.75 8.16421 15.4142 8.5 15 8.5H12.5V10H13.75C14.4404 10 15 10.5596 15 11.25V14.75C15 15.4404 14.4404 16 13.75 16H10.25C9.55964 16 9 15.4404 9 14.75V11.25C9 10.5596 9.55964 10 10.25 10H11V8.5H5V10H5.75C6.44036 10 7 10.5596 7 11.25V14.75C7 15.4404 6.44036 16 5.75 16H2.25C1.55964 16 1 15.4404 1 14.75V11.25C1 10.5596 1.55964 10 2.25 10H3.5V8.5H1C0.585786 8.5 0.25 8.16421 0.25 7.75C0.25 7.33579 0.585786 7 1 7H7V6H6.25C5.55964 6 5 5.44036 5 4.75V1.25C5 0.559644 5.55964 0 6.25 0H9.75ZM2.5 14.5H5.5V11.5H2.5V14.5ZM10.5 14.5H13.5V11.5H10.5V14.5ZM6.5 4.5H9.5V1.5H6.5V4.5Z" fill="#000001"/>
</g>
</svg>
