<svg width="16" height="16" viewBox="0 0 16 16" fill="none" xmlns="http://www.w3.org/2000/svg">
<g id="size=16">
<path id="Path" d="M3.72048 3.97119C4.01317 3.67963 4.48837 3.67946 4.78096 3.97119C5.07099 4.26392 5.07195 4.73955 4.78096 5.03168L1.81141 8.00122L4.78096 10.9708C5.07099 11.2635 5.07195 11.7391 4.78096 12.0312C4.48883 12.3222 4.01321 12.3213 3.72048 12.0312L0.22069 8.53146C-0.0710431 8.23887 -0.0708754 7.76367 0.22069 7.47098L3.72048 3.97119ZM11.22 3.97119C11.5127 3.67963 11.9879 3.67946 12.2805 3.97119L15.7803 7.47098C15.9192 7.61123 15.9998 7.80374 16 8.00122C15.9994 8.19877 15.9197 8.39148 15.7803 8.53146L12.2805 12.0312C11.9884 12.3222 11.5127 12.3213 11.22 12.0312C10.9283 11.7387 10.9285 11.2635 11.22 10.9708L14.1896 8.00122L11.22 5.03168C10.9283 4.73908 10.9285 4.26389 11.22 3.97119ZM5.01044 7.00128C5.56101 7.00299 6.01 7.45034 6.01038 8.00122C6.00908 8.55132 5.56044 8.99946 5.01044 9.00116H5.00067C4.44994 9.00031 4.00203 8.55185 4.00073 8.00122C4.00111 7.44981 4.44937 7.00213 5.00067 7.00128H5.01044ZM8.01025 7.00128C8.56083 7.00298 9.00982 7.45034 9.01019 8.00122C9.00889 8.55132 8.56026 8.99946 8.01025 9.00116H8.00049C7.44976 9.00031 7.00185 8.55185 7.00055 8.00122C7.00092 7.44981 7.44918 7.00213 8.00049 7.00128H8.01025ZM11.0101 7.00128C11.5606 7.00298 12.0096 7.45034 12.01 8.00122C12.0087 8.55132 11.5601 8.99946 11.0101 9.00116H11.0003C10.4496 9.00031 10.0017 8.55185 10.0004 8.00122C10.0007 7.44981 10.449 7.00212 11.0003 7.00128H11.0101Z" fill="#000001"/>
</g>
</svg>
