<svg width="16" height="16" viewBox="0 0 16 16" fill="none" xmlns="http://www.w3.org/2000/svg">
<g id="size=16">
<path id="Path" fill-rule="evenodd" clip-rule="evenodd" d="M3.72051 3.97143C4.01324 3.67983 4.48841 3.67959 4.78099 3.97143C5.07102 4.26416 5.07198 4.73978 4.78099 5.03191L1.81144 8.00146L4.78099 10.971C5.07102 11.2637 5.07199 11.7394 4.78099 12.0315C4.48886 12.3224 4.01322 12.3215 3.72051 12.0315L0.22072 8.5317C-0.0711006 8.23913 -0.0708381 7.76395 0.22072 7.47121L3.72051 3.97143ZM11.22 3.97143C11.5128 3.67983 11.9879 3.67959 12.2805 3.97143L15.7803 7.47121C15.9193 7.61146 15.9998 7.80398 16 8.00146C15.9994 8.19896 15.9197 8.39175 15.7803 8.5317L12.2805 12.0315C11.9884 12.3224 11.5128 12.3215 11.22 12.0315C10.9282 11.7389 10.9285 11.2637 11.22 10.971L14.1896 8.00146L11.22 5.03191C10.9282 4.73934 10.9285 4.26416 11.22 3.97143ZM5.01047 7.00152C5.56104 7.00322 6.01003 7.45057 6.01041 8.00146C6.00903 8.55149 5.56042 8.99969 5.01047 9.00139H5.0007C4.44999 9.00058 4.00214 8.55204 4.00076 8.00146C4.00114 7.45002 4.44937 7.00233 5.0007 7.00152H5.01047ZM8.01028 7.00152C8.56086 7.00322 9.00985 7.45057 9.01022 8.00146C9.00885 8.55149 8.56024 8.99969 8.01028 9.00139H8.00052C7.44981 9.00058 7.00195 8.55204 7.00058 8.00146C7.00095 7.45002 7.44919 7.00233 8.00052 7.00152H8.01028ZM11.0101 7.00152C11.5607 7.00322 12.0097 7.45057 12.01 8.00146C12.0087 8.55149 11.5601 8.99969 11.0101 9.00139H11.0003C10.4496 9.00058 10.0018 8.55204 10.0004 8.00146C10.0008 7.45002 10.449 7.00233 11.0003 7.00152H11.0101Z" fill="#000001"/>
</g>
</svg>
