<svg width="24" height="24" viewBox="0 0 24 24" fill="none" xmlns="http://www.w3.org/2000/svg">
<g id="size=24">
<path id="Path" d="M13.75 2.5C14.7165 2.5 15.5 3.2835 15.5 4.25V7.75C15.5 8.7165 14.7165 9.5 13.75 9.5H12.5V11H21C21.4142 11 21.75 11.3358 21.75 11.75C21.75 12.1642 21.4142 12.5 21 12.5H17.5V14.5H18.75C19.7165 14.5 20.5 15.2835 20.5 16.25V19.75C20.5 20.7165 19.7165 21.5 18.75 21.5H15.25C14.2835 21.5 13.5 20.7165 13.5 19.75V16.25C13.5 15.2835 14.2835 14.5 15.25 14.5H16V12.5H8V14.5H8.75C9.7165 14.5 10.5 15.2835 10.5 16.25V19.75C10.5 20.7165 9.7165 21.5 8.75 21.5H5.25C4.2835 21.5 3.5 20.7165 3.5 19.75V16.25C3.5 15.2835 4.2835 14.5 5.25 14.5H6.5V12.5H3C2.58579 12.5 2.25 12.1642 2.25 11.75C2.25 11.3358 2.58579 11 3 11H11V9.5H10.25C9.2835 9.5 8.5 8.7165 8.5 7.75V4.25C8.5 3.2835 9.2835 2.5 10.25 2.5H13.75ZM5.25 16C5.11193 16 5 16.1119 5 16.25V19.75C5 19.8881 5.11193 20 5.25 20H8.75C8.88807 20 9 19.8881 9 19.75V16.25C9 16.1119 8.88807 16 8.75 16H5.25ZM15.25 16C15.1119 16 15 16.1119 15 16.25V19.75C15 19.8881 15.1119 20 15.25 20H18.75C18.8881 20 19 19.8881 19 19.75V16.25C19 16.1119 18.8881 16 18.75 16H15.25ZM10.25 4C10.1119 4 10 4.11193 10 4.25V7.75C10 7.88807 10.1119 8 10.25 8H13.75C13.8881 8 14 7.88807 14 7.75V4.25C14 4.11193 13.8881 4 13.75 4H10.25Z" fill="#000001"/>
</g>
</svg>
