<svg width="24" height="24" viewBox="0 0 24 24" fill="none" xmlns="http://www.w3.org/2000/svg">
<g id="size=24">
<path id="Path" fill-rule="evenodd" clip-rule="evenodd" d="M6.73242 6.20671C7.03204 5.92113 7.50709 5.93269 7.79297 6.2321C8.07821 6.53171 8.06681 7.00588 7.76758 7.29167L2.83594 11.9997L7.76758 16.7067C8.06677 16.9926 8.07847 17.4677 7.79297 17.7673C7.50703 18.0665 7.03196 18.0773 6.73242 17.7917L1.23242 12.5417C1.08442 12.4003 1.00019 12.2043 1 11.9997C1.00004 11.7949 1.08438 11.5982 1.23242 11.4567L6.73242 6.20671ZM16.207 6.2321C16.4929 5.93269 16.968 5.92113 17.2676 6.20671L22.7676 11.4567C22.9156 11.5982 23 11.7949 23 11.9997C22.9998 12.2043 22.9156 12.4003 22.7676 12.5417L17.2676 17.7917C16.968 18.0773 16.493 18.0665 16.207 17.7673C15.9215 17.4677 15.9332 16.9926 16.2324 16.7067L21.1641 11.9997L16.2324 7.29167C15.9332 7.00588 15.9218 6.53171 16.207 6.2321ZM8.00977 10.9997C8.562 10.9997 9.00968 11.4475 9.00977 11.9997C9.0094 12.5517 8.56182 12.9997 8.00977 12.9997H8C7.44794 12.9997 7.00037 12.5517 7 11.9997C7.00008 11.4475 7.44777 10.9997 8 10.9997H8.00977ZM12.0098 10.9997C12.562 10.9997 13.0097 11.4475 13.0098 11.9997C13.0094 12.5517 12.5618 12.9997 12.0098 12.9997H12C11.4479 12.9997 11.0004 12.5517 11 11.9997C11.0001 11.4475 11.4478 10.9997 12 10.9997H12.0098ZM16.0098 10.9997C16.562 10.9997 17.0097 11.4475 17.0098 11.9997C17.0094 12.5517 16.5618 12.9997 16.0098 12.9997H16C15.4479 12.9997 15.0004 12.5517 15 11.9997C15.0001 11.4475 15.4478 10.9997 16 10.9997H16.0098Z" fill="#000001"/>
</g>
</svg>
