<svg width="24" height="24" viewBox="0 0 24 24" fill="none" xmlns="http://www.w3.org/2000/svg">
<g id="size=24">
<path id="Path" fill-rule="evenodd" clip-rule="evenodd" d="M6.73242 6.20703C7.03206 5.92135 7.50707 5.93291 7.79297 6.23242C8.07821 6.53206 8.06687 7.00622 7.76758 7.29199L2.83594 12L7.76758 16.707C8.06677 16.993 8.07854 17.468 7.79297 17.7676C7.50703 18.0667 7.03195 18.0776 6.73242 17.792L1.23242 12.542C1.08439 12.4006 1.0002 12.2047 1 12C1 11.7952 1.08437 11.5985 1.23242 11.457L6.73242 6.20703ZM16.207 6.23242C16.4929 5.93291 16.9679 5.92135 17.2676 6.20703L22.7676 11.457C22.9156 11.5985 23 11.7952 23 12C22.9998 12.2047 22.9156 12.4006 22.7676 12.542L17.2676 17.792C16.9681 18.0776 16.493 18.0667 16.207 17.7676C15.9215 17.468 15.9332 16.993 16.2324 16.707L21.1641 12L16.2324 7.29199C15.9331 7.00622 15.9218 6.53206 16.207 6.23242ZM8.00977 11C8.56205 11 9.00977 11.4477 9.00977 12C9.00937 12.5519 8.5618 13 8.00977 13H8C7.44796 13 7.0004 12.5519 7 12C7 11.4477 7.44772 11 8 11H8.00977ZM12.0098 11C12.562 11 13.0098 11.4477 13.0098 12C13.0094 12.5519 12.5618 13 12.0098 13H12C11.448 13 11.0004 12.5519 11 12C11 11.4477 11.4477 11 12 11H12.0098ZM16.0098 11C16.562 11 17.0098 11.4477 17.0098 12C17.0094 12.5519 16.5618 13 16.0098 13H16C15.448 13 15.0004 12.5519 15 12C15 11.4477 15.4477 11 16 11H16.0098Z" fill="#000001"/>
</g>
</svg>
