<svg width="24" height="24" viewBox="0 0 24 24" fill="none" xmlns="http://www.w3.org/2000/svg">
<g id="size=24">
<path id="Path" fill-rule="evenodd" clip-rule="evenodd" d="M10.25 2.5C9.2835 2.5 8.5 3.2835 8.5 4.25V7.75C8.5 8.7165 9.2835 9.5 10.25 9.5H11V11H3C2.58579 11 2.25 11.3358 2.25 11.75C2.25 12.1642 2.58579 12.5 3 12.5H6.5V14.5H5.25C4.2835 14.5 3.5 15.2835 3.5 16.25V19.75C3.5 20.7165 4.2835 21.5 5.25 21.5H8.75C9.7165 21.5 10.5 20.7165 10.5 19.75V16.25C10.5 15.2835 9.7165 14.5 8.75 14.5H8V12.5H16V14.5H15.25C14.2835 14.5 13.5 15.2835 13.5 16.25V19.75C13.5 20.7165 14.2835 21.5 15.25 21.5H18.75C19.7165 21.5 20.5 20.7165 20.5 19.75V16.25C20.5 15.2835 19.7165 14.5 18.75 14.5H17.5V12.5H21C21.4142 12.5 21.75 12.1642 21.75 11.75C21.75 11.3358 21.4142 11 21 11H12.5V9.5H13.75C14.7165 9.5 15.5 8.7165 15.5 7.75V4.25C15.5 3.2835 14.7165 2.5 13.75 2.5H10.25ZM10 4.25C10 4.11193 10.1119 4 10.25 4H13.75C13.8881 4 14 4.11193 14 4.25V7.75C14 7.88807 13.8881 8 13.75 8H10.25C10.1119 8 10 7.88807 10 7.75V4.25ZM5 16.25C5 16.1119 5.11193 16 5.25 16H8.75C8.88807 16 9 16.1119 9 16.25V19.75C9 19.8881 8.88807 20 8.75 20H5.25C5.11193 20 5 19.8881 5 19.75V16.25ZM15.25 16C15.1119 16 15 16.1119 15 16.25V19.75C15 19.8881 15.1119 20 15.25 20H18.75C18.8881 20 19 19.8881 19 19.75V16.25C19 16.1119 18.8881 16 18.75 16H15.25Z" fill="#000001"/>
</g>
</svg>
