<svg width="16" height="16" viewBox="0 0 16 16" fill="none" xmlns="http://www.w3.org/2000/svg">
<g id="size=16">
<path id="Path" d="M13.25 0C14.4926 0 15.5 1.00736 15.5 2.25V13.75C15.5 14.9926 14.4926 16 13.25 16H2.75C1.50737 16 0.5 14.9926 0.5 13.75V5.75C0.5 4.50736 1.50736 3.5 2.75 3.5H3.5V2.25C3.5 1.00737 4.50737 1.67507e-05 5.75 0H13.25ZM2.75 5C2.33579 5 2 5.33579 2 5.75V13.75C2 14.1642 2.3358 14.5 2.75 14.5C3.16421 14.5 3.5 14.1642 3.5 13.75V5H2.75ZM5.75 1.5C5.3358 1.50002 5 1.8358 5 2.25V13.75C5 14.013 4.95498 14.2654 4.87207 14.5H13.25C13.6642 14.5 14 14.1642 14 13.75V2.25C14 1.83579 13.6642 1.5 13.25 1.5H5.75ZM9.25 12C9.66421 12 10 12.3358 10 12.75C10 13.1642 9.66421 13.5 9.25 13.5H6.75C6.3358 13.5 6 13.1642 6 12.75C6 12.3358 6.3358 12 6.75 12H9.25ZM11.25 9.5C11.6642 9.5 12 9.83579 12 10.25C12 10.6642 11.6642 11 11.25 11H6.75C6.3358 11 6 10.6642 6 10.25C6 9.8358 6.3358 9.50002 6.75 9.5H11.25ZM11.75 2.5C12.4404 2.5 13 3.05964 13 3.75V7.25C13 7.94036 12.4404 8.5 11.75 8.5H7.25C6.55966 8.49998 6 7.94035 6 7.25V3.75C6 3.05965 6.55966 2.50002 7.25 2.5H11.75ZM7.5 7H11.5V4H7.5V7Z" fill="#000001"/>
</g>
</svg>
