<svg width="24" height="24" viewBox="0 0 24 24" fill="none" xmlns="http://www.w3.org/2000/svg">
<g id="size=24">
<path id="Path" fill-rule="evenodd" clip-rule="evenodd" d="M7 9.25C7 7.73122 8.23122 6.5 9.75 6.5H14.75C16.2688 6.5 17.5 7.73122 17.5 9.25V11H22.25C22.6642 11 23 11.3358 23 11.75C23 12.1642 22.6642 12.5 22.25 12.5H17.5V14.25C17.5 15.7688 16.2688 17 14.75 17H9.75C8.23122 17 7 15.7688 7 14.25V12.5L2.25 12.5C1.83579 12.5 1.5 12.1642 1.5 11.75C1.5 11.3358 1.83579 11 2.25 11L7 11V9.25ZM16 9.25C16 8.55964 15.4404 8 14.75 8H9.75C9.05964 8 8.5 8.55964 8.5 9.25V14.25C8.5 14.9404 9.05964 15.5 9.75 15.5H14.75C15.4404 15.5 16 14.9404 16 14.25V9.25Z" fill="#000001"/>
</g>
</svg>
