<svg width="16" height="16" viewBox="0 0 16 16" fill="none" xmlns="http://www.w3.org/2000/svg">
<g id="size=16">
<path id="Path" fill-rule="evenodd" clip-rule="evenodd" d="M4 6.25C4 5.00736 5.00736 4 6.25 4H9.25C10.4926 4 11.5 5.00736 11.5 6.25V7H14.75C15.1642 7 15.5 7.33579 15.5 7.75C15.5 8.16421 15.1642 8.5 14.75 8.5H11.5V9.25C11.5 10.4926 10.4926 11.5 9.25 11.5H6.25C5.00736 11.5 4 10.4926 4 9.25V8.5H0.75C0.335786 8.5 0 8.16421 0 7.75C0 7.33579 0.335786 7 0.75 7H4V6.25ZM10 6.25C10 5.83579 9.66421 5.5 9.25 5.5H6.25C5.83579 5.5 5.5 5.83579 5.5 6.25V9.25C5.5 9.66421 5.83579 10 6.25 10H9.25C9.66421 10 10 9.66421 10 9.25V6.25Z" fill="#000001"/>
</g>
</svg>
