<svg width="16" height="16" viewBox="0 0 16 16" fill="none" xmlns="http://www.w3.org/2000/svg">
<g id="size=16">
<g id="Path">
<path d="M8.78389 9.16466L9.94928 8.49828L9.95277 5.16983L8.55918 5.99655V7.62328L7.10201 6.86293L6.05159 7.49914V10.8302L7.3755 9.99914V8.40603L8.78389 9.16466Z" fill="#000001"/>
<path fill-rule="evenodd" clip-rule="evenodd" d="M2 0C0.895431 0 0 0.895431 0 2V14C0 15.1046 0.895431 16 2 16H14C15.1046 16 16 15.1046 16 14V2C16 0.895431 15.1046 0 14 0H2ZM3.625 5.5L8 3L12.375 5.5V10.5L8 13L3.625 10.5V5.5Z" fill="#000001"/>
</g>
</g>
</svg>
