<svg width="16" height="16" viewBox="0 0 16 16" fill="none" xmlns="http://www.w3.org/2000/svg">
<g id="size=16">
<path id="Path" d="M10.4854 0C11.0821 0 11.6552 0.237229 12.0771 0.65918L15.3408 3.92285C15.7628 4.34481 16 4.91792 16 5.51465V10.4854C16 11.0821 15.7628 11.6552 15.3408 12.0771L12.0771 15.3408C11.6552 15.7628 11.0821 16 10.4854 16H5.51465C4.91792 16 4.34481 15.7628 3.92285 15.3408L0.65918 12.0771C0.23723 11.6552 0 11.0821 0 10.4854V5.51465C2.87494e-06 4.91792 0.237225 4.34481 0.65918 3.92285L3.92285 0.65918C4.34481 0.237225 4.91792 2.87495e-06 5.51465 0H10.4854ZM5.51465 1.5C5.31574 1.5 5.12405 1.57908 4.9834 1.71973L1.71973 4.9834C1.57908 5.12405 1.5 5.31574 1.5 5.51465V10.4854C1.5 10.6843 1.57908 10.8759 1.71973 11.0166L4.9834 14.2803C5.12405 14.4209 5.31574 14.5 5.51465 14.5H10.4854C10.6843 14.5 10.8759 14.4209 11.0166 14.2803L14.2803 11.0166C14.4209 10.8759 14.5 10.6843 14.5 10.4854V5.51465C14.5 5.31574 14.4209 5.12405 14.2803 4.9834L11.0166 1.71973C10.8759 1.57908 10.6843 1.5 10.4854 1.5H5.51465Z" fill="#000001"/>
</g>
</svg>
