<svg width="16" height="16" viewBox="0 0 16 16" fill="none" xmlns="http://www.w3.org/2000/svg">
<g id="size=16">
<path id="Vector" d="M8.70841 1.09909L8.41796 4.6451C8.28336 4.63094 8.14877 4.62386 8.00708 4.62386C7.82998 4.62386 7.65996 4.63802 7.48994 4.65925L7.32701 2.93933C7.31993 2.88271 7.36243 2.84024 7.4191 2.84024H7.70955L7.56787 1.09909C7.56079 1.04247 7.60329 1 7.65996 1H8.61632C8.67299 1 8.7155 1.04954 8.70841 1.09909ZM6.29981 1.27604C6.28565 1.22649 6.22897 1.1911 6.17938 1.21234L5.28679 1.53792C5.2372 1.55915 5.21594 1.61577 5.2372 1.66532L5.96686 3.25076L5.69058 3.34985C5.64099 3.37108 5.61974 3.42771 5.64099 3.47725L6.38482 5.03438C6.65402 4.88574 6.94447 4.7725 7.25617 4.70172L6.29981 1.27604ZM4.10374 2.25986L6.16522 5.16178C5.9031 5.33165 5.66933 5.53691 5.46389 5.77048L4.23125 4.56016C4.19583 4.52477 4.19583 4.46107 4.23834 4.42568L4.46503 4.24166L3.23948 3.00303C3.20406 2.96764 3.20406 2.90394 3.24656 2.86855L3.97622 2.25986C4.01165 2.21031 4.06832 2.21739 4.10374 2.25986ZM2.37522 3.93731C2.33271 3.909 2.26895 3.92315 2.24062 3.96562L1.76598 4.78665C1.73765 4.8362 1.7589 4.89282 1.8014 4.91405L3.38116 5.65723L3.23239 5.91203C3.20406 5.96158 3.22531 6.0182 3.2749 6.03943L4.85465 6.76845C4.968 6.47826 5.11677 6.20223 5.30804 5.96158L2.37522 3.93731ZM1.21342 6.18099C1.22051 6.12437 1.27718 6.09606 1.32677 6.11021L4.76965 7.0091C4.67755 7.29929 4.62796 7.61072 4.62088 7.92922L2.89944 7.78766C2.84277 7.78059 2.80735 7.73104 2.81443 7.6815L2.86402 7.3913L1.12841 7.22144C1.07174 7.21436 1.03632 7.16481 1.0434 7.11527L1.21342 6.18099ZM1.08591 8.50961C1.02923 8.51668 0.993814 8.56623 1.0009 8.61577L1.17092 9.55005C1.178 9.60667 1.23467 9.63498 1.28426 9.62083L2.97028 9.182L3.01987 9.47219C3.02695 9.52882 3.08363 9.55713 3.13322 9.54297L4.79798 9.08291C4.6988 8.79272 4.63505 8.48837 4.62088 8.16987L1.08591 8.50961ZM1.63847 10.9727C1.61013 10.9232 1.63138 10.8665 1.67389 10.8453L4.89008 9.32356C5.01051 9.61375 5.17344 9.88271 5.37179 10.1234L3.96206 11.1284C3.91955 11.1567 3.85579 11.1496 3.82746 11.1001L3.67869 10.8453L2.24062 11.8362C2.19811 11.8645 2.13436 11.8504 2.10602 11.8079L1.63847 10.9727ZM5.53473 10.3003L3.03404 12.8342C2.99862 12.8696 2.99862 12.9333 3.04112 12.9687L3.77079 13.5774C3.81329 13.6127 3.86996 13.6057 3.90538 13.5632L4.91841 12.1405L5.1451 12.3316C5.18761 12.367 5.25136 12.36 5.2797 12.3104L6.25731 10.8878C5.9952 10.725 5.74725 10.5268 5.53473 10.3003ZM5.03884 14.3701C4.98925 14.3488 4.968 14.2922 4.98925 14.2427L6.46983 11.0081C6.73903 11.1496 7.03656 11.2558 7.34826 11.3124L6.90905 12.9828C6.89488 13.0324 6.83821 13.0677 6.78862 13.0465L6.51234 12.9474L6.05187 14.632C6.0377 14.6815 5.98103 14.7169 5.93144 14.6957L5.03884 14.3701ZM7.58912 11.3549L7.29867 14.9009C7.29159 14.9575 7.33409 15 7.39077 15H8.34712C8.40379 15 8.4463 14.9505 8.43922 14.9009L8.29753 13.1598H8.58798C8.64465 13.1598 8.68716 13.1102 8.68007 13.0607L8.51714 11.3407C8.34712 11.3691 8.1771 11.3761 8 11.3761C7.8654 11.3832 7.7308 11.3691 7.58912 11.3549ZM11.0249 1.75025C11.0462 1.70071 11.0249 1.64408 10.9753 1.62285L10.0827 1.29727C10.0331 1.27604 9.97647 1.31143 9.9623 1.36097L9.50183 3.0455L9.22555 2.94641C9.17596 2.92518 9.11929 2.96057 9.10512 3.01011L8.66591 4.68049C8.97761 4.74419 9.26806 4.85035 9.54434 4.98483L11.0249 1.75025ZM12.9801 3.16582L10.4794 5.6997C10.2669 5.47321 10.0261 5.27503 9.75686 5.11224L10.7345 3.68251C10.7628 3.64004 10.8266 3.62589 10.8691 3.66127L11.0958 3.85238L12.1088 2.42973C12.1371 2.38726 12.2009 2.38018 12.2434 2.41557L12.973 3.02427C13.0156 3.05966 13.0155 3.12336 12.9801 3.16582ZM14.3332 5.1547C14.3828 5.13347 14.397 5.06977 14.3686 5.0273L13.8869 4.20627C13.8586 4.15672 13.7948 4.14965 13.7523 4.17796L12.3142 5.16886L12.1655 4.91405C12.1371 4.86451 12.0734 4.85035 12.0309 4.88574L10.6211 5.8908C10.8124 6.13145 10.9753 6.4004 11.1028 6.6906L14.3332 5.1547ZM14.8362 6.44287L14.9991 7.37715C15.0062 7.43377 14.9708 7.47624 14.9141 7.48332L11.365 7.81598C11.3508 7.49747 11.287 7.19312 11.1878 6.90293L12.8526 6.44287C12.9022 6.42872 12.9589 6.46411 12.966 6.51365L13.0155 6.80384L14.7016 6.36502C14.7512 6.35086 14.8078 6.38625 14.8149 6.43579L14.8362 6.44287ZM14.6803 9.88979C14.7299 9.90394 14.7866 9.86856 14.7937 9.81901L14.9566 8.88473C14.9637 8.82811 14.9283 8.78564 14.8716 8.77856L13.1289 8.61577L13.1785 8.32558C13.1856 8.26896 13.1501 8.22649 13.0935 8.21941L11.372 8.07786C11.365 8.39636 11.3154 8.70071 11.2233 8.99798L14.6803 9.88979ZM13.7594 12.0273C13.731 12.0768 13.6673 12.0839 13.6248 12.0556L10.692 10.0313C10.8761 9.78362 11.032 9.51466 11.1453 9.22447L12.718 9.94641C12.7676 9.96764 12.7889 10.0313 12.7605 10.0738L12.6118 10.3286L14.1915 11.0718C14.2411 11.093 14.2553 11.1567 14.2269 11.1992L13.7594 12.0273ZM9.84187 10.8311L11.9033 13.7331C11.9317 13.7755 11.9954 13.7826 12.0379 13.7472L12.7676 13.1385C12.8101 13.1031 12.8101 13.0394 12.7747 13.004L11.5491 11.7654L11.7758 11.5814C11.8183 11.546 11.8183 11.4823 11.7829 11.4469L10.5503 10.2366C10.3307 10.456 10.0969 10.6613 9.84187 10.8311ZM9.82062 14.7806C9.77103 14.8018 9.71435 14.7664 9.70019 14.7169L8.758 11.2841C9.06262 11.2133 9.36015 11.1001 9.62934 10.9515L10.3732 12.5086C10.3944 12.5581 10.3732 12.6148 10.3236 12.636L10.0473 12.7351L10.777 14.3205C10.7982 14.3701 10.777 14.4267 10.7274 14.4479L9.82062 14.7806Z" fill="#191919"/>
</g>
</svg>
