<svg width="24" height="24" viewBox="0 0 24 24" fill="none" xmlns="http://www.w3.org/2000/svg">
<g id="size=24">
<path id="Vector" d="M13.1132 1.15571L12.6568 6.72801C12.4453 6.70576 12.2338 6.69464 12.0111 6.69464C11.7328 6.69464 11.4657 6.71688 11.1985 6.75025L10.9424 4.04752C10.9313 3.95854 10.9981 3.89181 11.0872 3.89181H11.5436L11.3209 1.15571C11.3098 1.06673 11.3766 1 11.4657 1H12.9685C13.0576 1 13.1243 1.07786 13.1132 1.15571ZM9.32828 1.43377C9.30601 1.35591 9.21696 1.3003 9.13903 1.33367L7.73638 1.8453C7.65845 1.87866 7.62506 1.96764 7.65845 2.0455L8.80507 4.5369L8.37091 4.69262C8.29299 4.72599 8.25959 4.81496 8.29299 4.89282L9.46186 7.33974C9.88489 7.10617 10.3413 6.92821 10.8311 6.81699L9.32828 1.43377ZM5.8773 2.97978L9.11677 7.53994C8.70488 7.80687 8.33751 8.12942 8.01468 8.49646L6.07768 6.59454C6.02202 6.53893 6.02202 6.43883 6.08882 6.38321L6.44504 6.09403L4.51918 4.14762C4.46352 4.09201 4.46352 3.99191 4.53031 3.9363L5.67692 2.97978C5.73259 2.90192 5.82164 2.91304 5.8773 2.97978ZM3.16105 5.61577C3.09426 5.57128 2.99407 5.59353 2.94954 5.66026L2.20369 6.95046C2.15916 7.02831 2.19255 7.11729 2.25935 7.15066L4.74182 8.3185L4.50805 8.71891C4.46352 8.79676 4.49691 8.88574 4.57484 8.91911L7.05731 10.0647C7.23543 9.6087 7.4692 9.17493 7.76977 8.79677L3.16105 5.61577ZM1.33538 9.14156C1.34651 9.05258 1.43557 9.00809 1.51349 9.03033L6.92373 10.4429C6.77901 10.8989 6.70108 11.3883 6.68995 11.8888L3.98483 11.6663C3.89578 11.6552 3.84012 11.5774 3.85125 11.4995L3.92917 11.0435L1.20179 10.7765C1.11273 10.7654 1.05707 10.6876 1.0682 10.6097L1.33538 9.14156ZM1.135 12.8008C1.04594 12.8119 0.990279 12.8898 1.00141 12.9676L1.26858 14.4358C1.27972 14.5248 1.36877 14.5693 1.4467 14.547L4.09616 13.8574L4.17408 14.3134C4.18521 14.4024 4.27427 14.4469 4.3522 14.4247L6.96826 13.7017C6.81241 13.2457 6.71222 12.7674 6.68995 12.2669L1.135 12.8008ZM2.00331 16.6714C1.95878 16.5935 1.99217 16.5046 2.05897 16.4712L7.11298 14.0799C7.30222 14.5359 7.55826 14.9585 7.86996 15.3367L5.65466 16.9161C5.58787 16.9606 5.48768 16.9494 5.44315 16.8716L5.20937 16.4712L2.94954 18.0283C2.88275 18.0728 2.78256 18.0506 2.73803 17.9838L2.00331 16.6714ZM8.126 15.6148L4.19635 19.5966C4.14068 19.6522 4.14069 19.7523 4.20748 19.8079L5.35409 20.7644C5.42088 20.82 5.50994 20.8089 5.5656 20.7422L7.1575 18.5066L7.51373 18.8069C7.58053 18.8625 7.68072 18.8514 7.72524 18.7735L9.26149 16.5379C8.8496 16.2821 8.45997 15.9707 8.126 15.6148ZM7.34675 22.0101C7.26883 21.9767 7.23543 21.8878 7.26883 21.8099L9.59545 16.727C10.0185 16.9494 10.486 17.1163 10.9758 17.2053L10.2856 19.8301C10.2634 19.908 10.1743 19.9636 10.0964 19.9302L9.66224 19.7745L8.93865 22.4216C8.91639 22.4995 8.82733 22.5551 8.7494 22.5217L7.34675 22.0101ZM11.3543 17.272L10.8979 22.8443C10.8868 22.9333 10.9536 23 11.0426 23H12.5455C12.6345 23 12.7013 22.9221 12.6902 22.8443L12.4676 20.1082H12.924C13.013 20.1082 13.0798 20.0303 13.0687 19.9525L12.8126 17.2497C12.5455 17.2942 12.2783 17.3054 12 17.3054C11.7885 17.3165 11.577 17.2942 11.3543 17.272ZM16.7534 2.17897C16.7868 2.10111 16.7534 2.01213 16.6755 1.97877L15.2729 1.46714C15.1949 1.43377 15.1059 1.48938 15.0836 1.56724L14.36 4.21436L13.9259 4.05865C13.8479 4.02528 13.7589 4.08089 13.7366 4.15875L13.0464 6.78362C13.5362 6.88372 13.9927 7.05056 14.4268 7.26188L16.7534 2.17897ZM19.8259 4.40344L15.8963 8.38524C15.5623 8.02932 15.1838 7.7179 14.7608 7.46208L16.297 5.21537C16.3415 5.14863 16.4417 5.12639 16.5085 5.182L16.8648 5.4823L18.4567 3.24671C18.5012 3.17998 18.6014 3.16886 18.6682 3.22447L19.8148 4.18099C19.8816 4.2366 19.8816 4.3367 19.8259 4.40344ZM21.9522 7.52882C22.0301 7.49545 22.0524 7.39535 22.0078 7.32861L21.2508 6.03842C21.2063 5.96057 21.1061 5.94944 21.0393 5.99393L18.7795 7.55106L18.5457 7.15066C18.5012 7.0728 18.401 7.05056 18.3342 7.10617L16.1189 8.68554C16.4195 9.0637 16.6755 9.48635 16.8759 9.94237L21.9522 7.52882ZM22.7425 9.55308L22.9986 11.0212C23.0097 11.1102 22.9541 11.1769 22.865 11.1881L17.2878 11.7108C17.2655 11.2103 17.1653 10.7321 17.0095 10.276L19.6255 9.55308C19.7035 9.53084 19.7925 9.58645 19.8037 9.66431L19.8816 10.1203L22.531 9.43074C22.609 9.40849 22.698 9.4641 22.7092 9.54196L22.7425 9.55308ZM22.4976 14.9697C22.5756 14.9919 22.6646 14.9363 22.6758 14.8584L22.9318 13.3903C22.9429 13.3013 22.8873 13.2346 22.7982 13.2235L20.0597 12.9676L20.1376 12.5116C20.1488 12.4227 20.0931 12.3559 20.004 12.3448L17.2989 12.1223C17.2878 12.6229 17.2099 13.1011 17.0651 13.5683L22.4976 14.9697ZM21.0505 18.3286C21.0059 18.4065 20.9057 18.4176 20.8389 18.3731L16.2302 15.1921C16.5197 14.8028 16.7646 14.3802 16.9427 13.9242L19.414 15.0586C19.492 15.092 19.5254 15.1921 19.4808 15.2588L19.247 15.6593L21.7295 16.8271C21.8074 16.8605 21.8297 16.9606 21.7852 17.0273L21.0505 18.3286ZM14.8944 16.4489L18.1338 21.0091C18.1784 21.0758 18.2785 21.087 18.3453 21.0313L19.492 20.0748C19.5587 20.0192 19.5587 19.9191 19.5031 19.8635L17.5772 17.9171L17.9334 17.6279C18.0002 17.5723 18.0002 17.4722 17.9446 17.4166L16.0076 15.5147C15.6625 15.8595 15.2951 16.182 14.8944 16.4489ZM14.861 22.6552C14.783 22.6886 14.694 22.633 14.6717 22.5551L13.1911 17.1608C13.6698 17.0495 14.1374 16.8716 14.5604 16.638L15.7293 19.0849C15.7627 19.1628 15.7293 19.2518 15.6514 19.2851L15.2172 19.4408L16.3638 21.9323C16.3972 22.0101 16.3638 22.0991 16.2859 22.1325L14.861 22.6552Z" fill="#000001"/>
</g>
</svg>
