<svg width="24" height="24" viewBox="0 0 24 24" fill="none" xmlns="http://www.w3.org/2000/svg">
<g id="size=24">
<g id="Group">
<path id="Vector" d="M5.57085 11.9165C5.90745 10.6423 6.50886 9.52563 7.29428 8.63324C7.02948 8.42327 5.97926 7.55475 5.9299 6.87233C5.8536 5.75566 6.90381 2 6.90381 2C6.90381 2 3.73072 6.10879 3.51081 7.76949C3.33577 9.07228 5.34195 11.6588 5.55289 11.9212V11.9165H5.57085ZM18.4831 11.8497V11.8592C18.4831 11.864 18.4876 11.8687 18.4876 11.8735C18.8377 11.4249 20.6554 9.01501 20.4893 7.76949C20.2694 6.10879 17.0963 2 17.0963 2C17.0963 2 18.1465 5.75566 18.0702 6.87233C18.0253 7.52611 17.0694 8.34215 16.7507 8.59984C17.5361 9.47791 18.142 10.585 18.4831 11.8497Z" fill="#BFBFBF"/>
<path id="Vector_2" d="M18.4833 11.8544V11.8448C18.1422 10.585 17.5363 9.47784 16.7509 8.595C15.5167 7.21109 13.8381 6.38074 12.0294 6.38074V10.8188H12.0339C12.4782 10.8236 12.8373 11.2101 12.8373 11.6826C12.8373 11.7398 12.8328 11.7923 12.8238 11.8448C12.752 12.2409 12.4289 12.5415 12.0339 12.5463H12.0205V14.1927L12.0115 21.9903H12.1686C12.1686 21.9903 13.874 19.3657 14.7941 18.6164C15.8712 17.7384 18.4833 16.6503 18.4833 16.6503V11.9069L18.4968 11.9021C18.4923 11.8925 18.4923 11.8782 18.4878 11.8687C18.4878 11.8639 18.4878 11.8591 18.4833 11.8544Z" fill="#566366"/>
<path id="Vector_3" d="M12.0202 14.1975V12.5512C11.6477 12.5464 11.3381 12.2792 11.2438 11.9165C11.2258 11.8449 11.2124 11.7685 11.2124 11.6874C11.2124 11.2102 11.5759 10.8237 12.0247 10.8237H12.0292V6.3999C10.2115 6.3999 8.5285 7.23502 7.29427 8.63325C6.50885 9.52087 5.90745 10.6423 5.57084 11.9165H5.55737V16.722C5.55737 16.722 8.16945 17.81 9.24659 18.6881C10.1397 19.4182 11.8632 22 11.8632 22H12.0247V21.9952H12.0158L12.0202 14.1975Z" fill="#7D9199"/>
</g>
</g>
</svg>
