<svg width="16" height="16" viewBox="0 0 16 16" fill="none" xmlns="http://www.w3.org/2000/svg">
<g id="size=16">
<g id="Group">
<path id="Vector" d="M3.46177 7.94153C3.69938 7.04962 4.1239 6.26795 4.67831 5.64328C4.4914 5.49629 3.75007 4.88833 3.71522 4.41064C3.66136 3.62896 4.40269 1 4.40269 1C4.40269 1 2.16286 3.87616 2.00763 5.03865C1.88407 5.9506 3.3002 7.76114 3.4491 7.94487V7.94153H3.46177ZM12.5763 7.89476V7.90144C12.5763 7.90478 12.5795 7.90812 12.5795 7.91147C12.8266 7.59746 14.1097 5.91051 13.9925 5.03865C13.8372 3.87616 11.5974 1 11.5974 1C11.5974 1 12.3387 3.62896 12.2849 4.41064C12.2532 4.86828 11.5784 5.43951 11.3534 5.61989C11.9079 6.23454 12.3355 7.00953 12.5763 7.89476Z" fill="#000001"/>
<path id="Vector_2" d="M12.5762 7.89819V7.89151C12.3354 7.00962 11.9077 6.23463 11.3533 5.61664C10.4821 4.64789 9.29722 4.06665 8.02048 4.06665V7.1733H8.02365C8.33729 7.17664 8.59074 7.44722 8.59074 7.77793C8.59074 7.81802 8.58757 7.85476 8.58123 7.89151C8.53054 8.16877 8.30244 8.37922 8.02365 8.38256H8.01415V9.53503L8.00781 14.9934H8.1187C8.1187 14.9934 9.32256 13.1561 9.97202 12.6317C10.7324 12.017 12.5762 11.2554 12.5762 11.2554V7.93493L12.5857 7.93159C12.5825 7.92491 12.5825 7.91489 12.5793 7.90821C12.5793 7.90487 12.5793 7.90153 12.5762 7.89819Z" fill="#000001"/>
<path id="Vector_3" d="M8.01417 9.53831V8.38584C7.75122 8.3825 7.53263 8.19543 7.4661 7.94156C7.45342 7.89145 7.44392 7.838 7.44392 7.78121C7.44392 7.44717 7.70053 7.17659 8.01734 7.17659H8.02051V4.07996C6.73744 4.07996 5.54941 4.66454 4.67819 5.6433C4.12378 6.26463 3.69926 7.04965 3.46165 7.94156H3.45215V11.3054C3.45215 11.3054 5.29597 12.0671 6.0563 12.6817C6.68675 13.1928 7.90329 15 7.90329 15H8.01734V14.9967H8.01101L8.01417 9.53831Z" fill="#000001"/>
</g>
</g>
</svg>
