<svg width="16" height="16" viewBox="0 0 16 16" fill="none" xmlns="http://www.w3.org/2000/svg">
<g id="size=16">
<path id="Path" d="M4.16201 10.5391V11.0507C4.16201 11.4477 4.47683 11.7693 4.86532 11.7693H11.1353C11.5237 11.7693 11.8386 11.4477 11.8386 11.0507V10.5391H15V13.671C15 14.402 14.4147 15 13.6993 15H2.30072C1.58532 15 1 14.402 1 13.671V10.5391H4.16201ZM4.16144 6.38466V9.61475H1V6.38466H4.16144ZM15 6.38466V9.61475H11.8386V6.38466H15ZM13.6993 1C14.4147 1 15 1.59803 15 2.32955V5.46085H11.8386V4.94926C11.8386 4.55234 11.5237 4.23068 11.1353 4.23068H4.86475C4.47626 4.23068 4.16144 4.55234 4.16144 4.94926V5.46085H1V2.32897C1 1.59803 1.58532 1 2.30072 1H13.6993Z" fill="#DA1A32"/>
</g>
</svg>
