<svg width="24" height="24" viewBox="0 0 24 24" fill="none" xmlns="http://www.w3.org/2000/svg">
<g id="size=24">
<g id="Path">
<path fill-rule="evenodd" clip-rule="evenodd" d="M11.1274 5.06883V18.9662V20.7093L13.9198 19.4007V3.71045L11.1274 5.06883Z" fill="#F8941C"/>
<path fill-rule="evenodd" clip-rule="evenodd" d="M5.54245 14.7566C5.54245 12.7864 7.69849 11.1272 10.6372 10.6207V8.85463C6.14222 9.39562 2.75 11.8322 2.75 14.7566C2.75 17.7864 6.3911 20.2924 11.1274 20.7093V18.9662C7.94082 18.5684 5.54245 16.8349 5.54245 14.7566ZM14.41 8.85533V10.6207C15.5792 10.8222 16.6252 11.2052 17.46 11.719L19.4345 10.5039C18.0889 9.67576 16.3521 9.08907 14.41 8.85533Z" fill="#BCBEC0"/>
<path fill-rule="evenodd" clip-rule="evenodd" d="M20.7982 9.6567L21.1836 13.6419L15.7835 12.472" fill="#BCBEC0"/>
</g>
</g>
</svg>
