<svg width="16" height="16" viewBox="0 0 16 16" fill="none" xmlns="http://www.w3.org/2000/svg">
<g id="size=16">
<g id="Path">
<path d="M7.43848 3.7096V12.608V13.7241L9.23542 12.8862V2.83984L7.43848 3.7096Z" fill="#000001"/>
<path d="M3.84455 9.91252C3.84455 8.65103 5.23196 7.58865 7.12302 7.26435V6.13354C4.2305 6.47994 2.04761 8.04003 2.04761 9.91252C2.04761 11.8525 4.39069 13.4571 7.43848 13.7241V12.608C5.38794 12.3533 3.84455 11.2433 3.84455 9.91252Z" fill="#000001"/>
<path d="M9.55081 6.13399V7.26435C10.2551 7.38511 10.8898 7.60769 11.4087 7.90545L10.4346 8.44958L13.9096 9.19867L13.6615 6.64697L12.7391 7.16228C11.8796 6.64642 10.779 6.28107 9.55081 6.13399Z" fill="#000001"/>
</g>
</g>
</svg>
