<svg width="16" height="16" viewBox="0 0 16 16" fill="none" xmlns="http://www.w3.org/2000/svg">
<g id="size=16">
<g id="Path">
<path d="M8.2 4.36574L10.4 3.05614C10.46 3.02521 10.53 3.00458 10.6 3.00458C10.82 3.00458 11 3.1902 11 3.41705V6.03625C11 6.19093 10.92 6.32498 10.8 6.39716L8.2 7.94393C8.08 8.01612 7.92 8.01612 7.8 7.94393L5.2 6.39716C5.08 6.31467 5 6.18062 5 6.03625V3.41705C5 3.34487 5.01 3.27269 5.05 3.21082C5.16 3.00458 5.41 2.94271 5.6 3.05614L7.8 4.36574C7.92 4.43792 8.08 4.43792 8.2 4.36574Z" fill="#000001"/>
<path d="M4.3 9.86574L2.1 8.55614C1.91 8.44271 1.66 8.50458 1.55 8.71082C1.51 8.77269 1.5 8.84487 1.5 8.91705V11.5363C1.5 11.6806 1.58 11.8147 1.7 11.8972L4.3 13.4439C4.42 13.5161 4.58 13.5161 4.7 13.4439L7.3 11.8972C7.42 11.825 7.5 11.6909 7.5 11.5363V8.91705C7.5 8.6902 7.32 8.50458 7.1 8.50458C7.03 8.50458 6.96 8.52521 6.9 8.55614L4.7 9.86574C4.58 9.93792 4.43 9.93792 4.3 9.86574Z" fill="#000001"/>
<path d="M11.3 9.86574L9.1 8.55614C8.91 8.44271 8.66 8.50458 8.55 8.71082C8.51 8.77269 8.5 8.84487 8.5 8.91705V11.5363C8.5 11.6806 8.58 11.8147 8.7 11.8972L11.3 13.4439C11.42 13.5161 11.58 13.5161 11.7 13.4439L14.3 11.8972C14.42 11.825 14.5 11.6909 14.5 11.5363V8.91705C14.5 8.6902 14.32 8.50458 14.1 8.50458C14.03 8.50458 13.96 8.52521 13.9 8.55614L11.7 9.86574C11.58 9.93792 11.43 9.93792 11.3 9.86574Z" fill="#000001"/>
</g>
</g>
</svg>
