<svg width="16" height="16" viewBox="0 0 16 16" fill="none" xmlns="http://www.w3.org/2000/svg">
<g id="size=16">
<path id="Path" fill-rule="evenodd" clip-rule="evenodd" d="M6.97949 0.678576C7.62076 0.352177 8.37924 0.352177 9.02051 0.678576L14.3174 3.37486C14.7362 3.58827 15 4.01909 15 4.48912V11.2059C14.9997 11.8639 14.6303 12.467 14.0439 12.7655L9.02051 15.3221C8.37933 15.6484 7.62067 15.6484 6.97949 15.3221L1.95605 12.7655C1.36967 12.467 1.00032 11.8639 1 11.2059V4.48912C1 4.01909 1.26385 3.58827 1.68262 3.37486L6.97949 0.678576ZM2.5 11.2059C2.50032 11.2996 2.55317 11.386 2.63672 11.4286L7.25 13.7772V7.96373L2.5 5.58873V11.2059ZM8.75 7.96373V13.7772L13.3633 11.4286C13.4468 11.386 13.4997 11.2996 13.5 11.2059V5.58873L8.75 7.96373ZM3.22363 4.2733L8 6.66197L9.63086 5.84557L4.84082 3.45006L3.22363 4.2733ZM8.33984 2.01549C8.12617 1.90679 7.87383 1.90679 7.66016 2.01549L6.50293 2.60436L11.3076 5.00768L12.7764 4.2733L8.33984 2.01549Z" fill="#000001"/>
</g>
</svg>
