<svg width="16" height="16" viewBox="0 0 16 16" fill="none" xmlns="http://www.w3.org/2000/svg">
<g id="size=16">
<path id="Path" fill-rule="evenodd" clip-rule="evenodd" d="M6.97949 0.677807C7.62069 0.351498 8.37931 0.351498 9.02051 0.677807L14.3174 3.3741C14.7362 3.58742 14.9999 4.01838 15 4.48835V11.2052C14.9998 11.8632 14.6304 12.4661 14.0439 12.7647L9.02051 15.3214C8.37923 15.6478 7.62077 15.6478 6.97949 15.3214L1.95605 12.7647C1.36961 12.4661 1.00015 11.8632 1 11.2052V4.48835C1.00012 4.01838 1.26384 3.58742 1.68262 3.3741L6.97949 0.677807ZM2.5 11.2052C2.50015 11.299 2.55311 11.3852 2.63672 11.4278L7.25 13.7764V7.96296L2.5 5.58796V11.2052ZM8.75 7.96296V13.7764L13.3633 11.4278C13.4469 11.3852 13.4998 11.299 13.5 11.2052V5.58796L8.75 7.96296ZM3.22363 4.27253L8 6.66121L9.63086 5.8448L4.84082 3.44929L3.22363 4.27253ZM8.33984 2.01472C8.12624 1.90611 7.87376 1.90611 7.66016 2.01472L6.50293 2.60359L11.3076 5.00691L12.7764 4.27253L8.33984 2.01472Z" fill="#000001"/>
</g>
</svg>
