<svg width="24" height="24" viewBox="0 0 24 24" fill="none" xmlns="http://www.w3.org/2000/svg">
<g id="size=24">
<path id="Path" fill-rule="evenodd" clip-rule="evenodd" d="M10.7939 0.75391C11.5549 0.38273 12.4451 0.38273 13.2061 0.75391L22.0176 5.05176C22.6188 5.3451 23 5.95602 23 6.625V16.5273C23 17.5592 22.4222 18.5041 21.5039 18.9746L13.2539 23.2002C12.4668 23.6034 11.5332 23.6034 10.7461 23.2002L2.49609 18.9746C1.57778 18.5041 1 17.5592 1 16.5273V6.625C1 5.95602 1.38119 5.3451 1.98242 5.05176L10.7939 0.75391ZM2.5 16.5273C2.5 16.9963 2.76247 17.4257 3.17969 17.6397L11.25 21.7734V11.4736L2.5 7.31739V16.5273ZM12.75 11.4736V21.7734L20.8203 17.6397C21.2375 17.4257 21.5 16.9963 21.5 16.5273V7.31739L12.75 11.4736ZM3.34277 6.05762L12 10.1699L15.417 8.54688L6.93457 4.30567L3.34277 6.05762ZM12.5479 2.10157C12.2021 1.93304 11.7979 1.93304 11.4521 2.10157L8.63184 3.47754L17.1367 7.7295L20.6572 6.05762L12.5479 2.10157Z" fill="#000001"/>
</g>
</svg>
