<svg width="24" height="24" viewBox="0 0 24 24" fill="none" xmlns="http://www.w3.org/2000/svg">
<g id="size=24">
<path id="Path" fill-rule="evenodd" clip-rule="evenodd" d="M10.7939 0.753765C11.5548 0.382616 12.4452 0.382615 13.2061 0.753765L22.0176 5.05162C22.6188 5.34494 23 5.95592 23 6.62486V16.5272C23 17.5591 22.4222 18.5039 21.5039 18.9745L13.2539 23.2001C12.4668 23.6032 11.5332 23.6032 10.7461 23.2001L2.49609 18.9745C1.57781 18.5039 1 17.5591 1 16.5272V6.62486C1.00005 5.95592 1.38123 5.34494 1.98242 5.05162L10.7939 0.753765ZM2.5 16.5272C2.5 16.9961 2.7625 17.4256 3.17969 17.6395L11.25 21.7733V11.4735L2.5 7.31724V16.5272ZM12.75 11.4735V21.7733L20.8203 17.6395C21.2375 17.4256 21.5 16.9961 21.5 16.5272V7.31724L12.75 11.4735ZM3.34277 6.05748L12 10.1698L15.417 8.54673L6.93457 4.30552L3.34277 6.05748ZM12.5479 2.10142C12.2022 1.93293 11.7978 1.93293 11.4521 2.10142L8.63184 3.4774L17.1367 7.72935L20.6572 6.05748L12.5479 2.10142Z" fill="#000001"/>
</g>
</svg>
