<svg width="24" height="24" viewBox="0 0 24 24" fill="none" xmlns="http://www.w3.org/2000/svg">
<g id="size=24">
<g id="Path">
<path d="M7 5.9556L12.3 8.95261V20L7 17.003V5.9556Z" fill="#02A8EF"/>
<path d="M9.16309 4L14.925 7.24743C16.0627 7.89268 16.9987 9.33157 17 10.4472V15.4104C17 16.5326 16.0668 16.9116 14.9263 16.2676L13.0829 15.2315V8.4677L9.16309 6.2524V4Z" fill="#02A8EF"/>
<path fill-rule="evenodd" clip-rule="evenodd" d="M0.217987 1.09202C0 1.51984 0 2.0799 0 3.2V20.8C0 21.9201 0 22.4802 0.217987 22.908C0.409734 23.2843 0.715695 23.5903 1.09202 23.782C1.51984 24 2.0799 24 3.2 24H20.8C21.9201 24 22.4802 24 22.908 23.782C23.2843 23.5903 23.5903 23.2843 23.782 22.908C24 22.4802 24 21.9201 24 20.8V3.2C24 2.0799 24 1.51984 23.782 1.09202C23.5903 0.715695 23.2843 0.409734 22.908 0.217987C22.4802 0 21.9201 0 20.8 0H3.2C2.0799 0 1.51984 0 1.09202 0.217987C0.715695 0.409734 0.409734 0.715695 0.217987 1.09202ZM20.8 1H3.2C2.62345 1 2.25117 1.00078 1.96784 1.02393C1.69617 1.04612 1.59545 1.0838 1.54601 1.10899C1.35785 1.20487 1.20487 1.35785 1.10899 1.54601C1.0838 1.59545 1.04612 1.69617 1.02393 1.96784C1.00078 2.25117 1 2.62345 1 3.2V20.8C1 21.3766 1.00078 21.7488 1.02393 22.0322C1.04612 22.3038 1.0838 22.4045 1.10899 22.454C1.20487 22.6422 1.35785 22.7951 1.54601 22.891C1.59545 22.9162 1.69617 22.9539 1.96784 22.9761C2.25117 22.9992 2.62345 23 3.2 23H20.8C21.3766 23 21.7488 22.9992 22.0322 22.9761C22.3038 22.9539 22.4045 22.9162 22.454 22.891C22.6422 22.7951 22.7951 22.6422 22.891 22.454C22.9162 22.4045 22.9539 22.3038 22.9761 22.0322C22.9992 21.7488 23 21.3766 23 20.8V3.2C23 2.62345 22.9992 2.25117 22.9761 1.96784C22.9539 1.69617 22.9162 1.59545 22.891 1.54601C22.7951 1.35785 22.6422 1.20487 22.454 1.10899C22.4045 1.0838 22.3038 1.04612 22.0322 1.02393C21.7488 1.00078 21.3766 1 20.8 1Z" fill="#02A8EF"/>
</g>
</g>
</svg>
