<svg width="16" height="16" viewBox="0 0 16 16" fill="none" xmlns="http://www.w3.org/2000/svg">
<g id="size=16">
<path id="Path" d="M9.3874 2.10158C10.1631 1.31583 11.4751 1.31583 12.2508 2.10158C13.0265 2.88732 13 4.28053 12.2508 5.02972C11.5016 5.77891 5.86138 11.4951 5.86138 11.4951C5.62037 11.7392 5.20442 11.7392 4.96341 11.4951C4.71601 11.2445 4.71622 10.8087 4.96341 10.5579L10.8594 4.59236C11.1506 4.29776 11.1478 3.82289 10.8532 3.53172C10.5586 3.24055 10.0838 3.24333 9.79258 3.53794L3.89593 9.50412C3.07173 10.339 3.07173 11.714 3.89593 12.5489C4.72416 13.3879 6.10051 13.3877 6.92886 12.5489L13.3183 6.08352C14.6783 4.7058 14.6783 2.42549 13.3183 1.04778C11.9553 -0.332903 9.6829 -0.332903 8.31992 1.04778L1.93743 7.51315C1.01597 8.44659 0.5 9.71056 0.5 11.0265C0.5 12.3425 1.01597 13.6064 1.93743 14.5399C2.85922 15.4736 4.1115 16 5.41934 16C6.72718 16 7.97946 15.4736 8.90125 14.5399L15.2837 8.07448C15.5747 7.77971 15.5717 7.30484 15.2769 7.01385C14.9821 6.72285 14.5073 6.72591 14.2163 7.02069L7.83377 13.4861C7.19175 14.1364 6.32306 14.5 5.41934 14.5C4.51562 14.5 3.64693 14.1364 3.00491 13.4861C2.36257 12.8354 2 11.9508 2 11.0265C2 10.1022 2.36257 9.21763 3.00491 8.56695L9.3874 2.10158Z" fill="#000001"/>
</g>
</svg>
