<svg width="16" height="16" viewBox="0 0 16 16" fill="none" xmlns="http://www.w3.org/2000/svg">
<g id="size=16">
<path id="Path" d="M9.3874 2.10151C10.1631 1.31577 11.4751 1.31577 12.2508 2.10151C13.0265 2.88726 13 4.28047 12.2508 5.02966C11.5016 5.77884 5.86138 11.495 5.86138 11.495C5.62037 11.7392 5.20442 11.7392 4.96341 11.495C4.71601 11.2444 4.71622 10.8086 4.96341 10.5579L10.8594 4.5923C11.1506 4.29769 11.1478 3.82283 10.8532 3.53166C10.5586 3.24049 10.0838 3.24327 9.79258 3.53787L3.89593 9.50406C3.07173 10.339 3.07173 11.7139 3.89593 12.5488C4.72416 13.3878 6.10051 13.3876 6.92886 12.5488L13.3183 6.08345C14.6783 4.70574 14.6783 2.42543 13.3183 1.04772C11.9553 -0.332964 9.6829 -0.332964 8.31992 1.04772L1.93743 7.51309C1.01597 8.44652 0.5 9.7105 0.5 11.0264C0.5 12.3424 1.01597 13.6064 1.93743 14.5398C2.85922 15.4736 4.1115 15.9999 5.41934 15.9999C6.72718 15.9999 7.97946 15.4736 8.90125 14.5398L15.2837 8.07442C15.5747 7.77965 15.5717 7.30478 15.2769 7.01379C14.9821 6.72279 14.5073 6.72585 14.2163 7.02063L7.83377 13.486C7.19175 14.1364 6.32306 14.4999 5.41934 14.4999C4.51562 14.4999 3.64693 14.1364 3.00491 13.486C2.36257 12.8353 2 11.9508 2 11.0264C2 10.1021 2.36257 9.21757 3.00491 8.56689L9.3874 2.10151Z" fill="#000001"/>
</g>
</svg>
