<svg width="16" height="16" viewBox="0 0 16 16" fill="none" xmlns="http://www.w3.org/2000/svg">
<g id="size=16">
<path id="Path" fill-rule="evenodd" clip-rule="evenodd" d="M8.32031 1.04775C9.68328 -0.332303 11.9555 -0.332507 13.3184 1.04775C14.6782 2.4254 14.6781 4.70619 13.3184 6.08388L6.92871 12.5487C6.10039 13.3874 4.72371 13.3875 3.89551 12.5487C3.07204 11.714 3.07205 10.3396 3.89551 9.50478L9.79297 3.53799C10.0841 3.24394 10.5591 3.24129 10.8535 3.53213C11.1477 3.82325 11.1502 4.29818 10.8594 4.59267L4.96387 10.5585C4.71683 10.8092 4.71667 11.2444 4.96387 11.495C5.20487 11.7389 5.62038 11.739 5.86133 11.495C5.91206 11.4436 11.5045 5.77663 12.251 5.03017C12.9999 4.28097 13.0264 2.88714 12.251 2.10146C11.4755 1.31614 10.1634 1.31634 9.3877 2.10146L3.00488 8.56728C2.36285 9.21776 2.00021 10.1023 2 11.0263C2.00006 11.9504 2.36271 12.8356 3.00488 13.4862C3.6468 14.1364 4.51543 14.4998 5.41895 14.4999C6.32258 14.4999 7.192 14.1365 7.83398 13.4862L14.2158 7.02041C14.5068 6.72595 14.9826 6.72283 15.2773 7.01357C15.5719 7.3045 15.5749 7.78034 15.2842 8.0751L8.90137 14.5399C7.97961 15.4736 6.7267 15.9999 5.41895 15.9999C4.11131 15.9998 2.85918 15.4735 1.9375 14.5399C1.0162 13.6066 0.500055 12.3421 0.5 11.0263C0.500213 9.7107 1.01635 8.44679 1.9375 7.51357L8.32031 1.04775Z" fill="#000001"/>
</g>
</svg>
