<svg width="24" height="24" viewBox="0 0 24 24" fill="none" xmlns="http://www.w3.org/2000/svg">
<g id="size=24">
<path id="Path" d="M16.0713 0.999817C17.3305 1.00154 18.546 1.49888 19.4385 2.38361C20.3305 3.26986 20.8368 4.47532 20.8369 5.73029C20.8369 6.98548 20.3307 8.19157 19.4385 9.07794L10.209 18.2186C9.69297 18.73 8.98848 19.0176 8.26172 19.0193C7.53425 19.0192 6.83158 18.7296 6.31445 18.2186C5.79695 17.7053 5.505 17.0077 5.50488 16.2791C5.50493 15.5504 5.79676 14.852 6.31445 14.3387L14.832 5.90411C15.1265 5.61614 15.6022 5.61615 15.8926 5.909C16.1795 6.20247 16.1766 6.67892 15.8867 6.96954L7.37012 15.4041C7.13541 15.6371 7.00493 15.9526 7.00488 16.2791C7.005 16.6055 7.13554 16.9202 7.37012 17.1531C7.60501 17.3843 7.92798 17.5192 8.26172 17.5193C8.59486 17.5176 8.91953 17.3849 9.15332 17.1531L18.3828 8.01251C18.9922 7.40647 19.3369 6.58338 19.3369 5.73029C19.3368 4.87723 18.9922 4.05402 18.3828 3.44806C17.7726 2.84319 16.9367 2.50154 16.0713 2.49982C15.2053 2.50002 14.372 2.84379 13.7607 3.44806L4.54199 12.5887C3.55406 13.5683 3.00005 14.8966 3 16.2791C3.00011 17.6615 3.55424 18.989 4.54199 19.9686C5.52971 20.9459 6.87317 21.4996 8.27148 21.4998C9.66928 21.4981 11.0153 20.9466 12.002 19.9686L21.2217 10.8279C21.5159 10.5397 21.9916 10.5393 22.2822 10.8318C22.5695 11.1251 22.5671 11.6015 22.2773 11.8924L13.0586 21.033C11.7896 22.2911 10.0631 22.9981 8.27148 22.9998C6.47929 22.9996 4.75537 22.2905 3.48535 21.033C2.21506 19.7732 1.50011 18.0633 1.5 16.2791C1.50005 14.4947 2.21485 12.7841 3.48535 11.5242L12.7041 2.38361C13.5977 1.49937 14.8115 1.00002 16.0713 0.999817Z" fill="#000001"/>
</g>
</svg>
