<svg width="16" height="16" viewBox="0 0 16 16" fill="none" xmlns="http://www.w3.org/2000/svg">
<g id="size=16">
<path id="Path" d="M8.32019 1.04808C9.68312 -0.332032 11.9553 -0.332184 13.3182 1.04808C14.6778 2.42575 14.6779 4.70655 13.3182 6.08414L6.92861 12.5489C6.10038 13.3874 4.72366 13.3874 3.89545 12.5489C3.072 11.7141 3.07201 10.3397 3.89545 9.50498L9.79282 3.53828C10.084 3.24416 10.5589 3.24156 10.8534 3.53242C11.1473 3.82358 11.15 4.29854 10.8592 4.59295L4.96379 10.5587C4.71677 10.8094 4.7166 11.2446 4.96379 11.4952C5.20483 11.7388 5.62037 11.739 5.86124 11.4952C5.90606 11.4498 11.5039 5.77731 12.2508 5.03044C12.9997 4.28134 13.026 2.88751 12.2508 2.10177C11.4753 1.31643 10.1632 1.31659 9.38755 2.10177L3.00484 8.5675C2.36281 9.21797 2.00017 10.1025 1.99997 11.0264C2.00009 11.9505 2.36273 12.8358 3.00484 13.4864C3.64672 14.1364 4.51547 14.4999 5.41886 14.5C6.32242 14.5 7.19193 14.1366 7.83386 13.4864L14.2156 7.02064C14.5066 6.72611 14.9824 6.72304 15.2771 7.01381C15.5715 7.30478 15.5746 7.78065 15.2839 8.07532L8.90123 14.5401C7.97953 15.4737 6.72653 15.9999 5.41886 16C4.11136 15.9999 2.85912 15.4735 1.93747 14.5401C1.01625 13.6068 0.500117 12.3421 0.499992 11.0264C0.500189 9.71088 1.01632 8.44702 1.93747 7.5138L8.32019 1.04808Z" fill="#000001"/>
</g>
</svg>
