<svg width="24" height="24" viewBox="0 0 24 24" fill="none" xmlns="http://www.w3.org/2000/svg">
<g id="size=24">
<path id="Path" d="M19.5 1C21.433 1 23 2.567 23 4.5C23 6.433 21.433 8 19.5 8C19.4252 8 19.351 7.99779 19.2773 7.99316C18.5555 9.95682 17.9899 11.3039 16.7402 13.0137C16.9055 13.3047 17 13.6414 17 14C17 15.1046 16.1046 16 15 16C13.8954 16 13 15.1046 13 14C13 13.826 13.0227 13.657 13.0645 13.4961C11.412 12.3931 9.84555 11.7897 7.61133 11.1846C7.2472 11.6789 6.66107 12 6 12C5.93611 12 5.87291 11.9971 5.81055 11.9912C5.23534 13.1796 4.82285 14.2504 4.52051 15.3652C4.20775 16.5185 4.00826 17.7362 3.87598 19.2012C4.54158 19.5259 5 20.2096 5 21C5 22.1046 4.10457 23 3 23C1.89543 23 1 22.1046 1 21C1 20.1123 1.57845 19.3599 2.37891 19.0986C2.51664 17.5588 2.72856 16.2401 3.07227 14.9727C3.40717 13.7377 3.86321 12.5673 4.47949 11.2988C4.18076 10.9494 4 10.4958 4 10C4 8.89543 4.89543 8 6 8C7.01344 8 7.85115 8.75395 7.98242 9.73145C10.3611 10.3745 12.1018 11.0395 13.96 12.291C14.263 12.1062 14.6191 12 15 12C15.196 12 15.3854 12.0285 15.5645 12.0811C16.6575 10.5756 17.1678 9.37842 17.832 7.57715C16.741 6.98447 16 5.82896 16 4.5C16 2.567 17.567 1 19.5 1ZM19.5 2.5C18.3954 2.5 17.5 3.39543 17.5 4.5C17.5 5.60457 18.3954 6.5 19.5 6.5C20.6046 6.5 21.5 5.60457 21.5 4.5C21.5 3.39543 20.6046 2.5 19.5 2.5Z" fill="#000001"/>
</g>
</svg>
