<svg width="24" height="24" viewBox="0 0 24 24" fill="none" xmlns="http://www.w3.org/2000/svg">
<g id="size=24">
<path id="Path" d="M19.5 1.00003C21.433 1.00003 23 2.56703 23 4.50003C23 6.43301 21.433 8.00003 19.5 8.00003C19.4253 8.00002 19.3509 7.99781 19.2773 7.99319C18.5556 9.95677 17.9899 11.3039 16.7402 13.0137C16.9055 13.3047 17 13.6414 17 14C17 15.1046 16.1046 16 15 16C13.8956 15.9998 13 15.1045 13 14C13 13.8261 13.0227 13.657 13.0645 13.4961C11.4121 12.3932 9.84544 11.7897 7.61133 11.1846C7.24719 11.6788 6.66099 12 6 12C5.93623 12 5.87279 11.9971 5.81055 11.9912C5.23538 13.1796 4.82284 14.2505 4.52051 15.3653C4.20777 16.5185 4.00826 17.7363 3.87598 19.2012C4.54158 19.5259 5 20.2096 5 21C4.99998 22.1046 4.10456 23 3 23C1.8956 22.9998 1.00002 22.1045 1 21C1 20.1124 1.57861 19.3601 2.37891 19.0987C2.51664 17.5589 2.72858 16.2401 3.07227 14.9727C3.40715 13.7378 3.86325 12.5673 4.47949 11.2989C4.18085 10.9494 4.00001 10.4957 4 10C4 8.89558 4.89559 8.00022 6 8.00003C7.01344 8.00003 7.85114 8.75399 7.98242 9.73148C10.361 10.3745 12.1019 11.0396 13.96 12.291C14.2629 12.1063 14.6193 12.0001 15 12C15.1959 12 15.3855 12.0286 15.5645 12.0811C16.6574 10.5757 17.1678 9.37837 17.832 7.57718C16.7411 6.98446 16 5.82887 16 4.50003C16 2.56715 17.5672 1.00022 19.5 1.00003ZM19.5 2.50003C18.3956 2.50022 17.5 3.39558 17.5 4.50003C17.5 5.60447 18.3956 6.49984 19.5 6.50003C20.6046 6.50003 21.5 5.60459 21.5 4.50003C21.5 3.39546 20.6046 2.50003 19.5 2.50003Z" fill="#000001"/>
</g>
</svg>
