<svg width="24" height="24" viewBox="0 0 24 24" fill="none" xmlns="http://www.w3.org/2000/svg">
<g id="size=24">
<path id="Path" d="M19.5 0.999603C21.4329 0.999603 22.9998 2.5668 23 4.4996C23 6.4326 21.433 7.9996 19.5 7.9996C19.4253 7.9996 19.3509 7.99738 19.2773 7.99277C18.5556 9.95638 17.9899 11.3035 16.7402 13.0133C16.9055 13.3042 16.9999 13.6411 17 13.9996C17 15.1042 16.1046 15.9996 15 15.9996C13.8956 15.9994 13 15.1041 13 13.9996C13 13.8257 13.0227 13.6565 13.0645 13.4957C11.4121 12.3929 9.84535 11.7892 7.61133 11.1842C7.2472 11.6785 6.66107 11.9996 6 11.9996C5.93623 11.9996 5.87279 11.9967 5.81055 11.9908C5.23539 13.1791 4.82285 14.2501 4.52051 15.3648C4.20778 16.518 4.00826 17.736 3.87598 19.2008C4.54147 19.5255 4.99984 20.2093 5 20.9996C5 22.1042 4.10457 22.9996 3 22.9996C1.89559 22.9994 1 22.1041 1 20.9996C1.00018 20.1121 1.57867 19.3596 2.37891 19.0982C2.51664 17.5585 2.72859 16.2396 3.07227 14.9723C3.40716 13.7374 3.86326 12.5668 4.47949 11.2984C4.18097 10.949 4 10.4952 4 9.9996C4.00022 8.89534 4.89573 7.99979 6 7.9996C7.01329 7.9996 7.85095 8.75377 7.98242 9.73105C10.3609 10.3741 12.1019 11.0393 13.96 12.2906C14.2629 12.1059 14.6193 11.9997 15 11.9996C15.1959 11.9996 15.3855 12.0282 15.5645 12.0807C16.6574 10.5753 17.1678 9.37798 17.832 7.57675C16.7412 6.984 16 5.82838 16 4.4996C16.0002 2.56691 17.5673 0.999793 19.5 0.999603ZM19.5 2.4996C18.3957 2.49979 17.5002 3.39534 17.5 4.4996C17.5 5.60406 18.3956 6.49941 19.5 6.4996C20.6046 6.4996 21.5 5.60417 21.5 4.4996C21.4998 3.39522 20.6044 2.4996 19.5 2.4996Z" fill="#000001"/>
</g>
</svg>
