<svg width="16" height="16" viewBox="0 0 16 16" fill="none" xmlns="http://www.w3.org/2000/svg">
<g id="size=16">
<path id="Path" d="M12.9998 0C14.6565 0 15.9996 1.34324 15.9998 2.99995C15.9998 4.65678 14.6566 5.99991 12.9998 5.99991C12.9229 5.99991 12.8467 5.9968 12.7713 5.99112C12.4727 6.74422 12.1822 7.29968 11.8065 7.84754C11.5532 8.21682 11.2611 8.5812 10.9129 8.99596C10.9691 9.15337 10.9998 9.32317 10.9998 9.49986C10.9998 10.3283 10.3283 10.9998 9.49986 10.9998C8.67147 10.9998 7.99988 10.3282 7.99988 9.49986C7.99989 9.42935 8.0051 9.35977 8.01453 9.29185C7.47959 8.89686 6.99502 8.58492 6.47744 8.31823C5.92602 8.03415 5.32131 7.7934 4.55852 7.56238C4.30487 7.81511 3.96138 7.97787 3.58002 7.99792C2.79432 9.70012 2.49182 11.1806 2.33004 13.2508C2.73365 13.5195 2.99987 13.9785 2.99995 14.4998C2.99995 15.3282 2.32839 15.9998 1.49998 15.9998C0.671597 15.9997 0 15.3282 0 14.4998C9.94521e-05 13.9111 0.339381 13.4015 0.832995 13.156C1.00617 10.9251 1.34139 9.25252 2.24215 7.31727C2.08912 7.08217 1.99997 6.80134 1.99997 6.4999C2.00011 5.67163 2.67165 4.99996 3.49995 4.99992C4.1946 4.99992 4.77952 5.47226 4.95012 6.11319C5.79898 6.36806 6.50488 6.64517 7.16493 6.98524C7.78153 7.30297 8.3451 7.67014 8.93736 8.10925C9.11099 8.039 9.30104 7.99989 9.49986 7.99988C9.59213 7.99988 9.68269 8.00834 9.77036 8.02429C10.0979 7.63444 10.3495 7.3192 10.5692 6.99892C10.8581 6.57764 11.093 6.14236 11.3494 5.50578C10.5364 4.96912 9.99985 4.04705 9.99985 2.99995C9.99999 1.34327 11.3431 4.08392e-05 12.9998 0ZM12.9998 1.49998C12.1715 1.50002 11.5 2.17168 11.4998 2.99995C11.4998 3.82834 12.1714 4.49989 12.9998 4.49993C13.8282 4.49993 14.4998 3.82837 14.4998 2.99995C14.4996 2.17166 13.8281 1.49998 12.9998 1.49998Z" fill="#000001"/>
</g>
</svg>
