<svg width="24" height="24" viewBox="0 0 24 24" fill="none" xmlns="http://www.w3.org/2000/svg">
<g id="size=24">
<path id="Path" d="M12 1C18.0751 1 23 5.92487 23 12C23 18.0751 18.0751 23 12 23C5.92487 23 1 18.0751 1 12C1 5.92487 5.92487 1 12 1ZM12 2.5C6.75329 2.5 2.5 6.75329 2.5 12C2.5 17.2467 6.75329 21.5 12 21.5C17.2467 21.5 21.5 17.2467 21.5 12C21.5 6.75329 17.2467 2.5 12 2.5ZM9.25 7C9.66421 7 10 7.33579 10 7.75V16.25C10 16.6642 9.66421 17 9.25 17C8.83579 17 8.5 16.6642 8.5 16.25V7.75C8.5 7.33579 8.83579 7 9.25 7ZM14.75 7C15.1642 7 15.5 7.33579 15.5 7.75V16.25C15.5 16.6642 15.1642 17 14.75 17C14.3358 17 14 16.6642 14 16.25V7.75C14 7.33579 14.3358 7 14.75 7Z" fill="#000001"/>
</g>
</svg>
