<svg width="16" height="16" viewBox="0 0 16 16" fill="none" xmlns="http://www.w3.org/2000/svg">
<g id="size=16">
<g id="Path">
<path d="M6.25 5C6.66421 5 7 5.33579 7 5.75V10.25C7 10.6642 6.66421 11 6.25 11C5.83579 11 5.5 10.6642 5.5 10.25V5.75C5.5 5.33579 5.83579 5 6.25 5Z" fill="#000001"/>
<path d="M10.5 5.75C10.5 5.33579 10.1642 5 9.75 5C9.33579 5 9 5.33579 9 5.75V10.25C9 10.6642 9.33579 11 9.75 11C10.1642 11 10.5 10.6642 10.5 10.25V5.75Z" fill="#000001"/>
<path fill-rule="evenodd" clip-rule="evenodd" d="M0 8C0 3.58172 3.58172 0 8 0C12.4183 0 16 3.58172 16 8C16 12.4183 12.4183 16 8 16C3.58172 16 0 12.4183 0 8ZM8 1.5C4.41015 1.5 1.5 4.41015 1.5 8C1.5 11.5899 4.41015 14.5 8 14.5C11.5899 14.5 14.5 11.5899 14.5 8C14.5 4.41015 11.5899 1.5 8 1.5Z" fill="#000001"/>
</g>
</g>
</svg>
