<svg width="24" height="24" viewBox="0 0 24 24" fill="none" xmlns="http://www.w3.org/2000/svg">
<g id="size=24">
<path id="Path" fill-rule="evenodd" clip-rule="evenodd" d="M1.21835 1.21892C1.40216 1.03554 1.66877 0.960009 1.92147 1.0197L16.6715 4.5197C16.9573 4.58808 17.1787 4.8181 17.2349 5.10661L18.4947 11.6164L18.6432 11.4689C18.9359 11.1769 19.411 11.1769 19.7037 11.4689L22.7789 14.5431C22.9188 14.6835 22.9984 14.8762 22.9986 15.0744C22.9984 15.2727 22.9189 15.4643 22.7789 15.6047L15.6041 22.7795C15.4639 22.9197 15.2721 22.9987 15.0738 22.9992C14.8755 22.999 14.683 22.9195 14.5426 22.7795L11.4683 19.7043C11.1761 19.4113 11.1757 18.9364 11.4683 18.6437L11.6158 18.4953L5.10604 17.2355C4.81721 17.1793 4.58733 16.9583 4.51913 16.672L1.01913 1.92204C0.959454 1.66914 1.0346 1.40271 1.21835 1.21892ZM13.0592 19.174L15.0738 21.1886L21.1881 15.0744L19.1734 13.0597L13.0592 19.174ZM9.47421 8.41423C9.92047 8.15075 10.4429 7.99931 10.9986 7.99919C12.6544 8.00004 13.9981 9.3433 13.9986 10.9992C13.9982 12.6552 12.6545 13.9983 10.9986 13.9992C9.34231 13.9988 7.99902 12.6555 7.99862 10.9992C7.99879 10.4432 8.14992 9.92114 8.41366 9.47478L3.08944 4.15056L5.86678 15.8547L12.8961 17.215L17.2144 12.8967L15.8541 5.86736L4.14999 3.09001L9.47421 8.41423ZM10.9986 9.49919C10.1708 9.49954 9.49914 10.1714 9.49862 10.9992C9.49902 11.8271 10.1707 12.4988 10.9986 12.4992C11.8261 12.4983 12.4982 11.8267 12.4986 10.9992C12.4981 10.1717 11.826 9.50004 10.9986 9.49919Z" fill="#000001"/>
</g>
</svg>
