<svg width="24" height="24" viewBox="0 0 24 24" fill="none" xmlns="http://www.w3.org/2000/svg">
<g id="size=24">
<path id="Path" fill-rule="evenodd" clip-rule="evenodd" d="M1.21835 1.21963C1.40218 1.03601 1.66862 0.960688 1.92147 1.02042L16.6715 4.52042C16.9574 4.58879 17.1788 4.81875 17.235 5.10733L18.4947 11.6171L18.6432 11.4696C18.9359 11.1773 19.4109 11.1775 19.7037 11.4696L22.7789 14.5439C22.9187 14.6842 22.9984 14.8769 22.9986 15.0751C22.9982 15.2734 22.919 15.4651 22.7789 15.6054L15.6041 22.7802C15.4638 22.9204 15.2721 22.9995 15.0738 22.9999C14.8756 22.9997 14.683 22.92 14.5426 22.7802L11.4683 19.705C11.1762 19.4121 11.1759 18.9371 11.4683 18.6444L11.6158 18.496L5.10605 17.2362C4.81739 17.1801 4.58749 16.9587 4.51913 16.6728L1.01913 1.92276C0.95943 1.66988 1.03466 1.40344 1.21835 1.21963ZM13.0592 19.1747L15.0738 21.1894L21.1881 15.0751L19.1734 13.0605L13.0592 19.1747ZM9.47421 8.41495C9.92057 8.15131 10.4427 8.00002 10.9986 7.99991C12.6546 8.00064 13.9982 9.34385 13.9986 10.9999C13.998 12.6557 12.6544 13.9992 10.9986 13.9999C9.34247 13.9996 7.99929 12.656 7.99862 10.9999C7.99876 10.444 8.14998 9.92186 8.41366 9.47549L3.08944 4.15127L5.86679 15.8554L12.8961 17.2157L17.2144 12.8974L15.8541 5.86807L4.14999 3.09073L9.47421 8.41495ZM10.9986 9.49991C10.1707 9.50025 9.49903 10.172 9.49862 10.9999C9.49929 11.8276 10.1709 12.4996 10.9986 12.4999C11.826 12.4992 12.498 11.8273 12.4986 10.9999C12.4982 10.1723 11.8262 9.50064 10.9986 9.49991Z" fill="#000001"/>
</g>
</svg>
