<svg width="16" height="16" viewBox="0 0 16 16" fill="none" xmlns="http://www.w3.org/2000/svg">
<g id="size=16">
<path id="Path" fill-rule="evenodd" clip-rule="evenodd" d="M0.219328 0.219318C0.403148 0.0357098 0.669574 -0.0396187 0.92241 0.0201114L11.3544 2.49555C11.6402 2.56398 11.8617 2.79392 11.9178 3.08242L12.7391 7.32728C13.0193 7.18821 13.3706 7.23577 13.6043 7.46888L15.7789 9.64355C15.9185 9.78388 15.9984 9.97581 15.9986 10.1738C15.9983 10.3721 15.919 10.5637 15.7789 10.704L10.704 15.7789C10.5637 15.9191 10.3721 15.9983 10.1738 15.9986C9.97575 15.9985 9.78393 15.9186 9.64356 15.7789L7.46889 13.6042C7.23574 13.3705 7.18812 13.0193 7.32729 12.7391L3.08243 11.9178C2.79381 11.8617 2.56393 11.6403 2.49556 11.3544L0.0201218 0.9224C-0.039594 0.66949 0.0355837 0.403125 0.219328 0.219318ZM9.05961 13.074L10.1738 14.1882L14.1882 10.1738L13.074 9.0596L9.05961 13.074ZM6.2297 5.16921C6.52307 5.02895 6.8535 4.95056 7.20035 4.95047C8.44192 4.95134 9.44979 5.95867 9.45021 7.20034C9.44948 8.44174 8.44172 9.44933 7.20035 9.4502C5.95851 9.44988 4.95122 8.44208 4.95048 7.20034C4.9506 6.85349 5.02893 6.52305 5.16922 6.22969L2.09031 3.15078L3.84313 10.537L8.56159 11.4511L11.4511 8.56158L10.5371 3.84312L3.15079 2.0903L6.2297 5.16921ZM7.20035 6.45038C6.78669 6.45071 6.45081 6.78671 6.45039 7.20034C6.45113 7.6137 6.78689 7.94997 7.20035 7.95029C7.61335 7.94942 7.94957 7.61337 7.9503 7.20034C7.94988 6.78705 7.61354 6.45125 7.20035 6.45038Z" fill="#000001"/>
</g>
</svg>
