<svg width="16" height="16" viewBox="0 0 16 16" fill="none" xmlns="http://www.w3.org/2000/svg">
<g id="size=16">
<path id="Path" fill-rule="evenodd" clip-rule="evenodd" d="M10.5101 2.17694C11.1933 1.49472 12.3016 1.49474 12.9848 2.17694L13.8207 3.01288C14.502 3.69615 14.5026 4.80461 13.8207 5.48749L6.56776 12.7404C6.30513 13.0028 5.98946 13.2107 5.64491 13.3488L2.27577 14.6965C1.99833 14.8067 1.67894 14.7408 1.46718 14.5305C1.25604 14.3186 1.1905 13.9998 1.30116 13.7219L2.64882 10.3527C2.787 10.0075 2.99437 9.69194 3.25722 9.42889L10.5101 2.17694ZM4.31776 10.4904C4.19878 10.6097 4.10409 10.753 4.0414 10.9094L3.34413 12.6535L5.08729 11.9562C5.24342 11.8935 5.38813 11.7978 5.50722 11.6789L11.0619 6.12518L9.87245 4.93573L4.31776 10.4904ZM11.9242 3.23749C11.8268 3.14108 11.6681 3.14105 11.5707 3.23749L10.933 3.87518L12.1224 5.06464L12.7601 4.42694C12.8563 4.32984 12.8557 4.17091 12.7601 4.07343L11.9242 3.23749Z" fill="#000001"/>
</g>
</svg>
