<svg width="16" height="16" viewBox="0 0 16 16" fill="none" xmlns="http://www.w3.org/2000/svg">
<g id="size=16">
<path id="Path" fill-rule="evenodd" clip-rule="evenodd" d="M10.5102 2.17699C11.1934 1.49496 12.3017 1.49479 12.9848 2.17699L13.8207 3.01293C14.5017 3.69614 14.5023 4.80472 13.8207 5.48754L6.56778 12.7405C6.30524 13.0027 5.98934 13.2107 5.64493 13.3489L2.27579 14.6965C1.99843 14.8068 1.67898 14.7407 1.46719 14.5305C1.256 14.3186 1.1905 13.9998 1.30118 13.7219L2.64883 10.3528C2.78703 10.0076 2.9944 9.69196 3.25723 9.42894L10.5102 2.17699ZM4.31778 10.4905C4.19881 10.6097 4.10411 10.7531 4.04141 10.9094L3.34415 12.6536L5.08731 11.9563C5.24331 11.8935 5.38824 11.7977 5.50723 11.6789L11.0619 6.12523L9.87247 4.93578L4.31778 10.4905ZM11.9242 3.23754C11.8269 3.14113 11.6681 3.14129 11.5707 3.23754L10.933 3.87523L12.1225 5.06468L12.7602 4.42699C12.856 4.32995 12.8554 4.17091 12.7602 4.07347L11.9242 3.23754Z" fill="#000001"/>
</g>
</svg>
