<svg width="24" height="24" viewBox="0 0 24 24" fill="none" xmlns="http://www.w3.org/2000/svg">
<g id="size=24">
<path id="Path" fill-rule="evenodd" clip-rule="evenodd" d="M15.0555 4.88404C16.1295 3.81202 17.8708 3.81086 18.9442 4.88404L19.116 5.05494C20.1873 6.12843 20.1874 7.87119 19.116 8.94459L10.1102 17.9495C9.65626 18.4033 9.11221 18.7624 8.51643 19.0012L4.27815 20.6965C4.00066 20.8074 3.68164 20.7408 3.46955 20.5305C3.25759 20.3185 3.19232 19.9994 3.30354 19.721L4.99885 15.4837C5.23772 14.8871 5.59527 14.3433 6.04963 13.8889L15.0555 4.88404ZM7.11018 14.9495C6.79954 15.2602 6.55486 15.6325 6.39143 16.0403L5.34651 18.6536L7.95881 17.6087C8.36613 17.4452 8.73926 17.1992 9.04963 16.8889L16.4393 9.50025L14.4998 7.5608L7.11018 14.9495ZM17.8836 5.94459C17.3961 5.45719 16.6043 5.45835 16.116 5.94459L15.5604 6.50025L17.4998 8.43873L18.0555 7.88404C18.541 7.39656 18.5406 6.6042 18.0555 6.11647L17.8836 5.94459Z" fill="#000001"/>
</g>
</svg>
