<svg width="16" height="16" viewBox="0 0 16 16" fill="none" xmlns="http://www.w3.org/2000/svg">
<g id="size=16">
<g id="Path">
<path fill-rule="evenodd" clip-rule="evenodd" d="M5.84752 0.532759C5.44224 0.184908 4.92464 -0.00419469 4.3907 7.06094e-05L2.20615 8.88484e-05C1.89982 0.000376798 1.59686 0.0643177 1.31655 0.187887C1.03624 0.311457 0.784671 0.491974 0.57791 0.718027C0.371145 0.944085 0.213728 1.21072 0.115766 1.50101C0.0178435 1.79117 -0.018682 2.09863 0.00895706 2.40387L0.0102034 2.41559C0.262001 4.78202 1.06879 7.05588 2.3651 9.05297C3.65508 11.0403 4.97965 12.3576 6.96101 13.64C8.95276 14.929 11.2196 15.7339 13.5794 15.9898L13.5929 15.9911C13.8989 16.0187 14.2074 15.9822 14.4985 15.8839C14.7897 15.7856 15.0571 15.6277 15.2838 15.4202C15.5104 15.2127 15.6912 14.9602 15.8145 14.6787C15.9378 14.3972 16.0009 14.0931 15.9997 13.7858L15.9993 13.711C15.9976 13.3279 15.9915 11.9402 15.9994 11.6246C16.0128 11.0834 15.8264 10.5564 15.4761 10.1438C15.1258 9.73122 14.6361 9.46175 14.1002 9.3863L14.0935 9.38542C13.4497 9.30067 12.8175 9.14353 12.2092 8.917C11.8145 8.76922 11.3858 8.73732 10.9736 8.82505C10.561 8.91288 10.1821 9.11694 9.88182 9.41328L9.36754 9.92654C8.03638 9.07694 6.90593 7.94897 6.05447 6.62092L6.56415 6.11225L6.5671 6.10928C6.86405 5.80958 7.06885 5.43104 7.15702 5.01843C7.24511 4.60621 7.21305 4.17745 7.0647 3.78291C6.83783 3.17601 6.6805 2.54545 6.59563 1.90328L6.59466 1.89638C6.51956 1.36612 6.25387 0.881524 5.84752 0.532759ZM4.40138 1.50003C4.57363 1.49834 4.74035 1.55921 4.87058 1.67099C5.00006 1.78212 5.0846 1.93595 5.10908 2.10392C5.20895 2.85724 5.39373 3.59688 5.65991 4.30879L5.66054 4.31049C5.708 4.4365 5.71826 4.57338 5.69014 4.70497C5.66214 4.836 5.59721 4.95651 5.50279 5.05228L4.57861 5.97464C4.33928 6.2135 4.28938 6.58297 4.45676 6.87677C5.56152 8.8158 7.17008 10.4211 9.11258 11.5234C9.40577 11.6898 9.77395 11.6402 10.0126 11.402L10.9355 10.4809L10.9367 10.4797C11.0327 10.3854 11.1538 10.3203 11.2859 10.2922C11.4186 10.2639 11.5566 10.2743 11.6835 10.3219L11.6852 10.3225C12.3983 10.5881 13.1392 10.7724 13.8938 10.8721C14.0651 10.8969 14.2211 10.9833 14.3327 11.1146C14.4448 11.2467 14.5041 11.4149 14.4998 11.5873C14.4913 11.9293 14.4977 13.3494 14.4994 13.7209L14.4997 13.7919C14.5001 13.8899 14.48 13.9869 14.4406 14.0768C14.4012 14.1667 14.3434 14.2475 14.2708 14.3139C14.1982 14.3804 14.1124 14.4311 14.0188 14.4627C13.9271 14.4937 13.8299 14.5056 13.7333 14.4976C11.6091 14.266 9.56879 13.541 7.77602 12.3807C5.97067 11.2123 4.79754 10.0453 3.62328 8.23629C2.45661 6.43892 1.73015 4.39292 1.50251 2.26371C1.49453 2.16814 1.50624 2.07184 1.53701 1.98064C1.56828 1.888 1.61856 1.80276 1.68475 1.7304C1.75094 1.65804 1.83159 1.60012 1.92162 1.56044C2.01155 1.52079 2.10914 1.50022 2.20756 1.50009L4.39402 1.5001L4.40138 1.50003ZM7.0647 3.78291C7.06456 3.78254 7.06441 3.78216 7.06427 3.78178L6.36242 4.04613L7.0647 3.78291C7.06477 3.7831 7.06463 3.78273 7.0647 3.78291Z" fill="#000001"/>
<path d="M10.3329 0.00465175C9.92125 -0.0410826 9.55044 0.255575 9.50471 0.667255C9.45897 1.07894 9.75563 1.44974 10.1673 1.49548C11.2745 1.61847 12.3069 2.11428 13.0951 2.90148C13.8833 3.68869 14.3804 4.7205 14.5048 5.82751C14.5511 6.23914 14.9222 6.53533 15.3339 6.48907C15.7455 6.44282 16.0417 6.07164 15.9954 5.66002C15.833 4.21484 15.1841 2.86783 14.1551 1.84016C13.1261 0.812482 11.7783 0.165222 10.3329 0.00465175Z" fill="#000001"/>
<path d="M10.3937 2.52966C9.98719 2.45035 9.59332 2.71562 9.514 3.12216C9.43468 3.52871 9.69995 3.92258 10.1065 4.0019C10.5743 4.09317 11.0042 4.32195 11.3412 4.65896C11.6782 4.99598 11.907 5.42589 11.9983 5.89368C12.0776 6.30022 12.4715 6.56549 12.878 6.48618C13.2846 6.40686 13.5498 6.01298 13.4705 5.60644C13.3221 4.84563 12.95 4.14642 12.4019 3.59831C11.8538 3.05019 11.1545 2.6781 10.3937 2.52966Z" fill="#000001"/>
</g>
</g>
</svg>
