<svg width="24" height="24" viewBox="0 0 24 24" fill="none" xmlns="http://www.w3.org/2000/svg">
<g id="size=24">
<g id="Path">
<path fill-rule="evenodd" clip-rule="evenodd" d="M6.90922 2.50006C7.22788 2.49693 7.53651 2.60954 7.77776 2.8166C8.01818 3.02295 8.17521 3.30899 8.22023 3.62155C8.35829 4.66401 8.61392 5.68756 8.98226 6.67271L8.9829 6.67441C9.07095 6.90818 9.08999 7.16218 9.03781 7.40636C8.98576 7.64994 8.86497 7.87376 8.68949 8.05137L7.38207 9.35622C7.08889 9.64883 7.08843 10.1237 7.38103 10.4169C7.67363 10.7101 8.14851 10.7105 8.44169 10.4179L9.75075 9.11145L9.7537 9.10848C10.1318 8.72692 10.3925 8.24503 10.5047 7.71982C10.6169 7.19485 10.576 6.6488 10.3869 6.14637C10.058 5.26644 9.82986 4.35223 9.70682 3.42116L9.70584 3.41426C9.61025 2.73932 9.27205 2.12241 8.7547 1.67836C8.23839 1.23521 7.57884 0.994374 6.89845 1.0001L3.80896 1.00013C3.41886 1.00049 3.03308 1.08192 2.67615 1.23926C2.31921 1.39661 1.9989 1.62646 1.73567 1.91425C1.47243 2.20205 1.27204 2.5415 1.14734 2.911C1.02268 3.28039 0.976226 3.67174 1.0114 4.06025L1.01265 4.07196C1.36347 7.36903 2.48755 10.5372 4.29371 13.3197C4.51923 13.6672 4.98371 13.766 5.33114 13.5405C5.67858 13.3149 5.77741 12.8505 5.55189 12.503C3.8753 9.9201 2.83154 6.97969 2.50492 3.91972C2.48947 3.74101 2.51112 3.56095 2.56859 3.39064C2.62659 3.21877 2.71985 3.06074 2.84251 2.92663C2.96517 2.79252 3.11456 2.68528 3.28121 2.61182C3.44778 2.53839 3.62818 2.50034 3.81037 2.50012L6.90186 2.50014L6.90922 2.50006ZM10.3869 6.14637C10.3868 6.14614 10.387 6.14659 10.3869 6.14637L9.6848 6.41004L10.3873 6.14739C10.3871 6.14705 10.387 6.14671 10.3869 6.14637Z" fill="#000001"/>
<path fill-rule="evenodd" clip-rule="evenodd" d="M7.66625 17.3945L2.28045 22.7803C1.98756 23.0732 1.51269 23.0732 1.21979 22.7803C0.926899 22.4874 0.926899 22.0126 1.21979 21.7197L21.7198 1.21967C22.0127 0.926777 22.4876 0.926777 22.7805 1.21967C23.0733 1.51256 23.0733 1.98744 22.7805 2.28033L11.6729 13.3878C12.3843 14.0316 13.1554 14.6112 13.9778 15.1179L14.8785 14.219C15.2608 13.8417 15.7433 13.5818 16.2687 13.47C16.794 13.3582 17.3403 13.399 17.8431 13.5875C18.725 13.9158 19.6412 14.1435 20.5744 14.2664L20.5811 14.2673C21.2636 14.3633 21.8872 14.7065 22.3331 15.2318C22.7791 15.7571 23.0163 16.4278 22.9992 17.1168C22.988 17.5684 22.9967 19.5373 22.9991 20.0764L22.9995 20.1812C23.0011 20.5724 22.9208 20.9595 22.7639 21.3178C22.6069 21.6761 22.3767 21.9976 22.0882 22.2618C21.7996 22.526 21.4591 22.727 21.0884 22.8522C20.7176 22.9773 20.3248 23.0238 19.9351 22.9886L19.9216 22.9874C16.6335 22.6308 13.4749 21.5093 10.6997 19.7132C9.55629 18.9732 8.5651 18.2225 7.66625 17.3945ZM10.6111 14.4497L8.72788 16.3329C9.54222 17.0777 10.4497 17.7646 11.5147 18.4539C14.0911 20.1214 17.0232 21.163 20.0759 21.4952C20.256 21.5106 20.4374 21.4887 20.6087 21.4309C20.7818 21.3725 20.9407 21.2787 21.0752 21.1555C21.2097 21.0323 21.3169 20.8826 21.3899 20.7159C21.463 20.5492 21.5003 20.3691 21.4995 20.1873L21.4991 20.0864C21.4967 19.5589 21.4878 17.5575 21.4997 17.0795C21.5076 16.7594 21.3974 16.4473 21.1896 16.2026C20.9825 15.9586 20.6927 15.7985 20.375 15.7531C19.3307 15.6153 18.3053 15.3603 17.3184 14.9927L17.3167 14.9921C17.0818 14.904 16.8265 14.8849 16.581 14.9371C16.3361 14.9893 16.1114 15.1102 15.9334 15.2853L15.9322 15.2866L14.6261 16.5901C14.3875 16.8282 14.0193 16.8779 13.7261 16.7115C12.6015 16.0733 11.5574 15.3137 10.6111 14.4497Z" fill="#000001"/>
</g>
</g>
</svg>
