<svg width="16" height="16" viewBox="0 0 16 16" fill="none" xmlns="http://www.w3.org/2000/svg">
<g id="size=16">
<path id="Path" fill-rule="evenodd" clip-rule="evenodd" d="M4.39061 6.98766e-05C4.92414 -0.00418405 5.4425 0.185924 5.84763 0.533268C6.25361 0.881842 6.51947 1.36671 6.5947 1.89654L6.59567 1.90337C6.68046 2.54496 6.83787 3.17586 7.06442 3.78226L7.11422 3.93167C7.21872 4.28378 7.23422 4.65774 7.15719 5.01858C7.06902 5.43104 6.86416 5.80975 6.56735 6.10939L6.05466 6.6211C6.90585 7.94866 8.03657 9.07728 9.36713 9.92673L9.88177 9.41307C10.1818 9.11707 10.5614 8.9131 10.9736 8.82518C11.3853 8.73756 11.8146 8.76962 12.2089 8.91698C12.8169 9.14338 13.4502 9.30095 14.0936 9.38572L14.1005 9.3867C14.6358 9.46219 15.1263 9.73153 15.4764 10.1435C15.8266 10.556 16.0122 11.0839 15.9989 11.625C15.9911 11.941 15.9972 13.3269 15.9989 13.7109C15.999 13.7431 15.9998 13.7693 15.9999 13.7861C16.0011 14.0931 15.9375 14.3974 15.8143 14.6786C15.6911 14.9598 15.5104 15.2125 15.2841 15.4198C15.0576 15.6271 14.7897 15.7855 14.4989 15.8837C14.208 15.9818 13.8984 16.0187 13.5927 15.9911L13.579 15.9902C11.2197 15.7341 8.95224 14.9284 6.9609 13.6396C4.98024 12.3575 3.65494 11.0396 2.36524 9.05272C1.0694 7.056 0.261594 4.78193 0.00979724 2.41606L0.00882069 2.40434C-0.0186888 2.09938 0.0184284 1.79093 0.116242 1.50103C0.214175 1.21109 0.371647 0.943689 0.578151 0.717836C0.784674 0.492146 1.03655 0.311063 1.31643 0.187568C1.59635 0.0641841 1.90016 0.000517438 2.20607 6.98766e-05H4.39061ZM2.20802 1.50006C2.11004 1.50034 2.01143 1.52117 1.92189 1.5606C1.83219 1.60026 1.75058 1.6584 1.68459 1.73052C1.61872 1.80265 1.56835 1.88827 1.53713 1.98052C1.50646 2.07145 1.49509 2.16843 1.50295 2.26372C1.73054 4.39251 2.45676 6.43921 3.62304 8.23632C4.79707 10.045 5.97157 11.2126 7.77632 12.3808C9.56869 13.5408 11.6096 14.2663 13.7333 14.498C13.8294 14.5059 13.9271 14.4935 14.0185 14.4628C14.1118 14.4313 14.1979 14.3797 14.2704 14.3134C14.3428 14.2471 14.401 14.1667 14.4403 14.0771C14.4796 13.9873 14.5003 13.8898 14.4999 13.7919C14.4998 13.7768 14.4991 13.7519 14.4989 13.7206C14.4972 13.3476 14.4914 11.9285 14.4999 11.5869C14.5039 11.4148 14.4448 11.246 14.3329 11.1142C14.2214 10.9834 14.0644 10.8968 13.8935 10.872C13.1394 10.7724 12.3981 10.5876 11.6855 10.3222H11.6835C11.557 10.275 11.4183 10.2639 11.2861 10.292C11.1544 10.3202 11.0322 10.3855 10.9365 10.4795L10.0126 11.4023C9.77401 11.6401 9.40528 11.6897 9.11225 11.5234C7.17042 10.4211 5.56151 8.81543 4.45702 6.87696C4.29034 6.58344 4.34027 6.21324 4.57909 5.97462L5.50291 5.05276C5.59725 4.95703 5.66241 4.83605 5.69041 4.7051C5.7184 4.57365 5.70754 4.43644 5.66013 4.31058V4.30862C5.39416 3.59703 5.20918 2.85653 5.10936 2.10357C5.08466 1.93604 4.99929 1.78183 4.8701 1.67095C4.74006 1.55985 4.57305 1.49838 4.40136 1.50006H2.20802Z" fill="#000001"/>
</g>
</svg>
