<svg width="24" height="24" viewBox="0 0 24 24" fill="none" xmlns="http://www.w3.org/2000/svg">
<g id="size=24">
<path id="Path" fill-rule="evenodd" clip-rule="evenodd" d="M6.89799 1.00127C7.57743 0.996011 8.2387 1.23661 8.75444 1.679C9.27104 2.12282 9.60994 2.74111 9.70561 3.41533L9.70659 3.42217C9.82967 4.35258 10.0586 5.26842 10.3873 6.14775C10.5756 6.64928 10.6162 7.19705 10.5044 7.721C10.3921 8.24478 10.1303 8.72883 9.75346 9.10967L9.75053 9.1126L8.85405 10.0071C10.1399 12.0845 11.896 13.8354 13.9781 15.1185L14.8785 14.22C15.26 13.844 15.7442 13.583 16.2681 13.471C16.7922 13.3598 17.3406 13.4004 17.8423 13.5882C18.7232 13.916 19.6417 14.1441 20.5738 14.2669L20.5806 14.2679C21.2621 14.3643 21.887 14.7082 22.3326 15.2327C22.7778 15.7576 23.0154 16.4293 22.9986 17.1175C22.9874 17.572 22.9962 19.5379 22.9986 20.0774L22.9996 20.1819C23.0009 20.5721 22.9196 20.9612 22.7632 21.3187C22.6065 21.6755 22.3757 21.9995 22.0884 22.263C21.8008 22.5259 21.4576 22.7279 21.0884 22.8528C20.7189 22.9772 20.3234 23.0243 19.9351 22.9895L19.9214 22.9886C16.6344 22.6319 13.4742 21.5095 10.6998 19.7142C7.93569 17.9251 6.09294 16.0925 4.2935 13.3206C2.4878 10.5386 1.36324 7.3689 1.01225 4.07256L1.01127 4.06084C0.976322 3.6733 1.02293 3.27997 1.14702 2.91143C1.27152 2.54321 1.47373 2.20239 1.73588 1.91533C1.9984 1.6287 2.32072 1.3976 2.67631 1.24053C3.03217 1.08398 3.42033 1.00187 3.80913 1.00127H6.89799ZM3.8101 2.50127C3.62916 2.50172 3.44634 2.53993 3.28081 2.6126C3.11562 2.68576 2.96422 2.79422 2.84233 2.92705C2.72068 3.06051 2.62572 3.22118 2.56792 3.39189C2.51116 3.56116 2.48924 3.74271 2.50444 3.92021C2.83123 6.97946 3.87518 9.92181 5.55131 12.5042C7.23494 15.0977 8.92638 16.7794 11.5142 18.4544C14.0898 20.1211 17.024 21.164 20.0757 21.4964C20.2544 21.5114 20.438 21.4889 20.608 21.4319C20.7796 21.3737 20.9411 21.2784 21.0748 21.1565C21.2081 21.0341 21.3174 20.8824 21.3902 20.7171C21.4626 20.5512 21.5001 20.3686 21.4996 20.1878L21.4986 20.0872C21.4962 19.5591 21.4877 17.5611 21.4996 17.0804C21.5073 16.761 21.3961 16.4478 21.189 16.2034C20.9823 15.9602 20.6914 15.8 20.3746 15.7542C19.3314 15.6165 18.3038 15.3605 17.3179 14.9935L17.3169 14.9925C17.083 14.9049 16.8251 14.8861 16.5806 14.9378C16.3371 14.99 16.1104 15.1125 15.9331 15.2864L15.9322 15.2874L14.6255 16.5911C14.3872 16.8273 14.0183 16.8772 13.7261 16.7122C11.0291 15.1815 8.79434 12.9511 7.2603 10.2591C7.09363 9.96604 7.1436 9.59552 7.38139 9.35674L8.68901 8.05205C8.86332 7.87515 8.98546 7.64972 9.03764 7.40752C9.08943 7.16413 9.07045 6.90816 8.98295 6.6751L8.98198 6.67314C8.61401 5.68877 8.35832 4.66397 8.22026 3.62236C8.17518 3.31067 8.01736 3.02379 7.77788 2.81768C7.53719 2.61131 7.2265 2.49861 6.90874 2.50127H3.8101ZM14.0142 4.88408C14.0939 4.47877 14.4876 4.21323 14.8931 4.29131C16.0831 4.52383 17.1792 5.10691 18.0367 5.96416C18.8939 6.82176 19.4772 7.9176 19.7095 9.10771C19.7875 9.51292 19.5215 9.90655 19.1167 9.98662C18.7114 10.0646 18.3168 9.79975 18.2369 9.39482C18.0617 8.49773 17.6222 7.67121 16.9761 7.02471C16.3298 6.37856 15.5029 5.93932 14.606 5.76396C14.201 5.68402 13.9361 5.28944 14.0142 4.88408ZM14.8326 0.00517556C17.1704 0.265316 19.3526 1.31368 21.0171 2.97588C22.6814 4.63847 23.7328 6.81884 23.9956 9.15654C24.0408 9.56685 23.7436 9.9385 23.3335 9.98564C22.9232 10.0307 22.5514 9.73371 22.5044 9.32353C22.2795 7.32413 21.381 5.45845 19.9576 4.03643C18.534 2.61487 16.667 1.71902 14.6675 1.49639C14.2573 1.44997 13.9599 1.07867 14.0044 0.668261C14.0506 0.257676 14.4219 -0.0394904 14.8326 0.00517556Z" fill="#000001"/>
</g>
</svg>
