<svg width="24" height="24" viewBox="0 0 24 24" fill="none" xmlns="http://www.w3.org/2000/svg">
<g id="size=24">
<g id="Path">
<path d="M14.8328 0.00465174C14.4211 -0.0410825 14.0503 0.255574 14.0045 0.667253C13.9588 1.07893 14.2555 1.44974 14.6671 1.49547C16.6677 1.71772 18.5332 2.61359 19.9574 4.036C21.3816 5.45841 22.2798 7.32281 22.5046 9.32307C22.5508 9.73469 22.922 10.0309 23.3336 9.98463C23.7453 9.93838 24.0415 9.5672 23.9952 9.15558C23.7324 6.81715 22.6824 4.63756 21.0174 2.97468C19.3524 1.3118 17.1715 0.264469 14.8328 0.00465174Z" fill="#000001"/>
<path d="M14.8936 4.29065C14.487 4.21133 14.0931 4.4766 14.0138 4.88315C13.9345 5.2897 14.1998 5.68357 14.6063 5.76289C15.5041 5.93805 16.3292 6.37713 16.976 7.02394C17.6228 7.67074 18.0619 8.49585 18.2371 9.39364C18.3164 9.80018 18.7103 10.0655 19.1168 9.98614C19.5234 9.90682 19.7886 9.51294 19.7093 9.1064C19.477 7.91559 18.8946 6.82119 18.0367 5.96328C17.1788 5.10538 16.0844 4.52299 14.8936 4.29065Z" fill="#000001"/>
<path fill-rule="evenodd" clip-rule="evenodd" d="M8.75453 1.67836C8.23822 1.23521 7.57867 0.994367 6.89829 1.00009L3.80882 1.00012C3.41872 1.00049 3.03294 1.08191 2.67601 1.23926C2.31908 1.39661 1.99877 1.62645 1.73554 1.91425C1.4723 2.20205 1.27191 2.54149 1.14722 2.91099C1.02256 3.28038 0.976099 3.67173 1.01128 4.06023L1.01252 4.07194C1.36334 7.369 2.48741 10.5371 4.29356 13.3197C6.09338 16.0925 7.93471 17.9237 10.6995 19.7131C13.4747 21.5093 16.6333 22.6308 19.9214 22.9873L19.9349 22.9885C20.3246 23.0237 20.7174 22.9772 21.0881 22.8521C21.4588 22.727 21.7994 22.5259 22.0879 22.2617C22.3765 21.9975 22.6067 21.676 22.7636 21.3177C22.9206 20.9594 23.0009 20.5723 22.9993 20.1811L22.9988 20.0763C22.9964 19.5373 22.9877 17.5684 22.999 17.1167C23.0161 16.4278 22.7789 15.757 22.3329 15.2317C21.8869 14.7064 21.2633 14.3633 20.5809 14.2672L20.5742 14.2663C19.6409 14.1435 18.7245 13.9157 17.8425 13.5873C17.3398 13.3989 16.7936 13.3582 16.2685 13.47C15.7431 13.5818 15.2606 13.8416 14.8783 14.2189L13.9776 15.1178C11.8948 13.8345 10.1405 12.084 8.85445 10.0058L9.75058 9.11142L9.75353 9.10845C10.1316 8.72689 10.3923 8.245 10.5045 7.7198C10.6167 7.19496 10.5758 6.64905 10.3869 6.14674C10.0579 5.26669 9.82971 4.35235 9.70665 3.42115L9.70567 3.41424C9.61008 2.7393 9.27189 2.1224 8.75453 1.67836ZM6.90906 2.50005C7.22772 2.49692 7.53635 2.60953 7.7776 2.81659C8.01802 3.02294 8.17505 3.30898 8.22006 3.62153C8.35812 4.664 8.61376 5.68754 8.9821 6.67269L8.98273 6.67438C9.07078 6.90816 9.08982 7.16215 9.03764 7.40634C8.98559 7.64993 8.86479 7.87377 8.68929 8.05138L7.38191 9.35619C7.14258 9.59505 7.09268 9.96452 7.26007 10.2583C8.79427 12.9511 11.0282 15.1805 13.7259 16.7115C14.0191 16.8778 14.3873 16.8282 14.6259 16.59L15.932 15.2866L15.9334 15.2852C16.1113 15.11 16.3359 14.9892 16.5808 14.9371C16.8263 14.8848 17.0816 14.9039 17.3165 14.992L17.3182 14.9927C18.3051 15.3602 19.3304 15.6153 20.3746 15.753C20.6924 15.7985 20.9823 15.9585 21.1894 16.2025C21.3972 16.4473 21.5074 16.7593 21.4994 17.0794C21.4876 17.5575 21.4965 19.5589 21.4989 20.0863L21.4993 20.1872C21.5 20.3691 21.4627 20.5491 21.3897 20.7158C21.3167 20.8825 21.2095 21.0323 21.075 21.1554C20.9405 21.2786 20.7816 21.3724 20.6084 21.4309C20.4372 21.4887 20.2558 21.5106 20.0757 21.4952C17.023 21.1629 14.0909 20.1213 11.5145 18.4539C8.92573 16.7784 7.23584 15.0975 5.55174 12.503C3.87516 9.92007 2.8314 6.97967 2.50478 3.9197C2.48933 3.741 2.51098 3.56093 2.56846 3.39062C2.62646 3.21876 2.71971 3.06072 2.84237 2.92662C2.96504 2.79251 3.11442 2.68527 3.28107 2.6118C3.44764 2.53837 3.62804 2.50032 3.81023 2.50011L6.9017 2.50012L6.90906 2.50005ZM10.3869 6.14674C10.3867 6.14638 10.3866 6.14603 10.3865 6.14568L9.6846 6.41003L10.3869 6.14674C10.3868 6.14652 10.3869 6.14695 10.3869 6.14674Z" fill="#000001"/>
</g>
</g>
</svg>
