<svg width="24" height="24" viewBox="0 0 24 24" fill="none" xmlns="http://www.w3.org/2000/svg">
<g id="size=24">
<path id="Path" fill-rule="evenodd" clip-rule="evenodd" d="M7.77763 2.8166C7.53639 2.60954 7.22776 2.49693 6.9091 2.50006L6.90174 2.50014L3.81025 2.50012C3.62805 2.50034 3.44766 2.53839 3.28109 2.61182C3.11444 2.68528 2.96505 2.79252 2.84239 2.92663C2.71973 3.06074 2.62647 3.21877 2.56847 3.39064C2.511 3.56095 2.48935 3.74102 2.5048 3.91972C2.83142 6.9797 3.87518 9.92012 5.55177 12.5031C7.23587 15.0976 8.92577 16.7785 11.5146 18.454C14.0909 20.1214 17.0231 21.163 20.0758 21.4953C20.2559 21.5107 20.4373 21.4888 20.6085 21.431C20.7817 21.3725 20.9406 21.2787 21.0751 21.1555C21.2096 21.0324 21.3168 20.8826 21.3898 20.7159C21.4628 20.5492 21.5002 20.3692 21.4994 20.1873C21.4993 20.1657 21.4992 20.1314 21.499 20.0864C21.4966 19.559 21.4877 17.5575 21.4996 17.0795C21.5075 16.7594 21.3973 16.4474 21.1895 16.2026C20.9824 15.9586 20.6925 15.7985 20.3747 15.7531C19.3305 15.6153 18.3052 15.3603 17.3183 14.9927L17.3166 14.9921C17.0817 14.904 16.8264 14.8849 16.5809 14.9372C16.336 14.9893 16.1114 15.1101 15.9335 15.2852L15.932 15.2866L14.626 16.5901C14.3874 16.8283 14.0192 16.8779 13.726 16.7115C11.0282 15.1806 8.79431 12.9512 7.2601 10.2584C7.09272 9.96457 7.14262 9.5951 7.38195 9.35624L8.68934 8.05142C8.86483 7.87381 8.98564 7.64997 9.03769 7.40637C9.08987 7.16219 9.07083 6.90819 8.98278 6.67442L8.98214 6.67272C8.6138 5.68757 8.35816 4.66402 8.2201 3.62155C8.17509 3.309 8.01806 3.02295 7.77763 2.8166ZM6.89832 1.0001C7.57871 0.994372 8.23826 1.23521 8.75458 1.67836C9.27193 2.12241 9.61013 2.73932 9.70572 3.41426L9.7067 3.42117C9.82979 4.35259 10.058 5.26716 10.3871 6.1474L9.68465 6.41006L10.3865 6.14571C10.5758 6.64832 10.6168 7.19463 10.5046 7.71984C10.3923 8.24504 10.1316 8.72693 9.75358 9.10849L9.75063 9.11147L8.8545 10.0058C10.1406 12.084 11.8948 13.8345 13.9777 15.1179L14.8784 14.219C15.2607 13.8417 15.7432 13.5819 16.2686 13.47C16.7937 13.3583 17.3399 13.399 17.8426 13.5874C18.7246 13.9158 19.641 14.1436 20.5743 14.2664L20.581 14.2673C21.2635 14.3634 21.887 14.7065 22.333 15.2318C22.779 15.7571 23.0162 16.4279 22.9991 17.1168C22.9879 17.5685 22.9966 19.5374 22.9989 20.0764C22.9992 20.1223 22.9993 20.1579 22.9994 20.1812C23.001 20.5724 22.9207 20.9595 22.7637 21.3178C22.6068 21.6761 22.3766 21.9976 22.0881 22.2618C21.7995 22.526 21.459 22.7271 21.0882 22.8522C20.7175 22.9773 20.3247 23.0238 19.935 22.9887L19.9215 22.9874C16.6333 22.6309 13.4748 21.5094 10.6996 19.7132C7.93475 17.9238 6.09341 16.0925 4.29359 13.3197C2.48742 10.5372 1.36335 7.36904 1.01253 4.07197L1.01128 4.06025C0.976104 3.67174 1.02256 3.2804 1.14722 2.911C1.27192 2.5415 1.47231 2.20206 1.73555 1.91426C1.99878 1.62646 2.31909 1.39661 2.67602 1.23926C3.03295 1.08192 3.41874 1.00049 3.80884 1.00013L6.89832 1.0001Z" fill="#000001"/>
</g>
</svg>
