<svg width="24" height="24" viewBox="0 0 24 24" fill="none" xmlns="http://www.w3.org/2000/svg">
<g id="size=24">
<path id="Path" fill-rule="evenodd" clip-rule="evenodd" d="M7.77767 2.8166C7.53642 2.60954 7.22779 2.49693 6.90913 2.50006L6.90177 2.50014L3.81028 2.50012C3.62808 2.50034 3.44769 2.53839 3.28112 2.61182C3.11447 2.68528 2.96508 2.79252 2.84242 2.92663C2.71976 3.06074 2.6265 3.21877 2.5685 3.39064C2.51103 3.56095 2.48938 3.74102 2.50483 3.91972C2.83145 6.9797 3.87521 9.92012 5.5518 12.5031C7.2359 15.0976 8.9258 16.7785 11.5146 18.454C14.091 20.1214 17.0231 21.163 20.0758 21.4953C20.2559 21.5107 20.4373 21.4888 20.6086 21.431C20.7817 21.3725 20.9406 21.2787 21.0751 21.1555C21.2096 21.0324 21.3168 20.8826 21.3898 20.7159C21.4629 20.5492 21.5002 20.3692 21.4994 20.1873C21.4994 20.1657 21.4992 20.1314 21.499 20.0864C21.4966 19.559 21.4877 17.5575 21.4996 17.0795C21.5075 16.7594 21.3974 16.4474 21.1896 16.2026C20.9824 15.9586 20.6926 15.7985 20.3748 15.7531C19.3305 15.6153 18.3052 15.3603 17.3183 14.9927L17.3166 14.9921C17.0817 14.904 16.8264 14.8849 16.5809 14.9372C16.3361 14.9893 16.1115 15.1101 15.9335 15.2852L15.9321 15.2866L14.626 16.5901C14.3874 16.8283 14.0192 16.8779 13.726 16.7115C11.0283 15.1806 8.79434 12.9512 7.26014 10.2584C7.09275 9.96457 7.14265 9.5951 7.38198 9.35624L8.68937 8.05142C8.86486 7.87381 8.98567 7.64997 9.03772 7.40637C9.0899 7.16219 9.07086 6.90819 8.98281 6.67442L8.98217 6.67272C8.61383 5.68757 8.3582 4.66402 8.22014 3.62155C8.17512 3.309 8.01809 3.02295 7.77767 2.8166ZM6.89835 1.0001C7.57874 0.994372 8.23829 1.23521 8.75461 1.67836C9.27196 2.12241 9.61016 2.73932 9.70575 3.41426L9.70673 3.42117C9.82982 4.35259 10.0581 5.26716 10.3872 6.1474L9.68468 6.41006L10.3865 6.14571C10.5758 6.64832 10.6168 7.19463 10.5046 7.71984C10.3924 8.24504 10.1317 8.72693 9.75361 9.10849L9.75066 9.11147L8.85453 10.0058C10.1406 12.084 11.8949 13.8345 13.9777 15.1179L14.8784 14.219C15.2607 13.8417 15.7432 13.5819 16.2686 13.47C16.7937 13.3583 17.3399 13.399 17.8426 13.5874C18.7246 13.9158 19.641 14.1436 20.5743 14.2664L20.581 14.2673C21.2635 14.3634 21.8871 14.7065 22.333 15.2318C22.779 15.7571 23.0163 16.4279 22.9991 17.1168C22.9879 17.5685 22.9966 19.5374 22.999 20.0764C22.9992 20.1223 22.9993 20.1579 22.9994 20.1812C23.001 20.5724 22.9207 20.9595 22.7638 21.3178C22.6068 21.6761 22.3766 21.9976 22.0881 22.2618C21.7995 22.526 21.459 22.7271 21.0883 22.8522C20.7175 22.9773 20.3247 23.0238 19.935 22.9887L19.9215 22.9874C16.6334 22.6309 13.4748 21.5094 10.6996 19.7132C7.93478 17.9238 6.09344 16.0925 4.29362 13.3197C2.48745 10.5372 1.36338 7.36904 1.01256 4.07197L1.01131 4.06025C0.976134 3.67174 1.02259 3.2804 1.14725 2.911C1.27195 2.5415 1.47234 2.20206 1.73558 1.91426C1.99881 1.62646 2.31912 1.39661 2.67605 1.23926C3.03298 1.08192 3.41877 1.00049 3.80887 1.00013L6.89835 1.0001Z" fill="#000001"/>
</g>
</svg>
