<svg width="24" height="24" viewBox="0 0 24 24" fill="none" xmlns="http://www.w3.org/2000/svg">
<g id="size=24">
<path id="Path" fill-rule="evenodd" clip-rule="evenodd" d="M7.77776 2.8166C7.53651 2.60954 7.22788 2.49693 6.90922 2.50006L6.90186 2.50014L3.81037 2.50012C3.62818 2.50034 3.44778 2.53839 3.28121 2.61182C3.11456 2.68528 2.96517 2.79252 2.84251 2.92663C2.71985 3.06074 2.62659 3.21877 2.56859 3.39064C2.51112 3.56095 2.48947 3.74102 2.50492 3.91972C2.83154 6.9797 3.8753 9.92012 5.55189 12.5031C7.236 15.0976 8.9259 16.7785 11.5147 18.454C14.0911 20.1214 17.0232 21.163 20.0759 21.4953C20.256 21.5107 20.4374 21.4888 20.6087 21.431C20.7818 21.3725 20.9407 21.2787 21.0752 21.1555C21.2097 21.0324 21.3169 20.8826 21.3899 20.7159C21.463 20.5492 21.5003 20.3692 21.4995 20.1873C21.4995 20.1657 21.4993 20.1314 21.4991 20.0864C21.4967 19.559 21.4878 17.5575 21.4997 17.0795C21.5076 16.7594 21.3974 16.4474 21.1896 16.2026C20.9825 15.9586 20.6927 15.7985 20.3749 15.7531C19.3306 15.6153 18.3053 15.3603 17.3184 14.9927L17.3167 14.9921C17.0818 14.904 16.8265 14.8849 16.581 14.9372C16.3361 14.9893 16.1115 15.1101 15.9336 15.2852L15.9322 15.2866L14.6261 16.5901C14.3875 16.8283 14.0193 16.8779 13.7261 16.7115C11.0283 15.1806 8.79444 12.9512 7.26023 10.2584C7.09284 9.96457 7.14274 9.5951 7.38207 9.35624L8.68946 8.05142C8.86495 7.87381 8.98576 7.64997 9.03781 7.40637C9.08999 7.16219 9.07095 6.90819 8.9829 6.67442L8.98226 6.67272C8.61392 5.68757 8.35829 4.66402 8.22023 3.62155C8.17521 3.309 8.01818 3.02295 7.77776 2.8166ZM6.89844 1.0001C7.57883 0.994372 8.23839 1.23521 8.7547 1.67836C9.27206 2.12241 9.61025 2.73932 9.70584 3.41426L9.70682 3.42117C9.82991 4.35259 10.0582 5.26716 10.3873 6.1474L9.68477 6.41006L10.3866 6.14571C10.5759 6.64832 10.6169 7.19463 10.5047 7.71984C10.3925 8.24504 10.1318 8.72693 9.7537 9.10849L9.75075 9.11147L8.85462 10.0058C10.1407 12.084 11.895 13.8345 13.9778 15.1179L14.8785 14.219C15.2608 13.8417 15.7433 13.5819 16.2687 13.47C16.7938 13.3583 17.34 13.399 17.8427 13.5874C18.7247 13.9158 19.6411 14.1436 20.5744 14.2664L20.5811 14.2673C21.2636 14.3634 21.8872 14.7065 22.3331 15.2318C22.7791 15.7571 23.0163 16.4279 22.9992 17.1168C22.988 17.5685 22.9967 19.5374 22.9991 20.0764C22.9993 20.1223 22.9994 20.1579 22.9995 20.1812C23.0011 20.5724 22.9208 20.9595 22.7639 21.3178C22.6069 21.6761 22.3767 21.9976 22.0882 22.2618C21.7996 22.526 21.4591 22.7271 21.0884 22.8522C20.7176 22.9773 20.3248 23.0238 19.9351 22.9887L19.9216 22.9874C16.6335 22.6309 13.4749 21.5094 10.6997 19.7132C7.93487 17.9238 6.09353 16.0925 4.29371 13.3197C2.48755 10.5372 1.36347 7.36904 1.01265 4.07197L1.0114 4.06025C0.976226 3.67174 1.02268 3.2804 1.14734 2.911C1.27204 2.5415 1.47243 2.20206 1.73567 1.91426C1.9989 1.62646 2.31921 1.39661 2.67614 1.23926C3.03308 1.08192 3.41886 1.00049 3.80896 1.00013L6.89844 1.0001Z" fill="#000001"/>
</g>
</svg>
