<svg width="16" height="16" viewBox="0 0 16 16" fill="none" xmlns="http://www.w3.org/2000/svg">
<g id="size=16">
<path id="Path" fill-rule="evenodd" clip-rule="evenodd" d="M4.87058 1.67099C4.74035 1.55921 4.57363 1.49834 4.40138 1.50003L4.39402 1.5001L2.20756 1.50009C2.20746 1.50009 2.20766 1.50009 2.20756 1.50009C2.10914 1.50022 2.01155 1.52079 1.92162 1.56044C1.83159 1.60012 1.75094 1.65804 1.68475 1.7304C1.61856 1.80276 1.56828 1.888 1.53701 1.98064C1.50624 2.07184 1.49453 2.16814 1.50251 2.26371C1.73015 4.39292 2.45661 6.43892 3.62328 8.23629C4.79754 10.0453 5.97067 11.2123 7.77602 12.3807C9.56879 13.541 11.6091 14.266 13.7333 14.4976C13.8299 14.5056 13.9271 14.4937 14.0188 14.4627C14.1124 14.4311 14.1982 14.3804 14.2708 14.3139C14.3434 14.2475 14.4012 14.1667 14.4406 14.0768C14.48 13.9869 14.5001 13.8899 14.4997 13.7919C14.4996 13.7768 14.4995 13.7528 14.4994 13.7211C14.4977 13.3497 14.4913 11.9293 14.4998 11.5873C14.5041 11.4149 14.4448 11.2467 14.3327 11.1146C14.2211 10.9833 14.0651 10.8969 13.8938 10.8721C13.1392 10.7724 12.3983 10.5881 11.6852 10.3225L11.6835 10.3219C11.5566 10.2743 11.4186 10.2639 11.2859 10.2922C11.1538 10.3203 11.0327 10.3854 10.9367 10.4797C10.9363 10.4801 10.9359 10.4805 10.9355 10.4809L10.0126 11.402C9.77395 11.6402 9.40577 11.6898 9.11258 11.5234C7.17008 10.4211 5.56152 8.8158 4.45676 6.87677C4.28938 6.58297 4.33928 6.2135 4.57861 5.97464L5.50279 5.05228C5.59721 4.95651 5.66214 4.836 5.69014 4.70497C5.71826 4.57338 5.708 4.4365 5.66054 4.31049L5.65991 4.30879C5.39373 3.59688 5.20895 2.85724 5.10908 2.10392C5.0846 1.93595 5.00006 1.78212 4.87058 1.67099ZM4.3907 7.06094e-05C4.92464 -0.00419469 5.44224 0.184908 5.84752 0.532759C6.25387 0.881524 6.51956 1.36612 6.59466 1.89638L6.59563 1.90328C6.68052 2.54565 6.83793 3.17639 7.06491 3.78347L6.36242 4.04613L7.06427 3.78178C7.21299 4.17663 7.24519 4.60582 7.15702 5.01843C7.06885 5.43104 6.86405 5.80958 6.5671 6.10928L6.56415 6.11225L6.05447 6.62092C6.90593 7.94897 8.03638 9.07694 9.36754 9.92654L9.88182 9.41328C10.1821 9.11694 10.561 8.91288 10.9736 8.82505C11.3858 8.73732 11.8145 8.76922 12.2092 8.917C12.8175 9.14353 13.4497 9.30067 14.0935 9.38542L14.1002 9.3863C14.6361 9.46175 15.1258 9.73122 15.4761 10.1438C15.8264 10.5564 16.0128 11.0834 15.9994 11.6246C15.9915 11.9402 15.9976 13.3279 15.9993 13.711C15.9995 13.7437 15.9996 13.769 15.9997 13.7858C16.0009 14.0931 15.9378 14.3972 15.8145 14.6787C15.6912 14.9602 15.5104 15.2127 15.2838 15.4202C15.0571 15.6277 14.7897 15.7856 14.4985 15.8839C14.2074 15.9822 13.8989 16.0187 13.5929 15.9911L13.5794 15.9898C11.2196 15.7339 8.95276 14.929 6.96101 13.64C4.97965 12.3576 3.65508 11.0403 2.3651 9.05297C1.06879 7.05588 0.262001 4.78202 0.0102034 2.41559L0.00895706 2.40387C-0.018682 2.09863 0.0178435 1.79117 0.115766 1.50101C0.213728 1.21072 0.371145 0.944085 0.57791 0.718027C0.784671 0.491974 1.03624 0.311457 1.31655 0.187887C1.59686 0.0643177 1.89982 0.000376798 2.20615 8.88484e-05L4.3907 7.06094e-05Z" fill="#000001"/>
</g>
</svg>
