<svg width="16" height="16" viewBox="0 0 16 16" fill="none" xmlns="http://www.w3.org/2000/svg">
<g id="size=16">
<path id="Path" fill-rule="evenodd" clip-rule="evenodd" d="M4.39062 7.01388e-05C4.92415 -0.0041919 5.4425 0.185922 5.84764 0.533268C6.25363 0.881855 6.51948 1.36669 6.5947 1.89654L6.59568 1.90337C6.6805 2.54522 6.83773 3.17661 7.06442 3.78324C7.21268 4.1776 7.24517 4.60653 7.1572 5.01858C7.06902 5.43107 6.86421 5.80974 6.56736 6.10939L6.05467 6.6211C6.90585 7.94865 8.03658 9.07728 9.36713 9.92673L9.88178 9.41307C10.1818 9.11704 10.5614 8.91311 10.9736 8.82518C11.3853 8.73755 11.8146 8.76963 12.2089 8.91698C12.8169 9.14337 13.4503 9.30094 14.0937 9.38572L14.1005 9.3867C14.6358 9.46219 15.1263 9.73153 15.4765 10.1435C15.8266 10.556 16.0122 11.0839 15.9989 11.625C15.9911 11.9411 15.9972 13.3269 15.9989 13.7109L15.9999 13.7861C16.0011 14.0932 15.9375 14.3973 15.8143 14.6786C15.6911 14.9599 15.5105 15.2124 15.2841 15.4198C15.0576 15.6271 14.7897 15.7855 14.4989 15.8837C14.208 15.9818 13.8984 16.0187 13.5927 15.9911L13.579 15.9902C11.2197 15.7341 8.95223 14.9284 6.96091 13.6396C4.98026 12.3575 3.65494 11.0396 2.36525 9.05272C1.0694 7.056 0.261599 4.78193 0.00980224 2.41606L0.00882569 2.40434C-0.0186946 2.09936 0.0184267 1.79095 0.116247 1.50103C0.214178 1.21106 0.371632 0.943711 0.578156 0.717837C0.78469 0.492114 1.03653 0.311077 1.31643 0.187568C1.59636 0.0641673 1.90016 0.000523551 2.20607 7.01388e-05H4.39062ZM2.20802 1.50006C2.11003 1.50034 2.01145 1.52115 1.92189 1.5606C1.83217 1.60027 1.7506 1.65837 1.68459 1.73052C1.61871 1.80267 1.56835 1.88824 1.53713 1.98052C1.50646 2.07147 1.49509 2.16841 1.50295 2.26372C1.73055 4.39251 2.45676 6.43921 3.62305 8.23632C4.79708 10.045 5.97158 11.2126 7.77633 12.3808C9.56868 13.5408 11.6096 14.2663 13.7333 14.498C13.8294 14.5059 13.9271 14.4935 14.0185 14.4628C14.1119 14.4313 14.1979 14.3797 14.2704 14.3134C14.3428 14.2471 14.401 14.1667 14.4403 14.0771C14.4796 13.9873 14.5003 13.8898 14.4999 13.7919L14.4989 13.7206C14.4972 13.3478 14.4914 11.9286 14.4999 11.5869C14.5039 11.4148 14.4448 11.246 14.3329 11.1142C14.2214 10.9834 14.0644 10.8968 13.8935 10.872C13.1395 10.7724 12.3981 10.5876 11.6855 10.3222H11.6835C11.557 10.275 11.4183 10.2639 11.2861 10.292C11.1543 10.3202 11.0322 10.3855 10.9365 10.4795L10.0126 11.4023C9.77402 11.6401 9.40528 11.6897 9.11225 11.5234C7.17043 10.4211 5.56151 8.81543 4.45703 6.87696C4.29033 6.58343 4.34027 6.21324 4.57909 5.97462L5.50291 5.05276C5.59729 4.95702 5.6624 4.83608 5.69041 4.7051C5.71843 4.57363 5.70755 4.43647 5.66014 4.31058V4.30862C5.39416 3.59702 5.20919 2.85654 5.10936 2.10357C5.08468 1.93602 4.99931 1.78185 4.87011 1.67095C4.74006 1.55985 4.57307 1.49837 4.40136 1.50006H2.20802ZM9.51362 3.12211C9.59303 2.71628 9.9876 2.45096 10.3935 2.52934C11.1539 2.6777 11.8543 3.05102 12.4023 3.59867C12.95 4.14654 13.3221 4.84613 13.4706 5.60646C13.5499 6.013 13.2844 6.40702 12.8778 6.48634C12.4717 6.56497 12.0772 6.29975 11.998 5.89357C11.9066 5.42615 11.6775 4.99599 11.3407 4.65921C11.0039 4.32271 10.5737 4.09317 10.1064 4.00199C9.70055 3.92211 9.4344 3.52823 9.51362 3.12211ZM10.3329 0.0049529C11.7778 0.165489 13.1263 0.812785 14.1552 1.8399C15.184 2.8674 15.8325 4.21527 15.995 5.66017C16.0412 6.07173 15.7454 6.44298 15.3339 6.48927C14.9227 6.53491 14.551 6.23844 14.5048 5.82716C14.3802 4.72056 13.8826 3.68836 13.0946 2.90141C12.3066 2.11485 11.2736 1.61811 10.1669 1.49517C9.75605 1.44869 9.45915 1.07822 9.50483 0.667056C9.55088 0.25614 9.92197 -0.0400743 10.3329 0.0049529Z" fill="#000001"/>
</g>
</svg>
