<svg width="24" height="24" viewBox="0 0 24 24" fill="none" xmlns="http://www.w3.org/2000/svg">
<g id="size=24">
<path id="Path" fill-rule="evenodd" clip-rule="evenodd" d="M21.7196 1.21965C22.0127 0.928453 22.4879 0.927371 22.7802 1.21965C23.0714 1.51207 23.071 1.98754 22.7802 2.2802L11.6728 13.3876C12.3838 14.0309 13.1556 14.6117 13.9775 15.1181L14.8778 14.2187C15.2599 13.8423 15.7438 13.5813 16.2685 13.4697C16.7928 13.3586 17.3408 13.3997 17.8427 13.5878C18.7239 13.9157 19.6418 14.1438 20.5741 14.2665L20.581 14.2675C21.2623 14.3641 21.8876 14.7069 22.3329 15.2314C22.7782 15.7563 23.0159 16.4289 22.9989 17.1171C22.9877 17.5693 22.9966 19.536 22.9989 20.0761V20.1816C23.0005 20.5721 22.9201 20.9605 22.7636 21.3183C22.6069 21.6757 22.3754 21.9979 22.0878 22.2616C21.7999 22.5252 21.4575 22.7273 21.0878 22.8525C20.7181 22.9772 20.3232 23.0229 19.9345 22.9882L19.9218 22.9872C16.6343 22.6307 13.4739 21.5083 10.6991 19.7128C9.55643 18.9732 8.56435 18.2219 7.66593 17.3945L2.28019 22.7802C1.98767 23.0727 1.51263 23.072 1.21964 22.7802C0.926803 22.4873 0.926768 22.0125 1.21964 21.7197L21.7196 1.21965ZM8.72746 16.3329C9.54148 17.0773 10.4501 17.7651 11.5146 18.454C14.0905 20.1208 17.0241 21.1629 20.0761 21.495C20.2552 21.5099 20.4381 21.488 20.6083 21.4306C20.7805 21.3721 20.9413 21.2777 21.0751 21.1552C21.2087 21.0324 21.3169 20.8816 21.3896 20.7157C21.4621 20.5495 21.4997 20.3687 21.4989 20.1874V20.0868C21.4966 19.5585 21.488 17.557 21.4999 17.079C21.5076 16.7599 21.3962 16.4473 21.1894 16.203C20.9828 15.9598 20.6916 15.7989 20.3749 15.7529C19.3315 15.6152 18.3045 15.3601 17.3183 14.9931L17.3163 14.9921C17.0824 14.9044 16.8255 14.8859 16.581 14.9374C16.337 14.9894 16.1112 15.1109 15.9335 15.2851L15.9316 15.287L14.6259 16.5898C14.3878 16.8274 14.0184 16.877 13.7255 16.7118C12.6016 16.074 11.5571 15.3134 10.6112 14.4501L8.72746 16.3329ZM6.89836 0.999924C7.57773 0.994897 8.23921 1.23611 8.7548 1.67864C9.27108 2.12244 9.61036 2.73999 9.70597 3.41399L9.70695 3.42082C9.82999 4.35176 10.0578 5.2666 10.3866 6.14641C10.5754 6.64826 10.6166 7.19528 10.5048 7.71965C10.3928 8.24398 10.1309 8.72706 9.75382 9.10832L9.75089 9.11125L8.44132 10.4179C8.14851 10.7101 7.67346 10.709 7.38078 10.4169C7.08823 10.1238 7.0887 9.64898 7.38175 9.35637L8.68937 8.05168C8.86398 7.87433 8.98611 7.649 9.038 7.40617C9.08977 7.16265 9.07 6.90788 8.98234 6.67473V6.67278C8.61409 5.68785 8.35772 4.66421 8.21964 3.62199C8.17464 3.31016 8.01684 3.02252 7.77726 2.81633C7.53678 2.61006 7.22662 2.49749 6.9091 2.49992H3.81046C3.62918 2.50013 3.44705 2.53951 3.28117 2.61223C3.11528 2.68536 2.96504 2.79343 2.84269 2.92668C2.72036 3.06043 2.62631 3.21921 2.56828 3.39055C2.51085 3.56072 2.48942 3.74129 2.5048 3.91985C2.83145 6.97965 3.8752 9.92004 5.55168 12.5029C5.77599 12.8495 5.67636 13.3151 5.33097 13.5409C4.98385 13.7661 4.51956 13.6659 4.29386 13.3193C2.48784 10.5369 1.36348 7.36904 1.01261 4.07219L1.01164 4.06047C0.976534 3.67211 1.02277 3.28031 1.14738 2.91106C1.27211 2.54207 1.47235 2.20144 1.73527 1.91399C1.99817 1.62704 2.31954 1.39622 2.6757 1.23918C3.03186 1.08259 3.41941 1.00032 3.80851 0.999924H6.89836Z" fill="#000001"/>
</g>
</svg>
