<svg width="16" height="16" viewBox="0 0 16 16" fill="none" xmlns="http://www.w3.org/2000/svg">
<g id="size=16">
<path id="Vector (Stroke)" fill-rule="evenodd" clip-rule="evenodd" d="M4.87057 1.67099C4.74033 1.55921 4.57361 1.49833 4.40136 1.50003L4.394 1.5001L2.20755 1.50008C2.20745 1.50008 2.20766 1.50008 2.20755 1.50008C2.10913 1.50022 2.01155 1.52078 1.92161 1.56043C1.83158 1.60012 1.75093 1.65803 1.68474 1.7304C1.61856 1.80276 1.56827 1.88799 1.53701 1.98063C1.50623 2.07183 1.49453 2.16814 1.5025 2.2637C1.73015 4.3929 2.4566 6.4389 3.62327 8.23626C4.79753 10.0453 5.97065 11.2122 7.776 12.3807C9.56875 13.5409 11.609 14.266 13.7332 14.4976C13.8298 14.5055 13.927 14.4936 14.0188 14.4626C14.1123 14.4311 14.1982 14.3804 14.2708 14.3139C14.3434 14.2474 14.4012 14.1666 14.4405 14.0767C14.4799 13.9869 14.5 13.8899 14.4996 13.7919C14.4996 13.7768 14.4995 13.7527 14.4993 13.721C14.4976 13.3496 14.4913 11.9293 14.4998 11.5873C14.5041 11.4149 14.4447 11.2467 14.3326 11.1146C14.2211 10.9832 14.065 10.8968 13.8937 10.872C13.1392 10.7724 12.3983 10.5881 11.6852 10.3225L11.6835 10.3218C11.5566 10.2742 11.4186 10.2639 11.2859 10.2922C11.1538 10.3203 11.0327 10.3854 10.9367 10.4796C10.9363 10.48 10.9359 10.4805 10.9354 10.4809L10.0125 11.402C9.77391 11.6401 9.40574 11.6898 9.11255 11.5234C7.17005 10.4211 5.5615 8.81577 4.45675 6.87674C4.28936 6.58295 4.33926 6.21348 4.57859 5.97462L5.50277 5.05226C5.59719 4.9565 5.66212 4.83598 5.69012 4.70495C5.71824 4.57336 5.70798 4.43648 5.66052 4.31047L5.65989 4.30878C5.39371 3.59687 5.20893 2.85723 5.10906 2.10391C5.08458 1.93594 5.00004 1.78212 4.87057 1.67099ZM4.39069 7.06092e-05C4.92463 -0.00419468 5.44223 0.184907 5.8475 0.532757C6.25385 0.881521 6.51954 1.36612 6.59463 1.89637L6.59561 1.90327C6.6805 2.54564 6.8379 3.17638 7.06489 3.78346L6.3624 4.04612L7.06425 3.78177C7.21297 4.17661 7.24517 4.6058 7.157 5.01841C7.06882 5.43102 6.86402 5.80956 6.56708 6.10926L6.56413 6.11223L6.05445 6.6209C6.90591 7.94895 8.03635 9.07691 9.36751 9.9265L9.88178 9.41325C10.1821 9.11691 10.561 8.91285 10.9736 8.82503C11.3858 8.7373 11.8145 8.76919 12.2091 8.91697C12.8175 9.1435 13.4496 9.30064 14.0934 9.38538L14.1001 9.38627C14.636 9.46172 15.1258 9.73119 15.4761 10.1438C15.8264 10.5564 16.0128 11.0833 15.9993 11.6246C15.9915 11.9402 15.9976 13.3278 15.9993 13.711C15.9994 13.7436 15.9995 13.769 15.9996 13.7858C16.0009 14.0931 15.9378 14.3972 15.8145 14.6787C15.6912 14.9601 15.5103 15.2127 15.2837 15.4202C15.0571 15.6277 14.7896 15.7856 14.4985 15.8839C14.2074 15.9821 13.8989 16.0186 13.5928 15.991L13.5794 15.9898C11.2196 15.7339 8.95273 14.929 6.96099 13.6399C4.97964 12.3576 3.65507 11.0403 2.36509 9.05294C1.06878 7.05586 0.262 4.782 0.0102034 2.41558L0.00895703 2.40387C-0.018682 2.09862 0.0178434 1.79116 0.115766 1.501C0.213727 1.21072 0.371144 0.944082 0.577908 0.718025C0.784668 0.491972 1.03624 0.311456 1.31655 0.187886C1.59686 0.0643175 1.89981 0.000376797 2.20614 8.88481e-05L4.39069 7.06092e-05Z" fill="#000001"/>
</g>
</svg>
