<svg width="16" height="16" viewBox="0 0 16 16" fill="none" xmlns="http://www.w3.org/2000/svg">
<g id="size=16">
<g id="Path">
<path fill-rule="evenodd" clip-rule="evenodd" d="M4.40138 1.50003C4.57363 1.49834 4.74035 1.55921 4.87058 1.67099C5.00007 1.78213 5.08461 1.93597 5.10908 2.10395C5.20895 2.85726 5.39373 3.5969 5.65991 4.30879L5.66054 4.31049C5.708 4.4365 5.71826 4.57338 5.69014 4.70497C5.66213 4.83603 5.59718 4.95656 5.50273 5.05234L4.57861 5.97464C4.28543 6.26725 4.28496 6.74212 4.57757 7.0353C4.87017 7.32848 5.34505 7.32895 5.63823 7.03634L6.56415 6.11225L6.5671 6.10928C6.86405 5.80958 7.06885 5.43104 7.15702 5.01843C7.24512 4.60614 7.21304 4.1773 7.06462 3.7827C6.83779 3.17586 6.68049 2.54538 6.59564 1.90328L6.59466 1.89638C6.51956 1.36612 6.25387 0.881523 5.84752 0.532759C5.44225 0.184908 4.92465 -0.00419469 4.3907 7.06094e-05L2.20615 8.88484e-05C1.89982 0.000376798 1.59686 0.0643177 1.31655 0.187887C1.03624 0.311457 0.784671 0.491974 0.57791 0.718027C0.371145 0.944085 0.213728 1.21072 0.115766 1.50101C0.0178435 1.79117 -0.018682 2.09863 0.00895706 2.40387L0.0102034 2.41559C0.262001 4.78202 1.06879 7.05588 2.3651 9.05297C2.59062 9.40041 3.0551 9.49924 3.40254 9.27372C3.74997 9.0482 3.8488 8.58372 3.62328 8.23629C2.45661 6.43892 1.73015 4.39292 1.50251 2.26371C1.49453 2.16814 1.50624 2.07184 1.53701 1.98064C1.56828 1.888 1.61856 1.80276 1.68475 1.7304C1.75094 1.65804 1.83159 1.60012 1.92162 1.56044C2.01155 1.52079 2.10914 1.50022 2.20756 1.50009L4.39402 1.5001L4.40138 1.50003Z" fill="#000001"/>
<path fill-rule="evenodd" clip-rule="evenodd" d="M4.91066 12.1501L2.28045 14.7803C1.98756 15.0732 1.51268 15.0732 1.21979 14.7803C0.926897 14.4874 0.926897 14.0125 1.21979 13.7196L13.7198 1.21967C14.0127 0.926775 14.4875 0.926775 14.7804 1.21967C15.0733 1.51256 15.0733 1.98743 14.7804 2.28033L8.04917 9.01158C8.45274 9.34635 8.88952 9.64455 9.36248 9.93159L9.88182 9.41328C10.1821 9.11694 10.561 8.91288 10.9736 8.82506C11.3859 8.73731 11.8147 8.76923 12.2093 8.91706L11.947 9.61967L12.2104 8.91746L12.2093 8.91706C12.8177 9.14356 13.4497 9.30068 14.0935 9.38542L14.1002 9.3863C14.6361 9.46175 15.1258 9.73122 15.4761 10.1438C15.8264 10.5564 16.0128 11.0834 15.9994 11.6246C15.9915 11.9402 15.9976 13.3278 15.9993 13.711L15.9997 13.7858C16.0009 14.0931 15.9378 14.3972 15.8145 14.6787C15.6912 14.9602 15.5104 15.2127 15.2838 15.4202C15.0571 15.6277 14.7897 15.7856 14.4985 15.8839C14.2074 15.9822 13.8989 16.0187 13.5929 15.9911L13.5794 15.9898C11.2196 15.7339 8.95276 14.929 6.96101 13.64C6.2092 13.1534 5.53474 12.6926 4.91066 12.1501ZM6.98465 10.0761L5.97426 11.0865C6.4923 11.5269 7.07323 11.9258 7.77603 12.3807C9.56879 13.541 11.6091 14.266 13.7333 14.4976L13.7276 14.4971L13.6603 15.2441L13.7411 14.4985L13.7333 14.4976C13.8299 14.5056 13.9271 14.4937 14.0188 14.4627C14.1124 14.4311 14.1982 14.3804 14.2708 14.3139C14.3434 14.2475 14.4012 14.1667 14.4406 14.0768C14.48 13.9869 14.5001 13.8899 14.4997 13.7919L14.4994 13.7211C14.4977 13.3495 14.4913 11.9293 14.4998 11.5873C14.5041 11.4149 14.4448 11.2467 14.3327 11.1146C14.2211 10.9832 14.065 10.8968 13.8937 10.8721L13.8977 10.8726L13.9956 10.129L13.891 10.8717L13.8937 10.8721C13.1392 10.7724 12.3983 10.5881 11.6852 10.3225L11.6835 10.3219C11.5566 10.2743 11.4186 10.2639 11.2859 10.2922C11.1538 10.3203 11.0327 10.3854 10.9367 10.4797L10.9385 10.478L10.4087 9.9471L10.9355 10.4809L10.0126 11.402C9.77395 11.6402 9.40577 11.6898 9.11258 11.5235C8.36949 11.1018 7.65081 10.645 6.98465 10.0761Z" fill="#000001"/>
</g>
</g>
</svg>
