<svg width="16" height="16" viewBox="0 0 16 16" fill="none" xmlns="http://www.w3.org/2000/svg">
<g id="size=16">
<path id="Path" fill-rule="evenodd" clip-rule="evenodd" d="M13.7196 1.21979C14.0122 0.927227 14.4872 0.927804 14.7802 1.21979C15.073 1.51266 15.073 1.98743 14.7802 2.28032L8.04879 9.0117C8.45201 9.34618 8.88976 9.64479 9.36225 9.93162L9.88178 9.41307C10.1818 9.11704 10.5614 8.91311 10.9736 8.82518C11.3853 8.73755 11.8146 8.76963 12.2089 8.91698C12.8169 9.14334 13.4503 9.30095 14.0937 9.38572L14.1005 9.3867C14.6358 9.46218 15.1263 9.73153 15.4765 10.1435C15.8266 10.556 16.0122 11.0839 15.9989 11.625C15.9911 11.9411 15.9972 13.327 15.9989 13.7109L15.9999 13.7861C16.0011 14.0932 15.9375 14.3973 15.8143 14.6786C15.6911 14.9599 15.5105 15.2124 15.2841 15.4198C15.0576 15.6271 14.7897 15.7855 14.4989 15.8837C14.208 15.9818 13.8984 16.0187 13.5927 15.9911L13.579 15.9902C11.2197 15.7341 8.95223 14.9284 6.96091 13.6396C6.20977 13.1534 5.53473 12.6924 4.91112 12.1503L2.28029 14.7802C1.98737 15.0727 1.51252 15.073 1.21975 14.7802C0.927881 14.4874 0.927518 14.0123 1.21975 13.7197L13.7196 1.21979ZM10.9355 10.4804L10.0126 11.4023C9.77402 11.6401 9.40528 11.6897 9.11225 11.5234C8.36964 11.1019 7.65011 10.6447 6.98435 10.0761L5.97459 11.0869C6.49227 11.5269 7.07419 11.9264 7.77633 12.3808C9.56679 13.5396 11.6052 14.2645 13.7265 14.497L13.6601 15.2441L13.7411 14.498H13.7333C13.8294 14.5059 13.9271 14.4935 14.0185 14.4628C14.1119 14.4313 14.1979 14.3797 14.2704 14.3134C14.3428 14.2471 14.401 14.1667 14.4403 14.0771C14.4796 13.9873 14.5003 13.8898 14.4999 13.7919L14.4989 13.7206C14.4972 13.3476 14.4914 11.9285 14.4999 11.5869C14.5039 11.4148 14.4448 11.246 14.3329 11.1142C14.2222 10.9843 14.0669 10.8975 13.8974 10.872L13.996 10.1289L13.8905 10.8711C13.1376 10.7713 12.3972 10.5873 11.6855 10.3222H11.6835C11.557 10.275 11.4183 10.2639 11.2861 10.292C11.1543 10.3202 11.0322 10.3855 10.9365 10.4795L10.9384 10.4775L10.4081 9.94724L10.9355 10.4804ZM4.39062 7.01388e-05C4.92415 -0.0041919 5.4425 0.185922 5.84764 0.533268C6.25363 0.881855 6.51948 1.36669 6.5947 1.89654L6.59568 1.90337C6.68047 2.54497 6.83787 3.17585 7.06442 3.78226C7.2128 4.17673 7.2452 4.6064 7.1572 5.01858C7.06902 5.43108 6.86421 5.80974 6.56736 6.10939L6.56443 6.11232L5.63865 7.03614C5.34545 7.32844 4.86964 7.32824 4.57714 7.03516C4.28577 6.74199 4.28659 6.26687 4.57909 5.97462L5.50291 5.05276C5.59732 4.95701 5.6624 4.83611 5.69041 4.7051C5.71843 4.57363 5.70755 4.43647 5.66014 4.31058V4.30862C5.39416 3.59703 5.20919 2.85653 5.10936 2.10357C5.08468 1.93602 4.99931 1.78185 4.87011 1.67095C4.74006 1.55985 4.57307 1.49837 4.40136 1.50006H2.20802C2.11003 1.50034 2.01145 1.52115 1.92189 1.5606C1.83217 1.60027 1.7506 1.65837 1.68459 1.73052C1.61871 1.80267 1.56835 1.88824 1.53713 1.98052C1.50646 2.07147 1.49509 2.16841 1.50295 2.26372C1.73055 4.39251 2.45676 6.43921 3.62305 8.23632C3.84857 8.58375 3.74978 9.0479 3.40235 9.27342C3.05497 9.49851 2.59066 9.39998 2.36525 9.05272C1.0694 7.056 0.261599 4.78193 0.00980224 2.41606L0.00882569 2.40434C-0.0186946 2.09936 0.0184267 1.79095 0.116247 1.50103C0.214178 1.21106 0.371632 0.943711 0.578156 0.717837C0.78469 0.492114 1.03653 0.311077 1.31643 0.187568C1.59636 0.0641673 1.90016 0.000523551 2.20607 7.01388e-05H4.39062Z" fill="#000001"/>
</g>
</svg>
