<svg width="24" height="24" viewBox="0 0 24 24" fill="none" xmlns="http://www.w3.org/2000/svg">
<g id="size=24">
<path id="Path" fill-rule="evenodd" clip-rule="evenodd" d="M7.7777 2.8166C7.53645 2.60954 7.22782 2.49693 6.90916 2.50006L6.9018 2.50014L3.81031 2.50012C3.62812 2.50034 3.44772 2.53839 3.28115 2.61182C3.1145 2.68528 2.96511 2.79252 2.84245 2.92663C2.71979 3.06074 2.62653 3.21877 2.56853 3.39064C2.51106 3.56095 2.48941 3.74102 2.50486 3.91972C2.83148 6.9797 3.87524 9.92012 5.55183 12.5031C7.23594 15.0976 8.92583 16.7785 11.5146 18.454C14.091 20.1214 17.0231 21.163 20.0758 21.4953C20.2559 21.5107 20.4374 21.4888 20.6086 21.431C20.7817 21.3725 20.9406 21.2787 21.0752 21.1555C21.2097 21.0324 21.3168 20.8826 21.3899 20.7159C21.4629 20.5492 21.5002 20.3692 21.4995 20.1873C21.4994 20.1657 21.4992 20.1314 21.499 20.0864C21.4967 19.559 21.4877 17.5575 21.4996 17.0795C21.5076 16.7594 21.3974 16.4474 21.1896 16.2026C20.9824 15.9586 20.6926 15.7985 20.3748 15.7531C19.3306 15.6153 18.3053 15.3603 17.3184 14.9927L17.3167 14.9921C17.0818 14.904 16.8264 14.8849 16.5809 14.9372C16.3361 14.9893 16.1115 15.1101 15.9335 15.2852L15.9321 15.2866L14.626 16.5901C14.3874 16.8283 14.0193 16.8779 13.7261 16.7115C11.0283 15.1806 8.79438 12.9512 7.26017 10.2584C7.09278 9.96457 7.14268 9.5951 7.38201 9.35624L8.6894 8.05142C8.86489 7.87381 8.9857 7.64997 9.03775 7.40637C9.08993 7.16219 9.07089 6.90819 8.98284 6.67442L8.9822 6.67272C8.61386 5.68757 8.35823 4.66402 8.22017 3.62155C8.17515 3.309 8.01812 3.02295 7.7777 2.8166ZM6.89838 1.0001C7.57877 0.994372 8.23832 1.23521 8.75464 1.67836C9.27199 2.12241 9.61019 2.73932 9.70578 3.41426L9.70676 3.42117C9.82985 4.35259 10.0581 5.26716 10.3872 6.1474L9.68471 6.41006L10.3866 6.14571C10.5759 6.64832 10.6169 7.19463 10.5046 7.71984C10.3924 8.24504 10.1317 8.72693 9.75364 9.10849L9.75069 9.11147L8.85456 10.0058C10.1407 12.084 11.8949 13.8345 13.9777 15.1179L14.8784 14.219C15.2607 13.8417 15.7432 13.5819 16.2686 13.47C16.7938 13.3583 17.34 13.399 17.8427 13.5874C18.7247 13.9158 19.641 14.1436 20.5744 14.2664L20.5811 14.2673C21.2635 14.3634 21.8871 14.7065 22.3331 15.2318C22.779 15.7571 23.0163 16.4279 22.9992 17.1168C22.9879 17.5685 22.9966 19.5374 22.999 20.0764C22.9992 20.1223 22.9994 20.1579 22.9995 20.1812C23.0011 20.5724 22.9208 20.9595 22.7638 21.3178C22.6068 21.6761 22.3767 21.9976 22.0881 22.2618C21.7996 22.526 21.459 22.7271 21.0883 22.8522C20.7176 22.9773 20.3247 23.0238 19.935 22.9887L19.9215 22.9874C16.6334 22.6309 13.4748 21.5094 10.6996 19.7132C7.93481 17.9238 6.09347 16.0925 4.29365 13.3197C2.48748 10.5372 1.36341 7.36904 1.01259 4.07197L1.01134 4.06025C0.976165 3.67174 1.02262 3.2804 1.14728 2.911C1.27198 2.5415 1.47237 2.20206 1.73561 1.91426C1.99884 1.62646 2.31915 1.39661 2.67608 1.23926C3.03301 1.08192 3.4188 1.00049 3.8089 1.00013L6.89838 1.0001Z" fill="#000001"/>
</g>
</svg>
