<svg width="16" height="16" viewBox="0 0 16 16" fill="none" xmlns="http://www.w3.org/2000/svg">
<g id="size=16">
<path id="Path" fill-rule="evenodd" clip-rule="evenodd" d="M13.7196 1.21979C14.0122 0.927262 14.4872 0.927863 14.7802 1.21979C15.073 1.51266 15.073 1.98743 14.7802 2.28032L8.04878 9.0117C8.45199 9.34617 8.88977 9.6448 9.36225 9.93162L9.88177 9.41307C10.1818 9.11705 10.5614 8.91311 10.9736 8.82518C11.3852 8.73756 11.8147 8.76965 12.2089 8.91698C12.8168 9.14333 13.4503 9.30095 14.0936 9.38572L14.1005 9.3867C14.6358 9.46218 15.1263 9.73156 15.4764 10.1435C15.8266 10.556 16.0122 11.0839 15.9989 11.625C15.9911 11.941 15.9972 13.3269 15.9989 13.7109L15.9999 13.7861C16.0011 14.0932 15.9375 14.3973 15.8143 14.6786C15.6911 14.9599 15.5105 15.2125 15.2841 15.4198C15.0576 15.6271 14.7897 15.7855 14.4989 15.8837C14.208 15.9818 13.8984 16.0187 13.5927 15.9911L13.579 15.9902C11.2198 15.7341 8.95222 14.9284 6.9609 13.6396C6.20979 13.1534 5.53471 12.6924 4.91112 12.1503L2.28028 14.7802C1.98736 15.0727 1.51252 15.073 1.21975 14.7802C0.927929 14.4874 0.92753 14.0123 1.21975 13.7197L13.7196 1.21979ZM10.9355 10.4804L10.0126 11.4023C9.77401 11.6401 9.40528 11.6897 9.11225 11.5234C8.36965 11.1019 7.65008 10.6447 6.98434 10.0761L5.97458 11.0869C6.49225 11.5269 7.07421 11.9264 7.77632 12.3808C9.56677 13.5395 11.6052 14.2645 13.7265 14.497L13.6601 15.2441L13.7411 14.498H13.7333C13.8294 14.5059 13.9271 14.4935 14.0185 14.4628C14.1119 14.4313 14.1979 14.3797 14.2704 14.3134C14.3428 14.2471 14.401 14.1667 14.4403 14.0771C14.4796 13.9873 14.5003 13.8898 14.4999 13.7919L14.4989 13.7206C14.4972 13.3475 14.4914 11.9285 14.4999 11.5869C14.5039 11.4148 14.4448 11.246 14.3329 11.1142C14.2222 10.9843 14.0668 10.8974 13.8974 10.872L13.996 10.1289L13.8905 10.8711C13.1376 10.7713 12.3971 10.5873 11.6855 10.3222H11.6835C11.557 10.275 11.4182 10.2639 11.2861 10.292C11.1543 10.3202 11.0322 10.3855 10.9364 10.4795L10.9384 10.4775L10.4081 9.94724L10.9355 10.4804ZM4.39061 7.01216e-05C4.92412 -0.00419173 5.4425 0.185952 5.84763 0.533268C6.25361 0.881838 6.51946 1.36672 6.59469 1.89654L6.59567 1.90337C6.68046 2.54495 6.83788 3.17587 7.06442 3.78226C7.21278 4.17671 7.24518 4.60642 7.15719 5.01858C7.06902 5.43107 6.86419 5.80974 6.56735 6.10939L6.56442 6.11232L5.63865 7.03614C5.34545 7.32844 4.86964 7.32824 4.57714 7.03516C4.28582 6.74199 4.2866 6.26686 4.57909 5.97462L5.50291 5.05276C5.59731 4.95701 5.66239 4.8361 5.69041 4.7051C5.71841 4.57365 5.70754 4.43645 5.66013 4.31058V4.30862C5.39417 3.59705 5.20918 2.8565 5.10936 2.10357C5.08466 1.93605 4.99928 1.78183 4.8701 1.67095C4.74006 1.55988 4.57304 1.49837 4.40136 1.50006H2.20802C2.11004 1.50035 2.01143 1.52116 1.92189 1.5606C1.83217 1.60027 1.75059 1.65838 1.68459 1.73052C1.61871 1.80266 1.56834 1.88826 1.53713 1.98052C1.50646 2.07145 1.49509 2.16844 1.50295 2.26372C1.73054 4.39249 2.45678 6.43922 3.62304 8.23632C3.84856 8.58375 3.74977 9.0479 3.40234 9.27342C3.05496 9.49851 2.59065 9.39998 2.36524 9.05272C1.06942 7.05601 0.261591 4.78191 0.00979645 2.41606L0.00881989 2.40434C-0.0186879 2.09938 0.0184287 1.79092 0.116241 1.50103C0.214173 1.21108 0.371639 0.943698 0.57815 0.717837C0.784679 0.492124 1.03653 0.311073 1.31642 0.187568C1.59635 0.0641722 1.90016 0.000528557 2.20606 7.01216e-05H4.39061Z" fill="#000001"/>
</g>
</svg>
