<svg width="16" height="16" viewBox="0 0 16 16" fill="none" xmlns="http://www.w3.org/2000/svg">
<g id="size=16">
<path id="Path" fill-rule="evenodd" clip-rule="evenodd" d="M4.87055 1.67098C4.74032 1.5592 4.5736 1.49833 4.40135 1.50002L4.39399 1.5001L2.20755 1.50008C2.20745 1.50008 2.20765 1.50008 2.20755 1.50008C2.10913 1.50021 2.01154 1.52078 1.92161 1.56043C1.83158 1.60011 1.75093 1.65803 1.68474 1.73039C1.61855 1.80275 1.56827 1.88799 1.537 1.98063C1.50623 2.07183 1.49452 2.16813 1.5025 2.2637C1.73014 4.39289 2.45659 6.43888 3.62326 8.23624C4.79752 10.0453 5.97064 11.2122 7.77598 12.3806C9.56873 13.5409 11.609 14.2659 13.7332 14.4975C13.8298 14.5055 13.927 14.4936 14.0188 14.4626C14.1123 14.431 14.1981 14.3803 14.2707 14.3139C14.3433 14.2474 14.4011 14.1666 14.4405 14.0767C14.4799 13.9868 14.5 13.8898 14.4996 13.7918C14.4995 13.7767 14.4994 13.7527 14.4993 13.721C14.4976 13.3496 14.4913 11.9293 14.4998 11.5873C14.504 11.4149 14.4447 11.2466 14.3326 11.1146C14.221 10.9832 14.065 10.8968 13.8937 10.872C13.1391 10.7724 12.3983 10.588 11.6851 10.3225L11.6835 10.3218C11.5565 10.2742 11.4185 10.2639 11.2858 10.2921C11.1538 10.3202 11.0326 10.3854 10.9367 10.4796C10.9362 10.48 10.9358 10.4804 10.9354 10.4808L10.0125 11.402C9.77389 11.6401 9.40572 11.6898 9.11253 11.5234C7.17004 10.421 5.56148 8.81575 4.45674 6.87673C4.28935 6.58293 4.33925 6.21347 4.57858 5.97461L5.50276 5.05225C5.59718 4.95648 5.66211 4.83597 5.69011 4.70494C5.71823 4.57335 5.70797 4.43647 5.66051 4.31046L5.65987 4.30877C5.3937 3.59686 5.20892 2.85722 5.10905 2.1039C5.08457 1.93594 5.00003 1.78211 4.87055 1.67098ZM4.39068 7.0609e-05C4.92462 -0.00419467 5.44221 0.184907 5.84749 0.532756C6.25383 0.881519 6.51952 1.36611 6.59462 1.89637L6.5956 1.90327C6.68049 2.54564 6.83789 3.17638 7.06487 3.78345L6.36238 4.04611L7.06423 3.78176C7.21295 4.1766 7.24515 4.60579 7.15698 5.0184C7.06881 5.43101 6.86401 5.80955 6.56706 6.10924L6.56411 6.11222L6.05443 6.62088C6.90589 7.94893 8.03633 9.07689 9.36749 9.92648L9.88176 9.41322C10.182 9.11689 10.561 8.91283 10.9736 8.825C11.3857 8.73727 11.8145 8.76917 12.2091 8.91695C12.8175 9.14348 13.4496 9.30062 14.0934 9.38536L14.1001 9.38624C14.636 9.4617 15.1258 9.73117 15.476 10.1438C15.8263 10.5564 16.0127 11.0833 15.9993 11.6246C15.9914 11.9401 15.9975 13.3278 15.9992 13.7109C15.9994 13.7436 15.9995 13.769 15.9996 13.7857C16.0008 14.093 15.9377 14.3972 15.8144 14.6786C15.6911 14.9601 15.5103 15.2126 15.2837 15.4202C15.0571 15.6277 14.7896 15.7856 14.4985 15.8838C14.2073 15.9821 13.8988 16.0186 13.5928 15.991L13.5793 15.9898C11.2195 15.7339 8.95271 14.929 6.96097 13.6399C4.97962 12.3575 3.65506 11.0402 2.36509 9.05292C1.06878 7.05584 0.261999 4.78199 0.0102034 2.41557L0.00895701 2.40386C-0.0186819 2.09861 0.0178434 1.79116 0.115766 1.501C0.213727 1.21072 0.371143 0.94408 0.577906 0.718023C0.784666 0.491971 1.03624 0.311456 1.31655 0.187886C1.59685 0.0643174 1.89981 0.000376796 2.20614 8.88479e-05L4.39068 7.0609e-05Z" fill="#000001"/>
</g>
</svg>
