<svg width="16" height="16" viewBox="0 0 16 16" fill="none" xmlns="http://www.w3.org/2000/svg">
<g id="size=16">
<g id="Path">
<path fill-rule="evenodd" clip-rule="evenodd" d="M5.84745 0.532751C5.44217 0.184905 4.92458 -0.00419463 4.39064 7.06084e-05L2.20612 8.88472e-05C1.89979 0.000376793 1.59684 0.0643169 1.31654 0.187884C1.03623 0.311453 0.78466 0.491967 0.577902 0.718018C0.37114 0.944073 0.213725 1.21071 0.115765 1.50099C0.0178433 1.79115 -0.0186818 2.0986 0.00895694 2.40384L0.0102033 2.41555C0.261997 4.78195 1.06877 7.05579 2.36507 9.05285C3.65503 11.0402 4.97959 12.3574 6.96092 13.6398C8.95264 14.9288 11.2194 15.7337 13.5792 15.9896L13.5927 15.9908C13.8987 16.0184 14.2072 15.982 14.4983 15.8837C14.7895 15.7854 15.0569 15.6275 15.2836 15.42C15.5102 15.2125 15.691 14.96 15.8143 14.6785C15.9376 14.3971 16.0007 14.0929 15.9994 13.7856L15.9991 13.7108C15.9974 13.3277 15.9913 11.94 15.9992 11.6245C16.0126 11.0832 15.8262 10.5563 15.4759 10.1437C15.1256 9.73109 14.6359 9.46163 14.1 9.38617L14.0933 9.38529C13.4495 9.30055 12.8174 9.14341 12.209 8.91688C11.8144 8.7691 11.3857 8.73721 10.9735 8.82494C10.5609 8.91276 10.182 9.11682 9.88168 9.41315L9.36742 9.9264C8.03627 9.07682 6.90584 7.94887 6.05439 6.62083L6.56406 6.11217L6.56701 6.10919C6.86396 5.8095 7.06875 5.43097 7.15692 5.01836C7.24501 4.60615 7.21296 4.17739 7.0646 3.78286C6.83774 3.17596 6.68041 2.54542 6.59555 1.90325L6.59457 1.89635C6.51947 1.3661 6.25379 0.881512 5.84745 0.532751ZM4.40132 1.50001C4.57357 1.49832 4.74028 1.55919 4.87052 1.67097C4.99999 1.7821 5.08453 1.93592 5.10901 2.10389C5.20888 2.8572 5.39366 3.59684 5.65983 4.30874L5.66047 4.31043C5.70793 4.43644 5.71818 4.57332 5.69006 4.70491C5.66206 4.83594 5.59714 4.95645 5.50272 5.05221L4.57855 5.97456C4.33922 6.21342 4.28932 6.58288 4.4567 6.87667C5.56144 8.81568 7.16998 10.421 9.11246 11.5233C9.40565 11.6897 9.77381 11.64 10.0124 11.4019L10.9353 10.4808L10.9366 10.4795C11.0326 10.3853 11.1537 10.3202 11.2858 10.292C11.4184 10.2638 11.5564 10.2741 11.6834 10.3217L11.6851 10.3224C12.3982 10.588 13.139 10.7723 13.8936 10.8719C14.0649 10.8967 14.2209 10.9831 14.3325 11.1145C14.4446 11.2465 14.5039 11.4148 14.4996 11.5872C14.4911 11.9291 14.4975 13.3492 14.4992 13.7208L14.4995 13.7917C14.4999 13.8897 14.4798 13.9867 14.4404 14.0766C14.401 14.1665 14.3432 14.2473 14.2706 14.3137C14.198 14.3802 14.1122 14.4309 14.0187 14.4625C13.9269 14.4935 13.8297 14.5054 13.7331 14.4974C11.6089 14.2658 9.56866 13.5408 7.77592 12.3805C5.97059 11.2121 4.79748 10.0452 3.62323 8.23618C2.45657 6.43883 1.73013 4.39286 1.50249 2.26368C1.49451 2.16811 1.50622 2.07181 1.53699 1.98061C1.56826 1.88797 1.61854 1.80274 1.68472 1.73038C1.75091 1.65801 1.83156 1.6001 1.92159 1.56041C2.01153 1.52077 2.10911 1.5002 2.20753 1.50007L4.39396 1.50008L4.40132 1.50001ZM7.0646 3.78286C7.06446 3.78248 7.06432 3.78211 7.06418 3.78173L6.36233 4.04608L7.0646 3.78286C7.06453 3.78268 7.06467 3.78305 7.0646 3.78286Z" fill="#000001"/>
<path d="M10.3328 0.00465169C9.92112 -0.0410821 9.55032 0.255572 9.50458 0.667246C9.45885 1.07892 9.7555 1.44972 10.1672 1.49546C11.2743 1.61845 12.3068 2.11425 13.0949 2.90145C13.8831 3.68864 14.3802 4.72044 14.5046 5.82744C14.5509 6.23905 14.922 6.53524 15.3337 6.48899C15.7453 6.44274 16.0415 6.07156 15.9952 5.65994C15.8328 4.21479 15.1839 2.8678 14.1549 1.84013C13.126 0.812472 11.7782 0.165219 10.3328 0.00465169Z" fill="#000001"/>
<path d="M10.3936 2.52963C9.98706 2.45031 9.59319 2.71558 9.51388 3.12212C9.43456 3.52866 9.69982 3.92253 10.1064 4.00185C10.5741 4.09312 11.0041 4.32189 11.3411 4.6589C11.6781 4.99591 11.9068 5.42582 11.9981 5.8936C12.0774 6.30014 12.4713 6.56541 12.8778 6.48609C13.2844 6.40677 13.5497 6.0129 13.4703 5.60636C13.3219 4.84556 12.9498 4.14637 12.4017 3.59826C11.8536 3.05015 11.1544 2.67807 10.3936 2.52963Z" fill="#000001"/>
</g>
</g>
</svg>
