<svg width="24" height="24" viewBox="0 0 24 24" fill="none" xmlns="http://www.w3.org/2000/svg">
<g id="size=24">
<path id="Path" fill-rule="evenodd" clip-rule="evenodd" d="M6.89809 0.999721C7.57777 0.994354 8.23865 1.23583 8.75453 1.67843C9.27112 2.1222 9.60998 2.73963 9.7057 3.41378L9.70668 3.42062C9.82967 4.35095 10.0578 5.26595 10.3864 6.14523L9.68422 6.40988L10.3873 6.14718L10.4508 6.33566C10.5837 6.78367 10.6025 7.26043 10.5045 7.71945C10.3924 8.24409 10.131 8.72678 9.75356 9.10812L9.75063 9.11105L8.85414 10.0056C10.1401 12.0833 11.8958 13.8347 13.9782 15.1179L14.8786 14.2185C15.2604 13.842 15.7437 13.5823 16.2682 13.4704C16.7927 13.3591 17.3403 13.3996 17.8424 13.5876C18.7237 13.9156 19.6413 14.1435 20.5739 14.2663L20.5807 14.2673C21.2624 14.3636 21.887 14.7074 22.3327 15.2321C22.778 15.7572 23.0156 16.4286 22.9987 17.1169C22.9875 17.5694 22.9963 19.5356 22.9987 20.0759C22.9989 20.1212 22.9995 20.1581 22.9997 20.1814C23.0012 20.572 22.92 20.9602 22.7633 21.3181C22.6066 21.6756 22.3763 21.9976 22.0885 22.2614C21.8004 22.5251 21.4585 22.7271 21.0885 22.8523C20.7184 22.9771 20.3242 23.0238 19.9352 22.989L19.9215 22.987C16.6341 22.6305 13.4746 21.5091 10.6998 19.7136C7.93562 17.9245 6.09311 16.0921 4.2936 13.32C2.48771 10.5378 1.36322 7.36867 1.01235 4.07199L1.01137 4.06027C0.976303 3.67204 1.02258 3.27998 1.14711 2.91085C1.27179 2.54175 1.47303 2.20134 1.73598 1.91378C1.99889 1.62669 2.32016 1.39609 2.67641 1.23898C3.03273 1.08218 3.41989 1.00015 3.80922 0.999721H6.89809ZM3.8102 2.49972C3.62867 2.50001 3.44694 2.53905 3.2809 2.61203C3.11491 2.68532 2.96476 2.79298 2.84242 2.92648C2.72013 3.06025 2.62697 3.219 2.56899 3.39035C2.51164 3.56039 2.4892 3.74123 2.50453 3.91964C2.83118 6.9791 3.87524 9.92006 5.55141 12.5027C7.23519 15.0965 8.92615 16.7786 11.5143 18.4538C14.0902 20.1208 17.0237 21.1626 20.0758 21.4948C20.2553 21.51 20.4384 21.4889 20.609 21.4314C20.7814 21.3729 20.9408 21.2776 21.0748 21.155C21.2088 21.0321 21.3174 20.8817 21.3903 20.7155C21.4629 20.5493 21.5003 20.3685 21.4997 20.1872C21.4996 20.1656 21.4989 20.1308 21.4987 20.0866C21.4963 19.5585 21.4878 17.559 21.4997 17.0798C21.5074 16.7603 21.3963 16.4473 21.1891 16.2028C20.9823 15.9595 20.6917 15.7984 20.3747 15.7527C19.3311 15.615 18.3043 15.3601 17.318 14.9929L17.317 14.9919C17.0827 14.9041 16.8256 14.8854 16.5807 14.9372C16.3365 14.9893 16.1109 15.1104 15.9332 15.2849L15.9323 15.2868L14.6256 16.5896C14.3874 16.8271 14.0191 16.8771 13.7262 16.7116C11.029 15.1809 8.7945 12.9507 7.26039 10.2585C7.09339 9.9649 7.14348 9.59491 7.38246 9.35617L8.6891 8.05148C8.86407 7.87407 8.98573 7.64906 9.03774 7.40597C9.08958 7.1624 9.0707 6.90774 8.98305 6.67453L8.98207 6.67257C8.61395 5.68787 8.35841 4.66375 8.22035 3.62179C8.17528 3.30985 8.01774 3.0223 7.77797 2.81613C7.53716 2.60963 7.22678 2.49695 6.90883 2.49972H3.8102Z" fill="#000001"/>
</g>
</svg>
