<svg width="24" height="24" viewBox="0 0 24 24" fill="none" xmlns="http://www.w3.org/2000/svg">
<g id="size=24">
<path id="Path" fill-rule="evenodd" clip-rule="evenodd" d="M6.89799 1.00083C7.57732 0.995571 8.23873 1.2363 8.75443 1.67856C9.27099 2.12234 9.6099 2.74075 9.70561 3.41489L9.70658 3.42173C9.82965 4.35213 10.0586 5.26798 10.3872 6.14731C10.5756 6.64884 10.6162 7.19659 10.5044 7.72055C10.3921 8.24445 10.1304 8.72831 9.75346 9.10923L9.75053 9.11216L8.85404 10.0067C10.1399 12.084 11.8961 13.835 13.9781 15.118L14.8785 14.2196C15.26 13.8435 15.7442 13.5825 16.2681 13.4706C16.7921 13.3594 17.3406 13.4 17.8423 13.5877C18.7232 13.9156 19.6417 14.1436 20.5738 14.2665L20.5806 14.2674C21.262 14.3638 21.887 14.7079 22.3326 15.2323C22.7778 15.7571 23.0154 16.4289 22.9986 17.117C22.9874 17.571 22.9962 19.537 22.9986 20.077L22.9996 20.1815C23.001 20.5717 22.9196 20.9607 22.7632 21.3182C22.6065 21.6752 22.3758 21.999 22.0884 22.2625C21.8008 22.5256 21.4577 22.7274 21.0884 22.8524C20.7189 22.9768 20.3235 23.0238 19.9351 22.9891L19.9214 22.9881C16.6345 22.6314 13.4741 21.509 10.6997 19.7137C7.93579 17.9247 6.0929 16.0921 4.2935 13.3202C2.48784 10.5381 1.36319 7.36844 1.01225 4.07212L1.01127 4.0604C0.976344 3.67283 1.02287 3.27955 1.14701 2.91098C1.27155 2.54271 1.47366 2.20197 1.73588 1.91489C1.99843 1.62823 2.32067 1.39716 2.67631 1.24009C3.03215 1.08355 3.42035 1.00144 3.80912 1.00083H6.89799ZM3.8101 2.50083C3.62918 2.50129 3.44631 2.5395 3.2808 2.61216C3.11557 2.68532 2.96424 2.79374 2.84232 2.92661C2.7206 3.06009 2.62574 3.22069 2.56791 3.39145C2.5111 3.56074 2.48927 3.74223 2.50443 3.91977C2.83118 6.97901 3.87523 9.92136 5.55131 12.5038C7.2349 15.0972 8.92649 16.779 11.5142 18.454C14.0898 20.1206 17.0241 21.1636 20.0757 21.4959C20.2544 21.511 20.438 21.4885 20.608 21.4315C20.7796 21.3732 20.9411 21.2781 21.0747 21.1561C21.2082 21.0336 21.3174 20.8821 21.3902 20.7166C21.4626 20.5507 21.5001 20.3683 21.4996 20.1874L21.4986 20.0868C21.4962 19.5583 21.4877 17.5602 21.4996 17.0799C21.5072 16.7606 21.3961 16.4473 21.189 16.203C20.9823 15.9599 20.6913 15.7995 20.3746 15.7538C19.3314 15.616 18.3038 15.36 17.3179 14.993L17.3169 14.992C17.083 14.9046 16.8251 14.8857 16.5806 14.9374C16.3371 14.9896 16.1104 15.112 15.9331 15.286L15.9322 15.287L14.6255 16.5907C14.3872 16.827 14.0184 16.8768 13.7261 16.7118C11.0292 15.181 8.79429 12.9506 7.26029 10.2586C7.09375 9.96556 7.1435 9.595 7.38139 9.3563L8.689 8.05161C8.86338 7.87464 8.98549 7.64939 9.03764 7.40708C9.08941 7.16367 9.07048 6.90773 8.98295 6.67466L8.98197 6.6727C8.61403 5.68833 8.3583 4.66352 8.22025 3.62192C8.17514 3.31031 8.01731 3.0233 7.77787 2.81723C7.53722 2.611 7.22639 2.49817 6.90873 2.50083H3.8101ZM14.0142 4.88364C14.0939 4.47845 14.4877 4.21289 14.8931 4.29087C16.0829 4.52337 17.1793 5.10659 18.0367 5.96372C18.8939 6.82127 19.4771 7.91723 19.7095 9.10727C19.7876 9.51255 19.5216 9.90609 19.1167 9.98618C18.7114 10.0642 18.3167 9.79944 18.2369 9.39438C18.0617 8.49736 17.6222 7.67072 16.9761 7.02427C16.3298 6.37824 15.5028 5.93886 14.606 5.76352C14.201 5.68349 13.9359 5.28906 14.0142 4.88364ZM14.8326 0.00473425C17.1703 0.264863 19.3527 1.31337 21.0171 2.97544C22.6813 4.63798 23.7327 6.81846 23.9956 9.1561C24.041 9.5665 23.7437 9.93805 23.3335 9.9852C22.9231 10.0302 22.5512 9.73338 22.5044 9.32309C22.2795 7.32376 21.3809 5.45796 19.9576 4.03598C18.534 2.61456 16.6669 1.71857 14.6675 1.49595C14.2572 1.44946 13.9597 1.0783 14.0044 0.66782C14.0507 0.257353 14.422 -0.0398596 14.8326 0.00473425Z" fill="#000001"/>
</g>
</svg>
