<svg width="16" height="16" viewBox="0 0 16 16" fill="none" xmlns="http://www.w3.org/2000/svg">
<g id="size=16">
<path id="Vector (Stroke)" fill-rule="evenodd" clip-rule="evenodd" d="M4.87057 1.67099C4.74034 1.55921 4.57362 1.49834 4.40137 1.50003L4.39401 1.5001L2.20756 1.50008C2.20745 1.50008 2.20766 1.50008 2.20756 1.50008C2.10914 1.50022 2.01155 1.52078 1.92161 1.56043C1.83159 1.60012 1.75093 1.65803 1.68474 1.7304C1.61856 1.80276 1.56827 1.88799 1.53701 1.98063C1.50623 2.07184 1.49453 2.16814 1.50251 2.26371C1.73015 4.39291 2.4566 6.43891 3.62327 8.23627C4.79753 10.0453 5.97066 11.2122 7.77601 12.3807C9.56877 13.541 11.609 14.266 13.7333 14.4976C13.8298 14.5055 13.9271 14.4936 14.0188 14.4627C14.1124 14.4311 14.1982 14.3804 14.2708 14.3139C14.3434 14.2474 14.4012 14.1666 14.4406 14.0768C14.4799 13.9869 14.5 13.8899 14.4996 13.7919C14.4996 13.7768 14.4995 13.7527 14.4993 13.721C14.4977 13.3496 14.4913 11.9293 14.4998 11.5873C14.5041 11.4149 14.4448 11.2467 14.3326 11.1146C14.2211 10.9832 14.065 10.8968 13.8937 10.872C13.1392 10.7724 12.3983 10.5881 11.6852 10.3225L11.6835 10.3219C11.5566 10.2742 11.4186 10.2639 11.2859 10.2922C11.1538 10.3203 11.0327 10.3854 10.9367 10.4797C10.9363 10.4801 10.9359 10.4805 10.9355 10.4809L10.0125 11.402C9.77393 11.6401 9.40575 11.6898 9.11257 11.5234C7.17006 10.4211 5.56151 8.81578 4.45676 6.87675C4.28937 6.58296 4.33927 6.21349 4.5786 5.97463L5.50278 5.05227C5.5972 4.9565 5.66213 4.83599 5.69013 4.70496C5.71825 4.57337 5.70799 4.43649 5.66053 4.31048L5.6599 4.30878C5.39372 3.59688 5.20894 2.85723 5.10907 2.10391C5.08459 1.93594 5.00005 1.78212 4.87057 1.67099ZM4.39069 7.06093e-05C4.92464 -0.00419468 5.44223 0.184908 5.84751 0.532758C6.25386 0.881522 6.51955 1.36612 6.59464 1.89637L6.59562 1.90328C6.68051 2.54564 6.83791 3.17639 7.0649 3.78347L6.36241 4.04612L7.06426 3.78177C7.21298 4.17662 7.24518 4.60581 7.15701 5.01842C7.06883 5.43103 6.86403 5.80957 6.56709 6.10926L6.56414 6.11224L6.05445 6.6209C6.90592 7.94896 8.03637 9.07692 9.36752 9.92652L9.8818 9.41326C10.1821 9.11692 10.561 8.91286 10.9736 8.82504C11.3858 8.73731 11.8145 8.7692 12.2091 8.91698C12.8175 9.14351 13.4496 9.30065 14.0935 9.3854L14.1001 9.38628C14.6361 9.46173 15.1258 9.7312 15.4761 10.1438C15.8264 10.5564 16.0128 11.0834 15.9993 11.6246C15.9915 11.9402 15.9976 13.3279 15.9993 13.711C15.9994 13.7436 15.9996 13.769 15.9996 13.7858C16.0009 14.0931 15.9378 14.3972 15.8145 14.6787C15.6912 14.9602 15.5104 15.2127 15.2837 15.4202C15.0571 15.6277 14.7896 15.7856 14.4985 15.8839C14.2074 15.9821 13.8989 16.0186 13.5929 15.991L13.5794 15.9898C11.2196 15.7339 8.95274 14.929 6.961 13.6399C4.97964 12.3576 3.65507 11.0403 2.3651 9.05296C1.06879 7.05587 0.262 4.78201 0.0102034 2.41558L0.00895704 2.40387C-0.018682 2.09862 0.0178435 1.79117 0.115766 1.501C0.213728 1.21072 0.371144 0.944083 0.577909 0.718026C0.784669 0.491973 1.03624 0.311457 1.31655 0.187886C1.59686 0.0643176 1.89982 0.000376797 2.20615 8.88482e-05L4.39069 7.06093e-05Z" fill="#000001"/>
</g>
</svg>
