<svg width="16" height="16" viewBox="0 0 16 16" fill="none" xmlns="http://www.w3.org/2000/svg">
<g id="size=16">
<g id="Path">
<path fill-rule="evenodd" clip-rule="evenodd" d="M7.74993 0.0498039C7.56428 0.0498039 7.38624 0.123553 7.25496 0.254826C7.12369 0.386099 7.04994 0.564145 7.04994 0.749793V8.24968C7.04994 8.63627 7.36334 8.94967 7.74993 8.94967H15.2498C15.6364 8.94967 15.9498 8.63627 15.9498 8.24968C15.9498 7.17286 15.7377 6.10658 15.3256 5.11172C14.9135 4.11687 14.3095 3.21292 13.5481 2.45149C12.7867 1.69006 11.8827 1.08606 10.8879 0.673982C9.89303 0.2619 8.82675 0.0498039 7.74993 0.0498039ZM8.44992 7.54969V1.48591C9.10271 1.55347 9.74354 1.71531 10.3521 1.96739C11.1771 2.30912 11.9268 2.81 12.5582 3.44143C13.1896 4.07285 13.6905 4.82247 14.0322 5.64747C14.2843 6.25607 14.4461 6.89689 14.5137 7.54969H8.44992Z" fill="#000001"/>
<path d="M5.118 2.17214C5.48913 1.98823 5.6409 1.53827 5.45699 1.16713C5.27307 0.795994 4.82311 0.644225 4.45197 0.828143C1.81531 2.13475 0 4.85471 0 8.00004C0 12.4183 3.58167 15.9999 7.99988 15.9999C11.1452 15.9999 13.8652 14.1846 15.1718 11.548C15.3557 11.1768 15.2039 10.7269 14.8328 10.5429C14.4617 10.359 14.0117 10.5108 13.8278 10.8819C12.7645 13.0275 10.5535 14.4999 7.99988 14.4999C4.41008 14.4999 1.49998 11.5898 1.49998 8.00004C1.49998 5.44646 2.97242 3.2354 5.118 2.17214Z" fill="#000001"/>
</g>
</g>
</svg>
