<svg width="16" height="16" viewBox="0 0 16 16" fill="none" xmlns="http://www.w3.org/2000/svg">
<g id="size=16">
<g id="Path">
<path fill-rule="evenodd" clip-rule="evenodd" d="M7.74997 0.0498042C7.56433 0.0498042 7.38628 0.123553 7.255 0.254828C7.12373 0.386102 7.04998 0.564148 7.04998 0.749798V8.24973C7.04998 8.63632 7.36338 8.94972 7.74997 8.94972H15.2499C15.6365 8.94972 15.9499 8.63632 15.9499 8.24973C15.9499 7.1729 15.7378 6.10661 15.3257 5.11175C14.9136 4.11689 14.3096 3.21294 13.5482 2.45151C12.7868 1.69007 11.8828 1.08607 10.8879 0.673986C9.89309 0.261902 8.8268 0.0498042 7.74997 0.0498042ZM8.44997 7.54973V1.48592C9.10277 1.55347 9.7436 1.71531 10.3522 1.96741C11.1772 2.30913 11.9268 2.81001 12.5583 3.44145C13.1897 4.07288 13.6906 4.8225 14.0323 5.6475C14.2844 6.2561 14.4462 6.89693 14.5138 7.54973H8.44997Z" fill="#000001"/>
<path d="M5.11803 2.17216C5.48917 1.98824 5.64094 1.53827 5.45702 1.16714C5.2731 0.795999 4.82314 0.644228 4.452 0.828148C1.81532 2.13477 0 4.85474 0 8.00009C0 12.4183 3.58169 16 7.99992 16C11.1453 16 13.8652 14.1847 15.1719 11.548C15.3558 11.1769 15.204 10.7269 14.8329 10.543C14.4617 10.3591 14.0118 10.5108 13.8279 10.882C12.7646 13.0276 10.5535 14.5 7.99992 14.5C4.41011 14.5 1.49999 11.5899 1.49999 8.00009C1.49999 5.44649 2.97244 3.23541 5.11803 2.17216Z" fill="#000001"/>
</g>
</g>
</svg>
