<svg width="16" height="16" viewBox="0 0 16 16" fill="none" xmlns="http://www.w3.org/2000/svg">
<g id="size=16">
<path id="Path" d="M4.45215 0.828125C4.82322 0.644303 5.27308 0.795986 5.45703 1.16699C5.64092 1.53807 5.48917 1.98789 5.11816 2.17188C2.9726 3.23512 1.50006 5.44644 1.5 8C1.5 11.5899 4.41015 14.5 8 14.5C10.5536 14.5 12.7649 13.0274 13.8281 10.8818C14.0121 10.5109 14.462 10.3591 14.833 10.543C15.2041 10.7269 15.3557 11.1767 15.1719 11.5479C13.8652 14.1846 11.1454 16 8 16C3.58172 16 0 12.4183 0 8C6.40294e-05 4.85469 1.81549 2.13473 4.45215 0.828125ZM7.75 0.0498047C8.82671 0.0498047 9.89293 0.261838 10.8877 0.673828C11.8824 1.08584 12.7865 1.68993 13.5479 2.45117C14.3092 3.21254 14.9141 4.11657 15.3262 5.11133C15.7383 6.1062 15.9502 7.17316 15.9502 8.25C15.9501 8.63651 15.6365 8.9502 15.25 8.9502H7.75C7.36349 8.95017 7.04991 8.63649 7.0498 8.25V0.75C7.0498 0.564406 7.12368 0.386147 7.25488 0.254883C7.38615 0.123619 7.56437 0.0498176 7.75 0.0498047ZM8.4502 7.5498H14.5137C14.4461 6.89701 14.2843 6.25606 14.0322 5.64746C13.6905 4.82254 13.19 4.07279 12.5586 3.44141C11.9272 2.81005 11.1774 2.3095 10.3525 1.96777C9.74399 1.7157 9.10293 1.5539 8.4502 1.48633V7.5498Z" fill="#000001"/>
</g>
</svg>
