<svg width="24" height="24" viewBox="0 0 24 24" fill="none" xmlns="http://www.w3.org/2000/svg">
<g id="size=24">
<path id="Path" d="M7.45898 1.97852C7.83617 1.80737 8.28099 1.97438 8.45215 2.35156C8.62324 2.72875 8.45628 3.17359 8.0791 3.34473C4.78729 4.83849 2.50008 8.15281 2.5 12C2.5 17.2467 6.75333 21.5 12 21.5C15.8474 21.5 19.1625 19.2129 20.6562 15.9209C20.8274 15.544 21.2714 15.377 21.6484 15.5479C22.0256 15.719 22.1926 16.1638 22.0215 16.541C20.2934 20.3491 16.4572 23 12 23C5.92491 23 1 18.0751 1 12C1.00008 7.54291 3.65104 3.70655 7.45898 1.97852ZM11.75 1C13.2273 1 14.6908 1.2911 16.0557 1.85645C17.4204 2.4218 18.6605 3.25039 19.7051 4.29492C20.7496 5.33946 21.5782 6.57961 22.1436 7.94434C22.7089 9.30925 23 10.7726 23 12.25C23 12.6642 22.6642 13 22.25 13H11.75C11.3358 13 11 12.6642 11 12.25V1.75C11 1.55111 11.0791 1.36037 11.2197 1.21973C11.3604 1.07909 11.5511 1.00002 11.75 1ZM12.5 11.5H21.4707C21.3917 10.4765 21.1519 9.46989 20.7578 8.51855C20.2678 7.33574 19.5498 6.26077 18.6445 5.35547C17.7392 4.45018 16.6643 3.73216 15.4814 3.24219C14.5301 2.84815 13.5235 2.60827 12.5 2.5293V11.5Z" fill="#000001"/>
</g>
</svg>
