<svg width="16" height="16" viewBox="0 0 16 16" fill="none" xmlns="http://www.w3.org/2000/svg">
<g id="size=16">
<path id="Path" d="M4.45215 0.828125C4.8232 0.644381 5.2731 0.79602 5.45703 1.16699C5.64087 1.53803 5.48908 1.98787 5.11816 2.17188C2.9726 3.23512 1.50006 5.44644 1.5 8C1.5 11.5899 4.41015 14.5 8 14.5C10.5536 14.5 12.7649 13.0274 13.8281 10.8818C14.0121 10.5109 14.462 10.3591 14.833 10.543C15.204 10.7269 15.3556 11.1768 15.1719 11.5479C13.8653 14.1845 11.1453 16 8 16C3.58172 16 0 12.4183 0 8C6.40304e-05 4.85469 1.81549 2.13473 4.45215 0.828125ZM7.75 0.0498047C8.82666 0.0498212 9.89297 0.261855 10.8877 0.673828C11.8823 1.08584 12.7865 1.68995 13.5479 2.45117C14.3092 3.21252 14.9141 4.1166 15.3262 5.11133C15.7382 6.10619 15.9502 7.17318 15.9502 8.25C15.9501 8.63647 15.6365 8.95013 15.25 8.9502H7.75C7.36349 8.95017 7.04991 8.63649 7.0498 8.25V0.75C7.0498 0.564406 7.12368 0.386147 7.25488 0.254883C7.38614 0.123658 7.5644 0.0498176 7.75 0.0498047ZM8.4502 7.5498H14.5137C14.4461 6.89703 14.2843 6.25605 14.0322 5.64746C13.6905 4.82257 13.1899 4.07278 12.5586 3.44141C11.9273 2.81008 11.1774 2.3095 10.3525 1.96777C9.74403 1.71572 9.10289 1.55391 8.4502 1.48633V7.5498Z" fill="#000001"/>
</g>
</svg>
