<svg width="16" height="16" viewBox="0 0 16 16" fill="none" xmlns="http://www.w3.org/2000/svg">
<g id="size=16">
<g id="Path">
<path d="M5.92467 6.07357C6.21757 5.78068 6.69233 5.78068 6.98522 6.07357C7.27808 6.36647 7.2781 6.84124 6.98522 7.13412L6.32409 7.79525C6.20369 7.91555 6.04598 7.99129 5.87682 8.01009L3.82604 8.23763C4.34172 8.95014 5.02609 9.84775 5.58874 10.4105C6.15125 10.973 7.04906 11.6575 7.76159 12.1732L7.9901 10.1234L8.01452 9.99837C8.04945 9.87706 8.11471 9.76537 8.20495 9.67513L8.90026 8.9808C9.19316 8.68802 9.66795 8.68794 9.96081 8.9808C10.2534 9.27367 10.2535 9.74853 9.96081 10.0413L9.45104 10.5501L9.20397 12.7806C9.10128 13.7048 8.04481 14.2152 7.25963 13.6605C6.68069 13.2515 5.80181 12.6076 5.07995 11.9798L2.28014 14.7806C1.98729 15.0733 1.51245 15.0733 1.21959 14.7806C0.926752 14.4878 0.926852 14.013 1.21959 13.7201L4.0194 10.9193C3.39186 10.1975 2.74763 9.31931 2.33874 8.74056C1.78419 7.95547 2.29461 6.89906 3.21862 6.79623L5.45006 6.5472L5.92467 6.07357ZM9.12096 1.39974C9.57983 0.94972 10.2985 0.924566 10.786 1.32259L10.8807 1.40755L14.5887 5.11654C15.0765 5.60469 15.0767 6.39607 14.5887 6.88412L12.5741 8.89779C12.2812 9.19068 11.8064 9.19068 11.5135 8.89779C11.2208 8.60488 11.2207 8.13008 11.5135 7.83724L13.3505 6.00033L9.99401 2.64388L8.1112 4.49154C7.8155 4.78153 7.34069 4.77642 7.05065 4.4808C6.76062 4.18507 6.76469 3.71028 7.06041 3.42025L9.12096 1.39974Z" fill="#000001"/>
<path d="M1.46959 1.46975C1.76249 1.17686 2.23725 1.17686 2.53014 1.46975L15.0301 13.9698C15.323 14.2626 15.323 14.7374 15.0301 15.0303C14.7372 15.3232 14.2625 15.3232 13.9696 15.0303L1.46959 2.5303C1.1767 2.23741 1.1767 1.76265 1.46959 1.46975Z" fill="#000001"/>
</g>
</g>
</svg>
