<svg width="16" height="16" viewBox="0 0 16 16" fill="none" xmlns="http://www.w3.org/2000/svg">
<g id="size=16">
<path id="Path" fill-rule="evenodd" clip-rule="evenodd" d="M9.12133 1.39943C9.61083 0.919362 10.3957 0.923188 10.8805 1.408L14.5885 5.11617C15.0766 5.60433 15.0766 6.39577 14.5885 6.88392L12.5744 8.89797C12.4338 9.03862 12.243 9.11764 12.0441 9.11764H10.8842L9.45165 10.5502L9.20378 12.781C9.10109 13.7052 8.0446 14.2156 7.25943 13.6609C6.68058 13.2519 5.80116 12.6089 5.07936 11.9813L2.28033 14.7803C1.98744 15.0732 1.51256 15.0732 1.21967 14.7803C0.926777 14.4874 0.926777 14.0126 1.21967 13.7197L4.0187 10.9206C3.39106 10.1988 2.74804 9.31941 2.33908 8.74056C1.78434 7.95539 2.29479 6.89889 3.21899 6.79621L5.44982 6.54834L6.83578 5.16237V3.95587C6.83578 3.75443 6.91681 3.56146 7.06063 3.42041L9.12133 1.39943ZM9.99485 2.64372L8.33578 4.27082V5.47304C8.33578 5.67195 8.25676 5.86271 8.11611 6.00337L6.32445 7.79503C6.20402 7.91545 6.0462 7.9913 5.87694 8.01011L3.82387 8.23823C4.33971 8.95099 5.02626 9.84795 5.58915 10.4108C6.15204 10.9737 7.049 11.6603 7.76176 12.1761L7.98988 10.123C8.00869 9.95378 8.08454 9.79596 8.20496 9.67554L10.0432 7.83731C10.1839 7.69665 10.3746 7.61764 10.5735 7.61764H11.7335L13.3511 6.00004L9.99485 2.64372Z" fill="#000001"/>
</g>
</svg>
