<svg width="16" height="16" viewBox="0 0 16 16" fill="none" xmlns="http://www.w3.org/2000/svg">
<g id="size=16">
<path id="Path" fill-rule="evenodd" clip-rule="evenodd" d="M9.12103 1.39957C9.61057 0.919982 10.3962 0.923705 10.8808 1.40836L14.5888 5.11637C15.0749 5.60442 15.0756 6.39635 14.5888 6.88395L12.5742 8.89859C12.434 9.03856 12.2419 9.1168 12.0439 9.11734H10.8837L9.45111 10.55L9.20404 12.7814C9.1007 13.704 8.04431 14.2132 7.25971 13.6613C6.68133 13.2527 5.80052 12.6088 5.07904 11.9816L2.28021 14.7804C1.98787 15.0728 1.51269 15.0717 1.21967 14.7804C0.926776 14.4875 0.926779 14.0128 1.21967 13.7199L4.0185 10.9211C3.39149 10.2 2.74783 9.31927 2.33881 8.74039C1.78445 7.95529 2.2947 6.89882 3.21869 6.79605L5.45014 6.54898L6.83588 5.16227V3.95621C6.83589 3.7549 6.91683 3.56207 7.06049 3.42105L9.12103 1.39957ZM8.33588 4.27066V5.47281C8.33556 5.67093 8.25603 5.86279 8.11615 6.00309L6.32416 7.79508C6.20423 7.915 6.04538 7.99073 5.87689 8.00992L3.82416 8.23844C4.33984 8.95088 5.02644 9.84892 5.58881 10.4113C6.15176 10.9738 7.04962 11.6606 7.76166 12.1759L7.99018 10.1232C8.00901 9.954 8.08464 9.79632 8.20502 9.67594L10.0429 7.83707C10.1835 7.69684 10.3746 7.6174 10.5732 7.61734H11.7333L13.3505 6.00016L9.99506 2.64371L8.33588 4.27066Z" fill="#000001"/>
</g>
</svg>
