<svg width="24" height="24" viewBox="0 0 24 24" fill="none" xmlns="http://www.w3.org/2000/svg">
<g id="size=24">
<g id="Path">
<path d="M9.53608 9.51783C9.82893 9.22497 10.3037 9.22504 10.5966 9.51783C10.8895 9.81072 10.8895 10.2855 10.5966 10.5784L9.6269 11.5481C9.50651 11.6684 9.34876 11.7442 9.17963 11.7629L6.43842 12.0676C6.24335 12.0893 6.18044 12.2868 6.27045 12.4114C6.9628 13.3699 7.89214 14.5848 8.65522 15.3479C9.41837 16.1111 10.6341 17.0403 11.5927 17.7327C11.7173 17.8225 11.9137 17.7605 11.9355 17.5657L12.2402 14.8235C12.259 14.6544 12.3348 14.4966 12.455 14.3762L13.3564 13.4758C13.6493 13.183 14.124 13.1829 14.4169 13.4758C14.7095 13.7687 14.7097 14.2436 14.4169 14.5364L13.7021 15.2502L13.4267 17.7307C13.2829 19.0252 11.8042 19.7361 10.7138 18.9485C9.94038 18.3898 8.94733 17.6387 8.14252 16.9211L4.28022 20.7835C3.98732 21.0763 3.51256 21.0763 3.21967 20.7835C2.92693 20.4905 2.92683 20.0157 3.21967 19.7229L7.08197 15.8596C6.36458 15.0548 5.61312 14.0625 5.05463 13.2893C4.26707 12.199 4.97789 10.7203 6.2724 10.5764L8.7519 10.301L9.53608 9.51783ZM13.6142 3.48267C14.2994 2.80998 15.3991 2.81449 16.0781 3.49341L20.5029 7.91919C21.1863 8.60261 21.1863 9.71039 20.5029 10.3938L17.8906 13.0061C17.5977 13.2989 17.1229 13.299 16.83 13.0061C16.5374 12.7132 16.5373 12.2384 16.83 11.9456L19.4423 9.33326C19.5399 9.23563 19.54 9.07737 19.4423 8.97974L15.0175 4.55494C14.9205 4.45794 14.7629 4.45688 14.665 4.55298L11.9912 7.17798C11.6956 7.46808 11.2208 7.46376 10.9306 7.16822C10.6405 6.87267 10.6449 6.39785 10.9404 6.10767L13.6142 3.48267Z" fill="#000001"/>
<path d="M1.46967 1.46973C1.76256 1.17684 2.23732 1.17684 2.53022 1.46973L23.0302 21.9697C23.3231 22.2626 23.3231 22.7374 23.0302 23.0303C22.7373 23.3232 22.2626 23.3232 21.9697 23.0303L1.46967 2.53028C1.17678 2.23738 1.17678 1.76262 1.46967 1.46973Z" fill="#000001"/>
</g>
</g>
</svg>
