<svg width="16" height="16" viewBox="0 0 16 16" fill="none" xmlns="http://www.w3.org/2000/svg">
<g id="size=16">
<g id="Path">
<path d="M4.31958 8.60217C4.64345 8.60217 4.73943 8.56143 4.84742 8.38621C4.91459 8.27346 4.94337 8.15111 4.94338 7.95439C4.94338 7.56573 4.74426 7.33061 4.41074 7.33061H3.90691V8.60217H4.31958Z" fill="#000001"/>
<path d="M5.17608 11.7979C5.01536 11.7979 4.92417 11.9251 4.91459 12.1795H5.43282C5.43041 12.0475 5.4136 11.9659 5.38007 11.906C5.34162 11.8387 5.26247 11.7979 5.17608 11.7979Z" fill="#000001"/>
<path d="M4.23082 12.6833C4.27877 12.6473 4.30038 12.5945 4.30038 12.5945L4.29797 12.5945V11.9419C4.24039 11.8555 4.15643 11.8147 4.02208 11.8147C3.9333 11.8147 3.85891 11.858 3.81095 11.9419C3.7582 12.0355 3.73897 12.1243 3.73897 12.297C3.73897 12.4409 3.74855 12.5465 3.78455 12.6185C3.83734 12.7217 3.90691 12.7624 4.01245 12.7624C4.10606 12.7624 4.15884 12.7409 4.23082 12.6833Z" fill="#000001"/>
<path d="M9.83542 12.652V12.7121H9.86659C9.88574 12.7121 9.90497 12.7072 9.90497 12.6808C9.90497 12.6569 9.88575 12.652 9.86659 12.652H9.83542Z" fill="#000001"/>
<path fill-rule="evenodd" clip-rule="evenodd" d="M9.73701 12.7265C9.73701 12.8104 9.79221 12.8705 9.86421 12.8705C9.93375 12.8705 9.99133 12.8104 9.99133 12.7265C9.99133 12.6425 9.93615 12.5825 9.86421 12.5825C9.79458 12.5825 9.73701 12.6425 9.73701 12.7265ZM9.86895 12.6233C9.91695 12.6233 9.94096 12.6401 9.94096 12.6833C9.94096 12.7169 9.92179 12.7336 9.89062 12.736L9.94098 12.8249H9.90499L9.85459 12.7385H9.83304V12.8273H9.79701V12.6233H9.86895Z" fill="#000001"/>
<path d="M11.4117 8.28308C11.1238 8.28308 10.9582 8.45104 10.9582 8.73895C10.9582 9.05323 11.1382 9.17802 11.4045 9.17559C11.7068 9.17559 11.8699 9.02206 11.8699 8.73895C11.8699 8.45104 11.702 8.28308 11.4117 8.28308Z" fill="#000001"/>
<path fill-rule="evenodd" clip-rule="evenodd" d="M1.75 1.75H14.25V14.25H1.75V1.75ZM4.14925 6.6516C4.81864 6.6516 5.02255 6.72357 5.24326 6.85556C5.61036 7.07148 5.80951 7.45534 5.80711 7.93521C5.80711 8.48701 5.5576 8.93082 5.12815 9.14677C4.94817 9.23795 4.77785 9.28594 4.34118 9.28594H3.90692V10.8215H3.11277V6.6516H4.14925ZM3.29512 11.2149H3.11276V12.9064H3.29512V11.2149ZM4.84499 11.8171C4.93616 11.702 5.04893 11.6468 5.18566 11.6468C5.31047 11.6468 5.41601 11.6948 5.49042 11.7788C5.58879 11.8868 5.61518 12.0043 5.61994 12.297V12.3234H4.91218V12.3522C4.91218 12.4673 4.92658 12.5561 4.96495 12.6208C5.02971 12.7288 5.1329 12.7721 5.24808 12.7721C5.35844 12.7721 5.44722 12.736 5.5264 12.6569L5.59597 12.7792C5.49515 12.8776 5.35842 12.9328 5.2121 12.9328C4.89778 12.9328 4.70827 12.6881 4.70827 12.2802C4.70827 12.0739 4.74903 11.9395 4.84499 11.8171ZM6.70199 11.9755C6.70199 11.9251 6.69486 11.8747 6.67563 11.8316C6.63001 11.7236 6.51969 11.6516 6.3973 11.6492C6.27731 11.6492 6.15737 11.7116 6.03979 11.8387C6.03979 11.738 5.99902 11.6468 5.99902 11.6468L5.82632 11.6996C5.82632 11.6996 5.86944 11.7836 5.86944 11.9587V12.9064H6.04222V11.9923C6.12377 11.8987 6.26532 11.8195 6.35654 11.8195C6.4093 11.8195 6.45724 11.8411 6.48128 11.8723C6.51243 11.9131 6.52207 11.9467 6.52207 12.0763V12.9064H6.70199V11.9755ZM6.51725 6.40693C6.25818 6.40693 6.04222 6.62764 6.04222 6.90352C6.04222 7.17946 6.25335 7.40259 6.5053 7.40259C6.76437 7.40259 6.97551 7.17946 6.97551 6.90352C6.97551 6.63001 6.77159 6.40693 6.51725 6.40693ZM6.88677 7.67605L6.1286 7.80325V10.8191H6.88677V7.67605ZM7.48656 11.6804H7.19145V11.2149H7.00912V11.6804H6.86038V11.8267H7.00912V12.6689C7.00912 12.7936 7.04033 12.8728 7.11948 12.9136C7.16267 12.9352 7.20824 12.9472 7.26819 12.9472C7.34739 12.9472 7.36899 12.9376 7.42656 12.9064L7.40258 12.784C7.38727 12.7917 7.38193 12.7958 7.37588 12.7981C7.36865 12.8008 7.36042 12.8008 7.33302 12.8008C7.22026 12.8008 7.18664 12.7553 7.18664 12.6185V11.8267H7.43139L7.48656 11.6804ZM4.30279 11.2149H4.48034L4.48033 12.5082C4.48033 12.7193 4.4875 12.832 4.51389 12.904H4.33158C4.33158 12.904 4.30995 12.8441 4.30755 12.7792C4.22599 12.8824 4.13961 12.9232 4.00768 12.9232C3.71259 12.9232 3.54465 12.6928 3.54465 12.3018C3.54465 12.0403 3.6238 11.8483 3.77974 11.7332C3.85175 11.678 3.91649 11.6564 3.99805 11.6564C4.12522 11.6564 4.23798 11.714 4.30514 11.8123C4.30514 11.8123 4.30279 11.7116 4.30279 11.6228V11.2149ZM9.39872 12.9496L9.78742 11.678H9.58109L9.35794 12.4841C9.33155 12.5849 9.28835 12.7433 9.28835 12.7433H9.28356C9.28356 12.7433 9.24995 12.5537 9.21639 12.4386L8.98368 11.642L8.80849 11.7068L9.05569 12.4745C9.09405 12.5969 9.15399 12.8368 9.16846 12.916C9.16846 12.916 9.17802 12.9592 9.19724 13.0551C9.14679 13.1896 9.08922 13.2423 8.97885 13.2807L9.03164 13.4102C9.23078 13.3599 9.32192 13.1967 9.39872 12.9496ZM9.69387 12.7265C9.69387 12.6281 9.77066 12.5465 9.86421 12.5465C9.95776 12.5465 10.0321 12.6257 10.0346 12.7265C10.0346 12.8249 9.95776 12.9064 9.86421 12.9064C9.77066 12.9064 9.69387 12.8249 9.69387 12.7265ZM11.2917 10.0321L11.6996 10.0369C12.1411 10.0417 12.3738 10.1137 12.5825 10.3129C12.7528 10.4809 12.832 10.6919 12.832 10.9679C12.832 11.2269 12.7576 11.4237 12.5993 11.6036C12.345 11.8916 11.9084 11.9995 11.4549 11.9995C11.0422 11.9995 10.6175 11.9275 10.356 11.6684C10.1977 11.5125 10.1185 11.3325 10.1185 11.1238C10.1185 10.9558 10.1569 10.8718 10.1857 10.8119H10.8887C10.8599 10.8839 10.8551 10.9247 10.8551 11.0086C10.8551 11.2557 11.0494 11.3877 11.3997 11.3877C11.5916 11.3877 11.7548 11.3661 11.8747 11.287C11.9875 11.215 12.0619 11.1022 12.0619 10.975C12.0619 10.6991 11.8292 10.6128 11.5292 10.6079L11.2054 10.6007C10.8647 10.5935 10.6439 10.5648 10.5072 10.5048C10.3705 10.4521 10.2865 10.3152 10.2865 10.1041C10.2865 9.90737 10.3417 9.72027 10.8191 9.58823C10.3992 9.47312 10.1953 9.19241 10.1953 8.73656C10.1953 8.10552 10.6776 7.69764 11.4189 7.69764C11.5821 7.69764 11.7308 7.72167 11.9395 7.77443C12.0979 7.81768 12.2011 7.84163 12.297 7.84163C12.5058 7.84163 12.7217 7.74567 12.8968 7.5777L13.2135 8.08876C13.048 8.24951 12.8896 8.31667 12.6808 8.31667C12.6222 8.31667 12.5605 8.30923 12.5147 8.3037C12.5025 8.30223 12.4914 8.30089 12.4818 8.29986C12.5945 8.44382 12.652 8.59978 12.652 8.80372C12.652 9.33156 12.1963 9.71542 11.5796 9.71542C11.546 9.71542 11.5244 9.71542 11.4669 9.70822C11.2749 9.80417 11.167 9.87618 11.167 9.96014C11.167 10.0009 11.2126 10.0321 11.2917 10.0321ZM8.26389 8.65019C8.4414 8.48223 8.63813 8.37425 8.79173 8.37425C8.99087 8.37425 9.04606 8.47743 9.04606 8.82052V10.8191H9.79459V8.57578C9.79459 8.38389 9.77784 8.25191 9.73702 8.13916C9.64586 7.87524 9.36274 7.69528 9.03887 7.69528C8.86852 7.69528 8.67179 7.74326 8.5182 7.82722C8.39642 7.89747 8.30208 7.96775 8.19275 8.04919L8.18474 8.05516C8.18474 7.92799 8.14391 7.79844 8.07675 7.67129L7.40258 7.87524C7.46974 8.07911 7.50336 8.33105 7.50336 8.59499V10.8215H8.26389V8.65019ZM8.40304 12.6161V11.8244H8.63812L8.69336 11.678H8.40782V11.2126H8.22549V11.678H8.07674V11.8244H8.22549V12.6665C8.22549 12.7912 8.25666 12.8705 8.33587 12.9112C8.37902 12.9328 8.42463 12.9448 8.48467 12.9448C8.56379 12.9448 8.58534 12.9352 8.64298 12.904L8.61899 12.7816C8.6115 12.7854 8.60639 12.7883 8.60243 12.7906C8.58857 12.7985 8.58857 12.7985 8.54944 12.7985C8.43667 12.7985 8.40304 12.7528 8.40304 12.6161ZM7.86322 11.6516L7.67851 11.6828V12.9064H7.86322V11.6516Z" fill="#000001"/>
</g>
</g>
</svg>
