<svg width="24" height="24" viewBox="0 0 24 24" fill="none" xmlns="http://www.w3.org/2000/svg">
<g id="size=24">
<g id="Path">
<path d="M6.90922 12.8329C7.3572 12.8329 7.48996 12.7765 7.63933 12.5342C7.73224 12.3782 7.77205 12.209 7.77206 11.9369C7.77206 11.3993 7.49664 11.0741 7.03531 11.0741H6.33842V12.8329H6.90922Z" fill="#000001"/>
<path d="M8.09393 17.2533C7.87163 17.2533 7.74549 17.4292 7.73224 17.781H8.44906C8.44572 17.5984 8.42247 17.4856 8.37609 17.4027C8.32292 17.3097 8.21343 17.2533 8.09393 17.2533Z" fill="#000001"/>
<path d="M6.78645 18.4779C6.85277 18.4282 6.88266 18.3551 6.88266 18.3551L6.87933 18.355V17.4525C6.79969 17.3329 6.68355 17.2765 6.49773 17.2765C6.37492 17.2765 6.27203 17.3363 6.20569 17.4525C6.13272 17.5819 6.10613 17.7046 6.10613 17.9436C6.10613 18.1427 6.11938 18.2887 6.16917 18.3883C6.24218 18.531 6.33842 18.5874 6.4844 18.5874C6.61388 18.5874 6.68689 18.5576 6.78645 18.4779Z" fill="#000001"/>
<path d="M14.5387 18.4347V18.5177H14.5819C14.6083 18.5177 14.6349 18.511 14.6349 18.4745C14.6349 18.4414 14.6084 18.4347 14.5819 18.4347H14.5387Z" fill="#000001"/>
<path fill-rule="evenodd" clip-rule="evenodd" d="M14.4026 18.5376C14.4026 18.6538 14.479 18.7368 14.5786 18.7368C14.6748 18.7368 14.7544 18.6538 14.7544 18.5376C14.7544 18.4215 14.6781 18.3385 14.5786 18.3385C14.4822 18.3385 14.4026 18.4215 14.4026 18.5376ZM14.5851 18.3949C14.6515 18.3949 14.6847 18.4181 14.6847 18.4779C14.6847 18.5244 14.6582 18.5475 14.6151 18.5509L14.6847 18.6737H14.635L14.5652 18.5542H14.5354V18.6771H14.4856V18.3949H14.5851Z" fill="#000001"/>
<path d="M16.719 12.3915C16.3208 12.3915 16.0918 12.6239 16.0918 13.0221C16.0918 13.4568 16.3407 13.6294 16.7091 13.6261C17.1272 13.6261 17.3529 13.4137 17.3529 13.0221C17.3529 12.6239 17.1206 12.3915 16.719 12.3915Z" fill="#000001"/>
<path fill-rule="evenodd" clip-rule="evenodd" d="M3.35498 3.35498H20.645V20.645H3.35498V3.35498ZM6.67363 10.1349C7.59952 10.1349 7.88157 10.2344 8.18686 10.417C8.69464 10.7157 8.9701 11.2466 8.96678 11.9104C8.96678 12.6736 8.62166 13.2875 8.02763 13.5862C7.77868 13.7123 7.54311 13.7787 6.9391 13.7787H6.33843V15.9026H5.23997V10.1349H6.67363ZM5.49219 16.4469H5.23995V18.7865H5.49219V16.4469ZM7.63598 17.2798C7.76207 17.1206 7.91806 17.0442 8.10718 17.0442C8.27982 17.0442 8.42581 17.1106 8.52873 17.2268C8.66479 17.3761 8.70129 17.5388 8.70789 17.9436V17.9801H7.72891V18.0199C7.72891 18.1792 7.74883 18.302 7.80189 18.3915C7.89147 18.5409 8.03421 18.6007 8.19352 18.6007C8.34617 18.6007 8.46897 18.5509 8.5785 18.4414L8.67472 18.6106C8.53527 18.7467 8.34615 18.823 8.14375 18.823C7.70899 18.823 7.44686 18.4845 7.44686 17.9204C7.44686 17.635 7.50324 17.4491 7.63598 17.2798ZM10.2046 17.4989C10.2046 17.4292 10.1947 17.3595 10.1681 17.2998C10.105 17.1504 9.95241 17.0509 9.78313 17.0476C9.61715 17.0476 9.45126 17.1338 9.28862 17.3097C9.28862 17.1704 9.23223 17.0442 9.23223 17.0442L8.99335 17.1172C8.99335 17.1172 9.05299 17.2334 9.05299 17.4757V18.7865H9.29198V17.5221C9.40478 17.3927 9.60057 17.2832 9.72675 17.2832C9.79973 17.2832 9.86604 17.3131 9.89928 17.3562C9.94238 17.4126 9.9557 17.4591 9.9557 17.6383V18.7865H10.2046V17.4989ZM9.94904 9.79644C9.59069 9.79644 9.29198 10.1017 9.29198 10.4833C9.29198 10.865 9.58402 11.1736 9.93251 11.1736C10.2909 11.1736 10.5829 10.865 10.5829 10.4833C10.5829 10.105 10.3008 9.79644 9.94904 9.79644ZM10.4602 11.5519L9.41146 11.7278V15.8993H10.4602V11.5519ZM11.2898 17.0908H10.8816V16.4469H10.6294V17.0908H10.4237V17.2931H10.6294V18.458C10.6294 18.6305 10.6726 18.74 10.782 18.7965C10.8418 18.8263 10.9048 18.8429 10.9877 18.8429C11.0973 18.8429 11.1272 18.8297 11.2068 18.7865L11.1736 18.6173C11.1525 18.6278 11.1451 18.6336 11.1367 18.6367C11.1267 18.6404 11.1153 18.6404 11.0774 18.6404C10.9214 18.6404 10.8749 18.5774 10.8749 18.3883V17.2931H11.2135L11.2898 17.0908ZM6.886 16.4469H7.13158L7.13157 18.2357C7.13157 18.5277 7.14149 18.6836 7.17799 18.7832H6.92582C6.92582 18.7832 6.89591 18.7003 6.89258 18.6106C6.77977 18.7534 6.66029 18.8097 6.47781 18.8097C6.06963 18.8097 5.83734 18.4911 5.83734 17.9502C5.83734 17.5885 5.94682 17.323 6.16251 17.1637C6.26212 17.0874 6.35166 17.0575 6.46448 17.0575C6.64039 17.0575 6.79636 17.1371 6.88926 17.2732C6.88926 17.2732 6.886 17.1338 6.886 17.011V16.4469ZM13.9347 18.8462L14.4723 17.0874H14.1869L13.8783 18.2024C13.8418 18.3418 13.782 18.5609 13.782 18.5609H13.7754C13.7754 18.5609 13.7289 18.2987 13.6825 18.1394L13.3606 17.0376L13.1183 17.1272L13.4602 18.1892C13.5133 18.3584 13.5962 18.6903 13.6162 18.7997C13.6162 18.7997 13.6294 18.8595 13.656 18.9922C13.5862 19.1782 13.5066 19.2511 13.3539 19.3042L13.4269 19.4834C13.7024 19.4138 13.8285 19.188 13.9347 18.8462ZM14.3429 18.5376C14.3429 18.4016 14.4492 18.2887 14.5786 18.2887C14.708 18.2887 14.8109 18.3982 14.8142 18.5376C14.8142 18.6737 14.708 18.7865 14.5786 18.7865C14.4492 18.7865 14.3429 18.6737 14.3429 18.5376ZM16.5531 14.8108L17.1173 14.8174C17.7279 14.8241 18.0498 14.9236 18.3385 15.1992C18.5741 15.4315 18.6836 15.7234 18.6836 16.1051C18.6836 16.4634 18.5807 16.7356 18.3617 16.9845C18.01 17.3828 17.406 17.5321 16.7788 17.5321C16.208 17.5321 15.6206 17.4326 15.2588 17.0741C15.0398 16.8585 14.9303 16.6095 14.9303 16.3208C14.9303 16.0885 14.9834 15.9723 15.0232 15.8894H15.9956C15.9558 15.989 15.9492 16.0454 15.9492 16.1615C15.9492 16.5033 16.2179 16.6859 16.7025 16.6859C16.9679 16.6859 17.1936 16.656 17.3595 16.5465C17.5155 16.4469 17.6184 16.291 17.6184 16.115C17.6184 15.7334 17.2965 15.614 16.8816 15.6073L16.4336 15.5973C15.9624 15.5874 15.6571 15.5476 15.4679 15.4646C15.2788 15.3917 15.1627 15.2024 15.1627 14.9104C15.1627 14.6383 15.239 14.3795 15.8994 14.1968C15.3186 14.0376 15.0365 13.6493 15.0365 13.0188C15.0365 12.1459 15.7036 11.5818 16.729 11.5818C16.9547 11.5818 17.1604 11.615 17.4491 11.688C17.6682 11.7478 17.8109 11.7809 17.9436 11.7809C18.2324 11.7809 18.531 11.6482 18.7732 11.4159L19.2113 12.1228C18.9824 12.3451 18.7633 12.438 18.4745 12.438C18.3934 12.438 18.3081 12.4277 18.2447 12.4201C18.2278 12.418 18.2124 12.4162 18.1991 12.4147C18.3551 12.6139 18.4347 12.8296 18.4347 13.1117C18.4347 13.8418 17.8042 14.3728 16.9513 14.3728C16.9048 14.3728 16.875 14.3728 16.7954 14.3628C16.5299 14.4955 16.3806 14.5951 16.3806 14.7113C16.3806 14.7676 16.4436 14.8108 16.5531 14.8108ZM12.365 12.8993C12.6105 12.667 12.8826 12.5176 13.0951 12.5176C13.3706 12.5176 13.4469 12.6604 13.4469 13.1349V15.8993H14.4823V12.7964C14.4823 12.531 14.4591 12.3484 14.4026 12.1925C14.2765 11.8274 13.8849 11.5785 13.4369 11.5785C13.2013 11.5785 12.9292 11.6449 12.7168 11.761C12.5483 11.8582 12.4178 11.9554 12.2666 12.068L12.2555 12.0763C12.2555 11.9004 12.199 11.7212 12.1061 11.5453L11.1736 11.8274C11.2665 12.1094 11.313 12.4579 11.313 12.823V15.9026H12.365V12.8993ZM12.5575 18.3849V17.2899H12.8826L12.959 17.0874H12.5641V16.4436H12.3119V17.0874H12.1061V17.2899H12.3119V18.4546C12.3119 18.6272 12.355 18.7368 12.4646 18.7932C12.5242 18.823 12.5873 18.8396 12.6704 18.8396C12.7798 18.8396 12.8096 18.8263 12.8893 18.7832L12.8562 18.6139C12.8458 18.6191 12.8387 18.6232 12.8333 18.6263C12.8141 18.6372 12.8141 18.6372 12.76 18.6372C12.604 18.6372 12.5575 18.5741 12.5575 18.3849ZM11.8108 17.0509L11.5553 17.094V18.7865H11.8108V17.0509Z" fill="#000001"/>
</g>
</g>
</svg>
