<svg width="24" height="24" viewBox="0 0 24 24" fill="none" xmlns="http://www.w3.org/2000/svg">
<g id="size=24">
<path id="Path" d="M5.75 4.5C6.90814 4.5 7.86197 5.37501 7.98633 6.5H9.81934C11.6142 6.5001 13.0693 7.95514 13.0693 9.75V14.25C13.0693 15.2165 13.8528 16 14.8193 16H16.0137C16.138 14.875 17.0919 14 18.25 14H19.25C20.4926 14 21.5 15.0074 21.5 16.25V17.25C21.5 18.4926 20.4926 19.5 19.25 19.5H18.25C17.0919 19.5 16.138 18.625 16.0137 17.5H14.8193C13.0244 17.5 11.5693 16.0449 11.5693 14.25V9.75C11.5693 8.78356 10.7857 8.0001 9.81934 8H7.98633C7.86197 9.12499 6.90814 10 5.75 10H4.75C3.50736 10 2.5 8.99264 2.5 7.75V6.75C2.5 5.50736 3.50736 4.5 4.75 4.5H5.75ZM18.25 15.5C17.8358 15.5 17.5 15.8358 17.5 16.25V17.25C17.5 17.6642 17.8358 18 18.25 18H19.25C19.6642 18 20 17.6642 20 17.25V16.25C20 15.8358 19.6642 15.5 19.25 15.5H18.25ZM4.75 6C4.33579 6 4 6.33579 4 6.75V7.75C4 8.16421 4.33579 8.5 4.75 8.5H5.75C6.16421 8.5 6.5 8.16421 6.5 7.75V6.75C6.5 6.33579 6.16421 6 5.75 6H4.75Z" fill="#000001"/>
</g>
</svg>
