<svg width="16" height="16" viewBox="0 0 16 16" fill="none" xmlns="http://www.w3.org/2000/svg">
<g id="size=16">
<path id="Path" fill-rule="evenodd" clip-rule="evenodd" d="M2.75 2.5C1.7835 2.5 1 3.2835 1 4.25V5.25C1 6.2165 1.7835 7 2.75 7H3.75C4.63162 7 5.36097 6.34807 5.48228 5.5H6.5C6.91421 5.5 7.25 5.83579 7.25 6.25V9.75C7.25 10.9926 8.25736 12 9.5 12H10.5177C10.639 12.8481 11.3684 13.5 12.25 13.5H13.25C14.2165 13.5 15 12.7165 15 11.75V10.75C15 9.7835 14.2165 9 13.25 9H12.25C11.3684 9 10.639 9.65193 10.5177 10.5H9.5C9.08579 10.5 8.75 10.1642 8.75 9.75V6.25C8.75 5.00736 7.74264 4 6.5 4H5.48228C5.36097 3.15193 4.63162 2.5 3.75 2.5H2.75ZM2.5 4.25C2.5 4.11193 2.61193 4 2.75 4H3.75C3.88807 4 4 4.11193 4 4.25V5.25C4 5.38807 3.88807 5.5 3.75 5.5H2.75C2.61193 5.5 2.5 5.38807 2.5 5.25V4.25ZM12.25 10.5C12.1119 10.5 12 10.6119 12 10.75V11.75C12 11.8881 12.1119 12 12.25 12H13.25C13.3881 12 13.5 11.8881 13.5 11.75V10.75C13.5 10.6119 13.3881 10.5 13.25 10.5H12.25Z" fill="#000001"/>
</g>
</svg>
