<svg width="24" height="24" viewBox="0 0 24 24" fill="none" xmlns="http://www.w3.org/2000/svg">
<g id="size=24">
<path id="Path" fill-rule="evenodd" clip-rule="evenodd" d="M4.75 4.5C3.50736 4.5 2.5 5.50736 2.5 6.75V7.75C2.5 8.99264 3.50736 10 4.75 10H5.75C6.90814 10 7.86191 9.12499 7.98627 8H9.81915C10.7856 8 11.5691 8.7835 11.5691 9.75V14.25C11.5691 16.0449 13.0242 17.5 14.8192 17.5H16.0137C16.1381 18.625 17.0919 19.5 18.25 19.5H19.25C20.4926 19.5 21.5 18.4926 21.5 17.25V16.25C21.5 15.0074 20.4926 14 19.25 14H18.25C17.0919 14 16.1381 14.875 16.0137 16H14.8192C13.8527 16 13.0691 15.2165 13.0691 14.25V9.75C13.0691 7.95507 11.6141 6.5 9.81915 6.5H7.98627C7.86191 5.37501 6.90814 4.5 5.75 4.5H4.75ZM4 6.75C4 6.33579 4.33579 6 4.75 6H5.75C6.16421 6 6.5 6.33579 6.5 6.75V7.75C6.5 8.16421 6.16421 8.5 5.75 8.5H4.75C4.33579 8.5 4 8.16421 4 7.75V6.75ZM18.25 15.5C17.8358 15.5 17.5 15.8358 17.5 16.25V17.25C17.5 17.6642 17.8358 18 18.25 18H19.25C19.6642 18 20 17.6642 20 17.25V16.25C20 15.8358 19.6642 15.5 19.25 15.5H18.25Z" fill="#000001"/>
</g>
</svg>
