<svg width="24" height="24" viewBox="0 0 24 24" fill="none" xmlns="http://www.w3.org/2000/svg">
<g id="size=24">
<path id="Path" d="M12 1C18.0751 1 23 5.92487 23 12C23 18.0751 18.0751 23 12 23C5.92487 23 1 18.0751 1 12C1 5.92487 5.92487 1 12 1ZM12 2.5C6.75329 2.5 2.5 6.75329 2.5 12C2.5 17.2467 6.75329 21.5 12 21.5C17.2467 21.5 21.5 17.2467 21.5 12C21.5 6.75329 17.2467 2.5 12 2.5ZM8 7.60449C8.00035 6.21194 9.54842 5.37725 10.7119 6.14258L17.3926 10.5381C18.4433 11.2295 18.4432 12.7705 17.3926 13.4619L10.7119 17.8574C9.54838 18.6228 8.00026 17.7882 8 16.3955V7.60449ZM9.8877 7.39648C9.72159 7.28721 9.50035 7.40579 9.5 7.60449V16.3955C9.50026 16.5943 9.72156 16.7138 9.8877 16.6045L16.5684 12.209C16.7182 12.1102 16.7182 11.8898 16.5684 11.791L9.8877 7.39648Z" fill="#000001"/>
</g>
</svg>
