<svg width="24" height="24" viewBox="0 0 24 24" fill="none" xmlns="http://www.w3.org/2000/svg">
<g id="size=24">
<g id="Path">
<path fill-rule="evenodd" clip-rule="evenodd" d="M10.7118 6.14298C9.54819 5.37743 8 6.21207 8 7.60496V16.3952C8 17.7881 9.54819 18.6227 10.7118 17.8571L17.3924 13.462C18.4433 12.7707 18.4433 11.2295 17.3924 10.5381L10.7118 6.14298ZM9.5 7.60496C9.5 7.40598 9.72117 7.28675 9.8874 7.39611L16.568 11.7912C16.7181 11.89 16.7181 12.1101 16.568 12.2089L9.88741 16.604C9.72117 16.7134 9.5 16.5941 9.5 16.3952V7.60496Z" fill="#000001"/>
<path fill-rule="evenodd" clip-rule="evenodd" d="M12 1C5.92487 1 1 5.92487 1 12C1 18.0751 5.92487 23 12 23C18.0751 23 23 18.0751 23 12C23 5.92487 18.0751 1 12 1ZM2.5 12C2.5 6.75329 6.75329 2.5 12 2.5C17.2467 2.5 21.5 6.75329 21.5 12C21.5 17.2467 17.2467 21.5 12 21.5C6.75329 21.5 2.5 17.2467 2.5 12Z" fill="#000001"/>
</g>
</g>
</svg>
