<svg width="16" height="16" viewBox="0 0 16 16" fill="none" xmlns="http://www.w3.org/2000/svg">
<g id="size=16">
<path id="Path" d="M8 0C12.4182 3.80108e-05 16 3.58175 16 8C16 12.4183 12.4182 16 8 16C3.58172 16 0 12.4183 0 8C0 3.58172 3.58172 0 8 0ZM8 1.5C4.41015 1.5 1.5 4.41015 1.5 8C1.5 11.5899 4.41015 14.5 8 14.5C11.5898 14.5 14.5 11.5898 14.5 8C14.5 4.41017 11.5898 1.50004 8 1.5ZM5.5 5.41113C5.5 4.42477 6.58875 3.8269 7.4209 4.35645L11.4902 6.94531C12.2616 7.43658 12.2617 8.56348 11.4902 9.05469L7.4209 11.6436C6.58876 12.173 5.5 11.5752 5.5 10.5889V5.41113ZM7 10.1338L10.3535 8L7 5.86621V10.1338Z" fill="#000001"/>
</g>
</svg>
