<svg width="16" height="16" viewBox="0 0 16 16" fill="none" xmlns="http://www.w3.org/2000/svg">
<g id="size=16">
<path id="Path" fill-rule="evenodd" clip-rule="evenodd" d="M6.87983 1.81907C6.25584 1.19508 5.24415 1.19508 4.62016 1.81907C2.21298 4.22625 2.12342 8.07342 4.35148 10.5878L2.24479 12.6944C1.9519 12.9873 1.9519 13.4622 2.24479 13.7551C2.53769 14.048 3.01256 14.048 3.30545 13.7551L5.41305 11.6475C7.92768 13.8614 11.7639 13.7672 14.1661 11.365C14.7901 10.741 14.7901 9.72933 14.1661 9.10534L12.5607 7.49989L14.2803 5.78022C14.5732 5.48733 14.5732 5.01246 14.2803 4.71956C13.9874 4.42667 13.5126 4.42667 13.2197 4.71956L11.5 6.43923L9.56066 4.49989L11.2803 2.78022C11.5732 2.48733 11.5732 2.01246 11.2803 1.71956C10.9874 1.42667 10.5126 1.42667 10.2197 1.71956L8.5 3.43923L6.87983 1.81907ZM5.68082 2.87973C5.71903 2.84152 5.78097 2.84152 5.81917 2.87973L13.1054 10.166C13.1436 10.2042 13.1436 10.2661 13.1054 10.3043C11.191 12.2188 8.08714 12.2188 6.17272 10.3043L5.68082 9.81245C3.76641 7.89803 3.76641 4.79414 5.68082 2.87973Z" fill="#000001"/>
</g>
</svg>
