<svg width="24" height="24" viewBox="0 0 24 24" fill="none" xmlns="http://www.w3.org/2000/svg">
<g id="size=24">
<path id="Path" fill-rule="evenodd" clip-rule="evenodd" d="M15.2207 2.87875C15.5132 2.5882 15.9888 2.58801 16.2812 2.87875C16.5709 3.17124 16.5714 3.64712 16.2812 3.9393L13.4795 6.74105L17.3857 10.6463L20.3125 7.71957C20.605 7.42923 21.0807 7.42887 21.373 7.71957C21.6624 8.01201 21.6629 8.48799 21.373 8.78012L18.4463 11.7069L20.1826 13.4442C21.0905 14.355 21.0911 15.8335 20.1826 16.744C16.8645 20.0615 11.5222 20.124 8.12498 16.9364L4.39255 20.6688C4.10051 20.9606 3.62503 20.959 3.33201 20.6688C3.04085 20.3758 3.0399 19.9006 3.33201 19.6082L7.0615 15.8787C3.71831 12.4911 3.73102 7.03272 7.10154 3.66195C8.01242 2.75324 9.49067 2.75291 10.4013 3.66195L12.4189 5.68051L15.2207 2.87875ZM9.3408 4.7225C9.0159 4.39924 8.48718 4.39957 8.16208 4.7225C5.36406 7.52077 5.36491 12.0594 8.16208 14.8582L8.98728 15.6825C11.7862 18.4785 16.3241 18.4801 19.122 15.6825C19.4446 15.3578 19.4441 14.8297 19.122 14.5047L9.3408 4.7225Z" fill="#000001"/>
</g>
</svg>
