<svg width="24" height="24" viewBox="0 0 24 24" fill="none" xmlns="http://www.w3.org/2000/svg">
<g id="size=24">
<path id="Path" fill-rule="evenodd" clip-rule="evenodd" d="M16.2803 3.93951C16.5732 3.64662 16.5732 3.17174 16.2803 2.87885C15.9874 2.58596 15.5126 2.58596 15.2197 2.87885L12.418 5.68055L10.3999 3.6625C9.48868 2.75127 8.0113 2.75127 7.10007 3.6625C3.72879 7.03378 3.71558 12.4915 7.06044 15.8791L3.33057 19.609C3.03768 19.9019 3.03768 20.3768 3.33057 20.6697C3.62346 20.9626 4.09834 20.9626 4.39123 20.6697L8.12405 16.9368C11.5214 20.1272 16.8626 20.063 20.1815 16.744C21.0928 15.8327 21.0928 14.3554 20.1815 13.4441L18.4447 11.7073L21.3714 8.78057C21.6643 8.48768 21.6643 8.01281 21.3714 7.71991C21.0785 7.42702 20.6036 7.42702 20.3107 7.71991L17.384 10.6466L13.4786 6.74121L16.2803 3.93951ZM8.16073 4.72316C8.48617 4.39772 9.01381 4.39772 9.33924 4.72316L19.1209 14.5048C19.4463 14.8302 19.4463 15.3579 19.1209 15.6833C16.3221 18.4821 11.7844 18.4821 8.98569 15.6833L8.16073 14.8584C5.36198 12.0596 5.36198 7.52191 8.16073 4.72316Z" fill="#000001"/>
</g>
</svg>
