<svg width="24" height="24" viewBox="0 0 24 24" fill="none" xmlns="http://www.w3.org/2000/svg">
<g id="size=24">
<path id="Path" fill-rule="evenodd" clip-rule="evenodd" d="M15.2208 2.87897C15.5134 2.58827 15.9889 2.58796 16.2813 2.87897C16.571 3.17149 16.5716 3.64735 16.2813 3.93952L13.4795 6.74127L17.3858 10.6465L20.3126 7.71979C20.6052 7.42929 21.0808 7.42882 21.3731 7.71979C21.6625 8.01226 21.6631 8.48822 21.3731 8.78034L18.4463 11.7071L20.1827 13.4444C21.0906 14.3553 21.0912 15.8337 20.1827 16.7442C16.8645 20.0617 11.5223 20.1242 8.12506 16.9366L4.39264 20.669C4.10059 20.9607 3.62509 20.9592 3.33209 20.669C3.04071 20.3761 3.03998 19.9009 3.33209 19.6085L7.06158 15.879C3.71818 12.4913 3.7311 7.03302 7.10162 3.66217C8.01258 2.7533 9.49074 2.75286 10.4014 3.66217L12.419 5.68073L15.2208 2.87897ZM9.34088 4.72272C9.01598 4.39919 8.48734 4.39964 8.16217 4.72272C5.36414 7.52108 5.36478 12.0597 8.16217 14.8585L8.98736 15.6827C11.7862 18.4787 16.3242 18.4803 19.1221 15.6827C19.4447 15.358 19.4442 14.83 19.1221 14.5049L9.34088 4.72272Z" fill="#000001"/>
</g>
</svg>
