<svg width="24" height="24" viewBox="0 0 24 24" fill="none" xmlns="http://www.w3.org/2000/svg">
<g id="size=24">
<path id="Path" fill-rule="evenodd" clip-rule="evenodd" d="M16.2803 3.93951C16.5732 3.64662 16.5732 3.17174 16.2803 2.87885C15.9874 2.58596 15.5126 2.58596 15.2197 2.87885L12.418 5.68055L10.3999 3.6625C9.4887 2.75127 8.01131 2.75127 7.10009 3.6625C3.72881 7.03378 3.7156 12.4915 7.06046 15.8791L3.33059 19.609C3.03769 19.9019 3.03769 20.3768 3.33059 20.6697C3.62348 20.9626 4.09835 20.9626 4.39125 20.6697L8.12406 16.9368C11.5214 20.1272 16.8626 20.063 20.1816 16.744C21.0928 15.8327 21.0928 14.3554 20.1816 13.4441L18.4447 11.7073L21.3714 8.78057C21.6643 8.48768 21.6643 8.01281 21.3714 7.71991C21.0785 7.42702 20.6036 7.42702 20.3107 7.71991L17.384 10.6466L13.4786 6.74121L16.2803 3.93951ZM8.16075 4.72316C8.48618 4.39772 9.01382 4.39772 9.33926 4.72316L19.1209 14.5048C19.4463 14.8302 19.4463 15.3579 19.1209 15.6833C16.3221 18.4821 11.7845 18.4821 8.98571 15.6833L8.16075 14.8584C5.36199 12.0596 5.36199 7.52191 8.16075 4.72316Z" fill="#000001"/>
</g>
</svg>
