<svg width="16" height="16" viewBox="0 0 16 16" fill="none" xmlns="http://www.w3.org/2000/svg">
<g id="size=16">
<path id="Path" fill-rule="evenodd" clip-rule="evenodd" d="M6.8801 1.81931C6.25611 1.19532 5.24442 1.19532 4.62043 1.81931C2.21325 4.22649 2.12369 8.07366 4.35175 10.588L2.24506 12.6947C1.95217 12.9876 1.95217 13.4624 2.24506 13.7553C2.53795 14.0482 3.01283 14.0482 3.30572 13.7553L5.41332 11.6477C7.92794 13.8616 11.7642 13.7675 14.1664 11.3653C14.7904 10.7413 14.7904 9.72958 14.1664 9.10559L12.5609 7.50014L14.2806 5.78047C14.5735 5.48757 14.5735 5.0127 14.2806 4.71981C13.9877 4.42691 13.5128 4.42691 13.2199 4.71981L11.5003 6.43948L9.56092 4.50014L11.2806 2.78047C11.5735 2.48757 11.5735 2.0127 11.2806 1.71981C10.9877 1.42691 10.5128 1.42691 10.2199 1.71981L8.50026 3.43948L6.8801 1.81931ZM5.68109 2.87997C5.71929 2.84177 5.78123 2.84177 5.81944 2.87997L13.1057 10.1662C13.1439 10.2044 13.1439 10.2664 13.1057 10.3046C11.1913 12.219 8.08741 12.219 6.17299 10.3046L5.68109 9.81269C3.76667 7.89827 3.76667 4.79439 5.68109 2.87997Z" fill="#000001"/>
</g>
</svg>
