<svg width="16" height="16" viewBox="0 0 16 16" fill="none" xmlns="http://www.w3.org/2000/svg">
<g id="size=16">
<path id="Path" fill-rule="evenodd" clip-rule="evenodd" d="M4.61988 1.82041C5.24394 1.19759 6.25603 1.19687 6.87964 1.82041L8.49976 3.44053L10.2195 1.7208C10.5124 1.42923 10.9875 1.4285 11.28 1.7208C11.5697 2.01351 11.5707 2.48929 11.28 2.78135L9.56031 4.50108L11.4998 6.44053L13.2195 4.7208C13.5124 4.42922 13.9875 4.4285 14.28 4.7208C14.5697 5.01351 14.5707 5.48929 14.28 5.78135L12.5603 7.50108L14.1658 9.10655C14.7866 9.73038 14.7877 10.7432 14.1658 11.3663C11.7646 13.7672 7.92742 13.8603 5.41285 11.6495L3.30543 13.7569C3.01354 14.0484 2.5379 14.0466 2.24488 13.7569C1.95211 13.4642 1.95235 12.9893 2.24488 12.6964L4.35132 10.589C2.12348 8.07474 2.21305 4.22757 4.61988 1.82041ZM5.8191 2.88096C5.78128 2.84321 5.71871 2.84394 5.68043 2.88096C3.76642 4.79531 3.76639 7.89924 5.68043 9.81358L6.17261 10.3058C8.08715 12.2173 11.1917 12.2189 13.1052 10.3058C13.1414 10.2684 13.1403 10.2052 13.1052 10.1671L5.8191 2.88096Z" fill="#000001"/>
</g>
</svg>
