<svg width="24" height="24" viewBox="0 0 24 24" fill="none" xmlns="http://www.w3.org/2000/svg">
<g id="size=24">
<path id="Path" fill-rule="evenodd" clip-rule="evenodd" d="M16.2807 3.93939C16.5736 3.64649 16.5736 3.17162 16.2807 2.87873C15.9879 2.58583 15.513 2.58583 15.2201 2.87873L12.4184 5.68043L10.4003 3.66238C9.48911 2.75115 8.01172 2.75115 7.1005 3.66238C3.72922 7.03366 3.71601 12.4914 7.06087 15.879L3.331 19.6089C3.0381 19.9018 3.0381 20.3766 3.331 20.6695C3.62389 20.9624 4.09876 20.9624 4.39166 20.6695L8.12448 16.9367C11.5218 20.1271 16.863 20.0628 20.182 16.7439C21.0932 15.8326 21.0932 14.3552 20.182 13.444L18.4451 11.7072L21.3718 8.78045C21.6647 8.48756 21.6647 8.01268 21.3718 7.71979C21.0789 7.4269 20.604 7.4269 20.3111 7.71979L17.3844 10.6465L13.479 6.74109L16.2807 3.93939ZM8.16116 4.72304C8.4866 4.3976 9.01423 4.3976 9.33967 4.72304L19.1213 14.5047C19.4468 14.8301 19.4468 15.3578 19.1213 15.6832C16.3226 18.4819 11.7849 18.4819 8.98612 15.6832L8.16116 14.8582C5.3624 12.0595 5.3624 7.52179 8.16116 4.72304Z" fill="#000001"/>
</g>
</svg>
