<svg width="24" height="24" viewBox="0 0 24 24" fill="none" xmlns="http://www.w3.org/2000/svg">
<g id="size=24">
<path id="Path" fill-rule="evenodd" clip-rule="evenodd" d="M15.2207 2.87883C15.5132 2.58826 15.9888 2.58806 16.2812 2.87883C16.5709 3.17133 16.5714 3.6472 16.2812 3.93938L13.4795 6.74114L17.3857 10.6464L20.3125 7.71965C20.605 7.42928 21.0807 7.42892 21.373 7.71965C21.6624 8.0121 21.663 8.48808 21.373 8.7802L18.4463 11.707L20.1826 13.4443C21.0905 14.3551 21.0911 15.8336 20.1826 16.7441C16.8645 20.0616 11.5223 20.1241 8.12499 16.9364L4.39256 20.6689C4.10052 20.9607 3.62505 20.9591 3.33202 20.6689C3.04084 20.3759 3.0399 19.9007 3.33202 19.6083L7.06151 15.8788C3.7183 12.4912 3.73103 7.03281 7.10155 3.66203C8.01244 2.7533 9.49067 2.75296 10.4014 3.66203L12.4189 5.68059L15.2207 2.87883ZM9.34081 4.72258C9.01591 4.39929 8.4872 4.39963 8.1621 4.72258C5.36406 7.52086 5.3649 12.0595 8.1621 14.8583L8.98729 15.6825C11.7862 18.4786 16.3241 18.4802 19.1221 15.6825C19.4446 15.3578 19.4441 14.8298 19.1221 14.5048L9.34081 4.72258Z" fill="#000001"/>
</g>
</svg>
