<svg width="24" height="24" viewBox="0 0 24 24" fill="none" xmlns="http://www.w3.org/2000/svg">
<g id="size=24">
<path id="Path" fill-rule="evenodd" clip-rule="evenodd" d="M16.2804 3.93927C16.5733 3.64637 16.5733 3.1715 16.2804 2.87861C15.9875 2.58571 15.5126 2.58571 15.2197 2.87861L12.418 5.68031L10.4 3.66225C9.48874 2.75103 8.01136 2.75103 7.10013 3.66225C3.72885 7.03353 3.71564 12.4913 7.0605 15.8789L3.33063 19.6088C3.03774 19.9016 3.03774 20.3765 3.33063 20.6694C3.62353 20.9623 4.0984 20.9623 4.39129 20.6694L8.12411 16.9366C11.5214 20.127 16.8626 20.0627 20.1816 16.7437C21.0928 15.8325 21.0928 14.3551 20.1816 13.4439L18.4447 11.707L21.3714 8.78033C21.6643 8.48744 21.6643 8.01256 21.3714 7.71967C21.0786 7.42678 20.6037 7.42678 20.3108 7.71967L17.3841 10.6464L13.4787 6.74097L16.2804 3.93927ZM8.16079 4.72291C8.48623 4.39748 9.01387 4.39748 9.3393 4.72291L19.1209 14.5046C19.4464 14.83 19.4464 15.3576 19.1209 15.6831C16.3222 18.4818 11.7845 18.4818 8.98575 15.6831L8.16079 14.8581C5.36204 12.0594 5.36204 7.52167 8.16079 4.72291Z" fill="#000001"/>
</g>
</svg>
