<svg width="16" height="16" viewBox="0 0 16 16" fill="none" xmlns="http://www.w3.org/2000/svg">
<g id="size=16">
<g id="Vector">
<path d="M6.90441 5.18531C6.75524 5.16455 6.62015 5.18375 6.5518 5.23552C6.51339 5.26463 6.50148 5.29836 6.49825 5.32157C6.48968 5.38307 6.53276 5.45109 6.55926 5.48616C6.63418 5.58546 6.74361 5.6537 6.85192 5.66873C6.86762 5.67095 6.88326 5.67195 6.89879 5.67195C7.07941 5.67195 7.24366 5.5313 7.25814 5.42749C7.27623 5.29747 7.08748 5.21075 6.90441 5.18531ZM11.8462 5.18943C11.832 5.08751 11.6506 5.05846 11.4785 5.08239C11.3066 5.10633 11.14 5.18392 11.1539 5.28606C11.165 5.36548 11.3085 5.50107 11.4782 5.50107C11.4926 5.50107 11.5071 5.50013 11.5217 5.49807C11.635 5.48237 11.7181 5.4104 11.7577 5.36893C11.8178 5.3057 11.8526 5.23524 11.8462 5.18943Z" fill="#000001"/>
<path d="M14.6818 9.55471C14.6186 9.36384 14.4155 9.30245 14.078 9.37214C13.0758 9.57897 12.7169 9.4357 12.599 9.34893C13.378 8.16224 14.0188 6.72774 14.3646 5.38937C14.5283 4.75539 14.6188 4.16661 14.6262 3.6867C14.6343 3.15998 14.5446 2.77292 14.3596 2.53647C13.6136 1.58327 12.5188 1.07197 11.1935 1.05794C10.2824 1.0477 9.51258 1.28087 9.36336 1.34644C9.04909 1.26829 8.7065 1.22031 8.33352 1.21418C7.64955 1.20311 7.05832 1.36686 6.56884 1.70066C6.35622 1.62151 5.80673 1.43288 5.13474 1.32462C3.97298 1.1376 3.04979 1.27931 2.39098 1.74603C1.60488 2.30297 1.24197 3.29852 1.31227 4.70496C1.33593 5.17814 1.60555 6.63378 2.03102 8.02781C2.59108 9.86262 3.1999 10.9013 3.84045 11.115C3.91543 11.14 4.00187 11.1575 4.09721 11.1575C4.33088 11.1575 4.61737 11.0522 4.91543 10.6938C5.27898 10.2577 5.65506 9.83214 6.04318 9.41772C6.29499 9.55287 6.57162 9.62835 6.85455 9.63592C6.85511 9.64332 6.85583 9.65072 6.8565 9.65807C6.8078 9.71615 6.7601 9.77506 6.71345 9.83479C6.51741 10.0837 6.47661 10.1355 5.84558 10.2654C5.66608 10.3025 5.18934 10.4007 5.18233 10.7349C5.17476 11.1 5.74589 11.2534 5.81096 11.2696C6.03772 11.3264 6.25619 11.3544 6.46453 11.3544C6.97121 11.3544 7.41711 11.1879 7.77346 10.8656C7.76249 12.1673 7.81676 13.45 7.97306 13.8408C8.10108 14.1607 8.41378 14.9426 9.40154 14.9425C9.54648 14.9425 9.70601 14.9257 9.88151 14.888C10.9124 14.6671 11.3601 14.2114 11.5332 13.2069C11.6259 12.6701 11.7849 11.3881 11.8598 10.7005C12.0176 10.7497 12.2208 10.7723 12.4405 10.7722C12.8987 10.7722 13.4274 10.6749 13.759 10.521C14.1315 10.348 14.8037 9.92352 14.6818 9.55471ZM12.2268 4.90813C12.2234 5.11112 12.1954 5.29542 12.1658 5.48778C12.1339 5.69467 12.101 5.90858 12.0927 6.16824C12.0845 6.42094 12.1161 6.68366 12.1466 6.93775C12.2082 7.45094 12.2715 7.97928 12.0266 8.5006C11.9859 8.4285 11.9496 8.35398 11.918 8.27745C11.8876 8.20365 11.8215 8.08509 11.7299 7.921C11.3737 7.28224 10.5396 5.7864 10.9666 5.17602C11.0938 4.99435 11.4166 4.80755 12.2268 4.90813ZM11.2447 1.469C12.4322 1.49522 13.3715 1.93945 14.0365 2.78928C14.5466 3.44113 13.9849 6.40713 12.3589 8.96592C12.3426 8.94513 12.3261 8.92441 12.3096 8.90375L12.289 8.87804C12.7092 8.18411 12.627 7.49753 12.5539 6.88882C12.5238 6.63902 12.4955 6.40307 12.5027 6.18143C12.5102 5.94654 12.5412 5.74505 12.5713 5.55023C12.6082 5.31017 12.6457 5.06175 12.6354 4.76892C12.6431 4.73819 12.6462 4.7019 12.6422 4.65882C12.6157 4.37801 12.2951 3.53759 11.6417 2.77692C11.2842 2.36086 10.763 1.89525 10.0512 1.58121C10.3574 1.51776 10.776 1.45859 11.2447 1.469ZM4.6 10.4315C4.2716 10.8264 4.04484 10.7507 3.97025 10.7259C3.48433 10.5638 2.92049 9.53673 2.42338 7.90809C1.99323 6.49886 1.74186 5.08179 1.72194 4.68443C1.65915 3.42771 1.96378 2.55189 2.62743 2.08122C3.70748 1.31532 5.48317 1.77374 6.19669 2.00624C6.18645 2.01637 6.17576 2.02583 6.16563 2.03613C4.99475 3.21859 5.02252 5.23886 5.02542 5.36238C5.02531 5.41002 5.02931 5.47748 5.03477 5.57027C5.05492 5.91008 5.09243 6.5425 4.99224 7.25869C4.89918 7.92423 5.10434 8.57563 5.55503 9.04591C5.60128 9.09408 5.6499 9.13993 5.7007 9.18328C5.50009 9.39813 5.0641 9.87325 4.6 10.4315ZM5.8512 8.76209C5.48796 8.38304 5.32298 7.85582 5.39851 7.31546C5.50427 6.55892 5.46525 5.90001 5.44427 5.546C5.44132 5.49646 5.4387 5.45305 5.4372 5.41882C5.60824 5.26714 6.40091 4.84245 6.9662 4.97197C7.22414 5.03103 7.38132 5.20669 7.44667 5.50882C7.78487 7.07306 7.49142 7.72502 7.25564 8.24895C7.20705 8.35688 7.16113 8.45891 7.12194 8.56444L7.09155 8.64604C7.01463 8.85232 6.94305 9.04413 6.89869 9.22625C6.51251 9.22514 6.13686 9.06021 5.8512 8.76209ZM5.91048 10.8716C5.79771 10.8435 5.6963 10.7946 5.6368 10.754C5.6865 10.7306 5.77495 10.6988 5.92835 10.6671C6.6707 10.5144 6.78536 10.4065 7.03573 10.0886C7.09311 10.0157 7.15818 9.93309 7.24829 9.83245C7.38249 9.68217 7.444 9.70755 7.55532 9.75375C7.64555 9.79104 7.73344 9.90415 7.76906 10.0286C7.78592 10.0874 7.80485 10.1989 7.7429 10.2858C7.21991 11.018 6.4578 11.0086 5.91048 10.8716ZM9.79556 14.4869C8.8874 14.6815 8.56585 14.2182 8.35394 13.6884C8.21719 13.3464 8.14995 11.8043 8.19765 10.1012C8.19826 10.0786 8.19503 10.0567 8.1888 10.0361C8.18322 9.99545 8.17474 9.95523 8.16342 9.91578C8.0925 9.66798 7.91968 9.4607 7.71234 9.37475C7.62996 9.34063 7.47879 9.27802 7.29711 9.32449C7.33585 9.16486 7.40303 8.98457 7.47589 8.78937L7.50645 8.70727C7.54085 8.6147 7.58404 8.5188 7.62968 8.41727C7.87643 7.86912 8.21435 7.11831 7.8476 5.42216C7.71022 4.78684 7.25147 4.47659 6.55604 4.54867C6.13914 4.59181 5.75769 4.76001 5.56744 4.85647C5.52653 4.87718 5.48913 4.89722 5.45417 4.9167C5.50727 4.2766 5.70788 3.08033 6.4583 2.32345C6.9308 1.84699 7.56005 1.61166 8.32673 1.62435C9.83737 1.64906 10.8061 2.42431 11.3528 3.07037C11.8239 3.62703 12.079 4.18782 12.1808 4.49028C11.4152 4.41241 10.8945 4.56353 10.6305 4.94091C10.0563 5.7618 10.9447 7.35504 11.3717 8.12077C11.45 8.26109 11.5175 8.38237 11.5388 8.43392C11.6779 8.77089 11.8579 8.99587 11.9893 9.16007C12.0296 9.21039 12.0686 9.2592 12.0984 9.30184C11.8665 9.36869 11.45 9.52315 11.4879 10.2952C11.4573 10.6826 11.2396 12.4964 11.129 13.1372C10.983 13.9838 10.6715 14.2991 9.79556 14.4869ZM13.5863 10.1489C13.3492 10.259 12.9524 10.3415 12.5754 10.3593C12.1591 10.3788 11.9471 10.3126 11.8973 10.272C11.8739 9.79082 12.053 9.74056 12.2425 9.68735C12.2723 9.679 12.3013 9.67082 12.3294 9.66102C12.3468 9.67521 12.3659 9.68929 12.3868 9.7031C12.7214 9.92396 13.3183 9.94778 14.1609 9.77384L14.1702 9.77201C14.0565 9.87826 13.862 10.0209 13.5863 10.1489Z" fill="#000001"/>
</g>
</g>
</svg>
