<svg width="24" height="24" viewBox="0 0 24 24" fill="none" xmlns="http://www.w3.org/2000/svg">
<g id="size=24">
<g id="Vector">
<path d="M10.4348 7.97898C10.2217 7.94932 10.0288 7.97675 9.93111 8.0507C9.87624 8.09229 9.85922 8.14047 9.85461 8.17363C9.84237 8.2615 9.90391 8.35867 9.94176 8.40876C10.0488 8.55062 10.2051 8.6481 10.3599 8.66957C10.3823 8.67275 10.4046 8.67418 10.4268 8.67418C10.6848 8.67418 10.9195 8.47325 10.9402 8.32495C10.966 8.1392 10.6964 8.01532 10.4348 7.97898ZM17.4946 7.98486C17.4742 7.83927 17.2151 7.79776 16.9693 7.83195C16.7237 7.86615 16.4857 7.97699 16.5055 8.1229C16.5214 8.23637 16.7264 8.43007 16.9689 8.43007C16.9894 8.43007 17.0101 8.42872 17.0309 8.42578C17.1928 8.40335 17.3116 8.30054 17.3681 8.2413C17.4539 8.15097 17.5037 8.0503 17.4946 7.98486Z" fill="#000001"/>
<path d="M21.7038 14.3216C21.6128 14.0467 21.3202 13.9582 20.834 14.0586C19.3905 14.3566 18.8735 14.1502 18.7038 14.0252C19.8258 12.3159 20.7489 10.2496 21.2468 8.32179C21.4827 7.4086 21.613 6.56051 21.6237 5.86924C21.6355 5.11055 21.5062 4.55301 21.2397 4.21243C20.1652 2.83944 18.5882 2.10295 16.6792 2.08275C15.3668 2.06799 14.258 2.40385 14.0431 2.49829C13.5904 2.38573 13.0969 2.31662 12.5597 2.3078C11.5745 2.29184 10.7229 2.52772 10.0178 3.00853C9.71153 2.89452 8.92005 2.6228 7.9521 2.46686C6.27869 2.19748 4.94891 2.4016 3.99996 3.07387C2.86765 3.8761 2.34491 5.3101 2.44617 7.33596C2.48024 8.01753 2.86861 10.1143 3.48147 12.1222C4.28819 14.7651 5.16514 16.2613 6.08779 16.5691C6.19579 16.6051 6.3203 16.6302 6.45764 16.6302C6.79421 16.6302 7.20687 16.4785 7.63621 15.9624C8.15987 15.3342 8.70157 14.7212 9.26063 14.1243C9.62334 14.3189 10.0218 14.4277 10.4293 14.4386C10.4301 14.4492 10.4312 14.4599 10.4321 14.4705C10.362 14.5541 10.2933 14.639 10.2261 14.725C9.94372 15.0835 9.88495 15.1581 8.97601 15.3453C8.71744 15.3987 8.03075 15.5402 8.02065 16.0215C8.00974 16.5475 8.83242 16.7684 8.92614 16.7918C9.25277 16.8736 9.56746 16.9139 9.86755 16.9139C10.5974 16.9139 11.2397 16.674 11.7529 16.2099C11.7371 18.0848 11.8153 19.9324 12.0405 20.4953C12.2249 20.9561 12.6753 22.0824 14.0981 22.0823C14.3068 22.0823 14.5366 22.058 14.7894 22.0038C16.2743 21.6855 16.9192 21.0292 17.1686 19.5823C17.3021 18.809 17.5311 16.9625 17.6389 15.972C17.8663 16.0429 18.159 16.0754 18.4754 16.0753C19.1354 16.0753 19.897 15.9351 20.3746 15.7134C20.9112 15.4642 21.8793 14.8528 21.7038 14.3216ZM18.1676 7.6286C18.1627 7.921 18.1224 8.18646 18.0798 8.46354C18.0338 8.76155 17.9864 9.06966 17.9744 9.44368C17.9626 9.80767 18.0081 10.1861 18.052 10.5521C18.1409 11.2913 18.232 12.0523 17.8792 12.8032C17.8206 12.6994 17.7684 12.592 17.7228 12.4818C17.679 12.3755 17.5837 12.2047 17.4519 11.9684C16.9388 11.0483 15.7374 8.89368 16.3524 8.01448C16.5356 7.75279 17.0005 7.48372 18.1676 7.6286ZM16.753 2.67484C18.4634 2.7126 19.8164 3.35248 20.7744 4.57658C21.5091 5.51551 20.7001 9.78779 18.3579 13.4735C18.3344 13.4436 18.3107 13.4137 18.2869 13.3839L18.2572 13.3469C18.8624 12.3474 18.7441 11.3584 18.6388 10.4816C18.5955 10.1218 18.5546 9.78193 18.565 9.46268C18.5757 9.12434 18.6205 8.83411 18.6638 8.5535C18.7169 8.2077 18.771 7.84988 18.7561 7.42808C18.7673 7.38383 18.7718 7.33155 18.7659 7.2695C18.7278 6.86501 18.266 5.65446 17.3248 4.55879C16.8099 3.95948 16.0591 3.28882 15.0339 2.83647C15.4748 2.74507 16.0778 2.65984 16.753 2.67484ZM7.18186 15.5846C6.70883 16.1533 6.38219 16.0443 6.27476 16.0086C5.57483 15.7751 4.76266 14.2957 4.04662 11.9498C3.42703 9.91992 3.06496 7.87875 3.03626 7.30638C2.94582 5.49619 3.38462 4.23464 4.34054 3.55668C5.89625 2.45347 8.45399 3.11379 9.48175 3.44869C9.467 3.46328 9.45161 3.47691 9.43701 3.49174C7.75046 5.19497 7.79046 8.105 7.79463 8.28291C7.79447 8.35154 7.80024 8.44871 7.8081 8.58236C7.83713 9.07183 7.89116 9.98277 7.74685 11.0144C7.6128 11.973 7.90832 12.9113 8.5575 13.5887C8.62412 13.6581 8.69415 13.7241 8.76731 13.7866C8.47836 14.0961 7.85035 14.7804 7.18186 15.5846ZM8.98411 13.1799C8.46089 12.6339 8.22325 11.8745 8.33204 11.0962C8.48438 10.0064 8.42817 9.05731 8.39795 8.5474C8.3937 8.47605 8.38993 8.41351 8.38777 8.3642C8.63414 8.14573 9.77591 7.53399 10.5902 7.72056C10.9617 7.80563 11.1881 8.05866 11.2822 8.49385C11.7694 10.747 11.3467 11.6861 11.0071 12.4408C10.9371 12.5962 10.8709 12.7432 10.8145 12.8952L10.7707 13.0127C10.6599 13.3099 10.5568 13.5861 10.4929 13.8485C9.93666 13.8469 9.39556 13.6093 8.98411 13.1799ZM9.06949 16.2185C8.90706 16.178 8.76098 16.1075 8.67527 16.049C8.74687 16.0154 8.87427 15.9695 9.09523 15.924C10.1645 15.7039 10.3297 15.5485 10.6903 15.0906C10.773 14.9856 10.8667 14.8666 10.9965 14.7217C11.1898 14.5052 11.2784 14.5418 11.4387 14.6083C11.5687 14.662 11.6953 14.8249 11.7466 15.0042C11.7709 15.0889 11.7982 15.2495 11.7089 15.3746C10.9556 16.4294 9.85785 16.4158 9.06949 16.2185ZM14.6656 21.426C13.3575 21.7063 12.8943 21.0389 12.5891 20.2759C12.3921 19.7833 12.2952 17.5619 12.364 15.1088C12.3648 15.0762 12.3602 15.0447 12.3512 15.015C12.3432 14.9564 12.331 14.8985 12.3146 14.8417C12.2125 14.4847 11.9636 14.1862 11.6649 14.0624C11.5463 14.0132 11.3285 13.923 11.0668 13.99C11.1226 13.76 11.2194 13.5004 11.3243 13.2192L11.3683 13.1009C11.4179 12.9676 11.4801 12.8295 11.5459 12.6832C11.9013 11.8937 12.388 10.8122 11.8597 8.36901C11.6619 7.4539 11.0011 7.007 9.99936 7.11083C9.39885 7.17297 8.84941 7.41525 8.57538 7.5542C8.51645 7.58402 8.46257 7.61288 8.41222 7.64095C8.48871 6.71894 8.77766 4.99582 9.85857 3.9056C10.5392 3.2193 11.4456 2.88033 12.5499 2.89861C14.7258 2.9342 16.1212 4.05088 16.9087 4.98147C17.5873 5.7833 17.9547 6.59106 18.1013 7.02673C16.9985 6.91456 16.2485 7.13224 15.8683 7.67582C15.0412 8.85824 16.3208 11.1532 16.9358 12.2561C17.0487 12.4583 17.146 12.633 17.1766 12.7072C17.3769 13.1926 17.6362 13.5166 17.8255 13.7532C17.8835 13.8256 17.9398 13.8959 17.9826 13.9574C17.6486 14.0536 17.0487 14.2761 17.1033 15.3882C17.0592 15.9463 16.7457 18.5588 16.5864 19.4819C16.3761 20.7013 15.9273 21.1555 14.6656 21.426ZM20.1258 15.1775C19.7843 15.336 19.2127 15.4549 18.6698 15.4805C18.0701 15.5086 17.7648 15.4133 17.6929 15.3547C17.6593 14.6617 17.9172 14.5893 18.1902 14.5127C18.2331 14.5006 18.2749 14.4888 18.3153 14.4747C18.3404 14.4952 18.3679 14.5155 18.3981 14.5353C18.8801 14.8535 19.7398 14.8878 20.9536 14.6372L20.9669 14.6346C20.8032 14.7877 20.523 14.9931 20.1258 15.1775Z" fill="#000001"/>
</g>
</g>
</svg>
