<svg width="16" height="16" viewBox="0 0 16 16" fill="none" xmlns="http://www.w3.org/2000/svg">
<g id="size=16">
<path id="Path" d="M11.9883 2.76465C12.2909 2.48224 12.7651 2.49839 13.0479 2.80078C14.2581 4.09578 15 5.83715 15 7.75C15 11.7541 11.7541 15 7.75 15C3.74594 15 0.5 11.7541 0.5 7.75C0.500022 5.83715 1.24194 4.09578 2.45215 2.80078C2.73486 2.49839 3.20911 2.48224 3.51172 2.76465C3.81435 3.04747 3.83067 3.52256 3.54785 3.8252C2.58705 4.85338 2.00002 6.23231 2 7.75C2 10.9256 4.57436 13.5 7.75 13.5C10.9256 13.5 13.5 10.9256 13.5 7.75C13.5 6.23231 12.913 4.85338 11.9521 3.8252C11.6693 3.52256 11.6856 3.04747 11.9883 2.76465ZM7.75 0.5C8.16421 0.5 8.5 0.835786 8.5 1.25V6.75C8.5 7.16421 8.16421 7.5 7.75 7.5C7.33579 7.5 7 7.16421 7 6.75V1.25C7 0.835786 7.33579 0.5 7.75 0.5Z" fill="#000001"/>
</g>
</svg>
