<svg width="16" height="16" viewBox="0 0 16 16" fill="none" xmlns="http://www.w3.org/2000/svg">
<g id="size=16">
<path id="Union" fill-rule="evenodd" clip-rule="evenodd" d="M2.25 5H3V3.25C3 2.00736 4.00736 1 5.25 1H10.75C11.9926 1 13 2.00736 13 3.25V5H13.75C14.9926 5 16 6.00736 16 7.25V10.75C16 11.9926 14.9926 13 13.75 13H12.5V13.25C12.5 13.9404 11.9404 14.5 11.25 14.5H4.75C4.05964 14.5 3.5 13.9404 3.5 13.25V13H2.25C1.00736 13 0 11.9926 0 10.75V7.25C0 6.00736 1.00736 5 2.25 5ZM5.25 2.5C4.83579 2.5 4.5 2.83579 4.5 3.25V5H11.5V3.25C11.5 2.83579 11.1642 2.5 10.75 2.5H5.25ZM3.5 11.5V9.75C3.5 9.05964 4.05964 8.5 4.75 8.5H11.25C11.9404 8.5 12.5 9.05964 12.5 9.75V11.5H13.75C14.1642 11.5 14.5 11.1642 14.5 10.75V7.25C14.5 6.83579 14.1642 6.5 13.75 6.5H2.25C1.83579 6.5 1.5 6.83579 1.5 7.25V10.75C1.5 11.1642 1.83579 11.5 2.25 11.5H3.5ZM11 13H5V10H11V13Z" fill="#000001"/>
</g>
</svg>
