<svg width="24" height="24" viewBox="0 0 24 24" fill="none" xmlns="http://www.w3.org/2000/svg">
<g id="size=24">
<path id="Path" d="M16.25 1C17.7688 1 19 2.23122 19 3.75V8H20.25C21.7688 8 23 9.23122 23 10.75V16.25C23 17.7688 21.7688 19 20.25 19H19V21.25C19 22.2165 18.2165 23 17.25 23H6.75C5.7835 23 5 22.2165 5 21.25V19H3.75C2.23122 19 1 17.7688 1 16.25V10.75C1 9.23122 2.23122 8 3.75 8H5V3.75C5 2.23122 6.23122 1 7.75 1H16.25ZM6.75 14.5C6.61193 14.5 6.5 14.6119 6.5 14.75V21.25C6.5 21.3881 6.61193 21.5 6.75 21.5H17.25C17.3881 21.5 17.5 21.3881 17.5 21.25V14.75C17.5 14.6119 17.3881 14.5 17.25 14.5H6.75ZM3.75 9.5C3.05964 9.5 2.5 10.0596 2.5 10.75V16.25C2.5 16.9404 3.05964 17.5 3.75 17.5H5V14.75C5 13.7835 5.7835 13 6.75 13H17.25C18.2165 13 19 13.7835 19 14.75V17.5H20.25C20.9404 17.5 21.5 16.9404 21.5 16.25V10.75C21.5 10.0596 20.9404 9.5 20.25 9.5H3.75ZM7.75 2.5C7.05964 2.5 6.5 3.05964 6.5 3.75V8H17.5V3.75C17.5 3.05964 16.9404 2.5 16.25 2.5H7.75Z" fill="#000001"/>
</g>
</svg>
