<svg width="16" height="16" viewBox="0 0 16 16" fill="none" xmlns="http://www.w3.org/2000/svg">
<g id="size=16">
<path id="Path" d="M8 0C12.4183 0 16 3.58172 16 8C16 12.4183 12.4183 16 8 16C3.58172 16 0 12.4183 0 8C0 3.58172 3.58172 0 8 0ZM5.80273 14.1191C6.33919 14.3117 6.90877 14.4365 7.5 14.4814V13.1494L5.80273 14.1191ZM9 12.293V14.4238C9.71131 14.314 10.3845 14.0884 11 13.7676V11.1494L9 12.293ZM1.58203 9.03711C1.84717 10.6907 2.7363 12.1361 4 13.124V7.71777L1.58203 9.03711ZM12.5 10.293V12.6904C13.455 11.7739 14.1308 10.5686 14.3867 9.21484L12.5 10.293ZM5.5 6.89941V12.5654L7.5 11.4219V5.80859L5.5 6.89941ZM9 4.99121V10.5654L11 9.42188V3.90039L9 4.99121ZM12.5 8.56445L14.4756 7.43555C14.3365 5.81841 13.6055 4.37046 12.5 3.30957V8.56445ZM4 2.87598C2.63725 3.94133 1.71008 5.53865 1.53125 7.35547L4 6.00977V2.87598ZM7.5 1.51855C6.79607 1.5721 6.12343 1.73807 5.5 1.99805V5.19141L7.5 4.10059V1.51855ZM9 3.28223L10.9619 2.21191C10.3569 1.90173 9.69649 1.68372 9 1.57617V3.28223Z" fill="#000001"/>
</g>
</svg>
