<svg width="24" height="24" viewBox="0 0 24 24" fill="none" xmlns="http://www.w3.org/2000/svg">
<g id="size=24">
<path id="Path" d="M12 0.999985C18.0751 0.999985 23 5.92486 23 12C23 18.0751 18.0751 23 12 23C5.92487 23 1 18.0751 1 12C1.00001 5.92486 5.92487 0.999985 12 0.999985ZM12.5 17.8838V21.4873C13.7452 21.4227 14.927 21.1179 16 20.6191V15.8515L12.5 17.8838ZM7.88379 20.5644C8.8439 21.0267 9.89372 21.3325 11 21.4482V18.7549L7.88379 20.5644ZM17.5 14.9805V19.7471C19.7499 18.1468 21.2728 15.5903 21.4766 12.6709L17.5 14.9805ZM2.5 12.083C2.52519 15.0205 3.88397 17.6405 6 19.3662V10.2168L2.5 12.083ZM7.5 9.41698V19.0517L11 17.0195V7.54979L7.5 9.41698ZM12.5 6.74998V16.1494L16 14.1172V4.88377L12.5 6.74998ZM17.5 13.2461L21.4434 10.956C21.1413 8.1923 19.6537 5.78471 17.5 4.25291V13.2461ZM6 4.63377C4.2805 6.03612 3.06146 8.02899 2.65137 10.3027L6 8.51659V4.63377ZM11 2.55174C9.74446 2.68309 8.5615 3.05889 7.5 3.63084V7.71678L11 5.85057V2.55174ZM12.5 5.04979L15.7998 3.29002C14.7807 2.84479 13.6682 2.57325 12.5 2.51268V5.04979Z" fill="#000001"/>
</g>
</svg>
