<svg width="24" height="24" viewBox="0 0 24 24" fill="none" xmlns="http://www.w3.org/2000/svg">
<g id="size=24">
<path id="Path" fill-rule="evenodd" clip-rule="evenodd" d="M12 1C5.92487 1 1 5.92487 1 12C1 18.0751 5.92487 23 12 23C18.0751 23 23 18.0751 23 12C23 5.92487 18.0751 1 12 1ZM11 2.552C9.74439 2.68336 8.56155 3.05929 7.5 3.63131V7.71675L11 5.85012V2.552ZM2.65118 10.3028C3.06126 8.029 4.28048 6.03652 6 4.63416V8.51674L2.65118 10.3028ZM2.50036 12.0832L6 10.2167V19.3658C3.88396 17.6401 2.52555 15.0207 2.50036 12.0832ZM11 17.02L7.5 19.0522V9.41675L11 7.55011V17.02ZM12.5 16.149V6.75012L16 4.88348V14.1167L12.5 16.149ZM16 15.8513L12.5 17.8835V21.4871C13.7452 21.4225 14.927 21.1182 16 20.6194V15.8513ZM17.5 19.7469V14.9803L21.4767 12.6713C21.2729 15.5907 19.7499 18.1466 17.5 19.7469ZM17.5 13.2458V4.2531C19.6537 5.78491 21.1412 8.19234 21.4433 10.9561L17.5 13.2458ZM11 18.7545L7.88335 20.5642C8.84359 21.0266 9.89353 21.3322 11 21.448V18.7545ZM12.5 5.05013V2.51293C13.6682 2.57351 14.7805 2.8451 15.7997 3.29034L12.5 5.05013Z" fill="#000001"/>
</g>
</svg>
