<svg width="16" height="16" viewBox="0 0 16 16" fill="none" xmlns="http://www.w3.org/2000/svg">
<g id="size=16">
<path id="Path" d="M7.99999 0C12.4183 0 16 3.58172 16 7.99999C16 12.4183 12.4183 16 7.99999 16C3.58172 16 0 12.4183 0 7.99999C5.15404e-06 3.58172 3.58172 0 7.99999 0ZM5.80273 14.1191C6.33918 14.3117 6.90876 14.4365 7.49999 14.4814V13.1494L5.80273 14.1191ZM8.99999 12.293V14.4238C9.7113 14.314 10.3845 14.0883 11 13.7676V11.1494L8.99999 12.293ZM1.58203 9.0371C1.84717 10.6907 2.7363 12.1361 4 13.124V7.71777L1.58203 9.0371ZM12.5 10.293V12.6904C13.455 11.7739 14.1308 10.5686 14.3867 9.21483L12.5 10.293ZM5.49999 6.89941V12.5654L7.49999 11.4219V5.80859L5.49999 6.89941ZM8.99999 4.99121V10.5654L11 9.42187V3.90039L8.99999 4.99121ZM12.5 8.56444L14.4756 7.43554C14.3365 5.81841 13.6055 4.37045 12.5 3.30957V8.56444ZM4 2.87597C2.63725 3.94133 1.71008 5.53865 1.53125 7.35546L4 6.00976V2.87597ZM7.49999 1.51855C6.79606 1.5721 6.12342 1.73807 5.49999 1.99804V5.1914L7.49999 4.10058V1.51855ZM8.99999 3.28222L10.9619 2.21191C10.3569 1.90173 9.69648 1.68372 8.99999 1.57617V3.28222Z" fill="#000001"/>
</g>
</svg>
