<svg width="24" height="24" viewBox="0 0 24 24" fill="none" xmlns="http://www.w3.org/2000/svg">
<g id="size=24">
<path id="Path" fill-rule="evenodd" clip-rule="evenodd" d="M21.249 16.9992C21.6628 16.9993 21.9984 17.3355 21.999 17.7492C21.9988 18.1632 21.663 18.4991 21.249 18.4992H8.74897C8.33538 18.4986 7.99919 18.1629 7.99897 17.7492C7.99953 17.3358 8.33559 16.9998 8.74897 16.9992H21.249ZM21.249 11.9992C21.6628 11.9993 21.9984 12.3355 21.999 12.7492C21.9988 13.1632 21.663 13.4991 21.249 13.4992H8.74897C8.33538 13.4986 7.99919 13.1629 7.99897 12.7492C7.99953 12.3358 8.33559 11.9998 8.74897 11.9992H21.249ZM2.14155 4.06073C2.38392 3.72544 2.85278 3.65006 3.18843 3.89179L7.68843 7.14179C7.88313 7.2826 7.99863 7.50895 7.99897 7.74921C7.99885 7.98982 7.88345 8.21667 7.68843 8.35761L3.18843 11.6076C2.8528 11.8497 2.38406 11.774 2.14155 11.4387C1.89984 11.1031 1.97531 10.6342 2.3105 10.3918L5.9687 7.74921L2.3105 5.10761C1.97554 4.86501 1.89958 4.39622 2.14155 4.06073ZM21.249 6.99921C21.6628 6.99931 21.9984 7.33553 21.999 7.74921C21.9988 8.16318 21.663 8.49911 21.249 8.49921H11.749C11.3354 8.49863 10.9992 8.16289 10.999 7.74921C10.9995 7.33582 11.3356 6.99979 11.749 6.99921H21.249Z" fill="#000001"/>
</g>
</svg>
