<svg width="16" height="16" viewBox="0 0 16 16" fill="none" xmlns="http://www.w3.org/2000/svg">
<g id="size=16">
<path id="Path" fill-rule="evenodd" clip-rule="evenodd" d="M14.25 12C14.6641 12.0001 14.9999 12.3359 15 12.75C15 13.1642 14.6642 13.5 14.25 13.5H6.24999C5.83589 13.4999 5.50001 13.1642 5.49999 12.75C5.50008 12.336 5.83594 12.0001 6.24999 12H14.25ZM14.25 8.50003C14.6641 8.50007 14.9999 8.83592 15 9.25003C15 9.6642 14.6642 9.99998 14.25 10H6.24999C5.83589 9.99991 5.50001 9.66415 5.49999 9.25003C5.50008 8.83596 5.83594 8.50015 6.24999 8.50003H14.25ZM1.17382 2.76956C1.439 2.45162 1.91234 2.40886 2.23046 2.67385L5.23046 5.17385C5.40132 5.31631 5.49994 5.52757 5.49999 5.75003C5.49999 5.9725 5.4013 6.18371 5.23046 6.3262L2.23046 8.8262C1.9123 9.09128 1.439 9.04856 1.17382 8.73049C0.908829 8.41237 0.951594 7.93904 1.26952 7.67385L3.57812 5.75003L1.26952 3.8262C0.951712 3.56097 0.908803 3.08762 1.17382 2.76956ZM14.25 5.00003C14.6641 5.00007 14.9999 5.33592 15 5.75003C15 6.1642 14.6642 6.49998 14.25 6.50003H8.24999C7.83589 6.4999 7.50001 6.16415 7.49999 5.75003C7.50008 5.33596 7.83594 5.00015 8.24999 5.00003H14.25Z" fill="#000001"/>
</g>
</svg>
