<svg width="24" height="24" viewBox="0 0 24 24" fill="none" xmlns="http://www.w3.org/2000/svg">
<g id="size=24">
<path id="Path" fill-rule="evenodd" clip-rule="evenodd" d="M21.249 16.999C21.6628 16.9991 21.9985 17.3353 21.999 17.749C21.9989 18.1631 21.6631 18.499 21.249 18.499H8.74901C8.33536 18.4984 7.99913 18.1628 7.99901 17.749C7.99956 17.3356 8.33563 16.9996 8.74901 16.999H21.249ZM21.249 11.999C21.6628 11.9991 21.9985 12.3353 21.999 12.749C21.9989 13.1631 21.6631 13.499 21.249 13.499H8.74901C8.33536 13.4984 7.99913 13.1628 7.99901 12.749C7.99956 12.3356 8.33563 11.9996 8.74901 11.999H21.249ZM2.14159 4.06055C2.38396 3.72526 2.85281 3.64987 3.18846 3.8916L7.68846 7.1416C7.88325 7.28241 7.99866 7.50871 7.99901 7.74903C7.99894 7.9897 7.88353 8.21646 7.68846 8.35743L3.18846 11.6074C2.85278 11.8495 2.38406 11.7739 2.14159 11.4385C1.89987 11.1029 1.97533 10.634 2.31053 10.3916L5.96873 7.74903L2.31053 5.10743C1.97555 4.86481 1.89955 4.39605 2.14159 4.06055ZM21.249 6.99903C21.6628 6.99908 21.9985 7.33532 21.999 7.74903C21.9989 8.1631 21.6631 8.49897 21.249 8.49903H11.749C11.3354 8.49845 10.9991 8.16278 10.999 7.74903C10.9996 7.33564 11.3356 6.9996 11.749 6.99903H21.249Z" fill="#000001"/>
</g>
</svg>
