<svg width="24" height="24" viewBox="0 0 24 24" fill="none" xmlns="http://www.w3.org/2000/svg">
<g id="size=24">
<path id="Path" fill-rule="evenodd" clip-rule="evenodd" d="M21.249 16.9991C21.6628 16.9992 21.9984 17.3355 21.999 17.7491C21.9988 18.1632 21.663 18.4991 21.249 18.4991H8.74898C8.33537 18.4986 7.99916 18.1629 7.99898 17.7491C7.99953 17.3358 8.3356 16.9997 8.74898 16.9991H21.249ZM21.249 11.9991C21.6628 11.9992 21.9984 12.3355 21.999 12.7491C21.9988 13.1632 21.663 13.4991 21.249 13.4991H8.74898C8.33537 13.4986 7.99916 13.1629 7.99898 12.7491C7.99953 12.3358 8.3356 11.9997 8.74898 11.9991H21.249ZM2.14156 4.06067C2.38393 3.72538 2.85279 3.65 3.18844 3.89173L7.68844 7.14173C7.88317 7.28254 7.99864 7.50886 7.99898 7.74915C7.99888 7.98978 7.88348 8.2166 7.68844 8.35755L3.18844 11.6075C2.85279 11.8496 2.38405 11.7739 2.14156 11.4386C1.89985 11.103 1.97532 10.6341 2.31051 10.3917L5.96871 7.74915L2.31051 5.10755C1.97554 4.86495 1.89957 4.39616 2.14156 4.06067ZM21.249 6.99915C21.6628 6.99923 21.9984 7.33546 21.999 7.74915C21.9988 8.16316 21.663 8.49907 21.249 8.49915H11.749C11.3354 8.49857 10.9992 8.16285 10.999 7.74915C10.9995 7.33576 11.3356 6.99973 11.749 6.99915H21.249Z" fill="#000001"/>
</g>
</svg>
