<svg width="24" height="24" viewBox="0 0 24 24" fill="none" xmlns="http://www.w3.org/2000/svg">
<g id="size=24">
<g id="Path">
<path d="M3.18917 3.89205C2.85338 3.64953 2.38456 3.72514 2.14205 4.06094C1.89953 4.39673 1.97514 4.86555 2.31094 5.10806L5.96908 7.75005L2.31094 10.392C1.97514 10.6346 1.89953 11.1034 2.14205 11.4392C2.38456 11.775 2.85338 11.8506 3.18917 11.6081L7.68917 8.35806C7.88441 8.21706 8.00005 7.99088 8.00005 7.75005C8.00005 7.50923 7.88441 7.28305 7.68917 7.14205L3.18917 3.89205Z" fill="#000001"/>
<path d="M11.75 7C11.3358 7 11 7.33579 11 7.75C11 8.16421 11.3358 8.5 11.75 8.5L21.25 8.5C21.6642 8.5 22 8.16421 22 7.75C22 7.33579 21.6642 7 21.25 7L11.75 7Z" fill="#000001"/>
<path d="M8 12.75C8 12.3358 8.33579 12 8.75 12H21.25C21.6642 12 22 12.3358 22 12.75C22 13.1642 21.6642 13.5 21.25 13.5H8.75C8.33579 13.5 8 13.1642 8 12.75Z" fill="#000001"/>
<path d="M8.75 17C8.33579 17 8 17.3358 8 17.75C8 18.1642 8.33579 18.5 8.75 18.5H21.25C21.6642 18.5 22 18.1642 22 17.75C22 17.3358 21.6642 17 21.25 17H8.75Z" fill="#000001"/>
</g>
</g>
</svg>
