<svg width="16" height="16" viewBox="0 0 16 16" fill="none" xmlns="http://www.w3.org/2000/svg">
<g id="size=16">
<path id="Path" fill-rule="evenodd" clip-rule="evenodd" d="M14.25 12C14.6641 12 14.9999 12.3359 15 12.75C15 13.1642 14.6642 13.5 14.25 13.5H6.24999C5.83589 13.4999 5.5 13.1641 5.49999 12.75C5.50008 12.3359 5.83594 12.0001 6.24999 12H14.25ZM14.25 8.5C14.6641 8.50003 14.9999 8.83588 15 9.25C15 9.66418 14.6642 9.99996 14.25 10H6.24999C5.83589 9.99988 5.5 9.66413 5.49999 9.25C5.50008 8.83593 5.83594 8.50012 6.24999 8.5H14.25ZM1.17382 2.76953C1.439 2.45159 1.91234 2.40883 2.23046 2.67382L5.23046 5.17382C5.40133 5.31628 5.49994 5.52753 5.49999 5.75C5.49999 5.97247 5.40131 6.18368 5.23046 6.32617L2.23046 8.82617C1.9123 9.09125 1.439 9.04854 1.17382 8.73046C0.908829 8.41234 0.951594 7.93901 1.26952 7.67382L3.57812 5.75L1.26952 3.82617C0.951712 3.56094 0.908803 3.08759 1.17382 2.76953ZM14.25 5C14.6641 5.00003 14.9999 5.33588 15 5.75C15 6.16418 14.6642 6.49996 14.25 6.5H8.24999C7.83589 6.49988 7.5 6.16413 7.49999 5.75C7.50008 5.33593 7.83594 5.00012 8.24999 5H14.25Z" fill="#000001"/>
</g>
</svg>
