<svg width="24" height="24" viewBox="0 0 24 24" fill="none" xmlns="http://www.w3.org/2000/svg">
<g id="size=24">
<path id="Path" d="M20.4869 10.05H14.3378C14.0292 10.0499 13.779 9.80059 13.7788 9.49302V3.10657C13.7788 2.63363 13.394 2.25 12.9197 2.25H10.7246C10.2499 2.25 9.86535 2.63363 9.86535 3.10657V9.45435C9.86535 9.78368 9.59818 10.0514 9.26771 10.0528L7.25258 10.0624C6.91929 10.0642 6.64851 9.7947 6.64916 9.46285L6.66167 3.10801C6.66275 2.63435 6.27779 2.25 5.8025 2.25H3.60924C3.13453 2.25 2.75 2.63363 2.75 3.10657V20.9895C2.75 21.4096 3.09153 21.75 3.51276 21.75H20.4869C20.9085 21.75 21.25 21.4096 21.25 20.9895V10.8105C21.25 10.3904 20.9085 10.05 20.4869 10.05ZM17.6033 16.7643C17.6033 17.3149 17.1554 17.7613 16.603 17.7613H14.8682C14.3157 17.7613 13.8678 17.3149 13.8678 16.7643V15.0356C13.8678 14.4849 14.3157 14.0386 14.8682 14.0386H16.603C17.1554 14.0386 17.6033 14.4849 17.6033 15.0356V16.7643Z" fill="#FF6600"/>
</g>
</svg>
