<svg width="16" height="16" viewBox="0 0 16 16" fill="none" xmlns="http://www.w3.org/2000/svg">
<g id="size=16">
<path id="Path" d="M13.7344 6.75H9.57959C9.37105 6.74992 9.20201 6.59013 9.2019 6.39296V2.29908C9.2019 1.99592 8.94189 1.75 8.62139 1.75H7.13823C6.81753 1.75 6.55767 1.99592 6.55767 2.29908V6.36817C6.55767 6.57928 6.37715 6.75088 6.15386 6.7518L4.79229 6.75794C4.56709 6.75909 4.38413 6.58635 4.38457 6.37362L4.39302 2.30001C4.39375 1.99638 4.13364 1.75 3.8125 1.75H2.33057C2.00981 1.75 1.75 1.99592 1.75 2.29908V13.7625C1.75 14.0318 1.98076 14.25 2.26538 14.25H13.7344C14.0192 14.25 14.25 14.0318 14.25 13.7625V7.2375C14.25 6.96817 14.0192 6.75 13.7344 6.75ZM11.786 11.0541C11.786 11.407 11.4834 11.6932 11.1101 11.6932H9.93799C9.56465 11.6932 9.26201 11.407 9.26201 11.0541V9.94589C9.26201 9.59291 9.56465 9.30678 9.93799 9.30678H11.1101C11.4834 9.30678 11.786 9.59291 11.786 9.94589V11.0541Z" fill="#000001"/>
</g>
</svg>
