<svg width="16" height="16" viewBox="0 0 16 16" fill="none" xmlns="http://www.w3.org/2000/svg">
<g id="size=16">
<path id="Path" fill-rule="evenodd" clip-rule="evenodd" d="M2.34961 2.46292C2.64612 2.17384 3.12096 2.18015 3.41016 2.47659C3.69876 2.77313 3.69276 3.24811 3.39648 3.53714C2.1801 4.72417 1.5 6.33012 1.5 8.00003C1.50023 9.66986 2.18001 11.276 3.39648 12.4629C3.69257 12.7522 3.69913 13.2271 3.41016 13.5235C3.12108 13.8194 2.64602 13.8256 2.34961 13.5371C0.847754 12.072 0.000229475 10.08 0 8.00003C0 5.9199 0.847776 3.92823 2.34961 2.46292ZM12.5898 2.47659C12.879 2.18015 13.3539 2.17384 13.6504 2.46292C15.1522 3.92823 16 5.9199 16 8.00003C15.9998 10.08 15.1522 12.072 13.6504 13.5371C13.354 13.8256 12.8789 13.8194 12.5898 13.5235C12.3009 13.2271 12.3074 12.7522 12.6035 12.4629C13.82 11.276 14.4998 9.66986 14.5 8.00003C14.5 6.33012 13.8199 4.72417 12.6035 3.53714C12.3072 3.24811 12.3012 2.77313 12.5898 2.47659ZM10.1035 4.99222C10.3872 4.69044 10.8623 4.67535 11.1641 4.95902C11.5842 5.35405 11.9202 5.82626 12.1504 6.34866C12.3805 6.8713 12.5 7.43426 12.5 8.00296C12.4999 8.57148 12.3805 9.13383 12.1504 9.65628C11.9202 10.1786 11.5841 10.651 11.1641 11.0459C10.8624 11.3292 10.3872 11.315 10.1035 11.0137C9.81995 10.712 9.83529 10.2369 10.1367 9.95316C10.4134 9.69299 10.6302 9.38568 10.7773 9.05179C10.9244 8.71795 10.9999 8.36136 11 8.00296C11 7.64446 10.9243 7.2871 10.7773 6.95316C10.6302 6.61926 10.4134 6.31197 10.1367 6.05179C9.83517 5.76824 9.82034 5.29402 10.1035 4.99222ZM4.83594 4.95316C5.13773 4.66948 5.61278 4.68458 5.89648 4.98636C6.17965 5.28816 6.16484 5.76238 5.86328 6.04593C5.58661 6.30611 5.36982 6.61339 5.22266 6.9473C5.07566 7.28125 5 7.63861 5 7.9971C5.00012 8.3555 5.07562 8.71209 5.22266 9.04593C5.36983 9.37983 5.5866 9.68712 5.86328 9.9473C6.16472 10.231 6.18006 10.7062 5.89648 11.0078C5.61284 11.3091 5.13762 11.3233 4.83594 11.0401C4.41589 10.6451 4.07976 10.1727 3.84961 9.65042C3.61954 9.12797 3.50012 8.56562 3.5 7.9971C3.5 7.4284 3.61951 6.86544 3.84961 6.34281C4.07976 5.8204 4.41581 5.3482 4.83594 4.95316ZM8.00977 7.00003C8.56205 7.00003 9.00977 7.44775 9.00977 8.00003C9.00931 8.55193 8.56177 9.00003 8.00977 9.00003H8C7.448 9.00003 7.00046 8.55193 7 8.00003C7 7.44775 7.44772 7.00003 8 7.00003H8.00977Z" fill="#000001"/>
</g>
</svg>
