<svg width="16" height="16" viewBox="0 0 16 16" fill="none" xmlns="http://www.w3.org/2000/svg">
<g id="size=16">
<path id="Path" fill-rule="evenodd" clip-rule="evenodd" d="M2.34961 2.4632C2.64612 2.17411 3.12096 2.18043 3.41016 2.47687C3.69862 2.77342 3.69271 3.24843 3.39648 3.53742C2.18019 4.72444 1.5 6.33046 1.5 8.00031C1.5003 9.67004 2.18007 11.2764 3.39648 12.4632C3.69244 12.7524 3.69908 13.2274 3.41016 13.5237C3.12111 13.8195 2.64599 13.8257 2.34961 13.5374C0.847819 12.0723 0.000302715 10.0802 0 8.00031C0 5.92024 0.84786 3.92849 2.34961 2.4632ZM12.5898 2.47687C12.879 2.18043 13.3539 2.17411 13.6504 2.4632C15.1521 3.92849 16 5.92024 16 8.00031C15.9997 10.0802 15.1522 12.0723 13.6504 13.5374C13.354 13.8257 12.8789 13.8195 12.5898 13.5237C12.3009 13.2274 12.3076 12.7524 12.6035 12.4632C13.8199 11.2764 14.4997 9.67004 14.5 8.00031C14.5 6.33046 13.8198 4.72444 12.6035 3.53742C12.3073 3.24843 12.3014 2.77342 12.5898 2.47687ZM10.1035 4.99249C10.3872 4.69071 10.8623 4.67562 11.1641 4.95929C11.5841 5.3543 11.9203 5.82659 12.1504 6.34894C12.3804 6.87151 12.5 7.43462 12.5 8.00324C12.4998 8.57166 12.3804 9.13418 12.1504 9.65656C11.9202 10.1788 11.584 10.6513 11.1641 11.0462C10.8624 11.3293 10.3871 11.3151 10.1035 11.014C9.81999 10.7123 9.83542 10.2372 10.1367 9.95343C10.4133 9.69332 10.6302 9.38587 10.7773 9.05206C10.9243 8.71831 10.9998 8.36155 11 8.00324C11 7.64482 10.9243 7.28731 10.7773 6.95343C10.6302 6.61959 10.4133 6.31222 10.1367 6.05206C9.83521 5.76856 9.82048 5.2943 10.1035 4.99249ZM4.83594 4.95343C5.13773 4.66975 5.61278 4.68485 5.89648 4.98663C6.17951 5.28844 6.16479 5.7627 5.86328 6.04621C5.58667 6.30636 5.36979 6.61372 5.22266 6.94757C5.07573 7.28146 5 7.63896 5 7.99738C5.00016 8.35569 5.07566 8.71245 5.22266 9.04621C5.36982 9.38001 5.58667 9.68746 5.86328 9.94757C6.16459 10.2313 6.18002 10.7065 5.89648 11.0081C5.61287 11.3092 5.13758 11.3234 4.83594 11.0403C4.41595 10.6454 4.07976 10.1729 3.84961 9.6507C3.61957 9.12833 3.50016 8.5658 3.5 7.99738C3.5 7.42876 3.61957 6.86565 3.84961 6.34308C4.07974 5.82073 4.41588 5.34845 4.83594 4.95343ZM8.00977 7.00031C8.56205 7.00031 9.00977 7.44802 9.00977 8.00031C9.00916 8.55208 8.56168 9.00031 8.00977 9.00031H8C7.44809 9.00031 7.0006 8.55208 7 8.00031C7 7.44802 7.44772 7.00031 8 7.00031H8.00977Z" fill="#000001"/>
</g>
</svg>
