<svg width="24" height="24" viewBox="0 0 24 24" fill="none" xmlns="http://www.w3.org/2000/svg">
<g id="size=24">
<path id="Path" fill-rule="evenodd" clip-rule="evenodd" d="M4.22168 4.22013C4.51454 3.92731 4.98933 3.92732 5.28223 4.22013C5.57429 4.51305 5.57478 4.98803 5.28223 5.28067C3.50125 7.06251 2.50002 9.47913 2.5 11.9984C2.50031 14.5176 3.5012 16.9346 5.28223 18.7162C5.57436 19.0091 5.57459 19.4841 5.28223 19.7768C4.98945 20.0688 4.51438 20.0689 4.22168 19.7768C2.15937 17.7138 1.00031 14.9154 1 11.9984C1.00002 9.08137 2.15948 6.28326 4.22168 4.22013ZM18.7178 4.22013C19.0107 3.92732 19.4855 3.92731 19.7783 4.22013C21.8405 6.28326 23 9.08137 23 11.9984C22.9997 14.9154 21.8406 17.7138 19.7783 19.7768C19.4856 20.0689 19.0105 20.0688 18.7178 19.7768C18.4254 19.4841 18.4256 19.0091 18.7178 18.7162C20.4988 16.9346 21.4997 14.5176 21.5 11.9984C21.5 9.47913 20.4987 7.06251 18.7178 5.28067C18.4252 4.98803 18.4257 4.51305 18.7178 4.22013ZM15.8906 6.97696C16.1857 6.6863 16.6605 6.68967 16.9512 6.98477C17.6011 7.64481 18.1166 8.42842 18.4678 9.28946C18.8188 10.1505 19 11.074 19 12.0053C18.9998 12.9365 18.8188 13.8602 18.4678 14.7211C18.1165 15.5821 17.6012 16.3668 16.9512 17.0268C16.6606 17.3209 16.1855 17.3244 15.8906 17.0346C15.5957 16.7441 15.5927 16.2692 15.8828 15.974C16.3945 15.4545 16.8014 14.8353 17.0791 14.1547C17.3566 13.4741 17.4998 12.7428 17.5 12.0053C17.5 11.2677 17.3566 10.5366 17.0791 9.85587C16.8015 9.17524 16.3943 8.55711 15.8828 8.03751C15.5924 7.74267 15.5963 7.26769 15.8906 6.97696ZM7.04883 6.97403C7.33949 6.67892 7.81427 6.67556 8.10938 6.96622C8.40376 7.25695 8.40761 7.7319 8.11719 8.02677C7.60565 8.54635 7.19851 9.16451 6.9209 9.84513C6.64344 10.5258 6.50005 11.2571 6.5 11.9945C6.50015 12.7321 6.64327 13.4642 6.9209 14.1449C7.19862 14.8254 7.60562 15.4439 8.11719 15.9633C8.40724 16.2584 8.40423 16.7334 8.10938 17.0238C7.81444 17.3137 7.33935 17.3103 7.04883 17.016C6.39891 16.3562 5.88353 15.5722 5.53223 14.7113C5.18107 13.8503 5.00015 12.9259 5 11.9945C5.00005 11.0633 5.18124 10.1397 5.53223 9.27872C5.88343 8.41769 6.39891 7.63405 7.04883 6.97403ZM12 9.0004C13.6569 9.0004 15 10.3435 15 12.0004C14.9993 13.6566 13.6564 15.0004 12 15.0004C10.3436 15.0004 9.00073 13.6566 9 12.0004C9 10.3435 10.3431 9.0004 12 9.0004ZM12 10.5004C11.1716 10.5004 10.5 11.172 10.5 12.0004C10.5007 12.8282 11.172 13.5004 12 13.5004C12.828 13.5004 13.4993 12.8282 13.5 12.0004C13.5 11.172 12.8284 10.5004 12 10.5004Z" fill="#000001"/>
</g>
</svg>
