<svg width="24" height="24" viewBox="0 0 24 24" fill="none" xmlns="http://www.w3.org/2000/svg">
<g id="size=24">
<path id="Vector (Stroke)" fill-rule="evenodd" clip-rule="evenodd" d="M12 5.78628C12 4.73993 13.2088 4.15666 14.0279 4.80779L21.4775 10.7299C22.1045 11.2284 22.1074 12.1798 21.4835 12.6821L14.0339 18.6793C13.216 19.3377 12 18.7556 12 17.7056V14.9524C11.0664 14.919 10.2066 15.0187 9.17628 15.3787C7.8701 15.8352 6.25843 16.7214 3.88067 18.3602C3.44494 18.6605 2.90781 18.6473 2.51116 18.3885C2.10154 18.1213 1.87139 17.607 2.03228 17.0625C2.62298 15.0636 3.94248 12.9385 5.77536 11.3078C7.44374 9.82351 9.57149 8.72045 12 8.52946V5.78628ZM13.5 6.30438V9.25006C13.5 9.66427 13.1642 10.0001 12.75 10.0001C10.4538 10.0001 8.39959 10.9808 6.77239 12.4285C5.41212 13.6387 4.37907 15.151 3.77846 16.6166C5.80896 15.2605 7.34311 14.4304 8.68141 13.9627C10.2102 13.4284 11.4496 13.3787 12.8179 13.5031C13.2042 13.5383 13.5 13.8622 13.5 14.2501V17.1834L20.2994 11.7096L13.5 6.30438Z" fill="#000001"/>
</g>
</svg>
