<svg width="24" height="24" viewBox="0 0 24 24" fill="none" xmlns="http://www.w3.org/2000/svg">
<g id="size=24">
<path id="Path" fill-rule="evenodd" clip-rule="evenodd" d="M11.9999 5.78621C11.9999 4.73987 13.2086 4.1566 14.0277 4.80773L21.4773 10.7298C22.1044 11.2283 22.1073 12.1797 21.4833 12.682L14.0337 18.6793C13.2159 19.3377 11.9999 18.7555 11.9999 17.7056V14.9523C11.0662 14.919 10.2065 15.0186 9.17613 15.3787C7.86995 15.8352 6.25828 16.7214 3.88051 18.3601C3.44479 18.6604 2.90765 18.6472 2.51101 18.3885C2.10139 18.1213 1.87124 17.6069 2.03213 17.0625C2.62283 15.0635 3.94233 12.9384 5.77521 11.3078C7.44359 9.82345 9.57134 8.72039 11.9999 8.5294V5.78621ZM13.4999 6.30432V9.24999C13.4999 9.66421 13.1641 9.99999 12.7499 9.99999C10.4537 9.99999 8.39944 10.9808 6.77224 12.4284C5.41196 13.6386 4.37892 15.151 3.7783 16.6165C5.80881 15.2604 7.34295 14.4304 8.68126 13.9627C10.2101 13.4284 11.4495 13.3787 12.8178 13.5031C13.2041 13.5382 13.4999 13.8621 13.4999 14.25V17.1834L20.2993 11.7096L13.4999 6.30432Z" fill="#000001"/>
</g>
</svg>
