<svg width="24" height="24" viewBox="0 0 24 24" fill="none" xmlns="http://www.w3.org/2000/svg">
<g id="size=24">
<path id="Path" fill-rule="evenodd" clip-rule="evenodd" d="M12 5.78603C12 4.73969 13.2088 4.15642 14.0279 4.80754L21.4775 10.7297C22.1045 11.2281 22.1074 12.1795 21.4835 12.6818L14.0339 18.6791C13.216 19.3375 12 18.7553 12 17.7054V14.9521C11.0664 14.9188 10.2066 15.0184 9.17628 15.3785C7.8701 15.835 6.25843 16.7212 3.88067 18.3599C3.44494 18.6602 2.90781 18.647 2.51116 18.3883C2.10154 18.1211 1.87139 17.6068 2.03228 17.0623C2.62298 15.0633 3.94248 12.9382 5.77536 11.3076C7.44374 9.82327 9.57149 8.7202 12 8.52922V5.78603ZM13.5 6.30414V9.24981C13.5 9.66403 13.1642 9.99981 12.75 9.99981C10.4538 9.99981 8.39959 10.9806 6.77239 12.4283C5.41212 13.6384 4.37907 15.1508 3.77846 16.6164C5.80896 15.2602 7.34311 14.4302 8.68141 13.9625C10.2102 13.4282 11.4496 13.3785 12.8179 13.5029C13.2042 13.538 13.5 13.8619 13.5 14.2498V17.1832L20.2994 11.7094L13.5 6.30414Z" fill="#000001"/>
</g>
</svg>
