<svg width="16" height="16" viewBox="0 0 16 16" fill="none" xmlns="http://www.w3.org/2000/svg">
<g id="size=16">
<path id="Path" fill-rule="evenodd" clip-rule="evenodd" d="M8.00003 3.517C8.00003 2.68087 8.96516 2.21397 9.62073 2.73296L14.968 6.96618C15.4737 7.36655 15.4737 8.13391 14.968 8.53427L9.62073 12.7675C8.96516 13.2865 8.00003 12.8196 8.00003 11.9835V10.4384C7.24061 10.3954 6.51576 10.4411 5.74641 10.6565C4.75192 10.9349 3.62779 11.5127 2.23952 12.646C1.90107 12.9223 1.45226 12.9394 1.11102 12.7419C0.755035 12.5358 0.538991 12.1043 0.666369 11.6433C1.08071 10.1438 2.09065 8.50194 3.47409 7.23134C4.69043 6.1142 6.24483 5.24052 8.00003 5.04249V3.517ZM9.50003 4.55056V5.75023C9.50003 6.16444 9.16424 6.50023 8.75003 6.50023C7.16422 6.50023 5.68351 7.23878 4.48874 8.33609C3.82777 8.94315 3.2739 9.64273 2.85436 10.3497C3.73188 9.79771 4.54943 9.43391 5.34204 9.21203C6.58926 8.86288 7.71925 8.88108 8.83285 9.00482C9.21268 9.04702 9.50003 9.36807 9.50003 9.75023V10.9499L13.5417 7.75023L9.50003 4.55056Z" fill="#000001"/>
</g>
</svg>
