<svg width="16" height="16" viewBox="0 0 16 16" fill="none" xmlns="http://www.w3.org/2000/svg">
<g id="size=16">
<path id="Path" fill-rule="evenodd" clip-rule="evenodd" d="M7.99991 3.51678C7.99991 2.68064 8.96504 2.21374 9.62061 2.73273L14.9678 6.96595C15.4736 7.36633 15.4736 8.13368 14.9678 8.53405L9.62061 12.7673C8.96504 13.2863 7.99991 12.8194 7.99991 11.9832V10.4381C7.24049 10.3952 6.51564 10.4409 5.74629 10.6563C4.7518 10.9347 3.62767 11.5125 2.2394 12.6458C1.90095 12.9221 1.45214 12.9392 1.1109 12.7417C0.754913 12.5356 0.538869 12.1041 0.666247 11.6431C1.08059 10.1435 2.09052 8.50171 3.47397 7.23111C4.69031 6.11397 6.24471 5.24029 7.99991 5.04226V3.51678ZM9.49991 4.55033V5.75C9.49991 6.16421 9.16412 6.5 8.74991 6.5C7.1641 6.5 5.68338 7.23855 4.48862 8.33586C3.82765 8.94292 3.27378 9.64251 2.85424 10.3495C3.73176 9.79748 4.54931 9.43368 5.34192 9.2118C6.58914 8.86265 7.71913 8.88085 8.83273 9.00459C9.21255 9.04679 9.49991 9.36784 9.49991 9.75V10.9497L13.5416 7.75L9.49991 4.55033Z" fill="#000001"/>
</g>
</svg>
