<svg width="16" height="16" viewBox="0 0 16 16" fill="none" xmlns="http://www.w3.org/2000/svg">
<g id="size=16">
<path id="Path" d="M7.19222 0.248041C7.4693 -0.0595328 7.94397 -0.0844952 8.25176 0.192378L10.7517 2.44233C10.9096 2.58447 10.9996 2.78746 10.9997 2.99993C10.9997 3.21243 10.9096 3.41532 10.7517 3.55754L8.25176 5.80748C7.94389 6.08457 7.46931 6.0597 7.19222 5.75182C6.91528 5.44394 6.94006 4.96931 7.24788 4.69228L8.53789 3.53215C8.36166 3.51119 8.18207 3.49992 7.99982 3.49992C5.51472 3.49992 3.50013 5.51477 3.49992 7.99982C3.49992 10.485 5.51459 12.4997 7.99982 12.4997C10.485 12.4997 12.4997 10.485 12.4997 7.99982C12.4997 7.4214 12.3906 6.87006 12.1931 6.36411C12.0426 5.97838 12.2332 5.54316 12.6189 5.39245C13.0046 5.24186 13.4398 5.43255 13.5905 5.81823C13.8549 6.4953 13.9996 7.23167 13.9997 7.99982C13.9997 11.3134 11.3134 13.9997 7.99982 13.9997C4.68618 13.9997 1.99995 11.3134 1.99995 7.99982C2.00016 4.68636 4.68631 1.99995 7.99982 1.99995C8.00568 1.99995 8.01154 1.99994 8.01739 1.99995L7.24788 1.30759C6.94024 1.03047 6.9152 0.555834 7.19222 0.248041Z" fill="#000001"/>
</g>
</svg>
