<svg width="16" height="16" viewBox="0 0 16 16" fill="none" xmlns="http://www.w3.org/2000/svg">
<g id="size=16">
<path id="Path" d="M7.19225 0.248042C7.46933 -0.0595316 7.94401 -0.0844951 8.2518 0.192379L10.7517 2.44234C10.9097 2.58448 10.9997 2.7875 10.9998 2.99994C10.9998 3.21242 10.9096 3.41534 10.7517 3.55755L8.2518 5.80751C7.94394 6.08458 7.46934 6.05967 7.19225 5.75184C6.91531 5.44396 6.94009 4.96933 7.24791 4.69229L8.53792 3.53216C8.36171 3.5112 8.18208 3.49994 7.99985 3.49993C5.51474 3.49993 3.50014 5.51479 3.49993 7.99985C3.49996 10.4851 5.51463 12.4998 7.99985 12.4998C10.485 12.4997 12.4997 10.485 12.4998 7.99985C12.4997 7.42145 12.3907 6.87007 12.1931 6.36414C12.0426 5.97841 12.2332 5.54318 12.6189 5.39248C13.0046 5.2419 13.4398 5.43258 13.5906 5.81825C13.8549 6.49531 13.9997 7.23172 13.9997 7.99985C13.9997 11.3135 11.3135 13.9997 7.99985 13.9997C4.68622 13.9997 1.99999 11.3135 1.99996 7.99985C2.00017 4.68638 4.68633 1.99996 7.99985 1.99996C8.00569 1.99996 8.01159 1.99995 8.01743 1.99996L7.24791 1.30759C6.94027 1.03047 6.91523 0.555836 7.19225 0.248042Z" fill="#000001"/>
</g>
</svg>
