<svg width="24" height="24" viewBox="0 0 24 24" fill="none" xmlns="http://www.w3.org/2000/svg">
<g id="size=24">
<path id="Path" fill-rule="evenodd" clip-rule="evenodd" d="M11.2002 0.240559C11.482 -0.0629595 11.9572 -0.0813094 12.2607 0.20052L15.7607 3.45052C15.913 3.59233 15.9999 3.79221 16 4.00032C15.9996 4.20819 15.913 4.40859 15.7607 4.55013L12.2607 7.80013C11.9574 8.08092 11.4819 8.06355 11.2002 7.76107C10.9186 7.45781 10.9365 6.98246 11.2393 6.70052L13.457 4.64193C12.9861 4.54927 12.499 4.50032 12 4.50032C7.858 4.50038 4.50014 7.85834 4.5 12.0003C4.50085 16.1417 7.85844 19.5003 12 19.5003C16.1416 19.5003 19.4991 16.1417 19.5 12.0003C19.5 11.0376 19.3185 10.1175 18.9893 9.27376C18.8387 8.88814 19.0296 8.45299 19.415 8.30208C19.8008 8.15156 20.2351 8.34214 20.3857 8.72786C20.7819 9.74277 21 10.8477 21 12.0003C20.9991 16.9702 16.97 21.0003 12 21.0003C7.03001 21.0003 3.00085 16.9701 3 12.0003C3.00014 7.02992 7.02957 3.00038 12 3.00032C12.3891 3.00032 12.7729 3.02554 13.1494 3.07357L11.2393 1.30013C10.9364 1.01861 10.9196 0.54406 11.2002 0.240559Z" fill="#000001"/>
</g>
</svg>
