<svg width="16" height="16" viewBox="0 0 16 16" fill="none" xmlns="http://www.w3.org/2000/svg">
<g id="size=16">
<path id="Path" fill-rule="evenodd" clip-rule="evenodd" d="M14.25 7.49994C14.6642 7.49994 15 7.83575 15 8.24994V9.08295C14.9999 9.98894 14.6397 10.8583 13.999 11.499C13.3583 12.1396 12.4891 12.4999 11.583 12.4999H3.77734L5.73828 14.1806C6.05243 14.4502 6.08877 14.9238 5.81934 15.2382C5.54977 15.5523 5.07608 15.5885 4.76172 15.3193L1.26172 12.3193C1.09571 12.1769 1.00012 11.9686 1 11.7499C1.00002 11.5312 1.09572 11.3231 1.26172 11.1806L4.76172 8.1806C5.07615 7.91112 5.54975 7.94735 5.81934 8.26166C6.08863 8.57609 6.05252 9.04975 5.73828 9.31927L3.77734 10.9999H11.583C12.0912 10.9999 12.5791 10.7977 12.9385 10.4384C13.2978 10.0791 13.4999 9.59112 13.5 9.08295V8.24994C13.5 7.83575 13.8358 7.49994 14.25 7.49994ZM10.1807 0.761658C10.4503 0.447347 10.9239 0.411114 11.2383 0.680603L14.7383 3.6806C14.9043 3.82307 15 4.03117 15 4.24994C14.9999 4.46865 14.9043 4.67688 14.7383 4.81927L11.2383 7.81927C10.9239 8.08854 10.4502 8.05229 10.1807 7.73822C9.91123 7.42385 9.94757 6.95021 10.2617 6.6806L12.2227 4.99994H4.41699C3.90867 4.99994 3.42097 5.20203 3.06152 5.56146C2.70222 5.92088 2.50001 6.40871 2.5 6.91693V7.74994C2.49978 8.16396 2.16408 8.49994 1.75 8.49994C1.33592 8.49994 1.00022 8.16396 1 7.74994V6.91693C1.00001 6.01089 1.36037 5.14163 2.00098 4.50092C2.64172 3.86018 3.51085 3.49994 4.41699 3.49994H12.2227L10.2617 1.81927C9.94749 1.54975 9.91138 1.07609 10.1807 0.761658Z" fill="#000001"/>
</g>
</svg>
