<svg width="24" height="24" viewBox="0 0 24 24" fill="none" xmlns="http://www.w3.org/2000/svg">
<g id="size=24">
<path id="Path" fill-rule="evenodd" clip-rule="evenodd" d="M21.25 12C21.6638 12 21.9993 12.3363 22 12.75V14.75C21.9997 16.0091 21.4986 17.2178 20.6084 18.1084C19.7176 18.9988 18.5095 19.5 17.25 19.5H4.88672L8.01465 22.455C8.31508 22.7393 8.32852 23.2136 8.04492 23.5146C7.76061 23.8151 7.28634 23.8286 6.98535 23.5449L2.48535 19.2949C2.33597 19.1535 2.25027 18.9557 2.25 18.75C2.25035 18.5443 2.33595 18.3464 2.48535 18.205L6.98535 13.955C7.2863 13.6715 7.76064 13.685 8.04492 13.9853C8.32862 14.2863 8.315 14.7606 8.01465 15.0449L4.88672 18H17.25C18.1117 18 18.9384 17.657 19.5479 17.0478C20.1567 16.4386 20.4997 15.6112 20.5 14.75V12.75C20.5007 12.3363 20.8362 12 21.25 12ZM16.4551 0.485306C16.7394 0.185031 17.2137 0.171454 17.5146 0.455032L22.0146 4.70503C22.1641 4.84639 22.2496 5.04429 22.25 5.24995C22.2497 5.45565 22.164 5.65346 22.0146 5.79488L17.5146 10.0449C17.2137 10.3286 16.7394 10.3151 16.4551 10.0146C16.1715 9.7136 16.1849 9.23928 16.4854 8.95503L19.6133 5.99995H6.75C5.88835 5.99995 5.06158 6.34301 4.45215 6.9521C3.84327 7.56125 3.50034 8.38869 3.5 9.24995V11.25C3.49946 11.6637 3.16388 12 2.75 12C2.33612 12 2.00054 11.6637 2 11.25V9.24995C2.00034 7.99087 2.50141 6.78201 3.3916 5.89156C4.28234 5.00116 5.49052 4.49995 6.75 4.49995H19.6133L16.4854 1.54488C16.185 1.26057 16.1714 0.786258 16.4551 0.485306Z" fill="#000001"/>
</g>
</svg>
