<svg width="16" height="16" viewBox="0 0 16 16" fill="none" xmlns="http://www.w3.org/2000/svg">
<g id="size=16">
<path id="Path" d="M15.25 6.0498C15.6366 6.0498 15.9502 6.3634 15.9502 6.75V13.25C15.9501 14.7406 14.7426 15.9502 13.251 15.9502H6.75C6.36349 15.9502 6.04991 15.6365 6.0498 15.25C6.0498 14.8634 6.36342 14.5498 6.75 14.5498H13.251C13.9684 14.5498 14.5497 13.9684 14.5498 13.25V6.75C14.5498 6.36342 14.8634 6.04983 15.25 6.0498ZM12.75 3.5498C13.1366 3.5498 13.4502 3.8634 13.4502 4.25V12.25C13.4501 12.9075 12.9207 13.4501 12.2529 13.4502H4.25C3.86349 13.4502 3.54991 13.1365 3.5498 12.75C3.5498 12.3634 3.86342 12.0498 4.25 12.0498H12.0498V4.25C12.0498 3.86342 12.3634 3.54983 12.75 3.5498ZM8.75 0C9.99264 0 11 1.00736 11 2.25V10.25C11 10.6642 10.6642 11 10.25 11H2.25C1.00736 11 0 9.99264 0 8.75V2.25C0 1.00736 1.00736 0 2.25 0H8.75ZM2.25 1.5C1.83579 1.5 1.5 1.83579 1.5 2.25V8.75C1.5 9.16421 1.83579 9.5 2.25 9.5H9.5V2.25C9.5 1.83579 9.16421 1.5 8.75 1.5H2.25Z" fill="#000001"/>
</g>
</svg>
