<svg width="16" height="16" viewBox="0 0 16 16" fill="none" xmlns="http://www.w3.org/2000/svg">
<g id="size=16">
<g id="Path">
<path d="M6.25 8.5C5.83579 8.5 5.5 8.83579 5.5 9.25C5.5 9.66421 5.83579 10 6.25 10H9.75C10.1642 10 10.5 9.66421 10.5 9.25C10.5 8.83579 10.1642 8.5 9.75 8.5H6.25Z" fill="#000001"/>
<path d="M10.125 5C9.50368 5 9 5.50368 9 6.125C9 6.74632 9.50368 7.25 10.125 7.25C10.7463 7.25 11.25 6.74632 11.25 6.125C11.25 5.50368 10.7463 5 10.125 5Z" fill="#000001"/>
<path d="M5.875 5C5.25368 5 4.75 5.50368 4.75 6.125C4.75 6.74632 5.25368 7.25 5.875 7.25C6.49632 7.25 7 6.74632 7 6.125C7 5.50368 6.49632 5 5.875 5Z" fill="#000001"/>
<path fill-rule="evenodd" clip-rule="evenodd" d="M4.525 2C4.64082 1.42944 5.14526 1 5.75 1C6.35474 1 6.85918 1.42944 6.975 2H9.025C9.14082 1.42944 9.64526 1 10.25 1C10.8547 1 11.3592 1.42944 11.475 2H11.75C12.9926 2 14 3.00736 14 4.25V5.525C14.5706 5.64082 15 6.14526 15 6.75C15 7.35474 14.5706 7.85918 14 7.975V10.5C14 11.7426 12.9926 12.75 11.75 12.75H4.25C3.00736 12.75 2 11.7426 2 10.5V7.975C1.42944 7.85918 1 7.35474 1 6.75C1 6.14526 1.42944 5.64082 2 5.525V4.25C2 3.00736 3.00736 2 4.25 2H4.525ZM4.25 3.5C3.83579 3.5 3.5 3.83579 3.5 4.25V10.5C3.5 10.9142 3.83579 11.25 4.25 11.25H11.75C12.1642 11.25 12.5 10.9142 12.5 10.5V4.25C12.5 3.83579 12.1642 3.5 11.75 3.5H4.25Z" fill="#000001"/>
<path d="M3.5 14.25C3.5 13.8358 3.83579 13.5 4.25 13.5H11.75C12.1642 13.5 12.5 13.8358 12.5 14.25C12.5 14.6642 12.1642 15 11.75 15H4.25C3.83579 15 3.5 14.6642 3.5 14.25Z" fill="#000001"/>
</g>
</g>
</svg>
