<svg width="16" height="16" viewBox="0 0 16 16" fill="none" xmlns="http://www.w3.org/2000/svg">
<g id="size=16">
<path id="Path" d="M11.75 13.5C12.1642 13.5 12.5 13.8358 12.5 14.25C12.5 14.6642 12.1642 15 11.75 15H4.25C3.83579 15 3.5 14.6642 3.5 14.25C3.5 13.8358 3.83579 13.5 4.25 13.5H11.75ZM10.25 1C10.8547 1 11.3588 1.42948 11.4746 2H11.75C12.9926 2 14 3.00736 14 4.25V5.52539C14.5705 5.64124 15 6.14529 15 6.75C15 7.35471 14.5705 7.85876 14 7.97461V10.5C14 11.7426 12.9926 12.75 11.75 12.75H4.25C3.00736 12.75 2 11.7426 2 10.5V7.97461C1.42948 7.85876 1 7.35471 1 6.75C1 6.14529 1.42948 5.64124 2 5.52539V4.25C2 3.00736 3.00736 2 4.25 2H4.52539C4.64124 1.42948 5.14529 1 5.75 1C6.35471 1 6.85876 1.42948 6.97461 2H9.02539C9.14124 1.42948 9.64529 1 10.25 1ZM4.25 3.5C3.83579 3.5 3.5 3.83579 3.5 4.25V10.5C3.5 10.9142 3.83579 11.25 4.25 11.25H11.75C12.1642 11.25 12.5 10.9142 12.5 10.5V4.25C12.5 3.83579 12.1642 3.5 11.75 3.5H4.25ZM9.75 8.5C10.1642 8.5 10.5 8.83579 10.5 9.25C10.5 9.66421 10.1642 10 9.75 10H6.25C5.83579 10 5.5 9.66421 5.5 9.25C5.5 8.83579 5.83579 8.5 6.25 8.5H9.75ZM5.875 5C6.49632 5 7 5.50368 7 6.125C7 6.74632 6.49632 7.25 5.875 7.25C5.25368 7.25 4.75 6.74632 4.75 6.125C4.75 5.50368 5.25368 5 5.875 5ZM10.125 5C10.7463 5 11.25 5.50368 11.25 6.125C11.25 6.74632 10.7463 7.25 10.125 7.25C9.50368 7.25 9 6.74632 9 6.125C9 5.50368 9.50368 5 10.125 5Z" fill="#000001"/>
</g>
</svg>
