<svg width="24" height="24" viewBox="0 0 24 24" fill="none" xmlns="http://www.w3.org/2000/svg">
<g id="size=24">
<g id="Path">
<path d="M9.25 13.5C8.83579 13.5 8.5 13.8358 8.5 14.25C8.5 14.6642 8.83579 15 9.25 15H14.75C15.1642 15 15.5 14.6642 15.5 14.25C15.5 13.8358 15.1642 13.5 14.75 13.5H9.25Z" fill="#000001"/>
<path d="M15.5 7C14.6716 7 14 7.67157 14 8.5C14 9.32843 14.6716 10 15.5 10C16.3284 10 17 9.32843 17 8.5C17 7.67157 16.3284 7 15.5 7Z" fill="#000001"/>
<path d="M8.5 7C7.67157 7 7 7.67157 7 8.5C7 9.32843 7.67157 10 8.5 10C9.32843 10 10 9.32843 10 8.5C10 7.67157 9.32843 7 8.5 7Z" fill="#000001"/>
<path fill-rule="evenodd" clip-rule="evenodd" d="M6.75561 3.25C6.81876 2.54919 7.40774 2 8.125 2C8.84226 2 9.43124 2.54919 9.49439 3.25H14.5056C14.5688 2.54919 15.1577 2 15.875 2C16.5923 2 17.1812 2.54919 17.2444 3.25H17.5C19.0188 3.25 20.25 4.48122 20.25 6V8.25561C20.9508 8.31876 21.5 8.90774 21.5 9.625C21.5 10.3423 20.9508 10.9312 20.25 10.9944V16C20.25 17.5188 19.0188 18.75 17.5 18.75H6.5C4.98122 18.75 3.75 17.5188 3.75 16V10.9944C3.04919 10.9312 2.5 10.3423 2.5 9.625C2.5 8.90774 3.04919 8.31876 3.75 8.25561V6C3.75 4.48122 4.98122 3.25 6.5 3.25H6.75561ZM6.5 4.75C5.80964 4.75 5.25 5.30964 5.25 6V16C5.25 16.6904 5.80964 17.25 6.5 17.25H17.5C18.1904 17.25 18.75 16.6904 18.75 16V6C18.75 5.30964 18.1904 4.75 17.5 4.75H6.5Z" fill="#000001"/>
<path d="M6 21.25C6 20.8358 6.33579 20.5 6.75 20.5H17.25C17.6642 20.5 18 20.8358 18 21.25C18 21.6642 17.6642 22 17.25 22H6.75C6.33579 22 6 21.6642 6 21.25Z" fill="#000001"/>
</g>
</g>
</svg>
