<svg width="24" height="24" viewBox="0 0 24 24" fill="none" xmlns="http://www.w3.org/2000/svg">
<g id="size=24">
<path id="Path" fill-rule="evenodd" clip-rule="evenodd" d="M6.96997 19.9707C7.26278 19.6791 7.73797 19.6787 8.03052 19.9707C8.32178 20.2633 8.32185 20.7387 8.03052 21.0312L7.03052 22.0312C6.73796 22.3227 6.26262 22.3225 5.96997 22.0312C5.67797 21.7387 5.67831 21.2635 5.96997 20.9707L6.96997 19.9707ZM5.46997 17.4707C5.76278 17.1791 6.23797 17.1787 6.53052 17.4707C6.82178 17.7633 6.82185 18.2387 6.53052 18.5312L3.53052 21.5312C3.23796 21.8227 2.76262 21.8225 2.46997 21.5312C2.17797 21.2387 2.17831 20.7635 2.46997 20.4707L5.46997 17.4707ZM19.6301 2.31737C20.8565 2.06333 21.9385 3.14462 21.6838 4.37108C21.3034 6.19757 20.6129 9.41925 19.9221 12.1826C19.7413 12.905 19.3807 13.56 18.9114 14.1465L18.9094 14.1621L18.4524 17.3594C18.3881 17.8071 18.1519 18.215 17.7952 18.4932L14.2776 21.2285C13.5153 21.8204 12.4159 21.6829 11.8225 20.9219L10.0393 18.6289C9.54362 18.4719 9.13164 18.0958 8.9104 17.6475C8.67116 17.1616 8.32016 16.5752 7.8733 16.1279C7.4262 15.681 6.83971 15.3302 6.35376 15.0908C5.90519 14.8697 5.52941 14.4577 5.37232 13.9619L3.07935 12.1787C2.3173 11.5855 2.18037 10.4853 2.77271 9.72265L5.50806 6.20605C5.78623 5.84918 6.19395 5.61212 6.64185 5.54784L9.83912 5.09179C9.84356 5.09101 9.85036 5.08949 9.85474 5.08886C10.4412 4.61969 11.0964 4.25888 11.8186 4.07812C14.5818 3.38736 17.8039 2.69773 19.6301 2.31737ZM17.1653 15.7666C16.7502 16.0671 16.315 16.3409 15.886 16.5869C14.4373 17.4171 12.8832 18.0211 11.762 18.4004L13.0061 20.001C13.0908 20.1082 13.2482 20.128 13.3567 20.0449L16.8743 17.3096C16.9243 17.2701 16.9587 17.2105 16.968 17.1475L17.1653 15.7666ZM2.96997 15.9707C3.26278 15.6791 3.73797 15.6787 4.03052 15.9707C4.32178 16.2633 4.32185 16.7387 4.03052 17.0312L3.03052 18.0312C2.73796 18.3227 2.26262 18.3225 1.96997 18.0312C1.67797 17.7387 1.67831 17.2635 1.96997 16.9707L2.96997 15.9707ZM19.9358 3.78612C18.1141 4.16554 14.9161 4.85092 12.1829 5.53417C10.8635 5.86456 9.68394 7.17047 8.71509 8.86034C7.77025 10.5091 7.12958 12.3361 6.80396 13.3906C6.78971 13.4378 6.79163 13.4951 6.82349 13.5596C6.85837 13.6287 6.92657 13.7004 7.01685 13.7451C7.57287 14.019 8.32239 14.4561 8.93384 15.0674C9.54515 15.6791 9.98236 16.4284 10.2561 16.9844C10.3009 17.0746 10.3725 17.142 10.4417 17.1767C10.5057 17.2082 10.5627 17.2113 10.6096 17.1973C11.6643 16.8716 13.4923 16.2309 15.1409 15.2861C16.8305 14.3173 18.1366 13.1376 18.467 11.8184C19.1504 9.08471 19.8356 5.88632 20.2151 4.06444C20.2492 3.89606 20.1041 3.75239 19.9358 3.78612ZM6.85376 7.03319C6.79057 7.04251 6.73118 7.07679 6.69165 7.12694L3.9563 10.6435C3.87263 10.7522 3.89235 10.9095 4.00025 10.9941L5.60083 12.2392C5.98007 11.118 6.58297 9.5632 7.41333 8.11425C7.65933 7.68516 7.93405 7.25105 8.23462 6.83593L6.85376 7.03319ZM13.72 9.22069C14.0128 8.92913 14.488 8.92872 14.7805 9.22069C15.0718 9.51331 15.0719 9.98867 14.7805 10.2812L14.2805 10.7812C13.988 11.0727 13.5126 11.0725 13.22 10.7812C12.928 10.4887 12.9283 10.0135 13.22 9.72069L13.72 9.22069Z" fill="#000001"/>
</g>
</svg>
