<svg width="16" height="16" viewBox="0 0 16 16" fill="none" xmlns="http://www.w3.org/2000/svg">
<g id="size=16">
<path id="Path" fill-rule="evenodd" clip-rule="evenodd" d="M4.80804 13.309C5.05199 13.0661 5.44804 13.0658 5.69183 13.309C5.93431 13.5528 5.93448 13.949 5.69183 14.1928L4.94183 14.9428C4.69812 15.1858 4.30201 15.1854 4.05804 14.9428C3.81479 14.6988 3.81481 14.3029 4.05804 14.059L4.80804 13.309ZM12.6274 1.32068C13.8546 1.06342 14.9392 2.14704 14.6811 3.37439C14.4114 4.65368 13.9945 6.56487 13.5776 8.23279C13.4658 8.67933 13.2621 9.08845 12.9994 9.4574C13.0002 9.47099 13.0004 9.48663 13.0004 9.50037V11.9418C13 12.5485 12.6838 13.1136 12.1674 13.432L10.1459 14.6762C9.39413 15.1384 8.41463 14.9672 7.86273 14.2787L6.5932 12.6928C6.12382 12.5305 5.73558 12.1742 5.51214 11.7748C5.36516 11.5116 5.18082 11.2427 4.97015 11.0316C4.7592 10.8208 4.48931 10.6368 4.22601 10.4896C3.82657 10.2665 3.47157 9.8777 3.30902 9.40857L1.7221 8.13904C1.03286 7.58728 0.86228 6.60697 1.32464 5.85486L2.56878 3.83338C2.88734 3.31683 3.45209 3.00155 4.05902 3.00135H6.50042C6.5143 3.00137 6.53079 3.00156 6.54437 3.00232C6.91328 2.73974 7.32152 2.53498 7.768 2.42322C9.43602 2.00626 11.3483 1.59037 12.6274 1.32068ZM3.55804 11.559C3.802 11.3161 4.19804 11.3158 4.44183 11.559C4.68431 11.8028 4.68448 12.199 4.44183 12.4428L2.44183 14.4428C2.19812 14.6858 1.80201 14.6854 1.55804 14.4428C1.31479 14.1988 1.31481 13.8029 1.55804 13.559L3.55804 11.559ZM11.5004 10.8861C11.3149 11.0162 11.1245 11.1386 10.9379 11.2513C10.0592 11.7819 9.10575 12.1878 8.33636 12.4701L9.03363 13.3422C9.11249 13.4394 9.25288 13.4641 9.3598 13.3988L11.3813 12.1547C11.4541 12.1092 11.5 12.0276 11.5004 11.9418V10.8861ZM1.80804 10.309C2.05199 10.0661 2.44804 10.0658 2.69183 10.309C2.93431 10.5528 2.93448 10.949 2.69183 11.1928L1.94183 11.9428C1.69812 12.1858 1.30201 12.1854 1.05804 11.9428C0.814794 11.6988 0.814807 11.3029 1.05804 11.059L1.80804 10.309ZM12.9369 2.78846C11.6634 3.05698 9.77295 3.46817 8.13226 3.8783C7.38637 4.06503 6.66735 4.78933 6.03363 5.83826C5.4204 6.85381 4.98102 8.01571 4.72601 8.79627L4.72406 8.80408C4.73851 8.85783 4.74712 8.91557 4.74945 8.97107C4.78781 9.04586 4.86074 9.12492 4.95745 9.17908C5.29252 9.36627 5.68899 9.62854 6.0307 9.9701C6.37222 10.3119 6.63461 10.7083 6.82171 11.0433C6.87595 11.1398 6.95501 11.2131 7.02972 11.2513C7.08542 11.2537 7.14381 11.2622 7.19769 11.2767C7.19995 11.2762 7.2055 11.2748 7.2055 11.2748C7.9861 11.0197 9.14738 10.5802 10.1625 9.96717C11.2111 9.3336 11.9356 8.61422 12.1225 7.86853C12.5326 6.22795 12.9448 4.33853 13.2133 3.06482C13.2478 2.89798 13.1037 2.75482 12.9369 2.78846ZM8.72015 6.22107C9.01299 5.92932 9.48811 5.92891 9.7807 6.22107C10.0717 6.51375 10.0721 6.98915 9.7807 7.28162L9.2807 7.78162C8.98826 8.07337 8.51295 8.07278 8.22015 7.78162C7.92786 7.48891 7.92803 7.01389 8.22015 6.72107L8.72015 6.22107ZM4.05902 4.50135C3.97296 4.50154 3.89168 4.54656 3.84613 4.61951L2.60199 6.641C2.53655 6.7481 2.56095 6.88838 2.65863 6.96717L3.5307 7.66541C3.81303 6.89589 4.21867 5.94186 4.74945 5.06287C4.86211 4.87638 4.9847 4.68677 5.11468 4.50135H4.05902Z" fill="#000001"/>
</g>
</svg>
