<svg width="24" height="24" viewBox="0 0 24 24" fill="none" xmlns="http://www.w3.org/2000/svg">
<g id="size=24">
<path id="Path" fill-rule="evenodd" clip-rule="evenodd" d="M6.9703 19.9706C7.26313 19.679 7.7383 19.6786 8.03084 19.9706C8.3221 20.2632 8.32217 20.7386 8.03084 21.0312L7.03084 22.0312C6.73829 22.3227 6.26297 22.3225 5.9703 22.0312C5.67819 21.7386 5.67853 21.2635 5.9703 20.9706L6.9703 19.9706ZM5.4703 17.4706C5.76313 17.179 6.2383 17.1786 6.53084 17.4706C6.8221 17.7632 6.82217 18.2386 6.53084 18.5312L3.53084 21.5312C3.23829 21.8227 2.76297 21.8225 2.4703 21.5312C2.17819 21.2386 2.17853 20.7635 2.4703 20.4706L5.4703 17.4706ZM19.6305 2.31731C20.8569 2.06327 21.9389 3.14455 21.6842 4.37102C21.3038 6.1975 20.6133 9.41917 19.9224 12.1825C19.7416 12.9049 19.3811 13.5599 18.9117 14.1464L18.9097 14.162L18.4527 17.3593C18.3884 17.8071 18.1522 18.215 17.7955 18.4931L14.2779 21.2284C13.5156 21.8204 12.4162 21.6829 11.8228 20.9218L10.0396 18.6288C9.54388 18.4719 9.13199 18.0958 8.91073 17.6474C8.67148 17.1615 8.3205 16.5752 7.87362 16.1279C7.42651 15.6809 6.84005 15.3301 6.35409 15.0908C5.90545 14.8697 5.52975 14.4577 5.37264 13.9618L3.07967 12.1786C2.31751 11.5854 2.18059 10.4853 2.77303 9.72259L5.50838 6.20598C5.78658 5.84907 6.19421 5.61203 6.64217 5.54778L9.83944 5.09173C9.84393 5.09094 9.85068 5.08942 9.85506 5.0888C10.4415 4.6196 11.0966 4.2588 11.8189 4.07805C14.5822 3.38728 17.8042 2.69766 19.6305 2.31731ZM17.1656 15.7665C16.7505 16.0671 16.3154 16.3408 15.8863 16.5868C14.4376 17.4171 12.8835 18.0211 11.7623 18.4003L13.0064 20.0009C13.0911 20.1082 13.2486 20.1281 13.357 20.0449L16.8746 17.3095C16.9246 17.27 16.959 17.2104 16.9683 17.1474L17.1656 15.7665ZM2.9703 15.9706C3.26313 15.679 3.7383 15.6786 4.03084 15.9706C4.3221 16.2632 4.32217 16.7386 4.03084 17.0312L3.03084 18.0312C2.73829 18.3227 2.26297 18.3225 1.9703 18.0312C1.67819 17.7386 1.67853 17.2635 1.9703 16.9706L2.9703 15.9706ZM19.9361 3.78606C18.1144 4.16548 14.9165 4.85084 12.1832 5.53411C10.8638 5.86444 9.6843 7.17034 8.71541 8.86028C7.77055 10.509 7.12991 12.336 6.80428 13.3906C6.79001 13.4377 6.79192 13.495 6.82381 13.5595C6.85871 13.6286 6.92683 13.7004 7.01717 13.745C7.57322 14.0189 8.3227 14.456 8.93416 15.0673C9.54549 15.6791 9.98268 16.4284 10.2564 16.9843C10.3013 17.0746 10.3728 17.142 10.442 17.1767C10.506 17.2082 10.563 17.2113 10.6099 17.1972C11.6646 16.8715 13.4926 16.2309 15.1412 15.2861C16.8309 14.3173 18.137 13.1375 18.4674 11.8183C19.1507 9.08463 19.836 5.88626 20.2154 4.06438C20.2495 3.896 20.1045 3.75233 19.9361 3.78606ZM6.85409 7.03313C6.79084 7.04242 6.73154 7.07669 6.69198 7.12688L3.95662 10.6435C3.87286 10.7522 3.89257 10.9094 4.00057 10.9941L5.60116 12.2392C5.9804 11.1179 6.58327 9.56316 7.41366 8.11419C7.65967 7.68507 7.93435 7.25101 8.23494 6.83587L6.85409 7.03313ZM13.7203 9.22063C14.0131 8.92904 14.4883 8.92858 14.7808 9.22063C15.0721 9.51325 15.0722 9.98861 14.7808 10.2812L14.2808 10.7812C13.9883 11.0727 13.513 11.0725 13.2203 10.7812C12.9282 10.4886 12.9285 10.0135 13.2203 9.72063L13.7203 9.22063Z" fill="#000001"/>
</g>
</svg>
