<svg width="16" height="16" viewBox="0 0 16 16" fill="none" xmlns="http://www.w3.org/2000/svg">
<g id="size=16">
<path id="Path" d="M13.2498 0C13.6639 0 13.9997 0.33589 13.9998 0.749989V4.74993C13.9998 5.16413 13.664 5.49992 13.2498 5.49992H9.24986C8.83565 5.49991 8.49987 5.16413 8.49987 4.74993C8.5 4.33583 8.83573 3.99994 9.24986 3.99994H11.7752C10.7896 3.06935 9.46147 2.49996 7.99988 2.49996C4.96244 2.49996 2.50009 4.96247 2.49996 7.99988C2.49996 11.0374 4.96236 13.4998 7.99988 13.4998C11.0374 13.4998 13.4998 11.0374 13.4998 7.99988C13.4999 7.58578 13.8357 7.24989 14.2498 7.24989C14.6639 7.24989 14.9996 7.58578 14.9998 7.99988C14.9998 11.8658 11.8658 14.9998 7.99988 14.9998C4.13395 14.9998 0.999985 11.8658 0.999985 7.99988C1.00011 4.13405 4.13402 0.999987 7.99988 0.999985C9.71307 0.999985 11.2835 1.61613 12.4998 2.63766V0.749989C12.4999 0.335892 12.8357 2.25374e-06 13.2498 0Z" fill="#000001"/>
</g>
</svg>
