<svg width="24" height="24" viewBox="0 0 24 24" fill="none" xmlns="http://www.w3.org/2000/svg">
<g id="size=24">
<path id="Path" d="M20.25 1C20.6642 1 21 1.33579 21 1.75V7.25C21 7.66421 20.6642 8 20.25 8H14.75C14.3358 8 14 7.66421 14 7.25C14 6.83579 14.3358 6.5 14.75 6.5H18.4814C16.9215 4.66355 14.5963 3.5 12 3.5C7.30558 3.5 3.5 7.30558 3.5 12C3.5 16.6944 7.30558 20.5 12 20.5C16.6944 20.5 20.5 16.6944 20.5 12C20.5 11.5858 20.8358 11.25 21.25 11.25C21.6642 11.25 22 11.5858 22 12C22 17.5228 17.5228 22 12 22C6.47715 22 2 17.5228 2 12C2 6.47715 6.47715 2 12 2C14.9874 2 17.6684 3.31061 19.5 5.38574V1.75C19.5 1.33579 19.8358 1 20.25 1Z" fill="#000001"/>
</g>
</svg>
