<svg width="16" height="16" viewBox="0 0 16 16" fill="none" xmlns="http://www.w3.org/2000/svg">
<g id="size=16">
<path id="Path" d="M13.25 0C13.6642 0 14 0.335786 14 0.75V4.75C14 5.16421 13.6642 5.5 13.25 5.5H9.25C8.83579 5.5 8.5 5.16421 8.5 4.75C8.5 4.33579 8.83579 4 9.25 4H11.7754C10.7897 3.06933 9.46168 2.5 8 2.5C4.96243 2.5 2.5 4.96243 2.5 8C2.5 11.0376 4.96243 13.5 8 13.5C11.0376 13.5 13.5 11.0376 13.5 8C13.5 7.58579 13.8358 7.25 14.25 7.25C14.6642 7.25 15 7.58579 15 8C15 11.866 11.866 15 8 15C4.13401 15 1 11.866 1 8C1 4.13401 4.13401 1 8 1C9.71327 1 11.2837 1.61609 12.5 2.6377V0.75C12.5 0.335786 12.8358 0 13.25 0Z" fill="#000001"/>
</g>
</svg>
