<svg width="16" height="16" viewBox="0 0 16 16" fill="none" xmlns="http://www.w3.org/2000/svg">
<g id="size=16">
<path id="Path" d="M13.25 0.000366211C13.6642 0.000366211 14 0.336153 14 0.750366V4.75037C13.9998 5.16441 13.6641 5.50037 13.25 5.50037H9.25C8.83591 5.50036 8.5002 5.16441 8.5 4.75037C8.5 4.33615 8.83579 4.00037 9.25 4.00037H11.7754C10.7897 3.06969 9.46168 2.50037 8 2.50037C4.96244 2.50037 2.5 4.9628 2.5 8.00037C2.5002 11.0378 4.96256 13.5004 8 13.5004C11.0374 13.5004 13.4998 11.0378 13.5 8.00037C13.5 7.58615 13.8358 7.25037 14.25 7.25037C14.6642 7.25037 15 7.58615 15 8.00037C14.9998 11.8662 11.8659 15.0004 8 15.0004C4.13413 15.0004 1.0002 11.8662 1 8.00037C1 4.13438 4.13401 1.00037 8 1.00037C9.71327 1.00037 11.2837 1.61646 12.5 2.63806V0.750366C12.5 0.336155 12.8358 0.000369804 13.25 0.000366211Z" fill="#000001"/>
</g>
</svg>
