<svg width="24" height="24" viewBox="0 0 24 24" fill="none" xmlns="http://www.w3.org/2000/svg">
<g id="size=24">
<path id="Path" d="M20.25 1.00006C20.6642 1.00006 21 1.33585 21 1.75006V7.25006C21 7.66425 20.6642 8.00006 20.25 8.00006H14.75C14.3358 8.00006 14 7.66425 14 7.25006C14 6.83585 14.3358 6.50007 14.75 6.50006H18.4814C16.9215 4.66361 14.5963 3.50006 12 3.50006C7.30558 3.50007 3.5 7.30564 3.5 12.0001C3.50003 16.6945 7.3056 20.5001 12 20.5001C16.6944 20.5001 20.5 16.6945 20.5 12.0001C20.5 11.5859 20.8358 11.2501 21.25 11.2501C21.6642 11.2501 22 11.5858 22 12.0001C22 17.5229 17.5228 22.0001 12 22.0001C6.47717 22.0001 2.00003 17.5229 2 12.0001C2 6.47722 6.47716 2.00007 12 2.00006C14.9874 2.00006 17.6684 3.31067 19.5 5.3858V1.75006C19.5 1.33585 19.8358 1.00007 20.25 1.00006Z" fill="#000001"/>
</g>
</svg>
