<svg width="24" height="24" viewBox="0 0 24 24" fill="none" xmlns="http://www.w3.org/2000/svg">
<g id="size=24">
<path id="Path" d="M5 17C6.10457 17 7 17.8954 7 19C7 20.1046 6.10457 21 5 21C3.89543 21 3 20.1046 3 19C3 17.8954 3.89543 17 5 17ZM3.75 10C6.46847 10 9.0758 11.0797 10.998 13.002C12.9203 14.9242 14 17.5315 14 20.25C14 20.6642 13.6642 21 13.25 21C12.8358 21 12.5 20.6642 12.5 20.25C12.5 17.9294 11.5784 15.7034 9.9375 14.0625C8.29656 12.4216 6.07064 11.5 3.75 11.5C3.33579 11.5 3 11.1642 3 10.75C3 10.3358 3.33579 10 3.75 10ZM3.75 3C8.32498 3 12.7123 4.81773 15.9473 8.05273C19.1823 11.2877 21 15.675 21 20.25C21 20.6642 20.6642 21 20.25 21C19.8358 21 19.5 20.6642 19.5 20.25C19.5 16.0728 17.8404 12.067 14.8867 9.11328C11.933 6.15958 7.92716 4.5 3.75 4.5C3.33579 4.5 3 4.16421 3 3.75C3 3.33579 3.33579 3 3.75 3Z" fill="#000001"/>
</g>
</svg>
