<svg width="16" height="16" viewBox="0 0 16 16" fill="none" xmlns="http://www.w3.org/2000/svg">
<g id="size=16">
<g id="Icon Group">
<path id="Path" fill-rule="evenodd" clip-rule="evenodd" d="M8 1.5C6.14798 1.5 4.47788 2.27358 3.29301 3.51732C3.0073 3.81723 2.53256 3.82874 2.23266 3.54303C1.93275 3.25732 1.92125 2.78258 2.20696 2.48268C3.66316 0.954124 5.72078 0 8 0C10.2792 0 12.3368 0.954124 13.793 2.48268C14.0788 2.78258 14.0672 3.25732 13.7673 3.54303C13.4674 3.82874 12.9927 3.81723 12.707 3.51732C11.5221 2.27358 9.85202 1.5 8 1.5ZM1.23586 5.27899C1.63407 5.39303 1.86443 5.80828 1.75039 6.20649C1.58749 6.7753 1.5 7.3768 1.5 8C1.5 11.0649 3.62199 13.636 6.47785 14.321C6.88064 14.4176 7.12885 14.8224 7.03225 15.2252C6.93565 15.628 6.53081 15.8762 6.12802 15.7796C2.61312 14.9366 0 11.7744 0 8C0 7.23572 0.107387 6.49527 0.30836 5.79351C0.422401 5.39531 0.837659 5.16494 1.23586 5.27899ZM14.7641 5.27899C15.1623 5.16494 15.5776 5.39531 15.6916 5.79351C15.8926 6.49527 16 7.23572 16 8C16 11.7744 13.3869 14.9366 9.87199 15.7796C9.4692 15.8762 9.06436 15.628 8.96775 15.2252C8.87115 14.8224 9.11936 14.4176 9.52215 14.321C12.378 13.636 14.5 11.0649 14.5 8C14.5 7.3768 14.4125 6.7753 14.2496 6.20649C14.1356 5.80828 14.3659 5.39303 14.7641 5.27899Z" fill="#000001"/>
<path id="Path_2" opacity="0.2" fill-rule="evenodd" clip-rule="evenodd" d="M8 4.5C6.067 4.5 4.5 6.067 4.5 8C4.5 9.933 6.067 11.5 8 11.5C9.933 11.5 11.5 9.933 11.5 8C11.5 6.067 9.933 4.5 8 4.5ZM3 8C3 5.23858 5.23858 3 8 3C10.7614 3 13 5.23858 13 8C13 10.7614 10.7614 13 8 13C5.23858 13 3 10.7614 3 8Z" fill="#000001"/>
</g>
</g>
</svg>
