<svg width="16" height="16" viewBox="0 0 16 16" fill="none" xmlns="http://www.w3.org/2000/svg">
<g id="size=16">
<g id="Union">
<path d="M7.75403 2C7.90806 2.1369 8.06253 2.27345 8.21701 2.41001C8.56046 2.71365 8.90394 3.01729 9.24262 3.3247C11.4402 5.3201 13.3007 7.56515 14.7004 10.1486C14.7719 10.2811 14.8368 10.4166 14.9018 10.5522C14.9342 10.62 14.9667 10.6878 15 10.7552L14.8919 10.8123L14.8107 10.6973C14.7405 10.5979 14.6703 10.4985 14.6015 10.3983L14.4541 10.1844C13.435 8.705 12.4142 7.22326 11.0124 6.03915C10.5938 5.68578 10.1174 5.37197 9.61911 5.13463C8.60505 4.65028 7.70274 4.84367 6.92867 5.64007C6.19308 6.39692 5.81109 7.3366 5.46574 8.29299C5.42122 8.41615 5.37415 8.53826 5.32706 8.66042C5.29954 8.73182 5.272 8.80325 5.24497 8.87491L5.07275 8.82041C5.17226 8.47236 5.26473 8.12185 5.3572 7.77133C5.56695 6.97631 5.77669 6.18127 6.0685 5.41504C6.3799 4.59898 6.77074 3.81161 7.16159 3.02424C7.33068 2.6836 7.49977 2.34296 7.66243 2H7.75403Z" fill="#000001"/>
<path d="M8.44833 11.8223C6.82234 12.5915 2.8879 13.3861 1.02191 13.1822C0.716865 11.5762 3.7096 4.04904 5.17986 2.90894C5.14295 2.99238 5.11224 3.06393 5.08502 3.12734C5.03253 3.24963 4.99303 3.34163 4.94719 3.4302L4.88062 3.55851C4.12194 5.02066 3.36203 6.48516 2.9731 8.08907C2.83935 8.64022 2.74958 9.21335 2.745 9.77769C2.73492 11.1182 3.56853 12.0298 4.96184 12.0869C5.6329 12.1145 6.30886 12.0438 6.98474 11.9732C7.27853 11.9425 7.57237 11.9118 7.86572 11.8891C7.97254 11.8809 8.07854 11.8675 8.2168 11.85C8.28483 11.8415 8.36074 11.8328 8.44833 11.8223Z" fill="#000001"/>
<path d="M3.82509 14.781C3.38034 14.8149 2.93562 14.8488 2.49213 14.8893C6.58871 15.2787 10.5213 14.6115 14.4017 13.2446C13.1366 11.0154 11.4328 9.25378 9.45045 7.72339C9.47612 7.82058 9.53401 7.89165 9.59125 7.96193C9.60752 7.98191 9.62374 8.00183 9.63915 8.02226C9.80902 8.24822 9.98731 8.46996 10.1656 8.69172C10.5749 9.20068 10.9842 9.70973 11.2917 10.2699C12.0704 11.6896 11.6481 12.9176 10.1237 13.5663C9.12159 13.9935 8.02691 14.2845 6.94322 14.4577C5.914 14.6216 4.86946 14.7013 3.82509 14.781Z" fill="#000001"/>
</g>
</g>
</svg>
