<svg width="16" height="16" viewBox="0 0 16 16" fill="none" xmlns="http://www.w3.org/2000/svg">
<g id="size=16">
<path id="Path" d="M10.1289 1C10.7256 1.00006 11.2978 1.23728 11.7197 1.65918L14.3408 4.28027C14.7627 4.70218 14.9999 5.27444 15 5.87109V12.75C15 13.9926 13.9926 15 12.75 15H3.25C2.00736 15 1 13.9926 1 12.75V3.25C1 2.00736 2.00736 1 3.25 1H10.1289ZM3.25 2.5C2.83579 2.5 2.5 2.83579 2.5 3.25V12.75C2.5 13.1642 2.83579 13.5 3.25 13.5H4.0498V9.25C4.0498 8.58728 4.58728 8.04983 5.25 8.0498H10.75C11.4127 8.0498 11.9502 8.58726 11.9502 9.25V13.5H12.75C13.1642 13.5 13.5 13.1642 13.5 12.75V5.87109C13.4999 5.67226 13.4209 5.48142 13.2803 5.34082L10.6592 2.71973C10.5186 2.57913 10.3277 2.50006 10.1289 2.5H5.4502V4.5498H9.25C9.6366 4.5498 9.9502 4.8634 9.9502 5.25C9.95009 5.63651 9.63653 5.9502 9.25 5.9502H5.25C4.58735 5.95017 4.04991 5.41264 4.0498 4.75V2.5H3.25ZM5.4502 13.5H10.5498V9.4502H5.4502V13.5Z" fill="#000001"/>
</g>
</svg>
