<svg width="24" height="24" viewBox="0 0 24 24" fill="none" xmlns="http://www.w3.org/2000/svg">
<g id="size=24">
<path id="Path" d="M14.9219 1.99997C15.6511 2.00005 16.3506 2.28999 16.8662 2.80563L21.1943 7.13376C21.71 7.64941 21.9999 8.34887 22 9.07809V19.25C22 20.7688 20.7688 22 19.25 22H4.75C3.23122 22 2 20.7688 2 19.25V4.74997C2.00001 3.2312 3.23123 1.99997 4.75 1.99997H14.9219ZM4.75 3.49997C4.05965 3.49997 3.50001 4.05963 3.5 4.74997V19.25C3.5 19.9403 4.05964 20.5 4.75 20.5H6V13.75C6.00001 12.7835 6.78351 12 7.75 12H16.25C17.2165 12 18 12.7835 18 13.75V20.5H19.25C19.9404 20.5 20.5 19.9403 20.5 19.25V9.07809C20.4999 8.74669 20.3681 8.42865 20.1338 8.19431L15.8057 3.86618C15.5713 3.63184 15.2533 3.50005 14.9219 3.49997H7.5V7.24997C7.5 7.38804 7.61193 7.49997 7.75 7.49997H15.25C15.6642 7.49997 16 7.83577 16 8.24997C16 8.66418 15.6642 8.99997 15.25 8.99997H7.75C6.7835 8.99997 6 8.21647 6 7.24997V3.49997H4.75ZM7.75 13.5C7.61194 13.5 7.50001 13.6119 7.5 13.75V20.5H16.5V13.75C16.5 13.6119 16.3881 13.5 16.25 13.5H7.75Z" fill="#000001"/>
</g>
</svg>
