<svg width="24" height="24" viewBox="0 0 24 24" fill="none" xmlns="http://www.w3.org/2000/svg">
<g id="size=24">
<path id="Path" d="M14.9219 2C15.6511 2.00008 16.3506 2.29001 16.8662 2.80566L21.1943 7.13379C21.71 7.64944 21.9999 8.34889 22 9.07812V19.25C22 20.7688 20.7688 22 19.25 22H4.75C3.23122 22 2 20.7688 2 19.25V4.75C2 3.23122 3.23122 2 4.75 2H14.9219ZM4.75 3.5C4.05964 3.5 3.5 4.05964 3.5 4.75V19.25C3.5 19.9404 4.05964 20.5 4.75 20.5H6V13.75C6 12.7835 6.7835 12 7.75 12H16.25C17.2165 12 18 12.7835 18 13.75V20.5H19.25C19.9404 20.5 20.5 19.9404 20.5 19.25V9.07812C20.4999 8.74671 20.3681 8.42869 20.1338 8.19434L15.8057 3.86621C15.5713 3.63186 15.2533 3.50008 14.9219 3.5H7.5V7.25C7.5 7.38807 7.61193 7.5 7.75 7.5H15.25C15.6642 7.5 16 7.83579 16 8.25C16 8.66421 15.6642 9 15.25 9H7.75C6.7835 9 6 8.2165 6 7.25V3.5H4.75ZM7.75 13.5C7.61193 13.5 7.5 13.6119 7.5 13.75V20.5H16.5V13.75C16.5 13.6119 16.3881 13.5 16.25 13.5H7.75Z" fill="#000001"/>
</g>
</svg>
