<svg width="24" height="24" viewBox="0 0 24 24" fill="none" xmlns="http://www.w3.org/2000/svg">
<g id="size=24">
<path id="Path" fill-rule="evenodd" clip-rule="evenodd" d="M4.75 2C3.23122 2 2 3.23122 2 4.75V19.25C2 20.7688 3.23122 22 4.75 22H19.25C20.7688 22 22 20.7688 22 19.25V9.07843C22 8.34908 21.7103 7.64961 21.1945 7.13388L16.8661 2.80546C16.3504 2.28973 15.6509 2 14.9216 2H4.75ZM4.75 3.5C4.05964 3.5 3.5 4.05964 3.5 4.75V19.25C3.5 19.9404 4.05964 20.5 4.75 20.5H6V13.75C6 12.7835 6.7835 12 7.75 12H16.25C17.2165 12 18 12.7835 18 13.75V20.5H19.25C19.9404 20.5 20.5 19.9404 20.5 19.25V9.07843C20.5 8.74691 20.3683 8.42896 20.1339 8.19454L15.8055 3.86612C15.571 3.6317 15.2531 3.5 14.9216 3.5H7.5V7.25C7.5 7.38807 7.61193 7.5 7.75 7.5H15.25C15.6642 7.5 16 7.83579 16 8.25C16 8.66421 15.6642 9 15.25 9H7.75C6.7835 9 6 8.2165 6 7.25V3.5H4.75ZM7.5 13.75V20.5H16.5V13.75C16.5 13.6119 16.3881 13.5 16.25 13.5H7.75C7.61193 13.5 7.5 13.6119 7.5 13.75Z" fill="#000001"/>
</g>
</svg>
