<svg width="16" height="16" viewBox="0 0 16 16" fill="none" xmlns="http://www.w3.org/2000/svg">
<g id="size=16">
<path id="Path" d="M4 1C5.65685 1 7 2.34315 7 4C7 4.55642 6.84893 5.07775 6.58496 5.52441L8 6.93945L12.8027 2.13574C13.0955 1.84306 13.5704 1.84329 13.8633 2.13574C14.1562 2.42864 14.1562 2.90437 13.8633 3.19727L6.58496 10.4756C6.84891 10.9222 7 11.4436 7 12C7 13.6569 5.65685 15 4 15C2.34315 15 1 13.6569 1 12C1 10.3431 2.34315 9 4 9C4.55613 9 5.07692 9.15132 5.52344 9.41504L6.93945 8L5.52344 6.58496C5.07692 6.84868 4.55613 7 4 7C2.34315 7 1 5.65685 1 4C1 2.34315 2.34315 1 4 1ZM9.11621 9.12305C9.40882 8.83029 9.88371 8.82969 10.1768 9.12207L13.8633 12.8027C14.1563 13.0954 14.1568 13.5702 13.8643 13.8633C13.5717 14.1564 13.0969 14.1567 12.8037 13.8643L9.11719 10.1846C8.82403 9.89194 8.82358 9.4162 9.11621 9.12305ZM4 10.5C3.17157 10.5 2.5 11.1716 2.5 12C2.5 12.8284 3.17157 13.5 4 13.5C4.82843 13.5 5.5 12.8284 5.5 12C5.5 11.1716 4.82843 10.5 4 10.5ZM4 2.5C3.17157 2.5 2.5 3.17157 2.5 4C2.5 4.82843 3.17157 5.5 4 5.5C4.82843 5.5 5.5 4.82843 5.5 4C5.5 3.17157 4.82843 2.5 4 2.5Z" fill="#000001"/>
</g>
</svg>
