<svg width="24" height="24" viewBox="0 0 24 24" fill="none" xmlns="http://www.w3.org/2000/svg">
<g id="size=24">
<path id="Path" d="M5.5 2C7.433 2 9 3.567 9 5.5C9 6.15112 8.82239 6.76104 8.5127 7.2832L11.9365 10.4746L19.7383 3.20117C20.0412 2.91876 20.5164 2.93538 20.7988 3.23828C21.0813 3.54126 21.0647 4.01638 20.7617 4.29883L12.4521 12.0449C12.449 12.0479 12.4455 12.0508 12.4424 12.0537L8.5127 15.7168C8.82239 16.239 9 16.8489 9 17.5C9 19.433 7.433 21 5.5 21C3.567 21 2 19.433 2 17.5C2 15.567 3.567 14 5.5 14C6.23898 14 6.92436 14.2292 7.48926 14.6201L10.8369 11.5L7.48926 8.37988C6.92436 8.77082 6.23898 9 5.5 9C3.567 9 2 7.433 2 5.5C2 3.567 3.567 2 5.5 2ZM14.2021 13.5869C14.4853 13.2846 14.9603 13.2696 15.2627 13.5527L20.7627 18.7021C21.065 18.9852 21.0808 19.4603 20.7979 19.7627C20.5148 20.065 20.0397 20.0808 19.7373 19.7979L14.2373 14.6475C13.935 14.3643 13.9191 13.8892 14.2021 13.5869ZM5.5 15.5C4.39543 15.5 3.5 16.3954 3.5 17.5C3.5 18.6046 4.39543 19.5 5.5 19.5C6.60457 19.5 7.5 18.6046 7.5 17.5C7.5 16.3954 6.60457 15.5 5.5 15.5ZM5.5 3.5C4.39543 3.5 3.5 4.39543 3.5 5.5C3.5 6.60457 4.39543 7.5 5.5 7.5C6.60457 7.5 7.5 6.60457 7.5 5.5C7.5 4.39543 6.60457 3.5 5.5 3.5Z" fill="#000001"/>
</g>
</svg>
