<svg width="24" height="24" viewBox="0 0 24 24" fill="none" xmlns="http://www.w3.org/2000/svg">
<g id="size=24">
<path id="Path" d="M5.5 1.99969C7.43289 1.99969 8.99983 3.56684 9 5.49969C9 6.15072 8.82231 6.76079 8.5127 7.2829L11.9365 10.4743L19.7383 3.20087C20.0412 2.91865 20.5164 2.93529 20.7988 3.23798C21.0812 3.5409 21.0645 4.01606 20.7617 4.29852L12.4521 12.0446C12.4491 12.0475 12.4455 12.0506 12.4424 12.0534L8.5127 15.7165C8.82234 16.2386 8.99994 16.8487 9 17.4997C9 19.4327 7.433 20.9997 5.5 20.9997C3.567 20.9997 2 19.4327 2 17.4997C2.00017 15.5668 3.56711 13.9997 5.5 13.9997C6.23892 13.9997 6.92439 14.2289 7.48926 14.6198L10.8369 11.4997L7.48926 8.37958C6.92436 8.77051 6.23898 8.99969 5.5 8.99969C3.567 8.99969 2 7.43269 2 5.49969C2.00017 3.56684 3.56711 1.99969 5.5 1.99969ZM14.2021 13.5866C14.4852 13.2845 14.9604 13.2695 15.2627 13.5524L20.7627 18.7018C21.065 18.9849 21.0807 19.46 20.7979 19.7624C20.5148 20.0647 20.0397 20.0805 19.7373 19.7975L14.2373 14.6472C13.9352 14.364 13.9191 13.8889 14.2021 13.5866ZM5.5 15.4997C4.39554 15.4997 3.50017 16.3953 3.5 17.4997C3.5 18.6043 4.39543 19.4997 5.5 19.4997C6.60457 19.4997 7.5 18.6043 7.5 17.4997C7.49983 16.3953 6.60446 15.4997 5.5 15.4997ZM5.5 3.49969C4.39554 3.49969 3.50017 4.39527 3.5 5.49969C3.5 6.60426 4.39543 7.49969 5.5 7.49969C6.60457 7.49969 7.5 6.60426 7.5 5.49969C7.49983 4.39527 6.60446 3.49969 5.5 3.49969Z" fill="#000001"/>
</g>
</svg>
