<svg width="24" height="24" viewBox="0 0 24 24" fill="none" xmlns="http://www.w3.org/2000/svg">
<g id="size=24">
<path id="Path" d="M10.5 1.99982C15.1944 1.99982 18.9999 5.80548 19 10.4998C19 12.5769 18.255 14.4804 17.0176 15.9568L21.7803 20.7195C22.0732 21.0124 22.0732 21.4872 21.7803 21.7801C21.4873 22.0715 21.0121 22.0725 20.7197 21.7801L15.957 17.0174C14.4808 18.254 12.5764 18.9998 10.5 18.9998C5.807 18.9982 2.00007 15.1932 2 10.4998C2.0001 5.80648 5.80702 2.00144 10.5 1.99982ZM10.5 3.49982C6.63545 3.50144 3.5001 6.63491 3.5 10.4998C3.50007 14.3647 6.63543 17.4982 10.5 17.4998C14.3659 17.4998 17.4999 14.3657 17.5 10.4998C17.4999 6.6339 14.3659 3.49982 10.5 3.49982Z" fill="#000001"/>
</g>
</svg>
