<svg width="16" height="16" viewBox="0 0 16 16" fill="none" xmlns="http://www.w3.org/2000/svg">
<g id="size=16">
<path id="Path" d="M6.34375 0.969116C9.31211 0.969312 11.7188 3.37571 11.7188 6.34412C11.7187 7.55778 11.3162 8.67783 10.6377 9.57751L14.8115 13.7513C15.1041 14.0443 15.1043 14.5191 14.8115 14.8119C14.5187 15.1047 14.0439 15.1044 13.751 14.8119L9.57715 10.6381C8.67747 11.3166 7.55741 11.719 6.34375 11.7191C3.37534 11.7191 0.968945 9.31248 0.96875 6.34412C0.96875 3.37559 3.37522 0.969116 6.34375 0.969116ZM6.34375 2.46912C4.20365 2.46912 2.46875 4.20401 2.46875 6.34412C2.46895 8.48405 4.20377 10.2191 6.34375 10.2191C8.48357 10.2189 10.2186 8.48393 10.2188 6.34412C10.2188 4.20413 8.48369 2.46931 6.34375 2.46912Z" fill="#000001"/>
</g>
</svg>
