<svg width="16" height="16" viewBox="0 0 16 16" fill="none" xmlns="http://www.w3.org/2000/svg">
<g id="size=16">
<path id="Path" d="M6.34375 0.968506C9.31219 0.968506 11.7186 3.37509 11.7188 6.34351C11.7188 7.55729 11.3163 8.67714 10.6377 9.5769L14.8115 13.7507C15.1044 14.0436 15.1044 14.5184 14.8115 14.8113C14.5186 15.1042 14.0439 15.1042 13.751 14.8113L9.57715 10.6375C8.67738 11.316 7.55754 11.7185 6.34375 11.7185C3.37534 11.7184 0.96875 9.31195 0.96875 6.34351C0.96889 3.37518 3.37543 0.968646 6.34375 0.968506ZM6.34375 2.46851C4.20385 2.46865 2.46889 4.20361 2.46875 6.34351C2.46875 8.48352 4.20377 10.2184 6.34375 10.2185C8.48385 10.2185 10.2188 8.48361 10.2188 6.34351C10.2186 4.20352 8.48377 2.46851 6.34375 2.46851Z" fill="#000001"/>
</g>
</svg>
