<svg width="24" height="24" viewBox="0 0 24 24" fill="none" xmlns="http://www.w3.org/2000/svg">
<g id="size=24">
<path id="Path" d="M10.5 1.99976C15.1943 1.99976 18.9999 5.80545 19 10.4998C19 12.5769 18.255 14.4804 17.0176 15.9568L21.7803 20.7195C22.0732 21.0124 22.0732 21.4871 21.7803 21.78C21.4873 22.0714 21.0121 22.0724 20.7197 21.78L15.957 17.0173C14.4808 18.2539 12.5764 18.9998 10.5 18.9998C5.80704 18.9981 2.00007 15.1931 2 10.4998C2.00014 5.80649 5.80709 2.00143 10.5 1.99976ZM10.5 3.49976C6.63552 3.50143 3.50014 6.63492 3.5 10.4998C3.50007 14.3647 6.63547 17.4981 10.5 17.4998C14.366 17.4998 17.4999 14.3657 17.5 10.4998C17.4999 6.63388 14.3659 3.49976 10.5 3.49976Z" fill="#000001"/>
</g>
</svg>
