<svg width="16" height="16" viewBox="0 0 16 16" fill="none" xmlns="http://www.w3.org/2000/svg">
<g id="size=16">
<path id="Path" fill-rule="evenodd" clip-rule="evenodd" d="M13.4745 0.920246C14.4742 0.553573 15.4465 1.52603 15.079 2.52571L10.8066 14.1224C10.4595 15.0637 9.20071 15.2322 8.61711 14.4163L5.70989 10.348C5.69411 10.3259 5.67425 10.3053 5.65227 10.2894L1.58293 7.38314C0.766394 6.79962 0.936055 5.53969 1.87786 5.19271L13.4745 0.920246ZM2.83977 6.43685L6.18352 8.8265L9.25481 5.75521C9.52823 5.48281 9.97199 5.48222 10.245 5.75521C10.5172 6.02825 10.517 6.47129 10.245 6.74446L7.17376 9.81575L9.56243 13.1605L13.4843 2.51595L2.83977 6.43685Z" fill="#000001"/>
</g>
</svg>
