<svg width="24" height="24" viewBox="0 0 24 24" fill="none" xmlns="http://www.w3.org/2000/svg">
<g id="size=24">
<path id="Path" fill-rule="evenodd" clip-rule="evenodd" d="M18.956 2.79508C20.3555 2.28162 21.7173 3.6426 21.2031 5.04215L15.4208 20.7355C14.9349 22.0531 13.1716 22.2893 12.3544 21.1476L8.41888 15.6379C8.40333 15.6163 8.38175 15.5949 8.36029 15.5793L2.85052 11.6437C1.70826 10.8268 1.94503 9.06341 3.26263 8.57731L18.956 2.79508ZM19.4745 4.20328L3.78118 9.98453C3.59389 10.0542 3.55964 10.3062 3.72161 10.423L8.8515 14.0861L14.4677 8.46989C14.7604 8.17844 15.2357 8.17817 15.5283 8.46989C15.8193 8.7625 15.8195 9.23793 15.5283 9.53043L9.91204 15.1466L13.5751 20.2765C13.6922 20.4378 13.9441 20.4042 14.0136 20.217L19.7949 4.5236C19.867 4.32466 19.6735 4.13195 19.4745 4.20328Z" fill="#000001"/>
</g>
</svg>
