<svg width="24" height="24" viewBox="0 0 24 24" fill="none" xmlns="http://www.w3.org/2000/svg">
<g id="size=24">
<path id="Path" fill-rule="evenodd" clip-rule="evenodd" d="M18.9561 2.79586C20.3557 2.28237 21.7177 3.64331 21.2032 5.04293L15.421 20.7363C14.9348 22.0534 13.1717 22.2898 12.3546 21.1484L8.41902 15.6386C8.40345 15.617 8.38203 15.5958 8.36043 15.58L2.85066 11.6445C1.70802 10.8277 1.94522 9.06436 3.26277 8.57808L18.9561 2.79586ZM19.4747 4.20406L3.78132 9.98531C3.59408 10.0552 3.55941 10.3071 3.72175 10.4238L8.85164 14.0869L14.4678 8.47066C14.7607 8.17909 15.2359 8.17857 15.5284 8.47066C15.8194 8.76328 15.8196 9.23872 15.5284 9.53121L9.91218 15.1474L13.5753 20.2773C13.6923 20.4384 13.944 20.4045 14.0137 20.2177L19.795 4.52437C19.8674 4.32537 19.6737 4.1327 19.4747 4.20406Z" fill="#000001"/>
</g>
</svg>
