<svg width="16" height="16" viewBox="0 0 16 16" fill="none" xmlns="http://www.w3.org/2000/svg">
<g id="size=16">
<path id="Path" fill-rule="evenodd" clip-rule="evenodd" d="M13.4745 0.919897C14.4742 0.553264 15.4465 1.52569 15.079 2.52537L10.8066 14.122C10.4596 15.0637 9.20069 15.2322 8.61711 14.416L5.70989 10.3476C5.69406 10.3255 5.67433 10.3049 5.65227 10.289L1.58293 7.38279C0.766394 6.79927 0.936055 5.53934 1.87786 5.19236L13.4745 0.919897ZM2.83977 6.4365L6.18352 8.82615L9.25481 5.75486C9.52824 5.48251 9.972 5.48189 10.245 5.75486C10.5173 6.02787 10.517 6.47087 10.245 6.74412L7.17376 9.8154L9.56243 13.1601L13.4843 2.5156L2.83977 6.4365Z" fill="#000001"/>
</g>
</svg>
