<svg width="16" height="16" viewBox="0 0 16 16" fill="none" xmlns="http://www.w3.org/2000/svg">
<g id="size=16">
<path id="Path" d="M8 0C9.24264 0 10.25 1.00736 10.25 2.25C10.25 3.22962 9.62383 4.06316 8.75 4.37207V4.83691C9.47217 5.00752 10.1007 5.41926 10.5469 5.98145L11.1729 5.61523C11.0618 5.34883 11 5.05666 11 4.75C11 3.50736 12.0074 2.5 13.25 2.5C14.4926 2.5 15.5 3.50736 15.5 4.75C15.5 5.99264 14.4926 7 13.25 7C12.875 7 12.5209 6.90838 12.21 6.74609L11.1846 7.34668C11.2278 7.55804 11.25 7.77664 11.25 8C11.25 8.22336 11.2278 8.44195 11.1846 8.65332L12.21 9.25391C12.5209 9.09162 12.875 9 13.25 9C14.4926 9 15.5 10.0074 15.5 11.25C15.5 12.4926 14.4926 13.5 13.25 13.5C12.0074 13.5 11 12.4926 11 11.25C11 10.9433 11.0618 10.6512 11.1729 10.3848L10.5469 10.0186C10.1007 10.5807 9.47217 10.9925 8.75 11.1631V11.6279C9.62383 11.9368 10.25 12.7704 10.25 13.75C10.25 14.9926 9.24264 16 8 16C6.75736 16 5.75 14.9926 5.75 13.75C5.75 12.7703 6.37609 11.9368 7.25 11.6279V11.1631C6.52782 10.9924 5.89926 10.5808 5.45312 10.0186L4.82715 10.3848C4.93824 10.6512 5 10.9434 5 11.25C5 12.4926 3.99264 13.5 2.75 13.5C1.50736 13.5 0.5 12.4926 0.5 11.25C0.5 10.0074 1.50736 9 2.75 9C3.12508 9 3.47906 9.09158 3.79004 9.25391L4.81641 8.65332C4.77322 8.44195 4.75 8.22336 4.75 8C4.75 7.77664 4.77322 7.55805 4.81641 7.34668L3.79004 6.74609C3.47906 6.90842 3.12508 7 2.75 7C1.50736 7 0.5 5.99264 0.5 4.75C0.5 3.50736 1.50736 2.5 2.75 2.5C3.99264 2.5 5 3.50736 5 4.75C5 5.05665 4.93824 5.34884 4.82715 5.61523L5.45312 5.98145C5.89926 5.41923 6.52782 5.00755 7.25 4.83691V4.37207C6.37609 4.0632 5.75 3.22968 5.75 2.25C5.75 1.00736 6.75736 0 8 0ZM8 13C7.58579 13 7.25 13.3358 7.25 13.75C7.25 14.1642 7.58579 14.5 8 14.5C8.41421 14.5 8.75 14.1642 8.75 13.75C8.75 13.3358 8.41421 13 8 13ZM2.75 10.5C2.33579 10.5 2 10.8358 2 11.25C2 11.6642 2.33579 12 2.75 12C3.16421 12 3.5 11.6642 3.5 11.25C3.5 10.8358 3.16421 10.5 2.75 10.5ZM13.25 10.5C12.8358 10.5 12.5 10.8358 12.5 11.25C12.5 11.6642 12.8358 12 13.25 12C13.6642 12 14 11.6642 14 11.25C14 10.8358 13.6642 10.5 13.25 10.5ZM8 6.25C7.28377 6.25005 6.66632 6.68044 6.39551 7.2998C6.3023 7.51312 6.25 7.74973 6.25 8C6.25 8.25027 6.3023 8.48687 6.39551 8.7002C6.66632 9.31956 7.28377 9.74995 8 9.75C8.71624 9.75 9.33364 9.31955 9.60449 8.7002C9.6977 8.48688 9.75 8.25027 9.75 8C9.75 7.74973 9.69769 7.51312 9.60449 7.2998C9.33364 6.68045 8.71624 6.25 8 6.25ZM2.75 4C2.33579 4 2 4.33579 2 4.75C2 5.16421 2.33579 5.5 2.75 5.5C3.16421 5.5 3.5 5.16421 3.5 4.75C3.5 4.33579 3.16421 4 2.75 4ZM13.25 4C12.8358 4 12.5 4.33579 12.5 4.75C12.5 5.16421 12.8358 5.5 13.25 5.5C13.6642 5.5 14 5.16421 14 4.75C14 4.33579 13.6642 4 13.25 4ZM8 1.5C7.58579 1.5 7.25 1.83579 7.25 2.25C7.25 2.66421 7.58579 3 8 3C8.41421 3 8.75 2.66421 8.75 2.25C8.75 1.83579 8.41421 1.5 8 1.5Z" fill="#000001"/>
</g>
</svg>
