<svg width="24" height="24" viewBox="0 0 24 24" fill="none" xmlns="http://www.w3.org/2000/svg">
<g id="size=24">
<path id="Path" fill-rule="evenodd" clip-rule="evenodd" d="M12 0.5C10.6193 0.5 9.5 1.61929 9.5 3C9.5 4.11937 10.2357 5.06692 11.2499 5.38552V7.05589C9.92107 7.25582 8.76407 7.97873 7.99456 9.00681L6.26369 8.06238C6.41528 7.73995 6.5 7.37987 6.5 7C6.5 5.61929 5.38071 4.5 4 4.5C2.61929 4.5 1.5 5.61929 1.5 7C1.5 8.38071 2.61929 9.5 4 9.5C4.43597 9.5 4.84587 9.3884 5.2027 9.19222L7.28615 10.329C7.10072 10.8521 6.9999 11.4148 6.9999 12C6.9999 12.6154 7.11139 13.2059 7.31552 13.7516L5.54848 15.0372C5.12267 14.7008 4.58478 14.5 4 14.5C2.61929 14.5 1.5 15.6193 1.5 17C1.5 18.3807 2.61929 19.5 4 19.5C5.38071 19.5 6.5 18.3807 6.5 17C6.5 16.7486 6.4629 16.5059 6.39389 16.2771L8.05315 15.0699C8.82218 16.0572 9.95438 16.7492 11.2499 16.9441V18.6145C10.2357 18.9331 9.5 19.8806 9.5 21C9.5 22.3807 10.6193 23.5 12 23.5C13.3807 23.5 14.5 22.3807 14.5 21C14.5 19.8806 13.7642 18.933 12.7499 18.6144V16.9441C14.0454 16.7492 15.1776 16.0572 15.9466 15.0699L17.6061 16.2772C17.5371 16.506 17.5 16.7487 17.5 17C17.5 18.3807 18.6193 19.5 20 19.5C21.3807 19.5 22.5 18.3807 22.5 17C22.5 15.6193 21.3807 14.5 20 14.5C19.4152 14.5 18.8772 14.7008 18.4514 15.0372L16.6843 13.7516C16.8884 13.2059 16.9999 12.6154 16.9999 12C16.9999 11.4148 16.8991 10.8521 16.7136 10.329L18.7972 9.19217C19.154 9.38838 19.564 9.5 20 9.5C21.3807 9.5 22.5 8.38071 22.5 7C22.5 5.61929 21.3807 4.5 20 4.5C18.6193 4.5 17.5 5.61929 17.5 7C17.5 7.37983 17.5847 7.73988 17.7363 8.06229L16.0052 9.00681C15.2357 7.97873 14.0787 7.25582 12.7499 7.05589V5.38558C13.7642 5.06705 14.5 4.11945 14.5 3C14.5 1.61929 13.3807 0.5 12 0.5ZM11 3C11 2.44772 11.4477 2 12 2C12.5523 2 13 2.44772 13 3C13 3.55228 12.5523 4 12 4C11.4477 4 11 3.55228 11 3ZM4 6C3.44772 6 3 6.44772 3 7C3 7.55228 3.44772 8 4 8C4.55228 8 5 7.55228 5 7C5 6.44772 4.55228 6 4 6ZM4 16C3.44772 16 3 16.4477 3 17C3 17.5523 3.44772 18 4 18C4.55228 18 5 17.5523 5 17C5 16.4477 4.55228 16 4 16ZM11 21C11 20.4477 11.4477 20 12 20C12.5523 20 13 20.4477 13 21C13 21.5523 12.5523 22 12 22C11.4477 22 11 21.5523 11 21ZM20 16C19.4477 16 19 16.4477 19 17C19 17.5523 19.4477 18 20 18C20.5523 18 21 17.5523 21 17C21 16.4477 20.5523 16 20 16ZM20 6C19.4477 6 19 6.44772 19 7C19 7.55228 19.4477 8 20 8C20.5523 8 21 7.55228 21 7C21 6.44772 20.5523 6 20 6ZM8.91044 10.3534C9.50063 9.24888 10.6634 8.5 11.9999 8.5C13.3364 8.5 14.4992 9.24888 15.0894 10.3534C15.3512 10.8434 15.4999 11.4032 15.4999 12C15.4999 12.5968 15.3512 13.1566 15.0894 13.6466C14.4992 14.7511 13.3364 15.5 11.9999 15.5C10.6634 15.5 9.50063 14.7511 8.91044 13.6466C8.64864 13.1566 8.4999 12.5968 8.4999 12C8.4999 11.4032 8.64864 10.8434 8.91044 10.3534Z" fill="#000001"/>
</g>
</svg>
