<svg width="16" height="16" viewBox="0 0 16 16" fill="none" xmlns="http://www.w3.org/2000/svg">
<g id="size=16">
<g id="Path">
<path d="M6.83382 0.329711C7.55059 -0.104695 8.44941 -0.104696 9.16618 0.329711L14.4162 3.51153C15.089 3.91932 15.5 4.64895 15.5 5.43572V5.99993C15.5 6.41414 15.1642 6.74993 14.75 6.74993C14.3358 6.74993 14 6.41414 14 5.99993V5.43572C14 5.17346 13.863 4.93026 13.6387 4.79433L8.38873 1.61251C8.1498 1.46771 7.8502 1.46771 7.61127 1.61251L2.36127 4.79433C2.13699 4.93026 2 5.17346 2 5.43572V10.5641C2 10.8264 2.13699 11.0696 2.36127 11.2055L6.38873 13.6464C6.74296 13.8611 6.85609 14.3223 6.6414 14.6765C6.42671 15.0308 5.96551 15.1439 5.61127 14.9292L1.58382 12.4883C0.91097 12.0805 0.5 11.3509 0.5 10.5641V5.43572C0.5 4.64895 0.91097 3.91932 1.58382 3.51153L6.83382 0.329711Z" fill="#000001"/>
<path fill-rule="evenodd" clip-rule="evenodd" d="M11.7488 7.32483C11.7496 7.31082 11.75 7.29671 11.75 7.28251V6.9968C11.75 6.58259 11.4142 6.2468 11 6.2468C10.5858 6.2468 10.25 6.58259 10.25 6.9968V7.28251C10.25 7.29671 10.2504 7.31082 10.2512 7.32483C9.77225 7.42194 9.32653 7.61032 8.93298 7.87078C8.92364 7.86034 8.91396 7.8501 8.90394 7.84008L8.70191 7.63805C8.40902 7.34516 7.93414 7.34516 7.64125 7.63805C7.34835 7.93094 7.34835 8.40582 7.64125 8.69871L7.84328 8.90074C7.85307 8.91053 7.86307 8.92 7.87326 8.92914C7.61207 9.32288 7.42319 9.76905 7.32559 10.2478C7.31239 10.2472 7.29909 10.2468 7.28571 10.2468H7C6.58579 10.2468 6.25 10.5826 6.25 10.9968C6.25 11.411 6.58579 11.7468 7 11.7468H7.28571C7.29866 11.7468 7.31153 11.7465 7.32431 11.7458C7.4212 12.2254 7.60964 12.6724 7.87061 13.0669C7.86133 13.0753 7.85221 13.0839 7.84327 13.0929L7.64124 13.2949C7.34834 13.5878 7.34834 14.0627 7.64124 14.3556C7.93413 14.6485 8.409 14.6485 8.7019 14.3556L8.90393 14.1535C8.91267 14.1448 8.92115 14.1359 8.92937 14.1268C9.32372 14.3885 9.77058 14.5777 10.2509 14.6751C10.2503 14.687 10.25 14.699 10.25 14.7111V14.9968C10.25 15.411 10.5858 15.7468 11 15.7468C11.4142 15.7468 11.75 15.411 11.75 14.9968V14.7111C11.75 14.699 11.7497 14.687 11.7491 14.6751C12.2294 14.5777 12.6763 14.3885 13.0706 14.1268C13.0789 14.1359 13.0873 14.1448 13.0961 14.1535L13.2981 14.3556C13.591 14.6485 14.0659 14.6485 14.3588 14.3556C14.6517 14.0627 14.6517 13.5878 14.3588 13.2949L14.1567 13.0929C14.1478 13.0839 14.1387 13.0753 14.1294 13.0669C14.3904 12.6724 14.5788 12.2254 14.6757 11.7458C14.6885 11.7465 14.7013 11.7468 14.7143 11.7468H15C15.4142 11.7468 15.75 11.411 15.75 10.9968C15.75 10.5826 15.4142 10.2468 15 10.2468H14.7143C14.7009 10.2468 14.6876 10.2472 14.6744 10.2478C14.5768 9.76905 14.3879 9.32288 14.1267 8.92914C14.1369 8.92 14.1469 8.91053 14.1567 8.90074L14.3588 8.69871C14.6516 8.40582 14.6516 7.93094 14.3588 7.63805C14.0659 7.34516 13.591 7.34516 13.2981 7.63805L13.0961 7.84008C13.086 7.8501 13.0764 7.86034 13.067 7.87078C12.6735 7.61032 12.2277 7.42194 11.7488 7.32483ZM11 8.75C10.2198 8.75 9.53197 9.14643 9.12724 9.75232C8.88894 10.1091 8.75 10.5372 8.75 11C8.75 11.4628 8.88894 11.8909 9.12724 12.2477C9.53197 12.8536 10.2198 13.25 11 13.25C11.7802 13.25 12.468 12.8536 12.8728 12.2477C13.1111 11.8909 13.25 11.4628 13.25 11C13.25 10.5372 13.1111 10.1091 12.8728 9.75232C12.468 9.14643 11.7802 8.75 11 8.75Z" fill="#000001"/>
</g>
</g>
</svg>
