<svg width="16" height="16" viewBox="0 0 16 16" fill="none" xmlns="http://www.w3.org/2000/svg">
<g id="size=16">
<path id="Path" fill-rule="evenodd" clip-rule="evenodd" d="M11 6.24637C11.4141 6.24637 11.7497 6.58238 11.75 6.99637V7.28153C11.75 7.29557 11.7498 7.31063 11.749 7.32449C12.2278 7.4216 12.6739 7.61005 13.0674 7.87039C13.0766 7.86007 13.0858 7.84905 13.0957 7.83914L13.2979 7.63797C13.5907 7.3454 14.0656 7.3454 14.3584 7.63797C14.6512 7.93079 14.651 8.40562 14.3584 8.69852L14.1562 8.90067C14.1467 8.91022 14.1369 8.92005 14.127 8.92899C14.3879 9.32252 14.5772 9.76887 14.6748 10.2473C14.6877 10.2467 14.7008 10.2464 14.7139 10.2464H15C15.4141 10.2464 15.7497 10.5824 15.75 10.9964C15.75 11.4105 15.4142 11.7464 15 11.7464H14.7139C14.7011 11.7464 14.6884 11.746 14.6758 11.7454C14.5789 12.2248 14.3898 12.6723 14.1289 13.0667C14.138 13.0749 14.1475 13.0833 14.1562 13.0921L14.3584 13.2942C14.6512 13.587 14.6511 14.0619 14.3584 14.3548C14.0655 14.6476 13.5907 14.6476 13.2979 14.3548L13.0957 14.1526C13.0872 14.1441 13.0783 14.1351 13.0703 14.1263C12.676 14.3878 12.2292 14.5767 11.749 14.6741C11.7496 14.6858 11.75 14.6984 11.75 14.7102V14.9964C11.75 15.4105 11.4142 15.7464 11 15.7464C10.5858 15.7464 10.25 15.4105 10.25 14.9964V14.7102C10.25 14.6984 10.2504 14.6858 10.251 14.6741C9.77082 14.5767 9.32396 14.3878 8.92969 14.1263C8.92166 14.1351 8.91283 14.1441 8.9043 14.1526L8.70215 14.3548C8.40927 14.6476 7.9345 14.6476 7.6416 14.3548C7.34895 14.0619 7.34879 13.587 7.6416 13.2942L7.84375 13.0921C7.85251 13.0834 7.86203 13.0749 7.87109 13.0667C7.61025 12.6723 7.42109 12.2248 7.32422 11.7454C7.3116 11.746 7.2989 11.7464 7.28613 11.7464H7C6.58582 11.7464 6.25005 11.4105 6.25 10.9964C6.25026 10.5824 6.58595 10.2464 7 10.2464H7.28613C7.29923 10.2464 7.31226 10.2467 7.3252 10.2473C7.42279 9.76887 7.61206 9.32252 7.87305 8.92899C7.8631 8.92005 7.85332 8.91022 7.84375 8.90067L7.6416 8.69852C7.34896 8.40562 7.34883 7.93079 7.6416 7.63797C7.93443 7.3454 8.40932 7.3454 8.70215 7.63797L8.9043 7.83914C8.9142 7.84905 8.92339 7.86007 8.93262 7.87039C9.32605 7.61005 9.77223 7.4216 10.251 7.32449C10.2502 7.31063 10.25 7.29557 10.25 7.28153V6.99637C10.2503 6.58238 10.5859 6.24637 11 6.24637ZM6.83398 0.329378C7.55063 -0.104828 8.44937 -0.104829 9.16602 0.329378L14.416 3.51102C15.0886 3.91866 15.4997 4.64839 15.5 5.43485V5.9993C15.5 6.41351 15.1642 6.7493 14.75 6.7493C14.3358 6.7493 14 6.41351 14 5.9993V5.43485C13.9997 5.17296 13.8626 4.93002 13.6387 4.79422L8.38867 1.6116C8.14996 1.46714 7.85004 1.46714 7.61133 1.6116L2.36133 4.79422C2.13737 4.93002 2.00029 5.17296 2 5.43485V10.5638C2.00005 10.8259 2.13721 11.0694 2.36133 11.2054L6.38867 13.6458C6.74277 13.8604 6.85596 14.3219 6.6416 14.6761C6.42695 15.0302 5.96554 15.1435 5.61133 14.929L1.58398 12.4876C0.9113 12.0798 0.50005 11.3504 0.5 10.5638V5.43485C0.500291 4.64839 0.911372 3.91866 1.58398 3.51102L6.83398 0.329378ZM11 8.7493C10.22 8.7493 9.53171 9.14653 9.12695 9.75223C8.88894 10.1087 8.75013 10.5369 8.75 10.9993C8.75 11.462 8.88879 11.8907 9.12695 12.2473C9.53168 12.8532 10.2198 13.2493 11 13.2493C11.7802 13.2493 12.4683 12.8532 12.873 12.2473C13.1112 11.8907 13.25 11.462 13.25 10.9993C13.2499 10.5369 13.1111 10.1087 12.873 9.75223C12.4683 9.14653 11.78 8.7493 11 8.7493Z" fill="#000001"/>
</g>
</svg>
