<svg width="16" height="16" viewBox="0 0 16 16" fill="none" xmlns="http://www.w3.org/2000/svg">
<g id="size=16">
<path id="Path" d="M8 0C9.24263 0 10.25 1.00737 10.25 2.25C10.25 3.22962 9.62383 4.06316 8.75 4.37207V4.83691C9.47216 5.00752 10.1007 5.41928 10.5469 5.98145L11.1729 5.61523C11.0618 5.34884 11 5.05665 11 4.75C11 3.50739 12.0074 2.50003 13.25 2.5C14.4926 2.5 15.5 3.50737 15.5 4.75C15.5 5.99264 14.4926 7 13.25 7C12.875 6.99999 12.5209 6.90837 12.21 6.74609L11.1846 7.34668C11.2278 7.55804 11.25 7.77665 11.25 8C11.25 8.22336 11.2278 8.44196 11.1846 8.65332L12.21 9.25391C12.5209 9.09163 12.875 9.00001 13.25 9C14.4926 9 15.5 10.0074 15.5 11.25C15.5 12.4926 14.4926 13.5 13.25 13.5C12.0074 13.5 11 12.4926 11 11.25C11 10.9433 11.0618 10.6512 11.1729 10.3848L10.5469 10.0186C10.1007 10.5807 9.47216 10.9925 8.75 11.1631V11.6279C9.62383 11.9368 10.25 12.7704 10.25 13.75C10.25 14.9926 9.24264 16 8 16C6.75739 16 5.75 14.9926 5.75 13.75C5.75001 12.7703 6.37612 11.9368 7.25 11.6279V11.1631C6.52784 10.9924 5.89925 10.5808 5.45312 10.0186L4.82715 10.3848C4.93823 10.6512 5 10.9434 5 11.25C5 12.4926 3.99264 13.5 2.75 13.5C1.50739 13.5 0.5 12.4926 0.5 11.25C0.500009 10.0074 1.50739 9.00003 2.75 9C3.12506 9 3.47907 9.0916 3.79004 9.25391L4.81641 8.65332C4.77322 8.44196 4.75 8.22335 4.75 8C4.75 7.77664 4.77322 7.55804 4.81641 7.34668L3.79004 6.74609C3.47907 6.90841 3.12507 7 2.75 7C1.50739 6.99997 0.5 5.99262 0.5 4.75C0.500009 3.50739 1.50739 2.50003 2.75 2.5C3.99263 2.5 4.99999 3.50737 5 4.75C5 5.05665 4.93824 5.34884 4.82715 5.61523L5.45312 5.98145C5.89925 5.41924 6.52784 5.00756 7.25 4.83691V4.37207C6.37612 4.06319 5.75 3.22965 5.75 2.25C5.75001 1.00739 6.75739 3.1114e-05 8 0ZM8 13C7.58582 13 7.25001 13.3358 7.25 13.75C7.25 14.1642 7.58581 14.5 8 14.5C8.41421 14.5 8.75 14.1642 8.75 13.75C8.74999 13.3358 8.41421 13 8 13ZM2.75 10.5C2.33582 10.5 2.00001 10.8358 2 11.25C2 11.6642 2.33581 12 2.75 12C3.16421 12 3.5 11.6642 3.5 11.25C3.49999 10.8358 3.16421 10.5 2.75 10.5ZM13.25 10.5C12.8358 10.5 12.5 10.8358 12.5 11.25C12.5 11.6642 12.8358 12 13.25 12C13.6642 12 14 11.6642 14 11.25C14 10.8358 13.6642 10.5 13.25 10.5ZM8 6.25C7.2838 6.25007 6.66631 6.68045 6.39551 7.2998C6.30231 7.51312 6.25 7.74974 6.25 8C6.25 8.25026 6.30231 8.48688 6.39551 8.7002C6.66631 9.31955 7.2838 9.74993 8 9.75C8.71624 9.75 9.33364 9.31955 9.60449 8.7002C9.6977 8.48688 9.75 8.25027 9.75 8C9.75 7.74974 9.69769 7.51312 9.60449 7.2998C9.33363 6.68047 8.71623 6.25 8 6.25ZM2.75 4C2.33582 4.00003 2.00001 4.33581 2 4.75C2 5.16419 2.33581 5.49997 2.75 5.5C3.16421 5.5 3.5 5.16421 3.5 4.75C3.49999 4.33579 3.16421 4 2.75 4ZM13.25 4C12.8358 4.00003 12.5 4.33581 12.5 4.75C12.5 5.16419 12.8358 5.49997 13.25 5.5C13.6642 5.5 14 5.16421 14 4.75C14 4.33579 13.6642 4 13.25 4ZM8 1.5C7.58582 1.50003 7.25001 1.83581 7.25 2.25C7.25 2.66419 7.58581 2.99997 8 3C8.41421 3 8.75 2.66421 8.75 2.25C8.74999 1.83579 8.41421 1.5 8 1.5Z" fill="#000001"/>
</g>
</svg>
