<svg width="16" height="16" viewBox="0 0 16 16" fill="none" xmlns="http://www.w3.org/2000/svg">
<g id="size=16">
<g id="Path">
<path d="M3.75 11.5C3.33579 11.5 3 11.8358 3 12.25C3 12.6642 3.33579 13 3.75 13H4.25C4.66421 13 5 12.6642 5 12.25C5 11.8358 4.66421 11.5 4.25 11.5H3.75Z" fill="#000001"/>
<path fill-rule="evenodd" clip-rule="evenodd" d="M1.28033 0.21967C0.987437 -0.0732233 0.512563 -0.0732233 0.21967 0.21967C-0.0731405 0.51248 -0.0732233 0.987168 0.219421 1.28008C0.0788861 1.57387 0 1.90301 0 2.25V4.75C0 5.99264 1.00736 7 2.25 7H5.93934L7.93934 9H2.25C1.00736 9 0 10.0074 0 11.25V13.75C0 14.9926 1.00736 16 2.25 16H13.75C14.0969 16 14.4261 15.9211 14.7199 15.7806C15.0128 16.0732 15.4875 16.0731 15.7803 15.7803C16.0732 15.4874 16.0732 15.0126 15.7803 14.7197L1.28033 0.21967ZM2.25 10.5H9.43934L13.4393 14.5H2.25C1.83579 14.5 1.5 14.1642 1.5 13.75V11.25C1.5 10.8358 1.83579 10.5 2.25 10.5ZM4.43934 5.5L1.5 2.56066V4.75C1.5 5.16421 1.83579 5.5 2.25 5.5H4.43934Z" fill="#000001"/>
<path d="M13.75 0H5C4.58579 0 4.25 0.335786 4.25 0.75C4.25 1.16421 4.58579 1.5 5 1.5H13.75C14.1642 1.5 14.5 1.83579 14.5 2.25V4.75C14.5 5.16421 14.1642 5.5 13.75 5.5H10.5C10.0858 5.5 9.75 5.83579 9.75 6.25C9.75 6.66421 10.0858 7 10.5 7H13.75C14.9926 7 16 5.99264 16 4.75V2.25C16 1.00736 14.9926 0 13.75 0Z" fill="#000001"/>
<path d="M13 9.75C13 9.33579 13.3358 9 13.75 9C14.9926 9 16 10.0074 16 11.25C16 11.6642 15.6642 12 15.25 12C14.8358 12 14.5 11.6642 14.5 11.25C14.5 10.8358 14.1642 10.5 13.75 10.5C13.3358 10.5 13 10.1642 13 9.75Z" fill="#000001"/>
</g>
</g>
</svg>
