<svg width="24" height="24" viewBox="0 0 24 24" fill="none" xmlns="http://www.w3.org/2000/svg">
<g id="size=24">
<path id="Path" d="M20.25 13C21.7688 13 23 14.2312 23 15.75V20.25C23 21.7688 21.7688 23 20.25 23H3.75C2.23122 23 1 21.7688 1 20.25V15.75C1 14.2312 2.23122 13 3.75 13H20.25ZM3.75 14.5C3.05964 14.5 2.5 15.0596 2.5 15.75V20.25C2.5 20.9404 3.05964 21.5 3.75 21.5H20.25C20.9404 21.5 21.5 20.9404 21.5 20.25V15.75C21.5 15.0596 20.9404 14.5 20.25 14.5H3.75ZM6.25 17C6.66421 17 7 17.3358 7 17.75C7 18.1642 6.66421 18.5 6.25 18.5H5.75C5.33579 18.5 5 18.1642 5 17.75C5 17.3358 5.33579 17 5.75 17H6.25ZM20.25 1C21.7688 1 23 2.23122 23 3.75V8.25C23 9.76878 21.7688 11 20.25 11H3.75C2.23122 11 1 9.76878 1 8.25V3.75C1 2.23122 2.23122 1 3.75 1H20.25ZM3.75 2.5C3.05964 2.5 2.5 3.05964 2.5 3.75V8.25C2.5 8.94036 3.05964 9.5 3.75 9.5H20.25C20.9404 9.5 21.5 8.94036 21.5 8.25V3.75C21.5 3.05964 20.9404 2.5 20.25 2.5H3.75ZM6.25 5C6.66421 5 7 5.33579 7 5.75C7 6.16421 6.66421 6.5 6.25 6.5H5.75C5.33579 6.5 5 6.16421 5 5.75C5 5.33579 5.33579 5 5.75 5H6.25Z" fill="#000001"/>
</g>
</svg>
