<svg width="16" height="16" viewBox="0 0 16 16" fill="none" xmlns="http://www.w3.org/2000/svg">
<g id="size=16">
<path id="Path" d="M13.75 9C14.9926 9 16 10.0074 16 11.25V13.75C16 14.9926 14.9926 16 13.75 16H2.25C1.00736 16 0 14.9926 0 13.75V11.25C0 10.0074 1.00736 9 2.25 9H13.75ZM2.25 10.5C1.83579 10.5 1.5 10.8358 1.5 11.25V13.75C1.5 14.1642 1.83579 14.5 2.25 14.5H13.75C14.1642 14.5 14.5 14.1642 14.5 13.75V11.25C14.5 10.8358 14.1642 10.5 13.75 10.5H2.25ZM4.25 11.5C4.66421 11.5 5 11.8358 5 12.25C5 12.6642 4.66421 13 4.25 13H3.75C3.33579 13 3 12.6642 3 12.25C3 11.8358 3.33579 11.5 3.75 11.5H4.25ZM13.75 0C14.9926 0 16 1.00736 16 2.25V4.75C16 5.99264 14.9926 7 13.75 7H2.25C1.00736 7 0 5.99264 0 4.75V2.25C0 1.00736 1.00736 0 2.25 0H13.75ZM2.25 1.5C1.83579 1.5 1.5 1.83579 1.5 2.25V4.75C1.5 5.16421 1.83579 5.5 2.25 5.5H13.75C14.1642 5.5 14.5 5.16421 14.5 4.75V2.25C14.5 1.83579 14.1642 1.5 13.75 1.5H2.25ZM4.25 2.5C4.66421 2.5 5 2.83579 5 3.25C5 3.66421 4.66421 4 4.25 4H3.75C3.33579 4 3 3.66421 3 3.25C3 2.83579 3.33579 2.5 3.75 2.5H4.25Z" fill="#000001"/>
</g>
</svg>
