<svg width="16" height="16" viewBox="0 0 16 16" fill="none" xmlns="http://www.w3.org/2000/svg">
<g id="size=16">
<path id="Path" fill-rule="evenodd" clip-rule="evenodd" d="M11 6.24699C11.4142 6.24699 11.75 6.58277 11.75 6.99699V7.28214C11.75 7.29631 11.7498 7.31114 11.749 7.32511C12.2279 7.42224 12.6739 7.6106 13.0674 7.87101C13.0767 7.86063 13.0857 7.84974 13.0957 7.83976L13.2979 7.63859C13.5907 7.34569 14.0655 7.34569 14.3584 7.63859C14.6512 7.93149 14.6513 8.40627 14.3584 8.69913L14.1562 8.90128C14.1466 8.9109 14.137 8.92062 14.127 8.9296C14.388 9.32324 14.5772 9.76934 14.6748 10.248C14.6877 10.2473 14.7008 10.247 14.7139 10.247H15C15.4142 10.247 15.75 10.5828 15.75 10.997C15.7499 11.4111 15.4142 11.747 15 11.747H14.7139C14.7011 11.747 14.6884 11.7466 14.6758 11.746C14.5789 12.2255 14.3898 12.6728 14.1289 13.0673C14.138 13.0756 14.1474 13.0839 14.1562 13.0927L14.3584 13.2948C14.6512 13.5877 14.6513 14.0625 14.3584 14.3554C14.0655 14.6482 13.5907 14.6482 13.2979 14.3554L13.0957 14.1532C13.0871 14.1446 13.0784 14.1358 13.0703 14.1269C12.676 14.3884 12.2292 14.5773 11.749 14.6747C11.7496 14.6865 11.75 14.6989 11.75 14.7109V14.997C11.7499 15.4111 11.4142 15.747 11 15.747C10.5858 15.747 10.2501 15.4111 10.25 14.997V14.7109C10.25 14.6989 10.2504 14.6865 10.251 14.6747C9.77081 14.5773 9.32398 14.3884 8.92969 14.1269C8.9216 14.1358 8.91289 14.1446 8.9043 14.1532L8.70215 14.3554C8.40928 14.6482 7.93449 14.6482 7.6416 14.3554C7.34872 14.0625 7.34876 13.5877 7.6416 13.2948L7.84375 13.0927C7.85256 13.0839 7.86196 13.0756 7.87109 13.0673C7.61015 12.6728 7.42112 12.2255 7.32422 11.746C7.31161 11.7466 7.2989 11.747 7.28613 11.747H7C6.58585 11.747 6.2501 11.4111 6.25 10.997C6.25 10.5828 6.58579 10.247 7 10.247H7.28613C7.29924 10.247 7.31226 10.2473 7.3252 10.248C7.42276 9.76934 7.612 9.32324 7.87305 8.9296C7.86303 8.92062 7.85338 8.9109 7.84375 8.90128L7.6416 8.69913C7.34874 8.40627 7.3488 7.93149 7.6416 7.63859C7.93449 7.34569 8.40926 7.34569 8.70215 7.63859L8.9043 7.83976C8.91427 7.84974 8.92332 7.86063 8.93262 7.87101C9.3261 7.6106 9.77215 7.42224 10.251 7.32511C10.2502 7.31114 10.25 7.29631 10.25 7.28214V6.99699C10.25 6.58277 10.5858 6.24699 11 6.24699ZM6.83398 0.329994C7.55074 -0.104383 8.44926 -0.104383 9.16602 0.329994L14.416 3.51163C15.0887 3.91937 15.4999 4.64884 15.5 5.43546V5.99992C15.4999 6.41409 15.1642 6.74992 14.75 6.74992C14.3358 6.74992 14.0001 6.41409 14 5.99992V5.43546C13.9999 5.17341 13.8627 4.93073 13.6387 4.79484L8.38867 1.61222C8.14985 1.46759 7.85015 1.46759 7.61133 1.61222L2.36133 4.79484C2.13726 4.93073 2.00012 5.17341 2 5.43546V10.5644C2.00008 10.8265 2.13711 11.0701 2.36133 11.206L6.38867 13.6464C6.74285 13.8611 6.85623 14.3225 6.6416 14.6767C6.42694 15.0308 5.96551 15.1441 5.61133 14.9296L1.58398 12.4882C0.911202 12.0805 0.500084 11.3511 0.5 10.5644V5.43546C0.500125 4.64884 0.911261 3.91937 1.58398 3.51163L6.83398 0.329994ZM11 8.74992C10.2198 8.74992 9.53168 9.14696 9.12695 9.75285C8.88888 10.1094 8.75004 10.5374 8.75 10.9999C8.75002 11.4627 8.88867 11.8912 9.12695 12.248C9.53169 12.8538 10.2199 13.2499 11 13.2499C11.7801 13.2499 12.4683 12.8538 12.873 12.248C13.1113 11.8912 13.25 11.4627 13.25 10.9999C13.25 10.5374 13.1111 10.1094 12.873 9.75285C12.4683 9.14696 11.7802 8.74992 11 8.74992Z" fill="#000001"/>
</g>
</svg>
