<svg width="16" height="16" viewBox="0 0 16 16" fill="none" xmlns="http://www.w3.org/2000/svg">
<g id="size=16">
<path id="Path" fill-rule="evenodd" clip-rule="evenodd" d="M11 6.24661C11.4141 6.24661 11.7499 6.58252 11.75 6.99661V7.28176C11.75 7.29587 11.7498 7.31081 11.749 7.32473C12.2278 7.42185 12.6739 7.61026 13.0674 7.87063C13.0766 7.86028 13.0858 7.84932 13.0957 7.83938L13.2979 7.63821C13.5907 7.3455 14.0655 7.3455 14.3584 7.63821C14.6512 7.93106 14.6511 8.40587 14.3584 8.69876L14.1562 8.90091C14.1466 8.91049 14.1369 8.92026 14.127 8.92923C14.388 9.32281 14.5772 9.76903 14.6748 10.2476C14.6877 10.2469 14.7008 10.2466 14.7139 10.2466H15C15.4141 10.2466 15.7499 10.5825 15.75 10.9966C15.75 11.4108 15.4142 11.7466 15 11.7466H14.7139C14.7011 11.7466 14.6884 11.7463 14.6758 11.7456C14.5789 12.2251 14.3898 12.6725 14.1289 13.0669C14.138 13.0752 14.1475 13.0835 14.1562 13.0923L14.3584 13.2945C14.6512 13.5873 14.6512 14.0621 14.3584 14.355C14.0655 14.6479 13.5907 14.6479 13.2979 14.355L13.0957 14.1529C13.0871 14.1443 13.0784 14.1354 13.0703 14.1265C12.676 14.3881 12.2292 14.5769 11.749 14.6743C11.7496 14.6861 11.75 14.6986 11.75 14.7105V14.9966C11.75 15.4108 11.4142 15.7466 11 15.7466C10.5858 15.7466 10.25 15.4108 10.25 14.9966V14.7105C10.25 14.6986 10.2504 14.6861 10.251 14.6743C9.77081 14.5769 9.32397 14.3881 8.92969 14.1265C8.92163 14.1354 8.91286 14.1443 8.9043 14.1529L8.70215 14.355C8.40927 14.6479 7.9345 14.6479 7.6416 14.355C7.34884 14.0621 7.34875 13.5873 7.6416 13.2945L7.84375 13.0923C7.85254 13.0836 7.862 13.0752 7.87109 13.0669C7.6102 12.6725 7.4211 12.2251 7.32422 11.7456C7.3116 11.7463 7.2989 11.7466 7.28613 11.7466H7C6.58582 11.7466 6.25005 11.4108 6.25 10.9966C6.25015 10.5825 6.58588 10.2466 7 10.2466H7.28613C7.29923 10.2466 7.31226 10.2469 7.3252 10.2476C7.42278 9.76903 7.61202 9.32281 7.87305 8.92923C7.86307 8.92026 7.85336 8.91049 7.84375 8.90091L7.6416 8.69876C7.34886 8.40587 7.3488 7.93106 7.6416 7.63821C7.93446 7.3455 8.40929 7.3455 8.70215 7.63821L8.9043 7.83938C8.91424 7.84932 8.92336 7.86028 8.93262 7.87063C9.32608 7.61026 9.77219 7.42185 10.251 7.32473C10.2502 7.31081 10.25 7.29587 10.25 7.28176V6.99661C10.2501 6.58252 10.5859 6.24661 11 6.24661ZM6.83398 0.329616C7.55068 -0.104664 8.44932 -0.104664 9.16602 0.329616L14.416 3.51126C15.0887 3.91894 15.4998 4.64855 15.5 5.43508V5.99954C15.5 6.41375 15.1642 6.74954 14.75 6.74954C14.3358 6.74954 14 6.41375 14 5.99954V5.43508C13.9998 5.17312 13.8627 4.9303 13.6387 4.79446L8.38867 1.61184C8.14991 1.46731 7.85009 1.46731 7.61133 1.61184L2.36133 4.79446C2.13731 4.9303 2.00022 5.17312 2 5.43508V10.564C2.00005 10.8261 2.13716 11.0697 2.36133 11.2056L6.38867 13.646C6.74282 13.8607 6.85608 14.3221 6.6416 14.6763C6.42695 15.0305 5.96554 15.1438 5.61133 14.9292L1.58398 12.4878C0.911246 12.08 0.50005 11.3507 0.5 10.564V5.43508C0.500219 4.64855 0.911313 3.91894 1.58398 3.51126L6.83398 0.329616ZM11 8.74954C10.2199 8.74954 9.5317 9.14668 9.12695 9.75247C8.8889 10.109 8.75009 10.5371 8.75 10.9995C8.75 11.4623 8.88873 11.8909 9.12695 12.2476C9.53168 12.8535 10.2198 13.2495 11 13.2495C11.7802 13.2495 12.4683 12.8535 12.873 12.2476C13.1113 11.8909 13.25 11.4623 13.25 10.9995C13.2499 10.5371 13.1111 10.109 12.873 9.75247C12.4683 9.14668 11.7801 8.74954 11 8.74954Z" fill="#000001"/>
</g>
</svg>
