<svg width="24" height="24" viewBox="0 0 24 24" fill="none" xmlns="http://www.w3.org/2000/svg">
<g id="size=24">
<path id="Path" d="M12 0.500305C13.3807 0.500372 14.5 1.61963 14.5 3.00031C14.4999 4.11961 13.7642 5.06753 12.75 5.38605V7.05597C14.0788 7.25594 15.2364 7.9791 16.0059 9.00714L17.7363 8.06281C17.5848 7.74049 17.5 7.38003 17.5 7.00031C17.5 5.61967 18.6194 4.50042 20 4.50031C21.3807 4.50037 22.5 5.61963 22.5 7.00031C22.4998 8.38084 21.3806 9.50024 20 9.50031C19.5643 9.50027 19.1545 9.38865 18.7979 9.19269L16.7139 10.3294C16.8992 10.8524 17 11.4152 17 12.0003C17 12.6156 16.8887 13.2066 16.6846 13.7523L18.4512 15.0374C18.8769 14.701 19.4153 14.5004 20 14.5003C21.3807 14.5004 22.5 15.6196 22.5 17.0003C22.4998 18.3808 21.3806 19.5002 20 19.5003C18.6195 19.5002 17.5002 18.3808 17.5 17.0003C17.5 16.7491 17.5375 16.5064 17.6064 16.2776L15.9473 15.0706C15.1783 16.0578 14.0454 16.7497 12.75 16.9446V18.6146C13.7642 18.9332 14.5 19.8809 14.5 21.0003C14.4998 22.3808 13.3806 23.5002 12 23.5003C10.6195 23.5002 9.50016 22.3808 9.5 21.0003C9.5 19.8809 10.2358 18.9332 11.25 18.6146V16.9446C9.9548 16.7497 8.82272 16.0575 8.05371 15.0706L6.39453 16.2776C6.46342 16.5063 6.5 16.7492 6.5 17.0003C6.49984 18.3808 5.38055 19.5002 4 19.5003C2.61949 19.5002 1.50016 18.3808 1.5 17.0003C1.5 15.6197 2.61939 14.5004 4 14.5003C4.58473 14.5003 5.12304 14.7011 5.54883 15.0374L7.31543 13.7523C7.11133 13.2066 7.00004 12.6156 7 12.0003C7 11.4152 7.10079 10.8524 7.28613 10.3294L5.20312 9.19269C4.84633 9.38884 4.43591 9.50028 4 9.50031C2.61949 9.50019 1.50016 8.38081 1.5 7.00031C1.5 5.61967 2.61939 4.50042 4 4.50031C5.38066 4.50037 6.5 5.61963 6.5 7.00031C6.49996 7.38006 6.41521 7.74046 6.26367 8.06281L7.99512 9.00714C8.76461 7.97916 9.92127 7.25591 11.25 7.05597V5.38605C10.2359 5.06747 9.50013 4.11953 9.5 3.00031C9.5 1.61967 10.6194 0.500423 12 0.500305ZM12 20.0003C11.4478 20.0004 11 20.4481 11 21.0003C11.0002 21.5524 11.4479 22.0002 12 22.0003C12.5521 22.0002 12.9998 21.5524 13 21.0003C13 20.4481 12.5522 20.0004 12 20.0003ZM4 16.0003C3.44782 16.0004 3 16.4481 3 17.0003C3.00016 17.5524 3.44792 18.0002 4 18.0003C4.55213 18.0002 4.99984 17.5524 5 17.0003C5 16.4481 4.55223 16.0004 4 16.0003ZM20 16.0003C19.4478 16.0004 19 16.4481 19 17.0003C19.0002 17.5524 19.4479 18.0002 20 18.0003C20.5521 18.0002 20.9998 17.5524 21 17.0003C21 16.4481 20.5522 16.0004 20 16.0003ZM12 8.50031C10.6636 8.50035 9.50132 9.24936 8.91113 10.3538C8.64939 10.8438 8.5 11.4036 8.5 12.0003C8.50005 12.597 8.64937 13.1569 8.91113 13.6468C9.50137 14.7511 10.6637 15.5003 12 15.5003C13.3364 15.5003 14.4996 14.7512 15.0898 13.6468C15.3516 13.1569 15.4999 12.5969 15.5 12.0003C15.5 11.4037 15.3515 10.8437 15.0898 10.3538C14.4997 9.24929 13.3365 8.50035 12 8.50031ZM4 6.00031C3.44782 6.00042 3 6.44809 3 7.00031C3.00016 7.55238 3.44792 8.00019 4 8.00031C4.55213 8.00024 4.99984 7.55241 5 7.00031C5 6.44806 4.55223 6.00037 4 6.00031ZM20 6.00031C19.4478 6.00042 19 6.44809 19 7.00031C19.0002 7.55238 19.4479 8.00019 20 8.00031C20.5521 8.00024 20.9998 7.55241 21 7.00031C21 6.44806 20.5522 6.00037 20 6.00031ZM12 2.00031C11.4478 2.00042 11 2.44809 11 3.00031C11.0002 3.55238 11.4479 4.00019 12 4.00031C12.5521 4.00024 12.9998 3.55241 13 3.00031C13 2.44806 12.5522 2.00037 12 2.00031Z" fill="#000001"/>
</g>
</svg>
