<svg width="24" height="24" viewBox="0 0 24 24" fill="none" xmlns="http://www.w3.org/2000/svg">
<g id="size=24">
<path id="Vector" fill-rule="evenodd" clip-rule="evenodd" d="M12.0672 2.00019C6.03807 1.9643 1.05399 6.91791 1.0004 13.0022C0.973601 16.2239 2.30447 19.1225 4.45709 21.1685C5.23418 21.9134 6.44894 21.9852 7.29748 21.3211C8.54797 20.3429 10.1557 19.7506 12.0047 19.7506C13.8536 19.7506 15.4614 20.334 16.7118 21.3211C17.5693 21.9941 18.7751 21.9044 19.5612 21.1506C21.6781 19.1314 23 16.2688 23 13.092C23 6.9897 18.1052 2.03609 12.0672 2.00019ZM11.9957 18.6379C8.72661 18.6379 6.4936 16.17 6.4936 13.1099C6.4936 10.0498 8.72661 7.54609 11.9957 7.54609C15.2649 7.54609 17.4979 10.0588 17.4979 13.1099C17.4979 16.1611 15.2649 18.6379 11.9957 18.6379Z" fill="#62D84E"/>
</g>
</svg>
