<svg width="24" height="24" viewBox="0 0 24 24" fill="none" xmlns="http://www.w3.org/2000/svg">
<g id="size=24">
<path id="Path" d="M12 0.5C13.3807 0.5 14.5 1.61929 14.5 3C14.5 4.11945 13.7643 5.06721 12.75 5.38574V7.05566C14.0788 7.25559 15.2363 7.97881 16.0059 9.00684L17.7363 8.0625C17.5848 7.74012 17.5 7.3798 17.5 7C17.5 5.61943 18.6195 4.50024 20 4.5C21.3807 4.5 22.5 5.61929 22.5 7C22.5 8.38071 21.3807 9.5 20 9.5C19.5643 9.49993 19.1545 9.38839 18.7979 9.19238L16.7139 10.3291C16.8993 10.8521 17 11.4148 17 12C17 12.6154 16.8887 13.2062 16.6846 13.752L18.4512 15.0371C18.8769 14.7008 19.4153 14.5001 20 14.5C21.3807 14.5 22.5 15.6193 22.5 17C22.5 18.3807 21.3807 19.5 20 19.5C18.6195 19.4998 17.5 18.3806 17.5 17C17.5 16.7487 17.5375 16.5061 17.6064 16.2773L15.9473 15.0703C15.1782 16.0575 14.0455 16.7494 12.75 16.9443V18.6143C13.7643 18.9328 14.5 19.8806 14.5 21C14.5 22.3807 13.3807 23.5 12 23.5C10.6195 23.4998 9.5 22.3806 9.5 21C9.5 19.8807 10.2359 18.9329 11.25 18.6143V16.9443C9.95478 16.7494 8.82268 16.0573 8.05371 15.0703L6.39453 16.2773C6.46348 16.5061 6.5 16.7488 6.5 17C6.5 18.3807 5.38071 19.5 4 19.5C2.61949 19.4998 1.5 18.3806 1.5 17C1.5 15.6194 2.61949 14.5002 4 14.5C4.58472 14.5 5.12303 14.7008 5.54883 15.0371L7.31543 13.752C7.11132 13.2063 7 12.6154 7 12C7 11.4149 7.10075 10.8521 7.28613 10.3291L5.20312 9.19238C4.84633 9.38851 4.4359 9.5 4 9.5C2.61949 9.49976 1.5 8.38057 1.5 7C1.5 5.61943 2.61949 4.50024 4 4.5C5.38071 4.5 6.5 5.61929 6.5 7C6.5 7.37987 6.41525 7.74007 6.26367 8.0625L7.99512 9.00684C8.76457 7.97891 9.92136 7.25565 11.25 7.05566V5.38574C10.2359 5.06707 9.5 4.11928 9.5 3C9.5 1.61943 10.6195 0.500236 12 0.5ZM12 20C11.4479 20.0002 11 20.4479 11 21C11 21.5521 11.4479 21.9998 12 22C12.5523 22 13 21.5523 13 21C13 20.4477 12.5523 20 12 20ZM4 16C3.44792 16.0002 3 16.4479 3 17C3 17.5521 3.44792 17.9998 4 18C4.55228 18 5 17.5523 5 17C5 16.4477 4.55228 16 4 16ZM20 16C19.4479 16.0002 19 16.4479 19 17C19 17.5521 19.4479 17.9998 20 18C20.5523 18 21 17.5523 21 17C21 16.4477 20.5523 16 20 16ZM12 8.5C10.6637 8.50012 9.50129 9.24912 8.91113 10.3535C8.64935 10.8435 8.5 11.4033 8.5 12C8.5 12.5967 8.64935 13.1565 8.91113 13.6465C9.50129 14.7509 10.6637 15.4999 12 15.5C13.3365 15.5 14.4996 14.751 15.0898 13.6465C15.3516 13.1565 15.5 12.5967 15.5 12C15.5 11.4033 15.3516 10.8435 15.0898 10.3535C14.4996 9.249 13.3365 8.5 12 8.5ZM4 6C3.44792 6.00024 3 6.44786 3 7C3 7.55214 3.44792 7.99976 4 8C4.55228 8 5 7.55228 5 7C5 6.44772 4.55228 6 4 6ZM20 6C19.4479 6.00024 19 6.44786 19 7C19 7.55214 19.4479 7.99976 20 8C20.5523 8 21 7.55228 21 7C21 6.44772 20.5523 6 20 6ZM12 2C11.4479 2.00024 11 2.44786 11 3C11 3.55214 11.4479 3.99976 12 4C12.5523 4 13 3.55228 13 3C13 2.44772 12.5523 2 12 2Z" fill="#000001"/>
</g>
</svg>
