<svg width="16" height="16" viewBox="0 0 16 16" fill="none" xmlns="http://www.w3.org/2000/svg">
<g id="size=16">
<path id="Path" fill-rule="evenodd" clip-rule="evenodd" d="M8 0C6.75736 0 5.75 1.00736 5.75 2.25C5.75 3.22971 6.37616 4.06317 7.25012 4.37201V4.83697C6.52785 5.0076 5.89911 5.4192 5.45295 5.9815L4.82757 5.61536C4.93866 5.34897 5 5.05665 5 4.75C5 3.50736 3.99264 2.5 2.75 2.5C1.50736 2.5 0.5 3.50736 0.5 4.75C0.5 5.99264 1.50736 7 2.75 7C3.12508 7 3.47873 6.90822 3.7897 6.74589L4.81595 7.34673C4.77276 7.5581 4.75012 7.77664 4.75012 8C4.75012 8.22336 4.77276 8.4419 4.81595 8.65327L3.78971 9.25411C3.47873 9.09178 3.12508 9 2.75 9C1.50736 9 0.5 10.0074 0.5 11.25C0.5 12.4926 1.50736 13.5 2.75 13.5C3.99264 13.5 5 12.4926 5 11.25C5 10.9434 4.93866 10.651 4.82757 10.3846L5.45295 10.0185C5.89911 10.5808 6.52785 10.9924 7.25012 11.163V11.628C6.37616 11.9368 5.75 12.7703 5.75 13.75C5.75 14.9926 6.75736 16 8 16C9.24264 16 10.25 14.9926 10.25 13.75C10.25 12.7704 9.62395 11.937 8.75012 11.6281V11.163C9.4724 10.9924 10.1011 10.5808 10.5473 10.0185L11.1725 10.3845C11.0614 10.6509 11 10.9433 11 11.25C11 12.4926 12.0074 13.5 13.25 13.5C14.4926 13.5 15.5 12.4926 15.5 11.25C15.5 10.0074 14.4926 9 13.25 9C12.875 9 12.5214 9.09175 12.2104 9.25404L11.1843 8.65327C11.2275 8.4419 11.2501 8.22336 11.2501 8C11.2501 7.77664 11.2275 7.5581 11.1843 7.34673L12.2104 6.74596C12.5214 6.90825 12.875 7 13.25 7C14.4926 7 15.5 5.99264 15.5 4.75C15.5 3.50736 14.4926 2.5 13.25 2.5C12.0074 2.5 11 3.50736 11 4.75C11 5.05669 11.0614 5.34905 11.1725 5.61547L10.5473 5.9815C10.1011 5.4192 9.4724 5.0076 8.75012 4.83697V4.37193C9.62395 4.06302 10.25 3.22962 10.25 2.25C10.25 1.00736 9.24264 0 8 0ZM7.25 2.25C7.25 1.83579 7.58579 1.5 8 1.5C8.41421 1.5 8.75 1.83579 8.75 2.25C8.75 2.66421 8.41421 3 8 3C7.58579 3 7.25 2.66421 7.25 2.25ZM2.75 4C2.33579 4 2 4.33579 2 4.75C2 5.16421 2.33579 5.5 2.75 5.5C3.16421 5.5 3.5 5.16421 3.5 4.75C3.5 4.33579 3.16421 4 2.75 4ZM2.75 10.5C2.33579 10.5 2 10.8358 2 11.25C2 11.6642 2.33579 12 2.75 12C3.16421 12 3.5 11.6642 3.5 11.25C3.5 10.8358 3.16421 10.5 2.75 10.5ZM7.25 13.75C7.25 13.3358 7.58579 13 8 13C8.41421 13 8.75 13.3358 8.75 13.75C8.75 14.1642 8.41421 14.5 8 14.5C7.58579 14.5 7.25 14.1642 7.25 13.75ZM13.25 10.5C12.8358 10.5 12.5 10.8358 12.5 11.25C12.5 11.6642 12.8358 12 13.25 12C13.6642 12 14 11.6642 14 11.25C14 10.8358 13.6642 10.5 13.25 10.5ZM13.25 4C12.8358 4 12.5 4.33579 12.5 4.75C12.5 5.16421 12.8358 5.5 13.25 5.5C13.6642 5.5 14 5.16421 14 4.75C14 4.33579 13.6642 4 13.25 4ZM6.39541 7.30028C6.66614 6.68064 7.28368 6.25 8.00012 6.25C8.71657 6.25 9.3341 6.68064 9.60484 7.30028C9.69804 7.5136 9.75012 7.74973 9.75012 8C9.75012 8.25027 9.69804 8.4864 9.60483 8.69972C9.3341 9.31936 8.71657 9.75 8.00012 9.75C7.28368 9.75 6.66614 9.31936 6.39541 8.69972C6.3022 8.4864 6.25012 8.25027 6.25012 8C6.25012 7.74973 6.3022 7.5136 6.39541 7.30028Z" fill="#000001"/>
</g>
</svg>
