<svg width="24" height="24" viewBox="0 0 24 24" fill="none" xmlns="http://www.w3.org/2000/svg">
<g id="size=24">
<path id="Path" fill-rule="evenodd" clip-rule="evenodd" d="M16.25 9.52808C16.9402 9.52808 17.4998 10.0879 17.5 10.7781V11.1492C18.033 11.2794 18.5342 11.4914 18.9893 11.7703L19.2549 11.5046C19.743 11.0168 20.5353 11.0167 21.0234 11.5046C21.5115 11.9927 21.5114 12.785 21.0234 13.2732L20.751 13.5457C21.0241 13.9995 21.2311 14.4987 21.3574 15.0281H21.75C22.4402 15.0281 22.9998 15.5879 23 16.2781C22.9999 16.9684 22.4403 17.5281 21.75 17.5281H21.3428C21.212 18.0503 21.0035 18.5427 20.7295 18.99C20.7347 18.995 20.74 19.0005 20.7451 19.0056L21.0234 19.283C21.5113 19.7709 21.5109 20.5624 21.0234 21.0505C20.5353 21.5387 19.743 21.5387 19.2549 21.0505L18.9775 20.7732C18.97 20.7656 18.9624 20.7575 18.9551 20.7498C18.509 21.0184 18.0188 21.2234 17.499 21.3503C17.4993 21.3618 17.5 21.374 17.5 21.3855V21.7781C17.4999 22.4684 16.9403 23.0281 16.25 23.0281C15.5597 23.0281 15.0001 22.4684 15 21.7781V21.3855C15 21.374 15.0007 21.3618 15.001 21.3503C14.4812 21.2234 13.991 21.0184 13.5449 20.7498C13.5376 20.7575 13.53 20.7656 13.5225 20.7732L13.2451 21.0505C12.757 21.5387 11.9647 21.5387 11.4766 21.0505C10.9891 20.5624 10.9887 19.7709 11.4766 19.283L11.7549 19.0056C11.76 19.0005 11.7653 18.995 11.7705 18.99C11.4965 18.5427 11.288 18.0503 11.1572 17.5281H10.75C10.0597 17.5281 9.50006 16.9684 9.5 16.2781C9.50019 15.5879 10.0598 15.0281 10.75 15.0281H11.1436C11.2699 14.4987 11.4759 13.9995 11.749 13.5457L11.4766 13.2732C10.9886 12.785 10.9885 11.9927 11.4766 11.5046C11.9647 11.0167 12.757 11.0168 13.2451 11.5046L13.5107 11.7703C13.9658 11.4914 14.467 11.2794 15 11.1492V10.7781C15.0002 10.0879 15.5598 9.52808 16.25 9.52808ZM10.5586 1.00562C11.4424 0.46183 12.5576 0.461831 13.4414 1.00562L21.1914 5.77515C22.0045 6.2756 22.4999 7.16221 22.5 8.11695V9.49976C22.4998 9.91382 22.1641 10.2498 21.75 10.2498C21.3359 10.2498 21.0002 9.91382 21 9.49976V8.11695C20.9999 7.68308 20.7748 7.27994 20.4053 7.0525L12.6553 2.28297C12.2536 2.03586 11.7464 2.03586 11.3447 2.28297L3.59473 7.0525C3.22524 7.27994 3.00014 7.68308 3 8.11695V15.8816C3 16.3155 3.22529 16.7185 3.59473 16.9461L9.14355 20.3611C9.49579 20.5782 9.60538 21.0398 9.38867 21.3923C9.17158 21.7451 8.70921 21.8555 8.35645 21.6384L2.80859 18.2244C1.99538 17.7239 1.5 16.8365 1.5 15.8816V8.11695C1.50014 7.16221 1.99552 6.2756 2.80859 5.77515L10.5586 1.00562ZM16.25 12.9998C15.1232 12.9998 14.1294 13.5723 13.5449 14.447C13.2007 14.9623 13.0001 15.5815 13 16.2498C13 16.9179 13.2009 17.5363 13.5449 18.0515C14.1294 18.9265 15.123 19.4998 16.25 19.4998C17.377 19.4998 18.3706 18.9265 18.9551 18.0515C19.2991 17.5363 19.5 16.9179 19.5 16.2498C19.4999 15.5815 19.2993 14.9623 18.9551 14.447C18.3706 13.5723 17.3768 12.9998 16.25 12.9998Z" fill="#000001"/>
</g>
</svg>
