<svg width="24" height="24" viewBox="0 0 24 24" fill="none" xmlns="http://www.w3.org/2000/svg">
<g id="size=24">
<g id="Path">
<path d="M10.5587 1.00608C11.4426 0.462164 12.5574 0.462165 13.4413 1.00608L21.1913 5.77531C22.0046 6.27581 22.5 7.16241 22.5 8.11737V9.49978C22.5 9.914 22.1642 10.2498 21.75 10.2498C21.3358 10.2498 21 9.914 21 9.49978V8.11737C21 7.6833 20.7748 7.2803 20.4051 7.0528L12.6551 2.28357C12.2534 2.03634 11.7466 2.03634 11.3449 2.28357L3.59488 7.0528C3.22519 7.2803 3 7.6833 3 8.11737V15.8822C3 16.3163 3.22519 16.7193 3.59488 16.9468L9.14307 20.361C9.49584 20.5781 9.60583 21.0401 9.38875 21.3929C9.17166 21.7456 8.7097 21.8556 8.35693 21.6385L2.80873 18.2243C1.99543 17.7238 1.5 16.8372 1.5 15.8822V8.11737C1.5 7.16241 1.99543 6.27581 2.80873 5.77531L10.5587 1.00608Z" fill="#000001"/>
<path fill-rule="evenodd" clip-rule="evenodd" d="M17.5 11.1498V10.7783C17.5 10.088 16.9404 9.52835 16.25 9.52835C15.5596 9.52835 15 10.088 15 10.7783V11.1498C14.4668 11.2801 13.9656 11.4918 13.5103 11.7709L13.2448 11.5054C12.7566 11.0172 11.9652 11.0172 11.477 11.5054C10.9889 11.9935 10.9889 12.785 11.477 13.2732L11.7494 13.5455C11.4761 13.9997 11.2695 14.4986 11.1431 15.0283C11.143 15.0283 11.1432 15.0283 11.1431 15.0283H10.75C10.0596 15.0283 9.5 15.588 9.5 16.2783C9.5 16.9687 10.0596 17.5283 10.75 17.5283H11.1429C11.1476 17.5283 11.1523 17.5283 11.1569 17.5283C11.2877 18.0507 11.4968 18.5425 11.771 18.9899C11.7655 18.9951 11.7602 19.0004 11.7548 19.0058L11.477 19.2836C10.9889 19.7717 10.9889 20.5632 11.477 21.0513C11.9652 21.5395 12.7566 21.5395 13.2448 21.0513L13.5226 20.7735C13.5302 20.7659 13.5378 20.7581 13.5452 20.7503C13.9913 21.019 14.4807 21.2233 15.0005 21.3503C15.0002 21.362 15 21.3737 15 21.3855V21.7783C15 22.4687 15.5596 23.0283 16.25 23.0283C16.9404 23.0283 17.5 22.4687 17.5 21.7783V21.3855C17.5 21.3737 17.4998 21.362 17.4995 21.3503C18.0193 21.2233 18.5087 21.019 18.9548 20.7503C18.9622 20.7581 18.9698 20.7659 18.9774 20.7735L19.2552 21.0513C19.7434 21.5395 20.5348 21.5395 21.023 21.0513C21.5111 20.5632 21.5111 19.7717 21.023 19.2836L20.7452 19.0058C20.7398 19.0004 20.7345 18.9951 20.729 18.9899C21.0032 18.5425 21.2123 18.0507 21.3431 17.5283C21.3477 17.5283 21.3524 17.5283 21.3571 17.5283H21.75C22.4404 17.5283 23 16.9687 23 16.2783C23 15.588 22.4404 15.0283 21.75 15.0283L21.3571 15.0283C21.3571 15.0283 21.3572 15.0283 21.3571 15.0283C21.2308 14.4986 21.0239 13.9997 20.7506 13.5455L21.023 13.2732C21.5111 12.785 21.5111 11.9935 21.023 11.5054C20.5348 11.0172 19.7434 11.0172 19.2552 11.5054L18.9897 11.7709C18.5344 11.4918 18.0332 11.2801 17.5 11.1498ZM16.25 13C15.123 13 14.1294 13.5728 13.545 14.4477C13.2007 14.9631 13 15.5816 13 16.25C13 16.9184 13.2007 17.5369 13.545 18.0523C14.1294 18.9272 15.123 19.5 16.25 19.5C17.377 19.5 18.3706 18.9272 18.955 18.0523C19.2993 17.5369 19.5 16.9184 19.5 16.25C19.5 15.5816 19.2993 14.9631 18.955 14.4477C18.3706 13.5728 17.377 13 16.25 13Z" fill="#000001"/>
</g>
</g>
</svg>
