<svg width="16" height="16" viewBox="0 0 16 16" fill="none" xmlns="http://www.w3.org/2000/svg">
<g id="size=16">
<path id="Path" d="M7.99988 0C9.24243 0 10.2497 1.00744 10.2498 2.24997C10.2498 3.22957 9.62368 4.0631 8.74987 4.372V4.83684C9.47194 5.00743 10.1006 5.41929 10.5467 5.98135L11.1727 5.61515C11.0616 5.34881 10.9998 5.0565 10.9998 4.74993C10.9999 3.50746 12.0073 2.50004 13.2498 2.49996C14.4923 2.49996 15.4996 3.5074 15.4998 4.74993C15.4998 5.99255 14.4924 6.99989 13.2498 6.99989C12.8748 6.99987 12.5207 6.90825 12.2098 6.74599L11.1844 7.34657C11.2276 7.55786 11.2498 7.7766 11.2498 7.99988C11.2498 8.22317 11.2276 8.44188 11.1844 8.65319L12.2098 9.25377C12.5207 9.0915 12.8748 8.99989 13.2498 8.99986C14.4923 8.99986 15.4996 10.0073 15.4998 11.2498C15.4998 12.4924 14.4924 13.4998 13.2498 13.4998C12.0072 13.4997 10.9998 12.4924 10.9998 11.2498C10.9999 10.9432 11.0616 10.6509 11.1727 10.3846L10.5467 10.0184C10.1006 10.5806 9.47203 10.9923 8.74987 11.1629V11.6278C9.62362 11.9366 10.2498 12.7703 10.2498 13.7498C10.2498 14.9924 9.2425 15.9998 7.99988 15.9998C6.75733 15.9997 5.74991 14.9924 5.74991 13.7498C5.75 12.7702 6.37609 11.9366 7.24989 11.6278V11.1629C6.5278 10.9923 5.89913 10.5806 5.45304 10.0184L4.82707 10.3846C4.93813 10.6509 4.99989 10.9433 4.99992 11.2498C4.99992 12.4924 3.99258 13.4998 2.74996 13.4998C1.50741 13.4997 0.499992 12.4924 0.499992 11.2498C0.500109 10.0074 1.50748 8.99995 2.74996 8.99986C3.12495 8.99986 3.47906 9.09151 3.78998 9.25377L4.81633 8.65319C4.77318 8.4419 4.74993 8.22315 4.74993 7.99988C4.74994 7.77659 4.77316 7.55786 4.81633 7.34657L3.78998 6.74599C3.47902 6.9083 3.12502 6.99989 2.74996 6.99989C1.50741 6.99981 0.499992 5.9925 0.499992 4.74993C0.500109 3.50746 1.50748 2.50004 2.74996 2.49996C3.99251 2.49996 4.99981 3.5074 4.99992 4.74993C4.99992 5.05652 4.93813 5.3488 4.82707 5.61515L5.45304 5.98135C5.89915 5.4192 6.52779 5.00748 7.24989 4.83684V4.372C6.3761 4.06308 5.74991 3.22955 5.74991 2.24997C5.75003 1.00749 6.7574 8.25957e-05 7.99988 0ZM7.99988 12.9998C7.58581 12.9999 7.25001 13.3357 7.24989 13.7498C7.24989 14.1639 7.58574 14.4997 7.99988 14.4998C8.41409 14.4998 8.74987 14.164 8.74987 13.7498C8.74975 13.3357 8.41401 12.9998 7.99988 12.9998ZM2.74996 10.4998C2.33589 10.4999 2.00009 10.8358 1.99997 11.2498C1.99997 11.664 2.33582 11.9997 2.74996 11.9998C3.16417 11.9998 3.49995 11.664 3.49995 11.2498C3.49983 10.8357 3.16409 10.4998 2.74996 10.4998ZM13.2498 10.4998C12.8357 10.4999 12.4999 10.8358 12.4998 11.2498C12.4998 11.664 12.8357 11.9997 13.2498 11.9998C13.664 11.9998 13.9998 11.664 13.9998 11.2498C13.9997 10.8357 13.6639 10.4998 13.2498 10.4998ZM7.99988 6.2499C7.28377 6.25001 6.66623 6.68045 6.39541 7.29969C6.30223 7.51295 6.24993 7.74969 6.2499 7.99988C6.2499 8.25005 6.30227 8.48681 6.39541 8.70006C6.6662 9.31938 7.28373 9.74974 7.99988 9.74985C8.71611 9.74985 9.3335 9.31941 9.60435 8.70006C9.69751 8.48678 9.74985 8.2501 9.74985 7.99988C9.74982 7.74969 9.69752 7.51295 9.60435 7.29969C9.33345 6.68048 8.71602 6.2499 7.99988 6.2499ZM2.74996 3.99994C2.33589 4.00002 2.00009 4.33587 1.99997 4.74993C1.99997 5.16408 2.33582 5.49983 2.74996 5.49992C3.16417 5.49992 3.49995 5.16413 3.49995 4.74993C3.49983 4.33582 3.16409 3.99994 2.74996 3.99994ZM13.2498 3.99994C12.8357 4.00002 12.4999 4.33587 12.4998 4.74993C12.4998 5.16408 12.8357 5.49983 13.2498 5.49992C13.664 5.49992 13.9998 5.16413 13.9998 4.74993C13.9997 4.33582 13.6639 3.99994 13.2498 3.99994ZM7.99988 1.49998C7.58581 1.50006 7.25001 1.83591 7.24989 2.24997C7.24989 2.66412 7.58574 2.99987 7.99988 2.99995C8.41409 2.99995 8.74987 2.66417 8.74987 2.24997C8.74975 1.83586 8.41401 1.49998 7.99988 1.49998Z" fill="#000001"/>
</g>
</svg>
