<svg width="16" height="16" viewBox="0 0 16 16" fill="none" xmlns="http://www.w3.org/2000/svg">
<g id="size=16">
<path id="Path" d="M8.49984 0.00030517C9.46621 0.000430226 10.2498 0.783869 10.2498 1.75027V1.90066C10.4102 1.95984 10.5684 2.02481 10.7225 2.09597L10.8279 1.9905C11.5113 1.3071 12.6201 1.3071 13.3035 1.9905L14.0105 2.69752C14.6932 3.38094 14.6936 4.48888 14.0105 5.17208L13.904 5.27852C13.9751 5.43244 14.0402 5.59003 14.0993 5.7502H14.2497C15.2161 5.75032 15.9997 6.53376 15.9997 7.50016V8.50014C15.9995 9.46641 15.216 10.25 14.2497 10.2501H14.0993C14.0401 10.4105 13.9752 10.5686 13.904 10.7228L14.0105 10.8282C14.6936 11.5116 14.6937 12.6204 14.0105 13.3038L13.3035 14.0108C12.6201 14.6941 11.5113 14.6939 10.8279 14.0108L10.7215 13.9043C10.5675 13.9754 10.4101 14.0405 10.2498 14.0996V14.25C10.2496 15.2163 9.46611 15.9999 8.49984 16H7.49986C6.53348 16 5.75005 15.2164 5.74989 14.25V14.0996C5.58971 14.0405 5.43214 13.9754 5.27822 13.9043L5.17178 14.0108C4.48846 14.6941 3.37965 14.6939 2.69624 14.0108L1.98922 13.3038C1.30587 12.6204 1.30586 11.5116 1.98922 10.8282L2.09566 10.7228C2.02451 10.5687 1.95953 10.4105 1.90035 10.2501H1.74997C0.783586 10.2501 0.000162221 9.46648 0 8.50014V7.50016C0 6.53368 0.783487 5.7502 1.74997 5.7502H1.90035C1.95948 5.58997 2.02459 5.43249 2.09566 5.27852L1.98922 5.17208C1.30606 4.4888 1.30625 3.38092 1.98922 2.69752L2.69624 1.9905C3.37964 1.3071 4.48837 1.3071 5.17178 1.9905L5.27724 2.09597C5.43141 2.02478 5.58945 1.95986 5.74989 1.90066V1.75027C5.74989 0.783792 6.53338 0.00030517 7.49986 0.00030517H8.49984ZM7.49986 1.50028C7.36179 1.50028 7.24986 1.6122 7.24986 1.75027V2.44752C7.24973 2.78636 7.02232 3.08384 6.69518 3.17212C6.27559 3.2852 5.87724 3.4511 5.50868 3.66332C5.21492 3.83249 4.84422 3.78373 4.6044 3.54418L4.11125 3.05103C4.01364 2.95341 3.85537 2.95344 3.75774 3.05103L3.04975 3.75805C2.95255 3.85567 2.95236 4.01405 3.04975 4.11155L3.54388 4.60471C3.7834 4.84447 3.83206 5.21524 3.66302 5.50899C3.45086 5.87747 3.28487 6.27599 3.17181 6.69549C3.0835 7.0226 2.78605 7.25006 2.44722 7.25017H1.74997C1.6119 7.25017 1.49997 7.36209 1.49997 7.50016V8.50014C1.50013 8.63807 1.612 8.75014 1.74997 8.75014H2.44722C2.78613 8.75024 3.08357 8.97759 3.17181 9.30482C3.28489 9.7243 3.45084 10.1228 3.66302 10.4913C3.83202 10.7851 3.78357 11.1559 3.54388 11.3956L3.04975 11.8897C2.95258 11.9874 2.95231 12.1458 3.04975 12.2432L3.75774 12.9503C3.85541 13.0472 4.01383 13.0476 4.11125 12.9503L4.6044 12.4561C4.84415 12.2164 5.21482 12.1679 5.50868 12.337C5.87712 12.5491 6.27575 12.7152 6.69518 12.8282C7.02233 12.9165 7.24986 13.2139 7.24986 13.5528V14.25C7.25002 14.388 7.36189 14.5 7.49986 14.5H8.49984C8.6377 14.4999 8.74967 14.3879 8.74983 14.25V13.5528C8.74983 13.2138 8.97721 12.9164 9.30451 12.8282C9.72401 12.7151 10.1225 12.5492 10.491 12.337C10.7849 12.1679 11.1556 12.2164 11.3953 12.4561L11.8884 12.9503C11.986 13.0475 12.1444 13.0474 12.242 12.9503L12.9499 12.2432C13.0473 12.1458 13.0469 11.9874 12.9499 11.8897L12.4558 11.3956C12.2161 11.1558 12.1675 10.7852 12.3367 10.4913C12.5489 10.1228 12.7148 9.72434 12.8279 9.30482C12.9161 8.97751 13.2135 8.75014 13.5525 8.75014H14.2497C14.3876 8.75001 14.4996 8.638 14.4997 8.50014V7.50016C14.4997 7.36217 14.3877 7.25029 14.2497 7.25017H13.5525C13.2136 7.25017 12.9163 7.02261 12.8279 6.69549C12.7148 6.27607 12.5488 5.87742 12.3367 5.50899C12.1676 5.21514 12.2161 4.84446 12.4558 4.60471L12.9499 4.11155C13.0473 4.01413 13.0469 3.85569 12.9499 3.75805L12.242 3.05103C12.1443 2.95344 11.9861 2.95341 11.8884 3.05103L11.3953 3.54418C11.1556 3.78385 10.7848 3.83233 10.491 3.66332C10.1225 3.45113 9.72401 3.2852 9.30451 3.17212C8.9773 3.08388 8.74997 2.7864 8.74983 2.44752V1.75027C8.74983 1.61228 8.6378 1.5004 8.49984 1.50028H7.49986ZM7.99985 5.00021C9.65656 5.00033 10.9998 6.34341 10.9998 8.00015C10.9996 9.65676 9.65646 11 7.99985 11.0001C6.34312 11.0001 5.00007 9.65684 4.9999 8.00015C4.9999 6.34333 6.34302 5.00021 7.99985 5.00021ZM7.99985 6.50018C7.17144 6.50018 6.49988 7.17174 6.49988 8.00015C6.50004 8.82843 7.17154 9.50012 7.99985 9.50012C8.82805 9.5 9.49966 8.82835 9.49982 8.00015C9.49982 7.17182 8.82815 6.50031 7.99985 6.50018Z" fill="#000001"/>
</g>
</svg>
