<svg width="24" height="24" viewBox="0 0 24 24" fill="none" xmlns="http://www.w3.org/2000/svg">
<g id="size=24">
<path id="Path" d="M12.5 1C13.7426 1 14.75 2.00736 14.75 3.25V3.42773C15.2237 3.5796 15.6804 3.76967 16.1162 3.99414L16.2422 3.86816C17.1209 2.98948 18.5461 2.98948 19.4248 3.86816L20.1318 4.5752C21.0104 5.45378 21.0102 6.87813 20.1318 7.75684L20.0059 7.88379C20.2303 8.31957 20.4204 8.77628 20.5723 9.25H20.75C21.9926 9.25 23 10.2574 23 11.5V12.5C23 13.7426 21.9926 14.75 20.75 14.75H20.5723C20.4204 15.2237 20.2303 15.6804 20.0059 16.1162L20.1318 16.2422C21.0105 17.1209 21.0105 18.5461 20.1318 19.4248L19.4248 20.1318C18.5461 21.0105 17.1209 21.0105 16.2422 20.1318L16.1162 20.0059C15.6804 20.2303 15.2237 20.4204 14.75 20.5723V20.75C14.75 21.9926 13.7426 23 12.5 23H11.5C10.2574 23 9.25 21.9926 9.25 20.75V20.5723C8.77628 20.4204 8.31957 20.2303 7.88379 20.0059L7.75781 20.1318C6.87913 21.0105 5.45387 21.0105 4.5752 20.1318L3.86816 19.4248C2.98948 18.5461 2.98948 17.1209 3.86816 16.2422L3.99414 16.1162C3.76967 15.6804 3.5796 15.2237 3.42773 14.75H3.25C2.00736 14.75 1 13.7426 1 12.5V11.5C1 10.2574 2.00736 9.25 3.25 9.25H3.42773C3.5796 8.77628 3.76967 8.31957 3.99414 7.88379L3.86816 7.75684C2.98977 6.87813 2.98958 5.45378 3.86816 4.5752L4.5752 3.86816C5.45387 2.98948 6.87913 2.98948 7.75781 3.86816L7.88379 3.99414C8.31957 3.76967 8.77628 3.5796 9.25 3.42773V3.25C9.25 2.00736 10.2574 1 11.5 1H12.5ZM11.5 2.5C11.0858 2.5 10.75 2.83579 10.75 3.25V3.99414C10.75 4.33838 10.5156 4.63831 10.1816 4.72168C9.45366 4.90295 8.76743 5.19135 8.14062 5.56836C7.8456 5.74582 7.46721 5.69931 7.22363 5.45605L6.69629 4.92871C6.40337 4.6361 5.92854 4.63591 5.63574 4.92871L4.92871 5.63574C4.63591 5.92854 4.6361 6.40337 4.92871 6.69629L5.45605 7.22363C5.6993 7.46722 5.74582 7.8456 5.56836 8.14062C5.19135 8.76743 4.90295 9.45366 4.72168 10.1816C4.63831 10.5156 4.33838 10.75 3.99414 10.75H3.25C2.83579 10.75 2.5 11.0858 2.5 11.5V12.5C2.5 12.9142 2.83579 13.25 3.25 13.25H3.99414C4.33838 13.25 4.63831 13.4844 4.72168 13.8184C4.90295 14.5463 5.19135 15.2326 5.56836 15.8594C5.74582 16.1544 5.69931 16.5328 5.45605 16.7764L4.92871 17.3037C4.63615 17.5966 4.63593 18.0715 4.92871 18.3643L5.63574 19.0713C5.92852 19.3641 6.40337 19.3638 6.69629 19.0713L7.22363 18.5439C7.46722 18.3007 7.8456 18.2542 8.14062 18.4316C8.76743 18.8087 9.45366 19.097 10.1816 19.2783C10.5156 19.3617 10.75 19.6616 10.75 20.0059V20.75C10.75 21.1642 11.0858 21.5 11.5 21.5H12.5C12.9142 21.5 13.25 21.1642 13.25 20.75V20.0059C13.25 19.6616 13.4844 19.3617 13.8184 19.2783C14.5463 19.097 15.2326 18.8086 15.8594 18.4316C16.1544 18.2542 16.5328 18.3007 16.7764 18.5439L17.3037 19.0713C17.5966 19.3638 18.0715 19.3641 18.3643 19.0713L19.0713 18.3643C19.3641 18.0715 19.3638 17.5966 19.0713 17.3037L18.5439 16.7764C18.3007 16.5328 18.2542 16.1544 18.4316 15.8594C18.8086 15.2326 19.097 14.5463 19.2783 13.8184C19.3617 13.4844 19.6616 13.25 20.0059 13.25H20.75C21.1642 13.25 21.5 12.9142 21.5 12.5V11.5C21.5 11.0858 21.1642 10.75 20.75 10.75H20.0059C19.6616 10.75 19.3617 10.5156 19.2783 10.1816C19.097 9.45366 18.8087 8.76743 18.4316 8.14062C18.2542 7.8456 18.3007 7.46722 18.5439 7.22363L19.0713 6.69629C19.3639 6.40337 19.3641 5.92854 19.0713 5.63574L18.3643 4.92871C18.0715 4.63592 17.5966 4.63611 17.3037 4.92871L16.7764 5.45605C16.5328 5.69931 16.1544 5.74582 15.8594 5.56836C15.2326 5.19135 14.5463 4.90295 13.8184 4.72168C13.4844 4.63831 13.25 4.33838 13.25 3.99414V3.25C13.25 2.83579 12.9142 2.5 12.5 2.5H11.5ZM12 8C14.2091 8 16 9.79086 16 12C16 14.2091 14.2091 16 12 16C9.79086 16 8 14.2091 8 12C8 9.79086 9.79086 8 12 8ZM12 9.5C10.6193 9.5 9.5 10.6193 9.5 12C9.5 13.3807 10.6193 14.5 12 14.5C13.3807 14.5 14.5 13.3807 14.5 12C14.5 10.6193 13.3807 9.5 12 9.5Z" fill="#000001"/>
</g>
</svg>
