<svg width="16" height="16" viewBox="0 0 16 16" fill="none" xmlns="http://www.w3.org/2000/svg">
<g id="size=16">
<path id="Path" d="M8.49981 0.000366203C9.46628 0.000366203 10.2498 0.78385 10.2498 1.75033V1.90071C10.4101 1.95989 10.5683 2.02487 10.7224 2.09602L10.8279 1.99056C11.5113 1.30717 12.62 1.3072 13.3034 1.99056L14.0104 2.69757C14.6934 3.38097 14.6936 4.48883 14.0104 5.17212L13.904 5.27857C13.9751 5.43255 14.0402 5.59 14.0993 5.75023H14.2497C15.2162 5.75023 15.9996 6.53372 15.9996 7.50019V8.50017C15.9994 9.46648 15.216 10.2501 14.2497 10.2501H14.0993C14.0401 10.4104 13.9751 10.5687 13.904 10.7228L14.0104 10.8282C14.6938 11.5116 14.6938 12.6204 14.0104 13.3038L13.3034 14.0108C12.62 14.6938 11.5111 14.6941 10.8279 14.0108L10.7214 13.9043C10.5676 13.9754 10.4099 14.0406 10.2498 14.0997V14.25C10.2496 15.2164 9.46616 16 8.49981 16H7.49983C6.53368 15.9998 5.75006 15.2162 5.74987 14.25V14.0997C5.58969 14.0405 5.43213 13.9754 5.2782 13.9043L5.17176 14.0108C4.48832 14.6938 3.37949 14.6941 2.69623 14.0108L1.98921 13.3038C1.30604 12.6205 1.30625 11.5116 1.98921 10.8282L2.09566 10.7228C2.02448 10.5686 1.95954 10.4105 1.90035 10.2501H1.74996C0.783815 10.2499 0.000193743 9.46633 0 8.50017V7.50019C0 6.53387 0.783696 5.75048 1.74996 5.75023H1.90035C1.95943 5.59012 2.02464 5.43243 2.09566 5.27857L1.98921 5.17212C1.30623 4.48897 1.30664 3.38098 1.98921 2.69757L2.69623 1.99056C3.37961 1.30717 4.48835 1.3072 5.17176 1.99056L5.27722 2.09602C5.43125 2.0249 5.58958 1.95987 5.74987 1.90071V1.75033C5.74987 0.784003 6.53356 0.000615333 7.49983 0.000366203H8.49981ZM7.49983 1.50033C7.36197 1.50058 7.24983 1.61241 7.24983 1.75033V2.44758C7.24967 2.78643 7.02235 3.08394 6.69516 3.17217C6.27574 3.28525 5.87707 3.45122 5.50866 3.66337C5.21487 3.83225 4.84405 3.78387 4.60439 3.54423L4.11123 3.05108C4.01362 2.95352 3.85534 2.95351 3.75773 3.05108L3.04973 3.75809C2.95293 3.85573 2.95252 4.01422 3.04973 4.1116L3.54386 4.60475C3.78361 4.8445 3.83211 5.21517 3.663 5.50903C3.45094 5.87741 3.28482 6.27616 3.1718 6.69553C3.08339 7.02258 2.78606 7.2502 2.44721 7.2502H1.74996C1.6121 7.25045 1.49997 7.36228 1.49997 7.50019V8.50017C1.50016 8.63792 1.61222 8.74992 1.74996 8.75017H2.44721C2.78621 8.75017 3.08354 8.97754 3.1718 9.30484C3.28488 9.72437 3.4508 10.1228 3.663 10.4913C3.83218 10.7852 3.78362 11.1558 3.54386 11.3956L3.04973 11.8897C2.95296 11.9874 2.95248 12.1459 3.04973 12.2433L3.75773 12.9503C3.85525 13.0474 4.01369 13.0474 4.11123 12.9503L4.60439 12.4561C4.84408 12.2164 5.21483 12.168 5.50866 12.337C5.87708 12.5491 6.27574 12.7151 6.69516 12.8282C7.02246 12.9165 7.24983 13.2138 7.24983 13.5528V14.25C7.25003 14.3878 7.36209 14.4998 7.49983 14.5H8.49981C8.63775 14.5 8.74961 14.3879 8.7498 14.25V13.5528C8.7498 13.214 8.97745 12.9166 9.30447 12.8282C9.72383 12.7152 10.1226 12.5491 10.491 12.337C10.7848 12.1679 11.1555 12.2164 11.3952 12.4561L11.8884 12.9503C11.9858 13.0476 12.1442 13.0471 12.2419 12.9503L12.9499 12.2433C13.0473 12.1458 13.0471 11.9874 12.9499 11.8897L12.4558 11.3956C12.2162 11.1559 12.1677 10.7851 12.3366 10.4913C12.5488 10.1229 12.7148 9.72428 12.8278 9.30484C12.9161 8.97769 13.2136 8.75037 13.5524 8.75017H14.2497C14.3876 8.75017 14.4995 8.63807 14.4997 8.50017V7.50019C14.4997 7.36213 14.3877 7.2502 14.2497 7.2502H13.5524C13.2137 7.24999 12.9161 7.02256 12.8278 6.69553C12.7148 6.27601 12.5488 5.87753 12.3366 5.50903C12.1676 5.21534 12.2164 4.84452 12.4558 4.60475L12.9499 4.1116C13.0473 4.01408 13.0471 3.85572 12.9499 3.75809L12.2419 3.05108C12.1443 2.95354 11.986 2.95348 11.8884 3.05108L11.3952 3.54423C11.1554 3.78365 10.7847 3.8325 10.491 3.66337C10.1225 3.45119 9.72401 3.28523 9.30447 3.17217C8.97747 3.08382 8.74996 2.78631 8.7498 2.44758V1.75033C8.7498 1.61226 8.63787 1.50033 8.49981 1.50033H7.49983ZM7.99982 5.00025C9.65663 5.00025 10.9997 6.34337 10.9997 8.00018C10.9996 9.65683 9.65651 11.0001 7.99982 11.0001C6.34333 10.9999 5.00008 9.65668 4.99989 8.00018C4.99989 6.34352 6.34321 5.0005 7.99982 5.00025ZM7.99982 6.50022C7.17162 6.50047 6.49985 7.17193 6.49985 8.00018C6.50004 8.82827 7.17174 9.4999 7.99982 9.50015C8.82811 9.50015 9.49959 8.82843 9.49978 8.00018C9.49978 7.17177 8.82823 6.50022 7.99982 6.50022Z" fill="#000001"/>
</g>
</svg>
