<svg width="24" height="24" viewBox="0 0 24 24" fill="none" xmlns="http://www.w3.org/2000/svg">
<g id="size=24">
<path id="Path" d="M8.5 9.00018C8.91421 9.00018 9.25 9.33597 9.25 9.75018C9.24991 10.1643 8.91416 10.5002 8.5 10.5002H5.75C5.05964 10.5002 4.5 11.0598 4.5 11.7502V20.2502C4.50009 20.9405 5.0597 21.5002 5.75 21.5002H18.25C18.9403 21.5002 19.4999 20.9405 19.5 20.2502V11.7502C19.5 11.0598 18.9404 10.5002 18.25 10.5002H15.5C15.0858 10.5002 14.7501 10.1643 14.75 9.75018C14.75 9.33597 15.0858 9.00018 15.5 9.00018H18.25C19.7688 9.00018 21 10.2314 21 11.7502V20.2502C20.9999 21.7689 19.7687 23.0002 18.25 23.0002H5.75C4.23127 23.0002 3.00009 21.7689 3 20.2502V11.7502C3 10.2314 4.23122 9.00018 5.75 9.00018H8.5ZM12 1.00018C12.2063 1.00018 12.4032 1.08552 12.5449 1.23553L16.7949 5.73553C17.0792 6.03668 17.0658 6.51072 16.7646 6.7951C16.4635 7.07941 15.9895 7.06586 15.7051 6.76483L12.75 3.6369V14.2502C12.7499 14.6643 12.4142 15.0002 12 15.0002C11.5858 15.0002 11.2501 14.6643 11.25 14.2502V3.6369L8.29492 6.76483C8.01053 7.06586 7.53647 7.07941 7.23535 6.7951C6.93424 6.51072 6.92075 6.03668 7.20508 5.73553L11.4551 1.23553C11.5968 1.08552 11.7937 1.00018 12 1.00018Z" fill="#000001"/>
</g>
</svg>
