<svg width="16" height="16" viewBox="0 0 16 16" fill="none" xmlns="http://www.w3.org/2000/svg">
<g id="size=16">
<path id="Path" d="M5 7.00006C5.41421 7.00006 5.75 7.33585 5.75 7.75006C5.74979 8.16409 5.41408 8.50006 5 8.50006H4.25C3.83579 8.50006 3.5 8.83585 3.5 9.25006V12.7501C3.50034 13.164 3.836 13.5001 4.25 13.5001H11.75C12.164 13.5001 12.4997 13.164 12.5 12.7501V9.25006C12.5 8.83585 12.1642 8.50006 11.75 8.50006H11C10.5859 8.50006 10.2502 8.16409 10.25 7.75006C10.25 7.33585 10.5858 7.00006 11 7.00006H11.75C12.9926 7.00006 14 8.00742 14 9.25006V12.7501C13.9997 13.9924 12.9924 15.0001 11.75 15.0001H4.25C3.00757 15.0001 2.00034 13.9924 2 12.7501V9.25006C2 8.00742 3.00736 7.00006 4.25 7.00006H5ZM8 1.00006C8.20852 1.00006 8.4079 1.08654 8.5498 1.23932L11.7998 4.73932C12.0815 5.04284 12.0642 5.51806 11.7607 5.79987C11.4573 6.08147 10.982 6.06397 10.7002 5.7608L8.75 3.66022V10.2501C8.74979 10.6641 8.41408 11.0001 8 11.0001C7.58592 11.0001 7.25021 10.6641 7.25 10.2501V3.66022L5.2998 5.7608C5.01796 6.06397 4.54269 6.08147 4.23926 5.79987C3.93585 5.51806 3.91853 5.04283 4.2002 4.73932L7.4502 1.23932C7.5921 1.08654 7.79148 1.00006 8 1.00006Z" fill="#000001"/>
</g>
</svg>
