<svg width="16" height="16" viewBox="0 0 16 16" fill="none" xmlns="http://www.w3.org/2000/svg">
<g id="size=16">
<path id="Path" d="M5 6.99976C5.41411 6.99976 5.74983 7.33569 5.75 7.74976C5.7498 8.1638 5.41409 8.49976 5 8.49976H4.25C3.83589 8.49976 3.50017 8.83569 3.5 9.24976V12.7498C3.50033 13.1637 3.83599 13.4998 4.25 13.4998H11.75C12.164 13.4998 12.4997 13.1637 12.5 12.7498V9.24976C12.4998 8.83569 12.1641 8.49976 11.75 8.49976H11C10.5859 8.49976 10.2502 8.1638 10.25 7.74976C10.2502 7.33569 10.5859 6.99976 11 6.99976H11.75C12.9925 6.99976 13.9998 8.00726 14 9.24976V12.7498C13.9997 13.9921 12.9924 14.9998 11.75 14.9998H4.25C3.00756 14.9998 2.00033 13.9921 2 12.7498V9.24976C2.00017 8.00726 3.00747 6.99976 4.25 6.99976H5ZM8 0.999756C8.20844 0.999756 8.40791 1.08634 8.5498 1.23901L11.7998 4.73901C12.0814 5.04248 12.064 5.51773 11.7607 5.79956C11.4573 6.08117 10.982 6.06368 10.7002 5.7605L8.75 3.65991V10.2498C8.7498 10.6638 8.41409 10.9998 8 10.9998C7.58591 10.9998 7.2502 10.6638 7.25 10.2498V3.65991L5.2998 5.7605C5.01796 6.06368 4.54269 6.08117 4.23926 5.79956C3.936 5.51773 3.91857 5.04248 4.2002 4.73901L7.4502 1.23901C7.59209 1.08634 7.79156 0.999757 8 0.999756Z" fill="#000001"/>
</g>
</svg>
