<svg width="16" height="16" viewBox="0 0 16 16" fill="none" xmlns="http://www.w3.org/2000/svg">
<g id="size=16">
<path id="Path" d="M5 7C5.41419 7 5.74996 7.33582 5.75 7.75C5.7498 8.16404 5.41409 8.5 5 8.5H4.25C3.83581 8.5 3.50004 8.83582 3.5 9.25V12.75C3.50033 13.1639 3.83599 13.5 4.25 13.5H11.75C12.164 13.5 12.4997 13.1639 12.5 12.75V9.25C12.5 8.83582 12.1642 8.5 11.75 8.5H11C10.5859 8.5 10.2502 8.16404 10.25 7.75C10.25 7.33582 10.5858 7 11 7H11.75C12.9926 7 14 8.00739 14 9.25V12.75C13.9997 13.9924 12.9924 15 11.75 15H4.25C3.00756 15 2.00033 13.9924 2 12.75V9.25C2.00004 8.0074 3.00738 7 4.25 7H5ZM8 1C8.2085 1 8.4079 1.0865 8.5498 1.23926L11.7998 4.73926C12.0815 5.04276 12.0641 5.51799 11.7607 5.7998C11.4573 6.08142 10.982 6.06393 10.7002 5.76074L8.75 3.66016V10.25C8.7498 10.664 8.41409 11 8 11C7.58591 11 7.2502 10.664 7.25 10.25V3.66016L5.2998 5.76074C5.01796 6.06392 4.54269 6.08142 4.23926 5.7998C3.93589 5.51799 3.91853 5.04276 4.2002 4.73926L7.4502 1.23926C7.5921 1.0865 7.7915 1 8 1Z" fill="#000001"/>
</g>
</svg>
