<svg width="16" height="16" viewBox="0 0 16 16" fill="none" xmlns="http://www.w3.org/2000/svg">
<g id="size=16">
<g id="Path">
<path d="M5.2996 5.76034C5.01775 6.06387 4.5432 6.08145 4.23966 5.7996C3.93613 5.51774 3.91856 5.04319 4.20041 4.73966L7.45041 1.23966C7.59232 1.08684 7.79145 1 8 1C8.20856 1 8.40769 1.08684 8.5496 1.23966L11.7996 4.73966C12.0815 5.04319 12.0639 5.51774 11.7603 5.7996C11.4568 6.08145 10.9823 6.06387 10.7004 5.76034L8.75 3.6599V10.25C8.75 10.6642 8.41421 11 8 11C7.58579 11 7.25 10.6642 7.25 10.25V3.65991L5.2996 5.76034Z" fill="#000001"/>
<path d="M2 9.25C2 8.00736 3.00736 7 4.25 7H5C5.41421 7 5.75 7.33579 5.75 7.75C5.75 8.16422 5.41421 8.5 5 8.5H4.25C3.83579 8.5 3.5 8.83579 3.5 9.25V12.7498C3.5 13.164 3.83579 13.4998 4.25 13.4998H11.75C12.1642 13.4998 12.5 13.164 12.5 12.7498V9.25C12.5 8.83579 12.1642 8.5 11.75 8.5H11C10.5858 8.5 10.25 8.16422 10.25 7.75C10.25 7.33579 10.5858 7 11 7H11.75C12.9926 7 14 8.00736 14 9.25V12.7498C14 13.9924 12.9926 14.9998 11.75 14.9998H4.25C3.00736 14.9998 2 13.9924 2 12.7498V9.25Z" fill="#000001"/>
</g>
</g>
</svg>
