<svg width="24" height="24" viewBox="0 0 24 24" fill="none" xmlns="http://www.w3.org/2000/svg">
<g id="size=24">
<path id="Path" d="M8.5 9C8.91421 9 9.25 9.33579 9.25 9.75C9.25 10.1642 8.91421 10.5 8.5 10.5H5.75C5.05964 10.5 4.5 11.0596 4.5 11.75V20.25C4.5 20.9404 5.05964 21.5 5.75 21.5H18.25C18.9404 21.5 19.5 20.9404 19.5 20.25V11.75C19.5 11.0596 18.9404 10.5 18.25 10.5H15.5C15.0858 10.5 14.75 10.1642 14.75 9.75C14.75 9.33579 15.0858 9 15.5 9H18.25C19.7688 9 21 10.2312 21 11.75V20.25C21 21.7688 19.7688 23 18.25 23H5.75C4.23122 23 3 21.7688 3 20.25V11.75C3 10.2312 4.23122 9 5.75 9H8.5ZM12 1C12.2063 1 12.4032 1.08534 12.5449 1.23535L16.7949 5.73535C17.0793 6.03649 17.0658 6.51051 16.7646 6.79492C16.4635 7.07933 15.9895 7.06579 15.7051 6.76465L12.75 3.63672V14.25C12.75 14.6642 12.4142 15 12 15C11.5858 15 11.25 14.6642 11.25 14.25V3.63672L8.29492 6.76465C8.01051 7.06579 7.53649 7.07933 7.23535 6.79492C6.93421 6.51051 6.92067 6.03649 7.20508 5.73535L11.4551 1.23535C11.5968 1.08534 11.7937 1 12 1Z" fill="#000001"/>
</g>
</svg>
