<svg width="16" height="16" viewBox="0 0 16 16" fill="none" xmlns="http://www.w3.org/2000/svg">
<g id="size=16">
<path id="Path" fill-rule="evenodd" clip-rule="evenodd" d="M7.26074 0.212448C7.73942 0.0459621 8.26058 0.0459673 8.73926 0.212448L13.4893 1.86577C14.3934 2.18052 14.9999 3.03338 15 3.99077V7.99956C14.9997 10.0477 13.819 11.748 12.5498 12.9917C11.2688 14.2469 9.79242 15.1423 8.97656 15.5894C8.36527 15.9241 7.63473 15.9241 7.02344 15.5894C6.20757 15.1423 4.73123 14.2469 3.4502 12.9917C2.18097 11.748 1.00031 10.0477 1 7.99956V3.99077C1.00014 3.03338 1.60657 2.18052 2.51074 1.86577L7.26074 0.212448ZM8.24609 1.62944C8.08672 1.57409 7.91328 1.57408 7.75391 1.62944L3.00391 3.28276C2.70266 3.3877 2.50014 3.67178 2.5 3.99077V7.99956C2.50032 9.45519 3.34721 10.7908 4.5 11.9205C5.6412 13.0386 6.98328 13.857 7.74414 14.274C7.90641 14.3627 8.09359 14.3627 8.25586 14.274C9.01672 13.857 10.3588 13.0386 11.5 11.9205C12.6528 10.7908 13.4997 9.45519 13.5 7.99956V3.99077C13.4999 3.67178 13.2973 3.3877 12.9961 3.28276L8.24609 1.62944Z" fill="#000001"/>
</g>
</svg>
