<svg width="24" height="24" viewBox="0 0 24 24" fill="none" xmlns="http://www.w3.org/2000/svg">
<g id="size=24">
<path id="Path" fill-rule="evenodd" clip-rule="evenodd" d="M11.04 1.30771C11.6594 1.07702 12.3416 1.07688 12.9609 1.30771L19.2109 3.63779C20.2867 4.03898 21 5.06679 21 6.21494V12.0001C20.9999 14.7319 19.5385 17.0386 17.8965 18.7745C16.2472 20.518 14.3345 21.7738 13.2471 22.4161C12.4727 22.8734 11.5273 22.8735 10.7529 22.4161C9.6655 21.7738 7.75284 20.518 6.10352 18.7745C4.46152 17.0386 3.00007 14.7319 3 12.0001V6.21494C3 5.06665 3.71408 4.03888 4.79004 3.63779L11.04 1.30771ZM12.4365 2.71396C12.1549 2.60901 11.8451 2.60901 11.5635 2.71396L5.31348 5.04307C4.82444 5.22539 4.5 5.69301 4.5 6.21494V12.0001C4.50008 14.1823 5.67242 16.1364 7.19336 17.7442C8.70697 19.3443 10.4872 20.517 11.5166 21.1251C11.8201 21.3042 12.1799 21.3041 12.4834 21.1251C13.5128 20.517 15.293 19.3443 16.8066 17.7442C18.3276 16.1364 19.4999 14.1823 19.5 12.0001V6.21494C19.5 5.69298 19.1756 5.22537 18.6865 5.04307L12.4365 2.71396ZM14.7197 7.2208C15.0126 6.92791 15.4874 6.92791 15.7803 7.2208C16.0729 7.51372 16.0731 7.98855 15.7803 8.28135L13.0605 11.0011L15.7803 13.7208C16.0729 14.0137 16.0731 14.4886 15.7803 14.7813C15.4874 15.0738 15.0125 15.0738 14.7197 14.7813L12 12.0616L9.28027 14.7813C8.98745 15.0738 8.51253 15.0738 8.21973 14.7813C7.92695 14.4886 7.92717 14.0137 8.21973 13.7208L10.9395 11.0011L8.21973 8.28135C7.92695 7.98857 7.92717 7.51372 8.21973 7.2208C8.51262 6.92791 8.98738 6.92791 9.28027 7.2208L12 9.93955L14.7197 7.2208Z" fill="#000001"/>
</g>
</svg>
