<svg width="16" height="16" viewBox="0 0 16 16" fill="none" xmlns="http://www.w3.org/2000/svg">
<g id="size=16">
<path id="Path" fill-rule="evenodd" clip-rule="evenodd" d="M7.26074 0.21314C7.73946 0.0466283 8.26054 0.0466299 8.73926 0.21314L13.4893 1.86646C14.3936 2.18121 15 3.03391 15 3.99146V8.00025C14.9999 10.0486 13.8192 11.7486 12.5498 12.9924C11.2686 14.2478 9.79244 15.143 8.97656 15.5901C8.36516 15.9249 7.63483 15.9249 7.02344 15.5901C6.20756 15.143 4.73136 14.2478 3.4502 12.9924C2.18082 11.7486 1.00013 10.0486 1 8.00025V3.99146C1.00002 3.03392 1.60642 2.18122 2.51074 1.86646L7.26074 0.21314ZM8.24609 1.63013C8.08668 1.57475 7.91332 1.57475 7.75391 1.63013L3.00391 3.28345C2.70252 3.38839 2.50002 3.67232 2.5 3.99146V8.00025C2.50013 9.45612 3.347 10.7913 4.5 11.9211C5.64132 13.0395 6.98325 13.8577 7.74414 14.2747C7.90652 14.3635 8.09347 14.3635 8.25586 14.2747C9.01674 13.8577 10.3587 13.0395 11.5 11.9211C12.653 10.7913 13.4999 9.45613 13.5 8.00025V3.99146C13.5 3.67231 13.2975 3.38838 12.9961 3.28345L8.24609 1.63013ZM9.71973 4.71998C10.0126 4.42708 10.4874 4.42708 10.7803 4.71998C11.0729 5.01289 11.0731 5.48771 10.7803 5.78052L9.06055 7.50025L10.7803 9.21998C11.0729 9.51289 11.0731 9.9877 10.7803 10.2805C10.4874 10.5731 10.0126 10.5731 9.71973 10.2805L8 8.5608L6.28027 10.2805C5.98744 10.5731 5.51256 10.5731 5.21973 10.2805C4.92692 9.98771 4.92708 9.51289 5.21973 9.21998L6.93945 7.50025L5.21973 5.78052C4.92692 5.48771 4.92708 5.01289 5.21973 4.71998C5.51262 4.42708 5.98738 4.42708 6.28027 4.71998L8 6.4397L9.71973 4.71998Z" fill="#000001"/>
</g>
</svg>
