<svg width="16" height="16" viewBox="0 0 16 16" fill="none" xmlns="http://www.w3.org/2000/svg">
<g id="size=16">
<path id="Path" fill-rule="evenodd" clip-rule="evenodd" d="M7.26074 0.21288C7.73948 0.0463494 8.26052 0.0463497 8.73926 0.21288L13.4893 1.8662C14.3935 2.181 15 3.03369 15 3.9912V7.99999C14.9997 10.0481 13.8191 11.7484 12.5498 12.9922C11.2687 14.2474 9.79239 15.1428 8.97656 15.5898C8.36529 15.9245 7.63471 15.9245 7.02344 15.5898C6.20761 15.1428 4.7313 14.2474 3.4502 12.9922C2.18092 11.7484 1.00035 10.0481 1 7.99999V3.9912C1 3.03369 1.60648 2.181 2.51074 1.8662L7.26074 0.21288ZM8.24609 1.62987C8.08666 1.57447 7.91334 1.57447 7.75391 1.62987L3.00391 3.28319C2.70257 3.38817 2.5 3.67209 2.5 3.9912V7.99999C2.50035 9.45566 3.34714 10.7912 4.5 11.9209C5.64126 13.0391 6.98332 13.8575 7.74414 14.2744C7.90639 14.3631 8.09361 14.3631 8.25586 14.2744C9.01669 13.8575 10.3587 13.0391 11.5 11.9209C12.6529 10.7912 13.4997 9.45566 13.5 7.99999V3.9912C13.5 3.67209 13.2974 3.38817 12.9961 3.28319L8.24609 1.62987Z" fill="#000001"/>
</g>
</svg>
