<svg width="16" height="16" viewBox="0 0 16 16" fill="none" xmlns="http://www.w3.org/2000/svg">
<g id="size=16">
<path id="Path" fill-rule="evenodd" clip-rule="evenodd" d="M7.26074 0.21314C7.73946 0.046629 8.26054 0.0466293 8.73926 0.21314L13.4893 1.86646C14.3935 2.18128 15 3.03399 15 3.99146V8.00025C14.9996 10.0483 13.819 11.7487 12.5498 12.9924C11.2687 14.2476 9.79236 15.1431 8.97656 15.5901C8.36532 15.9247 7.63468 15.9247 7.02344 15.5901C6.20764 15.1431 4.73127 14.2476 3.4502 12.9924C2.18097 11.7487 1.0004 10.0483 1 8.00025V3.99146C1.00002 3.03399 1.60654 2.18128 2.51074 1.86646L7.26074 0.21314ZM8.24609 1.63013C8.08668 1.57475 7.91332 1.57475 7.75391 1.63013L3.00391 3.28345C2.70263 3.38845 2.50002 3.67239 2.5 3.99146V8.00025C2.50041 9.45585 3.34719 10.7915 4.5 11.9211C5.64125 13.0393 6.98333 13.8578 7.74414 14.2747C7.90635 14.3633 8.09365 14.3633 8.25586 14.2747C9.01667 13.8578 10.3588 13.0393 11.5 11.9211C12.6528 10.7915 13.4996 9.45585 13.5 8.00025V3.99146C13.5 3.67239 13.2974 3.38845 12.9961 3.28345L8.24609 1.63013ZM10.2197 5.46998C10.5126 5.17708 10.9874 5.17708 11.2803 5.46998C11.5726 5.76292 11.573 6.23783 11.2803 6.53052L7.28027 10.5305C6.98753 10.8226 6.51247 10.8226 6.21973 10.5305L4.21973 8.53052C3.92703 8.23783 3.92743 7.76292 4.21973 7.46998C4.51262 7.17708 4.98738 7.17708 5.28027 7.46998L6.75 8.9397L10.2197 5.46998Z" fill="#000001"/>
</g>
</svg>
