<svg width="16" height="16" viewBox="0 0 16 16" fill="none" xmlns="http://www.w3.org/2000/svg">
<g id="size=16">
<g id="Path">
<path d="M8.00684 10C8.55904 10.0001 9.00684 10.4478 9.00684 11C9.00677 11.5522 8.559 11.9999 8.00684 12H8C7.44776 12 7.00007 11.5522 7 11C7 10.4477 7.44772 10 8 10H8.00684Z" fill="#000001"/>
<path d="M8 4.00001C8.41421 4.00001 8.75 4.33579 8.75 4.75001V8.25C8.74993 8.66416 8.41417 9 8 9C7.58583 9 7.25007 8.66416 7.25 8.25V4.75001C7.25 4.33579 7.58579 4.00001 8 4.00001Z" fill="#000001"/>
<path fill-rule="evenodd" clip-rule="evenodd" d="M7.26074 0.212896C7.73946 0.0463848 8.26054 0.0463851 8.73926 0.212896L13.4893 1.86622C14.3936 2.18094 15 3.03364 15 3.99122V8.00001C15 10.0485 13.8193 11.7483 12.5498 12.9922C11.2686 14.2476 9.79248 15.1428 8.97656 15.5898C8.36509 15.9248 7.63491 15.9248 7.02344 15.5898C6.20752 15.1428 4.7314 14.2476 3.4502 12.9922C2.18075 11.7483 1 10.0485 1 8.00001V3.99122C1.00002 3.03363 1.60636 2.18094 2.51074 1.86622L7.26074 0.212896ZM8.24609 1.62989C8.08668 1.57451 7.91332 1.57451 7.75391 1.62989L3.00391 3.28321C2.70245 3.38811 2.50002 3.67203 2.5 3.99122V8.00001C2.5 9.45602 3.34691 10.791 4.5 11.9209C5.64136 13.0393 6.98322 13.8575 7.74414 14.2744C7.90661 14.3634 8.09339 14.3634 8.25586 14.2744C9.01678 13.8575 10.3586 13.0393 11.5 11.9209C12.6531 10.791 13.5 9.45602 13.5 8.00001V3.99122C13.5 3.67203 13.2975 3.38811 12.9961 3.28321L8.24609 1.62989Z" fill="#000001"/>
</g>
</g>
</svg>
