<svg width="24" height="24" viewBox="0 0 24 24" fill="none" xmlns="http://www.w3.org/2000/svg">
<g id="size=24">
<path id="Path" fill-rule="evenodd" clip-rule="evenodd" d="M11.04 1.30755C11.6594 1.07685 12.3416 1.07672 12.9609 1.30755L19.2109 3.63762C20.2867 4.03881 21 5.06661 21 6.21477V11.9999C21 14.7318 19.5385 17.0384 17.8965 18.7743C16.2471 20.5179 14.3345 21.7736 13.2471 22.4159C12.4727 22.8733 11.5273 22.8733 10.7529 22.4159C9.66548 21.7736 7.75285 20.5179 6.10352 18.7743C4.46148 17.0384 3.00002 14.7318 3 11.9999V6.21477C3 5.06646 3.71404 4.03869 4.79004 3.63762L11.04 1.30755ZM12.4365 2.7138C12.1549 2.60884 11.8451 2.60884 11.5635 2.7138L5.31348 5.0429C4.8244 5.22521 4.5 5.69282 4.5 6.21477V11.9999C4.50002 14.1822 5.67238 16.1362 7.19336 17.7441C8.70698 19.3442 10.4872 20.5169 11.5166 21.1249C11.8202 21.304 12.1798 21.304 12.4834 21.1249C13.5128 20.5169 15.293 19.3441 16.8066 17.7441C18.3276 16.1362 19.5 14.1822 19.5 11.9999V6.21477C19.5 5.6928 19.1756 5.2252 18.6865 5.0429L12.4365 2.7138ZM14.7197 7.22063C15.0126 6.92774 15.4874 6.92774 15.7803 7.22063C16.0729 7.51354 16.0731 7.98836 15.7803 8.28118L13.0605 11.0009L15.7803 13.7206C16.0729 14.0135 16.0731 14.4884 15.7803 14.7812C15.4874 15.0738 15.0126 15.0738 14.7197 14.7812L12 12.0615L9.28027 14.7812C8.98743 15.0738 8.51256 15.0738 8.21973 14.7812C7.92692 14.4884 7.92708 14.0135 8.21973 13.7206L10.9395 11.0009L8.21973 8.28118C7.92692 7.98837 7.92708 7.51354 8.21973 7.22063C8.51262 6.92774 8.98738 6.92774 9.28027 7.22063L12 9.93938L14.7197 7.22063Z" fill="#000001"/>
</g>
</svg>
