<svg width="24" height="24" viewBox="0 0 24 24" fill="none" xmlns="http://www.w3.org/2000/svg">
<g id="size=24">
<path id="Path" fill-rule="evenodd" clip-rule="evenodd" d="M11.04 1.30719C11.6591 1.07669 12.3419 1.07659 12.9609 1.30719L19.2109 3.63727C20.2861 4.03827 20.9993 5.06599 21 6.21344V11.9996C20.9999 14.7311 19.5383 17.0381 17.8965 18.774C16.2474 20.5172 14.3346 21.7732 13.2471 22.4156C12.4727 22.8729 11.5273 22.873 10.7529 22.4156C9.6654 21.7731 7.75255 20.5172 6.10352 18.774C4.46177 17.0382 3.00006 14.731 3 11.9996V6.21344C3.00071 5.06584 3.71461 4.03816 4.79004 3.63727L11.04 1.30719ZM12.4365 2.71344C12.1552 2.60872 11.8448 2.60869 11.5635 2.71344L5.31348 5.04254C4.82497 5.22467 4.50071 5.6922 4.5 6.21344V11.9996C4.50006 14.1815 5.67274 16.136 7.19336 17.7437C8.70666 19.3434 10.4871 20.5164 11.5166 21.1246C11.8201 21.3036 12.1799 21.3036 12.4834 21.1246C13.5129 20.5164 15.2933 19.3435 16.8066 17.7437C18.3273 16.136 19.4999 14.1815 19.5 11.9996V6.21344C19.4993 5.69218 19.1751 5.22465 18.6865 5.04254L12.4365 2.71344Z" fill="#000001"/>
</g>
</svg>
