<svg width="16" height="16" viewBox="0 0 16 16" fill="none" xmlns="http://www.w3.org/2000/svg">
<g id="size=16">
<path id="Path" fill-rule="evenodd" clip-rule="evenodd" d="M7.2605 0.213223C7.73941 0.0465605 8.26059 0.0465609 8.7395 0.213223L13.4895 1.86622C14.3939 2.18095 15 3.03363 15 3.99123V7.99999C15 10.0486 13.8189 11.748 12.5495 12.9919C11.2683 14.2474 9.79278 15.1427 8.97686 15.5898C8.36525 15.9249 7.63475 15.9249 7.02314 15.5898C6.20722 15.1427 4.73174 14.2473 3.45054 12.9919C2.18107 11.748 1 10.0486 1 7.99999V3.99123C1 3.03363 1.6061 2.18095 2.5105 1.86622L7.2605 0.213223ZM8.2465 1.62989C8.08686 1.57434 7.91314 1.57434 7.7535 1.62989L3.0035 3.28289C2.70203 3.3878 2.5 3.67203 2.5 3.99123V7.99999C2.5 9.45601 3.34728 10.7906 4.50037 11.9205C5.64173 13.0389 6.98302 13.8573 7.74394 14.2743C7.90652 14.3634 8.09348 14.3634 8.25606 14.2743C9.01698 13.8573 10.3583 13.0389 11.4996 11.9205C12.6527 10.7906 13.5 9.45601 13.5 7.99999V3.99123C13.5 3.67203 13.298 3.3878 12.9965 3.28289L8.2465 1.62989Z" fill="#000001"/>
</g>
</svg>
