<svg width="24" height="24" viewBox="0 0 24 24" fill="none" xmlns="http://www.w3.org/2000/svg">
<g id="size=24">
<path id="Path" fill-rule="evenodd" clip-rule="evenodd" d="M11.04 1.3076C11.6592 1.07704 12.3418 1.07694 12.9609 1.3076L19.2109 3.63768C20.2862 4.03874 20.9995 5.06624 21 6.21385V12C21 14.7316 19.5384 17.0385 17.8965 18.7744C16.2473 20.5178 14.3346 21.7736 13.2471 22.416C12.4727 22.8734 11.5273 22.8734 10.7529 22.416C9.66543 21.7736 7.75265 20.5177 6.10352 18.7744C4.46166 17.0385 3.00003 14.7316 3 12V6.21385C3.00053 5.06606 3.71446 4.03861 4.79004 3.63768L11.04 1.3076ZM12.4365 2.71288C12.1552 2.60819 11.8447 2.60817 11.5635 2.71288L5.31348 5.04295C4.82481 5.22512 4.50053 5.69242 4.5 6.21385V12C4.50003 14.182 5.67264 16.1364 7.19336 17.7441C8.70672 19.3439 10.4871 20.5169 11.5166 21.125C11.8201 21.304 12.1799 21.304 12.4834 21.125C13.5128 20.5169 15.2932 19.3439 16.8066 17.7441C18.3274 16.1364 19.5 14.182 19.5 12V6.21385C19.4995 5.69241 19.1752 5.22511 18.6865 5.04295L12.4365 2.71288ZM15.7197 8.21971C16.0124 7.92768 16.4875 7.92772 16.7803 8.21971C17.0729 8.5124 17.0725 8.98733 16.7803 9.28026L11.2812 14.7803C11.0066 15.0548 10.5709 15.0724 10.2764 14.832L10.2197 14.7803L7.71973 12.2803C7.42754 11.9873 7.42713 11.5124 7.71973 11.2197C8.01244 10.9277 8.48753 10.9277 8.78027 11.2197L10.75 13.1894L15.7197 8.21971Z" fill="#000001"/>
</g>
</svg>
