<svg width="16" height="16" viewBox="0 0 16 16" fill="none" xmlns="http://www.w3.org/2000/svg">
<g id="size=16">
<path id="Path" fill-rule="evenodd" clip-rule="evenodd" d="M7.26074 0.212504C7.73941 0.0460248 8.26059 0.0460298 8.73926 0.212504L13.4893 1.86582C14.3934 2.18059 14.9999 3.03342 15 3.99082V7.99961C14.9997 10.0478 13.8191 11.748 12.5498 12.9918C11.2687 14.247 9.79242 15.1424 8.97656 15.5895C8.36525 15.9242 7.63475 15.9242 7.02344 15.5895C6.20758 15.1424 4.73126 14.247 3.4502 12.9918C2.18094 11.748 1.00027 10.0478 1 7.99961V3.99082C1.00012 3.03342 1.60655 2.18059 2.51074 1.86582L7.26074 0.212504ZM8.24609 1.6295C8.08673 1.57415 7.91327 1.57415 7.75391 1.6295L3.00391 3.28282C2.70265 3.38776 2.50012 3.67181 2.5 3.99082V7.99961C2.50027 9.4553 3.34716 10.7908 4.5 11.9205C5.64123 13.0387 6.98328 13.8571 7.74414 14.274C7.90644 14.3628 8.09356 14.3628 8.25586 14.274C9.01672 13.8571 10.3588 13.0387 11.5 11.9205C12.6528 10.7908 13.4997 9.45531 13.5 7.99961V3.99082C13.4999 3.67181 13.2974 3.38776 12.9961 3.28282L8.24609 1.6295ZM10.2197 5.46934C10.5126 5.1766 10.9874 5.17661 11.2803 5.46934C11.5727 5.76223 11.5729 6.23712 11.2803 6.52989L7.28027 10.5299C6.98749 10.8222 6.51251 10.8222 6.21973 10.5299L4.21973 8.52989C3.9271 8.23712 3.92729 7.76223 4.21973 7.46934C4.51259 7.1766 4.98741 7.17661 5.28027 7.46934L6.75 8.93907L10.2197 5.46934Z" fill="#000001"/>
</g>
</svg>
