<svg width="24" height="24" viewBox="0 0 24 24" fill="none" xmlns="http://www.w3.org/2000/svg">
<g id="size=24">
<g id="Path">
<path d="M12.0098 15.0006C12.562 15.0006 13.0098 15.4484 13.0098 16.0006C13.0095 16.5527 12.5619 17.0006 12.0098 17.0006H12C11.4479 17.0006 11.0002 16.5527 11 16.0006C11 15.4484 11.4477 15.0006 12 15.0006H12.0098Z" fill="#000001"/>
<path d="M12 7.00064C12.4142 7.00067 12.75 7.33644 12.75 7.75064V12.2506C12.7498 12.6646 12.4141 13.0006 12 13.0006C11.5859 13.0006 11.2502 12.6647 11.25 12.2506V7.75064C11.25 7.33643 11.5858 7.00064 12 7.00064Z" fill="#000001"/>
<path fill-rule="evenodd" clip-rule="evenodd" d="M11.0391 1.30728C11.6584 1.07644 12.3406 1.07657 12.96 1.30728L19.21 3.63736C20.286 4.03842 21 5.06618 21 6.21451V11.9997C21 14.7317 19.5387 17.0391 17.8965 18.7751C16.2472 20.5185 14.3345 21.7733 13.2471 22.4157C12.4727 22.8731 11.5273 22.8731 10.7529 22.4157C9.66553 21.7733 7.75284 20.5185 6.10352 18.7751C4.46133 17.0391 3 14.7317 3 11.9997V6.21451C3 5.06633 3.71328 4.03853 4.78906 3.63736L11.0391 1.30728ZM12.4365 2.71353C12.1549 2.60858 11.8451 2.60858 11.5635 2.71353L5.31348 5.04263C4.82438 5.22493 4.5 5.69254 4.5 6.21451V11.9997C4.5 14.182 5.67236 16.1359 7.19336 17.7438C8.70698 19.3439 10.4872 20.5166 11.5166 21.1247C11.8202 21.3038 12.1798 21.3038 12.4834 21.1247C13.5128 20.5166 15.293 19.3439 16.8066 17.7438C18.3276 16.1359 19.5 14.182 19.5 11.9997V6.21451C19.5 5.69254 19.1756 5.22493 18.6865 5.04263L12.4365 2.71353Z" fill="#000001"/>
</g>
</g>
</svg>
