<svg width="24" height="24" viewBox="0 0 24 24" fill="none" xmlns="http://www.w3.org/2000/svg">
<g id="size=24">
<path id="Path" fill-rule="evenodd" clip-rule="evenodd" d="M11.0395 1.30757C11.659 1.07667 12.341 1.07667 12.9605 1.30757L19.2105 3.63712C20.2865 4.03818 21 5.06561 21 6.21394V12C21 14.732 19.5385 17.0385 17.8963 18.7745C16.2467 20.5182 14.3341 21.7736 13.2467 22.4159C12.4723 22.8733 11.5277 22.8733 10.7533 22.4159C9.66594 21.7736 7.75328 20.5182 6.10373 18.7745C4.46155 17.0385 3 14.732 3 12V6.21394C3 5.06562 3.71353 4.03818 4.78955 3.63712L11.0395 1.30757ZM12.4366 2.71312C12.155 2.60816 11.845 2.60816 11.5634 2.71312L5.31343 5.04266C4.82433 5.22496 4.5 5.69198 4.5 6.21394V12C4.5 14.1823 5.67243 16.1358 7.19343 17.7437C8.70705 19.3438 10.4868 20.5163 11.5162 21.1244C11.82 21.3038 12.18 21.3038 12.4838 21.1244C13.5132 20.5163 15.2929 19.3438 16.8066 17.7437C18.3276 16.1358 19.5 14.1823 19.5 12V6.21394C19.5 5.69198 19.1757 5.22496 18.6866 5.04266L12.4366 2.71312Z" fill="#000001"/>
</g>
</svg>
