<svg width="24" height="24" viewBox="0 0 24 24" fill="none" xmlns="http://www.w3.org/2000/svg">
<g id="size=24">
<path id="Path" fill-rule="evenodd" clip-rule="evenodd" d="M11.04 1.30738C11.6592 1.07684 12.3418 1.07676 12.9609 1.30738L19.2109 3.63746C20.2862 4.0385 20.9994 5.0661 21 6.21363V11.9998C21 14.7313 19.5383 17.0383 17.8965 18.7742C16.2473 20.5175 14.3346 21.7733 13.2471 22.4158C12.4727 22.8731 11.5273 22.8732 10.7529 22.4158C9.66541 21.7733 7.7526 20.5175 6.10352 18.7742C4.4617 17.0383 3.00003 14.7313 3 11.9998V6.21363C3.00061 5.06592 3.71452 4.03836 4.79004 3.63746L11.04 1.30738ZM12.4365 2.71265C12.1553 2.60801 11.8447 2.60797 11.5635 2.71265L5.31348 5.04273C4.82488 5.22488 4.50061 5.69228 4.5 6.21363V11.9998C4.50003 14.1817 5.6727 16.1362 7.19336 17.7439C8.70667 19.3436 10.4871 20.5166 11.5166 21.1248C11.8201 21.3038 12.1799 21.3038 12.4834 21.1248C13.5129 20.5166 15.2933 19.3437 16.8066 17.7439C18.3273 16.1362 19.5 14.1818 19.5 11.9998V6.21363C19.4994 5.69226 19.1751 5.22487 18.6865 5.04273L12.4365 2.71265ZM15.7197 8.21949C16.0124 7.92759 16.4876 7.92764 16.7803 8.21949C17.0729 8.51215 17.0724 8.9871 16.7803 9.28004L11.2812 14.78C11.0066 15.0546 10.5709 15.0722 10.2764 14.8318L10.2197 14.78L7.71973 12.28C7.42766 11.9871 7.42716 11.5121 7.71973 11.2195C8.01241 10.9276 8.48756 10.9276 8.78027 11.2195L10.75 13.1892L15.7197 8.21949Z" fill="#000001"/>
</g>
</svg>
