<svg width="16" height="16" viewBox="0 0 16 16" fill="none" xmlns="http://www.w3.org/2000/svg">
<g id="size=16">
<path id="Path" fill-rule="evenodd" clip-rule="evenodd" d="M7.26074 0.212504C7.73941 0.046021 8.26058 0.0460336 8.73926 0.212504L13.4893 1.86582C14.3936 2.18052 14.9999 3.03334 15 3.99082V7.99961C15 10.0481 13.8192 11.7479 12.5498 12.9918C11.2686 14.2472 9.79249 15.1424 8.97656 15.5895C8.36508 15.9244 7.63491 15.9244 7.02344 15.5895C6.2075 15.1424 4.73133 14.2472 3.4502 12.9918C2.1808 11.7479 1 10.0481 1 7.99961V3.99082C1.00012 3.03334 1.60643 2.18052 2.51074 1.86582L7.26074 0.212504ZM8.24609 1.6295C8.08672 1.57415 7.91327 1.57414 7.75391 1.6295L3.00391 3.28282C2.70253 3.3877 2.50012 3.67174 2.5 3.99082V7.99961C2.5 9.45557 3.34698 10.7906 4.5 11.9205C5.6413 13.0389 6.9832 13.8571 7.74414 14.274C7.90661 14.363 8.09339 14.363 8.25586 14.274C9.0168 13.8571 10.3587 13.0389 11.5 11.9205C12.653 10.7906 13.5 9.45558 13.5 7.99961V3.99082C13.4999 3.67174 13.2975 3.3877 12.9961 3.28282L8.24609 1.6295ZM9.71973 4.71934C10.0126 4.4266 10.4874 4.42661 10.7803 4.71934C11.0731 5.0122 11.073 5.48701 10.7803 5.77989L9.06055 7.49961L10.7803 9.21934C11.0731 9.5122 11.073 9.98701 10.7803 10.2799C10.4874 10.5727 10.0126 10.5727 9.71973 10.2799L8 8.56016L6.28027 10.2799C5.9874 10.5727 5.5126 10.5727 5.21973 10.2799C4.92699 9.98701 4.92694 9.5122 5.21973 9.21934L6.93945 7.49961L5.21973 5.77989C4.92699 5.48701 4.92694 5.01219 5.21973 4.71934C5.51258 4.4266 5.9874 4.42661 6.28027 4.71934L8 6.43907L9.71973 4.71934Z" fill="#000001"/>
</g>
</svg>
