<svg width="24" height="24" viewBox="0 0 24 24" fill="none" xmlns="http://www.w3.org/2000/svg">
<g id="size=24">
<path id="Path" fill-rule="evenodd" clip-rule="evenodd" d="M11.04 1.30719C11.6591 1.07668 12.3419 1.0766 12.9609 1.30719L19.2109 3.63727C20.2861 4.03829 20.9993 5.06597 21 6.21344V11.9996C21 14.7311 19.5383 17.0381 17.8965 18.774C16.2474 20.5173 14.3346 21.7732 13.2471 22.4156C12.4727 22.873 11.5273 22.873 10.7529 22.4156C9.66539 21.7731 7.75256 20.5172 6.10352 18.774C4.46174 17.0381 3.00003 14.7311 3 11.9996V6.21344C3.00068 5.0658 3.71457 4.03816 4.79004 3.63727L11.04 1.30719ZM12.4365 2.71247C12.1553 2.60785 11.8447 2.60781 11.5635 2.71247L5.31348 5.04254C4.82492 5.22467 4.50068 5.69216 4.5 6.21344V11.9996C4.50003 14.1815 5.67274 16.136 7.19336 17.7437C8.70663 19.3434 10.4871 20.5164 11.5166 21.1246C11.8201 21.3036 12.1799 21.3036 12.4834 21.1246C13.5129 20.5164 15.2933 19.3434 16.8066 17.7437C18.3273 16.136 19.5 14.1816 19.5 11.9996V6.21344C19.4993 5.69214 19.1751 5.22466 18.6865 5.04254L12.4365 2.71247ZM15.7197 8.2193C16.0124 7.9275 16.4876 7.92756 16.7803 8.2193C17.0729 8.51194 17.0724 8.98691 16.7803 9.27985L11.2812 14.7798C11.0066 15.0544 10.5709 15.072 10.2764 14.8316L10.2197 14.7798L7.71973 12.2798C7.42774 11.9869 7.42719 11.5119 7.71973 11.2193C8.01239 10.9275 8.48757 10.9276 8.78027 11.2193L10.75 13.189L15.7197 8.2193Z" fill="#000001"/>
</g>
</svg>
