<svg width="16" height="16" viewBox="0 0 16 16" fill="none" xmlns="http://www.w3.org/2000/svg">
<g id="size=16">
<path id="Path" fill-rule="evenodd" clip-rule="evenodd" d="M7.26074 0.212896C7.73946 0.0463848 8.26054 0.0463851 8.73926 0.212896L13.4893 1.86622C14.3935 2.18101 15 3.03372 15 3.99122V8.00001C14.9997 10.0482 13.8191 11.7484 12.5498 12.9922C11.2687 14.2474 9.79239 15.1428 8.97656 15.5898C8.36527 15.9245 7.63473 15.9245 7.02344 15.5898C6.20761 15.1428 4.7313 14.2474 3.4502 12.9922C2.18092 11.7484 1.00031 10.0482 1 8.00001V3.99122C1.00002 3.03372 1.6065 2.18101 2.51074 1.86622L7.26074 0.212896ZM8.24609 1.62989C8.08668 1.57451 7.91332 1.57451 7.75391 1.62989L3.00391 3.28321C2.70259 3.38819 2.50002 3.67212 2.5 3.99122V8.00001C2.50032 9.4557 3.34713 10.7912 4.5 11.9209C5.64127 13.0391 6.98331 13.8575 7.74414 14.2744C7.90641 14.3631 8.09359 14.3631 8.25586 14.2744C9.01669 13.8575 10.3587 13.0391 11.5 11.9209C12.6529 10.7912 13.4997 9.4557 13.5 8.00001V3.99122C13.5 3.67212 13.2974 3.38819 12.9961 3.28321L8.24609 1.62989ZM10.2197 5.46973C10.5126 5.17684 10.9874 5.17684 11.2803 5.46973C11.5727 5.76266 11.573 6.23754 11.2803 6.53028L7.28027 10.5303C6.9875 10.8225 6.5125 10.8225 6.21973 10.5303L4.21973 8.53028C3.92699 8.23754 3.92731 7.76266 4.21973 7.46973C4.51262 7.17684 4.98738 7.17684 5.28027 7.46973L6.75 8.93946L10.2197 5.46973Z" fill="#000001"/>
</g>
</svg>
