<svg width="24" height="24" viewBox="0 0 24 24" fill="none" xmlns="http://www.w3.org/2000/svg">
<g id="size=24">
<g id="Path">
<path d="M9 10.5C9 10.0858 8.66421 9.75 8.25 9.75C7.83579 9.75 7.5 10.0858 7.5 10.5C7.5 11.6935 7.97411 12.8381 8.81802 13.682C9.66193 14.5259 10.8065 15 12 15C13.1935 15 14.3381 14.5259 15.182 13.682C16.0259 12.8381 16.5 11.6935 16.5 10.5C16.5 10.0858 16.1642 9.75 15.75 9.75C15.3358 9.75 15 10.0858 15 10.5C15 11.2956 14.6839 12.0587 14.1213 12.6213C13.5587 13.1839 12.7956 13.5 12 13.5C11.2044 13.5 10.4413 13.1839 9.87868 12.6213C9.31607 12.0587 9 11.2956 9 10.5Z" fill="#000001"/>
<path fill-rule="evenodd" clip-rule="evenodd" d="M5.61159 1.86525C6.13128 1.31308 6.85589 1 7.61415 1H16.3859C17.1441 1 17.8687 1.31308 18.3884 1.86525L21.2526 4.9084C21.7327 5.41852 22 6.09263 22 6.79315V20.25C22 21.7688 20.7688 23 19.25 23H4.75C3.23122 23 2 21.7688 2 20.25V6.79315C2 6.09263 2.26734 5.41852 2.74745 4.9084L5.61159 1.86525ZM7.61415 2.5C7.26948 2.5 6.94011 2.64231 6.70389 2.89329L4.25052 5.5H19.7495L17.2961 2.89329C17.0599 2.64231 16.7305 2.5 16.3859 2.5H7.61415ZM3.5 20.25V7H20.5V20.25C20.5 20.9404 19.9404 21.5 19.25 21.5H4.75C4.05964 21.5 3.5 20.9404 3.5 20.25Z" fill="#000001"/>
</g>
</g>
</svg>
