<svg width="24" height="24" viewBox="0 0 24 24" fill="none" xmlns="http://www.w3.org/2000/svg">
<g id="size=24">
<path id="Path" d="M9.75 19.0002C10.7165 19.0002 11.5 19.7837 11.5 20.7502C11.4999 21.7166 10.7164 22.5002 9.75 22.5002H9.74023C8.77381 22.5002 7.99035 21.7166 7.99023 20.7502C7.99023 19.7837 8.77374 19.0002 9.74023 19.0002H9.75ZM19.75 19.0002C20.7165 19.0002 21.5 19.7837 21.5 20.7502C21.4999 21.7166 20.7164 22.5002 19.75 22.5002H19.7402C18.7738 22.5002 17.9904 21.7166 17.9902 20.7502C17.9902 19.7837 18.7737 19.0002 19.7402 19.0002H19.75ZM3.33887 1.50021C4.66292 1.50025 5.79891 2.44381 6.04199 3.74533L6.27637 5.00021H20.8721C22.5791 5.00021 23.8733 6.53914 23.5811 8.22092L22.2773 15.7209C22.0482 17.038 20.9043 18.0002 19.5674 18.0002H9.42578C8.09277 18.0002 6.9512 17.0441 6.71777 15.7317L6.01172 11.76L4.56738 4.02072C4.45688 3.42915 3.94068 3.00025 3.33887 3.00021H1.25C0.835859 3.00021 0.500117 2.66433 0.5 2.25021C0.5 1.836 0.835786 1.50021 1.25 1.50021H3.33887ZM7.48828 11.4944L8.19531 15.469C8.30146 16.0654 8.81991 16.5002 9.42578 16.5002H19.5674C20.175 16.5002 20.6956 16.0627 20.7998 15.4641L22.1035 7.96408C22.2363 7.19967 21.648 6.50021 20.8721 6.50021H6.55664L7.48828 11.4944Z" fill="#000001"/>
</g>
</svg>
