<svg width="16" height="16" viewBox="0 0 16 16" fill="none" xmlns="http://www.w3.org/2000/svg">
<g id="size=16">
<path id="Path" d="M6.25 12.4996C6.94017 12.4996 7.49969 13.0595 7.5 13.7496C7.5 14.44 6.94036 14.9996 6.25 14.9996H6.24023C5.54988 14.9996 4.99023 14.44 4.99023 13.7496C4.99054 13.0595 5.55007 12.4996 6.24023 12.4996H6.25ZM12.75 12.4996C13.4402 12.4996 13.9997 13.0595 14 13.7496C14 14.44 13.4404 14.9996 12.75 14.9996H12.7402C12.0499 14.9996 11.4902 14.44 11.4902 13.7496C11.4905 13.0595 12.0501 12.4996 12.7402 12.4996H12.75ZM2.4043 1.4996C3.47829 1.49964 4.40254 2.25961 4.61133 3.31308L4.64844 3.4996H13.4531C14.8565 3.49987 15.9167 4.77119 15.666 6.15195L14.9395 10.1519C14.7449 11.2217 13.8129 11.9995 12.7256 11.9996H6.62988C5.54805 11.9996 4.6194 11.2297 4.41895 10.1666L4.01367 8.01718L3.13965 3.6041C3.06994 3.25312 2.76217 2.99964 2.4043 2.9996H1.25C0.835786 2.9996 0.5 2.66382 0.5 2.2496C0.500306 1.83565 0.835976 1.4996 1.25 1.4996H2.4043ZM5.4873 7.73593L5.89258 9.88828C5.95939 10.2426 6.26929 10.4996 6.62988 10.4996H12.7256C13.088 10.4995 13.3981 10.24 13.4629 9.88339L14.1904 5.88339C14.2735 5.4235 13.9205 4.99987 13.4531 4.9996H4.94531L5.4873 7.73593Z" fill="#000001"/>
</g>
</svg>
