<svg width="24" height="24" viewBox="0 0 24 24" fill="none" xmlns="http://www.w3.org/2000/svg">
<g id="size=24">
<path id="Path" d="M16.3857 1C17.1438 1.00013 17.8691 1.31318 18.3887 1.86523L21.2529 4.9082C21.7328 5.41824 22 6.09266 22 6.79297V20.25C22 21.7686 20.7686 22.9998 19.25 23H4.75C3.23122 23 2 21.7688 2 20.25V6.79297C2.00005 6.09255 2.26705 5.41827 2.74707 4.9082L5.61133 1.86523C6.131 1.31321 6.8561 1 7.61426 1H16.3857ZM3.5 20.25C3.5 20.9404 4.05964 21.5 4.75 21.5H19.25C19.9401 21.4998 20.5 20.9402 20.5 20.25V7H3.5V20.25ZM15.75 9.75C16.164 9.75025 16.5 10.0859 16.5 10.5C16.5 11.6934 16.0254 12.8377 15.1816 13.6816C14.3378 14.5254 13.1933 14.9999 12 15C10.8066 15 9.66225 14.5254 8.81836 13.6816C7.97445 12.8377 7.5 11.6935 7.5 10.5C7.5 10.0858 7.83579 9.75 8.25 9.75C8.664 9.75025 9 10.0859 9 10.5C9 11.2956 9.3163 12.0585 9.87891 12.6211C10.4415 13.1836 11.2045 13.5 12 13.5C12.7955 13.4999 13.5586 13.1836 14.1211 12.6211C14.6836 12.0585 15 11.2955 15 10.5C15 10.0858 15.3358 9.75 15.75 9.75ZM7.61426 2.5C7.2697 2.5 6.94031 2.64271 6.7041 2.89355L4.25098 5.5H19.749L17.2959 2.89355C17.0598 2.64268 16.7302 2.50013 16.3857 2.5H7.61426Z" fill="#000001"/>
</g>
</svg>
