<svg width="16" height="16" viewBox="0 0 16 16" fill="none" xmlns="http://www.w3.org/2000/svg">
<g id="size=16">
<path id="Path" d="M10.8789 0C11.5169 0.000158091 12.1252 0.271609 12.5518 0.746094L14.4229 2.82715C14.794 3.24012 14.9999 3.77578 15 4.33105V13.75C15 14.9925 13.9924 15.9998 12.75 16H3.25C2.00736 16 1 14.9926 1 13.75V4.33105C1.00005 3.77568 1.20583 3.24015 1.57715 2.82715L3.44824 0.746094C3.87493 0.271636 4.48299 3.21249e-05 5.12109 0H10.8789ZM2.5 13.75C2.5 14.1642 2.83579 14.5 3.25 14.5H12.75C13.164 14.4998 13.5 14.1641 13.5 13.75V5H2.5V13.75ZM10.25 6.5C10.664 6.50024 11 6.83593 11 7.25C11 8.00965 10.6591 8.71758 10.0889 9.22461C9.52144 9.72892 8.76878 9.9999 8 10C7.23118 10 6.47864 9.72888 5.91113 9.22461C5.3407 8.71756 5 8.00976 5 7.25C5 6.83579 5.33579 6.5 5.75 6.5C6.16401 6.50024 6.5 6.83593 6.5 7.25C6.5 7.55107 6.63381 7.86043 6.90723 8.10352C7.18357 8.34904 7.57565 8.5 8 8.5C8.42431 8.49989 8.81651 8.34908 9.09277 8.10352C9.36602 7.86047 9.5 7.55097 9.5 7.25C9.5 6.83579 9.83579 6.5 10.25 6.5ZM5.12109 1.5C4.90849 1.50003 4.70568 1.59098 4.56348 1.74902L2.98926 3.5H13.0107L11.4365 1.74902C11.2944 1.59095 11.0915 1.50016 10.8789 1.5H5.12109Z" fill="#000001"/>
</g>
</svg>
