<svg width="24" height="24" viewBox="0 0 24 24" fill="none" xmlns="http://www.w3.org/2000/svg">
<g id="size=24">
<path id="Path" d="M16.3857 1C17.144 1 17.869 1.31307 18.3887 1.86523L21.2529 4.9082C21.733 5.41827 22 6.09255 22 6.79297V20.25C22 21.7688 20.7688 23 19.25 23H4.75C3.23122 23 2 21.7688 2 20.25V6.79297C2.00005 6.09255 2.26705 5.41827 2.74707 4.9082L5.61133 1.86523C6.13101 1.31307 6.856 1 7.61426 1H16.3857ZM3.5 20.25C3.5 20.9404 4.05964 21.5 4.75 21.5H19.25C19.9404 21.5 20.5 20.9404 20.5 20.25V7H3.5V20.25ZM15.75 9.75C16.1642 9.75 16.5 10.0858 16.5 10.5C16.5 11.6935 16.0256 12.8377 15.1816 13.6816C14.3377 14.5256 13.1935 15 12 15C10.8065 15 9.66227 14.5256 8.81836 13.6816C7.97445 12.8377 7.5 11.6935 7.5 10.5C7.5 10.0858 7.83579 9.75 8.25 9.75C8.66421 9.75 9 10.0858 9 10.5C9 11.2956 9.3163 12.0585 9.87891 12.6211C10.4415 13.1837 11.2044 13.5 12 13.5C12.7956 13.5 13.5585 13.1837 14.1211 12.6211C14.6837 12.0585 15 11.2956 15 10.5C15 10.0858 15.3358 9.75 15.75 9.75ZM7.61426 2.5C7.2696 2.5 6.94032 2.64257 6.7041 2.89355L4.25098 5.5H19.749L17.2959 2.89355C17.0597 2.64257 16.7304 2.5 16.3857 2.5H7.61426Z" fill="#000001"/>
</g>
</svg>
