<svg width="16" height="16" viewBox="0 0 16 16" fill="none" xmlns="http://www.w3.org/2000/svg">
<g id="size=16">
<path id="Path" d="M10.8789 0C11.5171 3.186e-05 12.1251 0.271499 12.5518 0.746094L14.4229 2.82715C14.7942 3.24015 14.9999 3.77568 15 4.33105V13.75C15 14.9926 13.9926 16 12.75 16H3.25C2.00736 16 1 14.9926 1 13.75V4.33105C1.00005 3.77568 1.20583 3.24015 1.57715 2.82715L3.44824 0.746094C3.87494 0.271499 4.48289 3.21299e-05 5.12109 0H10.8789ZM2.5 13.75C2.5 14.1642 2.83579 14.5 3.25 14.5H12.75C13.1642 14.5 13.5 14.1642 13.5 13.75V5H2.5V13.75ZM10.25 6.5C10.6642 6.5 11 6.83579 11 7.25C11 8.00976 10.6593 8.71756 10.0889 9.22461C9.52133 9.72902 8.76893 10 8 10C7.23107 10 6.47867 9.72902 5.91113 9.22461C5.3407 8.71756 5 8.00976 5 7.25C5 6.83579 5.33579 6.5 5.75 6.5C6.16421 6.5 6.5 6.83579 6.5 7.25C6.5 7.55107 6.63381 7.86043 6.90723 8.10352C7.18359 8.34917 7.57552 8.5 8 8.5C8.42448 8.5 8.81641 8.34917 9.09277 8.10352C9.36619 7.86043 9.5 7.55107 9.5 7.25C9.5 6.83579 9.83579 6.5 10.25 6.5ZM5.12109 1.5C4.90839 1.50003 4.70569 1.59084 4.56348 1.74902L2.98926 3.5H13.0107L11.4365 1.74902C11.2943 1.59084 11.0916 1.50003 10.8789 1.5H5.12109Z" fill="#000001"/>
</g>
</svg>
