<svg width="16" height="16" viewBox="0 0 16 16" fill="none" xmlns="http://www.w3.org/2000/svg">
<g id="size=16">
<path id="Path" fill-rule="evenodd" clip-rule="evenodd" d="M14.2499 1C14.4557 1.00024 14.6429 1.08339 14.7783 1.21777L14.7822 1.22168C14.8529 1.29303 14.9071 1.37542 14.9433 1.46289C14.9799 1.55121 14.9999 1.64846 14.9999 1.75V5.75C14.9999 6.16391 14.6637 6.49951 14.2499 6.5C13.8357 6.5 13.4999 6.16421 13.4999 5.75V3.56055L2.28022 14.7803C1.98747 15.073 1.5126 15.0727 1.21967 14.7803C0.926777 14.4874 0.926777 14.0126 1.21967 13.7197L12.4394 2.5H10.2499C9.83573 2.5 9.49994 2.16421 9.49994 1.75C9.49994 1.33579 9.83573 1 10.2499 1H14.2499ZM14.2499 9.5C14.6637 9.50049 14.9999 9.83609 14.9999 10.25V14.25C14.9999 14.3515 14.9799 14.4488 14.9433 14.5371C14.9076 14.6234 14.8544 14.7047 14.7851 14.7754C14.782 14.7785 14.7785 14.7821 14.7753 14.7852C14.6402 14.9178 14.4542 14.9998 14.2499 15H10.2499C9.83573 15 9.49994 14.6642 9.49994 14.25C9.49994 13.8358 9.83573 13.5 10.2499 13.5H12.4394L9.96967 11.0303C9.67678 10.7374 9.67678 10.2626 9.96967 9.96973C10.2626 9.67728 10.7375 9.67699 11.0302 9.96973L13.4999 12.4395V10.25C13.4999 9.83579 13.8357 9.5 14.2499 9.5ZM1.21967 1.21973C1.5126 0.927286 1.98747 0.926985 2.28022 1.21973L6.03022 4.96973C6.3225 5.2625 6.3225 5.7375 6.03022 6.03027C5.73748 6.32301 5.2626 6.32271 4.96967 6.03027L1.21967 2.28027C0.926777 1.98738 0.926777 1.51262 1.21967 1.21973Z" fill="#000001"/>
</g>
</svg>
