<svg width="24" height="24" viewBox="0 0 24 24" fill="none" xmlns="http://www.w3.org/2000/svg">
<g id="size=24">
<path id="Path" fill-rule="evenodd" clip-rule="evenodd" d="M14.4697 14.4697C14.7626 14.1778 15.2376 14.1772 15.5302 14.4697L20.4999 19.4395V15.75C20.4999 15.3358 20.8357 15 21.2499 15C21.6633 15.001 21.9999 15.3364 21.9999 15.75V21.25C21.9999 21.4415 21.926 21.6339 21.7802 21.7803C21.7087 21.8517 21.6249 21.9068 21.5371 21.9434C21.4492 21.9798 21.3509 21.9997 21.2499 22H15.7499C15.3357 22 14.9999 21.6642 14.9999 21.25C14.9999 20.8358 15.3357 20.5 15.7499 20.5H19.4394L14.4697 15.5303C14.1768 15.2374 14.1768 14.7626 14.4697 14.4697ZM21.2499 2C21.4412 2.00049 21.6343 2.07377 21.7802 2.21973C21.8517 2.29141 21.9069 2.37483 21.9433 2.46289C21.9798 2.55112 21.9999 2.6486 21.9999 2.75V8.25C21.9999 8.66357 21.6633 8.99896 21.2499 9C20.8357 9 20.4999 8.66421 20.4999 8.25V4.56055L3.28022 21.7803C2.98764 22.0728 2.51264 22.0722 2.21967 21.7803C1.92678 21.4874 1.92678 21.0126 2.21967 20.7197L19.4394 3.5H15.7499C15.3357 3.5 14.9999 3.16421 14.9999 2.75C14.9999 2.33579 15.3357 2 15.7499 2H21.2499ZM2.21967 2.21973C2.51264 1.9278 2.98764 1.92716 3.28022 2.21973L9.53022 8.46973C9.82183 8.76238 9.82183 9.23762 9.53022 9.53027C9.23765 9.82284 8.76264 9.8222 8.46967 9.53027L2.21967 3.28027C1.92678 2.98738 1.92678 2.51262 2.21967 2.21973Z" fill="#000001"/>
</g>
</svg>
