<svg width="16" height="16" viewBox="0 0 16 16" fill="none" xmlns="http://www.w3.org/2000/svg">
<g id="size=16">
<g id="Path">
<path d="M14.9431 1.46291C14.9068 1.37511 14.853 1.2928 14.7819 1.22126L14.7803 1.21967L14.7787 1.21808C14.6431 1.08329 14.4563 1 14.25 1H10.25C9.83579 1 9.5 1.33579 9.5 1.75C9.5 2.16421 9.83579 2.5 10.25 2.5H12.4393L1.21967 13.7197C0.926777 14.0126 0.926777 14.4874 1.21967 14.7803C1.51256 15.0732 1.98744 15.0732 2.28033 14.7803L13.5 3.56066V5.75C13.5 6.16421 13.8358 6.5 14.25 6.5C14.6642 6.5 15 6.16421 15 5.75V1.75C15 1.64831 14.9798 1.55134 14.9431 1.46291Z" fill="#000001"/>
<path d="M9.5 14.25C9.5 14.6642 9.83579 15 10.25 15H14.25C14.4546 15 14.6401 14.9181 14.7754 14.7852C14.7787 14.782 14.782 14.7787 14.7852 14.7754C14.8547 14.7047 14.9073 14.6235 14.9431 14.5371C14.9798 14.4487 15 14.3517 15 14.25V10.25C15 9.83579 14.6642 9.5 14.25 9.5C13.8358 9.5 13.5 9.83579 13.5 10.25V12.4393L11.0303 9.96967C10.7374 9.67678 10.2626 9.67678 9.96967 9.96967C9.67678 10.2626 9.67678 10.7374 9.96967 11.0303L12.4393 13.5H10.25C9.83579 13.5 9.5 13.8358 9.5 14.25Z" fill="#000001"/>
<path d="M6.03033 4.96967C6.32322 5.26256 6.32322 5.73744 6.03033 6.03033C5.73744 6.32322 5.26256 6.32322 4.96967 6.03033L1.21967 2.28033C0.926777 1.98744 0.926777 1.51256 1.21967 1.21967C1.51256 0.926777 1.98744 0.926777 2.28033 1.21967L6.03033 4.96967Z" fill="#000001"/>
</g>
</g>
</svg>
