<svg width="24" height="24" viewBox="0 0 24 24" fill="none" xmlns="http://www.w3.org/2000/svg">
<g id="size=24">
<path id="Path" d="M19.25 2C20.7688 2 22 3.23122 22 4.75V19.25C22 20.7688 20.7688 22 19.25 22H4.75C3.23122 22 2 20.7688 2 19.25V4.75C2 3.23122 3.23122 2 4.75 2H19.25ZM4.75 3.5C4.05964 3.5 3.5 4.05964 3.5 4.75V19.25C3.5 19.9404 4.05964 20.5 4.75 20.5H7V3.5H4.75ZM8.5 20.5H19.25C19.9404 20.5 20.5 19.9404 20.5 19.25V4.75C20.5 4.05964 19.9404 3.5 19.25 3.5H8.5V20.5ZM11.7051 7.23535C11.9895 6.93421 12.4635 6.92067 12.7646 7.20508L17.2646 11.4551C17.4147 11.5968 17.5 11.7937 17.5 12C17.5 12.2063 17.4147 12.4032 17.2646 12.5449L12.7646 16.7949C12.4635 17.0793 11.9895 17.0658 11.7051 16.7646C11.4207 16.4635 11.4342 15.9895 11.7354 15.7051L15.6572 12L11.7354 8.29492C11.4342 8.01051 11.4207 7.53649 11.7051 7.23535Z" fill="#000001"/>
</g>
</svg>
