<svg width="16" height="16" viewBox="0 0 16 16" fill="none" xmlns="http://www.w3.org/2000/svg">
<g id="size=16">
<path id="Path" d="M12.75 1C13.9926 1 15 2.00736 15 3.25V12.75C15 13.9926 13.9926 15 12.75 15H3.25C2.00736 15 1 13.9926 1 12.75V3.25C1 2.00736 2.00736 1 3.25 1H12.75ZM3.25 2.5C2.83579 2.5 2.5 2.83579 2.5 3.25V12.75C2.5 13.1642 2.83579 13.5 3.25 13.5H5.0498V2.5H3.25ZM6.4502 13.5H12.75C13.1642 13.5 13.5 13.1642 13.5 12.75V3.25C13.5 2.83579 13.1642 2.5 12.75 2.5H6.4502V13.5Z" fill="#000001"/>
</g>
</svg>
