<svg width="16" height="16" viewBox="0 0 16 16" fill="none" xmlns="http://www.w3.org/2000/svg">
<g id="size=16">
<path id="Path" d="M12.75 1C13.9926 1 15 2.00736 15 3.25V12.75C15 13.9926 13.9926 15 12.75 15H3.25C2.00736 15 1 13.9926 1 12.75V3.25C1 2.00736 2.00736 1 3.25 1H12.75ZM3.25 2.5C2.83579 2.5 2.5 2.83579 2.5 3.25V12.75C2.5 13.1642 2.83579 13.5 3.25 13.5H4.5498V2.5H3.25ZM5.9502 13.5H12.75C13.1642 13.5 13.5 13.1642 13.5 12.75V3.25C13.5 2.83579 13.1642 2.5 12.75 2.5H5.9502V13.5ZM7.7373 4.27344C8.00039 3.99032 8.44333 3.9743 8.72656 4.2373L12.2266 7.4873C12.369 7.61973 12.4502 7.80553 12.4502 8C12.4501 8.19449 12.369 8.3803 12.2266 8.5127L8.72656 11.7627C8.44339 12.0256 8.00041 12.0095 7.7373 11.7266C7.47435 11.4434 7.49046 11.0004 7.77344 10.7373L10.7217 8L7.77344 5.2627C7.49027 4.99962 7.47429 4.55669 7.7373 4.27344Z" fill="#000001"/>
</g>
</svg>
