<svg width="16" height="16" viewBox="0 0 16 16" fill="none" xmlns="http://www.w3.org/2000/svg">
<g id="size=16">
<path id="Path" d="M12.75 1C13.9926 1 15 2.00736 15 3.25V12.75C15 13.9926 13.9926 15 12.75 15H3.25C2.00736 15 1 13.9926 1 12.75V3.25C1 2.00736 2.00736 1 3.25 1H12.75ZM3.25 2.5C2.83579 2.5 2.5 2.83579 2.5 3.25V12.75C2.5 13.1642 2.83579 13.5 3.25 13.5H4.5498V2.5H3.25ZM5.9502 13.5H12.75C13.1642 13.5 13.5 13.1642 13.5 12.75V3.25C13.5 2.83579 13.1642 2.5 12.75 2.5H5.9502V13.5ZM10.7734 4.2373C11.0567 3.9743 11.4996 3.99032 11.7627 4.27344C12.0257 4.55669 12.0097 4.99962 11.7266 5.2627L8.77832 8L11.7266 10.7373C12.0095 11.0004 12.0257 11.4434 11.7627 11.7266C11.4996 12.0095 11.0566 12.0256 10.7734 11.7627L7.27344 8.5127C7.13097 8.3803 7.04986 8.19449 7.0498 8C7.0498 7.80553 7.13104 7.61973 7.27344 7.4873L10.7734 4.2373Z" fill="#000001"/>
</g>
</svg>
