<svg width="24" height="24" viewBox="0 0 24 24" fill="none" xmlns="http://www.w3.org/2000/svg">
<g id="size=24">
<path id="Path" fill-rule="evenodd" clip-rule="evenodd" d="M4.75 2C3.23122 2 2 3.23122 2 4.75V19.25C2 20.7688 3.23122 22 4.75 22H19.25C20.7688 22 22 20.7688 22 19.25V4.75C22 3.23122 20.7688 2 19.25 2H4.75ZM3.5 4.75C3.5 4.05964 4.05964 3.5 4.75 3.5H8V20.5H4.75C4.05964 20.5 3.5 19.9404 3.5 19.25V4.75ZM9.5 20.5H19.25C19.9404 20.5 20.5 19.9404 20.5 19.25V4.75C20.5 4.05964 19.9404 3.5 19.25 3.5H9.5V20.5Z" fill="#000001"/>
</g>
</svg>
