<svg width="24" height="24" viewBox="0 0 24 24" fill="none" xmlns="http://www.w3.org/2000/svg">
<g id="size=24">
<path id="Path" d="M19.25 2C20.7688 2 22 3.23122 22 4.75V19.25C22 20.7688 20.7688 22 19.25 22H15.25C14.8358 22 14.5 21.6642 14.5 21.25C14.5 20.8358 14.8358 20.5 15.25 20.5H19.25C19.9404 20.5 20.5 19.9404 20.5 19.25V4.75C20.5 4.05964 19.9404 3.5 19.25 3.5H15.25C14.8358 3.5 14.5 3.16421 14.5 2.75C14.5 2.33579 14.8358 2 15.25 2H19.25ZM9.46973 6.21973C9.76262 5.92683 10.2374 5.92683 10.5303 6.21973L15.5303 11.2197C15.6767 11.3662 15.75 11.5581 15.75 11.75C15.75 11.8517 15.73 11.9487 15.6934 12.0371C15.6568 12.1256 15.6022 12.2084 15.5303 12.2803L10.5303 17.2803C10.2374 17.5732 9.76262 17.5732 9.46973 17.2803C9.17683 16.9874 9.17683 16.5126 9.46973 16.2197L13.1895 12.5H3C2.58579 12.5 2.25 12.1642 2.25 11.75C2.25 11.3358 2.58579 11 3 11H13.1895L9.46973 7.28027C9.17683 6.98738 9.17683 6.51262 9.46973 6.21973Z" fill="#000001"/>
</g>
</svg>
