<svg width="24" height="24" viewBox="0 0 24 24" fill="none" xmlns="http://www.w3.org/2000/svg">
<g id="size=24">
<path id="Path" d="M8.75 2C9.16421 2 9.5 2.33579 9.5 2.75C9.5 3.16421 9.16421 3.5 8.75 3.5H4.75C4.05964 3.5 3.5 4.05964 3.5 4.75V19.25C3.5 19.9404 4.05964 20.5 4.75 20.5H8.75C9.16421 20.5 9.5 20.8358 9.5 21.25C9.5 21.6642 9.16421 22 8.75 22H4.75C3.23122 22 2 20.7688 2 19.25V4.75C2 3.23122 3.23122 2 4.75 2H8.75ZM15.4697 6.21973C15.7626 5.92683 16.2374 5.92683 16.5303 6.21973L21.5303 11.2197C21.8232 11.5126 21.8232 11.9874 21.5303 12.2803L16.5303 17.2803C16.2374 17.5732 15.7626 17.5732 15.4697 17.2803C15.1768 16.9874 15.1768 16.5126 15.4697 16.2197L19.1895 12.5H9C8.58579 12.5 8.25 12.1642 8.25 11.75C8.25 11.3358 8.58579 11 9 11H19.1895L15.4697 7.28027C15.1768 6.98738 15.1768 6.51262 15.4697 6.21973Z" fill="#000001"/>
</g>
</svg>
