<svg width="16" height="16" viewBox="0 0 16 16" fill="none" xmlns="http://www.w3.org/2000/svg">
<g id="size=16">
<path id="Path" d="M12.75 1C13.9926 1 15 2.00736 15 3.25V12.75C15 13.9926 13.9926 15 12.75 15H10.25C9.83579 15 9.5 14.6642 9.5 14.25C9.5 13.8358 9.83579 13.5 10.25 13.5H12.75C13.1642 13.5 13.5 13.1642 13.5 12.75V3.25C13.5 2.83579 13.1642 2.5 12.75 2.5H10.25C9.83579 2.5 9.5 2.16421 9.5 1.75C9.5 1.33579 9.83579 1 10.25 1H12.75ZM5.96973 3.71973C6.26262 3.42683 6.73738 3.42683 7.03027 3.71973L10.5303 7.21973C10.6709 7.36038 10.75 7.55109 10.75 7.75C10.75 7.94891 10.6709 8.13962 10.5303 8.28027L7.03027 11.7803C6.73738 12.0732 6.26262 12.0732 5.96973 11.7803C5.67683 11.4874 5.67683 11.0126 5.96973 10.7197L8.18945 8.5H2C1.58579 8.5 1.25 8.16421 1.25 7.75C1.25 7.33579 1.58579 7 2 7H8.18945L5.96973 4.78027C5.67683 4.48738 5.67683 4.01262 5.96973 3.71973Z" fill="#000001"/>
</g>
</svg>
