<svg width="24" height="24" viewBox="0 0 24 24" fill="none" xmlns="http://www.w3.org/2000/svg">
<g id="size=24">
<path id="Path" fill-rule="evenodd" clip-rule="evenodd" d="M4 5.93758C4.00021 4.51604 5.60609 3.68794 6.76465 4.5118L15.2891 10.5733C16.2693 11.2712 16.2696 12.7283 15.2891 13.4259L6.76465 19.4874C5.60647 20.3101 4.00113 19.4821 4 18.0616V5.93758ZM18.75 4.25008C19.1642 4.25008 19.5 4.58587 19.5 5.00008V19.0001C19.499 19.4135 19.1636 19.7501 18.75 19.7501C18.3364 19.75 18.001 19.4135 18 19.0001V5.00008C18 4.5859 18.3358 4.25014 18.75 4.25008ZM5.89453 5.73446C5.7291 5.6169 5.50021 5.73469 5.5 5.93758V18.0616C5.50112 18.2633 5.72951 18.3817 5.89453 18.2657L14.4189 12.2032C14.5589 12.1037 14.5585 11.8958 14.4189 11.796L5.89453 5.73446Z" fill="#000001"/>
</g>
</svg>
