<svg width="16" height="16" viewBox="0 0 16 16" fill="none" xmlns="http://www.w3.org/2000/svg">
<g id="size=16">
<path id="Path" d="M8 0C12.4183 0 16 3.58172 16 8C16 12.4183 12.4183 16 8 16C3.58172 16 0 12.4183 0 8C0 3.58172 3.58172 0 8 0ZM3.96484 13.0957C5.07343 13.9747 6.47531 14.5 8 14.5C11.5899 14.5 14.5 11.5899 14.5 8C14.5 6.47531 13.9747 5.07343 13.0957 3.96484L3.96484 13.0957ZM8 1.5C4.41015 1.5 1.5 4.41015 1.5 8C1.5 9.52469 2.02527 10.9266 2.9043 12.0352L12.0352 2.9043C10.9266 2.02527 9.52469 1.5 8 1.5Z" fill="#000001"/>
</g>
</svg>
