<svg width="16" height="16" viewBox="0 0 16 16" fill="none" xmlns="http://www.w3.org/2000/svg">
<g id="size=16">
<path id="Path" fill-rule="evenodd" clip-rule="evenodd" d="M11.2412 2.50001C12.4004 1.68209 14 2.51092 14 3.92969V12.0703C13.9994 13.4885 12.4002 14.3174 11.2412 13.5L5.47461 9.42969C4.48709 8.73254 4.48731 7.26764 5.47461 6.57032L11.2412 2.50001ZM2.75 2.25001C3.16421 2.25001 3.49999 2.5858 3.5 3.00001V13C3.49977 13.414 3.16407 13.75 2.75 13.75C2.33593 13.75 2.00023 13.414 2 13V3.00001C2.00001 2.5858 2.33579 2.25001 2.75 2.25001ZM12.5 3.92969C12.5 3.72703 12.2711 3.60871 12.1055 3.72559L6.33984 7.79591C6.19908 7.8956 6.19886 8.10458 6.33984 8.20411L12.1055 12.2744C12.2709 12.391 12.4994 12.2725 12.5 12.0703V3.92969Z" fill="#000001"/>
</g>
</svg>
