<svg width="24" height="24" viewBox="0 0 24 24" fill="none" xmlns="http://www.w3.org/2000/svg">
<g id="size=24">
<path id="Path" fill-rule="evenodd" clip-rule="evenodd" d="M17.2354 4.51177C18.3939 3.6879 19.9998 4.51601 20 5.93755V18.0616C19.9989 19.4821 18.3935 20.3102 17.2354 19.4874L8.71094 13.4258C7.73041 12.7283 7.73078 11.2711 8.71094 10.5733L17.2354 4.51177ZM5.25 4.25005C5.66421 4.25005 6 4.58584 6 5.00005V19.0001C5.99907 19.4135 5.66364 19.7501 5.25 19.7501C4.83636 19.7501 4.50093 19.4135 4.5 19.0001V5.00005C4.5 4.58584 4.83579 4.25005 5.25 4.25005ZM18.5 5.93755C18.4998 5.73465 18.2709 5.61687 18.1055 5.73443L9.58105 11.7959C9.44155 11.8958 9.44111 12.1037 9.58105 12.2032L18.1055 18.2657C18.2705 18.3818 18.4989 18.2633 18.5 18.0616V5.93755Z" fill="#000001"/>
</g>
</svg>
