<svg width="16" height="16" viewBox="0 0 16 16" fill="none" xmlns="http://www.w3.org/2000/svg">
<g id="size=16">
<path id="Path" fill-rule="evenodd" clip-rule="evenodd" d="M11.2412 2.50019C12.4004 1.68228 14 2.5111 14 3.92988V12.0705C13.9993 13.4886 12.4001 14.3175 11.2412 13.5002L5.47461 9.42988C4.48712 8.73274 4.48739 7.26785 5.47461 6.5705L11.2412 2.50019ZM2.75 2.25019C3.16421 2.25019 3.49999 2.58598 3.5 3.00019V13.0002C3.49969 13.4141 3.16402 13.7502 2.75 13.7502C2.33598 13.7502 2.00031 13.4141 2 13.0002V3.00019C2.00001 2.58598 2.33579 2.25019 2.75 2.25019ZM12.5 3.92988C12.5 3.72721 12.2711 3.6089 12.1055 3.72578L6.33984 7.79609C6.19915 7.89581 6.19889 8.10478 6.33984 8.20429L12.1055 12.2746C12.2708 12.3911 12.4993 12.2726 12.5 12.0705V3.92988Z" fill="#000001"/>
</g>
</svg>
