<svg width="24" height="24" viewBox="0 0 24 24" fill="none" xmlns="http://www.w3.org/2000/svg">
<g id="size=24">
<path id="Path" d="M12 1C15.0122 1 17.742 2.2105 19.7285 4.17188C19.7464 4.18674 19.7635 4.20294 19.7803 4.21973C19.7971 4.23651 19.8133 4.25357 19.8281 4.27148C21.7895 6.25801 23 8.9878 23 12C23 18.0751 18.0751 23 12 23C8.9878 23 6.25801 21.7895 4.27148 19.8281C4.25357 19.8133 4.23651 19.7971 4.21973 19.7803C4.20294 19.7635 4.18674 19.7464 4.17188 19.7285C2.21051 17.742 1 15.0122 1 12C1 5.92487 5.92487 1 12 1ZM5.83398 19.2266C7.49345 20.6438 9.64663 21.5 12 21.5C17.2467 21.5 21.5 17.2467 21.5 12C21.5 9.64663 20.6438 7.49345 19.2266 5.83398L5.83398 19.2266ZM12 2.5C6.75329 2.5 2.5 6.75329 2.5 12C2.5 14.3534 3.35617 16.5066 4.77344 18.166L18.166 4.77344C16.5066 3.35617 14.3534 2.5 12 2.5Z" fill="#000001"/>
</g>
</svg>
