<svg width="16" height="16" viewBox="0 0 16 16" fill="none" xmlns="http://www.w3.org/2000/svg">
<g id="size=16">
<g id="Vector">
<path fill-rule="evenodd" clip-rule="evenodd" d="M2.47102 11.3176C3.28239 11.3156 3.93964 10.6584 3.94159 9.847V8.37643H2.47067C1.65944 8.37857 1.0024 9.03577 1.00046 9.847C1.0024 10.6584 1.65966 11.3156 2.47102 11.3176ZM6.15305 8.37646C5.34169 8.3784 4.68443 9.03566 4.68249 9.84703V13.5296C4.68462 14.341 5.34204 14.9981 6.15341 14.9998C6.96463 14.9977 7.62168 14.3405 7.62362 13.5293V9.84667C7.62148 9.03545 6.96428 8.3784 6.15305 8.37646Z" fill="#000001"/>
<path fill-rule="evenodd" clip-rule="evenodd" d="M4.68252 2.47105C4.68446 3.28242 5.34172 3.93968 6.15309 3.94162H7.62365V2.4707C7.62151 1.65947 6.96431 1.00243 6.15309 1.00049C5.34172 1.00243 4.68446 1.65969 4.68252 2.47105ZM7.62373 6.15312C7.62179 5.34175 6.96453 4.68449 6.15317 4.68255H2.47021C1.65885 4.68469 1.00175 5.34211 1 6.15347C1.00214 6.9647 1.65934 7.62174 2.47057 7.62368H6.15352C6.96475 7.62155 7.62179 6.96435 7.62373 6.15312Z" fill="#000001"/>
<path fill-rule="evenodd" clip-rule="evenodd" d="M9.84723 7.62373C10.6586 7.62179 11.3158 6.96453 11.3178 6.15317V2.47021C11.3157 1.65885 10.6582 1.00175 9.84687 1C9.03565 1.00214 8.3786 1.65934 8.37666 2.47057V6.15352C8.3788 6.96475 9.036 7.62179 9.84723 7.62373ZM13.5292 4.68258C12.7179 4.68452 12.0606 5.34178 12.0587 6.15314V7.62371H13.5296C14.3408 7.62157 14.9979 6.96437 14.9998 6.15314C14.9979 5.34178 14.3406 4.68452 13.5292 4.68258Z" fill="#000001"/>
<path fill-rule="evenodd" clip-rule="evenodd" d="M8.37671 9.847C8.37865 10.6584 9.03591 11.3156 9.84728 11.3176H13.5299C14.3412 11.3154 14.9983 10.658 15.0001 9.84665C14.998 9.03542 14.3407 8.37837 13.5295 8.37643H9.84692C9.0357 8.37857 8.37865 9.03577 8.37671 9.847ZM11.3178 13.5293C11.3159 12.7179 10.6586 12.0606 9.84723 12.0587H8.37666V13.5296C8.3788 14.3408 9.036 14.9979 9.84723 14.9998C10.6586 14.9979 11.3159 14.3406 11.3178 13.5293Z" fill="#000001"/>
</g>
</g>
</svg>
