<svg width="24" height="24" viewBox="0 0 24 24" fill="none" xmlns="http://www.w3.org/2000/svg">
<g id="size=24">
<g id="Group">
<path id="Shape" fill-rule="evenodd" clip-rule="evenodd" d="M4.10131 16.7396C5.26042 16.7368 6.19936 15.7979 6.20214 14.6388V14.6383V12.538H4.10081C2.9419 12.541 2.00326 13.4799 2.00049 14.6388C2.00326 15.7979 2.94221 16.7368 4.10131 16.7396ZM9.36169 12.538C8.20258 12.5408 7.26364 13.4797 7.26086 14.6388V19.8997C7.26391 21.0588 8.20309 21.9975 9.36219 22C10.5211 21.997 11.4597 21.0581 11.4625 19.8992V14.6383C11.4595 13.4794 10.5206 12.5408 9.36169 12.538Z" fill="#E01E5A"/>
<path id="Shape_2" fill-rule="evenodd" clip-rule="evenodd" d="M7.26086 4.10131C7.26364 5.26042 8.20258 6.19936 9.36169 6.20214H9.36219H11.4625V4.10081C11.4595 2.9419 10.5206 2.00326 9.36169 2.00049C8.20258 2.00326 7.26364 2.94221 7.26086 4.10131ZM11.4626 9.36168C11.4598 8.20258 10.5208 7.26363 9.36173 7.26086H9.36122H4.10032C2.94122 7.26391 2.0025 8.20308 2 9.36219C2.00305 10.5211 2.94192 11.4597 4.10083 11.4625H9.36223C10.5211 11.4595 11.4598 10.5206 11.4626 9.36168Z" fill="#36C5F0"/>
<path id="Shape_3" fill-rule="evenodd" clip-rule="evenodd" d="M14.6389 11.4626C15.798 11.4598 16.737 10.5208 16.7397 9.36173V9.36122V4.10032C16.7367 2.94122 15.7975 2.0025 14.6384 2C13.4795 2.00305 12.5409 2.94192 12.5381 4.10083V9.36223C12.5411 10.5211 13.48 11.4598 14.6389 11.4626ZM19.8993 7.26092C18.7402 7.2637 17.8013 8.20264 17.7985 9.36175V9.36225V11.4626H19.8998C21.0587 11.4595 21.9974 10.5207 22.0001 9.36175C21.9974 8.20264 21.0584 7.2637 19.8993 7.26092Z" fill="#2EB67D"/>
<path id="Shape_4" fill-rule="evenodd" clip-rule="evenodd" d="M12.5381 14.6388C12.5409 15.7979 13.4798 16.7368 14.6389 16.7396H19.8998C21.0589 16.7366 21.9976 15.7974 22.0001 14.6383C21.9971 13.4794 21.0582 12.5407 19.8993 12.538H14.6384C13.4795 12.541 12.5409 13.4799 12.5381 14.6388ZM16.7398 19.8992C16.737 18.7401 15.798 17.8011 14.6389 17.7984H14.6384H12.5381V19.8997C12.5412 21.0586 13.48 21.9972 14.6389 22C15.798 21.9972 16.737 21.0583 16.7398 19.8992Z" fill="#ECB22E"/>
</g>
</g>
</svg>
