<svg width="16" height="16" viewBox="0 0 16 16" fill="none" xmlns="http://www.w3.org/2000/svg">
<g id="size=16">
<path id="Path" d="M12.75 1C13.9926 1 15 2.00736 15 3.25V12.75C15 13.9926 13.9926 15 12.75 15H3.25C2.00736 15 1 13.9926 1 12.75V3.25C1 2.00736 2.00736 1 3.25 1H12.75ZM3.25 2.5C2.83579 2.5 2.5 2.83579 2.5 3.25V12.75C2.5 13.1642 2.83579 13.5 3.25 13.5H12.75C13.1642 13.5 13.5 13.1642 13.5 12.75V3.25C13.5 2.83579 13.1642 2.5 12.75 2.5H3.25ZM9.63379 4.32324C9.86959 3.98278 10.3362 3.89804 10.6768 4.13379C11.0173 4.36957 11.102 4.83621 10.8662 5.17676L6.36621 11.6768C6.13048 12.0172 5.66375 12.1027 5.32324 11.8672C4.98268 11.6314 4.89801 11.1638 5.13379 10.8232L9.63379 4.32324Z" fill="#000001"/>
</g>
</svg>
