<svg width="24" height="24" viewBox="0 0 24 24" fill="none" xmlns="http://www.w3.org/2000/svg">
<g id="size=24">
<g id="Path">
<path d="M14.1009 6.87435C14.3085 6.51588 14.7673 6.39352 15.1258 6.60105C15.4842 6.80859 15.6066 7.26743 15.3991 7.6259L9.89907 17.1259C9.69153 17.4844 9.23269 17.6067 8.87422 17.3992C8.51575 17.1917 8.39339 16.7328 8.60093 16.3743L14.1009 6.87435Z" fill="#000001"/>
<path fill-rule="evenodd" clip-rule="evenodd" d="M4.75 2C3.23122 2 2 3.23122 2 4.75V19.25C2 20.7688 3.23122 22 4.75 22H19.25C20.7688 22 22 20.7688 22 19.25V4.75C22 3.23122 20.7688 2 19.25 2H4.75ZM3.5 4.75C3.5 4.05964 4.05964 3.5 4.75 3.5H19.25C19.9404 3.5 20.5 4.05964 20.5 4.75V19.25C20.5 19.9404 19.9404 20.5 19.25 20.5H4.75C4.05964 20.5 3.5 19.9404 3.5 19.25V4.75Z" fill="#000001"/>
</g>
</g>
</svg>
