<svg width="24" height="24" viewBox="0 0 24 24" fill="none" xmlns="http://www.w3.org/2000/svg">
<g id="size=24">
<g id="Path">
<path d="M3.75 2.5C4.16421 2.5 4.5 2.83579 4.5 3.25V10.25C4.5 10.6642 4.16421 11 3.75 11C3.33579 11 3 10.6642 3 10.25V3.25C3 2.83579 3.33579 2.5 3.75 2.5Z" fill="#000001"/>
<path d="M3 14.5V20.75C3 21.1642 3.33579 21.5 3.75 21.5C4.16421 21.5 4.5 21.1642 4.5 20.75V14.5H6.5C6.91421 14.5 7.25 14.1642 7.25 13.75C7.25 13.3358 6.91421 13 6.5 13H1C0.585786 13 0.25 13.3358 0.25 13.75C0.25 14.1642 0.585786 14.5 1 14.5H3Z" fill="#000001"/>
<path d="M12.5 11.75C12.5 11.3358 12.1642 11 11.75 11C11.3358 11 11 11.3358 11 11.75V20.75C11 21.1642 11.3358 21.5 11.75 21.5C12.1642 21.5 12.5 21.1642 12.5 20.75V11.75Z" fill="#000001"/>
<path d="M11.75 2.5C12.1642 2.5 12.5 2.83579 12.5 3.25V7.5H14.5C14.9142 7.5 15.25 7.83579 15.25 8.25C15.25 8.66421 14.9142 9 14.5 9H9C8.58579 9 8.25 8.66421 8.25 8.25C8.25 7.83579 8.58579 7.5 9 7.5H11V3.25C11 2.83579 11.3358 2.5 11.75 2.5Z" fill="#000001"/>
<path d="M22.5 15C22.9142 15 23.25 15.3358 23.25 15.75C23.25 16.1642 22.9142 16.5 22.5 16.5H20.5V20.75C20.5 21.1642 20.1642 21.5 19.75 21.5C19.3358 21.5 19 21.1642 19 20.75V16.5H17C16.5858 16.5 16.25 16.1642 16.25 15.75C16.25 15.3358 16.5858 15 17 15H22.5Z" fill="#000001"/>
<path d="M19.75 2.5C20.1642 2.5 20.5 2.83579 20.5 3.25V12.25C20.5 12.6642 20.1642 13 19.75 13C19.3358 13 19 12.6642 19 12.25V3.25C19 2.83579 19.3358 2.5 19.75 2.5Z" fill="#000001"/>
</g>
</g>
</svg>
