<svg width="16" height="16" viewBox="0 0 16 16" fill="none" xmlns="http://www.w3.org/2000/svg">
<g id="size=16">
<path id="Path" d="M11.75 0C12.9926 0 14 1.00736 14 2.25V13.75C14 14.9926 12.9926 16 11.75 16H4.25C3.00736 16 2 14.9926 2 13.75V2.25C2 1.00736 3.00736 0 4.25 0H11.75ZM4.25 1.5C3.83579 1.5 3.5 1.83579 3.5 2.25V13.75C3.5 14.1642 3.83579 14.5 4.25 14.5H11.75C12.1642 14.5 12.5 14.1642 12.5 13.75V2.25C12.5 1.83579 12.1642 1.5 11.75 1.5H4.25ZM8.00684 12C8.55904 12.0001 9.00684 12.4478 9.00684 13C9.00684 13.5522 8.55904 13.9999 8.00684 14H8C7.44772 14 7 13.5523 7 13C7 12.4477 7.44772 12 8 12H8.00684Z" fill="#000001"/>
</g>
</svg>
