<svg width="24" height="24" viewBox="0 0 24 24" fill="none" xmlns="http://www.w3.org/2000/svg">
<g id="size=24">
<path id="Path" d="M17.25 1C18.7688 1 20 2.23122 20 3.75V20.25C20 21.7688 18.7688 23 17.25 23H6.75C5.23122 23 4 21.7688 4 20.25V3.75C4 2.23122 5.23122 1 6.75 1H17.25ZM6.75 2.5C6.05964 2.5 5.5 3.05964 5.5 3.75V20.25C5.5 20.9404 6.05964 21.5 6.75 21.5H17.25C17.9404 21.5 18.5 20.9404 18.5 20.25V3.75C18.5 3.05964 17.9404 2.5 17.25 2.5H6.75ZM12.0098 19C12.5621 19 13.0098 19.4477 13.0098 20C13.0098 20.5523 12.5621 21 12.0098 21H12C11.4477 21 11 20.5523 11 20C11 19.4477 11.4477 19 12 19H12.0098Z" fill="#000001"/>
</g>
</svg>
