<svg width="24" height="24" viewBox="0 0 24 24" fill="none" xmlns="http://www.w3.org/2000/svg">
<g id="size=24">
<path id="Path" d="M12 1C18.0751 1 23 5.92487 23 12C23 18.0751 18.0751 23 12 23C5.92487 23 1 18.0751 1 12C1 5.92487 5.92487 1 12 1ZM12 2.5C6.75329 2.5 2.5 6.75329 2.5 12C2.5 17.2467 6.75329 21.5 12 21.5C17.2467 21.5 21.5 17.2467 21.5 12C21.5 6.75329 17.2467 2.5 12 2.5ZM15.5137 13.2783C15.774 12.8727 16.314 12.7524 16.7207 13.0117C17.1282 13.2715 17.248 13.8132 16.9883 14.2207L16.8887 14.3652C16.8302 14.4471 16.7461 14.5602 16.6377 14.6934C16.4217 14.9585 16.103 15.3112 15.6895 15.665C14.8701 16.366 13.6127 17.125 12 17.125C10.387 17.125 9.12894 16.3661 8.30957 15.665C7.89608 15.3112 7.57824 14.9584 7.3623 14.6934C7.23875 14.5417 7.11713 14.3858 7.01172 14.2207C6.75195 13.8132 6.87183 13.2715 7.2793 13.0117C7.68599 12.7525 8.22596 12.8718 8.48633 13.2773C8.5579 13.385 8.63715 13.4877 8.71875 13.5879C8.88455 13.7914 9.13064 14.064 9.44727 14.335C10.0887 14.8838 10.9566 15.375 12 15.375C13.0433 15.375 13.9104 14.8837 14.5518 14.335C14.8686 14.0639 15.1154 13.7915 15.2812 13.5879C15.3627 13.4879 15.4422 13.3857 15.5137 13.2783ZM9.00977 8C9.56205 8 10.0098 8.44772 10.0098 9C10.0098 9.55229 9.56205 10 9.00977 10H9C8.44772 10 8 9.55229 8 9C8 8.44772 8.44772 8 9 8H9.00977ZM15.0098 8C15.5621 8 16.0098 8.44772 16.0098 9C16.0098 9.55229 15.5621 10 15.0098 10H15C14.4477 10 14 9.55229 14 9C14 8.44772 14.4477 8 15 8H15.0098Z" fill="#000001"/>
</g>
</svg>
