<svg width="16" height="16" viewBox="0 0 16 16" fill="none" xmlns="http://www.w3.org/2000/svg">
<g id="size=16">
<path id="Path" d="M7.99988 0C12.4181 0 15.9998 3.58167 15.9998 7.99988C15.9998 12.4181 12.4181 15.9998 7.99988 15.9998C3.58179 15.9996 0 12.418 0 7.99988C0 3.58176 3.58179 0.000148144 7.99988 0ZM7.99988 1.49998C4.41021 1.50013 1.49998 4.41017 1.49998 7.99988C1.49998 11.5896 4.41021 14.4996 7.99988 14.4998C11.5897 14.4998 14.4998 11.5897 14.4998 7.99988C14.4998 4.41008 11.5897 1.49998 7.99988 1.49998ZM9.75864 9.36119C9.97251 9.00846 10.4318 8.89397 10.786 9.10631C11.1411 9.31941 11.2559 9.78042 11.0428 10.1356L10.8309 10.4403C10.7028 10.6073 10.5132 10.8302 10.2664 11.0545C9.78158 11.4952 9.00925 11.9998 7.99988 11.9998C6.99055 11.9997 6.21813 11.4952 5.73331 11.0545C5.48654 10.8302 5.29694 10.6073 5.16887 10.4403C5.09365 10.3421 5.02076 10.2416 4.95696 10.1356C4.744 9.78049 4.85881 9.31944 5.21379 9.10631C5.5679 8.89385 6.02718 9.0085 6.24112 9.36119C6.27725 9.41879 6.31793 9.47424 6.35928 9.52817C6.44677 9.64227 6.57663 9.79472 6.74208 9.94516C7.08212 10.2542 7.50967 10.4997 7.99988 10.4998C8.49013 10.4998 8.9176 10.2542 9.25767 9.94516C9.42315 9.79472 9.55296 9.64229 9.64048 9.52817C9.68184 9.47423 9.72249 9.4188 9.75864 9.36119ZM6.00674 4.99992C6.55894 5.00002 7.00673 5.44769 7.00673 5.99991C7.00673 6.55213 6.55894 6.9998 6.00674 6.99989H5.99991C5.44776 6.99974 4.99992 6.55209 4.99992 5.99991C4.99992 5.44772 5.44776 5.00007 5.99991 4.99992H6.00674ZM10.0067 4.99992C10.5589 5.00001 11.0067 5.44769 11.0067 5.99991C11.0067 6.55213 10.5589 6.9998 10.0067 6.99989H9.99985C9.4477 6.99974 8.99986 6.55209 8.99986 5.99991C8.99986 5.44772 9.4477 5.00007 9.99985 4.99992H10.0067Z" fill="#000001"/>
</g>
</svg>
