<svg width="16" height="16" viewBox="0 0 16 16" fill="none" xmlns="http://www.w3.org/2000/svg">
<g id="size=16">
<g id="Path">
<path d="M11.6887 4.2219H4.33472C4.33472 3.75634 4.99943 2.34904 6.32886 0C6.32886 0 6.51293 1.23888 6.88107 3.71663L9.12773 3.71668L9.67918 0C11.0188 2.38018 11.6887 3.78748 11.6887 4.2219Z" fill="white"/>
<path d="M8.00035 16L3 12.456V4.1845C3 4.1845 4.84879 3.49438 8.00676 3.49438C11.1647 3.49438 13 4.1845 13 4.1845V12.456L8.00035 16Z" fill="white"/>
<path d="M8.00044 15.5019L3.31958 12.1981V4.51651C3.31958 4.51651 5.07003 3.87561 8.00044 3.87561V15.5019Z" fill="#DBDBDB"/>
<path d="M8.00662 3.87561C8.00445 3.87561 8.00261 3.87568 8.00044 3.87561L8.00024 15.4921L12.64 12.1979V4.51651C12.64 4.51651 10.937 3.87561 8.00662 3.87561Z" fill="#C6C6C6"/>
<path d="M10.533 13.6944L10.1383 10.2249H7.96899C7.96899 12.9786 7.96899 14.7403 7.96899 15.5099L8.00025 15.5398C8.84421 14.9558 9.68847 14.3407 10.533 13.6944Z" fill="#3B3B63"/>
<path d="M5.46899 13.7218L8.00025 15.5398L8.00168 10.1192H5.80934L5.46899 13.7218Z" fill="#53537A"/>
<path d="M9.08357 12.6948C9.08357 13.2909 8.5244 13.5864 8.01143 13.5864C7.49846 13.5864 6.92798 13.2909 6.92798 12.6948" fill="#BC9375"/>
<path d="M8.00588 13.0031C7.59405 13.0031 7.3938 12.7022 7.3938 12.0838H7.59016C7.59016 12.8078 7.87086 12.8078 8.00588 12.8078C8.14083 12.8078 8.42159 12.8078 8.42159 12.0838H8.61789C8.61789 12.7022 8.41763 13.0031 8.00588 13.0031Z" fill="white"/>
<path d="M8.00024 12.2348C8.12695 12.5665 8.37186 12.7323 8.73497 12.7323C9.0905 12.7323 9.46149 12.546 9.63043 12.0857C9.86641 11.4417 9.86404 10.5453 9.86404 10.5453C9.86404 10.5453 10.9127 9.23865 10.9127 8.79681C10.9127 8.79681 9.94187 8.79681 8.00024 8.79681V12.2348Z" fill="#C49A7E"/>
<path d="M5.04565 8.79681C5.04565 9.30849 6.08521 10.5453 6.08521 10.5453C6.08521 10.5453 6.08266 11.4414 6.31889 12.0857C6.48745 12.5457 6.85882 12.7323 7.21441 12.7323C7.57752 12.7323 7.83941 12.5665 8.00024 12.2348V8.79681H5.04565Z" fill="#D8B7A0"/>
<path d="M10.7877 5.85464C9.97931 5.02965 9.77714 3.30933 9.77714 3.30933C9.62621 3.8514 9.29816 5.44968 9.29816 5.44968C9.29816 5.44968 8.66099 5.24457 7.97466 5.24349C7.95213 5.24349 7.95213 7.39691 7.97466 11.7037L8.62806 11.2337L8.74953 8.95239L9.44525 9.74251L10.3415 10.0032C10.3415 10.0032 10.6768 9.76519 10.6768 9.76608C10.8192 9.5676 10.8664 9.39853 10.9008 9.31079C11.0253 8.9916 10.7458 6.55054 10.7458 6.55054C10.6466 6.3438 10.7877 5.85464 10.7877 5.85464Z" fill="#3B3B63"/>
<path d="M6.71958 5.44955C6.71958 5.44955 6.39141 3.85134 6.24061 3.3092C6.24061 3.3092 6.03856 5.02953 5.23006 5.85452C5.23006 5.85452 5.37115 6.34374 5.27192 6.55042C5.27192 6.55042 4.99243 8.9916 5.1169 9.31029C5.15128 9.39809 5.19888 9.5671 5.34105 9.76558C5.34105 9.76469 5.67658 10.0028 5.67658 10.0028L6.57262 9.74201L7.26821 8.95202L7.39 11.2333L8.00091 11.6909V5.23138C7.31203 5.23253 6.71958 5.44955 6.71958 5.44955Z" fill="#53537A"/>
<path d="M10.2219 1.71504C10.356 1.96384 11.509 4.26395 11.509 5.06049L10.9976 6.4469C11.0841 7.2292 11.2562 8.929 11.1263 9.26109C11.0461 9.4665 10.7404 9.88907 10.479 10.2313L10.8364 13.4788L10.3532 13.8252L10.0845 11.4523C10.0476 11.6931 9.99205 11.9502 9.90739 12.1811C9.79544 12.4867 9.59761 12.7183 9.34457 12.8554C9.32975 13.588 8.65096 13.9833 8.01141 13.9833C7.36656 13.9833 6.68208 13.5884 6.667 12.856C6.41346 12.7186 6.21537 12.487 6.1033 12.1811C6.02202 11.9591 5.96726 11.7133 5.93013 11.4806L5.67311 13.8688L5.18726 13.5168L5.53812 10.2412C5.27461 9.89745 4.96304 9.4686 4.88208 9.2609C4.75218 8.92874 4.91755 7.2292 5.00419 6.44677L4.4624 5.01178V4.96502C4.4624 4.16849 5.6456 1.96384 5.77991 1.71504L6.16311 1.01654C6.39642 2.63489 6.51299 3.44479 6.51282 3.44623L6.70151 4.75764L6.94975 5.16382C7.18828 5.0837 7.5932 4.97245 8.00323 4.97245C8.41371 4.97245 8.82138 5.08408 9.06093 5.16407L9.30905 4.7577L9.84662 1.01654L10.2219 1.71504ZM8.01141 13.4626C8.29448 13.4626 8.69761 13.3352 8.79825 12.9975C8.78745 12.9978 8.77703 12.9987 8.76624 12.9987C8.71116 12.9987 8.65965 12.9936 8.60969 12.9868C8.46368 13.1889 8.2362 13.2502 8.00579 13.2502C7.77576 13.2502 7.54873 13.1883 7.40298 12.9865C7.35269 12.9936 7.30061 12.9987 7.24509 12.9987C7.23448 12.9987 7.22426 12.9978 7.21384 12.9975C7.3155 13.3352 7.72406 13.4626 8.01141 13.4626ZM7.67991 12.9075C7.76771 12.973 7.8762 13.0094 8.00598 13.0094C8.13505 13.0094 8.24304 12.9727 8.33071 12.9075C8.2608 12.8766 8.19755 12.8397 8.14176 12.7995C8.09128 12.8144 8.04298 12.8141 8.00572 12.8141C7.96828 12.8141 7.91946 12.8141 7.8686 12.7992C7.81295 12.8397 7.74981 12.8766 7.67991 12.9075ZM9.69128 10.3882C10.0391 9.95845 10.5627 9.2663 10.6385 9.07259C10.6957 8.87315 10.5981 7.551 10.474 6.44283L10.4671 6.38139L10.5698 6.1061C10.2314 5.74725 9.99537 5.2555 9.8341 4.79112L9.81314 4.937L9.27895 5.81047L9.07033 5.72203C9.06521 5.71981 8.52055 5.49293 8.00355 5.49293C7.48323 5.49293 6.94739 5.71962 6.94215 5.72184L6.7332 5.81104L6.19838 4.93719L6.18253 4.82524C6.01953 5.2851 5.78323 5.76822 5.44649 6.11925L5.54451 6.38158L5.53767 6.44308C5.41346 7.551 5.31588 8.87315 5.37499 9.0776C5.44892 9.26662 5.97256 9.95876 6.32017 10.3882L6.37818 10.4599L6.37787 10.5519C6.37787 10.5605 6.37889 11.4107 6.59576 12.0023C6.7532 12.4314 7.10247 12.4773 7.24553 12.4773C7.60515 12.4773 7.75729 12.149 7.76355 12.135C7.84783 11.9701 7.88996 11.6991 7.88996 11.322H8.10739C8.10739 11.6249 8.15271 11.8965 8.24336 12.1368C8.24886 12.1487 8.40483 12.4781 8.76624 12.4781C8.90898 12.4781 9.25838 12.4317 9.41569 12.0026C9.63326 11.4089 9.63352 10.5605 9.63352 10.5522L9.63327 10.4602L9.69128 10.3882Z" fill="#333152"/>
<path d="M9.63199 8.07745H8.84669H8.58496V8.08845C8.58496 8.45212 8.90113 8.74673 9.27199 8.74673C9.64298 8.74673 9.95915 8.45205 9.95915 8.08845V8.07745H9.63199Z" fill="#333152"/>
<path d="M8.84669 8.07745L8.84668 8.08845C8.84668 8.30478 9.02176 8.48007 9.2394 8.48007C9.45703 8.48007 9.63205 8.30478 9.63205 8.08845L9.63199 8.07745H8.84669Z" fill="white"/>
<path d="M9.17659 8.07745C9.1748 8.07745 9.17327 8.07834 9.17167 8.07866C9.19448 8.08343 9.20713 8.13489 9.20221 8.16913C9.19486 8.22149 9.15001 8.25783 9.09863 8.25872C9.11358 8.32715 9.16969 8.38216 9.24419 8.39258C9.3394 8.40599 9.42739 8.34106 9.44087 8.24646C9.45058 8.17682 9.41691 8.07745 9.36061 8.07745H9.17659Z" fill="#333152"/>
<path d="M7.10458 8.07745H6.31941H6.05762V8.08845C6.05762 8.45212 6.37385 8.74673 6.74465 8.74673C7.11564 8.74673 7.43187 8.45205 7.43187 8.08845V8.07745H7.10458Z" fill="#333152"/>
<path d="M6.31941 8.07745L6.31934 8.08845C6.31934 8.30478 6.49454 8.48007 6.71186 8.48007C6.92956 8.48007 7.10458 8.30478 7.10458 8.08845L7.10458 8.07745H6.31941Z" fill="white"/>
<path d="M6.83322 8.07745H6.649C6.6474 8.07745 6.64568 8.07834 6.64421 8.07866C6.66696 8.08343 6.67954 8.13489 6.67475 8.16913C6.66734 8.22149 6.62274 8.25783 6.57104 8.25872C6.58619 8.32715 6.64229 8.38216 6.71667 8.39258C6.81181 8.40599 6.89999 8.34106 6.91328 8.24646C6.92312 8.17682 6.88951 8.07745 6.83322 8.07745Z" fill="#333152"/>
<path d="M9.55295 7.76705C9.59691 7.71914 9.97014 7.29803 9.47097 7.29803C9.01992 7.29803 8.69538 7.65993 8.60938 7.76705H9.55295Z" fill="#C49A7E"/>
<path d="M7.39997 7.76705C7.31402 7.65993 6.98949 7.29803 6.53831 7.29803C6.03939 7.29803 6.41262 7.71914 6.45633 7.76705H7.39997Z" fill="#D8B7A0"/>
<path d="M5.00024 4.92267C5.02989 4.5095 5.46216 3.51957 5.87449 2.6853L5.9844 3.4481C5.94248 3.7333 5.75092 4.85183 5.23705 5.55687L5.00024 4.92267Z" fill="#D8B7A0"/>
<path d="M10.0359 3.38869L10.1372 2.68536C10.5494 3.51957 10.982 4.50957 11.0116 4.92273L10.7804 5.54187C10.2252 4.76574 10.051 3.50401 10.0359 3.38869Z" fill="#C49A7E"/>
<path d="M7.62079 11.7853C7.42715 11.6392 7.22852 11.4549 7.22852 11.3135C7.22852 11.2206 7.39369 10.9343 7.39369 10.9343H8.62193C8.62193 10.9343 8.78302 11.1881 8.78302 11.3135C8.78302 11.4452 8.58253 11.6244 8.38246 11.7705C8.31436 11.6539 8.22772 11.6337 8.18769 11.7256C8.16702 11.7732 8.16295 11.8418 8.17305 11.9135C8.0641 11.9835 7.98449 12.0286 7.98449 12.0286C7.98449 12.0286 7.923 11.9929 7.8351 11.9354C7.84927 11.8559 7.84655 11.778 7.82372 11.7256C7.78334 11.6324 7.69497 11.6545 7.62634 11.7753C7.62446 11.7786 7.6226 11.7819 7.62079 11.7853Z" fill="white"/>
<path d="M7.62079 11.7853C7.42715 11.6392 7.22852 11.4549 7.22852 11.3135C7.22852 11.2206 7.39369 10.9343 7.39369 10.9343H8.62193C8.62193 10.9343 8.78302 11.1881 8.78302 11.3135C8.78302 11.4452 8.58253 11.6244 8.38246 11.7705C8.31436 11.6539 8.22772 11.6337 8.18769 11.7256C8.16702 11.7732 8.16295 11.8418 8.17305 11.9135C8.0641 11.9835 7.98449 12.0286 7.98449 12.0286C7.98449 12.0286 7.923 11.9929 7.8351 11.9354C7.84927 11.8559 7.84655 11.778 7.82372 11.7256C7.78334 11.6324 7.69497 11.6545 7.62634 11.7753C7.62446 11.7786 7.6226 11.7819 7.62079 11.7853Z" fill="#333152"/>
</g>
</g>
</svg>
