<svg width="24" height="24" viewBox="0 0 24 24" fill="none" xmlns="http://www.w3.org/2000/svg">
<g id="size=24">
<g id="Group">
<path id="shield-outline-ears" d="M17.1639 6.80511H6.86841C6.86841 6.16496 7.79901 4.22992 9.66021 1C9.66021 1 9.91791 2.70345 10.4333 6.11036L13.5786 6.11044L14.3507 1C16.2262 4.27275 17.1639 6.20779 17.1639 6.80511Z" fill="white"/>
<path id="shield-outline" d="M12.0005 23L5 18.127V6.75372C5 6.75372 7.5883 5.80481 12.0095 5.80481C16.4306 5.80481 19 6.75372 19 6.75372V18.127L12.0005 23Z" fill="white"/>
<path id="shield-left" d="M12.0005 22.3151L5.44727 17.7724V7.21022C5.44727 7.21022 7.89789 6.32898 12.0005 6.32898V22.3151Z" fill="#DBDBDB"/>
<path id="shield-right" d="M12.0094 6.32898C12.0064 6.32898 12.0035 6.32907 12.0005 6.32898V22.3016H12.0006L18.4962 17.7722V7.21022C18.4962 7.21022 16.112 6.32898 12.0094 6.32898Z" fill="#C6C6C6"/>
<path id="neck-right" d="M15.5464 19.8298L14.9938 15.0592H11.9568C11.9568 18.8456 11.9568 21.268 11.9568 22.3262L12.0005 22.3672C13.1821 21.5642 14.3641 20.7184 15.5464 19.8298Z" fill="#3B3B63"/>
<path id="neck-left" d="M8.45654 19.8675L12.0005 22.3672L12.0023 14.9139H8.93302L8.45654 19.8675Z" fill="#53537A"/>
<path id="chin" d="M13.5171 18.4553C13.5171 19.2749 12.7343 19.6812 12.0161 19.6812C11.2979 19.6812 10.4993 19.2749 10.4993 18.4553" fill="#BC9375"/>
<path id="teeth" d="M12.008 18.8792C11.4315 18.8792 11.1511 18.4656 11.1511 17.6152H11.426C11.426 18.6108 11.819 18.6108 12.008 18.6108C12.197 18.6108 12.59 18.6108 12.59 17.6152H12.8648C12.8648 18.4656 12.5845 18.8792 12.008 18.8792Z" fill="white"/>
<path id="face-right" d="M12.0005 17.8228C12.1779 18.2789 12.5207 18.5069 13.0291 18.5069C13.5268 18.5069 14.0462 18.2508 14.2828 17.6178C14.6131 16.7323 14.6098 15.4998 14.6098 15.4998C14.6098 15.4998 16.0779 13.7031 16.0779 13.0956C16.0779 13.0956 14.7188 13.0956 12.0005 13.0956V17.8228Z" fill="#C49A7E"/>
<path id="face-left" d="M7.86401 13.0956C7.86401 13.7991 9.3194 15.4998 9.3194 15.4998C9.3194 15.4998 9.31582 16.7319 9.64654 17.6178C9.88253 18.2503 10.4024 18.5069 10.9003 18.5069C11.4086 18.5069 11.7754 18.2789 12.0006 17.8228V13.0956H7.86401Z" fill="#D8B7A0"/>
<path id="brow-right" d="M15.9026 9.05011C14.7708 7.91574 14.4878 5.55029 14.4878 5.55029C14.2765 6.29565 13.8172 8.49327 13.8172 8.49327C13.8172 8.49327 12.9252 8.21125 11.9643 8.20977C11.9328 8.20977 11.9328 11.1707 11.9643 17.0926L12.8791 16.4463L13.0491 13.3095L14.0232 14.3959L15.2779 14.7544C15.2779 14.7544 15.7473 14.4271 15.7473 14.4283C15.9467 14.1554 16.0128 13.923 16.061 13.8023C16.2352 13.3634 15.844 10.007 15.844 10.007C15.705 9.72269 15.9026 9.05011 15.9026 9.05011Z" fill="#3B3B63"/>
<path id="brow-left" d="M10.2077 8.49315C10.2077 8.49315 9.74821 6.29561 9.53709 5.55017C9.53709 5.55017 9.25423 7.91561 8.12233 9.04998C8.12233 9.04998 8.31985 9.72265 8.18093 10.0068C8.18093 10.0068 7.78964 13.3635 7.96391 13.8017C8.01203 13.9224 8.07868 14.1548 8.27772 14.4277C8.27772 14.4265 8.74746 14.7538 8.74746 14.7538L10.0019 14.3953L10.9757 13.309L11.1462 16.4458L12.0015 17.075V8.19317C11.0371 8.19474 10.2077 8.49315 10.2077 8.49315Z" fill="#53537A"/>
<path id="face-outline" d="M15.1106 3.35814C15.2984 3.70024 16.9126 6.8629 16.9126 7.95813L16.1967 9.86444C16.3178 10.9401 16.5587 13.2773 16.3768 13.734C16.2646 14.0164 15.8366 14.5974 15.4705 15.0679L15.971 19.5333L15.2945 20.0095L14.9183 16.7468C14.8666 17.0779 14.7889 17.4315 14.6703 17.7489C14.5136 18.1691 14.2367 18.4876 13.8824 18.6762C13.8616 19.6835 12.9113 20.227 12.016 20.227C11.1132 20.227 10.1549 19.684 10.1338 18.677C9.77884 18.488 9.50152 18.1696 9.34462 17.7489C9.23083 17.4437 9.15416 17.1058 9.10219 16.7858L8.74236 20.0695L8.06216 19.5855L8.55337 15.0816C8.18445 14.609 7.74826 14.0193 7.63492 13.7337C7.45305 13.277 7.68456 10.9401 7.80587 9.86427L7.04736 7.89116V7.82686C7.04736 6.73163 8.70384 3.70024 8.89187 3.35814L9.42835 2.39771C9.75498 4.62294 9.91818 5.73654 9.91794 5.73852L10.1821 7.54172L10.5297 8.10021C10.8636 7.99005 11.4305 7.83708 12.0045 7.83708C12.5792 7.83708 13.1499 7.99057 13.4853 8.10056L13.8327 7.54181L14.5853 2.39771L15.1106 3.35814ZM12.016 19.511C12.4123 19.511 12.9767 19.3358 13.1175 18.8715C13.1024 18.8719 13.0878 18.8732 13.0727 18.8732C12.9956 18.8732 12.9235 18.8661 12.8536 18.8567C12.6492 19.1346 12.3307 19.2189 12.0081 19.2189C11.6861 19.2189 11.3682 19.1339 11.1642 18.8564C11.0938 18.8662 11.0209 18.8732 10.9431 18.8732C10.9283 18.8732 10.914 18.8719 10.8994 18.8715C11.0417 19.3358 11.6137 19.511 12.016 19.511ZM11.5519 18.7478C11.6748 18.8378 11.8267 18.8878 12.0084 18.8878C12.1891 18.8878 12.3403 18.8374 12.463 18.7478C12.3651 18.7053 12.2766 18.6546 12.1985 18.5993C12.1278 18.6197 12.0602 18.6193 12.008 18.6193C11.9556 18.6193 11.8872 18.6193 11.816 18.5989C11.7381 18.6546 11.6497 18.7053 11.5519 18.7478ZM14.3678 15.2837C14.8547 14.6928 15.5877 13.7411 15.6939 13.4748C15.774 13.2005 15.6374 11.3826 15.4636 9.85885L15.454 9.77437L15.5977 9.39584C15.124 8.90244 14.7935 8.22627 14.5677 7.58776L14.5384 7.78834L13.7905 8.98936L13.4985 8.86775C13.4913 8.8647 12.7288 8.55273 12.005 8.55273C11.2765 8.55273 10.5263 8.86443 10.519 8.86749L10.2265 8.99015L9.47773 7.7886L9.45554 7.63467C9.22734 8.26698 8.89653 8.93127 8.42509 9.41393L8.56232 9.77464L8.55274 9.8592C8.37884 11.3826 8.24224 13.2005 8.32499 13.4817C8.42849 13.7416 9.16159 14.6933 9.64823 15.2837L9.72946 15.3824L9.72901 15.5088C9.72901 15.5206 9.73044 16.6896 10.0341 17.5031C10.2545 18.0931 10.7435 18.1562 10.9437 18.1562C11.4472 18.1562 11.6602 17.7048 11.669 17.6856C11.787 17.4588 11.8459 17.0862 11.8459 16.5677H12.1503C12.1503 16.9842 12.2138 17.3577 12.3407 17.688C12.3484 17.7044 12.5668 18.1573 13.0727 18.1573C13.2726 18.1573 13.7617 18.0936 13.982 17.5035C14.2866 16.6872 14.2869 15.5206 14.2869 15.5092L14.2866 15.3828L14.3678 15.2837Z" fill="#333152"/>
<path id="eye-shadow-right" d="M14.2849 12.1064H13.1855H12.8191V12.1216C12.8191 12.6216 13.2617 13.0267 13.7809 13.0267C14.3003 13.0267 14.743 12.6215 14.743 12.1216V12.1064H14.2849Z" fill="#333152"/>
<path id="eye-right" d="M13.1853 12.1064V12.1216C13.1853 12.419 13.4304 12.66 13.7351 12.66C14.0398 12.66 14.2848 12.419 14.2848 12.1216V12.1064H13.1853Z" fill="white"/>
<path id="eye-pupil-right" d="M13.6472 12.1064C13.6447 12.1064 13.6426 12.1077 13.6403 12.1081C13.6723 12.1147 13.69 12.1854 13.6831 12.2325C13.6728 12.3045 13.61 12.3545 13.5381 12.3557C13.559 12.4498 13.6376 12.5254 13.7419 12.5398C13.8752 12.5582 13.9983 12.4689 14.0172 12.3388C14.0308 12.2431 13.9837 12.1064 13.9049 12.1064H13.6472Z" fill="#333152"/>
<path id="eye-shadow-left" d="M10.7463 12.1064H9.64702H9.28052V12.1216C9.28052 12.6216 9.72324 13.0267 10.2424 13.0267C10.7617 13.0267 11.2045 12.6215 11.2045 12.1216V12.1064H10.7463Z" fill="#333152"/>
<path id="eye-left" d="M9.64697 12.1064V12.1216C9.64697 12.419 9.89226 12.66 10.1965 12.66C10.5013 12.66 10.7463 12.419 10.7463 12.1216V12.1064H9.64697Z" fill="white"/>
<path id="eye-pupil-left" d="M10.3666 12.1064H10.1086C10.1064 12.1064 10.104 12.1077 10.1019 12.1081C10.1338 12.1147 10.1514 12.1854 10.1447 12.2325C10.1343 12.3045 10.0719 12.3545 9.99951 12.3557C10.0207 12.4498 10.0993 12.5254 10.2034 12.5398C10.3366 12.5582 10.46 12.4689 10.4786 12.3388C10.4924 12.2431 10.4454 12.1064 10.3666 12.1064Z" fill="#333152"/>
<path id="brow-right_2" d="M14.1743 11.6797C14.2358 11.6138 14.7583 11.0348 14.0595 11.0348C13.428 11.0348 12.9737 11.5324 12.8533 11.6797H14.1743Z" fill="#C49A7E"/>
<path id="brow-left_2" d="M11.16 11.6797C11.0396 11.5324 10.5853 11.0348 9.95363 11.0348C9.25515 11.0348 9.77767 11.6138 9.83886 11.6797H11.16Z" fill="#D8B7A0"/>
<path id="ear-left" d="M7.80029 7.76864C7.8418 7.20054 8.44698 5.83938 9.02424 4.69226L9.17811 5.7411C9.11942 6.13326 8.85123 7.67123 8.13182 8.64067L7.80029 7.76864Z" fill="#D8B7A0"/>
<path id="ear-right" d="M14.8501 5.65946L14.9919 4.69238C15.5691 5.83942 16.1746 7.20066 16.2161 7.76876L15.8924 8.62008C15.1151 7.5529 14.8712 5.81802 14.8501 5.65946Z" fill="#C49A7E"/>
<path id="Vector" d="M11.4691 17.2048C11.198 17.0039 10.9199 16.7505 10.9199 16.556C10.9199 16.4283 11.1512 16.0347 11.1512 16.0347H12.8707C12.8707 16.0347 13.0962 16.3837 13.0962 16.556C13.0962 16.7371 12.8155 16.9836 12.5354 17.1844C12.4401 17.0241 12.3188 16.9963 12.2628 17.1226C12.2338 17.1881 12.2281 17.2824 12.2423 17.381C12.0897 17.4773 11.9783 17.5393 11.9783 17.5393C11.9783 17.5393 11.8922 17.4901 11.7691 17.4111C11.789 17.3018 11.7852 17.1947 11.7532 17.1226C11.6967 16.9946 11.573 17.0249 11.4769 17.191C11.4742 17.1955 11.4716 17.2001 11.4691 17.2048Z" fill="white"/>
<path id="nose" d="M11.4691 17.2048C11.198 17.0039 10.9199 16.7505 10.9199 16.556C10.9199 16.4283 11.1512 16.0347 11.1512 16.0347H12.8707C12.8707 16.0347 13.0962 16.3837 13.0962 16.556C13.0962 16.7371 12.8155 16.9836 12.5354 17.1844C12.4401 17.0241 12.3188 16.9963 12.2628 17.1226C12.2338 17.1881 12.2281 17.2824 12.2423 17.381C12.0897 17.4773 11.9783 17.5393 11.9783 17.5393C11.9783 17.5393 11.8922 17.4901 11.7691 17.4111C11.789 17.3018 11.7852 17.1947 11.7532 17.1226C11.6967 16.9946 11.573 17.0249 11.4769 17.191C11.4742 17.1955 11.4716 17.2001 11.4691 17.2048Z" fill="#333152"/>
</g>
</g>
</svg>
