<svg width="24" height="24" viewBox="0 0 24 24" fill="none" xmlns="http://www.w3.org/2000/svg">
<g id="size=24">
<g id="Path">
<path d="M17.1639 6.80511H6.86841C6.86841 6.16496 7.79901 4.22992 9.66021 1C9.66021 1 9.91791 2.70345 10.4333 6.11036L13.5786 6.11044L14.3507 1C16.2262 4.27275 17.1639 6.20779 17.1639 6.80511Z" fill="white"/>
<path d="M12.0005 23L5 18.127V6.75372C5 6.75372 7.5883 5.80481 12.0095 5.80481C16.4306 5.80481 19 6.75372 19 6.75372V18.127L12.0005 23Z" fill="white"/>
<path d="M12.0005 22.3151L5.44727 17.7724V7.21022C5.44727 7.21022 7.89789 6.32898 12.0005 6.32898V22.3151Z" fill="#DBDBDB"/>
<path d="M12.0094 6.32898C12.0064 6.32898 12.0035 6.32907 12.0005 6.32898L12.0005 22.3016L18.4962 17.7722V7.21022C18.4962 7.21022 16.112 6.32898 12.0094 6.32898Z" fill="#C6C6C6"/>
<path d="M15.5464 19.8298L14.9938 15.0592H11.9568C11.9568 18.8456 11.9568 21.268 11.9568 22.3262L12.0005 22.3672C13.1821 21.5642 14.3641 20.7184 15.5464 19.8298Z" fill="#3B3B63"/>
<path d="M8.45654 19.8675L12.0005 22.3672L12.0023 14.9139H8.93302L8.45654 19.8675Z" fill="#53537A"/>
<path d="M13.5171 18.4554C13.5171 19.275 12.7343 19.6813 12.0161 19.6813C11.2979 19.6813 10.4993 19.275 10.4993 18.4554" fill="#BC9375"/>
<path d="M12.008 18.8792C11.4315 18.8792 11.1511 18.4656 11.1511 17.6152H11.426C11.426 18.6108 11.819 18.6108 12.008 18.6108C12.197 18.6108 12.59 18.6108 12.59 17.6152H12.8648C12.8648 18.4656 12.5845 18.8792 12.008 18.8792Z" fill="white"/>
<path d="M12.0005 17.8228C12.1779 18.2789 12.5207 18.5069 13.0291 18.5069C13.5268 18.5069 14.0462 18.2508 14.2828 17.6178C14.6131 16.7323 14.6098 15.4998 14.6098 15.4998C14.6098 15.4998 16.0779 13.7031 16.0779 13.0956C16.0779 13.0956 14.7188 13.0956 12.0005 13.0956V17.8228Z" fill="#C49A7E"/>
<path d="M7.86401 13.0956C7.86401 13.7991 9.3194 15.4998 9.3194 15.4998C9.3194 15.4998 9.31582 16.7319 9.64654 17.6178C9.88253 18.2503 10.4024 18.5069 10.9003 18.5069C11.4086 18.5069 11.7753 18.2789 12.0005 17.8228V13.0956H7.86401Z" fill="#D8B7A0"/>
<path d="M15.9026 9.05011C14.7708 7.91574 14.4878 5.55029 14.4878 5.55029C14.2765 6.29565 13.8172 8.49327 13.8172 8.49327C13.8172 8.49327 12.9252 8.21125 11.9643 8.20977C11.9328 8.20977 11.9328 11.1707 11.9643 17.0926L12.8791 16.4463L13.0491 13.3095L14.0232 14.3959L15.2779 14.7544C15.2779 14.7544 15.7473 14.4271 15.7473 14.4283C15.9467 14.1554 16.0128 13.923 16.061 13.8023C16.2352 13.3634 15.844 10.007 15.844 10.007C15.705 9.72269 15.9026 9.05011 15.9026 9.05011Z" fill="#3B3B63"/>
<path d="M10.2077 8.49315C10.2077 8.49315 9.74821 6.29561 9.53709 5.55017C9.53709 5.55017 9.25423 7.91562 8.12233 9.04998C8.12233 9.04998 8.31985 9.72265 8.18093 10.0068C8.18093 10.0068 7.78964 13.3635 7.96391 13.8017C8.01203 13.9224 8.07868 14.1548 8.27772 14.4277C8.27772 14.4265 8.74746 14.7538 8.74746 14.7538L10.0019 14.3953L10.9757 13.309L11.1462 16.4458L12.0015 17.075V8.19317C11.0371 8.19474 10.2077 8.49315 10.2077 8.49315Z" fill="#53537A"/>
<path d="M15.1106 3.3582C15.2984 3.7003 16.9126 6.86296 16.9126 7.95819L16.1967 9.8645C16.3178 10.9402 16.5587 13.2774 16.3768 13.734C16.2646 14.0165 15.8366 14.5975 15.4705 15.068L15.971 19.5334L15.2945 20.0096L14.9183 16.7469C14.8666 17.078 14.7889 17.4315 14.6703 17.749C14.5136 18.1692 14.2367 18.4876 13.8824 18.6762C13.8617 19.6836 12.9113 20.227 12.016 20.227C11.1132 20.227 10.1549 19.684 10.1338 18.677C9.77884 18.4881 9.50152 18.1696 9.34462 17.749C9.23083 17.4438 9.15416 17.1059 9.10219 16.7859L8.74236 20.0696L8.06216 19.5856L8.55337 15.0816C8.18445 14.609 7.74826 14.0193 7.63492 13.7338C7.45305 13.277 7.68456 10.9402 7.80587 9.86433L7.04736 7.89122V7.82692C7.04736 6.73169 8.70384 3.7003 8.89187 3.3582L9.42835 2.39777C9.75498 4.623 9.91818 5.7366 9.91794 5.73858L10.1821 7.54178L10.5297 8.10027C10.8636 7.99011 11.4305 7.83714 12.0045 7.83714C12.5792 7.83714 13.1499 7.99063 13.4853 8.10062L13.8327 7.54187L14.5853 2.39777L15.1106 3.3582ZM12.016 19.511C12.4123 19.511 12.9767 19.3359 13.1175 18.8716C13.1024 18.872 13.0878 18.8732 13.0727 18.8732C12.9956 18.8732 12.9235 18.8662 12.8536 18.8568C12.6492 19.1347 12.3307 19.219 12.0081 19.219C11.6861 19.219 11.3682 19.1339 11.1642 18.8565C11.0938 18.8662 11.0209 18.8732 10.9431 18.8732C10.9283 18.8732 10.914 18.872 10.8994 18.8716C11.0417 19.3359 11.6137 19.511 12.016 19.511ZM11.5519 18.7479C11.6748 18.8379 11.8267 18.8879 12.0084 18.8879C12.1891 18.8879 12.3403 18.8375 12.463 18.7479C12.3651 18.7053 12.2766 18.6547 12.1985 18.5994C12.1278 18.6198 12.0602 18.6194 12.008 18.6194C11.9556 18.6194 11.8872 18.6194 11.816 18.5989C11.7381 18.6547 11.6497 18.7053 11.5519 18.7479ZM14.3678 15.2838C14.8547 14.6929 15.5877 13.7412 15.6939 13.4748C15.774 13.2006 15.6374 11.3826 15.4636 9.85891L15.454 9.77444L15.5977 9.39591C15.124 8.9025 14.7935 8.22633 14.5677 7.58782L14.5384 7.7884L13.7905 8.98942L13.4985 8.86782C13.4913 8.86476 12.7288 8.5528 12.005 8.5528C11.2765 8.5528 10.5263 8.8645 10.519 8.86755L10.2265 8.99021L9.47773 7.78866L9.45554 7.63473C9.22734 8.26704 8.89653 8.93133 8.42509 9.41399L8.56232 9.7747L8.55274 9.85926C8.37884 11.3826 8.24224 13.2006 8.32499 13.4817C8.42849 13.7416 9.16159 14.6933 9.64823 15.2838L9.72946 15.3824L9.72901 15.5088C9.72901 15.5207 9.73044 16.6897 10.0341 17.5032C10.2545 18.0932 10.7435 18.1563 10.9437 18.1563C11.4472 18.1563 11.6602 17.7049 11.669 17.6857C11.787 17.4589 11.8459 17.0862 11.8459 16.5678H12.1503C12.1503 16.9843 12.2138 17.3577 12.3407 17.6881C12.3484 17.7044 12.5668 18.1574 13.0727 18.1574C13.2726 18.1574 13.7617 18.0936 13.982 17.5036C14.2866 16.6872 14.2869 15.5207 14.2869 15.5093L14.2866 15.3829L14.3678 15.2838Z" fill="#333152"/>
<path d="M14.2849 12.1065H13.1855H12.8191V12.1216C12.8191 12.6217 13.2617 13.0268 13.7809 13.0268C14.3003 13.0268 14.743 12.6216 14.743 12.1216V12.1065H14.2849Z" fill="#333152"/>
<path d="M13.1855 12.1065L13.1853 12.1216C13.1853 12.4191 13.4304 12.6601 13.7351 12.6601C14.0398 12.6601 14.2848 12.4191 14.2848 12.1216L14.2849 12.1065H13.1855Z" fill="white"/>
<path d="M13.6472 12.1065C13.6447 12.1065 13.6426 12.1077 13.6403 12.1082C13.6723 12.1147 13.69 12.1855 13.6831 12.2326C13.6728 12.3046 13.61 12.3545 13.5381 12.3557C13.559 12.4498 13.6376 12.5255 13.7419 12.5398C13.8752 12.5582 13.9983 12.469 14.0172 12.3389C14.0308 12.2431 13.9837 12.1065 13.9049 12.1065H13.6472Z" fill="#333152"/>
<path d="M10.7463 12.1065H9.64702H9.28052V12.1216C9.28052 12.6217 9.72324 13.0268 10.2424 13.0268C10.7617 13.0268 11.2045 12.6216 11.2045 12.1216V12.1065H10.7463Z" fill="#333152"/>
<path d="M9.64702 12.1065L9.64697 12.1216C9.64697 12.4191 9.89226 12.6601 10.1965 12.6601C10.5013 12.6601 10.7463 12.4191 10.7463 12.1216L10.7463 12.1065H9.64702Z" fill="white"/>
<path d="M10.3666 12.1065H10.1086C10.1064 12.1065 10.104 12.1077 10.1019 12.1082C10.1338 12.1147 10.1514 12.1855 10.1447 12.2326C10.1343 12.3046 10.0719 12.3545 9.99951 12.3557C10.0207 12.4498 10.0993 12.5255 10.2034 12.5398C10.3366 12.5582 10.46 12.469 10.4786 12.3389C10.4924 12.2431 10.4454 12.1065 10.3666 12.1065Z" fill="#333152"/>
<path d="M14.1743 11.6797C14.2358 11.6138 14.7583 11.0348 14.0595 11.0348C13.428 11.0348 12.9737 11.5324 12.8533 11.6797H14.1743Z" fill="#C49A7E"/>
<path d="M11.16 11.6797C11.0396 11.5324 10.5853 11.0348 9.95363 11.0348C9.25515 11.0348 9.77767 11.6138 9.83886 11.6797H11.16Z" fill="#D8B7A0"/>
<path d="M7.80029 7.76864C7.8418 7.20054 8.44698 5.83938 9.02424 4.69226L9.17811 5.7411C9.11942 6.13326 8.85123 7.67123 8.13182 8.64067L7.80029 7.76864Z" fill="#D8B7A0"/>
<path d="M14.8501 5.65946L14.9919 4.69238C15.5691 5.83942 16.1746 7.20066 16.2161 7.76876L15.8924 8.62008C15.1151 7.5529 14.8712 5.81802 14.8501 5.65946Z" fill="#C49A7E"/>
<path d="M11.4691 17.2048C11.198 17.0039 10.9199 16.7505 10.9199 16.556C10.9199 16.4283 11.1512 16.0347 11.1512 16.0347H12.8707C12.8707 16.0347 13.0962 16.3837 13.0962 16.556C13.0962 16.7371 12.8155 16.9836 12.5354 17.1844C12.4401 17.0241 12.3188 16.9963 12.2628 17.1226C12.2338 17.1881 12.2281 17.2824 12.2423 17.381C12.0897 17.4773 11.9783 17.5393 11.9783 17.5393C11.9783 17.5393 11.8922 17.4901 11.7691 17.4111C11.789 17.3018 11.7852 17.1947 11.7532 17.1226C11.6967 16.9946 11.573 17.0249 11.4769 17.191C11.4742 17.1955 11.4716 17.2001 11.4691 17.2048Z" fill="white"/>
<path d="M11.4691 17.2048C11.198 17.0039 10.9199 16.7505 10.9199 16.556C10.9199 16.4283 11.1512 16.0347 11.1512 16.0347H12.8707C12.8707 16.0347 13.0962 16.3837 13.0962 16.556C13.0962 16.7371 12.8155 16.9836 12.5354 17.1844C12.4401 17.0241 12.3188 16.9963 12.2628 17.1226C12.2338 17.1881 12.2281 17.2824 12.2423 17.381C12.0897 17.4773 11.9783 17.5393 11.9783 17.5393C11.9783 17.5393 11.8922 17.4901 11.7691 17.4111C11.789 17.3018 11.7852 17.1947 11.7532 17.1226C11.6967 16.9946 11.573 17.0249 11.4769 17.191C11.4742 17.1955 11.4716 17.2001 11.4691 17.2048Z" fill="#333152"/>
</g>
</g>
</svg>
