<svg width="24" height="24" viewBox="0 0 24 24" fill="none" xmlns="http://www.w3.org/2000/svg">
<g id="size=24">
<g id="Union">
<path fill-rule="evenodd" clip-rule="evenodd" d="M16.1107 9.48936C16.349 11.6659 16.4186 13.1527 16.2974 13.4672C16.1892 13.7472 15.7624 14.3437 15.4014 14.822L15.9241 19.6967L11.9985 22.5348L8.99204 20.361L9.31973 17.3044C9.14219 16.6311 9.0984 15.8967 9.08797 15.5449L8.60214 20.079L8.08194 19.7033L8.60386 14.8328C8.24162 14.3529 7.80901 13.7492 7.70011 13.467C7.5787 13.1524 7.64852 11.666 7.88681 9.48945L7.89044 9.45631L7.12769 7.3868V7.3449C7.12769 6.44175 8.28686 4.02575 8.97191 2.7407L9.30604 2.11337L10.0142 7.09491L10.4396 7.79921L10.5449 7.76305C10.9042 7.64089 11.4471 7.49554 11.9954 7.49554C12.5737 7.49554 13.1563 7.66363 13.4524 7.76369L13.5581 7.79939L13.9832 7.09482L14.6913 2.11328L15.0255 2.74061C15.7106 4.02566 16.8696 6.44184 16.8696 7.3448V7.38671L16.1072 9.45622L16.1107 9.48936ZM16.2683 7.28382C16.2262 6.68981 15.6125 5.26699 15.0277 4.06857L14.8842 5.07936C14.9052 5.24507 15.1526 7.05803 15.9405 8.17354L16.2683 7.28382ZM14.1961 11.3797C14.2581 11.3114 14.7877 10.706 14.0798 10.706C13.4397 10.706 12.9789 11.2263 12.8569 11.3797H14.1961ZM13.551 12.0848C13.624 12.0838 13.6876 12.0296 13.6979 11.9546C13.7047 11.9051 13.6869 11.8587 13.6546 11.826C13.6559 11.8252 13.6571 11.8242 13.6583 11.8231C13.6593 11.8222 13.6603 11.8214 13.6614 11.8206H13.2302V11.8418C13.2302 12.1528 13.4804 12.4049 13.7892 12.4049C14.0979 12.4049 14.3481 12.1527 14.3481 11.8418V11.8206H13.923C14.0029 11.8711 14.0504 11.9652 14.0364 12.0652C14.0177 12.2016 13.8926 12.2969 13.7573 12.2776C13.6523 12.2626 13.5726 12.1834 13.551 12.0848ZM12.5867 18.6595C12.4968 18.6251 12.4106 18.5813 12.3287 18.5269C12.2137 18.6229 12.0853 18.6235 11.9988 18.6235C11.9127 18.6235 11.7842 18.6218 11.6692 18.526C11.5872 18.5806 11.5008 18.6246 11.4108 18.659C11.5523 18.8218 11.7469 18.9041 11.9987 18.9041C12.2505 18.9041 12.4452 18.822 12.5867 18.6595ZM9.97023 12.0848C10.0431 12.0838 10.1066 12.0296 10.1169 11.9546C10.124 11.9051 10.1061 11.8587 10.0736 11.826C10.0747 11.8253 10.0757 11.8244 10.0768 11.8235C10.078 11.8225 10.0792 11.8214 10.0804 11.8206H9.64906V11.8418C9.64906 12.1528 9.89968 12.4049 10.2082 12.4049C10.5169 12.4049 10.7673 12.1527 10.7673 11.8418V11.8206H10.3423C10.4219 11.8711 10.4692 11.9652 10.4556 12.0652C10.4365 12.2016 10.3116 12.2969 10.1764 12.2776C10.0713 12.2626 9.9919 12.1834 9.97023 12.0848ZM9.918 10.706C9.20984 10.706 9.73928 11.3113 9.80167 11.3797H11.1407C11.0184 11.2263 10.5581 10.706 9.918 10.706ZM8.97862 4.06857C8.39368 5.26708 7.78027 6.68981 7.73801 7.28382L8.07405 8.19509C8.80325 7.18156 9.07528 5.57449 9.13449 5.16464L8.97862 4.06857ZM9.54959 15.3731C9.54959 15.4244 9.55322 16.6383 9.86713 17.5057C10.1206 18.2056 10.6877 18.281 10.92 18.2812C11.5205 18.2812 11.7644 17.731 11.7746 17.7077L11.775 17.4289L11.7709 17.4265C11.7709 17.4265 11.7814 17.1913 11.7477 17.1126C11.6878 16.9732 11.557 17.0061 11.4553 17.1875C11.4528 17.1917 11.451 17.1965 11.4492 17.2012C11.4478 17.2051 11.4463 17.209 11.4445 17.2127C11.1574 17.0039 10.8661 16.7436 10.8661 16.5436C10.8661 16.3597 11.0936 16.0379 11.103 16.0251L10.948 13.0831L9.96071 14.2184L9.33089 14.4037C8.92748 13.8717 8.55952 13.3506 8.48644 13.1808C8.43376 12.9361 8.52398 11.329 8.72718 9.49439L8.74295 9.35068L8.63424 9.05541C8.9341 8.71011 9.19968 8.2705 9.42736 7.74278L10.0993 8.85546L10.5806 8.64675C10.588 8.64346 11.3103 8.33688 11.9954 8.33688H11.9988V7.96291H11.9956C11.2251 7.96291 10.4477 8.29753 10.4345 8.30323L10.249 8.38326L9.56818 7.25597L9.4688 6.55725L9.28002 7.09692C9.00818 7.87417 8.66715 8.48314 8.26637 8.90604L8.20653 8.96959L8.36412 9.39724L8.35813 9.45284C8.21532 10.7435 8.02735 12.9272 8.13181 13.2929L8.13589 13.305C8.25331 13.6092 9.03384 14.6446 9.49845 15.2255L9.54986 15.2901L9.54959 15.3731ZM10.8472 18.7456C10.9122 19.3373 11.5618 19.5558 12.0067 19.5558C12.4455 19.5558 13.0862 19.3373 13.1503 18.7455C13.1262 18.7468 13.1025 18.7485 13.0778 18.7485C13.0265 18.7485 12.9759 18.7454 12.9265 18.7402C12.7284 19.126 12.3666 19.2502 11.9987 19.2502C11.6305 19.2502 11.2674 19.1273 11.069 18.7405C11.0201 18.7456 10.9705 18.7486 10.92 18.7486C10.9005 18.7486 10.8818 18.7475 10.8628 18.7465C10.8576 18.7462 10.8525 18.7459 10.8472 18.7456ZM14.4477 15.2901L14.4993 15.2255C14.6582 15.0268 14.8539 14.7746 15.0481 14.5161L14.0369 14.2183L13.0499 13.083L12.8948 16.0252C12.9046 16.0387 13.1316 16.3598 13.1316 16.5435C13.1316 16.7435 12.8404 17.0039 12.5529 17.2126C12.5513 17.2091 12.5499 17.2054 12.5485 17.2017C12.5466 17.1967 12.5447 17.1917 12.5423 17.1874C12.4407 17.0061 12.3097 16.9731 12.2497 17.1125C12.2161 17.1912 12.2267 17.4264 12.2267 17.4264L12.222 17.4294V17.6969L12.2225 17.698C12.2389 17.7342 12.4861 18.2811 13.0778 18.2811C13.3097 18.2811 13.8769 18.2056 14.1303 17.5057C14.4443 16.6385 14.4479 15.4244 14.4479 15.3731L14.4477 15.2901Z" fill="#000001"/>
<path d="M11.9955 7.12132C11.4824 7.12132 10.9798 7.23591 10.6038 7.3514L10.3713 6.96602L10.2156 5.87169C10.7704 5.83444 11.368 5.81226 12.0077 5.81226C12.6955 5.81226 13.7821 5.87041 13.7821 5.87041L13.6266 6.96602L13.3934 7.35204C13.0155 7.23654 12.5096 7.12132 11.9955 7.12132Z" fill="#000001"/>
<path d="M17.2412 7.34481C17.2412 7.07858 17.1605 6.71913 17.0331 6.31567C18.0252 6.53142 18.558 6.73502 18.558 6.73502V17.7923L16.3145 19.4144L15.8274 14.8733C16.2762 14.2684 16.5519 13.8399 16.6435 13.6026C16.8288 13.1226 16.6619 11.121 16.4861 9.50325L17.2412 7.45383V7.34481Z" fill="#000001"/>
<path d="M7.35404 13.6025C7.16861 13.1227 7.33581 11.1212 7.51154 9.50341L6.7565 7.45398V7.34497C6.7565 7.07919 6.83674 6.7202 6.96396 6.31738C5.97189 6.53267 5.43945 6.73517 5.43945 6.73517V17.7927L7.69189 19.4211L8.17817 14.8847C7.72462 14.2739 7.44616 13.8416 7.35404 13.6025Z" fill="#000001"/>
</g>
</g>
</svg>
