<svg width="16" height="16" viewBox="0 0 16 16" fill="none" xmlns="http://www.w3.org/2000/svg">
<g id="size=16">
<path id="Path" d="M13.75 0C14.9926 0 16 1.00736 16 2.25V13.75C16 14.9926 14.9926 16 13.75 16H2.25C1.00736 16 0 14.9926 0 13.75V2.25C0 1.00736 1.00736 0 2.25 0H13.75ZM2.25 1.5C1.83579 1.5 1.5 1.83579 1.5 2.25V13.75C1.5 14.1642 1.83579 14.5 2.25 14.5H13.75C14.1642 14.5 14.5 14.1642 14.5 13.75V2.25C14.5 1.83579 14.1642 1.5 13.75 1.5H2.25ZM8 2.5C11.0376 2.5 13.5 4.96243 13.5 8C13.5 11.0376 11.0376 13.5 8 13.5C4.96243 13.5 2.5 11.0376 2.5 8C2.5 4.96243 4.96243 2.5 8 2.5ZM8 4C5.79086 4 4 5.79086 4 8C4 10.2091 5.79086 12 8 12C10.2091 12 12 10.2091 12 8C12 5.79086 10.2091 4 8 4ZM6.00977 7C6.56205 7 7.00977 7.44772 7.00977 8C7.00977 8.55229 6.56205 9 6.00977 9H6C5.44772 9 5 8.55229 5 8C5 7.44772 5.44772 7 6 7H6.00977ZM10.0195 7C10.5718 7 11.0195 7.44772 11.0195 8C11.0195 8.55229 10.5718 9 10.0195 9H10.0098C9.45759 8.99987 9.00977 8.5522 9.00977 8C9.00977 7.4478 9.45759 7.00013 10.0098 7H10.0195Z" fill="#000001"/>
</g>
</svg>
