<svg width="24" height="24" viewBox="0 0 24 24" fill="none" xmlns="http://www.w3.org/2000/svg">
<g id="size=24">
<g id="Path">
<path d="M9 12C9 11.4477 9.44771 11 10 11H10.01C10.5623 11 11.01 11.4477 11.01 12C11.01 12.5523 10.5623 13 10.01 13H10C9.44771 13 9 12.5523 9 12Z" fill="#000001"/>
<path d="M14.01 11C13.4577 11 13.01 11.4477 13.01 12C13.01 12.5523 13.4577 13 14.01 13H14.02C14.5723 13 15.02 12.5523 15.02 12C15.02 11.4477 14.5723 11 14.02 11H14.01Z" fill="#000001"/>
<path fill-rule="evenodd" clip-rule="evenodd" d="M12 4C7.58172 4 4 7.58172 4 12C4 16.4183 7.58172 20 12 20C16.4183 20 20 16.4183 20 12C20 7.58172 16.4183 4 12 4ZM5.5 12C5.5 8.41015 8.41015 5.5 12 5.5C15.5899 5.5 18.5 8.41015 18.5 12C18.5 15.5899 15.5899 18.5 12 18.5C8.41015 18.5 5.5 15.5899 5.5 12Z" fill="#000001"/>
<path fill-rule="evenodd" clip-rule="evenodd" d="M3.75 1C2.23122 1 1 2.23122 1 3.75V20.25C1 21.7688 2.23122 23 3.75 23H20.25C21.7688 23 23 21.7688 23 20.25V3.75C23 2.23122 21.7688 1 20.25 1H3.75ZM2.5 3.75C2.5 3.05964 3.05964 2.5 3.75 2.5H20.25C20.9404 2.5 21.5 3.05964 21.5 3.75V20.25C21.5 20.9404 20.9404 21.5 20.25 21.5H3.75C3.05964 21.5 2.5 20.9404 2.5 20.25V3.75Z" fill="#000001"/>
</g>
</g>
</svg>
