<svg width="16" height="16" viewBox="0 0 16 16" fill="none" xmlns="http://www.w3.org/2000/svg">
<g id="size=16">
<g id="Path">
<path d="M2.25 3.75C2.25 3.33579 2.58579 3 3 3H13C13.4142 3 13.75 3.33579 13.75 3.75C13.75 4.16421 13.4142 4.5 13 4.5H3C2.58579 4.5 2.25 4.16421 2.25 3.75Z" fill="#000001"/>
<path d="M3 6C2.58579 6 2.25 6.33579 2.25 6.75C2.25 7.16421 2.58579 7.5 3 7.5H9C9.41421 7.5 9.75 7.16421 9.75 6.75C9.75 6.33579 9.41421 6 9 6H3Z" fill="#000001"/>
<path d="M11.9629 13.9431C12.0513 13.9798 12.1483 14 12.25 14C12.3517 14 12.4487 13.9798 12.5371 13.9431C12.6255 13.9065 12.7084 13.8522 12.7803 13.7803L15.7803 10.7803C16.0732 10.4874 16.0732 10.0126 15.7803 9.71967C15.4874 9.42678 15.0126 9.42678 14.7197 9.71967L13 11.4393V6.75C13 6.33579 12.6642 6 12.25 6C11.8358 6 11.5 6.33579 11.5 6.75V11.4393L9.78033 9.71967C9.48744 9.42678 9.01256 9.42678 8.71967 9.71967C8.42678 10.0126 8.42678 10.4874 8.71967 10.7803L11.7197 13.7803C11.7916 13.8522 11.8745 13.9065 11.9629 13.9431Z" fill="#000001"/>
<path d="M3 9C2.58579 9 2.25 9.33579 2.25 9.75C2.25 10.1642 2.58579 10.5 3 10.5H6C6.41421 10.5 6.75 10.1642 6.75 9.75C6.75 9.33579 6.41421 9 6 9H3Z" fill="#000001"/>
<path d="M2.25 12.75C2.25 12.3358 2.58579 12 3 12H6C6.41421 12 6.75 12.3358 6.75 12.75C6.75 13.1642 6.41421 13.5 6 13.5H3C2.58579 13.5 2.25 13.1642 2.25 12.75Z" fill="#000001"/>
</g>
</g>
</svg>
