<svg width="16" height="16" viewBox="0 0 16 16" fill="none" xmlns="http://www.w3.org/2000/svg">
<g id="size=16">
<path id="Path" d="M13 12C13.4142 12 13.75 12.3358 13.75 12.75C13.75 13.1642 13.4142 13.5 13 13.5H3C2.58579 13.5 2.25 13.1642 2.25 12.75C2.25 12.3358 2.58579 12 3 12H13ZM9 9C9.41421 9 9.75 9.33579 9.75 9.75C9.75 10.1642 9.41421 10.5 9 10.5H3C2.58579 10.5 2.25 10.1642 2.25 9.75C2.25 9.33579 2.58579 9 3 9H9ZM12.252 2.5C12.3528 2.5003 12.4494 2.52026 12.5371 2.55664C12.6256 2.59324 12.7084 2.64782 12.7803 2.71973L15.7803 5.71973C16.0732 6.01262 16.0732 6.48738 15.7803 6.78027C15.4874 7.07317 15.0126 7.07317 14.7197 6.78027L13 5.06055V9.75C13 10.1642 12.6642 10.5 12.25 10.5C11.8358 10.5 11.5 10.1642 11.5 9.75V5.06055L9.78027 6.78027C9.48738 7.07317 9.01262 7.07317 8.71973 6.78027C8.42683 6.48738 8.42683 6.01262 8.71973 5.71973L11.7197 2.71973C11.8656 2.57385 12.0569 2.50057 12.248 2.5H12.252ZM6 6C6.41421 6 6.75 6.33579 6.75 6.75C6.75 7.16421 6.41421 7.5 6 7.5H3C2.58579 7.5 2.25 7.16421 2.25 6.75C2.25 6.33579 2.58579 6 3 6H6ZM6 3C6.41421 3 6.75 3.33579 6.75 3.75C6.75 4.16421 6.41421 4.5 6 4.5H3C2.58579 4.5 2.25 4.16421 2.25 3.75C2.25 3.33579 2.58579 3 3 3H6Z" fill="#000001"/>
</g>
</svg>
