<svg width="16" height="16" viewBox="0 0 16 16" fill="none" xmlns="http://www.w3.org/2000/svg">
<g id="size=16">
<path id="Path" d="M12.25 6C12.6642 6 13 6.33579 13 6.75V11.4395L14.7197 9.71973C15.0126 9.42683 15.4874 9.42683 15.7803 9.71973C16.0732 10.0126 16.0732 10.4874 15.7803 10.7803L12.7803 13.7803C12.7084 13.8522 12.6256 13.9068 12.5371 13.9434C12.4487 13.98 12.3517 14 12.25 14C12.1483 14 12.0513 13.98 11.9629 13.9434C11.8744 13.9068 11.7916 13.8522 11.7197 13.7803L8.71973 10.7803C8.42683 10.4874 8.42683 10.0126 8.71973 9.71973C9.01262 9.42683 9.48738 9.42683 9.78027 9.71973L11.5 11.4395V6.75C11.5 6.33579 11.8358 6 12.25 6ZM6 12C6.41421 12 6.75 12.3358 6.75 12.75C6.75 13.1642 6.41421 13.5 6 13.5H3C2.58579 13.5 2.25 13.1642 2.25 12.75C2.25 12.3358 2.58579 12 3 12H6ZM6 9C6.41421 9 6.75 9.33579 6.75 9.75C6.75 10.1642 6.41421 10.5 6 10.5H3C2.58579 10.5 2.25 10.1642 2.25 9.75C2.25 9.33579 2.58579 9 3 9H6ZM9 6C9.41421 6 9.75 6.33579 9.75 6.75C9.75 7.16421 9.41421 7.5 9 7.5H3C2.58579 7.5 2.25 7.16421 2.25 6.75C2.25 6.33579 2.58579 6 3 6H9ZM13 3C13.4142 3 13.75 3.33579 13.75 3.75C13.75 4.16421 13.4142 4.5 13 4.5H3C2.58579 4.5 2.25 4.16421 2.25 3.75C2.25 3.33579 2.58579 3 3 3H13Z" fill="#000001"/>
</g>
</svg>
