<svg width="24" height="24" viewBox="0 0 24 24" fill="none" xmlns="http://www.w3.org/2000/svg">
<g id="size=24">
<g id="Path">
<path d="M13.5723 5.79043C13.1683 5.9636 13.1683 6.53641 13.5723 6.70958L14.791 7.23188C14.909 7.28245 15.0031 7.37648 15.0536 7.49449L15.576 8.7132C15.7491 9.11725 16.3219 9.11725 16.4951 8.7132L17.0174 7.49449C17.068 7.37648 17.162 7.28245 17.28 7.23188L18.4987 6.70957C18.9028 6.53641 18.9028 5.9636 18.4987 5.79043L17.28 5.26813C17.162 5.21755 17.068 5.12352 17.0174 5.00551L16.4951 3.7868C16.3219 3.38275 15.7491 3.38275 15.576 3.78681L15.0536 5.00551C15.0031 5.12352 14.909 5.21755 14.791 5.26813L13.5723 5.79043Z" fill="#000001"/>
<path d="M2.57233 13.2096C2.16827 13.0364 2.16827 12.4636 2.57233 12.2904L6.26591 10.7075C6.38392 10.6569 6.47795 10.5629 6.52852 10.4449L8.11149 6.75127C8.28465 6.34722 8.85747 6.34722 9.03063 6.75127L10.6136 10.4449C10.6642 10.5629 10.7582 10.6569 10.8762 10.7075L14.5698 12.2904C14.9738 12.4636 14.9738 13.0364 14.5698 13.2096L10.8762 14.7925C10.7582 14.8431 10.6642 14.9371 10.6136 15.0552L9.03063 18.7487C8.85747 19.1528 8.28465 19.1528 8.11149 18.7487L6.52852 15.0552C6.47795 14.9371 6.38392 14.8431 6.26591 14.7925L2.57233 13.2096Z" fill="#000001"/>
<path d="M15.0223 17.2096C14.6182 17.0364 14.6182 16.4636 15.0223 16.2904L16.9834 15.4499C17.1015 15.3994 17.1955 15.3053 17.2461 15.1873L18.0866 13.2261C18.2597 12.8221 18.8325 12.8221 19.0057 13.2261L19.8462 15.1873C19.8968 15.3053 19.9908 15.3994 20.1088 15.4499L22.07 16.2904C22.474 16.4636 22.474 17.0364 22.07 17.2096L20.1088 18.0501C19.9908 18.1007 19.8968 18.1947 19.8462 18.3127L19.0057 20.2739C18.8325 20.6779 18.2597 20.6779 18.0866 20.2739L17.2461 18.3127C17.1955 18.1947 17.1015 18.1007 16.9834 18.0501L15.0223 17.2096Z" fill="#000001"/>
</g>
</g>
</svg>
