<svg width="16" height="16" viewBox="0 0 16 16" fill="none" xmlns="http://www.w3.org/2000/svg">
<g id="size=16">
<path id="Path" fill-rule="evenodd" clip-rule="evenodd" d="M5.69748 5.36559C5.87074 4.96176 6.44326 4.96167 6.61643 5.36559L7.77561 8.06872C7.82621 8.18657 7.92042 8.28088 8.0383 8.33142L10.7414 9.49059C11.145 9.66393 11.1451 10.2363 10.7414 10.4095L8.0383 11.5687C7.92055 11.6192 7.82622 11.7127 7.77561 11.8304L6.61643 14.5345C6.44307 14.938 5.87075 14.9381 5.69748 14.5345L4.53928 11.8304C4.48878 11.7128 4.39417 11.6193 4.27658 11.5687L1.57248 10.4095C1.16884 10.2363 1.16891 9.66392 1.57248 9.49059L4.27658 8.33142C4.39426 8.28082 4.48875 8.18644 4.53928 8.06872L5.69748 5.36559ZM11.8264 2.03649C11.9997 1.63297 12.5721 1.6329 12.7453 2.03649L13.2678 3.25524C13.3184 3.37308 13.4126 3.4674 13.5305 3.51794L14.7492 4.0404C15.1527 4.21374 15.1527 4.78604 14.7492 4.95934L13.5305 5.48181C13.4126 5.53236 13.3184 5.62661 13.2678 5.7445L12.7453 6.96325C12.572 7.36676 11.9997 7.36678 11.8264 6.96325L11.3039 5.7445C11.2534 5.62665 11.159 5.53242 11.0412 5.48181L9.82248 4.95934C9.41888 4.78605 9.41886 4.21368 9.82248 4.0404L11.0412 3.51794C11.159 3.46737 11.2534 3.37304 11.3039 3.25524L11.8264 2.03649Z" fill="#000001"/>
</g>
</svg>
