<svg width="24" height="24" viewBox="0 0 24 24" fill="none" xmlns="http://www.w3.org/2000/svg">
<g id="size=24">
<path id="Path" fill-rule="evenodd" clip-rule="evenodd" d="M18.087 13.2258C18.2604 12.8221 18.8328 12.822 19.006 13.2258L19.8468 15.1867C19.8974 15.3046 19.9915 15.3988 20.1095 15.4494L22.0704 16.2902C22.474 16.4635 22.4739 17.0358 22.0704 17.2092L20.1095 18.05C19.9916 18.1005 19.8974 18.1948 19.8468 18.3127L19.006 20.2736C18.8328 20.6775 18.2602 20.6775 18.087 20.2736L17.2462 18.3127C17.1957 18.1948 17.1014 18.1006 16.9835 18.05L15.0226 17.2092C14.6187 17.0359 14.6187 16.4634 15.0226 16.2902L16.9835 15.4494C17.1013 15.3988 17.1957 15.3046 17.2462 15.1867L18.087 13.2258ZM8.11143 6.75115C8.28471 6.34733 8.85821 6.34719 9.03135 6.75115L10.6144 10.4445C10.6649 10.5624 10.7591 10.6567 10.8771 10.7072L14.5704 12.2902C14.9738 12.4636 14.9737 13.0357 14.5704 13.2092L10.8771 14.7922C10.7592 14.8427 10.665 14.9371 10.6144 15.0549L9.03135 18.7482C8.85815 19.1521 8.28464 19.1521 8.11143 18.7482L6.52842 15.0549C6.47791 14.9372 6.38436 14.8428 6.2667 14.7922L2.57236 13.2092C2.16876 13.0359 2.16874 12.4635 2.57236 12.2902L6.2667 10.7072C6.38432 10.6566 6.47793 10.5622 6.52842 10.4445L8.11143 6.75115ZM15.5763 3.78631C15.7496 3.38279 16.3219 3.38272 16.4952 3.78631L17.0177 5.00506C17.0683 5.12299 17.1624 5.21719 17.2804 5.26775L18.4991 5.79021C18.9027 5.96348 18.9026 6.53582 18.4991 6.70916L17.2804 7.23162C17.1625 7.28216 17.0683 7.37643 17.0177 7.49431L16.4952 8.71306C16.3219 9.11679 15.7495 9.11684 15.5763 8.71306L15.0538 7.49431C15.0033 7.37642 14.909 7.28222 14.7911 7.23162L13.5724 6.70916C13.1688 6.53586 13.1687 5.96349 13.5724 5.79021L14.7911 5.26775C14.9089 5.21716 15.0033 5.12291 15.0538 5.00506L15.5763 3.78631Z" fill="#000001"/>
</g>
</svg>
