<svg width="24" height="24" viewBox="0 0 24 24" fill="none" xmlns="http://www.w3.org/2000/svg">
<g id="size=24">
<g id="Subtract">
<path d="M6.76333 12.2977C6.788 12.1615 6.8 12.034 6.8 11.9161C6.8 11.5823 6.73333 11.3187 6.59867 11.1245C6.46533 10.9317 6.28333 10.8346 6.05267 10.8346C5.81 10.8346 5.61733 10.9371 5.476 11.1427C5.334 11.3484 5.26333 11.6261 5.26333 11.9761C5.26333 12.3179 5.33333 12.5862 5.47267 12.7818C5.61267 12.9773 5.804 13.0751 6.04667 13.0751C6.19267 13.0751 6.31267 13.038 6.408 12.9625C6.50333 12.8876 6.58 12.7919 6.63867 12.6759C6.69733 12.5606 6.73933 12.4339 6.76333 12.2977Z" fill="#000001"/>
<path d="M19.8067 9.82526C19.7913 9.82526 19.78 9.82661 19.772 9.82796V9.93112H19.8067C19.846 9.93112 19.88 9.91628 19.88 9.87853C19.88 9.85223 19.8607 9.82526 19.8067 9.82526Z" fill="#000001"/>
<path fill-rule="evenodd" clip-rule="evenodd" d="M20.04 9.94258C20.04 9.81312 19.9433 9.70997 19.8233 9.70997H19.822C19.7027 9.70997 19.6053 9.81312 19.6053 9.94123C19.6053 10.0714 19.7027 10.1738 19.8233 10.1738C19.944 10.1752 20.04 10.0714 20.04 9.94258ZM19.8053 9.96887H19.7707V10.0997H19.7227V9.79425C19.748 9.7902 19.772 9.78683 19.808 9.78683C19.854 9.78683 19.884 9.79627 19.902 9.80975C19.92 9.82324 19.93 9.84414 19.93 9.87313C19.93 9.91291 19.904 9.93786 19.8713 9.9473V9.94999C19.898 9.95471 19.916 9.97899 19.922 10.0242C19.9293 10.0714 19.9367 10.0902 19.9413 10.0997H19.8907C19.8833 10.0902 19.876 10.0626 19.87 10.0221C19.8633 9.98371 19.844 9.96887 19.8053 9.96887Z" fill="#000001"/>
<path fill-rule="evenodd" clip-rule="evenodd" d="M23 1H1V23H23V1ZM4.04933 13.0063C4.106 12.8923 4.134 12.7683 4.134 12.6341C4.134 12.5404 4.12267 12.4554 4.1 12.3772C4.07733 12.2997 4.03733 12.2235 3.97867 12.148C3.92 12.0725 3.84 11.9922 3.73933 11.9066C3.63867 11.821 3.51133 11.7212 3.358 11.6073C3.20533 11.4893 3.09867 11.3982 3.03667 11.3328C2.974 11.2681 2.94333 11.1946 2.94333 11.113C2.94333 11.0274 2.978 10.9566 3.04867 10.8993C3.11867 10.842 3.20867 10.8137 3.31667 10.8137C3.494 10.8137 3.66267 10.8703 3.82333 10.9843L4.05867 10.6013C3.934 10.5204 3.79867 10.459 3.652 10.4166C3.50533 10.3741 3.354 10.3532 3.19733 10.3532C3.04867 10.3532 2.91133 10.3741 2.78533 10.4145C2.65867 10.455 2.55067 10.5116 2.46067 10.5851C2.37067 10.6579 2.29933 10.7463 2.24733 10.8501C2.19533 10.9539 2.16933 11.0692 2.16933 11.1953C2.16933 11.3045 2.18867 11.4023 2.22667 11.4879C2.26533 11.5735 2.31533 11.6504 2.37733 11.7199C2.44 11.7893 2.50867 11.854 2.58533 11.9154C2.66133 11.9761 2.74 12.0347 2.82 12.092C2.92467 12.1696 3.01 12.235 3.076 12.2876C3.14267 12.3402 3.19467 12.3894 3.23267 12.4339C3.27067 12.479 3.29667 12.5229 3.31067 12.5653C3.32467 12.6078 3.332 12.6543 3.332 12.7029C3.332 12.8168 3.29333 12.9072 3.21467 12.9746C3.136 13.042 3.03267 13.0751 2.904 13.0751C2.79933 13.0751 2.69667 13.0508 2.59667 13.0022C2.496 12.9537 2.384 12.8768 2.25933 12.771L2 13.1971C2.15667 13.3232 2.31333 13.4135 2.46933 13.4675C2.626 13.5221 2.80267 13.5491 3 13.5491C3.16467 13.5491 3.31667 13.5268 3.45533 13.4823C3.594 13.4378 3.71333 13.3758 3.814 13.2962C3.91467 13.2167 3.99333 13.1202 4.04933 13.0063ZM7.546 11.2634C7.61067 11.4502 7.64267 11.6572 7.64267 11.885C7.64267 12.1251 7.60667 12.3455 7.53333 12.5471C7.46067 12.7481 7.36 12.924 7.23067 13.0744C7.10133 13.2247 6.948 13.3414 6.77067 13.425C6.59333 13.5079 6.40133 13.5497 6.196 13.5497C6.10333 13.5497 6.01667 13.5416 5.936 13.5255C5.85533 13.5093 5.77867 13.4816 5.706 13.4432C5.63333 13.4048 5.562 13.3549 5.49133 13.2935C5.42067 13.2328 5.34733 13.1573 5.27067 13.0676V15H4.496V10.4274H5.27133L5.27533 10.8723C5.416 10.6937 5.56867 10.5629 5.734 10.4793C5.89933 10.3963 6.09067 10.3545 6.308 10.3545C6.50533 10.3545 6.68533 10.3923 6.84867 10.4671C7.01133 10.5426 7.15267 10.6472 7.27133 10.7813C7.39 10.9155 7.48133 11.076 7.546 11.2634ZM8.78267 13.4749H7.98733V9H8.78267V13.4749ZM12.1787 10.4233V13.4776H11.384L11.382 13.069C11.2287 13.2403 11.072 13.363 10.9107 13.4385C10.7493 13.5133 10.562 13.5511 10.3487 13.5511C10.1113 13.5511 9.91133 13.5039 9.748 13.4081C9.58467 13.3124 9.46733 13.1708 9.39467 12.9834C9.37467 12.9389 9.35933 12.8917 9.34933 12.8431C9.33933 12.7946 9.33 12.7386 9.322 12.6752C9.314 12.6119 9.30867 12.5397 9.30667 12.4581C9.30467 12.3766 9.30333 12.2768 9.30333 12.1588V10.424H10.0987V12.1702C10.0987 12.3253 10.106 12.4433 10.12 12.5249C10.134 12.6065 10.1593 12.68 10.196 12.7447C10.2887 12.9159 10.4527 13.0016 10.6867 13.0016C10.986 13.0016 11.192 12.8748 11.3047 12.6227C11.3327 12.5573 11.3533 12.4851 11.3653 12.4056C11.3773 12.326 11.3833 12.2127 11.3833 12.0664V10.4233H12.1787ZM15.608 11.7441V13.4742H14.8133V11.732C14.8133 11.5776 14.806 11.4596 14.792 11.3787C14.778 11.2978 14.7527 11.2243 14.7167 11.1596C14.624 10.9897 14.46 10.904 14.226 10.904C14.0767 10.904 13.9487 10.9357 13.8413 10.9984C13.734 11.0611 13.654 11.1535 13.602 11.2755C13.5733 11.345 13.554 11.4191 13.544 11.498C13.534 11.5769 13.5287 11.6875 13.5287 11.8298V13.4749H12.7267V10.4287H13.528L13.5293 10.8373C13.6827 10.6667 13.8393 10.5433 14.0007 10.4678C14.162 10.3923 14.3493 10.3545 14.5627 10.3545C14.8007 10.3545 15.0007 10.4044 15.164 10.5042C15.3273 10.604 15.4447 10.7449 15.5173 10.9276C15.5333 10.9728 15.5473 11.0187 15.5593 11.0652C15.5713 11.1117 15.5813 11.1656 15.5893 11.2263C15.598 11.2877 15.6027 11.3591 15.6047 11.4427C15.6067 11.5257 15.608 11.6261 15.608 11.7441ZM17.6887 11.7502L18.9007 13.274L18.1587 13.5362L16.9593 11.854V13.4756H16.1573V9.00067H16.9593V11.6275H17.044L18.1107 10.3781L18.7133 10.6404L17.6887 11.7502ZM22 11.6814V12.1804L19.5887 13.3933V12.8573L21.4573 11.9255L19.5887 11.0058V10.4577L22 11.6814ZM19.554 9.94123C19.554 9.78953 19.674 9.66749 19.822 9.66749H19.8233C19.9713 9.66749 20.0893 9.78885 20.0893 9.94123C20.0893 10.0956 19.9713 10.2163 19.822 10.2163C19.674 10.2163 19.554 10.0956 19.554 9.94123Z" fill="#000001"/>
</g>
</g>
</svg>
