<svg width="24" height="24" viewBox="0 0 24 24" fill="none" xmlns="http://www.w3.org/2000/svg">
<g id="size=24">
<path id="Path" fill-rule="evenodd" clip-rule="evenodd" d="M12 1C12.2855 1 12.5462 1.16208 12.6726 1.41809L15.6655 7.48285L22.3585 8.46136C22.6409 8.50265 22.8754 8.70063 22.9634 8.97212C23.0515 9.2436 22.9778 9.54152 22.7734 9.74068L17.9309 14.4584L19.0737 21.1232C19.122 21.4046 19.0063 21.689 18.7753 21.8568C18.5443 22.0246 18.238 22.0467 17.9854 21.9138L12 18.7654L6.01466 21.9138C5.76198 22.0467 5.45575 22.0246 5.22475 21.8568C4.99375 21.689 4.87804 21.4046 4.9263 21.1232L6.06914 14.4584L1.22665 9.74068C1.02222 9.54152 0.948543 9.2436 1.03658 8.97212C1.12462 8.70063 1.35911 8.50265 1.64151 8.46136L8.33451 7.48285L11.3274 1.41809C11.4538 1.16208 11.7145 1 12 1ZM12 3.44476L9.50532 8.49989C9.39618 8.72105 9.18528 8.87442 8.94125 8.91009L3.36105 9.72591L7.39837 13.6592C7.57522 13.8315 7.65595 14.0798 7.61422 14.3231L6.66161 19.8786L11.6509 17.2542C11.8694 17.1392 12.1306 17.1392 12.3492 17.2542L17.3384 19.8786L16.3858 14.3231C16.3441 14.0798 16.4248 13.8315 16.6016 13.6592L20.639 9.72591L15.0588 8.91009C14.8147 8.87442 14.6038 8.72105 14.4947 8.49989L12 3.44476Z" fill="#000001"/>
</g>
</svg>
