<svg width="24" height="24" viewBox="0 0 24 24" fill="none" xmlns="http://www.w3.org/2000/svg">
<g id="size=24">
<path id="Path" fill-rule="evenodd" clip-rule="evenodd" d="M11.9897 1C12.2748 1.00037 12.5364 1.16233 12.6626 1.41797L15.6558 7.48242L22.3481 8.46094C22.63 8.50251 22.8656 8.7007 22.9536 8.97168C23.0414 9.24283 22.9671 9.54115 22.7632 9.74023L17.9214 14.458L19.064 21.123C19.1121 21.4041 18.9957 21.6886 18.7651 21.8564C18.5344 22.024 18.2276 22.0465 17.9751 21.9141L11.9897 18.7656L6.00439 21.9141C5.75208 22.0466 5.44611 22.0236 5.21533 21.8564C4.98435 21.6887 4.86826 21.4044 4.9165 21.123L6.05908 14.458L1.21631 9.74023C1.01224 9.54108 0.93889 9.24295 1.02686 8.97168C1.11505 8.70065 1.34931 8.50226 1.63135 8.46094L8.32471 7.48242L11.3179 1.41797C11.4443 1.16243 11.7046 1.00015 11.9897 1Z" fill="#000001"/>
</g>
</svg>
