<svg width="16" height="16" viewBox="0 0 16 16" fill="none" xmlns="http://www.w3.org/2000/svg">
<g id="size=16">
<g id="Path">
<path d="M8.66969 0.912341C8.5422 0.659489 8.28317 0.499999 8 0.499999C7.71683 0.499999 7.4578 0.659489 7.33031 0.912341L6.44797 2.66234C6.26149 3.0322 6.41015 3.4832 6.78001 3.66968C7.14987 3.85616 7.60087 3.70751 7.78735 3.33765L8 2.91589L9.57055 6.03086C9.68093 6.24976 9.89132 6.40091 10.134 6.43564L13.6141 6.93363L12.3152 8.17227C12.0154 8.45812 12.0041 8.93286 12.2899 9.23263C12.5758 9.5324 13.0505 9.54369 13.3503 9.25784L15.7676 6.95286C15.9754 6.75462 16.0518 6.45505 15.9643 6.18146C15.8767 5.90787 15.6406 5.70833 15.3562 5.66764L10.7338 5.00619L8.66969 0.912341Z" fill="#000001"/>
<path fill-rule="evenodd" clip-rule="evenodd" d="M13.1469 14.2075L13.2192 14.6205C13.2684 14.9011 13.1544 15.1852 12.925 15.354C12.6956 15.5228 12.3904 15.5471 12.1372 15.4168L8 13.2867L3.86282 15.4168C3.6096 15.5471 3.3044 15.5228 3.075 15.354C2.84561 15.1852 2.73162 14.9011 2.78077 14.6205L3.56702 10.1325L0.232448 6.95286C0.0245534 6.75462 -0.051847 6.45505 0.0357151 6.18146C0.123277 5.90787 0.359417 5.70833 0.643781 5.66764L4.11086 5.17152L1.21967 2.28032C0.926774 1.98743 0.926774 1.51256 1.21967 1.21967C1.51256 0.926774 1.98743 0.926774 2.28032 1.21967L14.7803 13.7196C15.0732 14.0125 15.0732 14.4874 14.7803 14.7803C14.4874 15.0732 14.0125 15.0732 13.7196 14.7803L13.1469 14.2075ZM5.43645 6.4971L2.38587 6.93363L4.89258 9.32391C5.07403 9.49692 5.15702 9.74916 5.11376 9.99611L4.51885 13.3919L7.65669 11.7764C7.87213 11.6655 8.12787 11.6655 8.34331 11.7764L11.4811 13.3919L11.3006 12.3612L5.43645 6.4971Z" fill="#000001"/>
</g>
</g>
</svg>
