<svg width="24" height="24" viewBox="0 0 24 24" fill="none" xmlns="http://www.w3.org/2000/svg">
<g id="size=24">
<path id="Path" fill-rule="evenodd" clip-rule="evenodd" d="M11.9907 1C12.2752 1.00092 12.5376 1.16277 12.6636 1.41797L15.6567 7.48242L22.3491 8.46094C22.6303 8.50297 22.8667 8.70116 22.9546 8.97168C23.0421 9.24239 22.9674 9.54125 22.7642 9.74023L17.9224 14.458L19.0649 21.123C19.1129 21.4037 18.9959 21.6886 18.7661 21.8564C18.5357 22.0238 18.2284 22.0459 17.9761 21.9141L11.9907 18.7656L6.00537 21.9141C5.75341 22.0464 5.44697 22.023 5.21631 21.8564C4.98533 21.6887 4.86923 21.4044 4.91748 21.123L6.06006 14.458L1.21729 9.74023C1.01322 9.54108 0.939867 9.24295 1.02783 8.97168C1.11614 8.70087 1.35044 8.50224 1.63232 8.46094L8.32568 7.48242L11.3188 1.41797C11.4453 1.16277 11.7058 1.00015 11.9907 1ZM9.49658 8.5C9.38779 8.72042 9.17514 8.87383 8.93213 8.91016L3.35205 9.72559L7.38916 13.6592C7.56505 13.8313 7.64645 14.0806 7.60498 14.3232L6.65283 19.8789L11.6421 17.2539C11.8602 17.1401 12.1225 17.1394 12.3403 17.2539L17.3296 19.8789L16.3765 14.3232C16.3348 14.08 16.4156 13.8315 16.5923 13.6592L20.6304 9.72559L15.0503 8.91016C14.8067 8.87453 14.5951 8.72057 14.4858 8.5L11.9907 3.44434L9.49658 8.5Z" fill="#000001"/>
</g>
</svg>
