<svg width="24" height="24" viewBox="0 0 24 24" fill="none" xmlns="http://www.w3.org/2000/svg">
<g id="size=24">
<path id="Vector (Stroke)" fill-rule="evenodd" clip-rule="evenodd" d="M12 1C12.2855 1 12.5462 1.16208 12.6726 1.41809L15.6655 7.48285L22.3585 8.46136C22.6409 8.50265 22.8754 8.70063 22.9634 8.97212C23.0515 9.2436 22.9778 9.54152 22.7734 9.74068L17.9309 14.4584L19.0737 21.1232C19.122 21.4046 19.0063 21.689 18.7753 21.8568C18.5443 22.0246 18.238 22.0467 17.9853 21.9138L12 18.7654L6.01464 21.9138C5.76196 22.0467 5.45573 22.0246 5.22473 21.8568C4.99373 21.689 4.87803 21.4046 4.92628 21.1232L6.06912 14.4584L1.22663 9.74068C1.0222 9.54152 0.948528 9.2436 1.03657 8.97212C1.1246 8.70063 1.3591 8.50265 1.6415 8.46136L8.33449 7.48285L11.3274 1.41809C11.4538 1.16208 11.7145 1 12 1ZM12 3.44476L9.5053 8.49989C9.39616 8.72105 9.18527 8.87442 8.94124 8.91009L3.36104 9.72591L7.39835 13.6592C7.57521 13.8315 7.65593 14.0798 7.6142 14.3231L6.66159 19.8786L11.6508 17.2542C11.8694 17.1392 12.1306 17.1392 12.3491 17.2542L17.3384 19.8786L16.3858 14.3231C16.3441 14.0798 16.4248 13.8315 16.6016 13.6592L20.6389 9.72591L15.0587 8.91009C14.8147 8.87442 14.6038 8.72105 14.4947 8.49989L12 3.44476Z" fill="#000001"/>
</g>
</svg>
