<svg width="16" height="16" viewBox="0 0 16 16" fill="none" xmlns="http://www.w3.org/2000/svg">
<g id="size=16">
<g id="Union">
<path d="M8.66968 0.91234C8.5422 0.659489 8.28317 0.499998 7.99999 0.499998C7.71682 0.499998 7.45779 0.659489 7.3303 0.912341L6.44796 2.66233C6.26148 3.03219 6.41014 3.4832 6.78 3.66968C7.14986 3.85616 7.60086 3.7075 7.78734 3.33764L7.99999 2.91589L9.57054 6.03085C9.68092 6.24976 9.89131 6.4009 10.134 6.43563L13.6141 6.93362L12.3151 8.17226C12.0154 8.45811 12.0041 8.93285 12.2899 9.23262C12.5758 9.53239 13.0505 9.54368 13.3503 9.25783L15.7675 6.95285C15.9754 6.75462 16.0518 6.45505 15.9643 6.18146C15.8767 5.90787 15.6406 5.70833 15.3562 5.66764L10.7338 5.00618L8.66968 0.91234Z" fill="#000001"/>
<path fill-rule="evenodd" clip-rule="evenodd" d="M13.1469 14.2075L13.2192 14.6205C13.2684 14.9011 13.1544 15.1852 12.925 15.354C12.6956 15.5228 12.3904 15.5471 12.1372 15.4168L7.99999 13.2867L3.86282 15.4168C3.6096 15.5471 3.30439 15.5228 3.075 15.354C2.84561 15.1852 2.73162 14.9011 2.78076 14.6205L3.56701 10.1325L0.232448 6.95285C0.0245534 6.75462 -0.051847 6.45505 0.0357151 6.18146C0.123277 5.90787 0.359417 5.70833 0.643781 5.66764L4.11085 5.17151L1.21967 2.28032C0.926773 1.98743 0.926773 1.51256 1.21967 1.21967C1.51256 0.926773 1.98743 0.926773 2.28032 1.21967L14.7803 13.7196C15.0732 14.0125 15.0732 14.4874 14.7803 14.7803C14.4874 15.0732 14.0125 15.0732 13.7196 14.7803L13.1469 14.2075ZM5.43644 6.4971L2.38587 6.93362L4.89258 9.3239C5.07402 9.49691 5.15702 9.74915 5.11375 9.9961L4.51885 13.3919L7.65669 11.7764C7.87212 11.6654 8.12787 11.6654 8.3433 11.7764L11.4811 13.3919L11.3006 12.3612L5.43644 6.4971Z" fill="#000001"/>
</g>
</g>
</svg>
