<svg width="16" height="16" viewBox="0 0 16 16" fill="none" xmlns="http://www.w3.org/2000/svg">
<g id="size=16">
<g id="Path">
<path fill-rule="evenodd" clip-rule="evenodd" d="M8.67869 2.4313C8.55513 2.16808 8.29055 2 7.99977 2C7.70899 2 7.44442 2.16808 7.32086 2.4313L6.02298 5.19614L3.13584 5.63988C2.85807 5.68258 2.62747 5.87698 2.53842 6.14353C2.44937 6.41008 2.51681 6.70405 2.71315 6.90513L4.8236 9.06663L4.32406 12.1293C4.27782 12.4128 4.39755 12.6977 4.63237 12.8632C4.86719 13.0286 5.17586 13.0453 5.42722 12.9063L7.99977 11.4837L10.5723 12.9063C10.8237 13.0453 11.1324 13.0286 11.3672 12.8632C11.602 12.6977 11.7217 12.4128 11.6755 12.1293L11.176 9.06663L13.2864 6.90513C13.4827 6.70405 13.5502 6.41008 13.4611 6.14353C13.3721 5.87698 13.1415 5.68258 12.8637 5.63988L9.97657 5.19614L8.67869 2.4313ZM7.21094 6.19541L7.99977 4.51498L8.78861 6.19541C8.89478 6.42159 9.10663 6.58005 9.35359 6.618L11.1941 6.90089L9.83815 8.28966C9.67178 8.46005 9.59622 8.69932 9.63456 8.93435L9.94638 10.8461L8.36272 9.97038C8.13687 9.84549 7.86268 9.84549 7.63683 9.97038L6.05317 10.8461L6.36499 8.93435C6.40333 8.69932 6.32777 8.46005 6.1614 8.28966L4.80542 6.90089L6.64596 6.618C6.89292 6.58005 7.10477 6.42159 7.21094 6.19541Z" fill="#000001"/>
<path fill-rule="evenodd" clip-rule="evenodd" d="M7.9998 0.0498047C3.60914 0.0498047 0.0498047 3.60914 0.0498047 7.9998C0.0498047 12.3905 3.60914 15.9498 7.9998 15.9498C12.3905 15.9498 15.9498 12.3905 15.9498 7.9998C15.9498 3.60914 12.3905 0.0498047 7.9998 0.0498047ZM1.4498 7.9998C1.4498 4.38234 4.38234 1.4498 7.9998 1.4498C11.6173 1.4498 14.5498 4.38234 14.5498 7.9998C14.5498 11.6173 11.6173 14.5498 7.9998 14.5498C4.38234 14.5498 1.4498 11.6173 1.4498 7.9998Z" fill="#000001"/>
</g>
</g>
</svg>
