<svg width="16" height="16" viewBox="0 0 16 16" fill="none" xmlns="http://www.w3.org/2000/svg">
<g id="size=16">
<g id="Path">
<path d="M1.75 2C2.16421 2 2.5 2.33579 2.5 2.75V13.25C2.5 13.6642 2.16421 14 1.75 14C1.33579 14 1 13.6642 1 13.25V2.75C1 2.33579 1.33579 2 1.75 2Z" fill="#000001"/>
<path d="M8.79297 3.15527C9.09431 2.92314 9.52815 2.95289 9.79492 3.23535C10.0616 3.5177 10.067 3.95265 9.81836 4.24023L9.76465 4.29492L6.63574 7.25H14.25C14.6642 7.25 15 7.58579 15 8C15 8.41421 14.6642 8.75 14.25 8.75H6.63574L9.76465 11.7051L9.81836 11.7598C10.067 12.0474 10.0616 12.4823 9.79492 12.7646C9.52816 13.0471 9.09431 13.0768 8.79297 12.8447L8.73535 12.7949L4.23535 8.54492C4.08534 8.40324 4 8.20634 4 8C4 7.81959 4.06504 7.64618 4.18164 7.51074L4.23535 7.45508L8.73535 3.20508L8.79297 3.15527Z" fill="#000001"/>
</g>
</g>
</svg>
