<svg width="24" height="24" viewBox="0 0 24 24" fill="none" xmlns="http://www.w3.org/2000/svg">
<g id="size=24">
<g id="Path">
<path d="M12.6726 1.41809C12.5462 1.16208 12.2855 1 12 1C11.7145 1 11.4538 1.16208 11.3275 1.41809L9.74384 4.62708C9.56053 4.99853 9.71305 5.44825 10.0845 5.63155C10.4559 5.81486 10.9057 5.66234 11.089 5.2909L12 3.44476L14.4947 8.49989C14.6039 8.72105 14.8147 8.87442 15.0588 8.91009L20.639 9.72591L17.8825 12.4113C17.5859 12.7003 17.5797 13.1752 17.8687 13.4719C18.1577 13.7686 18.6326 13.7748 18.9293 13.4857L22.7734 9.74068C22.9778 9.54152 23.0515 9.2436 22.9634 8.97212C22.8754 8.70063 22.6409 8.50265 22.3585 8.46136L15.6655 7.48285L12.6726 1.41809Z" fill="#000001"/>
<path fill-rule="evenodd" clip-rule="evenodd" d="M18.8691 19.9297L19.0737 21.1232C19.122 21.4046 19.0063 21.689 18.7753 21.8568C18.5443 22.0246 18.2381 22.0467 17.9854 21.9138L12 18.7654L6.01467 21.9138C5.76199 22.0467 5.45576 22.0246 5.22476 21.8568C4.99376 21.689 4.87806 21.4046 4.92631 21.1232L6.06915 14.4584L1.22666 9.74068C1.02223 9.54152 0.948559 9.2436 1.0366 8.97212C1.12463 8.70063 1.35913 8.50265 1.64153 8.46136L6.66611 7.72677L1.21967 2.28033C0.926777 1.98744 0.926777 1.51256 1.21967 1.21967C1.51256 0.926777 1.98744 0.926777 2.28033 1.21967L22.7803 21.7197C23.0732 22.0126 23.0732 22.4874 22.7803 22.7803C22.4874 23.0732 22.0126 23.0732 21.7197 22.7803L18.8691 19.9297ZM7.9887 9.04936L3.36107 9.72591L7.39838 13.6592C7.57524 13.8315 7.65596 14.0798 7.61423 14.3231L6.66162 19.8786L11.6509 17.2542C11.8694 17.1392 12.1306 17.1392 12.3492 17.2542L17.3384 19.8786L17.0322 18.0929L7.9887 9.04936Z" fill="#000001"/>
</g>
</g>
</svg>
