<svg width="16" height="16" viewBox="0 0 16 16" fill="none" xmlns="http://www.w3.org/2000/svg">
<g id="size=16">
<path id="Union" d="M8.66968 0.91234C8.5422 0.659489 8.28316 0.499998 7.99999 0.499998C7.71682 0.499998 7.45779 0.659489 7.3303 0.91234L5.26621 5.00618L0.643781 5.66764C0.359417 5.70833 0.123277 5.90787 0.0357151 6.18146C-0.051847 6.45505 0.0245534 6.75462 0.232448 6.95285L3.56701 10.1325L2.78076 14.6205C2.73162 14.9011 2.84561 15.1852 3.075 15.354C3.30439 15.5228 3.6096 15.5471 3.86282 15.4168L7.99999 13.2867L12.1372 15.4168C12.3904 15.5471 12.6956 15.5228 12.925 15.354C13.1544 15.1852 13.2684 14.9011 13.2192 14.6205L12.433 10.1325L15.7675 6.95285C15.9754 6.75462 16.0518 6.45505 15.9643 6.18146C15.8767 5.90787 15.6406 5.70833 15.3562 5.66764L10.7338 5.00618L8.66968 0.91234Z" fill="#000001"/>
</g>
</svg>
