<svg width="16" height="16" viewBox="0 0 16 16" fill="none" xmlns="http://www.w3.org/2000/svg">
<g id="size=16">
<path id="Path" d="M6.75 2C7.16421 2 7.5 2.33579 7.5 2.75V5.5C8.4665 5.5 9.25 6.2835 9.25 7.25V8.75C9.25 9.7165 8.4665 10.5 7.5 10.5V10.75C7.5 11.2141 7.68451 11.6591 8.0127 11.9873C8.34088 12.3155 8.78587 12.5 9.25 12.5H12.25C12.6642 12.5 13 12.8358 13 13.25C13 13.6642 12.6642 14 12.25 14H9.25C8.38805 14 7.56164 13.6573 6.95215 13.0479C6.34266 12.4384 6 11.612 6 10.75V10.5C5.0335 10.5 4.25 9.7165 4.25 8.75V7.25C4.25 6.2835 5.0335 5.5 6 5.5V2.75C6 2.33579 6.33579 2 6.75 2ZM6 7C5.86193 7 5.75 7.11193 5.75 7.25V8.75C5.75 8.88807 5.86193 9 6 9H7.5C7.63807 9 7.75 8.88807 7.75 8.75V7.25C7.75 7.11193 7.63807 7 7.5 7H6Z" fill="#000001"/>
</g>
</svg>
