<svg width="16" height="16" viewBox="0 0 16 16" fill="none" xmlns="http://www.w3.org/2000/svg">
<g id="size=16">
<path id="Path" fill-rule="evenodd" clip-rule="evenodd" d="M12.25 14C12.6642 14 13 13.6642 13 13.25C13 12.8358 12.6642 12.5 12.25 12.5H9.25C8.78587 12.5 8.34075 12.3156 8.01256 11.9874C7.68438 11.6592 7.5 11.2141 7.5 10.75L7.5 10.5C8.4665 10.5 9.25 9.7165 9.25 8.75V7.25C9.25 6.2835 8.4665 5.5 7.5 5.5L7.5 2.75C7.5 2.33579 7.16421 2 6.75 2C6.33579 2 6 2.33579 6 2.75L6 5.5C5.0335 5.5 4.25 6.2835 4.25 7.25V8.75C4.25 9.7165 5.0335 10.5 6 10.5L6 10.75C6 11.612 6.34241 12.4386 6.9519 13.0481C7.5614 13.6576 8.38805 14 9.25 14H12.25ZM5.75 7.25C5.75 7.11193 5.86193 7 6 7H7.5C7.63807 7 7.75 7.11193 7.75 7.25V8.75C7.75 8.88807 7.63807 9 7.5 9H6C5.86193 9 5.75 8.88807 5.75 8.75V7.25Z" fill="#000001"/>
</g>
</svg>
