<svg width="24" height="24" viewBox="0 0 24 24" fill="none" xmlns="http://www.w3.org/2000/svg">
<g id="size=24">
<path id="Path" fill-rule="evenodd" clip-rule="evenodd" d="M18.75 20.75C19.1642 20.75 19.5 20.4142 19.5 20C19.5 19.5858 19.1642 19.25 18.75 19.25H13.6786C12.84 19.25 12.0329 18.9109 11.4357 18.3029C10.8381 17.6944 10.5 16.8663 10.5 16V15.75H10.75C11.9926 15.75 13 14.7426 13 13.5V11.5C13 10.2574 11.9926 9.25 10.75 9.25H10.5L10.5 4C10.5 3.58579 10.1642 3.25 9.75 3.25C9.33579 3.25 9 3.58579 9 4L9 9.25H8.75C7.50736 9.25 6.5 10.2574 6.5 11.5V13.5C6.5 14.7426 7.50736 15.75 8.75 15.75H9V16C9 17.2555 9.4897 18.4622 10.3656 19.354C11.2419 20.2462 12.4333 20.75 13.6786 20.75H18.75ZM10.75 14.25C11.1642 14.25 11.5 13.9142 11.5 13.5V11.5C11.5 11.0858 11.1642 10.75 10.75 10.75H8.75C8.33579 10.75 8 11.0858 8 11.5V13.5C8 13.9142 8.33579 14.25 8.75 14.25H10.75Z" fill="#000001"/>
</g>
</svg>
