<svg width="24" height="24" viewBox="0 0 24 24" fill="none" xmlns="http://www.w3.org/2000/svg">
<g id="size=24">
<path id="Path" d="M12 1C18.0751 1.00003 23 5.92488 23 12C23 18.0751 18.0751 23 12 23C5.92487 23 1 18.0751 1 12C1 5.92487 5.92487 1 12 1ZM12 2.5C6.75329 2.5 2.5 6.75329 2.5 12C2.5 17.2467 6.75329 21.5 12 21.5C17.2467 21.5 21.5 17.2467 21.5 12C21.5 6.75331 17.2467 2.50003 12 2.5ZM15.25 7C16.2165 7.00003 17 7.78352 17 8.75V15.25C17 16.2165 16.2165 17 15.25 17H8.75C7.7835 17 7 16.2165 7 15.25V8.75C7 7.7835 7.7835 7 8.75 7H15.25ZM8.75 8.5C8.61193 8.5 8.5 8.61193 8.5 8.75V15.25C8.5 15.3881 8.61193 15.5 8.75 15.5H15.25C15.388 15.5 15.5 15.3881 15.5 15.25V8.75C15.5 8.61195 15.388 8.50003 15.25 8.5H8.75Z" fill="#000001"/>
</g>
</svg>
