<svg width="24" height="24" viewBox="0 0 24 24" fill="none" xmlns="http://www.w3.org/2000/svg">
<g id="size=24">
<path id="Path" d="M12 20.25C12.4142 20.25 12.75 20.5858 12.75 21V23C12.75 23.4142 12.4142 23.75 12 23.75C11.5858 23.75 11.25 23.4142 11.25 23V21C11.25 20.5858 11.5858 20.25 12 20.25ZM5.10938 17.8291C5.40214 17.5364 5.87702 17.5366 6.16992 17.8291C6.46282 18.122 6.46282 18.5977 6.16992 18.8906L4.75 20.3105C4.45711 20.6031 3.98224 20.6032 3.68945 20.3105C3.39667 20.0178 3.39689 19.5429 3.68945 19.25L5.10938 17.8291ZM17.8301 17.8291C18.123 17.5366 18.5978 17.5365 18.8906 17.8291L20.3105 19.25C20.6032 19.5429 20.6033 20.0177 20.3105 20.3105C20.0177 20.6032 19.5429 20.6031 19.25 20.3105L17.8301 18.8906C17.5372 18.5977 17.5372 18.122 17.8301 17.8291ZM12 6C15.3137 6 18 8.68629 18 12C18 15.3137 15.3137 18 12 18C8.68629 18 6 15.3137 6 12C6 8.68629 8.68629 6 12 6ZM12 7.5C9.51472 7.5 7.5 9.51472 7.5 12C7.5 14.4853 9.51472 16.5 12 16.5C14.4853 16.5 16.5 14.4853 16.5 12C16.5 9.51472 14.4853 7.5 12 7.5ZM3 11.25C3.41421 11.25 3.75 11.5858 3.75 12C3.75 12.4142 3.41421 12.75 3 12.75H1C0.585786 12.75 0.25 12.4142 0.25 12C0.25 11.5858 0.585786 11.25 1 11.25H3ZM23 11.25C23.4142 11.25 23.75 11.5858 23.75 12C23.75 12.4142 23.4142 12.75 23 12.75H21C20.5858 12.75 20.25 12.4142 20.25 12C20.25 11.5858 20.5858 11.25 21 11.25H23ZM3.68945 3.68945C3.98223 3.3968 4.45712 3.39697 4.75 3.68945L6.16992 5.11035C6.46277 5.40325 6.4628 5.87802 6.16992 6.1709C5.87701 6.46341 5.40215 6.46363 5.10938 6.1709L3.68945 4.75098C3.39656 4.45808 3.39656 3.98235 3.68945 3.68945ZM19.25 3.68945C19.5429 3.39694 20.0177 3.39683 20.3105 3.68945C20.6034 3.98235 20.6034 4.45808 20.3105 4.75098L18.8906 6.1709C18.5978 6.4636 18.123 6.46344 17.8301 6.1709C17.5372 5.87803 17.5373 5.40325 17.8301 5.11035L19.25 3.68945ZM12 0.25C12.4142 0.25 12.75 0.585786 12.75 1V3C12.75 3.41421 12.4142 3.75 12 3.75C11.5858 3.75 11.25 3.41421 11.25 3V1C11.25 0.585786 11.5858 0.25 12 0.25Z" fill="#000001"/>
</g>
</svg>
