<svg width="24" height="24" viewBox="0 0 24 24" fill="none" xmlns="http://www.w3.org/2000/svg">
<g id="size=24">
<g id="Union">
<path d="M12 0.25C12.4142 0.25 12.75 0.585786 12.75 1V3C12.75 3.41421 12.4142 3.75 12 3.75C11.5858 3.75 11.25 3.41421 11.25 3V1C11.25 0.585786 11.5858 0.25 12 0.25Z" fill="#000001"/>
<path fill-rule="evenodd" clip-rule="evenodd" d="M6 12C6 8.68629 8.68629 6 12 6C15.3137 6 18 8.68629 18 12C18 15.3137 15.3137 18 12 18C8.68629 18 6 15.3137 6 12ZM12 7.5C9.51472 7.5 7.5 9.51472 7.5 12C7.5 14.4853 9.51472 16.5 12 16.5C14.4853 16.5 16.5 14.4853 16.5 12C16.5 9.51472 14.4853 7.5 12 7.5Z" fill="#000001"/>
<path d="M12.75 21C12.75 20.5858 12.4142 20.25 12 20.25C11.5858 20.25 11.25 20.5858 11.25 21V23C11.25 23.4142 11.5858 23.75 12 23.75C12.4142 23.75 12.75 23.4142 12.75 23V21Z" fill="#000001"/>
<path d="M3.68964 3.68988C3.98253 3.39699 4.45741 3.39699 4.7503 3.68988L6.1703 5.10988C6.46319 5.40278 6.46319 5.87765 6.1703 6.17054C5.87741 6.46344 5.40253 6.46344 5.10964 6.17054L3.68964 4.75055C3.39675 4.45765 3.39675 3.98278 3.68964 3.68988Z" fill="#000001"/>
<path d="M18.8904 17.8295C18.5975 17.5366 18.1227 17.5366 17.8298 17.8295C17.5369 18.1224 17.5369 18.5973 17.8298 18.8902L19.2498 20.3102C19.5427 20.6031 20.0175 20.6031 20.3104 20.3102C20.6033 20.0173 20.6033 19.5424 20.3104 19.2495L18.8904 17.8295Z" fill="#000001"/>
<path d="M0.25 12C0.25 11.5858 0.585786 11.25 1 11.25H3C3.41421 11.25 3.75 11.5858 3.75 12C3.75 12.4142 3.41421 12.75 3 12.75H1C0.585786 12.75 0.25 12.4142 0.25 12Z" fill="#000001"/>
<path d="M21 11.25C20.5858 11.25 20.25 11.5858 20.25 12C20.25 12.4142 20.5858 12.75 21 12.75H23C23.4142 12.75 23.75 12.4142 23.75 12C23.75 11.5858 23.4142 11.25 23 11.25H21Z" fill="#000001"/>
<path d="M6.1703 17.8295C6.46319 18.1224 6.46319 18.5973 6.1703 18.8902L4.7503 20.3102C4.45741 20.6031 3.98253 20.6031 3.68964 20.3102C3.39675 20.0173 3.39675 19.5424 3.68964 19.2495L5.10964 17.8295C5.40253 17.5366 5.87741 17.5366 6.1703 17.8295Z" fill="#000001"/>
<path d="M20.3104 4.75055C20.6033 4.45765 20.6033 3.98278 20.3104 3.68988C20.0175 3.39699 19.5427 3.39699 19.2498 3.68988L17.8298 5.10988C17.5369 5.40278 17.5369 5.87765 17.8298 6.17054C18.1227 6.46344 18.5975 6.46344 18.8904 6.17054L20.3104 4.75055Z" fill="#000001"/>
</g>
</g>
</svg>
