<svg width="16" height="16" viewBox="0 0 16 16" fill="none" xmlns="http://www.w3.org/2000/svg">
<g id="size=16">
<path id="Path" d="M8 0C12.4183 0 16 3.58172 16 8C16 12.4183 12.4183 16 8 16C3.58172 16 0 12.4183 0 8C0 3.58172 3.58172 0 8 0ZM10.248 11.3086C9.60734 11.7448 8.83353 12 8 12C7.16647 12 6.39266 11.7448 5.75195 11.3086L3.96484 13.0957C5.07343 13.9747 6.47531 14.5 8 14.5C9.52469 14.5 10.9266 13.9747 12.0352 13.0957L10.248 11.3086ZM2.9043 3.96484C2.02527 5.07343 1.5 6.47531 1.5 8C1.5 9.52469 2.02527 10.9266 2.9043 12.0352L4.69141 10.248C4.25523 9.60734 4 8.83353 4 8C4 7.16647 4.25523 6.39266 4.69141 5.75195L2.9043 3.96484ZM11.3086 5.75195C11.7448 6.39266 12 7.16647 12 8C12 8.83353 11.7448 9.60734 11.3086 10.248L13.0957 12.0352C13.9747 10.9266 14.5 9.52469 14.5 8C14.5 6.47531 13.9747 5.07343 13.0957 3.96484L11.3086 5.75195ZM8 5.5C6.61929 5.5 5.5 6.61929 5.5 8C5.5 9.38071 6.61929 10.5 8 10.5C9.38071 10.5 10.5 9.38071 10.5 8C10.5 6.61929 9.38071 5.5 8 5.5ZM8 1.5C6.47531 1.5 5.07343 2.02527 3.96484 2.9043L5.75195 4.69141C6.39266 4.25523 7.16647 4 8 4C8.83353 4 9.60734 4.25523 10.248 4.69141L12.0352 2.9043C10.9266 2.02527 9.52469 1.5 8 1.5Z" fill="#000001"/>
</g>
</svg>
