<svg width="24" height="24" viewBox="0 0 24 24" fill="none" xmlns="http://www.w3.org/2000/svg">
<g id="size=24">
<path id="Path" d="M14.75 11C15.1624 11.0022 15.5 11.3371 15.5 11.75V20.3633L18.4541 17.2354C18.7386 16.9361 19.2141 16.9216 19.5146 17.2051C19.813 17.4891 19.8267 17.9641 19.5449 18.2646L15.2949 22.7646C15.1542 22.9135 14.9547 22.9989 14.75 23C14.5447 22.9998 14.3455 22.9134 14.2041 22.7646L9.9541 18.2646C9.67054 17.9637 9.68412 17.4894 9.98438 17.2051C10.2855 16.9227 10.7611 16.9352 11.0449 17.2354L14 20.3633V11.75C14 11.336 14.3361 11.0004 14.75 11ZM9.25 1C9.45474 1.00111 9.65419 1.08652 9.79492 1.23535L14.0449 5.73535C14.3267 6.03588 14.313 6.51092 14.0146 6.79492C13.7141 7.0784 13.2386 7.06386 12.9541 6.76465L10 3.63672V12.25C10 12.6629 9.66235 12.9978 9.25 13C8.83609 12.9996 8.5 12.664 8.5 12.25V3.63672L5.54492 6.76465C5.2611 7.06481 4.78551 7.0773 4.48438 6.79492C4.18412 6.51064 4.17054 6.03629 4.4541 5.73535L8.7041 1.23535C8.84552 1.08665 9.04474 1.00018 9.25 1Z" fill="#000001"/>
</g>
</svg>
