<svg width="24" height="24" viewBox="0 0 24 24" fill="none" xmlns="http://www.w3.org/2000/svg">
<g id="size=24">
<path id="Path" fill-rule="evenodd" clip-rule="evenodd" d="M5.73535 8.95499C6.0363 8.67139 6.51064 8.68496 6.79492 8.98526C7.07867 9.28633 7.06531 9.76155 6.76465 10.0458L3.63672 13.0009H12.25C12.664 13.0009 12.9997 13.3369 13 13.7509C12.9992 14.1644 12.6637 14.5009 12.25 14.5009H3.63672L6.76465 17.455C7.06515 17.7394 7.07885 18.2146 6.79492 18.5155C6.51066 18.8157 6.03628 18.8293 5.73535 18.5458L1.23535 14.2958C1.08586 14.1545 1.00039 13.9566 1 13.7509C1.00016 13.545 1.08582 13.3465 1.23535 13.205L5.73535 8.95499ZM17.2051 5.48526C17.4894 5.18496 17.9637 5.17139 18.2646 5.45499L22.7646 9.70499C22.9142 9.8465 22.9998 10.045 23 10.2509C22.9996 10.4566 22.9141 10.6545 22.7646 10.7958L18.2646 15.0458C17.9637 15.3293 17.4893 15.3157 17.2051 15.0155C16.9211 14.7146 16.9348 14.2394 17.2354 13.955L20.3633 11.0009H11.75C11.3363 11.0009 11.0008 10.6644 11 10.2509C11.0003 9.83694 11.336 9.50089 11.75 9.50089H20.3633L17.2354 6.54581C16.9347 6.26155 16.9213 5.78633 17.2051 5.48526Z" fill="#000001"/>
</g>
</svg>
