<svg width="24" height="24" viewBox="0 0 24 24" fill="none" xmlns="http://www.w3.org/2000/svg">
<g id="size=24">
<path id="Path" fill-rule="evenodd" clip-rule="evenodd" d="M5.73535 8.95508C6.03631 8.67144 6.51063 8.68501 6.79492 8.98535C7.07868 9.28643 7.06534 9.76164 6.76465 10.0459L3.63672 13.001H12.25C12.664 13.001 12.9997 13.337 13 13.751C12.9992 14.1645 12.6637 14.501 12.25 14.501H3.63672L6.76465 17.4551C7.06516 17.7395 7.07888 18.2147 6.79492 18.5156C6.51066 18.8158 6.03628 18.8294 5.73535 18.5459L1.23535 14.2959C1.08584 14.1546 1.00039 13.9567 1 13.751C1.00015 13.5451 1.0858 13.3466 1.23535 13.2051L5.73535 8.95508ZM17.2051 5.48535C17.4894 5.18501 17.9637 5.17144 18.2646 5.45508L22.7646 9.70508C22.9142 9.8466 22.9999 10.0451 23 10.251C22.9996 10.4567 22.9142 10.6546 22.7646 10.7959L18.2646 15.0459C17.9637 15.3294 17.4893 15.3158 17.2051 15.0156C16.9211 14.7147 16.9348 14.2395 17.2354 13.9551L20.3633 11.001H11.75C11.3363 11.001 11.0008 10.6645 11 10.251C11.0003 9.83701 11.336 9.50098 11.75 9.50098H20.3633L17.2354 6.5459C16.9347 6.26164 16.9213 5.78643 17.2051 5.48535Z" fill="#000001"/>
</g>
</svg>
