<svg width="16" height="16" viewBox="0 0 16 16" fill="none" xmlns="http://www.w3.org/2000/svg">
<g id="size=16">
<g id="Union">
<path d="M1.45041 3.73966C1.16856 4.04319 1.18613 4.51774 1.48966 4.7996C1.7932 5.08145 2.26775 5.06387 2.5496 4.76034L4.5 2.65991V8.25C4.5 8.66422 4.83579 9 5.25 9C5.66421 9 6 8.66422 6 8.25V2.6599L7.95041 4.76034C8.23226 5.06387 8.70681 5.08145 9.01034 4.7996C9.31388 4.51774 9.33145 4.04319 9.0496 3.73966L5.7996 0.239662C5.65769 0.0868363 5.45856 0 5.25 0C5.04145 0 4.84232 0.0868363 4.70041 0.239662L1.45041 3.73966Z" fill="#000001"/>
<path d="M10.75 7C10.3358 7 10 7.33579 10 7.75V13.3401L8.04959 11.2397C7.76774 10.9361 7.29319 10.9186 6.98966 11.2004C6.68613 11.4823 6.66855 11.9568 6.9504 12.2603L10.2004 15.7603C10.3423 15.9132 10.5414 16 10.75 16C10.9585 16 11.1577 15.9132 11.2996 15.7603L14.5496 12.2603C14.8314 11.9568 14.8139 11.4823 14.5103 11.2004C14.2068 10.9186 13.7323 10.9361 13.4504 11.2397L11.5 13.3401V7.75C11.5 7.33579 11.1642 7 10.75 7Z" fill="#000001"/>
</g>
</g>
</svg>
