<svg width="16" height="16" viewBox="0 0 16 16" fill="none" xmlns="http://www.w3.org/2000/svg">
<g id="size=16">
<g id="Union">
<path d="M12.2603 1.45041C11.9568 1.16856 11.4823 1.18613 11.2004 1.48966C10.9186 1.7932 10.9361 2.26775 11.2397 2.5496L13.3401 4.5H7.75C7.33579 4.5 7 4.83579 7 5.25C7 5.66421 7.33579 6 7.75 6H13.3401L11.2397 7.95041C10.9361 8.23226 10.9186 8.70681 11.2004 9.01034C11.4823 9.31388 11.9568 9.33145 12.2603 9.0496L15.7603 5.7996C15.9132 5.65769 16 5.45856 16 5.25C16 5.04145 15.9132 4.84232 15.7603 4.70041L12.2603 1.45041Z" fill="#000001"/>
<path d="M2.6599 10L4.76034 8.04959C5.06387 7.76774 5.08145 7.29319 4.7996 6.98966C4.51774 6.68613 4.04319 6.66855 3.73966 6.9504L0.239662 10.2004C0.0868363 10.3423 0 10.5414 0 10.75C0 10.9585 0.0868363 11.1577 0.239662 11.2996L3.73966 14.5496C4.04319 14.8314 4.51774 14.8139 4.7996 14.5103C5.08145 14.2068 5.06387 13.7323 4.76034 13.4504L2.65991 11.5H8.25C8.66422 11.5 9 11.1642 9 10.75C9 10.3358 8.66422 10 8.25 10H2.6599Z" fill="#000001"/>
</g>
</g>
</svg>
