<svg width="16" height="16" viewBox="0 0 16 16" fill="none" xmlns="http://www.w3.org/2000/svg">
<g id="size=16">
<path id="Path" d="M0.75 7.25C1.16421 7.25 1.5 7.58579 1.5 8C1.5 11.5899 4.41015 14.5 8 14.5C9.84308 14.5 11.5067 13.7336 12.6904 12.5H11.25C10.8358 12.5 10.5 12.1642 10.5 11.75C10.5 11.3358 10.8358 11 11.25 11H14.25C14.6642 11 15 11.3358 15 11.75V14.75C15 15.1642 14.6642 15.5 14.25 15.5C13.8358 15.5 13.5 15.1642 13.5 14.75V13.8096C12.067 15.1665 10.1306 16 8 16C3.58172 16 0 12.4183 0 8C0 7.58579 0.335786 7.25 0.75 7.25ZM8 0C12.4183 0 16 3.58172 16 8C16 8.41421 15.6642 8.75 15.25 8.75C14.8358 8.75 14.5 8.41421 14.5 8C14.5 4.41015 11.5899 1.5 8 1.5C6.15658 1.5 4.49342 2.26641 3.30957 3.5H4.75C5.16421 3.5 5.5 3.83579 5.5 4.25C5.5 4.66421 5.16421 5 4.75 5H1.75C1.33579 5 1 4.66421 1 4.25V1.25C1 0.835786 1.33579 0.5 1.75 0.5C2.16421 0.5 2.5 0.835786 2.5 1.25V2.19043C3.93299 0.833452 5.86974 0 8 0Z" fill="#000001"/>
</g>
</svg>
