<svg width="24" height="24" viewBox="0 0 24 24" fill="none" xmlns="http://www.w3.org/2000/svg">
<g id="size=24">
<path id="Path" d="M2.75 11.25C3.16421 11.25 3.5 11.5858 3.5 12C3.5 16.6944 7.30558 20.5 12 20.5C14.5963 20.5 16.9214 19.3365 18.4814 17.5H15.75C15.3358 17.5 15 17.1642 15 16.75C15 16.3358 15.3358 16 15.75 16H20.25C20.6642 16 21 16.3358 21 16.75V21.25C21 21.6642 20.6642 22 20.25 22C19.8358 22 19.5 21.6642 19.5 21.25V18.6143C17.6684 20.6894 14.9873 22 12 22C6.47715 22 2 17.5228 2 12C2 11.5858 2.33579 11.25 2.75 11.25ZM12 2C17.5228 2 22 6.47715 22 12C22 12.4142 21.6642 12.75 21.25 12.75C20.8358 12.75 20.5 12.4142 20.5 12C20.5 7.30558 16.6944 3.5 12 3.5C9.40373 3.5 7.07847 4.6636 5.51855 6.5H8.25C8.66421 6.5 9 6.83579 9 7.25C9 7.66421 8.66421 8 8.25 8H3.75C3.33579 8 3 7.66421 3 7.25V2.75C3 2.33579 3.33579 2 3.75 2C4.16421 2 4.5 2.33579 4.5 2.75V5.38574C6.33164 3.31056 9.01261 2 12 2Z" fill="#000001"/>
</g>
</svg>
