<svg width="16" height="16" viewBox="0 0 16 16" fill="none" xmlns="http://www.w3.org/2000/svg">
<g id="size=16">
<path id="Path" d="M15.25 7.25C15.6642 7.25 16 7.58579 16 8C16 12.4183 12.4183 16 8 16C5.86941 16 3.93304 15.1665 2.5 13.8096V14.75C2.5 15.1642 2.16421 15.5 1.75 15.5C1.33579 15.5 1 15.1642 1 14.75V11.75C1 11.3358 1.33579 11 1.75 11H4.75C5.16421 11 5.5 11.3358 5.5 11.75C5.5 12.1642 5.16421 12.5 4.75 12.5H3.30957C4.4933 13.7336 6.15692 14.5 8 14.5C11.5899 14.5 14.5 11.5899 14.5 8C14.5 7.58579 14.8358 7.25 15.25 7.25ZM8.00684 10C8.55904 10.0001 9.00684 10.4478 9.00684 11C9.00684 11.5522 8.55904 11.9999 8.00684 12H8C7.44772 12 7 11.5523 7 11C7 10.4477 7.44772 10 8 10H8.00684ZM8 4C8.41421 4 8.75 4.33579 8.75 4.75V8.25C8.75 8.66421 8.41421 9 8 9C7.58579 9 7.25 8.66421 7.25 8.25V4.75C7.25 4.33579 7.58579 4 8 4ZM8 0C10.1303 0 12.067 0.833452 13.5 2.19043V1.25C13.5 0.835786 13.8358 0.5 14.25 0.5C14.6642 0.5 15 0.835786 15 1.25V4.25C15 4.66421 14.6642 5 14.25 5H11.25C10.8358 5 10.5 4.66421 10.5 4.25C10.5 3.83579 10.8358 3.5 11.25 3.5H12.6904C11.5066 2.26641 9.84342 1.5 8 1.5C4.41015 1.5 1.5 4.41015 1.5 8C1.5 8.41421 1.16421 8.75 0.75 8.75C0.335786 8.75 0 8.41421 0 8C0 3.58172 3.58172 0 8 0Z" fill="#000001"/>
</g>
</svg>
