<svg width="16" height="16" viewBox="0 0 16 16" fill="none" xmlns="http://www.w3.org/2000/svg">
<g id="size=16">
<path id="Path" d="M15.2498 7.24989C15.6639 7.24989 15.9997 7.58576 15.9998 7.99988C15.9998 12.4181 12.4181 15.9998 7.99988 15.9998C5.86933 15.9998 3.93298 15.1663 2.49996 13.8094V14.7498C2.49996 15.164 2.16418 15.4998 1.74997 15.4998C1.33577 15.4998 0.999985 15.164 0.999985 14.7498V11.7498C1.00009 11.3357 1.33584 10.9998 1.74997 10.9998H4.74993C5.16407 10.9998 5.49981 11.3357 5.49992 11.7498C5.49992 12.164 5.16413 12.4998 4.74993 12.4998H3.30952C4.49323 13.7334 6.15683 14.4998 7.99988 14.4998C11.5897 14.4998 14.4998 11.5897 14.4998 7.99988C14.4999 7.58577 14.8356 7.2499 15.2498 7.24989ZM7.99988 0C10.1301 0 12.0668 0.833499 13.4998 2.1904V1.24998C13.4999 0.835869 13.8356 0.500001 14.2498 0.499992C14.6639 0.499992 14.9997 0.835864 14.9998 1.24998V4.24994C14.9998 4.66414 14.664 4.99992 14.2498 4.99992H11.2498C10.8356 4.99991 10.4998 4.66414 10.4998 4.24994C10.4999 3.83582 10.8357 3.49996 11.2498 3.49995H12.6902C11.5064 2.26644 9.84322 1.49998 7.99988 1.49998C4.41015 1.49999 1.50008 4.41018 1.49998 7.99988C1.49998 8.41408 1.1642 8.74987 0.749989 8.74987C0.335789 8.74986 0 8.41408 0 7.99988C0.000106234 3.58176 3.58174 8.8261e-06 7.99988 0Z" fill="#000001"/>
</g>
</svg>
