<svg width="24" height="24" viewBox="0 0 24 24" fill="none" xmlns="http://www.w3.org/2000/svg">
<g id="size=24">
<path id="Path" d="M21.25 11.2498C21.6642 11.2498 21.9999 11.5857 22 11.9998C22 17.5227 17.5228 21.9998 12 21.9998C9.01269 21.9998 6.33155 20.6892 4.5 18.6141V21.2498C4.5 21.664 4.16421 21.9998 3.75 21.9998C3.33581 21.9998 3 21.664 3 21.2498V16.7498C3.00009 16.3357 3.33586 15.9998 3.75 15.9998H8.25C8.66416 15.9998 8.99991 16.3357 9 16.7498C9 17.164 8.66421 17.4998 8.25 17.4998H5.51855C7.07855 19.3363 9.4037 20.4998 12 20.4998C16.6944 20.4998 20.5 16.6942 20.5 11.9998C20.5001 11.5857 20.8359 11.2498 21.25 11.2498ZM20.25 1.99982C20.6642 1.99982 20.9999 2.33568 21 2.74982V7.24982C21 7.66403 20.6642 7.99982 20.25 7.99982H15.75C15.3358 7.99979 15 7.66402 15 7.24982C15.0001 6.8357 15.3359 6.49984 15.75 6.49982H18.4814C16.9215 4.66348 14.5962 3.49982 12 3.49982C7.30566 3.49984 3.50009 7.30549 3.5 11.9998C3.5 12.414 3.16421 12.7498 2.75 12.7498C2.33581 12.7498 2 12.414 2 11.9998C2.00009 6.47706 6.47723 1.99984 12 1.99982C14.9873 1.99982 17.6684 3.31044 19.5 5.38556V2.74982C19.5001 2.3357 19.8359 1.99984 20.25 1.99982Z" fill="#000001"/>
</g>
</svg>
