<svg width="16" height="16" viewBox="0 0 16 16" fill="none" xmlns="http://www.w3.org/2000/svg">
<g id="size=16">
<path id="Path" d="M15.2498 7.25013C15.664 7.25013 15.9998 7.58592 15.9998 8.00012C15.9996 12.4182 12.418 16 7.99988 16C5.8694 16 3.93296 15.1665 2.49996 13.8096V14.75C2.4998 15.1641 2.16408 15.5 1.74997 15.5C1.33588 15.5 1.00014 15.1641 0.999985 14.75V11.7501C0.999985 11.3359 1.33578 11.0001 1.74997 11.0001H4.74993C5.16413 11.0001 5.49992 11.3359 5.49992 11.7501C5.49976 12.1641 5.16404 12.5001 4.74993 12.5001H3.30952C4.49322 13.7335 6.1569 14.5 7.99988 14.5C11.5896 14.5 14.4996 11.5898 14.4998 8.00012C14.4998 7.58592 14.8356 7.25015 15.2498 7.25013ZM7.99988 0.000244137C10.1301 0.000244137 12.0668 0.833683 13.4998 2.19064V1.25023C13.4998 0.836027 13.8356 0.500251 14.2498 0.500237C14.664 0.500237 14.9998 0.836018 14.9998 1.25023V4.25018C14.9996 4.66425 14.6639 5.00017 14.2498 5.00017H11.2498C10.8357 5.00015 10.5 4.66424 10.4998 4.25018C10.4998 3.83598 10.8356 3.50021 11.2498 3.50019H12.6902C11.5064 2.26662 9.84327 1.50022 7.99988 1.50022C4.41009 1.50024 1.49998 4.41034 1.49998 8.00012C1.49982 8.41419 1.1641 8.75011 0.749989 8.75011C0.335891 8.7501 0.000157658 8.41419 0 8.00012C0 3.58192 3.58168 0.000258505 7.99988 0.000244137Z" fill="#000001"/>
</g>
</svg>
