<svg width="24" height="24" viewBox="0 0 24 24" fill="none" xmlns="http://www.w3.org/2000/svg">
<g id="size=24">
<g id="Path">
<path d="M12 17C11.4477 17 11 17.4477 11 18C11 18.5523 11.4477 19 12 19H12.01C12.5623 19 13.01 18.5523 13.01 18C13.01 17.4477 12.5623 17 12.01 17H12Z" fill="#000001"/>
<path fill-rule="evenodd" clip-rule="evenodd" d="M3.75 3C2.23122 3 1 4.23122 1 5.75V18.25C1 19.7688 2.23122 21 3.75 21H20.25C21.7688 21 23 19.7688 23 18.25V5.75C23 4.23122 21.7688 3 20.25 3H3.75ZM2.5 5.75C2.5 5.05964 3.05964 4.5 3.75 4.5H20.25C20.9404 4.5 21.5 5.05964 21.5 5.75V18.25C21.5 18.9404 20.9404 19.5 20.25 19.5H3.75C3.05964 19.5 2.5 18.9404 2.5 18.25V5.75Z" fill="#000001"/>
</g>
</g>
</svg>
