<svg width="16" height="16" viewBox="0 0 16 16" fill="none" xmlns="http://www.w3.org/2000/svg">
<g id="size=16">
<path id="Path" d="M13.75 1C14.9926 1 16 2.00736 16 3.25V12.75C16 13.9926 14.9926 15 13.75 15H2.25C1.00736 15 0 13.9926 0 12.75V3.25C0 2.00736 1.00736 1 2.25 1H13.75ZM2.25 2.5C1.83579 2.5 1.5 2.83579 1.5 3.25V12.75C1.5 13.1642 1.83579 13.5 2.25 13.5H13.75C14.1642 13.5 14.5 13.1642 14.5 12.75V3.25C14.5 2.83579 14.1642 2.5 13.75 2.5H2.25ZM8.00977 11C8.56205 11 9.00977 11.4477 9.00977 12C9.00977 12.5523 8.56205 13 8.00977 13H8C7.44772 13 7 12.5523 7 12C7 11.4477 7.44772 11 8 11H8.00977Z" fill="#000001"/>
</g>
</svg>
