<svg width="24" height="24" viewBox="0 0 24 24" fill="none" xmlns="http://www.w3.org/2000/svg">
<g id="size=24">
<path id="Path" d="M11.1719 2C11.9011 2.00008 12.6006 2.29001 13.1162 2.80566L21.1162 10.8057C22.19 11.8796 22.19 13.6204 21.1162 14.6943L14.6943 21.1162C13.6204 22.19 11.8796 22.19 10.8057 21.1162L2.80566 13.1162C2.29001 12.6006 2.00008 11.9011 2 11.1719V4.75C2 3.23122 3.23122 2 4.75 2H11.1719ZM4.75 3.5C4.05964 3.5 3.5 4.05964 3.5 4.75V11.1719C3.50008 11.5033 3.63186 11.8213 3.86621 12.0557L11.8662 20.0557C12.3543 20.5436 13.1457 20.5436 13.6338 20.0557L20.0557 13.6338C20.5436 13.1457 20.5436 12.3543 20.0557 11.8662L12.0557 3.86621C11.8213 3.63186 11.5033 3.50008 11.1719 3.5H4.75ZM6.00977 5C6.56205 5 7.00977 5.44772 7.00977 6C7.00977 6.55228 6.56205 7 6.00977 7H6C5.44772 7 5 6.55228 5 6C5 5.44772 5.44772 5 6 5H6.00977Z" fill="#000001"/>
</g>
</svg>
