<svg width="16" height="16" viewBox="0 0 16 16" fill="none" xmlns="http://www.w3.org/2000/svg">
<g id="size=16">
<path id="Path" d="M8.00024 0.000335683C12.4182 0.000516135 16 3.58206 16 8.00009C15.9998 12.418 12.4181 15.9997 8.00024 15.9998C3.58221 15.9998 0.000668722 12.4181 0.000488266 8.00009C0.000488266 3.58195 3.5821 0.000335683 8.00024 0.000335683ZM8.00024 1.50029C4.4105 1.50029 1.50044 4.41035 1.50044 8.00009C1.50062 11.5897 4.41061 14.4999 8.00024 14.4999C11.5897 14.4997 14.4999 11.5896 14.5 8.00009C14.5 4.41046 11.5898 1.50047 8.00024 1.50029ZM8.00024 3.00024C10.7614 3.00042 13.0001 5.23886 13.0001 8.00009C12.9999 10.7612 10.7613 12.9998 8.00024 12.9999C5.23902 12.9999 3.00058 10.7613 3.0004 8.00009C3.0004 5.23875 5.2389 3.00024 8.00024 3.00024ZM8.00024 4.5002C6.06731 4.5002 4.50035 6.06715 4.50035 8.00009C4.50053 9.93288 6.06742 11.5 8.00024 11.5C9.93292 11.4998 11.5 9.93276 11.5001 8.00009C11.5001 6.06726 9.93303 4.50038 8.00024 4.5002ZM8.00024 6.00015C9.10463 6.00033 10.0002 6.89567 10.0002 8.00009C10 9.10436 9.10451 9.99985 8.00024 10C6.89582 10 6.00049 9.10447 6.00031 8.00009C6.00031 6.89556 6.89571 6.00015 8.00024 6.00015ZM8.00024 7.50011C7.72411 7.50011 7.50026 7.72396 7.50026 8.00009C7.50044 8.27607 7.72422 8.50008 8.00024 8.50008C8.27611 8.4999 8.50005 8.27596 8.50023 8.00009C8.50023 7.72407 8.27622 7.50029 8.00024 7.50011Z" fill="#000001"/>
</g>
</svg>
