<svg width="24" height="24" viewBox="0 0 24 24" fill="none" xmlns="http://www.w3.org/2000/svg">
<g id="size=24">
<path id="Path" d="M20.25 2C21.7688 2 23 3.23122 23 4.75V19.25C23 20.7688 21.7688 22 20.25 22H3.75C2.23122 22 1 20.7688 1 19.25V4.75C1 3.23122 2.23122 2 3.75 2H20.25ZM3.75 3.5C3.05964 3.5 2.5 4.05964 2.5 4.75V19.25C2.5 19.9404 3.05964 20.5 3.75 20.5H20.25C20.9404 20.5 21.5 19.9404 21.5 19.25V4.75C21.5 4.05964 20.9404 3.5 20.25 3.5H3.75ZM17.25 16C17.6642 16 18 16.3358 18 16.75C18 17.1642 17.6642 17.5 17.25 17.5H11.75C11.3358 17.5 11 17.1642 11 16.75C11 16.3358 11.3358 16 11.75 16H17.25ZM6.17383 7.26953C6.43903 6.9515 6.91233 6.90871 7.23047 7.17383L11.7305 10.9238C11.9014 11.0663 12 11.2775 12 11.5C12 11.7225 11.9013 11.9337 11.7305 12.0762L7.23047 15.8262C6.91232 16.0913 6.43903 16.0485 6.17383 15.7305C5.90871 15.4123 5.9515 14.939 6.26953 14.6738L10.0781 11.5L6.26953 8.32617C5.95152 8.06097 5.90871 7.58767 6.17383 7.26953Z" fill="#000001"/>
</g>
</svg>
