<svg width="24" height="24" viewBox="0 0 24 24" fill="none" xmlns="http://www.w3.org/2000/svg">
<g id="size=24">
<path id="Path" fill-rule="evenodd" clip-rule="evenodd" d="M20.25 18.0001C20.6639 18.0004 20.9999 18.3362 21 18.7501C20.9997 19.1639 20.6638 19.4998 20.25 19.5001H11.75C11.336 19.5 11.0003 19.164 11 18.7501C11.0001 18.336 11.3359 18.0002 11.75 18.0001H20.25ZM3.17381 4.26964C3.43901 3.95175 3.91235 3.90893 4.23045 4.17394L11.7305 10.4239C11.901 10.5664 11.9999 10.7779 12 11.0001C11.9998 11.2224 11.9011 11.4339 11.7305 11.5763L4.23045 17.8263C3.91245 18.0912 3.43905 18.0482 3.17381 17.7306C2.9088 17.4125 2.95164 16.9391 3.26952 16.6739L10.0781 11.0001L3.26952 5.32628C2.9517 5.06109 2.90889 4.58772 3.17381 4.26964Z" fill="#000001"/>
</g>
</svg>
