<svg width="16" height="16" viewBox="0 0 16 16" fill="none" xmlns="http://www.w3.org/2000/svg">
<g id="size=16">
<path id="Path" fill-rule="evenodd" clip-rule="evenodd" d="M13.25 12C13.6641 12.0001 13.9999 12.3359 14 12.75C13.9999 13.1641 13.6641 13.4999 13.25 13.5H7.74999C7.33592 13.4999 7.00006 13.1641 6.99999 12.75C7.00008 12.3359 7.33593 12.0001 7.74999 12H13.25ZM2.17382 3.26952C2.439 2.95159 2.91234 2.90883 3.23046 3.17382L7.73046 6.92382C7.90125 7.06628 7.99994 7.27759 7.99999 7.49999C7.99995 7.72241 7.90126 7.9337 7.73046 8.07616L3.23046 11.8262C2.91234 12.0912 2.43901 12.0484 2.17382 11.7305C1.90882 11.4123 1.9516 10.939 2.26952 10.6738L6.07812 7.49999L2.26952 4.32616C1.95171 4.06094 1.90881 3.58759 2.17382 3.26952Z" fill="#000001"/>
</g>
</svg>
