<svg width="24" height="24" viewBox="0 0 24 24" fill="none" xmlns="http://www.w3.org/2000/svg">
<g id="size=24">
<g id="Path">
<path d="M6.17385 7.26988C6.43903 6.95167 6.91195 6.90868 7.23016 7.17385L11.7302 10.9239C11.9012 11.0663 12 11.2774 12 11.5C12 11.7226 11.9012 11.9337 11.7302 12.0762L7.23016 15.8262C6.91195 16.0914 6.43903 16.0484 6.17385 15.7302C5.90868 15.4119 5.95167 14.939 6.26988 14.6739L10.0785 11.5L6.26988 8.32618C5.95167 8.06101 5.90868 7.58809 6.17385 7.26988Z" fill="#000001"/>
<path d="M11.75 16C11.3358 16 11 16.3358 11 16.75C11 17.1642 11.3358 17.5 11.75 17.5H17.25C17.6642 17.5 18 17.1642 18 16.75C18 16.3358 17.6642 16 17.25 16H11.75Z" fill="#000001"/>
<path fill-rule="evenodd" clip-rule="evenodd" d="M1 4.75C1 3.23122 2.23122 2 3.75 2H20.25C21.7688 2 23 3.23122 23 4.75V19.25C23 20.7688 21.7688 22 20.25 22H3.75C2.23122 22 1 20.7688 1 19.25V4.75ZM3.75 3.5C3.05964 3.5 2.5 4.05964 2.5 4.75V19.25C2.5 19.9404 3.05964 20.5 3.75 20.5H20.25C20.9404 20.5 21.5 19.9404 21.5 19.25V4.75C21.5 4.05964 20.9404 3.5 20.25 3.5H3.75Z" fill="#000001"/>
</g>
</g>
</svg>
