<svg width="16" height="16" viewBox="0 0 16 16" fill="none" xmlns="http://www.w3.org/2000/svg">
<g id="size=16">
<path id="Path" fill-rule="evenodd" clip-rule="evenodd" d="M13.25 12.0001C13.664 12.0003 13.9999 12.3361 14 12.7501C13.9999 13.1641 13.664 13.4999 13.25 13.5001H7.74999C7.33596 13.5 7.00011 13.1641 6.99999 12.7501C7.00008 12.3361 7.33593 12.0002 7.74999 12.0001H13.25ZM2.17382 3.26965C2.439 2.95172 2.91234 2.90895 3.23046 3.17394L7.73046 6.92394C7.90117 7.0664 7.99994 7.27776 7.99999 7.50011C7.99992 7.72249 7.90122 7.93384 7.73046 8.07629L3.23046 11.8263C2.91238 12.0913 2.43903 12.0484 2.17382 11.7306C1.90882 11.4125 1.9516 10.9391 2.26952 10.6739L6.07812 7.50011L2.26952 4.32629C1.95171 4.06106 1.90881 3.58772 2.17382 3.26965Z" fill="#000001"/>
</g>
</svg>
