<svg width="16" height="16" viewBox="0 0 16 16" fill="none" xmlns="http://www.w3.org/2000/svg">
<g id="size=16">
<path id="Path" fill-rule="evenodd" clip-rule="evenodd" d="M13.25 12.0001C13.664 12.0002 13.9999 12.336 14 12.7501C13.9999 13.1641 13.664 13.4999 13.25 13.5001H7.74999C7.33594 13.4999 7.0001 13.1641 6.99999 12.7501C7.00008 12.336 7.33593 12.0002 7.74999 12.0001H13.25ZM2.17382 3.26959C2.439 2.95166 2.91234 2.90889 3.23046 3.17388L7.73046 6.92388C7.9012 7.06634 7.99994 7.27768 7.99999 7.50005C7.99993 7.72244 7.90123 7.93377 7.73046 8.07623L3.23046 11.8262C2.91236 12.0912 2.43903 12.0484 2.17382 11.7305C1.90882 11.4124 1.9516 10.9391 2.26952 10.6739L6.07812 7.50005L2.26952 4.32623C1.95171 4.061 1.90881 3.58765 2.17382 3.26959Z" fill="#000001"/>
</g>
</svg>
