<svg width="16" height="16" viewBox="0 0 16 16" fill="none" xmlns="http://www.w3.org/2000/svg">
<g id="size=16">
<path id="Path" d="M13.75 1C14.9926 1 16 2.00736 16 3.25V12.75C16 13.9926 14.9926 15 13.75 15H2.25C1.00736 15 0 13.9926 0 12.75V3.25C0 2.00736 1.00736 1 2.25 1H13.75ZM2.25 2.5C1.83579 2.5 1.5 2.83579 1.5 3.25V12.75C1.5 13.1642 1.83579 13.5 2.25 13.5H13.75C14.1642 13.5 14.5 13.1642 14.5 12.75V3.25C14.5 2.83579 14.1642 2.5 13.75 2.5H2.25ZM11.25 10.5C11.6642 10.5 12 10.8358 12 11.25C12 11.6642 11.6642 12 11.25 12H8.25C7.83579 12 7.5 11.6642 7.5 11.25C7.5 10.8358 7.83579 10.5 8.25 10.5H11.25ZM3.92383 5.01953C4.18903 4.7015 4.66233 4.65871 4.98047 4.92383L7.98047 7.42383C8.15135 7.56632 8.24999 7.7775 8.25 8C8.25 8.2225 8.15135 8.43368 7.98047 8.57617L4.98047 11.0762C4.66232 11.3413 4.18903 11.2985 3.92383 10.9805C3.65871 10.6623 3.7015 10.189 4.01953 9.92383L6.32812 8L4.01953 6.07617C3.70152 5.81097 3.65871 5.33767 3.92383 5.01953Z" fill="#000001"/>
</g>
</svg>
