<svg width="16" height="16" viewBox="0 0 16 16" fill="none" xmlns="http://www.w3.org/2000/svg">
<g id="size=16">
<path id="Path" fill-rule="evenodd" clip-rule="evenodd" d="M2 0C0.895431 0 0 0.895431 0 2V14C0 15.1046 0.895431 16 2 16H14C15.1046 16 16 15.1046 16 14V2C16 0.895431 15.1046 0 14 0H2ZM3.625 6.15663V3L6.34288 4.57873V7.73536L3.625 6.15663ZM6.64067 4.76207L9.35938 6.33997V9.49742L6.64067 7.91869V4.76207ZM9.6571 9.49742V6.33997L12.375 4.76207V7.91869L9.6571 9.49742ZM6.64067 11.4213L9.35855 13V9.84337L6.64067 8.26464V11.4213Z" fill="#000001"/>
</g>
</svg>
