<svg width="16" height="16" viewBox="0 0 16 16" fill="none" xmlns="http://www.w3.org/2000/svg">
<g id="size=16">
<g id="Path">
<path d="M6.64067 4.76207L9.35937 6.33997V9.49742L6.64067 7.91869V4.76207Z" fill="#7B42BC"/>
<path d="M9.65709 9.49742V6.33997L12.375 4.76207V7.91869L9.65709 9.49742Z" fill="#7B42BC"/>
<path d="M3.625 3V6.15663L6.34288 7.73536V4.57873L3.625 3Z" fill="#7B42BC"/>
<path d="M9.35855 13L6.64067 11.4213V8.26464L9.35855 9.84337V13Z" fill="#7B42BC"/>
<path fill-rule="evenodd" clip-rule="evenodd" d="M0.145325 0.728013C0 1.01323 0 1.3866 0 2.13333V13.8667C0 14.6134 0 14.9868 0.145325 15.272C0.273156 15.5229 0.47713 15.7268 0.728013 15.8547C1.01323 16 1.3866 16 2.13333 16H13.8667C14.6134 16 14.9868 16 15.272 15.8547C15.5229 15.7268 15.7268 15.5229 15.8547 15.272C16 14.9868 16 14.6134 16 13.8667V2.13333C16 1.3866 16 1.01323 15.8547 0.728013C15.7268 0.47713 15.5229 0.273156 15.272 0.145325C14.9868 0 14.6134 0 13.8667 0H2.13333C1.3866 0 1.01323 0 0.728013 0.145325C0.47713 0.273156 0.273156 0.47713 0.145325 0.728013ZM13.8667 0.666667H2.13333C1.74896 0.666667 1.50078 0.667185 1.31189 0.682618C1.13078 0.697415 1.06364 0.722534 1.03067 0.739329C0.905232 0.803245 0.803245 0.905232 0.739329 1.03067C0.722534 1.06364 0.697415 1.13078 0.682618 1.31189C0.667185 1.50078 0.666667 1.74897 0.666667 2.13333V13.8667C0.666667 14.251 0.667185 14.4992 0.682618 14.6881C0.697415 14.8692 0.722534 14.9364 0.739329 14.9693C0.803245 15.0948 0.905232 15.1968 1.03067 15.2607C1.06364 15.2775 1.13078 15.3026 1.31189 15.3174C1.50078 15.3328 1.74896 15.3333 2.13333 15.3333H13.8667C14.251 15.3333 14.4992 15.3328 14.6881 15.3174C14.8692 15.3026 14.9364 15.2775 14.9693 15.2607C15.0948 15.1968 15.1968 15.0948 15.2607 14.9693C15.2775 14.9364 15.3026 14.8692 15.3174 14.6881C15.3328 14.4992 15.3333 14.251 15.3333 13.8667V2.13333C15.3333 1.74896 15.3328 1.50078 15.3174 1.31189C15.3026 1.13078 15.2775 1.06364 15.2607 1.03067C15.1968 0.905232 15.0948 0.803245 14.9693 0.739329C14.9364 0.722534 14.8692 0.697415 14.6881 0.682618C14.4992 0.667185 14.251 0.666667 13.8667 0.666667Z" fill="#7B42BC"/>
</g>
</g>
</svg>
