<svg width="24" height="24" viewBox="0 0 24 24" fill="none" xmlns="http://www.w3.org/2000/svg">
<g id="size=24">
<path id="Path" fill-rule="evenodd" clip-rule="evenodd" d="M2 0C0.895431 0 0 0.89543 0 2V22C0 23.1046 0.89543 24 2 24H22C23.1046 24 24 23.1046 24 22V2C24 0.895431 23.1046 0 22 0H2ZM5 9.05061V4L9.34861 6.52597V11.5766L5 9.05061ZM9.82507 6.81931L14.175 9.34394V14.3959L9.82507 11.8699V6.81931ZM14.6514 9.34394L19 6.81931V11.8699L14.6514 14.3959V9.34394ZM9.82507 17.474L14.1737 20V14.9494L9.82507 12.4234V17.474Z" fill="#000001"/>
</g>
</svg>
