<svg width="16" height="16" viewBox="0 0 16 16" fill="none" xmlns="http://www.w3.org/2000/svg">
<g id="size=16">
<g id="Path">
<path d="M1.75 1C2.16421 1 2.5 1.33579 2.5 1.75V14.25C2.5 14.6642 2.16421 15 1.75 15C1.33579 15 1 14.6642 1 14.25V1.75C1 1.33579 1.33579 1 1.75 1Z" fill="#000001"/>
<path d="M14.25 1C14.6642 1 15 1.33579 15 1.75V14.25C15 14.6642 14.6642 15 14.25 15C13.8358 15 13.5 14.6642 13.5 14.25V1.75C13.5 1.33579 13.8358 1 14.25 1Z" fill="#000001"/>
<path d="M9.17578 5.00391C10.0425 5.04428 10.7341 5.38338 11.2314 5.89941C11.7867 6.47558 12 7.22154 12 8C12 8.76646 11.8069 9.51811 11.2217 10.1035C10.6908 10.6344 9.97041 11 9 11H7.36816L7.52148 11.1465L7.57422 11.2021C7.82045 11.4915 7.81239 11.9258 7.54395 12.2061C7.27533 12.4863 6.84159 12.513 6.54199 12.2793L6.48438 12.2285L4.98438 10.791L4.93164 10.7354C4.90241 10.701 4.87641 10.6638 4.85352 10.624C4.84928 10.6167 4.84576 10.609 4.8418 10.6016C4.83058 10.5805 4.81885 10.5595 4.80957 10.5371C4.80613 10.5288 4.8039 10.5201 4.80078 10.5117C4.79541 10.4973 4.79156 10.4824 4.78711 10.4678C4.77851 10.4396 4.7708 10.4115 4.76562 10.3828C4.76365 10.3718 4.76222 10.3607 4.76074 10.3496C4.74382 10.2238 4.7584 10.0968 4.80371 9.97949C4.80833 9.96755 4.81408 9.95608 4.81934 9.94434C4.8325 9.91485 4.84723 9.88617 4.86426 9.8584C4.86945 9.84996 4.87432 9.84129 4.87988 9.83301C4.90668 9.793 4.93677 9.75465 4.97168 9.71973L6.47168 8.21973L6.5293 8.16797C6.82382 7.92805 7.25774 7.9454 7.53223 8.21973C7.80687 8.49438 7.82442 8.92905 7.58398 9.22363L7.53223 9.28027L7.3125 9.5H9C9.5467 9.5 9.89273 9.31137 10.1611 9.04297C10.3747 8.82918 10.5 8.51769 10.5 8C10.5 7.49403 10.3663 7.16351 10.1514 6.94043C9.94147 6.72266 9.64112 6.54881 9.19824 6.50879L9 6.5H4.75C4.33579 6.5 4 6.16421 4 5.75C4 5.33579 4.33579 5 4.75 5H9L9.17578 5.00391Z" fill="#000001"/>
</g>
</g>
</svg>
