<svg width="24" height="24" viewBox="0 0 24 24" fill="none" xmlns="http://www.w3.org/2000/svg">
<g id="size=24">
<g id="Path">
<path d="M2.75 3.25C3.16421 3.25 3.5 3.58579 3.5 4V20C3.5 20.4142 3.16421 20.75 2.75 20.75C2.33579 20.75 2 20.4142 2 20V4C2 3.58579 2.33579 3.25 2.75 3.25Z" fill="#000001"/>
<path d="M21.25 3.25C21.6642 3.25 22 3.58579 22 4V20C22 20.4142 21.6642 20.75 21.25 20.75C20.8358 20.75 20.5 20.4142 20.5 20V4C20.5 3.58579 20.8358 3.25 21.25 3.25Z" fill="#000001"/>
<path d="M14.9131 8.51465C15.8789 8.58188 16.7994 8.89096 17.4375 9.54102C18.1549 10.272 18.3546 11.1826 18.3545 11.959C18.3543 12.7364 18.1191 13.7183 17.4453 14.4258C16.7573 15.1481 15.635 15.5 14.4971 15.5H10.3115L11.0312 16.2197L11.083 16.2764C11.3233 16.5709 11.3059 17.0057 11.0312 17.2803C10.7566 17.5548 10.3219 17.5723 10.0273 17.332L9.9707 17.2803L7.9707 15.2803L7.92773 15.2334C7.89846 15.1987 7.87245 15.1612 7.84961 15.1211C7.84164 15.1071 7.83513 15.0925 7.82812 15.0781C7.82145 15.0644 7.8135 15.0513 7.80762 15.0371C7.80299 15.0259 7.79995 15.0142 7.7959 15.0029C7.79103 14.9893 7.78628 14.9757 7.78223 14.9619C7.77252 14.929 7.7658 14.8958 7.76074 14.8623C7.75976 14.8557 7.75765 14.8494 7.75684 14.8428C7.74636 14.7582 7.75059 14.6731 7.76855 14.5908C7.77113 14.5789 7.77516 14.5674 7.77832 14.5557C7.78645 14.5255 7.79575 14.4958 7.80762 14.4668C7.81235 14.4552 7.8179 14.444 7.82324 14.4326C7.83627 14.4048 7.8507 14.3778 7.86719 14.3516C7.87358 14.3414 7.8798 14.3312 7.88672 14.3213C7.91166 14.2856 7.9392 14.2512 7.9707 14.2197L9.9707 12.2197C10.2636 11.9268 10.7384 11.9268 11.0312 12.2197C11.3058 12.4943 11.3233 12.9291 11.083 13.2236L11.0312 13.2803L10.3115 14H14.4971C15.3819 14 16.0473 13.7192 16.3594 13.3916C16.6856 13.0491 16.8543 12.4893 16.8545 11.959C16.8546 11.4277 16.7207 10.952 16.3672 10.5918C16.0681 10.2871 15.5429 10.0622 14.8193 10.0107L14.4971 10H6.49805C6.08383 10 5.74805 9.66421 5.74805 9.25C5.74805 8.83579 6.08383 8.5 6.49805 8.5H14.4971L14.9131 8.51465Z" fill="#000001"/>
</g>
</g>
</svg>
