<svg width="24" height="24" viewBox="0 0 24 24" fill="none" xmlns="http://www.w3.org/2000/svg">
<g id="size=24">
<path id="Path" fill-rule="evenodd" clip-rule="evenodd" d="M20.2495 1C21.7659 1.00279 22.9995 2.23294 22.9995 3.75V11.25C22.9995 12.7671 21.7659 13.9972 20.2495 14H17.7368L14.0269 22.3486C13.8515 22.7431 13.4553 22.998 13.0239 23C11.0776 22.9997 9.49962 21.4219 9.49951 19.4756V16.25C9.49951 16.1137 9.38526 16.0027 9.24951 16H4.07666C2.39347 15.9999 1.10522 14.501 1.35791 12.8369L2.80029 3.33691C3.0048 1.99354 4.1601 1.00007 5.51904 1H20.2495ZM5.51904 2.5C4.90148 2.50007 4.3758 2.95205 4.28272 3.5625L2.84033 13.0625C2.7256 13.8188 3.31168 14.4999 4.07666 14.5H9.24951C10.2136 14.5028 10.9995 15.2852 10.9995 16.25V19.4756C10.9996 20.5072 11.7715 21.3589 12.769 21.4844L16.4995 13.0908V2.5H5.51904ZM17.9995 12.5H20.2495C20.9375 12.4972 21.4995 11.9386 21.4995 11.25V3.75C21.4995 3.06137 20.9375 2.50278 20.2495 2.5H17.9995V12.5Z" fill="#000001"/>
</g>
</svg>
