<svg width="16" height="16" viewBox="0 0 16 16" fill="none" xmlns="http://www.w3.org/2000/svg">
<g id="size=16">
<path id="Path" fill-rule="evenodd" clip-rule="evenodd" d="M8.40334 14.4843L10.9631 8.72499V1.5H3.48906C3.11833 1.5 2.80322 1.77087 2.74756 2.1374L1.75311 8.68618C1.68419 9.14005 2.03554 9.54878 2.49461 9.54878H6.26183C6.95219 9.54878 7.51183 10.1084 7.51183 10.7988V13.4246C7.51183 13.9558 7.89702 14.3971 8.40334 14.4843ZM12.4631 1.5V8.13415H13.7496C14.1639 8.13415 14.4996 7.79836 14.4996 7.38415V2.25C14.4996 1.83579 14.1639 1.5 13.7496 1.5H12.4631ZM12.2005 9.63415L9.68959 15.2836C9.49597 15.7192 9.06395 16 8.58722 16C7.16487 16 6.01183 14.847 6.01183 13.4246V11.0488H2.49461C1.11739 11.0488 0.0633502 9.8226 0.270114 8.46099L1.26456 1.91221C1.43153 0.812615 2.37686 0 3.48906 0H13.7496C14.9923 0 15.9996 1.00736 15.9996 2.25V7.38415C15.9996 8.62679 14.9923 9.63415 13.7496 9.63415H12.2005Z" fill="#000001"/>
</g>
</svg>
