<svg width="16" height="16" viewBox="0 0 16 16" fill="none" xmlns="http://www.w3.org/2000/svg">
<g id="size=16">
<path id="Path" d="M7.41211 0C8.83439 0 9.98818 1.15294 9.98828 2.5752V4.95117H13.5049C14.8821 4.95117 15.9363 6.17745 15.7295 7.53906L14.7354 14.0879C14.5684 15.1874 13.6229 15.9999 12.5107 16H2.25C1.00736 16 0 14.9926 0 13.75V8.61621C0 7.37357 1.00736 6.36621 2.25 6.36621H3.79883L6.30957 0.716797C6.50315 0.281246 6.9355 0.000122032 7.41211 0ZM2.25 7.86621C1.83579 7.86621 1.5 8.202 1.5 8.61621V13.75C1.5 14.1642 1.83579 14.5 2.25 14.5H3.53613V7.86621H2.25ZM5.03613 7.27539V14.5H12.5107C12.8814 14.4999 13.1963 14.2288 13.252 13.8623L14.2461 7.31348C14.3148 6.85971 13.9639 6.45117 13.5049 6.45117H9.73828C9.04792 6.45117 8.48828 5.89153 8.48828 5.20117V2.5752C8.48819 2.04418 8.10276 1.603 7.59668 1.51562L5.03613 7.27539Z" fill="#000001"/>
</g>
</svg>
