<svg width="16" height="16" viewBox="0 0 16 16" fill="none" xmlns="http://www.w3.org/2000/svg">
<g id="size=16">
<path id="Path" fill-rule="evenodd" clip-rule="evenodd" d="M13.7495 0C14.9908 0.00166929 15.9995 1.00839 15.9995 2.25V7.38379C15.9995 8.6254 14.9908 9.63212 13.7495 9.63379H12.1997L9.68899 15.2832C9.49569 15.7175 9.06259 15.9987 8.58742 16C7.1659 15.9991 6.01135 14.8465 6.01125 13.4248V11.0488H2.49465C1.11832 11.0478 0.0635244 9.82191 0.270041 8.46094L1.26418 1.91211C1.43129 0.813323 2.37748 0.000803804 3.48879 0H13.7495ZM3.48879 1.5C3.11892 1.5008 2.80334 1.77193 2.74758 2.1377L1.75246 8.68652C1.68405 9.1396 2.03659 9.54785 2.49465 9.54883H6.26125C6.95027 9.5504 7.51125 10.1094 7.51125 10.7988V13.4248C7.51134 13.9553 7.89748 14.3964 8.40285 14.4844L10.9624 8.72461V1.5H3.48879ZM12.4624 8.13379H13.7495C14.1623 8.13212 14.4995 7.79697 14.4995 7.38379V2.25C14.4995 1.83682 14.1623 1.50167 13.7495 1.5H12.4624V8.13379Z" fill="#000001"/>
</g>
</svg>
