<svg width="24" height="24" viewBox="0 0 24 24" fill="none" xmlns="http://www.w3.org/2000/svg">
<g id="size=24">
<g id="Path">
<path fill-rule="evenodd" clip-rule="evenodd" d="M8 8C5.79086 8 4 9.79086 4 12C4 14.2091 5.79086 16 8 16C10.2091 16 12 14.2091 12 12C12 9.79086 10.2091 8 8 8ZM5.5 12C5.5 10.6193 6.61929 9.5 8 9.5C9.38071 9.5 10.5 10.6193 10.5 12C10.5 13.3807 9.38071 14.5 8 14.5C6.61929 14.5 5.5 13.3807 5.5 12Z" fill="#000001"/>
<path fill-rule="evenodd" clip-rule="evenodd" d="M8 5C4.13401 5 1 8.13401 1 12C1 15.866 4.13401 19 8 19H16C19.866 19 23 15.866 23 12C23 8.13401 19.866 5 16 5H8ZM2.5 12C2.5 8.96243 4.96243 6.5 8 6.5H16C19.0376 6.5 21.5 8.96243 21.5 12C21.5 15.0376 19.0376 17.5 16 17.5H8C4.96243 17.5 2.5 15.0376 2.5 12Z" fill="#000001"/>
</g>
</g>
</svg>
