<svg width="16" height="16" viewBox="0 0 16 16" fill="none" xmlns="http://www.w3.org/2000/svg">
<g id="size=16">
<path id="Path" d="M6.5 0C9.06928 0 11.2905 1.49064 12.3457 3.6543C14.5078 4.70862 16 6.92949 16 9.5C16 13.0899 13.0899 16 9.5 16C6.92949 16 4.70862 14.5078 3.6543 12.3457C1.49064 11.2905 0 9.06928 0 6.5C0 2.91015 2.91015 0 6.5 0ZM12.9727 5.90234C12.9906 6.09902 13 6.29866 13 6.5C13 10.0899 10.0899 13 6.5 13C6.29866 13 6.09902 12.9906 5.90234 12.9727C6.81205 13.9147 8.08829 14.5 9.5 14.5C12.2614 14.5 14.5 12.2614 14.5 9.5C14.5 8.08829 13.9147 6.81205 12.9727 5.90234ZM6.5 1.5C3.73858 1.5 1.5 3.73858 1.5 6.5C1.5 9.26142 3.73858 11.5 6.5 11.5C9.26142 11.5 11.5 9.26142 11.5 6.5C11.5 3.73858 9.26142 1.5 6.5 1.5ZM5.79102 3.31836C6.18154 2.92783 6.81553 2.92783 7.20605 3.31836L9.68066 5.79297C10.071 6.18345 10.0709 6.81655 9.68066 7.20703L7.20605 9.68164C6.81553 10.0722 6.18154 10.0722 5.79102 9.68164L3.31641 7.20703C2.92598 6.81653 2.92598 6.18347 3.31641 5.79297L5.79102 3.31836ZM4.73047 6.5L6.49805 8.26758L8.2666 6.5L6.49805 4.73242L4.73047 6.5Z" fill="#000001"/>
</g>
</svg>
