<svg width="24" height="24" viewBox="0 0 24 24" fill="none" xmlns="http://www.w3.org/2000/svg">
<g id="size=24">
<g id="Path">
<path fill-rule="evenodd" clip-rule="evenodd" d="M8.76234 5.22753L5.22682 8.76305C4.5434 9.44648 4.5434 10.5545 5.22683 11.2379L8.76235 14.7734C9.44577 15.4568 10.5538 15.4568 11.2372 14.7734L14.7727 11.2379C15.4561 10.5545 15.4561 9.44649 14.7727 8.76307L11.2372 5.22755C10.5538 4.54412 9.44576 4.54411 8.76234 5.22753ZM6.28748 9.82371L9.823 6.28819C9.92063 6.19056 10.0789 6.19056 10.1766 6.28819L13.712 9.82372C13.8096 9.92135 13.8096 10.0796 13.712 10.1773L10.1766 13.7127C10.0789 13.8103 9.92063 13.8103 9.823 13.7127L6.28748 10.1773C6.18985 10.0796 6.18985 9.92134 6.28748 9.82371Z" fill="#000001"/>
<path fill-rule="evenodd" clip-rule="evenodd" d="M1 10C1 5.02944 5.02944 1 10 1C13.5167 1 16.5623 3.017 18.0431 5.95725C20.9818 7.43728 23 10.4822 23 14C23 18.9705 18.9705 23 14 23C10.4822 23 7.43728 20.9818 5.95725 18.0431C3.017 16.5623 1 13.5167 1 10ZM10 2.5C5.85786 2.5 2.5 5.85786 2.5 10C2.5 14.1421 5.85786 17.5 10 17.5C14.1421 17.5 17.5 14.1421 17.5 10C17.5 5.85786 14.1421 2.5 10 2.5ZM19 10C19 9.40623 18.9425 8.82589 18.8328 8.26425C20.4645 9.64053 21.5 11.6998 21.5 14C21.5 18.1421 18.1421 21.5 14 21.5C11.6998 21.5 9.64053 20.4645 8.26425 18.8328C8.82589 18.9425 9.40623 19 10 19C14.9706 19 19 14.9706 19 10Z" fill="#000001"/>
</g>
</g>
</svg>
