<svg width="24" height="24" viewBox="0 0 24 24" fill="none" xmlns="http://www.w3.org/2000/svg">
<g id="size=24">
<path id="Path" d="M10 1C13.5166 1 16.5621 3.0169 18.043 5.95703C20.9816 7.43705 23 10.4822 23 14C23 18.9705 18.9705 23 14 23C10.4822 23 7.43705 20.9816 5.95703 18.043C3.0169 16.5621 1 13.5166 1 10C1 5.02944 5.02944 1 10 1ZM18.833 8.26465C18.9427 8.82616 19 9.40638 19 10C19 14.9706 14.9706 19 10 19C9.40638 19 8.82616 18.9427 8.26465 18.833C9.64093 20.4645 11.7 21.5 14 21.5C18.1421 21.5 21.5 18.1421 21.5 14C21.5 11.7 20.4645 9.64093 18.833 8.26465ZM10 2.5C5.85786 2.5 2.5 5.85786 2.5 10C2.5 14.1421 5.85786 17.5 10 17.5C14.1421 17.5 17.5 14.1421 17.5 10C17.5 5.85786 14.1421 2.5 10 2.5ZM8.7627 5.22754C9.44613 4.54429 10.5539 4.54417 11.2373 5.22754L14.7725 8.7627C15.4559 9.44612 15.4559 10.5549 14.7725 11.2383L11.2373 14.7734C10.554 15.4568 9.44613 15.4566 8.7627 14.7734L5.22656 11.2383C4.54313 10.5549 4.54314 9.44612 5.22656 8.7627L8.7627 5.22754ZM10.1768 6.28809C10.0792 6.19051 9.92089 6.19063 9.82324 6.28809L6.28711 9.82324C6.18948 9.92087 6.18948 10.0801 6.28711 10.1777L9.82324 13.7129C9.92089 13.8103 10.0792 13.8105 10.1768 13.7129L13.7119 10.1777C13.8095 10.0801 13.8095 9.92087 13.7119 9.82324L10.1768 6.28809Z" fill="#000001"/>
</g>
</svg>
