<svg width="24" height="24" viewBox="0 0 24 24" fill="none" xmlns="http://www.w3.org/2000/svg">
<g id="size=24">
<path id="Path" fill-rule="evenodd" clip-rule="evenodd" d="M7 6V4.75C7 3.23122 8.23122 2 9.75 2H14.25C15.7688 2 17 3.23122 17 4.75V6H17.4216C18.1509 6 18.8504 6.28973 19.3661 6.80546L22.1945 9.63388C22.7103 10.1496 23 10.8491 23 11.5784V19.25C23 20.7688 21.7688 22 20.25 22H3.75C2.23122 22 1 20.7688 1 19.25V11.5784C1 10.8491 1.28973 10.1496 1.80546 9.63388L4.63388 6.80546C5.14961 6.28973 5.84908 6 6.57843 6H7ZM8.5 4.75C8.5 4.05964 9.05964 3.5 9.75 3.5H14.25C14.9404 3.5 15.5 4.05964 15.5 4.75V6H8.5V4.75ZM6.57843 7.5C6.24691 7.5 5.92896 7.6317 5.69454 7.86612L2.86612 10.6945C2.6317 10.929 2.5 11.2469 2.5 11.5784V13H9V12.25C9 11.5596 9.55964 11 10.25 11H13.75C14.4404 11 15 11.5596 15 12.25V13H21.5V11.5784C21.5 11.2469 21.3683 10.929 21.1339 10.6945L18.3055 7.86612C18.071 7.6317 17.7531 7.5 17.4216 7.5H6.57843ZM15 15.75V14.5H21.5V19.25C21.5 19.9404 20.9404 20.5 20.25 20.5H3.75C3.05964 20.5 2.5 19.9404 2.5 19.25V14.5H9V15.75C9 16.4404 9.55964 17 10.25 17H13.75C14.4404 17 15 16.4404 15 15.75ZM10.5 12.5V15.5H13.5V12.5H10.5Z" fill="#000001"/>
</g>
</svg>
