<svg width="24" height="24" viewBox="0 0 24 24" fill="none" xmlns="http://www.w3.org/2000/svg">
<g id="size=24">
<path id="Path" d="M14.25 2C15.7688 2 17 3.23122 17 4.75V6H17.4219C18.1511 6.00008 18.8506 6.29001 19.3662 6.80566L22.1943 9.63379C22.71 10.1494 22.9999 10.8489 23 11.5781V19.25C23 20.7688 21.7688 22 20.25 22H3.75C2.23122 22 1 20.7688 1 19.25V11.5781C1.00008 10.8489 1.29001 10.1494 1.80566 9.63379L4.63379 6.80566C5.14944 6.29001 5.84889 6.00008 6.57812 6H7V4.75C7 3.23122 8.23122 2 9.75 2H14.25ZM2.5 19.25C2.5 19.9404 3.05964 20.5 3.75 20.5H20.25C20.9404 20.5 21.5 19.9404 21.5 19.25V14.5H15V15.75C15 16.4404 14.4404 17 13.75 17H10.25C9.55964 17 9 16.4404 9 15.75V14.5H2.5V19.25ZM10.5 15.5H13.5V12.5H10.5V15.5ZM6.57812 7.5C6.24671 7.50008 5.92869 7.63186 5.69434 7.86621L2.86621 10.6943C2.63186 10.9287 2.50008 11.2467 2.5 11.5781V13H9V12.25C9 11.5596 9.55964 11 10.25 11H13.75C14.4404 11 15 11.5596 15 12.25V13H21.5V11.5781C21.4999 11.2467 21.3681 10.9287 21.1338 10.6943L18.3057 7.86621C18.0713 7.63186 17.7533 7.50008 17.4219 7.5H6.57812ZM9.75 3.5C9.05964 3.5 8.5 4.05964 8.5 4.75V6H15.5V4.75C15.5 4.05964 14.9404 3.5 14.25 3.5H9.75Z" fill="#000001"/>
</g>
</svg>
