<svg width="16" height="16" viewBox="0 0 16 16" fill="none" xmlns="http://www.w3.org/2000/svg">
<g id="size=16">
<path id="Path" d="M8.75 0C9.99264 0 11 1.00736 11 2.25V3H11.7891C12.3949 3 12.9751 3.24438 13.3984 3.67773L15.3594 5.68555C15.7699 6.10588 16 6.67023 16 7.25781V12.75C16 13.9926 14.9926 15 13.75 15H2.25C1.00736 15 0 13.9926 0 12.75V7.25781C0 6.67023 0.230053 6.10588 0.640625 5.68555L2.60156 3.67773C3.02493 3.24438 3.6051 3 4.21094 3H5V2.25C5 1.00736 6.00736 0 7.25 0H8.75ZM1.5 12.75C1.5 13.1642 1.83579 13.5 2.25 13.5H13.75C14.1642 13.5 14.5 13.1642 14.5 12.75V9.5H10.5V9.75C10.5 10.4404 9.94036 11 9.25 11H6.75C6.05964 11 5.5 10.4404 5.5 9.75V9.5H1.5V12.75ZM7 9.5H9V8H7V9.5ZM4.21094 4.5C4.00915 4.5 3.8159 4.58134 3.6748 4.72559L1.71387 6.7334C1.57701 6.87351 1.5 7.06195 1.5 7.25781V8H5.5V7.75C5.5 7.05964 6.05964 6.5 6.75 6.5H9.25C9.94036 6.5 10.5 7.05964 10.5 7.75V8H14.5V7.25781C14.5 7.06195 14.423 6.87351 14.2861 6.7334L12.3252 4.72559C12.1841 4.58134 11.9909 4.5 11.7891 4.5H4.21094ZM7.25 1.5C6.83579 1.5 6.5 1.83579 6.5 2.25V3H9.5V2.25C9.5 1.83579 9.16421 1.5 8.75 1.5H7.25Z" fill="#000001"/>
</g>
</svg>
