<svg width="24" height="24" viewBox="0 0 24 24" fill="none" xmlns="http://www.w3.org/2000/svg">
<g id="size=24">
<path id="Path" d="M12 6C12.204 6 12.3996 6.08341 12.541 6.23047L18.791 12.7305C19.0778 13.0291 19.068 13.504 18.7695 13.791C18.4709 14.0778 17.996 14.068 17.709 13.7695L12.75 8.6123V21.25C12.75 21.6642 12.4142 22 12 22C11.5858 22 11.25 21.6642 11.25 21.25V8.6123L6.29102 13.7695C6.00403 14.068 5.52907 14.0778 5.23047 13.791C4.93201 13.504 4.92224 13.0291 5.20898 12.7305L11.459 6.23047C11.6004 6.08341 11.796 6 12 6ZM20.25 2C20.6642 2 21 2.33579 21 2.75C21 3.16421 20.6642 3.5 20.25 3.5H3.75C3.33579 3.5 3 3.16421 3 2.75C3 2.33579 3.33579 2 3.75 2H20.25Z" fill="#000001"/>
</g>
</svg>
