<svg width="16" height="16" viewBox="0 0 16 16" fill="none" xmlns="http://www.w3.org/2000/svg">
<g id="size=16">
<path id="Path" d="M8 4C8.20635 4 8.40324 4.08533 8.54492 4.23535L12.7949 8.73535C13.0793 9.03649 13.0658 9.51051 12.7646 9.79492C12.4635 10.0793 11.9895 10.0658 11.7051 9.76465L8.75 6.63672V14.25C8.75 14.6642 8.41421 15 8 15C7.58579 15 7.25 14.6642 7.25 14.25V6.63672L4.29492 9.76465C4.01051 10.0658 3.53649 10.0793 3.23535 9.79492C2.93421 9.51051 2.92067 9.03649 3.20508 8.73535L7.45508 4.23535C7.59676 4.08534 7.79365 4 8 4ZM13.25 1C13.6642 1 14 1.33579 14 1.75C14 2.16421 13.6642 2.5 13.25 2.5H2.75C2.33579 2.5 2 2.16421 2 1.75C2 1.33579 2.33579 1 2.75 1H13.25Z" fill="#000001"/>
</g>
</svg>
