<svg width="16" height="16" viewBox="0 0 16 16" fill="none" xmlns="http://www.w3.org/2000/svg">
<g id="size=16">
<g id="Path">
<path fill-rule="evenodd" clip-rule="evenodd" d="M2.23085 6.38745L1.2694 6.11245L1.28412 6.0612L1.32562 5.91749C1.36146 5.79382 1.41287 5.61729 1.4753 5.40551C1.60008 4.98218 1.76918 4.4169 1.94596 3.85093C2.12222 3.28662 2.30816 2.71498 2.46635 2.28166C2.54472 2.06699 2.62058 1.8743 2.68825 1.73049C2.72087 1.66116 2.76008 1.58471 2.80487 1.51898C2.82635 1.48747 2.86224 1.43867 2.91323 1.39245C2.95066 1.35853 3.07736 1.25 3.27428 1.25C3.47209 1.25 3.59904 1.35936 3.63699 1.39409C3.68815 1.44092 3.72393 1.4903 3.74521 1.52204C3.78961 1.58824 3.82819 1.66508 3.8601 1.73449C3.92633 1.87855 4.00019 2.07144 4.07626 2.28614C4.22984 2.71957 4.40967 3.2913 4.57987 3.85562C4.75058 4.42163 4.91361 4.98692 5.03385 5.41027C5.09401 5.62206 5.14353 5.7986 5.17803 5.92227L5.218 6.06599L5.23193 6.1164L4.75011 6.25L4.26803 6.38266L4.25429 6.33293L4.21482 6.19101C4.18066 6.06859 4.13157 5.89357 4.0719 5.68348L4.01305 5.47698L4.00011 5.47714H2.50011L2.49693 5.47713L2.43449 5.68824C2.37257 5.89833 2.32159 6.07337 2.28612 6.19579L2.24512 6.33772L2.23085 6.38745ZM3.62247 4.14438C3.65602 4.25564 3.6893 4.36693 3.72201 4.47714H2.79881C2.83224 4.36846 2.86622 4.25875 2.90048 4.14907C3.02475 3.75122 3.15161 3.35705 3.26834 3.01502C3.38096 3.35592 3.50301 3.7483 3.62247 4.14438Z" fill="#000001"/>
<path d="M4.75011 6.25L5.23193 6.1164C5.30521 6.38264 5.14904 6.65879 4.88279 6.73207C4.61655 6.80535 4.34131 6.6489 4.26803 6.38266L4.75011 6.25Z" fill="#000001"/>
<path d="M1.2694 6.11245C1.19347 6.37795 1.34713 6.6548 1.61263 6.73073C1.87813 6.80666 2.15492 6.65295 2.23085 6.38745L1.2694 6.11245Z" fill="#000001"/>
<path d="M11.75 7.75C11.75 8.16421 12.0858 8.5 12.5 8.5C12.9142 8.5 13.25 8.16421 13.25 7.75V5.25C13.25 4.00736 12.2426 3 11 3H7.49998C7.08577 3 6.74998 3.33579 6.74998 3.75C6.74998 4.16421 7.08577 4.5 7.49998 4.5H11C11.4142 4.5 11.75 4.83579 11.75 5.25V7.75Z" fill="#000001"/>
<path d="M4.24998 8.25C4.24998 7.83579 3.91419 7.5 3.49998 7.5C3.08577 7.5 2.74998 7.83579 2.74998 8.25V10.75C2.74998 11.9926 3.75734 13 4.99998 13H8.49998C8.91419 13 9.24998 12.6642 9.24998 12.25C9.24998 11.8358 8.91419 11.5 8.49998 11.5H4.99998C4.58577 11.5 4.24998 11.1642 4.24998 10.75V8.25Z" fill="#000001"/>
<path d="M12.3872 9.5C12.6633 9.5 12.8872 9.72386 12.8872 10V11.2234L13.9947 10.5933C14.2348 10.4567 14.5425 10.5392 14.6821 10.7774C14.8217 11.0157 14.7403 11.3196 14.5003 11.4561L13.332 12.1208L14.5003 12.7855C14.7403 12.9221 14.8217 13.2259 14.6821 13.4642C14.5425 13.7024 14.2348 13.7849 13.9947 13.6483L12.8872 13.0182V14.25C12.8872 14.5261 12.6633 14.75 12.3872 14.75C12.111 14.75 11.8872 14.5261 11.8872 14.25V12.9428L10.7556 13.5866C10.5155 13.7232 10.2078 13.6407 10.0682 13.4024C9.92863 13.1642 10.01 12.8603 10.25 12.7238L11.3099 12.1208L10.2501 11.5178C10.01 11.3813 9.92863 11.0774 10.0682 10.8392C10.2078 10.6009 10.5156 10.5184 10.7556 10.655L11.8872 11.2988L11.8872 10C11.8872 9.72386 12.111 9.5 12.3872 9.5Z" fill="#000001"/>
</g>
</g>
</svg>
