<svg width="16" height="16" viewBox="0 0 16 16" fill="none" xmlns="http://www.w3.org/2000/svg">
<g id="size=16">
<path id="Path" fill-rule="evenodd" clip-rule="evenodd" d="M12.3866 9.5C12.6611 9.50188 12.8866 9.72503 12.8866 10V11.2236L13.994 10.5938C14.2336 10.4593 14.5424 10.5401 14.6815 10.7773C14.8194 11.0145 14.7374 11.3191 14.4999 11.4561L13.3319 12.1211L14.4999 12.7852C14.7373 12.9221 14.8193 13.2267 14.6815 13.4639C14.5424 13.7013 14.2337 13.7829 13.994 13.6484L12.8866 13.0186V14.25C12.8866 14.525 12.6611 14.7481 12.3866 14.75C12.1106 14.7498 11.8866 14.526 11.8866 14.25V12.9424L10.7557 13.5869C10.5163 13.7232 10.2083 13.6394 10.0682 13.4023C9.92865 13.1641 10.0099 12.8602 10.2499 12.7236L11.3095 12.1211L10.2499 11.5176C10.0099 11.381 9.92866 11.0771 10.0682 10.8389C10.2084 10.602 10.5164 10.5191 10.7557 10.6553L11.8866 11.2988V10C11.8866 9.72396 12.1106 9.50017 12.3866 9.5ZM3.49989 7.5C3.91244 7.50196 4.24989 7.837 4.24989 8.25V10.75C4.24989 11.1642 4.58567 11.5 4.99989 11.5H8.49989C8.91243 11.502 9.24989 11.837 9.24989 12.25C9.24989 12.663 8.91243 12.998 8.49989 13H4.99989C3.75725 13 2.74989 11.9926 2.74989 10.75V8.25C2.74989 7.83579 3.08567 7.5 3.49989 7.5ZM10.9999 3C12.2409 3.00197 13.2499 4.00857 13.2499 5.25V7.75C13.2499 8.163 12.9124 8.49804 12.4999 8.5C12.0857 8.5 11.7499 8.16421 11.7499 7.75V5.25C11.7499 4.837 11.4124 4.50196 10.9999 4.5H7.49989C7.08567 4.5 6.74989 4.16421 6.74989 3.75C6.74989 3.33579 7.08567 3 7.49989 3H10.9999ZM3.2743 1.25C3.46998 1.25138 3.5989 1.36002 3.63661 1.39453C3.68671 1.44083 3.72401 1.49115 3.745 1.52246C3.78888 1.58824 3.82864 1.66564 3.86024 1.73438C3.92631 1.87829 4.00023 2.07212 4.07606 2.28613C4.22955 2.71943 4.40991 3.29164 4.57996 3.85547C4.75057 4.42115 4.9139 4.98706 5.03407 5.41016C5.09403 5.6213 5.14317 5.7984 5.17762 5.92188L5.21766 6.06641L5.23133 6.11621C5.30372 6.38108 5.14665 6.65785 4.8827 6.73242C4.61678 6.80561 4.34114 6.64847 4.26746 6.38281L4.25379 6.33301L4.21473 6.19141C4.18064 6.06921 4.13167 5.89317 4.07215 5.68359L4.01258 5.47656L3.99989 5.47754H2.49696L2.43446 5.68848C2.37279 5.89769 2.32147 6.07299 2.28602 6.19531L2.245 6.33789L2.23036 6.3877C2.15462 6.65193 1.87661 6.80421 1.61219 6.73047C1.34685 6.65444 1.19352 6.37772 1.26942 6.1123L1.28407 6.06152L1.32508 5.91797C1.36091 5.79434 1.4132 5.61653 1.47547 5.40527C1.60022 4.98208 1.76958 4.41599 1.94618 3.85059C2.1223 3.28674 2.30765 2.71421 2.46571 2.28125C2.5439 2.06712 2.62084 1.87397 2.68836 1.73047C2.72084 1.66152 2.76011 1.58381 2.80457 1.51855C2.8262 1.487 2.86303 1.43786 2.91297 1.39258C2.95271 1.35681 3.08063 1.25 3.2743 1.25ZM3.26844 3.01465C3.1518 3.35639 3.02444 3.7519 2.90028 4.14941C2.86615 4.25866 2.83202 4.36928 2.79871 4.47754H3.72157C3.68895 4.36767 3.65541 4.25545 3.62196 4.14453C3.50262 3.74886 3.38096 3.35531 3.26844 3.01465Z" fill="#000001"/>
</g>
</svg>
