<svg width="24" height="24" viewBox="0 0 24 24" fill="none" xmlns="http://www.w3.org/2000/svg">
<g id="size=24">
<path id="Path" d="M14.25 1C15.7688 1 17 2.23122 17 3.75V5H21.25C21.6642 5 22 5.33579 22 5.75C22 6.16421 21.6642 6.5 21.25 6.5H20V20.25C20 21.7688 18.7688 23 17.25 23H6.75C5.23122 23 4 21.7688 4 20.25V6.5H2.75C2.33579 6.5 2 6.16421 2 5.75C2 5.33579 2.33579 5 2.75 5H7V3.75C7 2.23122 8.23122 1 9.75 1H14.25ZM5.5 20.25C5.5 20.9404 6.05964 21.5 6.75 21.5H17.25C17.9404 21.5 18.5 20.9404 18.5 20.25V6.5H5.5V20.25ZM9.75 9C10.1642 9 10.5 9.33579 10.5 9.75V18.25C10.5 18.6642 10.1642 19 9.75 19C9.33579 19 9 18.6642 9 18.25V9.75C9 9.33579 9.33579 9 9.75 9ZM14.25 9C14.6642 9 15 9.33579 15 9.75V18.25C15 18.6642 14.6642 19 14.25 19C13.8358 19 13.5 18.6642 13.5 18.25V9.75C13.5 9.33579 13.8358 9 14.25 9ZM9.75 2.5C9.05964 2.5 8.5 3.05964 8.5 3.75V5H15.5V3.75C15.5 3.05964 14.9404 2.5 14.25 2.5H9.75Z" fill="#000001"/>
</g>
</svg>
