<svg width="24" height="24" viewBox="0 0 24 24" fill="none" xmlns="http://www.w3.org/2000/svg">
<g id="size=24">
<path id="Path" fill-rule="evenodd" clip-rule="evenodd" d="M23.2499 5C23.6632 5.00107 23.9999 5.33645 23.9999 5.75V12.25C23.9999 12.6635 23.6632 12.9989 23.2499 13C22.8357 13 22.4999 12.6642 22.4999 12.25V7.56055L14.2802 15.7803C14.0081 16.0524 13.5735 16.073 13.2753 15.8301L8.30072 11.7607L1.28022 18.7803C0.987655 19.0728 0.512643 19.0722 0.21967 18.7803C-0.0732233 18.4874 -0.0732233 18.0126 0.21967 17.7197L7.71967 10.2197C7.99219 9.94821 8.4267 9.92622 8.72455 10.1699L13.6992 14.2393L21.4394 6.5H16.7499C16.3357 6.5 15.9999 6.16421 15.9999 5.75C15.9999 5.33579 16.3357 5 16.7499 5H23.2499Z" fill="#000001"/>
</g>
</svg>
