<svg width="24" height="24" viewBox="0 0 24 24" fill="none" xmlns="http://www.w3.org/2000/svg">
<g id="size=24">
<path id="Path" fill-rule="evenodd" clip-rule="evenodd" d="M0.219658 5.22001C0.512551 4.92711 0.987312 4.92711 1.2802 5.22001L8.29974 12.2395L13.2743 8.16922C13.5726 7.92523 14.0077 7.94755 14.2802 8.22001L22.4999 16.4397V11.7503C22.4999 11.3361 22.8357 11.0003 23.2499 11.0003C23.664 11.0004 23.9999 11.3362 23.9999 11.7503V18.2503C23.9998 18.6642 23.6639 19.0001 23.2499 19.0003H16.7499C16.3358 19.0003 16.0001 18.6643 15.9999 18.2503C15.9999 17.8361 16.3357 17.5003 16.7499 17.5003H21.4394L13.6992 9.76004L8.72454 13.8304C8.42644 14.0743 7.99214 14.0527 7.71966 13.7806L0.219658 6.28055C-0.0732273 5.98767 -0.0732114 5.5129 0.219658 5.22001Z" fill="#000001"/>
</g>
</svg>
