<svg width="16" height="16" viewBox="0 0 16 16" fill="none" xmlns="http://www.w3.org/2000/svg">
<g id="size=16">
<path id="Path" fill-rule="evenodd" clip-rule="evenodd" d="M15.2499 3C15.6633 3.00107 15.9999 3.33645 15.9999 3.75V8.25C15.9999 8.66355 15.6633 8.99893 15.2499 9C14.8357 9 14.4999 8.66421 14.4999 8.25V5.76172L10.3242 10.7324C10.0935 11.007 9.6994 11.0787 9.38569 10.9053L5.37983 8.68066L1.28022 12.7803C0.987655 13.0728 0.512643 13.0722 0.21967 12.7803C-0.0732233 12.4874 -0.0732233 12.0126 0.21967 11.7197L4.71967 7.21973C4.95648 6.98379 5.32189 6.93233 5.6142 7.09473L9.57319 9.29395L13.6005 4.5H10.7499C10.3357 4.5 9.99994 4.16421 9.99994 3.75C9.99994 3.33579 10.3357 3 10.7499 3H15.2499Z" fill="#000001"/>
</g>
</svg>
