<svg width="16" height="16" viewBox="0 0 16 16" fill="none" xmlns="http://www.w3.org/2000/svg">
<g id="size=16">
<path id="Path" fill-rule="evenodd" clip-rule="evenodd" d="M0.219653 3.21988C0.512546 2.92699 0.987306 2.92699 1.2802 3.21988L5.37981 7.31949L9.38567 5.09391C9.69958 4.91968 10.0932 4.99281 10.3241 5.26774L14.4999 10.2384V7.75016C14.4999 7.33594 14.8357 7.00016 15.2499 7.00016C15.6641 7.00025 15.9999 7.336 15.9999 7.75016V12.2502C15.9998 12.6642 15.664 13.0001 15.2499 13.0002H10.7499C10.3358 13.0002 10.0001 12.6643 9.99993 12.2502C9.99993 11.8359 10.3357 11.5002 10.7499 11.5002H13.6005L9.57317 6.70621L5.61418 8.90543C5.32155 9.06801 4.95644 9.01704 4.71965 8.78043L0.219653 4.28043C-0.073229 3.98755 -0.0732061 3.51278 0.219653 3.21988Z" fill="#000001"/>
</g>
</svg>
