<svg width="16" height="16" viewBox="0 0 16 16" fill="none" xmlns="http://www.w3.org/2000/svg">
<g id="size=16">
<path id="Path" fill-rule="evenodd" clip-rule="evenodd" d="M7.99995 1.25C8.35758 1.25 8.70988 1.34158 9.02241 1.51562C9.33489 1.68974 9.59799 1.94095 9.7851 2.24609L9.78706 2.25L15.4687 11.6328C15.6521 11.9471 15.7489 12.305 15.7499 12.6689C15.7509 13.0328 15.6551 13.3899 15.4736 13.7051C15.292 14.0202 15.0309 14.282 14.7167 14.4648C14.4026 14.6477 14.0459 14.746 13.6826 14.75H2.31733C1.95403 14.746 1.59723 14.6477 1.28315 14.4648C0.969054 14.2819 0.707879 14.0202 0.526313 13.7051C0.34479 13.3899 0.248999 13.0327 0.249946 12.6689C0.250976 12.3051 0.348872 11.948 0.532172 11.6338L0.538032 11.623L6.21284 2.25L6.21479 2.24609C6.40186 1.94097 6.66505 1.68976 6.97749 1.51562C7.28998 1.34155 7.64233 1.25004 7.99995 1.25ZM7.99995 2.75C7.89719 2.75005 7.79663 2.7768 7.70795 2.82617C7.61985 2.87529 7.54572 2.9447 7.49409 3.02832V3.03027L1.82514 12.3936C1.77616 12.4792 1.75022 12.5755 1.74995 12.6729C1.74969 12.7717 1.77613 12.8692 1.82612 12.9561C1.8762 13.043 1.94902 13.1171 2.03803 13.1689C2.1261 13.2201 2.22686 13.2483 2.33002 13.25H13.6699C13.773 13.2483 13.8738 13.2201 13.9619 13.1689C14.0509 13.1171 14.1237 13.043 14.1738 12.9561C14.2238 12.8692 14.2502 12.7718 14.2499 12.6729C14.2497 12.5754 14.2238 12.4792 14.1748 12.3936L8.50581 3.03027V3.02832C8.45414 2.94469 8.38009 2.87528 8.29194 2.82617C8.20324 2.77683 8.10272 2.75 7.99995 2.75Z" fill="#000001"/>
</g>
</svg>
