<svg width="24" height="24" viewBox="0 0 24 24" fill="none" xmlns="http://www.w3.org/2000/svg">
<g id="size=24">
<path id="Path" d="M12 2C11.528 2 11.0657 2.12683 10.658 2.36593C10.2505 2.60488 9.91271 2.94702 9.67429 3.35646L10.3224 3.73387L9.67224 3.36L1.36269 17.8102L1.35698 17.8205C1.12367 18.2414 1.00131 18.7164 1.00001 19.1985C0.998715 19.6806 1.11853 20.1562 1.34953 20.5784C1.58062 21.0007 1.91594 21.3564 2.3251 21.6072C2.73452 21.8582 3.20239 21.9945 3.68194 22L20.3095 22L20.3181 22C20.7976 21.9945 21.2655 21.8582 21.6749 21.6072C22.0841 21.3564 22.4194 21.0007 22.6505 20.5784C22.8815 20.1562 23.0013 19.6806 23 19.1985C22.9987 18.7164 22.8764 18.2414 22.6431 17.8205L14.3278 3.35999L14.3257 3.35646C14.0873 2.94702 13.7495 2.60488 13.342 2.36593C12.9343 2.12683 12.472 2 12 2Z" fill="#000001"/>
</g>
</svg>
