<svg width="16" height="16" viewBox="0 0 16 16" fill="none" xmlns="http://www.w3.org/2000/svg">
<g id="size=16">
<path id="Path" d="M8 1.25C7.6423 1.25 7.29021 1.34119 6.97764 1.51531C6.66502 1.68945 6.40208 1.94091 6.21493 2.24618L6.85433 2.63819L6.21275 2.24976L0.537906 11.6229L0.531817 11.6333C0.348406 11.9476 0.251038 12.3045 0.250008 12.6685C0.248978 13.0325 0.344324 13.3899 0.525965 13.7052C0.707573 14.0205 0.968867 14.2822 1.28307 14.4651C1.59723 14.648 1.95369 14.746 2.31708 14.75L13.6748 14.75L13.6829 14.75C14.0463 14.746 14.4028 14.648 14.7169 14.4651C15.0311 14.2822 15.2924 14.0205 15.474 13.7052C15.6557 13.3899 15.751 13.0325 15.75 12.6685C15.749 12.3045 15.6517 11.9475 15.4683 11.6333L9.78726 2.24975L9.78507 2.24618C9.59792 1.94091 9.33498 1.68945 9.02236 1.51531C8.70979 1.34119 8.3577 1.25 8 1.25Z" fill="#000001"/>
</g>
</svg>
