<svg width="24" height="24" viewBox="0 0 24 24" fill="none" xmlns="http://www.w3.org/2000/svg">
<g id="size=24">
<path id="Vector (Stroke)" fill-rule="evenodd" clip-rule="evenodd" d="M10.658 2.36593C11.0657 2.12683 11.528 2 12 2C12.472 2 12.9343 2.12683 13.342 2.36593C13.7495 2.60488 14.0873 2.94702 14.3257 3.35646L14.3278 3.35999L22.6431 17.8205C22.8764 18.2414 22.9987 18.7164 23 19.1985C23.0013 19.6806 22.8815 20.1562 22.6505 20.5784C22.4194 21.0007 22.0841 21.3564 21.6749 21.6072C21.2655 21.8582 20.7976 21.9945 20.3181 22L20.3095 22L3.68194 22C3.20239 21.9945 2.73452 21.8582 2.3251 21.6072C1.91594 21.3564 1.58062 21.0007 1.34953 20.5784C1.11853 20.1562 0.998715 19.6806 1.00001 19.1985C1.00131 18.7164 1.12367 18.2414 1.35698 17.8205L1.36269 17.8102L9.67224 3.36L9.67429 3.35646C9.91271 2.94702 10.2505 2.60488 10.658 2.36593ZM10.9714 4.10972L10.9705 4.11128L2.66637 18.5524C2.55865 18.7485 2.50062 18.9726 2.50001 19.2025C2.49938 19.4342 2.5571 19.6604 2.66541 19.8584C2.77363 20.0561 2.92759 20.2172 3.10899 20.3284C3.28902 20.4387 3.49101 20.497 3.69534 20.5H20.3047C20.509 20.497 20.711 20.4387 20.891 20.3284C21.0724 20.2172 21.2264 20.0561 21.3346 19.8584C21.4429 19.6604 21.5006 19.4342 21.5 19.2025C21.4994 18.9726 21.4413 18.7485 21.3336 18.5524L13.0295 4.11128L13.0286 4.10972C12.9173 3.91919 12.763 3.76525 12.5832 3.65982C12.4032 3.55424 12.2024 3.5 12 3.5C11.7976 3.5 11.5968 3.55424 11.4168 3.65982C11.237 3.76525 11.0827 3.91919 10.9714 4.10972Z" fill="#000001"/>
</g>
</svg>
