<svg width="16" height="16" viewBox="0 0 16 16" fill="none" xmlns="http://www.w3.org/2000/svg">
<g id="size=16">
<path id="Path" d="M9.25 1C10.4926 1 11.5 2.00736 11.5 3.25V3.57812H12.1426C12.727 3.57814 13.2883 3.80529 13.708 4.21191L15.3154 5.76953C15.7527 6.19324 15.9999 6.77587 16 7.38477V10.25C16 11.2025 15.2391 11.9777 14.292 12C14.4258 12.3062 14.5 12.6444 14.5 13C14.5 14.3807 13.3807 15.5 12 15.5C10.6193 15.5 9.5 14.3807 9.5 13C9.5 12.6444 9.57421 12.3062 9.70801 12H6.29199C6.42579 12.3062 6.5 12.6444 6.5 13C6.5 14.3807 5.38071 15.5 4 15.5C2.61929 15.5 1.5 14.3807 1.5 13C1.5 12.6444 1.57421 12.3062 1.70801 12C0.760904 11.9777 0 11.2025 0 10.25V3.25C0 2.00736 1.00736 1 2.25 1H9.25ZM4 12C3.44772 12 3 12.4477 3 13C3 13.5523 3.44772 14 4 14C4.55229 14 5 13.5523 5 13C5 12.4477 4.55229 12 4 12ZM12 12C11.4477 12 11 12.4477 11 13C11 13.5523 11.4477 14 12 14C12.5523 14 13 13.5523 13 13C13 12.4477 12.5523 12 12 12ZM2.25 2.5C1.83579 2.5 1.5 2.83579 1.5 3.25V10.25C1.5 10.3881 1.61193 10.5 1.75 10.5H10V3.25C10 2.83579 9.66421 2.5 9.25 2.5H2.25ZM11.5 10.5H14.25C14.3881 10.5 14.5 10.3881 14.5 10.25V7.38477C14.4999 7.18192 14.4172 6.98784 14.2715 6.84668L12.6641 5.28906C12.5242 5.15365 12.3373 5.07814 12.1426 5.07812H11.5V10.5Z" fill="#000001"/>
</g>
</svg>
