<svg width="16" height="16" viewBox="0 0 16 16" fill="none" xmlns="http://www.w3.org/2000/svg">
<g id="size=16">
<path id="Path" d="M9.37598 0.333984C9.60576 -0.0105305 10.0714 -0.103714 10.416 0.125977C10.7606 0.355712 10.8537 0.821386 10.624 1.16602L9.40137 3H13.75C14.9926 3 15.9999 4.0074 16 5.25V12.75C16 13.9926 14.9926 15 13.75 15H2.25C1.00737 15 1.1339e-05 13.9926 0 12.75V5.25C5.07658e-05 4.0074 1.00739 3 2.25 3H6.59863L5.37598 1.16602C5.1463 0.821382 5.23938 0.355721 5.58398 0.125977C5.92859 -0.103673 6.39426 -0.0105433 6.62402 0.333984L8 2.39844L9.37598 0.333984ZM2.25 4.5C1.83582 4.5 1.50005 4.83583 1.5 5.25V12.75C1.50001 13.1642 1.83579 13.5 2.25 13.5H13.75C14.1642 13.5 14.5 13.1642 14.5 12.75V5.25C14.4999 4.83583 14.1642 4.5 13.75 4.5H2.25Z" fill="#000001"/>
</g>
</svg>
