<svg width="24" height="24" viewBox="0 0 24 24" fill="none" xmlns="http://www.w3.org/2000/svg">
<g id="size=24">
<path id="Path" fill-rule="evenodd" clip-rule="evenodd" d="M14.6211 1.34202C14.8468 0.994724 15.3119 0.895574 15.6592 1.12132C16.0059 1.34722 16.1045 1.81233 15.8789 2.1594L13.3818 6.00022H20.25C21.7688 6.00022 23 7.23144 23 8.75022V20.2502C22.9995 21.7686 21.7685 23.0002 20.25 23.0002H3.75C2.23153 23.0002 1.00051 21.7686 1 20.2502V8.75022C1 7.23144 2.23122 6.00022 3.75 6.00022H10.6182L8.12109 2.1594C7.89549 1.81232 7.99404 1.34721 8.34082 1.12132C8.68811 0.895574 9.15316 0.994724 9.37891 1.34202L12 5.37425L14.6211 1.34202ZM3.75 7.50022C3.05964 7.50022 2.5 8.05987 2.5 8.75022V20.2502C2.50051 20.9401 3.05996 21.5002 3.75 21.5002H20.25C20.94 21.5002 21.4995 20.9401 21.5 20.2502V8.75022C21.5 8.05987 20.9404 7.50022 20.25 7.50022H3.75Z" fill="#000001"/>
</g>
</svg>
