<svg width="24" height="24" viewBox="0 0 24 24" fill="none" xmlns="http://www.w3.org/2000/svg">
<g id="size=24">
<path id="Path" fill-rule="evenodd" clip-rule="evenodd" d="M14.6211 1.34177C14.8468 0.99448 15.3119 0.89533 15.6592 1.12107C16.006 1.34696 16.1045 1.81206 15.8789 2.15916L13.3818 5.99998H20.25C21.7688 5.99998 23 7.23119 23 8.74998V20.25C22.9996 21.7684 21.7685 23 20.25 23H3.75C2.23147 23 1.0004 21.7684 1 20.25V8.74998C1 7.23119 2.23122 5.99998 3.75 5.99998H10.6182L8.12109 2.15916C7.89547 1.81204 7.99397 1.34695 8.34082 1.12107C8.68811 0.89533 9.15316 0.99448 9.37891 1.34177L12 5.374L14.6211 1.34177ZM3.75 7.49998C3.05964 7.49998 2.5 8.05962 2.5 8.74998V20.25C2.5004 20.94 3.05989 21.5 3.75 21.5H20.25C20.9401 21.5 21.4996 20.94 21.5 20.25V8.74998C21.5 8.05962 20.9404 7.49998 20.25 7.49998H3.75Z" fill="#000001"/>
</g>
</svg>
