<svg width="16" height="16" viewBox="0 0 16 16" fill="none" xmlns="http://www.w3.org/2000/svg">
<g id="size=16">
<path id="Vector" d="M8 1C11.864 1 15 4.136 15 8C15 11.864 11.864 15 8 15C4.136 15 1 11.864 1 8C1 4.136 4.136 1 8 1ZM8 2.848C5.144 2.848 2.848 5.144 2.848 8C2.848 10.856 5.144 13.152 8 13.152C10.856 13.152 13.152 10.856 13.152 8C13.152 5.144 10.856 2.848 8 2.848ZM9.736 8.28C10.5401 8.28 11.192 8.93187 11.192 9.736C11.192 10.5401 10.5401 11.192 9.736 11.192C8.93187 11.192 8.28 10.5401 8.28 9.736C8.28 8.93187 8.93187 8.28 9.736 8.28ZM6.264 8.28C7.06813 8.28 7.72 8.93187 7.72 9.736C7.72 10.5401 7.06813 11.192 6.264 11.192C5.45987 11.192 4.808 10.5401 4.808 9.736C4.808 8.93187 5.45987 8.28 6.264 8.28ZM9.736 4.808C10.5401 4.808 11.192 5.45987 11.192 6.264C11.192 7.06813 10.5401 7.72 9.736 7.72C8.93187 7.72 8.28 7.06813 8.28 6.264C8.28 5.45987 8.93187 4.808 9.736 4.808ZM6.264 4.808C7.06813 4.808 7.72 5.45987 7.72 6.264C7.72 7.06813 7.06813 7.72 6.264 7.72C5.45987 7.72 4.808 7.06813 4.808 6.264C4.808 5.45987 5.45987 4.808 6.264 4.808Z" fill="#000001"/>
</g>
</svg>
