<svg width="16" height="16" viewBox="0 0 16 16" fill="none" xmlns="http://www.w3.org/2000/svg">
<g id="size=16">
<g id="Path">
<path d="M7.99952 6C8.20807 6 8.4072 5.91317 8.54911 5.76034L11.7991 2.26034C12.081 1.95681 12.0634 1.48226 11.7599 1.20041C11.4563 0.918556 10.9818 0.936132 10.6999 1.23966L7.99952 4.14779L5.29911 1.23966C5.01726 0.936132 4.54271 0.918556 4.23918 1.20041C3.93564 1.48226 3.91807 1.95681 4.19992 2.26034L7.44992 5.76034C7.59183 5.91317 7.79096 6 7.99952 6Z" fill="#000001"/>
<path d="M7.99952 10C8.20807 10 8.4072 10.0868 8.54911 10.2397L11.7991 13.7397C12.081 14.0432 12.0634 14.5177 11.7599 14.7996C11.4563 15.0814 10.9818 15.0639 10.6999 14.7603L7.99952 11.8522L5.29911 14.7603C5.01726 15.0639 4.54271 15.0814 4.23918 14.7996C3.93564 14.5177 3.91807 14.0432 4.19992 13.7397L7.44992 10.2397C7.59183 10.0868 7.79096 10 7.99952 10Z" fill="#000001"/>
<path d="M1.74955 7.12354C1.40354 7.12354 1.12305 7.40403 1.12305 7.75004C1.12305 8.09604 1.40354 8.37654 1.74955 8.37654H2.24955C2.59555 8.37654 2.87605 8.09604 2.87605 7.75004C2.87605 7.40403 2.59555 7.12354 2.24955 7.12354H1.74955Z" fill="#000001"/>
<path d="M4.74955 7.12354C4.40354 7.12354 4.12305 7.40403 4.12305 7.75004C4.12305 8.09604 4.40354 8.37654 4.74955 8.37654H5.24955C5.59555 8.37654 5.87605 8.09604 5.87605 7.75004C5.87605 7.40403 5.59555 7.12354 5.24955 7.12354H4.74955Z" fill="#000001"/>
<path d="M7.74955 7.12354C7.40354 7.12354 7.12305 7.40403 7.12305 7.75004C7.12305 8.09604 7.40354 8.37654 7.74955 8.37654H8.24955C8.59555 8.37654 8.87605 8.09604 8.87605 7.75004C8.87605 7.40403 8.59555 7.12354 8.24955 7.12354H7.74955Z" fill="#000001"/>
<path d="M10.7495 7.12354C10.4035 7.12354 10.123 7.40403 10.123 7.75004C10.123 8.09604 10.4035 8.37654 10.7495 8.37654H11.2495C11.5956 8.37654 11.876 8.09604 11.876 7.75004C11.876 7.40403 11.5956 7.12354 11.2495 7.12354H10.7495Z" fill="#000001"/>
<path d="M13.7495 7.12354C13.4035 7.12354 13.123 7.40403 13.123 7.75004C13.123 8.09604 13.4035 8.37654 13.7495 8.37654H14.2495C14.5956 8.37654 14.876 8.09604 14.876 7.75004C14.876 7.40403 14.5956 7.12354 14.2495 7.12354H13.7495Z" fill="#000001"/>
</g>
</g>
</svg>
