<svg width="16" height="16" viewBox="0 0 16 16" fill="none" xmlns="http://www.w3.org/2000/svg">
<g id="size=16">
<g id="Path">
<path d="M8 1C8.20855 1 8.40769 1.08684 8.5496 1.23966L11.7996 4.73966C12.0815 5.04319 12.0639 5.51774 11.7603 5.79959C11.4568 6.08145 10.9823 6.06387 10.7004 5.76034L8 2.85221L5.2996 5.76034C5.01775 6.06387 4.5432 6.08145 4.23966 5.79959C3.93613 5.51774 3.91856 5.04319 4.20041 4.73966L7.45041 1.23966C7.59232 1.08684 7.79145 1 8 1Z" fill="#000001"/>
<path d="M8 15C8.20855 15 8.40769 14.9132 8.5496 14.7603L11.7996 11.2603C12.0815 10.9568 12.0639 10.4823 11.7603 10.2004C11.4568 9.91855 10.9823 9.93613 10.7004 10.2397L8 13.1478L5.2996 10.2397C5.01775 9.93613 4.5432 9.91855 4.23966 10.2004C3.93613 10.4823 3.91856 10.9568 4.20041 11.2603L7.45041 14.7603C7.59232 14.9132 7.79145 15 8 15Z" fill="#000001"/>
<path d="M1.75004 7.12354C1.40403 7.12354 1.12354 7.40403 1.12354 7.75004C1.12354 8.09604 1.40403 8.37654 1.75004 8.37654H2.25004C2.59604 8.37654 2.87654 8.09604 2.87654 7.75004C2.87654 7.40403 2.59604 7.12354 2.25004 7.12354H1.75004Z" fill="#000001"/>
<path d="M4.75004 7.12354C4.40403 7.12354 4.12354 7.40403 4.12354 7.75004C4.12354 8.09604 4.40403 8.37654 4.75004 8.37654H5.25004C5.59604 8.37654 5.87654 8.09604 5.87654 7.75004C5.87654 7.40403 5.59604 7.12354 5.25004 7.12354H4.75004Z" fill="#000001"/>
<path d="M7.75004 7.12354C7.40403 7.12354 7.12354 7.40403 7.12354 7.75004C7.12354 8.09604 7.40403 8.37654 7.75004 8.37654H8.25004C8.59604 8.37654 8.87654 8.09604 8.87654 7.75004C8.87654 7.40403 8.59604 7.12354 8.25004 7.12354H7.75004Z" fill="#000001"/>
<path d="M10.75 7.12354C10.404 7.12354 10.1235 7.40403 10.1235 7.75004C10.1235 8.09604 10.404 8.37654 10.75 8.37654H11.25C11.596 8.37654 11.8765 8.09604 11.8765 7.75004C11.8765 7.40403 11.596 7.12354 11.25 7.12354H10.75Z" fill="#000001"/>
<path d="M13.75 7.12354C13.404 7.12354 13.1235 7.40403 13.1235 7.75004C13.1235 8.09604 13.404 8.37654 13.75 8.37654H14.25C14.596 8.37654 14.8765 8.09604 14.8765 7.75004C14.8765 7.40403 14.596 7.12354 14.25 7.12354H13.75Z" fill="#000001"/>
</g>
</g>
</svg>
