<svg width="16" height="16" viewBox="0 0 16 16" fill="none" xmlns="http://www.w3.org/2000/svg">
<g id="size=16">
<path id="Path" d="M8 10C8.20818 10.0001 8.40705 10.0868 8.54883 10.2393L11.7988 13.7393C12.0806 14.0427 12.0632 14.5179 11.7598 14.7998C11.4562 15.0814 10.982 15.0632 10.7002 14.7598L8 11.8525L5.29883 14.7598C5.01705 15.0632 4.5428 15.0814 4.23926 14.7998C3.93586 14.5179 3.91839 14.0427 4.2002 13.7393L7.4502 10.2393C7.59208 10.0867 7.79164 10 8 10ZM2.25 7.12305C2.59571 7.12329 2.87583 7.40427 2.87598 7.75C2.87591 8.0958 2.59576 8.37573 2.25 8.37598H1.75C1.40403 8.37598 1.12311 8.09595 1.12305 7.75C1.1232 7.40412 1.40409 7.12305 1.75 7.12305H2.25ZM5.25 7.12305C5.59571 7.12329 5.87583 7.40427 5.87598 7.75C5.87591 8.0958 5.59576 8.37573 5.25 8.37598H4.75C4.40403 8.37598 4.12311 8.09595 4.12305 7.75C4.1232 7.40412 4.40409 7.12305 4.75 7.12305H5.25ZM8.25 7.12305C8.59571 7.12329 8.87583 7.40427 8.87598 7.75C8.87591 8.0958 8.59576 8.37573 8.25 8.37598H7.75C7.40403 8.37598 7.12311 8.09595 7.12305 7.75C7.1232 7.40412 7.40409 7.12305 7.75 7.12305H8.25ZM11.25 7.12305C11.5957 7.12329 11.8758 7.40427 11.876 7.75C11.8759 8.0958 11.5958 8.37573 11.25 8.37598H10.75C10.404 8.37598 10.1231 8.09595 10.123 7.75C10.1232 7.40412 10.4041 7.12305 10.75 7.12305H11.25ZM14.25 7.12305C14.5957 7.12329 14.8758 7.40427 14.876 7.75C14.8759 8.0958 14.5958 8.37573 14.25 8.37598H13.75C13.404 8.37598 13.1231 8.09595 13.123 7.75C13.1232 7.40412 13.4041 7.12305 13.75 7.12305H14.25ZM10.7002 1.23926C10.982 0.936203 11.4564 0.918682 11.7598 1.2002C12.0632 1.48197 12.0805 1.95622 11.7988 2.25977L8.54883 5.75977C8.40703 5.91247 8.20837 5.99987 8 6C7.79145 6 7.5921 5.91259 7.4502 5.75977L4.2002 2.25977C3.91857 1.95622 3.9358 1.48197 4.23926 1.2002C4.54266 0.91868 5.01699 0.936205 5.29883 1.23926L8 4.14746L10.7002 1.23926Z" fill="#000001"/>
</g>
</svg>
