<svg width="24" height="24" viewBox="0 0 24 24" fill="none" xmlns="http://www.w3.org/2000/svg">
<g id="size=24">
<path id="Path" fill-rule="evenodd" clip-rule="evenodd" d="M12 15.0001C12.205 15.0001 12.4014 15.0842 12.543 15.2325L17.793 20.7325C18.0785 21.0321 18.067 21.5062 17.7676 21.7921C17.468 22.078 16.993 22.0672 16.707 21.7676L12 16.836L7.29297 21.7676C7.00697 22.0672 6.53204 22.078 6.23242 21.7921C5.93302 21.5062 5.92147 21.0321 6.20703 20.7325L11.457 15.2325C11.5986 15.0842 11.795 15.0001 12 15.0001ZM2.75 11.0001C3.16421 11.0001 3.5 11.3358 3.5 11.7501C3.49994 12.1642 3.16418 12.5001 2.75 12.5001H1.25C0.835823 12.5001 0.500059 12.1642 0.5 11.7501C0.5 11.3358 0.835786 11.0001 1.25 11.0001H2.75ZM7.75 11.0001C8.16421 11.0001 8.5 11.3358 8.5 11.7501C8.49994 12.1642 8.16418 12.5001 7.75 12.5001H6.25C5.83582 12.5001 5.50006 12.1642 5.5 11.7501C5.5 11.3358 5.83579 11.0001 6.25 11.0001H7.75ZM12.75 11.0001C13.1642 11.0001 13.5 11.3358 13.5 11.7501C13.4999 12.1642 13.1642 12.5001 12.75 12.5001H11.25C10.8358 12.5001 10.5001 12.1642 10.5 11.7501C10.5 11.3358 10.8358 11.0001 11.25 11.0001H12.75ZM17.75 11.0001C18.1642 11.0001 18.5 11.3358 18.5 11.7501C18.4999 12.1642 18.1642 12.5001 17.75 12.5001H16.25C15.8358 12.5001 15.5001 12.1642 15.5 11.7501C15.5 11.3358 15.8358 11.0001 16.25 11.0001H17.75ZM22.75 11.0001C23.1642 11.0001 23.5 11.3358 23.5 11.7501C23.4999 12.1642 23.1642 12.5001 22.75 12.5001H21.25C20.8358 12.5001 20.5001 12.1642 20.5 11.7501C20.5 11.3358 20.8358 11.0001 21.25 11.0001H22.75ZM16.707 2.23248C16.9929 1.93297 17.4679 1.92141 17.7676 2.20709C18.0671 2.49299 18.0786 2.968 17.793 3.26764L12.543 8.76764C12.4014 8.91589 12.205 9.00006 12 9.00006C11.795 9.00006 11.5986 8.91589 11.457 8.76764L6.20703 3.26764C5.92136 2.968 5.93292 2.49299 6.23242 2.20709C6.53206 1.92141 7.00707 1.93297 7.29297 2.23248L12 7.16412L16.707 2.23248Z" fill="#000001"/>
</g>
</svg>
