<svg width="16" height="16" viewBox="0 0 16 16" fill="none" xmlns="http://www.w3.org/2000/svg">
<g id="size=16">
<g id="Path">
<path d="M7.99952 1C8.20807 1 8.4072 1.08684 8.54911 1.23966L11.7991 4.73966C12.081 5.04319 12.0634 5.51774 11.7599 5.79959C11.4563 6.08145 10.9818 6.06387 10.6999 5.76034L7.99952 2.85221L5.29911 5.76034C5.01726 6.06387 4.54271 6.08145 4.23918 5.79959C3.93564 5.51774 3.91807 5.04319 4.19992 4.73966L7.44992 1.23966C7.59183 1.08684 7.79096 1 7.99952 1Z" fill="#000001"/>
<path d="M7.99952 15C8.20807 15 8.4072 14.9132 8.54911 14.7603L11.7991 11.2603C12.081 10.9568 12.0634 10.4823 11.7599 10.2004C11.4563 9.91855 10.9818 9.93613 10.6999 10.2397L7.99952 13.1478L5.29911 10.2397C5.01726 9.93613 4.54271 9.91855 4.23918 10.2004C3.93564 10.4823 3.91807 10.9568 4.19992 11.2603L7.44992 14.7603C7.59183 14.9132 7.79096 15 7.99952 15Z" fill="#000001"/>
<path d="M1.74955 7.12354C1.40354 7.12354 1.12305 7.40403 1.12305 7.75004C1.12305 8.09604 1.40354 8.37654 1.74955 8.37654H2.24955C2.59555 8.37654 2.87605 8.09604 2.87605 7.75004C2.87605 7.40403 2.59555 7.12354 2.24955 7.12354H1.74955Z" fill="#000001"/>
<path d="M4.74955 7.12354C4.40354 7.12354 4.12305 7.40403 4.12305 7.75004C4.12305 8.09604 4.40354 8.37654 4.74955 8.37654H5.24955C5.59555 8.37654 5.87605 8.09604 5.87605 7.75004C5.87605 7.40403 5.59555 7.12354 5.24955 7.12354H4.74955Z" fill="#000001"/>
<path d="M7.74955 7.12354C7.40354 7.12354 7.12305 7.40403 7.12305 7.75004C7.12305 8.09604 7.40354 8.37654 7.74955 8.37654H8.24955C8.59555 8.37654 8.87605 8.09604 8.87605 7.75004C8.87605 7.40403 8.59555 7.12354 8.24955 7.12354H7.74955Z" fill="#000001"/>
<path d="M10.7495 7.12354C10.4035 7.12354 10.123 7.40403 10.123 7.75004C10.123 8.09604 10.4035 8.37654 10.7495 8.37654H11.2495C11.5956 8.37654 11.876 8.09604 11.876 7.75004C11.876 7.40403 11.5956 7.12354 11.2495 7.12354H10.7495Z" fill="#000001"/>
<path d="M13.7495 7.12354C13.4035 7.12354 13.123 7.40403 13.123 7.75004C13.123 8.09604 13.4035 8.37654 13.7495 8.37654H14.2495C14.5956 8.37654 14.876 8.09604 14.876 7.75004C14.876 7.40403 14.5956 7.12354 14.2495 7.12354H13.7495Z" fill="#000001"/>
</g>
</g>
</svg>
