<svg width="24" height="24" viewBox="0 0 24 24" fill="none" xmlns="http://www.w3.org/2000/svg">
<g id="size=24">
<path id="Path" d="M18 1C19.5797 1 21.1018 1.59704 22.2295 2.6709C23.3584 3.74609 24 5.21287 24 6.75C24 7.16421 23.6642 7.5 23.25 7.5C22.8358 7.5 22.5 7.16421 22.5 6.75C22.5 5.63508 22.0353 4.55796 21.1953 3.75781C20.3539 2.95646 19.205 2.5 18 2.5C16.795 2.5 15.6461 2.95646 14.8047 3.75781C13.9647 4.55796 13.5 5.63507 13.5 6.75V10H14.25C15.7688 10 17 11.2312 17 12.75V20.25C17 21.7688 15.7688 23 14.25 23H3.75C2.23122 23 1 21.7688 1 20.25V12.75C1 11.2312 2.23122 10 3.75 10H12V6.75C12 5.21287 12.6416 3.74609 13.7705 2.6709C14.8982 1.59704 16.4203 1 18 1ZM3.75 11.5C3.05964 11.5 2.5 12.0596 2.5 12.75V20.25C2.5 20.9404 3.05964 21.5 3.75 21.5H14.25C14.9404 21.5 15.5 20.9404 15.5 20.25V12.75C15.5 12.0596 14.9404 11.5 14.25 11.5H3.75Z" fill="#000001"/>
</g>
</svg>
