<svg width="24" height="24" viewBox="0 0 24 24" fill="none" xmlns="http://www.w3.org/2000/svg">
<g id="size=24">
<path id="Path" d="M21.25 14C21.6642 14 22 14.3358 22 14.75V19.25C22 20.7688 20.7688 22 19.25 22H4.75C3.23122 22 2 20.7688 2 19.25V14.75C2 14.3358 2.33579 14 2.75 14C3.16421 14 3.5 14.3358 3.5 14.75V19.25C3.5 19.9404 4.05964 20.5 4.75 20.5H19.25C19.9404 20.5 20.5 19.9404 20.5 19.25V14.75C20.5 14.3358 20.8358 14 21.25 14ZM12 2C12.1968 2 12.376 2.07622 12.5098 2.2002C12.5209 2.21054 12.5324 2.22135 12.543 2.23242L17.793 7.73242C18.0786 8.03207 18.0671 8.50708 17.7676 8.79297C17.4679 9.07861 16.9929 9.06708 16.707 8.76758L12.75 4.62207V15.25C12.75 15.6642 12.4142 16 12 16C11.5858 16 11.25 15.6642 11.25 15.25V4.62207L7.29297 8.76758C7.00708 9.06708 6.53207 9.07861 6.23242 8.79297C5.93292 8.50708 5.92139 8.03207 6.20703 7.73242L11.4561 2.2334C11.5927 2.08956 11.7859 2 12 2Z" fill="#000001"/>
</g>
</svg>
