<svg width="16" height="16" viewBox="0 0 16 16" fill="none" xmlns="http://www.w3.org/2000/svg">
<g id="size=16">
<path id="Path" d="M14.25 9C14.6642 9 15 9.33579 15 9.75V12.75C15 13.9926 13.9926 15 12.75 15H3.25C2.00736 15 1 13.9926 1 12.75V9.75C1 9.33579 1.33579 9 1.75 9C2.16421 9 2.5 9.33579 2.5 9.75V12.75C2.5 13.1642 2.83579 13.5 3.25 13.5H12.75C13.1642 13.5 13.5 13.1642 13.5 12.75V9.75C13.5 9.33579 13.8358 9 14.25 9ZM8.0166 1C8.21904 1.00447 8.41167 1.09056 8.5498 1.23926L11.7998 4.73926C12.0816 5.04275 12.0642 5.51794 11.7607 5.7998C11.4572 6.08162 10.9821 6.06417 10.7002 5.76074L8.75 3.66016V10.25C8.75 10.6642 8.41421 11 8 11C7.58579 11 7.25 10.6642 7.25 10.25V3.66016L5.2998 5.76074C5.01794 6.06417 4.54275 6.08162 4.23926 5.7998C3.93583 5.51794 3.91838 5.04275 4.2002 4.73926L7.44922 1.24121C7.58275 1.09673 7.77225 1.00458 7.9834 1H8.0166Z" fill="#000001"/>
</g>
</svg>
