<svg width="24" height="24" viewBox="0 0 24 24" fill="none" xmlns="http://www.w3.org/2000/svg">
<g id="size=24">
<path id="Path" d="M12 0.25C18.4893 0.25 23.75 5.51065 23.75 12C23.75 18.4893 18.4893 23.75 12 23.75C5.51065 23.75 0.25 18.4893 0.25 12C0.25 5.51065 5.51065 0.25 12 0.25ZM8.25 16.5C6.54034 16.5 5.13904 17.8206 5.00977 19.4971C6.84082 21.2051 9.29846 22.25 12 22.25C14.7015 22.25 17.1592 21.2051 18.9902 19.4971C18.861 17.8206 17.4597 16.5 15.75 16.5H8.25ZM12 1.75C6.33908 1.75 1.75 6.33908 1.75 12C1.75 14.2982 2.50683 16.4194 3.78418 18.1289C4.44683 16.3038 6.196 15 8.25 15H15.75C17.804 15 19.5532 16.3038 20.2158 18.1289C21.4932 16.4194 22.25 14.2982 22.25 12C22.25 6.33908 17.6609 1.75 12 1.75ZM12 4.5C14.4853 4.5 16.5 6.51472 16.5 9C16.5 11.4853 14.4853 13.5 12 13.5C9.51472 13.5 7.5 11.4853 7.5 9C7.5 6.51472 9.51472 4.5 12 4.5ZM12 6C10.3431 6 9 7.34315 9 9C9 10.6569 10.3431 12 12 12C13.6569 12 15 10.6569 15 9C15 7.34315 13.6569 6 12 6Z" fill="#000001"/>
</g>
</svg>
