<svg width="16" height="16" viewBox="0 0 16 16" fill="none" xmlns="http://www.w3.org/2000/svg">
<g id="size=16">
<path id="Path" d="M7.75 10C9.82107 10 11.5 11.6789 11.5 13.75V14.25C11.5 14.6642 11.1642 15 10.75 15C10.3358 15 10 14.6642 10 14.25V13.75C10 12.5074 8.99264 11.5 7.75 11.5H4.25C3.00736 11.5 2 12.5074 2 13.75V14.25C2 14.6642 1.66421 15 1.25 15C0.835786 15 0.5 14.6642 0.5 14.25V13.75C0.5 11.6789 2.17893 10 4.25 10H7.75ZM12.25 10C14.0449 10 15.5 11.4551 15.5 13.25V14.25C15.5 14.6642 15.1642 15 14.75 15C14.3358 15 14 14.6642 14 14.25V13.25C14 12.2835 13.2165 11.5 12.25 11.5H12C11.5858 11.5 11.25 11.1642 11.25 10.75C11.25 10.3358 11.5858 10 12 10H12.25ZM6 2C7.933 2 9.5 3.567 9.5 5.5C9.5 7.433 7.933 9 6 9C4.067 9 2.5 7.433 2.5 5.5C2.5 3.567 4.067 2 6 2ZM10.3018 2.66504C10.4524 2.27928 10.8867 2.08874 11.2725 2.23926C12.5748 2.74786 13.4999 4.01493 13.5 5.5C13.5 6.98517 12.5749 8.25309 11.2725 8.76172C10.8869 8.91205 10.4525 8.72134 10.3018 8.33594C10.1511 7.9501 10.3417 7.51494 10.7275 7.36426C11.4736 7.07274 12 6.34669 12 5.5C11.9999 4.65347 11.4735 3.92826 10.7275 3.63672C10.3417 3.48604 10.1511 3.05087 10.3018 2.66504ZM6 3.5C4.89543 3.5 4 4.39543 4 5.5C4 6.60457 4.89543 7.5 6 7.5C7.10457 7.5 8 6.60457 8 5.5C8 4.39543 7.10457 3.5 6 3.5Z" fill="#000001"/>
</g>
</svg>
