<svg width="24" height="24" viewBox="0 0 24 24" fill="none" xmlns="http://www.w3.org/2000/svg">
<g id="size=24">
<path id="Path" d="M13.25 14.5C15.8734 14.5 18 16.6266 18 19.25V20.25C18 20.6642 17.6642 21 17.25 21C16.8358 21 16.5 20.6642 16.5 20.25V19.25C16.5 17.4551 15.0449 16 13.25 16H4.75C2.95507 16 1.5 17.4551 1.5 19.25V20.25C1.5 20.6642 1.16421 21 0.75 21C0.335786 21 0 20.6642 0 20.25V19.25C0 16.6266 2.12665 14.5 4.75 14.5H13.25ZM22.2197 8.71973C22.5126 8.42683 22.9874 8.42683 23.2803 8.71973C23.5732 9.01262 23.5732 9.48738 23.2803 9.78027L19.2803 13.7803C18.9874 14.0732 18.5126 14.0732 18.2197 13.7803L16.2197 11.7803C15.9268 11.4874 15.9268 11.0126 16.2197 10.7197C16.5126 10.4268 16.9874 10.4268 17.2803 10.7197L18.75 12.1895L22.2197 8.71973ZM9 3C11.7614 3 14 5.23858 14 8C14 10.7614 11.7614 13 9 13C6.23858 13 4 10.7614 4 8C4 5.23858 6.23858 3 9 3ZM9 4.5C7.067 4.5 5.5 6.067 5.5 8C5.5 9.933 7.067 11.5 9 11.5C10.933 11.5 12.5 9.933 12.5 8C12.5 6.067 10.933 4.5 9 4.5Z" fill="#000001"/>
</g>
</svg>
