<svg width="16" height="16" viewBox="0 0 16 16" fill="none" xmlns="http://www.w3.org/2000/svg">
<g id="size=16">
<path id="Path" d="M7.99973 0.25C12.2799 0.25 15.7497 3.71979 15.7497 8C15.7497 12.2802 12.2799 15.75 7.99973 15.75C3.71964 15.7499 0.249725 12.2801 0.249725 8C0.249725 3.71988 3.71964 0.250148 7.99973 0.25ZM5.49973 11.5C5.00448 11.5001 4.547 11.6725 4.22433 11.9531C3.91499 12.2222 3.79737 12.3975 3.76242 12.5938C4.87622 13.6216 6.36463 14.2499 7.99973 14.25C9.63486 14.25 11.1232 13.6216 12.237 12.5938C12.2021 12.3975 12.0846 12.2222 11.7751 11.9531C11.4524 11.6726 10.995 11.5 10.4997 11.5H5.49973ZM7.99973 1.75C4.54807 1.75015 1.74973 4.54831 1.74973 8C1.74973 9.2344 2.10769 10.3853 2.72531 11.3545C2.87497 11.1599 3.05121 10.9845 3.23996 10.8203C3.85481 10.2858 4.66923 10.0001 5.49973 10H10.4997C11.3302 10 12.1446 10.2858 12.7595 10.8203C12.9483 10.9845 13.1245 11.1599 13.2741 11.3545C13.8918 10.3853 14.2497 9.23445 14.2497 8C14.2497 4.54822 11.4515 1.75 7.99973 1.75ZM7.99973 3C9.65658 3 10.9997 4.34315 10.9997 6C10.9997 7.65685 9.65658 9 7.99973 9C6.343 8.99985 4.99973 7.65676 4.99973 6C4.99973 4.34324 6.343 3.00015 7.99973 3ZM7.99973 4.5C7.17142 4.50015 6.49973 5.17166 6.49973 6C6.49973 6.82834 7.17142 7.49985 7.99973 7.5C8.82815 7.5 9.49973 6.82843 9.49973 6C9.49973 5.17157 8.82815 4.5 7.99973 4.5Z" fill="#000001"/>
</g>
</svg>
