<svg width="16" height="16" viewBox="0 0 16 16" fill="none" xmlns="http://www.w3.org/2000/svg">
<g id="size=16">
<path id="Path" d="M7.75 10C9.82107 10 11.5 11.6789 11.5 13.75V14.25C11.5 14.6642 11.1642 15 10.75 15C10.3358 15 10 14.6642 10 14.25V13.75C10 12.5074 8.99264 11.5 7.75 11.5H4.25C3.00736 11.5 2 12.5074 2 13.75V14.25C2 14.6642 1.66421 15 1.25 15C0.835786 15 0.5 14.6642 0.5 14.25V13.75C0.5 11.6789 2.17893 10 4.25 10H7.75ZM13.7197 6.21973C14.0126 5.92683 14.4874 5.92683 14.7803 6.21973C15.0732 6.51262 15.0732 6.98738 14.7803 7.28027L12.2803 9.78027C11.9874 10.0732 11.5126 10.0732 11.2197 9.78027L10.2197 8.78027C9.92683 8.48738 9.92683 8.01262 10.2197 7.71973C10.5126 7.42683 10.9874 7.42683 11.2803 7.71973L11.75 8.18945L13.7197 6.21973ZM6 2C7.933 2 9.5 3.567 9.5 5.5C9.5 7.433 7.933 9 6 9C4.067 9 2.5 7.433 2.5 5.5C2.5 3.567 4.067 2 6 2ZM6 3.5C4.89543 3.5 4 4.39543 4 5.5C4 6.60457 4.89543 7.5 6 7.5C7.10457 7.5 8 6.60457 8 5.5C8 4.39543 7.10457 3.5 6 3.5Z" fill="#000001"/>
</g>
</svg>
