<svg width="24" height="24" viewBox="0 0 24 24" fill="none" xmlns="http://www.w3.org/2000/svg">
<g id="size=24">
<path id="Path" fill-rule="evenodd" clip-rule="evenodd" d="M0.25 12C0.25 5.51065 5.51065 0.25 12 0.25C18.4893 0.25 23.75 5.51065 23.75 12C23.75 18.4893 18.4893 23.75 12 23.75C5.51065 23.75 0.25 18.4893 0.25 12ZM4 18C4 15.7909 5.79086 14 8 14H16C18.2091 14 20 15.7909 20 18V18.25C20 18.6642 19.6642 19 19.25 19C18.8358 19 18.5 18.6642 18.5 18.25V18C18.5 16.6193 17.3807 15.5 16 15.5H8C6.61929 15.5 5.5 16.6193 5.5 18V18.25C5.5 18.6642 5.16421 19 4.75 19C4.33579 19 4 18.6642 4 18.25V18ZM9 8C9 6.34315 10.3431 5 12 5C13.6569 5 15 6.34315 15 8C15 9.65685 13.6569 11 12 11C10.3431 11 9 9.65685 9 8ZM12 3.5C9.51472 3.5 7.5 5.51472 7.5 8C7.5 10.4853 9.51472 12.5 12 12.5C14.4853 12.5 16.5 10.4853 16.5 8C16.5 5.51472 14.4853 3.5 12 3.5Z" fill="#000001"/>
</g>
</svg>
