<svg width="24" height="24" viewBox="0 0 24 24" fill="none" xmlns="http://www.w3.org/2000/svg">
<g id="size=24">
<path id="Path" d="M11.9996 0.25C18.489 0.25 23.7496 5.51065 23.7496 12C23.7496 18.4893 18.489 23.75 11.9996 23.75C5.51045 23.7498 0.249619 18.4892 0.249619 12C0.249619 5.51078 5.51045 0.250203 11.9996 0.25ZM8.24962 16.5C6.54013 16.5002 5.13865 17.8207 5.00938 19.4971C6.84035 21.205 9.29822 22.2499 11.9996 22.25C14.7011 22.25 17.1588 21.205 18.9899 19.4971C18.8606 17.8206 17.4593 16.5 15.7496 16.5H8.24962ZM11.9996 1.75C6.33887 1.7502 1.74962 6.33921 1.74962 12C1.74962 14.2981 2.50653 16.4194 3.7838 18.1289C4.44641 16.3039 6.19578 15.0002 8.24962 15H15.7496C17.8036 15 19.5528 16.3039 20.2154 18.1289C21.4928 16.4194 22.2496 14.2982 22.2496 12C22.2496 6.33908 17.6605 1.75 11.9996 1.75ZM11.9996 4.5C14.4849 4.5 16.4996 6.51472 16.4996 9C16.4996 11.4853 14.4849 13.5 11.9996 13.5C9.51451 13.4998 7.49962 11.4852 7.49962 9C7.49962 6.51484 9.51451 4.5002 11.9996 4.5ZM11.9996 6C10.3429 6.0002 8.99962 7.34327 8.99962 9C8.99962 10.6567 10.3429 11.9998 11.9996 12C13.6565 12 14.9996 10.6569 14.9996 9C14.9996 7.34315 13.6565 6 11.9996 6Z" fill="#000001"/>
</g>
</svg>
