<svg width="16" height="16" viewBox="0 0 16 16" fill="none" xmlns="http://www.w3.org/2000/svg">
<g id="size=16">
<path id="Path" d="M8 0.25C12.2802 0.25 15.75 3.71979 15.75 8C15.75 12.2802 12.2802 15.75 8 15.75C3.71979 15.75 0.25 12.2802 0.25 8C0.25 3.71979 3.71979 0.25 8 0.25ZM5.625 9C4.81672 9 4.02952 9.29308 3.43945 9.83301C2.91155 10.3162 2.5 10.8814 2.5 11.75C2.5 12.1642 2.83579 12.5 3.25 12.5C3.66421 12.5 4 12.1642 4 11.75C4 11.4656 4.08939 11.2725 4.45215 10.9404C4.75284 10.6652 5.17366 10.5 5.625 10.5H10.375C10.8263 10.5 11.2472 10.6652 11.5479 10.9404C11.9106 11.2725 12 11.4656 12 11.75C12 12.1642 12.3358 12.5 12.75 12.5C13.1642 12.5 13.5 12.1642 13.5 11.75C13.5 10.8814 13.0885 10.3162 12.5605 9.83301C11.9705 9.29308 11.1833 9 10.375 9H5.625ZM8 2C6.34315 2 5 3.34315 5 5C5 6.65685 6.34315 8 8 8C9.65685 8 11 6.65685 11 5C11 3.34315 9.65685 2 8 2ZM8 3.5C8.82843 3.5 9.5 4.17157 9.5 5C9.5 5.82843 8.82843 6.5 8 6.5C7.17157 6.5 6.5 5.82843 6.5 5C6.5 4.17157 7.17157 3.5 8 3.5Z" fill="#000001"/>
</g>
</svg>
