<svg width="16" height="16" viewBox="0 0 16 16" fill="none" xmlns="http://www.w3.org/2000/svg">
<g id="size=16">
<g id="Path">
<path fill-rule="evenodd" clip-rule="evenodd" d="M6 2C4.067 2 2.5 3.567 2.5 5.5C2.5 7.433 4.067 9 6 9C7.933 9 9.5 7.433 9.5 5.5C9.5 3.567 7.933 2 6 2ZM4 5.5C4 4.39543 4.89543 3.5 6 3.5C7.10457 3.5 8 4.39543 8 5.5C8 6.60457 7.10457 7.5 6 7.5C4.89543 7.5 4 6.60457 4 5.5Z" fill="#000001"/>
<path d="M4.25 10C2.17893 10 0.5 11.6789 0.5 13.75V14.25C0.5 14.6642 0.835786 15 1.25 15C1.66421 15 2 14.6642 2 14.25V13.75C2 12.5074 3.00736 11.5 4.25 11.5H7.75C8.99264 11.5 10 12.5074 10 13.75V14.25C10 14.6642 10.3358 15 10.75 15C11.1642 15 11.5 14.6642 11.5 14.25V13.75C11.5 11.6789 9.82107 10 7.75 10H4.25Z" fill="#000001"/>
<path d="M14.7803 6.21967C15.0732 6.51256 15.0732 6.98744 14.7803 7.28033L12.2803 9.78033C11.9874 10.0732 11.5126 10.0732 11.2197 9.78033C11.2195 9.78016 11.2198 9.7805 11.2197 9.78033L10.2197 8.78033C9.92678 8.48744 9.92678 8.01256 10.2197 7.71967C10.5126 7.42678 10.9874 7.42678 11.2803 7.71967L11.75 8.18934L13.7197 6.21967C14.0126 5.92678 14.4874 5.92678 14.7803 6.21967Z" fill="#000001"/>
</g>
</g>
</svg>
