<svg width="16" height="16" viewBox="0 0 16 16" fill="none" xmlns="http://www.w3.org/2000/svg">
<g id="size=16">
<path id="Path" d="M7.75 10C9.82107 10 11.5 11.6789 11.5 13.75V14.25C11.5 14.6642 11.1642 15 10.75 15C10.3358 15 10 14.6642 10 14.25V13.75C10 12.5074 8.99264 11.5 7.75 11.5H4.25C3.00736 11.5 2 12.5074 2 13.75V14.25C2 14.6642 1.66421 15 1.25 15C0.835786 15 0.5 14.6642 0.5 14.25V13.75C0.5 11.6789 2.17893 10 4.25 10H7.75ZM6 2C7.933 2 9.5 3.567 9.5 5.5C9.5 7.433 7.933 9 6 9C4.067 9 2.5 7.433 2.5 5.5C2.5 3.567 4.067 2 6 2ZM14.75 7.5C15.1642 7.5 15.5 7.83579 15.5 8.25C15.5 8.66421 15.1642 9 14.75 9H11.25C10.8358 9 10.5 8.66421 10.5 8.25C10.5 7.83579 10.8358 7.5 11.25 7.5H14.75ZM6 3.5C4.89543 3.5 4 4.39543 4 5.5C4 6.60457 4.89543 7.5 6 7.5C7.10457 7.5 8 6.60457 8 5.5C8 4.39543 7.10457 3.5 6 3.5Z" fill="#000001"/>
</g>
</svg>
