<svg width="16" height="16" viewBox="0 0 16 16" fill="none" xmlns="http://www.w3.org/2000/svg">
<g id="size=16">
<path id="Path" d="M8 0.250061C12.2802 0.250061 15.75 3.71985 15.75 8.00006C15.75 12.2802 12.2802 15.7501 8 15.7501C3.71982 15.7501 0.250035 12.2802 0.25 8.00006C0.25 3.71986 3.7198 0.250063 8 0.250061ZM5.625 9.00006C4.81673 9.00006 4.02952 9.29314 3.43945 9.83307C2.91156 10.3163 2.5 10.8814 2.5 11.7501C2.50003 12.1642 2.83581 12.5001 3.25 12.5001C3.66419 12.5001 3.99997 12.1642 4 11.7501C4 11.4656 4.08942 11.2725 4.45215 10.9405C4.75284 10.6653 5.17366 10.5001 5.625 10.5001H10.375C10.8263 10.5001 11.2472 10.6653 11.5479 10.9405C11.9106 11.2725 12 11.4656 12 11.7501C12 12.1642 12.3358 12.5001 12.75 12.5001C13.1642 12.5001 13.5 12.1642 13.5 11.7501C13.5 10.8814 13.0884 10.3163 12.5605 9.83307C11.9705 9.29314 11.1833 9.00006 10.375 9.00006H5.625ZM8 2.00006C6.34315 2.00006 5 3.34321 5 5.00006C5.00003 6.65688 6.34317 8.00006 8 8.00006C9.65683 8.00006 11 6.65689 11 5.00006C11 3.34321 9.65685 2.00006 8 2.00006ZM8 3.50006C8.82843 3.50006 9.5 4.17163 9.5 5.00006C9.49996 5.82846 8.82841 6.50006 8 6.50006C7.1716 6.50006 6.50003 5.82846 6.5 5.00006C6.5 4.17164 7.17157 3.50006 8 3.50006Z" fill="#000001"/>
</g>
</svg>
