<svg width="24" height="24" viewBox="0 0 24 24" fill="none" xmlns="http://www.w3.org/2000/svg">
<g id="size=24">
<path id="Path" d="M13.25 14.5C15.8734 14.5 18 16.6266 18 19.25V20.25C18 20.6642 17.6642 21 17.25 21C16.8358 21 16.5 20.6642 16.5 20.25V19.25C16.5 17.4551 15.0449 16 13.25 16H4.75C2.95507 16 1.5 17.4551 1.5 19.25V20.25C1.5 20.6642 1.16421 21 0.75 21C0.335786 21 0 20.6642 0 20.25V19.25C0 16.6266 2.12665 14.5 4.75 14.5H13.25ZM19.25 14.5C21.8734 14.5 24 16.6266 24 19.25V20.25C24 20.6642 23.6642 21 23.25 21C22.8358 21 22.5 20.6642 22.5 20.25V19.25C22.5 17.4551 21.0449 16 19.25 16H19C18.5858 16 18.25 15.6642 18.25 15.25C18.25 14.8358 18.5858 14.5 19 14.5H19.25ZM9 3C11.7614 3 14 5.23858 14 8C14 10.7614 11.7614 13 9 13C6.23858 13 4 10.7614 4 8C4 5.23858 6.23858 3 9 3ZM15 3C17.7614 3 20 5.23858 20 8C20 10.7614 17.7614 13 15 13C14.5858 13 14.25 12.6642 14.25 12.25C14.25 11.8358 14.5858 11.5 15 11.5C16.933 11.5 18.5 9.933 18.5 8C18.5 6.067 16.933 4.5 15 4.5C14.5858 4.5 14.25 4.16421 14.25 3.75C14.25 3.33579 14.5858 3 15 3ZM9 4.5C7.067 4.5 5.5 6.067 5.5 8C5.5 9.933 7.067 11.5 9 11.5C10.933 11.5 12.5 9.933 12.5 8C12.5 6.067 10.933 4.5 9 4.5Z" fill="#000001"/>
</g>
</svg>
