<svg width="16" height="16" viewBox="0 0 16 16" fill="none" xmlns="http://www.w3.org/2000/svg">
<g id="size=16">
<g id="Path">
<path d="M6.54167 3.97438H3.625V6.09972L6.54167 12.0256H9.45834L6.54167 6.09972V3.97438Z" fill="#000001"/>
<path d="M9.45832 3.97438V6.09972L8.24773 8.5572L9.70697 11.5192L12.375 6.09972V3.97438H9.45832Z" fill="#000001"/>
<path fill-rule="evenodd" clip-rule="evenodd" d="M0 2.13333C0 1.3866 0 1.01323 0.145325 0.728013C0.273156 0.47713 0.47713 0.273156 0.728013 0.145325C1.01323 0 1.3866 0 2.13333 0H13.8667C14.6134 0 14.9868 0 15.272 0.145325C15.5229 0.273156 15.7268 0.47713 15.8547 0.728013C16 1.01323 16 1.3866 16 2.13333V13.8667C16 14.6134 16 14.9868 15.8547 15.272C15.7268 15.5229 15.5229 15.7268 15.272 15.8547C14.9868 16 14.6134 16 13.8667 16H2.13333C1.3866 16 1.01323 16 0.728013 15.8547C0.47713 15.7268 0.273156 15.5229 0.145325 15.272C0 14.9868 0 14.6134 0 13.8667V2.13333ZM2.13333 0.666667H13.8667C14.251 0.666667 14.4992 0.667185 14.6881 0.682618C14.8692 0.697415 14.9364 0.722534 14.9693 0.739329C15.0948 0.803245 15.1968 0.905232 15.2607 1.03067C15.2775 1.06364 15.3026 1.13078 15.3174 1.31189C15.3328 1.50078 15.3333 1.74896 15.3333 2.13333V13.8667C15.3333 14.251 15.3328 14.4992 15.3174 14.6881C15.3026 14.8692 15.2775 14.9364 15.2607 14.9693C15.1968 15.0948 15.0948 15.1968 14.9693 15.2607C14.9364 15.2775 14.8692 15.3026 14.6881 15.3174C14.4992 15.3328 14.251 15.3333 13.8667 15.3333H2.13333C1.74896 15.3333 1.50078 15.3328 1.31189 15.3174C1.13078 15.3026 1.06364 15.2775 1.03067 15.2607C0.905232 15.1968 0.803245 15.0948 0.739329 14.9693C0.722534 14.9364 0.697415 14.8692 0.682618 14.6881C0.667185 14.4992 0.666667 14.251 0.666667 13.8667V2.13333C0.666667 1.74897 0.667185 1.50078 0.682618 1.31189C0.697415 1.13078 0.722534 1.06364 0.739329 1.03067C0.803245 0.905232 0.905232 0.803245 1.03067 0.739329C1.06364 0.722534 1.13078 0.697415 1.31189 0.682618C1.50078 0.667185 1.74896 0.666667 2.13333 0.666667Z" fill="#000001"/>
</g>
</g>
</svg>
