<svg width="16" height="16" viewBox="0 0 16 16" fill="none" xmlns="http://www.w3.org/2000/svg">
<g id="size=16">
<g id="Logo Group">
<path id="Vector" fill-rule="evenodd" clip-rule="evenodd" d="M13.8667 0.666667H2.13333C1.74896 0.666667 1.50078 0.667185 1.31189 0.682618C1.13078 0.697415 1.06364 0.722534 1.03067 0.739329C0.905232 0.803245 0.803245 0.905232 0.739329 1.03067C0.722534 1.06364 0.697415 1.13078 0.682618 1.31189C0.667185 1.50078 0.666667 1.74897 0.666667 2.13333V13.8667C0.666667 14.251 0.667185 14.4992 0.682618 14.6881C0.697415 14.8692 0.722534 14.9364 0.739329 14.9693C0.803245 15.0948 0.905232 15.1968 1.03067 15.2607C1.06364 15.2775 1.13078 15.3026 1.31189 15.3174C1.50078 15.3328 1.74896 15.3333 2.13333 15.3333H13.8667C14.251 15.3333 14.4992 15.3328 14.6881 15.3174C14.8692 15.3026 14.9364 15.2775 14.9693 15.2607C15.0948 15.1968 15.1968 15.0948 15.2607 14.9693C15.2775 14.9364 15.3026 14.8692 15.3174 14.6881C15.3328 14.4992 15.3333 14.251 15.3333 13.8667V2.13333C15.3333 1.74896 15.3328 1.50078 15.3174 1.31189C15.3026 1.13078 15.2775 1.06364 15.2607 1.03067C15.1968 0.905232 15.0948 0.803245 14.9693 0.739329C14.9364 0.722534 14.8692 0.697415 14.6881 0.682618C14.4992 0.667185 14.251 0.666667 13.8667 0.666667ZM0.145325 0.728013C0 1.01323 0 1.3866 0 2.13333V13.8667C0 14.6134 0 14.9868 0.145325 15.272C0.273156 15.5229 0.47713 15.7268 0.728013 15.8547C1.01323 16 1.3866 16 2.13333 16H13.8667C14.6134 16 14.9868 16 15.272 15.8547C15.5229 15.7268 15.7268 15.5229 15.8547 15.272C16 14.9868 16 14.6134 16 13.8667V2.13333C16 1.3866 16 1.01323 15.8547 0.728013C15.7268 0.47713 15.5229 0.273156 15.272 0.145325C14.9868 0 14.6134 0 13.8667 0H2.13333C1.3866 0 1.01323 0 0.728013 0.145325C0.47713 0.273156 0.273156 0.47713 0.145325 0.728013Z" fill="#000001"/>
<g id="vagrant">
<g id="Logo Group_2">
<path id="Subtract" fill-rule="evenodd" clip-rule="evenodd" d="M11.1752 3.46851L9.20227 4.61221V5.31439L8 8.15269L6.79773 5.31439V4.61221L4.82481 3.46851L3.625 4.16493V4.97317L6.29734 11.5443L8 12.531V10.0697L8.80014 9.606L10.4021 6.01126V5.30826L12.375 4.16537V4.16493L11.1752 3.46851ZM6.79767 4.61223V5.3144L7.99994 8.1527V9.14183L7.19979 9.60557L5.59705 6.01082V5.30783L6.79767 4.61223Z" fill="#000001"/>
<path id="Vector_2" opacity="0.7" d="M12.375 4.16541L10.4021 5.30829V6.01129L8.80014 9.60603L8 10.0698V12.5315L9.70266 11.5448L12.375 4.97365V4.16541Z" fill="#000001"/>
<path id="Vector_3" opacity="0.7" d="M6.79767 5.31442V4.61224L5.59705 5.30784V6.01084L7.19979 9.60558L7.99994 9.14185V8.15272L6.79767 5.31442Z" fill="#000001"/>
</g>
</g>
</g>
</g>
</svg>
