<svg width="24" height="24" viewBox="0 0 24 24" fill="none" xmlns="http://www.w3.org/2000/svg">
<g id="size=24">
<g id="Logo Group">
<path id="Logo Group_2" fill-rule="evenodd" clip-rule="evenodd" d="M2 0C0.895431 0 0 0.89543 0 2V22C0 23.1046 0.89543 24 2 24H22C23.1046 24 24 23.1046 24 22V2C24 0.895431 23.1046 0 22 0H2ZM13.9236 6.57956L17.0803 4.74963L19 5.86391V7.15781L14.7243 17.6717L12 19.2504L9.27574 17.671L5 7.15709V5.86391L6.91969 4.74963L10.0764 6.57956V7.70304L12 12.2443L13.9236 7.70304V6.57956Z" fill="#1868F2"/>
<g id="Union" opacity="0.3">
<path d="M15.8433 7.69361L19 5.86499V7.15818L14.7243 17.6721L12 19.2507V15.312L13.2802 14.57L15.8433 8.8184V7.69361Z" fill="#1868F2"/>
<path d="M10.0763 6.57996V7.70344L11.9999 12.2447V13.8273L10.7197 14.5693L8.15527 8.81771V7.69291L10.0763 6.57996Z" fill="#1868F2"/>
</g>
</g>
</g>
</svg>
