<svg width="16" height="16" viewBox="0 0 16 16" fill="none" xmlns="http://www.w3.org/2000/svg">
<g id="size=16">
<g id="Logo Group">
<path id="Subtract" fill-rule="evenodd" clip-rule="evenodd" d="M13.0803 0.749634L9.92362 2.57956V3.70305L8 8.24433L6.07638 3.70305V2.57956L2.91969 0.749634L1 1.86391V3.15709L5.27574 13.671L8 15.2496V11.3116L9.28023 10.5696L11.8433 4.81804V3.69324L15 1.86462L13.0803 0.749634ZM6.07638 2.57956V3.70305L8 8.24433L7.9999 9.82696L6.71967 10.5689L4.15527 4.81734V3.69255L6.07638 2.57956Z" fill="#000001"/>
<path id="Vector" opacity="0.7" d="M15 1.86462L11.8433 3.69324V4.81804L9.28023 10.5696L8 11.3116V15.2504L10.7243 13.6717L15 3.15781V1.86462Z" fill="#000001"/>
<path id="Vector_2" opacity="0.7" d="M6.07628 3.70307V2.57959L4.15527 3.69255V4.81734L6.71967 10.5689L7.9999 9.82696V8.24435L6.07628 3.70307Z" fill="#000001"/>
</g>
</g>
</svg>
