<svg width="16" height="16" viewBox="0 0 16 16" fill="none" xmlns="http://www.w3.org/2000/svg">
<g id="size=16">
<g id="Logo Group">
<path id="Logo Group_2" fill-rule="evenodd" clip-rule="evenodd" d="M2 0C0.895431 0 0 0.895431 0 2V14C0 15.1046 0.895431 16 2 16H14C15.1046 16 16 15.1046 16 14V2C16 0.895431 15.1046 0 14 0H2ZM9.20226 4.61223L11.1752 3.46852L12.375 4.16494V4.97363L9.70266 11.5448L8 12.5315L6.29734 11.5444L3.625 4.97318V4.16494L4.82481 3.46852L6.79773 4.61223V5.3144L8 8.1527L9.20226 5.3144V4.61223Z" fill="#1868F2"/>
<g id="Union" opacity="0.3">
<path d="M10.4021 5.30853L12.375 4.16565V4.97389L9.70266 11.5451L8 12.5317V10.07L8.80014 9.60627L10.4021 6.01153V5.30853Z" fill="#1868F2"/>
<path d="M6.7978 4.61243V5.3146L8.00006 8.1529V9.14203L7.19992 9.60576L5.59717 6.01102V5.30802L6.7978 4.61243Z" fill="#1868F2"/>
</g>
</g>
</g>
</svg>
