<svg width="24" height="24" viewBox="0 0 24 24" fill="none" xmlns="http://www.w3.org/2000/svg">
<g id="size=24">
<g id="Logo Group">
<path id="Vector" d="M11.3148 18V15.5067C11.3148 14.9233 11.3515 14.3367 11.4248 13.76L11.4915 13.2233L11.1581 13.65C10.8013 14.11 10.4112 14.5533 10.0011 14.9633L8.23729 16.7267L7.27035 15.76L9.03418 13.9967C9.44429 13.5833 9.88775 13.1967 10.3479 12.84L10.778 12.5067L10.2412 12.5733C9.66435 12.6467 9.07419 12.6833 8.49403 12.6833H6V11.3167H11.3181V6H12.6852V8.49333C12.6852 9.07667 12.6485 9.66333 12.5752 10.24L12.5085 10.7767L12.8419 10.3467C13.1987 9.88667 13.5888 9.44667 13.9989 9.03333L15.7627 7.27L16.7296 8.23667L14.9658 10C14.5524 10.4133 14.1123 10.8 13.6521 11.1567L13.222 11.49L13.7588 11.4233C14.3356 11.35 14.9258 11.3133 15.506 11.3133H18V12.68H12.6819V17.9967H11.3148V18ZM14.0089 14.9767V14.01H14.9758L16.7263 15.76L15.7594 16.7267L14.0089 14.9767ZM9.02084 9.99L7.27035 8.24L8.23729 7.27333L9.98777 9.02333V9.99H9.02084Z" fill="black"/>
<path id="Border" fill-rule="evenodd" clip-rule="evenodd" d="M1.25 4C1.25 2.48122 2.48122 1.25 4 1.25H20C21.5188 1.25 22.75 2.48122 22.75 4V20C22.75 21.5188 21.5188 22.75 20 22.75H4C2.48122 22.75 1.25 21.5188 1.25 20V4ZM4 2.75C3.30964 2.75 2.75 3.30964 2.75 4V20C2.75 20.6904 3.30964 21.25 4 21.25H20C20.6904 21.25 21.25 20.6904 21.25 20V4C21.25 3.30964 20.6904 2.75 20 2.75H4Z" fill="#FFD814"/>
</g>
</g>
</svg>
