<svg width="16" height="16" viewBox="0 0 16 16" fill="none" xmlns="http://www.w3.org/2000/svg">
<g id="size=16">
<path id="Path" fill-rule="evenodd" clip-rule="evenodd" d="M2 0C0.895431 0 0 0.895431 0 2V14C0 15.1046 0.895431 16 2 16H14C15.1046 16 16 15.1046 16 14V2C16 0.895431 15.1046 0 14 0H2ZM7.49771 10.5521V12.375H8.50229V8.49587H12.375V7.5042H10.5551C10.1329 7.5042 9.71069 7.53337 9.28848 7.5917L8.89538 7.63545L9.20112 7.38754C9.53598 7.12504 9.85628 6.84795 10.162 6.5417L11.4287 5.25837L10.7298 4.55837L9.44863 5.8417C9.14289 6.14795 8.86627 6.46879 8.6042 6.80421L8.3567 7.11046L8.40038 6.7167C8.45861 6.29379 8.48773 5.87087 8.48773 5.44795V3.62504H7.49771V7.5042H3.625V8.49587H5.44488C5.8671 8.49587 6.28931 8.46671 6.71152 8.40837L7.10462 8.36462L6.79888 8.61254C6.46402 8.87504 6.14372 9.15212 5.83798 9.45837L4.55678 10.7417L5.25562 11.4417L6.53681 10.1584C6.84255 9.85212 7.11918 9.53129 7.38124 9.19587L7.62874 8.88962L7.58507 9.28337C7.52683 9.70629 7.49771 10.1292 7.49771 10.5521ZM9.46319 9.47295V10.173L10.7298 11.4417L11.4287 10.7417L10.162 9.47295H9.46319ZM4.55678 5.25837L5.82342 6.52712H6.52225V5.82712L5.25562 4.55837L4.55678 5.25837Z" fill="#000001"/>
</g>
</svg>
