<svg width="24" height="24" viewBox="0 0 24 24" fill="none" xmlns="http://www.w3.org/2000/svg">
<g id="size=24">
<path id="Path" d="M23 11.9965L21.9435 10.9398L20.887 11.9965C20.887 16.8959 16.9004 20.8831 12.0018 20.8831C7.10309 20.8831 3.11654 16.8959 3.11654 11.9965C3.11654 7.09702 7.10309 3.10983 12.0018 3.10983C14.0056 3.10983 15.939 3.80019 17.4886 5.01537L15.7171 6.78706C14.6395 6.01569 13.3541 5.59302 11.9982 5.59302C8.46598 5.59302 5.59228 8.46718 5.59228 12C5.59228 15.5328 8.46598 18.407 11.9982 18.407C15.5305 18.407 18.4042 15.5328 18.4042 12L17.3477 10.9433L16.2912 12C16.2912 14.367 14.3648 16.2936 11.9982 16.2936C9.63166 16.2936 7.7053 14.367 7.7053 12C7.7053 9.63304 9.63166 7.70637 11.9982 7.70637C12.7836 7.70637 13.5337 7.92123 14.1923 8.3122L11.9982 10.5066V12H13.4914L20.4855 5.0048C18.4042 2.48639 15.2769 1 11.9982 1C5.93389 1 1 5.93468 1 12C1 18.0653 5.93389 23 11.9982 23C18.0626 23 22.9965 18.0653 22.9965 12L23 11.9965Z" fill="#FFCF25"/>
</g>
</svg>
