<svg width="24" height="24" viewBox="0 0 24 24" fill="none" xmlns="http://www.w3.org/2000/svg">
<g id="size=24">
<path id="Path" fill-rule="evenodd" clip-rule="evenodd" d="M2 0C0.895431 0 0 0.89543 0 2V22C0 23.1046 0.89543 24 2 24H22C23.1046 24 24 23.1046 24 22V2C24 0.895431 23.1046 0 22 0H2ZM18.3277 11.3253L19 11.9978L18.9978 12C18.9978 15.8597 15.858 19 11.9989 19C8.13975 19 5 15.8597 5 12C5 8.14025 8.13975 5 11.9989 5C14.0853 5 16.0754 5.94589 17.3999 7.54851L12.9491 12H11.9989V11.0496L13.3951 9.65322C12.976 9.40442 12.4986 9.26769 11.9989 9.26769C10.4929 9.26769 9.26701 10.4938 9.26701 12C9.26701 13.5062 10.4929 14.7323 11.9989 14.7323C13.5049 14.7323 14.7308 13.5062 14.7308 12L15.4031 11.3276L16.0754 12C16.0754 14.2482 14.2467 16.0772 11.9989 16.0772C9.75108 16.0772 7.92236 14.2482 7.92236 12C7.92236 9.75184 9.75108 7.92283 11.9989 7.92283C12.8617 7.92283 13.6797 8.1918 14.3655 8.68268L15.4927 7.55524C14.5066 6.78194 13.2763 6.34262 12.0011 6.34262C8.88378 6.34262 6.34689 8.87992 6.34689 11.9978C6.34689 15.1156 8.88378 17.6529 12.0011 17.6529C15.1185 17.6529 17.6554 15.1156 17.6554 11.9978L18.3277 11.3253Z" fill="#FFCF25"/>
</g>
</svg>
