<svg width="24" height="24" viewBox="0 0 24 24" fill="none" xmlns="http://www.w3.org/2000/svg">
<g id="size=24">
<g id="Path">
<path d="M11.328 16.2V19.2H12.984V12.816H19.368V11.184H16.368C15.672 11.184 14.976 11.232 14.28 11.328L13.632 11.4L14.136 10.992C14.688 10.56 15.216 10.104 15.72 9.59999L17.808 7.48799L16.656 6.33599L14.544 8.44799C14.04 8.95199 13.584 9.47999 13.152 10.032L12.744 10.536L12.816 9.88799C12.912 9.19199 12.96 8.49599 12.96 7.79999V4.79999H11.328V11.184H4.94397V12.816H7.94397C8.63997 12.816 9.33597 12.768 10.032 12.672L10.68 12.6L10.176 13.008C9.62397 13.44 9.09597 13.896 8.59197 14.4L6.47997 16.512L7.63197 17.664L9.74397 15.552C10.248 15.048 10.704 14.52 11.136 13.968L11.544 13.464L11.472 14.112C11.376 14.808 11.328 15.504 11.328 16.2Z" fill="#000001"/>
<path d="M14.568 14.424V15.576L16.656 17.664L17.808 16.512L15.72 14.424H14.568Z" fill="#000001"/>
<path d="M6.47997 7.48799L8.56797 9.57599H9.71997V8.42399L7.63197 6.33599L6.47997 7.48799Z" fill="#000001"/>
<path fill-rule="evenodd" clip-rule="evenodd" d="M1.992 0H22.008C23.112 0 24 0.888 23.976 1.992V21.984C23.976 23.088 23.088 23.976 21.984 23.976H1.992C0.888 23.976 0 23.088 0 21.984V1.992C0 0.888 0.888 0 1.992 0ZM23.016 2.016C23.016 1.464 22.56 1.008 22.008 1.008L1.992 0.984C1.44 0.984 0.984 1.44 0.984 1.992V22.008C0.984 22.56 1.44 23.016 1.992 23.016H22.008C22.56 23.016 23.016 22.56 23.016 22.008V2.016Z" fill="#000001"/>
</g>
</g>
</svg>
