<svg width="16" height="16" viewBox="0 0 16 16" fill="none" xmlns="http://www.w3.org/2000/svg">
<g id="size=16">
<g id="Logo Group">
<path id="Vector" d="M7.54321 12V10.3378C7.54321 9.94889 7.56766 9.55778 7.61656 9.17333L7.66102 8.81556L7.43873 9.1C7.20089 9.40667 6.94082 9.70222 6.66741 9.97556L5.49153 11.1511L4.8469 10.5067L6.02278 9.33111C6.29619 9.05556 6.59183 8.79778 6.89858 8.56L7.18533 8.33778L6.82745 8.38222C6.4429 8.43111 6.04946 8.45556 5.66268 8.45556H4V7.54444H7.54543V4H8.45679V5.66222C8.45679 6.05111 8.43234 6.44222 8.38344 6.82667L8.33898 7.18444L8.56127 6.89778C8.79911 6.59111 9.05918 6.29778 9.33259 6.02222L10.5085 4.84667L11.1531 5.49111L9.97722 6.66667C9.70158 6.94222 9.40817 7.2 9.10142 7.43778L8.81467 7.66L9.17255 7.61556C9.5571 7.56667 9.95054 7.54222 10.3373 7.54222H12V8.45333H8.45457V11.9978H7.54321V12ZM9.33926 9.98444V9.34H9.98388L11.1509 10.5067L10.5063 11.1511L9.33926 9.98444ZM6.01389 6.66L4.8469 5.49333L5.49153 4.84889L6.65852 6.01556V6.66H6.01389Z" fill="black"/>
<path id="Border" fill-rule="evenodd" clip-rule="evenodd" d="M0.25 2.5C0.25 1.25736 1.25736 0.25 2.5 0.25H13.5C14.7426 0.25 15.75 1.25736 15.75 2.5V13.5C15.75 14.7426 14.7426 15.75 13.5 15.75H2.5C1.25736 15.75 0.25 14.7426 0.25 13.5V2.5ZM2.5 1.75C2.08579 1.75 1.75 2.08579 1.75 2.5V13.5C1.75 13.9142 2.08579 14.25 2.5 14.25H13.5C13.9142 14.25 14.25 13.9142 14.25 13.5V2.5C14.25 2.08579 13.9142 1.75 13.5 1.75H2.5Z" fill="#FFD814"/>
</g>
</g>
</svg>
