<svg width="16" height="16" viewBox="0 0 16 16" fill="none" xmlns="http://www.w3.org/2000/svg">
<g id="size=16">
<path id="Path" d="M15 7.99776L14.3277 7.32533L13.6554 7.99776C13.6554 11.1156 11.1185 13.6529 8.00112 13.6529C4.88378 13.6529 2.34689 11.1156 2.34689 7.99776C2.34689 4.87992 4.88378 2.34262 8.00112 2.34262C9.27629 2.34262 10.5066 2.78194 11.4927 3.55524L10.3655 4.68268C9.67969 4.1918 8.86169 3.92283 7.99888 3.92283C5.75108 3.92283 3.92236 5.75184 3.92236 8C3.92236 10.2482 5.75108 12.0772 7.99888 12.0772C10.2467 12.0772 12.0754 10.2482 12.0754 8L11.4031 7.32757L10.7308 8C10.7308 9.50624 9.50488 10.7323 7.99888 10.7323C6.49288 10.7323 5.26701 9.50624 5.26701 8C5.26701 6.49376 6.49288 5.26769 7.99888 5.26769C8.49864 5.26769 8.97599 5.40442 9.39507 5.65322L7.99888 7.04963V8H8.9491L13.3999 3.54851C12.0754 1.94589 10.0853 1 7.99888 1C4.13975 1 1 4.14025 1 8C1 11.8597 4.13975 15 7.99888 15C11.858 15 14.9978 11.8597 14.9978 8L15 7.99776Z" fill="#FFCF25"/>
</g>
</svg>
