<svg width="16" height="16" viewBox="0 0 16 16" fill="none" xmlns="http://www.w3.org/2000/svg">
<g id="size=16">
<g id="Path">
<path d="M7.54321 10.3378V11.9978H8.45457V8.45333H12V7.54222H10.3373C9.95054 7.54222 9.5571 7.56667 9.17255 7.61556L8.81467 7.66L9.10142 7.43778C9.40817 7.2 9.70158 6.94222 9.97722 6.66667L11.1531 5.49111L10.5085 4.84667L9.33259 6.02222C9.05918 6.29778 8.79911 6.59111 8.56127 6.89778L8.33898 7.18444L8.38344 6.82667C8.43234 6.44222 8.45679 6.05111 8.45679 5.66222V4H7.54543V7.54444H4V8.45555H5.66268C6.04946 8.45555 6.4429 8.43111 6.82745 8.38222L7.18533 8.33778L6.89858 8.56C6.59183 8.79778 6.29619 9.05556 6.02278 9.33111L4.8469 10.5067L5.49153 11.1511L6.66741 9.97556C6.94082 9.70222 7.20089 9.40667 7.43873 9.1L7.66102 8.81556L7.61656 9.17333C7.56766 9.55778 7.54321 9.94889 7.54321 10.3378Z" fill="#000001"/>
<path d="M9.33926 9.34V9.98444L10.5063 11.1511L11.1509 10.5067L9.98388 9.34H9.33926Z" fill="#000001"/>
<path d="M4.8469 5.49333L6.01389 6.66H6.65852V6.01556L5.49153 4.84889L4.8469 5.49333Z" fill="#000001"/>
<path fill-rule="evenodd" clip-rule="evenodd" d="M2.5 0.25C1.25736 0.25 0.25 1.25736 0.25 2.5V13.5C0.25 14.7426 1.25736 15.75 2.5 15.75H13.5C14.7426 15.75 15.75 14.7426 15.75 13.5V2.5C15.75 1.25736 14.7426 0.25 13.5 0.25H2.5ZM1.75 2.5C1.75 2.08579 2.08579 1.75 2.5 1.75H13.5C13.9142 1.75 14.25 2.08579 14.25 2.5V13.5C14.25 13.9142 13.9142 14.25 13.5 14.25H2.5C2.08579 14.25 1.75 13.9142 1.75 13.5V2.5Z" fill="#000001"/>
</g>
</g>
</svg>
