<svg width="24" height="24" viewBox="0 0 24 24" fill="none" xmlns="http://www.w3.org/2000/svg">
<g id="size=24">
<g id="Path">
<path d="M9.46162 10.1593H10.7315V8.88937H9.46162V10.1593Z" fill="#000001"/>
<path d="M9.46162 8.25369H10.7315V6.98522H9.46162V8.25369Z" fill="#000001"/>
<path d="M11.3658 12.0634H12.6357V10.7935H11.3658V12.0634Z" fill="#000001"/>
<path d="M11.3658 10.1593H12.6357V8.88937H11.3658V10.1593Z" fill="#000001"/>
<path d="M11.3658 8.25369H12.6357V6.98522H11.3658V8.25369Z" fill="#000001"/>
<path d="M13.2598 10.1593H14.5297V8.88937H13.2598V10.1593Z" fill="#000001"/>
<path d="M13.2598 6.98522V8.25369H14.5297V6.98522H13.2598Z" fill="#000001"/>
<path fill-rule="evenodd" clip-rule="evenodd" d="M2 0C0.895431 0 0 0.89543 0 2V22C0 23.1046 0.89543 24 2 24H22C23.1046 24 24 23.1046 24 22V2C24 0.895431 23.1046 0 22 0H2ZM11.9712 19.5157L4 4H20L11.9712 19.5157Z" fill="#000001"/>
</g>
</g>
</svg>
