<svg width="24" height="24" viewBox="0 0 24 24" fill="none" xmlns="http://www.w3.org/2000/svg">
<g id="size=24">
<g id="Path">
<path d="M18.3277 11.3253L19 11.9978L18.9978 12C18.9978 15.8597 15.858 19 11.9989 19C8.13975 19 5 15.8597 5 12C5 8.14025 8.13975 5 11.9989 5C14.0853 5 16.0754 5.94589 17.3999 7.54851L12.9491 12H11.9989V11.0496L13.3951 9.65322C12.976 9.40442 12.4986 9.26769 11.9989 9.26769C10.4929 9.26769 9.26701 10.4938 9.26701 12C9.26701 13.5062 10.4929 14.7323 11.9989 14.7323C13.5049 14.7323 14.7308 13.5062 14.7308 12L15.4031 11.3276L16.0754 12C16.0754 14.2482 14.2467 16.0772 11.9989 16.0772C9.75108 16.0772 7.92236 14.2482 7.92236 12C7.92236 9.75184 9.75108 7.92283 11.9989 7.92283C12.8617 7.92283 13.6797 8.1918 14.3655 8.68268L15.4927 7.55524C14.5066 6.78194 13.2763 6.34262 12.0011 6.34262C8.88378 6.34262 6.34689 8.87992 6.34689 11.9978C6.34689 15.1156 8.88378 17.6529 12.0011 17.6529C15.1185 17.6529 17.6554 15.1156 17.6554 11.9978L18.3277 11.3253Z" fill="#000001"/>
<path fill-rule="evenodd" clip-rule="evenodd" d="M0 3.2C0 2.0799 0 1.51984 0.217987 1.09202C0.409734 0.715695 0.715695 0.409734 1.09202 0.217987C1.51984 0 2.0799 0 3.2 0H20.8C21.9201 0 22.4802 0 22.908 0.217987C23.2843 0.409734 23.5903 0.715695 23.782 1.09202C24 1.51984 24 2.0799 24 3.2V20.8C24 21.9201 24 22.4802 23.782 22.908C23.5903 23.2843 23.2843 23.5903 22.908 23.782C22.4802 24 21.9201 24 20.8 24H3.2C2.0799 24 1.51984 24 1.09202 23.782C0.715695 23.5903 0.409734 23.2843 0.217987 22.908C0 22.4802 0 21.9201 0 20.8V3.2ZM3.2 1H20.8C21.3766 1 21.7488 1.00078 22.0322 1.02393C22.3038 1.04612 22.4045 1.0838 22.454 1.10899C22.6422 1.20487 22.7951 1.35785 22.891 1.54601C22.9162 1.59545 22.9539 1.69617 22.9761 1.96784C22.9992 2.25117 23 2.62345 23 3.2V20.8C23 21.3766 22.9992 21.7488 22.9761 22.0322C22.9539 22.3038 22.9162 22.4045 22.891 22.454C22.7951 22.6422 22.6422 22.7951 22.454 22.891C22.4045 22.9162 22.3038 22.9539 22.0322 22.9761C21.7488 22.9992 21.3766 23 20.8 23H3.2C2.62345 23 2.25117 22.9992 1.96784 22.9761C1.69617 22.9539 1.59545 22.9162 1.54601 22.891C1.35785 22.7951 1.20487 22.6422 1.10899 22.454C1.0838 22.4045 1.04612 22.3038 1.02393 22.0322C1.00078 21.7488 1 21.3766 1 20.8V3.2C1 2.62345 1.00078 2.25117 1.02393 1.96784C1.04612 1.69617 1.0838 1.59545 1.10899 1.54601C1.20487 1.35785 1.35785 1.20487 1.54601 1.10899C1.59545 1.0838 1.69617 1.04612 1.96784 1.02393C2.25117 1.00078 2.62345 1 3.2 1Z" fill="#000001"/>
</g>
</g>
</svg>
