<svg width="24" height="24" viewBox="0 0 24 24" fill="none" xmlns="http://www.w3.org/2000/svg">
<g id="size=24">
<g id="Path">
<path d="M11.1963 16.0834V19.0001H12.8037V12.7934H19V11.2067H16.0882C15.4126 11.2067 14.7371 11.2534 14.0616 11.3467L13.4326 11.4167L13.9218 11.0201C14.4576 10.6001 14.9701 10.1567 15.4592 9.66673L17.4859 7.61339L16.3677 6.49339L14.3178 8.54673C13.8286 9.03673 13.386 9.55006 12.9667 10.0867L12.5707 10.5767L12.6406 9.94673C12.7338 9.27006 12.7804 8.59339 12.7804 7.91673V5.00006H11.1963V11.2067H5V12.7934H7.91181C8.58735 12.7934 9.2629 12.7467 9.93844 12.6534L10.5674 12.5834L10.0782 12.9801C9.54243 13.4001 9.02995 13.8434 8.54077 14.3334L6.49085 16.3867L7.60898 17.5067L9.6589 15.4534C10.1481 14.9634 10.5907 14.4501 11.01 13.9134L11.406 13.4234L11.3361 14.0534C11.2429 14.7301 11.1963 15.4067 11.1963 16.0834Z" fill="#FFCF25"/>
<path d="M14.3411 14.3567V15.4767L16.3677 17.5067L17.4859 16.3867L15.4592 14.3567H14.3411Z" fill="#FFCF25"/>
<path d="M6.49085 7.61339L8.51747 9.64339H9.63561V8.52339L7.60898 6.49339L6.49085 7.61339Z" fill="#FFCF25"/>
<path fill-rule="evenodd" clip-rule="evenodd" d="M0 3.2C0 2.0799 0 1.51984 0.217987 1.09202C0.409734 0.715695 0.715695 0.409734 1.09202 0.217987C1.51984 0 2.0799 0 3.2 0H20.8C21.9201 0 22.4802 0 22.908 0.217987C23.2843 0.409734 23.5903 0.715695 23.782 1.09202C24 1.51984 24 2.0799 24 3.2V20.8C24 21.9201 24 22.4802 23.782 22.908C23.5903 23.2843 23.2843 23.5903 22.908 23.782C22.4802 24 21.9201 24 20.8 24H3.2C2.0799 24 1.51984 24 1.09202 23.782C0.715695 23.5903 0.409734 23.2843 0.217987 22.908C0 22.4802 0 21.9201 0 20.8V3.2ZM3.2 1H20.8C21.3766 1 21.7488 1.00078 22.0322 1.02393C22.3038 1.04612 22.4045 1.0838 22.454 1.10899C22.6422 1.20487 22.7951 1.35785 22.891 1.54601C22.9162 1.59545 22.9539 1.69617 22.9761 1.96784C22.9992 2.25117 23 2.62345 23 3.2V20.8C23 21.3766 22.9992 21.7488 22.9761 22.0322C22.9539 22.3038 22.9162 22.4045 22.891 22.454C22.7951 22.6422 22.6422 22.7951 22.454 22.891C22.4045 22.9162 22.3038 22.9539 22.0322 22.9761C21.7488 22.9992 21.3766 23 20.8 23H3.2C2.62345 23 2.25117 22.9992 1.96784 22.9761C1.69617 22.9539 1.59545 22.9162 1.54601 22.891C1.35785 22.7951 1.20487 22.6422 1.10899 22.454C1.0838 22.4045 1.04612 22.3038 1.02393 22.0322C1.00078 21.7488 1 21.3766 1 20.8V3.2C1 2.62345 1.00078 2.25117 1.02393 1.96784C1.04612 1.69617 1.0838 1.59545 1.10899 1.54601C1.20487 1.35785 1.35785 1.20487 1.54601 1.10899C1.59545 1.0838 1.69617 1.04612 1.96784 1.02393C2.25117 1.00078 2.62345 1 3.2 1Z" fill="#FFCF25"/>
</g>
</g>
</svg>
