<svg width="24" height="24" viewBox="0 0 24 24" fill="none" xmlns="http://www.w3.org/2000/svg">
<g id="size=24">
<path id="Path" d="M10.7371 23V18.4167C10.7371 17.3533 10.8103 16.29 10.9567 15.2267L11.0666 14.2367L10.4443 15.0067C9.78536 15.85 9.08985 16.6567 8.32113 17.4267L5.09983 20.6533L3.34276 18.8933L6.56406 15.6667C7.33278 14.8967 8.1381 14.2 8.98003 13.54L9.74875 12.9167L8.7604 13.0267C7.69884 13.1733 6.63727 13.2467 5.57571 13.2467H1V10.7533H10.7371V1H13.2263V5.58333C13.2263 6.64667 13.1531 7.71 13.0067 8.77333L12.8968 9.76333L13.5191 8.99333C14.178 8.15 14.8735 7.34333 15.6423 6.57333L18.8636 3.34667L20.6206 5.10667L17.4359 8.33333C16.6672 9.10333 15.8619 9.8 15.02 10.46L14.2513 11.0833L15.2396 10.9733C16.3012 10.8267 17.3627 10.7533 18.4243 10.7533H23V13.2467H13.2629V23H10.7371ZM15.6789 17.4633V15.7033H17.4359L20.6206 18.8933L18.8636 20.6533L15.6789 17.4633ZM6.52745 8.29667L3.34276 5.10667L5.09983 3.34667L8.28453 6.53667V8.29667C8.32113 8.29667 6.52745 8.29667 6.52745 8.29667Z" fill="#FFCF25"/>
</g>
</svg>
