<svg width="24" height="24" viewBox="0 0 24 24" fill="none" xmlns="http://www.w3.org/2000/svg">
<g id="size=24">
<path id="Path" fill-rule="evenodd" clip-rule="evenodd" d="M15.9662 3.21588C16.0055 3.10333 16.0325 3.02584 16.0422 3H23C20.747 9.09639 17.5331 14.6709 13.4081 19.558L12 21.2229L10.5919 19.558C6.46687 14.6709 3.25301 9.09639 1 3H7.80874C7.81843 3.02584 7.84543 3.10332 7.88466 3.21586C8.04664 3.68055 8.417 4.743 8.63705 5.23645H4.54518C6.07756 9.3863 8.26431 13.18 11.0723 16.5098L12.0331 17.6446L12.994 16.5098C15.802 13.18 17.9887 9.3863 19.5211 5.23645H15.2139C15.4339 4.74301 15.8042 3.68057 15.9662 3.21588ZM12 11.8215C13.201 10.2643 14.1701 8.53313 14.9156 6.68599H17.1769C16.1167 9.55195 14.6009 12.1694 12.6626 14.4721L12 15.259L11.3373 14.4721C9.39905 12.1777 7.88324 9.55195 6.823 6.68599H9.08429C9.82977 8.53313 10.7989 10.2643 12 11.8215Z" fill="#FF6333"/>
</g>
</svg>
