<svg width="24" height="24" viewBox="0 0 24 24" fill="none" xmlns="http://www.w3.org/2000/svg">
<g id="size=24">
<path id="Path" fill-rule="evenodd" clip-rule="evenodd" d="M9.82092 1.63495C11.1247 0.703857 12.8765 0.703696 14.1803 1.63495L15.3736 2.48749C15.6513 2.68578 15.9708 2.81841 16.3072 2.87518L17.7994 3.12714C19.3738 3.39292 20.608 4.62694 20.8736 6.20135L21.1246 7.69354C21.1814 8.02975 21.3142 8.34865 21.5123 8.62616L22.3658 9.82049C23.2967 11.1242 23.2969 12.8762 22.3658 14.1799L21.5123 15.3732C21.3141 15.6508 21.1814 15.9705 21.1246 16.3068L20.8736 17.799C20.6079 19.3733 19.3737 20.6065 17.7994 20.8723L16.3072 21.1242C15.9708 21.181 15.6513 21.3137 15.3736 21.5119L14.1803 22.3644C12.8765 23.2957 11.1248 23.2956 9.82092 22.3644L8.62756 21.5119C8.34994 21.3136 8.03035 21.181 7.69396 21.1242L6.20177 20.8723C4.6273 20.6066 3.39331 19.3735 3.12756 17.799L2.8756 16.3068C2.81882 15.9704 2.68623 15.6509 2.48791 15.3732L1.63537 14.1799C0.704131 12.8761 0.704321 11.1243 1.63537 9.82049L2.48791 8.62616C2.68605 8.34865 2.8188 8.02976 2.8756 7.69354L3.12756 6.20135C3.39328 4.62688 4.62727 3.39279 6.20177 3.12714L7.69396 2.87518C8.03032 2.81836 8.34997 2.68577 8.62756 2.48749L9.82092 1.63495ZM13.3082 2.85565C12.5261 2.29701 11.4752 2.29718 10.693 2.85565L9.49963 3.70819C9.03687 4.03873 8.50373 4.26 7.94299 4.35467L6.4508 4.60663C5.50641 4.76619 4.76653 5.50596 4.60705 6.45038L4.35509 7.94257C4.26048 8.50334 4.03912 9.03543 3.70861 9.49823L2.85607 10.6916C2.29728 11.4739 2.29729 12.5255 2.85607 13.3078L3.70861 14.5012C4.03915 14.9639 4.26045 15.496 4.35509 16.0568L4.60705 17.549C4.76642 18.4936 5.50625 19.2342 6.4508 19.3937L7.94299 19.6457C8.50375 19.7404 9.03686 19.9607 9.49963 20.2912L10.693 21.1437C11.4753 21.7024 12.526 21.7025 13.3082 21.1437L14.5016 20.2912C14.9642 19.9608 15.4967 19.7403 16.0572 19.6457L17.5494 19.3937C18.494 19.2342 19.2348 18.4936 19.3942 17.549L19.6461 16.0568C19.7408 15.4961 19.962 14.9639 20.2926 14.5012L21.1451 13.3078C21.7037 12.5255 21.7038 11.4738 21.1451 10.6916L20.2926 9.49823C19.962 9.03537 19.7407 8.50345 19.6461 7.94257L19.3942 6.45038C19.2347 5.50584 18.4939 4.76614 17.5494 4.60663L16.0572 4.35467C15.4966 4.26002 14.9643 4.03866 14.5016 3.70819L13.3082 2.85565ZM15.7203 8.21991C16.0132 7.92726 16.4881 7.9271 16.7809 8.21991C17.0734 8.51274 17.0734 8.98763 16.7809 9.28046L10.2809 15.7805C9.98807 16.0732 9.51323 16.0731 9.22033 15.7805L6.22033 12.7805C5.92745 12.4876 5.92747 12.0128 6.22033 11.7199C6.51324 11.4273 6.98806 11.4271 7.28088 11.7199L9.7506 14.1896L15.7203 8.21991Z" fill="#000001"/>
</g>
</svg>
