<svg width="16" height="16" viewBox="0 0 16 16" fill="none" xmlns="http://www.w3.org/2000/svg">
<g id="size=16">
<path id="Path" fill-rule="evenodd" clip-rule="evenodd" d="M6.40188 1.21981C7.358 0.537147 8.64313 0.536936 9.59915 1.21981L10.2886 1.71297C10.4428 1.823 10.6204 1.8963 10.8072 1.92782L11.6724 2.0743C12.8267 2.26934 13.7315 3.1738 13.9263 4.32821L14.0728 5.19344C14.1043 5.38034 14.1775 5.55774 14.2876 5.712L14.7808 6.40145C15.4635 7.35748 15.4635 8.64264 14.7808 9.59871L14.2876 10.2882C14.1775 10.4424 14.1043 10.6199 14.0728 10.8067L13.9263 11.672C13.7315 12.8264 12.8267 13.7308 11.6724 13.9259L10.8072 14.0723C10.6204 14.1039 10.4428 14.1772 10.2886 14.2872L9.59915 14.7804C8.64308 15.4633 7.35802 15.4631 6.40188 14.7804L5.71243 14.2872C5.55832 14.1771 5.38059 14.1039 5.19387 14.0723L4.32864 13.9259C3.17399 13.731 2.26958 12.8266 2.07473 11.672L1.92825 10.8067C1.89672 10.6199 1.82347 10.4424 1.7134 10.2882L1.22024 9.59871C0.537263 8.64255 0.537264 7.35762 1.22024 6.40145L1.7134 5.712C1.82341 5.55783 1.89674 5.3802 1.92825 5.19344L2.07473 4.32821C2.26967 3.17368 3.17407 2.2691 4.32864 2.0743L5.19387 1.92782C5.38058 1.89622 5.55833 1.82303 5.71243 1.71297L6.40188 1.21981ZM8.72708 2.44051C8.29264 2.13022 7.70851 2.13046 7.27395 2.44051L6.5845 2.93367C6.2452 3.17603 5.85404 3.33786 5.4429 3.40731L4.57864 3.55282C4.05385 3.64136 3.64187 4.05344 3.55325 4.57821L3.40774 5.44344C3.33833 5.85445 3.17632 6.24483 2.93411 6.58407L2.44094 7.27352C2.13053 7.70812 2.13055 8.29204 2.44094 8.72664L2.93411 9.4161C3.17638 9.75535 3.33832 10.1457 3.40774 10.5567L3.55325 11.422C3.6418 11.9468 4.05379 12.3588 4.57864 12.4473L5.4429 12.5929C5.85405 12.6623 6.24519 12.8241 6.5845 13.0665L7.27395 13.5597C7.70853 13.8698 8.29259 13.87 8.72708 13.5597L9.41653 13.0665C9.75576 12.8243 10.1462 12.6622 10.5572 12.5929L11.4224 12.4473C11.947 12.3586 12.3583 11.9466 12.4468 11.422L12.5933 10.5567C12.6627 10.1456 12.8246 9.75535 13.0669 9.4161L13.5601 8.72664C13.8701 8.29216 13.8702 7.70796 13.5601 7.27352L13.0669 6.58407C12.8246 6.24475 12.6627 5.8546 12.5933 5.44344L12.4468 4.57821C12.3583 4.05351 11.947 3.64153 11.4224 3.55282L10.5572 3.40731C10.1461 3.3379 9.75579 3.17592 9.41653 2.93367L8.72708 2.44051ZM10.2202 5.71981C10.5132 5.42721 10.988 5.42701 11.2808 5.71981C11.5733 6.01263 11.5733 6.48754 11.2808 6.78035L7.28079 10.7804C6.98799 11.0731 6.51314 11.0729 6.22024 10.7804L4.72024 9.28035C4.42737 8.98748 4.42741 8.51271 4.72024 8.21981C5.01316 7.92721 5.48799 7.92701 5.78079 8.21981L6.75051 9.18953L10.2202 5.71981Z" fill="#000001"/>
</g>
</svg>
