<svg width="24" height="24" viewBox="0 0 24 24" fill="none" xmlns="http://www.w3.org/2000/svg">
<g id="size=24">
<path id="Path" fill-rule="evenodd" clip-rule="evenodd" d="M9.82008 1.63534C11.1239 0.704057 12.8756 0.704088 14.1795 1.63534L15.3728 2.48788C15.6505 2.6862 15.97 2.81877 16.3064 2.87557L17.7986 3.12753C19.3732 3.39319 20.6072 4.62719 20.8728 6.20175L21.1238 7.69393C21.1806 8.03008 21.3134 8.34908 21.5115 8.62655L22.365 9.82089C23.296 11.1247 23.2962 12.8765 22.365 14.1803L21.5115 15.3736C21.3134 15.6512 21.1805 15.9709 21.1238 16.3072L20.8728 17.7994C20.607 19.3737 19.373 20.607 17.7986 20.8726L16.3064 21.1246C15.97 21.1814 15.6504 21.314 15.3728 21.5123L14.1795 22.3648C12.8756 23.296 11.1238 23.2961 9.82008 22.3648L8.62672 21.5123C8.34904 21.314 8.0296 21.1814 7.69313 21.1246L6.20094 20.8726C4.62664 20.6069 3.39251 19.3737 3.12672 17.7994L2.87477 16.3072C2.81799 15.9707 2.68544 15.6513 2.48707 15.3736L1.63454 14.1803C0.703368 12.8766 0.703687 11.1247 1.63454 9.82089L2.48707 8.62655C2.68527 8.34905 2.81793 8.03017 2.87477 7.69393L3.12672 6.20175C3.39237 4.6273 4.62654 3.39331 6.20094 3.12753L7.69313 2.87557C8.02951 2.81881 8.3491 2.68612 8.62672 2.48788L9.82008 1.63534ZM13.3074 2.85604C12.5251 2.2974 11.4744 2.29738 10.6922 2.85604L9.49879 3.70858C9.036 4.03908 8.50292 4.26045 7.94215 4.35507L6.44997 4.60702C5.50567 4.7667 4.76562 5.50637 4.60622 6.45077L4.35426 7.94296C4.25961 8.50375 4.03834 9.03583 3.70778 9.49862L2.85524 10.692C2.29664 11.4743 2.29652 12.526 2.85524 13.3082L3.70778 14.5016C4.03837 14.9644 4.25962 15.4964 4.35426 16.0572L4.60622 17.5494C4.76563 18.4939 5.50559 19.2345 6.44997 19.3941L7.94215 19.6461C8.503 19.7407 9.03596 19.961 9.49879 20.2916L10.6922 21.1441C11.4744 21.7029 12.5251 21.7027 13.3074 21.1441L14.5007 20.2916C14.9634 19.9611 15.4958 19.7408 16.0564 19.6461L17.5486 19.3941C18.4933 19.2347 19.2338 18.494 19.3933 17.5494L19.6453 16.0572C19.7399 15.4965 19.9613 14.9643 20.2918 14.5016L21.1443 13.3082C21.7031 12.5259 21.7031 11.4743 21.1443 10.692L20.2918 9.49862C19.9612 9.0358 19.7399 8.50378 19.6453 7.94296L19.3933 6.45077C19.2339 5.50609 18.4933 4.76641 17.5486 4.60702L16.0564 4.35507C15.4958 4.26037 14.9634 4.03907 14.5007 3.70858L13.3074 2.85604ZM15.7195 8.2203C16.0124 7.92742 16.4871 7.92746 16.78 8.2203C17.0728 8.51321 17.0729 8.988 16.78 9.28085L10.28 15.7808C9.98717 16.0734 9.5123 16.0735 9.2195 15.7808L6.2195 12.7808C5.92675 12.488 5.92691 12.0132 6.2195 11.7203C6.51237 11.4274 6.98715 11.4275 7.28004 11.7203L9.74977 14.19L15.7195 8.2203Z" fill="#000001"/>
</g>
</svg>
