<svg width="24" height="24" viewBox="0 0 24 24" fill="none" xmlns="http://www.w3.org/2000/svg">
<g id="size=24">
<g id="Path">
<path d="M16.7803 8.21967C17.0732 8.51256 17.0732 8.98744 16.7803 9.28033L10.2803 15.7803C9.98744 16.0732 9.51256 16.0732 9.21967 15.7803L6.21967 12.7803C5.92678 12.4874 5.92678 12.0126 6.21967 11.7197C6.51256 11.4268 6.98744 11.4268 7.28033 11.7197L9.75 14.1893L15.7197 8.21967C16.0126 7.92678 16.4874 7.92678 16.7803 8.21967Z" fill="#000001"/>
<path fill-rule="evenodd" clip-rule="evenodd" d="M9.82041 1.63502C11.1243 0.70369 12.8758 0.70369 14.1797 1.63502L15.3733 2.48757C15.651 2.68594 15.9702 2.81853 16.3067 2.87531L17.7989 3.12709C19.3735 3.39275 20.6071 4.62637 20.8728 6.20093L21.1246 7.69315C21.1813 8.02968 21.3139 8.34888 21.5123 8.6266L22.3648 9.82017C23.2962 11.124 23.2962 12.8756 22.3648 14.1795L21.5123 15.373C21.3139 15.6507 21.1813 15.9699 21.1246 16.3065L20.8728 17.7987C20.6071 19.3733 19.3735 20.6069 17.7989 20.8725L16.3067 21.1243C15.9702 21.1811 15.651 21.3137 15.3733 21.5121L14.1797 22.3646C12.8758 23.2959 11.1243 23.2959 9.82041 22.3646L8.62684 21.5121C8.34913 21.3137 8.02992 21.1811 7.69339 21.1243L6.20118 20.8725C4.62662 20.6069 3.39299 19.3733 3.12733 17.7987L2.87556 16.3065C2.81878 15.9699 2.68619 15.6507 2.48782 15.373L1.63527 14.1795C0.703934 12.8756 0.703934 11.124 1.63527 9.82017L2.48782 8.6266C2.68619 8.34888 2.81878 8.02968 2.87556 7.69315L3.12733 6.20093C3.39299 4.62637 4.62661 3.39275 6.20117 3.12709L7.69339 2.87531C8.02992 2.81853 8.34913 2.68594 8.62684 2.48757L9.82041 1.63502ZM13.3078 2.85562C12.5255 2.29682 11.4746 2.29682 10.6923 2.85562L9.4987 3.70817C9.03584 4.03879 8.50383 4.25978 7.94295 4.35441L6.45073 4.60618C5.506 4.76558 4.76582 5.50575 4.60642 6.45049L4.35465 7.94271C4.26002 8.50359 4.03903 9.0356 3.70842 9.49846L2.85587 10.692C2.29707 11.4743 2.29707 12.5253 2.85587 13.3076L3.70842 14.5012C4.03903 14.964 4.26002 15.496 4.35465 16.0569L4.60643 17.5491C4.76582 18.4939 5.506 19.234 6.45073 19.3934L7.94295 19.6452C8.50383 19.7398 9.03584 19.9608 9.4987 20.2915L10.6923 21.144C11.4746 21.7028 12.5255 21.7028 13.3078 21.144L14.5014 20.2915C14.9643 19.9608 15.4963 19.7398 16.0572 19.6452L17.5494 19.3934C18.4941 19.234 19.2343 18.4939 19.3937 17.5491L19.6455 16.0569C19.7401 15.496 19.9611 14.964 20.2917 14.5012L21.1442 13.3076C21.703 12.5253 21.703 11.4743 21.1442 10.692L20.2917 9.49846C19.9611 9.0356 19.7401 8.50359 19.6455 7.94271L19.3937 6.45049C19.2343 5.50575 18.4941 4.76558 17.5494 4.60618L16.0572 4.35441C15.4963 4.25978 14.9643 4.03879 14.5014 3.70817L13.3078 2.85562Z" fill="#000001"/>
</g>
</g>
</svg>
