<svg width="24" height="24" viewBox="0 0 24 24" fill="none" xmlns="http://www.w3.org/2000/svg">
<g id="size=24">
<path id="Path" fill-rule="evenodd" clip-rule="evenodd" d="M1.21973 1.21973C1.51262 0.926838 1.98738 0.926838 2.28027 1.21973L22.7803 21.7197C23.0729 22.0126 23.0731 22.4875 22.7803 22.7803C22.4874 23.0729 22.0126 23.0729 21.7197 22.7803L16.9053 17.9668C16.5897 19.1377 15.5206 20 14.25 20H2.75C1.23138 20 0.000259219 18.7686 0 17.25V6.75C0 5.23122 1.23122 4 2.75 4H2.93945L1.21973 2.28028C0.926912 1.98746 0.927068 1.51264 1.21973 1.21973ZM2.75 5.5C2.05964 5.5 1.5 6.05965 1.5 6.75V17.25C1.50026 17.9401 2.0598 18.5 2.75 18.5H14.25C14.9402 18.5 15.4997 17.9401 15.5 17.25V16.5606L4.43945 5.5H2.75ZM14.25 4C15.7688 4 17 5.23122 17 6.75V9.8877L21.127 6.56543C22.2643 5.61298 24 6.42145 24 7.90821V16.0918C23.9998 16.794 23.604 17.353 23.0771 17.6348C22.7121 17.8299 22.257 17.692 22.0615 17.3272C21.8662 16.962 22.0041 16.507 22.3691 16.3115C22.4108 16.2892 22.4436 16.2583 22.4648 16.2246C22.4845 16.1932 22.4999 16.1507 22.5 16.0918V7.90821C22.5 7.69548 22.2513 7.57973 22.0889 7.7168L22.0742 7.7295L17.6484 11.292C17.1233 11.7146 16.3634 11.6738 15.8867 11.1973C15.6392 10.9498 15.5001 10.6137 15.5 10.2637V6.75C15.5 6.05965 14.9404 5.5 14.25 5.5H10.5C10.0859 5.5 9.75025 5.164 9.75 4.75C9.75 4.33579 10.0858 4 10.5 4H14.25Z" fill="#000001"/>
</g>
</svg>
