<svg width="16" height="16" viewBox="0 0 16 16" fill="none" xmlns="http://www.w3.org/2000/svg">
<g id="size=16">
<path id="Path" d="M8.75 3C9.99264 3 11 4.00736 11 5.25V6.06836L14.0186 3.97852C14.8429 3.3822 15.9998 3.96992 16 4.99121V11.0088C15.9998 12.0301 14.8429 12.6178 14.0186 12.0215L11 9.93164V10.75C11 11.9926 9.99264 13 8.75 13H2.25C1.00736 13 0 11.9926 0 10.75V5.25C0 4.00736 1.00736 3 2.25 3H8.75ZM2.25 4.5C1.83579 4.5 1.5 4.83579 1.5 5.25V10.75C1.5 11.1642 1.83579 11.5 2.25 11.5H8.75C9.16421 11.5 9.5 11.1642 9.5 10.75V5.25C9.5 4.83579 9.16421 4.5 8.75 4.5H2.25ZM11.0879 7.83203C11.0328 7.87024 11 7.93298 11 8C11 8.06702 11.0328 8.12976 11.0879 8.16797L14.5 10.5312V5.46875L11.0879 7.83203Z" fill="#000001"/>
</g>
</svg>
