<svg width="24" height="24" viewBox="0 0 24 24" fill="none" xmlns="http://www.w3.org/2000/svg">
<g id="size=24">
<g id="Union">
<path fill-rule="evenodd" clip-rule="evenodd" d="M2.28033 1.21967C1.98744 0.926777 1.51256 0.926777 1.21967 1.21967C0.926777 1.51256 0.926777 1.98744 1.21967 2.28033L2.93934 4H2.75C1.23122 4 0 5.23122 0 6.75V17.25C0 18.7688 1.23122 20 2.75 20H14.25C15.521 20 16.5905 19.1378 16.9058 17.9664L21.7197 22.7803C22.0126 23.0732 22.4874 23.0732 22.7803 22.7803C23.0732 22.4874 23.0732 22.0126 22.7803 21.7197L2.28033 1.21967ZM15.5 16.5607L4.43934 5.5H2.75C2.05964 5.5 1.5 6.05964 1.5 6.75V17.25C1.5 17.9404 2.05964 18.5 2.75 18.5H14.25C14.9404 18.5 15.5 17.9404 15.5 17.25V16.5607Z" fill="#000001"/>
<path d="M10.5 4C10.0858 4 9.75 4.33579 9.75 4.75C9.75 5.16421 10.0858 5.5 10.5 5.5H14.25C14.9404 5.5 15.5 6.05964 15.5 6.75V10.2638C15.5 10.614 15.6391 10.9497 15.8867 11.1973C16.3634 11.6741 17.1229 11.715 17.6481 11.2922L22.0739 7.72913L22.0884 7.71716C22.2508 7.57952 22.5 7.69499 22.5 7.9079V16.0921C22.5 16.1512 22.4847 16.193 22.465 16.2245C22.4437 16.2584 22.4113 16.2894 22.3694 16.3118C22.0042 16.5072 21.8664 16.9616 22.0618 17.3269C22.2572 17.6921 22.7116 17.8298 23.0769 17.6345C23.6038 17.3526 24 16.7945 24 16.0921V7.9079C24 6.42103 22.2642 5.61309 21.1269 6.56586L17 9.88821V6.75C17 5.23122 15.7688 4 14.25 4H10.5Z" fill="#000001"/>
</g>
</g>
</svg>
