<svg width="16" height="16" viewBox="0 0 16 16" fill="none" xmlns="http://www.w3.org/2000/svg">
<g id="size=16">
<g id="Path">
<path fill-rule="evenodd" clip-rule="evenodd" d="M2.28033 1.21967C1.98744 0.926777 1.51256 0.926777 1.21967 1.21967C0.926777 1.51256 0.926777 1.98744 1.21967 2.28033L1.9581 3.01876C0.853361 3.16187 0 4.10628 0 5.25V10.75C0 11.9926 1.00736 13 2.25 13H8.75C9.61311 13 10.3627 12.514 10.7401 11.8007L13.7197 14.7803C14.0126 15.0732 14.4874 15.0732 14.7803 14.7803C15.0732 14.4874 15.0732 14.0126 14.7803 13.7197L2.28033 1.21967ZM9.5 10.5607L3.43934 4.5H2.25C1.83579 4.5 1.5 4.83579 1.5 5.25V10.75C1.5 11.1642 1.83579 11.5 2.25 11.5H8.75C9.16421 11.5 9.5 11.1642 9.5 10.75V10.5607Z" fill="#000001"/>
<path d="M7.6875 3C7.27329 3 6.9375 3.33579 6.9375 3.75C6.9375 4.16421 7.27329 4.5 7.6875 4.5H8.75C9.16421 4.5 9.5 4.83579 9.5 5.25V5.98343C9.5 6.39304 9.66272 6.78588 9.95236 7.07552C10.4802 7.60338 11.3101 7.67814 11.9238 7.25312L14.5 5.46895V11.0086C14.5 11.4228 14.8358 11.7586 15.25 11.7586C15.6642 11.7586 16 11.4228 16 11.0086V4.99142C16 3.96998 14.8426 3.38164 14.0182 3.97805L11.0698 6.01997C11.0521 6.0322 11.0282 6.03005 11.013 6.01486C11.0047 6.00652 11 5.99522 11 5.98343V5.25C11 4.00736 9.99264 3 8.75 3H7.6875Z" fill="#000001"/>
</g>
</g>
</svg>
