<svg width="24" height="24" viewBox="0 0 24 24" fill="none" xmlns="http://www.w3.org/2000/svg">
<g id="size=24">
<path id="Path" fill-rule="evenodd" clip-rule="evenodd" d="M1.21973 1.21979C1.51262 0.926899 1.98738 0.926899 2.28027 1.21979L22.7803 21.7198C23.0729 22.0127 23.0731 22.4875 22.7803 22.7803C22.4874 23.0729 22.0126 23.0729 21.7197 22.7803L16.9053 17.9669C16.5897 19.1378 15.5206 20.0001 14.25 20.0001H2.75C1.2314 20.0001 0.000289813 18.7686 0 17.2501V6.75007C0 5.23128 1.23122 4.00007 2.75 4.00007H2.93945L1.21973 2.28034C0.926921 1.98753 0.927097 1.51271 1.21973 1.21979ZM2.75 5.50007C2.05964 5.50007 1.5 6.05971 1.5 6.75007V17.2501C1.50029 17.9402 2.05982 18.5001 2.75 18.5001H14.25C14.9402 18.5001 15.4997 17.9402 15.5 17.2501V16.5606L4.43945 5.50007H2.75ZM14.25 4.00007C15.7688 4.00007 17 5.23128 17 6.75007V9.88776L21.127 6.5655C22.2643 5.61304 24 6.42151 24 7.90827V16.0919C23.9998 16.794 23.6039 17.353 23.0771 17.6348C22.7121 17.8299 22.257 17.692 22.0615 17.3272C21.8662 16.9621 22.0041 16.507 22.3691 16.3116C22.4108 16.2893 22.4436 16.2584 22.4648 16.2247C22.4845 16.1933 22.4999 16.1507 22.5 16.0919V7.90827C22.5 7.69554 22.2513 7.57979 22.0889 7.71686L22.0742 7.72956L17.6484 11.2921C17.1233 11.7146 16.3634 11.6738 15.8867 11.1973C15.6392 10.9499 15.5001 10.6137 15.5 10.2637V6.75007C15.5 6.05971 14.9404 5.50007 14.25 5.50007H10.5C10.086 5.50007 9.75029 5.16404 9.75 4.75007C9.75 4.33585 10.0858 4.00007 10.5 4.00007H14.25Z" fill="#000001"/>
</g>
</svg>
