<svg width="24" height="24" viewBox="0 0 24 24" fill="none" xmlns="http://www.w3.org/2000/svg">
<g id="size=24">
<g id="Group">
<path id="icon" d="M4.09626 8.46816C3.84484 7.89782 3.22341 7.63948 2.64316 7.90628C2.06221 8.17344 1.84843 8.84006 2.11086 9.41077L4.54724 14.8911C4.9304 15.7499 5.33416 16.2001 6.09195 16.2001C6.9016 16.2001 7.25457 15.7098 7.63738 14.8911C7.63738 14.8911 9.76233 10.1027 9.78364 10.0528C9.8053 10.0021 9.87348 9.84734 10.0897 9.84881C10.2726 9.84991 10.4264 10.0009 10.4264 10.2038V14.8863C10.4264 15.6081 10.8131 16.2001 11.5574 16.2001C12.301 16.2001 12.703 15.6081 12.703 14.8863V11.0545C12.703 10.3155 13.2147 9.83595 13.9121 9.83595C14.6095 9.83595 15.0737 10.3328 15.0737 11.0545V14.8863C15.0737 15.6081 15.4618 16.2001 16.2047 16.2001C16.9483 16.2001 17.3524 15.6081 17.3524 14.8863V11.0545C17.3524 10.3155 17.8619 9.83595 18.5597 9.83595C19.2561 9.83595 19.722 10.3328 19.722 11.0545V14.8863C19.722 15.6081 20.1098 16.2001 20.8534 16.2001C21.5966 16.2001 22 15.6081 22 14.8863V10.5254C22 8.92274 20.7546 7.80007 19.2561 7.80007C17.7593 7.80007 16.8218 8.87166 16.8218 8.87166C16.3236 8.20321 15.6369 7.80154 14.4746 7.80154C13.2481 7.80154 12.1746 8.87166 12.1746 8.87166C11.676 8.20321 10.8273 7.80154 10.1245 7.80154C9.03756 7.80154 8.1743 8.29618 7.64767 9.54233L6.09195 13.3374L4.09626 8.46816Z" fill="#696566"/>
</g>
</g>
</svg>
