<svg width="24" height="24" viewBox="0 0 24 24" fill="none" xmlns="http://www.w3.org/2000/svg">
<g id="size=24">
<path id="Path" d="M4.09626 8.46814C3.84484 7.8978 3.22341 7.63946 2.64316 7.90625C2.06221 8.17341 1.84843 8.84003 2.11086 9.41074L4.54724 14.8911C4.9304 15.7499 5.33416 16.2 6.09195 16.2C6.9016 16.2 7.25457 15.7098 7.63738 14.8911C7.63738 14.8911 9.76233 10.1027 9.78364 10.0527C9.8053 10.002 9.87348 9.84731 10.0897 9.84878C10.2726 9.84989 10.4264 10.0009 10.4264 10.2038V14.8863C10.4264 15.608 10.8131 16.2 11.5574 16.2C12.301 16.2 12.703 15.608 12.703 14.8863V11.0545C12.703 10.3155 13.2147 9.83592 13.9121 9.83592C14.6095 9.83592 15.0737 10.3328 15.0737 11.0545V14.8863C15.0737 15.608 15.4618 16.2 16.2047 16.2C16.9483 16.2 17.3524 15.608 17.3524 14.8863V11.0545C17.3524 10.3155 17.8619 9.83592 18.5597 9.83592C19.2561 9.83592 19.722 10.3328 19.722 11.0545V14.8863C19.722 15.608 20.1098 16.2 20.8534 16.2C21.5966 16.2 22 15.608 22 14.8863V10.5253C22 8.92272 20.7546 7.80005 19.2561 7.80005C17.7593 7.80005 16.8218 8.87164 16.8218 8.87164C16.3236 8.20318 15.6369 7.80152 14.4746 7.80152C13.2481 7.80152 12.1746 8.87164 12.1746 8.87164C11.676 8.20318 10.8273 7.80152 10.1245 7.80152C9.03756 7.80152 8.1743 8.29615 7.64767 9.5423L6.09195 13.3373L4.09626 8.46814Z" fill="#696566"/>
</g>
</svg>
