<svg width="16" height="16" viewBox="0 0 16 16" fill="none" xmlns="http://www.w3.org/2000/svg">
<g id="size=16">
<path id="Path" d="M1.67701 5.14093C1.47587 4.67923 0.978725 4.47009 0.51453 4.68607C0.0497671 4.90235 -0.121252 5.44199 0.0886867 5.90399L2.03779 10.3404C2.34432 11.0357 2.66733 11.4001 3.27356 11.4001C3.92128 11.4001 4.20366 11.0032 4.5099 10.3404C4.5099 10.3404 6.20987 6.46416 6.22691 6.4237C6.24424 6.38265 6.29878 6.25741 6.47179 6.2586C6.61809 6.25949 6.7411 6.38176 6.7411 6.54597V10.3366C6.7411 10.9208 7.05047 11.4001 7.64591 11.4001C8.24079 11.4001 8.56237 10.9208 8.56237 10.3366V7.23466C8.56237 6.63641 8.97174 6.24819 9.52968 6.24819C10.0876 6.24819 10.4589 6.65039 10.4589 7.23466V10.3366C10.4589 10.9208 10.7694 11.4001 11.3637 11.4001C11.9586 11.4001 12.2819 10.9208 12.2819 10.3366V7.23466C12.2819 6.63641 12.6896 6.24819 13.2478 6.24819C13.8049 6.24819 14.1776 6.65039 14.1776 7.23466V10.3366C14.1776 10.9208 14.4878 11.4001 15.0827 11.4001C15.6773 11.4001 16 10.9208 16 10.3366V6.80627C16 5.50893 15.0037 4.6001 13.8049 4.6001C12.6075 4.6001 11.8575 5.46757 11.8575 5.46757C11.4589 4.92644 10.9095 4.60129 9.97967 4.60129C8.99844 4.60129 8.13965 5.46757 8.13965 5.46757C7.7408 4.92644 7.06184 4.60129 6.49963 4.60129C5.63005 4.60129 4.93944 5.00171 4.51814 6.01049L3.27356 9.08266L1.67701 5.14093Z" fill="#000001"/>
</g>
</svg>
