<svg width="16" height="16" viewBox="0 0 16 16" fill="none" xmlns="http://www.w3.org/2000/svg">
<g id="size=16">
<path id="Path" d="M1.67701 5.14081C1.47587 4.67911 0.978725 4.46997 0.51453 4.68595C0.0497671 4.90222 -0.121252 5.44187 0.0886867 5.90387L2.03779 10.3403C2.34432 11.0356 2.66733 11.4 3.27356 11.4C3.92128 11.4 4.20366 11.0031 4.5099 10.3403C4.5099 10.3403 6.20987 6.46404 6.22691 6.42358C6.24424 6.38253 6.29878 6.25729 6.47179 6.25848C6.61809 6.25937 6.7411 6.38164 6.7411 6.54585V10.3365C6.7411 10.9207 7.05047 11.4 7.64591 11.4C8.24079 11.4 8.56237 10.9207 8.56237 10.3365V7.23454C8.56237 6.63629 8.97174 6.24806 9.52968 6.24806C10.0876 6.24806 10.4589 6.65027 10.4589 7.23454V10.3365C10.4589 10.9207 10.7694 11.4 11.3637 11.4C11.9586 11.4 12.2819 10.9207 12.2819 10.3365V7.23454C12.2819 6.63629 12.6896 6.24806 13.2478 6.24806C13.8049 6.24806 14.1776 6.65027 14.1776 7.23454V10.3365C14.1776 10.9207 14.4878 11.4 15.0827 11.4C15.6773 11.4 16 10.9207 16 10.3365V6.80615C16 5.5088 15.0037 4.59998 13.8049 4.59998C12.6075 4.59998 11.8575 5.46745 11.8575 5.46745C11.4589 4.92632 10.9095 4.60117 9.97967 4.60117C8.99844 4.60117 8.13965 5.46745 8.13965 5.46745C7.7408 4.92632 7.06184 4.60117 6.49963 4.60117C5.63005 4.60117 4.93944 5.00159 4.51814 6.01037L3.27356 9.08254L1.67701 5.14081Z" fill="#000001"/>
</g>
</svg>
