<svg width="24" height="24" viewBox="0 0 24 24" fill="none" xmlns="http://www.w3.org/2000/svg">
<g id="size=24">
<path id="Path" d="M18.7197 4.21875C19.0127 3.92656 19.4876 3.92728 19.7803 4.21973C21.8415 6.28329 22.9998 9.08242 23 12C22.9999 14.9176 21.8414 17.7167 19.7803 19.7803C19.4875 20.0728 19.0126 20.0728 18.7197 19.7803C18.4272 19.4875 18.4272 19.0126 18.7197 18.7197C20.4997 16.9375 21.4999 14.5201 21.5 12C21.4998 9.47996 20.4997 7.06242 18.7197 5.28027C18.4273 4.98722 18.4269 4.51139 18.7197 4.21875ZM9.04688 4.80371C10.1621 3.74832 11.9993 4.53878 12 6.07422V17.9248C11.9999 19.4609 10.1622 20.2514 9.04688 19.1953L5.74609 16.0684C5.6998 16.0246 5.63788 16.0001 5.57422 16H2.75C1.78366 16 1.00025 15.2163 1 14.25V9.75C1.00031 8.78377 1.78369 8 2.75 8H5.57422C5.63797 7.99988 5.69978 7.97547 5.74609 7.93164L9.04688 4.80371ZM10.5 6.07422C10.4993 5.85548 10.2373 5.74323 10.0781 5.89355L6.77734 9.02051C6.45243 9.32819 6.0217 9.49988 5.57422 9.5H2.75C2.61212 9.5 2.50031 9.61219 2.5 9.75V14.25C2.50025 14.3879 2.61209 14.5 2.75 14.5H5.57422C6.02168 14.5001 6.45243 14.6718 6.77734 14.9795L10.0781 18.1064C10.2374 18.2571 10.4999 18.1441 10.5 17.9248V6.07422ZM15.2109 7.97852C15.4988 7.6812 15.9738 7.67348 16.2715 7.96094C17.3748 9.02763 17.9998 10.4804 18 12C17.9999 13.5197 17.3749 14.9723 16.2715 16.0391C15.9738 16.3267 15.4988 16.3189 15.2109 16.0215C14.9235 15.7238 14.9312 15.2488 15.2285 14.9609C16.0454 14.1712 16.4999 13.1051 16.5 12C16.4998 10.8949 16.0455 9.82876 15.2285 9.03906C14.9311 8.75118 14.9233 8.27621 15.2109 7.97852Z" fill="#000001"/>
</g>
</svg>
