<svg width="24" height="24" viewBox="0 0 24 24" fill="none" xmlns="http://www.w3.org/2000/svg">
<g id="size=24">
<path id="Path" d="M9.04688 4.80469C10.1621 3.74909 11.9994 4.53956 12 6.0752V17.9258C11.9993 19.4613 10.1621 20.2517 9.04688 19.1963L5.74609 16.0693C5.6998 16.0256 5.63789 16.0001 5.57422 16H2.75C1.78373 16 1.00037 15.2162 1 14.25V9.75C1.00056 8.78398 1.78385 8 2.75 8H5.57422C5.63786 7.99988 5.69981 7.97532 5.74609 7.93164L9.04688 4.80469ZM10.5 6.0752C10.4994 5.85639 10.2373 5.74342 10.0781 5.89355L6.77734 9.02051C6.45244 9.32814 6.02166 9.49988 5.57422 9.5H2.75C2.61227 9.5 2.50056 9.6124 2.5 9.75V14.25C2.50037 14.3878 2.61216 14.5 2.75 14.5H5.57422C6.02169 14.5001 6.45243 14.6728 6.77734 14.9805L10.0781 18.1074C10.2373 18.2574 10.4993 18.1445 10.5 17.9258V6.0752ZM21.7197 8.2207C22.0126 7.92818 22.4875 7.92818 22.7803 8.2207C23.0725 8.51355 23.0727 8.98851 22.7803 9.28125L20.0605 12.001L22.7803 14.7207C23.0725 15.0135 23.0727 15.4885 22.7803 15.7812C22.4875 16.0734 22.0125 16.0734 21.7197 15.7812L19 13.0615L16.2803 15.7812C15.9875 16.0734 15.5125 16.0734 15.2197 15.7812C14.9273 15.4885 14.9275 15.0135 15.2197 14.7207L17.9395 12.001L15.2197 9.28125C14.9273 8.98851 14.9275 8.51355 15.2197 8.2207C15.5125 7.92818 15.9875 7.92818 16.2803 8.2207L19 10.9395L21.7197 8.2207Z" fill="#000001"/>
</g>
</svg>
