<svg width="16" height="16" viewBox="0 0 16 16" fill="none" xmlns="http://www.w3.org/2000/svg">
<g id="size=16">
<path id="Path" d="M7.0332 2.68555C7.86136 2.10653 8.99927 2.69953 9 3.70996V12.2891C8.99969 13.3 7.86154 13.893 7.0332 13.3135L3.72754 11H1.25C0.559932 11 0.000466787 10.44 0 9.75V6.25C0.000528682 5.56009 0.559971 5 1.25 5H3.72754L7.0332 2.68555ZM4.52344 6.27344C4.31337 6.42042 4.06303 6.5 3.80664 6.5H1.5V9.5H3.80664C4.06292 9.5 4.31343 9.57872 4.52344 9.72559L7.5 11.8086V4.19043L4.52344 6.27344ZM14.2197 5.71973C14.5125 5.42749 14.9875 5.42749 15.2803 5.71973C15.5726 6.01249 15.5726 6.48746 15.2803 6.78027L14.0605 8L15.2803 9.21973C15.5726 9.51249 15.5726 9.98746 15.2803 10.2803C14.9875 10.5727 14.5125 10.5727 14.2197 10.2803L13 9.06055L11.7803 10.2803C11.4875 10.5727 11.0125 10.5727 10.7197 10.2803C10.4274 9.98746 10.4274 9.51249 10.7197 9.21973L11.9395 8L10.7197 6.78027C10.4274 6.48746 10.4274 6.01249 10.7197 5.71973C11.0125 5.42749 11.4875 5.42749 11.7803 5.71973L13 6.93945L14.2197 5.71973Z" fill="#000001"/>
</g>
</svg>
