<svg width="24" height="24" viewBox="0 0 24 24" fill="none" xmlns="http://www.w3.org/2000/svg">
<g id="size=24">
<path id="Path" fill-rule="evenodd" clip-rule="evenodd" d="M10.5 6.07486C10.5 5.85537 10.2374 5.74242 10.0781 5.89337L6.7773 9.02041C6.45225 9.32836 6.02151 9.49999 5.57375 9.49999H2.75C2.61193 9.49999 2.5 9.61192 2.5 9.74999V14.25C2.5 14.3881 2.61193 14.5 2.75 14.5H5.57375C6.02152 14.5 6.45225 14.6716 6.7773 14.9796L10.0781 18.1066C10.2374 18.2576 10.5 18.1446 10.5 17.9251V6.07486ZM9.04645 4.80444C10.1618 3.7478 12 4.53847 12 6.07486V17.9251C12 19.4615 10.1618 20.2522 9.04645 19.1955L5.74569 16.0685C5.69925 16.0245 5.63772 16 5.57375 16H2.75C1.7835 16 1 15.2165 1 14.25V9.74999C1 8.78349 1.7835 7.99999 2.75 7.99999H5.57375C5.63772 7.99999 5.69925 7.97547 5.74569 7.93148L9.04645 4.80444Z" fill="#000001"/>
</g>
</svg>
