<svg width="24" height="24" viewBox="0 0 24 24" fill="none" xmlns="http://www.w3.org/2000/svg">
<g id="size=24">
<g id="Union">
<path fill-rule="evenodd" clip-rule="evenodd" d="M9.04645 4.80435C10.1618 3.74771 12 4.53838 12 6.07477V17.925C12 19.4614 10.1618 20.2521 9.04645 19.1954L5.74569 16.0684C5.69925 16.0244 5.63772 15.9999 5.57375 15.9999H2.75C1.7835 15.9999 1 15.2164 1 14.2499V9.7499C1 8.7834 1.7835 7.9999 2.75 7.9999H5.57375C5.63772 7.9999 5.69925 7.97538 5.74569 7.93139L9.04645 4.80435ZM10.5 6.07477C10.5 5.85528 10.2374 5.74233 10.0781 5.89328L6.7773 9.02032C6.45225 9.32826 6.02151 9.4999 5.57375 9.4999H2.75C2.61193 9.4999 2.5 9.61183 2.5 9.7499V14.2499C2.5 14.388 2.61193 14.4999 2.75 14.4999H5.57375C6.02152 14.4999 6.45225 14.6715 6.7773 14.9795L10.0781 18.1065C10.2374 18.2575 10.5 18.1445 10.5 17.925V6.07477Z" fill="#000001"/>
<path d="M22.7803 8.21967C23.0732 8.51256 23.0732 8.98744 22.7803 9.28033L20.0607 12L22.7803 14.7197C23.0732 15.0126 23.0732 15.4874 22.7803 15.7803C22.4874 16.0732 22.0126 16.0732 21.7197 15.7803L19 13.0607L16.2803 15.7803C15.9874 16.0732 15.5126 16.0732 15.2197 15.7803C14.9268 15.4874 14.9268 15.0126 15.2197 14.7197L17.9393 12L15.2197 9.28033C14.9268 8.98744 14.9268 8.51256 15.2197 8.21967C15.5126 7.92678 15.9874 7.92678 16.2803 8.21967L19 10.9393L21.7197 8.21967C22.0126 7.92678 22.4874 7.92678 22.7803 8.21967Z" fill="#000001"/>
</g>
</g>
</svg>
