<svg width="24" height="24" viewBox="0 0 24 24" fill="none" xmlns="http://www.w3.org/2000/svg">
<g id="size=24">
<path id="Path" d="M20.25 2C21.7688 2 23 3.23122 23 4.75V19.25C23 20.7688 21.7688 22 20.25 22H3.75C2.23122 22 1 20.7688 1 19.25V4.75C1 3.23122 2.23122 2 3.75 2H20.25ZM2.5 19.25C2.5 19.9404 3.05964 20.5 3.75 20.5H6.5V16H2.5V19.25ZM8 20.5H16V16H8V20.5ZM17.5 20.5H20.25C20.9404 20.5 21.5 19.9404 21.5 19.25V16H17.5V20.5ZM2.5 14.5H11V9.5H2.5V14.5ZM12.5 14.5H21.5V9.5H12.5V14.5ZM3.75 3.5C3.05964 3.5 2.5 4.05964 2.5 4.75V8H6.5V3.5H3.75ZM8 8H16V3.5H8V8ZM17.5 8H21.5V4.75C21.5 4.05964 20.9404 3.5 20.25 3.5H17.5V8Z" fill="#000001"/>
</g>
</svg>
