<svg width="16" height="16" viewBox="0 0 16 16" fill="none" xmlns="http://www.w3.org/2000/svg">
<g id="size=16">
<g id="Path">
<path d="M4.08321 0.183058C3.67506 0.0197957 3.27002 0.424836 3.43328 0.832992L3.82571 1.81407C3.87339 1.93328 3.87339 2.06626 3.82571 2.18546L3.43328 3.16655C3.27002 3.5747 3.67506 3.97974 4.08321 3.81648L5.06429 3.42405C5.1835 3.37636 5.31648 3.37636 5.43568 3.42405L6.41677 3.81648C6.82492 3.97974 7.22996 3.5747 7.0667 3.16655L6.67427 2.18546C6.62659 2.06626 6.62659 1.93328 6.67427 1.81407L7.0667 0.832992C7.22996 0.424836 6.82492 0.0197957 6.41677 0.183058L5.43568 0.575491C5.31648 0.623173 5.1835 0.623173 5.06429 0.575491L4.08321 0.183058Z" fill="#000001"/>
<path fill-rule="evenodd" clip-rule="evenodd" d="M11.4142 4.10367C10.6331 3.32262 9.36681 3.32262 8.58576 4.10367L0.807588 11.8818C0.0265396 12.6629 0.0265396 13.9292 0.807588 14.7103C1.58864 15.4913 2.85497 15.4913 3.63602 14.7103L11.4142 6.93209C12.1952 6.15105 12.1952 4.88472 11.4142 4.10367ZM9.64642 5.16433C9.84169 4.96906 10.1583 4.96906 10.3535 5.16433C10.5488 5.35959 10.5488 5.67617 10.3535 5.87143L9.46965 6.75532L8.76254 6.04821L9.64642 5.16433ZM7.70188 7.10887L8.40899 7.81598L2.57536 13.6496C2.38009 13.8449 2.06351 13.8449 1.86825 13.6496C1.67299 13.4543 1.67299 13.1378 1.86825 12.9425L7.70188 7.10887Z" fill="#000001"/>
<path d="M10.5723 11.2096C10.1683 11.0364 10.1683 10.4636 10.5723 10.2904L11.791 9.76812C11.909 9.71755 12.0031 9.62352 12.0536 9.50551L12.576 8.2868C12.7491 7.88275 13.3219 7.88275 13.4951 8.2868L14.0174 9.50551C14.068 9.62352 14.162 9.71755 14.28 9.76812L15.4987 10.2904C15.9028 10.4636 15.9028 11.0364 15.4987 11.2096L14.28 11.7319C14.162 11.7825 14.068 11.8765 14.0174 11.9945L13.4951 13.2132C13.3219 13.6173 12.7491 13.6173 12.576 13.2132L12.0536 11.9945C12.0031 11.8765 11.909 11.7825 11.791 11.7319L10.5723 11.2096Z" fill="#000001"/>
<path d="M12.8332 0.183058C12.4251 0.0197957 12.02 0.424836 12.1833 0.832992L12.4757 1.56407C12.5234 1.68328 12.5234 1.81626 12.4757 1.93546L12.1833 2.66655C12.02 3.0747 12.4251 3.47974 12.8332 3.31648L13.5643 3.02405C13.6835 2.97636 13.8165 2.97636 13.9357 3.02405L14.6668 3.31648C15.0749 3.47974 15.48 3.0747 15.3167 2.66655L15.0243 1.93546C14.9766 1.81626 14.9766 1.68328 15.0243 1.56407L15.3167 0.832992C15.48 0.424836 15.0749 0.0197959 14.6668 0.183058L13.9357 0.475491C13.8165 0.523173 13.6835 0.523173 13.5643 0.475491L12.8332 0.183058Z" fill="#000001"/>
</g>
</g>
</svg>
