<svg width="24" height="24" viewBox="0 0 24 24" fill="none" xmlns="http://www.w3.org/2000/svg">
<g id="size=24">
<g id="Path">
<path d="M18.8749 1.14983C18.2626 0.904938 17.6551 1.5125 17.9 2.12473L18.1886 2.84635C18.2601 3.02516 18.2601 3.22463 18.1886 3.40344L17.9 4.12506C17.6551 4.7373 18.2626 5.34486 18.8749 5.09996L19.5965 4.81131C19.7753 4.73979 19.9748 4.73979 20.1536 4.81131L20.8752 5.09996C21.4874 5.34486 22.095 4.7373 21.8501 4.12506L21.5614 3.40344C21.4899 3.22463 21.4899 3.02516 21.5614 2.84635L21.8501 2.12473C22.095 1.5125 21.4874 0.904938 20.8752 1.14983L20.1536 1.43848C19.9748 1.51 19.7753 1.51 19.5965 1.43848L18.8749 1.14983Z" fill="#000001"/>
<path d="M7.12486 1.14983C6.51262 0.904938 5.90506 1.5125 6.14996 2.12473L6.58861 3.22135C6.66013 3.40016 6.66013 3.59963 6.58861 3.77844L6.14996 4.87506C5.90506 5.4873 6.51262 6.09486 7.12486 5.84997L8.22148 5.41132C8.40029 5.33979 8.59976 5.33979 8.77857 5.41132L9.87519 5.84996C10.4874 6.09486 11.095 5.4873 10.8501 4.87506L10.4114 3.77844C10.3399 3.59963 10.3399 3.40016 10.4114 3.22136L10.8501 2.12473C11.095 1.5125 10.4874 0.904938 9.87519 1.14983L8.77857 1.58848C8.59976 1.66 8.40029 1.66 8.22148 1.58848L7.12486 1.14983Z" fill="#000001"/>
<path fill-rule="evenodd" clip-rule="evenodd" d="M17.0175 6.70722C16.0412 5.73091 14.4583 5.73091 13.482 6.70722L2.16828 18.0209C1.19197 18.9972 1.19197 20.5802 2.16828 21.5565C3.14459 22.5328 4.72751 22.5328 5.70382 21.5565L17.0175 10.2428C17.9938 9.26644 17.9938 7.68353 17.0175 6.70722ZM14.5427 7.76788C14.9332 7.37736 15.5663 7.37736 15.9569 7.76788C16.3474 8.1584 16.3474 8.79157 15.9569 9.18209L14.3659 10.7731L12.9517 9.35887L14.5427 7.76788ZM11.891 10.4195L13.3052 11.8337L4.64316 20.4958C4.25263 20.8863 3.61947 20.8863 3.22894 20.4958C2.83842 20.1053 2.83842 19.4721 3.22894 19.0816L11.891 10.4195Z" fill="#000001"/>
<path d="M16.1085 16.6894C15.5024 16.4296 15.5024 15.5704 16.1085 15.3106L17.4416 14.7393C17.6186 14.6635 17.7596 14.5224 17.8355 14.3454L18.4068 13.0123C18.6666 12.4062 19.5258 12.4062 19.7855 13.0123L20.3569 14.3454C20.4327 14.5224 20.5738 14.6635 20.7508 14.7393L22.0839 15.3106C22.69 15.5704 22.69 16.4296 22.0839 16.6894L20.7508 17.2607C20.5738 17.3365 20.4327 17.4776 20.3569 17.6546L19.7855 18.9877C19.5258 19.5938 18.6666 19.5938 18.4068 18.9877L17.8355 17.6546C17.7596 17.4776 17.6186 17.3365 17.4416 17.2607L16.1085 16.6894Z" fill="#000001"/>
</g>
</g>
</svg>
