<svg width="16" height="16" viewBox="0 0 16 16" fill="none" xmlns="http://www.w3.org/2000/svg">
<g id="size=16">
<path id="Path" fill-rule="evenodd" clip-rule="evenodd" d="M8.586 4.10359C9.36707 3.32289 10.6332 3.32266 11.4141 4.10359C12.1941 4.8846 12.1945 6.15095 11.4141 6.93171L3.6358 14.71C2.85507 15.4908 1.5888 15.4901 0.807677 14.71C0.0266302 13.929 0.0266341 12.663 0.807677 11.8819L8.586 4.10359ZM1.86822 12.9425C1.67297 13.1377 1.67296 13.4542 1.86822 13.6495C2.06356 13.8438 2.38031 13.8444 2.57525 13.6495L8.40924 7.8155L7.70221 7.10847L1.86822 12.9425ZM12.5762 8.28621C12.7496 7.88283 13.3219 7.88266 13.4952 8.28621L14.0176 9.50496C14.0683 9.6225 14.1627 9.71722 14.2803 9.76765L15.4981 10.2901C15.9008 10.4638 15.9011 11.0357 15.4981 11.2091L14.2803 11.7315C14.1624 11.7821 14.0682 11.8763 14.0176 11.9942L13.4952 13.213C13.322 13.6164 12.7499 13.6159 12.5762 13.213L12.0538 11.9942C12.0034 11.8766 11.9085 11.7822 11.7911 11.7315L10.5723 11.2091C10.1683 11.0359 10.1683 10.4633 10.5723 10.2901L11.7911 9.76765C11.9086 9.71701 12.0033 9.62254 12.0538 9.50496L12.5762 8.28621ZM10.3536 5.16413C10.1584 4.96899 9.84183 4.96923 9.64654 5.16413L8.76275 6.04792L9.46979 6.75496L10.3536 5.87117C10.5482 5.67619 10.5478 5.35936 10.3536 5.16413ZM3.43268 0.83308C3.26943 0.424954 3.67494 0.0195224 4.08307 0.18269L5.06451 0.575268C5.18335 0.622373 5.31688 0.622756 5.43561 0.575268L6.41705 0.18269C6.82481 0.0206387 7.22955 0.425312 7.06647 0.83308L6.67389 1.81355C6.62631 1.93269 6.62624 2.0665 6.67389 2.18562L7.06647 3.16609C7.22847 3.57338 6.82434 3.97793 6.41705 3.81648L5.43561 3.4239C5.31674 3.37635 5.18346 3.37662 5.06451 3.4239L4.08307 3.81648C3.67502 3.97966 3.2697 3.57414 3.43268 3.16609L3.82525 2.18562C3.8728 2.06675 3.87254 1.9325 3.82525 1.81355L3.43268 0.83308ZM12.1827 0.83308C12.0194 0.424954 12.4249 0.0195224 12.8331 0.18269L13.5645 0.475658C13.6833 0.522706 13.8169 0.52311 13.9356 0.475658L14.6671 0.18269C15.0748 0.020633 15.4796 0.42531 15.3165 0.83308L15.0245 1.56355C14.9769 1.68269 14.9768 1.8165 15.0245 1.93562L15.3165 2.66609C15.4785 3.07338 15.0743 3.47793 14.6671 3.31648L13.9356 3.02351C13.8168 2.97602 13.6834 2.97629 13.5645 3.02351L12.8331 3.31648C12.425 3.47965 12.0197 3.07414 12.1827 2.66609L12.4756 1.93562C12.5232 1.81675 12.5229 1.6825 12.4756 1.56355L12.1827 0.83308Z" fill="#000001"/>
</g>
</svg>
