<svg width="24" height="24" viewBox="0 0 24 24" fill="none" xmlns="http://www.w3.org/2000/svg">
<g id="size=24">
<g id="Union">
<path d="M12.5 8.25C12.5 7.83579 12.1642 7.5 11.75 7.5C11.3358 7.5 11 7.83579 11 8.25V12.5C11 12.7841 11.1605 13.0438 11.4146 13.1708L13.9146 14.4208C14.2851 14.6061 14.7356 14.4559 14.9208 14.0854C15.1061 13.7149 14.9559 13.2644 14.5854 13.0792L12.5 12.0365V8.25Z" fill="#000001"/>
<path fill-rule="evenodd" clip-rule="evenodd" d="M7.46352 2.25807C7.70126 0.950468 8.84012 0 10.1692 0H13.8309C15.1599 0 16.2988 0.950465 16.5365 2.25806L17.2028 5.92273C18.915 7.38997 20 9.56828 20 12C20 14.4317 18.915 16.61 17.2028 18.0773L16.5365 21.7419C16.2988 23.0495 15.1599 24 13.8309 24H10.1692C8.84012 24 7.70126 23.0495 7.46352 21.7419L6.79722 18.0773C5.08496 16.61 4 14.4317 4 12C4 9.56827 5.08496 7.38996 6.79722 5.92271L7.46352 2.25807ZM8.5276 19.2092L8.93932 21.4736C9.04739 22.068 9.56505 22.5 10.1692 22.5H13.8309C14.435 22.5 14.9526 22.068 15.0607 21.4736L15.4724 19.2091C14.4222 19.7159 13.2443 20 12 20C10.7558 20 9.57785 19.7159 8.5276 19.2092ZM15.0607 2.52639L15.4724 4.79086C14.4222 4.28406 13.2443 4 12 4C10.7558 4 9.57785 4.28405 8.5276 4.79085L8.93932 2.5264C9.04739 1.93203 9.56505 1.5 10.1692 1.5H13.8309C14.435 1.5 14.9526 1.93203 15.0607 2.52639ZM5.5 12C5.5 8.41015 8.41015 5.5 12 5.5C15.5899 5.5 18.5 8.41015 18.5 12C18.5 15.5899 15.5899 18.5 12 18.5C8.41015 18.5 5.5 15.5899 5.5 12Z" fill="#000001"/>
</g>
</g>
</svg>
