<svg width="16" height="16" viewBox="0 0 16 16" fill="none" xmlns="http://www.w3.org/2000/svg">
<g id="size=16">
<path id="Path" d="M9.19922 0C10.3188 9.2556e-05 11.2684 0.823299 11.4268 1.93164L11.7139 3.94336C12.8116 4.94888 13.5 6.39402 13.5 8C13.5 9.60598 12.8116 11.0511 11.7139 12.0566L11.4268 14.0684C11.2684 15.1767 10.3188 15.9999 9.19922 16H6.80078C5.68117 15.9999 4.73164 15.1767 4.57324 14.0684L4.28613 12.0566C3.1884 11.0511 2.5 9.60598 2.5 8C2.5 6.39402 3.1884 4.94888 4.28613 3.94336L4.57324 1.93164C4.73164 0.823283 5.68117 6.63795e-05 6.80078 0H9.19922ZM10.0488 13.1055C9.41566 13.3598 8.7241 13.5 8 13.5C7.27588 13.5 6.58435 13.3598 5.95117 13.1055L6.05859 13.8564C6.11154 14.2257 6.42773 14.4999 6.80078 14.5H9.19922C9.57225 14.4999 9.88847 14.2257 9.94141 13.8564L10.0488 13.1055ZM8 4C5.79086 4 4 5.79086 4 8C4 10.2091 5.79086 12 8 12C10.2091 12 12 10.2091 12 8C12 5.79086 10.2091 4 8 4ZM8.25 5.5C8.66421 5.5 9 5.83579 9 6.25V7.95898L9.9873 8.28809C10.3803 8.41907 10.5929 8.84435 10.4619 9.2373C10.3309 9.63026 9.90565 9.8429 9.5127 9.71191L8.0127 9.21191C7.70644 9.10983 7.5 8.82282 7.5 8.5V6.25C7.5 5.83579 7.83579 5.5 8.25 5.5ZM6.80078 1.5C6.42773 1.50007 6.11154 1.77431 6.05859 2.14355L5.95117 2.89453C6.58435 2.64023 7.27588 2.5 8 2.5C8.7241 2.5 9.41566 2.64024 10.0488 2.89453L9.94141 2.14355C9.88847 1.77432 9.57225 1.50009 9.19922 1.5H6.80078Z" fill="#000001"/>
</g>
</svg>
