<svg width="24" height="24" viewBox="0 0 24 24" fill="none" xmlns="http://www.w3.org/2000/svg">
<g id="size=24">
<path id="Path" fill-rule="evenodd" clip-rule="evenodd" d="M2 0C0.895431 0 0 0.89543 0 2V22C0 23.1046 0.89543 24 2 24H22C23.1046 24 24 23.1046 24 22V2C24 0.895431 23.1046 0 22 0H2ZM9.33368 9.31199H8.00054L11.3328 15.0891L9.99968 17.4L4 7H10.6668L14.0002 12.7783L14.6662 11.6228L12 7H14.6662L17.3336 11.6228L14.0002 17.4L9.33368 9.31199ZM20.0001 7L18.0021 10.4629L16.004 7H20.0001Z" fill="#14C6CB"/>
</g>
</svg>
