<svg width="16" height="16" viewBox="0 0 16 16" fill="none" xmlns="http://www.w3.org/2000/svg">
<g id="size=16">
<path id="Path" fill-rule="evenodd" clip-rule="evenodd" d="M2 0C0.895431 0 0 0.895431 0 2V14C0 15.1046 0.895431 16 2 16H14C15.1046 16 16 15.1046 16 14V2C16 0.895431 15.1046 0 14 0H2ZM6.33355 6.31999H5.50034L7.58301 9.93071L6.7498 11.375L3 4.875H7.16676L9.25014 8.48642L9.66639 7.76428L7.99997 4.875H9.66639L11.3335 7.76428L9.25014 11.375L6.33355 6.31999ZM13 4.875L11.7513 7.03932L10.5025 4.875H13Z" fill="#14C6CB"/>
</g>
</svg>
