<svg width="24" height="24" viewBox="0 0 24 24" fill="none" xmlns="http://www.w3.org/2000/svg">
<g id="size=24">
<path id="Path" d="M0.885742 14.6239C1.09319 14.2656 1.5527 14.1432 1.91113 14.3505C2.26948 14.5579 2.39191 15.0174 2.18457 15.3759C1.90858 15.853 1.75002 16.4068 1.75 16.9999C1.75 18.7948 3.20514 20.2498 5 20.2499C6.79492 20.2499 8.25 18.7948 8.25 16.9999C8.25006 16.5858 8.58589 16.25 9 16.2499H17.1455C17.4422 15.517 18.1607 14.9999 19 14.9999H19.0098C20.1143 14.9999 21.0097 15.8954 21.0098 16.9999C21.0098 18.1044 20.1143 18.9999 19.0098 18.9999H19C18.1607 18.9998 17.4422 18.4828 17.1455 17.7499H9.69141C9.33182 20.0169 7.36815 21.7499 5 21.7499C2.37671 21.7498 0.25 19.6232 0.25 16.9999C0.250019 16.136 0.481163 15.3233 0.885742 14.6239ZM12.0098 3.99988C13.1143 3.99988 14.0097 4.89536 14.0098 5.99988C14.0098 6.43632 13.8701 6.84002 13.6328 7.16882L17.1143 12.6395C17.6928 12.389 18.3308 12.2499 19 12.2499C21.6233 12.2499 23.7499 14.3766 23.75 16.9999C23.75 19.6232 21.6234 21.7499 19 21.7499C18.5913 21.7499 18.1935 21.6982 17.8135 21.6005C17.4126 21.4972 17.1705 21.0883 17.2734 20.6874C17.3767 20.2865 17.7856 20.0445 18.1865 20.1473C18.4455 20.214 18.7183 20.2499 19 20.2499C20.7949 20.2499 22.25 18.7948 22.25 16.9999C22.2499 15.205 20.7949 13.7499 19 13.7499C18.3569 13.7499 17.7593 13.9358 17.2559 14.2567C17.0881 14.3637 16.8838 14.4004 16.6895 14.3573C16.4953 14.3141 16.3265 14.195 16.2197 14.0272L12.3643 7.96863C12.2494 7.98912 12.1305 7.99988 12.0098 7.99988H12C10.8955 7.9998 10 7.1044 10 5.99988C10.0001 4.89541 10.8955 3.99996 12 3.99988H12.0098ZM12 1.24988C13.7893 1.24988 15.347 2.23986 16.1562 3.69812C16.3569 4.06017 16.2261 4.51665 15.8643 4.71765C15.5021 4.91858 15.0447 4.78783 14.8438 4.42566C14.2882 3.42482 13.2225 2.74988 12 2.74988C10.2052 2.74995 8.75006 4.20505 8.75 5.99988C8.75 7.15172 9.34918 8.16479 10.2559 8.74304C10.6043 8.96563 10.7071 9.42821 10.4854 9.77722L6.63281 15.8309C6.87006 16.1597 7.00974 16.5635 7.00977 16.9999C7.00977 18.1044 6.11434 18.9999 5.00977 18.9999H5C3.8955 18.9998 3 18.1044 3 16.9999C3.00006 15.8954 3.89553 15 5 14.9999H5.00977C5.13047 14.9999 5.24944 15.0106 5.36426 15.0311L8.84863 9.55457C7.86879 8.68513 7.25 7.41473 7.25 5.99988C7.25006 3.37662 9.37675 1.24995 12 1.24988Z" fill="#000001"/>
</g>
</svg>
