<svg width="16" height="16" viewBox="0 0 16 16" fill="none" xmlns="http://www.w3.org/2000/svg">
<g id="size=16">
<path id="Path" d="M0.703125 9.67719C0.910703 9.31885 1.37013 9.19632 1.72852 9.40375C2.08691 9.61136 2.20952 10.0707 2.00195 10.4291C1.84233 10.7049 1.75005 11.0251 1.75 11.3686C1.75024 12.4064 2.59387 13.2502 3.63574 13.2504C4.6776 13.2502 5.52027 12.4064 5.52051 11.3686C5.52065 10.9547 5.85661 10.6189 6.27051 10.6186H11.3584C11.5864 10.3154 11.9498 10.1197 12.3584 10.1196H12.3652C13.0554 10.1198 13.6152 10.6794 13.6152 11.3696C13.6147 12.0593 13.0551 12.6193 12.3652 12.6196H12.3584C11.9495 12.6194 11.5854 12.4222 11.3574 12.1186H6.9375C6.59572 13.6254 5.24622 14.7502 3.63574 14.7504C1.76743 14.7502 0.250241 13.2368 0.25 11.3686C0.250046 10.7541 0.414841 10.1751 0.703125 9.67719ZM7.9248 2.88226C8.61494 2.88253 9.1748 3.44207 9.1748 4.13226C9.17468 4.30005 9.14114 4.46071 9.08105 4.60687L11.2402 8.17816C11.5922 8.05439 11.971 7.98783 12.3643 7.98773C14.2328 7.98773 15.7499 9.50012 15.75 11.3686C15.7498 13.237 14.2328 14.7504 12.3643 14.7504C12.0737 14.7504 11.7902 14.7135 11.5195 14.644C11.1187 14.5408 10.8768 14.1318 10.9795 13.7309C11.0826 13.3298 11.4915 13.088 11.8926 13.1909C12.0424 13.2294 12.2006 13.2504 12.3643 13.2504C13.4063 13.2504 14.2498 12.4066 14.25 11.3686C14.2499 10.3305 13.4064 9.48773 12.3643 9.48773C11.9907 9.4879 11.6442 9.595 11.3525 9.7807C11.1823 9.88893 10.9748 9.92436 10.7783 9.87836C10.5821 9.83219 10.412 9.70909 10.3076 9.53656L7.79297 5.37543C7.16164 5.31271 6.66844 4.77998 6.66797 4.13226C6.66797 3.44205 7.22781 2.88249 7.91797 2.88226H7.9248ZM7.91797 0.750427C9.1928 0.750546 10.3023 1.45502 10.8789 2.49261C11.0799 2.85458 10.9497 3.31091 10.5879 3.51215C10.226 3.7129 9.76952 3.58287 9.56836 3.22113C9.24596 2.64095 8.62719 2.25055 7.91797 2.25043C6.87594 2.25065 6.03223 3.09423 6.03223 4.13226C6.03247 4.79799 6.37865 5.38476 6.90527 5.72015C7.24292 5.93516 7.35196 6.37751 7.15332 6.72504L4.78516 10.8696C4.85183 11.0225 4.88867 11.1921 4.88867 11.3696C4.88817 12.0595 4.32872 12.6196 3.63867 12.6196H3.63184C2.94206 12.6193 2.38234 12.0593 2.38184 11.3696C2.38184 10.7307 2.86181 10.2034 3.48047 10.1284L5.53516 6.53363C4.9171 5.92171 4.53242 5.07201 4.53223 4.13226C4.53223 2.26381 6.04951 0.750653 7.91797 0.750427Z" fill="#000001"/>
</g>
</svg>
