<svg width="24" height="24" viewBox="0 0 24 24" fill="none" xmlns="http://www.w3.org/2000/svg">
<g id="size=24">
<path id="Path" d="M0.885742 14.624C1.09322 14.2657 1.55267 14.1432 1.91113 14.3506C2.26948 14.5581 2.39193 15.0175 2.18457 15.376C1.90856 15.8532 1.75 16.4069 1.75 17C1.75 18.7949 3.20508 20.25 5 20.25C6.79492 20.25 8.25 18.7949 8.25 17C8.25 16.5858 8.58579 16.25 9 16.25H17.1455C17.4422 15.5171 18.1607 15 19 15H19.0098C20.1143 15 21.0098 15.8954 21.0098 17C21.0098 18.1046 20.1143 19 19.0098 19H19C18.1607 19 17.4422 18.4829 17.1455 17.75H9.69141C9.33182 20.017 7.36815 21.75 5 21.75C2.37665 21.75 0.25 19.6234 0.25 17C0.25 16.1361 0.481146 15.3234 0.885742 14.624ZM12.0098 4C13.1143 4 14.0098 4.89543 14.0098 6C14.0098 6.43645 13.8701 6.84014 13.6328 7.16895L17.1143 12.6396C17.6928 12.3891 18.3307 12.25 19 12.25C21.6234 12.25 23.75 14.3766 23.75 17C23.75 19.6234 21.6234 21.75 19 21.75C18.5913 21.75 18.1935 21.6984 17.8135 21.6006C17.4125 21.4974 17.1705 21.0885 17.2734 20.6875C17.3766 20.2865 17.7855 20.0445 18.1865 20.1475C18.4456 20.2141 18.7183 20.25 19 20.25C20.7949 20.25 22.25 18.7949 22.25 17C22.25 15.2051 20.7949 13.75 19 13.75C18.3568 13.75 17.7593 13.9359 17.2559 14.2568C17.088 14.3639 16.8838 14.4005 16.6895 14.3574C16.4953 14.3143 16.3265 14.1952 16.2197 14.0273L12.3643 7.96875C12.2494 7.98926 12.1305 8 12.0098 8H12C10.8954 7.99999 10 7.10457 10 6C10 4.89543 10.8954 4.00001 12 4H12.0098ZM12 1.25C13.7894 1.25 15.347 2.2399 16.1562 3.69824C16.3569 4.06029 16.2261 4.51677 15.8643 4.71777C15.5021 4.91875 15.0447 4.78797 14.8438 4.42578C14.2882 3.42486 13.2225 2.75 12 2.75C10.2051 2.75 8.75 4.20507 8.75 6C8.75 7.1519 9.34909 8.16493 10.2559 8.74316C10.6043 8.96575 10.7071 9.42833 10.4854 9.77734L6.63281 15.8311C6.87007 16.1599 7.00977 16.5636 7.00977 17C7.00977 18.1046 6.11434 19 5.00977 19H5C3.89543 19 3 18.1046 3 17C3 15.8954 3.89543 15 5 15H5.00977C5.13052 15 5.2494 15.0107 5.36426 15.0312L8.84863 9.55469C7.86872 8.68525 7.25 7.41491 7.25 6C7.25 3.37665 9.37665 1.25 12 1.25Z" fill="#000001"/>
</g>
</svg>
