<svg width="16" height="16" viewBox="0 0 16 16" fill="none" xmlns="http://www.w3.org/2000/svg">
<g id="size=16">
<path id="Path" d="M0.703125 9.67676C0.910726 9.31838 1.37012 9.1958 1.72852 9.40332C2.08691 9.61093 2.20952 10.0703 2.00195 10.4287C1.84214 10.7046 1.75005 11.0245 1.75 11.3682C1.75 12.4063 2.59353 13.25 3.63574 13.25C4.67775 13.2498 5.52051 12.4062 5.52051 11.3682C5.52065 10.9541 5.85642 10.6182 6.27051 10.6182H11.3584C11.5865 10.3148 11.9497 10.1191 12.3584 10.1191H12.3652C13.0554 10.1194 13.6152 10.6789 13.6152 11.3691C13.615 12.0591 13.0552 12.6189 12.3652 12.6191H12.3584C11.9493 12.6191 11.5855 12.4219 11.3574 12.1182H6.9375C6.59591 13.6253 5.2464 14.7498 3.63574 14.75C1.76709 14.75 0.25 13.2368 0.25 11.3682C0.250046 10.7535 0.414656 10.1748 0.703125 9.67676ZM7.9248 2.88184C8.61494 2.8821 9.1748 3.44164 9.1748 4.13184C9.17474 4.29979 9.14119 4.46016 9.08105 4.60645L11.2402 8.17773C11.5923 8.05392 11.9709 7.98736 12.3643 7.9873C14.2328 7.9873 15.7499 9.49969 15.75 11.3682C15.75 13.2368 14.2329 14.75 12.3643 14.75C12.0735 14.75 11.7903 14.7131 11.5195 14.6436C11.1184 14.5405 10.8764 14.1316 10.9795 13.7305C11.0826 13.3293 11.4914 13.0874 11.8926 13.1904C12.0425 13.229 12.2004 13.25 12.3643 13.25C13.4065 13.25 14.25 12.4063 14.25 11.3682C14.2499 10.3301 13.4064 9.4873 12.3643 9.4873C11.9906 9.48739 11.6443 9.59451 11.3525 9.78027C11.1822 9.88875 10.975 9.92398 10.7783 9.87793C10.5819 9.83181 10.412 9.70882 10.3076 9.53613L7.79297 5.375C7.16132 5.31244 6.66822 4.77989 6.66797 4.13184C6.66797 3.44148 7.22761 2.88184 7.91797 2.88184H7.9248ZM7.91797 0.75C9.1928 0.750119 10.3023 1.45459 10.8789 2.49219C11.0801 2.85418 10.9498 3.31046 10.5879 3.51172C10.2258 3.71291 9.76957 3.58274 9.56836 3.2207C9.24596 2.64052 8.62719 2.25012 7.91797 2.25C6.87575 2.25 6.03223 3.09367 6.03223 4.13184C6.03232 4.79779 6.37848 5.38426 6.90527 5.71973C7.24292 5.93474 7.35196 6.37708 7.15332 6.72461L4.78516 10.8691C4.85189 11.0221 4.88867 11.1916 4.88867 11.3691C4.88841 12.0593 4.32887 12.6191 3.63867 12.6191H3.63184C2.94172 12.619 2.3821 12.0592 2.38184 11.3691C2.38184 10.7301 2.86159 10.2027 3.48047 10.1279L5.53516 6.5332C4.917 5.92118 4.5323 5.07176 4.53223 4.13184C4.53223 2.26324 6.04932 0.75 7.91797 0.75Z" fill="#000001"/>
</g>
</svg>
