<svg width="16" height="16" viewBox="0 0 16 16" fill="none" xmlns="http://www.w3.org/2000/svg">
<g id="size=16">
<path id="Path" fill-rule="evenodd" clip-rule="evenodd" d="M8.00716 12C8.55923 12.0003 9.00716 12.4479 9.00716 13C9.00716 13.5521 8.55923 13.9997 8.00716 14H8.00032C7.44809 13.9999 7.00032 13.5522 7.00032 13C7.00032 12.4478 7.44809 12.0001 8.00032 12H8.00716ZM8.00325 9C8.98908 9 9.95055 9.307 10.7542 9.87793C11.0919 10.1178 11.1709 10.5862 10.931 10.9238C10.691 11.261 10.2236 11.3401 9.88607 11.1006C9.33618 10.7099 8.67777 10.5 8.00325 10.5C7.32888 10.5001 6.67121 10.7101 6.12142 11.1006C5.78385 11.3403 5.31546 11.2612 5.07552 10.9238C4.83572 10.5862 4.9148 10.1179 5.25228 9.87793C6.05591 9.30699 7.01746 9.00005 8.00325 9ZM8.02669 5.5C9.9168 5.50002 11.7472 6.16251 13.1995 7.37207C13.5178 7.63717 13.5613 8.11044 13.2962 8.42871C13.0311 8.74685 12.5578 8.78947 12.2396 8.52441C11.0567 7.5394 9.56598 7.00002 8.02669 7C6.48719 7.00003 4.99574 7.53913 3.81282 8.52441C3.4946 8.78935 3.02225 8.7468 2.75716 8.42871C2.49218 8.11051 2.5348 7.63718 2.85286 7.37207C4.30531 6.16229 6.13641 5.50003 8.02669 5.5ZM8.00032 2C10.7799 2.00008 13.464 3.01454 15.5492 4.85254C15.8598 5.12645 15.8894 5.60042 15.6156 5.91113C15.3416 6.22146 14.8675 6.25131 14.557 5.97754C12.7458 4.38118 10.4146 3.50008 8.00032 3.5C5.58586 3.50003 3.25396 4.38098 1.44271 5.97754C1.13204 6.25132 0.658018 6.22166 0.384113 5.91113C0.110367 5.60051 0.140115 5.12646 0.450519 4.85254C2.53576 3.01446 5.22062 2.00003 8.00032 2Z" fill="#000001"/>
</g>
</svg>
