<svg width="24" height="24" viewBox="0 0 24 24" fill="none" xmlns="http://www.w3.org/2000/svg">
<g id="size=24">
<path id="Path" fill-rule="evenodd" clip-rule="evenodd" d="M1.21966 1.22018C1.51258 0.927606 1.98742 0.927396 2.28021 1.22018L22.7802 21.7202C23.0712 22.0131 23.0722 22.4884 22.7802 22.7807C22.4879 23.0729 22.0126 23.0717 21.7197 22.7807L15.5449 16.6059C15.3745 16.6208 15.1964 16.5764 15.0458 16.4702C14.158 15.8394 13.0938 15.5008 12.0048 15.5005C10.9154 15.5005 9.85198 15.8393 8.9638 16.4702C8.62684 16.7094 8.15917 16.6293 7.91888 16.2934C7.679 15.9558 7.75802 15.4874 8.09564 15.2475C9.23758 14.4365 10.6041 14.0005 12.0048 14.0005C12.3439 14.0006 12.6832 14.0263 13.0156 14.0766L9.70794 10.769C8.16439 11.1297 6.71381 11.8464 5.47943 12.8745C5.16178 13.1388 4.68905 13.0943 4.42376 12.7778C4.15895 12.4597 4.20164 11.9872 4.51947 11.7221C5.69776 10.7408 7.04808 10.007 8.48822 9.55026L5.76947 6.83054C4.37843 7.45313 3.07752 8.28624 1.91595 9.31003C1.60584 9.58328 1.13147 9.55258 0.857356 9.24362C0.583507 8.93295 0.613191 8.45895 0.923762 8.18503C2.05518 7.18777 3.30711 6.35511 4.64154 5.70261L1.21966 2.28073C0.92682 1.98789 0.926926 1.51309 1.21966 1.22018ZM12.0097 19.0005C12.5611 19.0015 13.0097 19.4488 13.0097 20.0005C13.0088 20.5514 12.5606 20.9995 12.0097 21.0005H11.9999C11.4482 21.0005 11.0008 20.552 10.9999 20.0005C10.9999 19.4482 11.4476 19.0005 11.9999 19.0005H12.0097ZM14.2773 9.95456C14.3888 9.55564 14.8032 9.32259 15.2021 9.43405C16.7877 9.87747 18.2761 10.6532 19.5595 11.7221C19.8759 11.9874 19.9203 12.4602 19.6562 12.7778C19.3916 13.0952 18.9177 13.1378 18.5995 12.8745C17.48 11.942 16.181 11.2652 14.7978 10.8784C14.3995 10.7669 14.1667 10.353 14.2773 9.95456ZM11.9999 4.00046C16.0776 4.00093 20.0172 5.48867 23.0761 8.18503C23.3849 8.45911 23.4155 8.93355 23.1425 9.24362C22.8691 9.55352 22.3946 9.58213 22.0839 9.31003C19.299 6.85526 15.7123 5.50093 11.9999 5.50046C11.2802 5.50046 10.5636 5.55187 9.85833 5.65182C9.44883 5.70991 9.06874 5.42327 9.0097 5.01413C8.95164 4.60409 9.23735 4.22464 9.6474 4.16647C10.4222 4.05665 11.2093 4.00046 11.9999 4.00046Z" fill="#000001"/>
</g>
</svg>
