<svg width="16" height="16" viewBox="0 0 16 16" fill="none" xmlns="http://www.w3.org/2000/svg">
<g id="size=16">
<g id="Path">
<path d="M1.21979 1.21967C1.51269 0.926777 1.98756 0.926777 2.28045 1.21967L14.7805 13.7197C15.0733 14.0126 15.0733 14.4874 14.7805 14.7803C14.4876 15.0732 14.0127 15.0732 13.7198 14.7803L10.162 11.2225C10.0654 11.2017 9.97137 11.1614 9.88574 11.1006C9.33583 10.7099 8.678 10.5 8.00344 10.5C7.32889 10.5 6.67105 10.7099 6.12115 11.1006C5.78348 11.3405 5.31527 11.2612 5.07537 10.9235C4.83547 10.5859 4.91473 10.1177 5.2524 9.87776C6.03882 9.31904 6.97629 9.01331 7.93989 9.00043L6.19844 7.25898C5.33077 7.50983 4.51756 7.93839 3.81344 8.52487C3.49517 8.78996 3.02226 8.74686 2.75716 8.42858C2.49207 8.11031 2.53517 7.6374 2.85344 7.3723C3.50837 6.8268 4.24017 6.39257 5.01964 6.08017L3.5128 4.57334C2.77171 4.94936 2.07549 5.41976 1.44272 5.97752C1.132 6.25142 0.658061 6.22157 0.384162 5.91084C0.110264 5.60011 0.14012 5.12617 0.450849 4.85228C1.05579 4.31903 1.71117 3.85512 2.40466 3.4652L1.21979 2.28033C0.926899 1.98744 0.926899 1.51256 1.21979 1.21967Z" fill="#000001"/>
<path d="M8.00012 3.5C7.58013 3.5 7.16267 3.52665 6.75004 3.57908C6.33913 3.63129 5.9637 3.34051 5.91149 2.9296C5.85928 2.51869 6.15006 2.14326 6.56097 2.09104C7.03605 2.03068 7.51665 2 8.00012 2C10.7799 2 13.4641 3.01417 15.5494 4.85228C15.8601 5.12617 15.89 5.60011 15.6161 5.91084C15.3422 6.22157 14.8682 6.25142 14.5575 5.97752C12.7462 4.38092 10.4146 3.5 8.00012 3.5Z" fill="#000001"/>
<path d="M9.79408 6.42673C9.93378 6.03679 10.3631 5.83393 10.7531 5.97364C11.6378 6.29059 12.4671 6.76175 13.2001 7.3723C13.5184 7.6374 13.5615 8.11031 13.2964 8.42858C13.0313 8.74686 12.5584 8.78996 12.2401 8.52487C11.6431 8.02761 10.9677 7.64389 10.2472 7.38574C9.85723 7.24604 9.65437 6.81668 9.79408 6.42673Z" fill="#000001"/>
<path d="M8.00012 12C7.44784 12 7.00012 12.4477 7.00012 13C7.00012 13.5523 7.44784 14 8.00012 14H8.00679C8.55907 14 9.00679 13.5523 9.00679 13C9.00679 12.4477 8.55907 12 8.00679 12H8.00012Z" fill="#000001"/>
</g>
</g>
</svg>
