<svg width="24" height="24" viewBox="0 0 24 24" fill="none" xmlns="http://www.w3.org/2000/svg">
<g id="size=24">
<g id="Union">
<path d="M1.91599 9.30997C4.70143 6.85469 8.28696 5.5 12.0001 5.5C15.7131 5.5 19.2987 6.85469 22.0841 9.30997C22.3948 9.58387 22.8688 9.55402 23.1427 9.24329C23.4166 8.93256 23.3867 8.45862 23.076 8.18473C20.0166 5.48794 16.0784 4 12.0001 4C7.92174 4 3.98353 5.48794 0.924116 8.18473C0.613387 8.45862 0.58353 8.93256 0.857429 9.24329C1.13133 9.55402 1.60526 9.58387 1.91599 9.30997Z" fill="#000001"/>
<path d="M5.48002 12.8742C7.32182 11.3401 9.64301 10.5 12.04 10.5C14.437 10.5 16.7582 11.3401 18.6 12.8742C18.9183 13.1393 19.3912 13.0961 19.6563 12.7779C19.9214 12.4596 19.8783 11.9867 19.56 11.7216C17.4487 9.96301 14.7878 9 12.04 9C9.29223 9 6.63135 9.96301 4.52002 11.7216C4.20175 11.9867 4.15864 12.4596 4.42374 12.7779C4.68883 13.0961 5.16175 13.1393 5.48002 12.8742Z" fill="#000001"/>
<path d="M12.005 15.5C10.9153 15.5 9.85264 15.8391 8.96434 16.4702C8.62667 16.7101 8.15846 16.6308 7.91856 16.2931C7.67866 15.9555 7.75792 15.4872 8.09559 15.2473C9.23769 14.4359 10.604 14 12.005 14C13.406 14 14.7722 14.4359 15.9143 15.2473C16.252 15.4872 16.3313 15.9555 16.0914 16.2931C15.8515 16.6308 15.3833 16.7101 15.0456 16.4702C14.1573 15.8391 13.0946 15.5 12.005 15.5Z" fill="#000001"/>
<path d="M12 19C11.4477 19 11 19.4477 11 20C11 20.5523 11.4477 21 12 21H12.01C12.5623 21 13.01 20.5523 13.01 20C13.01 19.4477 12.5623 19 12.01 19H12Z" fill="#000001"/>
</g>
</g>
</svg>
