<svg width="24" height="24" viewBox="0 0 24 24" fill="none" xmlns="http://www.w3.org/2000/svg">
<g id="size=24">
<g id="Path">
<path d="M1.21967 1.21967C1.51256 0.926777 1.98744 0.926777 2.28033 1.21967L22.7803 21.7197C23.0732 22.0126 23.0732 22.4874 22.7803 22.7803C22.4874 23.0732 22.0126 23.0732 21.7197 22.7803L15.5453 16.6059C15.374 16.6209 15.1968 16.5775 15.0457 16.4702C14.1574 15.8391 13.0947 15.5 12.0051 15.5C10.9154 15.5 9.85275 15.8391 8.96444 16.4702C8.62677 16.7101 8.15856 16.6308 7.91866 16.2931C7.67876 15.9555 7.75802 15.4872 8.09569 15.2473C9.2378 14.4359 10.6041 14 12.0051 14C12.3448 14 12.6824 14.0256 13.0154 14.076L9.70812 10.7688C8.16439 11.1295 6.71454 11.8459 5.48007 12.8742C5.1618 13.1393 4.68889 13.0961 4.42379 12.7779C4.15869 12.4596 4.2018 11.9867 4.52007 11.7216C5.6986 10.74 7.04835 10.0062 8.48884 9.5495L5.76997 6.83063C4.37865 7.45334 3.07775 8.28592 1.91599 9.30997C1.60526 9.58387 1.13133 9.55402 0.857429 9.24329C0.58353 8.93256 0.613387 8.45862 0.924116 8.18473C2.05565 7.18731 3.30741 6.35525 4.64201 5.70267L1.21967 2.28033C0.926777 1.98744 0.926777 1.51256 1.21967 1.21967Z" fill="#000001"/>
<path d="M12.0001 5.5C11.2796 5.5 10.5641 5.55099 9.85822 5.65112C9.44811 5.70929 9.0685 5.42399 9.01032 5.01388C8.95215 4.60377 9.23745 4.22416 9.64756 4.16598C10.4229 4.05601 11.2088 4 12.0001 4C16.0784 4 20.0166 5.48794 23.076 8.18473C23.3867 8.45862 23.4166 8.93256 23.1427 9.24329C22.8688 9.55402 22.3948 9.58387 22.0841 9.30997C19.2987 6.85469 15.7131 5.5 12.0001 5.5Z" fill="#000001"/>
<path d="M14.2777 9.9539C14.3892 9.55497 14.803 9.32193 15.2019 9.4334C16.7885 9.87671 18.2759 10.652 19.5601 11.7216C19.8783 11.9867 19.9214 12.4596 19.6564 12.7779C19.3913 13.0961 18.9183 13.1393 18.6001 12.8742C17.4799 11.9411 16.1824 11.2648 14.7982 10.8781C14.3993 10.7666 14.1663 10.3528 14.2777 9.9539Z" fill="#000001"/>
<path d="M12 19C11.4477 19 11 19.4477 11 20C11 20.5523 11.4477 21 12 21H12.01C12.5623 21 13.01 20.5523 13.01 20C13.01 19.4477 12.5623 19 12.01 19H12Z" fill="#000001"/>
</g>
</g>
</svg>
