<svg width="16" height="16" viewBox="0 0 16 16" fill="none" xmlns="http://www.w3.org/2000/svg">
<g id="size=16">
<path id="Path" fill-rule="evenodd" clip-rule="evenodd" d="M1.22052 1.22014C1.5133 0.927946 1.98832 0.927897 2.28107 1.22014L14.7811 13.7201C15.0721 14.013 15.0729 14.4883 14.7811 14.7807C14.4887 15.0723 14.0133 15.0717 13.7205 14.7807L10.1619 11.2231C10.0664 11.2024 9.97137 11.1609 9.88654 11.101C9.33708 10.7108 8.67762 10.5007 8.00373 10.5004C7.3297 10.5006 6.67146 10.7108 6.12189 11.101C5.78496 11.3398 5.31617 11.2599 5.07599 10.9242C4.83673 10.5869 4.91593 10.1183 5.25275 9.87834C6.03891 9.31996 6.97705 9.01342 7.94025 9.00041L6.19904 7.2592C5.33197 7.50997 4.51802 7.93888 3.81427 8.52483C3.4966 8.78877 3.02281 8.74555 2.75763 8.42913C2.49324 8.11115 2.53603 7.63758 2.85334 7.37249C3.50797 6.82729 4.24127 6.3928 5.02033 6.08049L3.51349 4.57366C2.77284 4.94953 2.07563 5.42054 1.44318 5.97795C1.13304 6.25063 0.658513 6.22035 0.384585 5.91155C0.111441 5.60114 0.141352 5.12684 0.450992 4.85295C1.05562 4.32004 1.71201 3.85501 2.40509 3.46526L1.22052 2.28069C0.928351 1.98801 0.928543 1.51294 1.22052 1.22014ZM8.00763 12.0004C8.55897 12.0013 9.00738 12.4489 9.00763 13.0004C9.00662 13.5513 8.55851 13.9995 8.00763 14.0004H8.0008C7.4494 14.0001 7.0018 13.5516 7.0008 13.0004C7.00105 12.4485 7.44893 12.0007 8.0008 12.0004H8.00763ZM9.79474 6.42717C9.93458 6.0378 10.3641 5.83484 10.7537 5.97405C11.6373 6.29086 12.4677 6.76273 13.2 7.37249C13.5167 7.63772 13.561 8.11139 13.2967 8.42913C13.0319 8.74593 12.558 8.78817 12.2401 8.52483C11.6438 8.02842 10.9673 7.64416 10.2479 7.38616C9.85883 7.24641 9.65618 6.81651 9.79474 6.42717ZM8.0008 2.00041C10.7798 2.00079 13.4648 3.01547 15.5496 4.85295C15.8587 5.12695 15.8891 5.60135 15.616 5.91155C15.3424 6.22059 14.8678 6.25001 14.5574 5.97795C12.7466 4.38211 10.4144 3.50079 8.0008 3.50041C7.58148 3.50044 7.16278 3.52723 6.7508 3.57952C6.34077 3.63131 5.96509 3.33976 5.91193 2.9301C5.86002 2.51956 6.15088 2.14369 6.56134 2.09124C7.03589 2.03098 7.51789 2.00044 8.0008 2.00041Z" fill="#000001"/>
</g>
</svg>
