<svg width="24" height="24" viewBox="0 0 24 24" fill="none" xmlns="http://www.w3.org/2000/svg">
<g id="size=24">
<path id="Path" fill-rule="evenodd" clip-rule="evenodd" d="M12.0098 19C12.562 19 13.0098 19.4477 13.0098 20C13.0098 20.5523 12.562 21 12.0098 21H12C11.4477 21 11 20.5523 11 20C11 19.4477 11.4477 19 12 19H12.0098ZM12.0049 14C13.4057 14 14.772 14.4358 15.9141 15.2471C16.2517 15.487 16.3307 15.9553 16.0908 16.293C15.8509 16.6305 15.3835 16.7095 15.0459 16.4697C14.1576 15.8387 13.0945 15.5 12.0049 15.5C10.9152 15.5 9.85216 15.8387 8.96387 16.4697C8.62621 16.7096 8.15787 16.6306 7.91797 16.293C7.67834 15.9553 7.75814 15.4869 8.0957 15.2471C9.23774 14.4358 10.604 14 12.0049 14ZM12.04 9C14.7877 9.00005 17.4483 9.96322 19.5596 11.7217C19.8778 11.9868 19.9213 12.4601 19.6562 12.7783C19.3911 13.0964 18.9178 13.139 18.5996 12.874C16.7579 11.3401 14.4369 10.5001 12.04 10.5C9.64305 10.5 7.32128 11.34 5.47949 12.874C5.16136 13.1389 4.68894 13.0962 4.42383 12.7783C4.1588 12.4601 4.20149 11.9868 4.51953 11.7217C6.63085 9.96312 9.29227 9 12.04 9ZM12 4C16.0783 4.00003 20.0168 5.48781 23.0762 8.18457C23.3867 8.45845 23.4163 8.93248 23.1426 9.24316C22.8687 9.55388 22.3947 9.58343 22.084 9.30957C19.2986 6.85443 15.713 5.50003 12 5.5C8.28705 5.5 4.7014 6.85447 1.91601 9.30957C1.6053 9.58346 1.13132 9.55386 0.857421 9.24316C0.583533 8.93244 0.613112 8.45847 0.923827 8.18457C3.98323 5.48781 7.9217 4 12 4Z" fill="#000001"/>
</g>
</svg>
