<svg width="16" height="16" viewBox="0 0 16 16" fill="none" xmlns="http://www.w3.org/2000/svg">
<g id="size=16">
<g id="Path">
<path d="M1.21967 1.21967C1.51256 0.926777 1.98744 0.926777 2.28033 1.21967L14.7803 13.7197C15.0732 14.0126 15.0732 14.4874 14.7803 14.7803C14.4874 15.0732 14.0126 15.0732 13.7197 14.7803L10.1618 11.2225C10.0653 11.2017 9.97124 11.1614 9.88561 11.1006C9.33571 10.7099 8.67787 10.5 8.00332 10.5C7.32877 10.5 6.67093 10.7099 6.12103 11.1006C5.78336 11.3405 5.31515 11.2612 5.07525 10.9235C4.83535 10.5859 4.91461 10.1177 5.25228 9.87776C6.0387 9.31904 6.97617 9.01331 7.93976 9.00043L6.19832 7.25898C5.33065 7.50983 4.51744 7.93839 3.81332 8.52487C3.49505 8.78996 3.02214 8.74686 2.75704 8.42858C2.49194 8.11031 2.53505 7.6374 2.85332 7.3723C3.50825 6.8268 4.24005 6.39257 5.01952 6.08017L3.51268 4.57334C2.77159 4.94936 2.07536 5.41976 1.4426 5.97752C1.13187 6.25142 0.657939 6.22157 0.38404 5.91084C0.110142 5.60011 0.139998 5.12617 0.450727 4.85228C1.05567 4.31903 1.71105 3.85512 2.40454 3.4652L1.21967 2.28033C0.926777 1.98744 0.926777 1.51256 1.21967 1.21967Z" fill="#000001"/>
<path d="M8 3.5C7.58 3.5 7.16255 3.52665 6.74992 3.57908C6.33901 3.63129 5.96357 3.34051 5.91136 2.9296C5.85915 2.51869 6.14994 2.14326 6.56085 2.09104C7.03593 2.03068 7.51653 2 8 2C10.7797 2 13.464 3.01417 15.5493 4.85228C15.86 5.12617 15.8899 5.60011 15.616 5.91084C15.3421 6.22157 14.8681 6.25142 14.5574 5.97752C12.7461 4.38092 10.4145 3.5 8 3.5Z" fill="#000001"/>
<path d="M9.79395 6.42673C9.93366 6.03679 10.363 5.83393 10.753 5.97364C11.6376 6.29059 12.467 6.76175 13.2 7.3723C13.5183 7.6374 13.5614 8.11031 13.2963 8.42858C13.0312 8.74686 12.5583 8.78996 12.24 8.52487C11.643 8.02761 10.9676 7.64389 10.2471 7.38574C9.85711 7.24604 9.65425 6.81668 9.79395 6.42673Z" fill="#000001"/>
<path d="M8 12C7.44772 12 7 12.4477 7 13C7 13.5523 7.44772 14 8 14H8.00667C8.55895 14 9.00667 13.5523 9.00667 13C9.00667 12.4477 8.55895 12 8.00667 12H8Z" fill="#000001"/>
</g>
</g>
</svg>
