<svg width="16" height="16" viewBox="0 0 16 16" fill="none" xmlns="http://www.w3.org/2000/svg">
<g id="size=16">
<path id="Path" fill-rule="evenodd" clip-rule="evenodd" d="M8.00663 12C8.5587 12.0003 9.00663 12.4479 9.00663 13C9.00663 13.5521 8.5587 13.9997 8.00663 14H7.9998C7.4476 13.9999 6.9998 13.5522 6.9998 13C6.9998 12.4478 7.4476 12.0001 7.9998 12H8.00663ZM8.00273 9C8.98853 9 9.95004 9.30702 10.7537 9.87793C11.0914 10.1178 11.1704 10.5862 10.9305 10.9238C10.6905 11.261 10.223 11.3401 9.88554 11.1006C9.33566 10.71 8.67722 10.5 8.00273 10.5C7.32838 10.5001 6.67066 10.7101 6.12089 11.1006C5.78332 11.3403 5.31492 11.2612 5.07499 10.9238C4.83524 10.5863 4.91433 10.1179 5.25175 9.87793C6.05536 9.307 7.01696 9.00007 8.00273 9ZM8.02616 5.5C9.91625 5.50002 11.7466 6.16253 13.199 7.37207C13.5173 7.63717 13.5608 8.11044 13.2957 8.42871C13.0306 8.74682 12.5573 8.78946 12.2391 8.52441C11.0562 7.53942 9.56543 7.00002 8.02616 7C6.48669 7.00005 4.99519 7.53915 3.8123 8.52441C3.49408 8.78931 3.0217 8.74679 2.75663 8.42871C2.4917 8.11053 2.53433 7.63718 2.85233 7.37207C4.30476 6.16231 6.13591 5.50005 8.02616 5.5ZM7.9998 2C10.7794 2.00008 13.4634 3.01456 15.5486 4.85254C15.8593 5.12645 15.8889 5.60042 15.615 5.91113C15.3411 6.22142 14.867 6.2513 14.5564 5.97754C12.7453 4.3812 10.4141 3.50008 7.9998 3.5C5.58536 3.50005 3.25342 4.381 1.44218 5.97754C1.13151 6.25127 0.657476 6.22164 0.383585 5.91113C0.10989 5.60053 0.139643 5.12646 0.449991 4.85254C2.53521 3.01448 5.22012 2.00005 7.9998 2Z" fill="#000001"/>
</g>
</svg>
