<svg width="16" height="16" viewBox="0 0 16 16" fill="none" xmlns="http://www.w3.org/2000/svg">
<g id="size=16">
<g id="Path">
<path d="M1.44272 5.97752C3.25402 4.38092 5.58559 3.5 8.00012 3.5C10.4146 3.5 12.7462 4.38092 14.5575 5.97752C14.8682 6.25142 15.3422 6.22157 15.6161 5.91084C15.89 5.60011 15.8601 5.12617 15.5494 4.85228C13.4641 3.01417 10.7799 2 8.00012 2C5.22037 2 2.53612 3.01417 0.450849 4.85228C0.14012 5.12617 0.110264 5.60011 0.384162 5.91084C0.658061 6.22157 1.132 6.25142 1.44272 5.97752Z" fill="#000001"/>
<path d="M3.81339 8.52487C4.99634 7.53956 6.48719 7 8.02673 7C9.56627 7 11.0571 7.53956 12.2401 8.52487C12.5583 8.78996 13.0312 8.74686 13.2963 8.42858C13.5614 8.11031 13.5183 7.6374 13.2001 7.3723C11.7476 6.1625 9.91705 5.5 8.02673 5.5C6.13641 5.5 4.30587 6.1625 2.85339 7.3723C2.53512 7.6374 2.49202 8.11031 2.75711 8.42858C3.02221 8.74686 3.49512 8.78996 3.81339 8.52487Z" fill="#000001"/>
<path d="M8.00349 10.5C7.32894 10.5 6.6711 10.7099 6.1212 11.1006C5.78353 11.3405 5.31532 11.2612 5.07542 10.9235C4.83552 10.5859 4.91478 10.1177 5.25245 9.87776C6.05615 9.30677 7.01761 9 8.00349 9C8.98938 9 9.95083 9.30677 10.7545 9.87776C11.0922 10.1177 11.1715 10.5859 10.9316 10.9235C10.6917 11.2612 10.2235 11.3405 9.88579 11.1006C9.33588 10.7099 8.67805 10.5 8.00349 10.5Z" fill="#000001"/>
<path d="M8.00012 12C7.44784 12 7.00012 12.4477 7.00012 13C7.00012 13.5523 7.44784 14 8.00012 14H8.00679C8.55907 14 9.00679 13.5523 9.00679 13C9.00679 12.4477 8.55907 12 8.00679 12H8.00012Z" fill="#000001"/>
</g>
</g>
</svg>
