<svg width="16" height="16" viewBox="0 0 16 16" fill="none" xmlns="http://www.w3.org/2000/svg">
<g id="size=16">
<g id="Path">
<path d="M1.4426 5.97752C3.2539 4.38092 5.58547 3.5 8 3.5C10.4145 3.5 12.7461 4.38092 14.5574 5.97752C14.8681 6.25142 15.3421 6.22157 15.616 5.91084C15.8899 5.60011 15.86 5.12617 15.5493 4.85228C13.464 3.01417 10.7797 2 8 2C5.22025 2 2.536 3.01417 0.450727 4.85228C0.139998 5.12617 0.110142 5.60011 0.38404 5.91084C0.657939 6.22157 1.13187 6.25142 1.4426 5.97752Z" fill="#000001"/>
<path d="M3.81327 8.52487C4.99621 7.53956 6.48707 7 8.0266 7C9.56614 7 11.057 7.53956 12.2399 8.52487C12.5582 8.78996 13.0311 8.74686 13.2962 8.42858C13.5613 8.11031 13.5182 7.6374 13.1999 7.3723C11.7475 6.1625 9.91693 5.5 8.0266 5.5C6.13628 5.5 4.30575 6.1625 2.85327 7.3723C2.535 7.6374 2.49189 8.11031 2.75699 8.42858C3.02209 8.74686 3.495 8.78996 3.81327 8.52487Z" fill="#000001"/>
<path d="M8.00337 10.5C7.32882 10.5 6.67098 10.7099 6.12108 11.1006C5.78341 11.3405 5.3152 11.2612 5.0753 10.9235C4.8354 10.5859 4.91466 10.1177 5.25233 9.87776C6.05603 9.30677 7.01749 9 8.00337 9C8.98926 9 9.95071 9.30677 10.7544 9.87776C11.0921 10.1177 11.1713 10.5859 10.9314 10.9235C10.6915 11.2612 10.2233 11.3405 9.88566 11.1006C9.33576 10.7099 8.67792 10.5 8.00337 10.5Z" fill="#000001"/>
<path d="M8 12C7.44772 12 7 12.4477 7 13C7 13.5523 7.44772 14 8 14H8.00667C8.55895 14 9.00667 13.5523 9.00667 13C9.00667 12.4477 8.55895 12 8.00667 12H8Z" fill="#000001"/>
</g>
</g>
</svg>
