<svg width="16" height="16" viewBox="0 0 16 16" fill="none" xmlns="http://www.w3.org/2000/svg">
<g id="size=16">
<path id="Path" d="M7.5 7C8.32843 7 9 7.67157 9 8.5V13.5C9 14.3284 8.32843 15 7.5 15H2.5L2.34668 14.9922C1.59028 14.9154 1 14.2767 1 13.5V8.5C1 7.67157 1.67157 7 2.5 7H7.5ZM2.5 13.5H7.5V8.5H2.5V13.5ZM13.6533 7.00781C14.4097 7.08461 15 7.72334 15 8.5V10.5L14.9922 10.6533C14.9205 11.3593 14.3593 11.9205 13.6533 11.9922L13.5 12H11.5C10.7233 12 10.0846 11.4097 10.0078 10.6533L10 10.5V8.5C10 7.67157 10.6716 7 11.5 7H13.5L13.6533 7.00781ZM11.5 10.5H13.5V8.5H11.5V10.5ZM4.65332 1.00781C5.40972 1.08461 6 1.72334 6 2.5V4.5L5.99219 4.65332C5.92051 5.35931 5.35931 5.92051 4.65332 5.99219L4.5 6H2.5C1.72334 6 1.08461 5.40972 1.00781 4.65332L1 4.5V2.5C1 1.67157 1.67157 1 2.5 1H4.5L4.65332 1.00781ZM13.5 1C14.3284 1 15 1.67157 15 2.5V4.5L14.9922 4.65332C14.9154 5.40972 14.2767 6 13.5 6H8.5L8.34668 5.99219C7.64069 5.92051 7.07949 5.35931 7.00781 4.65332L7 4.5V2.5C7 1.67157 7.67157 1 8.5 1H13.5ZM2.5 4.5H4.5V2.5H2.5V4.5ZM8.5 4.5H13.5V2.5H8.5V4.5Z" fill="#000001"/>
</g>
</svg>
