<svg width="24" height="24" viewBox="0 0 24 24" fill="none" xmlns="http://www.w3.org/2000/svg">
<g id="size=24">
<path id="Path" d="M15.5 1C16.4487 1 17.1292 1.03969 17.6162 1.10449C18.0759 1.16566 18.4547 1.25967 18.7236 1.43164C18.8693 1.52486 19.0399 1.67761 19.1289 1.91602C19.2234 2.1693 19.1835 2.40467 19.1143 2.56934C19.051 2.71968 18.9603 2.82224 18.9072 2.87598C18.886 2.89752 18.8663 2.91636 18.8486 2.93164C18.5603 3.21844 18.1434 3.56351 17.7197 3.91406L17.6914 3.9375C17.2471 4.30508 16.7707 4.69942 16.3262 5.10742C15.8696 5.52652 15.4724 5.93673 15.1943 6.31836C14.904 6.71696 14.8135 6.98968 14.8135 7.14746C14.8135 7.23236 14.8465 7.31385 14.9053 7.375L16.625 9.09473C16.6861 9.15352 16.7676 9.18647 16.8525 9.18652C17.0116 9.18652 17.2848 9.09615 17.6836 8.80762C18.0659 8.53098 18.4773 8.13594 18.8975 7.68164C19.3057 7.24021 19.7001 6.76678 20.0684 6.3252L20.0947 6.29492C20.4445 5.87557 20.7881 5.46296 21.0752 5.17578C21.088 5.16063 21.1032 5.14354 21.1201 5.12598C21.1711 5.07308 21.2696 4.98132 21.415 4.91406C21.5735 4.84082 21.8112 4.78869 22.0732 4.87891C22.321 4.96432 22.4783 5.13912 22.5723 5.28516C22.745 5.55354 22.8375 5.93285 22.8975 6.38867C22.9612 6.87331 23 7.55177 23 8.5C23 12.6421 19.6421 16 15.5 16C14.6496 16 13.8481 15.8172 13.2725 15.6426C13.0887 15.5869 12.9247 15.531 12.7861 15.4805L6.18652 22.1104C5.61676 22.6801 4.84381 23 4.03809 23C3.23235 23 2.45939 22.6801 1.88965 22.1104C1.3199 21.5406 1.00003 20.7677 1 19.9619C1 19.1562 1.31995 18.3832 1.88965 17.8135L8.52148 11.2168C8.47082 11.0779 8.41434 10.9138 8.3584 10.7295C8.18344 10.1532 8.00001 9.35065 8 8.5C8 4.35786 11.3579 1 15.5 1ZM15.5 2.5C12.1863 2.5 9.5 5.18629 9.5 8.5C9.50001 9.14928 9.6428 9.79608 9.79395 10.2939C9.86853 10.5396 9.94313 10.7421 9.99805 10.8809C10.0254 10.9499 10.0476 11.0028 10.0625 11.0371C10.0699 11.0543 10.0757 11.0667 10.0791 11.0742L10.082 11.0811C10.2153 11.3672 10.1552 11.7069 9.93164 11.9297L2.9502 18.874C2.66205 19.1624 2.5 19.5542 2.5 19.9619C2.50003 20.3698 2.66175 20.7614 2.9502 21.0498C3.23864 21.3382 3.63017 21.5 4.03809 21.5C4.44576 21.5 4.83659 21.3379 5.125 21.0498L12.0732 14.0703C12.2958 13.8467 12.6348 13.7861 12.9209 13.9189L12.9219 13.9199L12.9287 13.9229C12.9362 13.9262 12.9487 13.932 12.9658 13.9395C13.0001 13.9543 13.0531 13.9766 13.1221 14.0039C13.2606 14.0587 13.4628 14.1326 13.708 14.207C14.2049 14.3577 14.8507 14.5 15.5 14.5C18.8137 14.5 21.5 11.8137 21.5 8.5C21.5 7.86452 21.4817 7.37769 21.4531 7.00781C21.387 7.08663 21.3178 7.16985 21.2461 7.25586L21.2119 7.29688C20.8496 7.73136 20.4337 8.23017 19.999 8.7002C19.553 9.18254 19.0636 9.66051 18.5635 10.0225C18.08 10.3723 17.488 10.6865 16.8525 10.6865C16.374 10.6865 15.914 10.4991 15.5723 10.1641L15.5674 10.1582L13.8359 8.42773C13.5009 8.08595 13.3135 7.62605 13.3135 7.14746C13.3135 6.51056 13.6297 5.91838 13.9814 5.43555C14.3455 4.93583 14.8266 4.44709 15.3115 4.00195C15.7849 3.56741 16.2874 3.15171 16.7246 2.79004L16.7637 2.75781C16.8512 2.68543 16.9356 2.61646 17.0156 2.5498C16.6422 2.5198 16.1481 2.5 15.5 2.5Z" fill="#000001"/>
</g>
</svg>
