<svg width="16" height="16" viewBox="0 0 16 16" fill="none" xmlns="http://www.w3.org/2000/svg">
<g id="size=16">
<path id="Path" d="M10.4754 0C11.1511 9.34025e-06 11.643 0.0285747 12.0008 0.0761707C12.3317 0.120215 12.6409 0.19089 12.8738 0.339839C13.0013 0.421378 13.1628 0.563161 13.2478 0.791004C13.3383 1.03363 13.2994 1.25864 13.2342 1.41404C13.1807 1.54124 13.0963 1.65592 12.993 1.74704C12.7334 2.00414 12.4461 2.23413 12.1649 2.46676C11.8501 2.72717 11.5171 3.0022 11.2078 3.28608C10.889 3.57872 10.6205 3.85863 10.4364 4.11127C10.2409 4.37965 10.21 4.52526 10.2098 4.56731C10.2098 4.57042 10.2107 4.57376 10.2127 4.5761L11.4237 5.78702C11.426 5.78898 11.4294 5.78995 11.4324 5.78995C11.4759 5.7897 11.6227 5.75874 11.8914 5.56437C12.1445 5.38121 12.4243 5.11388 12.7176 4.7968C13.0017 4.48958 13.277 4.15854 13.5379 3.84564C13.771 3.56614 14.0006 3.28162 14.2576 3.02339C14.3429 2.92497 14.4488 2.84377 14.5672 2.78902C14.7165 2.72009 14.9442 2.66912 15.1961 2.75582C15.4336 2.83774 15.5804 3.00365 15.6628 3.13179C15.8127 3.36479 15.8824 3.67447 15.9255 4.00189C15.9724 4.35792 15.9997 4.8489 15.9998 5.52433C15.9997 8.5752 13.5263 11.0485 10.4754 11.0487C9.84456 11.0487 9.25446 10.9129 8.8358 10.786C8.75667 10.762 8.68236 10.7379 8.61413 10.7147L4.04388 15.3054C3.59979 15.7495 2.99616 15.9997 2.36813 15.9998C1.74011 15.9997 1.13744 15.7505 0.693349 15.3064C0.249257 14.8623 7.27247e-05 14.2597 0 13.6316C6.64877e-05 13.0037 0.249423 12.4009 0.693349 11.9568L0.695302 11.9559L5.28605 7.38856C5.26261 7.31984 5.238 7.24469 5.21379 7.16493C5.08658 6.74581 4.9511 6.1553 4.9511 5.52433C4.95123 2.47346 7.42453 1.28845e-05 10.4754 0ZM10.4754 1.49998C8.25294 1.49999 6.45121 3.30188 6.45107 5.52433C6.45108 5.95404 6.5459 6.38873 6.64931 6.72939C6.70354 6.90802 6.76637 7.08483 6.84169 7.25575L6.84267 7.2577C6.97577 7.54376 6.91504 7.88352 6.6913 8.10632L1.75486 13.0174C1.59233 13.1802 1.50004 13.4018 1.49998 13.6316C1.50005 13.8619 1.59109 14.0831 1.75388 14.2459C1.91667 14.4086 2.13793 14.4997 2.36813 14.4998C2.59812 14.4997 2.81963 14.4084 2.98238 14.2459L7.89636 9.30943C8.11864 9.08641 8.45637 9.02602 8.74205 9.15806C8.91217 9.23681 9.09219 9.2961 9.27134 9.35044C9.61132 9.45355 10.0456 9.54868 10.4754 9.54868C12.6978 9.5485 14.4998 7.74678 14.4998 5.52433C14.4998 5.34687 14.4976 5.18581 14.4939 5.04094C14.2853 5.28957 14.0564 5.55871 13.8191 5.81534C13.4999 6.16049 13.1421 6.51076 12.7713 6.77919C12.417 7.03555 11.9514 7.28976 11.4324 7.28993C11.0365 7.28993 10.6557 7.13546 10.3729 6.85829L9.14146 5.62687C8.86429 5.34406 8.70983 4.96328 8.70983 4.56731C8.70999 4.04689 8.96674 3.58127 9.22447 3.22749C9.49438 2.8571 9.84633 2.50003 10.1932 2.18161C10.4518 1.94423 10.7231 1.7143 10.9735 1.50584C10.8247 1.50183 10.6588 1.49998 10.4754 1.49998Z" fill="#000001"/>
</g>
</svg>
