<svg width="24" height="24" viewBox="0 0 24 24" fill="none" xmlns="http://www.w3.org/2000/svg">
<g id="size=24">
<path id="Path" d="M15.5 1.00037C16.4485 1.00038 17.1292 1.04007 17.6162 1.10486C18.0757 1.16603 18.4548 1.26009 18.7236 1.43201C18.8692 1.52525 19.04 1.67821 19.1289 1.91638C19.2232 2.1695 19.1835 2.40514 19.1143 2.5697C19.051 2.71994 18.9603 2.82263 18.9072 2.87634C18.886 2.89787 18.8663 2.91673 18.8486 2.93201C18.5603 3.21879 18.1434 3.56389 17.7197 3.91443L17.6914 3.93787C17.2471 4.30544 16.7707 4.69979 16.3262 5.10779C15.8696 5.52689 15.4724 5.9371 15.1943 6.31873C14.904 6.71728 14.8135 6.99006 14.8135 7.14783C14.8136 7.23259 14.8466 7.31431 14.9053 7.37537L16.625 9.09509C16.6861 9.15365 16.7678 9.18684 16.8525 9.18689C17.0117 9.18675 17.2851 9.09629 17.6836 8.80798C18.0659 8.53135 18.4774 8.13627 18.8975 7.68201C19.3057 7.24059 19.7001 6.76714 20.0684 6.32556L20.0947 6.29529C20.4444 5.87594 20.7881 5.46333 21.0752 5.17615C21.088 5.161 21.1032 5.1439 21.1201 5.12634C21.1711 5.07344 21.2696 4.98168 21.415 4.91443C21.5735 4.84122 21.8113 4.78909 22.0732 4.87927C22.3207 4.96474 22.4783 5.13958 22.5723 5.28552C22.7448 5.55388 22.8375 5.93347 22.8975 6.38904C22.9612 6.87365 23 7.55242 23 8.50037C22.9998 12.6422 19.6418 16.0002 15.5 16.0004C14.6499 16.0004 13.848 15.8175 13.2725 15.6429C13.0889 15.5873 12.9246 15.5313 12.7861 15.4808L6.18652 22.1107C5.61685 22.6803 4.84368 23.0003 4.03809 23.0004C3.23252 23.0003 2.45936 22.6802 1.88965 22.1107C1.31999 21.5411 1.00013 20.7679 1 19.9623C1 19.1566 1.31995 18.3836 1.88965 17.8138L8.52148 11.2172C8.47086 11.0784 8.4143 10.914 8.3584 10.7299C8.18347 10.1536 8.00006 9.35088 8 8.50037C8 4.35823 11.3579 1.00037 15.5 1.00037ZM15.5 2.50037C12.1863 2.50037 9.5 5.18666 9.5 8.50037C9.50006 9.14952 9.64283 9.79655 9.79395 10.2943C9.86849 10.5398 9.94317 10.7425 9.99805 10.8812C10.0253 10.95 10.0477 11.0032 10.0625 11.0375C10.0698 11.0544 10.0758 11.0672 10.0791 11.0746L10.082 11.0814C10.215 11.3675 10.1551 11.7074 9.93164 11.9301L2.9502 18.8744C2.66206 19.1628 2.5 19.5546 2.5 19.9623C2.50013 20.3701 2.66185 20.7618 2.9502 21.0502C3.2386 21.3384 3.63035 21.5003 4.03809 21.5004C4.44562 21.5003 4.83668 21.3382 5.125 21.0502L12.0732 14.0707C12.2958 13.8471 12.6348 13.7865 12.9209 13.9193L12.9219 13.9203L12.9287 13.9232C12.9362 13.9266 12.9491 13.9326 12.9658 13.9398C13.0001 13.9547 13.0534 13.9771 13.1221 14.0043C13.2606 14.059 13.463 14.1331 13.708 14.2074C14.2049 14.358 14.8509 14.5004 15.5 14.5004C18.8134 14.5002 21.4998 11.8137 21.5 8.50037C21.5 7.86512 21.4817 7.37801 21.4531 7.00818C21.387 7.08698 21.3178 7.17023 21.2461 7.25623L21.2119 7.29724C20.8496 7.73171 20.4337 8.23055 19.999 8.70056C19.553 9.18288 19.0636 9.66089 18.5635 10.0228C18.0801 10.3726 17.4879 10.6868 16.8525 10.6869C16.3741 10.6868 15.914 10.4992 15.5723 10.1644L15.5674 10.1586L13.8359 8.4281C13.501 8.08641 13.3136 7.62627 13.3135 7.14783C13.3135 6.51096 13.6298 5.91874 13.9814 5.43591C14.3455 4.9362 14.8266 4.44746 15.3115 4.00232C15.7849 3.56778 16.2874 3.15208 16.7246 2.79041L16.7637 2.75818C16.8511 2.6858 16.9356 2.61681 17.0156 2.55017C16.6423 2.52017 16.1479 2.50037 15.5 2.50037Z" fill="#000001"/>
</g>
</svg>
