<svg width="16" height="16" viewBox="0 0 16 16" fill="none" xmlns="http://www.w3.org/2000/svg">
<g id="size=16">
<path id="Path" d="M10.4753 0C11.1509 0 11.6429 0.0285986 12.0007 0.0761701C12.3315 0.120184 12.6408 0.191033 12.8737 0.339836C13.0011 0.421321 13.1626 0.563288 13.2477 0.790998C13.3382 1.03369 13.2993 1.25863 13.2341 1.41403C13.1805 1.54135 13.0964 1.65586 12.9929 1.74703C12.7332 2.00423 12.4461 2.23402 12.1648 2.46674C11.8499 2.72723 11.5171 3.00208 11.2078 3.28606C10.8888 3.57878 10.6204 3.85854 10.4363 4.11123C10.2411 4.37933 10.21 4.52505 10.2097 4.56728C10.2097 4.5702 10.2109 4.57376 10.2127 4.57607L11.4236 5.78698C11.4258 5.7889 11.4294 5.78984 11.4324 5.78991C11.4754 5.78981 11.622 5.75916 11.8913 5.56433C12.1444 5.38117 12.4241 5.11398 12.7175 4.79677C13.0017 4.48947 13.2768 4.1586 13.5378 3.84562C13.7709 3.56603 14.0004 3.28167 14.2575 3.02337C14.3428 2.92487 14.4486 2.8438 14.567 2.789C14.7163 2.72002 14.9441 2.66924 15.1959 2.7558C15.4334 2.83761 15.5802 3.00364 15.6627 3.13176C15.8126 3.36471 15.8823 3.67452 15.9254 4.00186C15.9722 4.35786 15.9996 4.84894 15.9996 5.52429C15.9996 8.57524 13.5263 11.0486 10.4753 11.0486C9.8445 11.0485 9.25432 10.9129 8.83574 10.7859C8.75668 10.7619 8.68223 10.7378 8.61406 10.7146L4.04385 15.3053C3.59969 15.7495 2.99625 15.9996 2.36811 15.9996C1.74021 15.9995 1.13735 15.7503 0.693344 15.3063C0.249489 14.8622 7.27038e-05 14.2594 0 13.6315C0.000103605 13.0037 0.249454 12.4008 0.693344 11.9568L0.695297 11.9558L5.28601 7.3885C5.2626 7.31988 5.23792 7.2445 5.21375 7.16488C5.08657 6.74578 4.95106 6.1551 4.95106 5.52429C4.95127 2.47363 7.42468 0.000204517 10.4753 0ZM10.4753 1.49997C8.25309 1.50017 6.45124 3.30204 6.45102 5.52429C6.45103 5.95386 6.54589 6.38873 6.64926 6.72934C6.70345 6.90784 6.76639 7.08489 6.84164 7.25569L6.84262 7.25765C6.97577 7.54382 6.91521 7.88346 6.69125 8.10626L1.75484 13.0173C1.59236 13.1801 1.50007 13.4018 1.49997 13.6315C1.50004 13.8616 1.59131 14.083 1.75387 14.2458C1.91658 14.4085 2.13802 14.4995 2.36811 14.4997C2.59822 14.4997 2.81953 14.4083 2.98235 14.2458L7.8963 9.30936C8.11846 9.08623 8.45628 9.02617 8.74199 9.15799C8.91201 9.23672 9.0922 9.29605 9.27127 9.35037C9.61118 9.45348 10.0455 9.54855 10.4753 9.54861C12.6979 9.54861 14.4997 7.74683 14.4997 5.52429C14.4997 5.34689 14.4975 5.18573 14.4938 5.0409C14.2851 5.28961 14.0564 5.55859 13.819 5.8153C13.4997 6.16055 13.1421 6.51067 12.7712 6.77914C12.4169 7.03554 11.9514 7.28981 11.4324 7.28987C11.0365 7.28978 10.6555 7.13535 10.3728 6.85824L9.14139 5.62682C8.86445 5.34405 8.70976 4.96307 8.70976 4.56728C8.70997 4.04692 8.9667 3.58121 9.2244 3.22747C9.49433 2.85699 9.84619 2.50008 10.1931 2.18159C10.4518 1.94413 10.7229 1.71437 10.9734 1.50582C10.8247 1.50183 10.6587 1.49997 10.4753 1.49997Z" fill="#000001"/>
</g>
</svg>
