<svg width="24" height="24" viewBox="0 0 24 24" fill="none" xmlns="http://www.w3.org/2000/svg">
<g id="size=24">
<path id="Path" d="M15.5 0.999634C16.4486 0.999634 17.1292 1.03934 17.6162 1.10413C18.0757 1.16528 18.4547 1.25939 18.7236 1.43127C18.8693 1.52445 19.0399 1.67744 19.1289 1.91565C19.2233 2.16878 19.1834 2.40432 19.1143 2.56897C19.051 2.71916 18.9603 2.82183 18.9072 2.87561C18.886 2.89709 18.8662 2.91602 18.8486 2.93127C18.5603 3.21804 18.1434 3.56319 17.7197 3.9137L17.6914 3.93713C17.2472 4.30467 16.7706 4.69911 16.3262 5.10706C15.8697 5.52608 15.4724 5.93643 15.1943 6.31799C14.9042 6.71627 14.8136 6.98926 14.8135 7.14709C14.8135 7.23189 14.8466 7.31351 14.9053 7.37463L16.625 9.09436C16.6861 9.15314 16.7677 9.18609 16.8525 9.18616C17.0116 9.18616 17.2848 9.09578 17.6836 8.80725C18.0659 8.53062 18.4774 8.13552 18.8975 7.68127C19.3056 7.23989 19.7002 6.76636 20.0684 6.32483L20.0947 6.29456C20.4444 5.87527 20.7881 5.46255 21.0752 5.17542C21.088 5.16032 21.1033 5.1431 21.1201 5.12561C21.1711 5.07269 21.2698 4.98088 21.415 4.9137C21.5735 4.84049 21.8113 4.78843 22.0732 4.87854C22.3208 4.96389 22.4782 5.13881 22.5723 5.28479C22.7449 5.55309 22.8375 5.93265 22.8975 6.38831C22.9612 6.87288 23 7.5516 23 8.49963C23 12.6417 19.6421 15.9996 15.5 15.9996C14.6497 15.9996 13.8481 15.8168 13.2725 15.6422C13.0888 15.5865 12.9246 15.5306 12.7861 15.4801L6.18652 22.11C5.61676 22.6797 4.84381 22.9996 4.03809 22.9996C3.23237 22.9996 2.45938 22.6797 1.88965 22.11C1.32004 21.5403 1.00003 20.7672 1 19.9615C1.0001 19.156 1.32004 18.3828 1.88965 17.8131L8.52148 11.2164C8.47085 11.0776 8.4143 10.9133 8.3584 10.7291C8.18347 10.1528 8.00001 9.35011 8 8.49963C8.00021 4.35769 11.358 0.999664 15.5 0.999634ZM15.5 2.49963C12.1864 2.49966 9.50021 5.18612 9.5 8.49963C9.50001 9.14876 9.64285 9.79577 9.79395 10.2936C9.86847 10.539 9.94314 10.7417 9.99805 10.8805C10.0253 10.9493 10.0476 11.0024 10.0625 11.0367C10.0698 11.0537 10.0757 11.0663 10.0791 11.0739L10.082 11.0807C10.2153 11.3668 10.1551 11.7065 9.93164 11.9293L2.9502 18.8737C2.66214 19.162 2.5001 19.554 2.5 19.9615C2.50003 20.3694 2.66189 20.761 2.9502 21.0494C3.23862 21.3379 3.63019 21.4996 4.03809 21.4996C4.44576 21.4996 4.83659 21.3375 5.125 21.0494L12.0732 14.0699C12.2958 13.8465 12.6349 13.7859 12.9209 13.9186L12.9219 13.9196L12.9287 13.9225C12.9361 13.9258 12.9488 13.9317 12.9658 13.9391C13.0001 13.9539 13.0532 13.9763 13.1221 14.0035C13.2605 14.0583 13.4628 14.1323 13.708 14.2067C14.2049 14.3574 14.8507 14.4996 15.5 14.4996C18.8137 14.4996 21.5 11.8133 21.5 8.49963C21.5 7.86434 21.4817 7.37725 21.4531 7.00745C21.387 7.0862 21.3178 7.16955 21.2461 7.25549L21.2119 7.29651C20.8497 7.73094 20.4336 8.22986 19.999 8.69983C19.553 9.18213 19.0636 9.66016 18.5635 10.0221C18.08 10.372 17.488 10.6862 16.8525 10.6862C16.374 10.6861 15.914 10.4987 15.5723 10.1637L15.5674 10.1578L13.8359 8.42737C13.5011 8.08561 13.3135 7.62558 13.3135 7.14709C13.3136 6.51034 13.6298 5.91792 13.9814 5.43518C14.3455 4.93554 14.8267 4.44666 15.3115 4.00159C15.7849 3.5671 16.2875 3.15131 16.7246 2.78967L16.7637 2.75745C16.8511 2.68511 16.9356 2.61605 17.0156 2.54944C16.6422 2.51944 16.148 2.49963 15.5 2.49963Z" fill="#000001"/>
</g>
</svg>
