<svg width="16" height="16" viewBox="0 0 16 16" fill="none" xmlns="http://www.w3.org/2000/svg">
<g id="size=16">
<path id="Path" fill-rule="evenodd" clip-rule="evenodd" d="M11.7201 3.22022C12.013 2.92769 12.4879 2.92745 12.7806 3.22022C13.071 3.51318 13.0724 3.98863 12.7806 4.28077L9.06091 8.00049L12.7806 11.7202C13.071 12.0132 13.0724 12.4886 12.7806 12.7808C12.4885 13.0727 12.0131 13.0712 11.7201 12.7808L8.00036 9.06104L4.28064 12.7808C3.98852 13.0727 3.51313 13.0712 3.22009 12.7808C2.92724 12.4879 2.92734 12.0131 3.22009 11.7202L6.93982 8.00049L3.22009 4.28077C2.92724 3.98792 2.92733 3.51312 3.22009 3.22022C3.51301 2.92769 3.98787 2.92745 4.28064 3.22022L8.00036 6.93995L11.7201 3.22022Z" fill="#000001"/>
</g>
</svg>
