<svg width="16" height="16" viewBox="0 0 16 16" fill="none" xmlns="http://www.w3.org/2000/svg">
<g id="size=16">
<path id="Path" fill-rule="evenodd" clip-rule="evenodd" d="M11.7201 3.22024C12.013 2.92785 12.4879 2.92752 12.7806 3.22024C13.0711 3.51316 13.0723 3.98862 12.7806 4.28079L9.06091 8.00052L12.7806 11.7202C13.0711 12.0132 13.0723 12.4886 12.7806 12.7808C12.4885 13.0728 12.0131 13.0714 11.7201 12.7808L8.00037 9.06106L4.28064 12.7808C3.9885 13.0728 3.51313 13.0714 3.22009 12.7808C2.92724 12.4879 2.92733 12.0131 3.22009 11.7202L6.93982 8.00052L3.22009 4.28079C2.92724 3.98794 2.92733 3.51315 3.22009 3.22024C3.51303 2.92785 3.98791 2.92752 4.28064 3.22024L8.00037 6.93997L11.7201 3.22024Z" fill="#000001"/>
</g>
</svg>
