<svg width="16" height="16" viewBox="0 0 16 16" fill="none" xmlns="http://www.w3.org/2000/svg">
<g id="size=16">
<path id="Path" fill-rule="evenodd" clip-rule="evenodd" d="M11.7195 3.22031C12.0124 2.92778 12.4873 2.92754 12.78 3.22031C13.0706 3.51326 13.0718 3.98868 12.78 4.28086L9.06031 8.00058L12.78 11.7203C13.0706 12.0133 13.0718 12.4887 12.78 12.7809C12.4879 13.0726 12.0124 13.0714 11.7195 12.7809L7.99976 9.06113L4.28004 12.7809C3.98786 13.0726 3.51244 13.0714 3.21949 12.7809C2.92672 12.4881 2.92696 12.0132 3.21949 11.7203L6.93922 8.00058L3.21949 4.28086C2.92672 3.98808 2.92696 3.51323 3.21949 3.22031C3.51241 2.92779 3.98727 2.92754 4.28004 3.22031L7.99976 6.94004L11.7195 3.22031Z" fill="#000001"/>
</g>
</svg>
