<svg width="24" height="24" viewBox="0 0 24 24" fill="none" xmlns="http://www.w3.org/2000/svg">
<g id="size=24">
<path id="Path" fill-rule="evenodd" clip-rule="evenodd" d="M17.7213 5.2209C18.0143 4.92866 18.4892 4.92822 18.7819 5.2209C19.0718 5.5138 19.0732 5.98943 18.7819 6.28145L13.0621 12.0012L18.7819 17.7209C19.0718 18.0138 19.0732 18.4894 18.7819 18.7814C18.4899 19.0733 18.0144 19.0715 17.7213 18.7814L12.0016 13.0617L6.28186 18.7814C5.98988 19.0733 5.51438 19.0715 5.22131 18.7814C4.92846 18.4886 4.92856 18.0138 5.22131 17.7209L10.941 12.0012L5.22131 6.28145C4.92846 5.9886 4.92856 5.51381 5.22131 5.2209C5.51425 4.92866 5.98918 4.92823 6.28186 5.2209L12.0016 10.9406L17.7213 5.2209Z" fill="#000001"/>
</g>
</svg>
