<svg width="24" height="24" viewBox="0 0 24 24" fill="none" xmlns="http://www.w3.org/2000/svg">
<g id="size=24">
<path id="Path" fill-rule="evenodd" clip-rule="evenodd" d="M17.7204 5.22017C18.0132 4.92802 18.4882 4.92788 18.7809 5.22017C19.0712 5.51306 19.0724 5.98858 18.7809 6.28072L13.0612 12.0004L18.7809 17.7202C19.0712 18.0131 19.0724 18.4886 18.7809 18.7807C18.4888 19.0727 18.0134 19.0711 17.7204 18.7807L12.0006 13.061L6.28092 18.7807C5.98883 19.0727 5.51342 19.0711 5.22038 18.7807C4.92793 18.4878 4.92776 18.0129 5.22038 17.7202L10.9401 12.0004L5.22038 6.28072C4.92793 5.98784 4.92776 5.51294 5.22038 5.22017C5.51319 4.92802 5.9882 4.92788 6.28092 5.22017L12.0006 10.9399L17.7204 5.22017Z" fill="#000001"/>
</g>
</svg>
