<svg width="24" height="24" viewBox="0 0 24 24" fill="none" xmlns="http://www.w3.org/2000/svg">
<g id="size=24">
<path id="Path" d="M12 1.25C17.9371 1.25 22.75 6.06294 22.75 12C22.75 17.9371 17.9371 22.75 12 22.75C6.06294 22.75 1.25 17.9371 1.25 12C1.25 6.06294 6.06294 1.25 12 1.25ZM12 2.75C6.89137 2.75 2.75 6.89137 2.75 12C2.75 17.1086 6.89137 21.25 12 21.25C17.1086 21.25 21.25 17.1086 21.25 12C21.25 6.89137 17.1086 2.75 12 2.75ZM15.7197 7.21973C16.0126 6.92683 16.4874 6.92683 16.7803 7.21973C17.0732 7.51262 17.0732 7.98738 16.7803 8.28027L13.0605 12L16.7803 15.7197C17.0732 16.0126 17.0732 16.4874 16.7803 16.7803C16.4874 17.0732 16.0126 17.0732 15.7197 16.7803L12 13.0605L8.28027 16.7803C7.98738 17.0732 7.51262 17.0732 7.21973 16.7803C6.92683 16.4874 6.92683 16.0126 7.21973 15.7197L10.9395 12L7.21973 8.28027C6.92683 7.98738 6.92683 7.51262 7.21973 7.21973C7.51262 6.92683 7.98738 6.92683 8.28027 7.21973L12 10.9395L15.7197 7.21973Z" fill="#000001"/>
</g>
</svg>
