<svg width="16" height="16" viewBox="0 0 16 16" fill="none" xmlns="http://www.w3.org/2000/svg">
<g id="size=16">
<path id="Path" d="M8 0.25C12.2802 0.25 15.75 3.71979 15.75 8C15.75 12.2802 12.2802 15.75 8 15.75C3.71979 15.75 0.25 12.2802 0.25 8C0.25 3.71979 3.71979 0.25 8 0.25ZM11.7803 4.21973C11.4874 3.92683 11.0126 3.92683 10.7197 4.21973L8 6.93945L5.28027 4.21973C4.98738 3.92683 4.51262 3.92683 4.21973 4.21973C3.92683 4.51262 3.92683 4.98738 4.21973 5.28027L6.93945 8L4.21973 10.7197C3.92683 11.0126 3.92683 11.4874 4.21973 11.7803C4.51262 12.0732 4.98738 12.0732 5.28027 11.7803L8 9.06055L10.7197 11.7803C11.0126 12.0732 11.4874 12.0732 11.7803 11.7803C12.0732 11.4874 12.0732 11.0126 11.7803 10.7197L9.06055 8L11.7803 5.28027C12.0732 4.98738 12.0732 4.51262 11.7803 4.21973Z" fill="#000001"/>
</g>
</svg>
