<svg width="16" height="16" viewBox="0 0 16 16" fill="none" xmlns="http://www.w3.org/2000/svg">
<g id="size=16">
<path id="Path" d="M8 0.25C12.2802 0.25 15.75 3.71979 15.75 8C15.75 12.2802 12.2802 15.75 8 15.75C3.71979 15.75 0.25 12.2802 0.25 8C0.25 3.71979 3.71979 0.25 8 0.25ZM8 1.75C4.54822 1.75 1.75 4.54822 1.75 8C1.75 11.4518 4.54822 14.25 8 14.25C11.4518 14.25 14.25 11.4518 14.25 8C14.25 4.54822 11.4518 1.75 8 1.75ZM10.2197 4.71973C10.5126 4.42683 10.9874 4.42683 11.2803 4.71973C11.5732 5.01262 11.5732 5.48738 11.2803 5.78027L9.06055 8L11.2803 10.2197C11.5732 10.5126 11.5732 10.9874 11.2803 11.2803C10.9874 11.5732 10.5126 11.5732 10.2197 11.2803L8 9.06055L5.78027 11.2803C5.48738 11.5732 5.01262 11.5732 4.71973 11.2803C4.42683 10.9874 4.42683 10.5126 4.71973 10.2197L6.93945 8L4.71973 5.78027C4.42683 5.48738 4.42683 5.01262 4.71973 4.71973C5.01262 4.42683 5.48738 4.42683 5.78027 4.71973L8 6.93945L10.2197 4.71973Z" fill="#000001"/>
</g>
</svg>
