<svg width="24" height="24" viewBox="0 0 24 24" fill="none" xmlns="http://www.w3.org/2000/svg">
<g id="size=24">
<g id="Path">
<path d="M15.7803 8.21946C16.0732 8.51235 16.0732 8.98722 15.7803 9.28012L13.0606 11.9998L15.7803 14.7195C16.0732 15.0123 16.0732 15.4872 15.7803 15.7801C15.4874 16.073 15.0125 16.073 14.7196 15.7801L11.9999 13.0604L9.28028 15.7801C8.98738 16.073 8.51251 16.073 8.21962 15.7801C7.92672 15.4872 7.92672 15.0123 8.21962 14.7195L10.9393 11.9998L8.21962 9.28012C7.92672 8.98722 7.92672 8.51235 8.21962 8.21946C8.51251 7.92656 8.98738 7.92656 9.28028 8.21946L11.9999 10.9391L14.7196 8.21946C15.0125 7.92656 15.4874 7.92656 15.7803 8.21946Z" fill="#000001"/>
<path fill-rule="evenodd" clip-rule="evenodd" d="M1.8837 10.0557L10.0554 1.88407C11.1293 0.81012 12.8705 0.810128 13.9445 1.88409L22.116 10.0558C23.1899 11.1297 23.1899 12.8709 22.1159 13.9448L13.9445 22.1163C12.8705 23.1902 11.1293 23.1902 10.0554 22.1163L1.88373 13.9448C0.809764 12.8709 0.809752 11.1297 1.8837 10.0557ZM11.116 2.94473L2.94436 11.1164C2.4562 11.6046 2.45621 12.396 2.94437 12.8842L11.116 21.0557C11.6042 21.5438 12.3956 21.5438 12.8838 21.0556L21.0553 12.8842C21.5434 12.396 21.5434 11.6046 21.0553 11.1164L12.8838 2.94474C12.3956 2.45658 11.6042 2.45657 11.116 2.94473Z" fill="#000001"/>
</g>
</g>
</svg>
