<svg width="16" height="16" viewBox="0 0 16 16" fill="none" xmlns="http://www.w3.org/2000/svg">
<g id="size=16">
<g id="Union">
<path d="M10.7803 5.21976C11.0732 5.51266 11.0732 5.98753 10.7803 6.28042L9.06065 8.00009L10.7803 9.71976C11.0732 10.0127 11.0732 10.4875 10.7803 10.7804C10.4874 11.0733 10.0126 11.0733 9.71966 10.7804L7.99999 9.06075L6.28032 10.7804C5.98743 11.0733 5.51256 11.0733 5.21966 10.7804C4.92677 10.4875 4.92677 10.0127 5.21966 9.71976L6.93933 8.00009L5.21966 6.28042C4.92677 5.98753 4.92677 5.51266 5.21966 5.21976C5.51256 4.92687 5.98743 4.92687 6.28032 5.21976L7.99999 6.93943L9.71966 5.21976C10.0126 4.92687 10.4874 4.92687 10.7803 5.21976Z" fill="#000001"/>
<path fill-rule="evenodd" clip-rule="evenodd" d="M0.750348 6.40959L6.40718 0.752761C7.28586 -0.125927 8.7105 -0.125919 9.58918 0.752777L15.2459 6.40961C16.1245 7.28829 16.1245 8.7129 15.2459 9.59158L9.58916 15.2483C8.71049 16.127 7.28588 16.127 6.4072 15.2483L0.750366 9.59159C-0.128329 8.71292 -0.128338 7.28828 0.750348 6.40959ZM7.46784 1.81342L1.81101 7.47025C1.51811 7.76315 1.51812 8.23803 1.81102 8.53092L7.46785 14.1876C7.76074 14.4805 8.23561 14.4805 8.5285 14.1876L14.1852 8.53092C14.4781 8.23802 14.4781 7.76315 14.1852 7.47026L8.5285 1.81343C8.23561 1.52053 7.76073 1.52052 7.46784 1.81342Z" fill="#000001"/>
</g>
</g>
</svg>
