<svg width="16" height="16" viewBox="0 0 16 16" fill="none" xmlns="http://www.w3.org/2000/svg">
<g id="size=16">
<g id="Path">
<path d="M10.7803 5.21967C11.0732 5.51256 11.0732 5.98744 10.7803 6.28033L9.06062 8L10.7803 9.71967C11.0732 10.0126 11.0732 10.4874 10.7803 10.7803C10.4874 11.0732 10.0125 11.0732 9.71963 10.7803L7.99996 9.06066L6.28029 10.7803C5.9874 11.0732 5.51253 11.0732 5.21963 10.7803C4.92674 10.4874 4.92674 10.0126 5.21963 9.71967L6.9393 8L5.21963 6.28033C4.92674 5.98744 4.92674 5.51256 5.21963 5.21967C5.51253 4.92678 5.9874 4.92678 6.28029 5.21967L7.99996 6.93934L9.71963 5.21967C10.0125 4.92678 10.4874 4.92678 10.7803 5.21967Z" fill="#000001"/>
<path fill-rule="evenodd" clip-rule="evenodd" d="M0.750318 6.4095L6.40715 0.752669C7.28583 -0.126018 8.71047 -0.126011 9.58914 0.752685L15.2459 6.40952C16.1245 7.2882 16.1245 8.71281 15.2458 9.59148L9.58913 15.2482C8.71046 16.1269 7.28585 16.1269 6.40717 15.2482L0.750336 9.5915C-0.12836 8.71282 -0.128368 7.28819 0.750318 6.4095ZM7.46781 1.81333L1.81098 7.47016C1.51808 7.76306 1.51809 8.23794 1.81098 8.53083L7.46782 14.1875C7.76071 14.4804 8.23558 14.4804 8.52847 14.1875L14.1852 8.53082C14.4781 8.23793 14.4781 7.76306 14.1852 7.47017L8.52847 1.81333C8.23558 1.52044 7.7607 1.52043 7.46781 1.81333Z" fill="#000001"/>
</g>
</g>
</svg>
