<svg width="24" height="24" viewBox="0 0 24 24" fill="none" xmlns="http://www.w3.org/2000/svg">
<g id="size=24">
<path id="Path" fill-rule="evenodd" clip-rule="evenodd" d="M13.9445 1.88409C12.8706 0.810129 11.1294 0.810119 10.0554 1.88407L1.88376 10.0557C0.809813 11.1297 0.809825 12.8709 1.88379 13.9448L10.0554 22.1163C11.1294 23.1902 12.8706 23.1902 13.9445 22.1163L22.116 13.9448C23.1899 12.8709 23.1899 11.1297 22.116 10.0558L13.9445 1.88409ZM8.21961 8.21955C8.5125 7.92665 8.98738 7.92665 9.28027 8.21955L11.9999 10.9392L14.7196 8.21955C15.0125 7.92665 15.4874 7.92665 15.7803 8.21955C16.0732 8.51244 16.0732 8.98731 15.7803 9.28021L13.0606 11.9999L15.7803 14.7195C16.0732 15.0124 16.0732 15.4873 15.7803 15.7802C15.4874 16.0731 15.0125 16.0731 14.7196 15.7802L11.9999 13.0605L9.28027 15.7802C8.98738 16.0731 8.5125 16.0731 8.21961 15.7802C7.92672 15.4873 7.92672 15.0124 8.21961 14.7195L10.9393 11.9999L8.21961 9.28021C7.92672 8.98732 7.92672 8.51244 8.21961 8.21955Z" fill="#000001"/>
</g>
</svg>
