<svg width="24" height="24" viewBox="0 0 24 24" fill="none" xmlns="http://www.w3.org/2000/svg">
<g id="size=24">
<g id="Path">
<path d="M15.7803 8.21946C16.0732 8.51235 16.0732 8.98722 15.7803 9.28012L13.0607 11.9998L15.7803 14.7195C16.0732 15.0123 16.0732 15.4872 15.7803 15.7801C15.4874 16.073 15.0126 16.073 14.7197 15.7801L12 13.0604L9.28032 15.7801C8.98743 16.073 8.51256 16.073 8.21966 15.7801C7.92677 15.4872 7.92677 15.0123 8.21966 14.7195L10.9393 11.9998L8.21966 9.28012C7.92677 8.98722 7.92677 8.51235 8.21966 8.21946C8.51256 7.92656 8.98743 7.92656 9.28032 8.21946L12 10.9391L14.7197 8.21946C15.0126 7.92656 15.4874 7.92656 15.7803 8.21946Z" fill="#000001"/>
<path fill-rule="evenodd" clip-rule="evenodd" d="M1.88375 10.0557L10.0554 1.88407C11.1294 0.81012 12.8706 0.810128 13.9445 1.88409L22.116 10.0558C23.1899 11.1297 23.1899 12.8709 22.116 13.9448L13.9445 22.1163C12.8706 23.1902 11.1294 23.1902 10.0554 22.1163L1.88377 13.9448C0.80981 12.8709 0.809798 11.1297 1.88375 10.0557ZM11.1161 2.94473L2.94441 11.1164C2.45625 11.6046 2.45625 12.396 2.94442 12.8842L11.1161 21.0557C11.6042 21.5438 12.3957 21.5438 12.8838 21.0556L21.0553 12.8842C21.5435 12.396 21.5435 11.6046 21.0553 11.1164L12.8838 2.94474C12.3957 2.45658 11.6042 2.45657 11.1161 2.94473Z" fill="#000001"/>
</g>
</g>
</svg>
