<svg width="16" height="16" viewBox="0 0 16 16" fill="none" xmlns="http://www.w3.org/2000/svg">
<g id="size=16">
<path id="Path" fill-rule="evenodd" clip-rule="evenodd" d="M9.16618 0.329711C8.44941 -0.104696 7.55059 -0.104695 6.83382 0.329711L1.58382 3.51153C0.91097 3.91932 0.5 4.64895 0.5 5.43572V10.5641C0.5 11.3509 0.91097 12.0805 1.58382 12.4883L6.83382 15.6701C7.55059 16.1045 8.44941 16.1045 9.16618 15.6701L14.4162 12.4883C15.089 12.0805 15.5 11.3509 15.5 10.5641V5.43573C15.5 4.64895 15.089 3.91932 14.4162 3.51153L9.16618 0.329711ZM5.21967 5.21955C5.51256 4.92665 5.98744 4.92665 6.28033 5.21955L8 6.93922L9.71967 5.21955C10.0126 4.92665 10.4874 4.92665 10.7803 5.21955C11.0732 5.51244 11.0732 5.98731 10.7803 6.28021L9.06066 7.99988L10.7803 9.71955C11.0732 10.0124 11.0732 10.4873 10.7803 10.7802C10.4874 11.0731 10.0126 11.0731 9.71967 10.7802L8 9.06054L6.28033 10.7802C5.98744 11.0731 5.51256 11.0731 5.21967 10.7802C4.92678 10.4873 4.92678 10.0124 5.21967 9.71955L6.93934 7.99988L5.21967 6.28021C4.92678 5.98731 4.92678 5.51244 5.21967 5.21955Z" fill="#000001"/>
</g>
</svg>
