<svg width="24" height="24" viewBox="0 0 24 24" fill="none" xmlns="http://www.w3.org/2000/svg">
<g id="size=24">
<path id="Path" fill-rule="evenodd" clip-rule="evenodd" d="M13.4413 1.00608C12.5574 0.462165 11.4426 0.462164 10.5587 1.00608L2.80873 5.77531C1.99543 6.27581 1.5 7.16241 1.5 8.11737V15.8822C1.5 16.8372 1.99543 17.7238 2.80873 18.2243L10.5587 22.9935C11.4426 23.5374 12.5574 23.5374 13.4413 22.9935L21.1913 18.2243C22.0046 17.7238 22.5 16.8372 22.5 15.8822V8.11737C22.5 7.16241 22.0046 6.27581 21.1913 5.77531L13.4413 1.00608ZM14.7197 8.21943C15.0126 7.92653 15.4874 7.92653 15.7803 8.21943C16.0732 8.51232 16.0732 8.98719 15.7803 9.28009L13.0607 11.9998L15.7803 14.7194C16.0732 15.0123 16.0732 15.4872 15.7803 15.7801C15.4874 16.073 15.0126 16.073 14.7197 15.7801L12 13.0604L9.28033 15.7801C8.98744 16.073 8.51256 16.073 8.21967 15.7801C7.92678 15.4872 7.92678 15.0123 8.21967 14.7194L10.9393 11.9998L8.21967 9.28009C7.92678 8.98719 7.92678 8.51232 8.21967 8.21943C8.51256 7.92653 8.98744 7.92653 9.28033 8.21943L12 10.9391L14.7197 8.21943Z" fill="#000001"/>
</g>
</svg>
