<svg width="24" height="24" viewBox="0 0 24 24" fill="none" xmlns="http://www.w3.org/2000/svg">
<g id="size=24">
<path id="Path" fill-rule="evenodd" clip-rule="evenodd" d="M20.6079 4.76945C21.5502 5.02316 22.2932 5.76616 22.547 6.7085C23 8.43008 23 12.0001 23 12.0001C23 12.0001 23 15.5701 22.547 17.2917C22.2932 18.234 21.5502 18.977 20.6079 19.2307C18.8863 19.6838 12 19.6838 12 19.6838C12 19.6838 5.11367 19.6838 3.39209 19.2307C2.44975 18.977 1.70675 18.234 1.45305 17.2917C1 15.5882 1 12.0001 1 12.0001C1 12.0001 1 8.43008 1.45305 6.7085C1.70675 5.76616 2.44975 5.02316 3.39209 4.76945C5.11367 4.31641 12 4.31641 12 4.31641C12 4.31641 18.8863 4.31641 20.6079 4.76945ZM15.5156 12.0182L9.78906 15.3164V8.7019L15.5156 12.0182Z" fill="#000001"/>
</g>
</svg>
