<svg width="16" height="16" viewBox="0 0 16 16" fill="none" xmlns="http://www.w3.org/2000/svg">
<g id="size=16">
<g id="Group 224">
<path id="background" d="M14.7117 4.63259C14.5502 4.03292 14.0774 3.5601 13.4778 3.39865C12.3822 3.11035 8 3.11035 8 3.11035C8 3.11035 3.61779 3.11035 2.52224 3.39865C1.92257 3.5601 1.44975 4.03292 1.2883 4.63259C1 5.72814 1 7.99997 1 7.99997C1 7.99997 1 10.2833 1.2883 11.3674C1.44975 11.967 1.92257 12.4398 2.52224 12.6013C3.61779 12.8896 8 12.8896 8 12.8896C8 12.8896 12.3822 12.8896 13.4778 12.6013C14.0774 12.4398 14.5502 11.967 14.7117 11.3674C15 10.2718 15 7.99997 15 7.99997C15 7.99997 15 5.72814 14.7117 4.63259Z" fill="#FF0000"/>
<path id="play-button" d="M6.59302 10.1103L10.2372 8.0115L6.59302 5.90112V10.1103Z" fill="white"/>
</g>
</g>
</svg>
