<svg width="24" height="24" viewBox="0 0 24 24" fill="none" xmlns="http://www.w3.org/2000/svg">
<g id="size=24">
<g id="Group 223">
<path id="background" d="M22.547 6.70838C22.2932 5.76604 21.5502 5.02304 20.6079 4.76933C18.8863 4.31628 12 4.31628 12 4.31628C12 4.31628 5.11367 4.31628 3.39209 4.76933C2.44975 5.02304 1.70675 5.76604 1.45305 6.70838C1 8.42996 1 12 1 12C1 12 1 15.5881 1.45305 17.2916C1.70675 18.2339 2.44975 18.9769 3.39209 19.2306C5.11367 19.6837 12 19.6837 12 19.6837C12 19.6837 18.8863 19.6837 20.6079 19.2306C21.5502 18.9769 22.2932 18.2339 22.547 17.2916C23 15.57 23 12 23 12C23 12 23 8.42996 22.547 6.70838Z" fill="#FF0000"/>
<path id="play-button" d="M9.78906 15.3163L15.5156 12.0181L9.78906 8.70178V15.3163Z" fill="white"/>
</g>
</g>
</svg>
