<svg width="16" height="16" viewBox="0 0 16 16" fill="none" xmlns="http://www.w3.org/2000/svg">
<g id="size=16">
<path id="Path" fill-rule="evenodd" clip-rule="evenodd" d="M1.21956 1.21961C1.51246 0.927231 1.98736 0.926977 2.2801 1.21961L14.7801 13.7196C15.0717 14.0124 15.0721 14.4875 14.7801 14.7801C14.4875 15.0725 14.0125 15.0719 13.7195 14.7801L10.8748 11.9344L7.52129 15.7449C7.30643 15.9891 6.95732 16.0664 6.65899 15.9373C6.36047 15.8072 6.17938 15.4986 6.21173 15.1746L6.6629 10.6854L1.61604 9.77329C1.35039 9.7251 1.13098 9.53689 1.04183 9.28208C0.952969 9.02675 1.00784 8.74292 1.18636 8.5399L4.13264 5.19323L1.21956 2.28016C0.926803 1.98729 0.926813 1.51248 1.21956 1.21961ZM3.19026 8.53404L7.61211 9.33286C7.9964 9.40309 8.26437 9.7575 8.22539 10.1463L7.93829 13.0008L9.81132 10.8719L5.19513 6.25573L3.19026 8.53404ZM10.3846 6.32311C10.4526 5.91483 10.8394 5.63827 11.2478 5.70592L14.3728 6.22448C14.6406 6.26955 14.8644 6.45605 14.9558 6.71178C15.0468 6.96799 14.9927 7.25556 14.8133 7.45982L13.5974 8.84068C13.3241 9.15105 12.8497 9.18063 12.5389 8.90806C12.2281 8.63441 12.1979 8.16036 12.4715 7.84947L12.7937 7.48326L11.0017 7.18639C10.5935 7.11849 10.3172 6.73143 10.3846 6.32311ZM8.47832 0.253796C8.70265 -0.000510546 9.07088 -0.0725482 9.3748 0.0780155C9.67775 0.229077 9.84364 0.565322 9.77715 0.897348L9.06035 4.45788C8.97859 4.86318 8.58292 5.12641 8.17754 5.04577C7.77164 4.96409 7.50824 4.5679 7.58965 4.16198L7.75372 3.34851L7.59942 3.52429C7.32613 3.83478 6.85178 3.86413 6.54083 3.59167C6.22999 3.31803 6.19988 2.844 6.47345 2.53308L8.47832 0.253796Z" fill="#000001"/>
</g>
</svg>
