<svg width="16" height="16" viewBox="0 0 16 16" fill="none" xmlns="http://www.w3.org/2000/svg">
<g id="size=16">
<path id="Path" fill-rule="evenodd" clip-rule="evenodd" d="M8.47981 0.254996C8.70401 0.00114109 9.07263 -0.0708553 9.3763 0.0792145C9.67871 0.230392 9.84491 0.566879 9.77864 0.89855L8.88997 5.31652L14.3743 6.2257C14.6418 6.27101 14.867 6.45749 14.9583 6.713C15.0488 6.96883 14.9937 7.25703 14.8148 7.46105L7.52278 15.7462C7.29903 15.9996 6.9306 16.0719 6.62727 15.923C6.32401 15.7723 6.15886 15.4347 6.22493 15.1027L7.1136 10.6857L1.62923 9.77648C1.36149 9.73172 1.13703 9.54362 1.04524 9.2882C0.954174 9.03209 1.0096 8.74547 1.1888 8.54113L8.47981 0.254996ZM3.20735 8.51769L8.12435 9.33214C8.32379 9.36591 8.50346 9.48014 8.61849 9.6466C8.7329 9.81339 8.77626 10.0215 8.73665 10.2198L8.24739 12.6525L12.7952 7.48449L7.87923 6.66906C7.67972 6.6357 7.49946 6.52171 7.38411 6.35558C7.2691 6.1887 7.22641 5.98012 7.26595 5.78136L7.7552 3.34972L3.20735 8.51769Z" fill="#000001"/>
</g>
</svg>
