<svg width="24" height="24" viewBox="0 0 24 24" fill="none" xmlns="http://www.w3.org/2000/svg">
<g id="size=24">
<path id="Path" fill-rule="evenodd" clip-rule="evenodd" d="M13.333 1.06491C13.6393 1.20136 13.8177 1.52447 13.7702 1.85633L12.8522 8.26483L21.3326 9.20454C21.6072 9.23497 21.8428 9.41392 21.9459 9.67027C22.0489 9.92662 22.0027 10.2189 21.8255 10.4309L11.5477 22.7309C11.3328 22.9881 10.9732 23.0715 10.667 22.935C10.3607 22.7986 10.1823 22.4755 10.2298 22.1436L11.1478 15.7351L2.66739 14.7954C2.39279 14.765 2.15715 14.586 2.05411 14.3297C1.95106 14.0733 1.99731 13.7811 2.17447 13.5691L12.4522 1.26908C12.6672 1.01182 13.0268 0.928463 13.333 1.06491ZM4.22163 13.4585L12.0826 14.3295C12.2844 14.3519 12.4686 14.4552 12.5929 14.6157C12.7173 14.7762 12.7712 14.9803 12.7424 15.1813L12.0888 19.744L19.7784 10.5415L11.9174 9.67042C11.7156 9.64805 11.5314 9.54481 11.4071 9.38427C11.2827 9.22374 11.2288 9.01964 11.2576 8.81863L11.9111 4.25598L4.22163 13.4585Z" fill="#000001"/>
</g>
</svg>
