<svg width="24" height="24" viewBox="0 0 24 24" fill="none" xmlns="http://www.w3.org/2000/svg">
<g id="size=24">
<path id="Path" fill-rule="evenodd" clip-rule="evenodd" d="M1.21987 1.21979C1.51278 0.92724 1.98763 0.927046 2.28042 1.21979L16.5597 15.4991C16.57 15.5068 16.582 15.5162 16.5919 15.5245C16.6373 15.5627 16.6791 15.6069 16.713 15.6524L22.7804 21.7198C23.0714 22.0127 23.0724 22.488 22.7804 22.7803C22.4881 23.0723 22.0128 23.0714 21.7199 22.7803L16.1554 17.2169L11.548 22.7315C11.3335 22.9877 10.9727 23.0705 10.6671 22.9356C10.3614 22.7994 10.1829 22.4749 10.2296 22.1436L11.1476 15.7354L2.66713 14.796C2.39344 14.7655 2.15733 14.5852 2.05385 14.3301C1.95088 14.074 1.99809 13.7814 2.17495 13.5694L6.87905 7.93952L1.21987 2.28034C0.927113 1.98754 0.927285 1.5127 1.21987 1.21979ZM4.22182 13.459L12.0822 14.3301C12.2833 14.3529 12.4689 14.4562 12.5929 14.6163C12.7161 14.7765 12.771 14.9816 12.7423 15.1817L12.089 19.7442L15.091 16.1514L7.9435 9.00495L4.22182 13.459ZM14.9728 8.50007L21.3322 9.20514C21.606 9.23617 21.8426 9.41518 21.9455 9.67096C22.0472 9.92663 22.0017 10.2194 21.8253 10.4307L19.256 13.5059C18.9909 13.8228 18.5171 13.8644 18.1994 13.6007C17.8819 13.3351 17.8395 12.8618 18.1046 12.544L19.7785 10.5421L14.8078 9.99128C14.3968 9.94559 14.1011 9.57404 14.1456 9.16315C14.1913 8.75162 14.5613 8.45473 14.9728 8.50007ZM12.4523 1.2696C12.6673 1.01244 13.027 0.929069 13.3331 1.06549C13.6379 1.2025 13.818 1.52553 13.7706 1.85651L13.0636 6.78913C13.0042 7.1976 12.6237 7.48326 12.215 7.42585C11.8056 7.36721 11.5217 6.98647 11.5792 6.57721L11.9113 4.25592L11.0343 5.30573C10.7692 5.62256 10.2954 5.66417 9.97768 5.40046C9.66008 5.13502 9.61794 4.66262 9.88295 4.34479L12.4523 1.2696Z" fill="#000001"/>
</g>
</svg>
