<svg width="16" height="16" viewBox="0 0 16 16" fill="none" xmlns="http://www.w3.org/2000/svg">
<g id="size=16">
<path id="Path" fill-rule="evenodd" clip-rule="evenodd" d="M9.37466 0.0780237C9.67887 0.228776 9.84387 0.565085 9.77692 0.897931L8.88831 5.31557L14.3726 6.22439C14.6414 6.26894 14.8649 6.45578 14.9564 6.71245C15.0479 6.96911 14.993 7.25521 14.813 7.45977L7.52134 15.7455C7.29705 16.0003 6.92951 16.0727 6.6253 15.922C6.32109 15.7712 6.1561 15.4349 6.22305 15.1021L7.11165 10.6844L1.62739 9.77562C1.35857 9.73107 1.13506 9.54423 1.04356 9.28756C0.952057 9.0309 1.00696 8.74479 1.18698 8.54024L8.47862 0.254554C8.70292 -0.000319331 9.07045 -0.0727285 9.37466 0.0780237ZM3.20578 8.51673L8.1226 9.33152C8.32323 9.36477 8.50176 9.47807 8.61727 9.64545C8.73277 9.81283 8.77536 10.0199 8.73525 10.2193L8.24603 12.6515L12.7942 7.48328L7.87737 6.66849C7.67674 6.63524 7.49821 6.52194 7.3827 6.35456C7.26719 6.18718 7.22461 5.98006 7.26471 5.78068L7.75393 3.34855L3.20578 8.51673Z" fill="#000001"/>
</g>
</svg>
