<svg width="16" height="16" viewBox="0 0 16 16" fill="none" xmlns="http://www.w3.org/2000/svg">
<g id="size=16">
<g id="Path">
<path d="M9.77692 0.897931C9.84387 0.565085 9.67887 0.228776 9.37466 0.0780237C9.07045 -0.0727284 8.70292 -0.000319331 8.47862 0.254554L6.47322 2.53335C6.19957 2.8443 6.22981 3.3182 6.54076 3.59185C6.85171 3.86549 7.32562 3.83525 7.59927 3.5243L7.75394 3.34855L7.59016 4.16275C7.50848 4.56882 7.77145 4.96423 8.17753 5.04591C8.58361 5.1276 8.97902 4.86462 9.0607 4.45854L9.77692 0.897931Z" fill="#000001"/>
<path fill-rule="evenodd" clip-rule="evenodd" d="M10.8745 11.9352L7.52134 15.7455C7.30606 15.9901 6.95745 16.0677 6.65871 15.9375C6.35997 15.8073 6.17948 15.4992 6.21209 15.1749L6.66355 10.6861L1.61659 9.77375C1.35037 9.72562 1.13071 9.53786 1.04174 9.28239C0.95276 9.02691 1.00826 8.74332 1.18698 8.54024L4.1325 5.19316L1.21967 2.28032C0.926773 1.98743 0.926773 1.51256 1.21967 1.21967C1.51256 0.926773 1.98743 0.926773 2.28032 1.21967L14.7803 13.7196C15.0732 14.0125 15.0732 14.4874 14.7803 14.7803C14.4874 15.0732 14.0125 15.0732 13.7196 14.7803L10.8745 11.9352ZM5.19532 6.25597L3.1906 8.53399L7.61257 9.33339C7.9977 9.40301 8.26455 9.75707 8.22538 10.1465L7.93827 13.0012L9.81169 10.8724L5.19532 6.25597Z" fill="#000001"/>
<path d="M11.2476 5.70653C10.8389 5.63881 10.4528 5.91519 10.3851 6.32383C10.3173 6.73246 10.5937 7.11863 11.0024 7.18635L12.7942 7.48328L12.4717 7.84976C12.198 8.16071 12.2283 8.63462 12.5392 8.90827C12.8502 9.18191 13.3241 9.15167 13.5977 8.84072L14.813 7.45977C14.993 7.25521 15.0479 6.96911 14.9564 6.71245C14.8649 6.45578 14.6414 6.26894 14.3726 6.22439L11.2476 5.70653Z" fill="#000001"/>
</g>
</g>
</svg>
