<svg width="24" height="24" viewBox="0 0 24 24" fill="none" xmlns="http://www.w3.org/2000/svg">
<g id="size=24">
<path id="Path" fill-rule="evenodd" clip-rule="evenodd" d="M12.4522 1.26857C12.6669 1.01212 13.0273 0.928811 13.333 1.06447C13.6387 1.2009 13.8166 1.52508 13.7696 1.85646L12.8516 8.26466L21.3321 9.20411C21.606 9.2346 21.8421 9.4144 21.9453 9.66993C22.0482 9.92609 22.0021 10.2187 21.8252 10.4307L11.5479 22.7305C11.333 22.9875 10.9731 23.0707 10.667 22.9346C10.3615 22.7979 10.1822 22.4749 10.2295 22.1436L11.1475 15.7354L2.66701 14.7949C2.39296 14.7641 2.15667 14.585 2.05373 14.3291C1.95149 14.0732 1.99713 13.78 2.17385 13.5684L12.4522 1.26857ZM4.2217 13.458L12.0821 14.3291C12.2833 14.3515 12.4685 14.4554 12.5928 14.6152C12.7168 14.7754 12.7706 14.9802 12.7422 15.1807L12.0889 19.7442L19.7783 10.541L11.917 9.66993C11.7157 9.64732 11.5314 9.54388 11.4072 9.3838C11.2835 9.22347 11.2282 9.0189 11.2569 8.81837L11.9112 4.25587L4.2217 13.458Z" fill="#000001"/>
</g>
</svg>
