<svg width="24" height="24" viewBox="0 0 24 24" fill="none" xmlns="http://www.w3.org/2000/svg">
<g id="size=24">
<path id="Path" fill-rule="evenodd" clip-rule="evenodd" d="M13.333 1.06497C13.6393 1.20142 13.8177 1.52453 13.7702 1.85639L12.8522 8.26489L21.3326 9.2046C21.6072 9.23503 21.8428 9.41398 21.9459 9.67033C22.0489 9.92669 22.0027 10.2189 21.8255 10.4309L11.5477 22.7309C11.3328 22.9882 10.9732 23.0716 10.667 22.9351C10.3607 22.7987 10.1823 22.4756 10.2298 22.1437L11.1478 15.7352L2.66739 14.7955C2.39279 14.765 2.15715 14.5861 2.05411 14.3298C1.95106 14.0734 1.99731 13.7812 2.17447 13.5691L12.4522 1.26914C12.6672 1.01188 13.0268 0.928524 13.333 1.06497ZM4.22163 13.4585L12.0826 14.3296C12.2844 14.352 12.4686 14.4552 12.5929 14.6157C12.7173 14.7763 12.7712 14.9804 12.7424 15.1814L12.0888 19.744L19.7784 10.5416L11.9174 9.67048C11.7156 9.64811 11.5314 9.54487 11.4071 9.38433C11.2827 9.2238 11.2288 9.0197 11.2576 8.81869L11.9111 4.25604L4.22163 13.4585Z" fill="#000001"/>
</g>
</svg>
