<svg width="16" height="16" viewBox="0 0 16 16" fill="none" xmlns="http://www.w3.org/2000/svg">
<g id="size=16">
<path id="Path" fill-rule="evenodd" clip-rule="evenodd" d="M8.48042 0.254399C8.70471 0.000709036 9.07331 -0.0715709 9.37691 0.0786177C9.6792 0.229734 9.8453 0.566413 9.77925 0.897954L8.89058 5.31592L14.375 6.2251C14.6423 6.27042 14.8676 6.45707 14.9589 6.71241C15.0494 6.96812 14.9941 7.25643 14.8154 7.46045L7.52339 15.7456C7.29967 15.9993 6.93136 16.0713 6.62788 15.9224C6.32435 15.7717 6.15928 15.4343 6.22554 15.1021L7.11421 10.6851L1.62984 9.77588C1.36189 9.73125 1.13767 9.54318 1.04585 9.2876C0.954875 9.03141 1.01002 8.74482 1.18941 8.54053L8.48042 0.254399ZM3.20796 8.51709L8.12495 9.33155C8.32431 9.36532 8.50408 9.47963 8.61909 9.646C8.73343 9.81268 8.77673 10.021 8.73726 10.2192L8.248 12.6519L12.7959 7.48389L7.87984 6.66846C7.68015 6.6352 7.50015 6.52124 7.38472 6.35498C7.26971 6.18803 7.22692 5.97957 7.26656 5.78077L7.75581 3.34913L3.20796 8.51709Z" fill="#000001"/>
</g>
</svg>
