<svg width="16" height="16" viewBox="0 0 16 16" fill="none" xmlns="http://www.w3.org/2000/svg">
<g id="size=16">
<g id="Union">
<path d="M9.77695 0.897934C9.8439 0.565087 9.67891 0.228777 9.3747 0.078024C9.07049 -0.0727287 8.70295 -0.000319332 8.47865 0.254555L6.47324 2.53336C6.1996 2.84431 6.22984 3.31822 6.54079 3.59186C6.85174 3.86551 7.32565 3.83527 7.5993 3.52432L7.75396 3.34856L7.59019 4.16276C7.50851 4.56884 7.77148 4.96425 8.17756 5.04593C8.58364 5.12762 8.97905 4.86464 9.06073 4.45856L9.77695 0.897934Z" fill="#000001"/>
<path fill-rule="evenodd" clip-rule="evenodd" d="M10.8745 11.9352L7.52137 15.7455C7.30609 15.9901 6.95747 16.0678 6.65873 15.9376C6.35999 15.8074 6.1795 15.4992 6.21211 15.175L6.66357 10.6862L1.61659 9.77379C1.35038 9.72566 1.13072 9.5379 1.04174 9.28242C0.952763 9.02695 1.00827 8.74335 1.18699 8.54027L4.13252 5.19318L1.21967 2.28033C0.926777 1.98744 0.926777 1.51256 1.21967 1.21967C1.51256 0.926777 1.98744 0.926777 2.28033 1.21967L14.7803 13.7197C15.0732 14.0126 15.0732 14.4874 14.7803 14.7803C14.4874 15.0732 14.0126 15.0732 13.7197 14.7803L10.8745 11.9352ZM5.19534 6.256L3.19061 8.53402L7.6126 9.33343C7.99773 9.40305 8.26458 9.75711 8.22541 10.1465L7.9383 13.0012L9.81173 10.8724L5.19534 6.256Z" fill="#000001"/>
<path d="M11.2476 5.70655C10.839 5.63884 10.4528 5.91521 10.3851 6.32385C10.3174 6.73249 10.5938 7.11866 11.0024 7.18637L12.7942 7.4833L12.4717 7.84979C12.1981 8.16074 12.2283 8.63465 12.5393 8.9083C12.8502 9.18195 13.3241 9.1517 13.5978 8.84075L14.813 7.4598C14.9931 7.25524 15.048 6.96914 14.9565 6.71247C14.865 6.45581 14.6414 6.26896 14.3726 6.22441L11.2476 5.70655Z" fill="#000001"/>
</g>
</g>
</svg>
