<svg width="24" height="24" viewBox="0 0 24 24" fill="none" xmlns="http://www.w3.org/2000/svg">
<g id="size=24">
<path id="Path" d="M10.75 1.99976C15.5824 1.99976 19.4999 5.91737 19.5 10.7498C19.4999 12.8959 18.7277 14.8623 17.4453 16.3845L21.7803 20.7195C22.0732 21.0124 22.0732 21.4871 21.7803 21.78C21.4872 22.071 21.012 22.0723 20.7197 21.78L16.3848 17.4451C14.8628 18.7263 12.8952 19.4998 10.75 19.4998C5.91938 19.4976 2.00012 15.5808 2 10.7498C2.00012 5.91867 5.91938 2.00187 10.75 1.99976ZM10.75 3.49976C6.74781 3.50187 3.50012 6.7471 3.5 10.7498C3.50012 14.7524 6.7478 17.9976 10.75 17.9998C14.754 17.9998 17.9999 14.7537 18 10.7498C17.9999 6.7458 14.754 3.49976 10.75 3.49976ZM14.25 9.99976C14.6641 9.99976 14.9999 10.3356 15 10.7498C14.9999 11.1639 14.6641 11.4998 14.25 11.4998H7.25C6.83765 11.4977 6.50012 11.1626 6.5 10.7498C6.50012 10.337 6.83765 10.0019 7.25 9.99976H14.25Z" fill="#000001"/>
</g>
</svg>
