<svg width="24" height="24" viewBox="0 0 24 24" fill="none" xmlns="http://www.w3.org/2000/svg">
<g id="size=24">
<path id="Path" d="M10.75 1.99988C15.5824 1.99988 19.4999 5.91749 19.5 10.7499C19.4999 12.896 18.7276 14.8625 17.4453 16.3846L21.7803 20.7196C22.0731 21.0125 22.0732 21.4873 21.7803 21.7802C21.4872 22.0711 21.012 22.0724 20.7197 21.7802L16.3848 17.4452C14.8628 18.7265 12.8952 19.4999 10.75 19.4999C5.91936 19.4978 2.00019 15.5809 2 10.7499C2.00012 5.91875 5.91932 2.00192 10.75 1.99988ZM10.75 3.49988C6.74775 3.50192 3.50012 6.74718 3.5 10.7499C3.50019 14.7525 6.74779 17.9978 10.75 17.9999C14.7539 17.9999 17.9998 14.7538 18 10.7499C17.9999 6.74592 14.754 3.49988 10.75 3.49988ZM10.75 6.49988C11.1641 6.49988 11.4999 6.83577 11.5 7.24988V9.99988H14.25C14.6641 9.99988 14.9999 10.3358 15 10.7499C14.9998 11.1639 14.6641 11.4999 14.25 11.4999H11.5V14.2499C11.4998 14.6639 11.1641 14.9999 10.75 14.9999C10.3376 14.9978 10.0002 14.6627 10 14.2499V11.4999H7.25C6.83763 11.4978 6.50019 11.1627 6.5 10.7499C6.50012 10.337 6.83759 10.0019 7.25 9.99988H10V7.24988C10.0001 6.83703 10.3376 6.50191 10.75 6.49988Z" fill="#000001"/>
</g>
</svg>
