<svg xmlns="http://www.w3.org/2000/svg" width="16" height="16" fill="none" viewBox="0 0 16 16"><path fill="currentColor" fill-rule="evenodd" d="M10.973 1.506a18.57 18.57 0 00-.497-.006A4.024 4.024 0 006.45 5.524c0 .43.095.865.199 1.205.054.18.116.356.192.527v.002a.75.75 0 01-.15.848l-4.937 4.911a.871.871 0 000 1.229.868.868 0 001.227 0L7.896 9.31a.75.75 0 01.847-.151c.17.079.35.139.528.193.34.103.775.198 1.205.198A4.024 4.024 0 0014.5 5.524c0-.177-.002-.338-.006-.483-.208.25-.438.517-.675.774-.32.345-.677.696-1.048.964-.354.257-.82.511-1.339.511-.396 0-.776-.155-1.059-.432L9.142 5.627a1.513 1.513 0 01-.432-1.06c0-.52.256-.985.514-1.34.27-.37.623-.727.97-1.046.258-.237.529-.466.78-.675zm-2.36 9.209l-4.57 4.59a2.37 2.37 0 01-3.35-3.348l.002-.001 4.591-4.568a6.886 6.886 0 01-.072-.223 5.77 5.77 0 01-.263-1.64A5.524 5.524 0 0110.476 0c.675 0 1.167.028 1.525.076.331.044.64.115.873.264a.92.92 0 01.374.45.844.844 0 01-.013.625.922.922 0 01-.241.332c-.26.257-.547.487-.829.72-.315.26-.647.535-.957.82a5.948 5.948 0 00-.771.824c-.197.27-.227.415-.227.457 0 .003 0 .006.003.008l1.211 1.211a.013.013 0 00.008.003c.043 0 .19-.03.46-.226a5.96 5.96 0 00.826-.767c.284-.308.56-.638.82-.951.233-.28.463-.564.72-.822a.927.927 0 01.31-.235.841.841 0 01.628-.033.91.91 0 01.467.376c.15.233.22.543.262.87.047.356.075.847.075 1.522a5.524 5.524 0 01-5.524 5.525c-.631 0-1.221-.136-1.64-.263a6.731 6.731 0 01-.222-.071z" clip-rule="evenodd"/></svg>