<svg viewbox="0 0 24 24" width="24" height="24" fill="black" xmlns="http://www.w3.org/2000/svg">
 <g transform="translate(1.25, 2.25)">
  <path d="M7.75 0C8.07282 0 8.35943 0.206573 8.46151 0.512829L13.75 16.3783L16.0385 9.51283C16.1406 9.20657 16.4272 9 16.75 9L20.75 9C21.1642 9 21.5 9.33579 21.5 9.75C21.5 10.1642 21.1642 10.5 20.75 10.5L17.2906 10.5L14.4615 18.9872C14.3594 19.2934 14.0728 19.5 13.75 19.5C13.4272 19.5 13.1406 19.2934 13.0385 18.9872L7.75 3.12171L5.46151 9.98717C5.35943 10.2934 5.07282 10.5 4.75 10.5L0.75 10.5C0.335786 10.5 0 10.1642 0 9.75C0 9.33579 0.335786 9 0.75 9L4.20943 9L7.03849 0.512829C7.14057 0.206573 7.42718 0 7.75 0Z" fill-rule="EVENODD"></path>
 </g>
</svg>