<svg viewbox="0 0 16 16" width="16" height="16" fill="black" xmlns="http://www.w3.org/2000/svg">
 <g transform="translate(0.25, 0.25)">
  <path d="M7 10.4167C7 10.0024 7.33579 9.66666 7.75 9.66666L7.75667 9.66666C8.17088 9.66666 8.50667 10.0024 8.50667 10.4167C8.50667 10.8309 8.17088 11.1667 7.75667 11.1667L7.75 11.1667C7.33579 11.1667 7 10.8309 7 10.4167Z" fill-rule="NONZERO"></path>
  <path d="M8.5 5.08334C8.5 4.66913 8.16421 4.33334 7.75 4.33334C7.33579 4.33334 7 4.66913 7 5.08334L7 7.75001C7 8.16422 7.33579 8.50001 7.75 8.50001C8.16421 8.50001 8.5 8.16422 8.5 7.75001L8.5 5.08334Z" fill-rule="NONZERO"></path>
  <path d="M4.32167 0.21967C4.46232 0.0790176 4.65309 0 4.852 0L10.648 0C10.8469 0 11.0377 0.0790176 11.1783 0.21967L15.2803 4.32167C15.421 4.46232 15.5 4.65309 15.5 4.852L15.5 10.648C15.5 10.8469 15.421 11.0377 15.2803 11.1783L11.1783 15.2803C11.0377 15.421 10.8469 15.5 10.648 15.5L4.852 15.5C4.65309 15.5 4.46232 15.421 4.32167 15.2803L0.21967 11.1783C0.0790176 11.0377 0 10.8469 0 10.648L0 4.852C0 4.65309 0.0790176 4.46232 0.21967 4.32167L4.32167 0.21967ZM5.16266 1.5L1.5 5.16266L1.5 10.3373L5.16266 14L10.3373 14L14 10.3373L14 5.16266L10.3373 1.5L5.16266 1.5Z" fill-rule="EVENODD"></path>
 </g>
</svg>