<svg width="24" height="24" viewBox="0 0 24 24" fill="none" xmlns="http://www.w3.org/2000/svg">
<path d="M11.25 17C11.25 16.5858 11.5858 16.25 12 16.25H12.01C12.4242 16.25 12.76 16.5858 12.76 17C12.76 17.4142 12.4242 17.75 12.01 17.75H12C11.5858 17.75 11.25 17.4142 11.25 17Z" fill="black"/>
<path d="M12.75 9C12.75 8.58579 12.4142 8.25 12 8.25C11.5858 8.25 11.25 8.58579 11.25 9V13C11.25 13.4142 11.5858 13.75 12 13.75C12.4142 13.75 12.75 13.4142 12.75 13V9Z" fill="black"/>
<path fill-rule="evenodd" clip-rule="evenodd" d="M10.6509 2.5009C11.0627 2.26903 11.5274 2.14722 12 2.14722C12.4727 2.14722 12.9373 2.26903 13.3492 2.5009C13.761 2.73278 14.1061 3.06689 14.3513 3.47099L14.3534 3.47455L22.8296 17.6249C23.0697 18.0407 23.1967 18.5122 23.198 18.9924C23.1994 19.4726 23.075 19.9447 22.8372 20.3619C22.5994 20.7791 22.2565 21.1267 21.8427 21.3702C21.4288 21.6137 20.9584 21.7446 20.4783 21.7499L20.47 21.75L3.52178 21.75C3.04162 21.7447 2.57122 21.6137 2.15738 21.3702C1.74352 21.1267 1.40065 20.7791 1.16286 20.3619C0.925078 19.9447 0.800668 19.4726 0.802013 18.9924C0.803357 18.5122 0.930409 18.0407 1.17053 17.6249L1.17654 17.6145L9.64662 3.47456L9.64877 3.47099C9.89389 3.06689 10.239 2.73278 10.6509 2.5009ZM10.9322 4.24736L10.9313 4.24893L2.46686 18.3796C2.35943 18.5675 2.30261 18.7801 2.30201 18.9966C2.3014 19.2148 2.35795 19.4295 2.46603 19.6191C2.57412 19.8087 2.72997 19.9667 2.91808 20.0774C3.10514 20.1875 3.31762 20.2469 3.53459 20.25H20.4655C20.6824 20.2469 20.8949 20.1875 21.082 20.0774C21.2701 19.9667 21.4259 19.8087 21.534 19.6191C21.6421 19.4295 21.6986 19.2148 21.698 18.9966C21.6974 18.7801 21.6406 18.5675 21.5332 18.3796L13.0688 4.24893L13.0678 4.24736C12.9565 4.06438 12.7999 3.91308 12.6133 3.80798C12.4261 3.70259 12.2149 3.64722 12 3.64722C11.7852 3.64722 11.574 3.70259 11.3868 3.80798C11.2001 3.91308 11.0436 4.06438 10.9322 4.24736Z" fill="black"/>
</svg>
