<svg width="16" height="16" viewBox="0 0 16 16" fill="none" xmlns="http://www.w3.org/2000/svg">
<path d="M8 4.25C8.41421 4.25 8.75 4.58579 8.75 5V8C8.75 8.41421 8.41421 8.75 8 8.75C7.58579 8.75 7.25 8.41421 7.25 8V5C7.25 4.58579 7.58579 4.25 8 4.25Z" fill="black"/>
<path d="M8 9.91675C7.58579 9.91675 7.25 10.2525 7.25 10.6667C7.25 11.081 7.58579 11.4167 8 11.4167H8.00667C8.42088 11.4167 8.75667 11.081 8.75667 10.6667C8.75667 10.2525 8.42088 9.91675 8.00667 9.91675H8Z" fill="black"/>
<path fill-rule="evenodd" clip-rule="evenodd" d="M0.25 8C0.25 3.71979 3.71979 0.25 8 0.25C12.2802 0.25 15.75 3.71979 15.75 8C15.75 12.2802 12.2802 15.75 8 15.75C3.71979 15.75 0.25 12.2802 0.25 8ZM8 1.75C4.54822 1.75 1.75 4.54822 1.75 8C1.75 11.4518 4.54822 14.25 8 14.25C11.4518 14.25 14.25 11.4518 14.25 8C14.25 4.54822 11.4518 1.75 8 1.75Z" fill="black"/>
</svg>
