<svg width="24" height="24" viewBox="0 0 24 24" fill="none" xmlns="http://www.w3.org/2000/svg">
<path d="M11.25 16C11.25 15.5858 11.5858 15.25 12 15.25H12.01C12.4242 15.25 12.76 15.5858 12.76 16C12.76 16.4142 12.4242 16.75 12.01 16.75H12C11.5858 16.75 11.25 16.4142 11.25 16Z" fill="black"/>
<path d="M12.75 8C12.75 7.58579 12.4142 7.25 12 7.25C11.5858 7.25 11.25 7.58579 11.25 8V12C11.25 12.4142 11.5858 12.75 12 12.75C12.4142 12.75 12.75 12.4142 12.75 12V8Z" fill="black"/>
<path fill-rule="evenodd" clip-rule="evenodd" d="M7.32967 1.46967C7.47032 1.32902 7.66109 1.25 7.86 1.25H16.14C16.3389 1.25 16.5297 1.32902 16.6703 1.46967L22.5303 7.32967C22.671 7.47032 22.75 7.66109 22.75 7.86V16.14C22.75 16.3389 22.671 16.5297 22.5303 16.6703L16.6703 22.5303C16.5297 22.671 16.3389 22.75 16.14 22.75H7.86C7.66109 22.75 7.47032 22.671 7.32967 22.5303L1.46967 16.6703C1.32902 16.5297 1.25 16.3389 1.25 16.14V7.86C1.25 7.66109 1.32902 7.47032 1.46967 7.32967L7.32967 1.46967ZM8.17066 2.75L2.75 8.17066V15.8293L8.17066 21.25H15.8293L21.25 15.8293V8.17066L15.8293 2.75H8.17066Z" fill="black"/>
</svg>
