<svg width="16" height="16" viewBox="0 0 16 16" fill="none" xmlns="http://www.w3.org/2000/svg">
<path d="M7.25 10.6667C7.25 10.2524 7.58579 9.91666 8 9.91666H8.00667C8.42088 9.91666 8.75667 10.2524 8.75667 10.6667C8.75667 11.0809 8.42088 11.4167 8.00667 11.4167H8C7.58579 11.4167 7.25 11.0809 7.25 10.6667Z" fill="black"/>
<path d="M8.75 5.33334C8.75 4.91913 8.41421 4.58334 8 4.58334C7.58579 4.58334 7.25 4.91913 7.25 5.33334V8.00001C7.25 8.41422 7.58579 8.75001 8 8.75001C8.41421 8.75001 8.75 8.41422 8.75 8.00001V5.33334Z" fill="black"/>
<path fill-rule="evenodd" clip-rule="evenodd" d="M4.57167 0.46967C4.71232 0.329018 4.90309 0.25 5.102 0.25H10.898C11.0969 0.25 11.2877 0.329018 11.4283 0.46967L15.5303 4.57167C15.671 4.71232 15.75 4.90309 15.75 5.102V10.898C15.75 11.0969 15.671 11.2877 15.5303 11.4283L11.4283 15.5303C11.2877 15.671 11.0969 15.75 10.898 15.75H5.102C4.90309 15.75 4.71232 15.671 4.57167 15.5303L0.46967 11.4283C0.329018 11.2877 0.25 11.0969 0.25 10.898V5.102C0.25 4.90309 0.329018 4.71232 0.46967 4.57167L4.57167 0.46967ZM5.41266 1.75L1.75 5.41266V10.5873L5.41266 14.25H10.5873L14.25 10.5873V5.41266L10.5873 1.75H5.41266Z" fill="black"/>
</svg>
