<svg viewbox="0 0 24 24" width="24" height="24" fill="black" xmlns="http://www.w3.org/2000/svg">
 <g transform="translate(2.25, 5.25)">
  <path d="M0.75 0C0.335786 0 0 0.335786 0 0.75C0 1.16421 0.335786 1.5 0.75 1.5L18.75 1.5C19.1642 1.5 19.5 1.16421 19.5 0.75C19.5 0.335786 19.1642 0 18.75 0L0.75 0Z" fill-rule="NONZERO"></path>
  <path d="M3.75 4C3.33579 4 3 4.33579 3 4.75C3 5.16421 3.33579 5.5 3.75 5.5L15.75 5.5C16.1642 5.5 16.5 5.16421 16.5 4.75C16.5 4.33579 16.1642 4 15.75 4L3.75 4Z" fill-rule="NONZERO"></path>
  <path d="M0 8.75C0 8.33579 0.335786 8 0.75 8L18.75 8C19.1642 8 19.5 8.33579 19.5 8.75C19.5 9.16421 19.1642 9.5 18.75 9.5L0.75 9.5C0.335786 9.5 0 9.16421 0 8.75Z" fill-rule="NONZERO"></path>
  <path d="M3.75 12C3.33579 12 3 12.3358 3 12.75C3 13.1642 3.33579 13.5 3.75 13.5L15.75 13.5C16.1642 13.5 16.5 13.1642 16.5 12.75C16.5 12.3358 16.1642 12 15.75 12L3.75 12Z" fill-rule="NONZERO"></path>
 </g>
</svg>