<svg viewbox="0 0 24 24" width="24" height="24" fill="black" xmlns="http://www.w3.org/2000/svg">
 <g transform="translate(2.25, 5.25)">
  <path d="M0.75 0C0.335786 0 0 0.335786 0 0.75C0 1.16421 0.335786 1.5 0.75 1.5L18.75 1.5C19.1642 1.5 19.5 1.16421 19.5 0.75C19.5 0.335786 19.1642 0 18.75 0L0.75 0Z" fill-rule="NONZERO"></path>
  <path d="M4.75 4C4.33579 4 4 4.33579 4 4.75C4 5.16421 4.33579 5.5 4.75 5.5L18.75 5.5C19.1642 5.5 19.5 5.16421 19.5 4.75C19.5 4.33579 19.1642 4 18.75 4L4.75 4Z" fill-rule="NONZERO"></path>
  <path d="M0 8.75C0 8.33579 0.335786 8 0.75 8L18.75 8C19.1642 8 19.5 8.33579 19.5 8.75C19.5 9.16421 19.1642 9.5 18.75 9.5L0.75 9.5C0.335786 9.5 0 9.16421 0 8.75Z" fill-rule="NONZERO"></path>
  <path d="M4.75 12C4.33579 12 4 12.3358 4 12.75C4 13.1642 4.33579 13.5 4.75 13.5L18.75 13.5C19.1642 13.5 19.5 13.1642 19.5 12.75C19.5 12.3358 19.1642 12 18.75 12L4.75 12Z" fill-rule="NONZERO"></path>
 </g>
</svg>