<svg width="16" height="16" viewBox="0 0 16 16" fill="none" xmlns="http://www.w3.org/2000/svg">
<path d="M2 2.75C1.58579 2.75 1.25 3.08579 1.25 3.5C1.25 3.91421 1.58579 4.25 2 4.25H14C14.4142 4.25 14.75 3.91421 14.75 3.5C14.75 3.08579 14.4142 2.75 14 2.75H2Z" fill="black"/>
<path d="M4 5.75C3.58579 5.75 3.25 6.08579 3.25 6.5C3.25 6.91421 3.58579 7.25 4 7.25H12C12.4142 7.25 12.75 6.91421 12.75 6.5C12.75 6.08579 12.4142 5.75 12 5.75H4Z" fill="black"/>
<path d="M1.25 9.5C1.25 9.08579 1.58579 8.75 2 8.75H14C14.4142 8.75 14.75 9.08579 14.75 9.5C14.75 9.91421 14.4142 10.25 14 10.25H2C1.58579 10.25 1.25 9.91421 1.25 9.5Z" fill="black"/>
<path d="M4 11.75C3.58579 11.75 3.25 12.0858 3.25 12.5C3.25 12.9142 3.58579 13.25 4 13.25H12C12.4142 13.25 12.75 12.9142 12.75 12.5C12.75 12.0858 12.4142 11.75 12 11.75H4Z" fill="black"/>
</svg>
