<svg viewbox="0 0 16 16" width="16" height="16" fill="black" xmlns="http://www.w3.org/2000/svg">
 <g transform="translate(1.25, 2.75)">
  <path d="M0.75 0C0.335786 0 0 0.335786 0 0.75C0 1.16421 0.335786 1.5 0.75 1.5L12.75 1.5C13.1642 1.5 13.5 1.16421 13.5 0.75C13.5 0.335786 13.1642 0 12.75 0L0.75 0Z" fill-rule="NONZERO"></path>
  <path d="M0.75 3C0.335786 3 0 3.33579 0 3.75C0 4.16421 0.335786 4.5 0.75 4.5L10.0833 4.5C10.4975 4.5 10.8333 4.16421 10.8333 3.75C10.8333 3.33579 10.4975 3 10.0833 3L0.75 3Z" fill-rule="NONZERO"></path>
  <path d="M0 6.75C0 6.33579 0.335786 6 0.75 6L12.75 6C13.1642 6 13.5 6.33579 13.5 6.75C13.5 7.16421 13.1642 7.5 12.75 7.5L0.75 7.5C0.335786 7.5 0 7.16421 0 6.75Z" fill-rule="NONZERO"></path>
  <path d="M0.75 9C0.335786 9 0 9.33579 0 9.75C0 10.1642 0.335786 10.5 0.75 10.5L10.0833 10.5C10.4975 10.5 10.8333 10.1642 10.8333 9.75C10.8333 9.33579 10.4975 9 10.0833 9L0.75 9Z" fill-rule="NONZERO"></path>
 </g>
</svg>