<svg viewbox="0 0 16 16" width="16" height="16" fill="black" xmlns="http://www.w3.org/2000/svg">
 <g transform="translate(0.25, 1.25)">
  <path d="M6.41663 7C6.00241 7 5.66663 7.33579 5.66663 7.75C5.66663 8.16421 6.00241 8.5 6.41663 8.5L9.08329 8.5C9.49751 8.5 9.83329 8.16421 9.83329 7.75C9.83329 7.33579 9.49751 7 9.08329 7L6.41663 7Z" fill-rule="NONZERO"></path>
  <path d="M0 0.75C0 0.335786 0.335786 0 0.75 0L14.75 0C15.1642 0 15.5 0.335786 15.5 0.75L15.5 4.75C15.5 5.16421 15.1642 5.5 14.75 5.5L14.5 5.5L14.5 12.75C14.5 13.1642 14.1642 13.5 13.75 13.5L1.75 13.5C1.33579 13.5 1 13.1642 1 12.75L1 5.5L0.75 5.5C0.335786 5.5 0 5.16421 0 4.75L0 0.75ZM13 12L13 5.5L2.5 5.5L2.5 12L13 12ZM14 4L1.5 4L1.5 1.5L14 1.5L14 4Z" fill-rule="EVENODD"></path>
 </g>
</svg>