<svg viewbox="0 0 24 24" width="24" height="24" fill="black" xmlns="http://www.w3.org/2000/svg">
 <g transform="translate(0.25, 2.25)">
  <path d="M9.75 9C9.33579 9 9 9.33579 9 9.75C9 10.1642 9.33579 10.5 9.75 10.5L13.75 10.5C14.1642 10.5 14.5 10.1642 14.5 9.75C14.5 9.33579 14.1642 9 13.75 9L9.75 9Z" fill-rule="NONZERO"></path>
  <path d="M0 0.75C0 0.335786 0.335786 0 0.75 0L22.75 0C23.1642 0 23.5 0.335786 23.5 0.75L23.5 5.75C23.5 6.16421 23.1642 6.5 22.75 6.5L21.5 6.5L21.5 18.75C21.5 19.1642 21.1642 19.5 20.75 19.5L2.75 19.5C2.33579 19.5 2 19.1642 2 18.75L2 6.5L0.75 6.5C0.335786 6.5 0 6.16421 0 5.75L0 0.75ZM20 18L20 6.5L3.5 6.5L3.5 18L20 18ZM22 5L1.5 5L1.5 1.5L22 1.5L22 5Z" fill-rule="EVENODD"></path>
 </g>
</svg>