<svg width="24" height="24" viewBox="0 0 24 24" fill="none" xmlns="http://www.w3.org/2000/svg">
<path d="M10 11.25C9.58579 11.25 9.25 11.5858 9.25 12C9.25 12.4142 9.58579 12.75 10 12.75H14C14.4142 12.75 14.75 12.4142 14.75 12C14.75 11.5858 14.4142 11.25 14 11.25H10Z" fill="black"/>
<path fill-rule="evenodd" clip-rule="evenodd" d="M0.25 3C0.25 2.58579 0.585786 2.25 1 2.25H23C23.4142 2.25 23.75 2.58579 23.75 3V8C23.75 8.41421 23.4142 8.75 23 8.75H21.75V21C21.75 21.4142 21.4142 21.75 21 21.75H3C2.58579 21.75 2.25 21.4142 2.25 21V8.75H1C0.585786 8.75 0.25 8.41421 0.25 8V3ZM20.25 20.25V8.75H3.75V20.25H20.25ZM22.25 7.25H1.75V3.75H22.25V7.25Z" fill="black"/>
</svg>
