<svg width="16" height="16" viewBox="0 0 16 16" fill="none" xmlns="http://www.w3.org/2000/svg">
<path d="M6.66663 8.25C6.25241 8.25 5.91663 8.58579 5.91663 9C5.91663 9.41421 6.25241 9.75 6.66663 9.75H9.33329C9.74751 9.75 10.0833 9.41421 10.0833 9C10.0833 8.58579 9.74751 8.25 9.33329 8.25H6.66663Z" fill="black"/>
<path fill-rule="evenodd" clip-rule="evenodd" d="M0.25 2C0.25 1.58579 0.585786 1.25 1 1.25H15C15.4142 1.25 15.75 1.58579 15.75 2V6C15.75 6.41421 15.4142 6.75 15 6.75H14.75V14C14.75 14.4142 14.4142 14.75 14 14.75H2C1.58579 14.75 1.25 14.4142 1.25 14V6.75H1C0.585786 6.75 0.25 6.41421 0.25 6V2ZM13.25 13.25V6.75H2.75V13.25H13.25ZM14.25 5.25H1.75V2.75H14.25V5.25Z" fill="black"/>
</svg>
