<svg width="16" height="16" viewBox="0 0 16 16" fill="none" xmlns="http://www.w3.org/2000/svg">
<path d="M4.99045 7.74967C5.29438 7.46825 5.7689 7.4865 6.05032 7.79044L7.25 9.08609V5C7.25 4.58579 7.58579 4.25 8 4.25C8.41421 4.25 8.75 4.58579 8.75 5V9.08609L9.94968 7.79044C10.2311 7.4865 10.7056 7.46825 11.0096 7.74967C11.3135 8.03109 11.3317 8.50561 11.0503 8.80955L8.55254 11.5072C8.41545 11.6564 8.21865 11.75 8 11.75C7.78092 11.75 7.58379 11.6561 7.44666 11.5063L4.94968 8.80955C4.66826 8.50561 4.68651 8.03109 4.99045 7.74967Z" fill="black"/>
<path fill-rule="evenodd" clip-rule="evenodd" d="M0.25 8C0.25 3.71979 3.71979 0.25 8 0.25C12.2802 0.25 15.75 3.71979 15.75 8C15.75 12.2802 12.2802 15.75 8 15.75C3.71979 15.75 0.25 12.2802 0.25 8ZM8 1.75C4.54822 1.75 1.75 4.54822 1.75 8C1.75 11.4518 4.54822 14.25 8 14.25C11.4518 14.25 14.25 11.4518 14.25 8C14.25 4.54822 11.4518 1.75 8 1.75Z" fill="black"/>
</svg>
