<svg width="16" height="16" viewBox="0 0 16 16" fill="none" xmlns="http://www.w3.org/2000/svg">
<path d="M12.6931 3.71291C12.6565 3.62445 12.6022 3.54158 12.5303 3.46967C12.3839 3.32322 12.1919 3.25 12 3.25H5.5C5.08579 3.25 4.75 3.58579 4.75 4C4.75 4.41421 5.08579 4.75 5.5 4.75H10.1893L3.46967 11.4697C3.17678 11.7626 3.17678 12.2374 3.46967 12.5303C3.76256 12.8232 4.23744 12.8232 4.53033 12.5303L11.25 5.81066V10.5C11.25 10.9142 11.5858 11.25 12 11.25C12.4142 11.25 12.75 10.9142 12.75 10.5V4C12.75 3.89831 12.7298 3.80134 12.6931 3.71291Z" fill="black"/>
</svg>
