<svg viewbox="0 0 16 16" width="16" height="16" fill="black" xmlns="http://www.w3.org/2000/svg">
 <g transform="translate(3.25, 3.25)">
  <path d="M1.28033 0.21967C0.987437 -0.0732233 0.512563 -0.0732233 0.21967 0.21967C-0.0732233 0.512563 -0.0732233 0.987437 0.21967 1.28033L6.93934 8L2.25 8C1.83579 8 1.5 8.33579 1.5 8.75C1.5 9.16421 1.83579 9.5 2.25 9.5L8.75 9.5C8.85169 9.5 8.94866 9.47976 9.03709 9.44309C9.12555 9.40649 9.20842 9.35224 9.28033 9.28033C9.42678 9.13388 9.5 8.94194 9.5 8.75L9.5 2.25C9.5 1.83579 9.16421 1.5 8.75 1.5C8.33579 1.5 8 1.83579 8 2.25L8 6.93934L1.28033 0.21967Z" fill-rule="NONZERO"></path>
 </g>
</svg>