<svg viewbox="0 0 24 24" width="24" height="24" fill="black" xmlns="http://www.w3.org/2000/svg">
 <g transform="translate(4.25, 4.25)">
  <path d="M8.5 0.75C8.5 0.335786 8.16421 0 7.75 0C7.33579 0 7 0.335786 7 0.75L7 12.9393L1.28033 7.21967C0.987437 6.92678 0.512563 6.92678 0.21967 7.21967C-0.0732233 7.51256 -0.0732233 7.98744 0.21967 8.28033L7.21967 15.2803C7.51256 15.5732 7.98744 15.5732 8.28033 15.2803L15.2803 8.28033C15.5732 7.98744 15.5732 7.51256 15.2803 7.21967C14.9874 6.92678 14.5126 6.92678 14.2197 7.21967L8.5 12.9393L8.5 0.75Z" fill-rule="NONZERO"></path>
 </g>
</svg>