<svg width="24" height="24" viewBox="0 0 24 24" fill="none" xmlns="http://www.w3.org/2000/svg">
<path d="M11.7129 4.30691C11.6245 4.34351 11.5416 4.39776 11.4697 4.46967L4.46967 11.4697C4.17678 11.7626 4.17678 12.2374 4.46967 12.5303C4.76256 12.8232 5.23744 12.8232 5.53033 12.5303L11.25 6.81066V19C11.25 19.4142 11.5858 19.75 12 19.75C12.4142 19.75 12.75 19.4142 12.75 19V6.81066L18.4697 12.5303C18.7626 12.8232 19.2374 12.8232 19.5303 12.5303C19.8232 12.2374 19.8232 11.7626 19.5303 11.4697L12.5307 4.47004" fill="black"/>
<path d="M12.5287 4.46808C12.3931 4.33329 12.2063 4.25 12 4.25C11.8983 4.25 11.8013 4.27024 11.7129 4.30691" fill="black"/>
</svg>
