<svg width="16" height="16" viewBox="0 0 16 16" fill="none" xmlns="http://www.w3.org/2000/svg">
<path d="M3.71291 3.30691C3.62445 3.34351 3.54158 3.39776 3.46967 3.46967C3.32322 3.61612 3.25 3.80806 3.25 4V10.5C3.25 10.9142 3.58579 11.25 4 11.25C4.41421 11.25 4.75 10.9142 4.75 10.5V5.81066L11.4697 12.5303C11.7626 12.8232 12.2374 12.8232 12.5303 12.5303C12.8232 12.2374 12.8232 11.7626 12.5303 11.4697L5.81066 4.75H10.5C10.9142 4.75 11.25 4.41421 11.25 4C11.25 3.58579 10.9142 3.25 10.5 3.25H4C3.89831 3.25 3.80134 3.27024 3.71291 3.30691Z" fill="black"/>
</svg>
