<svg width="16" height="16" viewBox="0 0 16 16" fill="none" xmlns="http://www.w3.org/2000/svg">
<path d="M4.53033 3.46967C4.23744 3.17678 3.76256 3.17678 3.46967 3.46967C3.17678 3.76256 3.17678 4.23744 3.46967 4.53033L10.1893 11.25H5.5C5.08579 11.25 4.75 11.5858 4.75 12C4.75 12.4142 5.08579 12.75 5.5 12.75H12C12.1017 12.75 12.1987 12.7298 12.2871 12.6931C12.3755 12.6565 12.4584 12.6022 12.5303 12.5303C12.6768 12.3839 12.75 12.1919 12.75 12V5.5C12.75 5.08579 12.4142 4.75 12 4.75C11.5858 4.75 11.25 5.08579 11.25 5.5V10.1893L4.53033 3.46967Z" fill="black"/>
</svg>
