<svg viewbox="0 0 24 24" width="24" height="24" fill="black" xmlns="http://www.w3.org/2000/svg">
 <g transform="translate(6.25, 6.25)">
  <path d="M1.28033 0.21967C0.987437 -0.0732233 0.512563 -0.0732233 0.21967 0.21967C-0.0732233 0.512563 -0.0732233 0.987437 0.21967 1.28033L8.93934 10L0.75 10C0.335786 10 0 10.3358 0 10.75C0 11.1642 0.335786 11.5 0.75 11.5L10.75 11.5C10.8517 11.5 10.9487 11.4798 11.0371 11.4431C11.1235 11.4073 11.2047 11.3547 11.2754 11.2852C11.2787 11.282 11.282 11.2787 11.2852 11.2754C11.3547 11.2047 11.4073 11.1235 11.4431 11.0371C11.4798 10.9487 11.5 10.8517 11.5 10.75L11.5 0.75C11.5 0.335786 11.1642 0 10.75 0C10.3358 0 10 0.335786 10 0.75L10 8.93934L1.28033 0.21967Z" fill-rule="NONZERO"></path>
 </g>
</svg>