<svg viewbox="0 0 16 16" width="16" height="16" fill="black" xmlns="http://www.w3.org/2000/svg">
 <g transform="translate(0.25, 0.25)">
  <path d="M4.74045 7.49967C5.04438 7.21825 5.5189 7.2365 5.80032 7.54044L7 8.83609L7 4.75C7 4.33579 7.33579 4 7.75 4C8.16421 4 8.5 4.33579 8.5 4.75L8.5 8.83609L9.69968 7.54044C9.9811 7.2365 10.4556 7.21825 10.7596 7.49967C11.0635 7.78109 11.0817 8.25561 10.8003 8.55955L8.30254 11.2572C8.16545 11.4064 7.96865 11.5 7.75 11.5C7.53092 11.5 7.33379 11.4061 7.19666 11.2563L4.69968 8.55955C4.41826 8.25561 4.43651 7.78109 4.74045 7.49967Z" fill-rule="NONZERO"></path>
  <path d="M0 7.75C0 3.46979 3.46979 0 7.75 0C12.0302 0 15.5 3.46979 15.5 7.75C15.5 12.0302 12.0302 15.5 7.75 15.5C3.46979 15.5 0 12.0302 0 7.75ZM7.75 1.5C4.29822 1.5 1.5 4.29822 1.5 7.75C1.5 11.2018 4.29822 14 7.75 14C11.2018 14 14 11.2018 14 7.75C14 4.29822 11.2018 1.5 7.75 1.5Z" fill-rule="EVENODD"></path>
 </g>
</svg>