<svg width="16" height="16" viewBox="0 0 16 16" fill="none" xmlns="http://www.w3.org/2000/svg">
<path d="M8.49449 4.4361C8.51394 4.45315 8.53258 4.47128 8.55032 4.49044C8.55059 4.49073 8.55085 4.49101 8.55111 4.4913L11.0503 7.19044C11.3317 7.49438 11.3135 7.9689 11.0096 8.25032C10.7056 8.53174 10.2311 8.51349 9.94968 8.20956L8.75 6.9139V11C8.75 11.4142 8.41421 11.75 8 11.75C7.58579 11.75 7.25 11.4142 7.25 11V6.91391L6.05032 8.20956C5.7689 8.51349 5.29438 8.53174 4.99045 8.25032C4.68651 7.9689 4.66826 7.49438 4.94968 7.19044L7.44745 4.49285C7.58454 4.34357 7.78134 4.25 8 4.25C8 4.25 8 4.25 8 4.25C8.18281 4.25 8.35837 4.31672 8.49449 4.4361Z" fill="black"/>
<path fill-rule="evenodd" clip-rule="evenodd" d="M0.25 8C0.25 3.71979 3.71979 0.25 8 0.25C12.2802 0.25 15.75 3.71979 15.75 8C15.75 12.2802 12.2802 15.75 8 15.75C3.71979 15.75 0.25 12.2802 0.25 8ZM8 1.75C4.54822 1.75 1.75 4.54822 1.75 8C1.75 11.4518 4.54822 14.25 8 14.25C11.4518 14.25 14.25 11.4518 14.25 8C14.25 4.54822 11.4518 1.75 8 1.75Z" fill="black"/>
</svg>
