<svg width="16" height="16" viewBox="0 0 16 16" fill="none" xmlns="http://www.w3.org/2000/svg">
<path d="M8.81867 2.95827C8.51948 2.67181 8.04472 2.68213 7.75826 2.98132C7.4718 3.28051 7.48212 3.75527 7.78131 4.04173L11.1322 7.25H3C2.58579 7.25 2.25 7.58579 2.25 8C2.25 8.41421 2.58579 8.75 3 8.75H11.1322L7.78131 11.9583C7.48212 12.2447 7.4718 12.7195 7.75826 13.0187C8.04472 13.3179 8.51948 13.3282 8.81867 13.0417L13.516 8.54428C13.6601 8.40761 13.75 8.2143 13.75 8C13.75 7.7856 13.66 7.59221 13.5158 7.45552L8.81867 2.95827Z" fill="black"/>
</svg>
