<svg width="16" height="16" viewBox="0 0 16 16" fill="none" xmlns="http://www.w3.org/2000/svg">
<path d="M7.74967 4.99045C8.03109 4.68651 8.50561 4.66826 8.80955 4.94968L11.5063 7.44666C11.6561 7.58379 11.75 7.78092 11.75 8C11.75 8.21865 11.6564 8.41545 11.5072 8.55254L8.80955 11.0503C8.50561 11.3317 8.03109 11.3135 7.74967 11.0096C7.46825 10.7056 7.4865 10.2311 7.79044 9.94968L9.08609 8.75H5C4.58579 8.75 4.25 8.41421 4.25 8C4.25 7.58579 4.58579 7.25 5 7.25H9.08609L7.79044 6.05032C7.4865 5.7689 7.46825 5.29438 7.74967 4.99045Z" fill="black"/>
<path fill-rule="evenodd" clip-rule="evenodd" d="M0.25 8C0.25 3.71979 3.71979 0.25 8 0.25C12.2802 0.25 15.75 3.71979 15.75 8C15.75 12.2802 12.2802 15.75 8 15.75C3.71979 15.75 0.25 12.2802 0.25 8ZM8 1.75C4.54822 1.75 1.75 4.54822 1.75 8C1.75 11.4518 4.54822 14.25 8 14.25C11.4518 14.25 14.25 11.4518 14.25 8C14.25 4.54822 11.4518 1.75 8 1.75Z" fill="black"/>
</svg>
