<svg viewbox="0 0 24 24" width="24" height="24" fill="black" xmlns="http://www.w3.org/2000/svg">
 <g transform="translate(6.25, 6.25)">
  <path d="M2.56066 10L11.2803 1.28033C11.5732 0.987437 11.5732 0.512563 11.2803 0.21967C10.9874 -0.0732233 10.5126 -0.0732233 10.2197 0.21967L1.5 8.93934L1.5 0.75C1.5 0.335786 1.16421 0 0.75 0C0.335786 0 0 0.335786 0 0.75L0 10.75C0 10.8517 0.0202391 10.9487 0.0569091 11.0371C0.093239 11.1249 0.146963 11.2072 0.218082 11.2787L0.21967 11.2803L0.221263 11.2819C0.2928 11.353 0.375106 11.4068 0.462912 11.4431C0.551342 11.4798 0.648308 11.5 0.75 11.5L10.75 11.5C11.1642 11.5 11.5 11.1642 11.5 10.75C11.5 10.3358 11.1642 10 10.75 10L2.56066 10Z" fill-rule="NONZERO"></path>
 </g>
</svg>