<svg width="16" height="16" viewBox="0 0 16 16" fill="none" xmlns="http://www.w3.org/2000/svg">
<path d="M8 2.25C8.21334 2.25 8.40587 2.33907 8.54243 2.48205L13.0417 7.18132C13.3282 7.48051 13.3179 7.95527 13.0187 8.24173C12.7195 8.52819 12.2447 8.51787 11.9583 8.21868L8.75 4.86782V13C8.75 13.4142 8.41421 13.75 8 13.75C7.58579 13.75 7.25 13.4142 7.25 13V4.86782L4.04173 8.21868C3.75527 8.51787 3.28051 8.52819 2.98132 8.24173C2.68213 7.95527 2.67181 7.48051 2.95827 7.18132L7.45702 2.48263C7.59362 2.33931 7.78638 2.25 8 2.25Z" fill="black"/>
</svg>
