<svg width="16" height="16" viewBox="0 0 16 16" fill="none" xmlns="http://www.w3.org/2000/svg">
<path d="M12.5303 4.53033C12.8232 4.23744 12.8232 3.76256 12.5303 3.46967C12.2374 3.17678 11.7626 3.17678 11.4697 3.46967L4.75 10.1893V5.5C4.75 5.08579 4.41421 4.75 4 4.75C3.58579 4.75 3.25 5.08579 3.25 5.5V12C3.25 12.1017 3.27024 12.1987 3.30691 12.2871C3.34351 12.3755 3.39776 12.4584 3.46967 12.5303C3.61612 12.6768 3.80806 12.75 4 12.75H10.5C10.9142 12.75 11.25 12.4142 11.25 12C11.25 11.5858 10.9142 11.25 10.5 11.25H5.81066L12.5303 4.53033Z" fill="black"/>
</svg>
