<svg width="16" height="16" viewBox="0 0 16 16" fill="none" xmlns="http://www.w3.org/2000/svg">
<path d="M8.21868 4.04173C8.51787 3.75527 8.52819 3.28051 8.24173 2.98132C7.95527 2.68213 7.48051 2.67181 7.18132 2.95827L2.48263 7.45702C2.33931 7.59362 2.25 7.78638 2.25 8C2.25 8.21334 2.33907 8.40587 2.48205 8.54243L7.18132 13.0417C7.48051 13.3282 7.95527 13.3179 8.24173 13.0187C8.52819 12.7195 8.51787 12.2447 8.21868 11.9583L4.86782 8.75H13C13.4142 8.75 13.75 8.41421 13.75 8C13.75 7.58579 13.4142 7.25 13 7.25H4.86782L8.21868 4.04173Z" fill="black"/>
</svg>
