<svg width="16" height="16" viewBox="0 0 16 16" fill="none" xmlns="http://www.w3.org/2000/svg">
<path d="M8.75 3C8.75 2.58579 8.41421 2.25 8 2.25C7.58579 2.25 7.25 2.58579 7.25 3V11.1322L4.04173 7.78137C3.75527 7.48218 3.28051 7.47186 2.98132 7.75832C2.68213 8.04478 2.67181 8.51954 2.95827 8.81873L7.45827 13.5187C7.59974 13.6665 7.79543 13.75 8 13.75C8.20457 13.75 8.40026 13.6665 8.54173 13.5187L13.0417 8.81873C13.3282 8.51954 13.3179 8.04478 13.0187 7.75832C12.7195 7.47186 12.2447 7.48218 11.9583 7.78137L8.75 11.1322V3Z" fill="black"/>
</svg>
