<svg width="16" height="16" viewBox="0 0 16 16" fill="none" xmlns="http://www.w3.org/2000/svg">
<path d="M8.25032 4.99045C8.53174 5.29438 8.51349 5.7689 8.20956 6.05032L6.91391 7.25H11C11.4142 7.25 11.75 7.58579 11.75 8C11.75 8.41421 11.4142 8.75 11 8.75H6.9139L8.20956 9.94968C8.51349 10.2311 8.53174 10.7056 8.25032 11.0096C7.9689 11.3135 7.49438 11.3317 7.19044 11.0503L4.49044 8.55032C4.33714 8.40838 4.25 8.20893 4.25 8C4.25 7.79108 4.33714 7.59163 4.49044 7.44968L7.19044 4.94968C7.49438 4.66826 7.9689 4.68651 8.25032 4.99045Z" fill="black"/>
<path fill-rule="evenodd" clip-rule="evenodd" d="M0.25 8C0.25 3.71979 3.71979 0.25 8 0.25C12.2802 0.25 15.75 3.71979 15.75 8C15.75 12.2802 12.2802 15.75 8 15.75C3.71979 15.75 0.25 12.2802 0.25 8ZM8 1.75C4.54822 1.75 1.75 4.54822 1.75 8C1.75 11.4518 4.54822 14.25 8 14.25C11.4518 14.25 14.25 11.4518 14.25 8C14.25 4.54822 11.4518 1.75 8 1.75Z" fill="black"/>
</svg>
