<svg width="24" height="24" viewBox="0 0 24 24" fill="none" xmlns="http://www.w3.org/2000/svg">
<path d="M6.71291 6.30691C6.62445 6.34351 6.54158 6.39776 6.46967 6.46967C6.32322 6.61612 6.25 6.80806 6.25 7V17C6.25 17.4142 6.58579 17.75 7 17.75C7.41421 17.75 7.75 17.4142 7.75 17V8.81066L16.4697 17.5303C16.7626 17.8232 17.2374 17.8232 17.5303 17.5303C17.8232 17.2374 17.8232 16.7626 17.5303 16.4697L8.81066 7.75H17C17.4142 7.75 17.75 7.41421 17.75 7C17.75 6.58579 17.4142 6.25 17 6.25H7C6.89831 6.25 6.80134 6.27024 6.71291 6.30691Z" fill="black"/>
</svg>
