<svg width="24" height="24" viewBox="0 0 24 24" fill="none" xmlns="http://www.w3.org/2000/svg">
<path d="M7.53033 6.46967C7.23744 6.17678 6.76256 6.17678 6.46967 6.46967C6.17678 6.76256 6.17678 7.23744 6.46967 7.53033L15.1893 16.25H7C6.58579 16.25 6.25 16.5858 6.25 17C6.25 17.4142 6.58579 17.75 7 17.75H17C17.1017 17.75 17.1987 17.7298 17.2871 17.6931C17.3735 17.6573 17.4547 17.6047 17.5254 17.5352C17.5287 17.532 17.532 17.5287 17.5352 17.5254C17.6047 17.4547 17.6573 17.3735 17.6931 17.2871C17.7298 17.1987 17.75 17.1017 17.75 17V7C17.75 6.58579 17.4142 6.25 17 6.25C16.5858 6.25 16.25 6.58579 16.25 7V15.1893L7.53033 6.46967Z" fill="black"/>
</svg>
