<svg viewbox="0 0 24 24" width="24" height="24" fill="black" xmlns="http://www.w3.org/2000/svg">
 <g transform="translate(1.25, 1.2506103515625)">
  <path d="M13.1931 0.281303C10.8303 -0.270095 8.35054 -0.0059973 6.15691 1.03065C3.96328 2.0673 2.18484 3.81553 1.11076 5.99109C0.0366868 8.16664 -0.269851 10.6416 0.24099 13.0134C0.751832 15.3853 2.05001 17.5146 3.92444 19.0551C5.79886 20.5956 8.1393 21.4567 10.5652 21.4984C12.9911 21.5401 15.3597 20.76 17.286 19.2848C17.6149 19.033 17.6773 18.5622 17.4255 18.2334C17.1736 17.9045 16.7029 17.8421 16.374 18.0939C14.7165 19.3632 12.6784 20.0345 10.591 19.9986C8.50359 19.9627 6.48972 19.2218 4.87684 17.8962C3.26396 16.5707 2.14693 14.7385 1.70737 12.6976C1.2678 10.6567 1.53157 8.52711 2.45577 6.65512C3.37998 4.78314 4.91026 3.27884 6.79781 2.38684C8.68535 1.49484 10.8191 1.26759 12.8522 1.74205C14.8853 2.21651 16.6981 3.36477 17.9958 5.00012C19.2935 6.63546 19.9999 8.66175 20 10.7494L20 11.7494C20 12.3461 19.763 12.9184 19.341 13.3404C18.919 13.7623 18.3467 13.9994 17.75 13.9994C17.1533 13.9994 16.581 13.7623 16.159 13.3404C15.7371 12.9184 15.5 12.3461 15.5 11.7494L15.5 6.74938C15.5 6.33517 15.1642 5.99938 14.75 5.99938C14.3358 5.99938 14 6.33517 14 6.74938L14 7.28528C13.1504 6.48782 12.0072 5.99939 10.75 5.99939C8.12665 5.99939 6 8.12604 6 10.7494C6 13.3727 8.12665 15.4994 10.75 15.4994C12.283 15.4994 13.6464 14.7731 14.5149 13.6459C14.6751 13.9192 14.8706 14.1732 15.0984 14.401C15.8016 15.1043 16.7554 15.4994 17.75 15.4994C18.7446 15.4994 19.6984 15.1043 20.4017 14.401C21.1049 13.6978 21.5 12.7439 21.5 11.7494L21.5 10.7493C21.4999 8.32309 20.679 5.96825 19.1708 4.0677C17.6626 2.16716 15.5559 0.8327 13.1931 0.281303ZM7.5 10.7494C7.5 8.95446 8.95507 7.49939 10.75 7.49939C12.5449 7.49939 14 8.95446 14 10.7494C14 12.5443 12.5449 13.9994 10.75 13.9994C8.95507 13.9994 7.5 12.5443 7.5 10.7494Z" fill-rule="EVENODD"></path>
 </g>
</svg>