<svg width="16" height="16" viewBox="0 0 16 16" fill="none" xmlns="http://www.w3.org/2000/svg">
<path fill-rule="evenodd" clip-rule="evenodd" d="M9.7613 0.452799C8.05792 0.0552807 6.27015 0.245676 4.6887 0.993028C3.10725 1.74038 1.82511 3.00073 1.05078 4.56915C0.276449 6.13757 0.0554561 7.92181 0.423737 9.63175C0.792018 11.3417 1.72791 12.8768 3.07924 13.9874C4.43057 15.098 6.11786 15.7188 7.86676 15.7489C9.61565 15.7789 11.3233 15.2165 12.712 14.153C13.0409 13.9012 13.1033 13.4304 12.8515 13.1016C12.5996 12.7727 12.1289 12.7103 11.8 12.9621C10.6801 13.8198 9.30294 14.2733 7.89255 14.2491C6.48215 14.2248 5.12143 13.7242 4.03165 12.8285C2.94187 11.9329 2.18711 10.6949 1.89011 9.31593C1.59311 7.93695 1.77133 6.49804 2.39579 5.23319C3.02026 3.96833 4.05423 2.95192 5.3296 2.34922C6.60496 1.74651 8.04671 1.59297 9.4204 1.91355C10.7941 2.23413 12.0189 3.00998 12.8958 4.11494C13.7726 5.2199 14.2499 6.58902 14.25 7.99961V8.69956C14.25 9.0576 14.1078 9.40098 13.8546 9.65416C13.6014 9.90733 13.258 10.0496 12.9 10.0496C12.542 10.0496 12.1986 9.90733 11.9454 9.65416C11.6922 9.40098 11.55 9.0576 11.55 8.69956V5.19956C11.55 4.78535 11.2142 4.44956 10.8 4.44956C10.3858 4.44956 10.05 4.78535 10.05 5.19956V5.47796C9.49076 5.02284 8.77724 4.75 8 4.75C6.20507 4.75 4.75 6.20507 4.75 8C4.75 9.79493 6.20507 11.25 8 11.25C8.97363 11.25 9.84726 10.8219 10.4429 10.1436C10.5643 10.3502 10.7124 10.5424 10.8847 10.7148C11.4192 11.2493 12.1441 11.5496 12.9 11.5496C13.6559 11.5496 14.3808 11.2493 14.9153 10.7148C15.4497 10.1803 15.75 9.45543 15.75 8.69956V7.99951C15.7499 6.25036 15.1581 4.55269 14.0708 3.18253C12.9835 1.81237 11.4647 0.850318 9.7613 0.452799ZM6.25 8C6.25 7.0335 7.0335 6.25 8 6.25C8.9665 6.25 9.75 7.0335 9.75 8C9.75 8.9665 8.9665 9.75 8 9.75C7.0335 9.75 6.25 8.9665 6.25 8Z" fill="black"/>
</svg>
