<svg width="24" height="24" viewBox="0 0 24 24" fill="none" xmlns="http://www.w3.org/2000/svg">
<path d="M11.402 9.07232C10.8205 8.68466 10.0416 9.1015 10.0416 9.80036V14.1994C10.0416 14.8983 10.8205 15.3151 11.402 14.9275L14.7013 12.7279C15.2208 12.3816 15.2208 11.6182 14.7013 11.2719L11.402 9.07232Z" fill="black"/>
<path fill-rule="evenodd" clip-rule="evenodd" d="M12 5.75C8.54822 5.75 5.75 8.54822 5.75 12C5.75 15.4518 8.54822 18.25 12 18.25C15.4518 18.25 18.25 15.4518 18.25 12C18.25 8.54822 15.4518 5.75 12 5.75ZM7.25 12C7.25 9.37665 9.37665 7.25 12 7.25C14.6234 7.25 16.75 9.37665 16.75 12C16.75 14.6234 14.6234 16.75 12 16.75C9.37665 16.75 7.25 14.6234 7.25 12Z" fill="black"/>
<path fill-rule="evenodd" clip-rule="evenodd" d="M11.2999 0.25C10.0573 0.25 9.0499 1.25736 9.0499 2.5V2.91472C8.57405 3.06914 8.11464 3.25985 7.67495 3.48356L7.37811 3.18673C6.49943 2.30805 5.07481 2.30805 4.19613 3.18673L3.18642 4.19644C2.30774 5.07512 2.30774 6.49975 3.18642 7.37843L3.48335 7.67536C3.25973 8.11493 3.06909 8.5742 2.91472 9.0499H2.5C1.25736 9.0499 0.25 10.0573 0.25 11.2999V12.6999C0.25 13.9425 1.25736 14.9499 2.5 14.9499H2.91459C3.06876 15.425 3.25912 15.8838 3.48238 16.3229L3.18521 16.6201C2.30653 17.4988 2.30652 18.9234 3.18521 19.8021L4.19798 20.8149C5.07666 21.6935 6.50128 21.6935 7.37996 20.8149L7.67709 20.5177C8.11613 20.741 8.57483 20.9313 9.0499 21.0855V21.5C9.0499 22.7426 10.0573 23.75 11.2999 23.75H12.6999C13.9425 23.75 14.9499 22.7426 14.9499 21.5V21.0856C15.4257 20.9312 15.8852 20.7405 16.3248 20.5169L16.6214 20.8135C17.5001 21.6921 18.9247 21.6921 19.8034 20.8135L20.8131 19.8037C21.6918 18.9251 21.6918 17.5004 20.8131 16.6218L20.5166 16.3253C20.7404 15.8854 20.9312 15.4259 21.0856 14.9499H21.5C22.7426 14.9499 23.75 13.9425 23.75 12.6999V11.2999C23.75 10.0573 22.7426 9.0499 21.5 9.0499H21.0855C20.9313 8.57483 20.741 8.11613 20.5177 7.67709L20.815 7.37983C21.6937 6.50115 21.6937 5.07653 20.815 4.19785L19.8022 3.18508C18.9235 2.3064 17.4989 2.3064 16.6202 3.18508L16.3229 3.48238C15.8838 3.25912 15.425 3.06876 14.9499 2.91459V2.5C14.9499 1.25736 13.9425 0.25 12.6999 0.25H11.2999ZM10.5499 2.5C10.5499 2.08579 10.8857 1.75 11.2999 1.75H12.6999C13.1141 1.75 13.4499 2.08579 13.4499 2.5V3.47729C13.4499 3.81951 13.6816 4.11833 14.013 4.20362C14.746 4.39226 15.4387 4.68167 16.0757 5.05641C16.3702 5.2297 16.7447 5.18197 16.9863 4.94032L17.6809 4.24574C17.9738 3.95285 18.4487 3.95285 18.7416 4.24574L19.7543 5.25851C20.0472 5.55141 20.0472 6.02628 19.7543 6.31917L19.0598 7.01372C18.8181 7.25537 18.7704 7.62983 18.9437 7.92437C19.3184 8.56126 19.6078 9.25393 19.7965 9.98686C19.8818 10.3183 20.1806 10.5499 20.5228 10.5499H21.5C21.9142 10.5499 22.25 10.8857 22.25 11.2999V12.6999C22.25 13.1141 21.9142 13.4499 21.5 13.4499H20.5229C20.1807 13.4499 19.8819 13.6816 19.7966 14.013C19.6077 14.7467 19.3179 15.4402 18.9426 16.0777C18.7692 16.3723 18.8169 16.7468 19.0586 16.9885L19.7525 17.6824C20.0454 17.9753 20.0454 18.4502 19.7525 18.7431L18.7428 19.7528C18.4499 20.0457 17.975 20.0457 17.6821 19.7528L16.9881 19.0588C16.7464 18.8171 16.3719 18.7694 16.0773 18.9428C15.4399 19.318 14.7466 19.6078 14.013 19.7966C13.6816 19.8819 13.4499 20.1807 13.4499 20.5229V21.5C13.4499 21.9142 13.1141 22.25 12.6999 22.25H11.2999C10.8857 22.25 10.5499 21.9142 10.5499 21.5V20.5228C10.5499 20.1806 10.3183 19.8818 9.98686 19.7965C9.25394 19.6078 8.56126 19.3184 7.92437 18.9437C7.62983 18.7704 7.25537 18.8181 7.01372 19.0598L6.3193 19.7542C6.02641 20.0471 5.55153 20.0471 5.25864 19.7542L4.24586 18.7414C3.95297 18.4485 3.95297 17.9737 4.24587 17.6808L4.94032 16.9863C5.18197 16.7447 5.2297 16.3702 5.05641 16.0757C4.68167 15.4387 4.39226 14.746 4.20362 14.013C4.11833 13.6816 3.81951 13.4499 3.47729 13.4499H2.5C2.08579 13.4499 1.75 13.1141 1.75 12.6999V11.2999C1.75 10.8857 2.08579 10.5499 2.5 10.5499H3.47739C3.8196 10.5499 4.11841 10.3183 4.20372 9.98686C4.39253 9.25336 4.68224 8.56017 5.05739 7.92287C5.23078 7.62831 5.18308 7.25377 4.94139 7.01207L4.24708 6.31776C3.95418 6.02487 3.95418 5.55 4.24708 5.2571L5.25679 4.24739C5.54969 3.9545 6.02456 3.9545 6.31745 4.24739L7.01168 4.94162C7.25339 5.18332 7.62795 5.23102 7.92251 5.0576C8.55991 4.68235 9.25322 4.39256 9.98686 4.20372C10.3183 4.11841 10.5499 3.8196 10.5499 3.47739V2.5Z" fill="black"/>
</svg>
