<svg viewbox="0 0 16 16" width="16" height="16" fill="black" xmlns="http://www.w3.org/2000/svg">
 <g transform="translate(0.25, 0.25)">
  <path d="M7.16603 5.12596C6.93588 4.97254 6.63997 4.95823 6.39611 5.08875C6.15224 5.21926 6 5.4734 6 5.75L6 9.75C6 10.0266 6.15224 10.2807 6.39611 10.4113C6.63997 10.5418 6.93588 10.5275 7.16603 10.374L10.166 8.37404C10.3747 8.23494 10.5 8.00077 10.5 7.75C10.5 7.49924 10.3747 7.26506 10.166 7.12596L7.16603 5.12596Z" fill-rule="NONZERO"></path>
  <path d="M5.6 1.75C5.6 0.783502 6.3835 0 7.35 0L8.15 0C9.1165 0 9.9 0.783503 9.9 1.75L9.9 1.77335C10.0862 1.84032 10.2683 1.91573 10.4459 1.99911L10.465 1.97995C11.1484 1.29654 12.2565 1.29654 12.9399 1.97995L13.5201 2.56016C14.2035 3.24358 14.2035 4.35162 13.5201 5.03504L13.5009 5.05424C13.5842 5.23177 13.6596 5.41382 13.7266 5.59991L13.75 5.59991C14.7165 5.59991 15.5 6.38342 15.5 7.34991L15.5 8.14991C15.5 9.11641 14.7165 9.89991 13.75 9.89991L13.7266 9.89991C13.6594 10.0866 13.5838 10.2692 13.5001 10.4472L13.5191 10.4663C14.2026 11.1497 14.2026 12.2577 13.5191 12.9411L12.9409 13.5194C12.2575 14.2028 11.1494 14.2028 10.466 13.5194L10.4468 13.5003C10.2689 13.5838 10.0865 13.6594 9.9 13.7265L9.9 13.75C9.9 14.7165 9.1165 15.5 8.15 15.5L7.35 15.5C6.3835 15.5 5.6 14.7165 5.6 13.75L5.6 13.7265C5.4139 13.6595 5.23186 13.5841 5.05433 13.5008L5.03481 13.5203C4.35139 14.2037 3.24335 14.2037 2.55994 13.5203L1.97973 12.9401C1.29631 12.2567 1.29631 11.1487 1.97973 10.4652L1.9992 10.4458C1.91582 10.2682 1.84041 10.0861 1.77343 9.89991L1.75 9.89991C0.783502 9.89991 0 9.11641 0 8.14991L0 7.34991C0 6.38341 0.783503 5.59991 1.75 5.59991L1.77343 5.59991C1.84054 5.41341 1.9161 5.23097 1.99966 5.05307L1.98072 5.03413C1.2973 4.35071 1.2973 3.24267 1.98072 2.55925L2.55898 1.98099C3.2424 1.29757 4.35044 1.29757 5.03386 1.98099L5.05267 1.99981C5.23073 1.91615 5.41333 1.84051 5.6 1.77335L5.6 1.75ZM7.35 1.5C7.21193 1.5 7.1 1.61193 7.1 1.75L7.1 2.32634C7.1 2.66855 6.86836 2.96737 6.53695 3.05267C6.09511 3.16639 5.67749 3.34092 5.29345 3.56703C4.99888 3.74046 4.62431 3.69277 4.3826 3.45106L3.9732 3.04165C3.87557 2.94402 3.71727 2.94402 3.61964 3.04165L3.04138 3.61992C2.94375 3.71755 2.94375 3.87584 3.04138 3.97347L3.45088 4.38297C3.69257 4.62466 3.74028 4.99919 3.56689 5.29375C3.34089 5.67769 3.16644 6.09517 3.05275 6.53686C2.96746 6.86827 2.66864 7.09991 2.32643 7.09991L1.75 7.09991C1.61193 7.09991 1.5 7.21184 1.5 7.34991L1.5 8.14991C1.5 8.28798 1.61193 8.39991 1.75 8.39991L2.32643 8.39991C2.66864 8.39991 2.96746 8.63156 3.05275 8.96297C3.16636 9.40435 3.34065 9.82156 3.56642 10.2053C3.73972 10.4998 3.69199 10.8743 3.45034 11.1159L3.04039 11.5259C2.94276 11.6235 2.94275 11.7818 3.04039 11.8794L3.6206 12.4597C3.71823 12.5573 3.87652 12.5573 3.97415 12.4597L4.38414 12.0497C4.62578 11.808 5.00023 11.7603 5.29477 11.9336C5.67846 12.1593 6.09562 12.3336 6.53695 12.4472C6.86836 12.5325 7.1 12.8313 7.1 13.1735L7.1 13.75C7.1 13.8881 7.21193 14 7.35 14L8.15 14C8.28807 14 8.4 13.8881 8.4 13.75L8.4 13.1735C8.4 12.8313 8.63165 12.5325 8.96306 12.4472C9.40474 12.3335 9.82222 12.159 10.2062 11.933C10.5007 11.7596 10.8753 11.8073 11.1169 12.049L11.5267 12.4587C11.6243 12.5564 11.7826 12.5564 11.8802 12.4587L12.4585 11.8805C12.5561 11.7829 12.5561 11.6246 12.4585 11.5269L12.0489 11.1173C11.8071 10.8756 11.7595 10.501 11.9329 10.2065C12.159 9.82242 12.3335 9.4048 12.4472 8.96297C12.5325 8.63156 12.8314 8.39991 13.1736 8.39991L13.75 8.39991C13.8881 8.39991 14 8.28798 14 8.14991L14 7.34991C14 7.21184 13.8881 7.09991 13.75 7.09991L13.1736 7.09991C12.8314 7.09991 12.5325 6.86827 12.4472 6.53686C12.3337 6.09553 12.1594 5.67837 11.9337 5.29469C11.7604 5.00014 11.8081 4.62569 12.0498 4.38405L12.4594 3.97438C12.5571 3.87675 12.5571 3.71845 12.4594 3.62082L11.8792 3.04061C11.7816 2.94298 11.6233 2.94298 11.5257 3.04061L11.116 3.45025C10.8744 3.6919 10.4999 3.73964 10.2054 3.56633C9.82165 3.34056 9.40444 3.16627 8.96306 3.05267C8.63165 2.96737 8.4 2.66855 8.4 2.32634L8.4 1.75C8.4 1.61193 8.28807 1.5 8.15 1.5L7.35 1.5Z" fill-rule="EVENODD"></path>
 </g>
</svg>