<svg width="16" height="16" viewBox="0 0 16 16" fill="none" xmlns="http://www.w3.org/2000/svg">
<path d="M7.41603 5.37596C7.18588 5.22254 6.88997 5.20823 6.64611 5.33875C6.40224 5.46926 6.25 5.7234 6.25 6V10C6.25 10.2766 6.40224 10.5307 6.64611 10.6613C6.88997 10.7918 7.18588 10.7775 7.41603 10.624L10.416 8.62404C10.6247 8.48494 10.75 8.25077 10.75 8C10.75 7.74924 10.6247 7.51506 10.416 7.37596L7.41603 5.37596Z" fill="black"/>
<path fill-rule="evenodd" clip-rule="evenodd" d="M5.85 2C5.85 1.0335 6.6335 0.25 7.6 0.25H8.4C9.3665 0.25 10.15 1.0335 10.15 2V2.02335C10.3362 2.09032 10.5183 2.16573 10.6959 2.24911L10.715 2.22995C11.3984 1.54654 12.5065 1.54654 13.1899 2.22995L13.7701 2.81016C14.4535 3.49358 14.4535 4.60162 13.7701 5.28504L13.7509 5.30424C13.8342 5.48177 13.9096 5.66382 13.9766 5.84991H14C14.9665 5.84991 15.75 6.63342 15.75 7.59991V8.39991C15.75 9.36641 14.9665 10.1499 14 10.1499H13.9766C13.9094 10.3366 13.8338 10.5192 13.7501 10.6972L13.7691 10.7163C14.4526 11.3997 14.4526 12.5077 13.7691 13.1911L13.1909 13.7694C12.5075 14.4528 11.3994 14.4528 10.716 13.7694L10.6968 13.7503C10.5189 13.8338 10.3365 13.9094 10.15 13.9765V14C10.15 14.9665 9.3665 15.75 8.4 15.75H7.6C6.6335 15.75 5.85 14.9665 5.85 14V13.9765C5.6639 13.9095 5.48186 13.8341 5.30433 13.7508L5.28481 13.7703C4.60139 14.4537 3.49335 14.4537 2.80994 13.7703L2.22973 13.1901C1.54631 12.5067 1.54631 11.3987 2.22973 10.7152L2.2492 10.6958C2.16582 10.5182 2.09041 10.3361 2.02343 10.1499H2C1.0335 10.1499 0.25 9.36641 0.25 8.39991V7.59991C0.25 6.63341 1.0335 5.84991 2 5.84991H2.02343C2.09054 5.66341 2.1661 5.48097 2.24966 5.30307L2.23072 5.28413C1.5473 4.60071 1.5473 3.49267 2.23072 2.80925L2.80898 2.23099C3.4924 1.54757 4.60044 1.54757 5.28386 2.23099L5.30267 2.24981C5.48073 2.16615 5.66333 2.09051 5.85 2.02335V2ZM7.6 1.75C7.46193 1.75 7.35 1.86193 7.35 2V2.57634C7.35 2.91855 7.11836 3.21737 6.78695 3.30267C6.34511 3.41639 5.92749 3.59092 5.54345 3.81703C5.24888 3.99046 4.87431 3.94277 4.6326 3.70106L4.2232 3.29165C4.12557 3.19402 3.96727 3.19402 3.86964 3.29165L3.29138 3.86992C3.19375 3.96755 3.19375 4.12584 3.29138 4.22347L3.70088 4.63297C3.94257 4.87466 3.99028 5.24919 3.81689 5.54375C3.59089 5.92769 3.41644 6.34517 3.30275 6.78686C3.21746 7.11827 2.91864 7.34991 2.57643 7.34991H2C1.86193 7.34991 1.75 7.46184 1.75 7.59991V8.39991C1.75 8.53798 1.86193 8.64991 2 8.64991H2.57643C2.91864 8.64991 3.21746 8.88156 3.30275 9.21297C3.41636 9.65435 3.59065 10.0716 3.81642 10.4553C3.98972 10.7498 3.94199 11.1243 3.70034 11.3659L3.29039 11.7759C3.19276 11.8735 3.19275 12.0318 3.29039 12.1294L3.8706 12.7097C3.96823 12.8073 4.12652 12.8073 4.22415 12.7097L4.63414 12.2997C4.87578 12.058 5.25023 12.0103 5.54477 12.1836C5.92846 12.4093 6.34562 12.5836 6.78695 12.6972C7.11836 12.7825 7.35 13.0813 7.35 13.4235V14C7.35 14.1381 7.46193 14.25 7.6 14.25H8.4C8.53807 14.25 8.65 14.1381 8.65 14V13.4235C8.65 13.0813 8.88165 12.7825 9.21306 12.6972C9.65474 12.5835 10.0722 12.409 10.4562 12.183C10.7507 12.0096 11.1253 12.0573 11.3669 12.299L11.7767 12.7087C11.8743 12.8064 12.0326 12.8064 12.1302 12.7087L12.7085 12.1305C12.8061 12.0329 12.8061 11.8746 12.7085 11.7769L12.2989 11.3673C12.0571 11.1256 12.0095 10.751 12.1829 10.4565C12.409 10.0724 12.5835 9.6548 12.6972 9.21297C12.7825 8.88156 13.0814 8.64991 13.4236 8.64991H14C14.1381 8.64991 14.25 8.53798 14.25 8.39991V7.59991C14.25 7.46184 14.1381 7.34991 14 7.34991H13.4236C13.0814 7.34991 12.7825 7.11827 12.6972 6.78686C12.5837 6.34553 12.4094 5.92837 12.1837 5.54469C12.0104 5.25014 12.0581 4.87569 12.2998 4.63405L12.7094 4.22438C12.8071 4.12675 12.8071 3.96845 12.7094 3.87082L12.1292 3.29061C12.0316 3.19298 11.8733 3.19298 11.7757 3.29061L11.366 3.70025C11.1244 3.9419 10.7499 3.98964 10.4554 3.81633C10.0716 3.59056 9.65444 3.41627 9.21306 3.30267C8.88165 3.21737 8.65 2.91855 8.65 2.57634V2C8.65 1.86193 8.53807 1.75 8.4 1.75H7.6Z" fill="black"/>
</svg>
