<svg width="24" height="24" viewBox="0 0 24 24" fill="none" xmlns="http://www.w3.org/2000/svg">
<path fill-rule="evenodd" clip-rule="evenodd" d="M7.40659 14.2427C5.49205 12.8316 4.25 10.5608 4.25 8C4.25 3.71979 7.71979 0.25 12 0.25C16.2802 0.25 19.75 3.71979 19.75 8C19.75 10.5603 18.5085 12.8306 16.5946 14.2418L17.7435 22.9014C17.7814 23.1869 17.6525 23.4688 17.4118 23.6269C17.1711 23.785 16.8611 23.7913 16.6141 23.6432L12 20.8747L7.38589 23.6432C7.13894 23.7913 6.82895 23.785 6.58824 23.6269C6.34753 23.4688 6.21863 23.1868 6.25655 22.9013L7.40659 14.2427ZM5.75 8C5.75 4.54822 8.54822 1.75 12 1.75C15.4518 1.75 18.25 4.54822 18.25 8C18.25 10.1738 17.1403 12.0883 15.4564 13.2081C15.4058 13.2332 15.3586 13.2638 15.3155 13.2991C14.3545 13.9016 13.2179 14.25 12 14.25C8.54822 14.25 5.75 11.4518 5.75 8ZM15.1906 15.0648C14.2176 15.505 13.1374 15.75 12 15.75C10.863 15.75 9.78325 15.5052 8.8105 15.0653L7.94835 21.5564L11.6141 19.3569C11.8517 19.2144 12.1484 19.2144 12.3859 19.3569L16.0519 21.5565L15.1906 15.0648Z" fill="black"/>
</svg>
