<svg viewbox="0 0 16 16" width="16" height="16" fill="black" xmlns="http://www.w3.org/2000/svg">
 <g transform="translate(2.25, 0.25)">
  <path d="M5.75 0C2.57436 0 0 2.57436 0 5.75C0 7.7067 0.977362 9.43512 2.47053 10.4737L2.0046 14.6671C1.97635 14.9213 2.0796 15.1724 2.2785 15.3332C2.4774 15.494 2.74454 15.5423 2.98718 15.4615L5.75001 14.5405L8.51284 15.4615C8.75548 15.5423 9.02261 15.494 9.22152 15.3332C9.42042 15.1724 9.52367 14.9213 9.49542 14.6671L9.02949 10.4737C10.5226 9.43511 11.5 7.70669 11.5 5.75C11.5 2.57436 8.92564 0 5.75 0ZM1.5 5.75C1.5 3.40279 3.40279 1.5 5.75 1.5C8.09721 1.5 10 3.40279 10 5.75C10 8.09721 8.09721 10 5.75 10C3.40279 10 1.5 8.09721 1.5 5.75ZM7.60048 11.1958C7.01979 11.393 6.39739 11.5 5.75 11.5C5.10262 11.5 4.48022 11.393 3.89953 11.1958L3.62487 13.6678L5.51284 13.0384C5.66679 12.9871 5.83323 12.9871 5.98718 13.0384L7.87515 13.6678L7.60048 11.1958Z" fill-rule="EVENODD"></path>
 </g>
</svg>