<svg width="16" height="16" viewBox="0 0 16 16" fill="none" xmlns="http://www.w3.org/2000/svg">
<path d="M12 2.25C12.4142 2.25 12.75 2.58579 12.75 3V13C12.75 13.4142 12.4142 13.75 12 13.75C11.5858 13.75 11.25 13.4142 11.25 13V3C11.25 2.58579 11.5858 2.25 12 2.25Z" fill="black"/>
<path d="M8 6.25C8.41421 6.25 8.75 6.58579 8.75 7V13C8.75 13.4142 8.41421 13.75 8 13.75C7.58579 13.75 7.25 13.4142 7.25 13V7C7.25 6.58579 7.58579 6.25 8 6.25Z" fill="black"/>
<path d="M4.75 10C4.75 9.58579 4.41421 9.25 4 9.25C3.58579 9.25 3.25 9.58579 3.25 10V13C3.25 13.4142 3.58579 13.75 4 13.75C4.41421 13.75 4.75 13.4142 4.75 13V10Z" fill="black"/>
</svg>
