<svg viewbox="0 0 16 16" width="16" height="16" fill="black" xmlns="http://www.w3.org/2000/svg">
 <g transform="translate(0.25, 3.25)">
  <path d="M1.97222 0C0.822899 0 0 0.995504 0 2.08333L0 7.41667C0 8.5045 0.822899 9.5 1.97222 9.5L10.5278 9.5C11.6771 9.5 12.5 8.5045 12.5 7.41667L12.5 2.08333C12.5 0.995504 11.6771 0 10.5278 0L1.97222 0ZM1.5 2.08333C1.5 1.6984 1.77152 1.5 1.97222 1.5L10.5278 1.5C10.7285 1.5 11 1.6984 11 2.08333L11 7.41667C11 7.8016 10.7285 8 10.5278 8L1.97222 8C1.77152 8 1.5 7.8016 1.5 7.41667L1.5 2.08333Z" fill-rule="EVENODD"></path>
  <path d="M15.5 3.75C15.5 3.33579 15.1642 3 14.75 3C14.3358 3 14 3.33579 14 3.75L14 5.75C14 6.16421 14.3358 6.5 14.75 6.5C15.1642 6.5 15.5 6.16421 15.5 5.75L15.5 3.75Z" fill-rule="NONZERO"></path>
 </g>
</svg>