<svg width="24" height="24" viewBox="0 0 24 24" fill="none" xmlns="http://www.w3.org/2000/svg">
<path fill-rule="evenodd" clip-rule="evenodd" d="M3 5.25C1.48122 5.25 0.25 6.48122 0.25 8V16C0.25 17.5188 1.48122 18.75 3 18.75H17C18.5188 18.75 19.75 17.5188 19.75 16V8C19.75 6.48122 18.5188 5.25 17 5.25H3ZM1.75 8C1.75 7.30964 2.30964 6.75 3 6.75H17C17.6904 6.75 18.25 7.30964 18.25 8V16C18.25 16.6904 17.6904 17.25 17 17.25H3C2.30964 17.25 1.75 16.6904 1.75 16V8Z" fill="black"/>
<path d="M23.75 11C23.75 10.5858 23.4142 10.25 23 10.25C22.5858 10.25 22.25 10.5858 22.25 11V13C22.25 13.4142 22.5858 13.75 23 13.75C23.4142 13.75 23.75 13.4142 23.75 13V11Z" fill="black"/>
</svg>
