<svg viewbox="0 0 24 24" width="24" height="24" fill="black" xmlns="http://www.w3.org/2000/svg">
 <g transform="translate(0.25, 5.25)">
  <path d="M2.75 0C1.23122 0 0 1.23122 0 2.75L0 10.75C0 12.2688 1.23122 13.5 2.75 13.5L16.75 13.5C18.2688 13.5 19.5 12.2688 19.5 10.75L19.5 2.75C19.5 1.23122 18.2688 0 16.75 0L2.75 0ZM1.5 2.75C1.5 2.05964 2.05964 1.5 2.75 1.5L16.75 1.5C17.4404 1.5 18 2.05964 18 2.75L18 10.75C18 11.4404 17.4404 12 16.75 12L2.75 12C2.05964 12 1.5 11.4404 1.5 10.75L1.5 2.75Z" fill-rule="EVENODD"></path>
  <path d="M23.5 5.75C23.5 5.33579 23.1642 5 22.75 5C22.3358 5 22 5.33579 22 5.75L22 7.75C22 8.16421 22.3358 8.5 22.75 8.5C23.1642 8.5 23.5 8.16421 23.5 7.75L23.5 5.75Z" fill-rule="NONZERO"></path>
 </g>
</svg>