<svg width="16" height="16" viewBox="0 0 16 16" fill="none" xmlns="http://www.w3.org/2000/svg">
<path fill-rule="evenodd" clip-rule="evenodd" d="M2.33333 4.75C2.17862 4.75 2.03025 4.81146 1.92085 4.92085C1.81146 5.03025 1.75 5.17862 1.75 5.33333V10.6667C1.75 10.8214 1.81146 10.9697 1.92085 11.0791C2.03025 11.1885 2.17862 11.25 2.33333 11.25H3C3.41421 11.25 3.75 11.5858 3.75 12C3.75 12.4142 3.41421 12.75 3 12.75H2.33333C1.7808 12.75 1.25089 12.5305 0.860194 12.1398C0.469494 11.7491 0.25 11.2192 0.25 10.6667V5.33333C0.25 4.7808 0.469493 4.2509 0.860194 3.86019C1.2509 3.46949 1.7808 3.25 2.33333 3.25H4C4.41421 3.25 4.75 3.58579 4.75 4C4.75 4.41421 4.41421 4.75 4 4.75H2.33333ZM9.25 4C9.25 3.58579 9.58579 3.25 10 3.25H10.6667C11.2192 3.25 11.7491 3.46949 12.1398 3.86019C12.5305 4.2509 12.75 4.7808 12.75 5.33333V10.6667C12.75 11.2192 12.5305 11.7491 12.1398 12.1398C11.7491 12.5305 11.2192 12.75 10.6667 12.75H9C8.58579 12.75 8.25 12.4142 8.25 12C8.25 11.5858 8.58579 11.25 9 11.25H10.6667C10.8214 11.25 10.9697 11.1885 11.0791 11.0791C11.1885 10.9697 11.25 10.8214 11.25 10.6667V5.33333C11.25 5.17862 11.1885 5.03025 11.0791 4.92085C10.9697 4.81146 10.8214 4.75 10.6667 4.75H10C9.58579 4.75 9.25 4.41421 9.25 4Z" fill="black"/>
<path fill-rule="evenodd" clip-rule="evenodd" d="M15 6.25C15.4142 6.25 15.75 6.58579 15.75 7V9C15.75 9.41421 15.4142 9.75 15 9.75C14.5858 9.75 14.25 9.41421 14.25 9V7C14.25 6.58579 14.5858 6.25 15 6.25Z" fill="black"/>
<path fill-rule="evenodd" clip-rule="evenodd" d="M7.58269 3.37598C7.92734 3.60575 8.02047 4.0714 7.79071 4.41604L5.90139 7.25002H8.5C8.7766 7.25002 9.03074 7.40226 9.16126 7.64613C9.29177 7.88999 9.27747 8.1859 9.12404 8.41604L6.45737 12.416C6.22761 12.7607 5.76196 12.8538 5.41731 12.6241C5.07266 12.3943 4.97953 11.9286 5.2093 11.584L7.09861 8.75002H4.5C4.2234 8.75002 3.96926 8.59778 3.83875 8.35391C3.70823 8.11004 3.72254 7.81414 3.87596 7.58399L6.54263 3.58399C6.77239 3.23935 7.23805 3.14622 7.58269 3.37598Z" fill="black"/>
</svg>
