<svg viewBox="0 0 16 16" width="16" height="16" fill="black" xmlns="http://www.w3.org/2000/svg">
 <g transform="translate(1.7280339002609253, 2.2498819828033447)">
  <path d="M2.51542 0.104423C2.87203 -0.106299 3.33194 0.0119637 3.54266 0.368571L4.74611 2.40518C5.13963 3.07114 5.16347 3.89256 4.80922 4.58022L1.502 11.0001L11.0419 11.0001L7.73471 4.58022C7.38047 3.89256 7.4043 3.07114 7.79782 2.40518L9.00127 0.368571C9.21199 0.0119636 9.67191 -0.106299 10.0285 0.104423C10.3851 0.315146 10.5034 0.775058 10.2927 1.13167L9.08921 3.16827C8.95804 3.39026 8.95009 3.66407 9.06818 3.89329L12.3754 10.3132C12.8897 11.3115 12.1649 12.5001 11.0419 12.5001L1.502 12.5001C0.379014 12.5001 -0.34574 11.3115 0.168537 10.3132L3.47576 3.89328C3.59384 3.66407 3.5859 3.39026 3.45472 3.16827L2.25127 1.13167C2.04055 0.775058 2.15881 0.315146 2.51542 0.104423Z" fill-rule="EVENODD"></path>
 </g>
</svg>