<svg width="16" height="16" viewBox="0 0 16 16" fill="none" xmlns="http://www.w3.org/2000/svg">
<path fill-rule="evenodd" clip-rule="evenodd" d="M4.24345 2.3543C4.60005 2.14358 5.05997 2.26184 5.27069 2.61845L6.47414 4.65506C6.86766 5.32102 6.8915 6.14244 6.53725 6.8301L3.23003 13.25L12.77 13.25L9.46274 6.8301C9.10849 6.14244 9.13232 5.32102 9.52585 4.65506L10.7293 2.61845C10.94 2.26184 11.3999 2.14358 11.7565 2.3543C12.1131 2.56502 12.2314 3.02494 12.0207 3.38154L10.8172 5.41815C10.6861 5.64014 10.6781 5.91394 10.7962 6.14316L14.1034 12.5631C14.6177 13.5614 13.8929 14.75 12.77 14.75H3.23003C2.10704 14.75 1.38229 13.5614 1.89656 12.5631L5.20378 6.14316C5.32187 5.91394 5.31392 5.64014 5.18275 5.41815L3.9793 3.38154C3.76858 3.02494 3.88684 2.56502 4.24345 2.3543Z" fill="black"/>
<path fill-rule="evenodd" clip-rule="evenodd" d="M4.25 9C4.25 8.58579 4.58579 8.25 5 8.25L11 8.25C11.4142 8.25 11.75 8.58579 11.75 9C11.75 9.41421 11.4142 9.75 11 9.75L5 9.75C4.58579 9.75 4.25 9.41421 4.25 9Z" fill="black"/>
<path fill-rule="evenodd" clip-rule="evenodd" d="M3.25 2.5C3.25 2.08579 3.58579 1.75 4 1.75H12C12.4142 1.75 12.75 2.08579 12.75 2.5C12.75 2.91421 12.4142 3.25 12 3.25H4C3.58579 3.25 3.25 2.91421 3.25 2.5Z" fill="black"/>
</svg>
