<svg width="16" height="16" viewBox="0 0 16 16" fill="none" xmlns="http://www.w3.org/2000/svg">
<path d="M14 3C14 4.10457 13.1046 5 12 5C10.8954 5 10 4.10457 10 3C10 1.89543 10.8954 1 12 1C13.1046 1 14 1.89543 14 3Z" fill="black"/>
<path fill-rule="evenodd" clip-rule="evenodd" d="M8 1.75C6.89935 1.75 5.84378 2.18723 5.06551 2.96551C4.28723 3.74378 3.85 4.79935 3.85 5.9V8.9C3.85 9.38632 3.72412 9.84672 3.50356 10.25H12.4964C12.2759 9.84672 12.15 9.38632 12.15 8.9V6.42496L12.15 6.4117C12.1486 5.99749 12.4833 5.66062 12.8975 5.65927C13.3117 5.65792 13.6486 5.99261 13.65 6.40682L13.65 6.42496V8.9C13.65 9.62959 14.2704 10.25 15 10.25C15.4142 10.25 15.75 10.5858 15.75 11C15.75 11.4142 15.4142 11.75 15 11.75H1C0.585786 11.75 0.25 11.4142 0.25 11C0.25 10.5858 0.585786 10.25 1 10.25C1.72959 10.25 2.35 9.62959 2.35 8.9V5.9C2.35 4.40153 2.94527 2.96443 4.00485 1.90485C5.06443 0.845266 6.50153 0.25 8 0.25C8.32122 0.25 8.63968 0.27736 8.95222 0.330798C9.36051 0.400608 9.6349 0.788183 9.56509 1.19647C9.49528 1.60476 9.10771 1.87915 8.69942 1.80934C8.46991 1.7701 8.23602 1.75 8 1.75Z" fill="black"/>
<path fill-rule="evenodd" clip-rule="evenodd" d="M6.16411 13.3294C6.53447 13.1439 6.98508 13.2938 7.17057 13.6641C7.3671 14.0565 7.69331 14.25 7.99998 14.25C8.30665 14.25 8.63286 14.0565 8.82939 13.6641C9.01489 13.2938 9.46549 13.1439 9.83585 13.3294C10.2062 13.5149 10.3561 13.9655 10.1706 14.3359C9.76828 15.1391 8.97523 15.75 7.99998 15.75C7.02473 15.75 6.23168 15.1391 5.82939 14.3359C5.64389 13.9655 5.79375 13.5149 6.16411 13.3294Z" fill="black"/>
</svg>
