<svg width="16" height="16" viewBox="0 0 16 16" fill="none" xmlns="http://www.w3.org/2000/svg">
<path fill-rule="evenodd" clip-rule="evenodd" d="M8 1.75C7.2486 1.75 6.5182 1.95377 5.88263 2.33077C5.52638 2.5421 5.06627 2.42461 4.85495 2.06836C4.64363 1.7121 4.76111 1.25199 5.11737 1.04067C5.98252 0.527473 6.97695 0.25 8 0.25C9.49847 0.25 10.9356 0.845266 11.9952 1.90485C13.0547 2.96443 13.65 4.40153 13.65 5.9V8.4C13.65 8.81421 13.3142 9.15 12.9 9.15C12.4858 9.15 12.15 8.81421 12.15 8.4V5.9C12.15 4.79935 11.7128 3.74378 10.9345 2.96551C10.1562 2.18723 9.10065 1.75 8 1.75ZM3.91732 3.08852C4.29009 3.26912 4.44588 3.71771 4.26528 4.09048C3.9945 4.64939 3.85 5.26723 3.85 5.9V8.4C3.85 8.99513 3.56544 9.68544 3.1969 10.25H11C11.4142 10.25 11.75 10.5858 11.75 11C11.75 11.4142 11.4142 11.75 11 11.75H1C0.585786 11.75 0.25 11.4142 0.25 11C0.25 10.5858 0.585786 10.25 1 10.25C1.04512 10.25 1.15302 10.2285 1.32173 10.1091C1.4858 9.99306 1.66234 9.81521 1.82729 9.59316C2.17914 9.11949 2.35 8.62603 2.35 8.4V5.9C2.35 5.0385 2.54677 4.19726 2.91536 3.43647C3.09596 3.0637 3.54455 2.90792 3.91732 3.08852Z" fill="black"/>
<path fill-rule="evenodd" clip-rule="evenodd" d="M6.16411 13.3294C6.53447 13.1439 6.98508 13.2938 7.17057 13.6641C7.3671 14.0565 7.69331 14.25 7.99998 14.25C8.30665 14.25 8.63286 14.0565 8.82939 13.6641C9.01489 13.2938 9.46549 13.1439 9.83585 13.3294C10.2062 13.5149 10.3561 13.9655 10.1706 14.3359C9.76828 15.1391 8.97523 15.75 7.99998 15.75C7.02473 15.75 6.23168 15.1391 5.82939 14.3359C5.64389 13.9655 5.79375 13.5149 6.16411 13.3294Z" fill="black"/>
<path fill-rule="evenodd" clip-rule="evenodd" d="M0.46967 0.46967C0.762563 0.176777 1.23744 0.176777 1.53033 0.46967L14.5303 13.4697C14.8232 13.7626 14.8232 14.2374 14.5303 14.5303C14.2374 14.8232 13.7626 14.8232 13.4697 14.5303L0.46967 1.53033C0.176777 1.23744 0.176777 0.762563 0.46967 0.46967Z" fill="black"/>
</svg>
