<svg width="16" height="16" viewBox="0 0 16 16" fill="none" xmlns="http://www.w3.org/2000/svg">
<path fill-rule="evenodd" clip-rule="evenodd" d="M8 1.75C6.89935 1.75 5.84378 2.18723 5.06551 2.96551C4.28723 3.74378 3.85 4.79935 3.85 5.9V8.4C3.85 8.99513 3.56544 9.68544 3.1969 10.25H12.8031C12.4346 9.68544 12.15 8.99513 12.15 8.4V5.9C12.15 4.79935 11.7128 3.74378 10.9345 2.96551C10.1562 2.18723 9.10065 1.75 8 1.75ZM15 10.25C14.9549 10.25 14.847 10.2285 14.6783 10.1091C14.5142 9.99306 14.3377 9.81521 14.1727 9.59316C13.8209 9.11949 13.65 8.62603 13.65 8.4V5.9C13.65 4.40153 13.0547 2.96443 11.9952 1.90485C10.9356 0.845266 9.49847 0.25 8 0.25C6.50153 0.25 5.06443 0.845266 4.00485 1.90485C2.94527 2.96443 2.35 4.40153 2.35 5.9V8.4C2.35 8.62603 2.17914 9.11949 1.82729 9.59316C1.66234 9.81521 1.4858 9.99306 1.32173 10.1091C1.15302 10.2285 1.04512 10.25 1 10.25C0.585786 10.25 0.25 10.5858 0.25 11C0.25 11.4142 0.585786 11.75 1 11.75H15C15.4142 11.75 15.75 11.4142 15.75 11C15.75 10.5858 15.4142 10.25 15 10.25Z" fill="black"/>
<path fill-rule="evenodd" clip-rule="evenodd" d="M6.16414 13.3294C6.5345 13.1439 6.98511 13.2938 7.1706 13.6641C7.36713 14.0565 7.69334 14.25 8.00001 14.25C8.30668 14.25 8.63289 14.0565 8.82942 13.6641C9.01492 13.2938 9.46552 13.1439 9.83588 13.3294C10.2062 13.5149 10.3561 13.9655 10.1706 14.3359C9.76831 15.1391 8.97526 15.75 8.00001 15.75C7.02476 15.75 6.23171 15.1391 5.82942 14.3359C5.64393 13.9655 5.79378 13.5149 6.16414 13.3294Z" fill="black"/>
</svg>
