<svg width="16" height="16" viewBox="0 0 16 16" fill="none" xmlns="http://www.w3.org/2000/svg">
<path d="M14 3C14 4.10457 13.1046 5 12 5C10.8954 5 10 4.10457 10 3C10 1.89543 10.8954 1 12 1C13.1046 1 14 1.89543 14 3Z" fill="black"/>
<path fill-rule="evenodd" clip-rule="evenodd" d="M12.9 6.89175C12.6723 6.92995 12.4385 6.94983 12.2 6.94983C9.88036 6.94983 7.99996 5.06943 7.99996 2.74983C7.99996 2.13093 8.13382 1.54329 8.37418 1.0143C8.25011 1.0048 8.1253 1 8 1C6.70044 1 5.4541 1.51625 4.53518 2.43518C3.61625 3.3541 3.1 4.60044 3.1 5.9V8.4C3.1 9.3077 2.01162 11 1 11H15C13.9884 11 12.9 9.30769 12.9 8.4V6.89175Z" fill="black"/>
<path fill-rule="evenodd" clip-rule="evenodd" d="M7.34061 1.8027C6.48432 1.9405 5.68661 2.3444 5.06551 2.96551C4.28723 3.74378 3.85 4.79935 3.85 5.9V8.4C3.85 8.99513 3.56544 9.68544 3.1969 10.25H12.8031C12.4346 9.68544 12.15 8.99513 12.15 8.4V7.69958C9.4392 7.67278 7.24996 5.46697 7.24996 2.74983C7.24996 2.42625 7.2811 2.10955 7.34061 1.8027ZM15 10.25C14.9549 10.25 14.847 10.2285 14.6783 10.1091C14.5142 9.99306 14.3377 9.81521 14.1727 9.59316C13.8209 9.11949 13.65 8.62603 13.65 8.4V6.89175C13.65 6.67114 13.5529 6.46173 13.3845 6.31922C13.2161 6.17672 12.9935 6.11559 12.7759 6.15209C12.5891 6.18343 12.3967 6.19983 12.2 6.19983C10.2946 6.19983 8.74996 4.65521 8.74996 2.74983C8.74996 2.24007 8.86003 1.75805 9.057 1.32455C9.15828 1.10164 9.14439 0.843339 9.01978 0.632587C8.89517 0.421835 8.67554 0.285171 8.43142 0.266484C8.28836 0.255533 8.14446 0.25 8 0.25C6.50153 0.25 5.06443 0.845266 4.00485 1.90485C2.94527 2.96443 2.35 4.40153 2.35 5.9V8.4C2.35 8.62603 2.17914 9.11949 1.82729 9.59316C1.66234 9.81521 1.4858 9.99306 1.32173 10.1091C1.15302 10.2285 1.04512 10.25 1 10.25C0.585786 10.25 0.25 10.5858 0.25 11C0.25 11.4142 0.585786 11.75 1 11.75H15C15.4142 11.75 15.75 11.4142 15.75 11C15.75 10.5858 15.4142 10.25 15 10.25Z" fill="black"/>
<path fill-rule="evenodd" clip-rule="evenodd" d="M6.16414 13.3294C6.5345 13.1439 6.98511 13.2938 7.1706 13.6641C7.36713 14.0565 7.69334 14.25 8.00001 14.25C8.30668 14.25 8.63289 14.0565 8.82942 13.6641C9.01492 13.2938 9.46552 13.1439 9.83588 13.3294C10.2062 13.5149 10.3561 13.9655 10.1706 14.3359C9.76831 15.1391 8.97526 15.75 8.00001 15.75C7.02476 15.75 6.23171 15.1391 5.82942 14.3359C5.64393 13.9655 5.79378 13.5149 6.16414 13.3294Z" fill="black"/>
</svg>
