<svg width="24" height="24" viewBox="0 0 24 24" fill="none" xmlns="http://www.w3.org/2000/svg">
<path d="M21 3.5C21 4.88071 19.8807 6 18.5 6C17.1193 6 16 4.88071 16 3.5C16 2.11929 17.1193 1 18.5 1C19.8807 1 21 2.11929 21 3.5Z" fill="black"/>
<path fill-rule="evenodd" clip-rule="evenodd" d="M19 8.97758C18.8353 8.99242 18.6685 9 18.5 9C15.4624 9 13 6.53757 13 3.5C13 3.01624 13.0625 2.54706 13.1797 2.1001C12.7926 2.0339 12.398 2 12 2C10.1435 2 8.36301 2.7375 7.05025 4.05025C5.7375 5.36301 5 7.14348 5 9V14C5 14.7956 4.68393 15.5587 4.12132 16.1213C3.55871 16.6839 2.79565 17 2 17H22C21.2044 17 20.4413 16.6839 19.8787 16.1213C19.3161 15.5587 19 14.7956 19 14V9C19 8.99253 19 8.98505 19 8.97758Z" fill="black"/>
<path fill-rule="evenodd" clip-rule="evenodd" d="M12 2.75C10.3424 2.75 8.75269 3.40848 7.58058 4.58058C6.40848 5.75268 5.75 7.3424 5.75 9V14C5.75 14.8161 5.484 15.6047 5.00002 16.25H19C18.516 15.6047 18.25 14.8161 18.25 14V9.74509C14.9141 9.61386 12.25 6.86805 12.25 3.5C12.25 3.24877 12.2649 3.00078 12.2938 2.7569C12.1962 2.75231 12.0982 2.75 12 2.75ZM22 16.25C21.4033 16.25 20.831 16.0129 20.409 15.591C19.9871 15.169 19.75 14.5967 19.75 14V9L19.75 8.97509C19.7493 8.76491 19.6604 8.56467 19.505 8.42313C19.3496 8.28159 19.142 8.21175 18.9327 8.23061C18.7903 8.24343 18.646 8.25 18.5 8.25C15.8766 8.25 13.75 6.12335 13.75 3.5C13.75 3.08104 13.8041 2.67583 13.9052 2.29047C13.9586 2.08707 13.9241 1.87062 13.8102 1.69386C13.6963 1.51709 13.5134 1.39627 13.3061 1.36083C12.8775 1.28753 12.4406 1.25 12 1.25C9.94457 1.25 7.97333 2.06652 6.51992 3.51992C5.06652 4.97333 4.25 6.94457 4.25 9V14C4.25 14.5967 4.01295 15.169 3.59099 15.591C3.16903 16.0129 2.59674 16.25 2 16.25C1.58579 16.25 1.25 16.5858 1.25 17C1.25 17.4142 1.58579 17.75 2 17.75H22C22.4142 17.75 22.75 17.4142 22.75 17C22.75 16.5858 22.4142 16.25 22 16.25Z" fill="black"/>
<path fill-rule="evenodd" clip-rule="evenodd" d="M9.02579 19.8508C9.38434 19.6434 9.84314 19.7659 10.0505 20.1245C10.4407 20.7989 11.1681 21.25 12 21.25C12.8319 21.25 13.5593 20.7989 13.9494 20.1245C14.1568 19.7659 14.6156 19.6434 14.9742 19.8508C15.3327 20.0582 15.4553 20.517 15.2478 20.8755C14.6006 21.9945 13.389 22.75 12 22.75C10.611 22.75 9.3994 21.9945 8.75213 20.8755C8.54473 20.517 8.66725 20.0582 9.02579 19.8508Z" fill="black"/>
</svg>
