<svg width="24" height="24" viewBox="0 0 24 24" fill="none" xmlns="http://www.w3.org/2000/svg">
<path fill-rule="evenodd" clip-rule="evenodd" d="M12.0471 2.74658C10.9549 2.73835 9.87974 3.01645 8.92857 3.55316C8.56783 3.75672 8.11037 3.62929 7.90681 3.26855C7.70326 2.9078 7.83068 2.45034 8.19143 2.24679C9.37088 1.58126 10.7041 1.23642 12.0584 1.24662C13.4126 1.25682 14.7405 1.6217 15.9098 2.3049C17.0791 2.98811 18.0489 3.9658 18.7227 5.14055C19.3965 6.3153 19.7507 7.6461 19.75 9.00036V13C19.75 13.4142 19.4142 13.75 19 13.75C18.5858 13.75 18.25 13.4142 18.25 13V8.99997C18.2506 7.90783 17.9649 6.83422 17.4215 5.88684C16.8782 4.93946 16.096 4.15101 15.1531 3.60003C14.2101 3.04906 13.1392 2.7548 12.0471 2.74658ZM5.66465 5.0389C5.90118 5.00208 6.14107 5.08038 6.31033 5.24964L17.5303 16.4696C17.7448 16.6841 17.809 17.0067 17.6929 17.287C17.5768 17.5672 17.3033 17.75 17 17.75H2C1.58579 17.75 1.25 17.4142 1.25 17C1.25 16.5858 1.58579 16.25 2 16.25C2.59674 16.25 3.16903 16.0129 3.59099 15.591C4.01295 15.169 4.25 14.5967 4.25 14V9.00053M5.00002 16.25H15.1893L6.04211 7.10274C5.84835 7.71404 5.74919 8.35356 5.75 8.99903L5.75 14C5.75 14.816 5.484 15.6047 5.00002 16.25Z" fill="black"/>
<path fill-rule="evenodd" clip-rule="evenodd" d="M9.02583 19.8508C9.38437 19.6434 9.84317 19.7659 10.0506 20.1245C10.4407 20.7989 11.1681 21.25 12 21.25C12.8319 21.25 13.5593 20.7989 13.9495 20.1245C14.1569 19.7659 14.6157 19.6434 14.9742 19.8508C15.3328 20.0582 15.4553 20.517 15.2479 20.8755C14.6006 21.9945 13.389 22.75 12 22.75C10.611 22.75 9.39943 21.9945 8.75217 20.8755C8.54476 20.517 8.66728 20.0582 9.02583 19.8508Z" fill="black"/>
<path fill-rule="evenodd" clip-rule="evenodd" d="M0.46967 0.46967C0.762563 0.176777 1.23744 0.176777 1.53033 0.46967L23.5303 22.4697C23.8232 22.7626 23.8232 23.2374 23.5303 23.5303C23.2374 23.8232 22.7626 23.8232 22.4697 23.5303L0.46967 1.53033C0.176777 1.23744 0.176777 0.762563 0.46967 0.46967Z" fill="black"/>
</svg>
