<svg width="24" height="24" viewBox="0 0 24 24" fill="none" xmlns="http://www.w3.org/2000/svg">
<path fill-rule="evenodd" clip-rule="evenodd" d="M12 2.75C10.3424 2.75 8.75269 3.40848 7.58058 4.58058C6.40848 5.75268 5.75 7.3424 5.75 9V14C5.75 14.8161 5.484 15.6047 5.00002 16.25H19C18.516 15.6047 18.25 14.8161 18.25 14V9C18.25 7.3424 17.5915 5.75268 16.4194 4.58058C15.2473 3.40848 13.6576 2.75 12 2.75ZM22 16.25C21.4033 16.25 20.831 16.0129 20.409 15.591C19.9871 15.169 19.75 14.5967 19.75 14V9C19.75 6.94457 18.9335 4.97333 17.4801 3.51992C16.0267 2.06652 14.0554 1.25 12 1.25C9.94457 1.25 7.97333 2.06652 6.51992 3.51992C5.06652 4.97333 4.25 6.94457 4.25 9V14C4.25 14.5967 4.01295 15.169 3.59099 15.591C3.16903 16.0129 2.59674 16.25 2 16.25C1.58579 16.25 1.25 16.5858 1.25 17C1.25 17.4142 1.58579 17.75 2 17.75H22C22.4142 17.75 22.75 17.4142 22.75 17C22.75 16.5858 22.4142 16.25 22 16.25Z" fill="black"/>
<path fill-rule="evenodd" clip-rule="evenodd" d="M9.02579 19.8508C9.38434 19.6434 9.84314 19.7659 10.0505 20.1245C10.4407 20.7989 11.1681 21.25 12 21.25C12.8319 21.25 13.5593 20.7989 13.9494 20.1245C14.1568 19.7659 14.6156 19.6434 14.9742 19.8508C15.3327 20.0582 15.4553 20.517 15.2478 20.8755C14.6006 21.9945 13.389 22.75 12 22.75C10.611 22.75 9.3994 21.9945 8.75213 20.8755C8.54473 20.517 8.66725 20.0582 9.02579 19.8508Z" fill="black"/>
</svg>
