<svg viewbox="0 0 24 24" width="24" height="24" fill="black" xmlns="http://www.w3.org/2000/svg">
 <g transform="translate(1.25, 2.25)">
  <path d="M0.75 0C0.335786 0 0 0.335786 0 0.75L0 15.75C0 16.1642 0.335786 16.5 0.75 16.5L7.75 16.5C8.34674 16.5 8.91903 16.7371 9.34099 17.159C9.76295 17.581 10 18.1533 10 18.75C10 19.1642 10.3358 19.5 10.75 19.5C11.1642 19.5 11.5 19.1642 11.5 18.75C11.5 18.1533 11.7371 17.581 12.159 17.159C12.581 16.7371 13.1533 16.5 13.75 16.5L20.75 16.5C21.1642 16.5 21.5 16.1642 21.5 15.75L21.5 0.75C21.5 0.335786 21.1642 0 20.75 0L14.75 0C13.4902 0 12.282 0.500445 11.3912 1.39124C11.1475 1.63496 10.933 1.90244 10.75 2.18823C10.567 1.90244 10.3525 1.63496 10.1088 1.39124C9.21796 0.500445 8.00978 0 6.75 0L0.75 0ZM11.5 15.75C12.1453 15.266 12.9339 15 13.75 15L20 15L20 1.5L14.75 1.5C13.888 1.5 13.0614 1.84241 12.4519 2.4519C11.8424 3.0614 11.5 3.88805 11.5 4.75L11.5 15.75ZM10 15.75L10 4.75C10 3.88805 9.65759 3.0614 9.0481 2.4519C8.4386 1.84241 7.61195 1.5 6.75 1.5L1.5 1.5L1.5 15L7.75 15C8.56606 15 9.3547 15.266 10 15.75Z" fill-rule="EVENODD"></path>
 </g>
</svg>