<svg width="16" height="16" viewBox="0 0 16 16" fill="none" xmlns="http://www.w3.org/2000/svg">
<path fill-rule="evenodd" clip-rule="evenodd" d="M3.875 11.25C3.57663 11.25 3.29048 11.3685 3.0795 11.5795C2.86853 11.7905 2.75 12.0766 2.75 12.375C2.75 12.7892 2.41421 13.125 2 13.125C1.58579 13.125 1.25 12.7892 1.25 12.375C1.25 11.6788 1.52656 11.0111 2.01884 10.5188C2.51113 10.0266 3.17881 9.75 3.875 9.75H4.5C4.91421 9.75 5.25 10.0858 5.25 10.5C5.25 10.9142 4.91421 11.25 4.5 11.25H3.875Z" fill="black"/>
<path fill-rule="evenodd" clip-rule="evenodd" d="M3.875 1.75C3.56057 1.75 3.26855 1.86706 3.06091 2.06085C2.85502 2.25302 2.75 2.50213 2.75 2.75V12.25C2.75 12.4979 2.85502 12.747 3.06091 12.9391C3.26855 13.1329 3.56057 13.25 3.875 13.25H5.5C5.91421 13.25 6.25 13.5858 6.25 14C6.25 14.4142 5.91421 14.75 5.5 14.75H3.875C3.19486 14.75 2.53306 14.4983 2.03744 14.0357C1.54006 13.5715 1.25 12.9304 1.25 12.25V2.75C1.25 2.06961 1.54006 1.42849 2.03744 0.964272C2.53306 0.50169 3.19486 0.25 3.875 0.25H13C13.4142 0.25 13.75 0.585786 13.75 1V5C13.75 5.41421 13.4142 5.75 13 5.75C12.5858 5.75 12.25 5.41421 12.25 5V1.75H3.875Z" fill="black"/>
<path fill-rule="evenodd" clip-rule="evenodd" d="M11 7.69999C9.17745 7.69999 7.69999 9.17745 7.69999 11C7.69999 12.8225 9.17745 14.3 11 14.3C12.8225 14.3 14.3 12.8225 14.3 11C14.3 9.17745 12.8225 7.69999 11 7.69999ZM6.29999 11C6.29999 8.40425 8.40425 6.29999 11 6.29999C13.5957 6.29999 15.7 8.40425 15.7 11C15.7 13.5957 13.5957 15.7 11 15.7C8.40425 15.7 6.29999 13.5957 6.29999 11Z" fill="black"/>
<path fill-rule="evenodd" clip-rule="evenodd" d="M8.77571 10.7757C9.01003 10.5414 9.38993 10.5414 9.62424 10.7757L11 12.1514L12.3757 10.7757C12.61 10.5414 12.9899 10.5414 13.2242 10.7757C13.4586 11.01 13.4586 11.3899 13.2242 11.6242L11.4242 13.4242C11.3117 13.5368 11.1591 13.6 11 13.6C10.8408 13.6 10.6882 13.5368 10.5757 13.4242L8.77571 11.6242C8.5414 11.3899 8.5414 11.01 8.77571 10.7757Z" fill="black"/>
<path fill-rule="evenodd" clip-rule="evenodd" d="M11 8.40002C11.3314 8.40002 11.6 8.66865 11.6 9.00002V13C11.6 13.3314 11.3314 13.6 11 13.6C10.6687 13.6 10.4 13.3314 10.4 13V9.00002C10.4 8.66865 10.6687 8.40002 11 8.40002Z" fill="black"/>
</svg>
