<svg width="24" height="24" viewBox="0 0 24 24" fill="none" xmlns="http://www.w3.org/2000/svg">
<path fill-rule="evenodd" clip-rule="evenodd" d="M7 2.25C5.48122 2.25 4.25 3.48122 4.25 5V20.691C4.25 21.6202 5.22789 22.2246 6.05902 21.809L11.441 19.118C11.7929 18.9421 12.2071 18.9421 12.559 19.118L17.941 21.809C18.7721 22.2246 19.75 21.6202 19.75 20.691V5C19.75 3.48122 18.5188 2.25 17 2.25H7ZM11 8C11 7.44772 11.4477 7 12 7C12.5523 7 13 7.44772 13 8V10H15C15.5523 10 16 10.4477 16 11C16 11.5523 15.5523 12 15 12H13V14C13 14.5523 12.5523 15 12 15C11.4477 15 11 14.5523 11 14V12H9C8.44772 12 8 11.5523 8 11C8 10.4477 8.44772 10 9 10H11V8Z" fill="black"/>
</svg>
