<svg width="16" height="16" viewBox="0 0 16 16" fill="none" xmlns="http://www.w3.org/2000/svg">
<path fill-rule="evenodd" clip-rule="evenodd" d="M4 1.25C3.0335 1.25 2.25 2.0335 2.25 3V13.5955C2.25 14.3389 3.03231 14.8224 3.69721 14.4899L7.8882 12.3944C7.95858 12.3592 8.04142 12.3592 8.1118 12.3944L12.3028 14.4899C12.9677 14.8224 13.75 14.3389 13.75 13.5955V3C13.75 2.0335 12.9665 1.25 12 1.25H4ZM5.25 7C5.25 6.58579 5.58579 6.25 6 6.25H10C10.4142 6.25 10.75 6.58579 10.75 7C10.75 7.41421 10.4142 7.75 10 7.75H6C5.58579 7.75 5.25 7.41421 5.25 7Z" fill="black"/>
</svg>
