<svg viewbox="0 0 16 16" width="16" height="16" fill="black" xmlns="http://www.w3.org/2000/svg">
 <g transform="translate(2.25, 1.25)">
  <path d="M3.75 5C3.33579 5 3 5.33579 3 5.75C3 6.16421 3.33579 6.5 3.75 6.5L7.75 6.5C8.16421 6.5 8.5 6.16421 8.5 5.75C8.5 5.33579 8.16421 5 7.75 5L3.75 5Z" fill-rule="NONZERO"></path>
  <path d="M1.75 0C0.783502 0 0 0.783501 0 1.75L0 12.3455C0 13.0889 0.782315 13.5724 1.44721 13.2399L5.6382 11.1444C5.70858 11.1092 5.79142 11.1092 5.8618 11.1444L10.0528 13.2399C10.7177 13.5724 11.5 13.0889 11.5 12.3455L11.5 1.75C11.5 0.783502 10.7165 0 9.75 0L1.75 0ZM1.5 1.75C1.5 1.61193 1.61193 1.5 1.75 1.5L9.75 1.5C9.88807 1.5 10 1.61193 10 1.75L10 11.5365L6.53262 9.80279C6.03995 9.55645 5.46005 9.55645 4.96738 9.80279L1.5 11.5365L1.5 1.75Z" fill-rule="EVENODD"></path>
 </g>
</svg>