<svg width="16" height="16" viewBox="0 0 16 16" fill="none" xmlns="http://www.w3.org/2000/svg">
<path d="M6 6.25C5.58579 6.25 5.25 6.58579 5.25 7C5.25 7.41421 5.58579 7.75 6 7.75H10C10.4142 7.75 10.75 7.41421 10.75 7C10.75 6.58579 10.4142 6.25 10 6.25H6Z" fill="black"/>
<path fill-rule="evenodd" clip-rule="evenodd" d="M4 1.25C3.0335 1.25 2.25 2.0335 2.25 3V13.5955C2.25 14.3389 3.03231 14.8224 3.69721 14.4899L7.8882 12.3944C7.95858 12.3592 8.04142 12.3592 8.1118 12.3944L12.3028 14.4899C12.9677 14.8224 13.75 14.3389 13.75 13.5955V3C13.75 2.0335 12.9665 1.25 12 1.25H4ZM3.75 3C3.75 2.86193 3.86193 2.75 4 2.75H12C12.1381 2.75 12.25 2.86193 12.25 3V12.7865L8.78262 11.0528C8.28995 10.8064 7.71005 10.8064 7.21738 11.0528L3.75 12.7865V3Z" fill="black"/>
</svg>
