<svg viewbox="0 0 24 24" width="24" height="24" fill="black" xmlns="http://www.w3.org/2000/svg">
 <g transform="translate(4.25, 2.25)">
  <path d="M0 2.75C0 1.23122 1.23122 0 2.75 0L12.75 0C14.2688 0 15.5 1.23122 15.5 2.75L15.5 18.441C15.5 19.3702 14.5221 19.9746 13.691 19.559L8.30902 16.868C7.95711 16.6921 7.54289 16.6921 7.19098 16.868L1.80902 19.559C0.977893 19.9746 0 19.3702 0 18.441L0 2.75ZM2.75 1.5C2.05964 1.5 1.5 2.05964 1.5 2.75L1.5 18.0365L6.52016 15.5264C7.29436 15.1393 8.20564 15.1393 8.97984 15.5264L14 18.0365L14 2.75C14 2.05964 13.4404 1.5 12.75 1.5L2.75 1.5Z" fill-rule="EVENODD"></path>
 </g>
</svg>