<svg width="24" height="24" viewBox="0 0 24 24" fill="none" xmlns="http://www.w3.org/2000/svg">
<path fill-rule="evenodd" clip-rule="evenodd" d="M6.5 17.75C6.03587 17.75 5.59075 17.9344 5.26256 18.2626C4.93437 18.5908 4.75 19.0359 4.75 19.5C4.75 19.9142 4.41421 20.25 4 20.25C3.58579 20.25 3.25 19.9142 3.25 19.5C3.25 18.638 3.59241 17.8114 4.2019 17.2019C4.8114 16.5924 5.63805 16.25 6.5 16.25H20C20.4142 16.25 20.75 16.5858 20.75 17C20.75 17.4142 20.4142 17.75 20 17.75H6.5Z" fill="black"/>
<path fill-rule="evenodd" clip-rule="evenodd" d="M6.5 2.75C6.03587 2.75 5.59075 2.93437 5.26256 3.26256C4.93437 3.59075 4.75 4.03587 4.75 4.5V19.5C4.75 19.9641 4.93437 20.4092 5.26256 20.7374C5.59075 21.0656 6.03587 21.25 6.5 21.25H19.25V2.75H6.5ZM6.5 1.25H20C20.4142 1.25 20.75 1.58579 20.75 2V22C20.75 22.4142 20.4142 22.75 20 22.75H6.5C5.63805 22.75 4.8114 22.4076 4.2019 21.7981C3.59241 21.1886 3.25 20.362 3.25 19.5V4.5C3.25 3.63805 3.59241 2.8114 4.2019 2.2019C4.8114 1.59241 5.63805 1.25 6.5 1.25Z" fill="black"/>
</svg>
