<svg width="16" height="16" viewBox="0 0 16 16" fill="none" xmlns="http://www.w3.org/2000/svg">
<path d="M8 4.25C8.41421 4.25 8.75 4.58579 8.75 5V6.25H10C10.4142 6.25 10.75 6.58579 10.75 7C10.75 7.41421 10.4142 7.75 10 7.75H8.75V9C8.75 9.41421 8.41421 9.75 8 9.75C7.58579 9.75 7.25 9.41421 7.25 9V7.75H6C5.58579 7.75 5.25 7.41421 5.25 7C5.25 6.58579 5.58579 6.25 6 6.25H7.25V5C7.25 4.58579 7.58579 4.25 8 4.25Z" fill="black"/>
<path fill-rule="evenodd" clip-rule="evenodd" d="M2.25 3C2.25 2.0335 3.0335 1.25 4 1.25H12C12.9665 1.25 13.75 2.0335 13.75 3V13.5955C13.75 14.3389 12.9677 14.8224 12.3028 14.4899L8.1118 12.3944C8.04142 12.3592 7.95858 12.3592 7.8882 12.3944L3.69721 14.4899C3.03231 14.8224 2.25 14.3389 2.25 13.5955V3ZM4 2.75C3.86193 2.75 3.75 2.86193 3.75 3V12.7865L7.21738 11.0528C7.71005 10.8064 8.28995 10.8064 8.78262 11.0528L12.25 12.7865V3C12.25 2.86193 12.1381 2.75 12 2.75H4Z" fill="black"/>
</svg>
