<svg width="16" height="16" viewBox="0 0 16 16" fill="none" xmlns="http://www.w3.org/2000/svg">
<path fill-rule="evenodd" clip-rule="evenodd" d="M3.875 12.25C3.57663 12.25 3.29048 12.3685 3.0795 12.5795C2.86853 12.7905 2.75 13.0766 2.75 13.375C2.75 13.7892 2.41421 14.125 2 14.125C1.58579 14.125 1.25 13.7892 1.25 13.375C1.25 12.6788 1.52656 12.0111 2.01884 11.5188C2.51113 11.0266 3.17881 10.75 3.875 10.75H14C14.4142 10.75 14.75 11.0858 14.75 11.5C14.75 11.9142 14.4142 12.25 14 12.25H3.875Z" fill="black"/>
<path fill-rule="evenodd" clip-rule="evenodd" d="M3.875 1.75C3.56057 1.75 3.26855 1.86706 3.06091 2.06085C2.85502 2.25302 2.75 2.50213 2.75 2.75V13.25C2.75 13.4979 2.85502 13.747 3.06091 13.9391C3.26855 14.1329 3.56057 14.25 3.875 14.25H13.25V1.75H3.875ZM3.875 0.25H14C14.4142 0.25 14.75 0.585786 14.75 1V15C14.75 15.4142 14.4142 15.75 14 15.75H3.875C3.19486 15.75 2.53306 15.4983 2.03744 15.0357C1.54006 14.5715 1.25 13.9304 1.25 13.25V2.75C1.25 2.06961 1.54006 1.42849 2.03744 0.964272C2.53306 0.50169 3.19486 0.25 3.875 0.25Z" fill="black"/>
</svg>
