<svg width="24" height="24" viewBox="0 0 24 24" fill="none" xmlns="http://www.w3.org/2000/svg">
<path fill-rule="evenodd" clip-rule="evenodd" d="M2 2.25C1.58579 2.25 1.25 2.58579 1.25 3V18C1.25 18.4142 1.58579 18.75 2 18.75H9C9.59674 18.75 10.169 18.9871 10.591 19.409C11.0129 19.831 11.25 20.4033 11.25 21C11.25 21.4142 11.5858 21.75 12 21.75C12.4142 21.75 12.75 21.4142 12.75 21C12.75 20.4033 12.9871 19.831 13.409 19.409C13.831 18.9871 14.4033 18.75 15 18.75H22C22.4142 18.75 22.75 18.4142 22.75 18V3C22.75 2.58579 22.4142 2.25 22 2.25H16C14.7402 2.25 13.532 2.75044 12.6412 3.64124C12.3975 3.88496 12.183 4.15244 12 4.43823C11.817 4.15244 11.6025 3.88496 11.3588 3.64124C10.468 2.75044 9.25978 2.25 8 2.25H2ZM12.75 18C13.3953 17.516 14.1839 17.25 15 17.25H21.25V3.75H16C15.138 3.75 14.3114 4.09241 13.7019 4.7019C13.0924 5.3114 12.75 6.13805 12.75 7V18ZM11.25 18V7C11.25 6.13805 10.9076 5.3114 10.2981 4.7019C9.6886 4.09241 8.86195 3.75 8 3.75H2.75V17.25H9C9.81606 17.25 10.6047 17.516 11.25 18Z" fill="black"/>
</svg>
