<svg width="16" height="16" viewBox="0 0 16 16" fill="none" xmlns="http://www.w3.org/2000/svg">
<path d="M8 1.25C8.41421 1.25 8.75 1.58579 8.75 2V8.18934L10.9697 5.96967C11.2626 5.67678 11.7374 5.67678 12.0303 5.96967C12.3232 6.26256 12.3232 6.73744 12.0303 7.03033L8.53033 10.5303C8.23744 10.8232 7.76256 10.8232 7.46967 10.5303L3.96967 7.03033C3.67678 6.73744 3.67678 6.26256 3.96967 5.96967C4.26256 5.67678 4.73744 5.67678 5.03033 5.96967L7.25 8.18934V2C7.25 1.58579 7.58579 1.25 8 1.25Z" fill="black"/>
<path d="M3 12.25C2.58579 12.25 2.25 12.5858 2.25 13C2.25 13.4142 2.58579 13.75 3 13.75H13C13.4142 13.75 13.75 13.4142 13.75 13C13.75 12.5858 13.4142 12.25 13 12.25H3Z" fill="black"/>
</svg>
