<svg width="16" height="16" viewBox="0 0 16 16" fill="none" xmlns="http://www.w3.org/2000/svg">
<path fill-rule="evenodd" clip-rule="evenodd" d="M7.01076 0.649175C7.63487 0.343667 8.36513 0.343667 8.98924 0.649175L14.2694 3.23387C14.8695 3.52764 15.25 4.13749 15.25 4.80566V11.1943C15.25 11.8624 14.8695 12.4723 14.2694 12.7661L8.98924 15.3508C8.36513 15.6563 7.63487 15.6563 7.01076 15.3508L1.73059 12.7661C1.13047 12.4723 0.75 11.8624 0.75 11.1943V4.80566C0.75 4.13749 1.13047 3.52764 1.73059 3.23387L7.01076 0.649175ZM8.32975 1.99642C8.12171 1.89459 7.87829 1.89458 7.67025 1.99642L3.1225 4.22259L7.99998 6.66133L12.8775 4.22258L8.32975 1.99642ZM2.25 11.1943V5.46339L7.25 7.96339V13.7978L2.39008 11.4188C2.30435 11.3769 2.25 11.2897 2.25 11.1943ZM8.75 13.7978L13.6099 11.4188C13.6956 11.3769 13.75 11.2897 13.75 11.1943V5.46338L8.75 7.96338V13.7978Z" fill="black"/>
</svg>
