<svg width="16" height="16" viewBox="0 0 16 16" fill="none" xmlns="http://www.w3.org/2000/svg">
<path fill-rule="evenodd" clip-rule="evenodd" d="M10.1363 0.803044C10.4292 0.510151 10.9041 0.510151 11.197 0.803044C11.4899 1.09594 11.4899 1.57081 11.197 1.8637L10.6956 2.36511C11.3464 3.02031 11.75 3.91418 11.75 4.90909C11.75 5.09853 11.7352 5.28481 11.7066 5.46683C11.8278 5.48849 11.9256 5.50956 12.0039 5.52882C12.4845 5.64696 12.75 6.07267 12.75 6.48843V6.58446L14.4033 5.96446C14.7912 5.81902 15.2235 6.01552 15.3689 6.40336C15.5144 6.7912 15.3179 7.22351 14.93 7.36895L12.75 8.18646V9.33788L14.7597 9.58909C15.1707 9.64046 15.4623 10.0153 15.4109 10.4263C15.3595 10.8373 14.9847 11.1289 14.5736 11.0775L12.75 10.8495V11.1429C12.75 11.5842 12.6865 12.0098 12.5682 12.4121L14.93 13.2978C15.3178 13.4432 15.5143 13.8755 15.3689 14.2634C15.2235 14.6512 14.7912 14.8477 14.4033 14.7023L11.9064 13.766C11.0445 14.9698 9.60741 15.75 8 15.75C6.39259 15.75 4.95553 14.9698 4.09358 13.766L1.59668 14.7023C1.20884 14.8477 0.776534 14.6512 0.631094 14.2634C0.485654 13.8755 0.682158 13.4432 1.07 13.2978L3.4318 12.4121C3.31348 12.0098 3.25 11.5842 3.25 11.1429V10.8495L1.42636 11.0775C1.01534 11.1289 0.640499 10.8373 0.589123 10.4263C0.537746 10.0153 0.82929 9.64046 1.2403 9.58909L3.25 9.33787V8.18646L1.06999 7.36895C0.68215 7.22351 0.485646 6.7912 0.631086 6.40336C0.776526 6.01552 1.20884 5.81902 1.59668 5.96446L3.25 6.58446V6.48843C3.25 6.07267 3.51555 5.64696 3.99611 5.52882C4.07444 5.50956 4.17216 5.48849 4.29339 5.46683C4.26481 5.28481 4.25 5.09852 4.25 4.90909C4.25 3.91418 4.65358 3.02031 5.30441 2.36511L4.80301 1.8637C4.51011 1.57081 4.51011 1.09594 4.80301 0.803044C5.0959 0.510151 5.57077 0.510151 5.86367 0.803044L6.58202 1.52139C7.02085 1.34623 7.50006 1.25 8 1.25C8.49994 1.25 8.97915 1.34623 9.41798 1.52139L10.1363 0.803044ZM5.78813 5.30763C6.36025 5.27304 7.08463 5.25 8 5.25C8.91537 5.25 9.63975 5.27304 10.2119 5.30763C10.2369 5.1787 10.25 5.04554 10.25 4.90909C10.25 3.73825 9.26456 2.75 8 2.75C6.73544 2.75 5.75 3.73825 5.75 4.90909C5.75 5.04554 5.7631 5.1787 5.78813 5.30763ZM4.75 7.64943V6.91235C5.25971 6.83812 6.23789 6.75 8 6.75C9.76211 6.75 10.7403 6.83812 11.25 6.91235V7.64941C11.2497 7.66099 11.2497 7.6726 11.25 7.68423V9.99015C11.2499 9.99734 11.2499 10.0045 11.25 10.0117V11.1429C11.25 12.8334 9.82087 14.25 8 14.25C6.17913 14.25 4.75 12.8334 4.75 11.1429V10.0116C4.7501 10.0045 4.7501 9.99735 4.75 9.99018V7.68421C4.75027 7.67259 4.75027 7.661 4.75 7.64943Z" fill="black"/>
</svg>
