<svg viewBox="0 0 24 24" width="24" height="24" fill="black" xmlns="http://www.w3.org/2000/svg">
 <g transform="translate(1.2497940063476562, 1.25)">
  <path d="M14.2199 0.21967C14.5128 -0.0732233 14.9876 -0.0732233 15.2805 0.21967C15.5734 0.512563 15.5734 0.987437 15.2805 1.28033L14.2805 2.28033C14.2316 2.32925 14.1776 2.36999 14.1203 2.40257C14.9732 3.26124 15.5002 4.44408 15.5002 5.75C15.5002 6.07745 15.467 6.39764 15.4036 6.70718C16.0244 6.78009 16.4233 6.85964 16.6728 6.92323C17.22 7.06274 17.5002 7.553 17.5002 8.00978L17.5002 9.16777L20.4869 8.04777C20.8747 7.90233 21.307 8.09884 21.4525 8.48668C21.5979 8.87452 21.4014 9.30683 21.0136 9.45227L17.5002 10.7698L17.5002 13.0879L20.8432 13.5058C21.2542 13.5572 21.5458 13.932 21.4944 14.343C21.443 14.754 21.0682 15.0456 20.6572 14.9942L17.5002 14.5996L17.5002 15.25C17.5002 16.0674 17.3549 16.8508 17.0888 17.5759L21.0136 19.0477C21.4014 19.1932 21.5979 19.6255 21.4525 20.0133C21.307 20.4012 20.8747 20.5977 20.4869 20.4522L16.4869 18.9522C16.4623 18.943 16.4385 18.9326 16.4155 18.9212C15.2122 20.7743 13.1243 22 10.7502 22C8.37608 22 6.28823 20.7743 5.08492 18.9212C5.06192 18.9326 5.03812 18.943 5.01355 18.9522L1.01355 20.4522C0.625706 20.5977 0.193396 20.4012 0.0479564 20.0133C-0.0974837 19.6255 0.0990205 19.1932 0.486861 19.0477L4.41165 17.5759C4.14549 16.8508 4.00021 16.0674 4.00021 15.25L4.00021 14.5996L0.843235 14.9942C0.43222 15.0456 0.0573771 14.754 0.00600026 14.343C-0.0453766 13.932 0.246168 13.5572 0.657183 13.5058L4.00021 13.0879L4.00021 10.7698L0.486861 9.45227C0.0990205 9.30683 -0.0974837 8.87452 0.0479564 8.48668C0.193396 8.09884 0.625706 7.90233 1.01355 8.04777L4.00021 9.16777L4.00021 8.00978C4.00021 7.553 4.28045 7.06274 4.82766 6.92323C5.07708 6.85964 5.47601 6.78009 6.09684 6.70718C6.03345 6.39764 6.00021 6.07745 6.00021 5.75C6.00021 4.44408 6.52721 3.26124 7.38016 2.40257C7.32279 2.36999 7.26879 2.32925 7.21988 2.28033L6.21988 1.28033C5.92698 0.987437 5.92698 0.512563 6.21988 0.21967C6.51277 -0.0732233 6.98764 -0.0732233 7.28054 0.21967L8.28054 1.21967C8.38256 1.3217 8.44905 1.4458 8.47999 1.57661C9.15447 1.20893 9.92794 1 10.7502 1C11.5725 1 12.3459 1.20893 13.0204 1.57661C13.0514 1.4458 13.1179 1.3217 13.2199 1.21967L14.2199 0.21967ZM7.60689 6.57972C8.43132 6.53166 9.46279 6.5 10.7502 6.5C12.0376 6.5 13.0691 6.53166 13.8935 6.57972C13.9631 6.3154 14.0002 6.03745 14.0002 5.75C14.0002 3.95507 12.5451 2.5 10.7502 2.5C8.95528 2.5 7.50021 3.95507 7.50021 5.75C7.50021 6.03745 7.53735 6.3154 7.60689 6.57972ZM5.50021 10.2329L5.50021 8.31108C6.17405 8.18376 7.68227 8 10.7502 8C13.8181 8 15.3264 8.18376 16.0002 8.31108L16.0002 10.2329C15.9999 10.2443 15.9999 10.2559 16.0002 10.2674L16.0002 13.7398C16.0001 13.7472 16.0001 13.7546 16.0002 13.762L16.0002 15.25C16.0002 18.1495 13.6497 20.5 10.7502 20.5C7.85071 20.5 5.50021 18.1495 5.50021 15.25L5.50021 13.762L5.50027 13.7463L5.50021 13.7398L5.50021 10.2674C5.50047 10.2559 5.50047 10.2444 5.50021 10.2329Z" fill-rule="EVENODD"></path>
 </g>
</svg>