<svg viewbox="0 0 16 16" width="16" height="16" fill="black" xmlns="http://www.w3.org/2000/svg">
 <g transform="translate(0.5831298828125, 0.5833740234375)">
  <path d="M9.5532 0.21967C9.8461 -0.0732233 10.321 -0.0732233 10.6139 0.21967C10.9068 0.512563 10.9068 0.987437 10.6139 1.28033L10.1125 1.78174C10.7633 2.43693 11.1669 3.33081 11.1669 4.32572C11.1669 4.51515 11.1521 4.70144 11.1235 4.88346C11.2447 4.90511 11.3424 4.92618 11.4208 4.94544C11.9013 5.06359 12.1669 5.4893 12.1669 5.90505L12.1669 6.00108L13.8202 5.38109C14.208 5.23565 14.6403 5.43215 14.7858 5.81999C14.9312 6.20783 14.7347 6.64014 14.3469 6.78558L12.1669 7.60308L12.1669 8.7545L14.1766 9.00571C14.5876 9.05709 14.8791 9.43193 14.8277 9.84295C14.7764 10.254 14.4015 10.5455 13.9905 10.4941L12.1669 10.2662L12.1669 10.5595C12.1669 11.0008 12.1034 11.4264 11.9851 11.8287L14.3469 12.7144C14.7347 12.8599 14.9312 13.2922 14.7858 13.68C14.6403 14.0679 14.208 14.2644 13.8202 14.1189L11.3233 13.1826C10.4613 14.3864 9.02428 15.1666 7.41687 15.1666C5.80946 15.1666 4.3724 14.3864 3.51045 13.1826L1.01355 14.1189C0.625713 14.2644 0.193404 14.0679 0.047964 13.68C-0.0974761 13.2922 0.0990281 12.8599 0.486868 12.7144L2.84867 11.8287C2.73035 11.4264 2.66687 11.0008 2.66687 10.5595L2.66687 10.2662L0.843227 10.4941C0.432212 10.5455 0.0573694 10.254 0.00599262 9.84295C-0.0453842 9.43193 0.24616 9.05709 0.657175 9.00571L2.66687 8.7545L2.66687 7.60308L0.486861 6.78558C0.0990205 6.64014 -0.0974837 6.20783 0.0479564 5.81999C0.193397 5.43215 0.625706 5.23565 1.01355 5.38109L2.66687 6.00108L2.66687 5.90505C2.66687 5.4893 2.93242 5.06359 3.41298 4.94544C3.49131 4.92618 3.58903 4.90511 3.71026 4.88346C3.68168 4.70144 3.66687 4.51515 3.66687 4.32572C3.66687 3.33081 4.07045 2.43693 4.72128 1.78174L4.21988 1.28033C3.92698 0.987437 3.92698 0.512563 4.21988 0.21967C4.51277 -0.0732233 4.98764 -0.0732233 5.28054 0.21967L5.99889 0.938019C6.43772 0.762855 6.91693 0.666626 7.41687 0.666626C7.91681 0.666626 8.39602 0.762855 8.83486 0.938019L9.5532 0.21967ZM5.205 4.72426C5.77712 4.68966 6.5015 4.66663 7.41687 4.66663C8.33224 4.66663 9.05662 4.68966 9.62874 4.72426C9.65377 4.59533 9.66687 4.46217 9.66687 4.32572C9.66687 3.15487 8.68143 2.16663 7.41687 2.16663C6.15231 2.16663 5.16687 3.15487 5.16687 4.32572C5.16687 4.46217 5.17997 4.59533 5.205 4.72426ZM4.16687 7.06606L4.16687 6.32898C4.67658 6.25475 5.65476 6.16663 7.41687 6.16663C9.17898 6.16663 10.1572 6.25475 10.6669 6.32898L10.6669 7.06604C10.6666 7.07762 10.6666 7.08922 10.6669 7.10086L10.6669 9.40677C10.6668 9.41396 10.6668 9.42113 10.6669 9.42829L10.6669 10.5595C10.6669 12.25 9.23774 13.6666 7.41687 13.6666C5.596 13.6666 4.16687 12.25 4.16687 10.5595L4.16687 9.42824C4.16697 9.42112 4.16697 9.41397 4.16687 9.40681L4.16687 7.10083C4.16714 7.08922 4.16714 7.07762 4.16687 7.06606Z" fill-rule="EVENODD"></path>
 </g>
</svg>