<svg width="24" height="24" viewBox="0 0 24 24" fill="none" xmlns="http://www.w3.org/2000/svg">
<path fill-rule="evenodd" clip-rule="evenodd" d="M14 2.75C9.99594 2.75 6.75 5.99594 6.75 10C6.75 11.1977 7.03984 12.3255 7.55255 13.3192C7.79621 13.7915 7.73472 14.3962 7.32906 14.8019C7.30859 14.8223 7.28694 14.8416 7.26424 14.8596L2.46551 18.6583C2.14074 18.9154 1.66904 18.8605 1.41195 18.5358C1.15486 18.211 1.20972 17.7393 1.53449 17.4822L6.13558 13.8399C5.56819 12.6799 5.25 11.3761 5.25 10C5.25 5.16751 9.16751 1.25 14 1.25C14.3136 1.25 14.6235 1.26652 14.929 1.2988C16.032 1.41531 16.2993 2.7009 15.6347 3.36545L12.75 6.25017V9.17742L14.8221 11.2495H17.7493L20.6345 8.3644C21.299 7.69988 22.5845 7.96713 22.7011 9.06995C22.7334 9.37578 22.75 9.68608 22.75 10C22.75 14.8325 18.8325 18.75 14 18.75C12.6757 18.75 11.4183 18.4553 10.2915 17.9273L6.71287 22.4645C6.45635 22.7897 5.98475 22.8454 5.65953 22.5889C5.3343 22.3324 5.2786 21.8608 5.53512 21.5355L9.26857 16.8021C9.28678 16.779 9.30633 16.757 9.32712 16.7362C9.72679 16.3365 10.3208 16.2705 10.7903 16.5028C11.757 16.9809 12.846 17.25 14 17.25C18.0041 17.25 21.25 14.0041 21.25 10C21.25 9.957 21.2496 9.9141 21.2489 9.87129L18.7368 12.3834C18.5024 12.6178 18.1844 12.7495 17.8529 12.7495H14.7185C14.387 12.7495 14.0691 12.6178 13.8347 12.3834L11.6161 10.1649C11.3817 9.93044 11.25 9.6125 11.25 9.28098V6.14662C11.25 5.8151 11.3817 5.49716 11.6161 5.26274L14.1278 2.7511C14.0853 2.75037 14.0427 2.75 14 2.75Z" fill="black"/>
</svg>
