<svg width="16" height="16" viewBox="0 0 16 16" fill="none" xmlns="http://www.w3.org/2000/svg">
<path fill-rule="evenodd" clip-rule="evenodd" d="M11.4167 1.5C11.4167 1.08579 11.0809 0.75 10.6667 0.75C10.2525 0.75 9.91669 1.08579 9.91669 1.5V2.25H6.08331V1.5C6.08331 1.08579 5.74753 0.75 5.33331 0.75C4.9191 0.75 4.58331 1.08579 4.58331 1.5V2.25H3.33333C2.18274 2.25 1.25 3.18274 1.25 4.33333V13.6667C1.25 14.8173 2.18274 15.75 3.33333 15.75H12.6667C13.8173 15.75 14.75 14.8173 14.75 13.6667V4.33333C14.75 3.18274 13.8173 2.25 12.6667 2.25H11.4167V1.5ZM13.25 6.25V4.33333C13.25 4.01117 12.9888 3.75 12.6667 3.75H11.4167V4.5C11.4167 4.91421 11.0809 5.25 10.6667 5.25C10.2525 5.25 9.91669 4.91421 9.91669 4.5V3.75H6.08331V4.5C6.08331 4.91421 5.74753 5.25 5.33331 5.25C4.9191 5.25 4.58331 4.91421 4.58331 4.5V3.75H3.33333C3.01117 3.75 2.75 4.01117 2.75 4.33333V6.25H13.25ZM2.75 7.75H13.25V13.6667C13.25 13.9888 12.9888 14.25 12.6667 14.25H3.33333C3.01117 14.25 2.75 13.9888 2.75 13.6667V7.75Z" fill="black"/>
</svg>
