<svg viewbox="0 0 24 24" width="24" height="24" fill="black" xmlns="http://www.w3.org/2000/svg">
 <g transform="translate(2.25, 1.25)">
  <path d="M14.5 0.75C14.5 0.335786 14.1642 0 13.75 0C13.3358 0 13 0.335786 13 0.75L13 2L6.5 2L6.5 0.75C6.5 0.335786 6.16421 0 5.75 0C5.33579 0 5 0.335786 5 0.75L5 2L2.75 2C1.23122 2 0 3.23122 0 4.75L0 18.75C0 20.2688 1.23122 21.5 2.75 21.5L16.75 21.5C18.2688 21.5 19.5 20.2688 19.5 18.75L19.5 4.75C19.5 3.23122 18.2688 2 16.75 2L14.5 2L14.5 0.75ZM18 8L18 4.75C18 4.05964 17.4404 3.5 16.75 3.5L14.5 3.5L14.5 4.75C14.5 5.16421 14.1642 5.5 13.75 5.5C13.3358 5.5 13 5.16421 13 4.75L13 3.5L6.5 3.5L6.5 4.75C6.5 5.16421 6.16421 5.5 5.75 5.5C5.33579 5.5 5 5.16421 5 4.75L5 3.5L2.75 3.5C2.05964 3.5 1.5 4.05964 1.5 4.75L1.5 8L18 8ZM1.5 9.5L18 9.5L18 18.75C18 19.4404 17.4404 20 16.75 20L2.75 20C2.05964 20 1.5 19.4404 1.5 18.75L1.5 9.5Z" fill-rule="EVENODD"></path>
 </g>
</svg>