<svg viewBox="0 0 16 16" width="16" height="16" fill="black" xmlns="http://www.w3.org/2000/svg">
 <g transform="translate(1.25, 0.75)">
  <path d="M10.1667 0.75C10.1667 0.335786 9.8309 0 9.41669 0C9.00247 0 8.66669 0.335786 8.66669 0.75L8.66669 1.5L4.83331 1.5L4.83331 0.75C4.83331 0.335786 4.49753 0 4.08331 0C3.6691 0 3.33331 0.335786 3.33331 0.75L3.33331 1.5L2.08333 1.5C0.93274 1.5 0 2.43274 0 3.58333L0 12.9167C0 14.0673 0.93274 15 2.08333 15L11.4167 15C12.5673 15 13.5 14.0673 13.5 12.9167L13.5 3.58333C13.5 2.43274 12.5673 1.5 11.4167 1.5L10.1667 1.5L10.1667 0.75ZM12 5.5L12 3.58333C12 3.26117 11.7388 3 11.4167 3L10.1667 3L10.1667 3.75C10.1667 4.16421 9.8309 4.5 9.41669 4.5C9.00247 4.5 8.66669 4.16421 8.66669 3.75L8.66669 3L4.83331 3L4.83331 3.75C4.83331 4.16421 4.49753 4.5 4.08331 4.5C3.6691 4.5 3.33331 4.16421 3.33331 3.75L3.33331 3L2.08333 3C1.76117 3 1.5 3.26117 1.5 3.58333L1.5 5.5L12 5.5ZM1.5 7L12 7L12 12.9167C12 13.2388 11.7388 13.5 11.4167 13.5L2.08333 13.5C1.76117 13.5 1.5 13.2388 1.5 12.9167L1.5 7Z" fill-rule="EVENODD"></path>
 </g>
</svg>