<svg width="24" height="24" viewBox="0 0 24 24" fill="none" xmlns="http://www.w3.org/2000/svg">
<path fill-rule="evenodd" clip-rule="evenodd" d="M1.53033 0.46967C1.23744 0.176777 0.762563 0.176777 0.46967 0.46967C0.176777 0.762563 0.176777 1.23744 0.46967 1.53033L4.18934 5.25H3C2.27065 5.25 1.57118 5.53973 1.05546 6.05546C0.539731 6.57118 0.25 7.27065 0.25 8V19C0.25 19.7293 0.539732 20.4288 1.05546 20.9445C1.57118 21.4603 2.27065 21.75 3 21.75H20.6893L22.4697 23.5303C22.7626 23.8232 23.2374 23.8232 23.5303 23.5303C23.8232 23.2374 23.8232 22.7626 23.5303 22.4697L21.5306 20.4699C21.5306 20.47 21.5305 20.4698 21.5306 20.4699L15.8209 14.7603C15.8144 14.7535 15.8077 14.7468 15.8009 14.7403L10.2598 9.19909C10.2532 9.19227 10.2465 9.18559 10.2397 9.17906L1.53033 0.46967ZM19.1893 20.25L15.3284 16.3891C15.0471 16.6688 14.731 16.9131 14.387 17.1154C13.7854 17.4693 13.1133 17.6862 12.4183 17.7508C11.7234 17.8154 11.0228 17.726 10.3663 17.4891C9.70981 17.2521 9.1136 16.8734 8.62009 16.3799C8.12658 15.8864 7.74788 15.2902 7.51094 14.6337C7.27401 13.9772 7.18465 13.2766 7.24922 12.5817C7.3138 11.8867 7.53072 11.2146 7.88456 10.613C8.0869 10.269 8.33115 9.95289 8.61093 9.67159L5.68934 6.75H3C2.66848 6.75 2.35054 6.8817 2.11612 7.11612C1.8817 7.35054 1.75 7.66848 1.75 8V19C1.75 19.3315 1.8817 19.6495 2.11612 19.8839C2.35054 20.1183 2.66848 20.25 3 20.25H19.1893ZM9.67159 10.7323C9.48138 10.924 9.31524 11.1393 9.1775 11.3734C8.93539 11.7851 8.78697 12.245 8.74279 12.7204C8.6986 13.1959 8.75975 13.6753 8.92186 14.1245C9.08398 14.5737 9.34308 14.9816 9.68075 15.3193C10.0184 15.6569 10.4263 15.916 10.8755 16.0781C11.3247 16.2403 11.8041 16.3014 12.2796 16.2572C12.755 16.213 13.2149 16.0646 13.6266 15.8225C13.8607 15.6848 14.076 15.5186 14.2677 15.3284L9.67159 10.7323Z" fill="black"/>
<path d="M9 2.25C8.58579 2.25 8.25 2.58579 8.25 3C8.25 3.41421 8.58579 3.75 9 3.75H14.5986L16.376 6.41603C16.5151 6.62467 16.7492 6.75 17 6.75H21C21.3315 6.75 21.6495 6.8817 21.8839 7.11612C22.1183 7.35054 22.25 7.66848 22.25 8V17.34C22.25 17.7542 22.5858 18.09 23 18.09C23.4142 18.09 23.75 17.7542 23.75 17.34V8C23.75 7.27065 23.4603 6.57118 22.9445 6.05546C22.4288 5.53973 21.7293 5.25 21 5.25H17.4014L15.624 2.58397C15.4849 2.37533 15.2508 2.25 15 2.25H9Z" fill="black"/>
</svg>
