<svg width="16" height="16" viewBox="0 0 16 16" fill="none" xmlns="http://www.w3.org/2000/svg">
<path fill-rule="evenodd" clip-rule="evenodd" d="M8 5.75C6.20507 5.75 4.75 7.20507 4.75 9C4.75 10.7949 6.20507 12.25 8 12.25C9.79493 12.25 11.25 10.7949 11.25 9C11.25 7.20507 9.79493 5.75 8 5.75ZM6.25 9C6.25 8.0335 7.0335 7.25 8 7.25C8.9665 7.25 9.75 8.0335 9.75 9C9.75 9.9665 8.9665 10.75 8 10.75C7.0335 10.75 6.25 9.9665 6.25 9Z" fill="black"/>
<path fill-rule="evenodd" clip-rule="evenodd" d="M6.09091 1.75C5.87065 1.75 5.66153 1.84682 5.51903 2.01477L4.47095 3.25H2.27273C1.72471 3.25 1.20661 3.47839 0.830257 3.87267C0.455031 4.26576 0.25 4.79177 0.25 5.33333V12.6667C0.25 13.2082 0.455031 13.7342 0.830257 14.1273C1.20661 14.5216 1.72471 14.75 2.27273 14.75H13.7273C14.2753 14.75 14.7934 14.5216 15.1697 14.1273C15.545 13.7342 15.75 13.2082 15.75 12.6667V5.33333C15.75 4.79176 15.545 4.26576 15.1697 3.87267C14.7934 3.47839 14.2753 3.25 13.7273 3.25H11.529L10.481 2.01477C10.3385 1.84682 10.1293 1.75 9.90909 1.75H6.09091ZM5.39006 4.48523L6.43814 3.25H9.56186L10.6099 4.48523C10.7524 4.65318 10.9616 4.75 11.1818 4.75H13.7273C13.8544 4.75 13.9837 4.80256 14.0847 4.90838C14.1869 5.01539 14.25 5.16766 14.25 5.33333V12.6667C14.25 12.8323 14.1869 12.9846 14.0847 13.0916C13.9837 13.1974 13.8544 13.25 13.7273 13.25H2.27273C2.14565 13.25 2.0163 13.1974 1.91529 13.0916C1.81315 12.9846 1.75 12.8323 1.75 12.6667V5.33333C1.75 5.16766 1.81315 5.01539 1.91529 4.90838C2.0163 4.80256 2.14565 4.75 2.27273 4.75H4.81818C5.03844 4.75 5.24756 4.65318 5.39006 4.48523Z" fill="black"/>
</svg>
