<svg width="16" height="16" viewBox="0 0 16 16" fill="none" xmlns="http://www.w3.org/2000/svg">
<path fill-rule="evenodd" clip-rule="evenodd" d="M0.46967 0.46967C0.762563 0.176777 1.23744 0.176777 1.53033 0.46967L15.5303 14.4697C15.8232 14.7626 15.8232 15.2374 15.5303 15.5303C15.2374 15.8232 14.7626 15.8232 14.4697 15.5303L13.6893 14.75H2.27273C1.72471 14.75 1.20661 14.5216 0.830257 14.1273C0.455031 13.7342 0.25 13.2082 0.25 12.6667V5.33333C0.25 4.79177 0.455031 4.26576 0.830257 3.87267C1.18786 3.49804 1.67342 3.27318 2.19103 3.25169L0.46967 1.53033C0.176777 1.23744 0.176777 0.762563 0.46967 0.46967ZM10.2675 11.3282L12.1893 13.25H2.27273C2.14565 13.25 2.0163 13.1974 1.91529 13.0916C1.81315 12.9846 1.75 12.8323 1.75 12.6667V5.33333C1.75 5.16766 1.81315 5.01539 1.91529 4.90838C2.0163 4.80256 2.14565 4.75 2.27273 4.75H3.68934L5.67184 6.73251C5.10201 7.31756 4.75 8.11745 4.75 9.00001C4.75 10.7949 6.20507 12.25 8 12.25C8.88256 12.25 9.68245 11.898 10.2675 11.3282ZM9.20681 10.2675L6.73253 7.79319C6.43295 8.10766 6.25 8.53268 6.25 9.00001C6.25 9.9665 7.0335 10.75 8 10.75C8.46732 10.75 8.89235 10.5671 9.20681 10.2675Z" fill="black"/>
<path d="M5.34091 2.5C5.34091 2.08579 5.6767 1.75 6.09091 1.75H9.90909C10.1293 1.75 10.3385 1.84682 10.481 2.01477L11.529 3.25H13.7273C14.2753 3.25 14.7934 3.47839 15.1697 3.87267C15.545 4.26576 15.75 4.79176 15.75 5.33333V11.56C15.75 11.9742 15.4142 12.31 15 12.31C14.5858 12.31 14.25 11.9742 14.25 11.56V5.33333C14.25 5.16766 14.1869 5.01539 14.0847 4.90838C13.9837 4.80256 13.8544 4.75 13.7273 4.75H11.1818C10.9616 4.75 10.7524 4.65318 10.6099 4.48523L9.56186 3.25H6.09091C5.6767 3.25 5.34091 2.91421 5.34091 2.5Z" fill="black"/>
</svg>
