<svg width="24" height="24" viewBox="0 0 24 24" fill="none" xmlns="http://www.w3.org/2000/svg">
<path fill-rule="evenodd" clip-rule="evenodd" d="M12 8.25C9.37665 8.25 7.25 10.3766 7.25 13C7.25 15.6234 9.37665 17.75 12 17.75C14.6234 17.75 16.75 15.6234 16.75 13C16.75 10.3766 14.6234 8.25 12 8.25ZM8.75 13C8.75 11.2051 10.2051 9.75 12 9.75C13.7949 9.75 15.25 11.2051 15.25 13C15.25 14.7949 13.7949 16.25 12 16.25C10.2051 16.25 8.75 14.7949 8.75 13Z" fill="black"/>
<path fill-rule="evenodd" clip-rule="evenodd" d="M9 2.25C8.74924 2.25 8.51506 2.37533 8.37596 2.58397L6.59861 5.25H3C2.27065 5.25 1.57118 5.53973 1.05546 6.05546C0.539731 6.57118 0.25 7.27065 0.25 8V19C0.25 19.7293 0.539732 20.4288 1.05546 20.9445C1.57118 21.4603 2.27065 21.75 3 21.75H21C21.7293 21.75 22.4288 21.4603 22.9445 20.9445C23.4603 20.4288 23.75 19.7293 23.75 19V8C23.75 7.27065 23.4603 6.57118 22.9445 6.05546C22.4288 5.53973 21.7293 5.25 21 5.25H17.4014L15.624 2.58397C15.4849 2.37533 15.2508 2.25 15 2.25H9ZM7.62404 6.41603L9.40139 3.75H14.5986L16.376 6.41603C16.5151 6.62467 16.7492 6.75 17 6.75H21C21.3315 6.75 21.6495 6.8817 21.8839 7.11612C22.1183 7.35054 22.25 7.66848 22.25 8V19C22.25 19.3315 22.1183 19.6495 21.8839 19.8839C21.6495 20.1183 21.3315 20.25 21 20.25H3C2.66848 20.25 2.35054 20.1183 2.11612 19.8839C1.8817 19.6495 1.75 19.3315 1.75 19V8C1.75 7.66848 1.8817 7.35054 2.11612 7.11612C2.35054 6.8817 2.66848 6.75 3 6.75H7C7.25076 6.75 7.48494 6.62467 7.62404 6.41603Z" fill="black"/>
</svg>
