<svg viewbox="0 0 24 24" width="24" height="24" fill="black" xmlns="http://www.w3.org/2000/svg">
 <g transform="translate(0.25, 2.25)">
  <path d="M11.75 6C9.12665 6 7 8.12665 7 10.75C7 13.3734 9.12665 15.5 11.75 15.5C14.3734 15.5 16.5 13.3734 16.5 10.75C16.5 8.12665 14.3734 6 11.75 6ZM8.5 10.75C8.5 8.95507 9.95507 7.5 11.75 7.5C13.5449 7.5 15 8.95507 15 10.75C15 12.5449 13.5449 14 11.75 14C9.95507 14 8.5 12.5449 8.5 10.75Z" fill-rule="EVENODD"></path>
  <path d="M8.75 0C8.49924 0 8.26506 0.125326 8.12596 0.333975L6.34861 3L2.75 3C2.02065 3 1.32118 3.28973 0.805456 3.80546C0.289731 4.32118 0 5.02065 0 5.75L0 16.75C0 17.4793 0.289732 18.1788 0.805456 18.6945C1.32118 19.2103 2.02065 19.5 2.75 19.5L20.75 19.5C21.4793 19.5 22.1788 19.2103 22.6945 18.6945C23.2103 18.1788 23.5 17.4793 23.5 16.75L23.5 5.75C23.5 5.02065 23.2103 4.32118 22.6945 3.80546C22.1788 3.28973 21.4793 3 20.75 3L17.1514 3L15.374 0.333975C15.2349 0.125326 15.0008 0 14.75 0L8.75 0ZM7.37404 4.16603L9.15139 1.5L14.3486 1.5L16.126 4.16603C16.2651 4.37467 16.4992 4.5 16.75 4.5L20.75 4.5C21.0815 4.5 21.3995 4.6317 21.6339 4.86612C21.8683 5.10054 22 5.41848 22 5.75L22 16.75C22 17.0815 21.8683 17.3995 21.6339 17.6339C21.3995 17.8683 21.0815 18 20.75 18L2.75 18C2.41848 18 2.10054 17.8683 1.86612 17.6339C1.6317 17.3995 1.5 17.0815 1.5 16.75L1.5 5.75C1.5 5.41848 1.6317 5.10054 1.86612 4.86612C2.10054 4.6317 2.41848 4.5 2.75 4.5L6.75 4.5C7.00076 4.5 7.23494 4.37467 7.37404 4.16603Z" fill-rule="EVENODD"></path>
 </g>
</svg>