<svg width="24" height="24" viewBox="0 0 24 24" fill="none" xmlns="http://www.w3.org/2000/svg">
<path d="M12.6187 3.38128C12.277 3.03957 11.723 3.03957 11.3813 3.38128L6.38128 8.38128C6.03957 8.72299 6.03957 9.27701 6.38128 9.61872C6.72299 9.96043 7.27701 9.96043 7.61872 9.61872L12 5.23744L16.3813 9.61872C16.723 9.96043 17.277 9.96043 17.6187 9.61872C17.9604 9.27701 17.9604 8.72299 17.6187 8.38128L12.6187 3.38128Z" fill="black"/>
<path d="M6.38128 15.6187L11.3813 20.6187C11.723 20.9604 12.277 20.9604 12.6187 20.6187L17.6187 15.6187C17.9604 15.277 17.9604 14.723 17.6187 14.3813C17.277 14.0396 16.723 14.0396 16.3813 14.3813L12 18.7626L7.61872 14.3813C7.27701 14.0396 6.72299 14.0396 6.38128 14.3813C6.03957 14.723 6.03957 15.277 6.38128 15.6187Z" fill="black"/>
</svg>
