<svg viewbox="0 0 16 16" width="16" height="16" fill="black" xmlns="http://www.w3.org/2000/svg">
 <g transform="translate(4.25, 2.25)">
  <path d="M4.28033 0.21967C3.98744 -0.0732233 3.51256 -0.0732233 3.21967 0.21967L0.21967 3.21967C-0.0732228 3.51256 -0.0732228 3.98744 0.21967 4.28033C0.512564 4.57322 0.987437 4.57322 1.28033 4.28033L3.75 1.81066L6.21967 4.28033C6.51256 4.57322 6.98744 4.57322 7.28033 4.28033C7.57322 3.98744 7.57322 3.51256 7.28033 3.21967L4.28033 0.21967Z" fill-rule="NONZERO"></path>
  <path d="M0.21967 8.28033L3.21967 11.2803C3.51256 11.5732 3.98744 11.5732 4.28033 11.2803L7.28033 8.28033C7.57322 7.98744 7.57322 7.51256 7.28033 7.21967C6.98744 6.92678 6.51256 6.92678 6.21967 7.21967L3.75 9.68934L1.28033 7.21967C0.987437 6.92678 0.512563 6.92678 0.21967 7.21967C-0.0732234 7.51256 -0.0732234 7.98744 0.21967 8.28033Z" fill-rule="NONZERO"></path>
 </g>
</svg>