<svg viewbox="0 0 24 24" width="24" height="24" fill="black" xmlns="http://www.w3.org/2000/svg">
 <g transform="translate(1.2498522996902466, 3.25)">
  <path d="M2.75015 1.5C2.41863 1.5 2.10068 1.6317 1.86626 1.86612C1.63184 2.10054 1.50015 2.41848 1.50015 2.75L1.50015 4.75C1.50015 5.16421 1.16436 5.5 0.750148 5.5C0.335934 5.5 0.000147643 5.16421 0.000147643 4.75L0.000147643 2.75C0.000147643 2.02065 0.289879 1.32118 0.805604 0.805456C1.32133 0.289731 2.0208 0 2.75015 0L18.7501 0C19.4795 0 20.179 0.289731 20.6947 0.805456C21.2104 1.32118 21.5001 2.02065 21.5001 2.75L21.5001 14.75C21.5001 15.4793 21.2104 16.1788 20.6947 16.6945C20.179 17.2103 19.4795 17.5 18.7501 17.5L12.7501 17.5C12.3359 17.5 12.0001 17.1642 12.0001 16.75C12.0001 16.3358 12.3359 16 12.7501 16L18.7501 16C19.0817 16 19.3996 15.8683 19.634 15.6339C19.8685 15.3995 20.0001 15.0815 20.0001 14.75L20.0001 2.75C20.0001 2.41848 19.8685 2.10054 19.634 1.86612C19.3996 1.6317 19.0817 1.5 18.7501 1.5L2.75015 1.5ZM0.00474376 8.7171C0.0505303 8.30542 0.421376 8.00881 0.833052 8.0546C3.03307 8.29928 5.08435 9.28531 6.64959 10.8506C8.21483 12.4158 9.20086 14.4671 9.44555 16.6671C9.49134 17.0788 9.19473 17.4496 8.78305 17.4954C8.37138 17.5412 8.00053 17.2446 7.95474 16.8329C7.7477 14.9713 6.91337 13.2357 5.58893 11.9112C4.2645 10.5868 2.5288 9.75245 0.667244 9.5454C0.255569 9.49962 -0.0410428 9.12877 0.00474376 8.7171ZM0.0152748 12.7001C0.0980473 12.2943 0.494161 12.0324 0.900021 12.1151C2.00505 12.3405 3.0194 12.8858 3.81686 13.6833C4.61432 14.4807 5.15966 15.4951 5.38502 16.6001C5.46779 17.006 5.20588 17.4021 4.80002 17.4849C4.39416 17.5676 3.99805 17.3057 3.91527 16.8999C3.7487 16.0831 3.34562 15.3334 2.7562 14.7439C2.16678 14.1545 1.41703 13.7514 0.600275 13.5849C0.194416 13.5021 -0.0674977 13.106 0.0152748 12.7001Z" fill-rule="EVENODD"></path>
 </g>
</svg>