<svg width="16" height="16" viewBox="0 0 16 16" fill="none" xmlns="http://www.w3.org/2000/svg">
<path d="M6.375 4C6.375 3.65482 6.65482 3.375 7 3.375H9C9.34518 3.375 9.625 3.65482 9.625 4C9.625 4.34518 9.34518 4.625 9 4.625H7C6.65482 4.625 6.375 4.34518 6.375 4Z" fill="black"/>
<path fill-rule="evenodd" clip-rule="evenodd" d="M3.5 0.25C2.25736 0.25 1.25 1.25736 1.25 2.5V11.5C1.25 12.7426 2.25736 13.75 3.5 13.75H4.94223L4.80479 14.9182C4.77595 15.1634 4.87836 15.4056 5.07431 15.5557C5.27026 15.7058 5.53079 15.7416 5.75997 15.6499L8 14.7539L10.24 15.6499C10.4692 15.7416 10.7297 15.7058 10.9257 15.5557C11.1216 15.4056 11.224 15.1634 11.1952 14.9182L11.0578 13.75H12.5C13.7426 13.75 14.75 12.7426 14.75 11.5V2.5C14.75 1.25736 13.7426 0.25 12.5 0.25H3.5ZM10.8813 12.25H12.5C12.9142 12.25 13.25 11.9142 13.25 11.5V2.5C13.25 2.08579 12.9142 1.75 12.5 1.75H3.5C3.08579 1.75 2.75 2.08579 2.75 2.5V11.5C2.75 11.9142 3.08579 12.25 3.5 12.25H5.1187L5.29906 10.7169C4.98307 10.2208 4.79999 9.63181 4.79999 9.00005C4.79999 7.23274 6.23268 5.80005 7.99999 5.80005C9.7673 5.80005 11.2 7.23274 11.2 9.00005C11.2 9.6318 11.0169 10.2208 10.7009 10.7169L10.8813 12.25ZM9.42639 11.8653C8.99692 12.0796 8.51253 12.2 7.99999 12.2C7.48746 12.2 7.00307 12.0796 6.57361 11.8653L6.33271 13.913L7.74002 13.3501C7.90691 13.2833 8.09308 13.2833 8.25997 13.3501L9.66729 13.913L9.42639 11.8653ZM6.19999 9.00005C6.19999 8.00594 7.00588 7.20005 7.99999 7.20005C8.9941 7.20005 9.79999 8.00594 9.79999 9.00005C9.79999 9.99416 8.9941 10.8 7.99999 10.8C7.00588 10.8 6.19999 9.99416 6.19999 9.00005Z" fill="black"/>
</svg>
