<svg width="24" height="24" viewBox="0 0 24 24" fill="none" xmlns="http://www.w3.org/2000/svg">
<path d="M10 5.25C9.58579 5.25 9.25 5.58579 9.25 6C9.25 6.41421 9.58579 6.75 10 6.75H14C14.4142 6.75 14.75 6.41421 14.75 6C14.75 5.58579 14.4142 5.25 14 5.25H10Z" fill="black"/>
<path fill-rule="evenodd" clip-rule="evenodd" d="M6 1.25C4.48122 1.25 3.25 2.48122 3.25 4V18C3.25 19.5188 4.48122 20.75 6 20.75H7.38927L7.25496 21.9141C7.2234 22.1876 7.34423 22.4564 7.56974 22.6143C7.79525 22.7723 8.08917 22.794 8.33542 22.6708L12 20.8385L15.6646 22.6708C15.9109 22.794 16.2048 22.7723 16.4303 22.6143C16.6558 22.4564 16.7766 22.1876 16.7451 21.9141L16.6108 20.75H18C19.5188 20.75 20.75 19.5188 20.75 18V4C20.75 2.48122 19.5188 1.25 18 1.25H6ZM7.98966 15.5466L7.56235 19.25H6C5.30964 19.25 4.75 18.6904 4.75 18V4C4.75 3.30964 5.30964 2.75 6 2.75H18C18.6904 2.75 19.25 3.30964 19.25 4V18C19.25 18.6904 18.6904 19.25 18 19.25H16.4377L16.0104 15.5466C16.4787 14.8106 16.75 13.937 16.75 13C16.75 10.3766 14.6234 8.25 12 8.25C9.37665 8.25 7.25 10.3766 7.25 13C7.25 13.937 7.52131 14.8106 7.98966 15.5466ZM12 17.75C12.9859 17.75 13.9016 17.4497 14.6607 16.9355L15.0961 20.7096L12.3354 19.3292C12.1243 19.2236 11.8757 19.2236 11.6646 19.3292L8.90389 20.7096L9.33936 16.9355C10.0984 17.4497 11.0141 17.75 12 17.75ZM8.75 13C8.75 11.2051 10.2051 9.75 12 9.75C13.7949 9.75 15.25 11.2051 15.25 13C15.25 14.7949 13.7949 16.25 12 16.25C10.2051 16.25 8.75 14.7949 8.75 13Z" fill="black"/>
</svg>
