<svg width="24" height="24" viewBox="0 0 24 24" fill="none" xmlns="http://www.w3.org/2000/svg">
<path d="M7.08971 12.4635C7.13158 12.4102 7.19354 12.3222 7.25206 12.2391C7.27942 12.2003 7.30602 12.1625 7.32947 12.1299C7.42023 12.0034 7.52743 11.8605 7.65212 11.7153C7.90768 11.4177 8.2067 11.1466 8.53716 10.9916C8.84439 10.8476 9.19122 10.7957 9.61698 10.9483C10.0688 11.1102 10.6741 11.5265 11.4103 12.4634C12.2455 13.5265 13.0643 14.1727 13.877 14.4639C14.7158 14.7645 15.4739 14.6601 16.0997 14.3666C16.7022 14.0841 17.1644 13.6364 17.4858 13.2621C17.6496 13.0714 17.7849 12.8901 17.889 12.7451C17.9453 12.6667 17.9846 12.6106 18.0143 12.5682C18.0484 12.5194 18.0701 12.4885 18.0897 12.4634C18.3456 12.1377 18.2891 11.6662 17.9634 11.4103C17.6377 11.1544 17.1662 11.211 16.9103 11.5367C16.8684 11.5899 16.8065 11.6779 16.748 11.7609C16.7206 11.7998 16.694 11.8376 16.6705 11.8703C16.5798 11.9967 16.4726 12.1397 16.3479 12.2849C16.0923 12.5824 15.7933 12.8535 15.4628 13.0085C15.1556 13.1526 14.8088 13.2044 14.383 13.0518C13.9312 12.8899 13.3259 12.4736 12.5897 11.5367C11.7545 10.4736 10.9357 9.82743 10.123 9.53622C9.28422 9.23567 8.52614 9.34009 7.90034 9.63354C7.29777 9.91609 6.83562 10.3637 6.51418 10.738C6.35036 10.9288 6.2151 11.11 6.11096 11.2551C6.05463 11.3335 6.01527 11.3898 5.98558 11.4322C5.95136 11.4811 5.92999 11.5116 5.91029 11.5367C5.65436 11.8624 5.71091 12.3339 6.0366 12.5898C6.36229 12.8457 6.83379 12.7892 7.08971 12.4635Z" fill="black"/>
<path fill-rule="evenodd" clip-rule="evenodd" d="M12 1.25C6.06294 1.25 1.25 6.06294 1.25 12C1.25 17.9371 6.06294 22.75 12 22.75C17.9371 22.75 22.75 17.9371 22.75 12C22.75 6.06294 17.9371 1.25 12 1.25ZM2.75 12C2.75 6.89137 6.89137 2.75 12 2.75C17.1086 2.75 21.25 6.89137 21.25 12C21.25 17.1086 17.1086 21.25 12 21.25C6.89137 21.25 2.75 17.1086 2.75 12Z" fill="black"/>
</svg>
