<svg width="16" height="16" viewBox="0 0 16 16" fill="none" xmlns="http://www.w3.org/2000/svg">
<path d="M8.56492 7.50662C8.96824 7.96846 9.29237 8.14825 9.51685 8.21363C9.73145 8.27613 9.91768 8.25275 10.0943 8.18262C10.4177 8.0542 10.6126 7.84481 10.7931 7.65096C10.8606 7.57846 10.9261 7.50809 10.9955 7.44499C11.302 7.16636 11.7763 7.18894 12.055 7.49544C12.3336 7.80193 12.311 8.27626 12.0045 8.5549C12.0408 8.52192 11.4301 9.26614 10.6479 9.57673C10.2112 9.75012 9.68066 9.82366 9.09742 9.65379C8.52404 9.48681 7.96927 9.10497 7.43509 8.49327C7.03177 8.03142 6.70765 7.85164 6.48318 7.78627C6.26858 7.72378 6.08234 7.74716 5.90572 7.8173C5.58235 7.94571 5.38758 8.15492 5.20715 8.34872C5.13955 8.42134 5.07396 8.49179 5.00437 8.55502C4.69781 8.83358 4.22348 8.81087 3.94493 8.50431C3.66637 8.19775 3.68908 7.72342 3.99564 7.44486C3.95908 7.47808 4.57007 6.73375 5.35211 6.4232C5.78876 6.24979 6.31933 6.17625 6.90258 6.3461C7.47596 6.51308 8.03074 6.89492 8.56492 7.50662Z" fill="black"/>
<path fill-rule="evenodd" clip-rule="evenodd" d="M3.33333 1.25C2.18274 1.25 1.25 2.18274 1.25 3.33333V12.6667C1.25 13.8173 2.18274 14.75 3.33333 14.75H12.6667C13.8173 14.75 14.75 13.8173 14.75 12.6667V3.33333C14.75 2.18274 13.8173 1.25 12.6667 1.25H3.33333ZM2.75 3.33333C2.75 3.01117 3.01117 2.75 3.33333 2.75H12.6667C12.9888 2.75 13.25 3.01117 13.25 3.33333V12.6667C13.25 12.9888 12.9888 13.25 12.6667 13.25H3.33333C3.01117 13.25 2.75 12.9888 2.75 12.6667V3.33333Z" fill="black"/>
</svg>
