<svg width="16" height="16" viewBox="0 0 16 16" fill="none" xmlns="http://www.w3.org/2000/svg">
<path d="M8.58747 7.53373C9.06457 8.13487 9.45235 8.37333 9.72274 8.45997C9.97722 8.54152 10.1977 8.51156 10.4095 8.41898C10.6373 8.31945 10.8508 8.14744 11.0365 7.95886C11.1268 7.86725 11.2043 7.77814 11.2703 7.69968L11.3005 7.66337C11.3487 7.6053 11.42 7.51934 11.4696 7.46972C11.7624 7.17678 12.2373 7.17671 12.5302 7.46956C12.821 7.76021 12.8232 8.23016 12.537 8.52359C12.5367 8.52384 12.5362 8.52446 12.5353 8.5255C12.5322 8.52904 12.525 8.53743 12.512 8.5529L12.4872 8.58262C12.4656 8.60858 12.4359 8.64424 12.4182 8.66534C12.34 8.75818 12.2343 8.8804 12.1052 9.01145C11.8523 9.2682 11.4832 9.5868 11.0101 9.79351C10.5211 10.0072 9.92233 10.0991 9.26498 9.88842C8.62354 9.68287 8.00686 9.21506 7.41253 8.46621C6.93543 7.86507 6.54766 7.62662 6.27728 7.53998C6.0228 7.45844 5.80236 7.48841 5.59048 7.58099C5.36267 7.68053 5.1492 7.85256 4.96346 8.04113C4.87322 8.13274 4.79567 8.22186 4.72965 8.30032L4.69949 8.33655C4.65133 8.39462 4.57997 8.48067 4.53028 8.53035C4.23736 8.82321 3.76248 8.82317 3.46962 8.53025C3.17897 8.23954 3.17682 7.76962 3.46313 7.47626C3.46335 7.476 3.46388 7.47538 3.46478 7.47435C3.46784 7.47081 3.47511 7.46244 3.48806 7.447L3.5126 7.41757C3.53432 7.3915 3.56442 7.35535 3.58187 7.33461C3.65997 7.24179 3.76573 7.11958 3.8948 6.98853C4.14767 6.7318 4.5168 6.4132 4.98988 6.20648C5.47889 5.99281 6.07765 5.90089 6.735 6.11153C7.37645 6.31707 7.99314 6.78487 8.58747 7.53373Z" fill="black"/>
<path fill-rule="evenodd" clip-rule="evenodd" d="M8 0.25C3.71979 0.25 0.25 3.71979 0.25 8C0.25 12.2802 3.71979 15.75 8 15.75C12.2802 15.75 15.75 12.2802 15.75 8C15.75 3.71979 12.2802 0.25 8 0.25ZM1.75 8C1.75 4.54822 4.54822 1.75 8 1.75C11.4518 1.75 14.25 4.54822 14.25 8C14.25 11.4518 11.4518 14.25 8 14.25C4.54822 14.25 1.75 11.4518 1.75 8Z" fill="black"/>
</svg>
