<svg width="24" height="24" viewBox="0 0 24 24" fill="none" xmlns="http://www.w3.org/2000/svg">
<path d="M17.1191 9.61831C17.4606 9.27638 17.4602 8.72236 17.1183 8.38088C16.7764 8.03939 16.2224 8.03975 15.8809 8.38169L10.0381 14.2322L8.11872 12.3128C7.77701 11.9711 7.22299 11.9711 6.88128 12.3128C6.53957 12.6545 6.53957 13.2085 6.88128 13.5503L9.41974 16.0887C9.58391 16.2529 9.80658 16.3451 10.0387 16.345C10.2709 16.3449 10.4935 16.2526 10.6576 16.0883L17.1191 9.61831Z" fill="black"/>
<path fill-rule="evenodd" clip-rule="evenodd" d="M12 1.25C6.06294 1.25 1.25 6.06294 1.25 12C1.25 17.9371 6.06294 22.75 12 22.75C17.9371 22.75 22.75 17.9371 22.75 12C22.75 6.06294 17.9371 1.25 12 1.25ZM2.75 12C2.75 6.89137 6.89137 2.75 12 2.75C17.1086 2.75 21.25 6.89137 21.25 12C21.25 17.1086 17.1086 21.25 12 21.25C6.89137 21.25 2.75 17.1086 2.75 12Z" fill="black"/>
</svg>
