<svg width="16" height="16" viewBox="0 0 16 16" fill="none" xmlns="http://www.w3.org/2000/svg">
<path d="M11.5299 6.5308C11.823 6.23817 11.8234 5.7633 11.5308 5.47014C11.2382 5.17699 10.7633 5.17656 10.4701 5.4692L6.69196 9.24063L5.52951 8.08177C5.23616 7.78933 4.76129 7.79007 4.46885 8.08342C4.17641 8.37676 4.17715 8.85163 4.47049 9.14407L6.1628 10.8312C6.45564 11.1231 6.92951 11.1229 7.22216 10.8308L11.5299 6.5308Z" fill="black"/>
<path fill-rule="evenodd" clip-rule="evenodd" d="M8 0.25C3.71979 0.25 0.25 3.71979 0.25 8C0.25 12.2802 3.71979 15.75 8 15.75C12.2802 15.75 15.75 12.2802 15.75 8C15.75 3.71979 12.2802 0.25 8 0.25ZM1.75 8C1.75 4.54822 4.54822 1.75 8 1.75C11.4518 1.75 14.25 4.54822 14.25 8C14.25 11.4518 11.4518 14.25 8 14.25C4.54822 14.25 1.75 11.4518 1.75 8Z" fill="black"/>
</svg>
