<svg viewbox="0 0 16 16" width="16" height="16" fill="black" xmlns="http://www.w3.org/2000/svg">
 <g transform="translate(1.25, 1.25)">
  <path d="M2.25 0C1.00736 0 0 1.00736 0 2.25L0 11.25C0 12.4926 1.00736 13.5 2.25 13.5L11.25 13.5C12.4926 13.5 13.5 12.4926 13.5 11.25L13.5 2.25C13.5 1.00736 12.4926 0 11.25 0L2.25 0ZM9.22014 4.2192C9.5133 3.92656 9.98817 3.92699 10.2808 4.22014C10.5734 4.5133 10.573 4.98817 10.2799 5.2808L5.97216 9.5808C5.67952 9.87293 5.20564 9.87309 4.9128 9.58115L3.22049 7.89407C2.92715 7.60163 2.92641 7.12676 3.21885 6.83342C3.51129 6.54007 3.98616 6.53933 4.27951 6.83177L5.44196 7.99063L9.22014 4.2192Z" fill-rule="EVENODD"></path>
 </g>
</svg>