<svg width="16" height="16" viewBox="0 0 16 16" fill="none" xmlns="http://www.w3.org/2000/svg">
<path fill-rule="evenodd" clip-rule="evenodd" d="M9.56919 0.752411C8.69051 -0.126285 7.26587 -0.126293 6.38719 0.752394L0.730359 6.40923C-0.148327 7.28791 -0.148318 8.71255 0.730377 9.59122L6.38721 15.2479C7.26589 16.1266 8.6905 16.1266 9.56917 15.2479L15.2259 9.59121C16.1046 8.71254 16.1046 7.28793 15.2259 6.40924L9.56919 0.752411ZM10.4717 5.46769C10.7657 5.17589 11.2405 5.17767 11.5323 5.47166C11.8241 5.76565 11.8223 6.24052 11.5284 6.53231L6.89374 11.1323C6.60147 11.4224 6.12996 11.4226 5.83747 11.1327L4.47208 9.77959C4.17787 9.48802 4.17573 9.01315 4.4673 8.71894C4.75887 8.42473 5.23374 8.42259 5.52795 8.71416L6.365 9.54369L10.4717 5.46769Z" fill="black"/>
</svg>
