<svg viewbox="0 0 24 24" width="24" height="24" fill="black" xmlns="http://www.w3.org/2000/svg">
 <g transform="translate(1.07830011844635, 1.0787060260772705)">
  <path d="M15.041 9.28945C15.3824 8.94743 15.3819 8.39341 15.0399 8.05202C14.6978 7.71062 14.1438 7.71112 13.8024 8.05314L9.24165 12.6222L8.04042 11.421C7.69871 11.0792 7.14469 11.0792 6.80298 11.421C6.46127 11.7627 6.46127 12.3167 6.80298 12.6584L8.6235 14.4789C8.78769 14.6431 9.01041 14.7353 9.24261 14.7352C9.47481 14.7351 9.69745 14.6427 9.86149 14.4783L15.041 9.28945Z" fill-rule="NONZERO"></path>
  <path d="M8.97711 0.805457L0.805455 8.97712C-0.268495 10.0511 -0.268483 11.7923 0.805478 12.8662L8.97714 21.0377C10.0511 22.1116 11.7923 22.1116 12.8662 21.0377L21.0377 12.8662C22.1116 11.7923 22.1116 10.0511 21.0377 8.97714L12.8662 0.805477C11.7923 -0.268485 10.0511 -0.268493 8.97711 0.805457ZM1.86612 10.0378L10.0378 1.86612C10.5259 1.37796 11.3174 1.37796 11.8055 1.86613L19.977 10.0378C20.4652 10.5259 20.4652 11.3174 19.977 11.8055L11.8055 19.977C11.3174 20.4652 10.5259 20.4652 10.0378 19.977L1.86613 11.8056C1.37796 11.3174 1.37796 10.5259 1.86612 10.0378Z" fill-rule="EVENODD"></path>
 </g>
</svg>