<svg viewbox="0 0 16 16" width="16" height="16" fill="black" xmlns="http://www.w3.org/2000/svg">
 <g transform="translate(0.25, 0.25)">
  <path d="M7.75 0C3.46979 0 0 3.46979 0 7.75C0 12.0302 3.46979 15.5 7.75 15.5C12.0302 15.5 15.5 12.0302 15.5 7.75C15.5 3.46979 12.0302 0 7.75 0ZM10.2201 5.2192C10.5133 4.92656 10.9882 4.92699 11.2808 5.22014C11.5734 5.5133 11.573 5.98817 11.2799 6.2808L6.97216 10.5808C6.67952 10.8729 6.20564 10.8731 5.9128 10.5812L4.22049 8.89407C3.92715 8.60163 3.92641 8.12676 4.21885 7.83342C4.51129 7.54007 4.98616 7.53933 5.27951 7.83177L6.44196 8.99063L10.2201 5.2192Z" fill-rule="EVENODD"></path>
 </g>
</svg>