<svg width="24" height="24" viewBox="0 0 24 24" fill="none" xmlns="http://www.w3.org/2000/svg">
<path fill-rule="evenodd" clip-rule="evenodd" d="M5 2.25C3.48122 2.25 2.25 3.48122 2.25 5V19C2.25 20.5188 3.48122 21.75 5 21.75H19C20.5188 21.75 21.75 20.5188 21.75 19V5C21.75 3.48122 20.5188 2.25 19 2.25H5ZM16.2924 7.79336C16.6827 7.40258 17.3159 7.40216 17.7066 7.79243C18.0974 8.1827 18.0978 8.81586 17.7076 9.20664L10.5281 16.3955C10.3406 16.5833 10.0862 16.6888 9.82084 16.6889C9.55551 16.689 9.30102 16.5836 9.11341 16.396L6.29289 13.5755C5.90237 13.185 5.90237 12.5518 6.29289 12.1613C6.68342 11.7707 7.31658 11.7707 7.70711 12.1613L9.82005 14.2742L16.2924 7.79336Z" fill="black"/>
</svg>
