<svg width="16" height="16" viewBox="0 0 16 16" fill="none" xmlns="http://www.w3.org/2000/svg">
<path d="M11.0304 7.03027C11.3233 6.73737 11.3232 6.26249 11.0303 5.96961C10.7374 5.67674 10.2625 5.67676 9.96967 5.96967L6.79991 9.13974L6.0299 8.37105C5.73675 8.07841 5.26188 8.07881 4.96924 8.37196C4.6766 8.6651 4.677 9.13997 4.97015 9.43262L6.27051 10.7308C6.56349 11.0232 7.03804 11.023 7.33075 10.7303L11.0304 7.03027Z" fill="black"/>
<path fill-rule="evenodd" clip-rule="evenodd" d="M6.38719 0.752516L0.730359 6.40935C-0.148327 7.28804 -0.148318 8.71267 0.730377 9.59135L6.38721 15.2481C7.26589 16.1267 8.6905 16.1267 9.56917 15.248L15.2259 9.59133C16.1046 8.71266 16.1046 7.28805 15.2259 6.40937L9.56919 0.752533C8.69051 -0.126163 7.26587 -0.126171 6.38719 0.752516ZM1.79102 7.47001L7.44785 1.81318C7.74074 1.52028 8.21562 1.52028 8.50851 1.81318L14.1652 7.47002C14.4581 7.76291 14.4581 8.23778 14.1652 8.53067L8.50851 14.1874C8.21562 14.4803 7.74075 14.4803 7.44786 14.1874L1.79103 8.53068C1.49813 8.23778 1.49812 7.7629 1.79102 7.47001Z" fill="black"/>
</svg>
