<svg width="16" height="16" viewBox="0 0 16 16" fill="none" xmlns="http://www.w3.org/2000/svg">
<path d="M11.5299 6.5308C11.823 6.23817 11.8234 5.7633 11.5308 5.47014C11.2382 5.17699 10.7633 5.17656 10.4701 5.4692L6.69196 9.24063L5.52951 8.08177C5.23616 7.78933 4.76129 7.79007 4.46885 8.08342C4.17641 8.37676 4.17715 8.85163 4.47049 9.14407L6.1628 10.8312C6.45564 11.1231 6.92951 11.1229 7.22216 10.8308L11.5299 6.5308Z" fill="black"/>
<path fill-rule="evenodd" clip-rule="evenodd" d="M3.5 1.25C2.25736 1.25 1.25 2.25736 1.25 3.5V12.5C1.25 13.7426 2.25736 14.75 3.5 14.75H12.5C13.7426 14.75 14.75 13.7426 14.75 12.5V3.5C14.75 2.25736 13.7426 1.25 12.5 1.25H3.5ZM2.75 3.5C2.75 3.08579 3.08579 2.75 3.5 2.75H12.5C12.9142 2.75 13.25 3.08579 13.25 3.5V12.5C13.25 12.9142 12.9142 13.25 12.5 13.25H3.5C3.08579 13.25 2.75 12.9142 2.75 12.5V3.5Z" fill="black"/>
</svg>
