<svg viewBox="0 0 24 24" width="24" height="24" fill="black" xmlns="http://www.w3.org/2000/svg">
 <g transform="translate(1.25, 1.25)">
  <path d="M10.75 0C4.81294 0 0 4.81294 0 10.75C0 16.6871 4.81294 21.5 10.75 21.5C16.6871 21.5 21.5 16.6871 21.5 10.75C21.5 4.81294 16.6871 0 10.75 0ZM14.5424 7.04336C14.9327 6.65258 15.5659 6.65216 15.9566 7.04243C16.3474 7.4327 16.3478 8.06586 15.9576 8.45664L9.49603 14.9266C9.30854 15.1144 9.05412 15.2199 8.78879 15.22C8.52346 15.2201 8.26897 15.1147 8.08136 14.9271L5.54289 12.3886C5.15237 11.9981 5.15237 11.365 5.54289 10.9744C5.93342 10.5839 6.56658 10.5839 6.95711 10.9744L8.788 12.8053L14.5424 7.04336Z" fill-rule="EVENODD"></path>
 </g>
</svg>