<svg width="24" height="24" viewBox="0 0 24 24" fill="none" xmlns="http://www.w3.org/2000/svg">
<path fill-rule="evenodd" clip-rule="evenodd" d="M13.9445 1.88421C12.8706 0.810251 11.1294 0.810241 10.0554 1.88419L1.88376 10.0559C0.809813 11.1298 0.809825 12.871 1.88379 13.945L10.0554 22.1164C11.1294 23.1904 12.8706 23.1904 13.9445 22.1164L22.116 13.9449C23.1899 12.871 23.1899 11.1298 22.116 10.0559L13.9445 1.88421ZM15.2923 8.54343C15.6826 8.15261 16.3157 8.15213 16.7066 8.54236C17.0974 8.93258 17.0979 9.56575 16.7076 9.95657L10.5281 16.1455C10.3407 16.3332 10.0862 16.4388 9.82088 16.4389C9.55553 16.439 9.30102 16.3336 9.11339 16.146L7.29288 14.3255C6.90235 13.935 6.90235 13.3018 7.29288 12.9113C7.6834 12.5207 8.31657 12.5207 8.70709 12.9113L9.81996 14.0241L15.2923 8.54343Z" fill="black"/>
</svg>
