<svg viewbox="0 0 16 16" width="16" height="16" fill="black" xmlns="http://www.w3.org/2000/svg">
 <g transform="translate(0.25, 0.25)">
  <path d="M11.2799 6.2808C11.573 5.98817 11.5734 5.5133 11.2808 5.22014C10.9882 4.92699 10.5133 4.92656 10.2201 5.2192L6.44196 8.99063L5.27951 7.83177C4.98616 7.53933 4.51129 7.54007 4.21885 7.83342C3.92641 8.12676 3.92715 8.60163 4.22049 8.89407L5.9128 10.5812C6.20564 10.8731 6.67951 10.8729 6.97216 10.5808L11.2799 6.2808Z" fill-rule="NONZERO"></path>
  <path d="M7.75 0C3.46979 0 0 3.46979 0 7.75C0 12.0302 3.46979 15.5 7.75 15.5C12.0302 15.5 15.5 12.0302 15.5 7.75C15.5 3.46979 12.0302 0 7.75 0ZM1.5 7.75C1.5 4.29822 4.29822 1.5 7.75 1.5C11.2018 1.5 14 4.29822 14 7.75C14 11.2018 11.2018 14 7.75 14C4.29822 14 1.5 11.2018 1.5 7.75Z" fill-rule="EVENODD"></path>
 </g>
</svg>