<svg viewbox="0 0 24 24" width="24" height="24" fill="black" xmlns="http://www.w3.org/2000/svg">
 <g transform="translate(1.07830810546875, 1.0787353515625)">
  <path d="M12.8662 0.805477C11.7923 -0.268484 10.0511 -0.268494 8.97711 0.805457L0.805455 8.97712C-0.268495 10.0511 -0.268483 11.7923 0.805478 12.8662L8.97714 21.0377C10.0511 22.1116 11.7923 22.1116 12.8662 21.0377L21.0377 12.8662C22.1116 11.7923 22.1116 10.0511 21.0377 8.97714L12.8662 0.805477ZM14.214 7.4647C14.6043 7.07387 15.2374 7.07339 15.6282 7.46362C16.0191 7.85385 16.0195 8.48701 15.6293 8.87783L9.44983 15.0667C9.26235 15.2545 9.00792 15.3601 8.74257 15.3602C8.47722 15.3603 8.22271 15.2549 8.03508 15.0673L6.21457 13.2467C5.82405 12.8562 5.82405 12.2231 6.21457 11.8325C6.60509 11.442 7.23826 11.442 7.62878 11.8325L8.74165 12.9454L14.214 7.4647Z" fill-rule="EVENODD"></path>
 </g>
</svg>