<svg width="24" height="24" viewBox="0 0 24 24" fill="none" xmlns="http://www.w3.org/2000/svg">
<path d="M16.1193 10.3682C16.4607 10.0262 16.4602 9.47215 16.1182 9.13075C15.7761 8.78935 15.2221 8.78985 14.8807 9.13187L10.32 13.7009L9.11873 12.4997C8.77702 12.158 8.223 12.158 7.88129 12.4997C7.53958 12.8414 7.53958 13.3954 7.88129 13.7371L9.7018 15.5576C9.86599 15.7218 10.0887 15.814 10.3209 15.8139C10.5531 15.8138 10.7758 15.7214 10.9398 15.5571L16.1193 10.3682Z" fill="black"/>
<path fill-rule="evenodd" clip-rule="evenodd" d="M10.0554 1.88419L1.88376 10.0559C0.809813 11.1298 0.809825 12.871 1.88379 13.945L10.0554 22.1164C11.1294 23.1904 12.8706 23.1904 13.9445 22.1164L22.116 13.9449C23.1899 12.871 23.1899 11.1298 22.116 10.0559L13.9445 1.88421C12.8706 0.810251 11.1294 0.810242 10.0554 1.88419ZM2.94442 11.1165L11.1161 2.94485C11.6042 2.45669 12.3957 2.4567 12.8839 2.94486L21.0553 11.1165C21.5435 11.6047 21.5435 12.3961 21.0553 12.8843L12.8839 21.0558C12.3957 21.5439 11.6043 21.5439 11.1161 21.0558L2.94443 12.8843C2.45627 12.3961 2.45627 11.6047 2.94442 11.1165Z" fill="black"/>
</svg>
