<svg viewbox="0 0 24 24" width="24" height="24" fill="black" xmlns="http://www.w3.org/2000/svg">
 <g transform="translate(5.25, 6.25)">
  <path d="M1.28033 0.21967C0.987437 -0.0732233 0.512563 -0.0732233 0.21967 0.21967C-0.0732233 0.512563 -0.0732233 0.987437 0.21967 1.28033L4.68934 5.75L0.21967 10.2197C-0.0732233 10.5126 -0.0732233 10.9874 0.21967 11.2803C0.512563 11.5732 0.987437 11.5732 1.28033 11.2803L6.28033 6.28033C6.57322 5.98744 6.57322 5.51256 6.28033 5.21967L1.28033 0.21967Z" fill-rule="NONZERO"></path>
  <path d="M8.28033 0.21967C7.98744 -0.0732233 7.51256 -0.0732233 7.21967 0.21967C6.92678 0.512563 6.92678 0.987437 7.21967 1.28033L11.6893 5.75L7.21967 10.2197C6.92678 10.5126 6.92678 10.9874 7.21967 11.2803C7.51256 11.5732 7.98744 11.5732 8.28033 11.2803L13.2803 6.28033C13.5732 5.98744 13.5732 5.51256 13.2803 5.21967L8.28033 0.21967Z" fill-rule="NONZERO"></path>
 </g>
</svg>