<svg width="16" height="16" viewBox="0 0 16 16" fill="none" xmlns="http://www.w3.org/2000/svg">
<path d="M8.53033 3.46967C8.38968 3.32902 8.19891 3.25 8 3.25C7.80109 3.25 7.61032 3.32902 7.46967 3.46967L3.96967 6.96967C3.67678 7.26256 3.67678 7.73744 3.96967 8.03033C4.26256 8.32322 4.73744 8.32322 5.03033 8.03033L8 5.06066L10.9697 8.03033C11.2626 8.32322 11.7374 8.32322 12.0303 8.03033C12.3232 7.73744 12.3232 7.26256 12.0303 6.96967L8.53033 3.46967Z" fill="black"/>
<path d="M12.0303 11.9697L8.53033 8.46967C8.23744 8.17678 7.76256 8.17678 7.46967 8.46967L3.96967 11.9697C3.67678 12.2626 3.67678 12.7374 3.96967 13.0303C4.26256 13.3232 4.73744 13.3232 5.03033 13.0303L8 10.0607L10.9697 13.0303C11.2626 13.3232 11.7374 13.3232 12.0303 13.0303C12.3232 12.7374 12.3232 12.2626 12.0303 11.9697Z" fill="black"/>
</svg>
