<svg width="16" height="16" viewBox="0 0 16 16" fill="none" xmlns="http://www.w3.org/2000/svg">
<path d="M4.53033 3.96967C4.23744 3.67678 3.76256 3.67678 3.46967 3.96967C3.17678 4.26256 3.17678 4.73744 3.46967 5.03033L6.43934 8L3.46967 10.9697C3.17678 11.2626 3.17678 11.7374 3.46967 12.0303C3.76256 12.3232 4.23744 12.3232 4.53033 12.0303L8.03033 8.53033C8.17098 8.38968 8.25 8.19891 8.25 8C8.25 7.80109 8.17098 7.61032 8.03033 7.46967L4.53033 3.96967Z" fill="black"/>
<path d="M9.53033 3.96967C9.23744 3.67678 8.76256 3.67678 8.46967 3.96967C8.17678 4.26256 8.17678 4.73744 8.46967 5.03033L11.4393 8L8.46967 10.9697C8.17678 11.2626 8.17678 11.7374 8.46967 12.0303C8.76256 12.3232 9.23744 12.3232 9.53033 12.0303L13.0303 8.53033C13.3232 8.23744 13.3232 7.76256 13.0303 7.46967L9.53033 3.96967Z" fill="black"/>
</svg>
