<svg width="16" height="16" viewBox="0 0 16 16" fill="none" xmlns="http://www.w3.org/2000/svg">
<path d="M5.03033 3.46967C4.73744 3.17678 4.26256 3.17678 3.96967 3.46967C3.67678 3.76256 3.67678 4.23744 3.96967 4.53033L7.46967 8.03033C7.61032 8.17098 7.80109 8.25 8 8.25C8.19891 8.25 8.38968 8.17098 8.53033 8.03033L12.0303 4.53033C12.3232 4.23744 12.3232 3.76256 12.0303 3.46967C11.7374 3.17678 11.2626 3.17678 10.9697 3.46967L8 6.43934L5.03033 3.46967Z" fill="black"/>
<path d="M5.03033 8.46967C4.73744 8.17678 4.26256 8.17678 3.96967 8.46967C3.67678 8.76256 3.67678 9.23744 3.96967 9.53033L7.46967 13.0303C7.76256 13.3232 8.23744 13.3232 8.53033 13.0303L12.0303 9.53033C12.3232 9.23744 12.3232 8.76256 12.0303 8.46967C11.7374 8.17678 11.2626 8.17678 10.9697 8.46967L8 11.4393L5.03033 8.46967Z" fill="black"/>
</svg>
