<svg width="16" height="16" viewBox="0 0 16 16" fill="none" xmlns="http://www.w3.org/2000/svg">
<path d="M8.03033 5.03033C8.32322 4.73744 8.32322 4.26256 8.03033 3.96967C7.73744 3.67678 7.26256 3.67678 6.96967 3.96967L3.46967 7.46967C3.32902 7.61032 3.25 7.80109 3.25 8C3.25 8.19891 3.32902 8.38968 3.46967 8.53033L6.96967 12.0303C7.26256 12.3232 7.73744 12.3232 8.03033 12.0303C8.32322 11.7374 8.32322 11.2626 8.03033 10.9697L5.06066 8L8.03033 5.03033Z" fill="black"/>
<path d="M13.0303 5.03033C13.3232 4.73744 13.3232 4.26256 13.0303 3.96967C12.7374 3.67678 12.2626 3.67678 11.9697 3.96967L8.46967 7.46967C8.17678 7.76256 8.17678 8.23744 8.46967 8.53033L11.9697 12.0303C12.2626 12.3232 12.7374 12.3232 13.0303 12.0303C13.3232 11.7374 13.3232 11.2626 13.0303 10.9697L10.0607 8L13.0303 5.03033Z" fill="black"/>
</svg>
