<svg width="16" height="16" viewBox="0 0 16 16" fill="none" xmlns="http://www.w3.org/2000/svg">
<path fill-rule="evenodd" clip-rule="evenodd" d="M5.49999 0.300049C4.83725 0.300049 4.29999 0.837307 4.29999 1.50005V2.25H3.5C2.25736 2.25 1.25 3.25736 1.25 4.5V13.5C1.25 14.7426 2.25736 15.75 3.5 15.75H12.5C13.7426 15.75 14.75 14.7426 14.75 13.5V4.5C14.75 3.25736 13.7426 2.25 12.5 2.25H11.7V1.50005C11.7 0.837307 11.1627 0.300049 10.5 0.300049H5.49999ZM5.69999 3.30005V1.70005H10.3V3.30005H5.69999ZM11.5299 7.5308C11.823 7.23817 11.8234 6.7633 11.5308 6.47014C11.2382 6.17699 10.7633 6.17656 10.4701 6.4692L6.69196 10.2406L5.52951 9.08177C5.23616 8.78933 4.76129 8.79007 4.46885 9.08342C4.17641 9.37676 4.17715 9.85163 4.47049 10.1441L6.1628 11.8312C6.45564 12.1231 6.92951 12.1229 7.22216 11.8308L11.5299 7.5308Z" fill="black"/>
</svg>
