<svg viewbox="0 0 16 16" width="16" height="16" fill="black" xmlns="http://www.w3.org/2000/svg">
 <g transform="translate(1.25, 0.300048828125)">
  <path d="M4.25 0C3.58726 0 3.05 0.537258 3.05 1.2L3.05 1.94995L2.25 1.94995C1.00736 1.94995 0 2.95731 0 4.19995L0 13.2C0 14.4426 1.00736 15.45 2.25 15.45L11.25 15.45C12.4926 15.45 13.5 14.4426 13.5 13.2L13.5 4.19995C13.5 2.95731 12.4926 1.94995 11.25 1.94995L10.45 1.94995L10.45 1.2C10.45 0.537259 9.91274 0 9.25 0L4.25 0ZM10.4239 3.44995C10.3089 3.99272 9.82703 4.4 9.25 4.4L4.25 4.4C3.67297 4.4 3.19107 3.99272 3.07607 3.44995L2.25 3.44995C1.83579 3.44995 1.5 3.78574 1.5 4.19995L1.5 13.2C1.5 13.6142 1.83579 13.95 2.25 13.95L11.25 13.95C11.6642 13.95 12 13.6142 12 13.2L12 4.19995C12 3.78574 11.6642 3.44995 11.25 3.44995L10.4239 3.44995ZM4.45 3L4.45 1.4L9.05 1.4L9.05 3L4.45 3Z" fill-rule="EVENODD"></path>
 </g>
</svg>