<svg width="16" height="16" viewBox="0 0 16 16" fill="none" xmlns="http://www.w3.org/2000/svg">
<path d="M4.99999 6.30005C4.61339 6.30005 4.29999 6.61345 4.29999 7.00005C4.29999 7.38665 4.61339 7.70005 4.99999 7.70005H11C11.3866 7.70005 11.7 7.38665 11.7 7.00005C11.7 6.61345 11.3866 6.30005 11 6.30005H4.99999Z" fill="black"/>
<path d="M4.29999 12C4.29999 11.6134 4.61339 11.3 4.99999 11.3H9.99999C10.3866 11.3 10.7 11.6134 10.7 12C10.7 12.3866 10.3866 12.7 9.99999 12.7H4.99999C4.61339 12.7 4.29999 12.3866 4.29999 12Z" fill="black"/>
<path d="M4.99999 8.80005C4.61339 8.80005 4.29999 9.11345 4.29999 9.50005C4.29999 9.88665 4.61339 10.2 4.99999 10.2H7.99999C8.38659 10.2 8.69999 9.88665 8.69999 9.50005C8.69999 9.11345 8.38659 8.80005 7.99999 8.80005H4.99999Z" fill="black"/>
<path fill-rule="evenodd" clip-rule="evenodd" d="M4.29999 1.50005C4.29999 0.837307 4.83725 0.300049 5.49999 0.300049H10.5C11.1627 0.300049 11.7 0.837307 11.7 1.50005V2.25H12.5C13.7426 2.25 14.75 3.25736 14.75 4.5V13.5C14.75 14.7426 13.7426 15.75 12.5 15.75H3.5C2.25736 15.75 1.25 14.7426 1.25 13.5V4.5C1.25 3.25736 2.25736 2.25 3.5 2.25H4.29999V1.50005ZM10.5 4.70005C11.077 4.70005 11.5589 4.29277 11.6739 3.75H12.5C12.9142 3.75 13.25 4.08579 13.25 4.5V13.5C13.25 13.9142 12.9142 14.25 12.5 14.25H3.5C3.08579 14.25 2.75 13.9142 2.75 13.5V4.5C2.75 4.08579 3.08579 3.75 3.5 3.75H4.32606C4.44105 4.29277 4.92296 4.70005 5.49999 4.70005H10.5ZM5.69999 1.70005V3.30005H10.3V1.70005H5.69999Z" fill="black"/>
</svg>
