<svg viewbox="0 0 24 24" width="24" height="24" fill="black" xmlns="http://www.w3.org/2000/svg">
 <g transform="translate(3.25, 1.25)">
  <path d="M4 2L4 1.75C4 0.783502 4.7835 0 5.75 0L11.75 0C12.7165 0 13.5 0.783502 13.5 1.75L13.5 2L14.75 2C15.4793 2 16.1788 2.28973 16.6945 2.80546C17.2103 3.32118 17.5 4.02065 17.5 4.75L17.5 18.75C17.5 19.4793 17.2103 20.1788 16.6945 20.6945C16.1788 21.2103 15.4793 21.5 14.75 21.5L2.75 21.5C2.02065 21.5 1.32118 21.2103 0.805456 20.6945C0.289731 20.1788 0 19.4793 0 18.75L0 4.75C0 4.02065 0.289731 3.32118 0.805456 2.80546C1.32118 2.28973 2.02065 2 2.75 2L4 2ZM5.5 1.75C5.5 1.61193 5.61193 1.5 5.75 1.5L11.75 1.5C11.8881 1.5 12 1.61193 12 1.75L12 3.75C12 3.88807 11.8881 4 11.75 4L5.75 4C5.61193 4 5.5 3.88807 5.5 3.75L5.5 1.75ZM13.5 3.5L14.75 3.5C15.0815 3.5 15.3995 3.6317 15.6339 3.86612C15.8683 4.10054 16 4.41848 16 4.75L16 18.75C16 19.0815 15.8683 19.3995 15.6339 19.6339C15.3995 19.8683 15.0815 20 14.75 20L2.75 20C2.41848 20 2.10054 19.8683 1.86612 19.6339C1.6317 19.3995 1.5 19.0815 1.5 18.75L1.5 4.75C1.5 4.41848 1.6317 4.10054 1.86612 3.86612C2.10054 3.6317 2.41848 3.5 2.75 3.5L4 3.5L4 3.75C4 4.7165 4.7835 5.5 5.75 5.5L11.75 5.5C12.7165 5.5 13.5 4.7165 13.5 3.75L13.5 3.5Z" fill-rule="EVENODD"></path>
 </g>
</svg>