<svg width="24" height="24" viewBox="0 0 24 24" fill="none" xmlns="http://www.w3.org/2000/svg">
<path d="M7.25 10C7.25 9.58579 7.58579 9.25 8 9.25H16C16.4142 9.25 16.75 9.58579 16.75 10C16.75 10.4142 16.4142 10.75 16 10.75H8C7.58579 10.75 7.25 10.4142 7.25 10Z" fill="black"/>
<path d="M8 17.25C7.58579 17.25 7.25 17.5858 7.25 18C7.25 18.4142 7.58579 18.75 8 18.75H14C14.4142 18.75 14.75 18.4142 14.75 18C14.75 17.5858 14.4142 17.25 14 17.25H8Z" fill="black"/>
<path d="M7.25 14C7.25 13.5858 7.58579 13.25 8 13.25H12C12.4142 13.25 12.75 13.5858 12.75 14C12.75 14.4142 12.4142 14.75 12 14.75H8C7.58579 14.75 7.25 14.4142 7.25 14Z" fill="black"/>
<path fill-rule="evenodd" clip-rule="evenodd" d="M7.25 3.25V3C7.25 2.0335 8.0335 1.25 9 1.25H15C15.9665 1.25 16.75 2.0335 16.75 3V3.25H18C18.7293 3.25 19.4288 3.53973 19.9445 4.05546C20.4603 4.57118 20.75 5.27065 20.75 6V20C20.75 20.7293 20.4603 21.4288 19.9445 21.9445C19.4288 22.4603 18.7293 22.75 18 22.75H6C5.27065 22.75 4.57118 22.4603 4.05546 21.9445C3.53973 21.4288 3.25 20.7293 3.25 20V6C3.25 5.27065 3.53973 4.57118 4.05546 4.05546C4.57118 3.53973 5.27065 3.25 6 3.25H7.25ZM8.75 3C8.75 2.86193 8.86193 2.75 9 2.75H15C15.1381 2.75 15.25 2.86193 15.25 3V5C15.25 5.13807 15.1381 5.25 15 5.25H9C8.86193 5.25 8.75 5.13807 8.75 5V3ZM16.75 4.75H18C18.3315 4.75 18.6495 4.8817 18.8839 5.11612C19.1183 5.35054 19.25 5.66848 19.25 6V20C19.25 20.3315 19.1183 20.6495 18.8839 20.8839C18.6495 21.1183 18.3315 21.25 18 21.25H6C5.66848 21.25 5.35054 21.1183 5.11612 20.8839C4.8817 20.6495 4.75 20.3315 4.75 20V6C4.75 5.66848 4.8817 5.35054 5.11612 5.11612C5.35054 4.8817 5.66848 4.75 6 4.75H7.25V5C7.25 5.9665 8.0335 6.75 9 6.75H15C15.9665 6.75 16.75 5.9665 16.75 5V4.75Z" fill="black"/>
</svg>
