<svg width="24" height="24" viewBox="0 0 24 24" fill="none" xmlns="http://www.w3.org/2000/svg">
<path fill-rule="evenodd" clip-rule="evenodd" d="M16.75 3.25V3C16.75 2.0335 15.9665 1.25 15 1.25H9C8.0335 1.25 7.25 2.0335 7.25 3V3.25H6C4.48122 3.25 3.25 4.48122 3.25 6V20C3.25 21.5188 4.48122 22.75 6 22.75H18C19.5188 22.75 20.75 21.5188 20.75 20V6C20.75 4.48122 19.5188 3.25 18 3.25H16.75ZM9 2.75C8.86193 2.75 8.75 2.86193 8.75 3V5C8.75 5.13807 8.86193 5.25 9 5.25H15C15.1381 5.25 15.25 5.13807 15.25 5V3C15.25 2.86193 15.1381 2.75 15 2.75H9ZM15.7924 9.29336C16.1827 8.90258 16.8159 8.90216 17.2066 9.29243C17.5974 9.6827 17.5978 10.3159 17.2076 10.7066L10.746 17.1766C10.5585 17.3644 10.3041 17.4699 10.0388 17.47C9.77346 17.4701 9.51897 17.3647 9.33136 17.1771L6.79289 14.6386C6.40237 14.2481 6.40237 13.615 6.79289 13.2244C7.18342 12.8339 7.81658 12.8339 8.20711 13.2244L10.038 15.0553L15.7924 9.29336Z" fill="black"/>
</svg>
