<svg viewBox="0 0 16 16" width="16" height="16" fill="black" xmlns="http://www.w3.org/2000/svg">
 <g transform="translate(0.25, 0.25)">
  <path d="M8.5 3.75C8.5 3.33579 8.16421 3 7.75 3C7.33579 3 7 3.33579 7 3.75L7 7.75C7 8.03408 7.1605 8.29378 7.41459 8.42082L10.4146 9.92082C10.7851 10.1061 11.2356 9.95589 11.4208 9.58541C11.6061 9.21493 11.4559 8.76442 11.0854 8.57918L8.5 7.28647L8.5 3.75Z" fill-rule="NONZERO"></path>
  <path d="M7.75 0C3.46979 0 0 3.46979 0 7.75C0 12.0302 3.46979 15.5 7.75 15.5C12.0302 15.5 15.5 12.0302 15.5 7.75C15.5 3.46979 12.0302 0 7.75 0ZM1.5 7.75C1.5 4.29822 4.29822 1.5 7.75 1.5C11.2018 1.5 14 4.29822 14 7.75C14 11.2018 11.2018 14 7.75 14C4.29822 14 1.5 11.2018 1.5 7.75Z" fill-rule="EVENODD"></path>
 </g>
</svg>