<svg width="24" height="24" viewBox="0 0 24 24" fill="none" xmlns="http://www.w3.org/2000/svg">
<path d="M4.25 2C4.25 1.58579 4.58579 1.25 5 1.25C5.41421 1.25 5.75 1.58579 5.75 2V4.51643C7.44185 3.10213 9.62188 2.25 12 2.25C17.3848 2.25 21.75 6.61522 21.75 12C21.75 17.3848 17.3848 21.75 12 21.75C9.23193 21.75 6.73224 20.5955 4.9584 18.7438C4.67187 18.4447 4.68207 17.9699 4.98118 17.6834C5.2803 17.3968 5.75506 17.407 6.0416 17.7062C7.54425 19.2748 9.6576 20.25 12 20.25C16.5563 20.25 20.25 16.5563 20.25 12C20.25 7.44365 16.5563 3.75 12 3.75C10.0542 3.75 8.26637 4.42298 6.85542 5.55005H9C9.41421 5.55005 9.75 5.88584 9.75 6.30005C9.75 6.71426 9.41421 7.05005 9 7.05005H5C4.58579 7.05005 4.25 6.71426 4.25 6.30005V2Z" fill="black"/>
<path d="M12 6.25C12.4142 6.25 12.75 6.58579 12.75 7V12.5365L16.3354 14.3292C16.7059 14.5144 16.8561 14.9649 16.6708 15.3354C16.4856 15.7059 16.0351 15.8561 15.6646 15.6708L11.6646 13.6708C11.4105 13.5438 11.25 13.2841 11.25 13V7C11.25 6.58579 11.5858 6.25 12 6.25Z" fill="black"/>
</svg>
