<svg viewbox="0 0 24 24" width="24" height="24" fill="black" xmlns="http://www.w3.org/2000/svg">
 <g transform="translate(4.25, 1.25)">
  <path d="M0 0.75C0 0.335786 0.335786 0 0.75 0C1.16421 0 1.5 0.335786 1.5 0.75L1.5 3.26643C3.19185 1.85213 5.37188 1 7.75 1C13.1348 1 17.5 5.36522 17.5 10.75C17.5 16.1348 13.1348 20.5 7.75 20.5C4.98193 20.5 2.48224 19.3455 0.708405 17.4938C0.421867 17.1947 0.432066 16.7199 0.73118 16.4334C1.0303 16.1468 1.50506 16.157 1.7916 16.4562C3.29425 18.0248 5.4076 19 7.75 19C12.3063 19 16 15.3063 16 10.75C16 6.19365 12.3063 2.5 7.75 2.5C5.80416 2.5 4.01637 3.17298 2.60542 4.30005L4.75 4.30005C5.16421 4.30005 5.5 4.63584 5.5 5.05005C5.5 5.46426 5.16421 5.80005 4.75 5.80005L0.75 5.80005C0.335786 5.80005 0 5.46426 0 5.05005L0 0.75Z" fill-rule="NONZERO"></path>
  <path d="M7.75 5C8.16421 5 8.5 5.33579 8.5 5.75L8.5 11.2865L12.0854 13.0792C12.4559 13.2644 12.6061 13.7149 12.4208 14.0854C12.2356 14.4559 11.7851 14.6061 11.4146 14.4208L7.41459 12.4208C7.1605 12.2938 7 12.0341 7 11.75L7 5.75C7 5.33579 7.33579 5 7.75 5Z" fill-rule="NONZERO"></path>
 </g>
</svg>