<svg width="24" height="24" viewBox="0 0 24 24" fill="none" xmlns="http://www.w3.org/2000/svg">
<path d="M8.1136 1.29526C9.49306 1.15479 10.8862 1.34418 12.1781 1.8478C13.47 2.35142 14.6237 3.15486 15.5441 4.1919C16.3346 5.08247 16.9335 6.12342 17.3065 7.24996H18.0059C19.3257 7.25151 20.6057 7.70703 21.6293 8.54007C22.653 9.3731 23.3589 10.5329 23.6287 11.8249C23.8984 13.1168 23.7154 14.4622 23.1106 15.6352C22.5057 16.8083 21.5157 17.7375 20.3068 18.267C19.9274 18.4331 19.4851 18.2603 19.3189 17.8808C19.1527 17.5014 19.3256 17.0591 19.705 16.893C20.5986 16.5016 21.3303 15.8148 21.7774 14.9478C22.2245 14.0807 22.3597 13.0863 22.1603 12.1314C21.961 11.1765 21.4392 10.3192 20.6825 9.70352C19.926 9.08788 18.9808 8.75119 18.0054 8.74996H16.7459C16.4039 8.74996 16.1052 8.51861 16.0197 8.18748C15.7324 7.07508 15.1849 6.04688 14.4223 5.18762C13.6596 4.32836 12.7037 3.66265 11.6333 3.24536C10.5628 2.82807 9.40854 2.67116 8.26555 2.78754C7.12257 2.90393 6.02361 3.29029 5.05925 3.91477C4.0949 4.53926 3.29276 5.38399 2.71896 6.37933C2.14516 7.37468 1.81612 8.49214 1.75898 9.63962C1.70183 10.7871 1.9182 11.9317 2.39026 12.9791C2.86232 14.0266 3.57656 14.9468 4.47409 15.664C4.79768 15.9226 4.85038 16.3946 4.5918 16.7182C4.33323 17.0417 3.86128 17.0944 3.5377 16.8359C2.45447 15.9703 1.59246 14.8596 1.02273 13.5955C0.453001 12.3313 0.19186 10.9499 0.260833 9.565C0.329805 8.18012 0.726916 6.83146 1.41943 5.63018C2.11195 4.4289 3.08005 3.4094 4.24392 2.65571C5.4078 1.90202 6.73413 1.43573 8.1136 1.29526Z" fill="black"/>
<path d="M15.5303 13.9697C15.8232 14.2626 15.8232 14.7374 15.5303 15.0303L13.0607 17.5L15.5303 19.9697C15.8232 20.2626 15.8232 20.7374 15.5303 21.0303C15.2374 21.3232 14.7626 21.3232 14.4697 21.0303L12 18.5607L9.53033 21.0303C9.23744 21.3232 8.76256 21.3232 8.46967 21.0303C8.17678 20.7374 8.17678 20.2626 8.46967 19.9697L10.9393 17.5L8.46967 15.0303C8.17678 14.7374 8.17678 14.2626 8.46967 13.9697C8.76256 13.6768 9.23744 13.6768 9.53033 13.9697L12 16.4393L14.4697 13.9697C14.7626 13.6768 15.2374 13.6768 15.5303 13.9697Z" fill="black"/>
</svg>
