<svg width="24" height="24" viewBox="0 0 24 24" fill="none" xmlns="http://www.w3.org/2000/svg">
<path d="M12.1781 1.8478C10.8862 1.34418 9.49306 1.15479 8.1136 1.29526C6.73413 1.43573 5.4078 1.90202 4.24392 2.65571C3.08005 3.4094 2.11195 4.4289 1.41943 5.63018C0.726916 6.83146 0.329805 8.18012 0.260833 9.565C0.19186 10.9499 0.453001 12.3313 1.02273 13.5955C1.40167 14.4363 2.29968 15.5811 2.83334 16.1863C3.1073 16.497 3.58124 16.5267 3.89191 16.2528C4.20259 15.9788 4.23234 15.5049 3.95838 15.1942C3.43782 14.6039 2.67051 13.601 2.39026 12.9791C1.9182 11.9317 1.70183 10.7871 1.75898 9.63962C1.81612 8.49214 2.14516 7.37468 2.71896 6.37933C3.29276 5.38399 4.0949 4.53926 5.05925 3.91477C6.02361 3.29029 7.12257 2.90393 8.26555 2.78754C9.40854 2.67116 10.5628 2.82807 11.6333 3.24536C12.7037 3.66265 13.6596 4.32836 14.4223 5.18762C15.1849 6.04688 15.7324 7.07508 16.0197 8.18748C16.1052 8.51861 16.4039 8.74996 16.7459 8.74996H18.0054C18.9808 8.75119 19.926 9.08788 20.6825 9.70352C21.4392 10.3192 21.961 11.1765 22.1603 12.1314C22.3597 13.0863 22.2245 14.0807 21.7774 14.9478C21.461 15.5614 21.0019 16.0848 20.4438 16.4771C20.105 16.7152 20.0233 17.183 20.2615 17.5219C20.4997 17.8608 20.9675 17.9424 21.3064 17.7043C22.0614 17.1736 22.6825 16.4655 23.1106 15.6352C23.7154 14.4622 23.8984 13.1168 23.6287 11.8249C23.3589 10.5329 22.653 9.3731 21.6293 8.54007C20.6057 7.70703 19.3257 7.25151 18.0059 7.24996H17.3065C16.9335 6.12342 16.3346 5.08247 15.5441 4.1919C14.6237 3.15486 13.47 2.35142 12.1781 1.8478Z" fill="black"/>
<path d="M12 18.25C12.4142 18.25 12.75 18.5858 12.75 19V20C12.75 20.4142 12.4142 20.75 12 20.75C11.5858 20.75 11.25 20.4142 11.25 20V19C11.25 18.5858 11.5858 18.25 12 18.25Z" fill="black"/>
<path fill-rule="evenodd" clip-rule="evenodd" d="M16.0834 14.583H16.6667C17.8173 14.583 18.75 15.5157 18.75 16.6663V21.333C18.75 22.4836 17.8173 23.4163 16.6667 23.4163H7.33333C6.18274 23.4163 5.25 22.4836 5.25 21.333V16.6663C5.25 15.5157 6.18274 14.583 7.33333 14.583H7.91675V12.6663C7.91675 11.5834 8.34696 10.5448 9.11273 9.77899C9.8785 9.01322 10.9171 8.58301 12.0001 8.58301C13.083 8.58301 14.1217 9.01322 14.8874 9.77899C15.6532 10.5448 16.0834 11.5834 16.0834 12.6663V14.583ZM6.75 16.6663C6.75 16.3442 7.01117 16.083 7.33333 16.083H16.6667C16.9888 16.083 17.25 16.3442 17.25 16.6663V21.333C17.25 21.6552 16.9888 21.9163 16.6667 21.9163H7.33333C7.01117 21.9163 6.75 21.6552 6.75 21.333V16.6663ZM9.41675 14.583V12.6663C9.41675 11.9812 9.68892 11.3241 10.1734 10.8396C10.6579 10.3552 11.3149 10.083 12.0001 10.083C12.6852 10.083 13.3423 10.3552 13.8268 10.8396C14.3112 11.3241 14.5834 11.9812 14.5834 12.6663V14.583H9.41675Z" fill="black"/>
</svg>
