<svg width="16" height="16" viewBox="0 0 16 16" fill="none" xmlns="http://www.w3.org/2000/svg">
<path d="M7.26429 1.36755C6.19675 1.15168 5.08894 1.23422 4.06625 1.60616C3.04347 1.97813 2.14555 2.62515 1.47562 3.47547C0.805588 4.32591 0.390788 5.34535 0.279976 6.41816C0.16916 7.49101 0.367002 8.57238 0.850133 9.53903C1.13752 10.114 1.51884 10.6344 1.97578 11.081C2.27201 11.3705 2.74685 11.3651 3.03637 11.0689C3.32589 10.7727 3.32045 10.2978 3.02422 10.0083C2.68552 9.67726 2.4038 9.29243 2.19188 8.86842C1.83577 8.15591 1.69062 7.36053 1.77204 6.57228C1.85346 5.784 2.15841 5.03262 2.65387 4.40376C3.14942 3.77477 3.81599 3.2933 4.57893 3.01583C5.34195 2.73833 6.16947 2.67652 6.96698 2.83779C7.76444 2.99905 8.4983 3.37654 9.08572 3.92564C9.67302 4.47464 10.0903 5.17302 10.2921 5.94064C10.3787 6.27024 10.6767 6.5 11.0174 6.5H11.819C12.468 6.5 13.0878 6.7534 13.5427 7.2003C13.9972 7.64677 14.25 8.24945 14.25 8.875C14.25 9.50055 13.9972 10.1032 13.5427 10.5497C13.4205 10.6697 13.2865 10.7758 13.1432 10.8667C12.7934 11.0887 12.6898 11.5521 12.9117 11.9018C13.1337 12.2516 13.5971 12.3552 13.9469 12.1333C14.1785 11.9863 14.3956 11.8146 14.5939 11.6197C15.3326 10.8941 15.75 9.90705 15.75 8.875C15.75 7.84295 15.3326 6.85591 14.5939 6.13028C13.8557 5.40508 12.8573 5 11.819 5H11.5645C11.2549 4.17843 10.758 3.43559 10.11 2.82985C9.318 2.08947 8.33188 1.58344 7.26429 1.36755Z" fill="black"/>
<path d="M9.26325 7.45457C9.51428 7.12509 9.45068 6.6545 9.1212 6.40347C8.79173 6.15243 8.32113 6.21603 8.0701 6.54551L5.40343 10.0455C5.23065 10.2723 5.20138 10.5774 5.32792 10.8329C5.45445 11.0884 5.7149 11.25 6 11.25H8.48569L6.73676 13.5455C6.48573 13.875 6.54933 14.3456 6.87881 14.5966C7.20828 14.8476 7.67888 14.784 7.92991 14.4546L10.5966 10.9546C10.7694 10.7278 10.7986 10.4227 10.6721 10.1672C10.5456 9.91169 10.2851 9.75004 10 9.75004H7.51432L9.26325 7.45457Z" fill="black"/>
</svg>
