<svg viewbox="0 0 16 16" width="16" height="16" fill="black" xmlns="http://www.w3.org/2000/svg">
 <g transform="translate(0.25, 1.25)">
  <path d="M7.01429 0.117552C5.94675 -0.098322 4.83894 -0.0157778 3.81625 0.356161C2.79347 0.728131 1.89555 1.37515 1.22562 2.22547C0.555588 3.07591 0.140788 4.09535 0.0299759 5.16816C-0.0808402 6.24101 0.117002 7.32238 0.600133 8.28903C0.887518 8.86403 1.26884 9.38444 1.72578 9.83103C2.02201 10.1205 2.49685 10.1151 2.78637 9.81888C3.07589 9.52265 3.07045 9.04781 2.77422 8.75829C2.43552 8.42726 2.1538 8.04243 1.94188 7.61842C1.58577 6.90591 1.44062 6.11053 1.52204 5.32228C1.60346 4.534 1.90841 3.78262 2.40387 3.15376C2.89942 2.52477 3.56599 2.0433 4.32893 1.76583C5.09195 1.48833 5.91947 1.42652 6.71698 1.58779C7.51444 1.74905 8.2483 2.12654 8.83572 2.67564C9.42302 3.22464 9.84033 3.92302 10.0421 4.69064C10.1287 5.02024 10.4267 5.25 10.7674 5.25L11.569 5.25C12.218 5.25 12.8378 5.5034 13.2927 5.9503C13.7472 6.39677 14 6.99945 14 7.625C14 8.25055 13.7472 8.85323 13.2927 9.29969C13.1705 9.41972 13.0365 9.52577 12.8932 9.61674C12.5434 9.83867 12.4398 10.3021 12.6617 10.6518C12.8837 11.0016 13.3471 11.1052 13.6969 10.8833C13.9285 10.7363 14.1456 10.5646 14.3439 10.3697C15.0826 9.64409 15.5 8.65705 15.5 7.625C15.5 6.59295 15.0826 5.60591 14.3439 4.88028C13.6057 4.15508 12.6073 3.75 11.569 3.75L11.3145 3.75C11.0049 2.92843 10.508 2.18559 9.86004 1.57985C9.068 0.839467 8.08188 0.333436 7.01429 0.117552Z" fill-rule="NONZERO"></path>
  <path d="M9.01325 6.20457C9.26428 5.87509 9.20068 5.4045 8.8712 5.15347C8.54173 4.90243 8.07113 4.96603 7.8201 5.29551L5.15343 8.79551C4.98065 9.02229 4.95138 9.32742 5.07792 9.58291C5.20445 9.83839 5.4649 10 5.75 10L8.23569 10L6.48676 12.2955C6.23573 12.625 6.29933 13.0956 6.62881 13.3466C6.95828 13.5976 7.42888 13.534 7.67991 13.2046L10.3466 9.70457C10.5194 9.47779 10.5486 9.17266 10.4221 8.91717C10.2956 8.66169 10.0351 8.50004 9.75 8.50004L7.26432 8.50004L9.01325 6.20457Z" fill-rule="NONZERO"></path>
 </g>
</svg>