<svg viewbox="0 0 24 24" width="24" height="24" fill="black" xmlns="http://www.w3.org/2000/svg">
 <g transform="translate(0.244140625, 1.250244140625)">
  <path d="M11.9281 0.597554C10.6362 0.093931 9.24306 -0.0954516 7.8636 0.0450154C6.48413 0.185482 5.1578 0.651777 3.99392 1.40546C2.83005 2.15915 1.86195 3.17865 1.16943 4.37993C0.476916 5.58121 0.0798053 6.92988 0.0108328 8.31476C-0.0581398 9.69964 0.203001 11.0811 0.772731 12.3452C1.34246 13.6094 2.20447 14.72 3.2877 15.5856C3.61128 15.8442 4.08323 15.7915 4.3418 15.4679C4.60038 15.1443 4.54768 14.6724 4.22409 14.4138C3.32656 13.6966 2.61232 12.7763 2.14026 11.7289C1.6682 10.6815 1.45183 9.53684 1.50898 8.38937C1.56612 7.2419 1.89516 6.12443 2.46896 5.12909C3.04276 4.13374 3.8449 3.28901 4.80925 2.66453C5.77361 2.04004 6.87257 1.65369 8.01555 1.5373C9.15854 1.42091 10.3128 1.57783 11.3833 1.99512C12.4537 2.4124 13.4096 3.07811 14.1723 3.93737C14.9349 4.79663 15.4824 5.82484 15.7697 6.93724C15.8552 7.26836 16.1539 7.49971 16.4959 7.49971L17.7554 7.49971C18.7308 7.50095 19.676 7.83763 20.4325 8.45327C21.1892 9.06899 21.711 9.92626 21.9103 10.8812C22.1097 11.8361 21.9745 12.8305 21.5274 13.6975C21.0803 14.5645 20.3486 15.2514 19.455 15.6427C19.0756 15.8089 18.9027 16.2512 19.0689 16.6306C19.2351 17.01 19.6774 17.1829 20.0568 17.0167C21.2657 16.4872 22.2557 15.558 22.8606 14.385C23.4654 13.212 23.6484 11.8666 23.3787 10.5746C23.1089 9.28269 22.403 8.12286 21.3793 7.28982C20.3557 6.45679 19.0757 6.00127 17.7559 5.99971L17.0565 5.99971C16.6835 4.87317 16.0846 3.83223 15.2941 2.94166C14.3737 1.90462 13.22 1.10118 11.9281 0.597554Z" fill-rule="NONZERO"></path>
  <path d="M16.7865 13.7797C17.0792 13.4867 17.0789 13.0118 16.7858 12.7191C16.4928 12.4264 16.0179 12.4267 15.7252 12.7198L9.79397 18.6587L7.78619 16.651C7.4933 16.3581 7.01842 16.3581 6.72553 16.651C6.43264 16.9439 6.43264 17.4187 6.72553 17.7116L9.26399 20.2501C9.4047 20.3908 9.59557 20.4698 9.79457 20.4698C9.99356 20.4697 10.1844 20.3905 10.325 20.2497L16.7865 13.7797Z" fill-rule="NONZERO"></path>
 </g>
</svg>