<svg width="16" height="16" viewBox="0 0 16 16" fill="none" xmlns="http://www.w3.org/2000/svg">
<path d="M4.06625 1.60616C5.08894 1.23422 6.19675 1.15168 7.26429 1.36755C8.33188 1.58344 9.318 2.08947 10.11 2.82985C10.758 3.43559 11.2549 4.17843 11.5645 5H11.819C12.8573 5 13.8557 5.40508 14.5939 6.13028C15.3326 6.85591 15.75 7.84295 15.75 8.875C15.75 9.90705 15.3326 10.8941 14.5939 11.6197C14.3956 11.8146 14.1785 11.9863 13.9469 12.1333C13.5971 12.3552 13.1337 12.2516 12.9117 11.9018C12.6898 11.5521 12.7934 11.0887 13.1432 10.8667C13.2865 10.7758 13.4205 10.6697 13.5427 10.5497C13.9972 10.1032 14.25 9.50055 14.25 8.875C14.25 8.24945 13.9972 7.64677 13.5427 7.2003C13.0878 6.7534 12.468 6.5 11.819 6.5H11.0174C10.6767 6.5 10.3787 6.27024 10.2921 5.94064C10.0903 5.17302 9.67302 4.47464 9.08572 3.92564C8.4983 3.37654 7.76444 2.99905 6.96698 2.83779C6.16947 2.67652 5.34195 2.73833 4.57893 3.01583C3.81599 3.2933 3.14942 3.77477 2.65387 4.40376C2.15841 5.03262 1.85346 5.784 1.77204 6.57228C1.69062 7.36053 1.83577 8.15591 2.19188 8.86842C2.4038 9.29243 2.68552 9.67726 3.02422 10.0083C3.32045 10.2978 3.32589 10.7727 3.03637 11.0689C2.74685 11.3651 2.27201 11.3705 1.97578 11.081C1.51884 10.6344 1.13752 10.114 0.850133 9.53903C0.367002 8.57238 0.16916 7.49101 0.279976 6.41816C0.390788 5.34535 0.805588 4.32591 1.47562 3.47547C2.14555 2.62515 3.04347 1.97813 4.06625 1.60616Z" fill="black"/>
<path d="M10.5303 9.46967C10.8232 9.76256 10.8232 10.2374 10.5303 10.5303L9.06066 12L10.5303 13.4697C10.8232 13.7626 10.8232 14.2374 10.5303 14.5303C10.2374 14.8232 9.76256 14.8232 9.46967 14.5303L8 13.0607L6.53033 14.5303C6.23744 14.8232 5.76256 14.8232 5.46967 14.5303C5.17678 14.2374 5.17678 13.7626 5.46967 13.4697L6.93934 12L5.46967 10.5303C5.17678 10.2374 5.17678 9.76256 5.46967 9.46967C5.76256 9.17678 6.23744 9.17678 6.53033 9.46967L8 10.9393L9.46967 9.46967C9.76256 9.17678 10.2374 9.17678 10.5303 9.46967Z" fill="black"/>
</svg>
