<svg width="16" height="16" viewBox="0 0 16 16" fill="none" xmlns="http://www.w3.org/2000/svg">
<path fill-rule="evenodd" clip-rule="evenodd" d="M4.06623 2.60616C5.08892 2.23422 6.19674 2.15168 7.26427 2.36755C8.33186 2.58344 9.31798 3.08947 10.11 3.82985C10.758 4.43559 11.2549 5.17843 11.5644 6H11.819C12.8573 6 13.8557 6.40508 14.5939 7.13028C15.3325 7.85591 15.75 8.84295 15.75 9.875C15.75 10.9071 15.3325 11.8941 14.5939 12.6197C13.8557 13.3449 12.8573 13.75 11.819 13.75H6.10117C6.09874 13.75 6.09631 13.75 6.09388 13.75C5.00425 13.7508 3.93534 13.4514 3.00851 12.8846C2.08157 12.3177 1.3332 11.5056 0.850133 10.5391C0.367002 9.57242 0.16916 8.49105 0.279976 7.4182C0.390788 6.34539 0.805588 5.32595 1.47562 4.47551C2.14377 3.62745 3.03869 2.98162 4.05808 2.60918C4.06079 2.60816 4.06351 2.60715 4.06623 2.60616ZM4.58595 4.01327C4.58362 4.01415 4.58127 4.01501 4.57893 4.01587C3.81599 4.29334 3.14942 4.77481 2.65387 5.4038C2.15841 6.03266 1.85346 6.78404 1.77204 7.57232C1.69062 8.36057 1.83577 9.15595 2.19188 9.86846C2.54806 10.5811 3.10154 11.1832 3.79111 11.6049C4.47875 12.0255 5.27353 12.2493 6.08554 12.25C6.08812 12.25 6.09072 12.25 6.09331 12.25H11.819C12.468 12.25 13.0878 11.9966 13.5427 11.5497C13.9972 11.1032 14.25 10.5006 14.25 9.875C14.25 9.24945 13.9972 8.64677 13.5427 8.2003C13.0878 7.7534 12.468 7.5 11.819 7.5H11.0174C10.6766 7.5 10.3787 7.27024 10.2921 6.94064C10.0903 6.17302 9.67301 5.47464 9.0857 4.92564C8.49828 4.37654 7.76443 3.99905 6.96697 3.83779C6.17191 3.67702 5.34702 3.73795 4.58595 4.01327Z" fill="black"/>
</svg>
