<svg width="24" height="24" viewBox="0 0 24 24" fill="none" xmlns="http://www.w3.org/2000/svg">
<path d="M12.1781 1.8478C10.8862 1.34418 9.49306 1.15479 8.1136 1.29526C6.73413 1.43573 5.4078 1.90202 4.24392 2.65571C3.08005 3.4094 2.11195 4.4289 1.41943 5.63018C0.726916 6.83146 0.329805 8.18012 0.260833 9.565C0.19186 10.9499 0.453001 12.3313 1.02273 13.5955C1.59246 14.8596 2.45447 15.9703 3.5377 16.8359C3.86128 17.0944 4.33323 17.0417 4.5918 16.7182C4.85038 16.3946 4.79768 15.9226 4.47409 15.664C3.57656 14.9468 2.86232 14.0266 2.39026 12.9791C1.9182 11.9317 1.70183 10.7871 1.75898 9.63962C1.81612 8.49214 2.14516 7.37468 2.71896 6.37933C3.29276 5.38399 4.0949 4.53926 5.05925 3.91477C6.02361 3.29029 7.12257 2.90393 8.26555 2.78754C9.40854 2.67116 10.5628 2.82807 11.6333 3.24536C12.7037 3.66265 13.6596 4.32836 14.4223 5.18762C15.1849 6.04688 15.7324 7.07508 16.0197 8.18748C16.1052 8.51861 16.4039 8.74996 16.7459 8.74996H18.0054C18.9808 8.75119 19.926 9.08788 20.6825 9.70352C21.4392 10.3192 21.961 11.1765 22.1603 12.1314C22.3597 13.0863 22.2245 14.0807 21.7774 14.9478C21.3303 15.8148 20.5986 16.5016 19.705 16.893C19.3256 17.0591 19.1527 17.5014 19.3189 17.8808C19.4851 18.2603 19.9274 18.4331 20.3068 18.267C21.5157 17.7375 22.5057 16.8083 23.1106 15.6352C23.7154 14.4622 23.8984 13.1168 23.6287 11.8249C23.3589 10.5329 22.653 9.3731 21.6293 8.54007C20.6057 7.70703 19.3257 7.25151 18.0059 7.24996H17.3065C16.9335 6.12342 16.3346 5.08247 15.5441 4.1919C14.6237 3.15486 13.47 2.35142 12.1781 1.8478Z" fill="black"/>
<path d="M7.46967 16.5303C7.76256 16.8232 8.23744 16.8232 8.53033 16.5303L11.25 13.8107V21C11.25 21.4142 11.5858 21.75 12 21.75C12.4142 21.75 12.75 21.4142 12.75 21V13.8107L15.4697 16.5303C15.7626 16.8232 16.2374 16.8232 16.5303 16.5303C16.8232 16.2374 16.8232 15.7626 16.5303 15.4697L12.5303 11.4697C12.4584 11.3978 12.3755 11.3435 12.2871 11.3069C12.1987 11.2702 12.1017 11.25 12 11.25C11.8081 11.25 11.6161 11.3232 11.4697 11.4697L7.46967 15.4697C7.17678 15.7626 7.17678 16.2374 7.46967 16.5303Z" fill="black"/>
</svg>
