<svg width="16" height="16" viewBox="0 0 16 16" fill="none" xmlns="http://www.w3.org/2000/svg">
<path d="M7.25437 1.41661C6.19583 1.20256 5.09736 1.28441 4.08333 1.6532C3.06921 2.02202 2.179 2.66352 1.51488 3.50646C0.85067 4.34952 0.439532 5.36002 0.329699 6.42335C0.219863 7.48671 0.415949 8.55855 0.894846 9.51672C1.02256 9.77225 1.169 10.0169 1.33254 10.249C1.55521 10.5651 1.99192 10.6407 2.30795 10.4181C2.62398 10.1954 2.69965 9.75867 2.47698 9.44264C2.35363 9.26758 2.24329 9.0832 2.14714 8.89083C1.7868 8.16984 1.63989 7.36492 1.72229 6.56719C1.80469 5.76942 2.11331 5.00911 2.61458 4.37287C3.11595 3.7365 3.79023 3.24951 4.56182 2.96889C5.3335 2.68824 6.17037 2.62574 6.97688 2.78883C7.78334 2.95191 8.52561 3.33368 9.11985 3.88917C9.71398 4.44455 10.1363 5.15116 10.3404 5.92798C10.4213 6.2356 10.6994 6.45005 11.0174 6.45005H11.819C12.481 6.45005 13.1134 6.7085 13.5777 7.16469C14.0417 7.62046 14.3 8.23595 14.3 8.87505C14.3 9.33844 14.1643 9.78903 13.9131 10.1755C13.7024 10.4996 13.7944 10.9332 14.1185 11.1439C14.4426 11.3546 14.8762 11.2626 15.0869 10.9384C15.4837 10.328 15.7 9.61296 15.7 8.87505C15.7 7.85655 15.288 6.88232 14.5589 6.16599C13.8301 5.45007 12.8444 5.05005 11.819 5.05005H11.5297C11.2238 4.22283 10.7268 3.47489 10.0759 2.86643C9.29066 2.13242 8.31295 1.63067 7.25437 1.41661Z" fill="black"/>
<path d="M8.625 12C8.625 11.6548 8.34518 11.375 8 11.375C7.65482 11.375 7.375 11.6548 7.375 12V13C7.375 13.3452 7.65482 13.625 8 13.625C8.34518 13.625 8.625 13.3452 8.625 13V12Z" fill="black"/>
<path fill-rule="evenodd" clip-rule="evenodd" d="M3.375 11C3.375 10.1025 4.10254 9.375 5 9.375H5.375V8.44444C5.375 7.75721 5.65597 7.10181 6.15011 6.62139C6.64366 6.14155 7.3094 5.875 8 5.875C8.6906 5.875 9.35634 6.14155 9.84989 6.62139C10.344 7.10181 10.625 7.75721 10.625 8.44444V9.375H11C11.8975 9.375 12.625 10.1025 12.625 11V14C12.625 14.8975 11.8975 15.625 11 15.625H5C4.10254 15.625 3.375 14.8975 3.375 14V11ZM11 10.625C11.2071 10.625 11.375 10.7929 11.375 11V14C11.375 14.2071 11.2071 14.375 11 14.375H5C4.79289 14.375 4.625 14.2071 4.625 14V11C4.625 10.7929 4.79289 10.625 5 10.625H11ZM6.625 9.375H9.375V8.44444C9.375 8.10028 9.23454 7.76652 8.97854 7.51764C8.72194 7.26817 8.37027 7.125 8 7.125C7.62973 7.125 7.27806 7.26817 7.02146 7.51764C6.76546 7.76652 6.625 8.10028 6.625 8.44444V9.375Z" fill="black"/>
</svg>
