<svg viewbox="0 0 16 16" width="16" height="16" fill="black" xmlns="http://www.w3.org/2000/svg">
 <g transform="translate(0.25, 0.25)">
  <path d="M0.21967 0.21967C0.512563 -0.0732233 0.987437 -0.0732233 1.28033 0.21967L15.2803 14.2197C15.5732 14.5126 15.5732 14.9874 15.2803 15.2803C14.9874 15.5732 14.5126 15.5732 14.2197 15.2803L12.3601 13.4208C12.1017 13.4731 11.8367 13.5 11.569 13.5L5.84656 13.5L5.84388 13.5C4.75425 13.5008 3.68534 13.2014 2.75851 12.6346C1.83157 12.0677 1.0832 11.2556 0.600133 10.2891C0.117628 9.32367 -0.0803272 8.24385 0.0295469 7.17237L0.0299713 7.16814C0.140783 6.09533 0.555583 5.0759 1.22562 4.22545C1.51047 3.86389 1.83655 3.53909 2.19591 3.25657L0.21967 1.28033C-0.0732233 0.987437 -0.0732233 0.512563 0.21967 0.21967ZM3.26681 4.32747C2.94256 4.56125 2.65181 4.83903 2.40386 5.15374C1.90916 5.78165 1.60438 6.53171 1.5224 7.31869L1.52204 7.32232C1.44062 8.11056 1.58577 8.90595 1.94188 9.61846C2.29806 10.3311 2.85154 10.9332 3.54111 11.3549C4.22997 11.7762 5.02635 12.0001 5.83985 12L5.84332 12L10.9394 12L3.26681 4.32747Z" fill-rule="EVENODD"></path>
  <path d="M6.1305 2.70403C6.2126 2.29804 6.60828 2.03547 7.01428 2.11756C8.08187 2.33345 9.06799 2.83948 9.86003 3.57986C10.508 4.1856 11.0049 4.92844 11.3144 5.75001L11.569 5.75001C12.6073 5.75001 13.6057 6.1551 14.3439 6.88029C15.0825 7.60593 15.5 8.59296 15.5 9.62501C15.5 10.0338 15.4345 10.4359 15.3092 10.8175C15.1801 11.2111 14.7564 11.4254 14.3628 11.2963C13.9692 11.1672 13.7549 10.7434 13.884 10.3499C13.9602 10.1176 14 9.87325 14 9.62501C14 8.99946 13.7472 8.39678 13.2927 7.95032C12.8378 7.50341 12.218 7.25001 11.569 7.25001L10.7674 7.25001C10.4266 7.25001 10.1287 7.02025 10.0421 6.69065C9.84032 5.92303 9.42301 5.22466 8.83571 4.67566C8.24829 4.12655 7.51443 3.74907 6.71697 3.58781C6.31098 3.50571 6.04841 3.11003 6.1305 2.70403Z" fill-rule="NONZERO"></path>
 </g>
</svg>