<svg width="24" height="24" viewBox="0 0 24 24" fill="none" xmlns="http://www.w3.org/2000/svg">
<path fill-rule="evenodd" clip-rule="evenodd" d="M1.53033 0.46967C1.23744 0.176777 0.762563 0.176777 0.46967 0.46967C0.176777 0.762563 0.176777 1.23744 0.46967 1.53033L3.85822 4.91888C3.18968 5.40439 2.59003 5.98456 2.07949 6.64452C1.07817 7.93892 0.459829 9.48834 0.29468 11.1167L0.294371 11.1198C0.129906 12.7472 0.424649 14.3882 1.14521 15.8565C1.86622 17.3257 2.9847 18.5632 4.37359 19.4282C5.76248 20.2933 7.36612 20.7513 9.00222 20.7501L9.01178 20.75H17.9968C18.506 20.75 19.0082 20.6824 19.4915 20.5522L22.4697 23.5303C22.7626 23.8232 23.2374 23.8232 23.5303 23.5303C23.8232 23.2374 23.8232 22.7626 23.5303 22.4697L1.53033 0.46967ZM18.1852 19.2459L4.93495 5.99561C4.30218 6.42405 3.73807 6.952 3.26593 7.56233C2.43684 8.63408 1.92459 9.91692 1.78731 11.2653L1.78703 11.2681C1.65017 12.6175 1.89436 13.9782 2.4918 15.1956C3.08924 16.413 4.01596 17.4383 5.16662 18.155C6.31458 18.87 7.63955 19.2493 8.99156 19.2501L9.00167 19.25H17.9968C18.0597 19.25 18.1226 19.2486 18.1852 19.2459Z" fill="black"/>
<path d="M9.75367 3.25296C9.34106 3.2165 8.97703 3.52143 8.94057 3.93404C8.90411 4.34664 9.20904 4.71068 9.62165 4.74714C11.1184 4.87938 12.537 5.47366 13.6813 6.44779C14.8256 7.42192 15.639 8.72775 16.0088 10.1846C16.0933 10.5172 16.3926 10.75 16.7358 10.75L16.7932 10.75C18.07 10.7499 19.0676 10.7498 20.0082 11.254C20.6269 11.5857 21.1538 12.0656 21.5419 12.6507C21.9299 13.2359 22.167 13.9081 22.2318 14.6074C22.2967 15.3066 22.1873 16.011 21.9135 16.6576C21.752 17.039 21.9303 17.4792 22.3117 17.6407C22.6932 17.8022 23.1333 17.6239 23.2948 17.2425C23.6652 16.3677 23.8132 15.4148 23.7254 14.4688C23.6377 13.5229 23.317 12.6134 22.792 11.8217C22.267 11.03 21.554 10.3808 20.7169 9.932C19.5734 9.31903 18.3791 9.25536 17.2987 9.25008C16.7987 7.72014 15.8849 6.3538 14.6537 5.30561C13.2726 4.12989 11.5603 3.41258 9.75367 3.25296Z" fill="black"/>
</svg>
