<svg width="16" height="16" viewBox="0 0 16 16" fill="none" xmlns="http://www.w3.org/2000/svg">
<path d="M9.14706 2.26459C8.74089 2.18335 8.34578 2.44677 8.26454 2.85294L6.26454 12.8529C6.18331 13.2591 6.44672 13.6542 6.85289 13.7355C7.25906 13.8167 7.65418 13.5533 7.73541 13.1471L9.73541 3.14711C9.81665 2.74094 9.55323 2.34582 9.14706 2.26459Z" fill="black"/>
<path d="M10.9697 4.1363C11.2626 3.8434 11.7374 3.8434 12.0303 4.1363L15.5303 7.6363C15.671 7.77695 15.75 7.96771 15.75 8.16663C15.75 8.36554 15.671 8.5563 15.5303 8.69696L12.0303 12.197C11.7374 12.4898 11.2626 12.4898 10.9697 12.197C10.6768 11.9041 10.6768 11.4292 10.9697 11.1363L13.9393 8.16663L10.9697 5.19696C10.6768 4.90406 10.6768 4.42919 10.9697 4.1363Z" fill="black"/>
<path d="M5.03033 5.19696C5.32322 4.90406 5.32322 4.42919 5.03033 4.1363C4.73744 3.8434 4.26256 3.8434 3.96967 4.1363L0.46967 7.6363C0.176777 7.92919 0.176777 8.40406 0.46967 8.69696L3.96967 12.197C4.26256 12.4898 4.73744 12.4898 5.03033 12.197C5.32322 11.9041 5.32322 11.4292 5.03033 11.1363L2.06066 8.16663L5.03033 5.19696Z" fill="black"/>
</svg>
