<svg viewBox="0 0 16 16" width="16" height="16" fill="black" xmlns="http://www.w3.org/2000/svg">
 <g transform="translate(0.25, 2.2498779296875)">
  <path d="M8.89706 0.0147091C8.49089 -0.0665248 8.09578 0.196888 8.01454 0.603058L6.01454 10.6031C5.93331 11.0092 6.19672 11.4043 6.60289 11.4856C7.00906 11.5668 7.40418 11.3034 7.48541 10.8972L9.48541 0.897232C9.56665 0.491062 9.30323 0.095943 8.89706 0.0147091Z" fill-rule="NONZERO"></path>
  <path d="M10.7197 1.88642C11.0126 1.59352 11.4874 1.59352 11.7803 1.88642L15.2803 5.38642C15.421 5.52707 15.5 5.71784 15.5 5.91675C15.5 6.11566 15.421 6.30643 15.2803 6.44708L11.7803 9.94708C11.4874 10.24 11.0126 10.24 10.7197 9.94708C10.4268 9.65418 10.4268 9.17931 10.7197 8.88642L13.6893 5.91675L10.7197 2.94708C10.4268 2.65418 10.4268 2.17931 10.7197 1.88642Z" fill-rule="NONZERO"></path>
  <path d="M4.78033 2.94708C5.07322 2.65418 5.07322 2.17931 4.78033 1.88642C4.48744 1.59352 4.01256 1.59352 3.71967 1.88642L0.21967 5.38642C-0.0732233 5.67931 -0.0732233 6.15418 0.21967 6.44708L3.71967 9.94708C4.01256 10.24 4.48744 10.24 4.78033 9.94708C5.07322 9.65418 5.07322 9.17931 4.78033 8.88642L1.81066 5.91675L4.78033 2.94708Z" fill-rule="NONZERO"></path>
 </g>
</svg>