<svg viewbox="0 0 16 16" width="16" height="16" fill="black" xmlns="http://www.w3.org/2000/svg">
 <g transform="translate(1.25, 1.300048828125)">
  <path d="M3.44999 0.7C3.44999 0.313401 3.13659 0 2.74999 0C2.36339 0 2.04999 0.313401 2.04999 0.7L2.04999 2.2C2.04999 2.5866 2.36339 2.9 2.74999 2.9C3.13659 2.9 3.44999 2.5866 3.44999 2.2L3.44999 0.7Z" fill-rule="NONZERO"></path>
  <path d="M0 4.69995C0 4.28574 0.335786 3.94995 0.75 3.94995L9.75 3.94995C10.1642 3.94995 10.5 4.28574 10.5 4.69995L10.5 4.95363C11.2902 4.99242 12.0348 5.33646 12.5881 5.91279C13.1753 6.52441 13.5 7.34765 13.5 8.19995C13.5 9.05225 13.1753 9.87549 12.5881 10.4871C11.9999 11.0998 11.1955 11.45 10.35 11.45L10.2599 11.45C10.0971 11.8448 9.85494 12.2072 9.54397 12.5134C8.93361 13.1144 8.10823 13.45 7.25 13.45L3.25 13.45C2.39177 13.45 1.56639 13.1144 0.95603 12.5134C0.345281 11.9121 0 11.094 0 10.2384L0 4.69995ZM9 5.44995L9 10.2384C9 10.6886 8.8185 11.1227 8.49156 11.4446C8.16424 11.7668 7.71785 11.95 7.25 11.95L3.25 11.95C2.78215 11.95 2.33576 11.7668 2.00844 11.4446C1.6815 11.1227 1.5 10.6886 1.5 10.2384L1.5 5.44995L9 5.44995ZM11.506 6.95158C11.2306 6.66473 10.8739 6.49348 10.5 6.45721L10.5 9.94269C10.8739 9.90642 11.2306 9.73517 11.506 9.44832C11.819 9.12226 12 8.67373 12 8.19995C12 7.72617 11.819 7.27764 11.506 6.95158Z" fill-rule="EVENODD"></path>
  <path d="M5.24999 0C5.63659 0 5.94999 0.313401 5.94999 0.7L5.94999 2.2C5.94999 2.5866 5.63659 2.9 5.24999 2.9C4.86339 2.9 4.54999 2.5866 4.54999 2.2L4.54999 0.7C4.54999 0.313401 4.86339 0 5.24999 0Z" fill-rule="NONZERO"></path>
  <path d="M8.44999 0.7C8.44999 0.313401 8.13659 0 7.74999 0C7.36339 0 7.04999 0.313401 7.04999 0.7L7.04999 2.2C7.04999 2.5866 7.36339 2.9 7.74999 2.9C8.13659 2.9 8.44999 2.5866 8.44999 2.2L8.44999 0.7Z" fill-rule="NONZERO"></path>
 </g>
</svg>