<svg width="24" height="24" viewBox="0 0 24 24" fill="none" xmlns="http://www.w3.org/2000/svg">
<path d="M6.75 1C6.75 0.585786 6.41421 0.25 6 0.25C5.58579 0.25 5.25 0.585786 5.25 1V4C5.25 4.41421 5.58579 4.75 6 4.75C6.41421 4.75 6.75 4.41421 6.75 4V1Z" fill="black"/>
<path fill-rule="evenodd" clip-rule="evenodd" d="M1.25 8C1.25 7.58579 1.58579 7.25 2 7.25H18C18.4142 7.25 18.75 7.58579 18.75 8V9.25H19C20.2598 9.25 21.468 9.75044 22.3588 10.6412C23.2496 11.532 23.75 12.7402 23.75 14C23.75 15.2598 23.2496 16.468 22.3588 17.3588C21.468 18.2496 20.2598 18.75 19 18.75H18.4159C18.1792 19.3471 17.8217 19.8958 17.3588 20.3588C16.468 21.2496 15.2598 21.75 14 21.75H6C4.74022 21.75 3.53204 21.2496 2.64124 20.3588C1.75045 19.468 1.25 18.2598 1.25 17V8ZM17.25 8.75V17C17.25 17.862 16.9076 18.6886 16.2981 19.2981C15.6886 19.9076 14.862 20.25 14 20.25H6C5.13805 20.25 4.3114 19.9076 3.7019 19.2981C3.09241 18.6886 2.75 17.862 2.75 17V8.75H17.25ZM19 10.75H18.75V17C18.75 17.0836 18.7478 17.1669 18.7434 17.25H19C19.862 17.25 20.6886 16.9076 21.2981 16.2981C21.9076 15.6886 22.25 14.862 22.25 14C22.25 13.138 21.9076 12.3114 21.2981 11.7019C20.6886 11.0924 19.862 10.75 19 10.75Z" fill="black"/>
<path d="M10 0.25C10.4142 0.25 10.75 0.585786 10.75 1V4C10.75 4.41421 10.4142 4.75 10 4.75C9.58579 4.75 9.25 4.41421 9.25 4V1C9.25 0.585786 9.58579 0.25 10 0.25Z" fill="black"/>
<path d="M14.75 1C14.75 0.585786 14.4142 0.25 14 0.25C13.5858 0.25 13.25 0.585786 13.25 1V4C13.25 4.41421 13.5858 4.75 14 4.75C14.4142 4.75 14.75 4.41421 14.75 4V1Z" fill="black"/>
</svg>
