<svg viewbox="0 0 24 24" width="24" height="24" fill="black" xmlns="http://www.w3.org/2000/svg">
 <g transform="translate(1.25, 0.25)">
  <path d="M5.5 0.75C5.5 0.335786 5.16421 0 4.75 0C4.33579 0 4 0.335786 4 0.75L4 3.75C4 4.16421 4.33579 4.5 4.75 4.5C5.16421 4.5 5.5 4.16421 5.5 3.75L5.5 0.75Z" fill-rule="NONZERO"></path>
  <path d="M0 7.75C0 7.33579 0.335786 7 0.75 7L16.75 7C17.1642 7 17.5 7.33579 17.5 7.75L17.5 9L17.75 9C19.0098 9 20.218 9.50044 21.1088 10.3912C21.9996 11.282 22.5 12.4902 22.5 13.75C22.5 15.0098 21.9996 16.218 21.1088 17.1088C20.218 17.9996 19.0098 18.5 17.75 18.5L17.1659 18.5C16.9292 19.0971 16.5717 19.6458 16.1088 20.1088C15.218 20.9996 14.0098 21.5 12.75 21.5L4.75 21.5C3.49022 21.5 2.28204 20.9996 1.39124 20.1088C0.500445 19.218 0 18.0098 0 16.75L0 7.75ZM16 8.5L16 16.75C16 17.612 15.6576 18.4386 15.0481 19.0481C14.4386 19.6576 13.612 20 12.75 20L4.75 20C3.88805 20 3.0614 19.6576 2.4519 19.0481C1.84241 18.4386 1.5 17.612 1.5 16.75L1.5 8.5L16 8.5ZM17.75 10.5L17.5 10.5L17.5 16.75C17.5 16.8336 17.4978 16.9169 17.4934 17L17.75 17C18.612 17 19.4386 16.6576 20.0481 16.0481C20.6576 15.4386 21 14.612 21 13.75C21 12.888 20.6576 12.0614 20.0481 11.4519C19.4386 10.8424 18.612 10.5 17.75 10.5Z" fill-rule="EVENODD"></path>
  <path d="M8.75 0C9.16421 0 9.5 0.335786 9.5 0.75L9.5 3.75C9.5 4.16421 9.16421 4.5 8.75 4.5C8.33579 4.5 8 4.16421 8 3.75L8 0.75C8 0.335786 8.33579 0 8.75 0Z" fill-rule="NONZERO"></path>
  <path d="M13.5 0.75C13.5 0.335786 13.1642 0 12.75 0C12.3358 0 12 0.335786 12 0.75L12 3.75C12 4.16421 12.3358 4.5 12.75 4.5C13.1642 4.5 13.5 4.16421 13.5 3.75L13.5 0.75Z" fill-rule="NONZERO"></path>
 </g>
</svg>