<svg width="16" height="16" viewBox="0 0 16 16" fill="none" xmlns="http://www.w3.org/2000/svg">
<path d="M4.69999 2.00005C4.69999 1.61345 4.38659 1.30005 3.99999 1.30005C3.61339 1.30005 3.29999 1.61345 3.29999 2.00005V3.50005C3.29999 3.88665 3.61339 4.20005 3.99999 4.20005C4.38659 4.20005 4.69999 3.88665 4.69999 3.50005V2.00005Z" fill="black"/>
<path fill-rule="evenodd" clip-rule="evenodd" d="M1.25 6C1.25 5.58579 1.58579 5.25 2 5.25H11C11.4142 5.25 11.75 5.58579 11.75 6V6.25368C12.5402 6.29247 13.2848 6.63651 13.8381 7.21283C14.4253 7.82446 14.75 8.6477 14.75 9.5C14.75 10.3523 14.4253 11.1755 13.8381 11.7872C13.2499 12.3998 12.4455 12.75 11.6 12.75H11.5099C11.3471 13.1449 11.1049 13.5073 10.794 13.8135C10.1836 14.4144 9.35823 14.75 8.5 14.75H4.5C3.64177 14.75 2.81639 14.4144 2.20603 13.8135C1.59528 13.2121 1.25 12.394 1.25 11.5385V6ZM10.25 6.75V11.5385C10.25 11.9886 10.0685 12.4227 9.74156 12.7446C9.41424 13.0669 8.96785 13.25 8.5 13.25H4.5C4.03215 13.25 3.58576 13.0669 3.25844 12.7446C2.9315 12.4227 2.75 11.9886 2.75 11.5385V6.75H10.25ZM12.756 8.25163C12.4806 7.96478 12.1239 7.79353 11.75 7.75726V11.2427C12.1239 11.2065 12.4806 11.0352 12.756 10.7484C13.069 10.4223 13.25 9.97378 13.25 9.5C13.25 9.02622 13.069 8.57769 12.756 8.25163Z" fill="black"/>
<path d="M6.49999 1.30005C6.88659 1.30005 7.19999 1.61345 7.19999 2.00005V3.50005C7.19999 3.88665 6.88659 4.20005 6.49999 4.20005C6.11339 4.20005 5.79999 3.88665 5.79999 3.50005V2.00005C5.79999 1.61345 6.11339 1.30005 6.49999 1.30005Z" fill="black"/>
<path d="M9.69999 2.00005C9.69999 1.61345 9.38659 1.30005 8.99999 1.30005C8.61339 1.30005 8.29999 1.61345 8.29999 2.00005V3.50005C8.29999 3.88665 8.61339 4.20005 8.99999 4.20005C9.38659 4.20005 9.69999 3.88665 9.69999 3.50005V2.00005Z" fill="black"/>
</svg>
