<svg width="24" height="24" viewBox="0 0 24 24" fill="none" xmlns="http://www.w3.org/2000/svg">
<path fill-rule="evenodd" clip-rule="evenodd" d="M3.34835 3.34835C4.05161 2.64509 5.00544 2.25 6 2.25C6.99456 2.25 7.94839 2.64509 8.65165 3.34835C9.35491 4.05161 9.75 5.00544 9.75 6V8.25H14.25V6C14.25 5.00544 14.6451 4.05161 15.3483 3.34835C16.0516 2.64509 17.0054 2.25 18 2.25C18.9946 2.25 19.9484 2.64509 20.6517 3.34835C21.3549 4.05161 21.75 5.00544 21.75 6C21.75 6.99456 21.3549 7.94839 20.6517 8.65165C19.9484 9.35491 18.9946 9.75 18 9.75H15.75V14.25H18C18.9946 14.25 19.9484 14.6451 20.6517 15.3483C21.3549 16.0516 21.75 17.0054 21.75 18C21.75 18.9946 21.3549 19.9484 20.6517 20.6517C19.9484 21.3549 18.9946 21.75 18 21.75C17.0054 21.75 16.0516 21.3549 15.3483 20.6517C14.6451 19.9484 14.25 18.9946 14.25 18V15.75H9.75V18C9.75 18.9946 9.35491 19.9484 8.65165 20.6517C7.94839 21.3549 6.99456 21.75 6 21.75C5.00544 21.75 4.05161 21.3549 3.34835 20.6517C2.64509 19.9484 2.25 18.9946 2.25 18C2.25 17.0054 2.64509 16.0516 3.34835 15.3483C4.05161 14.6451 5.00544 14.25 6 14.25H8.25V9.75H6C5.00544 9.75 4.05161 9.35491 3.34835 8.65165C2.64509 7.94839 2.25 6.99456 2.25 6C2.25 5.00544 2.64509 4.05161 3.34835 3.34835ZM8.25 8.25V6C8.25 5.40326 8.01295 4.83097 7.59099 4.40901C7.16903 3.98705 6.59674 3.75 6 3.75C5.40326 3.75 4.83097 3.98705 4.40901 4.40901C3.98705 4.83097 3.75 5.40326 3.75 6C3.75 6.59674 3.98705 7.16903 4.40901 7.59099C4.83097 8.01295 5.40326 8.25 6 8.25H8.25ZM9.75 9.75V14.25H14.25V9.75H9.75ZM8.25 15.75H6C5.40326 15.75 4.83097 15.9871 4.40901 16.409C3.98705 16.831 3.75 17.4033 3.75 18C3.75 18.5967 3.98705 19.169 4.40901 19.591C4.83097 20.0129 5.40326 20.25 6 20.25C6.59674 20.25 7.16903 20.0129 7.59099 19.591C8.01295 19.169 8.25 18.5967 8.25 18V15.75ZM15.75 15.75V18C15.75 18.5967 15.9871 19.169 16.409 19.591C16.831 20.0129 17.4033 20.25 18 20.25C18.5967 20.25 19.169 20.0129 19.591 19.591C20.0129 19.169 20.25 18.5967 20.25 18C20.25 17.4033 20.0129 16.831 19.591 16.409C19.169 15.9871 18.5967 15.75 18 15.75H15.75ZM15.75 8.25H18C18.5967 8.25 19.169 8.01295 19.591 7.59099C20.0129 7.16903 20.25 6.59674 20.25 6C20.25 5.40326 20.0129 4.83097 19.591 4.40901C19.169 3.98705 18.5967 3.75 18 3.75C17.4033 3.75 16.831 3.98705 16.409 4.40901C15.9871 4.83097 15.75 5.40326 15.75 6V8.25Z" fill="black"/>
</svg>
