<svg width="24" height="24" viewBox="0 0 24 24" fill="none" xmlns="http://www.w3.org/2000/svg">
<path fill-rule="evenodd" clip-rule="evenodd" d="M16.9515 7.9972C17.0413 7.7277 16.9712 7.43057 16.7703 7.2297C16.5695 7.02883 16.2723 6.95868 16.0028 7.04852L9.64283 9.16852C9.41887 9.24317 9.24314 9.41891 9.16849 9.64286L7.04849 16.0029C6.95865 16.2724 7.0288 16.5695 7.22967 16.7704C7.43054 16.9712 7.72767 17.0414 7.99717 16.9515L14.3572 14.8315C14.5811 14.7569 14.7569 14.5812 14.8315 14.3572L16.9515 7.9972ZM8.94585 15.0542L10.4729 10.473L15.0541 8.94588L13.5271 13.5271L8.94585 15.0542Z" fill="black"/>
<path fill-rule="evenodd" clip-rule="evenodd" d="M12 1.25C6.06294 1.25 1.25 6.06294 1.25 12C1.25 17.9371 6.06294 22.75 12 22.75C17.9371 22.75 22.75 17.9371 22.75 12C22.75 6.06294 17.9371 1.25 12 1.25ZM2.75 12C2.75 6.89137 6.89137 2.75 12 2.75C17.1086 2.75 21.25 6.89137 21.25 12C21.25 17.1086 17.1086 21.25 12 21.25C6.89137 21.25 2.75 17.1086 2.75 12Z" fill="black"/>
</svg>
