<svg width="16" height="16" viewBox="0 0 16 16" fill="none" xmlns="http://www.w3.org/2000/svg">
<path fill-rule="evenodd" clip-rule="evenodd" d="M11.6641 5.22131C11.7479 4.96977 11.6825 4.69245 11.495 4.50497C11.3075 4.31749 11.0302 4.25202 10.7786 4.33587L6.27864 5.83587C6.06962 5.90554 5.9056 6.06956 5.83592 6.27859L4.33592 10.7786C4.25208 11.0301 4.31754 11.3074 4.50502 11.4949C4.69251 11.6824 4.96982 11.7479 5.22136 11.664L9.72136 10.164C9.93038 10.0943 10.0944 9.93033 10.1641 9.7213L11.6641 5.22131ZM6.1068 9.89315L7.0534 7.05334L9.8932 6.10674L8.9466 8.94655L6.1068 9.89315Z" fill="black"/>
<path fill-rule="evenodd" clip-rule="evenodd" d="M8 0.25C3.71979 0.25 0.25 3.71979 0.25 8C0.25 12.2802 3.71979 15.75 8 15.75C12.2802 15.75 15.75 12.2802 15.75 8C15.75 3.71979 12.2802 0.25 8 0.25ZM1.75 8C1.75 4.54822 4.54822 1.75 8 1.75C11.4518 1.75 14.25 4.54822 14.25 8C14.25 11.4518 11.4518 14.25 8 14.25C4.54822 14.25 1.75 11.4518 1.75 8Z" fill="black"/>
</svg>
