<svg width="24" height="24" viewBox="0 0 24 24" fill="none" xmlns="http://www.w3.org/2000/svg">
<path d="M8.71291 3.30691C8.62445 3.34351 8.54158 3.39776 8.46967 3.46967L3.46967 8.46967C3.17678 8.76256 3.17678 9.23744 3.46967 9.53033C3.76256 9.82322 4.23744 9.82322 4.53033 9.53033L8.25 5.81066V16C8.25 17.2598 8.75044 18.468 9.64124 19.3588C10.532 20.2496 11.7402 20.75 13 20.75H20C20.4142 20.75 20.75 20.4142 20.75 20C20.75 19.5858 20.4142 19.25 20 19.25H13C12.138 19.25 11.3114 18.9076 10.7019 18.2981C10.0924 17.6886 9.75 16.862 9.75 16V5.81066L13.4697 9.53033C13.7626 9.82322 14.2374 9.82322 14.5303 9.53033C14.8232 9.23744 14.8232 8.76256 14.5303 8.46967L9.53033 3.46967C9.38388 3.32322 9.19194 3.25 9 3.25C8.89831 3.25 8.80134 3.27024 8.71291 3.30691Z" fill="black"/>
</svg>
