<svg width="24" height="24" viewBox="0 0 24 24" fill="none" xmlns="http://www.w3.org/2000/svg">
<path d="M4 3.25C3.58579 3.25 3.25 3.58579 3.25 4C3.25 4.41421 3.58579 4.75 4 4.75H11C11.862 4.75 12.6886 5.09241 13.2981 5.7019C13.9076 6.3114 14.25 7.13805 14.25 8V18.1893L10.5303 14.4697C10.2374 14.1768 9.76256 14.1768 9.46967 14.4697C9.17678 14.7626 9.17678 15.2374 9.46967 15.5303L14.4697 20.5303C14.5416 20.6022 14.6245 20.6565 14.7129 20.6931C14.7901 20.7251 14.8738 20.7446 14.9614 20.749C14.9742 20.7497 14.9871 20.75 15 20.75C15.1017 20.75 15.1987 20.7298 15.2871 20.6931C15.3755 20.6565 15.4584 20.6022 15.5303 20.5303L20.5303 15.5303C20.8232 15.2374 20.8232 14.7626 20.5303 14.4697C20.2374 14.1768 19.7626 14.1768 19.4697 14.4697L15.75 18.1893V8C15.75 6.74022 15.2496 5.53204 14.3588 4.64124C13.468 3.75044 12.2598 3.25 11 3.25H4Z" fill="black"/>
</svg>
