<svg viewbox="0 0 16 16" width="16" height="16" fill="black" xmlns="http://www.w3.org/2000/svg">
 <g transform="translate(2.25, 2.25)">
  <path d="M0.75 0C0.335786 0 0 0.335786 0 0.75C0 1.16421 0.335786 1.5 0.75 1.5L5.25 1.5C5.71413 1.5 6.15925 1.68437 6.48744 2.01256C6.81563 2.34075 7 2.78587 7 3.25L7 8.93934L4.78033 6.71967C4.48744 6.42678 4.01256 6.42678 3.71967 6.71967C3.42678 7.01256 3.42678 7.48744 3.71967 7.78033L7.21967 11.2803C7.51256 11.5732 7.98744 11.5732 8.28033 11.2803L11.7803 7.78033C12.0732 7.48744 12.0732 7.01256 11.7803 6.71967C11.4874 6.42678 11.0126 6.42678 10.7197 6.71967L8.5 8.93934L8.5 3.25C8.5 2.38805 8.15759 1.5614 7.5481 0.951903C6.9386 0.34241 6.11195 0 5.25 0L0.75 0Z" fill-rule="NONZERO"></path>
 </g>
</svg>