<svg width="16" height="16" viewBox="0 0 16 16" fill="none" xmlns="http://www.w3.org/2000/svg">
<path d="M7.03033 3.03033C7.32322 2.73744 7.32322 2.26256 7.03033 1.96967C6.73744 1.67678 6.26256 1.67678 5.96967 1.96967L2.46967 5.46967C2.32902 5.61032 2.25 5.80109 2.25 6C2.25 6.19891 2.32902 6.38968 2.46967 6.53033L5.96967 10.0303C6.26256 10.3232 6.73744 10.3232 7.03033 10.0303C7.32322 9.73744 7.32322 9.26256 7.03033 8.96967L4.81066 6.75H10.5C10.9641 6.75 11.4092 6.93437 11.7374 7.26256C12.0656 7.59075 12.25 8.03587 12.25 8.5V13C12.25 13.4142 12.5858 13.75 13 13.75C13.4142 13.75 13.75 13.4142 13.75 13V8.5C13.75 7.63805 13.4076 6.8114 12.7981 6.2019C12.1886 5.59241 11.362 5.25 10.5 5.25H4.81066L7.03033 3.03033Z" fill="black"/>
</svg>
