<svg width="16" height="16" viewBox="0 0 16 16" fill="none" xmlns="http://www.w3.org/2000/svg">
<path d="M3 2.25C2.58579 2.25 2.25 2.58579 2.25 3C2.25 3.41421 2.58579 3.75 3 3.75H7.5C7.96413 3.75 8.40925 3.93437 8.73744 4.26256C9.06563 4.59075 9.25 5.03587 9.25 5.5V11.1893L7.03033 8.96967C6.73744 8.67678 6.26256 8.67678 5.96967 8.96967C5.67678 9.26256 5.67678 9.73744 5.96967 10.0303L9.46967 13.5303C9.76256 13.8232 10.2374 13.8232 10.5303 13.5303L14.0303 10.0303C14.3232 9.73744 14.3232 9.26256 14.0303 8.96967C13.7374 8.67678 13.2626 8.67678 12.9697 8.96967L10.75 11.1893V5.5C10.75 4.63805 10.4076 3.8114 9.7981 3.2019C9.1886 2.59241 8.36195 2.25 7.5 2.25H3Z" fill="black"/>
</svg>
