<svg width="24" height="24" viewBox="0 0 24 24" fill="none" xmlns="http://www.w3.org/2000/svg">
<path d="M13 3.25C11.7402 3.25 10.532 3.75044 9.64124 4.64124C8.75044 5.53204 8.25 6.74022 8.25 8V18.1893L4.53033 14.4697C4.23744 14.1768 3.76256 14.1768 3.46967 14.4697C3.17678 14.7626 3.17678 15.2374 3.46967 15.5303L8.46967 20.5303C8.54158 20.6022 8.62445 20.6565 8.71291 20.6931C8.79009 20.7251 8.87376 20.7446 8.96141 20.749C8.97419 20.7497 8.98706 20.75 9 20.75C9.19194 20.75 9.38388 20.6768 9.53033 20.5303L14.5303 15.5303C14.8232 15.2374 14.8232 14.7626 14.5303 14.4697C14.2374 14.1768 13.7626 14.1768 13.4697 14.4697L9.75 18.1893V8C9.75 7.13805 10.0924 6.3114 10.7019 5.7019C11.3114 5.09241 12.138 4.75 13 4.75H20C20.4142 4.75 20.75 4.41421 20.75 4C20.75 3.58579 20.4142 3.25 20 3.25H13Z" fill="black"/>
</svg>
