<svg width="16" height="16" viewBox="0 0 16 16" fill="none" xmlns="http://www.w3.org/2000/svg">
<path d="M3.75 3C3.75 2.58579 3.41421 2.25 3 2.25C2.58579 2.25 2.25 2.58579 2.25 3V7.5C2.25 8.36195 2.59241 9.1886 3.2019 9.7981C3.8114 10.4076 4.63805 10.75 5.5 10.75H11.6893L9.46967 12.9697C9.17678 13.2626 9.17678 13.7374 9.46967 14.0303C9.76256 14.3232 10.2374 14.3232 10.5303 14.0303L14.0303 10.5303C14.3232 10.2374 14.3232 9.76256 14.0303 9.46967L10.5303 5.96967C10.2374 5.67678 9.76256 5.67678 9.46967 5.96967C9.17678 6.26256 9.17678 6.73744 9.46967 7.03033L11.6893 9.25H5.5C5.03587 9.25 4.59075 9.06563 4.26256 8.73744C3.93437 8.40925 3.75 7.96413 3.75 7.5V3Z" fill="black"/>
</svg>
