<svg viewBox="0 0 24 24" width="24" height="24" fill="black" xmlns="http://www.w3.org/2000/svg">
 <g transform="translate(3.25, 3.25)">
  <path d="M5.46291 0.0569091C5.37445 0.0935089 5.29158 0.147763 5.21967 0.21967L0.21967 5.21967C-0.0732233 5.51256 -0.0732233 5.98744 0.21967 6.28033C0.512563 6.57322 0.987437 6.57322 1.28033 6.28033L5 2.56066L5 12.75C5 14.0098 5.50044 15.218 6.39124 16.1088C7.28204 16.9996 8.49022 17.5 9.75 17.5L16.75 17.5C17.1642 17.5 17.5 17.1642 17.5 16.75C17.5 16.3358 17.1642 16 16.75 16L9.75 16C8.88805 16 8.0614 15.6576 7.4519 15.0481C6.84241 14.4386 6.5 13.612 6.5 12.75L6.5 2.56066L10.2197 6.28033C10.5126 6.57322 10.9874 6.57322 11.2803 6.28033C11.5732 5.98744 11.5732 5.51256 11.2803 5.21967L6.28033 0.21967C6.13388 0.0732233 5.94194 0 5.75 0C5.64831 0 5.55134 0.0202391 5.46291 0.0569091Z" fill-rule="NONZERO"></path>
 </g>
</svg>