<svg viewBox="0 0 24 24" width="24" height="24" fill="black" xmlns="http://www.w3.org/2000/svg">
 <g transform="translate(3.25, 3.25)">
  <path d="M9.75 0C8.49022 0 7.28204 0.500445 6.39124 1.39124C5.50044 2.28204 5 3.49022 5 4.75L5 14.9393L1.28033 11.2197C0.987437 10.9268 0.512563 10.9268 0.21967 11.2197C-0.0732233 11.5126 -0.0732233 11.9874 0.21967 12.2803L5.21967 17.2803C5.29158 17.3522 5.37445 17.4065 5.46291 17.4431C5.54009 17.4751 5.62376 17.4946 5.71141 17.499C5.72419 17.4997 5.73706 17.5 5.75 17.5C5.94194 17.5 6.13388 17.4268 6.28033 17.2803L11.2803 12.2803C11.5732 11.9874 11.5732 11.5126 11.2803 11.2197C10.9874 10.9268 10.5126 10.9268 10.2197 11.2197L6.5 14.9393L6.5 4.75C6.5 3.88805 6.84241 3.0614 7.4519 2.4519C8.0614 1.84241 8.88805 1.5 9.75 1.5L16.75 1.5C17.1642 1.5 17.5 1.16421 17.5 0.75C17.5 0.335786 17.1642 0 16.75 0L9.75 0Z" fill-rule="NONZERO"></path>
 </g>
</svg>