<svg width="16" height="16" viewBox="0 0 16 16" fill="none" xmlns="http://www.w3.org/2000/svg">
<path d="M8.5 2.25C7.63805 2.25 6.8114 2.59241 6.2019 3.2019C5.59241 3.8114 5.25 4.63805 5.25 5.5V11.1893L3.03033 8.96967C2.73744 8.67678 2.26256 8.67678 1.96967 8.96967C1.67678 9.26256 1.67678 9.73744 1.96967 10.0303L5.46967 13.5303C5.76256 13.8232 6.23744 13.8232 6.53033 13.5303L10.0303 10.0303C10.3232 9.73744 10.3232 9.26256 10.0303 8.96967C9.73744 8.67678 9.26256 8.67678 8.96967 8.96967L6.75 11.1893V5.5C6.75 5.03587 6.93437 4.59075 7.26256 4.26256C7.59075 3.93437 8.03587 3.75 8.5 3.75H13C13.4142 3.75 13.75 3.41421 13.75 3C13.75 2.58579 13.4142 2.25 13 2.25H8.5Z" fill="black"/>
</svg>
