<svg width="16" height="16" viewBox="0 0 16 16" fill="none" xmlns="http://www.w3.org/2000/svg">
<path d="M6.53033 2.46967C6.38968 2.32902 6.19891 2.25 6 2.25C5.80109 2.25 5.61032 2.32902 5.46967 2.46967L1.96967 5.96967C1.67678 6.26256 1.67678 6.73744 1.96967 7.03033C2.26256 7.32322 2.73744 7.32322 3.03033 7.03033L5.25 4.81066V10.5C5.25 11.362 5.59241 12.1886 6.2019 12.7981C6.8114 13.4076 7.63805 13.75 8.5 13.75H13C13.4142 13.75 13.75 13.4142 13.75 13C13.75 12.5858 13.4142 12.25 13 12.25H8.5C8.03587 12.25 7.59075 12.0656 7.26256 11.7374C6.93437 11.4092 6.75 10.9641 6.75 10.5V4.81066L8.96967 7.03033C9.26256 7.32322 9.73744 7.32322 10.0303 7.03033C10.3232 6.73744 10.3232 6.26256 10.0303 5.96967L6.53033 2.46967Z" fill="black"/>
</svg>
