<svg width="16" height="16" viewBox="0 0 16 16" fill="none" xmlns="http://www.w3.org/2000/svg">
<path d="M10.0303 1.96967C9.73744 1.67678 9.26256 1.67678 8.96967 1.96967C8.67678 2.26256 8.67678 2.73744 8.96967 3.03033L11.1893 5.25H5.5C4.63805 5.25 3.8114 5.59241 3.2019 6.2019C2.59241 6.8114 2.25 7.63805 2.25 8.5V13C2.25 13.4142 2.58579 13.75 3 13.75C3.41421 13.75 3.75 13.4142 3.75 13V8.5C3.75 8.03587 3.93437 7.59075 4.26256 7.26256C4.59075 6.93437 5.03587 6.75 5.5 6.75H11.1893L8.96967 8.96967C8.67678 9.26256 8.67678 9.73744 8.96967 10.0303C9.26256 10.3232 9.73744 10.3232 10.0303 10.0303L13.5303 6.53033C13.6768 6.38388 13.75 6.19194 13.75 6C13.75 5.89831 13.7298 5.80134 13.6931 5.71291C13.6565 5.62445 13.6022 5.54158 13.5303 5.46967L10.0303 1.96967Z" fill="black"/>
</svg>
