<svg width="24" height="24" viewBox="0 0 24 24" fill="none" xmlns="http://www.w3.org/2000/svg">
<path d="M20.75 4C20.75 3.58579 20.4142 3.25 20 3.25C19.5858 3.25 19.25 3.58579 19.25 4V11C19.25 11.862 18.9076 12.6886 18.2981 13.2981C17.6886 13.9076 16.862 14.25 16 14.25H5.81066L9.53033 10.5303C9.82322 10.2374 9.82322 9.76256 9.53033 9.46967C9.23744 9.17678 8.76256 9.17678 8.46967 9.46967L3.46967 14.4697C3.39776 14.5416 3.34351 14.6245 3.30691 14.7129C3.27024 14.8013 3.25 14.8983 3.25 15C3.25 15.1017 3.27024 15.1987 3.30691 15.2871C3.34351 15.3755 3.39776 15.4584 3.46967 15.5303L8.46967 20.5303C8.76256 20.8232 9.23744 20.8232 9.53033 20.5303C9.82322 20.2374 9.82322 19.7626 9.53033 19.4697L5.81066 15.75H16C17.2598 15.75 18.468 15.2496 19.3588 14.3588C20.2496 13.468 20.75 12.2598 20.75 11V4Z" fill="black"/>
</svg>
