<svg width="24" height="24" viewBox="0 0 24 24" fill="none" xmlns="http://www.w3.org/2000/svg">
<path d="M4.75 4C4.75 3.58579 4.41421 3.25 4 3.25C3.58579 3.25 3.25 3.58579 3.25 4V11C3.25 12.2598 3.75044 13.468 4.64124 14.3588C5.53204 15.2496 6.74022 15.75 8 15.75H18.1893L14.4697 19.4697C14.1768 19.7626 14.1768 20.2374 14.4697 20.5303C14.7626 20.8232 15.2374 20.8232 15.5303 20.5303L20.5303 15.5303C20.6022 15.4584 20.6565 15.3755 20.6931 15.2871C20.7251 15.2099 20.7446 15.1262 20.749 15.0386C20.7497 15.0258 20.75 15.0129 20.75 15C20.75 14.8983 20.7298 14.8013 20.6931 14.7129C20.6565 14.6245 20.6022 14.5416 20.5303 14.4697L15.5303 9.46967C15.2374 9.17678 14.7626 9.17678 14.4697 9.46967C14.1768 9.76256 14.1768 10.2374 14.4697 10.5303L18.1893 14.25H8C7.13805 14.25 6.3114 13.9076 5.7019 13.2981C5.09241 12.6886 4.75 11.862 4.75 11V4Z" fill="black"/>
</svg>
