<svg viewbox="0 0 16 16" width="16" height="16" fill="black" xmlns="http://www.w3.org/2000/svg">
 <g transform="translate(2.25, 1.75)">
  <path d="M4.78033 1.28033C5.07322 0.987437 5.07322 0.512563 4.78033 0.21967C4.48744 -0.0732233 4.01256 -0.0732233 3.71967 0.21967L0.21967 3.71967C0.0790176 3.86032 0 4.05109 0 4.25C0 4.44891 0.0790176 4.63968 0.21967 4.78033L3.71967 8.28033C4.01256 8.57322 4.48744 8.57322 4.78033 8.28033C5.07322 7.98744 5.07322 7.51256 4.78033 7.21967L2.56066 5L8.25 5C8.71413 5 9.15925 5.18437 9.48744 5.51256C9.81563 5.84075 10 6.28587 10 6.75L10 11.25C10 11.6642 10.3358 12 10.75 12C11.1642 12 11.5 11.6642 11.5 11.25L11.5 6.75C11.5 5.88805 11.1576 5.0614 10.5481 4.4519C9.9386 3.84241 9.11195 3.5 8.25 3.5L2.56066 3.5L4.78033 1.28033Z" fill-rule="NONZERO"></path>
 </g>
</svg>