<svg width="24" height="24" viewBox="0 0 24 24" fill="none" xmlns="http://www.w3.org/2000/svg">
<path d="M5 14.25C4.58579 14.25 4.25 14.5858 4.25 15C4.25 15.4142 4.58579 15.75 5 15.75H7C7.41421 15.75 7.75 15.4142 7.75 15C7.75 14.5858 7.41421 14.25 7 14.25H5Z" fill="black"/>
<path fill-rule="evenodd" clip-rule="evenodd" d="M0.25 6V18C0.25 19.5188 1.48122 20.75 3 20.75H21C22.5188 20.75 23.75 19.5188 23.75 18V6C23.75 4.48122 22.5188 3.25 21 3.25H3C1.48122 3.25 0.25 4.48122 0.25 6ZM3 4.75C2.30964 4.75 1.75 5.30964 1.75 6V7.76772C1.83165 7.75604 1.91512 7.75 2 7.75H22C22.0849 7.75 22.1683 7.75604 22.25 7.76772V6C22.25 5.30964 21.6904 4.75 21 4.75H3ZM22.25 18V11.2323C22.1683 11.244 22.0849 11.25 22 11.25H2C1.91512 11.25 1.83165 11.244 1.75 11.2323V18C1.75 18.6904 2.30964 19.25 3 19.25H21C21.6904 19.25 22.25 18.6904 22.25 18Z" fill="black"/>
</svg>
