<svg width="24" height="24" viewBox="0 0 24 24" fill="none" xmlns="http://www.w3.org/2000/svg">
<path fill-rule="evenodd" clip-rule="evenodd" d="M6.75 1C6.75 0.585786 6.41421 0.25 6 0.25C5.58579 0.25 5.25 0.585786 5.25 1V5.25H1C0.585786 5.25 0.25 5.58579 0.25 6C0.25 6.41421 0.585786 6.75 1 6.75H5.25V16C5.25 16.7293 5.53973 17.4288 6.05546 17.9445C6.57118 18.4603 7.27065 18.75 8 18.75H17.25V23C17.25 23.4142 17.5858 23.75 18 23.75C18.4142 23.75 18.75 23.4142 18.75 23V18.75H23C23.4142 18.75 23.75 18.4142 23.75 18C23.75 17.5858 23.4142 17.25 23 17.25H18.75V8C18.75 7.27065 18.4603 6.57118 17.9445 6.05546C17.4288 5.53973 16.7293 5.25 16 5.25H6.75V1ZM6.75 6.75V16C6.75 16.3315 6.8817 16.6495 7.11612 16.8839C7.35054 17.1183 7.66848 17.25 8 17.25H17.25V8C17.25 7.66848 17.1183 7.35054 16.8839 7.11612C16.6495 6.8817 16.3315 6.75 16 6.75H6.75Z" fill="black"/>
</svg>
