<svg viewBox="0 0 24 24" width="24" height="24" fill="black" xmlns="http://www.w3.org/2000/svg">
 <g transform="translate(0.25, 0.25)">
  <path d="M6.5 0.75C6.5 0.335786 6.16421 0 5.75 0C5.33579 0 5 0.335786 5 0.75L5 5L0.75 5C0.335786 5 0 5.33579 0 5.75C0 6.16421 0.335786 6.5 0.75 6.5L5 6.5L5 15.75C5 16.4793 5.28973 17.1788 5.80546 17.6945C6.32118 18.2103 7.02065 18.5 7.75 18.5L17 18.5L17 22.75C17 23.1642 17.3358 23.5 17.75 23.5C18.1642 23.5 18.5 23.1642 18.5 22.75L18.5 18.5L22.75 18.5C23.1642 18.5 23.5 18.1642 23.5 17.75C23.5 17.3358 23.1642 17 22.75 17L18.5 17L18.5 7.75C18.5 7.02065 18.2103 6.32118 17.6945 5.80546C17.1788 5.28973 16.4793 5 15.75 5L6.5 5L6.5 0.75ZM6.5 6.5L6.5 15.75C6.5 16.0815 6.6317 16.3995 6.86612 16.6339C7.10054 16.8683 7.41848 17 7.75 17L17 17L17 7.75C17 7.41848 16.8683 7.10054 16.6339 6.86612C16.3995 6.6317 16.0815 6.5 15.75 6.5L6.5 6.5Z" fill-rule="EVENODD"></path>
 </g>
</svg>