<svg viewbox="0 0 24 24" width="24" height="24" fill="black" xmlns="http://www.w3.org/2000/svg">
 <g transform="translate(1.25, 1.25)">
  <path d="M0 10.75C0 4.81294 4.81294 0 10.75 0C16.6871 0 21.5 4.81294 21.5 10.75C21.5 16.6871 16.6871 21.5 10.75 21.5C4.81294 21.5 0 16.6871 0 10.75ZM11.5 19.97L11.5 16.75C11.5 16.3358 11.1642 16 10.75 16C10.3358 16 10 16.3358 10 16.75L10 19.97C5.4895 19.6081 1.89188 16.0105 1.52997 11.5L4.75 11.5C5.16421 11.5 5.5 11.1642 5.5 10.75C5.5 10.3358 5.16421 10 4.75 10L1.52997 10C1.89188 5.4895 5.4895 1.89188 10 1.52997L10 4.75C10 5.16421 10.3358 5.5 10.75 5.5C11.1642 5.5 11.5 5.16421 11.5 4.75L11.5 1.52997C16.0105 1.89188 19.6081 5.4895 19.97 10L16.75 10C16.3358 10 16 10.3358 16 10.75C16 11.1642 16.3358 11.5 16.75 11.5L19.97 11.5C19.6081 16.0105 16.0105 19.6081 11.5 19.97Z" fill-rule="EVENODD"></path>
 </g>
</svg>