<svg width="16" height="16" viewBox="0 0 16 16" fill="none" xmlns="http://www.w3.org/2000/svg">
<path fill-rule="evenodd" clip-rule="evenodd" d="M3.52019 0.874274C4.70117 0.480615 6.28497 0.25 8 0.25C9.71503 0.25 11.2988 0.480615 12.4798 0.874274C13.0664 1.0698 13.5952 1.31915 13.9927 1.63245C14.3818 1.93909 14.75 2.39556 14.75 3V13C14.75 13.6025 14.3859 14.059 13.997 14.3672C13.6007 14.6813 13.0732 14.9309 12.4875 15.1264C11.3083 15.5201 9.72424 15.75 8 15.75C6.27576 15.75 4.69165 15.5201 3.5125 15.1264C2.9268 14.9309 2.39933 14.6813 2.00295 14.3672C1.61406 14.059 1.25 13.6025 1.25 13V3C1.25 2.39556 1.61818 1.93909 2.00728 1.63245C2.40483 1.31915 2.93362 1.0698 3.52019 0.874274ZM2.75516 3C2.76975 2.97141 2.81324 2.90711 2.93574 2.81057C3.14542 2.64532 3.49531 2.4637 3.99453 2.2973C4.98512 1.9671 6.40132 1.75 8 1.75C9.59868 1.75 11.0149 1.9671 12.0055 2.2973C12.5047 2.4637 12.8546 2.64532 13.0643 2.81057C13.1868 2.90711 13.2303 2.97141 13.2448 3C13.2303 3.02859 13.1868 3.09289 13.0643 3.18943C12.8546 3.35468 12.5047 3.5363 12.0055 3.7027C11.0149 4.0329 9.59868 4.25 8 4.25C6.40132 4.25 4.98512 4.0329 3.99453 3.7027C3.49531 3.5363 3.14542 3.35468 2.93574 3.18943C2.81324 3.09289 2.76975 3.02859 2.75516 3ZM2.75 9.82206V12.9899C2.75683 13.0087 2.79099 13.0778 2.93455 13.1916C3.14234 13.3562 3.48987 13.5375 3.9875 13.7036C4.97502 14.0333 6.39091 14.25 8 14.25C9.60909 14.25 11.025 14.0333 12.0125 13.7036C12.5101 13.5375 12.8577 13.3562 13.0655 13.1916C13.209 13.0778 13.2432 13.0087 13.25 12.9899V9.82206C13.0128 9.93556 12.7563 10.0367 12.4875 10.1264C11.3083 10.5201 9.72424 10.75 8 10.75C6.27576 10.75 4.69165 10.5201 3.5125 10.1264C3.24372 10.0367 2.98721 9.93556 2.75 9.82206ZM13.25 7.9899C13.2432 8.00873 13.209 8.07779 13.0655 8.19155C12.8577 8.35621 12.5101 8.53746 12.0125 8.7036C11.025 9.03328 9.60909 9.25 8 9.25C6.39091 9.25 4.97502 9.03328 3.9875 8.7036C3.48987 8.53746 3.14234 8.35621 2.93455 8.19155C2.79099 8.07779 2.75683 8.00873 2.75 7.98991V4.81857C2.98949 4.93316 3.24865 5.03521 3.52019 5.12573C4.70117 5.51939 6.28497 5.75 8 5.75C9.71503 5.75 11.2988 5.51939 12.4798 5.12573C12.7514 5.03521 13.0105 4.93316 13.25 4.81857V7.9899Z" fill="black"/>
</svg>
