<svg width="16" height="16" viewBox="0 0 16 16" fill="none" xmlns="http://www.w3.org/2000/svg">
<path d="M1.75 8C1.75 4.54822 4.54822 1.75 8 1.75C8.12713 1.75 8.25328 1.75379 8.37836 1.76124C8.79184 1.78588 9.14701 1.47067 9.17165 1.05719C9.1963 0.643712 8.88108 0.288542 8.4676 0.263898C8.31283 0.254673 8.15692 0.25 8 0.25C3.71979 0.25 0.25 3.71979 0.25 8C0.25 12.2802 3.71979 15.75 8 15.75C10.9661 15.75 13.5418 14.0835 14.8439 11.6393C14.8996 11.5349 14.9529 11.429 15.0038 11.3218C15.0604 11.2028 15.114 11.082 15.1646 10.9597C15.3229 10.5769 15.1409 10.1383 14.7581 9.98002C14.3753 9.82174 13.9367 10.0037 13.7784 10.3865C13.7377 10.485 13.6945 10.5823 13.6489 10.6782C13.6079 10.7646 13.5649 10.8499 13.5201 10.934C12.4681 12.9086 10.3901 14.25 8 14.25C4.54822 14.25 1.75 11.4518 1.75 8Z" fill="black"/>
<path d="M10.4576 1.40057C10.6429 1.03014 11.0935 0.880114 11.4639 1.06547C11.7441 1.2057 12.0146 1.36238 12.2741 1.53421C12.6194 1.76291 12.714 2.22827 12.4853 2.57363C12.2566 2.91898 11.7912 3.01354 11.4459 2.78484C11.2366 2.64621 11.0185 2.5199 10.7927 2.4069C10.4222 2.22154 10.2722 1.77099 10.4576 1.40057Z" fill="black"/>
<path d="M13.4264 3.51469C13.7717 3.28599 14.2371 3.38055 14.4658 3.7259C14.6376 3.98538 14.7943 4.25586 14.9345 4.5361C15.1199 4.90653 14.9699 5.35708 14.5994 5.54244C14.229 5.7278 13.7785 5.57777 13.5931 5.20734C13.4801 4.98153 13.3538 4.76344 13.2152 4.55411C12.9865 4.20876 13.081 3.7434 13.4264 3.51469Z" fill="black"/>
<path d="M14.9428 6.82835C15.3563 6.8037 15.7115 7.11892 15.7361 7.5324C15.7453 7.68717 15.75 7.84308 15.75 8C15.75 8.1325 15.7467 8.26429 15.7401 8.39529C15.7193 8.80898 15.367 9.12746 14.9533 9.10665C14.5396 9.08583 14.2212 8.73359 14.242 8.3199C14.2473 8.21401 14.25 8.10735 14.25 8C14.25 7.87287 14.2462 7.74672 14.2388 7.62164C14.2141 7.20816 14.5293 6.85299 14.9428 6.82835Z" fill="black"/>
<path d="M8 3.25C8.41421 3.25 8.75 3.58579 8.75 4V7.53647L11.3354 8.82918C11.7059 9.01442 11.8561 9.46493 11.6708 9.83541C11.4856 10.2059 11.0351 10.3561 10.6646 10.1708L7.66459 8.67082C7.4105 8.54378 7.25 8.28408 7.25 8V4C7.25 3.58579 7.58579 3.25 8 3.25Z" fill="black"/>
</svg>
