<svg viewbox="0 0 24 24" width="24" height="24" fill="black" xmlns="http://www.w3.org/2000/svg">
 <g transform="translate(0.25, 3.25)">
  <path d="M18.2803 5.21967C18.5732 5.51256 18.5732 5.98744 18.2803 6.28033L15.8107 8.75L18.2803 11.2197C18.5732 11.5126 18.5732 11.9874 18.2803 12.2803C17.9874 12.5732 17.5126 12.5732 17.2197 12.2803L14.75 9.81066L12.2803 12.2803C11.9874 12.5732 11.5126 12.5732 11.2197 12.2803C10.9268 11.9874 10.9268 11.5126 11.2197 11.2197L13.6893 8.75L11.2197 6.28033C10.9268 5.98744 10.9268 5.51256 11.2197 5.21967C11.5126 4.92678 11.9874 4.92678 12.2803 5.21967L14.75 7.68934L17.2197 5.21967C17.5126 4.92678 17.9874 4.92678 18.2803 5.21967Z" fill-rule="NONZERO"></path>
  <path d="M7.18557 0.256122C7.32798 0.0933603 7.53373 0 7.75 0L20.75 0C21.4793 0 22.1788 0.289731 22.6945 0.805456C23.2103 1.32118 23.5 2.02065 23.5 2.75L23.5 14.75C23.5 15.4793 23.2103 16.1788 22.6945 16.6945C22.1788 17.2103 21.4793 17.5 20.75 17.5L7.75 17.5C7.53373 17.5 7.32798 17.4066 7.18557 17.2439L0.185568 9.24388C-0.0618558 8.96111 -0.0618558 8.53889 0.185568 8.25612L7.18557 0.256122ZM8.09033 1.5L1.74658 8.75L8.09033 16L20.75 16C21.0815 16 21.3995 15.8683 21.6339 15.6339C21.8683 15.3995 22 15.0815 22 14.75L22 2.75C22 2.41848 21.8683 2.10054 21.6339 1.86612C21.3995 1.6317 21.0815 1.5 20.75 1.5L8.09033 1.5Z" fill-rule="EVENODD"></path>
 </g>
</svg>