<svg width="16" height="16" viewBox="0 0 16 16" fill="none" xmlns="http://www.w3.org/2000/svg">
<path d="M11.5303 5.46967C11.8232 5.76256 11.8232 6.23744 11.5303 6.53033L10.0607 8L11.5303 9.46967C11.8232 9.76256 11.8232 10.2374 11.5303 10.5303C11.2374 10.8232 10.7626 10.8232 10.4697 10.5303L9 9.06066L7.53033 10.5303C7.23744 10.8232 6.76256 10.8232 6.46967 10.5303C6.17678 10.2374 6.17678 9.76256 6.46967 9.46967L7.93934 8L6.46967 6.53033C6.17678 6.23744 6.17678 5.76256 6.46967 5.46967C6.76256 5.17678 7.23744 5.17678 7.53033 5.46967L9 6.93934L10.4697 5.46967C10.7626 5.17678 11.2374 5.17678 11.5303 5.46967Z" fill="black"/>
<path fill-rule="evenodd" clip-rule="evenodd" d="M4.89455 2.5011C5.03686 2.34136 5.24061 2.25 5.45455 2.25H13.7273C14.2637 2.25 14.7782 2.46311 15.1576 2.84244C15.5369 3.22178 15.75 3.73627 15.75 4.27273V11.7273C15.75 12.2637 15.5369 12.7782 15.1576 13.1576C14.7782 13.5369 14.2637 13.75 13.7273 13.75H5.45455C5.24061 13.75 5.03686 13.6586 4.89455 13.4989L0.440005 8.4989C0.186665 8.21454 0.186665 7.78546 0.440005 7.5011L4.89455 2.5011ZM5.79084 3.75L2.00447 8L5.79084 12.25H13.7273C13.8659 12.25 13.9989 12.1949 14.0969 12.0969C14.1949 11.9989 14.25 11.8659 14.25 11.7273V4.27273C14.25 4.13409 14.1949 4.00113 14.0969 3.9031C13.9989 3.80507 13.8659 3.75 13.7273 3.75H5.79084Z" fill="black"/>
</svg>
