<svg width="24" height="24" viewBox="0 0 24 24" fill="none" xmlns="http://www.w3.org/2000/svg">
<g clip-path="url(#clip0)">
<path fill-rule="evenodd" clip-rule="evenodd" d="M11.1161 2.94482L2.94442 11.1165C2.45626 11.6046 2.45626 12.3961 2.94443 12.8843L11.1161 21.0557C11.6042 21.5439 12.3957 21.5439 12.8838 21.0557L21.0553 12.8843C21.5435 12.3961 21.5435 11.6047 21.0553 11.1165L12.8838 2.94483C12.3957 2.45667 11.6042 2.45666 11.1161 2.94482ZM1.88376 10.0558L10.0554 1.88416C11.1294 0.810212 12.8706 0.810221 13.9445 1.88418L22.116 10.0558C23.1899 11.1298 23.1899 12.871 22.116 13.9449L13.9445 22.1164C12.8706 23.1903 11.1294 23.1903 10.0554 22.1164L1.88378 13.9449C0.809817 12.871 0.809805 11.1298 1.88376 10.0558Z" fill="black"/>
</g>
<defs>
<clipPath id="clip0">
<rect width="24" height="24" fill="white"/>
</clipPath>
</defs>
</svg>
