<svg viewbox="0 0 24 24" width="24" height="24" fill="black" xmlns="http://www.w3.org/2000/svg">
 <g transform="translate(-0.06076450273394585, 12.00035285949707)">
  <path d="M14.3065 1.5L2.75 1.5C2.05964 1.50001 1.49999 2.05966 1.5 2.75002L1.50013 14.3064C1.50013 14.9967 2.05977 15.5564 2.75013 15.5564L14.3063 15.5564C14.9967 15.5564 15.5563 14.9967 15.5563 14.3064L15.5565 2.75001C15.5565 2.05965 14.9968 1.5 14.3065 1.5ZM2.75 4.70877e-06L14.3065 2.16493e-13C15.8253 -5.96046e-07 17.0565 1.23123 17.0565 2.75003L17.0563 14.3064C17.0563 15.8252 15.8251 17.0564 14.3063 17.0564L2.75012 17.0564C1.23135 17.0564 0.000142396 15.8252 0.000125826 14.3064L1.66051e-10 2.75004C-1.65103e-05 1.23124 1.2312 5.30481e-06 2.75 4.70877e-06Z" fill-rule="EVENODD"></path>
 </g>
</svg>