<svg width="16" height="16" viewBox="0 0 16 16" fill="none" xmlns="http://www.w3.org/2000/svg">
<g clip-path="url(#clip0)">
<path fill-rule="evenodd" clip-rule="evenodd" d="M7.46784 1.8132L1.81102 7.47004C1.51812 7.76293 1.51812 8.23781 1.81102 8.5307L7.46785 14.1874C7.76075 14.4803 8.23562 14.4803 8.52851 14.1874L14.1852 8.5307C14.4781 8.23781 14.4781 7.76294 14.1852 7.47005L8.52851 1.81321C8.23562 1.52031 7.76074 1.52031 7.46784 1.8132ZM0.750355 6.40938L6.40718 0.752545C7.28587 -0.126142 8.7105 -0.126134 9.58918 0.752562L15.2459 6.4094C16.1246 7.28808 16.1246 8.71269 15.2459 9.59136L9.58917 15.2481C8.7105 16.1267 7.28589 16.1267 6.4072 15.2481L0.750373 9.59138C-0.128322 8.7127 -0.128331 7.28807 0.750355 6.40938Z" fill="black"/>
</g>
<defs>
<clipPath id="clip0">
<rect width="16" height="16" fill="white"/>
</clipPath>
</defs>
</svg>
