<svg viewbox="0 0 16 16" width="16" height="16" fill="black" xmlns="http://www.w3.org/2000/svg">
 <g transform="translate(0.25, 0.25)">
  <path d="M7.75 5.05005C6.25883 5.05005 5.05 6.25888 5.05 7.75005C5.05 9.24122 6.25883 10.45 7.75 10.45C9.24117 10.45 10.45 9.24122 10.45 7.75005C10.45 6.25888 9.24117 5.05005 7.75 5.05005ZM6.45 7.75005C6.45 7.03208 7.03203 6.45005 7.75 6.45005C8.46797 6.45005 9.05 7.03208 9.05 7.75005C9.05 8.46802 8.46797 9.05005 7.75 9.05005C7.03203 9.05005 6.45 8.46802 6.45 7.75005Z" fill-rule="EVENODD"></path>
  <path d="M7.75 0C3.46979 0 0 3.46979 0 7.75C0 12.0302 3.46979 15.5 7.75 15.5C12.0302 15.5 15.5 12.0302 15.5 7.75C15.5 3.46979 12.0302 0 7.75 0ZM1.5 7.75C1.5 4.29822 4.29822 1.5 7.75 1.5C11.2018 1.5 14 4.29822 14 7.75C14 11.2018 11.2018 14 7.75 14C4.29822 14 1.5 11.2018 1.5 7.75Z" fill-rule="EVENODD"></path>
 </g>
</svg>