<svg width="16" height="16" viewBox="0 0 16 16" fill="none" xmlns="http://www.w3.org/2000/svg">
<path fill-rule="evenodd" clip-rule="evenodd" d="M8.05241 3.03825C7.42258 2.51447 6.6144 2.20005 5.73094 2.20005C3.72431 2.20005 2.09761 3.82675 2.09761 5.83338C2.09761 6.4395 2.24548 7.00903 2.5065 7.50985C2.63022 7.74724 2.61775 7.99965 2.60786 8.11994C2.59522 8.27386 2.56231 8.43646 2.52426 8.58849C2.47258 8.79498 2.40137 9.02084 2.32406 9.24313C2.58354 9.15317 2.84477 9.07229 3.0735 9.01994C3.45036 8.9337 3.82577 9.1693 3.91201 9.54615C3.99825 9.92301 3.76266 10.2984 3.3858 10.3847C3.04558 10.4625 2.54863 10.6434 2.10815 10.8195C1.89417 10.9051 1.7039 10.9853 1.56718 11.0441C1.49892 11.0734 1.44428 11.0973 1.40701 11.1138L1.36467 11.1325L1.3542 11.1372L1.35179 11.1383C1.0862 11.2577 0.773911 11.2004 0.568382 10.9941C0.362856 10.7878 0.306513 10.4758 0.426889 10.2107L0.427338 10.2097L0.429204 10.2056L0.437069 10.1881L0.467865 10.1189C0.494551 10.0585 0.532711 9.97121 0.577973 9.86504C0.668816 9.65194 0.786787 9.36616 0.897675 9.07059C1.01005 8.77107 1.10846 8.47908 1.16615 8.24857C1.1884 8.15969 1.20146 8.09208 1.20812 8.04434C0.880993 7.37623 0.697611 6.6253 0.697611 5.83338C0.697611 3.05355 2.95111 0.800049 5.73094 0.800049C6.95337 0.800049 8.07565 1.23672 8.94758 1.96184C9.24483 2.20904 9.2854 2.65039 9.0382 2.94764C8.791 3.24488 8.34965 3.28545 8.05241 3.03825ZM1.21341 7.97585C1.21314 7.97613 1.2129 7.98124 1.21355 7.99034C1.21401 7.98012 1.21369 7.97557 1.21341 7.97585Z" fill="black"/>
<path fill-rule="evenodd" clip-rule="evenodd" d="M9.83333 4.25C7.02589 4.25 4.75 6.52589 4.75 9.33333C4.75 12.1408 7.02589 14.4167 9.83333 14.4167C10.6214 14.4167 11.3694 14.2368 12.0368 13.9154C12.062 13.9213 12.0935 13.9295 12.1318 13.9408C12.318 13.9956 12.5586 14.0901 12.8374 14.2059C12.9068 14.2348 12.9792 14.2652 13.0529 14.2961C13.2571 14.3819 13.471 14.4718 13.6594 14.5438C13.7902 14.5937 13.9253 14.6416 14.0529 14.6779C14.1683 14.7106 14.3313 14.75 14.5 14.75C14.7261 14.75 14.9401 14.648 15.0825 14.4724C15.2249 14.2969 15.2805 14.0664 15.2339 13.8452C15.2114 13.7385 15.1678 13.6205 15.137 13.5394C15.1004 13.4434 15.0545 13.3306 15.0062 13.2132L14.9456 13.0666C14.8617 12.8638 14.7705 12.6435 14.6843 12.4207C14.5757 12.1402 14.4864 11.8845 14.436 11.6866C14.4218 11.6308 14.4127 11.587 14.407 11.5541C14.7337 10.8824 14.9167 10.1283 14.9167 9.33333C14.9167 6.52589 12.6408 4.25 9.83333 4.25ZM6.25 9.33333C6.25 7.35431 7.85431 5.75 9.83333 5.75C11.8124 5.75 13.4167 7.35431 13.4167 9.33333C13.4167 9.93122 13.2708 10.4928 13.0134 10.9867C12.889 11.2255 12.8939 11.472 12.903 11.6015C12.9139 11.756 12.946 11.9139 12.9824 12.0566C13.0369 12.271 13.1153 12.5055 13.1989 12.733C12.9831 12.6462 12.7594 12.5619 12.5557 12.5019C12.4202 12.462 12.2663 12.4245 12.1131 12.4093C11.9831 12.3964 11.7326 12.3853 11.4867 12.5134C10.9928 12.7708 10.4312 12.9167 9.83333 12.9167C7.85431 12.9167 6.25 11.3124 6.25 9.33333ZM14.3993 11.4841C14.3992 11.4824 14.3991 11.4814 14.399 11.4813C14.3988 11.4811 14.3986 11.485 14.3992 11.4936C14.3993 11.4894 14.3994 11.4862 14.3993 11.4841Z" fill="black"/>
</svg>
