<svg width="24" height="24" viewBox="0 0 24 24" fill="none" xmlns="http://www.w3.org/2000/svg">
<path d="M2.98594 3.98594C3.13701 3.83487 3.34191 3.75 3.55556 3.75H14.4444C14.6581 3.75 14.863 3.83487 15.0141 3.98594C15.0949 4.0668 15.1568 4.16304 15.1969 4.26786C15.3448 4.65476 15.7784 4.84847 16.1653 4.70053C16.5522 4.5526 16.7459 4.11903 16.5979 3.73214C16.4833 3.43228 16.3061 3.1567 16.0747 2.92528C15.6423 2.49291 15.0559 2.25 14.4444 2.25H3.55556C2.94408 2.25 2.35766 2.49291 1.92528 2.92528C1.49291 3.35766 1.25 3.94408 1.25 4.55556V17C1.25 17.3033 1.43273 17.5768 1.71299 17.6929C1.99324 17.809 2.31583 17.7448 2.53033 17.5303L5.53033 14.5303C5.82322 14.2374 5.82322 13.7626 5.53033 13.4697C5.23744 13.1768 4.76256 13.1768 4.46967 13.4697L2.75 15.1893V4.55556C2.75 4.34191 2.83487 4.13701 2.98594 3.98594Z" fill="black"/>
<path fill-rule="evenodd" clip-rule="evenodd" d="M20.4444 6.25C21.0559 6.25 21.6423 6.49291 22.0747 6.92528C22.5071 7.35766 22.75 7.94408 22.75 8.55556V21C22.75 21.3033 22.5673 21.5768 22.287 21.6929C22.0068 21.809 21.6842 21.7448 21.4697 21.5303L18.5782 18.6389H9.55556C8.94408 18.6389 8.35766 18.396 7.92528 17.9636C7.49291 17.5312 7.25 16.9448 7.25 16.3333V8.55556C7.25 7.94408 7.49291 7.35766 7.92528 6.92528C8.35766 6.49291 8.94408 6.25 9.55556 6.25H20.4444ZM21.0141 7.98594C20.863 7.83487 20.6581 7.75 20.4444 7.75H9.55556C9.34191 7.75 9.13701 7.83487 8.98594 7.98594C8.83487 8.13701 8.75 8.34191 8.75 8.55556V16.3333C8.75 16.547 8.83487 16.7519 8.98594 16.9029C9.13701 17.054 9.34191 17.1389 9.55556 17.1389H18.8889C19.0878 17.1389 19.2786 17.2179 19.4192 17.3586L21.25 19.1893V8.55556C21.25 8.34191 21.1651 8.13701 21.0141 7.98594Z" fill="black"/>
</svg>
