<svg viewBox="0 0 24 24" width="24" height="24" fill="black" xmlns="http://www.w3.org/2000/svg">
 <g transform="translate(5.25, 0.25)">
  <path d="M7.5 0.75C7.5 0.335786 7.16421 0 6.75 0C6.33579 0 6 0.335786 6 0.75L6 4L4.25 4C3.12283 4 2.04183 4.44777 1.2448 5.2448C0.447767 6.04183 0 7.12283 0 8.25C0 9.37717 0.447767 10.4582 1.2448 11.2552C2.04183 12.0522 3.12283 12.5 4.25 12.5L6 12.5L6 18L0.75 18C0.335786 18 0 18.3358 0 18.75C0 19.1642 0.335786 19.5 0.75 19.5L6 19.5L6 22.75C6 23.1642 6.33579 23.5 6.75 23.5C7.16421 23.5 7.5 23.1642 7.5 22.75L7.5 19.5L9.25 19.5C10.3772 19.5 11.4582 19.0522 12.2552 18.2552C13.0522 17.4582 13.5 16.3772 13.5 15.25C13.5 14.1228 13.0522 13.0418 12.2552 12.2448C11.4582 11.4478 10.3772 11 9.25 11L7.5 11L7.5 5.5L11.75 5.5C12.1642 5.5 12.5 5.16421 12.5 4.75C12.5 4.33579 12.1642 4 11.75 4L7.5 4L7.5 0.75ZM6 5.5L4.25 5.5C3.52065 5.5 2.82118 5.78973 2.30546 6.30546C1.78973 6.82118 1.5 7.52065 1.5 8.25C1.5 8.97935 1.78973 9.67882 2.30546 10.1945C2.82118 10.7103 3.52065 11 4.25 11L6 11L6 5.5ZM7.5 12.5L7.5 18L9.25 18C9.97935 18 10.6788 17.7103 11.1945 17.1945C11.7103 16.6788 12 15.9793 12 15.25C12 14.5207 11.7103 13.8212 11.1945 13.3055C10.6788 12.7897 9.97935 12.5 9.25 12.5L7.5 12.5Z" fill-rule="EVENODD"></path>
 </g>
</svg>