<svg width="16" height="16" viewBox="0 0 16 16" fill="none" xmlns="http://www.w3.org/2000/svg">
<path fill-rule="evenodd" clip-rule="evenodd" d="M8.75 1C8.75 0.585786 8.41421 0.25 8 0.25C7.58579 0.25 7.25 0.585786 7.25 1V2.25H6.5C5.63805 2.25 4.8114 2.59241 4.2019 3.2019C3.59241 3.8114 3.25 4.63805 3.25 5.5C3.25 6.36195 3.59241 7.1886 4.2019 7.7981C4.8114 8.40759 5.63805 8.75 6.5 8.75H7.25V12.25H4C3.58579 12.25 3.25 12.5858 3.25 13C3.25 13.4142 3.58579 13.75 4 13.75H7.25V15C7.25 15.4142 7.58579 15.75 8 15.75C8.41421 15.75 8.75 15.4142 8.75 15V13.75H9.5C10.362 13.75 11.1886 13.4076 11.7981 12.7981C12.4076 12.1886 12.75 11.362 12.75 10.5C12.75 9.63805 12.4076 8.8114 11.7981 8.2019C11.1886 7.59241 10.362 7.25 9.5 7.25H8.75V3.75H12C12.4142 3.75 12.75 3.41421 12.75 3C12.75 2.58579 12.4142 2.25 12 2.25H8.75V1ZM7.25 3.75H6.5C6.03587 3.75 5.59075 3.93437 5.26256 4.26256C4.93437 4.59075 4.75 5.03587 4.75 5.5C4.75 5.96413 4.93437 6.40925 5.26256 6.73744C5.59075 7.06563 6.03587 7.25 6.5 7.25H7.25V3.75ZM8.75 8.75V12.25H9.5C9.96413 12.25 10.4092 12.0656 10.7374 11.7374C11.0656 11.4092 11.25 10.9641 11.25 10.5C11.25 10.0359 11.0656 9.59075 10.7374 9.26256C10.4092 8.93437 9.96413 8.75 9.5 8.75H8.75Z" fill="black"/>
</svg>
