<svg width="24" height="24" viewBox="0 0 24 24" fill="none" xmlns="http://www.w3.org/2000/svg">
<path d="M4 1.25C2.48122 1.25 1.25 2.48122 1.25 4V14C1.25 15.5188 2.48122 16.75 4 16.75H5C5.41421 16.75 5.75 16.4142 5.75 16C5.75 15.5858 5.41421 15.25 5 15.25H4C3.30964 15.25 2.75 14.6904 2.75 14V4C2.75 3.30964 3.30964 2.75 4 2.75H14C14.6904 2.75 15.25 3.30964 15.25 4V5C15.25 5.41421 15.5858 5.75 16 5.75C16.4142 5.75 16.75 5.41421 16.75 5V4C16.75 2.48122 15.5188 1.25 14 1.25H4Z" fill="black"/>
<path fill-rule="evenodd" clip-rule="evenodd" d="M10 7.25C8.48122 7.25 7.25 8.48122 7.25 10V20C7.25 21.5188 8.48122 22.75 10 22.75H20C21.5188 22.75 22.75 21.5188 22.75 20V10C22.75 8.48122 21.5188 7.25 20 7.25H10ZM8.75 10C8.75 9.30964 9.30964 8.75 10 8.75H20C20.6904 8.75 21.25 9.30964 21.25 10V20C21.25 20.6904 20.6904 21.25 20 21.25H10C9.30964 21.25 8.75 20.6904 8.75 20V10Z" fill="black"/>
</svg>
