<svg width="16" height="16" viewBox="0 0 16 16" fill="none" xmlns="http://www.w3.org/2000/svg">
<path d="M2.42857 0.25C1.22538 0.25 0.25 1.22538 0.25 2.42857V9.57143C0.25 10.7746 1.22538 11.75 2.42857 11.75H2.5C2.91421 11.75 3.25 11.4142 3.25 11C3.25 10.5858 2.91421 10.25 2.5 10.25H2.42857C2.05381 10.25 1.75 9.94619 1.75 9.57143V2.42857C1.75 2.05381 2.05381 1.75 2.42857 1.75H9.57143C9.94619 1.75 10.25 2.05381 10.25 2.42857V2.5C10.25 2.91421 10.5858 3.25 11 3.25C11.4142 3.25 11.75 2.91421 11.75 2.5V2.42857C11.75 1.22538 10.7746 0.25 9.57143 0.25H2.42857Z" fill="black"/>
<path fill-rule="evenodd" clip-rule="evenodd" d="M6.42857 4.25C5.22538 4.25 4.25 5.22538 4.25 6.42857V13.5714C4.25 14.7746 5.22538 15.75 6.42857 15.75H13.5714C14.7746 15.75 15.75 14.7746 15.75 13.5714V6.42857C15.75 5.22538 14.7746 4.25 13.5714 4.25H6.42857ZM5.75 6.42857C5.75 6.05381 6.05381 5.75 6.42857 5.75H13.5714C13.9462 5.75 14.25 6.05381 14.25 6.42857V13.5714C14.25 13.9462 13.9462 14.25 13.5714 14.25H6.42857C6.05381 14.25 5.75 13.9462 5.75 13.5714V6.42857Z" fill="black"/>
</svg>
