<svg width="24" height="24" viewBox="0 0 24 24" fill="none" xmlns="http://www.w3.org/2000/svg">
<path fill-rule="evenodd" clip-rule="evenodd" d="M18.9446 4.88382C17.8706 3.80988 16.1294 3.80988 15.0555 4.88383L6.05024 13.8891C5.59537 14.3439 5.23764 14.8864 4.99873 15.4837L3.73694 18.6382C3.32879 19.6586 4.34139 20.6712 5.36178 20.263L8.51625 19.0012C9.11351 18.7623 9.65603 18.4046 10.1109 17.9497L19.1161 8.94449C20.1901 7.87054 20.1901 6.12934 19.1161 5.0554L18.9446 4.88382ZM16.1161 5.94449C16.6043 5.45633 17.3957 5.45633 17.8839 5.94449L18.0555 6.11606C18.5436 6.60421 18.5436 7.39567 18.0555 7.88383L17.5 8.43932L15.5606 6.49998L16.1161 5.94449ZM14.5 7.56064L7.1109 14.9497C6.79967 15.2609 6.55491 15.6321 6.39144 16.0408L5.3463 18.6537L7.95916 17.6085C8.36782 17.445 8.73901 17.2003 9.05024 16.8891L16.4393 9.49998L14.5 7.56064Z" fill="black"/>
</svg>
