<svg width="16" height="16" viewBox="0 0 16 16" fill="none" xmlns="http://www.w3.org/2000/svg">
<path fill-rule="evenodd" clip-rule="evenodd" d="M11.389 0.868913C12.0111 0.132614 13.1124 0.0400977 13.8487 0.662269L14.7474 1.42166C15.4837 2.04383 15.5762 3.14509 14.954 3.88138L9.27296 10.6045C9.03339 10.8881 8.73872 11.12 8.40684 11.2862L5.69668 12.6435C4.91147 13.0368 4.03742 12.2982 4.29417 11.4584L5.18033 8.55978C5.28884 8.20481 5.46833 7.87559 5.7079 7.59207L11.389 0.868913ZM12.8806 1.808C12.777 1.72052 12.6222 1.73353 12.5347 1.83706L11.9577 2.51994L13.2313 3.59613L13.8083 2.91324C13.8958 2.80971 13.8828 2.65487 13.7792 2.56739L12.8806 1.808ZM12.2631 4.74186L10.9895 3.66567L6.85363 8.56021C6.74518 8.68857 6.66392 8.83761 6.61479 8.99831L6.0705 10.7787L7.73512 9.94499C7.88537 9.86974 8.01877 9.76475 8.12723 9.6364L12.2631 4.74186Z" fill="black"/>
<path d="M3.33333 3.41675C3.17862 3.41675 3.03025 3.47821 2.92085 3.5876C2.81146 3.697 2.75 3.84537 2.75 4.00008V13.3334C2.75 13.4881 2.81146 13.6365 2.92085 13.7459C3.03025 13.8553 3.17862 13.9167 3.33333 13.9167H12.6667C12.8214 13.9167 12.9697 13.8553 13.0791 13.7459C13.1885 13.6365 13.25 13.4881 13.25 13.3334V9.77341C13.25 9.3592 13.5858 9.02341 14 9.02341C14.4142 9.02341 14.75 9.3592 14.75 9.77341V13.3334C14.75 13.886 14.5305 14.4159 14.1398 14.8066C13.7491 15.1973 13.2192 15.4167 12.6667 15.4167H3.33333C2.7808 15.4167 2.25089 15.1973 1.86019 14.8066C1.46949 14.4159 1.25 13.8859 1.25 13.3334V4.00008C1.25 3.44755 1.46949 2.91764 1.86019 2.52694C2.2509 2.13624 2.7808 1.91675 3.33333 1.91675H6.89333C7.30755 1.91675 7.64333 2.25253 7.64333 2.66675C7.64333 3.08096 7.30755 3.41675 6.89333 3.41675H3.33333Z" fill="black"/>
</svg>
