<svg width="16" height="16" viewBox="0 0 16 16" fill="none" xmlns="http://www.w3.org/2000/svg">
<path fill-rule="evenodd" clip-rule="evenodd" d="M12.9874 2.17687C12.304 1.49345 11.196 1.49345 10.5126 2.17687L3.25995 9.42949C2.99661 9.69283 2.7895 10.0069 2.65118 10.3527L1.52029 13.1799C1.19377 13.9963 2.00385 14.8063 2.82016 14.4798L5.64739 13.3489C5.99318 13.2106 6.30727 13.0035 6.57061 12.7401L13.8232 5.48753C14.5066 4.80411 14.5066 3.69608 13.8232 3.01266L12.9874 2.17687ZM11.5732 3.23753C11.6709 3.1399 11.8291 3.1399 11.9268 3.23753L12.7626 4.07332C12.8602 4.17095 12.8602 4.32924 12.7626 4.42687L12.125 5.06439L10.9357 3.87505L11.5732 3.23753ZM9.87505 4.93571L4.32061 10.4901C4.20091 10.6098 4.10677 10.7526 4.0439 10.9098L3.3463 12.6538L5.09031 11.9562C5.24748 11.8933 5.39025 11.7992 5.50995 11.6795L11.0644 6.12505L9.87505 4.93571Z" fill="black"/>
</svg>
