<svg width="24" height="24" viewBox="0 0 24 24" fill="none" xmlns="http://www.w3.org/2000/svg">
<path fill-rule="evenodd" clip-rule="evenodd" d="M17.0555 2.88383C18.1294 1.80988 19.8706 1.80988 20.9446 2.88382L21.1161 3.0554C22.1901 4.12934 22.1901 5.87054 21.1161 6.94449L12.1109 15.9497C11.656 16.4046 11.1135 16.7623 10.5162 17.0012L7.36178 18.263C6.34139 18.6712 5.32879 17.6586 5.73694 16.6382L6.99873 13.4837C7.23764 12.8864 7.59537 12.3439 8.05024 11.8891L17.0555 2.88383ZM19.8839 3.94449C19.3957 3.45633 18.6043 3.45633 18.1161 3.94449L17.5606 4.50001L19.4999 6.43935L20.0555 5.88383C20.5436 5.39567 20.5436 4.60421 20.0555 4.11606L19.8839 3.94449ZM18.4393 7.50001L16.4999 5.56067L9.1109 12.9497C8.79967 13.2609 8.55491 13.6321 8.39145 14.0408L7.3463 16.6537L9.95916 15.6085C10.3678 15.445 10.739 15.2003 11.0502 14.8891L18.4393 7.50001Z" fill="black"/>
<path d="M4 4.75C3.66848 4.75 3.35054 4.8817 3.11612 5.11612C2.8817 5.35054 2.75 5.66848 2.75 6V20C2.75 20.3315 2.8817 20.6495 3.11612 20.8839C3.35054 21.1183 3.66848 21.25 4 21.25H18C18.3315 21.25 18.6495 21.1183 18.8839 20.8839C19.1183 20.6495 19.25 20.3315 19.25 20V12.66C19.25 12.2458 19.5858 11.91 20 11.91C20.4142 11.91 20.75 12.2458 20.75 12.66V20C20.75 20.7293 20.4603 21.4288 19.9445 21.9445C19.4288 22.4603 18.7293 22.75 18 22.75H4C3.27065 22.75 2.57118 22.4603 2.05546 21.9445C1.53973 21.4288 1.25 20.7293 1.25 20V6C1.25 5.27065 1.53973 4.57118 2.05546 4.05546C2.57118 3.53973 3.27065 3.25 4 3.25H11.34C11.7542 3.25 12.09 3.58579 12.09 4C12.09 4.41421 11.7542 4.75 11.34 4.75H4Z" fill="black"/>
</svg>
