<svg width="16" height="16" viewBox="0 0 16 16" fill="none" xmlns="http://www.w3.org/2000/svg">
<path fill-rule="evenodd" clip-rule="evenodd" d="M8.55778 5.71803C8.45143 5.50764 8.23574 5.375 8 5.375C7.76427 5.375 7.54858 5.50764 7.44223 5.71803L6.5077 7.56662L4.4117 7.86576C4.17453 7.89961 3.97758 8.06605 3.90466 8.29426C3.83174 8.52247 3.89569 8.77228 4.06929 8.93738L5.57645 10.3707L5.22143 12.3919C5.18038 12.6256 5.2752 12.8623 5.46619 13.0031C5.65719 13.1439 5.91143 13.1644 6.1225 13.056L8 12.0919L9.87751 13.056C10.0886 13.1644 10.3428 13.1439 10.5338 13.0031C10.7248 12.8623 10.8196 12.6256 10.7786 12.3919L10.4236 10.3707L11.9307 8.93738C12.1043 8.77228 12.1683 8.52247 12.0954 8.29426C12.0224 8.06605 11.8255 7.89961 11.5883 7.86576L9.49231 7.56662L8.55778 5.71803ZM7.47628 8.4213L8 7.38532L8.52373 8.4213C8.61583 8.60349 8.7911 8.72921 8.9932 8.75806L10.1342 8.9209L9.31929 9.6959C9.16761 9.84015 9.09822 10.0508 9.13443 10.2569L9.32988 11.3696L8.2855 10.8333C8.10629 10.7413 7.89372 10.7413 7.71451 10.8333L6.67013 11.3696L6.86558 10.2569C6.90179 10.0508 6.8324 9.84015 6.68072 9.6959L5.86581 8.9209L7.00681 8.75806C7.20891 8.72921 7.38418 8.60349 7.47628 8.4213Z" fill="black"/>
<path fill-rule="evenodd" clip-rule="evenodd" d="M11.4167 1.5C11.4167 1.08579 11.0809 0.75 10.6667 0.75C10.2525 0.75 9.91667 1.08579 9.91667 1.5V2.25H6.08333V1.5C6.08333 1.08579 5.74754 0.75 5.33333 0.75C4.91911 0.75 4.58333 1.08579 4.58333 1.5V2.25H3.33333C2.18274 2.25 1.25 3.18274 1.25 4.33333V13.6667C1.25 14.8173 2.18274 15.75 3.33333 15.75H12.6667C13.8173 15.75 14.75 14.8173 14.75 13.6667V4.33333C14.75 3.18274 13.8173 2.25 12.6667 2.25H11.4167V1.5ZM4.58333 4.5V3.75H3.33333C3.01117 3.75 2.75 4.01117 2.75 4.33333V13.6667C2.75 13.9888 3.01117 14.25 3.33333 14.25H12.6667C12.9888 14.25 13.25 13.9888 13.25 13.6667V4.33333C13.25 4.01117 12.9888 3.75 12.6667 3.75H11.4167V4.5C11.4167 4.91421 11.0809 5.25 10.6667 5.25C10.2525 5.25 9.91667 4.91421 9.91667 4.5V3.75H6.08333V4.5C6.08333 4.91421 5.74754 5.25 5.33333 5.25C4.91911 5.25 4.58333 4.91421 4.58333 4.5Z" fill="black"/>
</svg>
