<svg viewbox="0 0 24 24" width="24" height="24" fill="black" xmlns="http://www.w3.org/2000/svg">
 <g transform="translate(2.25, 1.25)">
  <path d="M10.4225 6.41803C10.2962 6.16205 10.0355 6 9.75001 6C9.46454 6 9.20383 6.16205 9.07748 6.41803L7.55231 9.50785L4.14154 10.0064C3.85912 10.0477 3.62461 10.2457 3.53657 10.5172C3.44854 10.7887 3.52224 11.0866 3.72671 11.2858L6.19412 13.689L5.6118 17.0842C5.56354 17.3656 5.67922 17.65 5.91021 17.8178C6.14119 17.9856 6.44741 18.0077 6.7001 17.8748L9.75001 16.2709L12.7999 17.8748C13.0526 18.0077 13.3588 17.9856 13.5898 17.8178C13.8208 17.65 13.9365 17.3656 13.8882 17.0842L13.3059 13.689L15.7733 11.2858C15.9778 11.0866 16.0515 10.7887 15.9634 10.5172C15.8754 10.2457 15.6409 10.0477 15.3585 10.0064L11.9477 9.50785L10.4225 6.41803ZM8.72304 10.525L9.75001 8.44444L10.777 10.525C10.8861 10.7461 11.097 10.8994 11.341 10.9351L13.6387 11.271L11.9767 12.8897C11.7998 13.062 11.7191 13.3104 11.7608 13.5538L12.1529 15.8398L10.0991 14.7597C9.88056 14.6448 9.61946 14.6448 9.40092 14.7597L7.34714 15.8398L7.73921 13.5538C7.78096 13.3104 7.70021 13.062 7.52331 12.8897L5.86132 11.271L8.15898 10.9351C8.40299 10.8994 8.61388 10.7461 8.72304 10.525Z" fill-rule="EVENODD"></path>
  <path d="M14.5 0.75C14.5 0.335786 14.1642 0 13.75 0C13.3358 0 13 0.335786 13 0.75L13 2L6.5 2L6.5 0.75C6.5 0.335786 6.16421 0 5.75 0C5.33579 0 5 0.335786 5 0.75L5 2L2.75 2C1.23122 2 0 3.23122 0 4.75L0 18.75C0 20.2688 1.23122 21.5 2.75 21.5L16.75 21.5C18.2688 21.5 19.5 20.2688 19.5 18.75L19.5 4.75C19.5 3.23122 18.2688 2 16.75 2L14.5 2L14.5 0.75ZM5 4.75L5 3.5L2.75 3.5C2.05964 3.5 1.5 4.05964 1.5 4.75L1.5 18.75C1.5 19.4404 2.05964 20 2.75 20L16.75 20C17.4404 20 18 19.4404 18 18.75L18 4.75C18 4.05964 17.4404 3.5 16.75 3.5L14.5 3.5L14.5 4.75C14.5 5.16421 14.1642 5.5 13.75 5.5C13.3358 5.5 13 5.16421 13 4.75L13 3.5L6.5 3.5L6.5 4.75C6.5 5.16421 6.16421 5.5 5.75 5.5C5.33579 5.5 5 5.16421 5 4.75Z" fill-rule="EVENODD"></path>
 </g>
</svg>