<svg width="24" height="24" viewBox="0 0 24 24" fill="none" xmlns="http://www.w3.org/2000/svg">
<path fill-rule="evenodd" clip-rule="evenodd" d="M12.6725 7.66803C12.5462 7.41205 12.2855 7.25 12 7.25C11.7145 7.25 11.4538 7.41205 11.3275 7.66803L9.80231 10.7578L6.39154 11.2564C6.10912 11.2977 5.87461 11.4957 5.78657 11.7672C5.69854 12.0387 5.77224 12.3366 5.97671 12.5358L8.44412 14.939L7.8618 18.3342C7.81354 18.6156 7.92922 18.9 8.16021 19.0678C8.39119 19.2356 8.69741 19.2577 8.9501 19.1248L12 17.5209L15.0499 19.1248C15.3026 19.2577 15.6088 19.2356 15.8398 19.0678C16.0708 18.9 16.1865 18.6156 16.1382 18.3342L15.5559 14.939L18.0233 12.5358C18.2278 12.3366 18.3015 12.0387 18.2134 11.7672C18.1254 11.4957 17.8909 11.2977 17.6085 11.2564L14.1977 10.7578L12.6725 7.66803ZM10.973 11.775L12 9.69444L13.027 11.775C13.1361 11.9961 13.347 12.1494 13.591 12.1851L15.8887 12.521L14.2267 14.1397C14.0498 14.312 13.9691 14.5604 14.0108 14.8038L14.4029 17.0898L12.3491 16.0097C12.1306 15.8948 11.8695 15.8948 11.6509 16.0097L9.59714 17.0898L9.98921 14.8038C10.031 14.5604 9.95021 14.312 9.77331 14.1397L8.11132 12.521L10.409 12.1851C10.653 12.1494 10.8639 11.9961 10.973 11.775Z" fill="black"/>
<path fill-rule="evenodd" clip-rule="evenodd" d="M16.75 2C16.75 1.58579 16.4142 1.25 16 1.25C15.5858 1.25 15.25 1.58579 15.25 2V3.25H8.75V2C8.75 1.58579 8.41421 1.25 8 1.25C7.58579 1.25 7.25 1.58579 7.25 2V3.25H5C3.48122 3.25 2.25 4.48122 2.25 6V20C2.25 21.5188 3.48122 22.75 5 22.75H19C20.5188 22.75 21.75 21.5188 21.75 20V6C21.75 4.48122 20.5188 3.25 19 3.25H16.75V2ZM7.25 6V4.75H5C4.30964 4.75 3.75 5.30964 3.75 6V20C3.75 20.6904 4.30964 21.25 5 21.25H19C19.6904 21.25 20.25 20.6904 20.25 20V6C20.25 5.30964 19.6904 4.75 19 4.75H16.75V6C16.75 6.41421 16.4142 6.75 16 6.75C15.5858 6.75 15.25 6.41421 15.25 6V4.75H8.75V6C8.75 6.41421 8.41421 6.75 8 6.75C7.58579 6.75 7.25 6.41421 7.25 6Z" fill="black"/>
</svg>
