<svg viewBox="0 0 16 16" width="16" height="16" fill="black" xmlns="http://www.w3.org/2000/svg">
 <g transform="translate(1.25, 1.25)">
  <path d="M8 0.75C8 0.335786 8.33579 0 8.75 0L12.75 0C12.9563 0 13.1431 0.083292 13.2787 0.218082L13.2803 0.21967L13.2819 0.221263C13.353 0.2928 13.4068 0.375106 13.4431 0.462912C13.4798 0.551342 13.5 0.648308 13.5 0.75L13.5 4.75C13.5 5.16421 13.1642 5.5 12.75 5.5C12.3358 5.5 12 5.16421 12 4.75L12 2.56066L6.28033 8.28033C5.98744 8.57322 5.51256 8.57322 5.21967 8.28033C4.92678 7.98744 4.92678 7.51256 5.21967 7.21967L10.9393 1.5L8.75 1.5C8.33579 1.5 8 1.16421 8 0.75Z" fill-rule="NONZERO"></path>
  <path d="M2.08333 3.5C1.92862 3.5 1.78025 3.56146 1.67085 3.67085C1.56146 3.78025 1.5 3.92862 1.5 4.08333L1.5 11.4167C1.5 11.5714 1.56146 11.7197 1.67085 11.8291C1.78025 11.9385 1.92862 12 2.08333 12L9.41667 12C9.57138 12 9.71975 11.9385 9.82915 11.8291C9.93854 11.7197 10 11.5714 10 11.4167L10 7.41667C10 7.00245 10.3358 6.66667 10.75 6.66667C11.1642 6.66667 11.5 7.00245 11.5 7.41667L11.5 11.4167C11.5 11.9692 11.2805 12.4991 10.8898 12.8898C10.4991 13.2805 9.9692 13.5 9.41667 13.5L2.08333 13.5C1.5308 13.5 1.00089 13.2805 0.610194 12.8898C0.219493 12.4991 0 11.9692 0 11.4167L0 4.08333C0 3.5308 0.219493 3.0009 0.610194 2.61019C1.0009 2.21949 1.5308 2 2.08333 2L6.08333 2C6.49755 2 6.83333 2.33579 6.83333 2.75C6.83333 3.16421 6.49755 3.5 6.08333 3.5L2.08333 3.5Z" fill-rule="NONZERO"></path>
 </g>
</svg>