<svg width="24" height="24" viewBox="0 0 24 24" fill="none" xmlns="http://www.w3.org/2000/svg">
<path fill-rule="evenodd" clip-rule="evenodd" d="M1.53033 0.46967C1.23744 0.176777 0.762563 0.176777 0.46967 0.46967C0.176777 0.762563 0.176777 1.23744 0.46967 1.53033L4.9478 6.00846C4.00024 6.84921 2.98702 7.96527 2.16617 8.96546C1.65445 9.58899 1.20382 10.1842 0.877184 10.6626C0.714831 10.9004 0.575446 11.1205 0.473503 11.3071C0.422911 11.3997 0.374549 11.4967 0.336879 11.5915C0.307549 11.6653 0.25 11.8198 0.25 12C0.25 12.1507 0.292065 12.2966 0.344685 12.4364C0.386464 12.5474 0.443274 12.676 0.511121 12.8154C0.647706 13.0962 0.844841 13.4536 1.09874 13.859C1.60665 14.67 2.35687 15.6973 3.33605 16.7091C5.28541 18.7234 8.21737 20.75 12 20.75L12.0123 20.7499C14.1014 20.7158 16.131 20.0777 17.859 18.9196L22.4697 23.5303C22.7626 23.8232 23.2374 23.8232 23.5303 23.5303C23.8232 23.2374 23.8232 22.7626 23.5303 22.4697L1.53033 0.46967ZM16.7744 17.8351L14.0819 15.1426C13.8843 15.2815 13.6732 15.4014 13.4514 15.5002C12.9914 15.7052 12.4948 15.8154 11.9913 15.8243C11.4878 15.8332 10.9877 15.7405 10.5207 15.5519C10.0538 15.3633 9.62961 15.0826 9.27352 14.7265C8.91742 14.3704 8.6367 13.9462 8.44809 13.4793C8.25949 13.0124 8.16687 12.5122 8.17575 12.0087C8.18463 11.5052 8.29484 11.0086 8.4998 10.5486C8.59862 10.3268 8.71849 10.1158 8.85744 9.91812L6.01046 7.07115C5.13983 7.83279 4.15325 8.90867 3.32568 9.91706C2.83376 10.5165 2.41143 11.0757 2.11601 11.5084C1.9705 11.7215 1.86307 11.8934 1.79425 12.0183C1.81211 12.0586 1.8339 12.1056 1.85997 12.1592C1.96948 12.3843 2.13953 12.6949 2.37001 13.0629C2.83085 13.7987 3.51813 14.7403 4.41395 15.6659C6.21345 17.5254 8.77937 19.2478 11.9939 19.25C13.6916 19.2211 15.3435 18.7292 16.7744 17.8351ZM9.94528 11.006C9.77518 11.321 9.68185 11.6761 9.67552 12.0352C9.67019 12.3373 9.72576 12.6374 9.83892 12.9175C9.95209 13.1977 10.1205 13.4522 10.3342 13.6658C10.5478 13.8795 10.8023 14.0479 11.0825 14.1611C11.3627 14.2743 11.6628 14.3298 11.9649 14.3245C12.324 14.3182 12.679 14.2248 12.9941 14.0547L9.94528 11.006Z" fill="black"/>
<path fill-rule="evenodd" clip-rule="evenodd" d="M10.0709 4.97029C10.7027 4.82242 11.3494 4.7485 11.9982 4.75002L12 4.75003C15.2174 4.75003 17.7854 6.47344 19.586 8.3341C20.4819 9.25979 21.1691 10.2013 21.63 10.9372C21.8605 11.3052 22.0305 11.6157 22.14 11.8408C22.1742 11.911 22.2009 11.9698 22.2212 12.0172C22.199 12.066 22.1675 12.1281 22.125 12.2039C22.0063 12.4155 21.8316 12.6813 21.6203 12.9776C21.1997 13.5672 20.6735 14.223 20.2661 14.7071C19.9994 15.0241 20.0402 15.4972 20.3571 15.7639C20.6741 16.0306 21.1472 15.9898 21.4139 15.6729C21.8356 15.1717 22.3893 14.4825 22.8415 13.8485C23.0666 13.5329 23.2764 13.2172 23.4332 12.9378C23.5114 12.7984 23.584 12.6547 23.6389 12.5154C23.688 12.3908 23.75 12.2045 23.75 12C23.75 11.8835 23.725 11.7842 23.7124 11.7378C23.664 11.5581 23.5904 11.3933 23.4889 11.1846C23.3523 10.9039 23.1552 10.5464 22.9013 10.141C22.3934 9.33 21.6431 8.30278 20.664 7.29097C18.7147 5.27678 15.7831 3.25034 12.0009 3.25003C11.2361 3.2483 10.4737 3.33546 9.72906 3.50976C9.32575 3.60417 9.07533 4.00765 9.16974 4.41096C9.26414 4.81427 9.66762 5.06469 10.0709 4.97029Z" fill="black"/>
</svg>
