<svg width="16" height="16" viewBox="0 0 16 16" fill="none" xmlns="http://www.w3.org/2000/svg">
<path fill-rule="evenodd" clip-rule="evenodd" d="M8 5.25C6.48122 5.25 5.25 6.48122 5.25 8C5.25 9.51878 6.48122 10.75 8 10.75C9.51878 10.75 10.75 9.51878 10.75 8C10.75 6.48122 9.51878 5.25 8 5.25ZM6.75 8C6.75 7.30964 7.30964 6.75 8 6.75C8.69036 6.75 9.25 7.30964 9.25 8C9.25 8.69036 8.69036 9.25 8 9.25C7.30964 9.25 6.75 8.69036 6.75 8Z" fill="black"/>
<path fill-rule="evenodd" clip-rule="evenodd" d="M8 2.25C5.50562 2.25 3.57647 3.511 2.30048 4.78091C1.65969 5.41865 1.16734 6.07378 0.831692 6.60974C0.58077 7.0104 0.410583 7.3412 0.316722 7.62864C0.291738 7.70516 0.25 7.84519 0.25 8C0.25 8.15481 0.291738 8.29484 0.316722 8.37136C0.410583 8.6588 0.58077 8.9896 0.831692 9.39026C1.16734 9.92622 1.65969 10.5813 2.30048 11.2191C3.57647 12.489 5.50562 13.75 8 13.75C10.4944 13.75 12.4235 12.489 13.6995 11.2191C14.3403 10.5813 14.8327 9.92622 15.1683 9.39026C15.4192 8.9896 15.5894 8.6588 15.6833 8.37136C15.7083 8.29484 15.75 8.15481 15.75 8C15.75 7.84519 15.7083 7.70516 15.6833 7.62864C15.5894 7.3412 15.4192 7.0104 15.1683 6.60974C14.8327 6.07378 14.3403 5.41865 13.6995 4.78091C12.4235 3.511 10.4944 2.25 8 2.25ZM1.77943 8C1.83493 8.12858 1.9451 8.34203 2.10297 8.59411C2.38379 9.04253 2.80622 9.60615 3.35861 10.1559C4.46899 11.261 6.03983 12.25 8 12.25C9.96017 12.25 11.531 11.261 12.6414 10.1559C13.1938 9.60615 13.6162 9.04253 13.897 8.59411C14.0549 8.34203 14.1651 8.12857 14.2206 8C14.1651 7.87142 14.0549 7.65797 13.897 7.40589C13.6162 6.95747 13.1938 6.39385 12.6414 5.84409C11.531 4.739 9.96017 3.75 8 3.75C6.03983 3.75 4.46899 4.739 3.35861 5.84409C2.80622 6.39385 2.38379 6.95747 2.10297 7.40589C1.9451 7.65797 1.83493 7.87142 1.77943 8Z" fill="black"/>
</svg>
