<svg width="16" height="16" viewBox="0 0 16 16" fill="none" xmlns="http://www.w3.org/2000/svg">
<path fill-rule="evenodd" clip-rule="evenodd" d="M1.53033 0.46967C1.23744 0.176777 0.762563 0.176777 0.46967 0.46967C0.176777 0.762563 0.176777 1.23744 0.46967 1.53033L3.16247 4.22313C2.59745 4.73974 2.01415 5.37293 1.53474 5.94856C1.20475 6.34478 0.910178 6.73026 0.693751 7.05193C0.548233 7.26821 0.40226 7.4944 0.314622 7.7417C0.289464 7.81269 0.25 7.93986 0.25 8.09092C0.25 8.25405 0.300189 8.40117 0.321254 8.46177C0.41426 8.72932 0.581004 9.05329 0.830156 9.45457C1.16352 9.99149 1.65376 10.6594 2.29301 11.3138C3.56383 12.6149 5.49508 13.9318 8 13.9318L8.01226 13.9317C9.3411 13.91 10.6336 13.5189 11.7472 12.8079L14.4697 15.5303C14.7626 15.8232 15.2374 15.8232 15.5303 15.5303C15.8232 15.2374 15.8232 14.7626 15.5303 14.4697L1.53033 0.46967ZM10.654 11.7146L9.34385 10.4045C9.24467 10.4654 9.14139 10.5199 9.03462 10.5674C8.70844 10.7128 8.35633 10.7909 7.99929 10.7972C7.64225 10.8035 7.2876 10.7378 6.9565 10.6041C6.6254 10.4704 6.32462 10.2713 6.07212 10.0188C5.81961 9.7663 5.62056 9.46553 5.48682 9.13443C5.35308 8.80332 5.2874 8.44867 5.2937 8.09164C5.3 7.7346 5.37815 7.38249 5.52348 7.05631C5.57106 6.94953 5.62552 6.84625 5.68642 6.74708L4.22428 5.28494C3.72028 5.73972 3.16321 6.33714 2.68735 6.9085C2.37866 7.27915 2.11771 7.6226 1.93828 7.88927C1.87951 7.97662 1.83306 8.05047 1.79795 8.11047C1.86157 8.2461 1.96332 8.43596 2.1045 8.66335C2.38761 9.11932 2.81215 9.69861 3.36608 10.2657C4.48046 11.4066 6.04708 12.4297 7.99387 12.4318C8.93018 12.4155 9.84346 12.1672 10.654 11.7146ZM6.82191 7.88257C6.80444 7.9597 6.79487 8.03862 6.79347 8.1181C6.79072 8.27373 6.81935 8.42832 6.87765 8.57265C6.93594 8.71697 7.02271 8.84808 7.13278 8.95815C7.24284 9.06821 7.37395 9.15498 7.51828 9.21328C7.6626 9.27157 7.81719 9.3002 7.97283 9.29746C8.0523 9.29605 8.13122 9.28648 8.20836 9.26902L6.82191 7.88257Z" fill="black"/>
<path fill-rule="evenodd" clip-rule="evenodd" d="M6.83457 3.883C7.21599 3.79372 7.60651 3.74909 7.99824 3.75001L8 3.75002C9.94963 3.75002 11.5184 4.77401 12.6339 5.91612C13.1878 6.48324 13.6124 7.06253 13.8955 7.51851C14.0129 7.70753 14.1237 7.90135 14.2169 8.10354C14.1298 8.27178 14.018 8.42785 13.9061 8.58017C13.6596 8.9157 13.354 9.27874 13.0936 9.58811L13.0516 9.63804C12.7849 9.95498 12.8256 10.4281 13.1426 10.6948C13.4595 10.9615 13.9326 10.9207 14.1993 10.6038L14.2485 10.5454C14.5023 10.2439 14.8378 9.84557 15.115 9.46824C15.2625 9.26747 15.407 9.05471 15.5177 8.85197C15.6106 8.68185 15.75 8.39779 15.75 8.09092C15.75 7.86167 15.6568 7.64081 15.5611 7.43659C15.4681 7.23798 15.3364 6.99551 15.1698 6.72728C14.8365 6.19036 14.3462 5.52249 13.707 4.86801C12.4363 3.56709 10.5054 2.25032 8.00088 2.25002C7.49317 2.24889 6.98705 2.30677 6.4927 2.42248C6.08939 2.51689 5.83897 2.92037 5.93337 3.32368C6.02778 3.72699 6.43126 3.97741 6.83457 3.883Z" fill="black"/>
</svg>
