<svg viewbox="0 0 24 24" width="24" height="24" fill="black" xmlns="http://www.w3.org/2000/svg">
 <g transform="translate(0.25, 3.25)">
  <path d="M11.75 5C9.67893 5 8 6.67893 8 8.75C8 10.8211 9.67893 12.5 11.75 12.5C13.8211 12.5 15.5 10.8211 15.5 8.75C15.5 6.67893 13.8211 5 11.75 5ZM9.5 8.75C9.5 7.50736 10.5074 6.5 11.75 6.5C12.9926 6.5 14 7.50736 14 8.75C14 9.99264 12.9926 11 11.75 11C10.5074 11 9.5 9.99264 9.5 8.75Z" fill-rule="EVENODD"></path>
  <path d="M11.75 0C7.96737 0 5.03541 2.02659 3.08605 4.04093C2.10687 5.05275 1.35665 6.07997 0.848737 6.89099C0.594841 7.2964 0.397706 7.65384 0.261121 7.9346C0.159585 8.14331 0.0860305 8.30805 0.0375615 8.48776C0.0250313 8.53422 0 8.63349 0 8.75C0 8.86651 0.0250313 8.96578 0.0375615 9.01224C0.0860305 9.19195 0.159585 9.35669 0.261121 9.5654C0.397706 9.84616 0.594841 10.2036 0.848737 10.609C1.35665 11.42 2.10687 12.4473 3.08605 13.4591C5.03541 15.4734 7.96737 17.5 11.75 17.5C15.5326 17.5 18.4646 15.4734 20.414 13.4591C21.3931 12.4473 22.1434 11.42 22.6513 10.609C22.9052 10.2036 23.1023 9.84616 23.2389 9.5654C23.3067 9.42594 23.3635 9.29741 23.4053 9.18638C23.4579 9.04655 23.5 8.90064 23.5 8.75C23.5 8.63349 23.475 8.53422 23.4624 8.48776C23.414 8.30805 23.3404 8.14331 23.2389 7.9346C23.1023 7.65384 22.9052 7.2964 22.6513 6.89099C22.1434 6.07997 21.3931 5.05275 20.414 4.04093C18.4646 2.02659 15.5326 0 11.75 0ZM1.53624 8.75C1.62541 8.54505 1.82615 8.15637 2.12001 7.68714C2.58085 6.95128 3.26813 6.00975 4.16395 5.08407C5.96459 3.22341 8.53263 1.5 11.75 1.5C14.9674 1.5 17.5354 3.22341 19.336 5.08407C20.2319 6.00975 20.9191 6.95128 21.38 7.68714C21.6738 8.15637 21.8746 8.54505 21.9638 8.75C21.8746 8.95494 21.6738 9.34363 21.38 9.81286C20.9191 10.5487 20.2319 11.4902 19.336 12.4159C17.5354 14.2766 14.9674 16 11.75 16C8.53263 16 5.96459 14.2766 4.16395 12.4159C3.26813 11.4902 2.58085 10.5487 2.12001 9.81286C1.82615 9.34363 1.62541 8.95494 1.53624 8.75Z" fill-rule="EVENODD"></path>
 </g>
</svg>