<svg width="24" height="24" viewBox="0 0 24 24" fill="none" xmlns="http://www.w3.org/2000/svg">
<path fill-rule="evenodd" clip-rule="evenodd" d="M12 8.25C9.92893 8.25 8.25 9.92893 8.25 12C8.25 14.0711 9.92893 15.75 12 15.75C14.0711 15.75 15.75 14.0711 15.75 12C15.75 9.92893 14.0711 8.25 12 8.25ZM9.75 12C9.75 10.7574 10.7574 9.75 12 9.75C13.2426 9.75 14.25 10.7574 14.25 12C14.25 13.2426 13.2426 14.25 12 14.25C10.7574 14.25 9.75 13.2426 9.75 12Z" fill="black"/>
<path fill-rule="evenodd" clip-rule="evenodd" d="M12 3.25C8.21737 3.25 5.28541 5.27659 3.33605 7.29093C2.35687 8.30275 1.60665 9.32997 1.09874 10.141C0.844841 10.5464 0.647706 10.9038 0.511121 11.1846C0.409585 11.3933 0.33603 11.558 0.287562 11.7378C0.275031 11.7842 0.25 11.8835 0.25 12C0.25 12.1165 0.275031 12.2158 0.287562 12.2622C0.33603 12.442 0.409585 12.6067 0.511121 12.8154C0.647706 13.0962 0.844841 13.4536 1.09874 13.859C1.60665 14.67 2.35687 15.6973 3.33605 16.7091C5.28541 18.7234 8.21737 20.75 12 20.75C15.7826 20.75 18.7146 18.7234 20.664 16.7091C21.6431 15.6973 22.3934 14.67 22.9013 13.859C23.1552 13.4536 23.3523 13.0962 23.4889 12.8154C23.5567 12.6759 23.6135 12.5474 23.6553 12.4364C23.7079 12.2965 23.75 12.1506 23.75 12C23.75 11.8835 23.725 11.7842 23.7124 11.7378C23.664 11.558 23.5904 11.3933 23.4889 11.1846C23.3523 10.9038 23.1552 10.5464 22.9013 10.141C22.3934 9.32997 21.6431 8.30275 20.664 7.29093C18.7146 5.27659 15.7826 3.25 12 3.25ZM1.78624 12C1.87541 11.7951 2.07615 11.4064 2.37001 10.9371C2.83085 10.2013 3.51813 9.25975 4.41395 8.33407C6.21459 6.47341 8.78263 4.75 12 4.75C15.2174 4.75 17.7854 6.47341 19.586 8.33407C20.4819 9.25975 21.1691 10.2013 21.63 10.9371C21.9238 11.4064 22.1246 11.7951 22.2138 12C22.1246 12.2049 21.9238 12.5936 21.63 13.0629C21.1691 13.7987 20.4819 14.7402 19.586 15.6659C17.7854 17.5266 15.2174 19.25 12 19.25C8.78263 19.25 6.21459 17.5266 4.41395 15.6659C3.51813 14.7402 2.83085 13.7987 2.37001 13.0629C2.07615 12.5936 1.87541 12.2049 1.78624 12Z" fill="black"/>
</svg>
