<svg width="24" height="24" viewBox="0 0 24 24" fill="none" xmlns="http://www.w3.org/2000/svg">
<path d="M13.9685 12.4144C13.6451 12.1556 13.1731 12.2081 12.9143 12.5315C12.6556 12.855 12.708 13.3269 13.0315 13.5857L14.7994 15L13.0315 16.4144C12.708 16.6731 12.6556 17.1451 12.9143 17.4685C13.1731 17.792 13.6451 17.8444 13.9685 17.5857L16.4685 15.5857C16.6464 15.4433 16.75 15.2279 16.75 15C16.75 14.7722 16.6464 14.5567 16.4685 14.4144L13.9685 12.4144Z" fill="black"/>
<path d="M11.0857 12.5315C11.3444 12.855 11.292 13.3269 10.9685 13.5857L9.20059 15L10.9685 16.4144C11.292 16.6731 11.3444 17.1451 11.0857 17.4685C10.8269 17.792 10.3549 17.8444 10.0315 17.5857L7.53148 15.5857C7.35357 15.4433 7.25 15.2279 7.25 15C7.25 14.7722 7.35357 14.5567 7.53148 14.4144L10.0315 12.4144C10.3549 12.1556 10.8269 12.2081 11.0857 12.5315Z" fill="black"/>
<path fill-rule="evenodd" clip-rule="evenodd" d="M6 1.25C5.27065 1.25 4.57118 1.53973 4.05546 2.05546C3.53973 2.57118 3.25 3.27065 3.25 4V20C3.25 20.7293 3.53973 21.4288 4.05546 21.9445C4.57118 22.4603 5.27065 22.75 6 22.75H18C18.7293 22.75 19.4288 22.4603 19.9445 21.9445C20.4603 21.4288 20.75 20.7293 20.75 20V9C20.75 8.797 20.6693 8.61283 20.5383 8.4778C20.5357 8.47507 20.533 8.47236 20.5303 8.46967L13.5307 1.47004C13.3901 1.32939 13.1989 1.25 13 1.25M12.25 2.75H6C5.66848 2.75 5.35054 2.8817 5.11612 3.11612C4.8817 3.35054 4.75 3.66848 4.75 4V20C4.75 20.3315 4.8817 20.6495 5.11612 20.8839C5.35054 21.1183 5.66848 21.25 6 21.25H18C18.3315 21.25 18.6495 21.1183 18.8839 20.8839C19.1183 20.6495 19.25 20.3315 19.25 20V9.75H13C12.5858 9.75 12.25 9.41421 12.25 9V2.75ZM18.1893 8.25L13.75 3.81066V8.25H18.1893Z" fill="black"/>
</svg>
