<svg viewbox="0 0 24 24" width="24" height="24" fill="black" xmlns="http://www.w3.org/2000/svg">
 <g transform="translate(3.25, 1.25)">
  <path d="M9.5 8.75C9.5 8.33579 9.16421 8 8.75 8C8.33579 8 8 8.33579 8 8.75L8 11L5.75 11C5.33579 11 5 11.3358 5 11.75C5 12.1642 5.33579 12.5 5.75 12.5L8 12.5L8 14.75C8 15.1642 8.33579 15.5 8.75 15.5C9.16421 15.5 9.5 15.1642 9.5 14.75L9.5 12.5L11.75 12.5C12.1642 12.5 12.5 12.1642 12.5 11.75C12.5 11.3358 12.1642 11 11.75 11L9.5 11L9.5 8.75Z" fill-rule="NONZERO"></path>
  <path d="M5.75 17C5.33579 17 5 17.3358 5 17.75C5 18.1642 5.33579 18.5 5.75 18.5L11.75 18.5C12.1642 18.5 12.5 18.1642 12.5 17.75C12.5 17.3358 12.1642 17 11.75 17L5.75 17Z" fill-rule="NONZERO"></path>
  <path d="M0.805456 0.805456C1.32118 0.289731 2.02065 0 2.75 0L10.75 0C10.9489 0 11.1397 0.0790176 11.2803 0.21967L17.2803 6.21967L17.2883 6.2278C17.4193 6.36283 17.5 6.547 17.5 6.75L17.5 18.75C17.5 19.4793 17.2103 20.1788 16.6945 20.6945C16.1788 21.2103 15.4793 21.5 14.75 21.5L2.75 21.5C2.02065 21.5 1.32118 21.2103 0.805456 20.6945C0.289731 20.1788 0 19.4793 0 18.75L0 2.75C0 2.02065 0.289731 1.32118 0.805456 0.805456ZM2.75 1.5L10 1.5L10 6.75C10 7.16421 10.3358 7.5 10.75 7.5L16 7.5L16 18.75C16 19.0815 15.8683 19.3995 15.6339 19.6339C15.3995 19.8683 15.0815 20 14.75 20L2.75 20C2.41848 20 2.10054 19.8683 1.86612 19.6339C1.6317 19.3995 1.5 19.0815 1.5 18.75L1.5 2.75C1.5 2.41848 1.6317 2.10054 1.86612 1.86612C2.10054 1.6317 2.41848 1.5 2.75 1.5ZM11.5 2.56066L14.9393 6L11.5 6L11.5 2.56066Z" fill-rule="EVENODD"></path>
 </g>
</svg>