<svg width="16" height="16" viewBox="0 0 16 16" fill="none" xmlns="http://www.w3.org/2000/svg">
<path fill-rule="evenodd" clip-rule="evenodd" d="M1.90901 0.90901C2.33097 0.487053 2.90326 0.25 3.5 0.25H9.5C9.69891 0.25 9.88968 0.329018 10.0303 0.46967L14.5303 4.96967C14.671 5.11032 14.75 5.30109 14.75 5.5V7.5C14.75 7.91421 14.4142 8.25 14 8.25C13.5858 8.25 13.25 7.91421 13.25 7.5V6.20005L9.49998 6.20003C9.11339 6.20003 8.79999 5.88663 8.79999 5.50003V1.75H3.5C3.30109 1.75 3.11032 1.82902 2.96967 1.96967C2.82902 2.11032 2.75 2.30109 2.75 2.5V13.5C2.75 13.6989 2.82902 13.8897 2.96967 14.0303C3.11032 14.171 3.30109 14.25 3.5 14.25H6.5C6.91421 14.25 7.25 14.5858 7.25 15C7.25 15.4142 6.91421 15.75 6.5 15.75H3.5C2.90326 15.75 2.33097 15.5129 1.90901 15.091C1.48705 14.669 1.25 14.0967 1.25 13.5V2.5C1.25 1.90326 1.48705 1.33097 1.90901 0.90901ZM10.2 2.76065L12.2394 4.80004L10.2 4.80003V2.76065Z" fill="black"/>
<path fill-rule="evenodd" clip-rule="evenodd" d="M10 9C8.89543 9 8 9.89543 8 11V14C8 15.1046 8.89543 16 10 16H13C14.1046 16 15 15.1046 15 14V11C15 9.89543 14.1046 9 13 9H10ZM10.3536 14.3536L11.5 13.2071L12.6464 14.3536C12.8417 14.5488 13.1583 14.5488 13.3536 14.3536C13.5488 14.1583 13.5488 13.8417 13.3536 13.6464L12.2071 12.5L13.3536 11.3536C13.5488 11.1583 13.5488 10.8417 13.3536 10.6464C13.1583 10.4512 12.8417 10.4512 12.6464 10.6464L11.5 11.7929L10.3536 10.6464C10.1583 10.4512 9.84171 10.4512 9.64645 10.6464C9.45118 10.8417 9.45118 11.1583 9.64645 11.3536L10.7929 12.5L9.64645 13.6464C9.45118 13.8417 9.45118 14.1583 9.64645 14.3536C9.84171 14.5488 10.1583 14.5488 10.3536 14.3536Z" fill="black"/>
</svg>
