<svg viewbox="0 0 24 24" width="24" height="24" fill="black" xmlns="http://www.w3.org/2000/svg">
 <g transform="translate(3.25, 1.25)">
  <path d="M2.75 0C2.02065 0 1.32118 0.289731 0.805456 0.805456C0.289731 1.32118 0 2.02065 0 2.75L0 18.75C0 19.4793 0.289731 20.1788 0.805456 20.6945C1.32118 21.2103 2.02065 21.5 2.75 21.5L14.75 21.5C15.4793 21.5 16.1788 21.2103 16.6945 20.6945C17.2103 20.1788 17.5 19.4793 17.5 18.75L17.5 7.75C17.5 7.547 17.4193 7.36283 17.2883 7.2278C17.2857 7.22507 17.283 7.22236 17.2803 7.21967L10.2807 0.220043C10.1401 0.0793906 9.94891 0 9.75 0M9 1.5L2.75 1.5C2.41848 1.5 2.10054 1.6317 1.86612 1.86612C1.6317 2.10054 1.5 2.41848 1.5 2.75L1.5 18.75C1.5 19.0815 1.6317 19.3995 1.86612 19.6339C2.10054 19.8683 2.41848 20 2.75 20L14.75 20C15.0815 20 15.3995 19.8683 15.6339 19.6339C15.8683 19.3995 16 19.0815 16 18.75L16 8.5L9.75 8.5C9.33579 8.5 9 8.16421 9 7.75L9 1.5ZM14.9393 7L10.5 2.56066L10.5 7L14.9393 7Z" fill-rule="EVENODD"></path>
 </g>
</svg>