<svg width="16" height="16" viewBox="0 0 16 16" fill="none" xmlns="http://www.w3.org/2000/svg">
<path d="M8 7.25C8.41421 7.25 8.75 7.58579 8.75 8V9.25H10C10.4142 9.25 10.75 9.58579 10.75 10C10.75 10.4142 10.4142 10.75 10 10.75H8.75V12C8.75 12.4142 8.41421 12.75 8 12.75C7.58579 12.75 7.25 12.4142 7.25 12V10.75H6C5.58579 10.75 5.25 10.4142 5.25 10C5.25 9.58579 5.58579 9.25 6 9.25H7.25V8C7.25 7.58579 7.58579 7.25 8 7.25Z" fill="black"/>
<path fill-rule="evenodd" clip-rule="evenodd" d="M3.5 0.25C2.90326 0.25 2.33097 0.487053 1.90901 0.90901C1.48705 1.33097 1.25 1.90326 1.25 2.5V13.5C1.25 14.0967 1.48705 14.669 1.90901 15.091C2.33097 15.5129 2.90326 15.75 3.5 15.75H12.5C13.0967 15.75 13.669 15.5129 14.091 15.091C14.5129 14.669 14.75 14.0967 14.75 13.5V5.5C14.75 5.30109 14.671 5.11032 14.5303 4.96967L10.0303 0.46967C9.88968 0.329018 9.69891 0.25 9.5 0.25H3.5ZM2.96967 1.96967C3.11032 1.82902 3.30109 1.75 3.5 1.75H8.8V5.50003C8.8 5.88663 9.1134 6.20003 9.5 6.20003L13.25 6.20005V13.5C13.25 13.6989 13.171 13.8897 13.0303 14.0303C12.8897 14.171 12.6989 14.25 12.5 14.25H3.5C3.30109 14.25 3.11032 14.171 2.96967 14.0303C2.82902 13.8897 2.75 13.6989 2.75 13.5V2.5C2.75 2.30109 2.82902 2.11032 2.96967 1.96967ZM12.2394 4.80004L10.2 2.76066V4.80003L12.2394 4.80004Z" fill="black"/>
</svg>
