<svg width="24" height="24" viewBox="0 0 24 24" fill="none" xmlns="http://www.w3.org/2000/svg">
<path d="M12 11.125C12.4832 11.125 12.875 11.5168 12.875 12V14.125H15C15.4832 14.125 15.875 14.5168 15.875 15C15.875 15.4832 15.4832 15.875 15 15.875H12.875V18C12.875 18.4832 12.4832 18.875 12 18.875C11.5168 18.875 11.125 18.4832 11.125 18V15.875H9C8.51675 15.875 8.125 15.4832 8.125 15C8.125 14.5168 8.51675 14.125 9 14.125H11.125V12C11.125 11.5168 11.5168 11.125 12 11.125Z" fill="black"/>
<path fill-rule="evenodd" clip-rule="evenodd" d="M6 1.25C5.27065 1.25 4.57118 1.53973 4.05546 2.05546C3.53973 2.57118 3.25 3.27065 3.25 4V20C3.25 20.7293 3.53973 21.4288 4.05546 21.9445C4.57118 22.4603 5.27065 22.75 6 22.75H18C18.7293 22.75 19.4288 22.4603 19.9445 21.9445C20.4603 21.4288 20.75 20.7293 20.75 20V8C20.75 7.797 20.6693 7.61283 20.5383 7.4778L20.5303 7.46967L14.5307 1.47004C14.3901 1.32939 14.1989 1.25 14 1.25H6ZM13.25 2.75H6C5.66848 2.75 5.35054 2.8817 5.11612 3.11612C4.8817 3.35054 4.75 3.66848 4.75 4V20C4.75 20.3315 4.8817 20.6495 5.11612 20.8839C5.35054 21.1183 5.66848 21.25 6 21.25H18C18.3315 21.25 18.6495 21.1183 18.8839 20.8839C19.1183 20.6495 19.25 20.3315 19.25 20V8.75H14C13.5858 8.75 13.25 8.41421 13.25 8V2.75ZM18.1893 7.25L14.75 3.81066V7.25H18.1893Z" fill="black"/>
</svg>
