<svg width="24" height="24" viewBox="0 0 24 24" fill="none" xmlns="http://www.w3.org/2000/svg">
<path fill-rule="evenodd" clip-rule="evenodd" d="M4.05546 2.05546C4.57118 1.53973 5.27065 1.25 6 1.25H13C13.2073 1.25 13.3949 1.3341 13.5307 1.47004L20.5303 8.46967L20.5415 8.48109C20.6706 8.61582 20.75 8.79864 20.75 9V12.5C20.75 12.9142 20.4142 13.25 20 13.25C19.5858 13.25 19.25 12.9142 19.25 12.5V9.75H13C12.5858 9.75 12.25 9.41421 12.25 9V2.75H6C5.66848 2.75 5.35054 2.8817 5.11612 3.11612C4.8817 3.35054 4.75 3.66848 4.75 4V20C4.75 20.3315 4.8817 20.6495 5.11612 20.8839C5.35054 21.1183 5.66848 21.25 6 21.25H10.5C10.9142 21.25 11.25 21.5858 11.25 22C11.25 22.4142 10.9142 22.75 10.5 22.75H6C5.27065 22.75 4.57118 22.4603 4.05546 21.9445C3.53973 21.4288 3.25 20.7293 3.25 20V4C3.25 3.27065 3.53973 2.57118 4.05546 2.05546ZM13.75 8.25V3.81066L18.1893 8.25H13.75Z" fill="black"/>
<path fill-rule="evenodd" clip-rule="evenodd" d="M22 19C22 21.7614 19.7614 24 17 24C14.2386 24 12 21.7614 12 19C12 16.2386 14.2386 14 17 14C19.7614 14 22 16.2386 22 19ZM20.0329 17.0581C20.2769 17.3021 20.2769 17.6979 20.0329 17.9419L16.5329 21.4419C16.2888 21.686 15.893 21.686 15.649 21.4419L14.0581 19.851C13.814 19.607 13.814 19.2112 14.0581 18.9671C14.3021 18.7231 14.6979 18.7231 14.9419 18.9671L16.0909 20.1161L19.149 17.0581C19.393 16.814 19.7888 16.814 20.0329 17.0581Z" fill="black"/>
</svg>
