<svg width="24" height="24" viewBox="0 0 24 24" fill="none" xmlns="http://www.w3.org/2000/svg">
<path d="M12.75 10C12.75 9.58579 12.4142 9.25 12 9.25C11.5858 9.25 11.25 9.58579 11.25 10V12.25H9C8.58579 12.25 8.25 12.5858 8.25 13C8.25 13.4142 8.58579 13.75 9 13.75H11.25V16C11.25 16.4142 11.5858 16.75 12 16.75C12.4142 16.75 12.75 16.4142 12.75 16V13.75H15C15.4142 13.75 15.75 13.4142 15.75 13C15.75 12.5858 15.4142 12.25 15 12.25H12.75V10Z" fill="black"/>
<path d="M9 18.25C8.58579 18.25 8.25 18.5858 8.25 19C8.25 19.4142 8.58579 19.75 9 19.75H15C15.4142 19.75 15.75 19.4142 15.75 19C15.75 18.5858 15.4142 18.25 15 18.25H9Z" fill="black"/>
<path fill-rule="evenodd" clip-rule="evenodd" d="M4.05546 2.05546C4.57118 1.53973 5.27065 1.25 6 1.25H14C14.1989 1.25 14.3897 1.32902 14.5303 1.46967L20.5303 7.46967L20.5383 7.4778C20.6693 7.61283 20.75 7.797 20.75 8V20C20.75 20.7293 20.4603 21.4288 19.9445 21.9445C19.4288 22.4603 18.7293 22.75 18 22.75H6C5.27065 22.75 4.57118 22.4603 4.05546 21.9445C3.53973 21.4288 3.25 20.7293 3.25 20V4C3.25 3.27065 3.53973 2.57118 4.05546 2.05546ZM6 2.75H13.25V8C13.25 8.41421 13.5858 8.75 14 8.75H19.25V20C19.25 20.3315 19.1183 20.6495 18.8839 20.8839C18.6495 21.1183 18.3315 21.25 18 21.25H6C5.66848 21.25 5.35054 21.1183 5.11612 20.8839C4.8817 20.6495 4.75 20.3315 4.75 20V4C4.75 3.66848 4.8817 3.35054 5.11612 3.11612C5.35054 2.8817 5.66848 2.75 6 2.75ZM14.75 3.81066L18.1893 7.25H14.75V3.81066Z" fill="black"/>
</svg>
