<svg viewbox="0 0 24 24" width="24" height="24" fill="black" xmlns="http://www.w3.org/2000/svg">
 <g transform="translate(3.25, 1.25)">
  <path d="M0.805456 0.805456C1.32118 0.289731 2.02065 0 2.75 0L9.75 0C9.9573 0 10.1449 0.0841004 10.2807 0.220043L17.2803 7.21967L17.2915 7.23109C17.4206 7.36582 17.5 7.54864 17.5 7.75L17.5 11.25C17.5 11.6642 17.1642 12 16.75 12C16.3358 12 16 11.6642 16 11.25L16 8.5L9.75 8.5C9.33579 8.5 9 8.16421 9 7.75L9 1.5L2.75 1.5C2.41848 1.5 2.10054 1.6317 1.86612 1.86612C1.6317 2.10054 1.5 2.41848 1.5 2.75L1.5 18.75C1.5 19.0815 1.6317 19.3995 1.86612 19.6339C2.10054 19.8683 2.41848 20 2.75 20L7.25 20C7.66421 20 8 20.3358 8 20.75C8 21.1642 7.66421 21.5 7.25 21.5L2.75 21.5C2.02065 21.5 1.32118 21.2103 0.805456 20.6945C0.289731 20.1788 0 19.4793 0 18.75L0 2.75C0 2.02065 0.289731 1.32118 0.805456 0.805456ZM10.5 7L10.5 2.56066L14.9393 7L10.5 7Z" fill-rule="EVENODD"></path>
  <path d="M18.75 17.75C18.75 20.5114 16.5114 22.75 13.75 22.75C10.9886 22.75 8.75 20.5114 8.75 17.75C8.75 14.9886 10.9886 12.75 13.75 12.75C16.5114 12.75 18.75 14.9886 18.75 17.75ZM16.7829 15.8081C17.0269 16.0521 17.0269 16.4479 16.7829 16.6919L13.2829 20.1919C13.0388 20.436 12.643 20.436 12.399 20.1919L10.8081 18.601C10.564 18.357 10.564 17.9612 10.8081 17.7171C11.0521 17.4731 11.4479 17.4731 11.6919 17.7171L12.8409 18.8661L15.899 15.8081C16.143 15.564 16.5388 15.564 16.7829 15.8081Z" fill-rule="EVENODD"></path>
 </g>
</svg>