<svg width="16" height="16" viewBox="0 0 16 16" fill="none" xmlns="http://www.w3.org/2000/svg">
<path d="M8.50001 8.12504C8.70711 7.84889 9.09886 7.79293 9.37501 8.00004L11.375 9.50004C11.5324 9.61807 11.625 9.80331 11.625 10C11.625 10.1968 11.5324 10.382 11.375 10.5L9.37501 12C9.09886 12.2071 8.70711 12.1512 8.50001 11.875C8.2929 11.5989 8.34886 11.2071 8.62501 11L9.95834 10L8.62501 9.00004C8.34886 8.79293 8.2929 8.40118 8.50001 8.12504Z" fill="black"/>
<path d="M7.375 9.00004C7.65114 8.79293 7.70711 8.40118 7.5 8.12504C7.29289 7.84889 6.90114 7.79293 6.625 8.00004L4.625 9.50004C4.46762 9.61807 4.375 9.80331 4.375 10C4.375 10.1968 4.46762 10.382 4.625 10.5L6.625 12C6.90114 12.2071 7.29289 12.1512 7.5 11.875C7.70711 11.5989 7.65114 11.2071 7.375 11L6.04167 10L7.375 9.00004Z" fill="black"/>
<path fill-rule="evenodd" clip-rule="evenodd" d="M3.5 0.25C2.90326 0.25 2.33097 0.487053 1.90901 0.90901C1.48705 1.33097 1.25 1.90326 1.25 2.5V13.5C1.25 14.0967 1.48705 14.669 1.90901 15.091C2.33097 15.5129 2.90326 15.75 3.5 15.75H12.5C13.0967 15.75 13.669 15.5129 14.091 15.091C14.5129 14.669 14.75 14.0967 14.75 13.5V5.5C14.75 5.30109 14.671 5.11032 14.5303 4.96967L10.0303 0.46967C9.88968 0.329018 9.69891 0.25 9.5 0.25H3.5ZM2.96967 1.96967C3.11032 1.82902 3.30109 1.75 3.5 1.75H8.79999V5.50003C8.79999 5.88663 9.11339 6.20003 9.49998 6.20003L13.25 6.20005V13.5C13.25 13.6989 13.171 13.8897 13.0303 14.0303C12.8897 14.171 12.6989 14.25 12.5 14.25H3.5C3.30109 14.25 3.11032 14.171 2.96967 14.0303C2.82902 13.8897 2.75 13.6989 2.75 13.5V2.5C2.75 2.30109 2.82902 2.11032 2.96967 1.96967ZM12.2394 4.80004L10.2 2.76065V4.80003L12.2394 4.80004Z" fill="black"/>
</svg>
