<svg viewbox="0 0 24 24" width="24" height="24" fill="black" xmlns="http://www.w3.org/2000/svg">
 <g transform="translate(3.25, 1.25)">
  <path d="M5.75 12.875C5.26675 12.875 4.875 13.2668 4.875 13.75C4.875 14.2332 5.26675 14.625 5.75 14.625L11.75 14.625C12.2332 14.625 12.625 14.2332 12.625 13.75C12.625 13.2668 12.2332 12.875 11.75 12.875L5.75 12.875Z" fill-rule="NONZERO"></path>
  <path d="M0.805456 0.805456C1.32118 0.289731 2.02065 0 2.75 0L10.75 0C10.9489 0 11.1397 0.0790176 11.2803 0.21967L17.2803 6.21967L17.2883 6.2278C17.4193 6.36283 17.5 6.547 17.5 6.75L17.5 18.75C17.5 19.4793 17.2103 20.1788 16.6945 20.6945C16.1788 21.2103 15.4793 21.5 14.75 21.5L2.75 21.5C2.02065 21.5 1.32118 21.2103 0.805456 20.6945C0.289731 20.1788 0 19.4793 0 18.75L0 2.75C0 2.02065 0.289731 1.32118 0.805456 0.805456ZM2.75 1.5L10 1.5L10 6.75C10 7.16421 10.3358 7.5 10.75 7.5L16 7.5L16 18.75C16 19.0815 15.8683 19.3995 15.6339 19.6339C15.3995 19.8683 15.0815 20 14.75 20L2.75 20C2.41848 20 2.10054 19.8683 1.86612 19.6339C1.6317 19.3995 1.5 19.0815 1.5 18.75L1.5 2.75C1.5 2.41848 1.6317 2.10054 1.86612 1.86612C2.10054 1.6317 2.41848 1.5 2.75 1.5ZM11.5 2.56066L14.9393 6L11.5 6L11.5 2.56066Z" fill-rule="EVENODD"></path>
 </g>
</svg>