<svg viewbox="0 0 16 16" width="16" height="16" fill="black" xmlns="http://www.w3.org/2000/svg">
 <g transform="translate(1.25, 0.25)">
  <path d="M6.75 7C7.16421 7 7.5 7.33579 7.5 7.75L7.5 9L8.75 9C9.16421 9 9.5 9.33579 9.5 9.75C9.5 10.1642 9.16421 10.5 8.75 10.5L7.5 10.5L7.5 11.75C7.5 12.1642 7.16421 12.5 6.75 12.5C6.33579 12.5 6 12.1642 6 11.75L6 10.5L4.75 10.5C4.33579 10.5 4 10.1642 4 9.75C4 9.33579 4.33579 9 4.75 9L6 9L6 7.75C6 7.33579 6.33579 7 6.75 7Z" fill-rule="NONZERO"></path>
  <path d="M2.25 0C1.65326 0 1.08097 0.237053 0.65901 0.65901C0.237053 1.08097 0 1.65326 0 2.25L0 13.25C0 13.8467 0.237053 14.419 0.65901 14.841C1.08097 15.2629 1.65326 15.5 2.25 15.5L11.25 15.5C11.8467 15.5 12.419 15.2629 12.841 14.841C13.2629 14.419 13.5 13.8467 13.5 13.25L13.5 5.25C13.5 5.05109 13.421 4.86032 13.2803 4.71967L8.78033 0.21967C8.63968 0.0790176 8.44891 0 8.25 0L2.25 0ZM1.71967 1.71967C1.86032 1.57902 2.05109 1.5 2.25 1.5L7.55 1.5L7.55 5.25003C7.55 5.63663 7.8634 5.95003 8.25 5.95003L12 5.95005L12 13.25C12 13.4489 11.921 13.6397 11.7803 13.7803C11.6397 13.921 11.4489 14 11.25 14L2.25 14C2.05109 14 1.86032 13.921 1.71967 13.7803C1.57902 13.6397 1.5 13.4489 1.5 13.25L1.5 2.25C1.5 2.05109 1.57902 1.86032 1.71967 1.71967ZM10.9894 4.55004L8.95 2.51066L8.95 4.55003L10.9894 4.55004Z" fill-rule="EVENODD"></path>
 </g>
</svg>