<svg viewBox="0 0 16 16" width="16" height="16" fill="black" xmlns="http://www.w3.org/2000/svg">
 <g transform="translate(1.25, 0.25)">
  <path d="M7.5 6.25C7.5 5.83579 7.16421 5.5 6.75 5.5C6.33579 5.5 6 5.83579 6 6.25L6 7.5L4.75 7.5C4.33579 7.5 4 7.83579 4 8.25C4 8.66421 4.33579 9 4.75 9L6 9L6 10.25C6 10.6642 6.33579 11 6.75 11C7.16421 11 7.5 10.6642 7.5 10.25L7.5 9L8.75 9C9.16421 9 9.5 8.66421 9.5 8.25C9.5 7.83579 9.16421 7.5 8.75 7.5L7.5 7.5L7.5 6.25Z" fill-rule="NONZERO"></path>
  <path d="M4.75 11.5C4.33579 11.5 4 11.8358 4 12.25C4 12.6642 4.33579 13 4.75 13L8.75 13C9.16421 13 9.5 12.6642 9.5 12.25C9.5 11.8358 9.16421 11.5 8.75 11.5L4.75 11.5Z" fill-rule="NONZERO"></path>
  <path d="M0.65901 0.65901C1.08097 0.237053 1.65326 0 2.25 0L8.25 0C8.44891 0 8.63968 0.0790176 8.78033 0.21967L13.2803 4.71967C13.421 4.86032 13.5 5.05109 13.5 5.25L13.5 13.25C13.5 13.8467 13.2629 14.419 12.841 14.841C12.419 15.2629 11.8467 15.5 11.25 15.5L2.25 15.5C1.65326 15.5 1.08097 15.2629 0.65901 14.841C0.237053 14.419 0 13.8467 0 13.25L0 2.25C0 1.65326 0.237053 1.08097 0.65901 0.65901ZM2.25 1.5C2.05109 1.5 1.86032 1.57902 1.71967 1.71967C1.57902 1.86032 1.5 2.05109 1.5 2.25L1.5 13.25C1.5 13.4489 1.57902 13.6397 1.71967 13.7803C1.86032 13.921 2.05109 14 2.25 14L11.25 14C11.4489 14 11.6397 13.921 11.7803 13.7803C11.921 13.6397 12 13.4489 12 13.25L12 5.95005L8.25005 5.95003C7.86345 5.95003 7.55005 5.63663 7.55005 5.25003L7.55005 1.5L2.25 1.5ZM8.95005 2.51071L10.9894 4.55004L8.95005 4.55003L8.95005 2.51071Z" fill-rule="EVENODD"></path>
 </g>
</svg>