<svg width="24" height="24" viewBox="0 0 24 24" fill="none" xmlns="http://www.w3.org/2000/svg">
<path fill-rule="evenodd" clip-rule="evenodd" d="M4.05546 2.05546C4.57118 1.53973 5.27065 1.25 6 1.25H13C13.1989 1.25 13.3897 1.32902 13.5303 1.46967L20.5303 8.46967C20.671 8.61032 20.75 8.80109 20.75 9V12C20.75 12.4142 20.4142 12.75 20 12.75C19.5858 12.75 19.25 12.4142 19.25 12V9.75H13C12.5858 9.75 12.25 9.41421 12.25 9V2.75H6C5.66848 2.75 5.35054 2.8817 5.11612 3.11612C4.8817 3.35054 4.75 3.66848 4.75 4V20C4.75 20.3315 4.8817 20.6495 5.11612 20.8839C5.35054 21.1183 5.66848 21.25 6 21.25H10C10.4142 21.25 10.75 21.5858 10.75 22C10.75 22.4142 10.4142 22.75 10 22.75H6C5.27065 22.75 4.57118 22.4603 4.05546 21.9445C3.53973 21.4288 3.25 20.7293 3.25 20V4C3.25 3.27065 3.53973 2.57118 4.05546 2.05546ZM13.75 3.81066V8.25H18.1893L13.75 3.81066Z" fill="black"/>
<path fill-rule="evenodd" clip-rule="evenodd" d="M12 16C12 14.8954 12.8954 14 14 14H20C21.1046 14 22 14.8954 22 16V22C22 23.1046 21.1046 24 20 24H14C12.8954 24 12 23.1046 12 22V16ZM19.4419 16.5581C19.686 16.8021 19.686 17.1979 19.4419 17.4419L17.8839 19L19.4419 20.5581C19.686 20.8021 19.686 21.1979 19.4419 21.4419C19.1979 21.686 18.8021 21.686 18.5581 21.4419L17 19.8839L15.4419 21.4419C15.1979 21.686 14.8021 21.686 14.5581 21.4419C14.314 21.1979 14.314 20.8021 14.5581 20.5581L16.1161 19L14.5581 17.4419C14.314 17.1979 14.314 16.8021 14.5581 16.5581C14.8021 16.314 15.1979 16.314 15.4419 16.5581L17 18.1161L18.5581 16.5581C18.8021 16.314 19.1979 16.314 19.4419 16.5581Z" fill="black"/>
</svg>
