<svg width="16" height="16" viewBox="0 0 16 16" fill="none" xmlns="http://www.w3.org/2000/svg">
<path fill-rule="evenodd" clip-rule="evenodd" d="M1.90901 0.90901C2.33097 0.487053 2.90326 0.25 3.5 0.25H9.5C9.69891 0.25 9.88968 0.329018 10.0303 0.46967L14.5303 4.96967C14.671 5.11032 14.75 5.30109 14.75 5.5V8C14.75 8.41421 14.4142 8.75 14 8.75C13.5858 8.75 13.25 8.41421 13.25 8V6.20005L9.49998 6.20003C9.11339 6.20003 8.79999 5.88663 8.79999 5.50003V1.75H3.5C3.30109 1.75 3.11032 1.82902 2.96967 1.96967C2.82902 2.11032 2.75 2.30109 2.75 2.5V13.5C2.75 13.6989 2.82902 13.8897 2.96967 14.0303C3.11032 14.171 3.30109 14.25 3.5 14.25H7C7.41421 14.25 7.75 14.5858 7.75 15C7.75 15.4142 7.41421 15.75 7 15.75H3.5C2.90326 15.75 2.33097 15.5129 1.90901 15.091C1.48705 14.669 1.25 14.0967 1.25 13.5V2.5C1.25 1.90326 1.48705 1.33097 1.90901 0.90901ZM10.2 2.76065L12.2394 4.80004L10.2 4.80003V2.76065Z" fill="black"/>
<path fill-rule="evenodd" clip-rule="evenodd" d="M15 12.5C15 14.433 13.433 16 11.5 16C9.567 16 8 14.433 8 12.5C8 10.567 9.567 9 11.5 9C13.433 9 15 10.567 15 12.5ZM13.6089 10.9853C13.8012 11.1835 13.7963 11.5 13.5981 11.6923L11.1918 14.0256C10.9979 14.2137 10.6896 14.2137 10.4957 14.0256L9.40193 12.965C9.20368 12.7728 9.19881 12.4562 9.39105 12.258C9.58329 12.0597 9.89983 12.0549 10.0981 12.2471L10.8438 12.9702L12.9019 10.9744C13.1002 10.7821 13.4167 10.787 13.6089 10.9853Z" fill="black"/>
</svg>
