<svg width="16" height="16" viewBox="0 0 16 16" fill="none" xmlns="http://www.w3.org/2000/svg">
<path fill-rule="evenodd" clip-rule="evenodd" d="M2.526 0.25C1.269 0.25 0.25 1.269 0.25 2.526V13.474C0.25 14.731 1.269 15.75 2.526 15.75H13.474C14.731 15.75 15.75 14.731 15.75 13.474V2.526C15.75 1.269 14.731 0.25 13.474 0.25H2.526ZM1.75 2.526C1.75 2.09743 2.09743 1.75 2.526 1.75H3.29999V3.80005H1.75V2.526ZM1.75 5.20005H3.29999V7.30005H1.75V5.20005ZM1.75 12.2V13.474C1.75 13.9026 2.09743 14.25 2.526 14.25H3.29999V12.2H1.75ZM1.75 10.8H3.29999V8.70005H1.75V10.8ZM4.69999 14.25H11.3V8.70005H4.69999V14.25ZM12.7 14.25V12.2H14.25V13.474C14.25 13.9026 13.9026 14.25 13.474 14.25H12.7ZM12.7 10.8H14.25V8.70005H12.7V10.8ZM14.25 7.30005H12.7V5.20005H14.25V7.30005ZM14.25 3.80005H12.7V1.75H13.474C13.9026 1.75 14.25 2.09743 14.25 2.526V3.80005ZM11.3 1.75H4.69999V7.30005H11.3V1.75Z" fill="black"/>
</svg>
