<svg width="24" height="24" viewBox="0 0 24 24" fill="none" xmlns="http://www.w3.org/2000/svg">
<path fill-rule="evenodd" clip-rule="evenodd" d="M1.25 4.18V19.82C1.25 21.4382 2.56181 22.75 4.18 22.75H19.82C21.4382 22.75 22.75 21.4382 22.75 19.82V4.18C22.75 2.56181 21.4382 1.25 19.82 1.25H4.18C2.56181 1.25 1.25 2.56181 1.25 4.18ZM2.75 4.18C2.75 3.39023 3.39023 2.75 4.18 2.75H6.25V6.25H2.75V4.18ZM2.75 7.75H6.25V11.25H2.75V7.75ZM21.25 6.25V4.18C21.25 3.39023 20.6098 2.75 19.82 2.75H17.75V6.25H21.25ZM17.75 7.75H21.25V11.25H17.75V7.75ZM16.25 2.75H7.75V11.25H16.25V2.75ZM21.25 12.75V16.25H17.75V12.75H21.25ZM21.25 17.75H17.75V21.25H19.82C20.6098 21.25 21.25 20.6098 21.25 19.82V17.75ZM16.25 12.75V21.25H7.75V12.75H16.25ZM2.75 17.75V19.82C2.75 20.6098 3.39023 21.25 4.18 21.25H6.25V17.75H2.75ZM6.25 16.25H2.75V12.75H6.25V16.25Z" fill="black"/>
</svg>
