<svg width="16" height="16" viewBox="0 0 16 16" fill="none" xmlns="http://www.w3.org/2000/svg">
<path fill-rule="evenodd" clip-rule="evenodd" d="M1.33567 1.65192C1.46513 1.40482 1.72104 1.25 2 1.25H14C14.2841 1.25 14.5438 1.4105 14.6708 1.66459C14.7979 1.91868 14.7704 2.22274 14.6 2.45L10.25 8.25V14C10.25 14.2599 10.1154 14.5013 9.8943 14.638C9.67319 14.7746 9.39708 14.7871 9.16459 14.6708L6.16459 13.1708C5.9105 13.0438 5.75 12.7841 5.75 12.5V8.73428L1.38336 2.42691C1.22457 2.19755 1.2062 1.89902 1.33567 1.65192ZM3.43143 2.75L7.11665 8.07309C7.20348 8.19852 7.25 8.34745 7.25 8.5V12.0365L8.75 12.7865V8C8.75 7.83772 8.80264 7.67982 8.9 7.55L12.5 2.75H3.43143Z" fill="black"/>
</svg>
