<svg width="24" height="24" viewBox="0 0 24 24" fill="none" xmlns="http://www.w3.org/2000/svg">
<path fill-rule="evenodd" clip-rule="evenodd" d="M1.31967 2.68434C1.44257 2.41947 1.70802 2.25 2.00001 2.25H22C22.292 2.25 22.5575 2.41947 22.6803 2.68434C22.8032 2.94922 22.7612 3.26134 22.5727 3.48429L14.75 12.7346V21C14.75 21.2599 14.6154 21.5013 14.3943 21.638C14.1732 21.7746 13.8971 21.7871 13.6646 21.6708L9.6646 19.6708C9.41051 19.5438 9.25001 19.2841 9.25001 19V12.7346L1.42733 3.48429C1.23878 3.26134 1.19678 2.94922 1.31967 2.68434ZM3.61649 3.75L10.5727 11.9757C10.6872 12.1111 10.75 12.2827 10.75 12.46V18.5365L13.25 19.7865V12.46C13.25 12.2827 13.3128 12.1111 13.4273 11.9757L20.3835 3.75H3.61649Z" fill="black"/>
</svg>
