<svg viewbox="0 0 16 16" width="16" height="16" fill="black" xmlns="http://www.w3.org/2000/svg">
 <g transform="translate(2.25, 1.25)">
  <path d="M3.25 0C2.22536 0 1.50211 0.175994 1.01151 0.377838C0.76698 0.478446 0.583789 0.584047 0.452807 0.673864C0.387456 0.718676 0.335516 0.759274 0.295759 0.79295C0.275893 0.809778 0.259103 0.824849 0.245231 0.83782C0.238297 0.844304 0.232094 0.850261 0.226604 0.855648L0.218901 0.863293L0.215446 0.866784L0.213817 0.868445L0.213027 0.869254C0.212639 0.869652 0.212254 0.870048 0.75 1.39286L0.212254 0.870048C0.0761459 1.01004 0 1.1976 0 1.39286L0 12.75C0 13.1642 0.335786 13.5 0.75 13.5C1.16421 13.5 1.5 13.1642 1.5 12.75L1.5 9.51517C1.52516 9.50353 1.55255 9.49152 1.58224 9.47931C1.87289 9.35972 2.39964 9.21429 3.25 9.21429C4.01849 9.21429 4.66897 9.47337 5.46464 9.80073L5.50622 9.81785C6.26439 10.1299 7.16343 10.5 8.25 10.5C9.27464 10.5 9.99789 10.324 10.4885 10.1222C10.733 10.0216 10.9162 9.91595 11.0472 9.82614C11.1125 9.78132 11.1645 9.74073 11.2042 9.70705C11.2241 9.69022 11.2409 9.67515 11.2548 9.66218C11.2617 9.6557 11.2679 9.64974 11.2734 9.64435L11.2811 9.63671L11.2846 9.63322L11.2862 9.63156L11.287 9.63075C11.2874 9.63035 11.2877 9.62995 10.75 9.10714L11.2877 9.62995C11.4239 9.48995 11.5 9.3024 11.5 9.10714L11.5 1.39286C11.5 1.08759 11.315 0.812777 11.0321 0.697944C10.758 0.586645 10.445 0.647154 10.2322 0.850266C10.2275 0.854097 10.2166 0.862633 10.1989 0.874757C10.1541 0.905476 10.0639 0.960588 9.91776 1.0207C9.62711 1.14028 9.10036 1.28571 8.25 1.28571C7.48151 1.28571 6.83103 1.02663 6.03536 0.699266L5.99378 0.682154C5.23561 0.370069 4.33658 0 3.25 0ZM1.5 7.92635L1.5 1.80088C1.52516 1.78924 1.55255 1.77723 1.58224 1.76502C1.87289 1.64543 2.39964 1.5 3.25 1.5C4.01849 1.5 4.66897 1.75909 5.46464 2.08645L5.50622 2.10356C6.26439 2.41565 7.16342 2.78571 8.25 2.78571C8.97679 2.78571 9.55195 2.69717 10 2.57365L10 8.69912C9.97484 8.71076 9.94745 8.72276 9.91776 8.73498C9.62711 8.85456 9.10036 9 8.25 9C7.48151 9 6.83103 8.74091 6.03536 8.41355L5.99379 8.39644C5.23562 8.08436 4.33657 7.71429 3.25 7.71429C2.52321 7.71429 1.94805 7.80283 1.5 7.92635Z" fill-rule="EVENODD"></path>
 </g>
</svg>