<svg width="16" height="16" viewBox="0 0 16 16" fill="none" xmlns="http://www.w3.org/2000/svg">
<path fill-rule="evenodd" clip-rule="evenodd" d="M5.5 1.25C4.47536 1.25 3.75211 1.42599 3.26151 1.62784C3.01698 1.72845 2.83379 1.83405 2.70281 1.92386C2.63746 1.96868 2.58552 2.00927 2.54576 2.04295C2.52589 2.05978 2.5091 2.07485 2.49523 2.08782C2.4883 2.0943 2.48209 2.10026 2.4766 2.10565L2.4689 2.11329L2.46545 2.11678L2.46382 2.11844L2.46303 2.11925C2.46264 2.11965 2.46225 2.12005 3 2.64286L2.46225 2.12005C2.32615 2.26004 2.25 2.4476 2.25 2.64286V14C2.25 14.4142 2.58579 14.75 3 14.75C3.41421 14.75 3.75 14.4142 3.75 14V10.7652C3.77516 10.7535 3.80255 10.7415 3.83224 10.7293C4.12289 10.6097 4.64964 10.4643 5.5 10.4643C6.26849 10.4643 6.91897 10.7234 7.71464 11.0507L7.75622 11.0678C8.51439 11.3799 9.41343 11.75 10.5 11.75C11.5246 11.75 12.2479 11.574 12.7385 11.3722C12.983 11.2716 13.1662 11.166 13.2972 11.0761C13.3625 11.0313 13.4145 10.9907 13.4542 10.957C13.4741 10.9402 13.4909 10.9252 13.5048 10.9122C13.5117 10.9057 13.5179 10.8997 13.5234 10.8944L13.5311 10.8867L13.5346 10.8832L13.5362 10.8816L13.537 10.8807C13.5374 10.8803 13.5377 10.88 13 10.3571L13.5377 10.88C13.6739 10.74 13.75 10.5524 13.75 10.3571V2.64286C13.75 2.33759 13.565 2.06278 13.2821 1.94794C13.008 1.83665 12.695 1.89715 12.4822 2.10027C12.4775 2.1041 12.4666 2.11263 12.4489 2.12476C12.4041 2.15548 12.3139 2.21059 12.1678 2.2707C11.8771 2.39028 11.3504 2.53571 10.5 2.53571C9.73151 2.53571 9.08103 2.27663 8.28536 1.94927L8.24378 1.93215C7.48561 1.62007 6.58658 1.25 5.5 1.25ZM3.75 9.17635V3.05088C3.77516 3.03924 3.80255 3.02723 3.83224 3.01502C4.12289 2.89543 4.64964 2.75 5.5 2.75C6.26849 2.75 6.91897 3.00909 7.71464 3.33645L7.75622 3.35356C8.51439 3.66565 9.41342 4.03571 10.5 4.03571C11.2268 4.03571 11.802 3.94717 12.25 3.82365V9.94912C12.2248 9.96076 12.1975 9.97276 12.1678 9.98498C11.8771 10.1046 11.3504 10.25 10.5 10.25C9.73151 10.25 9.08103 9.99091 8.28536 9.66355L8.24379 9.64644C7.48562 9.33436 6.58657 8.96429 5.5 8.96429C4.77321 8.96429 4.19805 9.05283 3.75 9.17635Z" fill="black"/>
</svg>
