<svg viewBox="0 0 24 24" width="24" height="24" fill="black" xmlns="http://www.w3.org/2000/svg">
 <g transform="translate(1.25, 2.25)">
  <path d="M10.75 8C11.1642 8 11.5 8.33579 11.5 8.75L11.5 11L13.75 11C14.1642 11 14.5 11.3358 14.5 11.75C14.5 12.1642 14.1642 12.5 13.75 12.5L11.5 12.5L11.5 14.75C11.5 15.1642 11.1642 15.5 10.75 15.5C10.3358 15.5 10 15.1642 10 14.75L10 12.5L7.75 12.5C7.33579 12.5 7 12.1642 7 11.75C7 11.3358 7.33579 11 7.75 11L10 11L10 8.75C10 8.33579 10.3358 8 10.75 8Z" fill-rule="NONZERO"></path>
  <path d="M2.75 0C2.02065 0 1.32118 0.289731 0.805456 0.805456C0.289731 1.32118 0 2.02065 0 2.75L0 16.75C0 17.4793 0.289731 18.1788 0.805456 18.6945C1.32118 19.2103 2.02065 19.5 2.75 19.5L18.75 19.5C19.4793 19.5 20.1788 19.2103 20.6945 18.6945C21.2103 18.1788 21.5 17.4793 21.5 16.75L21.5 4.75C21.5 4.02065 21.2103 3.32118 20.6945 2.80546C20.1788 2.28973 19.4793 2 18.75 2L12.0607 2L10.2803 0.21967C10.1397 0.0790176 9.94891 0 9.75 0L2.75 0ZM1.86612 1.86612C2.10054 1.6317 2.41848 1.5 2.75 1.5L9.43934 1.5L11.2197 3.28033C11.3603 3.42098 11.5511 3.5 11.75 3.5L18.75 3.5C19.0815 3.5 19.3995 3.6317 19.6339 3.86612C19.8683 4.10054 20 4.41848 20 4.75L20 16.75C20 17.0815 19.8683 17.3995 19.6339 17.6339C19.3995 17.8683 19.0815 18 18.75 18L2.75 18C2.41848 18 2.10054 17.8683 1.86612 17.6339C1.6317 17.3995 1.5 17.0815 1.5 16.75L1.5 6.45732C1.57819 6.48496 1.66234 6.5 1.75 6.5L17.75 6.5C18.1642 6.5 18.5 6.16421 18.5 5.75C18.5 5.33579 18.1642 5 17.75 5L1.75 5C1.66234 5 1.57819 5.01504 1.5 5.04268L1.5 2.75C1.5 2.41848 1.6317 2.10054 1.86612 1.86612Z" fill-rule="EVENODD"></path>
 </g>
</svg>