<svg width="16" height="16" viewBox="0 0 16 16" fill="none" xmlns="http://www.w3.org/2000/svg">
<path fill-rule="evenodd" clip-rule="evenodd" d="M2.33333 1.25C1.7808 1.25 1.2509 1.46949 0.860194 1.86019C0.469493 2.2509 0.25 2.7808 0.25 3.33333V12.6667C0.25 13.2192 0.469493 13.7491 0.860194 14.1398C1.2509 14.5305 1.7808 14.75 2.33333 14.75H13.6667C14.2192 14.75 14.7491 14.5305 15.1398 14.1398C15.5305 13.7491 15.75 13.2192 15.75 12.6667V4.83333C15.75 4.2808 15.5305 3.75089 15.1398 3.36019C14.7491 2.96949 14.2192 2.75 13.6667 2.75H9.31066L8.03033 1.46967C7.88968 1.32902 7.69891 1.25 7.5 1.25H2.33333ZM8.75 6.5C8.75 6.08579 8.41421 5.75 8 5.75C7.58579 5.75 7.25 6.08579 7.25 6.5V7.84525H6C5.58579 7.84525 5.25 8.18104 5.25 8.59525C5.25 9.00946 5.58579 9.34525 6 9.34525H7.25V10.5C7.25 10.9142 7.58579 11.25 8 11.25C8.41421 11.25 8.75 10.9142 8.75 10.5V9.34525H10C10.4142 9.34525 10.75 9.00946 10.75 8.59525C10.75 8.18104 10.4142 7.84525 10 7.84525H8.75V6.5Z" fill="black"/>
</svg>
