<svg width="16" height="16" viewBox="0 0 16 16" fill="none" xmlns="http://www.w3.org/2000/svg">
<path d="M2.33333 1.25C1.7808 1.25 1.2509 1.46949 0.860194 1.86019C0.469493 2.2509 0.25 2.7808 0.25 3.33333V4.5C0.25 4.91421 0.585786 5.25 1 5.25H12C12.4142 5.25 12.75 5.58579 12.75 6C12.75 6.41421 12.4142 6.75 12 6.75H1C0.585786 6.75 0.25 7.08579 0.25 7.5V12.6667C0.25 13.2192 0.469494 13.7491 0.860194 14.1398C1.2509 14.5305 1.7808 14.75 2.33333 14.75H13.6667C14.2192 14.75 14.7491 14.5305 15.1398 14.1398C15.5305 13.7491 15.75 13.2192 15.75 12.6667V4.83333C15.75 4.2808 15.5305 3.75089 15.1398 3.36019C14.7491 2.96949 14.2192 2.75 13.6667 2.75H9.31066L8.03033 1.46967C7.88968 1.32902 7.69891 1.25 7.5 1.25H2.33333Z" fill="black"/>
</svg>
