<svg viewbox="0 0 24 24" width="24" height="24" fill="black" xmlns="http://www.w3.org/2000/svg">
 <g transform="translate(1.25, 2.25)">
  <path d="M10.2803 0.21967L12.0607 2L18.75 2C19.4793 2 20.1788 2.28973 20.6945 2.80546C21.2103 3.32118 21.5 4.02065 21.5 4.75L21.5 16.75C21.5 17.4793 21.2103 18.1788 20.6945 18.6945C20.1788 19.2103 19.4793 19.5 18.75 19.5L2.75 19.5C2.02065 19.5 1.32118 19.2103 0.805456 18.6945C0.289731 18.1788 0 17.4793 0 16.75L0 6.25C0 5.83579 0.335786 5.5 0.75 5.5L18.25 5.5C18.6642 5.5 19 5.16421 19 4.75C19 4.33579 18.6642 4 18.25 4L0.75 4C0.335786 4 0 3.66421 0 3.25L0 2.75C0 2.02065 0.289731 1.32118 0.805456 0.805456C1.32118 0.289731 2.02065 0 2.75 0L9.75 0C9.94891 0 10.1397 0.0790176 10.2803 0.21967Z" fill-rule="NONZERO"></path>
 </g>
</svg>