<svg width="16" height="16" viewBox="0 0 16 16" fill="none" xmlns="http://www.w3.org/2000/svg">
<path d="M3.79856 9.69858C4.16581 9.33132 4.66392 9.125 5.1833 9.125H7.84995C8.36933 9.125 8.86744 9.33132 9.2347 9.69858C9.60196 10.0658 9.80828 10.5639 9.80828 11.0833V11.75C9.80828 12.0952 9.52846 12.375 9.18328 12.375C8.8381 12.375 8.55828 12.0952 8.55828 11.75V11.0833C8.55828 10.8955 8.48365 10.7153 8.35082 10.5825C8.21798 10.4496 8.03781 10.375 7.84995 10.375H5.1833C4.99544 10.375 4.81528 10.4496 4.68244 10.5825C4.5496 10.7153 4.47498 10.8955 4.47498 11.0833V11.75C4.47498 12.0952 4.19515 12.375 3.84998 12.375C3.5048 12.375 3.22498 12.0952 3.22498 11.75V11.0833C3.22498 10.5639 3.4313 10.0658 3.79856 9.69858Z" fill="black"/>
<path fill-rule="evenodd" clip-rule="evenodd" d="M6.51714 4.875C5.43559 4.875 4.55881 5.75177 4.55881 6.83333C4.55881 7.91488 5.43559 8.79165 6.51714 8.79165C7.59869 8.79165 8.47547 7.91488 8.47547 6.83333C8.47547 5.75177 7.59869 4.875 6.51714 4.875ZM5.80881 6.83333C5.80881 6.44213 6.12594 6.125 6.51714 6.125C6.90834 6.125 7.22547 6.44213 7.22547 6.83333C7.22547 7.22452 6.90834 7.54165 6.51714 7.54165C6.12594 7.54165 5.80881 7.22452 5.80881 6.83333Z" fill="black"/>
<path d="M10.5778 9.59375C10.6641 9.25953 11.005 9.05855 11.3392 9.14485C11.7594 9.25332 12.1316 9.49825 12.3974 9.84118C12.6632 10.1841 12.8077 10.6056 12.808 11.0395V11.7067C12.808 12.0518 12.5282 12.3317 12.183 12.3317C11.8378 12.3317 11.558 12.0518 11.558 11.7067V11.0403C11.5578 10.8834 11.5056 10.731 11.4095 10.607C11.3133 10.483 11.1787 10.3944 11.0267 10.3552C10.6925 10.2689 10.4915 9.92797 10.5778 9.59375Z" fill="black"/>
<path d="M10.005 4.93793C9.67061 4.85231 9.33012 5.05398 9.24451 5.38837C9.15889 5.72276 9.36056 6.06325 9.69495 6.14886C9.84731 6.18788 9.98236 6.27649 10.0788 6.40073C10.1752 6.52497 10.2276 6.67778 10.2276 6.83506C10.2276 6.99233 10.1752 7.14514 10.0788 7.26938C9.98236 7.39362 9.84731 7.48224 9.69495 7.52125C9.36056 7.60686 9.15889 7.94735 9.24451 8.28174C9.33012 8.61613 9.67061 8.8178 10.005 8.73218C10.4262 8.62433 10.7996 8.37934 11.0662 8.03585C11.3329 7.69235 11.4776 7.26989 11.4776 6.83506C11.4776 6.40022 11.3329 5.97776 11.0662 5.63426C10.7996 5.29077 10.4262 5.04578 10.005 4.93793Z" fill="black"/>
<path fill-rule="evenodd" clip-rule="evenodd" d="M0.860194 1.86019C1.2509 1.46949 1.7808 1.25 2.33333 1.25H7.5C7.69891 1.25 7.88968 1.32902 8.03033 1.46967L9.31066 2.75H13.6667C14.2192 2.75 14.7491 2.96949 15.1398 3.36019C15.5305 3.75089 15.75 4.2808 15.75 4.83333V12.6667C15.75 13.2192 15.5305 13.7491 15.1398 14.1398C14.7491 14.5305 14.2192 14.75 13.6667 14.75H2.33333C1.7808 14.75 1.2509 14.5305 0.860194 14.1398C0.469493 13.7491 0.25 13.2192 0.25 12.6667V3.33333C0.25 2.7808 0.469493 2.2509 0.860194 1.86019ZM2.33333 2.75C2.17862 2.75 2.03025 2.81146 1.92085 2.92085C1.81146 3.03025 1.75 3.17862 1.75 3.33333V12.6667C1.75 12.8214 1.81146 12.9697 1.92085 13.0791C2.03025 13.1885 2.17862 13.25 2.33333 13.25H13.6667C13.8214 13.25 13.9697 13.1885 14.0791 13.0791C14.1885 12.9697 14.25 12.8214 14.25 12.6667V4.83333C14.25 4.67862 14.1885 4.53025 14.0791 4.42085C13.9697 4.31146 13.8214 4.25 13.6667 4.25H9C8.80109 4.25 8.61032 4.17098 8.46967 4.03033L7.18934 2.75H2.33333Z" fill="black"/>
</svg>
