<svg width="16" height="16" viewBox="0 0 16 16" fill="none" xmlns="http://www.w3.org/2000/svg">
<path d="M8 5.58325C8.41421 5.58325 8.75 5.91904 8.75 6.33325V7.58325H10C10.4142 7.58325 10.75 7.91904 10.75 8.33325C10.75 8.74747 10.4142 9.08325 10 9.08325H8.75V10.3333C8.75 10.7475 8.41421 11.0833 8 11.0833C7.58579 11.0833 7.25 10.7475 7.25 10.3333V9.08325H6C5.58579 9.08325 5.25 8.74747 5.25 8.33325C5.25 7.91904 5.58579 7.58325 6 7.58325H7.25V6.33325C7.25 5.91904 7.58579 5.58325 8 5.58325Z" fill="black"/>
<path fill-rule="evenodd" clip-rule="evenodd" d="M0.860194 1.86019C1.2509 1.46949 1.7808 1.25 2.33333 1.25H7.5C7.69891 1.25 7.88968 1.32902 8.03033 1.46967L9.31066 2.75H13.6667C14.2192 2.75 14.7491 2.96949 15.1398 3.36019C15.5305 3.75089 15.75 4.2808 15.75 4.83333V12.6667C15.75 13.2192 15.5305 13.7491 15.1398 14.1398C14.7491 14.5305 14.2192 14.75 13.6667 14.75H2.33333C1.7808 14.75 1.2509 14.5305 0.860194 14.1398C0.469493 13.7491 0.25 13.2192 0.25 12.6667V3.33333C0.25 2.7808 0.469493 2.2509 0.860194 1.86019ZM2.33333 2.75C2.17862 2.75 2.03025 2.81146 1.92085 2.92085C1.81146 3.03025 1.75 3.17862 1.75 3.33333V12.6667C1.75 12.8214 1.81146 12.9697 1.92085 13.0791C2.03025 13.1885 2.17862 13.25 2.33333 13.25H13.6667C13.8214 13.25 13.9697 13.1885 14.0791 13.0791C14.1885 12.9697 14.25 12.8214 14.25 12.6667V4.83333C14.25 4.67862 14.1885 4.53025 14.0791 4.42085C13.9697 4.31146 13.8214 4.25 13.6667 4.25H9C8.80109 4.25 8.61032 4.17098 8.46967 4.03033L7.18934 2.75H2.33333Z" fill="black"/>
</svg>
