<svg viewbox="0 0 16 16" width="16" height="16" fill="black" xmlns="http://www.w3.org/2000/svg">
 <g transform="translate(0.25, 1.25)">
  <path d="M2.08333 0C1.5308 0 1.0009 0.219493 0.610194 0.610194C0.219493 1.0009 0 1.5308 0 2.08333L0 11.4167C0 11.9692 0.219493 12.4991 0.610194 12.8898C1.0009 13.2805 1.5308 13.5 2.08333 13.5L13.4167 13.5C13.9692 13.5 14.4991 13.2805 14.8898 12.8898C15.2805 12.4991 15.5 11.9692 15.5 11.4167L15.5 3.58333C15.5 3.0308 15.2805 2.50089 14.8898 2.11019C14.4991 1.71949 13.9692 1.5 13.4167 1.5L9.06066 1.5L7.78033 0.21967C7.63968 0.0790176 7.44891 0 7.25 0L2.08333 0ZM5 7.08334C5 6.66913 5.33579 6.33334 5.75 6.33334L9.75 6.33334C10.1642 6.33334 10.5 6.66913 10.5 7.08334C10.5 7.49756 10.1642 7.83334 9.75 7.83334L5.75 7.83334C5.33579 7.83334 5 7.49756 5 7.08334Z" fill-rule="EVENODD"></path>
 </g>
</svg>