<svg width="24" height="24" viewBox="0 0 24 24" fill="none" xmlns="http://www.w3.org/2000/svg">
<path d="M9 13.25C8.58579 13.25 8.25 13.5858 8.25 14C8.25 14.4142 8.58579 14.75 9 14.75H15C15.4142 14.75 15.75 14.4142 15.75 14C15.75 13.5858 15.4142 13.25 15 13.25H9Z" fill="black"/>
<path fill-rule="evenodd" clip-rule="evenodd" d="M2.05546 3.05546C2.57118 2.53973 3.27065 2.25 4 2.25H11C11.1989 2.25 11.3897 2.32902 11.5303 2.46967L13.3107 4.25H20C20.7293 4.25 21.4288 4.53973 21.9445 5.05546C22.4603 5.57118 22.75 6.27065 22.75 7V19C22.75 19.7293 22.4603 20.4288 21.9445 20.9445C21.4288 21.4603 20.7293 21.75 20 21.75H4C3.27065 21.75 2.57118 21.4603 2.05546 20.9445C1.53973 20.4288 1.25 19.7293 1.25 19V5C1.25 4.27065 1.53973 3.57118 2.05546 3.05546ZM4 3.75C3.66848 3.75 3.35054 3.8817 3.11612 4.11612C2.8817 4.35054 2.75 4.66848 2.75 5V7.29268C2.82819 7.26504 2.91234 7.25 3 7.25H19C19.4142 7.25 19.75 7.58579 19.75 8C19.75 8.41421 19.4142 8.75 19 8.75H3C2.91234 8.75 2.82819 8.73496 2.75 8.70732V19C2.75 19.3315 2.8817 19.6495 3.11612 19.8839C3.35054 20.1183 3.66848 20.25 4 20.25H20C20.3315 20.25 20.6495 20.1183 20.8839 19.8839C21.1183 19.6495 21.25 19.3315 21.25 19V7C21.25 6.66848 21.1183 6.35054 20.8839 6.11612C20.6495 5.8817 20.3315 5.75 20 5.75H13C12.8011 5.75 12.6103 5.67098 12.4697 5.53033L10.6893 3.75H4Z" fill="black"/>
</svg>
