<svg width="24" height="24" viewBox="0 0 24 24" fill="none" xmlns="http://www.w3.org/2000/svg">
<path d="M11.5303 2.46967L13.3107 4.25H20C20.7293 4.25 21.4288 4.53973 21.9445 5.05546C22.4603 5.57118 22.75 6.27065 22.75 7V19C22.75 19.7293 22.4603 20.4288 21.9445 20.9445C21.4288 21.4603 20.7293 21.75 20 21.75H4C3.27065 21.75 2.57118 21.4603 2.05546 20.9445C1.53973 20.4288 1.25 19.7293 1.25 19V8.5C1.25 8.08579 1.58579 7.75 2 7.75H19.5C19.9142 7.75 20.25 7.41421 20.25 7C20.25 6.58579 19.9142 6.25 19.5 6.25H2C1.58579 6.25 1.25 5.91421 1.25 5.5V5C1.25 4.27065 1.53973 3.57118 2.05546 3.05546C2.57118 2.53973 3.27065 2.25 4 2.25H11C11.1989 2.25 11.3897 2.32902 11.5303 2.46967Z" fill="black"/>
</svg>
