<svg width="24" height="24" viewBox="0 0 24 24" fill="none" xmlns="http://www.w3.org/2000/svg">
<path fill-rule="evenodd" clip-rule="evenodd" d="M4 2.25C3.27065 2.25 2.57118 2.53973 2.05546 3.05546C1.53973 3.57118 1.25 4.27065 1.25 5V5.5C1.25 5.91421 1.58579 6.25 2 6.25H19.5C19.9142 6.25 20.25 6.58579 20.25 7C20.25 7.41421 19.9142 7.75 19.5 7.75H2C1.58579 7.75 1.25 8.08579 1.25 8.5V19C1.25 19.7293 1.53973 20.4288 2.05546 20.9445C2.57118 21.4603 3.27065 21.75 4 21.75H20C20.7293 21.75 21.4288 21.4603 21.9445 20.9445C22.4603 20.4288 22.75 19.7293 22.75 19V7C22.75 6.27065 22.4603 5.57118 21.9445 5.05546C21.4288 4.53973 20.7293 4.25 20 4.25H13.3107L11.5303 2.46967C11.3897 2.32902 11.1989 2.25 11 2.25H4ZM8.25 14C8.25 13.5858 8.58579 13.25 9 13.25H15C15.4142 13.25 15.75 13.5858 15.75 14C15.75 14.4142 15.4142 14.75 15 14.75H9C8.58579 14.75 8.25 14.4142 8.25 14Z" fill="black"/>
</svg>
