<svg width="24" height="24" viewBox="0 0 24 24" fill="none" xmlns="http://www.w3.org/2000/svg">
<path d="M12 13.25C10.5433 13.25 9.39168 13.8332 8.62135 14.3934C8.23475 14.6746 7.93591 14.9557 7.73193 15.1686C7.62963 15.2753 7.5503 15.3658 7.49484 15.4319C7.46238 15.4706 7.43031 15.5096 7.39998 15.55C7.15145 15.8814 7.21861 16.3515 7.54998 16.6C7.88062 16.848 8.34961 16.7814 8.59856 16.4519C8.66579 16.366 8.73951 16.2851 8.81491 16.2064C8.97031 16.0443 9.20272 15.8254 9.50361 15.6066C9.81406 15.3808 10.1887 15.161 10.6211 15.0007C11.0308 14.8487 11.4923 14.75 12 14.75C13.0433 14.75 13.8917 15.1668 14.4964 15.6066C14.7972 15.8254 15.0297 16.0443 15.1851 16.2064C15.2606 16.2852 15.3344 16.3663 15.4017 16.4523C15.6507 16.7817 16.1194 16.8479 16.45 16.6C16.7814 16.3515 16.8485 15.8814 16.6 15.55L16.5992 15.549C16.4981 15.4149 16.3841 15.2897 16.268 15.1686C16.0641 14.9557 15.7652 14.6746 15.3786 14.3934C14.6083 13.8332 13.4566 13.25 12 13.25Z" fill="black"/>
<path d="M8 9C8 8.44772 8.44772 8 9 8H9.01C9.56228 8 10.01 8.44772 10.01 9C10.01 9.55228 9.56228 10 9.01 10H9C8.44772 10 8 9.55228 8 9Z" fill="black"/>
<path d="M15 8C14.4477 8 14 8.44772 14 9C14 9.55228 14.4477 10 15 10H15.01C15.5623 10 16.01 9.55228 16.01 9C16.01 8.44772 15.5623 8 15.01 8H15Z" fill="black"/>
<path fill-rule="evenodd" clip-rule="evenodd" d="M12 1.25C6.06294 1.25 1.25 6.06294 1.25 12C1.25 17.9371 6.06294 22.75 12 22.75C17.9371 22.75 22.75 17.9371 22.75 12C22.75 6.06294 17.9371 1.25 12 1.25ZM2.75 12C2.75 6.89137 6.89137 2.75 12 2.75C17.1086 2.75 21.25 6.89137 21.25 12C21.25 17.1086 17.1086 21.25 12 21.25C6.89137 21.25 2.75 17.1086 2.75 12Z" fill="black"/>
</svg>
