<svg width="16" height="16" viewBox="0 0 16 16" fill="none" xmlns="http://www.w3.org/2000/svg">
<path d="M5.25 6C5.25 5.58579 5.58579 5.25 6 5.25H6.00667C6.42088 5.25 6.75667 5.58579 6.75667 6C6.75667 6.41421 6.42088 6.75 6.00667 6.75H6C5.58579 6.75 5.25 6.41421 5.25 6Z" fill="black"/>
<path d="M10 5.25C9.58579 5.25 9.25 5.58579 9.25 6C9.25 6.41421 9.58579 6.75 10 6.75H10.0067C10.4209 6.75 10.7567 6.41421 10.7567 6C10.7567 5.58579 10.4209 5.25 10.0067 5.25H10Z" fill="black"/>
<path d="M5.75237 9.55893C6.25937 9.19021 7.02591 8.80005 8.00003 8.80005C8.97415 8.80005 9.74069 9.19021 10.2477 9.55893C10.5025 9.74428 10.6995 9.92956 10.8345 10.0704C10.9136 10.1529 10.9904 10.2379 11.0593 10.3291C11.2886 10.6346 11.2259 11.0807 10.92 11.31C10.61 11.5426 10.1759 11.4702 9.94029 11.1705C9.91708 11.1412 9.72927 10.913 9.42425 10.6912C9.07187 10.4349 8.58841 10.2 8.00003 10.2C7.41165 10.2 6.92819 10.4349 6.57581 10.6912C6.52388 10.7373 6.47733 10.7773 6.43336 10.815C6.30881 10.9219 6.2049 11.0111 6.05766 11.1732C5.82509 11.4798 5.38826 11.5412 5.08003 11.31C4.77075 11.0781 4.70807 10.6393 4.94003 10.33C5.02329 10.2247 5.07305 10.1696 5.16554 10.0704C5.30051 9.92956 5.49753 9.74428 5.75237 9.55893Z" fill="black"/>
<path fill-rule="evenodd" clip-rule="evenodd" d="M0.25 8C0.25 3.71979 3.71979 0.25 8 0.25C12.2802 0.25 15.75 3.71979 15.75 8C15.75 12.2802 12.2802 15.75 8 15.75C3.71979 15.75 0.25 12.2802 0.25 8ZM8 1.75C4.54822 1.75 1.75 4.54822 1.75 8C1.75 11.4518 4.54822 14.25 8 14.25C11.4518 14.25 14.25 11.4518 14.25 8C14.25 4.54822 11.4518 1.75 8 1.75Z" fill="black"/>
</svg>
