<svg width="16" height="16" viewBox="0 0 16 16" fill="none" xmlns="http://www.w3.org/2000/svg">
<path d="M3.74433 5.45291C4.54306 3.22298 5.84707 1.75 8 1.75C9.18495 1.75 10.073 2.18545 10.7696 2.89621C11.4855 3.62662 12.0197 4.67188 12.4047 5.8969C13.1758 8.35095 13.2791 11.2985 13.2442 13.1709C13.2331 13.7639 12.7399 14.25 12.0854 14.25H3.9146C3.26187 14.25 2.76683 13.7622 2.75578 13.1675C2.74355 12.5089 2.74819 11.7092 2.79455 10.8399C2.81661 10.4263 2.49918 10.0731 2.08555 10.0511C1.67193 10.029 1.31874 10.3464 1.29667 10.7601C1.24805 11.6718 1.24328 12.5082 1.25604 13.1954C1.28334 14.6648 2.50284 15.75 3.9146 15.75H12.0854C13.4954 15.75 14.7164 14.67 14.7439 13.1989C14.7797 11.2836 14.6815 8.13869 13.8357 5.44722C13.4122 4.09948 12.7841 2.80872 11.8409 1.84628C10.8784 0.864197 9.61059 0.25 8 0.25C4.90804 0.25 3.21881 2.47179 2.33219 4.94709C2.19251 5.33705 2.3954 5.7664 2.78535 5.90607C3.17531 6.04575 3.60466 5.84286 3.74433 5.45291Z" fill="black"/>
<path d="M5.96967 3.96967C6.26256 3.67678 6.73744 3.67678 7.03033 3.96967L10.5303 7.46967L10.5383 7.4778C10.6693 7.61283 10.75 7.797 10.75 8C10.75 8.20136 10.6706 8.38418 10.5415 8.51891L10.5303 8.53033L7.03033 12.0303C6.73744 12.3232 6.26256 12.3232 5.96967 12.0303C5.67678 11.7374 5.67678 11.2626 5.96967 10.9697L8.18934 8.75H1C0.585786 8.75 0.25 8.41421 0.25 8C0.25 7.58579 0.585786 7.25 1 7.25H8.18934L5.96967 5.03033C5.67678 4.73744 5.67678 4.26256 5.96967 3.96967Z" fill="black"/>
</svg>
