<svg width="16" height="16" viewBox="0 0 16 16" fill="none" xmlns="http://www.w3.org/2000/svg">
<path fill-rule="evenodd" clip-rule="evenodd" d="M1.75 3C1.75 3.43785 1.85312 3.86584 2.04658 4.25H1C0.585786 4.25 0.25 4.58579 0.25 5V8C0.25 8.41421 0.585786 8.75 1 8.75H2.25V15C2.25 15.4142 2.58579 15.75 3 15.75H13C13.4142 15.75 13.75 15.4142 13.75 15V8.75H15C15.4142 8.75 15.75 8.41421 15.75 8V5C15.75 4.58579 15.4142 4.25 15 4.25H13.9534C14.1469 3.86584 14.25 3.43785 14.25 3C14.25 2.27497 13.9673 1.57698 13.4598 1.06026C12.9518 0.543076 12.26 0.25 11.5357 0.25C9.73673 0.25 8.65764 1.56814 8.07673 2.64355C8.0504 2.6923 8.02483 2.74099 8 2.78954C7.97518 2.74099 7.94961 2.6923 7.92327 2.64355C7.34236 1.56814 6.26327 0.25 4.46429 0.25C3.74001 0.25 3.04818 0.543076 2.54024 1.06026C2.03275 1.57698 1.75 2.27497 1.75 3ZM4.46429 1.75C4.14664 1.75 3.83922 1.87835 3.61041 2.11132C3.38116 2.34474 3.25 2.66416 3.25 3C3.25 3.33584 3.38116 3.65526 3.61041 3.88868C3.83922 4.12165 4.14664 4.25 4.46429 4.25H7.00085C6.90033 3.97378 6.76934 3.66343 6.60351 3.35645C6.10407 2.43186 5.4153 1.75 4.46429 1.75ZM8.99916 4.25H11.5357C11.8534 4.25 12.1608 4.12165 12.3896 3.88868C12.6189 3.65526 12.75 3.33584 12.75 3C12.75 2.66416 12.6189 2.34474 12.3896 2.11132C12.1608 1.87835 11.8534 1.75 11.5357 1.75C10.5847 1.75 9.89594 2.43186 9.39649 3.35645C9.23067 3.66343 9.09967 3.97378 8.99916 4.25ZM8.75 5.75V7.25H14.25V5.75H8.75ZM7.25 5.75V7.25H1.75V5.75H7.25ZM7.25 8.75H3.75V14.25H7.25V8.75ZM8.75 14.25V8.75H12.25V14.25H8.75Z" fill="black"/>
</svg>
