<svg viewBox="0 0 16 16" width="16" height="16" fill="black" xmlns="http://www.w3.org/2000/svg">
 <g transform="translate(1.25, 1.25)">
  <path d="M3.5 5.39648C4.65425 5.07002 5.5 4.00878 5.5 2.75C5.5 1.23122 4.26878 0 2.75 0C1.23122 0 0 1.23122 0 2.75C0 4.00878 0.845748 5.07002 2 5.39648L2 12.75C2 13.1642 2.33579 13.5 2.75 13.5C3.16421 13.5 3.5 13.1642 3.5 12.75L3.5 5.39648ZM1.5 2.75C1.5 2.05964 2.05964 1.5 2.75 1.5C3.44036 1.5 4 2.05964 4 2.75C4 3.44036 3.44036 4 2.75 4C2.05964 4 1.5 3.44036 1.5 2.75Z" fill-rule="EVENODD"></path>
  <path d="M11.5 4.08333L11.5 8.10352C12.6543 8.42998 13.5 9.49122 13.5 10.75C13.5 12.2688 12.2688 13.5 10.75 13.5C9.23122 13.5 8 12.2688 8 10.75C8 9.49122 8.84575 8.42998 10 8.10351L10 4.08333C10 3.92862 9.93855 3.78025 9.82915 3.67085C9.71975 3.56146 9.57138 3.5 9.41667 3.5L7.25 3.5C6.83579 3.5 6.5 3.16421 6.5 2.75C6.5 2.33579 6.83579 2 7.25 2L9.41667 2C9.96921 2 10.4991 2.21949 10.8898 2.61019C11.2805 3.0009 11.5 3.5308 11.5 4.08333ZM9.5 10.75C9.5 10.0596 10.0596 9.5 10.75 9.5C11.4404 9.5 12 10.0596 12 10.75C12 11.4404 11.4404 12 10.75 12C10.0596 12 9.5 11.4404 9.5 10.75Z" fill-rule="EVENODD"></path>
 </g>
</svg>