<svg width="16" height="16" viewBox="0 0 16 16" fill="none" xmlns="http://www.w3.org/2000/svg">
<path fill-rule="evenodd" clip-rule="evenodd" d="M4.78856 6.63527C5.92304 6.29629 6.75 5.24472 6.75 4C6.75 2.48122 5.51878 1.25 4 1.25C2.48122 1.25 1.25 2.48122 1.25 4C1.25 5.25878 2.09575 6.32002 3.25 6.64648V14C3.25 14.4142 3.58579 14.75 4 14.75C4.41421 14.75 4.75 14.4142 4.75 14V10.2427C4.89887 10.4269 5.05801 10.6039 5.22703 10.773C6.3375 11.8834 7.79505 12.567 9.34471 12.7181C9.66051 13.8887 10.7297 14.75 12 14.75C13.5188 14.75 14.75 13.5188 14.75 12C14.75 10.4812 13.5188 9.25 12 9.25C10.7553 9.25 9.70371 10.077 9.36473 11.2114C8.20644 11.0703 7.12132 10.5459 6.28769 9.71231C5.45405 8.87868 4.92973 7.79356 4.78856 6.63527ZM4 2.75C3.30964 2.75 2.75 3.30964 2.75 4C2.75 4.69036 3.30964 5.25 4 5.25C4.69036 5.25 5.25 4.69036 5.25 4C5.25 3.30964 4.69036 2.75 4 2.75ZM10.75 12C10.75 12.6904 11.3096 13.25 12 13.25C12.6904 13.25 13.25 12.6904 13.25 12C13.25 11.3096 12.6904 10.75 12 10.75C11.3096 10.75 10.75 11.3096 10.75 12Z" fill="black"/>
</svg>
