<svg width="24" height="24" viewBox="0 0 24 24" fill="none" xmlns="http://www.w3.org/2000/svg">
<path fill-rule="evenodd" clip-rule="evenodd" d="M6.75 3C6.75 2.58579 6.41421 2.25 6 2.25C5.58579 2.25 5.25 2.58579 5.25 3V14.325C3.53832 14.6725 2.25 16.1858 2.25 18C2.25 20.0711 3.92893 21.75 6 21.75C7.82258 21.75 9.34148 20.4498 9.67972 18.7263C12.0172 18.563 14.2267 17.5619 15.8943 15.8943C17.5619 14.2267 18.563 12.0172 18.7263 9.67972C20.4498 9.34148 21.75 7.82258 21.75 6C21.75 3.92893 20.0711 2.25 18 2.25C15.9289 2.25 14.25 3.92893 14.25 6C14.25 7.8046 15.5247 9.31148 17.2228 9.66936C17.0647 11.6123 16.2223 13.445 14.8336 14.8336C13.445 16.2223 11.6123 17.0647 9.66936 17.2228C9.36242 15.7664 8.21028 14.6214 6.75 14.325V3ZM8.25 18C8.25 16.7574 7.24264 15.75 6 15.75C4.75736 15.75 3.75 16.7574 3.75 18C3.75 19.2426 4.75736 20.25 6 20.25C7.24264 20.25 8.25 19.2426 8.25 18ZM18 8.25C19.2426 8.25 20.25 7.24264 20.25 6C20.25 4.75736 19.2426 3.75 18 3.75C16.7574 3.75 15.75 4.75736 15.75 6C15.75 7.24264 16.7574 8.25 18 8.25Z" fill="black"/>
</svg>
