<svg width="16" height="16" viewBox="0 0 16 16" fill="none" xmlns="http://www.w3.org/2000/svg">
<path fill-rule="evenodd" clip-rule="evenodd" d="M4.75 2C4.75 1.58579 4.41421 1.25 4 1.25C3.58579 1.25 3.25 1.58579 3.25 2V9.35352C2.09575 9.67998 1.25 10.7412 1.25 12C1.25 13.5188 2.48122 14.75 4 14.75C5.27033 14.75 6.33949 13.8887 6.65529 12.7181C8.20495 12.567 9.6625 11.8834 10.773 10.773C11.8834 9.6625 12.567 8.20495 12.7181 6.65529C13.8887 6.33949 14.75 5.27033 14.75 4C14.75 2.48122 13.5188 1.25 12 1.25C10.4812 1.25 9.25 2.48122 9.25 4C9.25 5.24472 10.077 6.29629 11.2114 6.63527C11.0703 7.79356 10.5459 8.87868 9.71231 9.71231C8.87868 10.5459 7.79356 11.0703 6.63527 11.2114C6.3671 10.3139 5.65295 9.6089 4.75 9.35352V2ZM5.25 12C5.25 11.3096 4.69036 10.75 4 10.75C3.30964 10.75 2.75 11.3096 2.75 12C2.75 12.6904 3.30964 13.25 4 13.25C4.69036 13.25 5.25 12.6904 5.25 12ZM12 5.25C12.6904 5.25 13.25 4.69036 13.25 4C13.25 3.30964 12.6904 2.75 12 2.75C11.3096 2.75 10.75 3.30964 10.75 4C10.75 4.69036 11.3096 5.25 12 5.25Z" fill="black"/>
</svg>
