<svg width="16" height="16" viewBox="0 0 16 16" fill="none" xmlns="http://www.w3.org/2000/svg">
<path fill-rule="evenodd" clip-rule="evenodd" d="M11.163 7.25C10.8245 5.81665 9.53679 4.75 8 4.75C6.46321 4.75 5.17555 5.81665 4.83697 7.25H2C1.58579 7.25 1.25 7.58579 1.25 8C1.25 8.41421 1.58579 8.75 2 8.75H4.83697C5.17555 10.1834 6.46321 11.25 8 11.25C9.53679 11.25 10.8245 10.1834 11.163 8.75H14C14.4142 8.75 14.75 8.41421 14.75 8C14.75 7.58579 14.4142 7.25 14 7.25H11.163ZM8 6.25C7.0335 6.25 6.25 7.0335 6.25 8C6.25 8.9665 7.0335 9.75 8 9.75C8.9665 9.75 9.75 8.9665 9.75 8C9.75 7.0335 8.9665 6.25 8 6.25Z" fill="black"/>
</svg>
