<svg viewbox="0 0 16 16" width="16" height="16" fill="black" xmlns="http://www.w3.org/2000/svg">
 <g transform="translate(1.25, 0.25)">
  <path d="M0.0137867 11.7689C0.0767888 12.3525 0.353048 12.8929 0.787436 13.2983C1.09025 13.5809 1.56484 13.5646 1.84747 13.2617C2.13009 12.9589 2.11373 12.4843 1.81091 12.2017C1.61963 12.0232 1.51541 11.7955 1.50158 11.5653C1.51627 11.2887 1.63264 11.0264 1.8295 10.8295C2.04048 10.6185 2.32663 10.5 2.625 10.5L12 10.5L12 12.5126L9.25 12.5126C8.83579 12.5126 8.5 12.8483 8.5 13.2626C8.5 13.6768 8.83579 14.0126 9.25 14.0126L12.75 14.0126C13.1642 14.0126 13.5 13.6768 13.5 13.2626L13.5 0.75C13.5 0.335786 13.1642 0 12.75 0L2.625 0C1.94486 0 1.28306 0.25169 0.787436 0.714272C0.290064 1.17849 0 1.81961 0 2.5L0 11.5126C0 11.5309 0.000210504 11.5492 0.000629895 11.5675C0.000210391 11.5866 0 11.6058 0 11.625C0 11.6742 0.00473941 11.7223 0.0137867 11.7689ZM1.81091 1.81085C2.01855 1.61706 2.31057 1.5 2.625 1.5L12 1.5L12 9L2.625 9C2.23212 9 1.84832 9.08807 1.5 9.25329L1.5 2.5C1.5 2.25213 1.60502 2.00302 1.81091 1.81085Z" fill-rule="EVENODD"></path>
  <path d="M4.25 11.25C3.69772 11.25 3.25 11.6977 3.25 12.25L3.25 14.75C3.25 14.9344 3.35149 15.1038 3.51407 15.1908C3.67665 15.2778 3.87392 15.2683 4.02735 15.166L5.25 14.3509L6.47265 15.166C6.62608 15.2683 6.82335 15.2778 6.98593 15.1908C7.14851 15.1038 7.25 14.9344 7.25 14.75L7.25 12.25C7.25 11.6977 6.80229 11.25 6.25 11.25L4.25 11.25Z" fill-rule="NONZERO"></path>
 </g>
</svg>