<svg width="24" height="24" viewBox="0 0 24 24" fill="none" xmlns="http://www.w3.org/2000/svg">
<path fill-rule="evenodd" clip-rule="evenodd" d="M6.75 9.67499C8.46168 9.32753 9.75 7.81422 9.75 6C9.75 3.92893 8.07107 2.25 6 2.25C3.92893 2.25 2.25 3.92893 2.25 6C2.25 7.81422 3.53832 9.32753 5.25 9.67499V21C5.25 21.4142 5.58579 21.75 6 21.75C6.41421 21.75 6.75 21.4142 6.75 21V9.67499ZM3.75 6C3.75 4.75736 4.75736 3.75 6 3.75C7.24264 3.75 8.25 4.75736 8.25 6C8.25 7.24264 7.24264 8.25 6 8.25C4.75736 8.25 3.75 7.24264 3.75 6Z" fill="black"/>
<path fill-rule="evenodd" clip-rule="evenodd" d="M14.25 18C14.25 16.1858 15.5383 14.6725 17.25 14.325V8C17.25 7.66848 17.1183 7.35054 16.8839 7.11612C16.6495 6.8817 16.3315 6.75 16 6.75H13C12.5858 6.75 12.25 6.41421 12.25 6C12.25 5.58579 12.5858 5.25 13 5.25H16C16.7293 5.25 17.4288 5.53973 17.9445 6.05546C18.4603 6.57118 18.75 7.27065 18.75 8V14.325C20.4617 14.6725 21.75 16.1858 21.75 18C21.75 20.0711 20.0711 21.75 18 21.75C15.9289 21.75 14.25 20.0711 14.25 18ZM15.75 18C15.75 16.7574 16.7574 15.75 18 15.75C19.2426 15.75 20.25 16.7574 20.25 18C20.25 19.2426 19.2426 20.25 18 20.25C16.7574 20.25 15.75 19.2426 15.75 18Z" fill="black"/>
</svg>
