<svg width="24" height="24" viewBox="0 0 24 24" fill="none" xmlns="http://www.w3.org/2000/svg">
<path fill-rule="evenodd" clip-rule="evenodd" d="M4.75 17.5C4.75 17.9641 4.93437 18.4092 5.26256 18.7374C5.55546 19.0303 5.55546 19.5052 5.26256 19.7981C4.96967 20.091 4.4948 20.091 4.2019 19.7981C3.59241 19.1886 3.25 18.362 3.25 17.5V4.5C3.25 3.63805 3.59241 2.8114 4.2019 2.2019C4.8114 1.59241 5.63805 1.25 6.5 1.25H20C20.4142 1.25 20.75 1.58579 20.75 2V20C20.75 20.4142 20.4142 20.75 20 20.75H15.5C15.0858 20.75 14.75 20.4142 14.75 20C14.75 19.5858 15.0858 19.25 15.5 19.25H19.25V15.75H6.5C6.03587 15.75 5.59075 15.9344 5.26256 16.2626C4.93437 16.5908 4.75 17.0359 4.75 17.5ZM5.26256 3.26256C5.59075 2.93437 6.03587 2.75 6.5 2.75H19.25V14.25H6.5C5.87499 14.25 5.26855 14.43 4.75 14.7614V4.5C4.75 4.03587 4.93437 3.59075 5.26256 3.26256Z" fill="black"/>
<path d="M7.5 17.75C7.08579 17.75 6.75 18.0858 6.75 18.5V22.5C6.75 22.7702 6.89534 23.0195 7.13048 23.1526C7.36561 23.2858 7.65417 23.2821 7.88587 23.1431L10 21.8746L12.1141 23.1431C12.3458 23.2821 12.6344 23.2858 12.8695 23.1526C13.1047 23.0195 13.25 22.7702 13.25 22.5V18.5C13.25 18.0858 12.9142 17.75 12.5 17.75H7.5Z" fill="black"/>
</svg>
