<svg width="16" height="16" viewBox="0 0 16 16" fill="none" xmlns="http://www.w3.org/2000/svg">
<path fill-rule="evenodd" clip-rule="evenodd" d="M4.75 6.64648C5.90425 6.32002 6.75 5.25878 6.75 4C6.75 2.48122 5.51878 1.25 4 1.25C2.48122 1.25 1.25 2.48122 1.25 4C1.25 5.25878 2.09575 6.32002 3.25 6.64648V14C3.25 14.4142 3.58579 14.75 4 14.75C4.41421 14.75 4.75 14.4142 4.75 14V6.64648ZM2.75 4C2.75 3.30964 3.30964 2.75 4 2.75C4.69036 2.75 5.25 3.30964 5.25 4C5.25 4.69036 4.69036 5.25 4 5.25C3.30964 5.25 2.75 4.69036 2.75 4Z" fill="black"/>
<path fill-rule="evenodd" clip-rule="evenodd" d="M12.75 5.33333V9.35352C13.9043 9.67998 14.75 10.7412 14.75 12C14.75 13.5188 13.5188 14.75 12 14.75C10.4812 14.75 9.25 13.5188 9.25 12C9.25 10.7412 10.0957 9.67998 11.25 9.35351V5.33333C11.25 5.17862 11.1885 5.03025 11.0792 4.92085C10.9698 4.81146 10.8214 4.75 10.6667 4.75H8.5C8.08579 4.75 7.75 4.41421 7.75 4C7.75 3.58579 8.08579 3.25 8.5 3.25H10.6667C11.2192 3.25 11.7491 3.46949 12.1398 3.86019C12.5305 4.2509 12.75 4.7808 12.75 5.33333ZM10.75 12C10.75 11.3096 11.3096 10.75 12 10.75C12.6904 10.75 13.25 11.3096 13.25 12C13.25 12.6904 12.6904 13.25 12 13.25C11.3096 13.25 10.75 12.6904 10.75 12Z" fill="black"/>
</svg>
