<svg width="16" height="16" viewBox="0 0 16 16" fill="none" xmlns="http://www.w3.org/2000/svg">
<path fill-rule="evenodd" clip-rule="evenodd" d="M1.26379 12.0189C1.32679 12.6025 1.60305 13.1429 2.03744 13.5483C2.34025 13.8309 2.81484 13.8146 3.09747 13.5117C3.38009 13.2089 3.36373 12.7343 3.06091 12.4517C2.86963 12.2732 2.76541 12.0455 2.75158 11.8153C2.76627 11.5387 2.88264 11.2764 3.0795 11.0795C3.29048 10.8685 3.57663 10.75 3.875 10.75H13.25V12.7626H10.5C10.0858 12.7626 9.75 13.0983 9.75 13.5126C9.75 13.9268 10.0858 14.2626 10.5 14.2626H14C14.4142 14.2626 14.75 13.9268 14.75 13.5126V1C14.75 0.585786 14.4142 0.25 14 0.25H3.875C3.19486 0.25 2.53306 0.50169 2.03744 0.964272C1.54006 1.42849 1.25 2.06961 1.25 2.75V11.7626C1.25 11.7809 1.25021 11.7992 1.25063 11.8175C1.25021 11.8366 1.25 11.8558 1.25 11.875C1.25 11.9242 1.25474 11.9723 1.26379 12.0189ZM3.06091 2.06085C3.26855 1.86706 3.56057 1.75 3.875 1.75H13.25V9.25H3.875C3.48212 9.25 3.09832 9.33807 2.75 9.50329V2.75C2.75 2.50213 2.85502 2.25302 3.06091 2.06085Z" fill="black"/>
<path d="M5.5 11.5C4.94772 11.5 4.5 11.9477 4.5 12.5V15C4.5 15.1844 4.60149 15.3538 4.76407 15.4408C4.92665 15.5278 5.12392 15.5183 5.27735 15.416L6.5 14.6009L7.72265 15.416C7.87608 15.5183 8.07335 15.5278 8.23593 15.4408C8.39851 15.3538 8.5 15.1844 8.5 15V12.5C8.5 11.9477 8.05229 11.5 7.5 11.5L5.5 11.5Z" fill="black"/>
</svg>
