<svg viewBox="0 0 24 24" width="24" height="24" fill="black" xmlns="http://www.w3.org/2000/svg">
 <g transform="translate(1.25, 1.25)">
  <path d="M10.75 0C4.81294 0 0 4.81294 0 10.75C0 16.6871 4.81294 21.5 10.75 21.5C16.6871 21.5 21.5 16.6871 21.5 10.75C21.5 4.81294 16.6871 0 10.75 0ZM9.046 1.65662C4.99089 2.41176 1.86597 5.81246 1.52997 10L6.03228 10C6.23346 6.98409 7.28191 4.09327 9.046 1.65662ZM12.454 1.65662C14.2181 4.09327 15.2665 6.98409 15.4677 10L19.97 10C19.634 5.81246 16.5091 2.41176 12.454 1.65662ZM13.964 10C13.7457 7.03424 12.6234 4.20648 10.75 1.89868C8.87657 4.20648 7.7543 7.03424 7.53596 10L13.964 10ZM7.53597 11.5L13.964 11.5C13.7457 14.4657 12.6234 17.2935 10.75 19.6012C8.87659 17.2935 7.75432 14.4657 7.53597 11.5ZM6.03229 11.5L1.52997 11.5C1.86597 15.6876 4.99092 19.0883 9.04607 19.8434C7.28195 17.4067 6.23348 14.5159 6.03229 11.5ZM12.4539 19.8434C14.218 17.4067 15.2665 14.5159 15.4677 11.5L19.97 11.5C19.634 15.6876 16.5091 19.0883 12.4539 19.8434Z" fill-rule="EVENODD"></path>
 </g>
</svg>