<svg width="24" height="24" viewBox="0 0 24 24" fill="none" xmlns="http://www.w3.org/2000/svg">
<path fill-rule="evenodd" clip-rule="evenodd" d="M12 1.25C6.06294 1.25 1.25 6.06294 1.25 12C1.25 17.9371 6.06294 22.75 12 22.75C17.9371 22.75 22.75 17.9371 22.75 12C22.75 6.06294 17.9371 1.25 12 1.25ZM10.296 2.90662C6.24089 3.66176 3.11597 7.06246 2.77997 11.25H7.28228C7.48346 8.23409 8.53191 5.34327 10.296 2.90662ZM13.704 2.90662C15.4681 5.34327 16.5165 8.23409 16.7177 11.25H21.22C20.884 7.06246 17.7591 3.66176 13.704 2.90662ZM15.214 11.25C14.9957 8.28424 13.8734 5.45648 12 3.14868C10.1266 5.45648 9.0043 8.28424 8.78596 11.25H15.214ZM8.78597 12.75H15.214C14.9957 15.7157 13.8734 18.5435 12 20.8512C10.1266 18.5435 9.00432 15.7157 8.78597 12.75ZM7.28229 12.75H2.77997C3.11597 16.9376 6.24092 20.3383 10.2961 21.0934C8.53195 18.6567 7.48348 15.7659 7.28229 12.75ZM13.7039 21.0934C15.468 18.6567 16.5165 15.7659 16.7177 12.75H21.22C20.884 16.9376 17.7591 20.3383 13.7039 21.0934Z" fill="black"/>
</svg>
