<svg width="16" height="16" viewBox="0 0 16 16" fill="none" xmlns="http://www.w3.org/2000/svg">
<path fill-rule="evenodd" clip-rule="evenodd" d="M7.84658 15.7485C7.8976 15.7495 7.94874 15.75 8 15.75C12.2802 15.75 15.75 12.2802 15.75 8C15.75 3.71979 12.2802 0.25 8 0.25C3.71979 0.25 0.25 3.71979 0.25 8C0.25 12.1836 3.56501 15.593 7.71159 15.7447C7.74078 15.7482 7.77029 15.75 7.8 15.75C7.81559 15.75 7.83112 15.7495 7.84658 15.7485ZM6.04469 2.06195C3.77919 2.80752 2.08593 4.81341 1.79454 7.25H4.28905C4.44679 5.39833 5.05209 3.61876 6.04469 2.06195ZM9.46508 1.92267C10.5112 3.51222 11.1485 5.34287 11.311 7.25H14.2055C13.8934 4.64064 11.9736 2.52523 9.46508 1.92267ZM9.8047 7.25C9.6233 5.40166 8.92845 3.64091 7.8 2.1674C6.67155 3.64091 5.9767 5.40166 5.7953 7.25H9.8047ZM5.79531 8.75H9.80469C9.62328 10.5983 8.92843 12.359 7.8 13.8325C6.67157 12.359 5.97672 10.5983 5.79531 8.75ZM4.28905 8.75H1.79454C2.08594 11.1866 3.77923 13.1925 6.04476 13.9381C5.05213 12.3813 4.44681 10.6017 4.28905 8.75ZM9.46502 14.0773C10.5112 12.4878 11.1485 10.6571 11.3109 8.75H14.2055C13.8934 11.3594 11.9736 13.4748 9.46502 14.0773Z" fill="black"/>
</svg>
