<svg width="16" height="16" viewBox="0 0 16 16" fill="none" xmlns="http://www.w3.org/2000/svg">
<path fill-rule="evenodd" clip-rule="evenodd" d="M0.375 1C0.375 0.654822 0.654822 0.375 1 0.375H4C4.34518 0.375 4.625 0.654822 4.625 1V4C4.625 4.34518 4.34518 4.625 4 4.625H1C0.654822 4.625 0.375 4.34518 0.375 4V1ZM1.625 1.625V3.375H3.375V1.625H1.625Z" fill="black"/>
<path fill-rule="evenodd" clip-rule="evenodd" d="M5.875 1C5.875 0.654822 6.15482 0.375 6.5 0.375H9.5C9.84518 0.375 10.125 0.654822 10.125 1V4C10.125 4.34518 9.84518 4.625 9.5 4.625H6.5C6.15482 4.625 5.875 4.34518 5.875 4V1ZM7.125 1.625V3.375H8.875V1.625H7.125Z" fill="black"/>
<path fill-rule="evenodd" clip-rule="evenodd" d="M12 0.375C11.6548 0.375 11.375 0.654822 11.375 1V4C11.375 4.34518 11.6548 4.625 12 4.625H15C15.3452 4.625 15.625 4.34518 15.625 4V1C15.625 0.654822 15.3452 0.375 15 0.375H12ZM12.625 3.375V1.625H14.375V3.375H12.625Z" fill="black"/>
<path fill-rule="evenodd" clip-rule="evenodd" d="M0.375 6.5C0.375 6.15482 0.654822 5.875 1 5.875H4C4.34518 5.875 4.625 6.15482 4.625 6.5V9.5C4.625 9.84518 4.34518 10.125 4 10.125H1C0.654822 10.125 0.375 9.84518 0.375 9.5V6.5ZM1.625 7.125V8.875H3.375V7.125H1.625Z" fill="black"/>
<path fill-rule="evenodd" clip-rule="evenodd" d="M6.5 5.875C6.15482 5.875 5.875 6.15482 5.875 6.5V9.5C5.875 9.84518 6.15482 10.125 6.5 10.125H9.5C9.84518 10.125 10.125 9.84518 10.125 9.5V6.5C10.125 6.15482 9.84518 5.875 9.5 5.875H6.5ZM7.125 8.875V7.125H8.875V8.875H7.125Z" fill="black"/>
<path fill-rule="evenodd" clip-rule="evenodd" d="M11.375 6.5C11.375 6.15482 11.6548 5.875 12 5.875H15C15.3452 5.875 15.625 6.15482 15.625 6.5V9.5C15.625 9.84518 15.3452 10.125 15 10.125H12C11.6548 10.125 11.375 9.84518 11.375 9.5V6.5ZM12.625 7.125V8.875H14.375V7.125H12.625Z" fill="black"/>
<path fill-rule="evenodd" clip-rule="evenodd" d="M1 11.375C0.654822 11.375 0.375 11.6548 0.375 12V15C0.375 15.3452 0.654822 15.625 1 15.625H4C4.34518 15.625 4.625 15.3452 4.625 15V12C4.625 11.6548 4.34518 11.375 4 11.375H1ZM1.625 14.375V12.625H3.375V14.375H1.625Z" fill="black"/>
<path fill-rule="evenodd" clip-rule="evenodd" d="M5.875 12C5.875 11.6548 6.15482 11.375 6.5 11.375H9.5C9.84518 11.375 10.125 11.6548 10.125 12V15C10.125 15.3452 9.84518 15.625 9.5 15.625H6.5C6.15482 15.625 5.875 15.3452 5.875 15V12ZM7.125 12.625V14.375H8.875V12.625H7.125Z" fill="black"/>
<path fill-rule="evenodd" clip-rule="evenodd" d="M12 11.375C11.6548 11.375 11.375 11.6548 11.375 12V15C11.375 15.3452 11.6548 15.625 12 15.625H15C15.3452 15.625 15.625 15.3452 15.625 15V12C15.625 11.6548 15.3452 11.375 15 11.375H12ZM12.625 14.375V12.625H14.375V14.375H12.625Z" fill="black"/>
</svg>
