<svg viewbox="0 0 16 16" width="16" height="16" fill="black" xmlns="http://www.w3.org/2000/svg">
 <g transform="translate(0.375, 0.375)">
  <path d="M0 0.625C0 0.279822 0.279822 0 0.625 0L3.625 0C3.97018 0 4.25 0.279822 4.25 0.625L4.25 3.625C4.25 3.97018 3.97018 4.25 3.625 4.25L0.625 4.25C0.279822 4.25 0 3.97018 0 3.625L0 0.625ZM1.25 1.25L1.25 3L3 3L3 1.25L1.25 1.25Z" fill-rule="EVENODD"></path>
  <path d="M5.5 0.625C5.5 0.279822 5.77982 0 6.125 0L9.125 0C9.47018 0 9.75 0.279822 9.75 0.625L9.75 3.625C9.75 3.97018 9.47018 4.25 9.125 4.25L6.125 4.25C5.77982 4.25 5.5 3.97018 5.5 3.625L5.5 0.625ZM6.75 1.25L6.75 3L8.5 3L8.5 1.25L6.75 1.25Z" fill-rule="EVENODD"></path>
  <path d="M11.625 0C11.2798 0 11 0.279822 11 0.625L11 3.625C11 3.97018 11.2798 4.25 11.625 4.25L14.625 4.25C14.9702 4.25 15.25 3.97018 15.25 3.625L15.25 0.625C15.25 0.279822 14.9702 0 14.625 0L11.625 0ZM12.25 3L12.25 1.25L14 1.25L14 3L12.25 3Z" fill-rule="EVENODD"></path>
  <path d="M0 6.125C0 5.77982 0.279822 5.5 0.625 5.5L3.625 5.5C3.97018 5.5 4.25 5.77982 4.25 6.125L4.25 9.125C4.25 9.47018 3.97018 9.75 3.625 9.75L0.625 9.75C0.279822 9.75 0 9.47018 0 9.125L0 6.125ZM1.25 6.75L1.25 8.5L3 8.5L3 6.75L1.25 6.75Z" fill-rule="EVENODD"></path>
  <path d="M6.125 5.5C5.77982 5.5 5.5 5.77982 5.5 6.125L5.5 9.125C5.5 9.47018 5.77982 9.75 6.125 9.75L9.125 9.75C9.47018 9.75 9.75 9.47018 9.75 9.125L9.75 6.125C9.75 5.77982 9.47018 5.5 9.125 5.5L6.125 5.5ZM6.75 8.5L6.75 6.75L8.5 6.75L8.5 8.5L6.75 8.5Z" fill-rule="EVENODD"></path>
  <path d="M11 6.125C11 5.77982 11.2798 5.5 11.625 5.5L14.625 5.5C14.9702 5.5 15.25 5.77982 15.25 6.125L15.25 9.125C15.25 9.47018 14.9702 9.75 14.625 9.75L11.625 9.75C11.2798 9.75 11 9.47018 11 9.125L11 6.125ZM12.25 6.75L12.25 8.5L14 8.5L14 6.75L12.25 6.75Z" fill-rule="EVENODD"></path>
  <path d="M0.625 11C0.279822 11 0 11.2798 0 11.625L0 14.625C0 14.9702 0.279822 15.25 0.625 15.25L3.625 15.25C3.97018 15.25 4.25 14.9702 4.25 14.625L4.25 11.625C4.25 11.2798 3.97018 11 3.625 11L0.625 11ZM1.25 14L1.25 12.25L3 12.25L3 14L1.25 14Z" fill-rule="EVENODD"></path>
  <path d="M5.5 11.625C5.5 11.2798 5.77982 11 6.125 11L9.125 11C9.47018 11 9.75 11.2798 9.75 11.625L9.75 14.625C9.75 14.9702 9.47018 15.25 9.125 15.25L6.125 15.25C5.77982 15.25 5.5 14.9702 5.5 14.625L5.5 11.625ZM6.75 12.25L6.75 14L8.5 14L8.5 12.25L6.75 12.25Z" fill-rule="EVENODD"></path>
  <path d="M11.625 11C11.2798 11 11 11.2798 11 11.625L11 14.625C11 14.9702 11.2798 15.25 11.625 15.25L14.625 15.25C14.9702 15.25 15.25 14.9702 15.25 14.625L15.25 11.625C15.25 11.2798 14.9702 11 14.625 11L11.625 11ZM12.25 14L12.25 12.25L14 12.25L14 14L12.25 14Z" fill-rule="EVENODD"></path>
 </g>
</svg>