<svg width="24" height="24" viewBox="0 0 24 24" fill="none" xmlns="http://www.w3.org/2000/svg">
<path fill-rule="evenodd" clip-rule="evenodd" d="M11.4338 7.51064C10.5788 6.73355 9.82042 6.29687 9.05998 6.0054C8.28041 5.7066 7.49282 5.55424 6.51833 5.36572C6.30606 5.32466 6.08492 5.28188 5.85307 5.23549C5.55562 5.17599 5.3233 4.94317 5.26444 4.6456C5.20558 4.34802 5.33177 4.04429 5.58416 3.87603C10.5303 0.57862 15.7464 3.07736 19.4531 6.09612C19.4663 6.10693 19.4792 6.11819 19.4917 6.12988C19.769 6.38917 19.8461 6.72843 19.876 6.9309C19.9175 7.21175 19.9008 7.49528 19.9134 7.7778C20.1722 7.75718 20.4306 7.72101 20.6909 7.73479C20.8824 7.74493 21.2393 7.78782 21.5207 8.0592C22.1999 8.71408 22.8783 9.36967 23.5505 10.0318C23.8456 10.3225 23.8491 10.7974 23.5584 11.0924L19.5037 15.2085C19.213 15.5036 18.7381 15.5071 18.443 15.2164C18.3268 15.1019 18.2075 14.9853 18.0861 14.8667C17.5692 14.3613 17.0159 13.8204 16.5134 13.2617C16.2285 12.9449 16.1906 12.5866 16.1863 12.3552C16.1847 12.2694 16.1879 12.1744 16.1905 12.101C16.1937 12.0047 16.1967 11.9083 16.1908 11.8121C16.181 11.6538 16.147 11.4275 15.9508 11.1148L5.65165 21.414C5.11317 21.9525 4.38284 22.255 3.62132 22.255C2.8598 22.255 2.12947 21.9525 1.59099 21.414C1.05251 20.8755 0.75 20.1452 0.75 19.3836C0.75 18.6221 1.05251 17.8918 1.59099 17.3533L11.4338 7.51064ZM20.5756 9.23165L20.6856 9.33765C21.1458 9.78133 21.5089 10.1314 21.9626 10.575L18.96 13.623C18.521 13.1931 18.0884 12.7648 17.6859 12.3219C17.6848 12.2473 17.689 12.1727 17.6914 12.0982C17.6945 11.9954 17.6969 11.8654 17.688 11.7199C17.6483 11.0761 17.397 10.336 16.5304 9.46943C16.2208 9.15987 15.6964 9.18765 15.4199 9.52445L4.59099 20.3533C4.33382 20.6105 3.98502 20.755 3.62132 20.755C3.25762 20.755 2.90882 20.6105 2.65165 20.3533C2.39448 20.0961 2.25 19.7473 2.25 19.3836C2.25 19.02 2.39448 18.6712 2.65165 18.414L13.0353 8.03049C13.3185 7.74726 13.3157 7.26229 13.0374 6.97654C11.8249 5.73128 10.7355 5.04119 9.59683 4.60476C9.16311 4.43852 8.72315 4.31034 8.27573 4.20134C11.7458 3.0324 15.3494 4.71855 18.3947 7.16926C18.4109 7.29911 18.4077 7.43167 18.4087 7.56225C18.4099 7.72585 18.4117 7.95516 18.4464 8.17094C18.4808 8.38481 18.5655 8.71461 18.8356 8.9719C19.1212 9.24395 19.4852 9.27699 19.6648 9.28394C19.857 9.29138 20.0647 9.2713 20.2136 9.2569C20.3337 9.24532 20.4548 9.2307 20.5756 9.23165Z" fill="black"/>
</svg>
