<svg viewBox="0 0 16 16" width="16" height="16" fill="black" xmlns="http://www.w3.org/2000/svg">
 <g transform="translate(0.4122314453125, 1.23046875)">
  <path d="M6.37138 3.66046C5.85042 3.2851 5.39423 3.07886 4.94658 2.9479C4.43065 2.79696 3.91967 2.7406 3.26331 2.6682C3.11878 2.65226 2.96721 2.63554 2.80698 2.61687C2.52576 2.58409 2.29198 2.38514 2.21464 2.11279C2.13731 1.84044 2.23164 1.54832 2.45366 1.37264C5.67355 -1.17523 9.38716 0.274159 12.0267 2.08798C12.0399 2.09703 12.0527 2.10653 12.0652 2.11645C12.3176 2.31663 12.4006 2.59317 12.4345 2.73937C12.4648 2.86991 12.4792 3.00957 12.4884 3.1112C12.5826 3.09527 12.7021 3.07796 12.819 3.07463C12.9591 3.07063 13.2608 3.07792 13.5204 3.29034L13.6682 3.4113C14.1174 3.7788 14.4412 4.04377 14.9776 4.49238C15.2742 4.7404 15.3136 5.18187 15.0655 5.47842L12.5944 8.43317C12.3464 8.72973 11.905 8.76908 11.6084 8.52106C11.5265 8.45257 11.4421 8.3825 11.3559 8.31101L11.3548 8.31008C10.9836 8.0021 10.5806 7.66765 10.2112 7.31877C9.95288 7.07469 9.90029 6.78029 9.88308 6.60882C9.87131 6.49162 9.87448 6.37287 9.85769 6.2562C9.85293 6.2232 9.84566 6.17961 9.82592 6.12482L3.72581 13.3087C3.36287 13.7361 2.845 14.0019 2.28613 14.0474C1.72726 14.093 1.17318 13.9148 0.745757 13.5518C0.318338 13.1889 0.052601 12.671 0.00700632 12.1121C-0.0385884 11.5533 0.139694 10.9992 0.502632 10.5718L6.37138 3.66046ZM5.33967 1.60422C5.27577 1.58552 5.21176 1.56798 5.14764 1.55147C7.08886 1.05732 9.18579 1.86693 11.0841 3.14016C11.0905 3.19496 11.0952 3.24996 11.1001 3.30491C11.1096 3.41157 11.1243 3.57708 11.1628 3.73373C11.201 3.8894 11.2892 4.15541 11.5333 4.35268C11.7979 4.56648 12.1062 4.56486 12.2355 4.55933C12.3732 4.55344 12.5091 4.52955 12.6445 4.50523C12.6966 4.49592 12.7368 4.48906 12.7686 4.48417C13.0266 4.69521 13.2845 4.90626 13.5414 5.11864L11.9685 6.99936C11.7287 6.7988 11.4946 6.59903 11.2713 6.39307C11.2659 6.28071 11.2594 6.16818 11.2434 6.05675C11.1762 5.58954 10.951 5.08196 10.3294 4.53949C10.3159 4.52601 10.3018 4.51296 10.287 4.5004C10.1654 4.3972 10.0189 4.34269 9.87106 4.33494C9.65943 4.32287 9.44487 4.40669 9.29709 4.58072C9.28398 4.59617 9.27165 4.61202 9.2601 4.62822L2.65864 12.4025C2.53603 12.5469 2.36109 12.6367 2.17229 12.6521C1.9835 12.6675 1.79632 12.6073 1.65193 12.4847C1.50754 12.362 1.41777 12.1871 1.40237 11.9983C1.38697 11.8095 1.4472 11.6223 1.5698 11.4779L7.90641 4.01565C8.15665 3.72097 8.12061 3.27922 7.82592 3.02898C7.81411 3.01895 7.80206 3.00938 7.7898 3.00027C6.91374 2.24403 6.13867 1.83796 5.33967 1.60422Z" fill-rule="EVENODD"></path>
 </g>
</svg>