<svg width="16" height="16" viewBox="0 0 16 16" fill="none" xmlns="http://www.w3.org/2000/svg">
<path fill-rule="evenodd" clip-rule="evenodd" d="M6.78361 4.89093C6.26265 4.51556 5.80646 4.30933 5.35881 4.17836C4.84289 4.02743 4.3319 3.97107 3.67554 3.89867C3.53101 3.88273 3.37944 3.86601 3.21921 3.84734C2.93799 3.81456 2.70421 3.61561 2.62688 3.34326C2.54954 3.07091 2.64387 2.77879 2.86589 2.60311C6.08579 0.0552433 9.79939 1.50463 12.4389 3.31845C12.4521 3.3275 12.4649 3.337 12.4775 3.34692C12.7299 3.5471 12.8129 3.82364 12.8468 3.96984C12.8771 4.10037 12.8914 4.24004 12.9006 4.34167C12.9949 4.32574 13.1144 4.30843 13.2313 4.3051C13.3714 4.3011 13.673 4.30839 13.9326 4.52081L14.0804 4.64176C14.5296 5.00927 14.8535 5.27424 15.3899 5.72285C15.6864 5.97087 15.7258 6.41233 15.4778 6.70889L13.0067 9.66364C12.7586 9.9602 12.3172 9.99955 12.0206 9.75153C11.9387 9.68304 11.8543 9.61297 11.7681 9.54148L11.767 9.54055C11.3958 9.23256 10.9928 8.89812 10.6235 8.54924C10.3651 8.30516 10.3125 8.01075 10.2953 7.83929C10.2835 7.72209 10.2867 7.60334 10.2699 7.48667C10.2652 7.45367 10.2579 7.41008 10.2381 7.35529L4.13804 14.5392C3.7751 14.9666 3.25723 15.2323 2.69836 15.2779C2.1395 15.3235 1.58541 15.1452 1.15799 14.7823C0.73057 14.4193 0.464832 13.9015 0.419238 13.3426C0.373643 12.7837 0.551925 12.2297 0.914864 11.8022L6.78361 4.89093ZM5.75191 2.83468C5.68801 2.81599 5.62399 2.79845 5.55987 2.78194C7.5011 2.28779 9.59802 3.0974 11.4963 4.37063C11.5027 4.42543 11.5074 4.48043 11.5123 4.53538C11.5218 4.64204 11.5365 4.80755 11.575 4.9642C11.6133 5.11987 11.7014 5.38588 11.9455 5.58315C12.2101 5.79694 12.5185 5.79533 12.6477 5.7898C12.7854 5.78391 12.9214 5.76002 13.0568 5.7357C13.1088 5.72639 13.1491 5.71953 13.1809 5.71464C13.4388 5.92568 13.6967 6.13673 13.9536 6.34911L12.3807 8.22983C12.1409 8.02927 11.9069 7.8295 11.6835 7.62354C11.6781 7.51118 11.6717 7.39864 11.6556 7.28722C11.5884 6.82001 11.3632 6.31243 10.7416 5.76996C10.7281 5.75648 10.714 5.74343 10.6992 5.73087C10.5777 5.62767 10.4311 5.57316 10.2833 5.56541C10.0717 5.55334 9.8571 5.63716 9.70932 5.81119C9.69621 5.82664 9.68388 5.84249 9.67233 5.85869L3.07087 13.633C2.94826 13.7774 2.77332 13.8671 2.58453 13.8826C2.39573 13.898 2.20855 13.8377 2.06416 13.7151C1.91977 13.5925 1.83 13.4176 1.8146 13.2288C1.7992 13.04 1.85943 12.8528 1.98203 12.7084L8.31865 5.24612C8.56888 4.95143 8.53284 4.50969 8.23816 4.25945C8.22634 4.24942 8.21429 4.23985 8.20203 4.23074C7.32597 3.47449 6.5509 3.06843 5.75191 2.83468Z" fill="black"/>
</svg>
