<svg width="24" height="24" viewBox="0 0 24 24" fill="none" xmlns="http://www.w3.org/2000/svg">
<path fill-rule="evenodd" clip-rule="evenodd" d="M10.0828 2.25465C10.4945 2.3004 10.7912 2.67121 10.7454 3.08289L10.1713 8.25H14.6621L15.2546 2.91724C15.3003 2.50556 15.6711 2.20891 16.0828 2.25465C16.4945 2.3004 16.7912 2.67121 16.7454 3.08289L16.1713 8.25H20C20.4142 8.25 20.75 8.58579 20.75 9C20.75 9.41421 20.4142 9.75 20 9.75H16.0046L15.5046 14.25H20C20.4142 14.25 20.75 14.5858 20.75 15C20.75 15.4142 20.4142 15.75 20 15.75H15.338L14.7454 21.0829C14.6997 21.4946 14.3289 21.7912 13.9172 21.7455C13.5055 21.6997 13.2088 21.3289 13.2546 20.9172L13.8287 15.75H9.33796L8.74542 21.0829C8.69968 21.4946 8.32886 21.7912 7.91718 21.7455C7.5055 21.6997 7.20885 21.3289 7.25459 20.9172L7.82873 15.75H4C3.58579 15.75 3.25 15.4142 3.25 15C3.25 14.5858 3.58579 14.25 4 14.25H7.9954L8.4954 9.75H4C3.58579 9.75 3.25 9.41421 3.25 9C3.25 8.58579 3.58579 8.25 4 8.25H8.66206L9.25459 2.91724C9.30033 2.50556 9.67115 2.20891 10.0828 2.25465ZM13.9954 14.25L14.4954 9.75H10.0046L9.50463 14.25H13.9954Z" fill="black"/>
</svg>
