<svg width="16" height="16" viewBox="0 0 16 16" fill="none" xmlns="http://www.w3.org/2000/svg">
<path fill-rule="evenodd" clip-rule="evenodd" d="M7.09303 1.25587C7.50404 1.30725 7.79559 1.68209 7.74421 2.09311L7.3496 5.25H9.33793L9.75579 1.90705C9.80717 1.49604 10.182 1.20449 10.593 1.25587C11.004 1.30725 11.2956 1.68209 11.2442 2.09311L10.8496 5.25H13C13.4142 5.25 13.75 5.58579 13.75 6C13.75 6.41421 13.4142 6.75 13 6.75H10.6621L10.3496 9.25H13C13.4142 9.25 13.75 9.58579 13.75 10C13.75 10.4142 13.4142 10.75 13 10.75H10.1621L9.74421 14.0931C9.69283 14.5041 9.31799 14.7957 8.90698 14.7443C8.49596 14.6929 8.20442 14.3181 8.25579 13.9071L8.65043 10.75H6.6621L6.24421 14.0931C6.19283 14.5041 5.81799 14.7957 5.40698 14.7443C4.99596 14.6929 4.70442 14.3181 4.75579 13.9071L5.15043 10.75H3C2.58579 10.75 2.25 10.4142 2.25 10C2.25 9.58579 2.58579 9.25 3 9.25H5.33793L5.65043 6.75H3C2.58579 6.75 2.25 6.41421 2.25 6C2.25 5.58579 2.58579 5.25 3 5.25H5.83793L6.25579 1.90705C6.30717 1.49604 6.68201 1.20449 7.09303 1.25587ZM8.83793 9.25L9.15043 6.75H7.1621L6.8496 9.25H8.83793Z" fill="black"/>
</svg>
