<svg width="24" height="24" viewBox="0 0 24 24" fill="none" xmlns="http://www.w3.org/2000/svg">
<path fill-rule="evenodd" clip-rule="evenodd" d="M6.16637 6.16637C7.71354 4.61919 9.81196 3.75 12 3.75C14.188 3.75 16.2865 4.61919 17.8336 6.16637C19.3808 7.71354 20.25 9.81196 20.25 12V13.25H18C17.2707 13.25 16.5712 13.5397 16.0555 14.0555C15.5397 14.5712 15.25 15.2707 15.25 16V19C15.25 19.7293 15.5397 20.4288 16.0555 20.9445C16.5712 21.4603 17.2707 21.75 18 21.75H19C19.7293 21.75 20.4288 21.4603 20.9445 20.9445C21.4603 20.4288 21.75 19.7293 21.75 19V12C21.75 9.41414 20.7228 6.93419 18.8943 5.10571C17.0658 3.27723 14.5859 2.25 12 2.25C9.41414 2.25 6.93419 3.27723 5.10571 5.10571C3.27723 6.93419 2.25 9.41414 2.25 12V19C2.25 19.7293 2.53973 20.4288 3.05546 20.9445C3.57118 21.4603 4.27065 21.75 5 21.75H6C6.72935 21.75 7.42882 21.4603 7.94454 20.9445C8.46027 20.4288 8.75 19.7293 8.75 19V16C8.75 15.2707 8.46027 14.5712 7.94454 14.0555C7.42882 13.5397 6.72935 13.25 6 13.25H3.75V12C3.75 9.81196 4.61919 7.71354 6.16637 6.16637ZM3.75 14.75V19C3.75 19.3315 3.8817 19.6495 4.11612 19.8839C4.35054 20.1183 4.66848 20.25 5 20.25H6C6.33152 20.25 6.64946 20.1183 6.88388 19.8839C7.1183 19.6495 7.25 19.3315 7.25 19V16C7.25 15.6685 7.1183 15.3505 6.88388 15.1161C6.64946 14.8817 6.33152 14.75 6 14.75H3.75ZM20.25 14.75H18C17.6685 14.75 17.3505 14.8817 17.1161 15.1161C16.8817 15.3505 16.75 15.6685 16.75 16V19C16.75 19.3315 16.8817 19.6495 17.1161 19.8839C17.3505 20.1183 17.6685 20.25 18 20.25H19C19.3315 20.25 19.6495 20.1183 19.8839 19.8839C20.1183 19.6495 20.25 19.3315 20.25 19V14.75Z" fill="black"/>
</svg>
