<svg viewbox="0 0 16 16" width="16" height="16" fill="black" xmlns="http://www.w3.org/2000/svg">
 <g transform="translate(1.25, 1.25)">
  <path d="M3.03769 3.03769C4.02226 2.05312 5.35761 1.5 6.75 1.5C8.14239 1.5 9.47774 2.05312 10.4623 3.03769C11.4469 4.02226 12 5.35761 12 6.75L12 7L10.75 7C10.1975 7 9.66756 7.21949 9.27686 7.61019C8.88616 8.00089 8.66667 8.5308 8.66667 9.08333L8.66667 11.4167C8.66667 11.9692 8.88616 12.4991 9.27686 12.8898C9.66756 13.2805 10.1975 13.5 10.75 13.5L11.4167 13.5C11.9692 13.5 12.4991 13.2805 12.8898 12.8898C13.2805 12.4991 13.5 11.9692 13.5 11.4167L13.5 6.75C13.5 4.95979 12.7888 3.2429 11.523 1.97703C10.2571 0.711159 8.54021 0 6.75 0C4.95979 0 3.2429 0.711159 1.97703 1.97703C0.711159 3.2429 0 4.95979 0 6.75L0 11.4167C0 11.9692 0.219493 12.4991 0.610194 12.8898C1.00089 13.2805 1.5308 13.5 2.08333 13.5L2.75 13.5C3.30254 13.5 3.83244 13.2805 4.22314 12.8898C4.61384 12.4991 4.83333 11.9692 4.83333 11.4167L4.83333 9.08333C4.83333 8.5308 4.61384 8.00089 4.22314 7.61019C3.83244 7.21949 3.30253 7 2.75 7L1.5 7L1.5 6.75C1.5 5.35761 2.05312 4.02226 3.03769 3.03769ZM1.5 8.5L1.5 11.4167C1.5 11.5714 1.56146 11.7197 1.67085 11.8291C1.78025 11.9385 1.92862 12 2.08333 12L2.75 12C2.90471 12 3.05308 11.9385 3.16248 11.8291C3.27188 11.7197 3.33333 11.5714 3.33333 11.4167L3.33333 9.08333C3.33333 8.92862 3.27188 8.78025 3.16248 8.67085C3.05308 8.56146 2.90471 8.5 2.75 8.5L1.5 8.5ZM12 8.5L10.75 8.5C10.5953 8.5 10.4469 8.56146 10.3375 8.67085C10.2281 8.78025 10.1667 8.92863 10.1667 9.08333L10.1667 11.4167C10.1667 11.5714 10.2281 11.7197 10.3375 11.8291C10.4469 11.9385 10.5953 12 10.75 12L11.4167 12C11.5714 12 11.7197 11.9385 11.8291 11.8291C11.9385 11.7197 12 11.5714 12 11.4167L12 8.5Z" fill-rule="EVENODD"></path>
 </g>
</svg>