<svg viewBox="0 0 24 24" width="24" height="24" fill="black" xmlns="http://www.w3.org/2000/svg">
 <g transform="translate(0.7987092733383179, 2.2481744289398193)">
  <path d="M13.7588 0.476034C14.5173 0.161758 15.3303 0 16.1513 0C16.9723 0 17.7853 0.161758 18.5437 0.476034C19.3022 0.790309 19.9913 1.25094 20.5717 1.83162C21.1523 2.41197 21.6129 3.10101 21.9271 3.85938C22.2414 4.61785 22.4031 5.43082 22.4031 6.25183C22.4031 7.07283 22.2414 7.8858 21.9271 8.64427C21.6128 9.40269 21.1522 10.0918 20.5716 10.6722C20.5717 10.6721 20.5716 10.6722 20.5716 10.6722L11.7316 19.5122C11.4387 19.805 10.9639 19.805 10.671 19.5122L1.83096 10.6722C0.658616 9.49981 0 7.90977 0 6.25183C0 4.59388 0.658616 3.00384 1.83096 1.8315C3.00331 0.659151 4.59335 0.000534773 6.25129 0.000534773C7.90924 0.000534773 9.49928 0.659151 10.6716 1.8315L11.2013 2.36117L11.7308 1.83162C12.3112 1.25094 13.0004 0.790309 13.7588 0.476034ZM19.5108 2.89203C19.0697 2.45072 18.546 2.10063 17.9696 1.86179C17.3931 1.62294 16.7753 1.5 16.1513 1.5C15.5273 1.5 14.9095 1.62294 14.333 1.86179C13.7566 2.10063 13.2329 2.45072 12.7917 2.89203L11.7316 3.95216C11.4387 4.24505 10.9639 4.24505 10.671 3.95216L9.61096 2.89216C8.71992 2.00112 7.51141 1.50053 6.25129 1.50053C4.99117 1.50053 3.78266 2.00112 2.89162 2.89216C2.00058 3.7832 1.5 4.9917 1.5 6.25183C1.5 7.51195 2.00058 8.72046 2.89162 9.6115L11.2013 17.9212L19.511 9.6115C19.9523 9.17039 20.3025 8.64653 20.5413 8.07009C20.7802 7.49364 20.9031 6.87579 20.9031 6.25183C20.9031 5.62786 20.7802 5.01001 20.5413 4.43356C20.3025 3.85712 19.9521 3.33314 19.5108 2.89203Z" fill-rule="EVENODD"></path>
 </g>
</svg>