<svg viewbox="0 0 16 16" width="16" height="16" fill="black" xmlns="http://www.w3.org/2000/svg">
 <g transform="translate(0.25, 1.248779296875)">
  <path d="M9.36795 0.337691C9.906 0.114749 10.4827 0 11.0651 0C11.6475 0 12.2242 0.114749 12.7623 0.337691C13.3002 0.560589 13.789 0.887269 14.2007 1.29908C14.6125 1.71076 14.9394 2.19977 15.1623 2.73771C15.3853 3.27577 15.5 3.85247 15.5 4.43488C15.5 5.0173 15.3853 5.594 15.1623 6.13205C14.9394 6.6701 14.6126 7.15896 14.2007 7.57069L14.1912 7.58012L8.27051 13.291C7.97995 13.5713 7.51969 13.5713 7.22914 13.291L1.29876 7.57065C0.467121 6.73902 0 5.61099 0 4.43488C0 3.25877 0.467208 2.13084 1.29884 1.2992C2.13048 0.467566 3.25842 0.000358164 4.43453 0.000358164C5.61063 0.000358164 6.73857 0.467566 7.57021 1.2992L7.74982 1.47881L7.92931 1.29933C7.92927 1.29937 7.92935 1.29928 7.92931 1.29933C8.34101 0.88746 8.82995 0.560612 9.36795 0.337691ZM11.0651 1.5C10.6797 1.5 10.2982 1.57593 9.94213 1.72344C9.58612 1.87096 9.26265 2.08717 8.99022 2.35974L8.28015 3.0698C7.98726 3.3627 7.51238 3.3627 7.21949 3.0698L6.50955 2.35986C5.95922 1.80953 5.21281 1.50036 4.43453 1.50036C3.65624 1.50036 2.90983 1.80953 2.3595 2.35986C1.80917 2.91019 1.5 3.6566 1.5 4.43488C1.5 5.21105 1.80749 5.9555 2.35501 6.5054L7.74982 11.7092L13.1447 6.50534C13.4152 6.23384 13.6298 5.91195 13.7766 5.55787C13.9241 5.20185 14 4.82025 14 4.43488C14 4.04951 13.9241 3.66792 13.7766 3.3119C13.629 2.95588 13.4128 2.63242 13.1403 2.35999C12.8678 2.08742 12.5441 1.87096 12.1881 1.72344C11.8321 1.57593 11.4505 1.5 11.0651 1.5Z" fill-rule="EVENODD"></path>
 </g>
</svg>