<svg width="16" height="16" viewBox="0 0 16 16" fill="none" xmlns="http://www.w3.org/2000/svg">
<path fill-rule="evenodd" clip-rule="evenodd" d="M9.61795 1.58647C10.156 1.36353 10.7327 1.24878 11.3151 1.24878C11.8975 1.24878 12.4742 1.36353 13.0123 1.58647C13.5502 1.80937 14.039 2.13605 14.4507 2.54786C14.8625 2.95953 15.1894 3.44855 15.4123 3.98649C15.6353 4.52455 15.75 5.10125 15.75 5.68366C15.75 6.26608 15.6353 6.84278 15.4123 7.38083C15.1894 7.91888 14.8626 8.40774 14.4507 8.81947L14.4412 8.8289L8.52051 14.5398C8.22995 14.8201 7.76969 14.8201 7.47914 14.5398L1.54876 8.81943C0.717121 7.9878 0.25 6.85977 0.25 5.68366C0.25 4.50755 0.717208 3.37961 1.54884 2.54798C2.38048 1.71635 3.50842 1.24914 4.68453 1.24914C5.86063 1.24914 6.98857 1.71635 7.82021 2.54798L7.99982 2.72759L8.17931 2.5481C8.17927 2.54815 8.17935 2.54806 8.17931 2.5481C8.59101 2.13624 9.07995 1.80939 9.61795 1.58647ZM11.3151 2.74878C10.9297 2.74878 10.5482 2.82471 10.1921 2.97222C9.83612 3.11974 9.51265 3.33595 9.24022 3.60852L8.53015 4.31858C8.23726 4.61148 7.76238 4.61148 7.46949 4.31858L6.75955 3.60864C6.20922 3.05831 5.46281 2.74914 4.68453 2.74914C3.90624 2.74914 3.15983 3.05831 2.6095 3.60864C2.05917 4.15897 1.75 4.90538 1.75 5.68366C1.75 6.45983 2.05749 7.20428 2.60501 7.75418L7.99982 12.958L13.3947 7.75412C13.6652 7.48261 13.8798 7.16073 14.0266 6.80664C14.1741 6.45063 14.25 6.06903 14.25 5.68366C14.25 5.29829 14.1741 4.9167 14.0266 4.56068C13.879 4.20466 13.6628 3.8812 13.3903 3.60876C13.1178 3.3362 12.7941 3.11974 12.4381 2.97222C12.0821 2.82471 11.7005 2.74878 11.3151 2.74878Z" fill="black"/>
</svg>
