<svg width="24" height="24" viewBox="0 0 24 24" fill="none" xmlns="http://www.w3.org/2000/svg">
<path fill-rule="evenodd" clip-rule="evenodd" d="M14.5575 2.72432C15.316 2.41005 16.129 2.24829 16.95 2.24829C17.771 2.24829 18.584 2.41005 19.3424 2.72432C20.1009 3.0386 20.79 3.49923 21.3705 4.07991C21.951 4.66026 22.4116 5.3493 22.7258 6.10767C23.0401 6.86614 23.2018 7.67911 23.2018 8.50012C23.2018 9.32113 23.0401 10.1341 22.7258 10.8926C22.4115 11.651 21.9509 12.3401 21.3703 12.9204C21.3704 12.9204 21.3703 12.9205 21.3703 12.9204L12.5303 21.7604C12.2374 22.0533 11.7626 22.0533 11.4697 21.7604L2.62967 12.9204C1.45732 11.7481 0.798706 10.1581 0.798706 8.50012C0.798706 6.84217 1.45732 5.25213 2.62967 4.07979C3.80201 2.90744 5.39205 2.24883 7.05 2.24883C8.70794 2.24883 10.298 2.90744 11.4703 4.07979L12 4.60946L12.5295 4.07991C13.1099 3.49923 13.7991 3.0386 14.5575 2.72432ZM20.3095 5.14032C19.8684 4.69901 19.3447 4.34893 18.7683 4.11008C18.1918 3.87123 17.574 3.74829 16.95 3.74829C16.326 3.74829 15.7082 3.87123 15.1317 4.11008C14.5553 4.34893 14.0316 4.69901 13.5905 5.14032L12.5303 6.20045C12.2374 6.49334 11.7626 6.49334 11.4697 6.20045L10.4097 5.14045C9.51863 4.24941 8.31012 3.74883 7.05 3.74883C5.78988 3.74883 4.58137 4.24941 3.69033 5.14045C2.79929 6.03149 2.29871 7.24 2.29871 8.50012C2.29871 9.76024 2.79929 10.9687 3.69033 11.8598L12 20.1695L20.3097 11.8598C20.751 11.4187 21.1012 10.8948 21.34 10.3184C21.5789 9.74194 21.7018 9.12408 21.7018 8.50012C21.7018 7.87615 21.5789 7.2583 21.34 6.68186C21.1012 6.10541 20.7509 5.58143 20.3095 5.14032Z" fill="black"/>
</svg>
