<svg width="24" height="24" viewBox="0 0 24 24" fill="none" xmlns="http://www.w3.org/2000/svg">
<path d="M12.2793 7.9012C11.7847 7.81636 11.276 7.90931 10.8433 8.16358C10.4107 8.41786 10.082 8.81704 9.91544 9.29045C9.75508 9.74631 9.25552 9.98586 8.79966 9.8255C8.34379 9.66514 8.10424 9.16559 8.2646 8.70972C8.56828 7.84646 9.16768 7.11852 9.95663 6.65485C10.7456 6.19118 11.6732 6.02168 12.5751 6.17639C13.4771 6.3311 14.2952 6.80002 14.8845 7.50011C15.4737 8.20004 15.7962 9.08587 15.795 10.0008C15.7947 11.4649 14.7081 12.443 13.9054 12.9781C13.4773 13.2635 13.0555 13.4738 12.7441 13.6122C12.565 13.6918 12.3838 13.7674 12.1978 13.8298L12.1967 13.8302C11.7383 13.983 11.2427 13.7352 11.0899 13.2768C10.9373 12.8189 11.1843 12.324 11.6416 12.1706L11.6429 12.1701L11.6606 12.1639C11.7093 12.1466 11.847 12.0958 12.0334 12.013C12.2845 11.9014 12.6127 11.7367 12.9347 11.522C13.6318 11.0573 14.045 10.5356 14.045 10.0001L14.045 9.99878C14.0458 9.49694 13.8689 9.01103 13.5457 8.62711C13.2225 8.24319 12.7739 7.98604 12.2793 7.9012Z" fill="black"/>
<path d="M12 16C11.4477 16 11 16.4477 11 17C11 17.5523 11.4477 18 12 18H12.01C12.5623 18 13.01 17.5523 13.01 17C13.01 16.4477 12.5623 16 12.01 16H12Z" fill="black"/>
<path fill-rule="evenodd" clip-rule="evenodd" d="M1.25 12C1.25 6.06294 6.06294 1.25 12 1.25C17.9371 1.25 22.75 6.06294 22.75 12C22.75 17.9371 17.9371 22.75 12 22.75C6.06294 22.75 1.25 17.9371 1.25 12ZM12 2.75C6.89137 2.75 2.75 6.89137 2.75 12C2.75 17.1086 6.89137 21.25 12 21.25C17.1086 21.25 21.25 17.1086 21.25 12C21.25 6.89137 17.1086 2.75 12 2.75Z" fill="black"/>
</svg>
