<svg width="16" height="16" viewBox="0 0 16 16" fill="none" xmlns="http://www.w3.org/2000/svg">
<path d="M8 2.75C10.8995 2.75 13.25 5.10051 13.25 8C13.25 10.8995 10.8995 13.25 8 13.25C5.1005 13.25 2.75 10.8995 2.75 8C2.75 7.58579 2.41421 7.25 2 7.25C1.58579 7.25 1.25 7.58579 1.25 8C1.25 11.7279 4.27208 14.75 8 14.75C11.7279 14.75 14.75 11.7279 14.75 8C14.75 4.27208 11.7279 1.25 8 1.25C6.1478 1.25 4.46887 1.99693 3.25 3.20417V2C3.25 1.58579 2.91421 1.25 2.5 1.25C2.08579 1.25 1.75 1.58579 1.75 2V5C1.75 5.41421 2.08579 5.75 2.5 5.75H5.5C5.91421 5.75 6.25 5.41421 6.25 5C6.25 4.58579 5.91421 4.25 5.5 4.25H4.32576C5.27341 3.3213 6.56941 2.75 8 2.75Z" fill="black"/>
<path d="M8 4.25C8.41421 4.25 8.75 4.58579 8.75 5V8.03647L10.3354 8.82918C10.7059 9.01442 10.8561 9.46493 10.6708 9.83541C10.4856 10.2059 10.0351 10.3561 9.66459 10.1708L7.66459 9.17082C7.4105 9.04378 7.25 8.78408 7.25 8.5V5C7.25 4.58579 7.58579 4.25 8 4.25Z" fill="black"/>
</svg>
