<svg width="16" height="16" viewBox="0 0 16 16" fill="none" xmlns="http://www.w3.org/2000/svg">
<path d="M7.83995 2.1097C7.93267 2.03244 8.06733 2.03244 8.16005 2.1097L13.16 6.27636C13.217 6.32386 13.25 6.39423 13.25 6.46842V14C13.25 14.4143 13.5858 14.75 14 14.75C14.4142 14.75 14.75 14.4143 14.75 14V6.46842C14.75 5.94906 14.5193 5.45652 14.1203 5.12403L9.12032 0.95737C8.47134 0.416553 7.52866 0.416554 6.87968 0.95737L1.87968 5.12403C1.48069 5.45652 1.25 5.94906 1.25 6.46842V14C1.25 14.4143 1.58579 14.75 2 14.75C2.41421 14.75 2.75 14.4143 2.75 14V6.46842C2.75 6.39423 2.78296 6.32386 2.83995 6.27637L7.83995 2.1097Z" fill="black"/>
<path d="M6.75 10C6.75 9.86193 6.86193 9.75 7 9.75H9C9.13807 9.75 9.25 9.86193 9.25 10V14C9.25 14.4142 9.58579 14.75 10 14.75C10.4142 14.75 10.75 14.4142 10.75 14V10C10.75 9.0335 9.9665 8.25 9 8.25H7C6.0335 8.25 5.25 9.0335 5.25 10V14C5.25 14.4142 5.58579 14.75 6 14.75C6.41421 14.75 6.75 14.4142 6.75 14V10Z" fill="black"/>
</svg>
