<svg viewBox="0 0 16 16" width="16" height="16" fill="black" xmlns="http://www.w3.org/2000/svg">
 <g transform="translate(1.25, 0.5517578125)">
  <path d="M6.58995 1.55794C6.68267 1.48068 6.81733 1.48069 6.91005 1.55794L11.91 5.72461C11.967 5.77211 12 5.84247 12 5.91666L12 13.4483C12 13.8625 12.3358 14.1983 12.75 14.1983C13.1642 14.1983 13.5 13.8625 13.5 13.4483L13.5 5.91666C13.5 5.3973 13.2693 4.90476 12.8703 4.57227L7.87032 0.405612C7.22134 -0.135204 6.27866 -0.135204 5.62968 0.405612L0.629678 4.57228C0.23069 4.90476 0 5.3973 0 5.91666L0 13.4483C0 13.8625 0.335786 14.1983 0.75 14.1983C1.16421 14.1983 1.5 13.8625 1.5 13.4483L1.5 5.91666C1.5 5.84247 1.53296 5.77211 1.58995 5.72461L6.58995 1.55794Z" fill-rule="NONZERO"></path>
  <path d="M5.5 9.44824C5.5 9.31017 5.61193 9.19824 5.75 9.19824L7.75 9.19824C7.88807 9.19824 8 9.31017 8 9.44824L8 13.4482C8 13.8625 8.33579 14.1982 8.75 14.1982C9.16421 14.1982 9.5 13.8625 9.5 13.4482L9.5 9.44824C9.5 8.48174 8.7165 7.69824 7.75 7.69824L5.75 7.69824C4.7835 7.69824 4 8.48174 4 9.44824L4 13.4482C4 13.8625 4.33579 14.1982 4.75 14.1982C5.16421 14.1982 5.5 13.8625 5.5 13.4482L5.5 9.44824Z" fill-rule="NONZERO"></path>
 </g>
</svg>