<svg width="24" height="24" viewBox="0 0 24 24" fill="none" xmlns="http://www.w3.org/2000/svg">
<path d="M11.8465 3.06951C11.9368 2.99929 12.0632 2.99929 12.1535 3.06951L20.1535 9.29173C20.2144 9.33909 20.25 9.41192 20.25 9.48907V21C20.25 21.4142 20.5858 21.75 21 21.75C21.4142 21.75 21.75 21.4142 21.75 21V9.48907C21.75 8.94903 21.5007 8.43925 21.0744 8.1077L13.0744 1.88548C12.4425 1.39397 11.5575 1.39397 10.9256 1.88548L2.9256 8.1077C2.49933 8.43925 2.25 8.94904 2.25 9.48907V21C2.25 21.4142 2.58579 21.75 3 21.75C3.41421 21.75 3.75 21.4142 3.75 21V9.48907C3.75 9.41192 3.78562 9.33909 3.84651 9.29173L11.8465 3.06951Z" fill="black"/>
<path d="M9.75 15C9.75 14.8619 9.86193 14.75 10 14.75H14C14.1381 14.75 14.25 14.8619 14.25 15V21C14.25 21.4142 14.5858 21.75 15 21.75C15.4142 21.75 15.75 21.4142 15.75 21V15C15.75 14.0335 14.9665 13.25 14 13.25H10C9.0335 13.25 8.25 14.0335 8.25 15V21C8.25 21.4142 8.58579 21.75 9 21.75C9.41421 21.75 9.75 21.4142 9.75 21V15Z" fill="black"/>
</svg>
