<svg width="16" height="16" viewBox="0 0 16 16" fill="none" xmlns="http://www.w3.org/2000/svg">
<path d="M5.875 12C5.875 11.6548 6.15482 11.375 6.5 11.375H9.5C9.84518 11.375 10.125 11.6548 10.125 12C10.125 12.3452 9.84518 12.625 9.5 12.625H6.5C6.15482 12.625 5.875 12.3452 5.875 12Z" fill="black"/>
<path d="M7.5 4.375C7.15482 4.375 6.875 4.65482 6.875 5C6.875 5.34518 7.15482 5.625 7.5 5.625H8.5C8.84518 5.625 9.125 5.34518 9.125 5C9.125 4.65482 8.84518 4.375 8.5 4.375H7.5Z" fill="black"/>
<path fill-rule="evenodd" clip-rule="evenodd" d="M2.93493 2.96115C2.39682 1.96181 3.12062 0.75 4.25563 0.75H11.7443C12.8793 0.75 13.6031 1.9618 13.065 2.96115L10.4156 7.88147C10.3758 7.95546 10.3758 8.04453 10.4156 8.11852L13.065 13.0389C13.6031 14.0382 12.8793 15.25 11.7443 15.25H4.25563C3.12062 15.25 2.39682 14.0382 2.93493 13.0389L5.58433 8.11852C5.62417 8.04453 5.62417 7.95546 5.58433 7.88147L2.93493 2.96115ZM4.25563 2.25L6.90504 7.17032C7.18394 7.68828 7.18394 8.31171 6.90504 8.82967L4.25563 13.75H11.7443L9.0949 8.82967C8.816 8.31171 8.816 7.68828 9.0949 7.17032L11.7443 2.25L4.25563 2.25Z" fill="black"/>
</svg>
