<svg viewbox="0 0 24 24" width="24" height="24" fill="black" xmlns="http://www.w3.org/2000/svg">
 <g transform="translate(4.54901123046875, 1.25)">
  <path d="M4.70099 17.75C4.70099 17.3358 5.03678 17 5.45099 17L9.45099 17C9.8652 17 10.201 17.3358 10.201 17.75C10.201 18.1642 9.8652 18.5 9.45099 18.5L5.45099 18.5C5.03678 18.5 4.70099 18.1642 4.70099 17.75Z" fill-rule="NONZERO"></path>
  <path d="M6.95099 6C6.53678 6 6.20099 6.33579 6.20099 6.75C6.20099 7.16421 6.53678 7.5 6.95099 7.5L7.95099 7.5C8.3652 7.5 8.70099 7.16421 8.70099 6.75C8.70099 6.33579 8.3652 6 7.95099 6L6.95099 6Z" fill-rule="NONZERO"></path>
  <path d="M0.381671 3.49808C-0.61516 2.00283 0.456717 0 2.25378 0L12.6482 0C14.4453 0 15.5172 2.00283 14.5203 3.49808L9.96308 10.334C9.79513 10.5859 9.79513 10.9141 9.96308 11.166L14.5203 18.0019C15.5172 19.4972 14.4453 21.5 12.6482 21.5L2.25378 21.5C0.456718 21.5 -0.615162 19.4972 0.38167 18.0019L4.93894 11.166C5.10689 10.9141 5.10689 10.5859 4.93894 10.334L0.381671 3.49808ZM2.25378 1.5C1.65476 1.5 1.29747 2.16761 1.62975 2.66603L6.18701 9.50192C6.69086 10.2577 6.69086 11.2423 6.18701 11.9981L1.62975 18.834C1.29747 19.3324 1.65476 20 2.25378 20L12.6482 20C13.2473 20 13.6045 19.3324 13.2723 18.834L8.715 11.9981C8.21115 11.2423 8.21115 10.2577 8.715 9.50192L13.2723 2.66603C13.6045 2.16761 13.2473 1.5 12.6482 1.5L2.25378 1.5Z" fill-rule="EVENODD"></path>
 </g>
</svg>