<svg width="16" height="16" viewBox="0 0 16 16" fill="none" xmlns="http://www.w3.org/2000/svg">
<path d="M5.04075 10.1087C5.43853 9.75515 5.96439 9.56665 6.50002 9.56665H9.50002C10.0357 9.56665 10.5615 9.75515 10.9593 10.1087C11.3594 10.4644 11.6 10.9629 11.6 11.5V12C11.6 12.3314 11.3314 12.6 11 12.6C10.6687 12.6 10.4 12.3314 10.4 12V11.5C10.4 11.3298 10.3246 11.1501 10.1621 11.0056C9.99724 10.8591 9.76004 10.7667 9.50002 10.7667H6.50002C6.24001 10.7667 6.00281 10.8591 5.83798 11.0056C5.67546 11.1501 5.60002 11.3298 5.60002 11.5V12C5.60002 12.3314 5.3314 12.6 5.00002 12.6C4.66865 12.6 4.40002 12.3314 4.40002 12V11.5C4.40002 10.9629 4.64066 10.4644 5.04075 10.1087Z" fill="black"/>
<path fill-rule="evenodd" clip-rule="evenodd" d="M8.00002 5.19995C6.84023 5.19995 5.90002 6.14015 5.90002 7.29995C5.90002 8.45975 6.84023 9.39995 8.00002 9.39995C9.15982 9.39995 10.1 8.45975 10.1 7.29995C10.1 6.14015 9.15982 5.19995 8.00002 5.19995ZM7.10002 7.29995C7.10002 6.80289 7.50297 6.39995 8.00002 6.39995C8.49708 6.39995 8.90002 6.80289 8.90002 7.29995C8.90002 7.79701 8.49708 8.19995 8.00002 8.19995C7.50297 8.19995 7.10002 7.79701 7.10002 7.29995Z" fill="black"/>
<path fill-rule="evenodd" clip-rule="evenodd" d="M5.50005 0.300049C4.83731 0.300049 4.30005 0.837307 4.30005 1.50005V2.25H2.5C1.25736 2.25 0.25 3.25736 0.25 4.5V12.5C0.25 13.7426 1.25736 14.75 2.5 14.75H13.5C14.7426 14.75 15.75 13.7426 15.75 12.5V4.5C15.75 3.25736 14.7426 2.25 13.5 2.25H11.7V1.50005C11.7 0.837307 11.1628 0.300049 10.5 0.300049H5.50005ZM11.674 3.75C11.559 4.29277 11.0771 4.70005 10.5 4.70005H5.50005C4.92302 4.70005 4.44112 4.29277 4.32612 3.75H2.5C2.08579 3.75 1.75 4.08579 1.75 4.5V12.5C1.75 12.9142 2.08579 13.25 2.5 13.25H13.5C13.9142 13.25 14.25 12.9142 14.25 12.5V4.5C14.25 4.08579 13.9142 3.75 13.5 3.75H11.674ZM5.70005 3.30005V1.70005H10.3V3.30005H5.70005Z" fill="black"/>
</svg>
