<svg width="24" height="24" viewBox="0 0 24 24" fill="none" xmlns="http://www.w3.org/2000/svg">
<path d="M8.05546 14.5555C8.57118 14.0397 9.27065 13.75 10 13.75H14C14.7293 13.75 15.4288 14.0397 15.9445 14.5555C16.4603 15.0712 16.75 15.7707 16.75 16.5V17.5C16.75 17.9142 16.4142 18.25 16 18.25C15.5858 18.25 15.25 17.9142 15.25 17.5V16.5C15.25 16.1685 15.1183 15.8505 14.8839 15.6161C14.6495 15.3817 14.3315 15.25 14 15.25H10C9.66848 15.25 9.35054 15.3817 9.11612 15.6161C8.8817 15.8505 8.75 16.1685 8.75 16.5V17.5C8.75 17.9142 8.41421 18.25 8 18.25C7.58579 18.25 7.25 17.9142 7.25 17.5V16.5C7.25 15.7707 7.53973 15.0712 8.05546 14.5555Z" fill="black"/>
<path fill-rule="evenodd" clip-rule="evenodd" d="M12 7.75C10.4812 7.75 9.25 8.98122 9.25 10.5C9.25 12.0188 10.4812 13.25 12 13.25C13.5188 13.25 14.75 12.0188 14.75 10.5C14.75 8.98122 13.5188 7.75 12 7.75ZM10.75 10.5C10.75 9.80964 11.3096 9.25 12 9.25C12.6904 9.25 13.25 9.80964 13.25 10.5C13.25 11.1904 12.6904 11.75 12 11.75C11.3096 11.75 10.75 11.1904 10.75 10.5Z" fill="black"/>
<path fill-rule="evenodd" clip-rule="evenodd" d="M7.25 3.25V3C7.25 2.0335 8.0335 1.25 9 1.25H15C15.9665 1.25 16.75 2.0335 16.75 3V3.25H20C20.7293 3.25 21.4288 3.53973 21.9445 4.05546C22.4603 4.57118 22.75 5.27065 22.75 6V18C22.75 18.7293 22.4603 19.4288 21.9445 19.9445C21.4288 20.4603 20.7293 20.75 20 20.75H4C3.27065 20.75 2.57118 20.4603 2.05546 19.9445C1.53973 19.4288 1.25 18.7293 1.25 18V6C1.25 5.27065 1.53973 4.57118 2.05546 4.05546C2.57118 3.53973 3.27065 3.25 4 3.25H7.25ZM8.75 3C8.75 2.86193 8.86193 2.75 9 2.75H15C15.1381 2.75 15.25 2.86193 15.25 3V5C15.25 5.13807 15.1381 5.25 15 5.25H9C8.86193 5.25 8.75 5.13807 8.75 5V3ZM16.75 4.75H20C20.3315 4.75 20.6495 4.8817 20.8839 5.11612C21.1183 5.35054 21.25 5.66848 21.25 6V18C21.25 18.3315 21.1183 18.6495 20.8839 18.8839C20.6495 19.1183 20.3315 19.25 20 19.25H4C3.66848 19.25 3.35054 19.1183 3.11612 18.8839C2.8817 18.6495 2.75 18.3315 2.75 18V6C2.75 5.66848 2.8817 5.35054 3.11612 5.11612C3.35054 4.8817 3.66848 4.75 4 4.75H7.25V5C7.25 5.9665 8.0335 6.75 9 6.75H15C15.9665 6.75 16.75 5.9665 16.75 5V4.75Z" fill="black"/>
</svg>
