<svg width="24" height="24" viewBox="0 0 24 24" fill="none" xmlns="http://www.w3.org/2000/svg">
<path fill-rule="evenodd" clip-rule="evenodd" d="M12 18.3281C11.9648 18.3281 11.9296 18.3278 11.8945 18.3271C11.8839 18.3278 11.8732 18.3281 11.8625 18.3281C11.8421 18.3281 11.8218 18.3269 11.8017 18.3245C8.95094 18.2202 6.67188 15.8763 6.67188 13C6.67188 10.0574 9.05736 7.67188 12 7.67188C14.9426 7.67188 17.3281 10.0574 17.3281 13C17.3281 15.9426 14.9426 18.3281 12 18.3281ZM7.73374 12.4844C7.93408 10.8092 9.0982 9.43017 10.6557 8.91759C9.97331 9.9879 9.55717 11.2114 9.44872 12.4844H7.73374ZM14.2763 12.4844C14.1646 11.1732 13.7265 9.91465 13.0072 8.82183C14.7319 9.2361 16.0517 10.6904 16.2663 12.4844H14.2763ZM11.8625 8.99009C12.6383 10.0031 13.116 11.2136 13.2407 12.4844H10.4843C10.609 11.2136 11.0867 10.0031 11.8625 8.99009ZM13.2407 13.5156H10.4843C10.609 14.7863 11.0867 15.9968 11.8625 17.0099C12.6383 15.9968 13.116 14.7863 13.2407 13.5156ZM7.73374 13.5156H9.44872C9.55718 14.7887 9.97334 16.0121 10.6558 17.0824C9.09822 16.5699 7.93408 15.1908 7.73374 13.5156ZM14.2763 13.5156C14.1646 14.8268 13.7265 16.0854 13.0072 17.1782C14.7319 16.7639 16.0517 15.3096 16.2663 13.5156H14.2763Z" fill="black"/>
<path fill-rule="evenodd" clip-rule="evenodd" d="M7.25 3V3.25H4C3.27065 3.25 2.57118 3.53973 2.05546 4.05546C1.53973 4.57118 1.25 5.27065 1.25 6V18C1.25 18.7293 1.53973 19.4288 2.05546 19.9445C2.57118 20.4603 3.27065 20.75 4 20.75H20C20.7293 20.75 21.4288 20.4603 21.9445 19.9445C22.4603 19.4288 22.75 18.7293 22.75 18V6C22.75 5.27065 22.4603 4.57118 21.9445 4.05546C21.4288 3.53973 20.7293 3.25 20 3.25H16.75V3C16.75 2.0335 15.9665 1.25 15 1.25H9C8.0335 1.25 7.25 2.0335 7.25 3ZM9 2.75C8.86193 2.75 8.75 2.86193 8.75 3V5C8.75 5.13807 8.86193 5.25 9 5.25H15C15.1381 5.25 15.25 5.13807 15.25 5V3C15.25 2.86193 15.1381 2.75 15 2.75H9ZM20 4.75H16.75V5C16.75 5.9665 15.9665 6.75 15 6.75H9C8.0335 6.75 7.25 5.9665 7.25 5V4.75H4C3.66848 4.75 3.35054 4.8817 3.11612 5.11612C2.8817 5.35054 2.75 5.66848 2.75 6V18C2.75 18.3315 2.8817 18.6495 3.11612 18.8839C3.35054 19.1183 3.66848 19.25 4 19.25H20C20.3315 19.25 20.6495 19.1183 20.8839 18.8839C21.1183 18.6495 21.25 18.3315 21.25 18V6C21.25 5.66848 21.1183 5.35054 20.8839 5.11612C20.6495 4.8817 20.3315 4.75 20 4.75Z" fill="black"/>
</svg>
