<svg viewBox="0 0 16 16" width="16" height="16" fill="black" xmlns="http://www.w3.org/2000/svg">
 <g transform="translate(0.25, 0.300048828125)">
  <path d="M4.79075 9.80868C5.18853 9.4551 5.71439 9.2666 6.25002 9.2666L9.25002 9.2666C9.78566 9.2666 10.3115 9.4551 10.7093 9.80868C11.1094 10.1643 11.35 10.6628 11.35 11.1999L11.35 11.6999C11.35 12.0313 11.0814 12.2999 10.75 12.2999C10.4187 12.2999 10.15 12.0313 10.15 11.6999L10.15 11.1999C10.15 11.0298 10.0746 10.85 9.91207 10.7056C9.74724 10.5591 9.51004 10.4666 9.25002 10.4666L6.25002 10.4666C5.99001 10.4666 5.75281 10.5591 5.58798 10.7056C5.42546 10.85 5.35002 11.0298 5.35002 11.1999L5.35002 11.6999C5.35002 12.0313 5.0814 12.2999 4.75002 12.2999C4.41865 12.2999 4.15002 12.0313 4.15002 11.6999L4.15002 11.1999C4.15002 10.6628 4.39066 10.1643 4.79075 9.80868Z" fill-rule="NONZERO"></path>
  <path d="M7.75002 4.8999C6.59023 4.8999 5.65002 5.8401 5.65002 6.9999C5.65002 8.1597 6.59023 9.0999 7.75002 9.0999C8.90982 9.0999 9.85002 8.1597 9.85002 6.9999C9.85002 5.8401 8.90982 4.8999 7.75002 4.8999ZM6.85002 6.9999C6.85002 6.50285 7.25297 6.0999 7.75002 6.0999C8.24708 6.0999 8.65002 6.50285 8.65002 6.9999C8.65002 7.49696 8.24708 7.8999 7.75002 7.8999C7.25297 7.8999 6.85002 7.49696 6.85002 6.9999Z" fill-rule="EVENODD"></path>
  <path d="M5.25005 0C4.58731 0 4.05005 0.537258 4.05005 1.2L4.05005 1.94995L2.25 1.94995C1.00736 1.94995 0 2.95731 0 4.19995L0 12.2C0 13.4426 1.00736 14.45 2.25 14.45L13.25 14.45C14.4926 14.45 15.5 13.4426 15.5 12.2L15.5 4.19995C15.5 2.95731 14.4926 1.94995 13.25 1.94995L11.45 1.94995L11.45 1.2C11.45 0.537259 10.9128 0 10.25 0L5.25005 0ZM11.424 3.44995C11.309 3.99272 10.8271 4.4 10.25 4.4L5.25005 4.4C4.67302 4.4 4.19112 3.99272 4.07612 3.44995L2.25 3.44995C1.83579 3.44995 1.5 3.78574 1.5 4.19995L1.5 12.2C1.5 12.6142 1.83579 12.95 2.25 12.95L13.25 12.95C13.6642 12.95 14 12.6142 14 12.2L14 4.19995C14 3.78574 13.6642 3.44995 13.25 3.44995L11.424 3.44995ZM5.45005 3L5.45005 1.4L10.05 1.4L10.05 3L5.45005 3Z" fill-rule="EVENODD"></path>
 </g>
</svg>