<svg width="24" height="24" viewBox="0 0 24 24" fill="none" xmlns="http://www.w3.org/2000/svg">
<path fill-rule="evenodd" clip-rule="evenodd" d="M6.375 8.5C6.375 7.3264 7.3264 6.375 8.5 6.375C9.6736 6.375 10.625 7.3264 10.625 8.5C10.625 9.6736 9.6736 10.625 8.5 10.625C7.3264 10.625 6.375 9.6736 6.375 8.5ZM8.5 7.625C8.01675 7.625 7.625 8.01675 7.625 8.5C7.625 8.98325 8.01675 9.375 8.5 9.375C8.98325 9.375 9.375 8.98325 9.375 8.5C9.375 8.01675 8.98325 7.625 8.5 7.625Z" fill="black"/>
<path fill-rule="evenodd" clip-rule="evenodd" d="M2.25 5C2.25 3.48122 3.48122 2.25 5 2.25H19C20.5188 2.25 21.75 3.48122 21.75 5V19C21.75 20.5188 20.5188 21.75 19 21.75H5C3.48122 21.75 2.25 20.5188 2.25 19V5ZM5 3.75C4.30964 3.75 3.75 4.30964 3.75 5V19C3.75 19.2142 3.80387 19.4158 3.8988 19.592L14.098 10.6677C15.1875 9.71436 16.8297 9.76904 17.8534 10.7928L20.25 13.1894V5C20.25 4.30964 19.6904 3.75 19 3.75H5ZM20.25 15.3107L16.7927 11.8534C16.3274 11.3881 15.581 11.3632 15.0857 11.7966L5.42469 20.25H19C19.6904 20.25 20.25 19.6904 20.25 19V15.3107Z" fill="black"/>
</svg>
