<svg width="16" height="16" viewBox="0 0 16 16" fill="none" xmlns="http://www.w3.org/2000/svg">
<path d="M5 4.75C4.30964 4.75 3.75 5.30964 3.75 6C3.75 6.69036 4.30964 7.25 5 7.25H5.01C5.70036 7.25 6.26 6.69036 6.26 6C6.26 5.30964 5.70036 4.75 5.01 4.75H5Z" fill="black"/>
<path fill-rule="evenodd" clip-rule="evenodd" d="M0.25 2.55556C0.25 1.28223 1.28223 0.25 2.55556 0.25H13.4444C14.7178 0.25 15.75 1.28223 15.75 2.55556V13.4444C15.75 14.7178 14.7178 15.75 13.4444 15.75H2.55556C1.28223 15.75 0.25 14.7178 0.25 13.4444V2.55556ZM2.55556 1.75C2.11066 1.75 1.75 2.11066 1.75 2.55556V13.4444C1.75 13.524 1.76152 13.6008 1.78298 13.6733L9.77848 6.12202C10.467 5.47176 11.5479 5.4872 12.2175 6.15685L14.25 8.18934V2.55556C14.25 2.11066 13.8893 1.75 13.4444 1.75H2.55556ZM13.4444 14.25H3.35698L10.8084 7.21254C10.9068 7.11964 11.0612 7.12185 11.1568 7.21751L14.25 10.3107V13.4444C14.25 13.8893 13.8893 14.25 13.4444 14.25Z" fill="black"/>
</svg>
