<svg width="24" height="24" viewBox="0 0 24 24" fill="none" xmlns="http://www.w3.org/2000/svg">
<path fill-rule="evenodd" clip-rule="evenodd" d="M16.76 3.25H7.24C6.72838 3.25027 6.22659 3.39326 5.79179 3.66288C5.35734 3.93229 5.00659 4.31746 4.77891 4.77514L4.77835 4.77625L1.7527 10.8188C1.42212 11.479 1.25 12.2072 1.25 12.9455V18C1.25 18.7293 1.53973 19.4288 2.05546 19.9445C2.57118 20.4603 3.27065 20.75 4 20.75H20C20.7293 20.75 21.4288 20.4603 21.9445 19.9445C22.4603 19.4288 22.75 18.7293 22.75 18V12.9455C22.75 12.2072 22.5779 11.479 22.2473 10.8188L19.2216 4.77625L19.2211 4.77513C18.9934 4.31745 18.6427 3.93229 18.2082 3.66288C17.7734 3.39326 17.2716 3.25027 16.76 3.25ZM6.5823 4.93767C6.77983 4.81519 7.00759 4.7502 7.24 4.75H16.76C16.9924 4.7502 17.2202 4.81519 17.4177 4.93767C17.6153 5.06023 17.7749 5.23549 17.8784 5.44375L17.8794 5.4458L20.7857 11.25H16C15.7492 11.25 15.5151 11.3753 15.376 11.584L13.5986 14.25H10.4014L8.62404 11.584C8.48494 11.3753 8.25076 11.25 8 11.25H3.21431L6.12063 5.4458L6.12165 5.44375C6.22513 5.23549 6.38466 5.06023 6.5823 4.93767ZM2.75588 12.75C2.75197 12.815 2.75 12.8802 2.75 12.9455V18C2.75 18.3315 2.8817 18.6495 3.11612 18.8839C3.35054 19.1183 3.66848 19.25 4 19.25H20C20.3315 19.25 20.6495 19.1183 20.8839 18.8839C21.1183 18.6495 21.25 18.3315 21.25 18V12.9455C21.25 12.8802 21.248 12.815 21.2441 12.75H16.4014L14.624 15.416C14.4849 15.6247 14.2508 15.75 14 15.75H10C9.74924 15.75 9.51506 15.6247 9.37596 15.416L7.59861 12.75H2.75588Z" fill="black"/>
</svg>
