<svg viewbox="0 0 24 24" width="24" height="24" fill="black" xmlns="http://www.w3.org/2000/svg">
 <g transform="translate(1.25, 3.25)">
  <path d="M15.51 0L5.99 0C5.47838 0.000271499 4.97659 0.143259 4.54179 0.412885C4.10734 0.682292 3.75659 1.06746 3.52891 1.52514L3.52835 1.52625L0.502705 7.56877C0.172123 8.22897 0 8.95715 0 9.6955L0 14.75C0 15.4793 0.289731 16.1788 0.805456 16.6945C1.32118 17.2103 2.02065 17.5 2.75 17.5L18.75 17.5C19.4793 17.5 20.1788 17.2103 20.6945 16.6945C21.2103 16.1788 21.5 15.4793 21.5 14.75L21.5 9.6955C21.5 8.95715 21.3279 8.22897 20.9973 7.56877L17.9716 1.52625L17.9711 1.52513C17.7434 1.06745 17.3927 0.682291 16.9582 0.412885C16.5234 0.143259 16.0216 0.000271738 15.51 0ZM5.3323 1.68767C5.52983 1.56519 5.75759 1.5002 5.99 1.5L15.51 1.5C15.7424 1.5002 15.9702 1.56519 16.1677 1.68767C16.3653 1.81023 16.5249 1.98549 16.6284 2.19375L16.6294 2.1958L19.5357 8L14.75 8C14.4992 8 14.2651 8.12533 14.126 8.33397L12.3486 11L9.15139 11L7.37404 8.33397C7.23494 8.12533 7.00076 8 6.75 8L1.96431 8L4.87063 2.1958L4.87165 2.19375C4.97513 1.98549 5.13466 1.81023 5.3323 1.68767ZM1.50588 9.5C1.50197 9.56499 1.5 9.63019 1.5 9.6955L1.5 14.75C1.5 15.0815 1.6317 15.3995 1.86612 15.6339C2.10054 15.8683 2.41848 16 2.75 16L18.75 16C19.0815 16 19.3995 15.8683 19.6339 15.6339C19.8683 15.3995 20 15.0815 20 14.75L20 9.6955C20 9.63019 19.998 9.56499 19.9941 9.5L15.1514 9.5L13.374 12.166C13.2349 12.3747 13.0008 12.5 12.75 12.5L8.75 12.5C8.49924 12.5 8.26506 12.3747 8.12596 12.166L6.34861 9.5L1.50588 9.5Z" fill-rule="EVENODD"></path>
 </g>
</svg>