<svg width="24" height="24" viewBox="0 0 24 24" fill="none" xmlns="http://www.w3.org/2000/svg">
<path d="M12 11.125C12.4832 11.125 12.875 11.5168 12.875 12V16C12.875 16.4832 12.4832 16.875 12 16.875C11.5168 16.875 11.125 16.4832 11.125 16V12C11.125 11.5168 11.5168 11.125 12 11.125Z" fill="black"/>
<path d="M12 7C11.4477 7 11 7.44772 11 8C11 8.55228 11.4477 9 12 9H12.01C12.5623 9 13.01 8.55228 13.01 8C13.01 7.44772 12.5623 7 12.01 7H12Z" fill="black"/>
<path fill-rule="evenodd" clip-rule="evenodd" d="M1.25 12C1.25 6.06294 6.06294 1.25 12 1.25C17.9371 1.25 22.75 6.06294 22.75 12C22.75 17.9371 17.9371 22.75 12 22.75C6.06294 22.75 1.25 17.9371 1.25 12ZM12 2.75C6.89137 2.75 2.75 6.89137 2.75 12C2.75 17.1086 6.89137 21.25 12 21.25C17.1086 21.25 21.25 17.1086 21.25 12C21.25 6.89137 17.1086 2.75 12 2.75Z" fill="black"/>
</svg>
