<svg width="24" height="24" viewBox="0 0 24 24" fill="none" xmlns="http://www.w3.org/2000/svg">
<path d="M4 4.25C3.58579 4.25 3.25 4.58579 3.25 5C3.25 5.41421 3.58579 5.75 4 5.75H7C7.41421 5.75 7.75 5.41421 7.75 5C7.75 4.58579 7.41421 4.25 7 4.25H4Z" fill="black"/>
<path d="M3.25 10C3.25 9.58579 3.58579 9.25 4 9.25H9C9.41421 9.25 9.75 9.58579 9.75 10C9.75 10.4142 9.41421 10.75 9 10.75H4C3.58579 10.75 3.25 10.4142 3.25 10Z" fill="black"/>
<path d="M4 14.25C3.58579 14.25 3.25 14.5858 3.25 15C3.25 15.4142 3.58579 15.75 4 15.75H10.5C10.9142 15.75 11.25 15.4142 11.25 15C11.25 14.5858 10.9142 14.25 10.5 14.25H4Z" fill="black"/>
<path d="M4 19.25C3.58579 19.25 3.25 19.5858 3.25 20C3.25 20.4142 3.58579 20.75 4 20.75H20C20.4142 20.75 20.75 20.4142 20.75 20C20.75 19.5858 20.4142 19.25 20 19.25H4Z" fill="black"/>
<path d="M12.4697 12.5303C12.1768 12.2374 12.1768 11.7626 12.4697 11.4697C12.7626 11.1768 13.2374 11.1768 13.5303 11.4697L16.25 14.1893V9C16.25 8.13805 15.9076 7.3114 15.2981 6.7019C14.6886 6.09241 13.862 5.75 13 5.75H11C10.5858 5.75 10.25 5.41421 10.25 5C10.25 4.58579 10.5858 4.25 11 4.25H13C14.2598 4.25 15.468 4.75044 16.3588 5.64124C17.2496 6.53204 17.75 7.74022 17.75 9V14.1893L20.4697 11.4697C20.7626 11.1768 21.2374 11.1768 21.5303 11.4697C21.8232 11.7626 21.8232 12.2374 21.5303 12.5303L17.5303 16.5303C17.2374 16.8232 16.7626 16.8232 16.4697 16.5303L12.4697 12.5303Z" fill="black"/>
</svg>
