<svg viewbox="0 0 24 24" width="24" height="24" fill="black" xmlns="http://www.w3.org/2000/svg">
 <g transform="translate(3.25, 4.25)">
  <path d="M0.75 0C0.335786 0 0 0.335786 0 0.75C0 1.16421 0.335786 1.5 0.75 1.5L3.75 1.5C4.16421 1.5 4.5 1.16421 4.5 0.75C4.5 0.335786 4.16421 0 3.75 0L0.75 0Z" fill-rule="NONZERO"></path>
  <path d="M0 5.75C0 5.33579 0.335786 5 0.75 5L5.75 5C6.16421 5 6.5 5.33579 6.5 5.75C6.5 6.16421 6.16421 6.5 5.75 6.5L0.75 6.5C0.335786 6.5 0 6.16421 0 5.75Z" fill-rule="NONZERO"></path>
  <path d="M0.75 10C0.335786 10 0 10.3358 0 10.75C0 11.1642 0.335786 11.5 0.75 11.5L7.25 11.5C7.66421 11.5 8 11.1642 8 10.75C8 10.3358 7.66421 10 7.25 10L0.75 10Z" fill-rule="NONZERO"></path>
  <path d="M0.75 15C0.335786 15 0 15.3358 0 15.75C0 16.1642 0.335786 16.5 0.75 16.5L16.75 16.5C17.1642 16.5 17.5 16.1642 17.5 15.75C17.5 15.3358 17.1642 15 16.75 15L0.75 15Z" fill-rule="NONZERO"></path>
  <path d="M9.21967 8.28033C8.92678 7.98744 8.92678 7.51256 9.21967 7.21967C9.51256 6.92678 9.98744 6.92678 10.2803 7.21967L13 9.93934L13 4.75C13 3.88805 12.6576 3.0614 12.0481 2.4519C11.4386 1.84241 10.612 1.5 9.75 1.5L7.75 1.5C7.33579 1.5 7 1.16421 7 0.75C7 0.335786 7.33579 0 7.75 0L9.75 0C11.0098 0 12.218 0.500445 13.1088 1.39124C13.9996 2.28204 14.5 3.49022 14.5 4.75L14.5 9.93934L17.2197 7.21967C17.5126 6.92678 17.9874 6.92678 18.2803 7.21967C18.5732 7.51256 18.5732 7.98744 18.2803 8.28033L14.2803 12.2803C13.9874 12.5732 13.5126 12.5732 13.2197 12.2803L9.21967 8.28033Z" fill-rule="NONZERO"></path>
 </g>
</svg>