<svg width="16" height="16" viewBox="0 0 16 16" fill="none" xmlns="http://www.w3.org/2000/svg">
<path d="M2 2.25C1.58579 2.25 1.25 2.58579 1.25 3C1.25 3.41421 1.58579 3.75 2 3.75H4C4.41421 3.75 4.75 3.41421 4.75 3C4.75 2.58579 4.41421 2.25 4 2.25H2Z" fill="black"/>
<path d="M1.25 6.30005C1.25 5.88584 1.58579 5.55005 2 5.55005H5.33333C5.74755 5.55005 6.08333 5.88584 6.08333 6.30005C6.08333 6.71426 5.74755 7.05005 5.33333 7.05005H2C1.58579 7.05005 1.25 6.71426 1.25 6.30005Z" fill="black"/>
<path d="M2 8.94995C1.58579 8.94995 1.25 9.28574 1.25 9.69995C1.25 10.1142 1.58579 10.45 2 10.45H6C6.41421 10.45 6.75 10.1142 6.75 9.69995C6.75 9.28574 6.41421 8.94995 6 8.94995H2Z" fill="black"/>
<path d="M2 12.25C1.58579 12.25 1.25 12.5858 1.25 13C1.25 13.4142 1.58579 13.75 2 13.75H14C14.4142 13.75 14.75 13.4142 14.75 13C14.75 12.5858 14.4142 12.25 14 12.25H2Z" fill="black"/>
<path d="M7.46967 6.46967C7.76256 6.17678 8.23744 6.17678 8.53033 6.46967L10.25 8.18934V5.8C10.25 5.2548 10.0347 4.73287 9.65301 4.34878C9.27146 3.96484 8.75496 3.75 8.21739 3.75H7C6.58579 3.75 6.25 3.41421 6.25 3C6.25 2.58579 6.58579 2.25 7 2.25H8.21739C9.15581 2.25 10.0548 2.62516 10.717 3.29143C11.3789 3.95753 11.75 4.85998 11.75 5.8V8.18934L13.4697 6.46967C13.7626 6.17678 14.2374 6.17678 14.5303 6.46967C14.8232 6.76256 14.8232 7.23744 14.5303 7.53033L11.5303 10.5303C11.3897 10.671 11.1989 10.75 11 10.75C10.8011 10.75 10.6103 10.671 10.4697 10.5303L7.46967 7.53033C7.17678 7.23744 7.17678 6.76256 7.46967 6.46967Z" fill="black"/>
</svg>
