<svg width="16" height="16" viewBox="0 0 16 16" fill="none" xmlns="http://www.w3.org/2000/svg">
<path d="M2 2.25C1.58579 2.25 1.25 2.58579 1.25 3C1.25 3.41421 1.58579 3.75 2 3.75H3C3.41421 3.75 3.75 3.41421 3.75 3C3.75 2.58579 3.41421 2.25 3 2.25H2Z" fill="black"/>
<path d="M7 5.55005C6.58579 5.55005 6.25 5.88584 6.25 6.30005C6.25 6.71426 6.58579 7.05005 7 7.05005H11C11.4142 7.05005 11.75 6.71426 11.75 6.30005C11.75 5.88584 11.4142 5.55005 11 5.55005H7Z" fill="black"/>
<path d="M1.25 6.30005C1.25 5.88584 1.58579 5.55005 2 5.55005H3.5C3.91421 5.55005 4.25 5.88584 4.25 6.30005C4.25 6.71426 3.91421 7.05005 3.5 7.05005H2C1.58579 7.05005 1.25 6.71426 1.25 6.30005Z" fill="black"/>
<path d="M2 8.94995C1.58579 8.94995 1.25 9.28574 1.25 9.69995C1.25 10.1142 1.58579 10.45 2 10.45H3C3.41421 10.45 3.75 10.1142 3.75 9.69995C3.75 9.28574 3.41421 8.94995 3 8.94995H2Z" fill="black"/>
<path d="M1.25 13C1.25 12.5858 1.58579 12.25 2 12.25H3.5C3.91421 12.25 4.25 12.5858 4.25 13C4.25 13.4142 3.91421 13.75 3.5 13.75H2C1.58579 13.75 1.25 13.4142 1.25 13Z" fill="black"/>
<path d="M7 2.25C6.58579 2.25 6.25 2.58579 6.25 3C6.25 3.41421 6.58579 3.75 7 3.75H13C13.4142 3.75 13.75 3.41421 13.75 3C13.75 2.58579 13.4142 2.25 13 2.25H7Z" fill="black"/>
<path d="M6.25 9.69995C6.25 9.28574 6.58579 8.94995 7 8.94995H12C12.4142 8.94995 12.75 9.28574 12.75 9.69995C12.75 10.1142 12.4142 10.45 12 10.45H7C6.58579 10.45 6.25 10.1142 6.25 9.69995Z" fill="black"/>
<path d="M7 12.25C6.58579 12.25 6.25 12.5858 6.25 13C6.25 13.4142 6.58579 13.75 7 13.75H14C14.4142 13.75 14.75 13.4142 14.75 13C14.75 12.5858 14.4142 12.25 14 12.25H7Z" fill="black"/>
</svg>
