<svg width="16" height="16" viewBox="0 0 16 16" fill="none" xmlns="http://www.w3.org/2000/svg">
<path fill-rule="evenodd" clip-rule="evenodd" d="M9.44624 3.44288C9.86302 3.02652 10.4169 2.80005 11.0023 2.80005C11.2933 2.80005 11.5779 2.85783 11.8446 2.96888C12.6657 3.31121 13.2026 4.10746 13.2026 5.00222C13.2026 5.58032 12.967 6.14326 12.5608 6.55253C12.1461 6.97039 11.589 7.20005 11.0023 7.20005C10.1197 7.20005 9.30619 6.65547 8.96786 5.8405C8.62831 5.01878 8.81181 4.07447 9.44624 3.44288ZM10.4354 4.43357C10.5875 4.28157 10.7846 4.20005 11.0023 4.20005C11.1063 4.20005 11.2083 4.2205 11.3063 4.26128C11.6099 4.38795 11.8026 4.67713 11.8026 5.00222C11.8026 5.20555 11.7168 5.41553 11.5671 5.56632C11.4174 5.71719 11.2189 5.80005 11.0023 5.80005C10.6771 5.80005 10.3881 5.6076 10.2613 5.30475C10.1387 5.0068 10.2077 4.66125 10.4354 4.43357Z" fill="black"/>
<path fill-rule="evenodd" clip-rule="evenodd" d="M9.54334 0.298692C9.78716 0.265097 10.0328 0.25 10.2728 0.25C11.735 0.25 13.1144 0.82047 14.1484 1.85421C15.3405 3.04862 15.9272 4.78297 15.7021 6.45583C15.4746 8.13728 14.4623 9.64197 12.9889 10.4834C12.1616 10.9557 11.2219 11.2061 10.2684 11.2061C9.69406 11.2061 9.13065 11.1166 8.58928 10.9421L7.9851 11.5462C7.78594 11.7534 7.51046 11.8697 7.22523 11.8697H6.59925V12.3653L6.59909 12.3809C6.59288 12.6804 6.47443 12.9586 6.27278 13.1718L6.26561 13.1794C6.04249 13.4088 5.73838 13.5298 5.43247 13.5298H4.92989V14.1215C4.9382 14.4062 4.83092 14.6749 4.63938 14.8796C4.63367 14.8857 4.62787 14.8917 4.62196 14.8976L3.98909 15.5304C3.84844 15.671 3.6577 15.75 3.45882 15.75H1C0.585786 15.75 0.25 15.4142 0.25 15V12.5307C0.25 12.3317 0.32904 12.1409 0.469727 12.0003L5.05659 7.4144C4.58924 5.9587 4.74859 4.34817 5.51357 3.0109C6.35688 1.53659 7.86114 0.524163 9.54334 0.298692ZM6.81562 3.75567C7.42733 2.68624 8.52457 1.94828 9.74377 1.78524C9.91912 1.7614 10.0959 1.75 10.2728 1.75C11.3378 1.75 12.3355 2.16287 13.0878 2.91495C13.9565 3.78562 14.3785 5.03625 14.2156 6.25527C14.0504 7.47492 13.3117 8.57163 12.2451 9.18081C11.6434 9.52425 10.9601 9.70608 10.2684 9.70608C9.73638 9.70608 9.21729 9.60068 8.72342 9.39385C8.67743 9.37459 8.62963 9.35996 8.58074 9.35019L8.55869 9.34578C8.51028 9.3361 8.46103 9.33123 8.41166 9.33123C8.20166 9.33123 8.02921 9.41142 7.90695 9.50953C7.8857 9.52659 7.86539 9.5448 7.84611 9.56407L7.04032 10.3697H6.04329C5.51537 10.3697 5.09925 10.7993 5.09925 11.3137V12.0298H4.37393C3.84625 12.0298 3.42989 12.4592 3.42989 12.9738V13.9684L3.14821 14.25H1.75V12.8414L6.43026 8.16212C6.64882 7.94356 6.74032 7.59691 6.6032 7.27619C6.12593 6.13983 6.20488 4.82328 6.81562 3.75567Z" fill="black"/>
</svg>
