<svg viewBox="0 0 24 24" width="24" height="24" fill="black" xmlns="http://www.w3.org/2000/svg">
 <g transform="translate(3.25, 5.25)">
  <path d="M0.75 0C0.335786 0 0 0.335786 0 0.75C0 1.16421 0.335786 1.5 0.75 1.5L2.75 1.5C3.16421 1.5 3.5 1.16421 3.5 0.75C3.5 0.335786 3.16421 0 2.75 0L0.75 0Z" fill-rule="NONZERO"></path>
  <path d="M7.75 4C7.33579 4 7 4.33579 7 4.75C7 5.16421 7.33579 5.5 7.75 5.5L13.75 5.5C14.1642 5.5 14.5 5.16421 14.5 4.75C14.5 4.33579 14.1642 4 13.75 4L7.75 4Z" fill-rule="NONZERO"></path>
  <path d="M0 4.75C0 4.33579 0.335786 4 0.75 4L3.75 4C4.16421 4 4.5 4.33579 4.5 4.75C4.5 5.16421 4.16421 5.5 3.75 5.5L0.75 5.5C0.335786 5.5 0 5.16421 0 4.75Z" fill-rule="NONZERO"></path>
  <path d="M0.75 8C0.335786 8 0 8.33579 0 8.75C0 9.16421 0.335786 9.5 0.75 9.5L2.75 9.5C3.16421 9.5 3.5 9.16421 3.5 8.75C3.5 8.33579 3.16421 8 2.75 8L0.75 8Z" fill-rule="NONZERO"></path>
  <path d="M0 12.75C0 12.3358 0.335786 12 0.75 12L3.75 12C4.16421 12 4.5 12.3358 4.5 12.75C4.5 13.1642 4.16421 13.5 3.75 13.5L0.75 13.5C0.335786 13.5 0 13.1642 0 12.75Z" fill-rule="NONZERO"></path>
  <path d="M7.75 0C7.33579 0 7 0.335786 7 0.75C7 1.16421 7.33579 1.5 7.75 1.5L15.75 1.5C16.1642 1.5 16.5 1.16421 16.5 0.75C16.5 0.335786 16.1642 0 15.75 0L7.75 0Z" fill-rule="NONZERO"></path>
  <path d="M7 8.75C7 8.33579 7.33579 8 7.75 8L15.75 8C16.1642 8 16.5 8.33579 16.5 8.75C16.5 9.16421 16.1642 9.5 15.75 9.5L7.75 9.5C7.33579 9.5 7 9.16421 7 8.75Z" fill-rule="NONZERO"></path>
  <path d="M7.75 12C7.33579 12 7 12.3358 7 12.75C7 13.1642 7.33579 13.5 7.75 13.5L16.75 13.5C17.1642 13.5 17.5 13.1642 17.5 12.75C17.5 12.3358 17.1642 12 16.75 12L7.75 12Z" fill-rule="NONZERO"></path>
 </g>
</svg>