<svg width="16" height="16" viewBox="0 0 16 16" fill="none" xmlns="http://www.w3.org/2000/svg">
<path d="M8.00458 1.75C4.94167 1.75 2.39196 3.95401 1.85766 6.86277C1.78283 7.27017 1.39191 7.53976 0.984507 7.46493C0.57711 7.3901 0.307513 6.99917 0.382346 6.59178C1.04506 2.98387 4.20477 0.25 8.00458 0.25C12.2848 0.25 15.7546 3.71979 15.7546 8C15.7546 12.2802 12.2848 15.75 8.00458 15.75C4.20477 15.75 1.04506 13.0161 0.382346 9.40822C0.307513 9.00083 0.57711 8.6099 0.984507 8.53507C1.39191 8.46024 1.78283 8.72983 1.85766 9.13723C2.39196 12.046 4.94167 14.25 8.00458 14.25C11.2197 14.25 13.8678 11.8223 14.2158 8.70005H13.1537C12.8134 11.2426 10.6357 13.2036 7.99999 13.2036C5.12811 13.2036 2.79999 10.8755 2.79999 8.00358C2.79999 5.64693 4.36713 3.65813 6.5146 3.01901C6.88514 2.90874 7.27491 3.11972 7.38519 3.49026C7.49547 3.86079 7.28449 4.25057 6.91395 4.36085C5.56315 4.76287 4.5279 5.89593 4.265 7.30005H5.39161C5.69995 6.14823 6.75092 5.30005 7.99999 5.30005C9.49116 5.30005 10.7 6.50888 10.7 8.00005C10.7 8.79977 10.3514 9.51899 9.80016 10.0124C9.51209 10.2702 9.06956 10.2457 8.81173 9.95763C8.5539 9.66956 8.57841 9.22702 8.86648 8.96919C9.13356 8.73015 9.29999 8.385 9.29999 8.00005C9.29999 7.28208 8.71796 6.70005 7.99999 6.70005C7.28202 6.70005 6.69999 7.28208 6.69999 8.00005C6.69999 8.385 6.86642 8.73015 7.13349 8.96919C7.42156 9.22702 7.44608 9.66956 7.18825 9.95763C6.93042 10.2457 6.48788 10.2702 6.19981 10.0124C5.81541 9.66833 5.52956 9.21445 5.39174 8.70005H4.26367C4.5908 10.4661 6.1392 11.8036 7.99999 11.8036C10.0987 11.8036 11.8 10.1023 11.8 8.00358C11.8 6.2832 10.6562 4.82815 9.08603 4.36085C8.71549 4.25057 8.50451 3.86079 8.61478 3.49026C8.72506 3.11972 9.11484 2.90874 9.48538 3.01901C11.4154 3.59342 12.8767 5.25802 13.1528 7.30005H14.2158C13.8679 4.17774 11.2197 1.75 8.00458 1.75Z" fill="black"/>
</svg>
