<svg viewBox="0 0 16 16" width="16" height="16" fill="black" xmlns="http://www.w3.org/2000/svg">
 <g transform="translate(0.25, 0.25)">
  <path d="M7.41459 0.0791796C7.62574 -0.0263932 7.87426 -0.0263932 8.08541 0.0791796L15.0854 3.57918C15.3395 3.70622 15.5 3.96592 15.5 4.25C15.5 4.53408 15.3395 4.79378 15.0854 4.92082L8.08541 8.42082C7.87426 8.52639 7.62574 8.52639 7.41459 8.42082L0.41459 4.92082C0.160502 4.79378 0 4.53408 0 4.25C0 3.96592 0.160502 3.70622 0.41459 3.57918L7.41459 0.0791796ZM2.42705 4.25L7.75 6.91147L13.0729 4.25L7.75 1.58853L2.42705 4.25Z" fill-rule="EVENODD"></path>
  <path d="M0.123859 10.9369C0.296751 10.5911 0.717223 10.451 1.06301 10.6239L7.74996 13.9673L14.4369 10.6239C14.7827 10.451 15.2032 10.5911 15.3761 10.9369C15.5489 11.2827 15.4088 11.7032 15.063 11.8761L8.06301 15.3761C7.86594 15.4746 7.63398 15.4746 7.43691 15.3761L0.436908 11.8761C0.0911236 11.7032 -0.0490335 11.2827 0.123859 10.9369Z" fill-rule="NONZERO"></path>
  <path d="M1.06301 7.12386C0.717223 6.95097 0.296751 7.09112 0.123859 7.43691C-0.0490335 7.78269 0.0911236 8.20317 0.436909 8.37606L7.43691 11.8761C7.63398 11.9746 7.86594 11.9746 8.06301 11.8761L15.063 8.37606C15.4088 8.20317 15.5489 7.78269 15.3761 7.43691C15.2032 7.09112 14.7827 6.95097 14.4369 7.12386L7.74996 10.4673L1.06301 7.12386Z" fill-rule="NONZERO"></path>
 </g>
</svg>