<svg width="24" height="24" viewBox="0 0 24 24" fill="none" xmlns="http://www.w3.org/2000/svg">
<path fill-rule="evenodd" clip-rule="evenodd" d="M11.6646 1.32918C11.8757 1.22361 12.1243 1.22361 12.3354 1.32918L22.3354 6.32918C22.5895 6.45622 22.75 6.71592 22.75 7C22.75 7.28408 22.5895 7.54378 22.3354 7.67082L12.3354 12.6708C12.1243 12.7764 11.8757 12.7764 11.6646 12.6708L1.66459 7.67082C1.4105 7.54378 1.25 7.28408 1.25 7C1.25 6.71592 1.4105 6.45622 1.66459 6.32918L11.6646 1.32918ZM3.67705 7L12 11.1615L20.3229 7L12 2.83853L3.67705 7Z" fill="black"/>
<path d="M1.32922 16.6645C1.51446 16.294 1.96497 16.1439 2.33545 16.3291L12 21.1614L21.6646 16.3291C22.0351 16.1439 22.4856 16.294 22.6709 16.6645C22.8561 17.035 22.7059 17.4855 22.3355 17.6707L12.3355 22.6707C12.1243 22.7763 11.8758 22.7763 11.6646 22.6707L1.66463 17.6707C1.29415 17.4855 1.14398 17.035 1.32922 16.6645Z" fill="black"/>
<path d="M2.33545 11.3291C1.96497 11.1439 1.51446 11.294 1.32922 11.6645C1.14398 12.035 1.29415 12.4855 1.66463 12.6707L11.6646 17.6707C11.8758 17.7763 12.1243 17.7763 12.3355 17.6707L22.3355 12.6707C22.7059 12.4855 22.8561 12.035 22.6709 11.6645C22.4856 11.294 22.0351 11.1439 21.6646 11.3291L12 16.1614L2.33545 11.3291Z" fill="black"/>
</svg>
