<svg width="16" height="16" viewBox="0 0 16 16" fill="none" xmlns="http://www.w3.org/2000/svg">
<path fill-rule="evenodd" clip-rule="evenodd" d="M3.33333 14.75C2.18274 14.75 1.25 13.8173 1.25 12.6667V3.33333C1.25 2.18274 2.18274 1.25 3.33333 1.25H12.6667C13.8173 1.25 14.75 2.18274 14.75 3.33333V12.6667C14.75 13.8173 13.8173 14.75 12.6667 14.75H3.33333ZM3.33333 2.75C3.01117 2.75 2.75 3.01117 2.75 3.33333V5.25H13.25V3.33333C13.25 3.01117 12.9888 2.75 12.6667 2.75H3.33333ZM5.25 6.75H2.75V12.6667C2.75 12.9888 3.01117 13.25 3.33333 13.25H5.25V6.75ZM6.75 13.25V6.75H13.25V12.6667C13.25 12.9888 12.9888 13.25 12.6667 13.25H6.75Z" fill="black"/>
</svg>
