<svg width="16" height="16" viewBox="0 0 16 16" fill="none" xmlns="http://www.w3.org/2000/svg">
<path d="M12.5 0.375C12.1548 0.375 11.875 0.654822 11.875 1C11.875 1.34518 12.1548 1.625 12.5 1.625H13.4911L11.5581 3.55807C11.314 3.80214 11.314 4.19787 11.5581 4.44195C11.8021 4.68603 12.1979 4.68603 12.4419 4.44195L14.375 2.50889V3.5C14.375 3.84518 14.6548 4.125 15 4.125C15.3452 4.125 15.625 3.84518 15.625 3.5V1C15.625 0.83424 15.5592 0.675269 15.4419 0.558058C15.3247 0.440848 15.1658 0.375 15 0.375H12.5Z" fill="black"/>
<path fill-rule="evenodd" clip-rule="evenodd" d="M7.81429 3.81903C7.61487 3.72699 7.38513 3.72699 7.18571 3.81903L0.685706 6.81903C0.420094 6.94162 0.25 7.20746 0.25 7.5C0.25 7.79254 0.420094 8.05838 0.685706 8.18097L2.30369 8.92773C2.30125 8.95151 2.3 8.97563 2.3 9.00005V12.5C2.3 12.6154 2.3285 12.7289 2.38297 12.8306C2.38297 12.8306 2.38267 12.8301 2.38363 12.8318C2.43578 12.9285 2.5123 13.0446 2.68427 13.2219C2.87004 13.4133 3.14938 13.6438 3.55627 13.865C4.37083 14.3079 5.67034 14.7 7.71429 14.7C9.75115 14.7 10.9695 14.3105 11.7025 13.8387C12.071 13.6015 12.3081 13.3487 12.4579 13.1298C12.5322 13.0213 12.5832 12.9238 12.6179 12.8444C12.6423 12.7883 12.6636 12.7309 12.6787 12.6715C12.6793 12.6692 12.6791 12.6698 12.6791 12.6698C12.693 12.6143 12.7 12.5573 12.7 12.5V9.00005C12.7 8.97563 12.6988 8.9515 12.6963 8.92773L14.3143 8.18097C14.5799 8.05838 14.75 7.79254 14.75 7.5C14.75 7.20746 14.5799 6.94162 14.3143 6.81903L7.81429 3.81903ZM11.3 9.57218L7.81429 11.181C7.61487 11.273 7.38513 11.273 7.18571 11.181L3.7 9.57218V12.2581C3.78977 12.3485 3.95357 12.4875 4.22499 12.6351C4.78989 12.9422 5.84753 13.3 7.71429 13.3C9.58814 13.3 10.5127 12.9396 10.9448 12.6614C11.1546 12.5264 11.2559 12.4063 11.3 12.3429V9.57218ZM7.5 9.67397L2.78973 7.5L7.5 5.32603L12.2103 7.5L7.5 9.67397Z" fill="black"/>
</svg>
