<svg viewBox="0 0 16 16" width="16" height="16" fill="black" xmlns="http://www.w3.org/2000/svg">
 <g transform="translate(0.25, 0.375)">
  <path d="M12.25 0C11.9048 0 11.625 0.279822 11.625 0.625C11.625 0.970178 11.9048 1.25 12.25 1.25L13.2411 1.25L11.3081 3.18307C11.064 3.42714 11.064 3.82287 11.3081 4.06695C11.5521 4.31103 11.9479 4.31103 12.1919 4.06695L14.125 2.13389L14.125 3.125C14.125 3.47018 14.4048 3.75 14.75 3.75C15.0952 3.75 15.375 3.47018 15.375 3.125L15.375 0.625C15.375 0.45924 15.3092 0.300269 15.1919 0.183058C15.0747 0.0658481 14.9158 0 14.75 0L12.25 0Z" fill-rule="NONZERO"></path>
  <path d="M7.56429 3.44403C7.36487 3.35199 7.13513 3.35199 6.93571 3.44403L0.435706 6.44403C0.170094 6.56662 0 6.83246 0 7.125C0 7.41754 0.170094 7.68338 0.435706 7.80597L2.05369 8.55273C2.05125 8.57651 2.05 8.60063 2.05 8.62505L2.05 12.125C2.05 12.2404 2.0785 12.3539 2.13297 12.4556C2.13297 12.4556 2.13267 12.4551 2.13363 12.4568C2.18578 12.5535 2.2623 12.6696 2.43427 12.8469C2.62004 13.0383 2.89938 13.2688 3.30627 13.49C4.12083 13.9329 5.42034 14.325 7.46429 14.325C9.50115 14.325 10.7195 13.9355 11.4525 13.4637C11.821 13.2265 12.0581 12.9737 12.2079 12.7548C12.2822 12.6463 12.3332 12.5488 12.3679 12.4694C12.3923 12.4133 12.4136 12.3559 12.4287 12.2965C12.4293 12.2942 12.4291 12.2948 12.4291 12.2948C12.443 12.2393 12.45 12.1823 12.45 12.125L12.45 8.62505C12.45 8.60063 12.4488 8.5765 12.4463 8.55273L14.0643 7.80597C14.3299 7.68338 14.5 7.41754 14.5 7.125C14.5 6.83246 14.3299 6.56662 14.0643 6.44403L7.56429 3.44403ZM11.05 9.19718L7.56429 10.806C7.36487 10.898 7.13513 10.898 6.93571 10.806L3.45 9.19718L3.45 11.8831C3.53977 11.9735 3.70357 12.1125 3.97499 12.2601C4.53989 12.5672 5.59753 12.925 7.46429 12.925C9.33814 12.925 10.2627 12.5646 10.6948 12.2864C10.9046 12.1514 11.0059 12.0313 11.05 11.9679L11.05 9.19718ZM7.25 9.29897L2.53973 7.125L7.25 4.95103L11.9603 7.125L7.25 9.29897Z" fill-rule="EVENODD"></path>
 </g>
</svg>