<svg width="24" height="24" viewBox="0 0 24 24" fill="none" xmlns="http://www.w3.org/2000/svg">
<path d="M18.5 1.25C18.0858 1.25 17.75 1.58579 17.75 2C17.75 2.41421 18.0858 2.75 18.5 2.75H20.1893L17.4697 5.46967C17.1768 5.76256 17.1768 6.23744 17.4697 6.53033C17.7626 6.82322 18.2374 6.82322 18.5303 6.53033L21.25 3.81066V5.5C21.25 5.91421 21.5858 6.25 22 6.25C22.4142 6.25 22.75 5.91421 22.75 5.5V2C22.75 1.80109 22.671 1.61032 22.5303 1.46967C22.3897 1.32902 22.1989 1.25 22 1.25H18.5Z" fill="black"/>
<path fill-rule="evenodd" clip-rule="evenodd" d="M11.8493 5.33631C11.6307 5.22123 11.3693 5.22123 11.1507 5.33631L1.65069 10.3363C1.40428 10.466 1.25 10.7215 1.25 11C1.25 11.2785 1.40428 11.534 1.65069 11.6637L4.36903 13.0944C4.29371 13.2113 4.25 13.3506 4.25 13.5V18.5C4.25 18.6091 4.2738 18.7169 4.31974 18.8158L4.32033 18.8171C4.34636 18.8728 4.37411 18.9237 4.4251 19.0052C4.48548 19.1017 4.57334 19.2279 4.69559 19.3733C4.94077 19.6649 5.32098 20.0297 5.88789 20.3853C7.02568 21.0991 8.87267 21.75 11.8095 21.75C14.7397 21.75 16.4612 21.1016 17.4702 20.3521C17.974 19.9779 18.2844 19.5897 18.4721 19.2733C18.5654 19.1161 18.6271 18.9788 18.6672 18.8726C18.6934 18.8034 18.7167 18.7328 18.7326 18.6604C18.7331 18.6583 18.733 18.6588 18.733 18.6588C18.7443 18.6066 18.75 18.5534 18.75 18.5V13.5C18.75 13.3506 18.7063 13.2113 18.631 13.0944L21.3493 11.6637C21.5957 11.534 21.75 11.2785 21.75 11C21.75 10.7215 21.5957 10.466 21.3493 10.3363L11.8493 5.33631ZM17.25 13.8212L11.8493 16.6637C11.6307 16.7788 11.3693 16.7788 11.1507 16.6637L5.75 13.8212V18.2883C5.77449 18.3222 5.80543 18.3625 5.84366 18.4079C5.99264 18.5851 6.25566 18.8453 6.68502 19.1147C7.5398 19.6509 9.09757 20.25 11.8095 20.25C14.5281 20.25 15.9019 19.6484 16.5759 19.1479C16.9136 18.8971 17.0917 18.6603 17.1821 18.508C17.2141 18.4539 17.2359 18.4093 17.25 18.3769V13.8212ZM11.5 15.1525L3.61032 11L11.5 6.84754L19.3897 11L11.5 15.1525Z" fill="black"/>
</svg>
