<svg width="16" height="16" viewBox="0 0 16 16" fill="none" xmlns="http://www.w3.org/2000/svg">
<path fill-rule="evenodd" clip-rule="evenodd" d="M8 0.25C3.71979 0.25 0.25 3.71979 0.25 8C0.25 12.2802 3.71979 15.75 8 15.75C12.2802 15.75 15.75 12.2802 15.75 8C15.75 3.71979 12.2802 0.25 8 0.25ZM1.75 8C1.75 6.52632 2.26004 5.17177 3.11322 4.10323L4.9357 5.92571C4.53442 6.51734 4.29999 7.23132 4.29999 8.00005C4.29999 8.76878 4.53442 9.48276 4.9357 10.0744L3.11327 11.8968C2.26006 10.8283 1.75 9.47371 1.75 8ZM4.10322 12.8868C5.17176 13.74 6.52632 14.25 8 14.25C9.47368 14.25 10.8282 13.74 11.8968 12.8868L10.0743 11.0643C9.4827 11.4656 8.76872 11.7 7.99999 11.7C7.23126 11.7 6.51728 11.4656 5.92565 11.0643L4.10322 12.8868ZM12.8867 11.8968C13.7399 10.8283 14.25 9.47371 14.25 8C14.25 6.52631 13.74 5.17175 12.8868 4.10322L11.0643 5.92571C11.4656 6.51734 11.7 7.23132 11.7 8.00005C11.7 8.76878 11.4656 9.48276 11.0643 10.0744L12.8867 11.8968ZM8 1.75C9.47371 1.75 10.8283 2.26005 11.8968 3.11326L10.0743 4.93576C9.4827 4.53448 8.76872 4.30005 7.99999 4.30005C7.23126 4.30005 6.51728 4.53449 5.92565 4.93576L4.10316 3.11327C5.17171 2.26006 6.52629 1.75 8 1.75ZM5.69999 8.00005C5.69999 6.72979 6.72973 5.70005 7.99999 5.70005C9.27024 5.70005 10.3 6.72979 10.3 8.00005C10.3 9.2703 9.27024 10.3 7.99999 10.3C6.72973 10.3 5.69999 9.2703 5.69999 8.00005Z" fill="black"/>
</svg>
