<svg viewBox="0 0 24 24" width="24" height="24" fill="black" xmlns="http://www.w3.org/2000/svg">
 <g transform="translate(1.25, 1.25)">
  <path d="M10.75 0C4.81294 0 0 4.81294 0 10.75C0 16.6871 4.81294 21.5 10.75 21.5C16.6871 21.5 21.5 16.6871 21.5 10.75C21.5 4.81294 16.6871 0 10.75 0ZM1.5 10.75C1.5 8.46566 2.32805 6.37472 3.70036 4.76096L6.90283 7.96343C6.33489 8.74616 6 9.70897 6 10.75C6 11.791 6.3349 12.7538 6.90283 13.5366L3.70037 16.739C2.32805 15.1253 1.5 13.0343 1.5 10.75ZM4.76103 17.7997C6.37478 19.172 8.46569 20 10.75 20C13.0343 20 15.1252 19.172 16.739 17.7997L13.5365 14.5972C12.7538 15.1651 11.791 15.5 10.75 15.5C9.709 15.5 8.74622 15.1651 7.9635 14.5972L4.76103 17.7997ZM17.7996 16.7391C19.1719 15.1253 20 13.0343 20 10.75C20 8.46565 19.1719 6.37471 17.7996 4.76095L14.5972 7.96341C15.1651 8.74615 15.5 9.70897 15.5 10.75C15.5 11.791 15.1651 12.7539 14.5972 13.5366L17.7996 16.7391ZM10.75 1.5C13.0343 1.5 15.1252 2.32802 16.739 3.7003L13.5365 6.90277C12.7538 6.33487 11.791 6 10.75 6C9.709 6 8.74622 6.33487 7.9635 6.90278L4.76103 3.70031C6.37477 2.32803 8.46569 1.5 10.75 1.5ZM7.5 10.75C7.5 8.95507 8.95507 7.5 10.75 7.5C12.5449 7.5 14 8.95507 14 10.75C14 12.5449 12.5449 14 10.75 14C8.95507 14 7.5 12.5449 7.5 10.75Z" fill-rule="EVENODD"></path>
 </g>
</svg>