<svg width="24" height="24" viewBox="0 0 24 24" fill="none" xmlns="http://www.w3.org/2000/svg">
<path fill-rule="evenodd" clip-rule="evenodd" d="M12 1.25C6.06294 1.25 1.25 6.06294 1.25 12C1.25 17.9371 6.06294 22.75 12 22.75C17.9371 22.75 22.75 17.9371 22.75 12C22.75 6.06294 17.9371 1.25 12 1.25ZM2.75 12C2.75 9.71566 3.57805 7.62472 4.95036 6.01096L8.15283 9.21343C7.58489 9.99616 7.25 10.959 7.25 12C7.25 13.041 7.5849 14.0038 8.15283 14.7866L4.95037 17.989C3.57805 16.3753 2.75 14.2843 2.75 12ZM6.01103 19.0497C7.62478 20.422 9.71569 21.25 12 21.25C14.2843 21.25 16.3752 20.422 17.989 19.0497L14.7865 15.8472C14.0038 16.4151 13.041 16.75 12 16.75C10.959 16.75 9.99622 16.4151 9.2135 15.8472L6.01103 19.0497ZM19.0496 17.9891C20.4219 16.3753 21.25 14.2843 21.25 12C21.25 9.71565 20.4219 7.62471 19.0496 6.01095L15.8472 9.21341C16.4151 9.99615 16.75 10.959 16.75 12C16.75 13.041 16.4151 14.0039 15.8472 14.7866L19.0496 17.9891ZM12 2.75C14.2843 2.75 16.3752 3.57802 17.989 4.9503L14.7865 8.15277C14.0038 7.58487 13.041 7.25 12 7.25C10.959 7.25 9.99622 7.58487 9.2135 8.15278L6.01103 4.95031C7.62477 3.57803 9.71569 2.75 12 2.75ZM8.75 12C8.75 10.2051 10.2051 8.75 12 8.75C13.7949 8.75 15.25 10.2051 15.25 12C15.25 13.7949 13.7949 15.25 12 15.25C10.2051 15.25 8.75 13.7949 8.75 12Z" fill="black"/>
</svg>
