<svg viewbox="0 0 0 0" width="0" height="0" fill="black" xmlns="http://www.w3.org/2000/svg">
 <g transform="translate(0.25, 1.25)">
  <path d="M0 2.08333C0 0.914242 0.93633 0 2.15 0L13.35 0C14.5637 0 15.5 0.914243 15.5 2.08333L15.5 11.4167C15.5 12.5858 14.5637 13.5 13.35 13.5L2.15 13.5C0.93633 13.5 0 12.5858 0 11.4167L0 2.08333ZM2.15 1.5C1.72727 1.5 1.5 1.77967 1.5 2.08333L1.5 9.07119L5.4194 6.71955C5.56408 6.62943 5.74487 6.5985 5.92168 6.64902L8.8995 7.49983L10.3041 4.33951L9.60644 4.65338C9.29165 4.795 8.92166 4.65462 8.78004 4.33983C8.63842 4.02504 8.7788 3.65505 9.09358 3.51343L11.2215 2.5561C11.3727 2.4881 11.5446 2.48292 11.6996 2.54173C11.8546 2.60053 11.9799 2.71849 12.0479 2.86965L13.0052 4.99756C13.1468 5.31234 13.0065 5.68234 12.6917 5.82396C12.3769 5.96558 12.0069 5.8252 11.8653 5.51041L11.5063 4.71242L9.82255 8.50073C9.80933 8.53104 9.79388 8.55987 9.77646 8.58709C9.62578 8.82314 9.33327 8.93096 9.06435 8.84695L5.83912 7.92545L1.5 10.5289L1.5 11.4167C1.5 11.7203 1.72727 12 2.15 12L5.125 12L5.125 11.75C5.125 11.4048 5.40482 11.125 5.75 11.125C6.09518 11.125 6.375 11.4048 6.375 11.75L6.375 12L9.125 12L9.125 11.75C9.125 11.4048 9.40482 11.125 9.75 11.125C10.0952 11.125 10.375 11.4048 10.375 11.75L10.375 12L13.35 12C13.7727 12 14 11.7203 14 11.4167L14 2.08333C14 1.77966 13.7727 1.5 13.35 1.5L2.15 1.5Z" fill-rule="EVENODD"></path>
 </g>
</svg>