<svg width="16" height="16" viewBox="0 0 16 16" fill="none" xmlns="http://www.w3.org/2000/svg">
<path fill-rule="evenodd" clip-rule="evenodd" d="M0.25 3.33333C0.25 2.16424 1.18633 1.25 2.4 1.25H13.6C14.8137 1.25 15.75 2.16424 15.75 3.33333V12.6667C15.75 13.8358 14.8137 14.75 13.6 14.75H2.4C1.18633 14.75 0.25 13.8358 0.25 12.6667V3.33333ZM2.4 2.75C1.97727 2.75 1.75 3.02967 1.75 3.33333V10.3212L5.6694 7.96955C5.81408 7.87943 5.99487 7.8485 6.17168 7.89902L9.1495 8.74983L10.5541 5.58951L9.85644 5.90338C9.54165 6.045 9.17166 5.90462 9.03004 5.58983C8.88842 5.27504 9.0288 4.90505 9.34358 4.76343L11.4715 3.8061C11.6227 3.7381 11.7946 3.73292 11.9496 3.79173C12.1046 3.85053 12.2299 3.96849 12.2979 4.11965L13.2552 6.24756C13.3968 6.56234 13.2565 6.93234 12.9417 7.07396C12.6269 7.21558 12.2569 7.0752 12.1153 6.76041L11.7563 5.96242L10.0726 9.75073C10.0593 9.78104 10.0439 9.80987 10.0265 9.83709C9.87578 10.0731 9.58327 10.181 9.31435 10.0969L6.08912 9.17545L1.75 11.7789V12.6667C1.75 12.9703 1.97727 13.25 2.4 13.25H5.375V13C5.375 12.6548 5.65482 12.375 6 12.375C6.34518 12.375 6.625 12.6548 6.625 13V13.25H9.375V13C9.375 12.6548 9.65482 12.375 10 12.375C10.3452 12.375 10.625 12.6548 10.625 13V13.25H13.6C14.0227 13.25 14.25 12.9703 14.25 12.6667V3.33333C14.25 3.02966 14.0227 2.75 13.6 2.75H2.4Z" fill="black"/>
</svg>
