<svg width="16" height="16" viewBox="0 0 16 16" fill="none" xmlns="http://www.w3.org/2000/svg">
<path fill-rule="evenodd" clip-rule="evenodd" d="M2.4 14.75C1.18633 14.75 0.25 13.8358 0.25 12.6667V3.33333C0.25 2.16424 1.18633 1.25 2.4 1.25H13.6C14.8137 1.25 15.75 2.16424 15.75 3.33333V12.6667C15.75 13.8358 14.8137 14.75 13.6 14.75H2.4ZM1.75 3.33333C1.75 3.02967 1.97727 2.75 2.4 2.75H13.6C14.0227 2.75 14.25 3.02966 14.25 3.33333V12.6667C14.25 12.9703 14.0227 13.25 13.6 13.25H10.75V13C10.75 12.5858 10.4142 12.25 10 12.25C9.58579 12.25 9.25 12.5858 9.25 13V13.25H6.75V13C6.75 12.5858 6.41421 12.25 6 12.25C5.58579 12.25 5.25 12.5858 5.25 13V13.25H2.4C1.97727 13.25 1.75 12.9703 1.75 12.6667V11.2003L6.11306 7.70989L9.77292 9.08234C9.78484 9.08698 9.79689 9.09124 9.80904 9.09512C9.9155 9.12937 10.0251 9.13347 10.128 9.11182C10.2283 9.09073 10.3224 9.04523 10.4012 8.97937L12.8904 6.98797C13.16 6.77234 13.2037 6.37904 12.988 6.1095C12.7724 5.83996 12.3791 5.79626 12.1096 6.01189L9.88685 7.79006L6.23219 6.41957C6.20313 6.40797 6.17332 6.39861 6.14303 6.39151C6.06979 6.3742 5.99578 6.37066 5.92408 6.3795C5.82456 6.39158 5.72684 6.42773 5.64007 6.48897C5.62713 6.49807 5.61452 6.50766 5.60227 6.51775L1.75 9.59957V3.33333Z" fill="black"/>
</svg>
