<svg viewbox="0 0 24 24" width="24" height="24" fill="black" xmlns="http://www.w3.org/2000/svg">
 <g transform="translate(1.25, 2.25)">
  <path d="M2.97222 0C1.40699 0 0 1.15884 0 2.75L0 16.75C0 18.3412 1.40699 19.5 2.97222 19.5L18.5278 19.5C20.093 19.5 21.5 18.3412 21.5 16.75L21.5 2.75C21.5 1.15884 20.093 0 18.5278 0L2.97222 0ZM1.5 2.75C1.5 2.13202 2.08285 1.5 2.97222 1.5L18.5278 1.5C19.4171 1.5 20 2.13202 20 2.75L20 16.75C20 17.368 19.4171 18 18.5278 18L14.625 18L14.625 17.5C14.625 17.0168 14.2332 16.625 13.75 16.625C13.2668 16.625 12.875 17.0168 12.875 17.5L12.875 18L8.625 18L8.625 17.5C8.625 17.0168 8.23325 16.625 7.75 16.625C7.26675 16.625 6.875 17.0168 6.875 17.5L6.875 18L2.97222 18C2.08285 18 1.5 17.368 1.5 16.75L1.5 14.4683C1.528 14.4487 1.55516 14.4273 1.58132 14.4041L7.88865 8.79755L13.3433 11.5249C13.3753 11.5417 13.4083 11.5564 13.442 11.569C13.578 11.6203 13.7203 11.6355 13.8574 11.6184C13.9612 11.6057 14.0637 11.5742 14.1596 11.5232C14.2061 11.4987 14.2505 11.4698 14.2922 11.437L18.275 8.4499C18.6616 8.15995 18.7399 7.6115 18.45 7.2249C18.16 6.8383 17.6116 6.75995 17.225 7.0499L13.6576 9.72546L8.15354 6.97344C8.1264 6.95934 8.09864 6.94675 8.07041 6.93566C7.90327 6.86968 7.72585 6.85882 7.56008 6.89579C7.47993 6.91353 7.40164 6.94271 7.32777 6.98349C7.26417 7.01845 7.20463 7.06146 7.15086 7.11195L1.5 12.1349L1.5 2.75Z" fill-rule="EVENODD"></path>
 </g>
</svg>