<svg viewbox="0 0 16 16" width="16" height="16" fill="black" xmlns="http://www.w3.org/2000/svg">
 <g transform="translate(0.75, 0.75)">
  <path d="M10.5165 0.000151907C9.46284 -0.00900378 8.44777 0.396034 7.68988 1.12803L6.55779 2.25343C6.26404 2.54547 6.26266 3.02034 6.55469 3.31408C6.84673 3.60783 7.3216 3.60921 7.61535 3.31718L8.73559 2.20345C9.21019 1.74691 9.84479 1.49437 10.5034 1.5001C11.1638 1.50583 11.7954 1.7707 12.2624 2.23764C12.7293 2.70458 12.9942 3.33624 12.9999 3.99657C13.0056 4.65486 12.7534 5.28915 12.2973 5.76366L10.341 7.71992C10.0857 7.97532 9.77844 8.17283 9.44008 8.29905C9.10172 8.42527 8.74018 8.47724 8.37997 8.45144C8.01976 8.42565 7.66931 8.32268 7.35239 8.14954C7.03547 7.97639 6.7595 7.73711 6.54318 7.44793C6.29508 7.11624 5.82506 7.04848 5.49338 7.29659C5.16169 7.54469 5.09393 8.01471 5.34204 8.34639C5.68718 8.80781 6.12753 9.18961 6.63321 9.46589C7.13888 9.74216 7.69806 9.90645 8.27281 9.94761C8.84757 9.98878 9.42445 9.90585 9.96434 9.70445C10.5042 9.50308 10.9945 9.18787 11.4019 8.78039L13.3629 6.81949L13.372 6.81012C14.104 6.05223 14.509 5.03716 14.4998 3.98353C14.4907 2.92991 14.0681 1.92203 13.323 1.17698C12.578 0.431924 11.5701 0.0093076 10.5165 0.000151907Z" fill-rule="NONZERO"></path>
  <path d="M6.22718 4.53932C5.65243 4.49816 5.07555 4.58108 4.53566 4.78248C3.99582 4.98385 3.5055 5.29907 3.09814 5.70655L1.13708 7.66744L1.12803 7.67682C0.396033 8.4347 -0.00900378 9.44978 0.000151907 10.5034C0.0093076 11.557 0.431924 12.5649 1.17698 13.31C1.92203 14.055 2.92991 14.4776 3.98353 14.4868C5.03716 14.4959 6.05231 14.091 6.81019 13.359L7.93722 12.232C8.23012 11.9391 8.23012 11.4642 7.93722 11.1713C7.64433 10.8784 7.16946 10.8784 6.87656 11.1713L5.76366 12.2842C5.28915 12.7403 4.65486 12.9926 3.99657 12.9868C3.33624 12.9811 2.70458 12.7162 2.23764 12.2493C1.7707 11.7824 1.50583 11.1507 1.5001 10.4904C1.49437 9.83207 1.74664 9.19778 2.20273 8.72327L4.15899 6.76701C4.4143 6.51161 4.72156 6.3141 5.05992 6.18788C5.39828 6.06166 5.75982 6.00969 6.12003 6.03549C6.48024 6.06128 6.83069 6.16425 7.14761 6.3374C7.46453 6.51054 7.7405 6.74982 7.95681 7.03901C8.20492 7.37069 8.67493 7.43845 9.00662 7.19035C9.33831 6.94224 9.40607 6.47223 9.15796 6.14054C8.81281 5.67912 8.37247 5.29732 7.86679 5.02105C7.36112 4.74477 6.80194 4.58048 6.22718 4.53932Z" fill-rule="NONZERO"></path>
 </g>
</svg>