<svg width="16" height="16" viewBox="0 0 16 16" fill="none" xmlns="http://www.w3.org/2000/svg">
<path d="M11.2665 0.750152C10.2128 0.740996 9.19777 1.14603 8.43988 1.87803L7.30779 3.00343C7.01404 3.29547 7.01266 3.77034 7.30469 4.06408C7.59673 4.35783 8.0716 4.35921 8.36535 4.06718L9.48559 2.95345C9.96019 2.49691 10.5948 2.24437 11.2534 2.2501C11.9138 2.25583 12.5454 2.5207 13.0124 2.98764C13.4793 3.45458 13.7442 4.08624 13.7499 4.74657C13.7556 5.40486 13.5034 6.03915 13.0473 6.51366L11.091 8.46992C10.8357 8.72532 10.5284 8.92283 10.1901 9.04905C9.85172 9.17527 9.49018 9.22724 9.12997 9.20144C8.76976 9.17565 8.41931 9.07268 8.10239 8.89954C7.78547 8.72639 7.5095 8.48711 7.29318 8.19793C7.04508 7.86624 6.57506 7.79848 6.24338 8.04659C5.91169 8.29469 5.84393 8.76471 6.09204 9.09639C6.43718 9.55781 6.87753 9.93961 7.38321 10.2159C7.88888 10.4922 8.44806 10.6564 9.02281 10.6976C9.59757 10.7388 10.1745 10.6558 10.7143 10.4545C11.2542 10.2531 11.7445 9.93787 12.1519 9.53039L14.1129 7.56949L14.122 7.56012C14.854 6.80223 15.259 5.78716 15.2498 4.73353C15.2407 3.67991 14.8181 2.67203 14.073 1.92698C13.328 1.18192 12.3201 0.759308 11.2665 0.750152Z" fill="black"/>
<path d="M6.97718 5.28932C6.40243 5.24816 5.82555 5.33108 5.28566 5.53248C4.74582 5.73385 4.2555 6.04907 3.84814 6.45655L1.88708 8.41744L1.87803 8.42682C1.14603 9.1847 0.740996 10.1998 0.750152 11.2534C0.759308 12.307 1.18192 13.3149 1.92698 14.06C2.67203 14.805 3.67991 15.2276 4.73353 15.2368C5.78716 15.2459 6.80231 14.841 7.56019 14.109L8.68722 12.982C8.98012 12.6891 8.98012 12.2142 8.68722 11.9213C8.39433 11.6284 7.91946 11.6284 7.62656 11.9213L6.51366 13.0342C6.03915 13.4903 5.40486 13.7426 4.74657 13.7368C4.08624 13.7311 3.45458 13.4662 2.98764 12.9993C2.5207 12.5324 2.25583 11.9007 2.2501 11.2404C2.24437 10.5821 2.49664 9.94778 2.95273 9.47327L4.90899 7.51701C5.1643 7.26161 5.47156 7.0641 5.80992 6.93788C6.14828 6.81166 6.50982 6.75969 6.87003 6.78549C7.23024 6.81128 7.58069 6.91425 7.89761 7.0874C8.21453 7.26054 8.4905 7.49982 8.70681 7.78901C8.95492 8.12069 9.42493 8.18845 9.75662 7.94035C10.0883 7.69224 10.1561 7.22223 9.90796 6.89054C9.56281 6.42912 9.12247 6.04732 8.61679 5.77105C8.11112 5.49477 7.55194 5.33048 6.97718 5.28932Z" fill="black"/>
</svg>
