<svg width="24" height="24" viewBox="0 0 24 24" fill="none" xmlns="http://www.w3.org/2000/svg">
<path d="M5.25 6C5.25 5.58579 5.58579 5.25 6 5.25H19C19.4142 5.25 19.75 5.58579 19.75 6C19.75 6.41421 19.4142 6.75 19 6.75H6C5.58579 6.75 5.25 6.41421 5.25 6Z" fill="black"/>
<path d="M5.25 12C5.25 11.5858 5.58579 11.25 6 11.25H19C19.4142 11.25 19.75 11.5858 19.75 12C19.75 12.4142 19.4142 12.75 19 12.75H6C5.58579 12.75 5.25 12.4142 5.25 12Z" fill="black"/>
<path d="M6 17.25C5.58579 17.25 5.25 17.5858 5.25 18C5.25 18.4142 5.58579 18.75 6 18.75H19C19.4142 18.75 19.75 18.4142 19.75 18C19.75 17.5858 19.4142 17.25 19 17.25H6Z" fill="black"/>
</svg>
