<svg viewBox="0 0 16 16" width="16" height="16" fill="black" xmlns="http://www.w3.org/2000/svg">
 <g transform="translate(3.25, 3.25)">
  <path d="M0 0.75C0 0.335786 0.335786 0 0.75 0L8.75 0C9.16421 0 9.5 0.335786 9.5 0.75C9.5 1.16421 9.16421 1.5 8.75 1.5L0.75 1.5C0.335786 1.5 0 1.16421 0 0.75Z" fill-rule="NONZERO"></path>
  <path d="M0 4.75C0 4.33579 0.335786 4 0.75 4L8.75 4C9.16421 4 9.5 4.33579 9.5 4.75C9.5 5.16421 9.16421 5.5 8.75 5.5L0.75 5.5C0.335786 5.5 0 5.16421 0 4.75Z" fill-rule="NONZERO"></path>
  <path d="M0.75 8C0.335786 8 0 8.33579 0 8.75C0 9.16421 0.335786 9.5 0.75 9.5L8.75 9.5C9.16421 9.5 9.5 9.16421 9.5 8.75C9.5 8.33579 9.16421 8 8.75 8L0.75 8Z" fill-rule="NONZERO"></path>
 </g>
</svg>