<svg width="16" height="16" viewBox="0 0 16 16" fill="none" xmlns="http://www.w3.org/2000/svg">
<path d="M3.25 4C3.25 3.58579 3.58579 3.25 4 3.25H12C12.4142 3.25 12.75 3.58579 12.75 4C12.75 4.41421 12.4142 4.75 12 4.75H4C3.58579 4.75 3.25 4.41421 3.25 4Z" fill="black"/>
<path d="M3.25 8C3.25 7.58579 3.58579 7.25 4 7.25H12C12.4142 7.25 12.75 7.58579 12.75 8C12.75 8.41421 12.4142 8.75 12 8.75H4C3.58579 8.75 3.25 8.41421 3.25 8Z" fill="black"/>
<path d="M4 11.25C3.58579 11.25 3.25 11.5858 3.25 12C3.25 12.4142 3.58579 12.75 4 12.75H12C12.4142 12.75 12.75 12.4142 12.75 12C12.75 11.5858 12.4142 11.25 12 11.25H4Z" fill="black"/>
</svg>
