<svg viewbox="0 0 16 16" width="16" height="16" fill="black" xmlns="http://www.w3.org/2000/svg">
 <g transform="translate(0.25, 0.25)">
  <path d="M1.28033 0.21967C0.987437 -0.0732233 0.512563 -0.0732233 0.21967 0.21967C-0.0732233 0.512563 -0.0732233 0.987437 0.21967 1.28033L4.93934 6L3.08333 6C1.93274 6 1 6.93274 1 8.08333L1 13.4167C1 14.5673 1.93274 15.5 3.08333 15.5L12.4167 15.5C12.9771 15.5 13.4851 15.2787 13.8591 14.9197L14.2197 15.2803C14.5126 15.5732 14.9874 15.5732 15.2803 15.2803C15.5732 14.9874 15.5732 14.5126 15.2803 14.2197L7.2804 6.21974C7.28045 6.21979 7.28035 6.21969 7.2804 6.21974L1.28033 0.21967ZM6.43934 7.5L3.08333 7.5C2.76117 7.5 2.5 7.76117 2.5 8.08333L2.5 13.4167C2.5 13.7388 2.76117 14 3.08333 14L12.4167 14C12.5618 14 12.6952 13.947 12.7978 13.8584L6.43934 7.5Z" fill-rule="EVENODD"></path>
  <path d="M7.75005 2C7.11037 2 6.49039 2.26441 6.02835 2.74571C5.74149 3.04452 5.26672 3.05421 4.96791 2.76735C4.6691 2.48049 4.65941 2.00572 4.94627 1.70691C5.68445 0.937967 6.69233 0.5 7.75005 0.5C8.80776 0.5 9.81564 0.937966 10.5538 1.70691C11.291 2.47482 11.7 3.51002 11.7 4.58333L11.7 6L12.4167 6C13.5673 6 14.5 6.93274 14.5 8.08333L14.5 10.25C14.5 10.6642 14.1642 11 13.75 11C13.3358 11 13 10.6642 13 10.25L13 8.08333C13 7.76117 12.7388 7.5 12.4167 7.5L10.25 7.5C9.83579 7.5 9.5 7.16421 9.5 6.75C9.5 6.35257 9.80912 6.02734 10.2 6.00164L10.2 4.58333C10.2 3.88854 9.93479 3.22805 9.47175 2.74571C9.0097 2.26441 8.38972 2 7.75005 2Z" fill-rule="NONZERO"></path>
 </g>
</svg>