<svg width="24" height="24" viewBox="0 0 24 24" fill="none" xmlns="http://www.w3.org/2000/svg">
<path fill-rule="evenodd" clip-rule="evenodd" d="M1.53033 0.46967C1.23744 0.176777 0.762563 0.176777 0.46967 0.46967C0.176777 0.762563 0.176777 1.23744 0.46967 1.53033L6.25 7.31066V10.25H5C3.48122 10.25 2.25 11.4812 2.25 13V20C2.25 21.5188 3.48122 22.75 5 22.75H19C19.7445 22.75 20.4192 22.4542 20.9139 21.9746L22.4697 23.5303C22.7626 23.8232 23.2374 23.8232 23.5303 23.5303C23.8232 23.2374 23.8232 22.7626 23.5303 22.4697L21.3658 20.3051C21.3578 20.2967 21.3496 20.2886 21.3412 20.2806L1.53033 0.46967ZM19.8531 20.9138L10.6893 11.75H5C4.30964 11.75 3.75 12.3096 3.75 13V20C3.75 20.6904 4.30964 21.25 5 21.25H19C19.3292 21.25 19.6294 21.1227 19.8531 20.9138ZM9.18934 10.25L7.75 8.81066V10.25H9.18934Z" fill="black"/>
<path d="M12 2.75C10.8728 2.75 9.79183 3.19777 8.9948 3.9948C8.88485 4.10474 8.78157 4.22007 8.6852 4.34016C8.42595 4.66322 7.95391 4.71495 7.63085 4.45571C7.30779 4.19647 7.25606 3.72442 7.5153 3.40136C7.64571 3.23886 7.78544 3.08283 7.93414 2.93414C9.01247 1.8558 10.475 1.25 12 1.25C13.525 1.25 14.9875 1.8558 16.0659 2.93414C17.1442 4.01247 17.75 5.47501 17.75 7V10.25H19C20.5188 10.25 21.75 11.4812 21.75 13V16.5C21.75 16.9142 21.4142 17.25 21 17.25C20.5858 17.25 20.25 16.9142 20.25 16.5V13C20.25 12.3096 19.6904 11.75 19 11.75H15.5C15.0858 11.75 14.75 11.4142 14.75 11C14.75 10.5858 15.0858 10.25 15.5 10.25H16.25V7C16.25 5.87283 15.8022 4.79183 15.0052 3.9948C14.2082 3.19777 13.1272 2.75 12 2.75Z" fill="black"/>
</svg>
