<svg viewbox="0 0 16 16" width="16" height="16" fill="black" xmlns="http://www.w3.org/2000/svg">
 <g transform="translate(1.25, 0.75)">
  <path d="M6.75 9.5C7.16421 9.5 7.5 9.83579 7.5 10.25L7.5 11.25C7.5 11.6642 7.16421 12 6.75 12C6.33579 12 6 11.6642 6 11.25L6 10.25C6 9.83579 6.33579 9.5 6.75 9.5Z" fill-rule="NONZERO"></path>
  <path d="M2.79999 5.5L2.79999 4.08333C2.79999 3.01002 3.20902 1.97482 3.94621 1.20691C4.68439 0.437967 5.69227 0 6.74999 0C7.8077 0 8.81558 0.437967 9.55377 1.20691C10.291 1.97482 10.7 3.01002 10.7 4.08333L10.7 5.5L11.4167 5.5C12.5673 5.5 13.5 6.43274 13.5 7.58333L13.5 12.9167C13.5 14.0673 12.5673 15 11.4167 15L2.08333 15C0.93274 15 0 14.0673 0 12.9167L0 7.58333C0 6.43274 0.93274 5.5 2.08333 5.5L2.79999 5.5ZM5.02829 2.24571C5.49033 1.76441 6.11032 1.5 6.74999 1.5C7.38966 1.5 8.00964 1.76441 8.47169 2.24571C8.93473 2.72805 9.19999 3.38854 9.19999 4.08333L9.19999 5.5L4.29999 5.5L4.29999 4.08333C4.29999 3.38854 4.56524 2.72805 5.02829 2.24571ZM11.4167 7C11.7388 7 12 7.26117 12 7.58333L12 12.9167C12 13.2388 11.7388 13.5 11.4167 13.5L2.08333 13.5C1.76117 13.5 1.5 13.2388 1.5 12.9167L1.5 7.58333C1.5 7.26117 1.76117 7 2.08333 7L11.4167 7Z" fill-rule="EVENODD"></path>
 </g>
</svg>