<svg width="24" height="24" viewBox="0 0 24 24" fill="none" xmlns="http://www.w3.org/2000/svg">
<path fill-rule="evenodd" clip-rule="evenodd" d="M6.25 10.25V7C6.25 5.47501 6.8558 4.01247 7.93414 2.93414C9.01247 1.8558 10.475 1.25 12 1.25C13.525 1.25 14.9875 1.8558 16.0659 2.93414C17.1442 4.01247 17.75 5.47501 17.75 7V10.25H19C20.5188 10.25 21.75 11.4812 21.75 13V20C21.75 21.5188 20.5188 22.75 19 22.75H5C3.48122 22.75 2.25 21.5188 2.25 20V13C2.25 11.4812 3.48122 10.25 5 10.25H6.25ZM8.9948 3.9948C9.79183 3.19777 10.8728 2.75 12 2.75C13.1272 2.75 14.2082 3.19777 15.0052 3.9948C15.8022 4.79183 16.25 5.87283 16.25 7V10.25H7.75V7C7.75 5.87283 8.19777 4.79183 8.9948 3.9948ZM12 15C11.4477 15 11 15.4477 11 16V19C11 19.5523 11.4477 20 12 20C12.5523 20 13 19.5523 13 19V16C13 15.4477 12.5523 15 12 15Z" fill="black"/>
</svg>
