<svg viewbox="0 0 16 16" width="16" height="16" fill="black" xmlns="http://www.w3.org/2000/svg">
 <g transform="translate(1.25, 1.25)">
  <path d="M2.08333 1.5C1.92862 1.5 1.78025 1.56146 1.67085 1.67085C1.56146 1.78025 1.5 1.92862 1.5 2.08333L1.5 11.4167C1.5 11.5714 1.56146 11.7197 1.67085 11.8291C1.78025 11.9385 1.92862 12 2.08333 12L4.75 12C5.16421 12 5.5 12.3358 5.5 12.75C5.5 13.1642 5.16421 13.5 4.75 13.5L2.08333 13.5C1.5308 13.5 1.00089 13.2805 0.610194 12.8898C0.219493 12.4991 0 11.9692 0 11.4167L0 2.08333C0 1.5308 0.219493 1.0009 0.610194 0.610194C1.0009 0.219493 1.5308 0 2.08333 0L4.75 0C5.16421 0 5.5 0.335786 5.5 0.75C5.5 1.16421 5.16421 1.5 4.75 1.5L2.08333 1.5Z" fill-rule="NONZERO"></path>
  <path d="M8.71967 2.71967C9.01256 2.42678 9.48744 2.42678 9.78033 2.71967L13.2803 6.21967C13.5732 6.51256 13.5732 6.98744 13.2803 7.28033L9.78033 10.7803C9.48744 11.0732 9.01256 11.0732 8.71967 10.7803C8.42678 10.4874 8.42678 10.0126 8.71967 9.71967L10.9393 7.5L4.75 7.5C4.33579 7.5 4 7.16421 4 6.75C4 6.33579 4.33579 6 4.75 6L10.9393 6L8.71967 3.78033C8.42678 3.48744 8.42678 3.01256 8.71967 2.71967Z" fill-rule="NONZERO"></path>
 </g>
</svg>