<svg viewbox="0 0 16 16" width="16" height="16" fill="black" xmlns="http://www.w3.org/2000/svg">
 <g transform="translate(1.25, 1.25)">
  <path d="M8 0.75C8 0.335786 8.33579 0 8.75 0L11.4167 0C11.9692 0 12.4991 0.219493 12.8898 0.610194C13.2805 1.00089 13.5 1.5308 13.5 2.08333L13.5 11.4167C13.5 11.9692 13.2805 12.4991 12.8898 12.8898C12.4991 13.2805 11.9692 13.5 11.4167 13.5L8.75 13.5C8.33579 13.5 8 13.1642 8 12.75C8 12.3358 8.33579 12 8.75 12L11.4167 12C11.5714 12 11.7197 11.9385 11.8291 11.8291C11.9385 11.7197 12 11.5714 12 11.4167L12 2.08333C12 1.92862 11.9385 1.78025 11.8291 1.67085C11.7197 1.56146 11.5714 1.5 11.4167 1.5L8.75 1.5C8.33579 1.5 8 1.16421 8 0.75Z" fill-rule="NONZERO"></path>
  <path d="M4.71967 2.71967C5.01256 2.42678 5.48744 2.42678 5.78033 2.71967L9.28033 6.21967C9.42098 6.36032 9.5 6.55109 9.5 6.75C9.5 6.94891 9.42098 7.13968 9.28033 7.28033L5.78033 10.7803C5.48744 11.0732 5.01256 11.0732 4.71967 10.7803C4.42678 10.4874 4.42678 10.0126 4.71967 9.71967L6.93934 7.5L0.75 7.5C0.335786 7.5 0 7.16421 0 6.75C0 6.33579 0.335786 6 0.75 6L6.93934 6L4.71967 3.78033C4.42678 3.48744 4.42678 3.01256 4.71967 2.71967Z" fill-rule="NONZERO"></path>
 </g>
</svg>