<svg width="16" height="16" viewBox="0 0 16 16" fill="none" xmlns="http://www.w3.org/2000/svg">
<path fill-rule="evenodd" clip-rule="evenodd" d="M8.83563 0.526406C8.2992 0.311836 7.7008 0.311836 7.16437 0.526406L1.66437 2.72641C0.81014 3.0681 0.25 3.89544 0.25 4.81548V12.7999C0.25 14.0426 1.25736 15.0499 2.5 15.0499H13.5C14.7426 15.0499 15.75 14.0426 15.75 12.7999V4.81548C15.75 3.89544 15.1899 3.0681 14.3356 2.72641L8.83563 0.526406ZM7.72146 1.91912C7.90027 1.8476 8.09974 1.8476 8.27854 1.91912L13.7785 4.11912C13.8874 4.16265 13.9819 4.22983 14.0571 4.31334L7.99998 8.63987L1.94287 4.31336C2.01811 4.22984 2.11262 4.16266 2.22146 4.11912L7.72146 1.91912ZM1.75 5.89606V12.1758L5.19022 8.35336L1.75 5.89606ZM2.40247 13.5436C2.43439 13.5478 2.46695 13.5499 2.5 13.5499H13.5C13.533 13.5499 13.5656 13.5478 13.5975 13.5436L9.66326 9.17228L8.40685 10.0697C8.16346 10.2436 7.8365 10.2436 7.59311 10.0697L6.3367 9.17228L2.40247 13.5436ZM14.25 12.1759V5.89604L10.8097 8.35336L14.25 12.1759Z" fill="black"/>
</svg>
