<svg width="16" height="16" viewBox="0 0 16 16" fill="none" xmlns="http://www.w3.org/2000/svg">
<path fill-rule="evenodd" clip-rule="evenodd" d="M0.25 3.4C0.25 2.21579 1.21579 1.25 2.4 1.25H13.6C14.7842 1.25 15.75 2.21579 15.75 3.4V12.6C15.75 13.7842 14.7842 14.75 13.6 14.75H2.4C1.21579 14.75 0.25 13.7842 0.25 12.6V3.4ZM2.4 2.75C2.04421 2.75 1.75 3.04421 1.75 3.4V3.69913L8.00002 8.60985L14.25 3.69915V3.4C14.25 3.04421 13.9558 2.75 13.6 2.75H2.4ZM1.75 12.1759V5.47958L5.28026 8.25335L1.75 12.1759ZM2.66678 13.25H13.3332L9.61646 9.12024L8.43249 10.0505C8.17866 10.2499 7.82137 10.2499 7.56754 10.0505L6.38357 9.12023L2.66678 13.25ZM10.7198 8.25335L14.25 12.1758V5.4796L10.7198 8.25335Z" fill="black"/>
</svg>
