<svg width="24" height="24" viewBox="0 0 24 24" fill="none" xmlns="http://www.w3.org/2000/svg">
<path fill-rule="evenodd" clip-rule="evenodd" d="M4 3.25C2.4898 3.25 1.25655 4.47925 1.25003 5.98797L1.25 18C1.25 19.5142 2.48579 20.75 4 20.75H20C21.5142 20.75 22.75 19.5142 22.75 18V6.00953C22.7431 4.50109 21.51 3.25 20 3.25H4ZM4 4.75C3.43703 4.75 2.95599 5.13022 2.80174 5.64579L12 12.0846L21.1983 5.6458C21.044 5.13022 20.563 4.75 20 4.75H4ZM21.25 16.1894V7.44056L16.1036 11.043L21.25 16.1894ZM14.8558 11.9165L21.2182 18.2789C21.0901 18.8323 20.59 19.25 20 19.25H4C3.40996 19.25 2.90991 18.8323 2.78179 18.2789L9.14421 11.9165L11.5699 13.6145C11.8281 13.7953 12.1719 13.7953 12.4301 13.6145L14.8558 11.9165ZM2.75 7.44055V16.1894L7.89638 11.043L2.75 7.44055Z" fill="black"/>
</svg>
