<svg viewbox="0 0 16 16" width="16" height="16" fill="black" xmlns="http://www.w3.org/2000/svg">
 <g transform="translate(0.25, 0.365478515625)">
  <path d="M8.58563 0.160927C8.0492 -0.0536424 7.4508 -0.0536425 6.91437 0.160927L1.41437 2.36093C0.56014 2.70262 0 3.52996 0 4.45L0 12.4344C0 13.6771 1.00736 14.6844 2.25 14.6844L13.25 14.6844C14.4926 14.6844 15.5 13.6771 15.5 12.4345L15.5 4.45C15.5 3.52996 14.9399 2.70262 14.0856 2.36093L8.58563 0.160927ZM7.47146 1.55364C7.65027 1.48212 7.84974 1.48212 8.02854 1.55364L13.5285 3.75364C13.6374 3.79717 13.7319 3.86435 13.8071 3.94787L7.74998 8.27439L1.69287 3.94788C1.76811 3.86436 1.86262 3.79718 1.97146 3.75364L7.47146 1.55364ZM1.5 5.53058L1.5 11.8103L4.94022 7.98788L1.5 5.53058ZM2.15247 13.1782C2.18439 13.1823 2.21695 13.1844 2.25 13.1844L13.25 13.1844C13.283 13.1844 13.3156 13.1823 13.3475 13.1782L9.41326 8.8068L8.15685 9.70424C7.91346 9.87809 7.5865 9.87809 7.34311 9.70424L6.0867 8.8068L2.15247 13.1782ZM14 11.8104L14 5.53056L10.5597 7.98788L14 11.8104Z" fill-rule="EVENODD"></path>
 </g>
</svg>