<svg width="24" height="24" viewBox="0 0 24 24" fill="none" xmlns="http://www.w3.org/2000/svg">
<path fill-rule="evenodd" clip-rule="evenodd" d="M1.25 7.01293V18C1.25 19.5188 2.48122 20.75 4 20.75H20C21.5188 20.75 22.75 19.5188 22.75 18V6.35405C22.75 5.22956 22.0654 4.21837 21.0213 3.80074L13.0213 0.600742C12.3657 0.33849 11.6343 0.33849 10.9787 0.600742L2.97868 3.80074C1.93462 4.21837 1.25 5.22956 1.25 6.35405V6.98588C1.24984 6.9949 1.24984 7.00392 1.25 7.01293ZM11.5358 1.99346C11.8338 1.87425 12.1662 1.87425 12.4642 1.99346L20.4642 5.19346C20.9199 5.37574 21.225 5.8068 21.2485 6.29335C21.1973 6.31162 21.1474 6.33576 21.0995 6.366L11.9899 12.1194L2.75 6.57548V6.35405C2.75 5.84292 3.06119 5.38329 3.53576 5.19346L11.5358 1.99346ZM2.75 8.32476L7.66539 11.274L2.75 16.1894V8.32476ZM2.78134 18.2794C2.90825 18.8352 3.40569 19.25 4 19.25H20C20.5943 19.25 21.0917 18.8352 21.2187 18.2794L14.9581 12.0189L12.4005 13.6342C12.1611 13.7854 11.8569 13.7889 11.6141 13.6432L8.99122 12.0695L2.78134 18.2794ZM21.25 16.1894V8.04506L16.2583 11.1977L21.25 16.1894Z" fill="black"/>
</svg>
