<svg width="16" height="16" viewBox="0 0 16 16" fill="none" xmlns="http://www.w3.org/2000/svg">
<path fill-rule="evenodd" clip-rule="evenodd" d="M7.99999 4.30005C6.50882 4.30005 5.29999 5.50888 5.29999 7.00005C5.29999 8.49122 6.50882 9.70005 7.99999 9.70005C9.49116 9.70005 10.7 8.49122 10.7 7.00005C10.7 5.50888 9.49116 4.30005 7.99999 4.30005ZM6.69999 7.00005C6.69999 6.28208 7.28202 5.70005 7.99999 5.70005C8.71796 5.70005 9.29999 6.28208 9.29999 7.00005C9.29999 7.71802 8.71796 8.30005 7.99999 8.30005C7.28202 8.30005 6.69999 7.71802 6.69999 7.00005Z" fill="black"/>
<path fill-rule="evenodd" clip-rule="evenodd" d="M8 0.25C4.27208 0.25 1.25 3.27208 1.25 7C1.25 8.86375 2.00634 10.5523 3.22703 11.773C3.23774 11.7837 3.24877 11.7941 3.26011 11.8041L7.50275 15.5615C7.7866 15.8128 8.2134 15.8128 8.49725 15.5615L12.7399 11.8041C12.7512 11.7941 12.7623 11.7837 12.773 11.773C13.9937 10.5523 14.75 8.86375 14.75 7C14.75 3.27208 11.7279 0.25 8 0.25ZM2.75 7C2.75 4.10051 5.10051 1.75 8 1.75C10.8995 1.75 13.25 4.10051 13.25 7C13.25 8.44205 12.6696 9.74713 11.7278 10.6967L8 13.9982L4.27218 10.6967C3.33043 9.74713 2.75 8.44205 2.75 7Z" fill="black"/>
</svg>
