<svg viewBox="0 0 24 24" width="24" height="24" fill="black" xmlns="http://www.w3.org/2000/svg">
 <g transform="translate(0.25, 1.25)">
  <path d="M7.3779 0.0988179C7.59562 -0.0255963 7.86112 -0.0329656 8.08541 0.0791798L15.7264 3.89967L22.3779 0.0988179C22.61 -0.0338262 22.8952 -0.0328739 23.1264 0.101318C23.3577 0.235509 23.5 0.482648 23.5 0.75L23.5 16.75C23.5 17.0191 23.3558 17.2677 23.1221 17.4012L16.1221 21.4012C15.9044 21.5256 15.6389 21.533 15.4146 21.4208L7.7736 17.6003L1.1221 21.4012C0.889977 21.5338 0.604791 21.5329 0.373555 21.3987C0.142319 21.2645 0 21.0174 0 20.75L0 4.75C0 4.48086 0.144215 4.23235 0.377896 4.09882L7.3779 0.0988179ZM1.5 5.18524L7 2.04239L7 16.3148L1.5 19.4576L1.5 5.18524ZM15 19.5365L8.5 16.2865L8.5 1.96353L15 5.21353L15 19.5365ZM16.5 19.4576L22 16.3148L22 2.04239L16.5 5.18524L16.5 19.4576Z" fill-rule="EVENODD"></path>
 </g>
</svg>