<svg width="16" height="16" viewBox="0 0 16 16" fill="none" xmlns="http://www.w3.org/2000/svg">
<path d="M10 1.25C9.58579 1.25 9.25 1.58579 9.25 2C9.25 2.41421 9.58579 2.75 10 2.75H12.1893L8.96967 5.96967C8.67678 6.26256 8.67678 6.73744 8.96967 7.03033C9.26256 7.32322 9.73744 7.32322 10.0303 7.03033L13.25 3.81066V6C13.25 6.41421 13.5858 6.75 14 6.75C14.4142 6.75 14.75 6.41421 14.75 6V2C14.75 1.89831 14.7298 1.80134 14.6931 1.71291C14.6565 1.62445 14.6022 1.54158 14.5303 1.46967C14.4584 1.39776 14.3755 1.34351 14.2871 1.30691C14.1987 1.27024 14.1017 1.25 14 1.25H10Z" fill="black"/>
<path d="M2.75 10C2.75 9.58579 2.41421 9.25 2 9.25C1.58579 9.25 1.25 9.58579 1.25 10V14C1.25 14.1017 1.27024 14.1987 1.30691 14.2871C1.34351 14.3755 1.39776 14.4584 1.46967 14.5303C1.54158 14.6022 1.62445 14.6565 1.71291 14.6931C1.80134 14.7298 1.89831 14.75 2 14.75H6C6.41421 14.75 6.75 14.4142 6.75 14C6.75 13.5858 6.41421 13.25 6 13.25H3.81066L7.03033 10.0303C7.32322 9.73744 7.32322 9.26256 7.03033 8.96967C6.73744 8.67678 6.26256 8.67678 5.96967 8.96967L2.75 12.1893V10Z" fill="black"/>
</svg>
