<svg viewbox="0 0 16 16" width="16" height="16" fill="black" xmlns="http://www.w3.org/2000/svg">
 <g transform="translate(1.25, 1.25)">
  <path d="M8.75 0C8.33579 0 8 0.335786 8 0.75C8 1.16421 8.33579 1.5 8.75 1.5L10.9393 1.5L7.71967 4.71967C7.42678 5.01256 7.42678 5.48744 7.71967 5.78033C8.01256 6.07322 8.48744 6.07322 8.78033 5.78033L12 2.56066L12 4.75C12 5.16421 12.3358 5.5 12.75 5.5C13.1642 5.5 13.5 5.16421 13.5 4.75L13.5 0.75C13.5 0.648308 13.4798 0.551342 13.4431 0.462912C13.4065 0.374453 13.3522 0.291577 13.2803 0.21967C13.2084 0.147762 13.1255 0.0935089 13.0371 0.0569091C12.9487 0.0202391 12.8517 0 12.75 0L8.75 0Z" fill-rule="NONZERO"></path>
  <path d="M1.5 8.75C1.5 8.33579 1.16421 8 0.75 8C0.335786 8 0 8.33579 0 8.75L0 12.75C0 12.8517 0.0202391 12.9487 0.0569091 13.0371C0.093509 13.1255 0.147763 13.2084 0.21967 13.2803C0.291577 13.3522 0.374453 13.4065 0.462912 13.4431C0.551342 13.4798 0.648308 13.5 0.75 13.5L4.75 13.5C5.16421 13.5 5.5 13.1642 5.5 12.75C5.5 12.3358 5.16421 12 4.75 12L2.56066 12L5.78033 8.78033C6.07322 8.48744 6.07322 8.01256 5.78033 7.71967C5.48744 7.42678 5.01256 7.42678 4.71967 7.71967L1.5 10.9393L1.5 8.75Z" fill-rule="NONZERO"></path>
 </g>
</svg>