<svg viewBox="0 0 24 24" width="24" height="24" fill="black" xmlns="http://www.w3.org/2000/svg">
 <g transform="translate(1.25, 1.25)">
  <path d="M6.75 13C6.33579 13 6 13.3358 6 13.75C6 14.1642 6.33579 14.5 6.75 14.5L14.75 14.5C15.1642 14.5 15.5 14.1642 15.5 13.75C15.5 13.3358 15.1642 13 14.75 13L6.75 13Z" fill-rule="NONZERO"></path>
  <path d="M6.75 7.75C6.75 7.19772 7.19772 6.75 7.75 6.75L7.76 6.75C8.31228 6.75 8.76 7.19772 8.76 7.75C8.76 8.30228 8.31228 8.75 7.76 8.75L7.75 8.75C7.19772 8.75 6.75 8.30228 6.75 7.75Z" fill-rule="NONZERO"></path>
  <path d="M13.75 6.75C13.1977 6.75 12.75 7.19772 12.75 7.75C12.75 8.30228 13.1977 8.75 13.75 8.75L13.76 8.75C14.3123 8.75 14.76 8.30228 14.76 7.75C14.76 7.19772 14.3123 6.75 13.76 6.75L13.75 6.75Z" fill-rule="NONZERO"></path>
  <path d="M10.75 0C4.81294 0 0 4.81294 0 10.75C0 16.6871 4.81294 21.5 10.75 21.5C16.6871 21.5 21.5 16.6871 21.5 10.75C21.5 4.81294 16.6871 0 10.75 0ZM1.5 10.75C1.5 5.64137 5.64137 1.5 10.75 1.5C15.8586 1.5 20 5.64137 20 10.75C20 15.8586 15.8586 20 10.75 20C5.64137 20 1.5 15.8586 1.5 10.75Z" fill-rule="EVENODD"></path>
 </g>
</svg>