<svg width="24" height="24" viewBox="0 0 24 24" fill="none" xmlns="http://www.w3.org/2000/svg">
<path fill-rule="evenodd" clip-rule="evenodd" d="M22.4344 14.5961C22.6406 13.7647 22.75 12.8951 22.75 12C22.75 9.17915 21.6635 6.61207 19.8862 4.6944C19.9663 4.47809 20.01 4.24415 20.01 4C20.01 2.89543 19.1146 2 18.01 2H18C17.5574 2 17.1484 2.14375 16.8172 2.38711C15.3682 1.65956 13.7319 1.25 12 1.25C9.71191 1.25 7.59079 1.96485 5.84777 3.18339C5.59294 3.06567 5.30915 3 5.01001 3H5.00001C3.89544 3 3.00001 3.89543 3.00001 5C3.00001 5.30149 3.06672 5.5874 3.18619 5.84377C1.96594 7.58754 1.25 9.71016 1.25 12C1.25 15.7158 3.13528 18.9913 6.0015 20.9221C6.00051 20.948 6.00001 20.9739 6.00001 21C6.00001 22.1046 6.89544 23 8.00001 23H8.01001C8.55196 23 9.04356 22.7844 9.40376 22.4344C10.2352 22.6406 11.1048 22.75 12 22.75C15.7158 22.75 18.9913 20.8647 20.9221 17.9985C20.948 17.9995 20.9739 18 21 18H21.01C22.1146 18 23.01 17.1046 23.01 16C23.01 15.4529 22.7904 14.9572 22.4344 14.5961ZM4.6046 6.96092C4.49959 6.93986 4.39755 6.91058 4.29919 6.87377C3.32049 8.34108 2.75 10.1039 2.75 12C2.75 15.1091 4.28394 17.86 6.6363 19.537C6.72421 19.455 6.81952 19.3809 6.92111 19.3157L4.6046 6.96092ZM10.0098 21.0255L10.0097 21.0353C10.6508 21.1759 11.3167 21.25 12 21.25C15.1091 21.25 17.86 19.7161 19.537 17.3637C19.2039 17.0064 19 16.527 19 16C19 15.8515 19.0162 15.7067 19.0469 15.5674L14.0761 12.15L9.59092 19.7748C9.85361 20.1133 10.01 20.5384 10.01 21L10.0098 21.0255ZM21.0332 14.0001C21.0255 14 21.0177 14 21.01 14H21C20.5923 14 20.2131 14.122 19.8969 14.3315L14.8385 10.8538L17.7063 5.97859C17.8022 5.99269 17.9002 6 18 6H18.01C18.3179 6 18.6096 5.93041 18.8702 5.80609C20.3494 7.44581 21.25 9.61774 21.25 12C21.25 12.6868 21.1752 13.356 21.0332 14.0001ZM12 2.75C13.4434 2.75 14.8097 3.08062 16.0271 3.67027C16.0093 3.77754 16 3.88769 16 4C16 4.45833 16.1542 4.88066 16.4135 5.21794L13.5994 10.0019L6.96178 5.43856C6.99335 5.29743 7.01001 5.15066 7.01001 5C7.01001 4.75142 6.96466 4.51343 6.88178 4.29385C8.34749 3.31842 10.1074 2.75 12 2.75ZM6.07995 6.69005L6.10803 6.6719L12.837 11.298L8.36833 18.8947L6.07995 6.69005Z" fill="black"/>
</svg>
