<svg width="16" height="16" viewBox="0 0 16 16" fill="none" xmlns="http://www.w3.org/2000/svg">
<path fill-rule="evenodd" clip-rule="evenodd" d="M15.5259 9.8578C15.6723 9.26261 15.75 8.64038 15.75 8C15.75 5.97076 14.9701 4.12367 13.6937 2.74214C13.7304 2.60092 13.75 2.45277 13.75 2.30005C13.75 1.33355 12.9665 0.550049 12 0.550049H11.9933C11.6272 0.550049 11.2873 0.662481 11.0064 0.854703C10.0819 0.465266 9.06611 0.25 8 0.25C6.46751 0.25 5.0389 0.694807 3.83625 1.46236C3.58779 1.32695 3.30288 1.25 3 1.25H2.99333C2.02683 1.25 1.24333 2.0335 1.24333 3C1.24333 3.30517 1.32145 3.5921 1.45877 3.84188C0.693421 5.04336 0.25 6.4699 0.25 8C0.25 10.4881 1.4225 12.7024 3.24511 14.1204C3.24393 14.1468 3.24333 14.1733 3.24333 14.2C3.24333 15.1664 4.02683 15.95 4.99333 15.95H5C5.43647 15.95 5.83562 15.7902 6.14215 15.5259C6.73735 15.6723 7.3596 15.75 8 15.75C10.4909 15.75 12.7074 14.5748 14.1252 12.7487C14.1478 12.7496 14.1705 12.75 14.1933 12.75H14.2C15.1665 12.75 15.95 11.9665 15.95 11C15.95 10.5635 15.7902 10.1643 15.5259 9.8578ZM1.75 8C1.75 6.8455 2.06303 5.76412 2.60883 4.83609L3.98816 12.7672L3.9718 12.7789C2.61305 11.6324 1.75 9.91699 1.75 8ZM6.49455 13.2891C6.64436 13.5343 6.73548 13.8194 6.74841 14.1247C7.15279 14.2068 7.57135 14.25 8 14.25C9.91646 14.25 11.6315 13.3874 12.7779 12.0293C12.5675 11.7405 12.4433 11.3847 12.4433 11C12.4433 10.8741 12.4566 10.7514 12.4819 10.6331L9.29967 8.36006L6.49455 13.2891ZM14.1247 9.25132C13.8235 9.26294 13.5419 9.35067 13.2984 9.49583L9.99582 7.13684L11.7612 4.03479C11.8372 4.04485 11.9146 4.05005 11.9933 4.05005H12C12.2548 4.05005 12.4969 3.99558 12.7153 3.89765C13.6712 4.9954 14.25 6.43011 14.25 8C14.25 8.42855 14.2069 8.84702 14.1247 9.25132ZM8 1.75C8.79256 1.75 9.55066 1.89752 10.2483 2.16661C10.245 2.21065 10.2433 2.25515 10.2433 2.30005C10.2433 2.67583 10.3618 3.02394 10.5634 3.3091L8.85054 6.31878L4.71232 3.3629C4.73701 3.24582 4.75 3.12443 4.75 3C4.75 2.89017 4.73988 2.78271 4.72053 2.67849C5.67385 2.08974 6.79725 1.75 8 1.75ZM3.98215 4.56182L5.35569 12.4597L8.1544 7.542L3.98215 4.56182Z" fill="black"/>
</svg>
