<svg width="24" height="24" viewBox="0 0 24 24" fill="none" xmlns="http://www.w3.org/2000/svg">
<path d="M7 9.25C6.58579 9.25 6.25 9.58579 6.25 10C6.25 10.4142 6.58579 10.75 7 10.75H12C12.4142 10.75 12.75 10.4142 12.75 10C12.75 9.58579 12.4142 9.25 12 9.25H7Z" fill="black"/>
<path d="M6.25 7C6.25 6.58579 6.58579 6.25 7 6.25H17C17.4142 6.25 17.75 6.58579 17.75 7C17.75 7.41421 17.4142 7.75 17 7.75H7C6.58579 7.75 6.25 7.41421 6.25 7Z" fill="black"/>
<path d="M7 12.25C6.58579 12.25 6.25 12.5858 6.25 13C6.25 13.4142 6.58579 13.75 7 13.75H14C14.4142 13.75 14.75 13.4142 14.75 13C14.75 12.5858 14.4142 12.25 14 12.25H7Z" fill="black"/>
<path fill-rule="evenodd" clip-rule="evenodd" d="M5 2.25C4.27065 2.25 3.57118 2.53973 3.05546 3.05546C2.53973 3.57118 2.25 4.27065 2.25 5V21C2.25 21.3033 2.43273 21.5768 2.71299 21.6929C2.99324 21.809 3.31583 21.7448 3.53033 21.5303L7.31066 17.75H19C19.7293 17.75 20.4288 17.4603 20.9445 16.9445C21.4603 16.4288 21.75 15.7293 21.75 15V5C21.75 4.27065 21.4603 3.57118 20.9445 3.05546C20.4288 2.53973 19.7293 2.25 19 2.25H5ZM4.11612 4.11612C4.35054 3.8817 4.66848 3.75 5 3.75H19C19.3315 3.75 19.6495 3.8817 19.8839 4.11612C20.1183 4.35054 20.25 4.66848 20.25 5V15C20.25 15.3315 20.1183 15.6495 19.8839 15.8839C19.6495 16.1183 19.3315 16.25 19 16.25H7C6.80109 16.25 6.61032 16.329 6.46967 16.4697L3.75 19.1893V5C3.75 4.66848 3.8817 4.35054 4.11612 4.11612Z" fill="black"/>
</svg>
