<svg width="16" height="16" viewBox="0 0 16 16" fill="none" xmlns="http://www.w3.org/2000/svg">
<path fill-rule="evenodd" clip-rule="evenodd" d="M8.22222 2.75C10.999 2.75 13.25 5.00101 13.25 7.77778C13.25 10.5545 10.999 12.8056 8.22222 12.8056C7.38386 12.8056 6.59549 12.601 5.90219 12.2396C5.70297 12.1358 5.49989 12.1207 5.37554 12.1194C5.236 12.1179 5.09402 12.1344 4.96369 12.1563C4.70207 12.2004 4.40571 12.2813 4.11571 12.3726C3.8741 12.4487 3.62162 12.537 3.37527 12.6282C3.46598 12.3843 3.55373 12.1342 3.62939 11.8944C3.72125 11.6033 3.80248 11.305 3.84634 11.0408C3.8682 10.909 3.88427 10.7656 3.88216 10.6245C3.88025 10.4973 3.86349 10.2956 3.76039 10.0978C3.39904 9.40451 3.19444 8.61614 3.19444 7.77778C3.19444 5.00101 5.44546 2.75 8.22222 2.75ZM2.30794 14.6839L2.3188 14.679L2.35488 14.663C2.38679 14.6488 2.43396 14.6281 2.49389 14.602C2.61384 14.5499 2.78445 14.4767 2.98578 14.3933C3.44413 14.2035 4.04468 13.9676 4.56632 13.8033C4.82941 13.7205 5.05052 13.6629 5.213 13.6355C5.25452 13.6285 5.28701 13.6244 5.31136 13.622C6.18851 14.0597 7.17767 14.3056 8.22222 14.3056C11.8274 14.3056 14.75 11.383 14.75 7.77778C14.75 4.17259 11.8274 1.25 8.22222 1.25C4.61703 1.25 1.69444 4.17259 1.69444 7.77778C1.69444 8.82401 1.94113 9.81468 2.38008 10.6929C2.37789 10.7178 2.37382 10.7516 2.36658 10.7952C2.33951 10.9583 2.282 11.1797 2.19891 11.4431C2.03415 11.9652 1.79702 12.5647 1.60648 13.0209C1.52339 13.2198 1.45056 13.3881 1.39866 13.5064C1.37272 13.5655 1.35206 13.612 1.33801 13.6434L1.32209 13.6789L1.31728 13.6895C1.18826 13.9736 1.24846 14.3083 1.46868 14.5293C1.68889 14.7504 2.02337 14.8118 2.30794 14.6839C2.30793 14.6839 2.30795 14.6839 2.30794 14.6839Z" fill="black"/>
</svg>
