<svg viewBox="0 0 16 16" width="16" height="16" fill="black" xmlns="http://www.w3.org/2000/svg">
 <g transform="translate(14.75, 1.25)">
  <path d="M6.52778 1.5C3.75101 1.5 1.5 3.75101 1.5 6.52778C1.5 9.30454 3.75101 11.5556 6.52778 11.5556C7.36614 11.5556 8.15451 11.351 8.84781 10.9896C9.04703 10.8858 9.25011 10.8707 9.37446 10.8694C9.514 10.8679 9.65598 10.8844 9.78631 10.9063C10.0479 10.9504 10.3443 11.0313 10.6343 11.1226C10.8759 11.1987 11.1284 11.287 11.3747 11.3782C11.284 11.1343 11.1963 10.8842 11.1206 10.6444C11.0288 10.3533 10.9475 10.055 10.9037 9.79079C10.8818 9.65904 10.8657 9.51563 10.8678 9.37451C10.8698 9.24734 10.8865 9.04563 10.9896 8.84781C11.351 8.15451 11.5556 7.36614 11.5556 6.52778C11.5556 3.75101 9.30454 1.5 6.52778 1.5ZM12.4421 13.4339L12.4312 13.429L12.3951 13.413C12.3632 13.3988 12.316 13.3781 12.2561 13.352C12.1362 13.2999 11.9656 13.2267 11.7642 13.1433C11.3059 12.9535 10.7053 12.7176 10.1837 12.5533C9.92059 12.4705 9.69948 12.4129 9.537 12.3855C9.49548 12.3785 9.46299 12.3744 9.43864 12.372C8.56149 12.8097 7.57233 13.0556 6.52778 13.0556C2.92259 13.0556 0 10.133 0 6.52778C0 2.92259 2.92259 0 6.52778 0C10.133 0 13.0556 2.92259 13.0556 6.52778C13.0556 7.57401 12.8089 8.56468 12.3699 9.44288C12.3721 9.4678 12.3762 9.50157 12.3834 9.54519C12.4105 9.70826 12.468 9.92973 12.5511 10.1931C12.7158 10.7152 12.953 11.3147 13.1435 11.7709C13.2266 11.9698 13.2994 12.1381 13.3513 12.2564C13.3773 12.3155 13.3979 12.362 13.412 12.3934L13.4279 12.4289L13.4327 12.4395C13.5617 12.7236 13.5015 13.0583 13.2813 13.2793C13.0611 13.5004 12.7266 13.5618 12.4421 13.4339C12.442 13.4339 12.4421 13.4339 12.4421 13.4339Z" fill-rule="EVENODD"></path>
 </g>
</svg>