<svg viewBox="0 0 16 16" width="16" height="16" fill="black" xmlns="http://www.w3.org/2000/svg">
 <g transform="translate(1.25, 1.25)">
  <path d="M3.24999 4.55005C2.86339 4.55005 2.54999 4.86345 2.54999 5.25005C2.54999 5.63665 2.86339 5.95005 3.24999 5.95005L6.24999 5.95005C6.63659 5.95005 6.94999 5.63665 6.94999 5.25005C6.94999 4.86345 6.63659 4.55005 6.24999 4.55005L3.24999 4.55005Z" fill-rule="NONZERO"></path>
  <path d="M2.54999 3.25005C2.54999 2.86345 2.86339 2.55005 3.24999 2.55005L9.24999 2.55005C9.63659 2.55005 9.94999 2.86345 9.94999 3.25005C9.94999 3.63665 9.63659 3.95005 9.24999 3.95005L3.24999 3.95005C2.86339 3.95005 2.54999 3.63665 2.54999 3.25005Z" fill-rule="NONZERO"></path>
  <path d="M3.24999 6.55005C2.86339 6.55005 2.54999 6.86345 2.54999 7.25005C2.54999 7.63665 2.86339 7.95005 3.24999 7.95005L7.24999 7.95005C7.63659 7.95005 7.94999 7.63665 7.94999 7.25005C7.94999 6.86345 7.63659 6.55005 7.24999 6.55005L3.24999 6.55005Z" fill-rule="NONZERO"></path>
  <path d="M2.08333 0C1.5308 0 1.0009 0.219493 0.610194 0.610194C0.219493 1.0009 0 1.5308 0 2.08333L0 12.75C0 13.0533 0.182732 13.3268 0.462987 13.4429C0.743243 13.559 1.06583 13.4948 1.28033 13.2803L4.06066 10.5L11.4167 10.5C11.9692 10.5 12.4991 10.2805 12.8898 9.8898C13.2805 9.4991 13.5 8.9692 13.5 8.41667L13.5 2.08333C13.5 1.5308 13.2805 1.0009 12.8898 0.610194C12.4991 0.219493 11.9692 0 11.4167 0L2.08333 0ZM1.67085 1.67085C1.78025 1.56146 1.92862 1.5 2.08333 1.5L11.4167 1.5C11.5714 1.5 11.7197 1.56146 11.8291 1.67085C11.9385 1.78025 12 1.92862 12 2.08333L12 8.41667C12 8.57138 11.9385 8.71975 11.8291 8.82915C11.7197 8.93854 11.5714 9 11.4167 9L3.75 9C3.55109 9 3.36032 9.07902 3.21967 9.21967L1.5 10.9393L1.5 2.08333C1.5 1.92862 1.56146 1.78025 1.67085 1.67085Z" fill-rule="EVENODD"></path>
 </g>
</svg>