<svg width="16" height="16" viewBox="0 0 16 16" fill="none" xmlns="http://www.w3.org/2000/svg">
<path fill-rule="evenodd" clip-rule="evenodd" d="M3.33333 2.75C3.17862 2.75 3.03025 2.81146 2.92085 2.92085C2.81146 3.03025 2.75 3.17862 2.75 3.33333V12.1893L4.46967 10.4697C4.61032 10.329 4.80109 10.25 5 10.25H12.6667C12.8214 10.25 12.9697 10.1885 13.0791 10.0791C13.1885 9.96975 13.25 9.82138 13.25 9.66667V3.33333C13.25 3.17862 13.1885 3.03025 13.0791 2.92085C12.9697 2.81146 12.8214 2.75 12.6667 2.75H3.33333ZM1.86019 1.86019C2.2509 1.46949 2.7808 1.25 3.33333 1.25H12.6667C13.2192 1.25 13.7491 1.46949 14.1398 1.86019C14.5305 2.2509 14.75 2.7808 14.75 3.33333V9.66667C14.75 10.2192 14.5305 10.7491 14.1398 11.1398C13.7491 11.5305 13.2192 11.75 12.6667 11.75H5.31066L2.53033 14.5303C2.31583 14.7448 1.99324 14.809 1.71299 14.6929C1.43273 14.5768 1.25 14.3033 1.25 14V3.33333C1.25 2.7808 1.46949 2.2509 1.86019 1.86019Z" fill="black"/>
</svg>
