<svg width="16" height="16" viewBox="0 0 16 16" fill="none" xmlns="http://www.w3.org/2000/svg">
<path d="M4.49999 5.80005C4.11339 5.80005 3.79999 6.11345 3.79999 6.50005C3.79999 6.88665 4.11339 7.20005 4.49999 7.20005H7.49999C7.88659 7.20005 8.19999 6.88665 8.19999 6.50005C8.19999 6.11345 7.88659 5.80005 7.49999 5.80005H4.49999Z" fill="black"/>
<path d="M3.79999 4.50005C3.79999 4.11345 4.11339 3.80005 4.49999 3.80005H10.5C10.8866 3.80005 11.2 4.11345 11.2 4.50005C11.2 4.88665 10.8866 5.20005 10.5 5.20005L4.49999 5.20005C4.11339 5.20005 3.79999 4.88665 3.79999 4.50005Z" fill="black"/>
<path d="M4.49999 7.80005C4.11339 7.80005 3.79999 8.11345 3.79999 8.50005C3.79999 8.88665 4.11339 9.20005 4.49999 9.20005H8.49999C8.88659 9.20005 9.19999 8.88665 9.19999 8.50005C9.19999 8.11345 8.88659 7.80005 8.49999 7.80005H4.49999Z" fill="black"/>
<path fill-rule="evenodd" clip-rule="evenodd" d="M3.33333 1.25C2.7808 1.25 2.2509 1.46949 1.86019 1.86019C1.46949 2.2509 1.25 2.7808 1.25 3.33333V14C1.25 14.3033 1.43273 14.5768 1.71299 14.6929C1.99324 14.809 2.31583 14.7448 2.53033 14.5303L5.31066 11.75H12.6667C13.2192 11.75 13.7491 11.5305 14.1398 11.1398C14.5305 10.7491 14.75 10.2192 14.75 9.66667V3.33333C14.75 2.7808 14.5305 2.2509 14.1398 1.86019C13.7491 1.46949 13.2192 1.25 12.6667 1.25H3.33333ZM2.92085 2.92085C3.03025 2.81146 3.17862 2.75 3.33333 2.75H12.6667C12.8214 2.75 12.9697 2.81146 13.0791 2.92085C13.1885 3.03025 13.25 3.17862 13.25 3.33333V9.66667C13.25 9.82138 13.1885 9.96975 13.0791 10.0791C12.9697 10.1885 12.8214 10.25 12.6667 10.25H5C4.80109 10.25 4.61032 10.329 4.46967 10.4697L2.75 12.1893V3.33333C2.75 3.17862 2.81146 3.03025 2.92085 2.92085Z" fill="black"/>
</svg>
