<svg width="24" height="24" viewBox="0 0 24 24" fill="none" xmlns="http://www.w3.org/2000/svg">
<path fill-rule="evenodd" clip-rule="evenodd" d="M12.3333 3.75C16.7056 3.75 20.25 7.29441 20.25 11.6667C20.25 16.0389 16.7056 19.5833 12.3333 19.5833C11.014 19.5833 9.77216 19.2612 8.67997 18.692C8.43795 18.5658 8.17674 18.5513 8.00022 18.5543C7.80358 18.5575 7.59266 18.5865 7.38585 18.6264C6.97062 18.7064 6.48662 18.8475 6.00468 19.0078C5.46984 19.1856 4.91107 19.396 4.40906 19.595C4.60287 19.1091 4.80711 18.57 4.98154 18.0506C5.14622 17.5603 5.2918 17.0657 5.37427 16.6401C5.41535 16.4281 5.44505 16.212 5.44823 16.0105C5.45111 15.8283 5.4353 15.5642 5.30803 15.32C4.73879 14.2278 4.41667 12.986 4.41667 11.6667C4.41667 7.29441 7.96108 3.75 12.3333 3.75ZM3.93216 21.4126C4.56709 21.1428 5.56868 20.7335 6.47796 20.4312C6.93565 20.279 7.34849 20.1612 7.66978 20.0992C7.83123 20.0681 7.94849 20.0553 8.02525 20.054C8.03413 20.0539 8.04184 20.0539 8.04845 20.054C9.33458 20.7123 10.7917 21.0833 12.3333 21.0833C17.534 21.0833 21.75 16.8673 21.75 11.6667C21.75 6.46599 17.534 2.25 12.3333 2.25C7.13265 2.25 2.91667 6.46599 2.91667 11.6667C2.91667 13.2101 3.28856 14.6688 3.94824 15.956C3.9485 15.9643 3.94861 15.9745 3.94842 15.9868C3.94715 16.0673 3.93381 16.1889 3.90166 16.3547C3.83767 16.685 3.71597 17.1074 3.55958 17.5731C3.24842 18.4996 2.8294 19.5113 2.5637 20.1288C2.48887 20.3026 2.42684 20.4438 2.38368 20.5411C2.36211 20.5897 2.34527 20.6273 2.33392 20.6526L2.32111 20.6811L2.31726 20.6896C2.18896 20.9721 2.24775 21.3048 2.46537 21.526C2.683 21.7472 3.01437 21.8115 3.29896 21.6878L3.92945 21.4138C3.93035 21.4134 3.93125 21.413 3.93216 21.4126ZM3.94613 15.9274C3.9461 15.9274 3.94622 15.9284 3.94657 15.9303L3.94613 15.9274Z" fill="black"/>
</svg>
