<svg width="24" height="24" viewBox="0 0 24 24" fill="none" xmlns="http://www.w3.org/2000/svg">
<path d="M8.99998 10.25C8.58576 10.25 8.24998 10.5858 8.24998 11C8.24998 11.4142 8.58576 11.75 8.99998 11.75H12C12.4142 11.75 12.75 11.4142 12.75 11C12.75 10.5858 12.4142 10.25 12 10.25H8.99998Z" fill="black"/>
<path d="M8.24998 8C8.24998 7.58579 8.58576 7.25 8.99998 7.25H16C16.4142 7.25 16.75 7.58579 16.75 8C16.75 8.41421 16.4142 8.75 16 8.75H8.99998C8.58576 8.75 8.24998 8.41421 8.24998 8Z" fill="black"/>
<path d="M8.99998 13.25C8.58576 13.25 8.24998 13.5858 8.24998 14C8.24998 14.4142 8.58576 14.75 8.99998 14.75H14C14.4142 14.75 14.75 14.4142 14.75 14C14.75 13.5858 14.4142 13.25 14 13.25H8.99998Z" fill="black"/>
<path fill-rule="evenodd" clip-rule="evenodd" d="M6.47794 20.4312C5.56865 20.7335 4.56707 21.1428 3.93214 21.4126L3.92942 21.4138L3.29894 21.6878C3.01435 21.8115 2.68298 21.7472 2.46535 21.526C2.24772 21.3048 2.18894 20.9721 2.31723 20.6896L2.32108 20.6811L2.33389 20.6526C2.34524 20.6273 2.36209 20.5897 2.38366 20.5411C2.42682 20.4438 2.48885 20.3026 2.56368 20.1288C2.82938 19.5113 3.2484 18.4996 3.55956 17.5731C3.71594 17.1074 3.83764 16.685 3.90164 16.3547C3.93379 16.1889 3.94712 16.0673 3.94839 15.9868C3.94859 15.9745 3.94847 15.9643 3.94822 15.956C3.28854 14.6688 2.91664 13.2101 2.91664 11.6667C2.91664 6.46599 7.13263 2.25 12.3333 2.25C17.534 2.25 21.75 6.46599 21.75 11.6667C21.75 16.8673 17.534 21.0833 12.3333 21.0833C10.7917 21.0833 9.33456 20.7123 8.04843 20.054C8.04182 20.0539 8.03411 20.0539 8.02523 20.054C7.94847 20.0553 7.83121 20.0681 7.66976 20.0992C7.34847 20.1612 6.93562 20.279 6.47794 20.4312ZM20.25 11.6667C20.25 7.29441 16.7056 3.75 12.3333 3.75C7.96106 3.75 4.41664 7.29441 4.41664 11.6667C4.41664 12.986 4.73877 14.2278 5.30801 15.32C5.43528 15.5642 5.45108 15.8283 5.44821 16.0105C5.44503 16.212 5.41533 16.4281 5.37425 16.6401C5.29178 17.0657 5.1462 17.5603 4.98151 18.0506C4.80708 18.57 4.60284 19.1091 4.40903 19.595C4.91104 19.396 5.46982 19.1856 6.00466 19.0078C6.4866 18.8475 6.97059 18.7064 7.38583 18.6264C7.59264 18.5865 7.80356 18.5575 8.0002 18.5543C8.17672 18.5513 8.43793 18.5658 8.67995 18.692C9.77214 19.2612 11.014 19.5833 12.3333 19.5833C16.7056 19.5833 20.25 16.0389 20.25 11.6667Z" fill="black"/>
</svg>
