<svg width="24" height="24" viewBox="0 0 24 24" fill="none" xmlns="http://www.w3.org/2000/svg">
<path d="M9.78325 0.972526C10.5307 0.424649 11.4547 0.172904 12.377 0.266064C13.3023 0.359525 14.1598 0.793448 14.7831 1.4836C15.4064 2.17375 15.7511 3.07088 15.7501 4.00085L15.75 4.01297V9.34009C15.75 9.75431 15.4142 10.0901 15 10.0901C14.5858 10.0901 14.25 9.75431 14.25 9.34009V4.00009L14.2501 3.98818C14.2479 3.43419 14.0414 2.90032 13.6699 2.48899C13.2959 2.0749 12.7814 1.81455 12.2263 1.75847C11.6711 1.70239 11.1149 1.8546 10.6657 2.18553L10.6601 2.18963C10.2138 2.52047 9.90566 3.00477 9.79508 3.54932C9.71266 3.95525 9.31677 4.21751 8.91084 4.13508C8.50491 4.05265 8.24266 3.65676 8.32508 3.25083C8.51014 2.33947 9.02723 1.52937 9.77598 0.977817L9.78325 0.972526Z" fill="black"/>
<path fill-rule="evenodd" clip-rule="evenodd" d="M1.53033 0.46967C1.23744 0.176777 0.762563 0.176777 0.46967 0.46967C0.176777 0.762563 0.176777 1.23744 0.46967 1.53033L8.25 9.31066V12.0007C8.25065 12.7419 8.47094 13.4662 8.88304 14.0823C9.29514 14.6984 9.88057 15.1785 10.5654 15.4621C11.2502 15.7457 12.0037 15.8199 12.7307 15.6755C13.2095 15.5804 13.6627 15.3932 14.0662 15.1268L15.8857 16.9463C15.1201 17.5541 14.2196 17.9761 13.2549 18.1739C12.9252 18.2415 12.5921 18.282 12.2588 18.2958C12.1781 18.2662 12.091 18.25 12 18.25C11.909 18.25 11.8218 18.2662 11.7412 18.2959C11.0149 18.2658 10.2956 18.1091 9.61644 17.829C8.46507 17.354 7.48185 16.5459 6.79293 15.5083C6.10401 14.4707 5.74083 13.2509 5.74994 12.0055V10C5.74994 9.58579 5.41416 9.25 4.99994 9.25C4.58573 9.25 4.24994 9.58579 4.24994 10V11.9973C4.23921 13.5407 4.68955 15.0522 5.54329 16.338C6.39755 17.6246 7.61674 18.6267 9.04444 19.2156C9.75255 19.5077 10.4959 19.6916 11.25 19.7649V22.25H8C7.58579 22.25 7.25 22.5858 7.25 23C7.25 23.4142 7.58579 23.75 8 23.75H16C16.4142 23.75 16.75 23.4142 16.75 23C16.75 22.5858 16.4142 22.25 16 22.25H12.75V19.7648C13.0198 19.7386 13.2889 19.6981 13.5562 19.6433C14.8089 19.3865 15.9745 18.8246 16.952 18.0126L22.4697 23.5303C22.7626 23.8232 23.2374 23.8232 23.5303 23.5303C23.8232 23.2374 23.8232 22.7626 23.5303 22.4697L17.6666 16.6059C17.6308 16.5367 17.5836 16.4718 17.5248 16.4143C17.4699 16.3605 17.4089 16.3169 17.344 16.2834L1.53033 0.46967ZM12.9679 14.0285L9.75 10.8107V11.9997C9.75045 12.4443 9.88262 12.8788 10.1298 13.2483C10.3771 13.618 10.7283 13.9061 11.1392 14.0762C11.5501 14.2463 12.0022 14.2909 12.4384 14.2042C12.6225 14.1677 12.8002 14.1084 12.9679 14.0285Z" fill="black"/>
<path d="M19.7499 10C19.7499 9.58579 19.4142 9.25 18.9999 9.25C18.5857 9.25 18.2499 9.58579 18.2499 10V11.9993C18.2496 12.3676 18.2168 12.7351 18.1517 13.0976C18.0786 13.5053 18.3498 13.8951 18.7575 13.9682C19.1652 14.0414 19.555 13.7701 19.6282 13.3624C19.7088 12.913 19.7495 12.4566 19.7499 12V10Z" fill="black"/>
</svg>
