<svg width="16" height="16" viewBox="0 0 16 16" fill="none" xmlns="http://www.w3.org/2000/svg">
<path fill-rule="evenodd" clip-rule="evenodd" d="M8 0.25C7.27065 0.25 6.57118 0.539731 6.05546 1.05546C5.53973 1.57118 5.25 2.27065 5.25 3V8C5.25 8.72935 5.53973 9.42882 6.05546 9.94454C6.57118 10.4603 7.27065 10.75 8 10.75C8.72935 10.75 9.42882 10.4603 9.94454 9.94454C10.4603 9.42882 10.75 8.72935 10.75 8V3C10.75 2.27066 10.4603 1.57118 9.94454 1.05546C9.42882 0.539731 8.72935 0.25 8 0.25ZM7.11612 2.11612C7.35054 1.8817 7.66848 1.75 8 1.75C8.33152 1.75 8.64946 1.8817 8.88388 2.11612C9.1183 2.35054 9.25 2.66848 9.25 3V8C9.25 8.33152 9.1183 8.64946 8.88388 8.88388C8.64946 9.1183 8.33152 9.25 8 9.25C7.66848 9.25 7.35054 9.1183 7.11612 8.88388C6.8817 8.64946 6.75 8.33152 6.75 8V3C6.75 2.66848 6.8817 2.35054 7.11612 2.11612Z" fill="black"/>
<path d="M3.75 6.5C3.75 6.08579 3.41421 5.75 3 5.75C2.58579 5.75 2.25 6.08579 2.25 6.5V8C2.25 9.52499 2.8558 10.9875 3.93414 12.0659C4.83414 12.9659 6.00178 13.5367 7.25 13.7009V14.25H5.5C5.08579 14.25 4.75 14.5858 4.75 15C4.75 15.4142 5.08579 15.75 5.5 15.75H10.5C10.9142 15.75 11.25 15.4142 11.25 15C11.25 14.5858 10.9142 14.25 10.5 14.25H8.75V13.7009C9.99822 13.5367 11.1659 12.9659 12.0659 12.0659C13.1442 10.9875 13.75 9.52499 13.75 8V6.5C13.75 6.08579 13.4142 5.75 13 5.75C12.5858 5.75 12.25 6.08579 12.25 6.5V8C12.25 9.12717 11.8022 10.2082 11.0052 11.0052C10.2082 11.8022 9.12717 12.25 8 12.25C6.87283 12.25 5.79183 11.8022 4.9948 11.0052C4.19777 10.2082 3.75 9.12717 3.75 8V6.5Z" fill="black"/>
</svg>
