<svg viewbox="0 0 24 24" width="24" height="24" fill="black" xmlns="http://www.w3.org/2000/svg">
 <g transform="translate(4.25, 0.25)">
  <path d="M7.75 0C6.75544 0 5.80161 0.395088 5.09835 1.09835C4.39509 1.80161 4 2.75544 4 3.75L4 11.75C4 12.7446 4.39509 13.6984 5.09835 14.4017C5.80161 15.1049 6.75544 15.5 7.75 15.5C8.74456 15.5 9.69839 15.1049 10.4017 14.4017C11.1049 13.6984 11.5 12.7446 11.5 11.75L11.5 3.75C11.5 2.75544 11.1049 1.80161 10.4017 1.09835C9.69839 0.395088 8.74456 0 7.75 0ZM6.15901 2.15901C6.58097 1.73705 7.15326 1.5 7.75 1.5C8.34674 1.5 8.91903 1.73705 9.34099 2.15901C9.76295 2.58097 10 3.15326 10 3.75L10 11.75C10 12.3467 9.76295 12.919 9.34099 13.341C8.91903 13.7629 8.34674 14 7.75 14C7.15326 14 6.58097 13.7629 6.15901 13.341C5.73705 12.919 5.5 12.3467 5.5 11.75L5.5 3.75C5.5 3.15326 5.73705 2.58097 6.15901 2.15901Z" fill-rule="EVENODD"></path>
  <path d="M1.5 9.75C1.5 9.33579 1.16421 9 0.75 9C0.335786 9 0 9.33579 0 9.75L0 11.75C0 13.8054 0.816515 15.7767 2.26992 17.2301C3.54547 18.5056 5.21988 19.2906 7 19.4636L7 22L3.75 22C3.33579 22 3 22.3358 3 22.75C3 23.1642 3.33579 23.5 3.75 23.5L11.75 23.5C12.1642 23.5 12.5 23.1642 12.5 22.75C12.5 22.3358 12.1642 22 11.75 22L8.5 22L8.5 19.4636C10.2801 19.2906 11.9545 18.5056 13.2301 17.2301C14.6835 15.7767 15.5 13.8054 15.5 11.75L15.5 9.75C15.5 9.33579 15.1642 9 14.75 9C14.3358 9 14 9.33579 14 9.75L14 11.75C14 13.4076 13.3415 14.9973 12.1694 16.1694C10.9973 17.3415 9.4076 18 7.75 18C6.0924 18 4.50268 17.3415 3.33058 16.1694C2.15848 14.9973 1.5 13.4076 1.5 11.75L1.5 9.75Z" fill-rule="NONZERO"></path>
 </g>
</svg>