<svg width="16" height="16" viewBox="0 0 16 16" fill="none" xmlns="http://www.w3.org/2000/svg">
<path d="M6.36899 0.775638C6.91807 0.371163 7.59785 0.185138 8.27637 0.253675C8.95489 0.322213 9.58374 0.640423 10.0408 1.14653C10.4978 1.65246 10.7505 2.31006 10.75 2.99176V6.22656C10.75 6.64078 10.4142 6.97656 10 6.97656C9.58578 6.97656 9.25 6.64078 9.25 6.22656V2.99176C9.25031 2.68177 9.13543 2.38198 8.92766 2.15193C8.71988 1.92188 8.43404 1.77723 8.12562 1.74608C7.81721 1.71493 7.50821 1.79948 7.25863 1.98334C7.00905 2.16719 6.83669 2.43722 6.775 2.74101C6.69257 3.14694 6.29668 3.40919 5.89075 3.32676C5.48482 3.24434 5.22257 2.84845 5.305 2.44252C5.44071 1.77418 5.81991 1.18011 6.36899 0.775638Z" fill="black"/>
<path fill-rule="evenodd" clip-rule="evenodd" d="M0.46967 1.53033L5.25 6.31066L5.25 8.00055C5.25048 8.5441 5.41202 9.07532 5.71423 9.52711C6.01643 9.9789 6.44575 10.331 6.94795 10.5389C7.45015 10.7469 8.0027 10.8013 8.53583 10.6954C8.81897 10.6392 9.08988 10.539 9.3393 10.4L10.407 11.4677C9.94082 11.7881 9.41299 12.0138 8.85344 12.1285C8.02378 12.2986 7.16222 12.2169 6.3793 11.8939C5.59638 11.571 4.92781 11.0215 4.45935 10.3159C3.99089 9.61036 3.74394 8.78093 3.75013 7.93404V6.5C3.75013 6.08579 3.41435 5.75 3.00013 5.75C2.58592 5.75 2.25013 6.08579 2.25013 6.5V7.92591C2.24232 9.07072 2.57644 10.1918 3.20971 11.1456C3.84351 12.1002 4.74806 12.8436 5.80731 13.2806C6.27194 13.4723 6.75705 13.6011 7.25 13.6659V14.25H5.5C5.08579 14.25 4.75 14.5858 4.75 15C4.75 15.4142 5.08579 15.75 5.5 15.75H10.5C10.9142 15.75 11.25 15.4142 11.25 15C11.25 14.5858 10.9142 14.25 10.5 14.25H8.75V13.6659C8.88534 13.6481 9.02032 13.6255 9.15468 13.5979C10.003 13.424 10.7974 13.0616 11.481 12.5416L14.4697 15.5303C14.7626 15.8232 15.2374 15.8232 15.5303 15.5303C15.8232 15.2374 15.8232 14.7626 15.5303 14.4697L9.95101 8.89035L9.94366 8.8829L6.53033 5.46956L6.52279 5.46213L1.53033 0.46967C1.23744 0.176777 0.762563 0.176777 0.46967 0.46967C0.176777 0.762563 0.176777 1.23744 0.46967 1.53033ZM6.75 7.99953V7.81066L8.17514 9.23581C7.9543 9.26706 7.72865 9.2387 7.52179 9.15305C7.29352 9.05853 7.09838 8.89848 6.96101 8.69312C6.8237 8.48785 6.75028 8.2465 6.75 7.99953Z" fill="black"/>
<path d="M13.75 6.5C13.75 6.08579 13.4142 5.75 13 5.75C12.5858 5.75 12.25 6.08579 12.25 6.5V7.9279C12.2498 8.1783 12.2274 8.4282 12.1832 8.67467C12.1101 9.08238 12.3813 9.47218 12.789 9.54533C13.1967 9.61847 13.5865 9.34725 13.6596 8.93955C13.7195 8.60609 13.7497 8.26734 13.75 7.92855V6.5Z" fill="black"/>
</svg>
