<svg width="24" height="24" viewBox="0 0 24 24" fill="none" xmlns="http://www.w3.org/2000/svg">
<path d="M8.46967 6.46967C8.76256 6.17678 9.23744 6.17678 9.53033 6.46967L14.5303 11.4697C14.8232 11.7626 14.8232 12.2374 14.5303 12.5303L9.53033 17.5303C9.23744 17.8232 8.76256 17.8232 8.46967 17.5303C8.17678 17.2374 8.17678 16.7626 8.46967 16.4697L12.1893 12.75H4C3.58579 12.75 3.25 12.4142 3.25 12C3.25 11.5858 3.58579 11.25 4 11.25H12.1893L8.46967 7.53033C8.17678 7.23744 8.17678 6.76256 8.46967 6.46967Z" fill="black"/>
<path d="M14.4697 6.46967C14.7626 6.17678 15.2374 6.17678 15.5303 6.46967L20.5303 11.4697C20.8232 11.7626 20.8232 12.2374 20.5303 12.5303L15.5303 17.5303C15.2374 17.8232 14.7626 17.8232 14.4697 17.5303C14.1768 17.2374 14.1768 16.7626 14.4697 16.4697L18.9393 12L14.4697 7.53033C14.1768 7.23744 14.1768 6.76256 14.4697 6.46967Z" fill="black"/>
</svg>
