<svg viewBox="0 0 16 16" width="16" height="16" fill="black" xmlns="http://www.w3.org/2000/svg">
 <g transform="translate(1.25, 3.75)">
  <path d="M8.21967 0.21967C8.51256 -0.0732233 8.98744 -0.0732233 9.28033 0.21967L12.7803 3.71967C13.0732 4.01256 13.0732 4.48744 12.7803 4.78033L9.28033 8.28033C8.98744 8.57322 8.51256 8.57322 8.21967 8.28033C7.92678 7.98744 7.92678 7.51256 8.21967 7.21967L11.1893 4.25L8.21967 1.28033C7.92678 0.987437 7.92678 0.512563 8.21967 0.21967Z" fill-rule="NONZERO"></path>
  <path d="M3.71967 0.21967C4.01256 -0.0732233 4.48744 -0.0732233 4.78033 0.21967L8.28033 3.71967C8.28302 3.72236 8.28569 3.72507 8.28833 3.7278C8.41935 3.86283 8.5 4.047 8.5 4.25C8.5 4.453 8.41935 4.63717 8.28833 4.7722C8.28569 4.77493 8.28302 4.77764 8.28033 4.78033L4.78033 8.28033C4.48744 8.57322 4.01256 8.57322 3.71967 8.28033C3.42678 7.98744 3.42678 7.51256 3.71967 7.21967L5.93934 5L0.75 5C0.335787 5 0 4.66421 0 4.25C0 3.83579 0.335787 3.5 0.75 3.5L5.93934 3.5L3.71967 1.28033C3.42678 0.987437 3.42678 0.512563 3.71967 0.21967Z" fill-rule="NONZERO"></path>
 </g>
</svg>