<svg width="24" height="24" viewBox="0 0 24 24" fill="none" xmlns="http://www.w3.org/2000/svg">
<path fill-rule="evenodd" clip-rule="evenodd" d="M8 2.25C8.41421 2.25 8.75 2.58579 8.75 3V6C8.75 6.72935 8.46027 7.42882 7.94454 7.94454C7.42882 8.46027 6.72935 8.75 6 8.75H3C2.58579 8.75 2.25 8.41421 2.25 8C2.25 7.58579 2.58579 7.25 3 7.25H6C6.33152 7.25 6.64946 7.1183 6.88388 6.88388C7.1183 6.64946 7.25 6.33152 7.25 6V3C7.25 2.58579 7.58579 2.25 8 2.25ZM16 2.25C16.4142 2.25 16.75 2.58579 16.75 3V6C16.75 6.33152 16.8817 6.64946 17.1161 6.88388C17.3505 7.1183 17.6685 7.25 18 7.25H21C21.4142 7.25 21.75 7.58579 21.75 8C21.75 8.41421 21.4142 8.75 21 8.75H18C17.2707 8.75 16.5712 8.46027 16.0555 7.94454C15.5397 7.42882 15.25 6.72935 15.25 6V3C15.25 2.58579 15.5858 2.25 16 2.25ZM2.25 16C2.25 15.5858 2.58579 15.25 3 15.25H6C6.72935 15.25 7.42882 15.5397 7.94454 16.0555C8.46027 16.5712 8.75 17.2707 8.75 18V21C8.75 21.4142 8.41421 21.75 8 21.75C7.58579 21.75 7.25 21.4142 7.25 21V18C7.25 17.6685 7.1183 17.3505 6.88388 17.1161C6.64946 16.8817 6.33152 16.75 6 16.75H3C2.58579 16.75 2.25 16.4142 2.25 16ZM18 16.75C17.6685 16.75 17.3505 16.8817 17.1161 17.1161C16.8817 17.3505 16.75 17.6685 16.75 18V21C16.75 21.4142 16.4142 21.75 16 21.75C15.5858 21.75 15.25 21.4142 15.25 21V18C15.25 17.2707 15.5397 16.5712 16.0555 16.0555C16.5712 15.5397 17.2707 15.25 18 15.25H21C21.4142 15.25 21.75 15.5858 21.75 16C21.75 16.4142 21.4142 16.75 21 16.75H18Z" fill="black"/>
</svg>
