<svg viewbox="0 0 24 24" width="24" height="24" fill="black" xmlns="http://www.w3.org/2000/svg">
 <g transform="translate(2.25, 2.25)">
  <path d="M5.75 0C6.16421 0 6.5 0.335786 6.5 0.75L6.5 3.75C6.5 4.47935 6.21027 5.17882 5.69454 5.69454C5.17882 6.21027 4.47935 6.5 3.75 6.5L0.75 6.5C0.335786 6.5 0 6.16421 0 5.75C0 5.33579 0.335786 5 0.75 5L3.75 5C4.08152 5 4.39946 4.8683 4.63388 4.63388C4.8683 4.39946 5 4.08152 5 3.75L5 0.75C5 0.335786 5.33579 0 5.75 0ZM13.75 0C14.1642 0 14.5 0.335786 14.5 0.75L14.5 3.75C14.5 4.08152 14.6317 4.39946 14.8661 4.63388C15.1005 4.8683 15.4185 5 15.75 5L18.75 5C19.1642 5 19.5 5.33579 19.5 5.75C19.5 6.16421 19.1642 6.5 18.75 6.5L15.75 6.5C15.0207 6.5 14.3212 6.21027 13.8055 5.69454C13.2897 5.17882 13 4.47935 13 3.75L13 0.75C13 0.335786 13.3358 0 13.75 0ZM0 13.75C0 13.3358 0.335786 13 0.75 13L3.75 13C4.47935 13 5.17882 13.2897 5.69454 13.8055C6.21027 14.3212 6.5 15.0207 6.5 15.75L6.5 18.75C6.5 19.1642 6.16421 19.5 5.75 19.5C5.33579 19.5 5 19.1642 5 18.75L5 15.75C5 15.4185 4.8683 15.1005 4.63388 14.8661C4.39946 14.6317 4.08152 14.5 3.75 14.5L0.75 14.5C0.335786 14.5 0 14.1642 0 13.75ZM15.75 14.5C15.4185 14.5 15.1005 14.6317 14.8661 14.8661C14.6317 15.1005 14.5 15.4185 14.5 15.75L14.5 18.75C14.5 19.1642 14.1642 19.5 13.75 19.5C13.3358 19.5 13 19.1642 13 18.75L13 15.75C13 15.0207 13.2897 14.3212 13.8055 13.8055C14.3212 13.2897 15.0207 13 15.75 13L18.75 13C19.1642 13 19.5 13.3358 19.5 13.75C19.5 14.1642 19.1642 14.5 18.75 14.5L15.75 14.5Z" fill-rule="EVENODD"></path>
 </g>
</svg>