<svg width="16" height="16" viewBox="0 0 16 16" fill="none" xmlns="http://www.w3.org/2000/svg">
<path d="M14.5303 1.46967C14.8232 1.76256 14.8232 2.23744 14.5303 2.53033L11.1439 5.91675H13.3333C13.7476 5.91675 14.0833 6.25253 14.0833 6.66675C14.0833 7.08096 13.7476 7.41675 13.3333 7.41675H9.33334C8.91913 7.41675 8.58334 7.08096 8.58334 6.66675V2.66675C8.58334 2.25253 8.91913 1.91675 9.33334 1.91675C9.74756 1.91675 10.0833 2.25253 10.0833 2.66675V4.856L13.4697 1.46967C13.7626 1.17678 14.2374 1.17678 14.5303 1.46967Z" fill="black"/>
<path d="M2.66666 8.58325C2.25244 8.58325 1.91666 8.91904 1.91666 9.33325C1.91666 9.74747 2.25244 10.0833 2.66666 10.0833H4.85609L1.46967 13.4697C1.17678 13.7626 1.17678 14.2374 1.46967 14.5303C1.76256 14.8232 2.23744 14.8232 2.53033 14.5303L5.91666 11.144V13.3333C5.91666 13.7475 6.25244 14.0833 6.66666 14.0833C7.08087 14.0833 7.41666 13.7475 7.41666 13.3333V9.33325C7.41666 8.91904 7.08087 8.58325 6.66666 8.58325H2.66666Z" fill="black"/>
</svg>
