<svg width="16" height="16" viewBox="0 0 16 16" fill="none" xmlns="http://www.w3.org/2000/svg">
<path d="M3.49999 4.80005C3.11339 4.80005 2.79999 5.11345 2.79999 5.50005C2.79999 5.88665 3.11339 6.20005 3.49999 6.20005H7.49999C7.88659 6.20005 8.19999 5.88665 8.19999 5.50005C8.19999 5.11345 7.88659 4.80005 7.49999 4.80005H3.49999Z" fill="black"/>
<path d="M10.5 7.80005C10.8866 7.80005 11.2 8.11345 11.2 8.50005V9.80005H12.5C12.8866 9.80005 13.2 10.1134 13.2 10.5C13.2 10.8866 12.8866 11.2 12.5 11.2H11.2V12.5C11.2 12.8866 10.8866 13.2 10.5 13.2C10.1134 13.2 9.79999 12.8866 9.79999 12.5V11.2H8.49999C8.11339 11.2 7.79999 10.8866 7.79999 10.5C7.79999 10.1134 8.11339 9.80005 8.49999 9.80005H9.79999V8.50005C9.79999 8.11345 10.1134 7.80005 10.5 7.80005Z" fill="black"/>
<path fill-rule="evenodd" clip-rule="evenodd" d="M5.5 0.375C8.28916 0.375 10.5579 2.60308 10.6235 5.37646C13.3969 5.44207 15.625 7.71084 15.625 10.5C15.625 13.3305 13.3305 15.625 10.5 15.625C7.71084 15.625 5.44207 13.3969 5.37646 10.6235C2.60308 10.5579 0.375 8.28916 0.375 5.5C0.375 2.66954 2.66954 0.375 5.5 0.375ZM1.625 5.5C1.625 3.3599 3.3599 1.625 5.5 1.625C7.63973 1.625 9.37439 3.35928 9.375 5.49887C7.44773 5.93052 5.93052 7.44773 5.49887 9.375C3.35928 9.37439 1.625 7.63973 1.625 5.5ZM10.5 6.625C8.3599 6.625 6.625 8.3599 6.625 10.5C6.625 12.6401 8.3599 14.375 10.5 14.375C12.6401 14.375 14.375 12.6401 14.375 10.5C14.375 8.3599 12.6401 6.625 10.5 6.625Z" fill="black"/>
</svg>
