<svg width="16" height="16" viewBox="0 0 16 16" fill="none" xmlns="http://www.w3.org/2000/svg">
<path d="M5 7.25C4.58579 7.25 4.25 7.58579 4.25 8C4.25 8.41421 4.58579 8.75 5 8.75H11C11.4142 8.75 11.75 8.41421 11.75 8C11.75 7.58579 11.4142 7.25 11 7.25H5Z" fill="black"/>
<path fill-rule="evenodd" clip-rule="evenodd" d="M3.33333 1.25C2.18274 1.25 1.25 2.18274 1.25 3.33333V12.6667C1.25 13.8173 2.18274 14.75 3.33333 14.75H12.6667C13.8173 14.75 14.75 13.8173 14.75 12.6667V3.33333C14.75 2.18274 13.8173 1.25 12.6667 1.25H3.33333ZM2.75 3.33333C2.75 3.01117 3.01117 2.75 3.33333 2.75H12.6667C12.9888 2.75 13.25 3.01117 13.25 3.33333V12.6667C13.25 12.9888 12.9888 13.25 12.6667 13.25H3.33333C3.01117 13.25 2.75 12.9888 2.75 12.6667V3.33333Z" fill="black"/>
</svg>
