<svg viewBox="0 0 24 24" width="24" height="24" fill="black" xmlns="http://www.w3.org/2000/svg">
 <g transform="translate(1.25, 1.25)">
  <path d="M4.75 6.5C4.33579 6.5 4 6.83579 4 7.25C4 7.66421 4.33579 8 4.75 8L9.75 8C10.1642 8 10.5 7.66421 10.5 7.25C10.5 6.83579 10.1642 6.5 9.75 6.5L4.75 6.5Z" fill-rule="NONZERO"></path>
  <path d="M14.25 11C14.6642 11 15 11.3358 15 11.75L15 13.5L16.75 13.5C17.1642 13.5 17.5 13.8358 17.5 14.25C17.5 14.6642 17.1642 15 16.75 15L15 15L15 16.75C15 17.1642 14.6642 17.5 14.25 17.5C13.8358 17.5 13.5 17.1642 13.5 16.75L13.5 15L11.75 15C11.3358 15 11 14.6642 11 14.25C11 13.8358 11.3358 13.5 11.75 13.5L13.5 13.5L13.5 11.75C13.5 11.3358 13.8358 11 14.25 11Z" fill-rule="NONZERO"></path>
  <path d="M7.25 0C11.1718 0 14.3663 3.11388 14.4959 7.00409C18.3861 7.13375 21.5 10.3282 21.5 14.25C21.5 18.2541 18.2541 21.5 14.25 21.5C10.3282 21.5 7.13375 18.3861 7.00409 14.4959C3.11388 14.3663 0 11.1718 0 7.25C0 3.24594 3.24594 0 7.25 0ZM1.5 7.25C1.5 4.07436 4.07436 1.5 7.25 1.5C10.3781 1.5 12.9227 3.99779 12.9983 7.10766C9.99736 7.62993 7.62993 9.99736 7.10766 12.9983C3.99779 12.9227 1.5 10.3781 1.5 7.25ZM14.25 8.5C11.0744 8.5 8.5 11.0744 8.5 14.25C8.5 17.4256 11.0744 20 14.25 20C17.4256 20 20 17.4256 20 14.25C20 11.0744 17.4256 8.5 14.25 8.5Z" fill-rule="EVENODD"></path>
 </g>
</svg>