<svg width="24" height="24" viewBox="0 0 24 24" fill="none" xmlns="http://www.w3.org/2000/svg">
<path d="M5.33337 7.25C4.91916 7.25 4.58337 7.58579 4.58337 8C4.58337 8.41421 4.91916 8.75 5.33337 8.75H10.6667C11.0809 8.75 11.4167 8.41421 11.4167 8C11.4167 7.58579 11.0809 7.25 10.6667 7.25H5.33337Z" fill="black"/>
<path d="M16 12.5833C16.4142 12.5833 16.75 12.919 16.75 13.3333V15.25H18.6667C19.0809 15.25 19.4167 15.5858 19.4167 16C19.4167 16.4142 19.0809 16.75 18.6667 16.75H16.75V18.6666C16.75 19.0808 16.4142 19.4166 16 19.4166C15.5858 19.4166 15.25 19.0808 15.25 18.6666V16.75H13.3334C12.9192 16.75 12.5834 16.4142 12.5834 16C12.5834 15.5858 12.9192 15.25 13.3334 15.25H15.25V13.3333C15.25 12.919 15.5858 12.5833 16 12.5833Z" fill="black"/>
<path fill-rule="evenodd" clip-rule="evenodd" d="M3.33333 14.75H9.25V20.6667C9.25 21.8173 10.1827 22.75 11.3333 22.75H20.6667C21.8173 22.75 22.75 21.8173 22.75 20.6667V11.3333C22.75 10.1827 21.8173 9.25 20.6667 9.25H14.75V3.33333C14.75 2.18274 13.8173 1.25 12.6667 1.25H3.33333C2.18274 1.25 1.25 2.18274 1.25 3.33333V12.6667C1.25 13.8173 2.18274 14.75 3.33333 14.75ZM3.33333 2.75C3.01117 2.75 2.75 3.01117 2.75 3.33333V12.6667C2.75 12.9888 3.01117 13.25 3.33333 13.25H9.25V11.3333C9.25 10.1827 10.1827 9.25 11.3333 9.25H13.25V3.33333C13.25 3.01117 12.9888 2.75 12.6667 2.75H3.33333ZM10.75 11.3333C10.75 11.0112 11.0112 10.75 11.3333 10.75H20.6667C20.9888 10.75 21.25 11.0112 21.25 11.3333V20.6667C21.25 20.9888 20.9888 21.25 20.6667 21.25H11.3333C11.0112 21.25 10.75 20.9888 10.75 20.6667V11.3333Z" fill="black"/>
</svg>
