<svg viewbox="0 0 24 24" width="24" height="24" fill="black" xmlns="http://www.w3.org/2000/svg">
 <g transform="translate(1.25, 1.25)">
  <path d="M6.75 9.875C6.26675 9.875 5.875 10.2668 5.875 10.75C5.875 11.2332 6.26675 11.625 6.75 11.625L14.75 11.625C15.2332 11.625 15.625 11.2332 15.625 10.75C15.625 10.2668 15.2332 9.875 14.75 9.875L6.75 9.875Z" fill-rule="NONZERO"></path>
  <path d="M10.75 0C4.81294 0 0 4.81294 0 10.75C0 16.6871 4.81294 21.5 10.75 21.5C16.6871 21.5 21.5 16.6871 21.5 10.75C21.5 4.81294 16.6871 0 10.75 0ZM1.5 10.75C1.5 5.64137 5.64137 1.5 10.75 1.5C15.8586 1.5 20 5.64137 20 10.75C20 15.8586 15.8586 20 10.75 20C5.64137 20 1.5 15.8586 1.5 10.75Z" fill-rule="EVENODD"></path>
 </g>
</svg>