<svg width="16" height="16" viewBox="0 0 16 16" fill="none" xmlns="http://www.w3.org/2000/svg">
<path d="M3 4.375C2.65482 4.375 2.375 4.65482 2.375 5C2.375 5.34518 2.65482 5.625 3 5.625H7C7.34518 5.625 7.625 5.34518 7.625 5C7.625 4.65482 7.34518 4.375 7 4.375H3Z" fill="black"/>
<path d="M11 8.375C11.3452 8.375 11.625 8.65482 11.625 9V10.375H13C13.3452 10.375 13.625 10.6548 13.625 11C13.625 11.3452 13.3452 11.625 13 11.625H11.625V13C11.625 13.3452 11.3452 13.625 11 13.625C10.6548 13.625 10.375 13.3452 10.375 13V11.625H9C8.65482 11.625 8.375 11.3452 8.375 11C8.375 10.6548 8.65482 10.375 9 10.375H10.375V9C10.375 8.65482 10.6548 8.375 11 8.375Z" fill="black"/>
<path fill-rule="evenodd" clip-rule="evenodd" d="M6.33333 9.625C6.34733 9.625 6.36123 9.62454 6.375 9.62363V14.1111C6.375 14.9472 7.05279 15.625 7.88889 15.625H14.1111C14.9472 15.625 15.625 14.9472 15.625 14.1111V7.88889C15.625 7.05279 14.9472 6.375 14.1111 6.375H9.62363C9.62454 6.36123 9.625 6.34733 9.625 6.33333V1.88889C9.625 1.05279 8.94721 0.375 8.11111 0.375H1.88889C1.05279 0.375 0.375 1.05279 0.375 1.88889V8.11111C0.375 8.94721 1.05279 9.625 1.88889 9.625H6.33333ZM1.88889 1.625C1.74315 1.625 1.625 1.74315 1.625 1.88889V8.11111C1.625 8.25685 1.74315 8.375 1.88889 8.375H6.33333C6.34733 8.375 6.36123 8.37546 6.375 8.37637V7.88889C6.375 7.05279 7.05279 6.375 7.88889 6.375H8.37637C8.37546 6.36123 8.375 6.34733 8.375 6.33333V1.88889C8.375 1.74315 8.25685 1.625 8.11111 1.625H1.88889ZM7.88889 7.625C7.74315 7.625 7.625 7.74315 7.625 7.88889V14.1111C7.625 14.2569 7.74315 14.375 7.88889 14.375H14.1111C14.2569 14.375 14.375 14.2569 14.375 14.1111V7.88889C14.375 7.74315 14.2569 7.625 14.1111 7.625H7.88889Z" fill="black"/>
</svg>
