<svg width="24" height="24" viewBox="0 0 24 24" fill="none" xmlns="http://www.w3.org/2000/svg">
<path d="M17.4697 5.46967C17.7626 5.17678 18.2374 5.17678 18.5303 5.46967C18.8232 5.76256 18.8232 6.23744 18.5303 6.53033L6.53033 18.5303C6.23744 18.8232 5.76256 18.8232 5.46967 18.5303C5.17678 18.2374 5.17678 17.7626 5.46967 17.4697L17.4697 5.46967Z" fill="black"/>
<path d="M3.58337 7C3.58337 6.58579 3.91916 6.25 4.33337 6.25H9.66671C10.0809 6.25 10.4167 6.58579 10.4167 7C10.4167 7.41421 10.0809 7.75 9.66671 7.75H4.33337C3.91916 7.75 3.58337 7.41421 3.58337 7Z" fill="black"/>
<path d="M17.75 14.3333C17.75 13.919 17.4142 13.5833 17 13.5833C16.5858 13.5833 16.25 13.919 16.25 14.3333V16.25H14.3334C13.9192 16.25 13.5834 16.5858 13.5834 17C13.5834 17.4142 13.9192 17.75 14.3334 17.75H16.25V19.6666C16.25 20.0808 16.5858 20.4166 17 20.4166C17.4142 20.4166 17.75 20.0808 17.75 19.6666V17.75H19.6667C20.0809 17.75 20.4167 17.4142 20.4167 17C20.4167 16.5858 20.0809 16.25 19.6667 16.25H17.75V14.3333Z" fill="black"/>
</svg>
