<svg viewbox="0 0 24 24" width="24" height="24" fill="black" xmlns="http://www.w3.org/2000/svg">
 <g transform="translate(3.5833740234375, 5.25)">
  <path d="M13.8863 0.21967C14.1792 -0.0732233 14.6541 -0.0732233 14.947 0.21967C15.2398 0.512563 15.2398 0.987437 14.947 1.28033L2.94696 13.2803C2.65406 13.5732 2.17919 13.5732 1.8863 13.2803C1.5934 12.9874 1.5934 12.5126 1.8863 12.2197L13.8863 0.21967Z" fill-rule="NONZERO"></path>
  <path d="M0 1.75C0 1.33579 0.335786 1 0.75 1L6.08333 1C6.49755 1 6.83333 1.33579 6.83333 1.75C6.83333 2.16421 6.49755 2.5 6.08333 2.5L0.75 2.5C0.335786 2.5 0 2.16421 0 1.75Z" fill-rule="NONZERO"></path>
  <path d="M14.1666 9.08325C14.1666 8.66904 13.8308 8.33325 13.4166 8.33325C13.0024 8.33325 12.6666 8.66904 12.6666 9.08325L12.6666 11L10.75 11C10.3358 11 10 11.3358 10 11.75C10 12.1642 10.3358 12.5 10.75 12.5L12.6666 12.5L12.6666 14.4166C12.6666 14.8308 13.0024 15.1666 13.4166 15.1666C13.8308 15.1666 14.1666 14.8308 14.1666 14.4166L14.1666 12.5L16.0833 12.5C16.4975 12.5 16.8333 12.1642 16.8333 11.75C16.8333 11.3358 16.4975 11 16.0833 11L14.1666 11L14.1666 9.08325Z" fill-rule="NONZERO"></path>
 </g>
</svg>