<svg width="24" height="24" viewBox="0 0 24 24" fill="none" xmlns="http://www.w3.org/2000/svg">
<path d="M16.75 7.00001C16.75 6.76906 16.6436 6.55098 16.4616 6.40885C16.2795 6.26672 16.0422 6.21639 15.8181 6.2724L7.8181 8.2724C7.48422 8.35587 7.25 8.65586 7.25 9.00001V17C7.25 17.231 7.3564 17.449 7.53844 17.5912C7.72048 17.7333 7.95785 17.7836 8.1819 17.7276L16.1819 15.7276C16.5158 15.6441 16.75 15.3442 16.75 15V7.00001Z" fill="black"/>
<path fill-rule="evenodd" clip-rule="evenodd" d="M17.333 1.89377C19.0687 1.45985 20.75 2.77259 20.75 4.56166V16.4386C20.75 17.7004 19.8912 18.8004 18.667 19.1064L6.66697 22.1064C4.93132 22.5404 3.25 21.2276 3.25 19.4386V7.56166C3.25 6.29977 4.10882 5.19982 5.33303 4.89377L17.333 1.89377ZM19.25 4.56166C19.25 3.74844 18.4858 3.15175 17.6968 3.34898L5.69683 6.34898C5.14037 6.48809 4.75 6.98807 4.75 7.56166V19.4386C4.75 20.2518 5.51424 20.8485 6.30317 20.6512L18.3032 17.6512C18.8596 17.5121 19.25 17.0121 19.25 16.4386V4.56166Z" fill="black"/>
</svg>
