<svg viewbox="0 0 24 24" width="24" height="24" fill="black" xmlns="http://www.w3.org/2000/svg">
 <g transform="translate(3.25, 1.810302734375)">
  <path d="M13.5 5.1897C13.5 4.95875 13.3936 4.74068 13.2116 4.59855C13.0295 4.45642 12.7922 4.40608 12.5681 4.4621L4.5681 6.4621C4.23422 6.54557 4 6.84555 4 7.1897L4 15.1897C4 15.4207 4.1064 15.6387 4.28844 15.7809C4.47048 15.923 4.70785 15.9733 4.9319 15.9173L12.9319 13.9173C13.2658 13.8338 13.5 13.5339 13.5 13.1897L13.5 5.1897Z" fill-rule="NONZERO"></path>
  <path d="M14.083 0.0834628C15.8187 -0.350451 17.5 0.962285 17.5 2.75135L17.5 14.6282C17.5 15.8901 16.6412 16.9901 15.417 17.2961L3.41697 20.2961C1.68132 20.7301 0 19.4173 0 17.6283L0 5.75136C0 4.48947 0.858818 3.38952 2.08303 3.08346L14.083 0.0834628ZM16 2.75135C16 1.93814 15.2358 1.34144 14.4468 1.53868L2.44683 4.53868C1.89037 4.67779 1.5 5.17777 1.5 5.75136L1.5 17.6283C1.5 18.4415 2.26424 19.0382 3.05317 18.8409L15.0532 15.8409C15.6096 15.7018 16 15.2018 16 14.6282L16 2.75135Z" fill-rule="EVENODD"></path>
 </g>
</svg>