<svg width="16" height="16" viewBox="0 0 16 16" fill="none" xmlns="http://www.w3.org/2000/svg">
<path fill-rule="evenodd" clip-rule="evenodd" d="M8.75 11.75H13.6C14.7874 11.75 15.75 10.7874 15.75 9.6V3.4C15.75 2.21259 14.7874 1.25 13.6 1.25H2.4C1.21259 1.25 0.25 2.21259 0.25 3.4V9.6C0.25 10.7874 1.21259 11.75 2.4 11.75H7.25V13.25H5C4.58579 13.25 4.25 13.5858 4.25 14C4.25 14.4142 4.58579 14.75 5 14.75H11C11.4142 14.75 11.75 14.4142 11.75 14C11.75 13.5858 11.4142 13.25 11 13.25H8.75V11.75ZM2.4 2.75C2.04101 2.75 1.75 3.04101 1.75 3.4V9.6C1.75 9.95899 2.04101 10.25 2.4 10.25H13.6C13.959 10.25 14.25 9.95898 14.25 9.6V3.4C14.25 3.04102 13.959 2.75 13.6 2.75H2.4Z" fill="black"/>
</svg>
