<svg viewBox="0 0 16 16" width="16" height="16" fill="black" xmlns="http://www.w3.org/2000/svg">
 <g transform="translate(0.25, 1.25)">
  <path d="M8.5 10.5L13.35 10.5C14.5374 10.5 15.5 9.53741 15.5 8.35L15.5 2.15C15.5 0.962587 14.5374 0 13.35 0L2.15 0C0.962588 0 0 0.962588 0 2.15L0 8.35C0 9.53741 0.962588 10.5 2.15 10.5L7 10.5L7 12L4.75 12C4.33579 12 4 12.3358 4 12.75C4 13.1642 4.33579 13.5 4.75 13.5L10.75 13.5C11.1642 13.5 11.5 13.1642 11.5 12.75C11.5 12.3358 11.1642 12 10.75 12L8.5 12L8.5 10.5ZM2.15 1.5C1.79101 1.5 1.5 1.79101 1.5 2.15L1.5 8.35C1.5 8.70899 1.79101 9 2.15 9L13.35 9C13.709 9 14 8.70898 14 8.35L14 2.15C14 1.79102 13.709 1.5 13.35 1.5L2.15 1.5Z" fill-rule="EVENODD"></path>
 </g>
</svg>