<svg width="24" height="24" viewBox="0 0 24 24" fill="none" xmlns="http://www.w3.org/2000/svg">
<path fill-rule="evenodd" clip-rule="evenodd" d="M12.75 17.75H20C21.5188 17.75 22.75 16.5188 22.75 15V5C22.75 3.48122 21.5188 2.25 20 2.25H4C2.48122 2.25 1.25 3.48122 1.25 5V15C1.25 16.5188 2.48122 17.75 4 17.75H11.25V20.25H8C7.58579 20.25 7.25 20.5858 7.25 21C7.25 21.4142 7.58579 21.75 8 21.75H16C16.4142 21.75 16.75 21.4142 16.75 21C16.75 20.5858 16.4142 20.25 16 20.25H12.75V17.75ZM4 3.75C3.30964 3.75 2.75 4.30964 2.75 5V15C2.75 15.6904 3.30964 16.25 4 16.25H20C20.6904 16.25 21.25 15.6904 21.25 15V5C21.25 4.30964 20.6904 3.75 20 3.75H4Z" fill="black"/>
</svg>
