<svg viewBox="0 0 24 24" width="24" height="24" fill="black" xmlns="http://www.w3.org/2000/svg">
 <g transform="translate(2.28818416595459, 2.2499873638153076)">
  <path d="M9.5752 0.381781C9.72034 0.639318 9.70066 0.95809 9.52494 1.19582C8.63513 2.39963 8.20695 3.88283 8.31827 5.37565C8.42959 6.86848 9.07303 8.27176 10.1315 9.33028C11.1901 10.3888 12.5934 11.0322 14.0862 11.1436C15.579 11.2549 17.0622 10.8267 18.266 9.93689C18.5037 9.76117 18.8225 9.74149 19.08 9.88663C19.3376 10.0318 19.4858 10.3147 19.4586 10.609C19.2882 12.4531 18.5961 14.2105 17.4634 15.6755C16.3307 17.1406 14.8041 18.2528 13.0623 18.8819C11.3205 19.5111 9.43562 19.6312 7.62809 19.2281C5.82057 18.8251 4.16521 17.9156 2.85571 16.6061C1.54621 15.2966 0.636735 13.6413 0.2337 11.8337C-0.169335 10.0262 -0.0492576 8.14129 0.579882 6.39952C1.20902 4.65775 2.3212 3.13117 3.78628 1.99843C5.25136 0.86568 7.00875 0.173609 8.8528 0.00319479C9.14717 -0.0240085 9.43005 0.124244 9.5752 0.381781ZM7.45869 1.7864C6.46493 2.07371 5.52949 2.54669 4.70378 3.1851C3.46409 4.14358 2.52302 5.4353 1.99067 6.9091C1.45832 8.38291 1.35672 9.97784 1.69775 11.5073C2.03878 13.0367 2.80833 14.4374 3.91637 15.5455C5.02441 16.6535 6.4251 17.4231 7.95454 17.7641C9.48398 18.1051 11.0789 18.0035 12.5527 17.4712C14.0265 16.9388 15.3182 15.9977 16.2767 14.7581C16.9151 13.9323 17.3881 12.9969 17.6754 12.0031C16.5205 12.5119 15.2504 12.7345 13.9746 12.6394C12.1235 12.5014 10.3834 11.7035 9.07089 10.3909C7.75832 9.07838 6.96047 7.3383 6.82242 5.4872C6.72729 4.21143 6.94991 2.94133 7.45869 1.7864Z" fill-rule="EVENODD"></path>
 </g>
</svg>