<svg width="24" height="24" viewBox="0 0 24 24" fill="none" xmlns="http://www.w3.org/2000/svg">
<path fill-rule="evenodd" clip-rule="evenodd" d="M11.8634 2.63178C12.0085 2.88932 11.9888 3.20809 11.8131 3.44582C10.9233 4.64963 10.4951 6.13283 10.6064 7.62565C10.7178 9.11848 11.3612 10.5218 12.4197 11.5803C13.4782 12.6388 14.8815 13.2822 16.3744 13.3936C17.8672 13.5049 19.3504 13.0767 20.5542 12.1869C20.7919 12.0112 21.1107 11.9915 21.3682 12.1366C21.6258 12.2818 21.774 12.5647 21.7468 12.859C21.5764 14.7031 20.8843 16.4605 19.7516 17.9255C18.6188 19.3906 17.0923 20.5028 15.3505 21.1319C13.6087 21.7611 11.7238 21.8812 9.91627 21.4781C8.10875 21.0751 6.45339 20.1656 5.14389 18.8561C3.83439 17.5466 2.92491 15.8913 2.52188 14.0837C2.11884 12.2762 2.23892 10.3913 2.86806 8.64952C3.4972 6.90775 4.60938 5.38117 6.07446 4.24843C7.53954 3.11568 9.29692 2.42361 11.141 2.25319C11.4353 2.22599 11.7182 2.37424 11.8634 2.63178ZM9.74687 4.0364C8.75311 4.32371 7.81767 4.79669 6.99195 5.4351C5.75227 6.39358 4.8112 7.6853 4.27885 9.1591C3.7465 10.6329 3.64489 12.2278 3.98592 13.7573C4.32695 15.2867 5.09651 16.6874 6.20455 17.7955C7.31259 18.9035 8.71327 19.6731 10.2427 20.0141C11.7722 20.3551 13.3671 20.2535 14.8409 19.7212C16.3147 19.1888 17.6064 18.2477 18.5649 17.0081C19.2033 16.1823 19.6763 15.2469 19.9636 14.2531C18.8087 14.7619 17.5386 14.9845 16.2628 14.8894C14.4117 14.7514 12.6716 13.9535 11.3591 12.6409C10.0465 11.3284 9.24864 9.5883 9.1106 7.7372C9.01546 6.46143 9.23809 5.19133 9.74687 4.0364Z" fill="black"/>
</svg>
