<svg viewBox="0 0 16 16" width="16" height="16" fill="black" xmlns="http://www.w3.org/2000/svg">
 <g transform="translate(1.2499998807907104, 1.2499873638153076)">
  <path d="M6.86284 0.381781C7.00798 0.639318 6.9883 0.95809 6.81258 1.19582C6.25356 1.95212 5.98455 2.88394 6.05449 3.82182C6.12443 4.75969 6.52867 5.64131 7.19369 6.30633C7.8587 6.97135 8.74032 7.37559 9.6782 7.44553C10.6161 7.51547 11.5479 7.24646 12.3042 6.68743C12.5419 6.51171 12.8607 6.49203 13.1182 6.63717C13.3758 6.78232 13.524 7.0652 13.4968 7.35957C13.3786 8.63864 12.8986 9.85759 12.1129 10.8738C11.3272 11.89 10.2683 12.6614 9.06023 13.0978C7.85211 13.5342 6.54469 13.6175 5.29097 13.3379C4.03724 13.0584 2.88906 12.4275 1.98077 11.5192C1.07248 10.611 0.441649 9.46277 0.162098 8.20905C-0.117453 6.95532 -0.0341659 5.6479 0.402215 4.43979C0.838596 3.23167 1.61002 2.17281 2.62622 1.38712C3.64243 0.601428 4.86138 0.121397 6.14044 0.00319479C6.43481 -0.0240085 6.7177 0.124244 6.86284 0.381781ZM4.8101 1.85016C4.35868 2.03053 3.93217 2.27347 3.54372 2.5738C2.75291 3.18522 2.15259 4.00922 1.813 4.94937C1.47341 5.88953 1.4086 6.90695 1.62614 7.8826C1.84369 8.85825 2.3346 9.75176 3.04143 10.4586C3.74826 11.1654 4.64177 11.6563 5.61741 11.8739C6.59306 12.0914 7.61049 12.0266 8.55064 11.687C9.4908 11.3474 10.3148 10.7471 10.9262 9.95629C11.2265 9.56785 11.4695 9.14134 11.6499 8.68991C10.9836 8.90678 10.2764 8.9943 9.56665 8.94137C8.2705 8.84471 7.05209 8.28605 6.13303 7.36699C5.21396 6.44792 4.6553 5.22952 4.55864 3.93337C4.50572 3.22364 4.59324 2.51642 4.8101 1.85016Z" fill-rule="EVENODD"></path>
 </g>
</svg>