<svg width="16" height="16" viewBox="0 0 16 16" fill="none" xmlns="http://www.w3.org/2000/svg">
<path fill-rule="evenodd" clip-rule="evenodd" d="M8.11284 1.63178C8.25798 1.88932 8.2383 2.20809 8.06258 2.44582C7.50356 3.20212 7.23455 4.13394 7.30449 5.07182C7.37443 6.00969 7.77867 6.89131 8.44369 7.55633C9.1087 8.22135 9.99032 8.62559 10.9282 8.69553C11.8661 8.76547 12.7979 8.49646 13.5542 7.93743C13.7919 7.76171 14.1107 7.74203 14.3682 7.88717C14.6258 8.03232 14.774 8.3152 14.7468 8.60957C14.6286 9.88864 14.1486 11.1076 13.3629 12.1238C12.5772 13.14 11.5183 13.9114 10.3102 14.3478C9.10211 14.7842 7.79469 14.8675 6.54097 14.5879C5.28724 14.3084 4.13906 13.6775 3.23077 12.7692C2.32248 11.861 1.69165 10.7128 1.4121 9.45905C1.13255 8.20532 1.21583 6.8979 1.65222 5.68979C2.0886 4.48167 2.86002 3.42281 3.87622 2.63712C4.89243 1.85143 6.11138 1.3714 7.39044 1.25319C7.68481 1.22599 7.9677 1.37424 8.11284 1.63178ZM6.0601 3.10016C5.60868 3.28053 5.18217 3.52347 4.79372 3.8238C4.00291 4.43522 3.40259 5.25922 3.063 6.19937C2.72341 7.13953 2.6586 8.15695 2.87614 9.1326C3.09369 10.1082 3.5846 11.0018 4.29143 11.7086C4.99826 12.4154 5.89177 12.9063 6.86741 13.1239C7.84306 13.3414 8.86049 13.2766 9.80064 12.937C10.7408 12.5974 11.5648 11.9971 12.1762 11.2063C12.4765 10.8178 12.7195 10.3913 12.8999 9.93991C12.2336 10.1568 11.5264 10.2443 10.8166 10.1914C9.5205 10.0947 8.30209 9.53605 7.38303 8.61699C6.46396 7.69792 5.9053 6.47952 5.80864 5.18337C5.75572 4.47364 5.84324 3.76642 6.0601 3.10016Z" fill="black"/>
</svg>
