<svg viewbox="0 0 16 16" width="16" height="16" fill="black" xmlns="http://www.w3.org/2000/svg">
 <g transform="translate(1.75, 6.5)">
  <path d="M1.5 0C0.671573 0 0 0.671573 0 1.5C0 2.32843 0.671573 3 1.5 3C2.32843 3 3 2.32843 3 1.5C3 0.671573 2.32843 0 1.5 0Z" fill-rule="NONZERO"></path>
  <path d="M6.25 0C5.42157 0 4.75 0.671573 4.75 1.5C4.75 2.32843 5.42157 3 6.25 3C7.07843 3 7.75 2.32843 7.75 1.5C7.75 0.671573 7.07843 0 6.25 0Z" fill-rule="NONZERO"></path>
  <path d="M11 0C10.1716 0 9.5 0.671573 9.5 1.5C9.5 2.32843 10.1716 3 11 3C11.8284 3 12.5 2.32843 12.5 1.5C12.5 0.671573 11.8284 0 11 0Z" fill-rule="NONZERO"></path>
 </g>
</svg>