<svg width="16" height="16" viewBox="0 0 16 16" fill="none" xmlns="http://www.w3.org/2000/svg">
<path d="M6.5 3.25C6.5 2.42157 7.17157 1.75 8 1.75C8.82843 1.75 9.5 2.42157 9.5 3.25C9.5 4.07843 8.82843 4.75 8 4.75C7.17157 4.75 6.5 4.07843 6.5 3.25Z" fill="black"/>
<path d="M6.5 8C6.5 7.17157 7.17157 6.5 8 6.5C8.82843 6.5 9.5 7.17157 9.5 8C9.5 8.82843 8.82843 9.5 8 9.5C7.17157 9.5 6.5 8.82843 6.5 8Z" fill="black"/>
<path d="M8 11.25C7.17157 11.25 6.5 11.9216 6.5 12.75C6.5 13.5784 7.17157 14.25 8 14.25C8.82843 14.25 9.5 13.5784 9.5 12.75C9.5 11.9216 8.82843 11.25 8 11.25Z" fill="black"/>
</svg>
