<svg width="16" height="16" viewBox="0 0 16 16" fill="none" xmlns="http://www.w3.org/2000/svg">
<path fill-rule="evenodd" clip-rule="evenodd" d="M2.78845 1.8077C2.50792 1.69083 2.18459 1.7548 1.96969 1.96969C1.7548 2.18459 1.69083 2.50792 1.8077 2.78845L6.3905 13.7885C6.51048 14.0765 6.79624 14.2601 7.10806 14.2496C7.41988 14.2391 7.69263 14.0366 7.79297 13.7412L9.03215 10.0928L12.4697 13.5303C12.7626 13.8232 13.2374 13.8232 13.5303 13.5303C13.8232 13.2374 13.8232 12.7626 13.5303 12.4697L10.0928 9.03215L13.7412 7.79297C14.0366 7.69263 14.2391 7.41988 14.2496 7.10806C14.2601 6.79624 14.0765 6.51048 13.7885 6.3905L2.78845 1.8077ZM7.01136 11.3783L3.89274 3.89274L11.3783 7.01136L8.4686 7.99965C8.24791 8.07461 8.07461 8.24791 7.99965 8.4686L7.01136 11.3783Z" fill="black"/>
</svg>
