<svg width="16" height="16" viewBox="0 0 16 16" fill="none" xmlns="http://www.w3.org/2000/svg">
<path d="M7.71291 0.306909C7.62445 0.343509 7.54158 0.397763 7.46967 0.46967L5.46967 2.46967C5.17678 2.76256 5.17678 3.23744 5.46967 3.53033C5.76256 3.82322 6.23744 3.82322 6.53033 3.53033L7.25 2.81066V7.25H2.81066L3.53033 6.53033C3.82322 6.23744 3.82322 5.76256 3.53033 5.46967C3.23744 5.17678 2.76256 5.17678 2.46967 5.46967L0.46967 7.46967C0.397763 7.54158 0.343509 7.62445 0.306909 7.71291C0.270239 7.80134 0.25 7.89831 0.25 8C0.25 8.19194 0.323223 8.38388 0.46967 8.53033L2.46967 10.5303C2.76256 10.8232 3.23744 10.8232 3.53033 10.5303C3.82322 10.2374 3.82322 9.76256 3.53033 9.46967L2.81066 8.75H7.25V13.1893L6.53033 12.4697C6.23744 12.1768 5.76256 12.1768 5.46967 12.4697C5.17678 12.7626 5.17678 13.2374 5.46967 13.5303L7.46967 15.5303C7.54158 15.6022 7.62445 15.6565 7.71291 15.6931C7.80134 15.7298 7.89831 15.75 8 15.75C8.19194 15.75 8.38388 15.6768 8.53033 15.5303L10.5303 13.5303C10.8232 13.2374 10.8232 12.7626 10.5303 12.4697C10.2374 12.1768 9.76256 12.1768 9.46967 12.4697L8.75 13.1893V8.75H13.1893L12.4697 9.46967C12.1768 9.76256 12.1768 10.2374 12.4697 10.5303C12.7626 10.8232 13.2374 10.8232 13.5303 10.5303L15.5303 8.53033C15.6022 8.45842 15.6565 8.37555 15.6931 8.28709C15.7298 8.19866 15.75 8.10169 15.75 8C15.75 7.80806 15.6768 7.61612 15.5303 7.46967L13.5303 5.46967C13.2374 5.17678 12.7626 5.17678 12.4697 5.46967C12.1768 5.76256 12.1768 6.23744 12.4697 6.53033L13.1893 7.25H8.75V2.81066L9.46967 3.53033C9.76256 3.82322 10.2374 3.82322 10.5303 3.53033C10.8232 3.23744 10.8232 2.76256 10.5303 2.46967L8.53033 0.46967C8.38388 0.323223 8.19194 0.25 8 0.25C7.89831 0.25 7.80134 0.270239 7.71291 0.306909Z" fill="black"/>
</svg>
