<svg width="24" height="24" viewBox="0 0 24 24" fill="none" xmlns="http://www.w3.org/2000/svg">
<path fill-rule="evenodd" clip-rule="evenodd" d="M21.75 3.00001C21.75 2.77954 21.653 2.57024 21.4848 2.42774C21.3166 2.28524 21.0942 2.22397 20.8767 2.26021L8.8767 4.26021C8.51506 4.32048 8.25 4.63338 8.25 5.00001V16.25H5C4.27065 16.25 3.57118 16.5397 3.05546 17.0555C2.53973 17.5712 2.25 18.2707 2.25 19C2.25 19.7293 2.53973 20.4288 3.05546 20.9445C3.57118 21.4603 4.27065 21.75 5 21.75H7C7.72935 21.75 8.42882 21.4603 8.94454 20.9445C9.46027 20.4288 9.75 19.7293 9.75 19V5.63535L20.25 3.88535V14.25H17C16.2707 14.25 15.5712 14.5397 15.0555 15.0555C14.5397 15.5712 14.25 16.2707 14.25 17C14.25 17.7293 14.5397 18.4288 15.0555 18.9445C15.5712 19.4603 16.2707 19.75 17 19.75H19C19.7293 19.75 20.4288 19.4603 20.9445 18.9445C21.4603 18.4288 21.75 17.7293 21.75 17V3.00001ZM16.1161 16.1161C16.3505 15.8817 16.6685 15.75 17 15.75H20.25V17C20.25 17.3315 20.1183 17.6495 19.8839 17.8839C19.6495 18.1183 19.3315 18.25 19 18.25H17C16.6685 18.25 16.3505 18.1183 16.1161 17.8839C15.8817 17.6495 15.75 17.3315 15.75 17C15.75 16.6685 15.8817 16.3505 16.1161 16.1161ZM4.11612 18.1161C4.35054 17.8817 4.66848 17.75 5 17.75H8.25V19C8.25 19.3315 8.1183 19.6495 7.88388 19.8839C7.64946 20.1183 7.33152 20.25 7 20.25H5C4.66848 20.25 4.35054 20.1183 4.11612 19.8839C3.8817 19.6495 3.75 19.3315 3.75 19C3.75 18.6685 3.8817 18.3505 4.11612 18.1161Z" fill="black"/>
</svg>
