<svg width="16" height="16" viewBox="0 0 16 16" fill="none" xmlns="http://www.w3.org/2000/svg">
<path fill-rule="evenodd" clip-rule="evenodd" d="M14.75 2.00001C14.75 1.77689 14.6507 1.56536 14.479 1.42287C14.3073 1.28039 14.0811 1.22173 13.8618 1.26285L5.86178 2.76285C5.50705 2.82936 5.25 3.13909 5.25 3.50001V10.5833H3.33333C2.7808 10.5833 2.25089 10.8028 1.86019 11.1935C1.46949 11.5842 1.25 12.1141 1.25 12.6667C1.25 13.2192 1.46949 13.7491 1.86019 14.1398C2.25089 14.5305 2.7808 14.75 3.33333 14.75H4.66667C5.2192 14.75 5.74911 14.5305 6.13981 14.1398C6.53051 13.7491 6.75 13.2192 6.75 12.6667V4.12245L13.25 2.9037V9.25H11.3333C10.7808 9.25 10.2509 9.46949 9.8602 9.86019C9.46949 10.2509 9.25 10.7808 9.25 11.3333C9.25 11.8859 9.46949 12.4158 9.8602 12.8065C10.2509 13.1972 10.7808 13.4167 11.3333 13.4167H12.6667C13.2192 13.4167 13.7491 13.1972 14.1398 12.8065C14.5305 12.4158 14.75 11.8859 14.75 11.3333V2.00001ZM10.9209 10.9209C11.0303 10.8115 11.1786 10.75 11.3333 10.75H13.25V11.3333C13.25 11.488 13.1885 11.6364 13.0791 11.7458C12.9697 11.8552 12.8214 11.9167 12.6667 11.9167H11.3333C11.1786 11.9167 11.0303 11.8552 10.9209 11.7458C10.8115 11.6364 10.75 11.488 10.75 11.3333C10.75 11.1786 10.8115 11.0303 10.9209 10.9209ZM2.92085 12.2542C3.03025 12.1448 3.17862 12.0833 3.33333 12.0833H5.25V12.6667C5.25 12.8214 5.18854 12.9697 5.07915 13.0791C4.96975 13.1885 4.82138 13.25 4.66667 13.25H3.33333C3.17862 13.25 3.03025 13.1885 2.92085 13.0791C2.81146 12.9697 2.75 12.8214 2.75 12.6667C2.75 12.512 2.81146 12.3636 2.92085 12.2542Z" fill="black"/>
</svg>
