<svg width="16" height="16" viewBox="0 0 16 16" fill="none" xmlns="http://www.w3.org/2000/svg">
<path fill-rule="evenodd" clip-rule="evenodd" d="M8 1.25C8.30277 1.25 8.57585 1.43205 8.69231 1.71154L13.6923 13.7115C13.813 14.0013 13.7405 14.3356 13.5106 14.5493C13.2807 14.7631 12.942 14.811 12.6618 14.6694L8 12.314L3.33822 14.6694C3.05804 14.811 2.71932 14.7631 2.48939 14.5493C2.25946 14.3356 2.18695 14.0013 2.30769 13.7115L7.30769 1.71154C7.42414 1.43205 7.69722 1.25 8 1.25ZM4.47266 12.4156L7.66177 10.8043C7.87445 10.6968 8.12554 10.6968 8.33822 10.8043L11.5273 12.4156L8 3.95L4.47266 12.4156Z" fill="black"/>
</svg>
