<svg width="16" height="16" viewBox="0 0 16 16" fill="none" xmlns="http://www.w3.org/2000/svg">
<path fill-rule="evenodd" clip-rule="evenodd" d="M14.5303 1.46969C14.7545 1.69382 14.8135 2.03464 14.6778 2.32109L8.99361 14.3211C8.858 14.6074 8.55714 14.7776 8.2419 14.7464C7.92667 14.7152 7.66503 14.4892 7.5882 14.1819L6.43418 9.56586L1.81812 8.41184C1.51079 8.33501 1.28488 8.07337 1.25367 7.75813C1.22245 7.4429 1.39267 7.14204 1.67895 7.00643L13.679 1.32222C13.9654 1.18653 14.3062 1.24557 14.5303 1.46969ZM4.21503 7.4649L7.23455 8.21978C7.50327 8.28696 7.71308 8.49677 7.78026 8.76549L8.53514 11.785L12.4232 3.57681L4.21503 7.4649Z" fill="black"/>
</svg>
