<svg width="24" height="24" viewBox="0 0 24 24" fill="none" xmlns="http://www.w3.org/2000/svg">
<path fill-rule="evenodd" clip-rule="evenodd" d="M12 1.25C12.3142 1.25 12.5951 1.44587 12.7038 1.74072L19.7038 20.7407C19.8127 21.0365 19.7251 21.3689 19.4845 21.5725C19.2439 21.7761 18.9016 21.8076 18.6279 21.6512L12 17.8638L5.3721 21.6512C5.09841 21.8076 4.75613 21.7761 4.51551 21.5725C4.27488 21.3689 4.18727 21.0365 4.29624 20.7407L11.2962 1.74072C11.4049 1.44587 11.6858 1.25 12 1.25ZM6.41553 19.3273L11.6279 16.3488C11.8585 16.2171 12.1415 16.2171 12.3721 16.3488L17.5845 19.3273L12 4.16948L6.41553 19.3273Z" fill="black"/>
</svg>
