<svg width="24" height="24" viewBox="0 0 24 24" fill="none" xmlns="http://www.w3.org/2000/svg">
<path fill-rule="evenodd" clip-rule="evenodd" d="M22.5303 1.46969C22.7545 1.69382 22.8135 2.03464 22.6778 2.32109L13.6778 21.3211C13.5422 21.6074 13.2414 21.7776 12.9261 21.7464C12.6109 21.7152 12.3492 21.4892 12.2724 21.1819L10.3816 13.6185L2.81812 11.7276C2.51079 11.6508 2.28488 11.3892 2.25367 11.0739C2.22245 10.7587 2.39267 10.4578 2.67895 10.3222L21.679 1.32222C21.9654 1.18653 22.3062 1.24557 22.5303 1.46969ZM5.21503 10.7807L11.1819 12.2724C11.4506 12.3396 11.6604 12.5494 11.7276 12.8181L13.2193 18.785L20.4232 3.57681L5.21503 10.7807Z" fill="black"/>
</svg>
