<svg width="24" height="24" viewBox="0 0 24 24" fill="none" xmlns="http://www.w3.org/2000/svg">
<path fill-rule="evenodd" clip-rule="evenodd" d="M10 2.25C9.0335 2.25 8.25 3.0335 8.25 4V8C8.25 8.9665 9.0335 9.75 10 9.75H11.25V11.25H3C2.58579 11.25 2.25 11.5858 2.25 12C2.25 12.4142 2.58579 12.75 3 12.75H6.25V14.25H5C4.0335 14.25 3.25 15.0335 3.25 16V20C3.25 20.9665 4.0335 21.75 5 21.75H9C9.9665 21.75 10.75 20.9665 10.75 20V16C10.75 15.0335 9.9665 14.25 9 14.25H7.75V12.75H16.25V14.25H15C14.0335 14.25 13.25 15.0335 13.25 16V20C13.25 20.9665 14.0335 21.75 15 21.75H19C19.9665 21.75 20.75 20.9665 20.75 20V16C20.75 15.0335 19.9665 14.25 19 14.25H17.75V12.75H21C21.4142 12.75 21.75 12.4142 21.75 12C21.75 11.5858 21.4142 11.25 21 11.25H12.75V9.75H14C14.9665 9.75 15.75 8.9665 15.75 8V4C15.75 3.0335 14.9665 2.25 14 2.25H10ZM15 15.75C14.8619 15.75 14.75 15.8619 14.75 16V20C14.75 20.1381 14.8619 20.25 15 20.25H19C19.1381 20.25 19.25 20.1381 19.25 20V16C19.25 15.8619 19.1381 15.75 19 15.75H15ZM5 15.75C4.86193 15.75 4.75 15.8619 4.75 16V20C4.75 20.1381 4.86193 20.25 5 20.25H9C9.13807 20.25 9.25 20.1381 9.25 20V16C9.25 15.8619 9.13807 15.75 9 15.75H5ZM14 8.25C14.1381 8.25 14.25 8.13807 14.25 8V4C14.25 3.86193 14.1381 3.75 14 3.75H10C9.86193 3.75 9.75 3.86193 9.75 4V8C9.75 8.13807 9.86193 8.25 10 8.25H14Z" fill="black"/>
</svg>
