<svg viewbox="0 0 24 24" width="24" height="24" fill="black" xmlns="http://www.w3.org/2000/svg">
 <g transform="translate(2.25, 2.25)">
  <path d="M7.75 0C6.7835 0 6 0.783502 6 1.75L6 5.75C6 6.7165 6.7835 7.5 7.75 7.5L9 7.5L9 9L0.75 9C0.335786 9 0 9.33579 0 9.75C0 10.1642 0.335786 10.5 0.75 10.5L4 10.5L4 12L2.75 12C1.7835 12 1 12.7835 1 13.75L1 17.75C1 18.7165 1.7835 19.5 2.75 19.5L6.75 19.5C7.7165 19.5 8.5 18.7165 8.5 17.75L8.5 13.75C8.5 12.7835 7.7165 12 6.75 12L5.5 12L5.5 10.5L14 10.5L14 12L12.75 12C11.7835 12 11 12.7835 11 13.75L11 17.75C11 18.7165 11.7835 19.5 12.75 19.5L16.75 19.5C17.7165 19.5 18.5 18.7165 18.5 17.75L18.5 13.75C18.5 12.7835 17.7165 12 16.75 12L15.5 12L15.5 10.5L18.75 10.5C19.1642 10.5 19.5 10.1642 19.5 9.75C19.5 9.33579 19.1642 9 18.75 9L10.5 9L10.5 7.5L11.75 7.5C12.7165 7.5 13.5 6.7165 13.5 5.75L13.5 1.75C13.5 0.783502 12.7165 0 11.75 0L7.75 0ZM12.75 13.5C12.6119 13.5 12.5 13.6119 12.5 13.75L12.5 17.75C12.5 17.8881 12.6119 18 12.75 18L16.75 18C16.8881 18 17 17.8881 17 17.75L17 13.75C17 13.6119 16.8881 13.5 16.75 13.5L12.75 13.5ZM2.75 13.5C2.61193 13.5 2.5 13.6119 2.5 13.75L2.5 17.75C2.5 17.8881 2.61193 18 2.75 18L6.75 18C6.88807 18 7 17.8881 7 17.75L7 13.75C7 13.6119 6.88807 13.5 6.75 13.5L2.75 13.5ZM11.75 6C11.8881 6 12 5.88807 12 5.75L12 1.75C12 1.61193 11.8881 1.5 11.75 1.5L7.75 1.5C7.61193 1.5 7.5 1.61193 7.5 1.75L7.5 5.75C7.5 5.88807 7.61193 6 7.75 6L11.75 6Z" fill-rule="EVENODD"></path>
 </g>
</svg>