<svg width="24" height="24" viewBox="0 0 24 24" fill="none" xmlns="http://www.w3.org/2000/svg">
<path d="M1.46967 12.5303C1.17678 12.2374 1.17678 11.7626 1.46967 11.4697L6.46967 6.46967C6.76256 6.17678 7.23744 6.17678 7.53033 6.46967C7.82322 6.76256 7.82322 7.23744 7.53033 7.53033L3.06066 12L7.53033 16.4697C7.82322 16.7626 7.82322 17.2374 7.53033 17.5303C7.23744 17.8232 6.76256 17.8232 6.46967 17.5303L1.46967 12.5303Z" fill="black"/>
<path d="M22.5303 11.4697L17.5303 6.46967C17.2374 6.17678 16.7626 6.17678 16.4697 6.46967C16.1768 6.76256 16.1768 7.23744 16.4697 7.53033L20.9393 12L16.4697 16.4697C16.1768 16.7626 16.1768 17.2374 16.4697 17.5303C16.7626 17.8232 17.2374 17.8232 17.5303 17.5303L22.5303 12.5303C22.8232 12.2374 22.8232 11.7626 22.5303 11.4697Z" fill="black"/>
<path d="M8 11C7.44772 11 7 11.4477 7 12C7 12.5523 7.44772 13 8 13H8.1C8.65228 13 9.1 12.5523 9.1 12C9.1 11.4477 8.65228 11 8.1 11H8Z" fill="black"/>
<path d="M12 11C11.4477 11 11 11.4477 11 12C11 12.5523 11.4477 13 12 13H12.1C12.6523 13 13.1 12.5523 13.1 12C13.1 11.4477 12.6523 11 12.1 11H12Z" fill="black"/>
<path d="M16 11C15.4477 11 15 11.4477 15 12C15 12.5523 15.4477 13 16 13H16.1C16.6523 13 17.1 12.5523 17.1 12C17.1 11.4477 16.6523 11 16.1 11H16Z" fill="black"/>
</svg>
