<svg width="16" height="16" viewBox="0 0 16 16" fill="none" xmlns="http://www.w3.org/2000/svg">
<path d="M15.75 8C15.75 7.80109 15.671 7.61032 15.5303 7.46967L12.0303 3.96967C11.7374 3.67678 11.2626 3.67678 10.9697 3.96967C10.6768 4.26256 10.6768 4.73744 10.9697 5.03033L13.9393 8L10.9697 10.9697C10.6768 11.2626 10.6768 11.7374 10.9697 12.0303C11.2626 12.3232 11.7374 12.3232 12.0303 12.0303L15.5303 8.53033C15.671 8.38968 15.75 8.19891 15.75 8Z" fill="black"/>
<path d="M0.46967 8.53033C0.176777 8.23744 0.176777 7.76256 0.46967 7.46967L3.96967 3.96967C4.26256 3.67678 4.73744 3.67678 5.03033 3.96967C5.32322 4.26256 5.32322 4.73744 5.03033 5.03033L2.06066 8L5.03033 10.9697C5.32322 11.2626 5.32322 11.7374 5.03033 12.0303C4.73744 12.3232 4.26256 12.3232 3.96967 12.0303L0.46967 8.53033Z" fill="black"/>
<path d="M5.33334 7.25C4.91913 7.25 4.58334 7.58579 4.58334 8C4.58334 8.41421 4.91913 8.75 5.33334 8.75H5.40001C5.81422 8.75 6.15001 8.41421 6.15001 8C6.15001 7.58579 5.81422 7.25 5.40001 7.25H5.33334Z" fill="black"/>
<path d="M8.00001 7.25C7.5858 7.25 7.25001 7.58579 7.25001 8C7.25001 8.41421 7.5858 8.75 8.00001 8.75H8.06668C8.48089 8.75 8.81668 8.41421 8.81668 8C8.81668 7.58579 8.48089 7.25 8.06668 7.25H8.00001Z" fill="black"/>
<path d="M10.6667 7.25C10.2525 7.25 9.91668 7.58579 9.91668 8C9.91668 8.41421 10.2525 8.75 10.6667 8.75H10.7333C11.1476 8.75 11.4833 8.41421 11.4833 8C11.4833 7.58579 11.1476 7.25 10.7333 7.25H10.6667Z" fill="black"/>
</svg>
