<svg viewbox="0 0 16 16" width="16" height="16" fill="black" xmlns="http://www.w3.org/2000/svg">
 <g transform="translate(0.25, 0.25)">
  <path d="M5.54999 9.75002C5.54999 9.36342 5.86339 9.05002 6.24999 9.05002L12.25 9.05002C12.6366 9.05002 12.95 9.36342 12.95 9.75002C12.95 10.1366 12.6366 10.45 12.25 10.45L6.24999 10.45C5.86339 10.45 5.54999 10.1366 5.54999 9.75002Z" fill-rule="NONZERO"></path>
  <path d="M6.24999 11.55C5.86339 11.55 5.54999 11.8634 5.54999 12.25C5.54999 12.6366 5.86339 12.95 6.24999 12.95L10.25 12.95C10.6366 12.95 10.95 12.6366 10.95 12.25C10.95 11.8634 10.6366 11.55 10.25 11.55L6.24999 11.55Z" fill-rule="NONZERO"></path>
  <path d="M6.24999 2.55002C5.86339 2.55002 5.54999 2.86342 5.54999 3.25002L5.54999 7.25002C5.54999 7.63662 5.86339 7.95002 6.24999 7.95002L12.25 7.95002C12.6366 7.95002 12.95 7.63662 12.95 7.25002L12.95 3.25002C12.95 2.86342 12.6366 2.55002 12.25 2.55002L6.24999 2.55002ZM6.94999 6.55002L6.94999 3.95002L11.55 3.95002L11.55 6.55002L6.94999 6.55002Z" fill-rule="EVENODD"></path>
  <path d="M15.5 3.54999L15.5 2.25C15.5 1.00736 14.4926 -5.77634e-06 13.25 2.50111e-11L5.24999 3.4682e-05C4.00735 4.04584e-05 3 1.0074 3 2.25003L3 3.00001L2.49997 3.00004C1.83694 3.00005 1.20107 3.26344 0.732237 3.73227C0.263396 4.20111 3.93391e-06 4.83699 3.93391e-06 5.50004L0 13.2507C0 14.4925 1.00442 15.4999 2.2479 15.4999L13.2546 15.5C14.5003 15.5 15.5 14.4896 15.5 13.25L15.5 3.75004C15.5 3.71613 15.4977 3.68275 15.4934 3.65003C15.4977 3.61731 15.5 3.58391 15.5 3.54999ZM2.50004 4.50004L3 4.50001L3 13.25C3 13.6606 2.66996 13.9942 2.26067 13.9999L2.24791 13.9999C1.83454 13.9999 1.5 13.6658 1.5 13.2507L1.5 5.50004C1.5 5.23482 1.60536 4.98046 1.7929 4.79293C1.98043 4.60539 2.23482 4.50004 2.50004 4.50004ZM4.5 13.25C4.5 13.5129 4.45489 13.7653 4.37199 13.9999L13.2546 14C13.6658 14 14 13.6672 14 13.25L14 3.75004C14 3.71612 14.0022 3.68272 14.0066 3.65C14.0022 3.61728 14 3.5839 14 3.54999L14 2.25C14 1.83579 13.6642 1.5 13.25 1.5L5.25 1.50003C4.83578 1.50004 4.5 1.83582 4.5 2.25003L4.5 13.25Z" fill-rule="EVENODD"></path>
 </g>
</svg>