<svg viewbox="0 0 24 24" width="24" height="24" fill="black" xmlns="http://www.w3.org/2000/svg">
 <g transform="translate(1.25, 1.2500001192092896)">
  <path d="M9 12.75C9 12.3358 9.33579 12 9.75 12L16.75 12C17.1642 12 17.5 12.3358 17.5 12.75C17.5 13.1642 17.1642 13.5 16.75 13.5L9.75 13.5C9.33579 13.5 9 13.1642 9 12.75Z" fill-rule="NONZERO"></path>
  <path d="M9.75 16C9.33579 16 9 16.3358 9 16.75C9 17.1642 9.33579 17.5 9.75 17.5L13.75 17.5C14.1642 17.5 14.5 17.1642 14.5 16.75C14.5 16.3358 14.1642 16 13.75 16L9.75 16Z" fill-rule="NONZERO"></path>
  <path d="M9.25 3C8.55964 3 8 3.55964 8 4.25L8 8.25C8 8.94036 8.55964 9.5 9.25 9.5L17.25 9.5C17.9404 9.5 18.5 8.94036 18.5 8.25L18.5 4.25C18.5 3.55964 17.9404 3 17.25 3L9.25 3ZM9.5 8L9.5 4.5L17 4.5L17 8L9.5 8Z" fill-rule="EVENODD"></path>
  <path d="M21.5 2.75C21.5 1.23122 20.2688 0 18.75 0L7.75 0C6.23122 0 5 1.23122 5 2.75L5 4L3.25 4C2.38805 4 1.5614 4.34241 0.951903 4.9519C0.34241 5.5614 0 6.38805 0 7.25L0 18.25C0 19.112 0.34241 19.9386 0.951903 20.5481C1.5614 21.1576 2.38805 21.5 3.25 21.5L18.75 21.5C20.2688 21.5 21.5 20.2688 21.5 18.75L21.5 2.75ZM3.25 5.5L5 5.5L5 18.25C5 18.7141 4.81562 19.1592 4.48744 19.4874C4.15925 19.8156 3.71413 20 3.25 20C2.78587 20 2.34075 19.8156 2.01256 19.4874C1.68437 19.1592 1.5 18.7141 1.5 18.25L1.5 7.25C1.5 6.78587 1.68437 6.34075 2.01256 6.01256C2.34075 5.68437 2.78587 5.5 3.25 5.5ZM6.5 18.25C6.5 18.875 6.31997 19.4814 5.98863 20L18.75 20C19.4404 20 20 19.4404 20 18.75L20 2.75C20 2.05964 19.4404 1.5 18.75 1.5L7.75 1.5C7.05964 1.5 6.5 2.05965 6.5 2.75L6.5 18.25Z" fill-rule="EVENODD"></path>
 </g>
</svg>