<svg width="24" height="24" viewBox="0 0 24 24" fill="none" xmlns="http://www.w3.org/2000/svg">
<path fill-rule="evenodd" clip-rule="evenodd" d="M7.25 9C7.25 8.0335 8.0335 7.25 9 7.25H15C15.9665 7.25 16.75 8.0335 16.75 9V11.25H22C22.4142 11.25 22.75 11.5858 22.75 12C22.75 12.4142 22.4142 12.75 22 12.75H16.75V15C16.75 15.9665 15.9665 16.75 15 16.75H9C8.0335 16.75 7.25 15.9665 7.25 15V12.75L2 12.75C1.58579 12.75 1.25 12.4142 1.25 12C1.25 11.5858 1.58579 11.25 2 11.25L7.25 11.25V9ZM15.25 9C15.25 8.86193 15.1381 8.75 15 8.75H9C8.86193 8.75 8.75 8.86193 8.75 9V15C8.75 15.1381 8.86193 15.25 9 15.25H15C15.1381 15.25 15.25 15.1381 15.25 15V9Z" fill="black"/>
</svg>
