<svg width="24" height="24" viewBox="0 0 24 24" fill="none" xmlns="http://www.w3.org/2000/svg">
<path fill-rule="evenodd" clip-rule="evenodd" d="M5 2.25C3.48122 2.25 2.25 3.48122 2.25 5V21C2.25 21.4142 2.58579 21.75 3 21.75C3.41421 21.75 3.75 21.4142 3.75 21V5C3.75 4.30964 4.30964 3.75 5 3.75H15C15.6904 3.75 16.25 4.30964 16.25 5V10.4831C16.2498 10.4941 16.2498 10.5051 16.25 10.5161V21C16.25 21.4142 16.5858 21.75 17 21.75L17.0087 21.75H20C20.9665 21.75 21.75 20.9664 21.75 19.9999V13.5231C21.75 12.42 21.0909 11.4236 20.0756 10.9922L17.75 10.0038V5C17.75 3.48122 16.5188 2.25 15 2.25H5ZM17.75 11.6336V20.25H20C20.1381 20.25 20.25 20.138 20.25 19.9999V13.5231C20.25 13.0217 19.9504 12.5688 19.4889 12.3727L17.75 11.6336Z" fill="black"/>
<path d="M8.5 16.25C7.80964 16.25 7.25 16.8096 7.25 17.5V21C7.25 21.4142 7.58579 21.75 8 21.75C8.41421 21.75 8.75 21.4142 8.75 21V17.75H11.75V21C11.75 21.4142 12.0858 21.75 12.5 21.75C12.9142 21.75 13.25 21.4142 13.25 21V17.5C13.25 16.8096 12.6904 16.25 12 16.25H8.5Z" fill="black"/>
<path d="M6.625 7C6.625 6.51675 7.01675 6.125 7.5 6.125H8C8.48325 6.125 8.875 6.51675 8.875 7C8.875 7.48325 8.48325 7.875 8 7.875H7.5C7.01675 7.875 6.625 7.48325 6.625 7Z" fill="black"/>
<path d="M12 6.125C11.5168 6.125 11.125 6.51675 11.125 7C11.125 7.48325 11.5168 7.875 12 7.875H12.5C12.9832 7.875 13.375 7.48325 13.375 7C13.375 6.51675 12.9832 6.125 12.5 6.125H12Z" fill="black"/>
<path d="M6.625 10C6.625 9.51675 7.01675 9.125 7.5 9.125H8C8.48325 9.125 8.875 9.51675 8.875 10C8.875 10.4832 8.48325 10.875 8 10.875H7.5C7.01675 10.875 6.625 10.4832 6.625 10Z" fill="black"/>
<path d="M12 9.125C11.5168 9.125 11.125 9.51675 11.125 10C11.125 10.4832 11.5168 10.875 12 10.875H12.5C12.9832 10.875 13.375 10.4832 13.375 10C13.375 9.51675 12.9832 9.125 12.5 9.125H12Z" fill="black"/>
<path d="M6.625 13C6.625 12.5168 7.01675 12.125 7.5 12.125H8C8.48325 12.125 8.875 12.5168 8.875 13C8.875 13.4832 8.48325 13.875 8 13.875H7.5C7.01675 13.875 6.625 13.4832 6.625 13Z" fill="black"/>
<path d="M12 12.125C11.5168 12.125 11.125 12.5168 11.125 13C11.125 13.4832 11.5168 13.875 12 13.875H12.5C12.9832 13.875 13.375 13.4832 13.375 13C13.375 12.5168 12.9832 12.125 12.5 12.125H12Z" fill="black"/>
</svg>
