<svg width="16" height="16" viewBox="0 0 16 16" fill="none" xmlns="http://www.w3.org/2000/svg">
<path fill-rule="evenodd" clip-rule="evenodd" d="M1.25 3.5C1.25 2.25736 2.25736 1.25 3.5 1.25H9.5C10.7426 1.25 11.75 2.25736 11.75 3.5V5.59868L13.7481 6.93074C14.374 7.34804 14.75 8.05056 14.75 8.80285L14.75 13.5001C14.75 14.1904 14.1904 14.7501 13.5 14.7501H11C10.6684 14.7501 10.387 14.5348 10.288 14.2364C10.2749 14.197 10.2651 14.1562 10.2586 14.1142C10.253 14.077 10.25 14.0388 10.25 14V3.5C10.25 3.08579 9.91421 2.75 9.5 2.75H3.5C3.08579 2.75 2.75 3.08579 2.75 3.5V14C2.75 14.4142 2.41421 14.75 2 14.75C1.58579 14.75 1.25 14.4142 1.25 14V3.5ZM11.75 13.2501V7.40145L12.916 8.17882C13.1247 8.31792 13.25 8.55209 13.25 8.80286L13.25 13.2501H11.75Z" fill="black"/>
<path d="M5.24999 10.3C4.72532 10.3 4.29999 10.7254 4.29999 11.25V14C4.29999 14.3866 4.61339 14.7 4.99999 14.7C5.38659 14.7 5.69999 14.3866 5.69999 14V11.7H7.29999V14C7.29999 14.3866 7.61339 14.7 7.99999 14.7C8.38659 14.7 8.69999 14.3866 8.69999 14V11.25C8.69999 10.7254 8.27466 10.3 7.74999 10.3H5.24999Z" fill="black"/>
<path d="M4.29999 4.66655C4.29999 4.27995 4.61339 3.96655 4.99999 3.96655H5.24999C5.63659 3.96655 5.94999 4.27995 5.94999 4.66655C5.94999 5.05315 5.63659 5.36655 5.24999 5.36655H4.99999C4.61339 5.36655 4.29999 5.05315 4.29999 4.66655Z" fill="black"/>
<path d="M7.74999 3.9668C7.36339 3.9668 7.04999 4.2802 7.04999 4.6668C7.04999 5.0534 7.36339 5.3668 7.74999 5.3668H7.99999C8.38659 5.3668 8.69999 5.0534 8.69999 4.6668C8.69999 4.2802 8.38659 3.9668 7.99999 3.9668H7.74999Z" fill="black"/>
<path d="M4.29999 6.66655C4.29999 6.27995 4.61339 5.96655 4.99999 5.96655H5.24999C5.63659 5.96655 5.94999 6.27995 5.94999 6.66655C5.94999 7.05315 5.63659 7.36655 5.24999 7.36655H4.99999C4.61339 7.36655 4.29999 7.05315 4.29999 6.66655Z" fill="black"/>
<path d="M7.74999 5.9668C7.36339 5.9668 7.04999 6.2802 7.04999 6.6668C7.04999 7.0534 7.36339 7.3668 7.74999 7.3668H7.99999C8.38659 7.3668 8.69999 7.0534 8.69999 6.6668C8.69999 6.2802 8.38659 5.9668 7.99999 5.9668H7.74999Z" fill="black"/>
<path d="M4.29999 8.66655C4.29999 8.27995 4.61339 7.96655 4.99999 7.96655H5.24999C5.63659 7.96655 5.94999 8.27995 5.94999 8.66655C5.94999 9.05315 5.63659 9.36655 5.24999 9.36655H4.99999C4.61339 9.36655 4.29999 9.05315 4.29999 8.66655Z" fill="black"/>
<path d="M7.74999 7.9668C7.36339 7.9668 7.04999 8.2802 7.04999 8.6668C7.04999 9.0534 7.36339 9.3668 7.74999 9.3668H7.99999C8.38659 9.3668 8.69999 9.0534 8.69999 8.6668C8.69999 8.2802 8.38659 7.9668 7.99999 7.9668H7.74999Z" fill="black"/>
</svg>
