<svg width="24" height="24" viewBox="0 0 24 24" fill="none" xmlns="http://www.w3.org/2000/svg">
<path d="M7.125 6C7.125 5.51675 7.51675 5.125 8 5.125H8.1C8.58325 5.125 8.975 5.51675 8.975 6C8.975 6.48325 8.58325 6.875 8.1 6.875H8C7.51675 6.875 7.125 6.48325 7.125 6Z" fill="black"/>
<path d="M8 9.125C7.51675 9.125 7.125 9.51675 7.125 10C7.125 10.4832 7.51675 10.875 8 10.875H8.1C8.58325 10.875 8.975 10.4832 8.975 10C8.975 9.51675 8.58325 9.125 8.1 9.125H8Z" fill="black"/>
<path d="M7.125 14C7.125 13.5168 7.51675 13.125 8 13.125H8.1C8.58325 13.125 8.975 13.5168 8.975 14C8.975 14.4832 8.58325 14.875 8.1 14.875H8C7.51675 14.875 7.125 14.4832 7.125 14Z" fill="black"/>
<path d="M8 17.125C7.51675 17.125 7.125 17.5168 7.125 18C7.125 18.4832 7.51675 18.875 8 18.875H8.1C8.58325 18.875 8.975 18.4832 8.975 18C8.975 17.5168 8.58325 17.125 8.1 17.125H8Z" fill="black"/>
<path d="M10.25 10C10.25 9.58579 10.5858 9.25 11 9.25H14C14.4142 9.25 14.75 9.58579 14.75 10C14.75 10.4142 14.4142 10.75 14 10.75H11C10.5858 10.75 10.25 10.4142 10.25 10Z" fill="black"/>
<path d="M11 5.25C10.5858 5.25 10.25 5.58579 10.25 6C10.25 6.41421 10.5858 6.75 11 6.75H16C16.4142 6.75 16.75 6.41421 16.75 6C16.75 5.58579 16.4142 5.25 16 5.25H11Z" fill="black"/>
<path d="M10.25 14C10.25 13.5858 10.5858 13.25 11 13.25H16C16.4142 13.25 16.75 13.5858 16.75 14C16.75 14.4142 16.4142 14.75 16 14.75H11C10.5858 14.75 10.25 14.4142 10.25 14Z" fill="black"/>
<path d="M11 17.25C10.5858 17.25 10.25 17.5858 10.25 18C10.25 18.4142 10.5858 18.75 11 18.75H13C13.4142 18.75 13.75 18.4142 13.75 18C13.75 17.5858 13.4142 17.25 13 17.25H11Z" fill="black"/>
<path fill-rule="evenodd" clip-rule="evenodd" d="M3.25 4C3.25 2.48122 4.48122 1.25 6 1.25H18C19.5188 1.25 20.75 2.48122 20.75 4V20C20.75 21.5188 19.5188 22.75 18 22.75H6C4.48122 22.75 3.25 21.5188 3.25 20V4ZM6 2.75C5.30964 2.75 4.75 3.30964 4.75 4V20C4.75 20.6904 5.30964 21.25 6 21.25H18C18.6904 21.25 19.25 20.6904 19.25 20V4C19.25 3.30964 18.6904 2.75 18 2.75H6Z" fill="black"/>
</svg>
