<svg width="16" height="16" viewBox="0 0 16 16" fill="none" xmlns="http://www.w3.org/2000/svg">
<path d="M6.75 6.66675C6.75 6.25253 7.08579 5.91675 7.5 5.91675H9C9.41421 5.91675 9.75 6.25253 9.75 6.66675C9.75 7.08096 9.41421 7.41675 9 7.41675H7.5C7.08579 7.41675 6.75 7.08096 6.75 6.66675Z" fill="black"/>
<path d="M5 3.25C4.58579 3.25 4.25 3.58579 4.25 4C4.25 4.41421 4.58579 4.75 5 4.75H5.06667C5.48088 4.75 5.81667 4.41421 5.81667 4C5.81667 3.58579 5.48088 3.25 5.06667 3.25H5Z" fill="black"/>
<path d="M4.25 6.66675C4.25 6.25253 4.58579 5.91675 5 5.91675H5.06667C5.48088 5.91675 5.81667 6.25253 5.81667 6.66675C5.81667 7.08096 5.48088 7.41675 5.06667 7.41675H5C4.58579 7.41675 4.25 7.08096 4.25 6.66675Z" fill="black"/>
<path d="M5 8.58325C4.58579 8.58325 4.25 8.91904 4.25 9.33325C4.25 9.74747 4.58579 10.0833 5 10.0833H5.06667C5.48088 10.0833 5.81667 9.74747 5.81667 9.33325C5.81667 8.91904 5.48088 8.58325 5.06667 8.58325H5Z" fill="black"/>
<path d="M4.25 12C4.25 11.5858 4.58579 11.25 5 11.25H5.06667C5.48088 11.25 5.81667 11.5858 5.81667 12C5.81667 12.4142 5.48088 12.75 5.06667 12.75H5C4.58579 12.75 4.25 12.4142 4.25 12Z" fill="black"/>
<path d="M7.5 3.25C7.08579 3.25 6.75 3.58579 6.75 4C6.75 4.41421 7.08579 4.75 7.5 4.75H10.5C10.9142 4.75 11.25 4.41421 11.25 4C11.25 3.58579 10.9142 3.25 10.5 3.25H7.5Z" fill="black"/>
<path d="M6.75 9.33325C6.75 8.91904 7.08579 8.58325 7.5 8.58325H11C11.4142 8.58325 11.75 8.91904 11.75 9.33325C11.75 9.74747 11.4142 10.0833 11 10.0833H7.5C7.08579 10.0833 6.75 9.74747 6.75 9.33325Z" fill="black"/>
<path d="M7.5 11.25C7.08579 11.25 6.75 11.5858 6.75 12C6.75 12.4142 7.08579 12.75 7.5 12.75H9.5C9.91421 12.75 10.25 12.4142 10.25 12C10.25 11.5858 9.91421 11.25 9.5 11.25H7.5Z" fill="black"/>
<path fill-rule="evenodd" clip-rule="evenodd" d="M1.25 2.5C1.25 1.25736 2.25736 0.25 3.5 0.25H12.5C13.7426 0.25 14.75 1.25736 14.75 2.5V13.5C14.75 14.7426 13.7426 15.75 12.5 15.75H3.5C2.25736 15.75 1.25 14.7426 1.25 13.5V2.5ZM3.5 1.75C3.08579 1.75 2.75 2.08579 2.75 2.5V13.5C2.75 13.9142 3.08579 14.25 3.5 14.25H12.5C12.9142 14.25 13.25 13.9142 13.25 13.5V2.5C13.25 2.08579 12.9142 1.75 12.5 1.75H3.5Z" fill="black"/>
</svg>
