<svg viewbox="0 0 16 16" width="16" height="16" fill="black" xmlns="http://www.w3.org/2000/svg">
 <g transform="translate(0.75, 0.420166015625)">
  <path d="M8.23924 0.229131C7.61513 -0.0763773 6.88487 -0.0763768 6.26076 0.229131L0.980594 2.81383C0.380471 3.1076 0 3.71745 0 4.38562L0 10.7742C0 11.4424 0.38047 12.0523 0.980594 12.346L6.26076 14.9307C6.88487 15.2362 7.61513 15.2362 8.23924 14.9307L13.5194 12.346C14.1195 12.0523 14.5 11.4424 14.5 10.7742L14.5 4.38562C14.5 3.71745 14.1195 3.1076 13.5194 2.81383L8.23924 0.229131ZM6.92025 1.57638C7.12829 1.47454 7.37171 1.47454 7.57975 1.57638L11.9708 3.72582L10.5001 4.46144L5.81438 2.11771L6.92025 1.57638ZM4.11975 2.94725L2.52928 3.72581L7.25004 6.08708L8.82353 5.30003L4.11975 2.94725ZM1.5 4.88815L1.5 10.7742C1.5 10.8697 1.55435 10.9568 1.64008 10.9988L6.5 13.3778L6.5 7.3891L1.5 4.88815ZM12.8599 10.9988L8 13.3778L8 7.38913L13 4.88819L13 10.7742C13 10.8697 12.9456 10.9568 12.8599 10.9988Z" fill-rule="EVENODD"></path>
 </g>
</svg>