<svg width="16" height="16" viewBox="0 0 16 16" fill="none" xmlns="http://www.w3.org/2000/svg">
<path fill-rule="evenodd" clip-rule="evenodd" d="M8.98924 0.649297C8.36513 0.343789 7.63487 0.343789 7.01076 0.649297L1.73059 3.234C1.13047 3.52776 0.75 4.13761 0.75 4.80578V11.1944C0.75 11.8626 1.13047 12.4724 1.73059 12.7662L7.01076 15.3509C7.63487 15.6564 8.36513 15.6564 8.98924 15.3509L14.2694 12.7662C14.8695 12.4724 15.25 11.8626 15.25 11.1944V4.80578C15.25 4.13762 14.8695 3.52776 14.2694 3.234L8.98924 0.649297ZM7.67025 1.99654C7.87829 1.89471 8.12171 1.89471 8.32975 1.99654L12.7208 4.14599L11.2501 4.88161L6.56438 2.53788L7.67025 1.99654ZM4.86975 3.36742L3.27928 4.14597L8.00004 6.50724L9.57353 5.7202L4.86975 3.36742ZM2.25 5.30832V11.1944C2.25 11.2899 2.30435 11.377 2.39008 11.4189L7.25 13.7979V7.80926L2.25 5.30832ZM13.6099 11.4189L8.75 13.7979V7.8093L13.75 5.30835V11.1944C13.75 11.2899 13.6956 11.377 13.6099 11.4189Z" fill="black"/>
</svg>
