<svg viewbox="0 0 24 24" width="24" height="24" fill="black" xmlns="http://www.w3.org/2000/svg">
 <g transform="translate(1.2516634464263916, 0.6377756595611572)">
  <path d="M14.5283 1.5C13.6658 1.5 12.8386 1.84264 12.2287 2.45255L3.03867 11.6426C2.05347 12.6277 1.5 13.964 1.5 15.3572C1.5 16.7505 2.05347 18.0867 3.03867 19.0719C4.02386 20.0571 5.36007 20.6106 6.75334 20.6106C8.14661 20.6106 9.48281 20.0571 10.468 19.0719L19.658 9.8819C19.9509 9.589 20.4258 9.589 20.7187 9.8819C21.0116 10.1748 21.0116 10.6497 20.7187 10.9426L11.5287 20.1326C10.2622 21.399 8.54443 22.1106 6.75334 22.1106C4.96224 22.1106 3.2445 21.399 1.97801 20.1326C0.71151 18.8661 0 17.1483 0 15.3572C0 13.5661 0.71151 11.8484 1.97801 10.5819L11.168 1.39189C12.0592 0.500679 13.268 0 14.5283 0C15.7887 0 16.9975 0.500679 17.8887 1.39189C18.7799 2.28311 19.2806 3.49186 19.2806 4.75222C19.2806 6.01259 18.7799 7.22134 17.8887 8.11255L8.68867 17.3026C8.17273 17.8185 7.47298 18.1083 6.74334 18.1083C6.0137 18.1083 5.31394 17.8185 4.79801 17.3026C4.28207 16.7866 3.99222 16.0869 3.99222 15.3572C3.99222 14.6276 4.28207 13.9278 4.79801 13.4119L13.2883 4.93158C13.5814 4.63886 14.0563 4.63914 14.349 4.93221C14.6417 5.22527 14.6414 5.70015 14.3484 5.99287L5.85867 14.4726C5.85856 14.4727 5.85877 14.4725 5.85867 14.4726C5.62423 14.7072 5.49222 15.0256 5.49222 15.3572C5.49222 15.689 5.62404 16.0073 5.85867 16.2419C6.0933 16.4765 6.41152 16.6083 6.74334 16.6083C7.07515 16.6083 7.39338 16.4765 7.62801 16.2419L16.828 7.05189C17.4379 6.44198 17.7806 5.61477 17.7806 4.75222C17.7806 3.88968 17.4379 3.06246 16.828 2.45255C16.2181 1.84264 15.3909 1.5 14.5283 1.5Z" fill-rule="EVENODD"></path>
 </g>
</svg>