<svg width="24" height="24" viewBox="0 0 24 24" fill="none" xmlns="http://www.w3.org/2000/svg">
<path fill-rule="evenodd" clip-rule="evenodd" d="M19 1.75C17.2051 1.75 15.75 3.20507 15.75 5C15.75 6.16683 16.3649 7.19004 17.2884 7.76327L15.8748 12.0039C15.3905 12.0338 14.9529 12.236 14.6225 12.55L7.00807 9.08895C7.00936 9.05946 7.01002 9.02981 7.01002 9C7.01002 7.89543 6.11458 7 5.01002 7H5.00002C3.89545 7 3.00002 7.89543 3.00002 9C3.00002 9.83934 3.51705 10.5579 4.25001 10.8546V17.1454C3.51705 17.4421 3.00002 18.1607 3.00002 19C3.00002 20.1046 3.89545 21 5.00002 21H5.01002C6.11458 21 7.01002 20.1046 7.01002 19C7.01002 18.1568 6.48826 17.4355 5.75001 17.1414V10.8586C5.98713 10.7641 6.20192 10.6256 6.38426 10.4531L14.0018 13.9156C14.0006 13.9436 14 13.9717 14 14C14 15.1046 14.8954 16 16 16H16.01C17.1146 16 18.01 15.1046 18.01 14C18.01 13.387 17.7343 12.8385 17.3 12.4716L18.7115 8.23737C18.8065 8.24573 18.9028 8.25 19 8.25C20.7949 8.25 22.25 6.79493 22.25 5C22.25 3.20507 20.7949 1.75 19 1.75ZM17.25 5C17.25 4.0335 18.0335 3.25 19 3.25C19.9665 3.25 20.75 4.0335 20.75 5C20.75 5.9665 19.9665 6.75 19 6.75C18.0335 6.75 17.25 5.9665 17.25 5Z" fill="black"/>
</svg>
