<svg width="16" height="16" viewBox="0 0 16 16" fill="none" xmlns="http://www.w3.org/2000/svg">
<path fill-rule="evenodd" clip-rule="evenodd" d="M12.5 1.25C11.2574 1.25 10.25 2.25736 10.25 3.5C10.25 4.13097 10.5097 4.70129 10.9281 5.10986L9.96488 7.25035C9.53464 7.25881 9.14245 7.42255 8.84206 7.68783L4.75552 5.93645C4.72207 4.99939 3.95188 4.25 3.00665 4.25H2.99998C2.03349 4.25 1.24998 5.0335 1.24998 6C1.24998 6.6981 1.65875 7.30074 2.25 7.5816V11.4184C1.65875 11.6993 1.24998 12.3019 1.24998 13C1.24998 13.9665 2.03349 14.75 2.99998 14.75H3.00665C3.97315 14.75 4.75665 13.9665 4.75665 13C4.75665 12.2993 4.34482 11.6948 3.75 11.4153V7.58474C3.90036 7.51408 4.03903 7.42266 4.1623 7.31417L8.25123 9.06657C8.28622 10.0022 9.05577 10.75 9.99998 10.75H10.0067C10.9732 10.75 11.7567 9.9665 11.7567 9C11.7567 8.5649 11.5979 8.16689 11.3351 7.86075L12.2893 5.74026C12.3587 5.74671 12.4289 5.75 12.5 5.75C13.7426 5.75 14.75 4.74264 14.75 3.5C14.75 2.25736 13.7426 1.25 12.5 1.25ZM11.75 3.5C11.75 3.08579 12.0858 2.75 12.5 2.75C12.9142 2.75 13.25 3.08579 13.25 3.5C13.25 3.91421 12.9142 4.25 12.5 4.25C12.0858 4.25 11.75 3.91421 11.75 3.5Z" fill="black"/>
</svg>
