<svg width="16" height="16" viewBox="0 0 16 16" fill="none" xmlns="http://www.w3.org/2000/svg">
<path d="M6.5 5.25C6.91421 5.25 7.25 5.58579 7.25 6V10C7.25 10.4142 6.91421 10.75 6.5 10.75C6.08579 10.75 5.75 10.4142 5.75 10V6C5.75 5.58579 6.08579 5.25 6.5 5.25Z" fill="black"/>
<path d="M10.25 6C10.25 5.58579 9.91421 5.25 9.5 5.25C9.08579 5.25 8.75 5.58579 8.75 6V10C8.75 10.4142 9.08579 10.75 9.5 10.75C9.91421 10.75 10.25 10.4142 10.25 10V6Z" fill="black"/>
<path fill-rule="evenodd" clip-rule="evenodd" d="M0.25 8C0.25 3.71979 3.71979 0.25 8 0.25C12.2802 0.25 15.75 3.71979 15.75 8C15.75 12.2802 12.2802 15.75 8 15.75C3.71979 15.75 0.25 12.2802 0.25 8ZM8 1.75C4.54822 1.75 1.75 4.54822 1.75 8C1.75 11.4518 4.54822 14.25 8 14.25C11.4518 14.25 14.25 11.4518 14.25 8C14.25 4.54822 11.4518 1.75 8 1.75Z" fill="black"/>
</svg>
