<svg width="24" height="24" viewBox="0 0 24 24" fill="none" xmlns="http://www.w3.org/2000/svg">
<path fill-rule="evenodd" clip-rule="evenodd" d="M2.176 1.27095C1.92202 1.20965 1.65443 1.28494 1.46969 1.46969C1.28494 1.65443 1.20965 1.92202 1.27095 2.176L4.77095 16.676C4.83948 16.9599 5.06656 17.1782 5.35293 17.2355L11.4787 18.4606L11.4697 18.4697C11.1768 18.7626 11.1768 19.2374 11.4697 19.5303L14.4697 22.5303C14.7626 22.8232 15.2374 22.8232 15.5303 22.5303L22.5303 15.5303C22.8232 15.2374 22.8232 14.7626 22.5303 14.4697L19.5303 11.4697C19.2374 11.1768 18.7626 11.1768 18.4697 11.4697L18.4606 11.4787L17.2355 5.35293C17.1782 5.06656 16.9599 4.83948 16.676 4.77095L2.176 1.27095ZM18.5344 13.5263L18.5303 13.5303L13.5303 18.5303L13.5263 18.5344L13.0607 19L15 20.9393L20.9393 15L19 13.0607L18.5344 13.5263ZM17.1859 12.7535L15.8585 6.11671L4.41511 3.35451L9.6591 8.5985C10.0558 8.37653 10.5131 8.25 11 8.25C12.5188 8.25 13.75 9.48122 13.75 11C13.75 12.5188 12.5188 13.75 11 13.75C9.48122 13.75 8.25 12.5188 8.25 11C8.25 10.5131 8.37651 10.0558 8.59846 9.65918L3.35455 4.41527L6.11671 15.8585L12.7535 17.1859L17.1859 12.7535ZM9.75 11C9.75 10.3096 10.3096 9.75 11 9.75C11.6904 9.75 12.25 10.3096 12.25 11C12.25 11.6904 11.6904 12.25 11 12.25C10.3096 12.25 9.75 11.6904 9.75 11Z" fill="black"/>
</svg>
