<svg width="16" height="16" viewBox="0 0 16 16" fill="none" xmlns="http://www.w3.org/2000/svg">
<path fill-rule="evenodd" clip-rule="evenodd" d="M1.176 0.270954C0.922015 0.209648 0.654434 0.284936 0.469685 0.469685C0.284936 0.654434 0.209648 0.922015 0.270954 1.176L2.72095 11.326C2.78948 11.6099 3.01656 11.8282 3.30293 11.8854L7.28243 12.6813C7.20454 12.9377 7.26696 13.2276 7.46967 13.4303L9.56967 15.5303C9.86256 15.8232 10.3374 15.8232 10.6303 15.5303L15.5303 10.6303C15.8232 10.3374 15.8232 9.86256 15.5303 9.56967L13.4303 7.46967C13.2276 7.26696 12.9377 7.20454 12.6813 7.28243L11.8854 3.30293C11.8282 3.01656 11.6099 2.78948 11.326 2.72095L1.176 0.270954ZM9.22663 12.734L9.23034 12.7303L12.7303 9.23034L12.734 9.22663L12.9 9.06066L13.9393 10.1L10.1 13.9393L9.06066 12.9L9.22663 12.734ZM11.3859 8.45348L10.5085 4.06671L3.41511 2.35451L6.40505 5.34445C6.67754 5.21954 6.98065 5.1499 7.30002 5.1499C8.48744 5.1499 9.45002 6.11249 9.45002 7.2999C9.45002 8.48731 8.48744 9.4499 7.30002 9.4499C6.11261 9.4499 5.15002 8.48731 5.15002 7.2999C5.15002 6.98063 5.21962 6.67761 5.34446 6.40518L2.35455 3.41527L4.06671 10.5085L8.45348 11.3859L11.3859 8.45348ZM6.65002 7.2999C6.65002 6.94092 6.94104 6.6499 7.30002 6.6499C7.65901 6.6499 7.95002 6.94092 7.95002 7.2999C7.95002 7.65889 7.65901 7.9499 7.30002 7.9499C6.94104 7.9499 6.65002 7.65889 6.65002 7.2999Z" fill="black"/>
</svg>
