<svg viewBox="0 0 16 16" width="16" height="16" fill="black" xmlns="http://www.w3.org/2000/svg">
 <g transform="translate(0.2499389499425888, 0.249755859375)">
  <path d="M5.68861 0.520626C5.29258 0.180717 4.78681 -0.00407465 4.26507 6.81753e-05L2.15592 8.58183e-05C1.85657 0.000367152 1.56051 0.0628512 1.28659 0.183606C1.01266 0.304362 0.766819 0.480768 0.564764 0.701676C0.362705 0.92259 0.208869 1.18316 0.113135 1.46684C0.0174401 1.75041 -0.0182577 2.05087 0.00875319 2.34918L0.00999952 2.36089C0.253545 4.64977 1.03389 6.84912 2.28772 8.78076C3.53522 10.7026 4.81673 11.9771 6.7328 13.2172C8.65926 14.464 10.8518 15.2426 13.1342 15.4901L13.1477 15.4913C13.4468 15.5183 13.7483 15.4826 14.0328 15.3866C14.3173 15.2906 14.5786 15.1363 14.8001 14.9335C15.0216 14.7307 15.1983 14.4839 15.3188 14.2088C15.4393 13.9338 15.5009 13.6365 15.4997 13.3362C15.4967 12.6413 15.4821 11.945 15.4994 11.2503C15.5126 10.7214 15.3304 10.2064 14.9881 9.80319C14.6458 9.39997 14.1672 9.13663 13.6435 9.0629L13.6368 9.06202C13.0172 8.98047 12.4089 8.82927 11.8235 8.6113C11.4377 8.46678 11.0186 8.43557 10.6157 8.52133C10.2125 8.60715 9.84222 8.80656 9.54878 9.09615L9.06684 9.57714C7.79817 8.7639 6.71964 7.68775 5.9046 6.42205L6.38194 5.94567L6.38489 5.94269C6.67509 5.64981 6.87523 5.27988 6.96139 4.87666C7.0475 4.47373 7.01614 4.05464 6.87109 3.66902C6.65278 3.08495 6.50138 2.47813 6.41972 1.86013L6.41874 1.85322C6.34535 1.33502 6.0857 0.861452 5.68861 0.520626ZM4.27573 1.50003C4.43578 1.49846 4.59068 1.55502 4.71166 1.65886C4.83191 1.76207 4.91041 1.90489 4.93317 2.06083C5.02985 2.79004 5.20873 3.50602 5.46639 4.19514L5.46702 4.19684C5.5111 4.31387 5.52063 4.44099 5.49451 4.56319C5.46851 4.68486 5.40823 4.79678 5.32054 4.88573L4.42833 5.77619C4.189 6.01505 4.1391 6.38452 4.30649 6.67831C5.37545 8.55453 6.9319 10.1078 8.81147 11.1745C9.10466 11.3408 9.47284 11.2912 9.71144 11.053L10.6024 10.1638L10.6036 10.1626C10.6928 10.0751 10.8053 10.0146 10.928 9.98846C11.0513 9.96222 11.1795 9.97181 11.2974 10.016L11.2991 10.0167C11.9894 10.2738 12.7066 10.4522 13.4369 10.5487C13.5961 10.5717 13.741 10.652 13.8446 10.774C13.9488 10.8967 14.0039 11.0529 13.9999 11.213C13.9822 11.9222 13.9966 12.633 13.9997 13.3423C14.0001 13.4333 13.9814 13.5234 13.9448 13.6069C13.9083 13.6904 13.8546 13.7654 13.7871 13.8272C13.7197 13.8889 13.64 13.936 13.5531 13.9654C13.4679 13.9941 13.3777 14.0052 13.2881 13.9978C11.2412 13.7746 9.27528 13.076 7.54782 11.9579C5.80775 10.8318 4.67768 9.70768 3.54591 7.96407C2.42172 6.23217 1.72171 4.26071 1.50231 2.20907C1.49495 2.12042 1.50583 2.03109 1.53439 1.94648C1.56342 1.86044 1.61012 1.78127 1.6716 1.71405C1.73309 1.64683 1.80801 1.59303 1.89165 1.55616C1.97521 1.51932 2.06589 1.50021 2.15733 1.50009L4.26837 1.5001L4.27573 1.50003Z" fill-rule="EVENODD"></path>
  <path d="M9.83289 0.0048959C9.42121 -0.0408386 9.0504 0.25582 9.00467 0.667501C8.95893 1.07918 9.25559 1.44999 9.66727 1.49572C10.7744 1.61872 11.8069 2.11453 12.5951 2.90173C13.3833 3.68894 13.8804 4.72076 14.0048 5.82777C14.051 6.23939 14.4222 6.53558 14.8338 6.48933C15.2455 6.44308 15.5416 6.0719 15.4954 5.66027C15.333 4.2151 14.684 2.86808 13.6551 1.84041C12.6261 0.812728 11.2783 0.165466 9.83289 0.0048959Z" fill-rule="NONZERO"></path>
  <path d="M9.8937 2.52991C9.48715 2.45059 9.09328 2.71587 9.01396 3.12241C8.93464 3.52896 9.19991 3.92284 9.60646 4.00215C10.0742 4.09342 10.5042 4.3222 10.8412 4.65922C11.1782 4.99623 11.407 5.42614 11.4982 5.89393C11.5776 6.30048 11.9714 6.56575 12.378 6.48643C12.7845 6.40711 13.0498 6.01324 12.9705 5.60669C12.822 4.84588 12.45 4.14667 11.9018 3.59856C11.3537 3.05044 10.6545 2.67835 9.8937 2.52991Z" fill-rule="NONZERO"></path>
 </g>
</svg>