<svg width="16" height="16" viewBox="0 0 16 16" fill="none" xmlns="http://www.w3.org/2000/svg">
<path fill-rule="evenodd" clip-rule="evenodd" d="M4.9616 1.90862C4.84062 1.80478 4.68572 1.74822 4.52567 1.74979L4.51831 1.74986L2.40727 1.74984C2.40717 1.74984 2.40737 1.74984 2.40727 1.74984C2.31583 1.74997 2.22515 1.76908 2.14159 1.80591C2.05795 1.84279 1.98303 1.89659 1.92154 1.96381C1.86006 2.03103 1.81336 2.11019 1.78432 2.19623C1.75577 2.28085 1.74489 2.37018 1.75225 2.45883C1.97165 4.51046 2.67166 6.48193 3.79584 8.21383C4.92762 9.95743 6.05769 11.0815 7.79776 12.2077C9.52522 13.3257 11.4912 14.0244 13.538 14.2476C13.6276 14.2549 13.7178 14.2439 13.803 14.2151C13.8899 14.1858 13.9696 14.1387 14.0371 14.0769C14.1045 14.0152 14.1582 13.9401 14.1948 13.8567C14.2313 13.7732 14.25 13.6831 14.2496 13.5921C14.2489 13.4072 14.2409 11.8216 14.2498 11.4628C14.2538 11.3027 14.1987 11.1464 14.0945 11.0237C13.991 10.9017 13.846 10.8215 13.6869 10.7984C12.9565 10.702 12.2394 10.5235 11.5491 10.2664L11.5474 10.2658C11.4295 10.2216 11.3012 10.212 11.1779 10.2382C11.0552 10.2643 10.9427 10.3248 10.8536 10.4124C10.8532 10.4128 10.8528 10.4132 10.8524 10.4135L9.96138 11.3028C9.72278 11.5409 9.3546 11.5906 9.06141 11.4242C7.18184 10.3576 5.62539 8.80429 4.55642 6.92807C4.38904 6.63427 4.43894 6.2648 4.67827 6.02594L5.57048 5.13548C5.65817 5.04653 5.71845 4.93462 5.74445 4.81295C5.77057 4.69074 5.76104 4.56362 5.71696 4.44659L5.71633 4.4449C5.45867 3.75577 5.27979 3.0398 5.18311 2.31059C5.16035 2.15465 5.08184 2.01182 4.9616 1.90862ZM4.51501 0.249824C5.03675 0.245681 5.54252 0.430473 5.93854 0.770382C6.33564 1.11121 6.59529 1.58478 6.66868 2.10298L6.66965 2.10988C6.75136 2.72817 6.90286 3.33526 7.12133 3.91958L7.1207 3.91788C7.26603 4.30375 7.2975 4.72318 7.21133 5.12641C7.12517 5.52964 6.92502 5.89957 6.63483 6.19244L6.63188 6.19542L6.15454 6.67181C6.96958 7.93751 8.04811 9.01365 9.31678 9.8269L9.79872 9.34591C10.0922 9.05631 10.4625 8.8569 10.8657 8.77108C11.2686 8.68532 11.6877 8.71654 12.0734 8.86106C12.6589 9.07902 13.2672 9.23022 13.8867 9.31177L13.8934 9.31266C14.4171 9.38639 14.8957 9.64972 15.238 10.0529C15.5803 10.4562 15.7625 10.9711 15.7494 11.5001C15.7411 11.8303 15.7488 13.3796 15.7496 13.586C15.7509 13.8863 15.6892 14.1835 15.5687 14.4586C15.4482 14.7336 15.2715 14.9804 15.05 15.1832C14.8286 15.386 14.5672 15.5403 14.2827 15.6363C13.9982 15.7324 13.6967 15.768 13.3977 15.7411L13.3842 15.7398C11.1017 15.4923 8.9092 14.7138 6.98274 13.467C5.06667 12.2269 3.78516 10.9524 2.53766 9.03052C1.28383 7.09888 0.503484 4.89953 0.259938 2.61065L0.258692 2.59894C0.231681 2.30063 0.267379 2.00016 0.363074 1.7166C0.458808 1.43292 0.612644 1.17235 0.814703 0.951432C1.01676 0.730524 1.2626 0.554118 1.53653 0.433361C1.81045 0.312607 2.10651 0.250123 2.40586 0.249842L4.51501 0.249824Z" fill="black"/>
</svg>
