<svg width="24" height="24" viewBox="0 0 24 24" fill="none" xmlns="http://www.w3.org/2000/svg">
<path fill-rule="evenodd" clip-rule="evenodd" d="M23.5303 1.53033C23.8232 1.23744 23.8232 0.762563 23.5303 0.46967C23.2374 0.176777 22.7626 0.176777 22.4697 0.46967L0.46967 22.4697C0.176777 22.7626 0.176777 23.2374 0.46967 23.5303C0.762563 23.8232 1.23744 23.8232 1.53033 23.5303L7.77237 17.2883C8.64678 18.0922 9.61063 18.8216 10.7214 19.5405C13.4313 21.2944 16.5156 22.3895 19.7264 22.7377L19.7399 22.7389C20.1226 22.7734 20.5084 22.7278 20.8725 22.6049C21.2366 22.482 21.571 22.2845 21.8544 22.0251C22.1378 21.7656 22.3639 21.4498 22.518 21.0979C22.6722 20.746 22.7511 20.3658 22.7495 19.9816C22.7452 18.9858 22.7244 17.988 22.7492 16.9925C22.766 16.3158 22.533 15.6571 22.095 15.1412C21.657 14.6253 21.0446 14.2883 20.3743 14.1939L20.3676 14.193C19.4585 14.0733 18.5659 13.8515 17.7068 13.5316C17.213 13.3465 16.6765 13.3065 16.1607 13.4163C15.6447 13.5261 15.1708 13.7813 14.7954 14.1519L13.9268 15.0187C13.1355 14.5301 12.393 13.9723 11.7074 13.3533L23.5303 1.53033ZM10.6454 14.4152L8.83405 16.2266C9.62404 16.9475 10.5042 17.6132 11.5364 18.2812C14.0475 19.9064 16.9053 20.9216 19.8806 21.2455C20.0538 21.2603 20.2282 21.2392 20.3928 21.1836C20.5593 21.1274 20.7121 21.0372 20.8415 20.9187C20.9708 20.8003 21.0739 20.6563 21.1441 20.496C21.2143 20.3357 21.2502 20.1626 21.2495 19.9877C21.2451 18.9775 21.2245 17.9652 21.2496 16.9552C21.2573 16.6474 21.1513 16.3473 20.9515 16.112C20.7523 15.8773 20.4737 15.7234 20.1681 15.6797C19.148 15.5451 18.1464 15.2959 17.1823 14.9369L17.1806 14.9363C16.9547 14.8515 16.7091 14.8332 16.473 14.8834C16.2375 14.9335 16.0215 15.0498 15.8503 15.2182L15.849 15.2195L14.5749 16.4911C14.3363 16.7293 13.9681 16.7789 13.6749 16.6126C12.5816 15.9921 11.5663 15.2542 10.6454 14.4152Z" fill="black"/>
<path fill-rule="evenodd" clip-rule="evenodd" d="M7.03351 2.75006C7.33997 2.74705 7.63678 2.85535 7.86877 3.05447C8.09996 3.25289 8.25095 3.52793 8.29425 3.82845C8.42913 4.84681 8.67886 5.84669 9.03868 6.80907L9.03932 6.81076C9.12398 7.03556 9.14229 7.27979 9.09212 7.5146C9.04207 7.7488 8.92594 7.96401 8.75722 8.1348L7.48173 9.40778C7.18855 9.70039 7.18808 10.1753 7.48069 10.4684C7.77329 10.7616 8.24816 10.7621 8.54135 10.4695L9.81848 9.19487L9.82143 9.1919C10.1927 8.81716 10.4488 8.34388 10.559 7.82806C10.6691 7.3126 10.629 6.77645 10.4434 6.28311C10.123 5.42583 9.90071 4.53513 9.78083 3.62801L9.77985 3.62111C9.68597 2.95822 9.35382 2.35233 8.84571 1.91623C8.33865 1.48102 7.69093 1.24449 7.02275 1.2501L4.00867 1.25012C3.62555 1.25048 3.24667 1.33045 2.89612 1.48498C2.54557 1.63952 2.23099 1.86525 1.97246 2.1479C1.71393 2.43056 1.51712 2.76393 1.39465 3.12684C1.27222 3.48963 1.22659 3.87399 1.26114 4.25556L1.26239 4.26727C1.60495 7.48679 2.70259 10.5804 4.46627 13.2975C4.69179 13.645 5.15626 13.7438 5.5037 13.5183C5.85114 13.2927 5.94997 12.8283 5.72445 12.4808C4.09035 9.96335 3.07303 7.09747 2.75466 4.11504C2.73983 3.94327 2.76065 3.77019 2.8159 3.60647C2.87167 3.44121 2.96135 3.28924 3.0793 3.16028C3.19726 3.03132 3.34092 2.92818 3.50118 2.85753C3.66135 2.78693 3.83488 2.75033 4.01008 2.75012L7.02615 2.75013L7.03351 2.75006ZM10.4434 6.28311C10.4434 6.2829 10.4435 6.28332 10.4434 6.28311V6.28311Z" fill="black"/>
</svg>
