<svg width="16" height="16" viewBox="0 0 16 16" fill="none" xmlns="http://www.w3.org/2000/svg">
<path fill-rule="evenodd" clip-rule="evenodd" d="M8.00017 0.300049C7.81452 0.300049 7.63647 0.373799 7.5052 0.505074C7.37392 0.63635 7.30017 0.814397 7.30017 1.00005V7.99989C7.30017 8.38649 7.61357 8.69989 8.00017 8.69989H15C15.3866 8.69989 15.7 8.38649 15.7 7.99989C15.7 6.98874 15.5009 5.98748 15.1139 5.05329C14.7269 4.1191 14.1598 3.27028 13.4448 2.55528C12.7298 1.84028 11.881 1.27312 10.9468 0.886165C10.0126 0.499211 9.01133 0.300049 8.00017 0.300049ZM8.70017 7.29989V1.73906C9.28716 1.80469 9.86318 1.95268 10.411 2.1796C11.1754 2.49619 11.8698 2.96024 12.4548 3.54523C13.0398 4.13023 13.5039 4.82471 13.8205 5.58905C14.0474 6.13688 14.1954 6.7129 14.261 7.29989H8.70017Z" fill="black"/>
<path d="M5.50016 2.2684C5.8798 2.10273 6.05326 1.66067 5.88759 1.28103C5.72192 0.90139 5.27986 0.727932 4.90022 0.893601C3.73998 1.39991 2.72143 2.18273 1.93361 3.17363C1.1458 4.16452 0.612722 5.33332 0.380973 6.57783C0.149225 7.82234 0.225866 9.10468 0.604198 10.3127C0.982529 11.5208 1.65103 12.6178 2.55126 13.5078C3.45148 14.3978 4.55603 15.0537 5.76832 15.4182C6.98061 15.7827 8.26373 15.8447 9.50552 15.5988C10.7473 15.3528 11.9099 14.8064 12.8918 14.0073C13.8736 13.2083 14.6447 12.1808 15.1378 11.0149C15.2991 10.6334 15.1206 10.1933 14.7391 10.032C14.3576 9.8707 13.9175 10.0492 13.7562 10.4307C13.3586 11.371 12.7367 12.1995 11.9449 12.844C11.1531 13.4884 10.2155 13.929 9.21409 14.1273C8.21266 14.3257 7.17788 14.2757 6.20023 13.9817C5.22258 13.6878 4.33183 13.1588 3.60584 12.4411C2.87986 11.7233 2.34075 10.8387 2.03564 9.86443C1.73054 8.8902 1.66873 7.85607 1.85562 6.85243C2.04252 5.8488 2.47242 4.90623 3.10775 4.10712C3.74308 3.30802 4.56448 2.67671 5.50016 2.2684Z" fill="black"/>
</svg>
