<svg viewBox="0 0 24 24" width="24" height="24" fill="black" xmlns="http://www.w3.org/2000/svg">
 <g transform="translate(1.2496337890625, 1.25)">
  <path d="M10.7504 0C10.5515 0 10.3607 0.0790176 10.22 0.21967C10.0794 0.360322 10.0004 0.551088 10.0004 0.75L10.0004 10.75C10.0004 11.1642 10.3362 11.5 10.7504 11.5L20.7504 11.5C21.1646 11.5 21.5004 11.1642 21.5004 10.75C21.5004 9.33829 21.2223 7.9404 20.6821 6.63615C20.1418 5.3319 19.35 4.14683 18.3518 3.1486C17.3535 2.15037 16.1685 1.35853 14.8642 0.818295C13.56 0.278057 12.1621 0 10.7504 0ZM11.5004 10L11.5004 1.53045C12.4582 1.60837 13.3996 1.8352 14.2902 2.20411C15.4124 2.66897 16.4322 3.35032 17.2911 4.20926C18.15 5.0682 18.8314 6.08792 19.2963 7.21018C19.6652 8.10082 19.892 9.0422 19.9699 10L11.5004 10Z" fill-rule="EVENODD"></path>
  <path d="M7.05037 2.26742C7.43001 2.10175 7.60347 1.65969 7.4378 1.28005C7.27213 0.900414 6.83007 0.726956 6.45043 0.892624C4.84103 1.59494 3.42817 2.68081 2.33538 4.05531C1.24259 5.4298 0.50314 7.05106 0.181676 8.77736C-0.139788 10.5036 -0.0334765 12.2824 0.491316 13.9581C1.01611 15.6338 1.9434 17.1555 3.19213 18.39C4.44086 19.6246 5.97299 20.5344 7.65459 21.0401C9.33619 21.5457 11.116 21.6317 12.8386 21.2905C14.5611 20.9494 16.1738 20.1914 17.5357 19.083C18.8976 17.9746 19.9673 16.5494 20.6512 14.9321C20.8125 14.5506 20.634 14.1106 20.2525 13.9492C19.871 13.7879 19.4309 13.9664 19.2696 14.3479C18.6812 15.7396 17.7607 16.9659 16.5889 17.9196C15.417 18.8734 14.0293 19.5255 12.5471 19.8191C11.065 20.1126 9.53346 20.0387 8.08651 19.6036C6.63955 19.1685 5.3212 18.3856 4.24672 17.3233C3.17223 16.261 2.37433 14.9517 1.92276 13.5098C1.47119 12.0679 1.37972 10.5374 1.65633 9.05196C1.93293 7.56655 2.56921 6.1715 3.50952 4.9888C4.44982 3.8061 5.66554 2.87174 7.05037 2.26742Z" fill-rule="NONZERO"></path>
 </g>
</svg>