<svg width="16" height="16" viewBox="0 0 16 16" fill="none" xmlns="http://www.w3.org/2000/svg">
<path fill-rule="evenodd" clip-rule="evenodd" d="M8.88643 1.81054C9.37602 1.33108 10.1604 1.33518 10.6449 1.81973L14.1768 5.35159C14.6649 5.83975 14.6649 6.6312 14.1768 7.11936L12.4127 8.88345C12.272 9.0241 12.0813 9.10312 11.8824 9.10312H10.7812L9.42224 10.4621L9.18908 12.5606C9.08646 13.4841 8.03026 13.996 7.24456 13.44C6.6953 13.0512 5.87708 12.4517 5.19763 11.8632L2.53033 14.5305C2.23744 14.8234 1.76256 14.8234 1.46967 14.5305C1.17678 14.2376 1.17678 13.7627 1.46967 13.4699L4.13697 10.8025C3.54846 10.1231 2.94898 9.30488 2.56023 8.75562C2.00414 7.96992 2.51604 6.91372 3.43958 6.8111L5.53805 6.57794L6.85235 5.26364V4.11783C6.85235 3.9162 6.93353 3.72306 7.07759 3.58199L8.88643 1.81054ZM9.75919 3.05533L8.35235 4.43309V5.5743C8.35235 5.77322 8.27333 5.96398 8.13268 6.10463L6.41268 7.82463C6.29226 7.94505 6.13444 8.0209 5.96518 8.03971L4.04545 8.25301C4.53709 8.93032 5.17928 9.76586 5.7068 10.2934C6.23432 10.8209 7.06986 11.4631 7.74717 11.9547L7.96047 10.035C7.97928 9.86574 8.05513 9.70792 8.17555 9.5875L9.94026 7.82279C10.0809 7.68214 10.2717 7.60312 10.4706 7.60312H11.5717L12.9393 6.23547L9.75919 3.05533Z" fill="black"/>
</svg>
