<svg width="24" height="24" viewBox="0 0 24 24" fill="none" xmlns="http://www.w3.org/2000/svg">
<path fill-rule="evenodd" clip-rule="evenodd" d="M13.7682 3.15644C14.4536 2.48519 15.5517 2.49093 16.2301 3.1693L20.8232 7.76244C21.5066 8.44585 21.5066 9.55389 20.8232 10.2373L18.5303 12.5302C18.3897 12.6709 18.1989 12.7499 18 12.7499H16.3107L14.2164 14.8442L13.9269 17.4497C13.7829 18.7453 12.3037 19.4537 11.214 18.668C10.4078 18.0868 9.3587 17.2972 8.51621 16.5443L4.53033 20.5302C4.23744 20.8231 3.76256 20.8231 3.46967 20.5302C3.17678 20.2373 3.17678 19.7624 3.46967 19.4695L7.45555 15.4837C6.70269 14.6412 5.9131 13.5921 5.33184 12.7859C4.5462 11.6962 5.25458 10.217 6.55022 10.073L9.1557 9.78351L11.1867 7.75255V5.99987C11.1867 5.79824 11.2678 5.60511 11.4119 5.46403L13.7682 3.15644ZM15.1694 4.22996C15.0725 4.13305 14.9156 4.13223 14.8177 4.22812L12.6867 6.31513V8.06322C12.6867 8.26213 12.6076 8.45289 12.467 8.59355L10.0303 11.0302C9.90991 11.1506 9.75209 11.2265 9.58282 11.2453L6.71587 11.5638C6.52191 11.5854 6.45769 11.7826 6.54857 11.9086C7.26297 12.8995 8.23377 14.173 9.03033 14.9695C9.82689 15.7661 11.1004 16.7369 12.0912 17.4513C12.2173 17.5422 12.4145 17.478 12.436 17.284L12.7546 14.417C12.7734 14.2478 12.8492 14.09 12.9697 13.9695L15.4697 11.4695C15.6103 11.3289 15.8011 11.2499 16 11.2499H17.6893L19.7626 9.17665C19.8602 9.07902 19.8602 8.92073 19.7626 8.8231L15.1694 4.22996Z" fill="black"/>
</svg>
