<svg width="24" height="24" viewBox="0 0 24 24" fill="none" xmlns="http://www.w3.org/2000/svg">
<path d="M10.416 7.37596C10.1859 7.22254 9.88997 7.20823 9.64611 7.33875C9.40224 7.46926 9.25 7.7234 9.25 8V16C9.25 16.2766 9.40224 16.5307 9.64611 16.6613C9.88997 16.7918 10.1859 16.7775 10.416 16.624L16.416 12.624C16.6247 12.4849 16.75 12.2508 16.75 12C16.75 11.7492 16.6247 11.5151 16.416 11.376L10.416 7.37596Z" fill="black"/>
<path fill-rule="evenodd" clip-rule="evenodd" d="M1.25 12C1.25 6.06294 6.06294 1.25 12 1.25C17.9371 1.25 22.75 6.06294 22.75 12C22.75 17.9371 17.9371 22.75 12 22.75C6.06294 22.75 1.25 17.9371 1.25 12ZM12 2.75C6.89137 2.75 2.75 6.89137 2.75 12C2.75 17.1086 6.89137 21.25 12 21.25C17.1086 21.25 21.25 17.1086 21.25 12C21.25 6.89137 17.1086 2.75 12 2.75Z" fill="black"/>
</svg>
