<svg viewbox="0 0 24 24" width="24" height="24" fill="black" xmlns="http://www.w3.org/2000/svg">
 <g transform="translate(1.25, 1.25)">
  <path d="M9.16603 6.12596C8.93588 5.97254 8.63997 5.95823 8.39611 6.08875C8.15224 6.21926 8 6.4734 8 6.75L8 14.75C8 15.0266 8.15224 15.2807 8.39611 15.4113C8.63997 15.5418 8.93588 15.5275 9.16603 15.374L15.166 11.374C15.3747 11.2349 15.5 11.0008 15.5 10.75C15.5 10.4992 15.3747 10.2651 15.166 10.126L9.16603 6.12596Z" fill-rule="NONZERO"></path>
  <path d="M0 10.75C0 4.81294 4.81294 0 10.75 0C16.6871 0 21.5 4.81294 21.5 10.75C21.5 16.6871 16.6871 21.5 10.75 21.5C4.81294 21.5 0 16.6871 0 10.75ZM10.75 1.5C5.64137 1.5 1.5 5.64137 1.5 10.75C1.5 15.8586 5.64137 20 10.75 20C15.8586 20 20 15.8586 20 10.75C20 5.64137 15.8586 1.5 10.75 1.5Z" fill-rule="EVENODD"></path>
 </g>
</svg>