<svg width="24" height="24" viewBox="0 0 24 24" fill="none" xmlns="http://www.w3.org/2000/svg">
<path d="M12 7.125C12.4832 7.125 12.875 7.51675 12.875 8V11.125H16C16.4832 11.125 16.875 11.5168 16.875 12C16.875 12.4832 16.4832 12.875 16 12.875H12.875V16C12.875 16.4832 12.4832 16.875 12 16.875C11.5168 16.875 11.125 16.4832 11.125 16V12.875H8C7.51675 12.875 7.125 12.4832 7.125 12C7.125 11.5168 7.51675 11.125 8 11.125H11.125V8C11.125 7.51675 11.5168 7.125 12 7.125Z" fill="black"/>
<path fill-rule="evenodd" clip-rule="evenodd" d="M2.25 5C2.25 3.48122 3.48122 2.25 5 2.25H19C20.5188 2.25 21.75 3.48122 21.75 5V19C21.75 20.5188 20.5188 21.75 19 21.75H5C3.48122 21.75 2.25 20.5188 2.25 19V5ZM5 3.75C4.30964 3.75 3.75 4.30964 3.75 5V19C3.75 19.6904 4.30964 20.25 5 20.25H19C19.6904 20.25 20.25 19.6904 20.25 19V5C20.25 4.30964 19.6904 3.75 19 3.75H5Z" fill="black"/>
</svg>
