<svg width="24" height="24" viewBox="0 0 24 24" fill="none" xmlns="http://www.w3.org/2000/svg">
<path d="M12 7.125C12.4832 7.125 12.875 7.51675 12.875 8V11.125H16C16.4832 11.125 16.875 11.5168 16.875 12C16.875 12.4832 16.4832 12.875 16 12.875H12.875V16C12.875 16.4832 12.4832 16.875 12 16.875C11.5168 16.875 11.125 16.4832 11.125 16V12.875H8C7.51675 12.875 7.125 12.4832 7.125 12C7.125 11.5168 7.51675 11.125 8 11.125H11.125V8C11.125 7.51675 11.5168 7.125 12 7.125Z" fill="black"/>
<path fill-rule="evenodd" clip-rule="evenodd" d="M1.25 12C1.25 6.06294 6.06294 1.25 12 1.25C17.9371 1.25 22.75 6.06294 22.75 12C22.75 17.9371 17.9371 22.75 12 22.75C6.06294 22.75 1.25 17.9371 1.25 12ZM12 2.75C6.89137 2.75 2.75 6.89137 2.75 12C2.75 17.1086 6.89137 21.25 12 21.25C17.1086 21.25 21.25 17.1086 21.25 12C21.25 6.89137 17.1086 2.75 12 2.75Z" fill="black"/>
</svg>
