<svg width="16" height="16" viewBox="0 0 16 16" fill="none" xmlns="http://www.w3.org/2000/svg">
<path d="M8 4.25C8.41421 4.25 8.75 4.58579 8.75 5V7.25H11C11.4142 7.25 11.75 7.58579 11.75 8C11.75 8.41421 11.4142 8.75 11 8.75H8.75V11C8.75 11.4142 8.41421 11.75 8 11.75C7.58579 11.75 7.25 11.4142 7.25 11V8.75H5C4.58579 8.75 4.25 8.41421 4.25 8C4.25 7.58579 4.58579 7.25 5 7.25H7.25V5C7.25 4.58579 7.58579 4.25 8 4.25Z" fill="black"/>
<path fill-rule="evenodd" clip-rule="evenodd" d="M1.25 3.33333C1.25 2.18274 2.18274 1.25 3.33333 1.25H12.6667C13.8173 1.25 14.75 2.18274 14.75 3.33333V12.6667C14.75 13.8173 13.8173 14.75 12.6667 14.75H3.33333C2.18274 14.75 1.25 13.8173 1.25 12.6667V3.33333ZM3.33333 2.75C3.01117 2.75 2.75 3.01117 2.75 3.33333V12.6667C2.75 12.9888 3.01117 13.25 3.33333 13.25H12.6667C12.9888 13.25 13.25 12.9888 13.25 12.6667V3.33333C13.25 3.01117 12.9888 2.75 12.6667 2.75H3.33333Z" fill="black"/>
</svg>
