<svg width="16" height="16" viewBox="0 0 16 16" fill="none" xmlns="http://www.w3.org/2000/svg">
<path d="M8.75 1.5C8.75 1.08579 8.41421 0.75 8 0.75C7.58579 0.75 7.25 1.08579 7.25 1.5V7.5C7.25 7.91421 7.58579 8.25 8 8.25C8.41421 8.25 8.75 7.91421 8.75 7.5V1.5Z" fill="black"/>
<path d="M4.28394 4.28004C4.57667 3.98698 4.5764 3.51211 4.28335 3.21938C3.99029 2.92664 3.51542 2.92691 3.22269 3.21996C2.27895 4.16475 1.63639 5.36831 1.37616 6.67842C1.11594 7.98853 1.24971 9.34646 1.76059 10.5805C2.27147 11.8146 3.13656 12.8694 4.24655 13.6116C5.35655 14.3538 6.66158 14.75 7.99665 14.75C9.33171 14.75 10.6367 14.3538 11.7467 13.6116C12.8567 12.8694 13.7218 11.8146 14.2327 10.5805C14.7436 9.34646 14.8774 7.98853 14.6171 6.67842C14.3569 5.36831 13.7143 4.16475 12.7706 3.21996C12.4779 2.92691 12.003 2.92664 11.7099 3.21938C11.4169 3.51211 11.4166 3.98698 11.7094 4.28004C12.4435 5.01495 12.9434 5.95128 13.1459 6.97066C13.3484 7.99004 13.2443 9.04662 12.8468 10.0068C12.4493 10.9669 11.7763 11.7874 10.913 12.3647C10.0497 12.9419 9.03479 13.25 7.99665 13.25C6.9585 13.25 5.94361 12.9419 5.08031 12.3647C4.21699 11.7874 3.544 10.9669 3.14652 10.0068C2.74904 9.04662 2.64494 7.99004 2.84742 6.97066C3.0499 5.95128 3.54984 5.01495 4.28394 4.28004Z" fill="black"/>
</svg>
