<svg viewbox="0 0 24 24" width="24" height="24" fill="black" xmlns="http://www.w3.org/2000/svg">
 <g transform="translate(2.1199951171875, 1.125)">
  <path d="M10.755 0.875C10.755 0.391751 10.3633 0 9.88 0C9.39676 0 9.005 0.391751 9.005 0.875L9.005 10.875C9.005 11.3582 9.39676 11.75 9.88 11.75C10.3633 11.75 10.755 11.3582 10.755 10.875L10.755 0.875Z" fill-rule="NONZERO"></path>
  <path d="M4.12882 6.13375C4.47048 5.79199 4.47039 5.23797 4.12862 4.89632C3.78686 4.55466 3.23284 4.55475 2.89119 4.89652C1.51046 6.27769 0.570282 8.03725 0.189514 9.95273C-0.191254 11.8682 0.00449246 13.8536 0.752003 15.6578C1.49951 17.462 2.76522 19.0041 4.38908 20.089C6.01295 21.174 7.92205 21.7531 9.875 21.7531C11.828 21.7531 13.7371 21.174 15.3609 20.089C16.9848 19.0041 18.2505 17.462 18.998 15.6578C19.7455 13.8536 19.9413 11.8682 19.5605 9.95273C19.1797 8.03725 18.2395 6.27769 16.8588 4.89652C16.5172 4.55475 15.9632 4.55466 15.6214 4.89632C15.2796 5.23797 15.2795 5.79199 15.6212 6.13375C16.7572 7.27016 17.5308 8.7179 17.8441 10.2939C18.1574 11.8699 17.9963 13.5035 17.3813 14.988C16.7662 16.4725 15.7248 17.7413 14.3887 18.6339C13.0526 19.5266 11.4819 20.0031 9.875 20.0031C8.26814 20.0031 6.69736 19.5266 5.36127 18.6339C4.02518 17.7413 2.98378 16.4725 2.36874 14.988C1.7537 13.5035 1.59264 11.8699 1.90593 10.2939C2.21922 8.7179 2.99279 7.27016 4.12882 6.13375Z" fill-rule="NONZERO"></path>
 </g>
</svg>