<svg viewbox="0 0 24 24" width="24" height="24" fill="black" xmlns="http://www.w3.org/2000/svg">
 <g transform="translate(1.25, 1.25)">
  <path d="M4 0.75C4 0.335786 4.33579 0 4.75 0L16.75 0C17.1642 0 17.5 0.335786 17.5 0.75L17.5 7L18.75 7C19.4793 7 20.1788 7.28973 20.6945 7.80546C21.2103 8.32118 21.5 9.02065 21.5 9.75L21.5 14.75C21.5 15.4793 21.2103 16.1788 20.6945 16.6945C20.1788 17.2103 19.4793 17.5 18.75 17.5L17.5 17.5L17.5 20.75C17.5 21.1642 17.1642 21.5 16.75 21.5L4.75 21.5C4.33579 21.5 4 21.1642 4 20.75L4 17.5L2.75 17.5C2.02065 17.5 1.32118 17.2103 0.805456 16.6945C0.289731 16.1788 0 15.4793 0 14.75L0 9.75C0 9.02065 0.289731 8.32118 0.805456 7.80546C1.32118 7.28973 2.02065 7 2.75 7L4 7L4 0.75ZM5.5 20L16 20L16 13.5L5.5 13.5L5.5 20ZM17.5 16L17.5 12.75C17.5 12.3358 17.1642 12 16.75 12L4.75 12C4.33579 12 4 12.3358 4 12.75L4 16L2.75 16C2.41848 16 2.10054 15.8683 1.86612 15.6339C1.6317 15.3995 1.5 15.0815 1.5 14.75L1.5 9.75C1.5 9.41848 1.6317 9.10054 1.86612 8.86612C2.10054 8.6317 2.41848 8.5 2.75 8.5L18.75 8.5C19.0815 8.5 19.3995 8.6317 19.6339 8.86612C19.8683 9.10054 20 9.41848 20 9.75L20 14.75C20 15.0815 19.8683 15.3995 19.6339 15.6339C19.3995 15.8683 19.0815 16 18.75 16L17.5 16ZM16 1.5L16 7L5.5 7L5.5 1.5L16 1.5Z" fill-rule="EVENODD"></path>
 </g>
</svg>