<svg viewBox="0 0 16 16" width="16" height="16" fill="black" xmlns="http://www.w3.org/2000/svg">
 <g transform="translate(0.25, 0.25)">
  <path d="M7.75 0C3.46979 0 0 3.46979 0 7.75C0 12.0302 3.46979 15.5 7.75 15.5C12.0302 15.5 15.5 12.0302 15.5 7.75C15.5 3.46979 12.0302 0 7.75 0ZM7.05005 1.53876C6.30227 1.62209 5.59434 1.83735 4.95005 2.16074L4.95005 4.86745L7.05005 3.81745L7.05005 1.53876ZM1.61836 6.5333C1.88294 5.19232 2.57646 4.00541 3.55005 3.12145L3.55005 5.56745L1.61836 6.5333ZM1.51268 8.15139L3.55005 7.1327L3.55005 12.3786C2.38328 11.3192 1.61874 9.82472 1.51268 8.15139ZM7.05005 10.8174L4.95005 11.8674L4.95005 6.4327L7.05005 5.3827L7.05005 10.8174ZM8.45005 10.1174L8.45005 4.6827L10.55 3.63269L10.55 9.06738L8.45005 10.1174ZM10.55 10.6326L8.45005 11.6826L8.45005 13.9612C9.19783 13.8779 9.90576 13.6626 10.55 13.3392L10.55 10.6326ZM11.95 12.3785L11.95 9.93263L13.8816 8.96685C13.617 10.3077 12.9235 11.4945 11.95 12.3785ZM11.95 8.36738L11.95 3.12154C13.1168 4.18092 13.8813 5.67541 13.9873 7.34874L11.95 8.36738ZM7.05005 12.3826L5.04423 13.3855C5.66309 13.6832 6.33854 13.882 7.05005 13.9612L7.05005 12.3826ZM8.45005 3.11745L8.45005 1.53877C9.16157 1.61807 9.83703 1.81683 10.4559 2.11452L8.45005 3.11745Z" fill-rule="EVENODD"></path>
 </g>
</svg>