<svg viewBox="0 0 24 24" width="24" height="24" fill="black" xmlns="http://www.w3.org/2000/svg">
 <g transform="translate(1.2498406171798706, 1.25)">
  <path d="M10.7502 21.5C4.81862 21.5 0.00911222 16.696 0.000171765 10.7666C-5.7089e-05 10.7559 -5.68565e-05 10.7452 0.000170076 10.7346C0.00848453 4.80462 4.81823 0 10.7502 0C16.6815 0 21.4909 4.80366 21.5001 10.7328C21.5004 10.7438 21.5004 10.7549 21.5001 10.7658C21.4916 16.6956 16.6819 21.5 10.7502 21.5ZM11.5002 1.52997L11.5002 4.53644L15.0002 2.78644L15.0002 2.75C15.0002 2.67948 15.0099 2.61124 15.0281 2.54653C13.958 1.98738 12.765 1.63145 11.5002 1.52997ZM15.0002 4.46349L11.5002 6.21349L11.5002 14.5364L15.0002 12.7864L15.0002 4.46349ZM16.5002 12.0364L16.5002 3.71349L16.6598 3.63365C18.5912 5.23933 19.8586 7.61637 19.989 10.292L16.5002 12.0364ZM15.0002 14.4635L11.5002 16.2135L11.5002 19.97C12.765 19.8685 13.958 19.5126 15.0281 18.9535C15.0099 18.8888 15.0002 18.8205 15.0002 18.75L15.0002 14.4635ZM16.5002 17.9961L16.5002 13.7135L19.9156 12.0057C19.5872 14.4253 18.3233 16.5475 16.5002 17.9961ZM10.0002 5.28644L10.0002 1.52997C8.73532 1.63145 7.54227 1.98738 6.47223 2.54653C6.49042 2.61124 6.50016 2.67948 6.50016 2.75L6.50016 7.03644L10.0002 5.28644ZM5.00016 3.50385L5.00016 7.78644L1.58469 9.49417C1.9131 7.0747 3.17701 4.9525 5.00016 3.50385ZM5.00016 17.7864L5.00016 9.46349L1.5113 11.2079C1.64174 13.8836 2.90903 16.2606 4.84042 17.8663L5.00016 17.7864ZM6.50016 8.71349L6.50016 17.0364L10.0002 15.2864L10.0002 6.96349L6.50016 8.71349ZM6.50016 18.75C6.50016 18.8205 6.49042 18.8888 6.47223 18.9535C7.54227 19.5126 8.73532 19.8685 10.0002 19.97L10.0002 16.9635L6.50016 18.7135L6.50016 18.75Z" fill-rule="EVENODD"></path>
 </g>
</svg>