<svg width="16" height="16" viewBox="0 0 16 16" fill="none" xmlns="http://www.w3.org/2000/svg">
<path fill-rule="evenodd" clip-rule="evenodd" d="M8 0.25C3.71979 0.25 0.25 3.71979 0.25 8C0.25 12.2802 3.71979 15.75 8 15.75C12.2802 15.75 15.75 12.2802 15.75 8C15.75 3.71979 12.2802 0.25 8 0.25ZM7.30005 1.78876C6.55227 1.87209 5.84434 2.08735 5.20005 2.41074V5.11745L7.30005 4.06745V1.78876ZM1.86836 6.7833C2.13294 5.44232 2.82646 4.25541 3.80005 3.37145L3.80005 5.81745L1.86836 6.7833ZM1.76268 8.40139L3.80005 7.3827L3.80005 12.6286C2.63328 11.5692 1.86874 10.0747 1.76268 8.40139ZM7.30005 11.0674L5.20005 12.1174L5.20005 6.6827L7.30005 5.6327V11.0674ZM8.70005 10.3674V4.9327L10.8 3.88269L10.8 9.31738L8.70005 10.3674ZM10.8 10.8826L8.70005 11.9326V14.2112C9.44783 14.1279 10.1558 13.9126 10.8 13.5892V10.8826ZM12.2 12.6285V10.1826L14.1316 9.21685C13.867 10.5577 13.1735 11.7445 12.2 12.6285ZM12.2 8.61738L12.2 3.37154C13.3668 4.43092 14.1313 5.92541 14.2373 7.59874L12.2 8.61738ZM7.30005 12.6326L5.29423 13.6355C5.91309 13.9332 6.58854 14.132 7.30005 14.2112V12.6326ZM8.70005 3.36745V1.78877C9.41157 1.86807 10.087 2.06683 10.7059 2.36452L8.70005 3.36745Z" fill="black"/>
</svg>
