<svg width="24" height="24" viewBox="0 0 24 24" fill="none" xmlns="http://www.w3.org/2000/svg">
<path d="M3.45 4.40004C3.11863 4.15152 2.64853 4.21867 2.4 4.55004C2.15147 4.88142 2.21863 5.35152 2.55 5.60004L5.75 8.00004L2.55 10.4C2.21863 10.6486 2.15147 11.1187 2.4 11.45C2.64853 11.7814 3.11863 11.8486 3.45 11.6L7.45 8.60004C7.63885 8.4584 7.75 8.23611 7.75 8.00004C7.75 7.76398 7.63885 7.54168 7.45 7.40004L3.45 4.40004Z" fill="black"/>
<path d="M11 7.25C10.5858 7.25 10.25 7.58579 10.25 8C10.25 8.41421 10.5858 8.75 11 8.75L21 8.75C21.4142 8.75 21.75 8.41421 21.75 8C21.75 7.58579 21.4142 7.25 21 7.25L11 7.25Z" fill="black"/>
<path d="M7.25 13C7.25 12.5858 7.58579 12.25 8 12.25H21C21.4142 12.25 21.75 12.5858 21.75 13C21.75 13.4142 21.4142 13.75 21 13.75H8C7.58579 13.75 7.25 13.4142 7.25 13Z" fill="black"/>
<path d="M8 17.25C7.58579 17.25 7.25 17.5858 7.25 18C7.25 18.4142 7.58579 18.75 8 18.75H21C21.4142 18.75 21.75 18.4142 21.75 18C21.75 17.5858 21.4142 17.25 21 17.25H8Z" fill="black"/>
</svg>
