<svg width="16" height="16" viewBox="0 0 16 16" fill="none" xmlns="http://www.w3.org/2000/svg">
<path d="M2.48014 2.92385C2.16193 2.65868 1.68901 2.70167 1.42384 3.01988C1.15866 3.33809 1.20166 3.81101 1.51987 4.07618L3.82847 6.00002L1.51987 7.92385C1.20166 8.18903 1.15866 8.66195 1.42384 8.98016C1.68901 9.29836 2.16193 9.34136 2.48014 9.07618L5.48014 6.57618C5.65114 6.43369 5.75 6.2226 5.75 6.00002C5.75 5.77743 5.65114 5.56635 5.48014 5.42385L2.48014 2.92385Z" fill="black"/>
<path d="M8 5.25C7.58579 5.25 7.25 5.58579 7.25 6C7.25 6.41421 7.58579 6.75 8 6.75L14 6.75C14.4142 6.75 14.75 6.41421 14.75 6C14.75 5.58579 14.4142 5.25 14 5.25L8 5.25Z" fill="black"/>
<path d="M5.25 9C5.25 8.58579 5.58579 8.25 6 8.25H14C14.4142 8.25 14.75 8.58579 14.75 9C14.75 9.41421 14.4142 9.75 14 9.75H6C5.58579 9.75 5.25 9.41421 5.25 9Z" fill="black"/>
<path d="M6 11.25C5.58579 11.25 5.25 11.5858 5.25 12C5.25 12.4142 5.58579 12.75 6 12.75H14C14.4142 12.75 14.75 12.4142 14.75 12C14.75 11.5858 14.4142 11.25 14 11.25H6Z" fill="black"/>
</svg>
