<svg viewBox="0 0 16 16" width="16" height="16" fill="black" xmlns="http://www.w3.org/2000/svg">
 <g transform="translate(0.25, 2.25)">
  <path d="M3.33035 1.28025C3.6232 0.987313 3.62313 0.512439 3.33019 0.21959C3.03726 -0.0732591 2.56238 -0.0731875 2.26953 0.21975C0.816352 1.67337 0 3.64464 0 5.70006C0 7.75548 0.816352 9.72674 2.26953 11.1804C2.56238 11.4733 3.03726 11.4734 3.33019 11.1805C3.62313 10.8877 3.6232 10.4128 3.33035 10.1199C2.15838 8.94753 1.5 7.35773 1.5 5.70006C1.5 4.04238 2.15838 2.45258 3.33035 1.28025Z" fill-rule="NONZERO"></path>
  <path d="M13.2305 0.21975C12.9376 -0.0731875 12.4627 -0.0732591 12.1698 0.21959C11.8769 0.512439 11.8768 0.987313 12.1696 1.28025C13.3416 2.45258 14 4.04238 14 5.70006C14 7.35773 13.3416 8.94753 12.1696 10.1199C11.8768 10.4128 11.8769 10.8877 12.1698 11.1805C12.4627 11.4734 12.9376 11.4733 13.2305 11.1804C14.6836 9.72674 15.5 7.75548 15.5 5.70006C15.5 3.64464 14.6836 1.67337 13.2305 0.21975Z" fill-rule="NONZERO"></path>
  <path d="M5.3114 3.25505C5.60446 2.96232 5.60472 2.48744 5.31199 2.19439C5.01926 1.90133 4.54439 1.90107 4.25133 2.1938C3.79101 2.6536 3.42584 3.19963 3.17669 3.80066C2.92754 4.40169 2.7993 5.04593 2.7993 5.69656C2.7993 6.34718 2.92754 6.99143 3.17669 7.59245C3.42584 8.19348 3.79102 8.73951 4.25133 9.19932C4.54439 9.49205 5.01926 9.49178 5.31199 9.19872C5.60472 8.90567 5.60446 8.4308 5.3114 8.13807C4.99055 7.81757 4.73601 7.43698 4.56235 7.01804C4.38869 6.59911 4.2993 6.15006 4.2993 5.69656C4.2993 5.24306 4.38869 4.794 4.56235 4.37507C4.73601 3.95614 4.99055 3.57554 5.3114 3.25505Z" fill-rule="NONZERO"></path>
  <path d="M11.2487 2.2008C10.9556 1.90807 10.4807 1.90833 10.188 2.20139C9.89528 2.49444 9.89554 2.96932 10.1886 3.26205C10.5095 3.58254 10.764 3.96314 10.9377 4.38207C11.1113 4.801 11.2007 5.25006 11.2007 5.70356C11.2007 6.15706 11.1113 6.60611 10.9377 7.02505C10.764 7.44398 10.5095 7.82457 10.1886 8.14507C9.89554 8.4378 9.89528 8.91267 10.188 9.20573C10.4807 9.49878 10.9556 9.49905 11.2487 9.20632C11.709 8.74651 12.0742 8.20049 12.3233 7.59946C12.5725 6.99843 12.7007 6.35418 12.7007 5.70356C12.7007 5.05293 12.5725 4.40869 12.3233 3.80766C12.0742 3.20663 11.709 2.6606 11.2487 2.2008Z" fill-rule="NONZERO"></path>
  <path d="M6 5.75C6 4.7835 6.7835 4 7.75 4C8.7165 4 9.5 4.7835 9.5 5.75C9.5 6.7165 8.7165 7.5 7.75 7.5C6.7835 7.5 6 6.7165 6 5.75Z" fill-rule="NONZERO"></path>
 </g>
</svg>