<svg width="16" height="16" viewBox="0 0 16 16" fill="none" xmlns="http://www.w3.org/2000/svg">
<path d="M3.58035 3.53025C3.8732 3.23731 3.87313 2.76244 3.58019 2.46959C3.28726 2.17674 2.81238 2.17681 2.51953 2.46975C1.06635 3.92337 0.25 5.89464 0.25 7.95006C0.25 10.0055 1.06635 11.9767 2.51953 13.4304C2.81238 13.7233 3.28726 13.7234 3.58019 13.4305C3.87313 13.1377 3.8732 12.6628 3.58035 12.3699C2.40838 11.1975 1.75 9.60773 1.75 7.95006C1.75 6.29238 2.40838 4.70258 3.58035 3.53025Z" fill="black"/>
<path d="M13.4805 2.46975C13.1876 2.17681 12.7127 2.17674 12.4198 2.46959C12.1269 2.76244 12.1268 3.23731 12.4196 3.53025C13.5916 4.70258 14.25 6.29238 14.25 7.95006C14.25 9.60773 13.5916 11.1975 12.4196 12.3699C12.1268 12.6628 12.1269 13.1377 12.4198 13.4305C12.7127 13.7234 13.1876 13.7233 13.4805 13.4304C14.9336 11.9767 15.75 10.0055 15.75 7.95006C15.75 5.89464 14.9336 3.92337 13.4805 2.46975Z" fill="black"/>
<path d="M5.5614 5.50505C5.85446 5.21232 5.85472 4.73744 5.56199 4.44439C5.26926 4.15133 4.79439 4.15107 4.50133 4.4438C4.04101 4.9036 3.67584 5.44963 3.42669 6.05066C3.17754 6.65169 3.0493 7.29593 3.0493 7.94656C3.0493 8.59718 3.17754 9.24143 3.42669 9.84245C3.67584 10.4435 4.04102 10.9895 4.50133 11.4493C4.79439 11.742 5.26926 11.7418 5.56199 11.4487C5.85472 11.1557 5.85446 10.6808 5.5614 10.3881C5.24055 10.0676 4.98601 9.68698 4.81235 9.26804C4.63869 8.84911 4.5493 8.40006 4.5493 7.94656C4.5493 7.49306 4.63869 7.044 4.81235 6.62507C4.98601 6.20614 5.24055 5.82554 5.5614 5.50505Z" fill="black"/>
<path d="M11.4987 4.4508C11.2056 4.15807 10.7307 4.15833 10.438 4.45139C10.1453 4.74444 10.1455 5.21932 10.4386 5.51205C10.7595 5.83254 11.014 6.21314 11.1877 6.63207C11.3613 7.051 11.4507 7.50006 11.4507 7.95356C11.4507 8.40706 11.3613 8.85611 11.1877 9.27505C11.014 9.69398 10.7595 10.0746 10.4386 10.3951C10.1455 10.6878 10.1453 11.1627 10.438 11.4557C10.7307 11.7488 11.2056 11.749 11.4987 11.4563C11.959 10.9965 12.3242 10.4505 12.5733 9.84946C12.8225 9.24843 12.9507 8.60418 12.9507 7.95356C12.9507 7.30293 12.8225 6.65869 12.5733 6.05766C12.3242 5.45663 11.959 4.9106 11.4987 4.4508Z" fill="black"/>
<path d="M6.25 8C6.25 7.0335 7.0335 6.25 8 6.25C8.9665 6.25 9.75 7.0335 9.75 8C9.75 8.9665 8.9665 9.75 8 9.75C7.0335 9.75 6.25 8.9665 6.25 8Z" fill="black"/>
</svg>
