<svg width="24" height="24" viewBox="0 0 24 24" fill="none" xmlns="http://www.w3.org/2000/svg">
<path d="M4 1.5498C3.58579 1.5498 3.25 1.88559 3.25 2.2998V7.2998C3.25 7.71402 3.58579 8.0498 4 8.0498H9C9.41421 8.0498 9.75 7.71402 9.75 7.2998C9.75 6.88559 9.41421 6.5498 9 6.5498H5.8064C7.31898 4.83218 9.53329 3.75 12 3.75C16.5563 3.75 20.25 7.44365 20.25 12C20.25 12.4142 20.5858 12.75 21 12.75C21.4142 12.75 21.75 12.4142 21.75 12C21.75 6.61522 17.3848 2.25 12 2.25C9.12108 2.25 6.53403 3.49814 4.75 5.48077V2.2998C4.75 1.88559 4.41421 1.5498 4 1.5498Z" fill="black"/>
<path d="M3 11.25C2.58579 11.25 2.25 11.5858 2.25 12C2.25 17.3848 6.61522 21.75 12 21.75C14.8789 21.75 17.466 20.5018 19.25 18.5193V21.6001C19.25 22.0143 19.5858 22.3501 20 22.3501C20.4142 22.3501 20.75 22.0143 20.75 21.6001V16.6001C20.75 16.1859 20.4142 15.8501 20 15.8501H15C14.5858 15.8501 14.25 16.1859 14.25 16.6001C14.25 17.0143 14.5858 17.3501 15 17.3501H18.2803C16.7662 19.1257 14.5143 20.25 12 20.25C7.44365 20.25 3.75 16.5563 3.75 12C3.75 11.5858 3.41421 11.25 3 11.25Z" fill="black"/>
</svg>
