<svg width="16" height="16" viewBox="0 0 16 16" fill="none" xmlns="http://www.w3.org/2000/svg">
<path d="M8 2.75C5.10051 2.75 2.75 5.10051 2.75 8C2.75 8.41421 2.41421 8.75 2 8.75C1.58579 8.75 1.25 8.41421 1.25 8C1.25 4.27208 4.27208 1.25 8 1.25C9.80205 1.25 11.4401 1.95703 12.65 3.10713V2C12.65 1.58579 12.9858 1.25 13.4 1.25C13.8142 1.25 14.15 1.58579 14.15 2V5C14.15 5.41421 13.8142 5.75 13.4 5.75H10.4C9.98578 5.75 9.64999 5.41421 9.64999 5C9.64999 4.58579 9.98578 4.25 10.4 4.25H11.6742C10.7266 3.3213 9.43059 2.75 8 2.75Z" fill="black"/>
<path d="M14 7.25C14.4142 7.25 14.75 7.58579 14.75 8C14.75 11.7279 11.7279 14.75 8 14.75C6.19761 14.75 4.55996 14.0429 3.35001 12.8928V14C3.35001 14.4142 3.01422 14.75 2.60001 14.75C2.18579 14.75 1.85001 14.4142 1.85001 14V11C1.85001 10.5858 2.18579 10.25 2.60001 10.25H5.60001C6.01422 10.25 6.35001 10.5858 6.35001 11C6.35001 11.4142 6.01422 11.75 5.60001 11.75H4.32572C5.27331 12.6787 6.56973 13.25 8 13.25C10.8995 13.25 13.25 10.8995 13.25 8C13.25 7.58579 13.5858 7.25 14 7.25Z" fill="black"/>
<path d="M7.25 10.5C7.25 10.0858 7.58579 9.75 8 9.75H8.00667C8.42088 9.75 8.75667 10.0858 8.75667 10.5C8.75667 10.9142 8.42088 11.25 8.00667 11.25H8C7.58579 11.25 7.25 10.9142 7.25 10.5Z" fill="black"/>
<path d="M8.75 5.5C8.75 5.08579 8.41421 4.75 8 4.75C7.58579 4.75 7.25 5.08579 7.25 5.5V8.16667C7.25 8.58088 7.58579 8.91667 8 8.91667C8.41421 8.91667 8.75 8.58088 8.75 8.16667V5.5Z" fill="black"/>
</svg>
