<svg viewBox="0 0 24 24" width="24" height="24" fill="black" xmlns="http://www.w3.org/2000/svg">
 <g transform="translate(2.25, 2.0498046875)">
  <path d="M17.75 0C18.1642 0 18.5 0.335786 18.5 0.75L18.5 5.25C18.5 5.66421 18.1642 6 17.75 6L13.25 6C12.8358 6 12.5 5.66421 12.5 5.25C12.5 4.83579 12.8358 4.5 13.25 4.5L15.9436 4.5C14.431 2.78238 12.2167 1.7002 9.75 1.7002C5.19365 1.7002 1.5 5.39385 1.5 9.9502C1.5 10.3644 1.16421 10.7002 0.75 10.7002C0.335786 10.7002 0 10.3644 0 9.9502C0 4.56542 4.36522 0.200195 9.75 0.200195C12.6289 0.200195 15.216 1.44834 17 3.43097L17 0.75C17 0.335786 17.3358 0 17.75 0Z" fill-rule="NONZERO"></path>
  <path d="M18.75 9.2002C19.1642 9.2002 19.5 9.53598 19.5 9.9502C19.5 15.335 15.1348 19.7002 9.75 19.7002C6.87115 19.7002 4.28396 18.452 2.5 16.4694L2.5 19.1504C2.5 19.5646 2.16421 19.9004 1.75 19.9004C1.33579 19.9004 1 19.5646 1 19.1504L1 14.6504C1 14.2362 1.33579 13.9004 1.75 13.9004L6.25 13.9004C6.66421 13.9004 7 14.2362 7 14.6504C7 15.0646 6.66421 15.4004 6.25 15.4004L3.55643 15.4004C5.06908 17.1181 7.28324 18.2002 9.75 18.2002C14.3063 18.2002 18 14.5065 18 9.9502C18 9.53598 18.3358 9.2002 18.75 9.2002Z" fill-rule="NONZERO"></path>
  <path d="M9.75 5.0752C10.2332 5.0752 10.625 5.46695 10.625 5.9502L10.625 9.9502C10.625 10.4334 10.2332 10.8252 9.75 10.8252C9.26675 10.8252 8.875 10.4334 8.875 9.9502L8.875 5.9502C8.875 5.46695 9.26675 5.0752 9.75 5.0752Z" fill-rule="NONZERO"></path>
  <path d="M9.75 12.9502C9.19771 12.9502 8.75 13.3979 8.75 13.9502C8.75 14.5025 9.19771 14.9502 9.75 14.9502L9.76 14.9502C10.3123 14.9502 10.76 14.5025 10.76 13.9502C10.76 13.3979 10.3123 12.9502 9.76 12.9502L9.75 12.9502Z" fill-rule="NONZERO"></path>
 </g>
</svg>