<svg width="24" height="24" viewBox="0 0 24 24" fill="none" xmlns="http://www.w3.org/2000/svg">
<path d="M20 1.5498C20.4142 1.5498 20.75 1.88559 20.75 2.2998V7.2998C20.75 7.71402 20.4142 8.0498 20 8.0498H15C14.5858 8.0498 14.25 7.71402 14.25 7.2998C14.25 6.88559 14.5858 6.5498 15 6.5498H18.1936C16.681 4.83218 14.4667 3.75 12 3.75C7.44365 3.75 3.75 7.44365 3.75 12C3.75 12.4142 3.41421 12.75 3 12.75C2.58579 12.75 2.25 12.4142 2.25 12C2.25 6.61522 6.61522 2.25 12 2.25C14.8789 2.25 17.466 3.49814 19.25 5.48077V2.2998C19.25 1.88559 19.5858 1.5498 20 1.5498Z" fill="black"/>
<path d="M4 22.4502C3.58579 22.4502 3.25 22.1144 3.25 21.7002V16.7002C3.25 16.286 3.58579 15.9502 4 15.9502H9C9.41421 15.9502 9.75 16.286 9.75 16.7002C9.75 17.1144 9.41421 17.4502 9 17.4502H5.80643C7.31908 19.1679 9.53324 20.25 12 20.25C16.5563 20.25 20.25 16.5563 20.25 12C20.25 11.5858 20.5858 11.25 21 11.25C21.4142 11.25 21.75 11.5858 21.75 12C21.75 17.3848 17.3848 21.75 12 21.75C9.12115 21.75 6.53396 20.5018 4.75 18.5193V21.7002C4.75 22.1144 4.41421 22.4502 4 22.4502Z" fill="black"/>
</svg>
