<svg viewbox="0 0 16 16" width="16" height="16" fill="black" xmlns="http://www.w3.org/2000/svg">
 <g transform="translate(1.25, 0.11669921875)">
  <path d="M1.41669 0C1.00247 0 0.666687 0.335786 0.666687 0.75L0.666687 4.75C0.666687 5.16421 1.00247 5.5 1.41669 5.5L5.41669 5.5C5.8309 5.5 6.16669 5.16421 6.16669 4.75C6.16669 4.33579 5.8309 4 5.41669 4L3.21687 4C4.15014 3.15023 5.38918 2.6333 6.75 2.6333C9.6495 2.6333 12 4.98381 12 7.8833C12 8.29751 12.3358 8.6333 12.75 8.6333C13.1642 8.6333 13.5 8.29751 13.5 7.8833C13.5 4.15538 10.4779 1.1333 6.75 1.1333C4.98084 1.1333 3.36976 1.81476 2.16669 2.9279L2.16669 0.75C2.16669 0.335786 1.8309 0 1.41669 0Z" fill-rule="NONZERO"></path>
  <path d="M0.75 7.1333C0.335786 7.1333 0 7.46909 0 7.8833C0 11.6112 3.02208 14.6333 6.75 14.6333C8.51949 14.6333 10.1302 13.9518 11.3333 12.8387L11.3333 14.9502C11.3333 15.3644 11.6691 15.7002 12.0833 15.7002C12.4975 15.7002 12.8333 15.3644 12.8333 14.9502L12.8333 10.9502C12.8333 10.536 12.4975 10.2002 12.0833 10.2002L8.08331 10.2002C7.6691 10.2002 7.33331 10.536 7.33331 10.9502C7.33331 11.3644 7.6691 11.7002 8.08331 11.7002L10.3548 11.7002C9.41377 12.5894 8.14561 13.1333 6.75 13.1333C3.8505 13.1333 1.5 10.7828 1.5 7.8833C1.5 7.46909 1.16421 7.1333 0.75 7.1333Z" fill-rule="NONZERO"></path>
 </g>
</svg>