<svg width="16" height="16" viewBox="0 0 16 16" fill="none" xmlns="http://www.w3.org/2000/svg">
<path d="M11.8636 0.46967C11.5708 0.176777 11.0959 0.176777 10.803 0.46967C10.5101 0.762563 10.5101 1.23744 10.803 1.53033L12.5227 3.25H4.66667C3.76051 3.25 2.89147 3.60997 2.25072 4.25072C1.60997 4.89147 1.25 5.76051 1.25 6.66667V8C1.25 8.41421 1.58579 8.75 2 8.75C2.41421 8.75 2.75 8.41421 2.75 8V6.66667C2.75 6.15833 2.95193 5.67082 3.31138 5.31138C3.67082 4.95193 4.15833 4.75 4.66667 4.75H12.5227L10.803 6.46967C10.5101 6.76256 10.5101 7.23744 10.803 7.53033C11.0959 7.82322 11.5708 7.82322 11.8636 7.53033L14.8636 4.53033C15.0043 4.38968 15.0833 4.19891 15.0833 4C15.0833 3.80109 15.0043 3.61032 14.8636 3.46967L11.8636 0.46967Z" fill="black"/>
<path d="M5.53033 8.46967C5.82322 8.76256 5.82322 9.23744 5.53033 9.53033L3.81066 11.25H11.3333C11.8417 11.25 12.3292 11.0481 12.6886 10.6886C13.0481 10.3292 13.25 9.84167 13.25 9.33333V8C13.25 7.58579 13.5858 7.25 14 7.25C14.4142 7.25 14.75 7.58579 14.75 8V9.33333C14.75 10.2395 14.39 11.1085 13.7493 11.7493C13.1085 12.39 12.2395 12.75 11.3333 12.75H3.81066L5.53033 14.4697C5.82322 14.7626 5.82322 15.2374 5.53033 15.5303C5.23744 15.8232 4.76256 15.8232 4.46967 15.5303L1.46967 12.5303C1.32322 12.3839 1.25 12.1919 1.25 12C1.25 11.8983 1.27024 11.8013 1.30691 11.7129C1.34351 11.6245 1.39776 11.5416 1.46967 11.4697L4.46967 8.46967C4.76256 8.17678 5.23744 8.17678 5.53033 8.46967Z" fill="black"/>
</svg>
