<svg width="24" height="24" viewBox="0 0 24 24" fill="none" xmlns="http://www.w3.org/2000/svg">
<path d="M17.5303 0.46967C17.2374 0.176777 16.7626 0.176777 16.4697 0.46967C16.1768 0.762563 16.1768 1.23744 16.4697 1.53033L19.1893 4.25H7C5.74022 4.25 4.53204 4.75044 3.64124 5.64124C2.75044 6.53204 2.25 7.74022 2.25 9V11C2.25 11.4142 2.58579 11.75 3 11.75C3.41421 11.75 3.75 11.4142 3.75 11V9C3.75 8.13805 4.09241 7.3114 4.7019 6.7019C5.3114 6.09241 6.13805 5.75 7 5.75H19.1893L16.4697 8.46967C16.1768 8.76256 16.1768 9.23744 16.4697 9.53033C16.7626 9.82322 17.2374 9.82322 17.5303 9.53033L21.5303 5.53033C21.6768 5.38388 21.75 5.19194 21.75 5C21.75 4.89831 21.7298 4.80134 21.6931 4.71291C21.6565 4.62445 21.6022 4.54158 21.5303 4.46967L17.5303 0.46967Z" fill="black"/>
<path d="M7.53033 14.4697C7.82322 14.7626 7.82322 15.2374 7.53033 15.5303L4.81066 18.25H17C17.862 18.25 18.6886 17.9076 19.2981 17.2981C19.9076 16.6886 20.25 15.862 20.25 15V13C20.25 12.5858 20.5858 12.25 21 12.25C21.4142 12.25 21.75 12.5858 21.75 13V15C21.75 16.2598 21.2496 17.468 20.3588 18.3588C19.468 19.2496 18.2598 19.75 17 19.75H4.81066L7.53033 22.4697C7.82322 22.7626 7.82322 23.2374 7.53033 23.5303C7.23744 23.8232 6.76256 23.8232 6.46967 23.5303L2.46967 19.5303C2.32322 19.3839 2.25 19.1919 2.25 19C2.25 18.8983 2.27024 18.8013 2.30691 18.7129C2.34351 18.6245 2.39776 18.5416 2.46967 18.4697L6.46967 14.4697C6.76256 14.1768 7.23744 14.1768 7.53033 14.4697Z" fill="black"/>
</svg>
