<svg width="24" height="24" viewBox="0 0 24 24" fill="none" xmlns="http://www.w3.org/2000/svg">
<path fill-rule="evenodd" clip-rule="evenodd" d="M2.25 5C2.25 3.48122 3.48122 2.25 5 2.25H15C16.5188 2.25 17.75 3.48122 17.75 5V6.68934L18.5303 7.46967C18.8232 7.76256 18.8232 8.23744 18.5303 8.53033C18.3193 8.74135 18.0138 8.80034 17.75 8.70729V11.6893L20.5303 14.4697C20.8232 14.7626 20.8232 15.2374 20.5303 15.5303C20.2374 15.8232 19.7626 15.8232 19.4697 15.5303L17.75 13.8107V15C17.75 15.4946 17.6194 15.9587 17.3909 16.3597C17.4405 16.3901 17.4874 16.4267 17.5303 16.4697L21.5303 20.4697C21.8232 20.7626 21.8232 21.2374 21.5303 21.5303C21.2374 21.8232 20.7626 21.8232 20.4697 21.5303L16.4697 17.5303C16.4267 17.4874 16.3901 17.4405 16.3597 17.3909C15.9587 17.6194 15.4946 17.75 15 17.75H13.8107L14.5303 18.4697C14.8232 18.7626 14.8232 19.2374 14.5303 19.5303C14.2374 19.8232 13.7626 19.8232 13.4697 19.5303L11.6893 17.75H8.81066L11.5303 20.4697C11.8232 20.7626 11.8232 21.2374 11.5303 21.5303C11.2374 21.8232 10.7626 21.8232 10.4697 21.5303L6.68934 17.75H5C3.48122 17.75 2.25 16.5188 2.25 15V5ZM5 3.75C4.30964 3.75 3.75 4.30964 3.75 5V15C3.75 15.6904 4.30964 16.25 5 16.25H15C15.6904 16.25 16.25 15.6904 16.25 15V5C16.25 4.30964 15.6904 3.75 15 3.75H5Z" fill="black"/>
<path d="M16.5303 20.4697C16.2374 20.1768 15.7626 20.1768 15.4697 20.4697C15.1768 20.7626 15.1768 21.2374 15.4697 21.5303L16.4697 22.5303C16.7626 22.8232 17.2374 22.8232 17.5303 22.5303C17.8232 22.2374 17.8232 21.7626 17.5303 21.4697L16.5303 20.4697Z" fill="black"/>
<path d="M22.4304 16.3696C22.1375 16.0767 21.6626 16.0767 21.3697 16.3696C21.0768 16.6625 21.0768 17.1373 21.3697 17.4302L21.4697 17.5302C21.7626 17.8231 22.2375 17.8231 22.5304 17.5302C22.8232 17.2373 22.8232 16.7625 22.5304 16.4696L22.4304 16.3696Z" fill="black"/>
<path d="M19.4697 9.46967C19.7626 9.17678 20.2374 9.17678 20.5303 9.46967L21.5303 10.4697C21.8232 10.7626 21.8232 11.2374 21.5303 11.5303C21.2374 11.8232 20.7626 11.8232 20.4697 11.5303L19.4697 10.5303C19.1768 10.2374 19.1768 9.76256 19.4697 9.46967Z" fill="black"/>
</svg>
