<svg viewbox="0 0 24 24" width="24" height="24" fill="black" xmlns="http://www.w3.org/2000/svg">
 <g transform="translate(1.25, 1.25)">
  <path d="M0 2.75C0 1.23122 1.23122 0 2.75 0L12.75 0C14.2688 0 15.5 1.23122 15.5 2.75L15.5 14.75C15.5 15.1642 15.1642 15.5 14.75 15.5L2.75 15.5C1.23122 15.5 0 14.2688 0 12.75L0 2.75ZM2.75 1.5C2.05964 1.5 1.5 2.05964 1.5 2.75L1.5 12.75C1.5 13.4404 2.05964 14 2.75 14L14 14L14 2.75C14 2.05964 13.4404 1.5 12.75 1.5L2.75 1.5Z" fill-rule="EVENODD"></path>
  <path d="M17.75 5C18.1642 5 18.5 5.33579 18.5 5.75L18.5 17.75C18.5 18.1642 18.1642 18.5 17.75 18.5L5.75 18.5C5.33579 18.5 5 18.1642 5 17.75C5 17.3358 5.33579 17 5.75 17L17 17L17 5.75C17 5.33579 17.3358 5 17.75 5Z" fill-rule="NONZERO"></path>
  <path d="M21.5 8.75C21.5 8.33579 21.1642 8 20.75 8C20.3358 8 20 8.33579 20 8.75L20 19.75C20 19.8917 19.8882 20 19.7537 20L8.75 20C8.33579 20 8 20.3358 8 20.75C8 21.1642 8.33579 21.5 8.75 21.5L19.7537 21.5C20.7238 21.5 21.5 20.7129 21.5 19.75L21.5 8.75Z" fill-rule="NONZERO"></path>
 </g>
</svg>