<svg width="24" height="24" viewBox="0 0 24 24" fill="none" xmlns="http://www.w3.org/2000/svg">
<path fill-rule="evenodd" clip-rule="evenodd" d="M1.25 4C1.25 2.48122 2.48122 1.25 4 1.25H14C15.5188 1.25 16.75 2.48122 16.75 4V16C16.75 16.4142 16.4142 16.75 16 16.75H4C2.48122 16.75 1.25 15.5188 1.25 14V4ZM4 2.75C3.30964 2.75 2.75 3.30964 2.75 4V14C2.75 14.6904 3.30964 15.25 4 15.25H15.25V4C15.25 3.30964 14.6904 2.75 14 2.75H4Z" fill="black"/>
<path d="M19 6.25C19.4142 6.25 19.75 6.58579 19.75 7V19C19.75 19.4142 19.4142 19.75 19 19.75H7C6.58579 19.75 6.25 19.4142 6.25 19C6.25 18.5858 6.58579 18.25 7 18.25H18.25V7C18.25 6.58579 18.5858 6.25 19 6.25Z" fill="black"/>
<path d="M22.75 10C22.75 9.58579 22.4142 9.25 22 9.25C21.5858 9.25 21.25 9.58579 21.25 10V21C21.25 21.1417 21.1382 21.25 21.0037 21.25H10C9.58579 21.25 9.25 21.5858 9.25 22C9.25 22.4142 9.58579 22.75 10 22.75H21.0037C21.9738 22.75 22.75 21.9629 22.75 21V10Z" fill="black"/>
</svg>
