<svg width="16" height="16" viewBox="0 0 16 16" fill="none" xmlns="http://www.w3.org/2000/svg">
<path fill-rule="evenodd" clip-rule="evenodd" d="M1.25 3.28571C1.25 2.16142 2.16142 1.25 3.28571 1.25H9.71429C10.8386 1.25 11.75 2.16142 11.75 3.28571V4.10417C11.7773 4.12447 11.8035 4.14702 11.8283 4.17182L12.495 4.83849C12.7684 5.11186 12.7684 5.55507 12.495 5.82844C12.2936 6.02986 12 6.08287 11.75 5.98747V7.43718C11.7773 7.45748 11.8035 7.48003 11.8283 7.50483L13.8283 9.50483C14.1017 9.7782 14.1017 10.2214 13.8283 10.4948C13.555 10.7681 13.1118 10.7681 12.8384 10.4948L11.75 9.40639V9.71429C11.75 10.0549 11.6663 10.376 11.5185 10.6581C11.632 10.6891 11.7392 10.7492 11.8283 10.8383L14.495 13.505C14.7684 13.7784 14.7684 14.2216 14.495 14.4949C14.2216 14.7683 13.7784 14.7683 13.5051 14.4949L10.8384 11.8283C10.7492 11.7391 10.6892 11.6319 10.6582 11.5184C10.376 11.6663 10.0549 11.75 9.71429 11.75H9.40664L9.8283 12.1717C10.1017 12.445 10.1017 12.8882 9.8283 13.1616C9.55493 13.435 9.11171 13.435 8.83835 13.1616L7.50501 11.8283C7.48023 11.8035 7.4577 11.7773 7.43741 11.75H6.07332L7.82832 13.505C8.10168 13.7784 8.10168 14.2216 7.82832 14.4949C7.55495 14.7683 7.11173 14.7683 6.83837 14.4949L4.1717 11.8283C4.14692 11.8035 4.12439 11.7773 4.1041 11.75H3.28571C2.16142 11.75 1.25 10.8386 1.25 9.71429V3.28571ZM3.28571 2.75C2.98985 2.75 2.75 2.98985 2.75 3.28571V9.71429C2.75 10.0102 2.98985 10.25 3.28571 10.25H9.71429C10.0102 10.25 10.25 10.0102 10.25 9.71429V3.28571C10.25 2.98985 10.0102 2.75 9.71429 2.75H3.28571Z" fill="black"/>
<path d="M11.1616 13.5048C10.8883 13.2315 10.4451 13.2315 10.1717 13.5048C9.89833 13.7782 9.89833 14.2214 10.1717 14.4948L10.8384 15.1614C11.1117 15.4348 11.5549 15.4348 11.8283 15.1614C12.1017 14.8881 12.1017 14.4449 11.8283 14.1715L11.1616 13.5048Z" fill="black"/>
<path d="M15.095 10.7714C14.8216 10.4981 14.3784 10.4981 14.1051 10.7714C13.8317 11.0448 13.8317 11.488 14.1051 11.7614L14.1717 11.828C14.4451 12.1014 14.8883 12.1014 15.1617 11.828C15.435 11.5547 15.435 11.1115 15.1617 10.8381L15.095 10.7714Z" fill="black"/>
<path d="M12.8384 6.17182C13.1118 5.89846 13.555 5.89846 13.8283 6.17182L14.495 6.83849C14.7684 7.11186 14.7684 7.55507 14.495 7.82844C14.2216 8.10181 13.7784 8.10181 13.5051 7.82844L12.8384 7.16177C12.565 6.8884 12.565 6.44519 12.8384 6.17182Z" fill="black"/>
</svg>
