<svg width="16" height="16" viewBox="0 0 16 16" fill="none" xmlns="http://www.w3.org/2000/svg">
<path fill-rule="evenodd" clip-rule="evenodd" d="M8.75 3.5C8.75 3.21593 8.5895 2.95623 8.33541 2.82918C8.08132 2.70214 7.77726 2.72956 7.55 2.9L1.55 7.4C1.36115 7.54165 1.25 7.76394 1.25 8C1.25 8.23607 1.36115 8.45836 1.55 8.6L7.55 13.1C7.77726 13.2705 8.08132 13.2979 8.33541 13.1708C8.5895 13.0438 8.75 12.7841 8.75 12.5V9.5L13.55 13.1C13.7773 13.2705 14.0813 13.2979 14.3354 13.1708C14.5895 13.0438 14.75 12.7841 14.75 12.5V3.5C14.75 3.21593 14.5895 2.95623 14.3354 2.82918C14.0813 2.70214 13.7773 2.72956 13.55 2.9L8.75 6.5V3.5ZM7.25 5L3.25 8L7.25 11V5ZM13.25 11L9.25 8L13.25 5V11Z" fill="black"/>
</svg>
