<svg viewBox="0 0 24 24" width="24" height="24" fill="black" xmlns="http://www.w3.org/2000/svg">
 <g transform="translate(1.75, 2.529296875)">
  <path d="M12.7803 8.00103C13.0732 7.70814 13.0732 7.23327 12.7803 6.94037C12.4874 6.64748 12.0126 6.64748 11.7197 6.94037L11.2197 7.44037C10.9268 7.73327 10.9268 8.20814 11.2197 8.50103C11.5126 8.79393 11.9874 8.79393 12.2803 8.50103L12.7803 8.00103Z" fill-rule="NONZERO"></path>
  <path d="M17.6292 0.0378111C18.8568 -0.218049 19.9389 0.864077 19.6831 2.09167C19.3113 3.87552 18.6451 6.9829 17.9776 9.65278C17.8013 10.3581 17.451 10.9952 16.9938 11.5673L16.9925 11.5769L16.5496 14.677C16.4855 15.1259 16.2496 15.5324 15.8916 15.8108L12.4737 18.4692C11.7289 19.0485 10.6589 18.933 10.0549 18.2082L8.17384 15.9509C8.14201 15.9127 8.11463 15.8723 8.09163 15.8303C7.70948 15.6417 7.39814 15.3222 7.21512 14.9532C6.98261 14.4845 6.64644 13.928 6.21967 13.5012C5.7929 13.0744 5.2364 12.7383 4.76763 12.5058C4.39863 12.3227 4.07911 12.0114 3.89054 11.6292C3.8485 11.6062 3.80807 11.5788 3.76986 11.547L1.51262 9.66593C0.787765 9.06189 0.672295 7.99194 1.25158 7.24715L3.90997 3.82922C4.18839 3.47125 4.5949 3.23534 5.04385 3.17121L8.14393 2.72834C8.14721 2.72787 8.15048 2.72742 8.15375 2.727C8.7258 2.26984 9.36281 1.91959 10.0681 1.74327C12.738 1.0758 15.8454 0.409607 17.6292 0.0378111ZM6.54167 4.47246L5.25598 4.65613C5.19184 4.66529 5.13377 4.69899 5.094 4.75013L2.43561 8.16806C2.35285 8.27446 2.36935 8.42731 2.4729 8.5136L3.97935 9.76898C4.34859 8.66714 4.94756 7.10941 5.78107 5.65995C6.01034 5.26126 6.26359 4.85969 6.54167 4.47246ZM14.0609 13.9398C14.4596 13.7106 14.8611 13.4573 15.2483 13.1793L15.0647 14.4648C15.0555 14.529 15.0218 14.587 14.9707 14.6268L11.5527 17.2852C11.4463 17.3679 11.2935 17.3514 11.2072 17.2479L9.95189 15.7415C11.0537 15.3723 12.6115 14.7733 14.0609 13.9398ZM18.2146 1.78561C18.25 1.61608 18.1048 1.47092 17.9353 1.50626C16.156 1.8771 13.0721 2.53843 10.4319 3.19848C9.16113 3.51618 8.02243 4.77129 7.0814 6.40771C6.16382 8.00336 5.54085 9.77312 5.22074 10.8064C5.20609 10.8537 5.20772 10.9092 5.24053 10.9751C5.27548 11.0454 5.34232 11.1164 5.43414 11.162C5.97318 11.4293 6.69096 11.8512 7.28033 12.4405C7.86971 13.0299 8.29154 13.7477 8.55891 14.2867C8.60445 14.3786 8.67552 14.4454 8.74576 14.4804C8.81168 14.5132 8.86719 14.5148 8.91448 14.5001C9.94776 14.18 11.7175 13.5571 13.3132 12.6395C14.9496 11.6984 16.2047 10.5597 16.5224 9.28897C17.1824 6.64877 17.8438 3.56491 18.2146 1.78561Z" fill-rule="EVENODD"></path>
  <path d="M4.78033 14.9404C5.07322 15.2333 5.07322 15.7081 4.78033 16.001L1.78033 19.001C1.48744 19.2939 1.01256 19.2939 0.71967 19.001C0.426777 18.7081 0.426777 18.2333 0.71967 17.9404L3.71967 14.9404C4.01256 14.6475 4.48744 14.6475 4.78033 14.9404Z" fill-rule="NONZERO"></path>
  <path d="M2.28033 13.4404C2.57322 13.7333 2.57322 14.2081 2.28033 14.501L1.28033 15.501C0.987437 15.7939 0.512563 15.7939 0.21967 15.501C-0.0732233 15.2081 -0.0732233 14.7333 0.21967 14.4404L1.21967 13.4404C1.51256 13.1475 1.98744 13.1475 2.28033 13.4404Z" fill-rule="NONZERO"></path>
  <path d="M6.28033 18.501C6.57322 18.2081 6.57322 17.7333 6.28033 17.4404C5.98744 17.1475 5.51256 17.1475 5.21967 17.4404L4.21967 18.4404C3.92678 18.7333 3.92678 19.2081 4.21967 19.501C4.51256 19.7939 4.98744 19.7939 5.28033 19.501L6.28033 18.501Z" fill-rule="NONZERO"></path>
 </g>
</svg>