<svg width="24" height="24" viewBox="0 0 24 24" fill="none" xmlns="http://www.w3.org/2000/svg">
<path d="M20.75 2.2998C20.75 1.88559 20.4142 1.5498 20 1.5498C19.5858 1.5498 19.25 1.88559 19.25 2.2998V5.48076C17.466 3.49818 14.8789 2.25 12 2.25C6.61522 2.25 2.25 6.61522 2.25 12C2.25 17.3848 6.61522 21.75 12 21.75C17.3848 21.75 21.75 17.3848 21.75 12C21.75 11.5858 21.4142 11.25 21 11.25C20.5858 11.25 20.25 11.5858 20.25 12C20.25 16.5563 16.5563 20.25 12 20.25C7.44365 20.25 3.75 16.5563 3.75 12C3.75 7.44365 7.44365 3.75 12 3.75C14.4667 3.75 16.681 4.83214 18.1936 6.5498H15C14.5858 6.5498 14.25 6.88559 14.25 7.2998C14.25 7.71402 14.5858 8.0498 15 8.0498H20C20.4142 8.0498 20.75 7.71402 20.75 7.2998V2.2998Z" fill="black"/>
</svg>
