<svg width="16" height="16" viewBox="0 0 16 16" fill="none" xmlns="http://www.w3.org/2000/svg">
<path d="M14.0833 0.866699C14.0833 0.452486 13.7475 0.116699 13.3333 0.116699C12.9191 0.116699 12.5833 0.452486 12.5833 0.866699V3.04461C11.3802 1.93146 9.76917 1.25 8 1.25C4.27208 1.25 1.25 4.27208 1.25 8C1.25 11.7279 4.27208 14.75 8 14.75C11.7279 14.75 14.75 11.7279 14.75 8C14.75 7.58579 14.4142 7.25 14 7.25C13.5858 7.25 13.25 7.58579 13.25 8C13.25 10.8995 10.8995 13.25 8 13.25C5.10051 13.25 2.75 10.8995 2.75 8C2.75 5.1005 5.10051 2.75 8 2.75C9.36082 2.75 10.5999 3.26693 11.5331 4.1167H9.33333C8.91911 4.1167 8.58333 4.45249 8.58333 4.8667C8.58333 5.28091 8.91911 5.6167 9.33333 5.6167H13.3333C13.7475 5.6167 14.0833 5.28091 14.0833 4.8667V0.866699Z" fill="black"/>
</svg>
