<svg viewbox="0 0 16 16" width="16" height="16" fill="black" xmlns="http://www.w3.org/2000/svg">
 <g transform="translate(1.25, 0.11669921875)">
  <path d="M0.666656 0.75C0.666656 0.335786 1.00244 0 1.41666 0C1.83087 0 2.16666 0.335786 2.16666 0.75L2.16666 2.92793C3.36974 1.81477 4.98083 1.1333 6.75 1.1333C10.4779 1.1333 13.5 4.15538 13.5 7.8833C13.5 11.6112 10.4779 14.6333 6.75 14.6333C3.02208 14.6333 0 11.6112 0 7.8833C0 7.46909 0.335786 7.1333 0.75 7.1333C1.16421 7.1333 1.5 7.46909 1.5 7.8833C1.5 10.7828 3.8505 13.1333 6.75 13.1333C9.6495 13.1333 12 10.7828 12 7.8833C12 4.98381 9.6495 2.6333 6.75 2.6333C5.38918 2.6333 4.15014 3.15023 3.21687 4L5.41666 4C5.83087 4 6.16666 4.33579 6.16666 4.75C6.16666 5.16421 5.83087 5.5 5.41666 5.5L1.41666 5.5C1.00244 5.5 0.666656 5.16421 0.666656 4.75L0.666656 0.75Z" fill-rule="NONZERO"></path>
 </g>
</svg>