<svg width="16" height="16" viewBox="0 0 16 16" fill="none" xmlns="http://www.w3.org/2000/svg">
<path d="M1.91666 0.866699C1.91666 0.452486 2.25244 0.116699 2.66666 0.116699C3.08087 0.116699 3.41666 0.452486 3.41666 0.866699V3.04463C4.61974 1.93147 6.23083 1.25 8 1.25C11.7279 1.25 14.75 4.27208 14.75 8C14.75 11.7279 11.7279 14.75 8 14.75C4.27208 14.75 1.25 11.7279 1.25 8C1.25 7.58579 1.58579 7.25 2 7.25C2.41421 7.25 2.75 7.58579 2.75 8C2.75 10.8995 5.1005 13.25 8 13.25C10.8995 13.25 13.25 10.8995 13.25 8C13.25 5.1005 10.8995 2.75 8 2.75C6.63918 2.75 5.40014 3.26693 4.46687 4.1167H6.66666C7.08087 4.1167 7.41666 4.45249 7.41666 4.8667C7.41666 5.28091 7.08087 5.6167 6.66666 5.6167H2.66666C2.25244 5.6167 1.91666 5.28091 1.91666 4.8667V0.866699Z" fill="black"/>
</svg>
