<svg viewBox="0 0 24 24" width="24" height="24" fill="black" xmlns="http://www.w3.org/2000/svg">
 <g transform="translate(2.25, 1.5498046875)">
  <path d="M1 0.75C1 0.335786 1.33579 0 1.75 0C2.16421 0 2.5 0.335786 2.5 0.75L2.5 3.93095C4.28399 1.94837 6.87111 0.700195 9.75 0.700195C15.1348 0.700195 19.5 5.06542 19.5 10.4502C19.5 15.835 15.1348 20.2002 9.75 20.2002C4.36522 20.2002 0 15.835 0 10.4502C0 10.036 0.335787 9.7002 0.75 9.7002C1.16421 9.7002 1.5 10.036 1.5 10.4502C1.5 15.0065 5.19365 18.7002 9.75 18.7002C14.3063 18.7002 18 15.0065 18 10.4502C18 5.89385 14.3063 2.2002 9.75 2.2002C7.28326 2.2002 5.06903 3.28233 3.55642 5L6.75 5C7.16421 5 7.5 5.33579 7.5 5.75C7.5 6.16421 7.16421 6.5 6.75 6.5L1.75 6.5C1.33579 6.5 1 6.16421 1 5.75L1 0.75Z" fill-rule="NONZERO"></path>
 </g>
</svg>