<svg viewbox="0 0 16 16" width="16" height="16" fill="black" xmlns="http://www.w3.org/2000/svg">
 <g transform="translate(1.25, 0.11669921875)">
  <path d="M12.8333 0.75C12.8333 0.335786 12.4975 0 12.0833 0C11.6691 0 11.3333 0.335786 11.3333 0.75L11.3333 2.92791C10.1302 1.81476 8.51917 1.1333 6.75 1.1333C3.02208 1.1333 0 4.15538 0 7.8833C0 11.6112 3.02208 14.6333 6.75 14.6333C10.4779 14.6333 13.5 11.6112 13.5 7.8833C13.5 7.46909 13.1642 7.1333 12.75 7.1333C12.3358 7.1333 12 7.46909 12 7.8833C12 10.7828 9.6495 13.1333 6.75 13.1333C3.85051 13.1333 1.5 10.7828 1.5 7.8833C1.5 4.98381 3.85051 2.6333 6.75 2.6333C8.11082 2.6333 9.34986 3.15023 10.2831 4L8.08333 4C7.66911 4 7.33333 4.33579 7.33333 4.75C7.33333 5.16421 7.66911 5.5 8.08333 5.5L12.0833 5.5C12.4975 5.5 12.8333 5.16421 12.8333 4.75L12.8333 0.75Z" fill-rule="NONZERO"></path>
 </g>
</svg>