<svg viewbox="0 0 16 16" width="16" height="16" fill="black" xmlns="http://www.w3.org/2000/svg">
 <g transform="translate(0.25, 0.25)">
  <path d="M7.75 0C3.46979 0 0 3.46979 0 7.75C0 12.0302 3.46979 15.5 7.75 15.5C12.0302 15.5 15.5 12.0302 15.5 7.75C15.5 3.46979 12.0302 0 7.75 0ZM3.89266 2.832C4.95499 1.99761 6.29439 1.5 7.75 1.5C11.2018 1.5 14 4.29822 14 7.75C14 9.20561 13.5024 10.545 12.668 11.6073L3.89266 2.832ZM2.832 3.89266C1.99761 4.95499 1.5 6.29439 1.5 7.75C1.5 11.2018 4.29822 14 7.75 14C9.20561 14 10.545 13.5024 11.6073 12.668L2.832 3.89266Z" fill-rule="EVENODD"></path>
 </g>
</svg>