<svg width="16" height="16" viewBox="0 0 16 16" fill="none" xmlns="http://www.w3.org/2000/svg">
<path fill-rule="evenodd" clip-rule="evenodd" d="M8 0.25C3.71979 0.25 0.25 3.71979 0.25 8C0.25 12.2802 3.71979 15.75 8 15.75C12.2802 15.75 15.75 12.2802 15.75 8C15.75 3.71979 12.2802 0.25 8 0.25ZM4.14266 3.082C5.20499 2.24761 6.54439 1.75 8 1.75C11.4518 1.75 14.25 4.54822 14.25 8C14.25 9.45561 13.7524 10.795 12.918 11.8573L4.14266 3.082ZM3.082 4.14266C2.24761 5.20499 1.75 6.54439 1.75 8C1.75 11.4518 4.54822 14.25 8 14.25C9.45561 14.25 10.795 13.7524 11.8573 12.918L3.082 4.14266Z" fill="black"/>
</svg>
