<svg width="24" height="24" viewBox="0 0 24 24" fill="none" xmlns="http://www.w3.org/2000/svg">
<path fill-rule="evenodd" clip-rule="evenodd" d="M12 1.25C6.06294 1.25 1.25 6.06294 1.25 12C1.25 17.9371 6.06294 22.75 12 22.75C17.9371 22.75 22.75 17.9371 22.75 12C22.75 6.06294 17.9371 1.25 12 1.25ZM6.0109 4.95042C7.62466 3.57807 9.71563 2.75 12 2.75C17.1086 2.75 21.25 6.89137 21.25 12C21.25 14.2844 20.4219 16.3753 19.0496 17.9891L6.0109 4.95042ZM4.95025 6.01109C3.57801 7.62483 2.75 9.71572 2.75 12C2.75 17.1086 6.89137 21.25 12 21.25C14.2843 21.25 16.3752 20.422 17.9889 19.0497L4.95025 6.01109Z" fill="black"/>
</svg>
