<svg viewbox="0 0 16 16" width="16" height="16" fill="black" xmlns="http://www.w3.org/2000/svg">
 <g transform="translate(1.25, 1.25)">
  <path d="M0.610194 0.610194C1.0009 0.219493 1.5308 0 2.08333 0L9.41667 0C9.61558 0 9.80634 0.0790176 9.947 0.21967L13.2803 3.553C13.421 3.69366 13.5 3.88442 13.5 4.08333L13.5 11.4167C13.5 11.9692 13.2805 12.4991 12.8898 12.8898C12.4991 13.2805 11.9692 13.5 11.4167 13.5L2.08333 13.5C1.5308 13.5 1.00089 13.2805 0.610194 12.8898C0.219493 12.4991 0 11.9692 0 11.4167L0 2.08333C0 1.5308 0.219493 1.0009 0.610194 0.610194ZM2.08333 1.5C1.92862 1.5 1.78025 1.56146 1.67085 1.67085C1.56146 1.78025 1.5 1.92862 1.5 2.08333L1.5 11.4167C1.5 11.5714 1.56146 11.7197 1.67085 11.8291C1.78025 11.9385 1.92862 12 2.08333 12L3.04999 12L3.04999 7.7498C3.04999 7.36321 3.36339 7.0498 3.74999 7.0498L9.74999 7.0498C10.1366 7.0498 10.45 7.36321 10.45 7.7498L10.45 12L11.4167 12C11.5714 12 11.7197 11.9385 11.8291 11.8291C11.9385 11.7197 12 11.5714 12 11.4167L12 4.39399L9.10601 1.5L4.44999 1.5L4.44999 3.0498L7.74999 3.0498C8.13659 3.0498 8.44999 3.36321 8.44999 3.7498C8.44999 4.1364 8.13659 4.4498 7.74999 4.4498L3.74999 4.4498C3.36339 4.4498 3.04999 4.1364 3.04999 3.7498L3.04999 1.5L2.08333 1.5ZM9.04999 12L4.44999 12L4.44999 8.4498L9.04999 8.4498L9.04999 12Z" fill-rule="EVENODD"></path>
 </g>
</svg>