<svg width="16" height="16" viewBox="0 0 16 16" fill="none" xmlns="http://www.w3.org/2000/svg">
<path fill-rule="evenodd" clip-rule="evenodd" d="M1.86019 1.86019C2.2509 1.46949 2.7808 1.25 3.33333 1.25H10.6667C10.8656 1.25 11.0563 1.32902 11.197 1.46967L14.5303 4.803C14.671 4.94366 14.75 5.13442 14.75 5.33333V12.6667C14.75 13.2192 14.5305 13.7491 14.1398 14.1398C13.7491 14.5305 13.2192 14.75 12.6667 14.75H3.33333C2.7808 14.75 2.25089 14.5305 1.86019 14.1398C1.46949 13.7491 1.25 13.2192 1.25 12.6667V3.33333C1.25 2.7808 1.46949 2.2509 1.86019 1.86019ZM3.33333 2.75C3.17862 2.75 3.03025 2.81146 2.92085 2.92085C2.81146 3.03025 2.75 3.17862 2.75 3.33333V12.6667C2.75 12.8214 2.81146 12.9697 2.92085 13.0791C3.03025 13.1885 3.17862 13.25 3.33333 13.25H4.29999V8.9998C4.29999 8.61321 4.61339 8.2998 4.99999 8.2998H11C11.3866 8.2998 11.7 8.61321 11.7 8.9998V13.25H12.6667C12.8214 13.25 12.9697 13.1885 13.0791 13.0791C13.1885 12.9697 13.25 12.8214 13.25 12.6667V5.64399L10.356 2.75H5.69999V4.2998H8.99999C9.38659 4.2998 9.69999 4.61321 9.69999 4.9998C9.69999 5.3864 9.38659 5.6998 8.99999 5.6998H4.99999C4.61339 5.6998 4.29999 5.3864 4.29999 4.9998V2.75H3.33333ZM10.3 13.25H5.69999V9.6998H10.3V13.25Z" fill="black"/>
</svg>
