<svg width="24" height="24" viewBox="0 0 24 24" fill="none" xmlns="http://www.w3.org/2000/svg">
<path fill-rule="evenodd" clip-rule="evenodd" d="M9.12865 8.06812C9.52132 7.47528 9.75 6.76434 9.75 6C9.75 3.92893 8.07107 2.25 6 2.25C3.92893 2.25 2.25 3.92893 2.25 6C2.25 8.07107 3.92893 9.75 6 9.75C6.76428 9.75 7.47516 9.52136 8.06797 9.12875L10.9393 12.0001L8.06804 14.8713C7.47522 14.4787 6.76431 14.25 6 14.25C3.92893 14.25 2.25 15.9289 2.25 18C2.25 20.0711 3.92893 21.75 6 21.75C8.07107 21.75 9.75 20.0711 9.75 18C9.75 17.2357 9.52134 16.5248 9.1287 15.932L12.5223 12.5383C12.525 12.5357 12.5277 12.5331 12.5303 12.5304C12.533 12.5278 12.5356 12.5251 12.5382 12.5224L20.5303 4.53033C20.8232 4.23744 20.8232 3.76256 20.5303 3.46967C20.2374 3.17678 19.7626 3.17678 19.4697 3.46967L11.9999 10.9394L9.12865 8.06812ZM6 3.75C4.75736 3.75 3.75 4.75736 3.75 6C3.75 7.24264 4.75736 8.25 6 8.25C6.60505 8.25 7.15433 8.01118 7.55869 7.62265C7.56862 7.61146 7.57895 7.6005 7.58966 7.58979C7.60039 7.57906 7.61136 7.56873 7.62256 7.55878C8.01114 7.15441 8.25 6.6051 8.25 6C8.25 4.75736 7.24264 3.75 6 3.75ZM6 15.75C4.75736 15.75 3.75 16.7574 3.75 18C3.75 19.2426 4.75736 20.25 6 20.25C7.24264 20.25 8.25 19.2426 8.25 18C8.25 17.3953 8.01145 16.8463 7.62332 16.442C7.61186 16.4319 7.60063 16.4213 7.58966 16.4103C7.5787 16.3994 7.56814 16.3881 7.55799 16.3767C7.15369 15.9886 6.6047 15.75 6 15.75Z" fill="black"/>
<path d="M13.9392 13.9501C14.2318 13.657 14.7067 13.6565 14.9998 13.9492L20.5298 19.4692C20.823 19.7618 20.8234 20.2367 20.5308 20.5298C20.2382 20.823 19.7633 20.8234 19.4701 20.5308L13.9401 15.0108C13.647 14.7182 13.6465 14.2433 13.9392 13.9501Z" fill="black"/>
</svg>
