<svg viewbox="0 0 16 16" width="16" height="16" fill="black" xmlns="http://www.w3.org/2000/svg">
 <g transform="translate(1.25, 1.25)">
  <path d="M5.15143 4.09102C5.37345 3.6943 5.5 3.23693 5.5 2.75C5.5 1.23122 4.26878 0 2.75 0C1.23122 0 0 1.23122 0 2.75C0 4.26878 1.23122 5.5 2.75 5.5C3.2368 5.5 3.69406 5.37351 4.09071 5.15161L5.68913 6.75004L4.09075 8.34842C3.6941 8.1265 3.23682 8 2.75 8C1.23122 8 0 9.23122 0 10.75C0 12.2688 1.23122 13.5 2.75 13.5C4.26878 13.5 5.5 12.2688 5.5 10.75C5.5 10.2631 5.37346 9.80574 5.15146 9.40903L7.26532 7.29518C7.27037 7.29039 7.27538 7.28552 7.28033 7.28057C7.28528 7.27562 7.29015 7.27062 7.29493 7.26556L12.6137 1.94683C12.9066 1.65394 12.9066 1.17907 12.6137 0.886174C12.3208 0.593281 11.8459 0.593281 11.553 0.886174L6.74979 5.68938L5.15143 4.09102ZM2.75 1.5C2.05964 1.5 1.5 2.05964 1.5 2.75C1.5 3.44036 2.05964 4 2.75 4C3.08363 4 3.38673 3.86929 3.6109 3.65629C3.61807 3.64849 3.62544 3.64081 3.633 3.63324C3.64059 3.62565 3.64831 3.61825 3.65614 3.61105C3.86923 3.38688 4 3.08371 4 2.75C4 2.05964 3.44036 1.5 2.75 1.5ZM2.75 9.5C2.05964 9.5 1.5 10.0596 1.5 10.75C1.5 11.4404 2.05964 12 2.75 12C3.44036 12 4 11.4404 4 10.75C4 10.4166 3.86947 10.1137 3.65671 9.88955C3.64868 9.88218 3.64078 9.87461 3.633 9.86683C3.62524 9.85908 3.61769 9.85119 3.61035 9.84319C3.38624 9.63049 3.08336 9.5 2.75 9.5Z" fill-rule="EVENODD"></path>
  <path d="M7.86586 7.87347C8.15849 7.58031 8.63336 7.57988 8.92652 7.87251L12.6132 11.5525C12.9063 11.8451 12.9068 12.32 12.6141 12.6132C12.3215 12.9063 11.8466 12.9068 11.5535 12.6141L7.86682 8.93413C7.57366 8.6415 7.57323 8.16663 7.86586 7.87347Z" fill-rule="NONZERO"></path>
 </g>
</svg>