<svg width="16" height="16" viewBox="0 0 16 16" fill="none" xmlns="http://www.w3.org/2000/svg">
<path fill-rule="evenodd" clip-rule="evenodd" d="M6.40143 5.34102C6.62345 4.9443 6.75 4.48693 6.75 4C6.75 2.48122 5.51878 1.25 4 1.25C2.48122 1.25 1.25 2.48122 1.25 4C1.25 5.51878 2.48122 6.75 4 6.75C4.4868 6.75 4.94406 6.62351 5.34071 6.40161L6.93913 8.00004L5.34075 9.59842C4.9441 9.3765 4.48682 9.25 4 9.25C2.48122 9.25 1.25 10.4812 1.25 12C1.25 13.5188 2.48122 14.75 4 14.75C5.51878 14.75 6.75 13.5188 6.75 12C6.75 11.5131 6.62346 11.0557 6.40146 10.659L8.51532 8.54518C8.52037 8.54039 8.52538 8.53552 8.53033 8.53057C8.53528 8.52562 8.54015 8.52062 8.54493 8.51556L13.8637 3.19683C14.1566 2.90394 14.1566 2.42907 13.8637 2.13617C13.5708 1.84328 13.0959 1.84328 12.803 2.13617L7.99979 6.93938L6.40143 5.34102ZM4 2.75C3.30964 2.75 2.75 3.30964 2.75 4C2.75 4.69036 3.30964 5.25 4 5.25C4.33363 5.25 4.63673 5.11929 4.8609 4.90629C4.86807 4.89849 4.87544 4.89081 4.883 4.88324C4.89059 4.87565 4.89831 4.86825 4.90614 4.86105C5.11923 4.63688 5.25 4.33371 5.25 4C5.25 3.30964 4.69036 2.75 4 2.75ZM4 10.75C3.30964 10.75 2.75 11.3096 2.75 12C2.75 12.6904 3.30964 13.25 4 13.25C4.69036 13.25 5.25 12.6904 5.25 12C5.25 11.6666 5.11947 11.3637 4.90671 11.1395C4.89868 11.1322 4.89078 11.1246 4.883 11.1168C4.87524 11.1091 4.86769 11.1012 4.86035 11.0932C4.63624 10.8805 4.33336 10.75 4 10.75Z" fill="black"/>
<path d="M9.11586 9.12347C9.40849 8.83031 9.88336 8.82988 10.1765 9.12251L13.8632 12.8025C14.1563 13.0951 14.1568 13.57 13.8641 13.8632C13.5715 14.1563 13.0966 14.1568 12.8035 13.8641L9.11682 10.1841C8.82366 9.8915 8.82323 9.41663 9.11586 9.12347Z" fill="black"/>
</svg>
