<svg width="16" height="16" viewBox="0 0 16 16" fill="none" xmlns="http://www.w3.org/2000/svg">
<path fill-rule="evenodd" clip-rule="evenodd" d="M7 1.25C3.82436 1.25 1.25 3.82436 1.25 7C1.25 10.1756 3.82436 12.75 7 12.75C8.31745 12.75 9.53141 12.3069 10.501 11.5617L12.9697 14.0303C13.2626 14.3232 13.7374 14.3232 14.0303 14.0303C14.3232 13.7374 14.3232 13.2626 14.0303 12.9697L11.5617 10.501C12.3069 9.53141 12.75 8.31745 12.75 7C12.75 3.82436 10.1756 1.25 7 1.25ZM2.75 7C2.75 4.65279 4.65279 2.75 7 2.75C9.34721 2.75 11.25 4.65279 11.25 7C11.25 9.34721 9.34721 11.25 7 11.25C4.65279 11.25 2.75 9.34721 2.75 7Z" fill="black"/>
</svg>
