<svg width="16" height="16" viewBox="0 0 16 16" fill="none" xmlns="http://www.w3.org/2000/svg">
<path fill-rule="evenodd" clip-rule="evenodd" d="M15.3292 2.27566C15.6979 1.27502 14.7248 0.301939 13.7242 0.670596L1.62752 5.12726C0.685623 5.47427 0.516282 6.73391 1.3331 7.31735L5.58633 10.3554C5.60878 10.3714 5.62842 10.391 5.64445 10.4135L8.68247 14.6667C9.26591 15.4835 10.5255 15.3142 10.8726 14.3723L15.3292 2.27566ZM2.58948 6.37141L13.7345 2.26537L9.62841 13.4103L7.10799 9.88175L10.495 6.49478C10.7683 6.22141 10.7683 5.7782 10.495 5.50483C10.2216 5.23146 9.77838 5.23146 9.50501 5.50483L6.11804 8.89181L2.58948 6.37141Z" fill="black"/>
</svg>
