<svg viewBox="0 0 16 16" width="16" height="16" fill="black" xmlns="http://www.w3.org/2000/svg">
 <g transform="translate(0.300048828125, 0.7998046875)">
  <path d="M2.94995 3.2002C2.94995 2.78598 3.28574 2.4502 3.69995 2.4502L4.19995 2.4502C4.61416 2.4502 4.94995 2.78598 4.94995 3.2002C4.94995 3.61441 4.61416 3.9502 4.19995 3.9502L3.69995 3.9502C3.28574 3.9502 2.94995 3.61441 2.94995 3.2002Z" fill-rule="NONZERO"></path>
  <path d="M2.03333 0C0.910354 0 0 0.910354 0 2.03333L0 4.36667C0 5.48965 0.910354 6.4 2.03333 6.4L13.3667 6.4C14.4896 6.4 15.4 5.48965 15.4 4.36667L15.4 2.03333C15.4 0.910354 14.4896 0 13.3667 0L2.03333 0ZM1.4 2.03333C1.4 1.68355 1.68355 1.4 2.03333 1.4L13.3667 1.4C13.7164 1.4 14 1.68355 14 2.03333L14 4.36667C14 4.71645 13.7164 5 13.3667 5L2.03333 5C1.68355 5 1.4 4.71645 1.4 4.36667L1.4 2.03333Z" fill-rule="EVENODD"></path>
  <path d="M3.69995 10.4502C3.28574 10.4502 2.94995 10.786 2.94995 11.2002C2.94995 11.6144 3.28574 11.9502 3.69995 11.9502L4.19995 11.9502C4.61416 11.9502 4.94995 11.6144 4.94995 11.2002C4.94995 10.786 4.61416 10.4502 4.19995 10.4502L3.69995 10.4502Z" fill-rule="NONZERO"></path>
  <path d="M2.03333 8C0.910354 8 0 8.91035 0 10.0333L0 12.3667C0 13.4896 0.910354 14.4 2.03333 14.4L13.3667 14.4C14.4896 14.4 15.4 13.4896 15.4 12.3667L15.4 10.0333C15.4 8.91035 14.4896 8 13.3667 8L2.03333 8ZM1.4 10.0333C1.4 9.68355 1.68355 9.4 2.03333 9.4L13.3667 9.4C13.7164 9.4 14 9.68355 14 10.0333L14 12.3667C14 12.7164 13.7164 13 13.3667 13L2.03333 13C1.68355 13 1.4 12.7164 1.4 12.3667L1.4 10.0333Z" fill-rule="EVENODD"></path>
 </g>
</svg>