<svg width="16" height="16" viewBox="0 0 16 16" fill="none" xmlns="http://www.w3.org/2000/svg">
<path d="M4 11.25C3.58579 11.25 3.25 11.5858 3.25 12C3.25 12.4142 3.58579 12.75 4 12.75H4.5C4.91421 12.75 5.25 12.4142 5.25 12C5.25 11.5858 4.91421 11.25 4.5 11.25H4Z" fill="black"/>
<path fill-rule="evenodd" clip-rule="evenodd" d="M1.53033 0.46967C1.23744 0.176777 0.762563 0.176777 0.46967 0.46967C0.176777 0.762563 0.176777 1.23744 0.46967 1.53033L0.64267 1.70333C0.426487 2.02622 0.300003 2.41481 0.300003 2.83314V5.16647C0.300003 6.28945 1.21036 7.1998 2.33334 7.1998H6.13914L7.73914 8.7998H2.33334C1.21036 8.7998 0.300003 9.71016 0.300003 10.8331V13.1665C0.300003 14.2895 1.21036 15.1998 2.33334 15.1998H13.6667C13.813 15.1998 13.956 15.1843 14.094 15.1547L14.4697 15.5303C14.7626 15.8232 15.2374 15.8232 15.5303 15.5303C15.8232 15.2374 15.8232 14.7626 15.5303 14.4697L1.53033 0.46967ZM2.33334 10.1998H9.13914L12.7391 13.7998H2.33334C1.98356 13.7998 1.7 13.5163 1.7 13.1665V10.8331C1.7 10.4834 1.98356 10.1998 2.33334 10.1998ZM4.73914 5.7998L1.70368 2.76434C1.70125 2.78695 1.7 2.8099 1.7 2.83314V5.16647C1.7 5.51625 1.98356 5.7998 2.33334 5.7998H4.73914Z" fill="black"/>
<path d="M5.5 0.799805C5.1134 0.799805 4.8 1.11321 4.8 1.4998C4.8 1.8864 5.1134 2.1998 5.5 2.1998H13.6667C14.0164 2.1998 14.3 2.48336 14.3 2.83314V5.16647C14.3 5.51625 14.0164 5.7998 13.6667 5.7998H10.5C10.1134 5.7998 9.8 6.1132 9.8 6.4998C9.8 6.8864 10.1134 7.1998 10.5 7.1998H13.6667C14.7896 7.1998 15.7 6.28945 15.7 5.16647V2.83314C15.7 1.71016 14.7896 0.799805 13.6667 0.799805H5.5Z" fill="black"/>
<path d="M12.5 9.4998C12.5 9.1132 12.8134 8.7998 13.2 8.7998H13.6667C14.7896 8.7998 15.7 9.71016 15.7 10.8331V11.2998C15.7 11.6864 15.3866 11.9998 15 11.9998C14.6134 11.9998 14.3 11.6864 14.3 11.2998V10.8331C14.3 10.4834 14.0164 10.1998 13.6667 10.1998H13.2C12.8134 10.1998 12.5 9.8864 12.5 9.4998Z" fill="black"/>
</svg>
