<svg width="24" height="24" viewBox="0 0 24 24" fill="none" xmlns="http://www.w3.org/2000/svg">
<path d="M4.625 18C4.625 17.5168 5.01675 17.125 5.5 17.125H6C6.48325 17.125 6.875 17.5168 6.875 18C6.875 18.4832 6.48325 18.875 6 18.875H5.5C5.01675 18.875 4.625 18.4832 4.625 18Z" fill="black"/>
<path fill-rule="evenodd" clip-rule="evenodd" d="M1.53033 0.46967C1.23744 0.176777 0.762563 0.176777 0.46967 0.46967C0.176777 0.762563 0.176777 1.23744 0.46967 1.53033L1.59859 2.65925C1.37673 3.05601 1.25 3.51365 1.25 4V8C1.25 9.51878 2.48122 10.75 4 10.75H9.68934L12.1893 13.25H4C2.48122 13.25 1.25 14.4812 1.25 16V20C1.25 21.5188 2.48122 22.75 4 22.75H20C20.4866 22.75 20.9441 22.6232 21.3407 22.4014L22.4697 23.5303C22.7626 23.8232 23.2374 23.8232 23.5303 23.5303C23.8232 23.2374 23.8232 22.7626 23.5303 22.4697L1.53033 0.46967ZM20.177 21.2376L13.6893 14.75H4C3.30964 14.75 2.75 15.3096 2.75 16V20C2.75 20.6904 3.30964 21.25 4 21.25H20C20.0601 21.25 20.1192 21.2458 20.177 21.2376ZM8.18934 9.25L2.76236 3.82302C2.75421 3.88079 2.75 3.93987 2.75 4V8C2.75 8.69036 3.30964 9.25 4 9.25H8.18934Z" fill="black"/>
<path d="M6 1.25C5.58579 1.25 5.25 1.58579 5.25 2C5.25 2.41421 5.58579 2.75 6 2.75H20C20.6904 2.75 21.25 3.30964 21.25 4V8C21.25 8.69036 20.6904 9.25 20 9.25H14C13.5858 9.25 13.25 9.58579 13.25 10C13.25 10.4142 13.5858 10.75 14 10.75H20C21.5188 10.75 22.75 9.51878 22.75 8V4C22.75 2.48122 21.5188 1.25 20 1.25H6Z" fill="black"/>
<path d="M18 13.25C17.5858 13.25 17.25 13.5858 17.25 14C17.25 14.4142 17.5858 14.75 18 14.75H20C20.6904 14.75 21.25 15.3096 21.25 16V18C21.25 18.4142 21.5858 18.75 22 18.75C22.4142 18.75 22.75 18.4142 22.75 18V16C22.75 14.4812 21.5188 13.25 20 13.25H18Z" fill="black"/>
</svg>
