<svg viewbox="0 0 24 24" width="24" height="24" fill="black" xmlns="http://www.w3.org/2000/svg">
 <g transform="translate(1.25, 1.25)">
  <path d="M4.25 3.875C3.76675 3.875 3.375 4.26675 3.375 4.75C3.375 5.23325 3.76675 5.625 4.25 5.625L4.75 5.625C5.23325 5.625 5.625 5.23325 5.625 4.75C5.625 4.26675 5.23325 3.875 4.75 3.875L4.25 3.875Z" fill-rule="NONZERO"></path>
  <path d="M2.75 0C1.23122 0 0 1.23122 0 2.75L0 6.75C0 8.26878 1.23122 9.5 2.75 9.5L18.75 9.5C20.2688 9.5 21.5 8.26878 21.5 6.75L21.5 2.75C21.5 1.23122 20.2688 0 18.75 0L2.75 0ZM1.5 2.75C1.5 2.05964 2.05964 1.5 2.75 1.5L18.75 1.5C19.4404 1.5 20 2.05964 20 2.75L20 6.75C20 7.44036 19.4404 8 18.75 8L2.75 8C2.05964 8 1.5 7.44036 1.5 6.75L1.5 2.75Z" fill-rule="EVENODD"></path>
  <path d="M4.25 15.875C3.76675 15.875 3.375 16.2668 3.375 16.75C3.375 17.2332 3.76675 17.625 4.25 17.625L4.75 17.625C5.23325 17.625 5.625 17.2332 5.625 16.75C5.625 16.2668 5.23325 15.875 4.75 15.875L4.25 15.875Z" fill-rule="NONZERO"></path>
  <path d="M0 14.75C0 13.2312 1.23122 12 2.75 12L18.75 12C20.2688 12 21.5 13.2312 21.5 14.75L21.5 18.75C21.5 20.2688 20.2688 21.5 18.75 21.5L2.75 21.5C1.23122 21.5 0 20.2688 0 18.75L0 14.75ZM2.75 13.5C2.05964 13.5 1.5 14.0596 1.5 14.75L1.5 18.75C1.5 19.4404 2.05964 20 2.75 20L18.75 20C19.4404 20 20 19.4404 20 18.75L20 14.75C20 14.0596 19.4404 13.5 18.75 13.5L2.75 13.5Z" fill-rule="EVENODD"></path>
 </g>
</svg>