<svg width="24" height="24" viewBox="0 0 24 24" fill="none" xmlns="http://www.w3.org/2000/svg">
<path d="M8.5 11.125C8.01675 11.125 7.625 11.5168 7.625 12C7.625 12.4832 8.01675 12.875 8.5 12.875H9C9.48325 12.875 9.875 12.4832 9.875 12C9.875 11.5168 9.48325 11.125 9 11.125H8.5Z" fill="black"/>
<path fill-rule="evenodd" clip-rule="evenodd" d="M9.25 3C9.25 1.48122 10.4812 0.25 12 0.25C13.5188 0.25 14.75 1.48122 14.75 3C14.75 4.12382 14.0759 5.09019 13.1099 5.51681L13.6224 8.25H15.6488L17.8073 5.65989C17.4575 5.19859 17.25 4.62353 17.25 4C17.25 2.48122 18.4812 1.25 20 1.25C21.5188 1.25 22.75 2.48122 22.75 4C22.75 5.51878 21.5188 6.75 20 6.75C19.6494 6.75 19.3141 6.68439 19.0058 6.56477L17.5547 8.30598C18.8076 8.56261 19.75 9.67125 19.75 11V13C19.75 14.4191 18.6751 15.5871 17.2951 15.7343L18.9988 17.438C19.309 17.3166 19.6467 17.25 20 17.25C21.5188 17.25 22.75 18.4812 22.75 20C22.75 21.5188 21.5188 22.75 20 22.75C18.4812 22.75 17.25 21.5188 17.25 20C17.25 19.3836 17.4528 18.8145 17.7954 18.3559L15.1895 15.75H11.9037L12.3773 18.2757C13.7176 18.4596 14.75 19.6092 14.75 21C14.75 22.5188 13.5188 23.75 12 23.75C10.4812 23.75 9.25 22.5188 9.25 21C9.25 19.8762 9.92412 18.9098 10.8901 18.4832L10.3776 15.75H7.8749L6.05663 18.1744C6.488 18.66 6.75 19.2994 6.75 20C6.75 21.5188 5.51878 22.75 4 22.75C2.48122 22.75 1.25 21.5188 1.25 20C1.25 18.4812 2.48122 17.25 4 17.25C4.27415 17.25 4.53894 17.2901 4.7888 17.3648L6.11024 15.6029C5.02812 15.2331 4.25 14.2074 4.25 13V11C4.25 9.67125 5.19239 8.5626 6.44526 8.30598L4.99425 6.56477C4.6859 6.68439 4.35061 6.75 4 6.75C2.48122 6.75 1.25 5.51878 1.25 4C1.25 2.48122 2.48122 1.25 4 1.25C5.51878 1.25 6.75 2.48122 6.75 4C6.75 4.62353 6.54248 5.19859 6.19274 5.65988L8.35117 8.25H12.0963L11.6227 5.72433C10.2824 5.54045 9.25 4.39079 9.25 3ZM12 1.75C11.3096 1.75 10.75 2.30964 10.75 3C10.75 3.69036 11.3096 4.25 12 4.25C12.6904 4.25 13.25 3.69036 13.25 3C13.25 2.30964 12.6904 1.75 12 1.75ZM4 2.75C3.30964 2.75 2.75 3.30964 2.75 4C2.75 4.69036 3.30964 5.25 4 5.25C4.69036 5.25 5.25 4.69036 5.25 4C5.25 3.30964 4.69036 2.75 4 2.75ZM11.0143 14.25L11 14.2499H7.5L7.48573 14.25H7C6.30964 14.25 5.75 13.6904 5.75 13V11C5.75 10.3096 6.30964 9.75 7 9.75H7.98516C7.99532 9.75021 8.00548 9.75021 8.01565 9.75H12.9857L13 9.75014H16L16.0143 9.75H17C17.6904 9.75 18.25 10.3096 18.25 11V13C18.25 13.6904 17.6904 14.25 17 14.25H15.5143C15.5048 14.2498 15.4952 14.2498 15.4857 14.25H11.0143ZM2.75 20C2.75 19.3096 3.30964 18.75 4 18.75C4.69036 18.75 5.25 19.3096 5.25 20C5.25 20.6904 4.69036 21.25 4 21.25C3.30964 21.25 2.75 20.6904 2.75 20ZM12 19.75C11.3096 19.75 10.75 20.3096 10.75 21C10.75 21.6904 11.3096 22.25 12 22.25C12.6904 22.25 13.25 21.6904 13.25 21C13.25 20.3096 12.6904 19.75 12 19.75ZM18.75 20C18.75 19.3096 19.3096 18.75 20 18.75C20.6904 18.75 21.25 19.3096 21.25 20C21.25 20.6904 20.6904 21.25 20 21.25C19.3096 21.25 18.75 20.6904 18.75 20ZM18.75 4C18.75 3.30964 19.3096 2.75 20 2.75C20.6904 2.75 21.25 3.30964 21.25 4C21.25 4.69036 20.6904 5.25 20 5.25C19.3096 5.25 18.75 4.69036 18.75 4Z" fill="black"/>
</svg>
