<svg width="24" height="24" viewBox="0 0 24 24" fill="none" xmlns="http://www.w3.org/2000/svg">
<path fill-rule="evenodd" clip-rule="evenodd" d="M12 8.25C9.92893 8.25 8.25 9.92893 8.25 12C8.25 14.0711 9.92893 15.75 12 15.75C14.0711 15.75 15.75 14.0711 15.75 12C15.75 9.92893 14.0711 8.25 12 8.25ZM9.75 12C9.75 10.7574 10.7574 9.75 12 9.75C13.2426 9.75 14.25 10.7574 14.25 12C14.25 13.2426 13.2426 14.25 12 14.25C10.7574 14.25 9.75 13.2426 9.75 12Z" fill="black"/>
<path fill-rule="evenodd" clip-rule="evenodd" d="M11.5 1.25C10.2574 1.25 9.25 2.25736 9.25 3.5V3.69109C8.8466 3.82454 8.45626 3.98651 8.08137 4.17457L7.94301 4.03622C7.06433 3.15754 5.63971 3.15754 4.76103 4.03622L4.03596 4.76129C3.15728 5.63997 3.15728 7.0646 4.03596 7.94327L4.17439 8.08171C3.9864 8.4565 3.8245 8.84673 3.69109 9.25H3.5C2.25736 9.25 1.25 10.2574 1.25 11.5V12.5C1.25 13.7426 2.25736 14.75 3.5 14.75H3.69109C3.8243 15.1527 3.98593 15.5423 4.17356 15.9166L4.03458 16.0556C3.1559 16.9343 3.1559 18.3589 4.03458 19.2376L4.76244 19.9654C5.64112 20.8441 7.06574 20.8441 7.94442 19.9654L8.0834 19.8265C8.45767 20.0141 8.84733 20.1757 9.25 20.3089V20.5C9.25 21.7426 10.2574 22.75 11.5 22.75H12.5C13.7426 22.75 14.75 21.7426 14.75 20.5V20.3089C15.1533 20.1755 15.5435 20.0136 15.9183 19.8256L16.0568 19.9641C16.9354 20.8428 18.3601 20.8428 19.2388 19.9641L19.9638 19.239C20.8425 18.3603 20.8425 16.9357 19.9638 16.057L19.8254 15.9186C20.0135 15.5437 20.1755 15.1534 20.3089 14.75H20.5C21.7426 14.75 22.75 13.7426 22.75 12.5V11.5C22.75 10.2574 21.7426 9.25 20.5 9.25H20.3089C20.1757 8.84733 20.0141 8.45767 19.8265 8.0834L19.9652 7.94462C20.8439 7.06594 20.8439 5.64132 19.9652 4.76264L19.2374 4.03478C18.3587 3.1561 16.9341 3.1561 16.0554 4.03478L15.9166 4.17356C15.5423 3.98593 15.1527 3.8243 14.75 3.69109V3.5C14.75 2.25736 13.7426 1.25 12.5 1.25H11.5ZM10.75 3.5C10.75 3.08579 11.0858 2.75 11.5 2.75H12.5C12.9142 2.75 13.25 3.08579 13.25 3.5V4.25203C13.25 4.59425 13.4816 4.89306 13.8131 4.97836C14.4731 5.14825 15.097 5.40888 15.6706 5.74637C15.9651 5.91966 16.3396 5.87193 16.5812 5.63028L17.1161 5.09544C17.409 4.80255 17.8838 4.80255 18.1767 5.09544L18.9046 5.8233C19.1975 6.11619 19.1975 6.59106 18.9046 6.88396L18.3697 7.4188C18.1281 7.66045 18.0803 8.0349 18.2536 8.32945C18.5911 8.90306 18.8518 9.52689 19.0216 10.1869C19.1069 10.5184 19.4058 10.75 19.748 10.75H20.5C20.9142 10.75 21.25 11.0858 21.25 11.5V12.5C21.25 12.9142 20.9142 13.25 20.5 13.25H19.748C19.4058 13.25 19.1069 13.4816 19.0216 13.8131C18.8516 14.4738 18.5906 15.0982 18.2526 15.6723C18.0792 15.9669 18.1269 16.3414 18.3686 16.5831L18.9032 17.1177C19.1961 17.4106 19.1961 17.8855 18.9032 18.1784L18.1781 18.9034C17.8852 19.1963 17.4103 19.1963 17.1174 18.9034L16.5828 18.3688C16.3411 18.1271 15.9666 18.0794 15.672 18.2528C15.098 18.5907 14.4737 18.8516 13.8131 19.0216C13.4816 19.1069 13.25 19.4058 13.25 19.748V20.5C13.25 20.9142 12.9142 21.25 12.5 21.25H11.5C11.0858 21.25 10.75 20.9142 10.75 20.5V19.748C10.75 19.4058 10.5184 19.1069 10.1869 19.0216C9.52689 18.8518 8.90306 18.5911 8.32945 18.2536C8.0349 18.0803 7.66045 18.1281 7.4188 18.3697L6.88376 18.9048C6.59087 19.1977 6.11599 19.1977 5.8231 18.9048L5.09524 18.1769C4.80235 17.884 4.80235 17.4091 5.09524 17.1163L5.63028 16.5812C5.87193 16.3396 5.91966 15.9651 5.74637 15.6706C5.40888 15.097 5.14825 14.4731 4.97836 13.8131C4.89306 13.4816 4.59425 13.25 4.25203 13.25H3.5C3.08579 13.25 2.75 12.9142 2.75 12.5V11.5C2.75 11.0858 3.08579 10.75 3.5 10.75H4.25203C4.59425 10.75 4.89306 10.5184 4.97836 10.1869C5.14839 9.52633 5.40931 8.90201 5.74721 8.328C5.9206 8.03344 5.8729 7.6589 5.6312 7.4172L5.09662 6.88261C4.80372 6.58972 4.80372 6.11485 5.09662 5.82195L5.82169 5.09688C6.11459 4.80398 6.58946 4.80398 6.88235 5.09688L7.41687 5.6314C7.65858 5.8731 8.03314 5.9208 8.3277 5.74738C8.90179 5.4094 9.52622 5.14842 10.1869 4.97836C10.5184 4.89306 10.75 4.59425 10.75 4.25203V3.5Z" fill="black"/>
</svg>
