<svg viewbox="0 0 24 24" width="24" height="24" fill="black" xmlns="http://www.w3.org/2000/svg">
 <g transform="translate(1.25, 1.25)">
  <path d="M10.75 7C8.67893 7 7 8.67893 7 10.75C7 12.8211 8.67893 14.5 10.75 14.5C12.8211 14.5 14.5 12.8211 14.5 10.75C14.5 8.67893 12.8211 7 10.75 7ZM8.5 10.75C8.5 9.50736 9.50736 8.5 10.75 8.5C11.9926 8.5 13 9.50736 13 10.75C13 11.9926 11.9926 13 10.75 13C9.50736 13 8.5 11.9926 8.5 10.75Z" fill-rule="EVENODD"></path>
  <path d="M10.25 0C9.00736 0 8 1.00736 8 2.25L8 2.44109C7.5966 2.57454 7.20626 2.73651 6.83137 2.92457L6.69301 2.78622C5.81433 1.90754 4.38971 1.90754 3.51103 2.78622L2.78596 3.51129C1.90728 4.38997 1.90728 5.8146 2.78596 6.69327L2.92439 6.83171C2.7364 7.2065 2.5745 7.59673 2.44109 8L2.25 8C1.00736 8 0 9.00736 0 10.25L0 11.25C0 12.4926 1.00736 13.5 2.25 13.5L2.44109 13.5C2.5743 13.9027 2.73593 14.2923 2.92356 14.6666L2.78458 14.8056C1.9059 15.6843 1.9059 17.1089 2.78458 17.9876L3.51244 18.7154C4.39112 19.5941 5.81574 19.5941 6.69442 18.7154L6.8334 18.5765C7.20767 18.7641 7.59733 18.9257 8 19.0589L8 19.25C8 20.4926 9.00736 21.5 10.25 21.5L11.25 21.5C12.4926 21.5 13.5 20.4926 13.5 19.25L13.5 19.0589C13.9033 18.9255 14.2935 18.7636 14.6683 18.5756L14.8068 18.7141C15.6854 19.5928 17.1101 19.5928 17.9888 18.7141L18.7138 17.989C19.5925 17.1103 19.5925 15.6857 18.7138 14.807L18.5754 14.6686C18.7635 14.2937 18.9255 13.9034 19.0589 13.5L19.25 13.5C20.4926 13.5 21.5 12.4926 21.5 11.25L21.5 10.25C21.5 9.00736 20.4926 8 19.25 8L19.0589 8C18.9257 7.59733 18.7641 7.20767 18.5765 6.8334L18.7152 6.69462C19.5939 5.81594 19.5939 4.39132 18.7152 3.51264L17.9874 2.78478C17.1087 1.9061 15.6841 1.9061 14.8054 2.78478L14.6666 2.92356C14.2923 2.73593 13.9027 2.5743 13.5 2.44109L13.5 2.25C13.5 1.00736 12.4926 0 11.25 0L10.25 0ZM9.5 2.25C9.5 1.83579 9.83579 1.5 10.25 1.5L11.25 1.5C11.6642 1.5 12 1.83579 12 2.25L12 3.00203C12 3.34425 12.2316 3.64306 12.5631 3.72836C13.2231 3.89825 13.847 4.15888 14.4206 4.49637C14.7151 4.66966 15.0896 4.62193 15.3312 4.38028L15.8661 3.84544C16.159 3.55255 16.6338 3.55255 16.9267 3.84544L17.6546 4.5733C17.9475 4.86619 17.9475 5.34106 17.6546 5.63396L17.1197 6.1688C16.8781 6.41045 16.8303 6.7849 17.0036 7.07945C17.3411 7.65306 17.6018 8.27689 17.7716 8.93694C17.8569 9.26835 18.1558 9.5 18.498 9.5L19.25 9.5C19.6642 9.5 20 9.83579 20 10.25L20 11.25C20 11.6642 19.6642 12 19.25 12L18.498 12C18.1558 12 17.8569 12.2316 17.7716 12.5631C17.6016 13.2238 17.3406 13.8482 17.0026 14.4223C16.8292 14.7169 16.8769 15.0914 17.1186 15.3331L17.6532 15.8677C17.9461 16.1606 17.9461 16.6355 17.6532 16.9284L16.9281 17.6534C16.6352 17.9463 16.1603 17.9463 15.8674 17.6534L15.3328 17.1188C15.0911 16.8771 14.7166 16.8294 14.422 17.0028C13.848 17.3407 13.2237 17.6016 12.5631 17.7716C12.2316 17.8569 12 18.1558 12 18.498L12 19.25C12 19.6642 11.6642 20 11.25 20L10.25 20C9.83579 20 9.5 19.6642 9.5 19.25L9.5 18.498C9.5 18.1558 9.26836 17.8569 8.93694 17.7716C8.27689 17.6018 7.65306 17.3411 7.07945 17.0036C6.7849 16.8303 6.41045 16.8781 6.1688 17.1197L5.63376 17.6548C5.34087 17.9477 4.86599 17.9477 4.5731 17.6548L3.84524 16.9269C3.55235 16.634 3.55235 16.1591 3.84524 15.8663L4.38028 15.3312C4.62193 15.0896 4.66966 14.7151 4.49637 14.4206C4.15888 13.847 3.89825 13.2231 3.72836 12.5631C3.64306 12.2316 3.34425 12 3.00203 12L2.25 12C1.83579 12 1.5 11.6642 1.5 11.25L1.5 10.25C1.5 9.83579 1.83579 9.5 2.25 9.5L3.00203 9.5C3.34425 9.5 3.64306 9.26836 3.72836 8.93694C3.89839 8.27633 4.15931 7.65201 4.49721 7.078C4.6706 6.78344 4.6229 6.4089 4.3812 6.1672L3.84662 5.63261C3.55372 5.33972 3.55372 4.86485 3.84662 4.57195L4.57169 3.84688C4.86459 3.55398 5.33946 3.55398 5.63235 3.84688L6.16687 4.3814C6.40858 4.6231 6.78314 4.6708 7.0777 4.49738C7.65179 4.1594 8.27622 3.89842 8.93694 3.72836C9.26836 3.64306 9.5 3.34425 9.5 3.00203L9.5 2.25Z" fill-rule="EVENODD"></path>
 </g>
</svg>