<svg width="16" height="16" viewBox="0 0 16 16" fill="none" xmlns="http://www.w3.org/2000/svg">
<path fill-rule="evenodd" clip-rule="evenodd" d="M10.0922 5.31407C10.5866 5.79051 11.2591 6.0835 12 6.0835C13.5188 6.0835 14.75 4.85228 14.75 3.3335C14.75 1.81471 13.5188 0.583496 12 0.583496C10.4812 0.583496 9.25 1.81471 9.25 3.3335C9.25 3.57003 9.27986 3.79958 9.33602 4.0186L5.9077 6.01929C5.41323 5.54294 4.74082 5.25 4 5.25C2.48122 5.25 1.25 6.48122 1.25 8C1.25 9.51878 2.48122 10.75 4 10.75C4.74105 10.75 5.41364 10.4569 5.90816 9.98027L9.33683 11.9782C9.28015 12.1982 9.25 12.4288 9.25 12.6665C9.25 14.1853 10.4812 15.4165 12 15.4165C13.5188 15.4165 14.75 14.1853 14.75 12.6665C14.75 11.1477 13.5188 9.9165 12 9.9165C11.2603 9.9165 10.5888 10.2086 10.0945 10.6837L6.66409 8.68467C6.72018 8.46578 6.75 8.23637 6.75 8C6.75 7.7634 6.72012 7.53378 6.66393 7.31471L10.0922 5.31407ZM12 2.0835C11.3096 2.0835 10.75 2.64314 10.75 3.3335C10.75 3.5489 10.8045 3.75157 10.9004 3.92849C10.9076 3.9394 10.9145 3.95055 10.9211 3.96194C10.9277 3.97331 10.934 3.98477 10.94 3.99633C11.161 4.34899 11.5531 4.5835 12 4.5835C12.6904 4.5835 13.25 4.02385 13.25 3.3335C13.25 2.64314 12.6904 2.0835 12 2.0835ZM5.06089 7.33861C5.0666 7.3496 5.07261 7.36051 5.07892 7.37132C5.08527 7.3822 5.09185 7.39286 5.09866 7.4033C5.19517 7.58062 5.25 7.78391 5.25 8C5.25 8.21553 5.19545 8.41832 5.09941 8.59531C5.09225 8.60626 5.08534 8.61743 5.07868 8.62886C5.0722 8.63998 5.06604 8.6512 5.06019 8.66251C4.83923 9.01535 4.44702 9.25 4 9.25C3.30964 9.25 2.75 8.69036 2.75 8C2.75 7.30964 3.30964 6.75 4 6.75C4.44749 6.75 4.84006 6.98514 5.06089 7.33861ZM10.75 12.6665C10.75 12.4658 10.7973 12.2762 10.8813 12.1082C10.898 12.0858 10.9136 12.0621 10.928 12.0374C10.9418 12.0138 10.9541 11.9897 10.965 11.9653C11.1899 11.6341 11.5695 11.4165 12 11.4165C12.6904 11.4165 13.25 11.9761 13.25 12.6665C13.25 13.3569 12.6904 13.9165 12 13.9165C11.3096 13.9165 10.75 13.3569 10.75 12.6665Z" fill="black"/>
</svg>
