<svg width="24" height="24" viewBox="0 0 24 24" fill="none" xmlns="http://www.w3.org/2000/svg">
<path d="M12.2871 1.30691C12.3755 1.34351 12.4584 1.39776 12.5303 1.46967L16.5303 5.46967C16.8232 5.76256 16.8232 6.23744 16.5303 6.53033C16.2374 6.82322 15.7626 6.82322 15.4697 6.53033L12.75 3.81066V15C12.75 15.4142 12.4142 15.75 12 15.75C11.5858 15.75 11.25 15.4142 11.25 15V3.81066L8.53033 6.53033C8.23744 6.82322 7.76256 6.82322 7.46967 6.53033C7.17678 6.23744 7.17678 5.76256 7.46967 5.46967L11.4697 1.46967C11.6161 1.32322 11.8081 1.25 12 1.25C12.1017 1.25 12.1987 1.27024 12.2871 1.30691Z" fill="black"/>
<path d="M4 11.25C4.41421 11.25 4.75 11.5858 4.75 12V20C4.75 20.3315 4.8817 20.6495 5.11612 20.8839C5.35054 21.1183 5.66848 21.25 6 21.25H18C18.3315 21.25 18.6495 21.1183 18.8839 20.8839C19.1183 20.6495 19.25 20.3315 19.25 20V12C19.25 11.5858 19.5858 11.25 20 11.25C20.4142 11.25 20.75 11.5858 20.75 12V20C20.75 20.7293 20.4603 21.4288 19.9445 21.9445C19.4288 22.4603 18.7293 22.75 18 22.75H6C5.27065 22.75 4.57118 22.4603 4.05546 21.9445C3.53973 21.4288 3.25 20.7293 3.25 20V12C3.25 11.5858 3.58579 11.25 4 11.25Z" fill="black"/>
</svg>
