<svg width="16" height="16" viewBox="0 0 16 16" fill="none" xmlns="http://www.w3.org/2000/svg">
<path d="M8.28709 1.30691C8.37555 1.34351 8.45842 1.39776 8.53033 1.46967L11.5303 4.46967C11.8232 4.76256 11.8232 5.23744 11.5303 5.53033C11.2374 5.82322 10.7626 5.82322 10.4697 5.53033L8.75 3.81066V10C8.75 10.4142 8.41421 10.75 8 10.75C7.58579 10.75 7.25 10.4142 7.25 10V3.81066L5.53033 5.53033C5.23744 5.82322 4.76256 5.82322 4.46967 5.53033C4.17678 5.23744 4.17678 4.76256 4.46967 4.46967L7.46922 1.47012" fill="black"/>
<path d="M8.28709 1.30691C8.19866 1.27024 8.10169 1.25 8 1.25C7.79538 1.25 7.60991 1.33194 7.47459 1.4648" fill="black"/>
<path d="M3 7.25C3.41421 7.25 3.75 7.58579 3.75 8V12.6667C3.75 12.8214 3.81146 12.9697 3.92085 13.0791C4.03025 13.1885 4.17862 13.25 4.33333 13.25H11.6667C11.8214 13.25 11.9697 13.1885 12.0791 13.0791C12.1885 12.9697 12.25 12.8214 12.25 12.6667V8C12.25 7.58579 12.5858 7.25 13 7.25C13.4142 7.25 13.75 7.58579 13.75 8V12.6667C13.75 13.2192 13.5305 13.7491 13.1398 14.1398C12.7491 14.5305 12.2192 14.75 11.6667 14.75H4.33333C3.7808 14.75 3.25089 14.5305 2.86019 14.1398C2.46949 13.7491 2.25 13.2192 2.25 12.6667V8C2.25 7.58579 2.58579 7.25 3 7.25Z" fill="black"/>
</svg>
