<svg width="24" height="24" viewBox="0 0 24 24" fill="none" xmlns="http://www.w3.org/2000/svg">
<path fill-rule="evenodd" clip-rule="evenodd" d="M15.2037 7.49868C15.8904 8.26663 16.8887 8.75 18 8.75C20.0711 8.75 21.75 7.07107 21.75 5C21.75 2.92893 20.0711 1.25 18 1.25C15.9289 1.25 14.25 2.92893 14.25 5C14.25 5.42092 14.3194 5.82565 14.4472 6.20337L8.7962 9.5012C8.10952 8.73331 7.1112 8.25 6 8.25C3.92893 8.25 2.25 9.92893 2.25 12C2.25 14.0711 3.92893 15.75 6 15.75C7.11143 15.75 8.10993 15.2665 8.79663 14.4983L14.4488 17.792C14.3199 18.171 14.25 18.5774 14.25 19C14.25 21.0711 15.9289 22.75 18 22.75C20.0711 22.75 21.75 21.0711 21.75 19C21.75 16.9289 20.0711 15.25 18 15.25C16.8905 15.25 15.8935 15.7318 15.207 16.4977L9.5529 13.2029C9.6807 12.8253 9.75 12.4208 9.75 12C9.75 11.579 9.68063 11.1742 9.5527 10.7965L15.2037 7.49868ZM18 2.75C16.7574 2.75 15.75 3.75736 15.75 5C15.75 5.39438 15.8515 5.76506 16.0297 6.08736C16.0395 6.10176 16.0489 6.1166 16.0578 6.13187C16.0666 6.14702 16.0749 6.16236 16.0826 6.17786C16.4786 6.82113 17.1892 7.25 18 7.25C19.2426 7.25 20.25 6.24264 20.25 5C20.25 3.75736 19.2426 2.75 18 2.75ZM7.91829 10.8235C7.92574 10.8385 7.93372 10.8533 7.94226 10.8679C7.95088 10.8827 7.95992 10.897 7.96937 10.911C8.14819 11.2337 8.25 11.6049 8.25 12C8.25 12.3945 8.14845 12.7654 7.97005 13.0878C7.96027 13.1022 7.95092 13.117 7.94202 13.1323C7.93335 13.1472 7.92525 13.1622 7.91772 13.1774C7.52178 13.8209 6.811 14.25 6 14.25C4.75736 14.25 3.75 13.2426 3.75 12C3.75 10.7574 4.75736 9.75 6 9.75C6.81139 9.75 7.52247 10.1795 7.91829 10.8235ZM15.75 19C15.75 18.6252 15.8416 18.2718 16.0038 17.961C16.0272 17.9319 16.0487 17.9007 16.068 17.8675C16.0867 17.8355 16.1027 17.8026 16.1162 17.7692C16.518 17.1554 17.2117 16.75 18 16.75C19.2426 16.75 20.25 17.7574 20.25 19C20.25 20.2426 19.2426 21.25 18 21.25C16.7574 21.25 15.75 20.2426 15.75 19Z" fill="black"/>
</svg>
