<svg width="16" height="16" viewBox="0 0 16 16" fill="none" xmlns="http://www.w3.org/2000/svg">
<path fill-rule="evenodd" clip-rule="evenodd" d="M7.75224 0.292106C7.91264 0.235965 8.08736 0.235965 8.24776 0.292106L14.2478 2.39211C14.5486 2.49739 14.75 2.78129 14.75 3.1V8C14.75 10.4568 13.0116 12.4005 11.4744 13.6559C10.6857 14.3 9.90102 14.8031 9.3154 15.1447C9.02175 15.316 8.77603 15.4479 8.60208 15.5378C8.51505 15.5828 8.44583 15.6173 8.39739 15.641C8.37317 15.6529 8.35413 15.6621 8.34064 15.6685L8.3246 15.6761L8.31979 15.6784L8.3182 15.6792L8.31761 15.6794C8.31738 15.6795 8.31716 15.6796 8 15C7.68284 15.6796 7.68262 15.6795 7.68239 15.6794L7.6818 15.6792L7.68021 15.6784L7.6754 15.6761L7.65936 15.6685C7.64587 15.6621 7.62683 15.6529 7.60261 15.641C7.55417 15.6173 7.48495 15.5828 7.39792 15.5378C7.22397 15.4479 6.97825 15.316 6.6846 15.1447C6.09898 14.8031 5.31428 14.3 4.5256 13.6559C2.98841 12.4005 1.25 10.4568 1.25 8V3.1C1.25 2.78129 1.45142 2.49739 1.75224 2.39211L7.75224 0.292106ZM8 15L7.68284 15.6796C7.88387 15.7735 8.11613 15.7735 8.31716 15.6796L8 15ZM8 14.16C8.14658 14.0828 8.33745 13.9786 8.5596 13.849C9.09898 13.5344 9.81428 13.075 10.5256 12.4941C11.9884 11.2995 13.25 9.74324 13.25 8V3.63211L8 1.79461L2.75 3.63211V8C2.75 9.74324 4.01159 11.2995 5.4744 12.4941C6.18572 13.075 6.90102 13.5344 7.4404 13.849C7.66255 13.9786 7.85341 14.0828 8 14.16Z" fill="black"/>
<path fill-rule="evenodd" clip-rule="evenodd" d="M10.5303 4.96967C10.8232 5.26256 10.8232 5.73744 10.5303 6.03033L6.53033 10.0303C6.23744 10.3232 5.76256 10.3232 5.46967 10.0303C5.17678 9.73744 5.17678 9.26256 5.46967 8.96967L9.46967 4.96967C9.76256 4.67678 10.2374 4.67678 10.5303 4.96967Z" fill="black"/>
<path fill-rule="evenodd" clip-rule="evenodd" d="M5.46967 4.96967C5.76256 4.67678 6.23744 4.67678 6.53033 4.96967L10.5303 8.96967C10.8232 9.26256 10.8232 9.73744 10.5303 10.0303C10.2374 10.3232 9.76256 10.3232 9.46967 10.0303L5.46967 6.03033C5.17678 5.73744 5.17678 5.26256 5.46967 4.96967Z" fill="black"/>
</svg>
