<svg width="24" height="24" viewBox="0 0 24 24" fill="none" xmlns="http://www.w3.org/2000/svg">
<path d="M15.6187 7.88128C15.9604 8.22299 15.9604 8.77701 15.6187 9.11872L13.2374 11.5L15.6187 13.8813C15.9604 14.223 15.9604 14.777 15.6187 15.1187C15.277 15.4604 14.723 15.4604 14.3813 15.1187L12 12.7374L9.61872 15.1187C9.27701 15.4604 8.72299 15.4604 8.38128 15.1187C8.03957 14.777 8.03957 14.223 8.38128 13.8813L10.7626 11.5L8.38128 9.11872C8.03957 8.77701 8.03957 8.22299 8.38128 7.88128C8.72299 7.53957 9.27701 7.53957 9.61872 7.88128L12 10.2626L14.3813 7.88128C14.723 7.53957 15.277 7.53957 15.6187 7.88128Z" fill="black"/>
<path fill-rule="evenodd" clip-rule="evenodd" d="M12.2633 1.29775C12.0936 1.23408 11.9064 1.23408 11.7367 1.29775L3.73666 4.29775C3.44393 4.40753 3.25 4.68737 3.25 5V12C3.25 15.3348 5.46131 18.0252 7.50612 19.8144C8.54428 20.7228 9.57891 21.4338 10.3525 21.9172C10.7401 22.1595 11.0641 22.3459 11.293 22.4726C11.4148 22.54 11.5372 22.6066 11.6616 22.6693C11.7859 22.732 11.885 22.7499 12 22.7499C12.115 22.7499 12.2299 22.7236 12.3354 22.6708C12.4409 22.6181 12.4781 22.5993 12.707 22.4726C12.9359 22.3459 13.2599 22.1595 13.6475 21.9172C14.4211 21.4338 15.4557 20.7228 16.4939 19.8144C18.5387 18.0252 20.75 15.3348 20.75 12V5C20.75 4.68737 20.5561 4.40753 20.2633 4.29775L12.2633 1.29775ZM12 21.1494C12.2077 21.0341 12.5012 20.8648 12.8525 20.6453C13.5789 20.1912 14.5443 19.5272 15.5061 18.6856C17.4613 16.9748 19.25 14.6652 19.25 12V5.51975L12 2.801L4.75 5.51975V12C4.75 14.6652 6.53869 16.9748 8.49388 18.6856C9.45572 19.5272 10.4211 20.1912 11.1475 20.6453C11.4988 20.8648 11.7923 21.0341 12 21.1494Z" fill="black"/>
</svg>
