<svg width="16" height="16" viewBox="0 0 16 16" fill="none" xmlns="http://www.w3.org/2000/svg">
<path fill-rule="evenodd" clip-rule="evenodd" d="M1.53033 0.46967C1.23744 0.176777 0.762563 0.176777 0.46967 0.46967C0.176777 0.762563 0.176777 1.23744 0.46967 1.53033L1.48968 2.55034C1.34006 2.68933 1.25 2.88689 1.25 3.1V8C1.25 10.4568 2.98841 12.4005 4.5256 13.6559C5.78765 14.6866 6.23472 14.9128 6.51684 15.0556C6.57832 15.0867 6.63203 15.1139 6.68457 15.1445C6.97822 15.3158 7.22394 15.4478 7.3979 15.5376C7.48971 15.5851 7.58203 15.6316 7.67537 15.676C7.89878 15.7812 8.09619 15.783 8.31977 15.6782C8.39454 15.643 8.4687 15.6065 8.60205 15.5376C8.77601 15.4478 9.02172 15.3158 9.31538 15.1445C9.53887 15.0142 11.1521 13.8012 12.0371 13.0977L14.4697 15.5303C14.7626 15.8232 15.2374 15.8232 15.5303 15.5303C15.8232 15.2374 15.8232 14.7626 15.5303 14.4697L1.53033 0.46967ZM11.0136 12.0743L2.75 3.81066V8C2.75 9.74324 4.01159 11.2995 5.4744 12.4941C6.18572 13.075 6.90102 13.5344 7.4404 13.849C7.66255 13.9786 7.85342 14.0828 8 14.1601L8.03491 14.1416C8.26498 14.0195 8.59166 13.8374 8.97139 13.6006C9.58488 13.2181 10.323 12.7014 11.0136 12.0743Z" fill="black"/>
<path d="M8.24776 0.292106C8.08736 0.235965 7.91264 0.235965 7.75224 0.292106L5.852 0.95719C5.46104 1.09403 5.25503 1.52189 5.39187 1.91285C5.5287 2.30381 5.95656 2.50981 6.34752 2.37298L8 1.79461L13.25 3.63211V8C13.25 8.38929 13.1879 8.7676 13.0744 9.13536C12.9523 9.53118 13.1742 9.95102 13.57 10.0731C13.9659 10.1952 14.3857 9.9733 14.5078 9.57749C14.6616 9.07871 14.75 8.55142 14.75 8V3.1C14.75 2.78129 14.5486 2.49739 14.2478 2.39211L8.24776 0.292106Z" fill="black"/>
</svg>
