<svg viewBox="0 0 24 24" width="24" height="24" fill="black" xmlns="http://www.w3.org/2000/svg">
 <g transform="translate(3.25, 1.25)">
  <path d="M9.01334 0.0477531C8.84355 -0.0159177 8.65645 -0.0159177 8.48666 0.0477531L0.486657 3.04775C0.19393 3.15753 0 3.43737 0 3.75L0 10.75C0 14.0848 2.21131 16.7752 4.25612 18.5644C5.29428 19.4728 6.32891 20.1838 7.1025 20.6672C7.49008 20.9095 7.81413 21.0959 8.04301 21.2226C8.16483 21.29 8.28724 21.3566 8.41155 21.4193C8.53586 21.482 8.63504 21.4999 8.75 21.4999C8.86496 21.4999 8.97991 21.4736 9.08541 21.4208C9.19091 21.3681 9.22811 21.3493 9.45699 21.2226C9.68587 21.0959 10.0099 20.9095 10.3975 20.6672C11.1711 20.1838 12.2057 19.4728 13.2439 18.5644C15.2887 16.7752 17.5 14.0848 17.5 10.75L17.5 3.75C17.5 3.43737 17.3061 3.15753 17.0133 3.04775L9.01334 0.0477531ZM8.75 19.8994C8.95768 19.7841 9.25121 19.6148 9.6025 19.3953C10.3289 18.9412 11.2943 18.2772 12.2561 17.4356C14.2113 15.7248 16 13.4152 16 10.75L16 4.26975L8.75 1.551L1.5 4.26975L1.5 10.75C1.5 13.4152 3.28869 15.7248 5.24388 17.4356C6.20572 18.2772 7.17109 18.9412 7.8975 19.3953C8.24879 19.6148 8.54232 19.7841 8.75 19.8994Z" fill-rule="EVENODD"></path>
 </g>
</svg>