<svg viewBox="0 0 16 16" width="16" height="16" fill="black" xmlns="http://www.w3.org/2000/svg">
 <g transform="translate(1.25, 0.25)">
  <path d="M10.2799 5.7808C10.573 5.48817 10.5734 5.0133 10.2808 4.72014C9.98817 4.42699 9.5133 4.42656 9.22014 4.7192L5.44196 8.49063L4.27951 7.33177C3.98616 7.03933 3.51129 7.04007 3.21885 7.33342C2.92641 7.62676 2.92715 8.10163 3.22049 8.39407L4.9128 10.0812C5.20564 10.3731 5.67951 10.3729 5.97216 10.0808L10.2799 5.7808Z" fill-rule="NONZERO"></path>
  <path d="M6.50224 0.0421062C6.66264 -0.0140354 6.83736 -0.0140354 6.99776 0.0421062L12.9978 2.14211C13.2986 2.24739 13.5 2.53129 13.5 2.85L13.5 7.75C13.5 10.2068 11.7616 12.1505 10.2244 13.4059C9.43572 14.05 8.65102 14.5531 8.0654 14.8947C7.77175 15.066 7.52603 15.1979 7.35208 15.2878C7.21873 15.3567 7.14457 15.3932 7.06979 15.4284C6.84622 15.5332 6.64881 15.5314 6.4254 15.4261C6.33205 15.3818 6.23974 15.3352 6.14792 15.2878C5.97397 15.1979 5.72825 15.066 5.4346 14.8947C4.84898 14.5531 4.06428 14.05 3.2756 13.4059C1.73841 12.1505 0 10.2068 0 7.75L0 2.85C0 2.53129 0.201422 2.24739 0.502237 2.14211L6.50224 0.0421062ZM7.3096 13.599C7.08745 13.7286 6.89658 13.8328 6.75 13.91C6.60341 13.8328 6.41255 13.7286 6.1904 13.599C5.65102 13.2844 4.93572 12.825 4.2244 12.2441C2.76159 11.0495 1.5 9.49324 1.5 7.75L1.5 3.38211L6.75 1.54461L12 3.38211L12 7.75C12 9.49324 10.7384 11.0495 9.2756 12.2441C8.56428 12.825 7.84898 13.2844 7.3096 13.599Z" fill-rule="EVENODD"></path>
 </g>
</svg>