<svg width="16" height="16" viewBox="0 0 16 16" fill="none" xmlns="http://www.w3.org/2000/svg">
<path fill-rule="evenodd" clip-rule="evenodd" d="M8.24776 0.292106C8.08736 0.235965 7.91264 0.235965 7.75224 0.292106L1.75224 2.39211C1.45142 2.49739 1.25 2.78129 1.25 3.1V8C1.25 10.4568 2.98841 12.4005 4.5256 13.6559C5.31428 14.3 6.09898 14.8031 6.6846 15.1447C6.97825 15.316 7.22397 15.4479 7.39792 15.5378C7.48974 15.5852 7.58205 15.6318 7.6754 15.6761C7.89881 15.7814 8.09622 15.7832 8.31979 15.6784C8.39457 15.6432 8.46873 15.6067 8.60208 15.5378C8.77603 15.4479 9.02175 15.316 9.3154 15.1447C9.90102 14.8031 10.6857 14.3 11.4744 13.6559C13.0116 12.4005 14.75 10.4568 14.75 8V3.1C14.75 2.78129 14.5486 2.49739 14.2478 2.39211L8.24776 0.292106ZM8 14.16C8.14658 14.0828 8.33745 13.9786 8.5596 13.849C9.09898 13.5344 9.81428 13.075 10.5256 12.4941C11.9884 11.2995 13.25 9.74324 13.25 8V3.63211L8 1.79461L2.75 3.63211V8C2.75 9.74324 4.01159 11.2995 5.4744 12.4941C6.18572 13.075 6.90102 13.5344 7.4404 13.849C7.66255 13.9786 7.85341 14.0828 8 14.16Z" fill="black"/>
</svg>
