<svg width="16" height="16" viewBox="0 0 16 16" fill="none" xmlns="http://www.w3.org/2000/svg">
<path d="M8 4.25C8.41421 4.25 8.75 4.58579 8.75 5V8C8.75 8.41421 8.41421 8.75 8 8.75C7.58579 8.75 7.25 8.41421 7.25 8V5C7.25 4.58579 7.58579 4.25 8 4.25Z" fill="black"/>
<path d="M8 9.75C7.58579 9.75 7.25 10.0858 7.25 10.5C7.25 10.9142 7.58579 11.25 8 11.25H8.00667C8.42088 11.25 8.75667 10.9142 8.75667 10.5C8.75667 10.0858 8.42088 9.75 8.00667 9.75H8Z" fill="black"/>
<path fill-rule="evenodd" clip-rule="evenodd" d="M7.75224 0.292106C7.91264 0.235965 8.08736 0.235965 8.24776 0.292106L14.2478 2.39211C14.5486 2.49739 14.75 2.78129 14.75 3.1V8C14.75 10.4568 13.0116 12.4005 11.4744 13.6559C10.6857 14.3 9.90102 14.8031 9.3154 15.1447C9.02175 15.316 8.77603 15.4479 8.60208 15.5378C8.46873 15.6067 8.39457 15.6432 8.31979 15.6784C8.09622 15.7832 7.89881 15.7814 7.6754 15.6761C7.58205 15.6318 7.48974 15.5852 7.39792 15.5378C7.22397 15.4479 6.97825 15.316 6.6846 15.1447C6.09898 14.8031 5.31428 14.3 4.5256 13.6559C2.98841 12.4005 1.25 10.4568 1.25 8V3.1C1.25 2.78129 1.45142 2.49739 1.75224 2.39211L7.75224 0.292106ZM8.5596 13.849C8.33745 13.9786 8.14658 14.0828 8 14.16C7.85341 14.0828 7.66255 13.9786 7.4404 13.849C6.90102 13.5344 6.18572 13.075 5.4744 12.4941C4.01159 11.2995 2.75 9.74324 2.75 8V3.63211L8 1.79461L13.25 3.63211V8C13.25 9.74324 11.9884 11.2995 10.5256 12.4941C9.81428 13.075 9.09898 13.5344 8.5596 13.849Z" fill="black"/>
</svg>
