<svg viewbox="0 0 16 16" width="16" height="16" fill="black" xmlns="http://www.w3.org/2000/svg">
 <g transform="translate(1.25, 0.25)">
  <path d="M5 6.75C5 6.33579 4.66421 6 4.25 6C3.83579 6 3.5 6.33579 3.5 6.75C3.5 7.61195 3.84241 8.4386 4.4519 9.0481C5.0614 9.65759 5.88805 10 6.75 10C7.61195 10 8.4386 9.65759 9.0481 9.0481C9.65759 8.4386 10 7.61195 10 6.75C10 6.33579 9.66421 6 9.25 6C8.83579 6 8.5 6.33579 8.5 6.75C8.5 7.21413 8.31563 7.65925 7.98744 7.98744C7.65925 8.31563 7.21413 8.5 6.75 8.5C6.28587 8.5 5.84075 8.31563 5.51256 7.98744C5.18437 7.65925 5 7.21413 5 6.75Z" fill-rule="NONZERO"></path>
  <path d="M2.12596 0.333979C2.26506 0.125328 2.49923 0 2.75 0L10.75 0C11.0008 0 11.2349 0.125328 11.374 0.333979L13.3675 3.32425C13.4511 3.4452 13.5 3.59189 13.5 3.75L13.5 13.4167C13.5 13.9692 13.2805 14.4991 12.8898 14.8898C12.4991 15.2805 11.9692 15.5 11.4167 15.5L2.08333 15.5C1.5308 15.5 1.00089 15.2805 0.610194 14.8898C0.219493 14.4991 0 13.9692 0 13.4167L0 3.75004C0 3.59192 0.0489296 3.44519 0.132474 3.32425L2.12596 0.333979ZM10.3486 1.5L11.3486 3L2.1514 3L3.15139 1.5L10.3486 1.5ZM1.5 13.4167L1.5 4.5L12 4.5L12 13.4167C12 13.5714 11.9385 13.7197 11.8291 13.8291C11.7197 13.9385 11.5714 14 11.4167 14L2.08333 14C1.92862 14 1.78025 13.9385 1.67085 13.8291C1.56146 13.7197 1.5 13.5714 1.5 13.4167Z" fill-rule="EVENODD"></path>
 </g>
</svg>