<svg width="24" height="24" viewBox="0 0 24 24" fill="none" xmlns="http://www.w3.org/2000/svg">
<path d="M8.75 10C8.75 9.58579 8.41421 9.25 8 9.25C7.58579 9.25 7.25 9.58579 7.25 10C7.25 11.2598 7.75044 12.468 8.64124 13.3588C9.53204 14.2496 10.7402 14.75 12 14.75C13.2598 14.75 14.468 14.2496 15.3588 13.3588C16.2496 12.468 16.75 11.2598 16.75 10C16.75 9.58579 16.4142 9.25 16 9.25C15.5858 9.25 15.25 9.58579 15.25 10C15.25 10.862 14.9076 11.6886 14.2981 12.2981C13.6886 12.9076 12.862 13.25 12 13.25C11.138 13.25 10.3114 12.9076 9.7019 12.2981C9.09241 11.6886 8.75 10.862 8.75 10Z" fill="black"/>
<path fill-rule="evenodd" clip-rule="evenodd" d="M5.4 1.55C5.54164 1.36115 5.76393 1.25 6 1.25H18C18.2361 1.25 18.4584 1.36115 18.6 1.55L20.8 4.48333C21.4167 5.30554 21.75 6.30557 21.75 7.33333V20C21.75 20.7293 21.4603 21.4288 20.9445 21.9445C20.4288 22.4603 19.7293 22.75 19 22.75H5C4.27065 22.75 3.57118 22.4603 3.05546 21.9445C2.53973 21.4288 2.25 20.7293 2.25 20V7.33333C2.25 6.30557 2.58334 5.30554 3.2 4.48333L5.4 1.55ZM6.375 2.75L4.5 5.25H19.5L17.625 2.75H6.375ZM3.75 7.33333C3.75 7.13666 3.76784 6.94146 3.80278 6.75H20.1972C20.2322 6.94146 20.25 7.13666 20.25 7.33333V20C20.25 20.3315 20.1183 20.6495 19.8839 20.8839C19.6495 21.1183 19.3315 21.25 19 21.25H5C4.66848 21.25 4.35054 21.1183 4.11612 20.8839C3.8817 20.6495 3.75 20.3315 3.75 20V7.33333Z" fill="black"/>
</svg>
