<svg width="24" height="24" viewBox="0 0 24 24" fill="none" xmlns="http://www.w3.org/2000/svg">
<path fill-rule="evenodd" clip-rule="evenodd" d="M1 0.25C0.585786 0.25 0.25 0.585786 0.25 1C0.25 1.41421 0.585786 1.75 1 1.75H4.38524L5.25836 6.11235C5.26197 6.13639 5.26672 6.16005 5.27255 6.18328L6.94455 14.537C7.07043 15.1697 7.41473 15.738 7.91725 16.1425C8.41799 16.5456 9.04405 16.7605 9.68664 16.75H19.3934C20.0359 16.7605 20.662 16.5456 21.1628 16.1425C21.6655 15.7378 22.0099 15.1692 22.1357 14.5361L23.7367 6.1405C23.7786 5.92093 23.7204 5.69414 23.5779 5.52192C23.4354 5.3497 23.2235 5.25 23 5.25H6.61551L5.73541 0.852807C5.66526 0.502289 5.35747 0.25 5 0.25H1ZM8.41563 14.2439L6.91573 6.75H22.0935L20.6644 14.2439L20.6639 14.2463C20.6063 14.5331 20.45 14.7906 20.2222 14.9741C19.9936 15.158 19.7077 15.2558 19.4144 15.2501L19.4 15.25H9.68L9.66563 15.2501C9.37232 15.2558 9.08637 15.158 8.85785 14.9741C8.62932 14.7901 8.47278 14.5316 8.41563 14.2439Z" fill="black"/>
<path d="M7.25 21C7.25 20.0335 8.0335 19.25 9 19.25C9.9665 19.25 10.75 20.0335 10.75 21C10.75 21.9665 9.9665 22.75 9 22.75C8.0335 22.75 7.25 21.9665 7.25 21Z" fill="black"/>
<path d="M18.25 21C18.25 20.0335 19.0335 19.25 20 19.25C20.9665 19.25 21.75 20.0335 21.75 21C21.75 21.9665 20.9665 22.75 20 22.75C19.0335 22.75 18.25 21.9665 18.25 21Z" fill="black"/>
</svg>
