<svg viewbox="0 0 24 24" width="24" height="24" fill="black" xmlns="http://www.w3.org/2000/svg">
 <g transform="translate(2.25, 1.25)">
  <path d="M6.5 8.75C6.5 8.33579 6.16421 8 5.75 8C5.33579 8 5 8.33579 5 8.75C5 10.0098 5.50044 11.218 6.39124 12.1088C7.28204 12.9996 8.49022 13.5 9.75 13.5C11.0098 13.5 12.218 12.9996 13.1088 12.1088C13.9996 11.218 14.5 10.0098 14.5 8.75C14.5 8.33579 14.1642 8 13.75 8C13.3358 8 13 8.33579 13 8.75C13 9.61195 12.6576 10.4386 12.0481 11.0481C11.4386 11.6576 10.612 12 9.75 12C8.88805 12 8.0614 11.6576 7.4519 11.0481C6.84241 10.4386 6.5 9.61195 6.5 8.75Z" fill-rule="NONZERO"></path>
  <path d="M3.15 0.3C3.29164 0.111146 3.51393 0 3.75 0L15.75 0C15.9861 0 16.2084 0.111146 16.35 0.3L18.55 3.23333C19.1667 4.05554 19.5 5.05557 19.5 6.08333L19.5 18.75C19.5 19.4793 19.2103 20.1788 18.6945 20.6945C18.1788 21.2103 17.4793 21.5 16.75 21.5L2.75 21.5C2.02065 21.5 1.32118 21.2103 0.805456 20.6945C0.289731 20.1788 0 19.4793 0 18.75L0 6.08333C0 5.05557 0.333345 4.05554 0.95 3.23333L3.15 0.3ZM4.125 1.5L2.25 4L17.25 4L15.375 1.5L4.125 1.5ZM1.5 6.08333C1.5 5.88666 1.51784 5.69146 1.55278 5.5L17.9472 5.5C17.9822 5.69146 18 5.88666 18 6.08333L18 18.75C18 19.0815 17.8683 19.3995 17.6339 19.6339C17.3995 19.8683 17.0815 20 16.75 20L2.75 20C2.41848 20 2.10054 19.8683 1.86612 19.6339C1.6317 19.3995 1.5 19.0815 1.5 18.75L1.5 6.08333Z" fill-rule="EVENODD"></path>
 </g>
</svg>