<svg width="24" height="24" viewBox="0 0 24 24" fill="none" xmlns="http://www.w3.org/2000/svg">
<path d="M21.5303 2.46967C21.6022 2.54158 21.6565 2.62445 21.6931 2.71291C21.7298 2.80134 21.75 2.89831 21.75 3V8C21.75 8.41421 21.4142 8.75 21 8.75C20.5858 8.75 20.25 8.41421 20.25 8V4.81066L4.53033 20.5303C4.23744 20.8232 3.76256 20.8232 3.46967 20.5303C3.17678 20.2374 3.17678 19.7626 3.46967 19.4697L19.1893 3.75H16C15.5858 3.75 15.25 3.41421 15.25 3C15.25 2.58579 15.5858 2.25 16 2.25H21C21.1919 2.25 21.3839 2.32322 21.5303 2.46967Z" fill="black"/>
<path d="M21.75 21V16C21.75 15.5858 21.4142 15.25 21 15.25C20.5858 15.25 20.25 15.5858 20.25 16V19.1893L15.5303 14.4697C15.2374 14.1768 14.7626 14.1768 14.4697 14.4697C14.1768 14.7626 14.1768 15.2374 14.4697 15.5303L19.1893 20.25H16C15.5858 20.25 15.25 20.5858 15.25 21C15.25 21.4142 15.5858 21.75 16 21.75H21C21.0082 21.75 21.0163 21.7499 21.0244 21.7496C21.0291 21.7495 21.0339 21.7493 21.0386 21.749C21.1262 21.7446 21.2099 21.7251 21.2871 21.6931C21.3755 21.6565 21.4584 21.6022 21.5303 21.5303C21.6022 21.4584 21.6565 21.3755 21.6931 21.2871C21.7298 21.1987 21.75 21.1017 21.75 21Z" fill="black"/>
<path d="M4.53033 3.46967C4.23744 3.17678 3.76256 3.17678 3.46967 3.46967C3.17678 3.76256 3.17678 4.23744 3.46967 4.53033L8.46967 9.53033C8.76256 9.82322 9.23744 9.82322 9.53033 9.53033C9.82322 9.23744 9.82322 8.76256 9.53033 8.46967L4.53033 3.46967Z" fill="black"/>
</svg>
