<svg width="16" height="16" viewBox="0 0 16 16" fill="none" xmlns="http://www.w3.org/2000/svg">
<path d="M3.75 3C3.75 2.58579 3.41421 2.25 3 2.25C2.58579 2.25 2.25 2.58579 2.25 3V13C2.25 13.4142 2.58579 13.75 3 13.75C3.41421 13.75 3.75 13.4142 3.75 13V3Z" fill="black"/>
<path fill-rule="evenodd" clip-rule="evenodd" d="M13.75 3C13.75 2.71906 13.593 2.46168 13.3432 2.33313C13.0934 2.20457 12.7927 2.22641 12.5641 2.3897L5.56407 7.3897C5.36697 7.53049 5.25 7.75779 5.25 8C5.25 8.24222 5.36697 8.46952 5.56407 8.6103L12.5641 13.6103C12.7927 13.7736 13.0934 13.7954 13.3432 13.6669C13.593 13.5383 13.75 13.2809 13.75 13V3ZM12.25 11.5426L7.29035 8L12.25 4.45739V11.5426Z" fill="black"/>
</svg>
