<svg width="24" height="24" viewBox="0 0 24 24" fill="none" xmlns="http://www.w3.org/2000/svg">
<path fill-rule="evenodd" clip-rule="evenodd" d="M19.75 4.00001C19.75 3.7117 19.5847 3.44892 19.3249 3.32403C19.065 3.19914 18.7566 3.23425 18.5315 3.41436L8.53148 11.4144C8.35357 11.5567 8.25 11.7722 8.25 12C8.25 12.2278 8.35357 12.4433 8.53148 12.5857L18.5315 20.5857C18.7566 20.7658 19.065 20.8009 19.3249 20.676C19.5847 20.5511 19.75 20.2883 19.75 20V4.00001ZM18.25 18.4395L10.2006 12L18.25 5.56048V18.4395Z" fill="black"/>
<path d="M5.75 5C5.75 4.58579 5.41421 4.25 5 4.25C4.58579 4.25 4.25 4.58579 4.25 5V19C4.25 19.4142 4.58579 19.75 5 19.75C5.41421 19.75 5.75 19.4142 5.75 19V5Z" fill="black"/>
</svg>
