<svg width="16" height="16" viewBox="0 0 16 16" fill="none" xmlns="http://www.w3.org/2000/svg">
<path d="M13.75 3C13.75 2.58579 13.4142 2.25 13 2.25C12.5858 2.25 12.25 2.58579 12.25 3V13C12.25 13.4142 12.5858 13.75 13 13.75C13.4142 13.75 13.75 13.4142 13.75 13V3Z" fill="black"/>
<path fill-rule="evenodd" clip-rule="evenodd" d="M3.43593 2.3897C3.20732 2.22641 2.90662 2.20457 2.65681 2.33313C2.40701 2.46168 2.25 2.71906 2.25 3V13C2.25 13.2809 2.40701 13.5383 2.65681 13.6669C2.90662 13.7954 3.20732 13.7736 3.43593 13.6103L10.4359 8.6103C10.633 8.46952 10.75 8.24222 10.75 8C10.75 7.75779 10.633 7.53049 10.4359 7.3897L3.43593 2.3897ZM8.70965 8L3.75 11.5426V4.45739L8.70965 8Z" fill="black"/>
</svg>
