<svg viewbox="0 0 16 16" width="16" height="16" fill="black" xmlns="http://www.w3.org/2000/svg">
 <g transform="translate(2.25, 2.25)">
  <path d="M11.5 0.75C11.5 0.335786 11.1642 0 10.75 0C10.3358 0 10 0.335786 10 0.75L10 10.75C10 11.1642 10.3358 11.5 10.75 11.5C11.1642 11.5 11.5 11.1642 11.5 10.75L11.5 0.75Z" fill-rule="NONZERO"></path>
  <path d="M1.18593 0.139703C0.957318 -0.0235908 0.656617 -0.0454262 0.406814 0.083127C0.15701 0.21168 0 0.469062 0 0.750003L0 10.75C0 11.0309 0.15701 11.2883 0.406814 11.4169C0.656617 11.5454 0.957318 11.5236 1.18593 11.3603L8.18593 6.3603C8.38303 6.21952 8.5 5.99222 8.5 5.75C8.5 5.50779 8.38303 5.28049 8.18593 5.1397L1.18593 0.139703ZM6.45965 5.75L1.5 9.29261L1.5 2.20739L6.45965 5.75Z" fill-rule="EVENODD"></path>
 </g>
</svg>