<svg viewbox="0 0 24 24" width="24" height="24" fill="black" xmlns="http://www.w3.org/2000/svg">
 <g transform="translate(4.25, 1.25)">
  <path d="M7.75 15.75C7.19772 15.75 6.75 16.1977 6.75 16.75C6.75 17.3023 7.19772 17.75 7.75 17.75L7.75999 17.75C8.31228 17.75 8.75999 17.3023 8.75999 16.75C8.75999 16.1977 8.31228 15.75 7.75999 15.75L7.75 15.75Z" fill-rule="NONZERO"></path>
  <path d="M2.75 0C1.23122 0 0 1.23122 0 2.75L0 18.75C0 20.2688 1.23122 21.5 2.75 21.5L12.75 21.5C14.2688 21.5 15.5 20.2688 15.5 18.75L15.5 2.75C15.5 1.23122 14.2688 0 12.75 0L2.75 0ZM1.5 2.75C1.5 2.05964 2.05964 1.5 2.75 1.5L12.75 1.5C13.4404 1.5 14 2.05964 14 2.75L14 18.75C14 19.4404 13.4404 20 12.75 20L2.75 20C2.05964 20 1.5 19.4404 1.5 18.75L1.5 2.75Z" fill-rule="EVENODD"></path>
 </g>
</svg>