<svg viewbox="0 0 16 16" width="16" height="16" fill="black" xmlns="http://www.w3.org/2000/svg">
 <g transform="translate(2.25, 0.25)">
  <path d="M5.75 10.75C5.19772 10.75 4.75 11.1977 4.75 11.75C4.75 12.3023 5.19772 12.75 5.75 12.75L5.75666 12.75C6.30895 12.75 6.75666 12.3023 6.75666 11.75C6.75666 11.1977 6.30895 10.75 5.75666 10.75L5.75 10.75Z" fill-rule="NONZERO"></path>
  <path d="M2.15 0C0.962588 0 0 0.962588 0 2.15L0 13.35C0 14.5374 0.962587 15.5 2.15 15.5L9.35 15.5C10.5374 15.5 11.5 14.5374 11.5 13.35L11.5 2.15C11.5 0.962587 10.5374 0 9.35 0L2.15 0ZM1.5 2.15C1.5 1.79102 1.79102 1.5 2.15 1.5L9.35 1.5C9.70899 1.5 10 1.79102 10 2.15L10 13.35C10 13.709 9.70898 14 9.35 14L2.15 14C1.79102 14 1.5 13.709 1.5 13.35L1.5 2.15Z" fill-rule="EVENODD"></path>
 </g>
</svg>