<svg width="16" height="16" viewBox="0 0 16 16" fill="none" xmlns="http://www.w3.org/2000/svg">
<path d="M5.25 6C5.25 5.58579 5.58579 5.25 6 5.25H6.00667C6.42088 5.25 6.75667 5.58579 6.75667 6C6.75667 6.41421 6.42088 6.75 6.00667 6.75H6C5.58579 6.75 5.25 6.41421 5.25 6Z" fill="black"/>
<path d="M10 5.25C9.58579 5.25 9.25 5.58579 9.25 6C9.25 6.41421 9.58579 6.75 10 6.75H10.0067C10.4209 6.75 10.7567 6.41421 10.7567 6C10.7567 5.58579 10.4209 5.25 10.0067 5.25H10Z" fill="black"/>
<path fill-rule="evenodd" clip-rule="evenodd" d="M8 0.25C3.71979 0.25 0.25 3.71979 0.25 8C0.25 12.2802 3.71979 15.75 8 15.75C12.2802 15.75 15.75 12.2802 15.75 8C15.75 3.71979 12.2802 0.25 8 0.25ZM1.75 8C1.75 4.54822 4.54822 1.75 8 1.75C11.4518 1.75 14.25 4.54822 14.25 8C14.25 11.4518 11.4518 14.25 8 14.25C4.54822 14.25 1.75 11.4518 1.75 8Z" fill="black"/>
<path d="M6.05763 9.07671C5.82506 8.77014 5.38823 8.70867 5.08 8.93985C4.77072 9.17181 4.70804 9.61057 4.94 9.91985C5.1631 10.2171 5.45351 10.4736 5.75234 10.691C6.25934 11.0597 7.02588 11.4498 8 11.4498C8.97412 11.4498 9.74066 11.0597 10.2477 10.691C10.5025 10.5056 10.6995 10.3203 10.8345 10.1795C10.9138 10.0968 10.9912 10.0116 11.06 9.91985C11.292 9.61057 11.2293 9.17181 10.92 8.93985C10.6118 8.70867 10.1749 8.77015 9.94236 9.07671L9.82371 9.21082C9.73408 9.30435 9.59906 9.43157 9.42422 9.55873C9.07184 9.81501 8.58838 10.0498 8 10.0498C7.41162 10.0498 6.92816 9.81501 6.57578 9.55873C6.40094 9.43157 6.26592 9.30435 6.17629 9.21082C6.11504 9.14691 6.08376 9.10996 6.05763 9.07671Z" fill="black"/>
</svg>
