<svg viewBox="0 0 24 24" width="24" height="24" fill="black" xmlns="http://www.w3.org/2000/svg">
 <g transform="translate(1.25, 1.25)">
  <path d="M8.25364 13.1435C7.95275 12.9247 7.72034 12.7058 7.56494 12.5436C7.48946 12.4649 7.41563 12.3838 7.34836 12.2979C7.09941 11.9684 6.63065 11.9021 6.30001 12.15C5.96864 12.3986 5.90149 12.8687 6.15001 13.2L6.24487 13.3181C6.30033 13.3842 6.37966 13.4747 6.48196 13.5815C6.68594 13.7943 6.98478 14.0754 7.37138 14.3566C8.14171 14.9168 9.29337 15.5 10.75 15.5C12.2067 15.5 13.3583 14.9168 14.1286 14.3566C14.5153 14.0754 14.8141 13.7943 15.0181 13.5815C15.134 13.4605 15.2471 13.3359 15.3483 13.2023L15.3492 13.2011L15.35 13.2C15.5985 12.8687 15.5314 12.3986 15.2 12.15C14.8694 11.9021 14.4004 11.9687 14.1514 12.2982C13.8982 12.6216 13.5772 12.9029 13.2464 13.1435C12.6417 13.5833 11.7934 14 10.75 14C9.70666 14 8.85831 13.5833 8.25364 13.1435Z" fill-rule="NONZERO"></path>
  <path d="M6.75 7.75C6.75 7.19772 7.19772 6.75 7.75 6.75L7.76 6.75C8.31228 6.75 8.76 7.19772 8.76 7.75C8.76 8.30228 8.31228 8.75 7.76 8.75L7.75 8.75C7.19772 8.75 6.75 8.30228 6.75 7.75Z" fill-rule="NONZERO"></path>
  <path d="M13.75 6.75C13.1977 6.75 12.75 7.19772 12.75 7.75C12.75 8.30228 13.1977 8.75 13.75 8.75L13.76 8.75C14.3123 8.75 14.76 8.30228 14.76 7.75C14.76 7.19772 14.3123 6.75 13.76 6.75L13.75 6.75Z" fill-rule="NONZERO"></path>
  <path d="M10.75 0C4.81294 0 0 4.81294 0 10.75C0 16.6871 4.81294 21.5 10.75 21.5C16.6871 21.5 21.5 16.6871 21.5 10.75C21.5 4.81294 16.6871 0 10.75 0ZM1.5 10.75C1.5 5.64137 5.64137 1.5 10.75 1.5C15.8586 1.5 20 5.64137 20 10.75C20 15.8586 15.8586 20 10.75 20C5.64137 20 1.5 15.8586 1.5 10.75Z" fill-rule="EVENODD"></path>
 </g>
</svg>