<svg width="24" height="24" viewBox="0 0 24 24" fill="none" xmlns="http://www.w3.org/2000/svg">
<path d="M9 10.75C8.58579 10.75 8.25 11.0858 8.25 11.5V12.5C8.25 12.9142 8.58579 13.25 9 13.25H10C10.4142 13.25 10.75 12.9142 10.75 12.5V11.5C10.75 11.0858 10.4142 10.75 10 10.75H9Z" fill="black"/>
<path d="M14 10.75C13.5858 10.75 13.25 11.0858 13.25 11.5V12.5C13.25 12.9142 13.5858 13.25 14 13.25H15C15.4142 13.25 15.75 12.9142 15.75 12.5V11.5C15.75 11.0858 15.4142 10.75 15 10.75H14Z" fill="black"/>
<path fill-rule="evenodd" clip-rule="evenodd" d="M12 4.25C7.71979 4.25 4.25 7.71979 4.25 12C4.25 16.2802 7.71979 19.75 12 19.75C16.2802 19.75 19.75 16.2802 19.75 12C19.75 7.71979 16.2802 4.25 12 4.25ZM5.75 12C5.75 8.54822 8.54822 5.75 12 5.75C15.4518 5.75 18.25 8.54822 18.25 12C18.25 15.4518 15.4518 18.25 12 18.25C8.54822 18.25 5.75 15.4518 5.75 12Z" fill="black"/>
<path fill-rule="evenodd" clip-rule="evenodd" d="M4 1.25C2.48122 1.25 1.25 2.48122 1.25 4V20C1.25 21.5188 2.48122 22.75 4 22.75H20C21.5188 22.75 22.75 21.5188 22.75 20V4C22.75 2.48122 21.5188 1.25 20 1.25H4ZM2.75 4C2.75 3.30964 3.30964 2.75 4 2.75H20C20.6904 2.75 21.25 3.30964 21.25 4V20C21.25 20.6904 20.6904 21.25 20 21.25H4C3.30964 21.25 2.75 20.6904 2.75 20V4Z" fill="black"/>
</svg>
