<svg width="24" height="24" viewBox="0 0 24 24" fill="none" xmlns="http://www.w3.org/2000/svg">
<path d="M16.25 5.81066V14C16.25 14.4142 16.5858 14.75 17 14.75C17.4142 14.75 17.75 14.4142 17.75 14V5.81066L20.4697 8.53033C20.7626 8.82322 21.2374 8.82322 21.5303 8.53033C21.8232 8.23744 21.8232 7.76256 21.5303 7.46967L17.5303 3.46967C17.4584 3.39776 17.3755 3.34351 17.2871 3.30691C17.1987 3.27024 17.1017 3.25 17 3.25C16.8983 3.25 16.8013 3.27024 16.7129 3.30691C16.6245 3.34351 16.5416 3.39776 16.4697 3.46967L12.4697 7.46967C12.1768 7.76256 12.1768 8.23744 12.4697 8.53033C12.7626 8.82322 13.2374 8.82322 13.5303 8.53033L16.25 5.81066Z" fill="black"/>
<path d="M4 13.25C3.58579 13.25 3.25 13.5858 3.25 14C3.25 14.4142 3.58579 14.75 4 14.75H13C13.4142 14.75 13.75 14.4142 13.75 14C13.75 13.5858 13.4142 13.25 13 13.25H4Z" fill="black"/>
<path d="M3.25 18C3.25 17.5858 3.58579 17.25 4 17.25H20C20.4142 17.25 20.75 17.5858 20.75 18C20.75 18.4142 20.4142 18.75 20 18.75H4C3.58579 18.75 3.25 18.4142 3.25 18Z" fill="black"/>
<path d="M4 9.25C3.58579 9.25 3.25 9.58579 3.25 10C3.25 10.4142 3.58579 10.75 4 10.75H9C9.41421 10.75 9.75 10.4142 9.75 10C9.75 9.58579 9.41421 9.25 9 9.25H4Z" fill="black"/>
<path d="M3.25 6C3.25 5.58579 3.58579 5.25 4 5.25H7C7.41421 5.25 7.75 5.58579 7.75 6C7.75 6.41421 7.41421 6.75 7 6.75H4C3.58579 6.75 3.25 6.41421 3.25 6Z" fill="black"/>
</svg>
