<svg width="16" height="16" viewBox="0 0 16 16" fill="none" xmlns="http://www.w3.org/2000/svg">
<path d="M2.25 4C2.25 3.58579 2.58579 3.25 3 3.25H13C13.4142 3.25 13.75 3.58579 13.75 4C13.75 4.41421 13.4142 4.75 13 4.75H3C2.58579 4.75 2.25 4.41421 2.25 4Z" fill="black"/>
<path d="M11.7129 14.1931C11.8013 14.2298 11.8983 14.25 12 14.25C12.1017 14.25 12.1987 14.2298 12.2871 14.1931C12.3755 14.1565 12.4584 14.1022 12.5303 14.0303L15.5303 11.0303C15.8232 10.7374 15.8232 10.2626 15.5303 9.96967C15.2374 9.67678 14.7626 9.67678 14.4697 9.96967L12.75 11.6893V6.5C12.75 6.08579 12.4142 5.75 12 5.75C11.5858 5.75 11.25 6.08579 11.25 6.5V11.6893L9.53033 9.96967C9.23744 9.67678 8.76256 9.67678 8.46967 9.96967C8.17678 10.2626 8.17678 10.7374 8.46967 11.0303L11.4697 14.0303C11.5416 14.1022 11.6245 14.1565 11.7129 14.1931Z" fill="black"/>
<path d="M3 5.9165C2.58579 5.9165 2.25 6.25229 2.25 6.6665C2.25 7.08072 2.58579 7.4165 3 7.4165H9C9.41421 7.4165 9.75 7.08072 9.75 6.6665C9.75 6.25229 9.41421 5.9165 9 5.9165H3Z" fill="black"/>
<path d="M3 8.5835C2.58579 8.5835 2.25 8.91928 2.25 9.3335C2.25 9.74771 2.58579 10.0835 3 10.0835H6C6.41421 10.0835 6.75 9.74771 6.75 9.3335C6.75 8.91928 6.41421 8.5835 6 8.5835H3Z" fill="black"/>
<path d="M2.25 12C2.25 11.5858 2.58579 11.25 3 11.25H6C6.41421 11.25 6.75 11.5858 6.75 12C6.75 12.4142 6.41421 12.75 6 12.75H3C2.58579 12.75 2.25 12.4142 2.25 12Z" fill="black"/>
</svg>
