<svg viewBox="0 0 24 24" width="24" height="24" fill="black" xmlns="http://www.w3.org/2000/svg">
 <g transform="translate(3.25, 5.25)">
  <path d="M0 0.75C0 0.335786 0.335786 0 0.75 0L16.75 0C17.1642 0 17.5 0.335786 17.5 0.75C17.5 1.16421 17.1642 1.5 16.75 1.5L0.75 1.5C0.335786 1.5 0 1.16421 0 0.75Z" fill-rule="NONZERO"></path>
  <path d="M0.75 4C0.335786 4 0 4.33579 0 4.75C0 5.16421 0.335786 5.5 0.75 5.5L9.75 5.5C10.1642 5.5 10.5 5.16421 10.5 4.75C10.5 4.33579 10.1642 4 9.75 4L0.75 4Z" fill-rule="NONZERO"></path>
  <path d="M13.4629 15.4431C13.5513 15.4798 13.6483 15.5 13.75 15.5C13.8517 15.5 13.9487 15.4798 14.0371 15.4431C14.1255 15.4065 14.2084 15.3522 14.2803 15.2803L18.2803 11.2803C18.5732 10.9874 18.5732 10.5126 18.2803 10.2197C17.9874 9.92678 17.5126 9.92678 17.2197 10.2197L14.5 12.9393L14.5 4.75C14.5 4.33579 14.1642 4 13.75 4C13.3358 4 13 4.33579 13 4.75L13 12.9393L10.2803 10.2197C9.98744 9.92678 9.51256 9.92678 9.21967 10.2197C8.92678 10.5126 8.92678 10.9874 9.21967 11.2803L13.2197 15.2803C13.2916 15.3522 13.3745 15.4065 13.4629 15.4431Z" fill-rule="NONZERO"></path>
  <path d="M0.75 8C0.335786 8 0 8.33579 0 8.75C0 9.16421 0.335786 9.5 0.75 9.5L5.75 9.5C6.16421 9.5 6.5 9.16421 6.5 8.75C6.5 8.33579 6.16421 8 5.75 8L0.75 8Z" fill-rule="NONZERO"></path>
  <path d="M0 12.75C0 12.3358 0.335786 12 0.75 12L3.75 12C4.16421 12 4.5 12.3358 4.5 12.75C4.5 13.1642 4.16421 13.5 3.75 13.5L0.75 13.5C0.335786 13.5 0 13.1642 0 12.75Z" fill-rule="NONZERO"></path>
 </g>
</svg>