<svg width="24" height="24" viewBox="0 0 24 24" fill="none" xmlns="http://www.w3.org/2000/svg">
<path d="M3.25 6C3.25 5.58579 3.58579 5.25 4 5.25H20C20.4142 5.25 20.75 5.58579 20.75 6C20.75 6.41421 20.4142 6.75 20 6.75H4C3.58579 6.75 3.25 6.41421 3.25 6Z" fill="black"/>
<path d="M4 9.25C3.58579 9.25 3.25 9.58579 3.25 10C3.25 10.4142 3.58579 10.75 4 10.75H13C13.4142 10.75 13.75 10.4142 13.75 10C13.75 9.58579 13.4142 9.25 13 9.25H4Z" fill="black"/>
<path d="M16.7129 20.6931C16.8013 20.7298 16.8983 20.75 17 20.75C17.1017 20.75 17.1987 20.7298 17.2871 20.6931C17.3755 20.6565 17.4584 20.6022 17.5303 20.5303L21.5303 16.5303C21.8232 16.2374 21.8232 15.7626 21.5303 15.4697C21.2374 15.1768 20.7626 15.1768 20.4697 15.4697L17.75 18.1893V10C17.75 9.58579 17.4142 9.25 17 9.25C16.5858 9.25 16.25 9.58579 16.25 10V18.1893L13.5303 15.4697C13.2374 15.1768 12.7626 15.1768 12.4697 15.4697C12.1768 15.7626 12.1768 16.2374 12.4697 16.5303L16.4697 20.5303C16.5416 20.6022 16.6245 20.6565 16.7129 20.6931Z" fill="black"/>
<path d="M4 13.25C3.58579 13.25 3.25 13.5858 3.25 14C3.25 14.4142 3.58579 14.75 4 14.75H9C9.41421 14.75 9.75 14.4142 9.75 14C9.75 13.5858 9.41421 13.25 9 13.25H4Z" fill="black"/>
<path d="M3.25 18C3.25 17.5858 3.58579 17.25 4 17.25H7C7.41421 17.25 7.75 17.5858 7.75 18C7.75 18.4142 7.41421 18.75 7 18.75H4C3.58579 18.75 3.25 18.4142 3.25 18Z" fill="black"/>
</svg>
