<svg width="16" height="16" viewBox="0 0 16 16" fill="none" xmlns="http://www.w3.org/2000/svg">
<path fill-rule="evenodd" clip-rule="evenodd" d="M7.99999 5.7998C5.95653 5.7998 4.29999 7.45635 4.29999 9.4998C4.29999 11.5433 5.95653 13.1998 7.99999 13.1998C10.0434 13.1998 11.7 11.5433 11.7 9.4998C11.7 7.45635 10.0434 5.7998 7.99999 5.7998ZM5.69999 9.4998C5.69999 8.22955 6.72973 7.1998 7.99999 7.1998C9.27024 7.1998 10.3 8.22955 10.3 9.4998C10.3 10.7701 9.27024 11.7998 7.99999 11.7998C6.72973 11.7998 5.69999 10.7701 5.69999 9.4998Z" fill="black"/>
<path fill-rule="evenodd" clip-rule="evenodd" d="M3.4 0.25C2.21259 0.25 1.25 1.21259 1.25 2.4V13.6C1.25 14.7874 2.21259 15.75 3.4 15.75H12.6C13.7874 15.75 14.75 14.7874 14.75 13.6V2.4C14.75 1.21259 13.7874 0.25 12.6 0.25H3.4ZM2.75 2.4C2.75 2.04101 3.04101 1.75 3.4 1.75H12.6C12.959 1.75 13.25 2.04101 13.25 2.4V13.6C13.25 13.959 12.959 14.25 12.6 14.25H3.4C3.04102 14.25 2.75 13.959 2.75 13.6V2.4Z" fill="black"/>
</svg>
