<svg width="24" height="24" viewBox="0 0 24 24" fill="none" xmlns="http://www.w3.org/2000/svg">
<path fill-rule="evenodd" clip-rule="evenodd" d="M12 9.25C9.37665 9.25 7.25 11.3766 7.25 14C7.25 16.6234 9.37665 18.75 12 18.75C14.6234 18.75 16.75 16.6234 16.75 14C16.75 11.3766 14.6234 9.25 12 9.25ZM8.75 14C8.75 12.2051 10.2051 10.75 12 10.75C13.7949 10.75 15.25 12.2051 15.25 14C15.25 15.7949 13.7949 17.25 12 17.25C10.2051 17.25 8.75 15.7949 8.75 14Z" fill="black"/>
<path fill-rule="evenodd" clip-rule="evenodd" d="M6 1.25C4.48122 1.25 3.25 2.48122 3.25 4V20C3.25 21.5188 4.48122 22.75 6 22.75H18C19.5188 22.75 20.75 21.5188 20.75 20V4C20.75 2.48122 19.5188 1.25 18 1.25H6ZM4.75 4C4.75 3.30964 5.30964 2.75 6 2.75H18C18.6904 2.75 19.25 3.30964 19.25 4V20C19.25 20.6904 18.6904 21.25 18 21.25H6C5.30964 21.25 4.75 20.6904 4.75 20V4Z" fill="black"/>
</svg>
