<svg viewbox="0 0 24 24" width="24" height="24" fill="black" xmlns="http://www.w3.org/2000/svg">
 <g transform="translate(0.25, 0.25)">
  <path d="M1.28033 0.21967C0.987437 -0.0732233 0.512563 -0.0732233 0.21967 0.21967C-0.0732233 0.512563 -0.0732233 0.987437 0.21967 1.28033L6.50619 7.56685L1.64155 8.27789C1.35913 8.31917 1.12462 8.51717 1.03659 8.78868C0.948554 9.06018 1.02226 9.35812 1.22672 9.55727L5.94413 14.152L4.83082 20.6432C4.78255 20.9246 4.89824 21.209 5.12922 21.3768C5.3602 21.5446 5.66642 21.5667 5.91911 21.4338L11.75 18.3674L17.5809 21.4338C17.8336 21.5667 18.1398 21.5446 18.3708 21.3768C18.6018 21.209 18.7175 20.9246 18.6692 20.6432L18.4802 19.5408L22.2197 23.2803C22.5126 23.5732 22.9874 23.5732 23.2803 23.2803C23.5732 22.9874 23.5732 22.5126 23.2803 22.2197L1.28033 0.21967ZM16.6432 17.7039L7.8288 8.88946L3.36133 9.54245L7.27332 13.3527C7.45023 13.525 7.53097 13.7734 7.48923 14.0168L6.56616 19.3988L11.4009 16.8562C11.6195 16.7413 11.8806 16.7413 12.0991 16.8562L16.9339 19.3988L16.6432 17.7039Z" fill-rule="EVENODD"></path>
  <path d="M12.4226 1.41803C12.2962 1.16205 12.0355 1 11.75 1C11.4646 1 11.2038 1.16205 11.0775 1.41803L9.22788 5.16514C9.04454 5.53657 9.19701 5.9863 9.56844 6.16964C9.93987 6.35298 10.3896 6.2005 10.5729 5.82908L11.75 3.44444L14.1675 8.34197C14.2766 8.5631 14.4875 8.71645 14.7316 8.75212L20.1387 9.54245L17.0085 12.5913C16.7118 12.8803 16.7055 13.3551 16.9946 13.6518C17.2836 13.9485 17.7584 13.9548 18.0551 13.6658L22.2733 9.55727C22.4778 9.35812 22.5515 9.06018 22.4635 8.78868C22.3754 8.51717 22.1409 8.31917 21.8585 8.27789L15.3382 7.32485L12.4226 1.41803Z" fill-rule="NONZERO"></path>
 </g>
</svg>