<svg viewbox="0 0 16 16" width="16" height="16" fill="black" xmlns="http://www.w3.org/2000/svg">
 <g transform="translate(0.29998779296875, 0.2998046875)">
  <path d="M8.32686 2.88844C8.20858 2.65047 7.96576 2.5 7.70002 2.5C7.43428 2.5 7.19146 2.65047 7.07318 2.88844L5.84595 5.35754L3.09946 5.75621C2.83528 5.79456 2.61591 5.97983 2.53388 6.23387C2.45186 6.48791 2.52147 6.76648 2.71334 6.95208L4.69722 8.87106L4.22923 11.5809C4.18392 11.8432 4.29138 12.1086 4.50647 12.2655C4.72157 12.4224 5.00707 12.4437 5.24307 12.3205L7.70002 11.0373L10.157 12.3205C10.393 12.4437 10.6785 12.4224 10.8936 12.2655C11.1087 12.1086 11.2161 11.8432 11.1708 11.5809L10.7028 8.87106L12.6867 6.95208C12.8786 6.76648 12.9482 6.48791 12.8662 6.23387C12.7841 5.97983 12.5648 5.79456 12.3006 5.75621L9.55409 5.35754L8.32686 2.88844ZM6.93636 6.30914L7.70002 4.77272L8.46368 6.30914C8.56593 6.51486 8.76262 6.65732 8.98996 6.69032L10.6887 6.93691L9.46334 8.12221C9.29686 8.28325 9.22081 8.51622 9.26023 8.74447L9.55033 10.4242L8.02407 9.62711C7.82105 9.52107 7.57899 9.52107 7.37597 9.62711L5.84971 10.4242L6.13981 8.74447C6.17923 8.51622 6.10318 8.28325 5.9367 8.12221L4.71131 6.93691L6.41008 6.69032C6.63743 6.65732 6.83411 6.51486 6.93636 6.30914Z" fill-rule="EVENODD"></path>
  <path d="M7.7 0C3.44741 0 0 3.44741 0 7.7C0 11.9526 3.44741 15.4 7.7 15.4C11.9526 15.4 15.4 11.9526 15.4 7.7C15.4 3.44741 11.9526 0 7.7 0ZM1.4 7.7C1.4 4.22061 4.22061 1.4 7.7 1.4C11.1794 1.4 14 4.22061 14 7.7C14 11.1794 11.1794 14 7.7 14C4.22061 14 1.4 11.1794 1.4 7.7Z" fill-rule="EVENODD"></path>
 </g>
</svg>