<svg width="24" height="24" viewBox="0 0 24 24" fill="none" xmlns="http://www.w3.org/2000/svg">
<path fill-rule="evenodd" clip-rule="evenodd" d="M1.53033 0.46967C1.23744 0.176777 0.762563 0.176777 0.46967 0.46967C0.176777 0.762563 0.176777 1.23744 0.46967 1.53033L6.75619 7.81685L1.89155 8.52789C1.60913 8.56917 1.37462 8.76717 1.28659 9.03868C1.19855 9.31018 1.27226 9.60812 1.47672 9.80727L6.19413 14.402L5.08082 20.8932C5.03255 21.1746 5.14824 21.459 5.37922 21.6268C5.6102 21.7946 5.91642 21.8167 6.16911 21.6838L12 18.6174L17.8309 21.6838C18.0836 21.8167 18.3898 21.7946 18.6208 21.6268C18.8518 21.459 18.9675 21.1746 18.9192 20.8932L18.7302 19.7908L22.4697 23.5303C22.7626 23.8232 23.2374 23.8232 23.5303 23.5303C23.8232 23.2374 23.8232 22.7626 23.5303 22.4697L1.53033 0.46967ZM16.8932 17.9539L8.0788 9.13946L3.61133 9.79245L7.52332 13.6027C7.70023 13.775 7.78097 14.0234 7.73923 14.2668L6.81616 19.6488L11.6509 17.1062C11.8695 16.9913 12.1306 16.9913 12.3491 17.1062L17.1839 19.6488L16.8932 17.9539Z" fill="black"/>
<path d="M12.6726 1.66803C12.5462 1.41205 12.2855 1.25 12 1.25C11.7146 1.25 11.4538 1.41205 11.3275 1.66803L9.47788 5.41514C9.29454 5.78657 9.44701 6.2363 9.81844 6.41964C10.1899 6.60298 10.6396 6.4505 10.8229 6.07908L12 3.69444L14.4175 8.59197C14.5266 8.8131 14.7375 8.96645 14.9816 9.00212L20.3887 9.79245L17.2585 12.8413C16.9618 13.1303 16.9555 13.6051 17.2446 13.9018C17.5336 14.1985 18.0084 14.2048 18.3051 13.9158L22.5233 9.80727C22.7278 9.60812 22.8015 9.31018 22.7135 9.03868C22.6254 8.76717 22.3909 8.56917 22.1085 8.52789L15.5882 7.57485L12.6726 1.66803Z" fill="black"/>
</svg>
