<svg viewbox="0 0 24 24" width="24" height="24" fill="black" xmlns="http://www.w3.org/2000/svg">
 <g transform="translate(1.25, 1.25)">
  <path d="M11.4225 3.66803C11.2962 3.41205 11.0355 3.25 10.75 3.25C10.4645 3.25 10.2038 3.41205 10.0775 3.66803L8.2433 7.38385L4.14152 7.98339C3.8591 8.02466 3.62459 8.22267 3.53656 8.49417C3.44852 8.76568 3.52223 9.06362 3.72669 9.26277L6.6941 12.153L5.99378 16.2362C5.94552 16.5176 6.06121 16.802 6.29219 16.9698C6.52317 17.1376 6.82939 17.1597 7.08208 17.0268L10.75 15.0979L14.4179 17.0268C14.6706 17.1597 14.9768 17.1376 15.2078 16.9698C15.4388 16.802 15.5545 16.5176 15.5062 16.2362L14.8059 12.153L17.7733 9.26277C17.9778 9.06362 18.0515 8.76568 17.9634 8.49417C17.8754 8.22267 17.6409 8.02466 17.3585 7.98339L13.2567 7.38385L11.4225 3.66803ZM9.41402 8.40097L10.75 5.69444L12.086 8.40097C12.1951 8.6221 12.406 8.77545 12.65 8.81111L15.6387 9.24795L13.4767 11.3537C13.2998 11.526 13.219 11.7744 13.2608 12.0178L13.7709 14.9918L11.0991 13.5867C10.8805 13.4718 10.6194 13.4718 10.4009 13.5867L7.72913 14.9918L8.2392 12.0178C8.28094 11.7744 8.2002 11.526 8.02329 11.3537L5.8613 9.24795L8.84996 8.81111C9.09398 8.77545 9.30487 8.6221 9.41402 8.40097Z" fill-rule="EVENODD"></path>
  <path d="M10.75 0C4.81294 0 0 4.81294 0 10.75C0 16.6871 4.81294 21.5 10.75 21.5C16.6871 21.5 21.5 16.6871 21.5 10.75C21.5 4.81294 16.6871 0 10.75 0ZM1.5 10.75C1.5 5.64137 5.64137 1.5 10.75 1.5C15.8586 1.5 20 5.64137 20 10.75C20 15.8586 15.8586 20 10.75 20C5.64137 20 1.5 15.8586 1.5 10.75Z" fill-rule="EVENODD"></path>
 </g>
</svg>