<svg width="16" height="16" viewBox="0 0 16 16" fill="none" xmlns="http://www.w3.org/2000/svg">
<path fill-rule="evenodd" clip-rule="evenodd" d="M1.53033 0.46967C1.23744 0.176777 0.762563 0.176777 0.46967 0.46967C0.176777 0.762563 0.176777 1.23744 0.46967 1.53033L3.97537 5.03603L1.22492 5.43805C0.942505 5.47933 0.707995 5.67733 0.619961 5.94884C0.531928 6.22034 0.605633 6.51828 0.810096 6.71743L3.86084 9.68885L3.14086 13.8867C3.09259 14.1681 3.20828 14.4525 3.43926 14.6203C3.67025 14.7881 3.97646 14.8102 4.22915 14.6773L8.00006 12.6942L11.771 14.6773C12.0237 14.8102 12.3299 14.7881 12.5609 14.6203C12.7812 14.4602 12.8966 14.194 12.8649 13.9256L14.4697 15.5303C14.7626 15.8232 15.2374 15.8232 15.5303 15.5303C15.8232 15.2374 15.8232 14.7626 15.5303 14.4697L12.3136 11.2529C12.2784 11.2089 12.2385 11.169 12.1948 11.1341L6.15454 5.09388C6.11945 5.04991 6.07961 5.01014 6.03592 4.97526L1.53033 0.46967ZM5.29799 6.35865L2.9447 6.70262L5.19003 8.88956C5.36693 9.06187 5.44768 9.31022 5.40594 9.55361L4.8762 12.6423L7.65097 11.183C7.86951 11.0681 8.13061 11.0681 8.34915 11.183L11.1239 12.6423L11.0292 12.0898L5.29799 6.35865Z" fill="black"/>
<path d="M8.67259 1.00153C8.54624 0.74555 8.28553 0.583496 8.00006 0.583496C7.7146 0.583496 7.45389 0.74555 7.32753 1.00153L6.29753 3.08819C6.11419 3.45962 6.26667 3.90935 6.63809 4.09269C7.00952 4.27603 7.45925 4.12356 7.64259 3.75213L8.00006 3.02794L9.38753 5.8388C9.49669 6.05993 9.70758 6.21328 9.95159 6.24894L13.0554 6.70262L11.6426 8.07872C11.3459 8.36773 11.3396 8.84256 11.6286 9.13929C11.9176 9.43601 12.3925 9.44226 12.6892 9.15325L15.19 6.71743C15.3945 6.51828 15.4682 6.22034 15.3802 5.94884C15.2921 5.67733 15.0576 5.47933 14.7752 5.43805L10.5583 4.82168L8.67259 1.00153Z" fill="black"/>
</svg>
