<svg viewbox="0 0 24 24" width="24" height="24" fill="black" xmlns="http://www.w3.org/2000/svg">
 <g transform="translate(1.25, 1.25)">
  <path d="M7.75 7C7.33579 7 7 7.33579 7 7.75L7 13.75C7 14.1642 7.33579 14.5 7.75 14.5L13.75 14.5C14.1642 14.5 14.5 14.1642 14.5 13.75L14.5 7.75C14.5 7.33579 14.1642 7 13.75 7L7.75 7Z" fill-rule="NONZERO"></path>
  <path d="M0 10.75C0 4.81294 4.81294 0 10.75 0C16.6871 0 21.5 4.81294 21.5 10.75C21.5 16.6871 16.6871 21.5 10.75 21.5C4.81294 21.5 0 16.6871 0 10.75ZM10.75 1.5C5.64137 1.5 1.5 5.64137 1.5 10.75C1.5 15.8586 5.64137 20 10.75 20C15.8586 20 20 15.8586 20 10.75C20 5.64137 15.8586 1.5 10.75 1.5Z" fill-rule="EVENODD"></path>
 </g>
</svg>