<svg width="24" height="24" viewBox="0 0 24 24" fill="none" xmlns="http://www.w3.org/2000/svg">
<path d="M12 0.25C12.4142 0.25 12.75 0.585786 12.75 1V3C12.75 3.41421 12.4142 3.75 12 3.75C11.5858 3.75 11.25 3.41421 11.25 3V1C11.25 0.585786 11.5858 0.25 12 0.25Z" fill="black"/>
<path fill-rule="evenodd" clip-rule="evenodd" d="M6.25 12C6.25 8.82436 8.82436 6.25 12 6.25C15.1756 6.25 17.75 8.82436 17.75 12C17.75 15.1756 15.1756 17.75 12 17.75C8.82436 17.75 6.25 15.1756 6.25 12ZM12 7.75C9.65279 7.75 7.75 9.65279 7.75 12C7.75 14.3472 9.65279 16.25 12 16.25C14.3472 16.25 16.25 14.3472 16.25 12C16.25 9.65279 14.3472 7.75 12 7.75Z" fill="black"/>
<path d="M12.75 21C12.75 20.5858 12.4142 20.25 12 20.25C11.5858 20.25 11.25 20.5858 11.25 21V23C11.25 23.4142 11.5858 23.75 12 23.75C12.4142 23.75 12.75 23.4142 12.75 23V21Z" fill="black"/>
<path d="M3.68964 3.68988C3.98253 3.39699 4.45741 3.39699 4.7503 3.68988L6.1703 5.10988C6.46319 5.40278 6.46319 5.87765 6.1703 6.17054C5.87741 6.46344 5.40253 6.46344 5.10964 6.17054L3.68964 4.75055C3.39675 4.45765 3.39675 3.98278 3.68964 3.68988Z" fill="black"/>
<path d="M18.8903 17.8295C18.5974 17.5366 18.1225 17.5366 17.8297 17.8295C17.5368 18.1224 17.5368 18.5973 17.8297 18.8902L19.2497 20.3102C19.5425 20.6031 20.0174 20.6031 20.3103 20.3102C20.6032 20.0173 20.6032 19.5424 20.3103 19.2495L18.8903 17.8295Z" fill="black"/>
<path d="M0.25 12C0.25 11.5858 0.585786 11.25 1 11.25H3C3.41421 11.25 3.75 11.5858 3.75 12C3.75 12.4142 3.41421 12.75 3 12.75H1C0.585786 12.75 0.25 12.4142 0.25 12Z" fill="black"/>
<path d="M21 11.25C20.5858 11.25 20.25 11.5858 20.25 12C20.25 12.4142 20.5858 12.75 21 12.75H23C23.4142 12.75 23.75 12.4142 23.75 12C23.75 11.5858 23.4142 11.25 23 11.25H21Z" fill="black"/>
<path d="M6.1703 17.8295C6.46319 18.1224 6.46319 18.5973 6.1703 18.8902L4.7503 20.3102C4.45741 20.6031 3.98253 20.6031 3.68964 20.3102C3.39675 20.0173 3.39675 19.5424 3.68964 19.2495L5.10964 17.8295C5.40253 17.5366 5.87741 17.5366 6.1703 17.8295Z" fill="black"/>
<path d="M20.3103 4.75055C20.6032 4.45765 20.6032 3.98278 20.3103 3.68988C20.0174 3.39699 19.5425 3.39699 19.2497 3.68988L17.8297 5.10988C17.5368 5.40278 17.5368 5.87765 17.8297 6.17054C18.1225 6.46344 18.5974 6.46344 18.8903 6.17054L20.3103 4.75055Z" fill="black"/>
</svg>
