<svg width="16" height="16" viewBox="0 0 16 16" fill="none" xmlns="http://www.w3.org/2000/svg">
<path d="M8 0.25C8.41421 0.25 8.75 0.585786 8.75 1V2.27273C8.75 2.68694 8.41421 3.02273 8 3.02273C7.58579 3.02273 7.25 2.68694 7.25 2.27273V1C7.25 0.585786 7.58579 0.25 8 0.25Z" fill="black"/>
<path fill-rule="evenodd" clip-rule="evenodd" d="M4.25 8C4.25 5.92893 5.92893 4.25 8 4.25C10.0711 4.25 11.75 5.92893 11.75 8C11.75 10.0711 10.0711 11.75 8 11.75C5.92893 11.75 4.25 10.0711 4.25 8ZM8 5.75C6.75736 5.75 5.75 6.75736 5.75 8C5.75 9.24264 6.75736 10.25 8 10.25C9.24264 10.25 10.25 9.24264 10.25 8C10.25 6.75736 9.24264 5.75 8 5.75Z" fill="black"/>
<path d="M8.75 13.7275C8.75 13.3133 8.41421 12.9775 8 12.9775C7.58579 12.9775 7.25 13.3133 7.25 13.7275V15.0003C7.25 15.4145 7.58579 15.7503 8 15.7503C8.41421 15.7503 8.75 15.4145 8.75 15.0003V13.7275Z" fill="black"/>
<path d="M2.51874 2.5185C2.81164 2.2256 3.28651 2.2256 3.5794 2.5185L4.48304 3.42213C4.77593 3.71503 4.77593 4.1899 4.48304 4.48279C4.19015 4.77569 3.71527 4.77569 3.42238 4.48279L2.51874 3.57916C2.22585 3.28626 2.22585 2.81139 2.51874 2.5185Z" fill="black"/>
<path d="M12.5776 11.5165C12.2847 11.2237 11.8098 11.2237 11.5169 11.5165C11.224 11.8094 11.224 12.2843 11.5169 12.5772L12.4205 13.4808C12.7134 13.7737 13.1883 13.7737 13.4812 13.4808C13.7741 13.1879 13.7741 12.7131 13.4812 12.4202L12.5776 11.5165Z" fill="black"/>
<path d="M0.25 8C0.25 7.58579 0.585786 7.25 1 7.25H2.27273C2.68694 7.25 3.02273 7.58579 3.02273 8C3.02273 8.41421 2.68694 8.75 2.27273 8.75H1C0.585786 8.75 0.25 8.41421 0.25 8Z" fill="black"/>
<path d="M13.7273 7.25C13.3131 7.25 12.9773 7.58579 12.9773 8C12.9773 8.41421 13.3131 8.75 13.7273 8.75H15C15.4142 8.75 15.75 8.41421 15.75 8C15.75 7.58579 15.4142 7.25 15 7.25H13.7273Z" fill="black"/>
<path d="M4.48304 11.5165C4.77593 11.8094 4.77593 12.2843 4.48304 12.5772L3.5794 13.4808C3.28651 13.7737 2.81164 13.7737 2.51874 13.4808C2.22585 13.1879 2.22585 12.7131 2.51874 12.4202L3.42238 11.5165C3.71527 11.2237 4.19015 11.2237 4.48304 11.5165Z" fill="black"/>
<path d="M13.4812 3.57916C13.7741 3.28626 13.7741 2.81139 13.4812 2.5185C13.1883 2.2256 12.7134 2.2256 12.4205 2.5185L11.5169 3.42213C11.224 3.71503 11.224 4.1899 11.5169 4.48279C11.8098 4.77569 12.2847 4.77569 12.5776 4.48279L13.4812 3.57916Z" fill="black"/>
</svg>
