<svg width="16" height="16" viewBox="0 0 16 16" fill="none" xmlns="http://www.w3.org/2000/svg">
<path d="M4.25 9C4.25 9.41421 4.58579 9.75 5 9.75C5.41421 9.75 5.75 9.41421 5.75 9V3.81066L7.46967 5.53033C7.76256 5.82322 8.23744 5.82322 8.53033 5.53033C8.82322 5.23744 8.82322 4.76256 8.53033 4.46967L5.53033 1.46967C5.45842 1.39776 5.37555 1.34351 5.28709 1.30691C5.19866 1.27024 5.10169 1.25 5 1.25C4.89831 1.25 4.80134 1.27024 4.71291 1.30691C4.62445 1.34351 4.54158 1.39776 4.46967 1.46967L1.46967 4.46967C1.17678 4.76256 1.17678 5.23744 1.46967 5.53033C1.76256 5.82322 2.23744 5.82322 2.53033 5.53033L4.25 3.81066V9Z" fill="black"/>
<path d="M10.25 12.1893L8.53033 10.4697C8.23744 10.1768 7.76256 10.1768 7.46967 10.4697C7.17678 10.7626 7.17678 11.2374 7.46967 11.5303L10.4697 14.5303C10.7626 14.8232 11.2374 14.8232 11.5303 14.5303L14.5303 11.5303C14.8232 11.2374 14.8232 10.7626 14.5303 10.4697C14.2374 10.1768 13.7626 10.1768 13.4697 10.4697L11.75 12.1893V7C11.75 6.58579 11.4142 6.25 11 6.25C10.5858 6.25 10.25 6.58579 10.25 7V12.1893Z" fill="black"/>
</svg>
