<svg viewBox="0 0 24 24" width="24" height="24" fill="black" xmlns="http://www.w3.org/2000/svg">
 <g transform="translate(1.25, 5.25)">
  <path d="M17.2803 0.21967C16.9874 -0.0732233 16.5126 -0.0732233 16.2197 0.21967C15.9268 0.512563 15.9268 0.987437 16.2197 1.28033L18.9393 4L10.75 4C10.3358 4 10 4.33579 10 4.75C10 5.16421 10.3358 5.5 10.75 5.5L18.9393 5.5L16.2197 8.21967C15.9268 8.51256 15.9268 8.98744 16.2197 9.28033C16.5126 9.57322 16.9874 9.57322 17.2803 9.28033L21.2803 5.28033C21.4268 5.13388 21.5 4.94194 21.5 4.75C21.5 4.64831 21.4798 4.55134 21.4431 4.46291C21.4065 4.37445 21.3522 4.29158 21.2803 4.21967L17.2803 0.21967Z" fill-rule="NONZERO"></path>
  <path d="M2.56066 8L5.28033 5.28033C5.57322 4.98744 5.57322 4.51256 5.28033 4.21967C4.98744 3.92678 4.51256 3.92678 4.21967 4.21967L0.21967 8.21967C0.147762 8.29158 0.0935089 8.37445 0.0569091 8.46291C0.0202391 8.55134 0 8.64831 0 8.75C0 8.85169 0.0202391 8.94866 0.0569091 9.03709C0.0935089 9.12555 0.147762 9.20842 0.21967 9.28033L4.21967 13.2803C4.51256 13.5732 4.98744 13.5732 5.28033 13.2803C5.57322 12.9874 5.57322 12.5126 5.28033 12.2197L2.56066 9.5L10.75 9.5C11.1642 9.5 11.5 9.16421 11.5 8.75C11.5 8.33579 11.1642 8 10.75 8L2.56066 8Z" fill-rule="NONZERO"></path>
 </g>
</svg>