<svg width="24" height="24" viewBox="0 0 24 24" fill="none" xmlns="http://www.w3.org/2000/svg">
<path d="M4.46967 5.46967C4.17678 5.76256 4.17678 6.23744 4.46967 6.53033C4.76256 6.82322 5.23744 6.82322 5.53033 6.53033L8.25 3.81066V14C8.25 14.4142 8.58579 14.75 9 14.75C9.41421 14.75 9.75 14.4142 9.75 14V3.81066L12.4697 6.53033C12.7626 6.82322 13.2374 6.82322 13.5303 6.53033C13.8232 6.23744 13.8232 5.76256 13.5303 5.46967L9.53033 1.46967C9.23744 1.17678 8.76256 1.17678 8.46967 1.46967L4.46967 5.46967Z" fill="black"/>
<path d="M14.25 20.1893L11.5303 17.4697C11.2374 17.1768 10.7626 17.1768 10.4697 17.4697C10.1768 17.7626 10.1768 18.2374 10.4697 18.5303L14.4697 22.5303C14.5416 22.6022 14.6245 22.6565 14.7129 22.6931C14.8013 22.7298 14.8983 22.75 15 22.75C15.0129 22.75 15.0258 22.7497 15.0386 22.749C15.1262 22.7446 15.2099 22.7251 15.2871 22.6931C15.3755 22.6565 15.4584 22.6022 15.5303 22.5303L19.5303 18.5303C19.8232 18.2374 19.8232 17.7626 19.5303 17.4697C19.2374 17.1768 18.7626 17.1768 18.4697 17.4697L15.75 20.1893V12C15.75 11.5858 15.4142 11.25 15 11.25C14.5858 11.25 14.25 11.5858 14.25 12V20.1893Z" fill="black"/>
</svg>
