<svg width="24" height="24" viewBox="0 0 24 24" fill="none" xmlns="http://www.w3.org/2000/svg">
<path d="M2.5 1.25C1.80964 1.25 1.25 1.80964 1.25 2.5V5.5C1.25 6.19036 1.80964 6.75 2.5 6.75H5.5C6.19036 6.75 6.75 6.19036 6.75 5.5V2.5C6.75 1.80964 6.19036 1.25 5.5 1.25H2.5Z" fill="black"/>
<path d="M10.5 1.25C9.80964 1.25 9.25 1.80964 9.25 2.5V5.5C9.25 6.19036 9.80964 6.75 10.5 6.75H13.5C14.1904 6.75 14.75 6.19036 14.75 5.5V2.5C14.75 1.80964 14.1904 1.25 13.5 1.25H10.5Z" fill="black"/>
<path d="M18.5 1.25C17.8096 1.25 17.25 1.80964 17.25 2.5V5.5C17.25 6.19036 17.8096 6.75 18.5 6.75H21.5C22.1904 6.75 22.75 6.19036 22.75 5.5V2.5C22.75 1.80964 22.1904 1.25 21.5 1.25H18.5Z" fill="black"/>
<path d="M2.5 9.25C1.80964 9.25 1.25 9.80964 1.25 10.5V13.5C1.25 14.1904 1.80964 14.75 2.5 14.75H5.5C6.19036 14.75 6.75 14.1904 6.75 13.5V10.5C6.75 9.80964 6.19036 9.25 5.5 9.25H2.5Z" fill="black"/>
<path d="M10.5 9.25C9.80964 9.25 9.25 9.80964 9.25 10.5V13.5C9.25 14.1904 9.80964 14.75 10.5 14.75H13.5C14.1904 14.75 14.75 14.1904 14.75 13.5V10.5C14.75 9.80964 14.1904 9.25 13.5 9.25H10.5Z" fill="black"/>
<path d="M18.5 9.25C17.8096 9.25 17.25 9.80964 17.25 10.5V13.5C17.25 14.1904 17.8096 14.75 18.5 14.75H21.5C22.1904 14.75 22.75 14.1904 22.75 13.5V10.5C22.75 9.80964 22.1904 9.25 21.5 9.25H18.5Z" fill="black"/>
<path d="M2.5 17.25C1.80964 17.25 1.25 17.8096 1.25 18.5V21.5C1.25 22.1904 1.80964 22.75 2.5 22.75H5.5C6.19036 22.75 6.75 22.1904 6.75 21.5V18.5C6.75 17.8096 6.19036 17.25 5.5 17.25H2.5Z" fill="black"/>
<path d="M10.5 17.25C9.80964 17.25 9.25 17.8096 9.25 18.5V21.5C9.25 22.1904 9.80964 22.75 10.5 22.75H13.5C14.1904 22.75 14.75 22.1904 14.75 21.5V18.5C14.75 17.8096 14.1904 17.25 13.5 17.25H10.5Z" fill="black"/>
<path d="M18.5 17.25C17.8096 17.25 17.25 17.8096 17.25 18.5V21.5C17.25 22.1904 17.8096 22.75 18.5 22.75H21.5C22.1904 22.75 22.75 22.1904 22.75 21.5V18.5C22.75 17.8096 22.1904 17.25 21.5 17.25H18.5Z" fill="black"/>
</svg>
