<svg width="16" height="16" viewBox="0 0 16 16" fill="none" xmlns="http://www.w3.org/2000/svg">
<path d="M1 0.375C0.654822 0.375 0.375 0.654822 0.375 1V4C0.375 4.34518 0.654822 4.625 1 4.625H4C4.34518 4.625 4.625 4.34518 4.625 4V1C4.625 0.654822 4.34518 0.375 4 0.375H1Z" fill="black"/>
<path d="M6.5 0.375C6.15482 0.375 5.875 0.654822 5.875 1V4C5.875 4.34518 6.15482 4.625 6.5 4.625H9.5C9.84518 4.625 10.125 4.34518 10.125 4V1C10.125 0.654822 9.84518 0.375 9.5 0.375H6.5Z" fill="black"/>
<path d="M12 0.375C11.6548 0.375 11.375 0.654822 11.375 1V4C11.375 4.34518 11.6548 4.625 12 4.625H15C15.3452 4.625 15.625 4.34518 15.625 4V1C15.625 0.654822 15.3452 0.375 15 0.375H12Z" fill="black"/>
<path d="M1 5.875C0.654822 5.875 0.375 6.15482 0.375 6.5V9.5C0.375 9.84518 0.654822 10.125 1 10.125H4C4.34518 10.125 4.625 9.84518 4.625 9.5V6.5C4.625 6.15482 4.34518 5.875 4 5.875H1Z" fill="black"/>
<path d="M6.5 5.875C6.15482 5.875 5.875 6.15482 5.875 6.5V9.5C5.875 9.84518 6.15482 10.125 6.5 10.125H9.5C9.84518 10.125 10.125 9.84518 10.125 9.5V6.5C10.125 6.15482 9.84518 5.875 9.5 5.875H6.5Z" fill="black"/>
<path d="M12 5.875C11.6548 5.875 11.375 6.15482 11.375 6.5V9.5C11.375 9.84518 11.6548 10.125 12 10.125H15C15.3452 10.125 15.625 9.84518 15.625 9.5V6.5C15.625 6.15482 15.3452 5.875 15 5.875H12Z" fill="black"/>
<path d="M1 11.375C0.654822 11.375 0.375 11.6548 0.375 12V15C0.375 15.3452 0.654822 15.625 1 15.625H4C4.34518 15.625 4.625 15.3452 4.625 15V12C4.625 11.6548 4.34518 11.375 4 11.375H1Z" fill="black"/>
<path d="M6.5 11.375C6.15482 11.375 5.875 11.6548 5.875 12V15C5.875 15.3452 6.15482 15.625 6.5 15.625H9.5C9.84518 15.625 10.125 15.3452 10.125 15V12C10.125 11.6548 9.84518 11.375 9.5 11.375H6.5Z" fill="black"/>
<path d="M12 11.375C11.6548 11.375 11.375 11.6548 11.375 12V15C11.375 15.3452 11.6548 15.625 12 15.625H15C15.3452 15.625 15.625 15.3452 15.625 15V12C15.625 11.6548 15.3452 11.375 15 11.375H12Z" fill="black"/>
</svg>
