<svg width="24" height="24" viewBox="0 0 24 24" fill="none" xmlns="http://www.w3.org/2000/svg">
<path d="M7 6C6.44772 6 6 6.44772 6 7C6 7.55228 6.44772 8 7 8H7.01C7.56228 8 8.01 7.55228 8.01 7C8.01 6.44772 7.56228 6 7.01 6H7Z" fill="black"/>
<path fill-rule="evenodd" clip-rule="evenodd" d="M2 1.25C1.58579 1.25 1.25 1.58579 1.25 2V12C1.25 12.1991 1.32914 12.39 1.46998 12.5306L10.0597 21.1104C10.315 21.3659 10.6182 21.5686 10.9519 21.7069C11.2858 21.8453 11.6436 21.9166 12.005 21.9166C12.3664 21.9166 12.7242 21.8453 13.0581 21.7069C13.3919 21.5686 13.6952 21.3657 13.9506 21.11L21.1203 13.9403L21.1219 13.9388C21.6341 13.4235 21.9216 12.7265 21.9216 12C21.9216 11.2735 21.6341 10.5765 21.1219 10.0612L12.5303 1.46967C12.3897 1.32902 12.1989 1.25 12 1.25H2ZM2.75 11.6891V2.75H11.6893L20.0587 11.1193C20.2911 11.3535 20.4216 11.67 20.4216 12C20.4216 12.33 20.2905 12.6471 20.0581 12.8812L12.8894 20.05C12.7733 20.1662 12.6354 20.2584 12.4837 20.3213C12.3319 20.3842 12.1693 20.4166 12.005 20.4166C11.8407 20.4166 11.6781 20.3842 11.5263 20.3213C11.3746 20.2584 11.2361 20.1656 11.12 20.0494L2.75 11.6891Z" fill="black"/>
</svg>
