<svg width="16" height="16" viewBox="0 0 16 16" fill="none" xmlns="http://www.w3.org/2000/svg">
<path d="M5 4C4.44772 4 4 4.44772 4 5C4 5.55228 4.44772 6 5 6H5.00626C5.55854 6 6.00626 5.55228 6.00626 5C6.00626 4.44772 5.55854 4 5.00626 4H5Z" fill="black"/>
<path fill-rule="evenodd" clip-rule="evenodd" d="M2 1.25C1.58579 1.25 1.25 1.58579 1.25 2V8.25926C1.25 8.45833 1.32914 8.64922 1.46998 8.7899L6.84643 14.1601C7.03227 14.3461 7.25293 14.4936 7.4958 14.5943C7.73882 14.695 7.99932 14.7469 8.26239 14.7469C8.52547 14.7469 8.78596 14.695 9.02898 14.5943C9.272 14.4935 9.49279 14.3459 9.6787 14.1597L14.1663 9.67215L14.1679 9.67057C14.5407 9.2955 14.75 8.78812 14.75 8.25926C14.75 7.7304 14.5407 7.22303 14.1679 6.84795L8.78959 1.46967C8.64894 1.32902 8.45818 1.25 8.25926 1.25H2ZM2.75 7.94835V2.75H7.9486L13.1047 7.90608C13.1978 8.00005 13.25 8.12697 13.25 8.25926C13.25 8.39155 13.1971 8.5191 13.1041 8.61307L8.61745 13.0997C8.57084 13.1463 8.5155 13.1834 8.45457 13.2086C8.39365 13.2339 8.32834 13.2469 8.26239 13.2469C8.19644 13.2469 8.13114 13.2339 8.07021 13.2086C8.00929 13.1834 7.95334 13.1457 7.90673 13.0991L2.75 7.94835Z" fill="black"/>
</svg>
