<svg viewbox="0 0 16 16" width="16" height="16" fill="black" xmlns="http://www.w3.org/2000/svg">
 <g transform="translate(1.25, 1.25)">
  <path d="M3.75 2.75C3.19772 2.75 2.75 3.19772 2.75 3.75C2.75 4.30228 3.19772 4.75 3.75 4.75L3.75626 4.75C4.30854 4.75 4.75626 4.30228 4.75626 3.75C4.75626 3.19772 4.30854 2.75 3.75626 2.75L3.75 2.75Z" fill-rule="NONZERO"></path>
  <path d="M0.75 0C0.335786 0 0 0.335786 0 0.75L0 7.00926C0 7.20833 0.0791376 7.39922 0.219979 7.5399L5.59643 12.9101C5.78227 13.0961 6.00293 13.2436 6.2458 13.3443C6.48882 13.445 6.74932 13.4969 7.01239 13.4969C7.27547 13.4969 7.53596 13.445 7.77898 13.3443C8.022 13.2435 8.24279 13.0959 8.4287 12.9097L12.9163 8.42215L12.9179 8.42057C13.2907 8.0455 13.5 7.53812 13.5 7.00926C13.5 6.4804 13.2907 5.97303 12.9179 5.59795L7.53959 0.21967C7.39894 0.0790176 7.20818 0 7.00926 0L0.75 0ZM1.5 6.69835L1.5 1.5L6.6986 1.5L11.8547 6.65608C11.9478 6.75005 12 6.87697 12 7.00926C12 7.14155 11.9471 7.2691 11.8541 7.36307L7.36745 11.8497C7.32084 11.8963 7.2655 11.9334 7.20457 11.9586C7.14365 11.9839 7.07834 11.9969 7.01239 11.9969C6.94644 11.9969 6.88114 11.9839 6.82021 11.9586C6.75929 11.9334 6.70334 11.8957 6.65673 11.8491L1.5 6.69835Z" fill-rule="EVENODD"></path>
 </g>
</svg>