<svg width="16" height="16" viewBox="0 0 16 16" fill="none" xmlns="http://www.w3.org/2000/svg">
<path fill-rule="evenodd" clip-rule="evenodd" d="M8 5.75C6.75736 5.75 5.75 6.75736 5.75 8C5.75 9.24264 6.75736 10.25 8 10.25C9.24264 10.25 10.25 9.24264 10.25 8C10.25 6.75736 9.24264 5.75 8 5.75ZM7.25 8C7.25 7.58579 7.58579 7.25 8 7.25C8.41421 7.25 8.75 7.58579 8.75 8C8.75 8.41421 8.41421 8.75 8 8.75C7.58579 8.75 7.25 8.41421 7.25 8Z" fill="black"/>
<path fill-rule="evenodd" clip-rule="evenodd" d="M3 8C3 5.23858 5.23858 3 8 3C10.7614 3 13 5.23858 13 8C13 10.7614 10.7614 13 8 13C5.23858 13 3 10.7614 3 8ZM8 4.5C6.067 4.5 4.5 6.067 4.5 8C4.5 9.933 6.067 11.5 8 11.5C9.933 11.5 11.5 9.933 11.5 8C11.5 6.067 9.933 4.5 8 4.5Z" fill="black"/>
<path fill-rule="evenodd" clip-rule="evenodd" d="M0.25 8C0.25 3.71979 3.71979 0.25 8 0.25C12.2802 0.25 15.75 3.71979 15.75 8C15.75 12.2802 12.2802 15.75 8 15.75C3.71979 15.75 0.25 12.2802 0.25 8ZM8 1.75C4.54822 1.75 1.75 4.54822 1.75 8C1.75 11.4518 4.54822 14.25 8 14.25C11.4518 14.25 14.25 11.4518 14.25 8C14.25 4.54822 11.4518 1.75 8 1.75Z" fill="black"/>
</svg>
