<svg viewbox="0 0 16 16" width="16" height="16" fill="black" xmlns="http://www.w3.org/2000/svg">
 <g transform="translate(0.25, 0.25)">
  <path d="M7.75 5.5C6.50736 5.5 5.5 6.50736 5.5 7.75C5.5 8.99264 6.50736 10 7.75 10C8.99264 10 10 8.99264 10 7.75C10 6.50736 8.99264 5.5 7.75 5.5ZM7 7.75C7 7.33579 7.33579 7 7.75 7C8.16421 7 8.5 7.33579 8.5 7.75C8.5 8.16421 8.16421 8.5 7.75 8.5C7.33579 8.5 7 8.16421 7 7.75Z" fill-rule="EVENODD"></path>
  <path d="M2.75 7.75C2.75 4.98858 4.98858 2.75 7.75 2.75C10.5114 2.75 12.75 4.98858 12.75 7.75C12.75 10.5114 10.5114 12.75 7.75 12.75C4.98858 12.75 2.75 10.5114 2.75 7.75ZM7.75 4.25C5.817 4.25 4.25 5.817 4.25 7.75C4.25 9.683 5.817 11.25 7.75 11.25C9.683 11.25 11.25 9.683 11.25 7.75C11.25 5.817 9.683 4.25 7.75 4.25Z" fill-rule="EVENODD"></path>
  <path d="M0 7.75C0 3.46979 3.46979 0 7.75 0C12.0302 0 15.5 3.46979 15.5 7.75C15.5 12.0302 12.0302 15.5 7.75 15.5C3.46979 15.5 0 12.0302 0 7.75ZM7.75 1.5C4.29822 1.5 1.5 4.29822 1.5 7.75C1.5 11.2018 4.29822 14 7.75 14C11.2018 14 14 11.2018 14 7.75C14 4.29822 11.2018 1.5 7.75 1.5Z" fill-rule="EVENODD"></path>
 </g>
</svg>