<svg width="24" height="24" viewBox="0 0 24 24" fill="none" xmlns="http://www.w3.org/2000/svg">
<path d="M6.46967 7.46967C6.76256 7.17678 7.23744 7.17678 7.53033 7.46967L11.5303 11.4697C11.8232 11.7626 11.8232 12.2374 11.5303 12.5303L7.53033 16.5303C7.23744 16.8232 6.76256 16.8232 6.46967 16.5303C6.17678 16.2374 6.17678 15.7626 6.46967 15.4697L9.93934 12L6.46967 8.53033C6.17678 8.23744 6.17678 7.76256 6.46967 7.46967Z" fill="black"/>
<path d="M12 16.25C11.5858 16.25 11.25 16.5858 11.25 17C11.25 17.4142 11.5858 17.75 12 17.75H17C17.4142 17.75 17.75 17.4142 17.75 17C17.75 16.5858 17.4142 16.25 17 16.25H12Z" fill="black"/>
<path fill-rule="evenodd" clip-rule="evenodd" d="M1.25 5C1.25 3.48122 2.48122 2.25 4 2.25H20C21.5188 2.25 22.75 3.48122 22.75 5V19C22.75 20.5188 21.5188 21.75 20 21.75H4C2.48122 21.75 1.25 20.5188 1.25 19V5ZM4 3.75C3.30964 3.75 2.75 4.30964 2.75 5V19C2.75 19.6904 3.30964 20.25 4 20.25H20C20.6904 20.25 21.25 19.6904 21.25 19V5C21.25 4.30964 20.6904 3.75 20 3.75H4Z" fill="black"/>
</svg>
