<svg viewbox="0 0 16 16" width="16" height="16" fill="black" xmlns="http://www.w3.org/2000/svg">
 <g transform="translate(0.25, 1.25)">
  <path d="M3.21967 3.21967C3.51256 2.92678 3.98744 2.92678 4.28033 3.21967L7.28033 6.21967C7.42098 6.36032 7.5 6.55109 7.5 6.75C7.5 6.94891 7.42098 7.13968 7.28033 7.28033L4.28033 10.2803C3.98744 10.5732 3.51256 10.5732 3.21967 10.2803C2.92678 9.98744 2.92678 9.51256 3.21967 9.21967L5.68934 6.75L3.21967 4.28033C2.92678 3.98744 2.92678 3.51256 3.21967 3.21967Z" fill-rule="NONZERO"></path>
  <path d="M7.75 9C7.33579 9 7 9.33579 7 9.75C7 10.1642 7.33579 10.5 7.75 10.5L10.75 10.5C11.1642 10.5 11.5 10.1642 11.5 9.75C11.5 9.33579 11.1642 9 10.75 9L7.75 9Z" fill-rule="NONZERO"></path>
  <path d="M0 2.08333C0 0.93274 0.93274 0 2.08333 0L13.4167 0C14.5673 0 15.5 0.93274 15.5 2.08333L15.5 11.4167C15.5 12.5673 14.5673 13.5 13.4167 13.5L2.08333 13.5C0.93274 13.5 0 12.5673 0 11.4167L0 2.08333ZM2.08333 1.5C1.76117 1.5 1.5 1.76117 1.5 2.08333L1.5 11.4167C1.5 11.7388 1.76117 12 2.08333 12L13.4167 12C13.7388 12 14 11.7388 14 11.4167L14 2.08333C14 1.76117 13.7388 1.5 13.4167 1.5L2.08333 1.5Z" fill-rule="EVENODD"></path>
 </g>
</svg>