<svg viewbox="0 0 24 24" width="24" height="24" fill="black" xmlns="http://www.w3.org/2000/svg">
 <g transform="translate(1.25, 2.25)">
  <path d="M5.21967 5.21967C5.51256 4.92678 5.98744 4.92678 6.28033 5.21967L10.2803 9.21967C10.5732 9.51256 10.5732 9.98744 10.2803 10.2803L6.28033 14.2803C5.98744 14.5732 5.51256 14.5732 5.21967 14.2803C4.92678 13.9874 4.92678 13.5126 5.21967 13.2197L8.68934 9.75L5.21967 6.28033C4.92678 5.98744 4.92678 5.51256 5.21967 5.21967Z" fill-rule="NONZERO"></path>
  <path d="M10.75 14C10.3358 14 10 14.3358 10 14.75C10 15.1642 10.3358 15.5 10.75 15.5L15.75 15.5C16.1642 15.5 16.5 15.1642 16.5 14.75C16.5 14.3358 16.1642 14 15.75 14L10.75 14Z" fill-rule="NONZERO"></path>
  <path d="M0 2.75C0 1.23122 1.23122 0 2.75 0L18.75 0C20.2688 0 21.5 1.23122 21.5 2.75L21.5 16.75C21.5 18.2688 20.2688 19.5 18.75 19.5L2.75 19.5C1.23122 19.5 0 18.2688 0 16.75L0 2.75ZM2.75 1.5C2.05964 1.5 1.5 2.05964 1.5 2.75L1.5 16.75C1.5 17.4404 2.05964 18 2.75 18L18.75 18C19.4404 18 20 17.4404 20 16.75L20 2.75C20 2.05964 19.4404 1.5 18.75 1.5L2.75 1.5Z" fill-rule="EVENODD"></path>
 </g>
</svg>