<svg width="24" height="24" viewBox="0 0 24 24" fill="none" xmlns="http://www.w3.org/2000/svg">
<path d="M4.53033 4.46967C4.23744 4.17678 3.76256 4.17678 3.46967 4.46967C3.17678 4.76256 3.17678 5.23744 3.46967 5.53033L8.93934 11L3.46967 16.4697C3.17678 16.7626 3.17678 17.2374 3.46967 17.5303C3.76256 17.8232 4.23744 17.8232 4.53033 17.5303L10.5303 11.5303C10.8232 11.2374 10.8232 10.7626 10.5303 10.4697L4.53033 4.46967Z" fill="black"/>
<path d="M12 18.25C11.5858 18.25 11.25 18.5858 11.25 19C11.25 19.4142 11.5858 19.75 12 19.75H20C20.4142 19.75 20.75 19.4142 20.75 19C20.75 18.5858 20.4142 18.25 20 18.25H12Z" fill="black"/>
</svg>
