<svg width="16" height="16" viewBox="0 0 16 16" fill="none" xmlns="http://www.w3.org/2000/svg">
<path d="M3.46967 4.46967C3.76256 4.17678 4.23744 4.17678 4.53033 4.46967L7.53033 7.46967C7.67098 7.61032 7.75 7.80109 7.75 8C7.75 8.19891 7.67098 8.38968 7.53033 8.53033L4.53033 11.5303C4.23744 11.8232 3.76256 11.8232 3.46967 11.5303C3.17678 11.2374 3.17678 10.7626 3.46967 10.4697L5.93934 8L3.46967 5.53033C3.17678 5.23744 3.17678 4.76256 3.46967 4.46967Z" fill="black"/>
<path d="M8 10.25C7.58579 10.25 7.25 10.5858 7.25 11C7.25 11.4142 7.58579 11.75 8 11.75H11C11.4142 11.75 11.75 11.4142 11.75 11C11.75 10.5858 11.4142 10.25 11 10.25H8Z" fill="black"/>
<path fill-rule="evenodd" clip-rule="evenodd" d="M0.25 3.33333C0.25 2.18274 1.18274 1.25 2.33333 1.25H13.6667C14.8173 1.25 15.75 2.18274 15.75 3.33333V12.6667C15.75 13.8173 14.8173 14.75 13.6667 14.75H2.33333C1.18274 14.75 0.25 13.8173 0.25 12.6667V3.33333ZM2.33333 2.75C2.01117 2.75 1.75 3.01117 1.75 3.33333V12.6667C1.75 12.9888 2.01117 13.25 2.33333 13.25H13.6667C13.9888 13.25 14.25 12.9888 14.25 12.6667V3.33333C14.25 3.01117 13.9888 2.75 13.6667 2.75H2.33333Z" fill="black"/>
</svg>
