<svg width="16" height="16" viewBox="0 0 16 16" fill="none" xmlns="http://www.w3.org/2000/svg">
<path d="M4.19702 2.80268C3.90412 2.50978 3.42925 2.50978 3.13636 2.80268C2.84346 3.09557 2.84346 3.57044 3.13636 3.86334L6.60603 7.33301L3.13636 10.8027C2.84346 11.0956 2.84346 11.5704 3.13636 11.8633C3.42925 12.1562 3.90412 12.1562 4.19702 11.8633L8.19702 7.86334C8.48991 7.57044 8.48991 7.09557 8.19702 6.80268L4.19702 2.80268Z" fill="black"/>
<path d="M8 11.25C7.58579 11.25 7.25 11.5858 7.25 12C7.25 12.4142 7.58579 12.75 8 12.75H13C13.4142 12.75 13.75 12.4142 13.75 12C13.75 11.5858 13.4142 11.25 13 11.25H8Z" fill="black"/>
</svg>
