<svg viewbox="0 0 16 16" width="16" height="16" fill="black" xmlns="http://www.w3.org/2000/svg">
 <g transform="translate(0.2499999701976776, 0.24999991059303284)">
  <path d="M13.4899 1.70912C13.3287 1.57075 13.1223 1.49638 12.9099 1.50014L12.8966 1.50037L11.7777 1.50025L11.7777 7.70011L12.9099 7.70011C13.1223 7.70387 13.3287 7.62962 13.4899 7.49125C13.6403 7.36218 13.7416 7.18579 13.7776 6.99179L13.7776 2.20857C13.7416 2.01457 13.6403 1.83819 13.4899 1.70912ZM10.2777 8.29095L7.77505 13.9218C7.58804 13.8553 7.4162 13.7477 7.27315 13.6046C7.01998 13.3514 6.87776 13.0081 6.87776 12.65L6.87776 9.85009C6.87776 9.43587 6.54197 9.10009 6.12776 9.10009L2.16583 9.10009L2.15734 9.10014C2.06312 9.1012 1.9698 9.08177 1.88383 9.04319C1.79787 9.00461 1.72133 8.9478 1.6595 8.8767C1.59767 8.8056 1.55204 8.72191 1.52577 8.63142C1.49955 8.54109 1.49324 8.44614 1.50729 8.35313C1.50727 8.35329 1.50731 8.35298 1.50729 8.35313L2.47317 2.0539L2.47336 2.05268C2.49686 1.8977 2.57559 1.75642 2.69503 1.6549C2.81447 1.55337 2.96658 1.49843 3.12333 1.50021L10.2777 1.50025L10.2777 8.29095ZM12.8906 0.000253107C13.468 -0.00818727 14.0286 0.194722 14.4669 0.570921C14.907 0.948698 15.1931 1.47492 15.2708 2.0497C15.2753 2.08302 15.2776 2.1166 15.2776 2.15023L15.2776 7.05014C15.2776 7.08376 15.2753 7.11735 15.2708 7.15067C15.1931 7.72545 14.907 8.25167 14.4669 8.62945C14.0286 9.00564 13.468 9.20855 12.8906 9.20011L11.5151 9.20011L8.91308 15.0546C8.7927 15.3254 8.52411 15.5 8.22772 15.5C7.47186 15.5 6.74696 15.1997 6.21249 14.6653C5.67802 14.1308 5.37776 13.4059 5.37776 12.65L5.37776 10.6001L2.16956 10.6001C1.85953 10.6029 1.55254 10.5386 1.26964 10.4117C0.985299 10.2841 0.732102 10.0962 0.527592 9.86097C0.323082 9.62578 0.172151 9.34895 0.085255 9.04964C-0.00164106 8.75033 -0.0224243 8.43571 0.0243459 8.12757L0.990314 1.82778C0.990348 1.82756 0.99028 1.828 0.990314 1.82778C1.06819 1.31537 1.32864 0.847666 1.72356 0.511988C2.11745 0.177176 2.61876 -0.00446287 3.1356 0.000253107L12.8906 0.000253107Z" fill-rule="EVENODD"></path>
 </g>
</svg>