<svg width="24" height="24" viewBox="0 0 24 24" fill="none" xmlns="http://www.w3.org/2000/svg">
<path fill-rule="evenodd" clip-rule="evenodd" d="M8 8.25C5.92893 8.25 4.25 9.92893 4.25 12C4.25 14.0711 5.92893 15.75 8 15.75C10.0711 15.75 11.75 14.0711 11.75 12C11.75 9.92893 10.0711 8.25 8 8.25ZM5.75 12C5.75 10.7574 6.75736 9.75 8 9.75C9.24264 9.75 10.25 10.7574 10.25 12C10.25 13.2426 9.24264 14.25 8 14.25C6.75736 14.25 5.75 13.2426 5.75 12Z" fill="black"/>
<path fill-rule="evenodd" clip-rule="evenodd" d="M8 4.25C3.71979 4.25 0.25 7.71979 0.25 12C0.25 16.2802 3.71979 19.75 8 19.75H16C20.2802 19.75 23.75 16.2802 23.75 12C23.75 7.71979 20.2802 4.25 16 4.25H8ZM1.75 12C1.75 8.54822 4.54822 5.75 8 5.75H16C19.4518 5.75 22.25 8.54822 22.25 12C22.25 15.4518 19.4518 18.25 16 18.25H8C4.54822 18.25 1.75 15.4518 1.75 12Z" fill="black"/>
</svg>
