<svg width="16" height="16" viewBox="0 0 16 16" fill="none" xmlns="http://www.w3.org/2000/svg">
<path d="M8.75 8C8.75 6.75736 9.75736 5.75 11 5.75C12.2426 5.75 13.25 6.75736 13.25 8C13.25 9.24264 12.2426 10.25 11 10.25C9.75736 10.25 8.75 9.24264 8.75 8Z" fill="black"/>
<path fill-rule="evenodd" clip-rule="evenodd" d="M5 3.25C2.37665 3.25 0.25 5.37665 0.25 8C0.25 10.6234 2.37665 12.75 5 12.75H11C13.6234 12.75 15.75 10.6234 15.75 8C15.75 5.37665 13.6234 3.25 11 3.25H5ZM1.75 8C1.75 6.20507 3.20507 4.75 5 4.75H11C12.7949 4.75 14.25 6.20507 14.25 8C14.25 9.79493 12.7949 11.25 11 11.25H5C3.20507 11.25 1.75 9.79493 1.75 8Z" fill="black"/>
</svg>
