<svg viewBox="0 0 24 24" width="24" height="24" fill="black" xmlns="http://www.w3.org/2000/svg">
 <g transform="translate(0.25, 4.25)">
  <path d="M15.75 4C13.6789 4 12 5.67893 12 7.75C12 9.82107 13.6789 11.5 15.75 11.5C17.8211 11.5 19.5 9.82107 19.5 7.75C19.5 5.67893 17.8211 4 15.75 4ZM13.5 7.75C13.5 6.50736 14.5074 5.5 15.75 5.5C16.9926 5.5 18 6.50736 18 7.75C18 8.99264 16.9926 10 15.75 10C14.5074 10 13.5 8.99264 13.5 7.75Z" fill-rule="EVENODD"></path>
  <path d="M7.75 0C3.46979 0 0 3.46979 0 7.75C0 12.0302 3.46979 15.5 7.75 15.5L15.75 15.5C20.0302 15.5 23.5 12.0302 23.5 7.75C23.5 3.46979 20.0302 0 15.75 0L7.75 0ZM1.5 7.75C1.5 4.29822 4.29822 1.5 7.75 1.5L15.75 1.5C19.2018 1.5 22 4.29822 22 7.75C22 11.2018 19.2018 14 15.75 14L7.75 14C4.29822 14 1.5 11.2018 1.5 7.75Z" fill-rule="EVENODD"></path>
 </g>
</svg>