<svg viewBox="0 0 16 16" width="16" height="16" fill="black" xmlns="http://www.w3.org/2000/svg">
 <g transform="translate(0.25, 0.25)">
  <path d="M3.4176 5.84537C3.19413 6.06884 3.19413 6.43116 3.4176 6.65463L5.84537 9.0824C6.06884 9.30587 6.43116 9.30587 6.65463 9.0824L9.0824 6.65463C9.30587 6.43116 9.30587 6.06884 9.0824 5.84537L6.65463 3.4176C6.43116 3.19413 6.06884 3.19413 5.84537 3.4176L3.4176 5.84537Z" fill-rule="NONZERO"></path>
  <path d="M0 6.25C0 8.77914 1.50225 10.9574 3.66313 11.9412C4.66461 14.0166 6.78915 15.4501 9.25001 15.4501C12.6742 15.4501 15.45 12.6742 15.45 9.25005C15.45 6.78923 14.0166 4.66472 11.9412 3.66322C10.9575 1.50229 8.77918 0 6.25 0C2.79822 0 0 2.79822 0 6.25ZM6.25 1.5C3.62665 1.5 1.5 3.62665 1.5 6.25C1.5 8.16103 2.62855 9.80848 4.25554 10.5622C4.35424 10.5811 4.44795 10.621 4.5299 10.679C5.06327 10.8863 5.64335 11 6.25 11C8.87335 11 11 8.87335 11 6.25C11 5.64345 10.8863 5.06345 10.6791 4.53015C10.621 4.44809 10.581 4.35421 10.5622 4.25534C9.80835 2.62845 8.16096 1.5 6.25 1.5ZM9.25001 14.0501C7.84137 14.0501 6.57366 13.4431 5.69519 12.4757C5.87798 12.4918 6.06303 12.5 6.25 12.5C9.70178 12.5 12.5 9.70178 12.5 6.25C12.5 6.06307 12.4918 5.87805 12.4757 5.69529C13.4431 6.57376 14.05 7.84144 14.05 9.25005C14.05 11.901 11.901 14.0501 9.25001 14.0501Z" fill-rule="EVENODD"></path>
 </g>
</svg>