<svg width="16" height="16" viewBox="0 0 16 16" fill="none" xmlns="http://www.w3.org/2000/svg">
<path d="M3.6676 6.09537C3.44413 6.31884 3.44413 6.68116 3.6676 6.90463L6.09537 9.3324C6.31884 9.55587 6.68116 9.55587 6.90463 9.3324L9.3324 6.90463C9.55587 6.68116 9.55587 6.31884 9.3324 6.09537L6.90463 3.6676C6.68116 3.44413 6.31884 3.44413 6.09537 3.6676L3.6676 6.09537Z" fill="black"/>
<path fill-rule="evenodd" clip-rule="evenodd" d="M0.25 6.5C0.25 9.02914 1.75225 11.2074 3.91313 12.1912C4.91461 14.2666 7.03915 15.7001 9.50001 15.7001C12.9242 15.7001 15.7 12.9242 15.7 9.50005C15.7 7.03923 14.2666 4.91472 12.1912 3.91322C11.2075 1.75229 9.02918 0.25 6.5 0.25C3.04822 0.25 0.25 3.04822 0.25 6.5ZM6.5 1.75C3.87665 1.75 1.75 3.87665 1.75 6.5C1.75 8.41103 2.87855 10.0585 4.50554 10.8122C4.60424 10.8311 4.69795 10.871 4.7799 10.929C5.31327 11.1363 5.89335 11.25 6.5 11.25C9.12335 11.25 11.25 9.12335 11.25 6.5C11.25 5.89345 11.1363 5.31345 10.9291 4.78015C10.871 4.69809 10.831 4.60421 10.8122 4.50534C10.0583 2.87845 8.41096 1.75 6.5 1.75ZM9.50001 14.3001C8.09137 14.3001 6.82366 13.6931 5.94519 12.7257C6.12798 12.7418 6.31303 12.75 6.5 12.75C9.95178 12.75 12.75 9.95178 12.75 6.5C12.75 6.31307 12.7418 6.12805 12.7257 5.94529C13.6931 6.82376 14.3 8.09144 14.3 9.50005C14.3 12.151 12.151 14.3001 9.50001 14.3001Z" fill="black"/>
</svg>
