<svg width="24" height="24" viewBox="0 0 24 24" fill="none" xmlns="http://www.w3.org/2000/svg">
<path fill-rule="evenodd" clip-rule="evenodd" d="M10 2.25C9.27065 2.25 8.57118 2.53973 8.05546 3.05546C7.53973 3.57118 7.25 4.27065 7.25 5V6.25H5.82843C5.09908 6.25 4.39961 6.53973 3.88388 7.05546L2.05546 8.88388C1.53973 9.39961 1.25 10.0991 1.25 10.8284V19C1.25 20.5188 2.48122 21.75 4 21.75H20C21.5188 21.75 22.75 20.5188 22.75 19V10.8284C22.75 10.0991 22.4603 9.39961 21.9445 8.88388L20.1161 7.05546C19.6004 6.53973 18.9009 6.25 18.1716 6.25H16.75V5C16.75 4.27065 16.4603 3.57118 15.9445 3.05546C15.4288 2.53973 14.7293 2.25 14 2.25H10ZM15.25 6.25V5C15.25 4.66848 15.1183 4.35054 14.8839 4.11612C14.6495 3.8817 14.3315 3.75 14 3.75H10C9.66848 3.75 9.35054 3.8817 9.11612 4.11612C8.8817 4.35054 8.75 4.66848 8.75 5V6.25H15.25ZM5.82843 7.75C5.49691 7.75 5.17896 7.8817 4.94454 8.11612L3.11612 9.94454C2.8817 10.179 2.75 10.4969 2.75 10.8284V13.25H9.25V12.5C9.25 11.8096 9.80964 11.25 10.5 11.25H13.5C14.1904 11.25 14.75 11.8096 14.75 12.5V13.25H21.25V10.8284C21.25 10.4969 21.1183 10.179 20.8839 9.94454L19.0555 8.11612C18.821 7.8817 18.5031 7.75 18.1716 7.75H5.82843ZM14.75 14.75V15.5C14.75 16.1904 14.1904 16.75 13.5 16.75H10.5C9.80964 16.75 9.25 16.1904 9.25 15.5V14.75H2.75V19C2.75 19.6904 3.30964 20.25 4 20.25H20C20.6904 20.25 21.25 19.6904 21.25 19V14.75H14.75ZM10.75 15.25V12.75H13.25V15.25H10.75Z" fill="black"/>
</svg>
