<svg viewbox="0 0 24 24" width="24" height="24" fill="black" xmlns="http://www.w3.org/2000/svg">
 <g transform="translate(1.25, 2.25)">
  <path d="M8.75 0C8.02065 0 7.32118 0.289731 6.80546 0.805456C6.28973 1.32118 6 2.02065 6 2.75L6 4L4.57843 4C3.84908 4 3.14961 4.28973 2.63388 4.80546L0.805456 6.63388C0.289731 7.14961 0 7.84908 0 8.57843L0 16.75C0 18.2688 1.23122 19.5 2.75 19.5L18.75 19.5C20.2688 19.5 21.5 18.2688 21.5 16.75L21.5 8.57843C21.5 7.84908 21.2103 7.14961 20.6945 6.63388L18.8661 4.80546C18.3504 4.28973 17.6509 4 16.9216 4L15.5 4L15.5 2.75C15.5 2.02065 15.2103 1.32118 14.6945 0.805456C14.1788 0.289731 13.4793 0 12.75 0L8.75 0ZM14 4L14 2.75C14 2.41848 13.8683 2.10054 13.6339 1.86612C13.3995 1.6317 13.0815 1.5 12.75 1.5L8.75 1.5C8.41848 1.5 8.10054 1.6317 7.86612 1.86612C7.6317 2.10054 7.5 2.41848 7.5 2.75L7.5 4L14 4ZM4.57843 5.5C4.24691 5.5 3.92896 5.6317 3.69454 5.86612L1.86612 7.69454C1.6317 7.92896 1.5 8.24691 1.5 8.57843L1.5 11L8 11L8 10.25C8 9.55964 8.55964 9 9.25 9L12.25 9C12.9404 9 13.5 9.55964 13.5 10.25L13.5 11L20 11L20 8.57843C20 8.24691 19.8683 7.92896 19.6339 7.69454L17.8055 5.86612C17.571 5.6317 17.2531 5.5 16.9216 5.5L4.57843 5.5ZM13.5 12.5L13.5 13.25C13.5 13.9404 12.9404 14.5 12.25 14.5L9.25 14.5C8.55964 14.5 8 13.9404 8 13.25L8 12.5L1.5 12.5L1.5 16.75C1.5 17.4404 2.05964 18 2.75 18L18.75 18C19.4404 18 20 17.4404 20 16.75L20 12.5L13.5 12.5ZM9.5 13L9.5 10.5L12 10.5L12 13L9.5 13Z" fill-rule="EVENODD"></path>
 </g>
</svg>