<svg width="24" height="24" viewBox="0 0 24 24" fill="none" xmlns="http://www.w3.org/2000/svg">
<path d="M5 3.25C4.58579 3.25 4.25 3.58579 4.25 4C4.25 4.41421 4.58579 4.75 5 4.75H19C19.4142 4.75 19.75 4.41421 19.75 4C19.75 3.58579 19.4142 3.25 19 3.25H5Z" fill="black"/>
<path d="M11.4697 7.46967C11.5416 7.39776 11.6245 7.34351 11.7129 7.30691C11.8007 7.27051 11.8969 7.2503 11.9978 7.25L12 7.25L12.0022 7.25C12.1934 7.25057 12.3845 7.3238 12.5303 7.46967L17.5303 12.4697C17.8232 12.7626 17.8232 13.2374 17.5303 13.5303C17.2374 13.8232 16.7626 13.8232 16.4697 13.5303L12.75 9.81066V20C12.75 20.4142 12.4142 20.75 12 20.75C11.5858 20.75 11.25 20.4142 11.25 20V9.81066L7.53033 13.5303C7.23744 13.8232 6.76256 13.8232 6.46967 13.5303C6.17678 13.2374 6.17678 12.7626 6.46967 12.4697L11.4697 7.46967Z" fill="black"/>
</svg>
