<svg viewbox="0 0 24 24" width="24" height="24" fill="black" xmlns="http://www.w3.org/2000/svg">
 <g transform="translate(4.25, 3.25)">
  <path d="M0.75 0C0.335786 0 0 0.335786 0 0.75C0 1.16421 0.335786 1.5 0.75 1.5L14.75 1.5C15.1642 1.5 15.5 1.16421 15.5 0.75C15.5 0.335786 15.1642 0 14.75 0L0.75 0Z" fill-rule="NONZERO"></path>
  <path d="M7.21967 4.21967C7.29158 4.14776 7.37445 4.09351 7.46291 4.05691C7.55069 4.02051 7.64688 4.0003 7.74775 4L7.75 4L7.75225 4C7.94344 4.00057 8.13446 4.0738 8.28033 4.21967L13.2803 9.21967C13.5732 9.51256 13.5732 9.98744 13.2803 10.2803C12.9874 10.5732 12.5126 10.5732 12.2197 10.2803L8.5 6.56066L8.5 16.75C8.5 17.1642 8.16421 17.5 7.75 17.5C7.33579 17.5 7 17.1642 7 16.75L7 6.56066L3.28033 10.2803C2.98744 10.5732 2.51256 10.5732 2.21967 10.2803C1.92678 9.98744 1.92678 9.51256 2.21967 9.21967L7.21967 4.21967Z" fill-rule="NONZERO"></path>
 </g>
</svg>