<svg width="16" height="16" viewBox="0 0 16 16" fill="none" xmlns="http://www.w3.org/2000/svg">
<path d="M3 2.25C2.58579 2.25 2.25 2.58579 2.25 3C2.25 3.41421 2.58579 3.75 3 3.75H13C13.4142 3.75 13.75 3.41421 13.75 3C13.75 2.58579 13.4142 2.25 13 2.25H3Z" fill="black"/>
<path d="M8.53033 5.46967C8.39461 5.33395 8.20711 5.25 8 5.25C7.80109 5.25 7.61032 5.32902 7.46967 5.46967L3.96967 8.96967C3.67678 9.26256 3.67678 9.73744 3.96967 10.0303C4.26256 10.3232 4.73744 10.3232 5.03033 10.0303L7.25 7.81066V14C7.25 14.4142 7.58579 14.75 8 14.75C8.41421 14.75 8.75 14.4142 8.75 14V7.81066L10.9697 10.0303C11.2626 10.3232 11.7374 10.3232 12.0303 10.0303C12.3232 9.73744 12.3232 9.26256 12.0303 8.96967L8.53033 5.46967Z" fill="black"/>
</svg>
