<svg viewBox="0 0 16 16" width="16" height="16" fill="black" xmlns="http://www.w3.org/2000/svg">
 <g transform="translate(1.25, 0.25)">
  <path d="M10.5 2.08333L10.5 2.99994L11.75 2.99994C11.7532 2.99994 11.7563 2.99996 11.7595 3L12.75 3C13.1642 3 13.5 3.33579 13.5 3.75C13.5 4.16421 13.1642 4.5 12.75 4.5L12.5 4.5L12.5 13.4167C12.5 13.9692 12.2805 14.4991 11.8898 14.8898C11.4991 15.2805 10.9692 15.5 10.4167 15.5L3.08333 15.5C2.5308 15.5 2.00089 15.2805 1.61019 14.8898C1.21949 14.4991 1 13.9692 1 13.4167L1 4.5L0.75 4.5C0.335786 4.5 0 4.16421 0 3.75C0 3.33579 0.335786 3 0.75 3L1.74054 3C1.74369 2.99996 1.74684 2.99994 1.75 2.99994L3 2.99994L3 2.08333C3 1.5308 3.21949 1.00089 3.61019 0.610194C4.0009 0.219493 4.5308 0 5.08333 0L8.41667 0C8.9692 0 9.49911 0.219493 9.88981 0.610194C10.2805 1.00089 10.5 1.5308 10.5 2.08333ZM4.67085 1.67085C4.78025 1.56146 4.92862 1.5 5.08333 1.5L8.41667 1.5C8.57138 1.5 8.71975 1.56146 8.82915 1.67085C8.93854 1.78025 9 1.92862 9 2.08333L9 2.99994L4.5 2.99994L4.5 2.08333C4.5 1.92862 4.56146 1.78025 4.67085 1.67085ZM2.5 4.5L2.5 13.4167C2.5 13.5714 2.56146 13.7197 2.67085 13.8291C2.78025 13.9385 2.92862 14 3.08333 14L10.4167 14C10.5714 14 10.7197 13.9385 10.8291 13.8291C10.9385 13.7197 11 13.5714 11 13.4167L11 4.5L2.5 4.5Z" fill-rule="EVENODD"></path>
 </g>
</svg>