<svg width="16" height="16" viewBox="0 0 16 16" fill="none" xmlns="http://www.w3.org/2000/svg">
<path d="M1.53033 3.46967C1.23744 3.17678 0.762563 3.17678 0.46967 3.46967C0.176777 3.76256 0.176777 4.23744 0.46967 4.53033L5.46967 9.53033C5.73359 9.79425 6.15141 9.82394 6.45 9.6L9.87998 7.02751L13.3308 11.25H11C10.5858 11.25 10.25 11.5858 10.25 12C10.25 12.4142 10.5858 12.75 11 12.75H15C15.4142 12.75 15.75 12.4142 15.75 12V8C15.75 7.58579 15.4142 7.25 15 7.25C14.5858 7.25 14.25 7.58579 14.25 8V10.0065L10.5762 5.51986C10.3205 5.21312 9.86943 5.16043 9.55 5.4L6.07038 8.00972L1.53033 3.46967Z" fill="black"/>
</svg>
