<svg viewBox="0 0 24 24" width="24" height="24" fill="black" xmlns="http://www.w3.org/2000/svg">
 <g transform="translate(0.1250000149011612, 5.125)">
  <path d="M22.875 0L16.875 0C16.3918 0 16 0.391751 16 0.875C16 1.35825 16.3918 1.75 16.875 1.75L20.7626 1.75L13.375 9.13756L8.99372 4.75628C8.65201 4.41457 8.09799 4.41457 7.75628 4.75628L0.256282 12.2563C-0.0854272 12.598 -0.0854272 13.152 0.256282 13.4937C0.59799 13.8354 1.15201 13.8354 1.49372 13.4937L8.375 6.61244L12.7563 10.9937C13.098 11.3354 13.652 11.3354 13.9937 10.9937L22 2.98744L22 6.875C22 7.35825 22.3918 7.75 22.875 7.75C23.3582 7.75 23.75 7.35825 23.75 6.875L23.75 0.875C23.75 0.510392 23.527 0.19787 23.2099 0.0663939" fill-rule="NONZERO"></path>
 </g>
</svg>