<svg width="24" height="24" viewBox="0 0 24 24" fill="none" xmlns="http://www.w3.org/2000/svg">
<path d="M1.61872 5.38128C1.27701 5.03957 0.72299 5.03957 0.381282 5.38128C0.0395728 5.72299 0.0395728 6.27701 0.381282 6.61872L7.88128 14.1187C8.22299 14.4604 8.77701 14.4604 9.11872 14.1187L13.5 9.73744L20.8876 17.125H17C16.5168 17.125 16.125 17.5168 16.125 18C16.125 18.4832 16.5168 18.875 17 18.875H23C23.1186 18.875 23.2318 18.8514 23.3349 18.8086C23.4381 18.7659 23.5348 18.7026 23.6187 18.6187C23.7789 18.4585 23.864 18.2517 23.874 18.042C23.8747 18.028 23.875 18.014 23.875 18V12C23.875 11.5168 23.4832 11.125 23 11.125C22.5168 11.125 22.125 11.5168 22.125 12V15.8876L14.1187 7.88128C13.777 7.53957 13.223 7.53957 12.8813 7.88128L8.5 12.2626L1.61872 5.38128Z" fill="black"/>
</svg>
