<svg width="16" height="16" viewBox="0 0 16 16" fill="none" xmlns="http://www.w3.org/2000/svg">
<path d="M15.2871 3.30691C15.3749 3.34324 15.4572 3.39696 15.5288 3.46808L15.5303 3.46967L15.5319 3.47126C15.6031 3.5428 15.6568 3.62511 15.6931 3.71291C15.7298 3.80134 15.75 3.89831 15.75 4V8C15.75 8.41421 15.4142 8.75 15 8.75C14.5858 8.75 14.25 8.41421 14.25 8V5.81066L10.5303 9.53033C10.2664 9.79425 9.84861 9.82394 9.55002 9.6L6.12004 7.02751L1.57618 12.4801C1.31101 12.7983 0.838088 12.8413 0.519881 12.5762C0.201673 12.311 0.15868 11.8381 0.423853 11.5199L5.42385 5.51986C5.67947 5.21312 6.13059 5.16043 6.45002 5.4L9.92964 8.00972L13.1894 4.75H11C10.5858 4.75 10.25 4.41421 10.25 4C10.25 3.58579 10.5858 3.25 11 3.25H15C15.1017 3.25 15.1987 3.27024 15.2871 3.30691Z" fill="black"/>
</svg>
