<svg width="24" height="24" viewBox="0 0 24 24" fill="none" xmlns="http://www.w3.org/2000/svg">
<path d="M12 2.14746C11.5274 2.14746 11.0627 2.26927 10.6509 2.50115C10.239 2.73302 9.89387 3.06713 9.64875 3.47123L9.6466 3.4748L1.17651 17.6148L1.17051 17.6252C0.930386 18.041 0.803334 18.5124 0.80199 18.9926C0.800645 19.4728 0.925055 19.945 1.16284 20.3621C1.40063 20.7793 1.7435 21.1269 2.15735 21.3705C2.5712 21.614 3.0416 21.7449 3.52175 21.7502L20.47 21.7503L20.4782 21.7502C20.9584 21.7449 21.4288 21.614 21.8426 21.3705C22.2565 21.1269 22.5994 20.7793 22.8372 20.3621C23.0749 19.945 23.1994 19.4728 23.198 18.9926C23.1967 18.5124 23.0697 18.0409 22.8296 17.6251L14.3534 3.4748L14.3512 3.47123C14.1061 3.06713 13.761 2.73302 13.3491 2.50115C12.9373 2.26927 12.4726 2.14746 12 2.14746Z" fill="black"/>
</svg>
