<svg width="16" height="16" viewBox="0 0 16 16" fill="none" xmlns="http://www.w3.org/2000/svg">
<path fill-rule="evenodd" clip-rule="evenodd" d="M6.97764 1.51531C7.29021 1.34119 7.6423 1.25 8 1.25C8.3577 1.25 8.70979 1.34119 9.02236 1.51531C9.33498 1.68945 9.59792 1.94091 9.78507 2.24618L9.78726 2.24975L15.4683 11.6333C15.6517 11.9475 15.749 12.3045 15.75 12.6685C15.751 13.0325 15.6557 13.3899 15.474 13.7052C15.2924 14.0205 15.0311 14.2822 14.7169 14.4651C14.4028 14.648 14.0463 14.746 13.6829 14.75L13.6748 14.75L2.31708 14.75C1.95369 14.746 1.59723 14.648 1.28307 14.4651C0.968867 14.2822 0.707573 14.0205 0.525965 13.7052C0.344324 13.3899 0.248978 13.0325 0.250008 12.6685C0.251038 12.3045 0.348406 11.9476 0.531817 11.6333L0.537906 11.6229L6.21275 2.24976L6.21493 2.24618C6.40208 1.94091 6.66502 1.68945 6.97764 1.51531ZM7.4946 3.02877C7.49431 3.02924 7.49402 3.02972 7.49373 3.03019L1.82492 12.3935C1.77589 12.4792 1.75028 12.5753 1.75 12.6727C1.74972 12.7717 1.77562 12.8695 1.8257 12.9564C1.87582 13.0434 1.94867 13.1169 2.03777 13.1688C2.12598 13.2201 2.22673 13.2483 2.3301 13.25H13.6699C13.7733 13.2483 13.874 13.2201 13.9622 13.1688C14.0513 13.1169 14.1242 13.0434 14.1743 12.9564C14.2244 12.8695 14.2503 12.7717 14.25 12.6727C14.2497 12.5753 14.2241 12.4792 14.1751 12.3935L8.50627 3.03019C8.50598 3.02972 8.50569 3.02924 8.5054 3.02877C8.45372 2.94503 8.38064 2.87486 8.29241 2.82572C8.20363 2.77626 8.10289 2.75 8 2.75C7.89711 2.75 7.79637 2.77626 7.70759 2.82572C7.61936 2.87486 7.54628 2.94503 7.4946 3.02877Z" fill="black"/>
</svg>
