<svg width="24" height="24" viewBox="0 0 24 24" fill="none" xmlns="http://www.w3.org/2000/svg">
<path fill-rule="evenodd" clip-rule="evenodd" d="M10.6509 2.50115C11.0627 2.26927 11.5274 2.14746 12 2.14746C12.4727 2.14746 12.9373 2.26927 13.3492 2.50115C13.761 2.73302 14.1061 3.06713 14.3513 3.47123L14.3534 3.4748L22.8296 17.6251C23.0697 18.0409 23.1967 18.5124 23.198 18.9926C23.1994 19.4728 23.075 19.945 22.8372 20.3621C22.5994 20.7793 22.2565 21.1269 21.8427 21.3705C21.4288 21.614 20.9584 21.7449 20.4783 21.7502L20.47 21.7503L3.52178 21.7502C3.04162 21.7449 2.57122 21.614 2.15738 21.3705C1.74352 21.1269 1.40065 20.7793 1.16286 20.3621C0.925078 19.945 0.800668 19.4728 0.802013 18.9926C0.803357 18.5124 0.930409 18.041 1.17053 17.6252L1.17654 17.6148L9.64662 3.4748L9.64877 3.47123C9.89389 3.06713 10.239 2.73302 10.6509 2.50115ZM10.9322 4.24761C10.9319 4.24813 10.9316 4.24865 10.9313 4.24918L2.46686 18.3799C2.35943 18.5678 2.30261 18.7803 2.30201 18.9968C2.3014 19.2151 2.35795 19.4297 2.46603 19.6193C2.57412 19.809 2.72997 19.967 2.91808 20.0777C3.10514 20.1877 3.31762 20.2472 3.53459 20.2502H20.4655C20.6824 20.2472 20.8949 20.1877 21.082 20.0777C21.2701 19.967 21.4259 19.809 21.534 19.6193C21.6421 19.4297 21.6986 19.2151 21.698 18.9968C21.6974 18.7803 21.6406 18.5678 21.5332 18.3799L13.0688 4.24918C13.0685 4.24865 13.0681 4.24813 13.0678 4.24761C12.9565 4.06463 12.7999 3.91333 12.6133 3.80823C12.4261 3.70283 12.2149 3.64746 12 3.64746C11.7852 3.64746 11.574 3.70283 11.3868 3.80823C11.2001 3.91333 11.0436 4.06463 10.9322 4.24761Z" fill="black"/>
</svg>
