<svg viewbox="0 0 16 16" width="16" height="16" fill="black" xmlns="http://www.w3.org/2000/svg">
 <g transform="translate(0.2500152587890625, 1.25)">
  <path d="M0.75 0C0.335786 0 0 0.335786 0 0.75L0 9.75C0 10.1642 0.335786 10.5 0.75 10.5L1.29984 10.5C1.10812 10.875 0.999985 11.2999 0.999985 11.75C0.999985 13.2688 2.2312 14.5 3.74998 14.5C5.26877 14.5 6.49998 13.2688 6.49998 11.75C6.49998 11.2999 6.39185 10.875 6.20013 10.5L9.29984 10.5C9.10812 10.875 8.99998 11.2999 8.99998 11.75C8.99998 13.2688 10.2312 14.5 11.75 14.5C13.2688 14.5 14.5 13.2688 14.5 11.75C14.5 11.2999 14.3918 10.875 14.2001 10.5L14.75 10.5C15.1642 10.5 15.5 10.1642 15.5 9.75L15.5 5.75C15.5 5.55109 15.421 5.36032 15.2803 5.21967L13.2803 3.21967C13.1397 3.07902 12.9489 3 12.75 3L11.5 3L11.5 0.75C11.5 0.335786 11.1642 0 10.75 0L0.75 0ZM14 9L14 6.06066L12.4393 4.5L11.5 4.5L11.5 9L14 9ZM11.75 10.5C11.0596 10.5 10.5 11.0596 10.5 11.75C10.5 12.4404 11.0596 13 11.75 13C12.4403 13 13 12.4404 13 11.75C13 11.0596 12.4403 10.5 11.75 10.5ZM2.49998 11.75C2.49998 11.0596 3.05963 10.5 3.74998 10.5C4.44034 10.5 4.99998 11.0596 4.99998 11.75C4.99998 12.4404 4.44034 13 3.74998 13C3.05963 13 2.49998 12.4404 2.49998 11.75ZM10 9L1.5 9L1.5 1.5L10 1.5L10 9Z" fill-rule="EVENODD"></path>
 </g>
</svg>