<svg width="16" height="16" viewBox="0 0 16 16" fill="none" xmlns="http://www.w3.org/2000/svg">
<path fill-rule="evenodd" clip-rule="evenodd" d="M5.03033 0.96967C4.73744 0.676777 4.26256 0.676777 3.96967 0.96967C3.67678 1.26256 3.67678 1.73744 3.96967 2.03033L6.18934 4.25H2.33335C1.18276 4.25 0.250021 5.18274 0.25002 6.33333L0.25 13.6667C0.25 14.8173 1.18274 15.75 2.33333 15.75H13.6666C14.8172 15.75 15.75 14.8173 15.75 13.6667L15.75 6.33333C15.75 5.18274 14.8173 4.25 13.6667 4.25H9.81066L12.0303 2.03033C12.3232 1.73744 12.3232 1.26256 12.0303 0.96967C11.7374 0.676777 11.2626 0.676777 10.9697 0.96967L8 3.93934L5.03033 0.96967ZM1.75002 6.33333C1.75002 6.01117 2.01119 5.75 2.33335 5.75H13.6667C13.9888 5.75 14.25 6.01117 14.25 6.33333L14.25 13.6667C14.25 13.9888 13.9888 14.25 13.6666 14.25H2.33333C2.01117 14.25 1.75 13.9888 1.75 13.6667L1.75002 6.33333Z" fill="black"/>
</svg>
