<svg width="24" height="24" viewBox="0 0 24 24" fill="none" xmlns="http://www.w3.org/2000/svg">
<path fill-rule="evenodd" clip-rule="evenodd" d="M7.53033 1.46967C7.23744 1.17678 6.76256 1.17678 6.46967 1.46967C6.17678 1.76256 6.17678 2.23744 6.46967 2.53033L10.1893 6.25H4C2.48122 6.25 1.25 7.48122 1.25 9V20C1.25 21.5188 2.48122 22.75 4 22.75H20C21.5188 22.75 22.75 21.5188 22.75 20V9C22.75 7.48122 21.5188 6.25 20 6.25H13.8107L17.5303 2.53033C17.8232 2.23744 17.8232 1.76256 17.5303 1.46967C17.2374 1.17678 16.7626 1.17678 16.4697 1.46967L12 5.93934L7.53033 1.46967ZM2.75 9C2.75 8.30964 3.30964 7.75 4 7.75H20C20.6904 7.75 21.25 8.30964 21.25 9V20C21.25 20.6904 20.6904 21.25 20 21.25H4C3.30964 21.25 2.75 20.6904 2.75 20V9Z" fill="black"/>
</svg>
