<svg viewBox="0 0 24 24" width="24" height="24" fill="black" xmlns="http://www.w3.org/2000/svg">
 <g transform="translate(1.25, 1.25)">
  <path d="M6.28033 0.21967C5.98744 -0.0732233 5.51256 -0.0732233 5.21967 0.21967C4.92678 0.512563 4.92678 0.987437 5.21967 1.28033L8.93934 5L2.75 5C1.23122 5 0 6.23122 0 7.75L0 18.75C0 20.2688 1.23122 21.5 2.75 21.5L18.75 21.5C20.2688 21.5 21.5 20.2688 21.5 18.75L21.5 7.75C21.5 6.23122 20.2688 5 18.75 5L12.5607 5L16.2803 1.28033C16.5732 0.987437 16.5732 0.512563 16.2803 0.21967C15.9874 -0.0732233 15.5126 -0.0732233 15.2197 0.21967L10.75 4.68934L6.28033 0.21967ZM1.5 7.75C1.5 7.05964 2.05964 6.5 2.75 6.5L18.75 6.5C19.4404 6.5 20 7.05964 20 7.75L20 18.75C20 19.4404 19.4404 20 18.75 20L2.75 20C2.05964 20 1.5 19.4404 1.5 18.75L1.5 7.75Z" fill-rule="EVENODD"></path>
 </g>
</svg>