<svg width="24" height="24" viewBox="0 0 24 24" fill="none" xmlns="http://www.w3.org/2000/svg">
<path d="M3.125 4C3.125 3.51675 3.51675 3.125 4 3.125H20C20.4832 3.125 20.875 3.51675 20.875 4V7C20.875 7.48325 20.4832 7.875 20 7.875C19.5168 7.875 19.125 7.48325 19.125 7V4.875H12.875V19.125H15C15.4832 19.125 15.875 19.5168 15.875 20C15.875 20.4832 15.4832 20.875 15 20.875H9C8.51675 20.875 8.125 20.4832 8.125 20C8.125 19.5168 8.51675 19.125 9 19.125H11.125V4.875H4.875V7C4.875 7.48325 4.48325 7.875 4 7.875C3.51675 7.875 3.125 7.48325 3.125 7V4Z" fill="black"/>
</svg>
