<svg viewbox="0 0 16 16" width="16" height="16" fill="black" xmlns="http://www.w3.org/2000/svg">
 <g transform="translate(2.25, 2.25)">
  <path d="M0 0.75C0 0.335786 0.335786 0 0.75 0L10.75 0C11.1642 0 11.5 0.335786 11.5 0.75L11.5 2.25C11.5 2.66421 11.1642 3 10.75 3C10.3358 3 10 2.66421 10 2.25L10 1.5L6.5 1.5L6.5 10L7.75 10C8.16421 10 8.5 10.3358 8.5 10.75C8.5 11.1642 8.16421 11.5 7.75 11.5L3.75 11.5C3.33579 11.5 3 11.1642 3 10.75C3 10.3358 3.33579 10 3.75 10L5 10L5 1.5L1.5 1.5L1.5 2.25C1.5 2.66421 1.16421 3 0.75 3C0.335786 3 0 2.66421 0 2.25L0 0.75Z" fill-rule="NONZERO"></path>
 </g>
</svg>