<svg width="16" height="16" viewBox="0 0 16 16" fill="none" xmlns="http://www.w3.org/2000/svg">
<path d="M2.25 3C2.25 2.58579 2.58579 2.25 3 2.25H13C13.4142 2.25 13.75 2.58579 13.75 3V4.5C13.75 4.91421 13.4142 5.25 13 5.25C12.5858 5.25 12.25 4.91421 12.25 4.5V3.75H8.75V12.25H10C10.4142 12.25 10.75 12.5858 10.75 13C10.75 13.4142 10.4142 13.75 10 13.75H6C5.58579 13.75 5.25 13.4142 5.25 13C5.25 12.5858 5.58579 12.25 6 12.25H7.25V3.75H3.75V4.5C3.75 4.91421 3.41421 5.25 3 5.25C2.58579 5.25 2.25 4.91421 2.25 4.5V3Z" fill="black"/>
</svg>
