<svg width="16" height="16" viewBox="0 0 16 16" fill="none" xmlns="http://www.w3.org/2000/svg">
<path d="M7.46967 0.96967C7.76256 0.676777 8.23744 0.676777 8.53033 0.96967L12.0303 4.46967C12.3232 4.76256 12.3232 5.23744 12.0303 5.53033C11.7374 5.82322 11.2626 5.82322 10.9697 5.53033L8 2.56066L5.03033 5.53033C4.73744 5.82322 4.26256 5.82322 3.96967 5.53033C3.67678 5.23744 3.67678 4.76256 3.96967 4.46967L7.46967 0.96967Z" fill="black"/>
<path d="M8 15.25C7.80109 15.25 7.61032 15.171 7.46967 15.0303L3.96967 11.5303C3.67678 11.2374 3.67678 10.7626 3.96967 10.4697C4.26256 10.1768 4.73744 10.1768 5.03033 10.4697L8 13.4393L10.9697 10.4697C11.2626 10.1768 11.7374 10.1768 12.0303 10.4697C12.3232 10.7626 12.3232 11.2374 12.0303 11.5303L8.53033 15.0303C8.38968 15.171 8.19891 15.25 8 15.25Z" fill="black"/>
<path d="M1.99997 7.37354C1.65397 7.37354 1.37347 7.65403 1.37347 8.00004C1.37347 8.34604 1.65397 8.62654 1.99997 8.62654H2.47997C2.82598 8.62654 3.10647 8.34604 3.10647 8.00004C3.10647 7.65403 2.82598 7.37354 2.47997 7.37354H1.99997Z" fill="black"/>
<path d="M4.87997 7.37354C4.53397 7.37354 4.25347 7.65403 4.25347 8.00004C4.25347 8.34604 4.53397 8.62654 4.87997 8.62654H5.35997C5.70598 8.62654 5.98647 8.34604 5.98647 8.00004C5.98647 7.65403 5.70598 7.37354 5.35997 7.37354H4.87997Z" fill="black"/>
<path d="M7.75997 7.37354C7.41397 7.37354 7.13347 7.65403 7.13347 8.00004C7.13347 8.34604 7.41397 8.62654 7.75997 8.62654H8.23997C8.58598 8.62654 8.86647 8.34604 8.86647 8.00004C8.86647 7.65403 8.58598 7.37354 8.23997 7.37354H7.75997Z" fill="black"/>
<path d="M10.64 7.37354C10.294 7.37354 10.0135 7.65403 10.0135 8.00004C10.0135 8.34604 10.294 8.62654 10.64 8.62654H11.12C11.466 8.62654 11.7465 8.34604 11.7465 8.00004C11.7465 7.65403 11.466 7.37354 11.12 7.37354H10.64Z" fill="black"/>
<path d="M13.52 7.37354C13.174 7.37354 12.8935 7.65403 12.8935 8.00004C12.8935 8.34604 13.174 8.62654 13.52 8.62654H14C14.346 8.62654 14.6265 8.34604 14.6265 8.00004C14.6265 7.65403 14.346 7.37354 14 7.37354H13.52Z" fill="black"/>
</svg>
