<svg width="24" height="24" viewBox="0 0 24 24" fill="none" xmlns="http://www.w3.org/2000/svg">
<path d="M11.3813 8.61872L6.38128 3.61872C6.03957 3.27701 6.03957 2.72299 6.38128 2.38128C6.72299 2.03957 7.27701 2.03957 7.61872 2.38128L12 6.76256L16.3813 2.38128C16.723 2.03957 17.277 2.03957 17.6187 2.38128C17.9604 2.72299 17.9604 3.27701 17.6187 3.61872L12.6187 8.61872C12.277 8.96043 11.723 8.96043 11.3813 8.61872Z" fill="black"/>
<path d="M12.6187 15.3813L17.6187 20.3813C17.9604 20.723 17.9604 21.277 17.6187 21.6187C17.277 21.9604 16.723 21.9604 16.3813 21.6187L12 17.2374L7.61872 21.6187C7.27701 21.9604 6.72299 21.9604 6.38128 21.6187C6.03957 21.277 6.03957 20.723 6.38128 20.3813L11.3813 15.3813C11.723 15.0396 12.277 15.0396 12.6187 15.3813Z" fill="black"/>
<path d="M1.25 11.25C0.835786 11.25 0.5 11.5858 0.5 12C0.5 12.4142 0.835786 12.75 1.25 12.75H2.75C3.16421 12.75 3.5 12.4142 3.5 12C3.5 11.5858 3.16421 11.25 2.75 11.25H1.25Z" fill="black"/>
<path d="M6.25 11.25C5.83579 11.25 5.5 11.5858 5.5 12C5.5 12.4142 5.83579 12.75 6.25 12.75H7.75C8.16421 12.75 8.5 12.4142 8.5 12C8.5 11.5858 8.16421 11.25 7.75 11.25H6.25Z" fill="black"/>
<path d="M11.25 11.25C10.8358 11.25 10.5 11.5858 10.5 12C10.5 12.4142 10.8358 12.75 11.25 12.75H12.75C13.1642 12.75 13.5 12.4142 13.5 12C13.5 11.5858 13.1642 11.25 12.75 11.25H11.25Z" fill="black"/>
<path d="M16.25 11.25C15.8358 11.25 15.5 11.5858 15.5 12C15.5 12.4142 15.8358 12.75 16.25 12.75H17.75C18.1642 12.75 18.5 12.4142 18.5 12C18.5 11.5858 18.1642 11.25 17.75 11.25H16.25Z" fill="black"/>
<path d="M21.25 11.25C20.8358 11.25 20.5 11.5858 20.5 12C20.5 12.4142 20.8358 12.75 21.25 12.75H22.75C23.1642 12.75 23.5 12.4142 23.5 12C23.5 11.5858 23.1642 11.25 22.75 11.25H21.25Z" fill="black"/>
</svg>
