<svg viewbox="0 0 16 16" width="16" height="16" fill="black" xmlns="http://www.w3.org/2000/svg">
 <g transform="translate(1.37347412109375, 0.7500004768371582)">
  <path d="M6.0962 4.78033L2.5962 1.28033C2.3033 0.987437 2.3033 0.512563 2.5962 0.21967C2.88909 -0.0732234 3.36396 -0.0732234 3.65686 0.21967L6.62653 3.18934L9.5962 0.21967C9.88909 -0.0732234 10.364 -0.0732234 10.6569 0.21967C10.9497 0.512563 10.9497 0.987437 10.6569 1.28033L7.15686 4.78033C6.86396 5.07322 6.38909 5.07322 6.0962 4.78033Z" fill-rule="NONZERO"></path>
  <path d="M6.62653 9.5C6.82544 9.5 7.0162 9.57902 7.15686 9.71967L10.6569 13.2197C10.9497 13.5126 10.9497 13.9874 10.6569 14.2803C10.364 14.5732 9.88909 14.5732 9.5962 14.2803L6.62653 11.3107L3.65686 14.2803C3.36396 14.5732 2.88909 14.5732 2.5962 14.2803C2.3033 13.9874 2.3033 13.5126 2.5962 13.2197L6.0962 9.71967C6.23685 9.57902 6.42761 9.5 6.62653 9.5Z" fill-rule="NONZERO"></path>
  <path d="M0.6265 6.62354C0.280494 6.62354 0 6.90403 0 7.25004C0 7.59604 0.280494 7.87654 0.6265 7.87654L1.1065 7.87654C1.45251 7.87654 1.733 7.59604 1.733 7.25004C1.733 6.90403 1.45251 6.62354 1.1065 6.62354L0.6265 6.62354Z" fill-rule="NONZERO"></path>
  <path d="M3.5065 6.62354C3.16049 6.62354 2.88 6.90403 2.88 7.25004C2.88 7.59604 3.16049 7.87654 3.5065 7.87654L3.9865 7.87654C4.33251 7.87654 4.613 7.59604 4.613 7.25004C4.613 6.90403 4.33251 6.62354 3.9865 6.62354L3.5065 6.62354Z" fill-rule="NONZERO"></path>
  <path d="M6.3865 6.62354C6.04049 6.62354 5.76 6.90403 5.76 7.25004C5.76 7.59604 6.04049 7.87654 6.3865 7.87654L6.8665 7.87654C7.21251 7.87654 7.493 7.59604 7.493 7.25004C7.493 6.90403 7.21251 6.62354 6.8665 6.62354L6.3865 6.62354Z" fill-rule="NONZERO"></path>
  <path d="M9.2665 6.62354C8.92049 6.62354 8.64 6.90403 8.64 7.25004C8.64 7.59604 8.92049 7.87654 9.2665 7.87654L9.7465 7.87654C10.0925 7.87654 10.373 7.59604 10.373 7.25004C10.373 6.90403 10.0925 6.62354 9.7465 6.62354L9.2665 6.62354Z" fill-rule="NONZERO"></path>
  <path d="M12.1465 6.62354C11.8005 6.62354 11.52 6.90403 11.52 7.25004C11.52 7.59604 11.8005 7.87654 12.1465 7.87654L12.6265 7.87654C12.9725 7.87654 13.253 7.59604 13.253 7.25004C13.253 6.90403 12.9725 6.62354 12.6265 6.62354L12.1465 6.62354Z" fill-rule="NONZERO"></path>
 </g>
</svg>