<svg width="24" height="24" viewBox="0 0 24 24" fill="none" xmlns="http://www.w3.org/2000/svg">
<path fill-rule="evenodd" clip-rule="evenodd" d="M11.5729 2.76616C12.6215 2.66024 13.6721 2.94773 14.5207 3.57283C15.3692 4.19793 15.9553 5.11603 16.165 6.14891C16.2474 6.55484 16.6433 6.81709 17.0492 6.73467C17.4552 6.65224 17.7174 6.25635 17.635 5.85042C17.3512 4.45299 16.5584 3.21085 15.4103 2.36513C14.2622 1.51941 12.8409 1.13045 11.4221 1.27375C10.0034 1.41706 8.68854 2.08241 7.73278 3.14064C6.79146 4.18288 6.25 5.29361 6.25 6.99967V10.25H5C3.48122 10.25 2.25 11.4812 2.25 13V20C2.25 21.5188 3.48122 22.75 5 22.75H19C20.5188 22.75 21.75 21.5188 21.75 20V13C21.75 11.4812 20.5188 10.25 19 10.25H7.75V6.99967C7.75 5.70555 8.1251 4.94419 8.84597 4.14603C9.5524 3.36386 10.5243 2.87208 11.5729 2.76616ZM3.75 13C3.75 12.3096 4.30964 11.75 5 11.75H19C19.6904 11.75 20.25 12.3096 20.25 13V20C20.25 20.6904 19.6904 21.25 19 21.25H5C4.30964 21.25 3.75 20.6904 3.75 20V13Z" fill="black"/>
</svg>
