<svg width="16" height="16" viewBox="0 0 16 16" fill="none" xmlns="http://www.w3.org/2000/svg">
<path d="M8.53034 1.46968C8.39462 1.33395 8.20711 1.25 8 1.25C7.79289 1.25 7.60539 1.33395 7.46967 1.46967L3.96967 4.96967C3.67678 5.26256 3.67678 5.73744 3.96967 6.03033C4.26256 6.32322 4.73744 6.32322 5.03033 6.03033L7.25 3.81066V10C7.25 10.4142 7.58579 10.75 8 10.75C8.41421 10.75 8.75 10.4142 8.75 10V3.81066L10.9697 6.03033C11.2626 6.32322 11.7374 6.32322 12.0303 6.03033C12.3232 5.73744 12.3232 5.26256 12.0303 4.96967L8.53034 1.46968Z" fill="black"/>
<path d="M2 9.25C2.41421 9.25 2.75 9.58579 2.75 10V12.6667C2.75 12.8214 2.81146 12.9697 2.92085 13.0791C3.03025 13.1885 3.17862 13.25 3.33333 13.25H12.6667C12.8214 13.25 12.9697 13.1885 13.0791 13.0791C13.1885 12.9697 13.25 12.8214 13.25 12.6667V10C13.25 9.58579 13.5858 9.25 14 9.25C14.4142 9.25 14.75 9.58579 14.75 10V12.6667C14.75 13.2192 14.5305 13.7491 14.1398 14.1398C13.7491 14.5305 13.2192 14.75 12.6667 14.75H3.33333C2.7808 14.75 2.25089 14.5305 1.86019 14.1398C1.46949 13.7491 1.25 13.2192 1.25 12.6667V10C1.25 9.58579 1.58579 9.25 2 9.25Z" fill="black"/>
</svg>
