<svg viewbox="0 0 16 16" width="16" height="16" fill="black" xmlns="http://www.w3.org/2000/svg">
 <g transform="translate(1.25, 1.25)">
  <path d="M7.28034 0.219682C7.14462 0.0839517 6.95711 0 6.75 0C6.54289 0 6.35539 0.0839466 6.21967 0.21967L2.71967 3.71967C2.42678 4.01256 2.42678 4.48744 2.71967 4.78033C3.01256 5.07322 3.48744 5.07322 3.78033 4.78033L6 2.56066L6 8.75C6 9.16421 6.33579 9.5 6.75 9.5C7.16421 9.5 7.5 9.16421 7.5 8.75L7.5 2.56066L9.71967 4.78033C10.0126 5.07322 10.4874 5.07322 10.7803 4.78033C11.0732 4.48744 11.0732 4.01256 10.7803 3.71967L7.28034 0.219682Z" fill-rule="NONZERO"></path>
  <path d="M0.75 8C1.16421 8 1.5 8.33579 1.5 8.75L1.5 11.4167C1.5 11.5714 1.56146 11.7197 1.67085 11.8291C1.78025 11.9385 1.92862 12 2.08333 12L11.4167 12C11.5714 12 11.7197 11.9385 11.8291 11.8291C11.9385 11.7197 12 11.5714 12 11.4167L12 8.75C12 8.33579 12.3358 8 12.75 8C13.1642 8 13.5 8.33579 13.5 8.75L13.5 11.4167C13.5 11.9692 13.2805 12.4991 12.8898 12.8898C12.4991 13.2805 11.9692 13.5 11.4167 13.5L2.08333 13.5C1.5308 13.5 1.00089 13.2805 0.610194 12.8898C0.219493 12.4991 0 11.9692 0 11.4167L0 8.75C0 8.33579 0.335786 8 0.75 8Z" fill-rule="NONZERO"></path>
 </g>
</svg>