<svg width="24" height="24" viewBox="0 0 24 24" fill="none" xmlns="http://www.w3.org/2000/svg">
<path fill-rule="evenodd" clip-rule="evenodd" d="M3.75 7C3.75 4.37665 5.87665 2.25 8.5 2.25C11.1234 2.25 13.25 4.37665 13.25 7C13.25 9.62335 11.1234 11.75 8.5 11.75C5.87665 11.75 3.75 9.62335 3.75 7ZM8.5 3.75C6.70507 3.75 5.25 5.20507 5.25 7C5.25 8.79493 6.70507 10.25 8.5 10.25C10.2949 10.25 11.75 8.79493 11.75 7C11.75 5.20507 10.2949 3.75 8.5 3.75Z" fill="black"/>
<path d="M1.64124 15.6412C2.53204 14.7504 3.74022 14.25 5 14.25H12C13.2598 14.25 14.468 14.7504 15.3588 15.6412C16.2496 16.532 16.75 17.7402 16.75 19V21C16.75 21.4142 16.4142 21.75 16 21.75C15.5858 21.75 15.25 21.4142 15.25 21V19C15.25 18.138 14.9076 17.3114 14.2981 16.7019C13.6886 16.0924 12.862 15.75 12 15.75H5C4.13805 15.75 3.3114 16.0924 2.7019 16.7019C2.09241 17.3114 1.75 18.138 1.75 19V21C1.75 21.4142 1.41421 21.75 1 21.75C0.585786 21.75 0.25 21.4142 0.25 21V19C0.25 17.7402 0.750445 16.532 1.64124 15.6412Z" fill="black"/>
<path d="M23.6187 9.61872C23.9604 9.27701 23.9604 8.72299 23.6187 8.38128C23.277 8.03957 22.723 8.03957 22.3813 8.38128L19 11.7626L17.6187 10.3813C17.277 10.0396 16.723 10.0396 16.3813 10.3813C16.0396 10.723 16.0396 11.277 16.3813 11.6187L18.3813 13.6187C18.723 13.9604 19.277 13.9604 19.6187 13.6187L23.6187 9.61872Z" fill="black"/>
</svg>
