<svg width="24" height="24" viewBox="0 0 24 24" fill="none" xmlns="http://www.w3.org/2000/svg">
<path fill-rule="evenodd" clip-rule="evenodd" d="M8.5 2.25C5.87665 2.25 3.75 4.37665 3.75 7C3.75 9.62335 5.87665 11.75 8.5 11.75C11.1234 11.75 13.25 9.62335 13.25 7C13.25 4.37665 11.1234 2.25 8.5 2.25ZM5.25 7C5.25 5.20507 6.70507 3.75 8.5 3.75C10.2949 3.75 11.75 5.20507 11.75 7C11.75 8.79493 10.2949 10.25 8.5 10.25C6.70507 10.25 5.25 8.79493 5.25 7Z" fill="black"/>
<path d="M5 14.25C3.74022 14.25 2.53204 14.7504 1.64124 15.6412C0.750445 16.532 0.25 17.7402 0.25 19V21C0.25 21.4142 0.585786 21.75 1 21.75C1.41421 21.75 1.75 21.4142 1.75 21V19C1.75 18.138 2.09241 17.3114 2.7019 16.7019C3.3114 16.0924 4.13805 15.75 5 15.75H12C12.862 15.75 13.6886 16.0924 14.2981 16.7019C14.9076 17.3114 15.25 18.138 15.25 19V21C15.25 21.4142 15.5858 21.75 16 21.75C16.4142 21.75 16.75 21.4142 16.75 21V19C16.75 17.7402 16.2496 16.532 15.3588 15.6412C14.468 14.7504 13.2598 14.25 12 14.25H5Z" fill="black"/>
<path d="M17.3813 7.38128C17.723 7.03957 18.277 7.03957 18.6187 7.38128L20.5 9.26256L22.3813 7.38128C22.723 7.03957 23.277 7.03957 23.6187 7.38128C23.9604 7.72299 23.9604 8.27701 23.6187 8.61872L21.7374 10.5L23.6187 12.3813C23.9604 12.723 23.9604 13.277 23.6187 13.6187C23.277 13.9604 22.723 13.9604 22.3813 13.6187L20.5 11.7374L18.6187 13.6187C18.277 13.9604 17.723 13.9604 17.3813 13.6187C17.0396 13.277 17.0396 12.723 17.3813 12.3813L19.2626 10.5L17.3813 8.61872C17.0396 8.27701 17.0396 7.72299 17.3813 7.38128Z" fill="black"/>
</svg>
