<svg viewbox="0 0 16 16" width="16" height="16" fill="black" xmlns="http://www.w3.org/2000/svg">
 <g transform="translate(1.75, 1.25)">
  <path d="M6.25 0C4.17893 0 2.5 1.67893 2.5 3.75C2.5 5.82107 4.17893 7.5 6.25 7.5C8.32107 7.5 10 5.82107 10 3.75C10 1.67893 8.32107 0 6.25 0ZM4 3.75C4 2.50736 5.00736 1.5 6.25 1.5C7.49264 1.5 8.5 2.50736 8.5 3.75C8.5 4.99264 7.49264 6 6.25 6C5.00736 6 4 4.99264 4 3.75Z" fill-rule="EVENODD"></path>
  <path d="M3.41667 8.5C2.51051 8.5 1.64147 8.85997 1.00072 9.50072C0.359969 10.1415 0 11.0105 0 11.9167L1.00136e-05 12.7499C1.50204e-05 13.1641 0.335805 13.4999 0.750019 13.4999C1.16423 13.4999 1.50002 13.1641 1.50001 12.7499L1.5 11.9167C1.5 11.4083 1.70194 10.9208 2.06138 10.5614C2.42082 10.2019 2.90834 10 3.41667 10L9.08333 10C9.59167 10 10.0792 10.2019 10.4386 10.5614C10.7981 10.9208 11 11.4083 11 11.9167L11 12.7499C11 13.1641 11.3358 13.4999 11.75 13.4999C12.1642 13.4999 12.5 13.1641 12.5 12.7499L12.5 11.9167C12.5 11.0105 12.14 10.1415 11.4993 9.50072C10.8585 8.85997 9.98949 8.5 9.08333 8.5L3.41667 8.5Z" fill-rule="NONZERO"></path>
 </g>
</svg>