<svg viewbox="0 0 16 16" width="16" height="16" fill="black" xmlns="http://www.w3.org/2000/svg">
 <g transform="translate(0.25, 0.25)">
  <path d="M0 7.75C0 3.46979 3.46979 0 7.75 0C12.0302 0 15.5 3.46979 15.5 7.75C15.5 12.0302 12.0302 15.5 7.75 15.5C3.46979 15.5 0 12.0302 0 7.75ZM3.35154 9.98051C3.90656 9.36382 4.67732 9 5.5 9L10 9C10.8227 9 11.5934 9.36382 12.1485 9.98051C12.7011 10.5946 13 11.4121 13 12.25C13 12.6642 12.6642 13 12.25 13C11.8358 13 11.5 12.6642 11.5 12.25C11.5 11.7619 11.3248 11.3076 11.0335 10.984C10.7446 10.663 10.3708 10.5 10 10.5L5.5 10.5C5.1292 10.5 4.75537 10.663 4.46648 10.984C4.17524 11.3076 4 11.7619 4 12.25C4 12.6642 3.66421 13 3.25 13C2.83579 13 2.5 12.6642 2.5 12.25C2.5 11.4121 2.79886 10.5946 3.35154 9.98051ZM6.5 5.08333C6.5 4.39298 7.05964 3.83333 7.75 3.83333C8.44036 3.83333 9 4.39298 9 5.08333C9 5.77369 8.44036 6.33333 7.75 6.33333C7.05964 6.33333 6.5 5.77369 6.5 5.08333ZM7.75 2.33333C6.23122 2.33333 5 3.56455 5 5.08333C5 6.60212 6.23122 7.83333 7.75 7.83333C9.26878 7.83333 10.5 6.60212 10.5 5.08333C10.5 3.56455 9.26878 2.33333 7.75 2.33333Z" fill-rule="EVENODD"></path>
 </g>
</svg>