<svg width="16" height="16" viewBox="0 0 16 16" fill="none" xmlns="http://www.w3.org/2000/svg">
<path fill-rule="evenodd" clip-rule="evenodd" d="M8 1.25C5.92893 1.25 4.25 2.92893 4.25 5C4.25 7.07107 5.92893 8.75 8 8.75C10.0711 8.75 11.75 7.07107 11.75 5C11.75 2.92893 10.0711 1.25 8 1.25ZM5.75 5C5.75 3.75736 6.75736 2.75 8 2.75C9.24264 2.75 10.25 3.75736 10.25 5C10.25 6.24264 9.24264 7.25 8 7.25C6.75736 7.25 5.75 6.24264 5.75 5Z" fill="black"/>
<path d="M5.16667 9.75C4.26051 9.75 3.39147 10.11 2.75072 10.7507C2.10997 11.3915 1.75 12.2605 1.75 13.1667L1.75001 13.9999C1.75002 14.4141 2.08581 14.7499 2.50002 14.7499C2.91423 14.7499 3.25002 14.4141 3.25001 13.9999L3.25 13.1667C3.25 12.6583 3.45194 12.1708 3.81138 11.8114C4.17082 11.4519 4.65834 11.25 5.16667 11.25H10.8333C11.3417 11.25 11.8292 11.4519 12.1886 11.8114C12.5481 12.1708 12.75 12.6583 12.75 13.1667L12.75 13.9999C12.75 14.4141 13.0858 14.7499 13.5 14.7499C13.9142 14.7499 14.25 14.4141 14.25 13.9999L14.25 13.1667C14.25 12.2605 13.89 11.3915 13.2493 10.7507C12.6085 10.11 11.7395 9.75 10.8333 9.75H5.16667Z" fill="black"/>
</svg>
