<svg viewbox="0 0 24 24" width="24" height="24" fill="black" xmlns="http://www.w3.org/2000/svg">
 <g transform="translate(0.25, 2.25)">
  <path d="M3.5 4.75C3.5 2.12665 5.62665 0 8.25 0C10.8734 0 13 2.12665 13 4.75C13 7.37335 10.8734 9.5 8.25 9.5C5.62665 9.5 3.5 7.37335 3.5 4.75ZM8.25 1.5C6.45507 1.5 5 2.95507 5 4.75C5 6.54493 6.45507 8 8.25 8C10.0449 8 11.5 6.54493 11.5 4.75C11.5 2.95507 10.0449 1.5 8.25 1.5Z" fill-rule="EVENODD"></path>
  <path d="M1.39124 13.3912C2.28204 12.5004 3.49022 12 4.75 12L11.75 12C13.0098 12 14.218 12.5004 15.1088 13.3912C15.9996 14.282 16.5 15.4902 16.5 16.75L16.5 18.75C16.5 19.1642 16.1642 19.5 15.75 19.5C15.3358 19.5 15 19.1642 15 18.75L15 16.75C15 15.888 14.6576 15.0614 14.0481 14.4519C13.4386 13.8424 12.612 13.5 11.75 13.5L4.75 13.5C3.88805 13.5 3.0614 13.8424 2.4519 14.4519C1.84241 15.0614 1.5 15.888 1.5 16.75L1.5 18.75C1.5 19.1642 1.16421 19.5 0.75 19.5C0.335786 19.5 0 19.1642 0 18.75L0 16.75C0 15.4902 0.500445 14.282 1.39124 13.3912Z" fill-rule="NONZERO"></path>
  <path d="M23.3687 7.36872C23.7104 7.02701 23.7104 6.47299 23.3687 6.13128C23.027 5.78957 22.473 5.78957 22.1313 6.13128L18.75 9.51256L17.3687 8.13128C17.027 7.78957 16.473 7.78957 16.1313 8.13128C15.7896 8.47299 15.7896 9.02701 16.1313 9.36872L18.1313 11.3687C18.473 11.7104 19.027 11.7104 19.3687 11.3687L23.3687 7.36872Z" fill-rule="NONZERO"></path>
 </g>
</svg>