<svg width="24" height="24" viewBox="0 0 24 24" fill="none" xmlns="http://www.w3.org/2000/svg">
<path fill-rule="evenodd" clip-rule="evenodd" d="M8.5 2.25C5.87665 2.25 3.75 4.37665 3.75 7C3.75 9.62335 5.87665 11.75 8.5 11.75C11.1234 11.75 13.25 9.62335 13.25 7C13.25 4.37665 11.1234 2.25 8.5 2.25ZM5.25 7C5.25 5.20507 6.70507 3.75 8.5 3.75C10.2949 3.75 11.75 5.20507 11.75 7C11.75 8.79493 10.2949 10.25 8.5 10.25C6.70507 10.25 5.25 8.79493 5.25 7Z" fill="black"/>
<path d="M5 14.25C3.74022 14.25 2.53204 14.7504 1.64124 15.6412C0.750445 16.532 0.25 17.7402 0.25 19V21C0.25 21.4142 0.585786 21.75 1 21.75C1.41421 21.75 1.75 21.4142 1.75 21V19C1.75 18.138 2.09241 17.3114 2.7019 16.7019C3.3114 16.0924 4.13805 15.75 5 15.75H12C12.862 15.75 13.6886 16.0924 14.2981 16.7019C14.9076 17.3114 15.25 18.138 15.25 19V21C15.25 21.4142 15.5858 21.75 16 21.75C16.4142 21.75 16.75 21.4142 16.75 21V19C16.75 17.7402 16.2496 16.532 15.3588 15.6412C14.468 14.7504 13.2598 14.25 12 14.25H5Z" fill="black"/>
<path d="M20 7.125C20.4832 7.125 20.875 7.51675 20.875 8V10.125H23C23.4832 10.125 23.875 10.5168 23.875 11C23.875 11.4832 23.4832 11.875 23 11.875H20.875V14C20.875 14.4832 20.4832 14.875 20 14.875C19.5168 14.875 19.125 14.4832 19.125 14V11.875H17C16.5168 11.875 16.125 11.4832 16.125 11C16.125 10.5168 16.5168 10.125 17 10.125H19.125V8C19.125 7.51675 19.5168 7.125 20 7.125Z" fill="black"/>
</svg>
