<svg viewbox="0 0 24 24" width="24" height="24" fill="black" xmlns="http://www.w3.org/2000/svg">
 <g transform="translate(0.25, 2.25)">
  <path d="M8.25 0C5.62665 0 3.5 2.12665 3.5 4.75C3.5 7.37335 5.62665 9.5 8.25 9.5C10.8734 9.5 13 7.37335 13 4.75C13 2.12665 10.8734 0 8.25 0ZM5 4.75C5 2.95507 6.45507 1.5 8.25 1.5C10.0449 1.5 11.5 2.95507 11.5 4.75C11.5 6.54493 10.0449 8 8.25 8C6.45507 8 5 6.54493 5 4.75Z" fill-rule="EVENODD"></path>
  <path d="M4.75 12C3.49022 12 2.28204 12.5004 1.39124 13.3912C0.500445 14.282 0 15.4902 0 16.75L0 18.75C0 19.1642 0.335786 19.5 0.75 19.5C1.16421 19.5 1.5 19.1642 1.5 18.75L1.5 16.75C1.5 15.888 1.84241 15.0614 2.4519 14.4519C3.0614 13.8424 3.88805 13.5 4.75 13.5L11.75 13.5C12.612 13.5 13.4386 13.8424 14.0481 14.4519C14.6576 15.0614 15 15.888 15 16.75L15 18.75C15 19.1642 15.3358 19.5 15.75 19.5C16.1642 19.5 16.5 19.1642 16.5 18.75L16.5 16.75C16.5 15.4902 15.9996 14.282 15.1088 13.3912C14.218 12.5004 13.0098 12 11.75 12L4.75 12Z" fill-rule="NONZERO"></path>
  <path d="M19.75 4.875C20.2332 4.875 20.625 5.26675 20.625 5.75L20.625 7.875L22.75 7.875C23.2332 7.875 23.625 8.26675 23.625 8.75C23.625 9.23325 23.2332 9.625 22.75 9.625L20.625 9.625L20.625 11.75C20.625 12.2332 20.2332 12.625 19.75 12.625C19.2668 12.625 18.875 12.2332 18.875 11.75L18.875 9.625L16.75 9.625C16.2668 9.625 15.875 9.23325 15.875 8.75C15.875 8.26675 16.2668 7.875 16.75 7.875L18.875 7.875L18.875 5.75C18.875 5.26675 19.2668 4.875 19.75 4.875Z" fill-rule="NONZERO"></path>
 </g>
</svg>