<svg width="16" height="16" viewBox="0 0 16 16" fill="none" xmlns="http://www.w3.org/2000/svg">
<path fill-rule="evenodd" clip-rule="evenodd" d="M0.25 8C0.25 3.71979 3.71979 0.25 8 0.25C12.2802 0.25 15.75 3.71979 15.75 8C15.75 12.2802 12.2802 15.75 8 15.75C3.71979 15.75 0.25 12.2802 0.25 8ZM3.60154 10.2305C4.15656 9.61382 4.92732 9.25 5.75 9.25H10.25C11.0727 9.25 11.8434 9.61382 12.3985 10.2305C12.9511 10.8446 13.25 11.6621 13.25 12.5C13.25 12.9142 12.9142 13.25 12.5 13.25C12.0858 13.25 11.75 12.9142 11.75 12.5C11.75 12.0119 11.5748 11.5576 11.2835 11.234C10.9946 10.913 10.6208 10.75 10.25 10.75H5.75C5.3792 10.75 5.00537 10.913 4.71648 11.234C4.42524 11.5576 4.25 12.0119 4.25 12.5C4.25 12.9142 3.91421 13.25 3.5 13.25C3.08579 13.25 2.75 12.9142 2.75 12.5C2.75 11.6621 3.04886 10.8446 3.60154 10.2305ZM6.75 5.33333C6.75 4.64298 7.30964 4.08333 8 4.08333C8.69036 4.08333 9.25 4.64298 9.25 5.33333C9.25 6.02369 8.69036 6.58333 8 6.58333C7.30964 6.58333 6.75 6.02369 6.75 5.33333ZM8 2.58333C6.48122 2.58333 5.25 3.81455 5.25 5.33333C5.25 6.85212 6.48122 8.08333 8 8.08333C9.51878 8.08333 10.75 6.85212 10.75 5.33333C10.75 3.81455 9.51878 2.58333 8 2.58333Z" fill="black"/>
</svg>
