<svg width="24" height="24" viewBox="0 0 24 24" fill="none" xmlns="http://www.w3.org/2000/svg">
<path fill-rule="evenodd" clip-rule="evenodd" d="M12 5.25C9.92893 5.25 8.25 6.92893 8.25 9C8.25 11.0711 9.92893 12.75 12 12.75C14.0711 12.75 15.75 11.0711 15.75 9C15.75 6.92893 14.0711 5.25 12 5.25ZM9.75 9C9.75 7.75736 10.7574 6.75 12 6.75C13.2426 6.75 14.25 7.75736 14.25 9C14.25 10.2426 13.2426 11.25 12 11.25C10.7574 11.25 9.75 10.2426 9.75 9Z" fill="black"/>
<path fill-rule="evenodd" clip-rule="evenodd" d="M0.25 12C0.25 5.51065 5.51065 0.25 12 0.25C18.4893 0.25 23.75 5.51065 23.75 12C23.75 18.4893 18.4893 23.75 12 23.75C5.51065 23.75 0.25 18.4893 0.25 12ZM12 1.75C6.33908 1.75 1.75 6.33908 1.75 12C1.75 14.5695 2.69549 16.9182 4.25753 18.7171C4.31769 17.588 4.73685 16.5049 5.46069 15.6777C6.2476 14.7784 7.33805 14.25 8.5 14.25H15.5C16.6619 14.25 17.7524 14.7784 18.5393 15.6777C19.2631 16.5049 19.6823 17.588 19.7425 18.7171C21.3045 16.9182 22.25 14.5695 22.25 12C22.25 6.33908 17.6609 1.75 12 1.75ZM12 22.25C9.64324 22.25 7.47225 21.4546 5.74083 20.1176C5.74686 20.0793 5.75 20.04 5.75 20V19C5.75 18.1081 6.06091 17.2696 6.58956 16.6655C7.1154 16.0645 7.80543 15.75 8.5 15.75H15.5C16.1946 15.75 16.8846 16.0645 17.4104 16.6655C17.9391 17.2696 18.25 18.1081 18.25 19V20C18.25 20.04 18.2531 20.0793 18.2592 20.1176C16.5278 21.4546 14.3568 22.25 12 22.25Z" fill="black"/>
</svg>
