<svg width="16" height="16" viewBox="0 0 16 16" fill="none" xmlns="http://www.w3.org/2000/svg">
<path fill-rule="evenodd" clip-rule="evenodd" d="M8 3.25C6.48122 3.25 5.25 4.48122 5.25 6C5.25 7.51878 6.48122 8.75 8 8.75C9.51878 8.75 10.75 7.51878 10.75 6C10.75 4.48122 9.51878 3.25 8 3.25ZM6.75 6C6.75 5.30964 7.30964 4.75 8 4.75C8.69036 4.75 9.25 5.30964 9.25 6C9.25 6.69036 8.69036 7.25 8 7.25C7.30964 7.25 6.75 6.69036 6.75 6Z" fill="black"/>
<path fill-rule="evenodd" clip-rule="evenodd" d="M0.25 8C0.25 3.71979 3.71979 0.25 8 0.25C12.2802 0.25 15.75 3.71979 15.75 8C15.75 12.2802 12.2802 15.75 8 15.75C3.71979 15.75 0.25 12.2802 0.25 8ZM8 1.75C4.54822 1.75 1.75 4.54822 1.75 8C1.75 9.21401 2.09613 10.3472 2.69509 11.3062C2.83906 11.0904 3.01135 10.8925 3.2019 10.7019C3.8114 10.0924 4.63805 9.75 5.5 9.75H10.5C11.362 9.75 12.1886 10.0924 12.7981 10.7019C12.9886 10.8925 13.1609 11.0904 13.3049 11.3062C13.9039 10.3472 14.25 9.21401 14.25 8C14.25 4.54822 11.4518 1.75 8 1.75ZM8 14.25C6.36537 14.25 4.87731 13.6225 3.76358 12.5952C3.80525 12.3058 3.94801 12.0771 4.26256 11.7626C4.59075 11.4344 5.03587 11.25 5.5 11.25H10.5C10.9641 11.25 11.4092 11.4344 11.7374 11.7626C12.052 12.0771 12.1947 12.3058 12.2364 12.5952C11.1227 13.6225 9.63463 14.25 8 14.25Z" fill="black"/>
</svg>
