<svg viewbox="0 0 16 16" width="16" height="16" fill="black" xmlns="http://www.w3.org/2000/svg">
 <g transform="translate(0.25, 1.25)">
  <path d="M5.75 0C3.67893 0 2 1.67893 2 3.75C2 5.82107 3.67893 7.5 5.75 7.5C7.82107 7.5 9.5 5.82107 9.5 3.75C9.5 1.67893 7.82107 0 5.75 0ZM3.5 3.75C3.5 2.50736 4.50736 1.5 5.75 1.5C6.99264 1.5 8 2.50736 8 3.75C8 4.99264 6.99264 6 5.75 6C4.50736 6 3.5 4.99264 3.5 3.75Z" fill-rule="EVENODD"></path>
  <path d="M3.41667 8.5C2.51051 8.5 1.64147 8.85997 1.00072 9.50072C0.359969 10.1415 0 11.0105 0 11.9167L1.0252e-05 12.7499C1.5378e-05 13.1641 0.335806 13.4999 0.750019 13.4999C1.16423 13.4999 1.50002 13.1641 1.50001 12.7499L1.5 11.9167C1.5 11.4083 1.70194 10.9208 2.06138 10.5614C2.42082 10.2019 2.90834 10 3.41667 10L8.08333 10C8.59167 10 9.07918 10.2019 9.43862 10.5614C9.79807 10.9208 10 11.4083 10 11.9167L10 12.7499C10 13.1641 10.3358 13.4999 10.75 13.4999C11.1642 13.4999 11.5 13.1641 11.5 12.7499L11.5 11.9167C11.5 11.0105 11.14 10.1415 10.4993 9.50072C9.85853 8.85997 8.98949 8.5 8.08333 8.5L3.41667 8.5Z" fill-rule="NONZERO"></path>
  <path d="M10.4697 3.96967C10.7626 3.67678 11.2374 3.67678 11.5303 3.96967L12.75 5.18934L13.9697 3.96967C14.2626 3.67678 14.7374 3.67678 15.0303 3.96967C15.3232 4.26256 15.3232 4.73744 15.0303 5.03033L13.8107 6.25L15.0303 7.46967C15.3232 7.76256 15.3232 8.23744 15.0303 8.53033C14.7374 8.82322 14.2626 8.82322 13.9697 8.53033L12.75 7.31066L11.5303 8.53033C11.2374 8.82322 10.7626 8.82322 10.4697 8.53033C10.1768 8.23744 10.1768 7.76256 10.4697 7.46967L11.6893 6.25L10.4697 5.03033C10.1768 4.73744 10.1768 4.26256 10.4697 3.96967Z" fill-rule="NONZERO"></path>
 </g>
</svg>