<svg width="16" height="16" viewBox="0 0 16 16" fill="none" xmlns="http://www.w3.org/2000/svg">
<path fill-rule="evenodd" clip-rule="evenodd" d="M6 1.25C3.92893 1.25 2.25 2.92893 2.25 5C2.25 7.07107 3.92893 8.75 6 8.75C8.07107 8.75 9.75 7.07107 9.75 5C9.75 2.92893 8.07107 1.25 6 1.25ZM3.75 5C3.75 3.75736 4.75736 2.75 6 2.75C7.24264 2.75 8.25 3.75736 8.25 5C8.25 6.24264 7.24264 7.25 6 7.25C4.75736 7.25 3.75 6.24264 3.75 5Z" fill="black"/>
<path d="M3.66667 9.75C2.76051 9.75 1.89147 10.11 1.25072 10.7507C0.609969 11.3915 0.25 12.2605 0.25 13.1667L0.25001 13.9999C0.250015 14.4141 0.585806 14.7499 1.00002 14.7499C1.41423 14.7499 1.75002 14.4141 1.75001 13.9999L1.75 13.1667C1.75 12.6583 1.95194 12.1708 2.31138 11.8114C2.67082 11.4519 3.15834 11.25 3.66667 11.25H8.33333C8.84167 11.25 9.32918 11.4519 9.68862 11.8114C10.0481 12.1708 10.25 12.6583 10.25 13.1667L10.25 13.9999C10.25 14.4141 10.5858 14.7499 11 14.7499C11.4142 14.7499 11.75 14.4141 11.75 13.9999L11.75 13.1667C11.75 12.2605 11.39 11.3915 10.7493 10.7507C10.1085 10.11 9.23949 9.75 8.33333 9.75H3.66667Z" fill="black"/>
<path d="M13 5.25C13.4142 5.25 13.75 5.58579 13.75 6V7.25H15C15.4142 7.25 15.75 7.58579 15.75 8C15.75 8.41421 15.4142 8.75 15 8.75H13.75V10C13.75 10.4142 13.4142 10.75 13 10.75C12.5858 10.75 12.25 10.4142 12.25 10V8.75H11C10.5858 8.75 10.25 8.41421 10.25 8C10.25 7.58579 10.5858 7.25 11 7.25H12.25V6C12.25 5.58579 12.5858 5.25 13 5.25Z" fill="black"/>
</svg>
