<svg width="16" height="16" viewBox="0 0 16 16" fill="none" xmlns="http://www.w3.org/2000/svg">
<path fill-rule="evenodd" clip-rule="evenodd" d="M2.25 5C2.25 2.92893 3.92893 1.25 6 1.25C8.07107 1.25 9.75 2.92893 9.75 5C9.75 7.07107 8.07107 8.75 6 8.75C3.92893 8.75 2.25 7.07107 2.25 5ZM6 2.75C4.75736 2.75 3.75 3.75736 3.75 5C3.75 6.24264 4.75736 7.25 6 7.25C7.24264 7.25 8.25 6.24264 8.25 5C8.25 3.75736 7.24264 2.75 6 2.75Z" fill="black"/>
<path d="M3.66667 9.75C2.76051 9.75 1.89147 10.11 1.25072 10.7507C0.609969 11.3915 0.25 12.2605 0.25 13.1667L0.25001 13.9999C0.250015 14.4141 0.585806 14.7499 1.00002 14.7499C1.41423 14.7499 1.75002 14.4141 1.75001 13.9999L1.75 13.1667C1.75 12.6583 1.95194 12.1708 2.31138 11.8114C2.67082 11.4519 3.15834 11.25 3.66667 11.25H8.33333C8.84167 11.25 9.32918 11.4519 9.68862 11.8114C10.0481 12.1708 10.25 12.6583 10.25 13.1667L10.25 13.9999C10.25 14.4141 10.5858 14.7499 11 14.7499C11.4142 14.7499 11.75 14.4141 11.75 13.9999L11.75 13.1667C11.75 12.2605 11.39 11.3915 10.7493 10.7507C10.1085 10.11 9.23949 9.75 8.33333 9.75H3.66667Z" fill="black"/>
<path d="M12.3333 9.75C11.9191 9.75 11.5833 10.0858 11.5833 10.5C11.5833 10.9142 11.9191 11.25 12.3333 11.25C12.8416 11.25 13.3292 11.4519 13.6886 11.8114C14.048 12.1708 14.25 12.6583 14.25 13.1667L14.25 13.9999C14.25 14.4141 14.5858 14.7499 15 14.7499C15.4142 14.7499 15.75 14.4141 15.75 13.9999L15.75 13.1667C15.75 12.2605 15.39 11.3915 14.7493 10.7507C14.1085 10.11 13.2395 9.75 12.3333 9.75Z" fill="black"/>
<path d="M10 1.25C9.58579 1.25 9.25 1.58579 9.25 2C9.25 2.41421 9.58579 2.75 10 2.75C11.2426 2.75 12.25 3.75736 12.25 5C12.25 6.24264 11.2426 7.25 10 7.25C9.58579 7.25 9.25 7.58579 9.25 8C9.25 8.41421 9.58579 8.75 10 8.75C12.0711 8.75 13.75 7.07107 13.75 5C13.75 2.92893 12.0711 1.25 10 1.25Z" fill="black"/>
</svg>
