<svg width="16" height="16" viewBox="0 0 16 16" fill="none" xmlns="http://www.w3.org/2000/svg">
<path fill-rule="evenodd" clip-rule="evenodd" d="M2.25 5C2.25 2.92893 3.92893 1.25 6 1.25C8.07107 1.25 9.75 2.92893 9.75 5C9.75 7.07107 8.07107 8.75 6 8.75C3.92893 8.75 2.25 7.07107 2.25 5ZM6 2.75C4.75736 2.75 3.75 3.75736 3.75 5C3.75 6.24264 4.75736 7.25 6 7.25C7.24264 7.25 8.25 6.24264 8.25 5C8.25 3.75736 7.24264 2.75 6 2.75Z" fill="black"/>
<path d="M1.25071 10.7507C1.89146 10.11 2.7605 9.75 3.66666 9.75H8.33333C9.23948 9.75 10.1085 10.11 10.7493 10.7507C11.39 11.3915 11.75 12.2605 11.75 13.1667L11.75 13.9999C11.75 14.4141 11.4142 14.7499 11 14.7499C10.5858 14.7499 10.25 14.4141 10.25 13.9999L10.25 13.1667C10.25 12.6583 10.0481 12.1708 9.68861 11.8114C9.32917 11.4519 8.84166 11.25 8.33333 11.25H3.66666C3.15833 11.25 2.67082 11.4519 2.31137 11.8114C1.95193 12.1708 1.74999 12.6583 1.74999 13.1667L1.75 13.9999C1.75001 14.4141 1.41423 14.7499 1.00001 14.7499C0.585798 14.7499 0.250008 14.4141 0.250003 13.9999L0.249992 13.1667C0.249992 12.2605 0.609962 11.3915 1.25071 10.7507Z" fill="black"/>
<path d="M15.5303 7.53033C15.8232 7.23744 15.8232 6.76256 15.5303 6.46967C15.2374 6.17678 14.7626 6.17678 14.4697 6.46967L12.3333 8.60601L11.5303 7.803C11.2374 7.51011 10.7626 7.51011 10.4697 7.803C10.1768 8.0959 10.1768 8.57077 10.4697 8.86366L11.803 10.197C11.9437 10.3376 12.1344 10.4167 12.3333 10.4167C12.5322 10.4167 12.723 10.3376 12.8637 10.197L15.5303 7.53033Z" fill="black"/>
</svg>
