<svg width="24" height="24" viewBox="0 0 24 24" fill="none" xmlns="http://www.w3.org/2000/svg">
<path fill-rule="evenodd" clip-rule="evenodd" d="M9.68462 8.39173C8.86712 9.36839 8.375 10.6267 8.375 12C8.375 13.3733 8.86712 14.6316 9.68462 15.6083L9.64645 15.6464C9.45118 15.8417 9.45118 16.1583 9.64645 16.3536C9.84171 16.5488 10.1583 16.5488 10.3536 16.3536L10.3917 16.3154C11.3684 17.1329 12.6267 17.625 14 17.625C15.3733 17.625 16.6316 17.1329 17.6083 16.3154L17.6464 16.3536C17.8417 16.5488 18.1583 16.5488 18.3536 16.3536C18.5488 16.1583 18.5488 15.8417 18.3536 15.6464L18.3154 15.6083C19.1329 14.6316 19.625 13.3733 19.625 12C19.625 10.6267 19.1329 9.36839 18.3154 8.39173L18.3536 8.35355C18.5488 8.15829 18.5488 7.84171 18.3536 7.64645C18.1583 7.45118 17.8417 7.45118 17.6464 7.64645L17.6083 7.68462C16.6316 6.86712 15.3733 6.375 14 6.375C12.6267 6.375 11.3684 6.86712 10.3917 7.68462L10.3536 7.64645C10.1583 7.45118 9.84171 7.45118 9.64645 7.64645C9.45118 7.84171 9.45118 8.15829 9.64645 8.35355L9.68462 8.39173ZM11.55 11.5H9.65326C9.74809 10.6665 10.0771 9.90404 10.573 9.28011L11.9142 10.6213C11.7404 10.8837 11.6148 11.1808 11.55 11.5ZM12.6213 9.9142C12.8837 9.7404 13.1808 9.6148 13.5 9.55001V7.65326C12.6665 7.74809 11.904 8.07715 11.2801 8.573L12.6213 9.9142ZM9.65326 12.5H11.55C11.6148 12.8192 11.7404 13.1163 11.9142 13.3787L10.573 14.7199C10.0771 14.096 9.74809 13.3335 9.65326 12.5ZM18.3467 12.5C18.2519 13.3335 17.9229 14.096 17.427 14.7199L16.0858 13.3787C16.2596 13.1163 16.3852 12.8192 16.45 12.5H18.3467ZM16.7199 15.427L15.3787 14.0858C15.1163 14.2596 14.8192 14.3852 14.5 14.45V16.3467C15.3335 16.2519 16.096 15.9229 16.7199 15.427ZM11.2801 15.427L12.6213 14.0858C12.8837 14.2596 13.1808 14.3852 13.5 14.45V16.3467C12.6665 16.2519 11.904 15.9229 11.2801 15.427ZM14 10.5C13.1716 10.5 12.5 11.1716 12.5 12C12.5 12.8284 13.1716 13.5 14 13.5C14.8284 13.5 15.5 12.8284 15.5 12C15.5 11.1716 14.8284 10.5 14 10.5ZM18.3467 11.5H16.45C16.3852 11.1808 16.2596 10.8837 16.0858 10.6213L17.427 9.28011C17.9229 9.90404 18.2519 10.6665 18.3467 11.5ZM15.3787 9.9142C15.1163 9.7404 14.8192 9.6148 14.5 9.55001V7.65326C15.3335 7.74809 16.096 8.07715 16.7199 8.573L15.3787 9.9142Z" fill="black"/>
<path d="M5 5.25C5.41421 5.25 5.75 5.58579 5.75 6V8C5.75 8.41421 5.41421 8.75 5 8.75C4.58579 8.75 4.25 8.41421 4.25 8L4.25 6C4.25 5.58579 4.58579 5.25 5 5.25Z" fill="black"/>
<path d="M5.75 16C5.75 15.5858 5.41421 15.25 5 15.25C4.58579 15.25 4.25 15.5858 4.25 16L4.25 18C4.25 18.4142 4.58579 18.75 5 18.75C5.41421 18.75 5.75 18.4142 5.75 18V16Z" fill="black"/>
<path fill-rule="evenodd" clip-rule="evenodd" d="M1.25 5C1.25 3.48122 2.48122 2.25 4 2.25H20C21.5188 2.25 22.75 3.48122 22.75 5V19C22.75 20.5188 21.5188 21.75 20 21.75H19.875V22.25C19.875 22.7332 19.4832 23.125 19 23.125C18.5168 23.125 18.125 22.7332 18.125 22.25V21.75H5.875V22.25C5.875 22.7332 5.48325 23.125 5 23.125C4.51675 23.125 4.125 22.7332 4.125 22.25V21.75H4C2.48122 21.75 1.25 20.5188 1.25 19V5ZM4 3.75C3.30964 3.75 2.75 4.30964 2.75 5V19C2.75 19.6904 3.30964 20.25 4 20.25H20C20.6904 20.25 21.25 19.6904 21.25 19V5C21.25 4.30964 20.6904 3.75 20 3.75H4Z" fill="black"/>
</svg>
