<svg viewbox="0 0 16 16" width="16" height="16" fill="black" xmlns="http://www.w3.org/2000/svg">
 <g transform="translate(0.25, 1.25)">
  <path d="M4.125 6.75C4.125 4.19568 6.19568 2.125 8.75 2.125C11.3043 2.125 13.375 4.19568 13.375 6.75C13.375 9.30432 11.3043 11.375 8.75 11.375C6.19568 11.375 4.125 9.30432 4.125 6.75ZM6.81301 6.25L5.41178 6.25C5.49474 5.69136 5.7146 5.17737 6.03614 4.74325L7.02691 5.73402C6.93286 5.89317 6.86024 6.06649 6.81301 6.25ZM7.73402 5.02691C7.89317 4.93286 8.06649 4.86024 8.25 4.81301L8.25 3.41178C7.69136 3.49474 7.17737 3.7146 6.74325 4.03614L7.73402 5.02691ZM5.41178 7.25L6.81301 7.25C6.86024 7.43351 6.93286 7.60683 7.02691 7.76598L6.03614 8.75675C5.7146 8.32263 5.49474 7.80864 5.41178 7.25ZM6.74325 9.46386C7.17737 9.7854 7.69136 10.0053 8.25 10.0882L8.25 8.68699C8.06649 8.63976 7.89317 8.56714 7.73402 8.47309L6.74325 9.46386ZM8.75 5.75C8.19771 5.75 7.75 6.19772 7.75 6.75C7.75 7.30228 8.19771 7.75 8.75 7.75C9.30228 7.75 9.75 7.30228 9.75 6.75C9.75 6.19772 9.30228 5.75 8.75 5.75ZM10.687 7.25C10.6398 7.43351 10.5671 7.60683 10.4731 7.76598L11.4639 8.75675C11.7854 8.32263 12.0053 7.80864 12.0882 7.25L10.687 7.25ZM9.25 8.68699C9.43351 8.63976 9.60683 8.56714 9.76598 8.47309L10.7568 9.46386C10.3226 9.7854 9.80864 10.0053 9.25 10.0882L9.25 8.68699ZM12.0882 6.25L10.687 6.25C10.6398 6.06649 10.5671 5.89317 10.4731 5.73402L11.4639 4.74325C11.7854 5.17737 12.0053 5.69136 12.0882 6.25ZM9.76598 5.02691C9.60683 4.93286 9.43351 4.86024 9.25 4.81301L9.25 3.41178C9.80864 3.49474 10.3226 3.7146 10.7568 4.03614L9.76598 5.02691Z" fill-rule="EVENODD"></path>
  <path d="M2.75 2.125C3.09518 2.125 3.375 2.40482 3.375 2.75L3.375 4.25C3.375 4.59518 3.09518 4.875 2.75 4.875C2.40482 4.875 2.125 4.59518 2.125 4.25L2.125 2.75C2.125 2.40482 2.40482 2.125 2.75 2.125Z" fill-rule="NONZERO"></path>
  <path d="M3.375 9.25C3.375 8.90482 3.09518 8.625 2.75 8.625C2.40482 8.625 2.125 8.90482 2.125 9.25L2.125 10.75C2.125 11.0952 2.40482 11.375 2.75 11.375C3.09518 11.375 3.375 11.0952 3.375 10.75L3.375 9.25Z" fill-rule="NONZERO"></path>
  <path d="M0 2.75C0 1.23122 1.23122 0 2.75 0L12.75 0C14.2688 0 15.5 1.23122 15.5 2.75L15.5 10.75C15.5 12.2688 14.2688 13.5 12.75 13.5L12.5 13.5L12.5 13.75C12.5 14.1642 12.1642 14.5 11.75 14.5C11.3358 14.5 11 14.1642 11 13.75L11 13.5L4.5 13.5L4.5 13.75C4.5 14.1642 4.16421 14.5 3.75 14.5C3.33579 14.5 3 14.1642 3 13.75L3 13.5L2.75 13.5C1.23122 13.5 0 12.2688 0 10.75L0 2.75ZM12.75 12C13.4404 12 14 11.4404 14 10.75L14 2.75C14 2.05964 13.4404 1.5 12.75 1.5L2.75 1.5C2.05964 1.5 1.5 2.05964 1.5 2.75L1.5 10.75C1.5 11.4404 2.05964 12 2.75 12L12.75 12Z" fill-rule="EVENODD"></path>
 </g>
</svg>