<svg width="16" height="16" viewBox="0 0 16 16" fill="none" xmlns="http://www.w3.org/2000/svg">
<path fill-rule="evenodd" clip-rule="evenodd" d="M4.375 8C4.375 5.44568 6.44568 3.375 9 3.375C11.5543 3.375 13.625 5.44568 13.625 8C13.625 10.5543 11.5543 12.625 9 12.625C6.44568 12.625 4.375 10.5543 4.375 8ZM7.06301 7.5H5.66178C5.74474 6.94136 5.9646 6.42737 6.28614 5.99325L7.27691 6.98402C7.18286 7.14317 7.11024 7.31649 7.06301 7.5ZM7.98402 6.27691C8.14317 6.18286 8.31649 6.11024 8.5 6.06301V4.66178C7.94136 4.74474 7.42737 4.9646 6.99325 5.28614L7.98402 6.27691ZM5.66178 8.5H7.06301C7.11024 8.68351 7.18286 8.85683 7.27691 9.01598L6.28614 10.0068C5.9646 9.57263 5.74474 9.05864 5.66178 8.5ZM6.99325 10.7139C7.42737 11.0354 7.94136 11.2553 8.5 11.3382V9.93699C8.31649 9.88976 8.14317 9.81714 7.98402 9.72309L6.99325 10.7139ZM9 7C8.44771 7 8 7.44772 8 8C8 8.55228 8.44771 9 9 9C9.55228 9 10 8.55228 10 8C10 7.44772 9.55228 7 9 7ZM10.937 8.5C10.8898 8.68351 10.8171 8.85683 10.7231 9.01598L11.7139 10.0068C12.0354 9.57263 12.2553 9.05864 12.3382 8.5H10.937ZM9.5 9.93699C9.68351 9.88976 9.85683 9.81714 10.016 9.72309L11.0068 10.7139C10.5726 11.0354 10.0586 11.2553 9.5 11.3382V9.93699ZM12.3382 7.5H10.937C10.8898 7.31649 10.8171 7.14317 10.7231 6.98402L11.7139 5.99325C12.0354 6.42737 12.2553 6.94136 12.3382 7.5ZM10.016 6.27691C9.85683 6.18286 9.68351 6.11024 9.5 6.06301V4.66178C10.0586 4.74474 10.5726 4.9646 11.0068 5.28614L10.016 6.27691Z" fill="black"/>
<path d="M3 3.375C3.34518 3.375 3.625 3.65482 3.625 4L3.625 5.5C3.625 5.84518 3.34518 6.125 3 6.125C2.65482 6.125 2.375 5.84518 2.375 5.5L2.375 4C2.375 3.65482 2.65482 3.375 3 3.375Z" fill="black"/>
<path d="M3.625 10.5C3.625 10.1548 3.34518 9.875 3 9.875C2.65482 9.875 2.375 10.1548 2.375 10.5L2.375 12C2.375 12.3452 2.65482 12.625 3 12.625C3.34518 12.625 3.625 12.3452 3.625 12L3.625 10.5Z" fill="black"/>
<path fill-rule="evenodd" clip-rule="evenodd" d="M0.25 4C0.25 2.48122 1.48122 1.25 3 1.25H13C14.5188 1.25 15.75 2.48122 15.75 4V12C15.75 13.5188 14.5188 14.75 13 14.75H12.75V15C12.75 15.4142 12.4142 15.75 12 15.75C11.5858 15.75 11.25 15.4142 11.25 15V14.75H4.75V15C4.75 15.4142 4.41421 15.75 4 15.75C3.58579 15.75 3.25 15.4142 3.25 15V14.75H3C1.48122 14.75 0.25 13.5188 0.25 12V4ZM13 13.25C13.6904 13.25 14.25 12.6904 14.25 12V4C14.25 3.30964 13.6904 2.75 13 2.75H3C2.30964 2.75 1.75 3.30964 1.75 4V12C1.75 12.6904 2.30964 13.25 3 13.25H13Z" fill="black"/>
</svg>
