<svg viewbox="0 0 16 16" width="16" height="16" fill="black" xmlns="http://www.w3.org/2000/svg">
 <g transform="translate(0.707763671875, 0.7080078125)">
  <path d="M10.8221 5.8228C11.1152 5.53016 11.1157 5.05529 10.823 4.76214C10.5304 4.46898 10.0555 4.46856 9.76238 4.76119L5.9842 8.53263L4.82174 7.37377C4.5284 7.08133 4.05353 7.08206 3.76109 7.37541C3.46865 7.66875 3.46938 8.14363 3.76273 8.43607L5.45504 10.1231C5.74788 10.4151 6.22175 10.4149 6.5144 10.1228L10.8221 5.8228Z" fill-rule="NONZERO"></path>
  <path d="M8.8906 0.512233C7.93443 -0.170744 6.64996 -0.170745 5.69379 0.512233L5.00414 1.00484C4.84985 1.11505 4.67251 1.18871 4.48555 1.22025L3.62038 1.36623C2.4657 1.56105 1.56105 2.4657 1.36623 3.62038L1.22025 4.48555C1.18871 4.67251 1.11505 4.84985 1.00484 5.00413L0.512233 5.69379C-0.170744 6.64996 -0.170745 7.93443 0.512233 8.8906L1.00484 9.58025C1.11505 9.73454 1.18871 9.91187 1.22025 10.0988L1.36623 10.964C1.56105 12.1187 2.4657 13.0233 3.62038 13.2182L4.48555 13.3641C4.67251 13.3957 4.84985 13.4693 5.00413 13.5795L5.69379 14.0722C6.64996 14.7551 7.93443 14.7551 8.8906 14.0722L9.58025 13.5795C9.73454 13.4693 9.91187 13.3957 10.0988 13.3641L10.964 13.2182C12.1187 13.0233 13.0233 12.1187 13.2182 10.964L13.3641 10.0988C13.3957 9.91187 13.4693 9.73454 13.5795 9.58025L14.0722 8.8906C14.7551 7.93443 14.7551 6.64996 14.0722 5.69379L13.5795 5.00414C13.4693 4.84985 13.3957 4.67251 13.3641 4.48555L13.2182 3.62038C13.0233 2.4657 12.1187 1.56105 10.964 1.36623L10.0988 1.22025C9.91187 1.18871 9.73454 1.11505 9.58025 1.00484L8.8906 0.512233ZM6.56565 1.73283C7.00027 1.42239 7.58412 1.42239 8.01874 1.73283L8.70839 2.22544C9.04782 2.46789 9.43796 2.62995 9.84928 2.69935L10.7144 2.84532C11.2393 2.93388 11.6505 3.34508 11.7391 3.86994L11.885 4.73511C11.9544 5.14642 12.1165 5.53656 12.3589 5.87599L12.8516 6.56565C13.162 7.00027 13.162 7.58412 12.8516 8.01874L12.3589 8.70839C12.1165 9.04782 11.9544 9.43796 11.885 9.84928L11.7391 10.7144C11.6505 11.2393 11.2393 11.6505 10.7144 11.7391L9.84928 11.885C9.43796 11.9544 9.04782 12.1165 8.70839 12.3589L8.01874 12.8516C7.58412 13.162 7.00027 13.162 6.56564 12.8516L5.87599 12.3589C5.53656 12.1165 5.14642 11.9544 4.73511 11.885L3.86994 11.7391C3.34508 11.6505 2.93388 11.2393 2.84532 10.7144L2.69935 9.84928C2.62995 9.43796 2.46789 9.04782 2.22544 8.70839L1.73283 8.01874C1.42239 7.58412 1.42239 7.00027 1.73283 6.56564L2.22544 5.87599C2.46789 5.53656 2.62995 5.14642 2.69935 4.73511L2.84532 3.86994C2.93388 3.34508 3.34508 2.93388 3.86994 2.84532L4.73511 2.69935C5.14642 2.62995 5.53656 2.46789 5.87599 2.22544L6.56565 1.73283Z" fill-rule="EVENODD"></path>
 </g>
</svg>