<svg width="24" height="24" viewBox="0 0 24 24" fill="none" xmlns="http://www.w3.org/2000/svg">
<path d="M16.6191 9.61831C16.9606 9.27638 16.9602 8.72236 16.6183 8.38088C16.2764 8.03939 15.7224 8.03975 15.3809 8.38169L9.53806 14.2322L7.61872 12.3128C7.27701 11.9711 6.72299 11.9711 6.38128 12.3128C6.03957 12.6545 6.03957 13.2085 6.38128 13.5503L8.91974 16.0887C9.08391 16.2529 9.30658 16.3451 9.53875 16.345C9.77091 16.3449 9.99353 16.2526 10.1576 16.0883L16.6191 9.61831Z" fill="black"/>
<path fill-rule="evenodd" clip-rule="evenodd" d="M14.1797 1.63502C12.8758 0.70369 11.1243 0.70369 9.82041 1.63502L8.62684 2.48757C8.34913 2.68594 8.02992 2.81853 7.69339 2.87531L6.20117 3.12709C4.62661 3.39275 3.39299 4.62637 3.12733 6.20093L2.87556 7.69315C2.81878 8.02968 2.68619 8.34888 2.48782 8.6266L1.63527 9.82017C0.703934 11.124 0.703934 12.8756 1.63527 14.1795L2.48782 15.373C2.68619 15.6507 2.81878 15.9699 2.87556 16.3065L3.12733 17.7987C3.39299 19.3733 4.62662 20.6069 6.20118 20.8725L7.69339 21.1243C8.02992 21.1811 8.34913 21.3137 8.62684 21.5121L9.82041 22.3646C11.1243 23.2959 12.8758 23.2959 14.1797 22.3646L15.3733 21.5121C15.651 21.3137 15.9702 21.1811 16.3067 21.1243L17.7989 20.8725C19.3735 20.6069 20.6071 19.3733 20.8728 17.7987L21.1246 16.3065C21.1813 15.9699 21.3139 15.6507 21.5123 15.373L22.3648 14.1795C23.2962 12.8756 23.2962 11.124 22.3648 9.82017L21.5123 8.6266C21.3139 8.34888 21.1813 8.02968 21.1246 7.69315L20.8728 6.20093C20.6071 4.62637 19.3735 3.39275 17.7989 3.12709L16.3067 2.87531C15.9702 2.81853 15.651 2.68594 15.3733 2.48757L14.1797 1.63502ZM10.6923 2.85562C11.4746 2.29682 12.5255 2.29682 13.3078 2.85562L14.5014 3.70817C14.9643 4.03879 15.4963 4.25978 16.0572 4.35441L17.5494 4.60618C18.4941 4.76558 19.2343 5.50575 19.3937 6.45049L19.6455 7.94271C19.7401 8.50359 19.9611 9.0356 20.2917 9.49846L21.1442 10.692C21.703 11.4743 21.703 12.5253 21.1442 13.3076L20.2917 14.5012C19.9611 14.964 19.7401 15.496 19.6455 16.0569L19.3937 17.5491C19.2343 18.4939 18.4941 19.234 17.5494 19.3934L16.0572 19.6452C15.4963 19.7398 14.9643 19.9608 14.5014 20.2915L13.3078 21.144C12.5255 21.7028 11.4746 21.7028 10.6923 21.144L9.4987 20.2915C9.03584 19.9608 8.50383 19.7398 7.94295 19.6452L6.45073 19.3934C5.506 19.234 4.76582 18.4939 4.60643 17.5491L4.35465 16.0569C4.26002 15.496 4.03903 14.964 3.70842 14.5012L2.85587 13.3076C2.29707 12.5253 2.29707 11.4743 2.85587 10.692L3.70842 9.49846C4.03903 9.0356 4.26002 8.50359 4.35465 7.94271L4.60642 6.45049C4.76582 5.50575 5.506 4.76558 6.45073 4.60618L7.94295 4.35441C8.50383 4.25978 9.03584 4.03879 9.4987 3.70817L10.6923 2.85562Z" fill="black"/>
</svg>
