<svg width="24" height="24" viewBox="0 0 24 24" fill="none" xmlns="http://www.w3.org/2000/svg">
<path fill-rule="evenodd" clip-rule="evenodd" d="M1.53033 0.46967C1.23744 0.176777 0.762563 0.176777 0.46967 0.46967C0.176777 0.762563 0.176777 1.23744 0.46967 1.53033L3.18934 4.25H3C2.27065 4.25 1.57118 4.53973 1.05546 5.05546C0.539731 5.57118 0.25 6.27065 0.25 7V17C0.25 17.7293 0.539732 18.4288 1.05546 18.9445C1.57118 19.4603 2.27065 19.75 3 19.75H14C14.7293 19.75 15.4288 19.4603 15.9445 18.9445C16.2878 18.6013 16.531 18.1766 16.6552 17.7159L22.4697 23.5303C22.7626 23.8232 23.2374 23.8232 23.5303 23.5303C23.8232 23.2374 23.8232 22.7626 23.5303 22.4697L5.53033 4.46967C5.53031 4.46965 5.53035 4.46969 5.53033 4.46967L1.53033 0.46967ZM15.25 16.3107L4.68934 5.75H3C2.66848 5.75 2.35054 5.8817 2.11612 6.11612C1.8817 6.35054 1.75 6.66848 1.75 7V17C1.75 17.3315 1.8817 17.6495 2.11612 17.8839C2.35054 18.1183 2.66848 18.25 3 18.25H14C14.3315 18.25 14.6495 18.1183 14.8839 17.8839C15.1183 17.6495 15.25 17.3315 15.25 17V16.3107Z" fill="black"/>
<path d="M10.66 4.25C10.2458 4.25 9.91 4.58579 9.91 5C9.91 5.41421 10.2458 5.75 10.66 5.75H14C14.3315 5.75 14.6495 5.8817 14.8839 6.11612C15.1183 6.35054 15.25 6.66848 15.25 7V10.34C15.25 10.5389 15.329 10.7297 15.4697 10.8703L16.4697 11.8703C16.7301 12.1308 17.1411 12.1636 17.4396 11.9477L22.25 8.46814V17C22.25 17.4142 22.5858 17.75 23 17.75C23.4142 17.75 23.75 17.4142 23.75 17V7C23.75 6.71825 23.5921 6.46028 23.3412 6.3321C23.0903 6.20393 22.7887 6.22719 22.5604 6.39231L17.0784 10.3577L16.75 10.0293V7C16.75 6.27065 16.4603 5.57118 15.9445 5.05546C15.4288 4.53973 14.7293 4.25 14 4.25H10.66Z" fill="black"/>
</svg>
