<svg viewbox="0 0 24 24" width="24" height="24" fill="black" xmlns="http://www.w3.org/2000/svg">
 <g transform="translate(0.25, 4.25)">
  <path d="M16.5 6.29261L16.5 2.75C16.5 1.23122 15.2688 0 13.75 0L2.75 0C1.23122 0 0 1.23122 0 2.75L0 12.75C0 14.2688 1.23122 15.5 2.75 15.5L13.75 15.5C15.2688 15.5 16.5 14.2688 16.5 12.75L16.5 9.20739L22.3141 13.3603C22.5427 13.5236 22.8434 13.5454 23.0932 13.4169C23.343 13.2883 23.5 13.0309 23.5 12.75L23.5 2.75C23.5 2.46906 23.343 2.21168 23.0932 2.08313C22.8434 1.95457 22.5427 1.97641 22.3141 2.1397L16.5 6.29261ZM1.5 2.75C1.5 2.05964 2.05964 1.5 2.75 1.5L13.75 1.5C14.4404 1.5 15 2.05964 15 2.75L15 12.75C15 13.4404 14.4404 14 13.75 14L2.75 14C2.05964 14 1.5 13.4404 1.5 12.75L1.5 2.75ZM22 11.2926L17.0403 7.75L22 4.20739L22 11.2926Z" fill-rule="EVENODD"></path>
 </g>
</svg>