<svg width="16" height="16" viewBox="0 0 16 16" fill="none" xmlns="http://www.w3.org/2000/svg">
<path fill-rule="evenodd" clip-rule="evenodd" d="M10.75 9.4405V11.1667C10.75 12.3173 9.81727 13.25 8.66667 13.25H2.33334C1.18275 13.25 0.250008 12.3173 0.250008 11.1667V4.83333C0.250008 3.68274 1.18275 2.75 2.33334 2.75H8.66667C9.81727 2.75 10.75 3.68274 10.75 4.83333V6.55951L14.5699 3.88558C14.799 3.72521 15.0983 3.70562 15.3464 3.83477C15.5944 3.96392 15.75 4.22035 15.75 4.5V11.5C15.75 11.7797 15.5944 12.0361 15.3464 12.1652C15.0983 12.2944 14.799 12.2748 14.5699 12.1144L10.75 9.4405ZM1.75001 4.83333C1.75001 4.51117 2.01117 4.25 2.33334 4.25H8.66667C8.98884 4.25 9.25001 4.51117 9.25001 4.83333V7.99661L9.25 8L9.25001 8.00339V11.1667C9.25001 11.4888 8.98884 11.75 8.66667 11.75H2.33334C2.01118 11.75 1.75001 11.4888 1.75001 11.1667V4.83333ZM14.25 10.0595L11.3078 8L14.25 5.94049V10.0595Z" fill="black"/>
</svg>
