<svg width="16" height="16" viewBox="0 0 16 16" fill="none" xmlns="http://www.w3.org/2000/svg">
<path fill-rule="evenodd" clip-rule="evenodd" d="M1.53033 0.46967C1.23744 0.176777 0.762563 0.176777 0.46967 0.46967C0.176777 0.762563 0.176777 1.23744 0.46967 1.53033L1.76719 2.82785C0.891712 3.0745 0.25 3.87897 0.25 4.83333V11.1667C0.25 12.3173 1.18274 13.25 2.33333 13.25H8.66667C9.62103 13.25 10.4255 12.6083 10.6722 11.7328L14.4697 15.5303C14.7626 15.8232 15.2374 15.8232 15.5303 15.5303C15.8232 15.2374 15.8232 14.7626 15.5303 14.4697L4.03052 2.96986C4.03064 2.96998 4.03039 2.96973 4.03052 2.96986L1.53033 0.46967ZM3.18934 4.25H2.33333C2.01117 4.25 1.75 4.51117 1.75 4.83333V11.1667C1.75 11.4888 2.01117 11.75 2.33333 11.75H8.66667C8.98883 11.75 9.25 11.4888 9.25 11.1667V10.3107L3.18934 4.25Z" fill="black"/>
<path d="M6.25 3.5C6.25 3.08579 6.58579 2.75 7 2.75H8.66667C9.81726 2.75 10.75 3.68274 10.75 4.83333V6.18934L11.0704 6.50972L14.55 3.9C14.7773 3.72956 15.0813 3.70214 15.3354 3.82918C15.5895 3.95623 15.75 4.21593 15.75 4.5L15.75 11C15.75 11.4142 15.4142 11.75 15 11.75C14.5858 11.75 14.25 11.4142 14.25 11L14.25 6L11.45 8.1C11.1514 8.32395 10.7336 8.29425 10.4697 8.03033L9.46967 7.03033C9.39732 6.95798 9.34283 6.87452 9.30623 6.78544C9.26999 6.69745 9.25 6.60106 9.25 6.5V4.83333C9.25 4.51117 8.98883 4.25 8.66667 4.25H7C6.58579 4.25 6.25 3.91421 6.25 3.5Z" fill="black"/>
</svg>
