<svg width="24" height="24" viewBox="0 0 24 24" fill="none" xmlns="http://www.w3.org/2000/svg">
<path fill-rule="evenodd" clip-rule="evenodd" d="M16.75 10.5426V7C16.75 5.48122 15.5188 4.25 14 4.25H3C1.48122 4.25 0.25 5.48122 0.25 7V17C0.25 18.5188 1.48122 19.75 3 19.75H14C15.5188 19.75 16.75 18.5188 16.75 17V13.4574L22.5641 17.6103C22.7927 17.7736 23.0934 17.7954 23.3432 17.6669C23.593 17.5383 23.75 17.2809 23.75 17V7C23.75 6.71906 23.593 6.46168 23.3432 6.33313C23.0934 6.20457 22.7927 6.22641 22.5641 6.3897L16.75 10.5426ZM1.75 7C1.75 6.30964 2.30964 5.75 3 5.75H14C14.6904 5.75 15.25 6.30964 15.25 7V17C15.25 17.6904 14.6904 18.25 14 18.25H3C2.30964 18.25 1.75 17.6904 1.75 17V7ZM22.25 15.5426L17.2903 12L22.25 8.45739V15.5426Z" fill="black"/>
</svg>
