<svg viewBox="0 0 16 16" width="16" height="16" fill="black" xmlns="http://www.w3.org/2000/svg">
 <g transform="translate(0.25, 0.25)">
  <path d="M1.28033 0.21967C0.987437 -0.0732233 0.512563 -0.0732233 0.21967 0.21967C-0.0732233 0.512563 -0.0732233 0.987437 0.21967 1.28033L1.51719 2.57785C0.641712 2.8245 0 3.62897 0 4.58333L0 10.9167C0 12.0673 0.93274 13 2.08333 13L8.41667 13C9.37103 13 10.1755 12.3583 10.4222 11.4828L14.2197 15.2803C14.5126 15.5732 14.9874 15.5732 15.2803 15.2803C15.5732 14.9874 15.5732 14.5126 15.2803 14.2197L3.78052 2.71986C3.78064 2.71998 3.78039 2.71973 3.78052 2.71986L1.28033 0.21967ZM2.93934 4L2.08333 4C1.76117 4 1.5 4.26117 1.5 4.58333L1.5 10.9167C1.5 11.2388 1.76117 11.5 2.08333 11.5L8.41667 11.5C8.73883 11.5 9 11.2388 9 10.9167L9 10.0607L2.93934 4Z" fill-rule="EVENODD"></path>
  <path d="M6 3.25C6 2.83579 6.33579 2.5 6.75 2.5L8.41667 2.5C9.56726 2.5 10.5 3.43274 10.5 4.58333L10.5 5.93934L10.8204 6.25972L14.3 3.65C14.5273 3.47956 14.8313 3.45214 15.0854 3.57918C15.3395 3.70623 15.5 3.96593 15.5 4.25L15.5 10.75C15.5 11.1642 15.1642 11.5 14.75 11.5C14.3358 11.5 14 11.1642 14 10.75L14 5.75L11.2 7.85C10.9014 8.07395 10.4836 8.04425 10.2197 7.78033L9.21967 6.78033C9.14732 6.70798 9.09283 6.62452 9.05623 6.53544C9.01999 6.44745 9 6.35106 9 6.25L9 4.58333C9 4.26117 8.73883 4 8.41667 4L6.75 4C6.33579 4 6 3.66421 6 3.25Z" fill-rule="NONZERO"></path>
 </g>
</svg>