<svg width="24" height="24" viewBox="0 0 24 24" fill="none" xmlns="http://www.w3.org/2000/svg">
<path d="M19.6004 4.39993C19.3075 4.10699 18.8327 4.10692 18.5397 4.39977C18.2468 4.69261 18.2467 5.16749 18.5396 5.46043C20.2737 7.19506 21.2478 9.54741 21.2478 12.0002C21.2478 14.4529 20.2737 16.8053 18.5396 18.5399C18.2467 18.8329 18.2468 19.3077 18.5397 19.6006C18.8327 19.8934 19.3075 19.8934 19.6004 19.6004C21.6157 17.5845 22.7478 14.8507 22.7478 12.0002C22.7478 9.14966 21.6157 6.41585 19.6004 4.39993Z" fill="black"/>
<path d="M16.0704 7.92993C15.7775 7.63699 15.3027 7.63692 15.0097 7.92977C14.7168 8.22261 14.7167 8.69749 15.0096 8.99043C15.8063 9.78742 16.2539 10.8682 16.2539 11.9952C16.2539 13.1221 15.8063 14.2029 15.0096 14.9999C14.7167 15.2929 14.7168 15.7677 15.0097 16.0606C15.3027 16.3534 15.7775 16.3534 16.0704 16.0604C17.1483 14.9821 17.7539 13.5199 17.7539 11.9952C17.7539 10.4705 17.1483 9.00821 16.0704 7.92993Z" fill="black"/>
<path fill-rule="evenodd" clip-rule="evenodd" d="M11.75 5.00001C11.75 4.7117 11.5847 4.44892 11.3249 4.32403C11.065 4.19914 10.7566 4.23425 10.5315 4.41436L5.73691 8.25001H2C1.58579 8.25001 1.25 8.58579 1.25 9.00001V15C1.25 15.4142 1.58579 15.75 2 15.75H5.73691L10.5315 19.5857C10.7566 19.7658 11.065 19.8009 11.3249 19.676C11.5847 19.5511 11.75 19.2883 11.75 19V5.00001ZM6.46852 9.58566L10.25 6.56048V17.4395L6.46852 14.4144C6.33554 14.308 6.1703 14.25 6 14.25H2.75V9.75001H6C6.1703 9.75001 6.33554 9.69205 6.46852 9.58566Z" fill="black"/>
</svg>
