<svg width="16" height="16" viewBox="0 0 16 16" fill="none" xmlns="http://www.w3.org/2000/svg">
<path fill-rule="evenodd" clip-rule="evenodd" d="M8.33541 2.32919C8.5895 2.45623 8.75 2.71593 8.75 3V13C8.75 13.2841 8.5895 13.5438 8.33541 13.6708C8.08132 13.7979 7.77726 13.7705 7.54999 13.6L3.75 10.7499L1.00002 10.75C0.801104 10.75 0.610334 10.671 0.469677 10.5303C0.32902 10.3897 0.25 10.1989 0.25 10V5.99992C0.25 5.58571 0.585786 5.24992 1 5.24992H3.75L7.55001 2.4C7.77727 2.22955 8.08133 2.20214 8.33541 2.32919ZM7.25 4.49998L4.44999 6.59993C4.32017 6.69729 4.16227 6.74992 3.99999 6.74992H1.75V9.24998L3.99997 9.24992C4.16226 9.24992 4.32017 9.30255 4.45 9.39993L7.25 11.5V4.49998Z" fill="black"/>
</svg>
