<svg viewbox="0 0 16 16" width="16" height="16" fill="black" xmlns="http://www.w3.org/2000/svg">
 <g transform="translate(0.25, 2.25)">
  <path d="M8.5 0.750004C8.5 0.465927 8.3395 0.206231 8.08541 0.0791862C7.83133 -0.0478587 7.52727 -0.020445 7.30001 0.149998L3.49999 2.99993L0.74998 3C0.335774 3.00002 0 3.3358 0 3.75L0 7.74992C0 8.16414 0.335786 8.49992 0.75 8.49992L3.49999 8.49992L7.29999 11.35C7.52726 11.5205 7.83132 11.5479 8.08541 11.4208C8.3395 11.2938 8.5 11.0341 8.5 10.75L8.5 0.750004ZM4.19999 4.34993L7 2.24998L7 9.24998L4.2 7.14993C4.07018 7.05256 3.91228 6.99992 3.74999 6.99992L1.5 6.99992L1.5 4.49998L3.75002 4.49992C3.91228 4.49992 4.07017 4.44729 4.19999 4.34993Z" fill-rule="EVENODD"></path>
  <path d="M10.7614 2.95136C10.4584 2.66894 9.98378 2.68563 9.70136 2.98864C9.41894 3.29164 9.43563 3.76622 9.73864 4.04864C10.2331 4.50955 10.5 5.12278 10.5 5.75C10.5 6.37722 10.2331 6.99046 9.73864 7.45136C9.43563 7.73378 9.41894 8.20836 9.70136 8.51137C9.98378 8.81437 10.4584 8.83106 10.7614 8.54864C11.5475 7.81595 12 6.81053 12 5.75C12 4.68947 11.5475 3.68406 10.7614 2.95136Z" fill-rule="NONZERO"></path>
 </g>
</svg>