<svg width="16" height="16" viewBox="0 0 16 16" fill="none" xmlns="http://www.w3.org/2000/svg">
<path fill-rule="evenodd" clip-rule="evenodd" d="M8.33541 2.32919C8.5895 2.45623 8.75 2.71593 8.75 3V13C8.75 13.2841 8.5895 13.5438 8.33541 13.6708C8.08132 13.7979 7.77726 13.7705 7.54999 13.6L3.74999 10.7499H1C0.585786 10.7499 0.25 10.4141 0.25 9.99992V6C0.25 5.5858 0.585774 5.25002 0.99998 5.25L3.74999 5.24993L7.55001 2.4C7.77727 2.22955 8.08133 2.20214 8.33541 2.32919ZM7.25 4.49998L4.44999 6.59993C4.32017 6.69729 4.16228 6.74992 4.00002 6.74992L1.75 6.74998V9.24992H3.99999C4.16228 9.24992 4.32018 9.30256 4.45 9.39993L7.25 11.5V4.49998Z" fill="black"/>
<path d="M9.95136 5.23864C10.2338 4.93563 10.7084 4.91894 11.0114 5.20136C11.7975 5.93406 12.25 6.93947 12.25 8C12.25 9.06053 11.7975 10.0659 11.0114 10.7986C10.7084 11.0811 10.2338 11.0644 9.95136 10.7614C9.66894 10.4584 9.68563 9.98378 9.98864 9.70136C10.4831 9.24046 10.75 8.62722 10.75 8C10.75 7.37278 10.4831 6.75955 9.98864 6.29864C9.68563 6.01622 9.66894 5.54164 9.95136 5.23864Z" fill="black"/>
<path d="M13.026 2.71537C12.7307 2.42487 12.2559 2.42874 11.9654 2.72401C11.6749 3.01928 11.6787 3.49413 11.974 3.78463C13.1127 4.90489 13.75 6.42141 13.75 8C13.75 9.57859 13.1127 11.0951 11.974 12.2154C11.6787 12.5059 11.6749 12.9807 11.9654 13.276C12.2559 13.5713 12.7307 13.5751 13.026 13.2846C14.4485 11.8851 15.25 9.98444 15.25 8C15.25 6.01556 14.4485 4.11493 13.026 2.71537Z" fill="black"/>
</svg>
