<svg width="24" height="24" viewBox="0 0 24 24" fill="none" xmlns="http://www.w3.org/2000/svg">
<path fill-rule="evenodd" clip-rule="evenodd" d="M11.75 5.00001C11.75 4.7117 11.5847 4.44892 11.3249 4.32403C11.065 4.19914 10.7566 4.23425 10.5315 4.41436L5.73691 8.25001H2C1.58579 8.25001 1.25 8.58579 1.25 9.00001V15C1.25 15.4142 1.58579 15.75 2 15.75H5.73691L10.5315 19.5857C10.7566 19.7658 11.065 19.8009 11.3249 19.676C11.5847 19.5511 11.75 19.2883 11.75 19V5.00001ZM6.46852 9.58566L10.25 6.56048V17.4395L6.46852 14.4144C6.33554 14.308 6.1703 14.25 6 14.25H2.75V9.75001H6C6.1703 9.75001 6.33554 9.69205 6.46852 9.58566Z" fill="black"/>
<path d="M16.0704 7.92971C15.7776 7.63677 15.3027 7.6367 15.0098 7.92955C14.7168 8.2224 14.7167 8.69727 15.0096 8.99021C15.8064 9.7872 16.2539 10.868 16.2539 11.995C16.2539 13.1219 15.8064 14.2027 15.0096 14.9997C14.7167 15.2926 14.7168 15.7675 15.0098 16.0604C15.3027 16.3532 15.7776 16.3531 16.0704 16.0602C17.1484 14.9819 17.7539 13.5197 17.7539 11.995C17.7539 10.4703 17.1484 9.008 16.0704 7.92971Z" fill="black"/>
</svg>
