<svg viewBox="0 0 16 16" width="16" height="16" fill="black" xmlns="http://www.w3.org/2000/svg">
 <g transform="translate(0.25, 2.25)">
  <path d="M8.08541 0.0791862C8.3395 0.206231 8.5 0.465927 8.5 0.750004L8.5 10.75C8.5 11.0341 8.3395 11.2938 8.08541 11.4208C7.83132 11.5479 7.52726 11.5205 7.29999 11.35L3.49999 8.49992L0.75 8.49992C0.335786 8.49992 0 8.16414 0 7.74992L0 3.75C0 3.3358 0.335774 3.00002 0.74998 3L3.49999 2.99993L7.30001 0.149998C7.52727 -0.020445 7.83133 -0.0478587 8.08541 0.0791862ZM7 2.24998L4.19999 4.34993C4.07017 4.44729 3.91228 4.49992 3.75002 4.49992L1.5 4.49998L1.5 6.99992L3.74999 6.99992C3.91228 6.99992 4.07018 7.05256 4.2 7.14993L7 9.24998L7 2.24998Z" fill-rule="EVENODD"></path>
  <path d="M9.70136 2.98864C9.98378 2.68563 10.4584 2.66894 10.7614 2.95136C11.5475 3.68406 12 4.68947 12 5.75C12 6.81053 11.5475 7.81595 10.7614 8.54864C10.4584 8.83106 9.98378 8.81437 9.70136 8.51137C9.41894 8.20836 9.43563 7.73378 9.73864 7.45136C10.2331 6.99046 10.5 6.37722 10.5 5.75C10.5 5.12278 10.2331 4.50955 9.73864 4.04864C9.43563 3.76622 9.41894 3.29164 9.70136 2.98864Z" fill-rule="NONZERO"></path>
  <path d="M12.776 0.465369C12.4807 0.174871 12.0059 0.178738 11.7154 0.474006C11.4249 0.769275 11.4287 1.24413 11.724 1.53463C12.8627 2.65489 13.5 4.17141 13.5 5.75C13.5 7.32859 12.8627 8.84511 11.724 9.96537C11.4287 10.2559 11.4249 10.7307 11.7154 11.026C12.0059 11.3213 12.4807 11.3251 12.776 11.0346C14.1985 9.63507 15 7.73444 15 5.75C15 3.76556 14.1985 1.86493 12.776 0.465369Z" fill-rule="NONZERO"></path>
 </g>
</svg>