<svg viewbox="0 0 16 16" width="16" height="16" fill="black" xmlns="http://www.w3.org/2000/svg">
 <g transform="translate(0.25, 2.25)">
  <path d="M8.08541 0.0791862C8.3395 0.206231 8.5 0.465927 8.5 0.750004L8.5 10.75C8.5 11.0341 8.3395 11.2938 8.08541 11.4208C7.83132 11.5479 7.52726 11.5205 7.29999 11.35L3.49999 8.49992L0.75 8.49992C0.335786 8.49992 0 8.16414 0 7.74992L0 3.75C0 3.3358 0.335774 3.00002 0.74998 3L3.49999 2.99993L7.30001 0.149998C7.52727 -0.020445 7.83133 -0.0478587 8.08541 0.0791862ZM7 2.24998L4.19999 4.34993C4.07017 4.44729 3.91228 4.49992 3.75002 4.49992L1.5 4.49998L1.5 6.99992L3.74999 6.99992C3.91228 6.99992 4.07018 7.05256 4.2 7.14993L7 9.24998L7 2.24998Z" fill-rule="EVENODD"></path>
  <path d="M15.2803 3.21967C15.5732 3.51256 15.5732 3.98744 15.2803 4.28033L13.8107 5.75L15.2803 7.21967C15.5732 7.51256 15.5732 7.98744 15.2803 8.28033C14.9874 8.57322 14.5126 8.57322 14.2197 8.28033L12.75 6.81066L11.2803 8.28033C10.9874 8.57322 10.5126 8.57322 10.2197 8.28033C9.92678 7.98744 9.92678 7.51256 10.2197 7.21967L11.6893 5.75L10.2197 4.28033C9.92678 3.98744 9.92678 3.51256 10.2197 3.21967C10.5126 2.92678 10.9874 2.92678 11.2803 3.21967L12.75 4.68934L14.2197 3.21967C14.5126 2.92678 14.9874 2.92678 15.2803 3.21967Z" fill-rule="NONZERO"></path>
 </g>
</svg>