<svg width="16" height="16" viewBox="0 0 16 16" fill="none" xmlns="http://www.w3.org/2000/svg">
<path fill-rule="evenodd" clip-rule="evenodd" d="M8.75 3C8.75 2.71593 8.5895 2.45623 8.33541 2.32919C8.08133 2.20214 7.77727 2.22955 7.55001 2.4L3.74999 5.24993L0.99998 5.25C0.585774 5.25002 0.25 5.5858 0.25 6V9.99992C0.25 10.4141 0.585786 10.7499 1 10.7499H3.74999L7.54999 13.6C7.77726 13.7705 8.08132 13.7979 8.33541 13.6708C8.5895 13.5438 8.75 13.2841 8.75 13V3ZM4.44999 6.59993L7.25 4.49998V11.5L4.45 9.39993C4.32018 9.30256 4.16228 9.24992 3.99999 9.24992H1.75V6.74998L4.00002 6.74992C4.16228 6.74992 4.32017 6.69729 4.44999 6.59993Z" fill="black"/>
<path d="M11.0114 5.20136C10.7084 4.91894 10.2338 4.93563 9.95136 5.23864C9.66894 5.54164 9.68563 6.01622 9.98864 6.29864C10.4831 6.75955 10.75 7.37278 10.75 8C10.75 8.62722 10.4831 9.24046 9.98864 9.70136C9.68563 9.98378 9.66894 10.4584 9.95136 10.7614C10.2338 11.0644 10.7084 11.0811 11.0114 10.7986C11.7975 10.0659 12.25 9.06053 12.25 8C12.25 6.93947 11.7975 5.93406 11.0114 5.20136Z" fill="black"/>
</svg>
