<svg width="24" height="24" viewBox="0 0 24 24" fill="none" xmlns="http://www.w3.org/2000/svg">
<path fill-rule="evenodd" clip-rule="evenodd" d="M11.3249 4.32403C11.5847 4.44892 11.75 4.7117 11.75 5.00001V19C11.75 19.2883 11.5847 19.5511 11.3249 19.676C11.065 19.8009 10.7566 19.7658 10.5315 19.5857L5.73691 15.75H2C1.58579 15.75 1.25 15.4142 1.25 15V9.00001C1.25 8.58579 1.58579 8.25001 2 8.25001H5.73691L10.5315 4.41436C10.7566 4.23425 11.065 4.19914 11.3249 4.32403ZM10.25 6.56048L6.46852 9.58566C6.33554 9.69205 6.1703 9.75001 6 9.75001H2.75V14.25H6C6.1703 14.25 6.33554 14.308 6.46852 14.4144L10.25 17.4395V6.56048Z" fill="black"/>
</svg>
