<svg width="16" height="16" viewBox="0 0 16 16" fill="none" xmlns="http://www.w3.org/2000/svg">
<path fill-rule="evenodd" clip-rule="evenodd" d="M8.33541 2.32919C8.5895 2.45623 8.75 2.71593 8.75 3V13C8.75 13.2841 8.5895 13.5438 8.33541 13.6708C8.08132 13.7979 7.77726 13.7705 7.54999 13.6L3.74999 10.7499H1C0.585786 10.7499 0.25 10.4141 0.25 9.99992V6C0.25 5.5858 0.585774 5.25002 0.99998 5.25L3.74999 5.24993L7.55001 2.4C7.77727 2.22955 8.08133 2.20214 8.33541 2.32919ZM7.25 4.49998L4.44999 6.59993C4.32017 6.69729 4.16228 6.74992 4.00002 6.74992L1.75 6.74998V9.24992H3.99999C4.16228 9.24992 4.32018 9.30256 4.45 9.39993L7.25 11.5V4.49998Z" fill="black"/>
<path d="M15.5303 5.46967C15.8232 5.76256 15.8232 6.23744 15.5303 6.53033L14.0607 8L15.5303 9.46967C15.8232 9.76256 15.8232 10.2374 15.5303 10.5303C15.2374 10.8232 14.7626 10.8232 14.4697 10.5303L13 9.06066L11.5303 10.5303C11.2374 10.8232 10.7626 10.8232 10.4697 10.5303C10.1768 10.2374 10.1768 9.76256 10.4697 9.46967L11.9393 8L10.4697 6.53033C10.1768 6.23744 10.1768 5.76256 10.4697 5.46967C10.7626 5.17678 11.2374 5.17678 11.5303 5.46967L13 6.93934L14.4697 5.46967C14.7626 5.17678 15.2374 5.17678 15.5303 5.46967Z" fill="black"/>
</svg>
