<svg width="24" height="24" viewBox="0 0 24 24" fill="none" xmlns="http://www.w3.org/2000/svg">
<path fill-rule="evenodd" clip-rule="evenodd" d="M4 2.25C2.48122 2.25 1.25 3.48122 1.25 5V19C1.25 20.5188 2.48122 21.75 4 21.75H20C21.5188 21.75 22.75 20.5188 22.75 19V5C22.75 3.48122 21.5188 2.25 20 2.25H4ZM16.25 3.75V8.25H7.75V3.75H16.25ZM17.75 3.75H20C20.6904 3.75 21.25 4.30964 21.25 5V8.25H17.75V3.75ZM21.25 9.75H12.75V14.25H21.25V9.75ZM21.25 15.75H17.75V20.25H20C20.6904 20.25 21.25 19.6904 21.25 19V15.75ZM16.25 20.25V15.75H7.75V20.25H16.25ZM6.25 20.25V15.75H2.75V19C2.75 19.6904 3.30964 20.25 4 20.25H6.25ZM2.75 14.25H11.25V9.75H2.75V14.25ZM2.75 8.25H6.25V3.75H4C3.30964 3.75 2.75 4.30964 2.75 5V8.25Z" fill="black"/>
</svg>
