<svg width="16" height="16" viewBox="0 0 16 16" fill="none" xmlns="http://www.w3.org/2000/svg">
<path fill-rule="evenodd" clip-rule="evenodd" d="M2.5 1.25C1.25736 1.25 0.25 2.25736 0.25 3.5V12.5C0.25 13.7426 1.25736 14.75 2.5 14.75H13.5C14.7426 14.75 15.75 13.7426 15.75 12.5V3.5C15.75 2.25736 14.7426 1.25 13.5 1.25H2.5ZM1.75 3.5C1.75 3.08579 2.08579 2.75 2.5 2.75H4.375V5.375H1.75V3.5ZM1.75 6.625V9.375H7.375V6.625H1.75ZM1.75 10.625V12.5C1.75 12.9142 2.08579 13.25 2.5 13.25H4.375V10.625H1.75ZM5.625 13.25H10.375V10.625H5.625V13.25ZM11.625 13.25H13.5C13.9142 13.25 14.25 12.9142 14.25 12.5V10.625H11.625V13.25ZM14.25 9.375V6.625H8.625V9.375H14.25ZM14.25 5.375V3.5C14.25 3.08579 13.9142 2.75 13.5 2.75H11.625V5.375H14.25ZM10.375 2.75H5.625V5.375H10.375V2.75Z" fill="black"/>
</svg>
