<svg viewbox="0 0 24 24" width="24" height="24" fill="black" xmlns="http://www.w3.org/2000/svg">
 <g transform="translate(1.25, 2.25)">
  <path d="M2.75 0C1.23122 0 0 1.23122 0 2.75L0 16.75C0 18.2688 1.23122 19.5 2.75 19.5L18.75 19.5C20.2688 19.5 21.5 18.2688 21.5 16.75L21.5 2.75C21.5 1.23122 20.2688 0 18.75 0L2.75 0ZM15 1.5L15 6L6.5 6L6.5 1.5L15 1.5ZM16.5 1.5L18.75 1.5C19.4404 1.5 20 2.05964 20 2.75L20 6L16.5 6L16.5 1.5ZM20 7.5L11.5 7.5L11.5 12L20 12L20 7.5ZM20 13.5L16.5 13.5L16.5 18L18.75 18C19.4404 18 20 17.4404 20 16.75L20 13.5ZM15 18L15 13.5L6.5 13.5L6.5 18L15 18ZM5 18L5 13.5L1.5 13.5L1.5 16.75C1.5 17.4404 2.05964 18 2.75 18L5 18ZM1.5 12L10 12L10 7.5L1.5 7.5L1.5 12ZM1.5 6L5 6L5 1.5L2.75 1.5C2.05964 1.5 1.5 2.05964 1.5 2.75L1.5 6Z" fill-rule="EVENODD"></path>
 </g>
</svg>