<svg width="24" height="24" viewBox="0 0 24 24" fill="none" xmlns="http://www.w3.org/2000/svg">
<path d="M12.75 9C12.75 8.58579 12.4142 8.25 12 8.25C11.5858 8.25 11.25 8.58579 11.25 9V12C11.25 12.1989 11.329 12.3897 11.4697 12.5303L12.9697 14.0303C13.2626 14.3232 13.7374 14.3232 14.0303 14.0303C14.3232 13.7374 14.3232 13.2626 14.0303 12.9697L12.75 11.6893V9Z" fill="black"/>
<path fill-rule="evenodd" clip-rule="evenodd" d="M7.46352 2.50807C7.70126 1.20047 8.84012 0.25 10.1692 0.25H13.8309C15.1599 0.25 16.2988 1.20047 16.5365 2.50806L17.2209 6.27241C18.7749 7.68975 19.75 9.731 19.75 12C19.75 14.269 18.7749 16.3103 17.2209 17.7276L16.5365 21.4919C16.2988 22.7995 15.1599 23.75 13.8309 23.75H10.1692C8.84012 23.75 7.70126 22.7995 7.46352 21.4919L6.77909 17.7276C5.22509 16.3103 4.25 14.269 4.25 12C4.25 9.73099 5.22509 7.68973 6.77909 6.2724L7.46352 2.50807ZM8.52186 18.9276L8.93932 21.2236C9.04739 21.818 9.56505 22.25 10.1692 22.25H13.8309C14.435 22.25 14.9526 21.818 15.0607 21.2236L15.4782 18.9276C14.4322 19.4537 13.2507 19.75 12 19.75C10.7493 19.75 9.56781 19.4537 8.52186 18.9276ZM15.0607 2.77639L15.4782 5.07244C14.4322 4.54626 13.2507 4.25 12 4.25C10.7493 4.25 9.56781 4.54626 8.52186 5.07243L8.93932 2.7764C9.04739 2.18203 9.56505 1.75 10.1692 1.75H13.8309C14.435 1.75 14.9526 2.18203 15.0607 2.77639ZM5.75 12C5.75 8.54822 8.54822 5.75 12 5.75C15.4518 5.75 18.25 8.54822 18.25 12C18.25 15.4518 15.4518 18.25 12 18.25C8.54822 18.25 5.75 15.4518 5.75 12Z" fill="black"/>
</svg>
