<svg width="16" height="16" viewBox="0 0 16 16" fill="none" xmlns="http://www.w3.org/2000/svg">
<path d="M8.69999 5.4998C8.69999 5.11321 8.38659 4.7998 7.99999 4.7998C7.61339 4.7998 7.29999 5.11321 7.29999 5.4998V7.9998C7.29999 8.23385 7.41696 8.45241 7.6117 8.58224L9.1117 9.58224C9.43337 9.79669 9.86798 9.70976 10.0824 9.38809C10.2969 9.06643 10.2099 8.63182 9.88828 8.41737L8.69999 7.62518V5.4998Z" fill="black"/>
<path fill-rule="evenodd" clip-rule="evenodd" d="M4.57353 2.1818C4.73188 1.07334 5.6812 0.25 6.80092 0.25H9.19903C10.3187 0.25 11.2681 1.07334 11.4264 2.1818L11.7298 4.30522C12.6696 5.25387 13.25 6.55915 13.25 8C13.25 9.44085 12.6696 10.7461 11.7298 11.6948L11.4264 13.8182C11.2681 14.9267 10.3187 15.75 9.19903 15.75H6.80092C5.6812 15.75 4.73188 14.9267 4.57353 13.8182L4.27018 11.6947C3.33041 10.7461 2.75 9.44082 2.75 8C2.75 6.55918 3.33041 5.25393 4.27018 4.30529L4.57353 2.1818ZM5.94815 12.8339L6.05845 13.6061C6.11124 13.9756 6.42768 14.25 6.80092 14.25H9.19903C9.57227 14.25 9.88871 13.9756 9.94149 13.6061L10.0518 12.8339C9.42149 13.1018 8.72805 13.25 8 13.25C7.27192 13.25 6.57847 13.1018 5.94815 12.8339ZM9.94149 2.39393L10.0518 3.16607C9.42149 2.8982 8.72805 2.75 8 2.75C7.27192 2.75 6.57847 2.89821 5.94815 3.1661L6.05845 2.39393C6.11124 2.02445 6.42768 1.75 6.80092 1.75H9.19903C9.57227 1.75 9.88871 2.02445 9.94149 2.39393ZM4.25 8C4.25 5.92893 5.92893 4.25 8 4.25C10.0711 4.25 11.75 5.92893 11.75 8C11.75 10.0711 10.0711 11.75 8 11.75C5.92893 11.75 4.25 10.0711 4.25 8Z" fill="black"/>
</svg>
