<svg viewBox="0 0 24 24" width="24" height="24" fill="black" xmlns="http://www.w3.org/2000/svg">
 <g transform="translate(0.25, 1.25)">
  <path d="M8.5 4.75C8.5 2.95507 9.95507 1.5 11.75 1.5C12.9726 1.5 14.0387 2.17482 14.5942 3.1759C14.7952 3.53809 15.2517 3.66878 15.6139 3.4678C15.9761 3.26682 16.1068 2.81028 15.9058 2.44809C15.0966 0.989752 13.5394 0 11.75 0C9.12665 0 7 2.12665 7 4.75C7 6.16498 7.6191 7.43501 8.59909 8.30445L5.11388 13.7812C4.99902 13.7607 4.88077 13.75 4.76001 13.75L4.75001 13.75C3.64544 13.75 2.75001 14.6454 2.75001 15.75C2.75001 16.8546 3.64544 17.75 4.75001 17.75L4.76001 17.75C5.86458 17.75 6.76001 16.8546 6.76001 15.75C6.76001 15.3135 6.6202 14.9097 6.38293 14.5809L10.235 8.52773C10.4572 8.1785 10.3545 7.71527 10.0055 7.4927C9.09871 6.91447 8.5 5.9019 8.5 4.75Z" fill-rule="NONZERO"></path>
  <path d="M12.1139 6.71879C11.999 6.7393 11.8808 6.75 11.76 6.75L11.75 6.75C10.6454 6.75 9.75001 5.85457 9.75001 4.75C9.75001 3.64543 10.6454 2.75 11.75 2.75L11.76 2.75C12.8646 2.75 13.76 3.64543 13.76 4.75C13.76 5.18645 13.6202 5.59026 13.3829 5.91906L16.864 11.3894C17.4426 11.1388 18.0807 11 18.75 11C21.3734 11 23.5 13.1266 23.5 15.75C23.5 18.3734 21.3734 20.5 18.75 20.5C18.3411 20.5 17.9432 20.4482 17.5631 20.3503C17.1619 20.2471 16.9204 19.8382 17.0237 19.437C17.1269 19.0359 17.5358 18.7944 17.9369 18.8977C18.196 18.9643 18.4683 19 18.75 19C20.5449 19 22 17.5449 22 15.75C22 13.9551 20.5449 12.5 18.75 12.5C18.1066 12.5 17.5091 12.6862 17.0055 13.0073C16.8377 13.1143 16.6342 13.1502 16.4399 13.1071C16.2456 13.0641 16.0763 12.9455 15.9695 12.7776L12.1139 6.71879Z" fill-rule="NONZERO"></path>
  <path d="M1.93433 14.1255C2.14174 13.767 2.01922 13.3082 1.66067 13.1008C1.30213 12.8934 0.843332 13.0159 0.635924 13.3745C0.231328 14.0739 0 14.8861 0 15.75C0 18.3734 2.12665 20.5 4.75 20.5C7.11815 20.5 9.08154 18.767 9.44112 16.5L16.8954 16.5C17.1921 17.233 17.9107 17.75 18.75 17.75L18.76 17.75C19.8646 17.75 20.76 16.8546 20.76 15.75C20.76 14.6454 19.8646 13.75 18.76 13.75L18.75 13.75C17.9107 13.75 17.1921 14.267 16.8954 15L8.75 15C8.33579 15 8 15.3358 8 15.75C8 17.5449 6.54492 19 4.75 19C2.95508 19 1.5 17.5449 1.5 15.75C1.5 15.1568 1.65825 14.6028 1.93433 14.1255Z" fill-rule="NONZERO"></path>
 </g>
</svg>