<svg width="16" height="16" viewBox="0 0 16 16" fill="none" xmlns="http://www.w3.org/2000/svg">
<path d="M1.44259 6.56248C3.25388 4.96588 5.58546 4.08496 7.99998 4.08496C10.4145 4.08496 12.7461 4.96588 14.5574 6.56248C14.8681 6.83638 15.342 6.80653 15.6159 6.4958C15.8898 6.18507 15.86 5.71113 15.5493 5.43724C13.464 3.59913 10.7797 2.58496 7.99998 2.58496C5.22024 2.58496 2.53598 3.59913 0.450712 5.43724C0.139983 5.71113 0.110126 6.18507 0.384025 6.4958C0.657924 6.80653 1.13186 6.83638 1.44259 6.56248Z" fill="black"/>
<path d="M3.81333 8.94283C4.99627 7.95753 6.48713 7.41797 8.02667 7.41797C9.5662 7.41797 11.0571 7.95753 12.24 8.94283C12.5583 9.20793 13.0312 9.16482 13.2963 8.84655C13.5614 8.52828 13.5183 8.05537 13.2 7.79027C11.7475 6.58047 9.91699 5.91797 8.02667 5.91797C6.13635 5.91797 4.30581 6.58047 2.85333 7.79027C2.53506 8.05537 2.49195 8.52828 2.75705 8.84655C3.02215 9.16482 3.49506 9.20793 3.81333 8.94283Z" fill="black"/>
<path d="M8.00333 10.751C7.32877 10.751 6.67094 10.9609 6.12103 11.3515C5.78336 11.5914 5.31515 11.5122 5.07525 11.1745C4.83535 10.8368 4.91461 10.3686 5.25228 10.1287C6.05599 9.55774 7.01744 9.25098 8.00333 9.25098C8.98921 9.25098 9.95067 9.55774 10.7544 10.1287C11.092 10.3686 11.1713 10.8368 10.9314 11.1745C10.6915 11.5122 10.2233 11.5914 9.88562 11.3515C9.33572 10.9609 8.67788 10.751 8.00333 10.751Z" fill="black"/>
<path d="M8 12.3335C7.44772 12.3335 7 12.7812 7 13.3335C7 13.8858 7.44772 14.3335 8 14.3335H8.00667C8.55895 14.3335 9.00667 13.8858 9.00667 13.3335C9.00667 12.7812 8.55895 12.3335 8.00667 12.3335H8Z" fill="black"/>
</svg>
