<svg width="16" height="16" viewBox="0 0 16 16" fill="none" xmlns="http://www.w3.org/2000/svg">
<path fill-rule="evenodd" clip-rule="evenodd" d="M10.9592 1.7702C10.6136 1.73379 10.2627 1.74644 9.9169 1.80944C9.18298 1.94317 8.50724 2.29738 7.97973 2.82489C7.45222 3.3524 7.098 4.02814 6.96428 4.76207C6.83056 5.49599 6.92368 6.25324 7.23124 6.9329C7.35994 7.21731 7.29901 7.5517 7.07827 7.77244L1.98803 12.8627C1.83562 13.0151 1.75 13.2218 1.75 13.4373C1.75 13.6529 1.83562 13.8596 1.98803 14.012C2.14043 14.1644 2.34714 14.25 2.56267 14.25C2.7782 14.25 2.98491 14.1644 3.13731 14.012L8.22756 8.92173C8.4483 8.70099 8.78269 8.64006 9.0671 8.76876C9.74676 9.07632 10.504 9.16944 11.2379 9.03572C11.9719 8.902 12.6476 8.54778 13.1751 8.02027C13.7026 7.49276 14.0568 6.81702 14.1906 6.08309C14.2536 5.73732 14.2662 5.38638 14.2298 5.04081L12.3547 6.91586C12.0769 7.18825 11.7032 7.3408 11.3141 7.3408C10.9249 7.3408 10.5513 7.18823 10.2734 6.91583L10.2681 6.91058L9.08414 5.72661C8.81175 5.44872 8.6592 5.07507 8.6592 4.68593C8.6592 4.29679 8.81177 3.92317 9.08417 3.64528L9.08942 3.63992L10.9592 1.7702ZM9.64803 0.333739C10.6819 0.145359 11.7487 0.276545 12.7061 0.709812C12.9305 0.811317 13.0907 1.01645 13.1348 1.25867C13.1789 1.50089 13.1014 1.74934 12.9273 1.92344L10.1648 4.68593L11.3141 5.83522L14.0766 3.07273C14.2507 2.89863 14.4991 2.82107 14.7413 2.8652C14.9835 2.90934 15.1887 3.06954 15.2902 3.29385C15.7235 4.25131 15.8546 5.31807 15.6663 6.35197C15.4779 7.38587 14.9789 8.33782 14.2358 9.08093C13.4927 9.82405 12.5407 10.323 11.5068 10.5114C10.6473 10.668 9.76511 10.6038 8.94187 10.3287L4.19797 15.0726C3.76427 15.5063 3.17603 15.75 2.56267 15.75C1.94931 15.75 1.36107 15.5063 0.927365 15.0726C0.493656 14.6389 0.25 14.0507 0.25 13.4373C0.25 12.824 0.493656 12.2357 0.927365 11.802L5.67126 7.05813C5.39622 6.23489 5.33197 5.35269 5.48858 4.49319C5.67696 3.45929 6.17595 2.50735 6.91907 1.76423C7.66218 1.02112 8.61412 0.522118 9.64803 0.333739Z" fill="black"/>
</svg>
