<svg width="24" height="24" viewBox="0 0 24 24" fill="none" xmlns="http://www.w3.org/2000/svg">
<path fill-rule="evenodd" clip-rule="evenodd" d="M16.5813 3.36304C15.9181 3.22316 15.2305 3.21226 14.5566 3.33504C13.5067 3.52634 12.54 4.03306 11.7854 4.78769C11.0307 5.54232 10.524 6.50901 10.3327 7.55894C10.1414 8.60886 10.2746 9.69215 10.7146 10.6644C10.8433 10.9488 10.7824 11.2832 10.5617 11.504L3.65165 18.414C3.39448 18.6711 3.25 19.0199 3.25 19.3836C3.25 19.7473 3.39448 20.0961 3.65165 20.3533C3.90882 20.6105 4.25762 20.755 4.62132 20.755C4.98502 20.755 5.33382 20.6105 5.59099 20.3533L12.501 13.4433C12.7217 13.2226 13.0561 13.1616 13.3405 13.2903C14.3128 13.7303 15.3961 13.8635 16.446 13.6722C17.4959 13.481 18.4626 12.9742 19.2173 12.2196C19.9719 11.465 20.4786 10.4983 20.6699 9.44835C20.7927 8.77449 20.7818 8.08688 20.6419 7.4237L17.7263 10.3393C17.3992 10.6599 16.9594 10.8395 16.5013 10.8395C16.0433 10.8395 15.6034 10.6599 15.2763 10.3393L15.271 10.334L13.6657 8.72867C13.345 8.40154 13.1655 7.96171 13.1655 7.50364C13.1655 7.04557 13.3451 6.60577 13.6657 6.27864L13.671 6.27329L16.5813 3.36304ZM14.2877 1.85933C15.6376 1.61338 17.0304 1.78466 18.2805 2.35035C18.5048 2.45185 18.665 2.65698 18.7092 2.8992C18.7533 3.14142 18.6757 3.38988 18.5016 3.56397L14.7352 7.33042C14.6905 7.37697 14.6655 7.43903 14.6655 7.50364C14.6655 7.56825 14.6905 7.63031 14.7352 7.67685L16.3281 9.26979C16.3747 9.3145 16.4367 9.3395 16.5013 9.3395C16.5659 9.3395 16.628 9.3145 16.6745 9.2698L20.441 5.50331C20.6151 5.32922 20.8635 5.25166 21.1058 5.29579C21.348 5.33992 21.5531 5.50013 21.6546 5.72444C22.2203 6.97453 22.3916 8.36733 22.1456 9.71723C21.8997 11.0671 21.2482 12.31 20.2779 13.2803C19.3077 14.2505 18.0648 14.902 16.7149 15.148C15.5383 15.3623 14.3292 15.2597 13.2103 14.8553L6.65165 21.414C6.11317 21.9524 5.38284 22.255 4.62132 22.255C3.8598 22.255 3.12947 21.9524 2.59099 21.414C2.05251 20.8755 1.75 20.1452 1.75 19.3836C1.75 18.6221 2.05251 17.8918 2.59099 17.3533L9.14967 10.7946C8.74523 9.67578 8.64264 8.46663 8.85701 7.29006C9.10296 5.94016 9.75447 4.69727 10.7247 3.72703C11.6949 2.7568 12.9378 2.10529 14.2877 1.85933Z" fill="black"/>
</svg>
