<svg viewbox="0 0 24 24" width="24" height="24" fill="black" xmlns="http://www.w3.org/2000/svg">
 <g transform="translate(1.75, 1.7499995231628418)">
  <path d="M14.8313 1.61304C14.1681 1.47316 13.4805 1.46226 12.8066 1.58504C11.7567 1.77634 10.79 2.28306 10.0354 3.03769C9.28074 3.79232 8.77401 4.75901 8.58272 5.80894C8.39142 6.85886 8.52463 7.94215 8.96462 8.91444C9.09332 9.19885 9.03239 9.53323 8.81165 9.75397L1.90165 16.664C1.64448 16.9211 1.5 17.2699 1.5 17.6336C1.5 17.9973 1.64448 18.3461 1.90165 18.6033C2.15882 18.8605 2.50762 19.005 2.87132 19.005C3.23502 19.005 3.58382 18.8605 3.84099 18.6033L10.751 11.6933C10.9717 11.4726 11.3061 11.4116 11.5905 11.5403C12.5628 11.9803 13.6461 12.1135 14.696 11.9222C15.7459 11.731 16.7126 11.2242 17.4673 10.4696C18.2219 9.71496 18.7286 8.74827 18.9199 7.69835C19.0427 7.02449 19.0318 6.33688 18.8919 5.6737L15.9763 8.58928C15.6492 8.90992 15.2094 9.0895 14.7513 9.0895C14.2933 9.0895 13.8534 8.9099 13.5263 8.58925L13.521 8.584L11.9157 6.97867C11.595 6.65154 11.4155 6.21171 11.4155 5.75364C11.4155 5.29557 11.5951 4.85577 11.9157 4.52864L11.921 4.52329L14.8313 1.61304ZM12.5377 0.109332C13.8876 -0.136623 15.2804 0.0346575 16.5305 0.600347C16.7548 0.701852 16.915 0.906984 16.9592 1.1492C17.0033 1.39142 16.9257 1.63988 16.7516 1.81397L12.9852 5.58042C12.9405 5.62697 12.9155 5.68903 12.9155 5.75364C12.9155 5.81825 12.9405 5.88031 12.9852 5.92685L14.5781 7.51979C14.6247 7.5645 14.6867 7.5895 14.7513 7.5895C14.8159 7.5895 14.878 7.5645 14.9245 7.5198L18.691 3.75331C18.8651 3.57922 19.1135 3.50166 19.3558 3.54579C19.598 3.58992 19.8031 3.75013 19.9046 3.97444C20.4703 5.22453 20.6416 6.61733 20.3956 7.96723C20.1497 9.31713 19.4982 10.56 18.5279 11.5303C17.5577 12.5005 16.3148 13.152 14.9649 13.398C13.7883 13.6123 12.5792 13.5097 11.4603 13.1053L4.90165 19.664C4.36317 20.2024 3.63284 20.505 2.87132 20.505C2.1098 20.505 1.37947 20.2024 0.84099 19.664C0.302513 19.1255 0 18.3952 0 17.6336C0 16.8721 0.302513 16.1418 0.84099 15.6033L7.39967 9.04463C6.99523 7.92578 6.89264 6.71663 7.10701 5.54006C7.35296 4.19016 8.00447 2.94727 8.97471 1.97703C9.94495 1.0068 11.1878 0.355287 12.5377 0.109332Z" fill-rule="EVENODD"></path>
 </g>
</svg>