<svg viewbox="0 0 24 24" width="24" height="24" fill="black" xmlns="http://www.w3.org/2000/svg">
 <g transform="translate(5.125, 5.125)">
  <path d="M13.4937 1.49372C13.8354 1.15201 13.8354 0.59799 13.4937 0.256282C13.152 -0.0854272 12.598 -0.0854272 12.2563 0.256282L6.875 5.63756L1.49372 0.256282C1.15201 -0.0854272 0.59799 -0.0854272 0.256282 0.256282C-0.0854272 0.59799 -0.0854272 1.15201 0.256282 1.49372L5.63756 6.875L0.256282 12.2563C-0.0854272 12.598 -0.0854272 13.152 0.256282 13.4937C0.59799 13.8354 1.15201 13.8354 1.49372 13.4937L6.875 8.11244L12.2563 13.4937C12.598 13.8354 13.152 13.8354 13.4937 13.4937C13.8354 13.152 13.8354 12.598 13.4937 12.2563L8.11244 6.875L13.4937 1.49372Z" fill-rule="NONZERO"></path>
 </g>
</svg>