<svg viewbox="0 0 16 16" width="16" height="16" fill="black" xmlns="http://www.w3.org/2000/svg">
 <g transform="translate(0.25, 0.25)">
  <path d="M10.7803 4.71967C11.0732 5.01256 11.0732 5.48744 10.7803 5.78033L8.81066 7.75L10.7803 9.71967C11.0732 10.0126 11.0732 10.4874 10.7803 10.7803C10.4874 11.0732 10.0126 11.0732 9.71967 10.7803L7.75 8.81066L5.78033 10.7803C5.48744 11.0732 5.01256 11.0732 4.71967 10.7803C4.42678 10.4874 4.42678 10.0126 4.71967 9.71967L6.68934 7.75L4.71967 5.78033C4.42678 5.48744 4.42678 5.01256 4.71967 4.71967C5.01256 4.42678 5.48744 4.42678 5.78033 4.71967L7.75 6.68934L9.71967 4.71967C10.0126 4.42678 10.4874 4.42678 10.7803 4.71967Z" fill-rule="NONZERO"></path>
  <path d="M0 7.75C0 3.46979 3.46979 0 7.75 0C12.0302 0 15.5 3.46979 15.5 7.75C15.5 12.0302 12.0302 15.5 7.75 15.5C3.46979 15.5 0 12.0302 0 7.75ZM7.75 1.5C4.29822 1.5 1.5 4.29822 1.5 7.75C1.5 11.2018 4.29822 14 7.75 14C11.2018 14 14 11.2018 14 7.75C14 4.29822 11.2018 1.5 7.75 1.5Z" fill-rule="EVENODD"></path>
 </g>
</svg>