<svg width="16" height="16" viewBox="0 0 16 16" fill="none" xmlns="http://www.w3.org/2000/svg">
<path d="M11.0303 4.96967C11.3232 5.26256 11.3232 5.73744 11.0303 6.03033L9.06066 8L11.0303 9.96967C11.3232 10.2626 11.3232 10.7374 11.0303 11.0303C10.7374 11.3232 10.2626 11.3232 9.96967 11.0303L8 9.06066L6.03033 11.0303C5.73744 11.3232 5.26256 11.3232 4.96967 11.0303C4.67678 10.7374 4.67678 10.2626 4.96967 9.96967L6.93934 8L4.96967 6.03033C4.67678 5.73744 4.67678 5.26256 4.96967 4.96967C5.26256 4.67678 5.73744 4.67678 6.03033 4.96967L8 6.93934L9.96967 4.96967C10.2626 4.67678 10.7374 4.67678 11.0303 4.96967Z" fill="black"/>
<path fill-rule="evenodd" clip-rule="evenodd" d="M0.25 8C0.25 3.71979 3.71979 0.25 8 0.25C12.2802 0.25 15.75 3.71979 15.75 8C15.75 12.2802 12.2802 15.75 8 15.75C3.71979 15.75 0.25 12.2802 0.25 8ZM8 1.75C4.54822 1.75 1.75 4.54822 1.75 8C1.75 11.4518 4.54822 14.25 8 14.25C11.4518 14.25 14.25 11.4518 14.25 8C14.25 4.54822 11.4518 1.75 8 1.75Z" fill="black"/>
</svg>
