<svg width="24" height="24" viewBox="0 0 24 24" fill="none" xmlns="http://www.w3.org/2000/svg">
<path d="M8.38128 8.38128C8.72299 8.03957 9.27701 8.03957 9.61872 8.38128L12 10.7626L14.3813 8.38128C14.723 8.03957 15.277 8.03957 15.6187 8.38128C15.9604 8.72299 15.9604 9.27701 15.6187 9.61872L13.2374 12L15.6187 14.3813C15.9604 14.723 15.9604 15.277 15.6187 15.6187C15.277 15.9604 14.723 15.9604 14.3813 15.6187L12 13.2374L9.61872 15.6187C9.27701 15.9604 8.72299 15.9604 8.38128 15.6187C8.03957 15.277 8.03957 14.723 8.38128 14.3813L10.7626 12L8.38128 9.61872C8.03957 9.27701 8.03957 8.72299 8.38128 8.38128Z" fill="black"/>
<path fill-rule="evenodd" clip-rule="evenodd" d="M2.25 5C2.25 3.48122 3.48122 2.25 5 2.25H19C20.5188 2.25 21.75 3.48122 21.75 5V19C21.75 20.5188 20.5188 21.75 19 21.75H5C3.48122 21.75 2.25 20.5188 2.25 19V5ZM5 3.75C4.30964 3.75 3.75 4.30964 3.75 5V19C3.75 19.6904 4.30964 20.25 5 20.25H19C19.6904 20.25 20.25 19.6904 20.25 19V5C20.25 4.30964 19.6904 3.75 19 3.75H5Z" fill="black"/>
</svg>
