<svg width="16" height="16" viewBox="0 0 16 16" fill="none" xmlns="http://www.w3.org/2000/svg">
<path d="M4.96967 4.96967C5.26256 4.67678 5.73744 4.67678 6.03033 4.96967L8 6.93934L9.96967 4.96967C10.2626 4.67678 10.7374 4.67678 11.0303 4.96967C11.3232 5.26256 11.3232 5.73744 11.0303 6.03033L9.06066 8L11.0303 9.96967C11.3232 10.2626 11.3232 10.7374 11.0303 11.0303C10.7374 11.3232 10.2626 11.3232 9.96967 11.0303L8 9.06066L6.03033 11.0303C5.73744 11.3232 5.26256 11.3232 4.96967 11.0303C4.67678 10.7374 4.67678 10.2626 4.96967 9.96967L6.93934 8L4.96967 6.03033C4.67678 5.73744 4.67678 5.26256 4.96967 4.96967Z" fill="black"/>
<path fill-rule="evenodd" clip-rule="evenodd" d="M1.25 3.33333C1.25 2.18274 2.18274 1.25 3.33333 1.25H12.6667C13.8173 1.25 14.75 2.18274 14.75 3.33333V12.6667C14.75 13.8173 13.8173 14.75 12.6667 14.75H3.33333C2.18274 14.75 1.25 13.8173 1.25 12.6667V3.33333ZM3.33333 2.75C3.01117 2.75 2.75 3.01117 2.75 3.33333V12.6667C2.75 12.9888 3.01117 13.25 3.33333 13.25H12.6667C12.9888 13.25 13.25 12.9888 13.25 12.6667V3.33333C13.25 3.01117 12.9888 2.75 12.6667 2.75H3.33333Z" fill="black"/>
</svg>
