<svg viewbox="0 0 24 24" width="24" height="24" fill="black" xmlns="http://www.w3.org/2000/svg">
 <g transform="translate(2.2499897480010986, 1.249957799911499)">
  <path d="M11.0547 0.064712C11.3611 0.200952 11.5399 0.524096 11.4925 0.856108L10.6019 7.09008L18.8328 8.00463C19.1072 8.03512 19.3427 8.21387 19.4458 8.46997C19.5488 8.72607 19.5029 9.0181 19.3262 9.23018L9.32618 21.2302C9.11147 21.4878 8.75181 21.5716 8.44534 21.4354C8.13888 21.2991 7.96012 20.976 8.00755 20.644L8.89812 14.41L0.667187 13.4955C0.392806 13.465 0.157357 13.2862 0.0542656 13.0301C-0.048826 12.774 -0.00289071 12.482 0.173844 12.2699L10.1738 0.269904C10.3886 0.0122557 10.7482 -0.0715285 11.0547 0.064712ZM2.21911 12.1587L9.83283 13.0046C10.0346 13.027 10.2186 13.1303 10.3429 13.2907C10.4672 13.4512 10.5212 13.6552 10.4925 13.8561L9.86636 18.2389L17.2809 9.34142L9.66719 8.49545C9.46545 8.47304 9.28142 8.36982 9.15711 8.20936C9.03281 8.0489 8.97884 7.84491 9.00755 7.64398L9.63366 3.2612L2.21911 12.1587Z" fill-rule="EVENODD"></path>
 </g>
</svg>