<svg width="16" height="16" viewBox="0 0 16 16" fill="none" xmlns="http://www.w3.org/2000/svg">
<path fill-rule="evenodd" clip-rule="evenodd" d="M9.33171 0.327369C9.63643 0.477628 9.80208 0.813964 9.73545 1.14712L8.88736 5.38758L14.1233 6.26024C14.3916 6.30495 14.6146 6.49141 14.7062 6.74751C14.7978 7.00361 14.7435 7.28923 14.5644 7.49391L7.56445 15.4939C7.34071 15.7496 6.97304 15.823 6.66832 15.6727C6.3636 15.5224 6.19795 15.1861 6.26458 14.8529L7.11267 10.6125L1.87671 9.73983C1.60843 9.69512 1.38538 9.50866 1.2938 9.25256C1.20223 8.99646 1.25648 8.71085 1.43558 8.50616L8.43558 0.506157C8.65931 0.250465 9.02698 0.17711 9.33171 0.327369ZM3.45038 8.48142L8.12331 9.26024C8.32365 9.29363 8.50189 9.40685 8.61726 9.574C8.73264 9.74116 8.77528 9.94796 8.73545 10.1471L8.28677 12.3905L12.5496 7.51865L7.87671 6.73983C7.67637 6.70644 7.49814 6.59322 7.38276 6.42607C7.26739 6.25891 7.22474 6.05211 7.26458 5.85295L7.71325 3.60956L3.45038 8.48142Z" fill="black"/>
</svg>
