<svg width="16" height="16" viewBox="0 0 16 16" fill="none" xmlns="http://www.w3.org/2000/svg">
<path d="M9.73543 1.14712C9.80206 0.813965 9.63641 0.477628 9.33169 0.327369C9.02697 0.17711 8.6593 0.250465 8.43556 0.506157L6.51037 2.70638C6.23761 3.01811 6.2692 3.49193 6.58093 3.76469C6.89265 4.03745 7.36647 4.00586 7.63924 3.69414L7.71324 3.60956L7.57699 4.29079C7.49576 4.69696 7.75917 5.09208 8.16534 5.17332C8.57151 5.25455 8.96663 4.99114 9.04786 4.58497L9.73543 1.14712Z" fill="black"/>
<path fill-rule="evenodd" clip-rule="evenodd" d="M4.2402 5.30086L0.46967 1.53033C0.176777 1.23744 0.176777 0.762563 0.46967 0.46967C0.762563 0.176777 1.23744 0.176777 1.53033 0.46967L15.5303 14.4697C15.8232 14.7626 15.8232 15.2374 15.5303 15.5303C15.2374 15.8232 14.7626 15.8232 14.4697 15.5303L10.7699 11.8305L7.56443 15.4939C7.34964 15.7394 7.00081 15.8179 6.70156 15.6881C6.40231 15.5583 6.22126 15.25 6.25372 14.9254L6.68485 10.6141L1.86583 9.73794C1.60018 9.68964 1.38099 9.50227 1.29195 9.24736C1.20291 8.99245 1.25776 8.70936 1.43556 8.50616L4.2402 5.30086ZM9.70687 10.7675L5.30321 6.36387L3.43525 8.49869L7.63416 9.26213C8.01877 9.33206 8.28517 9.68569 8.24628 10.0747L7.97959 12.7416L9.70687 10.7675Z" fill="black"/>
<path d="M11.1233 5.76024C10.7147 5.69214 10.3283 5.96816 10.2602 6.37674C10.1921 6.78531 10.4681 7.17173 10.8767 7.23983L12.5496 7.51865L12.2689 7.83949C11.9961 8.15122 12.0277 8.62504 12.3395 8.8978C12.6512 9.17056 13.125 9.13898 13.3978 8.82725L14.5644 7.49391C14.7435 7.28923 14.7978 7.00361 14.7062 6.74751C14.6146 6.49141 14.3916 6.30495 14.1233 6.26024L11.1233 5.76024Z" fill="black"/>
</svg>
