<svg width="24" height="24" viewBox="0 0 24 24" fill="none" xmlns="http://www.w3.org/2000/svg">
<path fill-rule="evenodd" clip-rule="evenodd" d="M13.3047 1.31471C13.6111 1.45095 13.7899 1.7741 13.7425 2.10611L12.8519 8.34008L21.0828 9.25463C21.3572 9.28512 21.5927 9.46387 21.6958 9.71997C21.7988 9.97607 21.7529 10.2681 21.5762 10.4802L11.5762 22.4802C11.3615 22.7378 11.0018 22.8216 10.6953 22.6854C10.3889 22.5491 10.2101 22.226 10.2575 21.894L11.1481 15.66L2.91719 14.7455C2.64281 14.715 2.40736 14.5362 2.30427 14.2801C2.20117 14.024 2.24711 13.732 2.42384 13.5199L12.4238 1.5199C12.6386 1.26226 12.9982 1.17847 13.3047 1.31471ZM4.46911 13.4087L12.0828 14.2546C12.2846 14.277 12.4686 14.3803 12.5929 14.5407C12.7172 14.7012 12.7712 14.9052 12.7425 15.1061L12.1164 19.4889L19.5309 10.5914L11.9172 9.74545C11.7155 9.72304 11.5314 9.61982 11.4071 9.45936C11.2828 9.2989 11.2288 9.09491 11.2575 8.89398L11.8837 4.5112L4.46911 13.4087Z" fill="black"/>
</svg>
