<svg viewBox="0 0 16 16" width="16" height="16" fill="black" xmlns="http://www.w3.org/2000/svg">
 <g transform="translate(1.249987244606018, 0.25004586577415466)">
  <path d="M8.08171 0.077369C8.38643 0.227628 8.55208 0.563964 8.48545 0.897123L7.63736 5.13758L12.8733 6.01024C13.1416 6.05495 13.3646 6.24141 13.4562 6.49751C13.5478 6.75361 13.4935 7.03923 13.3144 7.24391L6.31445 15.2439C6.09071 15.4996 5.72304 15.573 5.41832 15.4227C5.1136 15.2724 4.94795 14.9361 5.01458 14.6029L5.86267 10.3625L0.626714 9.48983C0.358431 9.44512 0.13538 9.25866 0.0438035 9.00256C-0.0477731 8.74646 0.00647779 8.46085 0.18558 8.25616L7.18558 0.256157C7.40931 0.000464648 7.77698 -0.0728902 8.08171 0.077369ZM2.20038 8.23142L6.87331 9.01024C7.07365 9.04363 7.25189 9.15685 7.36726 9.324C7.48264 9.49116 7.52528 9.69796 7.48545 9.89712L7.03677 12.1405L11.2996 7.26865L6.62671 6.48983C6.42637 6.45644 6.24814 6.34322 6.13276 6.17607C6.01739 6.00891 5.97474 5.80211 6.01458 5.60295L6.46325 3.35956L2.20038 8.23142Z" fill-rule="EVENODD"></path>
 </g>
</svg>