<svg width="24" height="24" viewBox="0 0 24 24" fill="none" xmlns="http://www.w3.org/2000/svg">
<path d="M11 7.125C11.4832 7.125 11.875 7.51675 11.875 8V10.125H14C14.4832 10.125 14.875 10.5168 14.875 11C14.875 11.4832 14.4832 11.875 14 11.875H11.875V14C11.875 14.4832 11.4832 14.875 11 14.875C10.5168 14.875 10.125 14.4832 10.125 14V11.875H8C7.51675 11.875 7.125 11.4832 7.125 11C7.125 10.5168 7.51675 10.125 8 10.125H10.125V8C10.125 7.51675 10.5168 7.125 11 7.125Z" fill="black"/>
<path fill-rule="evenodd" clip-rule="evenodd" d="M16.6343 17.6948C15.112 18.9773 13.1463 19.75 11 19.75C6.16751 19.75 2.25 15.8325 2.25 11C2.25 6.16751 6.16751 2.25 11 2.25C15.8325 2.25 19.75 6.16751 19.75 11C19.75 13.1462 18.9773 15.1119 17.6949 16.6342L21.5303 20.4696C21.8232 20.7625 21.8232 21.2373 21.5303 21.5302C21.2374 21.8231 20.7626 21.8231 20.4697 21.5302L16.6343 17.6948ZM3.75 11C3.75 6.99594 6.99594 3.75 11 3.75C15.0041 3.75 18.25 6.99594 18.25 11C18.25 12.9604 17.4719 14.7391 16.2076 16.0441C16.1769 16.0666 16.1475 16.0918 16.1197 16.1196C16.0919 16.1474 16.0667 16.1768 16.0442 16.2076C14.7392 17.4719 12.9605 18.25 11 18.25C6.99594 18.25 3.75 15.0041 3.75 11Z" fill="black"/>
</svg>
