<svg viewbox="0 0 24 24" width="24" height="24" fill="black" xmlns="http://www.w3.org/2000/svg">
 <g transform="translate(2.25, 2.25)">
  <path d="M5.75 7.875C5.26675 7.875 4.875 8.26675 4.875 8.75C4.875 9.23325 5.26675 9.625 5.75 9.625L11.75 9.625C12.2332 9.625 12.625 9.23325 12.625 8.75C12.625 8.26675 12.2332 7.875 11.75 7.875L5.75 7.875Z" fill-rule="NONZERO"></path>
  <path d="M8.75 17.5C10.8963 17.5 12.862 16.7273 14.3843 15.4448L18.2197 19.2802C18.5126 19.5731 18.9874 19.5731 19.2803 19.2802C19.5732 18.9873 19.5732 18.5125 19.2803 18.2196L15.4449 14.3842C16.7273 12.8619 17.5 10.8962 17.5 8.75C17.5 3.91751 13.5825 0 8.75 0C3.91751 0 0 3.91751 0 8.75C0 13.5825 3.91751 17.5 8.75 17.5ZM8.75 1.5C4.74594 1.5 1.5 4.74594 1.5 8.75C1.5 12.7541 4.74594 16 8.75 16C10.7105 16 12.4892 15.2219 13.7942 13.9576C13.8167 13.9268 13.8419 13.8974 13.8697 13.8696C13.8975 13.8418 13.9269 13.8166 13.9576 13.7941C15.2219 12.4891 16 10.7104 16 8.75C16 4.74594 12.7541 1.5 8.75 1.5Z" fill-rule="EVENODD"></path>
 </g>
</svg>