<svg width="16" height="16" viewBox="0 0 16 16" fill="none" xmlns="http://www.w3.org/2000/svg">
<path d="M7.5 4.25C7.91421 4.25 8.25 4.58579 8.25 5V6.75H10C10.4142 6.75 10.75 7.08579 10.75 7.5C10.75 7.91421 10.4142 8.25 10 8.25H8.25V10C8.25 10.4142 7.91421 10.75 7.5 10.75C7.08579 10.75 6.75 10.4142 6.75 10V8.25H5C4.58579 8.25 4.25 7.91421 4.25 7.5C4.25 7.08579 4.58579 6.75 5 6.75H6.75V5C6.75 4.58579 7.08579 4.25 7.5 4.25Z" fill="black"/>
<path fill-rule="evenodd" clip-rule="evenodd" d="M7.5 1.25C4.04822 1.25 1.25 4.04822 1.25 7.5C1.25 10.9518 4.04822 13.75 7.5 13.75C8.95561 13.75 10.295 13.2524 11.3573 12.418L13.9697 15.0303C14.2626 15.3232 14.7374 15.3232 15.0303 15.0303C15.3232 14.7374 15.3232 14.2626 15.0303 13.9697L12.418 11.3573C13.2524 10.295 13.75 8.95561 13.75 7.5C13.75 4.04822 10.9518 1.25 7.5 1.25ZM2.75 7.5C2.75 4.87665 4.87665 2.75 7.5 2.75C10.1234 2.75 12.25 4.87665 12.25 7.5C12.25 10.1234 10.1234 12.25 7.5 12.25C4.87665 12.25 2.75 10.1234 2.75 7.5Z" fill="black"/>
</svg>
