<svg width="24" height="24" viewBox="0 0 24 24" fill="none" xmlns="http://www.w3.org/2000/svg">
<path d="M8 10.125C7.51675 10.125 7.125 10.5168 7.125 11C7.125 11.4832 7.51675 11.875 8 11.875H14C14.4832 11.875 14.875 11.4832 14.875 11C14.875 10.5168 14.4832 10.125 14 10.125H8Z" fill="black"/>
<path fill-rule="evenodd" clip-rule="evenodd" d="M11 19.75C13.1463 19.75 15.112 18.9773 16.6343 17.6948L20.4697 21.5302C20.7626 21.8231 21.2374 21.8231 21.5303 21.5302C21.8232 21.2373 21.8232 20.7625 21.5303 20.4696L17.6949 16.6342C18.9773 15.1119 19.75 13.1462 19.75 11C19.75 6.16751 15.8325 2.25 11 2.25C6.16751 2.25 2.25 6.16751 2.25 11C2.25 15.8325 6.16751 19.75 11 19.75ZM11 3.75C6.99594 3.75 3.75 6.99594 3.75 11C3.75 15.0041 6.99594 18.25 11 18.25C12.9605 18.25 14.7392 17.4719 16.0442 16.2076C16.0667 16.1768 16.0919 16.1474 16.1197 16.1196C16.1475 16.0918 16.1769 16.0666 16.2076 16.0441C17.4719 14.7391 18.25 12.9604 18.25 11C18.25 6.99594 15.0041 3.75 11 3.75Z" fill="black"/>
</svg>
