<svg width="16" height="16" viewBox="0 0 16 16" fill="none" xmlns="http://www.w3.org/2000/svg">
<g id="size=16">
<g id="Vector">
<path d="M10.6756 7.37337H5.33786V8.57337H10.6756V7.37337Z" fill="#000001"/>
<path d="M13.3377 3H9.81024L10.6622 4.21333L13.2445 5C13.7237 5.14666 14.0299 5.6 14.0165 6.06666V9.93333C14.0165 10.4133 13.7104 10.8533 13.2445 11L10.6755 11.7867L9.81024 13H13.3377C14.8152 13 15.9999 11.8 15.9999 10.3333V5.66666C16.0132 4.2 14.8152 3 13.3377 3Z" fill="#000001"/>
<path d="M2.66221 3H6.18964L5.33773 4.21333L2.7687 5C2.2895 5.14666 1.98335 5.6 1.99666 6.06666V9.93333C1.99666 10.4133 2.30281 10.8533 2.7687 11L5.33773 11.7867L6.18964 13H2.66221C1.198 13 0 11.8 0 10.3333V5.66666C0 4.2 1.198 3 2.66221 3Z" fill="#000001"/>
</g>
</g>
</svg>
