<svg width="24" height="24" viewBox="0 0 24 24" fill="none" xmlns="http://www.w3.org/2000/svg">
<g id="size=24">
<path id="Union" fill-rule="evenodd" clip-rule="evenodd" d="M12 1C7.58172 1 4 4.58172 4 9C4 11.6392 5.27801 13.9799 7.24893 15.437L6.01256 22.1134C5.96319 22.38 6.06152 22.6525 6.26975 22.8261C6.47797 22.9997 6.76368 23.0474 7.01701 22.9509L12 21.0526L16.983 22.9509C17.2364 23.0474 17.5221 22.9997 17.7303 22.8261C17.9385 22.6525 18.0368 22.38 17.9875 22.1134L16.7511 15.437C18.722 13.9799 20 11.6392 20 9C20 4.58172 16.4183 1 12 1ZM5.5 9C5.5 5.41015 8.41015 2.5 12 2.5C15.5899 2.5 18.5 5.41015 18.5 9C18.5 12.5899 15.5899 15.5 12 15.5C8.41015 15.5 5.5 12.5899 5.5 9ZM15.377 16.2544C14.351 16.7328 13.2067 17 12 17C10.7933 17 9.64903 16.7328 8.62306 16.2544L7.73057 21.0739L11.733 19.5491C11.905 19.4836 12.095 19.4836 12.267 19.5491L16.2695 21.0739L15.377 16.2544Z" fill="#000001"/>
</g>
</svg>
