<svg width="24" height="24" viewBox="0 0 24 24" fill="none" xmlns="http://www.w3.org/2000/svg">
<g id="size=24, tint=color">
<g id="Group">
<path id="Vector" d="M6.89488 10.0845C6.89488 10.3726 6.92601 10.6062 6.98049 10.7775C7.04275 10.9488 7.12058 11.1357 7.22953 11.3382C7.26845 11.4004 7.28401 11.4627 7.28401 11.5172C7.28401 11.5951 7.23732 11.673 7.13614 11.7508L6.64584 12.0779C6.5758 12.1246 6.50575 12.1479 6.44349 12.1479C6.36566 12.1479 6.28784 12.109 6.21001 12.0389C6.10106 11.9221 6.00767 11.7976 5.92984 11.673C5.85201 11.5406 5.77419 11.3927 5.68858 11.2136C5.08154 11.9299 4.31884 12.2881 3.4005 12.2881C2.74676 12.2881 2.22533 12.1012 1.84398 11.7275C1.46263 11.3537 1.26807 10.8554 1.26807 10.2325C1.26807 9.57063 1.50154 9.03337 1.97628 8.62848C2.45102 8.22358 3.08141 8.02113 3.88302 8.02113C4.14763 8.02113 4.42002 8.04449 4.70797 8.08343C4.99593 8.12236 5.29167 8.18465 5.60297 8.25473V7.68632C5.60297 7.09455 5.47845 6.68187 5.23719 6.44049C4.98815 6.19911 4.56789 6.08231 3.96863 6.08231C3.69624 6.08231 3.41606 6.11346 3.12811 6.18354C2.84015 6.25362 2.55998 6.33927 2.28759 6.44828C2.16306 6.50278 2.06967 6.53393 2.0152 6.5495C1.96072 6.56507 1.9218 6.57286 1.89067 6.57286C1.78172 6.57286 1.72724 6.49499 1.72724 6.33148V5.94994C1.72724 5.82536 1.7428 5.73192 1.78172 5.67742C1.82063 5.62291 1.89067 5.56841 1.99963 5.5139C2.27202 5.37375 2.59889 5.25695 2.98024 5.16352C3.36158 5.06229 3.76628 5.01557 4.19432 5.01557C5.12045 5.01557 5.79754 5.22581 6.23336 5.64627C6.6614 6.06674 6.87932 6.70523 6.87932 7.56174V10.0845H6.89488ZM3.73515 11.2681C3.99197 11.2681 4.25658 11.2214 4.53676 11.1279C4.81693 11.0345 5.06597 10.8632 5.2761 10.6296C5.40062 10.4816 5.49401 10.3181 5.54071 10.1313C5.58741 9.94438 5.61854 9.71858 5.61854 9.45384V9.12681C5.39284 9.0723 5.15158 9.02558 4.90254 8.99444C4.65349 8.96329 4.41223 8.94772 4.17097 8.94772C3.64954 8.94772 3.26819 9.04894 3.01137 9.25918C2.75454 9.46941 2.63002 9.7653 2.63002 10.1546C2.63002 10.5206 2.72341 10.7931 2.91798 10.98C3.10476 11.1746 3.37715 11.2681 3.73515 11.2681ZM9.98457 12.109C9.84448 12.109 9.75109 12.0857 9.68883 12.0311C9.62657 11.9844 9.57209 11.8754 9.5254 11.7275L7.69649 5.70857C7.64979 5.55284 7.62645 5.45161 7.62645 5.39711C7.62645 5.27253 7.68871 5.20245 7.81323 5.20245H8.57592C8.72379 5.20245 8.82497 5.22581 8.87944 5.28031C8.9417 5.32703 8.9884 5.43604 9.03509 5.58398L10.3426 10.7386L11.5567 5.58398C11.5956 5.42825 11.6423 5.32703 11.7045 5.28031C11.7668 5.23359 11.8757 5.20245 12.0158 5.20245H12.6384C12.7863 5.20245 12.8875 5.22581 12.9497 5.28031C13.012 5.32703 13.0665 5.43604 13.0976 5.58398L14.3273 10.8009L15.6736 5.58398C15.7203 5.42825 15.7748 5.32703 15.8293 5.28031C15.8916 5.23359 15.9927 5.20245 16.1328 5.20245H16.8566C16.9811 5.20245 17.0512 5.26474 17.0512 5.39711C17.0512 5.43604 17.0434 5.47497 17.0356 5.52169C17.0278 5.56841 17.0123 5.6307 16.9811 5.71635L15.1055 11.7353C15.0588 11.891 15.0043 11.9922 14.9421 12.0389C14.8798 12.0857 14.7786 12.1168 14.6463 12.1168H13.977C13.8292 12.1168 13.728 12.0934 13.6657 12.0389C13.6035 11.9844 13.549 11.8832 13.5179 11.7275L12.3116 6.70523L11.113 11.7197C11.0741 11.8754 11.0274 11.9766 10.9652 12.0311C10.9029 12.0857 10.794 12.109 10.6539 12.109H9.98457ZM19.9852 12.3192C19.5805 12.3192 19.1758 12.2725 18.7867 12.1791C18.3976 12.0857 18.094 11.9844 17.8917 11.8676C17.7672 11.7976 17.6816 11.7197 17.6504 11.6496C17.6193 11.5795 17.6037 11.5017 17.6037 11.4316V11.0345C17.6037 10.871 17.666 10.7931 17.7827 10.7931C17.8294 10.7931 17.8761 10.8009 17.9228 10.8165C17.9695 10.832 18.0396 10.8632 18.1174 10.8943C18.382 11.0111 18.6699 11.1046 18.9735 11.1669C19.2848 11.2291 19.5883 11.2603 19.8996 11.2603C20.3899 11.2603 20.7712 11.1746 21.0359 11.0033C21.3005 10.832 21.4405 10.5829 21.4405 10.2636C21.4405 10.0456 21.3705 9.86652 21.2304 9.71858C21.0903 9.57063 20.8257 9.43826 20.4444 9.31368L19.3159 8.96329C18.7478 8.7842 18.3275 8.51947 18.0707 8.16908C17.8139 7.82647 17.6816 7.44494 17.6816 7.04004C17.6816 6.71301 17.7516 6.42492 17.8917 6.17575C18.0318 5.92659 18.2186 5.70857 18.452 5.53726C18.6855 5.35818 18.9501 5.22581 19.2614 5.13237C19.5727 5.03893 19.8996 5 20.242 5C20.4132 5 20.5922 5.00779 20.7635 5.03115C20.9425 5.05451 21.1059 5.08565 21.2693 5.1168C21.425 5.15573 21.5729 5.19466 21.7129 5.24138C21.853 5.2881 21.962 5.33482 22.0398 5.38154C22.1488 5.44383 22.2266 5.50612 22.2733 5.5762C22.32 5.63849 22.3433 5.72414 22.3433 5.83315V6.19911C22.3433 6.36263 22.2811 6.44828 22.1643 6.44828C22.1021 6.44828 22.0009 6.41713 21.8686 6.35484C21.425 6.15239 20.9269 6.05117 20.3743 6.05117C19.9307 6.05117 19.5805 6.12125 19.3392 6.26919C19.098 6.41713 18.9735 6.64294 18.9735 6.96218C18.9735 7.1802 19.0513 7.36707 19.2069 7.51502C19.3626 7.66296 19.6506 7.8109 20.063 7.94327L21.1682 8.29366C21.7285 8.47275 22.1332 8.72191 22.3745 9.04116C22.6157 9.3604 22.7325 9.72636 22.7325 10.1313C22.7325 10.4661 22.6624 10.7697 22.5301 11.0345C22.39 11.2992 22.2032 11.5328 21.962 11.7197C21.7207 11.9143 21.4328 12.0545 21.0981 12.1557C20.7479 12.2647 20.3821 12.3192 19.9852 12.3192Z" fill="#252F3E"/>
<g id="Group_2">
<path id="Vector_2" fill-rule="evenodd" clip-rule="evenodd" d="M21.4556 16.1034C18.8952 17.9955 15.1751 19 11.9764 19C7.49366 19 3.45449 17.3415 0.403714 14.5851C0.162454 14.367 0.380367 14.0712 0.668322 14.2425C3.96814 16.1579 8.03844 17.3181 12.2488 17.3181C15.0895 17.3181 18.2103 16.7263 21.0821 15.5117C21.5101 15.317 21.8759 15.792 21.4556 16.1034Z" fill="#FF9900"/>
<path id="Vector_3" fill-rule="evenodd" clip-rule="evenodd" d="M22.5218 14.8888C22.1949 14.4683 20.3582 14.6863 19.5255 14.7875C19.2765 14.8187 19.2375 14.6007 19.4632 14.4372C20.9264 13.4093 23.3312 13.7052 23.6114 14.0478C23.8915 14.3982 23.5335 16.8042 22.1638 17.9566C21.9537 18.1357 21.7513 18.0423 21.8447 17.8087C22.156 17.0378 22.8487 15.3014 22.5218 14.8888Z" fill="#FF9900"/>
</g>
</g>
</g>
</svg>
