<svg width="16" height="16" viewBox="0 0 16 16" fill="none" xmlns="http://www.w3.org/2000/svg">
<g id="size=16, tint=mono">
<g id="Vector">
<path d="M4.50931 7.68653C4.50931 7.88408 4.5306 8.04426 4.56785 8.16172C4.61042 8.27918 4.66364 8.40733 4.73813 8.54615C4.76474 8.58886 4.77539 8.63157 4.77539 8.66895C4.77539 8.72234 4.74346 8.77573 4.67428 8.82913L4.33903 9.05338C4.29114 9.08541 4.24324 9.10143 4.20067 9.10143C4.14746 9.10143 4.09424 9.07473 4.04103 9.02668C3.96653 8.94659 3.90267 8.86116 3.84946 8.77573C3.79624 8.68497 3.74303 8.58352 3.6845 8.46072C3.26942 8.95193 2.74793 9.19753 2.12 9.19753C1.673 9.19753 1.31647 9.06939 1.05572 8.81311C0.794967 8.55683 0.661932 8.21511 0.661932 7.78797C0.661932 7.33414 0.821574 6.96573 1.14618 6.68809C1.47079 6.41045 1.90182 6.27163 2.44993 6.27163C2.63086 6.27163 2.8171 6.28764 3.014 6.31434C3.21089 6.34104 3.4131 6.38375 3.62596 6.4318V6.04204C3.62596 5.63626 3.54082 5.35328 3.37585 5.18776C3.20557 5.02224 2.91821 4.94215 2.50846 4.94215C2.32221 4.94215 2.13064 4.96351 1.93375 5.01156C1.73686 5.05962 1.54529 5.11835 1.35904 5.1931C1.27389 5.23047 1.21004 5.25183 1.17279 5.26251C1.13554 5.27319 1.10893 5.27853 1.08765 5.27853C1.01315 5.27853 0.975895 5.22513 0.975895 5.11301V4.85139C0.975895 4.76596 0.986538 4.70189 1.01315 4.66451C1.03975 4.62714 1.08765 4.58976 1.16214 4.55239C1.34839 4.45628 1.57189 4.37619 1.83264 4.31212C2.09339 4.24271 2.37011 4.21068 2.66278 4.21068C3.29603 4.21068 3.759 4.35484 4.05699 4.64316C4.34967 4.93148 4.49867 5.36929 4.49867 5.95661V7.68653H4.50931ZM2.34882 8.49809C2.52443 8.49809 2.70536 8.46606 2.89693 8.40199C3.0885 8.33792 3.25878 8.22045 3.40246 8.06028C3.4876 7.95883 3.55146 7.84671 3.58339 7.71856C3.61532 7.59042 3.6366 7.43558 3.6366 7.25405V7.0298C3.48228 6.99243 3.31732 6.96039 3.14703 6.93903C2.97675 6.91768 2.81178 6.907 2.64682 6.907C2.29028 6.907 2.02954 6.97641 1.85393 7.12057C1.67832 7.26473 1.59318 7.46762 1.59318 7.73458C1.59318 7.98553 1.65704 8.1724 1.79007 8.30054C1.91779 8.43402 2.10404 8.49809 2.34882 8.49809ZM6.62192 9.07473C6.52613 9.07473 6.46227 9.05871 6.4197 9.02134C6.37713 8.9893 6.33988 8.91455 6.30795 8.81311L5.05742 4.68587C5.02549 4.57909 5.00953 4.50968 5.00953 4.4723C5.00953 4.38687 5.0521 4.33882 5.13724 4.33882H5.65874C5.75985 4.33882 5.82903 4.35484 5.86628 4.39221C5.90885 4.42425 5.94077 4.499 5.9727 4.60044L6.8667 8.13502L7.69684 4.60044C7.72345 4.49366 7.75538 4.42425 7.79795 4.39221C7.84052 4.36018 7.91502 4.33882 8.0108 4.33882H8.43652C8.53762 4.33882 8.6068 4.35484 8.64937 4.39221C8.69194 4.42425 8.7292 4.499 8.75048 4.60044L9.59126 8.17774L10.5119 4.60044C10.5438 4.49366 10.581 4.42425 10.6183 4.39221C10.6609 4.36018 10.73 4.33882 10.8258 4.33882H11.3207C11.4059 4.33882 11.4538 4.38153 11.4538 4.4723C11.4538 4.499 11.4484 4.52569 11.4431 4.55773C11.4378 4.58976 11.4272 4.63248 11.4059 4.69121L10.1234 8.81845C10.0915 8.92523 10.0542 8.99464 10.0117 9.02668C9.96909 9.05871 9.89991 9.08007 9.80944 9.08007H9.3518C9.25069 9.08007 9.18151 9.06405 9.13894 9.02668C9.09637 8.9893 9.05912 8.91989 9.03784 8.81311L8.21302 5.36929L7.39352 8.80777C7.36691 8.91455 7.33499 8.98397 7.29241 9.02134C7.24984 9.05871 7.17534 9.07473 7.07956 9.07473H6.62192ZM13.4599 9.21889C13.1832 9.21889 12.9065 9.18686 12.6404 9.12279C12.3744 9.05871 12.1668 8.9893 12.0285 8.90922C11.9433 8.86116 11.8848 8.80777 11.8635 8.75972C11.8422 8.71166 11.8316 8.65827 11.8316 8.61022V8.33792C11.8316 8.22579 11.8742 8.1724 11.954 8.1724C11.9859 8.1724 12.0178 8.17774 12.0498 8.18842C12.0817 8.1991 12.1296 8.22045 12.1828 8.24181C12.3637 8.3219 12.5606 8.38597 12.7681 8.42868C12.981 8.4714 13.1885 8.49275 13.4014 8.49275C13.7366 8.49275 13.9974 8.43402 14.1783 8.31656C14.3593 8.1991 14.455 8.02824 14.455 7.80933C14.455 7.65983 14.4071 7.53703 14.3114 7.43558C14.2156 7.33414 14.0346 7.24337 13.7739 7.15794L13.0023 6.91768C12.6138 6.79487 12.3265 6.61334 12.1509 6.37307C11.9753 6.13815 11.8848 5.87652 11.8848 5.59888C11.8848 5.37463 11.9327 5.17708 12.0285 5.00623C12.1243 4.83537 12.252 4.68587 12.4116 4.56841C12.5713 4.4456 12.7522 4.35484 12.965 4.29077C13.1779 4.22669 13.4014 4.2 13.6355 4.2C13.7526 4.2 13.875 4.20534 13.9921 4.22136C14.1145 4.23737 14.2262 4.25873 14.338 4.28009C14.4444 4.30678 14.5455 4.33348 14.6413 4.36552C14.7371 4.39755 14.8116 4.42959 14.8648 4.46162C14.9393 4.50434 14.9925 4.54705 15.0244 4.5951C15.0564 4.63782 15.0723 4.69655 15.0723 4.7713V5.02224C15.0723 5.13437 15.0298 5.1931 14.9499 5.1931C14.9074 5.1931 14.8382 5.17174 14.7477 5.12903C14.4444 4.99021 14.1038 4.9208 13.726 4.9208C13.4227 4.9208 13.1832 4.96885 13.0183 5.0703C12.8533 5.17174 12.7681 5.32658 12.7681 5.54549C12.7681 5.69499 12.8214 5.82313 12.9278 5.92458C13.0342 6.02602 13.2311 6.12747 13.5131 6.21823L14.2688 6.4585C14.6519 6.5813 14.9286 6.75216 15.0936 6.97107C15.2586 7.18998 15.3384 7.44092 15.3384 7.71856C15.3384 7.94815 15.2905 8.15638 15.2 8.33792C15.1042 8.51945 14.9765 8.67963 14.8116 8.80777C14.6466 8.94125 14.4497 9.03736 14.2209 9.10677C13.9814 9.18152 13.7313 9.21889 13.4599 9.21889Z" fill="#000001"/>
<path fill-rule="evenodd" clip-rule="evenodd" d="M14.4653 11.8129C12.7146 13.1103 10.1709 13.7991 7.98382 13.7991C4.91869 13.7991 2.15688 12.6618 0.0708821 10.7717C-0.0940817 10.6222 0.0549179 10.4193 0.25181 10.5368C2.50809 11.8502 5.29119 12.6458 8.17007 12.6458C10.1124 12.6458 12.2463 12.24 14.2099 11.4071C14.5026 11.2736 14.7527 11.5993 14.4653 11.8129Z" fill="#000001"/>
<path fill-rule="evenodd" clip-rule="evenodd" d="M15.1944 10.9809C14.9709 10.6925 13.715 10.842 13.1456 10.9115C12.9754 10.9328 12.9488 10.7833 13.1031 10.6712C14.1035 9.96641 15.7478 10.1693 15.9394 10.4042C16.131 10.6445 15.8862 12.2943 14.9496 13.0845C14.8059 13.2073 14.6676 13.1433 14.7314 12.9831C14.9443 12.4545 15.4179 11.2638 15.1944 10.9809Z" fill="#000001"/>
</g>
</g>
</svg>
