<svg width="16" height="16" viewBox="0 0 16 16" fill="none" xmlns="http://www.w3.org/2000/svg">
<g id="size=16">
<g id="Union">
<path d="M7.75 1C8.16421 1 8.5 1.33579 8.5 1.75V9.36358L11.4547 6.23503C11.7392 5.9339 12.2138 5.92033 12.515 6.20474C12.8161 6.48915 12.8297 6.96383 12.5453 7.26497L8.29526 11.765C8.2831 11.7778 8.27052 11.7902 8.25757 11.8022C8.12676 11.9225 7.9531 11.9969 7.76209 11.9999L7.75 12L7.73791 11.9999C7.54003 11.9968 7.36076 11.917 7.22848 11.789L7.22386 11.7845C7.21689 11.7776 7.21006 11.7706 7.20336 11.7635L2.95474 7.26497C2.67033 6.96383 2.6839 6.48915 2.98503 6.20474C3.28617 5.92033 3.76085 5.9339 4.04526 6.23503L7 9.36358V1.75C7 1.33579 7.33579 1 7.75 1Z" fill="#000001"/>
<path d="M2.5 13.5C2.08579 13.5 1.75 13.8358 1.75 14.25C1.75 14.6642 2.08579 15 2.5 15H13C13.4142 15 13.75 14.6642 13.75 14.25C13.75 13.8358 13.4142 13.5 13 13.5H2.5Z" fill="#000001"/>
</g>
</g>
</svg>
