<svg width="24" height="24" viewBox="0 0 24 24" fill="none" xmlns="http://www.w3.org/2000/svg">
<g id="size=24">
<g id="Union">
<path d="M12.1779 1.6154C10.8585 1.09678 9.43553 0.901678 8.02636 1.04637C6.61721 1.19105 5.26272 1.67133 4.07453 2.44717C2.88636 3.223 1.89867 4.27204 1.19239 5.5074C0.486132 6.74274 0.0813475 8.12923 0.0110426 9.55263C-0.0592622 10.976 0.206898 12.3961 0.787835 13.6958C1.17371 14.5592 2.09003 15.7375 2.63575 16.3615C2.90843 16.6733 3.38225 16.7051 3.69404 16.4324C4.00584 16.1597 4.03755 15.6859 3.76487 15.3741C3.23241 14.7652 2.44556 13.7287 2.15727 13.0837C1.67274 11.9997 1.45053 10.8147 1.50922 9.62663C1.5679 8.43853 1.90576 7.28184 2.4946 6.2519C3.08342 5.22199 3.90619 4.34855 4.89462 3.70313C5.88303 3.05774 7.00895 2.65872 8.17957 2.53852C9.35018 2.41833 10.5325 2.58035 11.6291 3.01142C12.7258 3.4425 13.7058 4.13046 14.488 5.0191C15.2703 5.90778 15.8323 6.97168 16.1272 8.12328C16.2122 8.45511 16.5112 8.6872 16.8537 8.6872H18.1419C19.1416 8.68848 20.1114 9.03642 20.8883 9.67389C21.6654 10.3116 22.2024 11.2003 22.4076 12.1918C22.6129 13.1832 22.4736 14.2156 22.0136 15.1151C21.688 15.7517 21.2161 16.294 20.6431 16.7001C20.3052 16.9396 20.2254 17.4077 20.4649 17.7457C20.7044 18.0836 21.1725 18.1634 21.5105 17.9239C22.2804 17.3782 22.9131 16.6505 23.3491 15.7981C23.9649 14.5938 24.1509 13.2132 23.8765 11.8876C23.602 10.562 22.8834 9.37067 21.8398 8.5143C20.796 7.65783 19.4899 7.1888 18.1424 7.1872H17.4162C17.0363 6.02356 16.4237 4.94798 15.614 4.02802C14.6748 2.96111 13.4972 2.134 12.1779 1.6154Z" fill="#000001"/>
<path d="M12.75 18.75C12.75 18.3358 12.4142 18 12 18C11.5858 18 11.25 18.3358 11.25 18.75V19.25C11.25 19.6642 11.5858 20 12 20C12.4142 20 12.75 19.6642 12.75 19.25V18.75Z" fill="#000001"/>
<path fill-rule="evenodd" clip-rule="evenodd" d="M8 14.0137V13.0833C8 12.0064 8.41693 10.9699 9.1649 10.2027C9.9135 9.43494 10.9329 9 12 9C13.0671 9 14.0865 9.43494 14.8351 10.2027C15.5831 10.9699 16 12.0064 16 13.0833V14.0137C17.125 14.1381 18 15.0919 18 16.25V20.75C18 21.9926 16.9926 23 15.75 23H8.25C7.00736 23 6 21.9926 6 20.75V16.25C6 15.0919 6.87501 14.1381 8 14.0137ZM9.5 14V13.0833C9.5 12.3921 9.76789 11.733 10.2389 11.2499C10.7093 10.7674 11.3432 10.5 12 10.5C12.6568 10.5 13.2907 10.7674 13.7611 11.2499C14.2321 11.733 14.5 12.3921 14.5 13.0833V14H9.5ZM15.75 15.5C16.1642 15.5 16.5 15.8358 16.5 16.25V20.75C16.5 21.1642 16.1642 21.5 15.75 21.5H8.25C7.83579 21.5 7.5 21.1642 7.5 20.75V16.25C7.5 15.8358 7.83579 15.5 8.25 15.5H15.75Z" fill="#000001"/>
</g>
</g>
</svg>
