<svg width="16" height="16" viewBox="0 0 16 16" fill="none" xmlns="http://www.w3.org/2000/svg">
<g id="size=16">
<path id="Union" d="M6.78033 6.78033C6.48744 7.07322 6.01256 7.07322 5.71967 6.78033C5.42678 6.48744 5.42678 6.01256 5.71967 5.71967L9.21967 2.21967C9.51256 1.92678 9.98744 1.92678 10.2803 2.21967L13.7803 5.71967C14.0732 6.01256 14.0732 6.48744 13.7803 6.78033C13.4874 7.07322 13.0126 7.07322 12.7197 6.78033L10.5 4.56066V10.25C10.5 11.112 10.1576 11.9386 9.5481 12.5481C8.9386 13.1576 8.11195 13.5 7.25 13.5H2.75C2.33579 13.5 2 13.1642 2 12.75C2 12.3358 2.33579 12 2.75 12H7.25C7.71413 12 8.15925 11.8156 8.48744 11.4874C8.81563 11.1592 9 10.7141 9 10.25L9 4.56066L6.78033 6.78033Z" fill="#000001"/>
</g>
</svg>
