<svg width="24" height="24" viewBox="0 0 24 24" fill="none" xmlns="http://www.w3.org/2000/svg">
<g id="size=24, tint=color">
<g id="Group">
<path id="Vector" d="M20.2527 6.3538C20.1301 6.8604 20.0659 7.3854 19.9475 7.9224C18.4475 7.7278 16.6859 7.5852 14.7075 7.5156C14.5487 8.0178 14.3983 8.5094 14.2263 9.046C17.5373 9.2496 19.1463 10.1222 20.1007 11.1504C21.0289 12.1904 21.2259 13.3394 21.1723 14.4062C21.0529 16.14 20.2885 17.2358 19.2395 18.0482C18.1779 18.8482 16.8937 19.245 15.8665 19.3314C14.3507 19.4448 12.3239 19.084 11.8927 18.82C11.6327 18.2292 11.3773 17.634 11.1019 16.9848C11.0349 16.8466 10.9927 16.7048 11.1819 16.5402C11.4767 16.2576 11.7603 15.9842 12.0587 15.6946C12.1905 15.5658 12.3367 15.4458 12.4475 15.6304C12.8551 16.259 13.2371 16.8358 13.6197 17.4104C14.0543 18.0514 14.7163 18.6356 16.1625 18.5384C17.3783 18.4296 18.3025 17.51 18.4011 16.4984C18.5075 14.6264 16.6135 13.2984 11.6883 12.873C12.6335 10.02 13.5545 7.2586 14.2913 5.064C15.4613 5.118 16.5443 5.2134 17.5789 5.347C18.3441 5.4444 19.0551 5.6226 19.7681 5.705C17.9349 3.4452 15.1371 2 11.9995 2C6.47692 2 1.99952 6.4772 1.99952 12C1.99654 14.1328 2.67879 16.2102 3.94572 17.926C4.36932 17.9292 4.66292 17.8346 4.69472 17.652C4.73352 17.461 4.70092 17.1654 4.66752 16.8672C4.46752 14.9048 4.39692 12.786 4.47212 10.6628C3.96492 10.6848 3.50972 10.7076 3.07332 10.7332C3.09092 10.3406 3.11212 9.9686 3.14372 9.5814C3.57472 9.54 4.03132 9.5038 4.53292 9.4614C4.55432 9.1232 4.57852 8.7958 4.60772 8.4652C4.83292 6.44 6.96532 5.2016 8.74152 4.7236C9.52972 4.5316 10.0117 4.471 10.3901 4.4512C10.5269 4.4468 10.6743 4.4414 10.8211 4.4414C11.1893 4.4414 11.5629 4.4758 11.7995 4.6366C12.1827 4.9238 12.5613 5.2096 12.9639 5.5274C13.0039 5.5818 13.0479 5.6674 12.9479 5.8144C12.7631 6.0306 12.5847 6.2372 12.3969 6.4596C12.2887 6.591 12.1091 6.5564 11.9579 6.5154C11.6411 6.3532 11.3363 6.2042 11.0271 6.0544C10.4671 5.8052 9.88712 5.5488 9.24172 5.5744C8.83912 5.6066 8.44932 6.0186 8.40892 6.5822C8.35312 7.4398 8.31572 8.319 8.28412 9.2714C9.40312 9.24 10.5195 9.22 11.6965 9.2148C11.6965 9.4826 11.6947 9.7282 11.6947 10.0026C11.3107 10.1742 10.9487 10.3476 10.5639 10.5226C9.76992 10.5318 9.01432 10.538 8.25332 10.5512C8.21812 12.817 8.25152 15.0744 8.35332 17.1614C8.37332 17.4764 8.38852 17.7954 8.47912 18.009C8.58772 18.2778 9.21232 18.485 10.5711 18.5616C10.5765 18.7982 10.5831 19.0216 10.5911 19.2508C8.37852 19.1864 6.25392 18.9746 4.55112 18.6682C6.38092 20.7126 9.03952 22 11.9995 22C17.5225 22 21.9995 17.5226 21.9995 12C22.0024 9.98447 21.3933 8.01556 20.2527 6.3538Z" fill="#E4002B"/>
<path id="Vector_2" d="M21.1718 14.4062C21.2254 13.3394 21.0284 12.1902 20.1002 11.1504C19.1462 10.1222 17.5368 9.25043 14.2258 9.04603C14.3978 8.50943 14.5482 8.01783 14.707 7.51563C16.687 7.58523 18.4482 7.72783 19.947 7.92243C20.0654 7.38543 20.1296 6.86043 20.2522 6.35383C20.1001 6.13129 19.9389 5.91503 19.7686 5.70503C19.0556 5.62263 18.3446 5.44503 17.5794 5.34703C16.5448 5.21343 15.4618 5.11803 14.2918 5.06403C13.555 7.25863 12.634 10.02 11.6892 12.874C16.6144 13.3 18.5084 14.6274 18.402 16.5C18.3038 17.5114 17.3792 18.431 16.1634 18.54C14.7172 18.6372 14.0552 18.053 13.6206 17.412C13.2378 16.8364 12.856 16.2596 12.4484 15.632C12.3376 15.4474 12.1914 15.5674 12.0596 15.6962C11.7612 15.9858 11.4776 16.2592 11.1828 16.5418C10.9932 16.7066 11.0354 16.8482 11.1028 16.9864C11.3782 17.6356 11.6346 18.2308 11.8936 18.8216C12.3248 19.0858 14.3516 19.4466 15.8674 19.3332C16.8946 19.2468 18.1788 18.8496 19.2404 18.05C20.289 17.2358 21.0534 16.14 21.1718 14.4062Z" fill="white"/>
<path id="Vector_3" d="M3.94613 17.926C4.13573 18.1832 4.33706 18.4308 4.55013 18.6686C6.25393 18.975 8.37853 19.1868 10.5911 19.2512C10.5837 19.0216 10.5771 18.7986 10.5711 18.562C9.21233 18.4854 8.58773 18.2782 8.47913 18.0094C8.38853 17.7958 8.37273 17.4768 8.35333 17.1618C8.25133 15.0748 8.21793 12.8174 8.25333 10.5516C9.01333 10.5384 9.76993 10.5316 10.5639 10.523C10.9487 10.3476 11.3107 10.1742 11.6947 10.003C11.6947 9.72864 11.6965 9.48304 11.6965 9.21524C10.5199 9.22004 9.40353 9.24004 8.28453 9.27104C8.31613 8.31864 8.35353 7.43944 8.40933 6.58184C8.44933 6.01824 8.83953 5.60624 9.24213 5.57404C9.88733 5.54884 10.4667 5.80524 11.0275 6.05404C11.3367 6.20384 11.6415 6.35284 11.9583 6.51504C12.1095 6.55504 12.2891 6.59064 12.3973 6.45924C12.5851 6.23684 12.7635 6.03024 12.9483 5.81404C13.0483 5.66624 13.0051 5.58144 12.9641 5.52704C12.5617 5.20924 12.1831 4.92344 11.7999 4.63624C11.5633 4.47624 11.1897 4.44104 10.8215 4.44104C10.6747 4.44104 10.5273 4.44644 10.3905 4.45084C10.0121 4.47084 9.53053 4.53084 8.74193 4.72324C6.96573 5.20164 4.83333 6.44004 4.60793 8.46544C4.57893 8.79604 4.55473 9.12344 4.53333 9.46164C4.03173 9.50384 3.57513 9.54004 3.14413 9.58164C3.11253 9.96884 3.09133 10.3416 3.07373 10.7334C3.51013 10.7078 3.96533 10.685 4.47253 10.663C4.39733 12.7862 4.46853 14.905 4.66793 16.8674C4.70133 17.1656 4.73393 17.4612 4.69513 17.6522C4.66333 17.8346 4.36973 17.9292 3.94613 17.926Z" fill="white"/>
</g>
</g>
</svg>
