<svg width="16" height="16" viewBox="0 0 16 16" fill="none" xmlns="http://www.w3.org/2000/svg">
<g id="size=16, tint=color">
<g id="Group">
<path id="Shape" d="M10.313 5.37602L12.2001 3.87512L11.868 3.46236C10.3495 2.12987 8.2219 1.66621 6.28186 2.24464C4.34181 2.82308 2.8344 4.38573 2.30408 6.32909C2.27324 6.44203 2.61556 6.23101 2.76689 6.27251L5.37455 5.84498C5.37455 5.84498 5.50205 5.72088 5.57584 5.64031C6.73579 4.37381 8.70198 4.20843 10.0412 5.28596L10.313 5.37602Z" fill="#EA4335"/>
<path id="Shape_2" d="M13.6369 6.2998C13.3372 5.20261 12.7219 4.21625 11.8664 3.46173L10.0365 5.281C10.8092 5.90871 11.2494 6.8543 11.2305 7.84618V8.1691C12.13 8.1691 12.8592 8.89402 12.8592 9.78825C12.8592 10.6825 12.13 11.4074 11.2305 11.4074L7.97325 11.405L7.64844 11.4395V13.9473L7.97325 13.9999H11.2305C13.0981 14.0143 14.7549 12.8111 15.3091 11.038C15.8632 9.2648 15.1839 7.34005 13.6369 6.2998Z" fill="#4285F4"/>
<path id="Shape_3" d="M4.71139 13.9987H7.96867V11.405H4.71139C4.47932 11.4049 4.24997 11.3395 4.03889 11.2437L3.5814 11.3846L2.26842 12.6809L2.15405 13.1281C2.89034 13.6809 3.78877 14.0026 4.71139 13.9987Z" fill="#34A853"/>
<path id="Shape_4" d="M4.71125 5.57211C2.90194 5.58285 1.29921 6.73483 0.721781 8.43956C0.144351 10.1443 0.719698 12.0316 2.15392 13.1282L4.04332 11.2437C3.38319 10.9472 2.99938 10.2528 3.1015 9.53988C3.20362 8.82691 3.76713 8.26669 4.48428 8.16516C5.20142 8.06364 5.89983 8.44521 6.19807 9.1015L8.08748 7.2231C7.28358 6.17828 6.0344 5.56742 4.71125 5.57211Z" fill="#FBBC05"/>
</g>
</g>
</svg>
