<svg width="24" height="24" viewBox="0 0 24 24" fill="none" xmlns="http://www.w3.org/2000/svg">
<g id="size=24">
<g id="Union">
<path fill-rule="evenodd" clip-rule="evenodd" d="M7.5 9.91946C9.07259 9.57612 10.25 8.17556 10.25 6.5C10.25 4.567 8.683 3 6.75 3C4.817 3 3.25 4.567 3.25 6.5C3.25 8.17556 4.42741 9.57612 6 9.91946V20.75C6 21.1642 6.33579 21.5 6.75 21.5C7.16421 21.5 7.5 21.1642 7.5 20.75V9.91946ZM4.75 6.5C4.75 5.39543 5.64543 4.5 6.75 4.5C7.85457 4.5 8.75 5.39543 8.75 6.5C8.75 7.60457 7.85457 8.5 6.75 8.5C5.64543 8.5 4.75 7.60457 4.75 6.5Z" fill="#000001"/>
<path fill-rule="evenodd" clip-rule="evenodd" d="M18 8.75V14.3305C19.5726 14.6739 20.75 16.0744 20.75 17.75C20.75 19.683 19.183 21.25 17.25 21.25C15.317 21.25 13.75 19.683 13.75 17.75C13.75 16.0744 14.9274 14.6739 16.5 14.3305V8.75C16.5 8.05964 15.9404 7.5 15.25 7.5H13C12.5858 7.5 12.25 7.16421 12.25 6.75C12.25 6.33579 12.5858 6 13 6H15.25C16.7688 6 18 7.23122 18 8.75ZM15.25 17.75C15.25 16.6454 16.1454 15.75 17.25 15.75C18.3546 15.75 19.25 16.6454 19.25 17.75C19.25 18.8546 18.3546 19.75 17.25 19.75C16.1454 19.75 15.25 18.8546 15.25 17.75Z" fill="#000001"/>
</g>
</g>
</svg>
