<svg width="16" height="16" viewBox="0 0 16 16" fill="none" xmlns="http://www.w3.org/2000/svg">
<g id="size=16, tint=color">
<g id="Group">
<path id="Vector" fill-rule="evenodd" clip-rule="evenodd" d="M7.99935 1C4.13441 1 1 4.13067 1 7.99281C1 11.0823 3.00553 13.703 5.78713 14.6276C6.13736 14.692 6.26499 14.4761 6.26499 14.2906C6.26499 14.1249 6.25897 13.6849 6.25553 13.1016C4.30845 13.524 3.89763 12.164 3.89763 12.164C3.57921 11.3561 3.12026 11.1411 3.12026 11.1411C2.48469 10.7075 3.16839 10.7161 3.16839 10.7161C3.87099 10.7655 4.24055 11.4368 4.24055 11.4368C4.86494 12.5053 5.87909 12.1967 6.27788 12.0176C6.34148 11.5661 6.52239 11.2578 6.72221 11.0831C5.1679 10.9067 3.53366 10.3066 3.53366 7.62707C3.53366 6.86383 3.80653 6.23924 4.2543 5.75073C4.18211 5.57387 3.94189 4.86257 4.32306 3.90015C4.32306 3.90015 4.91049 3.71213 6.24779 4.61703C6.80601 4.46163 7.40504 4.38437 8.00021 4.38136C8.59495 4.38437 9.19356 4.46163 9.75263 4.61703C11.0891 3.71213 11.6756 3.90015 11.6756 3.90015C12.0577 4.86257 11.8175 5.57387 11.7457 5.75073C12.1943 6.23924 12.4651 6.86383 12.4651 7.62707C12.4651 10.3134 10.8282 10.9045 9.26919 11.0775C9.52015 11.2935 9.74404 11.7202 9.74404 12.3727C9.74404 13.3072 9.73544 14.0614 9.73544 14.2906C9.73544 14.4778 9.86178 14.6954 10.2167 14.6272C12.9962 13.7004 15 11.0814 15 7.99281C15 4.13067 11.8656 1 7.99935 1Z" fill="#161514"/>
</g>
</g>
</svg>
