<svg width="24" height="24" viewBox="0 0 24 24" fill="none" xmlns="http://www.w3.org/2000/svg">
<g id="size=24">
<g id="Union">
<path fill-rule="evenodd" clip-rule="evenodd" d="M8.8042 11C9.06148 8.03877 10.1747 5.22331 12 2.91572C13.3405 4.61044 14.2971 6.57917 14.8125 8.67881C14.9113 9.08108 15.3174 9.32713 15.7197 9.22837C16.122 9.12962 16.368 8.72346 16.2693 8.32119C15.769 6.2833 14.8897 4.35543 13.6733 2.6469C17.3609 3.30225 20.3139 6.08532 21.2155 9.68234C21.3162 10.0841 21.7235 10.3282 22.1253 10.2275C22.5271 10.1268 22.7712 9.71945 22.6705 9.31766C21.4728 4.53939 17.1507 1 12 1C5.92487 1 1 5.92487 1 12C1 17.2427 4.66693 21.6271 9.57522 22.7317C9.97932 22.8226 10.3806 22.5688 10.4716 22.1647C10.5625 21.7606 10.3087 21.3592 9.90455 21.2683C5.82288 20.3497 2.7361 16.8029 2.51293 12.5H7.267C7.39516 15.1062 8.12687 17.6292 9.38438 19.8674C9.58727 20.2285 10.0445 20.3568 10.4056 20.1539C10.7667 19.951 10.895 19.4937 10.6921 19.1326C9.56029 17.1182 8.89578 14.8479 8.76899 12.5H12.5C12.9142 12.5 13.25 12.1642 13.25 11.75C13.25 11.3358 12.9142 11 12.5 11H8.8042ZM7.29905 11H2.552C2.99359 6.77886 6.19937 3.38029 10.3268 2.64688C8.58789 5.0891 7.53793 7.97967 7.29905 11Z" fill="#000001"/>
<path d="M18 19C18.4142 19 18.75 19.3358 18.75 19.75V20.25C18.75 20.6642 18.4142 21 18 21C17.5858 21 17.25 20.6642 17.25 20.25V19.75C17.25 19.3358 17.5858 19 18 19Z" fill="#000001"/>
<path fill-rule="evenodd" clip-rule="evenodd" d="M14 15.0137C12.875 15.1381 12 16.0919 12 17.25V21.75C12 22.9926 13.0074 24 14.25 24H21.75C22.9926 24 24 22.9926 24 21.75V17.25C24 16.0919 23.125 15.1381 22 15.0137V14.0833C22 13.0064 21.5831 11.9699 20.8351 11.2027C20.0865 10.4349 19.0671 10 18 10C16.9329 10 15.9135 10.4349 15.1649 11.2027C14.4169 11.9699 14 13.0064 14 14.0833V15.0137ZM15.5 15V14.0833C15.5 13.3921 15.7679 12.733 16.2389 12.2499C16.7093 11.7674 17.3432 11.5 18 11.5C18.6568 11.5 19.2907 11.7674 19.7611 12.2499C20.2321 12.733 20.5 13.3921 20.5 14.0833V15H15.5ZM14.25 16.5C13.8358 16.5 13.5 16.8358 13.5 17.25V21.75C13.5 22.1642 13.8358 22.5 14.25 22.5H21.75C22.1642 22.5 22.5 22.1642 22.5 21.75V17.25C22.5 16.8358 22.1642 16.5 21.75 16.5H14.25Z" fill="#000001"/>
</g>
</g>
</svg>
