<svg width="16" height="16" viewBox="0 0 16 16" fill="none" xmlns="http://www.w3.org/2000/svg">
<g id="size=16, tint=color">
<g id="Group 189">
<path id="Vector" d="M14.9001 8.16098C14.9001 7.68517 14.8613 7.20677 14.7785 6.73865H8.13904V9.4341H11.9412C11.7834 10.3035 11.2764 11.0725 10.5341 11.5612V13.3102H12.8025C14.1345 12.091 14.9001 10.2906 14.9001 8.16098Z" fill="#4285F4"/>
<path id="Vector_2" d="M8.13912 15C10.0375 15 11.6386 14.3801 12.8051 13.3102L10.5368 11.5612C9.90568 11.9881 9.09094 12.2299 8.14173 12.2299C6.30533 12.2299 4.74829 10.9979 4.18962 9.34155H1.84888V11.1445C3.04381 13.5083 5.47767 15 8.13912 15Z" fill="#34A853"/>
<path id="Vector_3" d="M4.1869 9.3415C3.89205 8.47215 3.89205 7.53082 4.1869 6.66145V4.85846H1.84875C0.850385 6.83634 0.850385 9.16661 1.84875 11.1445L4.1869 9.3415Z" fill="#FBBC04"/>
<path id="Vector_4" d="M8.13912 3.77054C9.14269 3.75511 10.1126 4.13062 10.8394 4.81992L12.8491 2.82147C11.5766 1.63319 9.88759 0.979895 8.13912 1.00047C5.47767 1.00047 3.04381 2.49224 1.84888 4.85851L4.18702 6.66149C4.74311 5.00254 6.30275 3.77054 8.13912 3.77054Z" fill="#EA4335"/>
</g>
</g>
</svg>
