<svg width="16" height="16" viewBox="0 0 16 16" fill="none" xmlns="http://www.w3.org/2000/svg">
<g id="size=16">
<g id="Union">
<path d="M3 11.25C3 10.8358 3.33579 10.5 3.75 10.5H4.25C4.66421 10.5 5 10.8358 5 11.25C5 11.6642 4.66421 12 4.25 12H3.75C3.33579 12 3 11.6642 3 11.25Z" fill="#000001"/>
<path fill-rule="evenodd" clip-rule="evenodd" d="M4.74776 1C3.84575 1 3.03092 1.53869 2.67758 2.36861L0.179819 8.23524C0.0611619 8.51394 0 8.81373 0 9.11663V12.75C0 13.9926 1.00736 15 2.25 15H13.75C14.9926 15 16 13.9926 16 12.75V9.11663C16 8.81373 15.9388 8.51394 15.8202 8.23524L13.3224 2.36861C12.9691 1.53869 12.1543 1 11.2522 1H4.74776ZM4.0577 2.9562C4.17548 2.67956 4.44709 2.5 4.74776 2.5H11.2522C11.5529 2.5 11.8245 2.67956 11.9423 2.9562L14.0897 8H1.91027L4.0577 2.9562ZM1.5 9.5V12.75C1.5 13.1642 1.83579 13.5 2.25 13.5H13.75C14.1642 13.5 14.5 13.1642 14.5 12.75V9.5H1.5Z" fill="#000001"/>
</g>
</g>
</svg>
