<svg width="16" height="16" viewBox="0 0 16 16" fill="none" xmlns="http://www.w3.org/2000/svg">
<g id="size=16">
<g id="Union">
<path d="M1.5 1.25C1.5 0.835786 1.83579 0.5 2.25 0.5C2.66421 0.5 3 0.835786 3 1.25V3.10102C4.26966 1.80535 6.04139 1 8 1C11.866 1 15 4.13401 15 8C15 11.866 11.866 15 8 15C4.13401 15 1 11.866 1 8C1 7.58579 1.33579 7.25 1.75 7.25C2.16421 7.25 2.5 7.58579 2.5 8C2.5 11.0376 4.96243 13.5 8 13.5C11.0376 13.5 13.5 11.0376 13.5 8C13.5 4.96243 11.0376 2.5 8 2.5C6.53832 2.5 5.21073 3.06933 4.22505 4H5.75C6.16421 4 6.5 4.33579 6.5 4.75C6.5 5.16421 6.16421 5.5 5.75 5.5H2.25C1.83579 5.5 1.5 5.16421 1.5 4.75V1.25Z" fill="#000001"/>
<path d="M8.25 4C8.66421 4 9 4.33579 9 4.75V8.5126L10.8046 9.31464C11.1831 9.48287 11.3536 9.92609 11.1854 10.3046C11.0171 10.6831 10.5739 10.8536 10.1954 10.6854L7.9454 9.68536C7.67455 9.56498 7.5 9.29639 7.5 9V4.75C7.5 4.33579 7.83579 4 8.25 4Z" fill="#000001"/>
</g>
</g>
</svg>
