<svg width="24" height="24" viewBox="0 0 24 24" fill="none" xmlns="http://www.w3.org/2000/svg">
<g id="size=24">
<g id="Union">
<path fill-rule="evenodd" clip-rule="evenodd" d="M12 7.25C8.82436 7.25 6.25 9.82436 6.25 13C6.25 16.1756 8.82436 18.75 12 18.75C15.1756 18.75 17.75 16.1756 17.75 13C17.75 9.82436 15.1756 7.25 12 7.25ZM9.3287 12H7.86831C8.18141 10.7018 9.09048 9.63588 10.2898 9.10811C9.79716 10.003 9.47042 10.9829 9.3287 12ZM9.27425 13.5H7.7791C7.95744 15.0218 8.93975 16.2978 10.2899 16.8919C9.71693 15.8512 9.36836 14.6955 9.27425 13.5ZM13.7101 16.8919C15.0602 16.2978 16.0426 15.0218 16.2209 13.5H14.7257C14.6316 14.6955 14.2831 15.8512 13.7101 16.8919ZM13.2201 13.5C13.1059 14.6902 12.6844 15.8284 12 16.8038C11.3156 15.8284 10.8941 14.6902 10.7799 13.5H13.2201ZM13.1536 12H10.8464C11.0182 10.9921 11.4121 10.034 12 9.19615C12.5879 10.034 12.9818 10.9921 13.1536 12ZM14.6713 12H16.1317C15.8186 10.7018 14.9095 9.63588 13.7102 9.10811C14.2028 10.003 14.5296 10.9829 14.6713 12Z" fill="#000001"/>
<path fill-rule="evenodd" clip-rule="evenodd" d="M7 2.75C7 1.7835 7.7835 1 8.75 1H15.25C16.2165 1 17 1.7835 17 2.75V3H20.25C21.7688 3 23 4.23122 23 5.75V18.25C23 19.7688 21.7688 21 20.25 21H3.75C2.23122 21 1 19.7688 1 18.25V5.75C1 4.23122 2.23122 3 3.75 3H7V2.75ZM20.25 4.5H17V4.75C17 5.7165 16.2165 6.5 15.25 6.5H8.75C7.7835 6.5 7 5.7165 7 4.75V4.5H3.75C3.05964 4.5 2.5 5.05964 2.5 5.75V18.25C2.5 18.9404 3.05964 19.5 3.75 19.5H20.25C20.9404 19.5 21.5 18.9404 21.5 18.25V5.75C21.5 5.05964 20.9404 4.5 20.25 4.5ZM8.5 4.75V2.75C8.5 2.61193 8.61193 2.5 8.75 2.5H15.25C15.3881 2.5 15.5 2.61193 15.5 2.75V4.75C15.5 4.88807 15.3881 5 15.25 5H8.75C8.61193 5 8.5 4.88807 8.5 4.75Z" fill="#000001"/>
</g>
</g>
</svg>
