<svg width="16" height="16" viewBox="0 0 16 16" fill="none" xmlns="http://www.w3.org/2000/svg">
<g id="size=16">
<g id="Union">
<path d="M10 4.93934V2.75C10 2.33579 9.66421 2 9.25 2C8.83579 2 8.5 2.33579 8.5 2.75V6.75C8.5 7.16421 8.83579 7.5 9.25 7.5H13.25C13.6642 7.5 14 7.16421 14 6.75C14 6.33579 13.6642 6 13.25 6H11.0607L13.7803 3.28033C14.0732 2.98744 14.0732 2.51256 13.7803 2.21967C13.4874 1.92678 13.0126 1.92678 12.7197 2.21967L10 4.93934Z" fill="#000001"/>
<path d="M2.75 8.5C2.33579 8.5 2 8.83579 2 9.25C2 9.66421 2.33579 10 2.75 10H4.93934L2.21967 12.7197C1.92678 13.0126 1.92678 13.4874 2.21967 13.7803C2.51256 14.0732 2.98744 14.0732 3.28033 13.7803L6 11.0607V13.25C6 13.6642 6.33579 14 6.75 14C7.16421 14 7.5 13.6642 7.5 13.25V9.25C7.5 8.83579 7.16421 8.5 6.75 8.5H2.75Z" fill="#000001"/>
</g>
</g>
</svg>
