<svg width="24" height="24" viewBox="0 0 24 24" fill="none" xmlns="http://www.w3.org/2000/svg">
<g id="size=24">
<path id="Union" fill-rule="evenodd" clip-rule="evenodd" d="M3.03845 2.0577C2.75792 1.94083 2.43459 2.0048 2.21969 2.21969C2.0048 2.43459 1.94083 2.75792 2.0577 3.03845L9.34851 20.5385C9.4685 20.8265 9.75425 21.0101 10.0661 20.9996C10.3779 20.9891 10.6506 20.7866 10.751 20.4912L12.9516 14.0122L18.7197 19.7803C19.0126 20.0732 19.4874 20.0732 19.7803 19.7803C20.0732 19.4874 20.0732 19.0126 19.7803 18.7197L14.0122 12.9516L20.4912 10.751C20.7866 10.6506 20.9891 10.3779 20.9996 10.0661C21.0101 9.75425 20.8265 9.4685 20.5385 9.34851L3.03845 2.0577ZM9.96938 18.1283L4.14274 4.14274L18.1283 9.96938L12.388 11.9191C12.1673 11.994 11.994 12.1673 11.9191 12.388L9.96938 18.1283Z" fill="#000001"/>
</g>
</svg>
