<svg width="24" height="24" viewBox="0 0 24 24" fill="none" xmlns="http://www.w3.org/2000/svg">
<g id="size=24">
<g id="Union">
<path d="M5.28195 4.21959C5.57489 4.51244 5.57496 4.98731 5.28211 5.28025C3.50073 7.06217 2.5 9.47866 2.5 11.9983C2.5 14.5179 3.50073 16.9344 5.28211 18.7163C5.57496 19.0093 5.57489 19.4842 5.28195 19.777C4.98901 20.0699 4.51414 20.0698 4.22129 19.7768C2.1587 17.7136 1 14.9157 1 11.9983C1 9.08091 2.1587 6.28297 4.22129 4.21975C4.51414 3.92681 4.98901 3.92674 5.28195 4.21959Z" fill="#000001"/>
<path d="M18.718 4.21959C19.011 3.92674 19.4859 3.92681 19.7787 4.21975C21.8413 6.28297 23 9.08091 23 11.9983C23 14.9157 21.8413 17.7136 19.7787 19.7768C19.4859 20.0698 19.011 20.0699 18.718 19.777C18.4251 19.4842 18.425 19.0093 18.7179 18.7163C20.4993 16.9344 21.5 14.5179 21.5 11.9983C21.5 9.47866 20.4993 7.06217 18.7179 5.28025C18.425 4.98731 18.4251 4.51244 18.718 4.21959Z" fill="#000001"/>
<path fill-rule="evenodd" clip-rule="evenodd" d="M9 12C9 10.3431 10.3431 9 12 9C13.6569 9 15 10.3431 15 12C15 13.6569 13.6569 15 12 15C10.3431 15 9 13.6569 9 12ZM12 10.5C11.1716 10.5 10.5 11.1716 10.5 12C10.5 12.8284 11.1716 13.5 12 13.5C12.8284 13.5 13.5 12.8284 13.5 12C13.5 11.1716 12.8284 10.5 12 10.5Z" fill="#000001"/>
<path d="M8.11747 8.02629C8.40813 7.73118 8.40453 7.25632 8.10942 6.96566C7.81431 6.675 7.33945 6.6786 7.04879 6.97371C6.39852 7.63392 5.88329 8.41728 5.53198 9.27868C5.18067 10.1401 5 11.063 5 11.9947C5 12.9265 5.18067 13.8494 5.53198 14.7107C5.88329 15.5721 6.39852 16.3555 7.04879 17.0157C7.33945 17.3108 7.81431 17.3144 8.10942 17.0238C8.40453 16.7331 8.40813 16.2582 8.11747 15.9631C7.60548 15.4433 7.19867 14.8253 6.92091 14.1443C6.64313 13.4632 6.5 12.7327 6.5 11.9947C6.5 11.2567 6.64313 10.5262 6.92091 9.84514C7.19867 9.16407 7.60548 8.54611 8.11747 8.02629Z" fill="#000001"/>
<path d="M16.9512 6.9843C16.6606 6.68919 16.1857 6.68559 15.8906 6.97625C15.5955 7.26691 15.5919 7.74177 15.8825 8.03688C16.3945 8.5567 16.8013 9.17466 17.0791 9.85573C17.3569 10.5368 17.5 11.2673 17.5 12.0053C17.5 12.7433 17.3569 13.4738 17.0791 14.1549C16.8013 14.8359 16.3945 15.4539 15.8825 15.9737C15.5919 16.2688 15.5955 16.7437 15.8906 17.0343C16.1857 17.325 16.6606 17.3214 16.9512 17.0263C17.6015 16.3661 18.1167 15.5827 18.468 14.7213C18.8193 13.8599 19 12.937 19 12.0053C19 11.0735 18.8193 10.1506 18.468 9.28927C18.1167 8.42787 17.6015 7.64451 16.9512 6.9843Z" fill="#000001"/>
</g>
</g>
</svg>
