<svg width="16" height="16" viewBox="0 0 16 16" fill="none" xmlns="http://www.w3.org/2000/svg">
<g id="size=16">
<path id="Union" d="M7.24828 1.30748C6.94039 1.03038 6.91543 0.556165 7.19253 0.248283C7.46962 -0.0595996 7.94384 -0.0845584 8.25172 0.192536L10.7517 2.44254C10.9098 2.58477 11 2.78739 11 3.00001C11 3.21262 10.9098 3.41525 10.7517 3.55748L8.25172 5.80748C7.94384 6.08457 7.46962 6.05961 7.19253 5.75173C6.91543 5.44385 6.94039 4.96963 7.24828 4.69254L8.53803 3.53176C8.36179 3.5108 8.18226 3.5 8 3.5C5.51472 3.5 3.5 5.51472 3.5 8C3.5 10.4853 5.51472 12.5 8 12.5C10.4853 12.5 12.5 10.4853 12.5 8C12.5 7.42133 12.3911 6.86988 12.1935 6.36374C12.0428 5.9779 12.2334 5.54297 12.6193 5.39229C13.0051 5.24161 13.44 5.43224 13.5907 5.81808C13.8552 6.49532 14 7.23165 14 8C14 11.3137 11.3137 14 8 14C4.68629 14 2 11.3137 2 8C2 4.68629 4.68629 2 8 2C8.00593 2 8.01185 2.00001 8.01778 2.00003L7.24828 1.30748Z" fill="#000001"/>
</g>
</svg>
