<svg width="16" height="16" viewBox="0 0 16 16" fill="none" xmlns="http://www.w3.org/2000/svg">
<g id="size=16">
<path id="Union" fill-rule="evenodd" clip-rule="evenodd" d="M15.0793 2.52566C15.4479 1.52502 14.4749 0.55194 13.4742 0.920596L1.87758 5.19305C0.935682 5.54006 0.766345 6.7997 1.58316 7.38314L5.65218 10.2896C5.67463 10.3056 5.69427 10.3253 5.7103 10.3477L8.61674 14.4167C9.20018 15.2335 10.4598 15.0642 10.8068 14.1223L15.0793 2.52566ZM2.83954 6.4372L13.4845 2.51537L9.56268 13.1603L7.17384 9.81596L10.245 6.74478C10.5184 6.47141 10.5184 6.0282 10.245 5.75483C9.97166 5.48146 9.52844 5.48146 9.25507 5.75483L6.18389 8.82602L2.83954 6.4372Z" fill="#000001"/>
</g>
</svg>
