<svg width="24" height="24" viewBox="0 0 24 24" fill="none" xmlns="http://www.w3.org/2000/svg">
<g id="size=24">
<g id="Union">
<path d="M16.7803 8.21967C17.0732 8.51256 17.0732 8.98744 16.7803 9.28033L11.281 14.7796C11.2808 14.7799 11.2806 14.7801 11.2803 14.7803C10.9874 15.0732 10.5126 15.0732 10.2197 14.7803C10.2195 14.7802 10.2198 14.7805 10.2197 14.7803L7.71967 12.2803C7.42678 11.9874 7.42678 11.5126 7.71967 11.2197C8.01256 10.9268 8.48744 10.9268 8.78033 11.2197L10.75 13.1893L15.7197 8.21967C16.0126 7.92678 16.4874 7.92678 16.7803 8.21967Z" fill="#000001"/>
<path fill-rule="evenodd" clip-rule="evenodd" d="M11.0395 1.30745C11.659 1.07655 12.341 1.07655 12.9605 1.30745L19.2105 3.637C20.2865 4.03806 21 5.06549 21 6.21382V11.9999C21 14.7319 19.5385 17.0384 17.8963 18.7743C16.2467 20.5181 14.3341 21.7735 13.2467 22.4158C12.4723 22.8732 11.5277 22.8732 10.7533 22.4158C9.66594 21.7735 7.75328 20.5181 6.10373 18.7743C4.46155 17.0384 3 14.7319 3 11.9999V6.21382C3 5.06549 3.71353 4.03806 4.78955 3.637L11.0395 1.30745ZM12.4366 2.71299C12.155 2.60804 11.845 2.60804 11.5634 2.71299L5.31343 5.04254C4.82433 5.22484 4.5 5.69185 4.5 6.21382V11.9999C4.5 14.1822 5.67243 16.1357 7.19343 17.7435C8.70705 19.3436 10.4868 20.5162 11.5162 21.1242C11.82 21.3037 12.18 21.3037 12.4838 21.1242C13.5132 20.5162 15.2929 19.3436 16.8066 17.7435C18.3276 16.1357 19.5 14.1822 19.5 11.9999V6.21382C19.5 5.69185 19.1757 5.22484 18.6866 5.04254L12.4366 2.71299Z" fill="#000001"/>
</g>
</g>
</svg>
