<svg width="16" height="16" viewBox="0 0 16 16" fill="none" xmlns="http://www.w3.org/2000/svg">
<g id="size=16">
<g id="Union">
<path d="M15.7803 5.71967C16.0732 6.01256 16.0732 6.48744 15.7803 6.78033C15.4874 7.07322 15.0126 7.07322 14.7197 6.78033L13 5.06066V9.75C13 10.1642 12.6642 10.5 12.25 10.5C11.8358 10.5 11.5 10.1642 11.5 9.75V5.06066L9.78033 6.78033C9.48744 7.07322 9.01256 7.07322 8.71967 6.78033C8.42678 6.48744 8.42678 6.01256 8.71967 5.71967L11.7197 2.71967C11.8655 2.5738 12.0566 2.50057 12.2478 2.5L12.25 2.5L12.2522 2.5C12.3531 2.5003 12.4493 2.52051 12.5371 2.55691C12.6255 2.59351 12.7084 2.64776 12.7803 2.71967L15.7803 5.71967Z" fill="#000001"/>
<path d="M3 10.5C2.58579 10.5 2.25 10.1642 2.25 9.75C2.25 9.33579 2.58579 9 3 9H9C9.41421 9 9.75 9.33579 9.75 9.75C9.75 10.1642 9.41421 10.5 9 10.5H3Z" fill="#000001"/>
<path d="M2.25 12.75C2.25 13.1642 2.58579 13.5 3 13.5H13C13.4142 13.5 13.75 13.1642 13.75 12.75C13.75 12.3358 13.4142 12 13 12H3C2.58579 12 2.25 12.3358 2.25 12.75Z" fill="#000001"/>
<path d="M3 7.5C2.58579 7.5 2.25 7.16421 2.25 6.75C2.25 6.33579 2.58579 6 3 6H6C6.41421 6 6.75 6.33579 6.75 6.75C6.75 7.16421 6.41421 7.5 6 7.5H3Z" fill="#000001"/>
<path d="M2.25 3.75C2.25 4.16421 2.58579 4.5 3 4.5H6C6.41421 4.5 6.75 4.16421 6.75 3.75C6.75 3.33579 6.41421 3 6 3H3C2.58579 3 2.25 3.33579 2.25 3.75Z" fill="#000001"/>
</g>
</g>
</svg>
