<svg width="24" height="24" viewBox="0 0 24 24" fill="none" xmlns="http://www.w3.org/2000/svg">
<g id="size=24">
<g id="Union">
<path fill-rule="evenodd" clip-rule="evenodd" d="M9 3C6.23858 3 4 5.23858 4 8C4 10.7614 6.23858 13 9 13C11.7614 13 14 10.7614 14 8C14 5.23858 11.7614 3 9 3ZM5.5 8C5.5 6.067 7.067 4.5 9 4.5C10.933 4.5 12.5 6.067 12.5 8C12.5 9.933 10.933 11.5 9 11.5C7.067 11.5 5.5 9.933 5.5 8Z" fill="#000001"/>
<path d="M4.75 14.5C2.12665 14.5 0 16.6266 0 19.25V20.25C0 20.6642 0.335786 21 0.75 21C1.16421 21 1.5 20.6642 1.5 20.25V19.25C1.5 17.4551 2.95507 16 4.75 16H13.25C15.0449 16 16.5 17.4551 16.5 19.25V20.25C16.5 20.6642 16.8358 21 17.25 21C17.6642 21 18 20.6642 18 20.25V19.25C18 16.6266 15.8734 14.5 13.25 14.5H4.75Z" fill="#000001"/>
<path d="M16.2197 8.21967C16.5126 7.92678 16.9874 7.92678 17.2803 8.21967L19 9.93934L20.7197 8.21967C21.0126 7.92678 21.4874 7.92678 21.7803 8.21967C22.0732 8.51256 22.0732 8.98744 21.7803 9.28033L20.0607 11L21.7803 12.7197C22.0732 13.0126 22.0732 13.4874 21.7803 13.7803C21.4874 14.0732 21.0126 14.0732 20.7197 13.7803L19 12.0607L17.2803 13.7803C16.9874 14.0732 16.5126 14.0732 16.2197 13.7803C15.9268 13.4874 15.9268 13.0126 16.2197 12.7197L17.9393 11L16.2197 9.28033C15.9268 8.98744 15.9268 8.51256 16.2197 8.21967Z" fill="#000001"/>
</g>
</g>
</svg>
