<svg width="16" height="16" viewBox="0 0 16 16" fill="none" xmlns="http://www.w3.org/2000/svg">
<g id="size=16, tint=color">
<g id="Group">
<path id="icon" d="M1.67701 5.1408C1.47587 4.6791 0.978725 4.46996 0.51453 4.68594C0.0497671 4.90221 -0.121252 5.44186 0.0886867 5.90386L2.03779 10.3403C2.34432 11.0355 2.66733 11.4 3.27356 11.4C3.92128 11.4 4.20366 11.0031 4.5099 10.3403C4.5099 10.3403 6.20987 6.46403 6.22691 6.42357C6.24424 6.38252 6.29878 6.25727 6.47179 6.25846C6.61809 6.25936 6.7411 6.38162 6.7411 6.54584V10.3364C6.7411 10.9207 7.05047 11.4 7.64591 11.4C8.24079 11.4 8.56237 10.9207 8.56237 10.3364V7.23452C8.56237 6.63627 8.97174 6.24805 9.52968 6.24805C10.0876 6.24805 10.4589 6.65026 10.4589 7.23452V10.3364C10.4589 10.9207 10.7694 11.4 11.3637 11.4C11.9586 11.4 12.2819 10.9207 12.2819 10.3364V7.23452C12.2819 6.63627 12.6896 6.24805 13.2478 6.24805C13.8049 6.24805 14.1776 6.65026 14.1776 7.23452V10.3364C14.1776 10.9207 14.4878 11.4 15.0827 11.4C15.6773 11.4 16 10.9207 16 10.3364V6.80614C16 5.50879 15.0037 4.59996 13.8049 4.59996C12.6075 4.59996 11.8575 5.46744 11.8575 5.46744C11.4589 4.92631 10.9095 4.60115 9.97967 4.60115C8.99844 4.60115 8.13965 5.46744 8.13965 5.46744C7.7408 4.92631 7.06184 4.60115 6.49963 4.60115C5.63005 4.60115 4.93944 5.00157 4.51814 6.01036L3.27356 9.08253L1.67701 5.1408Z" fill="#696566"/>
</g>
</g>
</svg>
