<svg width="16" height="16" viewBox="0 0 16 16" fill="none" xmlns="http://www.w3.org/2000/svg">
<g id="size=16">
<path id="Union" fill-rule="evenodd" clip-rule="evenodd" d="M2.25 1C1.00736 1 0 2.00736 0 3.25V12.75C0 13.9926 1.00736 15 2.25 15H13.75C14.9926 15 16 13.9926 16 12.75V3.25C16 2.00736 14.9926 1 13.75 1H2.25ZM4.5 2.5H2.25C1.83579 2.5 1.5 2.83579 1.5 3.25V5H4.5V2.5ZM1.5 6.5V9.5H7V6.5H1.5ZM1.5 11V12.75C1.5 13.1642 1.83579 13.5 2.25 13.5H4.5V11H1.5ZM6 13.5H10V11H6V13.5ZM11.5 13.5H13.75C14.1642 13.5 14.5 13.1642 14.5 12.75V11H11.5V13.5ZM14.5 9.5V6.5H8.5V9.5H14.5ZM14.5 5V3.25C14.5 2.83579 14.1642 2.5 13.75 2.5H11.5V5H14.5ZM10 2.5V5H6V2.5H10Z" fill="#000001"/>
</g>
</svg>
