<svg viewBox="0 0 24 24" width="24" height="24" fill="currentColor" xmlns="http://www.w3.org/2000/svg">
 <g transform="translate(1, 1)">
  <path d="M11 1.5C5.75329 1.5 1.5 5.75329 1.5 11C1.5 16.2467 5.75329 20.5 11 20.5C16.2467 20.5 20.5 16.2467 20.5 11C20.5 5.75329 16.2467 1.5 11 1.5ZM0 11C0 4.92487 4.92487 0 11 0C17.0751 0 22 4.92487 22 11C22 17.0751 17.0751 22 11 22C4.92487 22 0 17.0751 0 11Z" fill-rule="EVENODD"></path>
  <path d="M11 6C11.4142 6 11.75 6.33579 11.75 6.75L11.75 11.25C11.75 11.6642 11.4142 12 11 12C10.5858 12 10.25 11.6642 10.25 11.25L10.25 6.75C10.25 6.33579 10.5858 6 11 6Z" fill-rule="EVENODD"></path>
  <path d="M10 15C10 14.4477 10.4477 14 11 14L11.01 14C11.5623 14 12.01 14.4477 12.01 15C12.01 15.5523 11.5623 16 11.01 16L11 16C10.4477 16 10 15.5523 10 15Z" fill-rule="EVENODD"></path>
 </g>
</svg>