<svg viewBox="0 0 16 16" width="16" height="16" fill="currentColor" xmlns="http://www.w3.org/2000/svg">
 <g transform="translate(0, 0)">
  <path d="M8 1.5C4.41015 1.5 1.5 4.41015 1.5 8C1.5 11.5899 4.41015 14.5 8 14.5C11.5899 14.5 14.5 11.5899 14.5 8C14.5 4.41015 11.5899 1.5 8 1.5ZM0 8C0 3.58172 3.58172 0 8 0C12.4183 0 16 3.58172 16 8C16 12.4183 12.4183 16 8 16C3.58172 16 0 12.4183 0 8Z" fill-rule="EVENODD"></path>
  <path d="M8 4C8.41421 4 8.75 4.33579 8.75 4.75L8.75 8.25C8.75 8.66421 8.41421 9 8 9C7.58579 9 7.25 8.66421 7.25 8.25L7.25 4.75C7.25 4.33579 7.58579 4 8 4Z" fill-rule="EVENODD"></path>
  <path d="M7 11C7 10.4477 7.44772 10 8 10L8.00667 10C8.55895 10 9.00667 10.4477 9.00667 11C9.00667 11.5523 8.55895 12 8.00667 12L8 12C7.44772 12 7 11.5523 7 11Z" fill-rule="EVENODD"></path>
 </g>
</svg>