<svg viewBox="0 0 24 24" width="24" height="24" fill="currentColor" xmlns="http://www.w3.org/2000/svg">
 <g transform="translate(1, 2)">
  <path d="M1.75 4.5C2.16421 4.5 2.5 4.83579 2.5 5.25L2.5 17.25C2.5 17.9404 3.05964 18.5 3.75 18.5L18.25 18.5C18.9404 18.5 19.5 17.9404 19.5 17.25L19.5 5.25C19.5 4.83579 19.8358 4.5 20.25 4.5C20.6642 4.5 21 4.83579 21 5.25L21 17.25C21 18.7688 19.7688 20 18.25 20L3.75 20C2.23122 20 1 18.7688 1 17.25L1 5.25C1 4.83579 1.33579 4.5 1.75 4.5Z" fill-rule="EVENODD"></path>
  <path d="M0 2.25C0 1.00736 1.00736 0 2.25 0L19.75 0C20.9926 0 22 1.00736 22 2.25L22 3.75C22 4.99264 20.9926 6 19.75 6L2.25 6C1.00736 6 0 4.99264 0 3.75L0 2.25ZM2.25 1.5C1.83579 1.5 1.5 1.83579 1.5 2.25L1.5 3.75C1.5 4.16421 1.83579 4.5 2.25 4.5L19.75 4.5C20.1642 4.5 20.5 4.16421 20.5 3.75L20.5 2.25C20.5 1.83579 20.1642 1.5 19.75 1.5L2.25 1.5Z" fill-rule="EVENODD"></path>
  <path d="M8 9.75C8 9.33579 8.33579 9 8.75 9L13.25 9C13.6642 9 14 9.33579 14 9.75C14 10.1642 13.6642 10.5 13.25 10.5L8.75 10.5C8.33579 10.5 8 10.1642 8 9.75Z" fill-rule="EVENODD"></path>
 </g>
</svg>