<svg viewBox="0 0 24 24" width="24" height="24" fill="black" xmlns="http://www.w3.org/2000/svg">
 <g transform="translate(4.25, 4.25)">
  <path d="M8.28033 0.21967C7.98744 -0.0732233 7.51256 -0.0732233 7.21967 0.21967C6.92678 0.512563 6.92678 0.987437 7.21967 1.28033L12.9393 7L0.75 7C0.335786 7 0 7.33579 0 7.75C0 8.16421 0.335786 8.5 0.75 8.5L12.9393 8.5L7.21967 14.2197C6.92678 14.5126 6.92678 14.9874 7.21967 15.2803C7.51256 15.5732 7.98744 15.5732 8.28033 15.2803L15.2803 8.28033C15.5732 7.98744 15.5732 7.51256 15.2803 7.21967L8.28033 0.21967Z" fill-rule="NONZERO"></path>
 </g>
</svg>