<svg viewBox="0 0 16 16" width="16" height="16" fill="currentColor" xmlns="http://www.w3.org/2000/svg">
 <g transform="translate(2, 2.999998092651367)">
  <path d="M0 5C0 4.58579 0.335786 4.25 0.75 4.25L11.25 4.25C11.6642 4.25 12 4.58579 12 5C12 5.41422 11.6642 5.75 11.25 5.75L0.75 5.75C0.335786 5.75 0 5.41422 0 5Z" fill-rule="EVENODD"></path>
  <path d="M5.79526 0.235034C6.07967 0.536173 6.06611 1.01085 5.76497 1.29526L1.8423 5L5.76497 8.70474C6.06611 8.98915 6.07967 9.46383 5.79526 9.76497C5.51085 10.0661 5.03617 10.0797 4.73503 9.79526L0.235032 5.54526C0.0850157 5.40358 0 5.20635 0 5C0 4.79366 0.0850157 4.59642 0.235032 4.45474L4.73503 0.204742C5.03617 -0.0796667 5.51085 -0.0661045 5.79526 0.235034Z" fill-rule="EVENODD"></path>
 </g>
</svg>