<svg viewBox="0 0 16 16" width="16" height="16" fill="currentColor" xmlns="http://www.w3.org/2000/svg">
 <g transform="translate(2.999998092651367, 2)">
  <path d="M5 0C5.41422 0 5.75 0.335786 5.75 0.75L5.75 11.25C5.75 11.6642 5.41422 12 5 12C4.58579 12 4.25 11.6642 4.25 11.25L4.25 0.75C4.25 0.335786 4.58579 0 5 0Z" fill-rule="EVENODD"></path>
  <path d="M0.235034 5.79526C0.536173 6.07967 1.01085 6.06611 1.29526 5.76497L5 1.8423L8.70474 5.76497C8.98915 6.06611 9.46383 6.07967 9.76497 5.79526C10.0661 5.51085 10.0797 5.03617 9.79526 4.73503L5.54526 0.235033C5.40358 0.0850158 5.20635 0 5 0C4.79366 0 4.59642 0.0850158 4.45474 0.235033L0.204742 4.73503C-0.0796667 5.03617 -0.0661045 5.51085 0.235034 5.79526Z" fill-rule="EVENODD"></path>
 </g>
</svg>