<svg viewBox="0 0 16 16" width="16" height="16" fill="currentColor" xmlns="http://www.w3.org/2000/svg">
 <g transform="translate(2, 2.999998092651367)">
  <path d="M0 5C0 4.58579 0.335786 4.25 0.75 4.25L11.25 4.25C11.6642 4.25 12 4.58579 12 5C12 5.41422 11.6642 5.75 11.25 5.75L0.75 5.75C0.335786 5.75 0 5.41422 0 5Z" fill-rule="EVENODD"></path>
  <path d="M6.20474 0.235034C5.92033 0.536173 5.93389 1.01085 6.23503 1.29526L10.1577 5L6.23503 8.70474C5.93389 8.98915 5.92033 9.46383 6.20474 9.76497C6.48915 10.0661 6.96383 10.0797 7.26497 9.79526L11.765 5.54526C11.915 5.40358 12 5.20635 12 5C12 4.79366 11.915 4.59642 11.765 4.45474L7.26497 0.204742C6.96383 -0.0796667 6.48915 -0.0661045 6.20474 0.235034Z" fill-rule="EVENODD"></path>
 </g>
</svg>