<svg viewBox="0 0 24 24" width="24" height="24" fill="black" xmlns="http://www.w3.org/2000/svg">
 <g transform="translate(1.25, 1.25)">
  <path d="M11.2803 6.21967L15.2803 10.2197C15.4268 10.3661 15.5 10.5581 15.5 10.75C15.5 10.8517 15.4798 10.9487 15.4431 11.0371C15.4065 11.1255 15.3522 11.2084 15.2803 11.2803L11.2803 15.2803C10.9874 15.5732 10.5126 15.5732 10.2197 15.2803C9.92678 14.9874 9.92678 14.5126 10.2197 14.2197L12.9393 11.5L6.75 11.5C6.33579 11.5 6 11.1642 6 10.75C6 10.3358 6.33579 10 6.75 10L12.9393 10L10.2197 7.28033C9.92678 6.98744 9.92678 6.51256 10.2197 6.21967C10.5126 5.92678 10.9874 5.92678 11.2803 6.21967Z" fill-rule="NONZERO"></path>
  <path d="M0 10.75C0 4.81294 4.81294 0 10.75 0C16.6871 0 21.5 4.81294 21.5 10.75C21.5 16.6871 16.6871 21.5 10.75 21.5C4.81294 21.5 0 16.6871 0 10.75ZM10.75 1.5C5.64137 1.5 1.5 5.64137 1.5 10.75C1.5 15.8586 5.64137 20 10.75 20C15.8586 20 20 15.8586 20 10.75C20 5.64137 15.8586 1.5 10.75 1.5Z" fill-rule="EVENODD"></path>
 </g>
</svg>