<svg viewBox="0 0 24 24" width="24" height="24" fill="currentColor" xmlns="http://www.w3.org/2000/svg">
 <g transform="translate(1, 1)">
  <path d="M11 1.5C5.75329 1.5 1.5 5.75329 1.5 11C1.5 16.2467 5.75329 20.5 11 20.5C16.2467 20.5 20.5 16.2467 20.5 11C20.5 5.75329 16.2467 1.5 11 1.5ZM0 11C0 4.92487 4.92487 0 11 0C17.0751 0 22 4.92487 22 11C22 17.0751 17.0751 22 11 22C4.92487 22 0 17.0751 0 11Z" fill-rule="EVENODD"></path>
  <path d="M5 11C5 10.5858 5.33579 10.25 5.75 10.25L16.25 10.25C16.6642 10.25 17 10.5858 17 11C17 11.4142 16.6642 11.75 16.25 11.75L5.75 11.75C5.33579 11.75 5 11.4142 5 11Z" fill-rule="EVENODD"></path>
  <path d="M10.7953 6.23503C11.0797 6.53617 11.0661 7.01085 10.765 7.29526L6.8423 11L10.765 14.7047C11.0661 14.9891 11.0797 15.4638 10.7953 15.765C10.5109 16.0661 10.0362 16.0797 9.73503 15.7953L5.23503 11.5453C5.08502 11.4036 5 11.2063 5 11C5 10.7937 5.08502 10.5964 5.23503 10.4547L9.73503 6.20474C10.0362 5.92033 10.5109 5.93389 10.7953 6.23503Z" fill-rule="EVENODD"></path>
 </g>
</svg>