<svg viewBox="0 0 16 16" width="16" height="16" fill="currentColor" xmlns="http://www.w3.org/2000/svg">
 <g transform="translate(0.00000000000022737367544323206, 0)">
  <path d="M7.7545 4.69505C8.061 4.97368 8.08359 5.44802 7.80496 5.75451L6.44542 7.25L11.25 7.25C11.6642 7.25 12 7.58579 12 8C12 8.41421 11.6642 8.75 11.25 8.75L6.44541 8.75L7.80496 10.2455C8.08359 10.552 8.061 11.0263 7.7545 11.305C7.44801 11.5836 6.97368 11.561 6.69504 11.2545L4.19596 8.50552C4.07468 8.37267 4.00054 8.19605 4 8.00212L4 8L4 7.99788C4.00054 7.80321 4.07525 7.62598 4.19736 7.49296L6.69504 4.7455C6.97368 4.43901 7.44801 4.41642 7.7545 4.69505Z" fill-rule="NONZERO"></path>
  <path d="M0 8C0 3.58172 3.58172 0 8 0C12.4183 0 16 3.58172 16 8C16 12.4183 12.4183 16 8 16C3.58172 16 0 12.4183 0 8ZM8 1.5C4.41015 1.5 1.5 4.41015 1.5 8C1.5 11.5899 4.41015 14.5 8 14.5C11.5899 14.5 14.5 11.5899 14.5 8C14.5 4.41015 11.5899 1.5 8 1.5Z" fill-rule="EVENODD"></path>
 </g>
</svg>