<svg viewBox="0 0 24 24" width="24" height="24" fill="currentColor" xmlns="http://www.w3.org/2000/svg">
 <g transform="translate(0, 0)">
  <path d="M9.05488 2.25C9.05488 1.00736 10.0622 0 11.3049 0L12.6951 0C13.9378 0 14.9451 1.00736 14.9451 2.25L14.9451 2.64535C15.4967 2.81884 16.0272 3.03972 16.5318 3.30315L16.8118 3.02314C17.6904 2.14446 19.1151 2.14446 19.9937 3.02314L20.9768 4.00619C21.8555 4.88487 21.8555 6.30949 20.9768 7.18817L20.6968 7.46815C20.9603 7.97277 21.1811 8.50328 21.3546 9.05488L21.75 9.05488C22.9926 9.05488 24 10.0622 24 11.3049L24 12.6951C24 13.9378 22.9926 14.9451 21.75 14.9451L21.3546 14.9451C21.1812 15.4967 20.9603 16.0272 20.6969 16.5318L20.9768 16.8117C21.8555 17.6904 21.8555 19.115 20.9768 19.9937L19.9938 20.9768C19.1151 21.8554 17.6905 21.8554 16.8118 20.9768L16.5318 20.6968C16.0272 20.9603 15.4967 21.1811 14.9451 21.3546L14.9451 21.75C14.9451 22.9926 13.9378 24 12.6951 24L11.3049 24C10.0622 24 9.05488 22.9926 9.05488 21.75L9.05488 21.3546C8.50328 21.1811 7.97277 20.9603 7.46815 20.6968L7.18821 20.9768C6.30953 21.8554 4.88491 21.8554 4.00623 20.9768L3.02318 19.9937C2.1445 19.115 2.1445 17.6904 3.02318 16.8117L3.30314 16.5318C3.03972 16.0272 2.81884 15.4967 2.64535 14.9451L2.25 14.9451C1.00736 14.9451 0 13.9378 0 12.6951L0 11.3049C0 10.0622 1.00736 9.05488 2.25 9.05488L2.64535 9.05488C2.81885 8.50328 3.03974 7.97277 3.30319 7.46815L3.02321 7.18817C2.14453 6.30949 2.14453 4.88487 3.02321 4.00619L4.00626 3.02314C4.88494 2.14446 6.30956 2.14446 7.18824 3.02314L7.46825 3.30315C7.97283 3.03972 8.50331 2.81884 9.05488 2.64535L9.05488 2.25ZM11.3049 1.5C10.8907 1.5 10.5549 1.83579 10.5549 2.25L10.5549 3.21302C10.5549 3.55743 10.3203 3.85758 9.9861 3.9408C9.1799 4.14155 8.42013 4.46023 7.72604 4.87772C7.43086 5.05526 7.0527 5.00892 6.80913 4.76535L6.12758 4.0838C5.83469 3.7909 5.35981 3.7909 5.06692 4.0838L4.08387 5.06685C3.79097 5.35974 3.79097 5.83462 4.08387 6.12751L4.7654 6.80904C5.00897 7.05262 5.05532 7.43078 4.87777 7.72596C4.46025 8.42007 4.14155 9.17987 3.9408 9.9861C3.85758 10.3203 3.55743 10.5549 3.21302 10.5549L2.25 10.5549C1.83579 10.5549 1.5 10.8907 1.5 11.3049L1.5 12.6951C1.5 13.1093 1.83579 13.4451 2.25 13.4451L3.21302 13.4451C3.55743 13.4451 3.85758 13.6797 3.9408 14.0139C4.14155 14.8201 4.46023 15.5799 4.87772 16.274C5.05526 16.5691 5.00892 16.9473 4.76535 17.1909L4.08384 17.8724C3.79095 18.1653 3.79095 18.6401 4.08384 18.933L5.06689 19.9161C5.35978 20.209 5.83466 20.209 6.12755 19.9161L6.80905 19.2346C7.05262 18.991 7.43078 18.9447 7.72596 19.1222C8.42007 19.5397 9.17987 19.8584 9.9861 20.0592C10.3203 20.1424 10.5549 20.4426 10.5549 20.787L10.5549 21.75C10.5549 22.1642 10.8907 22.5 11.3049 22.5L12.6951 22.5C13.1093 22.5 13.4451 22.1642 13.4451 21.75L13.4451 20.787C13.4451 20.4426 13.6797 20.1424 14.0139 20.0592C14.8201 19.8584 15.5799 19.5397 16.274 19.1222C16.5692 18.9447 16.9474 18.991 17.191 19.2346L17.8724 19.9161C18.1653 20.209 18.6402 20.209 18.9331 19.9161L19.9162 18.933C20.2091 18.6401 20.2091 18.1653 19.9162 17.8724L19.2346 17.1909C18.9911 16.9473 18.9447 16.5691 19.1223 16.274C19.5398 15.5799 19.8585 14.8201 20.0592 14.0139C20.1424 13.6797 20.4426 13.4451 20.787 13.4451L21.75 13.4451C22.1642 13.4451 22.5 13.1093 22.5 12.6951L22.5 11.3049C22.5 10.8907 22.1642 10.5549 21.75 10.5549L20.787 10.5549C20.4426 10.5549 20.1424 10.3203 20.0592 9.9861C19.8584 9.17987 19.5397 8.42007 19.1222 7.72596C18.9447 7.43078 18.991 7.05262 19.2346 6.80905L19.9161 6.12751C20.209 5.83462 20.209 5.35974 19.9161 5.06685L18.9331 4.0838C18.6402 3.7909 18.1653 3.7909 17.8724 4.0838L17.1909 4.76535C16.9473 5.00892 16.5691 5.05526 16.274 4.87772C15.5799 4.46023 14.8201 4.14155 14.0139 3.9408C13.6797 3.85758 13.4451 3.55743 13.4451 3.21302L13.4451 2.25C13.4451 1.83579 13.1093 1.5 12.6951 1.5L11.3049 1.5Z" fill-rule="EVENODD"></path>
  <path d="M8.5 8.13379C8.5 6.73071 10.0684 5.89813 11.2305 6.68429L16.9458 10.5505C17.9718 11.2445 17.9718 12.7555 16.9458 13.4495L11.2305 17.3157C10.0684 18.1019 8.5 17.2693 8.5 15.8662L8.5 8.13379ZM10.3901 7.92672C10.2241 7.81441 10 7.93335 10 8.13379L10 15.8662C10 16.0667 10.2241 16.1856 10.3901 16.0733L16.1053 12.2071C16.2519 12.1079 16.2519 11.8921 16.1053 11.7929L10.3901 7.92672Z" fill-rule="EVENODD"></path>
 </g>
</svg>