<svg viewBox="0 0 24 24" width="24" height="24" fill="currentColor" xmlns="http://www.w3.org/2000/svg">
 <g transform="translate(4, 1)">
  <path d="M8 1.5C4.41015 1.5 1.5 4.41015 1.5 8C1.5 11.5899 4.41015 14.5 8 14.5C11.5899 14.5 14.5 11.5899 14.5 8C14.5 4.41015 11.5899 1.5 8 1.5ZM0 8C0 3.58172 3.58172 0 8 0C12.4183 0 16 3.58172 16 8C16 12.4183 12.4183 16 8 16C3.58172 16 0 12.4183 0 8Z" fill-rule="EVENODD"></path>
  <path d="M4.13657 13.7625C4.54386 13.838 4.81288 14.2293 4.73746 14.6366L3.73055 20.0739L7.733 18.5491C7.90497 18.4836 8.09503 18.4836 8.267 18.5491L12.2694 20.0739L11.2625 14.6366C11.1871 14.2293 11.4561 13.838 11.8634 13.7625C12.2707 13.6871 12.662 13.9561 12.7375 14.3634L13.9875 21.1134C14.0368 21.38 13.9385 21.6525 13.7303 21.8261C13.522 21.9997 13.2363 22.0474 12.983 21.9509L8 20.0526L3.017 21.9509C2.76366 22.0474 2.47796 21.9997 2.26973 21.8261C2.06151 21.6525 1.96317 21.38 2.01254 21.1134L3.26254 14.3634C3.33796 13.9561 3.72928 13.6871 4.13657 13.7625Z" fill-rule="EVENODD"></path>
 </g>
</svg>