<svg viewBox="0 0 16 16" width="16" height="16" fill="currentColor" xmlns="http://www.w3.org/2000/svg">
 <g transform="translate(0, 3)">
  <path d="M2.25 0C1.00736 0 0 1.00736 0 2.25L0 7.75C0 8.99264 1.00736 10 2.25 10L10.75 10C11.9926 10 13 8.99264 13 7.75L13 2.25C13 1.00736 11.9926 0 10.75 0L2.25 0ZM1.5 2.25C1.5 1.83579 1.83579 1.5 2.25 1.5L10.75 1.5C11.1642 1.5 11.5 1.83579 11.5 2.25L11.5 7.75C11.5 8.16421 11.1642 8.5 10.75 8.5L2.25 8.5C1.83579 8.5 1.5 8.16421 1.5 7.75L1.5 2.25Z" fill-rule="EVENODD"></path>
  <path d="M15.5 3.75C15.5 3.33579 15.1642 3 14.75 3C14.3358 3 14 3.33579 14 3.75L14 6.25C14 6.66421 14.3358 7 14.75 7C15.1642 7 15.5 6.66421 15.5 6.25L15.5 3.75Z" fill-rule="NONZERO"></path>
 </g>
</svg>