<svg viewBox="0 0 24 24" width="24" height="24" fill="black" xmlns="http://www.w3.org/2000/svg">
 <g transform="translate(4.114446640014648, 4.249855995178223)">
  <path d="M3.02834 0.0906748C3.39256 -0.106608 3.84774 0.0287168 4.04502 0.392931L5.84986 3.72494C6.19106 4.35484 6.21191 5.10957 5.90602 5.75734L1.57454 14.9299C1.3396 15.4274 1.70253 16.0001 2.25272 16.0001L13.5184 16.0001C14.0686 16.0001 14.4315 15.4274 14.1966 14.9299L9.86509 5.75735C9.5592 5.10957 9.58005 4.35484 9.92124 3.72494L11.7261 0.392931C11.9234 0.0287168 12.3786 -0.106608 12.7428 0.0906749C13.107 0.287958 13.2423 0.743142 13.045 1.10736L11.2402 4.43937C11.1265 4.64934 11.1195 4.90091 11.2215 5.11684L15.5529 14.2894C16.2578 15.7819 15.169 17.5001 13.5184 17.5001L2.25272 17.5001C0.602134 17.5001 -0.486649 15.7819 0.218163 14.2894L4.54964 5.11684C4.65161 4.90091 4.64466 4.64933 4.53092 4.43937L2.72608 1.10736C2.5288 0.743142 2.66413 0.287958 3.02834 0.0906748Z" fill-rule="EVENODD"></path>
 </g>
</svg>