<svg viewBox="0 0 24 24" width="24" height="24" fill="currentColor" xmlns="http://www.w3.org/2000/svg">
 <g transform="translate(1, 0.9999990463256836)">
  <path d="M20 2.5C20 3.88071 18.8807 5 17.5 5C16.1193 5 15 3.88071 15 2.5C15 1.11929 16.1193 9.53674e-07 17.5 9.53674e-07C18.8807 9.53674e-07 20 1.11929 20 2.5Z" fill-rule="NONZERO"></path>
  <path d="M21.25 15.5C20.0189 15.5 19 14.4544 19 13.15L19 7.98333C19 7.68941 18.9828 7.39846 18.9494 7.11147C18.926 6.90978 18.8217 6.72623 18.6605 6.60275C18.4994 6.47927 18.295 6.42642 18.0942 6.45628C17.9007 6.48504 17.7023 6.5 17.5 6.5C15.2909 6.5 13.5 4.70914 13.5 2.5C13.5 2.07027 13.5675 1.65776 13.6919 1.27168C13.7538 1.07976 13.7357 0.871017 13.6419 0.692549C13.548 0.514082 13.3863 0.380922 13.1931 0.323114C12.4927 0.113505 11.7558 0 11 0C6.70238 0 3 3.66511 3 7.98333L3 13.15C3 14.4544 1.98113 15.5 0.75 15.5C0.335786 15.5 0 15.8358 0 16.25C0 16.6642 0.335786 17 0.75 17L21.25 17C21.6642 17 22 16.6642 22 16.25C22 15.8358 21.6642 15.5 21.25 15.5Z" fill-rule="EVENODD"></path>
  <path d="M8.41413 19.0794C8.78449 18.8939 9.23509 19.0438 9.42059 19.4141C9.76683 20.1054 10.3728 20.5 11 20.5C11.6272 20.5 12.2332 20.1054 12.5794 19.4141C12.7649 19.0438 13.2155 18.8939 13.5859 19.0794C13.9562 19.2649 14.1061 19.7155 13.9206 20.0859C13.3686 21.188 12.2957 22 11 22C9.70427 22 8.63141 21.188 8.07941 20.0859C7.89391 19.7155 8.04377 19.2649 8.41413 19.0794Z" fill-rule="EVENODD"></path>
 </g>
</svg>