<svg viewBox="0 0 24 24" width="24" height="24" fill="currentColor" xmlns="http://www.w3.org/2000/svg">
 <g transform="translate(4, 2)">
  <path d="M0 2.75C0 1.23122 1.23122 0 2.75 0L13.25 0C14.7688 0 16 1.23122 16 2.75L16 19.126C16 19.8385 15.276 20.3225 14.6176 20.05L8.09559 17.3512C8.03438 17.3259 7.96562 17.3259 7.90441 17.3512L1.38235 20.05C0.723963 20.3224 0 19.8385 0 19.126L0 2.75ZM7.75 5C7.33579 5 7 5.33579 7 5.75L7 8L4.75 8C4.33579 8 4 8.33579 4 8.75C4 9.16421 4.33579 9.5 4.75 9.5L7 9.5L7 11.75C7 12.1642 7.33579 12.5 7.75 12.5C8.16421 12.5 8.5 12.1642 8.5 11.75L8.5 9.5L10.75 9.5C11.1642 9.5 11.5 9.16421 11.5 8.75C11.5 8.33579 11.1642 8 10.75 8L8.5 8L8.5 5.75C8.5 5.33579 8.16421 5 7.75 5Z" fill-rule="EVENODD"></path>
 </g>
</svg>