<svg viewBox="0 0 24 24" width="24" height="24" fill="currentColor" xmlns="http://www.w3.org/2000/svg">
 <g transform="translate(1, 3)">
  <path d="M0 1.75C0 0.783501 0.783502 0 1.75 0L6.9 0C8.59994 0 9.85825 0.504644 10.6766 1.43877C11.4787 2.35424 11.75 3.56064 11.75 4.75L11.75 18.25C11.75 18.6642 11.4142 19 11 19C10.5858 19 10.25 18.6642 10.25 18.25C10.25 17.1906 9.26687 16 6.925 16L1.75 16C0.783501 16 0 15.2165 0 14.25L0 1.75ZM10.25 15.4428L10.25 4.75C10.25 3.76069 10.0213 2.96709 9.54837 2.42723C9.09175 1.90602 8.30006 1.5 6.9 1.5L1.75 1.5C1.61193 1.5 1.5 1.61193 1.5 1.75L1.5 14.25C1.5 14.3881 1.61193 14.5 1.75 14.5L6.925 14.5C8.25379 14.5 9.40541 14.8451 10.25 15.4428Z" fill-rule="EVENODD"></path>
  <path d="M11.3234 1.43877C12.1418 0.504644 13.4001 0 15.1 0L20.25 0C21.2165 0 22 0.783501 22 1.75L22 14.25C22 15.2165 21.2165 16 20.25 16L15.075 16C12.7331 16 11.75 17.1906 11.75 18.25C11.75 18.6642 11.4142 19 11 19C10.5858 19 10.25 18.6642 10.25 18.25L10.25 4.75C10.25 3.56064 10.5213 2.35424 11.3234 1.43877ZM11.75 15.4428C12.5946 14.8451 13.7462 14.5 15.075 14.5L20.25 14.5C20.3881 14.5 20.5 14.3881 20.5 14.25L20.5 1.75C20.5 1.61193 20.3881 1.5 20.25 1.5L15.1 1.5C13.6999 1.5 12.9082 1.90602 12.4516 2.42723C11.9787 2.96709 11.75 3.76069 11.75 4.75L11.75 15.4428Z" fill-rule="EVENODD"></path>
 </g>
</svg>