<svg viewBox="0 0 24 24" width="24" height="24" fill="currentColor" xmlns="http://www.w3.org/2000/svg">
 <g transform="translate(1, 2)">
  <path d="M0 6.75C0 5.23122 1.23122 4 2.75 4L19.25 4C20.7688 4 22 5.23122 22 6.75L22 17.25C22 18.7688 20.7688 20 19.25 20L2.75 20C1.23122 20 0 18.7688 0 17.25L0 6.75ZM2.75 5.5C2.05964 5.5 1.5 6.05964 1.5 6.75L1.5 17.25C1.5 17.9404 2.05964 18.5 2.75 18.5L19.25 18.5C19.9404 18.5 20.5 17.9404 20.5 17.25L20.5 6.75C20.5 6.05964 19.9404 5.5 19.25 5.5L2.75 5.5Z" fill-rule="EVENODD"></path>
  <path d="M6 2.75C6 1.23122 7.23122 0 8.75 0L13.25 0C14.7688 0 16 1.23122 16 2.75L16 4.75L14.5 4.75L14.5 2.75C14.5 2.05964 13.9404 1.5 13.25 1.5L8.75 1.5C8.05964 1.5 7.5 2.05964 7.5 2.75L7.5 4.75L6 4.75L6 2.75Z" fill-rule="EVENODD"></path>
  <path d="M5.75 4C6.16421 4 6.5 4.33579 6.5 4.75L6.5 19.25C6.5 19.6642 6.16421 20 5.75 20C5.33579 20 5 19.6642 5 19.25L5 4.75C5 4.33579 5.33579 4 5.75 4Z" fill-rule="EVENODD"></path>
  <path d="M16.25 4C16.6642 4 17 4.33579 17 4.75L17 19.25C17 19.6642 16.6642 20 16.25 20C15.8358 20 15.5 19.6642 15.5 19.25L15.5 4.75C15.5 4.33579 15.8358 4 16.25 4Z" fill-rule="EVENODD"></path>
 </g>
</svg>