<svg viewBox="0 0 16 16" width="16" height="16" fill="currentColor" xmlns="http://www.w3.org/2000/svg">
 <g transform="translate(0, 1)">
  <path d="M0 5.25C0 4.00736 1.00736 3 2.25 3L13.75 3C14.9926 3 16 4.00736 16 5.25L16 11.75C16 12.9926 14.9926 14 13.75 14L2.25 14C1.00736 14 0 12.9926 0 11.75L0 5.25ZM2.25 4.5C1.83579 4.5 1.5 4.83579 1.5 5.25L1.5 11.75C1.5 12.1642 1.83579 12.5 2.25 12.5L13.75 12.5C14.1642 12.5 14.5 12.1642 14.5 11.75L14.5 5.25C14.5 4.83579 14.1642 4.5 13.75 4.5L2.25 4.5Z" fill-rule="EVENODD"></path>
  <path d="M4 1.75C4 0.783502 4.7835 0 5.75 0L10.25 0C11.2165 0 12 0.783502 12 1.75L12 3.75C12 4.16421 11.6642 4.5 11.25 4.5C10.8358 4.5 10.5 4.16421 10.5 3.75L10.5 1.75C10.5 1.61193 10.3881 1.5 10.25 1.5L5.75 1.5C5.61193 1.5 5.5 1.61193 5.5 1.75L5.5 3.75C5.5 4.16421 5.16421 4.5 4.75 4.5C4.33579 4.5 4 4.16421 4 3.75L4 1.75Z" fill-rule="EVENODD"></path>
  <path d="M4.25 3C4.66421 3 5 3.33579 5 3.75L5 13.25C5 13.6642 4.66421 14 4.25 14C3.83579 14 3.5 13.6642 3.5 13.25L3.5 3.75C3.5 3.33579 3.83579 3 4.25 3Z" fill-rule="EVENODD"></path>
  <path d="M11.75 3C12.1642 3 12.5 3.33579 12.5 3.75L12.5 13.25C12.5 13.6642 12.1642 14 11.75 14C11.3358 14 11 13.6642 11 13.25L11 3.75C11 3.33579 11.3358 3 11.75 3Z" fill-rule="EVENODD"></path>
 </g>
</svg>