<svg viewBox="0 0 24 24" width="24" height="24" fill="currentColor" xmlns="http://www.w3.org/2000/svg">
 <g transform="translate(2, 0.25)">
  <path d="M15 0.75C15 0.335786 14.6642 0 14.25 0C13.8358 0 13.5 0.335786 13.5 0.75L13.5 1.75L6.5 1.75L6.5 0.75C6.5 0.335786 6.16421 0 5.75 0C5.33579 0 5 0.335786 5 0.75L5 1.75L2.75 1.75C1.23122 1.75 0 2.98122 0 4.5L0 19C0 20.5188 1.23122 21.75 2.75 21.75L17.25 21.75C18.7688 21.75 20 20.5188 20 19L20 4.5C20 2.98122 18.7688 1.75 17.25 1.75L15 1.75L15 0.75ZM18.5 7.75L18.5 4.5C18.5 3.80964 17.9404 3.25 17.25 3.25L15 3.25L15 4.75C15 5.16421 14.6642 5.5 14.25 5.5C13.8358 5.5 13.5 5.16421 13.5 4.75L13.5 3.25L6.5 3.25L6.5 4.75C6.5 5.16421 6.16421 5.5 5.75 5.5C5.33579 5.5 5 5.16421 5 4.75L5 3.25L2.75 3.25C2.05964 3.25 1.5 3.80964 1.5 4.5L1.5 7.75L18.5 7.75ZM1.5 9.25L18.5 9.25L18.5 19C18.5 19.6904 17.9404 20.25 17.25 20.25L2.75 20.25C2.05964 20.25 1.5 19.6904 1.5 19L1.5 9.25Z" fill-rule="EVENODD"></path>
 </g>
</svg>