<svg viewBox="0 0 24 24" width="24" height="24" fill="currentColor" xmlns="http://www.w3.org/2000/svg">
 <g transform="translate(5.999998569488525, 3)">
  <path d="M6 0C6.20496 0 6.401 0.0838826 6.54252 0.232143L11.7925 5.73214C12.0785 6.03177 12.0675 6.50651 11.7679 6.79252C11.4682 7.07852 10.9935 7.06748 10.7075 6.76786L6 1.83621L1.29252 6.76786C1.00651 7.06748 0.531768 7.07852 0.232144 6.79252C-0.0674792 6.50651 -0.0785198 6.03177 0.207485 5.73214L5.45748 0.232143C5.59901 0.0838826 5.79504 0 6 0Z" fill-rule="EVENODD"></path>
  <path d="M6 18C5.79504 18 5.59901 17.9161 5.45749 17.7679L0.207487 12.2679C-0.0785184 11.9682 -0.0674777 11.4935 0.232146 11.2075C0.53177 10.9215 1.00652 10.9325 1.29252 11.2321L6 16.1638L10.7075 11.2321C10.9935 10.9325 11.4682 10.9215 11.7679 11.2075C12.0675 11.4935 12.0785 11.9682 11.7925 12.2679L6.54252 17.7679C6.401 17.9161 6.20496 18 6 18Z" fill-rule="EVENODD"></path>
 </g>
</svg>