<svg viewBox="0 0 16 16" width="16" height="16" fill="currentColor" xmlns="http://www.w3.org/2000/svg">
 <g transform="translate(0.9998523592948914, 2)">
  <path d="M0.00474376 6.1671C0.0505303 5.75542 0.421376 5.45881 0.833052 5.5046C2.27951 5.66547 3.62817 6.31376 4.65728 7.34287C5.68639 8.37197 6.33468 9.72064 6.49555 11.1671C6.54134 11.5788 6.24473 11.9496 5.83305 11.9954C5.42138 12.0412 5.05053 11.7446 5.00474 11.3329C4.88151 10.2249 4.38492 9.19183 3.59662 8.40353C2.80832 7.61523 1.77524 7.11864 0.667244 6.9954C0.255569 6.94962 -0.0410428 6.57877 0.00474376 6.1671ZM0.0152748 8.6473C0.0980473 8.24144 0.494161 7.97952 0.90002 8.0623C1.64849 8.21494 2.33555 8.58432 2.87569 9.12446C3.41583 9.6646 3.78521 10.3517 3.93785 11.1001C4.02062 11.506 3.75871 11.9021 3.35285 11.9849C2.94699 12.0676 2.55088 11.8057 2.46811 11.3999C2.37425 10.9397 2.14714 10.5172 1.81503 10.1851C1.48292 9.85301 1.06048 9.6259 0.600275 9.53204C0.194416 9.44927 -0.0674977 9.05316 0.0152748 8.6473Z" fill-rule="EVENODD"></path>
  <path d="M0.00014764 2.25C0.00014764 1.00736 1.00751 0 2.25015 0L11.7501 0C12.9928 0 14.0001 1.00736 14.0001 2.25L14.0001 9.75C14.0001 10.9926 12.9928 12 11.7501 12L8.72429 12C8.31007 12 7.97429 11.6642 7.97429 11.25C7.97429 10.8358 8.31007 10.5 8.72429 10.5L11.7501 10.5C12.1644 10.5 12.5001 10.1642 12.5001 9.75L12.5001 2.25C12.5001 1.83579 12.1644 1.5 11.7501 1.5L2.25015 1.5C1.83593 1.5 1.50015 1.83579 1.50015 2.25L1.50015 3.48C1.50015 3.89421 1.16436 4.23 0.750148 4.23C0.335934 4.23 0.00014764 3.89421 0.00014764 3.48L0.00014764 2.25Z" fill-rule="EVENODD"></path>
 </g>
</svg>