<svg viewBox="0 0 24 24" width="24" height="24" fill="currentColor" xmlns="http://www.w3.org/2000/svg">
 <g transform="translate(2, 2)">
  <path d="M5.07131 10.4859C5.12666 10.4208 5.18691 10.343 5.25311 10.2575C5.53689 9.89113 5.93018 9.38332 6.5169 9.12914C6.83212 8.99259 7.19434 8.94232 7.63428 9.08797C8.09375 9.24008 8.69787 9.62653 9.42869 10.4859C10.2693 11.4743 11.0893 12.0695 11.8943 12.336C12.7189 12.609 13.4616 12.5149 14.0794 12.2472C15.0908 11.8091 15.794 10.8587 16.0116 10.5646C16.0398 10.5265 16.0598 10.4994 16.0713 10.4859C16.3397 10.1703 16.3014 9.697 15.9859 9.42865C15.6704 9.1603 15.197 9.19855 14.9287 9.51408C14.8734 9.57913 14.8131 9.65689 14.747 9.74235C14.4632 10.1088 14.0699 10.6166 13.4831 10.8708C13.1679 11.0074 12.8057 11.0576 12.3658 10.912C11.9063 10.7599 11.3022 10.3734 10.5713 9.51408C9.73073 8.52565 8.91074 7.93049 8.1057 7.66397C7.28114 7.391 6.53845 7.4851 5.92063 7.75275C4.90924 8.1909 4.20607 9.14122 3.98847 9.43532C3.96028 9.47341 3.94021 9.50053 3.92871 9.51405C3.66035 9.82957 3.69858 10.3029 4.0141 10.5713C4.32962 10.8396 4.80295 10.8014 5.07131 10.4859Z" fill-rule="NONZERO"></path>
  <path d="M2.75 0C1.23122 0 0 1.23122 0 2.75L0 17.25C0 18.7688 1.23122 20 2.75 20L17.25 20C18.7688 20 20 18.7688 20 17.25L20 2.75C20 1.23122 18.7688 0 17.25 0L2.75 0ZM1.5 2.75C1.5 2.05964 2.05964 1.5 2.75 1.5L17.25 1.5C17.9404 1.5 18.5 2.05964 18.5 2.75L18.5 17.25C18.5 17.9404 17.9404 18.5 17.25 18.5L2.75 18.5C2.05964 18.5 1.5 17.9404 1.5 17.25L1.5 2.75Z" fill-rule="EVENODD"></path>
 </g>
</svg>