<svg viewBox="0 0 16 16" width="16" height="16" fill="currentColor" xmlns="http://www.w3.org/2000/svg">
 <g transform="translate(3.25, 10.000067710876465)">
  <path d="M6.47149 1.54749C6.20043 1.63383 5.81275 1.87105 5.3361 2.46804C4.74132 3.21298 4.12454 3.6778 3.48376 3.8819C2.82752 4.09093 2.22987 3.99978 1.74139 3.78762C1.26859 3.58226 0.899454 3.26562 0.64638 3.01022C0.517242 2.87989 0.411428 2.75835 0.333301 2.66605C0.315822 2.6454 0.285684 2.60942 0.263944 2.58348C0.252314 2.56959 0.243088 2.55858 0.239488 2.55432C0.222879 2.53464 0.215646 2.52654 0.214641 2.52534C-0.0724898 2.23283 -0.0717269 1.76295 0.218031 1.4714C0.510016 1.1776 0.984888 1.17613 1.27869 1.46811C1.32848 1.5176 1.4 1.60333 1.44815 1.66104C1.45974 1.67493 1.46997 1.6872 1.47822 1.69695C1.54421 1.7749 1.62171 1.86342 1.71188 1.95442C1.89742 2.14167 2.11088 2.31272 2.33897 2.41179C2.55138 2.50405 2.77293 2.53406 3.02852 2.45265C3.29957 2.36632 3.68725 2.12911 4.1639 1.53213C4.75868 0.787183 5.37546 0.32236 6.01623 0.11825C6.67246 -0.0907861 7.27011 0.000337154 7.7586 0.212496C8.2314 0.417845 8.60054 0.734488 8.85363 0.989902C8.98277 1.12023 9.08859 1.24179 9.16672 1.33411C9.18443 1.35504 9.21414 1.3905 9.23576 1.41631C9.24745 1.43027 9.25677 1.4414 9.26056 1.44588C9.27722 1.46562 9.28445 1.47373 9.28545 1.47492C9.57255 1.76749 9.57168 2.2374 9.28184 2.5289C8.98978 2.82263 8.51491 2.82398 8.22118 2.53192C8.17147 2.48249 8.10003 2.39685 8.05189 2.33914C8.04028 2.32522 8.03002 2.31292 8.02175 2.30315C7.95578 2.2252 7.87828 2.13668 7.78811 2.04569C7.60258 1.85844 7.38913 1.6874 7.16104 1.58834C6.94864 1.49608 6.72709 1.46608 6.47149 1.54749Z" fill-rule="EVENODD"></path>
 </g>
</svg>