<svg viewBox="0 0 24 24" width="24" height="24" fill="black" xmlns="http://www.w3.org/2000/svg">
 <g transform="translate(2.25, 2.25)">
  <path d="M15.3691 6.86831C15.7106 6.52638 15.7102 5.97236 15.3683 5.63088C15.0264 5.28939 14.4724 5.28975 14.1309 5.63169L7.57011 12.201L5.36872 9.99966C5.02701 9.65795 4.47299 9.65795 4.13128 9.99966C3.78957 10.3414 3.78957 10.8954 4.13128 11.2371L6.95179 14.0576C7.11596 14.2218 7.33864 14.314 7.5708 14.3139C7.80296 14.3138 8.02558 14.2215 8.18964 14.0572L15.3691 6.86831Z" fill-rule="NONZERO"></path>
  <path d="M2.75 0C1.23122 0 0 1.23122 0 2.75L0 16.75C0 18.2688 1.23122 19.5 2.75 19.5L16.75 19.5C18.2688 19.5 19.5 18.2688 19.5 16.75L19.5 2.75C19.5 1.23122 18.2688 0 16.75 0L2.75 0ZM1.5 2.75C1.5 2.05964 2.05964 1.5 2.75 1.5L16.75 1.5C17.4404 1.5 18 2.05964 18 2.75L18 16.75C18 17.4404 17.4404 18 16.75 18L2.75 18C2.05964 18 1.5 17.4404 1.5 16.75L1.5 2.75Z" fill-rule="EVENODD"></path>
 </g>
</svg>