<svg viewBox="0 0 16 16" width="16" height="16" fill="black" xmlns="http://www.w3.org/2000/svg">
 <g transform="translate(0.071326345205307, 0.09353482723236084)">
  <path d="M10.959 6.93677C11.2519 6.64386 11.2519 6.16899 10.959 5.87611C10.6661 5.58323 10.1912 5.58325 9.89832 5.87616L6.72856 9.04623L5.95855 8.27754C5.6654 7.9849 5.19053 7.98531 4.89789 8.27845C4.60525 8.5716 4.60565 9.04647 4.8988 9.33911L6.19916 10.6372C6.49214 10.9297 6.96669 10.9295 7.2594 10.6368L10.959 6.93677Z" fill-rule="NONZERO"></path>
  <path d="M6.31584 0.659011L0.659009 6.31584C-0.219677 7.19453 -0.219668 8.61917 0.659027 9.49784L6.31586 15.1545C7.19454 16.0332 8.61915 16.0332 9.49782 15.1545L15.1545 9.49783C16.0332 8.61915 16.0332 7.19454 15.1545 6.31586L9.49784 0.659027C8.61916 -0.219669 7.19452 -0.219677 6.31584 0.659011ZM1.71967 7.3765L7.3765 1.71967C7.66939 1.42677 8.14427 1.42678 8.43716 1.71968L14.0939 7.37651C14.3868 7.6694 14.3868 8.14427 14.0939 8.43717L8.43716 14.0939C8.14427 14.3868 7.6694 14.3868 7.37651 14.0939L1.71968 8.43717C1.42678 8.14428 1.42677 7.6694 1.71967 7.3765Z" fill-rule="EVENODD"></path>
 </g>
</svg>