<svg viewBox="0 0 16 16" width="16" height="16" fill="currentColor" xmlns="http://www.w3.org/2000/svg">
 <g transform="translate(2.9999969005584717, 3.9999969005584717)">
  <path d="M5.20041 0.239665C4.91856 0.543198 4.93613 1.01775 5.23966 1.2996L8.14779 4L5.23967 6.70041C4.93613 6.98226 4.91856 7.45681 5.20041 7.76034C5.48226 8.06387 5.95681 8.08145 6.26034 7.7996L9.76034 4.5496C9.91317 4.40769 10 4.20855 10 4C10 3.79145 9.91317 3.59232 9.76034 3.45041L6.26034 0.200408C5.95681 -0.081444 5.48226 -0.0638681 5.20041 0.239665Z" fill-rule="EVENODD"></path>
  <path d="M0.200408 0.239665C-0.081444 0.543198 -0.0638681 1.01775 0.239665 1.2996L3.14779 4L0.239665 6.70041C-0.0638679 6.98226 -0.0814437 7.45681 0.200408 7.76034C0.48226 8.06387 0.956809 8.08145 1.26034 7.7996L4.76034 4.5496C4.91317 4.40769 5 4.20855 5 4C5 3.79145 4.91317 3.59232 4.76034 3.45041L1.26034 0.200408C0.956809 -0.081444 0.48226 -0.0638681 0.200408 0.239665Z" fill-rule="EVENODD"></path>
 </g>
</svg>