<svg viewBox="0 0 16 16" width="16" height="16" fill="currentColor" xmlns="http://www.w3.org/2000/svg">
 <g transform="translate(3.9999969005584717, 2.9999969005584717)">
  <path d="M0.239665 5.20041C0.543198 4.91856 1.01775 4.93613 1.2996 5.23966L4 8.14779L6.70041 5.23966C6.98226 4.93613 7.45681 4.91856 7.76034 5.20041C8.06387 5.48226 8.08145 5.95681 7.7996 6.26034L4.5496 9.76034C4.40769 9.91317 4.20855 10 4 10C3.79145 10 3.59232 9.91317 3.45041 9.76034L0.200408 6.26034C-0.081444 5.95681 -0.0638681 5.48226 0.239665 5.20041Z" fill-rule="EVENODD"></path>
  <path d="M0.239665 0.200408C0.543198 -0.081444 1.01775 -0.0638681 1.2996 0.239665L4 3.14779L6.70041 0.239665C6.98226 -0.0638681 7.45681 -0.081444 7.76034 0.200408C8.06387 0.48226 8.08145 0.956809 7.7996 1.26034L4.5496 4.76034C4.40769 4.91317 4.20855 5 4 5C3.79145 5 3.59232 4.91317 3.45041 4.76034L0.200408 1.26034C-0.081444 0.956809 -0.0638681 0.48226 0.239665 0.200408Z" fill-rule="EVENODD"></path>
 </g>
</svg>