<svg viewBox="0 0 24 24" width="24" height="24" fill="currentColor" xmlns="http://www.w3.org/2000/svg">
 <g transform="translate(4.999999046325684, 6)">
  <path d="M13.7925 11.7679C14.0785 11.4682 14.0675 10.9935 13.7679 10.7075L8.83621 6L13.7679 1.29252C14.0675 1.00651 14.0785 0.531768 13.7925 0.232144C13.5065 -0.0674791 13.0318 -0.0785198 12.7321 0.207484L7.23214 5.45748C7.08388 5.59901 7 5.79504 7 6C7 6.20496 7.08388 6.401 7.23214 6.54252L12.7321 11.7925C13.0318 12.0785 13.5065 12.0675 13.7925 11.7679Z" fill-rule="EVENODD"></path>
  <path d="M6.79252 11.7679C7.07852 11.4682 7.06748 10.9935 6.76786 10.7075L1.83621 6L6.76786 1.29252C7.06748 1.00651 7.07852 0.531768 6.79252 0.232144C6.50651 -0.0674791 6.03177 -0.0785198 5.73214 0.207484L0.232143 5.45748C0.0838823 5.59901 -8.95918e-09 5.79504 0 6C8.95921e-09 6.20496 0.0838824 6.401 0.232143 6.54252L5.73214 11.7925C6.03177 12.0785 6.50651 12.0675 6.79252 11.7679Z" fill-rule="EVENODD"></path>
 </g>
</svg>