<svg viewBox="0 0 24 24" width="24" height="24" fill="currentColor" xmlns="http://www.w3.org/2000/svg">
 <g transform="translate(3, 1)">
  <path d="M2.75 3.5C2.05964 3.5 1.5 4.05964 1.5 4.75L1.5 19.25C1.5 19.9404 2.05964 20.5 2.75 20.5L15.25 20.5C15.9404 20.5 16.5 19.9404 16.5 19.25L16.5 4.75C16.5 4.05964 15.9404 3.5 15.25 3.5L13.5 3.5C13.0858 3.5 12.75 3.16421 12.75 2.75C12.75 2.33579 13.0858 2 13.5 2L15.25 2C16.7688 2 18 3.23122 18 4.75L18 19.25C18 20.7688 16.7688 22 15.25 22L2.75 22C1.23122 22 0 20.7688 0 19.25L0 4.75C0 3.23122 1.23122 2 2.75 2L4.5 2C4.91421 2 5.25 2.33579 5.25 2.75C5.25 3.16421 4.91421 3.5 4.5 3.5L2.75 3.5Z" fill-rule="EVENODD"></path>
  <path d="M4 1.75C4 0.783502 4.7835 0 5.75 0L12.25 0C13.2165 0 14 0.783502 14 1.75L14 3.25C14 4.2165 13.2165 5 12.25 5L5.75 5C4.7835 5 4 4.2165 4 3.25L4 1.75ZM5.75 1.5C5.61193 1.5 5.5 1.61193 5.5 1.75L5.5 3.25C5.5 3.38807 5.61193 3.5 5.75 3.5L12.25 3.5C12.3881 3.5 12.5 3.38807 12.5 3.25L12.5 1.75C12.5 1.61193 12.3881 1.5 12.25 1.5L5.75 1.5Z" fill-rule="EVENODD"></path>
 </g>
</svg>