<svg viewBox="0 0 24 24" width="24" height="24" fill="currentColor" xmlns="http://www.w3.org/2000/svg">
 <g transform="translate(3, 1)">
  <path d="M0 4.75C0 3.23122 1.23122 2 2.75 2L5.25 2L5.25 3.5C5.25 3.63807 5.36193 3.75 5.5 3.75L12.5 3.75C12.6381 3.75 12.75 3.63807 12.75 3.5L12.75 2L15.25 2C16.7688 2 18 3.23122 18 4.75L18 19.25C18 20.7688 16.7688 22 15.25 22L2.75 22C1.23122 22 0 20.7688 0 19.25L0 4.75ZM13.7803 9.21967C13.4874 8.92678 13.0126 8.92678 12.7197 9.21967L7.25 14.6893L5.28033 12.7197C4.98744 12.4268 4.51256 12.4268 4.21967 12.7197C3.92678 13.0126 3.92678 13.4874 4.21967 13.7803L6.71967 16.2803C7.01256 16.5732 7.48744 16.5732 7.78033 16.2803L13.7803 10.2803C14.0732 9.98744 14.0732 9.51256 13.7803 9.21967Z" fill-rule="EVENODD"></path>
  <path d="M4 1.75C4 0.783502 4.7835 0 5.75 0L12.25 0C13.2165 0 14 0.783502 14 1.75L14 3.25C14 4.2165 13.2165 5 12.25 5L5.75 5C4.7835 5 4 4.2165 4 3.25L4 1.75ZM5.75 1.5C5.61193 1.5 5.5 1.61193 5.5 1.75L5.5 3.25C5.5 3.38807 5.61193 3.5 5.75 3.5L12.25 3.5C12.3881 3.5 12.5 3.38807 12.5 3.25L12.5 1.75C12.5 1.61193 12.3881 1.5 12.25 1.5L5.75 1.5Z" fill-rule="EVENODD"></path>
 </g>
</svg>