<svg viewBox="0 0 24 24" width="24" height="24" fill="currentColor" xmlns="http://www.w3.org/2000/svg">
 <g transform="translate(3, 1)">
  <path d="M5.75 0C4.7835 0 4 0.783502 4 1.75L4 2L2.75 2C1.23122 2 0 3.23122 0 4.75L0 19.25C0 20.7688 1.23122 22 2.75 22L15.25 22C16.7688 22 18 20.7688 18 19.25L18 16.75C18 16.3358 17.6642 16 17.25 16C16.8358 16 16.5 16.3358 16.5 16.75L16.5 19.25C16.5 19.9404 15.9404 20.5 15.25 20.5L2.75 20.5C2.05964 20.5 1.5 19.9404 1.5 19.25L1.5 4.75C1.5 4.05964 2.05964 3.5 2.75 3.5L4.01772 3.5C4.13903 4.34807 4.86838 5 5.75 5L12.25 5C13.1316 5 13.861 4.34807 13.9823 3.5L15.25 3.5C15.9404 3.5 16.5 4.05964 16.5 4.75L16.5 9.25C16.5 9.66421 16.8358 10 17.25 10C17.6642 10 18 9.66421 18 9.25L18 4.75C18 3.23122 16.7688 2 15.25 2L14 2L14 1.75C14 0.783502 13.2165 0 12.25 0L5.75 0ZM5.5 1.75C5.5 1.61193 5.61193 1.5 5.75 1.5L12.25 1.5C12.3881 1.5 12.5 1.61193 12.5 1.75L12.5 3.25C12.5 3.38807 12.3881 3.5 12.25 3.5L5.75 3.5C5.61193 3.5 5.5 3.38807 5.5 3.25L5.5 1.75Z" fill-rule="EVENODD"></path>
  <path d="M4 8.75C4 8.33579 4.33579 8 4.75 8L9.25 8C9.66421 8 10 8.33579 10 8.75C10 9.16421 9.66421 9.5 9.25 9.5L4.75 9.5C4.33579 9.5 4 9.16421 4 8.75Z" fill-rule="NONZERO"></path>
  <path d="M4 16.75C4 16.3358 4.33579 16 4.75 16L9.25 16C9.66421 16 10 16.3358 10 16.75C10 17.1642 9.66421 17.5 9.25 17.5L4.75 17.5C4.33579 17.5 4 17.1642 4 16.75Z" fill-rule="NONZERO"></path>
  <path d="M4.75 12C4.33579 12 4 12.3358 4 12.75C4 13.1642 4.33579 13.5 4.75 13.5L7.25 13.5C7.66421 13.5 8 13.1642 8 12.75C8 12.3358 7.66421 12 7.25 12L4.75 12Z" fill-rule="NONZERO"></path>
  <path d="M19.75 13C19.75 13.4142 19.4142 13.75 19 13.75L12.6599 13.75L14.7603 15.7004C15.0639 15.9823 15.0814 16.4568 14.7996 16.7603C14.5177 17.0639 14.0432 17.0815 13.7397 16.7996L10.2397 13.5496C10.2224 13.5335 10.2059 13.5167 10.1903 13.4993C10.0755 13.3706 10.0043 13.2021 10.0002 13.017L10 13L10.0002 12.983C10.0045 12.7913 10.0807 12.6173 10.2029 12.487C10.2109 12.4785 10.2191 12.4701 10.2275 12.4619L10.2414 12.4488L13.7397 9.20041C14.0432 8.91856 14.5177 8.93613 14.7996 9.23967C15.0814 9.5432 15.0639 10.0177 14.7603 10.2996L12.6599 12.25L19 12.25C19.4142 12.25 19.75 12.5858 19.75 13Z" fill-rule="NONZERO"></path>
 </g>
</svg>