<svg viewBox="0 0 16 16" width="16" height="16" fill="currentColor" xmlns="http://www.w3.org/2000/svg">
 <g transform="translate(0.25, 1)">
  <path d="M0.96967 0.21967C1.26256 -0.0732233 1.73744 -0.0732233 2.03033 0.21967L14.5303 12.7197C14.8232 13.0126 14.8232 13.4874 14.5303 13.7803C14.2374 14.0732 13.7626 14.0732 13.4697 13.7803L12.3601 12.6708C12.1017 12.7231 11.8367 12.75 11.569 12.75L5.84656 12.75L5.84388 12.75C4.75425 12.7508 3.68534 12.4514 2.75851 11.8846C1.83157 11.3177 1.0832 10.5056 0.600133 9.53907C0.117628 8.57367 -0.0803272 7.49385 0.0295469 6.42237L0.0299713 6.41814C0.140783 5.34533 0.555583 4.3259 1.22562 3.47545C1.51047 3.11389 1.83655 2.78909 2.19591 2.50657L0.96967 1.28033C0.676777 0.987437 0.676777 0.512563 0.96967 0.21967ZM3.2668 3.57747C2.94256 3.81125 2.65181 4.08903 2.40386 4.40374C1.90916 5.03165 1.60438 5.78171 1.5224 6.56869L1.52204 6.57232C1.44062 7.36056 1.58577 8.15595 1.94188 8.86846C2.29806 9.5811 2.85154 10.1832 3.54111 10.6049C4.22997 11.0262 5.02635 11.2501 5.83985 11.25L5.84332 11.25L10.9394 11.25L3.2668 3.57747Z" fill-rule="EVENODD"></path>
  <path d="M6.1305 1.95403C6.2126 1.54804 6.60828 1.28547 7.01428 1.36756C8.08187 1.58345 9.06799 2.08948 9.86003 2.82986C10.508 3.4356 11.0049 4.17844 11.3144 5.00001L11.569 5.00001C12.6073 5.00001 13.6057 5.4051 14.3439 6.13029C15.0825 6.85593 15.5 7.84296 15.5 8.87501C15.5 9.28381 15.4345 9.68588 15.3092 10.0675C15.1801 10.4611 14.7564 10.6754 14.3628 10.5463C13.9692 10.4172 13.7549 9.99343 13.884 9.59986C13.9602 9.36755 14 9.12325 14 8.87501C14 8.24946 13.7472 7.64678 13.2927 7.20032C12.8378 6.75341 12.218 6.50001 11.569 6.50001L10.7674 6.50001C10.4266 6.50001 10.1287 6.27025 10.0421 5.94065C9.84032 5.17303 9.42301 4.47466 8.83571 3.92566C8.24829 3.37655 7.51443 2.99907 6.71697 2.83781C6.31098 2.75571 6.04841 2.36003 6.1305 1.95403Z" fill-rule="NONZERO"></path>
 </g>
</svg>