<svg viewBox="0 0 24 24" width="24" height="24" fill="currentColor" xmlns="http://www.w3.org/2000/svg">
 <g transform="translate(0.00000003822719918389339, 1)">
  <path d="M8.88807 2.68345C8.92482 2.27087 9.28908 1.9662 9.70166 2.00296C11.5472 2.16738 13.2957 2.90622 14.7053 4.1162C15.9657 5.19814 16.8994 6.60883 17.4082 8.18747C18.5158 8.19257 19.7388 8.25654 20.9092 8.88919C21.7632 9.35082 22.4899 10.0183 23.0246 10.8314C23.5593 11.6445 23.8857 12.5781 23.975 13.5486C24.0643 14.5192 23.9138 15.4971 23.5367 16.395C23.3763 16.7769 22.9367 16.9565 22.5548 16.7961C22.1729 16.6358 21.9933 16.1962 22.1537 15.8143C22.4354 15.1433 22.5481 14.412 22.4813 13.686C22.4145 12.96 22.1704 12.2624 21.7714 11.6556C21.3723 11.0489 20.8309 10.552 20.1959 10.2088C19.2311 9.68725 18.2083 9.68735 16.9041 9.68747L16.8434 9.68748C16.4997 9.68748 16.2 9.45387 16.1161 9.12059C15.7364 7.61237 14.9015 6.26151 13.7283 5.25439C12.5551 4.24734 11.1014 3.6336 9.56855 3.49704C9.15597 3.46028 8.85131 3.09602 8.88807 2.68345ZM5.48794 3.47725C5.69636 3.8352 5.57515 4.29434 5.21719 4.50277C4.38476 4.98747 3.64952 5.63295 3.05578 6.40687C2.20522 7.51554 1.67925 8.84321 1.5383 10.2393L1.53802 10.2422C1.39749 11.6393 1.64828 13.048 2.26148 14.3079C2.87465 15.5678 3.82533 16.628 5.00468 17.3686C6.18122 18.1076 7.53861 18.4992 8.92327 18.5C8.92668 18.5 8.9301 18.4999 8.93352 18.4999L18.1331 18.4999C18.6265 18.4999 19.1114 18.4154 19.5688 18.2543C19.9595 18.1166 20.3878 18.3218 20.5254 18.7124C20.6631 19.1031 20.4579 19.5314 20.0673 19.669C19.4514 19.886 18.7981 19.9999 18.1331 19.9999L8.94378 19.9999C8.94055 20 8.93732 20 8.93408 20C7.26268 20.0013 5.62489 19.5294 4.2069 18.6389C2.78898 17.7484 1.64798 16.4751 0.912731 14.9643C0.177963 13.4546 -0.122417 11.7678 0.0452363 10.0952L0.0455457 10.092C0.213885 8.41837 0.844215 6.82526 1.86567 5.49383C2.57831 4.56494 3.46145 3.78933 4.46241 3.2065C4.82037 2.99808 5.27951 3.11929 5.48794 3.47725Z" fill-rule="EVENODD"></path>
  <path d="M1.21967 0.21967C1.51256 -0.0732233 1.98744 -0.0732233 2.28033 0.21967L22.7803 20.7197C23.0732 21.0126 23.0732 21.4874 22.7803 21.7803C22.4874 22.0732 22.0126 22.0732 21.7197 21.7803L1.21967 1.28033C0.926777 0.987437 0.926777 0.512563 1.21967 0.21967Z" fill-rule="EVENODD"></path>
 </g>
</svg>