<svg viewBox="0 0 16 16" width="16" height="16" fill="currentColor" xmlns="http://www.w3.org/2000/svg">
 <g transform="translate(0, 0.5)">
  <path d="M13.75 0C12.5074 0 11.5 1.00736 11.5 2.25C11.5 2.72813 11.6491 3.17143 11.9034 3.53591L10.9697 4.46967C10.9267 4.51263 10.8901 4.5595 10.8597 4.60914C10.6698 4.53857 10.4644 4.5 10.25 4.5L7.75 4.5C6.7835 4.5 6 5.2835 6 6.25L6 6.75L4.37197 6.75C4.06309 5.87611 3.22966 5.25 2.25 5.25C1.00736 5.25 0 6.25736 0 7.5C0 8.74264 1.00736 9.75 2.25 9.75C3.22966 9.75 4.06309 9.12389 4.37197 8.25L6 8.25L6 8.75C6 9.7165 6.7835 10.5 7.75 10.5L10.25 10.5C10.4644 10.5 10.6698 10.4614 10.8597 10.3909C10.8901 10.4405 10.9267 10.4874 10.9697 10.5303L11.9034 11.4641C11.6491 11.8286 11.5 12.2719 11.5 12.75C11.5 13.9926 12.5074 15 13.75 15C14.9926 15 16 13.9926 16 12.75C16 11.5074 14.9926 10.5 13.75 10.5C13.5398 10.5 13.3364 10.5288 13.1434 10.5827L12.0303 9.46967C11.9874 9.42671 11.9405 9.39006 11.8909 9.3597C11.9614 9.16985 12 8.96443 12 8.75L12 6.25C12 6.03557 11.9614 5.83016 11.8909 5.6403C11.9405 5.60994 11.9874 5.57329 12.0303 5.53033L13.1434 4.41728C13.3364 4.47118 13.5398 4.5 13.75 4.5C14.9926 4.5 16 3.49264 16 2.25C16 1.00736 14.9926 0 13.75 0ZM13 2.25C13 1.83579 13.3358 1.5 13.75 1.5C14.1642 1.5 14.5 1.83579 14.5 2.25C14.5 2.66421 14.1642 3 13.75 3C13.3358 3 13 2.66421 13 2.25ZM7.75 6C7.61193 6 7.5 6.11193 7.5 6.25L7.5 8.75C7.5 8.88807 7.61193 9 7.75 9L10.25 9C10.3881 9 10.5 8.88807 10.5 8.75L10.5 6.25C10.5 6.11193 10.3881 6 10.25 6L7.75 6ZM13.75 12C13.3358 12 13 12.3358 13 12.75C13 13.1642 13.3358 13.5 13.75 13.5C14.1642 13.5 14.5 13.1642 14.5 12.75C14.5 12.3358 14.1642 12 13.75 12ZM1.5 7.5C1.5 7.08579 1.83579 6.75 2.25 6.75C2.66421 6.75 3 7.08579 3 7.5C3 7.91421 2.66421 8.25 2.25 8.25C1.83579 8.25 1.5 7.91421 1.5 7.5Z" fill-rule="EVENODD"></path>
 </g>
</svg>