<svg viewBox="0 0 24 24" width="24" height="24" fill="currentColor" xmlns="http://www.w3.org/2000/svg">
 <g transform="translate(2.5, 3.2499990463256836)">
  <path d="M11.7075 11.7679C11.4215 11.4682 11.4325 10.9935 11.7321 10.7075L16.6638 6L11.7321 1.29252C11.4325 1.00651 11.4215 0.531768 11.7075 0.232144C11.9935 -0.0674791 12.4682 -0.0785198 12.7679 0.207484L18.2679 5.45748C18.4161 5.59901 18.5 5.79504 18.5 6C18.5 6.20496 18.4161 6.401 18.2679 6.54252L12.7679 11.7925C12.4682 12.0785 11.9935 12.0675 11.7075 11.7679Z" fill-rule="EVENODD"></path>
  <path d="M0.75 17.75C0.335787 17.75 0 17.4142 0 17L0 10C0 8.72505 0.538548 7.51222 1.48077 6.62542C2.42146 5.74007 3.68809 5.25 5 5.25L17.75 5.25C18.1642 5.25 18.5 5.58579 18.5 6C18.5 6.41421 18.1642 6.75 17.75 6.75L5 6.75C4.05757 6.75 3.1622 7.10278 2.50882 7.71772C1.85699 8.33121 1.5 9.15322 1.5 10L1.5 17C1.5 17.4142 1.16421 17.75 0.75 17.75Z" fill-rule="EVENODD"></path>
 </g>
</svg>