<svg viewBox="0 0 16 16" width="16" height="16" fill="currentColor" xmlns="http://www.w3.org/2000/svg">
 <g transform="translate(2.0000007152557373, 2.499999761581421)">
  <path d="M8.28033 6.71967C7.98744 6.42678 7.51256 6.42678 7.21967 6.71967L4.25 9.68934L1.28033 6.71967C0.987436 6.42678 0.512563 6.42678 0.21967 6.71967C-0.0732232 7.01256 -0.0732233 7.48744 0.21967 7.78033L3.71967 11.2803C4.01256 11.5732 4.48744 11.5732 4.78033 11.2803L8.28033 7.78033C8.57322 7.48744 8.57322 7.01256 8.28033 6.71967Z" fill-rule="EVENODD"></path>
  <path d="M12 0.75C12 0.335787 11.6642 2.14807e-07 11.25 1.96701e-07L6.75 0C5.88805 -3.76772e-08 5.0614 0.34241 4.4519 0.951903C3.84241 1.5614 3.5 2.38805 3.5 3.25L3.5 10.75C3.5 11.1642 3.83579 11.5 4.25 11.5C4.66421 11.5 5 11.1642 5 10.75L5 3.25C5 2.78587 5.18437 2.34075 5.51256 2.01256C5.84075 1.68437 6.28587 1.5 6.75 1.5L11.25 1.5C11.6642 1.5 12 1.16421 12 0.75Z" fill-rule="EVENODD"></path>
 </g>
</svg>