<svg viewBox="0 0 24 24" width="24" height="24" fill="currentColor" xmlns="http://www.w3.org/2000/svg">
 <g transform="translate(3, 3.2499990463256836)">
  <path d="M6.79252 11.7679C7.07852 11.4682 7.06748 10.9935 6.76786 10.7075L1.83621 6L6.76786 1.29252C7.06748 1.00651 7.07852 0.531768 6.79252 0.232144C6.50651 -0.0674791 6.03177 -0.0785198 5.73214 0.207484L0.232143 5.45748C0.0838826 5.59901 0 5.79504 0 6C0 6.20496 0.0838826 6.401 0.232143 6.54252L5.73214 11.7925C6.03177 12.0785 6.50651 12.0675 6.79252 11.7679Z" fill-rule="EVENODD"></path>
  <path d="M17.75 17.75C18.1642 17.75 18.5 17.4142 18.5 17L18.5 10C18.5 8.72505 17.9615 7.51222 17.0192 6.62542C16.0785 5.74007 14.8119 5.25 13.5 5.25L0.75 5.25C0.335786 5.25 0 5.58579 0 6C0 6.41421 0.335786 6.75 0.75 6.75L13.5 6.75C14.4424 6.75 15.3378 7.10278 15.9912 7.71772C16.643 8.33121 17 9.15322 17 10L17 17C17 17.4142 17.3358 17.75 17.75 17.75Z" fill-rule="EVENODD"></path>
 </g>
</svg>