<svg viewBox="0 0 24 24" width="24" height="24" fill="currentColor" xmlns="http://www.w3.org/2000/svg">
 <g transform="translate(2.9999992847442627, 3.000000238418579)">
  <path d="M7.04252 6.76786C6.75651 7.06748 6.28177 7.07852 5.98215 6.79252C5.68252 6.50651 5.67148 6.03177 5.95749 5.73214L11.2075 0.232143C11.349 0.0838826 11.545 0 11.75 0C11.955 0 12.151 0.0838826 12.2925 0.232143L17.5425 5.73214C17.8285 6.03177 17.8175 6.50651 17.5179 6.79252C17.2182 7.07852 16.7435 7.06748 16.4575 6.76786L12.5 2.62192L12.5 13.5C12.5 14.8119 12.0099 16.0785 11.1246 17.0192C10.2378 17.9615 9.02496 18.5 7.75 18.5L0.75 18.5C0.335786 18.5 0 18.1642 0 17.75C0 17.3358 0.335786 17 0.75 17L7.75 17C8.59678 17 9.41879 16.643 10.0323 15.9912C10.6472 15.3378 11 14.4424 11 13.5L11 2.62192L7.04252 6.76786Z" fill-rule="NONZERO"></path>
 </g>
</svg>