<svg viewBox="0 0 16 16" width="16" height="16" fill="currentColor" xmlns="http://www.w3.org/2000/svg">
 <g transform="translate(0.050000011920928955, 0.050000011920928955)">
  <path d="M1.95 4.2C1.95 2.95736 2.95736 1.95 4.2 1.95L11.7 1.95C12.9426 1.95 13.95 2.95736 13.95 4.2L13.95 11.7C13.95 12.9426 12.9426 13.95 11.7 13.95L4.2 13.95C2.95736 13.95 1.95 12.9426 1.95 11.7L1.95 4.2ZM4.2 3.45C3.78579 3.45 3.45 3.78579 3.45 4.2L3.45 11.7C3.45 12.1142 3.78579 12.45 4.2 12.45L11.7 12.45C12.1142 12.45 12.45 12.1142 12.45 11.7L12.45 4.2C12.45 3.78579 12.1142 3.45 11.7 3.45L4.2 3.45Z" fill-rule="EVENODD"></path>
  <path d="M4.95 6.2C4.95 5.50964 5.50964 4.95 6.2 4.95L9.7 4.95C10.3904 4.95 10.95 5.50964 10.95 6.2L10.95 9.7C10.95 10.3904 10.3904 10.95 9.7 10.95L6.2 10.95C5.50964 10.95 4.95 10.3904 4.95 9.7L4.95 6.2ZM6.45 6.45L6.45 9.45L9.45 9.45L9.45 6.45L6.45 6.45Z" fill-rule="EVENODD"></path>
  <path d="M6.2 0C6.5866 0 6.9 0.313401 6.9 0.7L6.9 2.7C6.9 3.0866 6.5866 3.4 6.2 3.4C5.8134 3.4 5.5 3.0866 5.5 2.7L5.5 0.7C5.5 0.313401 5.8134 0 6.2 0Z" fill-rule="EVENODD"></path>
  <path d="M9.7 0C10.0866 0 10.4 0.313401 10.4 0.7L10.4 2.7C10.4 3.0866 10.0866 3.4 9.7 3.4C9.3134 3.4 9 3.0866 9 2.7L9 0.7C9 0.313401 9.3134 0 9.7 0Z" fill-rule="EVENODD"></path>
  <path d="M6.2 12.5C6.5866 12.5 6.9 12.8134 6.9 13.2L6.9 15.2C6.9 15.5866 6.5866 15.9 6.2 15.9C5.8134 15.9 5.5 15.5866 5.5 15.2L5.5 13.2C5.5 12.8134 5.8134 12.5 6.2 12.5Z" fill-rule="EVENODD"></path>
  <path d="M9.7 12.5C10.0866 12.5 10.4 12.8134 10.4 13.2L10.4 15.2C10.4 15.5866 10.0866 15.9 9.7 15.9C9.3134 15.9 9 15.5866 9 15.2L9 13.2C9 12.8134 9.3134 12.5 9.7 12.5Z" fill-rule="EVENODD"></path>
  <path d="M12.5 6.2C12.5 5.8134 12.8134 5.5 13.2 5.5L15.2 5.5C15.5866 5.5 15.9 5.8134 15.9 6.2C15.9 6.5866 15.5866 6.9 15.2 6.9L13.2 6.9C12.8134 6.9 12.5 6.5866 12.5 6.2Z" fill-rule="EVENODD"></path>
  <path d="M12.5 9.7C12.5 9.3134 12.8134 9 13.2 9L15.2 9C15.5866 9 15.9 9.3134 15.9 9.7C15.9 10.0866 15.5866 10.4 15.2 10.4L13.2 10.4C12.8134 10.4 12.5 10.0866 12.5 9.7Z" fill-rule="EVENODD"></path>
  <path d="M0 6.2C0 5.8134 0.313401 5.5 0.7 5.5L2.7 5.5C3.0866 5.5 3.4 5.8134 3.4 6.2C3.4 6.5866 3.0866 6.9 2.7 6.9L0.7 6.9C0.313401 6.9 0 6.5866 0 6.2Z" fill-rule="EVENODD"></path>
  <path d="M0 9.7C0 9.3134 0.313401 9 0.7 9L2.7 9C3.0866 9 3.4 9.3134 3.4 9.7C3.4 10.0866 3.0866 10.4 2.7 10.4L0.7 10.4C0.313401 10.4 0 10.0866 0 9.7Z" fill-rule="EVENODD"></path>
 </g>
</svg>