<svg viewBox="0 0 16 16" width="16" height="16" fill="currentColor" xmlns="http://www.w3.org/2000/svg">
 <g transform="translate(0, 0)">
  <path d="M7.75 3C8.16421 3 8.5 3.33579 8.5 3.75L8.5 7.53647L10.5854 8.57918C10.9559 8.76442 11.1061 9.21493 10.9208 9.58541C10.7356 9.95589 10.2851 10.1061 9.91459 9.92082L7.41459 8.67082C7.1605 8.54378 7 8.28408 7 8L7 3.75C7 3.33579 7.33579 3 7.75 3Z" fill-rule="EVENODD"></path>
  <path d="M7.25 0.75C7.25 0.335786 7.58579 0 8 0C8.10012 0 8.19984 0.00184286 8.29914 0.00549901C8.71307 0.0207404 9.03627 0.368655 9.02103 0.782588C9.00579 1.19652 8.65788 1.51972 8.24394 1.50448C8.16303 1.5015 8.08171 1.5 8 1.5C7.58579 1.5 7.25 1.16421 7.25 0.75ZM10.7256 1.23785C10.9194 0.8718 11.3733 0.732215 11.7394 0.926076C11.9161 1.01966 12.0888 1.11965 12.2573 1.22574C12.6078 1.44645 12.7131 1.90951 12.4924 2.26003C12.2716 2.61055 11.8086 2.71578 11.4581 2.49508C11.3211 2.40887 11.1808 2.32764 11.0373 2.25165C10.6713 2.05779 10.5317 1.60389 10.7256 1.23785ZM13.74 3.50765C14.0905 3.28694 14.5536 3.39218 14.7743 3.74269C14.8803 3.91118 14.9803 4.08393 15.0739 4.26064C15.2678 4.62669 15.1282 5.08058 14.7622 5.27444C14.3961 5.4683 13.9422 5.32872 13.7483 4.96267C13.6724 4.81918 13.5911 4.67885 13.5049 4.54194C13.2842 4.19142 13.3895 3.72835 13.74 3.50765ZM15.2174 6.97897C15.6313 6.96373 15.9793 7.28693 15.9945 7.70086C15.9982 7.80016 16 7.89988 16 8C16 8.0845 15.9987 8.16871 15.9961 8.25263C15.9832 8.66664 15.6372 8.99184 15.2231 8.97897C14.8091 8.96611 14.4839 8.62006 14.4968 8.20604C14.4989 8.13765 14.5 8.06896 14.5 8C14.5 7.91829 14.4985 7.83697 14.4955 7.75606C14.4803 7.34212 14.8035 6.99421 15.2174 6.97897ZM14.9475 10.2111C15.3271 10.3769 15.5005 10.819 15.3347 11.1986C15.3009 11.276 15.2659 11.3528 15.2298 11.429C15.052 11.8031 14.6046 11.9623 14.2305 11.7846C13.8563 11.6069 13.6971 11.1595 13.8749 10.7853C13.9042 10.7235 13.9326 10.6612 13.9601 10.5983C14.1258 10.2187 14.5679 10.0454 14.9475 10.2111Z" fill-rule="EVENODD"></path>
  <path d="M8 1.5C4.41015 1.5 1.5 4.41015 1.5 8C1.5 11.5899 4.41015 14.5 8 14.5C10.4858 14.5 12.6469 13.1049 13.7409 11.0514C13.7875 10.9639 13.8322 10.8752 13.8749 10.7853C14.0526 10.4112 14.5 10.252 14.8741 10.4297C15.2483 10.6074 15.4075 11.0548 15.2298 11.429C15.1772 11.5396 15.1221 11.6489 15.0647 11.7567C13.7205 14.2798 11.0617 16 8 16C3.58172 16 0 12.4183 0 8C0 3.58172 3.58172 0 8 0C8.41421 0 8.75 0.335786 8.75 0.75C8.75 1.16421 8.41421 1.5 8 1.5Z" fill-rule="EVENODD"></path>
 </g>
</svg>