<svg viewBox="0 0 16 16" width="16" height="16" fill="black" xmlns="http://www.w3.org/2000/svg">
 <g transform="translate(-0.8406481742858887, 8.000354766845703)">
  <path d="M10.25 1.5L2.25 1.5C1.83578 1.5 1.5 1.8358 1.5 2.25001L1.50009 10.2499C1.50009 10.6641 1.83588 10.9999 2.25009 10.9999L10.2499 10.9999C10.6641 10.9999 10.9999 10.6641 10.9999 10.2499L11 2.25001C11 1.83579 10.6642 1.5 10.25 1.5ZM2.25 3.21865e-06L10.25 1.69309e-13C11.4926 -4.76837e-07 12.5 1.00737 12.5 2.25002L12.4999 10.2499C12.4999 11.4925 11.4925 12.4999 10.2499 12.4999L2.25009 12.4999C1.00746 12.4999 0.000100613 11.4925 8.70825e-05 10.2499L1.36296e-10 2.25003C-1.35301e-05 1.00738 1.00735 3.75509e-06 2.25 3.21865e-06Z" fill-rule="EVENODD"></path>
 </g>
</svg>