<svg viewBox="0 0 24 24" width="24" height="24" fill="currentColor" xmlns="http://www.w3.org/2000/svg">
 <g transform="translate(1.5964995622634888, 2)">
  <path d="M12.6535 5.5C9.47786 5.5 6.9035 8.07436 6.9035 11.25C6.9035 14.4256 9.47786 17 12.6535 17C13.6121 17 14.5138 16.766 15.3069 16.3527C15.5838 16.2084 15.8902 16.2218 16.0575 16.2362C16.2634 16.254 16.4882 16.2995 16.7077 16.3547C17.1499 16.4661 17.6618 16.6408 18.1345 16.8172C18.1789 16.8338 18.223 16.8504 18.2669 16.8671C18.2506 16.8243 18.2343 16.7813 18.2181 16.7381C18.041 16.266 17.8657 15.7538 17.7545 15.3098C17.6994 15.0894 17.6542 14.8631 17.6371 14.6553C17.623 14.4834 17.6125 14.1791 17.7562 13.9034C18.1695 13.1103 18.4035 12.2086 18.4035 11.25C18.4035 8.07436 15.8291 5.5 12.6535 5.5ZM20.3364 17.9399C20.4654 18.224 20.405 18.5583 20.1848 18.7793C19.9646 19.0004 19.6305 19.062 19.3459 18.934L19.3376 18.9303L19.3106 18.9183C19.2865 18.9076 19.2507 18.8917 19.2047 18.8716C19.1126 18.8313 18.9798 18.7737 18.8185 18.7055C18.495 18.5687 18.0602 18.3906 17.61 18.2225C17.1556 18.0529 16.704 17.9006 16.3415 17.8094C16.1587 17.7634 16.0209 17.7387 15.9282 17.7307C15.9215 17.7301 15.9153 17.7296 15.9097 17.7292C14.9298 18.2225 13.823 18.5 12.6535 18.5C8.64944 18.5 5.4035 15.2541 5.4035 11.25C5.4035 7.24594 8.64944 4 12.6535 4C16.6576 4 19.9035 7.24594 19.9035 11.25C19.9035 12.4212 19.6252 13.5296 19.1305 14.5105C19.1309 14.5171 19.1314 14.5244 19.1321 14.5325C19.1397 14.6252 19.164 14.763 19.2097 14.9456C19.3003 15.3078 19.4525 15.7581 19.6225 16.2112C19.7909 16.66 19.9697 17.093 20.107 17.4151C20.1755 17.5758 20.2332 17.7079 20.2737 17.7995C20.294 17.8453 20.3099 17.8809 20.3206 17.9048L20.3327 17.9317L20.3356 17.9382L20.3364 17.9399Z" fill-rule="EVENODD"></path>
  <path d="M7.74993 1.5C9.14775 1.5 10.4273 1.99783 11.4239 2.82665C11.7424 3.0915 12.2153 3.04803 12.4801 2.72956C12.745 2.41108 12.7015 1.9382 12.3831 1.67335C11.127 0.628809 9.51093 0 7.74993 0C3.74586 0 0.499926 3.24594 0.499926 7.25C0.499926 8.42125 0.778222 9.52957 1.27289 10.5105C1.27251 10.5171 1.27201 10.5244 1.27135 10.5325C1.26373 10.6252 1.23947 10.763 1.19376 10.9456C1.10313 11.3078 0.950888 11.7581 0.780906 12.2112C0.612513 12.66 0.433746 13.093 0.29644 13.4151C0.227958 13.5758 0.170182 13.7079 0.129699 13.7995C0.109464 13.8453 0.0935734 13.8809 0.0828503 13.9048L0.0707529 13.9317L0.0678099 13.9382L0.067148 13.9397C-0.0618345 14.2237 -0.00159948 14.5583 0.218611 14.7793C0.438834 15.0004 0.77291 15.062 1.05749 14.934L1.05841 14.9336L1.06225 14.9319L1.07845 14.9247L1.14301 14.8961C1.19965 14.8711 1.28245 14.8349 1.38574 14.7905C1.59256 14.7015 1.88042 14.5801 2.20435 14.4506C2.86562 14.1862 3.63007 13.907 4.16529 13.7845C4.56907 13.6921 4.82149 13.2899 4.72909 12.8861C4.63669 12.4823 4.23446 12.2299 3.83068 12.3223C3.32416 12.4382 2.69977 12.6532 2.13653 12.867C2.15284 12.8243 2.16912 12.7813 2.18532 12.7381C2.36242 12.266 2.53775 11.7538 2.64888 11.3098C2.70406 11.0894 2.74923 10.8631 2.76631 10.6553C2.78043 10.4834 2.79094 10.1791 2.64722 9.90336C2.23391 9.11034 1.99993 8.20859 1.99993 7.25C1.99993 4.07436 4.57429 1.5 7.74993 1.5Z" fill-rule="EVENODD"></path>
 </g>
</svg>