<svg viewBox="0 0 24 24" width="24" height="24" fill="currentColor" xmlns="http://www.w3.org/2000/svg">
 <g transform="translate(5, 1)">
  <path d="M6.75 0C7.16421 0 7.5 0.335786 7.5 0.75L7.5 21.25C7.5 21.6642 7.16421 22 6.75 22C6.33579 22 6 21.6642 6 21.25L6 0.75C6 0.335786 6.33579 0 6.75 0Z" fill-rule="EVENODD"></path>
  <path d="M1.28903 4.27989C2.11374 3.4599 3.23137 3 4.39583 3L12.2083 3C12.6225 3 12.9583 3.33579 12.9583 3.75C12.9583 4.16421 12.6225 4.5 12.2083 4.5L4.39583 4.5C3.62643 4.5 2.8894 4.80394 2.34665 5.34359C1.80405 5.88309 1.5 6.61389 1.5 7.375C1.5 8.13611 1.80405 8.86691 2.34665 9.40641C2.8894 9.94606 3.62643 10.25 4.39583 10.25L9.60417 10.25C10.7686 10.25 11.8863 10.7099 12.711 11.5299C13.5358 12.35 14 13.4633 14 14.625C14 15.7867 13.5358 16.9 12.711 17.7201C11.8863 18.5401 10.7686 19 9.60417 19L0.75 19C0.335786 19 0 18.6642 0 18.25C0 17.8358 0.335786 17.5 0.75 17.5L9.60417 17.5C10.3736 17.5 11.1106 17.1961 11.6534 16.6564C12.196 16.1169 12.5 15.3861 12.5 14.625C12.5 13.8639 12.196 13.1331 11.6534 12.5936C11.1106 12.0539 10.3736 11.75 9.60417 11.75L4.39583 11.75C3.23137 11.75 2.11374 11.2901 1.28903 10.4701C0.464182 9.64997 0 8.53671 0 7.375C0 6.21329 0.464182 5.10003 1.28903 4.27989Z" fill-rule="EVENODD"></path>
 </g>
</svg>