<svg viewBox="0 0 24 24" width="24" height="24" fill="black" xmlns="http://www.w3.org/2000/svg">
 <g transform="translate(2.25, 2.25)">
  <path d="M10.5 0.75C10.5 0.335786 10.1642 0 9.75 0C9.33579 0 9 0.335786 9 0.75L9 10.9393L5.28033 7.21967C4.98744 6.92678 4.51256 6.92678 4.21967 7.21967C3.92678 7.51256 3.92678 7.98744 4.21967 8.28033L9.21967 13.2803C9.29158 13.3522 9.37445 13.4065 9.46291 13.4431C9.55134 13.4798 9.64831 13.5 9.75 13.5C9.85169 13.5 9.94866 13.4798 10.0371 13.4431C10.1255 13.4065 10.2084 13.3522 10.2803 13.2803L15.2803 8.28033C15.5732 7.98744 15.5732 7.51256 15.2803 7.21967C14.9874 6.92678 14.5126 6.92678 14.2197 7.21967L10.5 10.9393L10.5 0.75Z" fill-rule="NONZERO"></path>
  <path d="M0.75 12C1.16421 12 1.5 12.3358 1.5 12.75L1.5 16.75C1.5 17.0815 1.6317 17.3995 1.86612 17.6339C2.10054 17.8683 2.41848 18 2.75 18L16.75 18C17.0815 18 17.3995 17.8683 17.6339 17.6339C17.8683 17.3995 18 17.0815 18 16.75L18 12.75C18 12.3358 18.3358 12 18.75 12C19.1642 12 19.5 12.3358 19.5 12.75L19.5 16.75C19.5 17.4793 19.2103 18.1788 18.6945 18.6945C18.1788 19.2103 17.4793 19.5 16.75 19.5L2.75 19.5C2.02065 19.5 1.32118 19.2103 0.805456 18.6945C0.289731 18.1788 0 17.4793 0 16.75L0 12.75C0 12.3358 0.335786 12 0.75 12Z" fill-rule="NONZERO"></path>
 </g>
</svg>