<svg viewBox="0 0 24 24" width="24" height="24" fill="currentColor" xmlns="http://www.w3.org/2000/svg">
 <g transform="translate(1, 1)">
  <path d="M6 8.75C6 7.23122 7.23122 6 8.75 6L19.25 6C20.7688 6 22 7.23122 22 8.75L22 19.25C22 20.7688 20.7688 22 19.25 22L8.75 22C7.23122 22 6 20.7688 6 19.25L6 8.75ZM8.75 7.5C8.05964 7.5 7.5 8.05964 7.5 8.75L7.5 19.25C7.5 19.9404 8.05964 20.5 8.75 20.5L19.25 20.5C19.9404 20.5 20.5 19.9404 20.5 19.25L20.5 8.75C20.5 8.05964 19.9404 7.5 19.25 7.5L8.75 7.5Z" fill-rule="EVENODD"></path>
  <path d="M0 2.75C0 1.23122 1.23122 0 2.75 0L13.25 0C14.7688 0 16 1.23122 16 2.75L16 3.75C16 4.16421 15.6642 4.5 15.25 4.5C14.8358 4.5 14.5 4.16421 14.5 3.75L14.5 2.75C14.5 2.05964 13.9404 1.5 13.25 1.5L2.75 1.5C2.05964 1.5 1.5 2.05964 1.5 2.75L1.5 13.25C1.5 13.9404 2.05964 14.5 2.75 14.5L3.75 14.5C4.16421 14.5 4.5 14.8358 4.5 15.25C4.5 15.6642 4.16421 16 3.75 16L2.75 16C1.23122 16 0 14.7688 0 13.25L0 2.75Z" fill-rule="EVENODD"></path>
 </g>
</svg>