<svg viewBox="0 0 16 16" width="16" height="16" fill="currentColor" xmlns="http://www.w3.org/2000/svg">
 <g transform="translate(1, 0)">
  <path d="M7.5 6.25C7.5 5.83579 7.16421 5.5 6.75 5.5C6.33579 5.5 6 5.83579 6 6.25L6 7.5L4.75 7.5C4.33579 7.5 4 7.83579 4 8.25C4 8.66421 4.33579 9 4.75 9L6 9L6 10.25C6 10.6642 6.33579 11 6.75 11C7.16421 11 7.5 10.6642 7.5 10.25L7.5 9L8.75 9C9.16421 9 9.5 8.66421 9.5 8.25C9.5 7.83579 9.16421 7.5 8.75 7.5L7.5 7.5L7.5 6.25Z" fill-rule="NONZERO"></path>
  <path d="M4.75 11.5C4.33579 11.5 4 11.8358 4 12.25C4 12.6642 4.33579 13 4.75 13L8.75 13C9.16421 13 9.5 12.6642 9.5 12.25C9.5 11.8358 9.16421 11.5 8.75 11.5L4.75 11.5Z" fill-rule="NONZERO"></path>
  <path d="M0 2.25C0 1.00736 1.00736 0 2.25 0L8.54289 0C8.87441 0 9.19236 0.131695 9.42678 0.366116L13.6339 4.57322C13.8683 4.80764 14 5.12559 14 5.45711L14 13.75C14 14.9926 12.9926 16 11.75 16L2.25 16C1.00736 16 0 14.9926 0 13.75L0 2.25ZM2.25 1.5C1.83579 1.5 1.5 1.83579 1.5 2.25L1.5 13.75C1.5 14.1642 1.83579 14.5 2.25 14.5L11.75 14.5C12.1642 14.5 12.5 14.1642 12.5 13.75L12.5 6L8.75 6C8.33579 6 8 5.66421 8 5.25L8 1.5L2.25 1.5ZM9.5 2.56066L11.4393 4.5L9.5 4.5L9.5 2.56066Z" fill-rule="EVENODD"></path>
 </g>
</svg>