<svg viewBox="0 0 16 16" width="16" height="16" fill="currentColor" xmlns="http://www.w3.org/2000/svg">
 <g transform="translate(1, 0)">
  <path d="M6.75 7C7.16421 7 7.5 7.33579 7.5 7.75L7.5 9L8.75 9C9.16421 9 9.5 9.33579 9.5 9.75C9.5 10.1642 9.16421 10.5 8.75 10.5L7.5 10.5L7.5 11.75C7.5 12.1642 7.16421 12.5 6.75 12.5C6.33579 12.5 6 12.1642 6 11.75L6 10.5L4.75 10.5C4.33579 10.5 4 10.1642 4 9.75C4 9.33579 4.33579 9 4.75 9L6 9L6 7.75C6 7.33579 6.33579 7 6.75 7Z" fill-rule="NONZERO"></path>
  <path d="M2.25 0C1.00736 0 0 1.00736 0 2.25L0 13.75C0 14.9926 1.00736 16 2.25 16L11.75 16C12.9926 16 14 14.9926 14 13.75L14 5.45711C14 5.12559 13.8683 4.80764 13.6339 4.57322L9.42678 0.366116C9.19236 0.131695 8.87441 0 8.54289 0L2.25 0ZM1.5 2.25C1.5 1.83579 1.83579 1.5 2.25 1.5L8 1.5L8 5.25C8 5.66421 8.33579 6 8.75 6L12.5 6L12.5 13.75C12.5 14.1642 12.1642 14.5 11.75 14.5L2.25 14.5C1.83579 14.5 1.5 14.1642 1.5 13.75L1.5 2.25ZM11.4393 4.5L9.5 2.56066L9.5 4.5L11.4393 4.5Z" fill-rule="EVENODD"></path>
 </g>
</svg>