<svg viewBox="0 0 16 16" width="16" height="16" fill="currentColor" xmlns="http://www.w3.org/2000/svg">
 <g transform="translate(1, 0)">
  <path d="M2.25 1.5C1.83579 1.5 1.5 1.83579 1.5 2.25L1.5 13.75C1.5 14.1642 1.83579 14.5 2.25 14.5L6.75 14.5C7.16421 14.5 7.5 14.8358 7.5 15.25C7.5 15.6642 7.16421 16 6.75 16L2.25 16C1.00736 16 0 14.9926 0 13.75L0 2.25C0 1.00736 1.00736 0 2.25 0L8.54289 0C8.87441 0 9.19236 0.131695 9.42678 0.366116L13.6339 4.57322C13.8683 4.80764 14 5.12559 14 5.45711L14 7.5C14 7.91421 13.6642 8.25 13.25 8.25C12.8358 8.25 12.5 7.91421 12.5 7.5L12.5 5.56066L8.43934 1.5L2.25 1.5Z" fill-rule="EVENODD"></path>
  <path d="M8.75 0.75C9.16421 0.75 9.5 1.08579 9.5 1.5L9.5 4.5L12.5 4.5C12.9142 4.5 13.25 4.83579 13.25 5.25C13.25 5.66421 12.9142 6 12.5 6L8.75 6C8.33579 6 8 5.66421 8 5.25L8 1.5C8 1.08579 8.33579 0.75 8.75 0.75Z" fill-rule="EVENODD"></path>
  <path d="M8 11C8 9.89543 8.89543 9 10 9L13 9C14.1046 9 15 9.89543 15 11L15 14C15 15.1046 14.1046 16 13 16L10 16C8.89543 16 8 15.1046 8 14L8 11ZM11.5 13.5607L10.5303 14.5303C10.2374 14.8232 9.76256 14.8232 9.46967 14.5303C9.17678 14.2374 9.17678 13.7626 9.46967 13.4697L10.4393 12.5L9.46967 11.5303C9.17678 11.2374 9.17678 10.7626 9.46967 10.4697C9.76256 10.1768 10.2374 10.1768 10.5303 10.4697L11.5 11.4393L12.4697 10.4697C12.7626 10.1768 13.2374 10.1768 13.5303 10.4697C13.8232 10.7626 13.8232 11.2374 13.5303 11.5303L12.5607 12.5L13.5303 13.4697C13.8232 13.7626 13.8232 14.2374 13.5303 14.5303C13.2374 14.8232 12.7626 14.8232 12.4697 14.5303L11.5 13.5607Z" fill-rule="EVENODD"></path>
 </g>
</svg>