<svg viewBox="0 0 16 16" width="16" height="16" fill="currentColor" xmlns="http://www.w3.org/2000/svg">
 <g transform="translate(2, 1)">
  <path d="M1.03757 0.396227C1.54803 0.185097 2.30299 0 3.375 0C4.50915 0 5.44773 0.388376 6.24444 0.718049C6.25856 0.72389 6.27263 0.729712 6.28665 0.735513C7.12155 1.08083 7.81049 1.35714 8.625 1.35714C9.52174 1.35714 10.0793 1.20295 10.3891 1.0748C10.5448 1.0104 10.6418 0.951003 10.691 0.917098C10.712 0.902632 10.7247 0.89256 10.7297 0.888377C10.9422 0.683635 11.2561 0.622028 11.5312 0.733286C11.8145 0.847881 12 1.12294 12 1.42857L12 9.57143C12 9.766 11.9244 9.95295 11.7891 10.0928L11.25 9.57143C11.7891 10.0928 11.7884 10.0936 11.7884 10.0936L11.7876 10.0944L11.7859 10.0961L11.7825 10.0996L11.7747 10.1074C11.7718 10.1102 11.7688 10.1132 11.7655 10.1163C11.7625 10.1193 11.7592 10.1223 11.7558 10.1255C11.7417 10.1388 11.7246 10.1543 11.7042 10.1716C11.6634 10.2063 11.6099 10.2484 11.5424 10.295C11.407 10.3883 11.2169 10.4985 10.9624 10.6038C10.452 10.8149 9.69701 11 8.625 11C7.49085 11 6.55228 10.6116 5.75556 10.282C5.74145 10.2761 5.72738 10.2703 5.71335 10.2645C4.87845 9.91917 4.18951 9.64286 3.375 9.64286C2.47826 9.64286 1.92072 9.79705 1.61087 9.9252C1.45516 9.9896 1.35815 10.049 1.30897 10.0829C1.28799 10.0974 1.27535 10.1074 1.27028 10.1116C1.05779 10.3164 0.743875 10.378 0.46879 10.2667C0.185457 10.1521 0 9.87706 0 9.57143L0 1.42857C0 1.234 0.0756145 1.04705 0.210877 0.907183L0.75 1.42857C0.210877 0.907183 0.211649 0.906386 0.211649 0.906386L0.212438 0.905574L0.214067 0.903904L0.21753 0.900386L0.225286 0.892647C0.230827 0.887181 0.237113 0.881112 0.244165 0.874483C0.258269 0.861225 0.275425 0.845742 0.295797 0.828394C0.336565 0.793678 0.39008 0.751611 0.457632 0.705045C0.593019 0.611717 0.783119 0.501468 1.03757 0.396227ZM1.5 1.83175L1.5 8.3786C1.97368 8.24232 2.58915 8.14286 3.375 8.14286C4.50915 8.14286 5.44773 8.53123 6.24444 8.86091C6.25856 8.86675 6.27263 8.87257 6.28665 8.87837C7.12155 9.22369 7.81049 9.5 8.625 9.5C9.52174 9.5 10.0793 9.34581 10.3891 9.21766C10.4301 9.20072 10.467 9.18413 10.5 9.16825L10.5 2.6214C10.0263 2.75768 9.41085 2.85714 8.625 2.85714C7.49085 2.85714 6.55227 2.46877 5.75556 2.13909C5.74144 2.13325 5.72737 2.12743 5.71335 2.12163C4.87845 1.77631 4.18951 1.5 3.375 1.5C2.47826 1.5 1.92072 1.65419 1.61087 1.78234C1.56992 1.79928 1.53303 1.81587 1.5 1.83175Z" fill-rule="EVENODD"></path>
  <path d="M0.75 8C1.16421 8 1.5 8.33579 1.5 8.75L1.5 13.25C1.5 13.6642 1.16421 14 0.75 14C0.335786 14 0 13.6642 0 13.25L0 8.75C0 8.33579 0.335786 8 0.75 8Z" fill-rule="EVENODD"></path>
 </g>
</svg>