<svg viewBox="0 0 24 24" width="24" height="24" fill="currentColor" xmlns="http://www.w3.org/2000/svg">
 <g transform="translate(3, 1)">
  <path d="M1.37276 0.571916C2.11573 0.273442 3.24319 0 4.875 0C6.56738 0 7.97163 0.564233 9.23559 1.0721L9.27958 1.08977C10.5823 1.61313 11.7433 2.07143 13.125 2.07143C14.5869 2.07143 15.522 1.82701 16.0681 1.60763C16.3418 1.49767 16.5213 1.39263 16.6233 1.32434C16.6744 1.2901 16.7065 1.26479 16.7216 1.25228C16.7259 1.24877 16.7288 1.24625 16.7305 1.24481C16.9446 1.03904 17.2608 0.97873 17.5363 1.0925C17.8169 1.20839 18 1.48207 18 1.78571L18 14.2143C18 14.4126 17.9214 14.6029 17.7815 14.7435L17.25 14.2143C17.7815 14.7435 17.7807 14.7443 17.7807 14.7443L17.7799 14.7451L17.7782 14.7468L17.7745 14.7504L17.7658 14.7588C17.7594 14.7649 17.752 14.7719 17.7434 14.7798C17.7261 14.7955 17.7043 14.8147 17.6777 14.8367C17.6243 14.8809 17.5517 14.9365 17.4578 14.9993C17.2697 15.1252 16.998 15.2791 16.6272 15.4281C15.8843 15.7266 14.7568 16 13.125 16C11.4326 16 10.0284 15.4358 8.76442 14.9279L8.72042 14.9102C7.41766 14.3869 6.25671 13.9286 4.875 13.9286C3.41306 13.9286 2.47802 14.173 1.93193 14.3924C1.6582 14.5023 1.47873 14.6074 1.37674 14.6757C1.32561 14.7099 1.29349 14.7352 1.27836 14.7477C1.27412 14.7512 1.2712 14.7537 1.26956 14.7552C1.05538 14.961 0.739232 15.0213 0.463736 14.9075C0.183082 14.7916 0 14.5179 0 14.2143L0 1.78571C0 1.58736 0.0785736 1.39709 0.218526 1.25653L0.75 1.78571C0.218526 1.25653 0.219314 1.25574 0.219314 1.25574L0.220127 1.25493L0.221831 1.25323L0.225547 1.24956L0.234225 1.24116C0.240567 1.23508 0.248028 1.22808 0.25664 1.22021C0.273866 1.20449 0.295683 1.18533 0.322347 1.16328C0.3757 1.11915 0.448316 1.06354 0.542203 1.00068C0.730251 0.87477 1.00196 0.72088 1.37276 0.571916ZM1.5 2.17071L1.5 12.9511C2.24239 12.6725 3.33373 12.4286 4.875 12.4286C6.56738 12.4286 7.97163 12.9928 9.23559 13.5007L9.27958 13.5183C10.5823 14.0417 11.7433 14.5 13.125 14.5C14.5869 14.5 15.522 14.2556 16.0681 14.0362C16.2536 13.9617 16.3958 13.8894 16.5 13.8293L16.5 3.04892C15.7576 3.32749 14.6663 3.57143 13.125 3.57143C11.4326 3.57143 10.0284 3.0072 8.76442 2.49933L8.72042 2.48166C7.41766 1.9583 6.25671 1.5 4.875 1.5C3.41306 1.5 2.47802 1.74441 1.93193 1.9638C1.74638 2.03834 1.60415 2.11061 1.5 2.17071Z" fill-rule="EVENODD"></path>
  <path d="M0.75 13C1.16421 13 1.5 13.3358 1.5 13.75L1.5 21.25C1.5 21.6642 1.16421 22 0.75 22C0.335786 22 0 21.6642 0 21.25L0 13.75C0 13.3358 0.335786 13 0.75 13Z" fill-rule="EVENODD"></path>
 </g>
</svg>