<svg viewBox="0 0 16 16" width="16" height="16" fill="currentColor" xmlns="http://www.w3.org/2000/svg">
 <g transform="translate(0, 1)">
  <path d="M0 2.25C0 1.00736 1.00736 0 2.25 0L6.62868 0C7.22542 0 7.79771 0.237052 8.21967 0.659009L9.34099 1.78033C9.48164 1.92098 9.67241 2 9.87132 2L13.75 2C14.9926 2 16 3.00736 16 4.25L16 11.75C16 12.9926 14.9926 14 13.75 14L2.25 14C1.00736 14 0 12.9926 0 11.75L0 2.25ZM7.75 5C8.16421 5 8.5 5.33579 8.5 5.75L8.5 7L9.75 7C10.1642 7 10.5 7.33579 10.5 7.75C10.5 8.16421 10.1642 8.5 9.75 8.5L8.5 8.5L8.5 9.75C8.5 10.1642 8.16421 10.5 7.75 10.5C7.33579 10.5 7 10.1642 7 9.75L7 8.5L5.75 8.5C5.33579 8.5 5 8.16421 5 7.75C5 7.33579 5.33579 7 5.75 7L7 7L7 5.75C7 5.33579 7.33579 5 7.75 5Z" fill-rule="EVENODD"></path>
 </g>
</svg>