<svg viewBox="0 0 16 16" width="16" height="16" fill="currentColor" xmlns="http://www.w3.org/2000/svg">
 <g transform="translate(0, 1)">
  <path d="M0 2.25C0 1.00736 1.00736 0 2.25 0L6.62868 0C7.22542 0 7.79771 0.237052 8.21967 0.659009L9.34099 1.78033C9.48164 1.92098 9.67241 2 9.87132 2L13.75 2C14.9926 2 16 3.00736 16 4.25L16 11.75C16 12.9926 14.9926 14 13.75 14L2.25 14C1.00736 14 0 12.9926 0 11.75L0 6.25C0 5.83579 0.335786 5.5 0.75 5.5L13.25 5.5C13.6642 5.5 14 5.16421 14 4.75C14 4.33579 13.6642 4 13.25 4L0.75 4C0.335786 4 0 3.66421 0 3.25L0 2.25Z" fill-rule="EVENODD"></path>
 </g>
</svg>