<svg viewBox="0 0 16 16" width="16" height="16" fill="currentColor" xmlns="http://www.w3.org/2000/svg">
 <g transform="translate(0.000000476837158203125, 1)">
  <path d="M0 2.25C0 1.00736 1.00736 0 2.25 0L6.62868 0C7.22542 0 7.79771 0.237052 8.21967 0.659009L9.34099 1.78033C9.48164 1.92098 9.67241 2 9.87132 2L13.75 2C14.9926 2 16 3.00736 16 4.25L16 11.75C16 12.9926 14.9926 14 13.75 14L2.25 14C1.00736 14 0 12.9926 0 11.75L0 2.25ZM5.75 6.50293C5.33579 6.50293 5 6.83872 5 7.25293C5 7.66714 5.33579 8.00293 5.75 8.00293L10.25 8.00293C10.6642 8.00293 11 7.66714 11 7.25293C11 6.83872 10.6642 6.50293 10.25 6.50293L5.75 6.50293Z" fill-rule="EVENODD"></path>
 </g>
</svg>