<svg viewBox="0 0 24 24" width="24" height="24" fill="currentColor" xmlns="http://www.w3.org/2000/svg">
 <g transform="translate(3, 3)">
  <path d="M14.5 12.5C13.3954 12.5 12.5 13.3954 12.5 14.5C12.5 15.6046 13.3954 16.5 14.5 16.5C15.6046 16.5 16.5 15.6046 16.5 14.5C16.5 13.3954 15.6046 12.5 14.5 12.5ZM11 14.5C11 12.567 12.567 11 14.5 11C16.433 11 18 12.567 18 14.5C18 16.433 16.433 18 14.5 18C12.567 18 11 16.433 11 14.5Z" fill-rule="EVENODD"></path>
  <path d="M3.5 1.5C2.39543 1.5 1.5 2.39543 1.5 3.5C1.5 4.60457 2.39543 5.5 3.5 5.5C4.60457 5.5 5.5 4.60457 5.5 3.5C5.5 2.39543 4.60457 1.5 3.5 1.5ZM0 3.5C0 1.567 1.567 0 3.5 0C5.433 0 7 1.567 7 3.5C7 5.433 5.433 7 3.5 7C1.567 7 0 5.433 0 3.5Z" fill-rule="EVENODD"></path>
  <path d="M3.5 5.5C3.91421 5.5 4.25 5.83579 4.25 6.25C4.25 6.77773 4.44908 7.51916 4.86512 8.36965C5.27486 9.20727 5.8685 10.0961 6.59124 10.9073C8.0609 12.557 9.93596 13.75 11.75 13.75C12.1642 13.75 12.5 14.0858 12.5 14.5C12.5 14.9142 12.1642 15.25 11.75 15.25C9.31404 15.25 7.0641 13.693 5.47126 11.9052C5.01749 11.3958 4.60673 10.8568 4.25 10.3109L4.25 17.75C4.25 18.1642 3.91421 18.5 3.5 18.5C3.08579 18.5 2.75 18.1642 2.75 17.75L2.75 6.25C2.75 5.83579 3.08579 5.5 3.5 5.5Z" fill-rule="EVENODD"></path>
 </g>
</svg>