<svg viewBox="0 0 16 16" width="16" height="16" fill="currentColor" xmlns="http://www.w3.org/2000/svg">
 <g transform="translate(0.75, 1)">
  <path d="M3.89353 5.86468C5.114 5.48441 6 4.34567 6 3C6 1.34315 4.65685 0 3 0C1.34315 0 0 1.34315 0 3C0 4.39788 0.95608 5.57245 2.25 5.90549L2.25 13C2.25 13.4142 2.58579 13.75 3 13.75C3.41421 13.75 3.75 13.4142 3.75 13L3.75 8.51845C3.95954 8.784 4.18567 9.04554 4.42465 9.29745C5.46128 10.3901 6.86881 11.4333 8.32974 11.69C8.64145 13.0143 9.83061 14 11.25 14C12.9069 14 14.25 12.6569 14.25 11C14.25 9.34315 12.9069 8 11.25 8C9.88317 8 8.72984 8.91407 8.36795 10.1643C7.44791 9.92737 6.41667 9.21773 5.51285 8.26505C4.97288 7.6959 4.5193 7.08149 4.20523 6.52039C4.06813 6.27546 3.96596 6.05553 3.89353 5.86468ZM3 1.5C2.17157 1.5 1.5 2.17157 1.5 3C1.5 3.82843 2.17157 4.5 3 4.5C3.82843 4.5 4.5 3.82843 4.5 3C4.5 2.17157 3.82843 1.5 3 1.5ZM9.75 11C9.75 11.8284 10.4216 12.5 11.25 12.5C12.0784 12.5 12.75 11.8284 12.75 11C12.75 10.1716 12.0784 9.5 11.25 9.5C10.4216 9.5 9.75 10.1716 9.75 11Z" fill-rule="EVENODD"></path>
 </g>
</svg>