<svg viewBox="0 0 16 16" width="16" height="16" fill="currentColor" xmlns="http://www.w3.org/2000/svg">
 <g transform="translate(1, 1)">
  <path d="M11 9.5C10.1716 9.5 9.5 10.1716 9.5 11C9.5 11.8284 10.1716 12.5 11 12.5C11.8284 12.5 12.5 11.8284 12.5 11C12.5 10.1716 11.8284 9.5 11 9.5ZM8 11C8 9.34315 9.34315 8 11 8C12.6569 8 14 9.34315 14 11C14 12.6569 12.6569 14 11 14C9.34315 14 8 12.6569 8 11Z" fill-rule="EVENODD"></path>
  <path d="M3 1.5C2.17157 1.5 1.5 2.17157 1.5 3C1.5 3.82843 2.17157 4.5 3 4.5C3.82843 4.5 4.5 3.82843 4.5 3C4.5 2.17157 3.82843 1.5 3 1.5ZM0 3C0 1.34315 1.34315 0 3 0C4.65685 0 6 1.34315 6 3C6 4.65685 4.65685 6 3 6C1.34315 6 0 4.65685 0 3Z" fill-rule="EVENODD"></path>
  <path d="M3 4.5C3.41421 4.5 3.75 4.83579 3.75 5.25C3.75 5.50844 3.87309 5.95827 4.17658 6.53965C4.46953 7.10083 4.89348 7.71376 5.40193 8.28032C6.45502 9.45376 7.70335 10.25 8.75 10.25C9.16421 10.25 9.5 10.5858 9.5 11C9.5 11.4142 9.16421 11.75 8.75 11.75C7.04665 11.75 5.41998 10.5462 4.28557 9.28218C4.09741 9.07252 3.91827 8.85633 3.75 8.63687L3.75 13C3.75 13.4142 3.41421 13.75 3 13.75C2.58579 13.75 2.25 13.4142 2.25 13L2.25 5.25C2.25 4.83579 2.58579 4.5 3 4.5Z" fill-rule="EVENODD"></path>
 </g>
</svg>