<svg viewBox="0 0 24 24" width="24" height="24" fill="currentColor" xmlns="http://www.w3.org/2000/svg">
 <g transform="translate(2.75, 2.5)">
  <path d="M4.25 0.75C4.25 0.335786 3.91421 0 3.5 0C3.08579 0 2.75 0.335786 2.75 0.75L2.75 11.5805C1.17741 11.9239 0 13.3244 0 15C0 16.933 1.567 18.5 3.5 18.5C5.17833 18.5 6.58075 17.3187 6.92115 15.7422C9.36772 15.651 11.4737 14.7635 12.9936 13.2436C14.4609 11.7762 15.3388 9.7627 15.4799 7.42379C17.0625 7.08805 18.25 5.6827 18.25 4C18.25 2.067 16.683 0.5 14.75 0.5C12.817 0.5 11.25 2.067 11.25 4C11.25 5.66754 12.4162 7.0627 13.9774 7.41445C13.8415 9.38986 13.0978 11.018 11.9329 12.1829C10.7198 13.396 9.00435 14.1523 6.91752 14.2412C6.62424 12.9144 5.57803 11.8705 4.25 11.5805L4.25 0.75ZM14.75 6C15.8546 6 16.75 5.10457 16.75 4C16.75 2.89543 15.8546 2 14.75 2C13.6454 2 12.75 2.89543 12.75 4C12.75 5.10457 13.6454 6 14.75 6ZM1.5 15C1.5 13.8954 2.39543 13 3.5 13C4.60457 13 5.5 13.8954 5.5 15C5.5 16.1046 4.60457 17 3.5 17C2.39543 17 1.5 16.1046 1.5 15Z" fill-rule="EVENODD"></path>
 </g>
</svg>