<svg viewBox="0 0 16 16" width="16" height="16" fill="currentColor" xmlns="http://www.w3.org/2000/svg">
 <g transform="translate(1, 1)">
  <path d="M3 0.25C3.41421 0.25 3.75 0.585786 3.75 1L3.75 8.75C3.75 9.16421 3.41421 9.5 3 9.5C2.58579 9.5 2.25 9.16421 2.25 8.75L2.25 1C2.25 0.585786 2.58579 0.25 3 0.25Z" fill-rule="EVENODD"></path>
  <path d="M11 1.5C10.1716 1.5 9.5 2.17157 9.5 3C9.5 3.82843 10.1716 4.5 11 4.5C11.8284 4.5 12.5 3.82843 12.5 3C12.5 2.17157 11.8284 1.5 11 1.5ZM8 3C8 1.34315 9.34315 0 11 0C12.6569 0 14 1.34315 14 3C14 4.65685 12.6569 6 11 6C9.34315 6 8 4.65685 8 3Z" fill-rule="EVENODD"></path>
  <path d="M3 9.5C2.17157 9.5 1.5 10.1716 1.5 11C1.5 11.8284 2.17157 12.5 3 12.5C3.82843 12.5 4.5 11.8284 4.5 11C4.5 10.1716 3.82843 9.5 3 9.5ZM0 11C0 9.34315 1.34315 8 3 8C4.65685 8 6 9.34315 6 11C6 12.6569 4.65685 14 3 14C1.34315 14 0 12.6569 0 11Z" fill-rule="EVENODD"></path>
  <path d="M11 4.5C11.4142 4.5 11.75 4.83579 11.75 5.25C11.75 8.93221 8.93221 11.75 5.25 11.75C4.83579 11.75 4.5 11.4142 4.5 11C4.5 10.5858 4.83579 10.25 5.25 10.25C8.10379 10.25 10.25 8.10379 10.25 5.25C10.25 4.83579 10.5858 4.5 11 4.5Z" fill-rule="EVENODD"></path>
 </g>
</svg>