<svg viewBox="0 0 16 16" width="16" height="16" fill="currentColor" xmlns="http://www.w3.org/2000/svg">
 <g transform="translate(1.5, 5)">
  <path d="M6.5 1.5C5.67157 1.5 5 2.17157 5 3C5 3.82843 5.67157 4.5 6.5 4.5C7.32843 4.5 8 3.82843 8 3C8 2.17157 7.32843 1.5 6.5 1.5ZM3.5 3C3.5 1.34315 4.84315 0 6.5 0C8.15685 0 9.5 1.34315 9.5 3C9.5 4.65685 8.15685 6 6.5 6C4.84315 6 3.5 4.65685 3.5 3Z" fill-rule="EVENODD"></path>
  <path d="M0 3C0 2.58579 0.335786 2.25 0.75 2.25L4.25 2.25C4.66421 2.25 5 2.58579 5 3C5 3.41421 4.66421 3.75 4.25 3.75L0.75 3.75C0.335786 3.75 0 3.41421 0 3Z" fill-rule="EVENODD"></path>
  <path d="M8 3C8 2.58579 8.33579 2.25 8.75 2.25L12.25 2.25C12.6642 2.25 13 2.58579 13 3C13 3.41421 12.6642 3.75 12.25 3.75L8.75 3.75C8.33579 3.75 8 3.41421 8 3Z" fill-rule="EVENODD"></path>
 </g>
</svg>