<svg viewBox="0 0 16 16" width="16" height="16" fill="currentColor" xmlns="http://www.w3.org/2000/svg">
 <g transform="translate(0, 0)">
  <path d="M8 1.5C4.41015 1.5 1.5 4.41015 1.5 8C1.5 11.5899 4.41015 14.5 8 14.5C11.5899 14.5 14.5 11.5899 14.5 8C14.5 4.41015 11.5899 1.5 8 1.5ZM0 8C0 3.58172 3.58172 0 8 0C12.4183 0 16 3.58172 16 8C16 12.4183 12.4183 16 8 16C3.58172 16 0 12.4183 0 8Z" fill-rule="EVENODD"></path>
  <path d="M0.25 7.75C0.25 7.33579 0.585786 7 1 7L15 7C15.4142 7 15.75 7.33579 15.75 7.75C15.75 8.16421 15.4142 8.5 15 8.5L1 8.5C0.585786 8.5 0.25 8.16421 0.25 7.75Z" fill-rule="EVENODD"></path>
  <path d="M7.47591 0.213505C7.76732 -0.0711682 8.23268 -0.0711682 8.52409 0.213505C10.6877 2.32713 11.9322 5.08646 11.9998 7.98249C12.0001 7.99416 12.0001 8.00584 11.9998 8.01751C11.9322 10.9135 10.6877 13.6729 8.52409 15.7865C8.23268 16.0712 7.76732 16.0712 7.47591 15.7865C5.31227 13.6729 4.06782 10.9135 4.0002 8.01751C3.99993 8.00584 3.99993 7.99416 4.0002 7.98249C4.06782 5.08646 5.31227 2.32713 7.47591 0.213505ZM5.50022 8C5.55671 10.2362 6.43201 12.4009 8 14.1644C9.56799 12.4009 10.4433 10.2362 10.4998 8C10.4433 5.76376 9.56799 3.59912 8 1.8356C6.43201 3.59912 5.55671 5.76376 5.50022 8Z" fill-rule="EVENODD"></path>
 </g>
</svg>