<svg viewBox="0 0 16 16" width="16" height="16" fill="currentColor" xmlns="http://www.w3.org/2000/svg">
 <g transform="translate(0, 2)">
  <path d="M1.25 0C0.559644 0 0 0.559643 0 1.25L0 9.75C0 10.4404 0.559644 11 1.25 11L5 11C5.89557 11 6.4747 11.2049 6.80871 11.4479C7.12555 11.6785 7.25 11.9583 7.25 12.25C7.25 12.6642 7.58579 13 8 13C8.02589 13 8.05147 12.9987 8.07668 12.9961C8.45487 12.9577 8.75 12.6383 8.75 12.25C8.75 11.9583 8.87445 11.6785 9.19129 11.4479C9.5253 11.2049 10.1044 11 11 11L14.75 11C15.4404 11 16 10.4404 16 9.75L16 1.25C16 0.559643 15.4404 0 14.75 0L11 0C9.84556 0 8.89432 0.353661 8.22775 1.00038C8.14661 1.0791 8.07072 1.16118 8 1.24626C7.92928 1.16118 7.85339 1.0791 7.77225 1.00038C7.10568 0.353661 6.15444 0 5 0L1.25 0ZM8.75 9.96659C9.36012 9.65826 10.1221 9.5 11 9.5L14.5 9.5L14.5 1.5L11 1.5C10.1544 1.5 9.60568 1.75345 9.27225 2.07695C8.93734 2.40189 8.75 2.8644 8.75 3.41667L8.75 9.96659ZM7.25 9.96659L7.25 3.41667C7.25 2.8644 7.06266 2.40189 6.72774 2.07695C6.39432 1.75345 5.84556 1.5 5 1.5L1.5 1.5L1.5 9.5L5 9.5C5.87793 9.5 6.63988 9.65826 7.25 9.96659Z" fill-rule="EVENODD"></path>
 </g>
</svg>