<svg viewBox="0 0 24 24" width="24" height="24" fill="currentColor" xmlns="http://www.w3.org/2000/svg">
 <g transform="translate(0.371337890625, 1.99658203125)">
  <path d="M19.1304 3.86162C15.3393 0.776033 10.0124 -1.7715 4.96283 1.59278C4.71035 1.761 4.58408 2.06477 4.64292 2.3624C4.70177 2.66004 4.93414 2.8929 5.23165 2.95238C6.52409 3.21077 7.54842 3.41827 8.54028 3.84C9.35511 4.18645 10.1662 4.68677 11.0611 5.51036L0.65901 15.9125C-0.219669 16.7911 -0.219671 18.2158 0.659009 19.0944L1.53769 19.9731C2.41637 20.8518 3.84099 20.8518 4.71967 19.9731L15.5833 9.10948C15.7961 9.43093 15.8238 9.64105 15.8309 9.76923C15.8345 9.83393 15.8331 9.89879 15.8294 9.97873L15.8273 10.0204C15.8238 10.0881 15.819 10.1814 15.8197 10.2656C15.8217 10.5084 15.8663 10.8516 16.1471 11.1637C16.6608 11.7345 17.226 12.2868 17.7549 12.8035C17.8792 12.9249 18.0014 13.0443 18.1205 13.1615C18.4155 13.452 18.8901 13.4484 19.1808 13.1536L23.329 8.94534C23.4687 8.80363 23.5463 8.6122 23.5448 8.41322C23.5433 8.21423 23.4628 8.02399 23.321 7.88438C22.5577 7.13288 22.0965 6.68853 21.4552 6.07064L21.2446 5.86772C20.9614 5.59474 20.6017 5.5512 20.4069 5.54089C20.1979 5.52983 19.9756 5.55116 19.8178 5.5663L19.8047 5.56756C19.7222 5.57546 19.6539 5.58183 19.596 5.58621C19.5924 5.51562 19.591 5.4302 19.5902 5.32298L19.59 5.29236C19.5889 5.13094 19.5873 4.90923 19.5571 4.7046C19.5267 4.49865 19.4485 4.15648 19.1691 3.89536C19.1566 3.88368 19.1437 3.87242 19.1304 3.86162ZM9.12722 2.4596C8.618 2.24308 8.10474 2.07674 7.58187 1.9368C11.179 0.658208 14.9226 2.40045 18.0751 4.93722C18.0871 5.02819 18.0888 5.1471 18.0903 5.33461L18.0904 5.34723C18.0916 5.5147 18.0934 5.74806 18.1287 5.96743C18.1637 6.18485 18.2495 6.51768 18.5219 6.77692C18.8092 7.05047 19.176 7.0841 19.3588 7.09117C19.5542 7.09873 19.7655 7.07832 19.9181 7.06358L19.9477 7.06072C20.1095 7.04522 20.217 7.03657 20.2971 7.03778L20.4145 7.15088C20.8896 7.60861 21.263 7.96846 21.733 8.42772L18.6373 11.5682C18.1835 11.1243 17.736 10.6818 17.3198 10.2241C17.3204 10.1975 17.3218 10.1679 17.324 10.1254L17.3277 10.0488C17.3322 9.9524 17.3365 9.8273 17.3286 9.6856C17.2933 9.05287 17.0289 8.34251 16.1588 7.47296C15.8659 7.18022 15.3912 7.1803 15.0983 7.47312L13.6287 8.94278L11.6893 7.00344L12.659 6.03378C12.9492 5.74358 12.9523 5.27402 12.6659 4.98006C11.433 3.71476 10.3041 2.96002 9.12722 2.4596ZM10.6287 8.06411L1.71967 16.9731C1.42678 17.266 1.42678 17.7409 1.71967 18.0338L2.59835 18.9125C2.89124 19.2054 3.36612 19.2054 3.65901 18.9125L12.568 10.0034L10.6287 8.06411ZM20.3692 7.04345C20.369 7.04363 20.3652 7.04312 20.3585 7.04142C20.3661 7.04242 20.3694 7.04327 20.3692 7.04345ZM19.3726 5.58794C19.3729 5.58771 19.3775 5.58822 19.3856 5.59016C19.3763 5.58914 19.3723 5.58817 19.3726 5.58794Z" fill-rule="EVENODD"></path>
 </g>
</svg>