<svg viewBox="0 0 24 24" width="24" height="24" fill="currentColor" xmlns="http://www.w3.org/2000/svg">
 <g transform="translate(1, 1)">
  <path d="M11.3487 6.53627C10.7372 6.43553 10.1098 6.54647 9.57911 6.84601C9.04897 7.14524 8.65327 7.61078 8.4542 8.15426C8.31174 8.5432 7.88095 8.74301 7.492 8.60054C7.10306 8.45808 6.90325 8.02729 7.04572 7.63835C7.37089 6.75058 8.00995 6.00925 8.84181 5.53973C9.6731 5.07052 10.647 4.90046 11.5926 5.05621C12.5383 5.212 13.4021 5.68509 14.028 6.3992C14.6545 7.11387 15.0013 8.02348 15 8.96759C14.9999 9.604 14.8726 10.1364 14.6311 10.5876C14.3907 11.0368 14.062 11.3586 13.7309 11.6093C13.4675 11.8087 13.1754 11.9813 12.9273 12.1278C12.8773 12.1574 12.829 12.1859 12.7831 12.2134C12.4885 12.3898 12.2573 12.5416 12.0714 12.7202C11.8863 12.8979 11.8074 13.0611 11.7726 13.1613C11.7547 13.213 11.7476 13.2507 11.7449 13.2683L11.744 13.2755C11.7305 13.6779 11.4001 14 10.9944 14C10.5802 14 10.2444 13.6642 10.2444 13.25C10.2445 13.0517 10.2908 12.8559 10.3555 12.6695C10.4601 12.3682 10.6599 11.996 11.0323 11.6383C11.3495 11.3337 11.7071 11.1093 12.0127 10.9264C12.0738 10.8898 12.1324 10.8551 12.1887 10.8217C12.4338 10.6765 12.6368 10.5562 12.8255 10.4133C13.0432 10.2486 13.2004 10.0819 13.3086 9.87974C13.4157 9.67966 13.5 9.39778 13.5 8.96706L13.5 8.96589C13.5008 8.39302 13.2908 7.83382 12.9 7.38793C12.5086 6.94133 11.9601 6.63697 11.3487 6.53627Z" fill-rule="EVENODD"></path>
  <path d="M11 15C10.4477 15 10 15.4477 10 16C10 16.5523 10.4477 17 11 17L11.01 17C11.5623 17 12.01 16.5523 12.01 16C12.01 15.4477 11.5623 15 11.01 15L11 15Z" fill-rule="NONZERO"></path>
  <path d="M0 11C0 4.92487 4.92487 0 11 0C17.0751 0 22 4.92487 22 11C22 17.0751 17.0751 22 11 22C4.92487 22 0 17.0751 0 11ZM11 1.5C5.75329 1.5 1.5 5.75329 1.5 11C1.5 16.2467 5.75329 20.5 11 20.5C16.2467 20.5 20.5 16.2467 20.5 11C20.5 5.75329 16.2467 1.5 11 1.5Z" fill-rule="EVENODD"></path>
 </g>
</svg>