<svg viewBox="0 0 24 24" width="24" height="24" fill="currentColor" xmlns="http://www.w3.org/2000/svg">
 <g transform="translate(2, 2)">
  <path d="M10 1.5C7.65258 1.5 5.52861 2.45057 3.98959 3.98959C3.67608 4.30311 3.38696 4.64095 3.12533 5L6.25 5C6.66421 5 7 5.33579 7 5.75C7 6.16421 6.66421 6.5 6.25 6.5L1.75 6.5C1.33579 6.5 1 6.16421 1 5.75L1 1.25C1 0.835786 1.33579 0.5 1.75 0.5C2.16421 0.5 2.5 0.835786 2.5 1.25L2.5 3.38545C2.63823 3.22883 2.78129 3.07658 2.92893 2.92893C4.73775 1.12011 7.23878 0 10 0C15.5228 0 20 4.47715 20 10C20 15.5228 15.5228 20 10 20C4.47715 20 0 15.5228 0 10C0 9.58579 0.335786 9.25 0.75 9.25C1.16421 9.25 1.5 9.58579 1.5 10C1.5 14.6944 5.30558 18.5 10 18.5C14.6944 18.5 18.5 14.6944 18.5 10C18.5 5.30558 14.6944 1.5 10 1.5Z" fill-rule="NONZERO"></path>
  <path d="M9.75 4C10.1642 4 10.5 4.33579 10.5 4.75L10.5 10.5365L14.5854 12.5792C14.9559 12.7644 15.1061 13.2149 14.9208 13.5854C14.7356 13.9559 14.2851 14.1061 13.9146 13.9208L9.41459 11.6708C9.1605 11.5438 9 11.2841 9 11L9 4.75C9 4.33579 9.33579 4 9.75 4Z" fill-rule="NONZERO"></path>
 </g>
</svg>