<svg viewBox="0 0 24 24" width="24" height="24" fill="currentColor" xmlns="http://www.w3.org/2000/svg">
 <g transform="translate(2, 1.2661826610565186)">
  <path d="M10.1533 1.55256C10.0631 1.48248 9.93688 1.48248 9.84665 1.55256L1.59665 7.9601C1.53567 8.00745 1.5 8.08033 1.5 8.15754L1.5 19.9838C1.5 20.398 1.16421 20.7338 0.75 20.7338C0.335786 20.7338 0 20.398 0 19.9838L0 8.15754C0 7.61708 0.249717 7.10695 0.676557 6.77543L8.92656 0.367893C9.55813 -0.122631 10.4419 -0.122631 11.0734 0.367893L19.3234 6.77543C19.7503 7.10695 20 7.61708 20 8.15754L20 19.9838C20 20.398 19.6642 20.7338 19.25 20.7338C18.8358 20.7338 18.5 20.398 18.5 19.9838L18.5 8.15754C18.5 8.08033 18.4643 8.00745 18.4033 7.9601L10.1533 1.55256Z" fill-rule="EVENODD"></path>
  <path d="M7.75 14.2338C7.61193 14.2338 7.5 14.3457 7.5 14.4838L7.5 19.9838C7.5 20.398 7.16421 20.7338 6.75 20.7338C6.33579 20.7338 6 20.398 6 19.9838L6 14.4838C6 13.5173 6.7835 12.7338 7.75 12.7338L12.25 12.7338C13.2165 12.7338 14 13.5173 14 14.4838L14 19.9838C14 20.398 13.6642 20.7338 13.25 20.7338C12.8358 20.7338 12.5 20.398 12.5 19.9838L12.5 14.4838C12.5 14.3457 12.3881 14.2338 12.25 14.2338L7.75 14.2338Z" fill-rule="EVENODD"></path>
 </g>
</svg>