<svg viewBox="0 0 16 16" width="16" height="16" fill="currentColor" xmlns="http://www.w3.org/2000/svg">
 <g transform="translate(0, 0)">
  <path d="M2.25 3.5C1.83579 3.5 1.5 3.83579 1.5 4.25L1.5 12.75C1.5 13.1642 1.83579 13.5 2.25 13.5L13.75 13.5C14.1642 13.5 14.5 13.1642 14.5 12.75L14.5 4.25C14.5 3.83579 14.1642 3.5 13.75 3.5L11.5 3.5C11.0858 3.5 10.75 3.16421 10.75 2.75C10.75 2.33579 11.0858 2 11.5 2L13.75 2C14.9926 2 16 3.00736 16 4.25L16 12.75C16 13.9926 14.9926 15 13.75 15L2.25 15C1.00736 15 0 13.9926 0 12.75L0 4.25C0 3.00736 1.00736 2 2.25 2L4.5 2C4.91421 2 5.25 2.33579 5.25 2.75C5.25 3.16421 4.91421 3.5 4.5 3.5L2.25 3.5Z" fill-rule="EVENODD"></path>
  <path d="M4 1.25C4 0.559644 4.55964 0 5.25 0L10.75 0C11.4404 0 12 0.559644 12 1.25L12 2.75C12 3.44036 11.4404 4 10.75 4L5.25 4C4.55964 4 4 3.44036 4 2.75L4 1.25ZM5.5 1.5L5.5 2.5L10.5 2.5L10.5 1.5L5.5 1.5Z" fill-rule="EVENODD"></path>
  <path d="M5.18658 10.482C5.59146 10.1607 6.11043 10 6.625 10L9.375 10C9.88957 10 10.4085 10.1607 10.8134 10.482C11.2227 10.8067 11.5 11.2892 11.5 11.8409L11.5 12.25C11.5 12.6642 11.1642 13 10.75 13C10.3358 13 10 12.6642 10 12.25L10 11.8409C10 11.8139 9.9876 11.7415 9.88112 11.6571C9.77028 11.5691 9.58978 11.5 9.375 11.5L6.625 11.5C6.41022 11.5 6.22972 11.5691 6.11888 11.6571C6.0124 11.7415 6 11.8139 6 11.8409L6 12.25C6 12.6642 5.66421 13 5.25 13C4.83579 13 4.5 12.6642 4.5 12.25L4.5 11.8409C4.5 11.2892 4.77733 10.8067 5.18658 10.482Z" fill-rule="EVENODD"></path>
  <path d="M8 6C7.44772 6 7 6.44772 7 7C7 7.55228 7.44772 8 8 8C8.55228 8 9 7.55228 9 7C9 6.44772 8.55228 6 8 6ZM5.5 7C5.5 5.61929 6.61929 4.5 8 4.5C9.38071 4.5 10.5 5.61929 10.5 7C10.5 8.38071 9.38071 9.5 8 9.5C6.61929 9.5 5.5 8.38071 5.5 7Z" fill-rule="EVENODD"></path>
 </g>
</svg>