<svg viewBox="0 0 24 24" width="24" height="24" fill="currentColor" xmlns="http://www.w3.org/2000/svg">
 <g transform="translate(1, 1)">
  <path d="M2.75 3.5C2.05964 3.5 1.5 4.05964 1.5 4.75L1.5 17.25C1.5 17.9404 2.05964 18.5 2.75 18.5L19.25 18.5C19.9404 18.5 20.5 17.9404 20.5 17.25L20.5 4.75C20.5 4.05964 19.9404 3.5 19.25 3.5L15.25 3.5C14.8358 3.5 14.5 3.16421 14.5 2.75C14.5 2.33579 14.8358 2 15.25 2L19.25 2C20.7688 2 22 3.23122 22 4.75L22 17.25C22 18.7688 20.7688 20 19.25 20L2.75 20C1.23122 20 0 18.7688 0 17.25L0 4.75C0 3.23122 1.23122 2 2.75 2L6.75 2C7.16421 2 7.5 2.33579 7.5 2.75C7.5 3.16421 7.16421 3.5 6.75 3.5L2.75 3.5Z" fill-rule="EVENODD"></path>
  <path d="M6 1.75C6 0.783502 6.7835 0 7.75 0L14.25 0C15.2165 0 16 0.783502 16 1.75L16 3.75C16 4.7165 15.2165 5.5 14.25 5.5L7.75 5.5C6.7835 5.5 6 4.7165 6 3.75L6 1.75ZM7.75 1.5C7.61193 1.5 7.5 1.61193 7.5 1.75L7.5 3.75C7.5 3.88807 7.61193 4 7.75 4L14.25 4C14.3881 4 14.5 3.88807 14.5 3.75L14.5 1.75C14.5 1.61193 14.3881 1.5 14.25 1.5L7.75 1.5Z" fill-rule="EVENODD"></path>
  <path d="M11 7.75C8.65279 7.75 6.75 9.65279 6.75 12C6.75 14.3472 8.65279 16.25 11 16.25C13.3472 16.25 15.25 14.3472 15.25 12C15.25 9.65279 13.3472 7.75 11 7.75ZM5.25 12C5.25 8.82436 7.82436 6.25 11 6.25C14.1756 6.25 16.75 8.82436 16.75 12C16.75 15.1756 14.1756 17.75 11 17.75C7.82436 17.75 5.25 15.1756 5.25 12Z" fill-rule="EVENODD"></path>
  <path d="M5.42188 11.75C5.42188 11.3358 5.75766 11 6.17188 11L15.7969 11C16.2111 11 16.5469 11.3358 16.5469 11.75C16.5469 12.1642 16.2111 12.5 15.7969 12.5L6.17188 12.5C5.75766 12.5 5.42188 12.1642 5.42188 11.75Z" fill-rule="EVENODD"></path>
  <path d="M9.75018 12C9.78182 13.37 10.2203 14.6926 11 15.8038C11.7797 14.6926 12.2182 13.37 12.2498 12C12.2182 10.63 11.7797 9.30742 11 8.1962C10.2203 9.30742 9.78182 10.63 9.75018 12ZM11 7L10.4462 6.49418C9.07299 7.99759 8.29257 9.94863 8.25016 11.9844C8.24995 11.9948 8.24995 12.0052 8.25016 12.0156C8.29257 14.0514 9.07299 16.0024 10.4462 17.5058C10.5883 17.6614 10.7893 17.75 11 17.75C11.2107 17.75 11.4117 17.6614 11.5538 17.5058C12.927 16.0024 13.7074 14.0514 13.7498 12.0156C13.7501 12.0052 13.7501 11.9948 13.7498 11.9844C13.7074 9.94863 12.927 7.99759 11.5538 6.49418L11 7Z" fill-rule="EVENODD"></path>
 </g>
</svg>