<svg viewBox="0 0 24 24" width="24" height="24" fill="currentColor" xmlns="http://www.w3.org/2000/svg">
 <g transform="translate(1, 1)">
  <path d="M2.75 3.5C2.05964 3.5 1.5 4.05964 1.5 4.75L1.5 17.25C1.5 17.9404 2.05964 18.5 2.75 18.5L19.25 18.5C19.9404 18.5 20.5 17.9404 20.5 17.25L20.5 4.75C20.5 4.05964 19.9404 3.5 19.25 3.5L15.25 3.5C14.8358 3.5 14.5 3.16421 14.5 2.75C14.5 2.33579 14.8358 2 15.25 2L19.25 2C20.7688 2 22 3.23122 22 4.75L22 17.25C22 18.7688 20.7688 20 19.25 20L2.75 20C1.23122 20 0 18.7688 0 17.25L0 4.75C0 3.23122 1.23122 2 2.75 2L6.75 2C7.16421 2 7.5 2.33579 7.5 2.75C7.5 3.16421 7.16421 3.5 6.75 3.5L2.75 3.5Z" fill-rule="EVENODD"></path>
  <path d="M6 1.75C6 0.783502 6.7835 0 7.75 0L14.25 0C15.2165 0 16 0.783502 16 1.75L16 3.75C16 4.7165 15.2165 5.5 14.25 5.5L7.75 5.5C6.7835 5.5 6 4.7165 6 3.75L6 1.75ZM7.75 1.5C7.61193 1.5 7.5 1.61193 7.5 1.75L7.5 3.75C7.5 3.88807 7.61193 4 7.75 4L14.25 4C14.3881 4 14.5 3.88807 14.5 3.75L14.5 1.75C14.5 1.61193 14.3881 1.5 14.25 1.5L7.75 1.5Z" fill-rule="EVENODD"></path>
  <path d="M6.85837 13.7896C7.40054 13.2794 8.12668 13 8.875 13L13.125 13C13.8733 13 14.5995 13.2794 15.1416 13.7896C15.6853 14.3014 16 15.0055 16 15.75L16 16.25C16 16.6642 15.6642 17 15.25 17C14.8358 17 14.5 16.6642 14.5 16.25L14.5 15.75C14.5 15.4337 14.3669 15.1204 14.1136 14.8819C13.8587 14.6421 13.5038 14.5 13.125 14.5L8.875 14.5C8.49615 14.5 8.14128 14.6421 7.88642 14.8819C7.6331 15.1204 7.5 15.4337 7.5 15.75L7.5 16.25C7.5 16.6642 7.16421 17 6.75 17C6.33579 17 6 16.6642 6 16.25L6 15.75C6 15.0055 6.31466 14.3014 6.85837 13.7896Z" fill-rule="EVENODD"></path>
  <path d="M11 8C10.1716 8 9.5 8.67157 9.5 9.5C9.5 10.3284 10.1716 11 11 11C11.8284 11 12.5 10.3284 12.5 9.5C12.5 8.67157 11.8284 8 11 8ZM8 9.5C8 7.84315 9.34315 6.5 11 6.5C12.6569 6.5 14 7.84315 14 9.5C14 11.1569 12.6569 12.5 11 12.5C9.34315 12.5 8 11.1569 8 9.5Z" fill-rule="EVENODD"></path>
 </g>
</svg>