<svg viewBox="0 0 16 16" width="16" height="16" fill="currentColor" xmlns="http://www.w3.org/2000/svg">
 <g transform="translate(0, 0)">
  <path d="M5.5 3C4.11929 3 3 4.11929 3 5.5C3 6.88071 4.11929 8 5.5 8C6.88071 8 8 6.88071 8 5.5C8 4.11929 6.88071 3 5.5 3ZM4.5 5.5C4.5 4.94772 4.94772 4.5 5.5 4.5C6.05228 4.5 6.5 4.94772 6.5 5.5C6.5 6.05228 6.05228 6.5 5.5 6.5C4.94772 6.5 4.5 6.05228 4.5 5.5Z" fill-rule="EVENODD"></path>
  <path d="M0 2.25C0 1.00736 1.00736 0 2.25 0L13.75 0C14.9926 0 16 1.00736 16 2.25L16 13.75C16 14.9926 14.9926 16 13.75 16L2.25 16C1.00736 16 0 14.9926 0 13.75L0 2.25ZM14.5 2.25L14.5 8.18923L12.6651 6.35437C12.0332 5.72243 11.0266 5.66818 10.3304 6.22854L1.5 13.336L1.5 2.25C1.5 1.83579 1.83579 1.5 2.25 1.5L13.75 1.5C14.1642 1.5 14.5 1.83579 14.5 2.25ZM13.75 14.5L2.44608 14.5L11.2709 7.39706C11.3704 7.31701 11.5142 7.32476 11.6045 7.41503L14.5 10.3106L14.5 13.75C14.5 14.1642 14.1642 14.5 13.75 14.5Z" fill-rule="EVENODD"></path>
 </g>
</svg>