<svg viewBox="0 0 16 16" width="16" height="16" fill="currentColor" xmlns="http://www.w3.org/2000/svg">
 <g transform="translate(1, 2)">
  <path d="M0 7.75C-6.76354e-17 7.33579 0.335786 7 0.75 7L4.25 7C4.66421 7 5 7.33579 5 7.75C5 8.16421 4.66421 8.5 4.25 8.5L0.75 8.5C0.335786 8.5 6.76354e-17 8.16421 0 7.75Z" fill-rule="EVENODD"></path>
  <path d="M0 11.25C-6.76354e-17 10.8358 0.335786 10.5 0.75 10.5L13.25 10.5C13.6642 10.5 14 10.8358 14 11.25C14 11.6642 13.6642 12 13.25 12L0.75 12C0.335786 12 6.76354e-17 11.6642 0 11.25Z" fill-rule="EVENODD"></path>
  <path d="M0 4.25C-6.76354e-17 3.83579 0.335786 3.5 0.75 3.5L4.25 3.5C4.66421 3.5 5 3.83579 5 4.25C5 4.66421 4.66421 5 4.25 5L0.75 5C0.335786 5 6.76354e-17 4.66421 0 4.25Z" fill-rule="EVENODD"></path>
  <path d="M0 0.75C-6.76354e-17 0.335786 0.335786 1.5218e-16 0.75 0L2.25 0C2.66421 -1.5218e-16 3 0.335786 3 0.75C3 1.16421 2.66421 1.5 2.25 1.5L0.75 1.5C0.335786 1.5 6.76354e-17 1.16421 0 0.75Z" fill-rule="EVENODD"></path>
  <path d="M6.48966 4.2004C6.79319 3.91855 7.26774 3.93613 7.54959 4.23966L10.25 7.14779L12.9504 4.23966C13.2323 3.93613 13.7068 3.91855 14.0103 4.2004C14.3139 4.48226 14.3314 4.95681 14.0496 5.26034L10.7996 8.76034C10.6577 8.91316 10.4586 9 10.25 9C10.0414 9 9.84231 8.91316 9.70041 8.76034L6.4504 5.26034C6.16855 4.95681 6.18613 4.48226 6.48966 4.2004Z" fill-rule="EVENODD"></path>
  <path d="M5.5 0.75C5.5 0.335786 5.83579 0 6.25 0L7.46739 0C8.40581 0 9.30484 0.375159 9.96697 1.04143C10.6289 1.70753 11 2.60998 11 3.55L11 8C11 8.41421 10.6642 8.75 10.25 8.75C9.83579 8.75 9.5 8.41421 9.5 8L9.5 3.55C9.5 3.0048 9.28472 2.48287 8.90301 2.09878C8.52146 1.71484 8.00496 1.5 7.46739 1.5L6.25 1.5C5.83579 1.5 5.5 1.16421 5.5 0.75Z" fill-rule="EVENODD"></path>
 </g>
</svg>