<svg viewBox="0 0 24 24" width="24" height="24" fill="black" xmlns="http://www.w3.org/2000/svg">
 <g transform="translate(1.2498779296875, 1.25)">
  <path d="M10.4147 0.0791796C10.6259 -0.0263932 10.8744 -0.0263932 11.0855 0.0791796L21.0855 5.07918C21.3396 5.20622 21.5001 5.46592 21.5001 5.75C21.5001 6.03408 21.3396 6.29378 21.0855 6.42082L11.0855 11.4208C10.8744 11.5264 10.6259 11.5264 10.4147 11.4208L0.414712 6.42082C0.160624 6.29378 0.000122071 6.03408 0.000122071 5.75C0.000122071 5.46592 0.160624 5.20622 0.414712 5.07918L10.4147 0.0791796ZM2.42717 5.75L10.7501 9.91147L19.0731 5.75L10.7501 1.58853L2.42717 5.75Z" fill-rule="EVENODD"></path>
  <path d="M0.0793439 15.4145C0.264586 15.044 0.715091 14.8939 1.08557 15.0791L10.7502 19.9114L20.4148 15.0791C20.7852 14.8939 21.2357 15.044 21.421 15.4145C21.6062 15.785 21.4561 16.2355 21.0856 16.4207L11.0856 21.4207C10.8744 21.5263 10.6259 21.5263 10.4148 21.4207L0.414754 16.4207C0.0442702 16.2355 -0.105898 15.785 0.0793439 15.4145Z" fill-rule="NONZERO"></path>
  <path d="M1.08557 10.0791C0.715091 9.89386 0.264586 10.044 0.0793439 10.4145C-0.105898 10.785 0.0442702 11.2355 0.414754 11.4207L10.4148 16.4207C10.6259 16.5263 10.8744 16.5263 11.0856 16.4207L21.0856 11.4207C21.4561 11.2355 21.6062 10.785 21.421 10.4145C21.2357 10.044 20.7852 9.89386 20.4148 10.0791L10.7502 14.9114L1.08557 10.0791Z" fill-rule="NONZERO"></path>
 </g>
</svg>