<svg viewBox="0 0 24 24" width="24" height="24" fill="black" xmlns="http://www.w3.org/2000/svg">
 <g transform="translate(2.25, 2.25)">
  <path d="M2.75 19.5C1.23122 19.5 0 18.2688 0 16.75L0 2.75C0 1.23122 1.23122 0 2.75 0L16.75 0C18.2688 0 19.5 1.23122 19.5 2.75L19.5 16.75C19.5 18.2688 18.2688 19.5 16.75 19.5L2.75 19.5ZM2.75 1.5C2.05964 1.5 1.5 2.05964 1.5 2.75L1.5 6L18 6L18 2.75C18 2.05964 17.4404 1.5 16.75 1.5L2.75 1.5ZM6 7.5L1.5 7.5L1.5 16.75C1.5 17.4404 2.05964 18 2.75 18L6 18L6 7.5ZM7.5 18L7.5 7.5L18 7.5L18 16.75C18 17.4404 17.4404 18 16.75 18L7.5 18Z" fill-rule="EVENODD"></path>
 </g>
</svg>