<svg viewBox="0 0 16 16" width="16" height="16" fill="currentColor" xmlns="http://www.w3.org/2000/svg">
 <g transform="translate(0.25, 2)">
  <path d="M8.06583 0.0697433C7.86555 -0.0232478 7.63446 -0.0232478 7.43417 0.0697433L0.434167 3.31974C0.169389 3.44268 0 3.70808 0 4C0 4.29192 0.169389 4.55732 0.434167 4.68026L1.86802 5.34597C1.79331 5.46258 1.75 5.60123 1.75 5.75L1.75 9C1.75 9.16678 1.80559 9.32881 1.90799 9.46046L2.5 9C1.90799 9.46046 1.90774 9.46014 1.90799 9.46046L1.909 9.46176L1.91019 9.46327L1.91306 9.46692L1.92081 9.47663C1.92688 9.48417 1.93474 9.49381 1.9444 9.50541C1.96373 9.5286 1.99029 9.55965 2.02417 9.59742C2.09189 9.67294 2.18904 9.77554 2.31622 9.89603C2.57036 10.1368 2.94611 10.4506 3.44823 10.7622C4.45649 11.388 5.96674 12 8 12C10.0367 12 11.4393 11.3854 12.3445 10.7337C12.7929 10.4108 13.1116 10.0844 13.3223 9.8317C13.4276 9.70529 13.5062 9.59696 13.5607 9.51612C13.588 9.47567 13.6093 9.44203 13.625 9.41636C13.6329 9.40351 13.6393 9.39266 13.6444 9.38392L13.651 9.37243L13.6536 9.36792L13.6547 9.36597L13.6551 9.36507C13.6554 9.36465 13.6556 9.36423 13 9L13.6551 9.36507C13.717 9.25366 13.75 9.12746 13.75 9L13.75 5.75C13.75 5.60123 13.7067 5.46258 13.632 5.34597L15.0658 4.68026C15.3306 4.55732 15.5 4.29192 15.5 4C15.5 3.70808 15.3306 3.44268 15.0658 3.31974L8.06583 0.0697433ZM12.25 5.98761L8.06583 7.93026C7.86555 8.02325 7.63446 8.02325 7.43417 7.93026L3.25 5.98761L3.25 8.71142C3.27874 8.74047 3.31135 8.77252 3.34784 8.8071C3.53901 8.98821 3.83514 9.23693 4.23927 9.48777C5.04352 9.98696 6.28326 10.5 8 10.5C9.71325 10.5 10.8107 9.98959 11.468 9.51635C11.8008 9.27671 12.029 9.04056 12.1699 8.87142C12.2008 8.83438 12.2274 8.80062 12.25 8.77083L12.25 5.98761ZM7.75 6.42311L2.531 4L7.75 1.57689L12.969 4L7.75 6.42311Z" fill-rule="EVENODD"></path>
 </g>
</svg>