<svg viewBox="0 0 16 16" width="16" height="16" fill="currentColor" xmlns="http://www.w3.org/2000/svg">
 <g transform="translate(3, 3)">
  <path d="M0 0.75C0 0.335786 0.335786 0 0.75 0L9.25 0C9.66421 0 10 0.335786 10 0.75C10 1.16421 9.66421 1.5 9.25 1.5L0.75 1.5C0.335786 1.5 0 1.16421 0 0.75Z" fill-rule="EVENODD"></path>
  <path d="M0 4.75C0 4.33579 0.335786 4 0.75 4L9.25 4C9.66421 4 10 4.33579 10 4.75C10 5.16421 9.66421 5.5 9.25 5.5L0.75 5.5C0.335786 5.5 0 5.16421 0 4.75Z" fill-rule="EVENODD"></path>
  <path d="M0 8.75C0 8.33579 0.335786 8 0.75 8L9.25 8C9.66421 8 10 8.33579 10 8.75C10 9.16421 9.66421 9.5 9.25 9.5L0.75 9.5C0.335786 9.5 0 9.16421 0 8.75Z" fill-rule="EVENODD"></path>
 </g>
</svg>