<svg viewBox="0 0 24 24" width="24" height="24" fill="currentColor" xmlns="http://www.w3.org/2000/svg">
 <g transform="translate(1, 0.14689573645591736)">
  <path d="M0.35688 6.46723C0.569991 6.11205 1.03069 5.99687 1.38587 6.20998L10.9899 11.9724L20.0995 6.21899C20.4497 5.9978 20.9129 6.1024 21.1341 6.45261C21.3553 6.80282 21.2507 7.26603 20.9005 7.48722L11.4005 13.4872C11.1611 13.6384 10.8569 13.6419 10.6141 13.4962L0.614128 7.49622C0.258943 7.28311 0.143769 6.82242 0.35688 6.46723Z" fill-rule="EVENODD"></path>
  <path d="M8.53033 11.3834L1.53033 18.3834L0.46967 17.3228L7.46967 10.3228L8.53033 11.3834ZM20.4697 18.3834L13.4697 11.3834L14.5303 10.3228L21.5303 17.3228L20.4697 18.3834Z" fill-rule="EVENODD"></path>
  <path d="M11.4544 1.58553C11.1622 1.47149 10.8378 1.47149 10.5456 1.58553L2.29557 4.80504C1.81583 4.99226 1.5 5.45453 1.5 5.96951L1.5 18.1031C1.5 18.7935 2.05964 19.3531 2.75 19.3531L19.25 19.3531C19.9404 19.3531 20.5 18.7935 20.5 18.1031L20.5 5.96951C20.5 5.45453 20.1842 4.99226 19.7044 4.80504L11.4544 1.58553ZM10.0003 0.188162C10.6431 -0.0627204 11.3569 -0.0627206 11.9997 0.188162L20.2497 3.40767C21.3052 3.81955 22 4.83656 22 5.96951L22 18.1031C22 19.6219 20.7688 20.8531 19.25 20.8531L2.75 20.8531C1.23122 20.8531 0 19.6219 0 18.1031L0 5.96951C0 4.83656 0.694822 3.81955 1.75026 3.40767L10.0003 0.188162Z" fill-rule="EVENODD"></path>
 </g>
</svg>