<svg viewBox="0 0 16 16" width="16" height="16" fill="currentColor" xmlns="http://www.w3.org/2000/svg">
 <g transform="translate(0, 0.10569757223129272)">
  <path d="M0.3897 3.95837C0.630457 3.62131 1.09887 3.54325 1.43593 3.784L8 8.47262L14.5641 3.784C14.9011 3.54325 15.3695 3.62131 15.6103 3.95837C15.8511 4.29543 15.773 4.76385 15.4359 5.0046L8.43593 10.0046C8.17516 10.1909 7.82484 10.1909 7.56407 10.0046L0.564071 5.0046C0.227012 4.76385 0.148943 4.29543 0.3897 3.95837Z" fill-rule="EVENODD"></path>
  <path d="M6.55747 8.89603L2.05747 13.896L0.942529 12.8926L5.44253 7.89258L6.55747 8.89603ZM13.9425 13.896L9.44253 8.89603L10.5575 7.89258L15.0575 12.8926L13.9425 13.896Z" fill-rule="EVENODD"></path>
  <path d="M8.26761 1.54937C8.09528 1.48354 7.90472 1.48354 7.73239 1.54937L1.98239 3.74566C1.69189 3.85661 1.5 4.13532 1.5 4.44629L1.5 12.6443C1.5 13.0585 1.83579 13.3943 2.25 13.3943L13.75 13.3943C14.1642 13.3943 14.5 13.0585 14.5 12.6443L14.5 4.44629C14.5 4.13532 14.3081 3.85661 14.0176 3.74566L8.26761 1.54937ZM7.19716 0.14811C7.71417 -0.0493702 8.28583 -0.0493698 8.80284 0.14811L14.5528 2.3444C15.4243 2.67727 16 3.5134 16 4.44629L16 12.6443C16 13.8869 14.9926 14.8943 13.75 14.8943L2.25 14.8943C1.00736 14.8943 0 13.8869 0 12.6443L0 4.44629C0 3.5134 0.575677 2.67727 1.44716 2.3444L7.19716 0.14811Z" fill-rule="EVENODD"></path>
 </g>
</svg>