<svg viewBox="0 0 16 16" width="16" height="16" fill="currentColor" xmlns="http://www.w3.org/2000/svg">
 <g transform="translate(0, 1.0548460483551025)">
  <path d="M5.19932 0.131966C5.53942 -0.0380839 5.93844 -0.0440834 6.2835 0.115666L10.2659 1.95937L14.2692 0.291308C15.0926 -0.0517585 16 0.553181 16 1.44515L16 10.3861C16 10.8596 15.7325 11.2924 15.309 11.5042L10.8007 13.7583C10.4606 13.9284 10.0616 13.9344 9.7165 13.7746L5.73411 11.9309L1.73077 13.599C0.90741 13.9421 0 13.3371 0 12.4452L0 3.50417C0 3.03071 0.267504 2.59788 0.690983 2.38614L5.19932 0.131966ZM5.76251 1.52742L1.5 3.65868L1.5 12.0702L5.25864 10.5041C5.58188 10.3694 5.94679 10.3764 6.26456 10.5236L10.2375 12.3629L14.5 10.2316L14.5 1.82015L10.7414 3.38625C10.4181 3.52094 10.0532 3.51386 9.73544 3.36674L5.76251 1.52742Z" fill-rule="EVENODD"></path>
  <path d="M5.75 0.445154C6.16421 0.445154 6.5 0.78094 6.5 1.19515L6.5 10.6952C6.5 11.1094 6.16421 11.4452 5.75 11.4452C5.33579 11.4452 5 11.1094 5 10.6952L5 1.19515C5 0.78094 5.33579 0.445154 5.75 0.445154Z" fill-rule="EVENODD"></path>
  <path d="M10.25 2.44515C10.6642 2.44515 11 2.78094 11 3.19515L11 12.6952C11 13.1094 10.6642 13.4452 10.25 13.4452C9.83579 13.4452 9.5 13.1094 9.5 12.6952L9.5 3.19515C9.5 2.78094 9.83579 2.44515 10.25 2.44515Z" fill-rule="EVENODD"></path>
 </g>
</svg>