<svg viewBox="0 0 24 24" width="24" height="24" fill="currentColor" xmlns="http://www.w3.org/2000/svg">
 <g transform="translate(2, 2)">
  <path d="M0 2.75C0 1.23122 1.23122 0 2.75 0L6 0C6.41421 0 6.75 0.335786 6.75 0.75C6.75 1.16421 6.41421 1.5 6 1.5L2.75 1.5C2.05964 1.5 1.5 2.05964 1.5 2.75L1.5 6C1.5 6.41421 1.16421 6.75 0.75 6.75C0.335786 6.75 0 6.41421 0 6L0 2.75ZM13.25 0.75C13.25 0.335786 13.5858 0 14 0L17.25 0C18.7688 0 20 1.23122 20 2.75L20 6C20 6.41421 19.6642 6.75 19.25 6.75C18.8358 6.75 18.5 6.41421 18.5 6L18.5 2.75C18.5 2.05964 17.9404 1.5 17.25 1.5L14 1.5C13.5858 1.5 13.25 1.16421 13.25 0.75ZM0.75 13.25C1.16421 13.25 1.5 13.5858 1.5 14L1.5 17.25C1.5 17.9404 2.05964 18.5 2.75 18.5L6 18.5C6.41421 18.5 6.75 18.8358 6.75 19.25C6.75 19.6642 6.41421 20 6 20L2.75 20C1.23122 20 0 18.7688 0 17.25L0 14C0 13.5858 0.335786 13.25 0.75 13.25ZM19.25 13.25C19.6642 13.25 20 13.5858 20 14L20 17.25C20 18.7688 18.7688 20 17.25 20L14 20C13.5858 20 13.25 19.6642 13.25 19.25C13.25 18.8358 13.5858 18.5 14 18.5L17.25 18.5C17.9404 18.5 18.5 17.9404 18.5 17.25L18.5 14C18.5 13.5858 18.8358 13.25 19.25 13.25Z" fill-rule="EVENODD"></path>
 </g>
</svg>