<svg viewBox="0 0 24 24" width="24" height="24" fill="currentColor" xmlns="http://www.w3.org/2000/svg">
 <g transform="translate(2, 2)">
  <path d="M13 0.75C13 0.335786 13.3358 0 13.75 0L19.25 0C19.6642 0 20 0.335786 20 0.75L20 6.25C20 6.66421 19.6642 7 19.25 7C18.8358 7 18.5 6.66421 18.5 6.25L18.5 1.5L13.75 1.5C13.3358 1.5 13 1.16421 13 0.75Z" fill-rule="EVENODD"></path>
  <path d="M0.75 13C1.16421 13 1.5 13.3358 1.5 13.75L1.5 18.5L6.25 18.5C6.66421 18.5 7 18.8358 7 19.25C7 19.6642 6.66421 20 6.25 20L0.75 20C0.335786 20 0 19.6642 0 19.25L0 13.75C0 13.3358 0.335786 13 0.75 13Z" fill-rule="EVENODD"></path>
  <path d="M19.7803 0.21967C20.0732 0.512563 20.0732 0.987437 19.7803 1.28033L13.2803 7.78033C12.9874 8.07322 12.5126 8.07322 12.2197 7.78033C11.9268 7.48744 11.9268 7.01256 12.2197 6.71967L18.7197 0.21967C19.0126 -0.0732233 19.4874 -0.0732233 19.7803 0.21967Z" fill-rule="EVENODD"></path>
  <path d="M7.78033 12.2197C8.07322 12.5126 8.07322 12.9874 7.78033 13.2803L1.28033 19.7803C0.987437 20.0732 0.512563 20.0732 0.21967 19.7803C-0.0732233 19.4874 -0.0732233 19.0126 0.21967 18.7197L6.71967 12.2197C7.01256 11.9268 7.48744 11.9268 7.78033 12.2197Z" fill-rule="EVENODD"></path>
 </g>
</svg>