<svg viewBox="0 0 16 16" width="16" height="16" fill="black" xmlns="http://www.w3.org/2000/svg">
 <g transform="translate(0.25, 0.25)">
  <path d="M5.25 9.05005C4.8634 9.05005 4.55 9.36345 4.55 9.75005C4.55 10.1366 4.8634 10.45 5.25 10.45L10.25 10.45C10.6366 10.45 10.95 10.1366 10.95 9.75005C10.95 9.36345 10.6366 9.05005 10.25 9.05005L5.25 9.05005Z" fill-rule="NONZERO"></path>
  <path d="M5 5.75C5 5.33579 5.33579 5 5.75 5L5.75667 5C6.17088 5 6.50667 5.33579 6.50667 5.75C6.50667 6.16421 6.17088 6.5 5.75667 6.5L5.75 6.5C5.33579 6.5 5 6.16421 5 5.75Z" fill-rule="NONZERO"></path>
  <path d="M9.75 5C9.33579 5 9 5.33579 9 5.75C9 6.16421 9.33579 6.5 9.75 6.5L9.75667 6.5C10.1709 6.5 10.5067 6.16421 10.5067 5.75C10.5067 5.33579 10.1709 5 9.75667 5L9.75 5Z" fill-rule="NONZERO"></path>
  <path d="M7.75 0C3.46979 0 0 3.46979 0 7.75C0 12.0302 3.46979 15.5 7.75 15.5C12.0302 15.5 15.5 12.0302 15.5 7.75C15.5 3.46979 12.0302 0 7.75 0ZM1.5 7.75C1.5 4.29822 4.29822 1.5 7.75 1.5C11.2018 1.5 14 4.29822 14 7.75C14 11.2018 11.2018 14 7.75 14C4.29822 14 1.5 11.2018 1.5 7.75Z" fill-rule="EVENODD"></path>
 </g>
</svg>