<svg viewBox="0 0 16 16" width="16" height="16" fill="currentColor" xmlns="http://www.w3.org/2000/svg">
 <g transform="translate(0, 0)">
  <path d="M8 1.5C4.41015 1.5 1.5 4.41015 1.5 8C1.5 11.5899 4.41015 14.5 8 14.5C11.5899 14.5 14.5 11.5899 14.5 8C14.5 4.41015 11.5899 1.5 8 1.5ZM0 8C0 3.58172 3.58172 0 8 0C12.4183 0 16 3.58172 16 8C16 12.4183 12.4183 16 8 16C3.58172 16 0 12.4183 0 8Z" fill-rule="EVENODD"></path>
  <path d="M4.75 10.25C4.75 9.83579 5.08579 9.5 5.5 9.5L10.5 9.5C10.9142 9.5 11.25 9.83579 11.25 10.25C11.25 10.6642 10.9142 11 10.5 11L5.5 11C5.08579 11 4.75 10.6642 4.75 10.25Z" fill-rule="EVENODD"></path>
  <path d="M5 6C5 5.44772 5.44772 5 6 5L6.00667 5C6.55895 5 7.00667 5.44772 7.00667 6C7.00667 6.55228 6.55895 7 6.00667 7L6 7C5.44772 7 5 6.55228 5 6Z" fill-rule="EVENODD"></path>
  <path d="M9 6C9 5.44772 9.44771 5 10 5L10.0067 5C10.559 5 11.0067 5.44772 11.0067 6C11.0067 6.55228 10.559 7 10.0067 7L10 7C9.44771 7 9 6.55228 9 6Z" fill-rule="EVENODD"></path>
 </g>
</svg>