<svg viewBox="0 0 16 16" width="16" height="16" fill="black" xmlns="http://www.w3.org/2000/svg">
 <g transform="translate(1.25, 3.25)">
  <path d="M0 0.75C0 0.335786 0.335786 0 0.75 0L12.75 0C13.1642 0 13.5 0.335786 13.5 0.75C13.5 1.16421 13.1642 1.5 12.75 1.5L0.75 1.5C0.335786 1.5 0 1.16421 0 0.75Z" fill-rule="NONZERO"></path>
  <path d="M0 4.75C0 4.33579 0.335786 4 0.75 4L12.75 4C13.1642 4 13.5 4.33579 13.5 4.75C13.5 5.16421 13.1642 5.5 12.75 5.5L0.75 5.5C0.335786 5.5 0 5.16421 0 4.75Z" fill-rule="NONZERO"></path>
  <path d="M0.75 8C0.335786 8 0 8.33579 0 8.75C0 9.16421 0.335786 9.5 0.75 9.5L12.75 9.5C13.1642 9.5 13.5 9.16421 13.5 8.75C13.5 8.33579 13.1642 8 12.75 8L0.75 8Z" fill-rule="NONZERO"></path>
 </g>
</svg>