<svg viewBox="0 0 16 16" width="16" height="16" fill="currentColor" xmlns="http://www.w3.org/2000/svg">
 <g transform="translate(1, 3)">
  <path d="M0 0.75C0 0.335786 0.335786 0 0.75 0L13.25 0C13.6642 0 14 0.335786 14 0.75C14 1.16421 13.6642 1.5 13.25 1.5L0.75 1.5C0.335786 1.5 0 1.16421 0 0.75Z" fill-rule="NONZERO"></path>
  <path d="M0 4.75C0 4.33579 0.335786 4 0.75 4L13.25 4C13.6642 4 14 4.33579 14 4.75C14 5.16421 13.6642 5.5 13.25 5.5L0.75 5.5C0.335786 5.5 0 5.16421 0 4.75Z" fill-rule="NONZERO"></path>
  <path d="M0.75 8C0.335786 8 0 8.33579 0 8.75C0 9.16421 0.335786 9.5 0.75 9.5L13.25 9.5C13.6642 9.5 14 9.16421 14 8.75C14 8.33579 13.6642 8 13.25 8L0.75 8Z" fill-rule="NONZERO"></path>
 </g>
</svg>