<svg viewBox="0 0 24 24" width="24" height="24" fill="currentColor" xmlns="http://www.w3.org/2000/svg">
 <g transform="translate(1.5, 1.5)">
  <path d="M10.75 14.25C10.75 13.8358 11.0858 13.5 11.5 13.5L17 13.5C17.4142 13.5 17.75 13.8358 17.75 14.25C17.75 14.6642 17.4142 15 17 15L11.5 15C11.0858 15 10.75 14.6642 10.75 14.25Z" fill-rule="EVENODD"></path>
  <path d="M14.25 10.75C13.8358 10.75 13.5 11.0858 13.5 11.5L13.5 17C13.5 17.4142 13.8358 17.75 14.25 17.75C14.6642 17.75 15 17.4142 15 17L15 11.5C15 11.0858 14.6642 10.75 14.25 10.75Z" fill-rule="EVENODD"></path>
  <path d="M0 2.75C0 1.23122 1.23122 0 2.75 0L10.75 0C12.2688 0 13.5 1.23122 13.5 2.75L13.5 8.25C13.5 8.66421 13.1642 9 12.75 9C12.3358 9 12 8.66421 12 8.25L12 2.75C12 2.05964 11.4404 1.5 10.75 1.5L2.75 1.5C2.05964 1.5 1.5 2.05964 1.5 2.75L1.5 10.75C1.5 11.4404 2.05964 12 2.75 12L8.25 12C8.66421 12 9 12.3358 9 12.75C9 13.1642 8.66421 13.5 8.25 13.5L2.75 13.5C1.23122 13.5 0 12.2688 0 10.75L0 2.75Z" fill-rule="EVENODD"></path>
  <path d="M3.75 6.25C3.75 5.83579 4.08579 5.5 4.5 5.5L9 5.5C9.41421 5.5 9.75 5.83579 9.75 6.25C9.75 6.66421 9.41421 7 9 7L4.5 7C4.08579 7 3.75 6.66421 3.75 6.25Z" fill-rule="EVENODD"></path>
  <path d="M7.5 10.25C7.5 8.73122 8.73122 7.5 10.25 7.5L18.25 7.5C19.7688 7.5 21 8.73122 21 10.25L21 18.25C21 19.7688 19.7688 21 18.25 21L10.25 21C8.73122 21 7.5 19.7688 7.5 18.25L7.5 10.25ZM10.25 9C9.55964 9 9 9.55964 9 10.25L9 18.25C9 18.9404 9.55964 19.5 10.25 19.5L18.25 19.5C18.9404 19.5 19.5 18.9404 19.5 18.25L19.5 10.25C19.5 9.55964 18.9404 9 18.25 9L10.25 9Z" fill-rule="EVENODD"></path>
 </g>
</svg>