<svg viewBox="0 0 24 24" width="24" height="24" fill="currentColor" xmlns="http://www.w3.org/2000/svg">
 <g transform="translate(10, 3.5)">
  <path d="M0 8.5C0 7.39543 0.89543 6.5 2 6.5C3.10457 6.5 4 7.39543 4 8.5C4 9.60457 3.10457 10.5 2 10.5C0.895431 10.5 0 9.60457 0 8.5Z" fill-rule="EVENODD"></path>
  <path d="M0 2C0 0.89543 0.89543 0 2 0C3.10457 0 4 0.895431 4 2C4 3.10457 3.10457 4 2 4C0.895431 4 0 3.10457 0 2Z" fill-rule="EVENODD"></path>
  <path d="M0 15C0 13.8954 0.89543 13 2 13C3.10457 13 4 13.8954 4 15C4 16.1046 3.10457 17 2 17C0.895431 17 0 16.1046 0 15Z" fill-rule="EVENODD"></path>
 </g>
</svg>