<svg viewBox="0 0 24 24" width="24" height="24" fill="currentColor" xmlns="http://www.w3.org/2000/svg">
 <g transform="translate(1.9999780654907227, 1.9999780654907227)">
  <path d="M0.219692 0.219692C0.434586 0.00479752 0.757921 -0.0591732 1.03845 0.0577022L18.5385 7.34851C18.8265 7.4685 19.0101 7.75425 18.9996 8.06607C18.9891 8.37789 18.7866 8.65065 18.4912 8.75099L11.2205 11.2205L8.75099 18.4912C8.65065 18.7866 8.37789 18.9891 8.06607 18.9996C7.75425 19.0101 7.4685 18.8265 7.34851 18.5385L0.0577022 1.03845C-0.0591732 0.757921 0.00479752 0.434586 0.219692 0.219692ZM2.14274 2.14274L7.96938 16.1283L9.91907 10.388C9.99402 10.1673 10.1673 9.99402 10.388 9.91907L16.1283 7.96938L2.14274 2.14274Z" fill-rule="EVENODD"></path>
  <path d="M10.2197 10.2197C10.5126 9.9268 10.9875 9.9268 11.2804 10.2197L17.7804 16.7197C18.0732 17.0126 18.0732 17.4875 17.7804 17.7804C17.4875 18.0732 17.0126 18.0732 16.7197 17.7804L10.2197 11.2804C9.9268 10.9875 9.9268 10.5126 10.2197 10.2197Z" fill-rule="EVENODD"></path>
 </g>
</svg>