<svg viewBox="0 0 16 16" width="16" height="16" fill="currentColor" xmlns="http://www.w3.org/2000/svg">
 <g transform="translate(1.4999780654907227, 1.4999780654907227)">
  <path d="M0.219692 0.219692C0.434586 0.00479752 0.757921 -0.0591732 1.03845 0.0577022L12.5385 4.8488C12.8265 4.96879 13.0101 5.25455 12.9996 5.56637C12.9891 5.87819 12.7866 6.15094 12.4912 6.25128L7.83333 7.83333L6.25128 12.4912C6.15094 12.7866 5.87819 12.9891 5.56637 12.9996C5.25455 13.0101 4.96879 12.8265 4.8488 12.5385L0.0577022 1.03845C-0.0591732 0.757921 0.00479752 0.434586 0.219692 0.219692ZM2.14274 2.14274L5.46967 10.1283L6.53191 7.00086C6.60687 6.78017 6.78017 6.60687 7.00086 6.53191L10.1283 5.46967L2.14274 2.14274Z" fill-rule="EVENODD"></path>
  <path d="M6.71969 6.71969C7.01259 6.4268 7.48746 6.4268 7.78035 6.71969L12.2804 11.2197C12.5732 11.5126 12.5732 11.9875 12.2804 12.2804C11.9875 12.5732 11.5126 12.5732 11.2197 12.2804L6.71969 7.78035C6.4268 7.48746 6.4268 7.01259 6.71969 6.71969Z" fill-rule="EVENODD"></path>
 </g>
</svg>