<svg viewBox="0 0 24 24" width="24" height="24" fill="currentColor" xmlns="http://www.w3.org/2000/svg">
 <g transform="translate(2.5, 2.0201339721679688)">
  <path d="M18 2.25056C18 1.7871 17.5839 1.43457 17.1267 1.51076L8.1267 3.01076C7.76506 3.07103 7.5 3.38393 7.5 3.75056L7.5 15.4799C7.5 15.8941 7.16421 16.2299 6.75 16.2299C6.33579 16.2299 6 15.8941 6 15.4799L6 3.75056C6 2.65067 6.79518 1.71199 7.8801 1.53117L16.8801 0.0311705C18.2515 -0.197404 19.5 0.860193 19.5 2.25056L19.5 13.4799C19.5 13.8941 19.1642 14.2299 18.75 14.2299C18.3358 14.2299 18 13.8941 18 13.4799L18 2.25056Z" fill-rule="EVENODD"></path>
  <path d="M7.5 13.3445L7.5 17.0356C7.5 18.3799 6.52811 19.5272 5.2021 19.7482L3.2021 20.0815C1.52588 20.3609 0 19.0683 0 17.3689L0 16.9241C0 15.5798 0.971886 14.4325 2.2979 14.2115L7.5 13.3445ZM6 15.1152L2.5445 15.6911C1.94177 15.7916 1.5 16.3131 1.5 16.9241L1.5 17.3689C1.5 18.1414 2.19358 18.7289 2.9555 18.6019L4.9555 18.2686C5.55823 18.1681 6 17.6467 6 17.0356L6 15.1152Z" fill-rule="EVENODD"></path>
  <path d="M19.5 11.3445L19.5 15.0356C19.5 16.3799 18.5281 17.5272 17.2021 17.7482L15.2021 18.0815C13.5259 18.3609 12 17.0683 12 15.3689L12 14.9241C12 13.5798 12.9719 12.4325 14.2979 12.2115L19.5 11.3445ZM18 13.1152L14.5445 13.6911C13.9418 13.7916 13.5 14.3131 13.5 14.9241L13.5 15.3689C13.5 16.1414 14.1936 16.7289 14.9555 16.6019L16.9555 16.2686C17.5582 16.1681 18 15.6467 18 15.0356L18 13.1152Z" fill-rule="EVENODD"></path>
 </g>
</svg>