<svg viewBox="0 0 24 24" width="24" height="24" fill="currentColor" xmlns="http://www.w3.org/2000/svg">
 <g transform="translate(1.9999812841415405, 1.9999786615371704)">
  <path d="M19.7803 0.219691C20.0045 0.443816 20.0635 0.784637 19.9278 1.07109L11.1647 19.5711C11.0291 19.8574 10.7282 20.0276 10.413 19.9964C10.0977 19.9652 9.83608 19.7392 9.75925 19.4319L7.92103 12.079L0.568117 10.2408C0.260795 10.164 0.0348835 9.90232 0.00366868 9.58708C-0.0275462 9.27184 0.142667 8.97098 0.428954 8.83538L18.929 0.0722179C19.2154 -0.0634684 19.5562 -0.00443345 19.7803 0.219691ZM2.96503 9.29385L8.72139 10.7329C8.99011 10.8001 9.19992 11.0099 9.2671 11.2786L10.7062 17.035L17.6732 2.32681L2.96503 9.29385Z" fill-rule="EVENODD"></path>
 </g>
</svg>