<svg viewBox="0 0 16 16" width="16" height="16" fill="black" xmlns="http://www.w3.org/2000/svg">
 <g transform="translate(0.25, 3.750000238418579)">
  <path d="M15.5 4.25C15.5 4.05109 15.421 3.86032 15.2803 3.71967L11.7803 0.219669C11.4874 -0.0732232 11.0126 -0.0732232 10.7197 0.21967C10.4268 0.512563 10.4268 0.987437 10.7197 1.28033L13.6893 4.25L10.7197 7.21967C10.4268 7.51256 10.4268 7.98744 10.7197 8.28033C11.0126 8.57322 11.4874 8.57322 11.7803 8.28033L15.2803 4.78033C15.421 4.63968 15.5 4.44891 15.5 4.25Z" fill-rule="NONZERO"></path>
  <path d="M0.21967 4.78033C-0.0732233 4.48744 -0.0732233 4.01256 0.21967 3.71967L3.71967 0.21967C4.01256 -0.0732232 4.48744 -0.0732232 4.78033 0.21967C5.07322 0.512564 5.07322 0.987437 4.78033 1.28033L1.81066 4.25L4.78033 7.21967C5.07322 7.51256 5.07322 7.98744 4.78033 8.28033C4.48744 8.57322 4.01256 8.57322 3.71967 8.28033L0.21967 4.78033Z" fill-rule="NONZERO"></path>
  <path d="M5.08334 3.5C4.66913 3.5 4.33334 3.83579 4.33334 4.25C4.33334 4.66421 4.66913 5 5.08334 5L5.15001 5C5.56422 5 5.90001 4.66421 5.90001 4.25C5.90001 3.83579 5.56422 3.5 5.15001 3.5L5.08334 3.5Z" fill-rule="NONZERO"></path>
  <path d="M7.75001 3.5C7.3358 3.5 7.00001 3.83579 7.00001 4.25C7.00001 4.66421 7.3358 5 7.75001 5L7.81668 5C8.23089 5 8.56668 4.66421 8.56668 4.25C8.56668 3.83579 8.23089 3.5 7.81668 3.5L7.75001 3.5Z" fill-rule="NONZERO"></path>
  <path d="M10.4167 3.5C10.0025 3.5 9.66668 3.83579 9.66668 4.25C9.66668 4.66421 10.0025 5 10.4167 5L10.4833 5C10.8976 5 11.2333 4.66421 11.2333 4.25C11.2333 3.83579 10.8976 3.5 10.4833 3.5L10.4167 3.5Z" fill-rule="NONZERO"></path>
 </g>
</svg>