<svg viewBox="0 0 24 24" width="24" height="24" fill="currentColor" xmlns="http://www.w3.org/2000/svg">
 <g transform="translate(1.4999998807907104, 1.0000001192092896)">
  <path d="M19.5 2.75L19.5 19.25C19.5 19.9404 18.9404 20.5 18.25 20.5L2.75 20.5C2.05964 20.5 1.5 19.9404 1.5 19.25L1.5 7.25C1.5 6.55964 2.05965 6 2.75 6L4 6L4 7C4 7.41421 4.33579 7.75 4.75 7.75C5.16421 7.75 5.5 7.41421 5.5 7L5.5 2.75C5.5 2.05965 6.05964 1.5 6.75 1.5L18.25 1.5C18.9404 1.5 19.5 2.05964 19.5 2.75ZM4 4.5L4 2.75C4 1.23122 5.23122 5.69069e-07 6.75 5.02681e-07L18.25 0C19.7688 -6.63881e-08 21 1.23122 21 2.75L21 19.25C21 20.7688 19.7688 22 18.25 22L2.75 22C1.23122 22 6.63881e-08 20.7688 0 19.25L1.38281e-06 7.25C1.31642e-06 5.73122 1.23122 4.5 2.75 4.5L4 4.5Z" fill-rule="EVENODD"></path>
  <path d="M4.00001 5L4 19.25C4 19.9404 3.44036 20.5 2.75 20.5L2.75 22C4.26878 22 5.50001 20.7688 5.50001 19.25L5.50001 5C5.50001 4.58579 5.16422 4.25 4.75001 4.25C4.33579 4.25 4.00001 4.58579 4.00001 5Z" fill-rule="EVENODD"></path>
  <path d="M7.5 12.75C7.5 12.3358 7.83579 12 8.25 12L15.25 12C15.6642 12 16 12.3358 16 12.75C16 13.1642 15.6642 13.5 15.25 13.5L8.25 13.5C7.83579 13.5 7.5 13.1642 7.5 12.75Z" fill-rule="EVENODD"></path>
  <path d="M7.5 15.75C7.5 15.3358 7.83579 15 8.25 15L12.25 15C12.6642 15 13 15.3358 13 15.75C13 16.1642 12.6642 16.5 12.25 16.5L8.25 16.5C7.83579 16.5 7.5 16.1642 7.5 15.75Z" fill-rule="EVENODD"></path>
  <path d="M7.5 5.25C7.5 4.2835 8.2835 3.5 9.25 3.5L15.75 3.5C16.7165 3.5 17.5 4.2835 17.5 5.25L17.5 8.75C17.5 9.7165 16.7165 10.5 15.75 10.5L9.25 10.5C8.2835 10.5 7.5 9.7165 7.5 8.75L7.5 5.25ZM9.25 5C9.11193 5 9 5.11193 9 5.25L9 8.75C9 8.88807 9.11193 9 9.25 9L15.75 9C15.8881 9 16 8.88807 16 8.75L16 5.25C16 5.11193 15.8881 5 15.75 5L9.25 5Z" fill-rule="EVENODD"></path>
 </g>
</svg>