<svg viewBox="0 0 16 16" width="16" height="16" fill="currentColor" xmlns="http://www.w3.org/2000/svg">
 <g transform="translate(0.5, 0)">
  <path d="M13.5 2.25L13.5 13.75C13.5 14.1642 13.1642 14.5 12.75 14.5L2.25 14.5C1.83579 14.5 1.5 14.1642 1.5 13.75L1.5 5.75C1.5 5.33579 1.83579 5 2.25 5L3.00003 5L3.00003 6C3.00003 6.41421 3.33582 6.75 3.75003 6.75C4.16424 6.75 4.50003 6.41421 4.50003 6L4.50003 4.25088C4.50003 4.25059 4.50003 4.25118 4.50003 4.25088C4.50003 4.25059 4.50003 4.24941 4.50003 4.24912L4.50003 2.25C4.50003 1.83579 4.83582 1.5 5.25003 1.5L12.75 1.5C13.1642 1.5 13.5 1.83579 13.5 2.25ZM3.00003 3.5L3.00003 2.25C3.00003 1.00736 4.00739 3.82153e-07 5.25003 3.27836e-07L12.75 0C13.9927 -5.43176e-08 15 1.00736 15 2.25L15 13.75C15 14.9926 13.9927 16 12.75 16L2.25 16C1.00736 16 5.43176e-08 14.9926 0 13.75L6.03983e-07 5.75C5.49666e-07 4.50736 1.00736 3.5 2.25 3.5L3.00003 3.5Z" fill-rule="EVENODD"></path>
  <path d="M3.00003 3.7561L3.00003 13.75C3.00003 14.1642 2.66421 14.5 2.25 14.5L2.25 16C3.49264 16 4.50003 14.9926 4.50003 13.75L4.50003 3.7561C4.50003 3.34189 4.16424 3.0061 3.75003 3.0061C3.33581 3.0061 3.00003 3.34189 3.00003 3.7561Z" fill-rule="EVENODD"></path>
  <path d="M5.50003 10.25C5.50003 9.83579 5.83582 9.5 6.25003 9.5L10.75 9.5C11.1642 9.5 11.5 9.83579 11.5 10.25C11.5 10.6642 11.1642 11 10.75 11L6.25003 11C5.83582 11 5.50003 10.6642 5.50003 10.25Z" fill-rule="EVENODD"></path>
  <path d="M5.50003 12.75C5.50003 12.3358 5.83582 12 6.25003 12L8.75003 12C9.16424 12 9.50003 12.3358 9.50003 12.75C9.50003 13.1642 9.16424 13.5 8.75003 13.5L6.25003 13.5C5.83582 13.5 5.50003 13.1642 5.50003 12.75Z" fill-rule="EVENODD"></path>
  <path d="M5.50003 3.75C5.50003 3.05964 6.05967 2.5 6.75003 2.5L11.25 2.5C11.9404 2.5 12.5 3.05964 12.5 3.75L12.5 7.25C12.5 7.94036 11.9404 8.5 11.25 8.5L6.75003 8.5C6.05967 8.5 5.50003 7.94036 5.50003 7.25L5.50003 3.75ZM7.00003 4L7.00003 7L11 7L11 4L7.00003 4Z" fill-rule="EVENODD"></path>
 </g>
</svg>