<svg viewBox="0 0 24 24" width="24" height="24" fill="currentColor" xmlns="http://www.w3.org/2000/svg">
 <g transform="translate(1, 0.47526758909225464)">
  <path d="M0.322542 5.45294C0.500263 5.07879 0.947643 4.91955 1.32179 5.09727L11 9.69442L20.6782 5.09727C21.0524 4.91955 21.4997 5.07879 21.6775 5.45294C21.8552 5.82709 21.6959 6.27447 21.3218 6.45219L11.3218 11.2022C11.1182 11.2989 10.8818 11.2989 10.6782 11.2022L0.678207 6.45219C0.304058 6.27447 0.144821 5.82709 0.322542 5.45294Z" fill-rule="EVENODD"></path>
  <path d="M11 9.77473C11.4142 9.77473 11.75 10.1105 11.75 10.5247L11.75 22.0247C11.75 22.4389 11.4142 22.7747 11 22.7747C10.5858 22.7747 10.25 22.4389 10.25 22.0247L10.25 10.5247C10.25 10.1105 10.5858 9.77473 11 9.77473Z" fill-rule="EVENODD"></path>
  <path d="M11.548 1.62654C11.2022 1.45782 10.7978 1.45782 10.452 1.62654L1.64039 5.92487C1.55449 5.96677 1.5 6.05398 1.5 6.14956L1.5 16.052C1.5 16.5211 1.76264 16.9507 2.18015 17.1646L10.4302 21.3902C10.788 21.5735 11.212 21.5735 11.5698 21.3902L19.8198 17.1646C20.2374 16.9507 20.5 16.5211 20.5 16.052L20.5 6.14956C20.5 6.05399 20.4455 5.96677 20.3596 5.92487L11.548 1.62654ZM9.79433 0.278387C10.5553 -0.0927951 11.4447 -0.0927961 12.2057 0.278386L21.0172 4.57672C21.6185 4.87004 22 5.48053 22 6.14956L22 16.052C22 17.0841 21.4222 18.0292 20.5037 18.4997L12.2537 22.7253C11.4665 23.1284 10.5335 23.1284 9.74634 22.7253L1.49634 18.4997C0.577805 18.0292 0 17.0841 0 16.052L0 6.14956C0 5.48053 0.381451 4.87004 0.982759 4.57672L9.79433 0.278387Z" fill-rule="EVENODD"></path>
  <path d="M5.32918 2.68932C5.51442 2.31884 5.96493 2.16867 6.33541 2.35391L16.3354 7.35391C16.7059 7.53915 16.8561 7.98966 16.6708 8.36014C16.4856 8.73063 16.0351 8.88079 15.6646 8.69555L5.66459 3.69555C5.29411 3.51031 5.14394 3.05981 5.32918 2.68932Z" fill-rule="EVENODD"></path>
 </g>
</svg>