<svg viewBox="0 0 24 24" width="24" height="24" fill="currentColor" xmlns="http://www.w3.org/2000/svg">
 <g transform="translate(1, 1)">
  <path d="M3.52041 14.3654C3.0857 15.9684 2.8696 17.6953 2.74901 20.0385C2.72772 20.4522 2.37512 20.7703 1.96145 20.749C1.54779 20.7277 1.2297 20.3751 1.25099 19.9615C1.37413 17.5687 1.59824 15.7224 2.0727 13.9728C2.54811 12.2198 3.26589 10.5966 4.34284 8.63855C4.54247 8.27561 4.99851 8.14322 5.36145 8.34284C5.72439 8.54247 5.85678 8.99851 5.65716 9.36145C4.61453 11.257 3.95418 12.7659 3.52041 14.3654Z" fill-rule="EVENODD"></path>
  <path d="M14.5824 13.4725C14.3215 13.7942 13.8491 13.8434 13.5275 13.5824C10.8203 11.3861 8.82726 10.7054 4.82229 9.72864C4.41987 9.63049 4.17321 9.2247 4.27136 8.82229C4.36951 8.41987 4.7753 8.17321 5.17771 8.27136C9.26442 9.26809 11.5107 10.0147 14.4725 12.4176C14.7942 12.6785 14.8434 13.1509 14.5824 13.4725Z" fill-rule="EVENODD"></path>
  <path d="M13.5145 13.5716C13.1988 13.3035 13.1602 12.8302 13.4284 12.5145C15.5271 10.0435 16.0599 8.70327 17.0452 5.99369C17.1867 5.60442 17.617 5.4036 18.0063 5.54515C18.3956 5.68671 18.5964 6.11703 18.4548 6.50631C17.4401 9.29673 16.8332 10.8228 14.5716 13.4855C14.3035 13.8012 13.8302 13.8398 13.5145 13.5716Z" fill-rule="EVENODD"></path>
  <path d="M3 9C3 7.89543 3.89543 7 5 7C6.10457 7 7 7.89543 7 9C7 10.1046 6.10457 11 5 11C3.89543 11 3 10.1046 3 9Z" fill-rule="EVENODD"></path>
  <path d="M0 20C0 18.8954 0.89543 18 2 18C3.10457 18 4 18.8954 4 20C4 21.1046 3.10457 22 2 22C0.895431 22 0 21.1046 0 20Z" fill-rule="EVENODD"></path>
  <path d="M12 13C12 11.8954 12.8954 11 14 11C15.1046 11 16 11.8954 16 13C16 14.1046 15.1046 15 14 15C12.8954 15 12 14.1046 12 13Z" fill-rule="EVENODD"></path>
  <path d="M18.5 1.5C17.3954 1.5 16.5 2.39543 16.5 3.5C16.5 4.60457 17.3954 5.5 18.5 5.5C19.6046 5.5 20.5 4.60457 20.5 3.5C20.5 2.39543 19.6046 1.5 18.5 1.5ZM15 3.5C15 1.567 16.567 0 18.5 0C20.433 0 22 1.567 22 3.5C22 5.433 20.433 7 18.5 7C16.567 7 15 5.433 15 3.5Z" fill-rule="EVENODD"></path>
 </g>
</svg>