<svg viewBox="0 0 24 24" width="24" height="24" fill="currentColor" xmlns="http://www.w3.org/2000/svg">
 <g transform="translate(0.9999849796295166, 0.9999849796295166)">
  <path d="M17.6447 10.4697C17.9376 10.1768 18.4125 10.1768 18.7053 10.4697L21.7803 13.5447C21.921 13.6853 22 13.8761 22 14.075C22 14.2739 21.921 14.4647 21.7803 14.6053L14.6053 21.7803C14.4647 21.921 14.2739 22 14.075 22C13.8761 22 13.6853 21.921 13.5447 21.7803L10.4697 18.7053C10.1768 18.4125 10.1768 17.9376 10.4697 17.6447L17.6447 10.4697ZM18.175 12.0607L12.0607 18.175L14.075 20.1894L20.1894 14.075L18.175 12.0607Z" fill-rule="EVENODD"></path>
  <path d="M0.219685 0.219685C0.403704 0.0356663 0.669962 -0.039806 0.923173 0.0202778L15.6732 3.52028C15.96 3.58834 16.1803 3.81809 16.2363 4.1075L17.7364 11.8575C17.8151 12.2642 17.5492 12.6576 17.1425 12.7364C16.7359 12.8151 16.3424 12.5492 16.2637 12.1425L14.8557 4.86795L1.76065 1.76065L4.86795 14.8557L12.1425 16.2637C12.5492 16.3424 12.8151 16.7359 12.7364 17.1425C12.6576 17.5492 12.2642 17.8151 11.8575 17.7364L4.1075 16.2363C3.81809 16.1803 3.58834 15.96 3.52028 15.6732L0.0202778 0.923173C-0.039806 0.669962 0.0356663 0.403704 0.219685 0.219685Z" fill-rule="EVENODD"></path>
  <path d="M7.71969 8.78034L0.469685 1.53035L1.53035 0.469685L8.78034 7.71969L7.71969 8.78034Z" fill-rule="EVENODD"></path>
  <path d="M10 8.50002C9.17159 8.50002 8.50002 9.17159 8.50002 10C8.50002 10.8284 9.17159 11.5 10 11.5C10.8284 11.5 11.5 10.8284 11.5 10C11.5 9.17159 10.8284 8.50002 10 8.50002ZM7.00002 10C7.00002 8.34316 8.34316 7.00002 10 7.00002C11.6569 7.00002 13 8.34316 13 10C13 11.6569 11.6569 13 10 13C8.34316 13 7.00002 11.6569 7.00002 10Z" fill-rule="EVENODD"></path>
 </g>
</svg>