<svg viewBox="0 0 24 24" width="24" height="24" fill="currentColor" xmlns="http://www.w3.org/2000/svg">
 <g transform="translate(0.9999187588691711, -0.00006613846926484257)">
  <path d="M13.0047 0.667257C13.0504 0.255576 13.4212 -0.0410827 13.8329 0.00465176C16.1717 0.264471 18.3526 1.31181 20.0176 2.97469C21.6825 4.63758 22.7326 6.81718 22.9954 9.15563C23.0416 9.56725 22.7455 9.93843 22.3338 9.98468C21.9222 10.0309 21.551 9.73474 21.5048 9.32312C21.28 7.32284 20.3818 5.45844 18.9576 4.03602C17.5334 2.61361 15.6678 1.71773 13.6673 1.49548C13.2556 1.44975 12.9589 1.07894 13.0047 0.667257ZM13.014 4.88318C13.0933 4.47663 13.4872 4.21136 13.8937 4.29068C15.0845 4.52301 16.1789 5.1054 17.0368 5.96332C17.8947 6.82123 18.4771 7.91563 18.7095 9.10645C18.7888 9.51299 18.5235 9.90687 18.117 9.98619C17.7104 10.0655 17.3165 9.80023 17.2372 9.39369C17.0621 8.49589 16.623 7.67078 15.9762 7.02397C15.3294 6.37717 14.5043 5.93808 13.6065 5.76292C13.1999 5.6836 12.9346 5.28972 13.014 4.88318Z" fill-rule="EVENODD"></path>
  <path d="M6.77776 2.81667C6.53651 2.60961 6.22788 2.497 5.90922 2.50013L5.90186 2.5002L2.81037 2.50019C2.62818 2.5004 2.44778 2.53845 2.28121 2.61188C2.11456 2.68535 1.96517 2.79259 1.84251 2.9267C1.71985 3.0608 1.62659 3.21884 1.56859 3.3907C1.51112 3.56102 1.48947 3.74108 1.50492 3.91979C1.83154 6.97977 2.8753 9.92018 4.55189 12.5031C6.236 15.0976 7.9259 16.7785 10.5147 18.454C13.0911 20.1215 16.0232 21.1631 19.0759 21.4953C19.256 21.5107 19.4374 21.4888 19.6087 21.4311C19.7818 21.3726 19.9407 21.2788 20.0752 21.1556C20.2097 21.0324 20.3169 20.8827 20.3899 20.716C20.463 20.5493 20.5003 20.3693 20.4995 20.1874C20.4984 19.9117 20.4868 17.5984 20.4997 17.0796C20.5076 16.7595 20.3974 16.4474 20.1896 16.2027C19.9825 15.9587 19.6927 15.7986 19.3749 15.7531C18.3306 15.6154 17.3053 15.3603 16.3184 14.9928L16.3167 14.9922C16.0818 14.9041 15.8265 14.885 15.581 14.9372C15.3361 14.9893 15.1115 15.1102 14.9336 15.2853L14.9322 15.2867L13.6261 16.5902C13.3875 16.8283 13.0193 16.878 12.7261 16.7116C10.0283 15.1807 7.79444 12.9512 6.26023 10.2584C6.09284 9.96464 6.14274 9.59517 6.38207 9.35631L7.68946 8.05149C7.86495 7.87387 7.98576 7.65004 8.03781 7.40644C8.08999 7.16226 8.07095 6.90826 7.9829 6.67448L7.98226 6.67279C7.61392 5.68764 7.35829 4.66409 7.22023 3.62162C7.17521 3.30906 7.01818 3.02302 6.77776 2.81667ZM5.89844 1.00017C6.57883 0.994438 7.23839 1.23528 7.7547 1.67843C8.27206 2.12247 8.61025 2.73938 8.70584 3.41433L8.70682 3.42123C8.82991 4.35266 9.05815 5.26722 9.38727 6.14747L9.38663 6.14577C9.57594 6.64839 9.61693 7.19469 9.50469 7.7199C9.39246 8.24511 9.13176 8.727 8.7537 9.10856L8.75075 9.11153L7.85462 10.0059C9.14072 12.0841 10.895 13.8346 12.9778 15.118L13.8785 14.2191C14.2608 13.8418 14.7433 13.5819 15.2687 13.4701C15.7938 13.3583 16.34 13.399 16.8427 13.5874C17.7247 13.9158 18.6411 14.1436 19.5744 14.2665L19.5811 14.2674C20.2636 14.3634 20.8872 14.7066 21.3331 15.2319C21.7791 15.7572 22.0163 16.4279 21.9992 17.1169C21.987 17.607 21.9983 19.8841 21.9995 20.1813C22.0011 20.5725 21.9208 20.9596 21.7639 21.3179C21.6069 21.6762 21.3767 21.9977 21.0882 22.2619C20.7996 22.5261 20.4591 22.7272 20.0884 22.8523C19.7176 22.9774 19.3248 23.0239 18.9351 22.9887L18.9216 22.9875C15.6335 22.6309 12.4749 21.5095 9.6997 19.7133C6.93487 17.9239 5.09353 16.0926 3.29371 13.3198C1.48755 10.5373 0.363472 7.36911 0.0126499 4.07203L0.0114035 4.06032C-0.0237744 3.67181 0.0226837 3.28046 0.147343 2.91107C0.272042 2.54156 0.472431 2.20212 0.735669 1.91432C0.998903 1.62653 1.31921 1.39668 1.67614 1.23933C2.03308 1.08198 2.41886 1.00056 2.80896 1.00019L5.89844 1.00017Z" fill-rule="EVENODD"></path>
 </g>
</svg>