<svg viewBox="0 0 16 16" width="16" height="16" fill="currentColor" xmlns="http://www.w3.org/2000/svg">
 <g transform="translate(-0.00012207021791255102, -0.00000000001000444171950221)">
  <path d="M4.40138 1.50003C4.57364 1.49834 4.74036 1.55922 4.87059 1.67099C5.00008 1.78213 5.08462 1.93597 5.10909 2.10396C5.20896 2.85727 5.39374 3.5969 5.65992 4.3088L5.66055 4.3105C5.70802 4.43651 5.71827 4.57339 5.69015 4.70498C5.66215 4.83604 5.5972 4.95657 5.50274 5.05235L4.57862 5.97465C4.28544 6.26726 4.28497 6.74213 4.57758 7.03531C4.87018 7.32849 5.34506 7.32896 5.63824 7.03636L6.56416 6.11227L6.56711 6.10929C6.86406 5.80959 7.06886 5.43105 7.15703 5.01844C7.24514 4.60615 7.21305 4.17731 7.06463 3.78271C6.83781 3.17587 6.6805 2.54538 6.59565 1.90328L6.59467 1.89638C6.51957 1.36612 6.25388 0.881525 5.84754 0.53276C5.44226 0.184908 4.92465 -0.0041947 4.39071 7.06095e-05L2.20616 8.88486e-05C1.89982 0.000376799 1.59686 0.0643179 1.31656 0.187887C1.03624 0.311458 0.784672 0.491975 0.577911 0.718029C0.371146 0.944087 0.213728 1.21073 0.115766 1.50101C0.0178435 1.79117 -0.0186821 2.09863 0.00895707 2.40388L0.0102035 2.41559C0.262001 4.78203 1.06879 7.0559 2.36511 9.05299C2.59063 9.40043 3.0551 9.49926 3.40254 9.27374C3.74998 9.04822 3.84881 8.58374 3.62329 8.2363C2.45661 6.43893 1.73015 4.39292 1.50251 2.26372C1.49453 2.16815 1.50624 2.07184 1.53702 1.98064C1.56828 1.888 1.61856 1.80277 1.68475 1.7304C1.75094 1.65804 1.83159 1.60013 1.92162 1.56044C2.01156 1.52079 2.10914 1.50022 2.20757 1.50009L4.39402 1.50011L4.40138 1.50003Z" fill-rule="EVENODD"></path>
  <path d="M4.91067 12.1501L2.28045 14.7803C1.98756 15.0732 1.51269 15.0732 1.21979 14.7803C0.926899 14.4874 0.926899 14.0126 1.21979 13.7197L13.7198 1.21967C14.0127 0.926777 14.4876 0.926777 14.7805 1.21967C15.0733 1.51256 15.0733 1.98744 14.7805 2.28033L8.04918 9.0116C8.45275 9.34636 8.88954 9.64456 9.3625 9.93161L9.88184 9.4133C10.1821 9.11696 10.561 8.9129 10.9737 8.82507C11.3859 8.73733 11.8147 8.76925 12.2094 8.91708L11.947 9.61969L12.2104 8.91748L12.2094 8.91708C12.8177 9.14358 13.4498 9.3007 14.0935 9.38543L14.1002 9.38632C14.6361 9.46177 15.1259 9.73124 15.4762 10.1439C15.8265 10.5565 16.0129 11.0834 15.9994 11.6246C15.9916 11.9402 15.9977 13.3279 15.9994 13.711L15.9997 13.7858C16.0009 14.0931 15.9379 14.3973 15.8145 14.6787C15.6912 14.9602 15.5104 15.2128 15.2838 15.4203C15.0572 15.6278 14.7897 15.7857 14.4986 15.8839C14.2074 15.9822 13.8989 16.0187 13.5929 15.9911L13.5794 15.9899C11.2196 15.734 8.95278 14.9291 6.96103 13.64C6.20921 13.1534 5.53475 12.6926 4.91067 12.1501ZM6.98466 10.0761L5.97427 11.0865C6.49231 11.5269 7.07325 11.9259 7.77604 12.3807C9.5688 13.541 11.6091 14.2661 13.7333 14.4976L13.7277 14.4972L13.6603 15.2441L13.7412 14.4985L13.7333 14.4976C13.8299 14.5056 13.9271 14.4937 14.0189 14.4627C14.1124 14.4311 14.1982 14.3804 14.2708 14.314C14.3434 14.2475 14.4012 14.1667 14.4406 14.0768C14.48 13.987 14.5001 13.8899 14.4997 13.7919L14.4994 13.7211C14.4977 13.3495 14.4914 11.9293 14.4999 11.5874C14.5042 11.4149 14.4448 11.2467 14.3327 11.1146C14.2211 10.9833 14.0651 10.8969 13.8937 10.8721L13.8978 10.8726L13.9956 10.129L13.8911 10.8717L13.8937 10.8721C13.1392 10.7724 12.3983 10.5881 11.6852 10.3225L11.6835 10.3219C11.5566 10.2743 11.4186 10.264 11.2859 10.2922C11.1538 10.3203 11.0327 10.3854 10.9367 10.4797L10.9385 10.478L10.4087 9.94712L10.9355 10.4809L10.0126 11.402C9.77396 11.6402 9.40579 11.6899 9.1126 11.5235C8.36951 11.1018 7.65083 10.645 6.98466 10.0761Z" fill-rule="EVENODD"></path>
 </g>
</svg>