<svg viewBox="0 0 16 16" width="16" height="16" fill="currentColor" xmlns="http://www.w3.org/2000/svg">
 <g transform="translate(0, 0.050000011920928955)">
  <path d="M7.25503 0.205025C7.3863 0.0737498 7.56435 0 7.75 0C8.82684 0 9.89314 0.212099 10.888 0.624188C11.8829 1.03628 12.7868 1.64028 13.5483 2.40172C14.3097 3.16316 14.9137 4.06712 15.3258 5.062C15.7379 6.05687 15.95 7.12316 15.95 8.2C15.95 8.5866 15.6366 8.9 15.25 8.9L7.75 8.9C7.3634 8.9 7.05 8.5866 7.05 8.2L7.05 0.7C7.05 0.514348 7.12375 0.336301 7.25503 0.205025ZM8.45 1.43612L8.45 7.5L14.5139 7.5C14.4463 6.8472 14.2845 6.20636 14.0324 5.59775C13.6906 4.77274 13.1898 4.02311 12.5583 3.39167C11.9269 2.76024 11.1773 2.25935 10.3522 1.91762C9.74364 1.66553 9.1028 1.50368 8.45 1.43612Z" fill-rule="EVENODD"></path>
  <path d="M5.45707 1.11698C5.64099 1.48812 5.48922 1.93809 5.11808 2.12201C2.97247 3.18528 1.5 5.39637 1.5 7.95C1.5 11.5399 4.41015 14.45 8 14.45C10.5536 14.45 12.7647 12.9775 13.828 10.8319C14.0119 10.4608 14.4619 10.309 14.833 10.4929C15.2042 10.6769 15.3559 11.1268 15.172 11.498C13.8654 14.1347 11.1454 15.95 8 15.95C3.58172 15.95 0 12.3683 0 7.95C0 4.80462 1.81534 2.08462 4.45204 0.777989C4.82318 0.594068 5.27315 0.74584 5.45707 1.11698Z" fill-rule="EVENODD"></path>
 </g>
</svg>