<svg viewBox="0 0 16 16" width="16" height="16" fill="currentColor" xmlns="http://www.w3.org/2000/svg">
 <g transform="translate(1, 1)">
  <path d="M0 2.25C0 1.00736 1.00736 0 2.25 0L11.25 0C12.4926 0 13.5 1.00736 13.5 2.25L13.5 11.25C13.5 12.4926 12.4926 13.5 11.25 13.5L2.25 13.5C1.00736 13.5 0 12.4926 0 11.25L0 2.25ZM2.25 1.5C1.83579 1.5 1.5 1.83579 1.5 2.25L1.5 11.25C1.5 11.6642 1.83579 12 2.25 12L11.25 12C11.6642 12 12 11.6642 12 11.25L12 2.25C12 1.83579 11.6642 1.5 11.25 1.5L2.25 1.5Z" fill-rule="EVENODD"></path>
  <path d="M6.75 3C7.16421 3 7.5 3.33579 7.5 3.75L7.5 9.75C7.5 10.1642 7.16421 10.5 6.75 10.5C6.33579 10.5 6 10.1642 6 9.75L6 3.75C6 3.33579 6.33579 3 6.75 3Z" fill-rule="EVENODD"></path>
  <path d="M3 6.75C3 6.33579 3.33579 6 3.75 6L9.75 6C10.1642 6 10.5 6.33579 10.5 6.75C10.5 7.16421 10.1642 7.5 9.75 7.5L3.75 7.5C3.33579 7.5 3 7.16421 3 6.75Z" fill-rule="EVENODD"></path>
 </g>
</svg>