<svg viewBox="0 0 16 16" width="16" height="16" fill="currentColor" xmlns="http://www.w3.org/2000/svg">
 <g transform="translate(3.25, 2.75)">
  <path d="M5 0C5.41421 0 5.75 0.335786 5.75 0.75L5.75 9.25C5.75 9.66421 5.41421 10 5 10C4.58579 10 4.25 9.66421 4.25 9.25L4.25 0.75C4.25 0.335786 4.58579 0 5 0Z" fill-rule="EVENODD"></path>
  <path d="M0 5C0 4.58579 0.335786 4.25 0.75 4.25L9.25 4.25C9.66421 4.25 10 4.58579 10 5C10 5.41421 9.66421 5.75 9.25 5.75L0.75 5.75C0.335786 5.75 0 5.41421 0 5Z" fill-rule="EVENODD"></path>
 </g>
</svg>