<svg viewBox="0 0 24 24" width="24" height="24" fill="currentColor" xmlns="http://www.w3.org/2000/svg">
 <g transform="translate(2, 1.25)">
  <path d="M9.75 0C10.1642 0 10.5 0.335786 10.5 0.75L10.5 10.75C10.5 11.1642 10.1642 11.5 9.75 11.5C9.33579 11.5 9 11.1642 9 10.75L9 0.75C9 0.335786 9.33579 0 9.75 0Z" fill-rule="EVENODD"></path>
  <path d="M3.4963 4.98459C3.80685 5.25869 3.8364 5.73264 3.5623 6.0432C2.27828 7.49799 1.5 9.40719 1.5 11.5C1.5 16.0564 5.19365 19.75 9.75 19.75C14.3063 19.75 18 16.0564 18 11.5C18 9.40719 17.2217 7.49799 15.9377 6.0432C15.6636 5.73264 15.6931 5.25869 16.0037 4.98459C16.3143 4.71049 16.7882 4.74004 17.0623 5.05059C18.5789 6.7689 19.5 9.0278 19.5 11.5C19.5 16.8848 15.1348 21.25 9.75 21.25C4.36522 21.25 0 16.8848 0 11.5C0 9.0278 0.921085 6.7689 2.4377 5.05059C2.71179 4.74004 3.18575 4.71049 3.4963 4.98459Z" fill-rule="EVENODD"></path>
 </g>
</svg>