<svg viewBox="0 0 16 16" width="16" height="16" fill="currentColor" xmlns="http://www.w3.org/2000/svg">
 <g transform="translate(0, 1)">
  <path d="M5.25 1.5C4.83579 1.5 4.5 1.83579 4.5 2.25L4.5 4.75C4.5 5.16421 4.16421 5.5 3.75 5.5C3.33579 5.5 3 5.16421 3 4.75L3 2.25C3 1.00736 4.00736 0 5.25 0L10.75 0C11.9926 0 13 1.00736 13 2.25L13 4.75C13 5.16421 12.6642 5.5 12.25 5.5C11.8358 5.5 11.5 5.16421 11.5 4.75L11.5 2.25C11.5 1.83579 11.1642 1.5 10.75 1.5L5.25 1.5Z" fill-rule="EVENODD"></path>
  <path d="M2.25 5.5C1.83579 5.5 1.5 5.83579 1.5 6.25L1.5 9.75C1.5 10.1642 1.83579 10.5 2.25 10.5L4 10.5C4.41421 10.5 4.75 10.8358 4.75 11.25C4.75 11.6642 4.41421 12 4 12L2.25 12C1.00736 12 0 10.9926 0 9.75L0 6.25C0 5.00736 1.00736 4 2.25 4L13.75 4C14.9926 4 16 5.00736 16 6.25L16 9.75C16 10.9926 14.9926 12 13.75 12L12 12C11.5858 12 11.25 11.6642 11.25 11.25C11.25 10.8358 11.5858 10.5 12 10.5L13.75 10.5C14.1642 10.5 14.5 10.1642 14.5 9.75L14.5 6.25C14.5 5.83579 14.1642 5.5 13.75 5.5L2.25 5.5Z" fill-rule="EVENODD"></path>
  <path d="M3.5 8.75C3.5 8.05964 4.05964 7.5 4.75 7.5L11.25 7.5C11.9404 7.5 12.5 8.05964 12.5 8.75L12.5 12.25C12.5 12.9404 11.9404 13.5 11.25 13.5L4.75 13.5C4.05964 13.5 3.5 12.9404 3.5 12.25L3.5 8.75ZM5 9L5 12L11 12L11 9L5 9Z" fill-rule="EVENODD"></path>
 </g>
</svg>