<svg viewBox="0 0 16 16" width="16" height="16" fill="currentColor" xmlns="http://www.w3.org/2000/svg">
 <g transform="translate(0, 0)">
  <path d="M8 1.5C4.41015 1.5 1.5 4.41015 1.5 8C1.5 11.5899 4.41015 14.5 8 14.5C11.5899 14.5 14.5 11.5899 14.5 8C14.5 4.41015 11.5899 1.5 8 1.5ZM0 8C0 3.58172 3.58172 0 8 0C12.4183 0 16 3.58172 16 8C16 12.4183 12.4183 16 8 16C3.58172 16 0 12.4183 0 8Z" fill-rule="EVENODD"></path>
  <path d="M12.6584 2.14084C12.8568 2.50448 12.7228 2.96005 12.3591 3.1584L1.35915 9.1583C0.995517 9.35665 0.539941 9.22265 0.341596 8.85901C0.143251 8.49537 0.277247 8.0398 0.640885 7.84145L11.6409 1.84155C12.0045 1.64321 12.4601 1.7772 12.6584 2.14084Z" fill-rule="EVENODD"></path>
  <path d="M15.6512 7.62794C15.8567 7.98758 15.7317 8.44572 15.3721 8.65123L4.87211 14.6514C4.51247 14.8569 4.05433 14.732 3.84882 14.3723C3.64331 14.0127 3.76825 13.5545 4.12789 13.349L14.6279 7.34888C14.9875 7.14337 15.4457 7.26831 15.6512 7.62794Z" fill-rule="EVENODD"></path>
  <path d="M8.25 0.25C8.66421 0.25 9 0.585786 9 1L9 15C9 15.4142 8.66421 15.75 8.25 15.75C7.83579 15.75 7.5 15.4142 7.5 15L7.5 1C7.5 0.585786 7.83579 0.25 8.25 0.25Z" fill-rule="EVENODD"></path>
  <path d="M4.75 1.25C5.16421 1.25 5.5 1.58579 5.5 2L5.5 14C5.5 14.4142 5.16421 14.75 4.75 14.75C4.33579 14.75 4 14.4142 4 14L4 2C4 1.58579 4.33579 1.25 4.75 1.25Z" fill-rule="EVENODD"></path>
  <path d="M11.75 1.25C12.1642 1.25 12.5 1.58579 12.5 2L12.5 14C12.5 14.4142 12.1642 14.75 11.75 14.75C11.3358 14.75 11 14.4142 11 14L11 2C11 1.58579 11.3358 1.25 11.75 1.25Z" fill-rule="EVENODD"></path>
 </g>
</svg>