<svg viewBox="0 0 24 24" width="24" height="24" fill="currentColor" xmlns="http://www.w3.org/2000/svg">
 <g transform="translate(1, 4)">
  <path d="M11 6.5C10.1716 6.5 9.5 7.17157 9.5 8C9.5 8.82843 10.1716 9.5 11 9.5C11.8284 9.5 12.5 8.82843 12.5 8C12.5 7.17157 11.8284 6.5 11 6.5ZM8 8C8 6.34315 9.34315 5 11 5C12.6569 5 14 6.34315 14 8C14 9.65685 12.6569 11 11 11C9.34315 11 8 9.65685 8 8Z" fill-rule="EVENODD"></path>
  <path d="M4.28195 0.21959C4.57489 0.512439 4.57496 0.987313 4.28211 1.28025C2.50073 3.06217 1.5 5.47866 1.5 7.9983C1.5 10.5179 2.50073 12.9344 4.28211 14.7163C4.57496 15.0093 4.57489 15.4842 4.28195 15.777C3.98901 16.0699 3.51414 16.0698 3.22129 15.7768C1.1587 13.7136 0 10.9157 0 7.9983C0 5.08091 1.1587 2.28297 3.22129 0.21975C3.51414 -0.0731874 3.98901 -0.0732591 4.28195 0.21959ZM17.718 0.21959C18.011 -0.0732591 18.4859 -0.0731874 18.7787 0.21975C20.8413 2.28297 22 5.08091 22 7.9983C22 10.9157 20.8413 13.7136 18.7787 15.7768C18.4859 16.0698 18.011 16.0699 17.718 15.777C17.4251 15.4842 17.425 15.0093 17.7179 14.7163C19.4993 12.9344 20.5 10.5179 20.5 7.9983C20.5 5.47866 19.4993 3.06217 17.7179 1.28025C17.425 0.987313 17.4251 0.512439 17.718 0.21959Z" fill-rule="EVENODD"></path>
  <path d="M7.10942 2.96566C7.40453 3.25632 7.40813 3.73118 7.11747 4.02629C6.60548 4.54611 6.19867 5.16407 5.92091 5.84514C5.64313 6.52623 5.5 7.25671 5.5 7.99471C5.5 8.7327 5.64313 9.46318 5.92091 10.1443C6.19867 10.8253 6.60548 11.4433 7.11747 11.9631C7.40813 12.2582 7.40453 12.7331 7.10942 13.0238C6.81431 13.3144 6.33945 13.3108 6.04879 13.0157C5.39852 12.3555 4.88329 11.5721 4.53198 10.7107C4.18067 9.84936 4 8.92646 4 7.99471C4 7.06295 4.18067 6.14005 4.53198 5.27868C4.88329 4.41728 5.39852 3.63392 6.04879 2.97371C6.33945 2.6786 6.81431 2.675 7.10942 2.96566ZM14.8906 2.97625C15.1857 2.68559 15.6606 2.68919 15.9512 2.9843C16.6015 3.64451 17.1167 4.42787 17.468 5.28927C17.8193 6.15064 18 7.07354 18 8.00529C18 8.93705 17.8193 9.85995 17.468 10.7213C17.1167 11.5827 16.6015 12.3661 15.9512 13.0263C15.6606 13.3214 15.1857 13.325 14.8906 13.0343C14.5955 12.7437 14.5919 12.2688 14.8825 11.9737C15.3945 11.4539 15.8013 10.8359 16.0791 10.1549C16.3569 9.47377 16.5 8.74329 16.5 8.00529C16.5 7.2673 16.3569 6.53682 16.0791 5.85573C15.8013 5.17466 15.3945 4.5567 14.8825 4.03688C14.5919 3.74177 14.5955 3.26691 14.8906 2.97625Z" fill-rule="EVENODD"></path>
 </g>
</svg>