<svg viewBox="0 0 24 24" width="24" height="24" fill="currentColor" xmlns="http://www.w3.org/2000/svg">
 <g transform="translate(2, 0.25)">
  <path d="M15.515 0.204742C15.2138 -0.0796667 14.7392 -0.0661045 14.4547 0.235034C14.1703 0.536173 14.1839 1.01085 14.485 1.29526L17.6136 4.25L4.75 4.25C3.49022 4.25 2.28204 4.75044 1.39124 5.64124C0.500445 6.53204 0 7.74022 0 9L0 11C0 11.4142 0.335786 11.75 0.75 11.75C1.16421 11.75 1.5 11.4142 1.5 11L1.5 9C1.5 8.13805 1.84241 7.3114 2.4519 6.7019C3.0614 6.09241 3.88805 5.75 4.75 5.75L17.6136 5.75L14.485 8.70474C14.1839 8.98915 14.1703 9.46383 14.4547 9.76497C14.7392 10.0661 15.2138 10.0797 15.515 9.79526L20.015 5.54526C20.165 5.40358 20.25 5.20635 20.25 5C20.25 4.79366 20.165 4.59642 20.015 4.45474L15.515 0.204742Z" fill-rule="NONZERO"></path>
  <path d="M6.04526 13.735C6.32967 14.0362 6.31611 14.5109 6.01497 14.7953L2.88642 17.75L15.25 17.75C16.112 17.75 16.9386 17.4076 17.5481 16.7981C18.1576 16.1886 18.5 15.362 18.5 14.5L18.5 12.5C18.5 12.0858 18.8358 11.75 19.25 11.75C19.6642 11.75 20 12.0858 20 12.5L20 14.5C20 15.7598 19.4996 16.968 18.6088 17.8588C17.718 18.7496 16.5098 19.25 15.25 19.25L2.88642 19.25L6.01497 22.2047C6.31611 22.4892 6.32967 22.9638 6.04526 23.265C5.76085 23.5661 5.28617 23.5797 4.98503 23.2953L0.485032 19.0453C0.335016 18.9036 0.25 18.7063 0.25 18.5C0.25 18.2937 0.335016 18.0964 0.485032 17.9547L4.98503 13.7047C5.28617 13.4203 5.76085 13.4339 6.04526 13.735Z" fill-rule="NONZERO"></path>
 </g>
</svg>