<svg viewBox="0 0 24 24" width="24" height="24" fill="currentColor" xmlns="http://www.w3.org/2000/svg">
 <g transform="translate(1.75, 2.27880859375)">
  <path d="M4.78033 15.1908C5.07322 15.4837 5.07322 15.9585 4.78033 16.2514L1.78033 19.2514C1.48744 19.5443 1.01256 19.5443 0.71967 19.2514C0.426777 18.9585 0.426777 18.4837 0.71967 18.1908L3.71967 15.1908C4.01256 14.8979 4.48744 14.8979 4.78033 15.1908Z" fill-rule="EVENODD"></path>
  <path d="M2.28033 13.6908C2.57322 13.9837 2.57322 14.4585 2.28033 14.7514L1.28033 15.7514C0.987437 16.0443 0.512563 16.0443 0.21967 15.7514C-0.0732233 15.4585 -0.0732233 14.9837 0.21967 14.6908L1.21967 13.6908C1.51256 13.3979 1.98744 13.3979 2.28033 13.6908Z" fill-rule="EVENODD"></path>
  <path d="M6.28033 17.6908C6.57322 17.9837 6.57322 18.4585 6.28033 18.7514L5.28033 19.7514C4.98744 20.0443 4.51256 20.0443 4.21967 19.7514C3.92678 19.4585 3.92678 18.9837 4.21967 18.6908L5.21967 17.6908C5.51256 17.3979 5.98744 17.3979 6.28033 17.6908Z" fill-rule="EVENODD"></path>
  <path d="M17.8799 0.0377708C19.1074 -0.217885 20.189 0.863702 19.9333 2.09124C19.5529 3.9177 18.8631 7.13865 18.1721 9.90301C17.6828 11.86 15.8835 13.3062 14.1359 14.3079C12.347 15.3332 10.4009 16.0114 9.30201 16.3506C8.38296 16.6344 7.52023 16.0996 7.15994 15.3677C6.92046 14.8812 6.57013 14.2963 6.12245 13.8487C5.67477 13.401 5.0899 13.0506 4.60343 12.8112C3.87154 12.4509 3.33674 11.5881 3.62046 10.6691C3.95969 9.57023 4.63786 7.62411 5.66321 5.83522C6.66491 4.08762 8.11111 2.2883 10.0681 1.79905C12.8325 1.10796 16.0534 0.418162 17.8799 0.0377708ZM18.4648 1.7854C18.5002 1.61576 18.3553 1.47093 18.1857 1.50626C16.3637 1.88572 13.1664 2.57064 10.4319 3.25427C9.11173 3.58431 7.93387 4.89011 6.96459 6.58115C6.01898 8.23092 5.37927 10.057 5.05372 11.1116C5.039 11.1592 5.04081 11.2148 5.07347 11.2803C5.10825 11.3501 5.17465 11.4205 5.26593 11.4654C5.82233 11.7393 6.57078 12.1757 7.18311 12.788C7.79543 13.4003 8.2318 14.1488 8.50571 14.7052C8.55064 14.7965 8.62104 14.8629 8.69079 14.8976C8.75628 14.9303 8.81187 14.9321 8.85955 14.9174C9.91412 14.5918 11.7402 13.9521 13.39 13.0065C15.081 12.0372 16.3868 10.8594 16.7168 9.5392C17.4005 6.80468 18.0854 3.60738 18.4648 1.7854Z" fill-rule="EVENODD"></path>
  <path d="M13.0303 6.94077C13.3232 7.23367 13.3232 7.70854 13.0303 8.00143L12.5303 8.50143C12.2374 8.79433 11.7626 8.79433 11.4697 8.50143C11.1768 8.20854 11.1768 7.73367 11.4697 7.44077L11.9697 6.94077C12.2626 6.64788 12.7374 6.64788 13.0303 6.94077Z" fill-rule="EVENODD"></path>
  <path d="M16.5227 11.0342C16.9328 11.0928 17.2177 11.4727 17.1591 11.8827L16.7024 15.08C16.6382 15.529 16.4023 15.9355 16.0444 16.2139L12.5276 18.9492C11.7647 19.5425 10.6652 19.4051 10.0718 18.6422L8.15794 16.1814C7.90364 15.8545 7.96255 15.3833 8.28951 15.129C8.61647 14.8747 9.08768 14.9336 9.34198 15.2605L11.2559 17.7213C11.3406 17.8303 11.4977 17.8499 11.6067 17.7651L15.1234 15.0299C15.1746 14.9901 15.2083 14.932 15.2174 14.8679L15.6742 11.6706C15.7328 11.2605 16.1127 10.9756 16.5227 11.0342Z" fill-rule="EVENODD"></path>
  <path d="M8.93691 3.44837C8.99549 3.85842 8.71056 4.23832 8.30051 4.2969L5.1032 4.75366C5.03907 4.76282 4.98099 4.79652 4.94122 4.84766L2.20597 8.3644C2.1212 8.47339 2.14084 8.63047 2.24983 8.71523L4.71044 10.6289C5.03741 10.8832 5.09632 11.3544 4.84203 11.6814C4.58774 12.0083 4.11653 12.0673 3.78956 11.813L1.32896 9.89929C0.566015 9.30593 0.42856 8.20642 1.02195 7.44349L3.75719 3.92675C4.03561 3.56878 4.44213 3.33287 4.89107 3.26873L8.08838 2.81197C8.49843 2.7534 8.87833 3.03832 8.93691 3.44837Z" fill-rule="EVENODD"></path>
 </g>
</svg>