<svg viewBox="0 0 24 24" width="24" height="24" fill="currentColor" xmlns="http://www.w3.org/2000/svg">
 <g transform="translate(2, 1)">
  <path d="M18.25 0C18.6642 0 19 0.335786 19 0.75L19 6.25C19 6.66421 18.6642 7 18.25 7L12.75 7C12.3358 7 12 6.66421 12 6.25C12 5.83579 12.3358 5.5 12.75 5.5L17.5 5.5L17.5 0.75C17.5 0.335786 17.8358 0 18.25 0Z" fill-rule="EVENODD"></path>
  <path d="M10 2.5C5.30558 2.5 1.5 6.30558 1.5 11C1.5 15.6944 5.30558 19.5 10 19.5C14.6944 19.5 18.5 15.6944 18.5 11C18.5 10.5858 18.8358 10.25 19.25 10.25C19.6642 10.25 20 10.5858 20 11C20 16.5228 15.5228 21 10 21C4.47715 21 0 16.5228 0 11C0 5.47715 4.47715 1 10 1C13.479 1 16.5426 2.77721 18.3329 5.46981C18.5622 5.81474 18.4685 6.28028 18.1236 6.50962C17.7787 6.73896 17.3131 6.64525 17.0838 6.30032C15.5597 4.00811 12.9558 2.5 10 2.5Z" fill-rule="EVENODD"></path>
 </g>
</svg>