<svg viewBox="0 0 24 24" width="24" height="24" fill="black" xmlns="http://www.w3.org/2000/svg">
 <g transform="translate(2.25, 2.25)">
  <path d="M14.3843 15.4448C12.862 16.7273 10.8963 17.5 8.75 17.5C3.91751 17.5 0 13.5825 0 8.75C0 3.91751 3.91751 0 8.75 0C13.5825 0 17.5 3.91751 17.5 8.75C17.5 10.8962 16.7273 12.8619 15.4449 14.3842L19.2804 18.2196C19.5732 18.5125 19.5732 18.9873 19.2804 19.2802C18.9875 19.5731 18.5126 19.5731 18.2197 19.2802L14.3843 15.4448ZM1.5 8.75C1.5 4.74594 4.74594 1.5 8.75 1.5C12.7541 1.5 16 4.74594 16 8.75C16 10.7105 15.2219 12.4892 13.9576 13.7942C13.9268 13.8167 13.8975 13.8418 13.8697 13.8696C13.8419 13.8973 13.8168 13.9267 13.7943 13.9575C12.4893 15.2218 10.7105 16 8.75 16C4.74594 16 1.5 12.7541 1.5 8.75Z" fill-rule="EVENODD"></path>
 </g>
</svg>