<svg viewBox="0 0 16 16" width="16" height="16" fill="black" xmlns="http://www.w3.org/2000/svg">
 <g transform="translate(0.80938720703125, 0.5908203125)">
  <path d="M14.5198 1.68484C14.8885 0.684201 13.9154 -0.288881 12.9148 0.0797756L0.818129 4.53644C-0.123764 4.88345 -0.293105 6.14309 0.523712 6.72653L4.77694 9.76455C4.79939 9.78059 4.81903 9.80023 4.83506 9.82267L7.87308 14.0759C8.45652 14.8927 9.71616 14.7234 10.0632 13.7815L14.5198 1.68484ZM1.78009 5.78059L12.9251 1.67455L8.81902 12.8195L6.2986 9.29093L9.68558 5.90396C9.95894 5.63059 9.95894 5.18738 9.68558 4.91401C9.41221 4.64064 8.96899 4.64064 8.69563 4.91401L5.30865 8.30099L1.78009 5.78059Z" fill-rule="EVENODD"></path>
 </g>
</svg>