<svg viewBox="0 0 16 16" width="16" height="16" fill="currentColor" xmlns="http://www.w3.org/2000/svg">
 <g transform="translate(1.0594043731689453, 0.8409814238548279)">
  <path d="M12.4251 1.67455L1.78009 5.59638L5.46459 8.22816C5.62173 8.34041 5.75921 8.47789 5.87145 8.63503L8.50323 12.3195L12.4251 1.67455ZM12.4148 0.0797754C13.4154 -0.28888 14.3885 0.684198 14.0198 1.68484L9.74739 13.2815C9.40038 14.2234 8.14073 14.3927 7.55729 13.5759L4.65085 9.50689C4.63482 9.48444 4.61518 9.4648 4.59273 9.44876L0.523712 6.54232C-0.293104 5.95888 -0.123766 4.69924 0.818128 4.35223L12.4148 0.0797754Z" fill-rule="EVENODD"></path>
  <path d="M9.18557 4.91404C9.45894 5.18741 9.45894 5.63063 9.18557 5.90399L5.68557 9.40399C5.4122 9.67736 4.96899 9.67736 4.69562 9.40399C4.42225 9.13063 4.42225 8.68741 4.69562 8.41404L8.19562 4.91404C8.46899 4.64068 8.9122 4.64068 9.18557 4.91404Z" fill-rule="EVENODD"></path>
 </g>
</svg>