<svg viewBox="0 0 24 24" width="24" height="24" fill="currentColor" xmlns="http://www.w3.org/2000/svg">
 <g transform="translate(2.118964910507202, 2.6835851669311523)">
  <path d="M17.6782 1.84021C17.752 1.64008 17.5574 1.44547 17.3572 1.5192L1.66394 7.30094C1.47556 7.37035 1.44169 7.62227 1.60505 7.73896L7.11555 11.675C7.27269 11.7873 7.41018 11.9248 7.52242 12.0819L11.4585 17.5924C11.5752 17.7558 11.8271 17.7219 11.8965 17.5335L17.6782 1.84021ZM16.8387 0.111686C18.2396 -0.404433 19.6019 0.957879 19.0858 2.35877L13.304 18.0521C12.8182 19.3707 11.0547 19.6078 10.2379 18.4643L6.30182 12.9538C6.28578 12.9313 6.26614 12.9117 6.2437 12.8956L0.733197 8.95956C-0.410344 8.14275 -0.173274 6.37925 1.14538 5.89343L16.8387 0.111686Z" fill-rule="EVENODD"></path>
  <path d="M13.4114 5.78608C13.7043 6.07898 13.7043 6.55385 13.4114 6.84675L7.41137 12.8467C7.11847 13.1396 6.6436 13.1396 6.35071 12.8467C6.05781 12.5539 6.05781 12.079 6.35071 11.7861L12.3507 5.78608C12.6436 5.49319 13.1185 5.49319 13.4114 5.78608Z" fill-rule="EVENODD"></path>
 </g>
</svg>