<svg viewBox="0 0 24 24" width="24" height="24" fill="currentColor" xmlns="http://www.w3.org/2000/svg">
 <g transform="translate(1.5, 0.5)">
  <path d="M10.5 0C9.11929 0 8 1.11929 8 2.5C8 3.61937 8.73567 4.56692 9.7499 4.88552L9.7499 6.55589C8.42107 6.75582 7.26407 7.47873 6.49456 8.50681L4.76369 7.56238C4.91528 7.23995 5 6.87987 5 6.5C5 5.11929 3.88071 4 2.5 4C1.11929 4 0 5.11929 0 6.5C0 7.88071 1.11929 9 2.5 9C2.93597 9 3.34587 8.8884 3.7027 8.69222L5.78615 9.82904C5.60072 10.3521 5.4999 10.9148 5.4999 11.5C5.4999 12.1154 5.61139 12.7059 5.81552 13.2516L4.04848 14.5372C3.62267 14.2008 3.08478 14 2.5 14C1.11929 14 0 15.1193 0 16.5C0 17.8807 1.11929 19 2.5 19C3.88071 19 5 17.8807 5 16.5C5 16.2486 4.9629 16.0059 4.89389 15.7771L6.55315 14.5699C7.32218 15.5572 8.45438 16.2492 9.7499 16.4441L9.7499 18.1145C8.73567 18.4331 8 19.3806 8 20.5C8 21.8807 9.11929 23 10.5 23C11.8807 23 13 21.8807 13 20.5C13 19.3806 12.2642 18.433 11.2499 18.1144L11.2499 16.4441C12.5454 16.2492 13.6776 15.5572 14.4466 14.5699L16.1061 15.7772C16.0371 16.006 16 16.2487 16 16.5C16 17.8807 17.1193 19 18.5 19C19.8807 19 21 17.8807 21 16.5C21 15.1193 19.8807 14 18.5 14C17.9152 14 17.3772 14.2008 16.9514 14.5372L15.1843 13.2516C15.3884 12.7059 15.4999 12.1154 15.4999 11.5C15.4999 10.9148 15.3991 10.3521 15.2136 9.82904L17.2972 8.69217C17.654 8.88838 18.064 9 18.5 9C19.8807 9 21 7.88071 21 6.5C21 5.11929 19.8807 4 18.5 4C17.1193 4 16 5.11929 16 6.5C16 6.87983 16.0847 7.23988 16.2363 7.56229L14.5052 8.50681C13.7357 7.47873 12.5787 6.75582 11.2499 6.55589L11.2499 4.88558C12.2642 4.56705 13 3.61945 13 2.5C13 1.11929 11.8807 0 10.5 0ZM9.5 2.5C9.5 1.94772 9.94772 1.5 10.5 1.5C11.0523 1.5 11.5 1.94772 11.5 2.5C11.5 3.05228 11.0523 3.5 10.5 3.5C9.94772 3.5 9.5 3.05228 9.5 2.5ZM2.5 5.5C1.94772 5.5 1.5 5.94772 1.5 6.5C1.5 7.05228 1.94772 7.5 2.5 7.5C3.05228 7.5 3.5 7.05228 3.5 6.5C3.5 5.94772 3.05228 5.5 2.5 5.5ZM2.5 15.5C1.94772 15.5 1.5 15.9477 1.5 16.5C1.5 17.0523 1.94772 17.5 2.5 17.5C3.05228 17.5 3.5 17.0523 3.5 16.5C3.5 15.9477 3.05228 15.5 2.5 15.5ZM9.5 20.5C9.5 19.9477 9.94772 19.5 10.5 19.5C11.0523 19.5 11.5 19.9477 11.5 20.5C11.5 21.0523 11.0523 21.5 10.5 21.5C9.94772 21.5 9.5 21.0523 9.5 20.5ZM18.5 15.5C17.9477 15.5 17.5 15.9477 17.5 16.5C17.5 17.0523 17.9477 17.5 18.5 17.5C19.0523 17.5 19.5 17.0523 19.5 16.5C19.5 15.9477 19.0523 15.5 18.5 15.5ZM18.5 5.5C17.9477 5.5 17.5 5.94772 17.5 6.5C17.5 7.05228 17.9477 7.5 18.5 7.5C19.0523 7.5 19.5 7.05228 19.5 6.5C19.5 5.94772 19.0523 5.5 18.5 5.5ZM7.41044 9.85345C8.00063 8.74888 9.16339 8 10.4999 8C11.8364 8 12.9992 8.74888 13.5894 9.85345C13.8512 10.3434 13.9999 10.9032 13.9999 11.5C13.9999 12.0968 13.8512 12.6566 13.5894 13.1466C12.9992 14.2511 11.8364 15 10.4999 15C9.16339 15 8.00063 14.2511 7.41044 13.1466C7.14864 12.6566 6.9999 12.0968 6.9999 11.5C6.9999 10.9032 7.14864 10.3434 7.41044 9.85345Z" fill-rule="EVENODD"></path>
 </g>
</svg>