<svg viewBox="0 0 24 24" width="24" height="24" fill="currentColor" xmlns="http://www.w3.org/2000/svg">
 <g transform="translate(0.5, 0.5)">
  <path d="M4.75 1.25C4.75 0.835786 5.08579 0.5 5.5 0.5L19.75 0.5C21.2688 0.5 22.5 1.73122 22.5 3.25L22.5 7.75C22.5 9.26878 21.2688 10.5 19.75 10.5L14 10.5C13.5858 10.5 13.25 10.1642 13.25 9.75C13.25 9.33579 13.5858 9 14 9L19.75 9C20.4404 9 21 8.44036 21 7.75L21 3.25C21 2.55964 20.4404 2 19.75 2L5.5 2C5.08579 2 4.75 1.66421 4.75 1.25ZM2.36612 1.30546C2.65901 1.59835 2.65901 2.07322 2.36612 2.36612C2.13909 2.59314 2 2.90461 2 3.25L2 7.75C2 8.44036 2.55964 9 3.25 9L9.5 9C9.91421 9 10.25 9.33579 10.25 9.75C10.25 10.1642 9.91421 10.5 9.5 10.5L3.25 10.5C1.73122 10.5 0.5 9.26878 0.5 7.75L0.5 3.25C0.5 2.49082 0.808625 1.80229 1.30546 1.30546C1.59835 1.01256 2.07322 1.01256 2.36612 1.30546Z" fill-rule="EVENODD"></path>
  <path d="M0.5 15.25C0.5 13.7312 1.73122 12.5 3.25 12.5L13 12.5C13.4142 12.5 13.75 12.8358 13.75 13.25C13.75 13.6642 13.4142 14 13 14L3.25 14C2.55964 14 2 14.5596 2 15.25L2 19.75C2 20.4404 2.55964 21 3.25 21L19.75 21C20.056 21 20.3346 20.891 20.552 20.7088C20.8695 20.4428 21.3426 20.4845 21.6086 20.802C21.8746 21.1195 21.8329 21.5926 21.5154 21.8586C21.038 22.2585 20.4212 22.5 19.75 22.5L3.25 22.5C1.73122 22.5 0.5 21.2688 0.5 19.75L0.5 15.25ZM16.75 13.25C16.75 12.8358 17.0858 12.5 17.5 12.5L19.75 12.5C21.2688 12.5 22.5 13.7312 22.5 15.25L22.5 17.5C22.5 17.9142 22.1642 18.25 21.75 18.25C21.3358 18.25 21 17.9142 21 17.5L21 15.25C21 14.5596 20.4404 14 19.75 14L17.5 14C17.0858 14 16.75 13.6642 16.75 13.25Z" fill-rule="EVENODD"></path>
  <path d="M4.5 17.25C4.5 16.8358 4.83579 16.5 5.25 16.5L5.75 16.5C6.16421 16.5 6.5 16.8358 6.5 17.25C6.5 17.6642 6.16421 18 5.75 18L5.25 18C4.83579 18 4.5 17.6642 4.5 17.25Z" fill-rule="EVENODD"></path>
  <path d="M0.21967 0.21967C0.512563 -0.0732233 0.987437 -0.0732233 1.28033 0.21967L22.7803 21.7197C23.0732 22.0126 23.0732 22.4874 22.7803 22.7803C22.4874 23.0732 22.0126 23.0732 21.7197 22.7803L0.21967 1.28033C-0.0732233 0.987437 -0.0732233 0.512563 0.21967 0.21967Z" fill-rule="EVENODD"></path>
 </g>
</svg>