<svg viewBox="0 0 16 16" width="16" height="16" fill="currentColor" xmlns="http://www.w3.org/2000/svg">
 <g transform="translate(1, 0.08823307603597641)">
  <path d="M6.2605 0.124997C6.73941 -0.0416658 7.26059 -0.0416655 7.7395 0.124997L12.4895 1.778C13.3939 2.09273 14 2.9454 14 3.903L14 7.91177C14 9.96033 12.8189 11.6597 11.5495 12.9037C10.2683 14.1591 8.79278 15.0544 7.97686 15.5015C7.36525 15.8367 6.63475 15.8367 6.02314 15.5015C5.20722 15.0544 3.73174 14.1591 2.45054 12.9037C1.18107 11.6597 0 9.96033 0 7.91177L0 3.903C0 2.9454 0.606102 2.09273 1.5105 1.778L6.2605 0.124997ZM7.2465 1.54167C7.08686 1.48611 6.91314 1.48611 6.7535 1.54167L2.0035 3.19467C1.70203 3.29958 1.5 3.5838 1.5 3.903L1.5 7.91177C1.5 9.36779 2.34728 10.7024 3.50037 11.8323C4.64173 12.9507 5.98302 13.7691 6.74394 14.1861C6.90652 14.2752 7.09348 14.2752 7.25606 14.1861C8.01698 13.7691 9.35826 12.9507 10.4996 11.8323C11.6527 10.7024 12.5 9.36779 12.5 7.91177L12.5 3.903C12.5 3.5838 12.298 3.29958 11.9965 3.19467L7.2465 1.54167Z" fill-rule="EVENODD"></path>
  <path d="M10.2803 5.38144C10.5732 5.67433 10.5732 6.1492 10.2803 6.4421L6.28033 10.4421C5.98744 10.735 5.51256 10.735 5.21967 10.4421C4.92678 10.1492 4.92678 9.67433 5.21967 9.38144L9.21967 5.38144C9.51256 5.08854 9.98744 5.08854 10.2803 5.38144Z" fill-rule="EVENODD"></path>
  <path d="M3.21967 7.38144C3.51256 7.08854 3.98744 7.08854 4.28033 7.38144L6.28033 9.38144C6.57322 9.67433 6.57322 10.1492 6.28033 10.4421C5.98744 10.735 5.51256 10.735 5.21967 10.4421L3.21967 8.4421C2.92678 8.1492 2.92678 7.67433 3.21967 7.38144Z" fill-rule="EVENODD"></path>
 </g>
</svg>