<svg viewBox="0 0 24 24" width="24" height="24" fill="currentColor" xmlns="http://www.w3.org/2000/svg">
 <g transform="translate(2, 2)">
  <path d="M19.7803 0.21967C20.0732 0.512563 20.0732 0.987437 19.7803 1.28033L1.28033 19.7803C0.987437 20.0732 0.512563 20.0732 0.21967 19.7803C-0.0732233 19.4874 -0.0732233 19.0126 0.21967 18.7197L18.7197 0.21967C19.0126 -0.0732233 19.4874 -0.0732233 19.7803 0.21967Z" fill-rule="EVENODD"></path>
  <path d="M19.25 7C18.8358 7 18.5 6.66421 18.5 6.25L18.5 1.5L13.75 1.5C13.3358 1.5 13 1.16421 13 0.75C13 0.335786 13.3358 0 13.75 0L19.25 0C19.6642 0 20 0.335786 20 0.75L20 6.25C20 6.66421 19.6642 7 19.25 7Z" fill-rule="EVENODD"></path>
  <path d="M19.7803 19.7803C20.0732 19.4874 20.0732 19.0126 19.7803 18.7197L13.5303 12.4697C13.2374 12.1768 12.7626 12.1768 12.4697 12.4697C12.1768 12.7626 12.1768 13.2374 12.4697 13.5303L18.7197 19.7803C19.0126 20.0732 19.4874 20.0732 19.7803 19.7803ZM7.53033 7.53033C7.82322 7.23744 7.82322 6.76256 7.53033 6.46967L1.28033 0.219669C0.987437 -0.0732231 0.512563 -0.0732231 0.21967 0.219669C-0.0732233 0.512564 -0.0732233 0.987436 0.21967 1.28033L6.46967 7.53033C6.76256 7.82322 7.23744 7.82322 7.53033 7.53033Z" fill-rule="EVENODD"></path>
  <path d="M19.25 13C18.8358 13 18.5 13.3358 18.5 13.75L18.5 18.5L13.75 18.5C13.3358 18.5 13 18.8358 13 19.25C13 19.6642 13.3358 20 13.75 20L19.25 20C19.6642 20 20 19.6642 20 19.25L20 13.75C20 13.3358 19.6642 13 19.25 13Z" fill-rule="EVENODD"></path>
 </g>
</svg>