<svg viewBox="0 0 24 24" width="24" height="24" fill="currentColor" xmlns="http://www.w3.org/2000/svg">
 <g transform="translate(2, 2)">
  <path d="M14.765 6.29526C15.0661 6.01085 15.0797 5.53617 14.7953 5.23503C14.5109 4.9339 14.0362 4.92033 13.735 5.20474L9.23503 9.45474C9.08502 9.59642 9 9.79366 9 10C9 10.2063 9.08502 10.4036 9.23503 10.5453L13.735 14.7953C14.0362 15.0797 14.5109 15.0661 14.7953 14.765C15.0797 14.4638 15.0661 13.9892 14.765 13.7047L10.8423 10L14.765 6.29526Z" fill-rule="NONZERO"></path>
  <path d="M0 2.75C0 1.23122 1.23122 0 2.75 0L17.25 0C18.7688 0 20 1.23122 20 2.75L20 17.25C20 18.7688 18.7688 20 17.25 20L2.75 20C1.23122 20 0 18.7688 0 17.25L0 2.75ZM2.75 1.5C2.05964 1.5 1.5 2.05964 1.5 2.75L1.5 17.25C1.5 17.9404 2.05964 18.5 2.75 18.5L5 18.5L5 1.5L2.75 1.5ZM17.25 18.5L6.5 18.5L6.5 1.5L17.25 1.5C17.9404 1.5 18.5 2.05964 18.5 2.75L18.5 17.25C18.5 17.9404 17.9404 18.5 17.25 18.5Z" fill-rule="EVENODD"></path>
 </g>
</svg>