<svg viewBox="0 0 24 24" width="24" height="24" fill="currentColor" xmlns="http://www.w3.org/2000/svg">
 <g transform="translate(4, 4.18505859375)">
  <path d="M2.76417 0.326905C1.60553 -0.497015 0 0.33136 0 1.75308L0 13.8767C0 15.2984 1.60553 16.1268 2.76417 15.3029L11.2886 9.24108C12.2697 8.5434 12.2697 7.08641 11.2886 6.38873L2.76417 0.326905ZM1.5 1.75308C1.5 1.54997 1.72936 1.43164 1.89488 1.54934L10.4193 7.61117C10.5595 7.71083 10.5595 7.91897 10.4193 8.01864L1.89488 14.0805C1.72936 14.1982 1.5 14.0798 1.5 13.8767L1.5 1.75308Z" fill-rule="EVENODD"></path>
  <path d="M15.5 0.814941C15.5 0.400728 15.1642 0.0649414 14.75 0.0649414C14.3358 0.0649414 14 0.400728 14 0.814941L14 14.8149C14 15.2292 14.3358 15.5649 14.75 15.5649C15.1642 15.5649 15.5 15.2292 15.5 14.8149L15.5 0.814941Z" fill-rule="NONZERO"></path>
 </g>
</svg>