<svg viewBox="0 0 16 16" width="16" height="16" fill="currentColor" xmlns="http://www.w3.org/2000/svg">
 <g transform="translate(2, 2.176858901977539)">
  <path d="M0 1.75306C0 0.334127 1.59997 -0.494907 2.7592 0.323368L8.52514 4.39345C9.51288 5.09067 9.51288 6.55561 8.52514 7.25283L2.7592 11.3229C1.59997 12.1412 0 11.3122 0 9.89322L0 1.75306ZM1.89417 1.54882C1.72857 1.43192 1.5 1.55036 1.5 1.75306L1.5 9.89322C1.5 10.0959 1.72857 10.2144 1.89417 10.0975L7.66012 6.02738C7.80122 5.92778 7.80122 5.7185 7.66012 5.6189L1.89417 1.54882Z" fill-rule="EVENODD"></path>
  <path d="M11.25 0.0731411C11.6642 0.0731411 12 0.408928 12 0.823141L12 10.8231C12 11.2374 11.6642 11.5731 11.25 11.5731C10.8358 11.5731 10.5 11.2374 10.5 10.8231L10.5 0.823141C10.5 0.408928 10.8358 0.0731411 11.25 0.0731411Z" fill-rule="EVENODD"></path>
 </g>
</svg>