<svg viewBox="0 0 24 24" width="24" height="24" fill="currentColor" xmlns="http://www.w3.org/2000/svg">
 <g transform="translate(1, 1)">
  <path d="M11 1.5C5.75329 1.5 1.5 5.75329 1.5 11C1.5 16.2467 5.75329 20.5 11 20.5C16.2467 20.5 20.5 16.2467 20.5 11C20.5 5.75329 16.2467 1.5 11 1.5ZM0 11C0 4.92487 4.92487 0 11 0C17.0751 0 22 4.92487 22 11C22 17.0751 17.0751 22 11 22C4.92487 22 0 17.0751 0 11Z" fill-rule="EVENODD"></path>
  <path d="M18.7803 3.21967C18.4874 2.92678 18.0126 2.92678 17.7197 3.21967L3.21967 17.7197C2.92678 18.0126 2.92678 18.4874 3.21967 18.7803C3.51256 19.0732 3.98744 19.0732 4.28033 18.7803L18.7803 4.28033C19.0732 3.98744 19.0732 3.51256 18.7803 3.21967Z" fill-rule="EVENODD"></path>
 </g>
</svg>