<svg viewBox="0 0 24 24" width="24" height="24" fill="currentColor" xmlns="http://www.w3.org/2000/svg">
 <g transform="translate(0.25, 2.5)">
  <path d="M3.5 10.5C3.91421 10.5 4.25 10.8358 4.25 11.25L4.25 18.25C4.25 18.6642 3.91421 19 3.5 19C3.08579 19 2.75 18.6642 2.75 18.25L2.75 11.25C2.75 10.8358 3.08579 10.5 3.5 10.5Z" fill-rule="EVENODD"></path>
  <path d="M3.5 0C3.91421 0 4.25 0.335786 4.25 0.75L4.25 7.75C4.25 8.16421 3.91421 8.5 3.5 8.5C3.08579 8.5 2.75 8.16421 2.75 7.75L2.75 0.75C2.75 0.335786 3.08579 0 3.5 0Z" fill-rule="EVENODD"></path>
  <path d="M11.5 8.5C11.9142 8.5 12.25 8.83579 12.25 9.25L12.25 18.25C12.25 18.6642 11.9142 19 11.5 19C11.0858 19 10.75 18.6642 10.75 18.25L10.75 9.25C10.75 8.83579 11.0858 8.5 11.5 8.5Z" fill-rule="EVENODD"></path>
  <path d="M11.5 0C11.9142 0 12.25 0.335786 12.25 0.75L12.25 5.75C12.25 6.16421 11.9142 6.5 11.5 6.5C11.0858 6.5 10.75 6.16421 10.75 5.75L10.75 0.75C10.75 0.335786 11.0858 0 11.5 0Z" fill-rule="EVENODD"></path>
  <path d="M19.5 12.5C19.9142 12.5 20.25 12.8358 20.25 13.25L20.25 18.25C20.25 18.6642 19.9142 19 19.5 19C19.0858 19 18.75 18.6642 18.75 18.25L18.75 13.25C18.75 12.8358 19.0858 12.5 19.5 12.5Z" fill-rule="EVENODD"></path>
  <path d="M19.5 0C19.9142 0 20.25 0.335786 20.25 0.75L20.25 9.75C20.25 10.1642 19.9142 10.5 19.5 10.5C19.0858 10.5 18.75 10.1642 18.75 9.75L18.75 0.75C18.75 0.335786 19.0858 0 19.5 0Z" fill-rule="EVENODD"></path>
  <path d="M0 11.25C0 10.8358 0.335786 10.5 0.75 10.5L6.25 10.5C6.66421 10.5 7 10.8358 7 11.25C7 11.6642 6.66421 12 6.25 12L0.75 12C0.335786 12 0 11.6642 0 11.25Z" fill-rule="EVENODD"></path>
  <path d="M8 5.75C8 5.33579 8.33579 5 8.75 5L14.25 5C14.6642 5 15 5.33579 15 5.75C15 6.16421 14.6642 6.5 14.25 6.5L8.75 6.5C8.33579 6.5 8 6.16421 8 5.75Z" fill-rule="EVENODD"></path>
  <path d="M16 13.25C16 12.8358 16.3358 12.5 16.75 12.5L22.25 12.5C22.6642 12.5 23 12.8358 23 13.25C23 13.6642 22.6642 14 22.25 14L16.75 14C16.3358 14 16 13.6642 16 13.25Z" fill-rule="EVENODD"></path>
 </g>
</svg>