<svg viewBox="0 0 16 16" width="16" height="16" fill="currentColor" xmlns="http://www.w3.org/2000/svg">
 <g transform="translate(2.25, 3)">
  <path d="M0 0.75C0 0.335786 0.335786 0 0.75 0L10.75 0C11.1642 0 11.5 0.335786 11.5 0.75C11.5 1.16421 11.1642 1.5 10.75 1.5L0.75 1.5C0.335786 1.5 0 1.16421 0 0.75Z" fill-rule="NONZERO"></path>
  <path d="M0.75 3C0.335786 3 0 3.33579 0 3.75C0 4.16421 0.335786 4.5 0.75 4.5L6.75 4.5C7.16421 4.5 7.5 4.16421 7.5 3.75C7.5 3.33579 7.16421 3 6.75 3L0.75 3Z" fill-rule="NONZERO"></path>
  <path d="M9.71291 10.9431C9.80134 10.9798 9.89831 11 10 11C10.1017 11 10.1987 10.9798 10.2871 10.9431C10.3755 10.9065 10.4584 10.8522 10.5303 10.7803L13.5303 7.78033C13.8232 7.48744 13.8232 7.01256 13.5303 6.71967C13.2374 6.42678 12.7626 6.42678 12.4697 6.71967L10.75 8.43934L10.75 3.75C10.75 3.33579 10.4142 3 10 3C9.58579 3 9.25 3.33579 9.25 3.75L9.25 8.43934L7.53033 6.71967C7.23744 6.42678 6.76256 6.42678 6.46967 6.71967C6.17678 7.01256 6.17678 7.48744 6.46967 7.78033L9.46967 10.7803C9.54158 10.8522 9.62445 10.9065 9.71291 10.9431Z" fill-rule="NONZERO"></path>
  <path d="M0.75 6C0.335786 6 0 6.33579 0 6.75C0 7.16421 0.335786 7.5 0.75 7.5L3.75 7.5C4.16421 7.5 4.5 7.16421 4.5 6.75C4.5 6.33579 4.16421 6 3.75 6L0.75 6Z" fill-rule="NONZERO"></path>
  <path d="M0 9.75C0 9.33579 0.335786 9 0.75 9L3.75 9C4.16421 9 4.5 9.33579 4.5 9.75C4.5 10.1642 4.16421 10.5 3.75 10.5L0.75 10.5C0.335786 10.5 0 10.1642 0 9.75Z" fill-rule="NONZERO"></path>
 </g>
</svg>