<svg viewBox="0 0 24 24" width="24" height="24" fill="currentColor" xmlns="http://www.w3.org/2000/svg">
 <g transform="translate(3, 3)">
  <path d="M14.25 0C13.8358 7.46284e-10 13.5 0.335786 13.5 0.75L13.5 10.75C13.5 11.1642 13.8358 11.5 14.25 11.5C14.6642 11.5 15 11.1642 15 10.75L15 0.75C15 0.335786 14.6642 -7.46284e-10 14.25 0Z" fill-rule="EVENODD"></path>
  <path d="M0 10.75C-1.01453e-16 11.1642 0.335786 11.5 0.75 11.5L10.25 11.5C10.6642 11.5 11 11.1642 11 10.75C11 10.3358 10.6642 10 10.25 10L0.75 10C0.335786 10 1.01453e-16 10.3358 0 10.75Z" fill-rule="EVENODD"></path>
  <path d="M0 14.75C-1.01453e-16 15.1642 0.335786 15.5 0.75 15.5L17.25 15.5C17.6642 15.5 18 15.1642 18 14.75C18 14.3358 17.6642 14 17.25 14L0.75 14C0.335786 14 1.01453e-16 14.3358 0 14.75Z" fill-rule="EVENODD"></path>
  <path d="M0 6.75C-1.01453e-16 7.16421 0.335786 7.5 0.75 7.5L6.25 7.5C6.66421 7.5 7 7.16421 7 6.75C7 6.33579 6.66421 6 6.25 6L0.75 6C0.335786 6 1.01453e-16 6.33579 0 6.75Z" fill-rule="EVENODD"></path>
  <path d="M0 2.75C-1.01453e-16 3.16421 0.335786 3.5 0.75 3.5L4.25 3.5C4.66421 3.5 5 3.16421 5 2.75C5 2.33579 4.66421 2 4.25 2L0.75 2C0.335786 2 1.01453e-16 2.33579 0 2.75Z" fill-rule="EVENODD"></path>
  <path d="M18.7803 5.28033C19.0732 4.98744 19.0732 4.51256 18.7803 4.21967L14.7803 0.21967C14.4874 -0.0732231 14.0126 -0.0732231 13.7197 0.21967L9.71967 4.21967C9.42678 4.51256 9.42678 4.98744 9.71967 5.28033C10.0126 5.57322 10.4874 5.57322 10.7803 5.28033L14.25 1.81066L17.7197 5.28033C18.0126 5.57322 18.4874 5.57322 18.7803 5.28033Z" fill-rule="EVENODD"></path>
 </g>
</svg>