<svg viewBox="0 0 24 24" width="24" height="24" fill="currentColor" xmlns="http://www.w3.org/2000/svg">
 <g transform="translate(3, 5)">
  <path d="M14.25 15.5C13.8358 15.5 13.5 15.1642 13.5 14.75L13.5 4.75C13.5 4.33579 13.8358 4 14.25 4C14.6642 4 15 4.33579 15 4.75L15 14.75C15 15.1642 14.6642 15.5 14.25 15.5Z" fill-rule="EVENODD"></path>
  <path d="M0 4.75C-1.01453e-16 4.33579 0.335786 4 0.75 4L10.25 4C10.6642 4 11 4.33579 11 4.75C11 5.16421 10.6642 5.5 10.25 5.5L0.75 5.5C0.335786 5.5 1.01453e-16 5.16421 0 4.75Z" fill-rule="EVENODD"></path>
  <path d="M0 0.75C-1.01453e-16 0.335786 0.335786 1.01453e-16 0.75 0L17.25 0C17.6642 -1.01453e-16 18 0.335786 18 0.75C18 1.16421 17.6642 1.5 17.25 1.5L0.75 1.5C0.335786 1.5 1.01453e-16 1.16421 0 0.75Z" fill-rule="EVENODD"></path>
  <path d="M0 8.75C-1.01453e-16 8.33579 0.335786 8 0.75 8L6.25 8C6.66421 8 7 8.33579 7 8.75C7 9.16421 6.66421 9.5 6.25 9.5L0.75 9.5C0.335786 9.5 1.01453e-16 9.16421 0 8.75Z" fill-rule="EVENODD"></path>
  <path d="M0 12.75C-1.01453e-16 12.3358 0.335786 12 0.75 12L4.25 12C4.66421 12 5 12.3358 5 12.75C5 13.1642 4.66421 13.5 4.25 13.5L0.75 13.5C0.335786 13.5 1.01453e-16 13.1642 0 12.75Z" fill-rule="EVENODD"></path>
  <path d="M18.7803 10.2197C19.0732 10.5126 19.0732 10.9874 18.7803 11.2803L14.7803 15.2803C14.4874 15.5732 14.0126 15.5732 13.7197 15.2803L9.71967 11.2803C9.42678 10.9874 9.42678 10.5126 9.71967 10.2197C10.0126 9.92678 10.4874 9.92678 10.7803 10.2197L14.25 13.6893L17.7197 10.2197C18.0126 9.92678 18.4874 9.92678 18.7803 10.2197Z" fill-rule="EVENODD"></path>
 </g>
</svg>