<svg viewBox="0 0 24 24" width="24" height="24" fill="currentColor" xmlns="http://www.w3.org/2000/svg">
 <g transform="translate(3, 1)">
  <path d="M0 2.75C0 1.23122 1.23122 0 2.75 0L15.25 0C16.7688 0 18 1.23122 18 2.75L18 19.25C18 20.7688 16.7688 22 15.25 22L2.75 22C1.23122 22 0 20.7688 0 19.25L0 2.75ZM2.75 1.5C2.05964 1.5 1.5 2.05964 1.5 2.75L1.5 19.25C1.5 19.9404 2.05964 20.5 2.75 20.5L15.25 20.5C15.9404 20.5 16.5 19.9404 16.5 19.25L16.5 2.75C16.5 2.05964 15.9404 1.5 15.25 1.5L2.75 1.5Z" fill-rule="EVENODD"></path>
  <path d="M9 9.5C7.067 9.5 5.5 11.067 5.5 13C5.5 14.933 7.067 16.5 9 16.5C10.933 16.5 12.5 14.933 12.5 13C12.5 11.067 10.933 9.5 9 9.5ZM4 13C4 10.2386 6.23858 8 9 8C11.7614 8 14 10.2386 14 13C14 15.7614 11.7614 18 9 18C6.23858 18 4 15.7614 4 13Z" fill-rule="EVENODD"></path>
 </g>
</svg>