<svg viewBox="0 0 24 24" width="24" height="24" fill="currentColor" xmlns="http://www.w3.org/2000/svg">
 <g transform="translate(0.9999781847000122, 1)">
  <path d="M11 0C11.2855 0 11.5462 0.162082 11.6726 0.418094L14.6655 6.48285L21.3585 7.46136C21.6409 7.50265 21.8754 7.70063 21.9634 7.97212C22.0515 8.2436 21.9778 8.54152 21.7734 8.74068L16.9309 13.4584L18.0737 20.1232C18.122 20.4046 18.0063 20.689 17.7753 20.8568C17.5443 21.0246 17.2381 21.0467 16.9854 20.9138L11 17.7654L5.01467 20.9138C4.76199 21.0467 4.45576 21.0246 4.22476 20.8568C3.99376 20.689 3.87806 20.4046 3.92631 20.1232L5.06915 13.4584L0.22666 8.74068C0.022234 8.54152 -0.0514414 8.2436 0.0365968 7.97212C0.124635 7.70063 0.359127 7.50265 0.641526 7.46136L7.33453 6.48285L10.3275 0.418094C10.4538 0.162082 10.7145 0 11 0Z" fill-rule="EVENODD"></path>
 </g>
</svg>