<svg viewBox="0 0 24 24" width="24" height="24" fill="currentColor" xmlns="http://www.w3.org/2000/svg">
 <g transform="translate(1, 1)">
  <path d="M7.75 6C6.7835 6 6 6.7835 6 7.75L6 14.25C6 15.2165 6.7835 16 7.75 16L14.25 16C15.2165 16 16 15.2165 16 14.25L16 7.75C16 6.7835 15.2165 6 14.25 6L7.75 6ZM7.5 7.75C7.5 7.61193 7.61193 7.5 7.75 7.5L14.25 7.5C14.3881 7.5 14.5 7.61193 14.5 7.75L14.5 14.25C14.5 14.3881 14.3881 14.5 14.25 14.5L7.75 14.5C7.61193 14.5 7.5 14.3881 7.5 14.25L7.5 7.75Z" fill-rule="EVENODD"></path>
  <path d="M11 0C4.92487 0 0 4.92487 0 11C0 17.0751 4.92487 22 11 22C17.0751 22 22 17.0751 22 11C22 4.92487 17.0751 0 11 0ZM1.5 11C1.5 5.75329 5.75329 1.5 11 1.5C16.2467 1.5 20.5 5.75329 20.5 11C20.5 16.2467 16.2467 20.5 11 20.5C5.75329 20.5 1.5 16.2467 1.5 11Z" fill-rule="EVENODD"></path>
 </g>
</svg>