<svg viewBox="0 0 24 24" width="24" height="24" fill="currentColor" xmlns="http://www.w3.org/2000/svg">
 <g transform="translate(0.25, 0.25)">
  <path d="M11.75 0C12.1642 0 12.5 0.335786 12.5 0.75L12.5 2.75C12.5 3.16421 12.1642 3.5 11.75 3.5C11.3358 3.5 11 3.16421 11 2.75L11 0.75C11 0.335786 11.3358 0 11.75 0Z" fill-rule="NONZERO"></path>
  <path d="M5.75 11.75C5.75 8.43629 8.43629 5.75 11.75 5.75C15.0637 5.75 17.75 8.43629 17.75 11.75C17.75 15.0637 15.0637 17.75 11.75 17.75C8.43629 17.75 5.75 15.0637 5.75 11.75ZM11.75 7.25C9.26472 7.25 7.25 9.26472 7.25 11.75C7.25 14.2353 9.26472 16.25 11.75 16.25C14.2353 16.25 16.25 14.2353 16.25 11.75C16.25 9.26472 14.2353 7.25 11.75 7.25Z" fill-rule="EVENODD"></path>
  <path d="M12.5 20.75C12.5 20.3358 12.1642 20 11.75 20C11.3358 20 11 20.3358 11 20.75L11 22.75C11 23.1642 11.3358 23.5 11.75 23.5C12.1642 23.5 12.5 23.1642 12.5 22.75L12.5 20.75Z" fill-rule="NONZERO"></path>
  <path d="M3.43964 3.43988C3.73253 3.14699 4.20741 3.14699 4.5003 3.43988L5.9203 4.85988C6.21319 5.15278 6.21319 5.62765 5.9203 5.92054C5.62741 6.21344 5.15253 6.21344 4.85964 5.92054L3.43964 4.50055C3.14675 4.20765 3.14675 3.73278 3.43964 3.43988Z" fill-rule="NONZERO"></path>
  <path d="M18.6404 17.5795C18.3475 17.2866 17.8727 17.2866 17.5798 17.5795C17.2869 17.8724 17.2869 18.3473 17.5798 18.6402L18.9998 20.0602C19.2927 20.3531 19.7675 20.3531 20.0604 20.0602C20.3533 19.7673 20.3533 19.2924 20.0604 18.9995L18.6404 17.5795Z" fill-rule="NONZERO"></path>
  <path d="M0 11.75C0 11.3358 0.335786 11 0.75 11L2.75 11C3.16421 11 3.5 11.3358 3.5 11.75C3.5 12.1642 3.16421 12.5 2.75 12.5L0.75 12.5C0.335786 12.5 0 12.1642 0 11.75Z" fill-rule="NONZERO"></path>
  <path d="M20.75 11C20.3358 11 20 11.3358 20 11.75C20 12.1642 20.3358 12.5 20.75 12.5L22.75 12.5C23.1642 12.5 23.5 12.1642 23.5 11.75C23.5 11.3358 23.1642 11 22.75 11L20.75 11Z" fill-rule="NONZERO"></path>
  <path d="M5.9203 17.5795C6.21319 17.8724 6.21319 18.3473 5.9203 18.6402L4.5003 20.0602C4.20741 20.3531 3.73253 20.3531 3.43964 20.0602C3.14675 19.7673 3.14675 19.2924 3.43964 18.9995L4.85964 17.5795C5.15253 17.2866 5.62741 17.2866 5.9203 17.5795Z" fill-rule="NONZERO"></path>
  <path d="M20.0604 4.50055C20.3533 4.20765 20.3533 3.73278 20.0604 3.43988C19.7675 3.14699 19.2927 3.14699 18.9998 3.43988L17.5798 4.85988C17.2869 5.15278 17.2869 5.62765 17.5798 5.92054C17.8727 6.21344 18.3475 6.21344 18.6404 5.92054L20.0604 4.50055Z" fill-rule="NONZERO"></path>
 </g>
</svg>