<svg viewBox="0 0 16 16" width="16" height="16" fill="currentColor" xmlns="http://www.w3.org/2000/svg">
 <g transform="translate(0, 1)">
  <path d="M0 2.25C0 1.00736 1.00736 0 2.25 0L13.75 0C14.9926 0 16 1.00736 16 2.25L16 11.75C16 12.9926 14.9926 14 13.75 14L2.25 14C1.00736 14 0 12.9926 0 11.75L0 2.25ZM2.25 1.5C1.83579 1.5 1.5 1.83579 1.5 2.25L1.5 11.75C1.5 12.1642 1.83579 12.5 2.25 12.5L13.75 12.5C14.1642 12.5 14.5 12.1642 14.5 11.75L14.5 2.25C14.5 1.83579 14.1642 1.5 13.75 1.5L2.25 1.5Z" fill-rule="EVENODD"></path>
  <path d="M3.92383 4.01986C4.18901 3.70165 4.66193 3.65866 4.98014 3.92383L7.98014 6.42383C8.15113 6.56633 8.25 6.77742 8.25 7C8.25 7.22258 8.15113 7.43367 7.98014 7.57617L4.98014 10.0762C4.66193 10.3413 4.18901 10.2983 3.92383 9.98014C3.65866 9.66193 3.70165 9.18901 4.01986 8.92383L6.32846 7L4.01986 5.07617C3.70165 4.81099 3.65866 4.33807 3.92383 4.01986Z" fill-rule="EVENODD"></path>
  <path d="M7.5 10.25C7.5 9.83579 7.83579 9.5 8.25 9.5L11.25 9.5C11.6642 9.5 12 9.83579 12 10.25C12 10.6642 11.6642 11 11.25 11L8.25 11C7.83579 11 7.5 10.6642 7.5 10.25Z" fill-rule="EVENODD"></path>
 </g>
</svg>