<svg viewBox="0 0 16 16" width="16" height="16" fill="currentColor" xmlns="http://www.w3.org/2000/svg">
 <g transform="translate(0.24450154602527618, 0)">
  <path d="M8.1592 14.4843L10.7189 8.72499L10.7189 1.5L3.24492 1.5C2.87419 1.5 2.55908 1.77087 2.50342 2.1374L1.50897 8.68618C1.44005 9.14005 1.7914 9.54878 2.25047 9.54878L6.01769 9.54878C6.70805 9.54878 7.26769 10.1084 7.26769 10.7988L7.26769 13.4246C7.26769 13.9558 7.65288 14.3971 8.1592 14.4843ZM12.2189 1.5L12.2189 8.13415L13.5055 8.13415C13.9197 8.13415 14.2555 7.79836 14.2555 7.38415L14.2555 2.25C14.2555 1.83579 13.9197 1.5 13.5055 1.5L12.2189 1.5ZM11.9563 9.63415L9.44545 15.2836C9.25183 15.7192 8.81981 16 8.34308 16C6.92073 16 5.76769 14.847 5.76769 13.4246L5.76769 11.0488L2.25047 11.0488C0.873252 11.0488 -0.18079 9.8226 0.0259729 8.46099L1.02042 1.91221C1.18739 0.812615 2.13272 0 3.24492 0L13.5055 0C14.7481 0 15.7555 1.00736 15.7555 2.25L15.7555 7.38415C15.7555 8.62679 14.7481 9.63415 13.5055 9.63415L11.9563 9.63415Z" fill-rule="EVENODD"></path>
 </g>
</svg>