<svg viewBox="0 0 24 24" width="24" height="24" fill="black" xmlns="http://www.w3.org/2000/svg">
 <g transform="translate(1.5673521757125854, 1.2496384382247925)">
  <path d="M19.1596 1.87628C18.8695 1.6273 18.4981 1.49348 18.1159 1.50024L18.1026 1.50048L16.1826 1.50036L16.1826 11.0004L18.1159 11.0004C18.4981 11.0071 18.8695 10.8734 19.1596 10.6244C19.4381 10.3854 19.623 10.0561 19.6826 9.69491L19.6826 2.80581C19.623 2.44462 19.4381 2.11535 19.1596 1.87628ZM14.6826 11.5912L10.9669 19.9516C10.5439 19.8621 10.1521 19.6518 9.84166 19.3414C9.4197 18.9194 9.18265 18.3471 9.18265 17.7504L9.18265 13.7504C9.18265 13.3361 8.84686 13.0004 8.43265 13.0004L2.77265 13.0004L2.76416 13.0004C2.58296 13.0025 2.40349 12.9651 2.23817 12.8909C2.07285 12.8167 1.92565 12.7075 1.80674 12.5707C1.68784 12.434 1.60009 12.273 1.54957 12.099C1.49909 11.9251 1.48699 11.7424 1.51408 11.5634C1.51405 11.5636 1.5141 11.5632 1.51408 11.5634L2.89417 2.56281C2.93937 2.26475 3.09077 1.99306 3.32048 1.79781C3.55018 1.60256 3.84271 1.49691 4.14417 1.50031L14.6826 1.50036L14.6826 11.5912ZM18.0965 0.000361624C18.8437 -0.0111219 19.5694 0.251237 20.1366 0.738083C20.7055 1.22647 21.0754 1.90677 21.1759 2.64983C21.1804 2.68315 21.1826 2.71674 21.1826 2.75036L21.1826 9.75036C21.1826 9.78399 21.1804 9.81757 21.1759 9.85089C21.0754 10.594 20.7055 11.2743 20.1366 11.7626C19.5694 12.2495 18.8437 12.5118 18.0965 12.5004L15.9201 12.5004L12.118 21.055C11.9976 21.3258 11.729 21.5004 11.4326 21.5004C10.4381 21.5004 9.48426 21.1053 8.781 20.402C8.07774 19.6988 7.68265 18.7449 7.68265 17.7504L7.68265 14.5004L2.7766 14.5004C2.37952 14.5042 1.9863 14.422 1.62398 14.2594C1.26028 14.0962 0.93642 13.8558 0.674835 13.555C0.41325 13.2542 0.220196 12.9001 0.109048 12.5172C-0.00209904 12.1344 -0.0286826 11.7319 0.0311404 11.3378L1.41113 2.33791C1.41116 2.33769 1.41109 2.33813 1.41113 2.33791C1.51069 1.68242 1.84382 1.08431 2.34901 0.654901C2.85319 0.22634 3.49497 -0.0060178 4.15655 0.000361624L18.0965 0.000361624Z" fill-rule="EVENODD"></path>
 </g>
</svg>