<svg viewBox="0 0 24 24" width="24" height="24" fill="currentColor" xmlns="http://www.w3.org/2000/svg">
 <g transform="translate(1, 5)">
  <path d="M7 3C4.79086 3 3 4.79086 3 7C3 9.20914 4.79086 11 7 11C9.20914 11 11 9.20914 11 7C11 4.79086 9.20914 3 7 3ZM4.5 7C4.5 5.61929 5.61929 4.5 7 4.5C8.38071 4.5 9.5 5.61929 9.5 7C9.5 8.38071 8.38071 9.5 7 9.5C5.61929 9.5 4.5 8.38071 4.5 7Z" fill-rule="EVENODD"></path>
  <path d="M7 0C3.13401 0 0 3.13401 0 7C0 10.866 3.13401 14 7 14L15 14C18.866 14 22 10.866 22 7C22 3.13401 18.866 0 15 0L7 0ZM1.5 7C1.5 3.96243 3.96243 1.5 7 1.5L15 1.5C18.0376 1.5 20.5 3.96243 20.5 7C20.5 10.0376 18.0376 12.5 15 12.5L7 12.5C3.96243 12.5 1.5 10.0376 1.5 7Z" fill-rule="EVENODD"></path>
 </g>
</svg>