<svg viewBox="0 0 24 24" width="24" height="24" fill="currentColor" xmlns="http://www.w3.org/2000/svg">
 <g transform="translate(1, 2)">
  <path d="M5.57843 5.5C5.24691 5.5 4.92896 5.6317 4.69454 5.86612L1.86612 8.69454C1.6317 8.92896 1.5 9.24691 1.5 9.57843L1.5 17.25C1.5 17.9404 2.05964 18.5 2.75 18.5L19.25 18.5C19.9404 18.5 20.5 17.9404 20.5 17.25L20.5 9.57843C20.5 9.24691 20.3683 8.92896 20.1339 8.69454L17.3055 5.86612C17.071 5.6317 16.7531 5.5 16.4216 5.5L5.57843 5.5ZM3.63388 4.80546C4.14961 4.28973 4.84908 4 5.57843 4L16.4216 4C17.1509 4 17.8504 4.28973 18.3661 4.80546L21.1945 7.63388C21.7103 8.14961 22 8.84908 22 9.57843L22 17.25C22 18.7688 20.7688 20 19.25 20L2.75 20C1.23122 20 0 18.7688 0 17.25L0 9.57843C0 8.84908 0.289731 8.14961 0.805456 7.63388L3.63388 4.80546Z" fill-rule="EVENODD"></path>
  <path d="M9 12.5L1 12.5L1 11L9 11L9 12.5ZM21 12.5L13 12.5L13 11L21 11L21 12.5Z" fill-rule="EVENODD"></path>
  <path d="M8 10.25C8 9.55964 8.55964 9 9.25 9L12.75 9C13.4404 9 14 9.55964 14 10.25L14 13.75C14 14.4404 13.4404 15 12.75 15L9.25 15C8.55964 15 8 14.4404 8 13.75L8 10.25ZM9.5 10.5L9.5 13.5L12.5 13.5L12.5 10.5L9.5 10.5Z" fill-rule="EVENODD"></path>
  <path d="M8.75 1.5C8.05964 1.5 7.5 2.05964 7.5 2.75L7.5 4.75C7.5 5.16421 7.16421 5.5 6.75 5.5C6.33579 5.5 6 5.16421 6 4.75L6 2.75C6 1.23122 7.23122 0 8.75 0L13.25 0C14.7688 0 16 1.23122 16 2.75L16 4.75C16 5.16421 15.6642 5.5 15.25 5.5C14.8358 5.5 14.5 5.16421 14.5 4.75L14.5 2.75C14.5 2.05964 13.9404 1.5 13.25 1.5L8.75 1.5Z" fill-rule="EVENODD"></path>
 </g>
</svg>