<svg viewBox="0 0 16 16" width="16" height="16" fill="currentColor" xmlns="http://www.w3.org/2000/svg">
 <g transform="translate(2, 1)">
  <path d="M1.23503 8.79526C1.53617 9.07967 2.01085 9.06611 2.29526 8.76497L6 4.8423L9.70474 8.76497C9.98915 9.06611 10.4638 9.07967 10.765 8.79526C11.0661 8.51085 11.0797 8.03617 10.7953 7.73503L6.54526 3.23503C6.40358 3.08502 6.20635 3 6 3C5.79365 3 5.59642 3.08502 5.45474 3.23503L1.20474 7.73503C0.920331 8.03617 0.933894 8.51085 1.23503 8.79526Z" fill-rule="EVENODD"></path>
  <path d="M6 14C6.41421 14 6.75 13.6642 6.75 13.25L6.75 3.75C6.75 3.33579 6.41421 3 6 3C5.58579 3 5.25 3.33579 5.25 3.75L5.25 13.25C5.25 13.6642 5.58579 14 6 14Z" fill-rule="EVENODD"></path>
  <path d="M0 0.75C0 1.16421 0.335786 1.5 0.75 1.5L11.25 1.5C11.6642 1.5 12 1.16421 12 0.75C12 0.335786 11.6642 0 11.25 0L0.75 0C0.335786 0 0 0.335786 0 0.75Z" fill-rule="EVENODD"></path>
 </g>
</svg>