<svg viewBox="0 0 16 16" width="16" height="16" fill="currentColor" xmlns="http://www.w3.org/2000/svg">
 <g transform="translate(1, 0)">
  <path d="M0 3.75C0 3.33579 0.335786 3 0.75 3L13.25 3C13.6642 3 14 3.33579 14 3.75C14 4.16421 13.6642 4.5 13.25 4.5L13 4.5L13 13.75C13 14.9926 11.9926 16 10.75 16L3.25 16C2.00736 16 1 14.9926 1 13.75L1 4.5L0.75 4.5C0.335786 4.5 0 4.16421 0 3.75ZM2.5 4.5L2.5 13.75C2.5 14.1642 2.83579 14.5 3.25 14.5L10.75 14.5C11.1642 14.5 11.5 14.1642 11.5 13.75L11.5 4.5L2.5 4.5Z" fill-rule="EVENODD"></path>
  <path d="M5.25 1.5C4.83579 1.5 4.5 1.83579 4.5 2.25L4.5 3.75C4.5 4.16421 4.16421 4.5 3.75 4.5C3.33579 4.5 3 4.16421 3 3.75L3 2.25C3 1.00736 4.00736 0 5.25 0L8.75 0C9.99264 0 11 1.00736 11 2.25L11 3.75C11 4.16421 10.6642 4.5 10.25 4.5C9.83579 4.5 9.5 4.16421 9.5 3.75L9.5 2.25C9.5 1.83579 9.16421 1.5 8.75 1.5L5.25 1.5Z" fill-rule="EVENODD"></path>
  <path d="M5.25 6C5.66421 6 6 6.33579 6 6.75L6 12.25C6 12.6642 5.66421 13 5.25 13C4.83579 13 4.5 12.6642 4.5 12.25L4.5 6.75C4.5 6.33579 4.83579 6 5.25 6Z" fill-rule="EVENODD"></path>
  <path d="M8.75 6C9.16421 6 9.5 6.33579 9.5 6.75L9.5 12.25C9.5 12.6642 9.16421 13 8.75 13C8.33579 13 8 12.6642 8 12.25L8 6.75C8 6.33579 8.33579 6 8.75 6Z" fill-rule="EVENODD"></path>
 </g>
</svg>