<svg viewBox="0 0 24 24" width="24" height="24" fill="black" xmlns="http://www.w3.org/2000/svg">
 <g transform="translate(2.25, 1.25)">
  <path d="M5 4L5 2.75C5 2.02065 5.28973 1.32118 5.80546 0.805456C6.32118 0.289731 7.02065 0 7.75 0L11.75 0C12.4793 0 13.1788 0.289731 13.6945 0.805456C14.2103 1.32118 14.5 2.02065 14.5 2.75L14.5 4L18.75 4C19.1642 4 19.5 4.33579 19.5 4.75C19.5 5.16421 19.1642 5.5 18.75 5.5L17.5 5.5L17.5 18.75C17.5 19.4793 17.2103 20.1788 16.6945 20.6945C16.1788 21.2103 15.4793 21.5 14.75 21.5L4.75 21.5C4.02065 21.5 3.32118 21.2103 2.80546 20.6945C2.28973 20.1788 2 19.4793 2 18.75L2 5.5L0.75 5.5C0.335786 5.5 0 5.16421 0 4.75C0 4.33579 0.335786 4 0.75 4L5 4ZM6.86612 1.86612C7.10054 1.6317 7.41848 1.5 7.75 1.5L11.75 1.5C12.0815 1.5 12.3995 1.6317 12.6339 1.86612C12.8683 2.10054 13 2.41848 13 2.75L13 4L6.5 4L6.5 2.75C6.5 2.41848 6.6317 2.10054 6.86612 1.86612ZM3.5 5.5L3.5 18.75C3.5 19.0815 3.6317 19.3995 3.86612 19.6339C4.10054 19.8683 4.41848 20 4.75 20L14.75 20C15.0815 20 15.3995 19.8683 15.6339 19.6339C15.8683 19.3995 16 19.0815 16 18.75L16 5.5L3.5 5.5Z" fill-rule="EVENODD"></path>
 </g>
</svg>