<svg viewBox="0 0 24 24" width="24" height="24" fill="currentColor" xmlns="http://www.w3.org/2000/svg">
 <g transform="translate(0.000000014901161193847656, 5)">
  <path d="M0.21967 0.21967C0.512563 -0.0732233 0.987437 -0.0732233 1.28033 0.21967L8.30039 7.23973L13.2751 3.16953C13.5733 2.92554 14.0079 2.94721 14.2803 3.21967L23.2803 12.2197C23.5732 12.5126 23.5732 12.9874 23.2803 13.2803C22.9874 13.5732 22.5126 13.5732 22.2197 13.2803L13.6996 4.76027L8.72493 8.83047C8.42671 9.07446 7.99213 9.05279 7.71967 8.78033L0.21967 1.28033C-0.0732233 0.987437 -0.0732233 0.512563 0.21967 0.21967Z" fill-rule="EVENODD"></path>
  <path d="M23.25 6C23.6642 6 24 6.33579 24 6.75L24 13.25C24 13.6642 23.6642 14 23.25 14L16.75 14C16.3358 14 16 13.6642 16 13.25C16 12.8358 16.3358 12.5 16.75 12.5L22.5 12.5L22.5 6.75C22.5 6.33579 22.8358 6 23.25 6Z" fill-rule="EVENODD"></path>
 </g>
</svg>