<svg viewBox="0 0 16 16" width="16" height="16" fill="currentColor" xmlns="http://www.w3.org/2000/svg">
 <g transform="translate(0, 1)">
  <path d="M0 2.25C0 1.00736 1.00736 0 2.25 0L9.25 0C10.4926 0 11.5 1.00736 11.5 2.25L11.5 2.57778L12.1425 2.57778C12.7269 2.57778 13.2884 2.80518 13.7082 3.21185L15.3157 4.76932C15.7531 5.19314 16 5.77618 16 6.38525L16 9.25C16 10.2165 15.2165 11 14.25 11L1.75 11C0.783502 11 0 10.2165 0 9.25L0 2.25ZM10 2.25C10 1.83579 9.66421 1.5 9.25 1.5L2.25 1.5C1.83579 1.5 1.5 1.83579 1.5 2.25L1.5 9.25C1.5 9.38807 1.61193 9.5 1.75 9.5L10 9.5L10 2.25ZM11.5 9.5L11.5 4.07778L12.1425 4.07778C12.3373 4.07778 12.5245 4.15358 12.6644 4.28913L14.2719 5.84661C14.4177 5.98788 14.5 6.18223 14.5 6.38525L14.5 9.25C14.5 9.38807 14.3881 9.5 14.25 9.5L11.5 9.5Z" fill-rule="EVENODD"></path>
  <path d="M4 11C3.44772 11 3 11.4477 3 12C3 12.5523 3.44772 13 4 13C4.55229 13 5 12.5523 5 12C5 11.4477 4.55229 11 4 11ZM1.5 12C1.5 10.6193 2.61929 9.5 4 9.5C5.38071 9.5 6.5 10.6193 6.5 12C6.5 13.3807 5.38071 14.5 4 14.5C2.61929 14.5 1.5 13.3807 1.5 12Z" fill-rule="EVENODD"></path>
  <path d="M12 11C11.4477 11 11 11.4477 11 12C11 12.5523 11.4477 13 12 13C12.5523 13 13 12.5523 13 12C13 11.4477 12.5523 11 12 11ZM9.5 12C9.5 10.6193 10.6193 9.5 12 9.5C13.3807 9.5 14.5 10.6193 14.5 12C14.5 13.3807 13.3807 14.5 12 14.5C10.6193 14.5 9.5 13.3807 9.5 12Z" fill-rule="EVENODD"></path>
 </g>
</svg>