<svg viewBox="0 0 24 24" width="24" height="24" fill="currentColor" xmlns="http://www.w3.org/2000/svg">
 <g transform="translate(3, 3)">
  <path d="M0 0.75C0 0.335786 0.335786 0 0.75 0L16.75 0C17.1642 0 17.5 0.335786 17.5 0.75L17.5 3.25C17.5 3.66421 17.1642 4 16.75 4C16.3358 4 16 3.66421 16 3.25L16 1.5L1.5 1.5L1.5 3.25C1.5 3.66421 1.16421 4 0.75 4C0.335786 4 0 3.66421 0 3.25L0 0.75Z" fill-rule="EVENODD"></path>
  <path d="M5.25 17.25C5.25 16.8358 5.58579 16.5 6 16.5L11.5 16.5C11.9142 16.5 12.25 16.8358 12.25 17.25C12.25 17.6642 11.9142 18 11.5 18L6 18C5.58579 18 5.25 17.6642 5.25 17.25Z" fill-rule="EVENODD"></path>
  <path d="M8.75 0C9.16421 0 9.5 0.335786 9.5 0.75L9.5 17.25C9.5 17.6642 9.16421 18 8.75 18C8.33579 18 8 17.6642 8 17.25L8 0.75C8 0.335786 8.33579 0 8.75 0Z" fill-rule="EVENODD"></path>
 </g>
</svg>