<svg viewBox="0 0 24 24" width="24" height="24" fill="currentColor" xmlns="http://www.w3.org/2000/svg">
 <g transform="translate(1, 1)">
  <path d="M0 11.75C0 10.2312 1.23122 9 2.75 9L13.25 9C14.7688 9 16 10.2312 16 11.75L16 19.25C16 20.7688 14.7688 22 13.25 22L2.75 22C1.23122 22 0 20.7688 0 19.25L0 11.75ZM2.75 10.5C2.05964 10.5 1.5 11.0596 1.5 11.75L1.5 19.25C1.5 19.9404 2.05964 20.5 2.75 20.5L13.25 20.5C13.9404 20.5 14.5 19.9404 14.5 19.25L14.5 11.75C14.5 11.0596 13.9404 10.5 13.25 10.5L2.75 10.5Z" fill-rule="EVENODD"></path>
  <path d="M17 1.5C15.795 1.5 14.6464 1.95622 13.8049 2.75757C12.9648 3.55774 12.5 4.63496 12.5 5.75L12.5 9.75C12.5 10.1642 12.1642 10.5 11.75 10.5C11.3358 10.5 11 10.1642 11 9.75L11 5.75C11 4.21287 11.6415 2.74656 12.7704 1.67136C13.8982 0.597351 15.4202 0 17 0C18.5798 0 20.1018 0.597351 21.2296 1.67136C22.3585 2.74656 23 4.21287 23 5.75C23 6.16421 22.6642 6.5 22.25 6.5C21.8358 6.5 21.5 6.16421 21.5 5.75C21.5 4.63496 21.0352 3.55774 20.1951 2.75757C19.3536 1.95622 18.205 1.5 17 1.5Z" fill-rule="EVENODD"></path>
 </g>
</svg>