<svg viewBox="0 0 16 16" width="16" height="16" fill="currentColor" xmlns="http://www.w3.org/2000/svg">
 <g transform="translate(0, 0)">
  <path d="M0 7.25C0 6.00736 1.00736 5 2.25 5L9.75 5C10.9926 5 12 6.00736 12 7.25L12 12.75C12 13.9926 10.9926 15 9.75 15L2.25 15C1.00736 15 0 13.9926 0 12.75L0 7.25ZM2.25 6.5C1.83579 6.5 1.5 6.83579 1.5 7.25L1.5 12.75C1.5 13.1642 1.83579 13.5 2.25 13.5L9.75 13.5C10.1642 13.5 10.5 13.1642 10.5 12.75L10.5 7.25C10.5 6.83579 10.1642 6.5 9.75 6.5L2.25 6.5Z" fill-rule="EVENODD"></path>
  <path d="M12 1.5C11.3432 1.5 10.7093 1.76744 10.2389 2.24989C9.76789 2.73298 9.5 3.39215 9.5 4.08333L9.5 5.65625C9.5 6.07046 9.16421 6.40625 8.75 6.40625C8.33579 6.40625 8 6.07046 8 5.65625L8 4.08333C8 3.00641 8.41693 1.96988 9.1649 1.20274C9.9135 0.434943 10.9329 0 12 0C13.0671 0 14.0865 0.434943 14.8351 1.20274C15.5831 1.96988 16 3.00641 16 4.08333C16 4.49755 15.6642 4.83333 15.25 4.83333C14.8358 4.83333 14.5 4.49755 14.5 4.08333C14.5 3.39215 14.2321 2.73298 13.7611 2.24989C13.2907 1.76744 12.6568 1.5 12 1.5Z" fill-rule="EVENODD"></path>
 </g>
</svg>