<svg viewBox="0 0 16 16" width="16" height="16" fill="currentColor" xmlns="http://www.w3.org/2000/svg">
 <g transform="translate(0.5, 2)">
  <path d="M5.5 0C3.567 0 2 1.567 2 3.5C2 5.433 3.567 7 5.5 7C7.433 7 9 5.433 9 3.5C9 1.567 7.433 0 5.5 0ZM3.5 3.5C3.5 2.39543 4.39543 1.5 5.5 1.5C6.60457 1.5 7.5 2.39543 7.5 3.5C7.5 4.60457 6.60457 5.5 5.5 5.5C4.39543 5.5 3.5 4.60457 3.5 3.5Z" fill-rule="EVENODD"></path>
  <path d="M3.75 8C1.67893 8 0 9.67893 0 11.75L0 12.25C0 12.6642 0.335786 13 0.75 13C1.16421 13 1.5 12.6642 1.5 12.25L1.5 11.75C1.5 10.5074 2.50736 9.5 3.75 9.5L7.25 9.5C8.49264 9.5 9.5 10.5074 9.5 11.75L9.5 12.25C9.5 12.6642 9.83579 13 10.25 13C10.6642 13 11 12.6642 11 12.25L11 11.75C11 9.67893 9.32107 8 7.25 8L3.75 8Z" fill-rule="NONZERO"></path>
  <path d="M10.7197 3.21967C11.0126 2.92678 11.4874 2.92678 11.7803 3.21967L13 4.43934L14.2197 3.21967C14.5126 2.92678 14.9874 2.92678 15.2803 3.21967C15.5732 3.51256 15.5732 3.98744 15.2803 4.28033L14.0607 5.5L15.2803 6.71967C15.5732 7.01256 15.5732 7.48744 15.2803 7.78033C14.9874 8.07322 14.5126 8.07322 14.2197 7.78033L13 6.56066L11.7803 7.78033C11.4874 8.07322 11.0126 8.07322 10.7197 7.78033C10.4268 7.48744 10.4268 7.01256 10.7197 6.71967L11.9393 5.5L10.7197 4.28033C10.4268 3.98744 10.4268 3.51256 10.7197 3.21967Z" fill-rule="NONZERO"></path>
 </g>
</svg>