<svg viewBox="0 0 24 24" width="24" height="24" fill="currentColor" xmlns="http://www.w3.org/2000/svg">
 <g transform="translate(0.25, 0.25)">
  <path d="M11.75 1.5C6.08908 1.5 1.5 6.08908 1.5 11.75C1.5 17.4109 6.08908 22 11.75 22C17.4109 22 22 17.4109 22 11.75C22 6.08908 17.4109 1.5 11.75 1.5ZM0 11.75C0 5.26065 5.26065 0 11.75 0C18.2393 0 23.5 5.26065 23.5 11.75C23.5 18.2393 18.2393 23.5 11.75 23.5C5.26065 23.5 0 18.2393 0 11.75Z" fill-rule="EVENODD"></path>
  <path d="M3.25 19.5C3.25 16.8766 5.37665 14.75 8 14.75L15.5 14.75C18.1234 14.75 20.25 16.8766 20.25 19.5L18.75 19.5C18.75 17.7051 17.2949 16.25 15.5 16.25L8 16.25C6.20507 16.25 4.75 17.7051 4.75 19.5L3.25 19.5Z" fill-rule="EVENODD"></path>
  <path d="M11.75 5.75C10.0931 5.75 8.75 7.09315 8.75 8.75C8.75 10.4069 10.0931 11.75 11.75 11.75C13.4069 11.75 14.75 10.4069 14.75 8.75C14.75 7.09315 13.4069 5.75 11.75 5.75ZM7.25 8.75C7.25 6.26472 9.26472 4.25 11.75 4.25C14.2353 4.25 16.25 6.26472 16.25 8.75C16.25 11.2353 14.2353 13.25 11.75 13.25C9.26472 13.25 7.25 11.2353 7.25 8.75Z" fill-rule="EVENODD"></path>
 </g>
</svg>