<svg viewBox="0 0 16 16" width="16" height="16" fill="currentColor" xmlns="http://www.w3.org/2000/svg">
 <g transform="translate(1.5, 1)">
  <path d="M0 12.75C0 10.6789 1.67893 9 3.75 9L9.25 9C11.3211 9 13 10.6789 13 12.75L13 13.25C13 13.6642 12.6642 14 12.25 14C11.8358 14 11.5 13.6642 11.5 13.25L11.5 12.75C11.5 11.5074 10.4926 10.5 9.25 10.5L3.75 10.5C2.50736 10.5 1.5 11.5074 1.5 12.75L1.5 13.25C1.5 13.6642 1.16421 14 0.75 14C0.335786 14 0 13.6642 0 13.25L0 12.75Z" fill-rule="EVENODD"></path>
  <path d="M6.5 1.5C5.11929 1.5 4 2.61929 4 4C4 5.38071 5.11929 6.5 6.5 6.5C7.88071 6.5 9 5.38071 9 4C9 2.61929 7.88071 1.5 6.5 1.5ZM2.5 4C2.5 1.79086 4.29086 0 6.5 0C8.70914 0 10.5 1.79086 10.5 4C10.5 6.20914 8.70914 8 6.5 8C4.29086 8 2.5 6.20914 2.5 4Z" fill-rule="EVENODD"></path>
 </g>
</svg>