<svg viewBox="0 0 16 16" width="16" height="16" fill="black" xmlns="http://www.w3.org/2000/svg">
 <g transform="translate(0.25, 1.25)">
  <path d="M2 3.75C2 1.67893 3.67893 0 5.75 0C7.82107 0 9.5 1.67893 9.5 3.75C9.5 5.82107 7.82107 7.5 5.75 7.5C3.67893 7.5 2 5.82107 2 3.75ZM5.75 1.5C4.50736 1.5 3.5 2.50736 3.5 3.75C3.5 4.99264 4.50736 6 5.75 6C6.99264 6 8 4.99264 8 3.75C8 2.50736 6.99264 1.5 5.75 1.5Z" fill-rule="EVENODD"></path>
  <path d="M3.41667 8.5C2.51051 8.5 1.64147 8.85997 1.00072 9.50072C0.359969 10.1415 0 11.0105 0 11.9167L1.0252e-05 12.7499C1.5378e-05 13.1641 0.335806 13.4999 0.750019 13.4999C1.16423 13.4999 1.50002 13.1641 1.50001 12.7499L1.5 11.9167C1.5 11.4083 1.70194 10.9208 2.06138 10.5614C2.42082 10.2019 2.90834 10 3.41667 10L8.08333 10C8.59167 10 9.07918 10.2019 9.43862 10.5614C9.79807 10.9208 10 11.4083 10 11.9167L10 12.7499C10 13.1641 10.3358 13.4999 10.75 13.4999C11.1642 13.4999 11.5 13.1641 11.5 12.7499L11.5 11.9167C11.5 11.0105 11.14 10.1415 10.4993 9.50072C9.85853 8.85997 8.98949 8.5 8.08333 8.5L3.41667 8.5Z" fill-rule="NONZERO"></path>
  <path d="M12.0833 8.5C11.6691 8.5 11.3333 8.83579 11.3333 9.25C11.3333 9.66421 11.6691 10 12.0833 10C12.5916 10 13.0792 10.2019 13.4386 10.5614C13.798 10.9208 14 11.4083 14 11.9167L14 12.7499C14 13.1641 14.3358 13.4999 14.75 13.4999C15.1642 13.4999 15.5 13.1641 15.5 12.7499L15.5 11.9167C15.5 11.0105 15.14 10.1415 14.4993 9.50072C13.8585 8.85997 12.9895 8.5 12.0833 8.5Z" fill-rule="NONZERO"></path>
  <path d="M9.75 0C9.33579 0 9 0.335786 9 0.75C9 1.16421 9.33579 1.5 9.75 1.5C10.9926 1.5 12 2.50736 12 3.75C12 4.99264 10.9926 6 9.75 6C9.33579 6 9 6.33579 9 6.75C9 7.16421 9.33579 7.5 9.75 7.5C11.8211 7.5 13.5 5.82107 13.5 3.75C13.5 1.67893 11.8211 0 9.75 0Z" fill-rule="NONZERO"></path>
 </g>
</svg>