<svg viewBox="0 0 16 16" width="16" height="16" fill="black" xmlns="http://www.w3.org/2000/svg">
 <g transform="translate(0.25, 0.25)">
  <path d="M7.75 3C6.23122 3 5 4.23122 5 5.75C5 7.26878 6.23122 8.5 7.75 8.5C9.26878 8.5 10.5 7.26878 10.5 5.75C10.5 4.23122 9.26878 3 7.75 3ZM6.5 5.75C6.5 5.05964 7.05964 4.5 7.75 4.5C8.44036 4.5 9 5.05964 9 5.75C9 6.44036 8.44036 7 7.75 7C7.05964 7 6.5 6.44036 6.5 5.75Z" fill-rule="EVENODD"></path>
  <path d="M0 7.75C0 3.46979 3.46979 0 7.75 0C12.0302 0 15.5 3.46979 15.5 7.75C15.5 12.0302 12.0302 15.5 7.75 15.5C3.46979 15.5 0 12.0302 0 7.75ZM7.75 1.5C4.29822 1.5 1.5 4.29822 1.5 7.75C1.5 8.96401 1.84613 10.0972 2.44509 11.0562C2.58906 10.8404 2.76135 10.6425 2.9519 10.4519C3.5614 9.84241 4.38805 9.5 5.25 9.5L10.25 9.5C11.112 9.5 11.9386 9.84241 12.5481 10.4519C12.7386 10.6425 12.9109 10.8404 13.0549 11.0562C13.6539 10.0972 14 8.96401 14 7.75C14 4.29822 11.2018 1.5 7.75 1.5ZM7.75 14C6.11537 14 4.62731 13.3725 3.51358 12.3452C3.55525 12.0558 3.69801 11.8271 4.01256 11.5126C4.34075 11.1844 4.78587 11 5.25 11L10.25 11C10.7141 11 11.1592 11.1844 11.4874 11.5126C11.802 11.8271 11.9447 12.0558 11.9864 12.3452C10.8727 13.3725 9.38463 14 7.75 14Z" fill-rule="EVENODD"></path>
 </g>
</svg>