<svg viewBox="0 0 16 16" width="16" height="16" fill="currentColor" xmlns="http://www.w3.org/2000/svg">
 <g transform="translate(0, 1)">
  <path d="M0 2.25C0 1.00736 1.00736 0 2.25 0L13.75 0C14.9926 0 16 1.00736 16 2.25L16 11.75C16 12.9926 14.9926 14 13.75 14L2.25 14C1.00736 14 0 12.9926 0 11.75L0 2.25ZM2.25 1.5C1.83579 1.5 1.5 1.83579 1.5 2.25L1.5 11.75C1.5 12.1642 1.83579 12.5 2.25 12.5L13.75 12.5C14.1642 12.5 14.5 12.1642 14.5 11.75L14.5 2.25C14.5 1.83579 14.1642 1.5 13.75 1.5L2.25 1.5Z" fill-rule="EVENODD"></path>
  <path d="M9 3.49992C7.067 3.49992 5.5 5.06692 5.5 6.99992C5.5 8.93291 7.067 10.4999 9 10.4999C10.933 10.4999 12.5 8.93291 12.5 6.99992C12.5 5.06692 10.933 3.49992 9 3.49992ZM4 6.99992C4 4.23849 6.23858 1.99992 9 1.99992C11.7614 1.99992 14 4.23849 14 6.99992C14 9.76134 11.7614 11.9999 9 11.9999C6.23858 11.9999 4 9.76134 4 6.99992Z" fill-rule="EVENODD"></path>
  <path d="M13.0303 2.96959C13.3232 3.26248 13.3232 3.73736 13.0303 4.03025L11.0303 6.03025C10.7374 6.32314 10.2626 6.32314 9.96967 6.03025C9.67678 5.73736 9.67678 5.26248 9.96967 4.96959L11.9697 2.96959C12.2626 2.6767 12.7374 2.6767 13.0303 2.96959Z" fill-rule="EVENODD"></path>
  <path d="M8.03033 7.96959C8.32322 8.26248 8.32322 8.73736 8.03033 9.03025L6.03033 11.0302C5.73744 11.3231 5.26256 11.3231 4.96967 11.0302C4.67678 10.7374 4.67678 10.2625 4.96967 9.96959L6.96967 7.96959C7.26256 7.67669 7.73744 7.67669 8.03033 7.96959Z" fill-rule="EVENODD"></path>
  <path d="M13.0303 11.0302C12.7374 11.3231 12.2626 11.3231 11.9697 11.0302L9.96967 9.03025C9.67678 8.73736 9.67678 8.26248 9.96967 7.96959C10.2626 7.6767 10.7374 7.6767 11.0303 7.96959L13.0303 9.96959C13.3232 10.2625 13.3232 10.7374 13.0303 11.0302Z" fill-rule="EVENODD"></path>
  <path d="M8.03033 6.03025C7.73744 6.32314 7.26256 6.32314 6.96967 6.03025L4.96967 4.03025C4.67678 3.73735 4.67678 3.26248 4.96967 2.96959C5.26256 2.67669 5.73744 2.67669 6.03033 2.96959L8.03033 4.96959C8.32322 5.26248 8.32322 5.73736 8.03033 6.03025Z" fill-rule="EVENODD"></path>
  <path d="M2.75 2.25C3.16421 2.25 3.5 2.58579 3.5 3L3.5 4.5C3.5 4.91421 3.16421 5.25 2.75 5.25C2.33579 5.25 2 4.91421 2 4.5L2 3C2 2.58579 2.33579 2.25 2.75 2.25Z" fill-rule="EVENODD"></path>
  <path d="M2.75 8.75C3.16421 8.75 3.5 9.08579 3.5 9.5L3.5 11C3.5 11.4142 3.16421 11.75 2.75 11.75C2.33579 11.75 2 11.4142 2 11L2 9.5C2 9.08579 2.33579 8.75 2.75 8.75Z" fill-rule="EVENODD"></path>
  <path d="M3.75 12.5C4.16421 12.5 4.5 12.8358 4.5 13.25L4.5 14.25C4.5 14.6642 4.16421 15 3.75 15C3.33579 15 3 14.6642 3 14.25L3 13.25C3 12.8358 3.33579 12.5 3.75 12.5Z" fill-rule="EVENODD"></path>
  <path d="M12.25 12.5C12.6642 12.5 13 12.8358 13 13.25L13 14.25C13 14.6642 12.6642 15 12.25 15C11.8358 15 11.5 14.6642 11.5 14.25L11.5 13.25C11.5 12.8358 11.8358 12.5 12.25 12.5Z" fill-rule="EVENODD"></path>
 </g>
</svg>