<svg viewBox="0 0 16 16" width="16" height="16" fill="currentColor" xmlns="http://www.w3.org/2000/svg">
 <g transform="translate(0, 1.9999887943267822)">
  <path d="M7.5 2.1905L4.5235 4.27405C4.31339 4.42112 4.06313 4.50001 3.80667 4.50001L1.5 4.50001L1.5 7.50001L3.80667 7.50001C4.06313 7.50001 4.31339 7.5789 4.5235 7.72597L7.5 9.80952L7.5 2.1905ZM7.03317 0.686298C7.86165 0.106368 9 0.699061 9 1.71034L9 10.2897C9 11.301 7.86164 11.8937 7.03317 11.3137L3.72786 9.00001L1.25 9.00001C0.559644 9.00001 0 8.44037 0 7.75001L0 4.25001C0 3.55966 0.559644 3.00001 1.25 3.00001L3.72786 3.00001L7.03317 0.686298Z" fill-rule="EVENODD"></path>
  <path d="M10.7014 3.23865C10.9838 2.93564 11.4584 2.91895 11.7614 3.20137C12.5475 3.93407 13 4.93948 13 6.00001C13 7.06054 12.5475 8.06595 11.7614 8.79865C11.4584 9.08107 10.9838 9.06438 10.7014 8.76138C10.4189 8.45837 10.4356 7.98379 10.7386 7.70137C11.2331 7.24047 11.5 6.62723 11.5 6.00001C11.5 5.37279 11.2331 4.75955 10.7386 4.29865C10.4356 4.01623 10.4189 3.54165 10.7014 3.23865Z" fill-rule="EVENODD"></path>
  <path d="M12.1841 0.257761C12.456 -0.054751 12.9297 -0.0877043 13.2422 0.184158C14.9924 1.70665 16 3.79562 16 6.00001C16 8.2044 14.9924 10.2934 13.2422 11.8159C12.9297 12.0877 12.456 12.0548 12.1841 11.7423C11.9123 11.4297 11.9452 10.956 12.2577 10.6842C13.7091 9.42158 14.5 7.7337 14.5 6.00001C14.5 4.26632 13.7091 2.57844 12.2577 1.31586C11.9452 1.044 11.9123 0.570273 12.1841 0.257761Z" fill-rule="EVENODD"></path>
 </g>
</svg>