<svg viewBox="0 0 16 16" width="16" height="16" fill="currentColor" xmlns="http://www.w3.org/2000/svg">
 <g transform="translate(0.25, 0.75)">
  <path d="M7.66765 1.5C6.62543 1.5 5.78235 2.34341 5.78235 3.38158C5.78235 4.04764 6.12862 4.63389 6.65549 4.9694C6.99314 5.18441 7.10242 5.62668 6.90378 5.97421L4.03643 10.9906C3.83088 11.3502 3.37272 11.4751 3.01311 11.2696C2.6535 11.064 2.52861 10.6058 2.73416 10.2462L5.28497 5.78362C4.66669 5.17153 4.28235 4.32167 4.28235 3.38158C4.28235 1.51299 5.799 0 7.66765 0C8.94268 0 10.0524 0.704511 10.6291 1.74228C10.8303 2.10435 10.6999 2.56096 10.3378 2.76216C9.97576 2.96335 9.51915 2.83294 9.31795 2.47087C8.99551 1.8906 8.377 1.5 7.66765 1.5ZM7.27969 2.73972C7.63418 2.52545 8.09525 2.63913 8.30951 2.99362L10.9899 7.4282C11.3422 7.30424 11.721 7.23684 12.1147 7.23684C13.9834 7.23684 15.5 8.74983 15.5 10.6184C15.5 12.487 13.9834 14 12.1147 14C11.8237 14 11.5402 13.9632 11.2692 13.8935C10.868 13.7904 10.6264 13.3816 10.7295 12.9804C10.8326 12.5792 11.2414 12.3376 11.6426 12.4407C11.7927 12.4793 11.9507 12.5 12.1147 12.5C13.1569 12.5 14 11.6566 14 10.6184C14 9.58025 13.1569 8.73684 12.1147 8.73684C11.7408 8.73684 11.3945 8.84471 11.1026 9.0306C10.9322 9.13908 10.7253 9.17427 10.5287 9.12822C10.3321 9.08217 10.1623 8.95877 10.0578 8.78594L7.02578 3.76954C6.81152 3.41505 6.9252 2.95398 7.27969 2.73972ZM1.4785 8.65366C1.83692 8.86128 1.95916 9.32015 1.75153 9.67857C1.59168 9.95452 1.5 10.2747 1.5 10.6184C1.5 11.6566 2.34308 12.5 3.38529 12.5C4.42751 12.5 5.27059 11.6566 5.27059 10.6184C5.27059 10.2042 5.60637 9.86842 6.02059 9.86842L12.1147 9.86842C12.5289 9.86842 12.8647 10.2042 12.8647 10.6184C12.8647 11.0326 12.5289 11.3684 12.1147 11.3684L6.68705 11.3684C6.34543 12.8757 4.99615 14 3.38529 14C1.51665 14 0 12.487 0 10.6184C0 10.0035 0.164982 9.42489 0.453581 8.92669C0.661207 8.56827 1.12008 8.44603 1.4785 8.65366Z" fill-rule="EVENODD"></path>
  <path d="M8.92426 3.38154C8.92426 4.07189 8.36461 4.63154 7.67426 4.63154L7.66759 4.63154C6.97723 4.63154 6.41759 4.07189 6.41759 3.38154C6.41759 2.69118 6.97723 2.13154 7.66759 2.13154L7.67426 2.13154C8.36461 2.13154 8.92426 2.69118 8.92426 3.38154Z" fill-rule="EVENODD"></path>
  <path d="M4.63861 10.6186C4.63861 11.309 4.07897 11.8686 3.38861 11.8686L3.38194 11.8686C2.69159 11.8686 2.13194 11.309 2.13194 10.6186C2.13194 9.92828 2.69159 9.36864 3.38194 9.36864L3.38861 9.36864C4.07897 9.36864 4.63861 9.92828 4.63861 10.6186Z" fill-rule="EVENODD"></path>
  <path d="M13.3647 10.6186C13.3647 11.309 12.8051 11.8686 12.1147 11.8686L12.108 11.8686C11.4177 11.8686 10.858 11.309 10.858 10.6186C10.858 9.92828 11.4177 9.36864 12.108 9.36864L12.1147 9.36864C12.8051 9.36864 13.3647 9.92828 13.3647 10.6186Z" fill-rule="EVENODD"></path>
 </g>
</svg>