<svg viewBox="0 0 24 24" width="24" height="24" fill="currentColor" xmlns="http://www.w3.org/2000/svg">
 <g transform="translate(0.6699889898300171, 4)">
  <path d="M11.37 6.5C8.97301 6.5 6.65181 7.34007 4.81001 8.87416C4.49174 9.13925 4.01883 9.09615 3.75373 8.77788C3.48863 8.4596 3.53174 7.98669 3.85001 7.7216C5.96134 5.96301 8.62223 5 11.37 5C14.1178 5 16.7787 5.96301 18.89 7.7216C19.2083 7.98669 19.2514 8.4596 18.9863 8.77788C18.7212 9.09615 18.2483 9.13925 17.93 8.87416C16.0882 7.34007 13.767 6.5 11.37 6.5Z" fill-rule="EVENODD"></path>
  <path d="M11.33 1.5C7.61692 1.5 4.03138 2.85469 1.24595 5.30997C0.935218 5.58387 0.461284 5.55402 0.187385 5.24329C-0.0865137 4.93256 -0.056657 4.45862 0.254072 4.18473C3.31348 1.48794 7.25169 0 11.33 0C15.4083 0 19.3465 1.48794 22.4059 4.18473C22.7167 4.45862 22.7465 4.93256 22.4726 5.24329C22.1987 5.55402 21.7248 5.58387 21.4141 5.30997C18.6286 2.85469 15.0431 1.5 11.33 1.5Z" fill-rule="EVENODD"></path>
  <path d="M11.335 11.5C10.2453 11.5 9.18269 11.8391 8.29438 12.4702C7.95671 12.7101 7.4885 12.6308 7.2486 12.2931C7.0087 11.9555 7.08796 11.4872 7.42563 11.2473C8.56774 10.4359 9.93402 10 11.335 10C12.736 10 14.1023 10.4359 15.2444 11.2473C15.5821 11.4872 15.6613 11.9555 15.4214 12.2931C15.1815 12.6308 14.7133 12.7101 14.3756 12.4702C13.4873 11.8391 12.4247 11.5 11.335 11.5Z" fill-rule="EVENODD"></path>
  <path d="M10.33 16C10.33 15.4477 10.7777 15 11.33 15L11.34 15C11.8923 15 12.34 15.4477 12.34 16C12.34 16.5523 11.8923 17 11.34 17L11.33 17C10.7777 17 10.33 16.5523 10.33 16Z" fill-rule="EVENODD"></path>
 </g>
</svg>