<svg viewBox="0 0 16 16" width="16" height="16" fill="currentColor" xmlns="http://www.w3.org/2000/svg">
 <g transform="translate(0.1966552734375, 1)">
  <path d="M1.02301 0.21967C1.31591 -0.0732233 1.79078 -0.0732233 2.08367 0.21967L14.5837 12.7197C14.8766 13.0126 14.8766 13.4874 14.5837 13.7803C14.2908 14.0732 13.8159 14.0732 13.523 13.7803L9.96518 10.2225C9.86861 10.2017 9.77459 10.1614 9.68896 10.1006C9.13906 9.70989 8.48122 9.5 7.80667 9.5C7.13211 9.5 6.47428 9.70989 5.92437 10.1006C5.5867 10.3405 5.11849 10.2612 4.87859 9.92354C4.63869 9.58587 4.71795 9.11766 5.05562 8.87776C5.84205 8.31904 6.77951 8.01331 7.74311 8.00043L6.00166 6.25898C5.13399 6.50983 4.32079 6.93839 3.61667 7.52487C3.2984 7.78996 2.82548 7.74686 2.56039 7.42858C2.29529 7.11031 2.3384 6.6374 2.65667 6.3723C3.3116 5.8268 4.04339 5.39257 4.82286 5.08017L3.31602 3.57334C2.57494 3.94936 1.87871 4.41976 1.24595 4.97752C0.935218 5.25142 0.461284 5.22157 0.187385 4.91084C-0.0865137 4.60011 -0.056657 4.12617 0.254072 3.85228C0.859017 3.31903 1.51439 2.85512 2.20789 2.4652L1.02301 1.28033C0.730121 0.987437 0.730121 0.512563 1.02301 0.21967Z" fill-rule="NONZERO"></path>
  <path d="M7.80334 2.5C7.38335 2.5 6.96589 2.52665 6.55326 2.57908C6.14235 2.63129 5.76692 2.34051 5.71471 1.9296C5.6625 1.51869 5.95328 1.14326 6.36419 1.09104C6.83927 1.03068 7.31988 1 7.80334 1C10.5831 1 13.2673 2.01417 15.3526 3.85228C15.6633 4.12617 15.6932 4.60011 15.4193 4.91084C15.1454 5.22157 14.6715 5.25142 14.3607 4.97752C12.5494 3.38092 10.2179 2.5 7.80334 2.5Z" fill-rule="NONZERO"></path>
  <path d="M9.5973 5.42673C9.737 5.03679 10.1664 4.83393 10.5563 4.97364C11.441 5.29059 12.2703 5.76175 13.0033 6.3723C13.3216 6.6374 13.3647 7.11031 13.0996 7.42858C12.8345 7.74686 12.3616 7.78996 12.0433 7.52487C11.4463 7.02761 10.7709 6.64389 10.0504 6.38574C9.66045 6.24604 9.4576 5.81668 9.5973 5.42673Z" fill-rule="NONZERO"></path>
  <path d="M7.80334 11C7.25106 11 6.80334 11.4477 6.80334 12C6.80334 12.5523 7.25106 13 7.80334 13L7.81001 13C8.3623 13 8.81001 12.5523 8.81001 12C8.81001 11.4477 8.3623 11 7.81001 11L7.80334 11Z" fill-rule="NONZERO"></path>
 </g>
</svg>