<svg viewBox="0 0 16 16" width="16" height="16" fill="currentColor" xmlns="http://www.w3.org/2000/svg">
 <g transform="translate(0.1966460794210434, 1)">
  <path d="M1.02302 0.21967C1.31592 -0.0732233 1.79079 -0.0732233 2.08368 0.21967L14.5837 12.7197C14.8766 13.0126 14.8766 13.4874 14.5837 13.7803C14.2908 14.0732 13.8159 14.0732 13.523 13.7803L1.02302 1.28033C0.730131 0.987437 0.730131 0.512563 1.02302 0.21967Z" fill-rule="EVENODD"></path>
  <path d="M7.80334 2.5C7.38335 2.5 6.96589 2.52665 6.55326 2.57908C6.14235 2.63129 5.76692 2.34051 5.71471 1.9296C5.6625 1.51869 5.95328 1.14325 6.36419 1.09104C6.83927 1.03068 7.31988 1 7.80334 1C10.5831 1 13.2673 2.01417 15.3526 3.85228C15.6633 4.12617 15.6932 4.60011 15.4193 4.91084C15.1454 5.22157 14.6715 5.25142 14.3607 4.97752C12.5494 3.38092 10.2179 2.5 7.80334 2.5ZM3.98335 2.42928C4.15809 2.80483 3.9953 3.25093 3.61975 3.42567C2.76481 3.82346 1.96446 4.34417 1.24595 4.97752C0.935218 5.25142 0.461284 5.22157 0.187385 4.91084C-0.0865137 4.60011 -0.056657 4.12617 0.254072 3.85228C1.08124 3.12315 2.0027 2.52365 2.98696 2.06568C3.36251 1.89094 3.80861 2.05373 3.98335 2.42928ZM6.78401 5.28632C6.8842 5.68823 6.63961 6.09527 6.2377 6.19546C5.28155 6.43381 4.38428 6.8855 3.61667 7.52487C3.2984 7.78996 2.82548 7.74686 2.56039 7.42858C2.29529 7.11031 2.3384 6.6374 2.65667 6.3723C3.59921 5.58724 4.70095 5.03265 5.87487 4.74C6.27678 4.63981 6.68382 4.8844 6.78401 5.28632ZM9.5973 5.42673C9.737 5.03679 10.1664 4.83393 10.5563 4.97364C11.441 5.29059 12.2703 5.76175 13.0033 6.3723C13.3216 6.6374 13.3647 7.11031 13.0996 7.42858C12.8345 7.74686 12.3616 7.78996 12.0433 7.52487C11.4463 7.02761 10.7709 6.64389 10.0504 6.38574C9.66045 6.24604 9.4576 5.81668 9.5973 5.42673ZM7.80667 9.5C7.13211 9.5 6.47428 9.70989 5.92437 10.1006C5.5867 10.3405 5.11849 10.2612 4.87859 9.92354C4.63869 9.58587 4.71795 9.11766 5.05562 8.87776C5.85933 8.30677 6.82078 8 7.80667 8C8.79255 8 9.75401 8.30677 10.5577 8.87776C10.8954 9.11766 10.9746 9.58587 10.7347 9.92354C10.4948 10.2612 10.0266 10.3405 9.68896 10.1006C9.13906 9.70989 8.48122 9.5 7.80667 9.5Z" fill-rule="EVENODD"></path>
  <path d="M6.80335 12C6.80335 11.4477 7.25107 11 7.80335 11L7.81002 11C8.36231 11 8.81002 11.4477 8.81002 12C8.81002 12.5523 8.36231 13 7.81002 13L7.80335 13C7.25107 13 6.80335 12.5523 6.80335 12Z" fill-rule="EVENODD"></path>
 </g>
</svg>