<svg viewBox="0 0 24 24" width="24" height="24" fill="currentColor" xmlns="http://www.w3.org/2000/svg">
 <g transform="translate(1, 0.9999375343322754)">
  <path d="M14.5 1.5C11.1863 1.5 8.5 4.18629 8.5 7.5C8.5 8.1493 8.64263 8.79597 8.79377 9.29385C8.86838 9.5396 8.94278 9.74173 8.99771 9.88056C9.02512 9.94982 9.0475 10.0029 9.0624 10.0373C9.06984 10.0545 9.0754 10.067 9.07877 10.0744L9.08193 10.0814C9.08195 10.0814 9.08192 10.0814 9.08193 10.0814C9.21532 10.3678 9.15514 10.7074 8.93116 10.9302L1.95053 17.8742C1.95039 17.8743 1.95066 17.8741 1.95053 17.8742C1.66232 18.1626 1.5 18.5541 1.5 18.9619C1.5 19.3698 1.66206 19.7611 1.95053 20.0495C2.23899 20.338 2.63024 20.5001 3.0382 20.5001C3.44594 20.5001 3.83699 20.3382 4.12541 20.05C4.12556 20.0498 4.12526 20.0501 4.12541 20.05L11.0732 13.0702C11.2958 12.8466 11.6345 12.7862 11.9206 12.9191L11.9218 12.9196L11.9287 12.9227C11.9362 12.9261 11.9486 12.9316 11.9657 12.939C12 12.9539 12.053 12.9762 12.1221 13.0035C12.2606 13.0583 12.4623 13.1325 12.7076 13.2069C13.2046 13.3577 13.8505 13.5 14.5 13.5C17.8137 13.5 20.5 10.8137 20.5 7.5C20.5 6.86452 20.4817 6.37805 20.4531 6.00817C20.387 6.08698 20.3181 6.16952 20.2463 6.25553L20.2121 6.29656C19.8497 6.73114 19.4337 7.23008 18.9989 7.70024C18.5528 8.18265 18.0635 8.66072 17.5633 9.02269C17.0798 9.37256 16.4882 9.68659 15.8527 9.68659C15.3741 9.68659 14.9145 9.49892 14.5727 9.16386L14.5673 9.15861L12.8362 7.42741C12.5011 7.08558 12.3135 6.62598 12.3135 6.14732C12.3135 5.51037 12.6299 4.91846 12.9817 4.4356C13.3457 3.93589 13.8264 3.44748 14.3114 3.00234C14.7849 2.56772 15.2873 2.15208 15.7245 1.79034L15.7635 1.75811C15.8511 1.68566 15.935 1.6161 16.0152 1.5494C15.6418 1.51939 15.1481 1.5 14.5 1.5ZM17.8483 1.93185C17.866 1.91651 17.8862 1.89798 17.9076 1.87632C17.9607 1.82255 18.0512 1.71966 18.1145 1.56915C18.1838 1.40448 18.2237 1.16921 18.1292 0.9159C18.0402 0.677391 17.8694 0.524484 17.7236 0.431274C17.4547 0.259259 17.0757 0.165572 16.6159 0.1044C16.1288 0.0396022 15.4487 0 14.5 0C10.3579 0 7 3.35786 7 7.5C7 8.3507 7.18349 9.15324 7.35846 9.72959C7.41441 9.91389 7.47044 10.0781 7.52111 10.217L0.889867 16.8135C0.320095 17.3833 0 18.1561 0 18.9619C0 19.7676 0.320094 20.5404 0.889867 21.1102C1.45964 21.68 2.23242 22.0001 3.0382 22.0001C3.84397 22.0001 4.61675 21.68 5.18652 21.1102L11.7861 14.4803C11.9246 14.5308 12.0884 14.5866 12.2722 14.6424C12.8478 14.817 13.6495 15 14.5 15C18.6421 15 22 11.6421 22 7.5C22 6.55166 21.961 5.87324 21.8973 5.38859C21.8373 4.93276 21.7453 4.5537 21.5726 4.28533C21.4785 4.13918 21.3209 3.9644 21.0729 3.87899C20.8108 3.78878 20.5738 3.8409 20.4153 3.91414C20.2696 3.9815 20.1709 4.07346 20.12 4.12635C20.1031 4.14392 20.0882 4.16061 20.0753 4.17576C19.7882 4.46296 19.4441 4.8754 19.0944 5.29483L19.0687 5.32553C18.7005 5.76713 18.3059 6.24037 17.8976 6.68181C17.4775 7.13612 17.0663 7.53083 16.684 7.80747C16.285 8.0962 16.0119 8.18659 15.8527 8.18659C15.7676 8.18659 15.6858 8.15356 15.6246 8.09451L13.9056 6.37547C13.8465 6.31424 13.8135 6.23246 13.8135 6.14732C13.8135 5.98954 13.9037 5.71741 14.1941 5.31882C14.4722 4.93708 14.869 4.52662 15.3257 4.10738C15.7703 3.69932 16.2469 3.30502 16.6912 2.93738L16.7197 2.91383C17.1434 2.56328 17.56 2.21864 17.8483 1.93185Z" fill-rule="EVENODD"></path>
 </g>
</svg>