<svg viewBox="0 0 16 16" width="16" height="16" fill="currentColor" xmlns="http://www.w3.org/2000/svg">
 <g transform="translate(1.25, 1.25)">
  <path d="M0 2.08333C0 0.93274 0.93274 0 2.08333 0L11.4167 0C12.5673 0 13.5 0.93274 13.5 2.08333L13.5 11.4167C13.5 12.5673 12.5673 13.5 11.4167 13.5L2.08333 13.5C0.93274 13.5 0 12.5673 0 11.4167L0 2.08333ZM4.03033 2.96967C3.73744 2.67678 3.26256 2.67678 2.96967 2.96967C2.67678 3.26256 2.67678 3.73744 2.96967 4.03033L5.68934 6.75L2.96967 9.46967C2.67678 9.76256 2.67678 10.2374 2.96967 10.5303C3.26256 10.8232 3.73744 10.8232 4.03033 10.5303L6.75 7.81066L9.46967 10.5303C9.76256 10.8232 10.2374 10.8232 10.5303 10.5303C10.8232 10.2374 10.8232 9.76256 10.5303 9.46967L7.81066 6.75L10.5303 4.03033C10.8232 3.73744 10.8232 3.26256 10.5303 2.96967C10.2374 2.67678 9.76256 2.67678 9.46967 2.96967L6.75 5.68934L4.03033 2.96967Z" fill-rule="EVENODD"></path>
 </g>
</svg>