<svg viewBox="0 0 16 16" width="16" height="16" fill="currentColor" xmlns="http://www.w3.org/2000/svg">
 <g transform="translate(1, 1)">
  <path d="M6.25 1.5C3.62665 1.5 1.5 3.62665 1.5 6.25C1.5 8.87335 3.62665 11 6.25 11C8.87335 11 11 8.87335 11 6.25C11 3.62665 8.87335 1.5 6.25 1.5ZM0 6.25C0 2.79822 2.79822 0 6.25 0C9.70178 0 12.5 2.79822 12.5 6.25C12.5 9.70178 9.70178 12.5 6.25 12.5C2.79822 12.5 0 9.70178 0 6.25Z" fill-rule="EVENODD"></path>
  <path d="M9.71967 9.71967C10.0126 9.42678 10.4874 9.42678 10.7803 9.71967L13.7803 12.7197C14.0732 13.0126 14.0732 13.4874 13.7803 13.7803C13.4874 14.0732 13.0126 14.0732 12.7197 13.7803L9.71967 10.7803C9.42678 10.4874 9.42678 10.0126 9.71967 9.71967Z" fill-rule="EVENODD"></path>
  <path d="M3 6.25C3 5.83579 3.33579 5.5 3.75 5.5L8.75 5.5C9.16421 5.5 9.5 5.83579 9.5 6.25C9.5 6.66421 9.16421 7 8.75 7L3.75 7C3.33579 7 3 6.66421 3 6.25Z" fill-rule="EVENODD"></path>
 </g>
</svg>