<svg xmlns="http://www.w3.org/2000/svg" width="16" height="16" fill="none" viewBox="0 0 16 16"><path fill="currentColor" d="M8 0a8 8 0 1 1 0 16A8 8 0 0 1 8 0m0 1.5A6.5 6.5 0 1 0 8 14.5 6.5 6.5 0 0 0 8 1.5m2.114 4.607a.75.75 0 0 1 .772 1.285L10.5 6.75l.386.643-.002.001-.005.003-.017.01-.06.034q-.076.046-.211.121c-.178.099-.427.23-.704.364a9 9 0 0 1-.9.378 5 5 0 0 1-.247.077 1 1 0 0 1 .01.119v1.722l1.32 1.54a.75.75 0 0 1-1.14.976L8 11.652l-.93 1.086a.75.75 0 0 1-1.14-.976l1.32-1.54V8.5q0-.06.01-.12a5 5 0 0 1-.246-.076 9 9 0 0 1-.902-.378 14 14 0 0 1-.703-.364q-.135-.075-.212-.12l-.06-.035-.016-.01-.005-.003-.003-.002a.75.75 0 0 1 .774-1.285l.002.001.011.007.05.03a12 12 0 0 0 .812.43c.245.117.502.229.738.31.25.085.416.115.5.115.083 0 .25-.03.5-.115.235-.081.493-.193.738-.31a12 12 0 0 0 .813-.43l.048-.03.012-.007zM8 3.25a1.5 1.5 0 1 1 0 3 1.5 1.5 0 0 1 0-3"/></svg>