<svg xmlns="http://www.w3.org/2000/svg" width="24" height="24" fill="none" viewBox="0 0 24 24"><path fill="currentColor" fill-rule="evenodd" d="M10.055 1.885a2.753 2.753 0 0 1 3.89 0l8.17 8.17a2.753 2.753 0 0 1 0 3.89l-8.17 8.171a2.753 2.753 0 0 1-3.89 0l-8.171-8.17a2.753 2.753 0 0 1 0-3.89zm2.829 1.06a1.253 1.253 0 0 0-1.769 0l-8.17 8.171a1.253 1.253 0 0 0 0 1.769l8.17 8.17c.488.488 1.28.488 1.769 0l8.17-8.17a1.25 1.25 0 0 0 0-1.768zM12.01 15c.55 0 .999.449 1 1-.001.551-.449 1-1 1H12c-.551 0-1-.449-1-1s.449-1 1-1zM12 7c.413 0 .75.337.75.75v4.5c0 .413-.337.75-.75.75a.75.75 0 0 1-.75-.75v-4.5c0-.413.337-.75.75-.75" clip-rule="evenodd"/></svg>