<svg xmlns="http://www.w3.org/2000/svg" width="24" height="24" fill="none" viewBox="0 0 24 24"><g fill="currentColor"><path d="M12 7a.75.75 0 01.75.75v4.5a.75.75 0 01-1.5 0v-4.5A.75.75 0 0112 7zM12 15a1 1 0 100 2h.01a1 1 0 100-2H12z"/><path fill-rule="evenodd" d="M1.884 10.056l8.172-8.172a2.75 2.75 0 013.889 0l8.171 8.172a2.75 2.75 0 010 3.889l-8.171 8.171a2.75 2.75 0 01-3.89 0l-8.171-8.171a2.75 2.75 0 010-3.89zm9.232-7.111l-8.172 8.171a1.25 1.25 0 000 1.768l8.172 8.172a1.25 1.25 0 001.768 0l8.171-8.172a1.25 1.25 0 000-1.768l-8.171-8.171a1.25 1.25 0 00-1.768 0z" clip-rule="evenodd"/></g></svg>