<svg xmlns="http://www.w3.org/2000/svg" width="24" height="24" fill="none" viewBox="0 0 24 24"><path fill="currentColor" fill-rule="evenodd" d="M12 2c.472 0 .934.127 1.342.366.407.24.746.581.984.99l.002.004 8.316 14.46a2.86 2.86 0 0 1 .007 2.758 2.76 2.76 0 0 1-.976 1.03c-.41.25-.877.386-1.356.392H3.682a2.65 2.65 0 0 1-1.357-.393 2.76 2.76 0 0 1-.975-1.029 2.86 2.86 0 0 1 .008-2.758l.005-.01 8.31-14.45.001-.004c.238-.409.577-.75.985-.99C11.066 2.127 11.529 2 12 2m0 1.5c-.202 0-.403.055-.583.16s-.334.26-.445.45l-.001.001-8.305 14.442a1.36 1.36 0 0 0 0 1.305c.107.198.262.359.444.47.18.11.381.169.586.172h16.609c.204-.003.406-.062.586-.172.181-.111.336-.272.444-.47a1.36 1.36 0 0 0 0-1.305L13.03 4.11l-.001-.002a1.25 1.25 0 0 0-.446-.449c-.18-.105-.38-.16-.583-.16m.01 12.5a1 1 0 0 1 0 2H12a1 1 0 0 1 0-2zM12 8a.75.75 0 0 1 .75.75v4.5a.75.75 0 0 1-1.5 0v-4.5A.75.75 0 0 1 12 8" clip-rule="evenodd"/></svg>