<svg xmlns="http://www.w3.org/2000/svg" width="24" height="24" fill="none" viewBox="0 0 24 24"><g fill-rule="evenodd" clip-rule="evenodd"><path fill="url(#amazon-ecs-color-24__a)" d="m11.89 21.634-8.571-4.317v-9.66L9.859 3.8v2.867l-3.596 2.25a.65.65 0 0 0-.306.552v5.993a.65.65 0 0 0 .366.584l5.2 2.547a.67.67 0 0 0 .592-.003l4.082-2.054 2.742 2.284zm4.821-6.373a.67.67 0 0 0-.724-.082l-4.176 2.1-4.535-2.221V9.826l3.594-2.25a.65.65 0 0 0 .307-.552V2.653a.66.66 0 0 0-.997-.56L2.322 6.726a.65.65 0 0 0-.322.56v10.43c0 .245.138.47.36.58l9.198 4.634a.66.66 0 0 0 .546.023l8.345-3.328a.65.65 0 0 0 .178-1.104z"/><path fill="url(#amazon-ecs-color-24__b)" d="m20.38 15.179-2.57-1.996V9.47a.65.65 0 0 0-.311-.554l-3.68-2.254V3.796l6.562 3.84zm.996-8.474-7.88-4.614a.67.67 0 0 0-.664-.006.65.65 0 0 0-.332.566v4.373c0 .225.119.435.311.554l3.68 2.254V13.5c0 .2.094.39.253.513l3.889 3.022a.66.66 0 0 0 .695.073.65.65 0 0 0 .372-.585V7.265a.65.65 0 0 0-.324-.56"/></g><defs><linearGradient id="amazon-ecs-color-24__a" x1="13.489" x2="2.176" y1="7" y2="12.37" gradientUnits="userSpaceOnUse"><stop offset=".261" stop-color="#f7981d"/><stop offset=".697" stop-color="#f37731"/><stop offset="1" stop-color="#f1623e"/></linearGradient><linearGradient id="amazon-ecs-color-24__b" x1="13.489" x2="2.176" y1="7" y2="12.37" gradientUnits="userSpaceOnUse"><stop offset=".261" stop-color="#f7981d"/><stop offset=".697" stop-color="#f37731"/><stop offset="1" stop-color="#f1623e"/></linearGradient></defs></svg>