<svg xmlns="http://www.w3.org/2000/svg" width="16" height="16" fill="none" viewBox="0 0 16 16"><path fill="currentColor" d="M8 .12c4.343 0 7.876 3.533 7.876 7.876S12.343 15.872 8 15.872.124 12.34.124 7.996C.124 3.654 3.657.12 8 .12zm0 1.13a6.753 6.753 0 00-6.745 6.745A6.753 6.753 0 008 14.741a6.753 6.753 0 006.745-6.746A6.753 6.753 0 008 1.25zm0 2.81a.564.564 0 01.512.33l2.812 6.187a.562.562 0 01-.845.685L6.825 8.566 5.7 11.042a.56.56 0 01-.511.33l-.07-.004a.564.564 0 01-.442-.79L7.488 4.39A.564.564 0 018 4.06zm-.7 3.46l2.104 1.552L8 5.982 7.3 7.52z"/></svg>