<svg xmlns="http://www.w3.org/2000/svg" width="24" height="24" fill="none" viewBox="0 0 24 24"><path fill="currentColor" d="M19 2a3.001 3.001 0 1 1-1.524 5.585l-1.79 1.79.68.681a2.75 2.75 0 0 1 0 3.889l-.68.68 1.79 1.79A3.001 3.001 0 1 1 19 22a3 3 0 0 1-2.585-4.524l-1.79-1.79-.68.68a2.75 2.75 0 0 1-3.89 0l-.68-.68-1.79 1.79A3.001 3.001 0 0 1 5 22a3 3 0 1 1 1.523-5.585l1.791-1.79-.68-.68a2.75 2.75 0 0 1 0-3.889l.68-.68-1.79-1.79a3 3 0 1 1 1.062-1.062l1.789 1.79.68-.68a2.75 2.75 0 0 1 3.89 0l.68.68 1.79-1.79A3 3 0 0 1 19 2M5 17.5a1.5 1.5 0 1 0 0 3 1.5 1.5 0 0 0 0-3m14 0a1.5 1.5 0 1 0 0 3 1.5 1.5 0 0 0 0-3m-6.116-8.805a1.25 1.25 0 0 0-1.768 0l-2.422 2.422a1.25 1.25 0 0 0 0 1.767l2.422 2.422c.488.487 1.28.488 1.768 0l2.422-2.422a1.25 1.25 0 0 0 0-1.767zM5 3.5a1.5 1.5 0 1 0 0 3 1.5 1.5 0 0 0 0-3m14 0a1.5 1.5 0 1 0 0 3 1.5 1.5 0 0 0 0-3"/></svg>