<svg xmlns="http://www.w3.org/2000/svg" width="16" height="16" fill="none" viewBox="0 0 16 16"><path fill="currentColor" fill-rule="evenodd" d="M4.581.768A8.011 8.011 0 019.817.21a8.013 8.013 0 014.448 2.818A8.012 8.012 0 0116 8v1.001c0 1.46-.964 2.998-2.75 3a2.62 2.62 0 01-2.3-1.298 4.002 4.002 0 01-2.95 1.298 4.002 4.002 0 01-4-4 4.001 4.001 0 016.5-3.123v-.127c0-.413.336-.75.75-.75.412.002.75.338.75.75v4.25c0 .462.144.847.356 1.1.203.24.495.4.894.4.708-.002 1.25-.595 1.25-1.5v-1a6.51 6.51 0 00-1.408-4.04 6.512 6.512 0 00-3.614-2.29 6.512 6.512 0 00-4.255.453 6.503 6.503 0 00-1.35 10.898A6.513 6.513 0 007.888 14.5a6.513 6.513 0 004.063-1.339.753.753 0 011.052.14c.249.328.186.8-.14 1.051a8.013 8.013 0 01-5 1.647 8.014 8.014 0 01-4.943-1.817A8.005 8.005 0 014.581.768zM8 5.501c-1.38 0-2.5 1.12-2.5 2.5a2.502 2.502 0 002.5 2.5 2.505 2.505 0 002.5-2.5 2.504 2.504 0 00-2.5-2.5z" clip-rule="evenodd"/></svg>