<svg xmlns="http://www.w3.org/2000/svg" width="24" height="24" fill="none" viewBox="0 0 24 24"><path fill="currentColor" fill-rule="evenodd" d="M7.3 2.054a11.01 11.01 0 017.2-.767 11.01 11.01 0 016.116 3.875A11.009 11.009 0 0123 11.999v1.024c0 1.915-1.507 3.975-3.825 3.977-1.52 0-2.606-.865-3.186-1.983A5 5 0 017 12a5.002 5.002 0 018.5-3.571v-.68c.001-.412.337-.749.75-.75.413.002.75.338.75.75v5.274c0 1.334.889 2.476 2.175 2.477 1.329-.002 2.325-1.22 2.325-2.477V12a9.508 9.508 0 00-2.058-5.904 9.51 9.51 0 00-5.283-3.347 9.51 9.51 0 00-6.217.662 9.509 9.509 0 00-4.46 4.384A9.506 9.506 0 002.713 14a9.506 9.506 0 003.255 5.339 9.51 9.51 0 005.87 2.159 9.51 9.51 0 005.939-1.956.752.752 0 011.05.14.753.753 0 01-.138 1.05 11.012 11.012 0 01-6.878 2.266 11.008 11.008 0 01-6.795-2.5A11.006 11.006 0 012.137 7.13 11.008 11.008 0 017.3 2.054zM12 8.5A3.502 3.502 0 008.5 12c.001 1.932 1.568 3.5 3.5 3.5a3.503 3.503 0 003.5-3.5A3.503 3.503 0 0012 8.5z" clip-rule="evenodd"/></svg>