<svg xmlns="http://www.w3.org/2000/svg" width="24" height="24" fill="none" viewBox="0 0 24 24"><g fill="currentColor"><path d="m8.888 3.32 3.028-1.632 3.028 1.632.006 4.517-3.025.504-3.037-.509z"/><path d="m4.793 5.24 3.345.949v2.278l2.298.385-2.285.254v5.843l2.294.268-2.294.426v2.33l-3.358.864v-.012l-1.12-.508V5.77l1.12-.51zM15.7 15.643v2.815l3.197.374 1.43-.816V6.07l-1.43-.816-3.2.374.004 2.844-2.282.38 2.28.254v5.843l-2.29.268z"/><path d="m8.9 16.267 3.029-.562 3.02.562v4.428l-3.024 1.617-3.024-1.617zM8.9 9.777l3.025-.336 3.025.336v4.505l-3.025.353-3.024-.353z"/></g></svg>