<svg xmlns="http://www.w3.org/2000/svg" width="16" height="16" fill="none" viewBox="0 0 16 16"><path fill="#000" fill-rule="evenodd" d="m14.91 12.673-2.655 1.423V10.76l2.656-1.422zm-3.19-2.778-2.659-1.42 2.661-1.477 2.66 1.471zm-4.254 2.788L4.81 14.105V10.76l2.657-1.428zm-6.4-3.342 2.677 1.421v3.28l-2.676-1.634zM7.99 1.077l2.615 1.402L8 3.734 5.392 2.49zm3.198 5.054L8.533 7.606V4.601l2.655-1.279zM7.466 7.595 4.81 6.13V3.334l2.657 1.268zm-3.192 2.3L1.6 8.475l2.676-1.478 2.66 1.467zm6.914 4.203-2.655-1.416V9.343l2.655 1.418zm4.527-6.052-.004-.002-3.456-1.913V2.504A.5.5 0 0 0 12 2.077c-.014-.008-.03-.006-.044-.012l.006-.01L8.252.065a.56.56 0 0 0-.532.001l-3.712 2.02.001.002q-.006.002-.011.003a.5.5 0 0 0-.255.427v3.612L.267 8.051l-.002.001-.002.001A.5.5 0 0 0 0 8.484v4.195c0 .169.09.327.242.419l3.743 2.287.004-.005c.009.005.01.014.02.019a.57.57 0 0 0 .532.002L8 13.548l3.453 1.84v.002l.005.002v-.001a.57.57 0 0 0 .528 0l3.722-1.994a.5.5 0 0 0 .27-.434V8.476c0-.177-.101-.34-.263-.43" clip-rule="evenodd"/></svg>