<svg xmlns="http://www.w3.org/2000/svg" width="24" height="24" fill="none" viewBox="0 0 24 24"><g fill="currentColor"><path d="M5.267 3.589 8.444 3l3.19 1.089v3.233L8.477 8.587V8.6l-.022-.005-.012.005-3.177-.678zM12.145 3.644l3.177-.588L18.5 4.144v3.223L15.333 8.65v.005l-.007-.002-.004.002-3.177-.678zM2 13.867l.011.002v.031l3.178.678L8.378 13.3v-3.233l-3.189-1.09-2.802.52-.387.07zM8.867 9.522l3.177-.589 3.178 1.09v3.233l-3.155 1.28v.008l-.015-.003-.008.003-.948-.205-2.23-.472zM15.722 9.578l3.178-.59.012.005.021-.004V9l3.156 1.078v3.233l-3.19 1.278-3.177-.678zM8.4 15.034v-.056l-3.21.622-.001 4.333 3.178.69.011-.005.022.004v-.013l1.968-.796 1.02-.39a.2.2 0 0 0 .083-.055l.085-.035v-3.222zM12.056 15.656v4.333l3.177.678.012-.005.022.005v-.014l3.155-1.264v-3.233l-3.189-1.09z"/></g></svg>