<svg xmlns="http://www.w3.org/2000/svg" width="24" height="24" fill="none" viewBox="0 0 24 24"><g fill="currentColor"><path d="m11.275 18.199 4.575-.808.043-.01-2.353-2.793a401 401 0 0 1-2.353-2.808c0-.013 2.43-6.693 2.443-6.717.004-.008 1.658 2.842 4.008 6.908 2.2 3.807 4.015 6.946 4.031 6.976L21.7 19l-14.957-.002zM2.3 17.347c0-.004 1.109-1.925 2.464-4.27l2.464-4.262 2.871-2.406A1077 1077 0 0 1 12.98 4a.5.5 0 0 1-.046.116l-3.118 6.676-3.062 6.557-2.227.002c-1.225.002-2.227 0-2.227-.004"/></g></svg>