<svg xmlns="http://www.w3.org/2000/svg" width="16" height="16" fill="none" viewBox="0 0 16 16"><g fill="currentColor"><path fill-rule="evenodd" d="M6.035 3.974A4.98 4.98 0 0 1 9 3c1.11 0 2.136.362 2.965.974l.005-.004a.75.75 0 1 1 1.06 1.06l-.004.005C13.638 5.865 14 6.89 14 8s-.362 2.136-.974 2.965l.004.005a.75.75 0 1 1-1.06 1.06l-.005-.004A4.98 4.98 0 0 1 9 13a4.98 4.98 0 0 1-2.965-.974l-.005.004a.75.75 0 0 1-1.06-1.06l.004-.005A4.98 4.98 0 0 1 4 8c0-1.11.362-2.136.974-2.965L4.97 5.03a.75.75 0 0 1 1.06-1.06zm1.078 1.078A3.5 3.5 0 0 1 9 4.5c.695 0 1.343.203 1.887.552l-.917.918a.75.75 0 0 0 1.06 1.06l.918-.917c.35.544.552 1.192.552 1.887s-.203 1.343-.552 1.887l-.918-.917a.75.75 0 1 0-1.06 1.06l.917.918A3.5 3.5 0 0 1 9 11.5a3.5 3.5 0 0 1-1.887-.552l.917-.918a.75.75 0 1 0-1.06-1.06l-.918.917A3.5 3.5 0 0 1 5.5 8c0-.695.203-1.343.552-1.887l.918.917a.75.75 0 0 0 1.06-1.06z" clip-rule="evenodd"/><path d="M2.75 3.25A.75.75 0 0 1 3.5 4v1.5a.75.75 0 0 1-1.5 0V4a.75.75 0 0 1 .75-.75M3.5 10.5a.75.75 0 0 0-1.5 0V12a.75.75 0 0 0 1.5 0z"/><path fill-rule="evenodd" d="M2.25 1A2.25 2.25 0 0 0 0 3.25v9.5A2.25 2.25 0 0 0 2.25 15H3v.25a.75.75 0 0 0 1.5 0V15h7v.25a.75.75 0 0 0 1.5 0V15h.75A2.25 2.25 0 0 0 16 12.75v-9.5A2.25 2.25 0 0 0 13.75 1zm11.5 12.5a.75.75 0 0 0 .75-.75v-9.5a.75.75 0 0 0-.75-.75H2.25a.75.75 0 0 0-.75.75v9.5c0 .414.336.75.75.75z" clip-rule="evenodd"/></g></svg>