<svg xmlns="http://www.w3.org/2000/svg" width="24" height="24" fill="none" viewBox="0 0 24 24"><path fill="currentColor" fill-rule="evenodd" d="M17.25 4a.75.75 0 0 1 0 1.5h-.662l-1.442 2.884a.25.25 0 0 0 .002.225l4.656 9.118C20.568 19.224 19.48 21 17.8 21H6.2c-1.68 0-2.768-1.776-2.004-3.273l4.656-9.118a.25.25 0 0 0 0-.225L7.413 5.5H6.75a.75.75 0 0 1 0-1.5zM5.532 18.41A.75.75 0 0 0 6.2 19.5h11.6a.75.75 0 0 0 .668-1.09L15.96 13.5H8.039zm4.662-10.697a1.75 1.75 0 0 1-.006 1.578L8.805 12h6.39l-1.383-2.709a1.75 1.75 0 0 1-.007-1.578L14.91 5.5H9.088z" clip-rule="evenodd"/></svg>