<svg xmlns="http://www.w3.org/2000/svg" width="16" height="16" fill="none" viewBox="0 0 16 16"><path fill="currentColor" fill-rule="evenodd" d="M10.136.803a.752.752 0 011.06 0 .752.752 0 010 1.06l-.415.415C11.524 2.932 12 3.854 12 4.91c0 .102-.005.206-.014.306.094.016.174.03.239.045a.976.976 0 01.775.951V6.6l1.571-.628a.753.753 0 01.976.417.753.753 0 01-.418.975L13 8.214v1.13l1.85.246c.41.055.698.433.644.843a.753.753 0 01-.843.644l-1.658-.221a3.949 3.949 0 01-.426 1.555l2.364.887a.753.753 0 01.438.966.753.753 0 01-.966.438l-2.665-1a.788.788 0 01-.122-.057C10.687 14.49 9.382 15 8 15s-2.687-.51-3.615-1.355a.791.791 0 01-.121.057l-2.667 1a.752.752 0 01-.965-.438.752.752 0 01.438-.966l2.365-.887a3.948 3.948 0 01-.427-1.555l-1.658.221a.753.753 0 01-.843-.644.752.752 0 01.645-.843l1.848-.246V8.175L.971 7.363a.753.753 0 01-.418-.975.753.753 0 01.975-.417L3 6.559V6.21c0-.473.335-.854.777-.951.064-.014.144-.03.237-.045a3.456 3.456 0 01-.014-.306c0-1.055.476-1.977 1.219-2.63l-.415-.416a.752.752 0 010-1.06.752.752 0 011.06 0l.695.694a4.334 4.334 0 012.884 0l.694-.694zM7.999 6.5c-1.904 0-2.957.086-3.5.158v3.95C4.5 12.1 5.955 13.499 8 13.5c2.044 0 3.499-1.4 3.5-2.892v-3.95C10.956 6.586 9.904 6.5 8 6.5zm0-3.75c-1.46 0-2.5 1.044-2.5 2.16 0 .05.003.103.007.153A42.716 42.716 0 017.999 5c1.053 0 1.868.026 2.494.063.004-.05.006-.103.006-.154 0-1.115-1.04-2.158-2.5-2.159z" clip-rule="evenodd"/></svg>