<svg xmlns="http://www.w3.org/2000/svg" width="16" height="16" fill="none" viewBox="0 0 16 16"><path fill="currentColor" d="M9.823 1c.476 0 .91.27 1.121.695l.54 1.094 1.457.124A2.25 2.25 0 0115 5.154v6.596A2.25 2.25 0 0112.75 14h-9.5A2.25 2.25 0 011 11.75V5.154a2.25 2.25 0 012.059-2.24l1.457-.125.54-1.094C5.266 1.27 5.7 1 6.176 1h3.647zM5.672 3.833a.75.75 0 01-.609.414l-1.876.16a.75.75 0 00-.687.747v6.596c0 .414.336.75.75.75h9.5a.75.75 0 00.75-.75V5.154a.75.75 0 00-.687-.747l-1.877-.16a.75.75 0 01-.608-.414L9.668 2.5H6.332l-.66 1.333zM8 5a3 3 0 110 6 3 3 0 010-6zm0 1.5a1.5 1.5 0 100 3 1.5 1.5 0 000-3zM4.01 5a1 1 0 010 2H4a1 1 0 010-2h.01z"/></svg>