<svg xmlns="http://www.w3.org/2000/svg" width="16" height="16" fill="none" viewBox="0 0 16 16"><path fill="currentColor" d="M12.75 1a2.25 2.25 0 11-2.194 2.75H9c-.69 0-1.25.56-1.25 1.25v2.25h1.628a2.251 2.251 0 110 1.5H7.75V11c0 .69.56 1.25 1.25 1.25h1.556a2.25 2.25 0 11.177 1.5H9A2.75 2.75 0 016.25 11V8.75h-.878a2.251 2.251 0 110-1.5h.878V5A2.75 2.75 0 019 2.25h1.733A2.25 2.25 0 0112.75 1zm0 11a.75.75 0 100 1.5.75.75 0 000-1.5zm-9.5-4.75a.75.75 0 10.75.764v-.028a.75.75 0 00-.75-.736zm8.25 0a.75.75 0 100 1.5.75.75 0 000-1.5zm1.25-4.75a.75.75 0 100 1.5.75.75 0 000-1.5z"/></svg>