<svg xmlns="http://www.w3.org/2000/svg" width="16" height="16" fill="none" viewBox="0 0 16 16"><g fill="currentColor"><path d="M11.28 5.72a.75.75 0 0 1 0 1.06l-4 4a.75.75 0 0 1-1.06 0l-2-2a.75.75 0 0 1 1.06-1.06l1.47 1.47 3.47-3.47a.75.75 0 0 1 1.06 0"/><path fill-rule="evenodd" d="M.75 6.41 6.407.752a2.25 2.25 0 0 1 3.182 0l5.657 5.656a2.25 2.25 0 0 1 0 3.182l-5.657 5.657a2.25 2.25 0 0 1-3.182 0L.75 9.591a2.25 2.25 0 0 1 0-3.182m6.718-4.597L1.81 7.47a.75.75 0 0 0 0 1.06l5.657 5.657a.75.75 0 0 0 1.06 0l5.657-5.656a.75.75 0 0 0 0-1.061L8.528 1.813a.75.75 0 0 0-1.06 0" clip-rule="evenodd"/></g></svg>