<svg xmlns="http://www.w3.org/2000/svg" width="24" height="24" fill="none" viewBox="0 0 24 24"><path fill="currentColor" d="M15.25 1c.966 0 1.75.784 1.75 1.75V3h1.25A2.75 2.75 0 0121 5.75v14.5A2.75 2.75 0 0118.25 23H5.75A2.75 2.75 0 013 20.25V5.75A2.75 2.75 0 015.75 3H7v-.25C7 1.784 7.784 1 8.75 1h6.5zm.78 8.97a.75.75 0 00-1.06 0L12 12.94 9.03 9.97a.75.75 0 10-1.06 1.06L10.94 14l-2.97 2.97a.75.75 0 101.06 1.06L12 15.06l2.97 2.97a.75.75 0 101.06-1.06L13.06 14l2.97-2.97a.75.75 0 000-1.06zM8.75 2.5a.25.25 0 00-.25.25v1.5c0 .138.112.25.25.25h6.5a.25.25 0 00.25-.25v-1.5a.25.25 0 00-.25-.25h-6.5z"/></svg>