<svg xmlns="http://www.w3.org/2000/svg" width="24" height="24" fill="none" viewBox="0 0 24 24"><path fill="currentColor" d="M15.25 1c.966 0 1.75.784 1.75 1.75V3h1.25A2.75 2.75 0 0 1 21 5.75v14.5A2.75 2.75 0 0 1 18.25 23H5.75A2.75 2.75 0 0 1 3 20.25V5.75A2.75 2.75 0 0 1 5.75 3H7v-.25C7 1.784 7.784 1 8.75 1zm-9.5 3.5c-.69 0-1.25.56-1.25 1.25v14.5c0 .69.56 1.25 1.25 1.25h12.5c.69 0 1.25-.56 1.25-1.25V5.75c0-.69-.56-1.25-1.25-1.25h-1.268A1.75 1.75 0 0 1 15.25 6h-6.5a1.75 1.75 0 0 1-1.732-1.5zm3-2a.25.25 0 0 0-.25.25v1.5c0 .138.112.25.25.25h6.5a.25.25 0 0 0 .25-.25v-1.5a.25.25 0 0 0-.25-.25z"/></svg>