<svg xmlns="http://www.w3.org/2000/svg" width="16" height="16" fill="none" viewBox="0 0 16 16"><path fill="currentColor" d="M10.75 0c.605 0 1.109.43 1.225 1h.775A2.25 2.25 0 0 1 15 3.25v3a.75.75 0 0 1-1.5 0v-3a.75.75 0 0 0-.75-.75H12v.25C12 3.44 11.44 4 10.75 4h-5.5C4.56 4 4 3.44 4 2.75V2.5h-.75a.75.75 0 0 0-.75.75v10.5c0 .414.336.75.75.75h9.5a.75.75 0 0 0 .75-.75v-1a.75.75 0 0 1 1.5 0v1A2.25 2.25 0 0 1 12.75 16h-9.5A2.25 2.25 0 0 1 1 13.75V3.25A2.25 2.25 0 0 1 3.25 1h.775c.116-.57.62-1 1.225-1zm-3 11.5a.75.75 0 0 1 0 1.5h-3a.75.75 0 0 1 0-1.5zm3.47-5.28a.75.75 0 1 1 1.06 1.06L11.06 8.5h4.19a.75.75 0 0 1 0 1.5h-4.19l1.22 1.22a.75.75 0 1 1-1.06 1.06l-2.5-2.499a.753.753 0 0 1 0-1.061zM6.75 8.5a.75.75 0 0 1 0 1.5h-2a.75.75 0 0 1 0-1.5zm1-3a.75.75 0 0 1 0 1.5h-3a.75.75 0 0 1 0-1.5zm-2.25-3h5v-1h-5z"/></svg>