<svg xmlns="http://www.w3.org/2000/svg" width="24" height="24" fill="none" viewBox="0 0 24 24"><path fill="currentColor" fill-rule="evenodd" d="M12.013 12a.758.758 0 01.533.236l4.25 4.5a.752.752 0 01-.03 1.06.753.753 0 01-1.06-.03l-2.955-3.128v6.613a.753.753 0 01-.75.75.753.753 0 01-.75-.75v-6.613l-2.955 3.127a.753.753 0 01-1.06.03.752.752 0 01-.03-1.059l4.248-4.499a.753.753 0 01.534-.236h.025zM8.028 1.048a8.884 8.884 0 017.586 2.982 9.033 9.033 0 011.803 3.16h.726a5.85 5.85 0 013.698 1.327 5.921 5.921 0 012.036 3.373 5.95 5.95 0 01-.527 3.91 5.888 5.888 0 01-2.859 2.705.753.753 0 01-.989-.384.752.752 0 01.384-.988 4.388 4.388 0 002.129-2.016c.46-.899.598-1.933.393-2.924a4.421 4.421 0 00-1.52-2.517 4.346 4.346 0 00-2.745-.987h-1.288a.754.754 0 01-.727-.564 7.535 7.535 0 00-1.64-3.104 7.445 7.445 0 00-2.858-2.007 7.385 7.385 0 00-3.45-.474c-1.17.12-2.297.52-3.284 1.165a7.48 7.48 0 00-2.4 2.549 7.56 7.56 0 00-.338 6.832 7.505 7.505 0 002.137 2.777c.321.26.373.733.114 1.055a.753.753 0 01-1.054.113 9.009 9.009 0 01-2.567-3.334 9.07 9.07 0 01.406-8.187 8.979 8.979 0 012.881-3.06 8.9 8.9 0 013.953-1.402z" clip-rule="evenodd"/></svg>