<svg xmlns="http://www.w3.org/2000/svg" width="24" height="24" fill="none" viewBox="0 0 24 24"><path fill="currentColor" fill-rule="evenodd" d="M12.001 9c1.066 0 2.087.436 2.835 1.203a4.132 4.132 0 011.165 2.88v.931c1.124.125 2 1.08 2 2.237v4.5a2.252 2.252 0 01-2.25 2.25h-7.5a2.254 2.254 0 01-2.25-2.25v-4.5c0-1.157.877-2.11 2-2.237v-.93c0-1.076.418-2.114 1.164-2.881A3.969 3.969 0 0112.001 9zm-3.75 6.5a.754.754 0 00-.75.75v4.5c0 .413.338.749.75.75h7.5c.414 0 .75-.336.75-.75v-4.5a.752.752 0 00-.75-.75h-7.5zm3.75 2.5c.414.001.75.337.75.75v.5c0 .414-.336.75-.75.75a.754.754 0 01-.75-.75v-.5c0-.412.338-.747.75-.75zM8.028 1.048a8.885 8.885 0 017.586 2.982 9.03 9.03 0 011.803 3.16h.726a5.849 5.849 0 013.697 1.325 5.92 5.92 0 012.037 3.374 5.948 5.948 0 01-.527 3.91 5.904 5.904 0 01-1.839 2.126.753.753 0 01-1.045-.178.754.754 0 01.178-1.045 4.403 4.403 0 001.37-1.585c.46-.9.6-1.933.394-2.924a4.419 4.419 0 00-1.52-2.517 4.345 4.345 0 00-2.745-.987h-1.288a.756.756 0 01-.727-.564 7.533 7.533 0 00-1.64-3.105 7.443 7.443 0 00-2.858-2.007 7.387 7.387 0 00-3.45-.473c-1.17.12-2.297.52-3.284 1.165a7.486 7.486 0 00-2.4 2.549 7.565 7.565 0 00-.338 6.832c.289.644 1.076 1.681 1.608 2.29a.751.751 0 01-.071 1.058.752.752 0 01-1.058-.071c-.546-.624-1.463-1.804-1.849-2.666a9.073 9.073 0 01.406-8.188 8.984 8.984 0 012.881-3.06 8.905 8.905 0 013.953-1.401zM12 10.5c-.655 0-1.292.268-1.761.75a2.635 2.635 0 00-.739 1.833V14h5v-.917c0-.69-.269-1.35-.74-1.833a2.466 2.466 0 00-1.76-.75z" clip-rule="evenodd"/></svg>