<svg xmlns="http://www.w3.org/2000/svg" width="16" height="16" fill="none" viewBox="0 0 16 16"><path fill="currentColor" fill-rule="evenodd" d="M10.72 9.22a.75.75 0 0 1 1.06 1.06l-4.5 4.5a.75.75 0 0 1-1.06 0l-2-2a.75.75 0 0 1 1.06-1.06l1.47 1.47zM3.93 1.373a6.03 6.03 0 0 1 6.24 1.28 6 6 0 0 1 1.504 2.285h.28c1.072 0 2.1.424 2.859 1.18a4.025 4.025 0 0 1-.665 6.238.75.75 0 0 1-.811-1.262q.226-.145.417-.336a2.525 2.525 0 0 0 0-3.578 2.55 2.55 0 0 0-1.8-.742h-.83a.75.75 0 0 1-.726-.562 4.5 4.5 0 0 0-1.26-2.135 4.53 4.53 0 0 0-4.688-.96 4.5 4.5 0 0 0-2.006 1.466 4.49 4.49 0 0 0 .387 5.943.75.75 0 0 1-1.056 1.065 5.983 5.983 0 0 1-.516-7.929 6 6 0 0 1 2.671-1.953" clip-rule="evenodd"/></svg>