<svg xmlns="http://www.w3.org/2000/svg" width="16" height="16" fill="none" viewBox="0 0 16 16"><path fill="currentColor" fill-rule="evenodd" d="M3.932 2.374a6.035 6.035 0 0 1 6.238 1.28 6 6 0 0 1 1.505 2.284h.28c1.071 0 2.1.425 2.859 1.18a4.03 4.03 0 0 1 1.185 2.851c0 1.07-.427 2.097-1.185 2.852a4.06 4.06 0 0 1-2.858 1.18h-5.93a6.015 6.015 0 0 1-5.41-3.354 5.99 5.99 0 0 1 .644-6.32 6.03 6.03 0 0 1 2.663-1.95zm3.001 1.22a4.55 4.55 0 0 0-2.476.184l-.006.003a4.53 4.53 0 0 0-2.006 1.467A4.486 4.486 0 0 0 3.63 11.82c.715.443 1.543.68 2.386.68h5.939c.674 0 1.323-.268 1.8-.742a2.53 2.53 0 0 0 .743-1.789c0-.67-.267-1.314-.744-1.789a2.56 2.56 0 0 0-1.8-.742h-.83a.75.75 0 0 1-.726-.561 4.5 4.5 0 0 0-1.26-2.135 4.54 4.54 0 0 0-2.206-1.149" clip-rule="evenodd"/></svg>