<svg xmlns="http://www.w3.org/2000/svg" width="16" height="16" fill="none" viewBox="0 0 16 16"><path fill="currentColor" fill-rule="evenodd" d="M1.22 1.22a.752.752 0 011.06 0l12.5 12.5a.752.752 0 010 1.061.753.753 0 01-1.06 0l-1.11-1.11a4.018 4.018 0 01-.79.08H6.093c-1.089 0-2.16-.3-3.085-.865A5.791 5.791 0 01.85 10.54a5.683 5.683 0 01-.572-3.116l.001-.005a5.711 5.711 0 012.166-3.911L1.22 2.28a.753.753 0 010-1.06zm2.297 3.358a4.321 4.321 0 00-.863.826c-.493.628-.8 1.38-.882 2.165v.004a4.182 4.182 0 00.42 2.296c.356.712.91 1.315 1.599 1.736.688.421 1.486.646 2.299.646h5.1L3.516 4.578zM6.38 2.955a.752.752 0 01.884-.587 5.879 5.879 0 012.845 1.463 5.752 5.752 0 011.454 2.17h.255c1.038 0 2.037.406 2.775 1.13a3.852 3.852 0 011.156 2.745c0 .408-.066.812-.19 1.192a.752.752 0 01-.947.479.753.753 0 01-.48-.946c.077-.232.117-.478.117-.725 0-.625-.253-1.229-.707-1.675a2.465 2.465 0 00-1.724-.7h-.802a.754.754 0 01-.725-.56 4.238 4.238 0 00-1.206-2.014 4.379 4.379 0 00-2.12-1.088.753.753 0 01-.585-.884z" clip-rule="evenodd"/></svg>