<svg xmlns="http://www.w3.org/2000/svg" width="24" height="24" fill="none" viewBox="0 0 24 24"><path fill="currentColor" d="M18.25 2a3.75 3.75 0 110 7.5H16v5h2.25a3.75 3.75 0 11-3.75 3.75V16h-5v2.25a3.75 3.75 0 11-3.75-3.75H8v-5H5.75A3.75 3.75 0 119.5 5.75V8h5V5.75A3.75 3.75 0 0118.25 2zM5.75 16A2.25 2.25 0 108 18.25V16H5.75zM16 18.25A2.25 2.25 0 1018.25 16H16v2.25zM9.5 14.5h5v-5h-5v5zm-3.75-11a2.25 2.25 0 000 4.5H8V5.75A2.25 2.25 0 005.75 3.5zm12.5 0A2.25 2.25 0 0016 5.75V8h2.25a2.25 2.25 0 000-4.5z"/></svg>