<svg xmlns="http://www.w3.org/2000/svg" width="24" height="24" fill="none" viewBox="0 0 24 24"><g fill="currentColor" clip-path="url(#confluence-24__clip0_7057_66)"><path d="M2.71 17.177c-.207.338-.44.73-.621 1.042a.637.637 0 00.213.866l4.14 2.548a.636.636 0 00.883-.216c.162-.277.376-.637.608-1.023 1.64-2.707 3.293-2.376 6.265-.955l4.105 1.952a.634.634 0 00.857-.318l1.972-4.46a.637.637 0 00-.319-.834c-.866-.407-2.59-1.223-4.14-1.968-5.593-2.72-10.335-2.542-13.963 3.366z"/><path d="M21.275 7.05c.207-.338.44-.733.637-1.042a.637.637 0 00-.216-.866l-4.141-2.548a.637.637 0 00-.88.216c-.165.277-.378.637-.61 1.022-1.64 2.708-3.29 2.376-6.265.956L5.68 2.845a.637.637 0 00-.853.319L2.856 7.623a.637.637 0 00.319.834c.866.408 2.592 1.22 4.14 1.968 5.59 2.698 10.332 2.52 13.96-3.376z"/></g><defs><clipPath id="confluence-24__clip0_7057_66"><path fill="#fff" d="M0 0h20v20H0z" transform="translate(2 2)"/></clipPath></defs></svg>