<svg xmlns="http://www.w3.org/2000/svg" width="16" height="16" fill="none" viewBox="0 0 16 16"><path fill="url(#confluence-color-16__a)" d="M1.497 11.624c-.145.237-.308.51-.435.73a.446.446 0 0 0 .15.606l2.898 1.783a.446.446 0 0 0 .617-.151c.114-.194.263-.446.426-.716 1.148-1.895 2.306-1.663 4.386-.669l2.873 1.367a.446.446 0 0 0 .6-.223l1.38-3.121a.446.446 0 0 0-.223-.585c-.606-.285-1.812-.856-2.898-1.377-3.915-1.904-7.235-1.78-9.774 2.356"/><path fill="url(#confluence-color-16__b)" d="M14.493 4.535c.144-.237.307-.513.445-.73a.446.446 0 0 0-.151-.606l-2.899-1.784a.446.446 0 0 0-.615.152c-.116.194-.265.446-.428.716-1.148 1.895-2.303 1.663-4.385.669l-2.883-1.36a.446.446 0 0 0-.597.223L1.6 4.935a.446.446 0 0 0 .222.585c.607.285 1.815.854 2.899 1.378 3.912 1.888 7.232 1.763 9.772-2.363"/><defs><linearGradient id="confluence-color-16__a" x1="14.87" x2="3.71" y1="16.506" y2="13.163" gradientUnits="userSpaceOnUse"><stop stop-color="#0050d3"/><stop offset=".94" stop-color="#007ffc"/><stop offset="1" stop-color="#0082ff"/></linearGradient><linearGradient id="confluence-color-16__b" x1="1.684" x2="10.453" y1=".495" y2="5.533" gradientUnits="userSpaceOnUse"><stop stop-color="#0050d3"/><stop offset=".94" stop-color="#007ffc"/><stop offset="1" stop-color="#0082ff"/></linearGradient></defs></svg>