<svg xmlns="http://www.w3.org/2000/svg" width="24" height="24" fill="none" viewBox="0 0 24 24"><path fill="currentColor" d="M9.25 2c.966 0 1.75.784 1.75 1.75v16.5A1.75 1.75 0 019.25 22h-5.5A1.75 1.75 0 012 20.25V3.75C2 2.784 2.784 2 3.75 2h5.5zm11 11c.966 0 1.75.784 1.75 1.75v5.5A1.75 1.75 0 0120.25 22h-5.5A1.75 1.75 0 0113 20.25v-5.5c0-.966.784-1.75 1.75-1.75h5.5zM3.75 3.5a.25.25 0 00-.25.25v16.5c0 .138.112.25.25.25h5.5a.25.25 0 00.25-.25V3.75a.25.25 0 00-.25-.25h-5.5zm11 11a.25.25 0 00-.25.25v5.5c0 .138.112.25.25.25h5.5a.25.25 0 00.25-.25v-5.5a.25.25 0 00-.25-.25h-5.5zM20.25 2c.966 0 1.75.784 1.75 1.75v5.5A1.75 1.75 0 0120.25 11h-5.5A1.75 1.75 0 0113 9.25v-5.5c0-.966.784-1.75 1.75-1.75h5.5zm-5.5 1.5a.25.25 0 00-.25.25v5.5c0 .138.112.25.25.25h5.5a.25.25 0 00.25-.25v-5.5a.25.25 0 00-.25-.25h-5.5z"/></svg>