<svg xmlns="http://www.w3.org/2000/svg" width="16" height="16" fill="none" viewBox="0 0 16 16"><path fill="currentColor" d="M5.75 1C6.44 1 7 1.56 7 2.25v11.5C7 14.44 6.44 15 5.75 15h-3.5C1.56 15 1 14.44 1 13.75V2.25C1 1.56 1.56 1 2.25 1h3.5zm8 8c.69 0 1.25.56 1.25 1.25v3.5c0 .69-.56 1.25-1.25 1.25h-3.5C9.56 15 9 14.44 9 13.75v-3.5C9 9.56 9.56 9 10.25 9h3.5zM2.5 13.5h3v-11h-3v11zm8 0h3v-3h-3v3zM13.75 1c.69 0 1.25.56 1.25 1.25v3.5C15 6.44 14.44 7 13.75 7h-3.5C9.56 7 9 6.44 9 5.75v-3.5C9 1.56 9.56 1 10.25 1h3.5zM10.5 5.5h3v-3h-3v3z"/></svg>