<svg xmlns="http://www.w3.org/2000/svg" width="24" height="24" fill="none" viewBox="0 0 24 24"><path fill="currentColor" d="M12.555 1.015a.75.75 0 0 1-.078 1.498A9.5 9.5 0 1 0 12 21.5a9.5 9.5 0 0 0 8.747-5.788.75.75 0 0 1 1.382.583q-.107.255-.23.506v.002A11 11 0 0 1 12 23C5.925 23 1 18.075 1 12S5.925 1 12 1q.279 0 .555.015M11.75 5a.75.75 0 0 1 .75.75v5.786l4.085 2.043a.75.75 0 0 1-.67 1.342l-4.5-2.25A.75.75 0 0 1 11 12V5.75a.75.75 0 0 1 .75-.75m10.424 6.238a.75.75 0 0 1 .768.732q.015.552-.029 1.106a.75.75 0 0 1-1.495-.118q.037-.476.025-.95a.75.75 0 0 1 .73-.77m-1.197-3.923a.75.75 0 0 1 .99.381q.224.503.398 1.026a.75.75 0 0 1-1.423.475q-.151-.453-.346-.892a.75.75 0 0 1 .38-.99m-2.563-3.204a.75.75 0 0 1 1.06-.01q.394.386.749.807a.75.75 0 1 1-1.148.966 10 10 0 0 0-.65-.702.75.75 0 0 1-.01-1.06m-3.592-1.974a.75.75 0 0 1 .971-.428q.52.203 1.01.455a.75.75 0 0 1-.688 1.334 9 9 0 0 0-.865-.39.75.75 0 0 1-.428-.971"/></svg>