<svg xmlns="http://www.w3.org/2000/svg" width="16" height="16" fill="none" viewBox="0 0 16 16"><path fill="currentColor" d="M13.749 2a2.253 2.253 0 0 1 2.25 2.25v7.5a2.253 2.253 0 0 1-2.25 2.25h-8.03c-.508 0-.995-.224-1.327-.61L.18 8.49a.75.75 0 0 1 0-.98l4.21-4.9c.333-.386.82-.61 1.329-.61zm-8.03 1.5a.26.26 0 0 0-.19.087L1.74 8l3.79 4.413a.26.26 0 0 0 .19.087h8.03a.753.753 0 0 0 .75-.75v-7.5a.753.753 0 0 0-.75-.75zm5 1.72a.75.75 0 0 1 1.06 0c.291.292.291.768 0 1.06L10.06 8l1.72 1.72c.291.292.291.768 0 1.06a.75.75 0 0 1-1.06 0l-1.72-1.72-1.72 1.72a.75.75 0 0 1-1.06 0 .75.75 0 0 1 0-1.06L7.939 8l-1.72-1.72a.75.75 0 0 1 0-1.06.75.75 0 0 1 1.06 0L9 6.94z"/></svg>