<svg xmlns="http://www.w3.org/2000/svg" width="24" height="24" fill="none" viewBox="0 0 24 24"><path fill="currentColor" d="M20.25 7A2.75 2.75 0 0123 9.75v12.5a.75.75 0 01-1.219.586l-3.202-2.563A1.25 1.25 0 0017.8 20H9.75A2.75 2.75 0 017 17.25v-7.5A2.75 2.75 0 019.75 7h10.5zM9.75 8.5c-.69 0-1.25.56-1.25 1.25v7.5c0 .69.56 1.25 1.25 1.25h8.049c.624 0 1.23.212 1.718.602L21.5 20.69V9.75c0-.69-.56-1.25-1.25-1.25H9.75zm4.5-6.5A2.75 2.75 0 0117 4.75v.5a.75.75 0 01-1.5 0v-.5c0-.69-.56-1.25-1.25-1.25H3.75c-.69 0-1.25.56-1.25 1.25v10.94l2.531-2.026a.75.75 0 01.938 1.172l-3.75 3A.75.75 0 011 17.25V4.75A2.75 2.75 0 013.75 2h10.5z"/></svg>