<svg xmlns="http://www.w3.org/2000/svg" width="16" height="16" fill="none" viewBox="0 0 16 16"><g fill="currentColor"><path fill-rule="evenodd" d="M9.833 4.25a5.084 5.084 0 014.574 7.304c.006.032.015.077.03.133.05.197.139.453.248.734.086.223.176.443.26.645l.06.147c.05.117.095.23.132.326.03.081.075.2.097.306a.752.752 0 01-.734.905c-.169 0-.332-.04-.447-.072a4.81 4.81 0 01-.394-.134c-.188-.072-.402-.162-.606-.248l-.215-.09a7.695 7.695 0 00-.706-.266 1.81 1.81 0 00-.095-.025A5.084 5.084 0 119.833 4.25zm0 1.5a3.583 3.583 0 101.653 6.764c.246-.128.497-.118.627-.105.153.015.307.053.443.093.203.06.428.145.643.231a7.119 7.119 0 01-.217-.676 2.635 2.635 0 01-.079-.455c-.009-.13-.014-.377.11-.616a3.584 3.584 0 00-3.18-5.236z" clip-rule="evenodd"/><path d="M5.981 1.05c1.223 0 2.344.437 3.216 1.162a.7.7 0 11-.894 1.076A3.634 3.634 0 002.757 7.76c.124.237.11.49.1.61a2.989 2.989 0 01-.083.469 7.858 7.858 0 01-.2.654c.26-.09.52-.171.75-.223a.7.7 0 01.312 1.365c-.34.078-.837.258-1.278.434-.213.086-.404.166-.54.225l-.16.07-.044.019-.01.004-.002.002a.701.701 0 01-.925-.928v-.001l.003-.005.007-.017.03-.069a20.34 20.34 0 00.43-1.049c.113-.299.211-.59.269-.821.022-.089.035-.157.042-.205A5.034 5.034 0 015.981 1.05z"/></g></svg>