<svg xmlns="http://www.w3.org/2000/svg" width="24" height="24" fill="none" viewBox="0 0 24 24"><path fill="currentColor" d="M16 10a7 7 0 1 1 0 14 7 7 0 0 1 0-14m3.25-9c.966 0 1.75.784 1.75 1.75v6.5a.75.75 0 0 1-1.5 0v-6.5a.25.25 0 0 0-.25-.25H5.75c-.69 0-1.25.56-1.25 1.25V17.8c.375-.192.8-.3 1.25-.3h1.5a.75.75 0 0 1 0 1.5h-1.5a1.25 1.25 0 1 0 0 2.5h3a.75.75 0 0 1 0 1.5h-3A2.75 2.75 0 0 1 3 20.25V3.75A2.75 2.75 0 0 1 5.75 1zM16 11.5a5.5 5.5 0 1 0 0 11 5.5 5.5 0 0 0 0-11m0 1.5a.75.75 0 0 1 .75.75v4.69l1.22-1.22a.75.75 0 1 1 1.06 1.06l-2.5 2.5a.75.75 0 0 1-1.06 0l-2.5-2.5a.75.75 0 0 1 1.06-1.06l1.22 1.22v-4.69A.75.75 0 0 1 16 13"/></svg>