<svg xmlns="http://www.w3.org/2000/svg" width="16" height="16" fill="none" viewBox="0 0 16 16"><g fill="currentColor"><path fill-rule="evenodd" d="M3.5 3.25a.75.75 0 0 1 .75-.75H8A.75.75 0 0 0 8 1H4.25A2.25 2.25 0 0 0 2 3.25v9.5A2.25 2.25 0 0 0 4.25 15h8.5c.69 0 1.25-.56 1.25-1.25V7a.75.75 0 0 0-1.5 0v3H4.25q-.396.002-.75.128zm0 9v.5c0 .414.336.75.75.75h8.25v-2H4.25a.75.75 0 0 0-.75.75" clip-rule="evenodd"/><path d="M12.5 3.56v.69a.75.75 0 0 0 1.5 0v-2.5a.75.75 0 0 0-.75-.75h-2.5a.75.75 0 0 0 0 1.5h.69L9.47 4.47a.75.75 0 0 0 1.06 1.06z"/></g></svg>