<svg xmlns="http://www.w3.org/2000/svg" width="16" height="16" fill="none" viewBox="0 0 16 16"><path fill="currentColor" d="M11 6.05a4.95 4.95 0 110 9.9 4.95 4.95 0 010-9.9zM12.75 1c.69 0 1.25.56 1.25 1.25V4.5a.75.75 0 01-1.5 0v-2H4.25a.75.75 0 00-.75.75v6.878c.235-.083.487-.128.75-.128h.25a.75.75 0 010 1.5h-.25a.75.75 0 00-.75.75v.5c0 .414.336.75.75.75h1a.75.75 0 010 1.5h-1A2.25 2.25 0 012 12.75v-9.5A2.25 2.25 0 014.25 1h8.5zM11 7.45a3.55 3.55 0 100 7.1 3.55 3.55 0 000-7.1zm0 .95a.6.6 0 01.6.6v2.552l.726-.727a.6.6 0 01.848.849l-1.75 1.75a.6.6 0 01-.848 0l-1.75-1.75a.6.6 0 01.848-.849l.726.727V9a.6.6 0 01.6-.6z"/></svg>