<svg xmlns="http://www.w3.org/2000/svg" width="16" height="16" fill="none" viewBox="0 0 16 16"><path fill="currentColor" d="M7.75 0a.75.75 0 0 1 .75.75V2h3.25a.75.75 0 0 1 0 1.5H8.5v3.75h1.094c.9 0 1.766.353 2.405.985A3.36 3.36 0 0 1 13 10.625a3.36 3.36 0 0 1-1.001 2.39A3.42 3.42 0 0 1 9.594 14H8.5v1.25a.75.75 0 0 1-1.5 0V14H4.25a.75.75 0 0 1 0-1.5H7V8.75h-.594c-.9 0-1.766-.353-2.405-.985A3.36 3.36 0 0 1 3 5.375a3.36 3.36 0 0 1 1.001-2.39A3.42 3.42 0 0 1 6.406 2H7V.75A.75.75 0 0 1 7.75 0m.75 12.5h1.094c.508 0 .994-.2 1.35-.553.357-.352.556-.828.556-1.322s-.2-.97-.556-1.322a1.92 1.92 0 0 0-1.35-.553H8.5zm-2.094-9c-.508 0-.994.2-1.35.553A1.86 1.86 0 0 0 4.5 5.375c0 .494.2.97.556 1.322s.842.553 1.35.553H7V3.5z"/></svg>