<svg xmlns="http://www.w3.org/2000/svg" width="24" height="24" fill="none" viewBox="0 0 24 24"><path fill="currentColor" d="M11.75 1a.75.75 0 01.75.75V4h4.708a.75.75 0 010 1.5H12.5v5.75h2.104c1.165 0 2.282.46 3.107 1.28A4.364 4.364 0 0119 15.625a4.364 4.364 0 01-1.29 3.095A4.407 4.407 0 0114.605 20H12.5v2.25a.75.75 0 01-1.5 0V20H5.75a.75.75 0 010-1.5H11v-5.75H9.396a4.407 4.407 0 01-3.107-1.28A4.364 4.364 0 015 8.375C5 7.213 5.464 6.1 6.29 5.28A4.407 4.407 0 019.395 4H11V1.75a.75.75 0 01.75-.75zm.75 17.5h2.104c.77 0 1.507-.304 2.05-.844a2.864 2.864 0 000-4.062 2.907 2.907 0 00-2.05-.844H12.5v5.75zm-3.104-13c-.77 0-1.507.304-2.05.844A2.864 2.864 0 006.5 8.375c0 .761.304 1.492.847 2.031.542.54 1.28.844 2.049.844H11V5.5H9.396z"/></svg>