<svg xmlns="http://www.w3.org/2000/svg" width="24" height="24" fill="none" viewBox="0 0 24 24"><path fill="currentColor" d="M21.25 14a.75.75 0 01.75.75v4.5A2.75 2.75 0 0119.25 22H4.75A2.75 2.75 0 012 19.25v-4.5a.75.75 0 011.5 0v4.5c0 .69.56 1.25 1.25 1.25h14.5c.69 0 1.25-.56 1.25-1.25v-4.5a.75.75 0 01.75-.75zM12 2a.75.75 0 01.75.75v10.628l3.957-4.146a.75.75 0 011.086 1.036l-5.25 5.5a.748.748 0 01-.531.232h-.024a.748.748 0 01-.508-.209l-.015-.015-.009-.01-5.249-5.498a.75.75 0 011.086-1.036l3.957 4.146V2.75A.75.75 0 0112 2z"/></svg>