<svg xmlns="http://www.w3.org/2000/svg" width="16" height="16" fill="none" viewBox="0 0 16 16"><path fill="currentColor" d="M14.25 9a.75.75 0 0 1 .75.75v3A2.25 2.25 0 0 1 12.75 15h-9.5A2.25 2.25 0 0 1 1 12.75v-3a.75.75 0 0 1 1.5 0v3c0 .414.336.75.75.75h9.5a.75.75 0 0 0 .75-.75v-3a.75.75 0 0 1 .75-.75M8 1a.75.75 0 0 1 .75.75v6.59l1.95-2.1a.75.75 0 0 1 1.1 1.02l-3.25 3.5-.051.05a.75.75 0 0 1-.482.19h-.034a.75.75 0 0 1-.496-.203l-.025-.024-.013-.014L4.2 7.26a.75.75 0 0 1 1.1-1.022l1.95 2.1V1.75A.75.75 0 0 1 8 1"/></svg>