<svg xmlns="http://www.w3.org/2000/svg" width="16" height="16" fill="none" viewBox="0 0 16 16"><path fill="currentColor" d="M6 2a.75.75 0 0 1 0 1.5H3.25a.75.75 0 0 0-.75.75v9.5c0 .414.336.75.75.75h9.5a.75.75 0 0 0 .75-.75V9A.75.75 0 0 1 15 9v4.75A2.25 2.25 0 0 1 12.75 16h-9.5A2.25 2.25 0 0 1 1 13.75v-9.5A2.25 2.25 0 0 1 3.25 2zm5.437-.994A1.75 1.75 0 0 1 13.9.79l.704.59a1.75 1.75 0 0 1 .214 2.465l-5.704 6.798a4.8 4.8 0 0 1-1.496 1.186l-2.572 1.299a.75.75 0 0 1-1.056-.886l.832-2.758a4.8 4.8 0 0 1 .91-1.68zM6.88 8.768a3.3 3.3 0 0 0-.621 1.149L5.933 11l1.01-.51a3.3 3.3 0 0 0 1.024-.811l4.206-5.013-1.082-.915zm6.057-6.829a.25.25 0 0 0-.353.03l-.53.634 1.082.914.534-.636a.25.25 0 0 0-.031-.353z"/></svg>