<svg xmlns="http://www.w3.org/2000/svg" width="16" height="16" fill="none" viewBox="0 0 16 16"><path fill="currentColor" d="M11.25 0a.75.75 0 0 1 .75.75V1h1.75A2.25 2.25 0 0 1 16 3.25v10.5A2.25 2.25 0 0 1 13.75 16H2.25A2.25 2.25 0 0 1 0 13.75V3.25A2.25 2.25 0 0 1 2.25 1H4V.75a.75.75 0 0 1 1.5 0V1h5V.75a.75.75 0 0 1 .75-.75m-9 2.5a.75.75 0 0 0-.75.75v10.5c0 .414.336.75.75.75h11.5a.75.75 0 0 0 .75-.75V3.25a.75.75 0 0 0-.75-.75H12v.75a.75.75 0 0 1-1.5 0V2.5h-5v.75a.75.75 0 0 1-1.5 0V2.5zM8 3.75a.75.75 0 0 1 .675.424l1.14 2.358 2.545.38a.752.752 0 0 1 .418 1.274l-1.85 1.838.438 2.602a.75.75 0 0 1-1.094.785L8 12.191l-2.271 1.22a.75.75 0 0 1-1.095-.785l.437-2.602-1.85-1.838A.75.75 0 0 1 3.64 6.91l2.545-.379 1.14-2.358A.75.75 0 0 1 8 3.75m-.638 3.792a.75.75 0 0 1-.564.415l-1.46.218 1.065 1.058a.75.75 0 0 1 .211.657l-.248 1.476 1.28-.686a.75.75 0 0 1 .708 0l1.28.686-.248-1.476a.75.75 0 0 1 .21-.657l1.066-1.058-1.46-.218a.75.75 0 0 1-.564-.415L8 6.222z"/></svg>