<svg xmlns="http://www.w3.org/2000/svg" width="24" height="24" fill="none" viewBox="0 0 24 24"><path fill="currentColor" d="M16.25 1.25A.75.75 0 0 1 17 2v1h2.25A2.75 2.75 0 0 1 22 5.75v14.5A2.75 2.75 0 0 1 19.25 23H4.75A2.75 2.75 0 0 1 2 20.25V5.75A2.75 2.75 0 0 1 4.75 3H7V2a.75.75 0 0 1 1.5 0v1h7V2a.75.75 0 0 1 .75-.75M4.75 4.5c-.69 0-1.25.56-1.25 1.25v14.5c0 .69.56 1.25 1.25 1.25h14.5c.69 0 1.25-.56 1.25-1.25V5.75c0-.69-.56-1.25-1.25-1.25H17V6a.75.75 0 0 1-1.5 0V4.5h-7V6A.75.75 0 0 1 7 6V4.5zM12 7.25a.75.75 0 0 1 .673.418l1.524 3.09 3.411.499a.75.75 0 0 1 .415 1.28l-2.467 2.403.583 3.394a.75.75 0 0 1-1.09.791L12 17.52l-3.05 1.605a.75.75 0 0 1-1.089-.791l.583-3.394-2.467-2.404a.75.75 0 0 1 .415-1.28l3.41-.498 1.525-3.09A.75.75 0 0 1 12 7.25m-1.027 4.525a.75.75 0 0 1-.564.41l-2.298.335 1.662 1.62a.75.75 0 0 1 .216.664l-.392 2.286 2.054-1.08a.75.75 0 0 1 .698 0l2.054 1.08-.392-2.286a.75.75 0 0 1 .216-.664l1.662-1.62-2.298-.335a.75.75 0 0 1-.564-.41L12 9.695z"/></svg>