<svg xmlns="http://www.w3.org/2000/svg" width="16" height="16" fill="none" viewBox="0 0 16 16"><path fill="#1abcfe" d="M8.55 8c0-1.289 1.019-2.333 2.275-2.333S13.1 6.71 13.1 8s-1.019 2.333-2.275 2.333S8.55 9.29 8.55 8"/><path fill="#0acf83" d="M4 12.667c0-1.289 1.019-2.334 2.275-2.334H8.55v2.334C8.55 13.955 7.531 15 6.275 15S4 13.955 4 12.667"/><path fill="#ff7262" d="M8.55 1v4.667h2.275c1.257 0 2.275-1.045 2.275-2.334C13.1 2.045 12.082 1 10.825 1z"/><path fill="#f24e1e" d="M4 3.333c0 1.289 1.019 2.334 2.275 2.334H8.55V1H6.275C5.019 1 4 2.045 4 3.333"/><path fill="#a259ff" d="M4 8c0 1.289 1.019 2.333 2.275 2.333H8.55V5.667H6.275C5.019 5.667 4 6.71 4 8"/></svg>