<svg xmlns="http://www.w3.org/2000/svg" width="16" height="16" fill="none" viewBox="0 0 16 16"><path fill="currentColor" d="M9.543 0c.331 0 .65.132.884.366l4.207 4.207c.234.234.366.553.366.884v8.293A2.25 2.25 0 0 1 12.75 16h-9.5A2.25 2.25 0 0 1 1 13.75V2.25A2.25 2.25 0 0 1 3.25 0zM3.25 1.5a.75.75 0 0 0-.75.75v11.5c0 .414.336.75.75.75h9.5a.75.75 0 0 0 .75-.75V6H9.75A.75.75 0 0 1 9 5.25V1.5zm3.089 6.28a.626.626 0 0 1 .822.94L5.699 10l1.462 1.28a.626.626 0 0 1-.822.94l-2-1.75a.627.627 0 0 1 0-.94zm2.44.059a.626.626 0 0 1 .882-.06l2 1.75a.627.627 0 0 1 0 .941l-2 1.75a.625.625 0 0 1-.822-.94L10.3 10 8.839 8.72a.626.626 0 0 1-.06-.881m1.72-3.34h1.94L10.5 2.56z"/></svg>