<svg xmlns="http://www.w3.org/2000/svg" width="24" height="24" fill="none" viewBox="0 0 24 24"><path fill="currentColor" d="M13.336 1c.464 0 .91.185 1.237.513l5.914 5.914c.329.328.513.773.513 1.237V20.25A2.75 2.75 0 0118.25 23H5.75A2.75 2.75 0 013 20.25V3.75A2.75 2.75 0 015.75 1h7.586zM5.75 2.5c-.69 0-1.25.56-1.25 1.25v16.5c0 .69.56 1.25 1.25 1.25h12.5c.69 0 1.25-.56 1.25-1.25V9h-5.75a.75.75 0 01-.75-.75V2.5H5.75zm6 8.25a.75.75 0 01.75.75V14H15a.75.75 0 010 1.5h-2.5V18a.75.75 0 01-1.5 0v-2.5H8.5a.75.75 0 010-1.5H11v-2.5a.75.75 0 01.75-.75zM14.5 7.5h3.94L14.5 3.56V7.5z"/></svg>