<svg xmlns="http://www.w3.org/2000/svg" width="16" height="16" fill="none" viewBox="0 0 16 16"><path fill="currentColor" d="M9.543 0c.331 0 .65.132.884.366l4.207 4.207c.234.234.366.553.366.884v8.293A2.25 2.25 0 0 1 12.75 16h-9.5A2.25 2.25 0 0 1 1 13.75V2.25A2.25 2.25 0 0 1 3.25 0zM3.25 1.5a.75.75 0 0 0-.75.75v11.5c0 .414.336.75.75.75h9.5a.75.75 0 0 0 .75-.75V6H9.75A.75.75 0 0 1 9 5.25V1.5zM7.75 7a.75.75 0 0 1 .75.75V9h1.25a.75.75 0 0 1 0 1.5H8.5v1.25a.75.75 0 0 1-1.5 0V10.5H5.75a.75.75 0 0 1 0-1.5H7V7.75A.75.75 0 0 1 7.75 7m2.75-2.5h1.94L10.5 2.56z"/></svg>