<svg xmlns="http://www.w3.org/2000/svg" width="16" height="16" fill="none" viewBox="0 0 16 16"><path fill="currentColor" d="M8 0a8 8 0 110 16A8 8 0 018 0zm0 1.5a6.5 6.5 0 100 13 6.5 6.5 0 000-13zM8 9c.965 0 1.72.403 2.215.777.249.189.442.377.573.52.078.084.154.171.22.264a.75.75 0 01-.17 1.047.759.759 0 01-1.046-.168 2.73 2.73 0 00-.482-.467c-.331-.25-.776-.473-1.31-.473s-.979.222-1.31.473a2.49 2.49 0 00-.484.468.75.75 0 01-1.215-.88h.001c.217-.3.499-.561.792-.784C6.278 9.403 7.034 9 8 9zM6.007 5a1 1 0 010 2H6a1 1 0 010-2h.007zm4 0a1 1 0 010 2H10a1 1 0 110-2h.007z"/></svg>