<svg xmlns="http://www.w3.org/2000/svg" width="16" height="16" fill="none" viewBox="0 0 16 16"><path fill="currentColor" fill-rule="evenodd" d="m11.87 3.465-.002-.003a5.94 5.94 0 0 0-5.586-1.217 5.89 5.89 0 0 0-3.98 4.092 4.206 4.206 0 0 0-.149 6.792 4.26 4.26 0 0 0 2.558.87h6.52a4.23 4.23 0 0 0 4.078-2.961A4.2 4.2 0 0 0 13.637 6.3a5.84 5.84 0 0 0-1.767-2.835m-7.828 7.78c.21.095.438.16.67.16l6.518.002c.9 0 1.63-.725 1.63-1.619s-.73-1.619-1.63-1.619v-.323a3.23 3.23 0 0 0-1.187-2.56h-.002c-1.339-1.078-3.305-.912-4.465.354l-.014.015c.996.2 1.897.751 2.525 1.568L6.198 9.101a1.63 1.63 0 0 0-3.097.439 1.62 1.62 0 0 0 .942 1.704z" clip-rule="evenodd"/></svg>