<svg xmlns="http://www.w3.org/2000/svg" width="16" height="16" fill="none" viewBox="0 0 16 16"><path fill="currentColor" d="M8.5 12a.5.5 0 0 1 .5.5v3a.5.5 0 0 1-.777.416L7 15.101l-1.223.815A.5.5 0 0 1 5 15.5v-3a.5.5 0 0 1 .5-.5zm5.25-12C14.44 0 15 .56 15 1.25v12.5c0 .69-.56 1.25-1.25 1.25H10.5a.75.75 0 0 1 0-1.5h3v-3H3.25a.75.75 0 0 0-.75.75v1.5c0 .414.336.75.75.75h.25a.75.75 0 0 1 0 1.5h-.25A2.25 2.25 0 0 1 1 12.75V2.25A2.25 2.25 0 0 1 3.25 0zM3.25 1.5a.75.75 0 0 0-.75.75v6.878q.354-.126.75-.128H13.5V1.5z"/></svg>