<svg xmlns="http://www.w3.org/2000/svg" width="24" height="24" fill="none" viewBox="0 0 24 24"><path fill="#7248b9" d="M17.89 22H6.11c-.748 0-1.36-.614-1.36-1.364V3.364C4.75 2.614 5.362 2 6.11 2h8.156l4.984 5v13.636c0 .75-.612 1.364-1.36 1.364"/><path fill="#56368a" d="m14.266 2 4.984 5h-4.984z"/><path fill="#fdffff" d="M16.078 10.864h-5.89V9.727h5.89zm0 1.59h-5.89v1.137h5.89zm0 2.728h-5.89v1.136h5.89zM9.055 10.295a.624.624 0 1 1-1.248.002.624.624 0 0 1 1.248-.002M9.055 13.023a.624.624 0 1 1-1.248.002.624.624 0 0 1 1.248-.002M9.055 15.75a.624.624 0 1 1-1.248.002.624.624 0 0 1 1.248-.002"/></svg>