<svg xmlns="http://www.w3.org/2000/svg" width="24" height="24" fill="none" viewBox="0 0 24 24"><path fill="#0066da" d="m3.512 18.427.882 1.535c.183.323.447.576.756.761l3.15-5.492H2c0 .357.092.715.275 1.038z"/><path fill="#00ac47" d="M12 8.77 8.85 3.276c-.31.184-.573.438-.756.761l-5.82 10.154c-.179.316-.274.674-.274 1.039h6.3z"/><path fill="#ea4335" d="M18.85 20.723c.31-.185.573-.438.756-.761l.366-.635 1.753-3.058c.183-.323.275-.68.275-1.038h-6.3l1.34 2.654z"/><path fill="#00832d" d="m12 8.77 3.15-5.493A2 2 0 0 0 14.119 3H9.881a2.1 2.1 0 0 0-1.031.277z"/><path fill="#2684fc" d="M15.7 15.23H8.3l-3.15 5.493c.31.185.665.277 1.031.277H17.82a2.1 2.1 0 0 0 1.031-.277z"/><path fill="#ffba00" d="m18.816 9.115-2.91-5.077a2.1 2.1 0 0 0-.756-.761L12 8.769l3.7 6.462h6.288c0-.358-.091-.716-.274-1.039z"/></svg>