<svg xmlns="http://www.w3.org/2000/svg" width="16" height="16" fill="none" viewBox="0 0 16 16"><path fill="currentColor" fill-rule="evenodd" d="M2.553 2.73c3.21-2.539 7.208-1.427 9.914.433l.04.03c.267.21.354.502.388.651.026.112.04.23.05.325a2.32 2.32 0 01.284-.028c.144-.004.461.003.735.227l.147.12c.45.368.774.633 1.31 1.082a.75.75 0 01.09 1.061l-2.756 3.24a.75.75 0 01-1.052.09l-.253-.21a23.85 23.85 0 01-1.146-.995 1.13 1.13 0 01-.34-.778c-.004-.067-.005-.142-.005-.192v-.03c0-.034-.002-.063-.003-.09l-4.741 6.13a1.75 1.75 0 01-2.478.294l-.912-.73a1.75 1.75 0 01-.256-2.482L6.433 5a4.176 4.176 0 00-1.353-.638c-.462-.123-.908-.168-1.47-.225-.208-.02-.432-.043-.678-.072a.75.75 0 01-.38-1.333zm.172 9.104a.25.25 0 00.037.355l.913.73a.25.25 0 00.353-.042l3.84-4.962-1.17-.884-3.973 4.803zm8.724-7.548c-1.814-1.199-3.99-1.864-5.966-1.37.818.22 1.613.622 2.51 1.405a.75.75 0 01.085 1.043l-.423.51 1.131.855.62-.803a.752.752 0 011.08-.112c.677.575.906 1.133.958 1.642.012.11.014.21.015.283v.044c.204.186.417.369.635.551l1.784-2.097c-.238-.197-.454-.373-.712-.584l-.1.017-.022.004a3.032 3.032 0 01-.395.051c-.131.006-.456.008-.735-.218a1.173 1.173 0 01-.388-.645 2.96 2.96 0 01-.064-.436l-.001-.012-.012-.128z" clip-rule="evenodd"/></svg>