<svg xmlns="http://www.w3.org/2000/svg" width="24" height="24" fill="none" viewBox="0 0 24 24"><path fill="currentColor" d="M10.611 4.5a.75.75 0 01.55.24l.476.514.523-.531a.75.75 0 01.534-.223h3.473a.75.75 0 01.55.24L17.883 6h4.367a.75.75 0 010 1.5H20v7.458c0 .69.56 1.25 1.25 1.25h1a.75.75 0 010 1.5h-1A2.75 2.75 0 0118.704 16h-2.437l-2.713 2.204a2.751 2.751 0 01-3.134.234L6.295 16h-1a2.75 2.75 0 01-2.545 1.708h-1a.75.75 0 010-1.5h1c.69 0 1.25-.56 1.25-1.25V7.5H1.75a.75.75 0 010-1.5h4.367l1.166-1.26a.75.75 0 01.55-.24h2.778zM6.995 7.26a.75.75 0 01-.55.24H5.5v7h1c.134 0 .266.036.382.105l4.302 2.541a1.25 1.25 0 001.423-.106l2.312-1.878-1.48-1.664a.75.75 0 111.121-.996l1.777 1.998H18.5v-7h-.944a.75.75 0 01-.551-.24L15.839 6h-2.831L10.37 8.673a1.25 1.25 0 00-.032 1.723l.119.13a1.25 1.25 0 001.763.08l1.275-1.16a.75.75 0 011.01 1.109l-1.277 1.16a2.75 2.75 0 01-3.876-.177l-.12-.129a2.75 2.75 0 01.07-3.79l1.28-1.297L10.283 6H8.161L6.995 7.26zm-5.12 5.879a.875.875 0 110 1.75.875.875 0 010-1.75zM22.125 13a.875.875 0 110 1.75.875.875 0 010-1.75z"/></svg>