<svg xmlns="http://www.w3.org/2000/svg" width="16" height="16" fill="none" viewBox="0 0 16 16"><path fill="currentColor" d="M11.252 1a2.25 2.25 0 012.07 1.368l2.498 5.867c.119.279.18.579.18.881v3.634A2.25 2.25 0 0113.75 15H2.25A2.25 2.25 0 010 12.75V9.116c0-.303.061-.602.18-.88l2.498-5.868A2.25 2.25 0 014.748 1h6.504zM1.5 12.75c0 .414.336.75.75.75h11.5a.75.75 0 00.75-.75V9.5h-13v3.25zm2.75-2.25a.75.75 0 010 1.5h-.5a.75.75 0 010-1.5h.5zm.498-8a.75.75 0 00-.69.456L1.91 8h12.18l-2.148-5.044a.75.75 0 00-.69-.456H4.748z"/></svg>