<svg xmlns="http://www.w3.org/2000/svg" width="16" height="16" fill="none" viewBox="0 0 16 16"><path fill="currentColor" d="M8 0a8 8 0 110 16A8 8 0 018 0zm0 1.5a6.5 6.5 0 100 13 6.5 6.5 0 000-13zm.007 9.5a1 1 0 010 2H8a1 1 0 110-2h.007zM6.376 3.43a3.034 3.034 0 013.907.68 3.13 3.13 0 01.717 2c0 .487-.092.905-.274 1.266a2.47 2.47 0 01-.68.817c-.193.156-.41.292-.581.399-.034.02-.066.04-.096.06a2.508 2.508 0 00-.452.338.646.646 0 00-.172.293.75.75 0 01-1.499-.033c0-.163.035-.324.086-.479.08-.243.232-.543.516-.832.238-.242.505-.419.718-.554l.127-.08c.169-.106.296-.186.415-.282a.977.977 0 00.279-.323c.059-.116.113-.296.113-.59 0-.383-.132-.754-.372-1.044a1.535 1.535 0 00-1.982-.348c-.318.191-.563.492-.687.851a.75.75 0 01-1.418-.49c.238-.69.71-1.275 1.335-1.648z"/></svg>