<svg xmlns="http://www.w3.org/2000/svg" width="16" height="16" fill="none" viewBox="0 0 16 16"><path fill="currentColor" d="M8 0a8 8 0 1 1 0 16A8 8 0 0 1 8 0m0 1.5a6.5 6.5 0 1 0 0 13 6.5 6.5 0 0 0 0-13m.007 9.5a1 1 0 0 1 0 2H8a1 1 0 0 1 0-2zM6.376 3.43a3.034 3.034 0 0 1 3.907.68 3.13 3.13 0 0 1 .717 2c0 .487-.092.905-.275 1.266-.182.36-.431.62-.678.817-.194.156-.411.292-.582.399q-.051.03-.096.06a2.5 2.5 0 0 0-.452.338.65.65 0 0 0-.172.293.75.75 0 0 1-1.499-.033c0-.163.035-.324.086-.479a2.14 2.14 0 0 1 .516-.832c.238-.242.504-.419.718-.554l.127-.08c.168-.106.296-.186.415-.282a1 1 0 0 0 .279-.323c.059-.117.113-.296.113-.59 0-.383-.132-.754-.372-1.044a1.536 1.536 0 0 0-1.982-.348c-.318.19-.563.492-.687.851a.75.75 0 0 1-1.418-.49c.238-.69.71-1.275 1.335-1.648"/></svg>