<svg xmlns="http://www.w3.org/2000/svg" width="16" height="16" fill="none" viewBox="0 0 16 16"><path fill="currentColor" fill-rule="evenodd" d="M11.987.5a1.5 1.5 0 0 1 1.318 2.217L10.493 7.88a.25.25 0 0 0 0 .238l2.812 5.164a1.5 1.5 0 0 1-1.318 2.217H4.012a1.5 1.5 0 0 1-1.318-2.217L5.506 8.12a.25.25 0 0 0 0-.238L2.694 2.717A1.5 1.5 0 0 1 4.012.5zM6.823 7.163a1.75 1.75 0 0 1 0 1.674L4.012 14h7.975L9.176 8.837a1.75 1.75 0 0 1 0-1.674L11.987 2H4.012zM9.5 12c.413.001.75.336.75.75a.75.75 0 0 1-.75.75h-3a.75.75 0 0 1 0-1.5zM8.25 4.5c.413.001.75.336.75.75a.75.75 0 0 1-.75.75h-.5a.75.75 0 0 1 0-1.5z" clip-rule="evenodd"/></svg>