<svg xmlns="http://www.w3.org/2000/svg" width="24" height="24" fill="none" viewBox="0 0 24 24"><path fill="currentColor" d="M19.25 2A2.75 2.75 0 0 1 22 4.75v14.5A2.75 2.75 0 0 1 19.25 22H4.75A2.75 2.75 0 0 1 2 19.25V4.75A2.75 2.75 0 0 1 4.75 2zm-2.484 9.765a1.25 1.25 0 0 0-1.657-.06L4.47 20.468q.135.031.281.032h14.5c.69 0 1.25-.56 1.25-1.25v-3.929zM4.75 3.5c-.69 0-1.25.56-1.25 1.25v14.5q0 .036.002.071l10.653-8.773a2.75 2.75 0 0 1 3.645.13l2.7 2.572v-8.5c0-.69-.56-1.25-1.25-1.25zM8.5 6a2.5 2.5 0 1 1 0 5 2.5 2.5 0 0 1 0-5m0 1.5a1 1 0 1 0 0 2 1 1 0 0 0 0-2"/></svg>