<svg xmlns="http://www.w3.org/2000/svg" width="24" height="24" fill="none" viewBox="0 0 24 24"><path fill="currentColor" d="M16.798 3a2.75 2.75 0 0 1 2.429 1.46l3.452 6.498c.21.397.321.84.321 1.29v6.002A2.75 2.75 0 0 1 20.25 21H3.75A2.75 2.75 0 0 1 1 18.25v-6.002c0-.45.11-.893.321-1.29L4.773 4.46A2.75 2.75 0 0 1 7.203 3zM2.5 18.25c0 .69.56 1.25 1.25 1.25h16.5c.69 0 1.25-.56 1.25-1.25V13h-5.099l-1.777 2.666A.75.75 0 0 1 14 16h-4a.75.75 0 0 1-.624-.334L7.599 13H2.5zM7.202 4.5a1.25 1.25 0 0 0-1.103.663L2.732 11.5H8a.75.75 0 0 1 .624.334l1.777 2.666H13.6l1.777-2.666A.75.75 0 0 1 16 11.5h5.268L17.9 5.163a1.25 1.25 0 0 0-1.103-.663z"/></svg>