<svg xmlns="http://www.w3.org/2000/svg" width="16" height="16" fill="none" viewBox="0 0 16 16"><path fill="#2684FF" d="M15.323 7.558L8.633.663 7.989 0 2.971 5.171.677 7.536c-.236.243-.236.64 0 .906l4.589 4.73L7.989 16l5.018-5.171.086-.089 2.23-2.298a.64.64 0 000-.884zM7.99 10.365L5.695 8l2.294-2.365L10.284 8l-2.295 2.365z"/><path fill="url(#jira-color-16__paint0_linear_4403_94)" d="M7.99 5.635C6.487 4.088 6.487 1.57 7.967.022L2.95 5.193 5.673 8 7.99 5.635z"/><path fill="url(#jira-color-16__paint1_linear_4403_94)" d="M10.284 8l-2.295 2.365C9.49 11.912 9.49 14.43 7.99 16l5.04-5.193L10.284 8z"/><defs><linearGradient id="jira-color-16__paint0_linear_4403_94" x1="7.58" x2="4.279" y1="3.24" y2="6.443" gradientUnits="userSpaceOnUse"><stop offset=".176" stop-color="#0052CC"/><stop offset="1" stop-color="#2684FF"/></linearGradient><linearGradient id="jira-color-16__paint1_linear_4403_94" x1="8.428" x2="11.722" y1="12.726" y2="9.53" gradientUnits="userSpaceOnUse"><stop offset=".176" stop-color="#0052CC"/><stop offset="1" stop-color="#2684FF"/></linearGradient></defs></svg>