<svg xmlns="http://www.w3.org/2000/svg" width="24" height="24" fill="none" viewBox="0 0 24 24"><path fill="currentColor" d="M7.25 17a.75.75 0 0 1 0 1.5h-3.5a.75.75 0 0 1 0-1.5zm13 0a.75.75 0 0 1 0 1.5h-9.5a.75.75 0 0 1 0-1.5zm-15-4a.75.75 0 0 1 0 1.5h-1.5a.75.75 0 0 1 0-1.5zm13 0a.75.75 0 0 1 0 1.5h-7.5a.75.75 0 0 1 0-1.5zm-11-4a.75.75 0 0 1 0 1.5h-3.5a.75.75 0 0 1 0-1.5zm9 0a.75.75 0 0 1 0 1.5h-5.5a.75.75 0 0 1 0-1.5zm-10-4a.75.75 0 0 1 0 1.5h-2.5a.75.75 0 0 1 0-1.5zm13 0a.75.75 0 0 1 0 1.5h-8.5a.75.75 0 0 1 0-1.5z"/></svg>