<svg xmlns="http://www.w3.org/2000/svg" width="16" height="16" fill="none" viewBox="0 0 16 16"><path fill="currentColor" fill-rule="evenodd" d="M14.887 10.592a.75.75 0 01.725 1.314l-7.25 4a.752.752 0 01-.724 0l-7.25-4a.75.75 0 01.724-1.314L8 14.393l6.887-3.8zm0-3.5a.75.75 0 01.725 1.314l-7.25 4a.752.752 0 01-.724 0l-7.25-4a.75.75 0 01.724-1.313L8 10.893l6.887-3.8zM7.655.085a.75.75 0 01.69 0l7.25 3.75a.75.75 0 010 1.332l-7.25 3.75a.752.752 0 01-.69 0l-7.25-3.75a.752.752 0 010-1.332l7.25-3.75zM2.383 4.5L8 7.405 13.618 4.5 8 1.595 2.383 4.5z" clip-rule="evenodd"/></svg>