<svg xmlns="http://www.w3.org/2000/svg" width="24" height="24" fill="none" viewBox="0 0 24 24"><path fill="currentColor" fill-rule="evenodd" d="M11.633 3.096a.752.752 0 01.734 0l10.25 5.75a.751.751 0 010 1.308l-2.82 1.582a.75.75 0 01.203.514v5c0 .099-.02.198-.058.289l-.692-.289c.63.263.686.288.691.29v.004l-.003.006-.007.014-.02.044a3.96 3.96 0 01-.339.553 5.604 5.604 0 01-1.21 1.194C17.2 20.21 15.312 21 12.346 21c-2.968 0-5.007-.79-6.319-1.615a7.57 7.57 0 01-1.426-1.147 5.19 5.19 0 01-.466-.558l-.009-.014-.003-.005-.002-.002c.005-.003.06-.041.629-.409l-.63.407A.752.752 0 014 17.25v-5a.75.75 0 01.203-.514l-2.82-1.582a.751.751 0 010-1.308l10.25-5.75zm.734 12.808a.751.751 0 01-.734 0L5.5 12.464v4.533c.047.056.108.124.183.202.232.242.604.577 1.143.916 1.072.675 2.833 1.385 5.52 1.385 2.686 0 4.252-.71 5.128-1.354.442-.325.721-.644.886-.87.062-.084.108-.155.14-.21v-4.602l-6.133 3.44zM3.283 9.5L12 14.39l8.717-4.89L12 4.61 3.283 9.5z" clip-rule="evenodd"/></svg>