<svg xmlns="http://www.w3.org/2000/svg" width="24" height="24" fill="none" viewBox="0 0 24 24"><path fill="currentColor" fill-rule="evenodd" d="M20.25 2A2.75 2.75 0 0123 4.75v14.5A2.75 2.75 0 0120.25 22H3.75A2.75 2.75 0 011 19.25V4.75A2.75 2.75 0 013.75 2h16.5zM3.75 3.5c-.69 0-1.25.56-1.25 1.25v10.821l6.074-4.188a.747.747 0 01.72-.072l4.305 1.721 2.163-5.048-1.554.7a.75.75 0 11-.615-1.368l3.191-1.436a.751.751 0 01.992.376l1.436 3.192a.75.75 0 01-1.368.615l-.687-1.526-2.463 5.747a.75.75 0 01-.972.412l-4.627-1.85L2.5 17.394v1.856c0 .69.56 1.25 1.25 1.25H8v-.75a.75.75 0 011.5 0v.75h5v-.75a.75.75 0 011.5 0v.75h4.25c.69 0 1.25-.56 1.25-1.25V4.75c0-.69-.56-1.25-1.25-1.25H3.75z" clip-rule="evenodd"/></svg>