<svg xmlns="http://www.w3.org/2000/svg" width="24" height="24" fill="none" viewBox="0 0 24 24"><path fill="currentColor" fill-rule="evenodd" d="M12 2c.413.002.75.337.75.75V11h6.69l-1.72-1.72a.75.75 0 1 1 1.06-1.06l3 3a.753.753 0 0 1 0 1.06l-3 3a.75.75 0 1 1-1.06-1.06l1.72-1.72h-6.69v6.94l1.72-1.72a.75.75 0 0 1 1.06 0 .753.753 0 0 1 0 1.06l-3 3a.75.75 0 0 1-1.06 0l-3-3a.75.75 0 1 1 1.06-1.06l1.72 1.72V12.5H4.56l1.72 1.72a.753.753 0 0 1 0 1.06.75.75 0 0 1-1.06 0l-3-3a.75.75 0 0 1 0-1.06l3-3a.75.75 0 0 1 1.06 0 .753.753 0 0 1 0 1.06L4.56 11h6.69V2.75A.75.75 0 0 1 12 2" clip-rule="evenodd"/></svg>