<svg xmlns="http://www.w3.org/2000/svg" width="24" height="24" fill="none" viewBox="0 0 24 24"><g fill="currentColor"><path d="M12.75 17a.75.75 0 0 0-1.5 0v2a.75.75 0 0 0 1.5 0z"/><path fill-rule="evenodd" d="M1.53.47A.75.75 0 0 0 .47 1.53L6 7.06v3.044a2.75 2.75 0 0 0-2 2.646v7.5A2.75 2.75 0 0 0 6.75 23h10.5c1.271 0 2.34-.862 2.656-2.034l2.564 2.564a.75.75 0 1 0 1.06-1.06zM18.5 19.56l-8.06-8.06H6.75c-.69 0-1.25.56-1.25 1.25v7.5c0 .69.56 1.25 1.25 1.25h10.5c.69 0 1.25-.56 1.25-1.25zM8.94 10 7.5 8.56V10z" clip-rule="evenodd"/><path d="M12 2.5a4.64 4.64 0 0 0-3.195 1.258q-.184.176-.345.368a.75.75 0 0 1-1.153-.959q.216-.26.463-.496A6.14 6.14 0 0 1 12 1c1.58 0 3.102.597 4.23 1.671A5.63 5.63 0 0 1 18 6.75v3.354c1.154.326 2 1.387 2 2.646v2.75a.75.75 0 0 1-1.5 0v-2.75c0-.69-.56-1.25-1.25-1.25H14.5a.75.75 0 0 1 0-1.5h2V6.75a4.13 4.13 0 0 0-1.305-2.992A4.64 4.64 0 0 0 12 2.5"/></g></svg>