<svg xmlns="http://www.w3.org/2000/svg" width="24" height="24" fill="none" viewBox="0 0 24 24"><path fill="currentColor" d="M12 1c1.58 0 3.102.597 4.23 1.67A5.63 5.63 0 0 1 18 6.75v3.354c1.154.326 2 1.387 2 2.646v7.5A2.75 2.75 0 0 1 17.25 23H6.75A2.75 2.75 0 0 1 4 20.25v-7.5c0-1.259.846-2.32 2-2.646V6.75c0-1.537.642-3.004 1.77-4.08A6.14 6.14 0 0 1 12 1M6.75 11.5c-.69 0-1.25.56-1.25 1.25v7.5c0 .69.56 1.25 1.25 1.25h10.5c.69 0 1.25-.56 1.25-1.25v-7.5c0-.69-.56-1.25-1.25-1.25zM12 16.25a.75.75 0 0 1 .75.75v2a.75.75 0 0 1-1.5 0v-2a.75.75 0 0 1 .75-.75M12 2.5a4.64 4.64 0 0 0-3.195 1.258A4.13 4.13 0 0 0 7.5 6.75V10h9V6.75a4.13 4.13 0 0 0-1.305-2.992A4.64 4.64 0 0 0 12 2.5"/></svg>