<svg xmlns="http://www.w3.org/2000/svg" width="24" height="24" fill="none" viewBox="0 0 24 24"><path fill="currentColor" d="M17.25 1A2.75 2.75 0 0 1 20 3.75v16.5A2.75 2.75 0 0 1 17.25 23H6.75A2.75 2.75 0 0 1 4 20.25V3.75A2.75 2.75 0 0 1 6.75 1zM6.75 2.5c-.69 0-1.25.56-1.25 1.25v16.5c0 .69.56 1.25 1.25 1.25h10.5c.69 0 1.25-.56 1.25-1.25V3.75c0-.69-.56-1.25-1.25-1.25zm8.25 11a.75.75 0 0 1 0 1.5H9a.75.75 0 0 1 0-1.5zm0-4a.75.75 0 0 1 0 1.5H9a.75.75 0 0 1 0-1.5zm0-4A.75.75 0 0 1 15 7H9a.75.75 0 0 1 0-1.5z"/></svg>