<svg xmlns="http://www.w3.org/2000/svg" width="24" height="24" fill="none" viewBox="0 0 24 24"><path fill="currentColor" fill-rule="evenodd" d="M6.927 1.607a1.752 1.752 0 011.613-.064l7.559 3.558c.073.034.16.03.23-.01l5.053-2.887c1.166-.666 2.617.177 2.618 1.52V17.42c0 .627-.337 1.208-.882 1.52l-6.045 3.453a1.751 1.751 0 01-1.613.065L7.901 18.9a.252.252 0 00-.23.01l-5.053 2.887C1.452 22.463.001 21.62 0 20.277V6.581c0-.627.337-1.208.882-1.52l6.045-3.454zM8.5 17.525l.04.018 6.96 3.275V6.476l-.04-.018L8.5 3.183v14.342zm14-13.801a.25.25 0 00-.374-.217l-5.053 2.887a1.771 1.771 0 01-.073.04v14.274l5.374-3.071a.252.252 0 00.126-.217V3.724zM1.626 6.364a.254.254 0 00-.126.217v13.696a.25.25 0 00.374.217l5.053-2.887.073-.04V3.293l-5.374 3.07z" clip-rule="evenodd"/></svg>