<svg xmlns="http://www.w3.org/2000/svg" width="16" height="16" fill="none" viewBox="0 0 16 16"><path fill="currentColor" fill-rule="evenodd" d="M5.2 1.187c.339-.17.738-.176 1.083-.017l3.983 1.844 4.004-1.668A1.25 1.25 0 0116 2.5v8.94c0 .474-.268.907-.691 1.119L10.8 14.814a1.25 1.25 0 01-1.084.015l-3.983-1.844-4.004 1.668A1.25 1.25 0 010 13.5V4.559c0-.473.268-.907.691-1.119L5.2 1.187zM1.5 4.713v8.412L5 11.666V2.963l-3.5 1.75zm5 6.974l3 1.39V4.312l-3-1.39v8.764zM11 4.333v8.703l3.5-1.75V2.875L11 4.333z" clip-rule="evenodd"/></svg>