<svg xmlns="http://www.w3.org/2000/svg" width="24" height="24" fill="none" viewBox="0 0 24 24"><path fill="currentColor" d="M12 0c2.65 0 5.194 1.048 7.07 2.914A9.932 9.932 0 0122 9.954c0 3.882-2.49 7.39-4.832 9.85a31.99 31.99 0 01-4.333 3.777 20.1 20.1 0 01-.389.273l-.022.015-.006.004-.002.001s-.001.001-.416-.624l.415.625a.751.751 0 01-.83 0l-.009-.006-.022-.015a28.894 28.894 0 01-1.465-1.086 31.985 31.985 0 01-3.257-2.964C4.49 17.344 2 13.837 2 9.954a9.933 9.933 0 012.93-7.04A10.023 10.023 0 0112 0zm0 1.5a8.523 8.523 0 00-6.012 2.478A8.432 8.432 0 003.5 9.954c0 3.277 2.135 6.418 4.418 8.816A30.464 30.464 0 0012 22.334a30.463 30.463 0 004.082-3.564c2.283-2.398 4.418-5.54 4.418-8.816 0-2.24-.895-4.39-2.488-5.976A8.523 8.523 0 0012 1.5zM12 6a4 4 0 110 8 4 4 0 010-8zm0 1.5a2.5 2.5 0 100 5 2.5 2.5 0 000-5z"/></svg>