<svg xmlns="http://www.w3.org/2000/svg" width="16" height="16" fill="none" viewBox="0 0 16 16"><path fill="currentColor" d="M8 0c1.2 0 2.34.264 3.361.738.26-.151.56-.238.882-.238h.007a1.75 1.75 0 011.703 2.155A7.97 7.97 0 0116 8c0 .779-.11 1.532-.318 2.243A1.75 1.75 0 0114.25 13h-.005A7.985 7.985 0 018 16a8.002 8.002 0 01-2.294-.334c-.275.18-.603.284-.956.284h-.007a1.75 1.75 0 01-1.749-1.71A7.985 7.985 0 010 8c0-1.59.463-3.071 1.263-4.316A1.75 1.75 0 012.743 1h.007c.341 0 .66.098.929.267A7.962 7.962 0 018 0zm2.104 8.774c-.94 1.56-2.1 3.078-3.708 4.829a1.749 1.749 0 01.1.722c.482.115.986.175 1.504.175a6.484 6.484 0 004.857-2.18 1.743 1.743 0 01-.24-1.715 32.92 32.92 0 00-2.307-2.178c-.067.116-.136.232-.206.347zM2.53 4.487A6.47 6.47 0 001.5 8c0 1.918.831 3.642 2.152 4.832a1.75 1.75 0 01.366-.225c-.029-3.002-.435-5.146-1.445-8.115l-.043-.005zm1.565-.178c.957 2.878 1.37 5.082 1.419 8.034 1.44-1.591 2.471-2.96 3.306-4.344.105-.174.207-.349.307-.524-1.41-1.072-2.989-2.056-5.032-3.166zm8.896-.473a1.74 1.74 0 01-.6.158 36.693 36.693 0 01-1.354 3.085 33.93 33.93 0 012.676 2.503c.167-.053.345-.082.53-.082h.007c.025 0 .051 0 .076.002A6.52 6.52 0 0014.5 8a6.474 6.474 0 00-1.509-4.164zM8 1.5a6.47 6.47 0 00-3.514 1.03c.01.072.014.146.014.22l-.002.072c2.161 1.162 3.84 2.19 5.336 3.307.402-.826.773-1.698 1.151-2.662a1.744 1.744 0 01-.474-1.464A6.48 6.48 0 008 1.5z"/></svg>