<svg xmlns="http://www.w3.org/2000/svg" width="24" height="24" fill="none" viewBox="0 0 24 24"><g fill="currentColor"><path d="M13.75 12a.75.75 0 0 1 0 1.5h-7a.75.75 0 0 1 0-1.5zM11.75 9a.75.75 0 0 1 0 1.5h-5a.75.75 0 0 1 0-1.5zM16.75 6a.75.75 0 0 1 0 1.5h-10a.75.75 0 0 1 0-1.5z"/><path fill-rule="evenodd" d="M19.25 2A2.75 2.75 0 0 1 22 4.75v10.5A2.75 2.75 0 0 1 19.25 18H8.26a1.25 1.25 0 0 0-.801.291l-4.228 3.534A.75.75 0 0 1 2 21.25V4.75A2.75 2.75 0 0 1 4.75 2zM4.75 3.5c-.69 0-1.25.56-1.25 1.25v14.895l2.996-2.504a2.75 2.75 0 0 1 1.765-.641H19.25c.69 0 1.25-.56 1.25-1.25V4.75c0-.69-.56-1.25-1.25-1.25z" clip-rule="evenodd"/></g></svg>