<svg xmlns="http://www.w3.org/2000/svg" width="24" height="24" fill="none" viewBox="0 0 24 24"><path fill="currentColor" fill-rule="evenodd" d="M10.25 13c.203.002.39.084.525.216l.01.01c.068.07.123.152.158.238a.762.762 0 01.057.287v5.5a.754.754 0 01-.75.75.752.752 0 01-.75-.75v-3.69l-5.22 5.22a.75.75 0 01-1.06-1.06l5.22-5.22H4.75a.75.75 0 010-1.5h5.5zm9.47-9.78a.75.75 0 011.06 1.061l-5.22 5.22h3.69c.413.001.75.337.75.75a.754.754 0 01-.75.75h-5.5c-.1 0-.2-.02-.287-.057a.765.765 0 01-.239-.158l-.01-.01a.76.76 0 01-.214-.525v-5.5a.75.75 0 011.5 0v3.69l5.22-5.22z" clip-rule="evenodd"/></svg>