<svg xmlns="http://www.w3.org/2000/svg" width="24" height="24" fill="none" viewBox="0 0 24 24"><path fill="currentColor" fill-rule="evenodd" d="M17.68 2.028A2.75 2.75 0 0 1 21 4.718V17.63a2.75 2.75 0 0 1-2.18 2.69l-12.5 2.652A2.75 2.75 0 0 1 3 20.282V7.37c0-1.298.91-2.42 2.18-2.69zm1.82 2.69a1.25 1.25 0 0 0-1.51-1.222L5.49 6.147A1.25 1.25 0 0 0 4.5 7.37v12.911a1.25 1.25 0 0 0 1.51 1.223l12.5-2.652a1.25 1.25 0 0 0 .99-1.222zm-4.008 1.926A1.25 1.25 0 0 1 17 7.866v7.69a1.25 1.25 0 0 1-.992 1.223l-7.5 1.578A1.25 1.25 0 0 1 7 17.134v-7.69c0-.59.414-1.102.992-1.223zM8.5 9.647v7.18l7-1.474V8.176z" clip-rule="evenodd"/></svg>