<svg xmlns="http://www.w3.org/2000/svg" width="16" height="16" fill="none" viewBox="0 0 16 16"><path fill="currentColor" fill-rule="evenodd" d="M1.72 1.72a.75.75 0 01.818-.162l11.5 4.79c.287.121.472.407.462.718a.753.753 0 01-.509.685l-3.866 1.313 3.655 3.656a.752.752 0 010 1.06.751.751 0 01-1.06 0l-3.656-3.655-1.313 3.866a.753.753 0 01-.685.509.753.753 0 01-.717-.462l-4.791-11.5a.75.75 0 01.162-.818zm5.25 9.908L8.032 8.5a.75.75 0 01.469-.469l3.127-1.062-7.985-3.327 3.327 7.985z" clip-rule="evenodd"/></svg>