<svg xmlns="http://www.w3.org/2000/svg" width="24" height="24" fill="none" viewBox="0 0 24 24"><path fill="currentColor" fill-rule="evenodd" d="M12 2a.75.75 0 0 1 .75.75v18.5a.75.75 0 0 1-1.5 0V2.75A.75.75 0 0 1 12 2M5.033 8.668A.75.75 0 0 1 6.037 9.78l-1.47 1.47H9.5a.75.75 0 0 1 0 1.5H4.567l1.47 1.47a.75.75 0 0 1-1.06 1.06l-2.75-2.75a.75.75 0 0 1 0-1.06l2.75-2.75zm12.944.059a.75.75 0 0 1 1.06 0l2.743 2.743a.75.75 0 0 1 0 1.06l-2.743 2.743-.057.051a.75.75 0 0 1-1.054-1.054l.05-.057 1.463-1.463H14.5a.75.75 0 0 1 0-1.5h4.94l-1.462-1.463a.75.75 0 0 1 0-1.06" clip-rule="evenodd"/></svg>