<svg xmlns="http://www.w3.org/2000/svg" width="24" height="24" fill="none" viewBox="0 0 24 24"><path fill="currentColor" fill-rule="evenodd" d="M19.38 2.051A2.251 2.251 0 0122 4.271v12.785a2.752 2.752 0 01-2.298 2.713l-2 .333a2.751 2.751 0 01-3.202-2.713v-.444a2.75 2.75 0 012.298-2.713l3.702-.617V4.27a.75.75 0 00-.873-.74l-9 1.5a.75.75 0 00-.627.74v13.285a2.753 2.753 0 01-2.298 2.713l-2 .333A2.751 2.751 0 012.5 19.389v-.444a2.75 2.75 0 012.298-2.713l3.702-.617V5.77c0-1.1.795-2.04 1.88-2.22l9-1.5zM5.045 17.711A1.25 1.25 0 004 18.945v.444c0 .772.694 1.36 1.455 1.233l2-.333A1.253 1.253 0 008.5 19.056v-1.92l-3.455.575zm12-2A1.25 1.25 0 0016 16.945v.444c0 .772.694 1.36 1.455 1.233l2-.333a1.253 1.253 0 001.045-1.233v-1.92l-3.455.575z" clip-rule="evenodd"/></svg>