<svg xmlns="http://www.w3.org/2000/svg" width="16" height="16" fill="none" viewBox="0 0 16 16"><path fill="currentColor" fill-rule="evenodd" d="M3.72 3.971a.752.752 0 011.061 0 .754.754 0 010 1.06l-2.97 2.97 2.97 2.97a.754.754 0 010 1.06.754.754 0 01-1.06 0l-3.5-3.5a.752.752 0 010-1.06l3.5-3.5zm7.5 0a.752.752 0 011.06 0l3.5 3.5a.76.76 0 01.22.53c0 .198-.08.39-.22.53l-3.5 3.5a.754.754 0 01-1.06 0 .752.752 0 010-1.06l2.97-2.97-2.97-2.97a.752.752 0 010-1.06zm-6.21 3.03c.551.002 1 .45 1 1-.001.55-.45.999-1 1H5c-.55 0-.998-.449-1-1 .001-.551.45-.999 1-1h.01zm3 0c.55.002 1 .45 1 1-.001.55-.45.999-1 1H8c-.55 0-.998-.449-1-1 0-.551.45-.999 1-1h.01zm3 0c.55.002 1 .45 1 1-.001.55-.45.999-1 1H11c-.55 0-.998-.449-1-1 0-.551.449-.999 1-1h.01z" clip-rule="evenodd"/></svg>