<svg xmlns="http://www.w3.org/2000/svg" width="16" height="16" fill="none" viewBox="0 0 16 16"><path fill="currentColor" d="M12.75 0A2.25 2.25 0 0 1 15 2.25v11.5A2.25 2.25 0 0 1 12.75 16h-9.5A2.25 2.25 0 0 1 1 13.75V2.25A2.25 2.25 0 0 1 3.25 0zm-9.5 1.5a.75.75 0 0 0-.75.75v11.5c0 .414.336.75.75.75h9.5a.75.75 0 0 0 .75-.75V2.25a.75.75 0 0 0-.75-.75zm1.51 8a.75.75 0 0 1 0 1.5h-.01a.75.75 0 0 1 0-1.5zm5.49 0a.75.75 0 0 1 0 1.5h-3a.75.75 0 0 1 0-1.5zm-5.49-3a.75.75 0 0 1 0 1.5h-.01a.75.75 0 0 1 0-1.5zm6.49 0a.75.75 0 0 1 0 1.5h-4a.75.75 0 0 1 0-1.5zm-6.49-3a.75.75 0 0 1 0 1.5h-.01a.75.75 0 0 1 0-1.5zm4.99 0a.75.75 0 0 1 0 1.5h-2.5a.75.75 0 0 1 0-1.5z"/></svg>