<svg xmlns="http://www.w3.org/2000/svg" width="24" height="24" fill="none" viewBox="0 0 24 24"><path fill="currentColor" d="M18.25 1A2.75 2.75 0 0121 3.75v16.5A2.75 2.75 0 0118.25 23H5.75A2.75 2.75 0 013 20.25V3.75A2.75 2.75 0 015.75 1h12.5zM5.75 2.5c-.69 0-1.25.56-1.25 1.25v16.5c0 .69.56 1.25 1.25 1.25h12.5c.69 0 1.25-.56 1.25-1.25V3.75c0-.69-.56-1.25-1.25-1.25H5.75zM7.26 17a.75.75 0 010 1.5h-.01a.75.75 0 010-1.5h.01zm6.49 0a.75.75 0 010 1.5h-3.5a.75.75 0 010-1.5h3.5zm-6.49-4a.75.75 0 010 1.5h-.01a.75.75 0 010-1.5h.01zm9.49 0a.75.75 0 010 1.5h-6.5a.75.75 0 010-1.5h6.5zM7.26 9a.75.75 0 010 1.5h-.01a.75.75 0 010-1.5h.01zm7.49 0a.75.75 0 010 1.5h-4.5a.75.75 0 010-1.5h4.5zM7.26 5a.75.75 0 010 1.5h-.01a.75.75 0 010-1.5h.01zm9.49 0a.75.75 0 010 1.5h-6.5a.75.75 0 010-1.5h6.5z"/></svg>