<svg xmlns="http://www.w3.org/2000/svg" width="24" height="24" fill="none" viewBox="0 0 24 24"><path fill="currentColor" fill-rule="evenodd" d="M10.794.754a2.75 2.75 0 0 1 2.412 0l8.812 4.298c.6.293.982.904.982 1.573v9.902a2.75 2.75 0 0 1-1.496 2.447l-8.25 4.226a2.75 2.75 0 0 1-2.508 0l-8.25-4.225A2.75 2.75 0 0 1 1 16.527V6.625c0-.67.381-1.28.982-1.573zM2.5 16.527c0 .47.263.899.68 1.113l8.07 4.133v-10.3L2.5 7.318zm10.25-5.054v10.3l8.07-4.133a1.25 1.25 0 0 0 .68-1.113v-9.21zM3.343 6.057 12 10.17l3.417-1.623-8.482-4.241zm9.205-3.956a1.25 1.25 0 0 0-1.096 0l-2.82 1.376 8.505 4.252 3.52-1.672z" clip-rule="evenodd"/></svg>