<svg xmlns="http://www.w3.org/2000/svg" width="16" height="16" fill="none" viewBox="0 0 16 16"><path fill="#252960" d="m4.3 9.866-2.2-1.31a.39.39 0 0 0-.55.155.37.37 0 0 0-.05.206v2.62c0 .145.08.279.2.361l2.6 1.548c.12.072.28.072.4 0l2.6-1.547c.12-.073.2-.207.2-.362v-2.62a.41.41 0 0 0-.4-.412c-.07 0-.14.02-.2.051l-2.2 1.31a.4.4 0 0 1-.4 0"/><path fill="url(#pack-color-16__a)" d="M4.5 10.228v2.62c0 .227.18.412.4.412.07 0 .14-.02.2-.051l2.2-1.31c.12-.073.2-.207.2-.362v-2.62a.41.41 0 0 0-.4-.412c-.07 0-.14.02-.2.051l-2.2 1.31a.43.43 0 0 0-.2.362"/><path fill="#de156c" d="m11.3 9.866-2.2-1.31a.39.39 0 0 0-.55.155.37.37 0 0 0-.05.206v2.62c0 .145.08.279.2.361l2.6 1.548c.12.072.28.072.4 0l2.6-1.547c.12-.073.2-.207.2-.362v-2.62a.41.41 0 0 0-.4-.412c-.07 0-.14.02-.2.051l-2.2 1.31a.4.4 0 0 1-.4 0"/><path fill="url(#pack-color-16__b)" d="M11.5 10.228v2.62c0 .227.18.412.4.412.07 0 .14-.02.2-.051l2.2-1.31c.12-.073.2-.207.2-.362v-2.62a.41.41 0 0 0-.4-.412c-.07 0-.14.02-.2.051l-2.2 1.31a.43.43 0 0 0-.2.362"/><path fill="#47529d" d="m10.4 3.056-2.2 1.31a.4.4 0 0 1-.4 0l-2.2-1.31a.39.39 0 0 0-.55.155.37.37 0 0 0-.05.206v2.62c0 .145.08.279.2.361l2.6 1.548c.12.072.28.072.4 0l2.6-1.548c.12-.072.2-.206.2-.36v-2.62a.41.41 0 0 0-.4-.413c-.07 0-.14.02-.2.051"/><path fill="url(#pack-color-16__c)" d="m10.4 3.056-2.2 1.31a.42.42 0 0 0-.2.361v2.62c0 .227.18.413.4.413.07 0 .14-.02.2-.051l2.2-1.31c.12-.073.2-.207.2-.362v-2.62a.41.41 0 0 0-.4-.412c-.07 0-.14.02-.2.051"/><defs><linearGradient id="pack-color-16__a" x1="6.004" x2="6.004" y1="8.502" y2="13.262" gradientUnits="userSpaceOnUse"><stop stop-color="#757cba"/><stop offset="1" stop-color="#252960"/></linearGradient><linearGradient id="pack-color-16__b" x1="13.004" x2="13.004" y1="8.503" y2="13.262" gradientUnits="userSpaceOnUse"><stop stop-color="#fc72c7"/><stop offset="1" stop-color="#de156c"/></linearGradient><linearGradient id="pack-color-16__c" x1="9.504" x2="9.504" y1="3.002" y2="7.762" gradientUnits="userSpaceOnUse"><stop stop-color="#8896db"/><stop offset="1" stop-color="#47529d"/></linearGradient></defs></svg>