<svg xmlns="http://www.w3.org/2000/svg" width="16" height="16" fill="none" viewBox="0 0 16 16"><path fill="currentColor" d="M8.32 1.048c1.363-1.38 3.635-1.38 4.998 0 1.36 1.378 1.36 3.659 0 5.036l-6.39 6.465a2.143 2.143 0 0 1-3.033 0 2.184 2.184 0 0 1 0-3.044l5.898-5.967a.75.75 0 0 1 1.066 1.055l-5.895 5.966a.684.684 0 0 0 0 .936.64.64 0 0 0 .897 0c.045-.045 5.643-5.718 6.39-6.465.749-.749.775-2.142 0-2.928a2.034 2.034 0 0 0-2.863 0L3.005 8.568A3.5 3.5 0 0 0 2 11.026c0 .925.363 1.81 1.005 2.46A3.4 3.4 0 0 0 5.419 14.5c.903 0 1.773-.363 2.415-1.014l6.382-6.465a.751.751 0 0 1 1.068 1.054L8.9 14.54A4.9 4.9 0 0 1 5.42 16a4.9 4.9 0 0 1-3.482-1.46A5 5 0 0 1 .5 11.026c0-1.315.516-2.579 1.437-3.512z"/></svg>