<svg xmlns="http://www.w3.org/2000/svg" width="16" height="16" fill="none" viewBox="0 0 16 16"><path fill="currentColor" d="M13 0a3 3 0 11-.229 5.991c-.298.753-.589 1.309-.964 1.857-.254.369-.546.733-.894 1.148A1.5 1.5 0 019.5 11a1.5 1.5 0 01-1.485-1.708 11.14 11.14 0 00-1.537-.974 11.154 11.154 0 00-1.92-.755 1.495 1.495 0 01-.978.435c-.786 1.702-1.088 3.183-1.25 5.253a1.5 1.5 0 11-1.497-.095c.173-2.23.508-3.903 1.41-5.839A1.5 1.5 0 114.95 6.113c.848.255 1.554.532 2.214.872.617.318 1.18.685 1.772 1.124a1.497 1.497 0 01.834-.085c.327-.39.579-.705.798-1.025.29-.421.524-.856.78-1.493A3 3 0 0113 0zm0 1.5a1.5 1.5 0 100 3 1.5 1.5 0 000-3z"/></svg>