<svg xmlns="http://www.w3.org/2000/svg" width="24" height="24" fill="none" viewBox="0 0 24 24"><path fill="currentColor" fill-rule="evenodd" d="M1.218 1.219a.75.75 0 0 1 .703-.2l14.75 3.5a.75.75 0 0 1 .564.587l1.26 6.51.148-.147a.75.75 0 0 1 1.06 0l3.076 3.074a.754.754 0 0 1 0 1.062l-7.175 7.174a.753.753 0 0 1-1.061 0l-3.075-3.075a.75.75 0 0 1 0-1.06l.148-.149-6.51-1.26a.75.75 0 0 1-.587-.563l-3.5-14.75a.75.75 0 0 1 .2-.703M13.06 19.174l2.015 2.015 6.114-6.115-2.015-2.014zM9.474 8.414A3.002 3.002 0 0 1 13.998 11c0 1.656-1.343 3-3 3a3.001 3.001 0 0 1-2.584-4.524L3.089 4.15l2.778 11.705 7.029 1.36 4.318-4.318-1.36-7.03L4.15 3.09zM11 9.5c-.828 0-1.5.672-1.5 1.5s.672 1.5 1.5 1.5c.827 0 1.5-.672 1.5-1.5-.001-.828-.673-1.5-1.5-1.5" clip-rule="evenodd"/></svg>