<svg xmlns="http://www.w3.org/2000/svg" width="16" height="16" fill="none" viewBox="0 0 16 16"><path fill="currentColor" fill-rule="evenodd" d="M.22.22a.75.75 0 01.702-.2l10.432 2.476a.754.754 0 01.564.587l.821 4.245a.754.754 0 01.865.141l2.175 2.175c.14.14.22.332.22.53s-.08.39-.22.53l-5.075 5.075a.755.755 0 01-.53.22.756.756 0 01-.53-.22l-2.175-2.174a.753.753 0 01-.142-.866l-4.245-.82a.753.753 0 01-.586-.564L.02.923A.75.75 0 01.22.22zm8.84 12.855l1.114 1.114 4.014-4.015-1.114-1.114-4.014 4.014zM6.23 5.17A2.252 2.252 0 019.45 7.2 2.253 2.253 0 017.2 9.45a2.252 2.252 0 01-2.03-3.22L2.09 3.15l1.753 7.386 4.719.914 2.89-2.889-.915-4.718L3.151 2.09 6.23 5.17zm.97 1.28a.75.75 0 000 1.5.753.753 0 00.75-.75.752.752 0 00-.75-.75z" clip-rule="evenodd"/></svg>