<svg xmlns="http://www.w3.org/2000/svg" width="24" height="24" fill="none" viewBox="0 0 24 24"><path fill="currentColor" fill-rule="evenodd" d="M15.056 4.884a2.752 2.752 0 013.888 0l.172.17a2.755 2.755 0 010 3.89L10.11 17.95a4.767 4.767 0 01-1.594 1.052l-4.238 1.695a.752.752 0 01-.975-.976L5 15.485a4.758 4.758 0 011.05-1.595l9.007-9.005zM7.11 14.95c-.31.31-.555.683-.719 1.09l-1.044 2.614 2.612-1.045a3.27 3.27 0 001.09-.72L16.44 9.5 14.5 7.56 7.11 14.95zm10.774-9.005a1.252 1.252 0 00-1.768 0l-.556.555L17.5 8.44l.555-.555a1.255 1.255 0 000-1.768l-.171-.171z" clip-rule="evenodd"/></svg>