<svg xmlns="http://www.w3.org/2000/svg" width="16" height="16" fill="none" viewBox="0 0 16 16"><g fill="currentColor"><path fill-rule="evenodd" d="M5.847.533A2.21 2.21 0 004.391 0H2.206a2.21 2.21 0 00-2.09 1.501c-.098.29-.135.598-.107.903l.001.012a15.13 15.13 0 002.355 6.637c1.29 1.987 2.615 3.304 4.596 4.587a15.196 15.196 0 006.618 2.35h.014a2.21 2.21 0 002.221-1.311c.124-.282.187-.586.185-.893v-.075c-.002-.383-.008-1.77 0-2.087A2.204 2.204 0 0014.1 9.386h-.007a8.626 8.626 0 01-1.884-.47 2.21 2.21 0 00-2.327.497l-.515.513a10.903 10.903 0 01-3.313-3.305l.51-.509.003-.003a2.204 2.204 0 00.498-2.326 8.577 8.577 0 01-.47-1.88v-.007A2.204 2.204 0 005.847.533zM4.401 1.5a.71.71 0 01.708.604c.1.753.285 1.493.55 2.205l.001.001a.703.703 0 01-.157.742l-.924.923a.75.75 0 00-.122.902 12.403 12.403 0 004.655 4.646.75.75 0 00.9-.121l.923-.921.002-.001a.709.709 0 01.746-.158h.002c.713.266 1.454.45 2.209.55a.709.709 0 01.606.715 148.65 148.65 0 000 2.134v.07a.702.702 0 01-.481.671.711.711 0 01-.286.036 13.697 13.697 0 01-5.957-2.117c-1.805-1.169-2.979-2.336-4.153-4.145a13.631 13.631 0 01-2.12-5.972.702.702 0 01.419-.704c.09-.04.187-.06.286-.06H4.4zm2.664 2.283v-.001l-.703.264.703-.263z" clip-rule="evenodd"/><path d="M10.333.005a.75.75 0 10-.166 1.49 4.91 4.91 0 014.338 4.332.75.75 0 001.49-.167A6.41 6.41 0 0010.333.005z"/><path d="M10.394 2.53a.75.75 0 10-.288 1.472 2.394 2.394 0 011.892 1.892.75.75 0 001.472-.288 3.895 3.895 0 00-3.076-3.076z"/></g></svg>