<svg xmlns="http://www.w3.org/2000/svg" width="24" height="24" fill="none" viewBox="0 0 24 24"><path fill="currentColor" fill-rule="evenodd" d="M6.898 1a2.813 2.813 0 0 1 2.808 2.414v.008c.124.93.353 1.846.681 2.725a2.81 2.81 0 0 1-.634 2.962l-.002.003-.897.895a15.74 15.74 0 0 0 5.124 5.111l.9-.898a2.82 2.82 0 0 1 1.39-.75 2.83 2.83 0 0 1 1.574.118c.881.328 1.8.556 2.732.679h.007a2.81 2.81 0 0 1 2.418 2.85c-.012.454-.003 2.42 0 2.96v.104a2.82 2.82 0 0 1-.91 2.081 2.83 2.83 0 0 1-2.154.727h-.014a21.2 21.2 0 0 1-9.221-3.275c-2.764-1.79-4.607-3.622-6.406-6.394a21.1 21.1 0 0 1-3.282-9.248V4.06c-.036-.387.01-.78.135-1.149a2.82 2.82 0 0 1 1.53-1.67A2.8 2.8 0 0 1 3.808 1zM3.81 2.5a1.33 1.33 0 0 0-.968.426 1.317 1.317 0 0 0-.338.993 19.6 19.6 0 0 0 3.047 8.585c1.684 2.593 3.375 4.275 5.963 5.95a19.7 19.7 0 0 0 8.562 3.042c.178.015.362-.008.532-.064a1.326 1.326 0 0 0 .782-.715c.073-.166.11-.349.11-.53l-.001-.1c-.003-.529-.011-2.527 0-3.007a1.31 1.31 0 0 0-1.124-1.326 14 14 0 0 1-3.057-.761l-.001-.001a1.33 1.33 0 0 0-.736-.055c-.244.053-.47.175-.648.349v.001l-1.307 1.304a.754.754 0 0 1-.9.12A17.24 17.24 0 0 1 7.26 10.26a.754.754 0 0 1 .121-.903L8.69 8.052c.174-.177.296-.403.349-.645.051-.243.032-.5-.055-.732l-.001-.002a14 14 0 0 1-.762-3.051A1.31 1.31 0 0 0 6.91 2.5zm10.204 2.384a.75.75 0 0 1 .88-.593 6.1 6.1 0 0 1 3.143 1.673 6.1 6.1 0 0 1 1.672 3.143.753.753 0 0 1-.592.88.753.753 0 0 1-.88-.593 4.6 4.6 0 0 0-1.26-2.37 4.6 4.6 0 0 0-2.371-1.26.753.753 0 0 1-.592-.88m.819-4.88a10.38 10.38 0 0 1 9.163 9.152.753.753 0 0 1-.662.83.753.753 0 0 1-.83-.663 8.88 8.88 0 0 0-2.546-5.287 8.88 8.88 0 0 0-5.29-2.54.753.753 0 0 1-.664-.828.753.753 0 0 1 .829-.663" clip-rule="evenodd"/></svg>