<svg xmlns="http://www.w3.org/2000/svg" width="16" height="16" fill="none" viewBox="0 0 16 16"><path fill="currentColor" fill-rule="evenodd" d="M6.88 1.82a1.598 1.598 0 00-2.26 0 6.403 6.403 0 00-.269 8.768l-2.106 2.106a.75.75 0 001.06 1.061l2.108-2.107a6.403 6.403 0 008.753-.283 1.598 1.598 0 000-2.26L12.561 7.5l1.72-1.72a.75.75 0 00-1.061-1.06L11.5 6.44 9.56 4.5l1.72-1.72a.75.75 0 00-1.06-1.06L8.5 3.44 6.88 1.82zm-1.2 1.06a.098.098 0 01.14 0l7.285 7.286c.039.038.039.1 0 .138a4.902 4.902 0 01-6.932 0l-.492-.492a4.902 4.902 0 010-6.932z" clip-rule="evenodd"/></svg>