<svg xmlns="http://www.w3.org/2000/svg" width="24" height="24" fill="none" viewBox="0 0 24 24"><path fill="currentColor" fill-rule="evenodd" d="M15.22 2.879a.754.754 0 011.061 0c.29.292.29.768 0 1.06L13.48 6.741l3.906 3.905 2.927-2.926a.754.754 0 011.06 0c.29.292.29.768 0 1.06l-2.927 2.927 1.737 1.737c.907.911.908 2.39 0 3.3-3.319 3.317-8.66 3.38-12.058.192L4.393 20.67a.753.753 0 01-1.061 0 .752.752 0 010-1.06l3.73-3.73a8.669 8.669 0 01.04-12.217 2.338 2.338 0 013.3 0l2.017 2.019 2.802-2.802zM9.34 4.723a.838.838 0 00-1.178 0 7.17 7.17 0 000 10.135l.825.824a7.17 7.17 0 0010.135 0 .838.838 0 000-1.177L9.341 4.722z" clip-rule="evenodd"/></svg>