<svg xmlns="http://www.w3.org/2000/svg" width="24" height="24" fill="none" viewBox="0 0 24 24"><path fill="currentColor" fill-rule="evenodd" d="M4.222 4.22a.75.75 0 011.06 1.06 9.503 9.503 0 000 13.436.75.75 0 01-1.06 1.06 11.004 11.004 0 010-15.556zm14.496 0a.75.75 0 011.06 0 11.004 11.004 0 010 15.556.75.75 0 01-1.06-1.06 9.504 9.504 0 000-13.436.75.75 0 010-1.06zM15.89 6.977a.75.75 0 011.06.007 7.113 7.113 0 011.517 2.305 7.197 7.197 0 010 5.432 7.116 7.116 0 01-1.517 2.305.751.751 0 01-1.068-1.052 5.616 5.616 0 001.196-1.82 5.698 5.698 0 000-4.299 5.613 5.613 0 00-1.196-1.818.75.75 0 01.008-1.06zm-8.842-.003a.75.75 0 111.068 1.052 5.614 5.614 0 00-1.196 1.819 5.699 5.699 0 000 4.3c.278.68.685 1.298 1.196 1.818a.75.75 0 01-1.068 1.053 7.116 7.116 0 01-1.517-2.305 7.202 7.202 0 010-5.433A7.113 7.113 0 017.05 6.974zM12 9a3 3 0 110 6 3 3 0 010-6zm0 1.5a1.5 1.5 0 100 3 1.5 1.5 0 000-3z" clip-rule="evenodd"/></svg>