<svg xmlns="http://www.w3.org/2000/svg" width="24" height="24" fill="none" viewBox="0 0 24 24"><g fill="currentColor" fill-rule="evenodd" clip-rule="evenodd"><path d="M12 9.5a2.5 2.5 0 1 0 0 5 2.5 2.5 0 0 0 0-5M11 12a1 1 0 1 1 2 0 1 1 0 0 1-2 0M5 7.5a2.5 2.5 0 1 1 5 0 2.5 2.5 0 0 1-5 0m2.5-1a1 1 0 1 0 0 2 1 1 0 0 0 0-2M16.5 14a2.5 2.5 0 1 0 0 5 2.5 2.5 0 0 0 0-5m-1 2.5a1 1 0 1 1 2 0 1 1 0 0 1-2 0"/><path d="M4.75 2A2.75 2.75 0 0 0 2 4.75v14.5A2.75 2.75 0 0 0 4.75 22h14.5A2.75 2.75 0 0 0 22 19.25V4.75A2.75 2.75 0 0 0 19.25 2zM3.5 4.75c0-.69.56-1.25 1.25-1.25h14.5c.69 0 1.25.56 1.25 1.25v14.5c0 .69-.56 1.25-1.25 1.25H4.75c-.69 0-1.25-.56-1.25-1.25z"/></g></svg>