<svg xmlns="http://www.w3.org/2000/svg" width="24" height="24" fill="none" viewBox="0 0 24 24"><g fill="currentColor"><path fill-rule="evenodd" d="M2 4.75A2.75 2.75 0 0 1 4.75 2h10.5A2.75 2.75 0 0 1 18 4.75v2.19l.78.78A.75.75 0 0 1 18 8.957v2.982l2.78 2.78a.75.75 0 1 1-1.06 1.061L18 14.06v1.19c0 .495-.13.959-.36 1.36q.075.045.14.11l4 4a.75.75 0 1 1-1.06 1.06l-4-4a.8.8 0 0 1-.11-.14c-.401.23-.865.36-1.36.36h-1.19l.72.72a.75.75 0 1 1-1.06 1.06L11.94 18H9.06l2.72 2.72a.75.75 0 1 1-1.06 1.06L6.94 18H4.75A2.75 2.75 0 0 1 2 15.25zM4.75 3.5c-.69 0-1.25.56-1.25 1.25v10.5c0 .69.56 1.25 1.25 1.25h10.5c.69 0 1.25-.56 1.25-1.25V4.75c0-.69-.56-1.25-1.25-1.25z" clip-rule="evenodd"/><path d="M16.78 20.72a.75.75 0 1 0-1.06 1.06l1 1a.75.75 0 1 0 1.06-1.06zM22.68 16.62a.75.75 0 0 0-1.06 1.06l.1.1a.75.75 0 0 0 1.06-1.06zM19.72 9.72a.75.75 0 0 1 1.06 0l1 1a.75.75 0 1 1-1.06 1.06l-1-1a.75.75 0 0 1 0-1.06"/></g></svg>