<svg xmlns="http://www.w3.org/2000/svg" width="24" height="24" fill="none" viewBox="0 0 24 24"><path fill="currentColor" d="M17.25 20.5a.75.75 0 0 1 0 1.5H6.75a.75.75 0 0 1 0-1.5zM15.875 2c.717 0 1.306.55 1.37 1.25h.255A2.75 2.75 0 0 1 20.25 6v2.256a1.375 1.375 0 0 1 0 2.738V16a2.75 2.75 0 0 1-2.75 2.75h-11A2.75 2.75 0 0 1 3.75 16v-5.006a1.375 1.375 0 0 1 0-2.738V6A2.75 2.75 0 0 1 6.5 3.25h.256a1.375 1.375 0 0 1 2.738 0h5.012c.063-.7.652-1.25 1.369-1.25M6.5 4.75c-.69 0-1.25.56-1.25 1.25v10c0 .69.56 1.25 1.25 1.25h11c.69 0 1.25-.56 1.25-1.25V6c0-.69-.56-1.25-1.25-1.25zm8.25 8.75a.75.75 0 0 1 0 1.5h-5.5a.75.75 0 0 1 0-1.5zM8.5 7a1.5 1.5 0 1 1 0 3 1.5 1.5 0 0 1 0-3m7 0a1.5 1.5 0 1 1 0 3 1.5 1.5 0 0 1 0-3"/></svg>