<svg xmlns="http://www.w3.org/2000/svg" width="24" height="24" fill="none" viewBox="0 0 24 24"><g fill="currentColor" fill-rule="evenodd" clip-rule="evenodd"><path d="M12 2.5a9.47 9.47 0 0 0-6.88 2.948.75.75 0 0 1-1.085-1.034A10.97 10.97 0 0 1 12 1a10.97 10.97 0 0 1 7.965 3.414.75.75 0 1 1-1.086 1.034A9.47 9.47 0 0 0 12 2.5M2.351 8.451a.75.75 0 0 1 .515.928A9.5 9.5 0 0 0 2.5 12c0 4.48 3.102 8.237 7.276 9.238a.75.75 0 0 1-.35 1.459C4.593 21.537 1 17.189 1 12c0-1.051.148-2.07.424-3.034a.75.75 0 0 1 .927-.515m19.298 0a.75.75 0 0 1 .927.515C22.852 9.93 23 10.949 23 12c0 5.19-3.593 9.538-8.426 10.697a.75.75 0 1 1-.35-1.459c4.174-1 7.276-4.758 7.276-9.238 0-.91-.128-1.79-.366-2.621a.75.75 0 0 1 .514-.928"/><path d="M12 5.5a6.5 6.5 0 1 0 0 13 6.5 6.5 0 0 0 0-13M4 12a8 8 0 1 1 16 0 8 8 0 0 1-16 0" opacity=".2"/></g></svg>