<svg xmlns="http://www.w3.org/2000/svg" width="24" height="24" fill="none" viewBox="0 0 24 24"><path fill="currentColor" d="M12 .5a2.5 2.5 0 01.75 4.886v1.67a5 5 0 013.256 1.95l1.73-.944a2.5 2.5 0 111.062 1.13l-2.084 1.137c.185.523.286 1.086.286 1.671 0 .615-.111 1.206-.315 1.752l1.766 1.285a2.5 2.5 0 11-.845 1.24l-1.659-1.207a4.998 4.998 0 01-3.197 1.874v1.67a2.501 2.501 0 11-1.5 0v-1.67a4.997 4.997 0 01-3.196-1.874l-1.66 1.207a2.5 2.5 0 11-.846-1.24l1.767-1.285A4.993 4.993 0 017 12c0-.585.1-1.148.286-1.67L5.203 9.191a2.5 2.5 0 111.06-1.13l1.732.945a4.998 4.998 0 013.255-1.951v-1.67A2.502 2.502 0 0112 .5zM12 20a1 1 0 100 2 1 1 0 000-2zm-8-4a1 1 0 100 2 1 1 0 000-2zm16 0a1 1 0 100 2 1 1 0 000-2zm-8-7.5a3.5 3.5 0 100 7 3.5 3.5 0 100-7zM4 6a1 1 0 100 2 1 1 0 000-2zm16 0a1 1 0 100 2 1 1 0 000-2zm-8-4a1 1 0 100 2 1 1 0 000-2z"/></svg>