<svg xmlns="http://www.w3.org/2000/svg" width="24" height="24" fill="none" viewBox="0 0 24 24"><path fill="currentColor" d="M12 .5a2.5 2.5 0 0 1 .75 4.885v1.67a5 5 0 0 1 3.256 1.952l1.73-.945a2.5 2.5 0 1 1 1.062 1.13l-2.084 1.137c.185.523.286 1.086.286 1.67 0 .616-.111 1.207-.315 1.753l1.766 1.285a2.5 2.5 0 1 1-.845 1.24l-1.659-1.207a5 5 0 0 1-3.197 1.874v1.67A2.502 2.502 0 0 1 12 23.5a2.5 2.5 0 0 1-.75-4.886v-1.67a5 5 0 0 1-3.196-1.874l-1.66 1.207A2.503 2.503 0 0 1 4 19.5a2.5 2.5 0 1 1 1.549-4.463l1.766-1.285A5 5 0 0 1 7 12c0-.585.1-1.148.286-1.671L5.203 9.192a2.5 2.5 0 1 1 1.06-1.13l1.732.945a5 5 0 0 1 3.255-1.952v-1.67A2.502 2.502 0 0 1 12 .5M12 20a1 1 0 1 0 .001 2A1 1 0 0 0 12 20m-8-4a1 1 0 1 0 .001 2A1 1 0 0 0 4 16m16 0a1 1 0 1 0 .001 2A1 1 0 0 0 20 16m-8-7.5a3.5 3.5 0 1 0 0 7 3.5 3.5 0 1 0 0-7M4 6a1 1 0 1 0 .001 2A1 1 0 0 0 4 6m16 0a1 1 0 1 0 .001 2A1 1 0 0 0 20 6m-8-4a1 1 0 1 0 .001 2A1 1 0 0 0 12 2"/></svg>