<svg xmlns="http://www.w3.org/2000/svg" width="16" height="16" fill="none" viewBox="0 0 16 16"><path fill="currentColor" fill-rule="evenodd" d="M11 6.246a.75.75 0 01.75.75v.286l-.001.042c.479.098.925.286 1.318.546l.029-.03.202-.202a.75.75 0 011.06 1.06l-.202.203a.77.77 0 01-.029.028c.26.394.45.84.548 1.318H15a.75.75 0 010 1.5h-.286a.8.8 0 01-.038-.002c-.097.48-.286.927-.547 1.322.009.008.019.016.027.025l.202.202a.75.75 0 01-1.06 1.06l-.202-.201a.785.785 0 01-.026-.027 3.73 3.73 0 01-1.321.548l.001.036v.286a.75.75 0 01-1.5 0v-.286l.001-.036a3.73 3.73 0 01-1.321-.548.784.784 0 01-.026.027l-.202.202a.75.75 0 01-1.06-1.06l.202-.203.027-.025a3.739 3.739 0 01-.547-1.322.802.802 0 01-.038.001H7a.75.75 0 010-1.5h.286l.04.001c.097-.478.286-.924.547-1.318l-.03-.028-.201-.202a.75.75 0 011.06-1.061l.202.201.029.031c.393-.26.84-.448 1.318-.546a.766.766 0 01-.001-.042v-.286a.75.75 0 01.75-.75zM6.834.33a2.25 2.25 0 012.332 0l5.25 3.182A2.251 2.251 0 0115.5 5.435v.564A.75.75 0 0114 6v-.564a.75.75 0 00-.361-.64l-5.25-3.183a.751.751 0 00-.778 0l-5.25 3.182a.75.75 0 00-.361.64v5.13c0 .262.137.505.361.641l4.028 2.44a.75.75 0 01-.778 1.284l-4.027-2.441A2.25 2.25 0 01.5 10.564v-5.13a2.25 2.25 0 011.084-1.923L6.834.329zM11 8.75a2.249 2.249 0 00-1.873 3.498A2.247 2.247 0 0011 13.25 2.247 2.247 0 0013.25 11 2.249 2.249 0 0011 8.75z" clip-rule="evenodd"/></svg>