<svg xmlns="http://www.w3.org/2000/svg" width="16" height="16" fill="none" viewBox="0 0 16 16"><path fill="currentColor" d="M13.75 9A2.25 2.25 0 0 1 16 11.25v2.5A2.25 2.25 0 0 1 13.75 16H2.25A2.25 2.25 0 0 1 0 13.75v-2.5A2.25 2.25 0 0 1 2.25 9zm-11.5 1.5a.75.75 0 0 0-.75.75v2.5c0 .414.336.75.75.75h11.5a.75.75 0 0 0 .75-.75v-2.5a.75.75 0 0 0-.75-.75zm2 1a.75.75 0 0 1 0 1.5h-.5a.75.75 0 0 1 0-1.5zM13.75 0A2.25 2.25 0 0 1 16 2.25v2.5A2.25 2.25 0 0 1 13.75 7H2.25A2.25 2.25 0 0 1 0 4.75v-2.5A2.25 2.25 0 0 1 2.25 0zM2.25 1.5a.75.75 0 0 0-.75.75v2.5c0 .414.336.75.75.75h11.5a.75.75 0 0 0 .75-.75v-2.5a.75.75 0 0 0-.75-.75zm2 1a.75.75 0 0 1 0 1.5h-.5a.75.75 0 0 1 0-1.5z"/></svg>