<svg xmlns="http://www.w3.org/2000/svg" width="16" height="16" fill="none" viewBox="0 0 16 16"><path fill="currentColor" d="M8 0a2.25 2.25 0 0 1 .75 4.372v.465c.722.17 1.35.582 1.797 1.144l.626-.366a2.25 2.25 0 1 1 1.037 1.13l-1.025.602a3.3 3.3 0 0 1 0 1.306l1.025.6a2.25 2.25 0 1 1-1.037 1.13l-.626-.364a3.25 3.25 0 0 1-1.797 1.144v.465A2.251 2.251 0 0 1 8 16a2.25 2.25 0 0 1-.75-4.372v-.465a3.25 3.25 0 0 1-1.797-1.144l-.626.366a2.25 2.25 0 1 1-1.037-1.13l1.026-.602a3.3 3.3 0 0 1 0-1.306l-1.026-.6a2.25 2.25 0 1 1 1.037-1.13l.626.364A3.25 3.25 0 0 1 7.25 4.837v-.465A2.251 2.251 0 0 1 8 0m0 13a.75.75 0 1 0 0 1.5.75.75 0 0 0 0-1.5m-5.25-2.5a.75.75 0 1 0 0 1.5.75.75 0 0 0 0-1.5m10.5 0a.75.75 0 1 0 0 1.5.75.75 0 0 0 0-1.5M8 6.25a1.75 1.75 0 1 0 0 3.501A1.75 1.75 0 0 0 8 6.25M2.75 4a.75.75 0 1 0 0 1.5.75.75 0 0 0 0-1.5m10.5 0a.75.75 0 1 0 0 1.5.75.75 0 0 0 0-1.5M8 1.5A.75.75 0 1 0 8 3a.75.75 0 0 0 0-1.5"/></svg>