<svg xmlns="http://www.w3.org/2000/svg" width="16" height="16" fill="none" viewBox="0 0 16 16"><path fill="#62d84e" fill-rule="evenodd" d="M8.043 1.708C4.206 1.685 1.034 4.838 1 8.709a7.06 7.06 0 0 0 2.2 5.197c.494.474 1.268.52 1.807.097.796-.623 1.82-1 2.996-1 1.177 0 2.2.372 2.995 1a1.38 1.38 0 0 0 1.814-.109A7.07 7.07 0 0 0 15 8.766c0-3.883-3.115-7.036-6.957-7.058m-.046 10.587c-2.08 0-3.501-1.57-3.501-3.518s1.42-3.54 3.501-3.54S11.5 6.836 11.5 8.777s-1.421 3.518-3.502 3.518" clip-rule="evenodd"/></svg>