<svg xmlns="http://www.w3.org/2000/svg" width="24" height="24" fill="none" viewBox="0 0 24 24"><path fill="currentColor" d="M12.5 1a2.25 2.25 0 0 1 2.25 2.25v.178q.711.229 1.366.567l.126-.126a2.25 2.25 0 0 1 3.183 0l.707.707a2.25 2.25 0 0 1 0 3.181l-.126.127q.337.655.566 1.366h.178A2.25 2.25 0 0 1 23 11.5v1a2.25 2.25 0 0 1-2.25 2.25h-.178q-.229.712-.566 1.367l.126.126a2.25 2.25 0 0 1 0 3.182l-.707.707a2.25 2.25 0 0 1-3.183 0l-.126-.126a9 9 0 0 1-1.366.567v.177A2.25 2.25 0 0 1 12.5 23h-1a2.25 2.25 0 0 1-2.25-2.25v-.177a9 9 0 0 1-1.366-.567l-.126.126a2.25 2.25 0 0 1-3.183 0l-.707-.707a2.25 2.25 0 0 1 0-3.182l.126-.126a9 9 0 0 1-.566-1.367H3.25A2.25 2.25 0 0 1 1 12.5v-1a2.25 2.25 0 0 1 2.25-2.25h.178q.229-.71.566-1.366l-.126-.127a2.25 2.25 0 0 1 0-3.181l.707-.707a2.25 2.25 0 0 1 3.183 0l.126.126a9 9 0 0 1 1.366-.567V3.25A2.25 2.25 0 0 1 11.5 1zm-1 1.5a.75.75 0 0 0-.75.75v.745a.75.75 0 0 1-.568.727 7.5 7.5 0 0 0-2.041.847.75.75 0 0 1-.917-.112l-.528-.528a.75.75 0 0 0-1.06 0l-.707.707a.75.75 0 0 0 0 1.06l.527.528a.75.75 0 0 1 .112.917 7.5 7.5 0 0 0-.846 2.041.75.75 0 0 1-.728.569H3.25a.75.75 0 0 0-.75.75v1c0 .413.336.75.75.75h.744a.75.75 0 0 1 .728.568c.181.728.47 1.414.846 2.04a.75.75 0 0 1-.112.918l-.527.527a.75.75 0 0 0 0 1.06l.707.708a.75.75 0 0 0 1.06 0l.528-.528a.75.75 0 0 1 .917-.112 7.5 7.5 0 0 0 2.04.847.75.75 0 0 1 .569.727v.744c0 .414.336.75.75.75h1a.75.75 0 0 0 .75-.75v-.744a.75.75 0 0 1 .568-.727 7.5 7.5 0 0 0 2.041-.847.75.75 0 0 1 .917.112l.528.528a.75.75 0 0 0 1.06 0l.707-.707a.75.75 0 0 0 0-1.06l-.527-.528a.75.75 0 0 1-.112-.917 7.5 7.5 0 0 0 .846-2.041.75.75 0 0 1 .728-.569h.744a.75.75 0 0 0 .75-.75v-1a.75.75 0 0 0-.75-.75h-.744a.75.75 0 0 1-.728-.568 7.5 7.5 0 0 0-.846-2.04.75.75 0 0 1 .112-.918l.527-.527a.75.75 0 0 0 0-1.06l-.707-.708a.75.75 0 0 0-1.06 0l-.528.528a.75.75 0 0 1-.917.112 7.5 7.5 0 0 0-2.04-.847.75.75 0 0 1-.569-.727V3.25a.75.75 0 0 0-.75-.75zM12 8a4 4 0 1 1 0 8 4 4 0 0 1 0-8m0 1.5a2.5 2.5 0 1 0 0 5 2.5 2.5 0 0 0 0-5"/></svg>