<svg xmlns="http://www.w3.org/2000/svg" width="16" height="16" fill="none" viewBox="0 0 16 16"><path fill="currentColor" fill-rule="evenodd" d="M7.26.213a2.25 2.25 0 0 1 1.48 0l4.75 1.653A2.25 2.25 0 0 1 15 3.991v4.01c0 2.047-1.181 3.748-2.45 4.991-1.281 1.256-2.758 2.151-3.573 2.598a2.03 2.03 0 0 1-1.954 0c-.815-.447-2.292-1.342-3.573-2.598C2.181 11.75 1 10.048 1 8V3.991c0-.957.607-1.81 1.51-2.125zm.986 1.417a.75.75 0 0 0-.492 0l-4.75 1.653a.75.75 0 0 0-.504.708v4.01c0 1.455.847 2.79 2 3.92 1.141 1.118 2.483 1.937 3.244 2.354.162.088.35.088.512 0 .76-.417 2.103-1.236 3.244-2.354 1.153-1.13 2-2.465 2-3.92V3.99a.75.75 0 0 0-.504-.708zm1.974 3.84a.75.75 0 1 1 1.06 1.06l-4 4a.75.75 0 0 1-1.06 0l-2-2a.75.75 0 0 1 1.06-1.06l1.47 1.47z" clip-rule="evenodd"/></svg>