<svg xmlns="http://www.w3.org/2000/svg" width="24" height="24" fill="none" viewBox="0 0 24 24"><g fill="currentColor"><path fill-rule="evenodd" d="M1.22 1.22a.75.75 0 011.06 0l20.5 20.5a.753.753 0 010 1.06.753.753 0 01-1.06 0l-3.913-3.911c-1.629 1.694-3.491 2.916-4.557 3.546a2.448 2.448 0 01-2.497.002c-1.087-.643-3-1.9-4.65-3.642C4.463 17.039 3.002 14.732 3 12V5.65c0-.439.148-.854.404-1.186L1.22 2.281a.75.75 0 010-1.06zM4.5 5.65V12c0 2.182 1.173 4.136 2.693 5.744 1.514 1.599 3.295 2.773 4.324 3.38a.947.947 0 00.97-.001c1.018-.603 2.763-1.752 4.26-3.316L4.507 5.57a.456.456 0 00-.008.082z" clip-rule="evenodd"/><path d="M11.04 1.308a2.756 2.756 0 011.92 0l6.25 2.33A2.755 2.755 0 0121 6.213v5.787c0 .715-.1 1.405-.28 2.061a.754.754 0 01-.92.527.752.752 0 01-.526-.92A6.354 6.354 0 0019.5 12V6.214c0-.52-.326-.988-.813-1.17l-6.25-2.33a1.256 1.256 0 00-.873 0l-2.302.857a.752.752 0 01-.965-.44.751.751 0 01.441-.965l2.301-.858z"/></g></svg>