<svg xmlns="http://www.w3.org/2000/svg" width="24" height="24" fill="none" viewBox="0 0 24 24"><path fill="currentColor" fill-rule="evenodd" d="M11.04 1.308c.62-.231 1.302-.231 1.92 0l6.25 2.33A2.75 2.75 0 0 1 21 6.214V12c0 2.732-1.462 5.038-3.104 6.774-1.649 1.744-3.561 3-4.649 3.642a2.44 2.44 0 0 1-2.494 0c-1.088-.642-3-1.898-4.65-3.642C4.463 17.038 3 14.732 3 12V6.214c0-1.148.714-2.175 1.79-2.576zm1.397 1.405a1.25 1.25 0 0 0-.873 0l-6.25 2.33c-.49.182-.813.65-.814 1.17V12c0 2.182 1.173 4.136 2.693 5.744 1.514 1.6 3.294 2.773 4.324 3.381a.94.94 0 0 0 .966 0c1.03-.608 2.81-1.781 4.324-3.38C18.327 16.135 19.5 14.181 19.5 12V6.214c0-.522-.325-.989-.814-1.171zM15.72 8.22a.75.75 0 0 1 1.06 1.06l-5.499 5.5a.75.75 0 0 1-1.005.052l-.056-.052-2.5-2.5a.75.75 0 0 1 1.06-1.06l1.97 1.97z" clip-rule="evenodd"/></svg>