<svg xmlns="http://www.w3.org/2000/svg" width="16" height="16" fill="none" viewBox="0 0 16 16"><g fill="currentColor"><path d="M8.007 10a1 1 0 0 1 0 2H8a1 1 0 0 1 0-2zM8 4a.75.75 0 0 1 .75.75v3.5a.75.75 0 0 1-1.5 0v-3.5A.75.75 0 0 1 8 4"/><path fill-rule="evenodd" d="M7.26.213a2.25 2.25 0 0 1 1.48 0l4.75 1.653A2.25 2.25 0 0 1 15 3.991V8c0 2.049-1.18 3.748-2.45 4.992-1.281 1.256-2.758 2.15-3.573 2.598a2.02 2.02 0 0 1-1.954 0c-.815-.447-2.292-1.342-3.573-2.598C2.18 11.748 1 10.05 1 8V3.991c0-.957.606-1.81 1.51-2.125zm.986 1.417a.75.75 0 0 0-.492 0l-4.75 1.653a.75.75 0 0 0-.504.708V8c0 1.456.847 2.791 2 3.92 1.141 1.12 2.483 1.938 3.244 2.354.163.09.35.09.512 0 .76-.416 2.103-1.235 3.244-2.353 1.153-1.13 2-2.465 2-3.921V3.991a.75.75 0 0 0-.504-.708z" clip-rule="evenodd"/></g></svg>