<svg xmlns="http://www.w3.org/2000/svg" width="24" height="24" fill="none" viewBox="0 0 24 24"><path fill="currentColor" d="M9.75 19a1.75 1.75 0 0 1 0 3.5h-.01a1.75 1.75 0 0 1 0-3.5zm10 0a1.75 1.75 0 0 1 0 3.5h-.01a1.75 1.75 0 1 1 0-3.5zM3.339 1.5a2.75 2.75 0 0 1 2.703 2.245L6.276 5h14.596c1.707 0 3.001 1.539 2.71 3.22l-1.305 7.5a2.75 2.75 0 0 1-2.71 2.28H9.426a2.75 2.75 0 0 1-2.708-2.269l-.706-3.972L4.567 4.02A1.25 1.25 0 0 0 3.34 3H1.25a.75.75 0 1 1 0-1.5zm4.15 9.994.706 3.974a1.25 1.25 0 0 0 1.23 1.032h10.142c.608 0 1.129-.438 1.233-1.037l1.303-7.5a1.25 1.25 0 0 0-1.23-1.463H6.556z"/></svg>