<svg xmlns="http://www.w3.org/2000/svg" width="24" height="24" fill="none" viewBox="0 0 24 24"><path fill="currentColor" fill-rule="evenodd" d="M17.235 4.512C18.394 3.688 20 4.516 20 5.938v12.124c-.001 1.42-1.607 2.248-2.765 1.425l-8.524-6.061a1.75 1.75 0 010-2.853l8.524-6.061zM5.25 4.25A.75.75 0 016 5v14c0 .413-.336.75-.75.75A.751.751 0 014.5 19V5a.75.75 0 01.75-.75zM18.5 5.938a.25.25 0 00-.395-.204l-8.524 6.062a.25.25 0 000 .407l8.524 6.063a.251.251 0 00.395-.204V5.938z" clip-rule="evenodd"/></svg>