<svg xmlns="http://www.w3.org/2000/svg" width="24" height="24" fill="none" viewBox="0 0 24 24"><path fill="currentColor" d="M6.5 13a.75.75 0 0 1 0 1.5h-2v6.25a.75.75 0 0 1-1.5 0V14.5H1A.75.75 0 0 1 1 13zm5.25-2a.75.75 0 0 1 .75.75v9a.75.75 0 0 1-1.5 0v-9a.75.75 0 0 1 .75-.75m10.75 4a.75.75 0 0 1 0 1.5h-2v4.25a.75.75 0 0 1-1.5 0V16.5h-2a.75.75 0 0 1 0-1.5zM19.75 2.5a.75.75 0 0 1 .75.75v9a.75.75 0 0 1-1.5 0v-9a.75.75 0 0 1 .75-.75m-16 0a.75.75 0 0 1 .75.75v7a.75.75 0 0 1-1.5 0v-7a.75.75 0 0 1 .75-.75m8 0a.75.75 0 0 1 .75.75V7.5h2a.75.75 0 0 1 0 1.5H9a.75.75 0 0 1 0-1.5h2V3.25a.75.75 0 0 1 .75-.75"/></svg>