<svg xmlns="http://www.w3.org/2000/svg" width="16" height="16" fill="none" viewBox="0 0 16 16"><path fill="currentColor" d="M8 0a8 8 0 110 16A8 8 0 018 0zm0 1.5a6.5 6.5 0 100 13 6.5 6.5 0 000-13zm1.759 7.861a.75.75 0 011.284.775l-.212.304c-.128.168-.317.39-.564.615C9.782 11.495 9.009 12 8 12c-1.01 0-1.782-.505-2.267-.945a4.718 4.718 0 01-.564-.615 3.294 3.294 0 01-.212-.304.75.75 0 011.284-.775 3.217 3.217 0 00.501.584c.34.31.768.555 1.258.555s.918-.246 1.258-.555a3.217 3.217 0 00.5-.584zM6.007 5a1 1 0 010 2H6a1 1 0 010-2h.007zm4 0a1 1 0 010 2H10a1 1 0 110-2h.007z"/></svg>