<svg xmlns="http://www.w3.org/2000/svg" width="24" height="24" fill="none" viewBox="0 0 24 24"><path fill="currentColor" fill-rule="evenodd" d="M18.087 13.226a.5.5 0 0 1 .919 0l.84 1.96a.5.5 0 0 0 .264.263l1.96.841a.5.5 0 0 1 0 .92l-1.96.84a.5.5 0 0 0-.263.263l-.841 1.96a.5.5 0 0 1-.919 0l-.84-1.96a.5.5 0 0 0-.264-.263l-1.96-.84a.5.5 0 0 1 0-.92l1.96-.84a.5.5 0 0 0 .263-.263zM8.111 6.75a.5.5 0 0 1 .92 0l1.583 3.693a.5.5 0 0 0 .263.263l3.693 1.583a.5.5 0 0 1 0 .92l-3.693 1.582a.5.5 0 0 0-.263.263l-1.583 3.693a.5.5 0 0 1-.92 0l-1.583-3.693a.5.5 0 0 0-.261-.263L2.572 13.21a.5.5 0 0 1 0-.919l3.695-1.583a.5.5 0 0 0 .261-.263zm7.465-2.965a.5.5 0 0 1 .92 0l.522 1.22a.5.5 0 0 0 .262.262l1.22.522a.5.5 0 0 1 0 .92l-1.22.522a.5.5 0 0 0-.262.262l-.523 1.22a.5.5 0 0 1-.919 0l-.522-1.22a.5.5 0 0 0-.263-.262l-1.219-.523a.5.5 0 0 1 0-.919l1.22-.522a.5.5 0 0 0 .262-.263z" clip-rule="evenodd"/></svg>