<svg xmlns="http://www.w3.org/2000/svg" width="16" height="16" fill="none" viewBox="0 0 16 16"><path fill="currentColor" fill-rule="evenodd" d="M5.697 5.365a.5.5 0 01.92 0L7.774 8.07a.5.5 0 00.263.262l2.703 1.16a.5.5 0 010 .918l-2.703 1.16a.5.5 0 00-.263.261l-1.159 2.704a.5.5 0 01-.919 0L4.54 11.83a.5.5 0 00-.263-.261l-2.704-1.16a.5.5 0 010-.919l2.704-1.159a.502.502 0 00.263-.262l1.158-2.704zm6.13-3.329a.5.5 0 01.918 0l.523 1.22a.5.5 0 00.262.262l1.22.522a.5.5 0 010 .92l-1.22.522a.501.501 0 00-.262.262l-.523 1.22a.5.5 0 01-.919 0l-.522-1.22a.5.5 0 00-.263-.262l-1.219-.523a.5.5 0 010-.919l1.22-.522a.501.501 0 00.262-.263l.522-1.219z" clip-rule="evenodd"/></svg>