<svg xmlns="http://www.w3.org/2000/svg" width="24" height="24" fill="none" viewBox="0 0 24 24"><g fill="currentColor" fill-rule="evenodd" clip-rule="evenodd"><path d="M12.669 4.91a.75.75 0 0 0-1.338 0l-1.91 3.767-4.277.608a.75.75 0 0 0-.41 1.287l3.082 2.923-.726 4.125a.75.75 0 0 0 1.08.798L12 16.457l3.83 1.96a.75.75 0 0 0 1.08-.797l-.726-4.125 3.082-2.923a.75.75 0 0 0-.41-1.287l-4.278-.608zm-2.086 4.793L12 6.91l1.417 2.794a.75.75 0 0 0 .563.404l3.128.445-2.25 2.132a.75.75 0 0 0-.222.675l.535 3.036-2.83-1.448a.75.75 0 0 0-.683 0l-2.83 1.448.536-3.036a.75.75 0 0 0-.223-.675l-2.249-2.132 3.128-.445a.75.75 0 0 0 .563-.404"/><path d="M12 1C5.925 1 1 5.925 1 12s4.925 11 11 11 11-4.925 11-11S18.075 1 12 1M2.5 12a9.5 9.5 0 1 1 19 0 9.5 9.5 0 0 1-19 0"/></g></svg>