<svg xmlns="http://www.w3.org/2000/svg" width="24" height="24" fill="none" viewBox="0 0 24 24"><path fill="currentColor" d="M9.75 3.25a.75.75 0 0 1 .75.75v5.25h.25A2.25 2.25 0 0 1 13 11.5v2a2.25 2.25 0 0 1-2.25 2.25h-.25V16c0 .866.338 1.694.935 2.303a3.14 3.14 0 0 0 2.244.947h5.071a.75.75 0 0 1 0 1.5h-5.071a4.64 4.64 0 0 1-3.314-1.396A4.79 4.79 0 0 1 9 16v-.25h-.25A2.25 2.25 0 0 1 6.5 13.5v-2a2.25 2.25 0 0 1 2.25-2.25H9V4a.75.75 0 0 1 .75-.75m-1 7.5a.75.75 0 0 0-.75.75v2c0 .414.336.75.75.75h2a.75.75 0 0 0 .75-.75v-2a.75.75 0 0 0-.75-.75z"/></svg>