<svg xmlns="http://www.w3.org/2000/svg" width="16" height="16" fill="none" viewBox="0 0 16 16"><path fill="currentColor" d="M8 12.977a.75.75 0 01.75.75V15a.75.75 0 01-1.5 0v-1.273a.75.75 0 01.75-.75zm-4.577-1.46a.75.75 0 011.06 1.06l-.904.903a.75.75 0 11-1.06-1.06l.904-.903zm8.094 0a.751.751 0 011.061 0l.903.903a.75.75 0 01-1.06 1.06l-.904-.903a.75.75 0 010-1.06zM8 4a4 4 0 110 8 4 4 0 010-8zm0 1.5a2.5 2.5 0 100 5 2.5 2.5 0 000-5zM2.272 7.25a.75.75 0 010 1.5H1a.75.75 0 010-1.5h1.272zM15 7.25a.75.75 0 010 1.5h-1.273a.75.75 0 010-1.5H15zM2.519 2.519a.75.75 0 011.06 0l.904.903a.75.75 0 01-1.06 1.06l-.904-.903a.75.75 0 010-1.06zm9.902 0a.75.75 0 011.06 1.06l-.903.903a.751.751 0 01-1.061-1.06l.904-.903zM8 .25a.75.75 0 01.75.75v1.272a.75.75 0 01-1.5 0V1A.75.75 0 018 .25z"/></svg>