<svg xmlns="http://www.w3.org/2000/svg" width="24" height="24" fill="none" viewBox="0 0 24 24"><path fill="currentColor" d="M12 1c3.012 0 5.742 1.21 7.729 3.172.035.03.07.064.1.1A10.965 10.965 0 0123 12c0 3.012-1.21 5.742-3.172 7.729a.768.768 0 01-.1.1A10.965 10.965 0 0112 23c-3.012 0-5.742-1.21-7.729-3.172a.768.768 0 01-.1-.1A10.965 10.965 0 011 12c0-3.012 1.21-5.742 3.172-7.729a.768.768 0 01.1-.1A10.965 10.965 0 0112 1zm2.966 15.026A4.978 4.978 0 0112 17a4.979 4.979 0 01-2.966-.974l-3.2 3.2A9.462 9.462 0 0012 21.5a9.462 9.462 0 006.166-2.273l-3.2-3.2zM4.773 5.834A9.462 9.462 0 002.5 12c0 2.353.856 4.507 2.273 6.166l3.2-3.2A4.978 4.978 0 017 12c0-1.11.362-2.136.974-2.966l-3.2-3.2zm11.253 3.2C16.64 9.864 17 10.89 17 12s-.361 2.136-.974 2.966l3.2 3.2A9.462 9.462 0 0021.5 12a9.462 9.462 0 00-2.273-6.166l-3.2 3.2zM12 8.5c-.932 0-1.779.364-2.406.958a.772.772 0 01-.136.136A3.488 3.488 0 008.5 12c0 .932.364 1.779.958 2.406.05.039.097.086.136.136A3.488 3.488 0 0012 15.5c.932 0 1.779-.364 2.406-.958a.772.772 0 01.136-.136A3.488 3.488 0 0015.5 12c0-.932-.364-1.779-.958-2.406a.772.772 0 01-.136-.136A3.488 3.488 0 0012 8.5zm0-6a9.462 9.462 0 00-6.166 2.273l3.2 3.2A4.979 4.979 0 0112 7c1.11 0 2.136.362 2.966.974l3.2-3.2A9.462 9.462 0 0012 2.5z"/></svg>