<svg xmlns="http://www.w3.org/2000/svg" width="16" height="16" fill="none" viewBox="0 0 16 16"><path fill="currentColor" d="M7.412 0a2.576 2.576 0 012.576 2.575v2.376h3.517a2.25 2.25 0 012.224 2.588l-.994 6.549A2.25 2.25 0 0112.511 16H2.25A2.25 2.25 0 010 13.75V8.616a2.25 2.25 0 012.25-2.25h1.549l2.51-5.65A1.207 1.207 0 017.413 0zM2.25 7.866a.75.75 0 00-.75.75v5.134c0 .414.336.75.75.75h1.286V7.866H2.25zm2.786-.59V14.5h7.475a.75.75 0 00.741-.638l.994-6.549a.75.75 0 00-.741-.862H9.738c-.69 0-1.25-.56-1.25-1.25V2.575c0-.53-.385-.972-.891-1.06l-2.56 5.76z"/></svg>