<svg xmlns="http://www.w3.org/2000/svg" width="24" height="24" fill="none" viewBox="0 0 24 24"><path fill="currentColor" d="M14.25 1A2.75 2.75 0 0117 3.75V5h4.25a.75.75 0 010 1.5H20v13.75A2.75 2.75 0 0117.25 23H6.75A2.75 2.75 0 014 20.25V6.5H2.75a.75.75 0 010-1.5H7V3.75A2.75 2.75 0 019.75 1h4.5zM5.5 20.25c0 .69.56 1.25 1.25 1.25h10.5c.69 0 1.25-.56 1.25-1.25V6.5h-13v13.75zM9.75 9a.75.75 0 01.75.75v8.5a.75.75 0 01-1.5 0v-8.5A.75.75 0 019.75 9zm4.5 0a.75.75 0 01.75.75v8.5a.75.75 0 01-1.5 0v-8.5a.75.75 0 01.75-.75zm-4.5-6.5c-.69 0-1.25.56-1.25 1.25V5h7V3.75c0-.69-.56-1.25-1.25-1.25h-4.5z"/></svg>