<svg xmlns="http://www.w3.org/2000/svg" width="24" height="24" fill="none" viewBox="0 0 24 24"><path fill="currentColor" fill-rule="evenodd" d="M12 2c.472 0 .934.127 1.342.366.407.24.746.581.984.99l.002.004 8.316 14.46c.233.421.355.896.356 1.378a2.86 2.86 0 0 1-.35 1.38 2.76 2.76 0 0 1-.975 1.03c-.41.25-.877.386-1.357.392H3.682a2.65 2.65 0 0 1-1.357-.393 2.76 2.76 0 0 1-.975-1.029 2.86 2.86 0 0 1 .007-2.758l.005-.01 8.31-14.45.65.373-.648-.377c.238-.409.577-.75.984-.99C11.066 2.127 11.528 2 12 2" clip-rule="evenodd"/></svg>