<svg xmlns="http://www.w3.org/2000/svg" width="16" height="16" fill="none" viewBox="0 0 16 16"><path fill="#f22f46" d="M8 1c3.864 0 7 3.136 7 7s-3.136 7-7 7-7-3.136-7-7 3.136-7 7-7m0 1.848A5.14 5.14 0 0 0 2.848 8 5.14 5.14 0 0 0 8 13.152 5.14 5.14 0 0 0 13.152 8 5.14 5.14 0 0 0 8 2.848M9.736 8.28a1.456 1.456 0 1 1 0 2.912 1.456 1.456 0 0 1 0-2.912m-3.472 0a1.456 1.456 0 1 1 0 2.912 1.456 1.456 0 0 1 0-2.912m3.472-3.472a1.456 1.456 0 1 1 0 2.912 1.456 1.456 0 0 1 0-2.912m-3.472 0a1.456 1.456 0 1 1 0 2.912 1.456 1.456 0 0 1 0-2.912"/></svg>