<svg xmlns="http://www.w3.org/2000/svg" width="24" height="24" fill="none" viewBox="0 0 24 24"><path fill="currentColor" d="M12 1c6.072 0 11 4.928 11 11s-4.928 11-11 11S1 18.072 1 12 5.928 1 12 1m0 2.904A8.075 8.075 0 0 0 3.904 12 8.075 8.075 0 0 0 12 20.096 8.075 8.075 0 0 0 20.096 12 8.075 8.075 0 0 0 12 3.904m2.728 8.536a2.288 2.288 0 1 1 0 4.576 2.288 2.288 0 0 1 0-4.576m-5.456 0a2.288 2.288 0 1 1 0 4.576 2.288 2.288 0 0 1 0-4.576m5.456-5.456a2.288 2.288 0 1 1 0 4.576 2.288 2.288 0 0 1 0-4.576m-5.456 0a2.288 2.288 0 1 1 0 4.576 2.288 2.288 0 0 1 0-4.576"/></svg>