<svg xmlns="http://www.w3.org/2000/svg" width="16" height="16" fill="none" viewBox="0 0 16 16"><path fill="currentColor" d="M10.7 10.24a.75.75 0 0 1 1.099 1.02l-3.25 3.5a.75.75 0 0 1-1.099 0l-3.25-3.5A.75.75 0 0 1 5.3 10.24L8 13.147zM2.25 7.123a.626.626 0 0 1 0 1.253h-.5a.627.627 0 0 1 0-1.253zm3 0a.626.626 0 0 1 0 1.253h-.5a.627.627 0 0 1 0-1.253zm3 0a.626.626 0 0 1 0 1.253h-.5a.627.627 0 0 1 0-1.253zm3 0a.626.626 0 0 1 0 1.253h-.5a.627.627 0 0 1 0-1.253zm3 0a.626.626 0 0 1 0 1.253h-.5a.627.627 0 0 1 0-1.253zM8 1a.75.75 0 0 1 .549.24l3.25 3.5A.75.75 0 0 1 10.7 5.76L8 2.854 5.299 5.76A.75.75 0 0 1 4.2 4.739l3.25-3.5A.75.75 0 0 1 8 1"/></svg>