<svg xmlns="http://www.w3.org/2000/svg" width="24" height="24" fill="none" viewBox="0 0 24 24"><path fill="currentColor" d="M16.707 15.232a.75.75 0 0 1 1.086 1.036l-5.25 5.5a.75.75 0 0 1-1.086 0l-5.25-5.5a.75.75 0 0 1 1.086-1.036L12 20.164zM2.75 11a.75.75 0 0 1 0 1.5h-1.5a.75.75 0 0 1 0-1.5zm5 0a.75.75 0 0 1 0 1.5h-1.5a.75.75 0 0 1 0-1.5zm5 0a.75.75 0 0 1 0 1.5h-1.5a.75.75 0 0 1 0-1.5zm5 0a.75.75 0 0 1 0 1.5h-1.5a.75.75 0 0 1 0-1.5zm5 0a.75.75 0 0 1 0 1.5h-1.5a.75.75 0 0 1 0-1.5zM12 2c.205 0 .401.084.543.232l5.25 5.5a.75.75 0 0 1-1.086 1.036L12 3.836 7.293 8.768a.75.75 0 0 1-1.086-1.036l5.25-5.5A.75.75 0 0 1 12 2"/></svg>