<svg xmlns="http://www.w3.org/2000/svg" width="16" height="16" fill="none" viewBox="0 0 16 16"><path fill="currentColor" d="M8 .25a7.75 7.75 0 110 15.5A7.75 7.75 0 018 .25zM5.5 11.5c-.495 0-.953.172-1.275.453-.31.27-.427.445-.462.64A6.227 6.227 0 008 14.25a6.227 6.227 0 004.237-1.656c-.035-.196-.152-.372-.462-.64A1.953 1.953 0 0010.5 11.5h-5zM8 1.75a6.25 6.25 0 00-5.274 9.604c.15-.194.325-.37.514-.534.615-.534 1.43-.82 2.26-.82h5c.83 0 1.645.286 2.26.82.189.165.365.34.514.534A6.25 6.25 0 008 1.75zM8 3a3 3 0 110 6 3 3 0 010-6zm0 1.5a1.5 1.5 0 100 3 1.5 1.5 0 000-3z"/></svg>