<svg xmlns="http://www.w3.org/2000/svg" width="24" height="24" fill="none" viewBox="0 0 24 24"><path fill="currentColor" d="M12 .25C18.49.25 23.75 5.51 23.75 12S18.49 23.75 12 23.75.25 18.49.25 12 5.51.25 12 .25zM8.25 16.5a3.25 3.25 0 00-3.24 2.997A10.214 10.214 0 0012 22.25c2.701 0 5.16-1.045 6.99-2.753a3.25 3.25 0 00-3.24-2.997h-7.5zM12 1.75C6.34 1.75 1.75 6.34 1.75 12c0 2.298.757 4.42 2.034 6.129A4.752 4.752 0 018.25 15h7.5a4.751 4.751 0 014.466 3.129A10.203 10.203 0 0022.25 12c0-5.66-4.59-10.25-10.25-10.25zm0 2.75a4.5 4.5 0 110 9 4.5 4.5 0 010-9zM12 6a3 3 0 100 6 3 3 0 000-6z"/></svg>