<svg xmlns="http://www.w3.org/2000/svg" width="24" height="24" fill="none" viewBox="0 0 24 24"><path fill="currentColor" d="M13.25 14.5A4.75 4.75 0 0 1 18 19.25v1a.75.75 0 0 1-1.5 0v-1A3.25 3.25 0 0 0 13.25 16h-8.5a3.25 3.25 0 0 0-3.25 3.25v1a.75.75 0 0 1-1.5 0v-1a4.75 4.75 0 0 1 4.75-4.75zm6-6.75a.75.75 0 0 1 .75.75v2h2a.75.75 0 0 1 0 1.5h-2v2a.75.75 0 0 1-1.5 0v-2h-2a.75.75 0 0 1 0-1.5h2v-2a.75.75 0 0 1 .75-.75M9 3a5 5 0 1 1 0 10A5 5 0 0 1 9 3m0 1.5a3.5 3.5 0 1 0 0 7 3.5 3.5 0 0 0 0-7"/></svg>