<svg xmlns="http://www.w3.org/2000/svg" width="24" height="24" fill="none" viewBox="0 0 24 24"><g fill="currentColor"><path fill-rule="evenodd" d="M19.983.6l-4.96 2.877v1.767L12 12.384v2.49L9.988 16.04l-4.03-9.044V5.227l3.02-1.75L4.016.6 1 2.352v2.034l6.719 16.532L12 23.4v-6.193l2.012-1.167 4.027-9.044V5.227L23 2.352 19.983.6z" clip-rule="evenodd"/><path d="M23 2.352l-4.96 2.875v1.769l-4.028 9.044L12 17.207V23.4l4.281-2.482L23 4.385V2.352zM8.977 5.244V3.477l-3.019 1.75v1.77l4.03 9.043L12 14.873v-2.488L8.977 5.244z" opacity=".7"/></g></svg>