<svg xmlns="http://www.w3.org/2000/svg" width="24" height="24" fill="none" viewBox="0 0 24 24"><g fill="currentColor"><path d="M9.667 5.559H5v3.4l4.667 9.482h4.666L9.667 8.96V5.559zM14.333 5.559v3.4l-1.937 3.933 2.335 4.739L19 8.96V5.559h-4.667z"/><path fill-rule="evenodd" d="M0 3.2c0-1.12 0-1.68.218-2.108a2 2 0 01.874-.874C1.52 0 2.08 0 3.2 0h17.6c1.12 0 1.68 0 2.108.218a2 2 0 01.874.874C24 1.52 24 2.08 24 3.2v17.6c0 1.12 0 1.68-.218 2.108a2 2 0 01-.874.874C22.48 24 21.92 24 20.8 24H3.2c-1.12 0-1.68 0-2.108-.218a2 2 0 01-.874-.874C0 22.48 0 21.92 0 20.8V3.2zM3.2 1h17.6c.577 0 .949 0 1.232.024.272.022.372.06.422.085a1 1 0 01.437.437c.025.05.063.15.085.422C23 2.25 23 2.623 23 3.2v17.6c0 .577 0 .949-.024 1.232-.022.272-.06.372-.085.422a1 1 0 01-.437.437c-.05.025-.15.063-.422.085C21.75 23 21.377 23 20.8 23H3.2c-.577 0-.949 0-1.232-.024-.272-.022-.373-.06-.422-.085a1 1 0 01-.437-.437c-.025-.05-.063-.15-.085-.422C1 21.75 1 21.377 1 20.8V3.2c0-.577 0-.949.024-1.232.022-.272.06-.373.085-.422a1 1 0 01.437-.437c.05-.025.15-.063.422-.085C2.25 1 2.623 1 3.2 1z" clip-rule="evenodd"/></g></svg>