<svg xmlns="http://www.w3.org/2000/svg" width="16" height="16" fill="none" viewBox="0 0 16 16"><path fill="#ffcf25" fill-rule="evenodd" d="M2 0a2 2 0 0 0-2 2v12a2 2 0 0 0 2 2h12a2 2 0 0 0 2-2V2a2 2 0 0 0-2-2zm9.955 7.578.42.42-.001.002a4.38 4.38 0 0 1-4.375 4.375A4.38 4.38 0 0 1 3.625 8a4.38 4.38 0 0 1 4.374-4.375c1.304 0 2.548.591 3.376 1.593L8.593 8H8v-.594l.873-.873A1.71 1.71 0 0 0 6.292 8a1.71 1.71 0 0 0 1.707 1.708A1.71 1.71 0 0 0 9.707 8l.42-.42.42.42A2.55 2.55 0 0 1 8 10.548 2.55 2.55 0 0 1 5.451 8 2.55 2.55 0 0 1 8 5.452c.54 0 1.05.168 1.48.475l.704-.705A3.55 3.55 0 0 0 8 4.464 3.54 3.54 0 0 0 4.467 8 3.54 3.54 0 0 0 8 11.533 3.54 3.54 0 0 0 11.535 8z" clip-rule="evenodd"/></svg>