<svg xmlns="http://www.w3.org/2000/svg" width="24" height="24" fill="none" viewBox="0 0 24 24"><path fill="currentColor" fill-rule="evenodd" d="M1.22 1.22a.75.75 0 011.06 0l20.5 20.5a.75.75 0 01-1.06 1.06l-4.815-4.813A2.752 2.752 0 0114.25 20H2.75A2.75 2.75 0 010 17.25V6.75A2.75 2.75 0 012.75 4h.19L1.22 2.28a.75.75 0 010-1.06zM2.75 5.5c-.69 0-1.25.56-1.25 1.25v10.5c0 .69.56 1.25 1.25 1.25h11.5c.69 0 1.25-.56 1.25-1.25v-.69L4.44 5.5H2.75zM14.25 4A2.75 2.75 0 0117 6.75v3.138l4.127-3.323C22.264 5.613 24 6.421 24 7.908v8.184c0 .702-.396 1.261-.923 1.543a.751.751 0 01-.708-1.324.254.254 0 00.096-.086.244.244 0 00.035-.133V7.908a.25.25 0 00-.411-.191l-.015.013-4.426 3.562a1.321 1.321 0 01-2.148-1.028V6.75c0-.69-.56-1.25-1.25-1.25H10.5a.75.75 0 010-1.5h3.75z" clip-rule="evenodd"/></svg>