<svg xmlns="http://www.w3.org/2000/svg" width="24" height="24" fill="none" viewBox="0 0 24 24"><path fill="currentColor" d="M9.047 4.805c1.115-1.056 2.952-.265 2.953 1.27v11.85c0 1.536-1.838 2.327-2.953 1.271l-3.3-3.127A.253.253 0 005.573 16H2.75A1.75 1.75 0 011 14.25v-4.5C1 8.784 1.784 8 2.75 8h2.824a.252.252 0 00.172-.068l3.3-3.127zm1.453 1.27a.25.25 0 00-.422-.181l-3.3 3.127c-.326.307-.756.479-1.204.479H2.75a.25.25 0 00-.25.25v4.5c0 .138.112.25.25.25h2.824c.448 0 .878.173 1.203.48l3.301 3.127a.25.25 0 00.422-.181V6.076zm4.71 1.904a.75.75 0 011.061-.018A5.621 5.621 0 0118 12a5.62 5.62 0 01-1.729 4.039.75.75 0 01-1.043-1.08 4.12 4.12 0 001.272-2.959 4.12 4.12 0 00-1.271-2.961.75.75 0 01-.018-1.06z"/></svg>