<svg xmlns="http://www.w3.org/2000/svg" width="24" height="24" fill="none" viewBox="0 0 24 24"><path fill="currentColor" fill-rule="evenodd" d="M13.482 6.707a2.501 2.501 0 013.536 3.535L5.703 21.557a2.501 2.501 0 01-3.535-3.536L13.482 6.707zM3.229 19.081a1.001 1.001 0 001.414 1.415l8.662-8.662-1.414-1.415-8.662 8.662zm15.177-6.07a.75.75 0 011.38 0l.57 1.335a.754.754 0 00.395.393l1.333.572a.751.751 0 010 1.378l-1.333.572a.751.751 0 00-.395.393l-.57 1.333a.75.75 0 01-1.38 0l-.571-1.333a.753.753 0 00-.393-.393l-1.334-.572a.75.75 0 010-1.378l1.334-.572a.752.752 0 00.393-.393l.571-1.334zm-2.449-5.243a1.001 1.001 0 00-1.415 0l-1.59 1.59 1.413 1.415 1.592-1.591c.39-.39.39-1.024 0-1.414zM6.15 2.125a.75.75 0 01.976-.976l1.097.439c.178.07.378.071.556 0l1.097-.439a.75.75 0 01.975.976l-.439 1.097a.75.75 0 000 .556l.439 1.097a.75.75 0 01-.975.975L8.778 5.41a.752.752 0 00-.556 0l-1.097.439a.75.75 0 01-.976-.975l.44-1.097a.754.754 0 000-.556l-.44-1.097zm11.75 0a.75.75 0 01.976-.976l.722.29c.178.07.378.07.556 0l.722-.29a.75.75 0 01.975.976l-.288.722a.75.75 0 000 .556l.288.722a.75.75 0 01-.975.975l-.722-.288a.752.752 0 00-.556 0l-.722.288a.75.75 0 01-.976-.975l.29-.722a.752.752 0 000-.556l-.29-.722z" clip-rule="evenodd"/></svg>