<svg xmlns="http://www.w3.org/2000/svg" width="16" height="16" fill="none" viewBox="0 0 16 16"><path fill="currentColor" fill-rule="evenodd" d="M8.586 4.104a2 2 0 012.828 2.828L3.636 14.71a2 2 0 01-2.828-2.828l7.778-7.778zm-6.718 8.839a.5.5 0 10.707.707L8.41 7.814l-.707-.707-5.834 5.835zm10.708-4.657a.5.5 0 01.92 0l.522 1.219c.05.117.145.212.262.263l1.218.522a.5.5 0 010 .92l-1.218.521a.501.501 0 00-.262.263l-.523 1.219a.5.5 0 01-.919 0l-.522-1.219a.504.504 0 00-.263-.262l-1.219-.523a.5.5 0 010-.919l1.22-.522a.504.504 0 00.262-.263l.522-1.219zm-2.222-3.122a.5.5 0 00-.707 0l-.884.884.707.707.884-.884a.501.501 0 000-.707zM3.433.834a.5.5 0 01.65-.651l.982.392a.503.503 0 00.37 0l.982-.392a.5.5 0 01.65.65l-.393.98a.502.502 0 000 .373l.392.98a.5.5 0 01-.649.65l-.981-.392a.502.502 0 00-.371 0l-.982.392a.5.5 0 01-.65-.65l.392-.98a.504.504 0 000-.372l-.392-.98zm8.75 0a.5.5 0 01.65-.651l.732.293a.503.503 0 00.37 0l.732-.293a.5.5 0 01.65.65l-.293.73a.502.502 0 000 .373l.293.73a.5.5 0 01-.65.65l-.731-.292a.502.502 0 00-.371 0l-.732.292a.5.5 0 01-.65-.65l.293-.73a.504.504 0 000-.372l-.293-.73z" clip-rule="evenodd"/></svg>