<svg xmlns="http://www.w3.org/2000/svg" width="16" height="16" fill="none" viewBox="0 0 16 16"><path fill="currentColor" d="M9.2 0c1.119 0 2.068.823 2.227 1.932l.287 2.011A5.486 5.486 0 0113.5 8a5.485 5.485 0 01-1.786 4.057l-.287 2.011A2.25 2.25 0 019.199 16H6.801a2.25 2.25 0 01-2.228-1.932l-.287-2.011A5.485 5.485 0 012.5 8c0-1.606.688-3.051 1.786-4.057l.287-2.011A2.25 2.25 0 016.801 0h2.398zm.849 13.105A5.485 5.485 0 018 13.5c-.724 0-1.416-.14-2.049-.395l.108.751a.75.75 0 00.742.644h2.398a.75.75 0 00.742-.644l.108-.75zM8 4a4 4 0 100 8 4 4 0 000-8zm.25 1.5a.75.75 0 01.75.75v1.709l.987.33a.75.75 0 01-.474 1.423l-1.5-.5A.75.75 0 017.5 8.5V6.25a.75.75 0 01.75-.75zm-1.45-4a.75.75 0 00-.741.644l-.108.75A5.486 5.486 0 018 2.5c.724 0 1.416.14 2.049.395l-.108-.751A.75.75 0 009.2 1.5H6.801z"/></svg>