<svg xmlns="http://www.w3.org/2000/svg" width="16" height="16" fill="none" viewBox="0 0 16 16"><path fill="currentColor" d="M.703 9.677a.75.75 0 0 1 1.299.752 1.885 1.885 0 1 0 3.519.94.75.75 0 0 1 .75-.75h5.087a1.25 1.25 0 0 1 1-.5h.007a1.25 1.25 0 0 1 0 2.5h-.007c-.409 0-.773-.197-1-.5h-4.42a3.387 3.387 0 0 1-6.688-.75c0-.615.165-1.194.453-1.692m7.222-6.795A1.25 1.25 0 0 1 9.08 4.607l2.16 3.571a3.383 3.383 0 0 1 4.51 3.19 3.384 3.384 0 0 1-4.232 3.276.751.751 0 0 1 .374-1.453q.226.059.471.06a1.884 1.884 0 0 0 1.886-1.882c0-1.038-.844-1.881-1.886-1.881-.373 0-.72.107-1.012.293a.75.75 0 0 1-1.044-.244L7.793 5.375a1.25 1.25 0 0 1 .125-2.493zM7.918.75c1.275 0 2.384.705 2.96 1.743a.75.75 0 0 1-1.31.728 1.89 1.89 0 0 0-1.65-.97 1.88 1.88 0 0 0-1.013 3.47.75.75 0 0 1 .248 1.004L4.785 10.87a1.25 1.25 0 0 1-1.146 1.75h-.007a1.251 1.251 0 0 1-.152-2.492l2.055-3.594a3.37 3.37 0 0 1-1.003-2.402A3.384 3.384 0 0 1 7.918.75"/></svg>