<svg xmlns="http://www.w3.org/2000/svg" width="16" height="16" fill="none" viewBox="0 0 16 16"><path fill="currentColor" fill-rule="evenodd" d="M1.22 1.22a.75.75 0 0 1 1.061 0l12.5 12.5a.75.75 0 0 1 0 1.06.753.753 0 0 1-1.06 0l-3.56-3.557a.8.8 0 0 1-.275-.122 3.254 3.254 0 0 0-3.765 0 .753.753 0 0 1-1.045-.177.75.75 0 0 1 .177-1.046A4.76 4.76 0 0 1 7.94 9L6.2 7.26c-.867.25-1.681.679-2.385 1.265a.753.753 0 0 1-1.056-.096.75.75 0 0 1 .095-1.057A8.1 8.1 0 0 1 5.02 6.08L3.513 4.574a10 10 0 0 0-2.07 1.404.753.753 0 0 1-1.059-.066.75.75 0 0 1 .067-1.059 11.4 11.4 0 0 1 1.954-1.388L1.22 2.281a.75.75 0 0 1 0-1.06M8.008 12c.55.001 1 .449 1 1-.001.551-.45 1-1 1H8a1.001 1.001 0 0 1 0-2zm1.787-5.573c.14-.39.57-.592.959-.453A8.1 8.1 0 0 1 13.2 7.372a.75.75 0 0 1 .097 1.057.753.753 0 0 1-1.057.096 6.6 6.6 0 0 0-1.992-1.139.75.75 0 0 1-.453-.959M8 2c2.779 0 5.464 1.015 7.549 2.853.309.274.339.748.066 1.059a.753.753 0 0 1-1.059.066A9.92 9.92 0 0 0 6.751 3.58a.751.751 0 0 1-.19-1.488Q7.275 2 8.001 2" clip-rule="evenodd"/></svg>