<svg xmlns="http://www.w3.org/2000/svg" width="24" height="24" fill="none" viewBox="0 0 24 24"><path fill="currentColor" fill-rule="evenodd" d="M12.01 19a1 1 0 010 2H12a1 1 0 110-2h.01zm-.005-5c1.4 0 2.767.436 3.91 1.247a.75.75 0 01-.87 1.223 5.252 5.252 0 00-6.081 0 .75.75 0 11-.868-1.223A6.75 6.75 0 0112.005 14zm.035-5c2.748 0 5.408.963 7.52 2.722a.75.75 0 11-.96 1.152 10.25 10.25 0 00-13.12 0 .75.75 0 11-.96-1.152A11.751 11.751 0 0112.04 9zM12 4a16.75 16.75 0 0111.076 4.185.75.75 0 01-.992 1.125 15.25 15.25 0 00-20.168 0 .75.75 0 01-.992-1.125A16.75 16.75 0 0112 4z" clip-rule="evenodd"/></svg>