<svg xmlns="http://www.w3.org/2000/svg" width="16" height="16" fill="none" viewBox="0 0 16 16"><path fill="currentColor" d="M10.476 0c.675 0 1.167.029 1.525.076.331.044.64.115.873.264a.92.92 0 01.374.451.842.842 0 01-.014.623.926.926 0 01-.24.333c-.26.257-.548.487-.829.72-.315.26-.648.535-.957.82a5.956 5.956 0 00-.771.824c-.196.27-.227.415-.227.456 0 .003 0 .007.003.01l1.21 1.21a.014.014 0 00.01.003c.043 0 .19-.03.459-.226.253-.183.532-.45.826-.767.284-.307.56-.638.82-.951.233-.28.463-.564.72-.823a.926.926 0 01.31-.234.842.842 0 01.628-.033.911.911 0 01.467.376c.15.233.22.542.263.87.047.356.074.847.074 1.522a5.524 5.524 0 01-5.524 5.525 5.769 5.769 0 01-1.64-.263 6.744 6.744 0 01-.222-.071l-4.57 4.59a2.372 2.372 0 01-3.35.002 2.369 2.369 0 010-3.35h.001l4.591-4.568a6.918 6.918 0 01-.072-.224 5.771 5.771 0 01-.263-1.64A5.524 5.524 0 0110.476 0zm0 1.5A4.024 4.024 0 006.45 5.524c0 .43.095.865.198 1.205.055.18.117.356.193.527v.002a.75.75 0 01-.15.848l-4.937 4.912a.871.871 0 00-.001 1.228.87.87 0 001.228 0L7.896 9.31a.75.75 0 01.846-.152c.17.079.35.138.53.193.34.103.774.198 1.204.198A4.024 4.024 0 0014.5 5.524c0-.177-.002-.338-.006-.483-.209.249-.437.518-.675.774-.319.346-.677.696-1.048.964-.354.257-.82.511-1.338.511-.396 0-.777-.154-1.06-.432L9.142 5.627a1.514 1.514 0 01-.432-1.06c0-.52.257-.986.515-1.34.27-.37.621-.727.968-1.045.26-.238.53-.468.78-.676a18.706 18.706 0 00-.497-.006z"/></svg>