<svg xmlns="http://www.w3.org/2000/svg" width="24" height="24" fill="none" viewBox="0 0 24 24"><g fill="currentColor"><path d="M15.78 8.22a.75.75 0 0 1 0 1.06L13.06 12l2.72 2.72a.75.75 0 1 1-1.06 1.06L12 13.06l-2.72 2.72a.75.75 0 0 1-1.06-1.06L10.94 12 8.22 9.28a.75.75 0 0 1 1.06-1.06L12 10.94l2.72-2.72a.75.75 0 0 1 1.06 0"/><path fill-rule="evenodd" d="m1.884 10.056 8.172-8.172a2.75 2.75 0 0 1 3.889 0l8.171 8.172a2.75 2.75 0 0 1 0 3.889l-8.171 8.171a2.75 2.75 0 0 1-3.89 0l-8.171-8.17a2.75 2.75 0 0 1 0-3.89m9.232-7.111-8.172 8.172a1.25 1.25 0 0 0 0 1.767l8.172 8.172a1.25 1.25 0 0 0 1.768 0l8.171-8.172a1.25 1.25 0 0 0 0-1.767l-8.171-8.172a1.25 1.25 0 0 0-1.768 0" clip-rule="evenodd"/></g></svg>