<svg xmlns="http://www.w3.org/2000/svg" width="24" height="24" fill="none" viewBox="0 0 24 24"><path fill="currentColor" fill-rule="evenodd" d="M4.806 3.5c-.721 0-1.306.585-1.306 1.306v14.388c0 .722.585 1.306 1.306 1.306h14.388c.722 0 1.306-.584 1.306-1.306V4.806c0-.721-.584-1.306-1.306-1.306zM2 4.806A2.806 2.806 0 0 1 4.806 2h14.388A2.806 2.806 0 0 1 22 4.806v14.388A2.806 2.806 0 0 1 19.194 22H4.806A2.806 2.806 0 0 1 2 19.194zM7.22 7.22a.75.75 0 0 1 1.06 0L12 10.94l3.72-3.72a.75.75 0 1 1 1.06 1.06L13.06 12l3.72 3.72a.75.75 0 1 1-1.06 1.06L12 13.06l-3.72 3.72a.75.75 0 0 1-1.06-1.06L10.94 12 7.22 8.28a.75.75 0 0 1 0-1.06" clip-rule="evenodd"/></svg>