<svg xmlns="http://www.w3.org/2000/svg" width="24" height="24" fill="none" viewBox="0 0 24 24"><path fill="currentColor" fill-rule="evenodd" d="M20.608 4.77a2.76 2.76 0 0 1 1.939 1.939C23 8.43 23 12 23 12s0 3.57-.453 5.292a2.76 2.76 0 0 1-1.94 1.939c-1.72.453-8.607.453-8.607.453s-6.886 0-8.608-.453a2.76 2.76 0 0 1-1.939-1.94C1 15.589 1 12.002 1 12.002s0-3.57.453-5.292a2.76 2.76 0 0 1 1.94-1.94C5.112 4.316 12 4.316 12 4.316s6.886 0 8.608.453m-5.092 7.248-5.727 3.298V8.702z" clip-rule="evenodd"/></svg>