<svg xmlns="http://www.w3.org/2000/svg" width="16" height="16" fill="none" viewBox="0 0 16 16"><path fill="currentColor" fill-rule="evenodd" d="M8.48.255a.75.75 0 0 1 .896-.176.754.754 0 0 1 .403.82L8.89 5.317l5.484.909a.75.75 0 0 1 .584.487.76.76 0 0 1-.143.748l-7.292 8.285a.754.754 0 0 1-.896.177.75.75 0 0 1-.402-.82l.889-4.417-5.485-.91a.76.76 0 0 1-.584-.488.75.75 0 0 1 .144-.747zM3.207 8.518l4.917.814a.756.756 0 0 1 .612.888l-.489 2.432 4.548-5.168L7.88 6.67a.76.76 0 0 1-.495-.313.76.76 0 0 1-.118-.575l.49-2.431z" clip-rule="evenodd"/></svg>