<svg xmlns="http://www.w3.org/2000/svg" width="16" height="16" fill="none" viewBox="0 0 16 16"><path fill="currentColor" fill-rule="evenodd" d="M1.22 1.22a.75.75 0 011.06 0l12.5 12.5a.752.752 0 010 1.06.751.751 0 01-1.06 0l-2.845-2.845-3.354 3.81a.752.752 0 01-1.31-.57l.452-4.49-5.047-.912a.752.752 0 01-.43-1.233l2.947-3.347L1.22 2.28a.75.75 0 010-1.06zm1.97 7.314l4.422.799c.384.07.652.425.613.813l-.287 2.855 1.873-2.129-4.616-4.616L3.19 8.534zm7.195-2.21a.751.751 0 01.863-.618l3.125.519a.752.752 0 01.44 1.235l-1.216 1.38a.75.75 0 01-1.126-.991l.323-.366-1.792-.296a.752.752 0 01-.617-.864zM8.478.253a.751.751 0 011.3.644l-.718 3.56a.752.752 0 01-.882.588.751.751 0 01-.588-.884l.164-.813-.155.175a.75.75 0 01-1.126-.991L8.478.253z" clip-rule="evenodd"/></svg>