<svg width="24" height="24" viewBox="0 0 24 24" fill="none" xmlns="http://www.w3.org/2000/svg">
<g id="Size=24">
<path id="Vector (Stroke)" fill-rule="evenodd" clip-rule="evenodd" d="M9.00305 2.00001C9.32699 2.00132 9.61348 2.21048 9.71342 2.51862L14.9905 18.7896L17.2848 11.5242C17.3833 11.2121 17.6728 11 18 11H22C22.4142 11 22.75 11.3358 22.75 11.75C22.75 12.1642 22.4142 12.5 22 12.5H18.5497L15.7152 21.4758C15.617 21.7868 15.329 21.9987 15.0029 22C14.6768 22.0013 14.3872 21.7916 14.2866 21.4814L8.99024 5.15099L6.71151 11.9872C6.60943 12.2934 6.32282 12.5 6 12.5H2C1.58579 12.5 1.25 12.1642 1.25 11.75C1.25 11.3358 1.58579 11 2 11H5.45943L8.28849 2.51283C8.39093 2.20551 8.67911 1.99869 9.00305 2.00001Z" fill="black"/>
</g>
</svg>
