<svg viewBox="0 0 24 24" width="24" height="24" fill="currentColor" xmlns="http://www.w3.org/2000/svg">
 <g transform="translate(1, 2)">
  <path d="M11 0C10.528 0 10.0657 0.126833 9.65798 0.365926C9.25055 0.604878 8.9127 0.947019 8.67428 1.35646L0.36269 15.8102L0.356982 15.8205C0.123674 16.2414 0.00130627 16.7164 1.0401e-05 17.1985C-0.00128546 17.6806 0.118526 18.1562 0.34953 18.5784C0.580624 19.0007 0.915938 19.3564 1.3251 19.6072C1.73452 19.8582 2.20239 19.9945 2.68194 20L19.3095 20L19.3181 19.9999C19.7976 19.9945 20.2655 19.8582 20.6749 19.6072C21.0841 19.3564 21.4194 19.0007 21.6505 18.5784C21.8815 18.1562 22.0013 17.6806 22 17.1985C21.9987 16.7164 21.8764 16.2414 21.6431 15.8205L13.3278 1.35999L13.3257 1.35646C13.0873 0.947025 12.7495 0.604878 12.342 0.365926C11.9343 0.126833 11.472 0 11 0ZM10.25 6.75C10.25 6.33579 10.5858 6 11 6C11.4142 6 11.75 6.33579 11.75 6.75L11.75 11.25C11.75 11.6642 11.4142 12 11 12C10.5858 12 10.25 11.6642 10.25 11.25L10.25 6.75ZM10 15C10 14.4477 10.4477 14 11 14L11.01 14C11.5623 14 12.01 14.4477 12.01 15C12.01 15.5523 11.5623 16 11.01 16L11 16C10.4477 16 10 15.5523 10 15Z" fill-rule="EVENODD"></path>
 </g>
</svg>