<svg width="24" height="24" viewBox="0 0 24 24" fill="none" xmlns="http://www.w3.org/2000/svg">
<g id="Size=24, Style=Color">
<g id="Group">
<g id="Vector">
<path d="M15.2106 11.248H8.80532V12.688H15.2106V11.248Z" fill="#ED6B1E"/>
<path d="M18.4052 6H14.1723L15.1946 7.456L18.2934 8.4C18.8685 8.576 19.2359 9.12 19.2199 9.68V14.32C19.2199 14.896 18.8525 15.424 18.2934 15.6L15.2106 16.544L14.1723 18H18.4052C20.1783 18 21.5999 16.56 21.5999 14.8V9.2C21.6159 7.44 20.1783 6 18.4052 6Z" fill="#ED6B1E"/>
<path d="M5.59468 6H9.8276L8.80531 7.456L5.72247 8.4C5.14743 8.576 4.78004 9.12 4.79602 9.68V14.32C4.79602 14.896 5.1634 15.424 5.72247 15.6L8.80531 16.544L9.8276 18H5.59468C3.83762 18 2.40002 16.56 2.40002 14.8V9.2C2.40002 7.44 3.83762 6 5.59468 6Z" fill="#ED6B1E"/>
</g>
</g>
</g>
</svg>
