<svg width="16" height="16" viewBox="0 0 16 16" fill="none" xmlns="http://www.w3.org/2000/svg">
<g id="Size=16">
<g id="Union">
<path d="M1.75 3C1.33579 3 1 3.33579 1 3.75C1 4.16421 1.33579 4.5 1.75 4.5H14.25C14.6642 4.5 15 4.16421 15 3.75C15 3.33579 14.6642 3 14.25 3H1.75Z" fill="black"/>
<path d="M3.75 6C3.33579 6 3 6.33579 3 6.75C3 7.16421 3.33579 7.5 3.75 7.5H12.25C12.6642 7.5 13 7.16421 13 6.75C13 6.33579 12.6642 6 12.25 6H3.75Z" fill="black"/>
<path d="M1 9.75C1 9.33579 1.33579 9 1.75 9H14.25C14.6642 9 15 9.33579 15 9.75C15 10.1642 14.6642 10.5 14.25 10.5H1.75C1.33579 10.5 1 10.1642 1 9.75Z" fill="black"/>
<path d="M3.75 12C3.33579 12 3 12.3358 3 12.75C3 13.1642 3.33579 13.5 3.75 13.5H12.25C12.6642 13.5 13 13.1642 13 12.75C13 12.3358 12.6642 12 12.25 12H3.75Z" fill="black"/>
</g>
</g>
</svg>
