<svg width="16" height="16" viewBox="0 0 16 16" fill="none" xmlns="http://www.w3.org/2000/svg">
<g id="Size=16">
<g id="Union">
<path d="M1.75 3C1.33579 3 1 3.33579 1 3.75C1 4.16421 1.33579 4.5 1.75 4.5H14.25C14.6642 4.5 15 4.16421 15 3.75C15 3.33579 14.6642 3 14.25 3H1.75Z" fill="black"/>
<path d="M1.75 6C1.33579 6 1 6.33579 1 6.75C1 7.16421 1.33579 7.5 1.75 7.5H11.25C11.6642 7.5 12 7.16421 12 6.75C12 6.33579 11.6642 6 11.25 6H1.75Z" fill="black"/>
<path d="M1 9.75C1 9.33579 1.33579 9 1.75 9H14.25C14.6642 9 15 9.33579 15 9.75C15 10.1642 14.6642 10.5 14.25 10.5H1.75C1.33579 10.5 1 10.1642 1 9.75Z" fill="black"/>
<path d="M1.75 12C1.33579 12 1 12.3358 1 12.75C1 13.1642 1.33579 13.5 1.75 13.5H11.25C11.6642 13.5 12 13.1642 12 12.75C12 12.3358 11.6642 12 11.25 12H1.75Z" fill="black"/>
</g>
</g>
</svg>
