<svg width="16" height="16" viewBox="0 0 16 16" fill="none" xmlns="http://www.w3.org/2000/svg">
<g id="Size=16, Style=Color">
<g id="Group 205">
<path id="Vector" d="M10.1673 3.24239C10.6017 2.71917 10.9088 2.0016 10.9088 1.28404C10.9088 1.17939 10.9013 1.08222 10.8789 1C10.1748 1.0299 9.32841 1.4709 8.81908 2.06887C8.4221 2.51735 8.04759 3.24239 8.04759 3.95996C8.04759 4.07208 8.07006 4.17672 8.07755 4.2141C8.12249 4.22157 8.1974 4.22904 8.26481 4.22904C8.90147 4.22904 9.69543 3.81046 10.1673 3.24239ZM10.6617 4.38601C9.60554 4.38601 8.74418 5.02883 8.1974 5.02883C7.60567 5.02883 6.84168 4.42338 5.9129 4.42338C4.1677 4.42338 2.40002 5.86599 2.40002 8.57928C2.40002 10.276 3.05167 12.0699 3.8606 13.221C4.55719 14.1927 5.16389 15 6.04023 15C6.90909 15 7.29109 14.4245 8.36967 14.4245C9.46323 14.4245 9.70292 14.9851 10.6617 14.9851C11.6129 14.9851 12.2496 14.118 12.8413 13.2584C13.5154 12.2718 13.7925 11.315 13.8 11.2702C13.7476 11.2552 11.9275 10.5152 11.9275 8.43727C11.9275 6.64335 13.3581 5.83609 13.4405 5.77629C12.4967 4.42338 11.0586 4.38601 10.6617 4.38601Z" fill="black"/>
</g>
</g>
</svg>
