<svg width="24" height="24" viewBox="0 0 24 24" fill="none" xmlns="http://www.w3.org/2000/svg">
<g id="Size=24, Style=Color">
<g id="Group 206">
<path id="Vector" d="M15.0731 5.20342C15.6925 4.45595 16.1303 3.43086 16.1303 2.40577C16.1303 2.25627 16.1196 2.11746 16.0876 2C15.0838 2.04271 13.8772 2.67272 13.1511 3.52696C12.5852 4.16765 12.0513 5.20342 12.0513 6.22851C12.0513 6.38868 12.0833 6.53817 12.094 6.59156C12.158 6.60224 12.2648 6.61292 12.3609 6.61292C13.2686 6.61292 14.4004 6.01495 15.0731 5.20342ZM15.7779 6.83716C14.2723 6.83716 13.0443 7.75547 12.2648 7.75547C11.4212 7.75547 10.3321 6.89055 9.00801 6.89055C6.52002 6.89055 4 8.95142 4 12.8275C4 15.2515 4.92899 17.8142 6.08222 19.4586C7.07528 20.8468 7.9402 22 9.18954 22C10.4282 22 10.9728 21.1778 12.5104 21.1778C14.0694 21.1778 14.4111 21.9786 15.7779 21.9786C17.134 21.9786 18.0416 20.74 18.8852 19.512C19.8462 18.1025 20.2413 16.7357 20.252 16.6716C20.1773 16.6503 17.5825 15.5932 17.5825 12.6247C17.5825 10.0619 19.622 8.9087 19.7395 8.82328C18.394 6.89055 16.3438 6.83716 15.7779 6.83716Z" fill="black"/>
</g>
</g>
</svg>
