<svg width="24" height="24" viewBox="0 0 24 24" fill="none" xmlns="http://www.w3.org/2000/svg">
<g id="size=24">
<g id="Union">
<path d="M9.75 11C9.33579 11 9 11.3358 9 11.75C9 12.1642 9.33579 12.5 9.75 12.5H14.25C14.6642 12.5 15 12.1642 15 11.75C15 11.3358 14.6642 11 14.25 11H9.75Z" fill="black"/>
<path fill-rule="evenodd" clip-rule="evenodd" d="M1 4.25C1 3.00736 2.00736 2 3.25 2H20.75C21.9926 2 23 3.00736 23 4.25V5.75C23 6.5301 22.603 7.21748 22 7.62111V19.25C22 20.7688 20.7688 22 19.25 22H4.75C3.23122 22 2 20.7688 2 19.25V7.62111C1.39701 7.21748 1 6.5301 1 5.75V4.25ZM3.5 8H20.5V19.25C20.5 19.9404 19.9404 20.5 19.25 20.5H4.75C4.05964 20.5 3.5 19.9404 3.5 19.25V8ZM3.25 3.5C2.83579 3.5 2.5 3.83579 2.5 4.25V5.75C2.5 6.16421 2.83579 6.5 3.25 6.5H20.75C21.1642 6.5 21.5 6.16421 21.5 5.75V4.25C21.5 3.83579 21.1642 3.5 20.75 3.5H3.25Z" fill="black"/>
</g>
</g>
</svg>
