<svg width="16" height="16" viewBox="0 0 16 16" fill="none" xmlns="http://www.w3.org/2000/svg">
<g id="size=16">
<path id="Union" d="M3.05691 3.46291C3.09351 3.37445 3.14776 3.29158 3.21967 3.21967C3.36612 3.07322 3.55806 3 3.75 3H9.25C9.66421 3 10 3.33579 10 3.75C10 4.16421 9.66421 4.5 9.25 4.5H5.56066L12.7803 11.7197C13.0732 12.0126 13.0732 12.4874 12.7803 12.7803C12.4874 13.0732 12.0126 13.0732 11.7197 12.7803L4.5 5.56066V9.25C4.5 9.66421 4.16421 10 3.75 10C3.33579 10 3 9.66421 3 9.25V3.75C3 3.64831 3.02024 3.55134 3.05691 3.46291Z" fill="#000001"/>
</g>
</svg>
