<svg width="24" height="24" viewBox="0 0 24 24" fill="none" xmlns="http://www.w3.org/2000/svg">
<g id="Size=24">
<path id="Union" d="M18.7803 6.28033C19.0732 5.98744 19.0732 5.51256 18.7803 5.21967C18.4874 4.92678 18.0126 4.92678 17.7197 5.21967L6.5 16.4393V8.75C6.5 8.33579 6.16421 8 5.75 8C5.33579 8 5 8.33579 5 8.75V18.25C5 18.3517 5.02024 18.4487 5.05691 18.5371C5.09324 18.6249 5.14696 18.7072 5.21808 18.7787L5.21967 18.7803L5.22126 18.7819C5.2928 18.853 5.37511 18.9068 5.46291 18.9431C5.55134 18.9798 5.64831 19 5.75 19H15.25C15.6642 19 16 18.6642 16 18.25C16 17.8358 15.6642 17.5 15.25 17.5H7.56066L18.7803 6.28033Z" fill="black"/>
</g>
</svg>
