<svg width="16" height="16" viewBox="0 0 16 16" fill="none" xmlns="http://www.w3.org/2000/svg">
<g id="size=16">
<path id="Union" d="M8.5 2.75C8.5 2.33579 8.16421 2 7.75 2C7.33579 2 7 2.33579 7 2.75V11.3636L4.04526 8.23503C3.76085 7.9339 3.28617 7.92033 2.98503 8.20474C2.6839 8.48915 2.67033 8.96383 2.95474 9.26497L7.20336 13.7635C7.21006 13.7706 7.21689 13.7776 7.22386 13.7845C7.2254 13.786 7.22694 13.7875 7.22848 13.789C7.36076 13.917 7.54003 13.9968 7.73791 13.9999C7.74193 14 7.74596 14 7.75 14C7.75404 14 7.75807 14 7.76209 13.9999C7.9531 13.9969 8.12676 13.9225 8.25757 13.8022C8.27052 13.7902 8.2831 13.7778 8.29526 13.765L12.5453 9.26497C12.8297 8.96383 12.8161 8.48915 12.515 8.20474C12.2138 7.92033 11.7392 7.9339 11.4547 8.23503L8.5 11.3636V2.75Z" fill="black"/>
</g>
</svg>
