<svg width="16" height="16" viewBox="0 0 16 16" fill="none" xmlns="http://www.w3.org/2000/svg">
<g id="Size=16">
<path id="Union" d="M7.76497 4.04526C8.06611 3.76085 8.07967 3.28617 7.79526 2.98503C7.51085 2.6839 7.03617 2.67033 6.73503 2.95474L2.23675 7.20312C2.09102 7.33994 2 7.53434 2 7.75C2 7.96518 2.09062 8.15919 2.23577 8.29596L6.73503 12.5453C7.03617 12.8297 7.51085 12.8161 7.79526 12.515C8.07967 12.2138 8.06611 11.7392 7.76497 11.4547L4.63642 8.5H13.25C13.6642 8.5 14 8.16421 14 7.75C14 7.33579 13.6642 7 13.25 7H4.63642L7.76497 4.04526Z" fill="black"/>
</g>
</svg>
