<svg width="24" height="24" viewBox="0 0 24 24" fill="none" xmlns="http://www.w3.org/2000/svg">
<g id="size=24">
<path id="Union" d="M11.7713 5.03924C12.0691 4.75135 12.0771 4.27655 11.7892 3.97873C11.5014 3.68092 11.0265 3.67287 10.7287 3.96076L3.22873 11.2108C3.08255 11.3521 3 11.5467 3 11.75C3 11.9533 3.08255 12.1479 3.22873 12.2892L10.7287 19.5392C11.0265 19.8271 11.5014 19.8191 11.7892 19.5213C12.0771 19.2235 12.0691 18.7486 11.7713 18.4608L5.60496 12.5H20.25C20.6642 12.5 21 12.1642 21 11.75C21 11.3358 20.6642 11 20.25 11H5.60497L11.7713 5.03924Z" fill="#000001"/>
</g>
</svg>
