<svg width="24" height="24" viewBox="0 0 24 24" fill="none" xmlns="http://www.w3.org/2000/svg">
<g id="size=24">
<path id="Union" d="M5.21967 7.28033C4.92678 6.98744 4.92678 6.51256 5.21967 6.21967C5.51256 5.92678 5.98744 5.92678 6.28033 6.21967L17.5 17.4393V9.75C17.5 9.33579 17.8358 9 18.25 9C18.6642 9 19 9.33579 19 9.75V19.25C19 19.3517 18.9798 19.4487 18.9431 19.5371C18.9073 19.6235 18.8547 19.7047 18.7852 19.7754C18.782 19.7787 18.7787 19.782 18.7754 19.7852C18.7047 19.8547 18.6235 19.9073 18.5371 19.9431C18.4487 19.9798 18.3517 20 18.25 20H8.75C8.33579 20 8 19.6642 8 19.25C8 18.8358 8.33579 18.5 8.75 18.5H16.4393L5.21967 7.28033Z" fill="black"/>
</g>
</svg>
