<svg width="16" height="16" viewBox="0 0 16 16" fill="none" xmlns="http://www.w3.org/2000/svg">
<g id="Size=16">
<path id="Union" d="M8.23503 4.04526C7.93389 3.76085 7.92033 3.28617 8.20474 2.98503C8.48915 2.6839 8.96383 2.67033 9.26497 2.95474L13.765 7.20474C13.915 7.34642 14 7.54366 14 7.75C14 7.95635 13.915 8.15358 13.765 8.29526L9.26497 12.5453C8.96383 12.8297 8.48915 12.8161 8.20474 12.515C7.92033 12.2138 7.93389 11.7392 8.23503 11.4547L11.3636 8.5H2.75C2.33579 8.5 2 8.16421 2 7.75C2 7.33579 2.33579 7 2.75 7H11.3636L8.23503 4.04526Z" fill="black"/>
</g>
</svg>
