<svg width="24" height="24" viewBox="0 0 24 24" fill="none" xmlns="http://www.w3.org/2000/svg">
<g id="Size=24">
<path id="Union" d="M12.2287 5.03924C11.9309 4.75135 11.9229 4.27655 12.2108 3.97873C12.4986 3.68092 12.9735 3.67287 13.2713 3.96076L20.7713 11.2108C20.9175 11.3521 21 11.5467 21 11.75C21 11.9533 20.9175 12.1479 20.7713 12.2892L13.2713 19.5392C12.9735 19.8271 12.4986 19.8191 12.2108 19.5213C11.9229 19.2235 11.9309 18.7486 12.2287 18.4608L18.395 12.5H3.75C3.33579 12.5 3 12.1642 3 11.75C3 11.3358 3.33579 11 3.75 11H18.395L12.2287 5.03924Z" fill="black"/>
</g>
</svg>
