<svg width="24" height="24" viewBox="0 0 24 24" fill="none" xmlns="http://www.w3.org/2000/svg">
<g id="Size=24">
<g id="Union">
<path d="M12 6C12.4142 6 12.75 6.33579 12.75 6.75V15.3636L15.7047 12.235C15.9892 11.9339 16.4638 11.9203 16.765 12.2047C17.0661 12.4892 17.0797 12.9638 16.7953 13.265L12.5453 17.765C12.5404 17.7702 12.5354 17.7753 12.5303 17.7803C12.5134 17.7973 12.4956 17.8135 12.4771 17.8287C12.3503 17.9333 12.1886 17.9971 12.0121 17.9999C12.0081 18 12.004 18 12 18C11.996 18 11.9919 18 11.9879 17.9999C11.7772 17.9966 11.5875 17.9063 11.4533 17.7634L7.20474 13.265C6.92033 12.9638 6.9339 12.4892 7.23503 12.2047C7.53617 11.9203 8.01085 11.9339 8.29526 12.235L11.25 15.3636V6.75C11.25 6.33579 11.5858 6 12 6Z" fill="black"/>
<path fill-rule="evenodd" clip-rule="evenodd" d="M1 12C1 5.92487 5.92487 1 12 1C18.0751 1 23 5.92487 23 12C23 18.0751 18.0751 23 12 23C5.92487 23 1 18.0751 1 12ZM12 2.5C6.75329 2.5 2.5 6.75329 2.5 12C2.5 17.2467 6.75329 21.5 12 21.5C17.2467 21.5 21.5 17.2467 21.5 12C21.5 6.75329 17.2467 2.5 12 2.5Z" fill="black"/>
</g>
</g>
</svg>
