<svg width="24" height="24" viewBox="0 0 24 24" fill="none" xmlns="http://www.w3.org/2000/svg">
<g id="size=24">
<path id="Union" d="M6.5 15.25C6.5 15.6642 6.16421 16 5.75 16C5.33579 16 5 15.6642 5 15.25V5.75C5 5.5437 5.08329 5.35686 5.21808 5.22126L5.21967 5.21967L5.22126 5.21808C5.2928 5.14696 5.37511 5.09324 5.46291 5.05691C5.55134 5.02024 5.64831 5 5.75 5H15.25C15.6642 5 16 5.33579 16 5.75C16 6.16421 15.6642 6.5 15.25 6.5H7.56066L18.7803 17.7197C19.0732 18.0126 19.0732 18.4874 18.7803 18.7803C18.4874 19.0732 18.0126 19.0732 17.7197 18.7803L6.5 7.56066V15.25Z" fill="black"/>
</g>
</svg>
