<svg width="16" height="16" viewBox="0 0 16 16" fill="none" xmlns="http://www.w3.org/2000/svg">
<g id="size=16">
<path id="Union" d="M12.7803 4.28033C13.0732 3.98744 13.0732 3.51256 12.7803 3.21967C12.4874 2.92678 12.0126 2.92678 11.7197 3.21967L4.5 10.4393V6.75C4.5 6.33579 4.16421 6 3.75 6C3.33579 6 3 6.33579 3 6.75V12.25C3 12.3517 3.02024 12.4487 3.05691 12.5371C3.09351 12.6255 3.14776 12.7084 3.21967 12.7803C3.36612 12.9268 3.55806 13 3.75 13H9.25C9.66421 13 10 12.6642 10 12.25C10 11.8358 9.66421 11.5 9.25 11.5H5.56066L12.7803 4.28033Z" fill="black"/>
</g>
</svg>
