<svg width="16" height="16" viewBox="0 0 16 16" fill="none" xmlns="http://www.w3.org/2000/svg">
<g id="Size=16">
<g id="Union">
<path d="M4.69505 7.7545C4.97368 8.06099 5.44802 8.08358 5.75451 7.80495L7.25 6.44541V11.25C7.25 11.6642 7.58579 12 8 12C8.41421 12 8.75 11.6642 8.75 11.25V6.4454L10.2455 7.80495C10.552 8.08358 11.0263 8.06099 11.305 7.7545C11.5836 7.44801 11.561 6.97367 11.2545 6.69504L8.50451 4.19504C8.21844 3.93498 7.78157 3.93498 7.4955 4.19504L4.7455 6.69504C4.43901 6.97367 4.41642 7.44801 4.69505 7.7545Z" fill="black"/>
<path fill-rule="evenodd" clip-rule="evenodd" d="M0 8C0 3.58172 3.58172 0 8 0C12.4183 0 16 3.58172 16 8C16 12.4183 12.4183 16 8 16C3.58172 16 0 12.4183 0 8ZM8 1.5C4.41015 1.5 1.5 4.41015 1.5 8C1.5 11.5899 4.41015 14.5 8 14.5C11.5899 14.5 14.5 11.5899 14.5 8C14.5 4.41015 11.5899 1.5 8 1.5Z" fill="black"/>
</g>
</g>
</svg>
