<svg width="16" height="16" viewBox="0 0 16 16" fill="none" xmlns="http://www.w3.org/2000/svg">
<g id="Size=16">
<g id="Union">
<path fill-rule="evenodd" clip-rule="evenodd" d="M0 8C0 3.58172 3.58172 0 8 0C12.4183 0 16 3.58172 16 8C16 12.4183 12.4183 16 8 16C3.58172 16 0 12.4183 0 8ZM8 1.5C4.41015 1.5 1.5 4.41015 1.5 8C1.5 11.5899 4.41015 14.5 8 14.5C11.5899 14.5 14.5 11.5899 14.5 8C14.5 4.41015 11.5899 1.5 8 1.5Z" fill="black"/>
<path d="M5.75451 8.19505C5.44802 7.91642 4.97368 7.93901 4.69505 8.2455C4.41642 8.55199 4.43901 9.02633 4.7455 9.30496L7.4955 11.805C7.63853 11.935 7.81926 12 8 12C8.18074 12 8.36148 11.935 8.50451 11.805L11.2545 9.30496C11.561 9.02633 11.5836 8.55199 11.305 8.2455C11.0263 7.93901 10.552 7.91642 10.2455 8.19505L8.75 9.5546V4.75C8.75 4.33579 8.41421 4 8 4C7.58579 4 7.25 4.33579 7.25 4.75V9.55459L5.75451 8.19505Z" fill="black"/>
</g>
</g>
</svg>
