<svg width="24" height="24" viewBox="0 0 24 24" fill="none" xmlns="http://www.w3.org/2000/svg">
<g id="size=24">
<g id="Union">
<path d="M8.63642 11.25L11.765 8.29526C12.0661 8.01085 12.0797 7.53617 11.7953 7.23503C11.5109 6.9339 11.0362 6.92033 10.735 7.20474L6.23684 11.453C6.09106 11.5899 6 11.7843 6 12C6 12.1982 6.07692 12.3785 6.20254 12.5126C6.21158 12.5223 6.22087 12.5317 6.23041 12.5409" fill="black"/>
<path d="M6.23597 12.5461L10.735 16.7953C11.0362 17.0797 11.5109 17.0661 11.7953 16.765C12.0797 16.4638 12.0661 15.9892 11.765 15.7047L8.63642 12.75H17.25C17.6642 12.75 18 12.4142 18 12C18 11.5858 17.6642 11.25 17.25 11.25H8.63642" fill="black"/>
<path fill-rule="evenodd" clip-rule="evenodd" d="M1 12C1 5.92487 5.92487 1 12 1C18.0751 1 23 5.92487 23 12C23 18.0751 18.0751 23 12 23C5.92487 23 1 18.0751 1 12ZM12 2.5C6.75329 2.5 2.5 6.75329 2.5 12C2.5 17.2467 6.75329 21.5 12 21.5C17.2467 21.5 21.5 17.2467 21.5 12C21.5 6.75329 17.2467 2.5 12 2.5Z" fill="black"/>
</g>
</g>
</svg>
