<svg width="24" height="24" viewBox="0 0 24 24" fill="none" xmlns="http://www.w3.org/2000/svg">
<g id="Size=24">
<path id="Union" fill-rule="evenodd" clip-rule="evenodd" d="M14.4999 1.28784C12.0822 0.723624 9.54473 0.993863 7.30009 2.05462C5.05545 3.11538 3.23565 4.90427 2.13659 7.13041C1.03754 9.35655 0.723873 11.889 1.24659 14.316C1.76932 16.743 3.09768 18.9219 5.0157 20.4982C6.93372 22.0745 9.32858 22.9557 11.8109 22.9984C14.2932 23.0411 16.7169 22.2428 18.688 20.7333C19.0169 20.4815 19.0793 20.0107 18.8275 19.6819C18.5756 19.353 18.1049 19.2906 17.776 19.5424C16.0737 20.846 13.9805 21.5355 11.8367 21.4986C9.69287 21.4617 7.62458 20.7007 5.96811 19.3394C4.31164 17.978 3.16441 16.0963 2.71297 14.0002C2.26153 11.9042 2.53242 9.71702 3.4816 7.79445C4.43079 5.87187 6.00243 4.32692 7.94099 3.41081C9.87954 2.4947 12.071 2.26131 14.159 2.74859C16.247 3.23588 18.1088 4.41517 19.4416 6.09471C20.7744 7.77425 21.4999 9.8553 21.5 11.9994V13.0244C21.5 14.2819 20.5053 15.5 19.175 15.5C17.8875 15.5 17 14.3584 17 13.0244V7.75C17 7.33579 16.6642 7 16.25 7C15.8358 7 15.5 7.33579 15.5 7.75V8.42928C14.5981 7.54516 13.3627 7 12 7C9.23858 7 7 9.23858 7 12C7 14.7614 9.23858 17 12 17C13.6284 17 15.0749 16.2216 15.9878 15.0166C16.5684 16.1366 17.6541 17 19.175 17C21.4947 17 23 14.9396 23 13.0244V11.9993C22.9998 9.51664 22.1598 7.10704 20.6166 5.1623C19.0733 3.21756 16.9176 1.85206 14.4999 1.28784ZM15.5 12C15.5 10.067 13.933 8.5 12 8.5C10.067 8.5 8.5 10.067 8.5 12C8.5 13.933 10.067 15.5 12 15.5C13.933 15.5 15.5 13.933 15.5 12Z" fill="black"/>
</g>
</svg>
