<svg width="24" height="24" viewBox="0 0 24 24" fill="none" xmlns="http://www.w3.org/2000/svg">
<g id="size=24">
<g id="Union">
<path fill-rule="evenodd" clip-rule="evenodd" d="M11.2305 6.68428C10.0684 5.89812 8.5 6.73069 8.5 8.13377V15.8662C8.5 17.2693 10.0684 18.1018 11.2305 17.3157L16.9458 13.4495C17.9718 12.7555 17.9718 11.2445 16.9458 10.5505L11.2305 6.68428ZM10 8.13377C10 7.93333 10.2241 7.81439 10.3901 7.9267L16.1053 11.7929C16.2519 11.8921 16.2519 12.1079 16.1053 12.2071L10.3901 16.0733C10.2241 16.1856 10 16.0666 10 15.8662V8.13377Z" fill="black"/>
<path fill-rule="evenodd" clip-rule="evenodd" d="M11.3049 0C10.0622 0 9.05488 1.00736 9.05488 2.25V2.64535C8.50331 2.81884 7.97283 3.03972 7.46825 3.30315L7.18824 3.02314C6.30956 2.14446 4.88494 2.14446 4.00626 3.02314L3.02321 4.00619C2.14453 4.88487 2.14453 6.30949 3.02321 7.18817L3.30319 7.46815C3.03974 7.97277 2.81885 8.50328 2.64535 9.05488H2.25C1.00736 9.05488 0 10.0622 0 11.3049V12.6951C0 13.9378 1.00736 14.9451 2.25 14.9451H2.64535C2.81884 15.4967 3.03972 16.0272 3.30314 16.5318L3.02318 16.8117C2.1445 17.6904 2.1445 19.115 3.02318 19.9937L4.00623 20.9768C4.88491 21.8554 6.30953 21.8554 7.18821 20.9768L7.46815 20.6968C7.97277 20.9603 8.50328 21.1811 9.05488 21.3546V21.75C9.05488 22.9926 10.0622 24 11.3049 24H12.6951C13.9378 24 14.9451 22.9926 14.9451 21.75V21.3546C15.4967 21.1811 16.0272 20.9603 16.5318 20.6968L16.8118 20.9768C17.6905 21.8554 19.1151 21.8554 19.9938 20.9768L20.9768 19.9937C21.8555 19.115 21.8555 17.6904 20.9768 16.8117L20.6969 16.5318C20.9603 16.0272 21.1812 15.4967 21.3546 14.9451H21.75C22.9926 14.9451 24 13.9378 24 12.6951V11.3049C24 10.0622 22.9926 9.05488 21.75 9.05488H21.3546C21.1811 8.50328 20.9603 7.97277 20.6968 7.46815L20.9768 7.18817C21.8555 6.30949 21.8555 4.88487 20.9768 4.00619L19.9937 3.02314C19.1151 2.14446 17.6904 2.14446 16.8118 3.02314L16.5318 3.30315C16.0272 3.03972 15.4967 2.81884 14.9451 2.64535V2.25C14.9451 1.00736 13.9378 0 12.6951 0H11.3049ZM10.5549 2.25C10.5549 1.83579 10.8907 1.5 11.3049 1.5H12.6951C13.1093 1.5 13.4451 1.83579 13.4451 2.25V3.21302C13.4451 3.55743 13.6797 3.85758 14.0139 3.9408C14.8201 4.14155 15.5799 4.46023 16.274 4.87772C16.5691 5.05526 16.9473 5.00892 17.1909 4.76535L17.8724 4.0838C18.1653 3.7909 18.6402 3.7909 18.9331 4.0838L19.9161 5.06685C20.209 5.35974 20.209 5.83462 19.9161 6.12751L19.2346 6.80905C18.991 7.05262 18.9447 7.43078 19.1222 7.72596C19.5397 8.42007 19.8584 9.17987 20.0592 9.9861C20.1424 10.3203 20.4426 10.5549 20.787 10.5549H21.75C22.1642 10.5549 22.5 10.8907 22.5 11.3049V12.6951C22.5 13.1093 22.1642 13.4451 21.75 13.4451H20.787C20.4426 13.4451 20.1424 13.6797 20.0592 14.0139C19.8585 14.8201 19.5398 15.5799 19.1223 16.274C18.9447 16.5691 18.9911 16.9473 19.2346 17.1909L19.9162 17.8724C20.2091 18.1653 20.2091 18.6401 19.9162 18.933L18.9331 19.9161C18.6402 20.209 18.1653 20.209 17.8724 19.9161L17.191 19.2346C16.9474 18.991 16.5692 18.9447 16.274 19.1222C15.5799 19.5397 14.8201 19.8584 14.0139 20.0592C13.6797 20.1424 13.4451 20.4426 13.4451 20.787V21.75C13.4451 22.1642 13.1093 22.5 12.6951 22.5H11.3049C10.8907 22.5 10.5549 22.1642 10.5549 21.75V20.787C10.5549 20.4426 10.3203 20.1424 9.9861 20.0592C9.17987 19.8584 8.42007 19.5397 7.72596 19.1222C7.43078 18.9447 7.05262 18.991 6.80905 19.2346L6.12755 19.9161C5.83466 20.209 5.35978 20.209 5.06689 19.9161L4.08384 18.933C3.79095 18.6401 3.79095 18.1653 4.08384 17.8724L4.76535 17.1909C5.00892 16.9473 5.05526 16.5691 4.87772 16.274C4.46023 15.5799 4.14155 14.8201 3.9408 14.0139C3.85758 13.6797 3.55743 13.4451 3.21302 13.4451H2.25C1.83579 13.4451 1.5 13.1093 1.5 12.6951V11.3049C1.5 10.8907 1.83579 10.5549 2.25 10.5549H3.21302C3.55743 10.5549 3.85758 10.3203 3.9408 9.9861C4.14155 9.17987 4.46025 8.42007 4.87777 7.72596C5.05532 7.43078 5.00897 7.05262 4.7654 6.80904L4.08387 6.12751C3.79097 5.83462 3.79097 5.35974 4.08387 5.06685L5.06692 4.0838C5.35981 3.7909 5.83469 3.7909 6.12758 4.0838L6.80913 4.76535C7.0527 5.00892 7.43086 5.05526 7.72604 4.87772C8.42013 4.46023 9.1799 4.14155 9.9861 3.9408C10.3203 3.85758 10.5549 3.55743 10.5549 3.21302V2.25Z" fill="black"/>
</g>
</g>
</svg>
