<svg width="16" height="16" viewBox="0 0 16 16" fill="none" xmlns="http://www.w3.org/2000/svg">
<g id="size=16">
<path id="Union" fill-rule="evenodd" clip-rule="evenodd" d="M8 0C4.68629 0 2 2.68629 2 6C2 7.67125 2.6833 9.18291 3.78576 10.2709C3.77423 10.307 3.76529 10.3444 3.75919 10.383L3.00919 15.133C2.96798 15.394 3.06716 15.6575 3.27027 15.8265C3.47338 15.9955 3.75045 16.0452 3.99963 15.9572L8.00001 14.5453L12.0004 15.9572C12.2496 16.0452 12.5266 15.9955 12.7298 15.8265C12.9329 15.6575 13.032 15.394 12.9908 15.133L12.2408 10.383C12.2347 10.3444 12.2258 10.307 12.2143 10.2708C13.3167 9.1829 14 7.67124 14 6C14 2.68629 11.3137 0 8 0ZM3.5 6C3.5 3.51472 5.51472 1.5 8 1.5C10.4853 1.5 12.5 3.51472 12.5 6C12.5 8.48528 10.4853 10.5 8 10.5C5.51472 10.5 3.5 8.48528 3.5 6ZM10.863 11.2742C10.0121 11.737 9.03676 12 8 12C6.96325 12 5.98792 11.7371 5.13706 11.2742L4.68711 14.1239L7.7504 13.0427C7.91193 12.9857 8.0881 12.9857 8.24963 13.0427L11.3129 14.1239L10.863 11.2742Z" fill="#000001"/>
</g>
</svg>
