<svg width="16" height="16" viewBox="0 0 16 16" fill="none" xmlns="http://www.w3.org/2000/svg">
<g id="Size=16, Style=Color">
<g id="Group">
<g id="Vector">
<path d="M7.46932 12.4125C9.29369 12.0902 10.8005 11.8235 10.8178 11.8198L10.8493 11.8132L9.1269 9.76419C8.17959 8.63726 7.40452 7.71086 7.40452 7.70552C7.40452 7.69541 9.18303 2.79721 9.19303 2.77978C9.19637 2.77396 10.4067 4.8638 12.1269 7.8457C13.7375 10.6374 15.0653 12.9392 15.0776 12.9608L15.1 13L4.15228 12.9986L7.46932 12.4125Z" fill="#0089D6"/>
<path d="M0.900024 11.7877C0.900024 11.7848 1.7116 10.3758 2.70353 8.6566L4.50704 5.53073L6.60883 3.7667C7.76481 2.79649 8.71372 2.00149 8.71753 2.00004C8.72133 1.99859 8.70612 2.03687 8.68373 2.0851C8.66134 2.13334 7.63434 4.33642 6.40149 6.98084L4.15996 11.7889L2.52999 11.7909C1.63351 11.792 0.900024 11.7906 0.900024 11.7877Z" fill="#0089D6"/>
</g>
</g>
</g>
</svg>
