<svg width="24" height="24" viewBox="0 0 24 24" fill="none" xmlns="http://www.w3.org/2000/svg">
<g id="size=24">
<g id="Union">
<path d="M18 3C18.5523 3 19 3.44772 19 4V20C19 20.5523 18.5523 21 18 21C17.4477 21 17 20.5523 17 20V4C17 3.44772 17.4477 3 18 3Z" fill="black"/>
<path d="M12 9C12.5523 9 13 9.44772 13 10V20C13 20.5523 12.5523 21 12 21C11.4477 21 11 20.5523 11 20V10C11 9.44772 11.4477 9 12 9Z" fill="black"/>
<path d="M7 16C7 15.4477 6.55228 15 6 15C5.44772 15 5 15.4477 5 16V20C5 20.5523 5.44772 21 6 21C6.55228 21 7 20.5523 7 20V16Z" fill="black"/>
</g>
</g>
</svg>
