<svg width="24" height="24" viewBox="0 0 24 24" fill="none" xmlns="http://www.w3.org/2000/svg">
<g id="Size=24">
<g id="Union">
<path fill-rule="evenodd" clip-rule="evenodd" d="M3.75 5C2.23122 5 1 6.23122 1 7.75V16.25C1 17.7688 2.23122 19 3.75 19H18.25C19.7688 19 21 17.7688 21 16.25V7.75C21 6.23122 19.7688 5 18.25 5H3.75ZM2.5 7.75C2.5 7.05964 3.05964 6.5 3.75 6.5H18.25C18.9404 6.5 19.5 7.05964 19.5 7.75V16.25C19.5 16.9404 18.9404 17.5 18.25 17.5H3.75C3.05964 17.5 2.5 16.9404 2.5 16.25V7.75Z" fill="black"/>
<path d="M23.5 10.75C23.5 10.3358 23.1642 10 22.75 10C22.3358 10 22 10.3358 22 10.75V13.25C22 13.6642 22.3358 14 22.75 14C23.1642 14 23.5 13.6642 23.5 13.25V10.75Z" fill="black"/>
</g>
</g>
</svg>
