<svg width="16" height="16" viewBox="0 0 16 16" fill="none" xmlns="http://www.w3.org/2000/svg">
<g id="size=16">
<g id="Union">
<path d="M8 2.5C5.93769 2.5 4.5 4.27578 4.5 6.405V8.78C4.5 9.45732 4.3547 10.032 4.11282 10.5H11.8872C11.6453 10.032 11.5 9.45732 11.5 8.78V6.78125C11.5 6.36704 11.8358 6.03125 12.25 6.03125C12.6642 6.03125 13 6.36704 13 6.78125V8.78C13 10.1136 13.7883 10.5 14.25 10.5C14.6642 10.5 15 10.8358 15 11.25C15 11.6642 14.6642 12 14.25 12H1.75C1.33579 12 1 11.6642 1 11.25C1 10.8358 1.33579 10.5 1.75 10.5C2.2117 10.5 3 10.1136 3 8.78V6.405C3 3.66524 4.907 1 8 1C8.19928 1 8.39494 1.01137 8.5866 1.03365C8.99805 1.08148 9.29281 1.4538 9.24498 1.86524C9.19715 2.27668 8.82484 2.57145 8.4134 2.52362C8.27997 2.50811 8.14215 2.5 8 2.5Z" fill="#000001"/>
<path d="M14 3C14 4.10457 13.1046 5 12 5C10.8954 5 10 4.10457 10 3C10 1.89543 10.8954 1 12 1C13.1046 1 14 1.89543 14 3Z" fill="#000001"/>
<path d="M6.89755 12.8716C6.68857 12.514 6.22925 12.3935 5.87161 12.6024C5.51398 12.8114 5.39347 13.2708 5.60245 13.6284C6.082 14.4491 6.97736 15 8 15C9.02264 15 9.918 14.4491 10.3976 13.6284C10.6065 13.2708 10.486 12.8114 10.1284 12.6024C9.77075 12.3935 9.31143 12.514 9.10245 12.8716C8.88337 13.2465 8.47294 13.5 8 13.5C7.52706 13.5 7.11663 13.2465 6.89755 12.8716Z" fill="#000001"/>
</g>
</g>
</svg>
