<svg width="24" height="24" viewBox="0 0 24 24" fill="none" xmlns="http://www.w3.org/2000/svg">
<g id="Size=24">
<g id="Union">
<path d="M12 2.5C8.52444 2.5 5.5 5.49988 5.5 8.98333V14.15C5.5 15.0225 5.21088 15.8427 4.718 16.5H19.282C18.7891 15.8427 18.5 15.0225 18.5 14.15V8.98333C18.5 8.68765 18.4783 8.39553 18.4363 8.1084C18.3765 7.69854 18.6602 7.31774 19.0701 7.25788C19.4799 7.19801 19.8607 7.48173 19.9206 7.8916C19.9729 8.24949 20 8.61406 20 8.98333V14.15C20 15.4544 21.0189 16.5 22.25 16.5C22.6642 16.5 23 16.8358 23 17.25C23 17.6642 22.6642 18 22.25 18H1.75C1.33579 18 1 17.6642 1 17.25C1 16.8358 1.33579 16.5 1.75 16.5C2.98113 16.5 4 15.4544 4 14.15V8.98333C4 4.66511 7.70238 1 12 1C12.6984 1 13.3807 1.09692 14.033 1.27706C14.1527 1.3101 14.2713 1.34595 14.3889 1.3845C14.7825 1.51359 14.9969 1.9373 14.8678 2.33089C14.7387 2.72447 14.315 2.93889 13.9214 2.8098C13.8263 2.7786 13.7304 2.74962 13.6337 2.72294C13.1072 2.57755 12.5592 2.5 12 2.5Z" fill="black"/>
<path d="M21 3.5C21 4.88071 19.8807 6 18.5 6C17.1193 6 16 4.88071 16 3.5C16 2.11929 17.1193 1 18.5 1C19.8807 1 21 2.11929 21 3.5Z" fill="black"/>
<path d="M10.4206 20.4141C10.2351 20.0438 9.78453 19.8939 9.41417 20.0794C9.04381 20.2649 8.89396 20.7155 9.07945 21.0859C9.63145 22.188 10.7043 23 12 23C13.2958 23 14.3686 22.188 14.9206 21.0859C15.1061 20.7155 14.9563 20.2649 14.5859 20.0794C14.2156 19.8939 13.7649 20.0438 13.5795 20.4141C13.2332 21.1054 12.6272 21.5 12 21.5C11.3729 21.5 10.7669 21.1054 10.4206 20.4141Z" fill="black"/>
</g>
</g>
</svg>
