<svg width="24" height="24" viewBox="0 0 24 24" fill="none" xmlns="http://www.w3.org/2000/svg">
<g id="size=24">
<g id="Union">
<path d="M22.25 16.5C21.0189 16.5 20 15.4544 20 14.15V8.98333C20 8.68941 19.9828 8.39846 19.9494 8.11147C19.926 7.90978 19.8217 7.72623 19.6605 7.60275C19.4994 7.47927 19.295 7.42642 19.0942 7.45628C18.9007 7.48504 18.7023 7.5 18.5 7.5C16.2909 7.5 14.5 5.70914 14.5 3.5C14.5 3.07027 14.5675 2.65776 14.6919 2.27168C14.7538 2.07976 14.7357 1.87102 14.6419 1.69255C14.548 1.51408 14.3863 1.38092 14.1931 1.32311C13.4927 1.11351 12.7558 1 12 1C7.70238 1 4 4.66511 4 8.98333V14.15C4 15.4544 2.98113 16.5 1.75 16.5C1.33579 16.5 1 16.8358 1 17.25C1 17.6642 1.33579 18 1.75 18H22.25C22.6642 18 23 17.6642 23 17.25C23 16.8358 22.6642 16.5 22.25 16.5Z" fill="black"/>
<path d="M18.5 6C19.8807 6 21 4.88071 21 3.5C21 2.11929 19.8807 1 18.5 1C17.1193 1 16 2.11929 16 3.5C16 4.88071 17.1193 6 18.5 6Z" fill="black"/>
<path d="M10.4206 20.4141C10.2351 20.0438 9.78453 19.8939 9.41417 20.0794C9.04381 20.2649 8.89396 20.7155 9.07945 21.0859C9.63145 22.188 10.7043 23 12 23C13.2958 23 14.3686 22.188 14.9206 21.0859C15.1061 20.7155 14.9563 20.2649 14.5859 20.0794C14.2156 19.8939 13.7649 20.0438 13.5795 20.4141C13.2332 21.1054 12.6272 21.5 12 21.5C11.3729 21.5 10.7669 21.1054 10.4206 20.4141Z" fill="black"/>
</g>
</g>
</svg>
