<svg width="24" height="24" viewBox="0 0 24 24" fill="none" xmlns="http://www.w3.org/2000/svg">
<g id="Size=24">
<g id="Union">
<path fill-rule="evenodd" clip-rule="evenodd" d="M20 14.15C20 15.4544 21.0189 16.5 22.25 16.5C22.6642 16.5 23 16.8358 23 17.25C23 17.6642 22.6642 18 22.25 18H1.75C1.33579 18 1 17.6642 1 17.25C1 16.8358 1.33579 16.5 1.75 16.5C2.98113 16.5 4 15.4544 4 14.15V8.98333C4 4.66511 7.70238 1 12 1C16.2976 1 20 4.66511 20 8.98333V14.15ZM5.5 8.98333C5.5 5.49988 8.52444 2.5 12 2.5C15.4756 2.5 18.5 5.49988 18.5 8.98333V14.15C18.5 15.0225 18.7891 15.8427 19.282 16.5H4.718C5.21088 15.8427 5.5 15.0225 5.5 14.15V8.98333Z" fill="black"/>
<path d="M10.4206 20.4141C10.2351 20.0438 9.78453 19.8939 9.41417 20.0794C9.04381 20.2649 8.89396 20.7155 9.07945 21.0859C9.63145 22.188 10.7043 23 12 23C13.2958 23 14.3686 22.188 14.9206 21.0859C15.1061 20.7155 14.9563 20.2649 14.5859 20.0794C14.2156 19.8939 13.7649 20.0438 13.5795 20.4141C13.2332 21.1054 12.6272 21.5 12 21.5C11.3729 21.5 10.7669 21.1054 10.4206 20.4141Z" fill="black"/>
</g>
</g>
</svg>
