<svg width="16" height="16" viewBox="0 0 16 16" fill="none" xmlns="http://www.w3.org/2000/svg">
<g id="Size=16">
<path id="Rectangle 1676 (Stroke)" fill-rule="evenodd" clip-rule="evenodd" d="M2 3.25C2 2.00736 3.00736 1 4.25 1H11.75C12.9926 1 14 2.00736 14 3.25V14.0795C14 14.838 13.1887 15.3203 12.5224 14.9581L8.11941 12.5644C8.04495 12.5239 7.95505 12.5239 7.88059 12.5644L3.47763 14.9581C2.81129 15.3203 2 14.838 2 14.0795V3.25ZM4.25 2.5C3.83579 2.5 3.5 2.83579 3.5 3.25V13.2386L7.16415 11.2466C7.68536 10.9632 8.31464 10.9632 8.83585 11.2466L12.5 13.2386V3.25C12.5 2.83579 12.1642 2.5 11.75 2.5H4.25Z" fill="black"/>
</g>
</svg>
