<svg width="16" height="16" viewBox="0 0 16 16" fill="none" xmlns="http://www.w3.org/2000/svg">
<g id="Size=16">
<path id="Subtract (Stroke)" fill-rule="evenodd" clip-rule="evenodd" d="M2 3.25C2 2.00736 3.00736 1 4.25 1H11.75C12.9926 1 14 2.00736 14 3.25V14.0795C14 14.838 13.1887 15.3203 12.5224 14.9581L8.11941 12.5644C8.04495 12.5239 7.95505 12.5239 7.88059 12.5644L3.47763 14.9581C2.81129 15.3203 2 14.838 2 14.0795V3.25ZM5.75 6C5.33579 6 5 6.33579 5 6.75C5 7.16421 5.33579 7.5 5.75 7.5H9.75C10.1642 7.5 10.5 7.16421 10.5 6.75C10.5 6.33579 10.1642 6 9.75 6H5.75Z" fill="black"/>
</g>
</svg>
