<svg width="24" height="24" viewBox="0 0 24 24" fill="none" xmlns="http://www.w3.org/2000/svg">
<g id="size=24">
<g id="Union">
<path d="M8.75 10C8.33579 10 8 10.3358 8 10.75C8 11.1642 8.33579 11.5 8.75 11.5H14.75C15.1642 11.5 15.5 11.1642 15.5 10.75C15.5 10.3358 15.1642 10 14.75 10H8.75Z" fill="#000001"/>
<path fill-rule="evenodd" clip-rule="evenodd" d="M6.75 2C5.23122 2 4 3.23122 4 4.75V21.126C4 21.8385 4.72397 22.3224 5.38235 22.05L11.9044 19.3512C11.9656 19.3259 12.0344 19.3259 12.0956 19.3512L18.6176 22.05C19.276 22.3224 20 21.8385 20 21.126V4.75C20 3.23122 18.7688 2 17.25 2H6.75ZM5.5 4.75C5.5 4.05964 6.05964 3.5 6.75 3.5H17.25C17.9404 3.5 18.5 4.05964 18.5 4.75V20.378L12.6691 17.9652C12.2407 17.7879 11.7593 17.7879 11.3309 17.9652L5.5 20.378V4.75Z" fill="#000001"/>
</g>
</g>
</svg>
