<svg viewBox="0 0 24 24" width="24" height="24" fill="currentColor" xmlns="http://www.w3.org/2000/svg">
 <g transform="translate(3, 1)">
  <path d="M2.75 0C1.23122 0 0 1.23122 0 2.75L0 19.25C0 20.7688 1.23122 22 2.75 22L16.25 22C17.2165 22 18 21.2165 18 20.25L18 1.75C18 0.783502 17.2165 0 16.25 0L2.75 0ZM16.5 16.5L16.5 1.75C16.5 1.61193 16.3881 1.5 16.25 1.5L2.75 1.5C2.05964 1.5 1.5 2.05964 1.5 2.75L1.5 16.7999C1.87503 16.6081 2.29989 16.5 2.75 16.5L16.5 16.5ZM1.5 19.25C1.5 19.9404 2.05964 20.5 2.75 20.5L16.25 20.5C16.3881 20.5 16.5 20.3881 16.5 20.25L16.5 18L2.75 18C2.05964 18 1.5 18.5596 1.5 19.25Z" fill-rule="EVENODD"></path>
 </g>
</svg>