<svg width="24" height="24" viewBox="0 0 24 24" fill="none" xmlns="http://www.w3.org/2000/svg">
<g id="Size=24">
<path id="Union" fill-rule="evenodd" clip-rule="evenodd" d="M13.2057 0.753667C12.4447 0.382485 11.5553 0.382486 10.7943 0.753668L1.98276 5.052C1.38145 5.34532 1 5.95581 1 6.62484V16.5273C1 17.5593 1.57781 18.5045 2.49634 18.9749L10.7463 23.2006C11.5335 23.6037 12.4665 23.6037 13.2537 23.2006L21.5037 18.9749C22.4222 18.5045 23 17.5593 23 16.5273V6.62484C23 5.95581 22.6185 5.34532 22.0172 5.052L13.2057 0.753667ZM11.452 2.10182C11.7978 1.9331 12.2022 1.9331 12.548 2.10182L20.6572 6.05753L12.0001 10.1697L3.34283 6.0575L11.452 2.10182ZM2.5 7.31778V16.5273C2.5 16.9964 2.76264 17.426 3.18015 17.6399L11.25 21.7732V11.474L2.5 7.31778ZM12.75 21.7732L20.8198 17.6399C21.2374 17.426 21.5 16.9964 21.5 16.5273V7.31783L12.75 11.4741V21.7732Z" fill="black"/>
</g>
</svg>
