<svg viewBox="0 0 16 16" width="16" height="16" fill="currentColor" xmlns="http://www.w3.org/2000/svg">
 <g transform="translate(0, 1)">
  <path d="M5.75 0C4.7835 0 4 0.783502 4 1.75L4 3L2.25 3C1.00736 3 0 4.00736 0 5.25L0 11.75C0 12.9926 1.00736 14 2.25 14L13.75 14C14.9926 14 16 12.9926 16 11.75L16 5.25C16 4.00736 14.9926 3 13.75 3L12 3L12 1.75C12 0.783502 11.2165 0 10.25 0L5.75 0ZM12.5 12.5L13.75 12.5C14.1642 12.5 14.5 12.1642 14.5 11.75L14.5 5.25C14.5 4.83579 14.1642 4.5 13.75 4.5L12.5 4.5L12.5 12.5ZM11 4.5L11 12.5L5 12.5L5 4.5L11 4.5ZM3.5 12.5L3.5 4.5L2.25 4.5C1.83579 4.5 1.5 4.83579 1.5 5.25L1.5 11.75C1.5 12.1642 1.83579 12.5 2.25 12.5L3.5 12.5ZM10.5 3L10.5 1.75C10.5 1.61193 10.3881 1.5 10.25 1.5L5.75 1.5C5.61193 1.5 5.5 1.61193 5.5 1.75L5.5 3L10.5 3Z" fill-rule="EVENODD"></path>
 </g>
</svg>