<svg width="16" height="16" viewBox="0 0 16 16" fill="none" xmlns="http://www.w3.org/2000/svg">
<g id="size=16">
<path id="Union" fill-rule="evenodd" clip-rule="evenodd" d="M5.75 1C4.7835 1 4 1.7835 4 2.75V4H2.25C1.00736 4 0 5.00736 0 6.25V12.75C0 13.9926 1.00736 15 2.25 15H13.75C14.9926 15 16 13.9926 16 12.75V6.25C16 5.00736 14.9926 4 13.75 4H12V2.75C12 1.7835 11.2165 1 10.25 1H5.75ZM12.5 13.5H13.75C14.1642 13.5 14.5 13.1642 14.5 12.75V6.25C14.5 5.83579 14.1642 5.5 13.75 5.5H12.5V13.5ZM11 5.5V13.5H5V5.5H11ZM3.5 13.5V5.5H2.25C1.83579 5.5 1.5 5.83579 1.5 6.25V12.75C1.5 13.1642 1.83579 13.5 2.25 13.5H3.5ZM10.5 4V2.75C10.5 2.61193 10.3881 2.5 10.25 2.5H5.75C5.61193 2.5 5.5 2.61193 5.5 2.75V4H10.5Z" fill="#000001"/>
</g>
</svg>
