<svg width="16" height="16" viewBox="0 0 16 16" fill="none" xmlns="http://www.w3.org/2000/svg">
<g id="Size=16">
<path id="Union" fill-rule="evenodd" clip-rule="evenodd" d="M10.1364 0.802983C10.4293 0.51009 10.9042 0.51009 11.1971 0.802983C11.49 1.09588 11.49 1.57075 11.1971 1.86364L10.782 2.27876C11.5252 2.93235 12 3.8529 12 4.90909C12 5.01196 11.9953 5.11384 11.9862 5.21458C12.0804 5.23052 12.1589 5.24591 12.224 5.26014C12.6663 5.35679 13 5.73747 13 6.21129V6.59883L14.5714 5.97028C14.9559 5.81645 15.3924 6.00351 15.5463 6.3881C15.7001 6.77269 15.513 7.20916 15.1284 7.363L13 8.21438V9.34339L14.849 9.58993C15.2596 9.64467 15.5481 10.0219 15.4933 10.4325C15.4386 10.8431 15.0614 11.1315 14.6508 11.0768L12.9924 10.8556C12.958 11.4145 12.808 11.9376 12.566 12.4113L14.9299 13.2977C15.3177 13.4432 15.5142 13.8755 15.3688 14.2633C15.2234 14.6512 14.791 14.8477 14.4032 14.7022L11.7365 13.7022C11.694 13.6863 11.6537 13.6668 11.616 13.6444C10.6874 14.4913 9.38432 15 8 15C6.61568 15 5.31265 14.4913 4.38404 13.6444C4.34628 13.6668 4.30603 13.6863 4.26346 13.7022L1.5968 14.7022C1.20896 14.8477 0.776649 14.6512 0.631208 14.2633C0.485768 13.8755 0.682272 13.4432 1.07011 13.2977L3.43399 12.4113C3.19196 11.9376 3.04205 11.4145 3.00762 10.8556L1.34921 11.0768C0.938629 11.1315 0.56141 10.8431 0.506666 10.4325C0.451922 10.0219 0.740384 9.64467 1.15096 9.58993L3 9.34339V8.17444L0.971412 7.363C0.586825 7.20916 0.399763 6.77269 0.553598 6.3881C0.707433 6.00351 1.14391 5.81645 1.5285 5.97028L3 6.55889V6.21129C3 5.73747 3.33372 5.35679 3.77599 5.26014C3.84106 5.24591 3.91955 5.23052 4.01376 5.21458C4.00465 5.11384 4 5.01196 4 4.90909C4 3.8529 4.47475 2.93235 5.21804 2.27876L4.80292 1.86364C4.51003 1.57075 4.51003 1.09588 4.80292 0.802983C5.09582 0.51009 5.57069 0.51009 5.86358 0.802983L6.55784 1.49724C7.01011 1.33691 7.49789 1.25 8 1.25C8.50211 1.25 8.98989 1.33691 9.44216 1.49724L10.1364 0.802983ZM5.50623 5.06278C6.13255 5.02561 6.94615 5 8 5C9.05385 5 9.86745 5.02561 10.4938 5.06278C10.4979 5.01202 10.5 4.96077 10.5 4.90909C10.5 3.79265 9.46103 2.75 8 2.75C6.53897 2.75 5.5 3.79265 5.5 4.90909C5.5 4.96077 5.5021 5.01202 5.50623 5.06278ZM4.5 7.65169V6.65823C5.04285 6.58615 6.09269 6.5 8 6.5C9.90731 6.5 10.9571 6.58615 11.5 6.65823V9.98483C11.4998 9.99562 11.4998 10.0064 11.5 10.0171V10.6071C11.5 12.1005 10.0456 13.5 8 13.5C5.95437 13.5 4.5 12.1005 4.5 10.6071V10.0171C4.50023 10.0064 4.50023 9.99562 4.5 9.98483V7.68206C4.50021 7.67192 4.50021 7.66179 4.5 7.65169Z" fill="black"/>
</g>
</svg>
