<svg width="24" height="24" viewBox="0 0 24 24" fill="none" xmlns="http://www.w3.org/2000/svg">
<g id="Size=24">
<path id="Union" fill-rule="evenodd" clip-rule="evenodd" d="M17 1C17 0.585786 16.6642 0.25 16.25 0.25C15.8358 0.25 15.5 0.585786 15.5 1V2H8.5V1C8.5 0.585786 8.16421 0.25 7.75 0.25C7.33579 0.25 7 0.585786 7 1V2H4.75C3.23122 2 2 3.23122 2 4.75V19.25C2 20.7688 3.23122 22 4.75 22H19.25C20.7688 22 22 20.7688 22 19.25V4.75C22 3.23122 20.7688 2 19.25 2H17V1ZM20.5 8V4.75C20.5 4.05964 19.9404 3.5 19.25 3.5H17V5C17 5.41421 16.6642 5.75 16.25 5.75C15.8358 5.75 15.5 5.41421 15.5 5V3.5H8.5V5C8.5 5.41421 8.16421 5.75 7.75 5.75C7.33579 5.75 7 5.41421 7 5V3.5H4.75C4.05964 3.5 3.5 4.05964 3.5 4.75V8H20.5ZM3.5 9.5H20.5V19.25C20.5 19.9404 19.9404 20.5 19.25 20.5H4.75C4.05964 20.5 3.5 19.9404 3.5 19.25V9.5Z" fill="black"/>
</g>
</svg>
