<svg width="24" height="24" viewBox="0 0 24 24" fill="none" xmlns="http://www.w3.org/2000/svg">
<g id="Size=24">
<g id="Union">
<path d="M5 8C4.44772 8 4 8.44772 4 9C4 9.55229 4.44772 10 5 10H5.01C5.56228 10 6.01 9.55229 6.01 9C6.01 8.44772 5.56228 8 5.01 8H5Z" fill="black"/>
<path fill-rule="evenodd" clip-rule="evenodd" d="M2.28033 1.21967C1.98744 0.926777 1.51256 0.926777 1.21967 1.21967C0.926777 1.51256 0.926777 1.98744 1.21967 2.28033L3.83496 4.89562L3.6137 4.90659C2.1497 4.97924 1 6.18741 1 7.65321V19.25C1 20.7688 2.23122 22 3.75 22H20.9393L21.7197 22.7803C22.0126 23.0732 22.4874 23.0732 22.7803 22.7803C23.0732 22.4874 23.0732 22.0126 22.7803 21.7197L2.28033 1.21967ZM19.4393 20.5L15.505 16.5657C14.6034 17.4519 13.3656 18 12 18C9.23858 18 7 15.7614 7 13C7 11.6344 7.54803 10.3966 8.43428 9.49494L5.2658 6.32646L3.68805 6.40475C3.02259 6.43777 2.5 6.98694 2.5 7.65321V19.25C2.5 19.9404 3.05964 20.5 3.75 20.5H19.4393ZM9.49494 10.5556L14.4444 15.505C13.8129 16.1215 12.9508 16.5 12 16.5C10.067 16.5 8.5 14.933 8.5 13C8.5 12.0492 8.87852 11.1871 9.49494 10.5556Z" fill="black"/>
<path d="M9.09363 2C8.45323 2 7.86397 2.3498 7.55732 2.91201L7.1357 3.68498C6.93735 4.04861 7.07134 4.50419 7.43498 4.70254C7.79861 4.90089 8.25419 4.76689 8.45254 4.40326L8.87416 3.63029C8.91797 3.54997 9.00215 3.5 9.09363 3.5H14.9064C14.9979 3.5 15.082 3.54997 15.1258 3.63029L16.3416 5.85914C16.4669 6.08889 16.7029 6.2367 16.9643 6.24915L20.3095 6.40844C20.9759 6.44018 21.5 6.98979 21.5 7.65703V18.5C21.5 18.9142 21.8358 19.25 22.25 19.25C22.6642 19.25 23 18.9142 23 18.5V7.65703C23 6.1891 21.8471 4.97996 20.3808 4.91014L17.4566 4.77089L16.4427 2.91201C16.136 2.3498 15.5468 2 14.9064 2H9.09363Z" fill="black"/>
<path d="M12.3452 8.69762C12.4493 8.2967 12.8587 8.05608 13.2597 8.16018C15.0095 8.61452 16.3855 9.99049 16.8398 11.7403C16.9439 12.1412 16.7033 12.5506 16.3023 12.6547C15.9014 12.7588 15.492 12.5182 15.3879 12.1173C15.0704 10.8942 14.1058 9.9296 12.8827 9.61204C12.4818 9.50794 12.2411 9.09854 12.3452 8.69762Z" fill="black"/>
</g>
</g>
</svg>
