<svg viewBox="0 0 24 24" width="24" height="24" fill="currentColor" xmlns="http://www.w3.org/2000/svg">
 <g transform="translate(5.999998092651367, 3)">
  <path d="M6.54252 0.232143C6.401 0.0838826 6.20497 0 6 0C5.79504 0 5.59901 0.0838826 5.45749 0.232143L0.207486 5.73214C-0.0785181 6.03177 -0.0674775 6.50651 0.232146 6.79252C0.53177 7.07852 1.00652 7.06748 1.29252 6.76786L6 1.83621L10.7075 6.76786C10.9935 7.06748 11.4682 7.07852 11.7679 6.79252C12.0675 6.50651 12.0785 6.03177 11.7925 5.73214L6.54252 0.232143Z" fill-rule="NONZERO"></path>
  <path d="M5.45748 17.7679C5.59901 17.9161 5.79504 18 6 18C6.20496 18 6.401 17.9161 6.54252 17.7679L11.7925 12.2679C12.0785 11.9682 12.0675 11.4935 11.7679 11.2075C11.4682 10.9215 10.9935 10.9325 10.7075 11.2321L6 16.1638L1.29252 11.2321C1.00651 10.9325 0.531769 10.9215 0.232144 11.2075C-0.0674792 11.4935 -0.0785199 11.9682 0.207485 12.2679L5.45748 17.7679Z" fill-rule="NONZERO"></path>
 </g>
</svg>