<svg width="16" height="16" viewBox="0 0 16 16" fill="none" xmlns="http://www.w3.org/2000/svg">
<g id="size=16">
<g id="Union">
<path d="M8.5496 2.23966C8.4077 2.08684 8.20856 2 8.00001 2C7.79146 2 7.59232 2.08684 7.45042 2.23966L4.20042 5.73966C3.91856 6.04319 3.93614 6.51774 4.23967 6.79959C4.5432 7.08145 5.01775 7.06387 5.29961 6.76034L8.00001 3.85221L10.7004 6.76034C10.9823 7.06387 11.4568 7.08145 11.7603 6.79959C12.0639 6.51774 12.0815 6.04319 11.7996 5.73966L8.5496 2.23966Z" fill="black"/>
<path d="M7.45041 13.7603C7.59232 13.9132 7.79145 14 8 14C8.20855 14 8.40769 13.9132 8.5496 13.7603L11.7996 10.2603C12.0815 9.95681 12.0639 9.48226 11.7603 9.20041C11.4568 8.91855 10.9823 8.93613 10.7004 9.23966L8 12.1478L5.2996 9.23966C5.01775 8.93613 4.5432 8.91855 4.23966 9.20041C3.93613 9.48226 3.91856 9.95681 4.20041 10.2603L7.45041 13.7603Z" fill="black"/>
</g>
</g>
</svg>
