<svg width="24" height="24" viewBox="0 0 24 24" fill="none" xmlns="http://www.w3.org/2000/svg">
<g id="size=24">
<g id="Union">
<path d="M3.75 3C2.23122 3 1 4.23122 1 5.75V8C1 8.41421 1.33579 8.75 1.75 8.75C2.16421 8.75 2.5 8.41421 2.5 8V5.75C2.5 5.05964 3.05964 4.5 3.75 4.5H20.25C20.9404 4.5 21.5 5.05964 21.5 5.75V18.25C21.5 18.9404 20.9404 19.5 20.25 19.5H14C13.5858 19.5 13.25 19.8358 13.25 20.25C13.25 20.6642 13.5858 21 14 21H20.25C21.7688 21 23 19.7688 23 18.25V5.75C23 4.23122 21.7688 3 20.25 3H3.75Z" fill="black"/>
<path d="M1.83293 11.0046C1.42125 10.9588 1.05041 11.2554 1.00462 11.6671C0.958835 12.0788 1.25545 12.4496 1.66712 12.4954C3.66917 12.7181 5.53587 13.6154 6.96026 15.0398C8.38465 16.4642 9.28195 18.3309 9.50462 20.3329C9.55041 20.7446 9.92125 21.0412 10.3329 20.9954C10.7446 20.9496 11.0412 20.5788 10.9954 20.1671C10.7351 17.8266 9.68612 15.6443 8.02092 13.9791C6.35572 12.3139 4.17345 11.2649 1.83293 11.0046Z" fill="black"/>
<path d="M1.8999 15.3453C1.49404 15.2625 1.09793 15.5245 1.01515 15.9303C0.93238 16.3362 1.19429 16.7323 1.60015 16.8151C2.48339 16.9952 3.29415 17.4311 3.93155 18.0685C4.56895 18.7059 5.00483 19.5166 5.18496 20.3999C5.26774 20.8057 5.66385 21.0676 6.06971 20.9849C6.47557 20.9021 6.73748 20.506 6.65471 20.1001C6.41579 18.9286 5.83764 17.8533 4.99221 17.0078C4.14678 16.1624 3.0714 15.5842 1.8999 15.3453Z" fill="black"/>
</g>
</g>
</svg>
