<svg width="16" height="16" viewBox="0 0 16 16" fill="none" xmlns="http://www.w3.org/2000/svg">
<g id="size=16">
<g id="Union">
<path d="M3.25 2C2.00736 2 1 3.00736 1 4.25V5.48C1 5.89421 1.33579 6.23 1.75 6.23C2.16421 6.23 2.5 5.89421 2.5 5.48V4.25C2.5 3.83579 2.83579 3.5 3.25 3.5H12.75C13.1642 3.5 13.5 3.83579 13.5 4.25V11.75C13.5 12.1642 13.1642 12.5 12.75 12.5H9.72414C9.30993 12.5 8.97414 12.8358 8.97414 13.25C8.97414 13.6642 9.30993 14 9.72414 14H12.75C13.9926 14 15 12.9926 15 11.75V4.25C15 3.00736 13.9926 2 12.75 2H3.25Z" fill="black"/>
<path d="M1.83293 7.50454C1.42125 7.45875 1.05041 7.75536 1.00462 8.16704C0.958835 8.57872 1.25545 8.94956 1.66712 8.99535C2.77512 9.11858 3.8082 9.61517 4.5965 10.4035C5.3848 11.1918 5.88139 12.2249 6.00462 13.3328C6.05041 13.7445 6.42125 14.0411 6.83293 13.9953C7.24461 13.9496 7.54122 13.5787 7.49543 13.167C7.33455 11.7206 6.68626 10.3719 5.65716 9.34281C4.62805 8.3137 3.27939 7.66542 1.83293 7.50454Z" fill="black"/>
<path d="M1.8999 10.0622C1.49404 9.97947 1.09793 10.2414 1.01515 10.6472C0.93238 11.0531 1.19429 11.4492 1.60015 11.532C2.06035 11.6258 2.48279 11.853 2.8149 12.1851C3.14701 12.5172 3.37413 12.9396 3.46798 13.3998C3.55076 13.8057 3.94687 14.0676 4.35273 13.9848C4.75859 13.902 5.0205 13.5059 4.93773 13.1001C4.78508 12.3516 4.41571 11.6645 3.87556 11.1244C3.33542 10.5843 2.64837 10.2149 1.8999 10.0622Z" fill="black"/>
</g>
</g>
</svg>
