<svg width="24" height="24" viewBox="0 0 24 24" fill="none" xmlns="http://www.w3.org/2000/svg">
<g id="size=24">
<g id="Union">
<path d="M7.07131 12.4859C7.12666 12.4208 7.18691 12.343 7.25311 12.2575C7.53689 11.8911 7.93018 11.3833 8.5169 11.1291C8.83212 10.9926 9.19434 10.9423 9.63428 11.088C10.0938 11.2401 10.6979 11.6265 11.4287 12.4859C12.2693 13.4743 13.0893 14.0695 13.8943 14.336C14.7189 14.609 15.4616 14.5149 16.0794 14.2472C17.0908 13.8091 17.794 12.8587 18.0116 12.5646C18.0398 12.5265 18.0598 12.4994 18.0713 12.4859C18.3397 12.1703 18.3014 11.697 17.9859 11.4286C17.6704 11.1603 17.197 11.1985 16.9287 11.5141C16.8734 11.5791 16.8131 11.6569 16.747 11.7423C16.4632 12.1088 16.0699 12.6166 15.4831 12.8708C15.1679 13.0074 14.8057 13.0576 14.3658 12.912C13.9063 12.7599 13.3022 12.3734 12.5713 11.5141C11.7307 10.5257 10.9107 9.93049 10.1057 9.66397C9.28114 9.391 8.53845 9.4851 7.92063 9.75275C6.90924 10.1909 6.20607 11.1412 5.98847 11.4353C5.96027 11.4734 5.94022 11.5005 5.92871 11.5141C5.66035 11.8296 5.69858 12.3029 6.0141 12.5713C6.32962 12.8396 6.80295 12.8014 7.07131 12.4859Z" fill="black"/>
<path fill-rule="evenodd" clip-rule="evenodd" d="M12 1C5.92487 1 1 5.92487 1 12C1 18.0751 5.92487 23 12 23C18.0751 23 23 18.0751 23 12C23 5.92487 18.0751 1 12 1ZM2.5 12C2.5 6.75329 6.75329 2.5 12 2.5C17.2467 2.5 21.5 6.75329 21.5 12C21.5 17.2467 17.2467 21.5 12 21.5C6.75329 21.5 2.5 17.2467 2.5 12Z" fill="black"/>
</g>
</g>
</svg>
