<svg viewBox="0 0 16 16" width="16" height="16" fill="currentColor" xmlns="http://www.w3.org/2000/svg">
 <g transform="translate(3.25, 5.999932289123535)">
  <path d="M6.47149 2.45264C6.20043 2.3663 5.81275 2.12909 5.3361 1.5321C4.74132 0.787152 4.12454 0.322333 3.48376 0.118234C2.82752 -0.0907906 2.22987 0.000352085 1.74139 0.212519C1.26859 0.417875 0.899454 0.734518 0.64638 0.989917C0.517242 1.12024 0.411428 1.24179 0.333301 1.33409C0.315822 1.35474 0.285684 1.39071 0.263944 1.41666C0.252314 1.43054 0.243088 1.44155 0.239488 1.44582C0.222879 1.46549 0.214641 1.4748 0.214641 1.4748C-0.0724898 1.7673 -0.0717269 2.23718 0.218031 2.52874C0.510016 2.82254 0.984888 2.82401 1.27869 2.53202C1.32848 2.48253 1.4 2.39681 1.44815 2.3391C1.45974 2.32521 1.46997 2.31294 1.47822 2.30319C1.54421 2.22523 1.62171 2.13671 1.71188 2.04572C1.89742 1.85847 2.11088 1.68742 2.33897 1.58835C2.55138 1.49609 2.77293 1.46608 3.02852 1.54748C3.29957 1.63382 3.68725 1.87102 4.1639 2.46801C4.75868 3.21295 5.37546 3.67778 6.01623 3.88189C6.67246 4.09092 7.27011 3.9998 7.7586 3.78764C8.2314 3.58229 8.60054 3.26565 8.85363 3.01023C8.98277 2.8799 9.08859 2.75835 9.16672 2.66603C9.18443 2.6451 9.21414 2.60963 9.23576 2.58382C9.24745 2.56987 9.25677 2.55874 9.26056 2.55426C9.27722 2.53452 9.28545 2.52522 9.28545 2.52522C9.57255 2.23265 9.57168 1.76273 9.28184 1.47123C8.98978 1.17751 8.51491 1.17616 8.22118 1.46822C8.17147 1.51764 8.10003 1.60329 8.05189 1.661C8.04028 1.67492 8.03002 1.68721 8.02175 1.69698C7.95578 1.77494 7.87828 1.86345 7.78811 1.95445C7.60258 2.14169 7.38913 2.31274 7.16104 2.4118C6.94864 2.50405 6.72709 2.53406 6.47149 2.45264Z" fill-rule="EVENODD"></path>
 </g>
</svg>