<svg width="16" height="16" viewBox="0 0 16 16" fill="none" xmlns="http://www.w3.org/2000/svg">
<g id="size=16">
<path id="Union" fill-rule="evenodd" clip-rule="evenodd" d="M3.25 1C2.00736 1 1 2.00736 1 3.25V12.75C1 13.9926 2.00736 15 3.25 15H12.75C13.9926 15 15 13.9926 15 12.75V3.25C15 2.00736 13.9926 1 12.75 1H3.25ZM10.7197 5.21967C11.0126 4.92678 11.4874 4.92678 11.7803 5.21967C12.0732 5.51256 12.0732 5.98744 11.7803 6.28033L7.28033 10.7803C6.98744 11.0732 6.51256 11.0732 6.21967 10.7803L4.21967 8.78033C3.92678 8.48744 3.92678 8.01256 4.21967 7.71967C4.51256 7.42678 4.98744 7.42678 5.28033 7.71967L6.75 9.18934L10.7197 5.21967Z" fill="#000001"/>
</g>
</svg>
