<svg width="16" height="16" viewBox="0 0 16 16" fill="none" xmlns="http://www.w3.org/2000/svg">
<g id="Size=16">
<path id="Union" fill-rule="evenodd" clip-rule="evenodd" d="M9.56913 0.752411C8.69045 -0.126285 7.26581 -0.126293 6.38713 0.752394L0.730298 6.40923C-0.148388 7.28791 -0.148379 8.71255 0.730316 9.59122L6.38715 15.2479C7.26583 16.1266 8.69044 16.1266 9.56911 15.2479L15.2258 9.59121C16.1045 8.71253 16.1045 7.28793 15.2258 6.40924L9.56913 0.752411ZM11.2803 6.78033L7.28027 10.7803C6.98738 11.0732 6.5125 11.0732 6.21961 10.7803L4.21961 8.78033C3.92672 8.48744 3.92672 8.01256 4.21961 7.71967C4.5125 7.42678 4.98738 7.42678 5.28027 7.71967L6.74994 9.18934L10.2196 5.71967C10.5125 5.42678 10.9874 5.42678 11.2803 5.71967C11.5732 6.01256 11.5732 6.48744 11.2803 6.78033Z" fill="black"/>
</g>
</svg>
