<svg width="24" height="24" viewBox="0 0 24 24" fill="none" xmlns="http://www.w3.org/2000/svg">
<g id="size=24">
<path id="Union" fill-rule="evenodd" clip-rule="evenodd" d="M13.9446 1.88421C12.8707 0.810251 11.1294 0.810241 10.0555 1.88419L1.88382 10.0559C0.809874 11.1298 0.809886 12.871 1.88385 13.945L10.0555 22.1164C11.1295 23.1904 12.8706 23.1904 13.9446 22.1164L22.1161 13.9449C23.19 12.871 23.19 11.1298 22.1161 10.0559L13.9446 1.88421ZM16.2804 9.78033L10.7804 15.2803C10.4875 15.5732 10.0126 15.5732 9.71973 15.2803L7.21973 12.7803C6.92684 12.4874 6.92684 12.0126 7.21973 11.7197C7.51262 11.4268 7.9875 11.4268 8.28039 11.7197L10.2501 13.6893L15.2197 8.71967C15.5126 8.42678 15.9875 8.42678 16.2804 8.71967C16.5733 9.01256 16.5733 9.48744 16.2804 9.78033Z" fill="black"/>
</g>
</svg>
