<svg width="24" height="24" viewBox="0 0 24 24" fill="none" xmlns="http://www.w3.org/2000/svg">
<g id="Size=24">
<path id="Union" fill-rule="evenodd" clip-rule="evenodd" d="M13.4413 1.00633C12.5574 0.462409 11.4426 0.462408 10.5587 1.00633L2.80873 5.77556C1.99543 6.27605 1.5 7.16265 1.5 8.11762V15.8824C1.5 16.8374 1.99543 17.724 2.80873 18.2245L10.5587 22.9937C11.4426 23.5376 12.5574 23.5376 13.4413 22.9937L21.1913 18.2245C22.0046 17.724 22.5 16.8374 22.5 15.8824V8.11762C22.5 7.16265 22.0046 6.27605 21.1913 5.77556L13.4413 1.00633ZM16.2804 9.78034L10.7804 15.2803C10.4875 15.5732 10.0126 15.5732 9.71973 15.2803L7.21973 12.7803C6.92684 12.4874 6.92684 12.0126 7.21973 11.7197C7.51262 11.4268 7.9875 11.4268 8.28039 11.7197L10.2501 13.6893L15.2197 8.71968C15.5126 8.42679 15.9875 8.42679 16.2804 8.71968C16.5733 9.01257 16.5733 9.48745 16.2804 9.78034Z" fill="black"/>
</g>
</svg>
