<svg width="16" height="16" viewBox="0 0 16 16" fill="none" xmlns="http://www.w3.org/2000/svg">
<g id="size=16">
<g id="Union">
<path d="M11.2804 5.71964C11.5732 6.01253 11.5732 6.48741 11.2804 6.7803L7.28035 10.7803C6.98746 11.0732 6.51259 11.0732 6.21969 10.7803L4.21969 8.7803C3.9268 8.48741 3.9268 8.01253 4.21969 7.71964C4.51259 7.42675 4.98746 7.42675 5.28035 7.71964L6.75002 9.18931L10.2197 5.71964C10.5126 5.42675 10.9875 5.42675 11.2804 5.71964Z" fill="#000001"/>
<path fill-rule="evenodd" clip-rule="evenodd" d="M0.750318 6.40935L6.40715 0.752516C7.28583 -0.126171 8.71047 -0.126163 9.58914 0.752533L15.2459 6.40937C16.1245 7.28805 16.1245 8.71266 15.2458 9.59133L9.58913 15.248C8.71046 16.1267 7.28585 16.1267 6.40717 15.2481L0.750336 9.59135C-0.12836 8.71267 -0.128368 7.28804 0.750318 6.40935ZM7.46781 1.81318L1.81098 7.47001C1.51808 7.7629 1.51809 8.23778 1.81098 8.53068L7.46782 14.1874C7.76071 14.4803 8.23558 14.4803 8.52847 14.1874L14.1852 8.53067C14.4781 8.23778 14.4781 7.76291 14.1852 7.47002L8.52847 1.81318C8.23558 1.52028 7.7607 1.52028 7.46781 1.81318Z" fill="#000001"/>
</g>
</g>
</svg>
