<svg width="16" height="16" viewBox="0 0 16 16" fill="none" xmlns="http://www.w3.org/2000/svg">
<g id="size=16">
<path id="Union" fill-rule="evenodd" clip-rule="evenodd" d="M8 0C3.58172 0 0 3.58172 0 8C0 12.4183 3.58172 16 8 16C12.4183 16 16 12.4183 16 8C16 3.58172 12.4183 0 8 0ZM10.7197 5.21967C11.0126 4.92678 11.4874 4.92678 11.7803 5.21967C12.0732 5.51256 12.0732 5.98744 11.7803 6.28033L7.28033 10.7803C6.98744 11.0732 6.51256 11.0732 6.21967 10.7803L4.21967 8.78033C3.92678 8.48744 3.92678 8.01256 4.21967 7.71967C4.51256 7.42678 4.98744 7.42678 5.28033 7.71967L6.75 9.18934L10.7197 5.21967Z" fill="#000001"/>
</g>
</svg>
