<svg width="24" height="24" viewBox="0 0 24 24" fill="none" xmlns="http://www.w3.org/2000/svg">
<g id="size=24">
<path id="Union" fill-rule="evenodd" clip-rule="evenodd" d="M12 1C5.92487 1 1 5.92487 1 12C1 18.0751 5.92487 23 12 23C18.0751 23 23 18.0751 23 12C23 5.92487 18.0751 1 12 1ZM16.7197 8.21967C17.0126 7.92678 17.4874 7.92678 17.7803 8.21967C18.0732 8.51256 18.0732 8.98744 17.7803 9.28033L10.2803 16.7803C9.98744 17.0732 9.51256 17.0732 9.21967 16.7803L6.21967 13.7803C5.92678 13.4874 5.92678 13.0126 6.21967 12.7197C6.51256 12.4268 6.98744 12.4268 7.28033 12.7197L9.75 15.1893L16.7197 8.21967Z" fill="black"/>
</g>
</svg>
