<svg width="16" height="16" viewBox="0 0 16 16" fill="none" xmlns="http://www.w3.org/2000/svg">
<g id="Size=16">
<g id="Union">
<path d="M11.7803 5.21967C12.0732 5.51256 12.0732 5.98744 11.7803 6.28033L7.28033 10.7803C6.98744 11.0732 6.51256 11.0732 6.21967 10.7803L4.21967 8.78033C3.92678 8.48744 3.92678 8.01256 4.21967 7.71967C4.51256 7.42678 4.98744 7.42678 5.28033 7.71967L6.75 9.18934L10.7197 5.21967C11.0126 4.92678 11.4874 4.92678 11.7803 5.21967Z" fill="black"/>
<path fill-rule="evenodd" clip-rule="evenodd" d="M0 8C0 3.58172 3.58172 0 8 0C12.4183 0 16 3.58172 16 8C16 12.4183 12.4183 16 8 16C3.58172 16 0 12.4183 0 8ZM8 1.5C4.41015 1.5 1.5 4.41015 1.5 8C1.5 11.5899 4.41015 14.5 8 14.5C11.5899 14.5 14.5 11.5899 14.5 8C14.5 4.41015 11.5899 1.5 8 1.5Z" fill="black"/>
</g>
</g>
</svg>
