<svg width="16" height="16" viewBox="0 0 16 16" fill="none" xmlns="http://www.w3.org/2000/svg">
<g id="size=16">
<g id="Union">
<path d="M3.23966 5.2996C2.93613 5.01775 2.91856 4.5432 3.20041 4.23966C3.48226 3.93613 3.95681 3.91856 4.26034 4.20041L7.76034 7.45041C7.91317 7.59232 8 7.79145 8 8C8 8.20855 7.91317 8.40769 7.76034 8.5496L4.26034 11.7996C3.95681 12.0815 3.48226 12.0639 3.20041 11.7603C2.91856 11.4568 2.93613 10.9823 3.23967 10.7004L6.14779 8L3.23966 5.2996Z" fill="black"/>
<path d="M8.23967 5.2996C7.93613 5.01775 7.91856 4.5432 8.20041 4.23966C8.48226 3.93613 8.95681 3.91856 9.26034 4.20041L12.7603 7.45041C12.9132 7.59232 13 7.79145 13 8C13 8.20855 12.9132 8.40769 12.7603 8.5496L9.26034 11.7996C8.95681 12.0815 8.48226 12.0639 8.20041 11.7603C7.91856 11.4568 7.93613 10.9823 8.23967 10.7004L11.1478 8L8.23967 5.2996Z" fill="black"/>
</g>
</g>
</svg>
