<svg width="16" height="16" viewBox="0 0 16 16" fill="none" xmlns="http://www.w3.org/2000/svg">
<g id="size=16">
<g id="Union">
<path d="M5.2996 3.23966C5.01775 2.93613 4.5432 2.91856 4.23966 3.20041C3.93613 3.48226 3.91856 3.95681 4.20041 4.26034L7.45041 7.76034C7.59232 7.91317 7.79145 8 8 8C8.20855 8 8.40769 7.91317 8.5496 7.76034L11.7996 4.26034C12.0815 3.95681 12.0639 3.48226 11.7603 3.20041C11.4568 2.91856 10.9823 2.93613 10.7004 3.23966L8 6.14779L5.2996 3.23966Z" fill="#000001"/>
<path d="M5.2996 8.23967C5.01775 7.93613 4.5432 7.91856 4.23966 8.20041C3.93613 8.48226 3.91856 8.95681 4.20041 9.26034L7.45041 12.7603C7.59232 12.9132 7.79145 13 8 13C8.20855 13 8.40769 12.9132 8.5496 12.7603L11.7996 9.26034C12.0815 8.95681 12.0639 8.48226 11.7603 8.20041C11.4568 7.91856 10.9823 7.93613 10.7004 8.23967L8 11.1478L5.2996 8.23967Z" fill="#000001"/>
</g>
</g>
</svg>
