<svg width="16" height="16" viewBox="0 0 16 16" fill="none" xmlns="http://www.w3.org/2000/svg">
<g id="size=16">
<g id="Union">
<path d="M7.76034 5.2996C8.06387 5.01775 8.08145 4.5432 7.7996 4.23966C7.51774 3.93613 7.0432 3.91856 6.73966 4.20041L3.23966 7.45041C3.08684 7.59232 3 7.79145 3 8C3 8.20855 3.08684 8.40769 3.23966 8.5496L6.73966 11.7996C7.04319 12.0815 7.51774 12.0639 7.7996 11.7603C8.08145 11.4568 8.06387 10.9823 7.76034 10.7004L4.85221 8L7.76034 5.2996Z" fill="black"/>
<path d="M12.7603 5.2996C13.0639 5.01775 13.0814 4.5432 12.7996 4.23966C12.5177 3.93613 12.0432 3.91856 11.7397 4.20041L8.23966 7.45041C8.08684 7.59232 8 7.79145 8 8C8 8.20855 8.08684 8.40769 8.23966 8.5496L11.7397 11.7996C12.0432 12.0815 12.5177 12.0639 12.7996 11.7603C13.0814 11.4568 13.0639 10.9823 12.7603 10.7004L9.85221 8L12.7603 5.2996Z" fill="black"/>
</g>
</g>
</svg>
