<svg width="16" height="16" viewBox="0 0 16 16" fill="none" xmlns="http://www.w3.org/2000/svg">
<g id="size=16">
<path id="Union" fill-rule="evenodd" clip-rule="evenodd" d="M11.975 1H12.75C13.9926 1 15 2.00736 15 3.25V13.75C15 14.9926 13.9926 16 12.75 16H3.25C2.00736 16 1 14.9926 1 13.75V3.25C1 2.00736 2.00736 1 3.25 1H4.025C4.14082 0.42944 4.64526 0 5.25 0H10.75C11.3547 0 11.8592 0.42944 11.975 1ZM5.5 2.5V1.5H10.5V2.5H5.5ZM11.7803 6.21967C12.0732 6.51256 12.0732 6.98744 11.7803 7.28033L7.28033 11.7803C6.98744 12.0732 6.51256 12.0732 6.21967 11.7803L4.21967 9.78033C3.92678 9.48744 3.92678 9.01256 4.21967 8.71967C4.51256 8.42678 4.98744 8.42678 5.28033 8.71967L6.75 10.1893L10.7197 6.21967C11.0126 5.92678 11.4874 5.92678 11.7803 6.21967Z" fill="black"/>
</g>
</svg>
