<svg viewBox="0 0 24 24" width="24" height="24" fill="currentColor" xmlns="http://www.w3.org/2000/svg">
 <g transform="translate(3, 1)">
  <path d="M5.75 0C4.7835 0 4 0.783502 4 1.75L4 2L2.75 2C1.23122 2 0 3.23122 0 4.75L0 19.25C0 20.7688 1.23122 22 2.75 22L15.25 22C16.7688 22 18 20.7688 18 19.25L18 4.75C18 3.23122 16.7688 2 15.25 2L14 2L14 1.75C14 0.783502 13.2165 0 12.25 0L5.75 0ZM13.9823 3.5C13.861 4.34807 13.1316 5 12.25 5L5.75 5C4.86838 5 4.13903 4.34807 4.01772 3.5L2.75 3.5C2.05964 3.5 1.5 4.05964 1.5 4.75L1.5 19.25C1.5 19.9404 2.05964 20.5 2.75 20.5L15.25 20.5C15.9404 20.5 16.5 19.9404 16.5 19.25L16.5 4.75C16.5 4.05964 15.9404 3.5 15.25 3.5L13.9823 3.5ZM5.5 1.75C5.5 1.61193 5.61193 1.5 5.75 1.5L12.25 1.5C12.3881 1.5 12.5 1.61193 12.5 1.75L12.5 3.25C12.5 3.38807 12.3881 3.5 12.25 3.5L5.75 3.5C5.61193 3.5 5.5 3.38807 5.5 3.25L5.5 1.75Z" fill-rule="EVENODD"></path>
 </g>
</svg>