<svg width="24" height="24" viewBox="0 0 24 24" fill="none" xmlns="http://www.w3.org/2000/svg">
<g id="size=24">
<path id="Union" fill-rule="evenodd" clip-rule="evenodd" d="M8.75 1C7.7835 1 7 1.7835 7 2.75V3H5.75C4.23122 3 3 4.23122 3 5.75V20.25C3 21.7688 4.23122 23 5.75 23H18.25C19.7688 23 21 21.7688 21 20.25V5.75C21 4.23122 19.7688 3 18.25 3H17V2.75C17 1.7835 16.2165 1 15.25 1H8.75ZM8.5 2.75C8.5 2.61193 8.61193 2.5 8.75 2.5H15.25C15.3881 2.5 15.5 2.61193 15.5 2.75V4.25C15.5 4.38807 15.3881 4.5 15.25 4.5H8.75C8.61193 4.5 8.5 4.38807 8.5 4.25V2.75ZM16.7803 10.2197C16.4874 9.92678 16.0126 9.92678 15.7197 10.2197L10.25 15.6893L8.28033 13.7197C7.98744 13.4268 7.51256 13.4268 7.21967 13.7197C6.92678 14.0126 6.92678 14.4874 7.21967 14.7803L9.71967 17.2803C10.0126 17.5732 10.4874 17.5732 10.7803 17.2803L16.7803 11.2803C17.0732 10.9874 17.0732 10.5126 16.7803 10.2197Z" fill="black"/>
</g>
</svg>
