<svg width="16" height="16" viewBox="0 0 16 16" fill="none" xmlns="http://www.w3.org/2000/svg">
<g id="Size=16">
<g id="Union">
<path fill-rule="evenodd" clip-rule="evenodd" d="M3.25 2.5H4V2.75C4 3.44036 4.55964 4 5.25 4H10.75C11.4404 4 12 3.44036 12 2.75V2.5H12.75C13.1642 2.5 13.5 2.83579 13.5 3.25V6.25C13.5 6.66421 13.8358 7 14.25 7C14.6642 7 15 6.66421 15 6.25V3.25C15 2.00736 13.9926 1 12.75 1H11.975C11.8592 0.42944 11.3547 0 10.75 0H5.25C4.64526 0 4.14082 0.42944 4.025 1H3.25C2.00736 1 1 2.00736 1 3.25V13.75C1 14.9926 2.00736 16 3.25 16H12.75C13.9926 16 15 14.9926 15 13.75V12.75C15 12.3358 14.6642 12 14.25 12C13.8358 12 13.5 12.3358 13.5 12.75V13.75C13.5 14.1642 13.1642 14.5 12.75 14.5H3.25C2.83579 14.5 2.5 14.1642 2.5 13.75V3.25C2.5 2.83579 2.83579 2.5 3.25 2.5ZM5.5 1.5V2.5H10.5V1.5H5.5Z" fill="black"/>
<path d="M4.75 5.5C4.33579 5.5 4 5.83579 4 6.25C4 6.66421 4.33579 7 4.75 7H7.75C8.16421 7 8.5 6.66421 8.5 6.25C8.5 5.83579 8.16421 5.5 7.75 5.5H4.75Z" fill="black"/>
<path d="M4 12.25C4 11.8358 4.33579 11.5 4.75 11.5H7.75C8.16421 11.5 8.5 11.8358 8.5 12.25C8.5 12.6642 8.16421 13 7.75 13H4.75C4.33579 13 4 12.6642 4 12.25Z" fill="black"/>
<path d="M4.75 8.5C4.33579 8.5 4 8.83579 4 9.25C4 9.66421 4.33579 10 4.75 10H6.75C7.16421 10 7.5 9.66421 7.5 9.25C7.5 8.83579 7.16421 8.5 6.75 8.5H4.75Z" fill="black"/>
<path d="M16 9.25C16 9.66421 15.6642 10 15.25 10H11.0607L12.2803 11.2197C12.5732 11.5126 12.5732 11.9874 12.2803 12.2803C11.9874 12.5732 11.5126 12.5732 11.2197 12.2803L8.72027 9.78093C8.57961 9.64027 8.5 9.44891 8.5 9.25C8.5 9.05109 8.57902 8.86032 8.71967 8.71967L11.2197 6.21967C11.5126 5.92678 11.9874 5.92678 12.2803 6.21967C12.5732 6.51256 12.5732 6.98744 12.2803 7.28033L11.0607 8.5H15.25C15.6642 8.5 16 8.83579 16 9.25Z" fill="black"/>
</g>
</g>
</svg>
