<svg width="24" height="24" viewBox="0 0 24 24" fill="none" xmlns="http://www.w3.org/2000/svg">
<g id="Size=24" clip-path="url(#clip0)">
<g id="Union">
<path d="M12.1779 1.6154C10.8585 1.09678 9.43553 0.901678 8.02636 1.04637C6.61721 1.19105 5.26272 1.67133 4.07453 2.44717C2.88636 3.223 1.89867 4.27204 1.19239 5.5074C0.486132 6.74274 0.0813475 8.12923 0.0110426 9.55263C-0.0592622 10.976 0.206898 12.3961 0.787835 13.6958C1.36878 14.9956 2.24804 16.1382 3.35364 17.029C3.67618 17.2889 4.14833 17.2381 4.40822 16.9156C4.6681 16.593 4.61731 16.1209 4.29477 15.861C3.3746 15.1196 2.64179 14.1678 2.15727 13.0837C1.67274 11.9997 1.45053 10.8147 1.50922 9.62663C1.5679 8.43853 1.90576 7.28184 2.4946 6.2519C3.08342 5.22199 3.90619 4.34855 4.89462 3.70313C5.88303 3.05774 7.00895 2.65872 8.17957 2.53852C9.35018 2.41833 10.5325 2.58035 11.6291 3.01142C12.7258 3.4425 13.7058 4.13046 14.488 5.0191C15.2703 5.90778 15.8323 6.97168 16.1272 8.12328C16.2122 8.45511 16.5112 8.6872 16.8537 8.6872H18.1419C19.1416 8.68848 20.1114 9.03642 20.8883 9.67389C21.6654 10.3116 22.2024 11.2003 22.4076 12.1918C22.6129 13.1832 22.4736 14.2156 22.0136 15.1151C21.5536 16.0146 20.8015 16.7257 19.8848 17.1305C19.5059 17.2978 19.3344 17.7407 19.5018 18.1196C19.6691 18.4985 20.1119 18.67 20.4908 18.5027C21.7244 17.9579 22.7332 17.0024 23.3491 15.7981C23.9649 14.5938 24.1509 13.2132 23.8765 11.8876C23.602 10.562 22.8834 9.37067 21.8398 8.5143C20.796 7.65783 19.4899 7.1888 18.1424 7.1872H17.4162C17.0363 6.02356 16.4237 4.94798 15.614 4.02802C14.6748 2.96111 13.4972 2.134 12.1779 1.6154Z" fill="black"/>
<path d="M7.23503 17.7953C7.53617 18.0797 8.01085 18.0661 8.29526 17.765L11.25 14.6364V21.25C11.25 21.6642 11.5858 22 12 22C12.4142 22 12.75 21.6642 12.75 21.25V14.6364L15.7047 17.765C15.9892 18.0661 16.4638 18.0797 16.765 17.7953C17.0661 17.5108 17.0797 17.0362 16.7953 16.735L12.5453 12.235C12.5336 12.2227 12.5216 12.2108 12.5093 12.1994C12.3741 12.0743 12.1971 12.0031 12.0121 12.0001L12 12L11.9879 12.0001C11.7772 12.0034 11.5875 12.0937 11.4533 12.2366L7.20474 16.735C6.92033 17.0362 6.9339 17.5108 7.23503 17.7953Z" fill="black"/>
</g>
</g>
<defs>
<clipPath id="clip0">
<rect width="24" height="24" fill="white"/>
</clipPath>
</defs>
</svg>
