<svg width="24" height="24" viewBox="0 0 24 24" fill="none" xmlns="http://www.w3.org/2000/svg">
<g id="size=24">
<g id="Union">
<path d="M8.02636 1.04637C9.43553 0.901678 10.8585 1.09678 12.1779 1.6154C13.4972 2.134 14.6748 2.96111 15.614 4.02802C16.4237 4.94798 17.0363 6.02356 17.4162 7.1872H18.1424C19.4899 7.1888 20.796 7.65783 21.8398 8.5143C22.8834 9.37067 23.602 10.562 23.8765 11.8876C24.1509 13.2132 23.9649 14.5938 23.3491 15.7981C22.7332 17.0024 21.7244 17.9579 20.4908 18.5027C20.1119 18.67 19.6691 18.4985 19.5018 18.1196C19.3344 17.7407 19.5059 17.2978 19.8848 17.1305C20.8015 16.7257 21.5536 16.0146 22.0136 15.1151C22.4736 14.2156 22.6129 13.1832 22.4076 12.1918C22.2024 11.2003 21.6654 10.3116 20.8883 9.67389C20.1114 9.03642 19.1416 8.68848 18.1419 8.6872H16.8537C16.5112 8.6872 16.2122 8.45511 16.1272 8.12328C15.8323 6.97168 15.2703 5.90778 14.488 5.0191C13.7058 4.13046 12.7258 3.4425 11.6291 3.01142C10.5325 2.58035 9.35018 2.41833 8.17957 2.53852C7.00895 2.65872 5.88303 3.05774 4.89462 3.70313C3.90619 4.34855 3.08342 5.22199 2.4946 6.2519C1.90576 7.28184 1.5679 8.43853 1.50922 9.62663C1.45053 10.8147 1.67274 11.9997 2.15727 13.0837C2.64179 14.1678 3.3746 15.1196 4.29477 15.861C4.61731 16.1209 4.6681 16.593 4.40822 16.9156C4.14833 17.2381 3.67618 17.2889 3.35364 17.029C2.24804 16.1382 1.36878 14.9956 0.787835 13.6958C0.206898 12.3961 -0.0592622 10.976 0.0110426 9.55263C0.0813475 8.12923 0.486132 6.74274 1.19239 5.5074C1.89867 4.27204 2.88636 3.223 4.07453 2.44717C5.26272 1.67133 6.61721 1.19105 8.02636 1.04637Z" fill="#000001"/>
<path d="M8.21967 14.2197C8.51256 13.9268 8.98744 13.9268 9.28033 14.2197L12 16.9393L14.7197 14.2197C15.0126 13.9268 15.4874 13.9268 15.7803 14.2197C16.0732 14.5126 16.0732 14.9874 15.7803 15.2803L13.0607 18L15.7803 20.7197C16.0732 21.0126 16.0732 21.4874 15.7803 21.7803C15.4874 22.0732 15.0126 22.0732 14.7197 21.7803L12 19.0607L9.28033 21.7803C8.98744 22.0732 8.51256 22.0732 8.21967 21.7803C7.92678 21.4874 7.92678 21.0126 8.21967 20.7197L10.9393 18L8.21967 15.2803C7.92678 14.9874 7.92678 14.5126 8.21967 14.2197Z" fill="#000001"/>
</g>
</g>
</svg>
