<svg width="16" height="16" viewBox="0 0 16 16" fill="none" xmlns="http://www.w3.org/2000/svg">
<g id="size=16" clip-path="url(#clip0)">
<g id="Union">
<path d="M7.23467 1.12309C6.13198 0.897028 4.98772 0.983531 3.9318 1.37285C2.87585 1.76218 1.95031 2.43885 1.26057 3.32637C0.570819 4.21393 0.144631 5.2767 0.0307977 6.39396C-0.0830369 7.51123 0.120097 8.63779 0.61692 9.64555C0.912493 10.2451 1.30493 10.7882 1.77569 11.2547C2.06993 11.5462 2.5448 11.544 2.83634 11.2498C3.12788 10.9555 3.12569 10.4807 2.83146 10.1891C2.47816 9.83907 2.18387 9.43169 1.96231 8.98227C1.58991 8.22691 1.43781 7.38288 1.52307 6.546C1.60834 5.70912 1.92761 4.91253 2.44497 4.24681C2.96235 3.58107 3.65716 3.07282 4.4507 2.78024C5.24427 2.48765 6.10447 2.42258 6.93343 2.59253C7.76238 2.76247 8.52648 3.1605 9.13905 3.74102C9.75159 4.3215 10.188 5.06114 10.3992 5.87571C10.485 6.2065 10.7835 6.4375 11.1252 6.4375H11.9554C12.6313 6.4375 13.2788 6.70492 13.7558 7.17996C14.2327 7.65489 14.5 8.2984 14.5 8.96875C14.5 9.6391 14.2327 10.2826 13.7558 10.7575C13.6276 10.8852 13.4872 10.9978 13.3373 11.0942C12.9889 11.3183 12.8882 11.7824 13.1123 12.1308C13.3364 12.4791 13.8005 12.5799 14.1488 12.3558C14.3872 12.2024 14.6105 12.0233 14.8143 11.8203C15.5731 11.0646 16 10.0389 16 8.96875C16 7.89861 15.5731 6.87292 14.8143 6.11715C14.0556 5.36148 13.0271 4.9375 11.9554 4.9375H11.6757C11.358 4.07283 10.844 3.29016 10.1708 2.65225C9.35468 1.8788 8.33738 1.34915 7.23467 1.12309Z" fill="#000001"/>
<path d="M8 7.25C8.41421 7.25 8.75 7.58579 8.75 8V12.4393L10.2197 10.9697C10.5126 10.6768 10.9874 10.6768 11.2803 10.9697C11.5732 11.2626 11.5732 11.7374 11.2803 12.0303L8.53033 14.7803C8.38968 14.921 8.19891 15 8 15C7.80109 15 7.61032 14.921 7.46967 14.7803L4.71967 12.0303C4.42678 11.7374 4.42678 11.2626 4.71967 10.9697C5.01256 10.6768 5.48744 10.6768 5.78033 10.9697L7.25 12.4393V8C7.25 7.58579 7.58579 7.25 8 7.25Z" fill="#000001"/>
</g>
</g>
<defs>
<clipPath id="clip0">
<rect width="16" height="16" fill="white"/>
</clipPath>
</defs>
</svg>
