<svg width="24" height="24" viewBox="0 0 24 24" fill="none" xmlns="http://www.w3.org/2000/svg">
<g id="size=24" clip-path="url(#clip0)">
<path id="Vector (Stroke)" fill-rule="evenodd" clip-rule="evenodd" d="M5.83559 3.55753C7.40072 2.97485 9.09668 2.84573 10.7312 3.18507C12.3684 3.52498 13.8776 4.32112 15.0873 5.48216C16.1559 6.50765 16.9531 7.78146 17.412 9.1875H18.1378C19.6946 9.1875 21.1864 9.81134 22.2853 10.9197C23.3839 12.0278 24 13.5294 24 15.0938C24 16.6581 23.3839 18.1597 22.2853 19.2678C21.1864 20.3762 19.6946 21 18.1378 21H8.93572C8.93339 21 8.93106 21 8.92874 21C7.25958 20.9998 5.62422 20.5281 4.20802 19.6389C2.78975 18.7484 1.64845 17.4751 0.912991 15.9644C0.177562 14.4537 -0.122826 12.7657 0.0455619 11.092C0.213951 9.4183 0.844463 7.82516 1.8662 6.49373C2.88797 5.16224 4.26021 4.1457 5.82751 3.56049C5.8302 3.55948 5.83289 3.5585 5.83559 3.55753ZM6.3449 4.96846C5.04535 5.45526 3.90592 6.29963 3.05619 7.40692C2.20482 8.51635 1.67859 9.84506 1.53803 11.2422C1.39747 12.6393 1.64831 14.0479 2.26167 15.3078C2.875 16.5677 3.82594 17.6279 5.00564 18.3686C6.18528 19.1093 7.54665 19.501 8.93513 19.5C8.93775 19.5 8.94036 19.5 8.94298 19.5H18.1378C19.2926 19.5 20.4015 19.0373 21.2201 18.2117C22.0389 17.3859 22.5 16.2644 22.5 15.0938C22.5 13.9231 22.0389 12.8016 21.2201 11.9758C20.4015 11.1502 19.2926 10.6875 18.1378 10.6875H16.8495C16.5069 10.6875 16.2079 10.4554 16.1229 10.1235C15.7749 8.76402 15.056 7.53107 14.0487 6.5644C13.0415 5.59779 11.7864 4.93613 10.4263 4.65375C9.06616 4.37138 7.65478 4.47941 6.35224 4.96576C6.3498 4.96667 6.34735 4.96758 6.3449 4.96846Z" fill="#000001"/>
</g>
<defs>
<clipPath id="clip0">
<rect width="24" height="24" fill="white"/>
</clipPath>
</defs>
</svg>
