<svg width="16" height="16" viewBox="0 0 16 16" fill="none" xmlns="http://www.w3.org/2000/svg">
<g id="size=16" clip-path="url(#clip0)">
<g id="Union">
<path d="M7.23467 1.12309C6.13198 0.897028 4.98772 0.983531 3.9318 1.37285C2.87586 1.76218 1.95031 2.43885 1.26057 3.32637C0.570819 4.21393 0.144631 5.2767 0.0307977 6.39396C-0.0830368 7.51123 0.120097 8.63779 0.61692 9.64555C0.691077 9.79597 0.771334 9.94284 0.857399 10.0858C1.07099 10.4407 1.53184 10.5553 1.88673 10.3417C2.24163 10.1281 2.35619 9.66728 2.1426 9.31238C2.07807 9.20516 2.0179 9.09504 1.96231 8.98227C1.58991 8.22691 1.43781 7.38288 1.52307 6.546C1.60834 5.70912 1.92761 4.91253 2.44497 4.24681C2.96235 3.58107 3.65716 3.07282 4.4507 2.78024C5.24427 2.48765 6.10447 2.42258 6.93343 2.59253C7.76238 2.76247 8.52648 3.1605 9.13905 3.74102C9.75159 4.3215 10.188 5.06114 10.3992 5.87571C10.485 6.2065 10.7835 6.4375 11.1252 6.4375H11.9554C12.6313 6.4375 13.2788 6.70492 13.7558 7.17996C14.2327 7.65489 14.5 8.2984 14.5 8.96875C14.5 9.38366 14.3976 9.78819 14.2065 10.1489C14.0126 10.5149 14.1521 10.9688 14.5182 11.1627C14.8842 11.3567 15.3381 11.2171 15.532 10.8511C15.8365 10.2763 16 9.63099 16 8.96875C16 7.89861 15.5731 6.87292 14.8143 6.11715C14.0556 5.36148 13.0271 4.9375 11.9554 4.9375H11.6757C11.358 4.07283 10.844 3.29016 10.1708 2.65225C9.35468 1.8788 8.33738 1.34915 7.23467 1.12309Z" fill="#000001"/>
<path d="M8.75 12.25C8.75 11.8358 8.41421 11.5 8 11.5C7.58579 11.5 7.25 11.8358 7.25 12.25V12.75C7.25 13.1642 7.58579 13.5 8 13.5C8.41421 13.5 8.75 13.1642 8.75 12.75V12.25Z" fill="#000001"/>
<path fill-rule="evenodd" clip-rule="evenodd" d="M5.51793 9.01182C5.55263 8.3852 5.64757 7.77657 5.88389 7.2744C6.05815 6.90408 6.31856 6.56955 6.70008 6.33428C7.07897 6.10063 7.52031 6 8 6C8.47969 6 8.92103 6.10063 9.29992 6.33428C9.68144 6.56955 9.94185 6.90408 10.1161 7.2744C10.3524 7.77657 10.4474 8.3852 10.4821 9.01182C11.6157 9.12798 12.5 10.0857 12.5 11.25V13.75C12.5 14.9926 11.4926 16 10.25 16H5.75C4.50736 16 3.5 14.9926 3.5 13.75V11.25C3.5 10.0857 4.38432 9.12798 5.51793 9.01182ZM7.02199 9C7.05437 8.51877 7.12405 8.16186 7.24111 7.9131C7.31685 7.75217 7.40019 7.66482 7.48742 7.61103C7.57728 7.55562 7.72969 7.5 8 7.5C8.27031 7.5 8.42272 7.55562 8.51258 7.61103C8.59981 7.66482 8.68315 7.75217 8.75889 7.9131C8.87595 8.16185 8.94563 8.51877 8.97801 9H7.02199ZM10.25 10.5C10.6642 10.5 11 10.8358 11 11.25V13.75C11 14.1642 10.6642 14.5 10.25 14.5H5.75C5.33579 14.5 5 14.1642 5 13.75V11.25C5 10.8358 5.33579 10.5 5.75 10.5H10.25Z" fill="#000001"/>
</g>
</g>
<defs>
<clipPath id="clip0">
<rect width="16" height="16" fill="white"/>
</clipPath>
</defs>
</svg>
