<svg width="24" height="24" viewBox="0 0 24 24" fill="none" xmlns="http://www.w3.org/2000/svg">
<g id="size=24">
<g id="Union">
<path d="M5 6.75C5 6.33579 5.33579 6 5.75 6H12.25C12.6642 6 13 6.33579 13 6.75C13 7.16421 12.6642 7.5 12.25 7.5H5.75C5.33579 7.5 5 7.16421 5 6.75Z" fill="#000001"/>
<path d="M5.75 9C5.33579 9 5 9.33579 5 9.75C5 10.1642 5.33579 10.5 5.75 10.5H10.25C10.6642 10.5 11 10.1642 11 9.75C11 9.33579 10.6642 9 10.25 9H5.75Z" fill="#000001"/>
<path fill-rule="evenodd" clip-rule="evenodd" d="M1 4.75C1 3.23122 2.23122 2 3.75 2H14.25C15.104 2 15.867 2.38925 16.3714 3H17.25C18.104 3 18.867 3.38925 19.3714 4H20.25C21.7688 4 23 5.23122 23 6.75V17.25C23 18.7688 21.7688 20 20.25 20H19.3714C18.867 20.6108 18.104 21 17.25 21H16.3714C15.867 21.6108 15.104 22 14.25 22H3.75C2.23122 22 1 20.7688 1 19.25V4.75ZM19.9888 18.5H20.25C20.9404 18.5 21.5 17.9404 21.5 17.25V6.75C21.5 6.05964 20.9404 5.5 20.25 5.5H19.9888C19.9962 5.58234 20 5.66573 20 5.75V18.25C20 18.3343 19.9962 18.4177 19.9888 18.5ZM17 4.75C17 4.66573 16.9962 4.58234 16.9888 4.5H17.25C17.9404 4.5 18.5 5.05964 18.5 5.75V18.25C18.5 18.9404 17.9404 19.5 17.25 19.5H16.9888C16.9962 19.4177 17 19.3343 17 19.25V4.75ZM3.75 3.5C3.05964 3.5 2.5 4.05964 2.5 4.75V19.25C2.5 19.9404 3.05964 20.5 3.75 20.5H14.25C14.9404 20.5 15.5 19.9404 15.5 19.25V4.75C15.5 4.05964 14.9404 3.5 14.25 3.5H3.75Z" fill="#000001"/>
</g>
</g>
</svg>
