<svg width="24" height="24" viewBox="0 0 24 24" fill="none" xmlns="http://www.w3.org/2000/svg">
<g id="Size=24">
<path id="Union" fill-rule="evenodd" clip-rule="evenodd" d="M9.5 5.75V8H14.5V5.75C14.5 3.67893 16.1789 2 18.25 2C20.3211 2 22 3.67893 22 5.75C22 7.82107 20.3211 9.5 18.25 9.5H16V14.5H18.25C20.3211 14.5 22 16.1789 22 18.25C22 20.3211 20.3211 22 18.25 22C16.1789 22 14.5 20.3211 14.5 18.25V16H9.5V18.25C9.5 20.3211 7.82107 22 5.75 22C3.67893 22 2 20.3211 2 18.25C2 16.1789 3.67893 14.5 5.75 14.5H8V9.5H5.75C3.67893 9.5 2 7.82107 2 5.75C2 3.67893 3.67893 2 5.75 2C7.82107 2 9.5 3.67893 9.5 5.75ZM5.75 3.5C4.50736 3.5 3.5 4.50736 3.5 5.75C3.5 6.99264 4.50736 8 5.75 8H8V5.75C8 4.50736 6.99264 3.5 5.75 3.5ZM16 16V18.25C16 19.4926 17.0074 20.5 18.25 20.5C19.4926 20.5 20.5 19.4926 20.5 18.25C20.5 17.0074 19.4926 16 18.25 16H16ZM14.5 14.5V9.5H9.5V14.5H14.5ZM5.75 16H8V18.25C8 19.4926 6.99264 20.5 5.75 20.5C4.50736 20.5 3.5 19.4926 3.5 18.25C3.5 17.0074 4.50736 16 5.75 16ZM16 8H18.25C19.4926 8 20.5 6.99264 20.5 5.75C20.5 4.50736 19.4926 3.5 18.25 3.5C17.0074 3.5 16 4.50736 16 5.75V8Z" fill="black"/>
</g>
</svg>
