<svg viewBox="0 0 16 16" width="16" height="16" fill="currentColor" xmlns="http://www.w3.org/2000/svg">
 <g transform="translate(0.00000000000022737367544323206, 4.75)">
  <path d="M0 3C0 1.34315 1.34315 0 3 0C4.39788 0 5.57245 0.956079 5.90549 2.25L10.0945 2.25C10.4275 0.956079 11.6021 0 13 0C14.6569 0 16 1.34315 16 3C16 4.65685 14.6569 6 13 6C11.6021 6 10.4275 5.04392 10.0945 3.75L5.90549 3.75C5.57245 5.04392 4.39788 6 3 6C1.34315 6 0 4.65685 0 3ZM3 1.5C2.17157 1.5 1.5 2.17157 1.5 3C1.5 3.82843 2.17157 4.5 3 4.5C3.82843 4.5 4.5 3.82843 4.5 3C4.5 2.17157 3.82843 1.5 3 1.5ZM13 1.5C12.1716 1.5 11.5 2.17157 11.5 3C11.5 3.82843 12.1716 4.5 13 4.5C13.8284 4.5 14.5 3.82843 14.5 3C14.5 2.17157 13.8284 1.5 13 1.5Z" fill-rule="EVENODD"></path>
 </g>
</svg>