<svg width="16" height="16" viewBox="0 0 16 16" fill="none" xmlns="http://www.w3.org/2000/svg">
<g id="Size=16" clip-path="url(#clip0)">
<path id="Union" fill-rule="evenodd" clip-rule="evenodd" d="M0 7.75C0 6.09315 1.34315 4.75 3 4.75C4.39788 4.75 5.57245 5.70608 5.90549 7H10.0945C10.4275 5.70608 11.6021 4.75 13 4.75C14.6569 4.75 16 6.09315 16 7.75C16 9.40685 14.6569 10.75 13 10.75C11.6021 10.75 10.4275 9.79392 10.0945 8.5H5.90549C5.57245 9.79392 4.39788 10.75 3 10.75C1.34315 10.75 0 9.40685 0 7.75ZM3 6.25C2.17157 6.25 1.5 6.92157 1.5 7.75C1.5 8.57843 2.17157 9.25 3 9.25C3.82843 9.25 4.5 8.57843 4.5 7.75C4.5 6.92157 3.82843 6.25 3 6.25ZM13 6.25C12.1716 6.25 11.5 6.92157 11.5 7.75C11.5 8.57843 12.1716 9.25 13 9.25C13.8284 9.25 14.5 8.57843 14.5 7.75C14.5 6.92157 13.8284 6.25 13 6.25Z" fill="black"/>
</g>
<defs>
<clipPath id="clip0">
<rect width="16" height="16" fill="white"/>
</clipPath>
</defs>
</svg>
