<svg viewBox="0 0 24 24" width="24" height="24" fill="currentColor" xmlns="http://www.w3.org/2000/svg">
 <g transform="translate(3.2499985694885254, 3.000000238418579)">
  <path d="M10.7075 6.76786C10.9935 7.06748 11.4682 7.07852 11.7679 6.79252C12.0675 6.50651 12.0785 6.03177 11.7925 5.73214L6.54252 0.232143C6.401 0.0838826 6.20496 0 6 0C5.79504 0 5.59901 0.0838826 5.45748 0.232143L0.207484 5.73214C-0.0785198 6.03177 -0.0674791 6.50651 0.232144 6.79252C0.531768 7.07852 1.00651 7.06748 1.29252 6.76786L5.25 2.62192L5.25 13.5C5.25 14.8119 5.74007 16.0785 6.62542 17.0192C7.51223 17.9615 8.72505 18.5 10 18.5L17 18.5C17.4142 18.5 17.75 18.1642 17.75 17.75C17.75 17.3358 17.4142 17 17 17L10 17C9.15323 17 8.33122 16.643 7.71773 15.9912C7.10278 15.3378 6.75 14.4424 6.75 13.5L6.75 2.62192L10.7075 6.76786Z" fill-rule="NONZERO"></path>
 </g>
</svg>