<svg width="16" height="16" viewBox="0 0 16 16" fill="none" xmlns="http://www.w3.org/2000/svg">
<g id="size=16">
<path id="Union" d="M13.25 2.5C13.6642 2.5 14 2.83579 14 3.25C14 3.66421 13.6642 4 13.25 4L8.75 4C8.28587 4 7.84075 4.18437 7.51256 4.51256C7.18437 4.84075 7 5.28587 7 5.75L7 11.4393L9.21967 9.21967C9.51256 8.92678 9.98744 8.92678 10.2803 9.21967C10.5732 9.51256 10.5732 9.98744 10.2803 10.2803L6.78033 13.7803C6.48744 14.0732 6.01256 14.0732 5.71967 13.7803L2.21967 10.2803C1.92678 9.98744 1.92678 9.51256 2.21967 9.21967C2.51256 8.92678 2.98744 8.92678 3.28033 9.21967L5.5 11.4393L5.5 5.75C5.5 4.88805 5.84241 4.0614 6.4519 3.4519C7.0614 2.84241 7.88805 2.5 8.75 2.5H13.25Z" fill="#000001"/>
</g>
</svg>
