<svg width="16" height="16" viewBox="0 0 16 16" fill="none" xmlns="http://www.w3.org/2000/svg">
<g id="size=16">
<path id="Union" d="M9.21967 9.21967C8.92678 9.51256 8.92678 9.98744 9.21967 10.2803C9.51256 10.5732 9.98744 10.5732 10.2803 10.2803L13.7803 6.78033C14.0732 6.48744 14.0732 6.01256 13.7803 5.71967L10.2803 2.21967C9.98744 1.92678 9.51256 1.92678 9.21967 2.21967C8.92678 2.51256 8.92678 2.98744 9.21967 3.28033L11.4393 5.5H5.75C4.88805 5.5 4.0614 5.84241 3.4519 6.4519C2.84241 7.0614 2.5 7.88805 2.5 8.75V13.25C2.5 13.6642 2.83579 14 3.25 14C3.66421 14 4 13.6642 4 13.25V8.75C4 8.28587 4.18437 7.84075 4.51256 7.51256C4.84075 7.18437 5.28587 7 5.75 7H11.4393L9.21967 9.21967Z" fill="black"/>
</g>
</svg>
