<svg width="24" height="24" viewBox="0 0 24 24" fill="none" xmlns="http://www.w3.org/2000/svg">
<g id="size=24">
<path id="Union" d="M20.25 2.5C20.6642 2.5 21 2.83579 21 3.25C21 3.66421 20.6642 4 20.25 4L13.25 4C12.4032 4 11.5812 4.35699 10.9677 5.00882C10.3528 5.66219 10 6.55757 10 7.5L10 18.3781L13.9575 14.2321C14.2435 13.9325 14.7182 13.9215 15.0179 14.2075C15.3175 14.4935 15.3285 14.9682 15.0425 15.2679L9.79252 20.7679C9.651 20.9161 9.45496 21 9.25 21C9.04504 21 8.84901 20.9161 8.70748 20.7679L3.45748 15.2679C3.17148 14.9682 3.18252 14.4935 3.48214 14.2075C3.78177 13.9215 4.25651 13.9325 4.54252 14.2321L8.5 18.3781L8.5 7.5C8.5 6.18809 8.99007 4.92146 9.87542 3.98077C10.7622 3.03855 11.975 2.5 13.25 2.5H20.25Z" fill="black"/>
</g>
</svg>
