<svg width="16" height="16" viewBox="0 0 16 16" fill="none" xmlns="http://www.w3.org/2000/svg">
<g id="Size=16">
<path id="Union" d="M13.5 2.75C13.5 2.33579 13.1642 2 12.75 2C12.3358 2 12 2.33579 12 2.75V7.25C12 7.71413 11.8156 8.15925 11.4874 8.48744C11.1592 8.81563 10.7141 9 10.25 9H4.56066L6.78033 6.78033C7.07322 6.48744 7.07322 6.01256 6.78033 5.71967C6.48744 5.42678 6.01256 5.42678 5.71967 5.71967L2.21967 9.21967C2.14776 9.29158 2.09351 9.37445 2.05691 9.46291C2.02024 9.55134 2 9.64831 2 9.75C2 9.85169 2.02024 9.94866 2.05691 10.0371C2.09351 10.1255 2.14776 10.2084 2.21967 10.2803L5.71967 13.7803C6.01256 14.0732 6.48744 14.0732 6.78033 13.7803C7.07322 13.4874 7.07322 13.0126 6.78033 12.7197L4.56066 10.5H10.25C11.112 10.5 11.9386 10.1576 12.5481 9.5481C13.1576 8.9386 13.5 8.11195 13.5 7.25V2.75Z" fill="black"/>
</g>
</svg>
