<svg width="16" height="16" viewBox="0 0 16 16" fill="none" xmlns="http://www.w3.org/2000/svg">
<g id="size=16">
<path id="Union" d="M6.78033 9.21967C7.07322 9.51256 7.07322 9.98744 6.78033 10.2803C6.48744 10.5732 6.01256 10.5732 5.71967 10.2803L2.21967 6.78033C1.92678 6.48744 1.92678 6.01256 2.21967 5.71967L5.71967 2.21967C6.01256 1.92678 6.48744 1.92678 6.78033 2.21967C7.07322 2.51256 7.07322 2.98744 6.78033 3.28033L4.56066 5.5H10.25C11.112 5.5 11.9386 5.84241 12.5481 6.4519C13.1576 7.0614 13.5 7.88805 13.5 8.75V13.25C13.5 13.6642 13.1642 14 12.75 14C12.3358 14 12 13.6642 12 13.25V8.75C12 8.28587 11.8156 7.84075 11.4874 7.51256C11.1592 7.18437 10.7141 7 10.25 7H4.56066L6.78033 9.21967Z" fill="black"/>
</g>
</svg>
