<svg viewBox="0 0 24 24" width="24" height="24" fill="currentColor" xmlns="http://www.w3.org/2000/svg">
 <g transform="translate(2.5, 3)">
  <path d="M0 0.75C0 0.335786 0.335787 0 0.75 0C1.16421 0 1.5 0.335786 1.5 0.75L1.5 7.75C1.5 8.59678 1.85699 9.41879 2.50882 10.0323C3.1622 10.6472 4.05757 11 5 11L15.8781 11L11.7321 7.04252C11.4325 6.75651 11.4215 6.28177 11.7075 5.98214C11.9935 5.68252 12.4682 5.67148 12.7679 5.95748L18.2664 11.2061C18.4103 11.3427 18.5 11.5359 18.5 11.75C18.5 11.9484 18.4229 12.1289 18.2971 12.263C18.2876 12.2731 18.2779 12.2829 18.2679 12.2925L12.7679 17.5425C12.4682 17.8285 11.9935 17.8175 11.7075 17.5179C11.4215 17.2182 11.4325 16.7435 11.7321 16.4575L15.8781 12.5L5 12.5C3.68809 12.5 2.42146 12.0099 1.48077 11.1246C0.538548 10.2378 0 9.02496 0 7.75L0 0.75Z" fill-rule="NONZERO"></path>
 </g>
</svg>