<svg width="24" height="24" viewBox="0 0 24 24" fill="none" xmlns="http://www.w3.org/2000/svg">
<g id="size=24">
<path id="Union" d="M9.76786 13.9575C10.0675 14.2435 10.0785 14.7182 9.79252 15.0179C9.50651 15.3175 9.03177 15.3285 8.73214 15.0425L3.23214 9.79252C3.08388 9.651 3 9.45496 3 9.25C3 9.04504 3.08388 8.84901 3.23214 8.70748L8.73214 3.45748C9.03177 3.17148 9.50651 3.18252 9.79252 3.48214C10.0785 3.78177 10.0675 4.25651 9.76786 4.54252L5.62192 8.5H16.5C17.8119 8.5 19.0785 8.99007 20.0192 9.87542C20.9615 10.7622 21.5 11.975 21.5 13.25V20.25C21.5 20.6642 21.1642 21 20.75 21C20.3358 21 20 20.6642 20 20.25V13.25C20 12.4032 19.643 11.5812 18.9912 10.9677C18.3378 10.3528 17.4424 10 16.5 10H5.62192L9.76786 13.9575Z" fill="black"/>
</g>
</svg>
