<svg width="16" height="16" viewBox="0 0 16 16" fill="none" xmlns="http://www.w3.org/2000/svg">
<g id="size=16">
<path id="Union" d="M9.21967 6.78033C9.51256 7.07322 9.98744 7.07322 10.2803 6.78033C10.5732 6.48744 10.5732 6.01256 10.2803 5.71967L6.78033 2.21967C6.48744 1.92678 6.01256 1.92678 5.71967 2.21967L2.21967 5.71967C1.92678 6.01256 1.92678 6.48744 2.21967 6.78033C2.51256 7.07322 2.98744 7.07322 3.28033 6.78033L5.5 4.56066L5.5 10.25C5.5 11.112 5.84241 11.9386 6.4519 12.5481C7.0614 13.1576 7.88805 13.5 8.75 13.5H13.25C13.6642 13.5 14 13.1642 14 12.75C14 12.3358 13.6642 12 13.25 12H8.75C8.28587 12 7.84075 11.8156 7.51256 11.4874C7.18437 11.1592 7 10.7141 7 10.25L7 4.56066L9.21967 6.78033Z" fill="#000001"/>
</g>
</svg>
