<svg width="16" height="16" viewBox="0 0 16 16" fill="none" xmlns="http://www.w3.org/2000/svg">
<g id="size=16">
<g id="Union">
<path fill-rule="evenodd" clip-rule="evenodd" d="M6.25 5C5.55964 5 5 5.55964 5 6.25V9.75C5 10.4404 5.55964 11 6.25 11H9.75C10.4404 11 11 10.4404 11 9.75V6.25C11 5.55964 10.4404 5 9.75 5H6.25ZM6.5 9.5V6.5H9.5V9.5H6.5Z" fill="#000001"/>
<path fill-rule="evenodd" clip-rule="evenodd" d="M6.25005 0.0500488C6.63665 0.0500488 6.95005 0.363449 6.95005 0.750049V2H9.05005V0.750049C9.05005 0.363449 9.36345 0.0500488 9.75005 0.0500488C10.1366 0.0500488 10.45 0.363449 10.45 0.750049V2H11.75C12.9926 2 14 3.00736 14 4.25V5.55005H15.25C15.6366 5.55005 15.95 5.86345 15.95 6.25005C15.95 6.63665 15.6366 6.95005 15.25 6.95005H14V9.05005H15.25C15.6366 9.05005 15.95 9.36345 15.95 9.75005C15.95 10.1366 15.6366 10.45 15.25 10.45H14V11.75C14 12.9926 12.9926 14 11.75 14H10.45V15.25C10.45 15.6366 10.1366 15.95 9.75005 15.95C9.36345 15.95 9.05005 15.6366 9.05005 15.25V14H6.95005V15.25C6.95005 15.6366 6.63665 15.95 6.25005 15.95C5.86345 15.95 5.55005 15.6366 5.55005 15.25V14H4.25C3.00736 14 2 12.9926 2 11.75V10.45H0.750049C0.363449 10.45 0.0500488 10.1366 0.0500488 9.75005C0.0500488 9.36345 0.363449 9.05005 0.750049 9.05005H2V6.95005H0.750049C0.363449 6.95005 0.0500488 6.63665 0.0500488 6.25005C0.0500488 5.86345 0.363449 5.55005 0.750049 5.55005H2V4.25C2 3.00736 3.00736 2 4.25 2H5.55005V0.750049C5.55005 0.363449 5.86345 0.0500488 6.25005 0.0500488ZM3.5 4.25C3.5 3.83579 3.83579 3.5 4.25 3.5H11.75C12.1642 3.5 12.5 3.83579 12.5 4.25V11.75C12.5 12.1642 12.1642 12.5 11.75 12.5H4.25C3.83579 12.5 3.5 12.1642 3.5 11.75V4.25Z" fill="#000001"/>
</g>
</g>
</svg>
