<svg viewBox="0 0 24 24" width="24" height="24" fill="currentColor" xmlns="http://www.w3.org/2000/svg">
 <g transform="translate(0, 3)">
  <path d="M4.75 12C4.33579 12 4 12.3358 4 12.75C4 13.1642 4.33579 13.5 4.75 13.5L7.25 13.5C7.66421 13.5 8 13.1642 8 12.75C8 12.3358 7.66421 12 7.25 12L4.75 12Z" fill-rule="NONZERO"></path>
  <path d="M0 2.75C0 1.23122 1.23122 0 2.75 0L21.25 0C22.7688 0 24 1.23122 24 2.75L24 15.25C24 16.7688 22.7688 18 21.25 18L2.75 18C1.23122 18 0 16.7688 0 15.25L0 2.75ZM22.5 2.75L22.5 5L1.5 5L1.5 2.75C1.5 2.05964 2.05964 1.5 2.75 1.5L21.25 1.5C21.9404 1.5 22.5 2.05964 22.5 2.75ZM22.5 8L1.5 8L1.5 15.25C1.5 15.9404 2.05964 16.5 2.75 16.5L21.25 16.5C21.9404 16.5 22.5 15.9404 22.5 15.25L22.5 8Z" fill-rule="EVENODD"></path>
 </g>
</svg>