<svg width="24" height="24" viewBox="0 0 24 24" fill="none" xmlns="http://www.w3.org/2000/svg">
<g id="Size=24">
<g id="Union">
<path d="M4.75 15C4.33579 15 4 15.3358 4 15.75C4 16.1642 4.33579 16.5 4.75 16.5H7.25C7.66421 16.5 8 16.1642 8 15.75C8 15.3358 7.66421 15 7.25 15H4.75Z" fill="black"/>
<path fill-rule="evenodd" clip-rule="evenodd" d="M0 5.75C0 4.23122 1.23122 3 2.75 3H21.25C22.7688 3 24 4.23122 24 5.75V18.25C24 19.7688 22.7688 21 21.25 21H2.75C1.23122 21 0 19.7688 0 18.25V5.75ZM22.5 5.75V8H1.5V5.75C1.5 5.05964 2.05964 4.5 2.75 4.5H21.25C21.9404 4.5 22.5 5.05964 22.5 5.75ZM22.5 11H1.5V18.25C1.5 18.9404 2.05964 19.5 2.75 19.5H21.25C21.9404 19.5 22.5 18.9404 22.5 18.25V11Z" fill="black"/>
</g>
</g>
</svg>
