<svg width="24" height="24" viewBox="0 0 24 24" fill="none" xmlns="http://www.w3.org/2000/svg">
<g id="Size=24">
<path id="Union" fill-rule="evenodd" clip-rule="evenodd" d="M6.5 1.25C6.5 0.835786 6.16421 0.5 5.75 0.5C5.33579 0.5 5 0.835786 5 1.25V5H1.25C0.835786 5 0.5 5.33579 0.5 5.75C0.5 6.16421 0.835786 6.5 1.25 6.5H5V16.25C5 16.9793 5.28973 17.6788 5.80546 18.1945C6.32118 18.7103 7.02065 19 7.75 19H17.5V22.75C17.5 23.1642 17.8358 23.5 18.25 23.5C18.6642 23.5 19 23.1642 19 22.75V19H22.75C23.1642 19 23.5 18.6642 23.5 18.25C23.5 17.8358 23.1642 17.5 22.75 17.5H19V7.75C19 7.02065 18.7103 6.32118 18.1945 5.80546C17.6788 5.28973 16.9793 5 16.25 5H6.5V1.25ZM6.5 6.5V16.25C6.5 16.5815 6.6317 16.8995 6.86612 17.1339C7.10054 17.3683 7.41848 17.5 7.75 17.5H17.5V7.75C17.5 7.41848 17.3683 7.10054 17.1339 6.86612C16.8995 6.6317 16.5815 6.5 16.25 6.5H6.5Z" fill="black"/>
</g>
</svg>
