<svg width="24" height="24" viewBox="0 0 24 24" fill="none" xmlns="http://www.w3.org/2000/svg">
<g id="size=24">
<path id="Union" fill-rule="evenodd" clip-rule="evenodd" d="M1 12C1 5.92487 5.92487 1 12 1C18.0751 1 23 5.92487 23 12C23 18.0751 18.0751 23 12 23C5.92487 23 1 18.0751 1 12ZM12.75 21.4708V18.75C12.75 18.3358 12.4142 18 12 18C11.5858 18 11.25 18.3358 11.25 18.75V21.4708C6.60134 21.1078 2.89223 17.3987 2.52917 12.75H5.25C5.66421 12.75 6 12.4142 6 12C6 11.5858 5.66421 11.25 5.25 11.25H2.52917C2.89223 6.60134 6.60134 2.89223 11.25 2.52917V5.25C11.25 5.66421 11.5858 6 12 6C12.4142 6 12.75 5.66421 12.75 5.25V2.52917C17.3987 2.89223 21.1078 6.60134 21.4708 11.25H18.75C18.3358 11.25 18 11.5858 18 12C18 12.4142 18.3358 12.75 18.75 12.75H21.4708C21.1078 17.3987 17.3987 21.1078 12.75 21.4708Z" fill="black"/>
</g>
</svg>
