<svg width="16" height="16" viewBox="0 0 16 16" fill="none" xmlns="http://www.w3.org/2000/svg">
<g id="size=16">
<path id="Union" fill-rule="evenodd" clip-rule="evenodd" d="M0 8C0 3.58172 3.58172 0 8 0C12.4183 0 16 3.58172 16 8C16 12.4183 12.4183 16 8 16C3.58172 16 0 12.4183 0 8ZM8.75 14.4572V12.75C8.75 12.3358 8.41421 12 8 12C7.58579 12 7.25 12.3358 7.25 12.75V14.4572C4.2595 14.1136 1.88638 11.7405 1.5428 8.75H3.25C3.66421 8.75 4 8.41421 4 8C4 7.58579 3.66421 7.25 3.25 7.25H1.5428C1.88638 4.2595 4.2595 1.88638 7.25 1.5428V3.25C7.25 3.66421 7.58579 4 8 4C8.41421 4 8.75 3.66421 8.75 3.25V1.5428C11.7405 1.88638 14.1136 4.2595 14.4572 7.25H12.75C12.3358 7.25 12 7.58579 12 8C12 8.41421 12.3358 8.75 12.75 8.75H14.4572C14.1136 11.7405 11.7405 14.1136 8.75 14.4572Z" fill="black"/>
</g>
</svg>
