<svg width="24" height="24" viewBox="0 0 24 24" fill="none" xmlns="http://www.w3.org/2000/svg">
<g id="size=24">
<path id="Union" fill-rule="evenodd" clip-rule="evenodd" d="M22 5.75C22 4.99851 21.5305 4.40963 20.9795 3.98709C20.4175 3.5562 19.6515 3.20047 18.7721 2.91526C17.005 2.34215 14.6108 2 12 2C9.3892 2 6.99499 2.34215 5.22788 2.91526C4.34849 3.20047 3.58249 3.5562 3.02054 3.98709C2.46949 4.40963 2 4.99851 2 5.75V18.1618C2 18.9142 2.45376 19.514 3.0064 19.9527C3.56641 20.3971 4.3309 20.764 5.21008 21.058C6.97615 21.6485 9.37288 22 12 22C14.6271 22 17.0238 21.6485 18.7899 21.058C19.6691 20.764 20.4336 20.3971 20.9936 19.9527C21.5462 19.514 22 18.9142 22 18.1618V5.75ZM3.93328 5.17743C3.54818 5.47273 3.5 5.67306 3.5 5.75C3.5 5.82694 3.54818 6.02727 3.93328 6.32257C4.30748 6.6095 4.89611 6.90022 5.69064 7.1579C7.27138 7.67058 9.50217 8 12 8C14.4978 8 16.7286 7.67058 18.3094 7.1579C19.1039 6.90022 19.6925 6.6095 20.0667 6.32257C20.4518 6.02727 20.5 5.82694 20.5 5.75C20.5 5.67306 20.4518 5.47273 20.0667 5.17743C19.6925 4.8905 19.1039 4.59978 18.3094 4.3421C16.7286 3.82942 14.4978 3.5 12 3.5C9.50217 3.5 7.27138 3.82942 5.69064 4.3421C4.89611 4.59978 4.30748 4.8905 3.93328 5.17743ZM20.5 7.83464C20.0104 8.12447 19.4223 8.37388 18.7721 8.58474C17.005 9.15785 14.6108 9.5 12 9.5C9.3892 9.5 6.99499 9.15785 5.22788 8.58474C4.57773 8.37388 3.98956 8.12447 3.5 7.83464V11.75C3.5 11.8303 3.54929 12.0311 3.9306 12.3251C4.30206 12.6115 4.88732 12.9018 5.67962 13.1592C7.25596 13.6712 9.48645 14 12 14C14.5135 14 16.744 13.6712 18.3204 13.1592C19.1127 12.9018 19.6979 12.6115 20.0694 12.3251C20.4507 12.0311 20.5 11.8303 20.5 11.75V7.83464ZM20.5 13.8397C20.0135 14.128 19.4295 14.3761 18.7838 14.5858C17.0199 15.1588 14.6253 15.5 12 15.5C9.37466 15.5 6.98015 15.1588 5.21622 14.5858C4.5705 14.3761 3.98654 14.128 3.5 13.8397V18.1618C3.5 18.2637 3.56013 18.4771 3.93891 18.7778C4.31033 19.0725 4.89479 19.3709 5.68576 19.6354C7.25996 20.1618 9.48823 20.5 12 20.5C14.5118 20.5 16.74 20.1618 18.3142 19.6354C19.1052 19.3709 19.6897 19.0725 20.0611 18.7778C20.4399 18.4771 20.5 18.2637 20.5 18.1618V13.8397Z" fill="#000001"/>
</g>
</svg>
