<svg width="16" height="16" viewBox="0 0 16 16" fill="none" xmlns="http://www.w3.org/2000/svg">
<g id="Size=16">
<path id="Union" fill-rule="evenodd" clip-rule="evenodd" d="M3.352 1.62147C4.57523 1.23004 6.21843 1 8 1C9.78157 1 11.4248 1.23004 12.648 1.62147C13.2553 1.81582 13.8013 2.06315 14.2114 2.3734C14.6092 2.67442 15 3.13213 15 3.75V12.25C15 12.8658 14.6136 13.3237 14.2158 13.6263C13.8069 13.9373 13.2624 14.1849 12.656 14.3792C11.4347 14.7706 9.79121 15 8 15C6.2088 15 4.56529 14.7706 3.34402 14.3792C2.73761 14.1849 2.19306 13.9373 1.7842 13.6263C1.38644 13.3237 1 12.8658 1 12.25V3.75C1 3.13213 1.39078 2.67442 1.78865 2.3734C2.19872 2.06315 2.74466 1.81582 3.352 1.62147ZM2.50944 3.75C2.52893 3.7186 2.57756 3.65746 2.69367 3.56962C2.91612 3.40131 3.28548 3.21768 3.80916 3.0501C4.84799 2.71768 6.32979 2.5 8 2.5C9.67021 2.5 11.152 2.71768 12.1908 3.0501C12.7145 3.21768 13.0839 3.40131 13.3063 3.56962C13.4224 3.65746 13.4711 3.7186 13.4906 3.75C13.4711 3.7814 13.4224 3.84254 13.3063 3.93038C13.0839 4.09869 12.7145 4.28232 12.1908 4.4499C11.152 4.78232 9.67021 5 8 5C6.32979 5 4.84799 4.78232 3.80916 4.4499C3.28548 4.28232 2.91612 4.09869 2.69367 3.93038C2.57756 3.84254 2.52893 3.7814 2.50944 3.75ZM2.5 9.72261V12.2343C2.50924 12.2552 2.54867 12.3231 2.69237 12.4325C2.91284 12.6002 3.27975 12.7835 3.80182 12.9508C4.83748 13.2827 6.31898 13.5 8 13.5C9.68102 13.5 11.1625 13.2827 12.1982 12.9508C12.7203 12.7835 13.0872 12.6002 13.3076 12.4325C13.4513 12.3231 13.4908 12.2552 13.5 12.2343V9.72261C13.228 9.83598 12.9307 9.9324 12.6193 10.015C11.4051 10.3369 9.7718 10.5 8 10.5C6.22819 10.5 4.59494 10.3369 3.38072 10.015C3.06932 9.9324 2.77202 9.83598 2.5 9.72261ZM13.5 7.97671C13.4859 7.99875 13.4448 8.04819 13.3374 8.12192C13.1238 8.26845 12.7615 8.42543 12.2349 8.56504C11.1922 8.84148 9.70041 9 8 9C6.29958 9 4.80783 8.84148 3.76511 8.56504C3.23847 8.42543 2.87618 8.26845 2.66265 8.12192C2.55521 8.04819 2.51406 7.99875 2.5 7.97671V5.54776C2.76267 5.67196 3.04973 5.78181 3.352 5.87853C4.57523 6.26997 6.21843 6.5 8 6.5C9.78157 6.5 11.4248 6.26997 12.648 5.87853C12.9503 5.78181 13.2373 5.67196 13.5 5.54776V7.97671Z" fill="black"/>
</g>
</svg>
