<svg width="24" height="24" viewBox="0 0 24 24" fill="none" xmlns="http://www.w3.org/2000/svg">
<g id="size=24">
<g id="Union">
<path d="M11.2197 8.21967C11.5126 7.92678 11.9874 7.92678 12.2803 8.21967L15 10.9393L17.7197 8.21967C18.0126 7.92678 18.4874 7.92678 18.7803 8.21967C19.0732 8.51256 19.0732 8.98744 18.7803 9.28033L16.0607 12L18.7803 14.7197C19.0732 15.0126 19.0732 15.4874 18.7803 15.7803C18.4874 16.0732 18.0126 16.0732 17.7197 15.7803L15 13.0607L12.2803 15.7803C11.9874 16.0732 11.5126 16.0732 11.2197 15.7803C10.9268 15.4874 10.9268 15.0126 11.2197 14.7197L13.9393 12L11.2197 9.28033C10.9268 8.98744 10.9268 8.51256 11.2197 8.21967Z" fill="black"/>
<path fill-rule="evenodd" clip-rule="evenodd" d="M6.57905 3.97081C7.10156 3.355 7.86834 3 8.67595 3H21.25C22.7688 3 24 4.23122 24 5.75V18.25C24 19.7688 22.7688 21 21.25 21H8.67595C7.86834 21 7.10155 20.645 6.57905 20.0292L0.178118 12.4852C-0.0593727 12.2053 -0.0593727 11.7947 0.178118 11.5148L6.57905 3.97081ZM8.67595 4.5C8.30885 4.5 7.96032 4.66136 7.72281 4.94128L1.73359 12L7.72281 19.0587C7.96032 19.3386 8.30885 19.5 8.67595 19.5H21.25C21.9404 19.5 22.5 18.9404 22.5 18.25V5.75C22.5 5.05964 21.9404 4.5 21.25 4.5H8.67595Z" fill="black"/>
</g>
</g>
</svg>
