<svg width="24" height="24" viewBox="0 0 24 24" fill="none" xmlns="http://www.w3.org/2000/svg">
<g id="Size=24">
<path id="Rectangle 1655 (Stroke)" fill-rule="evenodd" clip-rule="evenodd" d="M11.1162 2.98477L2.98455 11.1165C2.4964 11.6046 2.4964 12.3961 2.98457 12.8842L11.1163 21.0158C11.6044 21.5039 12.3959 21.5039 12.884 21.0158L21.0155 12.8842C21.5037 12.3961 21.5037 11.6046 21.0156 11.1165L12.884 2.98478C12.3959 2.49661 11.6044 2.49661 11.1162 2.98477ZM1.92389 10.0558L10.0556 1.92411C11.1295 0.850159 12.8708 0.850167 13.9447 1.92413L22.0762 10.0558C23.1501 11.1298 23.1501 12.871 22.0762 13.9449L13.9447 22.0764C12.8707 23.1504 11.1296 23.1504 10.0556 22.0764L1.92392 13.9449C0.849956 12.871 0.849944 11.1298 1.92389 10.0558Z" fill="black"/>
</g>
</svg>
