<svg width="24" height="24" viewBox="0 0 24 24" fill="none" xmlns="http://www.w3.org/2000/svg">
<g id="size=24">
<g id="Union">
<path fill-rule="evenodd" clip-rule="evenodd" d="M13.0204 4.82665C12.0238 3.99783 10.7442 3.5 9.3464 3.5C6.17076 3.5 3.5964 6.07436 3.5964 9.25C3.5964 10.2086 3.83038 11.1103 4.24369 11.9034C4.38741 12.1791 4.3769 12.4834 4.36278 12.6553C4.3457 12.8631 4.30053 13.0894 4.24535 13.3098C4.13422 13.7538 3.95889 14.266 3.78179 14.7381C3.76559 14.7813 3.74931 14.8243 3.733 14.867C4.29624 14.6532 4.92063 14.4382 5.42715 14.3223C5.83093 14.2299 6.23316 14.4823 6.32556 14.8861C6.41796 15.2899 6.16553 15.6921 5.76176 15.7845C5.22654 15.907 4.46209 16.1862 3.80082 16.4506C3.47689 16.5801 3.18903 16.7015 2.98221 16.7905C2.87892 16.8349 2.79612 16.8711 2.73948 16.8961L2.67491 16.9247L2.65872 16.9319L2.65488 16.9336L2.65396 16.934C2.36938 17.062 2.0353 17.0004 1.81508 16.7793C1.59487 16.5583 1.5345 16.224 1.66349 15.9399L1.66428 15.9382L1.66722 15.9317L1.67932 15.9048C1.69004 15.8809 1.70593 15.8453 1.72617 15.7995C1.76665 15.7079 1.82443 15.5758 1.89291 15.4151C2.03022 15.093 2.20898 14.66 2.37738 14.2112C2.54736 13.7581 2.6996 13.3078 2.79023 12.9456C2.83594 12.763 2.86019 12.6252 2.86782 12.5325L2.86936 12.5105C2.37469 11.5296 2.0964 10.4212 2.0964 9.25C2.0964 5.24594 5.34233 2 9.3464 2C11.1074 2 12.7235 2.62881 13.9795 3.67335C14.298 3.9382 14.3415 4.41108 14.0766 4.72956C13.8118 5.04803 13.3389 5.0915 13.0204 4.82665Z" fill="black"/>
<path fill-rule="evenodd" clip-rule="evenodd" d="M21.7813 20.7793C22.0015 20.5583 22.0619 20.224 21.9329 19.9399L21.9292 19.9317L21.9171 19.9048C21.9063 19.8809 21.8905 19.8453 21.8702 19.7995C21.8297 19.7079 21.772 19.5758 21.7035 19.4151C21.5662 19.093 21.3874 18.66 21.219 18.2112C21.049 17.7581 20.8968 17.3078 20.8062 16.9456C20.7604 16.763 20.7362 16.6252 20.7286 16.5325L20.727 16.5105C21.2217 15.5296 21.5 14.4212 21.5 13.25C21.5 9.24594 18.2541 6 14.25 6C10.2459 6 6.99999 9.24594 6.99999 13.25C6.99999 17.2541 10.2459 20.5 14.25 20.5C15.4195 20.5 16.5263 20.2225 17.5061 19.7292L17.5247 19.7307C17.6174 19.7387 17.7552 19.7634 17.938 19.8094C18.3005 19.9006 18.7521 20.0529 19.2065 20.2225C19.6567 20.3906 20.0915 20.5687 20.415 20.7055C20.5763 20.7737 20.7091 20.8313 20.8012 20.8716C20.8472 20.8917 20.883 20.9076 20.907 20.9183L20.9341 20.9303L20.9424 20.934C21.227 21.062 21.5611 21.0004 21.7813 20.7793ZM8.49999 13.25C8.49999 10.0744 11.0744 7.5 14.25 7.5C17.4256 7.5 20 10.0744 20 13.25C20 14.2086 19.766 15.1103 19.3527 15.9034C19.209 16.1791 19.2195 16.4834 19.2336 16.6553C19.2507 16.8631 19.2959 17.0894 19.351 17.3098C19.4622 17.7538 19.6375 18.266 19.8146 18.7381C19.8308 18.7813 19.8471 18.8243 19.8634 18.8671C19.8195 18.8504 19.7754 18.8338 19.731 18.8172C19.2583 18.6408 18.7464 18.4661 18.3041 18.3547C18.0846 18.2995 17.8598 18.254 17.654 18.2362C17.4866 18.2218 17.1803 18.2084 16.9033 18.3527C16.1103 18.766 15.2086 19 14.25 19C11.0744 19 8.49999 16.4256 8.49999 13.25Z" fill="black"/>
</g>
</g>
</svg>
