<svg width="16" height="16" viewBox="0 0 16 16" fill="none" xmlns="http://www.w3.org/2000/svg">
<g id="size=16">
<g id="Union">
<path fill-rule="evenodd" clip-rule="evenodd" d="M8.30234 3.28825C7.67252 2.76447 6.86434 2.45005 5.98088 2.45005C3.97425 2.45005 2.34755 4.07675 2.34755 6.08338C2.34755 6.6895 2.49541 7.25903 2.75644 7.75985C2.88016 7.99724 2.86769 8.24965 2.8578 8.36994C2.84516 8.52386 2.81225 8.68646 2.7742 8.83849C2.72252 9.04498 2.65131 9.27084 2.574 9.49313C2.83348 9.40317 3.09471 9.32229 3.32344 9.26994C3.7003 9.1837 4.07571 9.4193 4.16195 9.79615C4.24819 10.173 4.0126 10.5484 3.63574 10.6347C3.29552 10.7125 2.79857 10.8934 2.35809 11.0695C2.14411 11.1551 1.95384 11.2353 1.81712 11.2941C1.74886 11.3234 1.69422 11.3473 1.65695 11.3638L1.61461 11.3825L1.60414 11.3872L1.60173 11.3883C1.33613 11.5077 1.02385 11.4504 0.818321 11.2441C0.612795 11.0378 0.556452 10.7258 0.676828 10.4607L0.677276 10.4597L0.679143 10.4556L0.687008 10.4381L0.717804 10.3689C0.74449 10.3085 0.78265 10.2212 0.827912 10.115C0.918755 9.90194 1.03673 9.61616 1.14761 9.32059C1.25999 9.02107 1.3584 8.72908 1.41609 8.49857C1.43834 8.40969 1.4514 8.34208 1.45806 8.29434C1.13093 7.62623 0.94755 6.8753 0.94755 6.08338C0.94755 3.30355 3.20105 1.05005 5.98088 1.05005C7.20331 1.05005 8.32559 1.48672 9.19752 2.21184C9.49476 2.45904 9.53533 2.90039 9.28814 3.19764C9.04094 3.49488 8.59959 3.53545 8.30234 3.28825ZM1.46335 8.22585C1.46307 8.22613 1.46284 8.23124 1.46349 8.24034C1.46395 8.23012 1.46363 8.22557 1.46335 8.22585Z" fill="#000001"/>
<path fill-rule="evenodd" clip-rule="evenodd" d="M4.75 9.33333C4.75 6.52589 7.02589 4.25 9.83333 4.25C12.6408 4.25 14.9167 6.52589 14.9167 9.33333C14.9167 10.1283 14.7337 10.8824 14.407 11.5541C14.4127 11.587 14.4218 11.6308 14.436 11.6866C14.4864 11.8845 14.5757 12.1402 14.6843 12.4207C14.7705 12.6435 14.8616 12.8637 14.9456 13.0665L15.0062 13.2132C15.0545 13.3306 15.1004 13.4434 15.137 13.5394C15.1678 13.6205 15.2114 13.7385 15.2339 13.8452C15.2805 14.0664 15.2249 14.2969 15.0825 14.4724C14.9401 14.648 14.7261 14.75 14.5 14.75C14.3313 14.75 14.1683 14.7106 14.0529 14.6779C13.9253 14.6416 13.7902 14.5937 13.6594 14.5438C13.471 14.4718 13.2571 14.3819 13.0529 14.2961C12.9792 14.2652 12.9068 14.2348 12.8374 14.2059C12.5586 14.0901 12.318 13.9956 12.1318 13.9408C12.0935 13.9295 12.062 13.9213 12.0368 13.9154C11.3694 14.2368 10.6214 14.4167 9.83333 14.4167C7.02589 14.4167 4.75 12.1408 4.75 9.33333ZM6.25 9.33333C6.25 7.35431 7.85431 5.75 9.83333 5.75C11.8124 5.75 13.4167 7.35431 13.4167 9.33333C13.4167 9.93122 13.2708 10.4928 13.0134 10.9867C12.889 11.2255 12.8939 11.472 12.903 11.6015C12.9139 11.756 12.946 11.9139 12.9824 12.0566C13.0369 12.271 13.1153 12.5055 13.1989 12.733C12.9831 12.6462 12.7594 12.5619 12.5557 12.5019C12.4202 12.462 12.2663 12.4245 12.1131 12.4093C11.9831 12.3964 11.7326 12.3853 11.4867 12.5134C10.9928 12.7708 10.4312 12.9167 9.83333 12.9167C7.85431 12.9167 6.25 11.3124 6.25 9.33333ZM14.3992 11.4936C14.3995 11.4858 14.399 11.4813 14.399 11.4813C14.399 11.4813 14.3989 11.4825 14.3989 11.485C14.3989 11.487 14.3989 11.4898 14.3992 11.4936Z" fill="#000001"/>
</g>
</g>
</svg>
