<svg width="16" height="16" viewBox="0 0 16 16" fill="none" xmlns="http://www.w3.org/2000/svg">
<g id="size=16">
<g id="Union">
<path d="M11.25 1C11.6642 1 12 1.33579 12 1.75C12 2.16421 11.6642 2.5 11.25 2.5H2.25C1.83579 2.5 1.5 2.83579 1.5 3.25V9.78129L2.20586 9.27038C2.5414 9.02752 3.0103 9.10264 3.25317 9.43818C3.49603 9.77373 3.42091 10.2426 3.08537 10.4855L1.18975 11.8576C0.961484 12.0228 0.659868 12.0461 0.408909 11.9179C0.157948 11.7898 0 11.5318 0 11.25V3.25C0 2.00736 1.00736 1 2.25 1H11.25Z" fill="#000001"/>
<path fill-rule="evenodd" clip-rule="evenodd" d="M6.25 4C5.00736 4 4 5.00736 4 6.25V10.7845C4 12.0271 5.00736 13.0345 6.25 13.0345H12.2915L14.8102 14.8576C15.0385 15.0228 15.3401 15.0461 15.5911 14.9179C15.8421 14.7898 16 14.5318 16 14.25V6.25C16 5.00736 14.9926 4 13.75 4H6.25ZM5.5 6.25C5.5 5.83579 5.83579 5.5 6.25 5.5H13.75C14.1642 5.5 14.5 5.83579 14.5 6.25V12.7813L12.9742 11.6769C12.8463 11.5843 12.6924 11.5345 12.5345 11.5345H6.25C5.83579 11.5345 5.5 11.1987 5.5 10.7845V6.25Z" fill="#000001"/>
</g>
</g>
</svg>
