<svg width="16" height="16" viewBox="0 0 16 16" fill="none" xmlns="http://www.w3.org/2000/svg">
<g id="size=16">
<g id="Union">
<path fill-rule="evenodd" clip-rule="evenodd" d="M8.00005 5.05005C6.37081 5.05005 5.05005 6.37081 5.05005 8.00005C5.05005 9.62929 6.37081 10.95 8.00005 10.95C9.62929 10.95 10.95 9.62929 10.95 8.00005C10.95 6.37081 9.62929 5.05005 8.00005 5.05005ZM6.45005 8.00005C6.45005 7.14401 7.14401 6.45005 8.00005 6.45005C8.85609 6.45005 9.55005 7.14401 9.55005 8.00005C9.55005 8.85609 8.85609 9.55005 8.00005 9.55005C7.14401 9.55005 6.45005 8.85609 6.45005 8.00005Z" fill="black"/>
<path fill-rule="evenodd" clip-rule="evenodd" d="M8 0C3.58172 0 0 3.58172 0 8C0 12.4183 3.58172 16 8 16C12.4183 16 16 12.4183 16 8C16 3.58172 12.4183 0 8 0ZM1.5 8C1.5 4.41015 4.41015 1.5 8 1.5C11.5899 1.5 14.5 4.41015 14.5 8C14.5 11.5899 11.5899 14.5 8 14.5C4.41015 14.5 1.5 11.5899 1.5 8Z" fill="black"/>
</g>
</g>
</svg>
