<svg width="16" height="16" viewBox="0 0 16 16" fill="none" xmlns="http://www.w3.org/2000/svg">
<g id="Size=16, Style=Mono">
<path id="Vector" d="M12.3417 4.53605L12.4926 4.3085L12.7544 4.46755L12.8697 4.55056C13.15 4.76653 13.7385 5.31938 13.8663 6.23468C14.0887 6.19545 14.3138 6.17523 14.5394 6.1742C15.0734 6.1742 15.4318 6.29908 15.6362 6.40154L15.7405 6.45914L15.8088 6.50429L16 6.66025L15.9345 6.86042C15.8302 7.13653 15.6693 7.38548 15.4633 7.58983C15.174 7.88889 14.6649 8.24191 13.8551 8.28765L13.6769 8.29262H13.5294C13.1595 9.27044 12.6621 10.3707 11.8271 11.3586C11.3276 11.9494 10.7402 12.452 10.0875 12.847C9.29534 13.3159 8.43377 13.643 7.5384 13.8148C6.89429 13.94 6.24038 14.002 5.58524 14C4.13502 14 2.85565 13.7118 2.06819 13.2078C1.36546 12.7592 0.825325 12.0262 0.462261 11.031C0.144809 10.1247 -0.0116211 9.16547 0.000672136 8.20045C0.00204738 7.93673 0.189865 7.71938 0.4332 7.68468L0.500842 7.67984H11.0403L11.1331 7.67339L11.2816 7.6569C11.5382 7.6233 11.9278 7.5468 12.2025 7.38679C11.8739 6.84385 11.7809 6.20877 11.9338 5.53262C11.9986 5.24947 12.0998 4.97719 12.2345 4.7231L12.3417 4.53605ZM2.89044 5.78393L2.92972 5.79072C2.9664 5.80372 2.9953 5.83427 3.00734 5.87275L3.01341 5.91353V7.22839L3.00712 7.26912C2.99489 7.30753 2.96583 7.33791 2.92907 7.3507L2.89009 7.35727H1.47776C1.42327 7.35727 1.37704 7.32034 1.36073 7.26911L1.35445 7.22837V5.91317L1.36073 5.87208C1.37297 5.83367 1.40202 5.80329 1.43878 5.7905L1.47776 5.78393H2.89044ZM4.83668 5.78393L4.87598 5.79072C4.91267 5.80372 4.94157 5.83427 4.9536 5.87275L4.95967 5.91353V7.22839L4.95339 7.26912C4.94115 7.30753 4.91209 7.33791 4.87534 7.3507L4.83636 7.35727H3.42403C3.36945 7.35727 3.32307 7.32041 3.3065 7.26916L3.3 7.22837V5.91353C3.3 5.85626 3.33552 5.80768 3.38481 5.79053L3.42401 5.78393H4.83668ZM6.81255 5.78393L6.85185 5.79072C6.88854 5.80372 6.91744 5.83427 6.92947 5.87275L6.93554 5.91353V7.22839L6.92926 7.26912C6.91702 7.30753 6.88796 7.33791 6.85121 7.3507L6.81223 7.35727H5.3999C5.34542 7.35727 5.29919 7.32034 5.28286 7.26911L5.27656 7.22837V5.91317L5.28285 5.87208C5.29508 5.83367 5.32414 5.80329 5.36089 5.7905L5.39988 5.78393H6.81255ZM8.7647 5.78393L8.8039 5.79053C8.84086 5.80339 8.87008 5.83393 8.88238 5.87256L8.88871 5.91353V7.22839C8.8884 7.28544 8.85288 7.33369 8.80376 7.35072L8.7647 7.35727H7.35237C7.29789 7.35727 7.25166 7.32034 7.23534 7.26911L7.22905 7.22837V5.91317L7.23534 5.87208C7.24757 5.83367 7.27663 5.80329 7.31339 5.7905L7.35237 5.78393H8.7647ZM10.7344 5.78393L10.7736 5.79053C10.8105 5.80339 10.8398 5.83393 10.8521 5.87256L10.8584 5.91353V7.22839C10.8581 7.28544 10.8226 7.33369 10.7734 7.35072L10.7344 7.35727H9.32206C9.26758 7.35727 9.22135 7.32034 9.20503 7.26911L9.19874 7.22837V5.91317L9.20503 5.87208C9.21727 5.83367 9.24634 5.80329 9.28308 5.7905L9.32206 5.78393H10.7344ZM4.83636 3.89234L4.87533 3.89891C4.91208 3.91169 4.94115 3.94206 4.95338 3.98048L4.95967 4.02122V5.33605C4.95967 5.39308 4.9244 5.44156 4.87537 5.45887L4.83636 5.46566H3.42403C3.36936 5.46534 3.32304 5.4283 3.3065 5.37692L3.30002 5.33605V4.02122C3.30033 3.96417 3.33586 3.91592 3.38498 3.8989L3.42403 3.89234H4.83636ZM6.81223 3.89234L6.8512 3.89891C6.88795 3.91169 6.91702 3.94206 6.92925 3.98048L6.93554 4.02122V5.33605C6.93554 5.39308 6.90027 5.44156 6.85124 5.45887L6.81223 5.46566H5.3999C5.34533 5.46534 5.29915 5.42821 5.28286 5.37687L5.27659 5.33605V4.02122L5.28287 3.98049C5.2951 3.94208 5.32416 3.9117 5.36092 3.89891L5.3999 3.89234H6.81223ZM8.7647 3.89234C8.81928 3.89234 8.86565 3.92918 8.88221 3.98043L8.88871 4.02122V5.33605C8.8884 5.3932 8.85296 5.4416 8.8038 5.45889L8.7647 5.46566H7.35237C7.2978 5.46534 7.25162 5.42821 7.23533 5.37687L7.22905 5.33605V4.02122L7.23534 3.98049C7.24757 3.94208 7.27663 3.9117 7.31339 3.89891L7.35237 3.89234H8.7647ZM8.7647 2C8.81928 2 8.86565 2.03685 8.88221 2.0881L8.88871 2.12888V3.44446C8.8884 3.50149 8.85288 3.54976 8.80376 3.56679L8.7647 3.57335H7.35237C7.29789 3.57335 7.25166 3.53641 7.23534 3.48519L7.22905 3.44444V2.12888L7.23534 2.08814C7.24757 2.04973 7.27663 2.01935 7.31339 2.00657L7.35237 2H8.7647Z" fill="black"/>
</g>
</svg>
