<svg width="24" height="24" viewBox="0 0 24 24" fill="none" xmlns="http://www.w3.org/2000/svg">
<g id="Size=24, Style=Color">
<g id="Group">
<path id="Vector" d="M17.9698 7.44483L18.1773 7.13574L18.5372 7.35179L18.6959 7.46454C19.0813 7.7579 19.8905 8.50886 20.0661 9.75213C20.372 9.69885 20.6815 9.67139 20.9917 9.66999C21.7259 9.66999 22.2188 9.83962 22.4997 9.97878L22.6431 10.057L22.7371 10.1184L23 10.3302L22.91 10.6021C22.7665 10.9772 22.5453 11.3153 22.262 11.5929C21.8642 11.9991 21.1643 12.4786 20.0507 12.5408L19.8057 12.5475H19.603C19.0943 13.8757 18.4103 15.3702 17.2622 16.7122C16.5755 17.5146 15.7678 18.1973 14.8703 18.7339C13.7811 19.3708 12.5964 19.8151 11.3653 20.0485C10.4797 20.2186 9.58052 20.3027 8.6797 20.3C6.68565 20.3 4.92652 19.9086 3.84376 19.2239C2.87751 18.6146 2.13482 17.6189 1.63561 16.2672C1.19911 15.0361 0.984021 13.7331 1.00092 12.4223C1.00282 12.0641 1.26106 11.7689 1.59565 11.7217L1.68866 11.7152H16.1804L16.308 11.7064L16.5123 11.684C16.865 11.6384 17.4007 11.5344 17.7785 11.3171C17.3266 10.5796 17.1987 9.71694 17.409 8.7985C17.4981 8.4139 17.6373 8.04404 17.8224 7.6989L17.9698 7.44483ZM4.97435 9.13986L5.02837 9.1491C5.0788 9.16676 5.11854 9.20824 5.13509 9.26052L5.14343 9.31591V11.1019L5.13479 11.1573C5.11797 11.2094 5.07801 11.2507 5.02747 11.2681L4.97387 11.277H3.03192C2.95699 11.277 2.89343 11.2268 2.87101 11.1572L2.86237 11.1019V9.31542L2.87101 9.2596C2.88783 9.20743 2.92778 9.16616 2.97832 9.14879L3.03192 9.13986H4.97435ZM7.65044 9.13986L7.70447 9.1491C7.75492 9.16676 7.79466 9.20824 7.8112 9.26052L7.81955 9.31591V11.1019L7.81091 11.1573C7.79409 11.2094 7.75413 11.2507 7.70359 11.2681L7.64999 11.277H5.70804C5.63299 11.277 5.56923 11.2269 5.54644 11.1573L5.5375 11.1019V9.31591C5.5375 9.23812 5.58635 9.17212 5.65411 9.14884L5.70801 9.13986H7.65044ZM10.3673 9.13986L10.4213 9.1491C10.4717 9.16676 10.5115 9.20824 10.528 9.26052L10.5364 9.31591V11.1019L10.5277 11.1573C10.5109 11.2094 10.471 11.2507 10.4204 11.2681L10.3668 11.277H8.42486C8.34996 11.277 8.28638 11.2268 8.26393 11.1572L8.25527 11.1019V9.31542L8.26392 9.2596C8.28074 9.20743 8.32069 9.16616 8.37123 9.14879L8.42483 9.13986H10.3673ZM13.0515 9.13986L13.1054 9.14884C13.1562 9.1663 13.1964 9.20779 13.2133 9.26026L13.222 9.31591V11.1019C13.2216 11.1794 13.1727 11.245 13.1052 11.2681L13.0515 11.277H11.1095C11.0346 11.277 10.971 11.2268 10.9486 11.1572L10.9399 11.1019V9.31542L10.9486 9.2596C10.9654 9.20743 11.0054 9.16616 11.0559 9.14879L11.1095 9.13986H13.0515ZM15.7598 9.13986L15.8137 9.14884C15.8645 9.1663 15.9047 9.20779 15.9216 9.26026L15.9303 9.31591V11.1019C15.9299 11.1794 15.881 11.245 15.8135 11.2681L15.7598 11.277H13.8178C13.7429 11.277 13.6794 11.2268 13.6569 11.1572L13.6483 11.1019V9.31542L13.6569 9.2596C13.6737 9.20743 13.7137 9.16616 13.7642 9.14879L13.8178 9.13986H15.7598ZM7.64999 6.57046L7.70358 6.57938C7.75411 6.59675 7.79408 6.638 7.8109 6.69018L7.81955 6.74552V8.5315C7.81955 8.60897 7.77105 8.67482 7.70364 8.69833L7.64999 8.70755H5.70804C5.63286 8.70712 5.56918 8.6568 5.54644 8.58702L5.53753 8.5315V6.74552C5.53795 6.66803 5.5868 6.60248 5.65434 6.57936L5.70804 6.57046H7.64999ZM10.3668 6.57046L10.4204 6.57938C10.4709 6.59675 10.5109 6.638 10.5277 6.69018L10.5364 6.74552V8.5315C10.5364 8.60897 10.4879 8.67482 10.4205 8.69833L10.3668 8.70755H8.42486C8.34983 8.70712 8.28633 8.65668 8.26393 8.58694L8.2553 8.5315V6.74552L8.26395 6.69019C8.28077 6.63802 8.32072 6.59675 8.37126 6.57938L8.42486 6.57046H10.3668ZM13.0515 6.57046C13.1265 6.57046 13.1903 6.62051 13.213 6.69012L13.222 6.74552V8.5315C13.2216 8.60912 13.1728 8.67488 13.1052 8.69835L13.0515 8.70755H11.1095C11.0345 8.70712 10.971 8.65668 10.9486 8.58694L10.9399 8.5315V6.74552L10.9486 6.69019C10.9654 6.63802 11.0054 6.59675 11.0559 6.57938L11.1095 6.57046H13.0515ZM13.0515 4.00003C13.1265 4.00003 13.1903 4.05008 13.213 4.11969L13.222 4.1751V5.96209C13.2216 6.03956 13.1727 6.10512 13.1052 6.12825L13.0515 6.13716H11.1095C11.0346 6.13716 10.971 6.08699 10.9486 6.01741L10.9399 5.96206V4.1751L10.9486 4.11976C10.9654 4.06758 11.0054 4.02632 11.0559 4.00895L11.1095 4.00003H13.0515Z" fill="#2396ED"/>
</g>
</g>
</svg>
