<svg width="24" height="24" viewBox="0 0 24 24" fill="none" xmlns="http://www.w3.org/2000/svg">
<g id="size=24">
<g id="Union">
<path fill-rule="evenodd" clip-rule="evenodd" d="M4.5 3.75C4.5 3.05964 5.05964 2.5 5.75 2.5H13.25C13.6642 2.5 14 2.16421 14 1.75C14 1.33579 13.6642 1 13.25 1H5.75C4.23122 1 3 2.23122 3 3.75V20.25C3 21.7688 4.23122 23 5.75 23H19.25C20.2165 23 21 22.2165 21 21.25V8.75C21 8.33579 20.6642 8 20.25 8C19.8358 8 19.5 8.33579 19.5 8.75V17.5H5.75C5.29989 17.5 4.87503 17.6081 4.5 17.7999V3.75ZM4.5 20.25C4.5 20.9404 5.05964 21.5 5.75 21.5H19.25C19.3881 21.5 19.5 21.3881 19.5 21.25V19H5.75C5.05964 19 4.5 19.5596 4.5 20.25Z" fill="black"/>
<path d="M19.5 3.56066V5.25C19.5 5.66421 19.8358 6 20.25 6C20.6642 6 21 5.66421 21 5.25V1.75C21 1.55109 20.921 1.36032 20.7803 1.21967C20.6397 1.07902 20.4489 1 20.25 1H16.75C16.3358 1 16 1.33579 16 1.75C16 2.16421 16.3358 2.5 16.75 2.5H18.4393L15.4697 5.46967C15.1768 5.76256 15.1768 6.23744 15.4697 6.53033C15.7626 6.82322 16.2374 6.82322 16.5303 6.53033L19.5 3.56066Z" fill="black"/>
</g>
</g>
</svg>
