<svg width="16" height="16" viewBox="0 0 16 16" fill="none" xmlns="http://www.w3.org/2000/svg">
<g id="size=16">
<path id="Union" fill-rule="evenodd" clip-rule="evenodd" d="M8.5 0.75C8.5 0.335786 8.16421 0 7.75 0C7.33579 0 7 0.335786 7 0.75V2H6.40625C5.5057 2 4.64027 2.35345 4.00081 2.98539C3.36106 3.61762 3 4.47701 3 5.375C3 6.27299 3.36106 7.13238 4.00081 7.76461C4.64027 8.39655 5.5057 8.75 6.40625 8.75H7V12.5H4.25C3.83579 12.5 3.5 12.8358 3.5 13.25C3.5 13.6642 3.83579 14 4.25 14H7V15.25C7 15.6642 7.33579 16 7.75 16C8.16421 16 8.5 15.6642 8.5 15.25V14H9.59375C10.4943 14 11.3597 13.6466 11.9992 13.0146C12.6389 12.3824 13 11.523 13 10.625C13 9.72701 12.6389 8.86762 11.9992 8.23539C11.3597 7.60345 10.4943 7.25 9.59375 7.25H8.5V3.5H11.75C12.1642 3.5 12.5 3.16421 12.5 2.75C12.5 2.33579 12.1642 2 11.75 2H8.5V0.75ZM7 3.5H6.40625C5.89784 3.5 5.41201 3.69967 5.05518 4.0523C4.69865 4.40464 4.5 4.8806 4.5 5.375C4.5 5.8694 4.69865 6.34536 5.05518 6.6977C5.41201 7.05033 5.89784 7.25 6.40625 7.25H7V3.5ZM8.5 8.75V12.5H9.59375C10.1022 12.5 10.588 12.3003 10.9448 11.9477C11.3013 11.5954 11.5 11.1194 11.5 10.625C11.5 10.1306 11.3013 9.65464 10.9448 9.3023C10.588 8.94967 10.1022 8.75 9.59375 8.75H8.5Z" fill="#000001"/>
</g>
</svg>
