<svg width="24" height="24" viewBox="0 0 24 24" fill="none" xmlns="http://www.w3.org/2000/svg">
<g id="size=24">
<g id="Union">
<path d="M12.75 2.75C12.75 2.33579 12.4142 2 12 2C11.5858 2 11.25 2.33579 11.25 2.75V13.3781L7.29252 9.23214C7.00651 8.93252 6.53177 8.92148 6.23214 9.20748C5.93252 9.49349 5.92148 9.96823 6.20748 10.2679L11.4565 15.7668C11.4594 15.7699 11.4623 15.7729 11.4653 15.776C11.4702 15.7809 11.4752 15.7858 11.4802 15.7907C11.6124 15.9177 11.7909 15.9968 11.988 15.9999C11.992 16 11.996 16 12 16C12.004 16 12.008 16 12.012 15.9999C12.2024 15.9969 12.3756 15.923 12.5062 15.8034C12.5187 15.792 12.5308 15.7801 12.5425 15.7679L17.7925 10.2679C18.0785 9.96823 18.0675 9.49349 17.7679 9.20748C17.4682 8.92148 16.9935 8.93252 16.7075 9.23214L12.75 13.3781V2.75Z" fill="#000001"/>
<path d="M2.75 14C3.16421 14 3.5 14.3358 3.5 14.75V19.25C3.5 19.9404 4.05964 20.5 4.75 20.5H19.25C19.9404 20.5 20.5 19.9404 20.5 19.25V14.75C20.5 14.3358 20.8358 14 21.25 14C21.6642 14 22 14.3358 22 14.75V19.25C22 20.7688 20.7688 22 19.25 22H4.75C3.23122 22 2 20.7688 2 19.25V14.75C2 14.3358 2.33579 14 2.75 14Z" fill="#000001"/>
</g>
</g>
</svg>
