<svg width="24" height="24" viewBox="0 0 24 24" fill="none" xmlns="http://www.w3.org/2000/svg">
<g id="size=24">
<path id="Ellipse 26 (Stroke)" fill-rule="evenodd" clip-rule="evenodd" d="M12 1C12.2056 1 12.4022 1.08441 12.5438 1.23349L18.5406 7.5472C20.0658 9.18901 21 11.4052 21 13.8397C21 18.8851 16.9841 23 12 23C7.0159 23 3 18.8851 3 13.8397C3 11.4052 3.93423 9.18904 5.45948 7.54723L5.46512 7.54116L11.4562 1.23349C11.5978 1.08441 11.7944 1 12 1ZM6.55568 8.57112C5.28219 9.94338 4.5 11.7965 4.5 13.8397C4.5 18.0841 7.8714 21.5 12 21.5C16.1286 21.5 19.5 18.0841 19.5 13.8397C19.5 11.7965 18.7178 9.94338 17.4443 8.57112L12 2.83905L6.55568 8.57112Z" fill="black"/>
</g>
</svg>
