<svg width="16" height="16" viewBox="0 0 16 16" fill="none" xmlns="http://www.w3.org/2000/svg">
<g id="size=16">
<path id="Ellipse 26 (Stroke)" fill-rule="evenodd" clip-rule="evenodd" d="M7.47701 1.21243C7.76814 0.929189 8.23185 0.92919 8.52299 1.21243L12.3355 4.92154C12.3421 4.928 12.3486 4.93458 12.355 4.94128C13.3733 6.0082 14 7.45208 14 9.04058C14 12.3374 11.3082 15 8 15C4.69179 15 2 12.3374 2 9.04058C2 7.45208 2.62667 6.0082 3.64497 4.94128C3.65136 4.93458 3.65788 4.928 3.66452 4.92154L7.47701 1.21243ZM4.72085 5.98661C3.96257 6.78583 3.5 7.85929 3.5 9.04058C3.5 11.498 5.50922 13.5 8 13.5C10.4908 13.5 12.5 11.498 12.5 9.04058C12.5 7.85929 12.0374 6.78582 11.2791 5.98661L8 2.79638L4.72085 5.98661Z" fill="black"/>
</g>
</svg>
