<svg width="16" height="16" viewBox="0 0 16 16" fill="none" xmlns="http://www.w3.org/2000/svg">
<g id="size=16" clip-path="url(#clip0)">
<g id="Union">
<path fill-rule="evenodd" clip-rule="evenodd" d="M11.4362 1.00529C12.0575 0.264911 13.1613 0.168335 13.9017 0.789589L14.604 1.37891C15.3444 2.00016 15.441 3.10398 14.8197 3.84436L9.11564 10.6422C8.70215 11.135 8.19288 11.5386 7.6187 11.8287L5.04695 13.1279C4.77916 13.2631 4.45652 13.2258 4.22669 13.033C3.99686 12.8401 3.90407 12.5289 3.9908 12.2416L4.82364 9.48336C5.00958 8.86755 5.31867 8.29592 5.73216 7.80314L11.4362 1.00529ZM12.9375 1.93866C12.8317 1.84991 12.6741 1.8637 12.5853 1.96947L12.0547 2.60186L13.1369 3.51632L13.6706 2.88018C13.7594 2.77441 13.7456 2.61672 13.6398 2.52797L12.9375 1.93866ZM12.1727 4.66539L11.0905 3.75093L6.88123 8.76732C6.59832 9.10448 6.38683 9.4956 6.25961 9.91695L5.93261 10.9999L6.94235 10.4898C7.33521 10.2914 7.68366 10.0152 7.96658 9.67803L12.1727 4.66539Z" fill="black"/>
<path d="M3.25 3.49995C2.83579 3.49995 2.5 3.83574 2.5 4.24995V13.7499C2.5 14.1642 2.83579 14.4999 3.25 14.4999H12.75C13.1642 14.4999 13.5 14.1642 13.5 13.7499V8.99995C13.5 8.58574 13.8358 8.24995 14.25 8.24995C14.6642 8.24995 15 8.58574 15 8.99995V13.7499C15 14.9926 13.9926 15.9999 12.75 15.9999H3.25C2.00736 15.9999 1 14.9926 1 13.7499V4.24995C1 3.00731 2.00736 1.99995 3.25 1.99995H6C6.41421 1.99995 6.75 2.33574 6.75 2.74995C6.75 3.16416 6.41421 3.49995 6 3.49995H3.25Z" fill="black"/>
</g>
</g>
<defs>
<clipPath id="clip0">
<rect width="16" height="16" fill="white"/>
</clipPath>
</defs>
</svg>
