<svg width="16" height="16" viewBox="0 0 16 16" fill="none" xmlns="http://www.w3.org/2000/svg">
<g id="size=16">
<g id="Union">
<path fill-rule="evenodd" clip-rule="evenodd" d="M8.6752 4.17345C8.54996 3.91451 8.28766 3.75 8.00002 3.75C7.71238 3.75 7.45008 3.91451 7.32484 4.17345L6.18414 6.53198L3.63936 6.9116C3.35882 6.95345 3.12589 7.14999 3.03743 7.41948C2.94897 7.68898 3.02011 7.98533 3.22127 8.1853L5.07109 10.0241L4.63389 12.6257C4.58646 12.9079 4.70378 13.1926 4.93631 13.3594C5.16884 13.5262 5.47604 13.5462 5.7282 13.4108L8.00002 12.1915L10.2718 13.4108C10.524 13.5462 10.8312 13.5262 11.0637 13.3594C11.2963 13.1926 11.4136 12.9079 11.3661 12.6257L10.929 10.0241L12.7788 8.1853C12.9799 7.98533 13.0511 7.68898 12.9626 7.41948C12.8742 7.14999 12.6412 6.95345 12.3607 6.9116L9.8159 6.53198L8.6752 4.17345ZM7.36195 7.54185L8.00002 6.22256L8.63809 7.54185C8.74605 7.76507 8.95737 7.92051 9.20261 7.95709L10.6617 8.17475L9.59627 9.23387C9.42368 9.40543 9.34506 9.65007 9.38539 9.89007L9.63338 11.3658L8.3547 10.6795C8.13319 10.5606 7.86685 10.5606 7.64534 10.6795L6.36666 11.3658L6.61465 9.89007C6.65498 9.65007 6.57636 9.40543 6.40377 9.23387L5.33833 8.17475L6.79743 7.95709C7.04267 7.92051 7.25399 7.76507 7.36195 7.54185Z" fill="black"/>
<path fill-rule="evenodd" clip-rule="evenodd" d="M12 0.75C12 0.335786 11.6642 0 11.25 0C10.8358 0 10.5 0.335786 10.5 0.75V1H5.5V0.75C5.5 0.335786 5.16421 0 4.75 0C4.33579 0 4 0.335786 4 0.75V1H2.25C1.00736 1 0 2.00736 0 3.25V13.75C0 14.9926 1.00736 16 2.25 16H13.75C14.9926 16 16 14.9926 16 13.75V3.25C16 2.00736 14.9926 1 13.75 1H12V0.75ZM4 3.25V2.5H2.25C1.83579 2.5 1.5 2.83579 1.5 3.25V13.75C1.5 14.1642 1.83579 14.5 2.25 14.5H13.75C14.1642 14.5 14.5 14.1642 14.5 13.75V3.25C14.5 2.83579 14.1642 2.5 13.75 2.5H12V3.25C12 3.66421 11.6642 4 11.25 4C10.8358 4 10.5 3.66421 10.5 3.25V2.5H5.5V3.25C5.5 3.66421 5.16421 4 4.75 4C4.33579 4 4 3.66421 4 3.25Z" fill="black"/>
</g>
</g>
</svg>
