<svg width="16" height="16" viewBox="0 0 16 16" fill="none" xmlns="http://www.w3.org/2000/svg">
<g id="Size=16">
<g id="Union">
<path d="M1 8C1 4.68629 3.68629 2 7 2C7.89631 2 8.74866 2.19703 9.51435 2.55085C9.89036 2.7246 10.0543 3.17027 9.88057 3.54628C9.70682 3.92229 9.26115 4.08625 8.88514 3.9125C8.31267 3.64797 7.67464 3.5 7 3.5C4.51472 3.5 2.5 5.51472 2.5 8C2.5 10.4853 4.51472 12.5 7 12.5C7.67464 12.5 8.31267 12.352 8.88514 12.0875C9.26115 11.9137 9.70682 12.0777 9.88057 12.4537C10.0543 12.8297 9.89036 13.2754 9.51435 13.4491C8.74866 13.803 7.89631 14 7 14C3.68629 14 1 11.3137 1 8Z" fill="black"/>
<path d="M11.2455 4.69505C10.939 4.97368 10.9164 5.44802 11.195 5.75451L12.5546 7.25H6.75C6.33579 7.25 6 7.58579 6 8C6 8.41421 6.33579 8.75 6.75 8.75H12.5546L11.195 10.2455C10.9164 10.552 10.939 11.0263 11.2455 11.305C11.552 11.5836 12.0263 11.561 12.305 11.2545L14.8042 8.50539C14.9205 8.37789 14.9934 8.21011 14.9996 8.02542C14.9999 8.01695 15 8.00847 15 8C15 7.80453 14.9252 7.62652 14.8027 7.49303L12.305 4.7455C12.0263 4.43901 11.552 4.41642 11.2455 4.69505Z" fill="black"/>
</g>
</g>
</svg>
