<svg width="16" height="16" viewBox="0 0 16 16" fill="none" xmlns="http://www.w3.org/2000/svg">
<g id="Size=16">
<g id="Union">
<path d="M9 0.75C9 0.335786 9.33579 0 9.75 0H14.25C14.4563 0 14.6431 0.083292 14.7787 0.218082L14.7803 0.21967L14.7819 0.221263C14.853 0.2928 14.9068 0.375106 14.9431 0.462912C14.9798 0.551342 15 0.648308 15 0.75V5.25C15 5.66421 14.6642 6 14.25 6C13.8358 6 13.5 5.66421 13.5 5.25V2.56066L7.28033 8.78033C6.98744 9.07322 6.51256 9.07322 6.21967 8.78033C5.92678 8.48744 5.92678 8.01256 6.21967 7.71967L12.4393 1.5H9.75C9.33579 1.5 9 1.16421 9 0.75Z" fill="black"/>
<path d="M3.25 3.5C2.83579 3.5 2.5 3.83579 2.5 4.25V11.75C2.5 12.1642 2.83579 12.5 3.25 12.5H10.75C11.1642 12.5 11.5 12.1642 11.5 11.75V7.75C11.5 7.33579 11.8358 7 12.25 7C12.6642 7 13 7.33579 13 7.75V11.75C13 12.9926 11.9926 14 10.75 14H3.25C2.00736 14 1 12.9926 1 11.75V4.25C1 3.00736 2.00736 2 3.25 2H7.25C7.66421 2 8 2.33579 8 2.75C8 3.16421 7.66421 3.5 7.25 3.5H3.25Z" fill="black"/>
</g>
</g>
</svg>
