<svg width="24" height="24" viewBox="0 0 24 24" fill="none" xmlns="http://www.w3.org/2000/svg">
<g id="size=24">
<g id="Union">
<path d="M15 1.75C15 1.33579 15.3358 1 15.75 1H21.25C21.3517 1 21.4487 1.02024 21.5371 1.05691C21.6255 1.09351 21.7084 1.14776 21.7803 1.21967C21.8522 1.29158 21.9065 1.37445 21.9431 1.46291C21.9751 1.54009 21.9946 1.62376 21.999 1.71141C21.9997 1.72419 22 1.73706 22 1.75V7.25C22 7.66421 21.6642 8 21.25 8C20.8358 8 20.5 7.66421 20.5 7.25V3.56066L10.2803 13.7803C9.98744 14.0732 9.51256 14.0732 9.21967 13.7803C8.92678 13.4874 8.92678 13.0126 9.21967 12.7197L19.4393 2.5H15.75C15.3358 2.5 15 2.16421 15 1.75Z" fill="black"/>
<path d="M4.75 5.5C4.05964 5.5 3.5 6.05964 3.5 6.75V18.25C3.5 18.9404 4.05964 19.5 4.75 19.5H16.25C16.9404 19.5 17.5 18.9404 17.5 18.25V11.75C17.5 11.3358 17.8358 11 18.25 11C18.6642 11 19 11.3358 19 11.75V18.25C19 19.7688 17.7688 21 16.25 21H4.75C3.23122 21 2 19.7688 2 18.25V6.75C2 5.23122 3.23122 4 4.75 4H11.25C11.6642 4 12 4.33579 12 4.75C12 5.16421 11.6642 5.5 11.25 5.5H4.75Z" fill="black"/>
</g>
</g>
</svg>
