<svg width="24" height="24" viewBox="0 0 24 24" fill="none" xmlns="http://www.w3.org/2000/svg">
<g id="size=24">
<g id="Union">
<path fill-rule="evenodd" clip-rule="evenodd" d="M2.28033 1.21967C1.98744 0.926777 1.51256 0.926777 1.21967 1.21967C0.926777 1.51256 0.926777 1.98744 1.21967 2.28033L4.68777 5.74843C3.29389 6.86964 2.20396 8.15392 1.43684 9.23628C0.992352 9.86342 0.650586 10.4307 0.416801 10.8712C0.300347 11.0906 0.207001 11.2855 0.140464 11.4454C0.107477 11.5246 0.0774042 11.6041 0.0542623 11.6789C0.0379062 11.7318 0 11.8578 0 12C0 12.1162 0.0247759 12.2155 0.0374227 12.2628C0.0535592 12.3232 0.0739976 12.3835 0.0950257 12.4398C0.137367 12.5533 0.195098 12.6851 0.264273 12.8284C0.403496 13.117 0.604657 13.4848 0.863949 13.9023C1.38263 14.7374 2.14896 15.7955 3.14923 16.8377C5.14041 18.9124 8.13545 21 12 21C14.361 21 16.4003 20.2191 18.0801 19.1407L21.7197 22.7803C22.0126 23.0732 22.4874 23.0732 22.7803 22.7803C23.0732 22.4874 23.0732 22.0126 22.7803 21.7197L2.28033 1.21967ZM13.1596 14.2203L9.7798 10.8405C9.60023 11.1848 9.5 11.5778 9.5 12.0001C9.5 13.3808 10.6193 14.5001 12 14.5001C12.4223 14.5001 12.8153 14.3999 13.1596 14.2203ZM8.6882 9.74886C8.2502 10.3911 8 11.1655 8 12.0001C8 14.2092 9.79086 16.0001 12 16.0001C12.8346 16.0001 13.6089 15.7499 14.2512 15.3119L16.9912 18.0519C15.5603 18.9153 13.8909 19.5 12 19.5C8.70546 19.5 6.0755 17.7204 4.23145 15.799C3.31411 14.8432 2.61027 13.871 2.13818 13.1109C1.90209 12.7308 1.72772 12.4097 1.61525 12.1766C1.58174 12.1072 1.55504 12.0482 1.53447 12C1.57862 11.8965 1.64702 11.7529 1.74174 11.5744C1.94393 11.1935 2.25153 10.6809 2.66063 10.1036C3.39438 9.06837 4.43651 7.85093 5.75534 6.816L8.6882 9.74886Z" fill="black"/>
<path fill-rule="evenodd" clip-rule="evenodd" d="M12 4.5C11.1868 4.5 10.4168 4.60795 9.69031 4.79852C9.28966 4.90363 8.87966 4.66404 8.77455 4.26339C8.66944 3.86273 8.90903 3.45273 9.30969 3.34762C10.1546 3.12597 11.0525 3 12 3C15.8645 3 18.8596 5.08762 20.8508 7.16231C21.851 8.20454 22.6174 9.26258 23.1361 10.0977C23.3953 10.5152 23.5965 10.883 23.7357 11.1716C23.8049 11.3149 23.8626 11.4467 23.905 11.5602C23.926 11.6165 23.9464 11.6768 23.9626 11.7372C23.9752 11.7845 24 11.8838 24 12C24 12.1715 23.9433 12.3324 23.9209 12.3959C23.8864 12.4938 23.8401 12.6044 23.7861 12.7218C23.6771 12.9583 23.5209 13.2567 23.3211 13.5964C22.9209 14.2767 22.3314 15.1474 21.5622 16.0506C21.2936 16.3659 20.8203 16.4038 20.5049 16.1353C20.1896 15.8667 20.1516 15.3933 20.4202 15.078C21.1284 14.2464 21.6683 13.4477 22.0282 12.8359C22.2084 12.5295 22.3399 12.2761 22.4236 12.0943C22.4399 12.059 22.4538 12.0275 22.4655 12C22.445 11.9518 22.4183 11.8928 22.3847 11.8234C22.2723 11.5903 22.0979 11.2692 21.8618 10.8891C21.3897 10.129 20.6859 9.15678 19.7685 8.20097C17.9245 6.27957 15.2945 4.5 12 4.5ZM22.5163 11.8651C22.5165 11.865 22.5156 11.8687 22.5131 11.8769C22.5149 11.8694 22.5162 11.8653 22.5163 11.8651Z" fill="black"/>
</g>
</g>
</svg>
