<svg width="16" height="16" viewBox="0 0 16 16" fill="none" xmlns="http://www.w3.org/2000/svg">
<g id="size=16">
<g id="Union">
<path fill-rule="evenodd" clip-rule="evenodd" d="M2.28033 1.21967C1.98744 0.926777 1.51256 0.926777 1.21967 1.21967C0.926777 1.51256 0.926777 1.98744 1.21967 2.28033L2.88393 3.94459C2.07712 4.61057 1.43871 5.34951 0.976635 5.99386C0.682311 6.4043 0.453137 6.78525 0.294023 7.09686C0.214849 7.25191 0.14874 7.39816 0.100392 7.52818C0.0631165 7.62842 0 7.81065 0 8C0 8.15471 0.041248 8.29593 0.0668514 8.37542C0.0984587 8.47355 0.140638 8.57852 0.18885 8.6852C0.285811 8.89974 0.423041 9.15606 0.595948 9.43596C0.942159 9.99641 1.45041 10.6821 2.11219 11.3498C3.42961 12.6791 5.42229 14 8 14C9.48935 14 10.7863 13.5576 11.8679 12.9286L13.7197 14.7803C14.0126 15.0732 14.4874 15.0732 14.7803 14.7803C15.0732 14.4874 15.0732 14.0126 14.7803 13.7197L10.1346 9.07389C10.1322 9.07147 10.1298 9.06907 10.1273 9.06668C10.127 9.06632 10.1266 9.06596 10.1263 9.06561L6.93749 5.87683C6.93611 5.87541 6.93472 5.87399 6.93332 5.87258C6.92989 5.86911 6.92644 5.86568 6.92295 5.86229L2.28033 1.21967ZM5.40689 6.46756L3.95029 5.01095C3.21115 5.60031 2.62036 6.27568 2.19561 6.86799C1.94039 7.22389 1.7515 7.54093 1.62994 7.779C1.584 7.86898 1.55006 7.94301 1.52646 8C1.53467 8.01982 1.54437 8.04229 1.55573 8.06744C1.62097 8.21178 1.72575 8.41074 1.87209 8.64763C2.16438 9.12078 2.60356 9.71476 3.17758 10.2939C4.33175 11.4584 5.96407 12.5 8 12.5C9.02798 12.5 9.95079 12.2355 10.7626 11.8232L9.53241 10.5931C9.07856 10.8577 8.55257 10.9999 8 10.9999C6.34315 10.9999 5 9.65679 5 7.99993C5 7.44735 5.14228 6.92138 5.40689 6.46756ZM8.39213 9.45279L6.54715 7.60781C6.51636 7.73134 6.5 7.86257 6.5 7.99993C6.5 8.82836 7.17157 9.49993 8 9.49993C8.13738 9.49993 8.26861 9.48358 8.39213 9.45279Z" fill="black"/>
<path fill-rule="evenodd" clip-rule="evenodd" d="M8 3.5C7.69393 3.5 7.39818 3.52339 7.11269 3.56678C6.70318 3.62902 6.32075 3.3475 6.25851 2.93799C6.19628 2.52848 6.47779 2.14605 6.88731 2.08381C7.24608 2.02928 7.61717 2 8 2C10.5777 2 12.5704 3.32094 13.8878 4.65017C14.5496 5.31788 15.0578 6.00359 15.4041 6.56404C15.577 6.84394 15.7142 7.10026 15.8111 7.3148C15.8594 7.42148 15.9015 7.52645 15.9331 7.62458C15.9588 7.70407 16 7.84529 16 8C16 8.21005 15.9212 8.42007 15.8744 8.53715C15.8127 8.69134 15.7273 8.86911 15.6227 9.06071C15.4128 9.44535 15.1081 9.91815 14.7143 10.4163C14.4574 10.7413 13.9858 10.7965 13.6608 10.5396C13.3359 10.2827 13.2807 9.81107 13.5376 9.48612C13.8808 9.052 14.1381 8.64977 14.306 8.34216C14.384 8.19931 14.4389 8.08369 14.4735 8C14.4653 7.98017 14.4556 7.95771 14.4443 7.93256C14.379 7.78822 14.2742 7.58926 14.1279 7.35237C13.8356 6.87922 13.3964 6.28524 12.8224 5.70608C11.6682 4.54156 10.0359 3.5 8 3.5ZM14.511 8.10403C14.5109 8.10392 14.5101 8.10128 14.509 8.09635L14.5104 8.10133C14.5109 8.10322 14.5111 8.10409 14.511 8.10403Z" fill="black"/>
</g>
</g>
</svg>
