<svg viewBox="0 0 16 16" width="16" height="16" fill="currentColor" xmlns="http://www.w3.org/2000/svg">
 <g transform="translate(1, 3.163818359375)">
  <path d="M7.92595 0.200571C7.09406 -0.334215 6 0.263087 6 1.25204L6 3.05862L1.96151 0.262749C1.13247 -0.311202 0 0.282163 0 1.29049L0 8.38192C0 9.39025 1.13247 9.98361 1.96151 9.40966L6 6.61379L6 8.42038C6 9.40934 7.09406 10.0066 7.92595 9.47185L13.5013 5.88769C14.2667 5.39564 14.2667 4.27678 13.5013 3.78474L7.92595 0.200571ZM12.3631 4.83621L7.5 7.96246L7.5 1.70996L12.3631 4.83621ZM1.5 7.90478L1.5 1.76763L5.93238 4.83621L1.5 7.90478Z" fill-rule="EVENODD"></path>
 </g>
</svg>