<svg width="24" height="24" viewBox="0 0 24 24" fill="none" xmlns="http://www.w3.org/2000/svg">
<g id="size=24">
<g id="Union">
<path d="M8.45779 15.3275C8.67605 15.0679 8.9454 14.7475 9.35694 14.5827C9.57419 14.4957 9.82504 14.4625 10.1346 14.5572C10.4586 14.6563 10.9006 14.9128 11.4481 15.5078C12.1149 16.2326 12.7733 16.6773 13.4265 16.8772C14.094 17.0815 14.697 17.0116 15.2007 16.8099C15.6893 16.6142 16.066 16.303 16.3282 16.0422C16.4614 15.9098 16.5708 15.7845 16.6539 15.6856C16.6856 15.6479 16.7152 15.612 16.7389 15.5832L16.7574 15.5608C16.7711 15.5442 16.7815 15.5317 16.7899 15.5218C16.7987 15.5114 16.8021 15.5077 16.8019 15.5078C17.0824 15.203 17.0626 14.7285 16.7578 14.4481C16.453 14.1676 15.9785 14.1874 15.6981 14.4922C15.6484 14.5462 15.5969 14.6074 15.5423 14.6725C15.324 14.9321 15.0546 15.2526 14.6431 15.4174C14.4258 15.5044 14.175 15.5376 13.8654 15.4429C13.5414 15.3437 13.0994 15.0872 12.5519 14.4922C11.8851 13.7674 11.2267 13.3227 10.5735 13.1229C9.90599 12.9186 9.30305 12.9885 8.79932 13.1902C8.31075 13.3858 7.93396 13.6971 7.67178 13.9578C7.53864 14.0902 7.42917 14.2156 7.34607 14.3144C7.31437 14.3521 7.28477 14.3881 7.26106 14.4169L7.24263 14.4393C7.22894 14.4559 7.21855 14.4683 7.21012 14.4783C7.20136 14.4886 7.19794 14.4924 7.19809 14.4922C6.91762 14.797 6.93736 15.2715 7.24217 15.5519C7.54698 15.8324 8.02145 15.8127 8.30191 15.5079C8.35161 15.4538 8.40311 15.3926 8.45779 15.3275Z" fill="#000001"/>
<path fill-rule="evenodd" clip-rule="evenodd" d="M3 3.75C3 2.23122 4.23122 1 5.75 1H13.3358C13.7999 1 14.245 1.18437 14.5732 1.51256L20.4874 7.42678C20.8156 7.75497 21 8.20008 21 8.66421V20.25C21 21.7688 19.7688 23 18.25 23H5.75C4.23122 23 3 21.7688 3 20.25V3.75ZM5.75 2.5C5.05964 2.5 4.5 3.05964 4.5 3.75V20.25C4.5 20.9404 5.05964 21.5 5.75 21.5H18.25C18.9404 21.5 19.5 20.9404 19.5 20.25V9H13.75C13.3358 9 13 8.66421 13 8.25V2.5H5.75ZM14.5 3.56066L18.4393 7.5H14.5V3.56066Z" fill="#000001"/>
</g>
</g>
</svg>
