<svg width="16" height="16" viewBox="0 0 16 16" fill="none" xmlns="http://www.w3.org/2000/svg">
<g id="Size=16">
<g id="Union">
<path d="M7.22036 7.83844C7.44766 8.09822 7.42134 8.49307 7.16157 8.72037L5.69912 10L7.16157 11.2796C7.42134 11.5069 7.44766 11.9018 7.22036 12.1616C6.99306 12.4213 6.59821 12.4477 6.33843 12.2204L4.33843 10.4704C4.2028 10.3517 4.125 10.1802 4.125 10C4.125 9.81978 4.2028 9.64833 4.33843 9.52965L6.33843 7.77965C6.59821 7.55235 6.99306 7.57867 7.22036 7.83844Z" fill="black"/>
<path d="M8.83843 8.72037C8.57866 8.49307 8.55234 8.09822 8.77964 7.83844C9.00694 7.57867 9.40179 7.55235 9.66157 7.77965L11.6616 9.52965C11.7972 9.64833 11.875 9.81978 11.875 10C11.875 10.1802 11.7972 10.3517 11.6616 10.4704L9.66157 12.2204C9.40179 12.4477 9.00694 12.4213 8.77964 12.1616C8.55234 11.9018 8.57866 11.5069 8.83843 11.2796L10.3009 10L8.83843 8.72037Z" fill="black"/>
<path fill-rule="evenodd" clip-rule="evenodd" d="M3.25 0C2.00736 0 1 1.00736 1 2.25V13.75C1 14.9926 2.00736 16 3.25 16H12.75C13.9926 16 15 14.9926 15 13.75V5.45711C15 5.12559 14.8683 4.80764 14.6339 4.57322L10.4268 0.366116C10.1924 0.131695 9.87441 0 9.54289 0H3.25ZM2.5 2.25C2.5 1.83579 2.83579 1.5 3.25 1.5H9V5.25C9 5.66421 9.33579 6 9.75 6H13.5V13.75C13.5 14.1642 13.1642 14.5 12.75 14.5H3.25C2.83579 14.5 2.5 14.1642 2.5 13.75V2.25ZM12.4393 4.5L10.5 2.56066V4.5H12.4393Z" fill="black"/>
</g>
</g>
</svg>
