<svg width="24" height="24" viewBox="0 0 24 24" fill="none" xmlns="http://www.w3.org/2000/svg">
<g id="Size=24">
<g id="Union">
<path d="M13.15 12.3C13.3986 11.9687 13.8687 11.9015 14.2 12.15L17.2 14.4C17.3889 14.5417 17.5 14.764 17.5 15C17.5 15.2361 17.3889 15.4584 17.2 15.6L14.2 17.85C13.8687 18.0986 13.3986 18.0314 13.15 17.7C12.9015 17.3687 12.9687 16.8986 13.3 16.65L15.5 15L13.3 13.35C12.9687 13.1015 12.9015 12.6314 13.15 12.3Z" fill="black"/>
<path d="M10.7 13.35C11.0314 13.1015 11.0985 12.6314 10.85 12.3C10.6015 11.9687 10.1314 11.9015 9.8 12.15L6.8 14.4C6.61115 14.5417 6.5 14.764 6.5 15C6.5 15.2361 6.61115 15.4584 6.8 15.6L9.8 17.85C10.1314 18.0986 10.6015 18.0314 10.85 17.7C11.0985 17.3687 11.0314 16.8986 10.7 16.65L8.5 15L10.7 13.35Z" fill="black"/>
<path fill-rule="evenodd" clip-rule="evenodd" d="M5.75 1C4.23122 1 3 2.23122 3 3.75V20.25C3 21.7688 4.23122 23 5.75 23H18.25C19.7688 23 21 21.7688 21 20.25V8.66421C21 8.20008 20.8156 7.75497 20.4874 7.42678L14.5732 1.51256C14.245 1.18437 13.7999 1 13.3358 1H5.75ZM4.5 3.75C4.5 3.05964 5.05964 2.5 5.75 2.5H13V8.25C13 8.66421 13.3358 9 13.75 9H19.5V20.25C19.5 20.9404 18.9404 21.5 18.25 21.5H5.75C5.05964 21.5 4.5 20.9404 4.5 20.25V3.75ZM18.4393 7.5L14.5 3.56066V7.5H18.4393Z" fill="black"/>
</g>
</g>
</svg>
