<svg width="16" height="16" viewBox="0 0 16 16" fill="none" xmlns="http://www.w3.org/2000/svg">
<g id="size=16">
<path id="Union" fill-rule="evenodd" clip-rule="evenodd" d="M3.25 0C2.00736 0 1 1.00736 1 2.25V13.75C1 14.9926 2.00736 16 3.25 16H12.75C13.9926 16 15 14.9926 15 13.75V5.45711C15 5.12559 14.8683 4.80764 14.6339 4.57322L10.4268 0.366116C10.1924 0.131695 9.87441 0 9.54289 0H3.25ZM2.5 2.25C2.5 1.83579 2.83579 1.5 3.25 1.5H9V5.25C9 5.66421 9.33579 6 9.75 6H13.5V13.75C13.5 14.1642 13.1642 14.5 12.75 14.5H3.25C2.83579 14.5 2.5 14.1642 2.5 13.75V2.25ZM12.4393 4.5L10.5 2.56066V4.5H12.4393Z" fill="#000001"/>
</g>
</svg>
