<svg viewBox="0 0 16 16" width="16" height="16" fill="currentColor" xmlns="http://www.w3.org/2000/svg">
 <g transform="translate(1, 0)">
  <path d="M2.25 1.5C1.83579 1.5 1.5 1.83579 1.5 2.25L1.5 13.75C1.5 14.1642 1.83579 14.5 2.25 14.5L6.25 14.5C6.66421 14.5 7 14.8358 7 15.25C7 15.6642 6.66421 16 6.25 16L2.25 16C1.00736 16 0 14.9926 0 13.75L0 2.25C0 1.00736 1.00736 0 2.25 0L8.54289 0C8.87441 0 9.19236 0.131695 9.42678 0.366116L13.6339 4.57322C13.8683 4.80764 14 5.12559 14 5.45711L14 6.75C14 7.16421 13.6642 7.5 13.25 7.5C12.8358 7.5 12.5 7.16421 12.5 6.75L12.5 6L8.75 6C8.33579 6 8 5.66421 8 5.25L8 1.5L2.25 1.5ZM9.5 2.56066L11.4393 4.5L9.5 4.5L9.5 2.56066Z" fill-rule="EVENODD"></path>
  <path d="M15 12C15 14.2091 13.2091 16 11 16C8.79086 16 7 14.2091 7 12C7 9.79086 8.79086 8 11 8C13.2091 8 15 9.79086 15 12ZM13.2884 10.7279C13.5768 11.0253 13.5695 11.5001 13.2721 11.7884L10.8659 14.1218C10.5749 14.4039 10.1126 14.4039 9.82164 14.1218L8.72789 13.0612C8.43053 12.7728 8.42322 12.298 8.71157 12.0006C8.99993 11.7033 9.47474 11.6959 9.77211 11.9843L10.3438 12.5386L12.2279 10.7116C12.5253 10.4232 13.0001 10.4305 13.2884 10.7279Z" fill-rule="EVENODD"></path>
 </g>
</svg>