<svg width="16" height="16" viewBox="0 0 16 16" fill="none" xmlns="http://www.w3.org/2000/svg">
<g id="size=16">
<g id="Union">
<path fill-rule="evenodd" clip-rule="evenodd" d="M3.25 1.5C2.83579 1.5 2.5 1.83579 2.5 2.25V13.75C2.5 14.1642 2.83579 14.5 3.25 14.5H7.75C8.16421 14.5 8.5 14.8358 8.5 15.25C8.5 15.6642 8.16421 16 7.75 16H3.25C2.00736 16 1 14.9926 1 13.75V2.25C1 1.00736 2.00736 0 3.25 0H9.54289C9.87441 0 10.1924 0.131695 10.4268 0.366116L14.6339 4.57322C14.8683 4.80764 15 5.12559 15 5.45711V7.5C15 7.91421 14.6642 8.25 14.25 8.25C13.8358 8.25 13.5 7.91421 13.5 7.5V6H9.75C9.33579 6 9 5.66421 9 5.25V1.5H3.25ZM10.5 2.56066L12.4393 4.5H10.5V2.56066Z" fill="black"/>
<path fill-rule="evenodd" clip-rule="evenodd" d="M11 9C9.89543 9 9 9.89543 9 11V14C9 15.1046 9.89543 16 11 16H14C15.1046 16 16 15.1046 16 14V11C16 9.89543 15.1046 9 14 9H11ZM11.5303 14.5303L12.5 13.5607L13.4697 14.5303C13.7626 14.8232 14.2374 14.8232 14.5303 14.5303C14.8232 14.2374 14.8232 13.7626 14.5303 13.4697L13.5607 12.5L14.5303 11.5303C14.8232 11.2374 14.8232 10.7626 14.5303 10.4697C14.2374 10.1768 13.7626 10.1768 13.4697 10.4697L12.5 11.4393L11.5303 10.4697C11.2374 10.1768 10.7626 10.1768 10.4697 10.4697C10.1768 10.7626 10.1768 11.2374 10.4697 11.5303L11.4393 12.5L10.4697 13.4697C10.1768 13.7626 10.1768 14.2374 10.4697 14.5303C10.7626 14.8232 11.2374 14.8232 11.5303 14.5303Z" fill="black"/>
</g>
</g>
</svg>
