<svg width="24" height="24" viewBox="0 0 24 24" fill="none" xmlns="http://www.w3.org/2000/svg">
<g id="size=24">
<path id="Union" fill-rule="evenodd" clip-rule="evenodd" d="M5.25 1C4.00736 1 3 2.00736 3 3.25V14.75C3 15.9926 4.00736 17 5.25 17H6V17.75C6 18.9926 7.00736 20 8.25 20H9V20.75C9 21.9926 10.0074 23 11.25 23H19.75C20.9926 23 22 21.9926 22 20.75V12.8713C22 12.2746 21.7629 11.7023 21.341 11.2803L19.0303 8.96967C18.9402 8.87959 18.833 8.81721 18.719 8.78254C18.618 8.59987 18.4912 8.43057 18.341 8.28033L16.0303 5.96967C15.9402 5.87959 15.833 5.81721 15.719 5.78254C15.618 5.59987 15.4912 5.43057 15.341 5.28033L11.7197 1.65901C11.2977 1.23705 10.7254 1 10.1287 1H5.25ZM4.5 3.25C4.5 2.83579 4.83579 2.5 5.25 2.5H10V6.25C10 6.66421 10.3358 7 10.75 7H14.5V14.75C14.5 15.1642 14.1642 15.5 13.75 15.5H5.25C4.83579 15.5 4.5 15.1642 4.5 14.75V3.25ZM13.4393 5.5L11.5 3.56066V5.5H13.4393ZM19 11.0607V17.75C19 18.9926 17.9926 20 16.75 20H10.5V20.75C10.5 21.1642 10.8358 21.5 11.25 21.5H19.75C20.1642 21.5 20.5 21.1642 20.5 20.75V12.8713C20.5 12.6724 20.421 12.4816 20.2803 12.341L19 11.0607ZM7.5 17.75V17H13.75C14.9926 17 16 15.9926 16 14.75V8.06066L17.2803 9.34099C17.421 9.48164 17.5 9.67241 17.5 9.87132V17.75C17.5 18.1642 17.1642 18.5 16.75 18.5H8.25C7.83579 18.5 7.5 18.1642 7.5 17.75Z" fill="#000001"/>
</g>
</svg>
