<svg width="16" height="16" viewBox="0 0 16 16" fill="none" xmlns="http://www.w3.org/2000/svg">
<g id="size=16">
<path id="Union" fill-rule="evenodd" clip-rule="evenodd" d="M1 2.25C1 1.00736 2.00736 0 3.25 0H8.04289C8.37441 0 8.69236 0.131695 8.92678 0.366116L12.1339 3.57322C12.21 3.64937 12.2753 3.73432 12.3288 3.82569C12.4016 3.86119 12.4698 3.90919 12.5303 3.96967L14.6339 6.07322C14.8683 6.30764 15 6.62559 15 6.95711V13.75C15 14.9926 13.9926 16 12.75 16H5.75C4.50736 16 3.5 14.9926 3.5 13.75V13.5H3.25C2.00736 13.5 1 12.4926 1 11.25V2.25ZM3.25 1.5C2.83579 1.5 2.5 1.83579 2.5 2.25V11.25C2.5 11.6642 2.83579 12 3.25 12H10.25C10.6642 12 11 11.6642 11 11.25V6H7.75C7.33579 6 7 5.66421 7 5.25V1.5H3.25ZM8.5 2.06066V4.5H10.9393L8.5 2.06066ZM12.5 11.25V6.06066L13.5 7.06066V13.75C13.5 14.1642 13.1642 14.5 12.75 14.5H5.75C5.33579 14.5 5 14.1642 5 13.75V13.5H10.25C11.4926 13.5 12.5 12.4926 12.5 11.25Z" fill="black"/>
</g>
</svg>
