<svg width="24" height="24" viewBox="0 0 24 24" fill="none" xmlns="http://www.w3.org/2000/svg">
<g id="Size=24">
<g id="Union">
<path fill-rule="evenodd" clip-rule="evenodd" d="M5.75 2.5C5.05964 2.5 4.5 3.05964 4.5 3.75V20.25C4.5 20.9404 5.05964 21.5 5.75 21.5H10.25C10.6642 21.5 11 21.8358 11 22.25C11 22.6642 10.6642 23 10.25 23H5.75C4.23122 23 3 21.7688 3 20.25V3.75C3 2.23122 4.23122 1 5.75 1H13.3358C13.7999 1 14.245 1.18437 14.5732 1.51256L20.4874 7.42678C20.8156 7.75497 21 8.20008 21 8.66421V12.25C21 12.6642 20.6642 13 20.25 13C19.8358 13 19.5 12.6642 19.5 12.25V9H13.75C13.3358 9 13 8.66421 13 8.25V2.5H5.75ZM14.5 3.56066L18.4393 7.5H14.5V3.56066Z" fill="black"/>
<path fill-rule="evenodd" clip-rule="evenodd" d="M14 14C12.8954 14 12 14.8954 12 16V22C12 23.1046 12.8954 24 14 24H20C21.1046 24 22 23.1046 22 22V16C22 14.8954 21.1046 14 20 14H14ZM19.7803 17.2803C20.0732 16.9874 20.0732 16.5126 19.7803 16.2197C19.4874 15.9268 19.0126 15.9268 18.7197 16.2197L17 17.9393L15.2803 16.2197C14.9874 15.9268 14.5126 15.9268 14.2197 16.2197C13.9268 16.5126 13.9268 16.9874 14.2197 17.2803L15.9393 19L14.2197 20.7197C13.9268 21.0126 13.9268 21.4874 14.2197 21.7803C14.5126 22.0732 14.9874 22.0732 15.2803 21.7803L17 20.0607L18.7197 21.7803C19.0126 22.0732 19.4874 22.0732 19.7803 21.7803C20.0732 21.4874 20.0732 21.0126 19.7803 20.7197L18.0607 19L19.7803 17.2803Z" fill="black"/>
</g>
</g>
</svg>
