<svg viewBox="0 0 24 24" width="24" height="24" fill="currentColor" xmlns="http://www.w3.org/2000/svg">
 <g transform="translate(1, 1)">
  <path d="M11 0C4.92487 0 0 4.92487 0 11C0 17.0751 4.92487 22 11 22C17.0751 22 22 17.0751 22 11C22 4.92487 17.0751 0 11 0ZM4 7.75C4 7.33579 4.33579 7 4.75 7L17.25 7C17.6642 7 18 7.33579 18 7.75C18 8.16421 17.6642 8.5 17.25 8.5L4.75 8.5C4.33579 8.5 4 8.16421 4 7.75ZM6.5 11.75C6.5 11.3358 6.83579 11 7.25 11L14.75 11C15.1642 11 15.5 11.3358 15.5 11.75C15.5 12.1642 15.1642 12.5 14.75 12.5L7.25 12.5C6.83579 12.5 6.5 12.1642 6.5 11.75ZM9 15.75C9 15.3358 9.33579 15 9.75 15L12.25 15C12.6642 15 13 15.3358 13 15.75C13 16.1642 12.6642 16.5 12.25 16.5L9.75 16.5C9.33579 16.5 9 16.1642 9 15.75Z" fill-rule="EVENODD"></path>
 </g>
</svg>