<svg width="16" height="16" viewBox="0 0 16 16" fill="none" xmlns="http://www.w3.org/2000/svg">
<g id="size=16">
<path id="Subtract" fill-rule="evenodd" clip-rule="evenodd" d="M8 0C3.58172 0 0 3.58172 0 8C0 12.4183 3.58172 16 8 16C12.4183 16 16 12.4183 16 8C16 3.58172 12.4183 0 8 0ZM4.25 5C3.83579 5 3.5 5.33579 3.5 5.75C3.5 6.16421 3.83579 6.5 4.25 6.5H11.75C12.1642 6.5 12.5 6.16421 12.5 5.75C12.5 5.33579 12.1642 5 11.75 5H4.25ZM5.75 7.5C5.33579 7.5 5 7.83579 5 8.25C5 8.66421 5.33579 9 5.75 9H10.25C10.6642 9 11 8.66421 11 8.25C11 7.83579 10.6642 7.5 10.25 7.5H5.75ZM6.25 10.75C6.25 10.3358 6.58579 10 7 10H9C9.41421 10 9.75 10.3358 9.75 10.75C9.75 11.1642 9.41421 11.5 9 11.5H7C6.58579 11.5 6.25 11.1642 6.25 10.75Z" fill="#000001"/>
</g>
</svg>
