<svg width="24" height="24" viewBox="0 0 24 24" fill="none" xmlns="http://www.w3.org/2000/svg">
<g id="Size=24">
<g id="Union">
<path d="M8.25 12C7.83579 12 7.5 12.3358 7.5 12.75C7.5 13.1642 7.83579 13.5 8.25 13.5H15.75C16.1642 13.5 16.5 13.1642 16.5 12.75C16.5 12.3358 16.1642 12 15.75 12H8.25Z" fill="black"/>
<path d="M5 8.75C5 8.33579 5.33579 8 5.75 8H18.25C18.6642 8 19 8.33579 19 8.75C19 9.16421 18.6642 9.5 18.25 9.5H5.75C5.33579 9.5 5 9.16421 5 8.75Z" fill="black"/>
<path d="M10.75 16C10.3358 16 10 16.3358 10 16.75C10 17.1642 10.3358 17.5 10.75 17.5H13.25C13.6642 17.5 14 17.1642 14 16.75C14 16.3358 13.6642 16 13.25 16H10.75Z" fill="black"/>
<path fill-rule="evenodd" clip-rule="evenodd" d="M12 1C5.92487 1 1 5.92487 1 12C1 18.0751 5.92487 23 12 23C18.0751 23 23 18.0751 23 12C23 5.92487 18.0751 1 12 1ZM2.5 12C2.5 6.75329 6.75329 2.5 12 2.5C17.2467 2.5 21.5 6.75329 21.5 12C21.5 17.2467 17.2467 21.5 12 21.5C6.75329 21.5 2.5 17.2467 2.5 12Z" fill="black"/>
</g>
</g>
</svg>
