<svg width="16" height="16" viewBox="0 0 16 16" fill="none" xmlns="http://www.w3.org/2000/svg">
<g id="size=16">
<path id="Vector (Stroke)" fill-rule="evenodd" clip-rule="evenodd" d="M4.92495 0.826665C6.42836 0.0878342 8.18676 -0.160189 9.94699 0.24005C14.0306 1.16858 16.5883 5.23174 15.6598 9.31537C15.568 9.71927 15.1661 9.97225 14.7622 9.88041C14.3583 9.78857 14.1053 9.38669 14.1971 8.98279C14.942 5.70697 12.8902 2.44757 9.61442 1.70272C8.20114 1.38137 6.7929 1.58003 5.58653 2.17289C5.21478 2.35558 4.76532 2.20231 4.58263 1.83057C4.39994 1.45882 4.5532 1.00936 4.92495 0.826665ZM3.27762 2.90284C3.6073 3.1536 3.67128 3.62415 3.42051 3.95383C2.91149 4.62304 2.53349 5.40961 2.33434 6.28544C2.07403 7.43028 1.80737 8.37318 1.52292 9.18593C1.38609 9.57689 0.958234 9.78291 0.567273 9.64608C0.176311 9.50925 -0.0297033 9.08139 0.107126 8.69043C0.368753 7.94288 0.62078 7.05629 0.871675 5.95287C1.11924 4.86407 1.59054 3.88198 2.22663 3.04572C2.4774 2.71604 2.94794 2.65207 3.27762 2.90284ZM3.53674 6.55885C4.13059 3.94711 6.72924 2.31129 9.34098 2.90514C10.9054 3.26085 12.1194 4.33657 12.7134 5.7002C12.8788 6.07994 12.7051 6.52189 12.3253 6.68732C11.9456 6.85274 11.5036 6.679 11.3382 6.29925C10.9265 5.35405 10.0881 4.6133 9.0084 4.36781C7.20447 3.95763 5.40958 5.08749 4.9994 6.89143C4.82518 7.65765 4.64538 8.35193 4.45621 8.99032C4.33853 9.38746 3.92118 9.61401 3.52403 9.49633C3.12689 9.37864 2.90034 8.9613 3.01803 8.56415C3.19664 7.96138 3.36849 7.29878 3.53674 6.55885ZM7.08513 5.87725C7.55115 5.56416 8.14287 5.43548 8.73496 5.57011C9.87481 5.82929 10.5887 6.96343 10.3296 8.10328C10.1174 9.03619 9.89172 9.90195 9.64513 10.717C9.52519 11.1135 9.10655 11.3376 8.71009 11.2177C8.31362 11.0977 8.08946 10.6791 8.2094 10.2826C8.44424 9.5064 8.66124 8.67514 8.86689 7.7707C8.94239 7.43865 8.73442 7.10828 8.40238 7.03278C8.22983 6.99355 8.0589 7.03013 7.92163 7.12235C7.57781 7.35334 7.11183 7.26188 6.88083 6.91805C6.64984 6.57423 6.7413 6.10825 7.08513 5.87725ZM12.4296 7.81176C12.8335 7.9036 13.0865 8.30548 12.9947 8.70938C12.4251 11.2145 11.7457 13.3359 10.8171 15.3179C10.6413 15.693 10.1948 15.8546 9.81973 15.6789C9.44464 15.5031 9.28304 15.0566 9.45878 14.6815C10.3302 12.8216 10.9793 10.8077 11.532 8.3768C11.6239 7.9729 12.0257 7.71992 12.4296 7.81176ZM6.66239 8.48507C7.06094 8.59791 7.29254 9.01248 7.1797 9.41102C6.64901 11.2853 6.03364 12.7949 5.25019 14.2053C5.19313 14.3081 5.13512 14.4104 5.07613 14.5124C4.86872 14.8709 4.40993 14.9934 4.05138 14.786C3.69283 14.5786 3.57031 14.1198 3.77772 13.7613C3.83239 13.6668 3.88611 13.572 3.9389 13.477C4.65882 12.1809 5.23285 10.7809 5.73643 9.00237C5.84928 8.60383 6.26384 8.37222 6.66239 8.48507ZM3.1752 10.4825C3.55431 10.6494 3.72636 11.092 3.55948 11.4711C3.34087 11.9678 3.10902 12.4317 2.86095 12.8783C2.65981 13.2404 2.20322 13.3709 1.84112 13.1698C1.47902 12.9687 1.34852 12.5121 1.54966 12.15C1.77589 11.7427 1.98707 11.3201 2.1866 10.8668C2.35348 10.4877 2.79609 10.3157 3.1752 10.4825ZM14.536 10.7785C14.9344 10.8919 15.1653 11.3069 15.0518 11.7052C14.8004 12.588 14.5253 13.4365 14.2192 14.2609C14.075 14.6492 13.6434 14.8471 13.2551 14.7029C12.8667 14.5587 12.6689 14.127 12.813 13.7387C13.1042 12.9545 13.3674 12.1434 13.6092 11.2943C13.7227 10.8959 14.1376 10.665 14.536 10.7785ZM8.32519 12.308C8.70724 12.4681 8.88723 12.9075 8.7272 13.2896C8.45269 13.9449 8.15484 14.5725 7.82848 15.1851C7.7665 15.3014 7.70351 15.4172 7.63947 15.5325C7.43834 15.8946 6.98174 16.0251 6.61964 15.8239C6.25754 15.6228 6.12705 15.1662 6.32818 14.8041C6.38799 14.6964 6.44679 14.5884 6.50463 14.4798C6.80892 13.9086 7.0869 13.323 7.34366 12.71C7.50369 12.328 7.94313 12.148 8.32519 12.308Z" fill="black"/>
</g>
</svg>
