<svg width="16" height="16" viewBox="0 0 16 16" fill="none" xmlns="http://www.w3.org/2000/svg">
<g id="Size=16">
<path id="Union" d="M2.25 1C1.00736 1 0 2.00736 0 3.25V4.25C0 4.66421 0.335786 5 0.75 5H13.25C13.6642 5 14 5.33579 14 5.75C14 6.16421 13.6642 6.5 13.25 6.5H0.75C0.335786 6.5 0 6.83579 0 7.25V12.75C0 13.9926 1.00736 15 2.25 15H13.75C14.9926 15 16 13.9926 16 12.75V5.25C16 4.00736 14.9926 3 13.75 3H9.87132C9.67241 3 9.48164 2.92098 9.34099 2.78033L8.21967 1.65901C7.79771 1.23705 7.22542 1 6.62868 1H2.25Z" fill="black"/>
</g>
</svg>
