<svg width="24" height="24" viewBox="0 0 24 24" fill="none" xmlns="http://www.w3.org/2000/svg">
<g id="Size=24">
<g id="Union">
<path d="M2.5 4.75C2.5 4.05964 3.05964 3.5 3.75 3.5H9.42157C9.75309 3.5 10.071 3.6317 10.3055 3.86612L11.1339 4.69454C11.6496 5.21027 12.3491 5.5 13.0784 5.5H20.25C20.9404 5.5 21.5 6.05964 21.5 6.75V15.75C21.5 16.1642 21.8358 16.5 22.25 16.5C22.6642 16.5 23 16.1642 23 15.75V6.75C23 5.23122 21.7688 4 20.25 4H13.0784C12.7469 4 12.429 3.8683 12.1945 3.63388L11.3661 2.80546C10.8504 2.28973 10.1509 2 9.42157 2H3.75C2.23122 2 1 3.23122 1 4.75V19.25C1 20.7688 2.23122 22 3.75 22H5.25C5.66421 22 6 21.6642 6 21.25C6 20.8358 5.66421 20.5 5.25 20.5H3.75C3.05964 20.5 2.5 19.9404 2.5 19.25V8.5H19.25C19.6642 8.5 20 8.16421 20 7.75C20 7.33579 19.6642 7 19.25 7H2.5V4.75Z" fill="black"/>
<path d="M8.31789 17.9284C8.85047 17.3436 9.58866 16.9999 10.375 16.9999H14.625C15.4113 16.9999 16.1495 17.3436 16.6821 17.9284C17.2126 18.5108 17.5 19.287 17.5 20.0833V21.2499C17.5 21.6642 17.1642 21.9999 16.75 21.9999C16.3358 21.9999 16 21.6642 16 21.2499V20.0833C16 19.6419 15.8397 19.2311 15.5731 18.9384C15.3086 18.648 14.9658 18.4999 14.625 18.4999H10.375C10.0342 18.4999 9.69135 18.648 9.4269 18.9384C9.16033 19.2311 9 19.6419 9 20.0833V21.2499C9 21.6642 8.66421 21.9999 8.25 21.9999C7.83579 21.9999 7.5 21.6642 7.5 21.2499V20.0833C7.5 19.287 7.78744 18.5108 8.31789 17.9284Z" fill="black"/>
<path fill-rule="evenodd" clip-rule="evenodd" d="M12.5 9.99994C10.8431 9.99994 9.5 11.3431 9.5 12.9999C9.5 14.6568 10.8431 15.9999 12.5 15.9999C14.1569 15.9999 15.5 14.6568 15.5 12.9999C15.5 11.3431 14.1569 9.99994 12.5 9.99994ZM11 12.9999C11 12.1715 11.6716 11.4999 12.5 11.4999C13.3284 11.4999 14 12.1715 14 12.9999C14 13.8284 13.3284 14.4999 12.5 14.4999C11.6716 14.4999 11 13.8284 11 12.9999Z" fill="black"/>
<path d="M18.2748 17.5586C18.3805 17.1581 18.7909 16.9191 19.1914 17.0248C19.8561 17.2002 20.4418 17.5955 20.8584 18.1448C21.2748 18.6938 21.4995 19.3664 21.5 20.0569V21.2499C21.5 21.6642 21.1642 21.9999 20.75 21.9999C20.3358 21.9999 20 21.6642 20 21.2499V20.0577C19.9997 19.6914 19.8803 19.3374 19.6632 19.0512C19.4463 18.7652 19.145 18.5639 18.8086 18.4751C18.4081 18.3694 18.1691 17.9591 18.2748 17.5586Z" fill="black"/>
<path d="M17.1857 10.0233C16.7844 9.92074 16.3759 10.1629 16.2733 10.5643C16.1708 10.9656 16.413 11.374 16.8143 11.4766C17.1539 11.5634 17.4546 11.7604 17.6691 12.0362C17.8837 12.3121 18 12.6511 18 12.9999C18 13.3487 17.8837 13.6878 17.6691 13.9636C17.4546 14.2395 17.1539 14.4365 16.8143 14.5233C16.413 14.6258 16.1708 15.0343 16.2733 15.4356C16.3759 15.8369 16.7844 16.0791 17.1857 15.9766C17.8473 15.8075 18.434 15.4234 18.8532 14.8845C19.2723 14.3456 19.5 13.6826 19.5 12.9999C19.5 12.3173 19.2723 11.6543 18.8532 11.1153C18.434 10.5764 17.8473 10.1923 17.1857 10.0233Z" fill="black"/>
</g>
</g>
</svg>
