<svg width="16" height="16" viewBox="0 0 16 16" fill="none" xmlns="http://www.w3.org/2000/svg">
<g id="size=16">
<path id="Subtract" fill-rule="evenodd" clip-rule="evenodd" d="M0 3.25C0 2.00736 1.00736 1 2.25 1H6.62868C7.22542 1 7.79771 1.23705 8.21967 1.65901L9.34099 2.78033C9.48164 2.92098 9.67241 3 9.87132 3H13.75C14.9926 3 16 4.00736 16 5.25V12.75C16 13.9926 14.9926 15 13.75 15H2.25C1.00736 15 0 13.9926 0 12.75V3.25ZM7.75 6C8.16421 6 8.5 6.33579 8.5 6.75V8H9.75C10.1642 8 10.5 8.33579 10.5 8.75C10.5 9.16421 10.1642 9.5 9.75 9.5H8.5V10.75C8.5 11.1642 8.16421 11.5 7.75 11.5C7.33579 11.5 7 11.1642 7 10.75V9.5H5.75C5.33579 9.5 5 9.16421 5 8.75C5 8.33579 5.33579 8 5.75 8H7V6.75C7 6.33579 7.33579 6 7.75 6Z" fill="black"/>
</g>
</svg>
