<svg width="24" height="24" viewBox="0 0 24 24" fill="none" xmlns="http://www.w3.org/2000/svg">
<g id="size=24">
<path id="Union" fill-rule="evenodd" clip-rule="evenodd" d="M3.75 2C2.23122 2 1 3.23122 1 4.75V5.75C1 6.16421 1.33579 6.5 1.75 6.5H20.25C20.6642 6.5 21 6.83579 21 7.25C21 7.66421 20.6642 8 20.25 8H1.75C1.33579 8 1 8.33579 1 8.75V19.25C1 20.7688 2.23122 22 3.75 22H20.25C21.7688 22 23 20.7688 23 19.25V6.75C23 5.23122 21.7688 4 20.25 4H13.0784C12.7469 4 12.429 3.8683 12.1945 3.63388L11.3661 2.80546C10.8504 2.28973 10.1509 2 9.42157 2H3.75ZM8 13.75C8 13.3358 8.33579 13 8.75 13H15.25C15.6642 13 16 13.3358 16 13.75C16 14.1642 15.6642 14.5 15.25 14.5H8.75C8.33579 14.5 8 14.1642 8 13.75Z" fill="#000001"/>
</g>
</svg>
