<svg width="24" height="24" viewBox="0 0 24 24" fill="none" xmlns="http://www.w3.org/2000/svg">
<g id="Size=24">
<g id="Union">
<path d="M3.75 3.5C3.05964 3.5 2.5 4.05964 2.5 4.75V7H19.25C19.6642 7 20 7.33579 20 7.75C20 8.16421 19.6642 8.5 19.25 8.5H2.5V19.25C2.5 19.9404 3.05964 20.5 3.75 20.5H10.5C10.9142 20.5 11.25 20.8358 11.25 21.25C11.25 21.6642 10.9142 22 10.5 22H3.75C2.23122 22 1 20.7688 1 19.25V4.75C1 3.23122 2.23122 2 3.75 2H9.42157C10.1509 2 10.8504 2.28973 11.3661 2.80546L12.1945 3.63388C12.429 3.8683 12.7469 4 13.0784 4H20.25C21.7688 4 23 5.23122 23 6.75V12.25C23 12.6642 22.6642 13 22.25 13C21.8358 13 21.5 12.6642 21.5 12.25V6.75C21.5 6.05964 20.9404 5.5 20.25 5.5H13.0784C12.3491 5.5 11.6496 5.21027 11.1339 4.69454L10.3055 3.86612C10.071 3.6317 9.75309 3.5 9.42157 3.5H3.75Z" fill="black"/>
<path fill-rule="evenodd" clip-rule="evenodd" d="M17.6736 10.4201C17.5476 10.163 17.2863 10 17 10C16.7137 10 16.4524 10.163 16.3265 10.4201L14.6462 13.8505L10.8907 14.4036C10.609 14.4451 10.3751 14.6426 10.2869 14.9133C10.1987 15.1841 10.2714 15.4814 10.4747 15.6809L13.1949 18.3508L12.5527 22.1242C12.5047 22.4059 12.621 22.6903 12.8526 22.8578C13.0841 23.0252 13.3907 23.0465 13.6432 22.9127L17 21.1338L20.3568 22.9127C20.6093 23.0465 20.9159 23.0252 21.1475 22.8578C21.379 22.6903 21.4953 22.4059 21.4474 22.1242L20.8052 18.3508L23.5254 15.6809C23.7286 15.4814 23.8013 15.1841 23.7131 14.9133C23.6249 14.6426 23.391 14.4451 23.1093 14.4036L19.3539 13.8505L17.6736 10.4201ZM15.8196 14.8649L17 12.455L18.1805 14.8649C18.2892 15.0868 18.5002 15.2409 18.7447 15.277L21.3974 15.6677L19.4747 17.5549C19.2994 17.7269 19.2194 17.9739 19.2607 18.216L19.713 20.8739L17.3512 19.6223C17.1316 19.5059 16.8685 19.5059 16.6488 19.6223L14.287 20.8739L14.7394 18.216C14.7806 17.9739 14.7007 17.7269 14.5254 17.5549L12.6026 15.6677L15.2553 15.277C15.4998 15.2409 15.7109 15.0868 15.8196 14.8649Z" fill="black"/>
</g>
</g>
</svg>
