<svg width="24" height="24" viewBox="0 0 24 24" fill="none" xmlns="http://www.w3.org/2000/svg">
<g id="Size=24">
<path id="Subtract" fill-rule="evenodd" clip-rule="evenodd" d="M1 4.75C1 3.23122 2.23122 2 3.75 2H9.42157C10.1509 2 10.8504 2.28973 11.3661 2.80546L12.1945 3.63388C12.429 3.8683 12.7469 4 13.0784 4H20.25C21.7688 4 23 5.23122 23 6.75V19.25C23 20.7688 21.7688 22 20.25 22H3.75C2.23122 22 1 20.7688 1 19.25V8.75C1 8.33579 1.33579 8 1.75 8H20.25C20.6642 8 21 7.66421 21 7.25C21 6.83579 20.6642 6.5 20.25 6.5H1.75C1.33579 6.5 1 6.16421 1 5.75V4.75ZM11.75 10.5C12.1642 10.5 12.5 10.8358 12.5 11.25V13.5H14.75C15.1642 13.5 15.5 13.8358 15.5 14.25C15.5 14.6642 15.1642 15 14.75 15H12.5V17.25C12.5 17.6642 12.1642 18 11.75 18C11.3358 18 11 17.6642 11 17.25V15H8.75C8.33579 15 8 14.6642 8 14.25C8 13.8358 8.33579 13.5 8.75 13.5H11V11.25C11 10.8358 11.3358 10.5 11.75 10.5Z" fill="black"/>
</g>
</svg>
