<svg width="16" height="16" viewBox="0 0 16 16" fill="none" xmlns="http://www.w3.org/2000/svg">
<g id="size=16">
<g id="Union">
<path d="M5 6C5 5.44772 5.44772 5 6 5H6.00667C6.55895 5 7.00667 5.44772 7.00667 6C7.00667 6.55228 6.55895 7 6.00667 7H6C5.44772 7 5 6.55228 5 6Z" fill="black"/>
<path d="M10 5C9.44771 5 9 5.44772 9 6C9 6.55228 9.44771 7 10 7H10.0067C10.559 7 11.0067 6.55228 11.0067 6C11.0067 5.44772 10.559 5 10.0067 5H10Z" fill="black"/>
<path fill-rule="evenodd" clip-rule="evenodd" d="M8 0C3.58172 0 0 3.58172 0 8C0 12.4183 3.58172 16 8 16C12.4183 16 16 12.4183 16 8C16 3.58172 12.4183 0 8 0ZM1.5 8C1.5 4.41015 4.41015 1.5 8 1.5C11.5899 1.5 14.5 4.41015 14.5 8C14.5 11.5899 11.5899 14.5 8 14.5C4.41015 14.5 1.5 11.5899 1.5 8Z" fill="black"/>
<path d="M5.78452 9.77718C6.27871 9.40279 7.03438 9 7.99991 9C8.96544 9 9.72111 9.40279 10.2153 9.77718C10.4642 9.96576 10.6563 10.154 10.7878 10.2969C10.8656 10.3815 10.9413 10.4685 11.0086 10.5618C11.2506 10.8979 11.1743 11.3666 10.8381 11.6087C10.502 11.8507 10.0382 11.7653 9.79231 11.4398C9.77206 11.4131 9.5947 11.1889 9.30952 10.9728C8.97871 10.7222 8.53438 10.5 7.99991 10.5C7.46544 10.5 7.02111 10.7222 6.6903 10.9728C6.51317 11.107 6.34049 11.2637 6.20592 11.4419C5.96314 11.7749 5.49661 11.8498 5.16168 11.6087C4.82553 11.3666 4.74923 10.8979 4.99126 10.5618L4.99198 10.5608C5.20887 10.2609 5.49109 9.99948 5.78452 9.77718Z" fill="black"/>
</g>
</g>
</svg>
