<svg width="16" height="16" viewBox="0 0 16 16" fill="none" xmlns="http://www.w3.org/2000/svg">
<g id="size=16">
<g id="Union">
<path d="M3.53713 5.35419C3.95243 4.20136 4.50838 3.23351 5.23159 2.56019C5.93801 1.9025 6.82957 1.5 8 1.5C9.25116 1.5 10.1882 1.96015 10.921 2.70914C11.6732 3.47789 12.2313 4.57548 12.6314 5.8563C13.4329 8.42195 13.5323 11.4941 13.4927 13.4185C13.4804 14.0133 12.9854 14.5 12.3325 14.5H3.66751C3.01519 14.5 2.51955 14.0127 2.5073 13.4173C2.49608 12.8718 2.49586 12.2282 2.52048 11.5263C2.535 11.1123 2.2112 10.765 1.79724 10.7505C1.38328 10.7359 1.03593 11.0597 1.0214 11.4737C0.99566 12.2075 0.995918 12.8793 1.00762 13.4482C1.03781 14.916 2.25617 16 3.66751 16H12.3325C13.7432 16 14.9621 14.9178 14.9924 13.4494C15.0329 11.4823 14.939 8.21245 14.0632 5.40901C13.6246 4.00528 12.973 2.66154 11.9932 1.66011C10.994 0.638908 9.67677 0 8 0C6.43872 0 5.18493 0.554178 4.20948 1.46233C3.25083 2.35485 2.58839 3.562 2.12591 4.84581C1.98552 5.23551 2.18763 5.66522 2.57733 5.80561C2.96703 5.946 3.39674 5.74389 3.53713 5.35419Z" fill="black"/>
<path d="M6.21967 4.46967C6.51256 4.17678 6.98744 4.17678 7.28033 4.46967L10.5303 7.71967L10.5383 7.7278C10.674 7.86762 10.75 8.05489 10.75 8.25C10.75 8.44891 10.671 8.63968 10.5303 8.78033L7.28033 12.0303C6.98744 12.3232 6.51256 12.3232 6.21967 12.0303C5.92678 11.7374 5.92678 11.2626 6.21967 10.9697L8.18934 9H1C0.585786 9 0.25 8.66421 0.25 8.25C0.25 7.83579 0.585786 7.5 1 7.5H8.18934L6.21967 5.53033C5.92678 5.23744 5.92678 4.76256 6.21967 4.46967Z" fill="black"/>
</g>
</g>
</svg>
