<svg width="24" height="24" viewBox="0 0 24 24" fill="none" xmlns="http://www.w3.org/2000/svg">
<g id="size=24">
<path id="Union" fill-rule="evenodd" clip-rule="evenodd" d="M3.5 4.25C3.5 4.87963 3.69213 5.48494 4.03917 6H2.75C1.7835 6 1 6.7835 1 7.75V11.25C1 12.2165 1.7835 13 2.75 13H3V20.25C3 21.7688 4.23122 23 5.75 23H18.25C19.7688 23 21 21.7688 21 20.25V13H21.25C22.2165 13 23 12.2165 23 11.25V7.75C23 6.7835 22.2165 6 21.25 6H20.4608C20.8079 5.48494 21 4.87963 21 4.25C21 3.3707 20.6253 2.53881 19.9772 1.93394C19.3309 1.33071 18.4647 1 17.5714 1C15.3055 1 13.9008 2.52436 13.1083 3.86923C12.7064 4.55121 12.4358 5.22665 12.2658 5.72778C12.2604 5.74356 12.2552 5.75917 12.25 5.77462C12.2448 5.75917 12.2396 5.74355 12.2342 5.72778C12.0642 5.22665 11.7936 4.55121 11.3917 3.86923C10.5992 2.52436 9.19452 1 6.92857 1C6.03531 1 5.16912 1.33071 4.5228 1.93394C3.87473 2.53881 3.5 3.3707 3.5 4.25ZM6.92857 2.5C6.40103 2.5 5.90461 2.69608 5.54627 3.03052C5.18969 3.36334 5 3.80322 5 4.25C5 4.69678 5.18969 5.13666 5.54627 5.46948C5.90461 5.80392 6.40103 6 6.92857 6H10.7398C10.5923 5.59749 10.3828 5.11178 10.0994 4.63077C9.41868 3.47564 8.41263 2.5 6.92857 2.5ZM13.7602 6H17.5714C18.099 6 18.5954 5.80392 18.9537 5.46948C19.3103 5.13666 19.5 4.69678 19.5 4.25C19.5 3.80322 19.3103 3.36334 18.9537 3.03052C18.5954 2.69608 18.099 2.5 17.5714 2.5C16.0874 2.5 15.0813 3.47564 14.4006 4.63077C14.1172 5.11178 13.9077 5.59749 13.7602 6ZM13 7.5V11.5H21.25C21.3881 11.5 21.5 11.3881 21.5 11.25V7.75C21.5 7.61193 21.3881 7.5 21.25 7.5H13ZM11.5 7.5V11.5H2.75C2.61193 11.5 2.5 11.3881 2.5 11.25V7.75C2.5 7.61193 2.61193 7.5 2.75 7.5H11.5ZM19.5 20.25V13H13V21.5H18.25C18.9404 21.5 19.5 20.9404 19.5 20.25ZM11.5 21.5H5.75C5.05964 21.5 4.5 20.9404 4.5 20.25V13H11.5V21.5Z" fill="black"/>
</g>
</svg>
