<svg viewBox="0 0 16 16" width="16" height="16" fill="currentColor" xmlns="http://www.w3.org/2000/svg">
 <g transform="translate(0.75, 1)">
  <path d="M11.969 5.91328C13.2786 5.59114 14.25 4.40901 14.25 3C14.25 1.34315 12.9069 0 11.25 0C9.59315 0 8.25 1.34315 8.25 3C8.25 4.38435 9.18766 5.5497 10.4625 5.89558C10.1808 8.2914 8.33867 10.0599 5.90175 10.2356C5.6266 9.18825 4.79941 8.36461 3.75 8.09451L3.75 1C3.75 0.585786 3.41421 0.25 3 0.25C2.58579 0.25 2.25 0.585786 2.25 1L2.25 8.09451C0.95608 8.42754 0 9.60212 0 11C0 12.6569 1.34315 14 3 14C4.40208 14 5.57951 13.0382 5.90846 11.7383C9.16822 11.5512 11.6658 9.13208 11.969 5.91328ZM9.75 3C9.75 2.17157 10.4216 1.5 11.25 1.5C12.0784 1.5 12.75 2.17157 12.75 3C12.75 3.82843 12.0784 4.5 11.25 4.5C10.4216 4.5 9.75 3.82843 9.75 3ZM1.5 11C1.5 10.1716 2.17157 9.5 3 9.5C3.82843 9.5 4.5 10.1716 4.5 11C4.5 11.8284 3.82843 12.5 3 12.5C2.17157 12.5 1.5 11.8284 1.5 11Z" fill-rule="EVENODD"></path>
 </g>
</svg>