<svg width="24" height="24" viewBox="0 0 24 24" fill="none" xmlns="http://www.w3.org/2000/svg">
<g id="size=24">
<g id="Union">
<path fill-rule="evenodd" clip-rule="evenodd" d="M5.75 1C4.23122 1 3 2.23122 3 3.75V18.25C3 19.7688 4.23122 21 5.75 21H6C6.41421 21 6.75 20.6642 6.75 20.25C6.75 19.8358 6.41421 19.5 6 19.5H5.75C5.05964 19.5 4.5 18.9404 4.5 18.25V17.2504C4.5 16.5599 5.05986 16 5.75 16H19.5V19.25C19.5 19.3881 19.3881 19.5 19.25 19.5H16C15.5858 19.5 15.25 19.8358 15.25 20.25C15.25 20.6642 15.5858 21 16 21H19.25C20.2165 21 21 20.2165 21 19.25V2.75C21 1.7835 20.2165 1 19.25 1H5.75ZM19.5 14.5V2.75C19.5 2.61193 19.3881 2.5 19.25 2.5H5.75C5.05964 2.5 4.5 3.05964 4.5 3.75V14.7999C4.87502 14.6082 5.29986 14.5 5.75 14.5H19.5Z" fill="black"/>
<path d="M8.75 18C8.33579 18 8 18.3358 8 18.75V22.25C8 22.5185 8.14358 22.7666 8.37645 22.9004C8.60932 23.0341 8.89594 23.0331 9.1279 22.8978L11 21.8058L12.8721 22.8978C13.1041 23.0331 13.3907 23.0341 13.6235 22.9004C13.8564 22.7666 14 22.5185 14 22.25V18.75C14 18.3358 13.6642 18 13.25 18H8.75Z" fill="black"/>
</g>
</g>
</svg>
