<svg width="16" height="16" viewBox="0 0 16 16" fill="none" xmlns="http://www.w3.org/2000/svg">
<g id="Size=16">
<g id="Union">
<path fill-rule="evenodd" clip-rule="evenodd" d="M5 6.90549C6.29392 6.57245 7.25 5.39788 7.25 4C7.25 2.34315 5.90685 1 4.25 1C2.59315 1 1.25 2.34315 1.25 4C1.25 5.39788 2.20608 6.57245 3.5 6.90549V14C3.5 14.4142 3.83579 14.75 4.25 14.75C4.66421 14.75 5 14.4142 5 14V6.90549ZM2.75 4C2.75 3.17157 3.42157 2.5 4.25 2.5C5.07843 2.5 5.75 3.17157 5.75 4C5.75 4.82843 5.07843 5.5 4.25 5.5C3.42157 5.5 2.75 4.82843 2.75 4Z" fill="black"/>
<path fill-rule="evenodd" clip-rule="evenodd" d="M12.5 5.25V8.84451C13.7939 9.17754 14.75 10.3521 14.75 11.75C14.75 13.4069 13.4069 14.75 11.75 14.75C10.0931 14.75 8.75 13.4069 8.75 11.75C8.75 10.3521 9.70608 9.17754 11 8.84451V5.25C11 4.83579 10.6642 4.5 10.25 4.5H9C8.58579 4.5 8.25 4.16421 8.25 3.75C8.25 3.33579 8.58579 3 9 3H10.25C11.4926 3 12.5 4.00736 12.5 5.25ZM10.25 11.75C10.25 10.9216 10.9216 10.25 11.75 10.25C12.5784 10.25 13.25 10.9216 13.25 11.75C13.25 12.5784 12.5784 13.25 11.75 13.25C10.9216 13.25 10.25 12.5784 10.25 11.75Z" fill="black"/>
</g>
</g>
</svg>
