<svg width="16" height="16" viewBox="0 0 16 16" fill="none" xmlns="http://www.w3.org/2000/svg">
<g id="Size=16">
<path id="Union" fill-rule="evenodd" clip-rule="evenodd" d="M10.9055 7C10.5725 5.70608 9.39788 4.75 8 4.75C6.60212 4.75 5.42755 5.70608 5.09451 7H2.75C2.33579 7 2 7.33579 2 7.75C2 8.16421 2.33579 8.5 2.75 8.5H5.09451C5.42754 9.79392 6.60212 10.75 8 10.75C9.39788 10.75 10.5725 9.79392 10.9055 8.5H13.25C13.6642 8.5 14 8.16421 14 7.75C14 7.33579 13.6642 7 13.25 7H10.9055ZM8 6.25C7.17157 6.25 6.5 6.92157 6.5 7.75C6.5 8.57843 7.17157 9.25 8 9.25C8.82843 9.25 9.5 8.57843 9.5 7.75C9.5 6.92157 8.82843 6.25 8 6.25Z" fill="black"/>
</g>
</svg>
