<svg width="16" height="16" viewBox="0 0 16 16" fill="none" xmlns="http://www.w3.org/2000/svg">
<g id="Size=16">
<path id="Union" fill-rule="evenodd" clip-rule="evenodd" d="M4.64353 6.86468C5.864 6.48441 6.75 5.34567 6.75 4C6.75 2.34315 5.40685 1 3.75 1C2.09315 1 0.75 2.34315 0.75 4C0.75 5.39788 1.70608 6.57245 3 6.90549V14C3 14.4142 3.33579 14.75 3.75 14.75C4.16421 14.75 4.5 14.4142 4.5 14V9.51845C4.70954 9.784 4.93567 10.0455 5.17465 10.2974C6.21128 11.3901 7.61881 12.4333 9.07974 12.69C9.39145 14.0143 10.5806 15 12 15C13.6569 15 15 13.6569 15 12C15 10.3431 13.6569 9 12 9C10.6332 9 9.47984 9.91407 9.11795 11.1643C8.19791 10.9274 7.16667 10.2177 6.26285 9.26505C5.72288 8.6959 5.2693 8.08149 4.95523 7.52039C4.81813 7.27546 4.71596 7.05553 4.64353 6.86468ZM3.75 2.5C2.92157 2.5 2.25 3.17157 2.25 4C2.25 4.82843 2.92157 5.5 3.75 5.5C4.57843 5.5 5.25 4.82843 5.25 4C5.25 3.17157 4.57843 2.5 3.75 2.5ZM10.5 12C10.5 12.8284 11.1716 13.5 12 13.5C12.8284 13.5 13.5 12.8284 13.5 12C13.5 11.1716 12.8284 10.5 12 10.5C11.1716 10.5 10.5 11.1716 10.5 12Z" fill="black"/>
</g>
</svg>
