<svg width="24" height="24" viewBox="0 0 24 24" fill="none" xmlns="http://www.w3.org/2000/svg">
<g id="size=24">
<path id="Union" fill-rule="evenodd" clip-rule="evenodd" d="M7 3.25C7 2.83579 6.66421 2.5 6.25 2.5C5.83579 2.5 5.5 2.83579 5.5 3.25V14.0805C3.92741 14.4239 2.75 15.8244 2.75 17.5C2.75 19.433 4.317 21 6.25 21C7.92833 21 9.33075 19.8187 9.67115 18.2422C12.1177 18.151 14.2237 17.2635 15.7436 15.7436C17.2109 14.2762 18.0888 12.2627 18.2299 9.92379C19.8125 9.58805 21 8.1827 21 6.5C21 4.567 19.433 3 17.5 3C15.567 3 14 4.567 14 6.5C14 8.16754 15.1662 9.5627 16.7274 9.91445C16.5915 11.8899 15.8478 13.518 14.6829 14.6829C13.4698 15.896 11.7544 16.6523 9.66752 16.7412C9.37424 15.4144 8.32803 14.3705 7 14.0805V3.25ZM17.5 8.5C18.6046 8.5 19.5 7.60457 19.5 6.5C19.5 5.39543 18.6046 4.5 17.5 4.5C16.3954 4.5 15.5 5.39543 15.5 6.5C15.5 7.60457 16.3954 8.5 17.5 8.5ZM4.25 17.5C4.25 16.3954 5.14543 15.5 6.25 15.5C7.35457 15.5 8.25 16.3954 8.25 17.5C8.25 18.6046 7.35457 19.5 6.25 19.5C5.14543 19.5 4.25 18.6046 4.25 17.5Z" fill="black"/>
</g>
</svg>
