<svg width="16" height="16" viewBox="0 0 16 16" fill="none" xmlns="http://www.w3.org/2000/svg">
<g id="size=16">
<path id="Union" fill-rule="evenodd" clip-rule="evenodd" d="M8 0C3.58172 0 0 3.58172 0 8C0 12.4183 3.58172 16 8 16C12.4183 16 16 12.4183 16 8C16 3.58172 12.4183 0 8 0ZM6.1281 1.77359C3.76051 2.48438 1.96114 4.50867 1.57645 7H4.06861C4.28628 5.12647 4.99696 3.33655 6.1281 1.77359ZM9.8719 1.77359C11.003 3.33655 11.7137 5.12647 11.9314 7H14.4236C14.0389 4.50867 12.2395 2.48438 9.8719 1.77359ZM10.4196 7C10.1652 5.12363 9.33287 3.33469 8 1.8356C6.66712 3.33469 5.83478 5.12363 5.58044 7H10.4196ZM5.52655 8.5H10.4734C10.3086 10.5575 9.45081 12.5327 8 14.1644C6.54919 12.5327 5.6914 10.5575 5.52655 8.5ZM4.02241 8.5H1.51894C1.7257 11.2179 3.60398 13.4686 6.1281 14.2264C4.89671 12.5249 4.16361 10.5545 4.02241 8.5ZM9.8719 14.2264C11.1033 12.5249 11.8364 10.5545 11.9776 8.5H14.4811C14.2743 11.2179 12.396 13.4686 9.8719 14.2264Z" fill="black"/>
</g>
</svg>
