<svg width="24" height="24" viewBox="0 0 24 24" fill="none" xmlns="http://www.w3.org/2000/svg">
<g id="Size=24">
<g id="Union">
<path fill-rule="evenodd" clip-rule="evenodd" d="M1 2.25C1 1.55964 1.55964 1 2.25 1H5.75C6.44036 1 7 1.55964 7 2.25V5.75C7 6.44036 6.44036 7 5.75 7H2.25C1.55964 7 1 6.44036 1 5.75V2.25ZM2.5 2.5V5.5H5.5V2.5H2.5Z" fill="black"/>
<path fill-rule="evenodd" clip-rule="evenodd" d="M9 2.25C9 1.55964 9.55964 1 10.25 1H13.75C14.4404 1 15 1.55964 15 2.25V5.75C15 6.44036 14.4404 7 13.75 7H10.25C9.55964 7 9 6.44036 9 5.75V2.25ZM10.5 2.5V5.5H13.5V2.5H10.5Z" fill="black"/>
<path fill-rule="evenodd" clip-rule="evenodd" d="M18.25 1C17.5596 1 17 1.55964 17 2.25V5.75C17 6.44036 17.5596 7 18.25 7H21.75C22.4404 7 23 6.44036 23 5.75V2.25C23 1.55964 22.4404 1 21.75 1H18.25ZM18.5 5.5V2.5H21.5V5.5H18.5Z" fill="black"/>
<path fill-rule="evenodd" clip-rule="evenodd" d="M1 10.25C1 9.55964 1.55964 9 2.25 9H5.75C6.44036 9 7 9.55964 7 10.25V13.75C7 14.4404 6.44036 15 5.75 15H2.25C1.55964 15 1 14.4404 1 13.75V10.25ZM2.5 10.5V13.5H5.5V10.5H2.5Z" fill="black"/>
<path fill-rule="evenodd" clip-rule="evenodd" d="M10.25 9C9.55964 9 9 9.55964 9 10.25V13.75C9 14.4404 9.55964 15 10.25 15H13.75C14.4404 15 15 14.4404 15 13.75V10.25C15 9.55964 14.4404 9 13.75 9H10.25ZM10.5 13.5V10.5H13.5V13.5H10.5Z" fill="black"/>
<path fill-rule="evenodd" clip-rule="evenodd" d="M17 10.25C17 9.55964 17.5596 9 18.25 9H21.75C22.4404 9 23 9.55964 23 10.25V13.75C23 14.4404 22.4404 15 21.75 15H18.25C17.5596 15 17 14.4404 17 13.75V10.25ZM18.5 10.5V13.5H21.5V10.5H18.5Z" fill="black"/>
<path fill-rule="evenodd" clip-rule="evenodd" d="M2.25 17C1.55964 17 1 17.5596 1 18.25V21.75C1 22.4404 1.55964 23 2.25 23H5.75C6.44036 23 7 22.4404 7 21.75V18.25C7 17.5596 6.44036 17 5.75 17H2.25ZM2.5 21.5V18.5H5.5V21.5H2.5Z" fill="black"/>
<path fill-rule="evenodd" clip-rule="evenodd" d="M9 18.25C9 17.5596 9.55964 17 10.25 17H13.75C14.4404 17 15 17.5596 15 18.25V21.75C15 22.4404 14.4404 23 13.75 23H10.25C9.55964 23 9 22.4404 9 21.75V18.25ZM10.5 18.5V21.5H13.5V18.5H10.5Z" fill="black"/>
<path fill-rule="evenodd" clip-rule="evenodd" d="M18.25 17C17.5596 17 17 17.5596 17 18.25V21.75C17 22.4404 17.5596 23 18.25 23H21.75C22.4404 23 23 22.4404 23 21.75V18.25C23 17.5596 22.4404 17 21.75 17H18.25ZM18.5 21.5V18.5H21.5V21.5H18.5Z" fill="black"/>
</g>
</g>
</svg>
