<svg width="24" height="24" viewBox="0 0 24 24" fill="none" xmlns="http://www.w3.org/2000/svg">
<g id="Size=24">
<g id="Union">
<path fill-rule="evenodd" clip-rule="evenodd" d="M3.75 2C2.7835 2 2 2.7835 2 3.75V9.25C2 10.2165 2.7835 11 3.75 11H9.25C10.2165 11 11 10.2165 11 9.25V3.75C11 2.7835 10.2165 2 9.25 2H3.75ZM3.5 3.75C3.5 3.61193 3.61193 3.5 3.75 3.5H9.25C9.38807 3.5 9.5 3.61193 9.5 3.75V9.25C9.5 9.38807 9.38807 9.5 9.25 9.5H3.75C3.61193 9.5 3.5 9.38807 3.5 9.25V3.75Z" fill="black"/>
<path fill-rule="evenodd" clip-rule="evenodd" d="M14.75 2C13.7835 2 13 2.7835 13 3.75V9.25C13 10.2165 13.7835 11 14.75 11H20.25C21.2165 11 22 10.2165 22 9.25V3.75C22 2.7835 21.2165 2 20.25 2H14.75ZM14.5 3.75C14.5 3.61193 14.6119 3.5 14.75 3.5H20.25C20.3881 3.5 20.5 3.61193 20.5 3.75V9.25C20.5 9.38807 20.3881 9.5 20.25 9.5H14.75C14.6119 9.5 14.5 9.38807 14.5 9.25V3.75Z" fill="black"/>
<path fill-rule="evenodd" clip-rule="evenodd" d="M13 14.75C13 13.7835 13.7835 13 14.75 13H20.25C21.2165 13 22 13.7835 22 14.75V20.25C22 21.2165 21.2165 22 20.25 22H14.75C13.7835 22 13 21.2165 13 20.25V14.75ZM14.75 14.5C14.6119 14.5 14.5 14.6119 14.5 14.75V20.25C14.5 20.3881 14.6119 20.5 14.75 20.5H20.25C20.3881 20.5 20.5 20.3881 20.5 20.25V14.75C20.5 14.6119 20.3881 14.5 20.25 14.5H14.75Z" fill="black"/>
<path fill-rule="evenodd" clip-rule="evenodd" d="M3.75 13C2.7835 13 2 13.7835 2 14.75V20.25C2 21.2165 2.7835 22 3.75 22H9.25C10.2165 22 11 21.2165 11 20.25V14.75C11 13.7835 10.2165 13 9.25 13H3.75ZM3.5 14.75C3.5 14.6119 3.61193 14.5 3.75 14.5H9.25C9.38807 14.5 9.5 14.6119 9.5 14.75V20.25C9.5 20.3881 9.38807 20.5 9.25 20.5H3.75C3.61193 20.5 3.5 20.3881 3.5 20.25V14.75Z" fill="black"/>
</g>
</g>
</svg>
