<svg width="16" height="16" viewBox="0 0 16 16" fill="none" xmlns="http://www.w3.org/2000/svg">
<g id="Size=16">
<g id="Union">
<path d="M12.75 1C12.3358 1 12 1.33579 12 1.75C12 2.16421 12.3358 2.5 12.75 2.5H13.4393L11.4697 4.46967C11.1768 4.76256 11.1768 5.23744 11.4697 5.53033C11.7626 5.82322 12.2374 5.82322 12.5303 5.53033L14.5 3.56066V4.25C14.5 4.66421 14.8358 5 15.25 5C15.6642 5 16 4.66421 16 4.25V1.75C16 1.55109 15.921 1.36032 15.7803 1.21967C15.6397 1.07902 15.4489 1 15.25 1H12.75Z" fill="black"/>
<path fill-rule="evenodd" clip-rule="evenodd" d="M1.25 2C0.559644 2 0 2.55964 0 3.25V11.75C0 12.4404 0.559644 13 1.25 13H5C5.89557 13 6.4747 13.2049 6.80871 13.4479C7.12555 13.6785 7.25 13.9583 7.25 14.25C7.25 14.3211 7.2599 14.39 7.2784 14.4552C7.36764 14.7696 7.65692 15 8 15C8.36244 15 8.66483 14.7429 8.73476 14.4012C8.74475 14.3523 8.75 14.3018 8.75 14.25C8.75 13.9583 8.87445 13.6785 9.19129 13.4479C9.5253 13.2049 10.1044 13 11 13H14.75C15.4404 13 16 12.4403 16 11.75V7.24995C16 6.83574 15.6642 6.49995 15.25 6.49995C14.8358 6.49995 14.5 6.83574 14.5 7.24995V11.5H11C10.1221 11.5 9.36012 11.6582 8.75 11.9666V5.41667C8.75 4.62945 9.126 3.99631 9.87071 3.6953C10.2547 3.54008 10.4402 3.10293 10.285 2.7189C10.1298 2.33487 9.69263 2.14938 9.3086 2.30461C8.76408 2.5247 8.32797 2.85041 7.9998 3.24602C7.92914 3.16102 7.85331 3.07903 7.77225 3.00038C7.10568 2.35366 6.15444 2 5 2H1.25ZM7.25 5.41667C7.25 4.8644 7.06266 4.40189 6.72774 4.07695C6.39432 3.75345 5.84556 3.5 5 3.5H1.5V11.5H5C5.87793 11.5 6.63988 11.6583 7.25 11.9666V5.41667Z" fill="black"/>
</g>
</g>
</svg>
