<svg width="24" height="24" viewBox="0 0 24 24" fill="none" xmlns="http://www.w3.org/2000/svg">
<g id="Size=24">
<path id="Union" fill-rule="evenodd" clip-rule="evenodd" d="M2.75 3C1.7835 3 1 3.7835 1 4.75V17.25C1 18.2165 1.7835 19 2.75 19H7.925C10.2669 19 11.25 20.1906 11.25 21.25C11.25 21.6642 11.5858 22 12 22C12.4142 22 12.75 21.6642 12.75 21.25C12.75 20.1906 13.7331 19 16.075 19H21.25C22.2165 19 23 18.2165 23 17.25V4.75C23 3.7835 22.2165 3 21.25 3H16.1C14.4001 3 13.1418 3.50464 12.3234 4.43877C12.2041 4.57487 12.0966 4.71741 12 4.86535C11.9034 4.71741 11.7959 4.57487 11.6766 4.43877C10.8582 3.50464 9.59994 3 7.9 3H2.75ZM12.75 18.4428C13.5946 17.8451 14.7462 17.5 16.075 17.5H21.25C21.3881 17.5 21.5 17.3881 21.5 17.25V4.75C21.5 4.61193 21.3881 4.5 21.25 4.5H16.1C14.6999 4.5 13.9082 4.90602 13.4516 5.42723C12.9787 5.96709 12.75 6.76069 12.75 7.75V18.4428ZM11.25 18.4428V7.75C11.25 6.76069 11.0213 5.96709 10.5484 5.42723C10.0918 4.90602 9.30006 4.5 7.9 4.5H2.75C2.61193 4.5 2.5 4.61193 2.5 4.75V17.25C2.5 17.3881 2.61193 17.5 2.75 17.5H7.925C9.25379 17.5 10.4054 17.8451 11.25 18.4428Z" fill="black"/>
</g>
</svg>
