<svg width="24" height="24" viewBox="0 0 24 24" fill="none" xmlns="http://www.w3.org/2000/svg">
<g id="Size=24">
<path id="Union" fill-rule="evenodd" clip-rule="evenodd" d="M19.5017 5.8582C15.7107 2.77262 10.3838 0.22508 5.33417 3.58936C5.08168 3.75758 4.95541 4.06135 5.01426 4.35898C5.07311 4.65662 5.30547 4.88948 5.60298 4.94896C6.89543 5.20735 7.91976 5.41485 8.91162 5.83658C9.72644 6.18304 10.5375 6.68335 11.4324 7.50694L1.03035 17.909C0.151669 18.7877 0.151667 20.2123 1.03035 21.091L1.90903 21.9697C2.78771 22.8484 4.21233 22.8484 5.09101 21.9697L15.9547 11.1061C16.1674 11.4275 16.1951 11.6376 16.2023 11.7658C16.2059 11.8305 16.2045 11.8954 16.2007 11.9753L16.1986 12.017C16.1951 12.0847 16.1903 12.1779 16.191 12.2622C16.1931 12.505 16.2376 12.8482 16.5185 13.1603C17.0321 13.7311 17.5974 14.2833 18.1262 14.8C18.2505 14.9214 18.3727 15.0409 18.4918 15.1581C18.7869 15.4486 19.2615 15.445 19.5521 15.1502L23.7003 10.9419C23.84 10.8002 23.9177 10.6088 23.9162 10.4098C23.9147 10.2108 23.8342 10.0206 23.6924 9.88097C22.929 9.12947 22.4678 8.68512 21.8265 8.06722L21.616 7.8643C21.3327 7.59132 20.9731 7.54778 20.7783 7.53747C20.5693 7.52641 20.3469 7.54774 20.1892 7.56288L20.176 7.56414C20.0936 7.57204 20.0253 7.57841 19.9673 7.58279C19.9637 7.51221 19.9624 7.42678 19.9616 7.31956L19.9613 7.28894C19.9602 7.12752 19.9587 6.90582 19.9284 6.70119C19.898 6.49523 19.8198 6.15306 19.5404 5.89194C19.5279 5.88026 19.515 5.869 19.5017 5.8582ZM9.49856 4.45618C8.98934 4.23967 8.47608 4.07332 7.95321 3.93338C11.5503 2.65479 15.2939 4.39703 18.4464 6.9338C18.4584 7.02478 18.4601 7.14368 18.4616 7.33119L18.4617 7.34381C18.463 7.51128 18.4648 7.74464 18.5001 7.96402C18.5351 8.18144 18.6209 8.51426 18.8932 8.77351C19.1806 9.04705 19.5473 9.08069 19.7301 9.08776C19.9255 9.09531 20.1369 9.0749 20.2894 9.06016L20.319 9.05731C20.4809 9.0418 20.5884 9.03316 20.6685 9.03436L20.7858 9.14746C21.2609 9.60519 21.6344 9.96504 22.1043 10.4243L19.0086 13.5648C18.5549 13.1209 18.1073 12.6784 17.6912 12.2207C17.6917 12.1941 17.6932 12.1645 17.6953 12.122L17.6991 12.0454C17.7036 11.949 17.7078 11.8239 17.6999 11.6822C17.6646 11.0494 17.4003 10.3391 16.5302 9.46954C16.2373 9.1768 15.7625 9.17688 15.4697 9.46971L14 10.9394L12.0607 9.00003L13.0303 8.03037C13.3206 7.74016 13.3236 7.2706 13.0372 6.97665C11.8044 5.71135 10.6755 4.9566 9.49856 4.45618ZM11 10.0607L2.09101 18.9697C1.79811 19.2626 1.79811 19.7375 2.09101 20.0304L2.96969 20.909C3.26258 21.2019 3.73745 21.2019 4.03035 20.909L12.9394 12L11 10.0607ZM20.7405 9.04003C20.7403 9.04021 20.7365 9.03971 20.7299 9.038C20.7375 9.039 20.7408 9.03986 20.7405 9.04003ZM19.7439 7.58452C19.7442 7.58429 19.7489 7.5848 19.7569 7.58674C19.7477 7.58572 19.7436 7.58475 19.7439 7.58452Z" fill="black"/>
</g>
</svg>
