<svg viewBox="0 0 24 24" width="24" height="24" fill="currentColor" xmlns="http://www.w3.org/2000/svg">
 <g transform="translate(4, 3)">
  <path d="M6.36246 0.00856683C6.772 0.0706182 7.05369 0.452918 6.99164 0.862457L6.36474 5L10.8476 5L11.5086 0.637749C11.5706 0.22821 11.9529 -0.0534846 12.3625 0.00856683C12.772 0.0706182 13.0537 0.452918 12.9916 0.862457L12.3647 5L15.25 5C15.6642 5 16 5.33579 16 5.75C16 6.16421 15.6642 6.5 15.25 6.5L12.1375 6.5L11.4556 11L15.25 11C15.6642 11 16 11.3358 16 11.75C16 12.1642 15.6642 12.5 15.25 12.5L11.2284 12.5L10.4916 17.3625C10.4296 17.772 10.0473 18.0537 9.63775 17.9916C9.22821 17.9296 8.94652 17.5473 9.00857 17.1377L9.71126 12.5L5.22838 12.5L4.49164 17.3625C4.42959 17.772 4.04729 18.0537 3.63775 17.9916C3.22821 17.9296 2.94652 17.5473 3.00857 17.1377L3.71126 12.5L0.75 12.5C0.335786 12.5 0 12.1642 0 11.75C0 11.3358 0.335786 11 0.75 11L3.93853 11L4.62035 6.5L0.75 6.5C0.335786 6.5 0 6.16421 0 5.75C0 5.33579 0.335786 5 0.75 5L4.84762 5L5.50857 0.637749C5.57062 0.22821 5.95292 -0.0534846 6.36246 0.00856683ZM9.93853 11L10.6203 6.5L6.13747 6.5L5.45565 11L9.93853 11Z" fill-rule="EVENODD"></path>
 </g>
</svg>