<svg width="16" height="16" viewBox="0 0 16 16" fill="none" xmlns="http://www.w3.org/2000/svg">
<g id="Size=16">
<path id="Union" fill-rule="evenodd" clip-rule="evenodd" d="M8 2.5C6.53165 2.5 5.1293 3.06025 4.09998 4.0484C3.0717 5.03555 2.5 6.36772 2.5 7.75V8H3.75C4.99264 8 6 9.00736 6 10.25V12.75C6 13.9926 4.99264 15 3.75 15H3.25C2.00736 15 1 13.9926 1 12.75V7.75C1 5.94968 1.74526 4.22961 3.06118 2.96632C4.37607 1.70403 6.15314 1 8 1C9.84686 1 11.6239 1.70403 12.9388 2.96632C14.2547 4.22961 15 5.94968 15 7.75V12.75C15 13.9926 13.9926 15 12.75 15H12.25C11.0074 15 10 13.9926 10 12.75V10.25C10 9.00736 11.0074 8 12.25 8H13.5V7.75C13.5 6.36772 12.9283 5.03555 11.9 4.0484C10.8707 3.06025 9.46834 2.5 8 2.5ZM13.5 9.5H12.25C11.8358 9.5 11.5 9.83579 11.5 10.25V12.75C11.5 13.1642 11.8358 13.5 12.25 13.5H12.75C13.1642 13.5 13.5 13.1642 13.5 12.75V9.5ZM2.5 9.5H3.75C4.16421 9.5 4.5 9.83579 4.5 10.25V12.75C4.5 13.1642 4.16421 13.5 3.75 13.5H3.25C2.83579 13.5 2.5 13.1642 2.5 12.75V9.5Z" fill="black"/>
</g>
</svg>
