<svg width="16" height="16" viewBox="0 0 16 16" fill="none" xmlns="http://www.w3.org/2000/svg">
<g id="Size=16">
<path id="Vector (Stroke)" fill-rule="evenodd" clip-rule="evenodd" d="M9.68884 1.34316C10.2422 1.11653 10.835 1 11.4335 1C12.032 1 12.6248 1.11653 13.1782 1.34316C13.7316 1.56979 14.2349 1.90219 14.6593 2.32179C15.0837 2.74117 15.4209 3.23955 15.6511 3.7887C15.8814 4.33798 16 4.92703 16 5.52213C16 6.11723 15.8814 6.70628 15.6511 7.25556C15.4208 7.80477 15.0836 8.30319 14.6591 8.72259L8.52704 14.7834C8.23487 15.0722 7.76476 15.0722 7.47259 14.7834L1.34049 8.72259C0.483228 7.87529 0 6.72422 0 5.52213C0 4.32004 0.483228 3.16897 1.34049 2.32167C2.19746 1.47466 3.35792 1.00037 4.56612 1.00037C5.77431 1.00037 6.93477 1.47466 7.79174 2.32167L7.99981 2.52733L8.20777 2.32179C8.63208 1.90225 9.13551 1.56977 9.68884 1.34316ZM13.6046 3.38839C13.3203 3.1073 12.9823 2.88386 12.6097 2.73126C12.2371 2.57866 11.8374 2.5 11.4335 2.5C11.0297 2.5 10.6299 2.57866 10.2573 2.73126C9.8847 2.88386 9.54672 3.1073 9.26246 3.38839L8.52704 4.11526C8.23487 4.40403 7.76476 4.40403 7.47259 4.11526L6.7373 3.38851C6.16294 2.82083 5.38211 2.50037 4.56612 2.50037C3.75012 2.50037 2.96929 2.82083 2.39494 3.38851C1.82088 3.9559 1.5 4.72356 1.5 5.52213C1.5 6.3207 1.82088 7.08837 2.39494 7.65575L7.99981 13.1955L13.6047 7.65575C13.8891 7.37481 14.1143 7.0416 14.2677 6.67562C14.4212 6.30967 14.5 5.91773 14.5 5.52213C14.5 5.12653 14.4212 4.73459 14.2677 4.36864C14.1143 4.00266 13.8889 3.66933 13.6046 3.38839Z" fill="black"/>
</g>
</svg>
