<svg width="16" height="16" viewBox="0 0 16 16" fill="none" xmlns="http://www.w3.org/2000/svg">
<g id="size=16">
<g id="Union">
<path fill-rule="evenodd" clip-rule="evenodd" d="M1.78033 0.71967C1.48744 0.426777 1.01256 0.426777 0.71967 0.71967C0.426777 1.01256 0.426777 1.48744 0.71967 1.78033L1.30076 2.36142C0.468313 3.20479 0 4.33873 0 5.52213C0 6.72422 0.483228 7.87529 1.34049 8.72259L7.47259 14.7834C7.76476 15.0722 8.23487 15.0722 8.52704 14.7834L11.1401 12.2007L14.2197 15.2803C14.5126 15.5732 14.9874 15.5732 15.2803 15.2803C15.5732 14.9874 15.5732 14.5126 15.2803 14.2197L1.78033 0.71967ZM10.0794 11.1401L2.36146 3.42212C1.80842 3.98601 1.5 4.73922 1.5 5.52213C1.5 6.3207 1.82088 7.08837 2.39494 7.65575L7.99981 13.1955L10.0794 11.1401Z" fill="#000001"/>
<path d="M11.4335 1C10.835 1 10.2422 1.11653 9.68884 1.34316C9.13551 1.56977 8.63208 1.90225 8.20777 2.32179L7.47259 3.04842C7.17799 3.3396 7.17522 3.81446 7.46639 4.10906C7.75757 4.40366 8.23244 4.40644 8.52704 4.11526L9.26246 3.38839C9.54672 3.1073 9.8847 2.88386 10.2573 2.73126C10.6299 2.57866 11.0297 2.5 11.4335 2.5C11.8374 2.5 12.2371 2.57866 12.6097 2.73126C12.9823 2.88386 13.3206 3.10755 13.6048 3.38864C13.8892 3.66957 14.1143 4.00266 14.2677 4.36864C14.4212 4.73459 14.5 5.12653 14.5 5.52213C14.5 5.91773 14.4212 6.30967 14.2677 6.67562C14.1143 7.0416 13.8891 7.37481 13.6047 7.65575L12.8694 8.3825C12.5748 8.67368 12.572 9.14854 12.8632 9.44314C13.1544 9.73774 13.6292 9.74052 13.9238 9.44934L14.6591 8.72259C15.0836 8.30319 15.4208 7.80477 15.6511 7.25556C15.8814 6.70628 16 6.11722 16 5.52213C16 4.92704 15.8814 4.33798 15.6511 3.7887C15.4209 3.23955 15.0837 2.74117 14.6593 2.32179C14.2349 1.90219 13.7316 1.56979 13.1782 1.34316C12.6248 1.11653 12.032 1 11.4335 1Z" fill="#000001"/>
</g>
</g>
</svg>
