<svg width="24" height="24" viewBox="0 0 24 24" fill="none" xmlns="http://www.w3.org/2000/svg">
<g id="Size=24">
<path id="Union" d="M16.8543 3C16.0494 3 15.2521 3.15519 14.5077 3.45707C13.7633 3.75895 13.0858 4.20193 12.5146 4.76125L11.9997 5.26514L11.4848 4.76113C10.3312 3.63203 8.76987 3.00051 7.1452 3.00051C5.52053 3.00051 3.95924 3.63203 2.80562 4.76113C1.65144 5.89076 1 7.42634 1 9.03098C1 10.6356 1.65144 12.1712 2.80562 13.3008L11.4751 21.786C11.7667 22.0713 12.2328 22.0713 12.5243 21.786L21.1939 13.3008C21.7654 12.7417 22.2196 12.077 22.5298 11.3442C22.8401 10.6114 23 9.82526 23 9.03098C23 8.23671 22.8401 7.45061 22.5298 6.71774C22.2196 5.98502 21.7654 5.32035 21.194 4.76125C20.6227 4.20187 19.9453 3.75897 19.2009 3.45707C18.4565 3.15519 17.6591 3 16.8543 3Z" fill="black"/>
</g>
</svg>
