<svg viewBox="0 0 24 24" width="24" height="24" fill="currentColor" xmlns="http://www.w3.org/2000/svg">
 <g transform="translate(1, 1)">
  <path d="M1.28033 0.21967C0.987437 -0.0732233 0.512563 -0.0732233 0.21967 0.21967C-0.0732233 0.512563 -0.0732233 0.987437 0.21967 1.28033L2.28113 3.34179C2.1161 3.47276 1.95733 3.61264 1.80562 3.76113C0.651444 4.89076 0 6.42634 0 8.03098C0 9.63563 0.651443 11.1712 1.80562 12.3008L10.4751 20.786C10.7667 21.0713 11.2328 21.0713 11.5243 20.786L15.6689 16.7296L20.7197 21.7803C21.0126 22.0732 21.4874 22.0732 21.7803 21.7803C22.0732 21.4874 22.0732 21.0126 21.7803 20.7197L1.28033 0.21967ZM14.6082 15.6688L3.3511 4.41176C3.1766 4.53991 3.01068 4.68057 2.85482 4.83313C1.9854 5.68406 1.5 6.83469 1.5 8.03098C1.5 9.22727 1.9854 10.3779 2.85482 11.2288L10.9997 19.2006L14.6082 15.6688Z" fill-rule="EVENODD"></path>
  <path d="M13.5077 2.45707C14.2521 2.15519 15.0494 2 15.8543 2C16.6591 2 17.4565 2.15519 18.2009 2.45707C18.9452 2.75893 19.6225 3.20174 20.1937 3.76101C20.7652 4.3201 21.2196 4.98502 21.5298 5.71774C21.8401 6.45061 22 7.23671 22 8.03098C22 8.82526 21.8401 9.61135 21.5298 10.3442C21.2196 11.077 20.7654 11.7417 20.1939 12.3008L19.1543 13.3183C18.8583 13.608 18.3834 13.6029 18.0937 13.3069C17.804 13.0109 17.8091 12.536 18.1051 12.2463L19.1447 11.2288C19.5754 10.8075 19.9163 10.3079 20.1485 9.75944C20.3807 9.21097 20.5 8.62368 20.5 8.03098C20.5 7.43828 20.3807 6.851 20.1485 6.30253C19.9163 5.75402 19.5753 5.25436 19.1445 4.833C18.714 4.41141 18.2019 4.07614 17.6372 3.84712C17.0724 3.61808 16.4665 3.5 15.8543 3.5C15.242 3.5 14.6362 3.61808 14.0714 3.84712C13.5066 4.07614 12.9946 4.41141 12.564 4.833L11.5243 5.85058C11.2328 6.13591 10.7667 6.13591 10.4751 5.85058L9.43558 4.83313C9.0664 4.4718 8.64082 4.17711 8.17834 3.95754C7.80415 3.77989 7.64483 3.33254 7.82248 2.95836C8.00013 2.58417 8.44748 2.42485 8.82166 2.6025C9.43176 2.89215 9.99502 3.28178 10.4848 3.76113L10.9997 4.26514L11.5146 3.76125C12.0858 3.20193 12.7633 2.75895 13.5077 2.45707Z" fill-rule="NONZERO"></path>
 </g>
</svg>