<svg viewBox="0 0 16 16" width="16" height="16" fill="currentColor" xmlns="http://www.w3.org/2000/svg">
 <g transform="translate(0, 0.5)">
  <path d="M1.78033 0.21967C1.48744 -0.0732233 1.01256 -0.0732233 0.71967 0.21967C0.426777 0.512563 0.426777 0.987437 0.71967 1.28033L1.30076 1.86142C0.468313 2.70479 0 3.83873 0 5.02213C0 6.22422 0.483228 7.37529 1.34049 8.22259L7.47259 14.2834C7.76476 14.5722 8.23487 14.5722 8.52704 14.2834L11.1401 11.7007L14.2197 14.7803C14.5126 15.0732 14.9874 15.0732 15.2803 14.7803C15.5732 14.4874 15.5732 14.0126 15.2803 13.7197L1.78033 0.21967ZM10.0794 10.6401L2.36146 2.92212C1.80842 3.48601 1.5 4.23922 1.5 5.02213C1.5 5.8207 1.82088 6.58837 2.39494 7.15575L7.99981 12.6955L10.0794 10.6401Z" fill-rule="EVENODD"></path>
  <path d="M11.4335 0.5C10.835 0.5 10.2422 0.616535 9.68884 0.843158C9.13551 1.06977 8.63208 1.40225 8.20777 1.82179L7.47259 2.54842C7.17799 2.8396 7.17522 3.31446 7.46639 3.60906C7.75757 3.90366 8.23244 3.90644 8.52704 3.61526L9.26246 2.88839C9.54672 2.6073 9.8847 2.38386 10.2573 2.23126C10.6299 2.07866 11.0297 2 11.4335 2C11.8374 2 12.2371 2.07866 12.6097 2.23126C12.9823 2.38386 13.3206 2.60755 13.6048 2.88864C13.8892 3.16957 14.1143 3.50266 14.2677 3.86864C14.4212 4.23459 14.5 4.62653 14.5 5.02213C14.5 5.41773 14.4212 5.80967 14.2677 6.17562C14.1143 6.5416 13.8891 6.87481 13.6047 7.15575L12.8694 7.8825C12.5748 8.17368 12.572 8.64854 12.8632 8.94314C13.1544 9.23774 13.6292 9.24052 13.9238 8.94934L14.6591 8.22259C15.0836 7.80319 15.4208 7.30477 15.6511 6.75556C15.8814 6.20628 16 5.61722 16 5.02213C16 4.42704 15.8814 3.83798 15.6511 3.2887C15.4209 2.73955 15.0837 2.24117 14.6593 1.82179C14.2349 1.40219 13.7316 1.06979 13.1782 0.843158C12.6248 0.616535 12.032 0.5 11.4335 0.5Z" fill-rule="NONZERO"></path>
 </g>
</svg>