<svg width="24" height="24" viewBox="0 0 24 24" fill="none" xmlns="http://www.w3.org/2000/svg">
<g id="size=24">
<g id="Union">
<path fill-rule="evenodd" clip-rule="evenodd" d="M12.3487 7.53627C11.7372 7.43553 11.1098 7.54647 10.5791 7.84601C10.049 8.14524 9.65327 8.61078 9.4542 9.15426C9.31174 9.5432 8.88095 9.74301 8.492 9.60054C8.10306 9.45808 7.90325 9.02729 8.04572 8.63835C8.37089 7.75058 9.00995 7.00925 9.84181 6.53973C10.6731 6.07052 11.647 5.90046 12.5926 6.05621C13.5383 6.212 14.4021 6.68509 15.028 7.3992C15.6545 8.11387 16.0013 9.02348 16 9.96759C15.9999 10.604 15.8726 11.1364 15.6311 11.5876C15.3907 12.0368 15.062 12.3586 14.7309 12.6093C14.4675 12.8087 14.1754 12.9813 13.9273 13.1278C13.8773 13.1574 13.829 13.1859 13.7831 13.2134C13.4885 13.3898 13.2573 13.5416 13.0714 13.7202C12.8863 13.8979 12.8074 14.0611 12.7726 14.1613C12.7547 14.213 12.7476 14.2507 12.7449 14.2683L12.744 14.2755C12.7305 14.6779 12.4001 15 11.9944 15C11.5802 15 11.2444 14.6642 11.2444 14.25C11.2445 14.0517 11.2908 13.8559 11.3555 13.6695C11.4601 13.3682 11.6599 12.996 12.0323 12.6383C12.3495 12.3337 12.7071 12.1093 13.0127 11.9264C13.0738 11.8898 13.1324 11.8551 13.1887 11.8217C13.4338 11.6765 13.6368 11.5562 13.8255 11.4133C14.0432 11.2486 14.2004 11.0819 14.3086 10.8797C14.4157 10.6797 14.5 10.3978 14.5 9.96706L14.5 9.96589C14.5008 9.39302 14.2908 8.83382 13.9 8.38793C13.5086 7.94133 12.9601 7.63697 12.3487 7.53627Z" fill="#000001"/>
<path d="M12 16C11.4477 16 11 16.4477 11 17C11 17.5523 11.4477 18 12 18H12.01C12.5623 18 13.01 17.5523 13.01 17C13.01 16.4477 12.5623 16 12.01 16H12Z" fill="#000001"/>
<path fill-rule="evenodd" clip-rule="evenodd" d="M1 12C1 5.92487 5.92487 1 12 1C18.0751 1 23 5.92487 23 12C23 18.0751 18.0751 23 12 23C5.92487 23 1 18.0751 1 12ZM12 2.5C6.75329 2.5 2.5 6.75329 2.5 12C2.5 17.2467 6.75329 21.5 12 21.5C17.2467 21.5 21.5 17.2467 21.5 12C21.5 6.75329 17.2467 2.5 12 2.5Z" fill="#000001"/>
</g>
</g>
</svg>
