<svg width="24" height="24" viewBox="0 0 24 24" fill="none" xmlns="http://www.w3.org/2000/svg">
<g id="size=24">
<path id="Shape (Stroke)" fill-rule="evenodd" clip-rule="evenodd" d="M10.5587 1.00633C11.4426 0.462408 12.5574 0.462409 13.4413 1.00633L21.1913 5.77556C22.0046 6.27605 22.5 7.16265 22.5 8.11762V15.8824C22.5 16.8374 22.0046 17.724 21.1913 18.2245L13.4413 22.9937C12.5574 23.5376 11.4426 23.5376 10.5587 22.9937L2.80873 18.2245C1.99543 17.724 1.5 16.8374 1.5 15.8824V8.11762C1.5 7.16265 1.99543 6.27605 2.80873 5.77556L10.5587 1.00633ZM12.6551 2.28382C12.2534 2.03658 11.7466 2.03658 11.3449 2.28382L3.59488 7.05305C3.22519 7.28054 3 7.68354 3 8.11762V15.8824C3 16.3165 3.22519 16.7195 3.59488 16.947L11.3449 21.7162C11.7466 21.9635 12.2534 21.9635 12.6551 21.7162L20.4051 16.947C20.7748 16.7195 21 16.3165 21 15.8824V8.11762C21 7.68354 20.7748 7.28054 20.4051 7.05305L12.6551 2.28382Z" fill="black"/>
</g>
</svg>
