<svg viewBox="0 0 24 24" width="24" height="24" fill="currentColor" xmlns="http://www.w3.org/2000/svg">
 <g transform="translate(1.5, 0.598360002040863)">
  <path d="M9.05873 0.407939C9.9426 -0.135981 11.0574 -0.135979 11.9413 0.40794L19.6913 5.17717C20.5046 5.67767 21 6.56426 21 7.51923L21 15.284C21 16.239 20.5046 17.1256 19.6913 17.6261L11.9413 22.3953C11.0574 22.9393 9.9426 22.9393 9.05873 22.3953L1.30873 17.6261C0.495427 17.1256 0 16.239 0 15.284L0 7.51923C0 6.56426 0.495429 5.67766 1.30873 5.17717L9.05873 0.407939ZM11.1551 1.68543C10.7534 1.43819 10.2466 1.43819 9.84488 1.68543L2.09488 6.45466C1.72519 6.68216 1.5 7.08516 1.5 7.51923L1.5 15.284C1.5 15.7181 1.72519 16.1211 2.09488 16.3486L9.84488 21.1179C10.2466 21.3651 10.7534 21.3651 11.1551 21.1179L18.9051 16.3486C19.2748 16.1211 19.5 15.7181 19.5 15.284L19.5 7.51923C19.5 7.08515 19.2748 6.68216 18.9051 6.45466L11.1551 1.68543Z" fill-rule="EVENODD"></path>
 </g>
</svg>