<svg width="24" height="24" viewBox="0 0 24 24" fill="none" xmlns="http://www.w3.org/2000/svg">
<g id="size=24">
<g id="Union">
<path d="M12 3.5C9.65258 3.5 7.52861 4.45057 5.98959 5.98959C5.67608 6.30311 5.38696 6.64095 5.12533 7H8.25C8.66421 7 9 7.33579 9 7.75C9 8.16421 8.66421 8.5 8.25 8.5H3.75C3.33579 8.5 3 8.16421 3 7.75V3.25C3 2.83579 3.33579 2.5 3.75 2.5C4.16421 2.5 4.5 2.83579 4.5 3.25V5.38545C4.63823 5.22883 4.78129 5.07658 4.92893 4.92893C6.73775 3.12011 9.23878 2 12 2C17.5228 2 22 6.47715 22 12C22 17.5228 17.5228 22 12 22C6.47715 22 2 17.5228 2 12C2 11.5858 2.33579 11.25 2.75 11.25C3.16421 11.25 3.5 11.5858 3.5 12C3.5 16.6944 7.30558 20.5 12 20.5C16.6944 20.5 20.5 16.6944 20.5 12C20.5 7.30558 16.6944 3.5 12 3.5Z" fill="#000001"/>
<path d="M11.75 6C12.1642 6 12.5 6.33579 12.5 6.75V12.5365L16.5854 14.5792C16.9559 14.7644 17.1061 15.2149 16.9208 15.5854C16.7356 15.9559 16.2851 16.1061 15.9146 15.9208L11.4146 13.6708C11.1605 13.5438 11 13.2841 11 13V6.75C11 6.33579 11.3358 6 11.75 6Z" fill="#000001"/>
</g>
</g>
</svg>
