<svg width="24" height="24" viewBox="0 0 24 24" fill="none" xmlns="http://www.w3.org/2000/svg">
<g id="Size=24">
<g id="Union">
<path d="M11.8467 2.81867C11.9369 2.74859 12.0631 2.74859 12.1533 2.81867L20.4033 9.22621C20.4643 9.27357 20.5 9.34645 20.5 9.42365V21.2499C20.5 21.6641 20.8358 21.9999 21.25 21.9999C21.6642 21.9999 22 21.6641 22 21.2499V9.42365C22 8.88319 21.7503 8.37306 21.3234 8.04155L13.0734 1.63401C12.4419 1.14348 11.5581 1.14348 10.9266 1.63401L2.67656 8.04155C2.24972 8.37306 2 8.8832 2 9.42365V21.2499C2 21.6641 2.33579 21.9999 2.75 21.9999C3.16421 21.9999 3.5 21.6641 3.5 21.2499V9.42365C3.5 9.34644 3.53567 9.27357 3.59665 9.22621L11.8467 2.81867Z" fill="black"/>
<path d="M9.5 15.75C9.5 15.6119 9.61193 15.5 9.75 15.5H14.25C14.3881 15.5 14.5 15.6119 14.5 15.75V21.25C14.5 21.6642 14.8358 22 15.25 22C15.6642 22 16 21.6642 16 21.25V15.75C16 14.7835 15.2165 14 14.25 14H9.75C8.7835 14 8 14.7835 8 15.75V21.25C8 21.6642 8.33579 22 8.75 22C9.16421 22 9.5 21.6642 9.5 21.25V15.75Z" fill="black"/>
</g>
</g>
</svg>
