<svg width="24" height="24" viewBox="0 0 24 24" fill="none" xmlns="http://www.w3.org/2000/svg">
<g id="size=24">
<g id="Union">
<path d="M7.85837 14.7896C8.40054 14.2794 9.12668 14 9.875 14H14.125C14.8733 14 15.5995 14.2794 16.1416 14.7896C16.6853 15.3014 17 16.0055 17 16.75V17.25C17 17.6642 16.6642 18 16.25 18C15.8358 18 15.5 17.6642 15.5 17.25V16.75C15.5 16.4337 15.3669 16.1204 15.1136 15.8819C14.8587 15.6421 14.5038 15.5 14.125 15.5H9.875C9.49615 15.5 9.14128 15.6421 8.88642 15.8819C8.6331 16.1204 8.5 16.4337 8.5 16.75V17.25C8.5 17.6642 8.16421 18 7.75 18C7.33579 18 7 17.6642 7 17.25V16.75C7 16.0055 7.31466 15.3014 7.85837 14.7896Z" fill="#000001"/>
<path fill-rule="evenodd" clip-rule="evenodd" d="M12 7.5C10.3431 7.5 9 8.84315 9 10.5C9 12.1569 10.3431 13.5 12 13.5C13.6569 13.5 15 12.1569 15 10.5C15 8.84315 13.6569 7.5 12 7.5ZM10.5 10.5C10.5 9.67157 11.1716 9 12 9C12.8284 9 13.5 9.67157 13.5 10.5C13.5 11.3284 12.8284 12 12 12C11.1716 12 10.5 11.3284 10.5 10.5Z" fill="#000001"/>
<path fill-rule="evenodd" clip-rule="evenodd" d="M8.75 1C7.7835 1 7 1.7835 7 2.75V3H3.75C2.23122 3 1 4.23122 1 5.75V18.25C1 19.7688 2.23122 21 3.75 21H20.25C21.7688 21 23 19.7688 23 18.25V5.75C23 4.23122 21.7688 3 20.25 3H17V2.75C17 1.7835 16.2165 1 15.25 1H8.75ZM17 4.5H20.25C20.9404 4.5 21.5 5.05964 21.5 5.75V18.25C21.5 18.9404 20.9404 19.5 20.25 19.5H3.75C3.05964 19.5 2.5 18.9404 2.5 18.25V5.75C2.5 5.05964 3.05964 4.5 3.75 4.5H7V4.75C7 5.7165 7.7835 6.5 8.75 6.5H15.25C16.2165 6.5 17 5.7165 17 4.75V4.5ZM8.5 4.75C8.5 4.88807 8.61193 5 8.75 5H15.25C15.3881 5 15.5 4.88807 15.5 4.75V2.75C15.5 2.61193 15.3881 2.5 15.25 2.5H8.75C8.61193 2.5 8.5 2.61193 8.5 2.75V4.75Z" fill="#000001"/>
</g>
</g>
</svg>
