<svg width="16" height="16" viewBox="0 0 16 16" fill="none" xmlns="http://www.w3.org/2000/svg">
<g id="Size=16">
<g id="Union">
<path d="M5.18658 10.482C5.59146 10.1608 6.11043 10 6.625 10H9.375C9.88957 10 10.4085 10.1608 10.8134 10.482C11.2227 10.8067 11.5 11.2893 11.5 11.8409V12.25C11.5 12.6642 11.1642 13 10.75 13C10.3358 13 10 12.6642 10 12.25V11.8409C10 11.8139 9.9876 11.7415 9.88112 11.6571C9.77028 11.5691 9.58978 11.5 9.375 11.5H6.625C6.41022 11.5 6.22972 11.5691 6.11888 11.6571C6.0124 11.7415 6 11.8139 6 11.8409V12.25C6 12.6642 5.66421 13 5.25 13C4.83579 13 4.5 12.6642 4.5 12.25V11.8409C4.5 11.2893 4.77733 10.8067 5.18658 10.482Z" fill="black"/>
<path fill-rule="evenodd" clip-rule="evenodd" d="M8 4.5C6.61929 4.5 5.5 5.61929 5.5 7C5.5 8.38071 6.61929 9.5 8 9.5C9.38071 9.5 10.5 8.38071 10.5 7C10.5 5.61929 9.38071 4.5 8 4.5ZM7 7C7 6.44772 7.44772 6 8 6C8.55228 6 9 6.44772 9 7C9 7.55228 8.55228 8 8 8C7.44772 8 7 7.55228 7 7Z" fill="black"/>
<path fill-rule="evenodd" clip-rule="evenodd" d="M5.25 0C4.55964 0 4 0.559644 4 1.25V2H2.25C1.00736 2 0 3.00736 0 4.25V12.75C0 13.9926 1.00736 15 2.25 15H13.75C14.9926 15 16 13.9926 16 12.75V4.25C16 3.00736 14.9926 2 13.75 2H12V1.25C12 0.559644 11.4404 0 10.75 0H5.25ZM11.7501 3.5C11.522 3.80361 11.159 4 10.75 4H5.25C4.84105 4 4.47796 3.80361 4.24991 3.5H2.25C1.83579 3.5 1.5 3.83579 1.5 4.25V12.75C1.5 13.1642 1.83579 13.5 2.25 13.5H13.75C14.1642 13.5 14.5 13.1642 14.5 12.75V4.25C14.5 3.83579 14.1642 3.5 13.75 3.5H11.7501ZM10.5 2.5H5.5V1.5H10.5V2.5Z" fill="black"/>
</g>
</g>
</svg>
