<svg width="24" height="24" viewBox="0 0 24 24" fill="none" xmlns="http://www.w3.org/2000/svg">
<g id="size=24">
<g id="Union">
<path fill-rule="evenodd" clip-rule="evenodd" d="M6 8.5C6 7.11929 7.11929 6 8.5 6C9.88071 6 11 7.11929 11 8.5C11 9.88071 9.88071 11 8.5 11C7.11929 11 6 9.88071 6 8.5ZM8.5 7.5C7.94772 7.5 7.5 7.94772 7.5 8.5C7.5 9.05228 7.94772 9.5 8.5 9.5C9.05228 9.5 9.5 9.05228 9.5 8.5C9.5 7.94772 9.05228 7.5 8.5 7.5Z" fill="#000001"/>
<path fill-rule="evenodd" clip-rule="evenodd" d="M2 4.75C2 3.23122 3.23122 2 4.75 2H19.25C20.7688 2 22 3.23122 22 4.75V14.9943C22 14.9982 22 15.002 22 15.0058V19.25C22 20.7688 20.7688 22 19.25 22H4.75C3.23122 22 2 20.7688 2 19.25V4.75ZM20.5 13.25V4.75C20.5 4.05964 19.9404 3.5 19.25 3.5H4.75C4.05964 3.5 3.5 4.05964 3.5 4.75V19.25C3.5 19.2738 3.50066 19.2974 3.50198 19.3209L14.1555 10.5474C15.2289 9.66338 16.7933 9.71979 17.8003 10.6788L20.5 13.25ZM4.46844 20.4682L15.1091 11.7053C15.597 11.3034 16.3081 11.3291 16.7658 11.765L20.5 15.3214V19.25C20.5 19.9404 19.9404 20.5 19.25 20.5H4.75C4.65318 20.5 4.55893 20.489 4.46844 20.4682Z" fill="#000001"/>
</g>
</g>
</svg>
