<svg width="16" height="16" viewBox="0 0 16 16" fill="none" xmlns="http://www.w3.org/2000/svg">
<g id="size=16">
<g id="Union">
<path d="M1.75 2C1.33579 2 1 2.33579 1 2.75C1 3.16421 1.33579 3.5 1.75 3.5H3.25C3.66421 3.5 4 3.16421 4 2.75C4 2.33579 3.66421 2 3.25 2H1.75Z" fill="#000001"/>
<path d="M1 6.25C1 5.83579 1.33579 5.5 1.75 5.5H5.25C5.66421 5.5 6 5.83579 6 6.25C6 6.66421 5.66421 7 5.25 7H1.75C1.33579 7 1 6.66421 1 6.25Z" fill="#000001"/>
<path d="M1.75 9C1.33579 9 1 9.33579 1 9.75C1 10.1642 1.33579 10.5 1.75 10.5H5.25C5.66421 10.5 6 10.1642 6 9.75C6 9.33579 5.66421 9 5.25 9H1.75Z" fill="#000001"/>
<path d="M1.75 12.5C1.33579 12.5 1 12.8358 1 13.25C1 13.6642 1.33579 14 1.75 14H14.25C14.6642 14 15 13.6642 15 13.25C15 12.8358 14.6642 12.5 14.25 12.5H1.75Z" fill="#000001"/>
<path d="M7.48967 6.20041C7.7932 5.91856 8.26775 5.93613 8.5496 6.23967L10.5 8.3401V5.55C10.5 5.0048 10.2847 4.48287 9.90301 4.09878C9.52146 3.71484 9.00496 3.5 8.46739 3.5H7.25C6.83579 3.5 6.5 3.16421 6.5 2.75C6.5 2.33579 6.83579 2 7.25 2H8.46739C9.40581 2 10.3048 2.37516 10.967 3.04143C11.6289 3.70753 12 4.60998 12 5.55V8.3401L13.9504 6.23967C14.2323 5.93613 14.7068 5.91856 15.0103 6.20041C15.3139 6.48226 15.3315 6.95681 15.0496 7.26034L11.7996 10.7603C11.6577 10.9132 11.4586 11 11.25 11C11.0415 11 10.8423 10.9132 10.7004 10.7603L7.45041 7.26034C7.16856 6.95681 7.18613 6.48226 7.48967 6.20041Z" fill="#000001"/>
</g>
</g>
</svg>
