<svg width="24" height="24" viewBox="0 0 24 24" fill="none" xmlns="http://www.w3.org/2000/svg">
<g id="size=24">
<g id="Union">
<path d="M3.75 4C3.33579 4 3 4.33579 3 4.75C3 5.16421 3.33579 5.5 3.75 5.5H6.25C6.66421 5.5 7 5.16421 7 4.75C7 4.33579 6.66421 4 6.25 4H3.75Z" fill="#000001"/>
<path d="M3 9.75C3 9.33579 3.33579 9 3.75 9H10.25C10.6642 9 11 9.33579 11 9.75C11 10.1642 10.6642 10.5 10.25 10.5H3.75C3.33579 10.5 3 10.1642 3 9.75Z" fill="#000001"/>
<path d="M3.75 14C3.33579 14 3 14.3358 3 14.75C3 15.1642 3.33579 15.5 3.75 15.5H10.25C10.6642 15.5 11 15.1642 11 14.75C11 14.3358 10.6642 14 10.25 14H3.75Z" fill="#000001"/>
<path d="M3.75 19C3.33579 19 3 19.3358 3 19.75C3 20.1642 3.33579 20.5 3.75 20.5H20C20.4142 20.5 20.75 20.1642 20.75 19.75C20.75 19.3358 20.4142 19 20 19H3.75Z" fill="#000001"/>
<path d="M12.9517 12.2383C13.2343 11.9355 13.7089 11.9191 14.0117 12.2017L16.5 14.5241V8.75C16.5 7.88805 16.1576 7.0614 15.5481 6.4519C14.9386 5.84241 14.112 5.5 13.25 5.5H11.25C10.8358 5.5 10.5 5.16421 10.5 4.75C10.5 4.33579 10.8358 4 11.25 4H13.25C14.5098 4 15.718 4.50044 16.6088 5.39124C17.4996 6.28204 18 7.49022 18 8.75V14.5241L20.4883 12.2017C20.7911 11.9191 21.2657 11.9355 21.5483 12.2383C21.8309 12.5411 21.8146 13.0157 21.5117 13.2983L17.7617 16.7983C17.4736 17.0672 17.0264 17.0672 16.7383 16.7983L12.9883 13.2983C12.6855 13.0157 12.6691 12.5411 12.9517 12.2383Z" fill="#000001"/>
</g>
</g>
</svg>
