<svg width="16" height="16" viewBox="0 0 16 16" fill="none" xmlns="http://www.w3.org/2000/svg">
<g id="size=16">
<g id="Union">
<path d="M1.75 2C1.33579 2 1 2.33579 1 2.75C1 3.16421 1.33579 3.5 1.75 3.5H2.75C3.16421 3.5 3.5 3.16421 3.5 2.75C3.5 2.33579 3.16421 2 2.75 2H1.75Z" fill="#000001"/>
<path d="M6.75 5.5C6.33579 5.5 6 5.83579 6 6.25C6 6.66421 6.33579 7 6.75 7H10.25C10.6642 7 11 6.66421 11 6.25C11 5.83579 10.6642 5.5 10.25 5.5H6.75Z" fill="#000001"/>
<path d="M1 6.25C1 5.83579 1.33579 5.5 1.75 5.5H3.25C3.66421 5.5 4 5.83579 4 6.25C4 6.66421 3.66421 7 3.25 7H1.75C1.33579 7 1 6.66421 1 6.25Z" fill="#000001"/>
<path d="M1.75 9C1.33579 9 1 9.33579 1 9.75C1 10.1642 1.33579 10.5 1.75 10.5H2.25C2.66421 10.5 3 10.1642 3 9.75C3 9.33579 2.66421 9 2.25 9H1.75Z" fill="#000001"/>
<path d="M1 13.25C1 12.8358 1.33579 12.5 1.75 12.5H3.25C3.66421 12.5 4 12.8358 4 13.25C4 13.6642 3.66421 14 3.25 14H1.75C1.33579 14 1 13.6642 1 13.25Z" fill="#000001"/>
<path d="M6.75 2C6.33579 2 6 2.33579 6 2.75C6 3.16421 6.33579 3.5 6.75 3.5H13.25C13.6642 3.5 14 3.16421 14 2.75C14 2.33579 13.6642 2 13.25 2H6.75Z" fill="#000001"/>
<path d="M6 9.75C6 9.33579 6.33579 9 6.75 9H12.25C12.6642 9 13 9.33579 13 9.75C13 10.1642 12.6642 10.5 12.25 10.5H6.75C6.33579 10.5 6 10.1642 6 9.75Z" fill="#000001"/>
<path d="M6.75 12.5C6.33579 12.5 6 12.8358 6 13.25C6 13.6642 6.33579 14 6.75 14H14.25C14.6642 14 15 13.6642 15 13.25C15 12.8358 14.6642 12.5 14.25 12.5H6.75Z" fill="#000001"/>
</g>
</g>
</svg>
