<svg width="24" height="24" viewBox="0 0 24 24" fill="none" xmlns="http://www.w3.org/2000/svg">
<g id="size=24">
<g id="Union">
<path fill-rule="evenodd" clip-rule="evenodd" d="M13.8804 5.8769C14.4484 5.30886 15.2024 5 16.0015 5C16.3977 5 16.7854 5.07869 17.149 5.23028C18.2692 5.69772 19 6.78356 19 8.00326C19 8.78989 18.6791 9.55859 18.1252 10.1172C17.5603 10.6868 16.8019 11 16.0015 11C14.7817 11 13.6968 10.2686 13.2298 9.14824L13.2288 9.1459C12.766 8.02477 13.0162 6.73784 13.8804 5.8769ZM14.9407 6.93789C15.2252 6.65323 15.5968 6.5 16.0015 6.5C16.1972 6.5 16.389 6.53862 16.5719 6.61481C17.1373 6.85086 17.5 7.39315 17.5 8.00326C17.5 8.38878 17.3393 8.77945 17.0601 9.06097C16.779 9.34442 16.405 9.5 16.0015 9.5C15.3928 9.5 14.8511 9.13791 14.6148 8.57232C14.3821 8.0072 14.5093 7.3674 14.9394 6.93923L14.9407 6.93789Z" fill="black"/>
<path fill-rule="evenodd" clip-rule="evenodd" d="M14.3068 1.06813C14.6468 1.02124 14.9908 1 15.3281 1C17.3769 1 19.3082 1.79875 20.7568 3.24706C22.4363 4.92973 23.2482 7.33566 22.9332 9.69108L22.933 9.69221C22.6144 12.0472 21.1956 14.1558 19.1325 15.334C17.9734 15.9957 16.657 16.3464 15.3216 16.3464C14.4463 16.3464 13.5891 16.1981 12.7694 15.9092L11.7294 16.949C11.5035 17.1852 11.1899 17.3181 10.8655 17.3181H9.60068V18.3921L9.60052 18.4076C9.59327 18.7574 9.45539 19.0826 9.21789 19.3337L9.21073 19.3413C8.95176 19.6075 8.5975 19.749 8.2404 19.749H7.15626V20.9691C7.16695 21.2922 7.0462 21.5992 6.82481 21.8358C6.82114 21.8398 6.81743 21.8436 6.81368 21.8475C6.8116 21.8496 6.8095 21.8517 6.80738 21.8539L5.88068 22.7804C5.74004 22.921 5.5493 23 5.35041 23H1.75C1.33579 23 1 22.6642 1 22.25V18.6342C1 18.4352 1.07904 18.2445 1.21973 18.1038L8.08886 11.2361C7.35311 9.14539 7.55505 6.80144 8.66144 4.8674C9.84258 2.80247 11.9509 1.38369 14.3068 1.06813ZM14.5104 2.55424C14.7769 2.51744 15.0525 2.5 15.3281 2.5C16.9794 2.5 18.5289 3.14105 19.6958 4.30736C21.0451 5.65929 21.6996 7.59926 21.4464 9.49221C21.1899 11.3852 20.045 13.0855 18.3887 14.0314C17.4554 14.5642 16.3952 14.8464 15.3216 14.8464C14.4957 14.8464 13.69 14.6826 12.9248 14.3622C12.8226 14.3194 12.7132 14.2975 12.6028 14.2975C12.3506 14.2975 12.1556 14.4018 12.0209 14.5365L10.739 15.8181H9.13481C8.55672 15.8181 8.10068 16.2887 8.10068 16.8522V18.249H6.69039C6.11258 18.249 5.65626 18.7194 5.65626 19.2831V20.8836L5.0398 21.5H2.5V18.9449L9.45522 11.9912C9.68204 11.7643 9.7756 11.4063 9.63416 11.0762C8.89293 9.31246 9.01492 7.27032 9.96346 5.6122C10.913 3.95214 12.6143 2.8078 14.5072 2.55468L14.5104 2.55424Z" fill="black"/>
</g>
</g>
</svg>
