<svg viewBox="0 0 24 24" width="24" height="24" fill="currentColor" xmlns="http://www.w3.org/2000/svg">
 <g transform="translate(3, 5)">
  <path d="M0.75 0C0.335786 0 0 0.335786 0 0.75C0 1.16421 0.335786 1.5 0.75 1.5L3.25 1.5C3.66421 1.5 4 1.16421 4 0.75C4 0.335786 3.66421 0 3.25 0L0.75 0Z" fill-rule="NONZERO"></path>
  <path d="M7.75 4C7.33579 4 7 4.33579 7 4.75C7 5.16421 7.33579 5.5 7.75 5.5L13.25 5.5C13.6642 5.5 14 5.16421 14 4.75C14 4.33579 13.6642 4 13.25 4L7.75 4Z" fill-rule="NONZERO"></path>
  <path d="M0 4.75C0 4.33579 0.335786 4 0.75 4L4.25 4C4.66421 4 5 4.33579 5 4.75C5 5.16421 4.66421 5.5 4.25 5.5L0.75 5.5C0.335786 5.5 0 5.16421 0 4.75Z" fill-rule="NONZERO"></path>
  <path d="M0.75 8C0.335786 8 0 8.33579 0 8.75C0 9.16421 0.335786 9.5 0.75 9.5L2.25 9.5C2.66421 9.5 3 9.16421 3 8.75C3 8.33579 2.66421 8 2.25 8L0.75 8Z" fill-rule="NONZERO"></path>
  <path d="M0 12.75C0 12.3358 0.335786 12 0.75 12L4.25 12C4.66421 12 5 12.3358 5 12.75C5 13.1642 4.66421 13.5 4.25 13.5L0.75 13.5C0.335786 13.5 0 13.1642 0 12.75Z" fill-rule="NONZERO"></path>
  <path d="M7.75 0C7.33579 0 7 0.335786 7 0.75C7 1.16421 7.33579 1.5 7.75 1.5L16.25 1.5C16.6642 1.5 17 1.16421 17 0.75C17 0.335786 16.6642 0 16.25 0L7.75 0Z" fill-rule="NONZERO"></path>
  <path d="M7 8.75C7 8.33579 7.33579 8 7.75 8L15.25 8C15.6642 8 16 8.33579 16 8.75C16 9.16421 15.6642 9.5 15.25 9.5L7.75 9.5C7.33579 9.5 7 9.16421 7 8.75Z" fill-rule="NONZERO"></path>
  <path d="M7.75 12C7.33579 12 7 12.3358 7 12.75C7 13.1642 7.33579 13.5 7.75 13.5L17.25 13.5C17.6642 13.5 18 13.1642 18 12.75C18 12.3358 17.6642 12 17.25 12L7.75 12Z" fill-rule="NONZERO"></path>
 </g>
</svg>