<svg width="24" height="24" viewBox="0 0 24 24" fill="none" xmlns="http://www.w3.org/2000/svg">
<g id="Size=24, Style=Color">
<g id="Group">
<path id="Vector" d="M7 21.3836C7.30617 21.7808 7.76976 22 8.24897 22H15.75C16.2292 22 16.6938 21.7636 17 21.38L21.6537 15.411C21.9599 15.0137 22.0663 14.5068 21.9599 14.0137L20.2959 6.57534C20.1894 6.08219 19.8699 5.68493 19.4307 5.46575L12.695 2.16438C12.482 2.05479 12.2424 2 12.0028 2C11.7632 2 11.5236 2.05479 11.3106 2.16438L4.57499 5.47945C4.13571 5.69863 3.81623 6.09589 3.70974 6.58904L2.0458 14.0274C1.92599 14.5205 2.0458 15.0274 2.35196 15.4247L7 21.3836Z" fill="#326DE6"/>
<path id="Vector_2" fill-rule="evenodd" clip-rule="evenodd" d="M18.773 13.6118C18.9132 13.615 19.0531 13.6263 19.192 13.6454C19.2155 13.6497 19.2459 13.6573 19.2745 13.6645C19.2904 13.6685 19.3058 13.6723 19.3191 13.6754C19.3796 13.6834 19.4377 13.7039 19.4898 13.7356C19.5419 13.7673 19.5868 13.8094 19.6216 13.8594C19.6565 13.9094 19.6804 13.966 19.692 14.0258C19.7036 14.0855 19.7026 14.147 19.689 14.2063C19.6755 14.2657 19.6496 14.3215 19.6131 14.3703C19.5767 14.4191 19.5304 14.4598 19.4773 14.4897C19.4242 14.5197 19.3654 14.5382 19.3046 14.5442C19.2439 14.5502 19.1826 14.5435 19.1246 14.5245L19.1184 14.5236L19.1143 14.5222L19.1098 14.5207C19.0962 14.5177 19.0814 14.5148 19.0665 14.5118C19.0417 14.5068 19.0167 14.5018 18.9969 14.4967C18.8634 14.4539 18.7324 14.4035 18.6047 14.3457C18.3585 14.2467 18.1032 14.1718 17.8425 14.1222C17.7523 14.1194 17.6646 14.1519 17.5981 14.2127C17.5661 14.2062 17.4676 14.1891 17.4111 14.1801C16.9885 15.5059 16.0919 16.6306 14.8918 17.3402C14.9123 17.4003 14.9366 17.459 14.9646 17.5161C14.92 17.5941 14.908 17.6864 14.931 17.7732C15.0373 18.0158 15.1671 18.2475 15.3185 18.465C15.4033 18.5761 15.4815 18.6921 15.5529 18.8123C15.5648 18.8348 15.5794 18.8656 15.5928 18.8938L15.6098 18.9296C15.6413 18.982 15.6614 19.0404 15.6689 19.1011C15.6763 19.1617 15.671 19.2232 15.6532 19.2817C15.6354 19.3401 15.6055 19.3942 15.5654 19.4405C15.5254 19.4867 15.4761 19.5241 15.4207 19.5502C15.3653 19.5763 15.3051 19.5906 15.2438 19.5921C15.1826 19.5936 15.1217 19.5823 15.0651 19.5589C15.0085 19.5355 14.9574 19.5006 14.9151 19.4564C14.8729 19.4121 14.8404 19.3596 14.8197 19.3021L14.8053 19.2728C14.7913 19.2446 14.7761 19.214 14.7657 19.1903C14.7157 19.0597 14.6734 18.9264 14.6388 18.7909C14.5629 18.5375 14.4624 18.2921 14.3387 18.0582C14.2849 17.9858 14.2048 17.9372 14.1155 17.923C14.1086 17.9109 14.0918 17.8805 14.0733 17.8471C14.0554 17.8148 14.036 17.7797 14.0223 17.7554C12.7224 18.2463 11.2867 18.2426 9.98927 17.7452L9.89017 17.9238C9.81956 17.9348 9.75391 17.9667 9.7018 18.0155C9.55277 18.2594 9.43885 18.5229 9.36338 18.7984C9.32914 18.9338 9.28702 19.0672 9.23725 19.1978C9.22802 19.2188 9.21465 19.2455 9.20186 19.2709C9.19526 19.2841 9.18883 19.2969 9.18319 19.3085V19.3095L9.18247 19.3103C9.16176 19.3678 9.12921 19.4203 9.08691 19.4645C9.04461 19.5087 8.9935 19.5436 8.93688 19.5669C8.88025 19.5902 8.81936 19.6014 8.75812 19.5998C8.69688 19.5983 8.63665 19.5839 8.5813 19.5577C8.52596 19.5315 8.47672 19.4941 8.43676 19.4478C8.3968 19.4015 8.36701 19.3474 8.3493 19.2889C8.33159 19.2304 8.32635 19.1689 8.33392 19.1083C8.3415 19.0477 8.36172 18.9893 8.39327 18.9369C8.39939 18.9243 8.40623 18.9096 8.41329 18.8943C8.4255 18.868 8.43838 18.8402 8.4494 18.8194C8.52073 18.699 8.59897 18.5827 8.68374 18.4713C8.83793 18.2481 8.97039 18.0108 9.07933 17.7625C9.09088 17.6783 9.07731 17.5926 9.04029 17.516L9.11992 17.3261C7.92367 16.6222 7.02712 15.5061 6.59938 14.1884L6.40883 14.221C6.33503 14.1686 6.248 14.138 6.15761 14.1325C5.89696 14.1822 5.64177 14.2571 5.39565 14.356C5.26792 14.4134 5.13703 14.4634 5.00359 14.5059C4.98349 14.5113 4.95787 14.5167 4.93263 14.5221C4.91809 14.5252 4.90368 14.5282 4.89051 14.5313L4.88616 14.5326L4.88223 14.5338L4.8757 14.5349C4.8177 14.5539 4.75635 14.5606 4.69559 14.5546C4.63483 14.5486 4.57599 14.5301 4.52284 14.5001C4.46969 14.4701 4.42339 14.4295 4.38692 14.3806C4.35045 14.3318 4.32459 14.2759 4.31102 14.2166C4.29745 14.1572 4.29646 14.0957 4.3081 14.0359C4.31975 13.9762 4.34377 13.9195 4.37865 13.8695C4.41353 13.8195 4.45848 13.7774 4.51064 13.7457C4.56279 13.7141 4.621 13.6936 4.68153 13.6857L4.68775 13.6838L4.69158 13.683L4.6997 13.681C4.73484 13.6722 4.77718 13.6617 4.80829 13.656C4.94729 13.6367 5.08729 13.6255 5.22759 13.6223C5.4923 13.6049 5.75467 13.5618 6.01098 13.4935C6.0869 13.4454 6.15108 13.3809 6.19883 13.3049L6.38181 13.2518C6.1832 11.8766 6.50073 10.4767 7.27353 9.32058L7.13363 9.19585C7.12844 9.10553 7.09798 9.01847 7.04571 8.94453C6.84446 8.77194 6.62679 8.61936 6.3958 8.48897C6.27105 8.42546 6.15006 8.35486 6.03345 8.2775C6.01321 8.26276 5.98791 8.24189 5.96436 8.22245L5.94316 8.20501L5.93642 8.20026C5.83701 8.12906 5.76991 8.02153 5.74977 7.90115C5.72963 7.78077 5.75809 7.65733 5.82893 7.55781C5.87077 7.50668 5.92411 7.4661 5.98462 7.43937C6.04512 7.41264 6.1111 7.40051 6.17719 7.40396C6.28842 7.40872 6.39519 7.44889 6.48185 7.51857L6.51275 7.54288C6.5361 7.56116 6.56082 7.58051 6.57899 7.59602C6.68062 7.69197 6.77664 7.79367 6.86656 7.90062C7.04519 8.09625 7.24253 8.27404 7.45579 8.43145C7.53568 8.47332 7.62883 8.48233 7.7153 8.45654C7.76749 8.49447 7.82017 8.53171 7.87332 8.56827C8.64125 7.75437 9.63561 7.1879 10.7288 6.94158C10.989 6.88283 11.253 6.84235 11.5189 6.82047L11.5292 6.63605C11.5971 6.57596 11.6463 6.49779 11.6711 6.41075C11.6807 6.14636 11.6644 5.88168 11.6224 5.62044C11.5946 5.48349 11.5747 5.34508 11.5628 5.20587C11.562 5.18405 11.5626 5.15644 11.5632 5.12954L11.5638 5.09435L11.5633 5.08861C11.5631 5.08648 11.5628 5.08435 11.5628 5.08217C11.5566 5.02125 11.5633 4.95972 11.5824 4.90154C11.6015 4.84335 11.6327 4.78982 11.6739 4.74438C11.715 4.69894 11.7653 4.66262 11.8214 4.63774C11.8775 4.61287 11.9382 4.6 11.9996 4.59998C12.061 4.59995 12.1218 4.61275 12.1779 4.63757C12.234 4.66239 12.2843 4.69867 12.3255 4.74407C12.3667 4.78947 12.3979 4.84297 12.4171 4.90114C12.4363 4.9593 12.443 5.02083 12.4369 5.08175C12.4369 5.09576 12.4372 5.11156 12.4375 5.12769C12.438 5.15518 12.4385 5.18363 12.4376 5.20575C12.4258 5.34487 12.4059 5.48319 12.3781 5.62001C12.3359 5.8813 12.3193 6.14605 12.3286 6.41054C12.3458 6.49892 12.397 6.5771 12.4712 6.6284L12.4717 6.63911C12.4737 6.67931 12.4781 6.77042 12.4817 6.82294C13.8634 6.94822 15.1525 7.56928 16.1095 8.57074L16.2758 8.45231C16.3651 8.46759 16.457 8.45765 16.5409 8.42361C16.7541 8.26589 16.9515 8.08787 17.1301 7.89205C17.2204 7.78503 17.3169 7.68333 17.419 7.58745C17.4388 7.57028 17.4666 7.54872 17.4918 7.52914L17.5159 7.51032C17.5598 7.46725 17.6122 7.43386 17.6699 7.41232C17.7275 7.39077 17.7891 7.38155 17.8506 7.38525C17.912 7.38896 17.972 7.4055 18.0266 7.43382C18.0813 7.46213 18.1293 7.50158 18.1677 7.5496C18.206 7.59763 18.2338 7.65315 18.2493 7.71258C18.2647 7.77201 18.2675 7.83401 18.2573 7.89457C18.2472 7.95512 18.2244 8.01288 18.1904 8.06408C18.1565 8.11529 18.1121 8.1588 18.0602 8.1918C18.0495 8.20035 18.0376 8.21015 18.0254 8.22017C18.004 8.23773 17.9819 8.25596 17.964 8.26924C17.8471 8.34659 17.7259 8.41713 17.6008 8.4805C17.3698 8.6109 17.1521 8.7634 16.9508 8.93586C16.8922 9.00429 16.8628 9.09285 16.8688 9.18264C16.8566 9.19386 16.8287 9.21872 16.7982 9.24584C16.7684 9.27234 16.7363 9.301 16.714 9.32121C17.4889 10.4732 17.8128 11.8688 17.6242 13.2431L17.8007 13.2944C17.8447 13.3736 17.91 13.4391 17.9891 13.4835C18.2456 13.5516 18.5082 13.5945 18.773 13.6118ZM10.9866 8.05757C11.1406 8.02302 11.2962 7.99634 11.4529 7.97765L11.323 10.2634L11.3134 10.268C11.3105 10.3374 11.2887 10.4047 11.2505 10.4627C11.2122 10.5208 11.1588 10.5674 11.0961 10.5976C11.0334 10.6278 10.9636 10.6405 10.8942 10.6343C10.8248 10.6281 10.7584 10.6033 10.702 10.5624L10.6984 10.5645L8.81847 9.2354C9.41695 8.64896 10.1679 8.241 10.9866 8.05757ZM13.2987 10.5571L15.1665 9.23674C14.4557 8.54229 13.5356 8.09992 12.548 7.97765L12.6778 10.2599L12.6798 10.2609C12.683 10.3303 12.705 10.3976 12.7435 10.4555C12.7819 10.5134 12.8354 10.5599 12.8982 10.59C12.961 10.62 13.0308 10.6325 13.1001 10.6262C13.1695 10.6199 13.2359 10.5949 13.2922 10.554L13.2987 10.5571ZM16.5093 12.9228L14.2982 12.2878L14.2961 12.2785C14.229 12.26 14.1681 12.2238 14.12 12.1736C14.0719 12.1234 14.0383 12.0611 14.0228 11.9934C14.0073 11.9257 14.0104 11.8551 14.0319 11.789C14.0535 11.7229 14.0925 11.6639 14.1449 11.6182L14.1441 11.6138L15.8509 10.0907C16.3736 10.9382 16.6048 11.9325 16.5093 12.9228ZM13.5651 14.1428L14.4483 16.2704C15.2932 15.7327 15.9344 14.9297 16.2703 13.988L13.9945 13.6045L13.9906 13.6093C13.9615 13.6036 13.9318 13.6014 13.9021 13.6028C13.8508 13.6055 13.8006 13.6185 13.7545 13.641C13.6651 13.6841 13.5958 13.7599 13.561 13.8526C13.5262 13.9454 13.5287 14.048 13.5678 14.139L13.5651 14.1428ZM13.0149 16.8642C12.1971 17.0512 11.3431 17.0075 10.5488 16.7379L11.6582 14.7377H11.66C11.693 14.6765 11.742 14.6255 11.8017 14.5898C11.8615 14.5542 11.9297 14.5354 11.9994 14.5353C12.069 14.5352 12.1373 14.554 12.1971 14.5895C12.2569 14.625 12.3059 14.676 12.339 14.737H12.3473L13.4595 16.7406C13.3152 16.7886 13.167 16.8297 13.0149 16.8642ZM9.56066 16.2619L10.4348 14.1558L10.4283 14.1474C10.4532 14.0894 10.4634 14.0262 10.458 13.9633C10.4526 13.9005 10.4318 13.8399 10.3973 13.787C10.3629 13.7341 10.3159 13.6904 10.2606 13.6599C10.2052 13.6294 10.1432 13.6129 10.0799 13.612C10.0545 13.6117 10.0292 13.6139 10.0043 13.6187L10.0005 13.6136L7.74471 13.9957C8.08334 14.9298 8.72167 15.7264 9.56066 16.2619ZM8.13677 10.0896L9.8531 11.6203L9.85124 11.6296C9.90385 11.6752 9.94304 11.7342 9.96464 11.8003C9.98625 11.8665 9.98945 11.9372 9.9739 12.005C9.95836 12.0727 9.92466 12.135 9.8764 12.1852C9.82813 12.2354 9.76711 12.2716 9.69984 12.2899L9.69808 12.2973L7.49805 12.9303C7.38843 11.939 7.61317 10.9394 8.13677 10.0896ZM12.3508 11.7384H11.6479L11.2098 12.2823L11.3668 12.962L11.9999 13.2655L12.6312 12.9626L12.7879 12.2832L12.3508 11.7384Z" fill="white"/>
</g>
</g>
</svg>
