<svg width="16" height="16" viewBox="0 0 16 16" fill="none" xmlns="http://www.w3.org/2000/svg">
<g id="size=16">
<path id="Vector" fill-rule="evenodd" clip-rule="evenodd" d="M5.37428 15C5.03883 15 4.71432 14.8466 4.5 14.5685L1.24637 10.3973C1.03206 10.1192 0.948194 9.76438 1.03206 9.41918L2.19682 4.21233C2.27136 3.86712 2.49499 3.58904 2.80249 3.43562L7.51744 1.11507C7.66653 1.03836 7.83425 1 8.00198 1C8.1697 1 8.33743 1.03836 8.48652 1.11507L13.2015 3.42603C13.509 3.57945 13.7326 3.85753 13.8071 4.20274L14.9719 9.40959C15.0464 9.75479 14.9719 10.1096 14.7576 10.3877L11.5 14.566C11.2857 14.8345 10.9605 15 10.625 15H5.37428ZM13.0921 9.16516C13.1033 9.16794 13.114 9.17063 13.1234 9.17277C13.1657 9.17838 13.2064 9.19273 13.2429 9.21492C13.2794 9.2371 13.3108 9.26662 13.3351 9.3016C13.3595 9.33658 13.3763 9.37625 13.3844 9.41807C13.3926 9.45988 13.3918 9.50293 13.3823 9.54445C13.3728 9.58598 13.3547 9.62507 13.3292 9.65922C13.3037 9.69338 13.2713 9.72185 13.2341 9.74281C13.1969 9.76378 13.1558 9.77677 13.1132 9.78097C13.0707 9.78517 13.0278 9.78048 12.9872 9.7672L12.9829 9.76655C12.9819 9.76627 12.981 9.76593 12.98 9.76558C12.979 9.7652 12.9779 9.76483 12.9769 9.76453C12.9674 9.76244 12.957 9.76037 12.9466 9.75828C12.9292 9.7548 12.9117 9.7513 12.8978 9.74769C12.8043 9.71777 12.7127 9.68249 12.6233 9.64201C12.4509 9.57271 12.2723 9.5203 12.0897 9.48553C12.0266 9.48358 11.9652 9.50633 11.9187 9.54892C11.8963 9.54437 11.8273 9.53237 11.7878 9.52608C11.4919 10.4542 10.8643 11.2415 10.0242 11.7382C10.0386 11.7802 10.0556 11.8213 10.0752 11.8613C10.044 11.9159 10.0356 11.9805 10.0517 12.0412C10.1261 12.2111 10.217 12.3733 10.323 12.5255C10.3823 12.6033 10.4371 12.6845 10.487 12.7686C10.4953 12.7843 10.5056 12.8059 10.5149 12.8257C10.5192 12.8346 10.5232 12.8432 10.5269 12.8507C10.5489 12.8874 10.563 12.9283 10.5682 12.9708C10.5734 13.0132 10.5697 13.0563 10.5572 13.0972C10.5448 13.1381 10.5238 13.176 10.4958 13.2083C10.4678 13.2407 10.4333 13.2669 10.3945 13.2852C10.3557 13.3034 10.3136 13.3134 10.2707 13.3145C10.2278 13.3155 10.1852 13.3076 10.1456 13.2912C10.1059 13.2749 10.0702 13.2504 10.0406 13.2195C10.011 13.1885 9.98826 13.1517 9.9738 13.1115C9.97067 13.1051 9.96723 13.0981 9.96368 13.091C9.95389 13.0712 9.94325 13.0498 9.93596 13.0332C9.90101 12.9418 9.87136 12.8485 9.84716 12.7537C9.79406 12.5763 9.7237 12.4045 9.63709 12.2408C9.59945 12.1901 9.54337 12.1561 9.48088 12.1461C9.47601 12.1376 9.46425 12.1164 9.45131 12.093C9.4388 12.0704 9.42519 12.0458 9.41564 12.0288C8.50568 12.3724 7.50068 12.3699 6.59249 12.0216L6.52312 12.1467C6.47369 12.1544 6.42774 12.1767 6.39126 12.2109C6.28694 12.3816 6.20719 12.566 6.15437 12.7589C6.1304 12.8537 6.10091 12.947 6.06607 13.0385C6.05962 13.0532 6.05025 13.0718 6.0413 13.0897C6.03668 13.0989 6.03218 13.1078 6.02823 13.1159V13.1167L6.02773 13.1172C6.01323 13.1575 5.99044 13.1942 5.96084 13.2252C5.93123 13.2561 5.89545 13.2805 5.85581 13.2968C5.81617 13.3131 5.77355 13.321 5.73068 13.3199C5.68781 13.3188 5.64565 13.3088 5.60691 13.2904C5.56817 13.2721 5.5337 13.2459 5.50573 13.2135C5.47776 13.1811 5.45691 13.1432 5.44451 13.1022C5.43211 13.0613 5.42844 13.0182 5.43375 12.9758C5.43905 12.9334 5.4532 12.8925 5.47529 12.8559C5.47957 12.847 5.48436 12.8367 5.4893 12.8261C5.49785 12.8076 5.50687 12.7882 5.51458 12.7736C5.56451 12.6893 5.61928 12.6079 5.67862 12.5299C5.78655 12.3737 5.87927 12.2076 5.95553 12.0338C5.96362 11.9748 5.95412 11.9148 5.9282 11.8613L5.98394 11.7283C5.14657 11.2355 4.51898 10.4543 4.21956 9.53193L4.08618 9.5547C4.03452 9.51807 3.9736 9.49661 3.91033 9.49275C3.72787 9.52755 3.54924 9.57996 3.37695 9.64924C3.28755 9.68937 3.19592 9.72438 3.10251 9.75411C3.08844 9.75792 3.07051 9.76172 3.05284 9.76548C3.04266 9.76764 3.03257 9.76978 3.02336 9.77189C3.02229 9.77208 3.0213 9.77245 3.02031 9.77282C3.01942 9.77316 3.01852 9.77349 3.01756 9.7737L3.01299 9.77442C2.97239 9.78773 2.92945 9.79244 2.88691 9.78825C2.84438 9.78406 2.80319 9.77106 2.76599 9.75009C2.72878 9.72912 2.69638 9.70063 2.67084 9.66646C2.64531 9.63228 2.62722 9.59317 2.61772 9.55162C2.60821 9.51007 2.60752 9.467 2.61567 9.42517C2.62382 9.38333 2.64064 9.34366 2.66506 9.30868C2.68947 9.2737 2.72094 9.24418 2.75745 9.22203C2.79395 9.19987 2.8347 9.18556 2.87707 9.18L2.88143 9.1787L2.88411 9.17812L2.88979 9.17671C2.91439 9.17058 2.94402 9.16321 2.9658 9.15918C3.0631 9.14571 3.1611 9.13785 3.25931 9.13562C3.44461 9.12343 3.62827 9.09324 3.80769 9.04549C3.86083 9.01178 3.90576 8.96667 3.93918 8.91344L4.06727 8.87629C3.92824 7.91365 4.15051 6.93371 4.69147 6.12442L4.59354 6.03711C4.58991 5.97389 4.56859 5.91295 4.53199 5.86119C4.39112 5.74037 4.23875 5.63357 4.07706 5.54229C3.98973 5.49784 3.90505 5.44842 3.82342 5.39427C3.80925 5.38395 3.79154 5.36934 3.77505 5.35573C3.76994 5.35151 3.76495 5.34739 3.76021 5.34353L3.7555 5.3402C3.68591 5.29036 3.63894 5.21509 3.62484 5.13082C3.61074 5.04655 3.63066 4.96015 3.68025 4.89048C3.70954 4.85469 3.74688 4.82629 3.78923 4.80758C3.83159 4.78887 3.87777 4.78038 3.92403 4.78279C4.00189 4.78612 4.07663 4.81424 4.13729 4.86302C4.14392 4.8683 4.15132 4.87409 4.15892 4.88004C4.17527 4.89283 4.19258 4.90638 4.20529 4.91723C4.27644 4.9844 4.34365 5.05559 4.40659 5.13045C4.53163 5.26739 4.66977 5.39185 4.81905 5.50203C4.87497 5.53134 4.94018 5.53765 5.00071 5.5196C5.03724 5.54615 5.07412 5.57222 5.11133 5.5978C5.64888 5.02808 6.34493 4.63155 7.11013 4.45913C7.29228 4.418 7.4771 4.38966 7.66322 4.37434L7.67047 4.24525C7.71796 4.20319 7.75241 4.14847 7.76978 4.08754C7.77646 3.90247 7.76505 3.71719 7.73571 3.53432C7.71625 3.43846 7.70231 3.34157 7.69396 3.24412C7.69341 3.22886 7.69382 3.20952 7.69423 3.19069C7.69441 3.18225 7.69459 3.1739 7.69468 3.16606C7.69465 3.1647 7.69449 3.16337 7.69432 3.16204C7.69414 3.16055 7.69396 3.15906 7.69396 3.15753C7.68962 3.11489 7.6943 3.07182 7.70769 3.03109C7.72108 2.99036 7.74289 2.95289 7.7717 2.92108C7.80051 2.88928 7.83569 2.86385 7.87497 2.84644C7.91425 2.82903 7.95675 2.82002 7.99974 2.82C8.04272 2.81998 8.08523 2.82894 8.12453 2.84632C8.16382 2.86369 8.19903 2.88909 8.22787 2.92087C8.25671 2.95264 8.27856 2.9901 8.29199 3.03081C8.30541 3.07153 8.31013 3.1146 8.30583 3.15724C8.30583 3.16705 8.30603 3.17811 8.30624 3.1894C8.30658 3.20865 8.30694 3.22856 8.30634 3.24405C8.29806 3.34143 8.28414 3.43825 8.26466 3.53403C8.23515 3.71693 8.22354 3.90225 8.23001 4.08739C8.24207 4.14926 8.27789 4.20399 8.32983 4.2399L8.33019 4.2474C8.33156 4.27553 8.33466 4.33931 8.33722 4.37607C9.30437 4.46377 10.2067 4.89851 10.8767 5.59954L10.9931 5.51663C11.0556 5.52733 11.1199 5.52037 11.1786 5.49654C11.3279 5.38614 11.466 5.26152 11.5911 5.12445C11.6543 5.04954 11.7218 4.97834 11.7933 4.91123C11.8072 4.89921 11.8266 4.88412 11.8442 4.87041C11.8502 4.86581 11.8559 4.86136 11.8611 4.85724C11.8918 4.82709 11.9286 4.80372 11.9689 4.78864C12.0093 4.77356 12.0524 4.7671 12.0954 4.7697C12.1384 4.77229 12.1804 4.78387 12.2186 4.80369C12.2569 4.82351 12.2905 4.85112 12.3174 4.88474C12.3442 4.91836 12.3637 4.95722 12.3745 4.99882C12.3853 5.04042 12.3872 5.08383 12.3801 5.12621C12.373 5.1686 12.3571 5.20903 12.3333 5.24487C12.3095 5.28072 12.2785 5.31118 12.2421 5.33428C12.2346 5.34026 12.2263 5.34712 12.2178 5.35414C12.2028 5.36643 12.1873 5.37919 12.1748 5.38849C12.093 5.44263 12.0081 5.49201 11.9206 5.53637C11.7589 5.62764 11.6065 5.7344 11.4655 5.85512C11.4245 5.90302 11.4039 5.96502 11.4081 6.02786C11.3996 6.03572 11.3801 6.05312 11.3587 6.07211C11.3379 6.09066 11.3154 6.11071 11.2998 6.12486C11.8423 6.93126 12.069 7.90817 11.9369 8.87022L12.0605 8.90607C12.0913 8.96152 12.137 9.00735 12.1924 9.03848C12.3719 9.0861 12.5557 9.11617 12.7411 9.12825C12.8393 9.13054 12.9372 9.13841 13.0344 9.15182C13.0509 9.15483 13.0721 9.16015 13.0921 9.16516ZM10.2166 6.06574L8.90909 6.98996L8.90452 6.9878C8.86512 7.01645 8.81867 7.03392 8.7701 7.03836C8.72154 7.04279 8.67268 7.03403 8.62871 7.01298C8.58475 6.99194 8.54732 6.95942 8.52041 6.91887C8.49351 6.87831 8.47812 6.83124 8.47589 6.78267L8.47444 6.78195L8.38361 5.18437C9.07493 5.26996 9.71897 5.57962 10.2166 6.06574ZM7.75354 7.8169H8.24559L8.5515 8.19824L8.44182 8.67384L7.99993 8.8859L7.55673 8.6734L7.44684 8.19759L7.75354 7.8169ZM7.29063 5.24032C7.39841 5.21613 7.50735 5.19746 7.61704 5.18437L7.52607 6.7844L7.5194 6.78758C7.51734 6.83617 7.50211 6.88329 7.47532 6.92392C7.44853 6.96456 7.41119 6.99719 7.36728 7.01834C7.32336 7.0395 7.27451 7.04838 7.22594 7.04404C7.17736 7.0397 7.13088 7.02231 7.09143 6.99372L7.08889 6.99517L5.77293 6.0648C6.19187 5.65429 6.71755 5.36872 7.29063 5.24032ZM5.29574 6.66276L6.49717 7.73422L6.49587 7.74072C6.53269 7.77267 6.56013 7.81398 6.57525 7.86026C6.59037 7.90653 6.59261 7.95604 6.58173 8.00348C6.57085 8.05093 6.54727 8.09454 6.51348 8.12967C6.47969 8.1648 6.43698 8.19012 6.38989 8.20294L6.38865 8.20814L4.84863 8.65121C4.7719 7.95729 4.92922 7.25758 5.29574 6.66276ZM6.90434 9.50909L6.29246 10.9834C5.70517 10.6085 5.25834 10.0509 5.0213 9.39698L6.60033 9.12955L6.60301 9.13309C6.62044 9.12976 6.63817 9.12819 6.65593 9.1284C6.70021 9.12905 6.74364 9.14057 6.7824 9.16194C6.82116 9.1833 6.85404 9.21386 6.87814 9.2509C6.90224 9.28794 6.91683 9.33034 6.9206 9.37433C6.92437 9.41833 6.91723 9.46258 6.89978 9.50316L6.90434 9.50909ZM8.71046 11.405C8.13795 11.5359 7.54019 11.5053 6.98415 11.3166L7.76072 9.91638H7.76202C7.78512 9.8736 7.81939 9.83784 7.8612 9.81291C7.90302 9.78797 7.95082 9.77478 7.99955 9.77473C8.04827 9.77469 8.0961 9.78779 8.13797 9.81265C8.17983 9.83751 8.21416 9.8732 8.23733 9.91594H8.24313L9.02166 11.3184C8.92061 11.3521 8.81688 11.3808 8.71046 11.405ZM9.71378 10.9893L9.0956 9.49998L9.09748 9.4973C9.07007 9.4336 9.06835 9.3618 9.09269 9.29686C9.11704 9.23193 9.16557 9.17886 9.22818 9.1487C9.26045 9.13295 9.29559 9.12386 9.33147 9.12196C9.35224 9.12101 9.37305 9.12254 9.39345 9.12652L9.39613 9.12319L10.9892 9.39163C10.7541 10.0508 10.3053 10.6129 9.71378 10.9893ZM11.1565 8.64601L9.60874 8.2015L9.60729 8.19499C9.56029 8.18205 9.51769 8.15666 9.484 8.12152C9.4503 8.08637 9.42678 8.04279 9.41593 7.9954C9.40508 7.948 9.4073 7.89856 9.42236 7.85232C9.43742 7.80608 9.46475 7.76477 9.50146 7.73277L9.50088 7.72966L10.6956 6.66348C11.0615 7.25675 11.2234 7.95275 11.1565 8.64601Z" fill="#000001"/>
</g>
</svg>
