<svg width="24" height="24" viewBox="0 0 24 24" fill="none" xmlns="http://www.w3.org/2000/svg">
<g id="Size=24">
<path id="Union" d="M1.6936 10.0937C2.5895 5.21641 6.86393 1.52075 12 1.52075C17.4502 1.52075 21.9286 5.68155 22.432 11H19.9066C19.5105 7.83533 17.2589 5.24882 14.2764 4.36119C13.8794 4.24304 13.4618 4.46909 13.3437 4.86609C13.2255 5.2631 13.4516 5.68072 13.8486 5.79887C16.5211 6.59427 18.4688 9.07059 18.4688 11.9998C18.4688 15.5724 15.5726 18.4686 12 18.4686C8.59571 18.4686 5.80561 15.8389 5.5503 12.5H8.09399C8.21629 13.4639 8.68728 14.3194 9.37481 14.9347C9.68346 15.211 10.1576 15.1847 10.4339 14.876C10.7101 14.5674 10.6838 14.0933 10.3752 13.817C9.87532 13.3696 9.5625 12.7218 9.5625 12C9.5625 10.6538 10.6538 9.5625 12 9.5625C13.3462 9.5625 14.4375 10.6538 14.4375 12C14.4375 12.7218 14.1247 13.3696 13.6248 13.817C13.3162 14.0933 13.2899 14.5674 13.5661 14.876C13.8424 15.1847 14.3165 15.211 14.6252 14.9347C15.4295 14.2148 15.9375 13.1662 15.9375 12C15.9375 9.82538 14.1746 8.0625 12 8.0625C10.1709 8.0625 8.63312 9.30966 8.1906 11H5.60807C5.99317 8.51834 7.78909 6.50194 10.1514 5.79887C10.5484 5.68072 10.7745 5.2631 10.6563 4.86609C10.5382 4.46909 10.1206 4.24304 9.72356 4.36119C6.43244 5.34068 4.03125 8.38887 4.03125 11.9998C4.03125 16.4009 7.59898 19.9686 12 19.9686C16.233 19.9686 19.6952 16.668 19.9533 12.5H22.4674C22.2064 18.0553 17.6198 22.4791 12 22.4791C6.86393 22.4791 2.5895 18.7834 1.6936 13.9061C1.61877 13.4987 1.22784 13.2291 0.820445 13.3039C0.413047 13.3788 0.14345 13.7697 0.218283 14.1771C1.2426 19.7536 6.12703 23.9791 12 23.9791C18.6159 23.9791 23.9791 18.6158 23.9791 11.9999C23.9791 5.38401 18.6159 0.020752 12 0.020752C6.12703 0.020752 1.2426 4.24628 0.218283 9.82275C0.14345 10.2302 0.413047 10.6211 0.820445 10.6959C1.22784 10.7707 1.61877 10.5011 1.6936 10.0937Z" fill="black"/>
</g>
</svg>
