<svg width="16" height="16" viewBox="0 0 16 16" fill="none" xmlns="http://www.w3.org/2000/svg">
<g id="size=16" clip-path="url(#clip0)">
<path id="Union" d="M8.00046 1.5C4.815 1.5 2.16334 3.79218 1.60766 6.81732C1.53283 7.22471 1.14191 7.49431 0.734508 7.41948C0.32711 7.34464 0.0575128 6.95372 0.132346 6.54632C0.81644 2.82205 4.0781 0 8.00046 0C12.4187 0 16.0005 3.58172 16.0005 8C16.0005 12.4183 12.4187 16 8.00046 16C4.0781 16 0.81644 13.1779 0.132346 9.45368C0.0575128 9.04628 0.32711 8.65536 0.734507 8.58052C1.14191 8.50569 1.53283 8.77529 1.60766 9.18268C2.16334 12.2078 4.815 14.5 8.00046 14.5C11.4221 14.5 14.2262 11.8562 14.4815 8.5H12.9265C12.6823 11.0057 10.5698 12.9639 8.00005 12.9639C5.26624 12.9639 3.05005 10.7477 3.05005 8.01393C3.05005 5.77053 4.54189 3.8774 6.58609 3.26901C6.95663 3.15874 7.3464 3.36972 7.45668 3.74026C7.56696 4.11079 7.35598 4.50057 6.98544 4.61085C5.84006 4.95173 4.93757 5.85524 4.59698 7H5.76278C6.14535 6.14543 7.00317 5.55005 8.00005 5.55005C9.35315 5.55005 10.45 6.64695 10.45 8.00005C10.45 8.72572 10.1337 9.37843 9.63355 9.82604C9.34549 10.0839 8.90295 10.0594 8.64512 9.77128C8.38729 9.48322 8.41181 9.04068 8.69988 8.78285C8.91581 8.58959 9.05005 8.31096 9.05005 8.00005C9.05005 7.42015 8.57995 6.95005 8.00005 6.95005C7.42015 6.95005 6.95005 7.42015 6.95005 8.00005C6.95005 8.31096 7.08429 8.58959 7.30022 8.78285C7.58829 9.04068 7.6128 9.48322 7.35498 9.77128C7.09715 10.0594 6.65461 10.0839 6.36654 9.82604C5.98448 9.48409 5.70965 9.02244 5.60119 8.5H4.48305C4.72001 10.2306 6.20433 11.5639 8.00005 11.5639C9.96066 11.5639 11.55 9.97454 11.55 8.01393C11.55 6.40681 10.4816 5.04742 9.01466 4.61085C8.64412 4.50057 8.43314 4.11079 8.54342 3.74026C8.65369 3.36972 9.04347 3.15874 9.41401 3.26901C11.1415 3.78315 12.4746 5.21481 12.8461 7H14.424C13.943 3.88491 11.2502 1.5 8.00046 1.5Z" fill="#000001"/>
</g>
<defs>
<clipPath id="clip0">
<rect width="16" height="16" fill="white"/>
</clipPath>
</defs>
</svg>
