<svg width="16" height="16" viewBox="0 0 16 16" fill="none" xmlns="http://www.w3.org/2000/svg">
<g id="size=16" clip-path="url(#clip0)">
<g id="Union">
<path fill-rule="evenodd" clip-rule="evenodd" d="M7.65543 0.0838368C7.87155 -0.0279456 8.12845 -0.0279456 8.34457 0.0838368L15.5946 3.83384C15.8436 3.96265 16 4.21962 16 4.5C16 4.78038 15.8436 5.03735 15.5946 5.16616L8.34457 8.91616C8.12845 9.02795 7.87155 9.02795 7.65543 8.91616L0.405433 5.16616C0.156393 5.03735 -3.97267e-09 4.78038 -3.97267e-09 4.5C-3.97267e-09 4.21962 0.156393 3.96265 0.405433 3.83384L7.65543 0.0838368ZM2.38248 4.5L8 7.40561L13.6175 4.5L8 1.59439L2.38248 4.5Z" fill="#000001"/>
<path d="M0.0932112 10.8876C0.293308 10.5249 0.749526 10.3931 1.1122 10.5932L7.99989 14.3933L14.8876 10.5932C15.2503 10.3931 15.7065 10.5249 15.9066 10.8876C16.1067 11.2503 15.9749 11.7065 15.6122 11.9066L8.3622 15.9066C8.13669 16.031 7.8631 16.031 7.63759 15.9066L0.387587 11.9066C0.0249103 11.7065 -0.106886 11.2503 0.0932112 10.8876Z" fill="#000001"/>
<path d="M1.1122 7.09321C0.749526 6.89311 0.293308 7.02491 0.0932112 7.38759C-0.106886 7.75026 0.0249103 8.20648 0.387587 8.40658L7.63759 12.4066C7.8631 12.531 8.13669 12.531 8.3622 12.4066L15.6122 8.40658C15.9749 8.20648 16.1067 7.75026 15.9066 7.38759C15.7065 7.02491 15.2503 6.89311 14.8876 7.09321L7.99989 10.8933L1.1122 7.09321Z" fill="#000001"/>
</g>
</g>
<defs>
<clipPath id="clip0">
<rect width="16" height="16" fill="white"/>
</clipPath>
</defs>
</svg>
