<svg width="24" height="24" viewBox="0 0 24 24" fill="none" xmlns="http://www.w3.org/2000/svg">
<g id="Size=24">
<path id="Union" fill-rule="evenodd" clip-rule="evenodd" d="M2 4.75C2 3.23122 3.23122 2 4.75 2H19.25C20.7688 2 22 3.23122 22 4.75V19.25C22 20.7688 20.7688 22 19.25 22H4.75C3.23122 22 2 20.7688 2 19.25V4.75ZM9 20.5H19.25C19.9404 20.5 20.5 19.9404 20.5 19.25V9.5H9V20.5ZM7.5 9.5V20.5H4.75C4.05964 20.5 3.5 19.9404 3.5 19.25V9.5H7.5ZM20.5 8V4.75C20.5 4.05964 19.9404 3.5 19.25 3.5H4.75C4.05964 3.5 3.5 4.05964 3.5 4.75V8H20.5Z" fill="black"/>
</g>
</svg>
