<svg width="16" height="16" viewBox="0 0 16 16" fill="none" xmlns="http://www.w3.org/2000/svg">
<g id="size=16">
<path id="Union" fill-rule="evenodd" clip-rule="evenodd" d="M8.31583 2.06974C8.11555 1.97675 7.88446 1.97675 7.68417 2.06974L0.684167 5.31974C0.419389 5.44268 0.25 5.70808 0.25 6C0.25 6.29192 0.419389 6.55732 0.684167 6.68026L2.11802 7.34597C2.04331 7.46258 2 7.60123 2 7.75V11C2 11.1668 2.05559 11.3288 2.15799 11.4605L2.75 11C2.15799 11.4605 2.15774 11.4601 2.15799 11.4605L2.159 11.4618L2.16019 11.4633L2.16306 11.4669L2.17081 11.4766C2.17688 11.4842 2.18474 11.4938 2.1944 11.5054C2.21373 11.5286 2.24029 11.5597 2.27417 11.5974C2.34189 11.6729 2.43904 11.7755 2.56622 11.896C2.82036 12.1368 3.19611 12.4506 3.69823 12.7622C4.70649 13.388 6.21674 14 8.25 14C10.2867 14 11.6893 13.3854 12.5945 12.7337C13.0429 12.4108 13.3616 12.0844 13.5723 11.8317C13.6776 11.7053 13.7562 11.597 13.8107 11.5161C13.838 11.4757 13.8593 11.442 13.875 11.4164C13.8829 11.4035 13.8893 11.3927 13.8944 11.3839L13.901 11.3724L13.9036 11.3679L13.9047 11.366L13.9051 11.3651C13.9054 11.3646 13.9056 11.3642 13.25 11L13.9051 11.3651C13.967 11.2537 14 11.1275 14 11V7.75C14 7.60123 13.9567 7.46258 13.882 7.34597L15.3158 6.68026C15.5806 6.55732 15.75 6.29192 15.75 6C15.75 5.70808 15.5806 5.44268 15.3158 5.31974L8.31583 2.06974ZM12.5 7.98761L8.31583 9.93026C8.11555 10.0232 7.88446 10.0232 7.68417 9.93026L3.5 7.98761V10.7114C3.52874 10.7405 3.56135 10.7725 3.59784 10.8071C3.78901 10.9882 4.08514 11.2369 4.48927 11.4878C5.29352 11.987 6.53326 12.5 8.25 12.5C9.96325 12.5 11.0607 11.9896 11.718 11.5163C12.0508 11.2767 12.279 11.0406 12.4199 10.8714C12.4508 10.8344 12.4774 10.8006 12.5 10.7708V7.98761ZM8 8.42311L2.781 6L8 3.57689L13.219 6L8 8.42311Z" fill="black"/>
</g>
</svg>
