<svg width="24" height="24" viewBox="0 0 24 24" fill="none" xmlns="http://www.w3.org/2000/svg">
<g id="size=24">
<path id="Union" fill-rule="evenodd" clip-rule="evenodd" d="M12.3669 3.09589C12.139 2.96804 11.861 2.96804 11.6331 3.09589L1.38306 8.84589C1.14648 8.97861 1 9.22873 1 9.5C1 9.77127 1.14648 10.0214 1.38306 10.1541L4.20353 11.7363C4.07732 11.8705 4 12.0512 4 12.25V17.25C4 17.3945 4.04176 17.536 4.12026 17.6573L4.75 17.25C4.12026 17.6573 4.12081 17.6582 4.12081 17.6582L4.12141 17.6591L4.12274 17.6612L4.12598 17.6661L4.13474 17.6792C4.1416 17.6893 4.15052 17.7022 4.16154 17.7177C4.18357 17.7488 4.21407 17.7903 4.25347 17.8407C4.33225 17.9415 4.4468 18.0782 4.60078 18.2384C4.90883 18.559 5.37485 18.974 6.02766 19.3848C7.33974 20.2104 9.3771 21 12.3452 21C15.3129 21 17.1995 20.2099 18.3626 19.3541C18.9398 18.9294 19.3257 18.4981 19.5719 18.1613C19.6948 17.9931 19.7826 17.8488 19.842 17.741C19.8718 17.6871 19.8944 17.6422 19.9109 17.608C19.9191 17.5908 19.9257 17.5764 19.9309 17.5647L19.9377 17.5494L19.9402 17.5434L19.9413 17.5408L19.9418 17.5396C19.9418 17.5396 19.9423 17.5385 19.25 17.25L19.9423 17.5385C19.9804 17.4471 20 17.349 20 17.25V12.25C20 12.0512 19.9227 11.8705 19.7965 11.7363L22.6169 10.1541C22.8535 10.0214 23 9.77127 23 9.5C23 9.22873 22.8535 8.97861 22.6169 8.84589L12.3669 3.09589ZM18.5 12.4636L12.3669 15.9041C12.139 16.032 11.861 16.032 11.6331 15.9041L5.5 12.4636V16.9968C5.54673 17.0525 5.60722 17.1209 5.68233 17.1991C5.91483 17.441 6.28735 17.776 6.8265 18.1152C7.89836 18.7896 9.65862 19.5 12.3452 19.5C15.0323 19.5 16.5981 18.7901 17.4737 18.1459C17.9159 17.8206 18.1959 17.5019 18.3608 17.2762C18.4223 17.1921 18.4679 17.1207 18.5 17.0665V12.4636ZM12 14.39L3.28296 9.5L12 4.60995L20.717 9.5L12 14.39Z" fill="black"/>
</g>
</svg>
