<svg viewBox="0 0 16 16" width="16" height="16" fill="currentColor" xmlns="http://www.w3.org/2000/svg">
 <g transform="translate(0, 1)">
  <path d="M0 2.25C0 1.00736 1.00736 0 2.25 0L13.75 0C14.9926 0 16 1.00736 16 2.25L16 11.75C16 12.9926 14.9926 14 13.75 14L2.25 14C1.00736 14 0 12.9926 0 11.75L0 2.25ZM2.25 1.5C1.83579 1.5 1.5 1.83579 1.5 2.25L1.5 9.32528L5.61083 6.85878C5.6183 6.85424 5.62585 6.84984 5.63348 6.84557C5.71475 6.79998 5.80111 6.77115 5.88844 6.75805C5.99145 6.74249 6.09937 6.74826 6.20608 6.77874L9.0794 7.5997L10.4071 4.61248L9.50766 5.01711C9.12991 5.18705 8.68592 5.0186 8.51597 4.64085C8.34603 4.26311 8.51449 3.81912 8.89223 3.64917L11.4716 2.48872C11.653 2.40711 11.8594 2.4009 12.0454 2.47146C12.2314 2.54203 12.3817 2.68358 12.4633 2.86498L13.6238 5.44439C13.7937 5.82213 13.6253 6.26612 13.2475 6.43607C12.8698 6.60601 12.4258 6.43755 12.2558 6.05981L11.828 5.10876L10.1896 8.79498C10.1114 8.97838 9.96572 9.11757 9.79082 9.19126C9.70601 9.22699 9.61435 9.24732 9.52019 9.24982C9.44106 9.252 9.36068 9.24163 9.28193 9.21758L6.10689 8.31043L1.5 11.0746L1.5 11.75C1.5 12.1642 1.83579 12.5 2.25 12.5L5 12.5L5 12C5 11.5858 5.33579 11.25 5.75 11.25C6.16421 11.25 6.5 11.5858 6.5 12L6.5 12.5L9.5 12.5L9.5 12C9.5 11.5858 9.83579 11.25 10.25 11.25C10.6642 11.25 11 11.5858 11 12L11 12.5L13.75 12.5C14.1642 12.5 14.5 12.1642 14.5 11.75L14.5 2.25C14.5 1.83579 14.1642 1.5 13.75 1.5L2.25 1.5Z" fill-rule="EVENODD"></path>
 </g>
</svg>