<svg width="16" height="16" viewBox="0 0 16 16" fill="none" xmlns="http://www.w3.org/2000/svg">
<g id="size=16">
<path id="Union" fill-rule="evenodd" clip-rule="evenodd" d="M0 3.25C0 2.00736 1.00736 1 2.25 1H13.75C14.9926 1 16 2.00736 16 3.25V12.75C16 13.9926 14.9926 15 13.75 15H2.25C1.00736 15 0 13.9926 0 12.75V3.25ZM2.25 2.5C1.83579 2.5 1.5 2.83579 1.5 3.25V10.3253L5.61083 7.85878C5.6183 7.85424 5.62585 7.84984 5.63348 7.84557C5.71475 7.79998 5.80111 7.77115 5.88844 7.75805C5.99145 7.74249 6.09937 7.74826 6.20608 7.77874L9.0794 8.5997L10.4071 5.61248L9.50766 6.01711C9.12991 6.18705 8.68592 6.0186 8.51597 5.64085C8.34603 5.26311 8.51449 4.81912 8.89223 4.64917L11.4716 3.48872C11.653 3.40711 11.8594 3.4009 12.0454 3.47146C12.2314 3.54203 12.3817 3.68358 12.4633 3.86498L13.6238 6.44439C13.7937 6.82213 13.6253 7.26612 13.2475 7.43607C12.8698 7.60601 12.4258 7.43755 12.2558 7.05981L11.828 6.10876L10.1896 9.79498C10.1114 9.97838 9.96572 10.1176 9.79082 10.1913C9.70601 10.227 9.61435 10.2473 9.52019 10.2498C9.44106 10.252 9.36068 10.2416 9.28193 10.2176L6.10689 9.31043L1.5 12.0746V12.75C1.5 13.1642 1.83579 13.5 2.25 13.5H5V13C5 12.5858 5.33579 12.25 5.75 12.25C6.16421 12.25 6.5 12.5858 6.5 13V13.5H9.5V13C9.5 12.5858 9.83579 12.25 10.25 12.25C10.6642 12.25 11 12.5858 11 13V13.5H13.75C14.1642 13.5 14.5 13.1642 14.5 12.75V3.25C14.5 2.83579 14.1642 2.5 13.75 2.5H2.25Z" fill="black"/>
</g>
</svg>
