<svg width="16" height="16" viewBox="0 0 16 16" fill="none" xmlns="http://www.w3.org/2000/svg">
<g id="size=16">
<path id="Union" fill-rule="evenodd" clip-rule="evenodd" d="M2.25 1C1.00736 1 0 2.00736 0 3.25V12.75C0 13.9926 1.00736 15 2.25 15H13.75C14.9926 15 16 13.9926 16 12.75V3.25C16 2.00736 14.9926 1 13.75 1H2.25ZM1.5 3.25C1.5 2.83579 1.83579 2.5 2.25 2.5H13.75C14.1642 2.5 14.5 2.83579 14.5 3.25V12.75C14.5 13.1642 14.1642 13.5 13.75 13.5H11V13C11 12.5858 10.6642 12.25 10.25 12.25C9.83579 12.25 9.5 12.5858 9.5 13V13.5H6.5V13C6.5 12.5858 6.16421 12.25 5.75 12.25C5.33579 12.25 5 12.5858 5 13V13.5H2.25C1.83579 13.5 1.5 13.1642 1.5 12.75V11.5604L6.13566 7.85183L9.72241 9.19686C9.7516 9.20845 9.78141 9.21816 9.81166 9.22598C9.9175 9.25358 10.025 9.25698 10.1278 9.23913C10.2193 9.22338 10.3089 9.19042 10.3916 9.1397C10.423 9.12048 10.4531 9.09893 10.4815 9.07517L12.9685 7.0856C13.2919 6.82684 13.3444 6.35488 13.0856 6.03143C12.8269 5.70798 12.3549 5.65554 12.0314 5.9143L9.86425 7.64805L6.2787 6.30346C6.16571 6.25837 6.04324 6.2414 5.92256 6.25381C5.77686 6.26905 5.63853 6.32685 5.52544 6.41907L1.5 9.63942V3.25Z" fill="#000001"/>
</g>
</svg>
