<svg width="24" height="24" viewBox="0 0 24 24" fill="none" xmlns="http://www.w3.org/2000/svg">
<g id="Size=24">
<g id="Union">
<path d="M16.5751 2.00021C15.141 1.98778 13.7589 2.53738 12.7267 3.53131L11.0944 5.14901C10.8002 5.4406 10.7981 5.91547 11.0897 6.20966C11.3813 6.50386 11.8561 6.50597 12.1503 6.21438L13.7708 4.60825C14.5195 3.88927 15.5216 3.49114 16.5621 3.50015C17.6044 3.50918 18.601 3.92598 19.3373 4.66007C20.0736 5.39408 20.4908 6.38655 20.4999 7.42358C20.5089 8.45853 20.1106 9.45613 19.39 10.2023L16.5613 13.0223C16.1587 13.4239 15.6741 13.7345 15.1402 13.9331C14.6062 14.1316 14.0357 14.2134 13.4671 14.1728C12.8986 14.1322 12.3456 13.9702 11.8456 13.6979C11.3456 13.4256 10.9104 13.0493 10.5694 12.5948C10.3208 12.2635 9.85073 12.1964 9.51941 12.445C9.18809 12.6936 9.12102 13.1637 9.36961 13.4951C9.83983 14.1217 10.4396 14.6401 11.1281 15.0152C11.8167 15.3902 12.5779 15.6131 13.3603 15.669C14.1427 15.7249 14.928 15.6123 15.663 15.339C16.398 15.0657 17.0657 14.6378 17.6205 14.0844L20.454 11.2598L20.463 11.2505C21.4602 10.2213 22.0123 8.8423 21.9998 7.41051C21.9873 5.97872 21.4112 4.60956 20.3964 3.59779C19.3816 2.58609 18.0093 2.01263 16.5751 2.00021Z" fill="black"/>
<path d="M10.6397 8.33083C9.85734 8.27497 9.07203 8.3875 8.33702 8.66084C7.60204 8.93417 6.93435 9.36203 6.37947 9.91538L3.54604 12.74L3.53697 12.7493C2.53986 13.7786 1.98773 15.1575 2.00021 16.5893C2.01269 18.0211 2.58877 19.3903 3.60365 20.402C4.61845 21.4137 5.99076 21.9872 7.42488 21.9996C8.859 22.012 10.2412 21.4625 11.2734 20.4686L12.8977 18.8493C13.1911 18.5568 13.1918 18.0819 12.8993 17.7886C12.6069 17.4953 12.132 17.4945 11.8387 17.787L10.2284 19.3923C9.47985 20.1108 8.47807 20.5087 7.43788 20.4997C6.39559 20.4906 5.39902 20.0738 4.66268 19.3398C3.92641 18.6057 3.50919 17.6133 3.50015 16.5762C3.49113 15.5413 3.88937 14.5437 4.60997 13.7975L7.4387 10.9775C7.8413 10.576 8.32595 10.2653 8.85986 10.0668C9.39378 9.86821 9.96436 9.78643 10.5329 9.82702C11.1014 9.86761 11.6544 10.0296 12.1544 10.3019C12.6544 10.5743 13.0896 10.9505 13.4306 11.405C13.6792 11.7363 14.1493 11.8034 14.4806 11.5548C14.8119 11.3062 14.879 10.8361 14.6304 10.5048C14.1602 9.87807 13.5604 9.3597 12.8719 8.98467C12.1833 8.60964 11.4221 8.38669 10.6397 8.33083Z" fill="black"/>
</g>
</g>
</svg>
