<svg width="24" height="24" viewBox="0 0 24 24" fill="none" xmlns="http://www.w3.org/2000/svg">
<g id="size=24">
<g id="Union">
<path d="M4.5 5.75C4.5 5.33579 4.83579 5 5.25 5H18.75C19.1642 5 19.5 5.33579 19.5 5.75C19.5 6.16421 19.1642 6.5 18.75 6.5H5.25C4.83579 6.5 4.5 6.16421 4.5 5.75Z" fill="black"/>
<path d="M4.5 11.75C4.5 11.3358 4.83579 11 5.25 11H18.75C19.1642 11 19.5 11.3358 19.5 11.75C19.5 12.1642 19.1642 12.5 18.75 12.5H5.25C4.83579 12.5 4.5 12.1642 4.5 11.75Z" fill="black"/>
<path d="M5.25 17C4.83579 17 4.5 17.3358 4.5 17.75C4.5 18.1642 4.83579 18.5 5.25 18.5H18.75C19.1642 18.5 19.5 18.1642 19.5 17.75C19.5 17.3358 19.1642 17 18.75 17H5.25Z" fill="black"/>
</g>
</g>
</svg>
