<svg width="16" height="16" viewBox="0 0 16 16" fill="none" xmlns="http://www.w3.org/2000/svg">
<g id="size=16">
<g id="Union">
<path d="M3 3.75C3 3.33579 3.33579 3 3.75 3H12.25C12.6642 3 13 3.33579 13 3.75C13 4.16421 12.6642 4.5 12.25 4.5H3.75C3.33579 4.5 3 4.16421 3 3.75Z" fill="black"/>
<path d="M3 7.75C3 7.33579 3.33579 7 3.75 7H12.25C12.6642 7 13 7.33579 13 7.75C13 8.16421 12.6642 8.5 12.25 8.5H3.75C3.33579 8.5 3 8.16421 3 7.75Z" fill="black"/>
<path d="M3.75 11C3.33579 11 3 11.3358 3 11.75C3 12.1642 3.33579 12.5 3.75 12.5H12.25C12.6642 12.5 13 12.1642 13 11.75C13 11.3358 12.6642 11 12.25 11H3.75Z" fill="black"/>
</g>
</g>
</svg>
