<svg viewBox="0 0 24 24" width="24" height="24" fill="currentColor" xmlns="http://www.w3.org/2000/svg">
 <g transform="translate(4, 1)">
  <path d="M8 15.25C8.41421 15.25 8.75 15.5858 8.75 16L8.75 18C8.75 18.4142 8.41421 18.75 8 18.75C7.58579 18.75 7.25 18.4142 7.25 18L7.25 16C7.25 15.5858 7.58579 15.25 8 15.25Z" fill-rule="NONZERO"></path>
  <path d="M2 9.10352L2 5.75C2 4.21287 2.64149 2.74656 3.77045 1.67136C4.89816 0.597351 6.42019 0 8 0C9.57981 0 11.1018 0.597351 12.2296 1.67136C13.3585 2.74656 14 4.21287 14 5.75L14 9.10352C15.1543 9.42998 16 10.4912 16 11.75L16 19.25C16 20.7688 14.7688 22 13.25 22L2.75 22C1.23122 22 0 20.7688 0 19.25L0 11.75C0 10.4912 0.845748 9.42998 2 9.10352ZM4.80493 2.75757C5.64635 1.95622 6.79504 1.5 8 1.5C9.20496 1.5 10.3536 1.95622 11.1951 2.75757C12.0352 3.55774 12.5 4.63496 12.5 5.75L12.5 9L3.5 9L3.5 5.75C3.5 4.63496 3.96475 3.55774 4.80493 2.75757ZM13.25 10.5L2.75 10.5C2.05964 10.5 1.5 11.0596 1.5 11.75L1.5 19.25C1.5 19.9404 2.05964 20.5 2.75 20.5L13.25 20.5C13.9404 20.5 14.5 19.9404 14.5 19.25L14.5 11.75C14.5 11.0596 13.9404 10.5 13.25 10.5Z" fill-rule="EVENODD"></path>
 </g>
</svg>