<svg width="24" height="24" viewBox="0 0 24 24" fill="none" xmlns="http://www.w3.org/2000/svg">
<g id="size=24">
<path id="Union" fill-rule="evenodd" clip-rule="evenodd" d="M6 10.1035V6.75C6 5.21287 6.64149 3.74656 7.77045 2.67136C8.89816 1.59735 10.4202 1 12 1C13.5798 1 15.1018 1.59735 16.2296 2.67136C17.3585 3.74656 18 5.21287 18 6.75V10.1035C19.1543 10.43 20 11.4912 20 12.75V20.25C20 21.7688 18.7688 23 17.25 23H6.75C5.23122 23 4 21.7688 4 20.25V12.75C4 11.4912 4.84575 10.43 6 10.1035ZM8.80493 3.75757C9.64635 2.95622 10.795 2.5 12 2.5C13.205 2.5 14.3536 2.95622 15.1951 3.75757C16.0352 4.55774 16.5 5.63496 16.5 6.75V10H7.5V6.75C7.5 5.63496 7.96475 4.55774 8.80493 3.75757ZM12 16.25C11.5858 16.25 11.25 16.5858 11.25 17V19C11.25 19.4142 11.5858 19.75 12 19.75C12.4142 19.75 12.75 19.4142 12.75 19V17C12.75 16.5858 12.4142 16.25 12 16.25Z" fill="#000001"/>
</g>
</svg>
