<svg width="16" height="16" viewBox="0 0 16 16" fill="none" xmlns="http://www.w3.org/2000/svg">
<g id="size=16">
<g id="Union">
<path d="M8 1.5C7.34318 1.5 6.70929 1.76744 6.2389 2.24989C5.94974 2.54646 5.47491 2.55247 5.17833 2.26331C4.88175 1.97415 4.87574 1.49931 5.1649 1.20274C5.9135 0.434943 6.93292 0 8 0C9.06708 0 10.0865 0.434943 10.8351 1.20274C11.5831 1.96988 12 3.00641 12 4.08333V5.01373C13.125 5.13809 14 6.09186 14 7.25V9.5C14 9.91421 13.6642 10.25 13.25 10.25C12.8358 10.25 12.5 9.91421 12.5 9.5V7.25C12.5 6.83579 12.1642 6.5 11.75 6.5H9.5C9.08579 6.5 8.75 6.16421 8.75 5.75C8.75 5.33579 9.08579 5 9.5 5H10.5V4.08333C10.5 3.39215 10.2321 2.73298 9.7611 2.24989C9.29071 1.76744 8.65683 1.5 8 1.5Z" fill="#000001"/>
<path fill-rule="evenodd" clip-rule="evenodd" d="M3.9581 5.01876C2.85336 5.16187 2 6.10628 2 7.25V12.75C2 13.9926 3.00736 15 4.25 15H11.75C12.3564 15 12.9061 14.7603 13.3103 14.371L14.4697 15.5303C14.7626 15.8232 15.2374 15.8232 15.5303 15.5303C15.8232 15.2374 15.8232 14.7626 15.5303 14.4697L1.53033 0.46967C1.23744 0.176777 0.762563 0.176777 0.46967 0.46967C0.176777 0.762563 0.176777 1.23744 0.46967 1.53033L3.9581 5.01876ZM4.25 6.5C3.83579 6.5 3.5 6.83579 3.5 7.25V12.75C3.5 13.1642 3.83579 13.5 4.25 13.5H11.75C11.9412 13.5 12.1163 13.4282 12.2492 13.3099L5.43934 6.5H4.25Z" fill="#000001"/>
</g>
</g>
</svg>
