<svg width="16" height="16" viewBox="0 0 16 16" fill="none" xmlns="http://www.w3.org/2000/svg">
<g id="size=16">
<g id="Union">
<path d="M8 9.25C8.41421 9.25 8.75 9.58579 8.75 10V11C8.75 11.4142 8.41421 11.75 8 11.75C7.58579 11.75 7.25 11.4142 7.25 11V10C7.25 9.58579 7.58579 9.25 8 9.25Z" fill="#000001"/>
<path fill-rule="evenodd" clip-rule="evenodd" d="M4 5.01373V4.08333C4 3.00641 4.41693 1.96988 5.1649 1.20274C5.9135 0.434943 6.93292 0 8 0C9.06708 0 10.0865 0.434943 10.8351 1.20274C11.5831 1.96988 12 3.00641 12 4.08333V5.01373C13.125 5.13809 14 6.09186 14 7.25V12.75C14 13.9926 12.9926 15 11.75 15H4.25C3.00736 15 2 13.9926 2 12.75V7.25C2 6.09186 2.87501 5.13809 4 5.01373ZM6.2389 2.24989C6.70929 1.76744 7.34317 1.5 8 1.5C8.65683 1.5 9.29071 1.76744 9.7611 2.24989C10.2321 2.73298 10.5 3.39215 10.5 4.08333V5H5.5V4.08333C5.5 3.39215 5.76789 2.73298 6.2389 2.24989ZM11.75 6.5C12.1642 6.5 12.5 6.83579 12.5 7.25V12.75C12.5 13.1642 12.1642 13.5 11.75 13.5H4.25C3.83579 13.5 3.5 13.1642 3.5 12.75V7.25C3.5 6.83579 3.83579 6.5 4.25 6.5H11.75Z" fill="#000001"/>
</g>
</g>
</svg>
