<svg viewBox="0 0 16 16" width="16" height="16" fill="currentColor" xmlns="http://www.w3.org/2000/svg">
 <g transform="translate(0, 1)">
  <path d="M0 2.25C0 1.00736 1.00736 0 2.25 0L13.75 0C14.9926 0 16 1.00736 16 2.25L16 11.75C16 12.9926 14.9926 14 13.75 14L2.25 14C1.00736 14 0 12.9926 0 11.75L0 2.25ZM2.25 1.5C1.85569 1.5 1.53245 1.80429 1.5023 2.19086L8.00003 7.29622L14.4977 2.1909C14.4676 1.80431 14.1443 1.5 13.75 1.5L2.25 1.5ZM1.5 11.3852L1.5 4.09668L5.36512 7.13355L1.5 11.3852ZM2.51372 12.5L13.4863 12.5L9.45241 8.06269L8.4634 8.83977C8.19144 9.05345 7.80862 9.05345 7.53667 8.83977L6.54764 8.06268L2.51372 12.5ZM10.6349 7.13356L14.5 11.3851L14.5 4.09673L10.6349 7.13356Z" fill-rule="EVENODD"></path>
 </g>
</svg>