<svg width="16" height="16" viewBox="0 0 16 16" fill="none" xmlns="http://www.w3.org/2000/svg">
<g id="size=16">
<path id="Union" fill-rule="evenodd" clip-rule="evenodd" d="M0 3.25C0 2.00736 1.00736 1 2.25 1H13.75C14.9926 1 16 2.00736 16 3.25V12.75C16 13.9926 14.9926 15 13.75 15H2.25C1.00736 15 0 13.9926 0 12.75V3.25ZM2.25 2.5C1.85569 2.5 1.53245 2.80429 1.5023 3.19086L8.00003 8.29622L14.4977 3.1909C14.4676 2.80431 14.1443 2.5 13.75 2.5H2.25ZM1.5 12.3852V5.09668L5.36512 8.13355L1.5 12.3852ZM2.51372 13.5H13.4863L9.45241 9.06269L8.4634 9.83977C8.19144 10.0535 7.80862 10.0535 7.53667 9.83977L6.54764 9.06268L2.51372 13.5ZM10.6349 8.13356L14.5 12.3851V5.09673L10.6349 8.13356Z" fill="black"/>
</g>
</svg>
