<svg width="24" height="24" viewBox="0 0 24 24" fill="none" xmlns="http://www.w3.org/2000/svg">
<g id="size=24">
<g id="Union">
<path d="M11.585 23.8747C11.585 23.8747 11.5854 23.875 12 23.25L12.4146 23.875C12.1633 24.0417 11.8362 24.0414 11.585 23.8747Z" fill="black"/>
<path fill-rule="evenodd" clip-rule="evenodd" d="M12 6C9.79086 6 8 7.79086 8 10C8 12.2091 9.79086 14 12 14C14.2091 14 16 12.2091 16 10C16 7.79086 14.2091 6 12 6ZM9.5 10C9.5 8.61929 10.6193 7.5 12 7.5C13.3807 7.5 14.5 8.61929 14.5 10C14.5 11.3807 13.3807 12.5 12 12.5C10.6193 12.5 9.5 11.3807 9.5 10Z" fill="black"/>
<path fill-rule="evenodd" clip-rule="evenodd" d="M11.585 23.8747L12 23.25C12.4146 23.875 12.4157 23.8743 12.4157 23.8743L12.4176 23.873L12.424 23.8687L12.4465 23.8536C12.4658 23.8405 12.4937 23.8216 12.5295 23.7969C12.6011 23.7475 12.7045 23.6753 12.8352 23.5814C13.0965 23.3936 13.4672 23.1189 13.9111 22.7672C14.7976 22.0647 15.9816 21.0504 17.1682 19.8041C19.5102 17.3441 22 13.8369 22 9.95455C22 7.31324 20.9455 4.78087 19.0698 2.91431C17.1941 1.04789 14.651 0 12 0C9.34902 0 6.80588 1.04789 4.93024 2.91431C3.05447 4.78087 2 7.31324 2 9.95455C2 13.8369 4.48976 17.3441 6.83181 19.8041C8.01839 21.0504 9.2024 22.0647 10.0889 22.7672C10.5328 23.1189 10.9035 23.3936 11.1648 23.5814C11.2955 23.6753 11.3989 23.7475 11.4705 23.7969C11.5063 23.8216 11.5342 23.8405 11.5535 23.8536L11.576 23.8687L11.5824 23.873L11.585 23.8747ZM5.98828 3.97758C7.58206 2.39164 9.74447 1.5 12 1.5C14.2555 1.5 16.4179 2.39164 18.0117 3.97758C19.6054 5.56341 20.5 7.71346 20.5 9.95455C20.5 13.2312 18.3648 16.3718 16.0818 18.7698C14.9559 19.9524 13.8274 20.9197 12.9795 21.5915C12.5789 21.909 12.2422 22.1594 12 22.3343C11.7578 22.1594 11.4211 21.909 11.0205 21.5915C10.1726 20.9197 9.04411 19.9524 7.91819 18.7698C5.63524 16.3718 3.5 13.2312 3.5 9.95455C3.5 7.71346 4.39463 5.56341 5.98828 3.97758Z" fill="black"/>
</g>
</g>
</svg>
