<svg width="16" height="16" viewBox="0 0 16 16" fill="none" xmlns="http://www.w3.org/2000/svg">
<g id="size=16">
<g id="Union">
<path fill-rule="evenodd" clip-rule="evenodd" d="M8 4.5C6.61929 4.5 5.5 5.61929 5.5 7C5.5 8.38071 6.61929 9.5 8 9.5C9.38071 9.5 10.5 8.38071 10.5 7C10.5 5.61929 9.38071 4.5 8 4.5ZM7 7C7 6.44772 7.44772 6 8 6C8.55228 6 9 6.44772 9 7C9 7.55229 8.55228 8 8 8C7.44772 8 7 7.55229 7 7Z" fill="black"/>
<path fill-rule="evenodd" clip-rule="evenodd" d="M8 0C4.13806 0 1 3.11397 1 6.96429C1 8.88863 1.78542 10.6312 3.05177 11.8903C3.06251 11.901 3.07357 11.9113 3.08493 11.9213L7.50435 15.8129C7.78769 16.0624 8.21231 16.0624 8.49565 15.8129L12.9151 11.9213C12.9264 11.9113 12.9375 11.901 12.9482 11.8903C14.2146 10.6312 15 8.88863 15 6.96429C15 3.11397 11.8619 0 8 0ZM2.5 6.96429C2.5 3.95049 4.95838 1.5 8 1.5C11.0416 1.5 13.5 3.95049 13.5 6.96429C13.5 8.46412 12.8927 9.82233 11.9062 10.8111L8 14.2507L4.09383 10.8111C3.10729 9.82233 2.5 8.46412 2.5 6.96429Z" fill="black"/>
</g>
</g>
</svg>
