<svg width="24" height="24" viewBox="0 0 24 24" fill="none" xmlns="http://www.w3.org/2000/svg">
<g id="Size=24">
<g id="Union">
<path d="M8 14.5C7.58579 14.5 7.25 14.8358 7.25 15.25C7.25 15.6642 7.58579 16 8 16H16C16.4142 16 16.75 15.6642 16.75 15.25C16.75 14.8358 16.4142 14.5 16 14.5H8Z" fill="black"/>
<path d="M8 9C8 8.44772 8.44772 8 9 8H9.01C9.56229 8 10.01 8.44772 10.01 9C10.01 9.55229 9.56229 10 9.01 10H9C8.44772 10 8 9.55229 8 9Z" fill="black"/>
<path d="M15 8C14.4477 8 14 8.44772 14 9C14 9.55229 14.4477 10 15 10H15.01C15.5623 10 16.01 9.55229 16.01 9C16.01 8.44772 15.5623 8 15.01 8H15Z" fill="black"/>
<path fill-rule="evenodd" clip-rule="evenodd" d="M12 1C5.92487 1 1 5.92487 1 12C1 18.0751 5.92487 23 12 23C18.0751 23 23 18.0751 23 12C23 5.92487 18.0751 1 12 1ZM2.5 12C2.5 6.75329 6.75329 2.5 12 2.5C17.2467 2.5 21.5 6.75329 21.5 12C21.5 17.2467 17.2467 21.5 12 21.5C6.75329 21.5 2.5 17.2467 2.5 12Z" fill="black"/>
</g>
</g>
</svg>
