<svg width="24" height="24" viewBox="0 0 24 24" fill="none" xmlns="http://www.w3.org/2000/svg">
<g id="size=24">
<g id="Union">
<path d="M2 5.75C2 5.33579 2.33579 5 2.75 5H21.25C21.6642 5 22 5.33579 22 5.75C22 6.16421 21.6642 6.5 21.25 6.5H2.75C2.33579 6.5 2 6.16421 2 5.75Z" fill="black"/>
<path d="M2 11.75C2 11.3358 2.33579 11 2.75 11H21.25C21.6642 11 22 11.3358 22 11.75C22 12.1642 21.6642 12.5 21.25 12.5H2.75C2.33579 12.5 2 12.1642 2 11.75Z" fill="black"/>
<path d="M2.75 17C2.33579 17 2 17.3358 2 17.75C2 18.1642 2.33579 18.5 2.75 18.5H21.25C21.6642 18.5 22 18.1642 22 17.75C22 17.3358 21.6642 17 21.25 17H2.75Z" fill="black"/>
</g>
</g>
</svg>
