<svg width="24" height="24" viewBox="0 0 24 24" fill="none" xmlns="http://www.w3.org/2000/svg">
<g id="size=24">
<g id="Union">
<path d="M6 6.75C6 6.33579 6.33579 6 6.75 6H16.75C17.1642 6 17.5 6.33579 17.5 6.75C17.5 7.16421 17.1642 7.5 16.75 7.5H6.75C6.33579 7.5 6 7.16421 6 6.75Z" fill="#000001"/>
<path d="M6 9.75C6 9.33579 6.33579 9 6.75 9H11.75C12.1642 9 12.5 9.33579 12.5 9.75C12.5 10.1642 12.1642 10.5 11.75 10.5H6.75C6.33579 10.5 6 10.1642 6 9.75Z" fill="#000001"/>
<path d="M6 12.75C6 12.3358 6.33579 12 6.75 12H13.75C14.1642 12 14.5 12.3358 14.5 12.75C14.5 13.1642 14.1642 13.5 13.75 13.5H6.75C6.33579 13.5 6 13.1642 6 12.75Z" fill="#000001"/>
<path fill-rule="evenodd" clip-rule="evenodd" d="M19.25 2C20.7688 2 22 3.23122 22 4.75V15.25C22 16.7688 20.7688 18 19.25 18H8.26038C7.96728 18 7.68349 18.103 7.45862 18.291L3.23106 21.8254C3.00762 22.0122 2.69626 22.0528 2.43242 21.9294C2.16859 21.8061 2 21.5412 2 21.25V4.75C2 3.23122 3.23122 2 4.75 2H19.25ZM20.5 4.75C20.5 4.05964 19.9404 3.5 19.25 3.5H4.75C4.05964 3.5 3.5 4.05964 3.5 4.75V19.6454L6.49651 17.1402C6.99123 16.7266 7.61555 16.5 8.26038 16.5H19.25C19.9404 16.5 20.5 15.9404 20.5 15.25V4.75Z" fill="#000001"/>
</g>
</g>
</svg>
