<svg width="16" height="16" viewBox="0 0 16 16" fill="none" xmlns="http://www.w3.org/2000/svg">
<g id="size=16">
<path id="Rectangle 1703 (Stroke)" fill-rule="evenodd" clip-rule="evenodd" d="M15 3.25C15 2.00736 13.9926 1 12.75 1H3.25C2.00736 1 1 2.00736 1 3.25V14.25C1 14.5483 1.17673 14.8182 1.45011 14.9374C1.72348 15.0567 2.04155 15.0026 2.26017 14.7998L5.06136 12.2002C5.20006 12.0715 5.3823 12 5.57153 12H12.75C13.9926 12 15 10.9926 15 9.75V3.25ZM12.75 2.5C13.1642 2.5 13.5 2.83579 13.5 3.25V9.75C13.5 10.1642 13.1642 10.5 12.75 10.5H5.57153C5.00384 10.5 4.45713 10.7146 4.04102 11.1007L2.5 12.5308V3.25C2.5 2.83579 2.83579 2.5 3.25 2.5H12.75Z" fill="#000001"/>
</g>
</svg>
