<svg width="24" height="24" viewBox="0 0 24 24" fill="none" xmlns="http://www.w3.org/2000/svg">
<g id="size=24">
<path id="Ellipse 28 (Stroke)" fill-rule="evenodd" clip-rule="evenodd" d="M12.3426 3.5C16.8478 3.5 20.5 7.1522 20.5 11.6574C20.5 16.1626 16.8478 19.8148 12.3426 19.8148C10.9832 19.8148 9.70358 19.4829 8.57815 18.8963C8.33406 18.7691 8.06981 18.7541 7.8895 18.7572C7.68906 18.7605 7.47358 18.79 7.26165 18.8309C6.83619 18.9129 6.33973 19.0576 5.84475 19.2222C5.27947 19.4102 4.68806 19.6335 4.16092 19.8432C4.36529 19.3325 4.58233 18.7615 4.76686 18.2121C4.93601 17.7084 5.08529 17.2011 5.1698 16.765C5.2119 16.5478 5.24219 16.327 5.24544 16.1216C5.24837 15.9355 5.2321 15.6682 5.1037 15.4219C4.51713 14.2964 4.18521 13.0168 4.18521 11.6574C4.18521 7.1522 7.83741 3.5 12.3426 3.5ZM3.69986 21.6549C4.35258 21.3775 5.38264 20.9566 6.31803 20.6456C6.78876 20.4891 7.21407 20.3677 7.54558 20.3038C7.71215 20.2717 7.83397 20.2583 7.91452 20.2569C7.92616 20.2567 7.93593 20.2568 7.94396 20.257C9.26398 20.9335 10.7598 21.3148 12.3426 21.3148C17.6763 21.3148 22 16.991 22 11.6574C22 6.32377 17.6763 2 12.3426 2C7.00898 2 2.68521 6.32377 2.68521 11.6574C2.68521 13.242 3.06742 14.7394 3.74528 16.0605C3.74566 16.0701 3.74587 16.0825 3.74562 16.0979C3.74429 16.1823 3.73036 16.3085 3.69719 16.4797C3.63116 16.8204 3.50575 17.2556 3.34491 17.7345C3.02483 18.6876 2.5939 19.7281 2.32075 20.3628C2.24381 20.5416 2.18002 20.6867 2.13564 20.7868C2.11345 20.8368 2.09613 20.8755 2.08445 20.9015L2.07126 20.9308L2.06729 20.9396C1.939 21.2221 1.99778 21.5548 2.2154 21.776C2.43303 21.9972 2.7644 22.0615 3.04899 21.9378L3.69714 21.6561L3.69986 21.6549ZM3.7431 16.0339L3.74343 16.036L3.7431 16.0339Z" fill="black"/>
</g>
</svg>
