<svg width="16" height="16" viewBox="0 0 16 16" fill="none" xmlns="http://www.w3.org/2000/svg">
<g id="size=16">
<path id="Ellipse 28 (Stroke)" fill-rule="evenodd" clip-rule="evenodd" d="M8.23149 2.5C11.1412 2.5 13.5 4.8588 13.5 7.76852C13.5 10.6782 11.1412 13.037 8.23149 13.037C7.35305 13.037 6.52689 12.8226 5.80035 12.444C5.59926 12.3392 5.39352 12.3236 5.26587 12.3223C5.12304 12.3208 4.97713 12.3376 4.84237 12.3603C4.57192 12.4059 4.26479 12.4896 3.96326 12.5846C3.69116 12.6703 3.4057 12.7709 3.12937 12.8742C3.23215 12.6004 3.33222 12.3175 3.41749 12.0473C3.51299 11.7446 3.59711 11.4355 3.64245 11.1624C3.66505 11.0262 3.68151 10.8788 3.67934 10.7343C3.67738 10.6038 3.66014 10.3994 3.55603 10.1997C3.17736 9.47312 2.96297 8.64696 2.96297 7.76852C2.96297 4.8588 5.32177 2.5 8.23149 2.5ZM2.05799 14.9338L2.06011 14.9329L2.06936 14.9288L2.10702 14.912C2.14032 14.8973 2.18952 14.8756 2.25202 14.8484C2.37709 14.7941 2.55498 14.7178 2.76491 14.6308C3.24262 14.4329 3.86919 14.1869 4.41387 14.0153C4.68849 13.9288 4.92038 13.8683 5.09169 13.8395C5.14062 13.8312 5.1781 13.8267 5.20537 13.8244C6.1168 14.2806 7.14522 14.537 8.23149 14.537C11.9696 14.537 15 11.5067 15 7.76852C15 4.03037 11.9696 1 8.23149 1C4.49334 1 1.46297 4.03037 1.46297 7.76852C1.46297 8.85649 1.72022 9.88643 2.17779 10.7989C2.17564 10.8267 2.17119 10.8656 2.16269 10.9168C2.13415 11.0887 2.07374 11.321 1.98701 11.5959C1.81496 12.1412 1.56752 12.7667 1.36893 13.2421C1.28229 13.4495 1.20635 13.625 1.15222 13.7484C1.12518 13.81 1.10363 13.8585 1.08897 13.8913L1.07234 13.9283L1.06824 13.9374L1.0673 13.9395C0.938299 14.2236 0.998474 14.5583 1.21869 14.7793C1.43891 15.0004 1.77341 15.0618 2.05799 14.9338Z" fill="black"/>
</g>
</svg>
