<svg width="16" height="16" viewBox="0 0 16 16" fill="none" xmlns="http://www.w3.org/2000/svg">
<g id="Size=16">
<g id="Union">
<path d="M8 0C7.21922 0 6.46157 0.290571 5.89583 0.821388C5.63238 1.06858 5.42022 1.35898 5.26852 1.67758C5.09046 2.05157 5.24928 2.4991 5.62327 2.67716C5.99726 2.85523 6.44478 2.6964 6.62285 2.32242C6.69315 2.17476 6.79336 2.03615 6.92219 1.91527C7.20036 1.65427 7.5873 1.5 8 1.5C8.4127 1.5 8.79964 1.65427 9.07781 1.91527C9.35437 2.17476 9.5 2.5161 9.5 2.86111V6.30432C9.5 6.71853 9.83579 7.05432 10.25 7.05432C10.6642 7.05432 11 6.71853 11 6.30432V2.86111C11 2.08632 10.6715 1.35372 10.1042 0.821388C9.53843 0.290571 8.78078 0 8 0Z" fill="black"/>
<path fill-rule="evenodd" clip-rule="evenodd" d="M5 6.06066L1.21967 2.28033C0.926777 1.98744 0.926777 1.51256 1.21967 1.21967C1.51256 0.926777 1.98744 0.926777 2.28033 1.21967L14.7803 13.7197C15.0732 14.0126 15.0732 14.4874 14.7803 14.7803C14.4874 15.0732 14.0126 15.0732 13.7197 14.7803L11.3382 12.3988C10.5821 12.9622 9.68975 13.3237 8.75 13.4499V14.5H10.5C10.9142 14.5 11.25 14.8358 11.25 15.25C11.25 15.6642 10.9142 16 10.5 16H5.5C5.08579 16 4.75 15.6642 4.75 15.25C4.75 14.8358 5.08579 14.5 5.5 14.5H7.25V13.4499C6.07392 13.292 4.97214 12.7654 4.11859 11.9361C3.08486 10.9316 2.5 9.56467 2.5 8.13461V6.75C2.5 6.33579 2.83579 6 3.25 6C3.66421 6 4 6.33579 4 6.75V8.13461C4 9.15271 4.41603 10.1336 5.1639 10.8603C5.91249 11.5877 6.93229 12 8 12C8.81498 12 9.60205 11.7598 10.2619 11.3226L9.53611 10.5968C9.07286 10.86 8.542 11 8 11C7.21922 11 6.46157 10.7094 5.89583 10.1786C5.32847 9.64628 5 8.91368 5 8.13889V6.06066ZM6.5 7.56066V8.13889C6.5 8.4839 6.64563 8.82524 6.92219 9.08473C7.20036 9.34573 7.5873 9.5 8 9.5C8.13433 9.5 8.26593 9.48366 8.39195 9.45261L6.5 7.56066Z" fill="black"/>
<path d="M12.03 6.75C12.03 6.33579 12.3658 6 12.78 6C13.1942 6 13.53 6.33579 13.53 6.75V8.13461C13.53 8.40054 13.5098 8.66446 13.4701 8.92439C13.4077 9.33386 13.0251 9.61518 12.6156 9.55272C12.2061 9.49026 11.9248 9.10769 11.9873 8.69821C12.0156 8.51271 12.03 8.32439 12.03 8.13461V6.75Z" fill="black"/>
</g>
</g>
</svg>
