<svg width="24" height="24" viewBox="0 0 24 24" fill="none" xmlns="http://www.w3.org/2000/svg">
<g id="Size=24">
<g id="Union">
<path fill-rule="evenodd" clip-rule="evenodd" d="M12 0C10.9497 0 9.93609 0.398559 9.18362 1.11795C8.43001 1.83844 8 2.82301 8 3.85714V12.1429C8 13.177 8.43001 14.1616 9.18362 14.882C9.93609 15.6014 10.9497 16 12 16C13.0503 16 14.0639 15.6014 14.8164 14.882C15.57 14.1616 16 13.177 16 12.1429V3.85714C16 2.82301 15.57 1.83844 14.8164 1.11795C14.0639 0.398559 13.0503 0 12 0ZM10.2202 2.20217C10.6867 1.75616 11.3264 1.5 12 1.5C12.6736 1.5 13.3133 1.75616 13.7798 2.20217C14.2452 2.64709 14.5 3.24315 14.5 3.85714V12.1429C14.5 12.7569 14.2452 13.3529 13.7798 13.7978C13.3133 14.2438 12.6736 14.5 12 14.5C11.3264 14.5 10.6867 14.2438 10.2202 13.7978C9.75481 13.3529 9.5 12.7569 9.5 12.1429V3.85714C9.5 3.24315 9.75481 2.64709 10.2202 2.20217Z" fill="black"/>
<path d="M5.5 10C5.5 9.58579 5.16421 9.25 4.75 9.25C4.33579 9.25 4 9.58579 4 10V12C4 14.0641 4.84949 16.0381 6.35253 17.4893C7.67599 18.7671 9.41067 19.5481 11.25 19.7159V22H8C7.58579 22 7.25 22.3358 7.25 22.75C7.25 23.1642 7.58579 23.5 8 23.5H16C16.4142 23.5 16.75 23.1642 16.75 22.75C16.75 22.3358 16.4142 22 16 22H12.75V19.7159C14.5893 19.5481 16.324 18.7671 17.6475 17.4893C19.1505 16.0381 20 14.0641 20 12V10C20 9.58579 19.6642 9.25 19.25 9.25C18.8358 9.25 18.5 9.58579 18.5 10V12C18.5 13.6489 17.8218 15.2359 16.6056 16.4102C15.3884 17.5854 13.7322 18.25 12 18.25C10.2678 18.25 8.61155 17.5854 7.39442 16.4102C6.17819 15.2359 5.5 13.6489 5.5 12V10Z" fill="black"/>
</g>
</g>
</svg>
