<svg width="16" height="16" viewBox="0 0 16 16" fill="none" xmlns="http://www.w3.org/2000/svg">
<g id="size=16">
<g id="Union">
<path fill-rule="evenodd" clip-rule="evenodd" d="M8 0C7.21922 0 6.46157 0.290571 5.89583 0.821388C5.32847 1.35372 5 2.08632 5 2.86111V8.13889C5 8.91368 5.32847 9.64628 5.89583 10.1786C6.46157 10.7094 7.21922 11 8 11C8.78078 11 9.53843 10.7094 10.1042 10.1786C10.6715 9.64628 11 8.91368 11 8.13889V2.86111C11 2.08632 10.6715 1.35372 10.1042 0.821388C9.53843 0.290571 8.78078 0 8 0ZM6.92219 1.91527C7.20036 1.65427 7.5873 1.5 8 1.5C8.4127 1.5 8.79964 1.65427 9.07781 1.91527C9.35437 2.17476 9.5 2.5161 9.5 2.86111V8.13889C9.5 8.4839 9.35437 8.82524 9.07781 9.08473C8.79963 9.34573 8.4127 9.5 8 9.5C7.5873 9.5 7.20037 9.34573 6.92219 9.08473C6.64563 8.82524 6.5 8.4839 6.5 8.13889V2.86111C6.5 2.5161 6.64563 2.17476 6.92219 1.91527Z" fill="#000001"/>
<path d="M4 6.75C4 6.33579 3.66421 6 3.25 6C2.83579 6 2.5 6.33579 2.5 6.75V8.13461C2.5 9.56467 3.08486 10.9316 4.11859 11.9361C4.97214 12.7654 6.07392 13.292 7.25 13.4499V14.5H5.5C5.08579 14.5 4.75 14.8358 4.75 15.25C4.75 15.6642 5.08579 16 5.5 16H10.5C10.9142 16 11.25 15.6642 11.25 15.25C11.25 14.8358 10.9142 14.5 10.5 14.5H8.75V13.4499C9.92608 13.292 11.0279 12.7654 11.8814 11.9361C12.9151 10.9316 13.5 9.56467 13.5 8.13461V6.75C13.5 6.33579 13.1642 6 12.75 6C12.3358 6 12 6.33579 12 6.75V8.13461C12 9.15271 11.584 10.1336 10.8361 10.8603C10.0875 11.5877 9.06771 12 8 12C6.93229 12 5.91249 11.5877 5.1639 10.8603C4.41603 10.1336 4 9.15271 4 8.13461V6.75Z" fill="#000001"/>
</g>
</g>
</svg>
