<svg width="16" height="16" viewBox="0 0 16 16" fill="none" xmlns="http://www.w3.org/2000/svg">
<g id="size=16">
<g id="Union">
<path d="M9.21967 3.71967C9.51256 3.42678 9.98744 3.42678 10.2803 3.71967L13.7803 7.21967C14.0732 7.51256 14.0732 7.98744 13.7803 8.28033L10.2803 11.7803C9.98744 12.0732 9.51256 12.0732 9.21967 11.7803C8.92678 11.4874 8.92678 11.0126 9.21967 10.7197L12.1893 7.75L9.21967 4.78033C8.92678 4.48744 8.92678 4.01256 9.21967 3.71967Z" fill="#000001"/>
<path d="M5.21967 3.71967C5.51256 3.42678 5.98744 3.42678 6.28033 3.71967L9.78033 7.21967C9.92098 7.36032 10 7.55109 10 7.75C10 7.94891 9.92098 8.13968 9.78033 8.28033L6.28033 11.7803C5.98744 12.0732 5.51256 12.0732 5.21967 11.7803C4.92678 11.4874 4.92678 11.0126 5.21967 10.7197L7.43934 8.5H2C1.58579 8.5 1.25 8.16421 1.25 7.75C1.25 7.33579 1.58579 7 2 7H7.43934L5.21967 4.78033C4.92678 4.48744 4.92678 4.01256 5.21967 3.71967Z" fill="#000001"/>
</g>
</g>
</svg>
