<svg width="24" height="24" viewBox="0 0 24 24" fill="none" xmlns="http://www.w3.org/2000/svg">
<g id="Size=24">
<g id="Union">
<path d="M20.7803 4.28033C21.0732 3.98744 21.0732 3.51256 20.7803 3.21967C20.4874 2.92678 20.0126 2.92678 19.7197 3.21967L14.5 8.43934V4.75C14.5 4.33579 14.1642 4 13.75 4C13.3358 4 13 4.33579 13 4.75V10.25C13 10.3517 13.0202 10.4487 13.0569 10.5371C13.0927 10.6235 13.1453 10.7047 13.2148 10.7754C13.218 10.7787 13.2213 10.782 13.2246 10.7852C13.2953 10.8547 13.3765 10.9073 13.4629 10.9431C13.5513 10.9798 13.6483 11 13.75 11H19.25C19.6642 11 20 10.6642 20 10.25C20 9.83579 19.6642 9.5 19.25 9.5H15.5607L20.7803 4.28033Z" fill="black"/>
<path d="M4 13.75C4 14.1642 4.33579 14.5 4.75 14.5H8.43934L3.21967 19.7197C2.92678 20.0126 2.92678 20.4874 3.21967 20.7803C3.51256 21.0732 3.98744 21.0732 4.28033 20.7803L9.5 15.5607V19.25C9.5 19.6642 9.83579 20 10.25 20C10.6642 20 11 19.6642 11 19.25V13.75C11 13.6483 10.9798 13.5513 10.9431 13.4629C10.9073 13.3765 10.8547 13.2953 10.7852 13.2246L10.7754 13.2148C10.6401 13.0819 10.4546 13 10.25 13H4.75C4.33579 13 4 13.3358 4 13.75Z" fill="black"/>
</g>
</g>
</svg>
