<svg width="24" height="24" viewBox="0 0 24 24" fill="none" xmlns="http://www.w3.org/2000/svg">
<g id="size=24">
<g id="Union">
<path d="M8.25 11C7.83579 11 7.5 11.3358 7.5 11.75C7.5 12.1642 7.83579 12.5 8.25 12.5H15.75C16.1642 12.5 16.5 12.1642 16.5 11.75C16.5 11.3358 16.1642 11 15.75 11H8.25Z" fill="black"/>
<path fill-rule="evenodd" clip-rule="evenodd" d="M4.75 2C3.23122 2 2 3.23122 2 4.75V19.25C2 20.7688 3.23122 22 4.75 22H19.25C20.7688 22 22 20.7688 22 19.25V4.75C22 3.23122 20.7688 2 19.25 2H4.75ZM3.5 4.75C3.5 4.05964 4.05964 3.5 4.75 3.5H19.25C19.9404 3.5 20.5 4.05964 20.5 4.75V19.25C20.5 19.9404 19.9404 20.5 19.25 20.5H4.75C4.05964 20.5 3.5 19.9404 3.5 19.25V4.75Z" fill="black"/>
</g>
</g>
</svg>
