<svg width="16" height="16" viewBox="0 0 16 16" fill="none" xmlns="http://www.w3.org/2000/svg">
<g id="size=16">
<g id="Union">
<path d="M5.25 7C4.83579 7 4.5 7.33579 4.5 7.75C4.5 8.16421 4.83579 8.5 5.25 8.5H10.75C11.1642 8.5 11.5 8.16421 11.5 7.75C11.5 7.33579 11.1642 7 10.75 7H5.25Z" fill="#000001"/>
<path fill-rule="evenodd" clip-rule="evenodd" d="M3.25 1C2.00736 1 1 2.00736 1 3.25V12.75C1 13.9926 2.00736 15 3.25 15H12.75C13.9926 15 15 13.9926 15 12.75V3.25C15 2.00736 13.9926 1 12.75 1H3.25ZM2.5 3.25C2.5 2.83579 2.83579 2.5 3.25 2.5H12.75C13.1642 2.5 13.5 2.83579 13.5 3.25V12.75C13.5 13.1642 13.1642 13.5 12.75 13.5H3.25C2.83579 13.5 2.5 13.1642 2.5 12.75V3.25Z" fill="#000001"/>
</g>
</g>
</svg>
