<svg viewBox="0 0 16 16" width="16" height="16" fill="currentColor" xmlns="http://www.w3.org/2000/svg">
 <g transform="translate(0, 0)">
  <path d="M10.75 8C11.1642 8 11.5 8.33579 11.5 8.75L11.5 10L12.75 10C13.1642 10 13.5 10.3358 13.5 10.75C13.5 11.1642 13.1642 11.5 12.75 11.5L11.5 11.5L11.5 12.75C11.5 13.1642 11.1642 13.5 10.75 13.5C10.3358 13.5 10 13.1642 10 12.75L10 11.5L8.75 11.5C8.33579 11.5 8 11.1642 8 10.75C8 10.3358 8.33579 10 8.75 10L10 10L10 8.75C10 8.33579 10.3358 8 10.75 8Z" fill-rule="NONZERO"></path>
  <path d="M0 2.25C0 1.00736 1.00736 0 2.25 0L8.25 0C9.49264 0 10.5 1.00736 10.5 2.25L10.5 5.5L13.75 5.5C14.9926 5.5 16 6.50736 16 7.75L16 13.75C16 14.9926 14.9926 16 13.75 16L7.75 16C6.50736 16 5.5 14.9926 5.5 13.75L5.5 10.5L2.25 10.5C1.00736 10.5 0 9.49264 0 8.25L0 2.25ZM9 2.25L9 5.5L7.75 5.5C7.73569 5.5 7.72142 5.50013 7.70718 5.5004C7.73491 5.42209 7.75 5.33781 7.75 5.25C7.75 4.83579 7.41421 4.5 7 4.5L3.5 4.5C3.08579 4.5 2.75 4.83579 2.75 5.25C2.75 5.66421 3.08579 6 3.5 6L6.33567 6C5.82592 6.41249 5.5 7.04318 5.5 7.75L5.5 9L2.25 9C1.83579 9 1.5 8.66421 1.5 8.25L1.5 2.25C1.5 1.83579 1.83579 1.5 2.25 1.5L8.25 1.5C8.66421 1.5 9 1.83579 9 2.25ZM7 13.75L7 7.75C7 7.33579 7.33579 7 7.75 7L13.75 7C14.1642 7 14.5 7.33579 14.5 7.75L14.5 13.75C14.5 14.1642 14.1642 14.5 13.75 14.5L7.75 14.5C7.33579 14.5 7 14.1642 7 13.75Z" fill-rule="EVENODD"></path>
 </g>
</svg>