<svg width="24" height="24" viewBox="0 0 24 24" fill="none" xmlns="http://www.w3.org/2000/svg">
<g id="Size=24">
<g id="Union">
<path d="M5.25 7.75C5.25 7.33579 5.58579 7 6 7H10.5C10.9142 7 11.25 7.33579 11.25 7.75C11.25 8.16421 10.9142 8.5 10.5 8.5H6C5.58579 8.5 5.25 8.16421 5.25 7.75Z" fill="black"/>
<path d="M15.75 12.25C15.3358 12.25 15 12.5858 15 13V15H13C12.5858 15 12.25 15.3358 12.25 15.75C12.25 16.1642 12.5858 16.5 13 16.5H15V18.5C15 18.9142 15.3358 19.25 15.75 19.25C16.1642 19.25 16.5 18.9142 16.5 18.5V16.5H18.5C18.9142 16.5 19.25 16.1642 19.25 15.75C19.25 15.3358 18.9142 15 18.5 15H16.5V13C16.5 12.5858 16.1642 12.25 15.75 12.25Z" fill="black"/>
<path fill-rule="evenodd" clip-rule="evenodd" d="M4.25 1.5C2.73122 1.5 1.5 2.73122 1.5 4.25V12.25C1.5 13.7688 2.73122 15 4.25 15H9V19.75C9 21.2688 10.2312 22.5 11.75 22.5H19.75C21.2688 22.5 22.5 21.2688 22.5 19.75V11.75C22.5 10.2312 21.2688 9 19.75 9H15V4.25C15 2.73122 13.7688 1.5 12.25 1.5H4.25ZM13.5 9V4.25C13.5 3.55964 12.9404 3 12.25 3H4.25C3.55964 3 3 3.55964 3 4.25V12.25C3 12.9404 3.55964 13.5 4.25 13.5H9V11.75C9 10.2312 10.2312 9 11.75 9H13.5ZM10.5 19.75C10.5 20.4404 11.0596 21 11.75 21H19.75C20.4404 21 21 20.4404 21 19.75V11.75C21 11.0596 20.4404 10.5 19.75 10.5H11.75C11.0596 10.5 10.5 11.0596 10.5 11.75V19.75Z" fill="black"/>
</g>
</g>
</svg>
