<svg width="24" height="24" viewBox="0 0 24 24" fill="none" xmlns="http://www.w3.org/2000/svg">
<g id="size=24">
<g id="Union">
<path d="M6 7C5.58579 7 5.25 7.33579 5.25 7.75C5.25 8.16421 5.58579 8.5 6 8.5H10.5C10.9142 8.5 11.25 8.16421 11.25 7.75C11.25 7.33579 10.9142 7 10.5 7H6Z" fill="#000001"/>
<path d="M15.75 12.25C15.3358 12.25 15 12.5858 15 13V15H13C12.5858 15 12.25 15.3358 12.25 15.75C12.25 16.1642 12.5858 16.5 13 16.5H15V18.5C15 18.9142 15.3358 19.25 15.75 19.25C16.1642 19.25 16.5 18.9142 16.5 18.5V16.5H18.5C18.9142 16.5 19.25 16.1642 19.25 15.75C19.25 15.3358 18.9142 15 18.5 15H16.5V13C16.5 12.5858 16.1642 12.25 15.75 12.25Z" fill="#000001"/>
<path fill-rule="evenodd" clip-rule="evenodd" d="M8.25 15.5C8.33512 15.5 8.41992 15.4985 8.50438 15.4956C8.50147 15.58 8.5 15.6649 8.5 15.75C8.5 19.7541 11.7459 23 15.75 23C19.7541 23 23 19.7541 23 15.75C23 11.7459 19.7541 8.5 15.75 8.5C15.6649 8.5 15.58 8.50147 15.4956 8.50438C15.4985 8.41992 15.5 8.33512 15.5 8.25C15.5 4.24594 12.2541 1 8.25 1C4.24594 1 1 4.24594 1 8.25C1 12.2541 4.24594 15.5 8.25 15.5ZM8.25 2.5C5.07436 2.5 2.5 5.07436 2.5 8.25C2.5 11.4256 5.07436 14 8.25 14C8.40744 14 8.56327 13.9937 8.71727 13.9813C9.36484 11.3982 11.3982 9.36484 13.9813 8.71727C13.9937 8.56327 14 8.40744 14 8.25C14 5.07436 11.4256 2.5 8.25 2.5ZM10 15.75C10 12.5744 12.5744 10 15.75 10C18.9256 10 21.5 12.5744 21.5 15.75C21.5 18.9256 18.9256 21.5 15.75 21.5C12.5744 21.5 10 18.9256 10 15.75Z" fill="#000001"/>
</g>
</g>
</svg>
