<svg width="24" height="24" viewBox="0 0 24 24" fill="none" xmlns="http://www.w3.org/2000/svg">
<g id="size=24">
<g id="Union">
<path fill-rule="evenodd" clip-rule="evenodd" d="M17 7.86619C17 7.07228 16.2695 6.4795 15.4926 6.64297L7.99263 8.22102C7.41413 8.34274 7 8.85308 7 9.44424V17.1339C7 17.9278 7.73048 18.5206 8.50737 18.3571L16.0074 16.779C16.5859 16.6573 17 16.147 17 15.5558V7.86619ZM8.5 9.64711L15.5 8.17426V15.353L8.5 16.8258V9.64711Z" fill="#000001"/>
<path fill-rule="evenodd" clip-rule="evenodd" d="M21 4.71881C21 2.97037 19.3897 1.66585 17.6794 2.02866L5.17936 4.68018C3.90877 4.9497 3 6.07146 3 7.37032V20.2813C3 22.0298 4.61025 23.3343 6.32064 22.9715L18.8206 20.3199C20.0912 20.0504 21 18.9287 21 17.6298V4.71881ZM17.9906 3.49601C18.7681 3.3311 19.5 3.92406 19.5 4.71881V17.6298C19.5 18.2202 19.0869 18.7301 18.5094 18.8526L6.00938 21.5041C5.23193 21.669 4.5 21.0761 4.5 20.2813V7.37032C4.5 6.77993 4.91308 6.27004 5.49062 6.14753L17.9906 3.49601Z" fill="#000001"/>
</g>
</g>
</svg>
