<svg width="16" height="16" viewBox="0 0 16 16" fill="none" xmlns="http://www.w3.org/2000/svg">
<g id="Size=16">
<g id="Union">
<path fill-rule="evenodd" clip-rule="evenodd" d="M11.5 4.75001C11.5 4.52531 11.3993 4.31245 11.2255 4.17C11.0517 4.02755 10.8232 3.9705 10.6029 4.01457L5.10291 5.11457C4.75234 5.18468 4.5 5.4925 4.5 5.85001V11.25C4.5 11.4747 4.60074 11.6876 4.77451 11.83C4.94827 11.9725 5.17676 12.0295 5.39709 11.9854L10.8971 10.8854C11.2477 10.8153 11.5 10.5075 11.5 10.15V4.75001ZM6 10.3352V6.46486L10 5.66486V9.53515L6 10.3352Z" fill="black"/>
<path fill-rule="evenodd" clip-rule="evenodd" d="M15 2.32962C15 0.909769 13.701 -0.155141 12.3087 0.123315L2.80874 2.02332C1.75703 2.23366 1 3.15709 1 4.22962V13.6702C1 15.0901 2.29898 16.155 3.69126 15.8765L13.1913 13.9765C14.243 13.7662 15 12.8427 15 11.7702V2.32962ZM12.6029 1.59419C13.067 1.50137 13.5 1.85634 13.5 2.32962V11.7702C13.5 12.1277 13.2477 12.4355 12.8971 12.5056L3.39709 14.4056C2.93299 14.4985 2.5 14.1435 2.5 13.6702V4.22962C2.5 3.87211 2.75234 3.5643 3.10291 3.49419L12.6029 1.59419Z" fill="black"/>
</g>
</g>
</svg>
