<svg width="24" height="24" viewBox="0 0 24 24" fill="none" xmlns="http://www.w3.org/2000/svg">
<g id="size=24">
<path id="Vector (Stroke)" fill-rule="evenodd" clip-rule="evenodd" d="M11.82 2.38178C11.9652 2.63932 11.9455 2.95809 11.7698 3.19582C10.8501 4.44003 10.4076 5.973 10.5226 7.51592C10.6377 9.05884 11.3027 10.5092 12.3968 11.6033C13.4908 12.6973 14.9412 13.3623 16.4841 13.4774C18.027 13.5924 19.56 13.1499 20.8042 12.2302C21.0419 12.0545 21.3607 12.0348 21.6182 12.18C21.8758 12.3251 22.024 12.608 21.9968 12.9024C21.8217 14.7974 21.1105 16.6034 19.9464 18.109C18.7823 19.6146 17.2135 20.7576 15.4236 21.4041C13.6336 22.0506 11.6966 22.174 9.83907 21.7599C7.98155 21.3457 6.28041 20.411 4.93469 19.0653C3.58898 17.7196 2.65435 16.0185 2.24016 14.1609C1.82598 12.3034 1.94938 10.3664 2.59592 8.57643C3.24246 6.78648 4.3854 5.21769 5.891 4.05361C7.3966 2.88953 9.20259 2.17832 11.0977 2.00319C11.392 1.97599 11.6749 2.12424 11.82 2.38178ZM9.69976 3.78262C8.65628 4.07792 7.67401 4.5711 6.8085 5.24029C5.52829 6.2301 4.55646 7.56403 4.00671 9.08601C3.45696 10.608 3.35203 12.2551 3.70421 13.8345C4.05639 15.4139 4.8511 16.8604 5.99535 18.0047C7.13961 19.1489 8.58608 19.9436 10.1655 20.2958C11.745 20.648 13.392 20.5431 14.914 19.9933C16.436 19.4436 17.7699 18.4717 18.7597 17.1915C19.4289 16.326 19.9221 15.3437 20.2174 14.3003C19.0195 14.8366 17.699 15.0722 16.3725 14.9732C14.4713 14.8315 12.6842 14.012 11.3361 12.6639C9.98801 11.3158 9.16856 9.52867 9.02678 7.62747C8.92786 6.30099 9.16342 4.98048 9.69976 3.78262Z" fill="black"/>
</g>
</svg>
