<svg viewBox="0 0 16 16" width="16" height="16" fill="currentColor" xmlns="http://www.w3.org/2000/svg">
 <g transform="translate(1.5, 1.5)">
  <path d="M1.03845 0.0577022C0.757921 -0.0591732 0.434586 0.00479752 0.219692 0.219692C0.00479752 0.434586 -0.0591732 0.757921 0.0577022 1.03845L4.8488 12.5385C4.96879 12.8265 5.25455 13.0101 5.56637 12.9996C5.87819 12.9891 6.15094 12.7866 6.25128 12.4912L7.56441 8.62507L11.2197 12.2803C11.5126 12.5732 11.9874 12.5732 12.2803 12.2803C12.5732 11.9874 12.5732 11.5126 12.2803 11.2197L8.62507 7.56441L12.4912 6.25128C12.7866 6.15094 12.9891 5.87819 12.9996 5.56637C13.0101 5.25455 12.8265 4.96879 12.5385 4.8488L1.03845 0.0577022ZM5.46967 10.1283L2.14274 2.14274L10.1283 5.46967L7.00086 6.53191C6.78017 6.60687 6.60687 6.78017 6.53191 7.00086L5.46967 10.1283Z" fill-rule="EVENODD"></path>
 </g>
</svg>