<svg width="16" height="16" viewBox="0 0 16 16" fill="none" xmlns="http://www.w3.org/2000/svg">
<g id="Size=16">
<path id="Union" fill-rule="evenodd" clip-rule="evenodd" d="M13.5 3.68723C13.5 3.53216 13.3603 3.4145 13.2075 3.44087L6.70749 4.56244C6.58759 4.58313 6.5 4.68713 6.5 4.8088V12.1568C6.5 13.5087 5.51726 14.6602 4.18207 14.8726L3.50404 14.9805C2.18979 15.1896 1 14.1741 1 12.8433C1 11.7794 1.77334 10.8733 2.82403 10.7062L5 10.36V4.8088C5 3.95711 5.61315 3.2291 6.45244 3.08428L12.9524 1.96271C14.0221 1.77815 15 2.60178 15 3.68723V11.1568C15 12.5087 14.0173 13.6602 12.6821 13.8726L12.004 13.9805C10.6898 14.1896 9.5 13.1741 9.5 11.8433C9.5 10.7794 10.2733 9.87331 11.324 9.70615L13.5 9.35997V3.68723ZM5 11.8788L3.05971 12.1875C2.7373 12.2388 2.5 12.5168 2.5 12.8433C2.5 13.2517 2.86509 13.5633 3.26837 13.4991L3.94639 13.3912C4.5533 13.2947 5 12.7713 5 12.1568V11.8788ZM11.5597 11.1875L13.5 10.8788V11.1568C13.5 11.7713 13.0533 12.2947 12.4464 12.3912L11.7684 12.4991C11.3651 12.5633 11 12.2517 11 11.8433C11 11.5168 11.2373 11.2388 11.5597 11.1875Z" fill="black"/>
</g>
</svg>
