<svg width="24" height="24" viewBox="0 0 24 24" fill="none" xmlns="http://www.w3.org/2000/svg">
<g id="size=24">
<path id="Vector (Stroke)" fill-rule="evenodd" clip-rule="evenodd" d="M12 2C12.3086 2 12.5857 2.18902 12.6983 2.47634L19.9483 20.9763C20.063 21.2691 19.983 21.6024 19.7477 21.811C19.5125 22.0197 19.1721 22.0595 18.8951 21.9107L12 18.2066L5.10493 21.9107C4.82793 22.0595 4.4875 22.0197 4.25228 21.811C4.01705 21.6024 3.93698 21.2691 4.05171 20.9763L11.3017 2.47634C11.4143 2.18902 11.6914 2 12 2ZM6.19297 19.6235L11.6451 16.6946C11.8667 16.5755 12.1333 16.5755 12.3549 16.6946L17.807 19.6235L12 4.80551L6.19297 19.6235Z" fill="#000001"/>
</g>
</svg>
