<svg width="24" height="24" viewBox="0 0 24 24" fill="none" xmlns="http://www.w3.org/2000/svg">
<g id="size=24">
<g id="Union">
<path d="M23 12C23 11.795 22.9161 11.599 22.7679 11.4575L17.2679 6.20748C16.9682 5.92148 16.4935 5.93252 16.2075 6.23214C15.9215 6.53177 15.9325 7.00651 16.2321 7.29252L21.1638 12L16.2321 16.7075C15.9325 16.9935 15.9215 17.4682 16.2075 17.7679C16.4935 18.0675 16.9682 18.0785 17.2679 17.7925L22.7679 12.5425C22.9161 12.401 23 12.205 23 12Z" fill="#000001"/>
<path d="M1 12C1 11.795 1.08388 11.599 1.23214 11.4575L6.73214 6.20749C7.03177 5.92148 7.50651 5.93252 7.79252 6.23214C8.07852 6.53177 8.06748 7.00651 7.76786 7.29252L2.83621 12L7.76786 16.7075C8.06748 16.9935 8.07852 17.4682 7.79252 17.7679C7.50651 18.0675 7.03177 18.0785 6.73214 17.7925L1.23214 12.5425C1.08388 12.401 1 12.205 1 12Z" fill="#000001"/>
<path d="M8 11C7.44772 11 7 11.4477 7 12C7 12.5523 7.44772 13 8 13H8.01C8.56228 13 9.01 12.5523 9.01 12C9.01 11.4477 8.56228 11 8.01 11H8Z" fill="#000001"/>
<path d="M11 12C11 11.4477 11.4477 11 12 11H12.01C12.5623 11 13.01 11.4477 13.01 12C13.01 12.5523 12.5623 13 12.01 13H12C11.4477 13 11 12.5523 11 12Z" fill="#000001"/>
<path d="M16 11C15.4477 11 15 11.4477 15 12C15 12.5523 15.4477 13 16 13H16.01C16.5623 13 17.01 12.5523 17.01 12C17.01 11.4477 16.5623 11 16.01 11H16Z" fill="#000001"/>
</g>
</g>
</svg>
