<svg width="16" height="16" viewBox="0 0 16 16" fill="none" xmlns="http://www.w3.org/2000/svg">
<g id="Size=16">
<path id="Union" fill-rule="evenodd" clip-rule="evenodd" d="M6.25 0C5.55964 0 5 0.559644 5 1.25V4.75C5 5.44036 5.55964 6 6.25 6H7V7H1C0.585786 7 0.25 7.33579 0.25 7.75C0.25 8.16421 0.585786 8.5 1 8.5H3.5V10H2.25C1.55964 10 1 10.5596 1 11.25V14.75C1 15.4404 1.55964 16 2.25 16H5.75C6.44036 16 7 15.4404 7 14.75V11.25C7 10.5596 6.44036 10 5.75 10H5V8.5H11V10H10.25C9.55964 10 9 10.5596 9 11.25V14.75C9 15.4404 9.55964 16 10.25 16H13.75C14.4404 16 15 15.4404 15 14.75V11.25C15 10.5596 14.4404 10 13.75 10H12.5V8.5H15C15.4142 8.5 15.75 8.16421 15.75 7.75C15.75 7.33579 15.4142 7 15 7H8.5V6H9.75C10.4404 6 11 5.44036 11 4.75V1.25C11 0.559644 10.4404 0 9.75 0H6.25ZM10.5 11.5V14.5H13.5V11.5H10.5ZM2.5 11.5V14.5H5.5V11.5H2.5ZM9.5 4.5V1.5H6.5V4.5H9.5Z" fill="black"/>
</g>
</svg>
