<svg width="24" height="24" viewBox="0 0 24 24" fill="none" xmlns="http://www.w3.org/2000/svg">
<g id="size=24">
<g id="Union">
<path d="M9.75 13C9.33579 13 9 13.3358 9 13.75C9 14.1642 9.33579 14.5 9.75 14.5H16.75C17.1642 14.5 17.5 14.1642 17.5 13.75C17.5 13.3358 17.1642 13 16.75 13H9.75Z" fill="black"/>
<path d="M9 16.75C9 16.3358 9.33579 16 9.75 16H13.75C14.1642 16 14.5 16.3358 14.5 16.75C14.5 17.1642 14.1642 17.5 13.75 17.5H9.75C9.33579 17.5 9 17.1642 9 16.75Z" fill="black"/>
<path fill-rule="evenodd" clip-rule="evenodd" d="M10.75 4.5C9.7835 4.5 9 5.2835 9 6.25V9.75C9 10.7165 9.7835 11.5 10.75 11.5H17.25C18.2165 11.5 19 10.7165 19 9.75V6.25C19 5.2835 18.2165 4.5 17.25 4.5H10.75ZM10.5 6.25C10.5 6.11193 10.6119 6 10.75 6H17.25C17.3881 6 17.5 6.11193 17.5 6.25V9.75C17.5 9.88807 17.3881 10 17.25 10H10.75C10.6119 10 10.5 9.88807 10.5 9.75V6.25Z" fill="black"/>
<path fill-rule="evenodd" clip-rule="evenodd" d="M19.75 23H4.25C2.73122 23 1.5 21.7688 1.5 20.25V8.25C1.5 6.73122 2.73122 5.5 4.25 5.5H5.5L5.5 3.75C5.5 2.23122 6.73122 1 8.25 1H19.75C21.2688 1 22.5 2.23122 22.5 3.75V20.25C22.5 21.7688 21.2688 23 19.75 23ZM21 3.75L21 20.25C21 20.9404 20.4404 21.5 19.75 21.5H6.70014C6.89186 21.125 7 20.7001 7 20.25L7 3.75C7 3.05965 7.55964 2.5 8.25 2.5L19.75 2.5C20.4404 2.5 21 3.05964 21 3.75ZM3 20.25C3 20.9404 3.55964 21.5 4.25 21.5C4.94036 21.5 5.5 20.9404 5.5 20.25L5.5 7H4.25C3.55965 7 3 7.55964 3 8.25L3 20.25Z" fill="black"/>
</g>
</g>
</svg>
