<svg width="16" height="16" viewBox="0 0 16 16" fill="none" xmlns="http://www.w3.org/2000/svg">
<g id="Size=16">
<path id="Vector (Stroke)" fill-rule="evenodd" clip-rule="evenodd" d="M3.92319 0.65901C4.34514 0.237053 4.91744 0 5.51418 0H10.4858C11.0826 0 11.6549 0.237053 12.0768 0.65901L15.341 3.92319C15.7629 4.34514 16 4.91744 16 5.51418V10.4858C16 11.0826 15.7629 11.6549 15.341 12.0768L12.0768 15.341C11.6549 15.7629 11.0826 16 10.4858 16H5.51418C4.91744 16 4.34514 15.7629 3.92319 15.341L0.65901 12.0768C0.237053 11.6549 0 11.0826 0 10.4858V5.51418C0 4.91744 0.237053 4.34514 0.65901 3.92319L3.92319 0.65901ZM5.51418 1.5C5.31527 1.5 5.1245 1.57902 4.98385 1.71967L1.71967 4.98385C1.57902 5.1245 1.5 5.31527 1.5 5.51418V10.4858C1.5 10.6847 1.57902 10.8755 1.71967 11.0162L4.98385 14.2803C5.1245 14.421 5.31527 14.5 5.51418 14.5H10.4858C10.6847 14.5 10.8755 14.421 11.0162 14.2803L14.2803 11.0162C14.421 10.8755 14.5 10.6847 14.5 10.4858V5.51418C14.5 5.31527 14.421 5.1245 14.2803 4.98385L11.0162 1.71967C10.8755 1.57902 10.6847 1.5 10.4858 1.5H5.51418Z" fill="black"/>
</g>
</svg>
