<svg viewBox="0 0 16 16" width="16" height="16" fill="currentColor" xmlns="http://www.w3.org/2000/svg">
 <g transform="translate(1, 1)">
  <path d="M0 2.25C0 1.00736 1.00736 0 2.25 0L8.75 0C9.99264 0 11 1.00736 11 2.25L11 4.36218L13.0506 5.81469C13.6461 6.23651 14.0001 6.92096 14.0001 7.65074L14.0001 12.7501C14.0001 13.4404 13.4404 14.0001 12.7501 14.0001L10.2501 14.0001C10.0421 14.0001 9.85396 13.9154 9.71811 13.7788C9.5833 13.6432 9.5 13.4563 9.5 13.25L9.5 2.25C9.5 1.83579 9.16421 1.5 8.75 1.5L2.25 1.5C1.83579 1.5 1.5 1.83579 1.5 2.25L1.5 13.25C1.5 13.6642 1.16421 14 0.75 14C0.335786 14 0 13.6642 0 13.25L0 2.25ZM11 12.5001L11 6.20036L12.1836 7.03872C12.3821 7.17933 12.5001 7.40748 12.5001 7.65074L12.5001 12.5001L11 12.5001Z" fill-rule="EVENODD"></path>
  <path d="M3.75005 9.5498C3.36345 9.5498 3.05005 9.8632 3.05005 10.2498L3.05005 13.2498C3.05005 13.6364 3.36345 13.9498 3.75005 13.9498C4.13665 13.9498 4.45005 13.6364 4.45005 13.2498L4.45005 10.9498L6.55005 10.9498L6.55005 13.2498C6.55005 13.6364 6.86345 13.9498 7.25005 13.9498C7.63665 13.9498 7.95005 13.6364 7.95005 13.2498L7.95005 10.2498C7.95005 9.8632 7.63665 9.5498 7.25005 9.5498L3.75005 9.5498Z" fill-rule="NONZERO"></path>
  <path d="M3.25 3.75C3.25 3.33579 3.58579 3 4 3L4.25 3C4.66421 3 5 3.33579 5 3.75C5 4.16421 4.66421 4.5 4.25 4.5L4 4.5C3.58579 4.5 3.25 4.16421 3.25 3.75Z" fill-rule="NONZERO"></path>
  <path d="M6.75 3C6.33579 3 6 3.33579 6 3.75C6 4.16421 6.33579 4.5 6.75 4.5L7 4.5C7.41421 4.5 7.75 4.16421 7.75 3.75C7.75 3.33579 7.41421 3 7 3L6.75 3Z" fill-rule="NONZERO"></path>
  <path d="M3.25 5.75C3.25 5.33579 3.58579 5 4 5L4.25 5C4.66421 5 5 5.33579 5 5.75C5 6.16421 4.66421 6.5 4.25 6.5L4 6.5C3.58579 6.5 3.25 6.16421 3.25 5.75Z" fill-rule="NONZERO"></path>
  <path d="M6.75 5C6.33579 5 6 5.33579 6 5.75C6 6.16421 6.33579 6.5 6.75 6.5L7 6.5C7.41421 6.5 7.75 6.16421 7.75 5.75C7.75 5.33579 7.41421 5 7 5L6.75 5Z" fill-rule="NONZERO"></path>
  <path d="M3.25 7.75C3.25 7.33579 3.58579 7 4 7L4.25 7C4.66421 7 5 7.33579 5 7.75C5 8.16421 4.66421 8.5 4.25 8.5L4 8.5C3.58579 8.5 3.25 8.16421 3.25 7.75Z" fill-rule="NONZERO"></path>
  <path d="M6.75 7C6.33579 7 6 7.33579 6 7.75C6 8.16421 6.33579 8.5 6.75 8.5L7 8.5C7.41421 8.5 7.75 8.16421 7.75 7.75C7.75 7.33579 7.41421 7 7 7L6.75 7Z" fill-rule="NONZERO"></path>
 </g>
</svg>