<svg width="24" height="24" viewBox="0 0 24 24" fill="none" xmlns="http://www.w3.org/2000/svg">
<g id="Size=24">
<g id="Union">
<path fill-rule="evenodd" clip-rule="evenodd" d="M2 4.75C2 3.23122 3.23122 2 4.75 2H15.25C16.7688 2 18 3.23122 18 4.75V10.2538L20.3256 11.2422C21.3408 11.6736 21.9999 12.67 21.9999 13.7731V20.2499C21.9999 21.2164 21.2164 22 20.2499 22H17.2587L17.25 22C17.1002 22 16.9606 21.9561 16.8435 21.8804C16.7582 21.8253 16.6849 21.7534 16.6281 21.6693C16.5472 21.5496 16.4999 21.4053 16.4999 21.25L16.5 21.2412V10.7687C16.4997 10.756 16.4997 10.7433 16.5 10.7305V4.75C16.5 4.05964 15.9404 3.5 15.25 3.5H4.75C4.05964 3.5 3.5 4.05964 3.5 4.75V21.25C3.5 21.6642 3.16421 22 2.75 22C2.33579 22 2 21.6642 2 21.25V4.75ZM18 20.5V11.8836L19.7389 12.6227C20.2003 12.8188 20.4999 13.2717 20.4999 13.7731V20.2499C20.4999 20.388 20.388 20.5 20.2499 20.5H18Z" fill="black"/>
<path d="M8.25 16C7.55964 16 7 16.5596 7 17.25V21.25C7 21.6642 7.33579 22 7.75 22C8.16421 22 8.5 21.6642 8.5 21.25V17.5H11.5V21.25C11.5 21.6642 11.8358 22 12.25 22C12.6642 22 13 21.6642 13 21.25V17.25C13 16.5596 12.4404 16 11.75 16H8.25Z" fill="black"/>
<path d="M7 6.75C7 6.33579 7.33579 6 7.75 6H8.25C8.66421 6 9 6.33579 9 6.75C9 7.16421 8.66421 7.5 8.25 7.5H7.75C7.33579 7.5 7 7.16421 7 6.75Z" fill="black"/>
<path d="M11.75 6C11.3358 6 11 6.33579 11 6.75C11 7.16421 11.3358 7.5 11.75 7.5H12.25C12.6642 7.5 13 7.16421 13 6.75C13 6.33579 12.6642 6 12.25 6H11.75Z" fill="black"/>
<path d="M7 9.75C7 9.33579 7.33579 9 7.75 9H8.25C8.66421 9 9 9.33579 9 9.75C9 10.1642 8.66421 10.5 8.25 10.5H7.75C7.33579 10.5 7 10.1642 7 9.75Z" fill="black"/>
<path d="M11.75 9C11.3358 9 11 9.33579 11 9.75C11 10.1642 11.3358 10.5 11.75 10.5H12.25C12.6642 10.5 13 10.1642 13 9.75C13 9.33579 12.6642 9 12.25 9H11.75Z" fill="black"/>
<path d="M7 12.75C7 12.3358 7.33579 12 7.75 12H8.25C8.66421 12 9 12.3358 9 12.75C9 13.1642 8.66421 13.5 8.25 13.5H7.75C7.33579 13.5 7 13.1642 7 12.75Z" fill="black"/>
<path d="M11.75 12C11.3358 12 11 12.3358 11 12.75C11 13.1642 11.3358 13.5 11.75 13.5H12.25C12.6642 13.5 13 13.1642 13 12.75C13 12.3358 12.6642 12 12.25 12H11.75Z" fill="black"/>
</g>
</g>
</svg>
