<svg width="16" height="16" viewBox="0 0 16 16" fill="none" xmlns="http://www.w3.org/2000/svg">
<g id="Size=16">
<g id="Union">
<path d="M6.5 7.25C6.5 6.83579 6.83579 6.5 7.25 6.5H11.25C11.6642 6.5 12 6.83579 12 7.25C12 7.66421 11.6642 8 11.25 8H7.25C6.83579 8 6.5 7.66421 6.5 7.25Z" fill="black"/>
<path d="M4.75 3.5C4.33579 3.5 4 3.83579 4 4.25C4 4.66421 4.33579 5 4.75 5H4.76C5.17421 5 5.51 4.66421 5.51 4.25C5.51 3.83579 5.17421 3.5 4.76 3.5H4.75Z" fill="black"/>
<path d="M4 7.25C4 6.83579 4.33579 6.5 4.75 6.5H4.76C5.17421 6.5 5.51 6.83579 5.51 7.25C5.51 7.66421 5.17421 8 4.76 8H4.75C4.33579 8 4 7.66421 4 7.25Z" fill="black"/>
<path d="M4.75 9.5C4.33579 9.5 4 9.83579 4 10.25C4 10.6642 4.33579 11 4.75 11H4.76C5.17421 11 5.51 10.6642 5.51 10.25C5.51 9.83579 5.17421 9.5 4.76 9.5H4.75Z" fill="black"/>
<path d="M6.5 4.25C6.5 3.83579 6.83579 3.5 7.25 3.5H9.75C10.1642 3.5 10.5 3.83579 10.5 4.25C10.5 4.66421 10.1642 5 9.75 5H7.25C6.83579 5 6.5 4.66421 6.5 4.25Z" fill="black"/>
<path d="M7.25 9.5C6.83579 9.5 6.5 9.83579 6.5 10.25C6.5 10.6642 6.83579 11 7.25 11H10.25C10.6642 11 11 10.6642 11 10.25C11 9.83579 10.6642 9.5 10.25 9.5H7.25Z" fill="black"/>
<path fill-rule="evenodd" clip-rule="evenodd" d="M1 2.25C1 1.00736 2.00736 0 3.25 0H12.75C13.9926 0 15 1.00736 15 2.25V13.75C15 14.9926 13.9926 16 12.75 16H3.25C2.00736 16 1 14.9926 1 13.75V2.25ZM3.25 1.5C2.83579 1.5 2.5 1.83579 2.5 2.25V13.75C2.5 14.1642 2.83579 14.5 3.25 14.5H12.75C13.1642 14.5 13.5 14.1642 13.5 13.75V2.25C13.5 1.83579 13.1642 1.5 12.75 1.5H3.25Z" fill="black"/>
</g>
</g>
</svg>
