<svg width="24" height="24" viewBox="0 0 24 24" fill="none" xmlns="http://www.w3.org/2000/svg">
<g id="Size=24">
<path id="Union" fill-rule="evenodd" clip-rule="evenodd" d="M10.7943 0.753729C11.5553 0.382547 12.4447 0.382546 13.2057 0.753728L22.0172 5.05206C22.6185 5.34538 23 5.95587 23 6.6249V16.5274C23 17.5594 22.4222 18.5045 21.5037 18.975L13.2537 23.2006C12.4665 23.6038 11.5335 23.6038 10.7463 23.2006L2.49634 18.975C1.57781 18.5045 1 17.5594 1 16.5274V6.6249C1 5.95587 1.38145 5.34538 1.98276 5.05206L10.7943 0.753729ZM12.548 2.10188C12.2022 1.93316 11.7978 1.93316 11.452 2.10188L8.6321 3.47743L17.1367 7.72972L20.6571 6.05752L12.548 2.10188ZM15.4166 8.54674L6.93435 4.3056L3.34295 6.0575L12.0001 10.1696L15.4166 8.54674ZM2.5 16.5274V7.31772L11.25 11.474V21.7733L3.18015 17.6399C2.76264 17.4261 2.5 16.9965 2.5 16.5274ZM20.8198 17.6399L12.75 21.7733V11.474L21.5 7.31777V16.5274C21.5 16.9965 21.2374 17.4261 20.8198 17.6399Z" fill="black"/>
</g>
</svg>
