<svg width="16" height="16" viewBox="0 0 16 16" fill="none" xmlns="http://www.w3.org/2000/svg">
<g id="Size=16">
<path id="Union" fill-rule="evenodd" clip-rule="evenodd" d="M9.02079 0.677988C8.37943 0.351478 7.62057 0.351478 6.97921 0.677988L1.6829 3.3743C1.26387 3.58762 1 4.01804 1 4.48825V11.2051C1 11.8633 1.36941 12.4659 1.95605 12.7646L6.97921 15.3218C7.62057 15.6483 8.37943 15.6483 9.02079 15.3218L14.0439 12.7646C14.6306 12.4659 15 11.8633 15 11.2051V4.48825C15 4.01805 14.7361 3.58762 14.3171 3.3743L9.02079 0.677988ZM7.65974 2.01473C7.87352 1.9059 8.12648 1.9059 8.34026 2.01473L12.7762 4.27305L11.308 5.00717L6.50285 2.60369L7.65974 2.01473ZM4.84109 3.44968L3.2238 4.27303L8.00004 6.66115L9.63113 5.8456L4.84109 3.44968ZM2.5 5.58818V11.2051C2.5 11.2991 2.55277 11.3852 2.63658 11.4278L7.25 13.7765V7.96318L2.5 5.58818ZM13.3634 11.4278L8.75 13.7765V7.96322L13.5 5.58822V11.2051C13.5 11.2991 13.4472 11.3852 13.3634 11.4278Z" fill="black"/>
</g>
</svg>
