<svg width="24" height="24" viewBox="0 0 24 24" fill="none" xmlns="http://www.w3.org/2000/svg">
<g id="Size=24">
<path id="Union" fill-rule="evenodd" clip-rule="evenodd" d="M1.92317 1.02028C1.66996 0.960194 1.4037 1.03567 1.21968 1.21968C1.03567 1.4037 0.960194 1.66996 1.02028 1.92317L4.52028 16.6732C4.58834 16.96 4.81809 17.1803 5.1075 17.2363L11.6179 18.4964L11.4697 18.6447C11.1768 18.9376 11.1768 19.4124 11.4697 19.7053L14.5447 22.7803C14.6853 22.921 14.8761 23 15.075 23C15.2739 23 15.4647 22.921 15.6053 22.7803L22.7803 15.6053C22.921 15.4647 23 15.2739 23 15.075C23 14.8761 22.921 14.6853 22.7803 14.5447L19.7053 11.4697C19.4124 11.1768 18.9376 11.1768 18.6447 11.4697L18.4964 11.6179L17.2363 5.1075C17.1803 4.81809 16.96 4.58834 16.6732 4.52028L1.92317 1.02028ZM17.2163 12.898L15.8557 5.86795L4.1513 3.09064L9.47602 8.41536C9.92266 8.15145 10.4436 8 11 8C12.6569 8 14 9.34315 14 11C14 12.6569 12.6569 14 11 14C9.34315 14 8 12.6569 8 11C8 10.4436 8.15145 9.92266 8.41536 9.47602L3.09064 4.1513L5.86795 15.8557L12.898 17.2163L17.2163 12.898ZM13.0607 19.175L19.175 13.0607L21.1893 15.075L15.075 21.1893L13.0607 19.175ZM9.5 11C9.5 10.1716 10.1716 9.5 11 9.5C11.8284 9.5 12.5 10.1716 12.5 11C12.5 11.8284 11.8284 12.5 11 12.5C10.1716 12.5 9.5 11.8284 9.5 11Z" fill="black"/>
</g>
</svg>
