<svg width="16" height="16" viewBox="0 0 16 16" fill="none" xmlns="http://www.w3.org/2000/svg">
<g id="size=16" clip-path="url(#clip0)">
<path id="Union" fill-rule="evenodd" clip-rule="evenodd" d="M0.923173 0.0202778C0.669962 -0.039806 0.403704 0.0356663 0.219685 0.219685C0.0356663 0.403704 -0.039806 0.669962 0.0202778 0.923173L2.49589 11.3561C2.56394 11.6429 2.7937 11.8633 3.08311 11.9193L7.32829 12.7409C7.18867 13.0216 7.2358 13.3715 7.46967 13.6053L9.64467 15.7803C9.78532 15.921 9.97609 16 10.175 16C10.3739 16 10.5647 15.921 10.7053 15.7803L15.7803 10.7053C15.921 10.5647 16 10.3739 16 10.175C16 9.97609 15.921 9.78532 15.7803 9.64467L13.6053 7.46967C13.3715 7.2358 13.0216 7.18867 12.7409 7.32829L11.9193 3.08311C11.8633 2.7937 11.6429 2.56394 11.3561 2.49589L0.923173 0.0202778ZM11.4519 8.5624L10.5386 3.84356L3.1513 2.09064L6.23111 5.17045C6.52484 5.02989 6.85381 4.95117 7.20117 4.95117C8.44381 4.95117 9.45117 5.95853 9.45117 7.20117C9.45117 8.44381 8.44381 9.45117 7.20117 9.45117C5.95853 9.45117 4.95117 8.44381 4.95117 7.20117C4.95117 6.85381 5.02989 6.52484 5.17045 6.23111L2.09064 3.1513L3.84356 10.5386L8.5624 11.4519L11.4519 8.5624ZM9.06066 13.075L13.075 9.06066L14.1893 10.175L10.175 14.1893L9.06066 13.075ZM6.45117 7.20117C6.45117 6.78696 6.78696 6.45117 7.20117 6.45117C7.61539 6.45117 7.95117 6.78696 7.95117 7.20117C7.95117 7.61539 7.61539 7.95117 7.20117 7.95117C6.78696 7.95117 6.45117 7.61539 6.45117 7.20117Z" fill="#000001"/>
</g>
<defs>
<clipPath id="clip0">
<rect width="16" height="16" fill="white"/>
</clipPath>
</defs>
</svg>
