<svg width="24" height="24" viewBox="0 0 24 24" fill="none" xmlns="http://www.w3.org/2000/svg">
<g id="size=24">
<path id="Union" fill-rule="evenodd" clip-rule="evenodd" d="M18.9446 4.88407C17.8706 3.81013 16.1294 3.81013 15.0555 4.88407L6.05025 13.8893C5.59538 14.3442 5.23765 14.8867 4.99874 15.484L3.30366 19.7216C3.19224 20.0002 3.25754 20.3184 3.46969 20.5305C3.68184 20.7427 4 20.808 4.27856 20.6965L8.51626 19.0015C9.11352 18.7626 9.65604 18.4048 10.1109 17.95L19.1161 8.94473C20.1901 7.87079 20.1901 6.12958 19.1161 5.05564L18.9446 4.88407ZM16.1161 5.94473C16.6043 5.45657 17.3958 5.45657 17.8839 5.94473L18.0555 6.1163C18.5436 6.60446 18.5436 7.39591 18.0555 7.88407L17.5001 8.43944L15.5608 6.5001L16.1161 5.94473ZM14.5001 7.56076L7.11091 14.95C6.79968 15.2612 6.55492 15.6324 6.39146 16.041L5.34631 18.6539L7.95917 17.6088C8.36783 17.4453 8.73902 17.2005 9.05025 16.8893L16.4394 9.5001L14.5001 7.56076Z" fill="black"/>
</g>
</svg>
