<svg width="16" height="16" viewBox="0 0 16 16" fill="none" xmlns="http://www.w3.org/2000/svg">
<g id="size=16" clip-path="url(#clip0)">
<g id="Union">
<path fill-rule="evenodd" clip-rule="evenodd" d="M5.84741 0.53276C5.44213 0.184908 4.92453 -0.0041947 4.39059 7.06095e-05L2.20603 8.88485e-05C1.8997 0.000376799 1.59674 0.0643179 1.31643 0.187887C1.03612 0.311458 0.78455 0.491975 0.577789 0.718029C0.371023 0.944087 0.213606 1.21073 0.115644 1.50101C0.0177215 1.79117 -0.0188041 2.09863 0.008835 2.40388L0.0100814 2.41559C0.261879 4.78202 1.06867 7.05589 2.36498 9.05299C3.65497 11.0403 4.97954 12.3576 6.9609 13.64C8.95265 14.9291 11.2195 15.734 13.5793 15.9899L13.5928 15.9911C13.8988 16.0187 14.2073 15.9822 14.4984 15.8839C14.7896 15.7857 15.057 15.6278 15.2837 15.4203C15.5103 15.2128 15.6911 14.9602 15.8144 14.6787C15.9377 14.3973 16.0008 14.0931 15.9996 13.7858L15.9992 13.711C15.9975 13.3279 15.9914 11.9402 15.9993 11.6246C16.0127 11.0834 15.8263 10.5565 15.476 10.1439C15.1257 9.73124 14.636 9.46177 14.1001 9.38631L14.0934 9.38543C13.4496 9.30069 12.8174 9.14355 12.2091 8.91702C11.8144 8.76924 11.3857 8.73734 10.9735 8.82507C10.5609 8.9129 10.182 9.11695 9.88171 9.4133L9.36744 9.92655C8.03627 9.07696 6.90583 7.94899 6.05436 6.62093L6.56404 6.11227L6.56699 6.10929C6.86394 5.80959 7.06874 5.43105 7.15691 5.01844C7.245 4.60622 7.21294 4.17746 7.06459 3.78292C6.83772 3.17601 6.68039 2.54546 6.59552 1.90328L6.59455 1.89638C6.51945 1.36612 6.25376 0.881525 5.84741 0.53276ZM4.40126 1.50003C4.57351 1.49834 4.74023 1.55922 4.87047 1.67099C4.99995 1.78213 5.08449 1.93595 5.10897 2.10392C5.20883 2.85724 5.39362 3.59689 5.6598 4.3088L5.66043 4.3105C5.70789 4.43651 5.71815 4.57339 5.69003 4.70498C5.66203 4.83601 5.5971 4.95652 5.50268 5.05229L4.5785 5.97465C4.33917 6.21351 4.28926 6.58298 4.45665 6.87678C5.5614 8.81581 7.16997 10.4211 9.11248 11.5235C9.40567 11.6899 9.77384 11.6402 10.0125 11.402L10.9354 10.4809L10.9366 10.4797C11.0326 10.3854 11.1537 10.3203 11.2858 10.2922C11.4185 10.264 11.5565 10.2743 11.6834 10.3219L11.6851 10.3225C12.3982 10.5881 13.1391 10.7725 13.8937 10.8721C14.065 10.8969 14.221 10.9833 14.3326 11.1146C14.4447 11.2467 14.504 11.4149 14.4997 11.5874C14.4912 11.9293 14.4976 13.3494 14.4993 13.721L14.4996 13.7919C14.5 13.8899 14.4799 13.987 14.4405 14.0768C14.4011 14.1667 14.3433 14.2475 14.2707 14.314C14.1981 14.3804 14.1123 14.4311 14.0188 14.4627C13.927 14.4937 13.8298 14.5056 13.7332 14.4976C11.609 14.2661 9.56868 13.541 7.77592 12.3807C5.97056 11.2123 4.79743 10.0454 3.62317 8.2363C2.45649 6.43893 1.73003 4.39292 1.50239 2.26372C1.49441 2.16815 1.50612 2.07184 1.53689 1.98064C1.56816 1.888 1.61844 1.80277 1.68463 1.7304C1.75082 1.65804 1.83147 1.60013 1.9215 1.56044C2.01144 1.52079 2.10902 1.50022 2.20744 1.50009L4.3939 1.50011L4.40126 1.50003ZM7.06459 3.78292C7.06445 3.78254 7.06431 3.78216 7.06416 3.78179L6.36231 4.04614L7.06459 3.78292C7.06452 3.78273 7.06466 3.78311 7.06459 3.78292Z" fill="#000001"/>
<path d="M10.3328 0.00465176C9.92115 -0.0410827 9.55034 0.255576 9.5046 0.667257C9.45887 1.07894 9.75553 1.44975 10.1672 1.49548C11.2744 1.61848 12.3068 2.11428 13.095 2.90149C13.8832 3.6887 14.3803 4.72051 14.5047 5.82752C14.551 6.23915 14.9221 6.53534 15.3338 6.48909C15.7454 6.44283 16.0416 6.07165 15.9953 5.66003C15.8329 4.21485 15.184 2.86784 14.155 1.84016C13.126 0.812484 11.7782 0.165222 10.3328 0.00465176Z" fill="#000001"/>
<path d="M10.3936 2.52967C9.98709 2.45035 9.59322 2.71562 9.5139 3.12217C9.43458 3.52872 9.69985 3.92259 10.1064 4.00191C10.5742 4.09318 11.0041 4.32196 11.3411 4.65897C11.6781 4.99599 11.9069 5.4259 11.9982 5.89369C12.0775 6.30024 12.4714 6.56551 12.8779 6.48619C13.2845 6.40687 13.5497 6.01299 13.4704 5.60645C13.322 4.84564 12.9499 4.14643 12.4018 3.59831C11.8537 3.0502 11.1544 2.67811 10.3936 2.52967Z" fill="#000001"/>
</g>
</g>
<defs>
<clipPath id="clip0">
<rect width="16" height="16" fill="white"/>
</clipPath>
</defs>
</svg>
