<svg width="16" height="16" viewBox="0 0 16 16" fill="none" xmlns="http://www.w3.org/2000/svg">
<g id="size=16" clip-path="url(#clip0)">
<path id="Vector (Stroke)" fill-rule="evenodd" clip-rule="evenodd" d="M4.87051 1.67099C4.74027 1.55922 4.57355 1.49834 4.4013 1.50003L4.39394 1.50011L2.20748 1.50009C2.20738 1.50009 2.20758 1.50009 2.20748 1.50009C2.10906 1.50022 2.01147 1.52079 1.92154 1.56044C1.83151 1.60013 1.75086 1.65804 1.68467 1.7304C1.61848 1.80277 1.5682 1.888 1.53693 1.98064C1.50615 2.07184 1.49445 2.16815 1.50243 2.26372C1.73007 4.39292 2.45653 6.43893 3.6232 8.2363C4.79747 10.0454 5.9706 11.2123 7.77596 12.3807C9.56872 13.541 11.609 14.2661 13.7332 14.4976C13.8298 14.5056 13.927 14.4937 14.0188 14.4627C14.1123 14.4311 14.1981 14.3804 14.2708 14.314C14.3434 14.2475 14.4012 14.1667 14.4405 14.0768C14.4799 13.987 14.5 13.8899 14.4996 13.7919C14.4996 13.7769 14.4994 13.7528 14.4993 13.7211C14.4976 13.3497 14.4913 11.9293 14.4998 11.5874C14.5041 11.4149 14.4447 11.2467 14.3326 11.1146C14.2211 10.9833 14.065 10.8969 13.8937 10.8721C13.1392 10.7725 12.3983 10.5881 11.6851 10.3225L11.6835 10.3219C11.5565 10.2743 11.4185 10.264 11.2858 10.2922C11.1538 10.3203 11.0326 10.3854 10.9367 10.4797C10.9362 10.4801 10.9358 10.4805 10.9354 10.4809L10.0125 11.402C9.77388 11.6402 9.40571 11.6899 9.11252 11.5235C7.17001 10.4211 5.56144 8.81581 4.45669 6.87678C4.2893 6.58298 4.3392 6.21351 4.57854 5.97465L5.50272 5.05229C5.59714 4.95652 5.66207 4.83601 5.69007 4.70498C5.71819 4.57339 5.70793 4.43651 5.66047 4.3105L5.65983 4.3088C5.39366 3.59689 5.20887 2.85724 5.109 2.10392C5.08453 1.93595 4.99999 1.78213 4.87051 1.67099ZM4.39063 7.06095e-05C4.92457 -0.0041947 5.44217 0.184908 5.84745 0.53276C6.2538 0.881525 6.51949 1.36612 6.59458 1.89638L6.59556 1.90328C6.68045 2.54565 6.83786 3.1764 7.06484 3.78348L6.36235 4.04614L7.0642 3.78179C7.21292 4.17664 7.24512 4.60582 7.15695 5.01844C7.06878 5.43105 6.86398 5.80959 6.56703 6.10929L6.56408 6.11227L6.05439 6.62093C6.90586 7.94899 8.03631 9.07696 9.36747 9.92655L9.88175 9.4133C10.182 9.11695 10.561 8.9129 10.9736 8.82507C11.3857 8.73734 11.8145 8.76924 12.2091 8.91702C12.8175 9.14355 13.4496 9.30069 14.0934 9.38543L14.1001 9.38631C14.636 9.46177 15.1258 9.73124 15.4761 10.1439C15.8264 10.5565 16.0128 11.0834 15.9993 11.6246C15.9915 11.9402 15.9976 13.3279 15.9993 13.711C15.9994 13.7437 15.9995 13.7691 15.9996 13.7858C16.0009 14.0931 15.9378 14.3973 15.8145 14.6787C15.6912 14.9602 15.5103 15.2128 15.2837 15.4203C15.0571 15.6278 14.7896 15.7857 14.4985 15.8839C14.2074 15.9822 13.8989 16.0187 13.5928 15.9911L13.5793 15.9899C11.2195 15.734 8.95269 14.9291 6.96094 13.64C4.97958 12.3576 3.655 11.0403 2.36502 9.05299C1.06871 7.05589 0.261917 4.78203 0.0101195 2.41559L0.00887315 2.40388C-0.018766 2.09863 0.0177596 1.79117 0.115683 1.50101C0.213645 1.21073 0.371062 0.944087 0.577827 0.718029C0.784588 0.491975 1.03616 0.311458 1.31647 0.187887C1.59678 0.0643179 1.89974 0.000376799 2.20607 8.88485e-05L4.39063 7.06095e-05Z" fill="#000001"/>
</g>
<defs>
<clipPath id="clip0">
<rect width="16" height="16" fill="white"/>
</clipPath>
</defs>
</svg>
