<svg width="24" height="24" viewBox="0 0 24 24" fill="none" xmlns="http://www.w3.org/2000/svg">
<g id="Size=24" clip-path="url(#clip0)">
<g id="Union">
<path d="M14.8328 0.00465176C14.4211 -0.0410827 14.0503 0.255576 14.0046 0.667257C13.9589 1.07894 14.2555 1.44975 14.6672 1.49548C16.6678 1.71773 18.5333 2.61361 19.9575 4.03602C21.3817 5.45844 22.2799 7.32284 22.5047 9.32312C22.551 9.73474 22.9221 10.0309 23.3338 9.98468C23.7454 9.93843 24.0416 9.56725 23.9953 9.15563C23.7326 6.81718 22.6825 4.63758 21.0175 2.97469C19.3525 1.31181 17.1716 0.264471 14.8328 0.00465176Z" fill="black"/>
<path d="M14.8936 4.29068C14.4871 4.21136 14.0932 4.47663 14.0139 4.88318C13.9346 5.28972 14.1999 5.6836 14.6064 5.76292C15.5042 5.93808 16.3293 6.37717 16.9761 7.02397C17.6229 7.67078 18.062 8.49589 18.2372 9.39369C18.3165 9.80023 18.7104 10.0655 19.1169 9.98619C19.5235 9.90687 19.7887 9.51299 19.7094 9.10645C19.4771 7.91563 18.8947 6.82123 18.0368 5.96332C17.1789 5.1054 16.0845 4.52301 14.8936 4.29068Z" fill="black"/>
<path fill-rule="evenodd" clip-rule="evenodd" d="M8.75458 1.67836C8.23826 1.23521 7.57871 0.994372 6.89832 1.0001L3.80884 1.00013C3.41874 1.00049 3.03295 1.08192 2.67602 1.23926C2.31909 1.39661 1.99878 1.62646 1.73555 1.91426C1.47231 2.20206 1.27192 2.5415 1.14722 2.911C1.02256 3.2804 0.976104 3.67174 1.01128 4.06025L1.01253 4.07197C1.36335 7.36904 2.48742 10.5372 4.29359 13.3197C6.09341 16.0925 7.93475 17.9238 10.6996 19.7132C13.4748 21.5094 16.6333 22.6309 19.9215 22.9874L19.935 22.9887C20.3247 23.0238 20.7175 22.9773 21.0882 22.8522C21.459 22.7271 21.7995 22.526 22.0881 22.2618C22.3766 21.9976 22.6068 21.6761 22.7637 21.3178C22.9207 20.9595 23.001 20.5724 22.9994 20.1812L22.9989 20.0764C22.9966 19.5374 22.9879 17.5685 22.9991 17.1168C23.0162 16.4279 22.779 15.7571 22.333 15.2318C21.887 14.7065 21.2635 14.3634 20.581 14.2673L20.5743 14.2664C19.641 14.1436 18.7246 13.9158 17.8426 13.5874C17.3399 13.399 16.7937 13.3583 16.2686 13.47C15.7432 13.5819 15.2607 13.8417 14.8784 14.219L13.9777 15.1179C11.8948 13.8345 10.1406 12.084 8.8545 10.0058L9.75063 9.11147L9.75358 9.10849C10.1316 8.72693 10.3923 8.24504 10.5046 7.71984C10.6167 7.195 10.5759 6.64909 10.3869 6.14677C10.0579 5.26672 9.82976 4.35237 9.7067 3.42117L9.70572 3.41426C9.61013 2.73932 9.27193 2.12241 8.75458 1.67836ZM6.9091 2.50006C7.22776 2.49693 7.53639 2.60954 7.77763 2.8166C8.01806 3.02295 8.17509 3.309 8.2201 3.62155C8.35816 4.66402 8.6138 5.68757 8.98214 6.67272L8.98278 6.67442C9.07083 6.90819 9.08987 7.16219 9.03769 7.40637C8.98564 7.64997 8.86483 7.87381 8.68934 8.05142L7.38195 9.35624C7.14262 9.5951 7.09272 9.96457 7.2601 10.2584C8.79431 12.9512 11.0282 15.1806 13.726 16.7115C14.0192 16.8779 14.3874 16.8283 14.626 16.5901L15.932 15.2866L15.9335 15.2852C16.1114 15.1101 16.336 14.9893 16.5809 14.9372C16.8264 14.8849 17.0817 14.904 17.3166 14.9921L17.3183 14.9927C18.3052 15.3603 19.3305 15.6153 20.3747 15.7531C20.6925 15.7985 20.9824 15.9586 21.1895 16.2026C21.3973 16.4474 21.5075 16.7594 21.4996 17.0795C21.4877 17.5575 21.4966 19.559 21.499 20.0864L21.4994 20.1873C21.5002 20.3692 21.4628 20.5492 21.3898 20.7159C21.3168 20.8826 21.2096 21.0324 21.0751 21.1555C20.9406 21.2787 20.7817 21.3725 20.6085 21.431C20.4373 21.4888 20.2559 21.5107 20.0758 21.4953C17.0231 21.163 14.0909 20.1214 11.5146 18.454C8.92577 16.7785 7.23587 15.0976 5.55177 12.5031C3.87518 9.92012 2.83142 6.9797 2.5048 3.91972C2.48935 3.74102 2.511 3.56095 2.56847 3.39064C2.62647 3.21877 2.71973 3.06074 2.84239 2.92663C2.96505 2.79252 3.11444 2.68528 3.28109 2.61182C3.44766 2.53839 3.62805 2.50034 3.81025 2.50012L6.90174 2.50014L6.9091 2.50006ZM10.3869 6.14677C10.3868 6.14641 10.3866 6.14606 10.3865 6.14571L9.68465 6.41006L10.3869 6.14677C10.3868 6.14656 10.387 6.14698 10.3869 6.14677Z" fill="black"/>
</g>
</g>
<defs>
<clipPath id="clip0">
<rect width="24" height="24" fill="white"/>
</clipPath>
</defs>
</svg>
