<svg width="16" height="16" viewBox="0 0 16 16" fill="none" xmlns="http://www.w3.org/2000/svg">
<g id="size=16">
<g id="Union">
<path fill-rule="evenodd" clip-rule="evenodd" d="M5.84746 0.532753C5.44218 0.184906 4.92459 -0.00419464 4.39065 7.06086e-05L2.20613 8.88474e-05C1.8998 0.000376794 1.59684 0.064317 1.31654 0.187885C1.03623 0.311454 0.784662 0.491968 0.577903 0.718019C0.371141 0.944075 0.213726 1.21071 0.115765 1.50099C0.0178433 1.79115 -0.0186818 2.0986 0.00895696 2.40385L0.0102033 2.41556C0.261998 4.78196 1.06878 7.0558 2.36508 9.05287C3.65504 11.0402 4.9796 12.3575 6.96094 13.6398C8.95266 14.9289 11.2195 15.7338 13.5792 15.9897L13.5927 15.9909C13.8988 16.0185 14.2073 15.982 14.4984 15.8837C14.7895 15.7855 15.057 15.6276 15.2836 15.4201C15.5102 15.2126 15.691 14.96 15.8143 14.6786C15.9377 14.3971 16.0007 14.093 15.9995 13.7857L15.9992 13.7108C15.9975 13.3277 15.9913 11.9401 15.9992 11.6245C16.0126 11.0833 15.8262 10.5563 15.476 10.1437C15.1257 9.73111 14.6359 9.46165 14.1 9.38619L14.0933 9.38531C13.4495 9.30057 12.8174 9.14343 12.209 8.9169C11.8144 8.76912 11.3857 8.73723 10.9735 8.82496C10.5609 8.91278 10.182 9.11684 9.88171 9.41317L9.36744 9.92643C8.03629 9.07684 6.90586 7.94889 6.0544 6.62084L6.56408 6.11219L6.56702 6.10921C6.86397 5.80952 7.06877 5.43098 7.15694 5.01838C7.24503 4.60616 7.21297 4.1774 7.06462 3.78287C6.83775 3.17597 6.68042 2.54542 6.59556 1.90326L6.59458 1.89635C6.51949 1.3661 6.2538 0.881514 5.84746 0.532753ZM4.40133 1.50001C4.57358 1.49832 4.7403 1.55919 4.87053 1.67097C5 1.7821 5.08454 1.93593 5.10902 2.10389C5.20889 2.85721 5.39367 3.59684 5.65984 4.30875L5.66048 4.31044C5.70794 4.43645 5.7182 4.57333 5.69008 4.70492C5.66208 4.83595 5.59715 4.95646 5.50273 5.05222L4.57856 5.97457C4.33923 6.21343 4.28933 6.5829 4.45671 6.87669C5.56145 8.8157 7.17 10.421 9.11248 11.5233C9.40567 11.6897 9.77384 11.64 10.0124 11.4019L10.9354 10.4808L10.9366 10.4796C11.0326 10.3853 11.1537 10.3202 11.2858 10.2921C11.4185 10.2638 11.5565 10.2742 11.6834 10.3218L11.6851 10.3224C12.3982 10.588 13.1391 10.7723 13.8936 10.8719C14.0649 10.8967 14.221 10.9831 14.3325 11.1145C14.4446 11.2466 14.504 11.4148 14.4997 11.5872C14.4912 11.9292 14.4975 13.3492 14.4992 13.7208L14.4995 13.7918C14.4999 13.8897 14.4798 13.9868 14.4404 14.0766C14.4011 14.1665 14.3433 14.2473 14.2707 14.3138C14.198 14.3803 14.1122 14.431 14.0187 14.4625C13.9269 14.4935 13.8297 14.5054 13.7331 14.4975C11.6089 14.2659 9.56868 13.5408 7.77594 12.3806C5.97061 11.2121 4.79749 10.0452 3.62324 8.2362C2.45658 6.43885 1.73013 4.39287 1.50249 2.26369C1.49451 2.16812 1.50622 2.07182 1.537 1.98062C1.56826 1.88798 1.61854 1.80274 1.68473 1.73038C1.75092 1.65802 1.83157 1.6001 1.9216 1.56042C2.01153 1.52077 2.10912 1.5002 2.20754 1.50007L4.39397 1.50009L4.40133 1.50001ZM7.06462 3.78287C7.06448 3.78249 7.06434 3.78212 7.06419 3.78174L6.36235 4.04608L7.06462 3.78287C7.06455 3.78268 7.06469 3.78306 7.06462 3.78287Z" fill="#000001"/>
<path d="M10.3328 0.0046517C9.92114 -0.0410822 9.55034 0.255572 9.5046 0.667248C9.45887 1.07892 9.75552 1.44973 10.1672 1.49546C11.2744 1.61846 12.3068 2.11426 13.095 2.90145C13.8832 3.68865 14.3803 4.72045 14.5046 5.82745C14.5509 6.23907 14.9221 6.53525 15.3337 6.489C15.7453 6.44275 16.0415 6.07157 15.9952 5.65996C15.8329 4.2148 15.1839 2.8678 14.1549 1.84014C13.126 0.812473 11.7782 0.16522 10.3328 0.0046517Z" fill="#000001"/>
<path d="M10.3936 2.52964C9.98708 2.45032 9.59322 2.71559 9.5139 3.12213C9.43458 3.52867 9.69985 3.92254 10.1064 4.00186C10.5742 4.09312 11.0041 4.3219 11.3411 4.65891C11.6781 4.99592 11.9069 5.42583 11.9981 5.89361C12.0775 6.30015 12.4713 6.56542 12.8779 6.4861C13.2844 6.40678 13.5497 6.01292 13.4704 5.60637C13.3219 4.84557 12.9498 4.14637 12.4017 3.59827C11.8536 3.05016 11.1544 2.67807 10.3936 2.52964Z" fill="#000001"/>
</g>
</g>
</svg>
