<svg width="16" height="16" viewBox="0 0 16 16" fill="none" xmlns="http://www.w3.org/2000/svg">
<g id="size=16">
<g id="Union">
<path fill-rule="evenodd" clip-rule="evenodd" d="M7.74997 0.0498042C7.56432 0.0498042 7.38627 0.123553 7.255 0.254827C7.12372 0.386101 7.04998 0.564147 7.04998 0.749797V8.24972C7.04998 8.63631 7.36337 8.94971 7.74997 8.94971H15.2499C15.6365 8.94971 15.9499 8.63631 15.9499 8.24972C15.9499 7.17289 15.7378 6.10661 15.3257 5.11175C14.9136 4.11689 14.3096 3.21294 13.5482 2.4515C12.7868 1.69007 11.8828 1.08607 10.8879 0.673986C9.89308 0.261901 8.8268 0.0498042 7.74997 0.0498042ZM8.44996 7.54973V1.48591C9.10276 1.55347 9.74359 1.71531 10.3522 1.9674C11.1772 2.30913 11.9268 2.81001 12.5582 3.44144C13.1897 4.07287 13.6906 4.82249 14.0323 5.6475C14.2844 6.2561 14.4462 6.89693 14.5138 7.54973H8.44996Z" fill="#000001"/>
<path d="M5.11802 2.17215C5.48916 1.98824 5.64093 1.53827 5.45701 1.16714C5.27309 0.795998 4.82313 0.644228 4.45199 0.828147C1.81532 2.13477 0 4.85474 0 8.00008C0 12.4183 3.58168 16 7.99992 16C11.1453 16 13.8652 14.1847 15.1719 11.548C15.3558 11.1769 15.204 10.7269 14.8329 10.543C14.4617 10.3591 14.0118 10.5108 13.8278 10.882C12.7646 13.0276 10.5535 14.5 7.99992 14.5C4.4101 14.5 1.49998 11.5899 1.49998 8.00008C1.49998 5.44648 2.97244 3.23541 5.11802 2.17215Z" fill="#000001"/>
</g>
</g>
</svg>
