<svg width="24" height="24" viewBox="0 0 24 24" fill="none" xmlns="http://www.w3.org/2000/svg">
<g id="size=24">
<g id="Union">
<path d="M11.75 6.75C12.1642 6.75 12.5 7.08579 12.5 7.5V11H16C16.4142 11 16.75 11.3358 16.75 11.75C16.75 12.1642 16.4142 12.5 16 12.5H12.5V16C12.5 16.4142 12.1642 16.75 11.75 16.75C11.3358 16.75 11 16.4142 11 16V12.5H7.5C7.08579 12.5 6.75 12.1642 6.75 11.75C6.75 11.3358 7.08579 11 7.5 11H11V7.5C11 7.08579 11.3358 6.75 11.75 6.75Z" fill="#000001"/>
<path fill-rule="evenodd" clip-rule="evenodd" d="M1 11.75C1 5.81294 5.81294 1 11.75 1C17.6871 1 22.5 5.81294 22.5 11.75C22.5 17.6871 17.6871 22.5 11.75 22.5C5.81294 22.5 1 17.6871 1 11.75ZM11.75 2.5C6.64137 2.5 2.5 6.64137 2.5 11.75C2.5 16.8586 6.64137 21 11.75 21C16.8586 21 21 16.8586 21 11.75C21 6.64137 16.8586 2.5 11.75 2.5Z" fill="#000001"/>
</g>
</g>
</svg>
