<svg viewBox="0 0 24 24" width="24" height="24" fill="currentColor" xmlns="http://www.w3.org/2000/svg">
 <g transform="translate(4.25, 4.25)">
  <path d="M8.75 0.75C8.75 0.335786 8.41421 0 8 0C7.58579 0 7.25 0.335786 7.25 0.75L7.25 7.25L0.75 7.25C0.335786 7.25 0 7.58579 0 8C0 8.41421 0.335786 8.75 0.75 8.75L7.25 8.75L7.25 15.25C7.25 15.6642 7.58579 16 8 16C8.41421 16 8.75 15.6642 8.75 15.25L8.75 8.75L15.25 8.75C15.6642 8.75 16 8.41421 16 8C16 7.58579 15.6642 7.25 15.25 7.25L8.75 7.25L8.75 0.75Z" fill-rule="NONZERO"></path>
 </g>
</svg>