<svg width="16" height="16" viewBox="0 0 16 16" fill="none" xmlns="http://www.w3.org/2000/svg">
<g id="Size=16">
<g id="Union">
<path d="M7.75 4C8.16421 4 8.5 4.33579 8.5 4.75V7H10.75C11.1642 7 11.5 7.33579 11.5 7.75C11.5 8.16421 11.1642 8.5 10.75 8.5H8.5V10.75C8.5 11.1642 8.16421 11.5 7.75 11.5C7.33579 11.5 7 11.1642 7 10.75V8.5H4.75C4.33579 8.5 4 8.16421 4 7.75C4 7.33579 4.33579 7 4.75 7H7V4.75C7 4.33579 7.33579 4 7.75 4Z" fill="black"/>
<path fill-rule="evenodd" clip-rule="evenodd" d="M1 3.25C1 2.00736 2.00736 1 3.25 1H12.25C13.4926 1 14.5 2.00736 14.5 3.25V12.25C14.5 13.4926 13.4926 14.5 12.25 14.5H3.25C2.00736 14.5 1 13.4926 1 12.25V3.25ZM3.25 2.5C2.83579 2.5 2.5 2.83579 2.5 3.25V12.25C2.5 12.6642 2.83579 13 3.25 13H12.25C12.6642 13 13 12.6642 13 12.25V3.25C13 2.83579 12.6642 2.5 12.25 2.5H3.25Z" fill="black"/>
</g>
</g>
</svg>
