<svg width="16" height="16" viewBox="0 0 16 16" fill="none" xmlns="http://www.w3.org/2000/svg">
<g id="Size=16">
<g id="Union">
<path d="M7.75 4C8.16421 4 8.5 4.33579 8.5 4.75V7H10.75C11.1642 7 11.5 7.33579 11.5 7.75C11.5 8.16421 11.1642 8.5 10.75 8.5H8.5V10.75C8.5 11.1642 8.16421 11.5 7.75 11.5C7.33579 11.5 7 11.1642 7 10.75V8.5H4.75C4.33579 8.5 4 8.16421 4 7.75C4 7.33579 4.33579 7 4.75 7H7V4.75C7 4.33579 7.33579 4 7.75 4Z" fill="black"/>
<path fill-rule="evenodd" clip-rule="evenodd" d="M0 7.75C0 3.46979 3.46979 0 7.75 0C12.0302 0 15.5 3.46979 15.5 7.75C15.5 12.0302 12.0302 15.5 7.75 15.5C3.46979 15.5 0 12.0302 0 7.75ZM7.75 1.5C4.29822 1.5 1.5 4.29822 1.5 7.75C1.5 11.2018 4.29822 14 7.75 14C11.2018 14 14 11.2018 14 7.75C14 4.29822 11.2018 1.5 7.75 1.5Z" fill="black"/>
</g>
</g>
</svg>
