<svg width="24" height="24" viewBox="0 0 24 24" fill="none" xmlns="http://www.w3.org/2000/svg">
<g id="size=24">
<path id="Union" fill-rule="evenodd" clip-rule="evenodd" d="M5 3.75V8H3.75C2.23122 8 1 9.23122 1 10.75V16.25C1 17.7688 2.23122 19 3.75 19H5V21.25C5 22.2165 5.7835 23 6.75 23H17.25C18.2165 23 19 22.2165 19 21.25V19H20.25C21.7688 19 23 17.7688 23 16.25V10.75C23 9.23122 21.7688 8 20.25 8H19V3.75C19 2.23122 17.7688 1 16.25 1H7.75C6.23122 1 5 2.23122 5 3.75ZM7.75 2.5C7.05964 2.5 6.5 3.05964 6.5 3.75V8H17.5V3.75C17.5 3.05964 16.9404 2.5 16.25 2.5H7.75ZM19 17.5H20.25C20.9404 17.5 21.5 16.9404 21.5 16.25V10.75C21.5 10.0596 20.9404 9.5 20.25 9.5H3.75C3.05964 9.5 2.5 10.0596 2.5 10.75V16.25C2.5 16.9404 3.05964 17.5 3.75 17.5H5V14.75C5 13.7835 5.7835 13 6.75 13H17.25C18.2165 13 19 13.7835 19 14.75V17.5ZM6.5 14.75C6.5 14.6119 6.61193 14.5 6.75 14.5H17.25C17.3881 14.5 17.5 14.6119 17.5 14.75V21.25C17.5 21.3881 17.3881 21.5 17.25 21.5H6.75C6.61193 21.5 6.5 21.3881 6.5 21.25V14.75Z" fill="black"/>
</g>
</svg>
