<svg width="16" height="16" viewBox="0 0 16 16" fill="none" xmlns="http://www.w3.org/2000/svg">
<g id="size=16">
<path id="Union" fill-rule="evenodd" clip-rule="evenodd" d="M8 0C3.58172 0 0 3.58172 0 8C0 12.4183 3.58172 16 8 16C12.4183 16 16 12.4183 16 8C16 3.58172 12.4183 0 8 0ZM7.5 1.51894C6.79605 1.5725 6.12344 1.73818 5.5 1.99816L5.5 2V5.19123L7.5 4.10034V1.51894ZM1.53152 7.35583C1.71027 5.53888 2.63717 3.94158 4 2.87616V6.0094L1.53152 7.35583ZM1.58224 9.03679L4 7.71803L4 13.1238C2.73623 12.1359 1.84732 10.6905 1.58224 9.03679ZM7.5 11.4221L5.5 12.565L5.5 6.89986L7.5 5.80897V11.4221ZM9 10.565V4.9908L11 3.89991L11 9.42208L9 10.565ZM11 11.1497L9 12.2926V14.4236C9.71131 14.3137 10.3845 14.0886 11 13.7678V11.1497ZM12.5 12.6904V10.2926L14.3868 9.21438C14.1309 10.5683 13.4551 11.7738 12.5 12.6904ZM12.5 8.56491L12.5 3.30957C13.6056 4.37053 14.3368 5.81857 14.4759 7.43582L12.5 8.56491ZM7.5 13.1498L5.80319 14.1194C6.33965 14.312 6.90877 14.4361 7.5 14.4811V13.1498ZM9 3.28217V1.57645C9.69649 1.68399 10.3565 1.90211 10.9615 2.21229L9 3.28217Z" fill="black"/>
</g>
</svg>
