<svg width="16" height="16" viewBox="0 0 16 16" fill="none" xmlns="http://www.w3.org/2000/svg">
<g id="size=16">
<g id="Union">
<path d="M2.23016 2.67385C1.91195 2.40868 1.43903 2.45167 1.17385 2.76988C0.90868 3.08809 0.951673 3.56101 1.26988 3.82618L3.57848 5.75002L1.26988 7.67385C0.951673 7.93903 0.90868 8.41195 1.17385 8.73016C1.43903 9.04836 1.91195 9.09136 2.23016 8.82618L5.23016 6.32618C5.40115 6.18369 5.50002 5.9726 5.50002 5.75002C5.50002 5.52743 5.40115 5.31635 5.23016 5.17385L2.23016 2.67385Z" fill="#000001"/>
<path d="M8.25 5C7.83579 5 7.5 5.33579 7.5 5.75C7.5 6.16421 7.83579 6.5 8.25 6.5L14.25 6.5C14.6642 6.5 15 6.16421 15 5.75C15 5.33579 14.6642 5 14.25 5L8.25 5Z" fill="#000001"/>
<path d="M5.5 9.25C5.5 8.83579 5.83579 8.5 6.25 8.5H14.25C14.6642 8.5 15 8.83579 15 9.25C15 9.66421 14.6642 10 14.25 10H6.25C5.83579 10 5.5 9.66421 5.5 9.25Z" fill="#000001"/>
<path d="M6.25 12C5.83579 12 5.5 12.3358 5.5 12.75C5.5 13.1642 5.83579 13.5 6.25 13.5H14.25C14.6642 13.5 15 13.1642 15 12.75C15 12.3358 14.6642 12 14.25 12H6.25Z" fill="#000001"/>
</g>
</g>
</svg>
