<svg width="16" height="16" viewBox="0 0 16 16" fill="none" xmlns="http://www.w3.org/2000/svg">
<g id="Size=16">
<g id="Union">
<path d="M5 4C4.44772 4 4 4.44772 4 5C4 5.55228 4.44772 6 5 6H5.01C5.56228 6 6.01 5.55228 6.01 5C6.01 4.44772 5.56228 4 5.01 4H5Z" fill="black"/>
<path d="M7 8C7 7.44772 7.44772 7 8 7H8.01C8.56228 7 9.01 7.44772 9.01 8C9.01 8.55228 8.56228 9 8.01 9H8C7.44772 9 7 8.55228 7 8Z" fill="black"/>
<path d="M11.01 10C10.4577 10 10.01 10.4477 10.01 11C10.01 11.5523 10.4577 12 11.01 12H11.02C11.5723 12 12.02 11.5523 12.02 11C12.02 10.4477 11.5723 10 11.02 10H11.01Z" fill="black"/>
<path fill-rule="evenodd" clip-rule="evenodd" d="M3.25 1C2.00736 1 1 2.00736 1 3.25V12.75C1 13.9926 2.00736 15 3.25 15H12.75C13.9926 15 15 13.9926 15 12.75V3.25C15 2.00736 13.9926 1 12.75 1H3.25ZM2.5 3.25C2.5 2.83579 2.83579 2.5 3.25 2.5H12.75C13.1642 2.5 13.5 2.83579 13.5 3.25V12.75C13.5 13.1642 13.1642 13.5 12.75 13.5H3.25C2.83579 13.5 2.5 13.1642 2.5 12.75V3.25Z" fill="black"/>
</g>
</g>
</svg>
