<svg width="24" height="24" viewBox="0 0 24 24" fill="none" xmlns="http://www.w3.org/2000/svg">
<g id="size=24">
<path id="Vector (Stroke)" fill-rule="evenodd" clip-rule="evenodd" d="M12 5.78628C12 4.73993 13.2088 4.15666 14.0278 4.80779L21.4774 10.7299C22.1045 11.2284 22.1074 12.1798 21.4834 12.6821L14.0338 18.6793C13.216 19.3377 12 18.7556 12 17.7056V14.9524C11.0663 14.919 10.2066 15.0187 9.17625 15.3787C7.87007 15.8352 6.2584 16.7214 3.88064 18.3602C3.44491 18.6605 2.90778 18.6473 2.51113 18.3885C2.10151 18.1213 1.87136 17.607 2.03225 17.0625C2.62295 15.0636 3.94245 12.9385 5.77533 11.3078C7.44371 9.82351 9.57146 8.72045 12 8.52946V5.78628ZM13.5 6.30438V9.25006C13.5 9.66427 13.1642 10.0001 12.75 10.0001C10.4538 10.0001 8.39956 10.9808 6.77236 12.4285C5.41209 13.6387 4.37904 15.151 3.77842 16.6166C5.80893 15.2605 7.34308 14.4304 8.68138 13.9627C10.2102 13.4284 11.4496 13.3787 12.8179 13.5031C13.2042 13.5383 13.5 13.8622 13.5 14.2501V17.1834L20.2994 11.7096L13.5 6.30438Z" fill="black"/>
</g>
</svg>
