<svg width="16" height="16" viewBox="0 0 16 16" fill="none" xmlns="http://www.w3.org/2000/svg">
<g id="Size=16">
<g id="Union">
<path d="M11.2381 0.680571C10.9236 0.411005 10.4501 0.447426 10.1806 0.76192C9.91101 1.07641 9.94743 1.54989 10.2619 1.81946L12.2226 3.5H4.41667C3.51051 3.5 2.64147 3.85997 2.00072 4.50072C1.35997 5.14147 1 6.01051 1 6.91667V7.75C1 8.16421 1.33579 8.5 1.75 8.5C2.16421 8.5 2.5 8.16421 2.5 7.75V6.91667C2.5 6.40833 2.70193 5.92082 3.06138 5.56138C3.42082 5.20193 3.90833 5 4.41667 5H12.2226L10.2619 6.68057C9.94743 6.95014 9.91101 7.42361 10.1806 7.73811C10.4501 8.0526 10.9236 8.08902 11.2381 7.81946L14.7381 4.81946C14.9043 4.67697 15 4.46896 15 4.25001C15 4.03107 14.9043 3.82306 14.7381 3.68057L11.2381 0.680571Z" fill="black"/>
<path d="M5.81944 8.26192C6.08901 8.57641 6.05259 9.04989 5.73809 9.31946L3.77746 11H11.5833C12.0917 11 12.5792 10.7981 12.9386 10.4386C13.2981 10.0792 13.5 9.59167 13.5 9.08333V8.25C13.5 7.83579 13.8358 7.5 14.25 7.5C14.6642 7.5 15 7.83579 15 8.25V9.08333C15 9.98949 14.64 10.8585 13.9993 11.4993C13.3585 12.14 12.4895 12.5 11.5833 12.5H3.77743L5.73809 14.1806C6.05259 14.4501 6.08901 14.9236 5.81944 15.2381C5.54988 15.5526 5.0764 15.589 4.76191 15.3195L1.26191 12.3195C1.09567 12.177 1 11.969 1 11.75C1 11.5311 1.09567 11.3231 1.26191 11.1806L4.76191 8.18057C5.0764 7.911 5.54988 7.94743 5.81944 8.26192Z" fill="black"/>
</g>
</g>
</svg>
