<svg width="24" height="24" viewBox="0 0 24 24" fill="none" xmlns="http://www.w3.org/2000/svg">
<g id="size=24">
<g id="Union">
<path d="M17.515 0.454742C17.2138 0.170333 16.7392 0.183896 16.4547 0.485034C16.1703 0.786173 16.1839 1.26085 16.485 1.54526L19.6136 4.5H6.75C5.49022 4.5 4.28204 5.00044 3.39124 5.89124C2.50044 6.78204 2 7.99022 2 9.25V11.25C2 11.6642 2.33579 12 2.75 12C3.16421 12 3.5 11.6642 3.5 11.25V9.25C3.5 8.38805 3.84241 7.5614 4.4519 6.9519C5.0614 6.34241 5.88805 6 6.75 6H19.6136L16.485 8.95474C16.1839 9.23915 16.1703 9.71383 16.4547 10.015C16.7392 10.3161 17.2138 10.3297 17.515 10.0453L22.015 5.79526C22.165 5.65358 22.25 5.45635 22.25 5.25C22.25 5.04366 22.165 4.84642 22.015 4.70474L17.515 0.454742Z" fill="black"/>
<path d="M8.04526 13.985C8.32967 14.2862 8.31611 14.7609 8.01497 15.0453L4.88642 18H17.25C18.112 18 18.9386 17.6576 19.5481 17.0481C20.1576 16.4386 20.5 15.612 20.5 14.75V12.75C20.5 12.3358 20.8358 12 21.25 12C21.6642 12 22 12.3358 22 12.75V14.75C22 16.0098 21.4996 17.218 20.6088 18.1088C19.718 18.9996 18.5098 19.5 17.25 19.5H4.88642L8.01497 22.4547C8.31611 22.7392 8.32967 23.2138 8.04526 23.515C7.76085 23.8161 7.28617 23.8297 6.98503 23.5453L2.48503 19.2953C2.33502 19.1536 2.25 18.9563 2.25 18.75C2.25 18.5437 2.33502 18.3464 2.48503 18.2047L6.98503 13.9547C7.28617 13.6703 7.76085 13.6839 8.04526 13.985Z" fill="black"/>
</g>
</g>
</svg>
