<svg viewBox="0 0 24 24" width="24" height="24" fill="currentColor" xmlns="http://www.w3.org/2000/svg">
 <g transform="translate(2, 2)">
  <path d="M0 2.75C0 1.23122 1.23122 0 2.75 0L13.25 0C14.7688 0 16 1.23122 16 2.75L16 4.93934L16.7803 5.71967C17.0732 6.01256 17.0732 6.48744 16.7803 6.78033C16.5693 6.99135 16.2638 7.05034 16 6.95729L16 9.93934L18.7803 12.7197C19.0732 13.0126 19.0732 13.4874 18.7803 13.7803C18.4874 14.0732 18.0126 14.0732 17.7197 13.7803L16 12.0607L16 13.25C16 13.7446 15.8694 14.2087 15.6409 14.6097C15.6905 14.6401 15.7374 14.6767 15.7803 14.7197L19.7803 18.7197C20.0732 19.0126 20.0732 19.4874 19.7803 19.7803C19.4874 20.0732 19.0126 20.0732 18.7197 19.7803L14.7197 15.7803C14.6767 15.7374 14.6401 15.6905 14.6097 15.6409C14.2087 15.8694 13.7446 16 13.25 16L12.0607 16L12.7803 16.7197C13.0732 17.0126 13.0732 17.4874 12.7803 17.7803C12.4874 18.0732 12.0126 18.0732 11.7197 17.7803L9.93934 16L7.06066 16L9.78033 18.7197C10.0732 19.0126 10.0732 19.4874 9.78033 19.7803C9.48744 20.0732 9.01256 20.0732 8.71967 19.7803L4.93934 16L2.75 16C1.23122 16 0 14.7688 0 13.25L0 2.75ZM2.75 1.5C2.05964 1.5 1.5 2.05964 1.5 2.75L1.5 13.25C1.5 13.9404 2.05964 14.5 2.75 14.5L13.25 14.5C13.9404 14.5 14.5 13.9404 14.5 13.25L14.5 2.75C14.5 2.05964 13.9404 1.5 13.25 1.5L2.75 1.5Z" fill-rule="EVENODD"></path>
  <path d="M14.7803 18.7197C14.4874 18.4268 14.0126 18.4268 13.7197 18.7197C13.4268 19.0126 13.4268 19.4874 13.7197 19.7803L14.7197 20.7803C15.0126 21.0732 15.4874 21.0732 15.7803 20.7803C16.0732 20.4874 16.0732 20.0126 15.7803 19.7197L14.7803 18.7197Z" fill-rule="NONZERO"></path>
  <path d="M20.6804 14.6196C20.3875 14.3267 19.9126 14.3267 19.6197 14.6196C19.3268 14.9125 19.3268 15.3873 19.6197 15.6802L19.7197 15.7802C20.0126 16.0731 20.4875 16.0731 20.7804 15.7802C21.0732 15.4873 21.0732 15.0125 20.7804 14.7196L20.6804 14.6196Z" fill-rule="NONZERO"></path>
  <path d="M17.7197 7.71967C18.0126 7.42678 18.4874 7.42678 18.7803 7.71967L19.7803 8.71967C20.0732 9.01256 20.0732 9.48744 19.7803 9.78033C19.4874 10.0732 19.0126 10.0732 18.7197 9.78033L17.7197 8.78033C17.4268 8.48744 17.4268 8.01256 17.7197 7.71967Z" fill-rule="NONZERO"></path>
 </g>
</svg>