<svg width="24" height="24" viewBox="0 0 24 24" fill="none" xmlns="http://www.w3.org/2000/svg">
<g id="size=24">
<g id="Union">
<path fill-rule="evenodd" clip-rule="evenodd" d="M1 3.75C1 2.23122 2.23122 1 3.75 1H14.25C15.7688 1 17 2.23122 17 3.75V16.25C17 16.6642 16.6642 17 16.25 17H3.75C2.23122 17 1 15.7688 1 14.25V3.75ZM3.75 2.5C3.05964 2.5 2.5 3.05964 2.5 3.75V14.25C2.5 14.9404 3.05964 15.5 3.75 15.5H15.5V3.75C15.5 3.05964 14.9404 2.5 14.25 2.5H3.75Z" fill="black"/>
<path d="M19.25 6C19.6642 6 20 6.33579 20 6.75V18.25C20 19.2136 19.2223 20 18.2529 20H6.75C6.33579 20 6 19.6642 6 19.25C6 18.8358 6.33579 18.5 6.75 18.5H18.2529C18.3881 18.5 18.5 18.3909 18.5 18.25V6.75C18.5 6.33579 18.8358 6 19.25 6Z" fill="black"/>
<path d="M23 9.75C23 9.33579 22.6642 9 22.25 9C21.8358 9 21.5 9.33579 21.5 9.75V19.25C21.5 20.4933 20.4941 21.5 19.2521 21.5H9.75C9.33579 21.5 9 21.8358 9 22.25C9 22.6642 9.33579 23 9.75 23H19.2521C21.3239 23 23 21.3204 23 19.25V9.75Z" fill="black"/>
</g>
</g>
</svg>
