<svg width="16" height="16" viewBox="0 0 16 16" fill="none" xmlns="http://www.w3.org/2000/svg">
<g id="size=16">
<g id="Union">
<path fill-rule="evenodd" clip-rule="evenodd" d="M1 3.25C1 2.00736 2.00736 1 3.25 1H9.75C10.9926 1 12 2.00736 12 3.25V4.35373C12.0273 4.37402 12.0535 4.39655 12.0783 4.42133L12.7449 5.088C13.0183 5.36137 13.0183 5.80458 12.7449 6.07795C12.5435 6.27935 12.2499 6.33237 12 6.23701V7.68723C12.0273 7.70752 12.0535 7.73005 12.0783 7.75483L13.8283 9.50483C14.1016 9.7782 14.1016 10.2214 13.8283 10.4948C13.5549 10.7681 13.1117 10.7681 12.8383 10.4948L12 9.65645V9.75C12 10.1666 11.8868 10.5567 11.6894 10.8913C11.8318 10.9131 11.9687 10.9787 12.0783 11.0883L14.7449 13.755C15.0183 14.0284 15.0183 14.4716 14.7449 14.7449C14.4716 15.0183 14.0284 15.0183 13.755 14.7449L11.0883 12.0783C10.9787 11.9687 10.9131 11.8318 10.8913 11.6894C10.5567 11.8868 10.1666 12 9.75 12H9.6567L9.99502 12.3383C10.2684 12.6117 10.2684 13.0549 9.99502 13.3283C9.72166 13.6016 9.27844 13.6016 9.00507 13.3283L7.75507 12.0783C7.73029 12.0535 7.70776 12.0273 7.68747 12H6.32332L8.07832 13.755C8.35168 14.0284 8.35168 14.4716 8.07832 14.7449C7.80495 15.0183 7.36173 15.0183 7.08837 14.7449L4.4217 12.0783C4.39692 12.0535 4.37439 12.0273 4.3541 12H3.25C2.00736 12 1 10.9926 1 9.75V3.25ZM3.25 2.5C2.83579 2.5 2.5 2.83579 2.5 3.25V9.75C2.5 10.1642 2.83579 10.5 3.25 10.5H9.75C10.1642 10.5 10.5 10.1642 10.5 9.75V3.25C10.5 2.83579 10.1642 2.5 9.75 2.5H3.25Z" fill="black"/>
<path d="M11.495 13.8383C11.2216 13.5649 10.7784 13.565 10.505 13.8384C10.2317 14.1118 10.2317 14.555 10.5051 14.8283L11.0885 15.4116C11.3619 15.6849 11.8051 15.6848 12.0784 15.4115C12.3518 15.1381 12.3517 14.6948 12.0783 14.4215L11.495 13.8383Z" fill="black"/>
<path d="M15.345 11.0214C15.0716 10.7481 14.6284 10.7481 14.3551 11.0214C14.0817 11.2948 14.0817 11.738 14.3551 12.0114L14.4217 12.078C14.6951 12.3514 15.1383 12.3514 15.4117 12.078C15.685 11.8047 15.685 11.3615 15.4117 11.0881L15.345 11.0214Z" fill="black"/>
<path d="M13.375 6.70508C13.6484 6.43168 14.0916 6.43163 14.365 6.70497L15.1982 7.53798C15.4716 7.81132 15.4716 8.25453 15.1983 8.52793C14.9249 8.80132 14.4817 8.80137 14.2083 8.52804L13.3751 7.69503C13.1017 7.42169 13.1017 6.97848 13.375 6.70508Z" fill="black"/>
</g>
</g>
</svg>
