<svg width="24" height="24" viewBox="0 0 24 24" fill="none" xmlns="http://www.w3.org/2000/svg">
<g id="Size=24">
<path id="Union" fill-rule="evenodd" clip-rule="evenodd" d="M10.1883 5.38011C11.3401 4.50114 13 5.32244 13 6.77127V10.1028L19.1883 5.38011C20.3401 4.50114 22 5.32245 22 6.77128V17.2291C22 18.6779 20.3401 19.4992 19.1883 18.6202L13 13.8976V17.2291C13 18.6779 11.3401 19.4992 10.1883 18.6202L3.33667 13.3913C2.41891 12.6909 2.4189 11.3094 3.33667 10.609L10.1883 5.38011ZM11.5 6.77127C11.5 6.5643 11.2629 6.44697 11.0983 6.57254L4.24668 11.8014C4.11557 11.9015 4.11557 12.0989 4.24668 12.1989L11.0983 17.4278C11.2629 17.5534 11.5 17.4361 11.5 17.2291V6.77127ZM20.5 6.77128C20.5 6.5643 20.2629 6.44697 20.0983 6.57254L13.0369 11.9616V12.0388L20.0983 17.4278C20.2629 17.5534 20.5 17.4361 20.5 17.2291V6.77128Z" fill="black"/>
</g>
</svg>
