<svg viewBox="0 0 24 24" width="24" height="24" fill="currentColor" xmlns="http://www.w3.org/2000/svg">
 <g transform="translate(1.75, 2.27880859375)">
  <path d="M13.0303 8.00152C13.3232 7.70863 13.3232 7.23375 13.0303 6.94086C12.7374 6.64797 12.2626 6.64797 11.9697 6.94086L11.4697 7.44086C11.1768 7.73375 11.1768 8.20863 11.4697 8.50152C11.7626 8.79441 12.2374 8.79441 12.5303 8.50152L13.0303 8.00152Z" fill-rule="NONZERO"></path>
  <path d="M17.88 0.0377708C19.1075 -0.217885 20.1891 0.863702 19.9334 2.09124C19.5531 3.9177 18.8633 7.13865 18.1722 9.90301C17.9913 10.6265 17.6314 11.2802 17.1612 11.8674L17.1592 11.8825L16.7024 15.0798C16.6383 15.5288 16.4024 15.9353 16.0444 16.2137L12.5277 18.949C11.7648 19.5424 10.6653 19.4049 10.0719 18.642L8.28848 16.349C7.79179 16.192 7.38124 15.817 7.16005 15.3677C6.92057 14.8812 6.57024 14.2963 6.12256 13.8487C5.67488 13.401 5.09001 13.0506 4.60355 12.8112C4.15418 12.59 3.77911 12.1793 3.62217 11.6826L1.32905 9.89915C0.566104 9.30578 0.428649 8.20627 1.02203 7.44335L3.75728 3.92661C4.0357 3.56863 4.44222 3.33273 4.89116 3.26859L8.08847 2.81183C8.09371 2.81108 8.09894 2.81039 8.10416 2.80976C8.69129 2.33971 9.34486 1.97989 10.0682 1.79905C12.8326 1.10796 16.0535 0.418162 17.88 0.0377708ZM6.48438 4.55622L5.10329 4.75352C5.03916 4.76268 4.98108 4.79638 4.94131 4.84752L2.20606 8.36426C2.12129 8.47325 2.14093 8.63032 2.24992 8.71509L3.85011 9.9596C4.22942 8.83798 4.83236 7.28497 5.66333 5.83522C5.90978 5.40526 6.18313 4.97216 6.48438 4.55622ZM14.136 14.3079C14.5659 14.0615 14.9989 13.7882 15.4148 13.487L15.2175 14.8677C15.2084 14.9318 15.1747 14.9899 15.1235 15.0297L11.6068 17.7649C11.4978 17.8497 11.3407 17.8301 11.2559 17.7211L10.0115 16.1211C11.1332 15.7418 12.6862 15.1389 14.136 14.3079ZM18.465 1.7854C18.5003 1.61576 18.3555 1.47093 18.1858 1.50626C16.3638 1.88572 13.1665 2.57064 10.432 3.25427C9.11184 3.58431 7.93399 4.89011 6.96471 6.58115C6.0191 8.23092 5.37939 10.057 5.05383 11.1116C5.03911 11.1592 5.04093 11.2148 5.07358 11.2803C5.10836 11.3501 5.17476 11.4205 5.26604 11.4654C5.82244 11.7393 6.5709 12.1757 7.18322 12.788C7.79555 13.4003 8.23192 14.1488 8.50582 14.7052C8.55076 14.7965 8.62115 14.8629 8.6909 14.8976C8.75639 14.9303 8.81198 14.9321 8.85966 14.9174C9.91423 14.5918 11.7403 13.9521 13.3901 13.0065C15.0811 12.0372 16.3869 10.8594 16.717 9.5392C17.4006 6.80468 18.0855 3.60738 18.465 1.7854Z" fill-rule="EVENODD"></path>
  <path d="M2.28033 13.6909C2.57322 13.9838 2.57322 14.4586 2.28033 14.7515L1.28033 15.7515C0.987437 16.0444 0.512563 16.0444 0.21967 15.7515C-0.0732233 15.4586 -0.0732233 14.9838 0.21967 14.6909L1.21967 13.6909C1.51256 13.398 1.98744 13.398 2.28033 13.6909Z" fill-rule="NONZERO"></path>
  <path d="M4.78033 15.1909C5.07322 15.4838 5.07322 15.9586 4.78033 16.2515L1.78033 19.2515C1.48744 19.5444 1.01256 19.5444 0.71967 19.2515C0.426777 18.9586 0.426777 18.4838 0.71967 18.1909L3.71967 15.1909C4.01256 14.898 4.48744 14.898 4.78033 15.1909Z" fill-rule="NONZERO"></path>
  <path d="M6.28033 18.7515C6.57322 18.4586 6.57322 17.9838 6.28033 17.6909C5.98744 17.398 5.51256 17.398 5.21967 17.6909L4.21967 18.6909C3.92678 18.9838 3.92678 19.4586 4.21967 19.7515C4.51256 20.0444 4.98744 20.0444 5.28033 19.7515L6.28033 18.7515Z" fill-rule="NONZERO"></path>
 </g>
</svg>