<svg width="24" height="24" viewBox="0 0 24 24" fill="none" xmlns="http://www.w3.org/2000/svg">
<g id="size=24">
<g id="Union">
<path d="M14.7803 10.2803C15.0732 9.98744 15.0732 9.51256 14.7803 9.21967C14.4874 8.92678 14.0126 8.92678 13.7197 9.21967L13.2197 9.71967C12.9268 10.0126 12.9268 10.4874 13.2197 10.7803C13.5126 11.0732 13.9874 11.0732 14.2803 10.7803L14.7803 10.2803Z" fill="black"/>
<path fill-rule="evenodd" clip-rule="evenodd" d="M19.63 2.31658C20.8575 2.06092 21.9391 3.14251 21.6834 4.37005C21.3031 6.1965 20.6133 9.41746 19.9222 12.1818C19.7413 12.9053 19.3814 13.559 18.9112 14.1462L18.9092 14.1613L18.4524 17.3586C18.3883 17.8076 18.1524 18.2141 17.7944 18.4925L14.2777 21.2278C13.5148 21.8212 12.4153 21.6837 11.8219 20.9208L10.0385 18.6278C9.54179 18.4708 9.13124 18.0958 8.91005 17.6465C8.67057 17.16 8.32024 16.5751 7.87256 16.1275C7.42488 15.6798 6.84001 15.3295 6.35355 15.09C5.90418 14.8688 5.52911 14.4581 5.37217 13.9614L3.07905 12.178C2.3161 11.5846 2.17865 10.4851 2.77203 9.72216L5.50728 6.20541C5.7857 5.84744 6.19222 5.61153 6.64116 5.5474L9.83847 5.09064C9.84371 5.08989 9.84894 5.0892 9.85416 5.08856C10.4413 4.61852 11.0949 4.2587 11.8182 4.07786C14.5826 3.38677 17.8035 2.69697 19.63 2.31658ZM8.23438 6.83503L6.85329 7.03232C6.78916 7.04149 6.73108 7.07519 6.69131 7.12633L3.95606 10.6431C3.87129 10.7521 3.89093 10.9091 3.99992 10.9939L5.60011 12.2384C5.97942 11.1168 6.58236 9.56378 7.41333 8.11403C7.65978 7.68407 7.93313 7.25097 8.23438 6.83503ZM15.886 16.5867C16.3159 16.3403 16.7489 16.067 17.1648 15.7658L16.9675 17.1465C16.9584 17.2106 16.9247 17.2687 16.8735 17.3085L13.3568 20.0438C13.2478 20.1285 13.0907 20.1089 13.0059 19.9999L11.7615 18.3999C12.8832 18.0206 14.4362 17.4177 15.886 16.5867ZM20.215 4.06421C20.2503 3.89457 20.1055 3.74974 19.9358 3.78507C18.1138 4.16453 14.9165 4.84944 12.182 5.53307C10.8618 5.86312 9.68399 7.16891 8.71471 8.85996C7.7691 10.5097 7.12939 12.3358 6.80383 13.3904C6.78911 13.438 6.79093 13.4936 6.82358 13.5591C6.85836 13.6289 6.92476 13.6993 7.01604 13.7442C7.57244 14.0181 8.3209 14.4545 8.93322 15.0668C9.54555 15.6791 9.98192 16.4276 10.2558 16.984C10.3008 17.0753 10.3712 17.1417 10.4409 17.1764C10.5064 17.2091 10.562 17.2109 10.6097 17.1962C11.6642 16.8706 13.4903 16.2309 15.1401 15.2853C16.8311 14.316 18.1369 13.1382 18.467 11.818C19.1506 9.08349 19.8355 5.88619 20.215 4.06421Z" fill="black"/>
<path d="M4.03033 15.9697C4.32322 16.2626 4.32322 16.7374 4.03033 17.0303L3.03033 18.0303C2.73744 18.3232 2.26256 18.3232 1.96967 18.0303C1.67678 17.7374 1.67678 17.2626 1.96967 16.9697L2.96967 15.9697C3.26256 15.6768 3.73744 15.6768 4.03033 15.9697Z" fill="black"/>
<path d="M6.53033 17.4697C6.82322 17.7626 6.82322 18.2374 6.53033 18.5303L3.53033 21.5303C3.23744 21.8232 2.76256 21.8232 2.46967 21.5303C2.17678 21.2374 2.17678 20.7626 2.46967 20.4697L5.46967 17.4697C5.76256 17.1768 6.23744 17.1768 6.53033 17.4697Z" fill="black"/>
<path d="M8.03033 21.0303C8.32322 20.7374 8.32322 20.2626 8.03033 19.9697C7.73744 19.6768 7.26256 19.6768 6.96967 19.9697L5.96967 20.9697C5.67678 21.2626 5.67678 21.7374 5.96967 22.0303C6.26256 22.3232 6.73744 22.3232 7.03033 22.0303L8.03033 21.0303Z" fill="black"/>
</g>
</g>
</svg>
