<svg width="24" height="24" viewBox="0 0 24 24" fill="none" xmlns="http://www.w3.org/2000/svg">
<g id="Size=24">
<path id="Union" d="M3 1.75C3 1.33579 3.33579 1 3.75 1C4.16421 1 4.5 1.33579 4.5 1.75V5.38552C6.33159 3.31039 9.01265 2 12 2C17.5228 2 22 6.47715 22 12C22 17.5228 17.5228 22 12 22C6.47715 22 2 17.5228 2 12C2 11.5858 2.33579 11.25 2.75 11.25C3.16421 11.25 3.5 11.5858 3.5 12C3.5 16.6944 7.30558 20.5 12 20.5C16.6944 20.5 20.5 16.6944 20.5 12C20.5 7.30558 16.6944 3.5 12 3.5C9.40371 3.5 7.07893 4.66355 5.51896 6.5H9.25C9.66421 6.5 10 6.83579 10 7.25C10 7.66421 9.66421 8 9.25 8H3.75C3.33579 8 3 7.66421 3 7.25V1.75Z" fill="black"/>
</g>
</svg>
