<svg width="16" height="16" viewBox="0 0 16 16" fill="none" xmlns="http://www.w3.org/2000/svg">
<g id="size=16">
<g id="Union">
<path d="M2.75 1C2.33579 1 2 1.33579 2 1.75C2 2.16421 2.33579 2.5 2.75 2.5C5.60108 2.5 8.33538 3.63259 10.3514 5.6486C12.3674 7.66462 13.5 10.3989 13.5 13.25C13.5 13.6642 13.8358 14 14.25 14C14.6642 14 15 13.6642 15 13.25C15 10.0011 13.7094 6.88526 11.4121 4.58794C9.11474 2.29062 5.9989 1 2.75 1Z" fill="#000001"/>
<path d="M2.75 6C2.33579 6 2 6.33579 2 6.75C2 7.16421 2.33579 7.5 2.75 7.5C4.27499 7.5 5.73753 8.1058 6.81586 9.18414C7.8942 10.2625 8.5 11.725 8.5 13.25C8.5 13.6642 8.83579 14 9.25 14C9.66421 14 10 13.6642 10 13.25C10 11.3272 9.23616 9.48311 7.87652 8.12348C6.51689 6.76384 4.67282 6 2.75 6Z" fill="#000001"/>
<path d="M3.5 11C2.67157 11 2 11.6716 2 12.5C2 13.3284 2.67157 14 3.5 14C4.32843 14 5 13.3284 5 12.5C5 11.6716 4.32843 11 3.5 11Z" fill="#000001"/>
</g>
</g>
</svg>
