<svg viewBox="0 0 24 24" width="24" height="24" fill="currentColor" xmlns="http://www.w3.org/2000/svg">
 <g transform="translate(3, 3)">
  <path d="M0.75 0C0.335786 0 0 0.335786 0 0.75C0 1.16421 0.335786 1.5 0.75 1.5C4.92716 1.5 8.93323 3.15937 11.8869 6.11307C14.8406 9.06677 16.5 13.0728 16.5 17.25C16.5 17.6642 16.8358 18 17.25 18C17.6642 18 18 17.6642 18 17.25C18 12.675 16.1826 8.28741 12.9476 5.05241C9.71259 1.81741 5.32498 0 0.75 0Z" fill-rule="NONZERO"></path>
  <path d="M0.75 7C0.335786 7 0 7.33579 0 7.75C0 8.16421 0.335786 8.5 0.75 8.5C3.07064 8.5 5.29624 9.42187 6.93718 11.0628C8.57813 12.7038 9.5 14.9294 9.5 17.25C9.5 17.6642 9.83579 18 10.25 18C10.6642 18 11 17.6642 11 17.25C11 14.5315 9.92009 11.9244 7.99784 10.0022C6.0756 8.07991 3.46847 7 0.75 7Z" fill-rule="NONZERO"></path>
  <path d="M2 14C0.89543 14 0 14.8954 0 16C0 17.1046 0.895431 18 2 18C3.10457 18 4 17.1046 4 16C4 14.8954 3.10457 14 2 14Z" fill-rule="NONZERO"></path>
 </g>
</svg>