<svg width="24" height="24" viewBox="0 0 24 24" fill="none" xmlns="http://www.w3.org/2000/svg">
<g id="Size=24">
<g id="Union">
<path fill-rule="evenodd" clip-rule="evenodd" d="M5.5 2C3.567 2 2 3.567 2 5.5C2 7.433 3.567 9 5.5 9C6.23905 9 6.92461 8.77094 7.48953 8.37993L10.8365 11.5L7.48953 14.6201C6.92461 14.2291 6.23905 14 5.5 14C3.567 14 2 15.567 2 17.5C2 19.433 3.567 21 5.5 21C7.433 21 9 19.433 9 17.5C9 16.8489 8.8222 16.2393 8.5125 15.7171L12.4426 12.0535C12.4457 12.0506 12.4489 12.0477 12.452 12.0448L20.7615 4.2986C21.0644 4.01616 21.0811 3.54158 20.7987 3.2386C20.5162 2.93561 20.0416 2.91896 19.7386 3.2014L11.9364 10.4747L8.5125 7.28288C8.8222 6.76071 9 6.15112 9 5.5C9 3.567 7.433 2 5.5 2ZM3.5 5.5C3.5 4.39543 4.39543 3.5 5.5 3.5C6.60457 3.5 7.5 4.39543 7.5 5.5C7.5 6.60457 6.60457 7.5 5.5 7.5C4.39543 7.5 3.5 6.60457 3.5 5.5ZM3.5 17.5C3.5 16.3954 4.39543 15.5 5.5 15.5C6.60457 15.5 7.5 16.3954 7.5 17.5C7.5 18.6046 6.60457 19.5 5.5 19.5C4.39543 19.5 3.5 18.6046 3.5 17.5Z" fill="black"/>
<path d="M20.7627 18.7025C21.065 18.9856 21.0806 19.4603 20.7975 19.7626C20.5144 20.065 20.0398 20.0806 19.7374 19.7975L14.2374 14.6475C13.9351 14.3643 13.9195 13.8897 14.2026 13.5874C14.4857 13.285 14.9603 13.2694 15.2627 13.5525L20.7627 18.7025Z" fill="black"/>
</g>
</g>
</svg>
