<svg viewBox="0 0 16 16" width="16" height="16" fill="currentColor" xmlns="http://www.w3.org/2000/svg">
 <g transform="translate(2, 2)">
  <path d="M5.25 0C2.3505 0 0 2.3505 0 5.25C0 8.1495 2.3505 10.5 5.25 10.5C6.42925 10.5 7.51769 10.1112 8.39413 9.45479L10.7197 11.7803C11.0126 12.0732 11.4874 12.0732 11.7803 11.7803C12.0732 11.4874 12.0732 11.0126 11.7803 10.7197L9.45479 8.39413C10.1112 7.51769 10.5 6.42925 10.5 5.25C10.5 2.3505 8.1495 0 5.25 0ZM1.5 5.25C1.5 3.17893 3.17893 1.5 5.25 1.5C7.32107 1.5 9 3.17893 9 5.25C9 7.32107 7.32107 9 5.25 9C3.17893 9 1.5 7.32107 1.5 5.25Z" fill-rule="EVENODD"></path>
 </g>
</svg>