<svg width="16" height="16" viewBox="0 0 16 16" fill="none" xmlns="http://www.w3.org/2000/svg">
<g id="size=16">
<path id="Union" fill-rule="evenodd" clip-rule="evenodd" d="M7.25 2C4.3505 2 2 4.3505 2 7.25C2 10.1495 4.3505 12.5 7.25 12.5C8.42925 12.5 9.51769 12.1112 10.3941 11.4548L12.7197 13.7803C13.0126 14.0732 13.4874 14.0732 13.7803 13.7803C14.0732 13.4874 14.0732 13.0126 13.7803 12.7197L11.4548 10.3941C12.1112 9.51769 12.5 8.42925 12.5 7.25C12.5 4.3505 10.1495 2 7.25 2ZM3.5 7.25C3.5 5.17893 5.17893 3.5 7.25 3.5C9.32107 3.5 11 5.17893 11 7.25C11 9.32107 9.32107 11 7.25 11C5.17893 11 3.5 9.32107 3.5 7.25Z" fill="black"/>
</g>
</svg>
