<svg width="24" height="24" viewBox="0 0 24 24" fill="none" xmlns="http://www.w3.org/2000/svg">
<g id="size=24">
<path id="Union" fill-rule="evenodd" clip-rule="evenodd" d="M21.2048 5.04236C21.7209 3.64147 20.3586 2.27916 18.9577 2.79528L3.2644 8.57702C1.94574 9.06284 1.70867 10.8263 2.85222 11.6432L8.36271 15.5792C8.38516 15.5953 8.4048 15.6149 8.42084 15.6373L12.3569 21.1478C13.1737 22.2914 14.9372 22.0543 15.423 20.7357L21.2048 5.04236ZM19.4763 4.20279C19.6764 4.12906 19.871 4.32368 19.7973 4.52381L14.0155 20.2171C13.9461 20.4055 13.6942 20.4394 13.5775 20.276L9.91383 15.1468L15.5303 9.53033C15.8232 9.23744 15.8232 8.76256 15.5303 8.46967C15.2374 8.17678 14.7626 8.17678 14.4697 8.46967L8.85315 14.0862L3.72407 10.4226C3.56071 10.3059 3.59458 10.0539 3.78296 9.98454L19.4763 4.20279Z" fill="black"/>
</g>
</svg>
