<svg width="16" height="16" viewBox="0 0 16 16" fill="none" xmlns="http://www.w3.org/2000/svg">
<g id="size=16">
<g id="Union">
<path d="M10.7803 4.71967C11.0732 5.01256 11.0732 5.48744 10.7803 5.78033L9.06066 7.5L10.7803 9.21967C11.0732 9.51256 11.0732 9.98744 10.7803 10.2803C10.4874 10.5732 10.0126 10.5732 9.71967 10.2803L8 8.56066L6.28033 10.2803C5.98744 10.5732 5.51256 10.5732 5.21967 10.2803C4.92678 9.98744 4.92678 9.51256 5.21967 9.21967L6.93934 7.5L5.21967 5.78033C4.92678 5.48744 4.92678 5.01256 5.21967 4.71967C5.51256 4.42678 5.98744 4.42678 6.28033 4.71967L8 6.43934L9.71967 4.71967C10.0126 4.42678 10.4874 4.42678 10.7803 4.71967Z" fill="black"/>
<path fill-rule="evenodd" clip-rule="evenodd" d="M7.2605 0.213376C7.73941 0.0467131 8.26059 0.0467134 8.7395 0.213376L13.4895 1.86638C14.3939 2.18111 15 3.03378 15 3.99138V8.00015C15 10.0487 13.8189 11.7481 12.5495 12.9921C11.2683 14.2475 9.79278 15.1428 8.97686 15.5899C8.36525 15.925 7.63475 15.925 7.02314 15.5899C6.20722 15.1428 4.73174 14.2475 3.45054 12.9921C2.18107 11.7481 1 10.0487 1 8.00015V3.99138C1 3.03378 1.6061 2.18111 2.5105 1.86638L7.2605 0.213376ZM8.2465 1.63004C8.08686 1.57449 7.91314 1.57449 7.7535 1.63004L3.0035 3.28304C2.70203 3.38795 2.5 3.67218 2.5 3.99138V8.00015C2.5 9.45616 3.34728 10.7908 4.50037 11.9207C5.64173 13.0391 6.98302 13.8575 7.74394 14.2744C7.90652 14.3635 8.09348 14.3635 8.25606 14.2744C9.01698 13.8575 10.3583 13.0391 11.4996 11.9207C12.6527 10.7908 13.5 9.45617 13.5 8.00015V3.99138C13.5 3.67218 13.298 3.38795 12.9965 3.28304L8.2465 1.63004Z" fill="black"/>
</g>
</g>
</svg>
