<svg width="24" height="24" viewBox="0 0 24 24" fill="none" xmlns="http://www.w3.org/2000/svg">
<g id="size=24">
<g id="Union">
<path d="M12 7C12.4142 7 12.75 7.33579 12.75 7.75V12.25C12.75 12.6642 12.4142 13 12 13C11.5858 13 11.25 12.6642 11.25 12.25V7.75C11.25 7.33579 11.5858 7 12 7Z" fill="black"/>
<path d="M12 15C11.4477 15 11 15.4477 11 16C11 16.5523 11.4477 17 12 17H12.01C12.5623 17 13.01 16.5523 13.01 16C13.01 15.4477 12.5623 15 12.01 15H12Z" fill="black"/>
<path fill-rule="evenodd" clip-rule="evenodd" d="M11.0395 1.30745C11.659 1.07655 12.341 1.07655 12.9605 1.30745L19.2105 3.637C20.2865 4.03806 21 5.06549 21 6.21382V11.9999C21 14.7319 19.5385 17.0384 17.8963 18.7743C16.2467 20.5181 14.3341 21.7735 13.2467 22.4158C12.4723 22.8732 11.5277 22.8732 10.7533 22.4158C9.66594 21.7735 7.75328 20.5181 6.10373 18.7743C4.46155 17.0384 3 14.7319 3 11.9999V6.21382C3 5.06549 3.71353 4.03806 4.78955 3.637L11.0395 1.30745ZM12.4366 2.71299C12.155 2.60804 11.845 2.60804 11.5634 2.71299L5.31343 5.04254C4.82433 5.22484 4.5 5.69185 4.5 6.21382V11.9999C4.5 14.1822 5.67243 16.1357 7.19343 17.7435C8.70705 19.3436 10.4868 20.5162 11.5162 21.1242C11.82 21.3037 12.18 21.3037 12.4838 21.1242C13.5132 20.5162 15.2929 19.3436 16.8066 17.7435C18.3276 16.1357 19.5 14.1822 19.5 11.9999V6.21382C19.5 5.69185 19.1757 5.22484 18.6866 5.04254L12.4366 2.71299Z" fill="black"/>
</g>
</g>
</svg>
