<svg width="16" height="16" viewBox="0 0 16 16" fill="none" xmlns="http://www.w3.org/2000/svg">
<g id="Size=16">
<g id="Union">
<path d="M6.5 7.25C6.5 6.83579 6.16421 6.5 5.75 6.5C5.33579 6.5 5 6.83579 5 7.25C5 8.00976 5.34031 8.71772 5.91074 9.22477C6.47829 9.72926 7.231 10 8 10C8.769 10 9.52171 9.72926 10.0893 9.22477C10.6597 8.71772 11 8.00976 11 7.25C11 6.83579 10.6642 6.5 10.25 6.5C9.83579 6.5 9.5 6.83579 9.5 7.25C9.5 7.5511 9.3662 7.86056 9.09272 8.10366C8.81636 8.34931 8.42448 8.5 8 8.5C7.57552 8.5 7.18364 8.34931 6.90728 8.10366C6.6338 7.86056 6.5 7.5511 6.5 7.25Z" fill="black"/>
<path fill-rule="evenodd" clip-rule="evenodd" d="M3.44802 0.745686C3.87475 0.271063 4.48296 0 5.12121 0H10.8788C11.517 0 12.1253 0.271063 12.552 0.745686L14.4232 2.82695C14.7945 3.24 15 3.77581 15 4.33126V13.75C15 14.9926 13.9926 16 12.75 16H3.25C2.00736 16 1 14.9926 1 13.75V4.33126C1 3.77582 1.20545 3.24 1.57682 2.82695L3.44802 0.745686ZM5.12121 1.5C4.90846 1.5 4.70572 1.59035 4.56348 1.74856L2.98881 3.5H13.0112L11.4365 1.74856C11.2943 1.59035 11.0915 1.5 10.8788 1.5H5.12121ZM2.5 13.75V5H13.5V13.75C13.5 14.1642 13.1642 14.5 12.75 14.5H3.25C2.83579 14.5 2.5 14.1642 2.5 13.75Z" fill="black"/>
</g>
</g>
</svg>
