<svg width="16" height="16" viewBox="0 0 16 16" fill="none" xmlns="http://www.w3.org/2000/svg">
<g id="size=16">
<g id="Union">
<path fill-rule="evenodd" clip-rule="evenodd" d="M1.25 1.5C0.835786 1.5 0.5 1.83579 0.5 2.25C0.5 2.66421 0.835786 3 1.25 3H2.40422C2.76228 3 3.0704 3.2531 3.13994 3.60434L4.01362 8.0173L4.41893 10.1669C4.61938 11.23 5.54809 12 6.62997 12H12.7254C13.8128 12 14.7446 11.2223 14.9391 10.1525L15.6664 6.15249C15.9175 4.77135 14.8565 3.5 13.4527 3.5H4.6484L4.61138 3.31303C4.40276 2.2593 3.4784 1.5 2.40422 1.5H1.25ZM5.48704 7.73603L4.94536 5H13.4527C13.9206 5 14.2743 5.42378 14.1906 5.88416L13.4633 9.88416C13.3985 10.2408 13.0879 10.5 12.7254 10.5H6.62997C6.26934 10.5 5.95977 10.2433 5.89295 9.88897L5.48704 7.73603Z" fill="#000001"/>
<path d="M7.5 13.75C7.5 14.4404 6.94036 15 6.25 15H6.24C5.54964 15 4.99 14.4404 4.99 13.75C4.99 13.0596 5.54964 12.5 6.24 12.5H6.25C6.94036 12.5 7.5 13.0596 7.5 13.75Z" fill="#000001"/>
<path d="M14 13.75C14 14.4404 13.4404 15 12.75 15H12.74C12.0496 15 11.49 14.4404 11.49 13.75C11.49 13.0596 12.0496 12.5 12.74 12.5H12.75C13.4404 12.5 14 13.0596 14 13.75Z" fill="#000001"/>
</g>
</g>
</svg>
