<svg width="16" height="16" viewBox="0 0 16 16" fill="none" xmlns="http://www.w3.org/2000/svg">
<g id="size=16">
<g id="Union">
<path d="M7.77364 5.26276C7.49034 4.9997 7.47393 4.55679 7.737 4.27349C8.00006 3.99019 8.44297 3.97379 8.72627 4.23685L12.2263 7.48685C12.3689 7.6193 12.45 7.80516 12.45 7.99981C12.45 8.19446 12.3689 8.38031 12.2263 8.51276L8.72627 11.7628C8.44297 12.0258 8.00006 12.0094 7.737 11.7261C7.47393 11.4428 7.49034 10.9999 7.77364 10.7369L10.7212 7.99981L7.77364 5.26276Z" fill="black"/>
<path fill-rule="evenodd" clip-rule="evenodd" d="M1 3.25C1 2.00736 2.00736 1 3.25 1H12.75C13.9926 1 15 2.00736 15 3.25V12.75C15 13.9926 13.9926 15 12.75 15H3.25C2.00736 15 1 13.9926 1 12.75V3.25ZM3.25 2.5C2.83579 2.5 2.5 2.83579 2.5 3.25V12.75C2.5 13.1642 2.83579 13.5 3.25 13.5H4.55005V2.5H3.25ZM12.75 13.5H5.95005V2.5H12.75C13.1642 2.5 13.5 2.83579 13.5 3.25V12.75C13.5 13.1642 13.1642 13.5 12.75 13.5Z" fill="black"/>
</g>
</g>
</svg>
