<svg width="16" height="16" viewBox="0 0 16 16" fill="none" xmlns="http://www.w3.org/2000/svg">
<g id="Size=16">
<g id="Union">
<path d="M11.7264 5.26276C12.0097 4.9997 12.0261 4.55679 11.763 4.27349C11.4999 3.99019 11.057 3.97379 10.7737 4.23685L7.27373 7.48685C7.1311 7.6193 7.05005 7.80516 7.05005 7.99981C7.05005 8.19446 7.1311 8.38031 7.27373 8.51276L10.7737 11.7628C11.057 12.0258 11.4999 12.0094 11.763 11.7261C12.0261 11.4428 12.0097 10.9999 11.7264 10.7369L8.77878 7.99981L11.7264 5.26276Z" fill="black"/>
<path fill-rule="evenodd" clip-rule="evenodd" d="M1 3.25C1 2.00736 2.00736 1 3.25 1H12.75C13.9926 1 15 2.00736 15 3.25V12.75C15 13.9926 13.9926 15 12.75 15H3.25C2.00736 15 1 13.9926 1 12.75V3.25ZM3.25 2.5C2.83579 2.5 2.5 2.83579 2.5 3.25V12.75C2.5 13.1642 2.83579 13.5 3.25 13.5H4.55005V2.5H3.25ZM12.75 13.5H5.95005V2.5H12.75C13.1642 2.5 13.5 2.83579 13.5 3.25V12.75C13.5 13.1642 13.1642 13.5 12.75 13.5Z" fill="black"/>
</g>
</g>
</svg>
