<svg width="16" height="16" viewBox="0 0 16 16" fill="none" xmlns="http://www.w3.org/2000/svg">
<g id="Size=16">
<g id="Union">
<path d="M6.5 1.75C6.5 1.33579 6.16421 1 5.75 1H3.25C2.00736 1 1 2.00736 1 3.25V12.75C1 13.9926 2.00736 15 3.25 15H5.75C6.16421 15 6.5 14.6642 6.5 14.25C6.5 13.8358 6.16421 13.5 5.75 13.5H3.25C2.83579 13.5 2.5 13.1642 2.5 12.75V3.25C2.5 2.83579 2.83579 2.5 3.25 2.5H5.75C6.16421 2.5 6.5 2.16421 6.5 1.75Z" fill="black"/>
<path d="M9.96967 3.71967C10.2626 3.42678 10.7374 3.42678 11.0303 3.71967L14.5303 7.21967C14.8232 7.51256 14.8232 7.98744 14.5303 8.28033L11.0303 11.7803C10.7374 12.0732 10.2626 12.0732 9.96967 11.7803C9.67678 11.4874 9.67678 11.0126 9.96967 10.7197L12.1893 8.5H6C5.58579 8.5 5.25 8.16421 5.25 7.75C5.25 7.33579 5.58579 7 6 7H12.1893L9.96967 4.78033C9.67678 4.48744 9.67678 4.01256 9.96967 3.71967Z" fill="black"/>
</g>
</g>
</svg>
