<svg width="16" height="16" viewBox="0 0 16 16" fill="none" xmlns="http://www.w3.org/2000/svg">
<g id="size=16">
<g id="Union">
<path d="M9.5 1.75C9.5 1.33579 9.83579 1 10.25 1H12.75C13.9926 1 15 2.00736 15 3.25V12.75C15 13.9926 13.9926 15 12.75 15H10.25C9.83579 15 9.5 14.6642 9.5 14.25C9.5 13.8358 9.83579 13.5 10.25 13.5H12.75C13.1642 13.5 13.5 13.1642 13.5 12.75V3.25C13.5 2.83579 13.1642 2.5 12.75 2.5H10.25C9.83579 2.5 9.5 2.16421 9.5 1.75Z" fill="#000001"/>
<path d="M5.96967 3.71967C6.26256 3.42678 6.73744 3.42678 7.03033 3.71967L10.5303 7.21967C10.671 7.36032 10.75 7.55109 10.75 7.75C10.75 7.94891 10.671 8.13968 10.5303 8.28033L7.03033 11.7803C6.73744 12.0732 6.26256 12.0732 5.96967 11.7803C5.67678 11.4874 5.67678 11.0126 5.96967 10.7197L8.18934 8.5H2C1.58579 8.5 1.25 8.16421 1.25 7.75C1.25 7.33579 1.58579 7 2 7H8.18934L5.96967 4.78033C5.67678 4.48744 5.67678 4.01256 5.96967 3.71967Z" fill="#000001"/>
</g>
</g>
</svg>
