<svg width="24" height="24" viewBox="0 0 24 24" fill="none" xmlns="http://www.w3.org/2000/svg">
<g id="size=24">
<g id="Union">
<path d="M9.5 2.75C9.5 2.33579 9.16421 2 8.75 2H4.75C3.23122 2 2 3.23122 2 4.75V19.25C2 20.7688 3.23122 22 4.75 22H8.75C9.16421 22 9.5 21.6642 9.5 21.25C9.5 20.8358 9.16421 20.5 8.75 20.5H4.75C4.05964 20.5 3.5 19.9404 3.5 19.25V4.75C3.5 4.05964 4.05964 3.5 4.75 3.5H8.75C9.16421 3.5 9.5 3.16421 9.5 2.75Z" fill="black"/>
<path d="M15.4697 6.21967C15.7626 5.92678 16.2374 5.92678 16.5303 6.21967L21.5303 11.2197C21.8232 11.5126 21.8232 11.9874 21.5303 12.2803L16.5303 17.2803C16.2374 17.5732 15.7626 17.5732 15.4697 17.2803C15.1768 16.9874 15.1768 16.5126 15.4697 16.2197L19.1893 12.5H9C8.58579 12.5 8.25 12.1642 8.25 11.75C8.25 11.3358 8.58579 11 9 11H19.1893L15.4697 7.28033C15.1768 6.98744 15.1768 6.51256 15.4697 6.21967Z" fill="black"/>
</g>
</g>
</svg>
