<svg width="16" height="16" viewBox="0 0 16 16" fill="none" xmlns="http://www.w3.org/2000/svg">
<g id="Size=16">
<g id="Union">
<path fill-rule="evenodd" clip-rule="evenodd" d="M11.2408 2.50013C12.4 1.68185 14 2.51088 14 3.92982V12.07C14 13.4889 12.4 14.3179 11.2408 13.4997L5.47486 9.42959C4.48712 8.73237 4.48712 7.26743 5.47486 6.57021L11.2408 2.50013ZM12.5 3.92982C12.5 3.72711 12.2714 3.60868 12.1058 3.72558L6.33988 7.79566C6.19878 7.89526 6.19878 8.10454 6.33988 8.20414L12.1058 12.2742C12.2714 12.3911 12.5 12.2727 12.5 12.07V3.92982Z" fill="black"/>
<path d="M3.5 3C3.5 2.58579 3.16421 2.25 2.75 2.25C2.33579 2.25 2 2.58579 2 3V13C2 13.4142 2.33579 13.75 2.75 13.75C3.16421 13.75 3.5 13.4142 3.5 13V3Z" fill="black"/>
</g>
</g>
</svg>
