<svg width="16" height="16" viewBox="0 0 16 16" fill="none" xmlns="http://www.w3.org/2000/svg">
<g id="size=16">
<g id="Union">
<path fill-rule="evenodd" clip-rule="evenodd" d="M4.7592 2.50013C3.59997 1.68185 2 2.51088 2 3.92982V12.07C2 13.4889 3.59997 14.3179 4.7592 13.4997L10.5251 9.42959C11.5129 8.73237 11.5129 7.26743 10.5251 6.57021L4.7592 2.50013ZM3.5 3.92982C3.5 3.72711 3.72857 3.60868 3.89417 3.72558L9.66012 7.79566C9.80122 7.89526 9.80122 8.10454 9.66012 8.20414L3.89417 12.2742C3.72857 12.3911 3.5 12.2727 3.5 12.07V3.92982Z" fill="black"/>
<path d="M14 3C14 2.58579 13.6642 2.25 13.25 2.25C12.8358 2.25 12.5 2.58579 12.5 3V13C12.5 13.4142 12.8358 13.75 13.25 13.75C13.6642 13.75 14 13.4142 14 13V3Z" fill="black"/>
</g>
</g>
</svg>
