<svg width="24" height="24" viewBox="0 0 24 24" fill="none" xmlns="http://www.w3.org/2000/svg">
<g id="Size=24">
<g id="Union">
<path fill-rule="evenodd" clip-rule="evenodd" d="M6.76417 4.51196C5.60553 3.68804 4 4.51642 4 5.93814V18.0618C4 19.4835 5.60553 20.3119 6.76417 19.488L15.2886 13.4261C16.2697 12.7285 16.2697 11.2715 15.2886 10.5738L6.76417 4.51196ZM5.5 5.93814C5.5 5.73503 5.72936 5.61669 5.89488 5.7344L14.4193 11.7962C14.5595 11.8959 14.5595 12.104 14.4193 12.2037L5.89488 18.2655C5.72936 18.3832 5.5 18.2649 5.5 18.0618V5.93814Z" fill="black"/>
<path d="M19.5 5C19.5 4.58579 19.1642 4.25 18.75 4.25C18.3358 4.25 18 4.58579 18 5V19C18 19.4142 18.3358 19.75 18.75 19.75C19.1642 19.75 19.5 19.4142 19.5 19V5Z" fill="black"/>
</g>
</g>
</svg>
