<svg width="16" height="16" viewBox="0 0 16 16" fill="none" xmlns="http://www.w3.org/2000/svg">
<g id="Size=16, Style=Color">
<g id="Group">
<path id="Shape" fill-rule="evenodd" clip-rule="evenodd" d="M2.47105 11.3175C3.28242 11.3156 3.93968 10.6583 3.94162 9.84697V9.84662V8.3764H2.4707C1.65947 8.37854 1.00243 9.03574 1.00049 9.84697C1.00243 10.6583 1.65969 11.3156 2.47105 11.3175ZM6.15309 8.37643C5.34172 8.37838 4.68446 9.03563 4.68252 9.847V13.5296C4.68466 14.341 5.34207 14.9981 6.15344 14.9998C6.96467 14.9977 7.62171 14.3405 7.62365 13.5292V9.84664C7.62151 9.03542 6.96431 8.37837 6.15309 8.37643Z" fill="#E01E5A"/>
<path id="Shape_2" fill-rule="evenodd" clip-rule="evenodd" d="M4.68252 2.47105C4.68446 3.28242 5.34172 3.93968 6.15309 3.94162H6.15344H7.62365V2.4707C7.62151 1.65947 6.96431 1.00243 6.15309 1.00049C5.34172 1.00243 4.68446 1.65969 4.68252 2.47105ZM7.62373 6.15312C7.62179 5.34175 6.96453 4.68449 6.15317 4.68255H6.15281H2.47021C1.65885 4.68469 1.00175 5.34211 1 6.15347C1.00214 6.9647 1.65934 7.62174 2.47057 7.62368H6.15352C6.96475 7.62155 7.62179 6.96435 7.62373 6.15312Z" fill="#36C5F0"/>
<path id="Shape_3" fill-rule="evenodd" clip-rule="evenodd" d="M9.84728 7.62373C10.6586 7.62179 11.3159 6.96453 11.3178 6.15317V6.15281V2.47021C11.3157 1.65885 10.6583 1.00175 9.84692 1C9.03569 1.00214 8.37865 1.65934 8.37671 2.47057V6.15352C8.37885 6.96475 9.03605 7.62179 9.84728 7.62373ZM13.5293 4.68258C12.7179 4.68452 12.0607 5.34178 12.0587 6.15314V6.1535V7.62371H13.5296C14.3409 7.62157 14.9979 6.96437 14.9999 6.15314C14.9979 5.34178 14.3407 4.68452 13.5293 4.68258Z" fill="#2EB67D"/>
<path id="Shape_4" fill-rule="evenodd" clip-rule="evenodd" d="M8.37676 9.84697C8.3787 10.6583 9.03596 11.3156 9.84732 11.3175H13.5299C14.3413 11.3154 14.9984 10.658 15.0001 9.84662C14.998 9.03539 14.3408 8.37835 13.5296 8.3764H9.84697C9.03574 8.37854 8.3787 9.03574 8.37676 9.84697ZM11.3178 13.5292C11.3159 12.7179 10.6586 12.0606 9.84728 12.0587H9.84692H8.37671V13.5296C8.37885 14.3408 9.03605 14.9979 9.84728 14.9998C10.6586 14.9979 11.3159 14.3406 11.3178 13.5292Z" fill="#ECB22E"/>
</g>
</g>
</svg>
