<svg viewBox="0 0 16 16" width="16" height="16" fill="currentColor" xmlns="http://www.w3.org/2000/svg">
 <g transform="translate(1, 1)">
  <path d="M8.63341 3.32316C8.86918 2.9826 9.3364 2.89765 9.67696 3.13342C10.0175 3.3692 10.1025 3.83641 9.8667 4.17698L5.3667 10.677C5.13092 11.0175 4.66371 11.1025 4.32315 10.8667C3.98258 10.6309 3.89764 10.1637 4.13341 9.82316L8.63341 3.32316Z" fill-rule="NONZERO"></path>
  <path d="M2.25 0C1.00736 0 0 1.00736 0 2.25L0 11.75C0 12.9926 1.00736 14 2.25 14L11.75 14C12.9926 14 14 12.9926 14 11.75L14 2.25C14 1.00736 12.9926 0 11.75 0L2.25 0ZM1.5 2.25C1.5 1.83579 1.83579 1.5 2.25 1.5L11.75 1.5C12.1642 1.5 12.5 1.83579 12.5 2.25L12.5 11.75C12.5 12.1642 12.1642 12.5 11.75 12.5L2.25 12.5C1.83579 12.5 1.5 12.1642 1.5 11.75L1.5 2.25Z" fill-rule="EVENODD"></path>
 </g>
</svg>