<svg width="16" height="16" viewBox="0 0 16 16" fill="none" xmlns="http://www.w3.org/2000/svg">
<g id="size=16">
<g id="Union">
<path d="M2.75 1C3.16421 1 3.5 1.33579 3.5 1.75V7.25C3.5 7.66421 3.16421 8 2.75 8C2.33579 8 2 7.66421 2 7.25V1.75C2 1.33579 2.33579 1 2.75 1Z" fill="black"/>
<path d="M2 10.5L2 14.25C2 14.6642 2.33579 15 2.75 15C3.16421 15 3.5 14.6642 3.5 14.25L3.5 10.5H4.5C4.91421 10.5 5.25 10.1642 5.25 9.75C5.25 9.33579 4.91421 9 4.5 9H1C0.585786 9 0.25 9.33579 0.25 9.75C0.25 10.1642 0.585786 10.5 1 10.5H2Z" fill="black"/>
<path d="M8.5 7.75C8.5 7.33579 8.16421 7 7.75 7C7.33579 7 7 7.33579 7 7.75V14.25C7 14.6642 7.33579 15 7.75 15C8.16421 15 8.5 14.6642 8.5 14.25V7.75Z" fill="black"/>
<path d="M7.75 1C8.16421 1 8.5 1.33579 8.5 1.75V4.5H9.5C9.91421 4.5 10.25 4.83579 10.25 5.25C10.25 5.66421 9.91421 6 9.5 6H6C5.58579 6 5.25 5.66421 5.25 5.25C5.25 4.83579 5.58579 4.5 6 4.5H7V1.75C7 1.33579 7.33579 1 7.75 1Z" fill="black"/>
<path d="M14.5 10C14.9142 10 15.25 10.3358 15.25 10.75C15.25 11.1642 14.9142 11.5 14.5 11.5H13.5V14.25C13.5 14.6642 13.1642 15 12.75 15C12.3358 15 12 14.6642 12 14.25V11.5H11C10.5858 11.5 10.25 11.1642 10.25 10.75C10.25 10.3358 10.5858 10 11 10H14.5Z" fill="black"/>
<path d="M12.75 1C13.1642 1 13.5 1.33579 13.5 1.75V8.25C13.5 8.66421 13.1642 9 12.75 9C12.3358 9 12 8.66421 12 8.25V1.75C12 1.33579 12.3358 1 12.75 1Z" fill="black"/>
</g>
</g>
</svg>
