<svg viewBox="0 0 24 24" width="24" height="24" fill="currentColor" xmlns="http://www.w3.org/2000/svg">
 <g transform="translate(4, 1)">
  <path d="M8 18C7.44772 18 7 18.4477 7 19C7 19.5523 7.44772 20 8 20L8.00999 20C8.56228 20 9.00999 19.5523 9.00999 19C9.00999 18.4477 8.56228 18 8.00999 18L8 18Z" fill-rule="NONZERO"></path>
  <path d="M2.75 0C1.23122 0 0 1.23122 0 2.75L0 19.25C0 20.7688 1.23122 22 2.75 22L13.25 22C14.7688 22 16 20.7688 16 19.25L16 2.75C16 1.23122 14.7688 0 13.25 0L2.75 0ZM1.5 2.75C1.5 2.05964 2.05964 1.5 2.75 1.5L13.25 1.5C13.9404 1.5 14.5 2.05964 14.5 2.75L14.5 19.25C14.5 19.9404 13.9404 20.5 13.25 20.5L2.75 20.5C2.05964 20.5 1.5 19.9404 1.5 19.25L1.5 2.75Z" fill-rule="EVENODD"></path>
 </g>
</svg>