<svg width="16" height="16" viewBox="0 0 16 16" fill="none" xmlns="http://www.w3.org/2000/svg">
<g id="Size=16">
<g id="Union">
<path d="M7.99997 12C6.99041 12 6.21782 11.4957 5.73296 11.055C5.48611 10.8305 5.29693 10.6078 5.16882 10.4407C5.09354 10.3425 5.0207 10.242 4.95685 10.1359C4.74374 9.78069 4.85891 9.31999 5.2141 9.10688C5.56826 8.89438 6.02733 9.00828 6.24125 9.36108C6.27743 9.41879 6.31781 9.47402 6.35923 9.52805C6.44675 9.64221 6.57632 9.79446 6.74197 9.94505C7.08211 10.2543 7.50952 10.5 7.99997 10.5C8.49041 10.5 8.91782 10.2543 9.25796 9.94505C9.42361 9.79446 9.55318 9.64221 9.6407 9.52805C9.68212 9.47403 9.7225 9.41879 9.75868 9.36108C9.9726 9.00829 10.4317 8.89438 10.7858 9.10688C11.141 9.31999 11.2562 9.78069 11.0431 10.1359L10.8311 10.4407C10.703 10.6078 10.5138 10.8305 10.267 11.055C9.78211 11.4957 9.00952 12 7.99997 12Z" fill="black"/>
<path d="M5 6C5 5.44772 5.44772 5 6 5H6.00667C6.55895 5 7.00667 5.44772 7.00667 6C7.00667 6.55228 6.55895 7 6.00667 7H6C5.44772 7 5 6.55228 5 6Z" fill="black"/>
<path d="M10 5C9.44771 5 9 5.44772 9 6C9 6.55228 9.44771 7 10 7H10.0067C10.559 7 11.0067 6.55228 11.0067 6C11.0067 5.44772 10.559 5 10.0067 5H10Z" fill="black"/>
<path fill-rule="evenodd" clip-rule="evenodd" d="M8 0C3.58172 0 0 3.58172 0 8C0 12.4183 3.58172 16 8 16C12.4183 16 16 12.4183 16 8C16 3.58172 12.4183 0 8 0ZM1.5 8C1.5 4.41015 4.41015 1.5 8 1.5C11.5899 1.5 14.5 4.41015 14.5 8C14.5 11.5899 11.5899 14.5 8 14.5C4.41015 14.5 1.5 11.5899 1.5 8Z" fill="black"/>
</g>
</g>
</svg>
