<svg width="24" height="24" viewBox="0 0 24 24" fill="none" xmlns="http://www.w3.org/2000/svg">
<g id="Size=24">
<g id="Union">
<path d="M7.36211 14.6932C7.57808 14.9584 7.89638 15.3109 8.31004 15.6649C9.12941 16.3659 10.387 17.125 12 17.125C13.613 17.125 14.8706 16.3659 15.6899 15.6649C16.1036 15.3109 16.4219 14.9584 16.6379 14.6932C16.7463 14.5601 16.8302 14.4475 16.8886 14.3656L16.9878 14.2204C17.2476 13.8129 17.1278 13.2719 16.7204 13.0122C16.3136 12.7529 15.7736 12.8724 15.5132 13.278C15.4417 13.3854 15.3625 13.488 15.2811 13.588C15.1152 13.7916 14.869 14.0641 14.5522 14.3351C13.9108 14.8839 13.0434 15.375 12 15.375C10.9566 15.375 10.0891 14.8839 9.44775 14.3351C9.13094 14.0641 8.88479 13.7916 8.71892 13.588C8.63726 13.4878 8.55791 13.385 8.48628 13.2773C8.22592 12.8717 7.68632 12.7529 7.27962 13.0122C6.87214 13.2719 6.75239 13.8129 7.01216 14.2204C7.11758 14.3855 7.23854 14.5416 7.36211 14.6932Z" fill="black"/>
<path d="M8 9C8 8.44772 8.44772 8 9 8H9.01C9.56229 8 10.01 8.44772 10.01 9C10.01 9.55229 9.56229 10 9.01 10H9C8.44772 10 8 9.55229 8 9Z" fill="black"/>
<path d="M15 8C14.4477 8 14 8.44772 14 9C14 9.55229 14.4477 10 15 10H15.01C15.5623 10 16.01 9.55229 16.01 9C16.01 8.44772 15.5623 8 15.01 8H15Z" fill="black"/>
<path fill-rule="evenodd" clip-rule="evenodd" d="M12 1C5.92487 1 1 5.92487 1 12C1 18.0751 5.92487 23 12 23C18.0751 23 23 18.0751 23 12C23 5.92487 18.0751 1 12 1ZM2.5 12C2.5 6.75329 6.75329 2.5 12 2.5C17.2467 2.5 21.5 6.75329 21.5 12C21.5 17.2467 17.2467 21.5 12 21.5C6.75329 21.5 2.5 17.2467 2.5 12Z" fill="black"/>
</g>
</g>
</svg>
