<svg width="16" height="16" viewBox="0 0 16 16" fill="none" xmlns="http://www.w3.org/2000/svg">
<g id="Size=16">
<g id="Union">
<path d="M5 8C5 7.44772 5.44772 7 6 7H6.01C6.56228 7 7.01 7.44772 7.01 8C7.01 8.55229 6.56228 9 6.01 9H6C5.44772 9 5 8.55229 5 8Z" fill="black"/>
<path d="M10.01 7C9.45772 7 9.01001 7.44772 9.01001 8C9.01001 8.55229 9.45772 9 10.01 9H10.02C10.5723 9 11.02 8.55229 11.02 8C11.02 7.44772 10.5723 7 10.02 7H10.01Z" fill="black"/>
<path fill-rule="evenodd" clip-rule="evenodd" d="M8 2.5C4.96243 2.5 2.5 4.96243 2.5 8C2.5 11.0376 4.96243 13.5 8 13.5C11.0376 13.5 13.5 11.0376 13.5 8C13.5 4.96243 11.0376 2.5 8 2.5ZM4 8C4 5.79086 5.79086 4 8 4C10.2091 4 12 5.79086 12 8C12 10.2091 10.2091 12 8 12C5.79086 12 4 10.2091 4 8Z" fill="black"/>
<path fill-rule="evenodd" clip-rule="evenodd" d="M2.25 0C1.00736 0 0 1.00736 0 2.25V13.75C0 14.9926 1.00736 16 2.25 16H13.75C14.9926 16 16 14.9926 16 13.75V2.25C16 1.00736 14.9926 0 13.75 0H2.25ZM1.5 2.25C1.5 1.83579 1.83579 1.5 2.25 1.5H13.75C14.1642 1.5 14.5 1.83579 14.5 2.25V13.75C14.5 14.1642 14.1642 14.5 13.75 14.5H2.25C1.83579 14.5 1.5 14.1642 1.5 13.75V2.25Z" fill="black"/>
</g>
</g>
</svg>
