<svg width="16" height="16" viewBox="0 0 16 16" fill="none" xmlns="http://www.w3.org/2000/svg">
<g id="size=16">
<g id="Union">
<path fill-rule="evenodd" clip-rule="evenodd" d="M8.00005 5.5498C5.81852 5.5498 4.05005 7.31828 4.05005 9.4998C4.05005 11.6813 5.81852 13.4498 8.00005 13.4498C10.1816 13.4498 11.95 11.6813 11.95 9.4998C11.95 7.31828 10.1816 5.5498 8.00005 5.5498ZM5.45005 9.4998C5.45005 8.09148 6.59172 6.9498 8.00005 6.9498C9.40837 6.9498 10.55 8.09148 10.55 9.4998C10.55 10.9081 9.40837 12.0498 8.00005 12.0498C6.59172 12.0498 5.45005 10.9081 5.45005 9.4998Z" fill="black"/>
<path fill-rule="evenodd" clip-rule="evenodd" d="M3.25 0C2.00736 0 1 1.00736 1 2.25V13.75C1 14.9926 2.00736 16 3.25 16H12.75C13.9926 16 15 14.9926 15 13.75V2.25C15 1.00736 13.9926 0 12.75 0H3.25ZM2.5 2.25C2.5 1.83579 2.83579 1.5 3.25 1.5H12.75C13.1642 1.5 13.5 1.83579 13.5 2.25V13.75C13.5 14.1642 13.1642 14.5 12.75 14.5H3.25C2.83579 14.5 2.5 14.1642 2.5 13.75V2.25Z" fill="black"/>
</g>
</g>
</svg>
