<svg width="16" height="16" viewBox="0 0 16 16" fill="none" xmlns="http://www.w3.org/2000/svg">
<g id="size=16" clip-path="url(#clip0)">
<path id="Vector (Stroke)" fill-rule="evenodd" clip-rule="evenodd" d="M8.00002 0.5C8.2832 0.5 8.54223 0.659491 8.66972 0.912344L10.7338 5.0062L15.3563 5.66766C15.6406 5.70835 15.8768 5.90789 15.9643 6.18148C16.0519 6.45507 15.9755 6.75464 15.7676 6.95288L12.433 10.1326L13.2193 14.6206C13.2684 14.9011 13.1544 15.1853 12.925 15.3541C12.6956 15.5229 12.3904 15.5472 12.1372 15.4168L8.00002 13.2868L3.86283 15.4168C3.60961 15.5472 3.30441 15.5229 3.07501 15.3541C2.84562 15.1853 2.73163 14.9011 2.78077 14.6206L3.56703 10.1326L0.232449 6.95288C0.0245535 6.75464 -0.0518472 6.45507 0.0357152 6.18148C0.123278 5.90789 0.359418 5.70835 0.643783 5.66766L5.26623 5.0062L7.33033 0.912344C7.45782 0.659491 7.71685 0.5 8.00002 0.5ZM8.00002 2.9159L6.42947 6.03087C6.31909 6.24978 6.1087 6.40093 5.86601 6.43565L2.38588 6.93365L4.8926 9.32393C5.07404 9.49695 5.15704 9.74919 5.11377 9.99614L4.51887 13.3919L7.65672 11.7764C7.87215 11.6655 8.1279 11.6655 8.34333 11.7764L11.4812 13.3919L10.8863 9.99614C10.843 9.74919 10.926 9.49695 11.1074 9.32393L13.6142 6.93365L10.134 6.43565C9.89135 6.40093 9.68095 6.24978 9.57058 6.03087L8.00002 2.9159Z" fill="black"/>
</g>
<defs>
<clipPath id="clip0">
<rect width="16" height="16" fill="white"/>
</clipPath>
</defs>
</svg>
