<svg width="16" height="16" viewBox="0 0 16 16" fill="none" xmlns="http://www.w3.org/2000/svg">
<g id="size=16" clip-path="url(#clip0)">
<g id="Union">
<path d="M8.66972 0.912344C8.54223 0.659491 8.2832 0.5 8.00002 0.5C7.71685 0.5 7.45782 0.659491 7.33033 0.912344L6.44799 2.66234C6.26151 3.03221 6.41016 3.48321 6.78003 3.66969C7.14989 3.85617 7.60089 3.70752 7.78737 3.33766L8.00002 2.9159L9.57058 6.03087C9.68095 6.24978 9.89135 6.40093 10.134 6.43566L13.6142 6.93365L12.3152 8.17229C12.0154 8.45814 12.0041 8.93288 12.29 9.23265C12.5758 9.53243 13.0506 9.54371 13.3503 9.25786L15.7676 6.95288C15.9755 6.75464 16.0519 6.45507 15.9643 6.18148C15.8768 5.90789 15.6406 5.70835 15.3563 5.66766L10.7338 5.0062L8.66972 0.912344Z" fill="#000001"/>
<path fill-rule="evenodd" clip-rule="evenodd" d="M13.1469 14.2076L13.2193 14.6206C13.2684 14.9011 13.1544 15.1853 12.925 15.3541C12.6956 15.5229 12.3904 15.5472 12.1372 15.4168L8.00002 13.2868L3.86283 15.4168C3.60961 15.5472 3.30441 15.5229 3.07501 15.3541C2.84562 15.1853 2.73163 14.9011 2.78077 14.6206L3.56703 10.1326L0.232449 6.95288C0.0245535 6.75464 -0.0518472 6.45507 0.0357152 6.18148C0.123278 5.90789 0.359418 5.70835 0.643783 5.66766L4.11087 5.17153L1.21967 2.28033C0.926777 1.98744 0.926777 1.51256 1.21967 1.21967C1.51256 0.926777 1.98744 0.926777 2.28033 1.21967L14.7803 13.7197C15.0732 14.0126 15.0732 14.4874 14.7803 14.7803C14.4874 15.0732 14.0126 15.0732 13.7197 14.7803L13.1469 14.2076ZM5.43646 6.49712L2.38588 6.93365L4.8926 9.32393C5.07404 9.49695 5.15704 9.74919 5.11377 9.99614L4.51887 13.3919L7.65671 11.7764C7.87215 11.6655 8.1279 11.6655 8.34333 11.7764L11.4812 13.3919L11.3006 12.3613L5.43646 6.49712Z" fill="#000001"/>
</g>
</g>
<defs>
<clipPath id="clip0">
<rect width="16" height="16" fill="white"/>
</clipPath>
</defs>
</svg>
