<svg width="16" height="16" viewBox="0 0 16 16" fill="none" xmlns="http://www.w3.org/2000/svg">
<g id="size=16">
<path id="Vector (Stroke)" fill-rule="evenodd" clip-rule="evenodd" d="M8 0.499999C8.28317 0.499999 8.5422 0.659489 8.66969 0.912341L10.7338 5.00619L15.3562 5.66764C15.6406 5.70833 15.8767 5.90787 15.9643 6.18146C16.0518 6.45505 15.9754 6.75462 15.7676 6.95286L12.433 10.1325L13.2192 14.6205C13.2684 14.9011 13.1544 15.1852 12.925 15.354C12.6956 15.5228 12.3904 15.5471 12.1372 15.4168L8 13.2867L3.86282 15.4168C3.6096 15.5471 3.3044 15.5228 3.075 15.354C2.84561 15.1852 2.73162 14.9011 2.78077 14.6205L3.56702 10.1325L0.232448 6.95286C0.0245534 6.75462 -0.051847 6.45505 0.0357151 6.18146C0.123277 5.90787 0.359417 5.70833 0.643781 5.66764L5.26621 5.00619L7.33031 0.912341C7.4578 0.659489 7.71683 0.499999 8 0.499999ZM8 2.91589L6.42945 6.03086C6.31907 6.24976 6.10868 6.40091 5.866 6.43564L2.38587 6.93363L4.89258 9.3239C5.07403 9.49692 5.15702 9.74916 5.11376 9.99611L4.51885 13.3919L7.65669 11.7764C7.87213 11.6655 8.12787 11.6655 8.34331 11.7764L11.4811 13.3919L10.8862 9.99611C10.843 9.74916 10.926 9.49692 11.1074 9.3239L13.6141 6.93363L10.134 6.43564C9.89132 6.40091 9.68092 6.24976 9.57055 6.03086L8 2.91589Z" fill="#000001"/>
</g>
</svg>
