<svg width="16" height="16" viewBox="0 0 16 16" fill="none" xmlns="http://www.w3.org/2000/svg">
<g id="Size=16" clip-path="url(#clip0)">
<path id="Union" d="M8.66972 0.912344C8.54223 0.659491 8.2832 0.5 8.00002 0.5C7.71685 0.5 7.45782 0.659491 7.33033 0.912344L5.26623 5.0062L0.643783 5.66766C0.359418 5.70835 0.123278 5.90789 0.0357152 6.18148C-0.0518472 6.45507 0.0245535 6.75464 0.232449 6.95288L3.56703 10.1326L2.78077 14.6206C2.73163 14.9011 2.84562 15.1853 3.07501 15.3541C3.30441 15.5229 3.60961 15.5472 3.86283 15.4168L8.00002 13.2868L12.1372 15.4168C12.3904 15.5472 12.6956 15.5229 12.925 15.3541C13.1544 15.1853 13.2684 14.9011 13.2193 14.6206L12.433 10.1326L15.7676 6.95288C15.9755 6.75464 16.0519 6.45507 15.9643 6.18148C15.8768 5.90789 15.6406 5.70835 15.3563 5.66766L10.7338 5.0062L8.66972 0.912344Z" fill="black"/>
</g>
<defs>
<clipPath id="clip0">
<rect width="16" height="16" fill="white"/>
</clipPath>
</defs>
</svg>
