<svg width="24" height="24" viewBox="0 0 24 24" fill="none" xmlns="http://www.w3.org/2000/svg">
<g id="Size=24">
<path id="Union" d="M12.6726 1.41809C12.5462 1.16208 12.2855 1 12 1C11.7145 1 11.4538 1.16208 11.3275 1.41809L8.33453 7.48285L1.64153 8.46136C1.35913 8.50265 1.12463 8.70063 1.0366 8.97212C0.948559 9.2436 1.02223 9.54152 1.22666 9.74068L6.06915 14.4584L4.92631 21.1232C4.87806 21.4046 4.99376 21.689 5.22476 21.8568C5.45576 22.0246 5.76199 22.0467 6.01467 21.9138L12 18.7654L17.9854 21.9138C18.2381 22.0467 18.5443 22.0246 18.7753 21.8568C19.0063 21.689 19.122 21.4046 19.0737 21.1232L17.9309 14.4584L22.7734 9.74068C22.9778 9.54152 23.0515 9.2436 22.9634 8.97212C22.8754 8.70063 22.6409 8.50265 22.3585 8.46136L15.6655 7.48285L12.6726 1.41809Z" fill="black"/>
</g>
</svg>
