<svg width="24" height="24" viewBox="0 0 24 24" fill="none" xmlns="http://www.w3.org/2000/svg">
<g id="Size=24">
<g id="Union">
<path fill-rule="evenodd" clip-rule="evenodd" d="M8.75 7C7.7835 7 7 7.7835 7 8.75V15.25C7 16.2165 7.7835 17 8.75 17H15.25C16.2165 17 17 16.2165 17 15.25V8.75C17 7.7835 16.2165 7 15.25 7H8.75ZM8.5 8.75C8.5 8.61193 8.61193 8.5 8.75 8.5H15.25C15.3881 8.5 15.5 8.61193 15.5 8.75V15.25C15.5 15.3881 15.3881 15.5 15.25 15.5H8.75C8.61193 15.5 8.5 15.3881 8.5 15.25V8.75Z" fill="black"/>
<path fill-rule="evenodd" clip-rule="evenodd" d="M12 1C5.92487 1 1 5.92487 1 12C1 18.0751 5.92487 23 12 23C18.0751 23 23 18.0751 23 12C23 5.92487 18.0751 1 12 1ZM2.5 12C2.5 6.75329 6.75329 2.5 12 2.5C17.2467 2.5 21.5 6.75329 21.5 12C21.5 17.2467 17.2467 21.5 12 21.5C6.75329 21.5 2.5 17.2467 2.5 12Z" fill="black"/>
</g>
</g>
</svg>
