<svg viewBox="0 0 16 16" width="16" height="16" fill="currentColor" xmlns="http://www.w3.org/2000/svg">
 <g transform="translate(0.25, 0.25)">
  <path d="M7.75 0C8.16421 0 8.5 0.335786 8.5 0.75L8.5 2.02273C8.5 2.43694 8.16421 2.77273 7.75 2.77273C7.33579 2.77273 7 2.43694 7 2.02273L7 0.75C7 0.335786 7.33579 0 7.75 0Z" fill-rule="NONZERO"></path>
  <path d="M3.75 7.75C3.75 5.54086 5.54086 3.75 7.75 3.75C9.95914 3.75 11.75 5.54086 11.75 7.75C11.75 9.95914 9.95914 11.75 7.75 11.75C5.54086 11.75 3.75 9.95914 3.75 7.75ZM7.75 5.25C6.36929 5.25 5.25 6.36929 5.25 7.75C5.25 9.13071 6.36929 10.25 7.75 10.25C9.13071 10.25 10.25 9.13071 10.25 7.75C10.25 6.36929 9.13071 5.25 7.75 5.25Z" fill-rule="EVENODD"></path>
  <path d="M8.5 13.4775C8.5 13.0633 8.16421 12.7275 7.75 12.7275C7.33579 12.7275 7 13.0633 7 13.4775L7 14.7503C7 15.1645 7.33579 15.5003 7.75 15.5003C8.16421 15.5003 8.5 15.1645 8.5 14.7503L8.5 13.4775Z" fill-rule="NONZERO"></path>
  <path d="M2.26874 2.2685C2.56164 1.9756 3.03651 1.9756 3.3294 2.2685L4.23304 3.17213C4.52593 3.46503 4.52593 3.9399 4.23304 4.23279C3.94015 4.52569 3.46527 4.52569 3.17238 4.23279L2.26874 3.32916C1.97585 3.03626 1.97585 2.56139 2.26874 2.2685Z" fill-rule="NONZERO"></path>
  <path d="M12.3277 11.2665C12.0348 10.9737 11.5599 10.9737 11.267 11.2665C10.9741 11.5594 10.9741 12.0343 11.267 12.3272L12.1707 13.2308C12.4636 13.5237 12.9384 13.5237 13.2313 13.2308C13.5242 12.9379 13.5242 12.4631 13.2313 12.1702L12.3277 11.2665Z" fill-rule="NONZERO"></path>
  <path d="M0 7.75C0 7.33579 0.335786 7 0.75 7L2.02273 7C2.43694 7 2.77273 7.33579 2.77273 7.75C2.77273 8.16421 2.43694 8.5 2.02273 8.5L0.75 8.5C0.335786 8.5 0 8.16421 0 7.75Z" fill-rule="NONZERO"></path>
  <path d="M13.4773 7C13.0631 7 12.7273 7.33579 12.7273 7.75C12.7273 8.16421 13.0631 8.5 13.4773 8.5L14.75 8.5C15.1642 8.5 15.5 8.16421 15.5 7.75C15.5 7.33579 15.1642 7 14.75 7L13.4773 7Z" fill-rule="NONZERO"></path>
  <path d="M4.23304 11.2665C4.52593 11.5594 4.52593 12.0343 4.23304 12.3272L3.3294 13.2308C3.03651 13.5237 2.56164 13.5237 2.26874 13.2308C1.97585 12.9379 1.97585 12.4631 2.26874 12.1702L3.17238 11.2665C3.46527 10.9737 3.94015 10.9737 4.23304 11.2665Z" fill-rule="NONZERO"></path>
  <path d="M13.2313 3.32916C13.5242 3.03626 13.5242 2.56139 13.2313 2.2685C12.9384 1.9756 12.4636 1.9756 12.1707 2.2685L11.267 3.17213C10.9741 3.46503 10.9741 3.9399 11.267 4.23279C11.5599 4.52569 12.0348 4.52569 12.3277 4.23279L13.2313 3.32916Z" fill-rule="NONZERO"></path>
 </g>
</svg>