<svg width="16" height="16" viewBox="0 0 16 16" fill="none" xmlns="http://www.w3.org/2000/svg">
<g id="size=16">
<path id="Union" fill-rule="evenodd" clip-rule="evenodd" d="M8 0C3.58172 0 0 3.58172 0 8C0 12.4183 3.58172 16 8 16C12.4183 16 16 12.4183 16 8C16 3.58172 12.4183 0 8 0ZM1.5 8C1.5 6.47531 2.02496 5.07323 2.90399 3.96465L4.69112 5.75178C4.25495 6.39249 4 7.16647 4 8C4 8.83353 4.25495 9.60751 4.69112 10.2482L2.90399 12.0353C2.02496 10.9268 1.5 9.52469 1.5 8ZM3.96465 13.096L5.75178 11.3089C6.39249 11.745 7.16647 12 8 12C8.83353 12 9.60751 11.745 10.2482 11.3089L12.0353 13.096C10.9268 13.975 9.52469 14.5 8 14.5C6.47531 14.5 5.07323 13.975 3.96465 13.096ZM13.096 12.0353C13.975 10.9268 14.5 9.52469 14.5 8C14.5 6.47531 13.975 5.07323 13.096 3.96465L11.3089 5.75178C11.745 6.39249 12 7.16647 12 8C12 8.83353 11.745 9.60751 11.3089 10.2482L13.096 12.0353ZM12.0353 2.90399C10.9268 2.02496 9.52469 1.5 8 1.5C6.47531 1.5 5.07323 2.02496 3.96465 2.90399L5.75178 4.69112C6.39249 4.25495 7.16647 4 8 4C8.83353 4 9.60751 4.25495 10.2482 4.69112L12.0353 2.90399ZM5.5 8C5.5 6.61929 6.61929 5.5 8 5.5C9.38071 5.5 10.5 6.61929 10.5 8C10.5 9.38071 9.38071 10.5 8 10.5C6.61929 10.5 5.5 9.38071 5.5 8Z" fill="#000001"/>
</g>
</svg>
