<svg width="24" height="24" viewBox="0 0 24 24" fill="none" xmlns="http://www.w3.org/2000/svg">
<g id="Size=24">
<path id="Union" fill-rule="evenodd" clip-rule="evenodd" d="M19.8279 19.7281C21.7893 17.7416 23 15.0122 23 12C23 8.9878 21.7893 6.25839 19.8279 4.27186C19.7981 4.23596 19.764 4.20188 19.7281 4.17211C17.7416 2.21074 15.0122 1 12 1C8.9878 1 6.25839 2.21074 4.27186 4.17211C4.23596 4.20188 4.20188 4.23596 4.17211 4.27186C2.21074 6.25839 1 8.9878 1 12C1 15.0122 2.21074 17.7416 4.17211 19.7281C4.20188 19.764 4.23596 19.7981 4.27186 19.8279C6.25839 21.7893 8.9878 23 12 23C15.0122 23 17.7416 21.7893 19.7281 19.8279C19.764 19.7981 19.7981 19.764 19.8279 19.7281ZM2.5 12C2.5 9.64663 3.35573 7.49312 4.77299 5.83365L7.9739 9.03456C7.36179 9.86422 7 10.8899 7 12C7 13.1101 7.36179 14.1358 7.9739 14.9654L4.77299 18.1663C3.35573 16.5069 2.5 14.3534 2.5 12ZM9.59377 14.5417C10.221 15.1357 11.0679 15.5 12 15.5C12.9321 15.5 13.779 15.1357 14.4062 14.5417C14.4449 14.4917 14.4917 14.4449 14.5417 14.4062C15.1357 13.779 15.5 12.9321 15.5 12C15.5 11.0679 15.1357 10.221 14.5417 9.59376C14.4917 9.55507 14.4449 9.50833 14.4062 9.45833C13.779 8.86432 12.9321 8.5 12 8.5C11.0679 8.5 10.221 8.86432 9.59377 9.45833C9.55507 9.50833 9.50833 9.55507 9.45833 9.59377C8.86432 10.221 8.5 11.0679 8.5 12C8.5 12.9321 8.86432 13.779 9.45833 14.4062C9.50833 14.4449 9.55507 14.4917 9.59377 14.5417ZM14.9654 16.0261C14.1358 16.6382 13.1101 17 12 17C10.8899 17 9.86422 16.6382 9.03456 16.0261L5.83365 19.227C7.49312 20.6443 9.64663 21.5 12 21.5C14.3534 21.5 16.5069 20.6443 18.1663 19.227L14.9654 16.0261ZM19.227 18.1663L16.0261 14.9654C16.6382 14.1358 17 13.1101 17 12C17 10.8899 16.6382 9.86422 16.0261 9.03456L19.227 5.83365C20.6443 7.49312 21.5 9.64663 21.5 12C21.5 14.3534 20.6443 16.5069 19.227 18.1663ZM18.1663 4.77299L14.9654 7.9739C14.1358 7.36179 13.1101 7 12 7C10.8899 7 9.86422 7.36179 9.03456 7.9739L5.83365 4.77299C7.49312 3.35573 9.64663 2.5 12 2.5C14.3534 2.5 16.5069 3.35573 18.1663 4.77299Z" fill="black"/>
</g>
</svg>
