<svg width="24" height="24" viewBox="0 0 24 24" fill="none" xmlns="http://www.w3.org/2000/svg">
<g id="size=24">
<g id="Union">
<path d="M2.25 1C1.55964 1 1 1.55964 1 2.25V5.75C1 6.44036 1.55964 7 2.25 7H5.75C6.44036 7 7 6.44036 7 5.75V2.25C7 1.55964 6.44036 1 5.75 1H2.25Z" fill="black"/>
<path d="M10.25 1C9.55964 1 9 1.55964 9 2.25V5.75C9 6.44036 9.55964 7 10.25 7H13.75C14.4404 7 15 6.44036 15 5.75V2.25C15 1.55964 14.4404 1 13.75 1H10.25Z" fill="black"/>
<path d="M18.25 1C17.5596 1 17 1.55964 17 2.25V5.75C17 6.44036 17.5596 7 18.25 7H21.75C22.4404 7 23 6.44036 23 5.75V2.25C23 1.55964 22.4404 1 21.75 1H18.25Z" fill="black"/>
<path d="M2.25 9C1.55964 9 1 9.55964 1 10.25V13.75C1 14.4404 1.55964 15 2.25 15H5.75C6.44036 15 7 14.4404 7 13.75V10.25C7 9.55964 6.44036 9 5.75 9H2.25Z" fill="black"/>
<path d="M10.25 9C9.55964 9 9 9.55964 9 10.25V13.75C9 14.4404 9.55964 15 10.25 15H13.75C14.4404 15 15 14.4404 15 13.75V10.25C15 9.55964 14.4404 9 13.75 9H10.25Z" fill="black"/>
<path d="M18.25 9C17.5596 9 17 9.55964 17 10.25V13.75C17 14.4404 17.5596 15 18.25 15H21.75C22.4404 15 23 14.4404 23 13.75V10.25C23 9.55964 22.4404 9 21.75 9H18.25Z" fill="black"/>
<path d="M2.25 17C1.55964 17 1 17.5596 1 18.25V21.75C1 22.4404 1.55964 23 2.25 23H5.75C6.44036 23 7 22.4404 7 21.75V18.25C7 17.5596 6.44036 17 5.75 17H2.25Z" fill="black"/>
<path d="M10.25 17C9.55964 17 9 17.5596 9 18.25V21.75C9 22.4404 9.55964 23 10.25 23H13.75C14.4404 23 15 22.4404 15 21.75V18.25C15 17.5596 14.4404 17 13.75 17H10.25Z" fill="black"/>
<path d="M18.25 17C17.5596 17 17 17.5596 17 18.25V21.75C17 22.4404 17.5596 23 18.25 23H21.75C22.4404 23 23 22.4404 23 21.75V18.25C23 17.5596 22.4404 17 21.75 17H18.25Z" fill="black"/>
</g>
</g>
</svg>
