<svg width="24" height="24" viewBox="0 0 24 24" fill="none" xmlns="http://www.w3.org/2000/svg">
<g id="Size=24">
<g id="Union">
<path d="M12 3.5C16.6944 3.5 20.5 7.30558 20.5 12C20.5 12.4142 20.8358 12.75 21.25 12.75C21.6642 12.75 22 12.4142 22 12C22 6.47715 17.5228 2 12 2C9.01261 2 6.33164 3.31035 4.5 5.38554V2.75C4.5 2.33579 4.16421 2 3.75 2C3.33579 2 3 2.33579 3 2.75V7.25C3 7.66421 3.33579 8 3.75 8H8.25C8.66421 8 9 7.66421 9 7.25C9 6.83579 8.66421 6.5 8.25 6.5H5.51895C7.07887 4.6636 9.40373 3.5 12 3.5Z" fill="black"/>
<path d="M2.75 11.25C2.33579 11.25 2 11.5858 2 12C2 17.5228 6.47715 22 12 22C14.9873 22 17.6684 20.6896 19.5 18.6145V21.25C19.5 21.6642 19.8358 22 20.25 22C20.6642 22 21 21.6642 21 21.25V16.75C21 16.3358 20.6642 16 20.25 16H15.75C15.3358 16 15 16.3358 15 16.75C15 17.1642 15.3358 17.5 15.75 17.5H18.481C16.921 19.3365 14.5963 20.5 12 20.5C7.30558 20.5 3.5 16.6944 3.5 12C3.5 11.5858 3.16421 11.25 2.75 11.25Z" fill="black"/>
</g>
</g>
</svg>
