<svg width="16" height="16" viewBox="0 0 16 16" fill="none" xmlns="http://www.w3.org/2000/svg">
<g id="Size=16">
<g id="Union">
<path d="M8 1.5C11.5899 1.5 14.5 4.41015 14.5 8C14.5 8.41421 14.8358 8.75 15.25 8.75C15.6642 8.75 16 8.41421 16 8C16 3.58172 12.4183 0 8 0C5.86972 0 3.93299 0.833509 2.5 2.19051V1.25C2.5 0.835786 2.16421 0.5 1.75 0.5C1.33579 0.5 1 0.835786 1 1.25V4.25C1 4.66421 1.33579 5 1.75 5H4.75C5.16421 5 5.5 4.66421 5.5 4.25C5.5 3.83579 5.16421 3.5 4.75 3.5H3.30957C4.49342 2.26641 6.15658 1.5 8 1.5Z" fill="black"/>
<path d="M0.75 7.25C0.335786 7.25 0 7.58579 0 8C0 12.4183 3.58172 16 8 16C10.1306 16 12.067 15.1665 13.5 13.8094V14.75C13.5 15.1642 13.8358 15.5 14.25 15.5C14.6642 15.5 15 15.1642 15 14.75V11.75C15 11.3358 14.6642 11 14.25 11H11.25C10.8358 11 10.5 11.3358 10.5 11.75C10.5 12.1642 10.8358 12.5 11.25 12.5H12.6905C11.5067 13.7336 9.84309 14.5 8 14.5C4.41015 14.5 1.5 11.5899 1.5 8C1.5 7.58579 1.16421 7.25 0.75 7.25Z" fill="black"/>
</g>
</g>
</svg>
