<svg width="24" height="24" viewBox="0 0 24 24" fill="none" xmlns="http://www.w3.org/2000/svg">
<g id="size=24">
<g id="Union">
<path d="M6 5C5.44772 5 5 5.44772 5 6C5 6.55228 5.44772 7 6 7H6.01C6.56228 7 7.01 6.55228 7.01 6C7.01 5.44772 6.56228 5 6.01 5H6Z" fill="black"/>
<path fill-rule="evenodd" clip-rule="evenodd" d="M4.75 2C3.23122 2 2 3.23122 2 4.75V11.1716C2 11.9009 2.28973 12.6004 2.80546 13.1161L10.8055 21.1161C11.8794 22.1901 13.6206 22.1901 14.6945 21.1161L21.1161 14.6945C22.1901 13.6206 22.1901 11.8794 21.1161 10.8055L13.1161 2.80546C12.6004 2.28973 11.9009 2 11.1716 2H4.75ZM3.5 4.75C3.5 4.05964 4.05964 3.5 4.75 3.5H11.1716C11.5031 3.5 11.821 3.6317 12.0555 3.86612L20.0555 11.8661C20.5436 12.3543 20.5436 13.1457 20.0555 13.6339L13.6339 20.0555C13.1457 20.5436 12.3543 20.5436 11.8661 20.0555L3.86612 12.0555C3.6317 11.821 3.5 11.5031 3.5 11.1716V4.75Z" fill="black"/>
</g>
</g>
</svg>
