<svg viewBox="0 0 24 24" width="24" height="24" fill="currentColor" xmlns="http://www.w3.org/2000/svg">
 <g transform="translate(3, 4)">
  <path d="M1.23016 0.173853C0.911949 -0.0913202 0.439026 -0.0483272 0.173853 0.269881C-0.0913202 0.588088 -0.0483271 1.06101 0.269881 1.32618L7.07848 7.00002L0.269881 12.6739C-0.0483271 12.939 -0.0913202 13.4119 0.173853 13.7302C0.439026 14.0484 0.911949 14.0914 1.23016 13.8262L8.73016 7.57618C8.90115 7.43369 9.00002 7.2226 9.00002 7.00002C9.00002 6.77743 8.90115 6.56635 8.73016 6.42385L1.23016 0.173853Z" fill-rule="NONZERO"></path>
  <path d="M8.75 14C8.33579 14 8 14.3358 8 14.75C8 15.1642 8.33579 15.5 8.75 15.5L17.25 15.5C17.6642 15.5 18 15.1642 18 14.75C18 14.3358 17.6642 14 17.25 14L8.75 14Z" fill-rule="NONZERO"></path>
 </g>
</svg>