<svg width="24" height="24" viewBox="0 0 24 24" fill="none" xmlns="http://www.w3.org/2000/svg">
<g id="size=24">
<path id="Rectangle 1725 (Stroke)" fill-rule="evenodd" clip-rule="evenodd" d="M12.7697 21.4841L16.5 13.0908V2.5H5.51922C4.90134 2.5 4.37615 2.95145 4.28339 3.56234L2.8408 13.0623C2.72593 13.8188 3.31151 14.5 4.07663 14.5H9.25C10.2165 14.5 11 15.2835 11 16.25V19.4754C11 20.5072 11.7718 21.3587 12.7697 21.4841ZM18 2.5V12.5H20.25C20.9404 12.5 21.5 11.9404 21.5 11.25V3.75C21.5 3.05964 20.9404 2.5 20.25 2.5H18ZM17.7374 14L14.0269 22.3486C13.8509 22.7447 13.4581 23 13.0246 23C11.078 23 9.5 21.422 9.5 19.4754V16.25C9.5 16.1119 9.38807 16 9.25 16H4.07663C2.39336 16 1.10509 14.5013 1.3578 12.8371L2.80039 3.33714C3.00447 1.9932 4.15987 1 5.51922 1H20.25C21.7688 1 23 2.23122 23 3.75V11.25C23 12.7688 21.7688 14 20.25 14H17.7374Z" fill="black"/>
</g>
</svg>
