<svg viewBox="0 0 24 24" width="24" height="24" fill="currentColor" xmlns="http://www.w3.org/2000/svg">
 <g transform="translate(1.3260549306869507, 1)">
  <path d="M11.4436 20.4841L15.1739 12.0908L15.1739 1.5L4.19317 1.5C3.57528 1.5 3.0501 1.95145 2.95734 2.56234L1.51474 12.0623C1.39987 12.8188 1.98545 13.5 2.75058 13.5L7.92394 13.5C8.89044 13.5 9.67395 14.2835 9.67395 15.25L9.67395 18.4754C9.67395 19.5072 10.4458 20.3587 11.4436 20.4841ZM16.6739 1.5L16.6739 11.5L18.9239 11.5C19.6143 11.5 20.1739 10.9404 20.1739 10.25L20.1739 2.75C20.1739 2.05964 19.6143 1.5 18.9239 1.5L16.6739 1.5ZM16.4114 13L12.7008 21.3486C12.5248 21.7447 12.132 22 11.6986 22C9.75197 22 8.17395 20.422 8.17395 18.4754L8.17395 15.25C8.17395 15.1119 8.06202 15 7.92394 15L2.75058 15C1.06731 15 -0.220966 13.5013 0.0317446 11.8371L1.47434 2.33714C1.67842 0.993196 2.83382 0 4.19317 0L18.9239 0C20.4427 0 21.6739 1.23122 21.6739 2.75L21.6739 10.25C21.6739 11.7688 20.4427 13 18.9239 13L16.4114 13Z" fill-rule="EVENODD"></path>
 </g>
</svg>