<svg width="24" height="24" viewBox="0 0 24 24" fill="none" xmlns="http://www.w3.org/2000/svg">
<g id="Size=24">
<g id="Union">
<path fill-rule="evenodd" clip-rule="evenodd" d="M16 8C18.2091 8 20 9.79086 20 12C20 14.2091 18.2091 16 16 16C13.7909 16 12 14.2091 12 12C12 9.79086 13.7909 8 16 8ZM18.5 12C18.5 10.6193 17.3807 9.5 16 9.5C14.6193 9.5 13.5 10.6193 13.5 12C13.5 13.3807 14.6193 14.5 16 14.5C17.3807 14.5 18.5 13.3807 18.5 12Z" fill="black"/>
<path fill-rule="evenodd" clip-rule="evenodd" d="M16 5C19.866 5 23 8.13401 23 12C23 15.866 19.866 19 16 19H8C4.13401 19 1 15.866 1 12C1 8.13401 4.13401 5 8 5H16ZM21.5 12C21.5 8.96243 19.0376 6.5 16 6.5H8C4.96243 6.5 2.5 8.96243 2.5 12C2.5 15.0376 4.96243 17.5 8 17.5H16C19.0376 17.5 21.5 15.0376 21.5 12Z" fill="black"/>
</g>
</g>
</svg>
