<svg width="16" height="16" viewBox="0 0 16 16" fill="none" xmlns="http://www.w3.org/2000/svg">
<g id="size=16">
<g id="Union">
<path d="M3 8C3 6.89543 3.89543 6 5 6C6.10457 6 7 6.89543 7 8C7 9.10457 6.10457 10 5 10C3.89543 10 3 9.10457 3 8Z" fill="black"/>
<path fill-rule="evenodd" clip-rule="evenodd" d="M5 3C2.23858 3 0 5.23858 0 8C0 10.7614 2.23858 13 5 13H11C13.7614 13 16 10.7614 16 8C16 5.23858 13.7614 3 11 3H5ZM1.5 8C1.5 6.067 3.067 4.5 5 4.5H11C12.933 4.5 14.5 6.067 14.5 8C14.5 9.933 12.933 11.5 11 11.5H5C3.067 11.5 1.5 9.933 1.5 8Z" fill="black"/>
</g>
</g>
</svg>
