<svg viewBox="0 0 24 24" width="24" height="24" fill="currentColor" xmlns="http://www.w3.org/2000/svg">
 <g transform="translate(2.75, 2)">
  <path d="M0.75 1.5C0.335786 1.5 0 1.16421 0 0.75C0 0.335786 0.335786 0 0.75 0L17.25 0C17.6642 0 18 0.335786 18 0.75C18 1.16421 17.6642 1.5 17.25 1.5L0.75 1.5Z" fill-rule="NONZERO"></path>
  <path d="M2.23017 11.7906C2.52875 12.0777 3.00353 12.0684 3.29063 11.7698L8.25 6.61208L8.25 19.25C8.25 19.6642 8.58579 20 9 20C9.41421 20 9.75 19.6642 9.75 19.25L9.75 6.61208L14.7094 11.7698C14.9965 12.0684 15.4713 12.0777 15.7698 11.7906C16.0684 11.5035 16.0777 11.0287 15.7906 10.7302L9.54063 4.23017C9.39922 4.08311 9.20401 4 9 4C8.79599 4 8.60078 4.08311 8.45938 4.23017L2.20938 10.7302C1.92228 11.0287 1.93159 11.5035 2.23017 11.7906Z" fill-rule="NONZERO"></path>
 </g>
</svg>