<svg width="16" height="16" viewBox="0 0 16 16" fill="none" xmlns="http://www.w3.org/2000/svg">
<g id="Size=16">
<g id="Union">
<path d="M6.25 6C6.66421 6 7 6.33579 7 6.75V12.25C7 12.6642 6.66421 13 6.25 13C5.83579 13 5.5 12.6642 5.5 12.25V6.75C5.5 6.33579 5.83579 6 6.25 6Z" fill="black"/>
<path d="M10.5 6.75C10.5 6.33579 10.1642 6 9.75 6C9.33579 6 9 6.33579 9 6.75V12.25C9 12.6642 9.33579 13 9.75 13C10.1642 13 10.5 12.6642 10.5 12.25V6.75Z" fill="black"/>
<path fill-rule="evenodd" clip-rule="evenodd" d="M4 3V2.25C4 1.00736 5.00736 0 6.25 0H9.75C10.9926 0 12 1.00736 12 2.25V3H14.25C14.6642 3 15 3.33579 15 3.75C15 4.16421 14.6642 4.5 14.25 4.5H14V13.75C14 14.9926 12.9926 16 11.75 16H4.25C3.00736 16 2 14.9926 2 13.75V4.5H1.75C1.33579 4.5 1 4.16421 1 3.75C1 3.33579 1.33579 3 1.75 3H4ZM5.5 2.25C5.5 1.83579 5.83579 1.5 6.25 1.5H9.75C10.1642 1.5 10.5 1.83579 10.5 2.25V3H5.5V2.25ZM3.5 4.5V13.75C3.5 14.1642 3.83579 14.5 4.25 14.5H11.75C12.1642 14.5 12.5 14.1642 12.5 13.75V4.5H3.5Z" fill="black"/>
</g>
</g>
</svg>
