<svg width="24" height="24" viewBox="0 0 24 24" fill="none" xmlns="http://www.w3.org/2000/svg">
<g id="size=24">
<path id="Union" d="M1.28033 5.21967C0.987437 4.92678 0.512563 4.92678 0.21967 5.21967C-0.0732233 5.51256 -0.0732233 5.98744 0.21967 6.28033L7.71967 13.7803C7.99213 14.0528 8.42671 14.0745 8.72493 13.8305L13.6996 9.76027L21.4393 17.5H16.75C16.3358 17.5 16 17.8358 16 18.25C16 18.6642 16.3358 19 16.75 19H23.25C23.6642 19 24 18.6642 24 18.25V11.75C24 11.3358 23.6642 11 23.25 11C22.8358 11 22.5 11.3358 22.5 11.75V16.4393L14.2803 8.21967C14.0079 7.94721 13.5733 7.92554 13.2751 8.16953L8.30039 12.2397L1.28033 5.21967Z" fill="#000001"/>
</g>
</svg>
