<svg width="24" height="24" viewBox="0 0 24 24" fill="none" xmlns="http://www.w3.org/2000/svg">
<g id="size=24">
<path id="Union" d="M24 12.25C24 12.6642 23.6642 13 23.25 13C22.8358 13 22.5 12.6642 22.5 12.25V7.56066L14.2803 15.7803C14.0079 16.0528 13.5733 16.0745 13.2751 15.8305L8.30039 11.7603L1.28033 18.7803C0.987437 19.0732 0.512563 19.0732 0.21967 18.7803C-0.0732233 18.4874 -0.0732233 18.0126 0.21967 17.7197L7.71967 10.2197C7.99213 9.94721 8.42671 9.92554 8.72493 10.1695L13.6996 14.2397L21.4393 6.5H16.75C16.3358 6.5 16 6.16421 16 5.75C16 5.33579 16.3358 5 16.75 5H23.25C23.6642 5 24 5.33579 24 5.75V12.25Z" fill="#000001"/>
</g>
</svg>
