<svg width="16" height="16" viewBox="0 0 16 16" fill="none" xmlns="http://www.w3.org/2000/svg">
<g id="Size=16">
<path id="Union" d="M1.28033 3.21967C0.987437 2.92678 0.512563 2.92678 0.21967 3.21967C-0.0732233 3.51256 -0.0732233 3.98744 0.21967 4.28033L4.71967 8.78033C4.95645 9.01711 5.32151 9.06824 5.61423 8.90562L9.57355 6.706L13.6005 11.5H10.75C10.3358 11.5 10 11.8358 10 12.25C10 12.6642 10.3358 13 10.75 13H15.25C15.6642 13 16 12.6642 16 12.25V7.75C16 7.33579 15.6642 7 15.25 7C14.8358 7 14.5 7.33579 14.5 7.75V10.2387L10.3243 5.26761C10.0933 4.9926 9.69973 4.91996 9.38577 5.09438L5.3803 7.31964L1.28033 3.21967Z" fill="black"/>
</g>
</svg>
