<svg width="16" height="16" viewBox="0 0 16 16" fill="none" xmlns="http://www.w3.org/2000/svg">
<g id="size=16">
<path id="Union" fill-rule="evenodd" clip-rule="evenodd" d="M0 3.25C0 2.00736 1.00736 1 2.25 1H9.25C10.4926 1 11.5 2.00736 11.5 3.25V3.57778H12.1425C12.7269 3.57778 13.2884 3.80518 13.7082 4.21185L15.3157 5.76932C15.7531 6.19314 16 6.77618 16 7.38525V10.25C16 11.2025 15.239 11.9773 14.2918 11.9995C14.4257 12.3059 14.5 12.6443 14.5 13C14.5 14.3807 13.3807 15.5 12 15.5C10.6193 15.5 9.5 14.3807 9.5 13C9.5 12.6444 9.57422 12.3062 9.70802 12H6.29198C6.42578 12.3062 6.5 12.6444 6.5 13C6.5 14.3807 5.38071 15.5 4 15.5C2.61929 15.5 1.5 14.3807 1.5 13C1.5 12.6443 1.5743 12.3059 1.70824 11.9995C0.761032 11.9773 0 11.2025 0 10.25V3.25ZM12 12C11.4477 12 11 12.4477 11 13C11 13.5523 11.4477 14 12 14C12.5523 14 13 13.5523 13 13C13 12.4477 12.5523 12 12 12ZM14.25 10.5C14.3881 10.5 14.5 10.3881 14.5 10.25V7.38525C14.5 7.18223 14.4177 6.98788 14.2719 6.84661L12.6644 5.28913C12.5245 5.15358 12.3373 5.07778 12.1425 5.07778H11.5V10.5H14.25ZM10 10.5H1.75C1.61193 10.5 1.5 10.3881 1.5 10.25V3.25C1.5 2.83579 1.83579 2.5 2.25 2.5H9.25C9.66421 2.5 10 2.83579 10 3.25V10.5ZM3 13C3 12.4477 3.44772 12 4 12C4.55229 12 5 12.4477 5 13C5 13.5523 4.55229 14 4 14C3.44772 14 3 13.5523 3 13Z" fill="#000001"/>
</g>
</svg>
