<svg viewBox="0 0 24 24" width="24" height="24" fill="currentColor" xmlns="http://www.w3.org/2000/svg">
 <g transform="translate(1, 1)">
  <path d="M8.3788 0.341347C8.15306 -0.00594822 7.68852 -0.104486 7.34122 0.121255C6.99393 0.346997 6.89539 0.811534 7.12113 1.15883L9.61789 5L2.75 5C1.23122 5 0 6.23122 0 7.75L0 19.25C0 20.7688 1.23122 22 2.75 22L19.25 22C20.7688 22 22 20.7688 22 19.25L22 7.75C22 6.23122 20.7688 5 19.25 5L12.382 5L14.8788 1.15883C15.1045 0.811534 15.006 0.346997 14.6587 0.121255C14.3114 -0.104486 13.8469 -0.00594822 13.6211 0.341347L11 4.37391L8.3788 0.341347ZM10.9885 6.5C10.9923 6.50006 10.9961 6.50009 11 6.50009C11.0038 6.50009 11.0076 6.50006 11.0115 6.5L19.25 6.5C19.9404 6.5 20.5 7.05964 20.5 7.75L20.5 19.25C20.5 19.9404 19.9404 20.5 19.25 20.5L2.75 20.5C2.05964 20.5 1.5 19.9404 1.5 19.25L1.5 7.75C1.5 7.05964 2.05964 6.5 2.75 6.5L10.9885 6.5Z" fill-rule="EVENODD"></path>
 </g>
</svg>