<svg width="24" height="24" viewBox="0 0 24 24" fill="none" xmlns="http://www.w3.org/2000/svg">
<g id="Size=24">
<path id="Union" d="M3 3.75C3 3.33579 3.33579 3 3.75 3H19.75C20.1642 3 20.5 3.33579 20.5 3.75V6.25C20.5 6.66421 20.1642 7 19.75 7C19.3358 7 19 6.66421 19 6.25V4.5H12.5V19.5H14.5C14.9142 19.5 15.25 19.8358 15.25 20.25C15.25 20.6642 14.9142 21 14.5 21H9C8.58579 21 8.25 20.6642 8.25 20.25C8.25 19.8358 8.58579 19.5 9 19.5H11V4.5H4.5V6.25C4.5 6.66421 4.16421 7 3.75 7C3.33579 7 3 6.66421 3 6.25V3.75Z" fill="black"/>
</g>
</svg>
