<svg width="16" height="16" viewBox="0 0 16 16" fill="none" xmlns="http://www.w3.org/2000/svg">
<g id="Size=16">
<g id="Union">
<path d="M8 6C8.20855 6 8.40769 5.91317 8.5496 5.76034L11.7996 2.26034C12.0815 1.95681 12.0639 1.48226 11.7603 1.20041C11.4568 0.918556 10.9823 0.936132 10.7004 1.23966L8 4.14779L5.2996 1.23966C5.01775 0.936132 4.5432 0.918556 4.23966 1.20041C3.93613 1.48226 3.91856 1.95681 4.20041 2.26034L7.45041 5.76034C7.59232 5.91317 7.79145 6 8 6Z" fill="black"/>
<path d="M8 10C8.20855 10 8.40769 10.0868 8.5496 10.2397L11.7996 13.7397C12.0815 14.0432 12.0639 14.5177 11.7603 14.7996C11.4568 15.0814 10.9823 15.0639 10.7004 14.7603L8 11.8522L5.2996 14.7603C5.01775 15.0639 4.5432 15.0814 4.23966 14.7996C3.93613 14.5177 3.91856 14.0432 4.20041 13.7397L7.45041 10.2397C7.59232 10.0868 7.79145 10 8 10Z" fill="black"/>
<path d="M1.75004 7.12354C1.40403 7.12354 1.12354 7.40403 1.12354 7.75004C1.12354 8.09604 1.40403 8.37654 1.75004 8.37654H2.25004C2.59604 8.37654 2.87654 8.09604 2.87654 7.75004C2.87654 7.40403 2.59604 7.12354 2.25004 7.12354H1.75004Z" fill="black"/>
<path d="M4.75004 7.12354C4.40403 7.12354 4.12354 7.40403 4.12354 7.75004C4.12354 8.09604 4.40403 8.37654 4.75004 8.37654H5.25004C5.59604 8.37654 5.87654 8.09604 5.87654 7.75004C5.87654 7.40403 5.59604 7.12354 5.25004 7.12354H4.75004Z" fill="black"/>
<path d="M7.75004 7.12354C7.40403 7.12354 7.12354 7.40403 7.12354 7.75004C7.12354 8.09604 7.40403 8.37654 7.75004 8.37654H8.25004C8.59604 8.37654 8.87654 8.09604 8.87654 7.75004C8.87654 7.40403 8.59604 7.12354 8.25004 7.12354H7.75004Z" fill="black"/>
<path d="M10.75 7.12354C10.404 7.12354 10.1235 7.40403 10.1235 7.75004C10.1235 8.09604 10.404 8.37654 10.75 8.37654H11.25C11.596 8.37654 11.8765 8.09604 11.8765 7.75004C11.8765 7.40403 11.596 7.12354 11.25 7.12354H10.75Z" fill="black"/>
<path d="M13.75 7.12354C13.404 7.12354 13.1235 7.40403 13.1235 7.75004C13.1235 8.09604 13.404 8.37654 13.75 8.37654H14.25C14.596 8.37654 14.8765 8.09604 14.8765 7.75004C14.8765 7.40403 14.596 7.12354 14.25 7.12354H13.75Z" fill="black"/>
</g>
</g>
</svg>
