<svg width="24" height="24" viewBox="0 0 24 24" fill="none" xmlns="http://www.w3.org/2000/svg">
<g id="Size=24">
<g id="Union">
<path d="M12 9C12.205 9 12.401 8.91612 12.5425 8.76786L17.7925 3.26786C18.0785 2.96823 18.0675 2.49349 17.7679 2.20748C17.4682 1.92148 16.9935 1.93252 16.7075 2.23214L12 7.16379L7.29252 2.23214C7.00651 1.93252 6.53177 1.92148 6.23214 2.20748C5.93252 2.49349 5.92148 2.96823 6.20748 3.26786L11.4575 8.76786C11.599 8.91612 11.795 9 12 9Z" fill="black"/>
<path d="M12 15C12.205 15 12.401 15.0839 12.5425 15.2321L17.7925 20.7321C18.0785 21.0318 18.0675 21.5065 17.7679 21.7925C17.4682 22.0785 16.9935 22.0675 16.7075 21.7679L12 16.8362L7.29252 21.7679C7.00651 22.0675 6.53177 22.0785 6.23214 21.7925C5.93252 21.5065 5.92148 21.0318 6.20748 20.7321L11.4575 15.2321C11.599 15.0839 11.795 15 12 15Z" fill="black"/>
<path d="M1.25 11C0.835786 11 0.5 11.3358 0.5 11.75C0.5 12.1642 0.835786 12.5 1.25 12.5H2.75C3.16421 12.5 3.5 12.1642 3.5 11.75C3.5 11.3358 3.16421 11 2.75 11H1.25Z" fill="black"/>
<path d="M6.25 11C5.83579 11 5.5 11.3358 5.5 11.75C5.5 12.1642 5.83579 12.5 6.25 12.5H7.75C8.16421 12.5 8.5 12.1642 8.5 11.75C8.5 11.3358 8.16421 11 7.75 11H6.25Z" fill="black"/>
<path d="M11.25 11C10.8358 11 10.5 11.3358 10.5 11.75C10.5 12.1642 10.8358 12.5 11.25 12.5H12.75C13.1642 12.5 13.5 12.1642 13.5 11.75C13.5 11.3358 13.1642 11 12.75 11H11.25Z" fill="black"/>
<path d="M16.25 11C15.8358 11 15.5 11.3358 15.5 11.75C15.5 12.1642 15.8358 12.5 16.25 12.5H17.75C18.1642 12.5 18.5 12.1642 18.5 11.75C18.5 11.3358 18.1642 11 17.75 11H16.25Z" fill="black"/>
<path d="M21.25 11C20.8358 11 20.5 11.3358 20.5 11.75C20.5 12.1642 20.8358 12.5 21.25 12.5H22.75C23.1642 12.5 23.5 12.1642 23.5 11.75C23.5 11.3358 23.1642 11 22.75 11H21.25Z" fill="black"/>
</g>
</g>
</svg>
