<svg width="24" height="24" viewBox="0 0 24 24" fill="none" xmlns="http://www.w3.org/2000/svg">
<g id="size=24">
<path id="Union" fill-rule="evenodd" clip-rule="evenodd" d="M14.8049 3.75757C15.6464 2.95622 16.795 2.5 18 2.5C19.205 2.5 20.3536 2.95622 21.1951 3.75757C22.0352 4.55774 22.5 5.63496 22.5 6.75C22.5 7.16421 22.8358 7.5 23.25 7.5C23.6642 7.5 24 7.16421 24 6.75C24 5.21287 23.3585 3.74656 22.2296 2.67136C21.1018 1.59735 19.5798 1 18 1C16.4202 1 14.8982 1.59735 13.7704 2.67136C12.6415 3.74656 12 5.21287 12 6.75V10H3.75C2.23122 10 1 11.2312 1 12.75V20.25C1 21.7688 2.23122 23 3.75 23H14.25C15.7688 23 17 21.7688 17 20.25V12.75C17 11.2312 15.7688 10 14.25 10H13.5V6.75C13.5 5.63496 13.9648 4.55774 14.8049 3.75757ZM3.75 11.5C3.05964 11.5 2.5 12.0596 2.5 12.75V20.25C2.5 20.9404 3.05964 21.5 3.75 21.5H14.25C14.9404 21.5 15.5 20.9404 15.5 20.25V12.75C15.5 12.0596 14.9404 11.5 14.25 11.5H3.75Z" fill="#000001"/>
</g>
</svg>
