<svg width="16" height="16" viewBox="0 0 16 16" fill="none" xmlns="http://www.w3.org/2000/svg">
<g id="Size=16">
<path id="Union" fill-rule="evenodd" clip-rule="evenodd" d="M10.2389 2.24989C10.7093 1.76744 11.3432 1.5 12 1.5C12.6568 1.5 13.2907 1.76744 13.7611 2.24989C14.2321 2.73298 14.5 3.39215 14.5 4.08333C14.5 4.49755 14.8358 4.83333 15.25 4.83333C15.6642 4.83333 16 4.49755 16 4.08333C16 3.00641 15.5831 1.96988 14.8351 1.20274C14.0865 0.434943 13.0671 0 12 0C10.9329 0 9.9135 0.434943 9.1649 1.20274C8.41693 1.96988 8 3.00641 8 4.08333V5H2.25C1.00736 5 0 6.00736 0 7.25V12.75C0 13.9926 1.00736 15 2.25 15H9.75C10.9926 15 12 13.9926 12 12.75V7.25C12 6.00736 10.9926 5 9.75 5H9.5V4.08333C9.5 3.39215 9.76789 2.73298 10.2389 2.24989ZM1.5 7.25C1.5 6.83579 1.83579 6.5 2.25 6.5H9.75C10.1642 6.5 10.5 6.83579 10.5 7.25V12.75C10.5 13.1642 10.1642 13.5 9.75 13.5H2.25C1.83579 13.5 1.5 13.1642 1.5 12.75V7.25Z" fill="black"/>
</g>
</svg>
