<svg width="24" height="24" viewBox="0 0 24 24" fill="none" xmlns="http://www.w3.org/2000/svg">
<g id="size=24">
<g id="Union">
<path d="M6.23214 8.79252C6.53177 9.07852 7.00651 9.06748 7.29252 8.76786L11.25 4.62192V15.25C11.25 15.6642 11.5858 16 12 16C12.4142 16 12.75 15.6642 12.75 15.25V4.62192L16.7075 8.76786C16.9935 9.06748 17.4682 9.07852 17.7679 8.79252C18.0675 8.50651 18.0785 8.03177 17.7925 7.73214L12.5425 2.23214C12.5319 2.22098 12.5209 2.21018 12.5096 2.19975C12.3759 2.07578 12.1968 2 12 2C11.7859 2 11.5928 2.08968 11.4562 2.23352L6.20748 7.73214C5.92148 8.03177 5.93252 8.50651 6.23214 8.79252Z" fill="black"/>
<path d="M2.75 14C3.16421 14 3.5 14.3358 3.5 14.75V19.25C3.5 19.9404 4.05964 20.5 4.75 20.5H19.25C19.9404 20.5 20.5 19.9404 20.5 19.25V14.75C20.5 14.3358 20.8358 14 21.25 14C21.6642 14 22 14.3358 22 14.75V19.25C22 20.7688 20.7688 22 19.25 22H4.75C3.23122 22 2 20.7688 2 19.25V14.75C2 14.3358 2.33579 14 2.75 14Z" fill="black"/>
</g>
</g>
</svg>
