<svg width="16" height="16" viewBox="0 0 16 16" fill="none" xmlns="http://www.w3.org/2000/svg">
<g id="size=16">
<g id="Union">
<path d="M4.23966 5.7996C4.5432 6.08145 5.01775 6.06387 5.2996 5.76034L7.25 3.65991V10.25C7.25 10.6642 7.58579 11 8 11C8.41421 11 8.75 10.6642 8.75 10.25V3.6599L10.7004 5.76034C10.9823 6.06387 11.4568 6.08145 11.7603 5.7996C12.0639 5.51774 12.0815 5.04319 11.7996 4.73966L8.5496 1.23966C8.41142 1.09085 8.21898 1.00461 8.01642 1.00018C8.01095 1.00006 8.00548 1 8 1C7.99452 1 7.98905 1.00006 7.98359 1.00018C7.77221 1.00472 7.58236 1.09671 7.44878 1.24142L4.20041 4.73966C3.91856 5.04319 3.93613 5.51774 4.23966 5.7996Z" fill="#000001"/>
<path d="M1.75 9C2.16421 9 2.5 9.33579 2.5 9.75V12.75C2.5 13.1642 2.83579 13.5 3.25 13.5H12.75C13.1642 13.5 13.5 13.1642 13.5 12.75V9.75C13.5 9.33579 13.8358 9 14.25 9C14.6642 9 15 9.33579 15 9.75V12.75C15 13.9926 13.9926 15 12.75 15H3.25C2.00736 15 1 13.9926 1 12.75V9.75C1 9.33579 1.33579 9 1.75 9Z" fill="#000001"/>
</g>
</g>
</svg>
