<svg width="24" height="24" viewBox="0 0 24 24" fill="none" xmlns="http://www.w3.org/2000/svg">
<g id="size=24">
<g id="Union">
<path fill-rule="evenodd" clip-rule="evenodd" d="M9 3C6.23858 3 4 5.23858 4 8C4 10.7614 6.23858 13 9 13C11.7614 13 14 10.7614 14 8C14 5.23858 11.7614 3 9 3ZM5.5 8C5.5 6.067 7.067 4.5 9 4.5C10.933 4.5 12.5 6.067 12.5 8C12.5 9.933 10.933 11.5 9 11.5C7.067 11.5 5.5 9.933 5.5 8Z" fill="black"/>
<path d="M4.75 14.5C2.12665 14.5 0 16.6266 0 19.25V20.25C0 20.6642 0.335786 21 0.75 21C1.16421 21 1.5 20.6642 1.5 20.25V19.25C1.5 17.4551 2.95507 16 4.75 16H13.25C15.0449 16 16.5 17.4551 16.5 19.25V20.25C16.5 20.6642 16.8358 21 17.25 21C17.6642 21 18 20.6642 18 20.25V19.25C18 16.6266 15.8734 14.5 13.25 14.5H4.75Z" fill="black"/>
<path d="M15.75 11.25C15.75 10.8358 16.0858 10.5 16.5 10.5H18.5V8.5C18.5 8.08579 18.8358 7.75 19.25 7.75C19.6642 7.75 20 8.08579 20 8.5V10.5H22C22.4142 10.5 22.75 10.8358 22.75 11.25C22.75 11.6642 22.4142 12 22 12H20V14C20 14.4142 19.6642 14.75 19.25 14.75C18.8358 14.75 18.5 14.4142 18.5 14V12H16.5C16.0858 12 15.75 11.6642 15.75 11.25Z" fill="black"/>
</g>
</g>
</svg>
