<svg width="16" height="16" viewBox="0 0 16 16" fill="none" xmlns="http://www.w3.org/2000/svg">
<g id="size=16">
<g id="Union">
<path fill-rule="evenodd" clip-rule="evenodd" d="M8 3C6.34315 3 5 4.34315 5 6C5 7.65685 6.34315 9 8 9C9.65685 9 11 7.65685 11 6C11 4.34315 9.65685 3 8 3ZM6.5 6C6.5 5.17157 7.17157 4.5 8 4.5C8.82843 4.5 9.5 5.17157 9.5 6C9.5 6.82843 8.82843 7.5 8 7.5C7.17157 7.5 6.5 6.82843 6.5 6Z" fill="#000001"/>
<path fill-rule="evenodd" clip-rule="evenodd" d="M0.25 8C0.25 3.71979 3.71979 0.25 8 0.25C12.2802 0.25 15.75 3.71979 15.75 8C15.75 12.2802 12.2802 15.75 8 15.75C3.71979 15.75 0.25 12.2802 0.25 8ZM8 1.75C4.54822 1.75 1.75 4.54822 1.75 8C1.75 9.23445 2.10788 10.3853 2.72556 11.3545C2.87526 11.1598 3.05129 10.985 3.2401 10.8208C3.85506 10.286 4.66927 10 5.5 10H10.5C11.3307 10 12.1449 10.286 12.7599 10.8208C12.9487 10.985 13.1247 11.1598 13.2744 11.3545C13.8921 10.3853 14.25 9.23445 14.25 8C14.25 4.54822 11.4518 1.75 8 1.75ZM8 14.25C6.3648 14.25 4.87626 13.622 3.76241 12.5941C3.79728 12.3976 3.91464 12.222 4.22437 11.9527C4.54709 11.672 5.00465 11.5 5.5 11.5H10.5C10.9954 11.5 11.4529 11.672 11.7756 11.9527C12.0854 12.222 12.2027 12.3976 12.2376 12.5941C11.1237 13.622 9.6352 14.25 8 14.25Z" fill="#000001"/>
</g>
</g>
</svg>
