<svg width="16" height="16" viewBox="0 0 16 16" fill="none" xmlns="http://www.w3.org/2000/svg">
<g id="size=16">
<g id="Union">
<path fill-rule="evenodd" clip-rule="evenodd" d="M6 2C4.067 2 2.5 3.567 2.5 5.5C2.5 7.433 4.067 9 6 9C7.933 9 9.5 7.433 9.5 5.5C9.5 3.567 7.933 2 6 2ZM4 5.5C4 4.39543 4.89543 3.5 6 3.5C7.10457 3.5 8 4.39543 8 5.5C8 6.60457 7.10457 7.5 6 7.5C4.89543 7.5 4 6.60457 4 5.5Z" fill="black"/>
<path d="M4.25 10C2.17893 10 0.5 11.6789 0.5 13.75V14.25C0.5 14.6642 0.835786 15 1.25 15C1.66421 15 2 14.6642 2 14.25V13.75C2 12.5074 3.00736 11.5 4.25 11.5H7.75C8.99264 11.5 10 12.5074 10 13.75V14.25C10 14.6642 10.3358 15 10.75 15C11.1642 15 11.5 14.6642 11.5 14.25V13.75C11.5 11.6789 9.82107 10 7.75 10H4.25Z" fill="black"/>
<path d="M11.2197 5.21967C11.5126 4.92678 11.9874 4.92678 12.2803 5.21967L13.5 6.43934L14.7197 5.21967C15.0126 4.92678 15.4874 4.92678 15.7803 5.21967C16.0732 5.51256 16.0732 5.98744 15.7803 6.28033L14.5607 7.5L15.7803 8.71967C16.0732 9.01256 16.0732 9.48744 15.7803 9.78033C15.4874 10.0732 15.0126 10.0732 14.7197 9.78033L13.5 8.56066L12.2803 9.78033C11.9874 10.0732 11.5126 10.0732 11.2197 9.78033C10.9268 9.48744 10.9268 9.01256 11.2197 8.71967L12.4393 7.5L11.2197 6.28033C10.9268 5.98744 10.9268 5.51256 11.2197 5.21967Z" fill="black"/>
</g>
</g>
</svg>
