<svg width="24" height="24" viewBox="0 0 24 24" fill="none" xmlns="http://www.w3.org/2000/svg">
<g id="size=24">
<g id="Union">
<path fill-rule="evenodd" clip-rule="evenodd" d="M12 3C9.23858 3 7 5.23858 7 8C7 10.7614 9.23858 13 12 13C14.7614 13 17 10.7614 17 8C17 5.23858 14.7614 3 12 3ZM8.5 8C8.5 6.067 10.067 4.5 12 4.5C13.933 4.5 15.5 6.067 15.5 8C15.5 9.933 13.933 11.5 12 11.5C10.067 11.5 8.5 9.933 8.5 8Z" fill="#000001"/>
<path d="M7.75 14.5C5.12665 14.5 3 16.6266 3 19.25V20.25C3 20.6642 3.33579 21 3.75 21C4.16421 21 4.5 20.6642 4.5 20.25V19.25C4.5 17.4551 5.95507 16 7.75 16H16.25C18.0449 16 19.5 17.4551 19.5 19.25V20.25C19.5 20.6642 19.8358 21 20.25 21C20.6642 21 21 20.6642 21 20.25V19.25C21 16.6266 18.8734 14.5 16.25 14.5H7.75Z" fill="#000001"/>
</g>
</g>
</svg>
