<svg width="16" height="16" viewBox="0 0 16 16" fill="none" xmlns="http://www.w3.org/2000/svg">
<g id="size=16">
<g id="Union">
<path fill-rule="evenodd" clip-rule="evenodd" d="M6.03456 3.9739C6.86422 3.36179 7.88986 3 9 3C10.1101 3 11.1358 3.36179 11.9654 3.9739L11.9697 3.96967C12.2626 3.67678 12.7374 3.67678 13.0303 3.96967C13.3232 4.26256 13.3232 4.73744 13.0303 5.03033L13.0261 5.03456C13.6382 5.86422 14 6.88986 14 8C14 9.11014 13.6382 10.1358 13.0261 10.9654L13.0303 10.9697C13.3232 11.2626 13.3232 11.7374 13.0303 12.0303C12.7374 12.3232 12.2626 12.3232 11.9697 12.0303L11.9654 12.0261C11.1358 12.6382 10.1101 13 9 13C7.88986 13 6.86422 12.6382 6.03456 12.0261L6.03033 12.0303C5.73744 12.3232 5.26256 12.3232 4.96967 12.0303C4.67678 11.7374 4.67678 11.2626 4.96967 10.9697L4.9739 10.9654C4.36179 10.1358 4 9.11014 4 8C4 6.88986 4.36179 5.86422 4.9739 5.03456L4.96967 5.03033C4.67678 4.73744 4.67678 4.26256 4.96967 3.96967C5.26256 3.67678 5.73744 3.67678 6.03033 3.96967L6.03456 3.9739ZM7.11263 5.05197C7.65721 4.7026 8.30495 4.5 9 4.5C9.69506 4.5 10.3428 4.7026 10.8874 5.05197L9.96967 5.96967C9.67678 6.26256 9.67678 6.73744 9.96967 7.03033C10.2626 7.32322 10.7374 7.32322 11.0303 7.03033L11.948 6.11263C12.2974 6.65721 12.5 7.30494 12.5 8C12.5 8.69505 12.2974 9.34279 11.948 9.88737L11.0303 8.96967C10.7374 8.67678 10.2626 8.67678 9.96967 8.96967C9.67678 9.26256 9.67678 9.73744 9.96967 10.0303L10.8874 10.948C10.3428 11.2974 9.69505 11.5 9 11.5C8.30495 11.5 7.65721 11.2974 7.11263 10.948L8.03033 10.0303C8.32322 9.73744 8.32322 9.26256 8.03033 8.96967C7.73744 8.67678 7.26256 8.67678 6.96967 8.96967L6.05197 9.88737C5.7026 9.34279 5.5 8.69505 5.5 8C5.5 7.30494 5.7026 6.65721 6.05197 6.11263L6.96967 7.03033C7.26256 7.32322 7.73744 7.32322 8.03033 7.03033C8.32322 6.73744 8.32322 6.26256 8.03033 5.96967L7.11263 5.05197Z" fill="black"/>
<path d="M2.75 3.25C3.16421 3.25 3.5 3.58579 3.5 4L3.5 5.5C3.5 5.91421 3.16421 6.25 2.75 6.25C2.33579 6.25 2 5.91421 2 5.5L2 4C2 3.58579 2.33579 3.25 2.75 3.25Z" fill="black"/>
<path d="M3.5 10.5C3.5 10.0858 3.16421 9.75 2.75 9.75C2.33579 9.75 2 10.0858 2 10.5L2 12C2 12.4142 2.33579 12.75 2.75 12.75C3.16421 12.75 3.5 12.4142 3.5 12L3.5 10.5Z" fill="black"/>
<path fill-rule="evenodd" clip-rule="evenodd" d="M2.25 1C1.00736 1 0 2.00736 0 3.25V12.75C0 13.9926 1.00736 15 2.25 15H3V15.25C3 15.6642 3.33579 16 3.75 16C4.16421 16 4.5 15.6642 4.5 15.25V15H11.5V15.25C11.5 15.6642 11.8358 16 12.25 16C12.6642 16 13 15.6642 13 15.25V15H13.75C14.9926 15 16 13.9926 16 12.75V3.25C16 2.00736 14.9926 1 13.75 1H2.25ZM13.75 13.5C14.1642 13.5 14.5 13.1642 14.5 12.75V3.25C14.5 2.83579 14.1642 2.5 13.75 2.5H2.25C1.83579 2.5 1.5 2.83579 1.5 3.25V12.75C1.5 13.1642 1.83579 13.5 2.25 13.5H13.75Z" fill="black"/>
</g>
</g>
</svg>
