<svg width="16" height="16" viewBox="0 0 16 16" fill="none" xmlns="http://www.w3.org/2000/svg">
<g id="size=16">
<g id="Union">
<path d="M11.2803 5.71967C11.5732 6.01256 11.5732 6.48744 11.2803 6.78033L7.28033 10.7803C6.98744 11.0732 6.51256 11.0732 6.21967 10.7803L4.71967 9.28033C4.42678 8.98744 4.42678 8.51256 4.71967 8.21967C5.01256 7.92678 5.48744 7.92678 5.78033 8.21967L6.75 9.18934L10.2197 5.71967C10.5126 5.42678 10.9874 5.42678 11.2803 5.71967Z" fill="black"/>
<path fill-rule="evenodd" clip-rule="evenodd" d="M6.40155 1.22024C7.35772 0.537263 8.64219 0.537264 9.59836 1.22024L10.288 1.71285C10.4423 1.82305 10.6196 1.89672 10.8066 1.92826L11.6718 2.07424C12.8264 2.26906 13.7311 3.17371 13.9259 4.32839L14.0719 5.19356C14.1034 5.38052 14.1771 5.55786 14.2873 5.71214L14.7799 6.4018C15.4629 7.35796 15.4629 8.64244 14.7799 9.59861L14.2873 10.2883C14.1771 10.4425 14.1034 10.6199 14.0719 10.8068L13.9259 11.672C13.7311 12.8267 12.8264 13.7313 11.6718 13.9262L10.8066 14.0721C10.6196 14.1037 10.4423 14.1773 10.288 14.2876L9.59836 14.7802C8.64219 15.4631 7.35772 15.4631 6.40155 14.7802L5.7119 14.2876C5.55761 14.1773 5.38028 14.1037 5.19332 14.0721L4.32814 13.9262C3.17347 13.7313 2.26881 12.8267 2.07399 11.672L1.92802 10.8068C1.89647 10.6199 1.82281 10.4425 1.71261 10.2883L1.22 9.59861C0.537019 8.64244 0.53702 7.35796 1.22 6.4018L1.71261 5.71214C1.82281 5.55786 1.89647 5.38052 1.92802 5.19356L2.07399 4.32839C2.26881 3.17371 3.17347 2.26906 4.32814 2.07424L5.19332 1.92826C5.38028 1.89672 5.55761 1.82305 5.7119 1.71285L6.40155 1.22024ZM8.7265 2.44084C8.29188 2.1304 7.70803 2.1304 7.27341 2.44084L6.58376 2.93345C6.24433 3.1759 5.85419 3.33796 5.44287 3.40736L4.5777 3.55333C4.05285 3.64189 3.64164 4.05309 3.55309 4.57795L3.40711 5.44312C3.33771 5.85443 3.17566 6.24457 2.93321 6.584L2.4406 7.27365C2.13015 7.70827 2.13015 8.29213 2.4406 8.72675L2.93321 9.4164C3.17566 9.75583 3.33771 10.146 3.40711 10.5573L3.55309 11.4225C3.64164 11.9473 4.05285 12.3585 4.5777 12.4471L5.44287 12.593C5.85419 12.6624 6.24432 12.8245 6.58376 13.067L7.27341 13.5596C7.70803 13.87 8.29188 13.87 8.7265 13.5596L9.41616 13.067C9.75559 12.8245 10.1457 12.6624 10.557 12.593L11.4222 12.4471C11.9471 12.3585 12.3583 11.9473 12.4468 11.4225L12.5928 10.5573C12.6622 10.146 12.8243 9.75583 13.0667 9.4164L13.5593 8.72675C13.8698 8.29213 13.8698 7.70827 13.5593 7.27365L13.0667 6.584C12.8243 6.24457 12.6622 5.85443 12.5928 5.44312L12.4468 4.57795C12.3583 4.05309 11.9471 3.64189 11.4222 3.55333L10.557 3.40736C10.1457 3.33796 9.75559 3.1759 9.41616 2.93345L8.7265 2.44084Z" fill="black"/>
</g>
</g>
</svg>
