<svg width="24" height="24" viewBox="0 0 24 24" fill="none" xmlns="http://www.w3.org/2000/svg">
<g id="Size=24, Style=Mono">
<path id="icon" d="M4.09626 8.4681C3.84484 7.89776 3.22341 7.63942 2.64316 7.90622C2.06221 8.17338 1.84843 8.84 2.11086 9.4107L4.54724 14.891C4.9304 15.7498 5.33416 16.2 6.09195 16.2C6.9016 16.2 7.25457 15.7098 7.63738 14.891C7.63738 14.891 9.76233 10.1027 9.78364 10.0527C9.8053 10.002 9.87348 9.84728 10.0897 9.84875C10.2726 9.84985 10.4264 10.0009 10.4264 10.2037V14.8862C10.4264 15.608 10.8131 16.2 11.5574 16.2C12.301 16.2 12.703 15.608 12.703 14.8862V11.0545C12.703 10.3155 13.2147 9.83589 13.9121 9.83589C14.6095 9.83589 15.0737 10.3327 15.0737 11.0545V14.8862C15.0737 15.608 15.4618 16.2 16.2047 16.2C16.9483 16.2 17.3524 15.608 17.3524 14.8862V11.0545C17.3524 10.3155 17.8619 9.83589 18.5597 9.83589C19.2561 9.83589 19.722 10.3327 19.722 11.0545V14.8862C19.722 15.608 20.1098 16.2 20.8534 16.2C21.5966 16.2 22 15.608 22 14.8862V10.5253C22 8.92268 20.7546 7.80001 19.2561 7.80001C17.7593 7.80001 16.8218 8.8716 16.8218 8.8716C16.3236 8.20314 15.6369 7.80148 14.4746 7.80148C13.2481 7.80148 12.1746 8.8716 12.1746 8.8716C11.676 8.20314 10.8273 7.80148 10.1245 7.80148C9.03756 7.80148 8.1743 8.29612 7.64767 9.54226L6.09195 13.3373L4.09626 8.4681Z" fill="black"/>
</g>
</svg>
