<svg width="16" height="16" viewBox="0 0 16 16" fill="none" xmlns="http://www.w3.org/2000/svg">
<g id="Size=16">
<g id="Union">
<path fill-rule="evenodd" clip-rule="evenodd" d="M9 3.71018C9 2.69891 7.86165 2.10621 7.03317 2.68614L3.72786 4.99986H1.25C0.559644 4.99986 0 5.5595 0 6.24986V9.74986C0 10.4402 0.559644 10.9999 1.25 10.9999H3.72786L7.03317 13.3136C7.86164 13.8935 9 13.3008 9 12.2895V3.71018ZM4.5235 6.2739L7.5 4.19035V11.8094L4.5235 9.72582C4.31339 9.57874 4.06313 9.49986 3.80667 9.49986H1.5V6.49986H3.80667C4.06313 6.49986 4.31339 6.42097 4.5235 6.2739Z" fill="black"/>
<path d="M11.7614 5.20136C11.4584 4.91894 10.9838 4.93563 10.7014 5.23864C10.4189 5.54164 10.4356 6.01622 10.7386 6.29864C11.2331 6.75955 11.5 7.37278 11.5 8C11.5 8.62722 11.2331 9.24046 10.7386 9.70136C10.4356 9.98378 10.4189 10.4584 10.7014 10.7614C10.9838 11.0644 11.4584 11.0811 11.7614 10.7986C12.5475 10.0659 13 9.06053 13 8C13 6.93947 12.5475 5.93406 11.7614 5.20136Z" fill="black"/>
</g>
</g>
</svg>
