<svg width="24" height="24" viewBox="0 0 24 24" fill="none" xmlns="http://www.w3.org/2000/svg">
<g id="Size=24">
<g id="Union">
<path fill-rule="evenodd" clip-rule="evenodd" d="M12 6.07477C12 4.53838 10.1618 3.74771 9.04645 4.80435L5.74569 7.93139C5.69925 7.97538 5.63772 7.9999 5.57375 7.9999H2.75C1.7835 7.9999 1 8.7834 1 9.7499V14.2499C1 15.2164 1.7835 15.9999 2.75 15.9999H5.57375C5.63772 15.9999 5.69925 16.0244 5.74569 16.0684L9.04645 19.1954C10.1618 20.2521 12 19.4614 12 17.925V6.07477ZM10.0781 5.89328C10.2374 5.74233 10.5 5.85528 10.5 6.07477V17.925C10.5 18.1445 10.2374 18.2575 10.0781 18.1065L6.7773 14.9795C6.45225 14.6715 6.02152 14.4999 5.57375 14.4999H2.75C2.61193 14.4999 2.5 14.388 2.5 14.2499V9.7499C2.5 9.61183 2.61193 9.4999 2.75 9.4999H5.57375C6.02151 9.4999 6.45225 9.32826 6.7773 9.02032L10.0781 5.89328Z" fill="black"/>
<path d="M16.2712 7.96074C15.9734 7.67286 15.4986 7.68093 15.2107 7.97876C14.9229 8.27658 14.9309 8.75139 15.2288 9.03926C16.0459 9.82911 16.5 10.8946 16.5 12C16.5 13.1054 16.0459 14.1709 15.2288 14.9607C14.9309 15.2486 14.9229 15.7234 15.2107 16.0212C15.4986 16.3191 15.9734 16.3271 16.2712 16.0393C17.375 14.9724 18 13.52 18 12C18 10.48 17.375 9.0276 16.2712 7.96074Z" fill="black"/>
</g>
</g>
</svg>
