<svg width="24" height="24" viewBox="0 0 24 24" fill="none" xmlns="http://www.w3.org/2000/svg">
<g id="size=24">
<path id="Union" fill-rule="evenodd" clip-rule="evenodd" d="M3.75 2C2.23122 2 1 3.23122 1 4.75V19.25C1 20.7688 2.23122 22 3.75 22H20.25C21.7688 22 23 20.7688 23 19.25V4.75C23 3.23122 21.7688 2 20.25 2H3.75ZM6.5 3.5H3.75C3.05964 3.5 2.5 4.05964 2.5 4.75V8H6.5V3.5ZM2.5 9.5V14.5H11V9.5H2.5ZM2.5 16V19.25C2.5 19.9404 3.05964 20.5 3.75 20.5H6.5V16H2.5ZM8 20.5H16V16H8V20.5ZM17.5 20.5H20.25C20.9404 20.5 21.5 19.9404 21.5 19.25V16H17.5V20.5ZM21.5 14.5V9.5H12.5V14.5H21.5ZM21.5 8V4.75C21.5 4.05964 20.9404 3.5 20.25 3.5H17.5V8H21.5ZM16 3.5V8H8V3.5H16Z" fill="#000001"/>
</g>
</svg>
