<svg viewBox="0 0 16 16" width="16" height="16" fill="currentColor" xmlns="http://www.w3.org/2000/svg">
 <g transform="translate(2.5, 0)">
  <path d="M6.5 6.25C6.5 5.83579 6.16421 5.5 5.75 5.5C5.33579 5.5 5 5.83579 5 6.25L5 8.5C5 8.82282 5.20657 9.10943 5.51283 9.21151L7.01283 9.71151C7.40579 9.8425 7.83053 9.63013 7.96151 9.23717C8.0925 8.84421 7.88013 8.41947 7.48717 8.28849L6.5 7.95943L6.5 6.25Z" fill-rule="NONZERO"></path>
  <path d="M2.07353 1.9318C2.23188 0.82334 3.1812 0 4.30092 0L6.69903 0C7.81874 0 8.76806 0.823342 8.92642 1.9318L9.21374 3.9431C10.3116 4.94863 11 6.39392 11 8C11 9.60608 10.3116 11.0514 9.21374 12.0569L8.92642 14.0682C8.76806 15.1767 7.81874 16 6.69903 16L4.30092 16C3.1812 16 2.23188 15.1767 2.07353 14.0682L1.78619 12.0568C0.688385 11.0513 0 9.60605 0 8C0 6.39395 0.688385 4.94868 1.78619 3.94315L2.07353 1.9318ZM3.45127 13.1058L3.55845 13.8561C3.61124 14.2256 3.92768 14.5 4.30092 14.5L6.69903 14.5C7.07227 14.5 7.38871 14.2256 7.44149 13.8561L7.54868 13.1058C6.91551 13.3601 6.2241 13.5 5.5 13.5C4.77588 13.5 4.08445 13.3601 3.45127 13.1058ZM7.44149 2.14393L7.54868 2.89422C6.91551 2.63993 6.2241 2.5 5.5 2.5C4.77588 2.5 4.08445 2.63994 3.45127 2.89424L3.55845 2.14393C3.61124 1.77445 3.92768 1.5 4.30092 1.5L6.69903 1.5C7.07227 1.5 7.38871 1.77445 7.44149 2.14393ZM1.5 8C1.5 5.79086 3.29086 4 5.5 4C7.70914 4 9.5 5.79086 9.5 8C9.5 10.2091 7.70914 12 5.5 12C3.29086 12 1.5 10.2091 1.5 8Z" fill-rule="EVENODD"></path>
 </g>
</svg>