<svg width="24" height="24" viewBox="0 0 24 24" fill="none" xmlns="http://www.w3.org/2000/svg">
<g id="size=24">
<g id="Union">
<path d="M8.75 6C8.75 4.20507 10.2051 2.75 12 2.75C13.2226 2.75 14.2887 3.42482 14.8442 4.4259C15.0452 4.78809 15.5017 4.91878 15.8639 4.7178C16.2261 4.51682 16.3568 4.06028 16.1558 3.69809C15.3466 2.23975 13.7894 1.25 12 1.25C9.37665 1.25 7.25 3.37665 7.25 6C7.25 7.41498 7.8691 8.68501 8.84909 9.55445L5.36388 15.0312C5.24902 15.0107 5.13077 15 5.01001 15H5.00001C3.89544 15 3.00001 15.8954 3.00001 17C3.00001 18.1046 3.89544 19 5.00001 19H5.01001C6.11458 19 7.01001 18.1046 7.01001 17C7.01001 16.5635 6.8702 16.1597 6.63293 15.8309L10.485 9.77773C10.7072 9.4285 10.6045 8.96527 10.2555 8.7427C9.34871 8.16447 8.75 7.1519 8.75 6Z" fill="black"/>
<path d="M12.3639 7.96879C12.249 7.9893 12.1308 8 12.01 8H12C10.8954 8 10 7.10457 10 6C10 4.89543 10.8954 4 12 4H12.01C13.1146 4 14.01 4.89543 14.01 6C14.01 6.43645 13.8702 6.84026 13.6329 7.16906L17.114 12.6394C17.6926 12.3888 18.3307 12.25 19 12.25C21.6234 12.25 23.75 14.3766 23.75 17C23.75 19.6234 21.6234 21.75 19 21.75C18.5911 21.75 18.1932 21.6982 17.8131 21.6003C17.4119 21.4971 17.1704 21.0882 17.2737 20.687C17.3769 20.2859 17.7858 20.0444 18.1869 20.1477C18.446 20.2143 18.7183 20.25 19 20.25C20.7949 20.25 22.25 18.7949 22.25 17C22.25 15.2051 20.7949 13.75 19 13.75C18.3566 13.75 17.7591 13.9362 17.2555 14.2573C17.0877 14.3643 16.8842 14.4002 16.6899 14.3571C16.4956 14.3141 16.3263 14.1955 16.2195 14.0276L12.3639 7.96879Z" fill="black"/>
<path d="M2.18433 15.3755C2.39174 15.017 2.26922 14.5582 1.91067 14.3508C1.55213 14.1434 1.09333 14.2659 0.885924 14.6245C0.481328 15.3239 0.25 16.1361 0.25 17C0.25 19.6234 2.37665 21.75 5 21.75C7.36815 21.75 9.33154 20.017 9.69112 17.75H17.1454C17.4421 18.483 18.1607 19 19 19H19.01C20.1146 19 21.01 18.1046 21.01 17C21.01 15.8954 20.1146 15 19.01 15H19C18.1607 15 17.4421 15.517 17.1454 16.25H9C8.58579 16.25 8.25 16.5858 8.25 17C8.25 18.7949 6.79492 20.25 5 20.25C3.20508 20.25 1.75 18.7949 1.75 17C1.75 16.4068 1.90825 15.8528 2.18433 15.3755Z" fill="black"/>
</g>
</g>
</svg>
