<svg width="16" height="16" viewBox="0 0 16 16" fill="none" xmlns="http://www.w3.org/2000/svg">
<g id="Size=16">
<g id="Union">
<path d="M6.03235 4.13158C6.03235 3.09341 6.87543 2.25 7.91765 2.25C8.627 2.25 9.24551 2.6406 9.56795 3.22087C9.76915 3.58294 10.2258 3.71335 10.5878 3.51216C10.9499 3.31096 11.0803 2.85435 10.8791 2.49228C10.3024 1.45451 9.19268 0.75 7.91765 0.75C6.049 0.75 4.53235 2.26299 4.53235 4.13158C4.53235 5.07167 4.91669 5.92153 5.53497 6.53362L3.48059 10.1277C2.86164 10.2025 2.382 10.7295 2.382 11.3687C2.382 12.059 2.94165 12.6187 3.632 12.6187H3.63867C4.32903 12.6187 4.88867 12.059 4.88867 11.3687C4.88867 11.1909 4.85159 11.0219 4.78474 10.8688L7.15378 6.72421C7.35242 6.37668 7.24314 5.93441 6.90549 5.7194C6.37862 5.38389 6.03235 4.79764 6.03235 4.13158Z" fill="black"/>
<path d="M7.79298 5.37521C7.16115 5.31264 6.66765 4.77963 6.66765 4.13135C6.66765 3.44099 7.22729 2.88135 7.91765 2.88135H7.92432C8.61467 2.88135 9.17432 3.44099 9.17432 4.13135C9.17432 4.29948 9.14112 4.45986 9.08093 4.60629L11.2399 8.1782C11.5922 8.05424 11.971 7.98684 12.3647 7.98684C14.2334 7.98684 15.75 9.49983 15.75 11.3684C15.75 13.237 14.2334 14.75 12.3647 14.75C12.0737 14.75 11.7902 14.7132 11.5192 14.6435C11.118 14.5404 10.8764 14.1316 10.9795 13.7304C11.0826 13.3292 11.4914 13.0876 11.8926 13.1907C12.0427 13.2293 12.2007 13.25 12.3647 13.25C13.4069 13.25 14.25 12.4066 14.25 11.3684C14.25 10.3302 13.4069 9.48684 12.3647 9.48684C11.9908 9.48684 11.6445 9.59471 11.3526 9.7806C11.1822 9.88908 10.9753 9.92427 10.7787 9.87822C10.5821 9.83217 10.4123 9.70877 10.3078 9.53594L7.79298 5.37521Z" fill="black"/>
<path d="M2.00153 10.4286C2.20916 10.0702 2.08692 9.61128 1.7285 9.40366C1.37008 9.19603 0.911207 9.31827 0.703581 9.67669C0.414982 10.1749 0.25 10.7535 0.25 11.3684C0.25 13.237 1.76665 14.75 3.63529 14.75C5.24615 14.75 6.59543 13.6257 6.93705 12.1184H11.3578C11.5859 12.4222 11.949 12.6187 12.3581 12.6187H12.3647C13.0551 12.6187 13.6147 12.059 13.6147 11.3687C13.6147 10.6783 13.0551 10.1187 12.3647 10.1187H12.3581C11.9492 10.1187 11.5862 10.3149 11.3582 10.6184H6.27059C5.85637 10.6184 5.52059 10.9542 5.52059 11.3684C5.52059 12.4066 4.67751 13.25 3.63529 13.25C2.59308 13.25 1.75 12.4066 1.75 11.3684C1.75 11.0247 1.84168 10.7045 2.00153 10.4286Z" fill="black"/>
</g>
</g>
</svg>
