<svg width="16" height="16" viewBox="0 0 16 16" fill="none" xmlns="http://www.w3.org/2000/svg">
<g id="size=16">
<path id="Vector (Stroke) (Stroke)" fill-rule="evenodd" clip-rule="evenodd" d="M10.9732 1.50622C10.8244 1.50222 10.6591 1.5 10.4756 1.5C8.25298 1.5 6.4512 3.30177 6.4512 5.52438C6.4512 5.95415 6.5461 6.38874 6.64953 6.72943C6.70377 6.9081 6.76617 7.08488 6.84152 7.25583L6.84228 7.25756C6.97566 7.54382 6.91554 7.88331 6.69147 8.1062L1.75466 13.0171C1.59202 13.1801 1.5 13.4016 1.5 13.6315C1.5 13.8619 1.5915 14.0828 1.75437 14.2456C1.91724 14.4085 2.13814 14.5 2.36847 14.5C2.59859 14.5 2.81929 14.4087 2.98212 14.2461L7.89621 9.3094C8.11854 9.08604 8.4567 9.02556 8.74258 9.15779C8.91279 9.2366 9.09224 9.29655 9.2715 9.35092C9.61152 9.45406 10.0456 9.54876 10.4756 9.54876C12.6982 9.54876 14.5 7.74698 14.5 5.52438C14.5 5.34682 14.4979 5.18631 14.4942 5.04137C14.2855 5.2901 14.0563 5.55832 13.8189 5.81505C13.4995 6.16039 13.1421 6.51073 12.771 6.77923C12.4166 7.03568 11.9516 7.2905 11.4324 7.2905C11.0364 7.2905 10.6561 7.13522 10.3733 6.85801L9.14196 5.6267C8.86474 5.34388 8.7095 4.96361 8.7095 4.5676C8.7095 4.04698 8.96641 3.58153 9.22422 3.22763C9.49427 2.85692 9.84656 2.50006 10.1937 2.1814C10.4524 1.94393 10.7227 1.71477 10.9732 1.50622ZM8.61375 10.7147L4.04364 15.3059C3.59947 15.7501 2.99663 16 2.36847 16C1.74032 16 1.13788 15.7505 0.69371 15.3063C0.249534 14.8621 0 14.2597 0 13.6315C0 13.0034 0.249535 12.4009 0.69371 11.9568L0.694867 11.9556L5.28615 7.38839C5.26269 7.31964 5.23844 7.24497 5.21421 7.16516C5.08697 6.74601 4.95121 6.15555 4.95121 5.52438C4.95121 2.47335 7.42455 0 10.4756 0C11.1515 0 11.6432 0.028147 12.0011 0.0757612C12.3322 0.119804 12.641 0.190635 12.874 0.339629C13.0015 0.42116 13.1632 0.562557 13.2483 0.790602C13.339 1.03367 13.2999 1.25902 13.2346 1.4145C13.181 1.54183 13.0971 1.65547 12.9936 1.74664C12.7338 2.00402 12.4467 2.2336 12.1652 2.46646C11.8502 2.72706 11.5176 3.00233 11.2081 3.28644C10.8891 3.5792 10.6207 3.85812 10.4366 4.11084C10.2402 4.38051 10.2095 4.52618 10.2095 4.5676C10.2095 4.57071 10.2106 4.5737 10.2126 4.57604L11.424 5.78738C11.4263 5.78939 11.4293 5.7905 11.4324 5.7905C11.4752 5.7905 11.6217 5.75935 11.8917 5.56402C12.1448 5.38084 12.4242 5.11387 12.7176 4.79662C13.0018 4.48931 13.2773 4.15904 13.5383 3.84604C13.7715 3.56641 14.0007 3.28226 14.2578 3.02391C14.3433 2.92519 14.4488 2.84365 14.5675 2.78879C14.7168 2.71977 14.9441 2.66886 15.1961 2.75562C15.434 2.83751 15.5802 3.00359 15.6627 3.13181C15.8127 3.36496 15.8823 3.67461 15.9254 4.00232C15.9723 4.35839 16 4.84881 16 5.52438C16 8.5754 13.5266 11.0488 10.4756 11.0488C9.84458 11.0488 9.25479 10.9133 8.8361 10.7863C8.75662 10.7622 8.68225 10.7381 8.61375 10.7147Z" fill="#000001"/>
</g>
</svg>
