<svg width="24" height="24" viewBox="0 0 24 24" fill="none" xmlns="http://www.w3.org/2000/svg">
<g id="Size=24">
<path id="Vector (Stroke)" fill-rule="evenodd" clip-rule="evenodd" d="M15.5 2.5C12.1863 2.5 9.5 5.18629 9.5 8.5C9.5 9.1493 9.64263 9.79597 9.79377 10.2938C9.86838 10.5396 9.94278 10.7417 9.99771 10.8806C10.0251 10.9498 10.0475 11.0029 10.0624 11.0373C10.0698 11.0545 10.0754 11.067 10.0788 11.0744L10.0819 11.0814C10.2153 11.3678 10.1551 11.7074 9.93116 11.9302L2.95053 18.8742C2.66232 19.1626 2.5 19.5541 2.5 19.9619C2.5 20.3698 2.66206 20.7611 2.95053 21.0495C3.23899 21.338 3.63024 21.5001 4.0382 21.5001C4.44594 21.5001 4.83699 21.3382 5.12541 21.05L12.0732 14.0702C12.2958 13.8466 12.6345 13.7862 12.9206 13.9191L12.9218 13.9196L12.9287 13.9227C12.9362 13.9261 12.9486 13.9316 12.9657 13.939C13 13.9539 13.053 13.9762 13.1221 14.0035C13.2606 14.0583 13.4623 14.1325 13.7076 14.2069C14.2046 14.3577 14.8505 14.5 15.5 14.5C18.8137 14.5 21.5 11.8137 21.5 8.5C21.5 7.86452 21.4817 7.37805 21.4531 7.00817C21.387 7.08698 21.3181 7.16952 21.2463 7.25553L21.2121 7.29656C20.8497 7.73114 20.4337 8.23008 19.9989 8.70024C19.5528 9.18265 19.0635 9.66072 18.5633 10.0227C18.0798 10.3726 17.4882 10.6866 16.8527 10.6866C16.3741 10.6866 15.9145 10.4989 15.5727 10.1639L15.5673 10.1586L13.8362 8.42741C13.5011 8.08558 13.3135 7.62598 13.3135 7.14732C13.3135 6.51037 13.6299 5.91846 13.9817 5.4356C14.3457 4.93589 14.8264 4.44748 15.3114 4.00234C15.7849 3.56772 16.2873 3.15208 16.7245 2.79034L16.7635 2.75811C16.8511 2.68566 16.935 2.6161 17.0152 2.5494C16.6418 2.51939 16.1481 2.5 15.5 2.5ZM18.8483 2.93185C18.866 2.91651 18.8862 2.89798 18.9076 2.87632C18.9607 2.82255 19.0512 2.71966 19.1145 2.56915C19.1838 2.40448 19.2237 2.16921 19.1292 1.9159C19.0402 1.67739 18.8694 1.52448 18.7236 1.43127C18.4547 1.25926 18.0757 1.16557 17.6159 1.1044C17.1288 1.0396 16.4487 1 15.5 1C11.3579 1 8 4.35786 8 8.5C8 9.3507 8.18349 10.1532 8.35846 10.7296C8.41441 10.9139 8.47044 11.0781 8.52111 11.217L1.88987 17.8135C1.3201 18.3833 1 19.1561 1 19.9619C1 20.7676 1.32009 21.5404 1.88987 22.1102C2.45964 22.68 3.23242 23.0001 4.0382 23.0001C4.84397 23.0001 5.61675 22.68 6.18652 22.1102L12.7861 15.4803C12.9246 15.5308 13.0884 15.5866 13.2722 15.6424C13.8478 15.817 14.6495 16 15.5 16C19.6421 16 23 12.6421 23 8.5C23 7.55166 22.961 6.87324 22.8973 6.38859C22.8373 5.93276 22.7453 5.5537 22.5726 5.28533C22.4785 5.13918 22.3209 4.9644 22.0729 4.87899C21.8108 4.78878 21.5738 4.8409 21.4153 4.91414C21.2696 4.9815 21.1709 5.07346 21.12 5.12635C21.1031 5.14392 21.0882 5.16061 21.0753 5.17576C20.7882 5.46296 20.4441 5.8754 20.0944 6.29483L20.0687 6.32553C19.7005 6.76713 19.3059 7.24037 18.8976 7.68181C18.4775 8.13612 18.0663 8.53083 17.684 8.80747C17.285 9.0962 17.0119 9.18659 16.8527 9.18659C16.7676 9.18659 16.6858 9.15356 16.6246 9.09451L14.9056 7.37547C14.8465 7.31424 14.8135 7.23246 14.8135 7.14732C14.8135 6.98954 14.9037 6.71741 15.1941 6.31882C15.4722 5.93708 15.869 5.52662 16.3257 5.10738C16.7703 4.69932 17.2469 4.30502 17.6912 3.93738L17.7197 3.91383C18.1434 3.56328 18.56 3.21864 18.8483 2.93185Z" fill="black"/>
</g>
</svg>
