<svg width="24" height="24" viewBox="0 0 24 24" fill="none" xmlns="http://www.w3.org/2000/svg">
<g id="Size=24">
<path id="Union" fill-rule="evenodd" clip-rule="evenodd" d="M12 1.25C6.06294 1.25 1.25 6.06294 1.25 12C1.25 17.9371 6.06294 22.75 12 22.75C17.9371 22.75 22.75 17.9371 22.75 12C22.75 6.06294 17.9371 1.25 12 1.25ZM7.21967 7.21967C7.51256 6.92678 7.98744 6.92678 8.28033 7.21967L12 10.9393L15.7197 7.21967C16.0126 6.92678 16.4874 6.92678 16.7803 7.21967C17.0732 7.51256 17.0732 7.98744 16.7803 8.28033L13.0607 12L16.7803 15.7197C17.0732 16.0126 17.0732 16.4874 16.7803 16.7803C16.4874 17.0732 16.0126 17.0732 15.7197 16.7803L12 13.0607L8.28033 16.7803C7.98744 17.0732 7.51256 17.0732 7.21967 16.7803C6.92678 16.4874 6.92678 16.0126 7.21967 15.7197L10.9393 12L7.21967 8.28033C6.92678 7.98744 6.92678 7.51256 7.21967 7.21967Z" fill="black"/>
</g>
</svg>
