<svg viewBox="0 0 16 16" width="16" height="16" fill="currentColor" xmlns="http://www.w3.org/2000/svg">
 <g transform="translate(0.25, 0.25)">
  <path d="M7.75 0C3.46979 0 0 3.46979 0 7.75C0 12.0302 3.46979 15.5 7.75 15.5C12.0302 15.5 15.5 12.0302 15.5 7.75C15.5 3.46979 12.0302 0 7.75 0ZM10.4697 3.96967C10.7626 3.67678 11.2374 3.67678 11.5303 3.96967C11.8232 4.26256 11.8232 4.73744 11.5303 5.03033L8.81066 7.75L11.5303 10.4697C11.8232 10.7626 11.8232 11.2374 11.5303 11.5303C11.2374 11.8232 10.7626 11.8232 10.4697 11.5303L7.75 8.81066L5.03033 11.5303C4.73744 11.8232 4.26256 11.8232 3.96967 11.5303C3.67678 11.2374 3.67678 10.7626 3.96967 10.4697L6.68934 7.75L3.96967 5.03033C3.67678 4.73744 3.67678 4.26256 3.96967 3.96967C4.26256 3.67678 4.73744 3.67678 5.03033 3.96967L7.75 6.68934L10.4697 3.96967Z" fill-rule="EVENODD"></path>
 </g>
</svg>