<svg width="16" height="16" viewBox="0 0 16 16" fill="none" xmlns="http://www.w3.org/2000/svg">
<g id="size=16">
<path id="Union" fill-rule="evenodd" clip-rule="evenodd" d="M8 0.25C3.71979 0.25 0.25 3.71979 0.25 8C0.25 12.2802 3.71979 15.75 8 15.75C12.2802 15.75 15.75 12.2802 15.75 8C15.75 3.71979 12.2802 0.25 8 0.25ZM10.7197 4.21967C11.0126 3.92678 11.4874 3.92678 11.7803 4.21967C12.0732 4.51256 12.0732 4.98744 11.7803 5.28033L9.06066 8L11.7803 10.7197C12.0732 11.0126 12.0732 11.4874 11.7803 11.7803C11.4874 12.0732 11.0126 12.0732 10.7197 11.7803L8 9.06066L5.28033 11.7803C4.98744 12.0732 4.51256 12.0732 4.21967 11.7803C3.92678 11.4874 3.92678 11.0126 4.21967 10.7197L6.93934 8L4.21967 5.28033C3.92678 4.98744 3.92678 4.51256 4.21967 4.21967C4.51256 3.92678 4.98744 3.92678 5.28033 4.21967L8 6.93934L10.7197 4.21967Z" fill="black"/>
</g>
</svg>
