<svg width="16" height="16" viewBox="0 0 16 16" fill="none" xmlns="http://www.w3.org/2000/svg">
<g id="size=16">
<g id="Union">
<path d="M10.7804 5.21976C11.0732 5.51266 11.0732 5.98753 10.7804 6.28042L9.06068 8.00009L10.7804 9.71976C11.0732 10.0127 11.0732 10.4875 10.7804 10.7804C10.4875 11.0733 10.0126 11.0733 9.71969 10.7804L8.00002 9.06075L6.28035 10.7804C5.98746 11.0733 5.51259 11.0733 5.21969 10.7804C4.9268 10.4875 4.9268 10.0127 5.21969 9.71976L6.93936 8.00009L5.21969 6.28042C4.9268 5.98753 4.9268 5.51266 5.21969 5.21976C5.51259 4.92687 5.98746 4.92687 6.28035 5.21976L8.00002 6.93943L9.71969 5.21976C10.0126 4.92687 10.4875 4.92687 10.7804 5.21976Z" fill="black"/>
<path fill-rule="evenodd" clip-rule="evenodd" d="M0.750379 6.40959L6.40721 0.752761C7.28589 -0.125927 8.71053 -0.125919 9.58921 0.752777L15.2459 6.40961C16.1246 7.28829 16.1246 8.7129 15.2459 9.59158L9.58919 15.2483C8.71052 16.127 7.28591 16.127 6.40723 15.2483L0.750397 9.59159C-0.128299 8.71292 -0.128307 7.28828 0.750379 6.40959ZM7.46787 1.81342L1.81104 7.47025C1.51814 7.76315 1.51815 8.23803 1.81105 8.53092L7.46788 14.1876C7.76077 14.4805 8.23564 14.4805 8.52853 14.1876L14.1852 8.53092C14.4781 8.23802 14.4781 7.76315 14.1852 7.47026L8.52853 1.81343C8.23564 1.52053 7.76076 1.52052 7.46787 1.81342Z" fill="black"/>
</g>
</g>
</svg>
