<svg width="24" height="24" viewBox="0 0 24 24" fill="none" xmlns="http://www.w3.org/2000/svg">
<g id="Size=24">
<path id="Union" fill-rule="evenodd" clip-rule="evenodd" d="M13.9446 1.88409C12.8707 0.810129 11.1294 0.810119 10.0555 1.88407L1.88382 10.0557C0.809874 11.1297 0.809886 12.8709 1.88385 13.9448L10.0555 22.1163C11.1295 23.1902 12.8706 23.1902 13.9446 22.1163L22.1161 13.9448C23.19 12.8709 23.19 11.1297 22.1161 10.0558L13.9446 1.88409ZM8.21967 8.21955C8.51256 7.92665 8.98744 7.92665 9.28033 8.21955L12 10.9392L14.7197 8.21955C15.0126 7.92665 15.4874 7.92665 15.7803 8.21955C16.0732 8.51244 16.0732 8.98731 15.7803 9.28021L13.0607 11.9999L15.7803 14.7195C16.0732 15.0124 16.0732 15.4873 15.7803 15.7802C15.4874 16.0731 15.0126 16.0731 14.7197 15.7802L12 13.0605L9.28033 15.7802C8.98744 16.0731 8.51256 16.0731 8.21967 15.7802C7.92678 15.4873 7.92678 15.0124 8.21967 14.7195L10.9393 11.9999L8.21967 9.28021C7.92678 8.98732 7.92678 8.51244 8.21967 8.21955Z" fill="black"/>
</g>
</svg>
