<svg width="16" height="16" viewBox="0 0 16 16" fill="none" xmlns="http://www.w3.org/2000/svg">
<g id="size=16">
<path id="Union" fill-rule="evenodd" clip-rule="evenodd" d="M9.16624 0.329711C8.44947 -0.104696 7.55065 -0.104695 6.83388 0.329711L1.58388 3.51153C0.911031 3.91932 0.500061 4.64895 0.500061 5.43572V10.5641C0.500061 11.3509 0.911031 12.0805 1.58388 12.4883L6.83388 15.6701C7.55065 16.1045 8.44947 16.1045 9.16624 15.6701L14.4162 12.4883C15.0891 12.0805 15.5001 11.3509 15.5001 10.5641V5.43573C15.5001 4.64895 15.0891 3.91932 14.4162 3.51153L9.16624 0.329711ZM5.21973 5.21955C5.51262 4.92665 5.9875 4.92665 6.28039 5.21955L8.00006 6.93922L9.71973 5.21955C10.0126 4.92665 10.4875 4.92665 10.7804 5.21955C11.0733 5.51244 11.0733 5.98731 10.7804 6.28021L9.06072 7.99988L10.7804 9.71955C11.0733 10.0124 11.0733 10.4873 10.7804 10.7802C10.4875 11.0731 10.0126 11.0731 9.71973 10.7802L8.00006 9.06054L6.28039 10.7802C5.9875 11.0731 5.51262 11.0731 5.21973 10.7802C4.92684 10.4873 4.92684 10.0124 5.21973 9.71955L6.9394 7.99988L5.21973 6.28021C4.92684 5.98731 4.92684 5.51244 5.21973 5.21955Z" fill="black"/>
</g>
</svg>
