<svg width="24" height="24" viewBox="0 0 24 24" fill="none" xmlns="http://www.w3.org/2000/svg">
<g id="Size=24">
<path id="Union" fill-rule="evenodd" clip-rule="evenodd" d="M13.4412 1.00608C12.5573 0.462165 11.4425 0.462164 10.5587 1.00608L2.80867 5.77531C1.99537 6.27581 1.49994 7.16241 1.49994 8.11737V15.8822C1.49994 16.8372 1.99537 17.7238 2.80867 18.2243L10.5587 22.9935C11.4425 23.5374 12.5573 23.5374 13.4412 22.9935L21.1912 18.2243C22.0045 17.7238 22.4999 16.8372 22.4999 15.8822V8.11737C22.4999 7.16241 22.0045 6.27581 21.1912 5.77531L13.4412 1.00608ZM14.7196 8.21943C15.0125 7.92653 15.4874 7.92653 15.7803 8.21943C16.0732 8.51232 16.0732 8.98719 15.7803 9.28009L13.0606 11.9998L15.7803 14.7194C16.0732 15.0123 16.0732 15.4872 15.7803 15.7801C15.4874 16.073 15.0125 16.073 14.7196 15.7801L11.9999 13.0604L9.28027 15.7801C8.98738 16.073 8.5125 16.073 8.21961 15.7801C7.92672 15.4872 7.92672 15.0123 8.21961 14.7194L10.9393 11.9998L8.21961 9.28009C7.92672 8.98719 7.92672 8.51232 8.21961 8.21943C8.5125 7.92653 8.98738 7.92653 9.28027 8.21943L11.9999 10.9391L14.7196 8.21943Z" fill="black"/>
</g>
</svg>
