<svg width="16" height="16" viewBox="0 0 16 16" fill="none" xmlns="http://www.w3.org/2000/svg">
<g id="Size=16">
<path id="Vector (Stroke)" fill-rule="evenodd" clip-rule="evenodd" d="M3.13889 2.5C2.78604 2.5 2.5 2.78604 2.5 3.13889V12.8611C2.5 13.214 2.78604 13.5 3.13889 13.5H12.8611C13.214 13.5 13.5 13.214 13.5 12.8611V3.13889C13.5 2.78604 13.214 2.5 12.8611 2.5H3.13889ZM1 3.13889C1 1.95761 1.95761 1 3.13889 1H12.8611C14.0424 1 15 1.95761 15 3.13889V12.8611C15 14.0424 14.0424 15 12.8611 15H3.13889C1.95761 15 1 14.0424 1 12.8611V3.13889ZM4.71967 4.71967C5.01256 4.42678 5.48744 4.42678 5.78033 4.71967L8 6.93934L10.2197 4.71967C10.5126 4.42678 10.9874 4.42678 11.2803 4.71967C11.5732 5.01256 11.5732 5.48744 11.2803 5.78033L9.06066 8L11.2803 10.2197C11.5732 10.5126 11.5732 10.9874 11.2803 11.2803C10.9874 11.5732 10.5126 11.5732 10.2197 11.2803L8 9.06066L5.78033 11.2803C5.48744 11.5732 5.01256 11.5732 4.71967 11.2803C4.42678 10.9874 4.42678 10.5126 4.71967 10.2197L6.93934 8L4.71967 5.78033C4.42678 5.48744 4.42678 5.01256 4.71967 4.71967Z" fill="black"/>
</g>
</svg>
