<svg width="24" height="24" viewBox="0 0 24 24" fill="none" xmlns="http://www.w3.org/2000/svg">
<g id="size=24">
<path id="Subtract (Stroke)" fill-rule="evenodd" clip-rule="evenodd" d="M2 4.80556C2 3.25609 3.25609 2 4.80556 2H19.1944C20.7439 2 22 3.25609 22 4.80556V19.1944C22 20.7439 20.7439 22 19.1944 22H4.80556C3.25609 22 2 20.7439 2 19.1944V4.80556ZM8.28033 7.21967C7.98744 6.92678 7.51256 6.92678 7.21967 7.21967C6.92678 7.51256 6.92678 7.98744 7.21967 8.28033L10.9393 12L7.21967 15.7197C6.92678 16.0126 6.92678 16.4874 7.21967 16.7803C7.51256 17.0732 7.98744 17.0732 8.28033 16.7803L12 13.0607L15.7197 16.7803C16.0126 17.0732 16.4874 17.0732 16.7803 16.7803C17.0732 16.4874 17.0732 16.0126 16.7803 15.7197L13.0607 12L16.7803 8.28033C17.0732 7.98744 17.0732 7.51256 16.7803 7.21967C16.4874 6.92678 16.0126 6.92678 15.7197 7.21967L12 10.9393L8.28033 7.21967Z" fill="black"/>
</g>
</svg>
