<svg width="24" height="24" viewBox="0 0 24 24" fill="none" xmlns="http://www.w3.org/2000/svg">
<g id="size=24">
<g id="Union">
<path fill-rule="evenodd" clip-rule="evenodd" d="M2.28033 1.21967C1.98744 0.926777 1.51256 0.926777 1.21967 1.21967C0.926777 1.51256 0.926777 1.98744 1.21967 2.28033L6.87869 7.93935L2.17448 13.5691C1.99733 13.7812 1.95108 14.0734 2.05412 14.3298C2.15716 14.5861 2.3928 14.765 2.66741 14.7955L11.1478 15.7352L10.2298 22.1437C10.1823 22.4756 10.3608 22.7987 10.667 22.9351C10.9732 23.0716 11.3328 22.9882 11.5478 22.7309L16.1557 17.2164L21.7197 22.7803C22.0126 23.0732 22.4874 23.0732 22.7803 22.7803C23.0732 22.4874 23.0732 22.0126 22.7803 21.7197L16.7132 15.6525C16.6787 15.6062 16.6383 15.5632 16.592 15.5245C16.5813 15.5156 16.5704 15.507 16.5594 15.4987L2.28033 1.21967ZM15.0908 16.1515L7.94359 9.00426L4.22164 13.4585L12.0826 14.3296C12.2844 14.352 12.4686 14.4552 12.5929 14.6157C12.7173 14.7763 12.7712 14.9804 12.7424 15.1814L12.0889 19.744L15.0908 16.1515Z" fill="black"/>
<path d="M13.7702 1.85639C13.8177 1.52453 13.6393 1.20142 13.333 1.06497C13.0268 0.928524 12.6672 1.01188 12.4523 1.26914L9.88282 4.34414C9.61722 4.66199 9.65958 5.13497 9.97744 5.40057C10.2953 5.66616 10.7683 5.6238 11.0339 5.30595L11.9112 4.25604L11.5788 6.57651C11.52 6.98654 11.8048 7.36654 12.2148 7.42528C12.6249 7.48401 13.0049 7.19923 13.0636 6.7892L13.7702 1.85639Z" fill="black"/>
<path d="M14.9732 8.49992C14.5615 8.4543 14.1908 8.75106 14.1452 9.16275C14.0996 9.57444 14.3963 9.94517 14.808 9.99079L19.7784 10.5416L18.105 12.5441C17.8394 12.862 17.8818 13.335 18.1997 13.6006C18.5175 13.8662 18.9905 13.8238 19.2561 13.5059L21.8255 10.4309C22.0027 10.2189 22.0489 9.92669 21.9459 9.67033C21.8429 9.41398 21.6072 9.23503 21.3326 9.2046L14.9732 8.49992Z" fill="black"/>
</g>
</g>
</svg>
