<svg width="16" height="16" viewBox="0 0 16 16" fill="none" xmlns="http://www.w3.org/2000/svg">
<g id="size=16">
<g id="Union">
<path d="M7.25 4C7.66421 4 8 4.33579 8 4.75V6.5H9.75C10.1642 6.5 10.5 6.83579 10.5 7.25C10.5 7.66421 10.1642 8 9.75 8H8V9.75C8 10.1642 7.66421 10.5 7.25 10.5C6.83579 10.5 6.5 10.1642 6.5 9.75V8H4.75C4.33579 8 4 7.66421 4 7.25C4 6.83579 4.33579 6.5 4.75 6.5H6.5V4.75C6.5 4.33579 6.83579 4 7.25 4Z" fill="#000001"/>
<path fill-rule="evenodd" clip-rule="evenodd" d="M7.25 1C3.79822 1 1 3.79822 1 7.25C1 10.7018 3.79822 13.5 7.25 13.5C8.70561 13.5 10.045 13.0024 11.1073 12.168L13.7197 14.7803C14.0126 15.0732 14.4874 15.0732 14.7803 14.7803C15.0732 14.4874 15.0732 14.0126 14.7803 13.7197L12.168 11.1073C13.0024 10.045 13.5 8.70561 13.5 7.25C13.5 3.79822 10.7018 1 7.25 1ZM2.5 7.25C2.5 4.62665 4.62665 2.5 7.25 2.5C9.87335 2.5 12 4.62665 12 7.25C12 9.87335 9.87335 12 7.25 12C4.62665 12 2.5 9.87335 2.5 7.25Z" fill="#000001"/>
</g>
</g>
</svg>
