<svg width="16" height="16" viewBox="0 0 16 16" fill="none" xmlns="http://www.w3.org/2000/svg">
<g id="Size=16">
<g id="Union">
<path d="M4.75 6.5C4.33579 6.5 4 6.83579 4 7.25C4 7.66421 4.33579 8 4.75 8H9.75C10.1642 8 10.5 7.66421 10.5 7.25C10.5 6.83579 10.1642 6.5 9.75 6.5H4.75Z" fill="black"/>
<path fill-rule="evenodd" clip-rule="evenodd" d="M1 7.25C1 3.79822 3.79822 1 7.25 1C10.7018 1 13.5 3.79822 13.5 7.25C13.5 8.70561 13.0024 10.045 12.168 11.1073L14.7803 13.7197C15.0732 14.0126 15.0732 14.4874 14.7803 14.7803C14.4874 15.0732 14.0126 15.0732 13.7197 14.7803L11.1073 12.168C10.045 13.0024 8.70561 13.5 7.25 13.5C3.79822 13.5 1 10.7018 1 7.25ZM7.25 2.5C4.62665 2.5 2.5 4.62665 2.5 7.25C2.5 9.87335 4.62665 12 7.25 12C9.87335 12 12 9.87335 12 7.25C12 4.62665 9.87335 2.5 7.25 2.5Z" fill="black"/>
</g>
</g>
</svg>
