<svg viewBox="0 0 16 16" width="16" height="16" fill="black" xmlns="http://www.w3.org/2000/svg">
 <g transform="translate(0.25, 0.9999986886978149)">
  <path d="M5.76565 0.000164638C6.08597 0.00685097 6.36667 0.216273 6.46432 0.52142L9.76997 10.8516L11.2396 6.50955C11.3427 6.20498 11.6284 6 11.95 6L14.75 6C15.1642 6 15.5 6.33579 15.5 6.75C15.5 7.16422 15.1642 7.5 14.75 7.5L12.4879 7.5L10.4604 13.4904C10.3566 13.7972 10.0676 14.0027 9.74375 14C9.41992 13.9973 9.13438 13.787 9.03568 13.4786L5.70178 3.06014L4.25416 7.00819C4.14584 7.30361 3.86465 7.5 3.55 7.5L0.75 7.5C0.335786 7.5 0 7.16422 0 6.75C0 6.33579 0.335786 6 0.75 6L3.02617 6L5.04584 0.49181C5.15614 0.191005 5.44533 -0.00652169 5.76565 0.000164638Z" fill-rule="EVENODD"></path>
 </g>
</svg>