<svg viewBox="0 0 24 24" width="24" height="24" fill="black" xmlns="http://www.w3.org/2000/svg">
 <g transform="translate(1, 1)">
  <path d="M5.64038 0.805456C6.15611 0.289731 6.85558 0 7.58493 0L14.4151 0C15.1444 0 15.8439 0.289731 16.3596 0.805456L21.1945 5.64038C21.7103 6.15611 22 6.85558 22 7.58493L22 14.4151C22 15.1444 21.7103 15.8439 21.1945 16.3596L16.3596 21.1945C15.8439 21.7103 15.1444 22 14.4151 22L7.58493 22C6.85558 22 6.15611 21.7103 5.64038 21.1945L0.805456 16.3596C0.289731 15.8439 0 15.1444 0 14.4151L0 7.58493C0 6.85558 0.289731 6.15611 0.805456 5.64038L5.64038 0.805456ZM7.58493 1.5C7.25341 1.5 6.93546 1.6317 6.70104 1.86612L1.86612 6.70104C1.6317 6.93546 1.5 7.25341 1.5 7.58493L1.5 14.4151C1.5 14.7466 1.6317 15.0645 1.86612 15.299L6.70104 20.1339C6.93546 20.3683 7.25341 20.5 7.58493 20.5L14.4151 20.5C14.7466 20.5 15.0645 20.3683 15.299 20.1339L20.1339 15.299C20.3683 15.0645 20.5 14.7466 20.5 14.4151L20.5 7.58493C20.5 7.25341 20.3683 6.93546 20.1339 6.70104L15.299 1.86612C15.0645 1.6317 14.7466 1.5 14.4151 1.5L7.58493 1.5Z" fill-rule="EVENODD"></path>
  <path d="M10 15C10 14.4477 10.4477 14 11 14L11.01 14C11.5623 14 12.01 14.4477 12.01 15C12.01 15.5523 11.5623 16 11.01 16L11 16C10.4477 16 10 15.5523 10 15Z" fill-rule="EVENODD"></path>
  <path d="M11 6C11.4142 6 11.75 6.33579 11.75 6.75L11.75 11.25C11.75 11.6642 11.4142 12 11 12C10.5858 12 10.25 11.6642 10.25 11.25L10.25 6.75C10.25 6.33579 10.5858 6 11 6Z" fill-rule="EVENODD"></path>
 </g>
</svg>