<svg viewBox="0 0 16 16" width="16" height="16" fill="black" xmlns="http://www.w3.org/2000/svg">
 <g transform="translate(0.25, 1.25)">
  <path d="M7 10.0833C7 9.66913 7.33579 9.33334 7.75 9.33334L7.75667 9.33334C8.17088 9.33334 8.50667 9.66913 8.50667 10.0833C8.50667 10.4976 8.17088 10.8333 7.75667 10.8333L7.75 10.8333C7.33579 10.8333 7 10.4976 7 10.0833Z" fill-rule="NONZERO"></path>
  <path d="M8.5 4.75C8.5 4.33579 8.16421 4 7.75 4C7.33579 4 7 4.33579 7 4.75L7 7.75C7 8.16421 7.33579 8.5 7.75 8.5C8.16421 8.5 8.5 8.16421 8.5 7.75L8.5 4.75Z" fill-rule="NONZERO"></path>
  <path d="M6.72764 0.265308C7.04021 0.09119 7.3923 0 7.75 0C8.1077 0 8.45979 0.09119 8.77236 0.265308C9.08498 0.439452 9.34792 0.690913 9.53507 0.996183L9.53726 0.999752L15.2183 10.3833C15.4017 10.6975 15.499 11.0545 15.5 11.4185C15.501 11.7825 15.4057 12.1399 15.224 12.4552C15.0424 12.7705 14.7811 13.0322 14.4669 13.2151C14.1528 13.398 13.7963 13.496 13.4329 13.5L13.4248 13.5L2.06708 13.5C1.70369 13.496 1.34723 13.398 1.03307 13.2151C0.718867 13.0322 0.457573 12.7705 0.275965 12.4552C0.0943237 12.1399 -0.00102189 11.7825 8.25986e-06 11.4185C0.00103835 11.0545 0.0984056 10.6976 0.281817 10.3833L0.287906 10.3729L5.96275 0.999758L5.96493 0.996183C6.15208 0.690913 6.41502 0.439452 6.72764 0.265308ZM7.2446 1.77877L7.24373 1.78019L1.57492 11.1435C1.52589 11.2292 1.50028 11.3253 1.5 11.4227C1.49972 11.5217 1.52562 11.6195 1.5757 11.7064C1.62582 11.7934 1.69867 11.8669 1.78777 11.9188C1.87598 11.9701 1.97673 11.9983 2.0801 12L13.4199 12C13.5233 11.9983 13.624 11.9701 13.7122 11.9188C13.8013 11.8669 13.8742 11.7934 13.9243 11.7064C13.9744 11.6195 14.0003 11.5217 14 11.4227C13.9997 11.3253 13.9741 11.2292 13.9251 11.1435L8.25627 1.78019L8.2554 1.77877C8.20372 1.69503 8.13064 1.62486 8.04241 1.57572C7.95363 1.52626 7.85289 1.5 7.75 1.5C7.64711 1.5 7.54637 1.52626 7.45759 1.57572C7.36936 1.62486 7.29628 1.69503 7.2446 1.77877Z" fill-rule="EVENODD"></path>
 </g>
</svg>