<svg viewBox="0 0 16 16" width="16" height="16" fill="black" xmlns="http://www.w3.org/2000/svg">
 <g transform="translate(-0.000000007323706086026505, 1)">
  <path d="M6.95256 0.273305C7.27254 0.0940425 7.63327 0 8 0C8.36673 0 8.72746 0.0940425 9.04744 0.273305C9.36743 0.45258 9.63603 0.711147 9.82699 1.02441L9.82916 1.02797L15.7128 10.802C15.8999 11.1244 15.9989 11.4903 16 11.8631C16.001 12.2359 15.904 12.6023 15.7187 12.9257C15.5334 13.2492 15.2665 13.5182 14.945 13.7065C14.6234 13.8948 14.2582 13.9959 13.8856 14L13.8774 14L2.11437 14C1.74181 13.9959 1.3766 13.8948 1.05505 13.7065C0.733464 13.5182 0.466585 13.2492 0.28132 12.9257C0.0960397 12.6023 -0.00104057 12.2359 8.41158e-06 11.8631C0.00105745 11.4903 0.100198 11.1245 0.287291 10.8021L0.293337 10.7916L6.17085 1.02798L6.17301 1.02441C6.36397 0.711147 6.63257 0.45258 6.95256 0.273305ZM7.45469 1.8037L7.45381 1.80515L1.58225 11.5591C1.52856 11.6533 1.50031 11.7595 1.5 11.8673C1.49969 11.9768 1.52818 12.0846 1.58291 12.1802C1.63765 12.2757 1.71684 12.3558 1.81297 12.4121C1.90818 12.4678 2.01654 12.4982 2.12745 12.5L13.8725 12.5C13.9835 12.4982 14.0918 12.4678 14.187 12.4121C14.2832 12.3558 14.3624 12.2757 14.4171 12.1802C14.4718 12.0846 14.5003 11.9768 14.5 11.8673C14.4997 11.7595 14.4714 11.6533 14.4177 11.5591L8.54619 1.80515L8.54531 1.8037C8.4889 1.71174 8.40948 1.63526 8.31429 1.58193C8.21857 1.5283 8.11031 1.5 8 1.5C7.88969 1.5 7.78143 1.5283 7.68571 1.58193C7.59052 1.63526 7.51109 1.71174 7.45469 1.8037Z" fill-rule="EVENODD"></path>
  <path d="M7 10C7 9.44771 7.44772 9 8 9L8.00667 9C8.55895 9 9.00667 9.44771 9.00667 10C9.00667 10.5523 8.55895 11 8.00667 11L8 11C7.44772 11 7 10.5523 7 10Z" fill-rule="EVENODD"></path>
  <path d="M8 4C8.41421 4 8.75 4.33579 8.75 4.75L8.75 7.25C8.75 7.66421 8.41421 8 8 8C7.58579 8 7.25 7.66421 7.25 7.25L7.25 4.75C7.25 4.33579 7.58579 4 8 4Z" fill-rule="EVENODD"></path>
 </g>
</svg>