<svg viewBox="0 0 16 16" width="16" height="16" fill="currentColor" xmlns="http://www.w3.org/2000/svg">
 <g transform="translate(1, 3)">
  <path d="M0.75 0C0.335786 0 0 0.335786 0 0.75C0 1.16421 0.335786 1.5 0.75 1.5L13.25 1.5C13.6642 1.5 14 1.16421 14 0.75C14 0.335786 13.6642 0 13.25 0L0.75 0Z" fill-rule="NONZERO"></path>
  <path d="M0.75 3C0.335786 3 0 3.33579 0 3.75C0 4.16421 0.335786 4.5 0.75 4.5L10.25 4.5C10.6642 4.5 11 4.16421 11 3.75C11 3.33579 10.6642 3 10.25 3L0.75 3Z" fill-rule="NONZERO"></path>
  <path d="M0 6.75C0 6.33579 0.335786 6 0.75 6L13.25 6C13.6642 6 14 6.33579 14 6.75C14 7.16421 13.6642 7.5 13.25 7.5L0.75 7.5C0.335786 7.5 0 7.16421 0 6.75Z" fill-rule="NONZERO"></path>
  <path d="M0.75 9C0.335786 9 0 9.33579 0 9.75C0 10.1642 0.335786 10.5 0.75 10.5L10.25 10.5C10.6642 10.5 11 10.1642 11 9.75C11 9.33579 10.6642 9 10.25 9L0.75 9Z" fill-rule="NONZERO"></path>
 </g>
</svg>