<svg viewBox="0 0 16 16" width="16" height="16" fill="currentColor" xmlns="http://www.w3.org/2000/svg">
 <g transform="translate(1, 3)">
  <path d="M3 3.75C3 3.33579 3.33579 3 3.75 3L13.25 3C13.6642 3 14 3.33579 14 3.75C14 4.16421 13.6642 4.5 13.25 4.5L3.75 4.5C3.33579 4.5 3 4.16421 3 3.75Z" fill-rule="EVENODD"></path>
  <path d="M0 0.75C0 0.335786 0.335786 0 0.75 0L13.25 0C13.6642 0 14 0.335786 14 0.75C14 1.16421 13.6642 1.5 13.25 1.5L0.75 1.5C0.335786 1.5 0 1.16421 0 0.75Z" fill-rule="EVENODD"></path>
  <path d="M0 6.75C0 6.33579 0.335786 6 0.75 6L13.25 6C13.6642 6 14 6.33579 14 6.75C14 7.16421 13.6642 7.5 13.25 7.5L0.75 7.5C0.335786 7.5 0 7.16421 0 6.75Z" fill-rule="EVENODD"></path>
  <path d="M3 9.75C3 9.33579 3.33579 9 3.75 9L13.25 9C13.6642 9 14 9.33579 14 9.75C14 10.1642 13.6642 10.5 13.25 10.5L3.75 10.5C3.33579 10.5 3 10.1642 3 9.75Z" fill-rule="EVENODD"></path>
 </g>
</svg>