<svg viewBox="0 0 24 24" width="24" height="24" fill="currentColor" xmlns="http://www.w3.org/2000/svg">
 <g transform="translate(2, 5)">
  <path d="M0 4.75C0 4.33579 0.335786 4 0.75 4L19.25 4C19.6642 4 20 4.33579 20 4.75C20 5.16421 19.6642 5.5 19.25 5.5L0.75 5.5C0.335786 5.5 0 5.16421 0 4.75Z" fill-rule="EVENODD"></path>
  <path d="M0 0.75C0 0.335786 0.335786 0 0.75 0L19.25 0C19.6642 0 20 0.335786 20 0.75C20 1.16421 19.6642 1.5 19.25 1.5L0.75 1.5C0.335786 1.5 0 1.16421 0 0.75Z" fill-rule="EVENODD"></path>
  <path d="M0 8.75C0 8.33579 0.335786 8 0.75 8L19.25 8C19.6642 8 20 8.33579 20 8.75C20 9.16421 19.6642 9.5 19.25 9.5L0.75 9.5C0.335786 9.5 0 9.16421 0 8.75Z" fill-rule="EVENODD"></path>
  <path d="M0 12.75C0 12.3358 0.335786 12 0.75 12L19.25 12C19.6642 12 20 12.3358 20 12.75C20 13.1642 19.6642 13.5 19.25 13.5L0.75 13.5C0.335786 13.5 0 13.1642 0 12.75Z" fill-rule="EVENODD"></path>
 </g>
</svg>