<svg viewBox="0 0 16 16" width="16" height="16" fill="black" xmlns="http://www.w3.org/2000/svg">
 <g transform="translate(1, 3)">
  <path d="M2 3.75C2 3.33579 2.33579 3 2.75 3L11.25 3C11.6642 3 12 3.33579 12 3.75C12 4.16421 11.6642 4.5 11.25 4.5L2.75 4.5C2.33579 4.5 2 4.16421 2 3.75Z" fill-rule="EVENODD"></path>
  <path d="M0 0.75C0 0.335786 0.335786 0 0.75 0L13.25 0C13.6642 0 14 0.335786 14 0.75C14 1.16421 13.6642 1.5 13.25 1.5L0.75 1.5C0.335786 1.5 0 1.16421 0 0.75Z" fill-rule="EVENODD"></path>
  <path d="M0 6.75C0 6.33579 0.335786 6 0.75 6L13.25 6C13.6642 6 14 6.33579 14 6.75C14 7.16421 13.6642 7.5 13.25 7.5L0.75 7.5C0.335786 7.5 0 7.16421 0 6.75Z" fill-rule="EVENODD"></path>
  <path d="M2 9.75C2 9.33579 2.33579 9 2.75 9L11.25 9C11.6642 9 12 9.33579 12 9.75C12 10.1642 11.6642 10.5 11.25 10.5L2.75 10.5C2.33579 10.5 2 10.1642 2 9.75Z" fill-rule="EVENODD"></path>
 </g>
</svg>