<svg viewBox="0 0 24 24" width="24" height="24" fill="currentColor" xmlns="http://www.w3.org/2000/svg">
 <g transform="translate(2, 5)">
  <path d="M0.75 0C0.335786 0 0 0.335786 0 0.75C0 1.16421 0.335786 1.5 0.75 1.5L19.25 1.5C19.6642 1.5 20 1.16421 20 0.75C20 0.335786 19.6642 0 19.25 0L0.75 0Z" fill-rule="NONZERO"></path>
  <path d="M0.75 4C0.335786 4 0 4.33579 0 4.75C0 5.16421 0.335786 5.5 0.75 5.5L15.25 5.5C15.6642 5.5 16 5.16421 16 4.75C16 4.33579 15.6642 4 15.25 4L0.75 4Z" fill-rule="NONZERO"></path>
  <path d="M0 8.75C0 8.33579 0.335786 8 0.75 8L19.25 8C19.6642 8 20 8.33579 20 8.75C20 9.16421 19.6642 9.5 19.25 9.5L0.75 9.5C0.335786 9.5 0 9.16421 0 8.75Z" fill-rule="NONZERO"></path>
  <path d="M0.75 12C0.335786 12 0 12.3358 0 12.75C0 13.1642 0.335786 13.5 0.75 13.5L15.25 13.5C15.6642 13.5 16 13.1642 16 12.75C16 12.3358 15.6642 12 15.25 12L0.75 12Z" fill-rule="NONZERO"></path>
 </g>
</svg>