<svg viewBox="0 0 24 24" width="24" height="24" fill="currentColor" xmlns="http://www.w3.org/2000/svg">
 <g transform="translate(2, 5)">
  <path d="M0.75 0C0.335786 0 0 0.335786 0 0.75C0 1.16421 0.335786 1.5 0.75 1.5L19.25 1.5C19.6642 1.5 20 1.16421 20 0.75C20 0.335786 19.6642 0 19.25 0L0.75 0Z" fill-rule="NONZERO"></path>
  <path d="M4.75 4C4.33579 4 4 4.33579 4 4.75C4 5.16421 4.33579 5.5 4.75 5.5L19.25 5.5C19.6642 5.5 20 5.16421 20 4.75C20 4.33579 19.6642 4 19.25 4L4.75 4Z" fill-rule="NONZERO"></path>
  <path d="M0 8.75C0 8.33579 0.335786 8 0.75 8L19.25 8C19.6642 8 20 8.33579 20 8.75C20 9.16421 19.6642 9.5 19.25 9.5L0.75 9.5C0.335786 9.5 0 9.16421 0 8.75Z" fill-rule="NONZERO"></path>
  <path d="M4.75 12C4.33579 12 4 12.3358 4 12.75C4 13.1642 4.33579 13.5 4.75 13.5L19.25 13.5C19.6642 13.5 20 13.1642 20 12.75C20 12.3358 19.6642 12 19.25 12L4.75 12Z" fill-rule="NONZERO"></path>
 </g>
</svg>