<svg viewBox="0 0 24 24" width="24" height="24" fill="currentColor" xmlns="http://www.w3.org/2000/svg">
 <g transform="translate(1, 2)">
  <path d="M8.75 9C8.33579 9 8 9.33579 8 9.75C8 10.1642 8.33579 10.5 8.75 10.5L13.25 10.5C13.6642 10.5 14 10.1642 14 9.75C14 9.33579 13.6642 9 13.25 9L8.75 9Z" fill-rule="NONZERO"></path>
  <path d="M0 2.25C0 1.00736 1.00736 0 2.25 0L19.75 0C20.9926 0 22 1.00736 22 2.25L22 3.75C22 4.5301 21.603 5.21748 21 5.62111L21 17.25C21 18.7688 19.7688 20 18.25 20L3.75 20C2.23122 20 1 18.7688 1 17.25L1 5.62111C0.397007 5.21748 0 4.5301 0 3.75L0 2.25ZM2.5 6L19.5 6L19.5 17.25C19.5 17.9404 18.9404 18.5 18.25 18.5L3.75 18.5C3.05964 18.5 2.5 17.9404 2.5 17.25L2.5 6ZM2.25 1.5C1.83579 1.5 1.5 1.83579 1.5 2.25L1.5 3.75C1.5 4.16421 1.83579 4.5 2.25 4.5L19.75 4.5C20.1642 4.5 20.5 4.16421 20.5 3.75L20.5 2.25C20.5 1.83579 20.1642 1.5 19.75 1.5L2.25 1.5Z" fill-rule="EVENODD"></path>
 </g>
</svg>