<svg viewBox="0 0 16 16" width="16" height="16" fill="currentColor" xmlns="http://www.w3.org/2000/svg">
 <g transform="translate(0.00000000000022737367544323206, 1)">
  <path d="M1.75 3.5C2.16421 3.5 2.5 3.83579 2.5 4.25L2.5 11.75C2.5 12.1642 2.83579 12.5 3.25 12.5L12.75 12.5C13.1642 12.5 13.5 12.1642 13.5 11.75L13.5 4.25C13.5 3.83579 13.8358 3.5 14.25 3.5C14.6642 3.5 15 3.83579 15 4.25L15 11.75C15 12.9926 13.9926 14 12.75 14L3.25 14C2.00736 14 1 12.9926 1 11.75L1 4.25C1 3.83579 1.33579 3.5 1.75 3.5Z" fill-rule="EVENODD"></path>
  <path d="M0 1.75C0 0.783502 0.783502 0 1.75 0L14.25 0C15.2165 0 16 0.783502 16 1.75L16 3.25C16 4.2165 15.2165 5 14.25 5L1.75 5C0.783501 5 0 4.2165 0 3.25L0 1.75ZM1.75 1.5C1.61193 1.5 1.5 1.61193 1.5 1.75L1.5 3.25C1.5 3.38807 1.61193 3.5 1.75 3.5L14.25 3.5C14.3881 3.5 14.5 3.38807 14.5 3.25L14.5 1.75C14.5 1.61193 14.3881 1.5 14.25 1.5L1.75 1.5Z" fill-rule="EVENODD"></path>
  <path d="M6 7.75C6 7.33579 6.33579 7 6.75 7L9.25 7C9.66421 7 10 7.33579 10 7.75C10 8.16421 9.66421 8.5 9.25 8.5L6.75 8.5C6.33579 8.5 6 8.16421 6 7.75Z" fill-rule="EVENODD"></path>
 </g>
</svg>