<svg viewBox="0 0 24 24" width="24" height="24" fill="currentColor" xmlns="http://www.w3.org/2000/svg">
 <g transform="translate(5, 5)">
  <path d="M0.21967 0.21967C-0.0732231 0.512563 -0.0732231 0.987437 0.21967 1.28033L12.7197 13.7803C13.0126 14.0732 13.4874 14.0732 13.7803 13.7803C14.0732 13.4874 14.0732 13.0126 13.7803 12.7197L1.28033 0.21967C0.987437 -0.0732233 0.512563 -0.0732233 0.21967 0.21967Z" fill-rule="EVENODD"></path>
  <path d="M0.75 11C1.16421 11 1.5 10.6642 1.5 10.25L1.5 1.5L10.25 1.5C10.6642 1.5 11 1.16421 11 0.75C11 0.335787 10.6642 0 10.25 0L0.75 0C0.335786 0 0 0.335787 0 0.75L0 10.25C0 10.6642 0.335786 11 0.75 11Z" fill-rule="EVENODD"></path>
 </g>
</svg>