<svg viewBox="0 0 16 16" width="16" height="16" fill="currentColor" xmlns="http://www.w3.org/2000/svg">
 <g transform="translate(3, 3)">
  <path d="M9.94309 0.462912C9.90649 0.374453 9.85224 0.291577 9.78033 0.21967C9.63388 0.0732233 9.44194 0 9.25 0L3.75 0C3.33579 0 3 0.335786 3 0.75C3 1.16421 3.33579 1.5 3.75 1.5L7.43934 1.5L0.21967 8.71967C-0.0732233 9.01256 -0.0732233 9.48744 0.21967 9.78033C0.512563 10.0732 0.987437 10.0732 1.28033 9.78033L8.5 2.56066L8.5 6.25C8.5 6.66421 8.83579 7 9.25 7C9.66421 7 10 6.66421 10 6.25L10 0.75C10 0.648308 9.97976 0.551342 9.94309 0.462912Z" fill-rule="NONZERO"></path>
 </g>
</svg>