<svg viewBox="0 0 24 24" width="24" height="24" fill="currentColor" xmlns="http://www.w3.org/2000/svg">
 <g transform="translate(3, 4)">
  <path d="M8.77127 1.28924C9.06908 1.00135 9.07713 0.526549 8.78924 0.228734C8.50135 -0.0690806 8.02655 -0.0771282 7.72873 0.210759L0.228733 7.46076C0.0825483 7.60207 0 7.79668 0 8C0 8.20332 0.0825483 8.39793 0.228733 8.53924L7.72873 15.7892C8.02655 16.0771 8.50135 16.0691 8.78924 15.7713C9.07713 15.4735 9.06908 14.9986 8.77127 14.7108L2.60496 8.75L17.25 8.75C17.6642 8.75 18 8.41421 18 8C18 7.58579 17.6642 7.25 17.25 7.25L2.60497 7.25L8.77127 1.28924Z" fill-rule="NONZERO"></path>
 </g>
</svg>