<svg viewBox="0 0 24 24" width="24" height="24" fill="black" xmlns="http://www.w3.org/2000/svg">
 <g transform="translate(3.9999992847442627, 3)">
  <path d="M8 0C8.41421 0 8.75 0.335786 8.75 0.75L8.75 17.25C8.75 17.6642 8.41421 18 8 18C7.58579 18 7.25 17.6642 7.25 17.25L7.25 0.75C7.25 0.335786 7.58579 0 8 0Z" fill-rule="EVENODD"></path>
  <path d="M0.228734 9.21076C0.526549 8.92287 1.00135 8.93092 1.28924 9.22873L8 16.1709L14.7108 9.22873C14.9986 8.93092 15.4735 8.92287 15.7713 9.21076C16.0691 9.49865 16.0771 9.97345 15.7892 10.2713L8.53924 17.7713C8.39793 17.9175 8.20332 18 8 18C7.79668 18 7.60207 17.9175 7.46076 17.7713L0.210759 10.2713C-0.0771282 9.97345 -0.0690806 9.49865 0.228734 9.21076Z" fill-rule="EVENODD"></path>
 </g>
</svg>