<svg viewBox="0 0 16 16" width="16" height="16" fill="black" xmlns="http://www.w3.org/2000/svg">
 <g transform="translate(0, 0)">
  <path d="M8 1.5C4.41015 1.5 1.5 4.41015 1.5 8C1.5 11.5899 4.41015 14.5 8 14.5C11.5899 14.5 14.5 11.5899 14.5 8C14.5 4.41015 11.5899 1.5 8 1.5ZM0 8C0 3.58172 3.58172 0 8 0C12.4183 0 16 3.58172 16 8C16 12.4183 12.4183 16 8 16C3.58172 16 0 12.4183 0 8Z" fill-rule="EVENODD"></path>
  <path d="M4.69504 8.2455C4.97368 7.939 5.44801 7.91641 5.7545 8.19504L8 10.2364L10.2455 8.19504C10.552 7.91641 11.0263 7.939 11.305 8.2455C11.5836 8.55199 11.561 9.02633 11.2545 9.30496L8.50451 11.805C8.21844 12.065 7.78156 12.065 7.4955 11.805L4.7455 9.30496C4.439 9.02633 4.41641 8.55199 4.69504 8.2455Z" fill-rule="EVENODD"></path>
  <path d="M8 4C8.41421 4 8.75 4.33579 8.75 4.75L8.75 11.25C8.75 11.6642 8.41421 12 8 12C7.58579 12 7.25 11.6642 7.25 11.25L7.25 4.75C7.25 4.33579 7.58579 4 8 4Z" fill-rule="EVENODD"></path>
 </g>
</svg>