<svg viewBox="0 0 24 24" width="24" height="24" fill="currentColor" xmlns="http://www.w3.org/2000/svg">
 <g transform="translate(1, 1)">
  <path d="M11 1.5C5.75329 1.5 1.5 5.75329 1.5 11C1.5 16.2467 5.75329 20.5 11 20.5C16.2467 20.5 20.5 16.2467 20.5 11C20.5 5.75329 16.2467 1.5 11 1.5ZM0 11C0 4.92487 4.92487 0 11 0C17.0751 0 22 4.92487 22 11C22 17.0751 17.0751 22 11 22C4.92487 22 0 17.0751 0 11Z" fill-rule="EVENODD"></path>
  <path d="M11 5C11.4142 5 11.75 5.33579 11.75 5.75L11.75 16.25C11.75 16.6642 11.4142 17 11 17C10.5858 17 10.25 16.6642 10.25 16.25L10.25 5.75C10.25 5.33579 10.5858 5 11 5Z" fill-rule="EVENODD"></path>
  <path d="M6.23503 10.7953C6.53617 11.0797 7.01085 11.0661 7.29526 10.765L11 6.8423L14.7047 10.765C14.9891 11.0661 15.4638 11.0797 15.765 10.7953C16.0661 10.5109 16.0797 10.0362 15.7953 9.73503L11.5453 5.23503C11.4036 5.08502 11.2063 5 11 5C10.7937 5 10.5964 5.08502 10.4547 5.23503L6.20474 9.73503C5.92033 10.0362 5.93389 10.5109 6.23503 10.7953Z" fill-rule="EVENODD"></path>
 </g>
</svg>