<svg viewBox="0 0 24 24" width="24" height="24" fill="black" xmlns="http://www.w3.org/2000/svg">
 <g transform="translate(3, 3.9999992847442627)">
  <path d="M0 8C0 7.58579 0.335786 7.25 0.75 7.25L17.25 7.25C17.6642 7.25 18 7.58579 18 8C18 8.41421 17.6642 8.75 17.25 8.75L0.75 8.75C0.335786 8.75 0 8.41421 0 8Z" fill-rule="EVENODD"></path>
  <path d="M8.78924 0.228734C9.07713 0.526549 9.06908 1.00135 8.77127 1.28924L1.8291 8L8.77127 14.7108C9.06908 14.9986 9.07713 15.4735 8.78924 15.7713C8.50135 16.0691 8.02655 16.0771 7.72873 15.7892L0.228733 8.53924C0.0825483 8.39793 0 8.20332 0 8C0 7.79668 0.0825483 7.60207 0.228733 7.46076L7.72873 0.210759C8.02655 -0.0771282 8.50135 -0.0690806 8.78924 0.228734Z" fill-rule="EVENODD"></path>
 </g>
</svg>