<svg viewBox="0 0 16 16" width="16" height="16" fill="black" xmlns="http://www.w3.org/2000/svg">
 <g transform="translate(3, 3)">
  <path d="M0.219669 0.21967C-0.0732231 0.512563 -0.0732231 0.987437 0.219669 1.28033L8.71967 9.78033C9.01256 10.0732 9.48744 10.0732 9.78033 9.78033C10.0732 9.48744 10.0732 9.01256 9.78033 8.71967L1.28033 0.21967C0.987436 -0.0732233 0.512563 -0.0732233 0.219669 0.21967Z" fill-rule="EVENODD"></path>
  <path d="M9.25 3C8.83579 3 8.5 3.33579 8.5 3.75L8.5 8.5L3.75 8.5C3.33579 8.5 3 8.83579 3 9.25C3 9.66421 3.33579 10 3.75 10L9.25 10C9.66421 10 10 9.66421 10 9.25L10 3.75C10 3.33579 9.66421 3 9.25 3Z" fill-rule="EVENODD"></path>
 </g>
</svg>