<svg viewBox="0 0 16 16" width="16" height="16" fill="currentColor" xmlns="http://www.w3.org/2000/svg">
 <g transform="translate(2, 2.75)">
  <path d="M5.76497 1.29526C6.06611 1.01085 6.07967 0.536173 5.79526 0.235034C5.51085 -0.0661045 5.03617 -0.0796667 4.73503 0.204742L0.236749 4.45312C0.0910241 4.58994 0 4.78434 0 5C0 5.21518 0.0906155 5.40919 0.235768 5.54596L4.73503 9.79526C5.03617 10.0797 5.51085 10.0661 5.79526 9.76497C6.07967 9.46383 6.06611 8.98915 5.76497 8.70474L2.63642 5.75L11.25 5.75C11.6642 5.75 12 5.41421 12 5C12 4.58579 11.6642 4.25 11.25 4.25L2.63642 4.25L5.76497 1.29526Z" fill-rule="NONZERO"></path>
 </g>
</svg>