<svg viewBox="0 0 24 24" width="24" height="24" fill="currentColor" xmlns="http://www.w3.org/2000/svg">
 <g transform="translate(1, 1)">
  <path d="M11 5C11.4142 5 11.75 5.33579 11.75 5.75L11.75 14.3636L14.7047 11.235C14.9892 10.9339 15.4638 10.9203 15.765 11.2047C16.0661 11.4892 16.0797 11.9638 15.7953 12.265L11.5453 16.765C11.5404 16.7702 11.5354 16.7753 11.5303 16.7803C11.5134 16.7973 11.4956 16.8135 11.4771 16.8287C11.3503 16.9333 11.1886 16.9971 11.0121 16.9999C11.0081 17 11.004 17 11 17C10.996 17 10.9919 17 10.9879 16.9999C10.7772 16.9966 10.5875 16.9063 10.4533 16.7634L6.20474 12.265C5.92033 11.9638 5.9339 11.4892 6.23503 11.2047C6.53617 10.9203 7.01085 10.9339 7.29526 11.235L10.25 14.3636L10.25 5.75C10.25 5.33579 10.5858 5 11 5Z" fill-rule="NONZERO"></path>
  <path d="M0 11C0 4.92487 4.92487 0 11 0C17.0751 0 22 4.92487 22 11C22 17.0751 17.0751 22 11 22C4.92487 22 0 17.0751 0 11ZM11 1.5C5.75329 1.5 1.5 5.75329 1.5 11C1.5 16.2467 5.75329 20.5 11 20.5C16.2467 20.5 20.5 16.2467 20.5 11C20.5 5.75329 16.2467 1.5 11 1.5Z" fill-rule="EVENODD"></path>
 </g>
</svg>