<svg viewBox="0 0 24 24" width="24" height="24" fill="black" xmlns="http://www.w3.org/2000/svg">
 <g transform="translate(6.25, 6.25)">
  <path d="M0.462912 0.0569091C0.374453 0.0935089 0.291577 0.147763 0.21967 0.21967C0.0732233 0.366117 0 0.558058 0 0.75L0 10.75C0 11.1642 0.335786 11.5 0.75 11.5C1.16421 11.5 1.5 11.1642 1.5 10.75L1.5 2.56066L10.2197 11.2803C10.5126 11.5732 10.9874 11.5732 11.2803 11.2803C11.5732 10.9874 11.5732 10.5126 11.2803 10.2197L2.56066 1.5L10.75 1.5C11.1642 1.5 11.5 1.16421 11.5 0.75C11.5 0.335786 11.1642 0 10.75 0L0.75 0C0.648308 0 0.551342 0.0202391 0.462912 0.0569091Z" fill-rule="NONZERO"></path>
 </g>
</svg>