<svg viewBox="0 0 16 16" width="16" height="16" fill="currentColor" xmlns="http://www.w3.org/2000/svg">
 <g transform="translate(0, 0)">
  <path d="M8 1.5C4.41015 1.5 1.5 4.41015 1.5 8C1.5 11.5899 4.41015 14.5 8 14.5C11.5899 14.5 14.5 11.5899 14.5 8C14.5 4.41015 11.5899 1.5 8 1.5ZM0 8C0 3.58172 3.58172 0 8 0C12.4183 0 16 3.58172 16 8C16 12.4183 12.4183 16 8 16C3.58172 16 0 12.4183 0 8Z" fill-rule="EVENODD"></path>
  <path d="M7.7545 4.69504C8.061 4.97368 8.08359 5.44801 7.80496 5.7545L5.7636 8L7.80496 10.2455C8.08359 10.552 8.061 11.0263 7.7545 11.305C7.44801 11.5836 6.97368 11.561 6.69504 11.2545L4.19504 8.50451C3.93499 8.21844 3.93499 7.78156 4.19504 7.4955L6.69504 4.7455C6.97368 4.439 7.44801 4.41641 7.7545 4.69504Z" fill-rule="EVENODD"></path>
  <path d="M4 8C4 7.58579 4.33579 7.25 4.75 7.25L11.25 7.25C11.6642 7.25 12 7.58579 12 8C12 8.41421 11.6642 8.75 11.25 8.75L4.75 8.75C4.33579 8.75 4 8.41421 4 8Z" fill-rule="EVENODD"></path>
 </g>
</svg>