<svg viewBox="0 0 16 16" width="16" height="16" fill="currentColor" xmlns="http://www.w3.org/2000/svg">
 <g transform="translate(2, 2.75)">
  <path d="M6.23503 1.29526C5.93389 1.01085 5.92033 0.536173 6.20474 0.235034C6.48915 -0.0661045 6.96383 -0.0796667 7.26497 0.204742L11.765 4.45474C11.915 4.59642 12 4.79366 12 5C12 5.20635 11.915 5.40358 11.765 5.54526L7.26497 9.79526C6.96383 10.0797 6.48915 10.0661 6.20474 9.76497C5.92033 9.46383 5.93389 8.98915 6.23503 8.70474L9.36358 5.75L0.75 5.75C0.335786 5.75 0 5.41421 0 5C0 4.58579 0.335786 4.25 0.75 4.25L9.36358 4.25L6.23503 1.29526Z" fill-rule="NONZERO"></path>
 </g>
</svg>