<svg viewBox="0 0 24 24" width="24" height="24" fill="black" xmlns="http://www.w3.org/2000/svg">
 <g transform="translate(1, 1)">
  <path d="M11 1.5C5.75329 1.5 1.5 5.75329 1.5 11C1.5 16.2467 5.75329 20.5 11 20.5C16.2467 20.5 20.5 16.2467 20.5 11C20.5 5.75329 16.2467 1.5 11 1.5ZM0 11C0 4.92487 4.92487 0 11 0C17.0751 0 22 4.92487 22 11C22 17.0751 17.0751 22 11 22C4.92487 22 0 17.0751 0 11Z" fill-rule="EVENODD"></path>
  <path d="M11 5C11.4142 5 11.75 5.33579 11.75 5.75L11.75 16.25C11.75 16.6642 11.4142 17 11 17C10.5858 17 10.25 16.6642 10.25 16.25L10.25 5.75C10.25 5.33579 10.5858 5 11 5Z" fill-rule="EVENODD"></path>
  <path d="M6.23503 11.2047C6.53617 10.9203 7.01085 10.9339 7.29526 11.235L11 15.1577L14.7047 11.235C14.9891 10.9339 15.4638 10.9203 15.765 11.2047C16.0661 11.4891 16.0797 11.9638 15.7953 12.265L11.5453 16.765C11.4036 16.915 11.2063 17 11 17C10.7937 17 10.5964 16.915 10.4547 16.765L6.20474 12.265C5.92033 11.9638 5.93389 11.4891 6.23503 11.2047Z" fill-rule="EVENODD"></path>
 </g>
</svg>