<svg viewBox="0 0 16 16" width="16" height="16" fill="black" xmlns="http://www.w3.org/2000/svg">
 <g transform="translate(3, 3)">
  <path d="M0.219669 0.21967C-0.0732231 0.512563 -0.0732231 0.987437 0.219669 1.28033L8.71967 9.78033C9.01256 10.0732 9.48744 10.0732 9.78033 9.78033C10.0732 9.48744 10.0732 9.01256 9.78033 8.71967L1.28033 0.21967C0.987436 -0.0732233 0.512563 -0.0732233 0.219669 0.21967Z" fill-rule="EVENODD"></path>
  <path d="M0.75 7C1.16421 7 1.5 6.66421 1.5 6.25L1.5 1.5L6.25 1.5C6.66421 1.5 7 1.16421 7 0.75C7 0.335786 6.66421 0 6.25 0L0.75 0C0.335786 0 0 0.335786 0 0.75L0 6.25C0 6.66421 0.335786 7 0.75 7Z" fill-rule="EVENODD"></path>
 </g>
</svg>