<svg viewBox="0 0 16 16" width="16" height="16" fill="currentColor" xmlns="http://www.w3.org/2000/svg">
 <g transform="translate(3, 3)">
  <path d="M9.78033 1.28033C10.0732 0.987437 10.0732 0.512563 9.78033 0.21967C9.48744 -0.0732233 9.01256 -0.0732233 8.71967 0.21967L1.5 7.43934L1.5 3.75C1.5 3.33579 1.16421 3 0.75 3C0.335786 3 0 3.33579 0 3.75L0 9.25C0 9.35169 0.0202389 9.44866 0.056909 9.53709C0.0935088 9.62555 0.147762 9.70842 0.21967 9.78033C0.366117 9.92678 0.558058 10 0.75 10L6.25 10C6.66421 10 7 9.66421 7 9.25C7 8.83579 6.66421 8.5 6.25 8.5L2.56066 8.5L9.78033 1.28033Z" fill-rule="NONZERO"></path>
 </g>
</svg>