<svg viewBox="0 0 16 16" width="16" height="16" fill="currentColor" xmlns="http://www.w3.org/2000/svg">
 <g transform="translate(3, 1.9999980926513672)">
  <path d="M1.29526 5.76497C1.01085 6.06611 0.536173 6.07967 0.235034 5.79526C-0.0661045 5.51085 -0.0796667 5.03617 0.204742 4.73503L4.45474 0.235033C4.59642 0.0850158 4.79366 0 5 0C5.20635 0 5.40358 0.0850158 5.54526 0.235033L9.79526 4.73503C10.0797 5.03617 10.0661 5.51085 9.76497 5.79526C9.46383 6.07967 8.98915 6.06611 8.70474 5.76497L5.75 2.63642L5.75 11.25C5.75 11.6642 5.41421 12 5 12C4.58579 12 4.25 11.6642 4.25 11.25L4.25 2.63642L1.29526 5.76497Z" fill-rule="NONZERO"></path>
 </g>
</svg>