<svg viewBox="0 0 24 24" width="24" height="24" fill="currentColor" xmlns="http://www.w3.org/2000/svg">
 <g transform="translate(1, 1)">
  <path d="M5 11C5 10.5858 5.33579 10.25 5.75 10.25L14.3636 10.25L11.235 7.29526C10.9339 7.01085 10.9203 6.53617 11.2047 6.23503C11.4891 5.9339 11.9638 5.92033 12.265 6.20474L16.765 10.4547C16.915 10.5964 17 10.7937 17 11C17 11.2063 16.915 11.4036 16.765 11.5453L12.265 15.7953C11.9638 16.0797 11.4891 16.0661 11.2047 15.765C10.9203 15.4638 10.9339 14.9892 11.235 14.7047L14.3636 11.75L5.75 11.75C5.33579 11.75 5 11.4142 5 11Z" fill-rule="NONZERO"></path>
  <path d="M0 11C0 4.92487 4.92487 0 11 0C17.0751 0 22 4.92487 22 11C22 17.0751 17.0751 22 11 22C4.92487 22 0 17.0751 0 11ZM11 1.5C5.75329 1.5 1.5 5.75329 1.5 11C1.5 16.2467 5.75329 20.5 11 20.5C16.2467 20.5 20.5 16.2467 20.5 11C20.5 5.75329 16.2467 1.5 11 1.5Z" fill-rule="EVENODD"></path>
 </g>
</svg>