<svg viewBox="0 0 24 24" width="24" height="24" fill="currentColor" xmlns="http://www.w3.org/2000/svg">
 <g transform="translate(3, 3.9999992847442627)">
  <path d="M0 8C0 7.58579 0.335786 7.25 0.75 7.25L17.25 7.25C17.6642 7.25 18 7.58579 18 8C18 8.41421 17.6642 8.75 17.25 8.75L0.75 8.75C0.335786 8.75 0 8.41421 0 8Z" fill-rule="EVENODD"></path>
  <path d="M9.21076 0.228734C8.92287 0.526549 8.93092 1.00135 9.22873 1.28924L16.1709 8L9.22873 14.7108C8.93092 14.9986 8.92287 15.4735 9.21076 15.7713C9.49865 16.0691 9.97345 16.0771 10.2713 15.7892L17.7713 8.53924C17.9175 8.39793 18 8.20332 18 8C18 7.79668 17.9175 7.60207 17.7713 7.46076L10.2713 0.210759C9.97345 -0.0771282 9.49865 -0.0690806 9.21076 0.228734Z" fill-rule="EVENODD"></path>
 </g>
</svg>