<svg viewBox="0 0 16 16" width="16" height="16" fill="black" xmlns="http://www.w3.org/2000/svg">
 <g transform="translate(3, 3)">
  <path d="M9.78033 0.21967C10.0732 0.512563 10.0732 0.987437 9.78033 1.28033L1.28033 9.78033C0.987437 10.0732 0.512563 10.0732 0.21967 9.78033C-0.0732233 9.48744 -0.0732233 9.01256 0.21967 8.71967L8.71967 0.21967C9.01256 -0.0732233 9.48744 -0.0732233 9.78033 0.21967Z" fill-rule="EVENODD"></path>
  <path d="M9.25 7C8.83579 7 8.5 6.66421 8.5 6.25L8.5 1.5L3.75 1.5C3.33579 1.5 3 1.16421 3 0.75C3 0.335786 3.33579 0 3.75 0L9.25 0C9.66421 0 10 0.335786 10 0.75L10 6.25C10 6.66421 9.66421 7 9.25 7Z" fill-rule="EVENODD"></path>
 </g>
</svg>