<svg viewBox="0 0 24 24" width="24" height="24" fill="currentColor" xmlns="http://www.w3.org/2000/svg">
 <g transform="translate(5, 5)">
  <path d="M13.7803 0.21967C14.0732 0.512563 14.0732 0.987437 13.7803 1.28033L1.28033 13.7803C0.987437 14.0732 0.512563 14.0732 0.21967 13.7803C-0.0732233 13.4874 -0.0732233 13.0126 0.21967 12.7197L12.7197 0.21967C13.0126 -0.0732233 13.4874 -0.0732233 13.7803 0.21967Z" fill-rule="EVENODD"></path>
  <path d="M0.75 3C1.16421 3 1.5 3.33579 1.5 3.75L1.5 12.5L10.25 12.5C10.6642 12.5 11 12.8358 11 13.25C11 13.6642 10.6642 14 10.25 14L0.75 14C0.335786 14 0 13.6642 0 13.25L0 3.75C0 3.33579 0.335786 3 0.75 3Z" fill-rule="EVENODD"></path>
 </g>
</svg>