<svg viewBox="0 0 24 24" width="24" height="24" fill="currentColor" xmlns="http://www.w3.org/2000/svg">
 <g transform="translate(1, 1)">
  <path d="M13.4999 0.287844C11.0822 -0.276376 8.54473 -0.00613678 6.30009 1.05462C4.05545 2.11538 2.23565 3.90427 1.13659 6.13041C0.0375401 8.35655 -0.276127 10.889 0.246595 13.316C0.769316 15.743 2.09768 17.9219 4.0157 19.4982C5.93372 21.0745 8.32858 21.9557 10.8109 21.9984C13.2932 22.0411 15.7169 21.2428 17.688 19.7333C18.0169 19.4815 18.0793 19.0107 17.8275 18.6819C17.5756 18.353 17.1049 18.2906 16.776 18.5424C15.0737 19.846 12.9805 20.5355 10.8367 20.4986C8.69287 20.4617 6.62458 19.7007 4.96811 18.3394C3.31164 16.978 2.16441 15.0963 1.71297 13.0002C1.26153 10.9042 1.53242 8.71702 2.4816 6.79445C3.43079 4.87187 5.00243 3.32692 6.94099 2.41081C8.87954 1.4947 11.071 1.26131 13.159 1.74859C15.247 2.23588 17.1088 3.41517 18.4416 5.09471C19.7744 6.77425 20.4999 8.8553 20.5 10.9994L20.5 12.0244C20.5 13.2819 19.5053 14.5 18.175 14.5C16.8875 14.5 16 13.3584 16 12.0244L16 6.75C16 6.33579 15.6642 6 15.25 6C14.8358 6 14.5 6.33579 14.5 6.75L14.5 7.42928C13.5981 6.54516 12.3627 6 11 6C8.23858 6 6 8.23858 6 11C6 13.7614 8.23858 16 11 16C12.6284 16 14.0749 15.2216 14.9878 14.0166C15.5684 15.1366 16.6541 16 18.175 16C20.4947 16 22 13.9396 22 12.0244L22 10.9993C21.9998 8.51664 21.1598 6.10704 19.6166 4.1623C18.0733 2.21756 15.9176 0.852065 13.4999 0.287844ZM14.5 11C14.5 9.067 12.933 7.5 11 7.5C9.067 7.5 7.5 9.067 7.5 11C7.5 12.933 9.067 14.5 11 14.5C12.933 14.5 14.5 12.933 14.5 11Z" fill-rule="EVENODD"></path>
 </g>
</svg>