<svg viewBox="0 0 16 16" width="16" height="16" fill="black" xmlns="http://www.w3.org/2000/svg">
 <g transform="translate(-0.0000008203280685847858, -0.0000006723964816046646)">
  <path d="M8 5.5C6.61929 5.5 5.5 6.61929 5.5 8C5.5 9.38071 6.61929 10.5 8 10.5C9.38071 10.5 10.5 9.38071 10.5 8C10.5 6.61929 9.38071 5.5 8 5.5ZM4 8C4 5.79086 5.79086 4 8 4C10.2091 4 12 5.79086 12 8C12 10.2091 10.2091 12 8 12C5.79086 12 4 10.2091 4 8Z" fill-rule="EVENODD"></path>
  <path d="M4.58188 0.766997C6.21435 -0.00446308 8.05979 -0.201001 9.81812 0.209341C11.5764 0.619683 13.1443 1.61277 14.2666 3.02713C15.389 4.44148 15.9999 6.19392 16 7.9995L16 9C16 10.4615 15.0394 12 13.25 12C12.4008 12 11.6914 11.6431 11.2067 11.0655C10.7326 10.5004 10.5 9.75906 10.5 9L10.5 4.75C10.5 4.33579 10.8358 4 11.25 4C11.6642 4 12 4.33579 12 4.75L12 9C12 9.4634 12.1424 9.84706 12.3558 10.1014C12.5586 10.3431 12.8492 10.5 13.25 10.5C13.9606 10.5 14.5 9.90779 14.5 9L14.5 7.99959L14.5 7.99959C14.4999 6.53258 14.0035 5.10869 13.0916 3.95954C12.1797 2.81038 10.9059 2.00349 9.47722 1.67009C8.04858 1.33669 6.54916 1.49638 5.22278 2.12319C3.8964 2.75 2.82107 3.80707 2.17162 5.12252C1.52218 6.43796 1.33684 7.93442 1.64572 9.36857C1.9546 10.8027 2.73954 12.0902 3.87292 13.0217C5.00629 13.9531 6.42144 14.4738 7.88825 14.499C9.35506 14.5243 10.7873 14.0525 11.952 13.1606C12.2809 12.9088 12.7516 12.9712 13.0035 13.3C13.2553 13.6289 13.1929 14.0997 12.864 14.3515C11.4305 15.4493 9.66777 16.0299 7.86246 15.9988C6.05715 15.9678 4.31543 15.3269 2.92051 14.1805C1.52559 13.0341 0.559503 11.4495 0.179342 9.68439C-0.20082 7.91929 0.0273018 6.07749 0.826613 4.45848C1.62592 2.83947 2.94942 1.53846 4.58188 0.766997Z" fill-rule="EVENODD"></path>
 </g>
</svg>