<svg viewBox="0 0 16 16" width="16" height="16" fill="black" xmlns="http://www.w3.org/2000/svg">
 <g transform="translate(0.25, 0.2499999850988388)">
  <path d="M9.5113 0.202799C7.80792 -0.194719 6.02015 -0.0043236 4.4387 0.743028C2.85725 1.49038 1.57511 2.75073 0.800781 4.31915C0.0264486 5.88757 -0.194544 7.67181 0.173737 9.38175C0.542018 11.0917 1.47791 12.6268 2.82924 13.7374C4.18057 14.848 5.86786 15.4688 7.61676 15.4989C9.36565 15.5289 11.0733 14.9665 12.462 13.903C12.7909 13.6512 12.8533 13.1804 12.6015 12.8516C12.3496 12.5227 11.8789 12.4603 11.55 12.7121C10.4301 13.5698 9.05294 14.0233 7.64255 13.9991C6.23215 13.9748 4.87143 13.4742 3.78165 12.5785C2.69187 11.6829 1.93711 10.4449 1.64011 9.06593C1.34311 7.68695 1.52133 6.24804 2.14579 4.98319C2.77026 3.71833 3.80423 2.70192 5.0796 2.09922C6.35496 1.49651 7.79671 1.34297 9.1704 1.66355C10.5441 1.98413 11.7689 2.75998 12.6458 3.86494C13.5226 4.9699 13.9999 6.33902 14 7.74961L14 8.44956C14 8.8076 13.8578 9.15098 13.6046 9.40416C13.3514 9.65733 13.008 9.79956 12.65 9.79956C12.292 9.79956 11.9486 9.65733 11.6954 9.40416C11.4422 9.15098 11.3 8.8076 11.3 8.44956L11.3 4.94956C11.3 4.53535 10.9642 4.19956 10.55 4.19956C10.1358 4.19956 9.8 4.53535 9.8 4.94956L9.8 5.22796C9.24076 4.77284 8.52724 4.5 7.75 4.5C5.95507 4.5 4.5 5.95507 4.5 7.75C4.5 9.54493 5.95507 11 7.75 11C8.72363 11 9.59726 10.5719 10.1929 9.89359C10.3143 10.1002 10.4624 10.2924 10.6347 10.4648C11.1692 10.9993 11.8941 11.2996 12.65 11.2996C13.4059 11.2996 14.1308 10.9993 14.6653 10.4648C15.1997 9.93034 15.5 9.20543 15.5 8.44956L15.5 7.74951C15.4999 6.00036 14.9081 4.30269 13.8208 2.93253C12.7335 1.56237 11.2147 0.600318 9.5113 0.202799ZM6 7.75C6 6.7835 6.7835 6 7.75 6C8.7165 6 9.5 6.7835 9.5 7.75C9.5 8.7165 8.7165 9.5 7.75 9.5C6.7835 9.5 6 8.7165 6 7.75Z" fill-rule="EVENODD"></path>
 </g>
</svg>