<svg viewBox="0 0 24 24" width="24" height="24" fill="currentColor" xmlns="http://www.w3.org/2000/svg">
 <g transform="translate(0.9999991655349731, 0.9999993443489075)">
  <path d="M11 7.5C9.067 7.5 7.5 9.067 7.5 11C7.5 12.933 9.067 14.5 11 14.5C12.933 14.5 14.5 12.933 14.5 11C14.5 9.067 12.933 7.5 11 7.5ZM6 11C6 8.23858 8.23858 6 11 6C13.7614 6 16 8.23858 16 11C16 13.7614 13.7614 16 11 16C8.23858 16 6 13.7614 6 11Z" fill-rule="EVENODD"></path>
  <path d="M6.30009 1.05462C8.54473 -0.00613678 11.0822 -0.276376 13.4999 0.287844C15.9176 0.852065 18.0733 2.21756 19.6166 4.1623C21.1598 6.10704 21.9998 8.51665 22 10.9993L22 12.0244C22 13.9396 20.4947 16 18.175 16C15.8125 16 14.5 13.9166 14.5 12.0244L14.5 6.75C14.5 6.33579 14.8358 6 15.25 6C15.6642 6 16 6.33579 16 6.75L16 12.0244C16 13.3584 16.8875 14.5 18.175 14.5C19.5053 14.5 20.5 13.2819 20.5 12.0244L20.5 10.9994L20.5 10.9994C20.4999 8.8553 19.7744 6.77425 18.4416 5.09471C17.1088 3.41517 15.247 2.23588 13.159 1.74859C11.071 1.26131 8.87954 1.4947 6.94099 2.41081C5.00243 3.32692 3.43079 4.87187 2.4816 6.79445C1.53242 8.71702 1.26153 10.9042 1.71297 13.0002C2.16441 15.0963 3.31164 16.978 4.96811 18.3394C6.62458 19.7007 8.69287 20.4617 10.8367 20.4986C12.9805 20.5355 15.0737 19.846 16.776 18.5424C17.1049 18.2906 17.5756 18.353 17.8275 18.6819C18.0793 19.0107 18.0169 19.4815 17.688 19.7333C15.7169 21.2428 13.2932 22.0411 10.8109 21.9984C8.32858 21.9557 5.93372 21.0745 4.0157 19.4982C2.09768 17.9219 0.769316 15.743 0.246595 13.316C-0.276127 10.889 0.0375401 8.35655 1.13659 6.13041C2.23565 3.90427 4.05545 2.11538 6.30009 1.05462Z" fill-rule="EVENODD"></path>
 </g>
</svg>