<svg viewBox="0 0 16 16" width="16" height="16" fill="currentColor" xmlns="http://www.w3.org/2000/svg">
 <g transform="translate(0, 0)">
  <path d="M5.50013 1.72826C5.51178 0.771779 6.29076 0 7.25 0L8.75 0C9.70924 0 10.4882 0.77178 10.4999 1.72826C10.556 1.75064 10.6117 1.77376 10.6671 1.79759C11.3516 1.12945 12.4482 1.13453 13.1265 1.81283L14.1872 2.87349C14.8655 3.55179 14.8706 4.64838 14.2024 5.33295C14.2263 5.3883 14.2494 5.44403 14.2717 5.50013C15.2282 5.51178 16 6.29076 16 7.25L16 8.75C16 9.70924 15.2282 10.4882 14.2717 10.4999C14.2494 10.556 14.2262 10.6117 14.2024 10.6671C14.8706 11.3516 14.8655 12.4482 14.1872 13.1265L13.1265 14.1872C12.4482 14.8655 11.3516 14.8706 10.6671 14.2024C10.6117 14.2262 10.556 14.2494 10.4999 14.2717C10.4882 15.2282 9.70924 16 8.75 16L7.25 16C6.29076 16 5.51178 15.2282 5.50013 14.2717C5.44403 14.2494 5.38829 14.2262 5.33294 14.2024C4.64838 14.8706 3.55179 14.8655 2.87348 14.1872L1.81282 13.1265C1.13452 12.4482 1.12945 11.3516 1.79759 10.6671C1.77376 10.6117 1.75064 10.556 1.72826 10.4999C0.771779 10.4882 0 9.70924 0 8.75L0 7.25C0 6.29076 0.771778 5.51178 1.72826 5.50013C1.75064 5.44403 1.77375 5.3883 1.79758 5.33295C1.12943 4.64838 1.1345 3.55179 1.81281 2.87349L2.87347 1.81283C3.55177 1.13453 4.64835 1.12945 5.33292 1.79759C5.38828 1.77376 5.44402 1.75064 5.50013 1.72826ZM7.25 1.5C7.11193 1.5 7 1.61193 7 1.75L7 2.25922C7 2.58929 6.7842 2.88057 6.46844 2.9767C6.14159 3.07621 5.82817 3.20682 5.53158 3.36515C5.24028 3.52066 4.88154 3.46735 4.64805 3.23385L4.28768 2.87349C4.19005 2.77586 4.03176 2.77586 3.93413 2.87349L2.87347 3.93415C2.77584 4.03178 2.77584 4.19007 2.87347 4.2877L3.23384 4.64807C3.46733 4.88157 3.52064 5.24031 3.36513 5.53161C3.20681 5.82818 3.07621 6.1416 2.9767 6.46844C2.88057 6.7842 2.58929 7 2.25922 7L1.75 7C1.61193 7 1.5 7.11193 1.5 7.25L1.5 8.75C1.5 8.88807 1.61193 9 1.75 9L2.25922 9C2.58929 9 2.88057 9.2158 2.9767 9.53156C3.07621 9.85841 3.20682 10.1718 3.36515 10.4684C3.52066 10.7597 3.46735 11.1185 3.23385 11.352L2.87348 11.7123C2.77585 11.81 2.77585 11.9682 2.87348 12.0659L3.93414 13.1265C4.03178 13.2242 4.19007 13.2242 4.2877 13.1265L4.64807 12.7662C4.88157 12.5327 5.24031 12.4794 5.53161 12.6349C5.82818 12.7932 6.1416 12.9238 6.46844 13.0233C6.7842 13.1194 7 13.4107 7 13.7408L7 14.25C7 14.3881 7.11193 14.5 7.25 14.5L8.75 14.5C8.88807 14.5 9 14.3881 9 14.25L9 13.7408C9 13.4107 9.2158 13.1194 9.53156 13.0233C9.8584 12.9238 10.1718 12.7932 10.4684 12.6349C10.7597 12.4794 11.1184 12.5327 11.3519 12.7662L11.7123 13.1265C11.8099 13.2242 11.9682 13.2242 12.0659 13.1265L13.1265 12.0659C13.2241 11.9682 13.2241 11.81 13.1265 11.7123L12.7661 11.352C12.5327 11.1185 12.4793 10.7597 12.6349 10.4684C12.7932 10.1718 12.9238 9.85841 13.0233 9.53156C13.1194 9.2158 13.4107 9 13.7408 9L14.25 9C14.3881 9 14.5 8.88807 14.5 8.75L14.5 7.25C14.5 7.11193 14.3881 7 14.25 7L13.7408 7C13.4107 7 13.1194 6.7842 13.0233 6.46844C12.9238 6.1416 12.7932 5.82818 12.6349 5.53161C12.4794 5.24031 12.5327 4.88157 12.7662 4.64807L13.1265 4.2877C13.2242 4.19007 13.2242 4.03178 13.1265 3.93415L12.0659 2.87349C11.9682 2.77586 11.8099 2.77586 11.7123 2.87349L11.352 3.23385C11.1185 3.46735 10.7597 3.52066 10.4684 3.36515C10.1718 3.20682 9.85841 3.07621 9.53156 2.9767C9.2158 2.88057 9 2.58929 9 2.25922L9 1.75C9 1.61193 8.88807 1.5 8.75 1.5L7.25 1.5Z" fill-rule="EVENODD"></path>
  <path d="M5 5.6393C5 4.2343 6.57221 3.40213 7.73404 4.19218L11.2057 6.55288C12.2269 7.24735 12.2269 8.75265 11.2057 9.44712L7.73404 11.8078C6.57221 12.5979 5 11.7657 5 10.3607L5 5.6393ZM6.89058 5.43257C6.7246 5.3197 6.5 5.43858 6.5 5.6393L6.5 10.3607C6.5 10.5614 6.7246 10.6803 6.89058 10.5674L10.3622 8.20673C10.5081 8.10752 10.5081 7.89248 10.3622 7.79327L6.89058 5.43257Z" fill-rule="EVENODD"></path>
 </g>
</svg>