<svg viewBox="0 0 24 24" width="24" height="24" fill="black" xmlns="http://www.w3.org/2000/svg">
 <g transform="translate(0.25, 0.25)">
  <path d="M11.152 8.82232C10.5705 8.43466 9.79163 8.8515 9.79163 9.55036L9.79163 13.9494C9.79163 14.6483 10.5705 15.0651 11.152 14.6775L14.4513 12.4779C14.9708 12.1316 14.9708 11.3682 14.4513 11.0219L11.152 8.82232Z" fill-rule="NONZERO"></path>
  <path d="M11.75 5.5C8.29822 5.5 5.5 8.29822 5.5 11.75C5.5 15.2018 8.29822 18 11.75 18C15.2018 18 18 15.2018 18 11.75C18 8.29822 15.2018 5.5 11.75 5.5ZM7 11.75C7 9.12665 9.12665 7 11.75 7C14.3734 7 16.5 9.12665 16.5 11.75C16.5 14.3734 14.3734 16.5 11.75 16.5C9.12665 16.5 7 14.3734 7 11.75Z" fill-rule="EVENODD"></path>
  <path d="M11.0499 0C9.80726 0 8.7999 1.00736 8.7999 2.25L8.7999 2.66472C8.32405 2.81914 7.86464 3.00985 7.42495 3.23356L7.12811 2.93673C6.24943 2.05805 4.82481 2.05805 3.94613 2.93673L2.93642 3.94644C2.05774 4.82512 2.05774 6.24975 2.93642 7.12843L3.23335 7.42536C3.00973 7.86493 2.81909 8.3242 2.66472 8.7999L2.25 8.7999C1.00736 8.7999 0 9.80726 0 11.0499L0 12.4499C0 13.6925 1.00736 14.6999 2.25 14.6999L2.66459 14.6999C2.81876 15.175 3.00912 15.6338 3.23238 16.0729L2.93521 16.3701C2.05653 17.2488 2.05652 18.6734 2.93521 19.5521L3.94798 20.5649C4.82666 21.4435 6.25128 21.4435 7.12996 20.5649L7.42709 20.2677C7.86613 20.491 8.32483 20.6813 8.7999 20.8355L8.7999 21.25C8.7999 22.4926 9.80726 23.5 11.0499 23.5L12.4499 23.5C13.6925 23.5 14.6999 22.4926 14.6999 21.25L14.6999 20.8356C15.1757 20.6812 15.6352 20.4905 16.0748 20.2669L16.3714 20.5635C17.2501 21.4421 18.6747 21.4421 19.5534 20.5635L20.5631 19.5537C21.4418 18.6751 21.4418 17.2504 20.5631 16.3718L20.2666 16.0753C20.4904 15.6354 20.6812 15.1759 20.8356 14.6999L21.25 14.6999C22.4926 14.6999 23.5 13.6925 23.5 12.4499L23.5 11.0499C23.5 9.80726 22.4926 8.7999 21.25 8.7999L20.8355 8.7999C20.6813 8.32483 20.491 7.86613 20.2677 7.42709L20.565 7.12983C21.4437 6.25115 21.4437 4.82653 20.565 3.94785L19.5522 2.93508C18.6735 2.0564 17.2489 2.0564 16.3702 2.93508L16.0729 3.23238C15.6338 3.00912 15.175 2.81876 14.6999 2.66459L14.6999 2.25C14.6999 1.00736 13.6925 0 12.4499 0L11.0499 0ZM10.2999 2.25C10.2999 1.83579 10.6357 1.5 11.0499 1.5L12.4499 1.5C12.8641 1.5 13.1999 1.83579 13.1999 2.25L13.1999 3.22729C13.1999 3.56951 13.4316 3.86833 13.763 3.95362C14.496 4.14226 15.1887 4.43167 15.8257 4.80641C16.1202 4.9797 16.4947 4.93197 16.7363 4.69032L17.4309 3.99574C17.7238 3.70285 18.1987 3.70285 18.4916 3.99574L19.5043 5.00851C19.7972 5.30141 19.7972 5.77628 19.5043 6.06917L18.8098 6.76372C18.5681 7.00537 18.5204 7.37983 18.6937 7.67437C19.0684 8.31126 19.3578 9.00393 19.5465 9.73686C19.6318 10.0683 19.9306 10.2999 20.2728 10.2999L21.25 10.2999C21.6642 10.2999 22 10.6357 22 11.0499L22 12.4499C22 12.8641 21.6642 13.1999 21.25 13.1999L20.2729 13.1999C19.9307 13.1999 19.6319 13.4316 19.5466 13.763C19.3577 14.4967 19.0679 15.1902 18.6926 15.8277C18.5192 16.1223 18.5669 16.4968 18.8086 16.7385L19.5025 17.4324C19.7954 17.7253 19.7954 18.2002 19.5025 18.4931L18.4928 19.5028C18.1999 19.7957 17.725 19.7957 17.4321 19.5028L16.7381 18.8088C16.4964 18.5671 16.1219 18.5194 15.8273 18.6928C15.1899 19.068 14.4966 19.3578 13.763 19.5466C13.4316 19.6319 13.1999 19.9307 13.1999 20.2729L13.1999 21.25C13.1999 21.6642 12.8641 22 12.4499 22L11.0499 22C10.6357 22 10.2999 21.6642 10.2999 21.25L10.2999 20.2728C10.2999 19.9306 10.0683 19.6318 9.73686 19.5465C9.00394 19.3578 8.31126 19.0684 7.67437 18.6937C7.37983 18.5204 7.00537 18.5681 6.76372 18.8098L6.0693 19.5042C5.77641 19.7971 5.30153 19.7971 5.00864 19.5042L3.99586 18.4914C3.70297 18.1985 3.70297 17.7237 3.99587 17.4308L4.69032 16.7363C4.93197 16.4947 4.9797 16.1202 4.80641 15.8257C4.43167 15.1887 4.14226 14.496 3.95362 13.763C3.86833 13.4316 3.56951 13.1999 3.22729 13.1999L2.25 13.1999C1.83579 13.1999 1.5 12.8641 1.5 12.4499L1.5 11.0499C1.5 10.6357 1.83579 10.2999 2.25 10.2999L3.22739 10.2999C3.5696 10.2999 3.86841 10.0683 3.95372 9.73686C4.14253 9.00336 4.43224 8.31017 4.80739 7.67287C4.98078 7.37831 4.93308 7.00377 4.69139 6.76207L3.99708 6.06776C3.70418 5.77487 3.70418 5.3 3.99708 5.0071L5.00679 3.99739C5.29969 3.7045 5.77456 3.7045 6.06745 3.99739L6.76168 4.69162C7.00339 4.93332 7.37795 4.98102 7.67251 4.8076C8.30991 4.43235 9.00322 4.14256 9.73686 3.95372C10.0683 3.86841 10.2999 3.5696 10.2999 3.22739L10.2999 2.25Z" fill-rule="EVENODD"></path>
 </g>
</svg>