<svg viewBox="0 0 24 24" width="24" height="24" fill="black" xmlns="http://www.w3.org/2000/svg">
 <g transform="translate(5, 3)">
  <path d="M7 6C7.55228 6 8 6.44772 8 7L8 17C8 17.5523 7.55228 18 7 18C6.44772 18 6 17.5523 6 17L6 7C6 6.44772 6.44772 6 7 6Z" fill-rule="EVENODD"></path>
  <path d="M13 0C13.5523 0 14 0.447715 14 1L14 17C14 17.5523 13.5523 18 13 18C12.4477 18 12 17.5523 12 17L12 1C12 0.447715 12.4477 0 13 0Z" fill-rule="EVENODD"></path>
  <path d="M1 12C1.55228 12 2 12.4477 2 13L2 17C2 17.5523 1.55228 18 1 18C0.447715 18 0 17.5523 0 17L0 13C0 12.4477 0.447715 12 1 12Z" fill-rule="EVENODD"></path>
 </g>
</svg>