<svg viewBox="0 0 16 16" width="16" height="16" fill="currentColor" xmlns="http://www.w3.org/2000/svg">
 <g transform="translate(1, 3)">
  <path d="M2.25 0C1.00736 0 0 1.00736 0 2.25L0 7.75C0 8.99264 1.00736 10 2.25 10L9.75 10C10.9926 10 12 8.99264 12 7.75L12 2.25C12 1.00736 10.9926 0 9.75 0L2.25 0ZM1.5 2.25C1.5 1.83579 1.83579 1.5 2.25 1.5L9.75 1.5C10.1642 1.5 10.5 1.83579 10.5 2.25L10.5 7.75C10.5 8.16421 10.1642 8.5 9.75 8.5L2.25 8.5C1.83579 8.5 1.5 8.16421 1.5 7.75L1.5 2.25Z" fill-rule="EVENODD"></path>
  <path d="M14.5 3.75C14.5 3.33579 14.1642 3 13.75 3C13.3358 3 13 3.33579 13 3.75L13 6.25C13 6.66421 13.3358 7 13.75 7C14.1642 7 14.5 6.66421 14.5 6.25L14.5 3.75Z" fill-rule="NONZERO"></path>
 </g>
</svg>