<svg viewBox="0 0 24 24" width="24" height="24" fill="black" xmlns="http://www.w3.org/2000/svg">
 <g transform="translate(0.25, 5.25)">
  <path d="M2.75 1.5C2.41848 1.5 2.10054 1.6317 1.86612 1.86612C1.6317 2.10054 1.5 2.41848 1.5 2.75L1.5 10.75C1.5 11.0815 1.6317 11.3995 1.86612 11.6339C2.10054 11.8683 2.41848 12 2.75 12L4.75 12C5.16421 12 5.5 12.3358 5.5 12.75C5.5 13.1642 5.16421 13.5 4.75 13.5L2.75 13.5C2.02065 13.5 1.32118 13.2103 0.805456 12.6945C0.289732 12.1788 0 11.4793 0 10.75L0 2.75C0 2.02065 0.289731 1.32118 0.805456 0.805456C1.32118 0.289731 2.02065 0 2.75 0L5.94 0C6.35421 0 6.69 0.335786 6.69 0.75C6.69 1.16421 6.35421 1.5 5.94 1.5L2.75 1.5ZM14 0.75C14 0.335786 14.3358 0 14.75 0L16.75 0C17.4793 0 18.1788 0.289731 18.6945 0.805456C19.2103 1.32118 19.5 2.02065 19.5 2.75L19.5 10.75C19.5 11.4793 19.2103 12.1788 18.6945 12.6945C18.1788 13.2103 17.4793 13.5 16.75 13.5L13.56 13.5C13.1458 13.5 12.81 13.1642 12.81 12.75C12.81 12.3358 13.1458 12 13.56 12L16.75 12C17.0815 12 17.3995 11.8683 17.6339 11.6339C17.8683 11.3995 18 11.0815 18 10.75L18 2.75C18 2.41848 17.8683 2.10054 17.6339 1.86612C17.3995 1.6317 17.0815 1.5 16.75 1.5L14.75 1.5C14.3358 1.5 14 1.16421 14 0.75Z" fill-rule="EVENODD"></path>
 </g>
</svg>