<svg viewBox="0 0 24 24" width="24" height="24" fill="black" xmlns="http://www.w3.org/2000/svg">
 <g transform="translate(3.947235584259033, 4)">
  <path d="M3.71735 0.329179C4.08784 0.143937 4.53834 0.294106 4.72358 0.66459L6.2476 3.71263C6.49628 4.20997 6.49379 4.7959 6.24092 5.29111L1.58502 14.4089C1.3302 14.9079 1.69265 15.5 2.25297 15.5L13.8526 15.5C14.4129 15.5 14.7753 14.9079 14.5205 14.4089L9.86461 5.29111C9.61174 4.79589 9.60925 4.20997 9.85792 3.71263L11.3819 0.66459C11.5672 0.294106 12.0177 0.143937 12.3882 0.329179C12.7587 0.514421 12.9088 0.964926 12.7236 1.33541L11.1996 4.38345C11.164 4.4545 11.1644 4.5382 11.2005 4.60895L15.8564 13.7268C16.6209 15.2238 15.5335 17 13.8526 17L2.25297 17C0.572019 17 -0.51535 15.2238 0.249108 13.7268L4.90501 4.60895C4.94113 4.5382 4.94149 4.4545 4.90596 4.38345L3.38194 1.33541C3.1967 0.964926 3.34687 0.514421 3.71735 0.329179Z" fill-rule="EVENODD"></path>
  <path d="M3.30276 8.75C3.30276 8.33579 3.63855 8 4.05276 8L12.0528 8C12.467 8 12.8028 8.33579 12.8028 8.75C12.8028 9.16421 12.467 9.5 12.0528 9.5L4.05276 9.5C3.63855 9.5 3.30276 9.16421 3.30276 8.75Z" fill-rule="EVENODD"></path>
  <path d="M2.05276 0.75C2.05276 0.335786 2.38855 0 2.80276 0L13.3028 0C13.717 0 14.0528 0.335786 14.0528 0.75C14.0528 1.16421 13.717 1.5 13.3028 1.5L2.80276 1.5C2.38855 1.5 2.05276 1.16421 2.05276 0.75Z" fill-rule="EVENODD"></path>
 </g>
</svg>