<svg viewBox="0 0 24 24" width="24" height="24" fill="currentColor" xmlns="http://www.w3.org/2000/svg">
 <g transform="translate(3.947265625, 4)">
  <path d="M2.80273 0C2.38852 0 2.05273 0.335786 2.05273 0.75C2.05273 1.16421 2.38852 1.5 2.80273 1.5L3.46425 1.5L4.90596 4.38343C4.94149 4.45448 4.94113 4.53818 4.90501 4.60893L0.249108 13.7267C-0.51535 15.2238 0.572019 17 2.25297 17L13.8526 17C15.5335 17 16.6209 15.2238 15.8564 13.7267L11.2005 4.60893C11.1644 4.53818 11.164 4.45448 11.1996 4.38343L12.6413 1.5L13.3027 1.5C13.7169 1.5 14.0527 1.16421 14.0527 0.75C14.0527 0.335786 13.7169 0 13.3027 0L2.80273 0ZM10.9642 1.5L5.1413 1.5L6.2476 3.71261C6.49628 4.20995 6.49379 4.79588 6.24092 5.29109L4.85765 8L11.2479 8L9.86461 5.29109C9.61174 4.79588 9.60925 4.20995 9.85792 3.71261L10.9642 1.5ZM1.58502 14.4089L4.09169 9.5L12.0138 9.5L14.5205 14.4089C14.7753 14.9079 14.4129 15.5 13.8526 15.5L2.25297 15.5C1.69265 15.5 1.3302 14.9079 1.58502 14.4089Z" fill-rule="EVENODD"></path>
 </g>
</svg>