<svg viewBox="0 0 16 16" width="16" height="16" fill="currentColor" xmlns="http://www.w3.org/2000/svg">
 <g transform="translate(2.0322265625, 1.99981689453125)">
  <path d="M2.57579 0.000183107L1.71777 0.000183107C1.30356 0.000183107 0.967773 0.33597 0.967773 0.750183C0.967773 1.1644 1.30356 1.50018 1.71777 1.50018L2.11151 1.50018L3.0986 3.65384C3.1284 3.71885 3.12893 3.79349 3.10007 3.85891L0.150847 10.5438C-0.359491 11.7006 0.487614 13.0002 1.75195 13.0002L10.1836 13.0002C11.4479 13.0002 12.2951 11.7006 11.7847 10.5438L8.8355 3.85892C8.80664 3.79349 8.80717 3.71884 8.83696 3.65384L9.82406 1.50018L10.2178 1.50018C10.632 1.50018 10.9678 1.1644 10.9678 0.750183C10.9678 0.33597 10.632 0.000183107 10.2178 0.000183107L9.35977 0.000183107C9.34874 -6.15164e-05 9.33772 -6.05543e-05 9.32672 0.000183107L2.60885 0.000183107C2.59785 -6.05389e-05 2.58683 -6.15009e-05 2.57579 0.000183107ZM8.17401 1.50018L3.76156 1.50018L4.4622 3.02886C4.67075 3.48388 4.67448 4.00642 4.47244 4.46438L3.79488 6.00018L8.14068 6.00018L7.46312 4.46438C7.26109 4.00643 7.26481 3.48388 7.47337 3.02886L8.17401 1.50018ZM1.52322 11.1493L3.13312 7.50018L8.80245 7.50018L10.4123 11.1493C10.4852 11.3145 10.3642 11.5002 10.1836 11.5002L1.75195 11.5002C1.57133 11.5002 1.45032 11.3145 1.52322 11.1493Z" fill-rule="EVENODD"></path>
 </g>
</svg>