<svg viewBox="0 0 16 16" width="16" height="16" fill="black" xmlns="http://www.w3.org/2000/svg">
 <g transform="translate(2.032217264175415, 1.9998178482055664)">
  <path d="M2.28029 0.0683835C2.65684 -0.104201 3.102 0.0611441 3.27458 0.437691L4.4622 3.02886C4.67075 3.48388 4.67448 4.00642 4.47244 4.46438L1.52322 11.1493C1.45032 11.3145 1.57133 11.5002 1.75195 11.5002L10.1836 11.5002C10.3642 11.5002 10.4852 11.3145 10.4123 11.1493L7.46312 4.46438C7.26109 4.00642 7.26481 3.48388 7.47337 3.02886L8.66098 0.437691C8.83357 0.061144 9.27873 -0.104201 9.65528 0.0683836C10.0318 0.240968 10.1972 0.686126 10.0246 1.06267L8.83696 3.65384C8.80717 3.71884 8.80664 3.79349 8.8355 3.85892L11.7847 10.5438C12.2951 11.7006 11.4479 13.0002 10.1836 13.0002L1.75195 13.0002C0.487614 13.0002 -0.359491 11.7006 0.150847 10.5438L3.10007 3.85891C3.12893 3.79349 3.1284 3.71885 3.0986 3.65384L1.91098 1.06267C1.7384 0.686126 1.90375 0.240967 2.28029 0.0683835Z" fill-rule="EVENODD"></path>
  <path d="M2.21778 6.75018C2.21778 6.33597 2.55357 6.00018 2.96778 6.00018L8.96778 6.00018C9.382 6.00018 9.71778 6.33597 9.71778 6.75018C9.71778 7.1644 9.382 7.50018 8.96778 7.50018L2.96778 7.50018C2.55357 7.50018 2.21778 7.1644 2.21778 6.75018Z" fill-rule="EVENODD"></path>
  <path d="M0.967783 0.750182C0.967783 0.335969 1.30357 0.000182153 1.71778 0.000182153L10.2178 0.000182153C10.632 0.000182153 10.9678 0.335969 10.9678 0.750182C10.9678 1.1644 10.632 1.50018 10.2178 1.50018L1.71778 1.50018C1.30357 1.50018 0.967783 1.1644 0.967783 0.750182Z" fill-rule="EVENODD"></path>
 </g>
</svg>