<svg viewBox="0 0 24 24" width="24" height="24" fill="black" xmlns="http://www.w3.org/2000/svg">
 <g transform="translate(1, 1)">
  <path d="M20 2.5C20 3.88071 18.8807 5 17.5 5C16.1193 5 15 3.88071 15 2.5C15 1.11929 16.1193 0 17.5 0C18.8807 0 20 1.11929 20 2.5Z" fill-rule="NONZERO"></path>
  <path d="M11 1.5C7.52444 1.5 4.5 4.49988 4.5 7.98333L4.5 13.15C4.5 14.0225 4.21088 14.8427 3.718 15.5L18.282 15.5C17.7891 14.8427 17.5 14.0225 17.5 13.15L17.5 7.98333C17.5 7.68765 17.4783 7.39553 17.4363 7.1084C17.3765 6.69854 17.6602 6.31774 18.0701 6.25788C18.4799 6.19801 18.8607 6.48173 18.9206 6.8916C18.9729 7.24949 19 7.61406 19 7.98333L19 13.15C19 14.4544 20.0189 15.5 21.25 15.5C21.6642 15.5 22 15.8358 22 16.25C22 16.6642 21.6642 17 21.25 17L0.75 17C0.335786 17 0 16.6642 0 16.25C0 15.8358 0.335786 15.5 0.75 15.5C1.98113 15.5 3 14.4544 3 13.15L3 7.98333C3 3.66511 6.70238 0 11 0C11.6984 0 12.3807 0.0969204 13.033 0.277059C13.1527 0.310105 13.2713 0.345948 13.3889 0.384503C13.7825 0.513593 13.9969 0.937304 13.8678 1.33089C13.7387 1.72447 13.315 1.93889 12.9214 1.8098C12.8263 1.7786 12.7304 1.74962 12.6337 1.72294C12.1072 1.57755 11.5592 1.5 11 1.5Z" fill-rule="EVENODD"></path>
  <path d="M8.41413 19.0794C8.78449 18.8939 9.23509 19.0438 9.42059 19.4141C9.76683 20.1054 10.3728 20.5 11 20.5C11.6272 20.5 12.2332 20.1054 12.5794 19.4141C12.7649 19.0438 13.2155 18.8939 13.5859 19.0794C13.9562 19.2649 14.1061 19.7155 13.9206 20.0859C13.3686 21.188 12.2957 22 11 22C9.70427 22 8.63141 21.188 8.07941 20.0859C7.89391 19.7155 8.04377 19.2649 8.41413 19.0794Z" fill-rule="EVENODD"></path>
 </g>
</svg>