<svg viewBox="0 0 16 16" width="16" height="16" fill="currentColor" xmlns="http://www.w3.org/2000/svg">
 <g transform="translate(1, 1)">
  <path d="M13 2C13 3.10457 12.1046 4 11 4C9.89543 4 9 3.10457 9 2C9 0.89543 9.89543 0 11 0C12.1046 0 13 0.89543 13 2Z" fill-rule="NONZERO"></path>
  <path d="M13.25 9.5C12.7883 9.5 12 9.11364 12 7.78L12 5.7418C12 5.53433 11.9141 5.33613 11.7626 5.19433C11.6112 5.05253 11.4078 4.97979 11.2007 4.99342C11.1345 4.99778 11.0676 5 11 5C9.34315 5 8 3.65685 8 2C8 1.6551 8.0579 1.3253 8.16391 1.01883C8.23867 0.802672 8.21072 0.564215 8.08799 0.371212C7.96526 0.178209 7.76116 0.0517587 7.5337 0.0277905C7.35897 0.00937796 7.18097 0 7 0C3.907 0 2 2.66524 2 5.405L2 7.78C2 9.11364 1.2117 9.5 0.75 9.5C0.335786 9.5 0 9.83579 0 10.25C0 10.6642 0.335786 11 0.75 11L13.25 11C13.6642 11 14 10.6642 14 10.25C14 9.83579 13.6642 9.5 13.25 9.5Z" fill-rule="EVENODD"></path>
  <path d="M4.87161 11.6024C5.22925 11.3935 5.68857 11.514 5.89755 11.8716C6.11663 12.2465 6.52706 12.5 7 12.5C7.47294 12.5 7.88337 12.2465 8.10245 11.8716C8.31142 11.514 8.77075 11.3935 9.12839 11.6024C9.48602 11.8114 9.60653 12.2708 9.39755 12.6284C8.918 13.4491 8.02264 14 7 14C5.97736 14 5.082 13.4491 4.60245 12.6284C4.39347 12.2708 4.51398 11.8114 4.87161 11.6024Z" fill-rule="EVENODD"></path>
 </g>
</svg>