<svg viewBox="0 0 24 24" width="24" height="24" fill="currentColor" xmlns="http://www.w3.org/2000/svg">
 <g transform="translate(1, 1)">
  <path d="M11 1.5C9.59972 1.5 8.26553 1.98693 7.16978 2.80932C6.83849 3.05795 6.36837 2.99095 6.11973 2.65967C5.87109 2.32838 5.93809 1.85826 6.26938 1.60962C7.60273 0.608903 9.24839 0 11 0C15.2976 0 19 3.66511 19 7.98333L19 13.15C19 13.3228 19.0181 13.4913 19.0523 13.6536C19.1378 14.0589 18.8785 14.4567 18.4732 14.5422C18.0679 14.6277 17.6701 14.3684 17.5846 13.9631C17.5291 13.6999 17.5 13.4277 17.5 13.15L17.5 7.98333C17.5 4.49988 14.4756 1.5 11 1.5ZM4.97463 3.97843C5.33834 4.17664 5.4725 4.63217 5.27429 4.99588C4.78041 5.90212 4.5 6.92145 4.5 7.98333L4.5 13.15C4.5 14.0225 4.21088 14.8427 3.718 15.5L16 15.5C16.4142 15.5 16.75 15.8358 16.75 16.25C16.75 16.6642 16.4142 17 16 17L0.75 17C0.335786 17 0 16.6642 0 16.25C0 15.8358 0.335786 15.5 0.75 15.5C1.98113 15.5 3 14.4544 3 13.15L3 7.98333C3 6.65456 3.35123 5.38996 3.95718 4.27808C4.15539 3.91438 4.61092 3.78021 4.97463 3.97843Z" fill-rule="EVENODD"></path>
  <path d="M8.41413 19.0794C8.78449 18.8939 9.23509 19.0438 9.42059 19.4141C9.76683 20.1054 10.3728 20.5 11 20.5C11.6272 20.5 12.2332 20.1054 12.5794 19.4141C12.7649 19.0438 13.2155 18.8939 13.5859 19.0794C13.9562 19.2649 14.1061 19.7155 13.9206 20.0859C13.3686 21.188 12.2957 22 11 22C9.70427 22 8.63141 21.188 8.07941 20.0859C7.89391 19.7155 8.04377 19.2649 8.41413 19.0794Z" fill-rule="EVENODD"></path>
  <path d="M0.21967 0.21967C0.512563 -0.0732233 0.987437 -0.0732233 1.28033 0.21967L21.7803 20.7197C22.0732 21.0126 22.0732 21.4874 21.7803 21.7803C21.4874 22.0732 21.0126 22.0732 20.7197 21.7803L0.21967 1.28033C-0.0732233 0.987437 -0.0732233 0.512563 0.21967 0.21967Z" fill-rule="EVENODD"></path>
 </g>
</svg>