<svg viewBox="0 0 16 16" width="16" height="16" fill="currentColor" xmlns="http://www.w3.org/2000/svg">
 <g transform="translate(1, 1)">
  <path d="M7 1.5C4.93769 1.5 3.5 3.27578 3.5 5.405L3.5 7.78C3.5 8.45732 3.3547 9.032 3.11282 9.5L10.8872 9.5C10.6453 9.032 10.5 8.45732 10.5 7.78L10.5 5.405C10.5 3.27578 9.06231 1.5 7 1.5ZM13.25 9.5C12.7883 9.5 12 9.11364 12 7.78L12 5.405C12 2.66524 10.093 0 7 0C3.907 0 2 2.66524 2 5.405L2 7.78C2 9.11364 1.2117 9.5 0.75 9.5C0.335786 9.5 0 9.83579 0 10.25C0 10.6642 0.335786 11 0.75 11L13.25 11C13.6642 11 14 10.6642 14 10.25C14 9.83579 13.6642 9.5 13.25 9.5Z" fill-rule="EVENODD"></path>
  <path d="M4.87161 11.6024C5.22925 11.3935 5.68857 11.514 5.89755 11.8716C6.11663 12.2465 6.52706 12.5 7 12.5C7.47294 12.5 7.88337 12.2465 8.10245 11.8716C8.31142 11.514 8.77075 11.3935 9.12839 11.6024C9.48602 11.8114 9.60653 12.2708 9.39755 12.6284C8.918 13.4491 8.02264 14 7 14C5.97736 14 5.082 13.4491 4.60245 12.6284C4.39347 12.2708 4.51398 11.8114 4.87161 11.6024Z" fill-rule="EVENODD"></path>
 </g>
</svg>