<svg viewBox="0 0 16 16" width="16" height="16" fill="currentColor" xmlns="http://www.w3.org/2000/svg">
 <g transform="translate(1, 1)">
  <path d="M7 1.5C6.45426 1.5 5.96724 1.61948 5.54294 1.82557C5.17036 2.00655 4.72161 1.85121 4.54063 1.47863C4.35966 1.10604 4.51499 0.65729 4.88757 0.476315C5.51802 0.17009 6.22934 0 7 0C10.093 0 12 2.66524 12 5.405L12 7.18568C12 7.5999 11.6642 7.93568 11.25 7.93568C10.8358 7.93568 10.5 7.5999 10.5 7.18568L10.5 5.405C10.5 3.27578 9.06231 1.5 7 1.5ZM3.49198 2.62469C3.87058 2.79271 4.0413 3.23584 3.87328 3.61444C3.63175 4.15871 3.5 4.77168 3.5 5.405L3.5 7.78C3.5 8.45732 3.3547 9.032 3.11282 9.5L10.1275 9.5C10.5417 9.5 10.8775 9.83579 10.8775 10.25C10.8775 10.6642 10.5417 11 10.1275 11L0.75 11C0.335786 11 0 10.6642 0 10.25C0 9.83579 0.335786 9.5 0.75 9.5C1.2117 9.5 2 9.11364 2 7.78L2 5.405C2 4.56564 2.17424 3.74507 2.50223 3.006C2.67024 2.62739 3.11337 2.45668 3.49198 2.62469Z" fill-rule="EVENODD"></path>
  <path d="M4.87161 11.6024C5.22925 11.3935 5.68857 11.514 5.89755 11.8716C6.11663 12.2465 6.52706 12.5 7 12.5C7.47294 12.5 7.88337 12.2465 8.10245 11.8716C8.31142 11.514 8.77075 11.3935 9.12839 11.6024C9.48602 11.8114 9.60653 12.2708 9.39755 12.6284C8.918 13.4491 8.02264 14 7 14C5.97736 14 5.082 13.4491 4.60245 12.6284C4.39347 12.2708 4.51398 11.8114 4.87161 11.6024Z" fill-rule="EVENODD"></path>
  <path d="M0.21967 0.21967C0.512563 -0.0732233 0.987437 -0.0732233 1.28033 0.21967L13.7803 12.7197C14.0732 13.0126 14.0732 13.4874 13.7803 13.7803C13.4874 14.0732 13.0126 14.0732 12.7197 13.7803L0.21967 1.28033C-0.0732233 0.987437 -0.0732233 0.512563 0.21967 0.21967Z" fill-rule="EVENODD"></path>
 </g>
</svg>