<svg viewBox="0 0 24 24" width="24" height="24" fill="currentColor" xmlns="http://www.w3.org/2000/svg">
 <g transform="translate(4, 2)">
  <path d="M2.75 0C1.23122 0 0 1.23122 0 2.75L0 19.126C0 19.8385 0.723963 20.3224 1.38235 20.05L7.90441 17.3512C7.96562 17.3259 8.03438 17.3259 8.09559 17.3512L14.6176 20.05C15.276 20.3225 16 19.8385 16 19.126L16 2.75C16 1.23122 14.7688 0 13.25 0L2.75 0ZM7.25 6C7.25 5.58579 7.58579 5.25 8 5.25C8.41421 5.25 8.75 5.58579 8.75 6L8.75 8.25L11 8.25C11.4142 8.25 11.75 8.58579 11.75 9C11.75 9.41421 11.4142 9.75 11 9.75L8.75 9.75L8.75 12C8.75 12.4142 8.41421 12.75 8 12.75C7.58579 12.75 7.25 12.4142 7.25 12L7.25 9.75L5 9.75C4.58579 9.75 4.25 9.41421 4.25 9C4.25 8.58579 4.58579 8.25 5 8.25L7.25 8.25L7.25 6Z" fill-rule="EVENODD"></path>
 </g>
</svg>