<svg viewBox="0 0 24 24" width="24" height="24" fill="currentColor" xmlns="http://www.w3.org/2000/svg">
 <g transform="translate(4, 2)">
  <path d="M4.75 8C4.33579 8 4 8.33579 4 8.75C4 9.16421 4.33579 9.5 4.75 9.5L10.75 9.5C11.1642 9.5 11.5 9.16421 11.5 8.75C11.5 8.33579 11.1642 8 10.75 8L4.75 8Z" fill-rule="NONZERO"></path>
  <path d="M2.75 0C1.23122 0 0 1.23122 0 2.75L0 19.126C0 19.8385 0.723965 20.3224 1.38235 20.05L7.90441 17.3512C7.96562 17.3259 8.03438 17.3259 8.09559 17.3512L14.6176 20.05C15.276 20.3224 16 19.8385 16 19.126L16 2.75C16 1.23122 14.7688 0 13.25 0L2.75 0ZM1.5 2.75C1.5 2.05964 2.05964 1.5 2.75 1.5L13.25 1.5C13.9404 1.5 14.5 2.05964 14.5 2.75L14.5 18.378L8.66912 15.9652C8.24065 15.7879 7.75935 15.7879 7.33088 15.9652L1.5 18.378L1.5 2.75Z" fill-rule="EVENODD"></path>
 </g>
</svg>