<svg viewBox="0 0 24 24" width="24" height="24" fill="currentColor" xmlns="http://www.w3.org/2000/svg">
 <g transform="translate(4, 2)">
  <path d="M2.75 0C1.23122 0 0 1.23122 0 2.75L0 19.126C0 19.8385 0.723963 20.3224 1.38235 20.05L7.90441 17.3512C7.96562 17.3259 8.03438 17.3259 8.09559 17.3512L14.6176 20.05C15.276 20.3225 16 19.8385 16 19.126L16 2.75C16 1.23122 14.7688 0 13.25 0L2.75 0ZM4.25 8.75C4.25 8.33579 4.58579 8 5 8L11 8C11.4142 8 11.75 8.33579 11.75 8.75C11.75 9.16421 11.4142 9.5 11 9.5L5 9.5C4.58579 9.5 4.25 9.16421 4.25 8.75Z" fill-rule="EVENODD"></path>
 </g>
</svg>