<svg viewBox="0 0 24 24" width="24" height="24" fill="black" xmlns="http://www.w3.org/2000/svg">
 <g transform="translate(4, 2)">
  <path d="M0 2.75C0 1.23122 1.23122 0 2.75 0L13.25 0C14.7688 0 16 1.23122 16 2.75L16 19.126C16 19.8385 15.276 20.3225 14.6176 20.05L8.09559 17.3512C8.03438 17.3259 7.96562 17.3259 7.90441 17.3512L1.38235 20.05C0.723963 20.3224 0 19.8385 0 19.126L0 2.75ZM8 5.25C7.58579 5.25 7.25 5.58579 7.25 6L7.25 8.25L5 8.25C4.58579 8.25 4.25 8.58579 4.25 9C4.25 9.41421 4.58579 9.75 5 9.75L7.25 9.75L7.25 12C7.25 12.4142 7.58579 12.75 8 12.75C8.41421 12.75 8.75 12.4142 8.75 12L8.75 9.75L11 9.75C11.4142 9.75 11.75 9.41421 11.75 9C11.75 8.58579 11.4142 8.25 11 8.25L8.75 8.25L8.75 6C8.75 5.58579 8.41421 5.25 8 5.25Z" fill-rule="EVENODD"></path>
 </g>
</svg>