<svg viewBox="0 0 16 16" width="16" height="16" fill="black" xmlns="http://www.w3.org/2000/svg">
 <g transform="translate(2, 1.0000001192092896)">
  <path d="M0 2.25C0 1.00736 1.00736 0 2.25 0L9.75 0C10.9926 0 12 1.00736 12 2.25L12 13.0795C12 13.838 11.1887 14.3203 10.5224 13.9581L6.11941 11.5644C6.04495 11.5239 5.95505 11.5239 5.88059 11.5644L1.47763 13.9581C0.81129 14.3203 0 13.838 0 13.0795L0 2.25ZM4 5.25C3.58579 5.25 3.25 5.58579 3.25 6C3.25 6.41421 3.58579 6.75 4 6.75L8 6.75C8.41421 6.75 8.75 6.41421 8.75 6C8.75 5.58579 8.41421 5.25 8 5.25L4 5.25Z" fill-rule="EVENODD"></path>
 </g>
</svg>