<svg viewBox="0 0 16 16" width="16" height="16" fill="black" xmlns="http://www.w3.org/2000/svg">
 <g transform="translate(1, 0)">
  <path d="M1.78814e-05 12.2499C1.11461e-05 11.0072 1.00745 10 2.25003 10L3.24998 10C3.66419 10 3.99998 10.3358 3.99998 10.75C3.99998 11.1642 3.66419 11.5 3.24998 11.5L2.25003 11.5C1.83573 11.5 1.50002 11.8358 1.50002 12.2499L1.50002 12.75C1.50002 13.1642 1.16423 13.5 0.750019 13.5C0.335806 13.5 1.93119e-05 13.1642 1.93119e-05 12.75L1.78814e-05 12.2499Z" fill-rule="EVENODD"></path>
  <path d="M0 2.25C0 1.00736 1.00736 0 2.25 0L12.75 0C13.4404 0 14 0.559644 14 1.25L14 5.25C14 5.66421 13.6642 6 13.25 6C12.8358 6 12.5 5.66421 12.5 5.25L12.5 1.5L2.25 1.5C1.83579 1.5 1.5 1.83579 1.5 2.25L1.50002 12.75C1.50002 13.1642 1.83579 13.5 2.25 13.5L4.25 13.5C4.66421 13.5 5 13.8358 5 14.25C5 14.6642 4.66421 15 4.25 15L2.25 15C1.00736 15 1.93119e-05 13.9926 1.93119e-05 12.75L0 2.25Z" fill-rule="EVENODD"></path>
  <path d="M10 7.45C8.03939 7.45 6.45 9.03939 6.45 11C6.45 12.9606 8.03939 14.55 10 14.55C11.9606 14.55 13.55 12.9606 13.55 11C13.55 9.03939 11.9606 7.45 10 7.45ZM5.05 11C5.05 8.26619 7.26619 6.05 10 6.05C12.7338 6.05 14.95 8.26619 14.95 11C14.95 13.7338 12.7338 15.95 10 15.95C7.26619 15.95 5.05 13.7338 5.05 11Z" fill-rule="EVENODD"></path>
  <path d="M7.82574 10.8257C8.06005 10.5914 8.43995 10.5914 8.67426 10.8257L10 12.1515L11.3257 10.8257C11.5601 10.5914 11.9399 10.5914 12.1743 10.8257C12.4086 11.0601 12.4086 11.4399 12.1743 11.6743L10.4243 13.4243C10.3117 13.5368 10.1591 13.6 10 13.6C9.84087 13.6 9.68826 13.5368 9.57574 13.4243L7.82574 11.6743C7.59142 11.4399 7.59142 11.0601 7.82574 10.8257Z" fill-rule="EVENODD"></path>
  <path d="M10 8.4C10.3314 8.4 10.6 8.66863 10.6 9L10.6 13C10.6 13.3314 10.3314 13.6 10 13.6C9.66863 13.6 9.4 13.3314 9.4 13L9.4 9C9.4 8.66863 9.66863 8.4 10 8.4Z" fill-rule="EVENODD"></path>
 </g>
</svg>