<svg viewBox="0 0 16 16" width="16" height="16" fill="black" xmlns="http://www.w3.org/2000/svg">
 <g transform="translate(2.25, 1.25)">
  <path d="M1.75 0C0.783502 0 0 0.783501 0 1.75L0 12.3455C0 13.0889 0.782312 13.5724 1.44721 13.2399L5.6382 11.1444C5.70858 11.1092 5.79142 11.1092 5.8618 11.1444L10.0528 13.2399C10.7177 13.5724 11.5 13.0889 11.5 12.3455L11.5 1.75C11.5 0.783502 10.7165 0 9.75 0L1.75 0ZM3 5.75C3 5.33579 3.33579 5 3.75 5L7.75 5C8.16421 5 8.5 5.33579 8.5 5.75C8.5 6.16421 8.16421 6.5 7.75 6.5L3.75 6.5C3.33579 6.5 3 6.16421 3 5.75Z" fill-rule="EVENODD"></path>
 </g>
</svg>