<svg viewBox="0 0 16 16" width="16" height="16" fill="currentColor" xmlns="http://www.w3.org/2000/svg">
 <g transform="translate(2, 1)">
  <path d="M2.25 0C1.00736 0 0 1.00736 0 2.25L0 13.0795C0 13.838 0.81129 14.3203 1.47763 13.9581L5.88059 11.5644C5.95505 11.5239 6.04495 11.5239 6.11941 11.5644L10.5224 13.9581C11.1887 14.3203 12 13.838 12 13.0795L12 2.25C12 1.00736 10.9926 0 9.75 0L2.25 0ZM5 3.75C5 3.33579 5.33579 3 5.75 3C6.16421 3 6.5 3.33579 6.5 3.75L6.5 5L7.75 5C8.16421 5 8.5 5.33579 8.5 5.75C8.5 6.16421 8.16421 6.5 7.75 6.5L6.5 6.5L6.5 7.75C6.5 8.16421 6.16421 8.5 5.75 8.5C5.33579 8.5 5 8.16421 5 7.75L5 6.5L3.75 6.5C3.33579 6.5 3 6.16421 3 5.75C3 5.33579 3.33579 5 3.75 5L5 5L5 3.75Z" fill-rule="EVENODD"></path>
 </g>
</svg>