<svg viewBox="0 0 16 16" width="16" height="16" fill="currentColor" xmlns="http://www.w3.org/2000/svg">
 <g transform="translate(2, 1)">
  <path d="M2.25 0C1.00736 0 0 1.00736 0 2.25L0 13.0795C0 13.838 0.81129 14.3203 1.47763 13.9581L5.88059 11.5644C5.95505 11.5239 6.04495 11.5239 6.11941 11.5644L10.5224 13.9581C11.1887 14.3203 12 13.838 12 13.0795L12 2.25C12 1.00736 10.9926 0 9.75 0L2.25 0ZM5.25 4C5.25 3.58579 5.58579 3.25 6 3.25C6.41421 3.25 6.75 3.58579 6.75 4L6.75 5.25L8 5.25C8.41421 5.25 8.75 5.58579 8.75 6C8.75 6.41421 8.41421 6.75 8 6.75L6.75 6.75L6.75 8C6.75 8.41421 6.41421 8.75 6 8.75C5.58579 8.75 5.25 8.41421 5.25 8L5.25 6.75L4 6.75C3.58579 6.75 3.25 6.41421 3.25 6C3.25 5.58579 3.58579 5.25 4 5.25L5.25 5.25L5.25 4Z" fill-rule="EVENODD"></path>
 </g>
</svg>