<svg viewBox="0 0 16 16" width="16" height="16" fill="black" xmlns="http://www.w3.org/2000/svg">
 <g transform="translate(2, 1)">
  <path d="M0 2.25C0 1.00736 1.00736 0 2.25 0L9.75 0C10.9926 0 12 1.00736 12 2.25L12 13.0795C12 13.838 11.1887 14.3203 10.5224 13.9581L6.11941 11.5644C6.04495 11.5239 5.95505 11.5239 5.88059 11.5644L1.47763 13.9581C0.81129 14.3203 0 13.838 0 13.0795L0 2.25ZM2.25 1.5C1.83579 1.5 1.5 1.83579 1.5 2.25L1.5 12.2386L5.16415 10.2466C5.68536 9.96322 6.31464 9.96322 6.83585 10.2466L10.5 12.2386L10.5 2.25C10.5 1.83579 10.1642 1.5 9.75 1.5L2.25 1.5Z" fill-rule="EVENODD"></path>
  <path d="M3.25 5.75C3.25 5.33579 3.58579 5 4 5L8 5C8.41421 5 8.75 5.33579 8.75 5.75C8.75 6.16421 8.41421 6.5 8 6.5L4 6.5C3.58579 6.5 3.25 6.16421 3.25 5.75Z" fill-rule="EVENODD"></path>
 </g>
</svg>