<svg viewBox="0 0 24 24" width="24" height="24" fill="black" xmlns="http://www.w3.org/2000/svg">
 <g transform="translate(4, 2)">
  <path d="M0 2.75C0 1.23122 1.23122 0 2.75 0L13.25 0C14.7688 0 16 1.23122 16 2.75L16 19.126C16 19.8385 15.276 20.3224 14.6176 20.05L8.09559 17.3512C8.03438 17.3259 7.96562 17.3259 7.90441 17.3512L1.38235 20.05C0.723965 20.3224 0 19.8385 0 19.126L0 2.75ZM2.75 1.5C2.05964 1.5 1.5 2.05964 1.5 2.75L1.5 18.378L7.33088 15.9652C7.75935 15.7879 8.24065 15.7879 8.66912 15.9652L14.5 18.378L14.5 2.75C14.5 2.05964 13.9404 1.5 13.25 1.5L2.75 1.5Z" fill-rule="EVENODD"></path>
  <path d="M8 5.25C8.41421 5.25 8.75 5.58579 8.75 6L8.75 12C8.75 12.4142 8.41421 12.75 8 12.75C7.58579 12.75 7.25 12.4142 7.25 12L7.25 6C7.25 5.58579 7.58579 5.25 8 5.25Z" fill-rule="EVENODD"></path>
  <path d="M4.25 9C4.25 8.58579 4.58579 8.25 5 8.25L11 8.25C11.4142 8.25 11.75 8.58579 11.75 9C11.75 9.41421 11.4142 9.75 11 9.75L5 9.75C4.58579 9.75 4.25 9.41421 4.25 9Z" fill-rule="EVENODD"></path>
 </g>
</svg>