<svg viewBox="0 0 16 16" width="16" height="16" fill="black" xmlns="http://www.w3.org/2000/svg">
 <g transform="translate(2, 1)">
  <path d="M0 2.25C0 1.00736 1.00736 0 2.25 0L9.75 0C10.9926 0 12 1.00736 12 2.25L12 13.0795C12 13.838 11.1887 14.3203 10.5224 13.9581L6.11941 11.5644C6.04495 11.5239 5.95505 11.5239 5.88059 11.5644L1.47763 13.9581C0.81129 14.3203 0 13.838 0 13.0795L0 2.25ZM2.25 1.5C1.83579 1.5 1.5 1.83579 1.5 2.25L1.5 12.2386L5.16415 10.2466C5.68536 9.96322 6.31464 9.96322 6.83585 10.2466L10.5 12.2386L10.5 2.25C10.5 1.83579 10.1642 1.5 9.75 1.5L2.25 1.5Z" fill-rule="EVENODD"></path>
  <path d="M6 3.25C6.41421 3.25 6.75 3.58579 6.75 4L6.75 8C6.75 8.41421 6.41421 8.75 6 8.75C5.58579 8.75 5.25 8.41421 5.25 8L5.25 4C5.25 3.58579 5.58579 3.25 6 3.25Z" fill-rule="EVENODD"></path>
  <path d="M3.25 6C3.25 5.58579 3.58579 5.25 4 5.25L8 5.25C8.41421 5.25 8.75 5.58579 8.75 6C8.75 6.41421 8.41421 6.75 8 6.75L4 6.75C3.58579 6.75 3.25 6.41421 3.25 6Z" fill-rule="EVENODD"></path>
 </g>
</svg>