<svg viewBox="0 0 24 24" width="24" height="24" fill="currentColor" xmlns="http://www.w3.org/2000/svg">
 <g transform="translate(3, 1)">
  <path d="M0 18.2504C0 16.7319 1.231 15.5 2.75 15.5L17.25 15.5C17.6642 15.5 18 15.8358 18 16.25C18 16.6642 17.6642 17 17.25 17L2.75 17C2.05986 17 1.5 17.5599 1.5 18.2504L1.5 18.75C1.5 19.1642 1.16421 19.5 0.75 19.5C0.335786 19.5 0 19.1642 0 18.75L0 18.2504Z" fill-rule="EVENODD"></path>
  <path d="M0 2.75C0 1.23122 1.23122 0 2.75 0L16.25 0C17.2165 0 18 0.783502 18 1.75L18 20.25C18 21.2165 17.2165 22 16.25 22L2.75 22C1.23122 22 0 20.7688 0 19.25L0 2.75ZM2.75 1.5C2.05964 1.5 1.5 2.05964 1.5 2.75L1.5 19.25C1.5 19.9404 2.05964 20.5 2.75 20.5L16.25 20.5C16.3881 20.5 16.5 20.3881 16.5 20.25L16.5 1.75C16.5 1.61193 16.3881 1.5 16.25 1.5L2.75 1.5Z" fill-rule="EVENODD"></path>
 </g>
</svg>