<svg viewBox="0 0 24 24" width="24" height="24" fill="black" xmlns="http://www.w3.org/2000/svg">
 <g transform="translate(4.25, 2.25)">
  <path d="M4.75 7.875C4.26675 7.875 3.875 8.26675 3.875 8.75C3.875 9.23325 4.26675 9.625 4.75 9.625L10.75 9.625C11.2332 9.625 11.625 9.23325 11.625 8.75C11.625 8.26675 11.2332 7.875 10.75 7.875L4.75 7.875Z" fill-rule="NONZERO"></path>
  <path d="M2.75 0C1.23122 0 0 1.23122 0 2.75L0 18.441C0 19.3702 0.977893 19.9746 1.80902 19.559L7.19098 16.868C7.54289 16.6921 7.95711 16.6921 8.30902 16.868L13.691 19.559C14.5221 19.9746 15.5 19.3702 15.5 18.441L15.5 2.75C15.5 1.23122 14.2688 0 12.75 0L2.75 0ZM1.5 2.75C1.5 2.05964 2.05964 1.5 2.75 1.5L12.75 1.5C13.4404 1.5 14 2.05964 14 2.75L14 18.0365L8.97984 15.5264C8.20564 15.1393 7.29436 15.1393 6.52016 15.5264L1.5 18.0365L1.5 2.75Z" fill-rule="EVENODD"></path>
 </g>
</svg>