<svg viewBox="0 0 16 16" width="16" height="16" fill="currentColor" xmlns="http://www.w3.org/2000/svg">
 <g transform="translate(0, 2)">
  <path d="M0 1.25C0 0.559643 0.559644 0 1.25 0L5 0C6.15444 0 7.10568 0.353661 7.77225 1.00038C8.43734 1.64566 8.75 2.51649 8.75 3.41667L8.75 12.25C8.75 12.6642 8.41421 13 8 13C7.58579 13 7.25 12.6642 7.25 12.25C7.25 11.9583 7.12555 11.6785 6.80871 11.4479C6.4747 11.2049 5.89557 11 5 11L1.25 11C0.559644 11 0 10.4404 0 9.75L0 1.25ZM7.25 9.96659L7.25 3.41667C7.25 2.8644 7.06266 2.40189 6.72774 2.07695C6.39432 1.75345 5.84556 1.5 5 1.5L1.5 1.5L1.5 9.5L5 9.5C5.87793 9.5 6.63988 9.65826 7.25 9.96659Z" fill-rule="EVENODD"></path>
  <path d="M8.22775 1.00038C8.89432 0.353661 9.84556 0 11 0L14.75 0C15.4404 0 16 0.559643 16 1.25L16 9.75C16 10.4404 15.4404 11 14.75 11L11 11C10.1044 11 9.5253 11.2049 9.19129 11.4479C8.87445 11.6785 8.75 11.9583 8.75 12.25C8.75 12.6642 8.41421 13 8 13C7.58579 13 7.25 12.6642 7.25 12.25L7.25 3.41667C7.25 2.51649 7.56266 1.64566 8.22775 1.00038ZM8.75 9.96659C9.36012 9.65826 10.1221 9.5 11 9.5L14.5 9.5L14.5 1.5L11 1.5C10.1544 1.5 9.60568 1.75345 9.27225 2.07695C8.93734 2.40189 8.75 2.8644 8.75 3.41667L8.75 9.96659Z" fill-rule="EVENODD"></path>
 </g>
</svg>