<svg viewBox="0 0 16 16" width="16" height="16" fill="black" xmlns="http://www.w3.org/2000/svg">
 <g transform="translate(1, 0)">
  <path d="M1.78814e-05 13.2499C1.11461e-05 12.0072 1.00745 11 2.25003 11L13.25 11C13.6642 11 14 11.3358 14 11.75C14 12.1642 13.6642 12.5 13.25 12.5L2.25003 12.5C1.83573 12.5 1.50002 12.8358 1.50002 13.2499L1.50002 13.75C1.50002 14.1642 1.16423 14.5 0.750019 14.5C0.335806 14.5 1.93119e-05 14.1642 1.93119e-05 13.75L1.78814e-05 13.2499Z" fill-rule="EVENODD"></path>
  <path d="M0 2.25C0 1.00736 1.00736 0 2.25 0L12.75 0C13.4404 0 14 0.559644 14 1.25L14 14.75C14 15.4404 13.4404 16 12.75 16L2.25 16C1.00736 16 1.93119e-05 14.9926 1.93119e-05 13.75L0 2.25ZM2.25 1.5C1.83579 1.5 1.5 1.83579 1.5 2.25L1.50002 13.75C1.50002 14.1642 1.83579 14.5 2.25 14.5L12.5 14.5L12.5 1.5L2.25 1.5Z" fill-rule="EVENODD"></path>
 </g>
</svg>