<svg viewBox="0 0 16 16" width="16" height="16" fill="currentColor" xmlns="http://www.w3.org/2000/svg">
 <g transform="translate(2, 1)">
  <path d="M1.23503 5.20474C1.53617 4.92033 2.01085 4.93389 2.29526 5.23503L6 9.1577L9.70474 5.23503C9.98915 4.93389 10.4638 4.92033 10.765 5.20474C11.0661 5.48915 11.0797 5.96383 10.7953 6.26497L6.54526 10.765C6.40358 10.915 6.20635 11 6 11C5.79365 11 5.59642 10.915 5.45474 10.765L1.20474 6.26497C0.920331 5.96383 0.933894 5.48915 1.23503 5.20474Z" fill-rule="EVENODD"></path>
  <path d="M6 0C6.41421 0 6.75 0.335786 6.75 0.75L6.75 10.25C6.75 10.6642 6.41421 11 6 11C5.58579 11 5.25 10.6642 5.25 10.25L5.25 0.75C5.25 0.335786 5.58579 0 6 0Z" fill-rule="EVENODD"></path>
  <path d="M0 13.25C0 12.8358 0.335786 12.5 0.75 12.5L11.25 12.5C11.6642 12.5 12 12.8358 12 13.25C12 13.6642 11.6642 14 11.25 14L0.75 14C0.335786 14 0 13.6642 0 13.25Z" fill-rule="EVENODD"></path>
 </g>
</svg>