<svg viewBox="0 0 16 16" width="16" height="16" fill="currentColor" xmlns="http://www.w3.org/2000/svg">
 <g transform="translate(1, 0.43316650390625)">
  <path d="M7.34026 1.58163C7.12648 1.47279 6.87352 1.47279 6.65974 1.58163L1.5 4.2084L1.5 10.772C1.5 10.866 1.55277 10.9521 1.63658 10.9947L6.65974 13.552C6.87352 13.6608 7.12648 13.6608 7.34026 13.552L12.3634 10.9947C12.4472 10.9521 12.5 10.866 12.5 10.772L12.5 4.2084L7.34026 1.58163ZM5.97921 0.244883C6.62057 -0.0816277 7.37943 -0.0816276 8.02079 0.244883L13.3171 2.94119C13.7361 3.15451 14 3.58494 14 4.05514L14 10.772C14 11.4302 13.6306 12.0328 13.0439 12.3315L8.02079 14.8887C7.37943 15.2152 6.62057 15.2152 5.97921 14.8887L0.956055 12.3315C0.369415 12.0328 0 11.4302 0 10.772L0 4.05514C0 3.58494 0.263868 3.15451 0.682896 2.94119L5.97921 0.244883Z" fill-rule="EVENODD"></path>
  <path d="M0.329186 3.73128C0.514428 3.3608 0.964933 3.21063 1.33542 3.39587L7.00001 6.22816L12.6646 3.39587C13.0351 3.21063 13.4856 3.3608 13.6708 3.73128C13.8561 4.10176 13.7059 4.55227 13.3354 4.73751L7.33542 7.73751C7.12427 7.84308 6.87574 7.84308 6.6646 7.73751L0.664596 4.73751C0.294113 4.55227 0.143944 4.10176 0.329186 3.73128Z" fill-rule="EVENODD"></path>
  <path d="M7.00001 6.31687C7.41423 6.31687 7.75001 6.65265 7.75001 7.06687L7.75001 14.0669C7.75001 14.4811 7.41423 14.8169 7.00001 14.8169C6.5858 14.8169 6.25001 14.4811 6.25001 14.0669L6.25001 7.06687C6.25001 6.65265 6.5858 6.31687 7.00001 6.31687Z" fill-rule="EVENODD"></path>
 </g>
</svg>