<svg viewBox="0 0 16 16" width="16" height="16" fill="black" xmlns="http://www.w3.org/2000/svg">
 <g transform="translate(0.25, 0.75)">
  <path d="M4.94357 0.610194C5.33427 0.219493 5.86417 0 6.41671 0L9.08337 0C9.63591 0 10.1658 0.219493 10.5565 0.610194C10.9472 1.00089 11.1667 1.5308 11.1667 2.08333L11.1667 2.5L13.35 2.5C14.5516 2.5 15.5 3.48974 15.5 4.67857L15.5 11.8214C15.5 13.0103 14.5516 14 13.35 14L2.15 14C0.948376 14 0 13.0103 0 11.8214L0 4.67857C0 3.48974 0.948376 2.5 2.15 2.5L4.33337 2.5L4.33337 2.08333C4.33337 1.5308 4.55287 1.00089 4.94357 0.610194ZM9.66671 2.08333L9.66671 2.5L5.83337 2.5L5.83337 2.08333C5.83337 1.92862 5.89483 1.78025 6.00423 1.67085C6.11362 1.56146 6.262 1.5 6.41671 1.5L9.08337 1.5C9.23808 1.5 9.38646 1.56146 9.49585 1.67085C9.60525 1.78025 9.66671 1.92862 9.66671 2.08333ZM4.5 4L11 4L11 12.5L4.5 12.5L4.5 4ZM3 4L2.15 4C1.80523 4 1.5 4.28945 1.5 4.67857L1.5 11.8214C1.5 12.2106 1.80523 12.5 2.15 12.5L3 12.5L3 4ZM12.5 12.5L13.35 12.5C13.6948 12.5 14 12.2106 14 11.8214L14 4.67857C14 4.28945 13.6948 4 13.35 4L12.5 4L12.5 12.5Z" fill-rule="EVENODD"></path>
 </g>
</svg>