<svg viewBox="0 0 16 16" width="16" height="16" fill="black" xmlns="http://www.w3.org/2000/svg">
 <g transform="translate(0.49980053305625916, 0.5833333730697632)">
  <path d="M4.0002 6.0749L4.0002 10.0238C4.0002 11.5172 5.45457 12.9167 7.5002 12.9167C9.54583 12.9167 11.0002 11.5172 11.0002 10.0238L11.0002 6.0749C10.4573 6.00282 9.40751 5.91667 7.5002 5.91667C5.59289 5.91667 4.54305 6.00282 4.0002 6.0749ZM3.27619 4.6768C3.73711 4.57608 4.87089 4.41667 7.5002 4.41667C10.1295 4.41667 11.2633 4.57608 11.7242 4.6768C12.1665 4.77345 12.5002 5.15414 12.5002 5.62796L12.5002 10.0238C12.5002 12.5542 10.149 14.4167 7.5002 14.4167C4.85141 14.4167 2.5002 12.5542 2.5002 10.0238L2.5002 5.62796C2.5002 5.15414 2.83392 4.77345 3.27619 4.6768Z" fill-rule="EVENODD"></path>
  <path d="M0.053842 5.80475C0.207677 5.42016 0.644155 5.2331 1.02874 5.38694L3.52874 6.38694C3.91333 6.54077 4.10039 6.97725 3.94656 7.36184C3.79272 7.74642 3.35624 7.93349 2.97166 7.77965L0.471656 6.77965C0.0870688 6.62582 -0.0999931 6.18934 0.053842 5.80475Z" fill-rule="EVENODD"></path>
  <path d="M15.0466 5.80475C14.8927 5.42016 14.4562 5.2331 14.0717 5.38694L11.5717 6.38694C11.1871 6.54077 11 6.97725 11.1538 7.36184C11.3077 7.74642 11.7442 7.93349 12.1287 7.77965L14.6287 6.77965C15.0133 6.62582 15.2004 6.18934 15.0466 5.80475Z" fill-rule="EVENODD"></path>
  <path d="M0.131296 13.68C0.276736 14.0678 0.709045 14.2644 1.09689 14.1189L3.76355 13.1189C4.15139 12.9735 4.3479 12.5412 4.20246 12.1533C4.05702 11.7655 3.62471 11.569 3.23687 11.7144L0.5702 12.7144C0.18236 12.8599 -0.014144 13.2922 0.131296 13.68Z" fill-rule="EVENODD"></path>
  <path d="M14.8691 13.68C14.7237 14.0678 14.2914 14.2644 13.9035 14.1189L11.2368 13.1189C10.849 12.9735 10.6525 12.5412 10.7979 12.1533C10.9434 11.7655 11.3757 11.569 11.7635 11.7144L14.4302 12.7144C14.818 12.8599 15.0145 13.2922 14.8691 13.68Z" fill-rule="EVENODD"></path>
  <path d="M14.9936 9.84916C14.9389 10.2597 14.5617 10.5482 14.1511 10.4935L11.6511 10.1601C11.2405 10.1054 10.952 9.72816 11.0068 9.31758C11.0615 8.90701 11.4387 8.61854 11.8493 8.67329L14.3493 9.00662C14.7599 9.06136 15.0484 9.43858 14.9936 9.84916Z" fill-rule="EVENODD"></path>
  <path d="M0.00677851 9.84916C0.0615225 10.2597 0.438742 10.5482 0.849322 10.4935L3.34932 10.1601C3.7599 10.1054 4.04836 9.72816 3.99362 9.31758C3.93888 8.90701 3.56166 8.61854 3.15108 8.67329L0.651077 9.00662C0.240497 9.06136 -0.0479654 9.43858 0.00677851 9.84916Z" fill-rule="EVENODD"></path>
  <path d="M10.6972 0.21967C10.4043 -0.0732233 9.92943 -0.0732233 9.63654 0.21967L8.63654 1.21967C8.34364 1.51256 8.34364 1.98744 8.63654 2.28033C8.92943 2.57322 9.4043 2.57322 9.6972 2.28033L10.6972 1.28033C10.9901 0.987437 10.9901 0.512563 10.6972 0.21967Z" fill-rule="EVENODD"></path>
  <path d="M4.3032 0.21967C4.5961 -0.0732233 5.07097 -0.0732233 5.36386 0.21967L6.36386 1.21967C6.65676 1.51256 6.65676 1.98744 6.36386 2.28033C6.07097 2.57322 5.5961 2.57322 5.3032 2.28033L4.3032 1.28033C4.01031 0.987437 4.01031 0.512563 4.3032 0.21967Z" fill-rule="EVENODD"></path>
  <path d="M7.5002 2.16667C6.03917 2.16667 5.0002 3.20932 5.0002 4.32576C5.0002 4.60129 5.05984 4.86445 5.16981 5.10763L3.80307 5.7257C3.60835 5.29512 3.5002 4.82179 3.5002 4.32576C3.5002 2.2289 5.37138 0.666667 7.5002 0.666667C9.62902 0.666667 11.5002 2.2289 11.5002 4.32576C11.5002 4.82179 11.3921 5.29512 11.1973 5.7257L9.83059 5.10763C9.94056 4.86445 10.0002 4.60129 10.0002 4.32576C10.0002 3.20932 8.96123 2.16667 7.5002 2.16667Z" fill-rule="EVENODD"></path>
 </g>
</svg>