<svg viewBox="0 0 24 24" width="24" height="24" fill="currentColor" xmlns="http://www.w3.org/2000/svg">
 <g transform="translate(0.999755859375, 1)">
  <path d="M14.7199 0.21967C15.0128 -0.0732233 15.4877 -0.0732233 15.7806 0.21967C16.0735 0.512563 16.0735 0.987437 15.7806 1.28033L14.6041 2.45679C15.465 3.30437 16.0002 4.45903 16.0002 5.75C16.0002 6.0798 15.9648 6.40204 15.8972 6.71328C16.5092 6.78413 16.9054 6.86043 17.1549 6.92148C17.6954 7.05379 18.0002 7.53113 18.0002 8.00978L18.0002 9.41779L20.9869 8.29777C21.3748 8.15233 21.8071 8.34884 21.9525 8.73668C22.098 9.12452 21.9015 9.55683 21.5136 9.70227L18.0002 11.0198L18.0002 13.3379L21.3432 13.7558C21.7542 13.8072 22.0457 14.182 21.9944 14.593C21.943 15.004 21.5682 15.2956 21.1571 15.2442L18.0002 14.8496L18.0002 15.25C18.0002 16.1814 17.8058 17.0659 17.4548 17.8694L21.2636 19.2977C21.6515 19.4432 21.848 19.8755 21.7025 20.2633C21.5571 20.6512 21.1248 20.8477 20.7369 20.7022L16.7369 19.2022C16.7212 19.1963 16.7059 19.19 16.6908 19.1832C15.4155 20.8941 13.3323 22 11.0002 22C8.66818 22 6.585 20.8941 5.30969 19.1832C5.29463 19.19 5.27925 19.1963 5.26355 19.2022L1.26355 20.7022C0.875706 20.8477 0.443396 20.6512 0.297956 20.2633C0.152516 19.8755 0.34902 19.4432 0.736861 19.2977L4.54566 17.8694C4.1947 17.0659 4.00024 16.1814 4.00024 15.25L4.00024 14.8496L0.843349 15.2442C0.432334 15.2956 0.0574916 15.004 0.0061147 14.593C-0.0452622 14.182 0.246282 13.8072 0.657297 13.7558L4.00024 13.3379L4.00024 11.0198L0.486861 9.70227C0.0990205 9.55683 -0.0974837 9.12452 0.0479564 8.73668C0.193396 8.34884 0.625706 8.15233 1.01355 8.29777L4.00024 9.41779L4.00024 8.00978C4.00024 7.53113 4.30505 7.05379 4.84563 6.92148C5.09507 6.86043 5.49126 6.78413 6.10323 6.71328C6.03573 6.40204 6.00024 6.0798 6.00024 5.75C6.00024 4.45903 6.53553 3.30437 7.39637 2.45679L6.21991 1.28033C5.92702 0.987437 5.92702 0.512563 6.21991 0.21967C6.51281 -0.0732233 6.98768 -0.0732233 7.28057 0.21967L8.62926 1.56836C9.33881 1.2049 10.1481 1 11.0002 1C11.8524 1 12.6617 1.2049 13.3712 1.56836L14.7199 0.21967ZM7.61706 6.58608C8.49237 6.53451 9.60073 6.5 11.0002 6.5C12.3998 6.5 13.5081 6.53451 14.3834 6.58608C14.4597 6.31952 14.5002 6.03943 14.5002 5.75C14.5002 3.99726 12.9767 2.5 11.0002 2.5C9.02376 2.5 7.50024 3.99726 7.50024 5.75C7.50024 6.03943 7.54083 6.31952 7.61706 6.58608ZM5.50024 10.4846L5.50024 8.31575C6.19778 8.18729 7.7726 8 11.0002 8C14.2279 8 15.8027 8.18729 16.5002 8.31575L16.5002 10.4846L16.5001 10.5019L16.5002 10.5157L16.5002 13.9855C16.5 13.9958 16.5 14.0061 16.5002 14.0163L16.5002 15.25C16.5002 18.1209 14.067 20.5 11.0002 20.5C7.93353 20.5 5.50024 18.1209 5.50024 15.25L5.50024 14.0163C5.50045 14.0061 5.50046 13.9958 5.50024 13.9855L5.50024 10.5157C5.50046 10.5053 5.50046 10.4949 5.50024 10.4846Z" fill-rule="EVENODD"></path>
 </g>
</svg>