<svg viewBox="0 0 24 24" width="24" height="24" fill="black" xmlns="http://www.w3.org/2000/svg">
 <g transform="translate(0.9999698996543884, 1)">
  <path d="M13.05 1.5C8.93551 1.5 5.60003 4.83548 5.60003 8.95C5.60003 10.1807 5.89787 11.3397 6.42474 12.3608C6.67099 12.8381 6.60872 13.449 6.19906 13.8586C6.17858 13.8791 6.15694 13.8984 6.13424 13.9164L1.21554 17.8101C0.890766 18.0672 0.419073 18.0123 0.16198 17.6875C-0.0951126 17.3627 -0.0402483 16.8911 0.284523 16.634L5.01249 12.8912C4.42798 11.7013 4.10003 10.3629 4.10003 8.95C4.10003 4.00705 8.10708 0 13.05 0C13.3792 0 13.7045 0.0178056 14.025 0.0525582C15.1244 0.171777 15.394 1.45472 14.7285 2.12024L11.75 5.09866L11.75 8.11462L13.8849 10.2495L16.9009 10.2495L19.8797 7.27068C20.5452 6.6052 21.828 6.87469 21.9474 7.97398C21.9822 8.29479 22 8.62045 22 8.95C22 13.8929 17.993 17.9 13.05 17.9C11.6902 17.9 10.3993 17.5962 9.24329 17.0522L5.566 21.7145C5.30948 22.0397 4.83788 22.0954 4.51266 21.8389C4.18743 21.5824 4.13173 21.1108 4.38825 20.7855L8.21504 15.9337C8.23325 15.9107 8.25279 15.8887 8.27358 15.8679C8.6772 15.4643 9.27723 15.3974 9.75179 15.6322C10.7452 16.1235 11.8642 16.4 13.05 16.4C17.1646 16.4 20.5 13.0645 20.5 8.95C20.5 8.89106 20.4993 8.83229 20.498 8.7737L17.892 11.3797C17.6552 11.6165 17.3341 11.7495 16.9992 11.7495L13.7865 11.7495C13.4517 11.7495 13.1306 11.6165 12.8938 11.3797L10.6198 9.10572C10.383 8.86896 10.25 8.54783 10.25 8.213L10.25 5.00028C10.25 4.66545 10.383 4.34433 10.6198 4.10756L13.2254 1.50202C13.1671 1.50068 13.1086 1.5 13.05 1.5Z" fill-rule="EVENODD"></path>
 </g>
</svg>