<svg viewBox="0 0 16 16" width="16" height="16" fill="currentColor" xmlns="http://www.w3.org/2000/svg">
 <g transform="translate(0.9999698996543884, 1)">
  <path d="M7.60256 1.54901C5.56265 1.86082 4.00003 3.62292 4.00003 5.75C4.00003 6.45265 4.16996 7.11342 4.47032 7.69555C4.67504 8.09232 4.62518 8.60443 4.27957 8.95003C4.25909 8.97051 4.23745 8.98978 4.21474 9.00775L1.21554 11.382C0.890766 11.6391 0.419073 11.5842 0.16198 11.2594C-0.0951126 10.9346 -0.0402483 10.463 0.284523 10.2059L2.98622 8.06717C2.67347 7.35758 2.50003 6.57322 2.50003 5.75C2.50003 2.57436 5.07439 0 8.25003 0C8.32338 0 8.39645 0.0013774 8.46921 0.00411046C8.9981 0.0239775 9.39335 0.367084 9.53528 0.801464C9.67225 1.22066 9.57032 1.70256 9.22926 2.04362L7.75003 3.52286L7.75003 5.11939L8.88033 6.24969L10.4769 6.24969L11.9564 4.77019C12.2974 4.42915 12.7793 4.32721 13.1985 4.46415C13.6328 4.60605 13.976 5.00125 13.9959 5.53011C13.9986 5.6031 14 5.67641 14 5.75C14 8.92564 11.4257 11.5 8.25003 11.5C7.45955 11.5 6.70481 11.3401 6.01767 11.0504L3.9164 13.7145C3.65988 14.0397 3.18828 14.0954 2.86306 13.8389C2.53783 13.5824 2.48214 13.1108 2.73865 12.7855L5.07206 9.82713C5.09027 9.80404 5.10982 9.78205 5.1306 9.76126C5.4711 9.42076 5.97412 9.36699 6.36867 9.56215C6.93493 9.84223 7.57299 10 8.25003 10C10.3774 10 12.1396 8.43701 12.4511 6.39675L11.4094 7.4385C11.2101 7.63775 10.9399 7.74969 10.6581 7.74969L8.69911 7.74969C8.41732 7.74969 8.14707 7.63775 7.94781 7.4385L6.56123 6.05191C6.36197 5.85265 6.25003 5.5824 6.25003 5.30061L6.25003 3.34164C6.25003 3.05985 6.36197 2.78959 6.56123 2.59034L7.60256 1.54901Z" fill-rule="EVENODD"></path>
 </g>
</svg>