<svg viewBox="0 0 24 24" width="24" height="24" fill="black" xmlns="http://www.w3.org/2000/svg">
 <g transform="translate(1.2499698400497437, 1.25)">
  <path d="M12.75 1.5C8.74597 1.5 5.50003 4.74594 5.50003 8.75C5.50003 9.9477 5.78987 11.0755 6.30258 12.0692C6.54624 12.5415 6.48475 13.1462 6.07909 13.5519C6.05862 13.5723 6.03697 13.5916 6.01427 13.6096L1.21554 17.4083C0.890766 17.6654 0.419073 17.6105 0.16198 17.2858C-0.0951126 16.961 -0.0402483 16.4893 0.284523 16.2322L4.88561 12.5899C4.31822 11.4299 4.00003 10.1261 4.00003 8.75C4.00003 3.91751 7.91754 0 12.75 0C13.0636 0 13.3736 0.0165247 13.6791 0.0487993C14.782 0.165315 15.0493 1.4509 14.3848 2.11545L11.5 5.00017L11.5 7.92742L13.5721 9.99951L16.4994 9.99951L19.3845 7.1144C20.049 6.44988 21.3345 6.71713 21.4511 7.81995C21.4835 8.12578 21.5 8.43608 21.5 8.75C21.5 13.5825 17.5825 17.5 12.75 17.5C11.4257 17.5 10.1683 17.2053 9.0415 16.6773L5.4629 21.2145C5.20638 21.5397 4.73478 21.5954 4.40956 21.3389C4.08433 21.0824 4.02863 20.6108 4.28515 20.2855L8.0186 15.5521C8.03681 15.529 8.05636 15.507 8.07715 15.4862C8.47682 15.0865 9.07079 15.0205 9.54035 15.2528C10.507 15.7309 11.596 16 12.75 16C16.7541 16 20 12.7541 20 8.75C20 8.707 19.9997 8.6641 19.9989 8.62129L17.4868 11.1334C17.2524 11.3678 16.9344 11.4995 16.6029 11.4995L13.4686 11.4995C13.137 11.4995 12.8191 11.3678 12.5847 11.1334L10.3661 8.91486C10.1317 8.68044 10 8.3625 10 8.03098L10 4.89662C10 4.5651 10.1317 4.24716 10.3661 4.01274L12.8778 1.5011C12.8353 1.50037 12.7927 1.5 12.75 1.5Z" fill-rule="EVENODD"></path>
 </g>
</svg>