<svg viewBox="0 0 16 16" width="16" height="16" fill="black" xmlns="http://www.w3.org/2000/svg">
 <g transform="translate(1, 0)">
  <path d="M0 3.25C0 2.00736 1.00736 1 2.25 1L11.75 1C12.9926 1 14 2.00736 14 3.25L14 12.75C14 13.9926 12.9926 15 11.75 15L2.25 15C1.00736 15 0 13.9926 0 12.75L0 3.25ZM2.25 2.5C1.83579 2.5 1.5 2.83579 1.5 3.25L1.5 12.75C1.5 13.1642 1.83579 13.5 2.25 13.5L11.75 13.5C12.1642 13.5 12.5 13.1642 12.5 12.75L12.5 3.25C12.5 2.83579 12.1642 2.5 11.75 2.5L2.25 2.5Z" fill-rule="EVENODD"></path>
  <path d="M9.75 0C10.1642 0 10.5 0.335786 10.5 0.75L10.5 3.25C10.5 3.66421 10.1642 4 9.75 4C9.33579 4 9 3.66421 9 3.25L9 0.75C9 0.335786 9.33579 0 9.75 0Z" fill-rule="EVENODD"></path>
  <path d="M4.25 0C4.66421 0 5 0.335786 5 0.75L5 3.25C5 3.66421 4.66421 4 4.25 4C3.83579 4 3.5 3.66421 3.5 3.25L3.5 0.75C3.5 0.335786 3.83579 0 4.25 0Z" fill-rule="EVENODD"></path>
  <path d="M0.25 5.75C0.25 5.33579 0.585786 5 1 5L13 5C13.4142 5 13.75 5.33579 13.75 5.75C13.75 6.16421 13.4142 6.5 13 6.5L1 6.5C0.585786 6.5 0.25 6.16421 0.25 5.75Z" fill-rule="EVENODD"></path>
 </g>
</svg>