<svg viewBox="0 0 16 16" width="16" height="16" fill="currentColor" xmlns="http://www.w3.org/2000/svg">
 <g transform="translate(1, 0)">
  <path d="M10.5 0.75C10.5 0.335786 10.1642 0 9.75 0C9.33579 0 9 0.335786 9 0.75L9 1L5 1L5 0.75C5 0.335786 4.66421 0 4.25 0C3.83579 0 3.5 0.335786 3.5 0.75L3.5 1L2.25 1C1.00736 1 0 2.00736 0 3.25L0 12.75C0 13.9926 1.00736 15 2.25 15L11.75 15C12.9926 15 14 13.9926 14 12.75L14 3.25C14 2.00736 12.9926 1 11.75 1L10.5 1L10.5 0.75ZM3.5 3.25L3.5 2.5L2.25 2.5C1.83579 2.5 1.5 2.83579 1.5 3.25L1.5 5L12.5 5L12.5 3.25C12.5 2.83579 12.1642 2.5 11.75 2.5L10.5 2.5L10.5 3.25C10.5 3.66421 10.1642 4 9.75 4C9.33579 4 9 3.66421 9 3.25L9 2.5L5 2.5L5 3.25C5 3.66421 4.66421 4 4.25 4C3.83579 4 3.5 3.66421 3.5 3.25ZM12.5 6.5L1.5 6.5L1.5 12.75C1.5 13.1642 1.83579 13.5 2.25 13.5L11.75 13.5C12.1642 13.5 12.5 13.1642 12.5 12.75L12.5 6.5Z" fill-rule="EVENODD"></path>
 </g>
</svg>