<svg viewBox="0 0 24 24" width="24" height="24" fill="currentColor" xmlns="http://www.w3.org/2000/svg">
 <g transform="translate(2, 0.25)">
  <path d="M0 4.5C0 2.98122 1.23122 1.75 2.75 1.75L17.25 1.75C18.7688 1.75 20 2.98122 20 4.5L20 19C20 20.5188 18.7688 21.75 17.25 21.75L2.75 21.75C1.23122 21.75 0 20.5188 0 19L0 4.5ZM2.75 3.25C2.05964 3.25 1.5 3.80964 1.5 4.5L1.5 19C1.5 19.6904 2.05964 20.25 2.75 20.25L17.25 20.25C17.9404 20.25 18.5 19.6904 18.5 19L18.5 4.5C18.5 3.80964 17.9404 3.25 17.25 3.25L2.75 3.25Z" fill-rule="EVENODD"></path>
  <path d="M14.25 0C14.6642 0 15 0.335786 15 0.75L15 4.75C15 5.16421 14.6642 5.5 14.25 5.5C13.8358 5.5 13.5 5.16421 13.5 4.75L13.5 0.75C13.5 0.335786 13.8358 0 14.25 0Z" fill-rule="EVENODD"></path>
  <path d="M5.75 0C6.16421 0 6.5 0.335786 6.5 0.75L6.5 4.75C6.5 5.16421 6.16421 5.5 5.75 5.5C5.33579 5.5 5 5.16421 5 4.75L5 0.75C5 0.335786 5.33579 0 5.75 0Z" fill-rule="EVENODD"></path>
  <path d="M0 8.5C0 8.08579 0.335786 7.75 0.75 7.75L19.25 7.75C19.6642 7.75 20 8.08579 20 8.5C20 8.91421 19.6642 9.25 19.25 9.25L0.75 9.25C0.335786 9.25 0 8.91421 0 8.5Z" fill-rule="EVENODD"></path>
 </g>
</svg>