<svg viewBox="0 0 16 16" width="16" height="16" fill="black" xmlns="http://www.w3.org/2000/svg">
 <g transform="translate(1, 1)">
  <path d="M0.21967 0.21967C0.512563 -0.0732233 0.987437 -0.0732233 1.28033 0.21967L13.7803 12.7197C14.0732 13.0126 14.0732 13.4874 13.7803 13.7803C13.4874 14.0732 13.0126 14.0732 12.7197 13.7803L0.21967 1.28033C-0.0732233 0.987437 -0.0732233 0.512563 0.21967 0.21967Z" fill-rule="EVENODD"></path>
  <path d="M4.11585 0.75C4.11585 0.335786 4.45164 0 4.86585 0L8.82368 0C9.29903 0 9.73325 0.269618 9.94405 0.695673L10.4848 1.7886L11.9411 1.91274C13.1054 2.01199 14 2.98604 14 4.15461L14 9.75C14 10.1642 13.6642 10.5 13.25 10.5C12.8358 10.5 12.5 10.1642 12.5 9.75L12.5 4.15461C12.5 3.76509 12.2018 3.4404 11.8137 3.40732L9.9363 3.24729C9.67489 3.22501 9.44413 3.06775 9.32778 2.8326L8.66845 1.5L4.86585 1.5C4.45164 1.5 4.11585 1.16421 4.11585 0.75ZM3.12229 2.57482C3.15747 2.98753 2.85142 3.35062 2.4387 3.3858L2.1863 3.40732C1.79819 3.4404 1.5 3.76509 1.5 4.15461L1.5 10.75C1.5 11.1642 1.83579 11.5 2.25 11.5L11.9865 11.5C12.4007 11.5 12.7365 11.8358 12.7365 12.25C12.7365 12.6642 12.4007 13 11.9865 13L2.25 13C1.00736 13 0 11.9926 0 10.75L0 4.15461C0 2.98604 0.894562 2.01199 2.0589 1.91274L2.3113 1.89122C2.72402 1.85604 3.08711 2.1621 3.12229 2.57482Z" fill-rule="EVENODD"></path>
  <path d="M5.92892 4.88395C6.22324 5.1754 6.22557 5.65027 5.93411 5.94459C5.66494 6.21641 5.5 6.58821 5.5 7C5.5 7.82843 6.17157 8.5 7 8.5C7.41179 8.5 7.78359 8.33506 8.05541 8.06589C8.34973 7.77443 8.8246 7.77676 9.11605 8.07108C9.40751 8.3654 9.40518 8.84027 9.11086 9.13173C8.56961 9.6677 7.82288 10 7 10C5.34315 10 4 8.65685 4 7C4 6.17712 4.33229 5.43039 4.86827 4.88914C5.15973 4.59481 5.6346 4.59249 5.92892 4.88395Z" fill-rule="EVENODD"></path>
 </g>
</svg>