<svg viewBox="0 0 16 16" width="16" height="16" fill="currentColor" xmlns="http://www.w3.org/2000/svg">
 <g transform="translate(1, 1)">
  <path d="M2 5C2 4.44772 2.44772 4 3 4L3.01 4C3.56228 4 4.01 4.44772 4.01 5C4.01 5.55228 3.56228 6 3.01 6L3 6C2.44772 6 2 5.55228 2 5Z" fill-rule="NONZERO"></path>
  <path d="M7 4C5.34315 4 4 5.34315 4 7C4 8.65685 5.34315 10 7 10C8.65685 10 10 8.65685 10 7C10 5.34315 8.65685 4 7 4ZM5.5 7C5.5 6.17157 6.17157 5.5 7 5.5C7.82843 5.5 8.5 6.17157 8.5 7C8.5 7.82843 7.82843 8.5 7 8.5C6.17157 8.5 5.5 7.82843 5.5 7Z" fill-rule="EVENODD"></path>
  <path d="M4.05595 0.695672C4.26676 0.269617 4.70097 0 5.17632 0L8.82368 0C9.29903 0 9.73325 0.269618 9.94405 0.695673L10.4848 1.7886L11.9411 1.91274C13.1054 2.01199 14 2.98604 14 4.15461L14 10.75C14 11.9926 12.9926 13 11.75 13L2.25 13C1.00736 13 0 11.9926 0 10.75L0 4.15461C0 2.98604 0.894562 2.01199 2.05891 1.91274L3.5152 1.7886L4.05595 0.695672ZM5.33155 1.5L4.67222 2.8326C4.55587 3.06775 4.32511 3.22501 4.0637 3.24729L2.1863 3.40732C1.79819 3.4404 1.5 3.76509 1.5 4.15461L1.5 10.75C1.5 11.1642 1.83579 11.5 2.25 11.5L11.75 11.5C12.1642 11.5 12.5 11.1642 12.5 10.75L12.5 4.15461C12.5 3.76509 12.2018 3.4404 11.8137 3.40732L9.9363 3.24729C9.67489 3.22501 9.44413 3.06775 9.32778 2.8326L8.66845 1.5L5.33155 1.5Z" fill-rule="EVENODD"></path>
 </g>
</svg>