<svg viewBox="0 0 16 16" width="16" height="16" fill="black" xmlns="http://www.w3.org/2000/svg">
 <g transform="translate(3.9999959468841553, 2)">
  <path d="M4 0C4.20856 0 4.40769 0.0868364 4.5496 0.239662L7.7996 3.73966C8.08145 4.04319 8.06388 4.51774 7.76034 4.79959C7.45681 5.08145 6.98226 5.06387 6.70041 4.76034L4 1.85221L1.2996 4.76034C1.01775 5.06387 0.543199 5.08145 0.239666 4.79959C-0.0638673 4.51774 -0.0814431 4.04319 0.200409 3.73966L3.45041 0.239662C3.59232 0.0868364 3.79145 0 4 0Z" fill-rule="EVENODD"></path>
  <path d="M4 12C3.79145 12 3.59232 11.9132 3.45041 11.7603L0.200408 8.26034C-0.0814441 7.95681 -0.0638679 7.48226 0.239665 7.20041C0.543198 6.91855 1.01775 6.93613 1.2996 7.23966L4 10.1478L6.70041 7.23966C6.98226 6.93613 7.45681 6.91855 7.76034 7.20041C8.06388 7.48226 8.08145 7.95681 7.7996 8.26034L4.5496 11.7603C4.40769 11.9132 4.20855 12 4 12Z" fill-rule="EVENODD"></path>
 </g>
</svg>