<svg viewBox="0 0 16 16" width="16" height="16" fill="currentColor" xmlns="http://www.w3.org/2000/svg">
 <g transform="translate(3.999992847442627, 2)">
  <path d="M4.5496 0.239662C4.4077 0.0868364 4.20856 0 4.00001 0C3.79146 0 3.59232 0.0868364 3.45042 0.239662L0.200415 3.73966C-0.081437 4.04319 -0.0638612 4.51774 0.239672 4.79959C0.543205 5.08145 1.01775 5.06387 1.29961 4.76034L4.00001 1.85221L6.70042 4.76034C6.98227 5.06387 7.45682 5.08145 7.76035 4.79959C8.06388 4.51774 8.08146 4.04319 7.79961 3.73966L4.5496 0.239662Z" fill-rule="NONZERO"></path>
  <path d="M3.45041 11.7603C3.59232 11.9132 3.79145 12 4 12C4.20855 12 4.40769 11.9132 4.5496 11.7603L7.7996 8.26034C8.08145 7.95681 8.06388 7.48226 7.76034 7.20041C7.45681 6.91855 6.98226 6.93613 6.70041 7.23966L4 10.1478L1.2996 7.23966C1.01775 6.93613 0.543198 6.91855 0.239665 7.20041C-0.0638679 7.48226 -0.0814441 7.95681 0.200408 8.26034L3.45041 11.7603Z" fill-rule="NONZERO"></path>
 </g>
</svg>