<svg viewBox="0 0 16 16" width="16" height="16" fill="black" xmlns="http://www.w3.org/2000/svg">
 <g transform="translate(0.24984663724899292, 1.25)">
  <path d="M2.15015 1.5C1.97776 1.5 1.81243 1.56848 1.69053 1.69038C1.56864 1.81228 1.50015 1.97761 1.50015 2.15L1.50015 4.25C1.50015 4.66421 1.16437 5 0.750153 5C0.33594 5 0.000153365 4.66421 0.000153365 4.25L0.000153365 2.15C0.000153365 1.57978 0.226671 1.03292 0.629874 0.62972C1.03308 0.226517 1.57994 0 2.15015 0L13.3502 0C13.9204 0 14.4672 0.226517 14.8704 0.62972C15.2736 1.03292 15.5002 1.57978 15.5002 2.15L15.5001 11.35C15.5001 11.9202 15.2736 12.4671 14.8704 12.8703C14.4672 13.2735 13.9204 13.5 13.3501 13.5L9.15015 13.5C8.73593 13.5 8.40015 13.1642 8.40015 12.75C8.40015 12.3358 8.73593 12 9.15015 12L13.3501 12C13.5225 12 13.6879 11.9315 13.8098 11.8096C13.9317 11.6877 14.0001 11.5224 14.0001 11.35L14.0002 2.15C14.0002 1.97761 13.9317 1.81228 13.8098 1.69038C13.6879 1.56848 13.5225 1.5 13.3502 1.5L2.15015 1.5ZM0.00474376 7.1021C0.0505303 6.69042 0.421376 6.39381 0.833052 6.4396C2.42384 6.61652 3.90707 7.3295 5.03886 8.46129C6.17065 9.59308 6.88362 11.0763 7.06055 12.6671C7.10634 13.0788 6.80973 13.4496 6.39805 13.4954C5.98638 13.5412 5.61553 13.2446 5.56974 12.8329C5.43046 11.5806 4.86918 10.4129 3.9782 9.52195C3.08721 8.63097 1.91956 8.06969 0.667244 7.9304C0.255569 7.88462 -0.0410428 7.51377 0.00474376 7.1021ZM0.0152748 9.87013C0.0980473 9.46427 0.494161 9.20236 0.90002 9.28513C1.71678 9.4517 2.46652 9.85478 3.05594 10.4442C3.64537 11.0336 4.04845 11.7834 4.21502 12.6001C4.29779 13.006 4.03588 13.4021 3.63002 13.4849C3.22416 13.5676 2.82805 13.3057 2.74527 12.8999C2.63749 12.3714 2.37668 11.8863 1.99528 11.5049C1.61389 11.1235 1.12877 10.8627 0.600275 10.7549C0.194416 10.6721 -0.0674977 10.276 0.0152748 9.87013Z" fill-rule="EVENODD"></path>
 </g>
</svg>