<svg viewBox="0 0 24 24" width="24" height="24" fill="currentColor" xmlns="http://www.w3.org/2000/svg">
 <g transform="translate(0.9998779296875, 3)">
  <path d="M2.75012 0C1.23134 0 0.000122069 1.23122 0.000122069 2.75L0.000122069 5C0.000122069 5.41421 0.335909 5.75 0.750122 5.75C1.16434 5.75 1.50012 5.41421 1.50012 5L1.50012 2.75C1.50012 2.05964 2.05977 1.5 2.75012 1.5L19.2501 1.5C19.9405 1.5 20.5001 2.05964 20.5001 2.75L20.5001 15.25C20.5001 15.9404 19.9405 16.5 19.2501 16.5L13.0001 16.5C12.5859 16.5 12.2501 16.8358 12.2501 17.25C12.2501 17.6642 12.5859 18 13.0001 18L19.2501 18C20.7689 18 22.0001 16.7688 22.0001 15.25L22.0001 2.75C22.0001 1.23122 20.7689 0 19.2501 0L2.75012 0Z" fill-rule="NONZERO"></path>
  <path d="M0.833052 8.0046C0.421376 7.95881 0.0505303 8.25543 0.00474376 8.6671C-0.0410428 9.07878 0.255569 9.44962 0.667244 9.49541C2.6693 9.71808 4.53599 10.6154 5.96038 12.0398C7.38477 13.4642 8.28208 15.3309 8.50474 17.3329C8.55053 17.7446 8.92138 18.0412 9.33305 17.9954C9.74473 17.9496 10.0413 17.5788 9.99555 17.1671C9.73524 14.8266 8.68624 12.6443 7.02104 10.9791C5.35584 9.31391 3.17357 8.26491 0.833052 8.0046Z" fill-rule="NONZERO"></path>
  <path d="M0.900021 12.3453C0.494161 12.2625 0.0980473 12.5245 0.0152748 12.9303C-0.0674977 13.3362 0.194416 13.7323 0.600275 13.8151C1.48351 13.9952 2.29427 14.4311 2.93167 15.0685C3.56907 15.7059 4.00496 16.5166 4.18509 17.3999C4.26786 17.8057 4.66397 18.0676 5.06983 17.9849C5.47569 17.9021 5.7376 17.506 5.65483 17.1001C5.41591 15.9286 4.83776 14.8533 3.99233 14.0078C3.1469 13.1624 2.07152 12.5842 0.900021 12.3453Z" fill-rule="NONZERO"></path>
 </g>
</svg>