<svg viewBox="0 0 16 16" width="16" height="16" fill="currentColor" xmlns="http://www.w3.org/2000/svg">
 <g transform="translate(0.9998779296875, 2)">
  <path d="M2.25012 0C1.00748 0 0.000122069 1.00736 0.000122069 2.25L0.000122069 3.48C0.000122069 3.89421 0.335909 4.23 0.750122 4.23C1.16434 4.23 1.50012 3.89421 1.50012 3.48L1.50012 2.25C1.50012 1.83579 1.83591 1.5 2.25012 1.5L11.7501 1.5C12.1643 1.5 12.5001 1.83579 12.5001 2.25L12.5001 9.75C12.5001 10.1642 12.1643 10.5 11.7501 10.5L8.72426 10.5C8.31005 10.5 7.97426 10.8358 7.97426 11.25C7.97426 11.6642 8.31005 12 8.72426 12L11.7501 12C12.9928 12 14.0001 10.9926 14.0001 9.75L14.0001 2.25C14.0001 1.00736 12.9928 0 11.7501 0L2.25012 0Z" fill-rule="NONZERO"></path>
  <path d="M0.833052 5.50454C0.421376 5.45875 0.0505303 5.75536 0.00474376 6.16704C-0.0410428 6.57872 0.255569 6.94956 0.667244 6.99535C1.77524 7.11858 2.80832 7.61517 3.59662 8.40347C4.38492 9.19177 4.88151 10.2249 5.00474 11.3328C5.05053 11.7445 5.42138 12.0411 5.83305 11.9953C6.24473 11.9496 6.54134 11.5787 6.49555 11.167C6.33468 9.72058 5.68639 8.37192 4.65728 7.34281C3.62817 6.3137 2.27951 5.66542 0.833052 5.50454Z" fill-rule="NONZERO"></path>
  <path d="M0.90002 8.06224C0.494161 7.97947 0.0980473 8.24138 0.0152748 8.64724C-0.0674977 9.0531 0.194416 9.44921 0.600275 9.53199C1.06048 9.62584 1.48292 9.85296 1.81503 10.1851C2.14714 10.5172 2.37425 10.9396 2.46811 11.3998C2.55088 11.8057 2.94699 12.0676 3.35285 11.9848C3.75871 11.902 4.02062 11.5059 3.93785 11.1001C3.78521 10.3516 3.41583 9.66455 2.87569 9.12441C2.33555 8.58426 1.64849 8.21489 0.90002 8.06224Z" fill-rule="NONZERO"></path>
 </g>
</svg>