<svg viewBox="0 0 16 16" width="16" height="16" fill="black" xmlns="http://www.w3.org/2000/svg">
 <g transform="translate(1.25, 1.25)">
  <path d="M7.31492 6.25662C7.71824 6.71846 8.04237 6.89825 8.26685 6.96363C8.48145 7.02613 8.66768 7.00275 8.84431 6.93262C9.16771 6.8042 9.36263 6.59481 9.54308 6.40096C9.61058 6.32846 9.67609 6.25809 9.7455 6.19499C10.052 5.91636 10.5263 5.93894 10.805 6.24544C11.0836 6.55193 11.061 7.02626 10.7545 7.3049C10.7908 7.27192 10.1801 8.01614 9.39789 8.32673C8.96123 8.50012 8.43066 8.57366 7.84742 8.40379C7.27404 8.23681 6.71927 7.85497 6.18509 7.24327C5.78177 6.78142 5.45765 6.60164 5.23318 6.53627C5.01858 6.47378 4.83234 6.49716 4.65572 6.5673C4.33235 6.69571 4.13758 6.90492 3.95715 7.09872C3.88955 7.17134 3.82396 7.24179 3.75437 7.30502C3.44781 7.58358 2.97348 7.56087 2.69493 7.25431C2.41637 6.94775 2.43908 6.47342 2.74564 6.19486C2.70908 6.22808 3.32007 5.48375 4.10211 5.1732C4.53876 4.99979 5.06933 4.92625 5.65258 5.0961C6.22596 5.26308 6.78074 5.64492 7.31492 6.25662Z" fill-rule="NONZERO"></path>
  <path d="M2.08333 0C0.93274 0 0 0.93274 0 2.08333L0 11.4167C0 12.5673 0.93274 13.5 2.08333 13.5L11.4167 13.5C12.5673 13.5 13.5 12.5673 13.5 11.4167L13.5 2.08333C13.5 0.93274 12.5673 0 11.4167 0L2.08333 0ZM1.5 2.08333C1.5 1.76117 1.76117 1.5 2.08333 1.5L11.4167 1.5C11.7388 1.5 12 1.76117 12 2.08333L12 11.4167C12 11.7388 11.7388 12 11.4167 12L2.08333 12C1.76117 12 1.5 11.7388 1.5 11.4167L1.5 2.08333Z" fill-rule="EVENODD"></path>
 </g>
</svg>