<svg viewBox="0 0 24 24" width="24" height="24" fill="currentColor" xmlns="http://www.w3.org/2000/svg">
 <g transform="translate(1, 1)">
  <path d="M11 1.5C5.75329 1.5 1.5 5.75329 1.5 11C1.5 16.2467 5.75329 20.5 11 20.5C16.2467 20.5 20.5 16.2467 20.5 11C20.5 5.75329 16.2467 1.5 11 1.5ZM0 11C0 4.92487 4.92487 0 11 0C17.0751 0 22 4.92487 22 11C22 17.0751 17.0751 22 11 22C4.92487 22 0 17.0751 0 11Z" fill-rule="EVENODD"></path>
  <path d="M6.2531 11.2576C6.18689 11.3431 6.12665 11.4208 6.0713 11.4859C5.80294 11.8014 5.3296 11.8397 5.01408 11.5713C4.69856 11.3029 4.66034 10.8296 4.9287 10.5141C4.9402 10.5006 4.96025 10.4735 4.98846 10.4353C5.20606 10.1412 5.90923 9.19092 6.92061 8.75277C7.53844 8.48512 8.28113 8.39102 9.10569 8.664C9.91073 8.93051 10.7307 9.52568 11.5713 10.5141C12.3021 11.3734 12.9063 11.7599 13.3657 11.912C13.8057 12.0577 14.1679 12.0074 14.4831 11.8708C15.0699 11.6167 15.4632 11.1088 15.7469 10.7424C15.8131 10.6569 15.8734 10.5792 15.9287 10.5141C16.197 10.1986 16.6704 10.1603 16.9859 10.4287C17.3014 10.697 17.3397 11.1704 17.0713 11.4859C17.0598 11.4994 17.0398 11.5265 17.0116 11.5646C16.7939 11.8588 16.0908 12.8091 15.0794 13.2472C14.4616 13.5149 13.7189 13.609 12.8943 13.336C12.0893 13.0695 11.2693 12.4743 10.4287 11.4859C9.69786 10.6266 9.09373 10.2401 8.63427 10.088C8.19432 9.94235 7.8321 9.99261 7.51689 10.1292C6.93017 10.3833 6.53687 10.8912 6.2531 11.2576Z" fill-rule="EVENODD"></path>
 </g>
</svg>