<svg viewBox="0 0 16 16" width="16" height="16" fill="currentColor" xmlns="http://www.w3.org/2000/svg">
 <g transform="translate(1, 1)">
  <path d="M0 2.25C0 1.00736 1.00736 0 2.25 0L11.75 0C12.9926 0 14 1.00736 14 2.25L14 11.75C14 12.9926 12.9926 14 11.75 14L2.25 14C1.00736 14 0 12.9926 0 11.75L0 2.25ZM2.25 1.5C1.83579 1.5 1.5 1.83579 1.5 2.25L1.5 11.75C1.5 12.1642 1.83579 12.5 2.25 12.5L11.75 12.5C12.1642 12.5 12.5 12.1642 12.5 11.75L12.5 2.25C12.5 1.83579 12.1642 1.5 11.75 1.5L2.25 1.5Z" fill-rule="EVENODD"></path>
  <path d="M8.72149 7.45258C8.45043 7.36623 8.06275 7.12902 7.5861 6.53203C6.99132 5.78708 6.37454 5.32226 5.73376 5.11817C5.07752 4.90914 4.47987 5.00028 3.99139 5.21245C3.51859 5.41781 3.14945 5.73445 2.89638 5.98985C2.76724 6.12017 2.66143 6.24172 2.5833 6.33402C2.56582 6.35467 2.53568 6.39064 2.51394 6.41659C2.50231 6.43047 2.49309 6.44149 2.48949 6.44575C2.47288 6.46542 2.46464 6.47473 2.46464 6.47473C2.17751 6.76724 2.17827 7.23711 2.46803 7.52867C2.76002 7.82247 3.23489 7.82394 3.52869 7.53195C3.57848 7.48247 3.65 7.39674 3.69815 7.33903C3.70974 7.32514 3.71997 7.31287 3.72822 7.30312C3.79421 7.22516 3.87171 7.13665 3.96188 7.04565C4.14742 6.8584 4.36088 6.68735 4.58897 6.58828C4.80138 6.49602 5.02293 6.46601 5.27852 6.54742C5.54957 6.63375 5.93725 6.87095 6.4139 7.46794C7.00868 8.21288 7.62546 8.67771 8.26623 8.88182C8.92246 9.09085 9.52011 8.99973 10.0086 8.78757C10.4814 8.58222 10.8505 8.26558 11.1036 8.01017C11.2328 7.87983 11.3386 7.75828 11.4167 7.66596C11.4344 7.64503 11.4641 7.60956 11.4858 7.58375C11.4974 7.5698 11.5068 7.55867 11.5106 7.55419C11.5272 7.53445 11.5354 7.52515 11.5354 7.52515C11.8225 7.23258 11.8217 6.76267 11.5318 6.47117C11.2398 6.17744 10.7649 6.17609 10.4712 6.46815C10.4215 6.51758 10.35 6.60322 10.3019 6.66093C10.2903 6.67485 10.28 6.68714 10.2718 6.69691C10.2058 6.77487 10.1283 6.86338 10.0381 6.95438C9.85258 7.14163 9.63913 7.31267 9.41105 7.41173C9.19864 7.50398 8.97709 7.53399 8.72149 7.45258Z" fill-rule="EVENODD"></path>
 </g>
</svg>