<svg viewBox="0 0 16 16" width="16" height="16" fill="black" xmlns="http://www.w3.org/2000/svg">
 <g transform="translate(0, 0)">
  <path d="M8 1.5C4.41015 1.5 1.5 4.41015 1.5 8C1.5 11.5899 4.41015 14.5 8 14.5C11.5899 14.5 14.5 11.5899 14.5 8C14.5 4.41015 11.5899 1.5 8 1.5ZM0 8C0 3.58172 3.58172 0 8 0C12.4183 0 16 3.58172 16 8C16 12.4183 12.4183 16 8 16C3.58172 16 0 12.4183 0 8Z" fill-rule="EVENODD"></path>
  <path d="M9.72149 8.45258C9.45043 8.36623 9.06275 8.12902 8.5861 7.53203C7.99132 6.78708 7.37454 6.32226 6.73376 6.11817C6.07752 5.90914 5.47987 6.00028 4.99139 6.21245C4.51859 6.41781 4.14945 6.73445 3.89638 6.98985C3.76724 7.12017 3.66143 7.24172 3.5833 7.33402C3.56582 7.35467 3.53568 7.39064 3.51394 7.41659C3.50231 7.43047 3.49309 7.44149 3.48949 7.44575C3.47288 7.46542 3.46464 7.47473 3.46464 7.47473C3.17751 7.76724 3.17827 8.23711 3.46803 8.52867C3.76002 8.82247 4.23489 8.82394 4.52869 8.53195C4.57848 8.48247 4.65 8.39674 4.69815 8.33903C4.70974 8.32514 4.71997 8.31287 4.72822 8.30312C4.79421 8.22516 4.87171 8.13665 4.96188 8.04565C5.14742 7.8584 5.36088 7.68735 5.58897 7.58828C5.80138 7.49602 6.02293 7.46601 6.27852 7.54742C6.54957 7.63375 6.93725 7.87095 7.4139 8.46794C8.00868 9.21288 8.62546 9.67771 9.26623 9.88182C9.92246 10.0909 10.5201 9.99973 11.0086 9.78757C11.4814 9.58222 11.8505 9.26558 12.1036 9.01017C12.2328 8.87983 12.3386 8.75828 12.4167 8.66596C12.4344 8.64503 12.4641 8.60956 12.4858 8.58375C12.4974 8.5698 12.5068 8.55867 12.5106 8.55419C12.5272 8.53445 12.5354 8.52515 12.5354 8.52515C12.8225 8.23258 12.8217 7.76267 12.5318 7.47117C12.2398 7.17744 11.7649 7.17609 11.4712 7.46815C11.4215 7.51758 11.35 7.60322 11.3019 7.66093C11.2903 7.67485 11.28 7.68714 11.2718 7.69691C11.2058 7.77487 11.1283 7.86338 11.0381 7.95438C10.8526 8.14163 10.6391 8.31267 10.411 8.41173C10.1986 8.50398 9.97709 8.53399 9.72149 8.45258Z" fill-rule="EVENODD"></path>
 </g>
</svg>