<svg viewBox="0 0 16 16" width="16" height="16" fill="currentColor" xmlns="http://www.w3.org/2000/svg">
 <g transform="translate(0.09133490175008774, 0.09352345019578934)">
  <path d="M7.3765 1.71967L1.71967 7.3765C1.42677 7.6694 1.42678 8.14428 1.71968 8.43717L7.37651 14.0939C7.6694 14.3868 8.14427 14.3868 8.43716 14.0939L14.0939 8.43717C14.3868 8.14427 14.3868 7.6694 14.0939 7.37651L8.43716 1.71968C8.14427 1.42678 7.66939 1.42677 7.3765 1.71967ZM0.659009 6.31584L6.31584 0.659011C7.19452 -0.219677 8.61916 -0.219669 9.49784 0.659027L15.1545 6.31586C16.0332 7.19454 16.0332 8.61915 15.1545 9.49783L9.49782 15.1545C8.61915 16.0332 7.19454 16.0332 6.31586 15.1545L0.659027 9.49784C-0.219668 8.61917 -0.219677 7.19453 0.659009 6.31584Z" fill-rule="EVENODD"></path>
  <path d="M11.189 5.62615C11.4819 5.91904 11.4819 6.39391 11.189 6.68681L7.189 10.6868C6.8961 10.9797 6.42123 10.9797 6.12833 10.6868C5.83544 10.3939 5.83544 9.91904 6.12833 9.62615L10.1283 5.62615C10.4212 5.33325 10.8961 5.33325 11.189 5.62615Z" fill-rule="EVENODD"></path>
  <path d="M4.12833 7.62615C4.42123 7.33325 4.8961 7.33325 5.189 7.62615L7.189 9.62615C7.48189 9.91904 7.48189 10.3939 7.189 10.6868C6.8961 10.9797 6.42123 10.9797 6.12833 10.6868L4.12833 8.68681C3.83544 8.39391 3.83544 7.91904 4.12833 7.62615Z" fill-rule="EVENODD"></path>
 </g>
</svg>