<svg viewBox="0 0 24 24" width="24" height="24" fill="currentColor" xmlns="http://www.w3.org/2000/svg">
 <g transform="translate(1.49993896484375, 0.598388671875)">
  <path d="M11.9413 0.40794C11.0574 -0.135979 9.9426 -0.135981 9.05873 0.407939L1.30873 5.17717C0.495429 5.67766 0 6.56426 0 7.51923L0 15.284C0 16.239 0.495427 17.1256 1.30873 17.6261L9.05873 22.3953C9.9426 22.9393 11.0574 22.9393 11.9413 22.3953L19.6913 17.6261C20.5046 17.1256 21 16.239 21 15.284L21 7.51923C21 6.56426 20.5046 5.67767 19.6913 5.17717L11.9413 0.40794ZM14.7804 9.18195L9.28039 14.682C8.9875 14.9748 8.51262 14.9748 8.21973 14.6819L5.71973 12.182C5.42684 11.8891 5.42684 11.4142 5.71973 11.1213C6.01262 10.8284 6.4875 10.8284 6.78039 11.1213L8.75006 13.091L13.7197 8.12129C14.0126 7.8284 14.4875 7.8284 14.7804 8.12129C15.0733 8.41418 15.0733 8.88906 14.7804 9.18195Z" fill-rule="EVENODD"></path>
 </g>
</svg>