<svg viewBox="0 0 24 24" width="24" height="24" fill="black" xmlns="http://www.w3.org/2000/svg">
 <g transform="translate(1.25, 1.25)">
  <path d="M15.8691 8.36831C16.2106 8.02638 16.2102 7.47236 15.8683 7.13088C15.5264 6.78939 14.9724 6.78975 14.6309 7.13169L8.78806 12.9822L6.86872 11.0628C6.52701 10.7211 5.97299 10.7211 5.63128 11.0628C5.28957 11.4045 5.28957 11.9585 5.63128 12.3003L8.16974 14.8387C8.33391 15.0029 8.55658 15.0951 8.78875 15.095C9.02091 15.0949 9.24353 15.0026 9.40759 14.8383L15.8691 8.36831Z" fill-rule="NONZERO"></path>
  <path d="M10.75 0C4.81294 0 0 4.81294 0 10.75C0 16.6871 4.81294 21.5 10.75 21.5C16.6871 21.5 21.5 16.6871 21.5 10.75C21.5 4.81294 16.6871 0 10.75 0ZM1.5 10.75C1.5 5.64137 5.64137 1.5 10.75 1.5C15.8586 1.5 20 5.64137 20 10.75C20 15.8586 15.8586 20 10.75 20C5.64137 20 1.5 15.8586 1.5 10.75Z" fill-rule="EVENODD"></path>
 </g>
</svg>