<svg viewBox="0 0 24 24" width="24" height="24" fill="currentColor" xmlns="http://www.w3.org/2000/svg">
 <g transform="translate(2, 2)">
  <path d="M2.75 0C1.23122 0 0 1.23122 0 2.75L0 17.25C0 18.7688 1.23122 20 2.75 20L17.25 20C18.7688 20 20 18.7688 20 17.25L20 2.75C20 1.23122 18.7688 0 17.25 0L2.75 0ZM14.7197 6.21967C15.0126 5.92678 15.4874 5.92678 15.7803 6.21967C16.0732 6.51256 16.0732 6.98744 15.7803 7.28033L8.28033 14.7803C7.98744 15.0732 7.51256 15.0732 7.21967 14.7803L4.21967 11.7803C3.92678 11.4874 3.92678 11.0126 4.21967 10.7197C4.51256 10.4268 4.98744 10.4268 5.28033 10.7197L7.75 13.1893L14.7197 6.21967Z" fill-rule="EVENODD"></path>
 </g>
</svg>