<svg viewBox="0 0 24 24" width="24" height="24" fill="currentColor" xmlns="http://www.w3.org/2000/svg">
 <g transform="translate(1.0783265829086304, 1.0786925554275513)">
  <path d="M10.0378 1.86612L1.86612 10.0378C1.37796 10.5259 1.37796 11.3174 1.86613 11.8056L10.0378 19.977C10.5259 20.4652 11.3174 20.4652 11.8055 19.977L19.977 11.8055C20.4652 11.3174 20.4652 10.5259 19.977 10.0378L11.8055 1.86613C11.3174 1.37796 10.5259 1.37796 10.0378 1.86612ZM0.805455 8.97712L8.97711 0.805457C10.0511 -0.268493 11.7923 -0.268485 12.8662 0.805477L21.0377 8.97714C22.1116 10.0511 22.1116 11.7923 21.0377 12.8662L12.8662 21.0377C11.7923 22.1116 10.0511 22.1116 8.97714 21.0377L0.805478 12.8662C-0.268483 11.7923 -0.268495 10.0511 0.805455 8.97712Z" fill-rule="EVENODD"></path>
  <path d="M15.202 7.64098C15.4949 7.93387 15.4949 8.40874 15.202 8.70164L9.702 14.2016C9.40911 14.4945 8.93424 14.4945 8.64134 14.2016C8.34845 13.9087 8.34845 13.4339 8.64134 13.141L14.1413 7.64098C14.4342 7.34808 14.9091 7.34808 15.202 7.64098Z" fill-rule="EVENODD"></path>
  <path d="M6.14134 10.641C6.43424 10.3481 6.90911 10.3481 7.202 10.641L9.702 13.141C9.9949 13.4339 9.9949 13.9087 9.702 14.2016C9.40911 14.4945 8.93424 14.4945 8.64134 14.2016L6.14134 11.7016C5.84845 11.4087 5.84845 10.9339 6.14134 10.641Z" fill-rule="EVENODD"></path>
 </g>
</svg>