<svg viewBox="0 0 24 24" width="24" height="24" fill="black" xmlns="http://www.w3.org/2000/svg">
 <g transform="translate(1.0783246755599976, 1.0786913633346558)">
  <path d="M8.97711 0.805457C10.0511 -0.268494 11.7923 -0.268484 12.8662 0.805477L21.0377 8.97714C22.1116 10.0511 22.1116 11.7923 21.0377 12.8662L12.8662 21.0377C11.7923 22.1116 10.0511 22.1116 8.97714 21.0377L0.805478 12.8662C-0.268483 11.7923 -0.268495 10.0511 0.805455 8.97712L8.97711 0.805457ZM15.202 8.7016C15.4949 8.4087 15.4949 7.93383 15.202 7.64093C14.9091 7.34804 14.4343 7.34804 14.1414 7.64093L9.17169 12.6106L7.20202 10.6409C6.90913 10.348 6.43426 10.348 6.14136 10.6409C5.84847 10.9338 5.84847 11.4087 6.14136 11.7016L8.64136 14.2016C8.9312 14.4914 9.41363 14.49 9.70304 14.2006L15.202 8.7016Z" fill-rule="EVENODD"></path>
 </g>
</svg>