<svg viewBox="0 0 24 24" width="24" height="24" fill="black" xmlns="http://www.w3.org/2000/svg">
 <g transform="translate(2, 2)">
  <path d="M0 2.75C0 1.23122 1.23122 0 2.75 0L17.25 0C18.7688 0 20 1.23122 20 2.75L20 17.25C20 18.7688 18.7688 20 17.25 20L2.75 20C1.23122 20 0 18.7688 0 17.25L0 2.75ZM2.75 1.5C2.05964 1.5 1.5 2.05964 1.5 2.75L1.5 17.25C1.5 17.9404 2.05964 18.5 2.75 18.5L17.25 18.5C17.9404 18.5 18.5 17.9404 18.5 17.25L18.5 2.75C18.5 2.05964 17.9404 1.5 17.25 1.5L2.75 1.5Z" fill-rule="EVENODD"></path>
  <path d="M15.7803 6.21967C16.0732 6.51256 16.0732 6.98744 15.7803 7.28033L8.28033 14.7803C7.98744 15.0732 7.51256 15.0732 7.21967 14.7803C6.92678 14.4874 6.92678 14.0126 7.21967 13.7197L14.7197 6.21967C15.0126 5.92678 15.4874 5.92678 15.7803 6.21967Z" fill-rule="EVENODD"></path>
  <path d="M4.21967 10.7197C4.51256 10.4268 4.98744 10.4268 5.28033 10.7197L8.28033 13.7197C8.57322 14.0126 8.57322 14.4874 8.28033 14.7803C7.98744 15.0732 7.51256 15.0732 7.21967 14.7803L4.21967 11.7803C3.92678 11.4874 3.92678 11.0126 4.21967 10.7197Z" fill-rule="EVENODD"></path>
 </g>
</svg>