<svg viewBox="0 0 16 16" width="16" height="16" fill="black" xmlns="http://www.w3.org/2000/svg">
 <g transform="translate(1, 1)">
  <path d="M0 2.25C0 1.00736 1.00736 0 2.25 0L11.75 0C12.9926 0 14 1.00736 14 2.25L14 11.75C14 12.9926 12.9926 14 11.75 14L2.25 14C1.00736 14 0 12.9926 0 11.75L0 2.25ZM10.7803 4.21967C10.4874 3.92678 10.0126 3.92678 9.71967 4.21967L5.75 8.18934L4.28033 6.71967C3.98744 6.42678 3.51256 6.42678 3.21967 6.71967C2.92678 7.01256 2.92678 7.48744 3.21967 7.78033L5.21967 9.78033C5.51256 10.0732 5.98744 10.0732 6.28033 9.78033L10.7803 5.28033C11.0732 4.98744 11.0732 4.51256 10.7803 4.21967Z" fill-rule="EVENODD"></path>
 </g>
</svg>