<svg viewBox="0 0 16 16" width="16" height="16" fill="black" xmlns="http://www.w3.org/2000/svg">
 <g transform="translate(1, 3)">
  <path d="M13.7803 0.21967C14.0732 0.512563 14.0732 0.987437 13.7803 1.28033L5.28033 9.78033C4.98744 10.0732 4.51256 10.0732 4.21967 9.78033C3.92678 9.48744 3.92678 9.01256 4.21967 8.71967L12.7197 0.21967C13.0126 -0.0732233 13.4874 -0.0732233 13.7803 0.21967Z" fill-rule="EVENODD"></path>
  <path d="M0.21967 4.71967C0.512563 4.42678 0.987437 4.42678 1.28033 4.71967L5.28033 8.71967C5.57322 9.01256 5.57322 9.48744 5.28033 9.78033C4.98744 10.0732 4.51256 10.0732 4.21967 9.78033L0.21967 5.78033C-0.0732233 5.48744 -0.0732233 5.01256 0.21967 4.71967Z" fill-rule="EVENODD"></path>
 </g>
</svg>