<svg viewBox="0 0 16 16" width="16" height="16" fill="currentColor" xmlns="http://www.w3.org/2000/svg">
 <g transform="translate(0.07133826613426208, 0.09343797713518143)">
  <path d="M9.49784 0.659027C8.61916 -0.219669 7.19452 -0.219677 6.31584 0.659011L0.659009 6.31584C-0.219677 7.19453 -0.219668 8.61917 0.659027 9.49784L6.31586 15.1545C7.19454 16.0332 8.61915 16.0332 9.49782 15.1545L15.1545 9.49782C16.0332 8.61915 16.0332 7.19454 15.1545 6.31586L9.49784 0.659027ZM11.209 6.68695C11.5019 6.39405 11.5019 5.91918 11.209 5.62629C10.9161 5.33339 10.4412 5.33339 10.1483 5.62629L6.67865 9.09596L5.20898 7.62629C4.91609 7.33339 4.44121 7.33339 4.14832 7.62629C3.85543 7.91918 3.85543 8.39405 4.14832 8.68695L6.14832 10.6869C6.44121 10.9798 6.91609 10.9798 7.20898 10.6869L11.209 6.68695Z" fill-rule="EVENODD"></path>
 </g>
</svg>