<svg viewBox="0 0 24 24" width="24" height="24" fill="black" xmlns="http://www.w3.org/2000/svg">
 <g transform="translate(1, 1)">
  <path d="M11 1.5C5.75329 1.5 1.5 5.75329 1.5 11C1.5 16.2467 5.75329 20.5 11 20.5C16.2467 20.5 20.5 16.2467 20.5 11C20.5 5.75329 16.2467 1.5 11 1.5ZM0 11C0 4.92487 4.92487 0 11 0C17.0751 0 22 4.92487 22 11C22 17.0751 17.0751 22 11 22C4.92487 22 0 17.0751 0 11Z" fill-rule="EVENODD"></path>
  <path d="M16.7803 7.21967C17.0732 7.51256 17.0732 7.98744 16.7803 8.28033L9.28033 15.7803C8.98744 16.0732 8.51256 16.0732 8.21967 15.7803C7.92678 15.4874 7.92678 15.0126 8.21967 14.7197L15.7197 7.21967C16.0126 6.92678 16.4874 6.92678 16.7803 7.21967Z" fill-rule="EVENODD"></path>
  <path d="M5.21967 11.7197C5.51256 11.4268 5.98744 11.4268 6.28033 11.7197L9.28033 14.7197C9.57322 15.0126 9.57322 15.4874 9.28033 15.7803C8.98744 16.0732 8.51256 16.0732 8.21967 15.7803L5.21967 12.7803C4.92678 12.4874 4.92678 12.0126 5.21967 11.7197Z" fill-rule="EVENODD"></path>
 </g>
</svg>