<svg viewBox="0 0 16 16" width="16" height="16" fill="currentColor" xmlns="http://www.w3.org/2000/svg">
 <g transform="translate(4, 3)">
  <path d="M1.2996 0.239665C1.01775 -0.0638681 0.543198 -0.081444 0.239665 0.200408C-0.0638681 0.48226 -0.081444 0.956809 0.200408 1.26034L3.45041 4.76034C3.59232 4.91317 3.79145 5 4 5C4.20855 5 4.40769 4.91317 4.5496 4.76034L7.7996 1.26034C8.08145 0.956809 8.06387 0.48226 7.76034 0.200408C7.45681 -0.081444 6.98226 -0.0638681 6.70041 0.239665L4 3.14779L1.2996 0.239665Z" fill-rule="NONZERO"></path>
  <path d="M1.2996 5.23967C1.01775 4.93613 0.543198 4.91856 0.239665 5.20041C-0.0638681 5.48226 -0.081444 5.95681 0.200408 6.26034L3.45041 9.76034C3.59232 9.91317 3.79145 10 4 10C4.20855 10 4.40769 9.91317 4.5496 9.76034L7.7996 6.26034C8.08145 5.95681 8.06387 5.48226 7.76034 5.20041C7.45681 4.91856 6.98226 4.93613 6.70041 5.23967L4 8.14779L1.2996 5.23967Z" fill-rule="NONZERO"></path>
 </g>
</svg>