<svg viewBox="0 0 24 24" width="24" height="24" fill="black" xmlns="http://www.w3.org/2000/svg">
 <g transform="translate(5.999998569488525, 4.999999523162842)">
  <path d="M0.232144 13.7925C0.531768 14.0785 1.00651 14.0675 1.29252 13.7679L6 8.83621L10.7075 13.7679C10.9935 14.0675 11.4682 14.0785 11.7679 13.7925C12.0675 13.5065 12.0785 13.0318 11.7925 12.7321L6.54252 7.23214C6.401 7.08388 6.20496 7 6 7C5.79504 7 5.59901 7.08388 5.45748 7.23214L0.207485 12.7321C-0.0785198 13.0318 -0.0674792 13.5065 0.232144 13.7925Z" fill-rule="EVENODD"></path>
  <path d="M0.232144 6.79252C0.531768 7.07852 1.00651 7.06748 1.29252 6.76786L6 1.83621L10.7075 6.76786C10.9935 7.06748 11.4682 7.07852 11.7679 6.79252C12.0675 6.50651 12.0785 6.03177 11.7925 5.73214L6.54252 0.232143C6.401 0.0838823 6.20496 0 6 0C5.79504 0 5.59901 0.0838823 5.45748 0.232143L0.207485 5.73214C-0.0785198 6.03177 -0.0674792 6.50651 0.232144 6.79252Z" fill-rule="EVENODD"></path>
 </g>
</svg>