<svg viewBox="0 0 24 24" width="24" height="24" fill="currentColor" xmlns="http://www.w3.org/2000/svg">
 <g transform="translate(6, 4.999998569488525)">
  <path d="M1.29252 6.76786C1.00651 7.06748 0.531768 7.07852 0.232144 6.79252C-0.0674792 6.50651 -0.0785198 6.03177 0.207485 5.73214L5.45748 0.232143C5.59901 0.0838823 5.79504 0 6 0C6.20496 0 6.401 0.0838823 6.54252 0.232143L11.7925 5.73214C12.0785 6.03177 12.0675 6.50651 11.7679 6.79252C11.4682 7.07852 10.9935 7.06748 10.7075 6.76786L6 1.83621L1.29252 6.76786Z" fill-rule="NONZERO"></path>
  <path d="M1.29252 13.7679C1.00651 14.0675 0.531768 14.0785 0.232144 13.7925C-0.0674792 13.5065 -0.0785198 13.0318 0.207485 12.7321L5.45748 7.23214C5.59901 7.08388 5.79504 7 6 7C6.20496 7 6.401 7.08388 6.54252 7.23214L11.7925 12.7321C12.0785 13.0318 12.0675 13.5065 11.7679 13.7925C11.4682 14.0785 10.9935 14.0675 10.7075 13.7679L6 8.83621L1.29252 13.7679Z" fill-rule="NONZERO"></path>
 </g>
</svg>