<svg viewBox="0 0 24 24" width="24" height="24" fill="currentColor" xmlns="http://www.w3.org/2000/svg">
 <g transform="translate(4.999998092651367, 5.999998092651367)">
  <path d="M6.76786 10.7075C7.06748 10.9935 7.07852 11.4682 6.79252 11.7679C6.50651 12.0675 6.03177 12.0785 5.73214 11.7925L0.232143 6.54252C0.0838826 6.401 0 6.20496 0 6C0 5.79504 0.0838825 5.59901 0.232143 5.45748L5.73214 0.207484C6.03177 -0.0785198 6.50651 -0.0674791 6.79252 0.232144C7.07852 0.531768 7.06748 1.00651 6.76786 1.29252L1.83621 6L6.76786 10.7075Z" fill-rule="NONZERO"></path>
  <path d="M13.7679 10.7075C14.0675 10.9935 14.0785 11.4682 13.7925 11.7679C13.5065 12.0675 13.0318 12.0785 12.7321 11.7925L7.23214 6.54252C7.08388 6.401 7 6.20496 7 6C7 5.79504 7.08388 5.59901 7.23214 5.45748L12.7321 0.207484C13.0318 -0.0785198 13.5065 -0.0674791 13.7925 0.232144C14.0785 0.531768 14.0675 1.00651 13.7679 1.29252L8.83621 6L13.7679 10.7075Z" fill-rule="NONZERO"></path>
 </g>
</svg>