<svg viewBox="0 0 24 24" width="24" height="24" fill="black" xmlns="http://www.w3.org/2000/svg">
 <g transform="translate(6.25, 5.25)">
  <path d="M1.28033 0.21967C0.987437 -0.0732233 0.512563 -0.0732233 0.21967 0.21967C-0.0732233 0.512563 -0.0732233 0.987437 0.21967 1.28033L5.21967 6.28033C5.51256 6.57322 5.98744 6.57322 6.28033 6.28033L11.2803 1.28033C11.5732 0.987437 11.5732 0.512563 11.2803 0.21967C10.9874 -0.0732233 10.5126 -0.0732233 10.2197 0.21967L5.75 4.68934L1.28033 0.21967Z" fill-rule="NONZERO"></path>
  <path d="M1.28033 7.21967C0.987437 6.92678 0.512563 6.92678 0.21967 7.21967C-0.0732233 7.51256 -0.0732233 7.98744 0.21967 8.28033L5.21967 13.2803C5.51256 13.5732 5.98744 13.5732 6.28033 13.2803L11.2803 8.28033C11.5732 7.98744 11.5732 7.51256 11.2803 7.21967C10.9874 6.92678 10.5126 6.92678 10.2197 7.21967L5.75 11.6893L1.28033 7.21967Z" fill-rule="NONZERO"></path>
 </g>
</svg>