<svg viewBox="0 0 16 16" width="16" height="16" fill="currentColor" xmlns="http://www.w3.org/2000/svg">
 <g transform="translate(2.9999964237213135, 4)">
  <path d="M4.76034 1.2996C5.06387 1.01775 5.08145 0.543198 4.7996 0.239665C4.51774 -0.0638681 4.0432 -0.081444 3.73966 0.200408L0.239662 3.45041C0.0868367 3.59232 0 3.79145 0 4C0 4.20855 0.0868366 4.40769 0.239662 4.5496L3.73966 7.7996C4.04319 8.08145 4.51774 8.06387 4.7996 7.76034C5.08145 7.45681 5.06387 6.98226 4.76034 6.70041L1.85221 4L4.76034 1.2996Z" fill-rule="NONZERO"></path>
  <path d="M9.76034 1.2996C10.0639 1.01775 10.0814 0.543198 9.7996 0.239665C9.51774 -0.0638681 9.0432 -0.081444 8.73966 0.200408L5.23966 3.45041C5.08684 3.59232 5 3.79145 5 4C5 4.20855 5.08684 4.40769 5.23966 4.5496L8.73966 7.7996C9.04319 8.08145 9.51774 8.06387 9.7996 7.76034C10.0814 7.45681 10.0639 6.98226 9.76034 6.70041L6.85221 4L9.76034 1.2996Z" fill-rule="NONZERO"></path>
 </g>
</svg>