<svg viewBox="0 0 16 16" width="16" height="16" fill="black" xmlns="http://www.w3.org/2000/svg">
 <g transform="translate(2.9999992847442627, 3.9999969005584717)">
  <path d="M4.7996 0.239665C5.08145 0.543198 5.06387 1.01775 4.76034 1.2996L1.85221 4L4.76034 6.70041C5.06387 6.98226 5.08145 7.45681 4.79959 7.76034C4.51774 8.06387 4.04319 8.08145 3.73966 7.7996L0.239662 4.5496C0.0868363 4.40769 -9.11584e-09 4.20855 2.27374e-13 4C9.11631e-09 3.79145 0.0868364 3.59232 0.239662 3.45041L3.73966 0.200408C4.04319 -0.081444 4.51774 -0.0638681 4.7996 0.239665Z" fill-rule="EVENODD"></path>
  <path d="M9.7996 0.239665C10.0814 0.543198 10.0639 1.01775 9.76034 1.2996L6.85221 4L9.76034 6.70041C10.0639 6.98226 10.0814 7.45681 9.79959 7.76034C9.51774 8.06387 9.04319 8.08145 8.73966 7.7996L5.23966 4.5496C5.08684 4.40769 5 4.20855 5 4C5 3.79145 5.08684 3.59232 5.23966 3.45041L8.73966 0.200408C9.04319 -0.081444 9.51774 -0.0638681 9.7996 0.239665Z" fill-rule="EVENODD"></path>
 </g>
</svg>