<svg viewBox="0 0 24 24" width="24" height="24" fill="black" xmlns="http://www.w3.org/2000/svg">
 <g transform="translate(5.25, 6.25)">
  <path d="M6.28033 1.28033C6.57322 0.987437 6.57322 0.512563 6.28033 0.21967C5.98744 -0.0732233 5.51256 -0.0732233 5.21967 0.21967L0.21967 5.21967C-0.0732233 5.51256 -0.0732233 5.98744 0.21967 6.28033L5.21967 11.2803C5.51256 11.5732 5.98744 11.5732 6.28033 11.2803C6.57322 10.9874 6.57322 10.5126 6.28033 10.2197L1.81066 5.75L6.28033 1.28033Z" fill-rule="NONZERO"></path>
  <path d="M13.2803 1.28033C13.5732 0.987437 13.5732 0.512563 13.2803 0.21967C12.9874 -0.0732233 12.5126 -0.0732233 12.2197 0.21967L7.21967 5.21967C6.92678 5.51256 6.92678 5.98744 7.21967 6.28033L12.2197 11.2803C12.5126 11.5732 12.9874 11.5732 13.2803 11.2803C13.5732 10.9874 13.5732 10.5126 13.2803 10.2197L8.81066 5.75L13.2803 1.28033Z" fill-rule="NONZERO"></path>
 </g>
</svg>