<svg viewBox="0 0 16 16" width="16" height="16" fill="currentColor" xmlns="http://www.w3.org/2000/svg">
 <g transform="translate(1, 0)">
  <path d="M10.975 1L11.75 1C12.9926 1 14 2.00736 14 3.25L14 13.75C14 14.9926 12.9926 16 11.75 16L2.25 16C1.00736 16 0 14.9926 0 13.75L0 3.25C0 2.00736 1.00736 1 2.25 1L3.025 1C3.14082 0.42944 3.64526 0 4.25 0L9.75 0C10.3547 0 10.8592 0.42944 10.975 1ZM3 2.5L2.25 2.5C1.83579 2.5 1.5 2.83579 1.5 3.25L1.5 13.75C1.5 14.1642 1.83579 14.5 2.25 14.5L11.75 14.5C12.1642 14.5 12.5 14.1642 12.5 13.75L12.5 3.25C12.5 2.83579 12.1642 2.5 11.75 2.5L11 2.5L11 2.75C11 3.44036 10.4404 4 9.75 4L4.25 4C3.55964 4 3 3.44036 3 2.75L3 2.5ZM4.5 2.5L4.5 1.5L9.5 1.5L9.5 2.5L4.5 2.5Z" fill-rule="EVENODD"></path>
 </g>
</svg>