<svg viewBox="0 0 16 16" width="16" height="16" fill="currentColor" xmlns="http://www.w3.org/2000/svg">
 <g transform="translate(1, 0)">
  <path d="M2.25 2.5C1.83579 2.5 1.5 2.83579 1.5 3.25L1.5 13.75C1.5 14.1642 1.83579 14.5 2.25 14.5L11.75 14.5C12.1642 14.5 12.5 14.1642 12.5 13.75L12.5 3.25C12.5 2.83579 12.1642 2.5 11.75 2.5L11 2.5L10.4091 2.5C9.99488 2.5 9.65909 2.16421 9.65909 1.75C9.65909 1.33579 9.99488 1 10.4091 1L11.75 1C12.9926 1 14 2.00736 14 3.25L14 13.75C14 14.9926 12.9926 16 11.75 16L2.25 16C1.00736 16 0 14.9926 0 13.75L0 3.25C0 2.00736 1.00736 1 2.25 1L3.59091 1C4.00512 1 4.34091 1.33579 4.34091 1.75C4.34091 2.16421 4.00512 2.5 3.59091 2.5L3 2.5L2.25 2.5Z" fill-rule="EVENODD"></path>
  <path d="M3 1.25C3 0.559644 3.55964 0 4.25 0L9.75 0C10.4404 0 11 0.559644 11 1.25L11 2.5L11 2.75C11 3.44036 10.4404 4 9.75 4L4.25 4C3.55964 4 3 3.44036 3 2.75L3 2.5L3 1.25ZM4.5 1.5L4.5 2.5L9.5 2.5L9.5 1.5L4.5 1.5Z" fill-rule="EVENODD"></path>
  <path d="M2.25 2.5C1.83579 2.5 1.5 2.83579 1.5 3.25L1.5 13.75C1.5 14.1642 1.83579 14.5 2.25 14.5L11.75 14.5C12.1642 14.5 12.5 14.1642 12.5 13.75L12.5 3.25C12.5 2.83579 12.1642 2.5 11.75 2.5L11 2.5L11 2.75C11 3.44036 10.4404 4 9.75 4L4.25 4C3.55964 4 3 3.44036 3 2.75L3 2.5L2.25 2.5ZM10.7803 6.21967C11.0732 6.51256 11.0732 6.98744 10.7803 7.28033L6.28033 11.7803C5.98744 12.0732 5.51256 12.0732 5.21967 11.7803L3.21967 9.78033C2.92678 9.48744 2.92678 9.01256 3.21967 8.71967C3.51256 8.42678 3.98744 8.42678 4.28033 8.71967L5.75 10.1893L9.71967 6.21967C10.0126 5.92678 10.4874 5.92678 10.7803 6.21967Z" fill-rule="EVENODD"></path>
 </g>
</svg>