<svg viewBox="0 0 24 24" width="24" height="24" fill="black" xmlns="http://www.w3.org/2000/svg">
 <g transform="translate(3, 1)">
  <path d="M4 8.75C4 8.33579 4.33579 8 4.75 8L9.25 8C9.66421 8 10 8.33579 10 8.75C10 9.16421 9.66421 9.5 9.25 9.5L4.75 9.5C4.33579 9.5 4 9.16421 4 8.75Z" fill-rule="EVENODD"></path>
  <path d="M4 16.75C4 16.3358 4.33579 16 4.75 16L9.25 16C9.66421 16 10 16.3358 10 16.75C10 17.1642 9.66421 17.5 9.25 17.5L4.75 17.5C4.33579 17.5 4 17.1642 4 16.75Z" fill-rule="EVENODD"></path>
  <path d="M4 12.75C4 12.3358 4.33579 12 4.75 12L7.25 12C7.66421 12 8 12.3358 8 12.75C8 13.1642 7.66421 13.5 7.25 13.5L4.75 13.5C4.33579 13.5 4 13.1642 4 12.75Z" fill-rule="EVENODD"></path>
  <path d="M19.75 13C19.75 13.4142 19.4142 13.75 19 13.75L10.75 13.75C10.3358 13.75 10 13.4142 10 13C10 12.5858 10.3358 12.25 10.75 12.25L19 12.25C19.4142 12.25 19.75 12.5858 19.75 13Z" fill-rule="EVENODD"></path>
  <path d="M14.7996 9.23966C14.5177 8.93613 14.0432 8.91855 13.7397 9.20041L10.2397 12.4504C10.0868 12.5923 10 12.7914 10 13C10 13.2086 10.0868 13.4077 10.2397 13.5496L13.7397 16.7996C14.0432 17.0814 14.5177 17.0639 14.7996 16.7603C15.0814 16.4568 15.0639 15.9823 14.7603 15.7004L11.8522 13L14.7603 10.2996C15.0639 10.0177 15.0814 9.54319 14.7996 9.23966Z" fill-rule="EVENODD"></path>
  <path d="M2.75 3.5C2.05964 3.5 1.5 4.05964 1.5 4.75L1.5 19.25C1.5 19.9404 2.05964 20.5 2.75 20.5L15.25 20.5C15.9404 20.5 16.5 19.9404 16.5 19.25L16.5 16.75C16.5 16.3358 16.8358 16 17.25 16C17.6642 16 18 16.3358 18 16.75L18 19.25C18 20.7688 16.7688 22 15.25 22L2.75 22C1.23122 22 0 20.7688 0 19.25L0 4.75C0 3.23122 1.23122 2 2.75 2L4.5 2C4.91421 2 5.25 2.33579 5.25 2.75C5.25 3.16421 4.91421 3.5 4.5 3.5L2.75 3.5ZM12.75 2.75C12.75 2.33579 13.0858 2 13.5 2L15.25 2C16.7688 2 18 3.23122 18 4.75L18 9.25C18 9.66421 17.6642 10 17.25 10C16.8358 10 16.5 9.66421 16.5 9.25L16.5 4.75C16.5 4.05964 15.9404 3.5 15.25 3.5L13.5 3.5C13.0858 3.5 12.75 3.16421 12.75 2.75Z" fill-rule="EVENODD"></path>
  <path d="M4 1.75C4 0.783502 4.7835 0 5.75 0L12.25 0C13.2165 0 14 0.783502 14 1.75L14 3.25C14 4.2165 13.2165 5 12.25 5L5.75 5C4.7835 5 4 4.2165 4 3.25L4 1.75ZM5.75 1.5C5.61193 1.5 5.5 1.61193 5.5 1.75L5.5 3.25C5.5 3.38807 5.61193 3.5 5.75 3.5L12.25 3.5C12.3881 3.5 12.5 3.38807 12.5 3.25L12.5 1.75C12.5 1.61193 12.3881 1.5 12.25 1.5L5.75 1.5Z" fill-rule="EVENODD"></path>
 </g>
</svg>