<svg viewBox="0 0 16 16" width="16" height="16" fill="currentColor" xmlns="http://www.w3.org/2000/svg">
 <g transform="translate(1, 0)">
  <path d="M2.25 2.5L3 2.5L3 2.75C3 3.44036 3.55964 4 4.25 4L9.75 4C10.4404 4 11 3.44036 11 2.75L11 2.5L11.75 2.5C12.1642 2.5 12.5 2.83579 12.5 3.25L12.5 6.25C12.5 6.66421 12.8358 7 13.25 7C13.6642 7 14 6.66421 14 6.25L14 3.25C14 2.00736 12.9926 1 11.75 1L10.975 1C10.8592 0.42944 10.3547 0 9.75 0L4.25 0C3.64526 0 3.14082 0.42944 3.025 1L2.25 1C1.00736 1 0 2.00736 0 3.25L0 13.75C0 14.9926 1.00736 16 2.25 16L11.75 16C12.9926 16 14 14.9926 14 13.75L14 12.75C14 12.3358 13.6642 12 13.25 12C12.8358 12 12.5 12.3358 12.5 12.75L12.5 13.75C12.5 14.1642 12.1642 14.5 11.75 14.5L2.25 14.5C1.83579 14.5 1.5 14.1642 1.5 13.75L1.5 3.25C1.5 2.83579 1.83579 2.5 2.25 2.5ZM4.5 1.5L4.5 2.5L9.5 2.5L9.5 1.5L4.5 1.5Z" fill-rule="EVENODD"></path>
  <path d="M3.75 5.5C3.33579 5.5 3 5.83579 3 6.25C3 6.66421 3.33579 7 3.75 7L6.75 7C7.16421 7 7.5 6.66421 7.5 6.25C7.5 5.83579 7.16421 5.5 6.75 5.5L3.75 5.5Z" fill-rule="NONZERO"></path>
  <path d="M3 12.25C3 11.8358 3.33579 11.5 3.75 11.5L6.75 11.5C7.16421 11.5 7.5 11.8358 7.5 12.25C7.5 12.6642 7.16421 13 6.75 13L3.75 13C3.33579 13 3 12.6642 3 12.25Z" fill-rule="NONZERO"></path>
  <path d="M3.75 8.5C3.33579 8.5 3 8.83579 3 9.25C3 9.66421 3.33579 10 3.75 10L5.75 10C6.16421 10 6.5 9.66421 6.5 9.25C6.5 8.83579 6.16421 8.5 5.75 8.5L3.75 8.5Z" fill-rule="NONZERO"></path>
  <path d="M15 9.25C15 9.66421 14.6642 10 14.25 10L10.0607 10L11.2803 11.2197C11.5732 11.5126 11.5732 11.9874 11.2803 12.2803C10.9874 12.5732 10.5126 12.5732 10.2197 12.2803L7.72027 9.78093C7.57961 9.64027 7.5 9.44891 7.5 9.25C7.5 9.05109 7.57902 8.86032 7.71967 8.71967L10.2197 6.21967C10.5126 5.92678 10.9874 5.92678 11.2803 6.21967C11.5732 6.51256 11.5732 6.98744 11.2803 7.28033L10.0607 8.5L14.25 8.5C14.6642 8.5 15 8.83579 15 9.25Z" fill-rule="NONZERO"></path>
 </g>
</svg>