<svg viewBox="0 0 16 16" width="16" height="16" fill="black" xmlns="http://www.w3.org/2000/svg">
 <g transform="translate(0, 0)">
  <path d="M8 1.5C4.41015 1.5 1.5 4.41015 1.5 8C1.5 11.5899 4.41015 14.5 8 14.5C11.5899 14.5 14.5 11.5899 14.5 8C14.5 4.41015 11.5899 1.5 8 1.5ZM0 8C0 3.58172 3.58172 0 8 0C12.4183 0 16 3.58172 16 8C16 12.4183 12.4183 16 8 16C3.58172 16 0 12.4183 0 8Z" fill-rule="EVENODD"></path>
  <path d="M7.75 3C8.16421 3 8.5 3.33579 8.5 3.75L8.5 7.53647L10.5854 8.57918C10.9559 8.76442 11.1061 9.21493 10.9208 9.58541C10.7356 9.95589 10.2851 10.1061 9.91459 9.92082L7.41459 8.67082C7.1605 8.54378 7 8.28408 7 8L7 3.75C7 3.33579 7.33579 3 7.75 3Z" fill-rule="EVENODD"></path>
 </g>
</svg>