<svg viewBox="0 0 24 24" width="24" height="24" fill="currentColor" xmlns="http://www.w3.org/2000/svg">
 <g transform="translate(-0.00000003272930371167604, 0.9999997615814209)">
  <path d="M7.23503 16.7953C7.53617 17.0797 8.01085 17.0661 8.29526 16.765L12 12.8423L15.7047 16.765C15.9891 17.0661 16.4638 17.0797 16.765 16.7953C17.0661 16.5109 17.0797 16.0362 16.7953 15.735L12.5453 11.235C12.4036 11.085 12.2063 11 12 11C11.7937 11 11.5964 11.085 11.4547 11.235L7.20474 15.735C6.92033 16.0362 6.93389 16.5109 7.23503 16.7953Z" fill-rule="EVENODD"></path>
  <path d="M12 11C12.4142 11 12.75 11.3358 12.75 11.75L12.75 20.25C12.75 20.6642 12.4142 21 12 21C11.5858 21 11.25 20.6642 11.25 20.25L11.25 11.75C11.25 11.3358 11.5858 11 12 11Z" fill-rule="EVENODD"></path>
  <path d="M8.02636 0.0463658C9.43553 -0.0983215 10.8585 0.0967806 12.1779 0.615397C13.4972 1.134 14.6748 1.96111 15.614 3.02802C16.4237 3.94798 17.0363 5.02356 17.4162 6.1872L18.1424 6.1872C19.4899 6.1888 20.796 6.65783 21.8398 7.5143C22.8834 8.37067 23.602 9.56201 23.8765 10.8876C24.1509 12.2132 23.9649 13.5938 23.3491 14.7981C22.7332 16.0024 21.7244 16.9579 20.4908 17.5027C20.1119 17.67 19.6691 17.4985 19.5018 17.1196C19.3344 16.7407 19.5059 16.2978 19.8848 16.1305C20.8015 15.7257 21.5536 15.0146 22.0136 14.1151C22.4736 13.2156 22.6129 12.1832 22.4076 11.1918C22.2024 10.2003 21.6654 9.31155 20.8883 8.67389C20.1114 8.03642 19.1416 7.68848 18.1419 7.6872C18.1417 7.6872 18.142 7.6872 18.1419 7.6872L16.8537 7.6872C16.5112 7.6872 16.2122 7.45511 16.1272 7.12328C15.8323 5.97168 15.2703 4.90778 14.488 4.0191C13.7058 3.13046 12.7258 2.4425 11.6291 2.01142C10.5325 1.58035 9.35018 1.41833 8.17957 1.53852C7.00895 1.65872 5.88303 2.05774 4.89462 2.70313C3.90619 3.34855 3.08342 4.22199 2.4946 5.2519C1.90576 6.28184 1.5679 7.43853 1.50922 8.62663C1.45053 9.81472 1.67274 10.9997 2.15727 12.0837C2.64179 13.1678 3.3746 14.1196 4.29477 14.861C4.61731 15.1209 4.6681 15.593 4.40822 15.9156C4.14833 16.2381 3.67618 16.2889 3.35364 16.029C2.24804 15.1382 1.36878 13.9956 0.787835 12.6958C0.206898 11.3961 -0.0592622 9.97602 0.0110426 8.55263C0.0813475 7.12923 0.486132 5.74274 1.19239 4.5074C1.89867 3.27204 2.88636 2.223 4.07453 1.44717C5.26272 0.671325 6.61721 0.191052 8.02636 0.0463658Z" fill-rule="EVENODD"></path>
 </g>
</svg>