<svg viewBox="0 0 16 16" width="16" height="16" fill="currentColor" xmlns="http://www.w3.org/2000/svg">
 <g transform="translate(0.000000003758259481401183, 1)">
  <path d="M7.23467 0.123087C6.13198 -0.102972 4.98772 -0.0164688 3.9318 0.372852C2.87585 0.76218 1.95031 1.43885 1.26057 2.32637C0.570819 3.21393 0.144631 4.2767 0.0307977 5.39396C-0.0830369 6.51123 0.120097 7.63779 0.61692 8.64555C0.912493 9.24509 1.30493 9.78821 1.77569 10.2547C2.06993 10.5462 2.5448 10.544 2.83634 10.2498C3.12788 9.95553 3.12569 9.48067 2.83146 9.18912C2.47816 8.83907 2.18387 8.43169 1.96231 7.98227C1.58991 7.22691 1.43781 6.38288 1.52307 5.546C1.60834 4.70912 1.92761 3.91253 2.44497 3.24681C2.96235 2.58107 3.65716 2.07282 4.4507 1.78024C5.24427 1.48765 6.10447 1.42258 6.93343 1.59253C7.76238 1.76247 8.52648 2.1605 9.13905 2.74102C9.75159 3.3215 10.188 4.06114 10.3992 4.87571C10.485 5.2065 10.7835 5.4375 11.1252 5.4375L11.9554 5.4375C12.6313 5.4375 13.2788 5.70492 13.7558 6.17996C14.2327 6.65489 14.5 7.2984 14.5 7.96875C14.5 8.6391 14.2327 9.2826 13.7558 9.75754C13.6276 9.88517 13.4872 9.99777 13.3373 10.0942C12.9889 10.3183 12.8882 10.7824 13.1123 11.1308C13.3364 11.4791 13.8005 11.5799 14.1488 11.3558C14.3872 11.2024 14.6105 11.0233 14.8143 10.8203C15.5731 10.0646 16 9.03889 16 7.96875C16 6.89861 15.5731 5.87292 14.8143 5.11715C14.0556 4.36148 13.0271 3.9375 11.9554 3.9375L11.6757 3.9375C11.358 3.07283 10.844 2.29016 10.1708 1.65225C9.35468 0.878798 8.33738 0.349148 7.23467 0.123087Z" fill-rule="NONZERO"></path>
  <path d="M8 6.25C8.41421 6.25 8.75 6.58579 8.75 7L8.75 11.4393L10.2197 9.96967C10.5126 9.67678 10.9874 9.67678 11.2803 9.96967C11.5732 10.2626 11.5732 10.7374 11.2803 11.0303L8.53033 13.7803C8.38968 13.921 8.19891 14 8 14C7.80109 14 7.61032 13.921 7.46967 13.7803L4.71967 11.0303C4.42678 10.7374 4.42678 10.2626 4.71967 9.96967C5.01256 9.67678 5.48744 9.67678 5.78033 9.96967L7.25 11.4393L7.25 7C7.25 6.58579 7.58579 6.25 8 6.25Z" fill-rule="NONZERO"></path>
 </g>
</svg>