<svg viewBox="0 0 24 24" width="24" height="24" fill="black" xmlns="http://www.w3.org/2000/svg">
 <g transform="translate(-0.00000004412959242472425, 0.9999997615814209)">
  <path d="M7.4625 0.122049C8.92199 -0.12275 10.4189 0.00196186 11.8185 0.484842C13.2182 0.967712 14.4764 1.79344 15.4804 2.88726C16.3531 3.83793 17.0101 4.96526 17.4096 6.19085C18.9763 6.21774 20.6433 6.41239 22.0698 7.71208C23.148 8.69445 23.8247 10.0447 23.9704 11.5001C24.1161 12.9555 23.7207 14.4143 22.8597 15.5935C21.9985 16.7728 20.7325 17.5888 19.3065 17.8809C18.9007 17.964 18.5043 17.7025 18.4212 17.2967C18.3381 16.8909 18.5997 16.4946 19.0054 16.4114C20.0637 16.1947 21.0059 15.5886 21.6483 14.7089C22.2908 13.829 22.5869 12.7386 22.4778 11.6496C22.3688 10.5605 21.8626 9.55261 21.0595 8.82086C19.9276 7.78956 18.5782 7.6868 16.8457 7.6868C16.5032 7.6868 16.2041 7.45469 16.1192 7.12282C15.811 5.91938 15.2117 4.8126 14.3754 3.90162C13.5392 2.99069 12.4924 2.30409 11.3293 1.90283C10.1663 1.50158 8.9229 1.39805 7.71062 1.60138C6.49833 1.80472 5.35452 2.30867 4.382 3.06857C3.40943 3.8285 2.63851 4.82071 2.13906 5.95655C1.63959 7.09243 1.42743 8.33599 1.5219 9.57548C1.61637 10.815 2.01446 12.0109 2.67995 13.0561C3.34542 14.1012 4.25728 14.9625 5.33314 15.5632C5.69479 15.7652 5.82426 16.2221 5.62231 16.5837C5.42037 16.9454 4.96348 17.0748 4.60183 16.8729C3.30804 16.1504 2.21306 15.1155 1.41469 13.8617C0.616338 12.608 0.139408 11.1743 0.0262383 9.68948C-0.0869312 8.20465 0.167148 6.71453 0.765943 5.35277C1.36475 3.99097 2.28973 2.79979 3.45845 1.8866C4.6272 0.973372 6.00302 0.366844 7.4625 0.122049Z" fill-rule="EVENODD"></path>
  <path d="M14.0293 8.9686C14.3227 9.2609 14.3237 9.73577 14.0314 10.0293L10.1584 13.9179L15.4706 15.5524C15.7158 15.6279 15.9055 15.8235 15.9733 16.071C16.0412 16.3185 15.9777 16.5835 15.8052 16.7734L11.0552 22.0042C10.7768 22.3108 10.3024 22.3337 9.9958 22.0552C9.68915 21.7768 9.66631 21.3024 9.94477 20.9958L13.9012 16.6389L8.52944 14.9861C8.27829 14.9088 8.0859 14.7057 8.0223 14.4508C7.9587 14.1958 8.03317 13.9262 8.2186 13.74L12.9686 8.97074C13.2609 8.67726 13.7358 8.6763 14.0293 8.9686Z" fill-rule="EVENODD"></path>
 </g>
</svg>