<svg viewBox="0 0 16 16" width="16" height="16" fill="currentColor" xmlns="http://www.w3.org/2000/svg">
 <g transform="translate(-0.0000005559384135267464, 0.9999998807907104)">
  <path d="M3.9318 0.372852C4.98772 -0.0164688 6.13198 -0.102972 7.23467 0.123087C8.33738 0.349148 9.35468 0.878798 10.1708 1.65225C10.844 2.29016 11.358 3.07283 11.6757 3.9375L11.9554 3.9375C13.0271 3.9375 14.0556 4.36148 14.8143 5.11715C15.5731 5.87292 16 6.89861 16 7.96875C16 9.03889 15.5731 10.0646 14.8143 10.8203C14.6105 11.0233 14.3872 11.2024 14.1488 11.3558C13.8005 11.5799 13.3364 11.4791 13.1123 11.1308C12.8882 10.7824 12.9889 10.3183 13.3373 10.0942C13.4872 9.99777 13.6276 9.88517 13.7558 9.75754C14.2327 9.2826 14.5 8.6391 14.5 7.96875C14.5 7.2984 14.2327 6.65489 13.7558 6.17996C13.2788 5.70492 12.6313 5.4375 11.9554 5.4375L11.1252 5.4375C10.7835 5.4375 10.485 5.2065 10.3992 4.87571C10.188 4.06114 9.75159 3.3215 9.13905 2.74102C8.52648 2.1605 7.76238 1.76247 6.93343 1.59253C6.10447 1.42258 5.24427 1.48765 4.4507 1.78024C3.65716 2.07282 2.96235 2.58107 2.44497 3.24681C1.92761 3.91253 1.60834 4.70912 1.52307 5.546C1.43781 6.38288 1.58991 7.22691 1.96231 7.98227C2.18387 8.43169 2.47816 8.83907 2.83146 9.18912C3.12569 9.48067 3.12788 9.95553 2.83634 10.2498C2.5448 10.544 2.06993 10.5462 1.77569 10.2547C1.30493 9.78821 0.912493 9.24509 0.61692 8.64555C0.120097 7.63779 -0.0830369 6.51123 0.0307977 5.39396C0.144631 4.2767 0.570819 3.21393 1.26057 2.32637C1.95031 1.43885 2.87585 0.76218 3.9318 0.372852Z" fill-rule="EVENODD"></path>
  <path d="M10.7803 8.21967C11.0732 8.51256 11.0732 8.98744 10.7803 9.28033L6.28033 13.7803C5.98744 14.0732 5.51256 14.0732 5.21967 13.7803C4.92678 13.4874 4.92678 13.0126 5.21967 12.7197L9.71967 8.21967C10.0126 7.92678 10.4874 7.92678 10.7803 8.21967Z" fill-rule="EVENODD"></path>
  <path d="M5.21967 8.21967C5.51256 7.92678 5.98744 7.92678 6.28033 8.21967L10.7803 12.7197C11.0732 13.0126 11.0732 13.4874 10.7803 13.7803C10.4874 14.0732 10.0126 14.0732 9.71967 13.7803L5.21967 9.28033C4.92678 8.98744 4.92678 8.51256 5.21967 8.21967Z" fill-rule="EVENODD"></path>
 </g>
</svg>