<svg viewBox="0 0 16 16" width="16" height="16" fill="black" xmlns="http://www.w3.org/2000/svg">
 <g transform="translate(-0.000000546463752471027, 1.9999998807907104)">
  <path d="M3.93179 0.37285C4.98771 -0.0164688 6.13197 -0.102972 7.23466 0.123086C8.33737 0.349147 9.35467 0.878794 10.1708 1.65225C10.844 2.29015 11.358 3.07282 11.6757 3.93748L11.9554 3.93748C13.0271 3.93748 14.0556 4.36147 14.8143 5.11713C15.5731 5.8729 16 6.89859 16 7.96872C16 9.03885 15.5731 10.0645 14.8143 10.8203C14.0556 11.576 13.0271 12 11.9554 12L6.03326 12C6.03078 12 6.02829 12 6.02579 12C4.90005 12.0008 3.79643 11.6872 2.84032 11.0944C1.88417 10.5016 1.11373 9.65329 0.616922 8.64556C0.120097 7.63781 -0.0830371 6.51125 0.0307977 5.39398C0.144632 4.27672 0.57082 3.21396 1.26058 2.32641C1.94849 1.44122 2.87099 0.765783 3.92346 0.375973C3.92623 0.374917 3.929 0.373876 3.93179 0.37285ZM4.45791 1.77758C4.45552 1.77849 4.45311 1.77939 4.45071 1.78028C3.65716 2.07286 2.96235 2.58111 2.44497 3.24685C1.92761 3.91257 1.60834 4.70915 1.52307 5.54603C1.43781 6.3829 1.58991 7.22693 1.96231 7.98229C2.33471 8.73767 2.91261 9.37431 3.63072 9.81954C4.34676 10.2635 5.17342 10.4992 6.01726 10.5C6.01991 10.5 6.02256 10.5 6.02522 10.5L11.9554 10.5C12.6313 10.5 13.2788 10.2325 13.7558 9.7575C14.2327 9.28257 14.5 8.63906 14.5 7.96872C14.5 7.29838 14.2327 6.65487 13.7558 6.17994C13.2788 5.7049 12.6313 5.43748 11.9554 5.43748L11.1252 5.43748C10.7835 5.43748 10.485 5.20649 10.3992 4.8757C10.188 4.06113 9.75159 3.3215 9.13905 2.74101C8.52648 2.1605 7.76237 1.76246 6.93342 1.59253C6.10697 1.4231 5.24948 1.48725 4.45791 1.77758Z" fill-rule="EVENODD"></path>
 </g>
</svg>