<svg viewBox="0 0 24 24" width="24" height="24" fill="currentColor" xmlns="http://www.w3.org/2000/svg">
 <g transform="translate(0.0000000002510205376893282, 1)">
  <path d="M12.1779 0.615397C10.8585 0.0967806 9.43553 -0.0983215 8.02636 0.0463658C6.61721 0.191052 5.26272 0.671325 4.07453 1.44717C2.88636 2.223 1.89867 3.27204 1.19239 4.5074C0.486132 5.74274 0.0813475 7.12923 0.0110426 8.55263C-0.0592622 9.97602 0.206898 11.3961 0.787835 12.6958C1.36878 13.9956 2.24804 15.1382 3.35364 16.029C3.67618 16.2889 4.14833 16.2381 4.40822 15.9156C4.6681 15.593 4.61731 15.1209 4.29477 14.861C3.3746 14.1196 2.64179 13.1678 2.15727 12.0837C1.67274 10.9997 1.45053 9.81472 1.50922 8.62663C1.5679 7.43853 1.90576 6.28184 2.4946 5.2519C3.08342 4.22199 3.90619 3.34855 4.89462 2.70313C5.88303 2.05774 7.00895 1.65872 8.17957 1.53852C9.35018 1.41833 10.5325 1.58035 11.6291 2.01142C12.7258 2.4425 13.7058 3.13046 14.488 4.0191C15.2703 4.90778 15.8323 5.97168 16.1272 7.12328C16.2122 7.45511 16.5112 7.6872 16.8537 7.6872L18.1419 7.6872C19.1416 7.68848 20.1114 8.03642 20.8883 8.67389C21.6654 9.31155 22.2024 10.2003 22.4076 11.1918C22.6129 12.1832 22.4736 13.2156 22.0136 14.1151C21.5536 15.0146 20.8015 15.7257 19.8848 16.1305C19.5059 16.2978 19.3344 16.7407 19.5018 17.1196C19.6691 17.4985 20.1119 17.67 20.4908 17.5027C21.7244 16.9579 22.7332 16.0024 23.3491 14.7981C23.9649 13.5938 24.1509 12.2132 23.8765 10.8876C23.602 9.56201 22.8834 8.37067 21.8398 7.5143C20.796 6.65783 19.4899 6.1888 18.1424 6.1872L17.4162 6.1872C17.0363 5.02356 16.4237 3.94798 15.614 3.02802C14.6748 1.96111 13.4972 1.134 12.1779 0.615397Z" fill-rule="NONZERO"></path>
  <path d="M7.23503 16.7953C7.53617 17.0797 8.01085 17.0661 8.29526 16.765L11.25 13.6364L11.25 20.25C11.25 20.6642 11.5858 21 12 21C12.4142 21 12.75 20.6642 12.75 20.25L12.75 13.6364L15.7047 16.765C15.9892 17.0661 16.4638 17.0797 16.765 16.7953C17.0661 16.5108 17.0797 16.0362 16.7953 15.735L12.5453 11.235C12.5336 11.2227 12.5216 11.2108 12.5093 11.1994C12.3741 11.0743 12.1971 11.0031 12.0121 11.0001L12 11L11.9879 11.0001C11.7772 11.0034 11.5875 11.0937 11.4533 11.2366L7.20474 15.735C6.92033 16.0362 6.9339 16.5108 7.23503 16.7953Z" fill-rule="NONZERO"></path>
 </g>
</svg>