<svg viewBox="0 0 16 16" width="16" height="16" fill="currentColor" xmlns="http://www.w3.org/2000/svg">
 <g transform="translate(0, 1.9998779296875)">
  <path d="M9.42367 0.020566C9.02072 -0.0753743 8.61629 0.173506 8.52035 0.576455L6.02035 11.0765C5.92441 11.4794 6.17329 11.8838 6.57624 11.9798C6.97919 12.0757 7.38362 11.8268 7.47956 11.4239L9.97956 0.923886C10.0755 0.520937 9.82662 0.116506 9.42367 0.020566Z" fill-rule="NONZERO"></path>
  <path d="M11.2004 2.23979C11.4823 1.93625 11.9568 1.91868 12.2603 2.20053L15.7603 5.45053C15.9132 5.59244 16 5.79157 16 6.00013C16 6.20868 15.9132 6.40781 15.7603 6.54972L12.2603 9.79972C11.9568 10.0816 11.4823 10.064 11.2004 9.76046C10.9186 9.45693 10.9361 8.98238 11.2397 8.70053L14.1478 6.00013L11.2397 3.29972C10.9361 3.01787 10.9186 2.54332 11.2004 2.23979Z" fill-rule="NONZERO"></path>
  <path d="M4.76034 3.29972C5.06387 3.01787 5.08145 2.54332 4.7996 2.23979C4.51774 1.93625 4.04319 1.91868 3.73966 2.20053L0.239662 5.45053C0.0868364 5.59244 0 5.79157 0 6.00013C0 6.20868 0.0868364 6.40781 0.239662 6.54972L3.73966 9.79972C4.04319 10.0816 4.51774 10.064 4.7996 9.76046C5.08145 9.45693 5.06387 8.98238 4.76034 8.70053L1.85221 6.00013L4.76034 3.29972Z" fill-rule="NONZERO"></path>
 </g>
</svg>