<svg viewBox="0 0 24 24" width="24" height="24" fill="black" xmlns="http://www.w3.org/2000/svg">
 <g transform="translate(1, 2.999811887741089)">
  <path d="M15.2075 3.23233C15.4935 2.93271 15.9682 2.92167 16.2679 3.20767L21.7679 8.45767C21.9161 8.59919 22 8.79523 22 9.00019C22 9.20515 21.9161 9.40118 21.7679 9.5427L16.2679 14.7927C15.9682 15.0787 15.4935 15.0677 15.2075 14.768C14.9215 14.4684 14.9325 13.9937 15.2321 13.7077L20.1638 9.00019L15.2321 4.2927C14.9325 4.0067 14.9215 3.53195 15.2075 3.23233Z" fill-rule="EVENODD"></path>
  <path d="M13.4473 0.0266153C13.0477 -0.0823715 12.6354 0.153232 12.5264 0.55285L8.02643 17.0529C7.91744 17.4525 8.15304 17.8648 8.55266 17.9738C8.95228 18.0827 9.36459 17.8471 9.47357 17.4475L13.9736 0.947526C14.0826 0.547908 13.847 0.135602 13.4473 0.0266153Z" fill-rule="EVENODD"></path>
  <path d="M6.79252 3.23233C7.07852 3.53195 7.06748 4.0067 6.76786 4.2927L1.83621 9.00019L6.76786 13.7077C7.06748 13.9937 7.07852 14.4684 6.79252 14.768C6.50651 15.0677 6.03177 15.0787 5.73214 14.7927L0.232143 9.5427C0.0838826 9.40118 0 9.20515 0 9.00019C0 8.79523 0.0838826 8.59919 0.232143 8.45767L5.73214 3.20767C6.03177 2.92167 6.50651 2.93271 6.79252 3.23233Z" fill-rule="EVENODD"></path>
 </g>
</svg>