<svg viewBox="0 0 24 24" width="24" height="24" fill="currentColor" xmlns="http://www.w3.org/2000/svg">
 <g transform="translate(1, 2.999755859375)">
  <path d="M13.4474 0.0266153C13.0478 -0.0823715 12.6355 0.153232 12.5265 0.55285L8.02648 17.0529C7.9175 17.4525 8.1531 17.8648 8.55272 17.9738C8.95234 18.0827 9.36464 17.8471 9.47363 17.4475L13.9736 0.947526C14.0826 0.547908 13.847 0.135602 13.4474 0.0266153Z" fill-rule="NONZERO"></path>
  <path d="M15.2075 3.23239C15.4935 2.93277 15.9682 2.92172 16.2679 3.20773L21.7679 8.45773C21.9161 8.59925 22 8.79528 22 9.00025C22 9.20521 21.9161 9.40124 21.7679 9.54276L16.2679 14.7928C15.9682 15.0788 15.4935 15.0677 15.2075 14.7681C14.9215 14.4685 14.9325 13.9937 15.2321 13.7077L20.1638 9.00025L15.2321 4.29276C14.9325 4.00676 14.9215 3.53201 15.2075 3.23239Z" fill-rule="NONZERO"></path>
  <path d="M6.76786 4.29276C7.06748 4.00676 7.07852 3.53201 6.79252 3.23239C6.50651 2.93277 6.03177 2.92172 5.73214 3.20773L0.232143 8.45773C0.0838826 8.59925 0 8.79528 0 9.00025C0 9.20521 0.0838826 9.40124 0.232143 9.54276L5.73214 14.7928C6.03177 15.0788 6.50651 15.0677 6.79252 14.7681C7.07852 14.4685 7.06748 13.9937 6.76786 13.7077L1.83621 9.00025L6.76786 4.29276Z" fill-rule="NONZERO"></path>
 </g>
</svg>