<svg viewBox="0 0 24 24" width="24" height="24" fill="black" xmlns="http://www.w3.org/2000/svg">
 <g transform="translate(1, 2)">
  <path d="M0 2.75C0 1.23122 1.23122 0 2.75 0L13.25 0C14.7688 0 16 1.23122 16 2.75L16 17.25C16 18.7688 14.7688 20 13.25 20L2.75 20C1.23122 20 0 18.7688 0 17.25L0 2.75ZM2.75 1.5C2.05964 1.5 1.5 2.05964 1.5 2.75L1.5 17.25C1.5 17.9404 2.05964 18.5 2.75 18.5L13.25 18.5C13.9404 18.5 14.5 17.9404 14.5 17.25L14.5 2.75C14.5 2.05964 13.9404 1.5 13.25 1.5L2.75 1.5Z" fill-rule="EVENODD"></path>
  <path d="M14.5 1.75C14.5 1.33579 14.8358 1 15.25 1L16.25 1C17.7688 1 19 2.23122 19 3.75L19 16.25C19 17.7688 17.7688 19 16.25 19L15.25 19C14.8358 19 14.5 18.6642 14.5 18.25C14.5 17.8358 14.8358 17.5 15.25 17.5L16.25 17.5C16.9404 17.5 17.5 16.9404 17.5 16.25L17.5 3.75C17.5 3.05964 16.9404 2.5 16.25 2.5L15.25 2.5C14.8358 2.5 14.5 2.16421 14.5 1.75Z" fill-rule="EVENODD"></path>
  <path d="M17.5 2.75C17.5 2.33579 17.8358 2 18.25 2L19.25 2C20.7688 2 22 3.23122 22 4.75L22 15.25C22 16.7688 20.7688 18 19.25 18L18.25 18C17.8358 18 17.5 17.6642 17.5 17.25C17.5 16.8358 17.8358 16.5 18.25 16.5L19.25 16.5C19.9404 16.5 20.5 15.9404 20.5 15.25L20.5 4.75C20.5 4.05964 19.9404 3.5 19.25 3.5L18.25 3.5C17.8358 3.5 17.5 3.16421 17.5 2.75Z" fill-rule="EVENODD"></path>
  <path d="M4 4.75C4 4.33579 4.33579 4 4.75 4L11.25 4C11.6642 4 12 4.33579 12 4.75C12 5.16421 11.6642 5.5 11.25 5.5L4.75 5.5C4.33579 5.5 4 5.16421 4 4.75Z" fill-rule="EVENODD"></path>
  <path d="M4 7.75C4 7.33579 4.33579 7 4.75 7L9.25 7C9.66421 7 10 7.33579 10 7.75C10 8.16421 9.66421 8.5 9.25 8.5L4.75 8.5C4.33579 8.5 4 8.16421 4 7.75Z" fill-rule="EVENODD"></path>
 </g>
</svg>