<svg viewBox="0 0 16 16" width="16" height="16" fill="black" xmlns="http://www.w3.org/2000/svg">
 <g transform="translate(1, 1)">
  <path d="M4 4L10 4L10 10L4 10L4 4ZM5.5 5.5L5.5 8.5L8.5 8.5L8.5 5.5L5.5 5.5Z" fill-rule="EVENODD"></path>
  <path d="M2.75 1.5C2.05964 1.5 1.5 2.05964 1.5 2.75C1.5 3.44036 2.05964 4 2.75 4L4 4L4 2.75C4 2.05964 3.44036 1.5 2.75 1.5ZM0 2.75C0 1.23122 1.23122 0 2.75 0C4.26878 0 5.5 1.23122 5.5 2.75L5.5 5.5L2.75 5.5C1.23122 5.5 0 4.26878 0 2.75Z" fill-rule="EVENODD"></path>
  <path d="M11.25 1.5C11.9404 1.5 12.5 2.05964 12.5 2.75C12.5 3.44036 11.9404 4 11.25 4L10 4L10 2.75C10 2.05964 10.5596 1.5 11.25 1.5ZM14 2.75C14 1.23122 12.7688 0 11.25 0C9.73122 0 8.5 1.23122 8.5 2.75L8.5 5.5L11.25 5.5C12.7688 5.5 14 4.26878 14 2.75Z" fill-rule="EVENODD"></path>
  <path d="M2.75 12.5C2.05964 12.5 1.5 11.9404 1.5 11.25C1.5 10.5596 2.05964 10 2.75 10L4 10L4 11.25C4 11.9404 3.44036 12.5 2.75 12.5ZM0 11.25C0 12.7688 1.23122 14 2.75 14C4.26878 14 5.5 12.7688 5.5 11.25L5.5 8.5L2.75 8.5C1.23122 8.5 0 9.73122 0 11.25Z" fill-rule="EVENODD"></path>
  <path d="M11.25 12.5C11.9404 12.5 12.5 11.9404 12.5 11.25C12.5 10.5596 11.9404 10 11.25 10L10 10L10 11.25C10 11.9404 10.5596 12.5 11.25 12.5ZM14 11.25C14 12.7688 12.7688 14 11.25 14C9.73122 14 8.5 12.7688 8.5 11.25L8.5 8.5L11.25 8.5C12.7688 8.5 14 9.73122 14 11.25Z" fill-rule="EVENODD"></path>
 </g>
</svg>