<svg viewBox="0 0 24 24" width="24" height="24" fill="black" xmlns="http://www.w3.org/2000/svg">
 <g transform="translate(1.25, 1.25)">
  <path d="M15.7015 6.7472C15.7913 6.4777 15.7212 6.18057 15.5203 5.9797C15.3195 5.77883 15.0223 5.70868 14.7528 5.79852L8.39283 7.91852C8.16887 7.99317 7.99314 8.16891 7.91849 8.39286L5.79849 14.7529C5.70865 15.0224 5.7788 15.3195 5.97967 15.5204C6.18054 15.7212 6.47767 15.7914 6.74717 15.7015L13.1072 13.5815C13.3311 13.5069 13.5069 13.3312 13.5815 13.1072L15.7015 6.7472ZM7.69585 13.8042L9.22293 9.22296L13.8041 7.69588L12.2771 12.2771L7.69585 13.8042Z" fill-rule="EVENODD"></path>
  <path d="M10.75 0C4.81294 0 0 4.81294 0 10.75C0 16.6871 4.81294 21.5 10.75 21.5C16.6871 21.5 21.5 16.6871 21.5 10.75C21.5 4.81294 16.6871 0 10.75 0ZM1.5 10.75C1.5 5.64137 5.64137 1.5 10.75 1.5C15.8586 1.5 20 5.64137 20 10.75C20 15.8586 15.8586 20 10.75 20C5.64137 20 1.5 15.8586 1.5 10.75Z" fill-rule="EVENODD"></path>
 </g>
</svg>