<svg viewBox="0 0 24 24" width="24" height="24" fill="currentColor" xmlns="http://www.w3.org/2000/svg">
 <g transform="translate(1, 1)">
  <path d="M15.9515 6.9972C16.0414 6.7277 15.9712 6.43057 15.7704 6.2297C15.5695 6.02883 15.2724 5.95868 15.0029 6.04852L8.64286 8.16852C8.41891 8.24317 8.24317 8.41891 8.16852 8.64286L6.04852 15.0029C5.95868 15.2724 6.02883 15.5695 6.2297 15.7704C6.43057 15.9712 6.7277 16.0414 6.9972 15.9515L13.3572 13.8315C13.5812 13.7569 13.7569 13.5812 13.8315 13.3572L15.9515 6.9972ZM7.94588 14.0542L9.47296 9.47296L14.0542 7.94588L12.5271 12.5271L7.94588 14.0542Z" fill-rule="EVENODD"></path>
  <path d="M11 0C4.92487 0 0 4.92487 0 11C0 17.0751 4.92487 22 11 22C17.0751 22 22 17.0751 22 11C22 4.92487 17.0751 0 11 0ZM1.5 11C1.5 5.75329 5.75329 1.5 11 1.5C16.2467 1.5 20.5 5.75329 20.5 11C20.5 16.2467 16.2467 20.5 11 20.5C5.75329 20.5 1.5 16.2467 1.5 11Z" fill-rule="EVENODD"></path>
 </g>
</svg>