<svg viewBox="0 0 16 16" width="16" height="16" fill="currentColor" xmlns="http://www.w3.org/2000/svg">
 <g transform="translate(0, 0)">
  <path d="M8 1.5C4.41015 1.5 1.5 4.41015 1.5 8C1.5 11.5899 4.41015 14.5 8 14.5C11.5899 14.5 14.5 11.5899 14.5 8C14.5 4.41015 11.5899 1.5 8 1.5ZM0 8C0 3.58172 3.58172 0 8 0C12.4183 0 16 3.58172 16 8C16 12.4183 12.4183 16 8 16C3.58172 16 0 12.4183 0 8Z" fill-rule="EVENODD"></path>
  <path d="M11.745 4.25503C11.9325 4.44251 11.9979 4.71983 11.9141 4.97136L10.2891 9.84636C10.2194 10.0554 10.0554 10.2194 9.84636 10.2891L4.97136 11.9141C4.71983 11.9979 4.44251 11.9325 4.25503 11.745C4.06754 11.5575 4.00208 11.2802 4.08592 11.0286L5.71092 6.15364C5.7806 5.94462 5.94462 5.7806 6.15364 5.71092L11.0286 4.08592C11.2802 4.00208 11.5575 4.06754 11.745 4.25503ZM6.9284 6.9284L5.8568 10.1432L9.0716 9.0716L10.1432 5.8568L6.9284 6.9284Z" fill-rule="EVENODD"></path>
 </g>
</svg>