<svg viewBox="0 0 24 24" width="24" height="24" fill="currentColor" xmlns="http://www.w3.org/2000/svg">
 <g transform="translate(0.5, 1.75)">
  <path d="M20 0C18.3431 0 17 1.34315 17 3C17 3.49694 17.1208 3.96565 17.3347 4.37837L14.894 6.56214C14.5588 6.36382 14.1677 6.25 13.75 6.25L10.75 6.25C9.50736 6.25 8.5 7.25736 8.5 8.5L8.5 9.25L5.90549 9.25C5.57246 7.95608 4.39788 7 3 7C1.34315 7 0 8.34315 0 10C0 11.6569 1.34315 13 3 13C4.39788 13 5.57245 12.0439 5.90549 10.75L8.5 10.75L8.5 11.5C8.5 12.7426 9.50736 13.75 10.75 13.75L13.75 13.75C14.1677 13.75 14.5588 13.6362 14.894 13.4379L17.3347 15.6216C17.1208 16.0344 17 16.5031 17 17C17 18.6569 18.3431 20 20 20C21.6569 20 23 18.6569 23 17C23 15.3431 21.6569 14 20 14C19.3841 14 18.8115 14.1856 18.3351 14.504L15.8582 12.2878C15.9499 12.0426 16 11.7772 16 11.5L16 8.5C16 8.22284 15.9499 7.95738 15.8582 7.7122L18.3351 5.49602C18.8115 5.81438 19.3841 6 20 6C21.6569 6 23 4.65685 23 3C23 1.34315 21.6569 0 20 0ZM18.5 3C18.5 2.17157 19.1716 1.5 20 1.5C20.8284 1.5 21.5 2.17157 21.5 3C21.5 3.82843 20.8284 4.5 20 4.5C19.1716 4.5 18.5 3.82843 18.5 3ZM10.75 7.75C10.3358 7.75 10 8.08579 10 8.5L10 11.5C10 11.9142 10.3358 12.25 10.75 12.25L13.75 12.25C14.1642 12.25 14.5 11.9142 14.5 11.5L14.5 8.5C14.5 8.08579 14.1642 7.75 13.75 7.75L10.75 7.75ZM20 15.5C19.1716 15.5 18.5 16.1716 18.5 17C18.5 17.8284 19.1716 18.5 20 18.5C20.8284 18.5 21.5 17.8284 21.5 17C21.5 16.1716 20.8284 15.5 20 15.5ZM1.5 10C1.5 9.17157 2.17157 8.5 3 8.5C3.82843 8.5 4.5 9.17157 4.5 10C4.5 10.8284 3.82843 11.5 3 11.5C2.17157 11.5 1.5 10.8284 1.5 10Z" fill-rule="EVENODD"></path>
 </g>
</svg>