<svg viewBox="0 0 24 24" width="24" height="24" fill="currentColor" xmlns="http://www.w3.org/2000/svg">
 <g transform="translate(1, 8.25)">
  <path d="M0 3.5C0 1.567 1.567 0 3.5 0C5.17556 0 6.57612 1.17741 6.91946 2.75L15.0805 2.75C15.4239 1.17741 16.8244 0 18.5 0C20.433 0 22 1.567 22 3.5C22 5.433 20.433 7 18.5 7C16.8244 7 15.4239 5.82259 15.0805 4.25L6.91946 4.25C6.57612 5.82259 5.17556 7 3.5 7C1.567 7 0 5.433 0 3.5ZM3.5 1.5C2.39543 1.5 1.5 2.39543 1.5 3.5C1.5 4.60457 2.39543 5.5 3.5 5.5C4.60457 5.5 5.5 4.60457 5.5 3.5C5.5 2.39543 4.60457 1.5 3.5 1.5ZM18.5 1.5C17.3954 1.5 16.5 2.39543 16.5 3.5C16.5 4.60457 17.3954 5.5 18.5 5.5C19.6046 5.5 20.5 4.60457 20.5 3.5C20.5 2.39543 19.6046 1.5 18.5 1.5Z" fill-rule="EVENODD"></path>
 </g>
</svg>