<svg viewBox="0 0 16 16" width="16" height="16" fill="black" xmlns="http://www.w3.org/2000/svg">
 <g transform="translate(2.5, 2)">
  <path d="M6.71967 3.71967C6.42678 4.01256 6.42678 4.48744 6.71967 4.78033L9.68934 7.75L6.71967 10.7197C6.42678 11.0126 6.42678 11.4874 6.71967 11.7803C7.01256 12.0732 7.48744 12.0732 7.78033 11.7803L11.2803 8.28033C11.5732 7.98744 11.5732 7.51256 11.2803 7.21967L7.78033 3.71967C7.48744 3.42678 7.01256 3.42678 6.71967 3.71967Z" fill-rule="EVENODD"></path>
  <path d="M0.75 0C0.335787 0 0 0.335786 0 0.75L0 5.25C0 6.11195 0.34241 6.9386 0.951903 7.5481C1.5614 8.15759 2.38805 8.5 3.25 8.5L10.75 8.5C11.1642 8.5 11.5 8.16421 11.5 7.75C11.5 7.33579 11.1642 7 10.75 7L3.25 7C2.78587 7 2.34075 6.81563 2.01256 6.48744C1.68437 6.15925 1.5 5.71413 1.5 5.25L1.5 0.75C1.5 0.335786 1.16421 0 0.75 0Z" fill-rule="EVENODD"></path>
 </g>
</svg>