<svg viewBox="0 0 16 16" width="16" height="16" fill="currentColor" xmlns="http://www.w3.org/2000/svg">
 <g transform="translate(2, 2)">
  <path d="M4.78033 7.21967C5.07322 7.51256 5.07322 7.98744 4.78033 8.28033C4.48744 8.57322 4.01256 8.57322 3.71967 8.28033L0.21967 4.78033C-0.0732233 4.48744 -0.0732233 4.01256 0.21967 3.71967L3.71967 0.21967C4.01256 -0.0732232 4.48744 -0.0732232 4.78033 0.21967C5.07322 0.512563 5.07322 0.987436 4.78033 1.28033L2.56066 3.5L8.25 3.5C9.11195 3.5 9.9386 3.84241 10.5481 4.4519C11.1576 5.0614 11.5 5.88805 11.5 6.75L11.5 11.25C11.5 11.6642 11.1642 12 10.75 12C10.3358 12 10 11.6642 10 11.25L10 6.75C10 6.28587 9.81563 5.84075 9.48744 5.51256C9.15925 5.18437 8.71413 5 8.25 5L2.56066 5L4.78033 7.21967Z" fill-rule="NONZERO"></path>
 </g>
</svg>