<svg viewBox="0 0 16 16" width="16" height="16" fill="black" xmlns="http://www.w3.org/2000/svg">
 <g transform="translate(2.0000007152557373, 2.000000238418579)">
  <path d="M8.28033 4.78033C7.98744 5.07322 7.51256 5.07322 7.21967 4.78033L4.25 1.81066L1.28033 4.78033C0.987436 5.07322 0.512563 5.07322 0.21967 4.78033C-0.0732232 4.48744 -0.0732233 4.01256 0.21967 3.71967L3.71967 0.21967C4.01256 -0.0732233 4.48744 -0.0732233 4.78033 0.21967L8.28033 3.71967C8.57322 4.01256 8.57322 4.48744 8.28033 4.78033Z" fill-rule="EVENODD"></path>
  <path d="M12 10.75C12 11.1642 11.6642 11.5 11.25 11.5L6.75 11.5C5.88805 11.5 5.0614 11.1576 4.4519 10.5481C3.84241 9.9386 3.5 9.11195 3.5 8.25L3.5 0.75C3.5 0.335787 3.83579 1.71096e-07 4.25 1.5299e-07C4.66421 1.34884e-07 5 0.335787 5 0.75L5 8.25C5 8.71413 5.18437 9.15925 5.51256 9.48744C5.84075 9.81563 6.28587 10 6.75 10L11.25 10C11.6642 10 12 10.3358 12 10.75Z" fill-rule="EVENODD"></path>
 </g>
</svg>