<svg viewBox="0 0 24 24" width="24" height="24" fill="black" xmlns="http://www.w3.org/2000/svg">
 <g transform="translate(3.2499992847442627, 2.499999761581421)">
  <path d="M11.7679 11.7075C11.4682 11.4215 10.9935 11.4325 10.7075 11.7321L6 16.6638L1.29252 11.7321C1.00651 11.4325 0.531768 11.4215 0.232144 11.7075C-0.0674791 11.9935 -0.0785198 12.4682 0.207484 12.7679L5.45748 18.2679C5.59901 18.4161 5.79504 18.5 6 18.5C6.20496 18.5 6.401 18.4161 6.54252 18.2679L11.7925 12.7679C12.0785 12.4682 12.0675 11.9935 11.7679 11.7075Z" fill-rule="EVENODD"></path>
  <path d="M17.75 0.75C17.75 0.335787 17.4142 3.24086e-07 17 3.0598e-07L10 2.27374e-13C8.72505 -5.57299e-08 7.51222 0.538547 6.62542 1.48077C5.74007 2.42146 5.25 3.68809 5.25 5L5.25 17.75C5.25 18.1642 5.58579 18.5 6 18.5C6.41421 18.5 6.75 18.1642 6.75 17.75L6.75 5C6.75 4.05757 7.10278 3.16219 7.71772 2.50882C8.33121 1.85699 9.15322 1.5 10 1.5L17 1.5C17.4142 1.5 17.75 1.16421 17.75 0.75Z" fill-rule="EVENODD"></path>
 </g>
</svg>