<svg viewBox="0 0 16 16" width="16" height="16" fill="currentColor" xmlns="http://www.w3.org/2000/svg">
 <g transform="translate(2.000000476837158, 2.000000238418579)">
  <path d="M7.21967 4.78033C7.51256 5.07322 7.98744 5.07322 8.28033 4.78033C8.57322 4.48744 8.57322 4.01256 8.28033 3.71967L4.78033 0.21967C4.48744 -0.0732233 4.01256 -0.0732233 3.71967 0.21967L0.21967 3.71967C-0.0732233 4.01256 -0.0732232 4.48744 0.21967 4.78033C0.512563 5.07322 0.987436 5.07322 1.28033 4.78033L3.5 2.56066L3.5 8.25C3.5 9.11195 3.84241 9.9386 4.4519 10.5481C5.0614 11.1576 5.88805 11.5 6.75 11.5L11.25 11.5C11.6642 11.5 12 11.1642 12 10.75C12 10.3358 11.6642 10 11.25 10L6.75 10C6.28587 10 5.84075 9.81563 5.51256 9.48744C5.18437 9.15925 5 8.71413 5 8.25L5 2.56066L7.21967 4.78033Z" fill-rule="NONZERO"></path>
 </g>
</svg>