<svg viewBox="0 0 24 24" width="24" height="24" fill="currentColor" xmlns="http://www.w3.org/2000/svg">
 <g transform="translate(2.9999992847442627, 2.499999761581421)">
  <path d="M0.75 0C0.335786 0 0 0.335787 0 0.75C0 1.16421 0.335786 1.5 0.75 1.5L7.75 1.5C8.59678 1.5 9.41879 1.85699 10.0323 2.50882C10.6472 3.16219 11 4.05757 11 5L11 15.8781L7.04252 11.7321C6.75651 11.4325 6.28177 11.4215 5.98215 11.7075C5.68252 11.9935 5.67148 12.4682 5.95749 12.7679L11.2075 18.2679C11.349 18.4161 11.545 18.5 11.75 18.5C11.955 18.5 12.151 18.4161 12.2925 18.2679L17.5425 12.7679C17.8285 12.4682 17.8175 11.9935 17.5179 11.7075C17.2182 11.4215 16.7435 11.4325 16.4575 11.7321L12.5 15.8781L12.5 5C12.5 3.68809 12.0099 2.42146 11.1246 1.48077C10.2378 0.538547 9.02496 0 7.75 0L0.75 0Z" fill-rule="NONZERO"></path>
 </g>
</svg>