<svg viewBox="0 0 24 24" width="24" height="24" fill="currentColor" xmlns="http://www.w3.org/2000/svg">
 <g transform="translate(2.5, 3.249998092651367)">
  <path d="M11.7321 10.7075C11.4325 10.9935 11.4215 11.4682 11.7075 11.7679C11.9935 12.0675 12.4682 12.0785 12.7679 11.7925L18.2679 6.54252C18.4161 6.401 18.5 6.20496 18.5 6C18.5 5.79504 18.4161 5.59901 18.2679 5.45748L12.7679 0.207484C12.4682 -0.0785198 11.9935 -0.0674791 11.7075 0.232144C11.4215 0.531768 11.4325 1.00651 11.7321 1.29252L15.8781 5.25L5 5.25C3.68809 5.25 2.42146 5.74007 1.48077 6.62542C0.538548 7.51223 0 8.72505 0 10L0 17C0 17.4142 0.335787 17.75 0.75 17.75C1.16421 17.75 1.5 17.4142 1.5 17L1.5 10C1.5 9.15322 1.85699 8.33121 2.50882 7.71772C3.1622 7.10278 4.05757 6.75 5 6.75L15.8781 6.75L11.7321 10.7075Z" fill-rule="NONZERO"></path>
 </g>
</svg>