<svg viewBox="0 0 16 16" width="16" height="16" fill="currentColor" xmlns="http://www.w3.org/2000/svg">
 <g transform="translate(1.9999995231628418, 2.499999761581421)">
  <path d="M3.71967 6.71967C4.01256 6.42678 4.48744 6.42678 4.78033 6.71967L7.75 9.68934L10.7197 6.71967C11.0126 6.42678 11.4874 6.42678 11.7803 6.71967C12.0732 7.01256 12.0732 7.48744 11.7803 7.78033L8.28033 11.2803C7.98744 11.5732 7.51256 11.5732 7.21967 11.2803L3.71967 7.78033C3.42678 7.48744 3.42678 7.01256 3.71967 6.71967Z" fill-rule="EVENODD"></path>
  <path d="M0 0.75C-1.81058e-08 0.335787 0.335786 2.14807e-07 0.75 1.96701e-07L5.25 0C6.11195 -3.76772e-08 6.9386 0.34241 7.5481 0.951903C8.15759 1.5614 8.5 2.38805 8.5 3.25L8.5 10.75C8.5 11.1642 8.16421 11.5 7.75 11.5C7.33579 11.5 7 11.1642 7 10.75L7 3.25C7 2.78587 6.81563 2.34075 6.48744 2.01256C6.15925 1.68437 5.71413 1.5 5.25 1.5L0.75 1.5C0.335786 1.5 1.81058e-08 1.16421 0 0.75Z" fill-rule="EVENODD"></path>
 </g>
</svg>