<svg viewBox="0 0 24 24" width="24" height="24" fill="black" xmlns="http://www.w3.org/2000/svg">
 <g transform="translate(3.25, 3.25)">
  <path d="M12.2803 0.21967C11.9874 -0.0732233 11.5126 -0.0732233 11.2197 0.21967C10.9268 0.512563 10.9268 0.987437 11.2197 1.28033L14.9393 5L4.75 5C3.49022 5 2.28204 5.50044 1.39124 6.39124C0.500445 7.28204 0 8.49022 0 9.75L0 16.75C0 17.1642 0.335786 17.5 0.75 17.5C1.16421 17.5 1.5 17.1642 1.5 16.75L1.5 9.75C1.5 8.88805 1.84241 8.0614 2.4519 7.4519C3.0614 6.84241 3.88805 6.5 4.75 6.5L14.9393 6.5L11.2197 10.2197C10.9268 10.5126 10.9268 10.9874 11.2197 11.2803C11.5126 11.5732 11.9874 11.5732 12.2803 11.2803L17.2803 6.28033C17.4268 6.13388 17.5 5.94194 17.5 5.75C17.5 5.64831 17.4798 5.55134 17.4431 5.46291C17.4065 5.37445 17.3522 5.29158 17.2803 5.21967L12.2803 0.21967Z" fill-rule="NONZERO"></path>
 </g>
</svg>