<svg viewBox="0 0 16 16" width="16" height="16" fill="currentColor" xmlns="http://www.w3.org/2000/svg">
 <g transform="translate(1.9999995231628418, 2.000000238418579)">
  <path d="M4.78033 4.78033C4.48744 5.07322 4.01256 5.07322 3.71967 4.78033C3.42678 4.48744 3.42678 4.01256 3.71967 3.71967L7.21967 0.21967C7.51256 -0.0732233 7.98744 -0.0732233 8.28033 0.21967L11.7803 3.71967C12.0732 4.01256 12.0732 4.48744 11.7803 4.78033C11.4874 5.07322 11.0126 5.07322 10.7197 4.78033L8.5 2.56066L8.5 8.25C8.5 9.11195 8.15759 9.9386 7.5481 10.5481C6.9386 11.1576 6.11195 11.5 5.25 11.5L0.75 11.5C0.335786 11.5 0 11.1642 0 10.75C0 10.3358 0.335787 10 0.75 10L5.25 10C5.71413 10 6.15925 9.81563 6.48744 9.48744C6.81563 9.15925 7 8.71413 7 8.25L7 2.56066L4.78033 4.78033Z" fill-rule="NONZERO"></path>
 </g>
</svg>