<svg viewBox="0 0 16 16" width="16" height="16" fill="currentColor" xmlns="http://www.w3.org/2000/svg">
 <g transform="translate(1.9999995231628418, 2.000000238418579)">
  <path d="M3.71967 4.78033C4.01256 5.07322 4.48744 5.07322 4.78033 4.78033L7.75 1.81066L10.7197 4.78033C11.0126 5.07322 11.4874 5.07322 11.7803 4.78033C12.0732 4.48744 12.0732 4.01256 11.7803 3.71967L8.28033 0.21967C7.98744 -0.0732233 7.51256 -0.0732233 7.21967 0.21967L3.71967 3.71967C3.42678 4.01256 3.42678 4.48744 3.71967 4.78033Z" fill-rule="EVENODD"></path>
  <path d="M0 10.75C-1.81058e-08 11.1642 0.335786 11.5 0.75 11.5L5.25 11.5C6.11195 11.5 6.9386 11.1576 7.5481 10.5481C8.15759 9.9386 8.5 9.11195 8.5 8.25L8.5 0.75C8.5 0.335787 8.16421 1.71096e-07 7.75 1.5299e-07C7.33579 1.34884e-07 7 0.335787 7 0.75L7 8.25C7 8.71413 6.81563 9.15925 6.48744 9.48744C6.15925 9.81563 5.71413 10 5.25 10L0.75 10C0.335786 10 1.81058e-08 10.3358 0 10.75Z" fill-rule="EVENODD"></path>
 </g>
</svg>