<svg viewBox="0 0 24 24" width="24" height="24" fill="black" xmlns="http://www.w3.org/2000/svg">
 <g transform="translate(3.25, 3.25)">
  <path d="M12.0371 0.0569091C11.9487 0.0202391 11.8517 0 11.75 0C11.6483 0 11.5513 0.0202391 11.4629 0.0569091C11.3745 0.0935089 11.2916 0.147762 11.2197 0.21967L6.21967 5.21967C5.92678 5.51256 5.92678 5.98744 6.21967 6.28033C6.51256 6.57322 6.98744 6.57322 7.28033 6.28033L11 2.56066L11 12.75C11 13.612 10.6576 14.4386 10.0481 15.0481C9.4386 15.6576 8.61195 16 7.75 16L0.75 16C0.335786 16 0 16.3358 0 16.75C0 17.1642 0.335786 17.5 0.75 17.5L7.75 17.5C9.00978 17.5 10.218 16.9996 11.1088 16.1088C11.9996 15.218 12.5 14.0098 12.5 12.75L12.5 2.56066L16.2197 6.28033C16.5126 6.57322 16.9874 6.57322 17.2803 6.28033C17.5732 5.98744 17.5732 5.51256 17.2803 5.21967L12.2803 0.21967C12.2084 0.147762 12.1255 0.0935089 12.0371 0.0569091Z" fill-rule="NONZERO"></path>
 </g>
</svg>