<svg viewBox="0 0 16 16" width="16" height="16" fill="black" xmlns="http://www.w3.org/2000/svg">
 <g transform="translate(2, 2)">
  <path d="M4.78033 3.71967C5.07322 4.01256 5.07322 4.48744 4.78033 4.78033L1.81066 7.75L4.78033 10.7197C5.07322 11.0126 5.07322 11.4874 4.78033 11.7803C4.48744 12.0732 4.01256 12.0732 3.71967 11.7803L0.21967 8.28033C-0.0732233 7.98744 -0.0732233 7.51256 0.21967 7.21967L3.71967 3.71967C4.01256 3.42678 4.48744 3.42678 4.78033 3.71967Z" fill-rule="EVENODD"></path>
  <path d="M10.75 0C11.1642 0 11.5 0.335786 11.5 0.75L11.5 5.25C11.5 6.11195 11.1576 6.9386 10.5481 7.5481C9.9386 8.15759 9.11195 8.5 8.25 8.5L0.75 8.5C0.335786 8.5 0 8.16421 0 7.75C0 7.33579 0.335786 7 0.75 7L8.25 7C8.71413 7 9.15925 6.81563 9.48744 6.48744C9.81563 6.15925 10 5.71413 10 5.25L10 0.75C10 0.335786 10.3358 0 10.75 0Z" fill-rule="EVENODD"></path>
 </g>
</svg>