<svg viewBox="0 0 24 24" width="24" height="24" fill="black" xmlns="http://www.w3.org/2000/svg">
 <g transform="translate(2.9999992847442627, 2.499999761581421)">
  <path d="M5.98214 11.7075C6.28177 11.4215 6.75651 11.4325 7.04252 11.7321L11.75 16.6638L16.4575 11.7321C16.7435 11.4325 17.2182 11.4215 17.5179 11.7075C17.8175 11.9935 17.8285 12.4682 17.5425 12.7679L12.2925 18.2679C12.151 18.4161 11.955 18.5 11.75 18.5C11.545 18.5 11.349 18.4161 11.2075 18.2679L5.95748 12.7679C5.67148 12.4682 5.68252 11.9935 5.98214 11.7075Z" fill-rule="EVENODD"></path>
  <path d="M0 0.75C-1.81058e-08 0.335787 0.335786 3.24086e-07 0.75 3.0598e-07L7.75 2.27374e-13C9.02496 -5.57299e-08 10.2378 0.538547 11.1246 1.48077C12.0099 2.42146 12.5 3.68809 12.5 5L12.5 17.75C12.5 18.1642 12.1642 18.5 11.75 18.5C11.3358 18.5 11 18.1642 11 17.75L11 5C11 4.05757 10.6472 3.1622 10.0323 2.50882C9.41879 1.85699 8.59678 1.5 7.75 1.5L0.75 1.5C0.335786 1.5 1.81058e-08 1.16421 0 0.75Z" fill-rule="EVENODD"></path>
 </g>
</svg>