<svg viewBox="0 0 24 24" width="24" height="24" fill="black" xmlns="http://www.w3.org/2000/svg">
 <g transform="translate(2.9999992847442627, 3.000000238418579)">
  <path d="M5.98214 6.79252C6.28177 7.07852 6.75651 7.06748 7.04252 6.76786L11.75 1.83621L16.4575 6.76786C16.7435 7.06748 17.2182 7.07852 17.5179 6.79252C17.8175 6.50651 17.8285 6.03177 17.5425 5.73214L12.2925 0.232143C12.151 0.0838826 11.955 8.95918e-09 11.75 0C11.545 -8.95918e-09 11.349 0.0838825 11.2075 0.232143L5.95748 5.73214C5.67148 6.03177 5.68252 6.50651 5.98214 6.79252Z" fill-rule="EVENODD"></path>
  <path d="M0 17.75C-1.81058e-08 18.1642 0.335786 18.5 0.75 18.5L7.75 18.5C9.02496 18.5 10.2378 17.9615 11.1246 17.0192C12.0099 16.0785 12.5 14.8119 12.5 13.5L12.5 0.75C12.5 0.335787 12.1642 1.81058e-08 11.75 0C11.3358 -1.81058e-08 11 0.335787 11 0.75L11 13.5C11 14.4424 10.6472 15.3378 10.0323 15.9912C9.41879 16.643 8.59678 17 7.75 17L0.75 17C0.335786 17 1.81058e-08 17.3358 0 17.75Z" fill-rule="EVENODD"></path>
 </g>
</svg>