<svg viewBox="0 0 24 24" width="24" height="24" fill="currentColor" xmlns="http://www.w3.org/2000/svg">
 <g transform="translate(3.2499992847442627, 3.0000007152557373)">
  <path d="M11.7679 6.79252C11.4682 7.07852 10.9935 7.06748 10.7075 6.76786L6 1.83621L1.29252 6.76786C1.00651 7.06748 0.531768 7.07852 0.232144 6.79252C-0.0674791 6.50651 -0.0785198 6.03177 0.207484 5.73214L5.45748 0.232143C5.59901 0.0838826 5.79504 8.95918e-09 6 0C6.20496 -8.95918e-09 6.401 0.0838825 6.54252 0.232143L11.7925 5.73214C12.0785 6.03177 12.0675 6.50651 11.7679 6.79252Z" fill-rule="EVENODD"></path>
  <path d="M17.75 17.75C17.75 18.1642 17.4142 18.5 17 18.5L10 18.5C8.72505 18.5 7.51222 17.9615 6.62542 17.0192C5.74007 16.0785 5.25 14.8119 5.25 13.5L5.25 0.75C5.25 0.335787 5.58579 1.81058e-08 6 0C6.41421 -1.81058e-08 6.75 0.335787 6.75 0.75L6.75 13.5C6.75 14.4424 7.10278 15.3378 7.71772 15.9912C8.33121 16.643 9.15322 17 10 17L17 17C17.4142 17 17.75 17.3358 17.75 17.75Z" fill-rule="EVENODD"></path>
 </g>
</svg>