<svg viewBox="0 0 16 16" width="16" height="16" fill="currentColor" xmlns="http://www.w3.org/2000/svg">
 <g transform="translate(0.050048828125, 0.050048828125)">
  <path d="M6.19995 4.94995C5.5096 4.94995 4.94995 5.50959 4.94995 6.19995L4.94995 9.69995C4.94995 10.3903 5.50959 10.95 6.19995 10.95L9.69995 10.95C10.3903 10.95 10.95 10.3903 10.95 9.69995L10.95 6.19995C10.95 5.5096 10.3903 4.94995 9.69995 4.94995L6.19995 4.94995ZM6.44995 9.44995L6.44995 6.44995L9.44995 6.44995L9.44995 9.44995L6.44995 9.44995Z" fill-rule="EVENODD"></path>
  <path d="M6.2 0C6.5866 0 6.9 0.313401 6.9 0.7L6.9 1.94995L9 1.94995L9 0.7C9 0.313401 9.3134 0 9.7 0C10.0866 0 10.4 0.313401 10.4 0.7L10.4 1.94995L11.7 1.94995C12.9426 1.94995 13.95 2.95731 13.95 4.19995L13.95 5.5L15.2 5.5C15.5866 5.5 15.9 5.8134 15.9 6.2C15.9 6.5866 15.5866 6.9 15.2 6.9L13.95 6.9L13.95 9L15.2 9C15.5866 9 15.9 9.3134 15.9 9.7C15.9 10.0866 15.5866 10.4 15.2 10.4L13.95 10.4L13.95 11.7C13.95 12.9426 12.9426 13.95 11.7 13.95L10.4 13.95L10.4 15.2C10.4 15.5866 10.0866 15.9 9.7 15.9C9.3134 15.9 9 15.5866 9 15.2L9 13.95L6.9 13.95L6.9 15.2C6.9 15.5866 6.5866 15.9 6.2 15.9C5.8134 15.9 5.5 15.5866 5.5 15.2L5.5 13.95L4.19995 13.95C2.95731 13.95 1.94995 12.9426 1.94995 11.7L1.94995 10.4L0.7 10.4C0.313401 10.4 0 10.0866 0 9.7C0 9.3134 0.313401 9 0.7 9L1.94995 9L1.94995 6.9L0.7 6.9C0.313401 6.9 0 6.5866 0 6.2C0 5.8134 0.313401 5.5 0.7 5.5L1.94995 5.5L1.94995 4.19995C1.94995 2.95731 2.95731 1.94995 4.19995 1.94995L5.5 1.94995L5.5 0.7C5.5 0.313401 5.8134 0 6.2 0ZM3.44995 4.19995C3.44995 3.78574 3.78574 3.44995 4.19995 3.44995L11.7 3.44995C12.1142 3.44995 12.45 3.78574 12.45 4.19995L12.45 11.7C12.45 12.1142 12.1142 12.45 11.7 12.45L4.19995 12.45C3.78574 12.45 3.44995 12.1142 3.44995 11.7L3.44995 4.19995Z" fill-rule="EVENODD"></path>
 </g>
</svg>