<svg viewBox="0 0 24 24" width="24" height="24" fill="black" xmlns="http://www.w3.org/2000/svg">
 <g transform="translate(0, 0)">
  <path d="M3 5.75C3 4.23122 4.23122 3 5.75 3L18.25 3C19.7688 3 21 4.23122 21 5.75L21 18.25C21 19.7688 19.7688 21 18.25 21L5.75 21C4.23122 21 3 19.7688 3 18.25L3 5.75ZM5.75 4.5C5.05964 4.5 4.5 5.05964 4.5 5.75L4.5 18.25C4.5 18.9404 5.05964 19.5 5.75 19.5L18.25 19.5C18.9404 19.5 19.5 18.9404 19.5 18.25L19.5 5.75C19.5 5.05964 18.9404 4.5 18.25 4.5L5.75 4.5Z" fill-rule="EVENODD"></path>
  <path d="M8 9.75C8 8.7835 8.7835 8 9.75 8L14.25 8C15.2165 8 16 8.7835 16 9.75L16 14.25C16 15.2165 15.2165 16 14.25 16L9.75 16C8.7835 16 8 15.2165 8 14.25L8 9.75ZM9.75 9.5C9.61193 9.5 9.5 9.61193 9.5 9.75L9.5 14.25C9.5 14.3881 9.61193 14.5 9.75 14.5L14.25 14.5C14.3881 14.5 14.5 14.3881 14.5 14.25L14.5 9.75C14.5 9.61193 14.3881 9.5 14.25 9.5L9.75 9.5Z" fill-rule="EVENODD"></path>
  <path d="M9.25 0C9.66421 0 10 0.335786 10 0.75L10 3.75C10 4.16421 9.66421 4.5 9.25 4.5C8.83579 4.5 8.5 4.16421 8.5 3.75L8.5 0.75C8.5 0.335786 8.83579 0 9.25 0Z" fill-rule="EVENODD"></path>
  <path d="M14.75 0C15.1642 0 15.5 0.335786 15.5 0.75L15.5 3.75C15.5 4.16421 15.1642 4.5 14.75 4.5C14.3358 4.5 14 4.16421 14 3.75L14 0.75C14 0.335786 14.3358 0 14.75 0Z" fill-rule="EVENODD"></path>
  <path d="M9.25 19.5C9.66421 19.5 10 19.8358 10 20.25L10 23.25C10 23.6642 9.66421 24 9.25 24C8.83579 24 8.5 23.6642 8.5 23.25L8.5 20.25C8.5 19.8358 8.83579 19.5 9.25 19.5Z" fill-rule="EVENODD"></path>
  <path d="M14.75 19.5C15.1642 19.5 15.5 19.8358 15.5 20.25L15.5 23.25C15.5 23.6642 15.1642 24 14.75 24C14.3358 24 14 23.6642 14 23.25L14 20.25C14 19.8358 14.3358 19.5 14.75 19.5Z" fill-rule="EVENODD"></path>
  <path d="M19.5 9.25C19.5 8.83579 19.8358 8.5 20.25 8.5L23.25 8.5C23.6642 8.5 24 8.83579 24 9.25C24 9.66421 23.6642 10 23.25 10L20.25 10C19.8358 10 19.5 9.66421 19.5 9.25Z" fill-rule="EVENODD"></path>
  <path d="M19.5 13.75C19.5 13.3358 19.8358 13 20.25 13L23.25 13C23.6642 13 24 13.3358 24 13.75C24 14.1642 23.6642 14.5 23.25 14.5L20.25 14.5C19.8358 14.5 19.5 14.1642 19.5 13.75Z" fill-rule="EVENODD"></path>
  <path d="M0 9.25C0 8.83579 0.335786 8.5 0.75 8.5L3.75 8.5C4.16421 8.5 4.5 8.83579 4.5 9.25C4.5 9.66421 4.16421 10 3.75 10L0.75 10C0.335786 10 0 9.66421 0 9.25Z" fill-rule="EVENODD"></path>
  <path d="M0 13.75C0 13.3358 0.335786 13 0.75 13L3.75 13C4.16421 13 4.5 13.3358 4.5 13.75C4.5 14.1642 4.16421 14.5 3.75 14.5L0.75 14.5C0.335786 14.5 0 14.1642 0 13.75Z" fill-rule="EVENODD"></path>
 </g>
</svg>