<svg viewBox="0 0 24 24" width="24" height="24" fill="black" xmlns="http://www.w3.org/2000/svg">
 <g transform="translate(0, 3)">
  <path d="M0 2.75C0 1.23122 1.23122 0 2.75 0L21.25 0C22.7688 0 24 1.23122 24 2.75L24 15.25C24 16.7688 22.7688 18 21.25 18L2.75 18C1.23122 18 0 16.7688 0 15.25L0 2.75ZM2.75 1.5C2.05964 1.5 1.5 2.05964 1.5 2.75L1.5 15.25C1.5 15.9404 2.05964 16.5 2.75 16.5L21.25 16.5C21.9404 16.5 22.5 15.9404 22.5 15.25L22.5 2.75C22.5 2.05964 21.9404 1.5 21.25 1.5L2.75 1.5Z" fill-rule="EVENODD"></path>
  <path d="M0 6.5C0 5.67157 0.671573 5 1.5 5L22.5 5C23.3284 5 24 5.67157 24 6.5C24 7.32843 23.3284 8 22.5 8L1.5 8C0.671573 8 0 7.32843 0 6.5Z" fill-rule="EVENODD"></path>
  <path d="M4 12.75C4 12.3358 4.33579 12 4.75 12L7.25 12C7.66421 12 8 12.3358 8 12.75C8 13.1642 7.66421 13.5 7.25 13.5L4.75 13.5C4.33579 13.5 4 13.1642 4 12.75Z" fill-rule="EVENODD"></path>
 </g>
</svg>