<svg viewBox="0 0 16 16" width="16" height="16" fill="black" xmlns="http://www.w3.org/2000/svg">
 <g transform="translate(0.5, 0.5)">
  <path d="M3.25 0C3.66421 0 4 0.335786 4 0.75L4 10.4559C4 10.6002 4.05733 10.7386 4.15937 10.8406C4.26141 10.9427 4.39981 11 4.54412 11L14.25 11C14.6642 11 15 11.3358 15 11.75C15 12.1642 14.6642 12.5 14.25 12.5L4.54412 12.5C4.00199 12.5 3.48206 12.2846 3.09871 11.9013C2.71536 11.5179 2.5 10.998 2.5 10.4559L2.5 0.75C2.5 0.335786 2.83579 0 3.25 0Z" fill-rule="EVENODD"></path>
  <path d="M0 3.25C0 2.83579 0.335786 2.5 0.75 2.5L10.4559 2.5C10.998 2.5 11.5179 2.71536 11.9013 3.09871C12.2846 3.48205 12.5 4.00198 12.5 4.54412L12.5 14.25C12.5 14.6642 12.1642 15 11.75 15C11.3358 15 11 14.6642 11 14.25L11 4.54412C11 4.39981 10.9427 4.26141 10.8406 4.15937C10.7386 4.05733 10.6002 4 10.4559 4L0.75 4C0.335786 4 0 3.66421 0 3.25Z" fill-rule="EVENODD"></path>
 </g>
</svg>