<svg viewBox="0 0 24 24" width="24" height="24" fill="currentColor" xmlns="http://www.w3.org/2000/svg">
 <g transform="translate(1, 1)">
  <path d="M0 11C0 4.92487 4.92487 0 11 0C17.0751 0 22 4.92487 22 11C22 17.0751 17.0751 22 11 22C4.92487 22 0 17.0751 0 11ZM11.75 20.4708L11.75 17.75C11.75 17.3358 11.4142 17 11 17C10.5858 17 10.25 17.3358 10.25 17.75L10.25 20.4708C5.60134 20.1078 1.89223 16.3987 1.52917 11.75L4.25 11.75C4.66421 11.75 5 11.4142 5 11C5 10.5858 4.66421 10.25 4.25 10.25L1.52917 10.25C1.89223 5.60134 5.60134 1.89223 10.25 1.52917L10.25 4.25C10.25 4.66421 10.5858 5 11 5C11.4142 5 11.75 4.66421 11.75 4.25L11.75 1.52917C16.3987 1.89223 20.1078 5.60134 20.4708 10.25L17.75 10.25C17.3358 10.25 17 10.5858 17 11C17 11.4142 17.3358 11.75 17.75 11.75L20.4708 11.75C20.1078 16.3987 16.3987 20.1078 11.75 20.4708Z" fill-rule="EVENODD"></path>
 </g>
</svg>