<svg viewBox="0 0 16 16" width="16" height="16" fill="black" xmlns="http://www.w3.org/2000/svg">
 <g transform="translate(0, 0)">
  <path d="M8 1.5C4.41015 1.5 1.5 4.41015 1.5 8C1.5 11.5899 4.41015 14.5 8 14.5C11.5899 14.5 14.5 11.5899 14.5 8C14.5 4.41015 11.5899 1.5 8 1.5ZM0 8C0 3.58172 3.58172 0 8 0C12.4183 0 16 3.58172 16 8C16 12.4183 12.4183 16 8 16C3.58172 16 0 12.4183 0 8Z" fill-rule="EVENODD"></path>
  <path d="M12 8C12 7.58579 12.3358 7.25 12.75 7.25L15.25 7.25C15.6642 7.25 16 7.58579 16 8C16 8.41421 15.6642 8.75 15.25 8.75L12.75 8.75C12.3358 8.75 12 8.41421 12 8Z" fill-rule="EVENODD"></path>
  <path d="M0 8C0 7.58579 0.335786 7.25 0.75 7.25L3.25 7.25C3.66421 7.25 4 7.58579 4 8C4 8.41421 3.66421 8.75 3.25 8.75L0.75 8.75C0.335786 8.75 0 8.41421 0 8Z" fill-rule="EVENODD"></path>
  <path d="M8 0C8.41421 0 8.75 0.335786 8.75 0.75L8.75 3.25C8.75 3.66421 8.41421 4 8 4C7.58579 4 7.25 3.66421 7.25 3.25L7.25 0.75C7.25 0.335786 7.58579 0 8 0Z" fill-rule="EVENODD"></path>
  <path d="M8 12C8.41421 12 8.75 12.3358 8.75 12.75L8.75 15.25C8.75 15.6642 8.41421 16 8 16C7.58579 16 7.25 15.6642 7.25 15.25L7.25 12.75C7.25 12.3358 7.58579 12 8 12Z" fill-rule="EVENODD"></path>
 </g>
</svg>