<svg viewBox="0 0 24 24" width="24" height="24" fill="black" xmlns="http://www.w3.org/2000/svg">
 <g transform="translate(1, 1)">
  <path d="M11 1.5C5.75329 1.5 1.5 5.75329 1.5 11C1.5 16.2467 5.75329 20.5 11 20.5C16.2467 20.5 20.5 16.2467 20.5 11C20.5 5.75329 16.2467 1.5 11 1.5ZM0 11C0 4.92487 4.92487 0 11 0C17.0751 0 22 4.92487 22 11C22 17.0751 17.0751 22 11 22C4.92487 22 0 17.0751 0 11Z" fill-rule="EVENODD"></path>
  <path d="M17 11C17 10.5858 17.3358 10.25 17.75 10.25L21.25 10.25C21.6642 10.25 22 10.5858 22 11C22 11.4142 21.6642 11.75 21.25 11.75L17.75 11.75C17.3358 11.75 17 11.4142 17 11Z" fill-rule="EVENODD"></path>
  <path d="M0 11C0 10.5858 0.335786 10.25 0.75 10.25L4.25 10.25C4.66421 10.25 5 10.5858 5 11C5 11.4142 4.66421 11.75 4.25 11.75L0.75 11.75C0.335786 11.75 0 11.4142 0 11Z" fill-rule="EVENODD"></path>
  <path d="M11 0C11.4142 0 11.75 0.335786 11.75 0.75L11.75 4.25C11.75 4.66421 11.4142 5 11 5C10.5858 5 10.25 4.66421 10.25 4.25L10.25 0.75C10.25 0.335786 10.5858 0 11 0Z" fill-rule="EVENODD"></path>
  <path d="M11 17C11.4142 17 11.75 17.3358 11.75 17.75L11.75 21.25C11.75 21.6642 11.4142 22 11 22C10.5858 22 10.25 21.6642 10.25 21.25L10.25 17.75C10.25 17.3358 10.5858 17 11 17Z" fill-rule="EVENODD"></path>
 </g>
</svg>