<svg viewBox="0 0 24 24" width="24" height="24" fill="black" xmlns="http://www.w3.org/2000/svg">
 <g transform="translate(2, 2)">
  <path d="M1.93328 3.17743C1.54818 3.47273 1.5 3.67306 1.5 3.75C1.5 3.82694 1.54818 4.02727 1.93328 4.32257C2.30748 4.6095 2.89611 4.90022 3.69064 5.1579C5.27138 5.67058 7.50217 6 10 6C12.4978 6 14.7286 5.67058 16.3094 5.1579C17.1039 4.90022 17.6925 4.6095 18.0667 4.32257C18.4518 4.02727 18.5 3.82694 18.5 3.75C18.5 3.67306 18.4518 3.47273 18.0667 3.17743C17.6925 2.8905 17.1039 2.59978 16.3094 2.3421C14.7286 1.82942 12.4978 1.5 10 1.5C7.50217 1.5 5.27138 1.82942 3.69064 2.3421C2.89611 2.59978 2.30748 2.8905 1.93328 3.17743ZM3.22788 0.915263C4.99499 0.342148 7.3892 0 10 0C12.6108 0 15.005 0.342148 16.7721 0.915263C17.6515 1.20047 18.4175 1.5562 18.9795 1.98709C19.5305 2.40963 20 2.99851 20 3.75C20 4.50149 19.5305 5.09037 18.9795 5.51291C18.4175 5.9438 17.6515 6.29953 16.7721 6.58474C15.005 7.15785 12.6108 7.5 10 7.5C7.3892 7.5 4.99499 7.15785 3.22788 6.58474C2.34849 6.29953 1.58249 5.9438 1.02054 5.51291C0.469494 5.09037 0 4.50149 0 3.75C0 2.99851 0.469494 2.40963 1.02054 1.98709C1.58249 1.5562 2.34849 1.20047 3.22788 0.915263Z" fill-rule="EVENODD"></path>
  <path d="M0.75 9C1.16421 9 1.5 9.33579 1.5 9.75C1.5 9.83027 1.54929 10.0311 1.9306 10.3251C2.30206 10.6115 2.88732 10.9018 3.67962 11.1592C5.25596 11.6712 7.48645 12 10 12C12.5135 12 14.744 11.6712 16.3204 11.1592C17.1127 10.9018 17.6979 10.6115 18.0694 10.3251C18.4507 10.0311 18.5 9.83027 18.5 9.75C18.5 9.33579 18.8358 9 19.25 9C19.6642 9 20 9.33579 20 9.75C20 10.4997 19.5354 11.0889 18.9853 11.513C18.4253 11.9448 17.6616 12.3007 16.7838 12.5858C15.0199 13.1588 12.6253 13.5 10 13.5C7.37466 13.5 4.98015 13.1588 3.21622 12.5858C2.33837 12.3007 1.57467 11.9448 1.01471 11.513C0.4646 11.0889 0 10.4997 0 9.75C0 9.33579 0.335786 9 0.75 9Z" fill-rule="EVENODD"></path>
  <path d="M0.75 3C1.16421 3 1.5 3.33579 1.5 3.75L1.5 16.1618C1.5 16.2637 1.56013 16.4771 1.93891 16.7778C2.31033 17.0725 2.89479 17.3709 3.68576 17.6354C5.25996 18.1618 7.48823 18.5 10 18.5C12.5118 18.5 14.74 18.1618 16.3142 17.6354C17.1052 17.3709 17.6897 17.0725 18.0611 16.7778C18.4399 16.4771 18.5 16.2637 18.5 16.1618L18.5 3.75C18.5 3.33579 18.8358 3 19.25 3C19.6642 3 20 3.33579 20 3.75L20 16.1618C20 16.9142 19.5462 17.514 18.9936 17.9527C18.4336 18.3971 17.6691 18.764 16.7899 19.058C15.0238 19.6485 12.6271 20 10 20C7.37288 20 4.97615 19.6485 3.21008 19.058C2.3309 18.764 1.56641 18.3971 1.0064 17.9527C0.453758 17.514 0 16.9142 0 16.1618L0 3.75C0 3.33579 0.335786 3 0.75 3Z" fill-rule="EVENODD"></path>
 </g>
</svg>