<svg viewBox="0 0 16 16" width="16" height="16" fill="currentColor" xmlns="http://www.w3.org/2000/svg">
 <g transform="translate(0.000000014901161193847656, 2)">
  <path d="M4.393 0.609497C4.72545 0.222588 5.21018 0 5.72031 0L13.75 0C14.9926 0 16 1.00736 16 2.25L16 9.75C16 10.9926 14.9926 12 13.75 12L5.72031 12C5.21019 12 4.72545 11.7774 4.393 11.3905L0.181153 6.48879C-0.0603843 6.20769 -0.0603843 5.79231 0.181153 5.51121L4.393 0.609497ZM5.72031 1.5C5.64743 1.5 5.57819 1.5318 5.53069 1.58707L1.73884 6L5.53069 10.4129C5.57819 10.4682 5.64743 10.5 5.72031 10.5L13.75 10.5C14.1642 10.5 14.5 10.1642 14.5 9.75L14.5 2.25C14.5 1.83579 14.1642 1.5 13.75 1.5L5.72031 1.5Z" fill-rule="EVENODD"></path>
  <path d="M11.7803 3.21967C12.0732 3.51256 12.0732 3.98744 11.7803 4.28033L7.28033 8.78033C6.98744 9.07322 6.51256 9.07322 6.21967 8.78033C5.92678 8.48744 5.92678 8.01256 6.21967 7.71967L10.7197 3.21967C11.0126 2.92678 11.4874 2.92678 11.7803 3.21967Z" fill-rule="EVENODD"></path>
  <path d="M6.21967 3.21967C6.51256 2.92678 6.98744 2.92678 7.28033 3.21967L11.7803 7.71967C12.0732 8.01256 12.0732 8.48744 11.7803 8.78033C11.4874 9.07322 11.0126 9.07322 10.7197 8.78033L6.21967 4.28033C5.92678 3.98744 5.92678 3.51256 6.21967 3.21967Z" fill-rule="EVENODD"></path>
 </g>
</svg>