<svg viewBox="0 0 24 24" width="24" height="24" fill="currentColor" xmlns="http://www.w3.org/2000/svg">
 <g transform="translate(-0.020644260570406914, 12.000350952148438)">
  <path d="M14.25 1.5L2.75 1.5C2.05964 1.50001 1.49999 2.05966 1.5 2.75002L1.50013 14.2499C1.50013 14.9402 2.05977 15.4998 2.75012 15.4998L14.2498 15.4998C14.9402 15.4998 15.4998 14.9402 15.4998 14.2499L15.5 2.75001C15.5 2.05965 14.9403 1.5 14.25 1.5ZM2.75 4.64916e-06L14.25 2.16382e-13C15.7688 -5.96046e-07 17 1.23123 17 2.75003L16.9998 14.2499C16.9998 15.7686 15.7686 16.9998 14.2498 16.9998L2.75012 16.9998C1.23135 16.9998 0.00014174 15.7686 0.00012523 14.2499L1.6605e-10 2.75004C-1.65103e-05 1.23124 1.2312 5.24521e-06 2.75 4.64916e-06Z" fill-rule="EVENODD"></path>
 </g>
</svg>