<svg viewBox="0 0 16 16" width="16" height="16" fill="black" xmlns="http://www.w3.org/2000/svg">
 <g transform="translate(0.6142842173576355, 1.0499999523162842)">
  <path d="M9.21905 4.7C7.24003 4.7 5.63572 6.30431 5.63572 8.28333C5.63572 10.2624 7.24003 11.8667 9.21905 11.8667C9.81693 11.8667 10.3786 11.7208 10.8724 11.4634C11.1183 11.3353 11.3688 11.3464 11.4988 11.3593C11.652 11.3745 11.8059 11.412 11.9414 11.4519C12.1451 11.5119 12.3689 11.5962 12.5846 11.683C12.501 11.4555 12.4226 11.221 12.3681 11.0066C12.3317 10.8639 12.2996 10.706 12.2887 10.5515C12.2796 10.422 12.2747 10.1755 12.3992 9.93669C12.6565 9.44284 12.8024 8.88122 12.8024 8.28333C12.8024 6.30431 11.1981 4.7 9.21905 4.7ZM4.13572 8.28333C4.13572 5.47589 6.4116 3.2 9.21905 3.2C12.0265 3.2 14.3024 5.47589 14.3024 8.28333C14.3024 9.07825 14.1194 9.83238 13.7927 10.5041C13.7984 10.537 13.8075 10.5808 13.8217 10.6366C13.8721 10.8345 13.9614 11.0902 14.07 11.3707C14.1562 11.5935 14.2474 11.8138 14.3313 12.0166C14.352 12.0666 14.3723 12.1156 14.3919 12.1632C14.4403 12.2806 14.4861 12.3934 14.5227 12.4894C14.5535 12.5705 14.5971 12.6885 14.6196 12.7952C14.6662 13.0164 14.6106 13.2469 14.4682 13.4224C14.3258 13.598 14.1118 13.7 13.8857 13.7C13.7171 13.7 13.554 13.6606 13.4386 13.6279C13.311 13.5916 13.1759 13.5437 13.0452 13.4938C12.8567 13.4218 12.6428 13.3319 12.4386 13.2461C12.3649 13.2152 12.2925 13.1848 12.2231 13.1559C11.9443 13.0401 11.7037 12.9456 11.5175 12.8908C11.4792 12.8795 11.4477 12.8713 11.4225 12.8654C10.7551 13.1868 10.0071 13.3667 9.21905 13.3667C6.4116 13.3667 4.13572 11.0908 4.13572 8.28333ZM11.3508 12.852C11.3513 12.852 11.3518 12.8521 11.3524 12.8521ZM13.7847 10.4313C13.785 10.4315 13.7852 10.4358 13.7849 10.4436C13.7843 10.435 13.7845 10.4311 13.7847 10.4313Z" fill-rule="EVENODD"></path>
  <path d="M5.36667 1.4C6.25012 1.4 7.0583 1.71442 7.68813 2.2382C7.98537 2.4854 8.42672 2.44483 8.67392 2.14759C8.92112 1.85035 8.88055 1.40899 8.5833 1.16179C7.71137 0.43667 6.58909 0 5.36667 0C2.58683 0 0.333332 2.2535 0.333332 5.03333C0.333332 5.82525 0.516714 6.57618 0.843839 7.24429C0.837185 7.29203 0.824119 7.35964 0.801874 7.44852C0.744183 7.67903 0.645769 7.97102 0.533397 8.27054C0.422508 8.56611 0.304538 8.85189 0.213695 9.06499C0.168433 9.17116 0.130272 9.25843 0.103586 9.31881L0.0727904 9.38802L0.0649255 9.40551L0.0630591 9.40964L0.0626395 9.41057C0.06263 9.41059 0.0626491 9.41054 0.0626395 9.41057C-0.0577371 9.67571 -0.00142212 9.98776 0.204104 10.1941C0.409633 10.4003 0.721411 10.4579 0.987009 10.3385C0.987026 10.3384 0.986992 10.3385 0.987009 10.3385L0.989919 10.3372L1.00039 10.3325L1.04273 10.3137C1.08 10.2973 1.13464 10.2734 1.2029 10.244C1.33962 10.1852 1.52989 10.105 1.74387 10.0194C2.18435 9.84332 2.6813 9.66247 3.02152 9.58462C3.39838 9.49838 3.63397 9.12296 3.54773 8.74611C3.46149 8.36925 3.08608 8.13366 2.70922 8.2199C2.48049 8.27224 2.21926 8.35312 1.95978 8.44309C2.03709 8.22079 2.1083 7.99493 2.15998 7.78844C2.19803 7.63642 2.23094 7.47381 2.24359 7.31989C2.25347 7.1996 2.26595 6.94719 2.14222 6.7098C1.8812 6.20898 1.73333 5.63945 1.73333 5.03333C1.73333 3.0267 3.36003 1.4 5.36667 1.4ZM0.849134 7.1758C0.848857 7.17608 0.848626 7.18119 0.849268 7.19029C0.849732 7.18007 0.84941 7.17552 0.849134 7.1758Z" fill-rule="EVENODD"></path>
 </g>
</svg>