<svg viewBox="0 0 16 16" width="16" height="16" fill="black" xmlns="http://www.w3.org/2000/svg">
 <g transform="translate(0, 1)">
  <path d="M4 5.25C4 4.00736 5.00736 3 6.25 3L13.75 3C14.9926 3 16 4.00736 16 5.25L16 13.25C16 13.5318 15.8421 13.7898 15.5911 13.9179C15.3401 14.0461 15.0385 14.0228 14.8102 13.8576L12.2915 12.0345L6.25 12.0345C5.00736 12.0345 4 11.0271 4 9.78448L4 5.25ZM6.25 4.5C5.83579 4.5 5.5 4.83579 5.5 5.25L5.5 9.78448C5.5 10.1987 5.83579 10.5345 6.25 10.5345L12.5345 10.5345C12.6924 10.5345 12.8463 10.5843 12.9742 10.6769L14.5 11.7813L14.5 5.25C14.5 4.83579 14.1642 4.5 13.75 4.5L6.25 4.5Z" fill-rule="EVENODD"></path>
  <path d="M12 0.75C12 0.335786 11.6642 0 11.25 0L2.25 0C1.00736 0 0 1.00736 0 2.25L0 10.25C0 10.5318 0.157948 10.7898 0.408909 10.9179C0.659868 11.0461 0.961484 11.0228 1.18975 10.8576L3.08537 9.48549C3.42091 9.24262 3.49603 8.77373 3.25317 8.43818C3.0103 8.10264 2.5414 8.02752 2.20586 8.27038L1.5 8.78129L1.5 2.25C1.5 1.83579 1.83579 1.5 2.25 1.5L11.25 1.5C11.6642 1.5 12 1.16421 12 0.75Z" fill-rule="EVENODD"></path>
 </g>
</svg>