<svg viewBox="0 0 24 24" width="24" height="24" fill="currentColor" xmlns="http://www.w3.org/2000/svg">
 <g transform="translate(1, 2)">
  <path d="M13.25 0C14.7688 0 16 1.23122 16 2.75L16 3.25C16 3.66421 15.6642 4 15.25 4C14.8358 4 14.5 3.66421 14.5 3.25L14.5 2.75C14.5 2.05964 13.9404 1.5 13.25 1.5L2.75 1.5C2.05964 1.5 1.5 2.05964 1.5 2.75L1.5 13.6895L4.03148 11.6643C4.35493 11.4056 4.82689 11.458 5.08565 11.7815C5.34441 12.1049 5.29197 12.5769 4.96852 12.8357L1.21852 15.8357C0.993394 16.0158 0.684958 16.0509 0.425109 15.926C0.165259 15.8011 0 15.5383 0 15.25L0 2.75C0 1.23122 1.23122 0 2.75 0L13.25 0Z" fill-rule="NONZERO"></path>
  <path d="M8.75 5C7.23122 5 6 6.23122 6 7.75L6 15.25C6 16.7688 7.23122 18 8.75 18L16.7984 18C17.0823 18 17.3577 18.0966 17.5793 18.2739L20.7815 20.8357C21.0066 21.0158 21.315 21.0509 21.5749 20.926C21.8347 20.8011 22 20.5383 22 20.25L22 7.75C22 6.23122 20.7688 5 19.25 5L8.75 5ZM7.5 7.75C7.5 7.05964 8.05964 6.5 8.75 6.5L19.25 6.5C19.9404 6.5 20.5 7.05964 20.5 7.75L20.5 18.6895L18.5163 17.1026C18.0287 16.7125 17.4229 16.5 16.7984 16.5L8.75 16.5C8.05964 16.5 7.5 15.9404 7.5 15.25L7.5 7.75Z" fill-rule="EVENODD"></path>
 </g>
</svg>