<svg viewBox="0 0 24 24" width="24" height="24" fill="currentColor" xmlns="http://www.w3.org/2000/svg">
 <g transform="translate(1, 1)">
  <path d="M11 7C8.79086 7 7 8.79086 7 11C7 13.2091 8.79086 15 11 15C13.2091 15 15 13.2091 15 11C15 8.79086 13.2091 7 11 7ZM8.5 11C8.5 9.61929 9.61929 8.5 11 8.5C12.3807 8.5 13.5 9.61929 13.5 11C13.5 12.3807 12.3807 13.5 11 13.5C9.61929 13.5 8.5 12.3807 8.5 11Z" fill-rule="EVENODD"></path>
  <path d="M11 0C4.92487 0 0 4.92487 0 11C0 17.0751 4.92487 22 11 22C17.0751 22 22 17.0751 22 11C22 4.92487 17.0751 0 11 0ZM1.5 11C1.5 5.75329 5.75329 1.5 11 1.5C16.2467 1.5 20.5 5.75329 20.5 11C20.5 16.2467 16.2467 20.5 11 20.5C5.75329 20.5 1.5 16.2467 1.5 11Z" fill-rule="EVENODD"></path>
 </g>
</svg>