<svg viewBox="0 0 24 24" width="24" height="24" fill="currentColor" xmlns="http://www.w3.org/2000/svg">
 <g transform="translate(3, 1)">
  <path d="M0 2.75C0 1.23122 1.23122 0 2.75 0L16.25 0C17.2165 0 18 0.783502 18 1.75L18 8.25C18 8.66421 17.6642 9 17.25 9C16.8358 9 16.5 8.66421 16.5 8.25L16.5 1.75C16.5 1.61193 16.3881 1.5 16.25 1.5L2.75 1.5C2.05964 1.5 1.5 2.05964 1.5 2.75L1.5 16.7999C1.87503 16.6081 2.29989 16.5 2.75 16.5L4.25 16.5C4.66421 16.5 5 16.8358 5 17.25C5 17.6642 4.66421 18 4.25 18L2.75 18C2.05964 18 1.5 18.5596 1.5 19.25C1.5 19.9404 2.05964 20.5 2.75 20.5L5.75 20.5C6.16421 20.5 6.5 20.8358 6.5 21.25C6.5 21.6642 6.16421 22 5.75 22L2.75 22C1.23122 22 0 20.7688 0 19.25L0 2.75Z" fill-rule="NONZERO"></path>
  <path d="M9.96967 16.2197C10.2626 15.9268 10.7374 15.9268 11.0303 16.2197L12.25 17.4393L12.25 12.75C12.25 12.3358 12.5858 12 13 12C13.4142 12 13.75 12.3358 13.75 12.75L13.75 17.4393L14.9697 16.2197C15.2626 15.9268 15.7374 15.9268 16.0303 16.2197C16.3232 16.5126 16.3232 16.9874 16.0303 17.2803L13.5303 19.7803C13.3839 19.9268 13.1919 20 13 20C12.8983 20 12.8013 19.9798 12.7129 19.9431C12.6245 19.9065 12.5416 19.8522 12.4697 19.7803L9.96967 17.2803C9.67678 16.9874 9.67678 16.5126 9.96967 16.2197Z" fill-rule="NONZERO"></path>
  <path d="M13 9C9.13401 9 6 12.134 6 16C6 19.866 9.13401 23 13 23C16.866 23 20 19.866 20 16C20 12.134 16.866 9 13 9ZM7.5 16C7.5 12.9624 9.96243 10.5 13 10.5C16.0376 10.5 18.5 12.9624 18.5 16C18.5 19.0376 16.0376 21.5 13 21.5C9.96243 21.5 7.5 19.0376 7.5 16Z" fill-rule="EVENODD"></path>
 </g>
</svg>