<svg viewBox="0 0 16 16" width="16" height="16" fill="currentColor" xmlns="http://www.w3.org/2000/svg">
 <g transform="translate(3.000000238418579, 0)">
  <path d="M4.75 0C5.16421 0 5.5 0.335786 5.5 0.75L5.5 15.25C5.5 15.6642 5.16421 16 4.75 16C4.33579 16 4 15.6642 4 15.25L4 0.75C4 0.335786 4.33579 0 4.75 0Z" fill-rule="EVENODD"></path>
  <path d="M1.00081 2.98539C1.64027 2.35345 2.5057 2 3.40625 2L8.75 2C9.16421 2 9.5 2.33579 9.5 2.75C9.5 3.16421 9.16421 3.5 8.75 3.5L3.40625 3.5C2.89784 3.5 2.41201 3.69967 2.05518 4.0523C1.69865 4.40464 1.5 4.8806 1.5 5.375C1.5 5.8694 1.69865 6.34536 2.05518 6.6977C2.41201 7.05033 2.89784 7.25 3.40625 7.25L6.59375 7.25C7.4943 7.25 8.35973 7.60345 8.99919 8.23539C9.63895 8.86762 10 9.72701 10 10.625C10 11.523 9.63895 12.3824 8.99919 13.0146C8.35973 13.6466 7.4943 14 6.59375 14L1.25 14C0.835786 14 0.5 13.6642 0.5 13.25C0.5 12.8358 0.835786 12.5 1.25 12.5L6.59375 12.5C7.10216 12.5 7.58799 12.3003 7.94482 11.9477C8.30135 11.5954 8.5 11.1194 8.5 10.625C8.5 10.1306 8.30135 9.65464 7.94482 9.3023C7.58799 8.94967 7.10216 8.75 6.59375 8.75L3.40625 8.75C2.5057 8.75 1.64027 8.39655 1.00081 7.76461C0.361055 7.13238 0 6.27299 0 5.375C0 4.47701 0.361055 3.61762 1.00081 2.98539Z" fill-rule="EVENODD"></path>
 </g>
</svg>