<svg viewBox="0 0 24 24" width="24" height="24" fill="currentColor" xmlns="http://www.w3.org/2000/svg">
 <g transform="translate(2, 2)">
  <path d="M10.75 0.75C10.75 0.335786 10.4142 0 10 0C9.58579 0 9.25 0.335786 9.25 0.75L9.25 11.3781L5.29252 7.23214C5.00651 6.93252 4.53177 6.92148 4.23214 7.20748C3.93252 7.49349 3.92148 7.96823 4.20748 8.26786L9.45646 13.7668C9.45939 13.7699 9.46235 13.7729 9.46533 13.776C9.47023 13.7809 9.4752 13.7858 9.48024 13.7907C9.61236 13.9177 9.79094 13.9968 9.98796 13.9999C9.99196 14 9.99598 14 10 14C10.004 14 10.008 14 10.012 13.9999C10.2024 13.9969 10.3756 13.923 10.5062 13.8034C10.5187 13.792 10.5308 13.7801 10.5425 13.7679L15.7925 8.26786C16.0785 7.96823 16.0675 7.49349 15.7679 7.20748C15.4682 6.92148 14.9935 6.93252 14.7075 7.23214L10.75 11.3781L10.75 0.75Z" fill-rule="NONZERO"></path>
  <path d="M0.75 12C1.16421 12 1.5 12.3358 1.5 12.75L1.5 17.25C1.5 17.9404 2.05964 18.5 2.75 18.5L17.25 18.5C17.9404 18.5 18.5 17.9404 18.5 17.25L18.5 12.75C18.5 12.3358 18.8358 12 19.25 12C19.6642 12 20 12.3358 20 12.75L20 17.25C20 18.7688 18.7688 20 17.25 20L2.75 20C1.23122 20 0 18.7688 0 17.25L0 12.75C0 12.3358 0.335786 12 0.75 12Z" fill-rule="NONZERO"></path>
 </g>
</svg>