<svg viewBox="0 0 16 16" width="16" height="16" fill="black" xmlns="http://www.w3.org/2000/svg">
 <g transform="translate(1, 1)">
  <path d="M0.75 8C1.16421 8 1.5 8.33579 1.5 8.75L1.5 11.75C1.5 12.1642 1.83579 12.5 2.25 12.5L11.75 12.5C12.1642 12.5 12.5 12.1642 12.5 11.75L12.5 8.75C12.5 8.33579 12.8358 8 13.25 8C13.6642 8 14 8.33579 14 8.75L14 11.75C14 12.9926 12.9926 14 11.75 14L2.25 14C1.00736 14 0 12.9926 0 11.75L0 8.75C0 8.33579 0.335786 8 0.75 8Z" fill-rule="EVENODD"></path>
  <path d="M3.23966 5.2004C3.54319 4.91855 4.01774 4.93613 4.2996 5.23966L7 8.14779L9.70041 5.23966C9.98226 4.93613 10.4568 4.91855 10.7603 5.2004C11.0639 5.48226 11.0814 5.95681 10.7996 6.26034L7.54959 9.76034C7.40769 9.91316 7.20855 10 7 10C6.79145 10 6.59231 9.91316 6.45041 9.76034L3.2004 6.26034C2.91855 5.95681 2.93613 5.48226 3.23966 5.2004Z" fill-rule="EVENODD"></path>
  <path d="M7 0C7.41421 0 7.75 0.335786 7.75 0.75L7.75 9.25C7.75 9.66421 7.41421 10 7 10C6.58579 10 6.25 9.66421 6.25 9.25L6.25 0.75C6.25 0.335786 6.58579 0 7 0Z" fill-rule="EVENODD"></path>
 </g>
</svg>