<svg viewBox="0 0 16 16" width="16" height="16" fill="currentColor" xmlns="http://www.w3.org/2000/svg">
 <g transform="translate(1, 1)">
  <path d="M7.75 0.75C7.75 0.335786 7.41421 0 7 0C6.58579 0 6.25 0.335786 6.25 0.75L6.25 7.3401L4.2996 5.23967C4.01775 4.93613 3.5432 4.91856 3.23966 5.20041C2.93613 5.48226 2.91856 5.95681 3.20041 6.26034L6.4488 9.75861C6.45311 9.76328 6.45748 9.7679 6.46191 9.77246C6.47009 9.78088 6.47846 9.7891 6.48702 9.79713C6.61732 9.91934 6.79128 9.99555 6.983 9.99981C6.98865 9.99994 6.99432 10 7 10C7.00568 10 7.01135 9.99994 7.01701 9.99981C7.20207 9.99569 7.3706 9.92454 7.49927 9.80968C7.51673 9.7941 7.53353 9.77764 7.5496 9.76034L10.7996 6.26034C11.0815 5.95681 11.0639 5.48226 10.7603 5.20041C10.4568 4.91856 9.98226 4.93613 9.70041 5.23967L7.75 7.3401L7.75 0.75Z" fill-rule="NONZERO"></path>
  <path d="M0.75 8C1.16421 8 1.5 8.33579 1.5 8.75L1.5 11.75C1.5 12.1642 1.83579 12.5 2.25 12.5L11.75 12.5C12.1642 12.5 12.5 12.1642 12.5 11.75L12.5 8.75C12.5 8.33579 12.8358 8 13.25 8C13.6642 8 14 8.33579 14 8.75L14 11.75C14 12.9926 12.9926 14 11.75 14L2.25 14C1.00736 14 0 12.9926 0 11.75L0 8.75C0 8.33579 0.335786 8 0.75 8Z" fill-rule="NONZERO"></path>
 </g>
</svg>