<svg viewBox="0 0 24 24" width="24" height="24" fill="black" xmlns="http://www.w3.org/2000/svg">
 <g transform="translate(2, 2)">
  <path d="M0.75 12C1.16421 12 1.5 12.3358 1.5 12.75L1.5 17.25C1.5 17.9404 2.05964 18.5 2.75 18.5L17.25 18.5C17.9404 18.5 18.5 17.9404 18.5 17.25L18.5 12.75C18.5 12.3358 18.8358 12 19.25 12C19.6642 12 20 12.3358 20 12.75L20 17.25C20 18.7688 18.7688 20 17.25 20L2.75 20C1.23122 20 0 18.7688 0 17.25L0 12.75C0 12.3358 0.335786 12 0.75 12Z" fill-rule="EVENODD"></path>
  <path d="M4.23214 7.20748C4.53177 6.92148 5.00651 6.93252 5.29252 7.23214L10 12.1638L14.7075 7.23214C14.9935 6.93252 15.4682 6.92148 15.7679 7.20748C16.0675 7.49349 16.0785 7.96823 15.7925 8.26786L10.5425 13.7679C10.401 13.9161 10.205 14 10 14C9.79504 14 9.599 13.9161 9.45748 13.7679L4.20748 8.26786C3.92148 7.96823 3.93252 7.49349 4.23214 7.20748Z" fill-rule="EVENODD"></path>
  <path d="M10 0C10.4142 0 10.75 0.335786 10.75 0.75L10.75 13.25C10.75 13.6642 10.4142 14 10 14C9.58579 14 9.25 13.6642 9.25 13.25L9.25 0.75C9.25 0.335786 9.58579 0 10 0Z" fill-rule="EVENODD"></path>
 </g>
</svg>