<svg viewBox="0 0 16 16" width="16" height="16" fill="black" xmlns="http://www.w3.org/2000/svg">
 <g transform="translate(2, 1)">
  <path d="M5.47701 0.212432C5.76814 -0.0708106 6.23185 -0.0708105 6.52299 0.212432L10.3355 3.92154C10.3421 3.928 10.3486 3.93458 10.355 3.94128C11.3733 5.0082 12 6.45208 12 8.04058C12 11.3374 9.30821 14 6 14C2.69179 14 0 11.3374 0 8.04058C0 6.45208 0.626671 5.0082 1.64497 3.94128C1.65136 3.93458 1.65788 3.928 1.66452 3.92154L5.47701 0.212432ZM2.72085 4.98661C1.96257 5.78583 1.5 6.85929 1.5 8.04058C1.5 10.498 3.50922 12.5 6 12.5C8.49078 12.5 10.5 10.498 10.5 8.04058C10.5 6.85929 10.0374 5.78582 9.27915 4.98661L6 1.79638L2.72085 4.98661Z" fill-rule="EVENODD"></path>
 </g>
</svg>