<svg viewBox="0 0 16 16" width="16" height="16" fill="currentColor" xmlns="http://www.w3.org/2000/svg">
 <g transform="translate(0, 0)">
  <path d="M2.25 0C1.00736 0 0 1.00736 0 2.25L0 9.75C0 10.9926 1.00736 12 2.25 12L2.5 12C2.91421 12 3.25 11.6642 3.25 11.25C3.25 10.8358 2.91421 10.5 2.5 10.5L2.25 10.5C1.83579 10.5 1.5 10.1642 1.5 9.75L1.5 2.25C1.5 1.83579 1.83579 1.5 2.25 1.5L9.75 1.5C10.1642 1.5 10.5 1.83579 10.5 2.25L10.5 2.5C10.5 2.91421 10.8358 3.25 11.25 3.25C11.6642 3.25 12 2.91421 12 2.5L12 2.25C12 1.00736 10.9926 0 9.75 0L2.25 0Z" fill-rule="NONZERO"></path>
  <path d="M6.25 4C5.00736 4 4 5.00736 4 6.25L4 13.75C4 14.9926 5.00736 16 6.25 16L13.75 16C14.9926 16 16 14.9926 16 13.75L16 6.25C16 5.00736 14.9926 4 13.75 4L6.25 4ZM5.5 6.25C5.5 5.83579 5.83579 5.5 6.25 5.5L13.75 5.5C14.1642 5.5 14.5 5.83579 14.5 6.25L14.5 13.75C14.5 14.1642 14.1642 14.5 13.75 14.5L6.25 14.5C5.83579 14.5 5.5 14.1642 5.5 13.75L5.5 6.25Z" fill-rule="EVENODD"></path>
 </g>
</svg>