<svg viewBox="0 0 16 16" width="16" height="16" fill="black" xmlns="http://www.w3.org/2000/svg">
 <g transform="translate(0.25, 0.25)">
  <path d="M2.17857 0C0.97538 0 0 0.975379 0 2.17857L0 9.32143C0 10.5246 0.975379 11.5 2.17857 11.5L2.25 11.5C2.66421 11.5 3 11.1642 3 10.75C3 10.3358 2.66421 10 2.25 10L2.17857 10C1.80381 10 1.5 9.69619 1.5 9.32143L1.5 2.17857C1.5 1.80381 1.80381 1.5 2.17857 1.5L9.32143 1.5C9.69619 1.5 10 1.80381 10 2.17857L10 2.25C10 2.66421 10.3358 3 10.75 3C11.1642 3 11.5 2.66421 11.5 2.25L11.5 2.17857C11.5 0.97538 10.5246 0 9.32143 0L2.17857 0Z" fill-rule="NONZERO"></path>
  <path d="M6.17857 4C4.97538 4 4 4.97538 4 6.17857L4 13.3214C4 14.5246 4.97538 15.5 6.17857 15.5L13.3214 15.5C14.5246 15.5 15.5 14.5246 15.5 13.3214L15.5 6.17857C15.5 4.97538 14.5246 4 13.3214 4L6.17857 4ZM5.5 6.17857C5.5 5.80381 5.80381 5.5 6.17857 5.5L13.3214 5.5C13.6962 5.5 14 5.80381 14 6.17857L14 13.3214C14 13.6962 13.6962 14 13.3214 14L6.17857 14C5.80381 14 5.5 13.6962 5.5 13.3214L5.5 6.17857Z" fill-rule="EVENODD"></path>
 </g>
</svg>