<svg viewBox="0 0 24 24" width="24" height="24" fill="currentColor" xmlns="http://www.w3.org/2000/svg">
 <g transform="translate(1, 2.07842755317688)">
  <path d="M2.75 2.42157C2.05964 2.42157 1.5 2.98122 1.5 3.67157L1.5 18.1716C1.5 18.8619 2.05964 19.4216 2.75 19.4216L17.25 19.4216C17.9404 19.4216 18.5 18.8619 18.5 18.1716L18.5 10.9216C18.5 10.5074 18.8358 10.1716 19.25 10.1716C19.6642 10.1716 20 10.5074 20 10.9216L20 18.1716C20 19.6904 18.7688 20.9216 17.25 20.9216L2.75 20.9216C1.23122 20.9216 0 19.6904 0 18.1716L0 3.67157C0 2.15279 1.23122 0.921572 2.75 0.921572L10 0.921572C10.4142 0.921572 10.75 1.25736 10.75 1.67157C10.75 2.08579 10.4142 2.42157 10 2.42157L2.75 2.42157Z" fill-rule="EVENODD"></path>
  <path d="M16.0555 0.805457C17.1294 -0.268484 18.8706 -0.268487 19.9445 0.805456L20.1161 0.977028C21.1901 2.05097 21.1901 3.79217 20.1161 4.86612L11.1109 13.8713C10.656 14.3262 10.1135 14.6839 9.51624 14.9229L5.27854 16.6179C4.99998 16.7294 4.68182 16.664 4.46967 16.4519C4.25752 16.2398 4.19222 15.9216 4.30364 15.643L5.99872 11.4053C6.23763 10.8081 6.59536 10.2656 7.05023 9.81069L16.0555 0.805457ZM18.8839 1.86612C18.3957 1.37796 17.6043 1.37796 17.1161 1.86612L8.11089 10.8713C7.79966 11.1826 7.5549 11.5538 7.39143 11.9624L6.34629 14.5753L8.95915 13.5301C9.36781 13.3667 9.739 13.1219 10.0502 12.8107L19.0555 3.80546C19.5436 3.3173 19.5436 2.52584 19.0555 2.03769L18.8839 1.86612Z" fill-rule="EVENODD"></path>
  <path d="M17.9697 5.9519L14.9697 2.9519L16.0303 1.89124L19.0303 4.89124L17.9697 5.9519Z" fill-rule="EVENODD"></path>
 </g>
</svg>