<svg viewBox="0 0 16 16" width="16" height="16" fill="currentColor" xmlns="http://www.w3.org/2000/svg">
 <g transform="translate(1, 0.3800814747810364)">
  <path d="M2.25 3.11992C1.83579 3.11992 1.5 3.45571 1.5 3.86992L1.5 13.3699C1.5 13.7841 1.83579 14.1199 2.25 14.1199L11.75 14.1199C12.1642 14.1199 12.5 13.7841 12.5 13.3699L12.5 8.61992C12.5 8.20571 12.8358 7.86992 13.25 7.86992C13.6642 7.86992 14 8.20571 14 8.61992L14 13.3699C14 14.6126 12.9926 15.6199 11.75 15.6199L2.25 15.6199C1.00736 15.6199 0 14.6126 0 13.3699L0 3.86992C0 2.62728 1.00736 1.61992 2.25 1.61992L5 1.61992C5.41421 1.61992 5.75 1.95571 5.75 2.36992C5.75 2.78413 5.41421 3.11992 5 3.11992L2.25 3.11992Z" fill-rule="EVENODD"></path>
  <path d="M10.4362 0.625163C11.0574 -0.115216 12.1612 -0.211792 12.9016 0.409462L13.6039 0.99878C14.3443 1.62003 14.4409 2.72386 13.8196 3.46424L8.11558 10.2621C7.70209 10.7549 7.19281 11.1585 6.61864 11.4486L4.04689 12.7477C3.7791 12.883 3.45645 12.8457 3.22662 12.6528C2.99679 12.46 2.90401 12.1487 2.99073 11.8615L3.82358 9.10324C4.00952 8.48742 4.31861 7.91579 4.7321 7.42301L10.4362 0.625163ZM11.9374 1.55853C11.8317 1.46978 11.674 1.48357 11.5852 1.58934L5.88117 8.38719C5.59825 8.72436 5.38677 9.11547 5.25954 9.53682L4.93254 10.6198L5.94229 10.1097C6.33514 9.91125 6.68359 9.63507 6.96651 9.2979L12.6706 2.50005C12.7593 2.39429 12.7455 2.2366 12.6398 2.14785L11.9374 1.55853Z" fill-rule="EVENODD"></path>
  <path d="M11.7015 4.73226L9.55102 2.91507L10.5192 1.76934L12.6697 3.58652L11.7015 4.73226Z" fill-rule="EVENODD"></path>
 </g>
</svg>