<svg viewBox="0 0 16 16" width="16" height="16" fill="black" xmlns="http://www.w3.org/2000/svg">
 <g transform="translate(1.25, 0.25)">
  <path d="M10.139 0.618913C10.7611 -0.117386 11.8624 -0.209902 12.5987 0.412269L13.4974 1.17166C14.2337 1.79383 14.3262 2.89509 13.704 3.63138L8.02296 10.3545C7.78339 10.6381 7.48872 10.87 7.15684 11.0362L4.44668 12.3935C3.66147 12.7868 2.78742 12.0482 3.04417 11.2084L3.93033 8.30978C4.03884 7.95481 4.21833 7.62559 4.4579 7.34207L10.139 0.618913ZM11.6306 1.558C11.527 1.47052 11.3722 1.48353 11.2847 1.58706L10.7077 2.26994L11.9813 3.34613L12.5583 2.66324C12.6458 2.55971 12.6328 2.40487 12.5292 2.31739L11.6306 1.558ZM11.0131 4.49186L9.73952 3.41567L5.60363 8.31021C5.49518 8.43857 5.41392 8.58761 5.36479 8.74831L4.8205 10.5287L6.48512 9.69499C6.63537 9.61974 6.76877 9.51475 6.87723 9.3864L11.0131 4.49186Z" fill-rule="EVENODD"></path>
  <path d="M2.08333 3.16675C1.92862 3.16675 1.78025 3.22821 1.67085 3.3376C1.56146 3.447 1.5 3.59537 1.5 3.75008L1.5 13.0834C1.5 13.2381 1.56146 13.3865 1.67085 13.4959C1.78025 13.6053 1.92862 13.6667 2.08333 13.6667L11.4167 13.6667C11.5714 13.6667 11.7197 13.6053 11.8291 13.4959C11.9385 13.3865 12 13.2381 12 13.0834L12 9.52341C12 9.1092 12.3358 8.77341 12.75 8.77341C13.1642 8.77341 13.5 9.1092 13.5 9.52341L13.5 13.0834C13.5 13.636 13.2805 14.1659 12.8898 14.5566C12.4991 14.9473 11.9692 15.1667 11.4167 15.1667L2.08333 15.1667C1.5308 15.1667 1.00089 14.9473 0.610194 14.5566C0.219493 14.1659 0 13.6359 0 13.0834L0 3.75008C0 3.19755 0.219493 2.66764 0.610194 2.27694C1.0009 1.88624 1.5308 1.66675 2.08333 1.66675L5.64333 1.66675C6.05755 1.66675 6.39333 2.00253 6.39333 2.41675C6.39333 2.83096 6.05755 3.16675 5.64333 3.16675L2.08333 3.16675Z" fill-rule="NONZERO"></path>
 </g>
</svg>