<svg viewBox="0 0 16 16" width="16" height="16" fill="currentColor" xmlns="http://www.w3.org/2000/svg">
 <g transform="translate(1, 1)">
  <path d="M7 1.5C5.10433 1.5 3.43227 2.45839 2.44218 3.92052C2.20993 4.2635 1.74362 4.35326 1.40064 4.12102C1.05767 3.88877 0.967902 3.42246 1.20015 3.07948C2.45737 1.22284 4.58576 0 7 0C10.866 0 14 3.13401 14 7C14 10.866 10.866 14 7 14C4.58576 14 2.45737 12.7772 1.20015 10.9205C0.967902 10.5775 1.05767 10.1112 1.40064 9.87898C1.74362 9.64674 2.20993 9.7365 2.44218 10.0795C3.43227 11.5416 5.10433 12.5 7 12.5C10.0376 12.5 12.5 10.0376 12.5 7C12.5 3.96243 10.0376 1.5 7 1.5Z" fill-rule="EVENODD"></path>
  <path d="M6.2455 3.69504C5.939 3.97368 5.91641 4.44801 6.19504 4.7545L8.2364 7L6.19504 9.24549C5.91641 9.55199 5.939 10.0263 6.2455 10.305C6.55199 10.5836 7.02632 10.561 7.30496 10.2545L9.80496 7.5045C10.065 7.21844 10.065 6.78156 9.80496 6.4955L7.30496 3.7455C7.02632 3.439 6.55199 3.41641 6.2455 3.69504Z" fill-rule="EVENODD"></path>
  <path d="M0 7C0 6.58579 0.335786 6.25 0.75 6.25L9.25 6.25C9.66421 6.25 10 6.58579 10 7C10 7.41421 9.66421 7.75 9.25 7.75L0.75 7.75C0.335786 7.75 0 7.41421 0 7Z" fill-rule="EVENODD"></path>
 </g>
</svg>