<svg viewBox="0 0 16 16" width="16" height="16" fill="currentColor" xmlns="http://www.w3.org/2000/svg">
 <g transform="translate(0, 0)">
  <path d="M0 3.25C0 2.00736 1.00736 1 2.25 1L13.75 1C14.9926 1 16 2.00736 16 3.25L16 13.75C16 14.9926 14.9926 16 13.75 16L2.25 16C1.00736 16 0 14.9926 0 13.75L0 3.25ZM2.25 2.5C1.83579 2.5 1.5 2.83579 1.5 3.25L1.5 13.75C1.5 14.1642 1.83579 14.5 2.25 14.5L13.75 14.5C14.1642 14.5 14.5 14.1642 14.5 13.75L14.5 3.25C14.5 2.83579 14.1642 2.5 13.75 2.5L2.25 2.5Z" fill-rule="EVENODD"></path>
  <path d="M11.25 0C11.6642 0 12 0.335786 12 0.75L12 3.25C12 3.66421 11.6642 4 11.25 4C10.8358 4 10.5 3.66421 10.5 3.25L10.5 0.75C10.5 0.335786 10.8358 0 11.25 0Z" fill-rule="EVENODD"></path>
  <path d="M4.75 0C5.16421 0 5.5 0.335786 5.5 0.75L5.5 3.25C5.5 3.66421 5.16421 4 4.75 4C4.33579 4 4 3.66421 4 3.25L4 0.75C4 0.335786 4.33579 0 4.75 0Z" fill-rule="EVENODD"></path>
  <path d="M8 3.75C8.28764 3.75 8.54994 3.91451 8.67518 4.17345L9.81588 6.53198L12.3607 6.9116C12.6412 6.95345 12.8741 7.14999 12.9626 7.41948C13.0511 7.68898 12.9799 7.98533 12.7787 8.1853L10.9289 10.0241L11.3661 12.6257C11.4136 12.9079 11.2962 13.1926 11.0637 13.3594C10.8312 13.5262 10.524 13.5462 10.2718 13.4108L8 12.1915L5.72818 13.4108C5.47602 13.5462 5.16882 13.5262 4.93629 13.3594C4.70376 13.1926 4.58644 12.9079 4.63387 12.6257L5.07107 10.0241L3.22125 8.1853C3.02009 7.98533 2.94895 7.68898 3.03741 7.41948C3.12587 7.14999 3.3588 6.95345 3.63934 6.9116L6.18412 6.53198L7.32482 4.17345C7.45006 3.91451 7.71236 3.75 8 3.75ZM8 6.22256L7.36193 7.54185C7.25397 7.76507 7.04265 7.92051 6.79741 7.95709L5.33831 8.17475L6.40375 9.23387C6.57634 9.40543 6.65496 9.65008 6.61463 9.89007L6.36664 11.3658L7.64532 10.6795C7.86683 10.5606 8.13317 10.5606 8.35468 10.6795L9.63336 11.3658L9.38537 9.89007C9.34504 9.65008 9.42366 9.40543 9.59625 9.23387L10.6617 8.17475L9.20259 7.95709C8.95735 7.92051 8.74603 7.76507 8.63807 7.54185L8 6.22256Z" fill-rule="EVENODD"></path>
 </g>
</svg>