<svg viewBox="0 0 24 24" width="24" height="24" fill="currentColor" xmlns="http://www.w3.org/2000/svg">
 <g transform="translate(2, 1.25)">
  <path d="M10.6726 6.41803C10.5462 6.16205 10.2855 6 10 6C9.71456 6 9.45385 6.16205 9.32749 6.41803L7.80233 9.50785L4.39155 10.0064C4.10913 10.0477 3.87462 10.2457 3.78659 10.5172C3.69855 10.7887 3.77226 11.0866 3.97672 11.2858L6.44413 13.689L5.86182 17.0842C5.81355 17.3656 5.92924 17.65 6.16022 17.8178C6.3912 17.9856 6.69742 18.0077 6.95011 17.8748L10 16.2709L13.0499 17.8748C13.3026 18.0077 13.6088 17.9856 13.8398 17.8178C14.0708 17.65 14.1865 17.3656 14.1382 17.0842L13.5559 13.689L16.0233 11.2858C16.2278 11.0866 16.3015 10.7887 16.2135 10.5172C16.1254 10.2457 15.8909 10.0477 15.6085 10.0064L12.1977 9.50785L10.6726 6.41803ZM8.97305 10.525L10 8.44444L11.027 10.525C11.1361 10.7461 11.347 10.8994 11.5911 10.9351L13.8887 11.271L12.2267 12.8897C12.0498 13.062 11.9691 13.3104 12.0108 13.5538L12.4029 15.8398L10.3491 14.7597C10.1306 14.6448 9.86947 14.6448 9.65093 14.7597L7.59716 15.8398L7.98923 13.5538C8.03097 13.3104 7.95023 13.062 7.77332 12.8897L6.11133 11.271L8.40899 10.9351C8.65301 10.8994 8.8639 10.7461 8.97305 10.525Z" fill-rule="EVENODD"></path>
  <path d="M15 0.75C15 0.335786 14.6642 0 14.25 0C13.8358 0 13.5 0.335786 13.5 0.75L13.5 1.75L6.5 1.75L6.5 0.75C6.5 0.335786 6.16421 0 5.75 0C5.33579 0 5 0.335786 5 0.75L5 1.75L2.75 1.75C1.23122 1.75 0 2.98122 0 4.5L0 19C0 20.5188 1.23122 21.75 2.75 21.75L17.25 21.75C18.7688 21.75 20 20.5188 20 19L20 4.5C20 2.98122 18.7688 1.75 17.25 1.75L15 1.75L15 0.75ZM5 4.75L5 3.25L2.75 3.25C2.05964 3.25 1.5 3.80964 1.5 4.5L1.5 19C1.5 19.6904 2.05964 20.25 2.75 20.25L17.25 20.25C17.9404 20.25 18.5 19.6904 18.5 19L18.5 4.5C18.5 3.80964 17.9404 3.25 17.25 3.25L15 3.25L15 4.75C15 5.16421 14.6642 5.5 14.25 5.5C13.8358 5.5 13.5 5.16421 13.5 4.75L13.5 3.25L6.5 3.25L6.5 4.75C6.5 5.16421 6.16421 5.5 5.75 5.5C5.33579 5.5 5 5.16421 5 4.75Z" fill-rule="EVENODD"></path>
 </g>
</svg>