<svg viewBox="0 0 16 16" width="16" height="16" fill="black" xmlns="http://www.w3.org/2000/svg">
 <g transform="translate(1, 2)">
  <path d="M0 6C0 2.68629 2.68629 0 6 0C6.89631 0 7.74866 0.197029 8.51435 0.550852C8.89036 0.724604 9.05433 1.17027 8.88057 1.54628C8.70682 1.92229 8.26115 2.08625 7.88514 1.9125C7.31267 1.64797 6.67464 1.5 6 1.5C3.51472 1.5 1.5 3.51472 1.5 6C1.5 8.48528 3.51472 10.5 6 10.5C6.67464 10.5 7.31267 10.352 7.88514 10.0875C8.26115 9.91374 8.70682 10.0777 8.88057 10.4537C9.05433 10.8297 8.89036 11.2754 8.51435 11.4491C7.74866 11.803 6.89631 12 6 12C2.68629 12 0 9.31371 0 6Z" fill-rule="EVENODD"></path>
  <path d="M10.2455 2.69504C9.939 2.97368 9.91642 3.44801 10.195 3.7545L12.2364 6L10.195 8.24549C9.91642 8.55199 9.939 9.02632 10.2455 9.30495C10.552 9.58358 11.0263 9.561 11.305 9.25451L13.805 6.5045C14.065 6.21844 14.065 5.78156 13.805 5.4955L11.305 2.7455C11.0263 2.439 10.552 2.41641 10.2455 2.69504Z" fill-rule="EVENODD"></path>
  <path d="M5 6C5 5.58579 5.33579 5.25 5.75 5.25L13.25 5.25C13.6642 5.25 14 5.58579 14 6C14 6.41421 13.6642 6.75 13.25 6.75L5.75 6.75C5.33579 6.75 5 6.41421 5 6Z" fill-rule="EVENODD"></path>
 </g>
</svg>