<svg viewBox="0 0 24 24" width="24" height="24" fill="black" xmlns="http://www.w3.org/2000/svg">
 <g transform="translate(3, 5)">
  <path d="M0 7C0 3.13401 3.13401 0 7 0C8.35996 0 9.63145 0.388568 10.7069 1.06107C11.0581 1.28069 11.1647 1.74343 10.9451 2.09462C10.7255 2.44582 10.2628 2.55249 9.91155 2.33287C9.06765 1.80514 8.07061 1.5 7 1.5C3.96243 1.5 1.5 3.96243 1.5 7C1.5 10.0376 3.96243 12.5 7 12.5C8.07061 12.5 9.06765 12.1949 9.91155 11.6671C10.2628 11.4475 10.7255 11.5542 10.9451 11.9054C11.1647 12.2566 11.0581 12.7193 10.7069 12.9389C9.63145 13.6114 8.35996 14 7 14C3.13401 14 0 10.866 0 7Z" fill-rule="EVENODD"></path>
  <path d="M6 7C6 6.58579 6.33579 6.25 6.75 6.25L18.25 6.25C18.6642 6.25 19 6.58579 19 7C19 7.41421 18.6642 7.75 18.25 7.75L6.75 7.75C6.33579 7.75 6 7.41421 6 7Z" fill-rule="EVENODD"></path>
  <path d="M13.2047 2.23503C12.9203 2.53617 12.9339 3.01085 13.235 3.29526L17.1577 7L13.235 10.7047C12.9339 10.9891 12.9203 11.4638 13.2047 11.765C13.4891 12.0661 13.9638 12.0797 14.265 11.7953L18.765 7.54526C18.915 7.40358 19 7.20635 19 7C19 6.79365 18.915 6.59642 18.765 6.45474L14.265 2.20474C13.9638 1.92033 13.4891 1.93389 13.2047 2.23503Z" fill-rule="EVENODD"></path>
 </g>
</svg>