<svg viewBox="0 0 24 24" width="24" height="24" fill="currentColor" xmlns="http://www.w3.org/2000/svg">
 <g transform="translate(2, 2)">
  <path d="M2.75 4.5C2.05964 4.5 1.5 5.05964 1.5 5.75L1.5 17.25C1.5 17.9404 2.05964 18.5 2.75 18.5L14.25 18.5C14.9404 18.5 15.5 17.9404 15.5 17.25L15.5 10.75C15.5 10.3358 15.8358 10 16.25 10C16.6642 10 17 10.3358 17 10.75L17 17.25C17 18.7688 15.7688 20 14.25 20L2.75 20C1.23122 20 0 18.7688 0 17.25L0 5.75C0 4.23122 1.23122 3 2.75 3L9.25 3C9.66421 3 10 3.33579 10 3.75C10 4.16421 9.66421 4.5 9.25 4.5L2.75 4.5Z" fill-rule="EVENODD"></path>
  <path d="M13 0.75C13 0.335786 13.3358 0 13.75 0L19.25 0C19.6642 0 20 0.335786 20 0.75L20 6.25C20 6.66421 19.6642 7 19.25 7C18.8358 7 18.5 6.66421 18.5 6.25L18.5 1.5L13.75 1.5C13.3358 1.5 13 1.16421 13 0.75Z" fill-rule="EVENODD"></path>
  <path d="M19.7803 0.21967C20.0732 0.512563 20.0732 0.987437 19.7803 1.28033L8.28033 12.7803C7.98744 13.0732 7.51256 13.0732 7.21967 12.7803C6.92678 12.4874 6.92678 12.0126 7.21967 11.7197L18.7197 0.21967C19.0126 -0.0732233 19.4874 -0.0732233 19.7803 0.21967Z" fill-rule="EVENODD"></path>
 </g>
</svg>