<svg viewBox="0 0 16 16" width="16" height="16" fill="black" xmlns="http://www.w3.org/2000/svg">
 <g transform="translate(0, 2)">
  <path d="M1.52646 6C1.53467 5.98017 1.54437 5.9577 1.55573 5.93256C1.62097 5.78821 1.72575 5.58926 1.87209 5.35237C2.16438 4.87922 2.60356 4.28524 3.17758 3.70608C4.33175 2.54156 5.96407 1.5 8 1.5C10.0359 1.5 11.6682 2.54156 12.8224 3.70608C13.3964 4.28524 13.8356 4.87922 14.1279 5.35237C14.2742 5.58926 14.379 5.78821 14.4443 5.93256C14.4556 5.9577 14.4653 5.98017 14.4735 6C14.4653 6.01983 14.4556 6.0423 14.4443 6.06744C14.379 6.21178 14.2742 6.41074 14.1279 6.64763C13.8356 7.12078 13.3964 7.71476 12.8224 8.29392C11.6682 9.45844 10.0359 10.5 8 10.5C5.96407 10.5 4.33175 9.45844 3.17758 8.29392C2.60356 7.71476 2.16438 7.12078 1.87209 6.64763C1.72575 6.41074 1.62097 6.21178 1.55573 6.06744C1.54437 6.0423 1.53467 6.01983 1.52646 6ZM2.11219 2.65017C3.42961 1.32094 5.42229 0 8 0C10.5777 0 12.5704 1.32094 13.8878 2.65017C14.5496 3.31788 15.0578 4.00359 15.4041 4.56404C15.577 4.84394 15.7142 5.10026 15.8111 5.3148C15.8594 5.42148 15.9015 5.52645 15.9331 5.62458C15.9588 5.70407 16 5.84529 16 6C16 6.15471 15.9588 6.29593 15.9331 6.37542C15.9015 6.47355 15.8594 6.57852 15.8111 6.6852C15.7142 6.89974 15.577 7.15606 15.4041 7.43596C15.0578 7.99641 14.5496 8.68212 13.8878 9.34983C12.5704 10.6791 10.5777 12 8 12C5.42229 12 3.42961 10.6791 2.11219 9.34983C1.45041 8.68212 0.942159 7.99641 0.595948 7.43596C0.423041 7.15606 0.285811 6.89974 0.18885 6.6852C0.140638 6.57852 0.0984587 6.47355 0.0668514 6.37542C0.041248 6.29593 0 6.15471 0 6C0 5.84529 0.041248 5.70407 0.0668514 5.62458C0.0984587 5.52645 0.140638 5.42148 0.18885 5.3148C0.285811 5.10026 0.423041 4.84394 0.595948 4.56404C0.942159 4.00359 1.45041 3.31788 2.11219 2.65017Z" fill-rule="EVENODD"></path>
  <path d="M8 4.5C7.17157 4.5 6.5 5.17157 6.5 6C6.5 6.82843 7.17157 7.5 8 7.5C8.82843 7.5 9.5 6.82843 9.5 6C9.5 5.17157 8.82843 4.5 8 4.5ZM5 6C5 4.34315 6.34315 3 8 3C9.65685 3 11 4.34315 11 6C11 7.65685 9.65685 9 8 9C6.34315 9 5 7.65685 5 6Z" fill-rule="EVENODD"></path>
 </g>
</svg>