<svg viewBox="0 0 24 24" width="24" height="24" fill="black" xmlns="http://www.w3.org/2000/svg">
 <g transform="translate(0, 3)">
  <path d="M1.53447 9C1.55504 9.04823 1.58174 9.10716 1.61525 9.17663C1.72772 9.40973 1.90209 9.73076 2.13818 10.1109C2.61027 10.871 3.31411 11.8432 4.23145 12.799C6.0755 14.7204 8.70546 16.5 12 16.5C15.2945 16.5 17.9245 14.7204 19.7685 12.799C20.6859 11.8432 21.3897 10.871 21.8618 10.1109C22.0979 9.73076 22.2723 9.40973 22.3847 9.17663C22.4183 9.10716 22.445 9.04823 22.4655 9C22.445 8.95176 22.4183 8.89284 22.3847 8.82337C22.2723 8.59027 22.0979 8.26924 21.8618 7.88911C21.3897 7.12902 20.6859 6.15678 19.7685 5.20097C17.9245 3.27957 15.2945 1.5 12 1.5C8.70546 1.5 6.0755 3.27957 4.23145 5.20097C3.31411 6.15678 2.61027 7.12902 2.13818 7.88911C1.90209 8.26924 1.72772 8.59027 1.61525 8.82337C1.58174 8.89284 1.55504 8.95176 1.53447 9ZM3.14923 4.16231C5.14041 2.08762 8.13545 0 12 0C15.8645 0 18.8596 2.08762 20.8508 4.16231C21.851 5.20454 22.6174 6.26258 23.1361 7.0977C23.3953 7.51518 23.5965 7.883 23.7357 8.17157C23.8049 8.31494 23.8626 8.44669 23.905 8.56015C23.926 8.6165 23.9464 8.67685 23.9626 8.73718C23.9752 8.78446 24 8.88383 24 9C24 9.11617 23.9752 9.21554 23.9626 9.26282C23.9464 9.32315 23.926 9.3835 23.905 9.43985C23.8626 9.55331 23.8049 9.68506 23.7357 9.82843C23.5965 10.117 23.3953 10.4848 23.1361 10.9023C22.6174 11.7374 21.851 12.7955 20.8508 13.8377C18.8596 15.9124 15.8645 18 12 18C8.13545 18 5.14041 15.9124 3.14923 13.8377C2.14896 12.7955 1.38263 11.7374 0.863949 10.9023C0.604657 10.4848 0.403496 10.117 0.264273 9.82843C0.195098 9.68506 0.137367 9.55331 0.0950257 9.43985C0.0739976 9.3835 0.0535592 9.32315 0.0374227 9.26282C0.0247759 9.21554 0 9.11617 0 9C0 8.88383 0.0247759 8.78446 0.0374227 8.73718C0.0535592 8.67685 0.0739976 8.6165 0.0950257 8.56015C0.137367 8.44669 0.195098 8.31494 0.264273 8.17157C0.403496 7.883 0.604657 7.51518 0.863949 7.0977C1.38263 6.26258 2.14896 5.20454 3.14923 4.16231Z" fill-rule="EVENODD"></path>
  <path d="M12 6.5C10.6193 6.5 9.5 7.61929 9.5 9C9.5 10.3807 10.6193 11.5 12 11.5C13.3807 11.5 14.5 10.3807 14.5 9C14.5 7.61929 13.3807 6.5 12 6.5ZM8 9C8 6.79086 9.79086 5 12 5C14.2091 5 16 6.79086 16 9C16 11.2091 14.2091 13 12 13C9.79086 13 8 11.2091 8 9Z" fill-rule="EVENODD"></path>
 </g>
</svg>