<svg viewBox="0 0 16 16" width="16" height="16" fill="black" xmlns="http://www.w3.org/2000/svg">
 <g transform="translate(0, 1)">
  <path d="M8 2.5C7.69393 2.5 7.39818 2.52339 7.11269 2.56678C6.70318 2.62902 6.32075 2.3475 6.25851 1.93799C6.19628 1.52848 6.47779 1.14605 6.88731 1.08381C7.24608 1.02928 7.61717 1 8 1C10.5777 1 12.5704 2.32094 13.8878 3.65017C14.5496 4.31788 15.0578 5.00359 15.4041 5.56404C15.577 5.84394 15.7142 6.10026 15.8111 6.3148C15.8594 6.42148 15.9015 6.52645 15.9331 6.62458C15.9588 6.70407 16 6.84529 16 7C16 7.21005 15.9212 7.42007 15.8744 7.53715C15.8127 7.69134 15.7273 7.86911 15.6227 8.06071C15.4128 8.44535 15.1081 8.91815 14.7143 9.41635C14.4574 9.74129 13.9858 9.79647 13.6608 9.5396C13.3359 9.28273 13.2807 8.81107 13.5376 8.48612C13.8808 8.052 14.1381 7.64977 14.306 7.34216C14.384 7.19931 14.4389 7.08369 14.4735 7C14.4653 6.98017 14.4556 6.95771 14.4443 6.93256C14.379 6.78822 14.2742 6.58926 14.1279 6.35237C13.8356 5.87922 13.3964 5.28524 12.8224 4.70608C11.6682 3.54156 10.0359 2.5 8 2.5ZM4.61894 2.61817C4.85287 2.96 4.7654 3.42675 4.42357 3.66069C3.46043 4.31982 2.70746 5.15422 2.19561 5.86799C1.94039 6.22389 1.7515 6.54093 1.62994 6.779C1.584 6.86898 1.55006 6.94301 1.52646 7C1.53467 7.01982 1.54437 7.04229 1.55573 7.06744C1.62097 7.21178 1.72575 7.41074 1.87209 7.64763C2.16438 8.12078 2.60356 8.71476 3.17758 9.29392C4.33175 10.4584 5.96407 11.5 8 11.5C9.36783 11.5 10.5495 11.0317 11.5311 10.3701C11.8746 10.1386 12.3407 10.2294 12.5722 10.5728C12.8037 10.9163 12.7129 11.3824 12.3695 11.6139C11.1957 12.4051 9.72718 13 8 13C5.42229 13 3.42961 11.6791 2.11219 10.3498C1.45041 9.68212 0.942159 8.99641 0.595948 8.43596C0.423041 8.15606 0.285811 7.89974 0.18885 7.6852C0.140638 7.57852 0.0984587 7.47355 0.0668514 7.37542C0.041248 7.29593 0 7.15471 0 7C0 6.81065 0.0631165 6.62842 0.100392 6.52818C0.14874 6.39816 0.214849 6.25191 0.294023 6.09686C0.453137 5.78525 0.682311 5.4043 0.976635 4.99386C1.56386 4.17498 2.43589 3.20334 3.57643 2.42281C3.91826 2.18888 4.385 2.27634 4.61894 2.61817Z" fill-rule="EVENODD"></path>
  <path d="M6.93332 4.87265C7.22455 5.1672 7.22187 5.64206 6.92732 5.93329C6.66243 6.1952 6.5 6.56713 6.5 7C6.5 7.82843 7.17157 8.5 8 8.5C8.43293 8.5 8.80484 8.3376 9.06671 8.07275C9.35794 7.7782 9.8328 7.77551 10.1273 8.06674C10.4219 8.35797 10.4246 8.83284 10.1334 9.12738C9.5795 9.68755 8.81894 10 8 10C6.34315 10 5 8.65685 5 7C5 6.181 5.31256 5.42046 5.87268 4.86664C6.16723 4.57541 6.6421 4.5781 6.93332 4.87265Z" fill-rule="EVENODD"></path>
  <path d="M1.21967 0.21967C1.51256 -0.0732233 1.98744 -0.0732233 2.28033 0.21967L14.7803 12.7197C15.0732 13.0126 15.0732 13.4874 14.7803 13.7803C14.4874 14.0732 14.0126 14.0732 13.7197 13.7803L1.21967 1.28033C0.926777 0.987437 0.926777 0.512563 1.21967 0.21967Z" fill-rule="EVENODD"></path>
 </g>
</svg>