<svg viewBox="0 0 24 24" width="24" height="24" fill="currentColor" xmlns="http://www.w3.org/2000/svg">
 <g transform="translate(0, 1)">
  <path d="M12 3.5C11.1868 3.5 10.4168 3.60795 9.69031 3.79852C9.28966 3.90363 8.87966 3.66404 8.77455 3.26339C8.66944 2.86273 8.90903 2.45273 9.30969 2.34762C10.1546 2.12597 11.0525 2 12 2C15.8645 2 18.8596 4.08762 20.8508 6.16231C21.851 7.20454 22.6174 8.26258 23.1361 9.0977C23.3953 9.51518 23.5965 9.883 23.7357 10.1716C23.8049 10.3149 23.8626 10.4467 23.905 10.5602C23.926 10.6165 23.9464 10.6768 23.9626 10.7372C23.9752 10.7845 24 10.8838 24 11C24 11.1715 23.9433 11.3324 23.9209 11.3959C23.8864 11.4938 23.8401 11.6044 23.7861 11.7218C23.6771 11.9583 23.5209 12.2567 23.3211 12.5964C22.9209 13.2767 22.3314 14.1474 21.5622 15.0506C21.2936 15.3659 20.8203 15.4038 20.5049 15.1353C20.1896 14.8667 20.1516 14.3933 20.4202 14.078C21.1284 13.2464 21.6683 12.4477 22.0282 11.8359C22.2084 11.5295 22.3399 11.2761 22.4236 11.0943C22.4399 11.059 22.4538 11.0275 22.4655 11C22.445 10.9518 22.4183 10.8928 22.3847 10.8234C22.2723 10.5903 22.0979 10.2692 21.8618 9.88911C21.3897 9.12902 20.6859 8.15678 19.7685 7.20097C17.9245 5.27957 15.2945 3.5 12 3.5ZM22.5163 10.8651C22.5165 10.865 22.5156 10.8687 22.5131 10.8769C22.5149 10.8694 22.5162 10.8653 22.5163 10.8651ZM6.40872 4.41184C6.64923 4.74908 6.57081 5.21744 6.23358 5.45794C4.68668 6.56116 3.48094 7.94624 2.66063 9.10365C2.25153 9.68086 1.94393 10.1935 1.74174 10.5744C1.64702 10.7529 1.57862 10.8965 1.53447 11C1.55504 11.0482 1.58174 11.1072 1.61525 11.1766C1.72772 11.4097 1.90209 11.7308 2.13818 12.1109C2.61027 12.871 3.31411 13.8432 4.23145 14.799C6.0755 16.7204 8.70546 18.5 12 18.5C14.2178 18.5 16.1309 17.6957 17.712 16.5806C18.0505 16.3419 18.5185 16.4228 18.7572 16.7613C18.9959 17.0998 18.9151 17.5677 18.5765 17.8064C16.8078 19.0539 14.5987 20 12 20C8.13545 20 5.14041 17.9124 3.14923 15.8377C2.14896 14.7955 1.38263 13.7374 0.863949 12.9023C0.604657 12.4848 0.403496 12.117 0.264273 11.8284C0.195098 11.6851 0.137367 11.5533 0.0950257 11.4398C0.0739976 11.3835 0.0535592 11.3232 0.0374227 11.2628C0.0247759 11.2155 0 11.1162 0 11C0 10.8578 0.0379062 10.7318 0.0542623 10.6789C0.0774042 10.6041 0.107477 10.5246 0.140464 10.4454C0.207001 10.2855 0.300347 10.0906 0.416801 9.87122C0.650586 9.43075 0.992352 8.86342 1.43684 8.23628C2.3237 6.98497 3.64201 5.4638 5.36262 4.23671C5.69985 3.9962 6.16821 4.07461 6.40872 4.41184Z" fill-rule="EVENODD"></path>
  <path d="M10.2324 8.17183C10.5241 8.46585 10.5223 8.94072 10.2283 9.23248C9.77429 9.68296 9.5 10.3014 9.5 11C9.5 12.3807 10.6193 13.5 12 13.5C12.6986 13.5 13.3171 13.2256 13.7676 12.7716C14.0594 12.4776 14.5342 12.4758 14.8283 12.7675C15.1223 13.0593 15.1241 13.5342 14.8324 13.8282C14.1052 14.561 13.1054 15 12 15C9.79086 15 8 13.2091 8 11C8 9.89459 8.4389 8.89489 9.17173 8.16772C9.46575 7.87596 9.94062 7.8778 10.2324 8.17183Z" fill-rule="EVENODD"></path>
  <path d="M1.21967 0.21967C1.51256 -0.0732233 1.98744 -0.0732233 2.28033 0.21967L22.7803 20.7197C23.0732 21.0126 23.0732 21.4874 22.7803 21.7803C22.4874 22.0732 22.0126 22.0732 21.7197 21.7803L1.21967 1.28033C0.926777 0.987437 0.926777 0.512563 1.21967 0.21967Z" fill-rule="EVENODD"></path>
 </g>
</svg>