<svg viewBox="0 0 16 16" width="16" height="16" fill="currentColor" xmlns="http://www.w3.org/2000/svg">
 <g transform="translate(1, 0)">
  <path d="M2.25 1.5C1.83579 1.5 1.5 1.83579 1.5 2.25L1.5 13.75C1.5 14.1642 1.83579 14.5 2.25 14.5L11.75 14.5C12.1642 14.5 12.5 14.1642 12.5 13.75L12.5 5.56066L8.43934 1.5L2.25 1.5ZM0 2.25C0 1.00736 1.00736 0 2.25 0L8.54289 0C8.87441 0 9.19236 0.131695 9.42678 0.366116L13.6339 4.57322C13.8683 4.80764 14 5.12559 14 5.45711L14 13.75C14 14.9926 12.9926 16 11.75 16L2.25 16C1.00736 16 0 14.9926 0 13.75L0 2.25Z" fill-rule="EVENODD"></path>
  <path d="M8.75 0.75C9.16421 0.75 9.5 1.08579 9.5 1.5L9.5 4.5L12.5 4.5C12.9142 4.5 13.25 4.83579 13.25 5.25C13.25 5.66421 12.9142 6 12.5 6L8.75 6C8.33579 6 8 5.66421 8 5.25L8 1.5C8 1.08579 8.33579 0.75 8.75 0.75Z" fill-rule="EVENODD"></path>
  <path d="M4 9.75C4 9.33579 4.33579 9 4.75 9L9.25 9C9.66421 9 10 9.33579 10 9.75C10 10.1642 9.66421 10.5 9.25 10.5L4.75 10.5C4.33579 10.5 4 10.1642 4 9.75Z" fill-rule="EVENODD"></path>
 </g>
</svg>