<svg viewBox="0 0 16 16" width="16" height="16" fill="currentColor" xmlns="http://www.w3.org/2000/svg">
 <g transform="translate(1, 0)">
  <path d="M3.75 8C3.33579 8 3 8.33579 3 8.75C3 9.16421 3.33579 9.5 3.75 9.5L9.25 9.5C9.66421 9.5 10 9.16421 10 8.75C10 8.33579 9.66421 8 9.25 8L3.75 8Z" fill-rule="NONZERO"></path>
  <path d="M3 11.75C3 11.3358 3.33579 11 3.75 11L7.25 11C7.66421 11 8 11.3358 8 11.75C8 12.1642 7.66421 12.5 7.25 12.5L3.75 12.5C3.33579 12.5 3 12.1642 3 11.75Z" fill-rule="NONZERO"></path>
  <path d="M3.75 5C3.33579 5 3 5.33579 3 5.75C3 6.16421 3.33579 6.5 3.75 6.5L5.25 6.5C5.66421 6.5 6 6.16421 6 5.75C6 5.33579 5.66421 5 5.25 5L3.75 5Z" fill-rule="NONZERO"></path>
  <path d="M0 2.25C0 1.00736 1.00736 0 2.25 0L8.54289 0C8.87441 0 9.19236 0.131695 9.42678 0.366116L13.6339 4.57322C13.8683 4.80764 14 5.12559 14 5.45711L14 13.75C14 14.9926 12.9926 16 11.75 16L2.25 16C1.00736 16 0 14.9926 0 13.75L0 2.25ZM2.25 1.5C1.83579 1.5 1.5 1.83579 1.5 2.25L1.5 13.75C1.5 14.1642 1.83579 14.5 2.25 14.5L11.75 14.5C12.1642 14.5 12.5 14.1642 12.5 13.75L12.5 6L8.75 6C8.33579 6 8 5.66421 8 5.25L8 1.5L2.25 1.5ZM9.5 2.56066L11.4393 4.5L9.5 4.5L9.5 2.56066Z" fill-rule="EVENODD"></path>
 </g>
</svg>