<svg viewBox="0 0 24 24" width="24" height="24" fill="currentColor" xmlns="http://www.w3.org/2000/svg">
 <g transform="translate(3, 1)">
  <path d="M5.45779 14.3275C5.67605 14.0679 5.9454 13.7475 6.35694 13.5827C6.57419 13.4957 6.82504 13.4625 7.13461 13.5572C7.45857 13.6563 7.90063 13.9128 8.44806 14.5078C9.11492 15.2326 9.7733 15.6773 10.4265 15.8772C11.094 16.0815 11.697 16.0116 12.2007 15.8099C12.6893 15.6142 13.066 15.303 13.3282 15.0422C13.4614 14.9098 13.5708 14.7845 13.6539 14.6856C13.6856 14.6479 13.7152 14.612 13.7389 14.5832L13.7574 14.5608C13.7711 14.5442 13.7815 14.5317 13.7899 14.5218C13.7987 14.5114 13.8021 14.5077 13.8019 14.5078C14.0824 14.203 14.0626 13.7285 13.7578 13.4481C13.453 13.1676 12.9785 13.1874 12.6981 13.4922C12.6484 13.5462 12.5969 13.6074 12.5423 13.6725C12.324 13.9321 12.0546 14.2526 11.6431 14.4174C11.4258 14.5044 11.175 14.5376 10.8654 14.4429C10.5414 14.3437 10.0994 14.0872 9.55194 13.4922C8.88509 12.7674 8.2267 12.3227 7.57355 12.1229C6.90599 11.9186 6.30305 11.9885 5.79932 12.1902C5.31075 12.3858 4.93396 12.6971 4.67178 12.9578C4.53864 13.0902 4.42917 13.2156 4.34607 13.3144C4.31437 13.3521 4.28477 13.3881 4.26106 13.4169L4.24263 13.4393C4.22894 13.4559 4.21855 13.4683 4.21012 13.4783C4.20136 13.4886 4.19794 13.4924 4.19809 13.4922C3.91762 13.797 3.93736 14.2715 4.24217 14.5519C4.54698 14.8324 5.02145 14.8127 5.30191 14.5079C5.35161 14.4538 5.40311 14.3926 5.45779 14.3275Z" fill-rule="NONZERO"></path>
  <path d="M0 2.75C0 1.23122 1.23122 0 2.75 0L10.3358 0C10.7999 0 11.245 0.184374 11.5732 0.512563L17.4874 6.42678C17.8156 6.75497 18 7.20008 18 7.66421L18 19.25C18 20.7688 16.7688 22 15.25 22L2.75 22C1.23122 22 0 20.7688 0 19.25L0 2.75ZM2.75 1.5C2.05964 1.5 1.5 2.05964 1.5 2.75L1.5 19.25C1.5 19.9404 2.05964 20.5 2.75 20.5L15.25 20.5C15.9404 20.5 16.5 19.9404 16.5 19.25L16.5 8L10.75 8C10.3358 8 10 7.66421 10 7.25L10 1.5L2.75 1.5ZM11.5 2.56066L15.4393 6.5L11.5 6.5L11.5 2.56066Z" fill-rule="EVENODD"></path>
 </g>
</svg>