<svg viewBox="0 0 16 16" width="16" height="16" fill="black" xmlns="http://www.w3.org/2000/svg">
 <g transform="translate(1.25, 0.25)">
  <path d="M7.25001 7.87504C7.45711 7.59889 7.84886 7.54293 8.12501 7.75004L10.125 9.25004C10.2824 9.36807 10.375 9.55331 10.375 9.75004C10.375 9.94676 10.2824 10.132 10.125 10.25L8.12501 11.75C7.84886 11.9571 7.45711 11.9012 7.25001 11.625C7.0429 11.3489 7.09886 10.9571 7.37501 10.75L8.70834 9.75004L7.37501 8.75004C7.09886 8.54293 7.0429 8.15118 7.25001 7.87504Z" fill-rule="NONZERO"></path>
  <path d="M6.125 8.75004C6.40114 8.54293 6.45711 8.15118 6.25 7.87504C6.04289 7.59889 5.65114 7.54293 5.375 7.75004L3.375 9.25004C3.21762 9.36807 3.125 9.55331 3.125 9.75004C3.125 9.94676 3.21762 10.132 3.375 10.25L5.375 11.75C5.65114 11.9571 6.04289 11.9012 6.25 11.625C6.45711 11.3489 6.40114 10.9571 6.125 10.75L4.79167 9.75004L6.125 8.75004Z" fill-rule="NONZERO"></path>
  <path d="M2.25 0C1.65326 0 1.08097 0.237053 0.65901 0.65901C0.237053 1.08097 0 1.65326 0 2.25L0 13.25C0 13.8467 0.237053 14.419 0.65901 14.841C1.08097 15.2629 1.65326 15.5 2.25 15.5L11.25 15.5C11.8467 15.5 12.419 15.2629 12.841 14.841C13.2629 14.419 13.5 13.8467 13.5 13.25L13.5 5.25C13.5 5.05109 13.421 4.86032 13.2803 4.71967L8.78033 0.21967C8.63968 0.0790176 8.44891 0 8.25 0L2.25 0ZM1.71967 1.71967C1.86032 1.57902 2.05109 1.5 2.25 1.5L7.54999 1.5L7.54999 5.25003C7.54999 5.63663 7.86339 5.95003 8.24998 5.95003L12 5.95005L12 13.25C12 13.4489 11.921 13.6397 11.7803 13.7803C11.6397 13.921 11.4489 14 11.25 14L2.25 14C2.05109 14 1.86032 13.921 1.71967 13.7803C1.57902 13.6397 1.5 13.4489 1.5 13.25L1.5 2.25C1.5 2.05109 1.57902 1.86032 1.71967 1.71967ZM10.9894 4.55004L8.94999 2.51065L8.94999 4.55003L10.9894 4.55004Z" fill-rule="EVENODD"></path>
 </g>
</svg>