<svg viewBox="0 0 24 24" width="24" height="24" fill="currentColor" xmlns="http://www.w3.org/2000/svg">
 <g transform="translate(3, 1)">
  <path d="M2.75 0C1.23122 0 0 1.23122 0 2.75L0 19.25C0 20.7688 1.23122 22 2.75 22L15.25 22C16.7688 22 18 20.7688 18 19.25L18 7.66421C18 7.20008 17.8156 6.75497 17.4874 6.42678L11.5732 0.512563C11.245 0.184374 10.7999 0 10.3358 0L2.75 0ZM1.5 2.75C1.5 2.05964 2.05964 1.5 2.75 1.5L10 1.5L10 7.25C10 7.66421 10.3358 8 10.75 8L16.5 8L16.5 19.25C16.5 19.9404 15.9404 20.5 15.25 20.5L2.75 20.5C2.05964 20.5 1.5 19.9404 1.5 19.25L1.5 2.75ZM15.4393 6.5L11.5 2.56066L11.5 6.5L15.4393 6.5Z" fill-rule="EVENODD"></path>
 </g>
</svg>