<svg viewBox="0 0 24 24" width="24" height="24" fill="currentColor" xmlns="http://www.w3.org/2000/svg">
 <g transform="translate(3, 1)">
  <path d="M10.15 11.3C10.3986 10.9687 10.8687 10.9015 11.2 11.15L14.2 13.4C14.3889 13.5417 14.5 13.764 14.5 14C14.5 14.2361 14.3889 14.4584 14.2 14.6L11.2 16.85C10.8687 17.0986 10.3986 17.0314 10.15 16.7C9.90152 16.3687 9.96867 15.8986 10.3 15.65L12.5 14L10.3 12.35C9.96867 12.1015 9.90152 11.6314 10.15 11.3Z" fill-rule="NONZERO"></path>
  <path d="M7.7 12.35C8.03137 12.1015 8.09853 11.6314 7.85 11.3C7.60147 10.9687 7.13137 10.9015 6.8 11.15L3.8 13.4C3.61115 13.5417 3.5 13.764 3.5 14C3.5 14.2361 3.61115 14.4584 3.8 14.6L6.8 16.85C7.13137 17.0986 7.60147 17.0314 7.85 16.7C8.09853 16.3687 8.03137 15.8986 7.7 15.65L5.5 14L7.7 12.35Z" fill-rule="NONZERO"></path>
  <path d="M2.75 0C1.23122 0 0 1.23122 0 2.75L0 19.25C0 20.7688 1.23122 22 2.75 22L15.25 22C16.7688 22 18 20.7688 18 19.25L18 7.66421C18 7.20008 17.8156 6.75497 17.4874 6.42678L11.5732 0.512563C11.245 0.184374 10.7999 0 10.3358 0L2.75 0ZM1.5 2.75C1.5 2.05964 2.05964 1.5 2.75 1.5L10 1.5L10 7.25C10 7.66421 10.3358 8 10.75 8L16.5 8L16.5 19.25C16.5 19.9404 15.9404 20.5 15.25 20.5L2.75 20.5C2.05964 20.5 1.5 19.9404 1.5 19.25L1.5 2.75ZM15.4393 6.5L11.5 2.56066L11.5 6.5L15.4393 6.5Z" fill-rule="EVENODD"></path>
 </g>
</svg>