<svg viewBox="0 0 24 24" width="24" height="24" fill="black" xmlns="http://www.w3.org/2000/svg">
 <g transform="translate(3, 1)">
  <path d="M2.75 1.5C2.05964 1.5 1.5 2.05964 1.5 2.75L1.5 19.25C1.5 19.9404 2.05964 20.5 2.75 20.5L15.25 20.5C15.9404 20.5 16.5 19.9404 16.5 19.25L16.5 7.66421C16.5 7.59791 16.4737 7.53432 16.4268 7.48744L10.5126 1.57322C10.4657 1.52634 10.4021 1.5 10.3358 1.5L2.75 1.5ZM0 2.75C0 1.23122 1.23122 0 2.75 0L10.3358 0C10.7999 0 11.245 0.184374 11.5732 0.512563L17.4874 6.42678C17.8156 6.75497 18 7.20008 18 7.66421L18 19.25C18 20.7688 16.7688 22 15.25 22L2.75 22C1.23122 22 0 20.7688 0 19.25L0 2.75Z" fill-rule="EVENODD"></path>
  <path d="M10.75 0.25C11.1642 0.25 11.5 0.585786 11.5 1L11.5 6.5L17 6.5C17.4142 6.5 17.75 6.83579 17.75 7.25C17.75 7.66421 17.4142 8 17 8L10.75 8C10.3358 8 10 7.66421 10 7.25L10 1C10 0.585786 10.3358 0.25 10.75 0.25Z" fill-rule="EVENODD"></path>
  <path d="M5.45779 14.3275C5.4031 14.3926 5.35162 14.4538 5.30191 14.5078C5.02144 14.8126 4.54698 14.8324 4.24217 14.5519C3.93735 14.2714 3.91762 13.797 4.19809 13.4922C4.19809 13.4922 4.20136 13.4886 4.21012 13.4783C4.21855 13.4683 4.22893 13.4558 4.24262 13.4392C4.24824 13.4324 4.2544 13.425 4.26101 13.4169C4.28473 13.3881 4.31435 13.3521 4.34607 13.3144C4.42917 13.2155 4.53863 13.0902 4.67177 12.9578C4.93396 12.6971 5.31075 12.3858 5.79931 12.1902C6.30305 11.9884 6.90599 11.9185 7.57354 12.1228C8.2267 12.3227 8.88508 12.7674 9.55194 13.4922C10.0994 14.0872 10.5414 14.3437 10.8654 14.4428C11.175 14.5376 11.4258 14.5043 11.6431 14.4173C12.0546 14.2525 12.324 13.9321 12.5423 13.6724C12.5969 13.6074 12.6484 13.5462 12.6981 13.4922C12.9785 13.1874 13.453 13.1676 13.7578 13.4481C14.0626 13.7285 14.0824 14.203 13.8019 14.5078C13.8019 14.5078 13.7987 14.5114 13.7899 14.5217C13.7815 14.5317 13.7711 14.5442 13.7574 14.5607C13.7518 14.5675 13.7456 14.575 13.739 14.583C13.7153 14.6119 13.6857 14.6478 13.6539 14.6856C13.5708 14.7845 13.4614 14.9098 13.3282 15.0422C13.066 15.3029 12.6893 15.6142 12.2007 15.8098C11.6969 16.0116 11.094 16.0815 10.4265 15.8772C9.7733 15.6773 9.11492 15.2326 8.44806 14.5078C7.90063 13.9128 7.45857 13.6563 7.13461 13.5572C6.82504 13.4624 6.57418 13.4957 6.35694 13.5827C5.9454 13.7475 5.67604 14.0679 5.45779 14.3275Z" fill-rule="EVENODD"></path>
 </g>
</svg>