<svg viewBox="0 0 24 24" width="24" height="24" fill="black" xmlns="http://www.w3.org/2000/svg">
 <g transform="translate(3, 1)">
  <path d="M2.75 1.5C2.05964 1.5 1.5 2.05964 1.5 2.75L1.5 19.25C1.5 19.9404 2.05964 20.5 2.75 20.5L15.25 20.5C15.9404 20.5 16.5 19.9404 16.5 19.25L16.5 7.66421C16.5 7.59791 16.4737 7.53432 16.4268 7.48744L10.5126 1.57322C10.4657 1.52634 10.4021 1.5 10.3358 1.5L2.75 1.5ZM0 2.75C0 1.23122 1.23122 0 2.75 0L10.3358 0C10.7999 0 11.245 0.184374 11.5732 0.512563L17.4874 6.42678C17.8156 6.75497 18 7.20008 18 7.66421L18 19.25C18 20.7688 16.7688 22 15.25 22L2.75 22C1.23122 22 0 20.7688 0 19.25L0 2.75Z" fill-rule="EVENODD"></path>
  <path d="M10.75 0.25C11.1642 0.25 11.5 0.585786 11.5 1L11.5 6.5L17 6.5C17.4142 6.5 17.75 6.83579 17.75 7.25C17.75 7.66421 17.4142 8 17 8L10.75 8C10.3358 8 10 7.66421 10 7.25L10 1C10 0.585786 10.3358 0.25 10.75 0.25Z" fill-rule="EVENODD"></path>
  <path d="M10.15 11.3C10.3985 10.9686 10.8686 10.9015 11.2 11.15L14.2 13.4C14.3889 13.5416 14.5 13.7639 14.5 14C14.5 14.2361 14.3889 14.4584 14.2 14.6L11.2 16.85C10.8686 17.0985 10.3985 17.0314 10.15 16.7C9.90147 16.3686 9.96863 15.8985 10.3 15.65L12.5 14L10.3 12.35C9.96863 12.1015 9.90147 11.6314 10.15 11.3Z" fill-rule="EVENODD"></path>
  <path d="M7.85 11.3C8.09853 11.6314 8.03137 12.1015 7.7 12.35L5.5 14L7.7 15.65C8.03137 15.8985 8.09853 16.3686 7.85 16.7C7.60147 17.0314 7.13137 17.0985 6.8 16.85L3.8 14.6C3.61115 14.4584 3.5 14.2361 3.5 14C3.5 13.7639 3.61115 13.5416 3.8 13.4L6.8 11.15C7.13137 10.9015 7.60147 10.9686 7.85 11.3Z" fill-rule="EVENODD"></path>
 </g>
</svg>