<svg viewBox="0 0 24 24" width="24" height="24" fill="currentColor" xmlns="http://www.w3.org/2000/svg">
 <g transform="translate(3, 1)">
  <path d="M5.75 13C5.33579 13 5 13.3358 5 13.75C5 14.1642 5.33579 14.5 5.75 14.5L12.25 14.5C12.6642 14.5 13 14.1642 13 13.75C13 13.3358 12.6642 13 12.25 13L5.75 13Z" fill-rule="NONZERO"></path>
  <path d="M0 2.75C0 1.23122 1.23122 0 2.75 0L10.3358 0C10.7999 0 11.245 0.184374 11.5732 0.512563L17.4874 6.42678C17.8156 6.75497 18 7.20008 18 7.66421L18 19.25C18 20.7688 16.7688 22 15.25 22L2.75 22C1.23122 22 0 20.7688 0 19.25L0 2.75ZM2.75 1.5C2.05964 1.5 1.5 2.05964 1.5 2.75L1.5 19.25C1.5 19.9404 2.05964 20.5 2.75 20.5L15.25 20.5C15.9404 20.5 16.5 19.9404 16.5 19.25L16.5 8L10.75 8C10.3358 8 10 7.66421 10 7.25L10 1.5L2.75 1.5ZM11.5 2.56066L15.4393 6.5L11.5 6.5L11.5 2.56066Z" fill-rule="EVENODD"></path>
 </g>
</svg>