<svg viewBox="0 0 16 16" width="16" height="16" fill="black" xmlns="http://www.w3.org/2000/svg">
 <g transform="translate(1, 0)">
  <path d="M2.25 1.5C1.83579 1.5 1.5 1.83579 1.5 2.25L1.5 13.75C1.5 14.1642 1.83579 14.5 2.25 14.5L11.75 14.5C12.1642 14.5 12.5 14.1642 12.5 13.75L12.5 5.56066L8.43934 1.5L2.25 1.5ZM0 2.25C0 1.00736 1.00736 0 2.25 0L8.54289 0C8.87441 0 9.19236 0.131695 9.42678 0.366116L13.6339 4.57322C13.8683 4.80764 14 5.12559 14 5.45711L14 13.75C14 14.9926 12.9926 16 11.75 16L2.25 16C1.00736 16 0 14.9926 0 13.75L0 2.25Z" fill-rule="EVENODD"></path>
  <path d="M8.75 0.75C9.16421 0.75 9.5 1.08579 9.5 1.5L9.5 4.5L12.5 4.5C12.9142 4.5 13.25 4.83579 13.25 5.25C13.25 5.66421 12.9142 6 12.5 6L8.75 6C8.33579 6 8 5.66421 8 5.25L8 1.5C8 1.08579 8.33579 0.75 8.75 0.75Z" fill-rule="EVENODD"></path>
  <path d="M8.58334 9.15639L8.58384 9.15548Z" fill-rule="EVENODD"></path>
  <path d="M5.875 8C6.72906 8 7.25532 8.63372 7.5289 8.96317C7.66405 9.12591 7.88502 9.5 8.125 9.5C8.31897 9.5 8.49974 9.32072 8.58334 9.15639C8.77109 8.7919 9.21767 8.64531 9.58541 8.82918C9.95589 9.01442 10.1061 9.46493 9.92082 9.83541L9.92028 9.8365C9.81375 10.0482 9.66627 10.2381 9.49908 10.4053C9.22983 10.6746 8.76907 11 8.125 11C7.27094 11 6.74468 10.3663 6.4711 10.0368C6.33596 9.87409 6.11498 9.5 5.875 9.5C5.67528 9.5 5.5082 9.68107 5.41666 9.8436C5.22891 10.2081 4.78233 10.3547 4.41459 10.1708C4.04411 9.98558 3.89394 9.53507 4.07918 9.16459L4.07972 9.1635C4.18552 8.9532 4.3351 8.76049 4.50092 8.59467C4.77017 8.32542 5.23093 8 5.875 8Z" fill-rule="NONZERO"></path>
 </g>
</svg>