<svg viewBox="0 0 24 24" width="24" height="24" fill="black" xmlns="http://www.w3.org/2000/svg">
 <g transform="translate(3, 1)">
  <path d="M2.75 1.5C2.05964 1.5 1.5 2.05964 1.5 2.75L1.5 19.25C1.5 19.9404 2.05964 20.5 2.75 20.5L15.25 20.5C15.9404 20.5 16.5 19.9404 16.5 19.25L16.5 7.66421C16.5 7.59791 16.4737 7.53432 16.4268 7.48744L10.5126 1.57322C10.4657 1.52634 10.4021 1.5 10.3358 1.5L2.75 1.5ZM0 2.75C0 1.23122 1.23122 0 2.75 0L10.3358 0C10.7999 0 11.245 0.184374 11.5732 0.512563L17.4874 6.42678C17.8156 6.75497 18 7.20008 18 7.66421L18 19.25C18 20.7688 16.7688 22 15.25 22L2.75 22C1.23122 22 0 20.7688 0 19.25L0 2.75Z" fill-rule="EVENODD"></path>
  <path d="M10.75 0.25C11.1642 0.25 11.5 0.585786 11.5 1L11.5 6.5L17 6.5C17.4142 6.5 17.75 6.83579 17.75 7.25C17.75 7.66421 17.4142 8 17 8L10.75 8C10.3358 8 10 7.66421 10 7.25L10 1C10 0.585786 10.3358 0.25 10.75 0.25Z" fill-rule="EVENODD"></path>
  <path d="M8.75 9.75C9.16421 9.75 9.5 10.0858 9.5 10.5L9.5 17C9.5 17.4142 9.16421 17.75 8.75 17.75C8.33579 17.75 8 17.4142 8 17L8 10.5C8 10.0858 8.33579 9.75 8.75 9.75Z" fill-rule="EVENODD"></path>
  <path d="M4.75 13.75C4.75 13.3358 5.08579 13 5.5 13L12 13C12.4142 13 12.75 13.3358 12.75 13.75C12.75 14.1642 12.4142 14.5 12 14.5L5.5 14.5C5.08579 14.5 4.75 14.1642 4.75 13.75Z" fill-rule="EVENODD"></path>
 </g>
</svg>