<svg viewBox="0 0 24 24" width="24" height="24" fill="currentColor" xmlns="http://www.w3.org/2000/svg">
 <g transform="translate(3, 1)">
  <path d="M2.75 1.5C2.05964 1.5 1.5 2.05964 1.5 2.75L1.5 19.25C1.5 19.9404 2.05964 20.5 2.75 20.5L7.25 20.5C7.66421 20.5 8 20.8358 8 21.25C8 21.6642 7.66421 22 7.25 22L2.75 22C1.23122 22 0 20.7688 0 19.25L0 2.75C0 1.23122 1.23122 0 2.75 0L10.3358 0C10.7999 0 11.245 0.184374 11.5732 0.512563L17.4874 6.42678C17.8156 6.75497 18 7.20008 18 7.66421L18 11.25C18 11.6642 17.6642 12 17.25 12C16.8358 12 16.5 11.6642 16.5 11.25L16.5 7.66421C16.5 7.59791 16.4737 7.53432 16.4268 7.48744L10.5126 1.57322C10.4657 1.52634 10.4021 1.5 10.3358 1.5L2.75 1.5Z" fill-rule="EVENODD"></path>
  <path d="M10.75 0.25C11.1642 0.25 11.5 0.585786 11.5 1L11.5 6.5L17 6.5C17.4142 6.5 17.75 6.83579 17.75 7.25C17.75 7.66421 17.4142 8 17 8L10.75 8C10.3358 8 10 7.66421 10 7.25L10 1C10 0.585786 10.3358 0.25 10.75 0.25Z" fill-rule="EVENODD"></path>
  <path d="M9 15C9 13.8954 9.89543 13 11 13L17 13C18.1046 13 19 13.8954 19 15L19 21C19 22.1046 18.1046 23 17 23L11 23C9.89543 23 9 22.1046 9 21L9 15ZM16.7803 15.2197C17.0732 15.5126 17.0732 15.9874 16.7803 16.2803L15.0607 18L16.7803 19.7197C17.0732 20.0126 17.0732 20.4874 16.7803 20.7803C16.4874 21.0732 16.0126 21.0732 15.7197 20.7803L14 19.0607L12.2803 20.7803C11.9874 21.0732 11.5126 21.0732 11.2197 20.7803C10.9268 20.4874 10.9268 20.0126 11.2197 19.7197L12.9393 18L11.2197 16.2803C10.9268 15.9874 10.9268 15.5126 11.2197 15.2197C11.5126 14.9268 11.9874 14.9268 12.2803 15.2197L14 16.9393L15.7197 15.2197C16.0126 14.9268 16.4874 14.9268 16.7803 15.2197Z" fill-rule="EVENODD"></path>
 </g>
</svg>