<svg viewBox="0 0 24 24" width="24" height="24" fill="currentColor" xmlns="http://www.w3.org/2000/svg">
 <g transform="translate(1, 1)">
  <path d="M2.75 0C1.23122 0 0 1.23122 0 2.75L0 19.25C0 20.7688 1.23122 22 2.75 22L19.25 22C20.7688 22 22 20.7688 22 19.25L22 2.75C22 1.23122 20.7688 0 19.25 0L2.75 0ZM20.5 5L20.5 2.75C20.5 2.05964 19.9404 1.5 19.25 1.5L17 1.5L17 5L20.5 5ZM17 6.5L20.5 6.5L20.5 10L17 10L17 6.5ZM15.5 1.5L6.5 1.5L6.5 10L15.5 10L15.5 1.5ZM20.5 11.5L20.5 15L17 15L17 11.5L20.5 11.5ZM20.5 16.5L17 16.5L17 20.5L19.25 20.5C19.9404 20.5 20.5 19.9404 20.5 19.25L20.5 16.5ZM15.5 11.5L15.5 20.5L6.5 20.5L6.5 11.5L15.5 11.5ZM1.5 16.5L1.5 19.25C1.5 19.9404 2.05964 20.5 2.75 20.5L5 20.5L5 16.5L1.5 16.5ZM5 15L1.5 15L1.5 11.5L5 11.5L5 15ZM1.5 10L1.5 6.5L5 6.5L5 10L1.5 10ZM1.5 5L5 5L5 1.5L2.75 1.5C2.05964 1.5 1.5 2.05964 1.5 2.75L1.5 5Z" fill-rule="EVENODD"></path>
 </g>
</svg>