<svg viewBox="0 0 24 24" width="24" height="24" fill="black" xmlns="http://www.w3.org/2000/svg">
 <g transform="translate(1, 1)">
  <path d="M0 2.75C0 1.23122 1.23122 0 2.75 0L19.25 0C20.7688 0 22 1.23122 22 2.75L22 19.25C22 20.7688 20.7688 22 19.25 22L2.75 22C1.23122 22 0 20.7688 0 19.25L0 2.75ZM2.75 1.5C2.05964 1.5 1.5 2.05964 1.5 2.75L1.5 19.25C1.5 19.9404 2.05964 20.5 2.75 20.5L19.25 20.5C19.9404 20.5 20.5 19.9404 20.5 19.25L20.5 2.75C20.5 2.05964 19.9404 1.5 19.25 1.5L2.75 1.5Z" fill-rule="EVENODD"></path>
  <path d="M5.75 0C6.16421 0 6.5 0.335786 6.5 0.75L6.5 21.25C6.5 21.6642 6.16421 22 5.75 22C5.33579 22 5 21.6642 5 21.25L5 0.75C5 0.335786 5.33579 0 5.75 0Z" fill-rule="EVENODD"></path>
  <path d="M16.25 0C16.6642 0 17 0.335786 17 0.75L17 21.25C17 21.6642 16.6642 22 16.25 22C15.8358 22 15.5 21.6642 15.5 21.25L15.5 0.75C15.5 0.335786 15.8358 0 16.25 0Z" fill-rule="EVENODD"></path>
  <path d="M0 10.75C0 10.3358 0.335786 10 0.75 10L21.25 10C21.6642 10 22 10.3358 22 10.75C22 11.1642 21.6642 11.5 21.25 11.5L0.75 11.5C0.335786 11.5 0 11.1642 0 10.75Z" fill-rule="EVENODD"></path>
  <path d="M0 5.75C0 5.33579 0.335786 5 0.75 5L5.75 5C6.16421 5 6.5 5.33579 6.5 5.75C6.5 6.16421 6.16421 6.5 5.75 6.5L0.75 6.5C0.335786 6.5 0 6.16421 0 5.75Z" fill-rule="EVENODD"></path>
  <path d="M0 15.75C0 15.3358 0.335786 15 0.75 15L5.75 15C6.16421 15 6.5 15.3358 6.5 15.75C6.5 16.1642 6.16421 16.5 5.75 16.5L0.75 16.5C0.335786 16.5 0 16.1642 0 15.75Z" fill-rule="EVENODD"></path>
  <path d="M15.5 15.75C15.5 15.3358 15.8358 15 16.25 15L21.25 15C21.6642 15 22 15.3358 22 15.75C22 16.1642 21.6642 16.5 21.25 16.5L16.25 16.5C15.8358 16.5 15.5 16.1642 15.5 15.75Z" fill-rule="EVENODD"></path>
  <path d="M15.5 5.75C15.5 5.33579 15.8358 5 16.25 5L21.25 5C21.6642 5 22 5.33579 22 5.75C22 6.16421 21.6642 6.5 21.25 6.5L16.25 6.5C15.8358 6.5 15.5 6.16421 15.5 5.75Z" fill-rule="EVENODD"></path>
 </g>
</svg>