<svg viewBox="0 0 16 16" width="16" height="16" fill="currentColor" xmlns="http://www.w3.org/2000/svg">
 <g transform="translate(1, 3)">
  <path d="M0 0.75C0 0.335786 0.335786 0 0.75 0L13.25 0C13.6642 0 14 0.335786 14 0.75C14 1.16421 13.6642 1.5 13.25 1.5L0.75 1.5C0.335786 1.5 0 1.16421 0 0.75Z" fill-rule="NONZERO"></path>
  <path d="M2.5 4.75C2.5 4.33579 2.83579 4 3.25 4L10.75 4C11.1642 4 11.5 4.33579 11.5 4.75C11.5 5.16421 11.1642 5.5 10.75 5.5L3.25 5.5C2.83579 5.5 2.5 5.16421 2.5 4.75Z" fill-rule="NONZERO"></path>
  <path d="M5.75 8C5.33579 8 5 8.33579 5 8.75C5 9.16421 5.33579 9.5 5.75 9.5L8.25 9.5C8.66421 9.5 9 9.16421 9 8.75C9 8.33579 8.66421 8 8.25 8L5.75 8Z" fill-rule="NONZERO"></path>
 </g>
</svg>