<svg viewBox="0 0 24 24" width="24" height="24" fill="currentColor" xmlns="http://www.w3.org/2000/svg">
 <g transform="translate(3, 6)">
  <path d="M0 0.75C0 0.335786 0.335786 0 0.75 0L17.25 0C17.6642 0 18 0.335786 18 0.75C18 1.16421 17.6642 1.5 17.25 1.5L0.75 1.5C0.335786 1.5 0 1.16421 0 0.75Z" fill-rule="NONZERO"></path>
  <path d="M3 5.75C3 5.33579 3.33579 5 3.75 5L14.25 5C14.6642 5 15 5.33579 15 5.75C15 6.16421 14.6642 6.5 14.25 6.5L3.75 6.5C3.33579 6.5 3 6.16421 3 5.75Z" fill-rule="NONZERO"></path>
  <path d="M6.75 10C6.33579 10 6 10.3358 6 10.75C6 11.1642 6.33579 11.5 6.75 11.5L11.25 11.5C11.6642 11.5 12 11.1642 12 10.75C12 10.3358 11.6642 10 11.25 10L6.75 10Z" fill-rule="NONZERO"></path>
 </g>
</svg>