<svg viewBox="0 0 16 16" width="16" height="16" fill="black" xmlns="http://www.w3.org/2000/svg">
 <g transform="translate(1.0379657745361328, 1)">
  <path d="M0.276261 2.03087C-0.378504 1.21241 0.204216 0 1.25235 0L12.6717 0C13.7199 0 14.3026 1.21242 13.6478 2.03087L9.46203 7.26309L9.46203 13.25C9.46203 13.5021 9.33537 13.7373 9.1249 13.8761C8.91443 14.0149 8.64832 14.0387 8.41659 13.9394L4.91659 12.4394C4.64083 12.3212 4.46203 12.05 4.46203 11.75L4.46203 7.26309L0.276261 2.03087ZM1.7725 1.5L5.79769 6.53148C5.90407 6.66446 5.96203 6.8297 5.96203 7L5.96203 11.2555L7.96203 12.1126L7.96203 7C7.96203 6.8297 8.01999 6.66446 8.12638 6.53148L12.1516 1.5L1.7725 1.5Z" fill-rule="EVENODD"></path>
 </g>
</svg>