<svg viewBox="0 0 16 16" width="16" height="16" fill="currentColor" xmlns="http://www.w3.org/2000/svg">
 <g transform="translate(0, 1)">
  <path d="M2.25 0C1.00736 0 0 1.00736 0 2.25L0 11.75C0 12.9926 1.00736 14 2.25 14L13.75 14C14.9926 14 16 12.9926 16 11.75L16 4.25C16 3.00736 14.9926 2 13.75 2L9.87132 2C9.67241 2 9.48164 1.92098 9.34099 1.78033L8.21967 0.659009C7.79771 0.237052 7.22542 0 6.62868 0L2.25 0ZM1.5 2.25C1.5 1.83579 1.83579 1.5 2.25 1.5L6.62868 1.5C6.82759 1.5 7.01836 1.57902 7.15901 1.71967L8.28033 2.84099C8.70229 3.26295 9.27458 3.5 9.87132 3.5L13.75 3.5C14.1642 3.5 14.5 3.83579 14.5 4.25L14.5 11.75C14.5 12.1642 14.1642 12.5 13.75 12.5L2.25 12.5C1.83579 12.5 1.5 12.1642 1.5 11.75L1.5 6L12.25 6C12.6642 6 13 5.66421 13 5.25C13 4.83579 12.6642 4.5 12.25 4.5L1.5 4.5L1.5 2.25Z" fill-rule="EVENODD"></path>
 </g>
</svg>