<svg viewBox="0 0 24 24" width="24" height="24" fill="currentColor" xmlns="http://www.w3.org/2000/svg">
 <g transform="translate(1, 2)">
  <path d="M2.75 0C1.23122 0 0 1.23122 0 2.75L0 3.75C0 4.16421 0.335786 4.5 0.75 4.5L19.25 4.5C19.6642 4.5 20 4.83579 20 5.25C20 5.66421 19.6642 6 19.25 6L0.75 6C0.335786 6 0 6.33579 0 6.75L0 17.25C0 18.7688 1.23122 20 2.75 20L19.25 20C20.7688 20 22 18.7688 22 17.25L22 4.75C22 3.23122 20.7688 2 19.25 2L12.0784 2C11.7469 2 11.429 1.8683 11.1945 1.63388L10.3661 0.805456C9.85039 0.28973 9.15092 0 8.42157 0L2.75 0Z" fill-rule="NONZERO"></path>
 </g>
</svg>