<svg viewBox="0 0 24 24" width="24" height="24" fill="currentColor" xmlns="http://www.w3.org/2000/svg">
 <g transform="translate(1, 2)">
  <path d="M0 2.75C0 1.23122 1.23122 0 2.75 0L8.42157 0C9.15092 0 9.85039 0.28973 10.3661 0.805456L11.1945 1.63388C11.429 1.8683 11.7469 2 12.0784 2L19.25 2C20.7688 2 22 3.23122 22 4.75L22 17.25C22 18.7688 20.7688 20 19.25 20L2.75 20C1.23122 20 0 18.7688 0 17.25L0 6.75C0 6.33579 0.335786 6 0.75 6L19.25 6C19.6642 6 20 5.66421 20 5.25C20 4.83579 19.6642 4.5 19.25 4.5L0.75 4.5C0.335786 4.5 0 4.16421 0 3.75L0 2.75ZM10.75 8.5C11.1642 8.5 11.5 8.83579 11.5 9.25L11.5 11.5L13.75 11.5C14.1642 11.5 14.5 11.8358 14.5 12.25C14.5 12.6642 14.1642 13 13.75 13L11.5 13L11.5 15.25C11.5 15.6642 11.1642 16 10.75 16C10.3358 16 10 15.6642 10 15.25L10 13L7.75 13C7.33579 13 7 12.6642 7 12.25C7 11.8358 7.33579 11.5 7.75 11.5L10 11.5L10 9.25C10 8.83579 10.3358 8.5 10.75 8.5Z" fill-rule="EVENODD"></path>
 </g>
</svg>