<svg viewBox="0 0 24 24" width="24" height="24" fill="currentColor" xmlns="http://www.w3.org/2000/svg">
 <g transform="translate(1, 2)">
  <path d="M10.75 8.5C11.1642 8.5 11.5 8.83579 11.5 9.25L11.5 11.5L13.75 11.5C14.1642 11.5 14.5 11.8358 14.5 12.25C14.5 12.6642 14.1642 13 13.75 13L11.5 13L11.5 15.25C11.5 15.6642 11.1642 16 10.75 16C10.3358 16 10 15.6642 10 15.25L10 13L7.75 13C7.33579 13 7 12.6642 7 12.25C7 11.8358 7.33579 11.5 7.75 11.5L10 11.5L10 9.25C10 8.83579 10.3358 8.5 10.75 8.5Z" fill-rule="NONZERO"></path>
  <path d="M2.75 0C1.23122 0 0 1.23122 0 2.75L0 17.25C0 18.7688 1.23122 20 2.75 20L19.25 20C20.7688 20 22 18.7688 22 17.25L22 4.75C22 3.23122 20.7688 2 19.25 2L12.0784 2C11.7469 2 11.429 1.8683 11.1945 1.63388L10.3661 0.805456C9.85039 0.28973 9.15092 0 8.42157 0L2.75 0ZM1.5 2.75C1.5 2.05964 2.05964 1.5 2.75 1.5L8.42157 1.5C8.75309 1.5 9.07104 1.6317 9.30546 1.86612L10.1339 2.69454C10.6496 3.21027 11.3491 3.5 12.0784 3.5L19.25 3.5C19.9404 3.5 20.5 4.05964 20.5 4.75L20.5 17.25C20.5 17.9404 19.9404 18.5 19.25 18.5L2.75 18.5C2.05964 18.5 1.5 17.9404 1.5 17.25L1.5 6.5L18.25 6.5C18.6642 6.5 19 6.16421 19 5.75C19 5.33579 18.6642 5 18.25 5L1.5 5L1.5 2.75Z" fill-rule="EVENODD"></path>
 </g>
</svg>