<svg viewBox="0 0 16 16" width="16" height="16" fill="currentColor" xmlns="http://www.w3.org/2000/svg">
 <g transform="translate(0, 1)">
  <path d="M2.25 0C1.00736 0 0 1.00736 0 2.25L0 11.75C0 12.9926 1.00736 14 2.25 14L13.75 14C14.9926 14 16 12.9926 16 11.75L16 4.25C16 3.00736 14.9926 2 13.75 2L9.87132 2C9.67241 2 9.48164 1.92098 9.34099 1.78033L8.21967 0.659009C7.79771 0.237052 7.22542 0 6.62868 0L2.25 0ZM5 7.25293C5 6.83872 5.33579 6.50293 5.75 6.50293L10.25 6.50293C10.6642 6.50293 11 6.83872 11 7.25293C11 7.66714 10.6642 8.00293 10.25 8.00293L5.75 8.00293C5.33579 8.00293 5 7.66714 5 7.25293Z" fill-rule="EVENODD"></path>
 </g>
</svg>