<svg viewBox="0 0 24 24" width="24" height="24" fill="currentColor" xmlns="http://www.w3.org/2000/svg">
 <g transform="translate(1, 2)">
  <path d="M2.75 1.5C2.05964 1.5 1.5 2.05964 1.5 2.75L1.5 17.25C1.5 17.9404 2.05964 18.5 2.75 18.5L9.5 18.5C9.91421 18.5 10.25 18.8358 10.25 19.25C10.25 19.6642 9.91421 20 9.5 20L2.75 20C1.23122 20 0 18.7688 0 17.25L0 2.75C0 1.23122 1.23122 0 2.75 0L8.42157 0C9.15092 0 9.85039 0.28973 10.3661 0.805456L11.1945 1.63388C11.429 1.8683 11.7469 2 12.0784 2L19.25 2C20.7688 2 22 3.23122 22 4.75L22 10.25C22 10.6642 21.6642 11 21.25 11C20.8358 11 20.5 10.6642 20.5 10.25L20.5 4.75C20.5 4.05964 19.9404 3.5 19.25 3.5L12.0784 3.5C11.3491 3.5 10.6496 3.21027 10.1339 2.69454L9.30546 1.86612C9.07104 1.6317 8.75309 1.5 8.42157 1.5L2.75 1.5Z" fill-rule="EVENODD"></path>
  <path d="M0.5 5.75C0.5 5.33579 0.835786 5 1.25 5L18.25 5C18.6642 5 19 5.33579 19 5.75C19 6.16421 18.6642 6.5 18.25 6.5L1.25 6.5C0.835786 6.5 0.5 6.16421 0.5 5.75Z" fill-rule="EVENODD"></path>
  <path d="M16 8C16.2863 8 16.5476 8.16298 16.6735 8.42008L18.3539 11.8505L22.1093 12.4036C22.391 12.4451 22.6249 12.6426 22.7131 12.9133C22.8013 13.1841 22.7286 13.4814 22.5254 13.6809L19.8051 16.3508L20.4474 20.1242C20.4953 20.4059 20.379 20.6903 20.1475 20.8578C19.9159 21.0252 19.6093 21.0465 19.3568 20.9127L16 19.1338L12.6432 20.9127C12.3907 21.0465 12.0841 21.0252 11.8526 20.8578C11.621 20.6903 11.5047 20.4059 11.5526 20.1242L12.1949 16.3508L9.47464 13.6809C9.27142 13.4814 9.19869 13.1841 9.28688 12.9133C9.37508 12.6426 9.609 12.4451 9.89071 12.4036L13.6461 11.8505L15.3265 8.42008C15.4524 8.16298 15.7137 8 16 8ZM16 10.455L14.8195 12.8649C14.7108 13.0868 14.4998 13.2409 14.2553 13.277L11.6026 13.6677L13.5254 15.5549C13.7006 15.7269 13.7806 15.9739 13.7394 16.216L13.287 18.8739L15.6488 17.6223C15.8685 17.5059 16.1315 17.5059 16.3512 17.6223L18.713 18.8739L18.2606 16.216C18.2194 15.9739 18.2994 15.7269 18.4746 15.5549L20.3974 13.6677L17.7447 13.277C17.5002 13.2409 17.2892 13.0868 17.1805 12.8649L16 10.455Z" fill-rule="EVENODD"></path>
 </g>
</svg>