<svg viewBox="0 0 24 24" width="24" height="24" fill="currentColor" xmlns="http://www.w3.org/2000/svg">
 <g transform="translate(1, 2)">
  <path d="M2.75 1.5C2.05964 1.5 1.5 2.05964 1.5 2.75L1.5 5L18.25 5C18.6642 5 19 5.33579 19 5.75C19 6.16421 18.6642 6.5 18.25 6.5L1.5 6.5L1.5 17.25C1.5 17.9404 2.05964 18.5 2.75 18.5L9.5 18.5C9.91421 18.5 10.25 18.8358 10.25 19.25C10.25 19.6642 9.91421 20 9.5 20L2.75 20C1.23122 20 0 18.7688 0 17.25L0 2.75C0 1.23122 1.23122 0 2.75 0L8.42157 0C9.15092 0 9.85039 0.28973 10.3661 0.805456L11.1945 1.63388C11.429 1.8683 11.7469 2 12.0784 2L19.25 2C20.7688 2 22 3.23122 22 4.75L22 10.25C22 10.6642 21.6642 11 21.25 11C20.8358 11 20.5 10.6642 20.5 10.25L20.5 4.75C20.5 4.05964 19.9404 3.5 19.25 3.5L12.0784 3.5C11.3491 3.5 10.6496 3.21027 10.1339 2.69454L9.30546 1.86612C9.07104 1.6317 8.75309 1.5 8.42157 1.5L2.75 1.5Z" fill-rule="NONZERO"></path>
  <path d="M16.6736 8.42008C16.5476 8.16298 16.2863 8 16 8C15.7137 8 15.4524 8.16298 15.3265 8.42008L13.6462 11.8505L9.89073 12.4036C9.60902 12.4451 9.3751 12.6426 9.2869 12.9133C9.19871 13.1841 9.27144 13.4814 9.47466 13.6809L12.1949 16.3508L11.5527 20.1242C11.5047 20.4059 11.621 20.6903 11.8526 20.8578C12.0841 21.0252 12.3907 21.0465 12.6432 20.9127L16 19.1338L19.3568 20.9127C19.6093 21.0465 19.9159 21.0252 20.1475 20.8578C20.379 20.6903 20.4953 20.4059 20.4474 20.1242L19.8052 16.3508L22.5254 13.6809C22.7286 13.4814 22.8013 13.1841 22.7131 12.9133C22.6249 12.6426 22.391 12.4451 22.1093 12.4036L18.3539 11.8505L16.6736 8.42008ZM14.8196 12.8649L16 10.455L17.1805 12.8649C17.2892 13.0868 17.5002 13.2409 17.7447 13.277L20.3974 13.6677L18.4747 15.5549C18.2994 15.7269 18.2194 15.9739 18.2607 16.216L18.713 18.8739L16.3512 17.6223C16.1316 17.5059 15.8685 17.5059 15.6488 17.6223L13.287 18.8739L13.7394 16.216C13.7806 15.9739 13.7007 15.7269 13.5254 15.5549L11.6026 13.6677L14.2553 13.277C14.4998 13.2409 14.7109 13.0868 14.8196 12.8649Z" fill-rule="EVENODD"></path>
 </g>
</svg>