<svg viewBox="0 0 24 24" width="24" height="24" fill="black" xmlns="http://www.w3.org/2000/svg">
 <g transform="translate(1, 2)">
  <path d="M2.75 1.5C2.05964 1.5 1.5 2.05964 1.5 2.75L1.5 17.25C1.5 17.9404 2.05964 18.5 2.75 18.5L19.25 18.5C19.9404 18.5 20.5 17.9404 20.5 17.25L20.5 4.75C20.5 4.05964 19.9404 3.5 19.25 3.5L12.0784 3.5C11.3491 3.5 10.6496 3.21027 10.1339 2.69454L9.30546 1.86612C9.07104 1.6317 8.75309 1.5 8.42157 1.5L2.75 1.5ZM0 2.75C0 1.23122 1.23122 0 2.75 0L8.42157 0C9.15092 0 9.85039 0.28973 10.3661 0.805456L11.1945 1.63388C11.429 1.8683 11.7469 2 12.0784 2L19.25 2C20.7688 2 22 3.23122 22 4.75L22 17.25C22 18.7688 20.7688 20 19.25 20L2.75 20C1.23122 20 0 18.7688 0 17.25L0 2.75Z" fill-rule="EVENODD"></path>
  <path d="M0.5 5.75C0.5 5.33579 0.835786 5 1.25 5L18.25 5C18.6642 5 19 5.33579 19 5.75C19 6.16421 18.6642 6.5 18.25 6.5L1.25 6.5C0.835786 6.5 0.5 6.16421 0.5 5.75Z" fill-rule="EVENODD"></path>
 </g>
</svg>