<svg viewBox="0 0 24 24" width="24" height="24" fill="currentColor" xmlns="http://www.w3.org/2000/svg">
 <g transform="translate(1, 2)">
  <path d="M2.75 0C1.23122 0 0 1.23122 0 2.75L0 3.75C0 4.16421 0.335786 4.5 0.75 4.5L19.25 4.5C19.6642 4.5 20 4.83579 20 5.25C20 5.66421 19.6642 6 19.25 6L0.75 6C0.335786 6 0 6.33579 0 6.75L0 17.25C0 18.7688 1.23122 20 2.75 20L19.25 20C20.7688 20 22 18.7688 22 17.25L22 4.75C22 3.23122 20.7688 2 19.25 2L12.0784 2C11.7469 2 11.429 1.8683 11.1945 1.63388L10.3661 0.805456C9.85039 0.28973 9.15092 0 8.42157 0L2.75 0ZM11.5 9.25C11.5 8.83579 11.1642 8.5 10.75 8.5C10.3358 8.5 10 8.83579 10 9.25L10 11.5L7.75 11.5C7.33579 11.5 7 11.8358 7 12.25C7 12.6642 7.33579 13 7.75 13L10 13L10 15.25C10 15.6642 10.3358 16 10.75 16C11.1642 16 11.5 15.6642 11.5 15.25L11.5 13L13.75 13C14.1642 13 14.5 12.6642 14.5 12.25C14.5 11.8358 14.1642 11.5 13.75 11.5L11.5 11.5L11.5 9.25Z" fill-rule="EVENODD"></path>
 </g>
</svg>