<svg viewBox="0 0 16 16" width="16" height="16" fill="black" xmlns="http://www.w3.org/2000/svg">
 <g transform="translate(0.25, 1.25)">
  <path d="M3.54856 8.44858C3.91581 8.08132 4.41392 7.875 4.9333 7.875L7.59995 7.875C8.11933 7.875 8.61744 8.08132 8.9847 8.44858C9.35196 8.81584 9.55828 9.31395 9.55828 9.83333L9.55828 10.5C9.55828 10.8452 9.27846 11.125 8.93328 11.125C8.5881 11.125 8.30828 10.8452 8.30828 10.5L8.30828 9.83333C8.30828 9.64547 8.23365 9.4653 8.10082 9.33246C7.96798 9.19963 7.78781 9.125 7.59995 9.125L4.9333 9.125C4.74544 9.125 4.56528 9.19963 4.43244 9.33246C4.2996 9.4653 4.22498 9.64547 4.22498 9.83333L4.22498 10.5C4.22498 10.8452 3.94515 11.125 3.59998 11.125C3.2548 11.125 2.97498 10.8452 2.97498 10.5L2.97498 9.83333C2.97498 9.31395 3.1813 8.81584 3.54856 8.44858Z" fill-rule="NONZERO"></path>
  <path d="M6.26714 3.625C5.18559 3.625 4.30881 4.50177 4.30881 5.58333C4.30881 6.66488 5.18559 7.54165 6.26714 7.54165C7.34869 7.54165 8.22547 6.66488 8.22547 5.58333C8.22547 4.50177 7.34869 3.625 6.26714 3.625ZM5.55881 5.58333C5.55881 5.19213 5.87594 4.875 6.26714 4.875C6.65834 4.875 6.97547 5.19213 6.97547 5.58333C6.97547 5.97452 6.65834 6.29165 6.26714 6.29165C5.87594 6.29165 5.55881 5.97452 5.55881 5.58333Z" fill-rule="EVENODD"></path>
  <path d="M10.3278 8.34375C10.4141 8.00953 10.755 7.80855 11.0892 7.89485C11.5094 8.00332 11.8816 8.24825 12.1474 8.59118C12.4132 8.93412 12.5577 9.35562 12.558 9.78953L12.558 10.4567C12.558 10.8018 12.2782 11.0817 11.933 11.0817C11.5878 11.0817 11.308 10.8018 11.308 10.4567L11.308 9.79026C11.3078 9.63339 11.2556 9.481 11.1595 9.35702C11.0633 9.23298 10.9287 9.14439 10.7767 9.10515C10.4425 9.01886 10.2415 8.67797 10.3278 8.34375Z" fill-rule="NONZERO"></path>
  <path d="M9.755 3.68793C9.42061 3.60231 9.08012 3.80398 8.99451 4.13837C8.90889 4.47276 9.11056 4.81325 9.44495 4.89886C9.59731 4.93788 9.73236 5.02649 9.8288 5.15073C9.92524 5.27497 9.97758 5.42778 9.97758 5.58506C9.97758 5.74233 9.92524 5.89514 9.8288 6.01938C9.73236 6.14362 9.59731 6.23224 9.44495 6.27125C9.11056 6.35686 8.90889 6.69735 8.99451 7.03174C9.08012 7.36613 9.42061 7.5678 9.755 7.48218C10.1762 7.37433 10.5496 7.12934 10.8162 6.78585C11.0829 6.44235 11.2276 6.01989 11.2276 5.58506C11.2276 5.15022 11.0829 4.72776 10.8162 4.38426C10.5496 4.04077 10.1762 3.79578 9.755 3.68793Z" fill-rule="NONZERO"></path>
  <path d="M0.610194 0.610194C1.0009 0.219493 1.5308 0 2.08333 0L7.25 0C7.44891 0 7.63968 0.0790176 7.78033 0.21967L9.06066 1.5L13.4167 1.5C13.9692 1.5 14.4991 1.71949 14.8898 2.11019C15.2805 2.50089 15.5 3.0308 15.5 3.58333L15.5 11.4167C15.5 11.9692 15.2805 12.4991 14.8898 12.8898C14.4991 13.2805 13.9692 13.5 13.4167 13.5L2.08333 13.5C1.5308 13.5 1.0009 13.2805 0.610194 12.8898C0.219493 12.4991 0 11.9692 0 11.4167L0 2.08333C0 1.5308 0.219493 1.0009 0.610194 0.610194ZM2.08333 1.5C1.92862 1.5 1.78025 1.56146 1.67085 1.67085C1.56146 1.78025 1.5 1.92862 1.5 2.08333L1.5 11.4167C1.5 11.5714 1.56146 11.7197 1.67085 11.8291C1.78025 11.9385 1.92862 12 2.08333 12L13.4167 12C13.5714 12 13.7197 11.9385 13.8291 11.8291C13.9385 11.7197 14 11.5714 14 11.4167L14 3.58333C14 3.42862 13.9385 3.28025 13.8291 3.17085C13.7197 3.06146 13.5714 3 13.4167 3L8.75 3C8.55109 3 8.36032 2.92098 8.21967 2.78033L6.93934 1.5L2.08333 1.5Z" fill-rule="EVENODD"></path>
 </g>
</svg>