<svg viewBox="0 0 24 24" width="24" height="24" fill="currentColor" xmlns="http://www.w3.org/2000/svg">
 <g transform="translate(1, 2)">
  <path d="M1.5 2.75C1.5 2.05964 2.05964 1.5 2.75 1.5L8.42157 1.5C8.75309 1.5 9.07104 1.6317 9.30546 1.86612L10.1339 2.69454C10.6496 3.21027 11.3491 3.5 12.0784 3.5L19.25 3.5C19.9404 3.5 20.5 4.05964 20.5 4.75L20.5 13.75C20.5 14.1642 20.8358 14.5 21.25 14.5C21.6642 14.5 22 14.1642 22 13.75L22 4.75C22 3.23122 20.7688 2 19.25 2L12.0784 2C11.7469 2 11.429 1.8683 11.1945 1.63388L10.3661 0.805456C9.85039 0.28973 9.15092 0 8.42157 0L2.75 0C1.23122 0 0 1.23122 0 2.75L0 17.25C0 18.7688 1.23122 20 2.75 20L4.25 20C4.66421 20 5 19.6642 5 19.25C5 18.8358 4.66421 18.5 4.25 18.5L2.75 18.5C2.05964 18.5 1.5 17.9404 1.5 17.25L1.5 6.5L18.25 6.5C18.6642 6.5 19 6.16421 19 5.75C19 5.33579 18.6642 5 18.25 5L1.5 5L1.5 2.75Z" fill-rule="NONZERO"></path>
  <path d="M7.31789 15.9284C7.85047 15.3436 8.58866 14.9999 9.375 14.9999L13.625 14.9999C14.4113 14.9999 15.1495 15.3436 15.6821 15.9284C16.2126 16.5108 16.5 17.287 16.5 18.0833L16.5 19.2499C16.5 19.6642 16.1642 19.9999 15.75 19.9999C15.3358 19.9999 15 19.6642 15 19.2499L15 18.0833C15 17.6419 14.8397 17.2311 14.5731 16.9384C14.3086 16.648 13.9658 16.4999 13.625 16.4999L9.375 16.4999C9.03417 16.4999 8.69135 16.648 8.4269 16.9384C8.16033 17.2311 8 17.6419 8 18.0833L8 19.2499C8 19.6642 7.66421 19.9999 7.25 19.9999C6.83579 19.9999 6.5 19.6642 6.5 19.2499L6.5 18.0833C6.5 17.287 6.78744 16.5108 7.31789 15.9284Z" fill-rule="NONZERO"></path>
  <path d="M11.5 7.99994C9.84315 7.99994 8.5 9.34308 8.5 10.9999C8.5 12.6568 9.84315 13.9999 11.5 13.9999C13.1569 13.9999 14.5 12.6568 14.5 10.9999C14.5 9.34308 13.1569 7.99994 11.5 7.99994ZM10 10.9999C10 10.1715 10.6716 9.49994 11.5 9.49994C12.3284 9.49994 13 10.1715 13 10.9999C13 11.8284 12.3284 12.4999 11.5 12.4999C10.6716 12.4999 10 11.8284 10 10.9999Z" fill-rule="EVENODD"></path>
  <path d="M17.2748 15.5586C17.3805 15.1581 17.7909 14.9191 18.1914 15.0248C18.8561 15.2002 19.4418 15.5955 19.8584 16.1448C20.2748 16.6938 20.4995 17.3664 20.5 18.0569L20.5 19.2499C20.5 19.6642 20.1642 19.9999 19.75 19.9999C19.3358 19.9999 19 19.6642 19 19.2499L19 18.0577C18.9997 17.6914 18.8803 17.3374 18.6632 17.0512C18.4463 16.7652 18.145 16.5639 17.8086 16.4751C17.4081 16.3694 17.1691 15.9591 17.2748 15.5586Z" fill-rule="NONZERO"></path>
  <path d="M16.1857 8.02328C15.7844 7.92074 15.3759 8.16294 15.2733 8.56426C15.1708 8.96558 15.413 9.37404 15.8143 9.47659C16.1539 9.56336 16.4546 9.76038 16.6691 10.0362C16.8837 10.3121 17 10.6511 17 10.9999C17 11.3487 16.8837 11.6878 16.6691 11.9636C16.4546 12.2395 16.1539 12.4365 15.8143 12.5233C15.413 12.6258 15.1708 13.0343 15.2733 13.4356C15.3759 13.8369 15.7844 14.0791 16.1857 13.9766C16.8473 13.8075 17.434 13.4234 17.8532 12.8845C18.2723 12.3456 18.5 11.6826 18.5 10.9999C18.5 10.3173 18.2723 9.65427 17.8532 9.11534C17.434 8.57644 16.8473 8.19235 16.1857 8.02328Z" fill-rule="NONZERO"></path>
 </g>
</svg>