<svg viewBox="0 0 16 16" width="16" height="16" fill="currentColor" xmlns="http://www.w3.org/2000/svg">
 <g transform="translate(0, 1)">
  <path d="M2.25 0C1.00736 0 0 1.00736 0 2.25L0 3.25C0 3.66421 0.335786 4 0.75 4L13.25 4C13.6642 4 14 4.33579 14 4.75C14 5.16421 13.6642 5.5 13.25 5.5L0.75 5.5C0.335786 5.5 0 5.83579 0 6.25L0 11.75C0 12.9926 1.00736 14 2.25 14L13.75 14C14.9926 14 16 12.9926 16 11.75L16 4.25C16 3.00736 14.9926 2 13.75 2L9.87132 2C9.67241 2 9.48164 1.92098 9.34099 1.78033L8.21967 0.659009C7.79771 0.237052 7.22542 0 6.62868 0L2.25 0Z" fill-rule="NONZERO"></path>
 </g>
</svg>