<svg viewBox="0 0 24 24" width="24" height="24" fill="currentColor" xmlns="http://www.w3.org/2000/svg">
 <g transform="translate(1, 1)">
  <path d="M7.45743 13.4238C8.27044 12.7463 9.49963 12 11.0001 12C12.5005 12 13.7297 12.7463 14.5427 13.4238C14.9558 13.7681 15.2814 14.111 15.5043 14.3682C15.6302 14.5134 15.7532 14.6617 15.8638 14.819L15.8645 14.8199C16.102 15.1592 16.0195 15.6269 15.6802 15.8644C15.3413 16.1016 14.8744 16.0197 14.6366 15.6815L14.636 15.6806L14.6352 15.6795C14.5526 15.5657 14.4629 15.4568 14.3708 15.3506C14.1875 15.139 13.9193 14.8569 13.5824 14.5762C12.8954 14.0037 11.9996 13.5 11.0001 13.5C10.0005 13.5 9.10469 14.0037 8.4177 14.5762C8.0288 14.9003 7.66248 15.2696 7.36423 15.6805C7.12661 16.0195 6.65918 16.1019 6.31997 15.8644C5.98063 15.6269 5.8981 15.1592 6.13564 14.8199C6.24636 14.6622 6.3697 14.5137 6.4958 14.3682C6.71872 14.111 7.04429 13.7681 7.45743 13.4238Z" fill-rule="NONZERO"></path>
  <path d="M7 8C7 7.44772 7.44772 7 8 7L8.01 7C8.56229 7 9.01 7.44772 9.01 8C9.01 8.55229 8.56229 9 8.01 9L8 9C7.44772 9 7 8.55229 7 8Z" fill-rule="NONZERO"></path>
  <path d="M14 7C13.4477 7 13 7.44772 13 8C13 8.55229 13.4477 9 14 9L14.01 9C14.5623 9 15.01 8.55229 15.01 8C15.01 7.44772 14.5623 7 14.01 7L14 7Z" fill-rule="NONZERO"></path>
  <path d="M11 0C4.92487 0 0 4.92487 0 11C0 17.0751 4.92487 22 11 22C17.0751 22 22 17.0751 22 11C22 4.92487 17.0751 0 11 0ZM1.5 11C1.5 5.75329 5.75329 1.5 11 1.5C16.2467 1.5 20.5 5.75329 20.5 11C20.5 16.2467 16.2467 20.5 11 20.5C5.75329 20.5 1.5 16.2467 1.5 11Z" fill-rule="EVENODD"></path>
 </g>
</svg>