<svg viewBox="0 0 16 16" width="16" height="16" fill="currentColor" xmlns="http://www.w3.org/2000/svg">
 <g transform="translate(0.25, 0)">
  <path d="M3.28713 5.35419C3.70243 4.20136 4.25838 3.23351 4.98159 2.56019C5.68801 1.9025 6.57957 1.5 7.75 1.5C9.00116 1.5 9.9382 1.96015 10.671 2.70914C11.4232 3.47789 11.9813 4.57548 12.3814 5.8563C13.1829 8.42195 13.2823 11.4941 13.2427 13.4185C13.2304 14.0133 12.7354 14.5 12.0825 14.5L3.41751 14.5C2.76519 14.5 2.26955 14.0127 2.2573 13.4173C2.24608 12.8718 2.24586 12.2282 2.27048 11.5263C2.285 11.1123 1.9612 10.765 1.54724 10.7505C1.13328 10.7359 0.785926 11.0597 0.771404 11.4737C0.74566 12.2075 0.745918 12.8793 0.757619 13.4482C0.787808 14.916 2.00617 16 3.41751 16L12.0825 16C13.4932 16 14.7121 14.9178 14.7424 13.4494C14.7829 11.4823 14.689 8.21245 13.8132 5.40901C13.3746 4.00528 12.723 2.66154 11.7432 1.66011C10.744 0.638908 9.42677 0 7.75 0C6.18872 0 4.93493 0.554178 3.95948 1.46233C3.00083 2.35485 2.33839 3.562 1.87591 4.84581C1.73552 5.23551 1.93763 5.66522 2.32733 5.80561C2.71703 5.946 3.14674 5.74389 3.28713 5.35419Z" fill-rule="NONZERO"></path>
  <path d="M5.96967 4.46967C6.26256 4.17678 6.73744 4.17678 7.03033 4.46967L10.2803 7.71967L10.2883 7.7278C10.424 7.86762 10.5 8.05489 10.5 8.25C10.5 8.44891 10.421 8.63968 10.2803 8.78033L7.03033 12.0303C6.73744 12.3232 6.26256 12.3232 5.96967 12.0303C5.67678 11.7374 5.67678 11.2626 5.96967 10.9697L7.93934 9L0.75 9C0.335786 9 0 8.66421 0 8.25C0 7.83579 0.335786 7.5 0.75 7.5L7.93934 7.5L5.96967 5.53033C5.67678 5.23744 5.67678 4.76256 5.96967 4.46967Z" fill-rule="NONZERO"></path>
 </g>
</svg>