<svg viewBox="0 0 16 16" width="16" height="16" fill="currentColor" xmlns="http://www.w3.org/2000/svg">
 <g transform="translate(0.00000000000022737367544323206, 0)">
  <path d="M1.5 2.75C1.5 3.18785 1.60312 3.61584 1.79658 4L0.75 4C0.335786 4 0 4.33579 0 4.75L0 8.25C0 8.66421 0.335786 9 0.75 9L2 9L2 15.25C2 15.6642 2.33579 16 2.75 16L13.25 16C13.6642 16 14 15.6642 14 15.25L14 9L15.25 9C15.6642 9 16 8.66421 16 8.25L16 4.75C16 4.33579 15.6642 4 15.25 4L14.7034 4C14.8969 3.61584 15 3.18785 15 2.75C15 2.02497 14.7173 1.32698 14.2098 0.810255C13.7018 0.293076 13.01 0 12.2857 0C10.4867 0 9.40764 1.31814 8.82673 2.39355C8.56398 2.87996 8.37703 3.36096 8.25 3.7451C8.12298 3.36096 7.93602 2.87996 7.67327 2.39355C7.09236 1.31814 6.01327 0 4.21429 0C3.49001 0 2.79818 0.293076 2.29024 0.810255C1.78275 1.32698 1.5 2.02497 1.5 2.75ZM4.21429 1.5C3.89664 1.5 3.58922 1.62835 3.36041 1.86132C3.13116 2.09474 3 2.41416 3 2.75C3 3.08584 3.13116 3.40526 3.36041 3.63868C3.58922 3.87165 3.89664 4 4.21429 4L6.75085 4C6.65033 3.72378 6.51934 3.41343 6.35351 3.10645C5.85407 2.18186 5.1653 1.5 4.21429 1.5ZM9.74916 4L12.2857 4C12.6034 4 12.9108 3.87165 13.1396 3.63868C13.3689 3.40526 13.5 3.08584 13.5 2.75C13.5 2.41416 13.3689 2.09474 13.1396 1.86132C12.9108 1.62835 12.6034 1.5 12.2857 1.5C11.3347 1.5 10.6459 2.18186 10.1465 3.10645C9.98067 3.41343 9.84967 3.72378 9.74916 4ZM9 5.5L9 7.5L14.5 7.5L14.5 5.5L9 5.5ZM7.5 5.5L7.5 7.5L1.5 7.5L1.5 5.5L7.5 5.5ZM9 14.5L12.5 14.5L12.5 9L9 9L9 14.5ZM7.5 9L7.5 14.5L3.5 14.5L3.5 9L7.5 9Z" fill-rule="EVENODD"></path>
 </g>
</svg>