<svg viewBox="0 0 24 24" width="24" height="24" fill="black" xmlns="http://www.w3.org/2000/svg">
 <g transform="translate(1, 1)">
  <path d="M2.75 10.5C3.16421 10.5 3.5 10.8358 3.5 11.25L3.5 19.25C3.5 19.9404 4.05964 20.5 4.75 20.5L17.25 20.5C17.9404 20.5 18.5 19.9404 18.5 19.25L18.5 11.25C18.5 10.8358 18.8358 10.5 19.25 10.5C19.6642 10.5 20 10.8358 20 11.25L20 19.25C20 20.7688 18.7688 22 17.25 22L4.75 22C3.23122 22 2 20.7688 2 19.25L2 11.25C2 10.8358 2.33579 10.5 2.75 10.5Z" fill-rule="EVENODD"></path>
  <path d="M0 6.75C0 5.7835 0.783502 5 1.75 5L3.03917 5L10.6775 5L11.3225 5L18.9608 5L20.25 5C21.2165 5 22 5.7835 22 6.75L22 10.25C22 11.2165 21.2165 12 20.25 12L1.75 12C0.783502 12 0 11.2165 0 10.25L0 6.75ZM1.75 6.5C1.61193 6.5 1.5 6.61193 1.5 6.75L1.5 10.25C1.5 10.3881 1.61193 10.5 1.75 10.5L20.25 10.5C20.3881 10.5 20.5 10.3881 20.5 10.25L20.5 6.75C20.5 6.61193 20.3881 6.5 20.25 6.5L1.75 6.5Z" fill-rule="EVENODD"></path>
  <path d="M11 5.25C11.4142 5.25 11.75 5.58579 11.75 6L11.75 21C11.75 21.4142 11.4142 21.75 11 21.75C10.5858 21.75 10.25 21.4142 10.25 21L10.25 6C10.25 5.58579 10.5858 5.25 11 5.25Z" fill-rule="EVENODD"></path>
  <path d="M9.73978 5L10.6775 5C10.7034 4.91609 10.7328 4.82497 10.7658 4.72778C10.8293 4.5406 10.9068 4.3291 11 4.10202C10.8437 3.72116 10.6435 3.29648 10.3917 2.86923C9.59918 1.52436 8.19452 0 5.92857 0C5.03531 0 4.16912 0.330707 3.5228 0.933942C2.87473 1.53881 2.5 2.3707 2.5 3.25C2.5 3.87963 2.69213 4.48494 3.03917 5L5.92857 5C5.40103 5 4.90461 4.80392 4.54627 4.46948C4.18969 4.13666 4 3.69678 4 3.25C4 2.80322 4.18969 2.36334 4.54627 2.03052C4.90461 1.69608 5.40103 1.5 5.92857 1.5C7.41263 1.5 8.41868 2.47564 9.09938 3.63077C9.38284 4.11178 9.59234 4.59749 9.73978 5Z" fill-rule="NONZERO"></path>
  <path d="M11.2342 4.72778C11.2672 4.82497 11.2966 4.91609 11.3225 5L12.2602 5C12.4077 4.59749 12.6172 4.11178 12.9006 3.63077C13.5813 2.47564 14.5874 1.5 16.0714 1.5C16.599 1.5 17.0954 1.69608 17.4537 2.03052C17.8103 2.36334 18 2.80322 18 3.25C18 3.69678 17.8103 4.13666 17.4537 4.46948C17.0954 4.80392 16.599 5 16.0714 5L18.9608 5C19.3079 4.48494 19.5 3.87963 19.5 3.25C19.5 2.3707 19.1253 1.53881 18.4772 0.933942C17.8309 0.330707 16.9647 0 16.0714 0C13.8055 0 12.4008 1.52436 11.6083 2.86923C11.3565 3.29648 11.1563 3.72116 11 4.10202C11.0932 4.3291 11.1707 4.5406 11.2342 4.72778Z" fill-rule="NONZERO"></path>
  <path d="M10.7658 4.72778C10.7328 4.82497 10.7034 4.91609 10.6775 5L11.3225 5C11.2966 4.91609 11.2672 4.82497 11.2342 4.72778C11.1707 4.5406 11.0932 4.3291 11 4.10202C10.9068 4.3291 10.8293 4.5406 10.7658 4.72778Z" fill-rule="NONZERO"></path>
 </g>
</svg>