<svg viewBox="0 0 16 16" width="16" height="16" fill="currentColor" xmlns="http://www.w3.org/2000/svg">
 <g transform="translate(0, 0)">
  <path d="M1.5 2.75C1.5 3.18785 1.60312 3.61584 1.79658 4L0.75 4C0.335786 4 0 4.33579 0 4.75L0 8.25C0 8.66421 0.335786 9 0.75 9L2 9L2 15.25C2 15.6642 2.33579 16 2.75 16L13.25 16C13.6642 16 14 15.6642 14 15.25L14 9L15.25 9C15.6642 9 16 8.66421 16 8.25L16 4.75C16 4.33579 15.6642 4 15.25 4L14.2034 4C14.3969 3.61584 14.5 3.18785 14.5 2.75C14.5 2.02497 14.2173 1.32698 13.7098 0.810255C13.2018 0.293076 12.51 0 11.7857 0C9.98673 0 8.90764 1.31814 8.32673 2.39355C8.20106 2.62619 8.09273 2.8576 8 3.07777C7.90728 2.8576 7.79894 2.62619 7.67327 2.39355C7.09236 1.31814 6.01327 0 4.21429 0C3.49001 0 2.79818 0.293076 2.29024 0.810255C1.78275 1.32698 1.5 2.02497 1.5 2.75ZM4.21429 1.5C3.89664 1.5 3.58922 1.62835 3.36041 1.86132C3.13116 2.09474 3 2.41416 3 2.75C3 3.08584 3.13116 3.40526 3.36041 3.63868C3.58922 3.87165 3.89664 4 4.21429 4L6.75085 4C6.65033 3.72378 6.51934 3.41343 6.35351 3.10645C5.85407 2.18186 5.1653 1.5 4.21429 1.5ZM9.24916 4L11.7857 4C12.1034 4 12.4108 3.87165 12.6396 3.63868C12.8689 3.40526 13 3.08584 13 2.75C13 2.41416 12.8689 2.09474 12.6396 1.86132C12.4108 1.62835 12.1034 1.5 11.7857 1.5C10.8347 1.5 10.1459 2.18186 9.64649 3.10645C9.48067 3.41343 9.34967 3.72378 9.24916 4ZM8.75 5.5L8.75 7.5L14.5 7.5L14.5 5.5L8.75 5.5ZM7.25 5.5L7.25 7.5L1.5 7.5L1.5 5.5L7.25 5.5ZM8.75 14.5L12.5 14.5L12.5 9L8.75 9L8.75 14.5ZM7.25 9L7.25 14.5L3.5 14.5L3.5 9L7.25 9Z" fill-rule="EVENODD"></path>
 </g>
</svg>