<svg viewBox="0 0 24 24" width="24" height="24" fill="currentColor" xmlns="http://www.w3.org/2000/svg">
 <g transform="translate(1, 1)">
  <path d="M2.5 3.25C2.5 3.87963 2.69213 4.48494 3.03917 5L1.75 5C0.783502 5 0 5.7835 0 6.75L0 10.25C0 11.2165 0.783502 12 1.75 12L2 12L2 19.25C2 20.7688 3.23122 22 4.75 22L17.25 22C18.7688 22 20 20.7688 20 19.25L20 12L20.25 12C21.2165 12 22 11.2165 22 10.25L22 6.75C22 5.7835 21.2165 5 20.25 5L18.9608 5C19.3079 4.48494 19.5 3.87963 19.5 3.25C19.5 2.3707 19.1253 1.53881 18.4772 0.933942C17.8309 0.330707 16.9647 0 16.0714 0C13.8055 0 12.4008 1.52436 11.6083 2.86923C11.3565 3.29648 11.1563 3.72117 11 4.10203C10.8437 3.72117 10.6435 3.29648 10.3917 2.86923C9.59918 1.52436 8.19452 0 5.92857 0C5.03531 0 4.16912 0.330707 3.5228 0.933942C2.87473 1.53881 2.5 2.3707 2.5 3.25ZM5.92857 1.5C5.40103 1.5 4.90461 1.69608 4.54627 2.03052C4.18969 2.36334 4 2.80322 4 3.25C4 3.69678 4.18969 4.13666 4.54627 4.46948C4.90461 4.80392 5.40103 5 5.92857 5L9.73978 5C9.59234 4.59749 9.38284 4.11178 9.09938 3.63077C8.41868 2.47564 7.41263 1.5 5.92857 1.5ZM12.2602 5L16.0714 5C16.599 5 17.0954 4.80392 17.4537 4.46948C17.8103 4.13666 18 3.69678 18 3.25C18 2.80322 17.8103 2.36334 17.4537 2.03052C17.0954 1.69608 16.599 1.5 16.0714 1.5C14.5874 1.5 13.5813 2.47564 12.9006 3.63077C12.6172 4.11178 12.4077 4.59749 12.2602 5ZM11.75 6.5L11.75 10.5L20.25 10.5C20.3881 10.5 20.5 10.3881 20.5 10.25L20.5 6.75C20.5 6.61193 20.3881 6.5 20.25 6.5L11.75 6.5ZM10.25 6.5L10.25 10.5L1.75 10.5C1.61193 10.5 1.5 10.3881 1.5 10.25L1.5 6.75C1.5 6.61193 1.61193 6.5 1.75 6.5L10.25 6.5ZM18.5 19.25L18.5 12L11.75 12L11.75 20.5L17.25 20.5C17.9404 20.5 18.5 19.9404 18.5 19.25ZM10.25 20.5L4.75 20.5C4.05964 20.5 3.5 19.9404 3.5 19.25L3.5 12L10.25 12L10.25 20.5Z" fill-rule="EVENODD"></path>
 </g>
</svg>