<svg viewBox="0 0 24 24" width="24" height="24" fill="currentColor" xmlns="http://www.w3.org/2000/svg">
 <g transform="translate(3, 3)">
  <path d="M4.32891 6.90126C5.86182 6.52899 7 5.14741 7 3.5C7 1.567 5.433 0 3.5 0C1.567 0 0 1.567 0 3.5C0 5.17556 1.17741 6.57612 2.75 6.91946L2.75 17.75C2.75 18.1642 3.08579 18.5 3.5 18.5C3.91421 18.5 4.25 18.1642 4.25 17.75L4.25 10.3109C4.60673 10.8568 5.01749 11.3958 5.47126 11.9052C6.9152 13.5259 8.89913 14.9569 11.0721 15.2103C11.4004 16.8027 12.8104 18 14.5 18C16.433 18 18 16.433 18 14.5C18 12.567 16.433 11 14.5 11C12.8425 11 11.4541 12.1522 11.092 13.6993C9.48971 13.4557 7.88371 12.3581 6.59124 10.9073C5.8685 10.0961 5.27486 9.20727 4.86512 8.36965C4.5995 7.82666 4.42231 7.32811 4.32891 6.90126ZM3.5 1.5C2.39543 1.5 1.5 2.39543 1.5 3.5C1.5 4.60457 2.39543 5.5 3.5 5.5C4.60457 5.5 5.5 4.60457 5.5 3.5C5.5 2.39543 4.60457 1.5 3.5 1.5ZM12.5 14.5C12.5 15.6046 13.3954 16.5 14.5 16.5C15.6046 16.5 16.5 15.6046 16.5 14.5C16.5 13.3954 15.6046 12.5 14.5 12.5C13.3954 12.5 12.5 13.3954 12.5 14.5Z" fill-rule="EVENODD"></path>
 </g>
</svg>