<svg viewBox="0 0 16 16" width="16" height="16" fill="currentColor" xmlns="http://www.w3.org/2000/svg">
 <g transform="translate(1, 1)">
  <path d="M3.75 5.90549C5.04392 5.57245 6 4.39788 6 3C6 1.34315 4.65685 0 3 0C1.34315 0 0 1.34315 0 3C0 4.39788 0.95608 5.57245 2.25 5.90549L2.25 13C2.25 13.4142 2.58579 13.75 3 13.75C3.41421 13.75 3.75 13.4142 3.75 13L3.75 5.90549ZM1.5 3C1.5 2.17157 2.17157 1.5 3 1.5C3.82843 1.5 4.5 2.17157 4.5 3C4.5 3.82843 3.82843 4.5 3 4.5C2.17157 4.5 1.5 3.82843 1.5 3Z" fill-rule="EVENODD"></path>
  <path d="M8 11C8 9.60212 8.95608 8.42754 10.25 8.09451L10.25 4C10.25 3.58579 9.91421 3.25 9.5 3.25L8.25 3.25C7.83579 3.25 7.5 2.91421 7.5 2.5C7.5 2.08579 7.83579 1.75 8.25 1.75L9.5 1.75C10.7426 1.75 11.75 2.75736 11.75 4L11.75 8.09451C13.0439 8.42754 14 9.60212 14 11C14 12.6569 12.6569 14 11 14C9.34315 14 8 12.6569 8 11ZM9.5 11C9.5 10.1716 10.1716 9.5 11 9.5C11.8284 9.5 12.5 10.1716 12.5 11C12.5 11.8284 11.8284 12.5 11 12.5C10.1716 12.5 9.5 11.8284 9.5 11Z" fill-rule="EVENODD"></path>
 </g>
</svg>