<svg viewBox="0 0 24 24" width="24" height="24" fill="currentColor" xmlns="http://www.w3.org/2000/svg">
 <g transform="translate(3, 3)">
  <path d="M4.25 6.91946C5.82259 6.57612 7 5.17556 7 3.5C7 1.567 5.433 0 3.5 0C1.567 0 0 1.567 0 3.5C0 5.17556 1.17741 6.57612 2.75 6.91946L2.75 17.75C2.75 18.1642 3.08579 18.5 3.5 18.5C3.91421 18.5 4.25 18.1642 4.25 17.75L4.25 6.91946ZM1.5 3.5C1.5 2.39543 2.39543 1.5 3.5 1.5C4.60457 1.5 5.5 2.39543 5.5 3.5C5.5 4.60457 4.60457 5.5 3.5 5.5C2.39543 5.5 1.5 4.60457 1.5 3.5Z" fill-rule="EVENODD"></path>
  <path d="M15.25 5.5L15.25 11.0805C16.8226 11.4239 18 12.8244 18 14.5C18 16.433 16.433 18 14.5 18C12.567 18 11 16.433 11 14.5C11 12.8244 12.1774 11.4239 13.75 11.0805L13.75 5.5C13.75 4.80964 13.1904 4.25 12.5 4.25L10.25 4.25C9.83579 4.25 9.5 3.91421 9.5 3.5C9.5 3.08579 9.83579 2.75 10.25 2.75L12.5 2.75C14.0188 2.75 15.25 3.98122 15.25 5.5ZM12.5 14.5C12.5 13.3954 13.3954 12.5 14.5 12.5C15.6046 12.5 16.5 13.3954 16.5 14.5C16.5 15.6046 15.6046 16.5 14.5 16.5C13.3954 16.5 12.5 15.6046 12.5 14.5Z" fill-rule="EVENODD"></path>
 </g>
</svg>