<svg viewBox="0 0 24 24" width="24" height="24" fill="currentColor" xmlns="http://www.w3.org/2000/svg">
 <g transform="translate(3, 1)">
  <path d="M0 16.2504C0 14.7319 1.231 13.5 2.75 13.5L17.25 13.5C17.6642 13.5 18 13.8358 18 14.25C18 14.6642 17.6642 15 17.25 15L2.75 15C2.05986 15 1.5 15.5599 1.5 16.2504L1.5 16.75C1.5 17.1642 1.16421 17.5 0.75 17.5C0.335786 17.5 0 17.1642 0 16.75L0 16.2504Z" fill-rule="EVENODD"></path>
  <path d="M0 2.75C0 1.23122 1.23122 0 2.75 0L16.25 0C17.2165 0 18 0.783502 18 1.75L18 18.25C18 19.2165 17.2165 20 16.25 20L13 20C12.5858 20 12.25 19.6642 12.25 19.25C12.25 18.8358 12.5858 18.5 13 18.5L16.25 18.5C16.3881 18.5 16.5 18.3881 16.5 18.25L16.5 1.75C16.5 1.61193 16.3881 1.5 16.25 1.5L2.75 1.5C2.05964 1.5 1.5 2.05964 1.5 2.75L1.5 17.25C1.5 17.9404 2.05964 18.5 2.75 18.5L3 18.5C3.41421 18.5 3.75 18.8358 3.75 19.25C3.75 19.6642 3.41421 20 3 20L2.75 20C1.23122 20 0 18.7688 0 17.25L0 2.75Z" fill-rule="EVENODD"></path>
  <path d="M5 17.75C5 17.3358 5.33579 17 5.75 17L10.25 17C10.6642 17 11 17.3358 11 17.75L11 21.25C11 21.5185 10.8564 21.7666 10.6235 21.9004C10.3907 22.0341 10.1041 22.0331 9.8721 21.8978L8 20.8058L6.1279 21.8978C5.89594 22.0331 5.60932 22.0341 5.37645 21.9004C5.14358 21.7666 5 21.5185 5 21.25L5 17.75Z" fill-rule="EVENODD"></path>
 </g>
</svg>