<svg viewBox="0 0 16 16" width="16" height="16" fill="currentColor" xmlns="http://www.w3.org/2000/svg">
 <g transform="translate(1, 1)">
  <path d="M3.881 5.86856C5.10793 5.49219 6 4.35027 6 3C6 1.34315 4.65685 0 3 0C1.34315 0 0 1.34315 0 3C0 4.39788 0.95608 5.57245 2.25 5.90549L2.25 13C2.25 13.4142 2.58579 13.75 3 13.75C3.41421 13.75 3.75 13.4142 3.75 13L3.75 8.63687C3.91827 8.85633 4.09741 9.07252 4.28557 9.28218C5.27005 10.3792 6.62528 11.4308 8.07963 11.6896C8.39117 13.014 9.58044 14 11 14C12.6569 14 14 12.6569 14 11C14 9.34315 12.6569 8 11 8C9.63382 8 8.48094 8.9132 8.11846 10.1625C7.22452 9.92555 6.24993 9.22523 5.40193 8.28032C4.89348 7.71376 4.46953 7.10083 4.17658 6.53965C4.04634 6.29015 3.94932 6.06488 3.881 5.86856ZM3 1.5C2.17157 1.5 1.5 2.17157 1.5 3C1.5 3.82843 2.17157 4.5 3 4.5C3.82843 4.5 4.5 3.82843 4.5 3C4.5 2.17157 3.82843 1.5 3 1.5ZM9.5 11C9.5 11.8284 10.1716 12.5 11 12.5C11.8284 12.5 12.5 11.8284 12.5 11C12.5 10.1716 11.8284 9.5 11 9.5C10.1716 9.5 9.5 10.1716 9.5 11Z" fill-rule="EVENODD"></path>
 </g>
</svg>