<svg viewBox="0 0 16 16" width="16" height="16" fill="currentColor" xmlns="http://www.w3.org/2000/svg">
 <g transform="translate(1.25, 1)">
  <path d="M3.75 5.90549C5.04392 5.57245 6 4.39788 6 3C6 1.34315 4.65685 0 3 0C1.34315 0 0 1.34315 0 3C0 4.39788 0.95608 5.57245 2.25 5.90549L2.25 13C2.25 13.4142 2.58579 13.75 3 13.75C3.41421 13.75 3.75 13.4142 3.75 13L3.75 5.90549ZM1.5 3C1.5 2.17157 2.17157 1.5 3 1.5C3.82843 1.5 4.5 2.17157 4.5 3C4.5 3.82843 3.82843 4.5 3 4.5C2.17157 4.5 1.5 3.82843 1.5 3Z" fill-rule="EVENODD"></path>
  <path d="M11.25 4.25L11.25 7.84451C12.5439 8.17754 13.5 9.35212 13.5 10.75C13.5 12.4069 12.1569 13.75 10.5 13.75C8.84315 13.75 7.5 12.4069 7.5 10.75C7.5 9.35212 8.45608 8.17754 9.75 7.84451L9.75 4.25C9.75 3.83579 9.41421 3.5 9 3.5L7.75 3.5C7.33579 3.5 7 3.16421 7 2.75C7 2.33579 7.33579 2 7.75 2L9 2C10.2426 2 11.25 3.00736 11.25 4.25ZM9 10.75C9 9.92157 9.67157 9.25 10.5 9.25C11.3284 9.25 12 9.92157 12 10.75C12 11.5784 11.3284 12.25 10.5 12.25C9.67157 12.25 9 11.5784 9 10.75Z" fill-rule="EVENODD"></path>
 </g>
</svg>