<svg viewBox="0 0 24 24" width="24" height="24" fill="currentColor" xmlns="http://www.w3.org/2000/svg">
 <g transform="translate(3.25, 3)">
  <path d="M4.25 6.91946C5.82259 6.57612 7 5.17556 7 3.5C7 1.567 5.433 0 3.5 0C1.567 0 0 1.567 0 3.5C0 5.17556 1.17741 6.57612 2.75 6.91946L2.75 17.75C2.75 18.1642 3.08579 18.5 3.5 18.5C3.91421 18.5 4.25 18.1642 4.25 17.75L4.25 6.91946ZM1.5 3.5C1.5 2.39543 2.39543 1.5 3.5 1.5C4.60457 1.5 5.5 2.39543 5.5 3.5C5.5 4.60457 4.60457 5.5 3.5 5.5C2.39543 5.5 1.5 4.60457 1.5 3.5Z" fill-rule="EVENODD"></path>
  <path d="M14.75 5.75L14.75 11.3305C16.3226 11.6739 17.5 13.0744 17.5 14.75C17.5 16.683 15.933 18.25 14 18.25C12.067 18.25 10.5 16.683 10.5 14.75C10.5 13.0744 11.6774 11.6739 13.25 11.3305L13.25 5.75C13.25 5.05964 12.6904 4.5 12 4.5L9.75 4.5C9.33579 4.5 9 4.16421 9 3.75C9 3.33579 9.33579 3 9.75 3L12 3C13.5188 3 14.75 4.23122 14.75 5.75ZM12 14.75C12 13.6454 12.8954 12.75 14 12.75C15.1046 12.75 16 13.6454 16 14.75C16 15.8546 15.1046 16.75 14 16.75C12.8954 16.75 12 15.8546 12 14.75Z" fill-rule="EVENODD"></path>
 </g>
</svg>