<svg viewBox="0 0 24 24" width="24" height="24" fill="currentColor" xmlns="http://www.w3.org/2000/svg">
 <g transform="translate(3, 7.75)">
  <path d="M12.9298 3.25C12.5787 1.39935 10.9528 0 9 0C7.04721 0 5.42125 1.39935 5.0702 3.25L0.75 3.25C0.335786 3.25 0 3.58579 0 4C0 4.41421 0.335786 4.75 0.75 4.75L5.0702 4.75C5.42125 6.60065 7.04721 8 9 8C10.9528 8 12.5787 6.60065 12.9298 4.75L17.25 4.75C17.6642 4.75 18 4.41421 18 4C18 3.58579 17.6642 3.25 17.25 3.25L12.9298 3.25ZM9 1.5C7.61929 1.5 6.5 2.61929 6.5 4C6.5 5.38071 7.61929 6.5 9 6.5C10.3807 6.5 11.5 5.38071 11.5 4C11.5 2.61929 10.3807 1.5 9 1.5Z" fill-rule="EVENODD"></path>
 </g>
</svg>