<svg viewBox="0 0 24 24" width="24" height="24" fill="currentColor" xmlns="http://www.w3.org/2000/svg">
 <g transform="translate(3, 3)">
  <path d="M14.5 12.5C13.3954 12.5 12.5 13.3954 12.5 14.5C12.5 15.6046 13.3954 16.5 14.5 16.5C15.6046 16.5 16.5 15.6046 16.5 14.5C16.5 13.3954 15.6046 12.5 14.5 12.5ZM11 14.5C11 12.567 12.567 11 14.5 11C16.433 11 18 12.567 18 14.5C18 16.433 16.433 18 14.5 18C12.567 18 11 16.433 11 14.5Z" fill-rule="EVENODD"></path>
  <path d="M3.5 1.5C2.39543 1.5 1.5 2.39543 1.5 3.5C1.5 4.60457 2.39543 5.5 3.5 5.5C4.60457 5.5 5.5 4.60457 5.5 3.5C5.5 2.39543 4.60457 1.5 3.5 1.5ZM0 3.5C0 1.567 1.567 0 3.5 0C5.433 0 7 1.567 7 3.5C7 5.433 5.433 7 3.5 7C1.567 7 0 5.433 0 3.5Z" fill-rule="EVENODD"></path>
  <path d="M12.5 4.25C13.1904 4.25 13.75 4.80964 13.75 5.5L13.75 11.25C13.75 11.6642 14.0858 12 14.5 12C14.9142 12 15.25 11.6642 15.25 11.25L15.25 5.5C15.25 3.98122 14.0188 2.75 12.5 2.75L10.25 2.75C9.83579 2.75 9.5 3.08579 9.5 3.5C9.5 3.91421 9.83579 4.25 10.25 4.25L12.5 4.25Z" fill-rule="EVENODD"></path>
  <path d="M3.5 5.5C3.91421 5.5 4.25 5.83579 4.25 6.25L4.25 17.75C4.25 18.1642 3.91421 18.5 3.5 18.5C3.08579 18.5 2.75 18.1642 2.75 17.75L2.75 6.25C2.75 5.83579 3.08579 5.5 3.5 5.5Z" fill-rule="EVENODD"></path>
 </g>
</svg>