<svg viewBox="0 0 24 24" width="24" height="24" fill="black" xmlns="http://www.w3.org/2000/svg">
 <g transform="translate(3, 2.5)">
  <path d="M3.5 0C3.91421 0 4.25 0.335786 4.25 0.75L4.25 12.25C4.25 12.6642 3.91421 13 3.5 13C3.08579 13 2.75 12.6642 2.75 12.25L2.75 0.75C2.75 0.335786 3.08579 0 3.5 0Z" fill-rule="EVENODD"></path>
  <path d="M14.5 2C13.3954 2 12.5 2.89543 12.5 4C12.5 5.10457 13.3954 6 14.5 6C15.6046 6 16.5 5.10457 16.5 4C16.5 2.89543 15.6046 2 14.5 2ZM11 4C11 2.067 12.567 0.5 14.5 0.5C16.433 0.5 18 2.067 18 4C18 5.933 16.433 7.5 14.5 7.5C12.567 7.5 11 5.933 11 4Z" fill-rule="EVENODD"></path>
  <path d="M3.5 13C2.39543 13 1.5 13.8954 1.5 15C1.5 16.1046 2.39543 17 3.5 17C4.60457 17 5.5 16.1046 5.5 15C5.5 13.8954 4.60457 13 3.5 13ZM0 15C0 13.067 1.567 11.5 3.5 11.5C5.433 11.5 7 13.067 7 15C7 16.933 5.433 18.5 3.5 18.5C1.567 18.5 0 16.933 0 15Z" fill-rule="EVENODD"></path>
  <path d="M14.5 6C14.9142 6 15.25 6.33579 15.25 6.75C15.25 9.37601 14.35 11.6371 12.7436 13.2436C11.1371 14.85 8.87601 15.75 6.25 15.75C5.83579 15.75 5.5 15.4142 5.5 15C5.5 14.5858 5.83579 14.25 6.25 14.25C8.52599 14.25 10.3899 13.476 11.6829 12.1829C12.976 10.8899 13.75 9.02599 13.75 6.75C13.75 6.33579 14.0858 6 14.5 6Z" fill-rule="EVENODD"></path>
 </g>
</svg>