<svg viewBox="0 0 24 24" width="24" height="24" fill="currentColor" xmlns="http://www.w3.org/2000/svg">
 <g transform="translate(1.9999998807907104, 8)">
  <path d="M13.9298 3.25C13.5787 1.39935 11.9528 0 10 0C8.04721 0 6.42125 1.39935 6.0702 3.25L0.75 3.25C0.335787 3.25 0 3.58579 0 4C0 4.41421 0.335786 4.75 0.75 4.75L6.0702 4.75C6.42125 6.60065 8.04721 8 10 8C11.9528 8 13.5787 6.60065 13.9298 4.75L19.25 4.75C19.6642 4.75 20 4.41421 20 4C20 3.58579 19.6642 3.25 19.25 3.25L13.9298 3.25ZM10 1.5C8.61929 1.5 7.5 2.61929 7.5 4C7.5 5.38071 8.61929 6.5 10 6.5C11.3807 6.5 12.5 5.38071 12.5 4C12.5 2.61929 11.3807 1.5 10 1.5Z" fill-rule="EVENODD"></path>
 </g>
</svg>