<svg viewBox="0 0 16 16" width="16" height="16" fill="currentColor" xmlns="http://www.w3.org/2000/svg">
 <g transform="translate(1.5, 5)">
  <path d="M9.40549 2.25C9.07246 0.956079 7.89788 0 6.5 0C5.10212 0 3.92755 0.956079 3.59451 2.25L0.75 2.25C0.335786 2.25 0 2.58579 0 3C0 3.41421 0.335786 3.75 0.75 3.75L3.59451 3.75C3.92754 5.04392 5.10212 6 6.5 6C7.89788 6 9.07246 5.04392 9.40549 3.75L12.25 3.75C12.6642 3.75 13 3.41421 13 3C13 2.58579 12.6642 2.25 12.25 2.25L9.40549 2.25ZM6.5 1.5C5.67157 1.5 5 2.17157 5 3C5 3.82843 5.67157 4.5 6.5 4.5C7.32843 4.5 8 3.82843 8 3C8 2.17157 7.32843 1.5 6.5 1.5Z" fill-rule="EVENODD"></path>
 </g>
</svg>