<svg viewBox="0 0 24 24" width="24" height="24" fill="black" xmlns="http://www.w3.org/2000/svg">
 <g transform="translate(1.9999998807907104, 8)">
  <path d="M10 1.5C8.61929 1.5 7.5 2.61929 7.5 4C7.5 5.38071 8.61929 6.5 10 6.5C11.3807 6.5 12.5 5.38071 12.5 4C12.5 2.61929 11.3807 1.5 10 1.5ZM6 4C6 1.79086 7.79086 0 10 0C12.2091 0 14 1.79086 14 4C14 6.20914 12.2091 8 10 8C7.79086 8 6 6.20914 6 4Z" fill-rule="EVENODD"></path>
  <path d="M0 4C3.62117e-08 3.58579 0.335786 3.25 0.75 3.25L6.75 3.25C7.16421 3.25 7.5 3.58579 7.5 4C7.5 4.41421 7.16421 4.75 6.75 4.75L0.75 4.75C0.335786 4.75 -3.62117e-08 4.41421 0 4Z" fill-rule="EVENODD"></path>
  <path d="M12.5 4C12.5 3.58579 12.8358 3.25 13.25 3.25L19.25 3.25C19.6642 3.25 20 3.58579 20 4C20 4.41421 19.6642 4.75 19.25 4.75L13.25 4.75C12.8358 4.75 12.5 4.41421 12.5 4Z" fill-rule="EVENODD"></path>
 </g>
</svg>