<svg viewBox="0 0 24 24" width="24" height="24" fill="currentColor" xmlns="http://www.w3.org/2000/svg">
 <g transform="translate(3, 1)">
  <path d="M2.75 0C1.23122 0 0 1.23122 0 2.75L0 17.25C0 18.7688 1.23122 20 2.75 20L3 20C3.41421 20 3.75 19.6642 3.75 19.25C3.75 18.8358 3.41421 18.5 3 18.5L2.75 18.5C2.05964 18.5 1.5 17.9404 1.5 17.25L1.5 16.2504C1.5 15.5599 2.05986 15 2.75 15L16.5 15L16.5 18.25C16.5 18.3881 16.3881 18.5 16.25 18.5L13 18.5C12.5858 18.5 12.25 18.8358 12.25 19.25C12.25 19.6642 12.5858 20 13 20L16.25 20C17.2165 20 18 19.2165 18 18.25L18 1.75C18 0.783502 17.2165 0 16.25 0L2.75 0ZM16.5 13.5L16.5 1.75C16.5 1.61193 16.3881 1.5 16.25 1.5L2.75 1.5C2.05964 1.5 1.5 2.05964 1.5 2.75L1.5 13.7999C1.87502 13.6082 2.29986 13.5 2.75 13.5L16.5 13.5Z" fill-rule="EVENODD"></path>
  <path d="M5.75 17C5.33579 17 5 17.3358 5 17.75L5 21.25C5 21.5185 5.14358 21.7666 5.37645 21.9004C5.60932 22.0341 5.89594 22.0331 6.1279 21.8978L8 20.8058L9.8721 21.8978C10.1041 22.0331 10.3907 22.0341 10.6235 21.9004C10.8564 21.7666 11 21.5185 11 21.25L11 17.75C11 17.3358 10.6642 17 10.25 17L5.75 17Z" fill-rule="NONZERO"></path>
 </g>
</svg>