<svg viewBox="0 0 24 24" width="24" height="24" fill="currentColor" xmlns="http://www.w3.org/2000/svg">
 <g transform="translate(1, 1)">
  <path d="M7.8042 10C8.06148 7.03877 9.17475 4.22331 11 1.91572C12.3405 3.61044 13.2971 5.57917 13.8125 7.67881C13.9113 8.08108 14.3174 8.32713 14.7197 8.22837C15.122 8.12962 15.368 7.72346 15.2693 7.32119C14.769 5.2833 13.8897 3.35543 12.6733 1.6469C16.3609 2.30225 19.3139 5.08532 20.2155 8.68234C20.3162 9.08412 20.7235 9.3282 21.1253 9.2275C21.5271 9.1268 21.7712 8.71945 21.6705 8.31766C20.4728 3.53939 16.1507 0 11 0C4.92487 0 0 4.92487 0 11C0 16.2427 3.66693 20.6271 8.57522 21.7317C8.97932 21.8226 9.38064 21.5688 9.47158 21.1647C9.56252 20.7606 9.30865 20.3592 8.90455 20.2683C4.82288 19.3497 1.7361 15.8029 1.51293 11.5L6.267 11.5C6.39516 14.1062 7.12687 16.6292 8.38438 18.8674C8.58727 19.2285 9.04449 19.3568 9.40561 19.1539C9.76673 18.951 9.895 18.4937 9.6921 18.1326C8.56029 16.1182 7.89578 13.8479 7.76899 11.5L11.5 11.5C11.9142 11.5 12.25 11.1642 12.25 10.75C12.25 10.3358 11.9142 10 11.5 10L7.8042 10ZM6.29905 10L1.552 10C1.99359 5.77886 5.19937 2.38029 9.32676 1.64688C7.58789 4.0891 6.53793 6.97967 6.29905 10Z" fill-rule="EVENODD"></path>
  <path d="M17 18C17.4142 18 17.75 18.3358 17.75 18.75L17.75 19.25C17.75 19.6642 17.4142 20 17 20C16.5858 20 16.25 19.6642 16.25 19.25L16.25 18.75C16.25 18.3358 16.5858 18 17 18Z" fill-rule="NONZERO"></path>
  <path d="M13 14.0137C11.875 14.1381 11 15.0919 11 16.25L11 20.75C11 21.9926 12.0074 23 13.25 23L20.75 23C21.9926 23 23 21.9926 23 20.75L23 16.25C23 15.0919 22.125 14.1381 21 14.0137L21 13.0833C21 12.0064 20.5831 10.9699 19.8351 10.2027C19.0865 9.43494 18.0671 9 17 9C15.9329 9 14.9135 9.43494 14.1649 10.2027C13.4169 10.9699 13 12.0064 13 13.0833L13 14.0137ZM14.5 14L14.5 13.0833C14.5 12.3921 14.7679 11.733 15.2389 11.2499C15.7093 10.7674 16.3432 10.5 17 10.5C17.6568 10.5 18.2907 10.7674 18.7611 11.2499C19.2321 11.733 19.5 12.3921 19.5 13.0833L19.5 14L14.5 14ZM13.25 15.5C12.8358 15.5 12.5 15.8358 12.5 16.25L12.5 20.75C12.5 21.1642 12.8358 21.5 13.25 21.5L20.75 21.5C21.1642 21.5 21.5 21.1642 21.5 20.75L21.5 16.25C21.5 15.8358 21.1642 15.5 20.75 15.5L13.25 15.5Z" fill-rule="EVENODD"></path>
 </g>
</svg>