<svg viewBox="0 0 24 24" width="24" height="24" fill="currentColor" xmlns="http://www.w3.org/2000/svg">
 <g transform="translate(1, 1)">
  <path d="M11 0C4.92487 0 0 4.92487 0 11C0 17.0751 4.92487 22 11 22C17.0751 22 22 17.0751 22 11C22 4.92487 17.0751 0 11 0ZM9.32676 1.64688C5.19937 2.38029 1.99359 5.77886 1.552 10L6.29905 10C6.53793 6.97967 7.58789 4.0891 9.32676 1.64688ZM12.6732 1.64688C14.4121 4.0891 15.4621 6.97967 15.7009 10L20.448 10C20.0064 5.77886 16.8006 2.38029 12.6732 1.64688ZM14.1958 10C13.9385 7.03877 12.8253 4.22331 11 1.91572C9.17475 4.22331 8.06148 7.03877 7.8042 10L14.1958 10ZM7.76899 11.5L14.231 11.5C14.0613 14.6435 12.9277 17.6472 11 20.0843C9.07228 17.6472 7.93874 14.6435 7.76899 11.5ZM6.267 11.5L1.51293 11.5C1.74371 15.9506 5.0376 19.591 9.32676 20.3531C7.49215 17.7764 6.4244 14.7007 6.267 11.5ZM12.6732 20.3531C14.5078 17.7764 15.5756 14.7007 15.733 11.5L20.4871 11.5C20.2563 15.9506 16.9624 19.591 12.6732 20.3531Z" fill-rule="EVENODD"></path>
 </g>
</svg>