<svg viewBox="0 0 16 16" width="16" height="16" fill="black" xmlns="http://www.w3.org/2000/svg">
 <g transform="translate(0, 0)">
  <path d="M1.57645 7L4.06861 7C4.28628 5.12647 4.99696 3.33655 6.12809 1.77359C3.76051 2.48438 1.96114 4.50867 1.57645 7ZM7.99999 1.83562C6.66712 3.3347 5.83478 5.12363 5.58044 7L7 7C7.41421 7 7.75 7.33579 7.75 7.75C7.75 8.16421 7.41421 8.5 7 8.5L5.52654 8.5C5.5625 8.94908 5.63144 9.39389 5.73221 9.83181C5.8251 10.2355 5.57317 10.638 5.1695 10.7309C4.76584 10.8238 4.3633 10.5719 4.27041 10.1682C4.14442 9.62066 4.06115 9.06328 4.02241 8.5L1.51894 8.5C1.70264 10.9148 3.20581 12.962 5.31186 13.92C5.68889 14.0916 5.85551 14.5362 5.684 14.9133C5.51249 15.2903 5.06781 15.4569 4.69077 15.2854C1.92527 14.0274 0 11.2394 0 8C0 3.58172 3.58172 0 8 0C12.4183 0 16 3.58172 16 8C16 8.41421 15.6642 8.75 15.25 8.75C14.8358 8.75 14.5 8.41421 14.5 8C14.5 5.06091 12.5493 2.57742 9.87198 1.77361C10.4106 2.51781 10.854 3.31368 11.1942 4.14602C11.351 4.52944 11.1672 4.96732 10.7838 5.12406C10.4004 5.2808 9.96251 5.09704 9.80577 4.71363C9.38452 3.6832 8.77753 2.71017 7.99999 1.83562Z" fill-rule="EVENODD"></path>
  <path d="M11 11.5C11.4142 11.5 11.75 11.8358 11.75 12.25L11.75 12.75C11.75 13.1642 11.4142 13.5 11 13.5C10.5858 13.5 10.25 13.1642 10.25 12.75L10.25 12.25C10.25 11.8358 10.5858 11.5 11 11.5Z" fill-rule="EVENODD"></path>
  <path d="M6.5 11.25C6.5 10.0074 7.50736 9 8.75 9L13.25 9C14.4926 9 15.5 10.0074 15.5 11.25L15.5 13.75C15.5 14.9926 14.4926 16 13.25 16L8.75 16C7.50736 16 6.5 14.9926 6.5 13.75L6.5 11.25ZM8.75 10.5C8.33579 10.5 8 10.8358 8 11.25L8 13.75C8 14.1642 8.33579 14.5 8.75 14.5L13.25 14.5C13.6642 14.5 14 14.1642 14 13.75L14 11.25C14 10.8358 13.6642 10.5 13.25 10.5L8.75 10.5Z" fill-rule="EVENODD"></path>
  <path d="M10.2411 7.9131C10.0699 8.27703 10 8.87246 10 9.75C10 10.1642 9.66421 10.5 9.25 10.5C8.83579 10.5 8.5 10.1642 8.5 9.75C8.5 8.87754 8.55515 7.97297 8.88389 7.2744C9.05815 6.90408 9.31856 6.56955 9.70008 6.33428C10.079 6.10063 10.5203 6 11 6C11.4797 6 11.921 6.10063 12.2999 6.33428C12.6814 6.56955 12.9418 6.90408 13.1161 7.2744C13.4449 7.97297 13.5 8.87754 13.5 9.75C13.5 10.1642 13.1642 10.5 12.75 10.5C12.3358 10.5 12 10.1642 12 9.75C12 8.87246 11.9301 8.27703 11.7589 7.9131C11.6832 7.75217 11.5998 7.66482 11.5126 7.61103C11.4227 7.55562 11.2703 7.5 11 7.5C10.7297 7.5 10.5773 7.55562 10.4874 7.61103C10.4002 7.66482 10.3168 7.75217 10.2411 7.9131Z" fill-rule="EVENODD"></path>
 </g>
</svg>