<svg viewBox="0 0 24 24" width="24" height="24" fill="black" xmlns="http://www.w3.org/2000/svg">
 <g transform="translate(2.25, 2.25)">
  <path d="M0.75 0C0.335786 0 0 0.335786 0 0.75L0 7.75C0 8.16421 0.335786 8.5 0.75 8.5L7.75 8.5C8.16421 8.5 8.5 8.16421 8.5 7.75L8.5 0.75C8.5 0.335786 8.16421 0 7.75 0L0.75 0ZM1.5 7L1.5 1.5L7 1.5L7 7L1.5 7Z" fill-rule="EVENODD"></path>
  <path d="M11.75 0C11.3358 0 11 0.335786 11 0.75L11 7.75C11 8.16421 11.3358 8.5 11.75 8.5L18.75 8.5C19.1642 8.5 19.5 8.16421 19.5 7.75L19.5 0.75C19.5 0.335786 19.1642 0 18.75 0L11.75 0ZM12.5 7L12.5 1.5L18 1.5L18 7L12.5 7Z" fill-rule="EVENODD"></path>
  <path d="M11 11.75C11 11.3358 11.3358 11 11.75 11L18.75 11C19.1642 11 19.5 11.3358 19.5 11.75L19.5 18.75C19.5 19.1642 19.1642 19.5 18.75 19.5L11.75 19.5C11.3358 19.5 11 19.1642 11 18.75L11 11.75ZM12.5 12.5L12.5 18L18 18L18 12.5L12.5 12.5Z" fill-rule="EVENODD"></path>
  <path d="M0.75 11C0.335786 11 0 11.3358 0 11.75L0 18.75C0 19.1642 0.335786 19.5 0.75 19.5L7.75 19.5C8.16421 19.5 8.5 19.1642 8.5 18.75L8.5 11.75C8.5 11.3358 8.16421 11 7.75 11L0.75 11ZM1.5 18L1.5 12.5L7 12.5L7 18L1.5 18Z" fill-rule="EVENODD"></path>
 </g>
</svg>