<svg viewBox="0 0 16 16" width="16" height="16" fill="currentColor" xmlns="http://www.w3.org/2000/svg">
 <g transform="translate(1, 1)">
  <path d="M0 1.25C0 0.559644 0.559644 0 1.25 0L4.75 0C5.44036 0 6 0.559644 6 1.25L6 4.75C6 5.44036 5.44036 6 4.75 6L1.25 6C0.559644 6 0 5.44036 0 4.75L0 1.25ZM1.5 1.5L1.5 4.5L4.5 4.5L4.5 1.5L1.5 1.5Z" fill-rule="EVENODD"></path>
  <path d="M8 1.25C8 0.559644 8.55964 0 9.25 0L12.75 0C13.4404 0 14 0.559644 14 1.25L14 4.75C14 5.44036 13.4404 6 12.75 6L9.25 6C8.55964 6 8 5.44036 8 4.75L8 1.25ZM9.5 1.5L9.5 4.5L12.5 4.5L12.5 1.5L9.5 1.5Z" fill-rule="EVENODD"></path>
  <path d="M8 9.25C8 8.55964 8.55964 8 9.25 8L12.75 8C13.4404 8 14 8.55964 14 9.25L14 12.75C14 13.4404 13.4404 14 12.75 14L9.25 14C8.55964 14 8 13.4404 8 12.75L8 9.25ZM9.5 9.5L9.5 12.5L12.5 12.5L12.5 9.5L9.5 9.5Z" fill-rule="EVENODD"></path>
  <path d="M0 9.25C0 8.55964 0.559644 8 1.25 8L4.75 8C5.44036 8 6 8.55964 6 9.25L6 12.75C6 13.4404 5.44036 14 4.75 14L1.25 14C0.559644 14 0 13.4404 0 12.75L0 9.25ZM1.5 9.5L1.5 12.5L4.5 12.5L4.5 9.5L1.5 9.5Z" fill-rule="EVENODD"></path>
 </g>
</svg>