<svg viewBox="0 0 24 24" width="24" height="24" fill="black" xmlns="http://www.w3.org/2000/svg">
 <g transform="translate(1.25, 1.25)">
  <path d="M0 1.25C0 0.559644 0.559644 0 1.25 0L4.25 0C4.94036 0 5.5 0.559644 5.5 1.25L5.5 4.25C5.5 4.94036 4.94036 5.5 4.25 5.5L1.25 5.5C0.559644 5.5 0 4.94036 0 4.25L0 1.25ZM1.5 1.5L1.5 4L4 4L4 1.5L1.5 1.5Z" fill-rule="EVENODD"></path>
  <path d="M8 1.25C8 0.559644 8.55964 0 9.25 0L12.25 0C12.9404 0 13.5 0.559644 13.5 1.25L13.5 4.25C13.5 4.94036 12.9404 5.5 12.25 5.5L9.25 5.5C8.55964 5.5 8 4.94036 8 4.25L8 1.25ZM9.5 1.5L9.5 4L12 4L12 1.5L9.5 1.5Z" fill-rule="EVENODD"></path>
  <path d="M17.25 0C16.5596 0 16 0.559644 16 1.25L16 4.25C16 4.94036 16.5596 5.5 17.25 5.5L20.25 5.5C20.9404 5.5 21.5 4.94036 21.5 4.25L21.5 1.25C21.5 0.559644 20.9404 0 20.25 0L17.25 0ZM17.5 4L17.5 1.5L20 1.5L20 4L17.5 4Z" fill-rule="EVENODD"></path>
  <path d="M0 9.25C0 8.55964 0.559644 8 1.25 8L4.25 8C4.94036 8 5.5 8.55964 5.5 9.25L5.5 12.25C5.5 12.9404 4.94036 13.5 4.25 13.5L1.25 13.5C0.559644 13.5 0 12.9404 0 12.25L0 9.25ZM1.5 9.5L1.5 12L4 12L4 9.5L1.5 9.5Z" fill-rule="EVENODD"></path>
  <path d="M9.25 8C8.55964 8 8 8.55964 8 9.25L8 12.25C8 12.9404 8.55964 13.5 9.25 13.5L12.25 13.5C12.9404 13.5 13.5 12.9404 13.5 12.25L13.5 9.25C13.5 8.55964 12.9404 8 12.25 8L9.25 8ZM9.5 12L9.5 9.5L12 9.5L12 12L9.5 12Z" fill-rule="EVENODD"></path>
  <path d="M16 9.25C16 8.55964 16.5596 8 17.25 8L20.25 8C20.9404 8 21.5 8.55964 21.5 9.25L21.5 12.25C21.5 12.9404 20.9404 13.5 20.25 13.5L17.25 13.5C16.5596 13.5 16 12.9404 16 12.25L16 9.25ZM17.5 9.5L17.5 12L20 12L20 9.5L17.5 9.5Z" fill-rule="EVENODD"></path>
  <path d="M1.25 16C0.559644 16 0 16.5596 0 17.25L0 20.25C0 20.9404 0.559644 21.5 1.25 21.5L4.25 21.5C4.94036 21.5 5.5 20.9404 5.5 20.25L5.5 17.25C5.5 16.5596 4.94036 16 4.25 16L1.25 16ZM1.5 20L1.5 17.5L4 17.5L4 20L1.5 20Z" fill-rule="EVENODD"></path>
  <path d="M8 17.25C8 16.5596 8.55964 16 9.25 16L12.25 16C12.9404 16 13.5 16.5596 13.5 17.25L13.5 20.25C13.5 20.9404 12.9404 21.5 12.25 21.5L9.25 21.5C8.55964 21.5 8 20.9404 8 20.25L8 17.25ZM9.5 17.5L9.5 20L12 20L12 17.5L9.5 17.5Z" fill-rule="EVENODD"></path>
  <path d="M17.25 16C16.5596 16 16 16.5596 16 17.25L16 20.25C16 20.9404 16.5596 21.5 17.25 21.5L20.25 21.5C20.9404 21.5 21.5 20.9404 21.5 20.25L21.5 17.25C21.5 16.5596 20.9404 16 20.25 16L17.25 16ZM17.5 20L17.5 17.5L20 17.5L20 20L17.5 20Z" fill-rule="EVENODD"></path>
 </g>
</svg>