<svg viewBox="0 0 24 24" width="24" height="24" fill="black" xmlns="http://www.w3.org/2000/svg">
 <g transform="translate(2, 2)">
  <path d="M0 1.75C0 0.783502 0.783502 0 1.75 0L7.25 0C8.2165 0 9 0.783502 9 1.75L9 7.25C9 8.2165 8.2165 9 7.25 9L1.75 9C0.783502 9 0 8.2165 0 7.25L0 1.75ZM1.75 1.5C1.61193 1.5 1.5 1.61193 1.5 1.75L1.5 7.25C1.5 7.38807 1.61193 7.5 1.75 7.5L7.25 7.5C7.38807 7.5 7.5 7.38807 7.5 7.25L7.5 1.75C7.5 1.61193 7.38807 1.5 7.25 1.5L1.75 1.5Z" fill-rule="EVENODD"></path>
  <path d="M11 1.75C11 0.783502 11.7835 0 12.75 0L18.25 0C19.2165 0 20 0.783502 20 1.75L20 7.25C20 8.2165 19.2165 9 18.25 9L12.75 9C11.7835 9 11 8.2165 11 7.25L11 1.75ZM12.75 1.5C12.6119 1.5 12.5 1.61193 12.5 1.75L12.5 7.25C12.5 7.38807 12.6119 7.5 12.75 7.5L18.25 7.5C18.3881 7.5 18.5 7.38807 18.5 7.25L18.5 1.75C18.5 1.61193 18.3881 1.5 18.25 1.5L12.75 1.5Z" fill-rule="EVENODD"></path>
  <path d="M11 12.75C11 11.7835 11.7835 11 12.75 11L18.25 11C19.2165 11 20 11.7835 20 12.75L20 18.25C20 19.2165 19.2165 20 18.25 20L12.75 20C11.7835 20 11 19.2165 11 18.25L11 12.75ZM12.75 12.5C12.6119 12.5 12.5 12.6119 12.5 12.75L12.5 18.25C12.5 18.3881 12.6119 18.5 12.75 18.5L18.25 18.5C18.3881 18.5 18.5 18.3881 18.5 18.25L18.5 12.75C18.5 12.6119 18.3881 12.5 18.25 12.5L12.75 12.5Z" fill-rule="EVENODD"></path>
  <path d="M0 12.75C0 11.7835 0.783502 11 1.75 11L7.25 11C8.2165 11 9 11.7835 9 12.75L9 18.25C9 19.2165 8.2165 20 7.25 20L1.75 20C0.783502 20 0 19.2165 0 18.25L0 12.75ZM1.75 12.5C1.61193 12.5 1.5 12.6119 1.5 12.75L1.5 18.25C1.5 18.3881 1.61193 18.5 1.75 18.5L7.25 18.5C7.38807 18.5 7.5 18.3881 7.5 18.25L7.5 12.75C7.5 12.6119 7.38807 12.5 7.25 12.5L1.75 12.5Z" fill-rule="EVENODD"></path>
 </g>
</svg>