<svg viewBox="0 0 16 16" width="16" height="16" fill="currentColor" xmlns="http://www.w3.org/2000/svg">
 <g transform="translate(0, 1)">
  <path d="M12.75 0C12.3358 0 12 0.335786 12 0.75C12 1.16421 12.3358 1.5 12.75 1.5L13.4393 1.5L11.4697 3.46967C11.1768 3.76256 11.1768 4.23744 11.4697 4.53033C11.7626 4.82322 12.2374 4.82322 12.5303 4.53033L14.5 2.56066L14.5 3.25C14.5 3.66421 14.8358 4 15.25 4C15.6642 4 16 3.66421 16 3.25L16 0.75C16 0.551088 15.921 0.360322 15.7803 0.21967C15.6397 0.0790176 15.4489 0 15.25 0L12.75 0Z" fill-rule="NONZERO"></path>
  <path d="M1.25 1C0.559644 1 0 1.55964 0 2.25L0 10.75C0 11.4404 0.559644 12 1.25 12L5 12C5.89557 12 6.4747 12.2049 6.80871 12.4479C7.12555 12.6785 7.25 12.9583 7.25 13.25C7.25 13.3211 7.2599 13.39 7.2784 13.4552C7.36764 13.7696 7.65692 14 8 14C8.36244 14 8.66483 13.7429 8.73476 13.4012C8.74475 13.3523 8.75 13.3018 8.75 13.25C8.75 12.9583 8.87445 12.6785 9.19129 12.4479C9.5253 12.2049 10.1044 12 11 12L14.75 12C15.4404 12 16 11.4403 16 10.75L16 6.24995C16 5.83574 15.6642 5.49995 15.25 5.49995C14.8358 5.49995 14.5 5.83574 14.5 6.24995L14.5 10.5L11 10.5C10.1221 10.5 9.36012 10.6582 8.75 10.9666L8.75 4.41667C8.75 3.62945 9.126 2.99631 9.87071 2.6953C10.2547 2.54008 10.4402 2.10293 10.285 1.7189C10.1298 1.33487 9.69263 1.14938 9.3086 1.30461C8.76408 1.5247 8.32797 1.85041 7.9998 2.24602C7.92914 2.16102 7.85331 2.07903 7.77225 2.00038C7.10568 1.35366 6.15444 1 5 1L1.25 1ZM7.25 4.41667C7.25 3.8644 7.06266 3.40189 6.72774 3.07695C6.39432 2.75345 5.84556 2.5 5 2.5L1.5 2.5L1.5 10.5L5 10.5C5.87793 10.5 6.63988 10.6583 7.25 10.9666L7.25 4.41667Z" fill-rule="EVENODD"></path>
 </g>
</svg>