<svg viewBox="0 0 16 16" width="16" height="16" fill="currentColor" xmlns="http://www.w3.org/2000/svg">
 <g transform="translate(0, 1)">
  <path d="M0.25 7.75C0.25 7.33579 0.585786 7 1 7L15 7C15.4142 7 15.75 7.33579 15.75 7.75C15.75 8.16421 15.4142 8.5 15 8.5L1 8.5C0.585786 8.5 0.25 8.16421 0.25 7.75Z" fill-rule="EVENODD"></path>
  <path d="M3 10.25C3 9.83579 3.33579 9.5 3.75 9.5L4.25 9.5C4.66421 9.5 5 9.83579 5 10.25C5 10.6642 4.66421 11 4.25 11L3.75 11C3.33579 11 3 10.6642 3 10.25Z" fill-rule="EVENODD"></path>
  <path d="M4.74776 1.5C4.44709 1.5 4.17548 1.67956 4.0577 1.9562L1.55994 7.82283C1.52039 7.91573 1.5 8.01566 1.5 8.11663L1.5 11.75C1.5 12.1642 1.83579 12.5 2.25 12.5L13.75 12.5C14.1642 12.5 14.5 12.1642 14.5 11.75L14.5 8.11663C14.5 8.01566 14.4796 7.91573 14.4401 7.82283L11.9423 1.9562C11.8245 1.67956 11.5529 1.5 11.2522 1.5L4.74776 1.5ZM2.67758 1.36861C3.03092 0.538686 3.84575 0 4.74776 0L11.2522 0C12.1543 0 12.9691 0.538686 13.3224 1.36861L15.8202 7.23524C15.9388 7.51394 16 7.81373 16 8.11663L16 11.75C16 12.9926 14.9926 14 13.75 14L2.25 14C1.00736 14 0 12.9926 0 11.75L0 8.11663C0 7.81373 0.0611619 7.51394 0.179819 7.23524L2.67758 1.36861Z" fill-rule="EVENODD"></path>
 </g>
</svg>