<svg viewBox="0 0 24 24" width="24" height="24" fill="currentColor" xmlns="http://www.w3.org/2000/svg">
 <g transform="translate(1, 3)">
  <path d="M3 12.75C3 12.3358 3.33579 12 3.75 12L4.25 12C4.66421 12 5 12.3358 5 12.75C5 13.1642 4.66421 13.5 4.25 13.5L3.75 13.5C3.33579 13.5 3 13.1642 3 12.75Z" fill-rule="NONZERO"></path>
  <path d="M6.20221 0C5.185 0 4.25087 0.561508 3.77364 1.45982L0.321432 7.9581C0.11037 8.35539 0 8.7984 0 9.24828L0 15.25C0 16.7688 1.23122 18 2.75 18L19.25 18C20.7688 18 22 16.7688 22 15.25L22 9.24828C22 8.7984 21.8896 8.35539 21.6786 7.9581L18.2264 1.45982C17.7491 0.561509 16.815 0 15.7978 0L6.20221 0ZM5.09831 2.16356C5.31524 1.75523 5.73984 1.5 6.20221 1.5L15.7978 1.5C16.2602 1.5 16.6848 1.75523 16.9017 2.16356L20.2679 8.5L1.73208 8.5L5.09831 2.16356ZM1.5 10L1.5 15.25C1.5 15.9404 2.05964 16.5 2.75 16.5L19.25 16.5C19.9404 16.5 20.5 15.9404 20.5 15.25L20.5 10L1.5 10Z" fill-rule="EVENODD"></path>
 </g>
</svg>