<svg viewBox="0 0 16 16" width="16" height="16" fill="currentColor" xmlns="http://www.w3.org/2000/svg">
 <g transform="translate(2.5, 1.749755859375)">
  <path d="M4.38405 0.0122276C4.79158 0.0863243 5.06188 0.476762 4.98779 0.884294L4.55762 3.25024L7.53302 3.25024L8.01198 0.615966C8.08608 0.208434 8.47652 -0.0618692 8.88405 0.0122276C9.29158 0.0863243 9.56188 0.476762 9.48779 0.884294L9.05762 3.25024L10.25 3.25024C10.6642 3.25024 11 3.58603 11 4.00024C11 4.41446 10.6642 4.75024 10.25 4.75024L8.78489 4.75024L8.23943 7.75024L10.25 7.75024C10.6642 7.75024 11 8.08603 11 8.50024C11 8.91446 10.6642 9.25024 10.25 9.25024L7.96671 9.25024L7.48779 11.8843C7.41369 12.2918 7.02325 12.5621 6.61572 12.488C6.20819 12.4139 5.93789 12.0235 6.01198 11.616L6.44211 9.25024L3.46671 9.25024L2.98779 11.8843C2.91369 12.2918 2.52325 12.5621 2.11572 12.488C1.70819 12.4139 1.43789 12.0235 1.51198 11.616L1.94211 9.25024L0.75 9.25024C0.335786 9.25024 0 8.91446 0 8.50024C0 8.08603 0.335786 7.75024 0.75 7.75024L2.21484 7.75024L2.7603 4.75024L0.75 4.75024C0.335786 4.75024 0 4.41446 0 4.00024C0 3.58603 0.335786 3.25024 0.75 3.25024L3.03302 3.25024L3.51198 0.615966C3.58608 0.208434 3.97652 -0.0618692 4.38405 0.0122276ZM6.71484 7.75024L7.2603 4.75024L4.28489 4.75024L3.73943 7.75024L6.71484 7.75024Z" fill-rule="EVENODD"></path>
 </g>
</svg>