<svg viewBox="0 0 16 16" width="16" height="16" fill="black" xmlns="http://www.w3.org/2000/svg">
 <g transform="translate(1, 1)">
  <path d="M7 1.5C5.53165 1.5 4.1293 2.06025 3.09998 3.0484C2.0717 4.03555 1.5 5.36772 1.5 6.75L1.5 10.75C1.5 11.1642 1.16421 11.5 0.75 11.5C0.335786 11.5 0 11.1642 0 10.75L0 6.75C0 4.94968 0.745257 3.22961 2.06118 1.96632C3.37607 0.704029 5.15314 0 7 0C8.84686 0 10.6239 0.704029 11.9388 1.96632C13.2547 3.22961 14 4.94968 14 6.75L14 10.75C14 11.1642 13.6642 11.5 13.25 11.5C12.8358 11.5 12.5 11.1642 12.5 10.75L12.5 6.75C12.5 5.36772 11.9283 4.03555 10.9 3.0484C9.8707 2.06025 8.46834 1.5 7 1.5Z" fill-rule="EVENODD"></path>
  <path d="M0 7L2.75 7C3.99264 7 5 8.00736 5 9.25L5 11.75C5 12.9926 3.99264 14 2.75 14L2.25 14C1.00736 14 0 12.9926 0 11.75L0 7ZM1.5 8.5L1.5 11.75C1.5 12.1642 1.83579 12.5 2.25 12.5L2.75 12.5C3.16421 12.5 3.5 12.1642 3.5 11.75L3.5 9.25C3.5 8.83579 3.16421 8.5 2.75 8.5L1.5 8.5Z" fill-rule="EVENODD"></path>
  <path d="M14 7L11.25 7C10.0074 7 9 8.00736 9 9.25L9 11.75C9 12.9926 10.0074 14 11.25 14L11.75 14C12.9926 14 14 12.9926 14 11.75L14 7ZM12.5 8.5L12.5 11.75C12.5 12.1642 12.1642 12.5 11.75 12.5L11.25 12.5C10.8358 12.5 10.5 12.1642 10.5 11.75L10.5 9.25C10.5 8.83579 10.8358 8.5 11.25 8.5L12.5 8.5Z" fill-rule="EVENODD"></path>
 </g>
</svg>