<svg viewBox="0 0 24 24" width="24" height="24" fill="currentColor" xmlns="http://www.w3.org/2000/svg">
 <g transform="translate(2, 2)">
  <path d="M10 1.5C7.73913 1.5 5.57486 2.37405 3.98228 3.92358C2.3904 5.47244 1.5 7.5687 1.5 9.75L1.5 11L4.25 11C5.76878 11 7 12.2312 7 13.75L7 17.25C7 18.7688 5.76878 20 4.25 20L2.75 20C1.23122 20 0 18.7688 0 17.25L0 9.75C0 7.15741 1.0587 4.67529 2.93625 2.84849C4.81309 1.02238 7.35436 0 10 0C12.6456 0 15.1869 1.02238 17.0638 2.84849C18.9413 4.67529 20 7.15741 20 9.75L20 17.25C20 18.7688 18.7688 20 17.25 20L15.75 20C14.2312 20 13 18.7688 13 17.25L13 13.75C13 12.2312 14.2312 11 15.75 11L18.5 11L18.5 9.75C18.5 7.5687 17.6096 5.47244 16.0177 3.92358C14.4251 2.37405 12.2609 1.5 10 1.5ZM18.5 12.5L15.75 12.5C15.0596 12.5 14.5 13.0596 14.5 13.75L14.5 17.25C14.5 17.9404 15.0596 18.5 15.75 18.5L17.25 18.5C17.9404 18.5 18.5 17.9404 18.5 17.25L18.5 12.5ZM1.5 12.5L4.25 12.5C4.94036 12.5 5.5 13.0596 5.5 13.75L5.5 17.25C5.5 17.9404 4.94036 18.5 4.25 18.5L2.75 18.5C2.05964 18.5 1.5 17.9404 1.5 17.25L1.5 12.5Z" fill-rule="EVENODD"></path>
 </g>
</svg>