<svg viewBox="0 0 24 24" width="24" height="24" fill="currentColor" xmlns="http://www.w3.org/2000/svg">
 <g transform="translate(1, 3)">
  <path d="M15.8543 0C15.0494 0 14.2521 0.155186 13.5077 0.457073C12.7633 0.758948 12.0858 1.20193 11.5146 1.76125L10.9997 2.26514L10.4848 1.76113C9.33115 0.632035 7.76987 0.000513315 6.1452 0.000513315C4.52053 0.000513315 2.95924 0.632035 1.80562 1.76113C0.651444 2.89076 0 4.42634 0 6.03098C0 7.63563 0.651443 9.17121 1.80562 10.3008L10.4751 18.786C10.7667 19.0713 11.2328 19.0713 11.5243 18.786L20.1939 10.3008C20.7654 9.74172 21.2196 9.077 21.5298 8.34422C21.8401 7.61135 22 6.82526 22 6.03098C22 5.23671 21.8401 4.45061 21.5298 3.71774C21.2196 2.98502 20.7654 2.32035 20.194 1.76125C19.6227 1.20187 18.9453 0.75897 18.2009 0.457073C17.4565 0.155186 16.6591 0 15.8543 0Z" fill-rule="NONZERO"></path>
 </g>
</svg>