<svg viewBox="0 0 24 24" width="24" height="24" fill="black" xmlns="http://www.w3.org/2000/svg">
 <g transform="translate(1, 1)">
  <path d="M15.8543 2C15.0494 2 14.2521 2.15519 13.5077 2.45707C12.7633 2.75895 12.0858 3.20193 11.5146 3.76125L10.9997 4.26514L10.4848 3.76113C9.99502 3.28178 9.43176 2.89215 8.82166 2.6025C8.44748 2.42485 8.00013 2.58417 7.82248 2.95836C7.64483 3.33254 7.80415 3.77989 8.17834 3.95754C8.64082 4.17711 9.0664 4.4718 9.43558 4.83313L10.4751 5.85058C10.7667 6.13591 11.2328 6.13591 11.5243 5.85058L12.564 4.833C12.9946 4.41141 13.5066 4.07614 14.0714 3.84712C14.6362 3.61808 15.242 3.5 15.8543 3.5C16.4665 3.5 17.0724 3.61808 17.6372 3.84712C18.2019 4.07614 18.714 4.41141 19.1445 4.833C19.5753 5.25436 19.9163 5.75402 20.1485 6.30253C20.3807 6.851 20.5 7.43828 20.5 8.03098C20.5 8.62368 20.3807 9.21097 20.1485 9.75944C19.9163 10.3079 19.5754 10.8075 19.1447 11.2288L18.1051 12.2463C17.8091 12.536 17.804 13.0109 18.0937 13.3069C18.3834 13.6029 18.8583 13.608 19.1543 13.3183L20.1939 12.3008C20.7654 11.7417 21.2196 11.077 21.5298 10.3442C21.8401 9.61135 22 8.82526 22 8.03098C22 7.23671 21.8401 6.45061 21.5298 5.71774C21.2196 4.98502 20.7652 4.3201 20.1937 3.76101C19.6225 3.20174 18.9452 2.75893 18.2009 2.45707C17.4565 2.15519 16.6591 2 15.8543 2Z" fill-rule="NONZERO"></path>
  <path d="M3.74949 4.14955C4.10669 3.93984 4.22626 3.48026 4.01655 3.12306C3.80684 2.76586 3.34726 2.64629 2.99006 2.856C2.56278 3.10685 2.16446 3.40992 1.80562 3.76113C0.651444 4.89076 0 6.42634 0 8.03098C0 9.63563 0.651443 11.1712 1.80562 12.3008L10.4751 20.786C10.7667 21.0713 11.2328 21.0713 11.5243 20.786L16.132 16.2764C16.428 15.9866 16.4331 15.5118 16.1434 15.2158C15.8536 14.9197 15.3788 14.9146 15.0828 15.2044L10.9997 19.2006L2.85482 11.2288C1.9854 10.3779 1.5 9.22727 1.5 8.03098C1.5 6.83469 1.9854 5.68406 2.85482 4.83313C3.12533 4.56837 3.4261 4.33941 3.74949 4.14955Z" fill-rule="NONZERO"></path>
  <path d="M0.21967 0.21967C0.512563 -0.0732233 0.987437 -0.0732233 1.28033 0.21967L21.7803 20.7197C22.0732 21.0126 22.0732 21.4874 21.7803 21.7803C21.4874 22.0732 21.0126 22.0732 20.7197 21.7803L0.21967 1.28033C-0.0732233 0.987437 -0.0732233 0.512563 0.21967 0.21967Z" fill-rule="EVENODD"></path>
 </g>
</svg>