<svg viewBox="0 0 16 16" width="16" height="16" fill="currentColor" xmlns="http://www.w3.org/2000/svg">
 <g transform="translate(0, 1)">
  <path d="M9.68884 0.343158C10.2422 0.116535 10.835 0 11.4335 0C12.032 0 12.6248 0.116535 13.1782 0.343158C13.7316 0.569788 14.2349 0.902189 14.6593 1.32179C15.0837 1.74117 15.4209 2.23955 15.6511 2.7887C15.8814 3.33798 16 3.92703 16 4.52213C16 5.11723 15.8814 5.70628 15.6511 6.25556C15.4208 6.80477 15.0836 7.30319 14.6591 7.72259L8.52704 13.7834C8.23487 14.0722 7.76476 14.0722 7.47259 13.7834L1.34049 7.72259C0.483228 6.87529 0 5.72422 0 4.52213C0 3.32004 0.483228 2.16897 1.34049 1.32167C2.19746 0.474661 3.35792 0.000366628 4.56612 0.000366628C5.77431 0.000366628 6.93477 0.474661 7.79174 1.32167L7.99981 1.52733L8.20777 1.32179C8.63208 0.902248 9.13551 0.569766 9.68884 0.343158Z" fill-rule="EVENODD"></path>
 </g>
</svg>