<svg viewBox="0 0 24 24" width="24" height="24" fill="currentColor" xmlns="http://www.w3.org/2000/svg">
 <g transform="translate(1, 3)">
  <path d="M13.5077 0.457073C14.2521 0.155186 15.0494 0 15.8543 0C16.6591 0 17.4565 0.155186 18.2009 0.457073C18.9453 0.75897 19.6227 1.20187 20.194 1.76125C20.7654 2.32035 21.2196 2.98502 21.5298 3.71774C21.8401 4.45061 22 5.23671 22 6.03098C22 6.82526 21.8401 7.61135 21.5298 8.34422C21.2196 9.077 20.7654 9.74172 20.1939 10.3008L11.5243 18.786C11.2328 19.0713 10.7667 19.0713 10.4751 18.786L1.80562 10.3008C0.651443 9.17121 0 7.63563 0 6.03098C0 4.42634 0.651444 2.89076 1.80562 1.76113C2.95924 0.632035 4.52053 0.000513315 6.1452 0.000513315C7.76987 0.000513315 9.33115 0.632035 10.4848 1.76113L10.9997 2.26514L11.5146 1.76125C12.0858 1.20193 12.7633 0.758948 13.5077 0.457073Z" fill-rule="EVENODD"></path>
 </g>
</svg>