<svg viewBox="0 0 16 16" width="16" height="16" fill="currentColor" xmlns="http://www.w3.org/2000/svg">
 <g transform="translate(0, 1)">
  <path d="M9.68884 0.343158C10.2422 0.116535 10.835 0 11.4335 0C12.032 0 12.6248 0.116535 13.1782 0.343158C13.7316 0.569788 14.2349 0.902189 14.6593 1.32179C15.0837 1.74117 15.4209 2.23955 15.6511 2.7887C15.8814 3.33798 16 3.92703 16 4.52213C16 5.11723 15.8814 5.70628 15.6511 6.25556C15.4208 6.80477 15.0836 7.30319 14.6591 7.72259C14.6591 7.72263 14.6592 7.72255 14.6591 7.72259L8.52704 13.7834C8.23487 14.0722 7.76476 14.0722 7.47259 13.7834L1.34049 7.72259C0.483228 6.87529 0 5.72422 0 4.52213C0 3.32004 0.483228 2.16897 1.34049 1.32167C2.19746 0.474661 3.35792 0.000366628 4.56612 0.000366628C5.77431 0.000366628 6.93477 0.474661 7.79174 1.32167L7.99981 1.52733L8.20777 1.32179C8.20781 1.32175 8.20772 1.32184 8.20777 1.32179C8.63208 0.902248 9.13551 0.569766 9.68884 0.343158ZM13.6046 2.38839C13.3203 2.1073 12.9823 1.88386 12.6097 1.73126C12.2371 1.57866 11.8374 1.5 11.4335 1.5C11.0297 1.5 10.6299 1.57866 10.2573 1.73126C9.8847 1.88386 9.54672 2.1073 9.26246 2.38839L8.52704 3.11526C8.23487 3.40403 7.76476 3.40403 7.47259 3.11526L6.7373 2.38851C6.16294 1.82083 5.38211 1.50037 4.56612 1.50037C3.75012 1.50037 2.96929 1.82083 2.39494 2.38851C1.82088 2.9559 1.5 3.72356 1.5 4.52213C1.5 5.3207 1.82088 6.08837 2.39494 6.65575L7.99981 12.1955L13.6047 6.65575C13.8891 6.37481 14.1143 6.0416 14.2677 5.67562C14.4212 5.30967 14.5 4.91773 14.5 4.52213C14.5 4.12653 14.4212 3.73459 14.2677 3.36864C14.1143 3.00266 13.8889 2.66933 13.6046 2.38839Z" fill-rule="EVENODD"></path>
 </g>
</svg>