<svg viewBox="0 0 16 16" width="16" height="16" fill="currentColor" xmlns="http://www.w3.org/2000/svg">
 <g transform="translate(0, 0)">
  <path d="M8.1969 4.52275C7.83582 4.45975 7.46375 4.52849 7.14594 4.7185C6.82781 4.9087 6.58324 5.20915 6.45878 5.56907C6.32341 5.96054 5.89632 6.16815 5.50485 6.03278C5.11338 5.89741 4.90577 5.47032 5.04114 5.07886C5.27962 4.3892 5.75141 3.80461 6.37621 3.43106C7.00132 3.05732 7.73786 2.91999 8.45475 3.04508C9.17148 3.17015 9.81887 3.54878 10.2837 4.11048C10.7481 4.67171 11.0009 5.37994 11 6.10959C10.9999 6.59724 10.9078 7.01534 10.7254 7.37628C10.5432 7.73694 10.2936 7.9952 10.0464 8.19341C9.85239 8.34899 9.63602 8.48431 9.46464 8.59149C9.431 8.61253 9.39909 8.63248 9.36942 8.65129C9.16778 8.77916 9.02667 8.87887 8.91689 8.99055C8.81461 9.0946 8.77388 9.18682 8.75706 9.23816C8.74978 9.26038 8.74659 9.27628 8.74537 9.28347C8.72786 9.68216 8.3991 10 7.9961 10C7.58189 10 7.2461 9.66422 7.2461 9.25C7.24626 9.08689 7.28103 8.92552 7.33163 8.77109C7.41129 8.52797 7.56353 8.22758 7.84718 7.93902C8.0857 7.69637 8.35223 7.52016 8.56613 7.38452C8.61117 7.35596 8.65343 7.32942 8.69337 7.30434C8.8616 7.1987 8.98859 7.11896 9.10803 7.02318C9.24074 6.91676 9.32751 6.81683 9.38666 6.69978C9.44562 6.5831 9.49996 6.4041 9.49996 6.10918L9.49996 6.10808C9.50052 5.72536 9.36781 5.35654 9.12803 5.06677C8.88848 4.77728 8.55813 4.58578 8.1969 4.52275Z" fill-rule="EVENODD"></path>
  <path d="M8 11C7.44772 11 7 11.4477 7 12C7 12.5523 7.44772 13 8 13L8.00667 13C8.55895 13 9.00667 12.5523 9.00667 12C9.00667 11.4477 8.55895 11 8.00667 11L8 11Z" fill-rule="NONZERO"></path>
  <path d="M0 8C0 3.58172 3.58172 0 8 0C12.4183 0 16 3.58172 16 8C16 12.4183 12.4183 16 8 16C3.58172 16 0 12.4183 0 8ZM8 1.5C4.41015 1.5 1.5 4.41015 1.5 8C1.5 11.5899 4.41015 14.5 8 14.5C11.5899 14.5 14.5 11.5899 14.5 8C14.5 4.41015 11.5899 1.5 8 1.5Z" fill-rule="EVENODD"></path>
 </g>
</svg>