<svg viewBox="0 0 24 24" width="24" height="24" fill="black" xmlns="http://www.w3.org/2000/svg">
 <g transform="translate(1, 1)">
  <path d="M11 1.5C5.75329 1.5 1.5 5.75329 1.5 11C1.5 16.2467 5.75329 20.5 11 20.5C16.2467 20.5 20.5 16.2467 20.5 11C20.5 5.75329 16.2467 1.5 11 1.5ZM0 11C0 4.92487 4.92487 0 11 0C17.0751 0 22 4.92487 22 11C22 17.0751 17.0751 22 11 22C4.92487 22 0 17.0751 0 11Z" fill-rule="EVENODD"></path>
  <path d="M10 16C10 15.4477 10.4477 15 11 15L11.01 15C11.5623 15 12.01 15.4477 12.01 16C12.01 16.5523 11.5623 17 11.01 17L11 17C10.4477 17 10 16.5523 10 16Z" fill-rule="EVENODD"></path>
  <path d="M9.57915 6.84602C10.1099 6.54647 10.7372 6.43553 11.3488 6.53627C11.9601 6.63698 12.5086 6.94134 12.9001 7.38794C13.2909 7.83382 13.5009 8.39303 13.5 8.9659L13.5 8.96706C13.5 9.39779 13.4158 9.67966 13.3087 9.87974C13.2004 10.0819 13.0432 10.2486 12.8256 10.4133C12.6368 10.5562 12.4338 10.6765 12.1887 10.8217C12.1324 10.8551 12.0738 10.8898 12.0127 10.9264C11.7072 11.1093 11.3495 11.3337 11.0324 11.6383C10.66 11.996 10.4601 12.3682 10.3556 12.6695C10.2914 12.8543 10.2445 13.0532 10.2444 13.25C10.2444 13.6642 10.5802 14 10.9944 14C11.4001 14 11.7305 13.6779 11.744 13.2755C11.7745 13.0604 11.9194 12.8661 12.0714 12.7202C12.2573 12.5416 12.4885 12.3898 12.7832 12.2134C12.8291 12.1859 12.8773 12.1574 12.9274 12.1278C13.1754 11.9813 13.4675 11.8087 13.7309 11.6093C14.062 11.3586 14.3907 11.0368 14.6311 10.5876C14.8727 10.1364 14.9999 9.60401 15 8.9676C15.0013 8.02348 14.6545 7.11387 14.0281 6.39921C13.4021 5.6851 12.5383 5.21201 11.5926 5.05622C10.6471 4.90046 9.67314 5.07053 8.84185 5.53973C8.00999 6.00925 7.37093 6.75058 7.04576 7.63835C6.90329 8.02729 7.1031 8.45808 7.49204 8.60055C7.88099 8.74301 8.31178 8.5432 8.45424 8.15426C8.65331 7.61079 9.04901 7.14524 9.57915 6.84602Z" fill-rule="NONZERO"></path>
 </g>
</svg>