<svg viewBox="0 0 16 16" width="16" height="16" fill="currentColor" xmlns="http://www.w3.org/2000/svg">
 <g transform="translate(1, 0.5)">
  <path d="M0.5 0.75C0.5 0.335786 0.835786 0 1.25 0C1.66421 0 2 0.335786 2 0.75L2 2.60102C3.26966 1.30535 5.04139 0.5 7 0.5C10.866 0.5 14 3.63401 14 7.5C14 11.366 10.866 14.5 7 14.5C3.13401 14.5 0 11.366 0 7.5C0 7.08579 0.335787 6.75 0.75 6.75C1.16421 6.75 1.5 7.08579 1.5 7.5C1.5 10.5376 3.96243 13 7 13C10.0376 13 12.5 10.5376 12.5 7.5C12.5 4.46243 10.0376 2 7 2C5.53832 2 4.21073 2.56933 3.22505 3.5L4.75 3.5C5.16421 3.5 5.5 3.83579 5.5 4.25C5.5 4.66421 5.16421 5 4.75 5L1.25 5C0.835786 5 0.5 4.66421 0.5 4.25L0.5 0.75Z" fill-rule="NONZERO"></path>
  <path d="M7.25 3.5C7.66421 3.5 8 3.83579 8 4.25L8 8.0126L9.8046 8.81464C10.1831 8.98287 10.3536 9.42609 10.1854 9.8046C10.0171 10.1831 9.57391 10.3536 9.1954 10.1854L6.9454 9.18536C6.67455 9.06498 6.5 8.79639 6.5 8.5L6.5 4.25C6.5 3.83579 6.83579 3.5 7.25 3.5Z" fill-rule="NONZERO"></path>
 </g>
</svg>