<svg viewBox="0 0 16 16" width="16" height="16" fill="black" xmlns="http://www.w3.org/2000/svg">
 <g transform="translate(1, 0.5)">
  <path d="M7 2C10.0376 2 12.5 4.46243 12.5 7.5C12.5 10.5376 10.0376 13 7 13C3.96243 13 1.5 10.5376 1.5 7.5C1.5 7.08579 1.16421 6.75 0.75 6.75C0.335787 6.75 0 7.08579 0 7.5C0 11.366 3.13401 14.5 7 14.5C10.866 14.5 14 11.366 14 7.5C14 3.63401 10.866 0.5 7 0.5C5.0127 0.5 3.21778 1.32913 1.94452 2.65829C1.65798 2.9574 1.66818 3.43216 1.96729 3.7187C2.26641 4.00524 2.74117 3.99504 3.02771 3.69592C4.02979 2.64985 5.43837 2 7 2Z" fill-rule="EVENODD"></path>
  <path d="M7.25 3.5C7.66421 3.5 8 3.83579 8 4.25L8 8.0126L9.8046 8.81464C10.1831 8.98287 10.3536 9.42609 10.1854 9.8046C10.0171 10.1831 9.57391 10.3536 9.1954 10.1854L6.9454 9.18536C6.67455 9.06498 6.5 8.79639 6.5 8.5L6.5 4.25C6.5 3.83579 6.83579 3.5 7.25 3.5Z" fill-rule="EVENODD"></path>
  <path d="M1.25 0C0.835786 0 0.5 0.335786 0.5 0.75L0.5 4.25C0.5 4.66421 0.835786 5 1.25 5L4.75 5C5.16421 5 5.5 4.66421 5.5 4.25C5.5 3.83579 5.16421 3.5 4.75 3.5L2 3.5L2 0.75C2 0.335786 1.66421 0 1.25 0Z" fill-rule="EVENODD"></path>
 </g>
</svg>