<svg viewBox="0 0 16 16" width="16" height="16" fill="black" xmlns="http://www.w3.org/2000/svg">
 <g transform="translate(1, 1.0210705995559692)">
  <path d="M7.15432 1.55332C7.06372 1.48223 6.93628 1.48223 6.84568 1.55332L1.59568 5.67254C1.53528 5.71993 1.5 5.79245 1.5 5.86923L1.5 13.2289C1.5 13.6431 1.16421 13.9789 0.75 13.9789C0.335786 13.9789 0 13.6431 0 13.2289L0 5.86923C0 5.3318 0.246936 4.82418 0.669749 4.49243L5.91975 0.373208C6.55396 -0.124402 7.44604 -0.124403 8.08025 0.373208L13.3303 4.49243C13.7531 4.82418 14 5.3318 14 5.86923L14 13.2289C14 13.6431 13.6642 13.9789 13.25 13.9789C12.8358 13.9789 12.5 13.6431 12.5 13.2289L12.5 5.86923C12.5 5.79245 12.4647 5.71993 12.4043 5.67254L7.15432 1.55332Z" fill-rule="EVENODD"></path>
  <path d="M5.5 9.47893L5.5 13.2289C5.5 13.6431 5.16421 13.9789 4.75 13.9789C4.33579 13.9789 4 13.6431 4 13.2289L4 9.22893C4 8.53857 4.55964 7.97893 5.25 7.97893L8.75 7.97893C9.44036 7.97893 10 8.53857 10 9.22893L10 13.2289C10 13.6431 9.66421 13.9789 9.25 13.9789C8.83579 13.9789 8.5 13.6431 8.5 13.2289L8.5 9.47893L5.5 9.47893Z" fill-rule="EVENODD"></path>
 </g>
</svg>