<svg viewBox="0 0 24 24" width="24" height="24" fill="currentColor" xmlns="http://www.w3.org/2000/svg">
 <g transform="translate(2, 1.26611328125)">
  <path d="M9.84665 1.55256C9.93688 1.48248 10.0631 1.48248 10.1533 1.55256L18.4033 7.9601C18.4643 8.00745 18.5 8.08033 18.5 8.15754L18.5 19.9838C18.5 20.398 18.8358 20.7338 19.25 20.7338C19.6642 20.7338 20 20.398 20 19.9838L20 8.15754C20 7.61708 19.7503 7.10695 19.3234 6.77543L11.0734 0.367893C10.4419 -0.122631 9.55813 -0.122631 8.92656 0.367893L0.676557 6.77543C0.249717 7.10695 0 7.61708 0 8.15754L0 19.9838C0 20.398 0.335786 20.7338 0.75 20.7338C1.16421 20.7338 1.5 20.398 1.5 19.9838L1.5 8.15754C1.5 8.08033 1.53567 8.00745 1.59665 7.9601L9.84665 1.55256Z" fill-rule="NONZERO"></path>
  <path d="M7.5 14.4839C7.5 14.3458 7.61193 14.2339 7.75 14.2339L12.25 14.2339C12.3881 14.2339 12.5 14.3458 12.5 14.4839L12.5 19.9839C12.5 20.3981 12.8358 20.7339 13.25 20.7339C13.6642 20.7339 14 20.3981 14 19.9839L14 14.4839C14 13.5174 13.2165 12.7339 12.25 12.7339L7.75 12.7339C6.7835 12.7339 6 13.5174 6 14.4839L6 19.9839C6 20.3981 6.33579 20.7339 6.75 20.7339C7.16421 20.7339 7.5 20.3981 7.5 19.9839L7.5 14.4839Z" fill-rule="NONZERO"></path>
 </g>
</svg>