<svg viewBox="0 0 16 16" width="16" height="16" fill="black" xmlns="http://www.w3.org/2000/svg">
 <g transform="translate(2.5101709365844727, 0.5)">
  <path d="M0.184714 2.21725C-0.359477 1.21772 0.364043 0 1.50212 0L9.47754 0C10.6156 0 11.3391 1.21772 10.7949 2.21725L7.98387 7.38045C7.94329 7.45498 7.94329 7.54501 7.98387 7.61954L10.7949 12.7827C11.3391 13.7823 10.6156 15 9.47754 15L1.50212 15C0.364043 15 -0.359477 13.7823 0.184713 12.7827L2.99579 7.61954C3.03637 7.54501 3.03637 7.45498 2.99579 7.38045L0.184714 2.21725ZM9.47754 1.5L1.50212 1.5L4.31319 6.6632C4.59723 7.18491 4.59723 7.81508 4.31319 8.33679L1.50212 13.5L9.47754 13.5L6.66646 8.33679C6.38242 7.81508 6.38242 7.18491 6.66646 6.6632L9.47754 1.5Z" fill-rule="EVENODD"></path>
  <path d="M3.23983 12.25C3.23983 11.8358 3.57562 11.5 3.98983 11.5L6.98983 11.5C7.40404 11.5 7.73983 11.8358 7.73983 12.25C7.73983 12.6642 7.40404 13 6.98983 13L3.98983 13C3.57562 13 3.23983 12.6642 3.23983 12.25Z" fill-rule="EVENODD"></path>
  <path d="M4.48983 4.75C4.48983 4.33579 4.82562 4 5.23983 4L5.73983 4C6.15404 4 6.48983 4.33579 6.48983 4.75C6.48983 5.16421 6.15404 5.5 5.73983 5.5L5.23983 5.5C4.82562 5.5 4.48983 5.16421 4.48983 4.75Z" fill-rule="EVENODD"></path>
 </g>
</svg>