<svg viewBox="0 0 24 24" width="24" height="24" fill="black" xmlns="http://www.w3.org/2000/svg">
 <g transform="translate(1.25, 1.25)">
  <path d="M6.80546 13.3055C7.32118 12.7897 8.02065 12.5 8.75 12.5L12.75 12.5C13.4793 12.5 14.1788 12.7897 14.6945 13.3055C15.2103 13.8212 15.5 14.5207 15.5 15.25L15.5 16.25C15.5 16.6642 15.1642 17 14.75 17C14.3358 17 14 16.6642 14 16.25L14 15.25C14 14.9185 13.8683 14.6005 13.6339 14.3661C13.3995 14.1317 13.0815 14 12.75 14L8.75 14C8.41848 14 8.10054 14.1317 7.86612 14.3661C7.6317 14.6005 7.5 14.9185 7.5 15.25L7.5 16.25C7.5 16.6642 7.16421 17 6.75 17C6.33579 17 6 16.6642 6 16.25L6 15.25C6 14.5207 6.28973 13.8212 6.80546 13.3055Z" fill-rule="NONZERO"></path>
  <path d="M10.75 6.5C9.23122 6.5 8 7.73122 8 9.25C8 10.7688 9.23122 12 10.75 12C12.2688 12 13.5 10.7688 13.5 9.25C13.5 7.73122 12.2688 6.5 10.75 6.5ZM9.5 9.25C9.5 8.55964 10.0596 8 10.75 8C11.4404 8 12 8.55964 12 9.25C12 9.94036 11.4404 10.5 10.75 10.5C10.0596 10.5 9.5 9.94036 9.5 9.25Z" fill-rule="EVENODD"></path>
  <path d="M6 2L6 1.75C6 0.783502 6.7835 0 7.75 0L13.75 0C14.7165 0 15.5 0.783502 15.5 1.75L15.5 2L18.75 2C19.4793 2 20.1788 2.28973 20.6945 2.80546C21.2103 3.32118 21.5 4.02065 21.5 4.75L21.5 16.75C21.5 17.4793 21.2103 18.1788 20.6945 18.6945C20.1788 19.2103 19.4793 19.5 18.75 19.5L2.75 19.5C2.02065 19.5 1.32118 19.2103 0.805456 18.6945C0.289731 18.1788 0 17.4793 0 16.75L0 4.75C0 4.02065 0.289731 3.32118 0.805456 2.80546C1.32118 2.28973 2.02065 2 2.75 2L6 2ZM7.5 1.75C7.5 1.61193 7.61193 1.5 7.75 1.5L13.75 1.5C13.8881 1.5 14 1.61193 14 1.75L14 3.75C14 3.88807 13.8881 4 13.75 4L7.75 4C7.61193 4 7.5 3.88807 7.5 3.75L7.5 1.75ZM15.5 3.5L18.75 3.5C19.0815 3.5 19.3995 3.6317 19.6339 3.86612C19.8683 4.10054 20 4.41848 20 4.75L20 16.75C20 17.0815 19.8683 17.3995 19.6339 17.6339C19.3995 17.8683 19.0815 18 18.75 18L2.75 18C2.41848 18 2.10054 17.8683 1.86612 17.6339C1.6317 17.3995 1.5 17.0815 1.5 16.75L1.5 4.75C1.5 4.41848 1.6317 4.10054 1.86612 3.86612C2.10054 3.6317 2.41848 3.5 2.75 3.5L6 3.5L6 3.75C6 4.7165 6.7835 5.5 7.75 5.5L13.75 5.5C14.7165 5.5 15.5 4.7165 15.5 3.75L15.5 3.5Z" fill-rule="EVENODD"></path>
 </g>
</svg>