<svg viewBox="0 0 16 16" width="16" height="16" fill="currentColor" xmlns="http://www.w3.org/2000/svg">
 <g transform="translate(0, 0)">
  <path d="M8 5C5.79086 5 4 6.79086 4 9C4 11.2091 5.79086 13 8 13C10.2091 13 12 11.2091 12 9C12 6.79086 10.2091 5 8 5ZM7.09615 8L5.70802 8C6.03671 7.24771 6.72492 6.68846 7.55547 6.5394C7.34156 6.99866 7.18722 7.49104 7.09615 8ZM7.02761 9.5L5.55001 9.5C5.75259 10.498 6.54963 11.2801 7.55543 11.4606C7.27215 10.8523 7.09333 10.186 7.02761 9.5ZM9.1311 11.2301C8.8232 10.727 8.61682 10.1333 8.53663 9.5L10.45 9.5C10.2963 10.257 9.80057 10.8899 9.1311 11.2301ZM8.62792 8C8.73484 7.55478 8.90581 7.13809 9.13114 6.76993C9.6468 7.03201 10.0594 7.46768 10.292 8L8.62792 8Z" fill-rule="EVENODD"></path>
  <path d="M4 1.25C4 0.559644 4.55964 0 5.25 0L10.75 0C11.4404 0 12 0.559644 12 1.25L12 2L13.75 2C14.9926 2 16 3.00736 16 4.25L16 12.75C16 13.9926 14.9926 15 13.75 15L2.25 15C1.00736 15 0 13.9926 0 12.75L0 4.25C0 3.00736 1.00736 2 2.25 2L4 2L4 1.25ZM10.75 4C11.159 4 11.522 3.80361 11.7501 3.5L13.75 3.5C14.1642 3.5 14.5 3.83579 14.5 4.25L14.5 12.75C14.5 13.1642 14.1642 13.5 13.75 13.5L2.25 13.5C1.83579 13.5 1.5 13.1642 1.5 12.75L1.5 4.25C1.5 3.83579 1.83579 3.5 2.25 3.5L4.24991 3.5C4.47796 3.80361 4.84105 4 5.25 4L10.75 4ZM5.5 2.5L10.5 2.5L10.5 1.5L5.5 1.5L5.5 2.5Z" fill-rule="EVENODD"></path>
 </g>
</svg>