<svg viewBox="0 0 24 24" width="24" height="24" fill="black" xmlns="http://www.w3.org/2000/svg">
 <g transform="translate(2, 2)">
  <path d="M0 2.75C0 1.23122 1.23122 0 2.75 0L17.25 0C18.7688 0 20 1.23122 20 2.75L20 17.25C20 18.7688 18.7688 20 17.25 20L2.75 20C1.23122 20 0 18.7688 0 17.25L0 2.75ZM2.75 1.5C2.05964 1.5 1.5 2.05964 1.5 2.75L1.5 17.25C1.5 17.9404 2.05964 18.5 2.75 18.5L17.25 18.5C17.9404 18.5 18.5 17.9404 18.5 17.25L18.5 2.75C18.5 2.05964 17.9404 1.5 17.25 1.5L2.75 1.5Z" fill-rule="EVENODD"></path>
  <path d="M6.5 5.5C5.94772 5.5 5.5 5.94772 5.5 6.5C5.5 7.05228 5.94772 7.5 6.5 7.5C7.05228 7.5 7.5 7.05228 7.5 6.5C7.5 5.94772 7.05228 5.5 6.5 5.5ZM4 6.5C4 5.11929 5.11929 4 6.5 4C7.88071 4 9 5.11929 9 6.5C9 7.88071 7.88071 9 6.5 9C5.11929 9 4 7.88071 4 6.5Z" fill-rule="EVENODD"></path>
  <path d="M12.1555 8.54739C13.2289 7.66341 14.7933 7.71982 15.8003 8.67882L19.7672 12.4569C20.0672 12.7426 20.0788 13.2173 19.7931 13.5172C19.5074 13.8172 19.0327 13.8288 18.7328 13.5431L14.7658 9.76503C14.3081 9.32912 13.597 9.30348 13.1091 9.70529L1.72678 19.0789C1.40704 19.3423 0.934371 19.2965 0.671052 18.9768C0.407734 18.657 0.453476 18.1844 0.77322 17.9211L12.1555 8.54739Z" fill-rule="EVENODD"></path>
 </g>
</svg>