<svg viewBox="0 0 24 24" width="24" height="24" fill="currentColor" xmlns="http://www.w3.org/2000/svg">
 <g transform="translate(1, 3)">
  <path d="M0.25 9.25C0.25 8.83579 0.585786 8.5 1 8.5L7 8.5C7.25076 8.5 7.48494 8.62533 7.62404 8.83397L9.40139 11.5L12.5986 11.5L14.376 8.83397C14.5151 8.62533 14.7492 8.5 15 8.5L21 8.5C21.4142 8.5 21.75 8.83579 21.75 9.25C21.75 9.66421 21.4142 10 21 10L15.4014 10L13.624 12.666C13.4849 12.8747 13.2508 13 13 13L9 13C8.74924 13 8.51506 12.8747 8.37596 12.666L6.59861 10L1 10C0.585786 10 0.25 9.66421 0.25 9.25Z" fill-rule="EVENODD"></path>
  <path d="M6.20221 1.5C5.73984 1.5 5.31524 1.75523 5.09831 2.16356L1.64611 8.66183C1.55017 8.84242 1.5 9.04379 1.5 9.24828L1.5 15.25C1.5 15.9404 2.05964 16.5 2.75 16.5L19.25 16.5C19.9404 16.5 20.5 15.9404 20.5 15.25L20.5 9.24828C20.5 9.04379 20.4498 8.84242 20.3539 8.66183L16.9017 2.16356C16.6848 1.75523 16.2602 1.5 15.7978 1.5L6.20221 1.5ZM3.77364 1.45982C4.25087 0.561508 5.185 0 6.20221 0L15.7978 0C16.815 0 17.7491 0.561509 18.2264 1.45982L21.6786 7.9581C21.8896 8.35539 22 8.7984 22 9.24828L22 15.25C22 16.7688 20.7688 18 19.25 18L2.75 18C1.23122 18 0 16.7688 0 15.25L0 9.24828C0 8.7984 0.11037 8.35539 0.321432 7.9581L3.77364 1.45982Z" fill-rule="EVENODD"></path>
 </g>
</svg>