<svg viewBox="0 0 16 16" width="16" height="16" fill="currentColor" xmlns="http://www.w3.org/2000/svg">
 <g transform="translate(0, 1)">
  <path d="M0.249985 7.75C0.249985 7.33579 0.585771 7 0.999985 7L5.49998 7C5.6989 7 5.88966 7.07902 6.03031 7.21967L7.31065 8.5L8.68932 8.5L9.96966 7.21967C10.1103 7.07902 10.3011 7 10.5 7L15 7C15.4142 7 15.75 7.33579 15.75 7.75C15.75 8.16421 15.4142 8.5 15 8.5L10.8106 8.5L9.53031 9.78033C9.38966 9.92098 9.1989 10 8.99998 10L6.99998 10C6.80107 10 6.61031 9.92098 6.46965 9.78033L5.18932 8.5L0.999985 8.5C0.585771 8.5 0.249985 8.16421 0.249985 7.75Z" fill-rule="EVENODD"></path>
  <path d="M4.74776 1.5C4.44709 1.5 4.17548 1.67956 4.0577 1.9562L1.55994 7.82283C1.52039 7.91573 1.5 8.01566 1.5 8.11663L1.5 11.75C1.5 12.1642 1.83579 12.5 2.25 12.5L13.75 12.5C14.1642 12.5 14.5 12.1642 14.5 11.75L14.5 8.11663C14.5 8.01566 14.4796 7.91573 14.4401 7.82283L11.9423 1.9562C11.8245 1.67956 11.5529 1.5 11.2522 1.5L4.74776 1.5ZM2.67758 1.36861C3.03092 0.538686 3.84575 0 4.74776 0L11.2522 0C12.1543 0 12.9691 0.538686 13.3224 1.36861L15.8202 7.23524C15.9388 7.51394 16 7.81373 16 8.11663L16 11.75C16 12.9926 14.9926 14 13.75 14L2.25 14C1.00736 14 0 12.9926 0 11.75L0 8.11663C0 7.81373 0.0611619 7.51394 0.179819 7.23524L2.67758 1.36861Z" fill-rule="EVENODD"></path>
 </g>
</svg>