<svg viewBox="0 0 16 16" width="16" height="16" fill="currentColor" xmlns="http://www.w3.org/2000/svg">
 <g transform="translate(0, 1)">
  <path d="M4.74776 0C3.84575 0 3.03092 0.538686 2.67758 1.36861L0.179819 7.23524C0.0611619 7.51394 0 7.81373 0 8.11663L0 11.75C0 12.9926 1.00736 14 2.25 14L13.75 14C14.9926 14 16 12.9926 16 11.75L16 8.11663C16 7.81373 15.9388 7.51394 15.8202 7.23524L13.3224 1.36861C12.9691 0.538686 12.1543 0 11.2522 0L4.74776 0ZM4.0577 1.9562C4.17548 1.67956 4.44709 1.5 4.74776 1.5L11.2522 1.5C11.5529 1.5 11.8245 1.67956 11.9423 1.9562L14.0897 7L10.5 7C10.3011 7 10.1103 7.07902 9.96967 7.21967L8.68934 8.5L7.31066 8.5L6.03033 7.21967C5.88968 7.07902 5.69891 7 5.5 7L1.91027 7L4.0577 1.9562ZM1.5 8.5L1.5 11.75C1.5 12.1642 1.83579 12.5 2.25 12.5L13.75 12.5C14.1642 12.5 14.5 12.1642 14.5 11.75L14.5 8.5L10.8107 8.5L9.53033 9.78033C9.38968 9.92098 9.19891 10 9 10L7 10C6.80109 10 6.61032 9.92098 6.46967 9.78033L5.18934 8.5L1.5 8.5Z" fill-rule="EVENODD"></path>
 </g>
</svg>