<svg viewBox="0 0 16 16" width="16" height="16" fill="currentColor" xmlns="http://www.w3.org/2000/svg">
 <g transform="translate(0, 0)">
  <path d="M8 1.5C4.41015 1.5 1.5 4.41015 1.5 8C1.5 11.5899 4.41015 14.5 8 14.5C11.5899 14.5 14.5 11.5899 14.5 8C14.5 4.41015 11.5899 1.5 8 1.5ZM0 8C0 3.58172 3.58172 0 8 0C12.4183 0 16 3.58172 16 8C16 12.4183 12.4183 16 8 16C3.58172 16 0 12.4183 0 8Z" fill-rule="EVENODD"></path>
  <path d="M8 7C8.41421 7 8.75 7.33579 8.75 7.75L8.75 11.25C8.75 11.6642 8.41421 12 8 12C7.58579 12 7.25 11.6642 7.25 11.25L7.25 7.75C7.25 7.33579 7.58579 7 8 7Z" fill-rule="EVENODD"></path>
  <path d="M7 5C7 4.44772 7.44772 4 8 4L8.00667 4C8.55895 4 9.00667 4.44772 9.00667 5C9.00667 5.55228 8.55895 6 8.00667 6L8 6C7.44772 6 7 5.55228 7 5Z" fill-rule="EVENODD"></path>
 </g>
</svg>