<svg viewBox="0 0 24 24" width="24" height="24" fill="black" xmlns="http://www.w3.org/2000/svg">
 <g transform="translate(1, 1)">
  <path d="M11 1.5C5.75329 1.5 1.5 5.75329 1.5 11C1.5 16.2467 5.75329 20.5 11 20.5C16.2467 20.5 20.5 16.2467 20.5 11C20.5 5.75329 16.2467 1.5 11 1.5ZM0 11C0 4.92487 4.92487 0 11 0C17.0751 0 22 4.92487 22 11C22 17.0751 17.0751 22 11 22C4.92487 22 0 17.0751 0 11Z" fill-rule="EVENODD"></path>
  <path d="M11 9.5C11.4142 9.5 11.75 9.83579 11.75 10.25L11.75 15.75C11.75 16.1642 11.4142 16.5 11 16.5C10.5858 16.5 10.25 16.1642 10.25 15.75L10.25 10.25C10.25 9.83579 10.5858 9.5 11 9.5Z" fill-rule="EVENODD"></path>
  <path d="M10 7C10 6.44772 10.4477 6 11 6L11.01 6C11.5623 6 12.01 6.44772 12.01 7C12.01 7.55228 11.5623 8 11.01 8L11 8C10.4477 8 10 7.55228 10 7Z" fill-rule="EVENODD"></path>
 </g>
</svg>