<svg viewBox="0 0 24 24" width="24" height="24" fill="black" xmlns="http://www.w3.org/2000/svg">
 <g transform="translate(3, 4)">
  <path d="M0 10.75C-1.01453e-16 10.3358 0.335786 10 0.75 10L7.25 10C7.66421 10 8 10.3358 8 10.75C8 11.1642 7.66421 11.5 7.25 11.5L0.75 11.5C0.335786 11.5 1.01453e-16 11.1642 0 10.75Z" fill-rule="EVENODD"></path>
  <path d="M0 15.75C-1.01453e-16 15.3358 0.335786 15 0.75 15L17 15C17.4142 15 17.75 15.3358 17.75 15.75C17.75 16.1642 17.4142 16.5 17 16.5L0.75 16.5C0.335786 16.5 1.01453e-16 16.1642 0 15.75Z" fill-rule="EVENODD"></path>
  <path d="M0 5.75C-1.01453e-16 5.33579 0.335786 5 0.75 5L7.25 5C7.66421 5 8 5.33579 8 5.75C8 6.16421 7.66421 6.5 7.25 6.5L0.75 6.5C0.335786 6.5 1.01453e-16 6.16421 0 5.75Z" fill-rule="EVENODD"></path>
  <path d="M0 0.75C-1.01453e-16 0.335786 0.335786 1.01453e-16 0.75 0L3.25 0C3.66421 -1.01453e-16 4 0.335786 4 0.75C4 1.16421 3.66421 1.5 3.25 1.5L0.75 1.5C0.335786 1.5 1.01453e-16 1.16421 0 0.75Z" fill-rule="EVENODD"></path>
  <path d="M9.95171 8.23826C10.2343 7.93545 10.7089 7.91908 11.0117 8.20171L14.25 11.2241L17.4883 8.20171C17.7911 7.91908 18.2657 7.93545 18.5483 8.23826C18.8309 8.54107 18.8146 9.01567 18.5117 9.29829L14.7617 12.7983C14.4736 13.0672 14.0264 13.0672 13.7383 12.7983L9.98826 9.29829C9.68545 9.01567 9.66908 8.54107 9.95171 8.23826Z" fill-rule="EVENODD"></path>
  <path d="M7.5 0.75C7.5 0.335786 7.83579 0 8.25 0L10.25 0C11.5098 0 12.718 0.500445 13.6088 1.39124C14.4996 2.28204 15 3.49022 15 4.75L15 11.75C15 12.1642 14.6642 12.5 14.25 12.5C13.8358 12.5 13.5 12.1642 13.5 11.75L13.5 4.75C13.5 3.88805 13.1576 3.0614 12.5481 2.4519C11.9386 1.84241 11.112 1.5 10.25 1.5L8.25 1.5C7.83579 1.5 7.5 1.16421 7.5 0.75Z" fill-rule="EVENODD"></path>
 </g>
</svg>