<svg viewBox="0 0 16 16" width="16" height="16" fill="black" xmlns="http://www.w3.org/2000/svg">
 <g transform="translate(1, 2)">
  <path d="M5 4.25C5 3.83579 5.33579 3.5 5.75 3.5L9.25 3.5C9.66421 3.5 10 3.83579 10 4.25C10 4.66421 9.66421 5 9.25 5L5.75 5C5.33579 5 5 4.66421 5 4.25Z" fill-rule="EVENODD"></path>
  <path d="M0 0.75C-6.76354e-17 0.335786 0.335786 1.5218e-16 0.75 0L1.75 0C2.16421 -1.5218e-16 2.5 0.335786 2.5 0.75C2.5 1.16421 2.16421 1.5 1.75 1.5L0.75 1.5C0.335786 1.5 6.76354e-17 1.16421 0 0.75Z" fill-rule="EVENODD"></path>
  <path d="M0 4.25C-6.76354e-17 3.83579 0.335786 3.5 0.75 3.5L2.25 3.5C2.66421 3.5 3 3.83579 3 4.25C3 4.66421 2.66421 5 2.25 5L0.75 5C0.335786 5 6.76354e-17 4.66421 0 4.25Z" fill-rule="EVENODD"></path>
  <path d="M0 7.75C-6.76354e-17 7.33579 0.335786 7 0.75 7L1.25 7C1.66421 7 2 7.33579 2 7.75C2 8.16421 1.66421 8.5 1.25 8.5L0.75 8.5C0.335786 8.5 6.76354e-17 8.16421 0 7.75Z" fill-rule="EVENODD"></path>
  <path d="M0 11.25C-6.76354e-17 10.8358 0.335786 10.5 0.75 10.5L2.25 10.5C2.66421 10.5 3 10.8358 3 11.25C3 11.6642 2.66421 12 2.25 12L0.75 12C0.335786 12 6.76354e-17 11.6642 0 11.25Z" fill-rule="EVENODD"></path>
  <path d="M5 0.75C5 0.335786 5.33579 1.5218e-16 5.75 0L12.25 0C12.6642 -1.5218e-16 13 0.335786 13 0.75C13 1.16421 12.6642 1.5 12.25 1.5L5.75 1.5C5.33579 1.5 5 1.16421 5 0.75Z" fill-rule="EVENODD"></path>
  <path d="M5 7.75C5 7.33579 5.33579 7 5.75 7L11.25 7C11.6642 7 12 7.33579 12 7.75C12 8.16421 11.6642 8.5 11.25 8.5L5.75 8.5C5.33579 8.5 5 8.16421 5 7.75Z" fill-rule="EVENODD"></path>
  <path d="M5 11.25C5 10.8358 5.33579 10.5 5.75 10.5L13.25 10.5C13.6642 10.5 14 10.8358 14 11.25C14 11.6642 13.6642 12 13.25 12L5.75 12C5.33579 12 5 11.6642 5 11.25Z" fill-rule="EVENODD"></path>
 </g>
</svg>