<svg viewBox="0 0 24 24" width="24" height="24" fill="currentColor" xmlns="http://www.w3.org/2000/svg">
 <g transform="translate(1, 1)">
  <path d="M12.8804 4.8769C13.4484 4.30886 14.2024 4 15.0015 4C15.3977 4 15.7854 4.07869 16.149 4.23028C17.2692 4.69772 18 5.78356 18 7.00326C18 7.78989 17.6791 8.55859 17.1252 9.11716C16.5603 9.68684 15.8019 10 15.0015 10C13.7817 10 12.6968 9.26859 12.2298 8.14824L12.2288 8.1459C11.766 7.02477 12.0162 5.73784 12.8804 4.8769ZM13.9407 5.93789C14.2252 5.65323 14.5968 5.5 15.0015 5.5C15.1972 5.5 15.389 5.53862 15.5719 5.61481C16.1373 5.85086 16.5 6.39315 16.5 7.00326C16.5 7.38878 16.3393 7.77945 16.0601 8.06097C15.779 8.34442 15.405 8.5 15.0015 8.5C14.3928 8.5 13.8511 8.13791 13.6148 7.57232C13.3821 7.0072 13.5093 6.3674 13.9394 5.93923L13.9407 5.93789Z" fill-rule="EVENODD"></path>
  <path d="M13.3068 0.0681265C13.6468 0.0212384 13.9908 0 14.3281 0C16.3769 0 18.3082 0.79875 19.7568 2.24706C21.4363 3.92973 22.2482 6.33566 21.9332 8.69108L21.933 8.69221C21.6144 11.0472 20.1956 13.1558 18.1325 14.334C16.9734 14.9957 15.657 15.3464 14.3216 15.3464C13.4463 15.3464 12.5891 15.1981 11.7694 14.9092L10.7294 15.949C10.5035 16.1852 10.1899 16.3181 9.86552 16.3181L8.60068 16.3181L8.60068 17.3921L8.60052 17.4076C8.59327 17.7574 8.45539 18.0826 8.21789 18.3337L8.21073 18.3413C7.95176 18.6075 7.5975 18.749 7.2404 18.749L6.15626 18.749L6.15626 19.9691C6.16695 20.2922 6.0462 20.5992 5.82481 20.8358C5.82114 20.8398 5.81743 20.8436 5.81368 20.8475C5.8116 20.8496 5.8095 20.8517 5.80738 20.8539L4.88068 21.7804C4.74004 21.921 4.5493 22 4.35041 22L0.75 22C0.335786 22 0 21.6642 0 21.25L0 17.6342C0 17.4352 0.0790398 17.2445 0.219727 17.1038L7.08886 10.2361C6.35311 8.14539 6.55505 5.80144 7.66144 3.8674C8.84258 1.80247 10.9509 0.383687 13.3068 0.0681265ZM13.5104 1.55424C13.7769 1.51744 14.0525 1.5 14.3281 1.5C15.9794 1.5 17.5289 2.14105 18.6958 3.30736C20.0451 4.65929 20.6996 6.59926 20.4464 8.49221C20.1899 10.3852 19.045 12.0855 17.3887 13.0314C16.4554 13.5642 15.3952 13.8464 14.3216 13.8464C13.4957 13.8464 12.69 13.6826 11.9248 13.3622C11.8226 13.3194 11.7132 13.2975 11.6028 13.2975C11.3506 13.2975 11.1556 13.4018 11.0209 13.5365L9.73897 14.8181L8.13481 14.8181C7.55672 14.8181 7.10068 15.2887 7.10068 15.8522L7.10068 17.249L5.69039 17.249C5.11258 17.249 4.65626 17.7194 4.65626 18.2831L4.65626 19.8836L4.0398 20.5L1.5 20.5L1.5 17.9449L8.45522 10.9912C8.68204 10.7643 8.7756 10.4063 8.63416 10.0762C7.89293 8.31246 8.01492 6.27032 8.96346 4.6122C9.91302 2.95214 11.6143 1.8078 13.5072 1.55468L13.5104 1.55424Z" fill-rule="EVENODD"></path>
 </g>
</svg>