<svg viewBox="0 0 16 16" width="16" height="16" fill="currentColor" xmlns="http://www.w3.org/2000/svg">
 <g transform="translate(1, 2)">
  <path d="M0.75 0C0.335786 0 0 0.335786 0 0.75C0 1.16421 0.335786 1.5 0.75 1.5L1.75 1.5C2.16421 1.5 2.5 1.16421 2.5 0.75C2.5 0.335786 2.16421 0 1.75 0L0.75 0Z" fill-rule="NONZERO"></path>
  <path d="M5.75 3.5C5.33579 3.5 5 3.83579 5 4.25C5 4.66421 5.33579 5 5.75 5L9.25 5C9.66421 5 10 4.66421 10 4.25C10 3.83579 9.66421 3.5 9.25 3.5L5.75 3.5Z" fill-rule="NONZERO"></path>
  <path d="M0 4.25C0 3.83579 0.335786 3.5 0.75 3.5L2.25 3.5C2.66421 3.5 3 3.83579 3 4.25C3 4.66421 2.66421 5 2.25 5L0.75 5C0.335786 5 0 4.66421 0 4.25Z" fill-rule="NONZERO"></path>
  <path d="M0.75 7C0.335786 7 0 7.33579 0 7.75C0 8.16421 0.335786 8.5 0.75 8.5L1.25 8.5C1.66421 8.5 2 8.16421 2 7.75C2 7.33579 1.66421 7 1.25 7L0.75 7Z" fill-rule="NONZERO"></path>
  <path d="M0 11.25C0 10.8358 0.335786 10.5 0.75 10.5L2.25 10.5C2.66421 10.5 3 10.8358 3 11.25C3 11.6642 2.66421 12 2.25 12L0.75 12C0.335786 12 0 11.6642 0 11.25Z" fill-rule="NONZERO"></path>
  <path d="M5.75 0C5.33579 0 5 0.335786 5 0.75C5 1.16421 5.33579 1.5 5.75 1.5L12.25 1.5C12.6642 1.5 13 1.16421 13 0.75C13 0.335786 12.6642 0 12.25 0L5.75 0Z" fill-rule="NONZERO"></path>
  <path d="M5 7.75C5 7.33579 5.33579 7 5.75 7L11.25 7C11.6642 7 12 7.33579 12 7.75C12 8.16421 11.6642 8.5 11.25 8.5L5.75 8.5C5.33579 8.5 5 8.16421 5 7.75Z" fill-rule="NONZERO"></path>
  <path d="M5.75 10.5C5.33579 10.5 5 10.8358 5 11.25C5 11.6642 5.33579 12 5.75 12L13.25 12C13.6642 12 14 11.6642 14 11.25C14 10.8358 13.6642 10.5 13.25 10.5L5.75 10.5Z" fill-rule="NONZERO"></path>
 </g>
</svg>