<svg viewBox="0 0 16 16" width="16" height="16" fill="black" xmlns="http://www.w3.org/2000/svg">
 <g transform="translate(0, 0)">
  <path d="M9.60207 0.0501868C9.85329 0.0155692 10.1065 0 10.354 0C11.8613 0 13.2832 0.58803 14.349 1.65366C15.5853 2.89224 16.1827 4.66226 15.9508 6.39596L15.9507 6.39709C15.7161 8.13035 14.6726 9.6815 13.1538 10.5488C12.3009 11.0357 11.3323 11.2938 10.3494 11.2938C9.75188 11.2938 9.16582 11.1998 8.60299 11.0167L7.96545 11.6541C7.76423 11.8635 7.48581 11.9811 7.19756 11.9811L6.52243 11.9811L6.52243 12.5212L6.52227 12.5368C6.51598 12.8402 6.39604 13.122 6.19164 13.3381L6.18447 13.3457C5.95859 13.5779 5.65062 13.7005 5.34077 13.7005L4.79346 13.7005L4.79346 14.3406C4.80195 14.6282 4.69363 14.8998 4.4998 15.107C4.28339 15.3383 4.05091 15.5564 3.8269 15.7804C3.68626 15.921 3.49552 16 3.29663 16L0.75 16C0.335786 16 0 15.6642 0 15.25L0 12.6925C0 12.4935 0.0790398 12.3027 0.219727 12.1621L4.98199 7.40085C4.49408 5.89619 4.65676 4.22923 5.44802 2.84602C6.31732 1.32627 7.86804 0.282588 9.60207 0.0501868ZM10.354 1.5C10.1682 1.5 9.98331 1.51177 9.80571 1.5363L9.8025 1.53674C8.53147 1.70671 7.38777 2.47592 6.75006 3.59079C6.11336 4.7038 6.03109 6.07613 6.52863 7.26074C6.66613 7.5822 6.57446 7.92976 6.35525 8.14897L1.5 13.0032L1.5 14.5L2.98602 14.5L3.29346 14.1926L3.29346 13.1515C3.29346 12.6331 3.71289 12.2005 4.24442 12.2005L5.02243 12.2005L5.02243 11.4321C5.02243 10.9139 5.44162 10.4811 5.9734 10.4811L7.01714 10.4811L7.85956 9.63887C7.99004 9.50841 8.17941 9.40556 8.42636 9.40556C8.53351 9.40556 8.63981 9.42683 8.73891 9.46834C9.25365 9.6839 9.7948 9.79379 10.3494 9.79379C11.0705 9.79379 11.7829 9.60423 12.41 9.24619C13.5221 8.6111 14.2919 7.46799 14.4641 6.19653C14.634 4.9255 14.194 3.62172 13.2881 2.71402C12.5039 1.9303 11.4639 1.5 10.354 1.5Z" fill-rule="EVENODD"></path>
  <path d="M10.751 4.5C10.5468 4.5 10.3628 4.5762 10.2204 4.7185L10.2191 4.71983C10.005 4.93276 9.94091 5.25051 10.0574 5.53372C10.1763 5.81755 10.4467 5.99738 10.751 5.99738C10.9541 5.99738 11.1394 5.9199 11.2794 5.77881C11.4197 5.6375 11.5 5.44046 11.5 5.25086C11.5 4.94665 11.3199 4.67606 11.0353 4.55729M9.16057 3.65704C9.58656 3.23151 10.1528 3 10.751 3C11.0485 3 11.3395 3.05908 11.612 3.17258C12.4511 3.5224 13 4.33629 13 5.25086C13 5.842 12.7592 6.41721 12.3441 6.83547M9.16057 3.65704C8.51207 4.30267 8.32457 5.26797 8.67158 6.10773L8.67255 6.11008C9.02254 6.949 9.83642 7.49738 10.751 7.49738C11.3506 7.49738 11.9201 7.26261 12.3441 6.83547M10.751 4.5C10.8482 4.5 10.9435 4.51908 11.0353 4.55729Z" fill-rule="EVENODD"></path>
 </g>
</svg>