<svg viewBox="0 0 24 24" width="24" height="24" fill="black" xmlns="http://www.w3.org/2000/svg">
 <g transform="translate(0.20586207509040833, 0.020751953125)">
  <path d="M18.3441 11.7292C18.3441 11.315 18.6799 10.9792 19.0941 10.9792L22.8941 10.9792C23.3083 10.9792 23.6441 11.315 23.6441 11.7292C23.6441 12.1435 23.3083 12.4792 22.8941 12.4792L19.0941 12.4792C18.6799 12.4792 18.3441 12.1435 18.3441 11.7292Z" fill-rule="EVENODD"></path>
  <path d="M4.04414 11.7292C4.04414 11.315 4.37992 10.9792 4.79414 10.9792L8.54414 10.9792C8.95835 10.9792 9.29414 11.315 9.29414 11.7292C9.29414 12.1435 8.95835 12.4792 8.54414 12.4792L4.79414 12.4792C4.37992 12.4792 4.04414 12.1435 4.04414 11.7292Z" fill-rule="EVENODD"></path>
  <path d="M11.7941 9.54175C10.4479 9.54175 9.35664 10.6331 9.35664 11.9792C9.35664 12.7011 9.66945 13.3489 10.1693 13.7963C10.478 14.0725 10.5042 14.5467 10.228 14.8553C9.95174 15.1639 9.4776 15.1902 9.16895 14.914C8.3646 14.1941 7.85664 13.1455 7.85664 11.9792C7.85664 9.80463 9.61952 8.04175 11.7941 8.04175C13.9688 8.04175 15.7316 9.80463 15.7316 11.9792C15.7316 13.1455 15.2237 14.1941 14.4193 14.914C14.1107 15.1902 13.6365 15.1639 13.3603 14.8553C13.084 14.5467 13.1103 14.0725 13.419 13.7963C13.9188 13.3489 14.2316 12.7011 14.2316 11.9792C14.2316 10.6331 13.1403 9.54175 11.7941 9.54175Z" fill-rule="EVENODD"></path>
  <path d="M10.4505 4.84539C10.5686 5.24239 10.3426 5.66001 9.94557 5.77817C7.273 6.57356 5.32539 9.04988 5.32539 11.9791C5.32539 15.5517 8.22155 18.4479 11.7941 18.4479C15.3667 18.4479 18.2629 15.5517 18.2629 11.9791C18.2629 9.04988 16.3153 6.57356 13.6427 5.77817C13.2457 5.66001 13.0196 5.24239 13.1378 4.84539C13.256 4.44838 13.6736 4.22233 14.0706 4.34049C17.3617 5.31997 19.7629 8.36816 19.7629 11.9791C19.7629 16.3802 16.1952 19.9479 11.7941 19.9479C7.39312 19.9479 3.82539 16.3802 3.82539 11.9791C3.82539 8.36816 6.22658 5.31997 9.5177 4.34049C9.91471 4.22233 10.3323 4.44838 10.4505 4.84539Z" fill-rule="EVENODD"></path>
  <path d="M11.7941 1.5C6.65812 1.5 2.38369 5.19566 1.48779 10.073C1.41296 10.4804 1.02203 10.75 0.614634 10.6752C0.207237 10.6003 -0.0623602 10.2094 0.0124728 9.802C1.03679 4.22553 5.92122 0 11.7941 0C18.4101 0 23.7733 5.36326 23.7733 11.9792C23.7733 18.5951 18.4101 23.9583 11.7941 23.9583C5.92122 23.9583 1.03679 19.7328 0.0124728 14.1563C-0.0623602 13.7489 0.207237 13.358 0.614634 13.2832C1.02203 13.2083 1.41296 13.4779 1.48779 13.8853C2.38369 18.7627 6.65812 22.4583 11.7941 22.4583C17.5816 22.4583 22.2733 17.7666 22.2733 11.9792C22.2733 6.19168 17.5816 1.5 11.7941 1.5Z" fill-rule="EVENODD"></path>
 </g>
</svg>