<svg viewBox="0 0 24 24" width="24" height="24" fill="currentColor" xmlns="http://www.w3.org/2000/svg">
 <g transform="translate(0.999755859375, 1)">
  <path d="M10.6583 0.0824675C10.873 -0.0274892 11.1275 -0.0274892 11.3422 0.0824675L21.5921 5.33247C21.8427 5.46078 22.0002 5.71854 22.0002 6C22.0002 6.28146 21.8427 6.53922 21.5921 6.66753L11.3422 11.9175C11.1275 12.0275 10.873 12.0275 10.6583 11.9175L0.408337 6.66753C0.157828 6.53922 0.000244141 6.28146 0.000244141 6C0.000244141 5.71854 0.157828 5.46078 0.408337 5.33247L10.6583 0.0824675ZM2.39543 6L11.0002 10.4073L19.6051 6L11.0002 1.59266L2.39543 6Z" fill-rule="EVENODD"></path>
  <path d="M0.0892762 15.3953C0.285124 15.0303 0.739771 14.8932 1.10476 15.089L11.0001 20.3988L20.8955 15.089C21.2605 14.8932 21.7152 15.0303 21.911 15.3953C22.1069 15.7603 21.9697 16.2149 21.6048 16.4108L11.3548 21.9108C11.1333 22.0296 10.867 22.0296 10.6455 21.9108L0.395533 16.4108C0.0305446 16.2149 -0.106571 15.7603 0.0892762 15.3953Z" fill-rule="NONZERO"></path>
  <path d="M1.10476 10.089C0.739771 9.89318 0.285124 10.0303 0.0892762 10.3953C-0.106571 10.7603 0.0305446 11.2149 0.395533 11.4108L10.6455 16.9108C10.867 17.0296 11.1333 17.0296 11.3548 16.9108L21.6048 11.4108C21.9697 11.2149 22.1069 10.7603 21.911 10.3953C21.7152 10.0303 21.2605 9.89318 20.8955 10.089L11.0001 15.3988L1.10476 10.089Z" fill-rule="NONZERO"></path>
 </g>
</svg>