<svg viewBox="0 0 24 24" width="24" height="24" fill="currentColor" xmlns="http://www.w3.org/2000/svg">
 <g transform="translate(0.9998536109924316, 1)">
  <path d="M10.6582 0.0824675C10.8729 -0.0274892 11.1274 -0.0274892 11.3421 0.0824675L21.5921 5.33247C21.8426 5.46078 22.0001 5.71854 22.0001 6C22.0001 6.28146 21.8426 6.53922 21.5921 6.66753L11.3421 11.9175C11.1274 12.0275 10.8729 12.0275 10.6582 11.9175L0.408239 6.66753C0.15773 6.53922 0.00014639 6.28146 0.00014639 6C0.00014639 5.71854 0.15773 5.46078 0.408239 5.33247L10.6582 0.0824675ZM2.39533 6L11.0001 10.4073L19.605 6L11.0001 1.59266L2.39533 6Z" fill-rule="EVENODD"></path>
  <path d="M0.0892762 15.3954C0.285124 15.0304 0.739771 14.8933 1.10476 15.0891L11.0001 20.3988L20.8955 15.0891C21.2605 14.8933 21.7152 15.0304 21.911 15.3954C22.1069 15.7604 21.9697 16.215 21.6048 16.4109L11.3548 21.9109C11.1333 22.0297 10.867 22.0297 10.6455 21.9109L0.395533 16.4109C0.0305446 16.215 -0.106571 15.7604 0.0892762 15.3954Z" fill-rule="EVENODD"></path>
  <path d="M0.0892762 10.3954C0.285124 10.0304 0.739771 9.89328 1.10476 10.0891L11.0001 15.3988L20.8955 10.0891C21.2605 9.89328 21.7152 10.0304 21.911 10.3954C22.1069 10.7604 21.9697 11.215 21.6048 11.4109L11.3548 16.9109C11.1333 17.0297 10.867 17.0297 10.6455 16.9109L0.395533 11.4109C0.0305446 11.215 -0.106571 10.7604 0.0892762 10.3954Z" fill-rule="EVENODD"></path>
 </g>
</svg>