<svg viewBox="0 0 16 16" width="16" height="16" fill="currentColor" xmlns="http://www.w3.org/2000/svg">
 <g transform="translate(-0.00013863036292605102, 0.000000014901161193847656)">
  <path d="M7.65557 0.0838368C7.87168 -0.0279456 8.12859 -0.0279456 8.34471 0.0838368L15.5947 3.83384C15.8437 3.96265 16.0001 4.21962 16.0001 4.5C16.0001 4.78038 15.8437 5.03735 15.5947 5.16616L8.34471 8.91616C8.12859 9.02795 7.87168 9.02795 7.65557 8.91616L0.405571 5.16616C0.156531 5.03735 0.00013863 4.78038 0.00013863 4.5C0.00013863 4.21962 0.156531 3.96265 0.405571 3.83384L7.65557 0.0838368ZM2.38262 4.5L8.00014 7.40561L13.6177 4.5L8.00014 1.59439L2.38262 4.5Z" fill-rule="EVENODD"></path>
  <path d="M0.0934554 10.8877C0.293553 10.525 0.749771 10.3932 1.11245 10.5933L8.00014 14.3934L14.8878 10.5933C15.2505 10.3932 15.7067 10.525 15.9068 10.8877C16.1069 11.2504 15.9751 11.7066 15.6124 11.9067L8.36245 15.9067C8.13693 16.0311 7.86335 16.0311 7.63783 15.9067L0.387831 11.9067C0.0251545 11.7066 -0.106642 11.2504 0.0934554 10.8877Z" fill-rule="EVENODD"></path>
  <path d="M0.0934554 7.38769C0.293553 7.02502 0.749771 6.89322 1.11245 7.09332L8.00014 10.8934L14.8878 7.09332C15.2505 6.89322 15.7067 7.02502 15.9068 7.38769C16.1069 7.75037 15.9751 8.20659 15.6124 8.40668L8.36245 12.4067C8.13693 12.5311 7.86335 12.5311 7.63783 12.4067L0.387831 8.40668C0.0251545 8.20659 -0.106642 7.75037 0.0934554 7.38769Z" fill-rule="EVENODD"></path>
 </g>
</svg>