<svg viewBox="0 0 24 24" width="24" height="24" fill="black" xmlns="http://www.w3.org/2000/svg">
 <g transform="translate(1, 1)">
  <path d="M10.1444 4.08965C10.3664 3.97012 10.6336 3.97012 10.8556 4.08965L20.6056 9.33965C20.8485 9.47046 21 9.72409 21 10C21 10.2759 20.8485 10.5295 20.6056 10.6604L17.9793 12.0745L16.5 12.871L10.8556 15.9104C10.6336 16.0299 10.3664 16.0299 10.1444 15.9104L4.5 12.871L3.02065 12.0745L0.394425 10.6604C0.151493 10.5295 0 10.2759 0 10C0 9.72409 0.151493 9.47046 0.394425 9.33965L10.1444 4.08965ZM2.33195 10L10.5 14.3982L18.6681 10L10.5 5.60182L2.33195 10Z" fill-rule="EVENODD"></path>
  <path d="M21.5303 0.46967C21.8232 0.762563 21.8232 1.23744 21.5303 1.53033L17.5303 5.53033C17.2374 5.82322 16.7626 5.82322 16.4697 5.53033C16.1768 5.23744 16.1768 4.76256 16.4697 4.46967L20.4697 0.46967C20.7626 0.176777 21.2374 0.176777 21.5303 0.46967Z" fill-rule="EVENODD"></path>
  <path d="M17 0.75C17 0.335786 17.3358 0 17.75 0L21.25 0C21.4489 0 21.6397 0.0790176 21.7803 0.21967C21.921 0.360322 22 0.551088 22 0.75L22 4.25C22 4.66421 21.6642 5 21.25 5C20.8358 5 20.5 4.66421 20.5 4.25L20.5 1.5L17.75 1.5C17.3358 1.5 17 1.16421 17 0.75Z" fill-rule="EVENODD"></path>
  <path d="M4.5 17.3788L4.5 12.871L3.02065 12.0745C3.00715 12.1308 3 12.1896 3 12.25L3 17.5833C3 17.6899 3.02269 17.7952 3.06657 17.8922L3.06714 17.8935C3.16307 18.104 3.30394 18.2971 3.44966 18.4751C3.70139 18.7826 4.09338 19.1693 4.67969 19.5471C5.85696 20.3057 7.77228 21 10.8214 21C13.8642 21 15.6482 20.3081 16.6904 19.513C17.2101 19.1165 17.5285 18.7066 17.7199 18.3751C17.8335 18.1785 17.9358 17.9633 17.9835 17.7397L17.9839 17.7381C17.9946 17.6872 18 17.6354 18 17.5833L18 12.25C18 12.1896 17.9929 12.1308 17.9793 12.0745L16.5 12.871L16.5 17.466C16.4846 17.5036 16.4596 17.558 16.421 17.6249C16.3236 17.7935 16.1347 18.0502 15.7806 18.3204C15.0751 18.8586 13.6447 19.5 10.8214 19.5C8.00451 19.5 6.38412 18.861 5.49218 18.2862C5.04389 17.9974 4.76792 17.7174 4.61033 17.5249C4.56403 17.4684 4.52768 17.419 4.5 17.3788Z" fill-rule="NONZERO"></path>
 </g>
</svg>