<svg viewBox="0 0 24 24" width="24" height="24" fill="currentColor" xmlns="http://www.w3.org/2000/svg">
 <g transform="translate(1, 3)">
  <path d="M11.3669 0.0958927C11.139 -0.0319642 10.861 -0.0319642 10.6331 0.0958927L0.383062 5.84589C0.146479 5.97861 0 6.22873 0 6.5C0 6.77127 0.146479 7.02139 0.383062 7.15411L3.20353 8.73632C3.07732 8.87053 3 9.05123 3 9.25L3 14.25C3 14.3945 3.04176 14.536 3.12026 14.6573L3.75 14.25C3.12026 14.6573 3.12081 14.6582 3.12081 14.6582L3.12141 14.6591L3.12274 14.6612L3.12598 14.6661L3.13474 14.6792C3.1416 14.6893 3.15052 14.7022 3.16154 14.7177C3.18357 14.7488 3.21407 14.7903 3.25347 14.8407C3.33225 14.9415 3.4468 15.0782 3.60078 15.2384C3.90883 15.559 4.37485 15.974 5.02766 16.3848C6.33974 17.2104 8.3771 18 11.3452 18C14.3129 18 16.1995 17.2099 17.3626 16.3541C17.9398 15.9294 18.3257 15.4981 18.5719 15.1613C18.6948 14.9931 18.7826 14.8488 18.842 14.741C18.8718 14.6871 18.8944 14.6422 18.9109 14.608C18.9191 14.5908 18.9257 14.5764 18.9309 14.5647L18.9377 14.5494L18.9402 14.5434L18.9413 14.5408L18.9418 14.5396C18.9418 14.5396 18.9423 14.5385 18.25 14.25L18.9423 14.5385C18.9804 14.4471 19 14.349 19 14.25L19 9.25C19 9.05123 18.9227 8.87053 18.7965 8.73632L21.6169 7.15411C21.8535 7.02139 22 6.77127 22 6.5C22 6.22873 21.8535 5.97861 21.6169 5.84589L11.3669 0.0958927ZM17.5 9.46361L11.3669 12.9041C11.139 13.032 10.861 13.032 10.6331 12.9041L4.5 9.46361L4.5 13.9968C4.54673 14.0525 4.60722 14.1209 4.68233 14.1991C4.91483 14.441 5.28735 14.776 5.8265 15.1152C6.89836 15.7896 8.65862 16.5 11.3452 16.5C14.0323 16.5 15.5981 15.7901 16.4737 15.1459C16.9159 14.8206 17.1959 14.5019 17.3608 14.2762C17.4223 14.1921 17.4679 14.1207 17.5 14.0665L17.5 9.46361ZM11 11.39L2.28296 6.5L11 1.60995L19.717 6.5L11 11.39Z" fill-rule="EVENODD"></path>
 </g>
</svg>