<svg viewBox="0 0 24 24" width="24" height="24" fill="currentColor" xmlns="http://www.w3.org/2000/svg">
 <g transform="translate(1, 1)">
  <path d="M17.75 0C17.3358 0 17 0.335786 17 0.75C17 1.16421 17.3358 1.5 17.75 1.5L19.4393 1.5L16.4697 4.46967C16.1768 4.76256 16.1768 5.23744 16.4697 5.53033C16.7626 5.82322 17.2374 5.82322 17.5303 5.53033L20.5 2.56066L20.5 4.25C20.5 4.66421 20.8358 5 21.25 5C21.6642 5 22 4.66421 22 4.25L22 0.75C22 0.551088 21.921 0.360322 21.7803 0.21967C21.6397 0.0790176 21.4489 0 21.25 0L17.75 0Z" fill-rule="NONZERO"></path>
  <path d="M10.8556 4.08965C10.6336 3.97012 10.3664 3.97012 10.1444 4.08965L0.394425 9.33965C0.151493 9.47046 0 9.72409 0 10C0 10.2759 0.151493 10.5295 0.394425 10.6604L3.02065 12.0745C3.00715 12.1308 3 12.1896 3 12.25L3 17.5833C3 17.6899 3.02269 17.7952 3.06657 17.8922L3.75 17.5833C3.06657 17.8922 3.06714 17.8935 3.06714 17.8935L3.06774 17.8948L3.06903 17.8976L3.07199 17.904L3.07948 17.9196C3.08518 17.9313 3.09232 17.9455 3.10101 17.9621C3.1184 17.9952 3.142 18.0376 3.17273 18.0881C3.23419 18.189 3.32411 18.3217 3.44966 18.4751C3.70139 18.7826 4.09338 19.1693 4.67969 19.5471C5.85696 20.3057 7.77228 21 10.8214 21C13.8642 21 15.6482 20.3081 16.6904 19.513C17.2101 19.1165 17.5285 18.7066 17.7199 18.3751C17.8151 18.2104 17.8777 18.067 17.9182 17.957C17.9385 17.902 17.9532 17.8553 17.9637 17.8184C17.9689 17.7999 17.9731 17.7839 17.9764 17.7704L17.9807 17.7523L17.9824 17.7447L17.9832 17.7413L17.9835 17.7397C17.9835 17.7397 17.9839 17.7381 17.25 17.5833L17.9839 17.7381C17.9946 17.6872 18 17.6354 18 17.5833L18 12.25C18 12.1896 17.9929 12.1308 17.9793 12.0745L20.6056 10.6604C20.8485 10.5295 21 10.2759 21 10C21 9.72409 20.8485 9.47046 20.6056 9.33965L10.8556 4.08965ZM16.5 12.871L10.8556 15.9104C10.6336 16.0299 10.3664 16.0299 10.1444 15.9104L4.5 12.871L4.5 17.3788C4.52768 17.419 4.56403 17.4684 4.61033 17.5249C4.76792 17.7174 5.04389 17.9974 5.49218 18.2862C6.38412 18.861 8.00451 19.5 10.8214 19.5C13.6447 19.5 15.0751 18.8586 15.7806 18.3204C16.1347 18.0502 16.3236 17.7935 16.421 17.6249C16.4596 17.558 16.4846 17.5036 16.5 17.466L16.5 12.871ZM10.5 14.3982L2.33195 10L10.5 5.60182L18.6681 10L10.5 14.3982Z" fill-rule="EVENODD"></path>
 </g>
</svg>