<svg viewBox="0 0 16 16" width="16" height="16" fill="currentColor" xmlns="http://www.w3.org/2000/svg">
 <g transform="translate(0, 1)">
  <path d="M2.25 0C1.00736 0 0 1.00736 0 2.25L0 11.75C0 12.9926 1.00736 14 2.25 14L13.75 14C14.9926 14 16 12.9926 16 11.75L16 2.25C16 1.00736 14.9926 0 13.75 0L2.25 0ZM1.5 2.25C1.5 1.83579 1.83579 1.5 2.25 1.5L13.75 1.5C14.1642 1.5 14.5 1.83579 14.5 2.25L14.5 11.75C14.5 12.1642 14.1642 12.5 13.75 12.5L11 12.5L11 12C11 11.5858 10.6642 11.25 10.25 11.25C9.83579 11.25 9.5 11.5858 9.5 12L9.5 12.5L6.5 12.5L6.5 12C6.5 11.5858 6.16421 11.25 5.75 11.25C5.33579 11.25 5 11.5858 5 12L5 12.5L2.25 12.5C1.83579 12.5 1.5 12.1642 1.5 11.75L1.5 10.5604L6.13566 6.85183L9.72241 8.19686C9.7516 8.20845 9.78141 8.21816 9.81166 8.22598C9.9175 8.25358 10.025 8.25698 10.1278 8.23913C10.2193 8.22338 10.3089 8.19042 10.3916 8.1397C10.423 8.12048 10.4531 8.09893 10.4815 8.07517L12.9685 6.0856C13.2919 5.82684 13.3444 5.35488 13.0856 5.03143C12.8269 4.70798 12.3549 4.65554 12.0314 4.9143L9.86425 6.64805L6.2787 5.30346C6.16571 5.25837 6.04324 5.2414 5.92256 5.25381C5.77686 5.26905 5.63853 5.32685 5.52544 5.41907L1.5 8.63942L1.5 2.25Z" fill-rule="EVENODD"></path>
 </g>
</svg>