<svg viewBox="0 0 16 16" width="16" height="16" fill="currentColor" xmlns="http://www.w3.org/2000/svg">
 <g transform="translate(0, 1)">
  <path d="M0 2.25C0 1.00736 1.00736 0 2.25 0L13.75 0C14.9926 0 16 1.00736 16 2.25L16 11.75C16 12.9926 14.9926 14 13.75 14L2.25 14C1.00736 14 0 12.9926 0 11.75L0 2.25ZM2.25 1.5C1.83579 1.5 1.5 1.83579 1.5 2.25L1.5 11.75C1.5 12.1642 1.83579 12.5 2.25 12.5L13.75 12.5C14.1642 12.5 14.5 12.1642 14.5 11.75L14.5 2.25C14.5 1.83579 14.1642 1.5 13.75 1.5L2.25 1.5Z" fill-rule="EVENODD"></path>
  <path d="M10.7022 7.76334C10.5568 8.15118 10.1245 8.34769 9.73665 8.20225L5.73666 6.70225C5.34882 6.55681 5.15231 6.1245 5.29775 5.73666C5.44319 5.34882 5.8755 5.15231 6.26334 5.29775L10.2633 6.79775C10.6512 6.94319 10.8477 7.3755 10.7022 7.76334Z" fill-rule="EVENODD"></path>
  <path d="M5.75 11.25C6.16421 11.25 6.5 11.5858 6.5 12L6.5 13C6.5 13.4142 6.16421 13.75 5.75 13.75C5.33579 13.75 5 13.4142 5 13L5 12C5 11.5858 5.33579 11.25 5.75 11.25Z" fill-rule="EVENODD"></path>
  <path d="M10.25 11.25C10.6642 11.25 11 11.5858 11 12L11 13C11 13.4142 10.6642 13.75 10.25 13.75C9.83579 13.75 9.5 13.4142 9.5 13L9.5 12C9.5 11.5858 9.83579 11.25 10.25 11.25Z" fill-rule="EVENODD"></path>
  <path d="M13.0857 5.03147C13.3444 5.35492 13.292 5.82689 12.9685 6.08565L10.4685 8.08565C10.1451 8.34441 9.6731 8.29197 9.41434 7.96852C9.15558 7.64508 9.20803 7.17311 9.53147 6.91435L12.0315 4.91434C12.3549 4.65559 12.8269 4.70803 13.0857 5.03147Z" fill-rule="EVENODD"></path>
  <path d="M0.414352 10.4685C0.155595 10.1451 0.208036 9.67311 0.531482 9.41435L5.53148 5.41435C5.85492 5.15559 6.32689 5.20803 6.58565 5.53148C6.84441 5.85492 6.79197 6.32689 6.46852 6.58565L1.46853 10.5857C1.14508 10.8444 0.67311 10.792 0.414352 10.4685Z" fill-rule="EVENODD"></path>
 </g>
</svg>