<svg viewBox="0 0 24 24" width="24" height="24" fill="currentColor" xmlns="http://www.w3.org/2000/svg">
 <g transform="translate(1, 2)">
  <path d="M2.75 0C1.23122 0 0 1.23122 0 2.75L0 14.0004C0 14.0004 0 14.0003 0 14.0004L0 17.25C0 18.7688 1.23122 20 2.75 20L19.25 20C20.7688 20 22 18.7688 22 17.25L22 2.75C22 1.23122 20.7688 0 19.25 0L2.75 0ZM1.5 14.3529L1.5 17.25C1.5 17.9404 2.05964 18.5 2.75 18.5L7 18.5L7 17.75C7 17.3358 7.33579 17 7.75 17C8.16421 17 8.5 17.3358 8.5 17.75L8.5 18.5L13.5 18.5L13.5 17.75C13.5 17.3358 13.8358 17 14.25 17C14.6642 17 15 17.3358 15 17.75L15 18.5L19.25 18.5C19.9404 18.5 20.5 17.9404 20.5 17.25L20.5 2.75C20.5 2.05964 19.9404 1.5 19.25 1.5L2.75 1.5C2.05964 1.5 1.5 2.05964 1.5 2.75L1.5 12.4058L7.50671 7.43475C7.54715 7.39948 7.59102 7.36891 7.63742 7.34335C7.71454 7.30065 7.79711 7.27278 7.88124 7.25937C8.00401 7.23957 8.13264 7.25007 8.25547 7.29474C8.28741 7.30627 8.31867 7.32002 8.34902 7.33595L13.9208 10.1219L17.55 7.39995C17.8814 7.15142 18.3515 7.21858 18.6 7.54995C18.8486 7.88132 18.7814 8.35142 18.45 8.59995L14.4626 11.5905C14.3495 11.679 14.2131 11.733 14.0711 11.7467C13.9623 11.7571 13.8501 11.7439 13.7425 11.7044C13.7113 11.6931 13.6807 11.6796 13.651 11.664L8.10174 8.88936L1.5 14.3529Z" fill-rule="EVENODD"></path>
 </g>
</svg>