<svg viewBox="0 0 24 24" width="24" height="24" fill="currentColor" xmlns="http://www.w3.org/2000/svg">
 <g transform="translate(2, 1.9999998807907104)">
  <path d="M14.5751 0.000206141C13.141 -0.0122178 11.7589 0.537376 10.7267 1.53131L9.09441 3.14901C8.80021 3.4406 8.7981 3.91547 9.08969 4.20966C9.38127 4.50386 9.85614 4.50597 10.1503 4.21438L11.7708 2.60825C12.5195 1.88927 13.5216 1.49114 14.5621 1.50015C15.6044 1.50918 16.601 1.92598 17.3373 2.66007C18.0736 3.39408 18.4908 4.38655 18.4999 5.42358C18.5089 6.45853 18.1106 7.45613 17.39 8.20228L14.5613 11.0223C14.1587 11.4239 13.6741 11.7345 13.1402 11.9331C12.6062 12.1316 12.0357 12.2134 11.4671 12.1728C10.8986 12.1322 10.3456 11.9702 9.84563 11.6979C9.34565 11.4256 8.91045 11.0493 8.56944 10.5948C8.32085 10.2635 7.85073 10.1964 7.51941 10.445C7.18809 10.6936 7.12102 11.1637 7.36961 11.4951C7.83983 12.1217 8.4396 12.6401 9.12814 13.0152C9.81668 13.3902 10.5779 13.6131 11.3603 13.669C12.1427 13.7249 12.928 13.6123 13.663 13.339C14.398 13.0657 15.0657 12.6378 15.6205 12.0844L18.454 9.25985L18.463 9.25048C19.4602 8.22126 20.0123 6.8423 19.9998 5.41051C19.9873 3.97872 19.4112 2.60956 18.3964 1.59779C17.3816 0.586088 16.0093 0.0126301 14.5751 0.000206141Z" fill-rule="NONZERO"></path>
  <path d="M8.6397 6.33083C7.85734 6.27497 7.07203 6.3875 6.33702 6.66084C5.60204 6.93417 4.93435 7.36203 4.37947 7.91538L1.54604 10.74L1.53697 10.7493C0.539857 11.7786 -0.012273 13.1575 0.000207056 14.5893C0.0126871 16.0211 0.588768 17.3903 1.60365 18.402C2.61845 19.4137 3.99076 19.9872 5.42488 19.9996C6.859 20.012 8.24115 19.4625 9.27342 18.4686L10.8977 16.8493C11.1911 16.5568 11.1918 16.0819 10.8993 15.7886C10.6069 15.4953 10.132 15.4945 9.83868 15.787L8.22842 17.3923C7.47985 18.1108 6.47807 18.5087 5.43788 18.4997C4.39559 18.4906 3.39902 18.0738 2.66268 17.3398C1.92641 16.6057 1.50919 15.6133 1.50015 14.5762C1.49113 13.5413 1.88937 12.5437 2.60997 11.7975L5.4387 8.97747C5.8413 8.57596 6.32595 8.26532 6.85986 8.06677C7.39378 7.86821 7.96436 7.78643 8.53288 7.82702C9.10139 7.86761 9.6544 8.02961 10.1544 8.30194C10.6544 8.57427 11.0896 8.95051 11.4306 9.405C11.6792 9.73632 12.1493 9.80339 12.4806 9.5548C12.8119 9.3062 12.879 8.83609 12.6304 8.50477C12.1602 7.87807 11.5604 7.3597 10.8719 6.98467C10.1833 6.60964 9.42207 6.38669 8.6397 6.33083Z" fill-rule="NONZERO"></path>
 </g>
</svg>