<svg viewBox="0 0 16 16" width="16" height="16" fill="currentColor" xmlns="http://www.w3.org/2000/svg">
 <g transform="translate(0.9999999403953552, 0.9999999403953552)">
  <path d="M7.40295 1.09274C8.13713 0.383644 9.12044 -0.00872213 10.1411 0.000147156C11.1618 0.00901645 12.1381 0.418412 12.8599 1.14016C13.5816 1.8619 13.991 2.83825 13.9999 3.85892C14.0087 4.87958 13.6164 5.86289 12.9073 6.59707L12.8982 6.60645L11.0126 8.49192L11.0126 8.49192C10.618 8.88665 10.143 9.192 9.62005 9.38708C9.09705 9.58217 8.53821 9.66251 7.98144 9.62263C7.42467 9.58276 6.88298 9.4236 6.39312 9.15597C5.90327 8.88834 5.4767 8.51849 5.14235 8.0715C4.89424 7.73981 4.962 7.2698 5.29369 7.0217C5.62537 6.77359 6.09539 6.84135 6.34349 7.17303C6.54901 7.44778 6.81121 7.67512 7.11231 7.83962C7.4134 8.00413 7.74636 8.10195 8.08859 8.12646C8.43082 8.15097 8.77432 8.10159 9.09579 7.98168C9.41726 7.86176 9.70918 7.67411 9.95175 7.43145L11.8326 5.55062C12.2658 5.09982 12.5054 4.49729 12.4999 3.87195C12.4945 3.24458 12.2428 2.64445 11.7992 2.20082C11.3556 1.75718 10.7554 1.50554 10.1281 1.50009C9.50239 1.49465 8.89954 1.73452 8.44866 2.16816L7.37166 3.2389C7.07792 3.53093 6.60304 3.52955 6.31101 3.2358C6.01897 2.94206 6.02035 2.46719 6.3141 2.17515L7.40295 1.09274Z" fill-rule="EVENODD"></path>
  <path d="M4.37998 4.60048C4.90297 4.40538 5.46181 4.32505 6.01858 4.36493C6.57536 4.4048 7.11704 4.56395 7.6069 4.83158C8.09676 5.09921 8.52333 5.46907 8.85768 5.91605C9.10578 6.24774 9.03802 6.71776 8.70634 6.96586C8.37465 7.21397 7.90463 7.14621 7.65653 6.81452C7.45102 6.53977 7.18882 6.31244 6.88772 6.14793C6.58662 5.98343 6.25366 5.8856 5.91143 5.86109C5.5692 5.83658 5.2257 5.88596 4.90423 6.00588C4.58276 6.1258 4.29084 6.31345 4.04828 6.55611L2.16745 8.43693C1.73426 8.88773 1.49466 9.49027 1.50009 10.1156C1.50554 10.743 1.75718 11.3431 2.20082 11.7867C2.64445 12.2304 3.24458 12.482 3.87195 12.4875C4.49729 12.4929 5.09982 12.2533 5.55062 11.8201L6.62053 10.7502C6.91342 10.4573 7.38829 10.4573 7.68119 10.7502C7.97408 11.0431 7.97408 11.518 7.68119 11.8109L6.59715 12.8949C5.86297 13.604 4.87958 13.9963 3.85892 13.9874C2.83825 13.9785 1.8619 13.5691 1.14016 12.8474C0.418412 12.1257 0.00901645 11.1493 0.000147156 10.1286C-0.00872213 9.10798 0.383644 8.12466 1.09274 7.39048L1.10179 7.38111L2.98742 5.49564L2.98742 5.49564C3.38204 5.10091 3.85702 4.79555 4.37998 4.60048Z" fill-rule="EVENODD"></path>
 </g>
</svg>