<svg viewBox="0 0 24 24" width="24" height="24" fill="currentColor" xmlns="http://www.w3.org/2000/svg">
 <g transform="translate(2, 2)">
  <path d="M10.7266 1.53131C11.7589 0.537376 13.141 -0.0122178 14.5751 0.000206141C16.0092 0.0126301 17.3815 0.586088 18.3963 1.59779C19.4112 2.60956 19.9873 3.97872 19.9998 5.41051C20.0122 6.8423 19.4601 8.22126 18.463 9.25048L18.4539 9.25985L15.6205 12.0844L15.6205 12.0844C15.0656 12.6378 14.3979 13.0657 13.663 13.339C12.9279 13.6123 12.1426 13.7249 11.3603 13.669C10.5779 13.6131 9.81664 13.3902 9.1281 13.0152C8.43956 12.6401 7.83978 12.1217 7.36957 11.4951C7.12098 11.1637 7.18804 10.6936 7.51937 10.445C7.85069 10.1964 8.3208 10.2635 8.5694 10.5948C8.9104 11.0493 9.3456 11.4256 9.84558 11.6979C10.3456 11.9702 10.8986 12.1322 11.4671 12.1728C12.0356 12.2134 12.6062 12.1316 13.1401 11.9331C13.674 11.7345 14.1587 11.4239 14.5613 11.0223L17.39 8.20228C18.1106 7.45613 18.5088 6.45853 18.4998 5.42358C18.4908 4.38655 18.0736 3.39408 17.3373 2.66007C16.6009 1.92598 15.6044 1.50918 14.5621 1.50015C13.5215 1.49114 12.5194 1.88927 11.7708 2.60825L10.1503 4.21438C9.8561 4.50597 9.38123 4.50386 9.08964 4.20966C8.79806 3.91547 8.80017 3.4406 9.09436 3.14901L10.7266 1.53131Z" fill-rule="EVENODD"></path>
  <path d="M6.33702 6.66084C7.07203 6.3875 7.85734 6.27497 8.6397 6.33083C9.42207 6.38669 10.1833 6.60964 10.8719 6.98467C11.5604 7.3597 12.1602 7.87807 12.6304 8.50477C12.879 8.83609 12.8119 9.3062 12.4806 9.5548C12.1493 9.80339 11.6792 9.73632 11.4306 9.405C11.0896 8.95051 10.6544 8.57427 10.1544 8.30194C9.6544 8.02961 9.10139 7.86761 8.53288 7.82702C7.96436 7.78643 7.39378 7.86821 6.85986 8.06677C6.32595 8.26532 5.8413 8.57596 5.4387 8.97747L2.60997 11.7975C1.88937 12.5437 1.49113 13.5413 1.50015 14.5762C1.50919 15.6133 1.92641 16.6057 2.66268 17.3398C3.39902 18.0738 4.39559 18.4906 5.43788 18.4997C6.47807 18.5087 7.47985 18.1108 8.22842 17.3923L9.83868 15.787C10.132 15.4945 10.6069 15.4953 10.8993 15.7886C11.1918 16.0819 11.1911 16.5568 10.8977 16.8493L9.27342 18.4686C8.24115 19.4625 6.859 20.012 5.42488 19.9996C3.99076 19.9872 2.61845 19.4137 1.60365 18.402C0.588768 17.3903 0.0126871 16.0211 0.000207056 14.5893C-0.012273 13.1575 0.539857 11.7786 1.53697 10.7493L1.54604 10.74L4.37947 7.91538L4.37947 7.91538C4.93435 7.36203 5.60204 6.93417 6.33702 6.66084Z" fill-rule="EVENODD"></path>
 </g>
</svg>