<svg viewBox="0 0 16 16" width="16" height="16" fill="currentColor" xmlns="http://www.w3.org/2000/svg">
 <g transform="translate(1, 1)">
  <path d="M10.1412 0.000147156C9.12049 -0.00872213 8.13717 0.383644 7.40299 1.09274L6.31414 2.17515C6.0204 2.46719 6.01901 2.94206 6.31105 3.2358C6.60309 3.52955 7.07796 3.53093 7.37171 3.2389L8.44871 2.16816C8.89959 1.73452 9.50244 1.49465 10.1281 1.50009C10.7555 1.50554 11.3556 1.75718 11.7993 2.20082C12.2429 2.64445 12.4945 3.24458 12.5 3.87195C12.5054 4.49729 12.2658 5.09982 11.8326 5.55062L9.95179 7.43145C9.70922 7.67411 9.4173 7.86176 9.09583 7.98168C8.77437 8.10159 8.43087 8.15097 8.08864 8.12646C7.74641 8.10195 7.41345 8.00413 7.11235 7.83962C6.81125 7.67512 6.54905 7.44778 6.34354 7.17303C6.09543 6.84135 5.62542 6.77359 5.29373 7.0217C4.96204 7.2698 4.89429 7.73981 5.14239 8.0715C5.47674 8.51849 5.90331 8.88834 6.39317 9.15597C6.88303 9.4236 7.42471 9.58276 7.98148 9.62263C8.53826 9.66251 9.0971 9.58217 9.62009 9.38708C10.143 9.192 10.618 8.88665 11.0126 8.49192L12.8983 6.60645L12.9073 6.59707C13.6164 5.86289 14.0088 4.87958 13.9999 3.85892C13.9911 2.83825 13.5817 1.8619 12.8599 1.14016C12.1382 0.418412 11.1618 0.00901645 10.1412 0.000147156Z" fill-rule="NONZERO"></path>
  <path d="M6.01858 4.36493C5.46181 4.32505 4.90297 4.40538 4.37998 4.60048C3.85702 4.79555 3.38204 5.10091 2.98742 5.49564L1.10179 7.38111L1.09274 7.39048C0.383644 8.12466 -0.00872213 9.10798 0.000147156 10.1286C0.00901645 11.1493 0.418412 12.1257 1.14016 12.8474C1.8619 13.5691 2.83825 13.9785 3.85892 13.9874C4.87958 13.9963 5.86297 13.604 6.59715 12.8949L7.68119 11.8109C7.97408 11.518 7.97408 11.0431 7.68119 10.7502C7.38829 10.4573 6.91342 10.4573 6.62053 10.7502L5.55062 11.8201C5.09982 12.2533 4.49729 12.4929 3.87195 12.4875C3.24458 12.482 2.64445 12.2304 2.20082 11.7867C1.75718 11.3431 1.50554 10.743 1.50009 10.1156C1.49466 9.49027 1.73426 8.88773 2.16745 8.43693L4.04828 6.55611C4.29085 6.31345 4.58276 6.1258 4.90423 6.00588C5.2257 5.88596 5.5692 5.83658 5.91143 5.86109C6.25366 5.8856 6.58662 5.98343 6.88772 6.14793C7.18882 6.31244 7.45102 6.53977 7.65653 6.81452C7.90463 7.14621 8.37465 7.21397 8.70634 6.96586C9.03802 6.71776 9.10578 6.24774 8.85768 5.91605C8.52333 5.46907 8.09676 5.09921 7.6069 4.83158C7.11704 4.56395 6.57536 4.4048 6.01858 4.36493Z" fill-rule="NONZERO"></path>
 </g>
</svg>