<svg viewBox="0 0 24 24" width="24" height="24" fill="black" xmlns="http://www.w3.org/2000/svg">
 <g transform="translate(4.5, 5)">
  <path d="M0 0.75C0 0.335786 0.335786 0 0.75 0L14.25 0C14.6642 0 15 0.335786 15 0.75C15 1.16421 14.6642 1.5 14.25 1.5L0.75 1.5C0.335786 1.5 0 1.16421 0 0.75Z" fill-rule="EVENODD"></path>
  <path d="M0 6.75C0 6.33579 0.335786 6 0.75 6L14.25 6C14.6642 6 15 6.33579 15 6.75C15 7.16421 14.6642 7.5 14.25 7.5L0.75 7.5C0.335786 7.5 0 7.16421 0 6.75Z" fill-rule="EVENODD"></path>
  <path d="M0 12.75C0 12.3358 0.335786 12 0.75 12L14.25 12C14.6642 12 15 12.3358 15 12.75C15 13.1642 14.6642 13.5 14.25 13.5L0.75 13.5C0.335786 13.5 0 13.1642 0 12.75Z" fill-rule="EVENODD"></path>
 </g>
</svg>