<svg viewBox="0 0 16 16" width="16" height="16" fill="currentColor" xmlns="http://www.w3.org/2000/svg">
 <g transform="translate(2, 0)">
  <path d="M0 7.25C0 6.00736 1.00736 5 2.25 5L9.75 5C10.9926 5 12 6.00736 12 7.25L12 12.75C12 13.9926 10.9926 15 9.75 15L2.25 15C1.00736 15 0 13.9926 0 12.75L0 7.25ZM6 9.25C5.58579 9.25 5.25 9.58579 5.25 10L5.25 11C5.25 11.4142 5.58579 11.75 6 11.75C6.41421 11.75 6.75 11.4142 6.75 11L6.75 10C6.75 9.58579 6.41421 9.25 6 9.25Z" fill-rule="EVENODD"></path>
  <path d="M6 1.5C5.34317 1.5 4.70929 1.76744 4.2389 2.24989C3.76789 2.73298 3.5 3.39215 3.5 4.08333L3.5 5.65625C3.5 6.07046 3.16421 6.40625 2.75 6.40625C2.33579 6.40625 2 6.07046 2 5.65625L2 4.08333C2 3.00641 2.41693 1.96988 3.1649 1.20274C3.9135 0.434943 4.93292 0 6 0C7.06708 0 8.0865 0.434943 8.8351 1.20274C9.58307 1.96988 10 3.00641 10 4.08333L10 5.65625C10 6.07046 9.66421 6.40625 9.25 6.40625C8.83579 6.40625 8.5 6.07046 8.5 5.65625L8.5 4.08333C8.5 3.39215 8.23211 2.73298 7.7611 2.24989C7.29071 1.76744 6.65683 1.5 6 1.5Z" fill-rule="EVENODD"></path>
 </g>
</svg>