<svg viewBox="0 0 24 24" width="24" height="24" fill="black" xmlns="http://www.w3.org/2000/svg">
 <g transform="translate(1.25, 3.25)">
  <path d="M2.75 0C1.2398 0 0.00655028 1.22925 2.60065e-05 2.73797L0 14.75C0 16.2642 1.23579 17.5 2.75 17.5L18.75 17.5C20.2642 17.5 21.5 16.2642 21.5 14.75L21.5 2.75953C21.4931 1.25109 20.26 0 18.75 0L2.75 0ZM2.75 1.5C2.18703 1.5 1.70599 1.88022 1.55174 2.39579L10.75 8.83457L19.9483 2.3958C19.794 1.88022 19.313 1.5 18.75 1.5L2.75 1.5ZM20 12.9394L20 4.19056L14.8536 7.79302L20 12.9394ZM13.6058 8.66651L19.9682 15.0289C19.8401 15.5823 19.34 16 18.75 16L2.75 16C2.15996 16 1.65991 15.5823 1.53179 15.0289L7.89421 8.6665L10.3199 10.3645C10.5781 10.5453 10.9219 10.5453 11.1801 10.3645L13.6058 8.66651ZM1.5 4.19055L1.5 12.9394L6.64638 7.79302L1.5 4.19055Z" fill-rule="EVENODD"></path>
 </g>
</svg>