<svg viewBox="0 0 16 16" width="16" height="16" fill="currentColor" xmlns="http://www.w3.org/2000/svg">
 <g transform="translate(0, 1)">
  <path d="M0 2.25C0 1.00736 1.00736 0 2.25 0L13.75 0C14.9926 0 16 1.00736 16 2.25L16 11.75C16 12.9926 14.9926 14 13.75 14L2.25 14C1.00736 14 0 12.9926 0 11.75L0 2.25ZM2.25 1.5C1.83579 1.5 1.5 1.83579 1.5 2.25L1.5 11.75C1.5 12.1642 1.83579 12.5 2.25 12.5L13.75 12.5C14.1642 12.5 14.5 12.1642 14.5 11.75L14.5 2.25C14.5 1.83579 14.1642 1.5 13.75 1.5L2.25 1.5Z" fill-rule="EVENODD"></path>
  <path d="M0.410261 2.28663C0.666171 1.96093 1.13766 1.90435 1.46337 2.16026L8 7.29619L14.5366 2.16026C14.8623 1.90435 15.3338 1.96093 15.5897 2.28663C15.8456 2.61234 15.7891 3.08383 15.4634 3.33974L8.46337 8.83974C8.19141 9.05342 7.80859 9.05342 7.53663 8.83974L0.536634 3.33974C0.21093 3.08383 0.154351 2.61234 0.410261 2.28663Z" fill-rule="EVENODD"></path>
  <path d="M7.05496 7.5045L2.05496 13.0045L0.94505 11.9955L5.94505 6.49549L7.05496 7.5045ZM13.9451 13.0045L8.94505 7.5045L10.055 6.49549L15.055 11.9955L13.9451 13.0045Z" fill-rule="EVENODD"></path>
 </g>
</svg>