<svg viewBox="0 0 16 16" width="16" height="16" fill="currentColor" xmlns="http://www.w3.org/2000/svg">
 <g transform="translate(0, 0.1057128831744194)">
  <path d="M8.80284 0.14811C8.28583 -0.0493698 7.71417 -0.0493702 7.19716 0.14811L1.44716 2.3444C0.575677 2.67727 0 3.5134 0 4.44629L0 12.6443C0 13.8869 1.00736 14.8943 2.25 14.8943L13.75 14.8943C14.9926 14.8943 16 13.8869 16 12.6443L16 4.44629C16 3.5134 15.4243 2.67727 14.5528 2.3444L8.80284 0.14811ZM7.73239 1.54937C7.90472 1.48354 8.09528 1.48354 8.26761 1.54937L14.0176 3.74566C14.1372 3.79134 14.2401 3.86547 14.3198 3.95858L8.00006 8.47267L1.68026 3.95853C1.75992 3.86544 1.8628 3.79133 1.98239 3.74566L7.73239 1.54937ZM1.5 5.67312L1.5 12.2731L5.11566 8.25574L1.5 5.67312ZM2.509 13.3943L13.491 13.3943L9.65598 9.13322L8.43599 10.0046C8.17521 10.1909 7.8249 10.1909 7.56413 10.0046L6.34403 9.13315L2.509 13.3943ZM14.5 12.2732L14.5 5.67321L10.8844 8.25581L14.5 12.2732Z" fill-rule="EVENODD"></path>
 </g>
</svg>