<svg viewBox="0 0 24 24" width="24" height="24" fill="currentColor" xmlns="http://www.w3.org/2000/svg">
 <g transform="translate(1, 3)">
  <path d="M0 2.75C0 1.23122 1.23122 0 2.75 0L19.25 0C20.7688 0 22 1.23122 22 2.75L22 15.25C22 16.7688 20.7688 18 19.25 18L2.75 18C1.23122 18 0 16.7688 0 15.25L0 2.75ZM2.75 1.5C2.05964 1.5 1.5 2.05964 1.5 2.75L1.5 15.25C1.5 15.9404 2.05964 16.5 2.75 16.5L19.25 16.5C19.9404 16.5 20.5 15.9404 20.5 15.25L20.5 2.75C20.5 2.05964 19.9404 1.5 19.25 1.5L2.75 1.5Z" fill-rule="EVENODD"></path>
  <path d="M0.4 2.05C0.648528 1.71863 1.11863 1.65147 1.45 1.9L11 9.0625L20.55 1.9C20.8814 1.65147 21.3515 1.71863 21.6 2.05C21.8485 2.38137 21.7814 2.85147 21.45 3.1L11.45 10.6C11.1833 10.8 10.8167 10.8 10.55 10.6L0.55 3.1C0.218629 2.85147 0.151472 2.38137 0.4 2.05Z" fill-rule="EVENODD"></path>
  <path d="M8.53033 8.53033L1.53033 15.5303L0.46967 14.4697L7.46967 7.46967L8.53033 8.53033ZM20.4697 15.5303L13.4697 8.53033L14.5303 7.46967L21.5303 14.4697L20.4697 15.5303Z" fill-rule="EVENODD"></path>
 </g>
</svg>