<svg viewBox="0 0 16 16" width="16" height="16" fill="currentColor" xmlns="http://www.w3.org/2000/svg">
 <g transform="translate(0, 1.054931640625)">
  <path d="M5.19932 0.131966C5.53942 -0.0380839 5.93844 -0.0440834 6.2835 0.115666L10.2659 1.95937L14.2692 0.291308C15.0926 -0.0517585 16 0.553181 16 1.44515L16 10.3861C16 10.8596 15.7325 11.2924 15.309 11.5042L10.8007 13.7583C10.4606 13.9284 10.0616 13.9344 9.7165 13.7746L5.73411 11.9309L1.73077 13.599C0.90741 13.9421 0 13.3371 0 12.4452L0 3.50417C0 3.03071 0.267504 2.59788 0.690983 2.38614L5.19932 0.131966ZM1.5 3.65868L5 1.90868L5 10.6118L1.5 12.0702L1.5 3.65868ZM9.5 12.0215L6.5 10.6326L6.5 1.86885L9.5 3.25774L9.5 12.0215ZM11 11.9816L14.5 10.2316L14.5 1.82015L11 3.27849L11 11.9816Z" fill-rule="EVENODD"></path>
 </g>
</svg>