<svg viewBox="0 0 16 16" width="16" height="16" fill="currentColor" xmlns="http://www.w3.org/2000/svg">
 <g transform="translate(1, 0)">
  <path d="M7 4.5C5.61929 4.5 4.5 5.61929 4.5 7C4.5 8.38071 5.61929 9.5 7 9.5C8.38071 9.5 9.5 8.38071 9.5 7C9.5 5.61929 8.38071 4.5 7 4.5ZM6 7C6 6.44772 6.44772 6 7 6C7.55228 6 8 6.44772 8 7C8 7.55229 7.55228 8 7 8C6.44772 8 6 7.55229 6 7Z" fill-rule="EVENODD"></path>
  <path d="M7 0C3.13806 0 0 3.11397 0 6.96429C0 8.88863 0.785424 10.6312 2.05177 11.8903C2.06251 11.901 2.07357 11.9113 2.08493 11.9213L6.50435 15.8129C6.78769 16.0624 7.21231 16.0624 7.49565 15.8129L11.9151 11.9213C11.9264 11.9113 11.9375 11.901 11.9482 11.8903C13.2146 10.6312 14 8.88863 14 6.96429C14 3.11397 10.8619 0 7 0ZM1.5 6.96429C1.5 3.95049 3.95838 1.5 7 1.5C10.0416 1.5 12.5 3.95049 12.5 6.96429C12.5 8.46412 11.8927 9.82233 10.9062 10.8111L7 14.2507L3.09383 10.8111C2.10729 9.82233 1.5 8.46412 1.5 6.96429Z" fill-rule="EVENODD"></path>
 </g>
</svg>