<svg viewBox="0 0 16 16" width="16" height="16" fill="black" xmlns="http://www.w3.org/2000/svg">
 <g transform="translate(1, 0)">
  <path d="M7 6C6.44772 6 6 6.44771 6 7C6 7.55229 6.44772 8 7 8C7.55228 8 8 7.55229 8 7C8 6.44771 7.55228 6 7 6ZM4.5 7C4.5 5.61929 5.61929 4.5 7 4.5C8.38071 4.5 9.5 5.61929 9.5 7C9.5 8.38071 8.38071 9.5 7 9.5C5.61929 9.5 4.5 8.38071 4.5 7Z" fill-rule="EVENODD"></path>
  <path d="M7 1.5C3.95838 1.5 1.5 3.95049 1.5 6.96429C1.5 8.46412 2.10729 9.82233 3.09383 10.8111L7 14.2507L10.9062 10.8111C11.8927 9.82233 12.5 8.46412 12.5 6.96429C12.5 3.95049 10.0416 1.5 7 1.5ZM0 6.96429C0 3.11397 3.13806 0 7 0C10.8619 0 14 3.11397 14 6.96429C14 8.88863 13.2146 10.6312 11.9482 11.8903C11.9375 11.901 11.9264 11.9113 11.9151 11.9213L7.49565 15.8129C7.21231 16.0624 6.78769 16.0624 6.50435 15.8129L2.08493 11.9213C2.07357 11.9113 2.06251 11.901 2.05177 11.8903C0.785424 10.6312 0 8.88863 0 6.96429Z" fill-rule="EVENODD"></path>
 </g>
</svg>