<svg viewBox="0 0 24 24" width="24" height="24" fill="currentColor" xmlns="http://www.w3.org/2000/svg">
 <g transform="translate(1.9999998807907104, 2)">
  <path d="M13.75 0C13.3358 0 13 0.335786 13 0.75C13 1.16421 13.3358 1.5 13.75 1.5L17.4393 1.5L12.2197 6.71967C11.9268 7.01256 11.9268 7.48744 12.2197 7.78033C12.5126 8.07322 12.9874 8.07322 13.2803 7.78033L18.5 2.56066L18.5 6.25C18.5 6.66421 18.8358 7 19.25 7C19.6642 7 20 6.66421 20 6.25L20 0.75C20 0.737056 19.9997 0.724188 19.999 0.711405C19.9946 0.623761 19.9751 0.540086 19.9431 0.462912C19.9065 0.374453 19.8522 0.291577 19.7803 0.21967C19.7084 0.147763 19.6255 0.0935089 19.5371 0.0569091C19.4487 0.0202391 19.3517 0 19.25 0L13.75 0Z" fill-rule="NONZERO"></path>
  <path d="M1.5 13.75C1.5 13.3358 1.16421 13 0.75 13C0.335786 13 0 13.3358 0 13.75L0 19.25C0 19.3517 0.0202391 19.4487 0.0569091 19.5371C0.0935089 19.6255 0.147763 19.7084 0.21967 19.7803C0.291577 19.8522 0.374453 19.9065 0.462912 19.9431C0.540086 19.9751 0.623761 19.9946 0.711405 19.999C0.724188 19.9997 0.737056 20 0.75 20L6.25 20C6.66421 20 7 19.6642 7 19.25C7 18.8358 6.66421 18.5 6.25 18.5L2.56066 18.5L7.78033 13.2803C8.07322 12.9874 8.07322 12.5126 7.78033 12.2197C7.48744 11.9268 7.01256 11.9268 6.71967 12.2197L1.5 17.4393L1.5 13.75Z" fill-rule="NONZERO"></path>
 </g>
</svg>