<svg viewBox="0 0 24 24" width="24" height="24" fill="black" xmlns="http://www.w3.org/2000/svg">
 <g transform="translate(2.25, 2.25)">
  <path d="M0.805456 0.805456C1.32118 0.289731 2.02065 0 2.75 0L5.75 0C6.16421 0 6.5 0.335786 6.5 0.75C6.5 1.16421 6.16421 1.5 5.75 1.5L2.75 1.5C2.41848 1.5 2.10054 1.6317 1.86612 1.86612C1.6317 2.10054 1.5 2.41848 1.5 2.75L1.5 5.75C1.5 6.16421 1.16421 6.5 0.75 6.5C0.335786 6.5 0 6.16421 0 5.75L0 2.75C0 2.02065 0.289731 1.32118 0.805456 0.805456ZM13 0.75C13 0.335786 13.3358 0 13.75 0L16.75 0C17.4793 0 18.1788 0.289731 18.6945 0.805456C19.2103 1.32118 19.5 2.02065 19.5 2.75L19.5 5.75C19.5 6.16421 19.1642 6.5 18.75 6.5C18.3358 6.5 18 6.16421 18 5.75L18 2.75C18 2.41848 17.8683 2.10054 17.6339 1.86612C17.3995 1.6317 17.0815 1.5 16.75 1.5L13.75 1.5C13.3358 1.5 13 1.16421 13 0.75ZM0.75 13C1.16421 13 1.5 13.3358 1.5 13.75L1.5 16.75C1.5 17.0815 1.6317 17.3995 1.86612 17.6339C2.10054 17.8683 2.41848 18 2.75 18L5.75 18C6.16421 18 6.5 18.3358 6.5 18.75C6.5 19.1642 6.16421 19.5 5.75 19.5L2.75 19.5C2.02065 19.5 1.32118 19.2103 0.805456 18.6945C0.289731 18.1788 0 17.4793 0 16.75L0 13.75C0 13.3358 0.335786 13 0.75 13ZM18.75 13C19.1642 13 19.5 13.3358 19.5 13.75L19.5 16.75C19.5 17.4793 19.2103 18.1788 18.6945 18.6945C18.1788 19.2103 17.4793 19.5 16.75 19.5L13.75 19.5C13.3358 19.5 13 19.1642 13 18.75C13 18.3358 13.3358 18 13.75 18L16.75 18C17.0815 18 17.3995 17.8683 17.6339 17.6339C17.8683 17.3995 18 17.0815 18 16.75L18 13.75C18 13.3358 18.3358 13 18.75 13Z" fill-rule="EVENODD"></path>
 </g>
</svg>