<svg viewBox="0 0 16 16" width="16" height="16" fill="black" xmlns="http://www.w3.org/2000/svg">
 <g transform="translate(1, 1)">
  <path d="M0 2.25C0 1.00736 1.00736 0 2.25 0L4.2973 0C4.71151 0 5.0473 0.335786 5.0473 0.75C5.0473 1.16421 4.71151 1.5 4.2973 1.5L2.25 1.5C1.83579 1.5 1.5 1.83579 1.5 2.25L1.5 4.2973C1.5 4.71151 1.16421 5.0473 0.75 5.0473C0.335786 5.0473 0 4.71151 0 4.2973L0 2.25ZM8.9527 0.75C8.9527 0.335786 9.28849 0 9.7027 0L11.75 0C12.9926 0 14 1.00736 14 2.25L14 4.2973C14 4.71151 13.6642 5.0473 13.25 5.0473C12.8358 5.0473 12.5 4.71151 12.5 4.2973L12.5 2.25C12.5 1.83579 12.1642 1.5 11.75 1.5L9.7027 1.5C9.28849 1.5 8.9527 1.16421 8.9527 0.75ZM0.75 8.9527C1.16421 8.9527 1.5 9.28849 1.5 9.7027L1.5 11.75C1.5 12.1642 1.83579 12.5 2.25 12.5L4.2973 12.5C4.71151 12.5 5.0473 12.8358 5.0473 13.25C5.0473 13.6642 4.71151 14 4.2973 14L2.25 14C1.00736 14 0 12.9926 0 11.75L0 9.7027C0 9.28849 0.335786 8.9527 0.75 8.9527ZM13.25 8.9527C13.6642 8.9527 14 9.28849 14 9.7027L14 11.75C14 12.9926 12.9926 14 11.75 14L9.7027 14C9.28849 14 8.9527 13.6642 8.9527 13.25C8.9527 12.8358 9.28849 12.5 9.7027 12.5L11.75 12.5C12.1642 12.5 12.5 12.1642 12.5 11.75L12.5 9.7027C12.5 9.28849 12.8358 8.9527 13.25 8.9527Z" fill-rule="EVENODD"></path>
 </g>
</svg>