<svg viewBox="0 0 16 16" width="16" height="16" fill="currentColor" xmlns="http://www.w3.org/2000/svg">
 <g transform="translate(1, 1)">
  <path d="M8.5 0.75C8.5 0.335786 8.83579 0 9.25 0L13.25 0C13.6642 0 14 0.335786 14 0.75L14 4.75C14 5.16421 13.6642 5.5 13.25 5.5C12.8358 5.5 12.5 5.16421 12.5 4.75L12.5 1.5L9.25 1.5C8.83579 1.5 8.5 1.16421 8.5 0.75Z" fill-rule="EVENODD"></path>
  <path d="M0.75 8.5C1.16421 8.5 1.5 8.83579 1.5 9.25L1.5 12.5L4.75 12.5C5.16421 12.5 5.5 12.8358 5.5 13.25C5.5 13.6642 5.16421 14 4.75 14L0.75 14C0.335786 14 0 13.6642 0 13.25L0 9.25C0 8.83579 0.335786 8.5 0.75 8.5Z" fill-rule="EVENODD"></path>
  <path d="M13.5303 0.46967C13.8232 0.762563 13.8232 1.23744 13.5303 1.53033L9.53033 5.53033C9.23744 5.82322 8.76256 5.82322 8.46967 5.53033C8.17678 5.23744 8.17678 4.76256 8.46967 4.46967L12.4697 0.46967C12.7626 0.176777 13.2374 0.176777 13.5303 0.46967Z" fill-rule="EVENODD"></path>
  <path d="M5.53033 8.46967C5.82322 8.76256 5.82322 9.23744 5.53033 9.53033L1.53033 13.5303C1.23744 13.8232 0.762563 13.8232 0.46967 13.5303C0.176777 13.2374 0.176777 12.7626 0.46967 12.4697L4.46967 8.46967C4.76256 8.17678 5.23744 8.17678 5.53033 8.46967Z" fill-rule="EVENODD"></path>
 </g>
</svg>