<svg viewBox="0 0 24 24" width="24" height="24" fill="currentColor" xmlns="http://www.w3.org/2000/svg">
 <g transform="translate(1, 1)">
  <path d="M7 13.5C6.58579 13.5 6.25 13.8358 6.25 14.25C6.25 14.6642 6.58579 15 7 15L15 15C15.4142 15 15.75 14.6642 15.75 14.25C15.75 13.8358 15.4142 13.5 15 13.5L7 13.5Z" fill-rule="NONZERO"></path>
  <path d="M7 8C7 7.44772 7.44772 7 8 7L8.01 7C8.56229 7 9.01 7.44772 9.01 8C9.01 8.55229 8.56229 9 8.01 9L8 9C7.44772 9 7 8.55229 7 8Z" fill-rule="NONZERO"></path>
  <path d="M14 7C13.4477 7 13 7.44772 13 8C13 8.55229 13.4477 9 14 9L14.01 9C14.5623 9 15.01 8.55229 15.01 8C15.01 7.44772 14.5623 7 14.01 7L14 7Z" fill-rule="NONZERO"></path>
  <path d="M11 0C4.92487 0 0 4.92487 0 11C0 17.0751 4.92487 22 11 22C17.0751 22 22 17.0751 22 11C22 4.92487 17.0751 0 11 0ZM1.5 11C1.5 5.75329 5.75329 1.5 11 1.5C16.2467 1.5 20.5 5.75329 20.5 11C20.5 16.2467 16.2467 20.5 11 20.5C5.75329 20.5 1.5 16.2467 1.5 11Z" fill-rule="EVENODD"></path>
 </g>
</svg>