<svg viewBox="0 0 24 24" width="24" height="24" fill="black" xmlns="http://www.w3.org/2000/svg">
 <g transform="translate(1, 1)">
  <path d="M11 1.5C5.75329 1.5 1.5 5.75329 1.5 11C1.5 16.2467 5.75329 20.5 11 20.5C16.2467 20.5 20.5 16.2467 20.5 11C20.5 5.75329 16.2467 1.5 11 1.5ZM0 11C0 4.92487 4.92487 0 11 0C17.0751 0 22 4.92487 22 11C22 17.0751 17.0751 22 11 22C4.92487 22 0 17.0751 0 11Z" fill-rule="EVENODD"></path>
  <path d="M6.25 14.25C6.25 13.8358 6.58579 13.5 7 13.5L15 13.5C15.4142 13.5 15.75 13.8358 15.75 14.25C15.75 14.6642 15.4142 15 15 15L7 15C6.58579 15 6.25 14.6642 6.25 14.25Z" fill-rule="EVENODD"></path>
  <path d="M7 8C7 7.44772 7.44772 7 8 7L8.01 7C8.56229 7 9.01 7.44772 9.01 8C9.01 8.55229 8.56229 9 8.01 9L8 9C7.44772 9 7 8.55229 7 8Z" fill-rule="EVENODD"></path>
  <path d="M13 8C13 7.44772 13.4477 7 14 7L14.01 7C14.5623 7 15.01 7.44772 15.01 8C15.01 8.55229 14.5623 9 14.01 9L14 9C13.4477 9 13 8.55229 13 8Z" fill-rule="EVENODD"></path>
 </g>
</svg>