<svg viewBox="0 0 24 24" width="24" height="24" fill="currentColor" xmlns="http://www.w3.org/2000/svg">
 <g transform="translate(2, 5)">
  <path d="M0 0.75C0 0.335786 0.335786 0 0.75 0L19.25 0C19.6642 0 20 0.335786 20 0.75C20 1.16421 19.6642 1.5 19.25 1.5L0.75 1.5C0.335786 1.5 0 1.16421 0 0.75Z" fill-rule="NONZERO"></path>
  <path d="M0 6.75C0 6.33579 0.335786 6 0.75 6L19.25 6C19.6642 6 20 6.33579 20 6.75C20 7.16421 19.6642 7.5 19.25 7.5L0.75 7.5C0.335786 7.5 0 7.16421 0 6.75Z" fill-rule="NONZERO"></path>
  <path d="M0.75 12C0.335786 12 0 12.3358 0 12.75C0 13.1642 0.335786 13.5 0.75 13.5L19.25 13.5C19.6642 13.5 20 13.1642 20 12.75C20 12.3358 19.6642 12 19.25 12L0.75 12Z" fill-rule="NONZERO"></path>
 </g>
</svg>