<svg viewBox="0 0 24 24" width="24" height="24" fill="black" xmlns="http://www.w3.org/2000/svg">
 <g transform="translate(1, 1)">
  <path d="M11 1.5C5.75329 1.5 1.5 5.75329 1.5 11C1.5 16.2467 5.75329 20.5 11 20.5C16.2467 20.5 20.5 16.2467 20.5 11C20.5 5.75329 16.2467 1.5 11 1.5ZM0 11C0 4.92487 4.92487 0 11 0C17.0751 0 22 4.92487 22 11C22 17.0751 17.0751 22 11 22C4.92487 22 0 17.0751 0 11Z" fill-rule="EVENODD"></path>
  <path d="M17.2503 2.04298C17.6407 2.1812 17.8452 2.60978 17.707 3.00026C15.149 10.2271 12.9569 14.1547 7.31967 20.7378C7.05026 21.0524 6.5768 21.089 6.26218 20.8196C5.94755 20.5502 5.91091 20.0767 6.18033 19.7621C11.7 13.3163 13.7978 9.5491 16.293 2.49974C16.4312 2.10927 16.8598 1.90477 17.2503 2.04298Z" fill-rule="EVENODD"></path>
  <path d="M3.48084 3.04991C3.86746 2.90126 4.30139 3.09417 4.45004 3.48079C6.93562 9.94539 7.63039 13.6535 7.49985 20.2649C7.49167 20.6791 7.14932 21.0081 6.73519 21C6.32106 20.9918 5.99197 20.6494 6.00014 20.2353C6.12657 13.832 5.47118 10.3163 3.04996 4.01911C2.90131 3.63249 3.09422 3.19856 3.48084 3.04991Z" fill-rule="EVENODD"></path>
  <path d="M3.06155 3.45244C3.22589 3.07222 3.66734 2.89722 4.04756 3.06155C11.5692 6.31254 15.2325 8.94257 20.7909 14.7305C21.0779 15.0293 21.0682 15.504 20.7695 15.7909C20.4707 16.0779 19.996 16.0683 19.709 15.7695C14.2825 10.1189 10.7828 7.60677 3.45244 4.43845C3.07222 4.27411 2.89722 3.83266 3.06155 3.45244Z" fill-rule="EVENODD"></path>
  <path d="M8.5 20.25C8.5 21.2165 7.7165 22 6.75 22L6.74 22C5.7735 22 4.99 21.2165 4.99 20.25C4.99 19.2835 5.7735 18.5 6.74 18.5L6.75 18.5C7.7165 18.5 8.5 19.2835 8.5 20.25Z" fill-rule="EVENODD"></path>
  <path d="M5.5 3.75C5.5 4.7165 4.7165 5.5 3.75 5.5L3.74 5.5C2.7735 5.5 1.99 4.7165 1.99 3.75C1.99 2.7835 2.7735 2 3.74 2L3.75 2C4.7165 2 5.5 2.7835 5.5 3.75Z" fill-rule="EVENODD"></path>
  <path d="M18.75 2.75C18.75 3.7165 17.9665 4.5 17 4.5L16.99 4.5C16.0235 4.5 15.24 3.7165 15.24 2.75C15.24 1.7835 16.0235 1 16.99 1L17 1C17.9665 1 18.75 1.7835 18.75 2.75Z" fill-rule="EVENODD"></path>
  <path d="M22 15.25C22 16.2165 21.2165 17 20.25 17L20.24 17C19.2735 17 18.49 16.2165 18.49 15.25C18.49 14.2835 19.2735 13.5 20.24 13.5L20.25 13.5C21.2165 13.5 22 14.2835 22 15.25Z" fill-rule="EVENODD"></path>
 </g>
</svg>