<svg viewBox="0 0 16 16" width="16" height="16" fill="black" xmlns="http://www.w3.org/2000/svg">
 <g transform="translate(0.25, 0.25)">
  <path d="M15.2759 9.6078C15.4223 9.01261 15.5 8.39038 15.5 7.75C15.5 5.72076 14.7201 3.87367 13.4437 2.49214C13.4804 2.35092 13.5 2.20277 13.5 2.05005C13.5 1.08355 12.7165 0.300049 11.75 0.300049L11.7433 0.300049C11.3772 0.300049 11.0373 0.412481 10.7564 0.604703C9.83193 0.215266 8.81611 0 7.75 0C6.21751 0 4.7889 0.444807 3.58625 1.21236C3.33779 1.07695 3.05288 1 2.75 1L2.74333 1C1.77683 1 0.993333 1.7835 0.993333 2.75C0.993333 3.05517 1.07145 3.3421 1.20877 3.59188C0.443421 4.79336 0 6.2199 0 7.75C0 10.2381 1.1725 12.4524 2.99511 13.8704C2.99393 13.8968 2.99333 13.9233 2.99333 13.95C2.99333 14.9164 3.77683 15.7 4.74333 15.7L4.75 15.7C5.18647 15.7 5.58562 15.5402 5.89215 15.2759C6.48735 15.4223 7.1096 15.5 7.75 15.5C10.2409 15.5 12.4574 14.3248 13.8752 12.4987C13.8978 12.4996 13.9205 12.5 13.9433 12.5L13.95 12.5C14.9165 12.5 15.7 11.7165 15.7 10.75C15.7 10.3135 15.5402 9.91433 15.2759 9.6078ZM1.5 7.75C1.5 6.5955 1.81303 5.51412 2.35883 4.58609L3.73816 12.5172L3.7218 12.5289C2.36305 11.3824 1.5 9.66699 1.5 7.75ZM6.24455 13.0391C6.39436 13.2843 6.48548 13.5694 6.49841 13.8747C6.90279 13.9568 7.32135 14 7.75 14C9.66646 14 11.3815 13.1374 12.5279 11.7793C12.3175 11.4905 12.1933 11.1347 12.1933 10.75C12.1933 10.6241 12.2066 10.5014 12.2319 10.3831L9.04967 8.11006L6.24455 13.0391ZM13.8747 9.00132C13.5735 9.01294 13.2919 9.10067 13.0484 9.24583L9.74582 6.88684L11.5112 3.78479C11.5872 3.79485 11.6646 3.80005 11.7433 3.80005L11.75 3.80005C12.0048 3.80005 12.2469 3.74558 12.4653 3.64765C13.4212 4.7454 14 6.18011 14 7.75C14 8.17855 13.9569 8.59702 13.8747 9.00132ZM7.75 1.5C8.54256 1.5 9.30066 1.64752 9.99835 1.91661C9.99503 1.96065 9.99333 2.00515 9.99333 2.05005C9.99333 2.42583 10.1118 2.77394 10.3134 3.0591L8.60054 6.06878L4.46232 3.1129C4.48701 2.99582 4.5 2.87443 4.5 2.75C4.5 2.64017 4.48988 2.53271 4.47053 2.42849C5.42385 1.83974 6.54725 1.5 7.75 1.5ZM3.73215 4.31182L5.10569 12.2097L7.9044 7.292L3.73215 4.31182Z" fill-rule="EVENODD"></path>
 </g>
</svg>