<svg viewBox="0 0 16 16" width="16" height="16" fill="currentColor" xmlns="http://www.w3.org/2000/svg">
 <g transform="translate(1.0001137256622314, 1)">
  <path d="M3.99989 7.75C3.99989 7.33579 4.33567 7 4.74989 7L7.24989 7C7.6641 7 7.99989 7.33579 7.99989 7.75C7.99989 8.16421 7.6641 8.5 7.24989 8.5L4.74989 8.5C4.33567 8.5 3.99989 8.16421 3.99989 7.75Z" fill-rule="NONZERO"></path>
  <path d="M4.74989 4.5C4.33567 4.5 3.99989 4.83579 3.99989 5.25C3.99989 5.66421 4.33567 6 4.74989 6L9.24989 6C9.6641 6 9.99989 5.66421 9.99989 5.25C9.99989 4.83579 9.6641 4.5 9.24989 4.5L4.74989 4.5Z" fill-rule="NONZERO"></path>
  <path d="M1.05786 13.9338L1.05999 13.9329L1.06924 13.9288L1.1069 13.912C1.14019 13.8973 1.1894 13.8756 1.25189 13.8484C1.37697 13.7941 1.55486 13.7178 1.76478 13.6308C2.2425 13.4329 2.86907 13.1869 3.41374 13.0153C3.68836 12.9288 3.92026 12.8683 4.09157 12.8395C4.1405 12.8312 4.17798 12.8267 4.20525 12.8244C5.11668 13.2806 6.1451 13.537 7.23137 13.537C10.9695 13.537 13.9999 10.5067 13.9999 6.76852C13.9999 3.03037 10.9695 0 7.23137 0C3.49322 0 0.46285 3.03037 0.46285 6.76852C0.46285 7.85649 0.720096 8.88643 1.17767 9.79892C1.17552 9.82672 1.17107 9.86555 1.16257 9.91677C1.13403 10.0887 1.07362 10.321 0.986883 10.5959C0.814841 11.1412 0.567396 11.7667 0.368806 12.2421C0.28217 12.4495 0.206229 12.625 0.152102 12.7484C0.125057 12.81 0.103505 12.8585 0.0888475 12.8913L0.0722173 12.9283L0.0681165 12.9374L0.0671771 12.9395C-0.0618226 13.2236 -0.00164764 13.5583 0.21857 13.7793C0.438787 14.0004 0.773288 14.0618 1.05786 13.9338ZM7.23137 1.5C10.1411 1.5 12.4999 3.8588 12.4999 6.76852C12.4999 9.67824 10.1411 12.037 7.23137 12.037C6.35293 12.037 5.52677 11.8226 4.80023 11.444C4.59913 11.3392 4.3934 11.3236 4.26575 11.3223C4.12292 11.3208 3.97701 11.3376 3.84225 11.3603C3.5718 11.4059 3.26467 11.4896 2.96314 11.5846C2.69104 11.6703 2.40558 11.7709 2.12925 11.8742C2.23202 11.6004 2.3321 11.3175 2.41736 11.0473C2.51287 10.7446 2.59699 10.4355 2.64232 10.1624C2.66493 10.0262 2.68138 9.87879 2.67922 9.73433C2.67726 9.60382 2.66002 9.3994 2.55591 9.19966C2.17724 8.47312 1.96285 7.64696 1.96285 6.76852C1.96285 3.8588 4.32165 1.5 7.23137 1.5Z" fill-rule="EVENODD"></path>
 </g>
</svg>