<svg viewBox="0 0 24 24" width="24" height="24" fill="black" xmlns="http://www.w3.org/2000/svg">
 <g transform="translate(22, 2)">
  <path d="M0 2.75C0 1.23122 1.23122 0 2.75 0L17.25 0C18.7688 0 20 1.23122 20 2.75L20 19.25C20 19.5412 19.8314 19.8061 19.5676 19.9294C19.3037 20.0528 18.9924 20.0122 18.7689 19.8254L14.5414 16.291C14.3165 16.103 14.0327 16 13.7396 16L2.75 16C1.23122 16 0 14.7688 0 13.25L0 2.75ZM2.75 1.5C2.05964 1.5 1.5 2.05964 1.5 2.75L1.5 13.25C1.5 13.9404 2.05964 14.5 2.75 14.5L13.7396 14.5C14.3844 14.5 15.0088 14.7266 15.5035 15.1402L18.5 17.6454L18.5 2.75C18.5 2.05964 17.9404 1.5 17.25 1.5L2.75 1.5Z" fill-rule="EVENODD"></path>
 </g>
</svg>