<svg viewBox="0 0 24 24" width="24" height="24" fill="currentColor" xmlns="http://www.w3.org/2000/svg">
 <g transform="translate(2.00006103515625, 2)">
  <path d="M5.99994 6.75C5.99994 6.33579 6.33573 6 6.74994 6L13.7499 6C14.1642 6 14.4999 6.33579 14.4999 6.75C14.4999 7.16421 14.1642 7.5 13.7499 7.5L6.74994 7.5C6.33573 7.5 5.99994 7.16421 5.99994 6.75Z" fill-rule="NONZERO"></path>
  <path d="M5.99994 9.75C5.99994 9.33579 6.33573 9 6.74994 9L9.74994 9C10.1642 9 10.4999 9.33579 10.4999 9.75C10.4999 10.1642 10.1642 10.5 9.74994 10.5L6.74994 10.5C6.33573 10.5 5.99994 10.1642 5.99994 9.75Z" fill-rule="NONZERO"></path>
  <path d="M5.99994 12.75C5.99994 12.3358 6.33573 12 6.74994 12L11.7499 12C12.1642 12 12.4999 12.3358 12.4999 12.75C12.4999 13.1642 12.1642 13.5 11.7499 13.5L6.74994 13.5C6.33573 13.5 5.99994 13.1642 5.99994 12.75Z" fill-rule="NONZERO"></path>
  <path d="M5.54546 18.3038C5.21394 18.3677 4.78864 18.4891 4.31791 18.6456C3.20475 19.0157 2.12391 19.4705 1.04887 19.9378C0.76428 20.0615 0.432907 19.9972 0.215281 19.776C-0.00234222 19.5548 -0.061121 19.2221 0.0671711 18.9396C0.153732 18.7482 0.237616 18.5557 0.320627 18.3628C0.593779 17.7281 1.02471 16.6876 1.34478 15.7345C1.50563 15.2556 1.63104 14.8204 1.69707 14.4797C1.73023 14.3085 1.74417 14.1823 1.7455 14.0979C1.74574 14.0825 1.74554 14.0701 1.74515 14.0605C1.06729 12.7394 0.685093 11.242 0.685093 9.65741C0.685093 4.32377 5.00886 0 10.3425 0C15.6761 0 19.9999 4.32377 19.9999 9.65741C19.9999 14.991 15.6761 19.3148 10.3425 19.3148C8.75972 19.3148 7.26386 18.9335 5.94384 18.257C5.88024 18.2553 5.7361 18.267 5.54546 18.3038ZM18.4999 9.65741C18.4999 5.1522 14.8477 1.5 10.3425 1.5C5.83729 1.5 2.18509 5.1522 2.18509 9.65741C2.18509 11.0168 2.51701 12.2964 3.10358 13.4219C3.23198 13.6682 3.24825 13.9355 3.24531 14.1216C3.24207 14.327 3.21178 14.5478 3.16967 14.765C3.08517 15.2011 2.93588 15.7084 2.76674 16.2121C2.58221 16.7615 2.36517 17.3325 2.16079 17.8432C2.68794 17.6335 3.27935 17.4102 3.84463 17.2222C4.33961 17.0576 4.83607 16.9129 5.26153 16.8309C5.47345 16.79 5.68893 16.7605 5.88937 16.7572C6.06969 16.7541 6.33394 16.7691 6.57803 16.8963C7.70346 17.4829 8.98312 17.8148 10.3425 17.8148C14.8477 17.8148 18.4999 14.1626 18.4999 9.65741Z" fill-rule="EVENODD"></path>
 </g>
</svg>