<svg viewBox="0 0 24 24" width="24" height="24" fill="black" xmlns="http://www.w3.org/2000/svg">
 <g transform="translate(2.000091552734375, 2)">
  <path d="M10.3425 1.5C14.8477 1.5 18.4999 5.1522 18.4999 9.65741C18.4999 14.1626 14.8477 17.8148 10.3425 17.8148C8.98312 17.8148 7.70346 17.4829 6.57803 16.8963C6.33394 16.7691 6.06969 16.7541 5.88937 16.7572C5.68893 16.7605 5.47345 16.79 5.26153 16.8309C4.83607 16.9129 4.33961 17.0576 3.84463 17.2222C3.27935 17.4102 2.68794 17.6335 2.16079 17.8432C2.36517 17.3325 2.58221 16.7615 2.76674 16.2121C2.93588 15.7084 3.08517 15.2011 3.16967 14.765C3.21178 14.5478 3.24207 14.327 3.24531 14.1216C3.24825 13.9355 3.23198 13.6682 3.10358 13.4219C2.51701 12.2964 2.18509 11.0168 2.18509 9.65741C2.18509 5.1522 5.83729 1.5 10.3425 1.5ZM1.69974 19.6549C2.35246 19.3775 3.38252 18.9566 4.31791 18.6456C4.78864 18.4891 5.21394 18.3677 5.54546 18.3038C5.71203 18.2717 5.83384 18.2583 5.9144 18.2569C5.92604 18.2567 5.93581 18.2568 5.94384 18.257C7.26386 18.9335 8.75972 19.3148 10.3425 19.3148C15.6761 19.3148 19.9999 14.991 19.9999 9.65741C19.9999 4.32377 15.6761 0 10.3425 0C5.00886 0 0.685093 4.32377 0.685093 9.65741C0.685093 11.242 1.06729 12.7394 1.74515 14.0605C1.74554 14.0701 1.74574 14.0825 1.7455 14.0979C1.74417 14.1823 1.73023 14.3085 1.69707 14.4797C1.63104 14.8204 1.50563 15.2556 1.34478 15.7345C1.02471 16.6876 0.593779 17.7281 0.320627 18.3628C0.243687 18.5416 0.179901 18.6867 0.135515 18.7868C0.113329 18.8368 0.0960045 18.8755 0.0843258 18.9015L0.0711422 18.9308L0.0671711 18.9396L0.0671711 18.9396C-0.061121 19.2221 -0.00234224 19.5548 0.215281 19.776C0.432907 19.9972 0.76428 20.0615 1.04887 19.9378L1.69702 19.6561L1.69974 19.6549ZM1.74298 14.0339L1.74331 14.036Z" fill-rule="EVENODD"></path>
  <path d="M5.99991 9.75C5.99991 9.33579 6.33569 9 6.74991 9L9.74991 9C10.1641 9 10.4999 9.33579 10.4999 9.75C10.4999 10.1642 10.1641 10.5 9.74991 10.5L6.74991 10.5C6.33569 10.5 5.99991 10.1642 5.99991 9.75Z" fill-rule="EVENODD"></path>
  <path d="M5.99991 6.75C5.99991 6.33579 6.33569 6 6.74991 6L13.7499 6C14.1641 6 14.4999 6.33579 14.4999 6.75C14.4999 7.16421 14.1641 7.5 13.7499 7.5L6.74991 7.5C6.33569 7.5 5.99991 7.16421 5.99991 6.75Z" fill-rule="EVENODD"></path>
  <path d="M5.99991 12.75C5.99991 12.3358 6.33569 12 6.74991 12L11.7499 12C12.1641 12 12.4999 12.3358 12.4999 12.75C12.4999 13.1642 12.1641 13.5 11.7499 13.5L6.74991 13.5C6.33569 13.5 5.99991 13.1642 5.99991 12.75Z" fill-rule="EVENODD"></path>
 </g>
</svg>