<svg viewBox="0 0 16 16" width="16" height="16" fill="currentColor" xmlns="http://www.w3.org/2000/svg">
 <g transform="translate(1, 1)">
  <path d="M3 6.75C3 6.33579 3.33579 6 3.75 6L7.25 6C7.66421 6 8 6.33579 8 6.75C8 7.16421 7.66421 7.5 7.25 7.5L3.75 7.5C3.33579 7.5 3 7.16421 3 6.75Z" fill-rule="NONZERO"></path>
  <path d="M3.75 3.5C3.33579 3.5 3 3.83579 3 4.25C3 4.66421 3.33579 5 3.75 5L10.25 5C10.6642 5 11 4.66421 11 4.25C11 3.83579 10.6642 3.5 10.25 3.5L3.75 3.5Z" fill-rule="NONZERO"></path>
  <path d="M14 2.25C14 1.00736 12.9926 0 11.75 0L2.25 0C1.00736 0 0 1.00736 0 2.25L0 13.25C0 13.5483 0.176729 13.8182 0.450106 13.9374C0.723483 14.0567 1.04155 14.0026 1.26017 13.7998L4.06136 11.2002C4.20006 11.0715 4.3823 11 4.57153 11L11.75 11C12.9926 11 14 9.99264 14 8.75L14 2.25ZM11.75 1.5C12.1642 1.5 12.5 1.83579 12.5 2.25L12.5 8.75C12.5 9.16421 12.1642 9.5 11.75 9.5L4.57153 9.5C4.00384 9.5 3.45713 9.71459 3.04102 10.1007L1.5 11.5308L1.5 2.25C1.5 1.83579 1.83579 1.5 2.25 1.5L11.75 1.5Z" fill-rule="EVENODD"></path>
 </g>
</svg>