<svg viewBox="0 0 24 24" width="24" height="24" fill="black" xmlns="http://www.w3.org/2000/svg">
 <g transform="translate(2.25, 2.25)">
  <path d="M2.75 1.5C2.41848 1.5 2.10054 1.6317 1.86612 1.86612C1.6317 2.10054 1.5 2.41848 1.5 2.75L1.5 16.9393L4.21967 14.2197C4.36032 14.079 4.55109 14 4.75 14L16.75 14C17.0815 14 17.3995 13.8683 17.6339 13.6339C17.8683 13.3995 18 13.0815 18 12.75L18 2.75C18 2.41848 17.8683 2.10054 17.6339 1.86612C17.3995 1.6317 17.0815 1.5 16.75 1.5L2.75 1.5ZM0.805456 0.805456C1.32118 0.289731 2.02065 0 2.75 0L16.75 0C17.4793 0 18.1788 0.289731 18.6945 0.805456C19.2103 1.32118 19.5 2.02065 19.5 2.75L19.5 12.75C19.5 13.4793 19.2103 14.1788 18.6945 14.6945C18.1788 15.2103 17.4793 15.5 16.75 15.5L5.06066 15.5L1.28033 19.2803C1.06583 19.4948 0.743243 19.559 0.462987 19.4429C0.182732 19.3268 0 19.0533 0 18.75L0 2.75C0 2.02065 0.289731 1.32118 0.805456 0.805456Z" fill-rule="EVENODD"></path>
 </g>
</svg>