<svg viewBox="0 0 24 24" width="24" height="24" fill="black" xmlns="http://www.w3.org/2000/svg">
 <g transform="translate(0.25, 0.2470703125)">
  <path d="M9.53325 0.725456C10.2807 0.177579 11.2047 -0.074166 12.127 0.018994C13.0523 0.112454 13.9098 0.546378 14.5331 1.23653C15.1564 1.92668 15.5011 2.82381 15.5001 3.75378L15.5 3.7659L15.5 9.09302C15.5 9.50724 15.1642 9.84302 14.75 9.84302C14.3358 9.84302 14 9.50724 14 9.09302L14 3.75302L14.0001 3.74111C13.9979 3.18712 13.7914 2.65325 13.4199 2.24192C13.0459 1.82783 12.5314 1.56748 11.9763 1.5114C11.4211 1.45532 10.8649 1.60753 10.4157 1.93846L10.4101 1.94256C9.96381 2.2734 9.65566 2.7577 9.54508 3.30225C9.46266 3.70818 9.06677 3.97044 8.66084 3.88801C8.25491 3.80558 7.99266 3.40969 8.07508 3.00376C8.26014 2.0924 8.77723 1.2823 9.52598 0.730747L9.53325 0.725456Z" fill-rule="NONZERO"></path>
  <path d="M1.28033 0.2226C0.987437 -0.0702936 0.512563 -0.0702936 0.21967 0.2226C-0.0732233 0.515493 -0.0732233 0.990367 0.21967 1.28326L8 9.06359L8 11.7536C8.00065 12.4948 8.22094 13.2192 8.63304 13.8353C9.04514 14.4513 9.63057 14.9315 10.3154 15.215C11.0002 15.4986 11.7537 15.5728 12.4807 15.4284C12.9595 15.3333 13.4127 15.1461 13.8162 14.8797L15.6357 16.6993C14.8701 17.307 13.9696 17.7291 13.0049 17.9268C12.6752 17.9944 12.3421 18.035 12.0088 18.0488C11.9281 18.0191 11.841 18.0029 11.75 18.0029C11.659 18.0029 11.5718 18.0191 11.4912 18.0488C10.7649 18.0187 10.0456 17.862 9.36644 17.5819C8.21507 17.1069 7.23185 16.2988 6.54293 15.2612C5.85401 14.2236 5.49083 13.0039 5.49994 11.7584L5.49994 9.75293C5.49994 9.33872 5.16416 9.00293 4.74994 9.00293C4.33573 9.00293 3.99994 9.33872 3.99994 9.75293L3.99994 11.7503C3.98921 13.2936 4.43955 14.8051 5.29329 16.0909C6.14755 17.3776 7.36674 18.3796 8.79444 18.9685C9.50255 19.2606 10.2459 19.4445 11 19.5178L11 22.0029L7.75 22.0029C7.33579 22.0029 7 22.3387 7 22.7529C7 23.1671 7.33579 23.5029 7.75 23.5029L15.75 23.5029C16.1642 23.5029 16.5 23.1671 16.5 22.7529C16.5 22.3387 16.1642 22.0029 15.75 22.0029L12.5 22.0029L12.5 19.5177C12.7698 19.4915 13.0389 19.451 13.3062 19.3962C14.5589 19.1394 15.7245 18.5775 16.702 17.7655L22.2197 23.2833C22.5126 23.5762 22.9874 23.5762 23.2803 23.2833C23.5732 22.9904 23.5732 22.5155 23.2803 22.2226L17.4166 16.3589C17.3808 16.2896 17.3336 16.2247 17.2748 16.1672C17.2199 16.1134 17.1589 16.0698 17.094 16.0363L1.28033 0.2226ZM12.7179 13.7815L9.5 10.5636L9.5 11.7526C9.50045 12.1972 9.63262 12.6317 9.87982 13.0013C10.1271 13.3709 10.4783 13.659 10.8892 13.8291C11.3001 13.9993 11.7522 14.0438 12.1884 13.9572C12.3725 13.9206 12.5502 13.8614 12.7179 13.7815Z" fill-rule="EVENODD"></path>
  <path d="M19.4999 9.75293C19.4999 9.33872 19.1642 9.00293 18.7499 9.00293C18.3357 9.00293 17.9999 9.33872 17.9999 9.75293L17.9999 11.7523C17.9996 12.1205 17.9668 12.488 17.9017 12.8505C17.8286 13.2582 18.0998 13.648 18.5075 13.7211C18.9152 13.7943 19.305 13.5231 19.3782 13.1154C19.4588 12.6659 19.4995 12.2096 19.4999 11.7529L19.4999 9.75293Z" fill-rule="NONZERO"></path>
 </g>
</svg>