<svg viewBox="0 0 24 24" width="24" height="24" fill="currentColor" xmlns="http://www.w3.org/2000/svg">
 <g transform="translate(1, 0)">
  <path d="M8.18362 1.11795C8.93609 0.398559 9.94974 0 11 0C12.0503 0 13.0639 0.398559 13.8164 1.11795C14.57 1.83844 15 2.82301 15 3.85714L15 10.3571C15 10.7714 14.6642 11.1071 14.25 11.1071C13.8358 11.1071 13.5 10.7714 13.5 10.3571L13.5 3.85714C13.5 3.24315 13.2452 2.64709 12.7798 2.20217C12.3133 1.75616 11.6736 1.5 11 1.5C10.3264 1.5 9.6867 1.75616 9.22018 2.20217C8.75481 2.64709 8.5 3.24315 8.5 3.85714C8.5 4.27136 8.16421 4.60714 7.75 4.60714C7.33579 4.60714 7 4.27136 7 3.85714C7 2.82301 7.43001 1.83844 8.18362 1.11795Z" fill-rule="NONZERO"></path>
  <path d="M11 16C11.8105 16 12.5992 15.7626 13.2629 15.3236L14.9227 16.9834C13.802 17.7991 12.4267 18.25 11 18.25C9.26777 18.25 7.61155 17.5854 6.39442 16.4102C5.17819 15.2359 4.5 13.6489 4.5 12L4.5 10C4.5 9.58579 4.16421 9.25 3.75 9.25C3.33579 9.25 3 9.58579 3 10L3 12C3 14.0641 3.84949 16.0381 5.35253 17.4893C6.67599 18.7671 8.41067 19.5481 10.25 19.7159L10.25 22L7 22C6.58579 22 6.25 22.3358 6.25 22.75C6.25 23.1642 6.58579 23.5 7 23.5L15 23.5C15.4142 23.5 15.75 23.1642 15.75 22.75C15.75 22.3358 15.4142 22 15 22L11.75 22L11.75 19.7159C13.3002 19.5745 14.776 18.9975 15.994 18.0547L20.7197 22.7803C21.0126 23.0732 21.4874 23.0732 21.7803 22.7803C22.0732 22.4874 22.0732 22.0126 21.7803 21.7197L1.28033 1.21967C0.987437 0.926777 0.512563 0.926777 0.21967 1.21967C-0.0732233 1.51256 -0.0732233 1.98744 0.21967 2.28033L7 9.06066L7 12.1429C7 13.177 7.43001 14.1616 8.18362 14.882C8.93609 15.6014 9.94974 16 11 16ZM8.5 12.1429L8.5 10.5607L12.1667 14.2274C11.8118 14.4041 11.4123 14.5 11 14.5C10.3264 14.5 9.6867 14.2438 9.22018 13.7978C8.75481 13.3529 8.5 12.7569 8.5 12.1429Z" fill-rule="EVENODD"></path>
  <path d="M19 10C19 9.58579 18.6642 9.25 18.25 9.25C17.8358 9.25 17.5 9.58579 17.5 10L17.5 12C17.5 12.5519 17.4241 13.0965 17.2776 13.6207C17.1662 14.0196 17.3993 14.4334 17.7982 14.5448C18.1972 14.6562 18.6109 14.4231 18.7224 14.0242C18.9051 13.37 19 12.6898 19 12L19 10Z" fill-rule="NONZERO"></path>
 </g>
</svg>