<svg viewBox="0 0 16 16" width="16" height="16" fill="currentColor" xmlns="http://www.w3.org/2000/svg">
 <g transform="translate(1, 0)">
  <path d="M7 0C6.21922 0 5.46157 0.290571 4.89583 0.821388C4.63238 1.06858 4.42022 1.35898 4.26852 1.67758C4.09046 2.05157 4.24928 2.4991 4.62327 2.67716C4.99726 2.85523 5.44478 2.6964 5.62285 2.32242C5.69315 2.17476 5.79336 2.03615 5.92219 1.91527C6.20036 1.65427 6.5873 1.5 7 1.5C7.4127 1.5 7.79964 1.65427 8.07781 1.91527C8.35437 2.17476 8.5 2.5161 8.5 2.86111L8.5 6.30432C8.5 6.71853 8.83579 7.05432 9.25 7.05432C9.66421 7.05432 10 6.71853 10 6.30432L10 2.86111C10 2.08632 9.67153 1.35372 9.10417 0.821388C8.53843 0.290571 7.78078 0 7 0Z" fill-rule="NONZERO"></path>
  <path d="M4 6.06066L0.21967 2.28033C-0.0732233 1.98744 -0.0732233 1.51256 0.21967 1.21967C0.512563 0.926777 0.987437 0.926777 1.28033 1.21967L13.7803 13.7197C14.0732 14.0126 14.0732 14.4874 13.7803 14.7803C13.4874 15.0732 13.0126 15.0732 12.7197 14.7803L10.3382 12.3988C9.58205 12.9622 8.68975 13.3237 7.75 13.4499L7.75 14.5L9.5 14.5C9.91421 14.5 10.25 14.8358 10.25 15.25C10.25 15.6642 9.91421 16 9.5 16L4.5 16C4.08579 16 3.75 15.6642 3.75 15.25C3.75 14.8358 4.08579 14.5 4.5 14.5L6.25 14.5L6.25 13.4499C5.07392 13.292 3.97214 12.7654 3.11859 11.9361C2.08486 10.9316 1.5 9.56467 1.5 8.13461L1.5 6.75C1.5 6.33579 1.83579 6 2.25 6C2.66421 6 3 6.33579 3 6.75L3 8.13461C3 9.15271 3.41603 10.1336 4.1639 10.8603C4.91249 11.5877 5.93229 12 7 12C7.81498 12 8.60205 11.7598 9.2619 11.3226L8.53611 10.5968C8.07286 10.86 7.542 11 7 11C6.21922 11 5.46157 10.7094 4.89583 10.1786C4.32847 9.64628 4 8.91368 4 8.13889L4 6.06066ZM5.5 7.56066L5.5 8.13889C5.5 8.4839 5.64563 8.82524 5.92219 9.08473C6.20036 9.34573 6.5873 9.5 7 9.5C7.13433 9.5 7.26593 9.48366 7.39195 9.45261L5.5 7.56066Z" fill-rule="EVENODD"></path>
  <path d="M11.03 6.75C11.03 6.33579 11.3658 6 11.78 6C12.1942 6 12.53 6.33579 12.53 6.75L12.53 8.13461C12.53 8.40054 12.5098 8.66446 12.4701 8.92439C12.4077 9.33386 12.0251 9.61518 11.6156 9.55272C11.2061 9.49026 10.9248 9.10769 10.9873 8.69821C11.0156 8.51271 11.03 8.32439 11.03 8.13461L11.03 6.75Z" fill-rule="NONZERO"></path>
 </g>
</svg>