<svg viewBox="0 0 16 16" width="16" height="16" fill="black" xmlns="http://www.w3.org/2000/svg">
 <g transform="translate(2.5, 0)">
  <path d="M3.39583 0.821388C3.96157 0.290571 4.71922 0 5.5 0C6.28078 0 7.03843 0.290571 7.60417 0.821388C8.17153 1.35372 8.5 2.08632 8.5 2.86111L8.5 8.13889C8.5 8.91368 8.17153 9.64628 7.60417 10.1786C7.03843 10.7094 6.28078 11 5.5 11C4.71922 11 3.96157 10.7094 3.39583 10.1786C2.82847 9.64628 2.5 8.91368 2.5 8.13889L2.5 2.86111C2.5 2.08632 2.82847 1.35372 3.39583 0.821388ZM5.5 1.5C5.0873 1.5 4.70036 1.65427 4.42219 1.91527C4.14563 2.17476 4 2.5161 4 2.86111L4 8.13889C4 8.4839 4.14563 8.82524 4.42219 9.08473C4.70036 9.34573 5.0873 9.5 5.5 9.5C5.9127 9.5 6.29963 9.34573 6.57781 9.08473C6.85437 8.82524 7 8.4839 7 8.13889L7 2.86111C7 2.5161 6.85437 2.17476 6.57781 1.91527C6.29964 1.65427 5.9127 1.5 5.5 1.5Z" fill-rule="EVENODD"></path>
  <path d="M0.75 6C1.16421 6 1.5 6.33579 1.5 6.75L1.5 8.13461C1.5 9.15271 1.91603 10.1336 2.6639 10.8603C3.41249 11.5877 4.43229 12 5.5 12C6.56771 12 7.5875 11.5877 8.3361 10.8603C9.08397 10.1336 9.5 9.15271 9.5 8.13461L9.5 6.75C9.5 6.33579 9.83579 6 10.25 6C10.6642 6 11 6.33579 11 6.75L11 8.13461C11 9.56467 10.4151 10.9316 9.38141 11.9361C8.34841 12.9398 6.95184 13.5 5.5 13.5C4.04816 13.5 2.65159 12.9398 1.61859 11.9361C0.584859 10.9316 0 9.56467 0 8.13461L0 6.75C0 6.33579 0.335786 6 0.75 6Z" fill-rule="EVENODD"></path>
  <path d="M5.5 12.25C5.91421 12.25 6.25 12.5858 6.25 13L6.25 15C6.25 15.4142 5.91421 15.75 5.5 15.75C5.08579 15.75 4.75 15.4142 4.75 15L4.75 13C4.75 12.5858 5.08579 12.25 5.5 12.25Z" fill-rule="EVENODD"></path>
  <path d="M2.25 15.25C2.25 14.8358 2.58579 14.5 3 14.5L8 14.5C8.41421 14.5 8.75 14.8358 8.75 15.25C8.75 15.6642 8.41421 16 8 16L3 16C2.58579 16 2.25 15.6642 2.25 15.25Z" fill-rule="EVENODD"></path>
 </g>
</svg>