<svg viewBox="0 0 24 24" width="24" height="24" fill="black" xmlns="http://www.w3.org/2000/svg">
 <g transform="translate(1, 0)">
  <path d="M0.21967 1.21967C0.512563 0.926777 0.987437 0.926777 1.28033 1.21967L21.7803 21.7197C22.0732 22.0126 22.0732 22.4874 21.7803 22.7803C21.4874 23.0732 21.0126 23.0732 20.7197 22.7803L0.21967 2.28033C-0.0732233 1.98744 -0.0732233 1.51256 0.21967 1.21967Z" fill-rule="EVENODD"></path>
  <path d="M8.18362 1.11795C8.93609 0.398559 9.94974 0 11 0C12.0503 0 13.0639 0.398559 13.8164 1.11795C14.57 1.83844 15 2.82301 15 3.85714L15 10.3571C15 10.7714 14.6642 11.1071 14.25 11.1071C13.8358 11.1071 13.5 10.7714 13.5 10.3571L13.5 3.85714C13.5 3.24315 13.2452 2.64709 12.7798 2.20217C12.3133 1.75616 11.6736 1.5 11 1.5C10.3264 1.5 9.6867 1.75616 9.22018 2.20217C8.75481 2.64709 8.5 3.24315 8.5 3.85714C8.5 4.27136 8.16421 4.60714 7.75 4.60714C7.33579 4.60714 7 4.27136 7 3.85714C7 2.82301 7.43001 1.83844 8.18362 1.11795ZM7.75 8C8.16421 8 8.5 8.33579 8.5 8.75L8.5 12.1429C8.5 12.7569 8.75481 13.3529 9.22018 13.7978C9.6867 14.2438 10.3264 14.5 11 14.5C11.6736 14.5 12.3133 14.2438 12.7798 13.7978C13.0792 13.5116 13.554 13.5223 13.8402 13.8217C14.1264 14.1211 14.1158 14.5958 13.8164 14.882C13.0639 15.6014 12.0503 16 11 16C9.94974 16 8.93609 15.6014 8.18362 14.882C7.43001 14.1616 7 13.177 7 12.1429L7 8.75C7 8.33579 7.33579 8 7.75 8Z" fill-rule="EVENODD"></path>
  <path d="M3.75 9.25C4.16421 9.25 4.5 9.58579 4.5 10L4.5 12C4.5 13.6489 5.17819 15.2359 6.39442 16.4102C7.61155 17.5854 9.26777 18.25 11 18.25C12.6861 18.25 14.3003 17.6203 15.5076 16.5029C15.8115 16.2215 16.2861 16.2398 16.5674 16.5438C16.8488 16.8478 16.8304 17.3223 16.5265 17.6037C15.0372 18.9822 13.0573 19.75 11 19.75C8.88659 19.75 6.85468 18.9396 5.35253 17.4893C3.84949 16.0381 3 14.0641 3 12L3 10C3 9.58579 3.33579 9.25 3.75 9.25ZM18.25 9.25C18.6642 9.25 19 9.58579 19 10L19 12C19 12.6898 18.9051 13.37 18.7224 14.0242C18.6109 14.4231 18.1972 14.6562 17.7982 14.5448C17.3993 14.4334 17.1662 14.0196 17.2776 13.6207C17.4241 13.0965 17.5 12.5519 17.5 12L17.5 10C17.5 9.58579 17.8358 9.25 18.25 9.25Z" fill-rule="EVENODD"></path>
  <path d="M11 18.25C11.4142 18.25 11.75 18.5858 11.75 19L11.75 22.75C11.75 23.1642 11.4142 23.5 11 23.5C10.5858 23.5 10.25 23.1642 10.25 22.75L10.25 19C10.25 18.5858 10.5858 18.25 11 18.25Z" fill-rule="EVENODD"></path>
  <path d="M6.25 22.75C6.25 22.3358 6.58579 22 7 22L15 22C15.4142 22 15.75 22.3358 15.75 22.75C15.75 23.1642 15.4142 23.5 15 23.5L7 23.5C6.58579 23.5 6.25 23.1642 6.25 22.75Z" fill-rule="EVENODD"></path>
 </g>
</svg>