<svg viewBox="0 0 24 24" width="24" height="24" fill="black" xmlns="http://www.w3.org/2000/svg">
 <g transform="translate(3.25, 5.749998569488525)">
  <path d="M10.9575 0.232144C11.2435 -0.0674792 11.7182 -0.0785198 12.0179 0.207485L17.5179 5.45748C17.6661 5.59901 17.75 5.79504 17.75 6C17.75 6.20496 17.6661 6.401 17.5179 6.54252L12.0179 11.7925C11.7182 12.0785 11.2435 12.0675 10.9575 11.7679C10.6715 11.4682 10.6825 10.9935 10.9821 10.7075L15.9138 6L10.9821 1.29252C10.6825 1.00651 10.6715 0.531768 10.9575 0.232144Z" fill-rule="EVENODD"></path>
  <path d="M4.95748 0.232144C5.24349 -0.0674792 5.71823 -0.0785198 6.01786 0.207485L11.5179 5.45748C11.6661 5.59901 11.75 5.79504 11.75 6C11.75 6.20496 11.6661 6.401 11.5179 6.54252L6.01786 11.7925C5.71823 12.0785 5.24349 12.0675 4.95748 11.7679C4.67148 11.4682 4.68252 10.9935 4.98214 10.7075L9.91379 6L4.98214 1.29252C4.68252 1.00651 4.67148 0.531768 4.95748 0.232144Z" fill-rule="EVENODD"></path>
  <path d="M11 6C11 6.41422 10.6642 6.75 10.25 6.75L0.75 6.75C0.335787 6.75 5.07265e-17 6.41422 0 6C-5.07265e-17 5.58579 0.335787 5.25 0.75 5.25L10.25 5.25C10.6642 5.25 11 5.58579 11 6Z" fill-rule="EVENODD"></path>
 </g>
</svg>