<svg viewBox="0 0 24 24" width="24" height="24" fill="black" xmlns="http://www.w3.org/2000/svg">
 <g transform="translate(3.25, 6.25)">
  <path d="M5.21967 0.21967C5.51256 -0.0732233 5.98744 -0.0732233 6.28033 0.21967L11.2803 5.21967C11.5732 5.51256 11.5732 5.98744 11.2803 6.28033L6.28033 11.2803C5.98744 11.5732 5.51256 11.5732 5.21967 11.2803C4.92678 10.9874 4.92678 10.5126 5.21967 10.2197L8.93934 6.5L0.75 6.5C0.335787 6.5 0 6.16421 0 5.75C0 5.33579 0.335787 5 0.75 5L8.93934 5L5.21967 1.28033C4.92678 0.987437 4.92678 0.512563 5.21967 0.21967Z" fill-rule="NONZERO"></path>
  <path d="M11.2197 0.21967C11.5126 -0.0732233 11.9874 -0.0732233 12.2803 0.21967L17.2803 5.21967C17.5732 5.51256 17.5732 5.98744 17.2803 6.28033L12.2803 11.2803C11.9874 11.5732 11.5126 11.5732 11.2197 11.2803C10.9268 10.9874 10.9268 10.5126 11.2197 10.2197L15.6893 5.75L11.2197 1.28033C10.9268 0.987437 10.9268 0.512563 11.2197 0.21967Z" fill-rule="NONZERO"></path>
 </g>
</svg>