<svg viewBox="0 0 16 16" width="16" height="16" fill="currentColor" xmlns="http://www.w3.org/2000/svg">
 <g transform="translate(2, 2)">
  <path d="M0 7.25C0 6.83579 0.335786 6.5 0.75 6.5L4.75 6.5C5.16421 6.5 5.5 6.83579 5.5 7.25L5.5 11.25C5.5 11.6642 5.16421 12 4.75 12C4.33579 12 4 11.6642 4 11.25L4 8L0.75 8C0.335786 8 0 7.66421 0 7.25Z" fill-rule="EVENODD"></path>
  <path d="M7.25 0C7.66421 0 8 0.335786 8 0.75L8 4L11.25 4C11.6642 4 12 4.33579 12 4.75C12 5.16421 11.6642 5.5 11.25 5.5L7.25 5.5C6.83579 5.5 6.5 5.16421 6.5 4.75L6.5 0.75C6.5 0.335786 6.83579 0 7.25 0Z" fill-rule="EVENODD"></path>
  <path d="M5.28033 6.71967C5.57322 7.01256 5.57322 7.48744 5.28033 7.78033L1.28033 11.7803C0.987437 12.0732 0.512563 12.0732 0.21967 11.7803C-0.0732233 11.4874 -0.0732233 11.0126 0.21967 10.7197L4.21967 6.71967C4.51256 6.42678 4.98744 6.42678 5.28033 6.71967Z" fill-rule="EVENODD"></path>
  <path d="M11.7803 0.21967C12.0732 0.512563 12.0732 0.987437 11.7803 1.28033L7.78033 5.28033C7.48744 5.57322 7.01256 5.57322 6.71967 5.28033C6.42678 4.98744 6.42678 4.51256 6.71967 4.21967L10.7197 0.21967C11.0126 -0.0732233 11.4874 -0.0732233 11.7803 0.21967Z" fill-rule="EVENODD"></path>
 </g>
</svg>