<svg viewBox="0 0 24 24" width="24" height="24" fill="black" xmlns="http://www.w3.org/2000/svg">
 <g transform="translate(3, 3)">
  <path d="M1 10.75C1 10.3358 1.33579 10 1.75 10L7.25 10C7.66421 10 8 10.3358 8 10.75L8 16.25C8 16.6642 7.66421 17 7.25 17C6.83579 17 6.5 16.6642 6.5 16.25L6.5 11.5L1.75 11.5C1.33579 11.5 1 11.1642 1 10.75Z" fill-rule="EVENODD"></path>
  <path d="M10.75 1C11.1642 1 11.5 1.33579 11.5 1.75L11.5 6.5L16.25 6.5C16.6642 6.5 17 6.83579 17 7.25C17 7.66421 16.6642 8 16.25 8L10.75 8C10.3358 8 10 7.66421 10 7.25L10 1.75C10 1.33579 10.3358 1 10.75 1Z" fill-rule="EVENODD"></path>
  <path d="M7.78033 10.2197C8.07322 10.5126 8.07322 10.9874 7.78033 11.2803L1.28033 17.7803C0.987437 18.0732 0.512563 18.0732 0.21967 17.7803C-0.0732233 17.4874 -0.0732233 17.0126 0.21967 16.7197L6.71967 10.2197C7.01256 9.92678 7.48744 9.92678 7.78033 10.2197Z" fill-rule="EVENODD"></path>
  <path d="M17.7803 0.21967C18.0732 0.512563 18.0732 0.987437 17.7803 1.28033L11.2803 7.78033C10.9874 8.07322 10.5126 8.07322 10.2197 7.78033C9.92678 7.48744 9.92678 7.01256 10.2197 6.71967L16.7197 0.21967C17.0126 -0.0732233 17.4874 -0.0732233 17.7803 0.21967Z" fill-rule="EVENODD"></path>
 </g>
</svg>