<svg viewBox="0 0 24 24" width="24" height="24" fill="black" xmlns="http://www.w3.org/2000/svg">
 <g transform="translate(2.25, 2.25)">
  <path d="M6 0C6.41421 0 6.75 0.335786 6.75 0.75L6.75 4C6.75 5.51878 5.51878 6.75 4 6.75L0.75 6.75C0.335786 6.75 0 6.41421 0 6C0 5.58579 0.335786 5.25 0.75 5.25L4 5.25C4.69036 5.25 5.25 4.69036 5.25 4L5.25 0.75C5.25 0.335786 5.58579 0 6 0ZM13.5 0C13.9142 0 14.25 0.335786 14.25 0.75L14.25 4C14.25 4.69036 14.8096 5.25 15.5 5.25L18.75 5.25C19.1642 5.25 19.5 5.58579 19.5 6C19.5 6.41421 19.1642 6.75 18.75 6.75L15.5 6.75C13.9812 6.75 12.75 5.51878 12.75 4L12.75 0.75C12.75 0.335786 13.0858 0 13.5 0ZM0 13.5C0 13.0858 0.335786 12.75 0.75 12.75L4 12.75C5.51878 12.75 6.75 13.9812 6.75 15.5L6.75 18.75C6.75 19.1642 6.41421 19.5 6 19.5C5.58579 19.5 5.25 19.1642 5.25 18.75L5.25 15.5C5.25 14.8096 4.69036 14.25 4 14.25L0.75 14.25C0.335786 14.25 0 13.9142 0 13.5ZM12.75 15.5C12.75 13.9812 13.9812 12.75 15.5 12.75L18.75 12.75C19.1642 12.75 19.5 13.0858 19.5 13.5C19.5 13.9142 19.1642 14.25 18.75 14.25L15.5 14.25C14.8096 14.25 14.25 14.8096 14.25 15.5L14.25 18.75C14.25 19.1642 13.9142 19.5 13.5 19.5C13.0858 19.5 12.75 19.1642 12.75 18.75L12.75 15.5Z" fill-rule="EVENODD"></path>
 </g>
</svg>