<svg viewBox="0 0 16 16" width="16" height="16" fill="currentColor" xmlns="http://www.w3.org/2000/svg">
 <g transform="translate(2, 2)">
  <path d="M8 2.93934L8 0.75C8 0.335786 7.66421 0 7.25 0C6.83579 0 6.5 0.335786 6.5 0.75L6.5 4.75C6.5 5.16421 6.83579 5.5 7.25 5.5L11.25 5.5C11.6642 5.5 12 5.16421 12 4.75C12 4.33579 11.6642 4 11.25 4L9.06066 4L11.7803 1.28033C12.0732 0.987437 12.0732 0.512563 11.7803 0.21967C11.4874 -0.0732232 11.0126 -0.0732232 10.7197 0.21967L8 2.93934Z" fill-rule="NONZERO"></path>
  <path d="M0.75 6.5C0.335786 6.5 0 6.83579 0 7.25C0 7.66421 0.335786 8 0.75 8L2.93934 8L0.21967 10.7197C-0.0732232 11.0126 -0.0732232 11.4874 0.21967 11.7803C0.512563 12.0732 0.987437 12.0732 1.28033 11.7803L4 9.06066L4 11.25C4 11.6642 4.33579 12 4.75 12C5.16421 12 5.5 11.6642 5.5 11.25L5.5 7.25C5.5 6.83579 5.16421 6.5 4.75 6.5L0.75 6.5Z" fill-rule="NONZERO"></path>
 </g>
</svg>