<svg viewBox="0 0 16 16" width="16" height="16" fill="currentColor" xmlns="http://www.w3.org/2000/svg">
 <g transform="translate(0.952702522277832, 0.952702522277832)">
  <path d="M4.2973 0C4.71151 0 5.0473 0.335786 5.0473 0.75L5.0473 2.7973C5.0473 4.03994 4.03994 5.0473 2.7973 5.0473L0.75 5.0473C0.335786 5.0473 0 4.71151 0 4.2973C0 3.88308 0.335786 3.5473 0.75 3.5473L2.7973 3.5473C3.21151 3.5473 3.5473 3.21151 3.5473 2.7973L3.5473 0.75C3.5473 0.335786 3.88308 0 4.2973 0ZM9.7973 0C10.2115 0 10.5473 0.335786 10.5473 0.75L10.5473 2.7973C10.5473 3.21151 10.8831 3.5473 11.2973 3.5473L13.3446 3.5473C13.7588 3.5473 14.0946 3.88308 14.0946 4.2973C14.0946 4.71151 13.7588 5.0473 13.3446 5.0473L11.2973 5.0473C10.0547 5.0473 9.0473 4.03994 9.0473 2.7973L9.0473 0.75C9.0473 0.335786 9.38308 0 9.7973 0ZM0 9.7973C0 9.38308 0.335786 9.0473 0.75 9.0473L2.7973 9.0473C4.03994 9.0473 5.0473 10.0547 5.0473 11.2973L5.0473 13.3446C5.0473 13.7588 4.71151 14.0946 4.2973 14.0946C3.88308 14.0946 3.5473 13.7588 3.5473 13.3446L3.5473 11.2973C3.5473 10.8831 3.21151 10.5473 2.7973 10.5473L0.75 10.5473C0.335786 10.5473 0 10.2115 0 9.7973ZM9.0473 11.2973C9.0473 10.0547 10.0547 9.0473 11.2973 9.0473L13.3446 9.0473C13.7588 9.0473 14.0946 9.38308 14.0946 9.7973C14.0946 10.2115 13.7588 10.5473 13.3446 10.5473L11.2973 10.5473C10.8831 10.5473 10.5473 10.8831 10.5473 11.2973L10.5473 13.3446C10.5473 13.7588 10.2115 14.0946 9.7973 14.0946C9.38308 14.0946 9.0473 13.7588 9.0473 13.3446L9.0473 11.2973Z" fill-rule="EVENODD"></path>
 </g>
</svg>