<svg viewBox="0 0 24 24" width="24" height="24" fill="black" xmlns="http://www.w3.org/2000/svg">
 <g transform="translate(1, 1)">
  <path d="M11.25 14.75C11.25 14.3358 11.5858 14 12 14L17.5 14C17.9142 14 18.25 14.3358 18.25 14.75C18.25 15.1642 17.9142 15.5 17.5 15.5L12 15.5C11.5858 15.5 11.25 15.1642 11.25 14.75Z" fill-rule="EVENODD"></path>
  <path d="M14.75 11.25C14.3358 11.25 14 11.5858 14 12L14 17.5C14 17.9142 14.3358 18.25 14.75 18.25C15.1642 18.25 15.5 17.9142 15.5 17.5L15.5 12C15.5 11.5858 15.1642 11.25 14.75 11.25Z" fill-rule="EVENODD"></path>
  <path d="M14.75 9C11.5744 9 9 11.5744 9 14.75C9 17.9256 11.5744 20.5 14.75 20.5C17.9256 20.5 20.5 17.9256 20.5 14.75C20.5 11.5744 17.9256 9 14.75 9ZM7.5 14.75C7.5 10.7459 10.7459 7.5 14.75 7.5C18.7541 7.5 22 10.7459 22 14.75C22 18.7541 18.7541 22 14.75 22C10.7459 22 7.5 18.7541 7.5 14.75Z" fill-rule="EVENODD"></path>
  <path d="M7.25 1.5C4.07436 1.5 1.5 4.07436 1.5 7.25C1.5 10.4256 4.07436 13 7.25 13C7.55691 13 7.8577 12.976 8.15073 12.93C8.55992 12.8657 8.94377 13.1452 9.00808 13.5544C9.07238 13.9636 8.7928 14.3475 8.38361 14.4118C8.01382 14.4699 7.63517 14.5 7.25 14.5C3.24594 14.5 0 11.2541 0 7.25C0 3.24594 3.24594 0 7.25 0C11.2541 0 14.5 3.24594 14.5 7.25C14.5 7.63517 14.4699 8.01382 14.4118 8.38361C14.3475 8.7928 13.9636 9.07238 13.5544 9.00808C13.1452 8.94377 12.8657 8.55992 12.93 8.15073C12.976 7.8577 13 7.55691 13 7.25C13 4.07436 10.4256 1.5 7.25 1.5Z" fill-rule="EVENODD"></path>
  <path d="M4.25 6.75C4.25 6.33579 4.58579 6 5 6L9.5 6C9.91421 6 10.25 6.33579 10.25 6.75C10.25 7.16421 9.91421 7.5 9.5 7.5L5 7.5C4.58579 7.5 4.25 7.16421 4.25 6.75Z" fill-rule="EVENODD"></path>
 </g>
</svg>