<svg viewBox="0 0 16 16" width="16" height="16" fill="currentColor" xmlns="http://www.w3.org/2000/svg">
 <g transform="translate(1, 1)">
  <path d="M4.25 6C3.83579 6 3.5 6.33579 3.5 6.75C3.5 7.16421 3.83579 7.5 4.25 7.5L9.75 7.5C10.1642 7.5 10.5 7.16421 10.5 6.75C10.5 6.33579 10.1642 6 9.75 6L4.25 6Z" fill-rule="NONZERO"></path>
  <path d="M2.25 0C1.00736 0 0 1.00736 0 2.25L0 11.75C0 12.9926 1.00736 14 2.25 14L11.75 14C12.9926 14 14 12.9926 14 11.75L14 2.25C14 1.00736 12.9926 0 11.75 0L2.25 0ZM1.5 2.25C1.5 1.83579 1.83579 1.5 2.25 1.5L11.75 1.5C12.1642 1.5 12.5 1.83579 12.5 2.25L12.5 11.75C12.5 12.1642 12.1642 12.5 11.75 12.5L2.25 12.5C1.83579 12.5 1.5 12.1642 1.5 11.75L1.5 2.25Z" fill-rule="EVENODD"></path>
 </g>
</svg>