<svg viewBox="0 0 16 16" width="16" height="16" fill="black" xmlns="http://www.w3.org/2000/svg">
 <g transform="translate(1.375, 3.375)">
  <path d="M10.1831 0.183058C10.4271 -0.0610194 10.8229 -0.0610194 11.0669 0.183058C11.311 0.427136 11.311 0.822864 11.0669 1.06694L3.06694 9.06694C2.82286 9.31102 2.42714 9.31102 2.18306 9.06694C1.93898 8.82286 1.93898 8.42714 2.18306 8.18306L10.1831 0.183058Z" fill-rule="NONZERO"></path>
  <path d="M0 1.625C0 1.27982 0.279822 1 0.625 1L5.625 1C5.97018 1 6.25 1.27982 6.25 1.625C6.25 1.97018 5.97018 2.25 5.625 2.25L0.625 2.25C0.279822 2.25 0 1.97018 0 1.625Z" fill-rule="NONZERO"></path>
  <path d="M10.25 5.625C10.25 5.27982 9.97018 5 9.625 5C9.27982 5 9 5.27982 9 5.625L9 7L7.625 7C7.27982 7 7 7.27982 7 7.625C7 7.97018 7.27982 8.25 7.625 8.25L9 8.25L9 9.625C9 9.97018 9.27982 10.25 9.625 10.25C9.97018 10.25 10.25 9.97018 10.25 9.625L10.25 8.25L11.625 8.25C11.9702 8.25 12.25 7.97018 12.25 7.625C12.25 7.27982 11.9702 7 11.625 7L10.25 7L10.25 5.625Z" fill-rule="NONZERO"></path>
 </g>
</svg>