<svg viewBox="0 0 24 24" width="24" height="24" fill="currentColor" xmlns="http://www.w3.org/2000/svg">
 <g transform="translate(1.5, 1.5)">
  <path d="M3.75 6.25C3.75 5.83579 4.08579 5.5 4.5 5.5L9 5.5C9.41421 5.5 9.75 5.83579 9.75 6.25C9.75 6.66421 9.41421 7 9 7L4.5 7C4.08579 7 3.75 6.66421 3.75 6.25Z" fill-rule="NONZERO"></path>
  <path d="M14.25 10.75C13.8358 10.75 13.5 11.0858 13.5 11.5L13.5 13.5L11.5 13.5C11.0858 13.5 10.75 13.8358 10.75 14.25C10.75 14.6642 11.0858 15 11.5 15L13.5 15L13.5 17C13.5 17.4142 13.8358 17.75 14.25 17.75C14.6642 17.75 15 17.4142 15 17L15 15L17 15C17.4142 15 17.75 14.6642 17.75 14.25C17.75 13.8358 17.4142 13.5 17 13.5L15 13.5L15 11.5C15 11.0858 14.6642 10.75 14.25 10.75Z" fill-rule="NONZERO"></path>
  <path d="M2.75 0C1.23122 0 0 1.23122 0 2.75L0 10.75C0 12.2688 1.23122 13.5 2.75 13.5L7.5 13.5L7.5 18.25C7.5 19.7688 8.73122 21 10.25 21L18.25 21C19.7688 21 21 19.7688 21 18.25L21 10.25C21 8.73122 19.7688 7.5 18.25 7.5L13.5 7.5L13.5 2.75C13.5 1.23122 12.2688 0 10.75 0L2.75 0ZM12 7.5L12 2.75C12 2.05964 11.4404 1.5 10.75 1.5L2.75 1.5C2.05964 1.5 1.5 2.05964 1.5 2.75L1.5 10.75C1.5 11.4404 2.05964 12 2.75 12L7.5 12L7.5 10.25C7.5 8.73122 8.73122 7.5 10.25 7.5L12 7.5ZM9 18.25C9 18.9404 9.55964 19.5 10.25 19.5L18.25 19.5C18.9404 19.5 19.5 18.9404 19.5 18.25L19.5 10.25C19.5 9.55964 18.9404 9 18.25 9L10.25 9C9.55964 9 9 9.55964 9 10.25L9 18.25Z" fill-rule="EVENODD"></path>
 </g>
</svg>