<svg viewBox="0 0 24 24" width="24" height="24" fill="currentColor" xmlns="http://www.w3.org/2000/svg">
 <g transform="translate(3.5, 5)">
  <path d="M14.2197 0.21967C14.5126 -0.0732233 14.9874 -0.0732233 15.2803 0.21967C15.5732 0.512563 15.5732 0.987437 15.2803 1.28033L2.78033 13.7803C2.48744 14.0732 2.01256 14.0732 1.71967 13.7803C1.42678 13.4874 1.42678 13.0126 1.71967 12.7197L14.2197 0.21967Z" fill-rule="NONZERO"></path>
  <path d="M0 1.75C0 1.33579 0.335786 1 0.75 1L6.25 1C6.66421 1 7 1.33579 7 1.75C7 2.16421 6.66421 2.5 6.25 2.5L0.75 2.5C0.335786 2.5 0 2.16421 0 1.75Z" fill-rule="NONZERO"></path>
  <path d="M13 8.5C13 8.08579 13.3358 7.75 13.75 7.75C14.1642 7.75 14.5 8.08579 14.5 8.5L14.5 11L17 11C17.4142 11 17.75 11.3358 17.75 11.75C17.75 12.1642 17.4142 12.5 17 12.5L14.5 12.5L14.5 15C14.5 15.4142 14.1642 15.75 13.75 15.75C13.3358 15.75 13 15.4142 13 15L13 12.5L10.5 12.5C10.0858 12.5 9.75 12.1642 9.75 11.75C9.75 11.3358 10.0858 11 10.5 11L13 11L13 8.5Z" fill-rule="NONZERO"></path>
 </g>
</svg>