<svg viewBox="0 0 16 16" width="16" height="16" fill="black" xmlns="http://www.w3.org/2000/svg">
 <g transform="translate(0.25, 0.25)">
  <path d="M4.75 7C4.33579 7 4 7.33579 4 7.75C4 8.16421 4.33579 8.5 4.75 8.5L10.75 8.5C11.1642 8.5 11.5 8.16421 11.5 7.75C11.5 7.33579 11.1642 7 10.75 7L4.75 7Z" fill-rule="NONZERO"></path>
  <path d="M7.75 0C3.46979 0 0 3.46979 0 7.75C0 12.0302 3.46979 15.5 7.75 15.5C12.0302 15.5 15.5 12.0302 15.5 7.75C15.5 3.46979 12.0302 0 7.75 0ZM1.5 7.75C1.5 4.29822 4.29822 1.5 7.75 1.5C11.2018 1.5 14 4.29822 14 7.75C14 11.2018 11.2018 14 7.75 14C4.29822 14 1.5 11.2018 1.5 7.75Z" fill-rule="EVENODD"></path>
 </g>
</svg>