<svg viewBox="0 0 16 16" width="16" height="16" fill="currentColor" xmlns="http://www.w3.org/2000/svg">
 <g transform="translate(1.5, 3)">
  <path d="M10.2197 0.21967C10.5126 -0.0732233 10.9874 -0.0732233 11.2803 0.21967C11.5732 0.512563 11.5732 0.987437 11.2803 1.28033L2.78033 9.78033C2.48744 10.0732 2.01256 10.0732 1.71967 9.78033C1.42678 9.48744 1.42678 9.01256 1.71967 8.71967L10.2197 0.21967Z" fill-rule="NONZERO"></path>
  <path d="M0.75 1C0.335786 1 0 1.33579 0 1.75C0 2.16421 0.335786 2.5 0.75 2.5L5.25 2.5C5.66421 2.5 6 2.16421 6 1.75C6 1.33579 5.66421 1 5.25 1L0.75 1Z" fill-rule="NONZERO"></path>
  <path d="M8.5 7C8.08579 7 7.75 7.33579 7.75 7.75C7.75 8.16421 8.08579 8.5 8.5 8.5L10 8.5L10 10C10 10.4142 10.3358 10.75 10.75 10.75C11.1642 10.75 11.5 10.4142 11.5 10L11.5 8.5L13 8.5C13.4142 8.5 13.75 8.16421 13.75 7.75C13.75 7.33579 13.4142 7 13 7L11.5 7L11.5 5.5C11.5 5.08579 11.1642 4.75 10.75 4.75C10.3358 4.75 10 5.08579 10 5.5L10 7L8.5 7Z" fill-rule="NONZERO"></path>
 </g>
</svg>