<svg viewBox="0 0 24 24" width="24" height="24" fill="currentColor" xmlns="http://www.w3.org/2000/svg">
 <g transform="translate(2, 2)">
  <path d="M6.25 9C5.83579 9 5.5 9.33579 5.5 9.75C5.5 10.1642 5.83579 10.5 6.25 10.5L13.75 10.5C14.1642 10.5 14.5 10.1642 14.5 9.75C14.5 9.33579 14.1642 9 13.75 9L6.25 9Z" fill-rule="NONZERO"></path>
  <path d="M2.75 0C1.23122 0 0 1.23122 0 2.75L0 17.25C0 18.7688 1.23122 20 2.75 20L17.25 20C18.7688 20 20 18.7688 20 17.25L20 2.75C20 1.23122 18.7688 0 17.25 0L2.75 0ZM1.5 2.75C1.5 2.05964 2.05964 1.5 2.75 1.5L17.25 1.5C17.9404 1.5 18.5 2.05964 18.5 2.75L18.5 17.25C18.5 17.9404 17.9404 18.5 17.25 18.5L2.75 18.5C2.05964 18.5 1.5 17.9404 1.5 17.25L1.5 2.75Z" fill-rule="EVENODD"></path>
 </g>
</svg>