<svg viewBox="0 0 24 24" width="24" height="24" fill="currentColor" xmlns="http://www.w3.org/2000/svg">
 <g transform="translate(1, 1)">
  <path d="M11 1.5C5.75329 1.5 1.5 5.75329 1.5 11C1.5 16.2467 5.75329 20.5 11 20.5C16.2467 20.5 20.5 16.2467 20.5 11C20.5 5.75329 16.2467 1.5 11 1.5ZM0 11C0 4.92487 4.92487 0 11 0C17.0751 0 22 4.92487 22 11C22 17.0751 17.0751 22 11 22C4.92487 22 0 17.0751 0 11Z" fill-rule="EVENODD"></path>
  <path d="M6.5 10.75C6.5 10.3358 6.83579 10 7.25 10L14.75 10C15.1642 10 15.5 10.3358 15.5 10.75C15.5 11.1642 15.1642 11.5 14.75 11.5L7.25 11.5C6.83579 11.5 6.5 11.1642 6.5 10.75Z" fill-rule="EVENODD"></path>
 </g>
</svg>