<svg viewBox="0 0 16 16" width="16" height="16" fill="currentColor" xmlns="http://www.w3.org/2000/svg">
 <g transform="translate(0, 0)">
  <path d="M10.25 7.5C10.6642 7.5 11 7.83579 11 8.25L11 12.25C11 12.6642 10.6642 13 10.25 13C9.83579 13 9.5 12.6642 9.5 12.25L9.5 8.25C9.5 7.83579 9.83579 7.5 10.25 7.5Z" fill-rule="EVENODD"></path>
  <path d="M7.5 10.25C7.5 9.83579 7.83579 9.5 8.25 9.5L12.25 9.5C12.6642 9.5 13 9.83579 13 10.25C13 10.6642 12.6642 11 12.25 11L8.25 11C7.83579 11 7.5 10.6642 7.5 10.25Z" fill-rule="EVENODD"></path>
  <path d="M5.25 1.5C3.17893 1.5 1.5 3.17893 1.5 5.25C1.5 7.32107 3.17893 9 5.25 9C5.66421 9 6 9.33579 6 9.75C6 10.1642 5.66421 10.5 5.25 10.5C2.3505 10.5 0 8.1495 0 5.25C0 2.3505 2.3505 0 5.25 0C8.1495 0 10.5 2.3505 10.5 5.25C10.5 5.66421 10.1642 6 9.75 6C9.33579 6 9 5.66421 9 5.25C9 3.17893 7.32107 1.5 5.25 1.5Z" fill-rule="EVENODD"></path>
  <path d="M10.25 6.5C8.17893 6.5 6.5 8.17893 6.5 10.25C6.5 12.3211 8.17893 14 10.25 14C12.3211 14 14 12.3211 14 10.25C14 8.17893 12.3211 6.5 10.25 6.5ZM5 10.25C5 7.3505 7.3505 5 10.25 5C13.1495 5 15.5 7.3505 15.5 10.25C15.5 13.1495 13.1495 15.5 10.25 15.5C7.3505 15.5 5 13.1495 5 10.25Z" fill-rule="EVENODD"></path>
  <path d="M3 5.25C3 4.83579 3.33579 4.5 3.75 4.5L6.75 4.5C7.16421 4.5 7.5 4.83579 7.5 5.25C7.5 5.66421 7.16421 6 6.75 6L3.75 6C3.33579 6 3 5.66421 3 5.25Z" fill-rule="EVENODD"></path>
 </g>
</svg>