<svg viewBox="0 0 16 16" width="16" height="16" fill="black" xmlns="http://www.w3.org/2000/svg">
 <g transform="translate(1.5, 3)">
  <path d="M0 1.75C0 1.33579 0.335786 1 0.75 1L5.25 1C5.66421 1 6 1.33579 6 1.75C6 2.16421 5.66421 2.5 5.25 2.5L0.75 2.5C0.335786 2.5 0 2.16421 0 1.75Z" fill-rule="EVENODD"></path>
  <path d="M7.75 7.75C7.75 7.33579 8.08579 7 8.5 7L13 7C13.4142 7 13.75 7.33579 13.75 7.75C13.75 8.16421 13.4142 8.5 13 8.5L8.5 8.5C8.08579 8.5 7.75 8.16421 7.75 7.75Z" fill-rule="EVENODD"></path>
  <path d="M10.75 4.75C10.3358 4.75 10 5.08579 10 5.5L10 10C10 10.4142 10.3358 10.75 10.75 10.75C11.1642 10.75 11.5 10.4142 11.5 10L11.5 5.5C11.5 5.08579 11.1642 4.75 10.75 4.75Z" fill-rule="EVENODD"></path>
  <path d="M11.2803 0.21967C10.9874 -0.0732233 10.5126 -0.0732233 10.2197 0.21967L1.71967 8.71967C1.42678 9.01256 1.42678 9.48744 1.71967 9.78033C2.01256 10.0732 2.48744 10.0732 2.78033 9.78033L11.2803 1.28033C11.5732 0.987437 11.5732 0.512563 11.2803 0.21967Z" fill-rule="EVENODD"></path>
 </g>
</svg>