<svg viewBox="0 0 24 24" width="24" height="24" fill="currentColor" xmlns="http://www.w3.org/2000/svg">
 <g transform="translate(3, 1.9677734375)">
  <path d="M14 5.89841C14 5.10451 13.2695 4.51173 12.4926 4.6752L4.99263 6.25325C4.41413 6.37497 4 6.8853 4 7.47647L4 15.1661C4 15.96 4.73048 16.5528 5.50737 16.3893L13.0074 14.8113C13.5859 14.6896 14 14.1792 14 13.5881L14 5.89841ZM5.5 7.67934L12.5 6.20649L12.5 13.3852L5.5 14.858L5.5 7.67934Z" fill-rule="EVENODD"></path>
  <path d="M18 2.75103C18 1.00259 16.3897 -0.30192 14.6794 0.0608887L2.17936 2.7124C0.90877 2.98192 0 4.10368 0 5.40255L0 18.3135C0 20.062 1.61025 21.3665 3.32064 21.0037L15.8206 18.3522C17.0912 18.0827 18 16.9609 18 15.662L18 2.75103ZM14.9906 1.52824C15.7681 1.36333 16.5 1.95629 16.5 2.75103L16.5 15.662C16.5 16.2524 16.0869 16.7623 15.5094 16.8848L3.00938 19.5363C2.23193 19.7013 1.5 19.1083 1.5 18.3135L1.5 5.40255C1.5 4.81216 1.91308 4.30226 2.49062 4.17976L14.9906 1.52824Z" fill-rule="EVENODD"></path>
 </g>
</svg>