<svg viewBox="0 0 16 16" width="16" height="16" fill="black" xmlns="http://www.w3.org/2000/svg">
 <g transform="translate(1, 0.07894106954336166)">
  <path d="M12.5 2.25076C12.5 1.77748 12.067 1.42251 11.6029 1.51533L2.10291 3.41533C1.75234 3.48544 1.5 3.79325 1.5 4.15076L1.5 13.5914C1.5 14.0646 1.93299 14.4196 2.39709 14.3268L11.8971 12.4268C12.2477 12.3567 12.5 12.0489 12.5 11.6914L12.5 2.25076ZM11.3087 0.044458C12.701 -0.233999 14 0.830912 14 2.25076L14 11.6914C14 12.7639 13.243 13.6873 12.1913 13.8977L2.69126 15.7977C1.29898 16.0761 0 15.0112 0 13.5914L0 4.15076C0 3.07823 0.757034 2.1548 1.80874 1.94446L11.3087 0.044458Z" fill-rule="EVENODD"></path>
  <path d="M10.2255 4.09105C10.3993 4.23351 10.5 4.44636 10.5 4.67106L10.5 10.0711C10.5 10.4286 10.2477 10.7364 9.89709 10.8065L4.39709 11.9065C4.17676 11.9506 3.94827 11.8935 3.77451 11.7511C3.60074 11.6086 3.5 11.3958 3.5 11.1711L3.5 5.77106C3.5 5.41355 3.75234 5.10574 4.10291 5.03562L9.60291 3.93562C9.82324 3.89156 10.0517 3.9486 10.2255 4.09105ZM5 6.38591L5 10.2562L9 9.45621L9 5.58591L5 6.38591Z" fill-rule="EVENODD"></path>
 </g>
</svg>