<svg viewBox="0 0 24 24" width="24" height="24" fill="black" xmlns="http://www.w3.org/2000/svg">
 <g transform="translate(3, 1.967710018157959)">
  <path d="M16.5 2.75103C16.5 1.95629 15.7681 1.36333 14.9906 1.52824L2.49062 4.17976C1.91308 4.30226 1.5 4.81216 1.5 5.40255L1.5 18.3135C1.5 19.1083 2.23193 19.7013 3.00938 19.5363L15.5094 16.8848C16.0869 16.7623 16.5 16.2524 16.5 15.662L16.5 2.75103ZM14.6794 0.0608887C16.3897 -0.30192 18 1.00259 18 2.75103L18 15.662C18 16.9609 17.0912 18.0827 15.8206 18.3522L3.32064 21.0037C1.61025 21.3665 0 20.062 0 18.3135L0 5.40255C0 4.10368 0.90877 2.98192 2.17936 2.7124L14.6794 0.0608887Z" fill-rule="EVENODD"></path>
  <path d="M12.5 6.20652L5.5 7.67937L5.5 14.8581L12.5 13.3852L12.5 6.20652ZM12.4926 4.67522C13.2695 4.51176 14 5.10454 14 5.89844L14 13.5881C14 14.1792 13.5859 14.6896 13.0074 14.8113L5.50737 16.3894C4.73048 16.5528 4 15.96 4 15.1661L4 7.4765C4 6.88533 4.41413 6.375 4.99263 6.25328L12.4926 4.67522Z" fill-rule="EVENODD"></path>
 </g>
</svg>