<svg viewBox="0 0 16 16" width="16" height="16" fill="currentColor" xmlns="http://www.w3.org/2000/svg">
 <g transform="translate(1, 0.078857421875)">
  <path d="M10.5 4.67115C10.5 4.44645 10.3993 4.2336 10.2255 4.09114C10.0517 3.94869 9.82324 3.89165 9.60291 3.93571L4.10291 5.03571C3.75234 5.10583 3.5 5.41364 3.5 5.77115L3.5 11.1711C3.5 11.3958 3.60074 11.6087 3.77451 11.7512C3.94827 11.8936 4.17676 11.9507 4.39709 11.9066L9.89709 10.8066C10.2477 10.7365 10.5 10.4287 10.5 10.0711L10.5 4.67115ZM5 10.2563L5 6.386L9 5.586L9 9.4563L5 10.2563Z" fill-rule="EVENODD"></path>
  <path d="M14 2.25076C14 0.830912 12.701 -0.233999 11.3087 0.044458L1.80874 1.94446C0.757034 2.1548 0 3.07823 0 4.15076L0 13.5914C0 15.0112 1.29898 16.0761 2.69126 15.7977L12.1913 13.8977C13.243 13.6873 14 12.7639 14 11.6914L14 2.25076ZM11.6029 1.51533C12.067 1.42251 12.5 1.77748 12.5 2.25076L12.5 11.6914C12.5 12.0489 12.2477 12.3567 11.8971 12.4268L2.39709 14.3268C1.93299 14.4196 1.5 14.0646 1.5 13.5914L1.5 4.15076C1.5 3.79325 1.75234 3.48544 2.10291 3.41533L11.6029 1.51533Z" fill-rule="EVENODD"></path>
 </g>
</svg>