<svg viewBox="0 0 16 16" width="16" height="16" fill="currentColor" xmlns="http://www.w3.org/2000/svg">
 <g transform="translate(0, 1)">
  <path d="M0 2.25C0 1.00736 1.00736 0 2.25 0L13.75 0C14.9926 0 16 1.00736 16 2.25L16 8.75C16 9.99264 14.9926 11 13.75 11L2.25 11C1.00736 11 0 9.99264 0 8.75L0 2.25ZM2.25 1.5C1.83579 1.5 1.5 1.83579 1.5 2.25L1.5 8.75C1.5 9.16421 1.83579 9.5 2.25 9.5L13.75 9.5C14.1642 9.5 14.5 9.16421 14.5 8.75L14.5 2.25C14.5 1.83579 14.1642 1.5 13.75 1.5L2.25 1.5Z" fill-rule="EVENODD"></path>
  <path d="M4.25 13.25C4.25 12.8358 4.58579 12.5 5 12.5L11 12.5C11.4142 12.5 11.75 12.8358 11.75 13.25C11.75 13.6642 11.4142 14 11 14L5 14C4.58579 14 4.25 13.6642 4.25 13.25Z" fill-rule="EVENODD"></path>
  <path d="M7.75 9.5C8.16421 9.5 8.5 9.83579 8.5 10.25L8.5 13.25C8.5 13.6642 8.16421 14 7.75 14C7.33579 14 7 13.6642 7 13.25L7 10.25C7 9.83579 7.33579 9.5 7.75 9.5Z" fill-rule="EVENODD"></path>
 </g>
</svg>