<svg viewBox="0 0 24 24" width="24" height="24" fill="currentColor" xmlns="http://www.w3.org/2000/svg">
 <g transform="translate(1, 2)">
  <path d="M0 2.75C0 1.23122 1.23122 0 2.75 0L19.25 0C20.7688 0 22 1.23122 22 2.75L22 13.25C22 14.7688 20.7688 16 19.25 16L2.75 16C1.23122 16 0 14.7688 0 13.25L0 2.75ZM2.75 1.5C2.05964 1.5 1.5 2.05964 1.5 2.75L1.5 13.25C1.5 13.9404 2.05964 14.5 2.75 14.5L19.25 14.5C19.9404 14.5 20.5 13.9404 20.5 13.25L20.5 2.75C20.5 2.05964 19.9404 1.5 19.25 1.5L2.75 1.5Z" fill-rule="EVENODD"></path>
  <path d="M6.25 19.25C6.25 18.8358 6.58579 18.5 7 18.5L15 18.5C15.4142 18.5 15.75 18.8358 15.75 19.25C15.75 19.6642 15.4142 20 15 20L7 20C6.58579 20 6.25 19.6642 6.25 19.25Z" fill-rule="EVENODD"></path>
  <path d="M10.75 14.5C11.1642 14.5 11.5 14.8358 11.5 15.25L11.5 19.25C11.5 19.6642 11.1642 20 10.75 20C10.3358 20 10 19.6642 10 19.25L10 15.25C10 14.8358 10.3358 14.5 10.75 14.5Z" fill-rule="EVENODD"></path>
 </g>
</svg>