<svg viewBox="0 0 24 24" width="24" height="24" fill="currentColor" xmlns="http://www.w3.org/2000/svg">
 <g transform="translate(1.9999998807907104, 1.9999873638153076)">
  <path d="M9.82005 0.381781C9.96519 0.639318 9.94551 0.95809 9.76979 1.19582C8.85012 2.44003 8.40757 3.973 8.52263 5.51592C8.63769 7.05884 9.30271 8.50922 10.3968 9.60326C11.4908 10.6973 12.9412 11.3623 14.4841 11.4774C16.027 11.5924 17.56 11.1499 18.8042 10.2302C19.0419 10.0545 19.3607 10.0348 19.6182 10.18C19.8758 10.3251 20.024 10.608 19.9968 10.9024C19.8217 12.7974 19.1105 14.6034 17.9464 16.109C16.7823 17.6146 15.2135 18.7576 13.4236 19.4041C11.6336 20.0506 9.69659 20.174 7.83907 19.7599C5.98155 19.3457 4.28041 18.411 2.93469 17.0653C1.58898 15.7196 0.654345 14.0185 0.240164 12.1609C-0.174018 10.3034 -0.05062 8.36637 0.59592 6.57643C1.24246 4.78648 2.3854 3.21769 3.891 2.05361C5.3966 0.889534 7.20259 0.178322 9.09765 0.00319479C9.39202 -0.0240085 9.6749 0.124244 9.82005 0.381781ZM7.69976 1.78262C6.65628 2.07792 5.67401 2.5711 4.8085 3.24029C3.52829 4.2301 2.55646 5.56403 2.00671 7.08601C1.45696 8.60799 1.35203 10.2551 1.70421 11.8345C2.05639 13.4139 2.8511 14.8604 3.99535 16.0047C5.13961 17.1489 6.58608 17.9436 8.16552 18.2958C9.74495 18.648 11.392 18.5431 12.914 17.9933C14.436 17.4436 15.7699 16.4717 16.7597 15.1915C17.4289 14.326 17.9221 13.3437 18.2174 12.3003C17.0195 12.8366 15.699 13.0722 14.3725 12.9732C12.4713 12.8315 10.6842 12.012 9.33609 10.6639C7.98801 9.31583 7.16856 7.52867 7.02678 5.62747C6.92786 4.30099 7.16342 2.98048 7.69976 1.78262Z" fill-rule="EVENODD"></path>
 </g>
</svg>