<svg viewBox="0 0 16 16" width="16" height="16" fill="black" xmlns="http://www.w3.org/2000/svg">
 <g transform="translate(6.5, 2)">
  <path d="M0 6C0 5.17157 0.671573 4.5 1.5 4.5C2.32843 4.5 3 5.17157 3 6C3 6.82843 2.32843 7.5 1.5 7.5C0.671573 7.5 0 6.82843 0 6Z" fill-rule="EVENODD"></path>
  <path d="M0 10.5C0 9.67157 0.671573 9 1.5 9C2.32843 9 3 9.67157 3 10.5C3 11.3284 2.32843 12 1.5 12C0.671573 12 0 11.3284 0 10.5Z" fill-rule="EVENODD"></path>
  <path d="M0 1.5C0 0.671573 0.671573 0 1.5 0C2.32843 0 3 0.671573 3 1.5C3 2.32843 2.32843 3 1.5 3C0.671573 3 0 2.32843 0 1.5Z" fill-rule="EVENODD"></path>
 </g>
</svg>