<svg viewBox="0 0 16 16" width="16" height="16" fill="currentColor" xmlns="http://www.w3.org/2000/svg">
 <g transform="translate(2, 6.5)">
  <path d="M4.5 1.5C4.5 0.671573 5.17157 0 6 0C6.82843 0 7.5 0.671573 7.5 1.5C7.5 2.32843 6.82843 3 6 3C5.17157 3 4.5 2.32843 4.5 1.5Z" fill-rule="EVENODD"></path>
  <path d="M9 1.5C9 0.671573 9.67157 0 10.5 0C11.3284 0 12 0.671573 12 1.5C12 2.32843 11.3284 3 10.5 3C9.67157 3 9 2.32843 9 1.5Z" fill-rule="EVENODD"></path>
  <path d="M0 1.5C0 0.671573 0.671573 0 1.5 0C2.32843 0 3 0.671573 3 1.5C3 2.32843 2.32843 3 1.5 3C0.671573 3 0 2.32843 0 1.5Z" fill-rule="EVENODD"></path>
 </g>
</svg>