<svg viewBox="0 0 16 16" width="16" height="16" fill="black" xmlns="http://www.w3.org/2000/svg">
 <g transform="translate(0, 0)">
  <path d="M3.28033 5.21967C3.57322 5.51256 3.57322 5.98744 3.28033 6.28033L1.81066 7.75L3.28033 9.21967C3.57322 9.51256 3.57322 9.98744 3.28033 10.2803C2.98744 10.5732 2.51256 10.5732 2.21967 10.2803L0.21967 8.28033C-0.0732233 7.98744 -0.0732233 7.51256 0.21967 7.21967L2.21967 5.21967C2.51256 4.92678 2.98744 4.92678 3.28033 5.21967Z" fill-rule="EVENODD"></path>
  <path d="M7.21967 0.21967C7.51256 -0.0732233 7.98744 -0.0732233 8.28033 0.21967L10.2803 2.21967C10.5732 2.51256 10.5732 2.98744 10.2803 3.28033C9.98744 3.57322 9.51256 3.57322 9.21967 3.28033L7.75 1.81066L6.28033 3.28033C5.98744 3.57322 5.51256 3.57322 5.21967 3.28033C4.92678 2.98744 4.92678 2.51256 5.21967 2.21967L7.21967 0.21967Z" fill-rule="EVENODD"></path>
  <path d="M5.21967 12.2197C5.51256 11.9268 5.98744 11.9268 6.28033 12.2197L7.75 13.6893L9.21967 12.2197C9.51256 11.9268 9.98744 11.9268 10.2803 12.2197C10.5732 12.5126 10.5732 12.9874 10.2803 13.2803L8.28033 15.2803C7.98744 15.5732 7.51256 15.5732 7.21967 15.2803L5.21967 13.2803C4.92678 12.9874 4.92678 12.5126 5.21967 12.2197Z" fill-rule="EVENODD"></path>
  <path d="M12.2197 5.21967C12.5126 4.92678 12.9874 4.92678 13.2803 5.21967L15.2803 7.21967C15.5732 7.51256 15.5732 7.98744 15.2803 8.28033L13.2803 10.2803C12.9874 10.5732 12.5126 10.5732 12.2197 10.2803C11.9268 9.98744 11.9268 9.51256 12.2197 9.21967L13.6893 7.75L12.2197 6.28033C11.9268 5.98744 11.9268 5.51256 12.2197 5.21967Z" fill-rule="EVENODD"></path>
  <path d="M0 7.75C0 7.33579 0.335786 7 0.75 7L14.75 7C15.1642 7 15.5 7.33579 15.5 7.75C15.5 8.16421 15.1642 8.5 14.75 8.5L0.75 8.5C0.335786 8.5 0 8.16421 0 7.75Z" fill-rule="EVENODD"></path>
  <path d="M7.75 0C8.16421 0 8.5 0.335786 8.5 0.75L8.5 14.75C8.5 15.1642 8.16421 15.5 7.75 15.5C7.33579 15.5 7 15.1642 7 14.75L7 0.75C7 0.335786 7.33579 0 7.75 0Z" fill-rule="EVENODD"></path>
 </g>
</svg>