<svg viewBox="0 0 24 24" width="24" height="24" fill="currentColor" xmlns="http://www.w3.org/2000/svg">
 <g transform="translate(2.5, 2.02001953125)">
  <path d="M18 2.25056C18 1.7871 17.5839 1.43457 17.1267 1.51076L8.1267 3.01076C7.76506 3.07103 7.5 3.38393 7.5 3.75056L7.5 17.0358C7.5 18.3801 6.52811 19.5274 5.2021 19.7484L3.2021 20.0817C1.52588 20.3611 0 19.0685 0 17.3692L0 16.9243C0 15.58 0.971886 14.4327 2.2979 14.2117L6 13.5947L6 3.75056C6 2.65067 6.79518 1.71199 7.8801 1.53117L16.8801 0.0311705C18.2515 -0.197404 19.5 0.860193 19.5 2.25056L19.5 15.0358C19.5 16.3801 18.5281 17.5274 17.2021 17.7484L15.2021 18.0817C13.5259 18.3611 12 17.0685 12 15.3692L12 14.9243C12 13.58 12.9719 12.4327 14.2979 12.2117L18 11.5947L18 2.25056ZM18 13.1154L14.5445 13.6913C13.9418 13.7918 13.5 14.3133 13.5 14.9243L13.5 15.3692C13.5 16.1416 14.1936 16.7291 14.9555 16.6021L16.9555 16.2688C17.5582 16.1684 18 15.6469 18 15.0358L18 13.1154ZM2.5445 15.6913L6 15.1154L6 17.0358C6 17.6469 5.55823 18.1684 4.9555 18.2688L2.9555 18.6021C2.19358 18.7291 1.5 18.1416 1.5 17.3692L1.5 16.9243C1.5 16.3133 1.94177 15.7918 2.5445 15.6913Z" fill-rule="EVENODD"></path>
 </g>
</svg>