<svg viewBox="0 0 16 16" width="16" height="16" fill="currentColor" xmlns="http://www.w3.org/2000/svg">
 <g transform="translate(1, 1.936767578125)">
  <path d="M12.5 1.75046C12.5 1.5954 12.3603 1.47773 12.2075 1.5041L5.70749 2.62567C5.58759 2.64636 5.5 2.75036 5.5 2.87203L5.5 10.22C5.5 11.572 4.51726 12.7234 3.18207 12.9358L2.50404 13.0437C1.18979 13.2528 0 12.2373 0 10.9065C0 9.84263 0.773338 8.93654 1.82403 8.76938L4 8.42321L4 2.87203C4 2.02034 4.61315 1.29233 5.45244 1.14751L11.9524 0.0259442C13.0221 -0.158622 14 0.665012 14 1.75046L14 9.21999C14 10.572 13.0173 11.7234 11.6821 11.9358L11.004 12.0437C9.68979 12.2528 8.5 11.2373 8.5 9.90654C8.5 8.84263 9.27334 7.93654 10.324 7.76938L12.5 7.42321L12.5 1.75046ZM4 9.94207L2.05971 10.2508C1.7373 10.302 1.5 10.5801 1.5 10.9065C1.5 11.3149 1.86509 11.6265 2.26837 11.5623L2.94639 11.4545C3.5533 11.3579 4 10.8345 4 10.22L4 9.94207ZM10.5597 9.25075L12.5 8.94207L12.5 9.21999C12.5 9.83453 12.0533 10.3579 11.4464 10.4545L10.7684 10.5623C10.3651 10.6265 10 10.3149 10 9.90654C10 9.58008 10.2373 9.30205 10.5597 9.25075Z" fill-rule="EVENODD"></path>
 </g>
</svg>