<svg viewBox="0 0 16 16" width="16" height="16" fill="black" xmlns="http://www.w3.org/2000/svg">
 <g transform="translate(1, 1.936866044998169)">
  <path d="M12.5 1.75046C12.5 1.5954 12.3603 1.47773 12.2075 1.5041L5.70749 2.62567C5.58759 2.64636 5.5 2.75036 5.5 2.87203L5.5 9.56313C5.5 9.97735 5.16421 10.3131 4.75 10.3131C4.33579 10.3131 4 9.97735 4 9.56313L4 2.87203C4 2.02034 4.61315 1.29233 5.45244 1.14751L11.9524 0.0259442C13.0221 -0.158622 14 0.665012 14 1.75046L14 8.56313C14 8.97735 13.6642 9.31313 13.25 9.31313C12.8358 9.31313 12.5 8.97735 12.5 8.56313L12.5 1.75046Z" fill-rule="EVENODD"></path>
  <path d="M5.5 8.18438L5.5 10.2198C5.5 11.5718 4.51726 12.7232 3.18207 12.9356L2.50404 13.0435C1.18979 13.2526 0 12.2371 0 10.9064C0 9.84245 0.773338 8.93635 1.82403 8.7692L5.5 8.18438ZM4 9.94188L2.05971 10.2506C1.7373 10.3019 1.5 10.5799 1.5 10.9064C1.5 11.3147 1.86509 11.6263 2.26837 11.5621L2.94639 11.4543C3.5533 11.3577 4 10.8343 4 10.2198L4 9.94188Z" fill-rule="EVENODD"></path>
  <path d="M14 7.18438L14 9.2198C14 10.5718 13.0173 11.7232 11.6821 11.9356L11.004 12.0435C9.68979 12.2526 8.5 11.2371 8.5 9.90636C8.5 8.84245 9.27334 7.93635 10.324 7.7692L14 7.18438ZM12.5 8.94188L10.5597 9.25057C10.2373 9.30186 10 9.5799 10 9.90636C10 10.3147 10.3651 10.6263 10.7684 10.5621L11.4464 10.4543C12.0533 10.3577 12.5 9.83434 12.5 9.2198L12.5 8.94188Z" fill-rule="EVENODD"></path>
 </g>
</svg>