<svg viewBox="0 0 16 16" width="16" height="16" fill="currentColor" xmlns="http://www.w3.org/2000/svg">
 <g transform="translate(1.999971866607666, 1)">
  <path d="M6.00003 0C6.30203 0 6.57457 0.181136 6.69151 0.459576L11.9415 12.9596C12.0631 13.249 11.9915 13.5834 11.7623 13.7978C11.533 14.0122 11.1945 14.0611 10.9139 13.9205L6.00003 11.4574L1.08611 13.9205C0.805516 14.0611 0.467017 14.0122 0.237764 13.7978C0.00851186 13.5834 -0.0629998 13.249 0.0585416 12.9596L5.30854 0.459576C5.42549 0.181136 5.69803 0 6.00003 0ZM2.22674 11.6708L5.66395 9.94794C5.87546 9.84192 6.1246 9.84192 6.33611 9.94794L9.77332 11.6708L6.00003 2.68682L2.22674 11.6708Z" fill-rule="EVENODD"></path>
 </g>
</svg>