<svg viewBox="0 0 16 16" width="16" height="16" fill="currentColor" xmlns="http://www.w3.org/2000/svg">
 <g transform="translate(0.9999813437461853, 0.9999786615371704)">
  <path d="M13.7803 0.219691C14.0045 0.443816 14.0635 0.784637 13.9278 1.07109L8.00677 13.5711C7.87116 13.8574 7.5703 14.0276 7.25506 13.9964C6.93982 13.9652 6.67819 13.7392 6.60136 13.4319L5.39471 8.60533L0.568117 7.39868C0.260795 7.32185 0.0348835 7.06022 0.00366868 6.74498C-0.0275462 6.42974 0.142667 6.12888 0.428954 5.99327L12.929 0.0722179C13.2154 -0.0634684 13.5562 -0.00443345 13.7803 0.219691ZM2.96503 6.45174L6.19508 7.25926C6.46379 7.32644 6.6736 7.53625 6.74078 7.80496L7.5483 11.035L11.6732 2.32681L2.96503 6.45174Z" fill-rule="EVENODD"></path>
 </g>
</svg>