<svg viewBox="0 0 24 24" width="24" height="24" fill="currentColor" xmlns="http://www.w3.org/2000/svg">
 <g transform="translate(2.25, 2.5)">
  <path d="M8 0C7.0335 0 6.25 0.783502 6.25 1.75L6.25 5.25C6.25 6.2165 7.0335 7 8 7L8.75 7L8.75 8.5L0.75 8.5C0.335786 8.5 0 8.83579 0 9.25C0 9.66421 0.335786 10 0.75 10L4.25 10L4.25 12L3 12C2.0335 12 1.25 12.7835 1.25 13.75L1.25 17.25C1.25 18.2165 2.0335 19 3 19L6.5 19C7.4665 19 8.25 18.2165 8.25 17.25L8.25 13.75C8.25 12.7835 7.4665 12 6.5 12L5.75 12L5.75 10L13.75 10L13.75 12L13 12C12.0335 12 11.25 12.7835 11.25 13.75L11.25 17.25C11.25 18.2165 12.0335 19 13 19L16.5 19C17.4665 19 18.25 18.2165 18.25 17.25L18.25 13.75C18.25 12.7835 17.4665 12 16.5 12L15.25 12L15.25 10L18.75 10C19.1642 10 19.5 9.66421 19.5 9.25C19.5 8.83579 19.1642 8.5 18.75 8.5L10.25 8.5L10.25 7L11.5 7C12.4665 7 13.25 6.2165 13.25 5.25L13.25 1.75C13.25 0.783502 12.4665 0 11.5 0L8 0ZM7.75 1.75C7.75 1.61193 7.86193 1.5 8 1.5L11.5 1.5C11.6381 1.5 11.75 1.61193 11.75 1.75L11.75 5.25C11.75 5.38807 11.6381 5.5 11.5 5.5L8 5.5C7.86193 5.5 7.75 5.38807 7.75 5.25L7.75 1.75ZM2.75 13.75C2.75 13.6119 2.86193 13.5 3 13.5L6.5 13.5C6.63807 13.5 6.75 13.6119 6.75 13.75L6.75 17.25C6.75 17.3881 6.63807 17.5 6.5 17.5L3 17.5C2.86193 17.5 2.75 17.3881 2.75 17.25L2.75 13.75ZM13 13.5C12.8619 13.5 12.75 13.6119 12.75 13.75L12.75 17.25C12.75 17.3881 12.8619 17.5 13 17.5L16.5 17.5C16.6381 17.5 16.75 17.3881 16.75 17.25L16.75 13.75C16.75 13.6119 16.6381 13.5 16.5 13.5L13 13.5Z" fill-rule="EVENODD"></path>
 </g>
</svg>