<svg viewBox="0 0 16 16" width="16" height="16" fill="currentColor" xmlns="http://www.w3.org/2000/svg">
 <g transform="translate(0.5, 0)">
  <path d="M6.25003 9.5C5.83582 9.5 5.50003 9.83579 5.50003 10.25C5.50003 10.6642 5.83582 11 6.25003 11L10.75 11C11.1642 11 11.5 10.6642 11.5 10.25C11.5 9.83579 11.1642 9.5 10.75 9.5L6.25003 9.5Z" fill-rule="NONZERO"></path>
  <path d="M5.50003 12.75C5.50003 12.3358 5.83582 12 6.25003 12L8.75003 12C9.16424 12 9.50003 12.3358 9.50003 12.75C9.50003 13.1642 9.16424 13.5 8.75003 13.5L6.25003 13.5C5.83582 13.5 5.50003 13.1642 5.50003 12.75Z" fill-rule="NONZERO"></path>
  <path d="M6.75003 2.5C6.05968 2.5 5.50003 3.05964 5.50003 3.75L5.50003 7.25C5.50003 7.94036 6.05968 8.5 6.75003 8.5L11.25 8.5C11.9404 8.5 12.5 7.94036 12.5 7.25L12.5 3.75C12.5 3.05964 11.9404 2.5 11.25 2.5L6.75003 2.5ZM7.00003 7L7.00003 4L11 4L11 7L7.00003 7Z" fill-rule="EVENODD"></path>
  <path d="M2.25003 16L12.75 16C13.9927 16 15 14.9926 15 13.75L15 2.25C15 1.00736 13.9927 0 12.75 0L5.25003 0C4.00739 0 3.00003 1.00736 3.00003 2.25L3.00003 3.5L2.25 3.5C1.00736 3.5 5.49666e-07 4.50736 6.03981e-07 5.75L0 13.75C5.4315e-08 14.9926 1.00739 16 2.25003 16ZM13.5 2.25L13.5 13.75C13.5 14.1642 13.1642 14.5 12.75 14.5L4.372 14.5C4.45492 14.2654 4.50003 14.013 4.50003 13.75L4.50003 2.25C4.50003 1.83579 4.83582 1.5 5.25003 1.5L12.75 1.5C13.1642 1.5 13.5 1.83579 13.5 2.25ZM2.25003 14.5C2.66424 14.5 3.00003 14.1642 3.00003 13.75L3.00003 5L2.25 5C1.83579 5 1.5 5.33579 1.5 5.75L1.5 13.75C1.5 14.1642 1.83582 14.5 2.25003 14.5Z" fill-rule="EVENODD"></path>
 </g>
</svg>