<svg viewBox="0 0 24 24" width="24" height="24" fill="currentColor" xmlns="http://www.w3.org/2000/svg">
 <g transform="translate(1.4999998807907104, 1.0000001192092896)">
  <path d="M8.25 12C7.83579 12 7.5 12.3358 7.5 12.75C7.5 13.1642 7.83579 13.5 8.25 13.5L15.25 13.5C15.6642 13.5 16 13.1642 16 12.75C16 12.3358 15.6642 12 15.25 12L8.25 12Z" fill-rule="NONZERO"></path>
  <path d="M7.5 15.75C7.5 15.3358 7.83579 15 8.25 15L12.25 15C12.6642 15 13 15.3358 13 15.75C13 16.1642 12.6642 16.5 12.25 16.5L8.25 16.5C7.83579 16.5 7.5 16.1642 7.5 15.75Z" fill-rule="NONZERO"></path>
  <path d="M9.25 3.5C8.2835 3.5 7.5 4.2835 7.5 5.25L7.5 8.75C7.5 9.7165 8.2835 10.5 9.25 10.5L15.75 10.5C16.7165 10.5 17.5 9.7165 17.5 8.75L17.5 5.25C17.5 4.2835 16.7165 3.5 15.75 3.5L9.25 3.5ZM9 5.25C9 5.11193 9.11193 5 9.25 5L15.75 5C15.8881 5 16 5.11193 16 5.25L16 8.75C16 8.88807 15.8881 9 15.75 9L9.25 9C9.11193 9 9 8.88807 9 8.75L9 5.25Z" fill-rule="EVENODD"></path>
  <path d="M18.25 22L2.75 22C1.23122 22 0 20.7688 0 19.25L0 7.25C0 5.73122 1.23122 4.5 2.75 4.5L4 4.5L4 2.75C4 1.23122 5.23122 0 6.75 0L18.25 0C19.7688 0 21 1.23122 21 2.75L21 19.25C21 20.7688 19.7688 22 18.25 22ZM19.5 2.75L19.5 19.25C19.5 19.9404 18.9404 20.5 18.25 20.5L5.20014 20.5C5.39186 20.125 5.5 19.7001 5.5 19.25L5.5 2.75C5.5 2.05965 6.05964 1.5 6.75 1.5L18.25 1.5C18.9404 1.5 19.5 2.05964 19.5 2.75ZM1.5 19.25C1.5 19.9404 2.05964 20.5 2.75 20.5C3.44036 20.5 4 19.9404 4 19.25L4 6L2.75 6C2.05965 6 1.5 6.55964 1.5 7.25L1.5 19.25Z" fill-rule="EVENODD"></path>
 </g>
</svg>