<svg viewBox="0 0 16 16" width="16" height="16" fill="currentColor" xmlns="http://www.w3.org/2000/svg">
 <g transform="translate(0, 4)">
  <path d="M4 2.25C4 1.00736 5.00736 0 6.25 0L9.25 0C10.4926 0 11.5 1.00736 11.5 2.25L11.5 3L14.75 3C15.1642 3 15.5 3.33579 15.5 3.75C15.5 4.16421 15.1642 4.5 14.75 4.5L11.5 4.5L11.5 5.25C11.5 6.49264 10.4926 7.5 9.25 7.5L6.25 7.5C5.00736 7.5 4 6.49264 4 5.25L4 4.5L0.75 4.5C0.335786 4.5 0 4.16421 0 3.75C0 3.33579 0.335786 3 0.75 3L4 3L4 2.25ZM10 2.25C10 1.83579 9.66421 1.5 9.25 1.5L6.25 1.5C5.83579 1.5 5.5 1.83579 5.5 2.25L5.5 5.25C5.5 5.66421 5.83579 6 6.25 6L9.25 6C9.66421 6 10 5.66421 10 5.25L10 2.25Z" fill-rule="EVENODD"></path>
 </g>
</svg>