<svg viewBox="0 0 16 16" width="16" height="16" fill="black" xmlns="http://www.w3.org/2000/svg">
 <g transform="translate(0, 0)">
  <path d="M3.92319 0.65901C4.34514 0.237053 4.91744 0 5.51418 0L10.4858 0C11.0826 0 11.6549 0.237053 12.0768 0.65901L15.341 3.92319C15.7629 4.34514 16 4.91744 16 5.51418L16 10.4858C16 11.0826 15.7629 11.6549 15.341 12.0768L12.0768 15.341C11.6549 15.7629 11.0826 16 10.4858 16L5.51418 16C4.91744 16 4.34514 15.7629 3.92319 15.341L0.65901 12.0768C0.237053 11.6549 0 11.0826 0 10.4858L0 5.51418C0 4.91744 0.237053 4.34514 0.65901 3.92319L3.92319 0.65901ZM5.51418 1.5C5.31527 1.5 5.1245 1.57902 4.98385 1.71967L1.71967 4.98385C1.57902 5.1245 1.5 5.31527 1.5 5.51418L1.5 10.4858C1.5 10.6847 1.57902 10.8755 1.71967 11.0162L4.98385 14.2803C5.1245 14.421 5.31527 14.5 5.51418 14.5L10.4858 14.5C10.6847 14.5 10.8755 14.421 11.0162 14.2803L14.2803 11.0162C14.421 10.8755 14.5 10.6847 14.5 10.4858L14.5 5.51418C14.5 5.31527 14.421 5.1245 14.2803 4.98385L11.0162 1.71967C10.8755 1.57902 10.6847 1.5 10.4858 1.5L5.51418 1.5Z" fill-rule="EVENODD"></path>
 </g>
</svg>