<svg viewBox="0 0 24 24" width="24" height="24" fill="currentColor" xmlns="http://www.w3.org/2000/svg">
 <g transform="translate(2, 2)">
  <path d="M0 2.75C0 1.23122 1.23122 0 2.75 0L13.25 0C14.7688 0 16 1.23122 16 2.75L16 8.2538L18.3256 9.24217C19.3408 9.67364 19.9999 10.67 19.9999 11.7731L19.9999 18.2499C19.9999 19.2164 19.2164 20 18.2499 20L15.2587 20L15.25 20C15.1002 20 14.9606 19.9561 14.8435 19.8804C14.7582 19.8253 14.6849 19.7534 14.6281 19.6693C14.5472 19.5496 14.4999 19.4053 14.4999 19.25L14.5 19.2412L14.5 8.76869C14.4997 8.756 14.4997 8.74328 14.5 8.73053L14.5 2.75C14.5 2.05964 13.9404 1.5 13.25 1.5L2.75 1.5C2.05964 1.5 1.5 2.05964 1.5 2.75L1.5 19.25C1.5 19.6642 1.16421 20 0.75 20C0.335786 20 0 19.6642 0 19.25L0 2.75ZM16 18.5L16 9.88365L17.7389 10.6227C18.2003 10.8188 18.4999 11.2717 18.4999 11.7731L18.4999 18.2499C18.4999 18.388 18.388 18.5 18.2499 18.5L16 18.5Z" fill-rule="EVENODD"></path>
  <path d="M6.25 14C5.55964 14 5 14.5596 5 15.25L5 19.25C5 19.6642 5.33579 20 5.75 20C6.16421 20 6.5 19.6642 6.5 19.25L6.5 15.5L9.5 15.5L9.5 19.25C9.5 19.6642 9.83579 20 10.25 20C10.6642 20 11 19.6642 11 19.25L11 15.25C11 14.5596 10.4404 14 9.75 14L6.25 14Z" fill-rule="NONZERO"></path>
  <path d="M5 4.75C5 4.33579 5.33579 4 5.75 4L6.25 4C6.66421 4 7 4.33579 7 4.75C7 5.16421 6.66421 5.5 6.25 5.5L5.75 5.5C5.33579 5.5 5 5.16421 5 4.75Z" fill-rule="NONZERO"></path>
  <path d="M9.75 4C9.33579 4 9 4.33579 9 4.75C9 5.16421 9.33579 5.5 9.75 5.5L10.25 5.5C10.6642 5.5 11 5.16421 11 4.75C11 4.33579 10.6642 4 10.25 4L9.75 4Z" fill-rule="NONZERO"></path>
  <path d="M5 7.75C5 7.33579 5.33579 7 5.75 7L6.25 7C6.66421 7 7 7.33579 7 7.75C7 8.16421 6.66421 8.5 6.25 8.5L5.75 8.5C5.33579 8.5 5 8.16421 5 7.75Z" fill-rule="NONZERO"></path>
  <path d="M9.75 7C9.33579 7 9 7.33579 9 7.75C9 8.16421 9.33579 8.5 9.75 8.5L10.25 8.5C10.6642 8.5 11 8.16421 11 7.75C11 7.33579 10.6642 7 10.25 7L9.75 7Z" fill-rule="NONZERO"></path>
  <path d="M5 10.75C5 10.3358 5.33579 10 5.75 10L6.25 10C6.66421 10 7 10.3358 7 10.75C7 11.1642 6.66421 11.5 6.25 11.5L5.75 11.5C5.33579 11.5 5 11.1642 5 10.75Z" fill-rule="NONZERO"></path>
  <path d="M9.75 10C9.33579 10 9 10.3358 9 10.75C9 11.1642 9.33579 11.5 9.75 11.5L10.25 11.5C10.6642 11.5 11 11.1642 11 10.75C11 10.3358 10.6642 10 10.25 10L9.75 10Z" fill-rule="NONZERO"></path>
 </g>
</svg>