<svg viewBox="0 0 24 24" width="24" height="24" fill="black" xmlns="http://www.w3.org/2000/svg">
 <g transform="translate(2, 2)">
  <path d="M14.5598 8.45664C14.7218 8.07543 15.1621 7.89774 15.5434 8.05975L18.3256 9.24222C19.3409 9.67369 20 10.67 20 11.7731L20 18.25C20 19.2165 19.2165 20 18.25 20L15.25 20C14.8358 20 14.5 19.6642 14.5 19.25C14.5 18.8358 14.8358 18.5 15.25 18.5L18.25 18.5C18.3881 18.5 18.5 18.3881 18.5 18.25L18.5 11.7731C18.5 11.2717 18.2004 10.8188 17.7389 10.6227L14.9566 9.44025C14.5754 9.27823 14.3977 8.83786 14.5598 8.45664Z" fill-rule="EVENODD"></path>
  <path d="M0 2.75C0 1.23122 1.23122 0 2.75 0L13.25 0C14.7688 0 16 1.23122 16 2.75L16 19.25C16 19.6642 15.6642 20 15.25 20C14.8358 20 14.5 19.6642 14.5 19.25L14.5 2.75C14.5 2.05964 13.9404 1.5 13.25 1.5L2.75 1.5C2.05964 1.5 1.5 2.05964 1.5 2.75L1.5 19.25C1.5 19.6642 1.16421 20 0.75 20C0.335786 20 0 19.6642 0 19.25L0 2.75Z" fill-rule="EVENODD"></path>
  <path d="M5 15.25C5 14.5596 5.55964 14 6.25 14L9.75 14C10.4404 14 11 14.5596 11 15.25L11 19.25C11 19.6642 10.6642 20 10.25 20C9.83579 20 9.5 19.6642 9.5 19.25L9.5 15.5L6.5 15.5L6.5 19.25C6.5 19.6642 6.16421 20 5.75 20C5.33579 20 5 19.6642 5 19.25L5 15.25Z" fill-rule="EVENODD"></path>
  <path d="M5 4.75C5 4.33579 5.33579 4 5.75 4L6.25 4C6.66421 4 7 4.33579 7 4.75C7 5.16421 6.66421 5.5 6.25 5.5L5.75 5.5C5.33579 5.5 5 5.16421 5 4.75Z" fill-rule="EVENODD"></path>
  <path d="M9 4.75C9 4.33579 9.33579 4 9.75 4L10.25 4C10.6642 4 11 4.33579 11 4.75C11 5.16421 10.6642 5.5 10.25 5.5L9.75 5.5C9.33579 5.5 9 5.16421 9 4.75Z" fill-rule="EVENODD"></path>
  <path d="M5 7.75C5 7.33579 5.33579 7 5.75 7L6.25 7C6.66421 7 7 7.33579 7 7.75C7 8.16421 6.66421 8.5 6.25 8.5L5.75 8.5C5.33579 8.5 5 8.16421 5 7.75Z" fill-rule="EVENODD"></path>
  <path d="M9 7.75C9 7.33579 9.33579 7 9.75 7L10.25 7C10.6642 7 11 7.33579 11 7.75C11 8.16421 10.6642 8.5 10.25 8.5L9.75 8.5C9.33579 8.5 9 8.16421 9 7.75Z" fill-rule="EVENODD"></path>
  <path d="M5 10.75C5 10.3358 5.33579 10 5.75 10L6.25 10C6.66421 10 7 10.3358 7 10.75C7 11.1642 6.66421 11.5 6.25 11.5L5.75 11.5C5.33579 11.5 5 11.1642 5 10.75Z" fill-rule="EVENODD"></path>
  <path d="M9 10.75C9 10.3358 9.33579 10 9.75 10L10.25 10C10.6642 10 11 10.3358 11 10.75C11 11.1642 10.6642 11.5 10.25 11.5L9.75 11.5C9.33579 11.5 9 11.1642 9 10.75Z" fill-rule="EVENODD"></path>
 </g>
</svg>