<svg viewBox="0 0 24 24" width="24" height="24" fill="black" xmlns="http://www.w3.org/2000/svg">
 <g transform="translate(3.25, 1.25)">
  <path d="M3.875 4.75C3.875 4.26675 4.26675 3.875 4.75 3.875L4.85 3.875C5.33325 3.875 5.725 4.26675 5.725 4.75C5.725 5.23325 5.33325 5.625 4.85 5.625L4.75 5.625C4.26675 5.625 3.875 5.23325 3.875 4.75Z" fill-rule="NONZERO"></path>
  <path d="M4.75 7.875C4.26675 7.875 3.875 8.26675 3.875 8.75C3.875 9.23325 4.26675 9.625 4.75 9.625L4.85 9.625C5.33325 9.625 5.725 9.23325 5.725 8.75C5.725 8.26675 5.33325 7.875 4.85 7.875L4.75 7.875Z" fill-rule="NONZERO"></path>
  <path d="M3.875 12.75C3.875 12.2668 4.26675 11.875 4.75 11.875L4.85 11.875C5.33325 11.875 5.725 12.2668 5.725 12.75C5.725 13.2332 5.33325 13.625 4.85 13.625L4.75 13.625C4.26675 13.625 3.875 13.2332 3.875 12.75Z" fill-rule="NONZERO"></path>
  <path d="M4.75 15.875C4.26675 15.875 3.875 16.2668 3.875 16.75C3.875 17.2332 4.26675 17.625 4.75 17.625L4.85 17.625C5.33325 17.625 5.725 17.2332 5.725 16.75C5.725 16.2668 5.33325 15.875 4.85 15.875L4.75 15.875Z" fill-rule="NONZERO"></path>
  <path d="M7 8.75C7 8.33579 7.33579 8 7.75 8L10.75 8C11.1642 8 11.5 8.33579 11.5 8.75C11.5 9.16421 11.1642 9.5 10.75 9.5L7.75 9.5C7.33579 9.5 7 9.16421 7 8.75Z" fill-rule="NONZERO"></path>
  <path d="M7.75 4C7.33579 4 7 4.33579 7 4.75C7 5.16421 7.33579 5.5 7.75 5.5L12.75 5.5C13.1642 5.5 13.5 5.16421 13.5 4.75C13.5 4.33579 13.1642 4 12.75 4L7.75 4Z" fill-rule="NONZERO"></path>
  <path d="M7 12.75C7 12.3358 7.33579 12 7.75 12L12.75 12C13.1642 12 13.5 12.3358 13.5 12.75C13.5 13.1642 13.1642 13.5 12.75 13.5L7.75 13.5C7.33579 13.5 7 13.1642 7 12.75Z" fill-rule="NONZERO"></path>
  <path d="M7.75 16C7.33579 16 7 16.3358 7 16.75C7 17.1642 7.33579 17.5 7.75 17.5L9.75 17.5C10.1642 17.5 10.5 17.1642 10.5 16.75C10.5 16.3358 10.1642 16 9.75 16L7.75 16Z" fill-rule="NONZERO"></path>
  <path d="M0 2.75C0 1.23122 1.23122 0 2.75 0L14.75 0C16.2688 0 17.5 1.23122 17.5 2.75L17.5 18.75C17.5 20.2688 16.2688 21.5 14.75 21.5L2.75 21.5C1.23122 21.5 0 20.2688 0 18.75L0 2.75ZM2.75 1.5C2.05964 1.5 1.5 2.05964 1.5 2.75L1.5 18.75C1.5 19.4404 2.05964 20 2.75 20L14.75 20C15.4404 20 16 19.4404 16 18.75L16 2.75C16 2.05964 15.4404 1.5 14.75 1.5L2.75 1.5Z" fill-rule="EVENODD"></path>
 </g>
</svg>