<svg viewBox="0 0 24 24" width="24" height="24" fill="currentColor" xmlns="http://www.w3.org/2000/svg">
 <g transform="translate(1, 0.475341796875)">
  <path d="M9.79433 0.278387C10.5553 -0.0927951 11.4447 -0.0927961 12.2057 0.278386L21.0172 4.57672C21.6185 4.87004 22 5.48053 22 6.14956L22 16.052C22 17.0841 21.4222 18.0292 20.5037 18.4997L12.2537 22.7253C11.4665 23.1284 10.5335 23.1284 9.74634 22.7253L1.49634 18.4997C0.577805 18.0292 0 17.0841 0 16.052L0 6.14956C0 5.48053 0.381451 4.87004 0.982759 4.57672L9.79433 0.278387ZM11.548 1.62654C11.2022 1.45782 10.7978 1.45782 10.452 1.62654L7.6321 3.00208L16.1367 7.25438L19.6571 5.58218L11.548 1.62654ZM14.4166 8.0714L5.93435 3.83026L2.34295 5.58216L11.0001 9.69428L14.4166 8.0714ZM1.5 16.052L1.5 6.84237L10.25 10.9986L10.25 21.2979L2.18015 17.1646C1.76264 16.9507 1.5 16.5211 1.5 16.052ZM19.8198 17.1646L11.75 21.2979L11.75 10.9987L20.5 6.84242L20.5 16.052C20.5 16.5211 20.2374 16.9507 19.8198 17.1646Z" fill-rule="EVENODD"></path>
 </g>
</svg>