<svg viewBox="0 0 16 16" width="16" height="16" fill="currentColor" xmlns="http://www.w3.org/2000/svg">
 <g transform="translate(1, 0.43310546875)">
  <path d="M8.02079 0.244883C7.37943 -0.0816276 6.62057 -0.0816277 5.97921 0.244883L0.682896 2.94119C0.263868 3.15451 0 3.58494 0 4.05514L0 10.772C0 11.4302 0.369415 12.0328 0.956055 12.3315L5.97921 14.8887C6.62057 15.2152 7.37943 15.2152 8.02079 14.8887L13.0439 12.3315C13.6306 12.0328 14 11.4302 14 10.772L14 4.05514C14 3.58494 13.7361 3.15451 13.3171 2.94119L8.02079 0.244883ZM6.65974 1.58163C6.87352 1.47279 7.12648 1.47279 7.34026 1.58163L11.7762 3.83994L10.308 4.57407L5.50285 2.17059L6.65974 1.58163ZM3.84109 3.01657L2.2238 3.83992L7.00004 6.22804L8.63113 5.4125L3.84109 3.01657ZM1.5 5.15508L1.5 10.772C1.5 10.866 1.55277 10.9521 1.63658 10.9947L6.25 13.3434L6.25 7.53008L1.5 5.15508ZM12.3634 10.9947L7.75 13.3434L7.75 7.53012L12.5 5.15512L12.5 10.772C12.5 10.866 12.4472 10.9521 12.3634 10.9947Z" fill-rule="EVENODD"></path>
 </g>
</svg>