<svg viewBox="0 0 16 16" width="16" height="16" fill="currentColor" xmlns="http://www.w3.org/2000/svg">
 <g transform="translate(-0.00006103515625, 0)">
  <path d="M4.15716 6.86142C2.73331 9.45013 2.41829 11.2491 2.24901 14.5384C2.22772 14.9521 1.87512 15.2702 1.46146 15.2489C1.04779 15.2276 0.729706 14.875 0.750995 14.4613C0.9265 11.051 1.26828 9.00124 2.84285 6.13852C3.04247 5.77558 3.49852 5.64319 3.86145 5.84281C4.22439 6.04244 4.35678 6.49848 4.15716 6.86142Z" fill-rule="EVENODD"></path>
  <path d="M10.0824 9.97251C9.82146 10.2942 9.34914 10.3434 9.02748 10.0824C8.03624 9.27822 7.29956 8.74187 6.47778 8.31846C5.65827 7.89621 4.72183 7.56997 3.32229 7.22863C2.91987 7.13048 2.67321 6.72469 2.77136 6.32227C2.86951 5.91986 3.2753 5.6732 3.67771 5.77135C5.13986 6.12796 6.20098 6.48843 7.16482 6.98505C8.1264 7.4805 8.95887 8.09518 9.97253 8.91756C10.2942 9.17853 10.3434 9.65085 10.0824 9.97251Z" fill-rule="EVENODD"></path>
  <path d="M9.01449 10.0717C8.69878 9.80358 8.66022 9.33028 8.92836 9.01457C9.05599 8.8643 9.17536 8.72436 9.2874 8.59301C9.86862 7.91165 10.2526 7.46147 10.5695 6.99944C10.93 6.47386 11.206 5.92647 11.5452 4.99377C11.6867 4.6045 12.117 4.40368 12.5063 4.54524C12.8956 4.68679 13.0964 5.11712 12.9548 5.50639C12.5867 6.51881 12.2587 7.18863 11.8065 7.84788C11.4411 8.38064 10.9957 8.90243 10.416 9.58145C10.3062 9.71014 10.1915 9.84447 10.0716 9.9856C9.8035 10.3013 9.3302 10.3399 9.01449 10.0717Z" fill-rule="EVENODD"></path>
  <path d="M2 6.5C2 5.67157 2.67157 5 3.5 5C4.32843 5 5 5.67157 5 6.5C5 7.32843 4.32843 8 3.5 8C2.67157 8 2 7.32843 2 6.5Z" fill-rule="EVENODD"></path>
  <path d="M0 14.5C0 13.6716 0.671573 13 1.5 13C2.32843 13 3 13.6716 3 14.5C3 15.3284 2.32843 16 1.5 16C0.671573 16 0 15.3284 0 14.5Z" fill-rule="EVENODD"></path>
  <path d="M8 9.5C8 8.67157 8.67157 8 9.5 8C10.3284 8 11 8.67157 11 9.5C11 10.3284 10.3284 11 9.5 11C8.67157 11 8 10.3284 8 9.5Z" fill-rule="EVENODD"></path>
  <path d="M13 1.5C12.1716 1.5 11.5 2.17157 11.5 3C11.5 3.82843 12.1716 4.5 13 4.5C13.8284 4.5 14.5 3.82843 14.5 3C14.5 2.17157 13.8284 1.5 13 1.5ZM10 3C10 1.34315 11.3431 0 13 0C14.6569 0 16 1.34315 16 3C16 4.65685 14.6569 6 13 6C11.3431 6 10 4.65685 10 3Z" fill-rule="EVENODD"></path>
 </g>
</svg>