<svg viewBox="0 0 24 24" width="24" height="24" fill="currentColor" xmlns="http://www.w3.org/2000/svg">
 <g transform="translate(1, 1)">
  <path d="M18.5 0C16.567 0 15 1.567 15 3.5C15 4.82896 15.7407 5.98492 16.8317 6.5776C16.1675 8.37887 15.6577 9.57538 14.5647 11.0808C14.3856 11.0282 14.1961 11 14 11C13.619 11 13.2629 11.1065 12.9598 11.2914C11.1015 10.0398 9.36096 9.3744 6.9821 8.73128C6.85083 7.75378 6.01344 7 5 7C3.89543 7 3 7.89543 3 9C3 9.49578 3.18039 9.94942 3.47912 10.2989C2.86283 11.5674 2.40764 12.7379 2.07274 13.9729C1.72904 15.2403 1.51671 16.5584 1.37897 18.0983C0.578429 18.3596 0 19.1122 0 20C0 21.1046 0.895431 22 2 22C3.10457 22 4 21.1046 4 20C4 19.2095 3.54142 18.5262 2.87578 18.2014C3.00806 16.7364 3.20767 15.5189 3.52045 14.3655C3.8228 13.2505 4.23525 12.1796 4.81051 10.9911C4.87288 10.997 4.93609 11 5 11C5.66107 11 6.24723 10.6793 6.61136 10.1849C8.84558 10.79 10.4115 11.3932 12.064 12.4962C12.0222 12.6572 12 12.826 12 13C12 14.1046 12.8954 15 14 15C15.1046 15 16 14.1046 16 13C16 12.6414 15.9056 12.3048 15.7403 12.0138C16.9901 10.3039 17.5554 8.95672 18.2772 6.99302C18.3509 6.99765 18.4252 7 18.5 7C20.433 7 22 5.433 22 3.5C22 1.567 20.433 0 18.5 0ZM16.5 3.5C16.5 2.39543 17.3954 1.5 18.5 1.5C19.6046 1.5 20.5 2.39543 20.5 3.5C20.5 4.60457 19.6046 5.5 18.5 5.5C17.3954 5.5 16.5 4.60457 16.5 3.5Z" fill-rule="EVENODD"></path>
 </g>
</svg>