<svg viewBox="0 0 24 24" width="24" height="24" fill="black" xmlns="http://www.w3.org/2000/svg">
 <g transform="translate(1, 1)">
  <path d="M11 1.5C5.75329 1.5 1.5 5.75329 1.5 11C1.5 16.2467 5.75329 20.5 11 20.5C16.2467 20.5 20.5 16.2467 20.5 11C20.5 5.75329 16.2467 1.5 11 1.5ZM0 11C0 4.92487 4.92487 0 11 0C17.0751 0 22 4.92487 22 11C22 17.0751 17.0751 22 11 22C4.92487 22 0 17.0751 0 11Z" fill-rule="EVENODD"></path>
  <path d="M8.25 6C8.66421 6 9 6.33579 9 6.75L9 15.25C9 15.6642 8.66421 16 8.25 16C7.83579 16 7.5 15.6642 7.5 15.25L7.5 6.75C7.5 6.33579 7.83579 6 8.25 6Z" fill-rule="EVENODD"></path>
  <path d="M13.75 6C14.1642 6 14.5 6.33579 14.5 6.75L14.5 15.25C14.5 15.6642 14.1642 16 13.75 16C13.3358 16 13 15.6642 13 15.25L13 6.75C13 6.33579 13.3358 6 13.75 6Z" fill-rule="EVENODD"></path>
 </g>
</svg>