<svg viewBox="0 0 24 24" width="24" height="24" fill="black" xmlns="http://www.w3.org/2000/svg">
 <g transform="translate(1.25, 1.25)">
  <path d="M8.75 6.75C9.30228 6.75 9.75 7.19772 9.75 7.75L9.75 13.75C9.75 14.3023 9.30228 14.75 8.75 14.75C8.19771 14.75 7.75 14.3023 7.75 13.75L7.75 7.75C7.75 7.19772 8.19771 6.75 8.75 6.75Z" fill-rule="NONZERO"></path>
  <path d="M13.75 7.75C13.75 7.19772 13.3023 6.75 12.75 6.75C12.1977 6.75 11.75 7.19772 11.75 7.75L11.75 13.75C11.75 14.3023 12.1977 14.75 12.75 14.75C13.3023 14.75 13.75 14.3023 13.75 13.75L13.75 7.75Z" fill-rule="NONZERO"></path>
  <path d="M0 10.75C0 4.81294 4.81294 0 10.75 0C16.6871 0 21.5 4.81294 21.5 10.75C21.5 16.6871 16.6871 21.5 10.75 21.5C4.81294 21.5 0 16.6871 0 10.75ZM10.75 1.5C5.64137 1.5 1.5 5.64137 1.5 10.75C1.5 15.8586 5.64137 20 10.75 20C15.8586 20 20 15.8586 20 10.75C20 5.64137 15.8586 1.5 10.75 1.5Z" fill-rule="EVENODD"></path>
 </g>
</svg>