<svg viewBox="0 0 24 24" width="24" height="24" fill="black" xmlns="http://www.w3.org/2000/svg">
 <g transform="translate(1.25, 1.25)">
  <path d="M0.925996 0.0209536C0.672015 -0.040352 0.404434 0.0349361 0.219685 0.219685C0.0349361 0.404434 -0.040352 0.672015 0.0209536 0.925996L3.52095 15.426C3.58948 15.7099 3.81656 15.9282 4.10293 15.9855L10.2287 17.2106L10.2197 17.2197C9.92678 17.5126 9.92678 17.9874 10.2197 18.2803L13.2197 21.2803C13.5126 21.5732 13.9874 21.5732 14.2803 21.2803L21.2803 14.2803C21.5732 13.9874 21.5732 13.5126 21.2803 13.2197L18.2803 10.2197C17.9874 9.92678 17.5126 9.92678 17.2197 10.2197L17.2106 10.2287L15.9855 4.10293C15.9282 3.81656 15.7099 3.58948 15.426 3.52095L0.925996 0.0209536ZM17.2844 12.2763L17.2803 12.2803L12.2803 17.2803L12.2763 17.2844L11.8107 17.75L13.75 19.6893L19.6893 13.75L17.75 11.8107L17.2844 12.2763ZM15.9359 11.5035L14.6085 4.86671L3.16511 2.10451L8.4091 7.3485C8.80579 7.12653 9.26312 7 9.75 7C11.2688 7 12.5 8.23122 12.5 9.75C12.5 11.2688 11.2688 12.5 9.75 12.5C8.23122 12.5 7 11.2688 7 9.75C7 9.26315 7.12651 8.80585 7.34846 8.40918L2.10455 3.16527L4.86671 14.6085L11.5035 15.9359L15.9359 11.5035ZM8.5 9.75C8.5 9.05964 9.05964 8.5 9.75 8.5C10.4404 8.5 11 9.05964 11 9.75C11 10.4404 10.4404 11 9.75 11C9.05964 11 8.5 10.4404 8.5 9.75Z" fill-rule="EVENODD"></path>
 </g>
</svg>