<svg viewBox="0 0 24 24" width="24" height="24" fill="currentColor" xmlns="http://www.w3.org/2000/svg">
 <g transform="translate(1, 1)">
  <path d="M0.923173 0.0202778C0.669962 -0.039806 0.403704 0.0356663 0.219685 0.219685C0.0356663 0.403704 -0.039806 0.669962 0.0202778 0.923173L3.52028 15.6732C3.58834 15.96 3.81809 16.1803 4.1075 16.2363L10.6179 17.4964L10.4697 17.6447C10.1768 17.9376 10.1768 18.4124 10.4697 18.7053L13.5447 21.7803C13.6853 21.921 13.8761 22 14.075 22C14.2739 22 14.4647 21.921 14.6053 21.7803L21.7803 14.6053C21.921 14.4647 22 14.2739 22 14.075C22 13.8761 21.921 13.6853 21.7803 13.5447L18.7053 10.4697C18.4124 10.1768 17.9376 10.1768 17.6447 10.4697L17.4964 10.6179L16.2363 4.1075C16.1803 3.81809 15.96 3.58834 15.6732 3.52028L0.923173 0.0202778ZM16.2163 11.898L14.8557 4.86795L3.1513 2.09064L8.47602 7.41536C8.92266 7.15145 9.44364 7 10 7C11.6569 7 13 8.34315 13 10C13 11.6569 11.6569 13 10 13C8.34315 13 7 11.6569 7 10C7 9.44364 7.15145 8.92266 7.41536 8.47602L2.09064 3.1513L4.86795 14.8557L11.898 16.2163L16.2163 11.898ZM12.0607 18.175L18.175 12.0607L20.1893 14.075L14.075 20.1893L12.0607 18.175ZM8.5 10C8.5 9.17157 9.17157 8.5 10 8.5C10.8284 8.5 11.5 9.17157 11.5 10C11.5 10.8284 10.8284 11.5 10 11.5C9.17157 11.5 8.5 10.8284 8.5 10Z" fill-rule="EVENODD"></path>
 </g>
</svg>