<svg viewBox="0 0 16 16" width="16" height="16" fill="black" xmlns="http://www.w3.org/2000/svg">
 <g transform="translate(-0.000015010446077212691, -0.000015010446077212691)">
  <path d="M12.5447 7.46969C12.8376 7.17679 13.3124 7.17679 13.6053 7.46969L15.7803 9.64468C15.921 9.78534 16 9.9761 16 10.175C16 10.3739 15.921 10.5647 15.7803 10.7053L10.7053 15.7803C10.5647 15.921 10.3739 16 10.175 16C9.9761 16 9.78534 15.921 9.64468 15.7803L7.46969 13.6053C7.17679 13.3124 7.17679 12.8376 7.46969 12.5447L12.5447 7.46969ZM13.075 9.06067L9.06067 13.075L10.175 14.1893L14.1893 10.175L13.075 9.06067Z" fill-rule="EVENODD"></path>
  <path d="M0.219685 0.219685C0.403704 0.0356663 0.669962 -0.039806 0.923173 0.0202778L11.3561 2.49589C11.6429 2.56394 11.8633 2.7937 11.9193 3.08311L12.9802 8.56481C13.059 8.97148 12.7931 9.36495 12.3864 9.44366C11.9798 9.52237 11.5863 9.25651 11.5076 8.84984L10.5386 3.84356L1.76065 1.76065L3.84356 10.5386L8.84984 11.5076C9.25651 11.5863 9.52237 11.9798 9.44366 12.3864C9.36495 12.7931 8.97148 13.059 8.56481 12.9802L3.08311 11.9193C2.7937 11.8633 2.56394 11.6429 2.49589 11.3561L0.0202778 0.923173C-0.039806 0.669962 0.0356663 0.403704 0.219685 0.219685Z" fill-rule="EVENODD"></path>
  <path d="M5.52458 6.58515L0.396534 1.4571L1.45719 0.396443L6.58524 5.52449L5.52458 6.58515Z" fill-rule="EVENODD"></path>
  <path d="M7.20125 6.45094C6.78703 6.45094 6.45125 6.78673 6.45125 7.20094C6.45125 7.61516 6.78703 7.95094 7.20125 7.95094C7.61546 7.95094 7.95125 7.61516 7.95125 7.20094C7.95125 6.78673 7.61546 6.45094 7.20125 6.45094ZM4.95125 7.20094C4.95125 5.9583 5.95861 4.95094 7.20125 4.95094C8.44389 4.95094 9.45125 5.9583 9.45125 7.20094C9.45125 8.44358 8.44389 9.45094 7.20125 9.45094C5.95861 9.45094 4.95125 8.44358 4.95125 7.20094Z" fill-rule="EVENODD"></path>
 </g>
</svg>