<svg viewBox="0 0 24 24" width="24" height="24" fill="currentColor" xmlns="http://www.w3.org/2000/svg">
 <g transform="translate(3.2499780654907227, 4.078427314758301)">
  <path d="M11.8055 0.805457C12.8794 -0.268484 14.6206 -0.268487 15.6946 0.805456L15.8661 0.977028C16.9401 2.05097 16.9401 3.79217 15.8661 4.86612L6.86091 13.8713C6.40604 14.3262 5.86352 14.6839 5.26626 14.9229L1.02856 16.6179C0.750002 16.7294 0.431839 16.664 0.219692 16.4519C0.00754483 16.2398 -0.0577607 15.9216 0.0536643 15.643L1.74874 11.4053C1.98765 10.8081 2.34538 10.2656 2.80025 9.81069L11.8055 0.805457ZM14.6339 1.86612C14.1458 1.37796 13.3543 1.37796 12.8661 1.86612L3.86091 10.8713C3.54968 11.1826 3.30492 11.5538 3.14146 11.9624L2.09631 14.5753L4.70917 13.5301C5.11783 13.3667 5.48902 13.1219 5.80025 12.8107L14.8055 3.80546C15.2936 3.3173 15.2936 2.52584 14.8055 2.03769L14.6339 1.86612Z" fill-rule="EVENODD"></path>
  <path d="M13.7197 5.9519L10.7197 2.9519L11.7804 1.89124L14.7804 4.89124L13.7197 5.9519Z" fill-rule="EVENODD"></path>
 </g>
</svg>