<svg viewBox="0 0 16 16" width="16" height="16" fill="currentColor" xmlns="http://www.w3.org/2000/svg">
 <g transform="translate(1.25, 1.6640625)">
  <path d="M11.7375 0.512563C11.054 -0.170854 9.946 -0.170855 9.26259 0.512563L2.00997 7.76518C1.74663 8.02852 1.53952 8.34261 1.4012 8.6884L0.0536643 12.0572C-0.0577607 12.3358 0.00754483 12.654 0.219692 12.8661C0.431839 13.0783 0.750002 13.1436 1.02856 13.0321L4.39741 11.6846C4.7432 11.5463 5.05729 11.3392 5.32063 11.0758L12.5732 3.82322C13.2567 3.13981 13.2567 2.03177 12.5732 1.34835L11.7375 0.512563ZM10.3232 1.57322C10.4209 1.47559 10.5792 1.47559 10.6768 1.57322L11.5126 2.40901C11.6102 2.50664 11.6102 2.66493 11.5126 2.76256L10.8749 3.40021L9.6856 2.21087L10.3232 1.57322ZM8.62494 3.27153L3.07063 8.82584C2.95093 8.94554 2.85679 9.08831 2.79392 9.24548L2.09631 10.9895L3.84032 10.2919C3.9975 10.229 4.14027 10.1349 4.25997 10.0152L9.81427 4.46087L8.62494 3.27153Z" fill-rule="EVENODD"></path>
 </g>
</svg>