<svg viewBox="0 0 16 16" width="16" height="16" fill="black" xmlns="http://www.w3.org/2000/svg">
 <g transform="translate(1.2499781847000122, 1.6642134189605713)">
  <path d="M9.26259 0.512563C9.946 -0.170855 11.054 -0.170854 11.7375 0.512563L12.5732 1.34835C13.2567 2.03177 13.2567 3.13981 12.5732 3.82322L5.32063 11.0758C5.05729 11.3392 4.7432 11.5463 4.39741 11.6846L1.02856 13.0321C0.750002 13.1436 0.431839 13.0783 0.219692 12.8661C0.00754483 12.654 -0.0577607 12.3358 0.0536643 12.0572L1.4012 8.6884C1.53952 8.34261 1.74663 8.02852 2.00997 7.76518L9.26259 0.512563ZM10.6768 1.57322C10.5792 1.47559 10.4209 1.47559 10.3232 1.57322L3.07063 8.82584C2.95093 8.94554 2.85679 9.08831 2.79392 9.24548L2.09631 10.9895L3.84032 10.2919C3.9975 10.229 4.14027 10.1349 4.25997 10.0152L11.5126 2.76256C11.6102 2.66493 11.6102 2.50664 11.5126 2.40901L10.6768 1.57322Z" fill-rule="EVENODD"></path>
  <path d="M10.2197 4.86612L8.21969 2.86612L9.28035 1.80546L11.2804 3.80546L10.2197 4.86612Z" fill-rule="EVENODD"></path>
 </g>
</svg>