<svg viewBox="0 0 16 16" width="16" height="16" fill="currentColor" xmlns="http://www.w3.org/2000/svg">
 <g transform="translate(-0.0001220702106365934, 0.000000000012732925824820995)">
  <path d="M5.84754 0.53276C5.44226 0.184908 4.92465 -0.0041947 4.39071 7.06095e-05L2.20616 8.88485e-05C1.89982 0.000376799 1.59686 0.0643179 1.31656 0.187887C1.03624 0.311458 0.784672 0.491975 0.577911 0.718029C0.371146 0.944087 0.213728 1.21073 0.115766 1.50101C0.0178435 1.79117 -0.0186821 2.09863 0.00895707 2.40388L0.0102035 2.41559C0.262001 4.78202 1.06879 7.05589 2.36511 9.05299C3.65509 11.0403 4.97966 12.3576 6.96103 13.64C8.95278 14.9291 11.2196 15.734 13.5794 15.9899L13.5929 15.9911C13.8989 16.0187 14.2074 15.9822 14.4986 15.8839C14.7897 15.7857 15.0572 15.6278 15.2838 15.4203C15.5104 15.2128 15.6912 14.9602 15.8145 14.6787C15.9379 14.3973 16.0009 14.0931 15.9997 13.7858L15.9994 13.711C15.9977 13.3279 15.9916 11.9402 15.9994 11.6246C16.0129 11.0834 15.8265 10.5565 15.4762 10.1439C15.1259 9.73124 14.6361 9.46177 14.1002 9.38631L14.0935 9.38543C13.4497 9.30069 12.8176 9.14355 12.2092 8.91702C11.8146 8.76924 11.3858 8.73734 10.9737 8.82507C10.561 8.9129 10.1821 9.11695 9.88183 9.4133L9.36756 9.92655C8.0364 9.07696 6.90595 7.94899 6.05448 6.62093L6.56416 6.11227L6.56711 6.10929C6.86406 5.80959 7.06886 5.43105 7.15703 5.01844C7.24512 4.60622 7.21307 4.17746 7.06471 3.78292C6.83784 3.17601 6.68051 2.54546 6.59565 1.90328L6.59467 1.89638C6.51957 1.36612 6.25388 0.881525 5.84754 0.53276ZM4.40138 1.50003C4.57364 1.49834 4.74036 1.55922 4.87059 1.67099C5.00007 1.78213 5.08461 1.93595 5.10909 2.10392C5.20896 2.85724 5.39374 3.59689 5.65992 4.3088L5.66055 4.3105C5.70801 4.43651 5.71827 4.57339 5.69015 4.70498C5.66215 4.83601 5.59722 4.95652 5.5028 5.05229L4.57862 5.97465C4.33929 6.21351 4.28939 6.58298 4.45677 6.87678C5.56153 8.81581 7.17009 10.4211 9.1126 11.5235C9.40579 11.6899 9.77396 11.6402 10.0126 11.402L10.9355 10.4809L10.9367 10.4797C11.0327 10.3854 11.1538 10.3203 11.2859 10.2922C11.4186 10.264 11.5566 10.2743 11.6835 10.3219L11.6852 10.3225C12.3984 10.5881 13.1392 10.7725 13.8938 10.8721C14.0651 10.8969 14.2212 10.9833 14.3327 11.1146C14.4448 11.2467 14.5041 11.4149 14.4999 11.5874C14.4914 11.9293 14.4977 13.3494 14.4994 13.721L14.4997 13.7919C14.5001 13.8899 14.48 13.987 14.4406 14.0768C14.4012 14.1667 14.3434 14.2475 14.2708 14.314C14.1982 14.3804 14.1124 14.4311 14.0189 14.4627C13.9271 14.4937 13.8299 14.5056 13.7333 14.4976C11.6091 14.2661 9.5688 13.541 7.77604 12.3807C5.97068 11.2123 4.79755 10.0454 3.62329 8.2363C2.45661 6.43893 1.73015 4.39292 1.50251 2.26372C1.49453 2.16815 1.50624 2.07184 1.53702 1.98064C1.56828 1.888 1.61856 1.80277 1.68475 1.7304C1.75094 1.65804 1.83159 1.60013 1.92162 1.56044C2.01156 1.52079 2.10914 1.50022 2.20757 1.50009L4.39402 1.50011L4.40138 1.50003ZM7.06471 3.78292C7.06457 3.78254 7.06443 3.78216 7.06429 3.78179L6.36243 4.04614L7.06471 3.78292C7.06464 3.78273 7.06478 3.78311 7.06471 3.78292Z" fill-rule="EVENODD"></path>
  <path d="M10.333 0.00465176C9.92127 -0.0410827 9.55046 0.255576 9.50473 0.667257C9.45899 1.07894 9.75565 1.44975 10.1673 1.49548C11.2745 1.61848 12.3069 2.11428 13.0951 2.90149C13.8833 3.6887 14.3804 4.72051 14.5048 5.82752C14.5511 6.23915 14.9223 6.53534 15.3339 6.48909C15.7455 6.44283 16.0417 6.07165 15.9955 5.66003C15.8331 4.21485 15.1841 2.86784 14.1551 1.84016C13.1262 0.812484 11.7783 0.165222 10.333 0.00465176Z" fill-rule="NONZERO"></path>
  <path d="M10.3938 2.52967C9.98721 2.45035 9.59334 2.71562 9.51402 3.12217C9.4347 3.52872 9.69997 3.92259 10.1065 4.00191C10.5743 4.09318 11.0042 4.32196 11.3412 4.65897C11.6782 4.99599 11.907 5.4259 11.9983 5.89369C12.0776 6.30024 12.4715 6.56551 12.878 6.48619C13.2846 6.40687 13.5499 6.01299 13.4705 5.60645C13.3221 4.84564 12.95 4.14643 12.4019 3.59831C11.8538 3.0502 11.1546 2.67811 10.3938 2.52967Z" fill-rule="NONZERO"></path>
 </g>
</svg>