<svg viewBox="0 0 24 24" width="24" height="24" fill="currentColor" xmlns="http://www.w3.org/2000/svg">
 <g transform="translate(0.9999187588691711, 0.9999999403953552)">
  <path d="M6.77776 1.8166C6.53651 1.60954 6.22788 1.49693 5.90922 1.50006L5.90186 1.50014L2.81037 1.50012C2.62818 1.50034 2.44778 1.53839 2.28121 1.61182C2.11456 1.68528 1.96517 1.79252 1.84251 1.92663C1.71985 2.06074 1.62659 2.21877 1.56859 2.39064C1.51112 2.56095 1.48947 2.74101 1.50492 2.91972C1.83154 5.97969 2.8753 8.9201 4.55189 11.503C4.77741 11.8505 4.67858 12.3149 4.33114 12.5405C3.98371 12.766 3.51923 12.6672 3.29371 12.3197C1.48755 9.53717 0.363472 6.36903 0.0126499 3.07196L0.0114035 3.06025C-0.0237745 2.67174 0.0226838 2.28039 0.147343 1.911C0.272042 1.5415 0.472432 1.20205 0.73567 0.914254C0.998904 0.626459 1.31921 0.396612 1.67615 0.239264C2.03308 0.0819177 2.41886 0.00049218 2.80896 0.000125552L5.89845 9.98024e-05C6.57884 -0.00562624 7.23839 0.235213 7.7547 0.678362C8.27205 1.12241 8.61025 1.73932 8.70584 2.41426L8.70682 2.42116C8.82991 3.35259 9.05815 4.26715 9.38727 5.14739L9.38663 5.1457C9.57594 5.64831 9.61693 6.19462 9.50469 6.71982C9.39246 7.24503 9.13176 7.72692 8.7537 8.10848L8.75075 8.11145L7.44169 9.41792C7.14851 9.71053 6.67363 9.71006 6.38103 9.41688C6.08843 9.1237 6.08889 8.64883 6.38207 8.35622L7.68949 7.05137C7.86497 6.87376 7.98576 6.64994 8.03781 6.40636C8.08999 6.16218 8.07095 5.90818 7.9829 5.67441L7.98226 5.67271C7.61392 4.68756 7.35829 3.66401 7.22023 2.62155C7.17521 2.30899 7.01818 2.02295 6.77776 1.8166ZM9.19908 12.0146C9.48791 11.7177 9.96274 11.7112 10.2596 12C11.0825 12.8005 11.9934 13.5114 12.9778 14.1179L13.8785 13.219C14.2608 12.8417 14.7433 12.5818 15.2687 12.47C15.794 12.3582 16.3403 12.399 16.8431 12.5875C17.725 12.9158 18.6412 13.1435 19.5744 13.2664L19.5811 13.2673C20.2636 13.3633 20.8872 13.7065 21.3331 14.2318C21.7791 14.7571 22.0163 15.4278 21.9992 16.1168C21.987 16.6069 21.9983 18.884 21.9995 19.1812C22.0011 19.5724 21.9208 19.9595 21.7639 20.3178C21.6069 20.6761 21.3767 20.9976 21.0882 21.2618C20.7996 21.526 20.4591 21.727 20.0884 21.8522C19.7176 21.9773 19.3248 22.0238 18.9351 21.9886L18.9216 21.9874C15.6335 21.6308 12.4749 20.5093 9.6997 18.7132C8.38527 17.8625 7.27201 16.9977 6.26892 16.0176C5.97266 15.7281 5.96717 15.2533 6.25666 14.957C6.54614 14.6607 7.02098 14.6552 7.31725 14.9447C8.23593 15.8424 9.26725 16.6466 10.5147 17.4539C13.0911 19.1214 16.0232 20.163 19.0759 20.4952C19.256 20.5106 19.4374 20.4887 19.6087 20.4309C19.7818 20.3725 19.9407 20.2787 20.0752 20.1555C20.2097 20.0323 20.3169 19.8826 20.3899 19.7159C20.463 19.5492 20.5003 19.3691 20.4995 19.1873C20.4984 18.9116 20.4868 16.5983 20.4997 16.0795C20.5076 15.7594 20.3974 15.4473 20.1896 15.2026C19.9825 14.9586 19.6927 14.7985 19.375 14.7531C18.3307 14.6153 17.3053 14.3603 16.3184 13.9927L16.3167 13.9921C16.0818 13.904 15.8265 13.8849 15.581 13.9371C15.3361 13.9893 15.1114 14.1102 14.9334 14.2853L14.9322 14.2866L13.6261 15.5901C13.3875 15.8282 13.0193 15.8779 12.7261 15.7115C11.4417 14.9826 10.2624 14.0954 9.21369 13.0752C8.91679 12.7863 8.91025 12.3115 9.19908 12.0146Z" fill-rule="EVENODD"></path>
  <path d="M21.7804 0.21967C22.0733 0.512563 22.0733 0.987437 21.7804 1.28033L1.28041 21.7803C0.987518 22.0732 0.512644 22.0732 0.219751 21.7803C-0.0731421 21.4874 -0.0731421 21.0126 0.219751 20.7197L20.7198 0.21967C21.0126 -0.0732232 21.4875 -0.0732232 21.7804 0.21967Z" fill-rule="EVENODD"></path>
 </g>
</svg>