<svg viewBox="0 0 24 24" width="24" height="24" fill="currentColor" xmlns="http://www.w3.org/2000/svg">
 <g transform="translate(0.9998779296875, 0.00000000043382897274568677)">
  <path d="M13.833 0.00465176C13.4213 -0.0410827 13.0505 0.255576 13.0047 0.667257C12.959 1.07894 13.2557 1.44975 13.6673 1.49548C15.6679 1.71773 17.5334 2.61361 18.9576 4.03602C20.3818 5.45844 21.2801 7.32284 21.5048 9.32312C21.5511 9.73474 21.9223 10.0309 22.3339 9.98468C22.7455 9.93843 23.0417 9.56725 22.9955 9.15563C22.7327 6.81718 21.6826 4.63758 20.0176 2.97469C18.3526 1.31181 16.1717 0.264471 13.833 0.00465176Z" fill-rule="NONZERO"></path>
  <path d="M13.8938 4.29068C13.4872 4.21136 13.0933 4.47663 13.014 4.88318C12.9347 5.28972 13.2 5.6836 13.6065 5.76292C14.5043 5.93808 15.3294 6.37717 15.9762 7.02397C16.623 7.67078 17.0621 8.49589 17.2373 9.39369C17.3166 9.80023 17.7105 10.0655 18.117 9.98619C18.5236 9.90687 18.7889 9.51299 18.7095 9.10645C18.4772 7.91563 17.8948 6.82123 17.0369 5.96332C16.179 5.1054 15.0846 4.52301 13.8938 4.29068Z" fill-rule="NONZERO"></path>
  <path d="M7.7547 1.67836C7.23839 1.23521 6.57883 0.994372 5.89844 1.0001L2.80896 1.00013C2.41886 1.00049 2.03308 1.08192 1.67614 1.23926C1.31921 1.39661 0.998903 1.62646 0.735669 1.91426C0.472431 2.20206 0.272042 2.5415 0.147343 2.911C0.0226837 3.2804 -0.0237744 3.67174 0.0114035 4.06025L0.0126499 4.07197C0.363472 7.36904 1.48755 10.5372 3.29371 13.3197C5.09353 16.0925 6.93487 17.9238 9.6997 19.7132C12.4749 21.5094 15.6335 22.6309 18.9216 22.9874L18.9351 22.9887C19.3248 23.0238 19.7176 22.9773 20.0884 22.8522C20.4591 22.7271 20.7996 22.526 21.0882 22.2618C21.3767 21.9976 21.6069 21.6761 21.7639 21.3178C21.9208 20.9595 22.0011 20.5724 21.9995 20.1812L21.9991 20.0764C21.9967 19.5374 21.988 17.5685 21.9992 17.1168C22.0163 16.4279 21.7791 15.7571 21.3331 15.2318C20.8872 14.7065 20.2636 14.3634 19.5811 14.2673L19.5744 14.2664C18.6411 14.1436 17.7247 13.9158 16.8427 13.5874C16.34 13.399 15.7938 13.3583 15.2687 13.47C14.7433 13.5819 14.2608 13.8417 13.8785 14.219L12.9778 15.1179C10.895 13.8345 9.14072 12.084 7.85462 10.0058L8.75075 9.11147L8.7537 9.10849C9.13176 8.72693 9.39246 8.24504 9.50469 7.71984C9.61685 7.195 9.576 6.64909 9.38703 6.14677C9.05804 5.26672 8.82988 4.35237 8.70682 3.42117L8.70584 3.41426C8.61025 2.73932 8.27206 2.12241 7.7547 1.67836ZM5.90922 2.50006C6.22788 2.49693 6.53651 2.60954 6.77776 2.8166C7.01818 3.02295 7.17521 3.309 7.22023 3.62155C7.35829 4.66402 7.61392 5.68757 7.98226 6.67272L7.9829 6.67442C8.07095 6.90819 8.08999 7.16219 8.03781 7.40637C7.98576 7.64997 7.86495 7.87381 7.68946 8.05142L6.38207 9.35624C6.14274 9.5951 6.09284 9.96457 6.26023 10.2584C7.79444 12.9512 10.0283 15.1806 12.7261 16.7115C13.0193 16.8779 13.3875 16.8283 13.6261 16.5901L14.9322 15.2866L14.9336 15.2852C15.1115 15.1101 15.3361 14.9893 15.581 14.9372C15.8265 14.8849 16.0818 14.904 16.3167 14.9921L16.3184 14.9927C17.3053 15.3603 18.3306 15.6153 19.3749 15.7531C19.6927 15.7985 19.9825 15.9586 20.1896 16.2026C20.3974 16.4474 20.5076 16.7594 20.4997 17.0795C20.4878 17.5575 20.4967 19.559 20.4991 20.0864L20.4995 20.1873C20.5003 20.3692 20.463 20.5492 20.3899 20.7159C20.3169 20.8826 20.2097 21.0324 20.0752 21.1555C19.9407 21.2787 19.7818 21.3725 19.6087 21.431C19.4374 21.4888 19.256 21.5107 19.0759 21.4953C16.0232 21.163 13.0911 20.1214 10.5147 18.454C7.9259 16.7785 6.236 15.0976 4.55189 12.5031C2.8753 9.92012 1.83154 6.9797 1.50492 3.91972C1.48947 3.74102 1.51112 3.56095 1.56859 3.39064C1.62659 3.21877 1.71985 3.06074 1.84251 2.92663C1.96517 2.79252 2.11456 2.68528 2.28121 2.61182C2.44778 2.53839 2.62818 2.50034 2.81037 2.50012L5.90186 2.50014L5.90922 2.50006ZM9.38703 6.14677C9.3869 6.14641 9.38677 6.14606 9.38663 6.14571L8.68477 6.41006L9.38703 6.14677C9.38695 6.14656 9.38711 6.14698 9.38703 6.14677Z" fill-rule="EVENODD"></path>
 </g>
</svg>