<svg viewBox="0 0 16 16" width="16" height="16" fill="currentColor" xmlns="http://www.w3.org/2000/svg">
 <g transform="translate(0, 0.0498046875)">
  <path d="M7.75005 0C7.5644 0 7.38635 0.0737498 7.25507 0.205025C7.1238 0.336301 7.05005 0.514348 7.05005 0.7L7.05005 8.2C7.05005 8.5866 7.36345 8.9 7.75005 8.9L15.25 8.9C15.6366 8.9 15.95 8.5866 15.95 8.2C15.95 7.12316 15.738 6.05687 15.3259 5.062C14.9138 4.06712 14.3098 3.16316 13.5483 2.40172C12.7869 1.64028 11.8829 1.03628 10.8881 0.624188C9.89318 0.212099 8.82689 0 7.75005 0ZM8.45005 7.5L8.45005 1.43612C9.10285 1.50368 9.74369 1.66553 10.3523 1.91762C11.1773 2.25935 11.9269 2.76024 12.5584 3.39167C13.1898 4.02311 13.6907 4.77274 14.0324 5.59775C14.2845 6.20636 14.4464 6.8472 14.5139 7.5L8.45005 7.5Z" fill-rule="EVENODD"></path>
  <path d="M5.11808 2.12237C5.48922 1.93845 5.64099 1.48848 5.45707 1.11734C5.27315 0.746202 4.82318 0.59443 4.45204 0.778351C1.81534 2.08498 0 4.80498 0 7.95036C0 12.3686 3.58172 15.9504 8 15.9504C11.1454 15.9504 13.8654 14.135 15.172 11.4983C15.3559 11.1272 15.2042 10.6772 14.833 10.4933C14.4619 10.3094 14.0119 10.4611 13.828 10.8323C12.7647 12.9779 10.5536 14.4504 8 14.4504C4.41015 14.4504 1.5 11.5402 1.5 7.95036C1.5 5.39674 2.97247 3.18564 5.11808 2.12237Z" fill-rule="NONZERO"></path>
 </g>
</svg>