<svg viewBox="0 0 24 24" width="24" height="24" fill="black" xmlns="http://www.w3.org/2000/svg">
 <g transform="translate(1, 1)">
  <path d="M10.2197 0.21967C10.3603 0.0790176 10.5511 0 10.75 0C12.2274 0 13.6903 0.29099 15.0552 0.856355C16.4201 1.42172 17.6603 2.25039 18.705 3.29505C19.7496 4.33971 20.5783 5.5799 21.1436 6.94481C21.709 8.30972 22 9.77263 22 11.25C22 11.6642 21.6642 12 21.25 12L10.75 12C10.3358 12 10 11.6642 10 11.25L10 0.75C10 0.551088 10.079 0.360322 10.2197 0.21967ZM11.5 1.52889L11.5 10.5L20.4711 10.5C20.3921 9.47645 20.1519 8.47018 19.7578 7.51884C19.2678 6.33591 18.5497 5.26108 17.6443 4.35571C16.7389 3.45034 15.6641 2.73216 14.4812 2.24217C13.5298 1.84812 12.5235 1.60786 11.5 1.52889Z" fill-rule="EVENODD"></path>
  <path d="M7.45225 1.35121C7.62341 1.72841 7.45637 2.17293 7.07917 2.34408C3.78715 3.83781 1.5 7.15261 1.5 11C1.5 16.2467 5.75329 20.5 11 20.5C14.8474 20.5 18.1622 18.2129 19.6559 14.9208C19.8271 14.5436 20.2716 14.3766 20.6488 14.5477C21.026 14.7189 21.193 15.1634 21.0219 15.5406C19.2939 19.3489 15.4574 22 11 22C4.92487 22 0 17.0751 0 11C0 6.54264 2.65112 2.70608 6.45938 0.978122C6.83658 0.80697 7.2811 0.974006 7.45225 1.35121Z" fill-rule="EVENODD"></path>
 </g>
</svg>