<svg viewBox="0 0 24 24" width="24" height="24" fill="black" xmlns="http://www.w3.org/2000/svg">
 <g transform="translate(3, 2.981231212615967)">
  <path d="M10.6144 0.501235C11.2996 -0.171472 12.3989 -0.166414 13.0779 0.512572L17.5032 4.93801C18.1866 5.62144 18.1866 6.72947 17.5032 7.41289L14.891 10.025C14.7504 10.1657 14.5596 10.2447 14.3607 10.2447L12.727 10.2447L10.7022 12.2695L10.4266 14.7498C10.2828 16.0444 8.80449 16.7552 7.71414 15.9676C6.9407 15.409 5.94635 14.6591 5.14144 13.9415L1.28033 17.8026C0.987437 18.0955 0.512563 18.0955 0.21967 17.8026C-0.0732233 17.5097 -0.0732233 17.0348 0.21967 16.7419L4.08078 12.8808C3.36318 12.0759 2.61329 11.0816 2.05463 10.3081C1.26707 9.21776 1.97789 7.73949 3.27241 7.59566L5.75276 7.32006L7.71596 5.35686L7.71596 3.66156C7.71596 3.46025 7.79688 3.2674 7.94053 3.12637L10.6144 0.501235ZM12.0172 1.57322C11.9202 1.47623 11.7631 1.4755 11.6653 1.57161L9.21596 3.97626L9.21596 5.66752C9.21596 5.86644 9.13694 6.0572 8.99629 6.19785L6.62739 8.56675C6.50697 8.68718 6.34915 8.76303 6.17988 8.78184L3.43806 9.08648C3.24299 9.10816 3.1806 9.3052 3.27061 9.42982C3.96301 10.3884 4.89205 11.6039 5.6552 12.3671C6.41835 13.1302 7.63382 14.0592 8.59244 14.7516C8.71705 14.8417 8.9141 14.7793 8.93577 14.5842L9.24042 11.8424C9.25923 11.6731 9.33508 11.5153 9.4555 11.3949L11.886 8.96438C12.0266 8.82373 12.2174 8.74471 12.4163 8.74471L14.05 8.74471L16.4426 6.35222C16.5402 6.25459 16.5402 6.0963 16.4426 5.99867L12.0172 1.57322Z" fill-rule="EVENODD"></path>
 </g>
</svg>