<svg viewBox="0 0 24 24" width="24" height="24" fill="black" xmlns="http://www.w3.org/2000/svg">
 <g transform="translate(1, 1)">
  <path d="M11 1.5C5.75329 1.5 1.5 5.75329 1.5 11C1.5 16.2467 5.75329 20.5 11 20.5C16.2467 20.5 20.5 16.2467 20.5 11C20.5 5.75329 16.2467 1.5 11 1.5ZM0 11C0 4.92487 4.92487 0 11 0C17.0751 0 22 4.92487 22 11C22 17.0751 17.0751 22 11 22C4.92487 22 0 17.0751 0 11Z" fill-rule="EVENODD"></path>
  <path d="M7 6.6049C7 5.21201 8.54819 4.37737 9.71183 5.14292L16.3924 9.53802C17.4433 10.2294 17.4433 11.7706 16.3924 12.462L9.71183 16.8571C8.54819 17.6226 7 16.788 7 15.3951L7 6.6049ZM8.8874 6.39605C8.72117 6.28668 8.5 6.40592 8.5 6.6049L8.5 15.3951C8.5 15.5941 8.72117 15.7133 8.88741 15.604L15.568 11.2089C15.7181 11.1101 15.7181 10.8899 15.568 10.7911L8.8874 6.39605Z" fill-rule="EVENODD"></path>
 </g>
</svg>