<svg viewBox="0 0 16 16" width="16" height="16" fill="currentColor" xmlns="http://www.w3.org/2000/svg">
 <g transform="translate(0, 0)">
  <path d="M6.96937 3.19086C6.14118 2.60806 5 3.20043 5 4.21312L5 11.7866C5 12.7993 6.14118 13.3917 6.96937 12.8089L12.3505 9.02213C13.0581 8.52426 13.0581 7.4755 12.3505 6.97762L6.96937 3.19086ZM6.5 11.305L6.5 4.69474L11.1968 7.99988L6.5 11.305Z" fill-rule="EVENODD"></path>
  <path d="M8 0C3.58172 0 0 3.58172 0 8C0 12.4183 3.58172 16 8 16C12.4183 16 16 12.4183 16 8C16 3.58172 12.4183 0 8 0ZM1.5 8C1.5 4.41015 4.41015 1.5 8 1.5C11.5899 1.5 14.5 4.41015 14.5 8C14.5 11.5899 11.5899 14.5 8 14.5C4.41015 14.5 1.5 11.5899 1.5 8Z" fill-rule="EVENODD"></path>
 </g>
</svg>