<svg viewBox="0 0 24 24" width="24" height="24" fill="currentColor" xmlns="http://www.w3.org/2000/svg">
 <g transform="translate(1, 1)">
  <path d="M9.71183 5.14298C8.54819 4.37743 7 5.21207 7 6.60496L7 15.3952C7 16.7881 8.54819 17.6227 9.71183 16.8571L16.3924 12.462C17.4433 11.7707 17.4433 10.2295 16.3924 9.53808L9.71183 5.14298ZM8.5 6.60496C8.5 6.40598 8.72117 6.28675 8.8874 6.39611L15.568 10.7912C15.7181 10.89 15.7181 11.1101 15.568 11.2089L8.88741 15.604C8.72117 15.7134 8.5 15.5941 8.5 15.3952L8.5 6.60496Z" fill-rule="EVENODD"></path>
  <path d="M11 0C4.92487 0 0 4.92487 0 11C0 17.0751 4.92487 22 11 22C17.0751 22 22 17.0751 22 11C22 4.92487 17.0751 0 11 0ZM1.5 11C1.5 5.75329 5.75329 1.5 11 1.5C16.2467 1.5 20.5 5.75329 20.5 11C20.5 16.2467 16.2467 20.5 11 20.5C5.75329 20.5 1.5 16.2467 1.5 11Z" fill-rule="EVENODD"></path>
 </g>
</svg>