<svg viewBox="0 0 16 16" width="16" height="16" fill="black" xmlns="http://www.w3.org/2000/svg">
 <g transform="translate(0, 0)">
  <path d="M8 1.5C4.41015 1.5 1.5 4.41015 1.5 8C1.5 11.5899 4.41015 14.5 8 14.5C11.5899 14.5 14.5 11.5899 14.5 8C14.5 4.41015 11.5899 1.5 8 1.5ZM0 8C0 3.58172 3.58172 0 8 0C12.4183 0 16 3.58172 16 8C16 12.4183 12.4183 16 8 16C3.58172 16 0 12.4183 0 8Z" fill-rule="EVENODD"></path>
  <path d="M5 4.21324C5 3.20055 6.14118 2.60819 6.96937 3.19099L12.3505 6.97774C13.0581 7.47562 13.0581 8.52438 12.3505 9.02226L6.96937 12.809C6.14118 13.3918 5 12.7995 5 11.7868L5 4.21324ZM6.5 4.69487L6.5 11.3051L11.1968 8L6.5 4.69487Z" fill-rule="EVENODD"></path>
 </g>
</svg>