<svg viewBox="0 0 24 24" width="24" height="24" fill="black" xmlns="http://www.w3.org/2000/svg">
 <g transform="translate(2, 2)">
  <path d="M0 2.75C0 1.23122 1.23122 0 2.75 0L16.75 0C18.2688 0 19.5 1.23122 19.5 2.75L19.5 16.75C19.5 18.2688 18.2688 19.5 16.75 19.5L2.75 19.5C1.23122 19.5 0 18.2688 0 16.75L0 2.75ZM2.75 1.5C2.05964 1.5 1.5 2.05964 1.5 2.75L1.5 16.75C1.5 17.4404 2.05964 18 2.75 18L16.75 18C17.4404 18 18 17.4404 18 16.75L18 2.75C18 2.05964 17.4404 1.5 16.75 1.5L2.75 1.5Z" fill-rule="EVENODD"></path>
  <path d="M9.75 4.75C10.1642 4.75 10.5 5.08579 10.5 5.5L10.5 14C10.5 14.4142 10.1642 14.75 9.75 14.75C9.33579 14.75 9 14.4142 9 14L9 5.5C9 5.08579 9.33579 4.75 9.75 4.75Z" fill-rule="EVENODD"></path>
  <path d="M4.75 9.75C4.75 9.33579 5.08579 9 5.5 9L14 9C14.4142 9 14.75 9.33579 14.75 9.75C14.75 10.1642 14.4142 10.5 14 10.5L5.5 10.5C5.08579 10.5 4.75 10.1642 4.75 9.75Z" fill-rule="EVENODD"></path>
 </g>
</svg>