<svg viewBox="0 0 24 24" width="24" height="24" fill="black" xmlns="http://www.w3.org/2000/svg">
 <g transform="translate(4.25, 4.25)">
  <path d="M8 0C8.41421 0 8.75 0.335786 8.75 0.75L8.75 15.25C8.75 15.6642 8.41421 16 8 16C7.58579 16 7.25 15.6642 7.25 15.25L7.25 0.75C7.25 0.335786 7.58579 0 8 0Z" fill-rule="EVENODD"></path>
  <path d="M0 8C0 7.58579 0.335786 7.25 0.75 7.25L15.25 7.25C15.6642 7.25 16 7.58579 16 8C16 8.41421 15.6642 8.75 15.25 8.75L0.75 8.75C0.335786 8.75 0 8.41421 0 8Z" fill-rule="EVENODD"></path>
 </g>
</svg>