<svg viewBox="0 0 24 24" width="24" height="24" fill="black" xmlns="http://www.w3.org/2000/svg">
 <g transform="translate(1, 1)">
  <path d="M10.75 1.5C5.64137 1.5 1.5 5.64137 1.5 10.75C1.5 15.8586 5.64137 20 10.75 20C15.8586 20 20 15.8586 20 10.75C20 5.64137 15.8586 1.5 10.75 1.5ZM0 10.75C0 4.81294 4.81294 0 10.75 0C16.6871 0 21.5 4.81294 21.5 10.75C21.5 16.6871 16.6871 21.5 10.75 21.5C4.81294 21.5 0 16.6871 0 10.75Z" fill-rule="EVENODD"></path>
  <path d="M10.75 5.75C11.1642 5.75 11.5 6.08579 11.5 6.5L11.5 15C11.5 15.4142 11.1642 15.75 10.75 15.75C10.3358 15.75 10 15.4142 10 15L10 6.5C10 6.08579 10.3358 5.75 10.75 5.75Z" fill-rule="EVENODD"></path>
  <path d="M5.75 10.75C5.75 10.3358 6.08579 10 6.5 10L15 10C15.4142 10 15.75 10.3358 15.75 10.75C15.75 11.1642 15.4142 11.5 15 11.5L6.5 11.5C6.08579 11.5 5.75 11.1642 5.75 10.75Z" fill-rule="EVENODD"></path>
 </g>
</svg>