<svg viewBox="0 0 16 16" width="16" height="16" fill="currentColor" xmlns="http://www.w3.org/2000/svg">
 <g transform="translate(0.5, 0.5)">
  <path d="M8 0.75C8 0.335786 7.66421 0 7.25 0C6.83579 0 6.5 0.335786 6.5 0.75L6.5 6.25C6.5 6.66421 6.83579 7 7.25 7C7.66421 7 8 6.66421 8 6.25L8 0.75Z" fill-rule="NONZERO"></path>
  <path d="M3.04797 3.32508C3.33078 3.02244 3.31472 2.54784 3.01209 2.26502C2.70945 1.98221 2.23485 1.99827 1.95203 2.3009C0.741812 3.59592 0 5.3372 0 7.25009C0 11.2541 3.24594 14.5001 7.25 14.5001C11.2541 14.5001 14.5 11.2541 14.5 7.25009C14.5 5.3372 13.7582 3.59592 12.548 2.3009C12.2652 1.99827 11.7905 1.98221 11.4879 2.26502C11.1853 2.54784 11.1692 3.02244 11.452 3.32508C12.4129 4.35329 13 5.7323 13 7.25009C13 10.4257 10.4256 13.0001 7.25 13.0001C4.07436 13.0001 1.5 10.4257 1.5 7.25009C1.5 5.7323 2.08708 4.35329 3.04797 3.32508Z" fill-rule="NONZERO"></path>
 </g>
</svg>