<svg viewBox="0 0 16 16" width="16" height="16" fill="black" xmlns="http://www.w3.org/2000/svg">
 <g transform="translate(0.5, 0.5)">
  <path d="M3.01209 2.26494C3.31472 2.54776 3.33078 3.02236 3.04797 3.32499C2.08708 4.35321 1.5 5.73221 1.5 7.25C1.5 10.4256 4.07436 13 7.25 13C10.4256 13 13 10.4256 13 7.25C13 5.73221 12.4129 4.35321 11.452 3.32499C11.1692 3.02236 11.1853 2.54776 11.4879 2.26494C11.7905 1.98212 12.2652 1.99819 12.548 2.30082C13.7582 3.59584 14.5 5.33712 14.5 7.25C14.5 11.2541 11.2541 14.5 7.25 14.5C3.24594 14.5 0 11.2541 0 7.25C0 5.33712 0.741812 3.59584 1.95203 2.30082C2.23485 1.99819 2.70945 1.98212 3.01209 2.26494Z" fill-rule="EVENODD"></path>
  <path d="M7.25 0C7.66421 0 8 0.335786 8 0.75L8 6.25C8 6.66421 7.66421 7 7.25 7C6.83579 7 6.5 6.66421 6.5 6.25L6.5 0.75C6.5 0.335786 6.83579 0 7.25 0Z" fill-rule="EVENODD"></path>
 </g>
</svg>