<svg viewBox="0 0 24 24" width="24" height="24" fill="black" xmlns="http://www.w3.org/2000/svg">
 <g transform="translate(1, 1)">
  <path d="M6.75 1.5C6.05964 1.5 5.5 2.05964 5.5 2.75L5.5 7.5C5.5 7.91421 5.16421 8.25 4.75 8.25C4.33579 8.25 4 7.91421 4 7.5L4 2.75C4 1.23122 5.23122 0 6.75 0L15.25 0C16.7688 0 18 1.23122 18 2.75L18 7.5C18 7.91421 17.6642 8.25 17.25 8.25C16.8358 8.25 16.5 7.91421 16.5 7.5L16.5 2.75C16.5 2.05964 15.9404 1.5 15.25 1.5L6.75 1.5Z" fill-rule="EVENODD"></path>
  <path d="M0 9.75C0 8.23122 1.23122 7 2.75 7L19.25 7C20.7688 7 22 8.23122 22 9.75L22 15.25C22 16.7688 20.7688 18 19.25 18L17.5 18C17.0858 18 16.75 17.6642 16.75 17.25C16.75 16.8358 17.0858 16.5 17.5 16.5L19.25 16.5C19.9404 16.5 20.5 15.9404 20.5 15.25L20.5 9.75C20.5 9.05964 19.9404 8.5 19.25 8.5L2.75 8.5C2.05964 8.5 1.5 9.05964 1.5 9.75L1.5 15.25C1.5 15.9404 2.05964 16.5 2.75 16.5L4.5 16.5C4.91421 16.5 5.25 16.8358 5.25 17.25C5.25 17.6642 4.91421 18 4.5 18L2.75 18C1.23122 18 0 16.7688 0 15.25L0 9.75Z" fill-rule="EVENODD"></path>
  <path d="M4 13.75C4 12.7835 4.7835 12 5.75 12L16.25 12C17.2165 12 18 12.7835 18 13.75L18 20.25C18 21.2165 17.2165 22 16.25 22L5.75 22C4.7835 22 4 21.2165 4 20.25L4 13.75ZM5.75 13.5C5.61193 13.5 5.5 13.6119 5.5 13.75L5.5 20.25C5.5 20.3881 5.61193 20.5 5.75 20.5L16.25 20.5C16.3881 20.5 16.5 20.3881 16.5 20.25L16.5 13.75C16.5 13.6119 16.3881 13.5 16.25 13.5L5.75 13.5Z" fill-rule="EVENODD"></path>
 </g>
</svg>