<svg viewBox="0 0 24 24" width="24" height="24" fill="currentColor" xmlns="http://www.w3.org/2000/svg">
 <g transform="translate(1, 1)">
  <path d="M11 0C4.92487 0 0 4.92487 0 11C0 17.0751 4.92487 22 11 22C17.0751 22 22 17.0751 22 11C22 4.92487 17.0751 0 11 0ZM10 1.552C8.74439 1.68336 7.56155 2.05929 6.5 2.63131L6.5 6.71675L10 4.85012L10 1.552ZM1.65118 9.30275C2.06126 7.029 3.28048 5.03652 5 3.63416L5 7.51674L1.65118 9.30275ZM1.50036 11.0832L5 9.21674L5 18.3658C2.88396 16.6401 1.52555 14.0207 1.50036 11.0832ZM10 16.02L6.5 18.0522L6.5 8.41675L10 6.55011L10 16.02ZM11.5 15.149L11.5 5.75012L15 3.88348L15 13.1167L11.5 15.149ZM15 14.8513L11.5 16.8835L11.5 20.4871C12.7452 20.4225 13.927 20.1182 15 19.6194L15 14.8513ZM16.5 18.7469L16.5 13.9803L20.4767 11.6713C20.2729 14.5907 18.7499 17.1466 16.5 18.7469ZM16.5 12.2458L16.5 3.2531C18.6537 4.78491 20.1412 7.19234 20.4433 9.95611L16.5 12.2458ZM10 17.7545L6.88335 19.5642C7.84359 20.0266 8.89353 20.3322 10 20.448L10 17.7545ZM11.5 4.05013L11.5 1.51293C12.6682 1.57351 13.7805 1.8451 14.7997 2.29034L11.5 4.05013Z" fill-rule="EVENODD"></path>
 </g>
</svg>