<svg viewBox="0 0 24 24" width="24" height="24" fill="currentColor" xmlns="http://www.w3.org/2000/svg">
 <g transform="translate(1, 1)">
  <path d="M11 1.5C5.75329 1.5 1.5 5.75329 1.5 11C1.5 16.2467 5.75329 20.5 11 20.5C16.2467 20.5 20.5 16.2467 20.5 11C20.5 5.75329 16.2467 1.5 11 1.5ZM0 11C0 4.92487 4.92487 0 11 0C17.0751 0 22 4.92487 22 11C22 17.0751 17.0751 22 11 22C4.92487 22 0 17.0751 0 11Z" fill-rule="EVENODD"></path>
  <path d="M16.6618 2.14704C16.8567 2.51252 16.7184 2.96682 16.3529 3.16174L1.35292 11.1616C0.987441 11.3565 0.533143 11.2183 0.338221 10.8528C0.143299 10.4873 0.281567 10.033 0.647051 9.83809L15.6471 1.83821C16.0125 1.64329 16.4668 1.78156 16.6618 2.14704Z" fill-rule="EVENODD"></path>
  <path d="M21.6486 10.1233C21.8566 10.4815 21.7348 10.9405 21.3766 11.1485L5.87661 20.1485C5.51841 20.3565 5.05941 20.2347 4.85142 19.8765C4.64343 19.5183 4.7652 19.0593 5.12341 18.8513L20.6234 9.85131C20.9816 9.64332 21.4406 9.76509 21.6486 10.1233Z" fill-rule="EVENODD"></path>
  <path d="M10.75 0.25C11.1642 0.25 11.5 0.585786 11.5 1L11.5 21C11.5 21.4142 11.1642 21.75 10.75 21.75C10.3358 21.75 10 21.4142 10 21L10 1C10 0.585786 10.3358 0.25 10.75 0.25Z" fill-rule="EVENODD"></path>
  <path d="M5.75 1.75C6.16421 1.75 6.5 2.08579 6.5 2.5L6.5 19.5C6.5 19.9142 6.16421 20.25 5.75 20.25C5.33579 20.25 5 19.9142 5 19.5L5 2.5C5 2.08579 5.33579 1.75 5.75 1.75Z" fill-rule="EVENODD"></path>
  <path d="M15.75 1.24999C16.1642 1.24999 16.5 1.58577 16.5 1.99999L16.5 20C16.5 20.4142 16.1642 20.75 15.75 20.75C15.3358 20.75 15 20.4142 15 20L15 1.99999C15 1.58577 15.3358 1.24999 15.75 1.24999Z" fill-rule="EVENODD"></path>
 </g>
</svg>