<svg viewBox="0 0 24 24" width="24" height="24" fill="currentColor" xmlns="http://www.w3.org/2000/svg">
 <g transform="translate(2, 3.75)">
  <path d="M1.18917 0.142046C0.853379 -0.100473 0.384564 -0.0248573 0.142046 0.310937C-0.100473 0.646731 -0.0248573 1.11555 0.310937 1.35806L3.96908 4.00005L0.310937 6.64205C-0.0248573 6.88456 -0.100473 7.35338 0.142046 7.68917C0.384564 8.02497 0.853379 8.10058 1.18917 7.85806L5.68917 4.60806C5.88441 4.46706 6.00005 4.24088 6.00005 4.00005C6.00005 3.75923 5.88441 3.53305 5.68917 3.39205L1.18917 0.142046Z" fill-rule="NONZERO"></path>
  <path d="M9.75 3.25C9.33579 3.25 9 3.58579 9 4C9 4.41421 9.33579 4.75 9.75 4.75L19.25 4.75C19.6642 4.75 20 4.41421 20 4C20 3.58579 19.6642 3.25 19.25 3.25L9.75 3.25Z" fill-rule="NONZERO"></path>
  <path d="M6 9C6 8.58579 6.33579 8.25 6.75 8.25L19.25 8.25C19.6642 8.25 20 8.58579 20 9C20 9.41421 19.6642 9.75 19.25 9.75L6.75 9.75C6.33579 9.75 6 9.41421 6 9Z" fill-rule="NONZERO"></path>
  <path d="M6.75 13.25C6.33579 13.25 6 13.5858 6 14C6 14.4142 6.33579 14.75 6.75 14.75L19.25 14.75C19.6642 14.75 20 14.4142 20 14C20 13.5858 19.6642 13.25 19.25 13.25L6.75 13.25Z" fill-rule="NONZERO"></path>
 </g>
</svg>