<svg viewBox="0 0 16 16" width="16" height="16" fill="currentColor" xmlns="http://www.w3.org/2000/svg">
 <g transform="translate(1, 1)">
  <path d="M4 3C3.44772 3 3 3.44772 3 4C3 4.55228 3.44772 5 4 5L4.01 5C4.56228 5 5.01 4.55228 5.01 4C5.01 3.44772 4.56228 3 4.01 3L4 3Z" fill-rule="NONZERO"></path>
  <path d="M6 7C6 6.44772 6.44772 6 7 6L7.01 6C7.56228 6 8.01 6.44772 8.01 7C8.01 7.55228 7.56228 8 7.01 8L7 8C6.44772 8 6 7.55228 6 7Z" fill-rule="NONZERO"></path>
  <path d="M10.01 9C9.45772 9 9.01001 9.44771 9.01001 10C9.01001 10.5523 9.45772 11 10.01 11L10.02 11C10.5723 11 11.02 10.5523 11.02 10C11.02 9.44771 10.5723 9 10.02 9L10.01 9Z" fill-rule="NONZERO"></path>
  <path d="M2.25 0C1.00736 0 0 1.00736 0 2.25L0 11.75C0 12.9926 1.00736 14 2.25 14L11.75 14C12.9926 14 14 12.9926 14 11.75L14 2.25C14 1.00736 12.9926 0 11.75 0L2.25 0ZM1.5 2.25C1.5 1.83579 1.83579 1.5 2.25 1.5L11.75 1.5C12.1642 1.5 12.5 1.83579 12.5 2.25L12.5 11.75C12.5 12.1642 12.1642 12.5 11.75 12.5L2.25 12.5C1.83579 12.5 1.5 12.1642 1.5 11.75L1.5 2.25Z" fill-rule="EVENODD"></path>
 </g>
</svg>