<svg viewBox="0 0 16 16" width="16" height="16" fill="currentColor" xmlns="http://www.w3.org/2000/svg">
 <g transform="translate(0.6294882893562317, 2.5149075984954834)">
  <path d="M7.37051 1.00187C7.37051 0.165734 8.33565 -0.301169 8.99121 0.217822L14.3384 4.45105C14.8442 4.85142 14.8442 5.61877 14.3384 6.01914L8.99121 10.2524C8.33565 10.7714 7.37051 10.3045 7.37051 9.46832L7.37051 7.92321C6.6111 7.88027 5.88624 7.92598 5.1169 8.14136C4.12241 8.41976 2.99827 8.99761 1.61 10.1309C1.27156 10.4072 0.822745 10.4243 0.481502 10.2268C0.125519 10.0207 -0.0905257 9.58921 0.0368526 9.1282C0.451193 7.62863 1.46113 5.98681 2.84458 4.7162C4.06092 3.59907 5.61532 2.72538 7.37051 2.52735L7.37051 1.00187ZM8.87051 2.03542L8.87051 3.23509C8.87051 3.64931 8.53473 3.98509 8.12051 3.98509C6.53471 3.98509 5.05399 4.72364 3.85922 5.82096C3.19825 6.42802 2.64438 7.1276 2.22485 7.8346C3.10236 7.28257 3.91991 6.91877 4.71253 6.69689C5.95974 6.34774 7.08973 6.36595 8.20334 6.48968C8.58316 6.53188 8.87051 6.85293 8.87051 7.23509L8.87051 8.43477L12.9122 5.23509L8.87051 2.03542Z" fill-rule="EVENODD"></path>
 </g>
</svg>