<svg viewBox="0 0 24 24" width="24" height="24" fill="black" xmlns="http://www.w3.org/2000/svg">
 <g transform="translate(2.25, 1.5498046875)">
  <path d="M1.75 0C1.33579 0 1 0.335786 1 0.75L1 5.75C1 6.16421 1.33579 6.5 1.75 6.5L6.75 6.5C7.16421 6.5 7.5 6.16421 7.5 5.75C7.5 5.33579 7.16421 5 6.75 5L3.5564 5C5.06898 3.28238 7.28329 2.2002 9.75 2.2002C14.3063 2.2002 18 5.89385 18 10.4502C18 10.8644 18.3358 11.2002 18.75 11.2002C19.1642 11.2002 19.5 10.8644 19.5 10.4502C19.5 5.06542 15.1348 0.700195 9.75 0.700195C6.87108 0.700195 4.28403 1.94834 2.5 3.93097L2.5 0.75C2.5 0.335786 2.16421 0 1.75 0Z" fill-rule="NONZERO"></path>
  <path d="M0.75 9.7002C0.335787 9.7002 0 10.036 0 10.4502C0 15.835 4.36522 20.2002 9.75 20.2002C12.6289 20.2002 15.216 18.952 17 16.9694L17 20.0503C17 20.4645 17.3358 20.8003 17.75 20.8003C18.1642 20.8003 18.5 20.4645 18.5 20.0503L18.5 15.0503C18.5 14.6361 18.1642 14.3003 17.75 14.3003L12.75 14.3003C12.3358 14.3003 12 14.6361 12 15.0503C12 15.4645 12.3358 15.8003 12.75 15.8003L16.0303 15.8003C14.5162 17.5759 12.2643 18.7002 9.75 18.7002C5.19365 18.7002 1.5 15.0065 1.5 10.4502C1.5 10.036 1.16421 9.7002 0.75 9.7002Z" fill-rule="NONZERO"></path>
 </g>
</svg>