<svg viewBox="0 0 16 16" width="16" height="16" fill="currentColor" xmlns="http://www.w3.org/2000/svg">
 <g transform="translate(2, 0.000000004829416866414249)">
  <path d="M5.24828 1.30748C4.94039 1.03038 4.91543 0.556165 5.19253 0.248283C5.46962 -0.0595996 5.94384 -0.0845584 6.25172 0.192536L8.75172 2.44254C8.90976 2.58477 9 2.78739 9 3.00001C9 3.21262 8.90976 3.41525 8.75172 3.55748L6.25172 5.80748C5.94384 6.08457 5.46962 6.05961 5.19253 5.75173C4.91543 5.44385 4.94039 4.96963 5.24828 4.69254L6.53803 3.53176C6.36179 3.5108 6.18226 3.5 6 3.5C3.51472 3.5 1.5 5.51472 1.5 8C1.5 10.4853 3.51472 12.5 6 12.5C8.48528 12.5 10.5 10.4853 10.5 8C10.5 7.42133 10.3911 6.86988 10.1935 6.36374C10.0428 5.9779 10.2334 5.54297 10.6193 5.39229C11.0051 5.24161 11.44 5.43224 11.5907 5.81808C11.8552 6.49532 12 7.23165 12 8C12 11.3137 9.31371 14 6 14C2.68629 14 0 11.3137 0 8C0 4.68629 2.68629 2 6 2C6.00593 2 6.01185 2.00001 6.01778 2.00003L5.24828 1.30748Z" fill-rule="NONZERO"></path>
 </g>
</svg>