<svg viewBox="0 0 16 16" width="16" height="16" fill="black" xmlns="http://www.w3.org/2000/svg">
 <g transform="translate(1, 1)">
  <path d="M0 2.25C0 1.00736 1.00736 0 2.25 0L8.75 0C9.99264 0 11 1.00736 11 2.25L11 8.75C11 9.99264 9.99264 11 8.75 11L2.25 11C1.00736 11 0 9.99264 0 8.75L0 2.25ZM2.25 1.5C1.83579 1.5 1.5 1.83579 1.5 2.25L1.5 8.75C1.5 9.16421 1.83579 9.5 2.25 9.5L8.75 9.5C9.16421 9.5 9.5 9.16421 9.5 8.75L9.5 2.25C9.5 1.83579 9.16421 1.5 8.75 1.5L2.25 1.5Z" fill-rule="EVENODD"></path>
  <path d="M10.0883 10.0885C10.3617 9.81516 10.8049 9.81516 11.0783 10.0885L13.745 12.7552C14.0183 13.0286 14.0183 13.4718 13.745 13.7451C13.4716 14.0185 13.0284 14.0185 12.755 13.7451L10.0883 11.0785C9.81497 10.8051 9.81497 10.3619 10.0883 10.0885Z" fill-rule="EVENODD"></path>
  <path d="M9.50497 12.8385C9.77831 12.5651 10.2215 12.5651 10.4949 12.8384L11.0783 13.4216C11.3517 13.695 11.3517 14.1382 11.0784 14.4116C10.805 14.685 10.3618 14.685 10.0884 14.4117L9.50508 13.8285C9.23168 13.5551 9.23163 13.1119 9.50497 12.8385Z" fill-rule="EVENODD"></path>
  <path d="M6.75503 10.0885C7.02839 9.81516 7.47161 9.81516 7.74498 10.0885L8.99498 11.3385C9.26834 11.6119 9.26834 12.0551 8.99498 12.3285C8.72161 12.6018 8.27839 12.6018 8.00503 12.3285L6.75503 11.0785C6.48166 10.8051 6.48166 10.3619 6.75503 10.0885Z" fill-rule="EVENODD"></path>
  <path d="M3.42171 10.0885C3.69508 9.81516 4.1383 9.81516 4.41166 10.0885L7.07833 12.7552C7.3517 13.0286 7.3517 13.4718 7.07833 13.7451C6.80496 14.0185 6.36175 14.0185 6.08838 13.7451L3.42171 11.0785C3.14835 10.8051 3.14835 10.3619 3.42171 10.0885Z" fill-rule="EVENODD"></path>
  <path d="M10.0883 6.75503C10.3617 6.48166 10.8049 6.48166 11.0783 6.75503L12.8283 8.50503C13.1017 8.77839 13.1017 9.22161 12.8283 9.49498C12.5549 9.76834 12.1117 9.76834 11.8383 9.49498L10.0883 7.74498C9.81497 7.47161 9.81497 7.02839 10.0883 6.75503Z" fill-rule="EVENODD"></path>
  <path d="M13.3551 10.0216C13.6284 9.74826 14.0716 9.74826 14.345 10.0216L14.4117 10.0883C14.685 10.3617 14.685 10.8049 14.4117 11.0782C14.1383 11.3516 13.6951 11.3516 13.4217 11.0782L13.3551 11.0116C13.0817 10.7382 13.0817 10.295 13.3551 10.0216Z" fill-rule="EVENODD"></path>
  <path d="M12.375 5.70508C12.6483 5.43168 13.0915 5.43163 13.3649 5.70497L14.1981 6.53798C14.4715 6.81132 14.4716 7.25453 14.1982 7.52793C13.9249 7.80133 13.4817 7.80137 13.2083 7.52804L12.3751 6.69503C12.1017 6.42169 12.1016 5.97848 12.375 5.70508Z" fill-rule="EVENODD"></path>
  <path d="M10.0883 3.42153C10.3617 3.14816 10.8049 3.14816 11.0783 3.42153L11.745 4.0882C12.0183 4.36156 12.0183 4.80478 11.745 5.07815C11.4716 5.35151 11.0284 5.35151 10.755 5.07815L10.0883 4.41148C9.81497 4.13811 9.81497 3.6949 10.0883 3.42153Z" fill-rule="EVENODD"></path>
 </g>
</svg>