<svg viewBox="0 0 24 24" width="24" height="24" fill="currentColor" xmlns="http://www.w3.org/2000/svg">
 <g transform="translate(1, 1)">
  <path d="M0 2.75C0 1.23122 1.23122 0 2.75 0L13.25 0C14.7688 0 16 1.23122 16 2.75L16 15.25C16 15.6642 15.6642 16 15.25 16L2.75 16C1.23122 16 0 14.7688 0 13.25L0 2.75ZM2.75 1.5C2.05964 1.5 1.5 2.05964 1.5 2.75L1.5 13.25C1.5 13.9404 2.05964 14.5 2.75 14.5L14.5 14.5L14.5 2.75C14.5 2.05964 13.9404 1.5 13.25 1.5L2.75 1.5Z" fill-rule="EVENODD"></path>
  <path d="M18.25 5C18.6642 5 19 5.33579 19 5.75L19 17.25C19 18.2136 18.2223 19 17.2529 19L5.75 19C5.33579 19 5 18.6642 5 18.25C5 17.8358 5.33579 17.5 5.75 17.5L17.2529 17.5C17.3881 17.5 17.5 17.3909 17.5 17.25L17.5 5.75C17.5 5.33579 17.8358 5 18.25 5Z" fill-rule="EVENODD"></path>
  <path d="M21.25 8C21.6642 8 22 8.33579 22 8.75L22 18.25C22 20.3204 20.3239 22 18.2521 22L8.75 22C8.33579 22 8 21.6642 8 21.25C8 20.8358 8.33579 20.5 8.75 20.5L18.2521 20.5C19.4941 20.5 20.5 19.4933 20.5 18.25L20.5 8.75C20.5 8.33579 20.8358 8 21.25 8Z" fill-rule="EVENODD"></path>
 </g>
</svg>