<svg viewBox="0 0 24 24" width="24" height="24" fill="black" xmlns="http://www.w3.org/2000/svg">
 <g transform="translate(2, 2)">
  <path d="M0 2.75C0 1.23122 1.23122 0 2.75 0L13.25 0C14.7688 0 16 1.23122 16 2.75L16 13.25C16 14.7688 14.7688 16 13.25 16L2.75 16C1.23122 16 0 14.7688 0 13.25L0 2.75ZM2.75 1.5C2.05964 1.5 1.5 2.05964 1.5 2.75L1.5 13.25C1.5 13.9404 2.05964 14.5 2.75 14.5L13.25 14.5C13.9404 14.5 14.5 13.9404 14.5 13.25L14.5 2.75C14.5 2.05964 13.9404 1.5 13.25 1.5L2.75 1.5Z" fill-rule="EVENODD"></path>
  <path d="M14.7197 14.7197C15.0126 14.4268 15.4874 14.4268 15.7803 14.7197L19.7803 18.7197C20.0732 19.0126 20.0732 19.4874 19.7803 19.7803C19.4874 20.0732 19.0126 20.0732 18.7197 19.7803L14.7197 15.7803C14.4268 15.4874 14.4268 15.0126 14.7197 14.7197Z" fill-rule="EVENODD"></path>
  <path d="M13.7197 18.7197C14.0126 18.4268 14.4874 18.4268 14.7803 18.7197L15.7803 19.7197C16.0732 20.0126 16.0732 20.4874 15.7803 20.7803C15.4874 21.0732 15.0126 21.0732 14.7197 20.7803L13.7197 19.7803C13.4268 19.4874 13.4268 19.0126 13.7197 18.7197Z" fill-rule="EVENODD"></path>
  <path d="M9.71967 14.7197C10.0126 14.4268 10.4874 14.4268 10.7803 14.7197L12.7803 16.7197C13.0732 17.0126 13.0732 17.4874 12.7803 17.7803C12.4874 18.0732 12.0126 18.0732 11.7197 17.7803L9.71967 15.7803C9.42678 15.4874 9.42678 15.0126 9.71967 14.7197Z" fill-rule="EVENODD"></path>
  <path d="M4.71967 14.7197C5.01256 14.4268 5.48744 14.4268 5.78033 14.7197L9.78033 18.7197C10.0732 19.0126 10.0732 19.4874 9.78033 19.7803C9.48744 20.0732 9.01256 20.0732 8.71967 19.7803L4.71967 15.7803C4.42678 15.4874 4.42678 15.0126 4.71967 14.7197Z" fill-rule="EVENODD"></path>
  <path d="M14.7197 9.71967C15.0126 9.42678 15.4874 9.42678 15.7803 9.71967L18.7803 12.7197C19.0732 13.0126 19.0732 13.4874 18.7803 13.7803C18.4874 14.0732 18.0126 14.0732 17.7197 13.7803L14.7197 10.7803C14.4268 10.4874 14.4268 10.0126 14.7197 9.71967Z" fill-rule="EVENODD"></path>
  <path d="M19.6197 14.6196C19.9126 14.3267 20.3875 14.3267 20.6804 14.6196L20.7804 14.7196C21.0732 15.0125 21.0732 15.4873 20.7804 15.7802C20.4875 16.0731 20.0126 16.0731 19.7197 15.7802L19.6197 15.6802C19.3268 15.3873 19.3268 14.9125 19.6197 14.6196Z" fill-rule="EVENODD"></path>
  <path d="M17.7197 7.71967C18.0126 7.42678 18.4874 7.42678 18.7803 7.71967L19.7803 8.71967C20.0732 9.01256 20.0732 9.48744 19.7803 9.78033C19.4874 10.0732 19.0126 10.0732 18.7197 9.78033L17.7197 8.78033C17.4268 8.48744 17.4268 8.01256 17.7197 7.71967Z" fill-rule="EVENODD"></path>
  <path d="M14.7197 4.71967C15.0126 4.42678 15.4874 4.42678 15.7803 4.71967L16.7803 5.71967C17.0732 6.01256 17.0732 6.48744 16.7803 6.78033C16.4874 7.07322 16.0126 7.07322 15.7197 6.78033L14.7197 5.78033C14.4268 5.48744 14.4268 5.01256 14.7197 4.71967Z" fill-rule="EVENODD"></path>
 </g>
</svg>