<svg viewBox="0 0 16 16" width="16" height="16" fill="currentColor" xmlns="http://www.w3.org/2000/svg">
 <g transform="translate(0.924628496170044, 3.16357421875)">
  <path d="M6.14942 0.200571C6.98131 -0.334215 8.07537 0.263087 8.07537 1.25204L8.07537 3.05887L12.1139 0.262993C12.9429 -0.310958 14.0754 0.282407 14.0754 1.29073L14.0754 8.38216C14.0754 9.39049 12.9429 9.98386 12.1139 9.40991L8.07537 6.61403L8.07537 8.42038C8.07537 9.40934 6.98131 10.0066 6.14942 9.47185L0.574053 5.88769C-0.19135 5.39564 -0.191352 4.27678 0.574053 3.78474L6.14942 0.200571ZM1.71231 4.83621L6.57537 7.96246L6.57537 1.70996L1.71231 4.83621ZM8.14299 4.83645L12.5754 7.90502L12.5754 1.76788L8.14299 4.83645Z" fill-rule="EVENODD"></path>
 </g>
</svg>