<svg viewBox="0 0 16 16" width="16" height="16" fill="currentColor" xmlns="http://www.w3.org/2000/svg">
 <g transform="translate(0.875, 1.2808244228363037)">
  <path d="M11.7517 0.0386011C12.9801 -0.220405 14.0646 0.864035 13.8056 2.0925C13.5358 3.37205 13.1198 5.2824 12.7026 6.95108C12.3644 8.30397 11.186 9.29158 10.0629 9.96985C8.90623 10.6684 7.62321 11.1487 6.79552 11.419C5.86875 11.7218 5.016 11.1728 4.63664 10.4933C4.48924 10.2293 4.30615 9.96099 4.09467 9.74951C3.88319 9.53802 3.61492 9.35493 3.35089 9.20754C2.67133 8.82818 2.12241 7.97543 2.42513 7.04865C2.69548 6.22097 3.17574 4.93795 3.87433 3.78126C4.5526 2.65822 5.54021 1.47979 6.8931 1.14157C8.56178 0.724399 10.4721 0.308379 11.7517 0.0386011ZM12.3378 1.78304C12.3733 1.61505 12.2291 1.47091 12.0611 1.50633C10.7871 1.77496 8.89826 2.18644 7.2569 2.59678C6.51054 2.78337 5.79237 3.50691 5.15832 4.55673C4.5446 5.5729 4.10601 6.73365 3.85099 7.51439C3.83734 7.55619 3.83623 7.61016 3.871 7.68232C3.90831 7.75977 3.98143 7.84163 4.08205 7.89781C4.41768 8.08517 4.8129 8.34641 5.15533 8.68884C5.49776 9.03128 5.75901 9.4265 5.94637 9.76212C6.00254 9.86274 6.0844 9.93586 6.16185 9.97317C6.23402 10.0079 6.28799 10.0068 6.32978 9.99318C7.11053 9.73816 8.27127 9.29958 9.28745 8.68585C10.3373 8.05181 11.0608 7.33364 11.2474 6.58727C11.6577 4.94592 12.0692 3.05711 12.3378 1.78304Z" fill-rule="EVENODD"></path>
  <path d="M3.56694 10.2772C3.81102 10.5213 3.81102 10.917 3.56694 11.1611L1.56694 13.1611C1.32286 13.4052 0.927136 13.4052 0.683058 13.1611C0.438981 12.917 0.438981 12.5213 0.683058 12.2772L2.68306 10.2772C2.92714 10.0332 3.32286 10.0332 3.56694 10.2772Z" fill-rule="EVENODD"></path>
  <path d="M8.90533 4.93885C9.19822 5.23174 9.19822 5.70661 8.90533 5.99951L8.40533 6.49951C8.11244 6.7924 7.63756 6.7924 7.34467 6.49951C7.05178 6.20661 7.05178 5.73174 7.34467 5.43885L7.84467 4.93885C8.13756 4.64595 8.61244 4.64595 8.90533 4.93885Z" fill-rule="EVENODD"></path>
  <path d="M1.81694 9.02723C2.06102 9.27131 2.06102 9.66704 1.81694 9.91112L1.06694 10.6611C0.822864 10.9052 0.427136 10.9052 0.183058 10.6611C-0.0610194 10.417 -0.0610194 10.0213 0.183058 9.77723L0.933058 9.02723C1.17714 8.78316 1.57286 8.78316 1.81694 9.02723Z" fill-rule="EVENODD"></path>
  <path d="M4.81694 12.0272C5.06102 12.2713 5.06102 12.667 4.81694 12.9111L4.06694 13.6611C3.82286 13.9052 3.42714 13.9052 3.18306 13.6611C2.93898 13.417 2.93898 13.0213 3.18306 12.7772L3.93306 12.0272C4.17714 11.7832 4.57286 11.7832 4.81694 12.0272Z" fill-rule="EVENODD"></path>
  <path d="M3.18379 3.21918C3.09698 3.21918 3.01638 3.26421 2.97088 3.33815L1.727 5.35946C1.66086 5.46694 1.68519 5.60686 1.78374 5.6857L3.59352 7.13352C3.91697 7.39228 3.96941 7.86425 3.71065 8.1877C3.45189 8.51114 2.97992 8.56358 2.65648 8.30483L0.846698 6.857C0.156869 6.30514 -0.0134819 5.32568 0.449512 4.57331L1.69339 2.552C2.01189 2.03445 2.57609 1.71918 3.18379 1.71918L5.625 1.71918C6.03921 1.71918 6.375 2.05496 6.375 2.46918C6.375 2.88339 6.03921 3.21918 5.625 3.21918L3.18379 3.21918Z" fill-rule="EVENODD"></path>
  <path d="M10.625 10.6604C10.625 10.7472 10.58 10.8278 10.506 10.8733L8.48472 12.1172C8.37724 12.1833 8.23731 12.159 8.15848 12.0604L6.71065 10.2507C6.45189 9.92721 5.97993 9.87477 5.65648 10.1335C5.33303 10.3923 5.28059 10.8643 5.53935 11.1877L6.98717 12.9975C7.53904 13.6873 8.5185 13.8577 9.27086 13.3947L11.2922 12.1508C11.8097 11.8323 12.125 11.2681 12.125 10.6604L12.125 8.21918C12.125 7.80496 11.7892 7.46917 11.375 7.46917C10.9608 7.46917 10.625 7.80496 10.625 8.21918L10.625 10.6604Z" fill-rule="EVENODD"></path>
 </g>
</svg>