<svg viewBox="0 0 24 24" width="24" height="24" fill="currentColor" xmlns="http://www.w3.org/2000/svg">
 <g transform="translate(2, 1)">
  <path d="M1 0.75C1 0.335786 1.33579 0 1.75 0C2.16421 0 2.5 0.335786 2.5 0.75L2.5 4.38552C4.33159 2.31039 7.01265 1 10 1C15.5228 1 20 5.47715 20 11C20 16.5228 15.5228 21 10 21C4.47715 21 0 16.5228 0 11C0 10.5858 0.335787 10.25 0.75 10.25C1.16421 10.25 1.5 10.5858 1.5 11C1.5 15.6944 5.30558 19.5 10 19.5C14.6944 19.5 18.5 15.6944 18.5 11C18.5 6.30558 14.6944 2.5 10 2.5C7.40371 2.5 5.07893 3.66355 3.51896 5.5L7.25 5.5C7.66421 5.5 8 5.83579 8 6.25C8 6.66421 7.66421 7 7.25 7L1.75 7C1.33579 7 1 6.66421 1 6.25L1 0.75Z" fill-rule="NONZERO"></path>
 </g>
</svg>