<svg viewBox="0 0 16 16" width="16" height="16" fill="black" xmlns="http://www.w3.org/2000/svg">
 <g transform="translate(1, 0)">
  <path d="M7 2.5C10.0376 2.5 12.5 4.96243 12.5 8C12.5 11.0376 10.0376 13.5 7 13.5C3.96243 13.5 1.5 11.0376 1.5 8C1.5 7.58579 1.16421 7.25 0.75 7.25C0.335787 7.25 0 7.58579 0 8C0 11.866 3.13401 15 7 15C10.866 15 14 11.866 14 8C14 4.13401 10.866 1 7 1C5.0127 1 3.21778 1.82913 1.94452 3.15829C1.65798 3.4574 1.66818 3.93216 1.96729 4.2187C2.26641 4.50524 2.74117 4.49504 3.02771 4.19592C4.02979 3.14985 5.43837 2.5 7 2.5Z" fill-rule="EVENODD"></path>
  <path d="M1.75 0C1.33579 0 1 0.335786 1 0.75L1 4.75C1 5.16421 1.33579 5.5 1.75 5.5L5.75 5.5C6.16421 5.5 6.5 5.16421 6.5 4.75C6.5 4.33579 6.16421 4 5.75 4L2.5 4L2.5 0.75C2.5 0.335786 2.16421 0 1.75 0Z" fill-rule="EVENODD"></path>
 </g>
</svg>