<svg viewBox="0 0 16 16" width="16" height="16" fill="currentColor" xmlns="http://www.w3.org/2000/svg">
 <g transform="translate(1, 0)">
  <path d="M13 0.75C13 0.335786 12.6642 0 12.25 0C11.8358 0 11.5 0.335786 11.5 0.75L11.5 2.63794C10.2837 1.61627 8.71333 1 7 1C3.13401 1 0 4.13401 0 8C0 11.866 3.13401 15 7 15C10.866 15 14 11.866 14 8C14 7.58579 13.6642 7.25 13.25 7.25C12.8358 7.25 12.5 7.58579 12.5 8C12.5 11.0376 10.0376 13.5 7 13.5C3.96243 13.5 1.5 11.0376 1.5 8C1.5 4.96243 3.96243 2.5 7 2.5C8.46168 2.5 9.78927 3.06933 10.7749 4L8.25 4C7.83579 4 7.5 4.33579 7.5 4.75C7.5 5.16421 7.83579 5.5 8.25 5.5L12.25 5.5C12.6642 5.5 13 5.16421 13 4.75L13 0.75Z" fill-rule="NONZERO"></path>
 </g>
</svg>