<svg viewBox="0 0 24 24" width="24" height="24" fill="currentColor" xmlns="http://www.w3.org/2000/svg">
 <g transform="translate(2, 1)">
  <path d="M19 0.75C19 0.335786 18.6642 0 18.25 0C17.8358 0 17.5 0.335786 17.5 0.75L17.5 4.38552C15.6684 2.31039 12.9874 1 10 1C4.47715 1 0 5.47715 0 11C0 16.5228 4.47715 21 10 21C15.5228 21 20 16.5228 20 11C20 10.5858 19.6642 10.25 19.25 10.25C18.8358 10.25 18.5 10.5858 18.5 11C18.5 15.6944 14.6944 19.5 10 19.5C5.30558 19.5 1.5 15.6944 1.5 11C1.5 6.30558 5.30558 2.5 10 2.5C12.5963 2.5 14.9211 3.66355 16.481 5.5L12.75 5.5C12.3358 5.5 12 5.83579 12 6.25C12 6.66421 12.3358 7 12.75 7L18.25 7C18.6642 7 19 6.66421 19 6.25L19 0.75Z" fill-rule="NONZERO"></path>
 </g>
</svg>