<svg viewBox="0 0 24 24" width="24" height="24" fill="currentColor" xmlns="http://www.w3.org/2000/svg">
 <g transform="translate(2, 1)">
  <path d="M1.75 0C1.33579 0 1 0.335786 1 0.75L1 6.25C1 6.66421 1.33579 7 1.75 7L7.25 7C7.66421 7 8 6.66421 8 6.25C8 5.83579 7.66421 5.5 7.25 5.5L2.5 5.5L2.5 0.75C2.5 0.335786 2.16421 0 1.75 0Z" fill-rule="EVENODD"></path>
  <path d="M10 2.5C14.6944 2.5 18.5 6.30558 18.5 11C18.5 15.6944 14.6944 19.5 10 19.5C5.30558 19.5 1.5 15.6944 1.5 11C1.5 10.5858 1.16421 10.25 0.75 10.25C0.335787 10.25 0 10.5858 0 11C0 16.5228 4.47715 21 10 21C15.5228 21 20 16.5228 20 11C20 5.47715 15.5228 1 10 1C6.52099 1 3.45739 2.77721 1.66712 5.46981C1.43778 5.81474 1.53148 6.28028 1.87641 6.50962C2.22134 6.73896 2.68688 6.64525 2.91622 6.30032C4.44028 4.00811 7.04419 2.5 10 2.5Z" fill-rule="EVENODD"></path>
 </g>
</svg>