<svg viewBox="0 0 16 16" width="16" height="16" fill="black" xmlns="http://www.w3.org/2000/svg">
 <g transform="translate(1, 0)">
  <path d="M7 2.5C3.96243 2.5 1.5 4.96243 1.5 8C1.5 11.0376 3.96243 13.5 7 13.5C10.0376 13.5 12.5 11.0376 12.5 8C12.5 7.58579 12.8358 7.25 13.25 7.25C13.6642 7.25 14 7.58579 14 8C14 11.866 10.866 15 7 15C3.13401 15 0 11.866 0 8C0 4.13401 3.13401 1 7 1C8.9873 1 10.7822 1.82913 12.0555 3.15829C12.342 3.4574 12.3318 3.93216 12.0327 4.2187C11.7336 4.50524 11.2588 4.49504 10.9723 4.19592C9.97021 3.14985 8.56163 2.5 7 2.5Z" fill-rule="EVENODD"></path>
  <path d="M12.25 0C12.6642 0 13 0.335786 13 0.75L13 4.75C13 5.16421 12.6642 5.5 12.25 5.5L8.25 5.5C7.83579 5.5 7.5 5.16421 7.5 4.75C7.5 4.33579 7.83579 4 8.25 4L11.5 4L11.5 0.75C11.5 0.335786 11.8358 0 12.25 0Z" fill-rule="EVENODD"></path>
 </g>
</svg>