<svg viewBox="0 0 16 16" width="16" height="16" fill="black" xmlns="http://www.w3.org/2000/svg">
 <g transform="translate(2, 1)">
  <path d="M0 5.75C0 5.33579 0.335786 5 0.75 5C2.67282 5 4.51689 5.76384 5.87652 7.12348C7.23616 8.48311 8 10.3272 8 12.25C8 12.6642 7.66421 13 7.25 13C6.83579 13 6.5 12.6642 6.5 12.25C6.5 10.725 5.8942 9.26247 4.81586 8.18414C3.73753 7.1058 2.27499 6.5 0.75 6.5C0.335786 6.5 0 6.16421 0 5.75Z" fill-rule="EVENODD"></path>
  <path d="M0 0.75C0 0.335786 0.335786 0 0.75 0C3.9989 0 7.11474 1.29062 9.41206 3.58794C11.7094 5.88526 13 9.0011 13 12.25C13 12.6642 12.6642 13 12.25 13C11.8358 13 11.5 12.6642 11.5 12.25C11.5 9.39892 10.3674 6.66462 8.3514 4.6486C6.33538 2.63259 3.60108 1.5 0.75 1.5C0.335786 1.5 0 1.16421 0 0.75Z" fill-rule="EVENODD"></path>
  <path d="M0 11.5C0 10.6716 0.671573 10 1.5 10C2.32843 10 3 10.6716 3 11.5C3 12.3284 2.32843 13 1.5 13C0.671573 13 0 12.3284 0 11.5Z" fill-rule="EVENODD"></path>
 </g>
</svg>