<svg viewBox="0 0 16 16" width="16" height="16" fill="currentColor" xmlns="http://www.w3.org/2000/svg">
 <g transform="translate(2, 1)">
  <path d="M0.75 0C0.335786 0 0 0.335786 0 0.75C0 1.16421 0.335786 1.5 0.75 1.5C3.60108 1.5 6.33538 2.63259 8.3514 4.6486C10.3674 6.66462 11.5 9.39892 11.5 12.25C11.5 12.6642 11.8358 13 12.25 13C12.6642 13 13 12.6642 13 12.25C13 9.0011 11.7094 5.88526 9.41206 3.58794C7.11474 1.29062 3.9989 0 0.75 0Z" fill-rule="NONZERO"></path>
  <path d="M0.75 5C0.335786 5 0 5.33579 0 5.75C0 6.16421 0.335786 6.5 0.75 6.5C2.27499 6.5 3.73753 7.1058 4.81586 8.18414C5.8942 9.26247 6.5 10.725 6.5 12.25C6.5 12.6642 6.83579 13 7.25 13C7.66421 13 8 12.6642 8 12.25C8 10.3272 7.23616 8.48311 5.87652 7.12348C4.51689 5.76384 2.67282 5 0.75 5Z" fill-rule="NONZERO"></path>
  <path d="M1.5 10C0.671573 10 0 10.6716 0 11.5C0 12.3284 0.671573 13 1.5 13C2.32843 13 3 12.3284 3 11.5C3 10.6716 2.32843 10 1.5 10Z" fill-rule="NONZERO"></path>
 </g>
</svg>