<svg viewBox="0 0 24 24" width="24" height="24" fill="black" xmlns="http://www.w3.org/2000/svg">
 <g transform="translate(3, 3)">
  <path d="M0 7.75C0 7.33579 0.335786 7 0.75 7C3.46847 7 6.0756 8.07991 7.99784 10.0022C9.92009 11.9244 11 14.5315 11 17.25C11 17.6642 10.6642 18 10.25 18C9.83579 18 9.5 17.6642 9.5 17.25C9.5 14.9294 8.57813 12.7038 6.93718 11.0628C5.29624 9.42187 3.07064 8.5 0.75 8.5C0.335786 8.5 0 8.16421 0 7.75Z" fill-rule="EVENODD"></path>
  <path d="M0 0.75C0 0.335786 0.335786 0 0.75 0C5.32498 0 9.71259 1.81741 12.9476 5.05241C16.1826 8.28741 18 12.675 18 17.25C18 17.6642 17.6642 18 17.25 18C16.8358 18 16.5 17.6642 16.5 17.25C16.5 13.0728 14.8406 9.06677 11.8869 6.11307C8.93323 3.15937 4.92716 1.5 0.75 1.5C0.335786 1.5 0 1.16421 0 0.75Z" fill-rule="EVENODD"></path>
  <path d="M0 16C0 14.8954 0.89543 14 2 14C3.10457 14 4 14.8954 4 16C4 17.1046 3.10457 18 2 18C0.895431 18 0 17.1046 0 16Z" fill-rule="EVENODD"></path>
 </g>
</svg>