<svg viewBox="0 0 24 24" width="24" height="24" fill="currentColor" xmlns="http://www.w3.org/2000/svg">
 <g transform="translate(2, 2)">
  <path d="M2.75 0C1.23122 0 0 1.23122 0 2.75L0 17.25C0 18.7688 1.23122 20 2.75 20L17.25 20C18.7688 20 20 18.7688 20 17.25L20 7.07843C20 6.34908 19.7103 5.64961 19.1945 5.13388L14.8661 0.805456C14.3504 0.289731 13.6509 0 12.9216 0L2.75 0ZM2.75 1.5C2.05964 1.5 1.5 2.05964 1.5 2.75L1.5 17.25C1.5 17.9404 2.05964 18.5 2.75 18.5L4 18.5L4 11.75C4 10.7835 4.7835 10 5.75 10L14.25 10C15.2165 10 16 10.7835 16 11.75L16 18.5L17.25 18.5C17.9404 18.5 18.5 17.9404 18.5 17.25L18.5 7.07843C18.5 6.74691 18.3683 6.42896 18.1339 6.19454L13.8055 1.86612C13.571 1.6317 13.2531 1.5 12.9216 1.5L5.5 1.5L5.5 5.25C5.5 5.38807 5.61193 5.5 5.75 5.5L13.25 5.5C13.6642 5.5 14 5.83579 14 6.25C14 6.66421 13.6642 7 13.25 7L5.75 7C4.7835 7 4 6.2165 4 5.25L4 1.5L2.75 1.5ZM5.5 11.75L5.5 18.5L14.5 18.5L14.5 11.75C14.5 11.6119 14.3881 11.5 14.25 11.5L5.75 11.5C5.61193 11.5 5.5 11.6119 5.5 11.75Z" fill-rule="EVENODD"></path>
 </g>
</svg>