<svg viewBox="0 0 24 24" width="24" height="24" fill="black" xmlns="http://www.w3.org/2000/svg">
 <g transform="translate(2.25, 2.25)">
  <path d="M2.75 0C2.02065 0 1.32118 0.289731 0.805456 0.805456C0.289731 1.32118 0 2.02065 0 2.75L0 16.75C0 17.4793 0.289731 18.1788 0.805456 18.6945C1.32118 19.2103 2.02065 19.5 2.75 19.5L16.75 19.5C17.4793 19.5 18.1788 19.2103 18.6945 18.6945C19.2103 18.1788 19.5 17.4793 19.5 16.75L19.5 5.75C19.5 5.55109 19.421 5.36032 19.2803 5.21967L14.2803 0.21967C14.1397 0.0790176 13.9489 0 13.75 0L2.75 0ZM2.75 1.5C2.41848 1.5 2.10054 1.6317 1.86612 1.86612C1.6317 2.10054 1.5 2.41848 1.5 2.75L1.5 16.75C1.5 17.0815 1.6317 17.3995 1.86612 17.6339C2.10054 17.8683 2.41848 18 2.75 18L4 18L4 10.75C4 10.3358 4.33579 10 4.75 10L14.75 10C15.1642 10 15.5 10.3358 15.5 10.75L15.5 18L16.75 18C17.0815 18 17.3995 17.8683 17.6339 17.6339C17.8683 17.3995 18 17.0815 18 16.75L18 6.06066L13.4393 1.5L5.5 1.5L5.5 5L12.75 5C13.1642 5 13.5 5.33579 13.5 5.75C13.5 6.16421 13.1642 6.5 12.75 6.5L4.75 6.5C4.33579 6.5 4 6.16421 4 5.75L4 1.5L2.75 1.5ZM5.5 11.5L5.5 18L14 18L14 11.5L5.5 11.5Z" fill-rule="EVENODD"></path>
 </g>
</svg>