<svg viewBox="0 0 24 24" width="24" height="24" fill="black" xmlns="http://www.w3.org/2000/svg">
 <g transform="translate(2, 2)">
  <path d="M2.75 1.5C2.05964 1.5 1.5 2.05964 1.5 2.75L1.5 17.25C1.5 17.9404 2.05964 18.5 2.75 18.5L17.25 18.5C17.9404 18.5 18.5 17.9404 18.5 17.25L18.5 7.07843C18.5 6.74691 18.3683 6.42896 18.1339 6.19454L13.8055 1.86612C13.571 1.6317 13.2531 1.5 12.9216 1.5L2.75 1.5ZM0 2.75C0 1.23122 1.23122 0 2.75 0L12.9216 0C13.6509 0 14.3504 0.289731 14.8661 0.805456L19.1945 5.13388C19.7103 5.64961 20 6.34908 20 7.07843L20 17.25C20 18.7688 18.7688 20 17.25 20L2.75 20C1.23122 20 0 18.7688 0 17.25L0 2.75Z" fill-rule="EVENODD"></path>
  <path d="M4 11.75C4 10.7835 4.7835 10 5.75 10L14.25 10C15.2165 10 16 10.7835 16 11.75L16 19.25C16 19.6642 15.6642 20 15.25 20C14.8358 20 14.5 19.6642 14.5 19.25L14.5 11.75C14.5 11.6119 14.3881 11.5 14.25 11.5L5.75 11.5C5.61193 11.5 5.5 11.6119 5.5 11.75L5.5 19.25C5.5 19.6642 5.16421 20 4.75 20C4.33579 20 4 19.6642 4 19.25L4 11.75Z" fill-rule="EVENODD"></path>
  <path d="M4.75 0C5.16421 0 5.5 0.335786 5.5 0.75L5.5 5.25C5.5 5.38807 5.61193 5.5 5.75 5.5L13.25 5.5C13.6642 5.5 14 5.83579 14 6.25C14 6.66421 13.6642 7 13.25 7L5.75 7C4.7835 7 4 6.2165 4 5.25L4 0.75C4 0.335786 4.33579 0 4.75 0Z" fill-rule="EVENODD"></path>
 </g>
</svg>