<svg viewBox="0 0 24 24" width="24" height="24" fill="currentColor" xmlns="http://www.w3.org/2000/svg">
 <g transform="translate(2, 2)">
  <path d="M3.5 0C1.567 0 0 1.567 0 3.5C0 5.433 1.567 7 3.5 7C4.23905 7 4.92461 6.77094 5.48953 6.37993L8.83652 9.5L5.48953 12.6201C4.92461 12.2291 4.23905 12 3.5 12C1.567 12 0 13.567 0 15.5C0 17.433 1.567 19 3.5 19C5.433 19 7 17.433 7 15.5C7 14.8489 6.8222 14.2393 6.5125 13.7171L10.4426 10.0535C10.4457 10.0506 10.4489 10.0477 10.452 10.0448L18.7615 2.2986C19.0644 2.01616 19.0811 1.54158 18.7987 1.2386C18.5162 0.935612 18.0416 0.91896 17.7386 1.2014L9.93642 8.47466L6.5125 5.28288C6.8222 4.76071 7 4.15112 7 3.5C7 1.567 5.433 0 3.5 0ZM1.5 3.5C1.5 2.39543 2.39543 1.5 3.5 1.5C4.60457 1.5 5.5 2.39543 5.5 3.5C5.5 4.60457 4.60457 5.5 3.5 5.5C2.39543 5.5 1.5 4.60457 1.5 3.5ZM1.5 15.5C1.5 14.3954 2.39543 13.5 3.5 13.5C4.60457 13.5 5.5 14.3954 5.5 15.5C5.5 16.6046 4.60457 17.5 3.5 17.5C2.39543 17.5 1.5 16.6046 1.5 15.5Z" fill-rule="EVENODD"></path>
  <path d="M18.7627 16.7025C19.065 16.9856 19.0806 17.4603 18.7975 17.7626C18.5144 18.065 18.0398 18.0806 17.7374 17.7975L12.2374 12.6475C11.9351 12.3643 11.9195 11.8897 12.2026 11.5874C12.4857 11.285 12.9603 11.2694 13.2627 11.5525L18.7627 16.7025Z" fill-rule="NONZERO"></path>
 </g>
</svg>