<svg viewBox="0 0 24 24" width="24" height="24" fill="currentColor" xmlns="http://www.w3.org/2000/svg">
 <g transform="translate(2, 2)">
  <path d="M3.5 1.5C2.39543 1.5 1.5 2.39543 1.5 3.5C1.5 4.60457 2.39543 5.5 3.5 5.5C4.60457 5.5 5.5 4.60457 5.5 3.5C5.5 2.39543 4.60457 1.5 3.5 1.5ZM0 3.5C0 1.567 1.567 0 3.5 0C5.433 0 7 1.567 7 3.5C7 5.433 5.433 7 3.5 7C1.567 7 0 5.433 0 3.5Z" fill-rule="EVENODD"></path>
  <path d="M3.5 13.5C2.39543 13.5 1.5 14.3954 1.5 15.5C1.5 16.6046 2.39543 17.5 3.5 17.5C4.60457 17.5 5.5 16.6046 5.5 15.5C5.5 14.3954 4.60457 13.5 3.5 13.5ZM0 15.5C0 13.567 1.567 12 3.5 12C5.433 12 7 13.567 7 15.5C7 17.433 5.433 19 3.5 19C1.567 19 0 17.433 0 15.5Z" fill-rule="EVENODD"></path>
  <path d="M18.7986 1.23859C19.081 1.54158 19.0644 2.01616 18.7614 2.2986L6.15686 14.0486C5.85388 14.331 5.3793 14.3144 5.09685 14.0114C4.81441 13.7084 4.83106 13.2338 5.13405 12.9514L17.7386 1.2014C18.0416 0.918957 18.5162 0.935609 18.7986 1.23859Z" fill-rule="EVENODD"></path>
  <path d="M18.7975 17.7626C19.0806 17.4603 19.065 16.9857 18.7626 16.7025L13.2626 11.5525C12.9603 11.2694 12.4857 11.285 12.2025 11.5874C11.9194 11.8897 11.935 12.3643 12.2374 12.6475L17.7374 17.7975C18.0397 18.0806 18.5143 18.065 18.7975 17.7626ZM10.485 10.0114C10.7674 9.70842 10.7508 9.23384 10.4478 8.9514L6.15686 4.9514C5.85388 4.66896 5.3793 4.68561 5.09685 4.98859C4.81441 5.29158 4.83106 5.76616 5.13405 6.0486L9.42496 10.0486C9.72794 10.331 10.2025 10.3144 10.485 10.0114Z" fill-rule="EVENODD"></path>
 </g>
</svg>