<svg viewBox="0 0 16 16" width="16" height="16" fill="currentColor" xmlns="http://www.w3.org/2000/svg">
 <g transform="translate(2, 2)">
  <path d="M5.25 1.5C3.17893 1.5 1.5 3.17893 1.5 5.25C1.5 7.32107 3.17893 9 5.25 9C7.32107 9 9 7.32107 9 5.25C9 3.17893 7.32107 1.5 5.25 1.5ZM0 5.25C0 2.3505 2.3505 0 5.25 0C8.1495 0 10.5 2.3505 10.5 5.25C10.5 8.1495 8.1495 10.5 5.25 10.5C2.3505 10.5 0 8.1495 0 5.25Z" fill-rule="EVENODD"></path>
  <path d="M7.96967 7.96967C8.26256 7.67678 8.73744 7.67678 9.03033 7.96967L11.7803 10.7197C12.0732 11.0126 12.0732 11.4874 11.7803 11.7803C11.4874 12.0732 11.0126 12.0732 10.7197 11.7803L7.96967 9.03033C7.67678 8.73744 7.67678 8.26256 7.96967 7.96967Z" fill-rule="EVENODD"></path>
 </g>
</svg>