<svg viewBox="0 0 24 24" width="24" height="24" fill="black" xmlns="http://www.w3.org/2000/svg">
 <g transform="translate(2.36895751953125, 2.93359375)">
  <path d="M18.5858 2.35877C19.1019 0.957883 17.7396 -0.404434 16.3387 0.111686L1.14538 5.70922C-0.173275 6.19504 -0.410343 7.95854 0.733197 8.77535L6.05948 12.5798C6.08193 12.5959 6.10157 12.6155 6.11761 12.638L9.9221 17.9643C10.7389 19.1078 12.5024 18.8707 12.9882 17.5521L18.5858 2.35877ZM16.8572 1.5192C17.0574 1.44547 17.252 1.64008 17.1782 1.84021L11.5807 17.0335C11.5113 17.2219 11.2594 17.2558 11.1427 17.0924L7.61062 12.1475L13.1614 6.59674C13.4543 6.30384 13.4543 5.82897 13.1614 5.53608C12.8685 5.24318 12.3936 5.24318 12.1007 5.53608L6.54996 11.0868L1.60505 7.55475C1.44169 7.43806 1.47556 7.18614 1.66394 7.11673L16.8572 1.5192Z" fill-rule="EVENODD"></path>
 </g>
</svg>