<svg viewBox="0 0 16 16" width="16" height="16" fill="currentColor" xmlns="http://www.w3.org/2000/svg">
 <g transform="translate(1.0594482421875, 0.8408203125)">
  <path d="M14.0198 1.68484C14.3885 0.684198 13.4154 -0.28888 12.4148 0.0797754L0.818128 4.35223C-0.123766 4.69924 -0.293104 5.95888 0.523712 6.54232L4.59273 9.44876C4.61518 9.4648 4.63482 9.48444 4.65085 9.50689L7.55729 13.5759C8.14073 14.3927 9.40038 14.2234 9.74739 13.2815L14.0198 1.68484ZM1.78009 5.59638L12.4251 1.67455L8.50323 12.3195L6.11439 8.97514L9.18558 5.90396C9.45894 5.63059 9.45894 5.18738 9.18558 4.91401C8.91221 4.64064 8.46899 4.64064 8.19563 4.91401L5.12444 7.9852L1.78009 5.59638Z" fill-rule="EVENODD"></path>
 </g>
</svg>