<svg viewBox="0 0 16 16" width="16" height="16" fill="currentColor" xmlns="http://www.w3.org/2000/svg">
 <g transform="translate(0, 0)">
  <path d="M3 3.25C3 2.83579 3.33579 2.5 3.75 2.5L4.25 2.5C4.66421 2.5 5 2.83579 5 3.25C5 3.66421 4.66421 4 4.25 4L3.75 4C3.33579 4 3 3.66421 3 3.25Z" fill-rule="NONZERO"></path>
  <path d="M2.25 0C1.00736 0 0 1.00736 0 2.25L0 4.75C0 5.99264 1.00736 7 2.25 7L13.75 7C14.9926 7 16 5.99264 16 4.75L16 2.25C16 1.00736 14.9926 0 13.75 0L2.25 0ZM1.5 2.25C1.5 1.83579 1.83579 1.5 2.25 1.5L13.75 1.5C14.1642 1.5 14.5 1.83579 14.5 2.25L14.5 4.75C14.5 5.16421 14.1642 5.5 13.75 5.5L2.25 5.5C1.83579 5.5 1.5 5.16421 1.5 4.75L1.5 2.25Z" fill-rule="EVENODD"></path>
  <path d="M3.75 11.5C3.33579 11.5 3 11.8358 3 12.25C3 12.6642 3.33579 13 3.75 13L4.25 13C4.66421 13 5 12.6642 5 12.25C5 11.8358 4.66421 11.5 4.25 11.5L3.75 11.5Z" fill-rule="NONZERO"></path>
  <path d="M2.25 9C1.00736 9 0 10.0074 0 11.25L0 13.75C0 14.9926 1.00736 16 2.25 16L13.75 16C14.9926 16 16 14.9926 16 13.75L16 11.25C16 10.0074 14.9926 9 13.75 9L2.25 9ZM1.5 11.25C1.5 10.8358 1.83579 10.5 2.25 10.5L13.75 10.5C14.1642 10.5 14.5 10.8358 14.5 11.25L14.5 13.75C14.5 14.1642 14.1642 14.5 13.75 14.5L2.25 14.5C1.83579 14.5 1.5 14.1642 1.5 13.75L1.5 11.25Z" fill-rule="EVENODD"></path>
 </g>
</svg>