<svg viewBox="0 0 24 24" width="24" height="24" fill="black" xmlns="http://www.w3.org/2000/svg">
 <g transform="translate(1, 1)">
  <path d="M0 2.75C0 1.23122 1.23122 0 2.75 0L19.25 0C20.7688 0 22 1.23122 22 2.75L22 7.25C22 8.76878 20.7688 10 19.25 10L2.75 10C1.23122 10 0 8.76878 0 7.25L0 2.75ZM2.75 1.5C2.05964 1.5 1.5 2.05964 1.5 2.75L1.5 7.25C1.5 7.94036 2.05964 8.5 2.75 8.5L19.25 8.5C19.9404 8.5 20.5 7.94036 20.5 7.25L20.5 2.75C20.5 2.05964 19.9404 1.5 19.25 1.5L2.75 1.5Z" fill-rule="EVENODD"></path>
  <path d="M0 14.75C0 13.2312 1.23122 12 2.75 12L19.25 12C20.7688 12 22 13.2312 22 14.75L22 19.25C22 20.7688 20.7688 22 19.25 22L2.75 22C1.23122 22 0 20.7688 0 19.25L0 14.75ZM2.75 13.5C2.05964 13.5 1.5 14.0596 1.5 14.75L1.5 19.25C1.5 19.9404 2.05964 20.5 2.75 20.5L19.25 20.5C19.9404 20.5 20.5 19.9404 20.5 19.25L20.5 14.75C20.5 14.0596 19.9404 13.5 19.25 13.5L2.75 13.5Z" fill-rule="EVENODD"></path>
  <path d="M4 4.75C4 4.33579 4.33579 4 4.75 4L5.25 4C5.66421 4 6 4.33579 6 4.75C6 5.16421 5.66421 5.5 5.25 5.5L4.75 5.5C4.33579 5.5 4 5.16421 4 4.75Z" fill-rule="EVENODD"></path>
  <path d="M4 16.75C4 16.3358 4.33579 16 4.75 16L5.25 16C5.66421 16 6 16.3358 6 16.75C6 17.1642 5.66421 17.5 5.25 17.5L4.75 17.5C4.33579 17.5 4 17.1642 4 16.75Z" fill-rule="EVENODD"></path>
 </g>
</svg>