<svg viewBox="0 0 16 16" width="16" height="16" fill="currentColor" xmlns="http://www.w3.org/2000/svg">
 <g transform="translate(0, 0)">
  <path d="M6 1.75C6 0.783501 6.7835 0 7.75 0L8.25 0C9.2165 0 10 0.783502 10 1.75L10 1.81371C10.3326 1.92116 10.6534 2.05465 10.96 2.21172L11.0052 2.16652C11.6886 1.4831 12.7967 1.48311 13.4801 2.16652L13.8336 2.52008C14.5171 3.20349 14.5171 4.31153 13.8336 4.99495L13.7884 5.0402C13.9454 5.34675 14.0789 5.66749 14.1863 6L14.25 6C15.2165 6 16 6.7835 16 7.75L16 8.25C16 9.2165 15.2165 10 14.25 10L14.1863 10C14.0788 10.3326 13.9454 10.6534 13.7883 10.96L13.8336 11.0054C14.517 11.6888 14.517 12.7968 13.8336 13.4802L13.4801 13.8338C12.7967 14.5172 11.6886 14.5172 11.0052 13.8338L10.9598 13.7884C10.6533 13.9454 10.3325 14.0789 10 14.1863L10 14.25C10 15.2165 9.2165 16 8.25 16L7.75 16C6.7835 16 6 15.2165 6 14.25L6 14.1863C5.66749 14.0789 5.34675 13.9454 5.0402 13.7884L4.9948 13.8338C4.31138 14.5172 3.20334 14.5172 2.51993 13.8338L2.16637 13.4802C1.48296 12.7968 1.48296 11.6888 2.16637 11.0054L2.21172 10.96C2.05465 10.6534 1.92116 10.3326 1.81371 10L1.75 10C0.783501 10 0 9.2165 0 8.25L0 7.75C0 6.7835 0.783502 6 1.75 6L1.81371 6C1.92114 5.66749 2.05459 5.34675 2.21162 5.0402L2.16636 4.99495C1.48295 4.31153 1.48295 3.20349 2.16636 2.52008L2.51992 2.16652C3.20334 1.48311 4.31137 1.4831 4.99479 2.16652L5.03999 2.21172C5.3466 2.05465 5.66741 1.92116 6 1.81371L6 1.75ZM7.75 1.5C7.61193 1.5 7.5 1.61193 7.5 1.75L7.5 2.38625C7.5 2.73792 7.25565 3.04237 6.91232 3.11848C6.33751 3.2459 5.79973 3.47242 5.31762 3.77956C5.02103 3.96852 4.63297 3.92602 4.3843 3.67736L3.93413 3.22718C3.8365 3.12955 3.67821 3.12955 3.58058 3.22718L3.22702 3.58074C3.12939 3.67837 3.12939 3.83666 3.22702 3.93429L3.67723 4.3845C3.92589 4.63316 3.96839 5.0212 3.77945 5.31779C3.47236 5.79985 3.24589 6.33758 3.11848 6.91232C3.04237 7.25565 2.73792 7.5 2.38625 7.5L1.75 7.5C1.61193 7.5 1.5 7.61193 1.5 7.75L1.5 8.25C1.5 8.38807 1.61193 8.5 1.75 8.5L2.38625 8.5C2.73792 8.5 3.04237 8.74435 3.11848 9.08768C3.2459 9.66249 3.47242 10.2003 3.77956 10.6824C3.96852 10.979 3.92602 11.367 3.67736 11.6157L3.22703 12.066C3.1294 12.1636 3.1294 12.3219 3.22703 12.4196L3.58059 12.7731C3.67822 12.8708 3.83651 12.8708 3.93414 12.7731L4.3845 12.3228C4.63316 12.0741 5.0212 12.0316 5.31779 12.2205C5.79985 12.5276 6.33758 12.7541 6.91232 12.8815C7.25565 12.9576 7.5 13.2621 7.5 13.6137L7.5 14.25C7.5 14.3881 7.61193 14.5 7.75 14.5L8.25 14.5C8.38807 14.5 8.5 14.3881 8.5 14.25L8.5 13.6137C8.5 13.2621 8.74435 12.9576 9.08768 12.8815C9.66242 12.7541 10.2001 12.5276 10.6822 12.2205C10.9788 12.0316 11.3668 12.0741 11.6155 12.3228L12.0659 12.7731C12.1635 12.8708 12.3218 12.8708 12.4194 12.7731L12.773 12.4196C12.8706 12.3219 12.8706 12.1636 12.773 12.066L12.3226 11.6157C12.074 11.367 12.0315 10.979 12.2204 10.6824C12.5276 10.2003 12.7541 9.66249 12.8815 9.08768C12.9576 8.74435 13.2621 8.5 13.6137 8.5L14.25 8.5C14.3881 8.5 14.5 8.38807 14.5 8.25L14.5 7.75C14.5 7.61193 14.3881 7.5 14.25 7.5L13.6137 7.5C13.2621 7.5 12.9576 7.25565 12.8815 6.91232C12.7541 6.33758 12.5276 5.79985 12.2205 5.31779C12.0316 5.0212 12.0741 4.63316 12.3228 4.3845L12.773 3.93429C12.8706 3.83666 12.8706 3.67837 12.773 3.58074L12.4194 3.22718C12.3218 3.12955 12.1635 3.12955 12.0659 3.22718L11.6157 3.67736C11.367 3.92602 10.979 3.96852 10.6824 3.77956C10.2003 3.47242 9.66249 3.2459 9.08768 3.11848C8.74435 3.04237 8.5 2.73792 8.5 2.38625L8.5 1.75C8.5 1.61193 8.38807 1.5 8.25 1.5L7.75 1.5Z" fill-rule="EVENODD"></path>
  <path d="M8 6.5C7.17157 6.5 6.5 7.17157 6.5 8C6.5 8.82843 7.17157 9.5 8 9.5C8.82843 9.5 9.5 8.82843 9.5 8C9.5 7.17157 8.82843 6.5 8 6.5ZM5 8C5 6.34315 6.34315 5 8 5C9.65685 5 11 6.34315 11 8C11 9.65685 9.65685 11 8 11C6.34315 11 5 9.65685 5 8Z" fill-rule="EVENODD"></path>
 </g>
</svg>