<svg viewBox="0 0 16 16" width="16" height="16" fill="black" xmlns="http://www.w3.org/2000/svg">
 <g transform="translate(0.29998779296875, 0.2998046875)">
  <path d="M7.7 5C6.20883 5 5 6.20883 5 7.7C5 9.19117 6.20883 10.4 7.7 10.4C9.19117 10.4 10.4 9.19117 10.4 7.7C10.4 6.20883 9.19117 5 7.7 5ZM6.4 7.7C6.4 6.98203 6.98203 6.4 7.7 6.4C8.41797 6.4 9 6.98203 9 7.7C9 8.41797 8.41797 9 7.7 9C6.98203 9 6.4 8.41797 6.4 7.7Z" fill-rule="EVENODD"></path>
  <path d="M7.30001 0C6.36113 0 5.60001 0.761117 5.60001 1.7L5.60001 1.75873C5.3922 1.83218 5.18941 1.91621 4.99231 2.01016L4.9485 1.96635C4.28461 1.30245 3.20823 1.30245 2.54434 1.96635L1.96607 2.54461C1.30218 3.2085 1.30218 4.28488 1.96607 4.94877L2.00997 4.99267C1.91609 5.18967 1.83211 5.39234 1.75869 5.60004L1.7 5.60004C0.761117 5.60004 0 6.36116 0 7.30004L0 8.10004C0 9.03893 0.761117 9.80004 1.7 9.80004L1.75869 9.80004C1.83196 10.0073 1.91575 10.2096 2.00941 10.4062L1.96507 10.4506C1.30118 11.1145 1.30118 12.1909 1.96507 12.8548L2.54528 13.435C3.20917 14.0989 4.28555 14.0989 4.94945 13.435L4.99378 13.3906C5.19042 13.4843 5.39271 13.5681 5.60001 13.6414L5.60001 13.7C5.60001 14.6389 6.36112 15.4 7.30001 15.4L8.10001 15.4C9.03889 15.4 9.80001 14.6389 9.80001 13.7L9.80001 13.6414C10.0077 13.5679 10.2104 13.484 10.4074 13.3901L10.4514 13.4341C11.1152 14.0979 12.1916 14.0979 12.8555 13.4341L13.4338 12.8558C14.0977 12.1919 14.0977 11.1155 13.4338 10.4516L13.3899 10.4077C13.4838 10.2106 13.5679 10.0079 13.6413 9.80004L13.7 9.80004C14.6389 9.80004 15.4 9.03893 15.4 8.10004L15.4 7.30004C15.4 6.36116 14.6389 5.60004 13.7 5.60004L13.6413 5.60004C13.5681 5.39275 13.4843 5.19045 13.3906 4.99381L13.4347 4.94968C14.0986 4.28579 14.0986 3.20941 13.4347 2.54552L12.8545 1.96531C12.1906 1.30142 11.1142 1.30142 10.4504 1.96531L10.4062 2.00945C10.2096 1.91579 10.0073 1.832 9.80001 1.75873L9.80001 1.7C9.80001 0.761117 9.0389 0 8.10001 0L7.30001 0ZM7.00001 1.7C7.00001 1.53431 7.13433 1.4 7.30001 1.4L8.10001 1.4C8.2657 1.4 8.40001 1.53431 8.40001 1.7L8.40001 2.27647C8.40001 2.59587 8.61621 2.87476 8.92553 2.95437C9.37148 3.06915 9.79299 3.24524 10.1807 3.47332C10.4556 3.63506 10.8051 3.59051 11.0306 3.36497L11.4403 2.95526C11.5575 2.8381 11.7474 2.8381 11.8646 2.95526L12.4448 3.53547C12.5619 3.65262 12.5619 3.84257 12.4448 3.95973L12.0351 4.36944C11.8095 4.59498 11.765 4.94447 11.9267 5.21938C12.1548 5.60705 12.3309 6.02857 12.4457 6.47452C12.5253 6.78384 12.8042 7.00004 13.1236 7.00004L13.7 7.00004C13.8657 7.00004 14 7.13436 14 7.30004L14 8.10004C14 8.26573 13.8657 8.40004 13.7 8.40004L13.1236 8.40004C12.8042 8.40004 12.5253 8.61624 12.4457 8.92556C12.3308 9.37197 12.1544 9.7939 11.926 10.1819C11.7642 10.4568 11.8087 10.8064 12.0343 11.032L12.4438 11.4416C12.561 11.5587 12.561 11.7487 12.4438 11.8658L11.8656 12.4441C11.7484 12.5613 11.5585 12.5613 11.4413 12.4441L11.0317 12.0345C10.8061 11.8089 10.4565 11.7644 10.1816 11.9262C9.79368 12.1546 9.37184 12.3308 8.92553 12.4457C8.61621 12.5253 8.40001 12.8042 8.40001 13.1236L8.40001 13.7C8.40001 13.8657 8.2657 14 8.10001 14L7.30001 14C7.13433 14 7.00001 13.8657 7.00001 13.7L7.00001 13.1236C7.00001 12.8042 6.78381 12.5253 6.47449 12.4457C6.02854 12.3309 5.60701 12.1548 5.21935 11.9268C4.94444 11.765 4.59495 11.8096 4.36941 12.0351L3.9595 12.445C3.84234 12.5622 3.65239 12.5622 3.53523 12.445L2.95502 11.8648C2.83787 11.7476 2.83787 11.5577 2.95502 11.4405L3.36494 11.0306C3.59048 10.8051 3.63503 10.4556 3.47329 10.1807C3.24521 9.79302 3.06912 9.37151 2.95434 8.92556C2.87473 8.61624 2.59583 8.40004 2.27643 8.40004L1.7 8.40004C1.53431 8.40004 1.4 8.26573 1.4 8.10004L1.4 7.30004C1.4 7.13436 1.53431 7.00004 1.7 7.00004L2.27643 7.00004C2.59583 7.00004 2.87473 6.78384 2.95434 6.47452C3.06921 6.02821 3.2455 5.60637 3.47385 5.21845C3.63568 4.94353 3.59116 4.59396 3.36558 4.36838L2.95602 3.95882C2.83887 3.84167 2.83887 3.65172 2.95602 3.53456L3.53429 2.9563C3.65144 2.83914 3.84139 2.83914 3.95855 2.9563L4.36804 3.36579C4.59363 3.59138 4.94323 3.63589 5.21815 3.47403C5.60615 3.24561 6.02808 3.06927 6.47449 2.95437C6.78381 2.87476 7.00001 2.59587 7.00001 2.27647L7.00001 1.7Z" fill-rule="EVENODD"></path>
 </g>
</svg>