<svg viewBox="0 0 24 24" width="24" height="24" fill="currentColor" xmlns="http://www.w3.org/2000/svg">
 <g transform="translate(1, 1)">
  <path d="M11 7C8.79086 7 7 8.79086 7 11C7 13.2091 8.79086 15 11 15C13.2091 15 15 13.2091 15 11C15 8.79086 13.2091 7 11 7ZM8.5 11C8.5 9.61929 9.61929 8.5 11 8.5C12.3807 8.5 13.5 9.61929 13.5 11C13.5 12.3807 12.3807 13.5 11 13.5C9.61929 13.5 8.5 12.3807 8.5 11Z" fill-rule="EVENODD"></path>
  <path d="M10.5 0C9.25736 0 8.25 1.00736 8.25 2.25L8.25 2.4281C7.77619 2.57999 7.31954 2.77003 6.88368 2.99456L6.75734 2.86822C5.87866 1.98954 4.45404 1.98954 3.57536 2.86822L2.86825 3.57533C1.98957 4.45401 1.98957 5.87863 2.86825 6.75731L2.99458 6.88364C2.77005 7.31951 2.58 7.77617 2.4281 8.25L2.25 8.25C1.00736 8.25 0 9.25736 0 10.5L0 11.5C0 12.7426 1.00736 13.75 2.25 13.75L2.4281 13.75C2.57999 14.2238 2.77003 14.6805 2.99455 15.1163L2.86826 15.2426C1.98958 16.1213 1.98958 17.5459 2.86826 18.4246L3.57537 19.1317C4.45405 20.0104 5.87867 20.0104 6.75735 19.1317L6.88362 19.0054C7.31949 19.2299 7.77617 19.42 8.25 19.5719L8.25 19.75C8.25 20.9926 9.25736 22 10.5 22L11.5 22C12.7426 22 13.75 20.9926 13.75 19.75L13.75 19.5719C14.2238 19.42 14.6805 19.23 15.1164 19.0054L15.2426 19.1317C16.1213 20.0104 17.5459 20.0104 18.4246 19.1317L19.1317 18.4246C20.0104 17.5459 20.0104 16.1213 19.1317 15.2426L19.0054 15.1163C19.23 14.6805 19.42 14.2238 19.5719 13.75L19.75 13.75C20.9926 13.75 22 12.7426 22 11.5L22 10.5C22 9.25736 20.9926 8.25 19.75 8.25L19.5719 8.25C19.42 7.77617 19.2299 7.31949 19.0054 6.88362L19.1317 6.75731C20.0104 5.87863 20.0104 4.45401 19.1317 3.57533L18.4246 2.86822C17.5459 1.98954 16.1213 1.98954 15.2426 2.86822L15.1163 2.99455C14.6804 2.77003 14.2238 2.57999 13.75 2.4281L13.75 2.25C13.75 1.00736 12.7426 0 11.5 0L10.5 0ZM9.75 2.25C9.75 1.83579 10.0858 1.5 10.5 1.5L11.5 1.5C11.9142 1.5 12.25 1.83579 12.25 2.25L12.25 2.99409C12.25 3.3385 12.4846 3.63864 12.8188 3.72186C13.5468 3.90314 14.2329 4.19091 14.8597 4.56794C15.1549 4.74548 15.533 4.69914 15.7766 4.45557L16.3033 3.92888C16.5962 3.63599 17.0711 3.63599 17.3639 3.92888L18.0711 4.63599C18.3639 4.92888 18.3639 5.40375 18.0711 5.69665L17.5444 6.22332C17.3008 6.46689 17.2545 6.84506 17.432 7.14024C17.8091 7.76707 18.0969 8.45319 18.2781 9.18122C18.3614 9.51543 18.6615 9.75 19.0059 9.75L19.75 9.75C20.1642 9.75 20.5 10.0858 20.5 10.5L20.5 11.5C20.5 11.9142 20.1642 12.25 19.75 12.25L19.0059 12.25C18.6615 12.25 18.3614 12.4846 18.2781 12.8188C18.0969 13.5468 17.8091 14.2329 17.4321 14.8597C17.2545 15.1549 17.3008 15.533 17.5444 15.7766L18.071 16.3032C18.3639 16.5961 18.3639 17.071 18.071 17.3639L17.3639 18.071C17.071 18.3639 16.5962 18.3639 16.3033 18.071L15.7767 17.5444C15.5331 17.3008 15.1549 17.2545 14.8597 17.432C14.2329 17.8091 13.5468 18.0969 12.8188 18.2781C12.4846 18.3614 12.25 18.6615 12.25 19.0059L12.25 19.75C12.25 20.1642 11.9142 20.5 11.5 20.5L10.5 20.5C10.0858 20.5 9.75 20.1642 9.75 19.75L9.75 19.0059C9.75 18.6615 9.51543 18.3614 9.18122 18.2781C8.45319 18.0969 7.76707 17.8091 7.14024 17.432C6.84506 17.2545 6.46689 17.3008 6.22332 17.5444L5.69669 18.071C5.40379 18.3639 4.92892 18.3639 4.63603 18.071L3.92892 17.3639C3.63603 17.071 3.63603 16.5961 3.92892 16.3032L4.45557 15.7766C4.69914 15.533 4.74548 15.1549 4.56794 14.8597C4.19091 14.2329 3.90314 13.5468 3.72186 12.8188C3.63864 12.4846 3.3385 12.25 2.99409 12.25L2.25 12.25C1.83579 12.25 1.5 11.9142 1.5 11.5L1.5 10.5C1.5 10.0858 1.83579 9.75 2.25 9.75L2.99409 9.75C3.3385 9.75 3.63864 9.51543 3.72186 9.18122C3.90314 8.4532 4.19093 7.76708 4.56797 7.14025C4.74552 6.84508 4.69918 6.46691 4.45561 6.22334L3.92891 5.69665C3.63602 5.40375 3.63602 4.92888 3.92891 4.63599L4.63602 3.92888C4.92892 3.63599 5.40379 3.63599 5.69668 3.92888L6.22338 4.45558C6.46695 4.69915 6.84512 4.74549 7.14029 4.56795C7.76711 4.19092 8.45321 3.90314 9.18122 3.72186C9.51543 3.63864 9.75 3.3385 9.75 2.99409L9.75 2.25Z" fill-rule="EVENODD"></path>
 </g>
</svg>