<svg viewBox="0 0 16 16" width="16" height="16" fill="black" xmlns="http://www.w3.org/2000/svg">
 <g transform="translate(2, 1)">
  <path d="M0 8.25024C0 7.0076 1.00736 6.00024 2.25 6.00024L3 6.00024C3.41421 6.00024 3.75 6.33603 3.75 6.75024C3.75 7.16445 3.41421 7.50024 3 7.50024L2.25 7.50024C1.83579 7.50024 1.5 7.83603 1.5 8.25024L1.5 11.75C1.5 12.1642 1.83579 12.5 2.25 12.5L9.75 12.5C10.1642 12.5 10.5 12.1642 10.5 11.75L10.5 8.25024C10.5 7.83603 10.1642 7.50024 9.75 7.50024L9 7.50024C8.58579 7.50024 8.25 7.16445 8.25 6.75024C8.25 6.33603 8.58579 6.00024 9 6.00024L9.75 6.00024C10.9926 6.00024 12 7.0076 12 8.25024L12 11.75C12 12.9926 10.9926 14 9.75 14L2.25 14C1.00736 14 0 12.9926 0 11.75L0 8.25024Z" fill-rule="EVENODD"></path>
  <path d="M6 0.5C6.41421 0.5 6.75 0.835786 6.75 1.25L6.75 9.25C6.75 9.66421 6.41421 10 6 10C5.58579 10 5.25 9.66421 5.25 9.25L5.25 1.25C5.25 0.835786 5.58579 0.5 6 0.5Z" fill-rule="EVENODD"></path>
  <path d="M2.23966 4.7996C2.54319 5.08145 3.01774 5.06387 3.2996 4.76034L6 1.85221L8.70041 4.76034C8.98226 5.06387 9.45681 5.08145 9.76034 4.7996C10.0639 4.51774 10.0814 4.04319 9.7996 3.73966L6.54959 0.239662C6.40769 0.0868363 6.20855 0 6 0C5.79145 0 5.59231 0.0868363 5.45041 0.239662L2.2004 3.73966C1.91855 4.04319 1.93613 4.51774 2.23966 4.7996Z" fill-rule="EVENODD"></path>
 </g>
</svg>