<svg viewBox="0 0 16 16" width="16" height="16" fill="currentColor" xmlns="http://www.w3.org/2000/svg">
 <g transform="translate(2, 0.9999966621398926)">
  <path d="M3.2996 4.76034C3.01775 5.06387 2.5432 5.08145 2.23966 4.7996C1.93613 4.51774 1.91856 4.04319 2.20041 3.73966L5.45041 0.239662C5.59232 0.0868363 5.79145 0 6 0C6.20856 0 6.40769 0.0868363 6.5496 0.239662L9.7996 3.73966C10.0815 4.04319 10.0639 4.51774 9.76034 4.7996C9.45681 5.08145 8.98226 5.06387 8.70041 4.76034L6.75 2.6599L6.75 9.25C6.75 9.66422 6.41421 10 6 10C5.58579 10 5.25 9.66422 5.25 9.25L5.25 2.65991L3.2996 4.76034Z" fill-rule="NONZERO"></path>
  <path d="M0 8.25C0 7.00736 1.00736 6 2.25 6L3 6C3.41421 6 3.75 6.33579 3.75 6.75C3.75 7.16422 3.41421 7.5 3 7.5L2.25 7.5C1.83579 7.5 1.5 7.83579 1.5 8.25L1.5 11.7498C1.5 12.164 1.83579 12.4998 2.25 12.4998L9.75 12.4998C10.1642 12.4998 10.5 12.164 10.5 11.7498L10.5 8.25C10.5 7.83579 10.1642 7.5 9.75 7.5L9 7.5C8.58579 7.5 8.25 7.16422 8.25 6.75C8.25 6.33579 8.58579 6 9 6L9.75 6C10.9926 6 12 7.00736 12 8.25L12 11.7498C12 12.9924 10.9926 13.9998 9.75 13.9998L2.25 13.9998C1.00736 13.9998 0 12.9924 0 11.7498L0 8.25Z" fill-rule="NONZERO"></path>
 </g>
</svg>