<svg viewBox="0 0 16 16" width="16" height="16" fill="currentColor" xmlns="http://www.w3.org/2000/svg">
 <g transform="translate(0.5, 0.08837890625)">
  <path d="M8.2395 0.124997C7.76059 -0.0416654 7.23941 -0.0416658 6.7605 0.124997L5.53353 0.551981C5.14233 0.68812 4.93556 1.11561 5.0717 1.50682C5.20784 1.89802 5.63533 2.10479 6.02653 1.96865L7.2535 1.54167C7.41314 1.48611 7.58686 1.48611 7.7465 1.54167L12.4965 3.19467C12.798 3.29958 13 3.5838 13 3.903L13 7.91177C13 8.24685 12.9556 8.57373 12.8734 8.89273C12.77 9.29384 13.0113 9.7028 13.4125 9.80618C13.8136 9.90955 14.2225 9.66819 14.3259 9.26708C14.4376 8.83364 14.5 8.38099 14.5 7.91177L14.5 3.903C14.5 2.9454 13.8939 2.09273 12.9895 1.778L8.2395 0.124997Z" fill-rule="NONZERO"></path>
  <path d="M0.946709 2.41899L0.21967 1.69195C-0.0732233 1.39906 -0.0732233 0.924184 0.21967 0.631291C0.512563 0.338398 0.987437 0.338398 1.28033 0.631291L14.7803 14.1313C15.0732 14.4242 15.0732 14.8991 14.7803 15.192C14.4874 15.4848 14.0126 15.4848 13.7197 15.192L11.7319 13.2042C10.5315 14.3024 9.2267 15.0906 8.47829 15.5007C7.86751 15.8355 7.13559 15.8371 6.52314 15.5015C5.70722 15.0544 4.23174 14.1591 2.95054 12.9037C1.68107 11.6597 0.5 9.96033 0.5 7.91177L0.5 3.63088C0.5 3.17589 0.664884 2.74945 0.946709 2.41899ZM2.02511 3.49739C2.00881 3.53911 2 3.58423 2 3.63088L2 7.91177C2 9.36779 2.84728 10.7024 4.00037 11.8323C5.14173 12.9507 6.48302 13.7691 7.24394 14.1861C7.40568 14.2747 7.594 14.2749 7.75736 14.1854C8.44732 13.8072 9.61045 13.1011 10.6701 12.1424L2.02511 3.49739Z" fill-rule="EVENODD"></path>
 </g>
</svg>