<svg viewBox="0 0 16 16" width="16" height="16" fill="black" xmlns="http://www.w3.org/2000/svg">
 <g transform="translate(0.5, 0.08823306858539581)">
  <path d="M6.7605 0.124997C7.23941 -0.0416658 7.76059 -0.0416654 8.2395 0.124997L12.9895 1.778C13.8939 2.09273 14.5 2.9454 14.5 3.903L14.5 7.91177C14.5 8.38099 14.4376 8.83364 14.3259 9.26708C14.2225 9.66819 13.8136 9.90955 13.4125 9.80618C13.0113 9.7028 12.77 9.29384 12.8734 8.89273C12.9556 8.57373 13 8.24685 13 7.91177L13 3.903C13 3.5838 12.798 3.29958 12.4965 3.19467L7.7465 1.54167C7.58686 1.48611 7.41314 1.48611 7.2535 1.54167L6.02653 1.96865C5.63533 2.10479 5.20784 1.89802 5.0717 1.50682C4.93556 1.11561 5.14233 0.68812 5.53353 0.551981L6.7605 0.124997ZM2.2465 3.2841C2.09891 3.33546 2 3.47461 2 3.63088L2 7.91177C2 9.36779 2.84728 10.7024 4.00037 11.8323C5.14173 12.9507 6.48302 13.7691 7.24394 14.1861C7.40568 14.2747 7.594 14.2749 7.75736 14.1854C8.54782 13.7521 9.95937 12.8884 11.1248 11.7076C11.4158 11.4128 11.8907 11.4096 12.1855 11.7006C12.4803 11.9916 12.4834 12.4664 12.1924 12.7612C10.8795 14.0916 9.3238 15.0373 8.47829 15.5007C7.8675 15.8355 7.13559 15.8371 6.52314 15.5015C5.70722 15.0544 4.23174 14.1591 2.95054 12.9037C1.68107 11.6597 0.5 9.96033 0.5 7.91177L0.5 3.63088C0.5 2.83621 1.00298 2.12861 1.7535 1.86743L2.2465 3.2841Z" fill-rule="EVENODD"></path>
  <path d="M0.21967 0.631437C0.512563 0.338544 0.987437 0.338544 1.28033 0.631437L14.7803 14.1314C15.0732 14.4243 15.0732 14.8992 14.7803 15.1921C14.4874 15.485 14.0126 15.485 13.7197 15.1921L0.21967 1.6921C-0.0732233 1.3992 -0.0732233 0.92433 0.21967 0.631437Z" fill-rule="EVENODD"></path>
 </g>
</svg>