<svg viewBox="0 0 24 24" width="24" height="24" fill="currentColor" xmlns="http://www.w3.org/2000/svg">
 <g transform="translate(1, 1)">
  <path d="M10.0395 0.307584C10.659 0.0766842 11.341 0.0766843 11.9605 0.307584L18.2105 2.63713C19.2865 3.03819 20 4.06562 20 5.21395L20 11C20 11.7161 19.8992 12.4047 19.7205 13.0617C19.6119 13.4615 19.1997 13.6974 18.8 13.5887C18.4003 13.48 18.1644 13.0679 18.2731 12.6682C18.4193 12.1302 18.5 11.5739 18.5 11L18.5 5.21395C18.5 4.69199 18.1757 4.22497 17.6866 4.04267L11.4366 1.71312C11.155 1.60817 10.845 1.60817 10.5634 1.71312L8.26194 2.57095C7.87381 2.71562 7.4419 2.51825 7.29723 2.13012C7.15256 1.74199 7.34993 1.31008 7.73806 1.16541L10.0395 0.307584ZM3.78571 4.23937C3.61392 4.3034 3.5 4.46743 3.5 4.65076L3.5 11C3.5 13.1823 4.67243 15.1358 6.19343 16.7437C7.70705 18.3438 9.48677 19.5163 10.5162 20.1244C10.8185 20.3029 11.1817 20.3029 11.4868 20.1226C12.6133 19.4569 14.6254 18.1226 16.211 16.298C16.4826 15.9853 16.9563 15.9521 17.269 16.2238C17.5817 16.4955 17.6149 16.9692 17.3432 17.2818C15.6044 19.2829 13.4348 20.7138 12.2499 21.414C11.477 21.8707 10.5292 21.8742 9.75332 21.4159C8.66594 20.7736 6.75328 19.5183 5.10373 17.7745C3.46155 16.0385 2 13.7321 2 11L2 4.65076C2 3.84107 2.50312 3.11662 3.26182 2.83383L3.78571 4.23937Z" fill-rule="EVENODD"></path>
  <path d="M0.21967 0.21967C0.512563 -0.0732233 0.987437 -0.0732233 1.28033 0.21967L21.7803 20.7197C22.0732 21.0126 22.0732 21.4874 21.7803 21.7803C21.4874 22.0732 21.0126 22.0732 20.7197 21.7803L0.21967 1.28033C-0.0732233 0.987437 -0.0732233 0.512563 0.21967 0.21967Z" fill-rule="EVENODD"></path>
 </g>
</svg>