<svg viewBox="0 0 16 16" width="16" height="16" fill="currentColor" xmlns="http://www.w3.org/2000/svg">
 <g transform="translate(1, 0)">
  <path d="M5.5 7.25C5.5 6.83579 5.16421 6.5 4.75 6.5C4.33579 6.5 4 6.83579 4 7.25C4 8.00976 4.34031 8.71772 4.91074 9.22477C5.47829 9.72926 6.231 10 7 10C7.769 10 8.52171 9.72926 9.08926 9.22477C9.65969 8.71772 10 8.00976 10 7.25C10 6.83579 9.66421 6.5 9.25 6.5C8.83579 6.5 8.5 6.83579 8.5 7.25C8.5 7.5511 8.3662 7.86056 8.09272 8.10366C7.81636 8.34931 7.42448 8.5 7 8.5C6.57552 8.5 6.18364 8.34931 5.90728 8.10366C5.6338 7.86056 5.5 7.5511 5.5 7.25Z" fill-rule="NONZERO"></path>
  <path d="M2.44802 0.745686C2.87475 0.271063 3.48296 0 4.12121 0L9.87879 0C10.517 0 11.1253 0.271063 11.552 0.745686L13.4232 2.82695C13.7945 3.24 14 3.77581 14 4.33126L14 13.75C14 14.9926 12.9926 16 11.75 16L2.25 16C1.00736 16 0 14.9926 0 13.75L0 4.33126C0 3.77582 0.205455 3.24 0.576818 2.82695L2.44802 0.745686ZM4.12121 1.5C3.90846 1.5 3.70572 1.59035 3.56348 1.74856L1.98881 3.5L12.0112 3.5L10.4365 1.74856C10.2943 1.59035 10.0915 1.5 9.87879 1.5L4.12121 1.5ZM1.5 13.75L1.5 5L12.5 5L12.5 13.75C12.5 14.1642 12.1642 14.5 11.75 14.5L2.25 14.5C1.83579 14.5 1.5 14.1642 1.5 13.75Z" fill-rule="EVENODD"></path>
 </g>
</svg>