<svg viewBox="0 0 24 24" width="24" height="24" fill="currentColor" xmlns="http://www.w3.org/2000/svg">
 <g transform="translate(0.5, 1.5)">
  <path d="M0.75 0C0.335786 0 0 0.335786 0 0.75C0 1.16421 0.335786 1.5 0.75 1.5L2.83879 1.5C3.44068 1.5 3.95712 1.92895 4.06756 2.52063L5.51214 10.2594L6.21826 14.2313C6.45159 15.5439 7.59271 16.5 8.9258 16.5L19.0678 16.5C20.4048 16.5 21.5481 15.5384 21.7771 14.2212L23.0815 6.72119C23.374 5.03925 22.0793 3.5 20.3722 3.5L5.77629 3.5L5.54209 2.24538C5.29911 0.943694 4.16296 0 2.83879 0L0.75 0ZM6.98845 9.99372L6.05629 5L20.3722 5C21.1481 5 21.7366 5.69966 21.6037 6.46418L20.2993 13.9642C20.1952 14.5629 19.6755 15 19.0678 15L8.9258 15C8.31985 15 7.80116 14.5654 7.6951 13.9688L6.98845 9.99372Z" fill-rule="EVENODD"></path>
  <path d="M11 19.25C11 20.2165 10.2165 21 9.25 21L9.24 21C8.2735 21 7.49 20.2165 7.49 19.25C7.49 18.2835 8.2735 17.5 9.24 17.5L9.25 17.5C10.2165 17.5 11 18.2835 11 19.25Z" fill-rule="NONZERO"></path>
  <path d="M21 19.25C21 20.2165 20.2165 21 19.25 21L19.24 21C18.2735 21 17.49 20.2165 17.49 19.25C17.49 18.2835 18.2735 17.5 19.24 17.5L19.25 17.5C20.2165 17.5 21 18.2835 21 19.25Z" fill-rule="NONZERO"></path>
 </g>
</svg>