<svg viewBox="0 0 16 16" width="16" height="16" fill="currentColor" xmlns="http://www.w3.org/2000/svg">
 <g transform="translate(0.5, 1.5)">
  <path d="M7 12.25C7 12.9404 6.44036 13.5 5.75 13.5L5.74 13.5C5.04964 13.5 4.49 12.9404 4.49 12.25C4.49 11.5596 5.04964 11 5.74 11L5.75 11C6.44036 11 7 11.5596 7 12.25Z" fill-rule="EVENODD"></path>
  <path d="M13.5 12.25C13.5 12.9404 12.9404 13.5 12.25 13.5L12.24 13.5C11.5496 13.5 10.99 12.9404 10.99 12.25C10.99 11.5596 11.5496 11 12.24 11L12.25 11C12.9404 11 13.5 11.5596 13.5 12.25Z" fill-rule="EVENODD"></path>
  <path d="M0 0.75C0 0.335786 0.335786 0 0.75 0L1.90422 0C2.9784 0 3.90276 0.759304 4.11138 1.81303L4.1484 2L12.9527 2C14.3565 2 15.4175 3.27135 15.1664 4.65249L14.4391 8.65249C14.2446 9.72235 13.3128 10.5 12.2254 10.5L6.12997 10.5C5.04809 10.5 4.11938 9.73004 3.91893 8.6669L3.51362 6.5173L2.63994 2.10434C2.5704 1.7531 2.26228 1.5 1.90422 1.5L0.75 1.5C0.335786 1.5 0 1.16421 0 0.75ZM4.44536 3.5L4.98704 6.23603L5.39295 8.38897C5.45977 8.74335 5.76934 9 6.12997 9L12.2254 9C12.5879 9 12.8985 8.74078 12.9633 8.38416L13.6906 4.38416C13.7743 3.92378 13.4206 3.5 12.9527 3.5L4.44536 3.5Z" fill-rule="EVENODD"></path>
 </g>
</svg>