<svg viewBox="0 0 24 24" width="24" height="24" fill="currentColor" xmlns="http://www.w3.org/2000/svg">
 <g transform="translate(2, 1)">
  <path d="M7 9.5C7 9.08579 6.66421 8.75 6.25 8.75C5.83579 8.75 5.5 9.08579 5.5 9.5C5.5 10.6935 5.97411 11.8381 6.81802 12.682C7.66193 13.5259 8.80653 14 10 14C11.1935 14 12.3381 13.5259 13.182 12.682C14.0259 11.8381 14.5 10.6935 14.5 9.5C14.5 9.08579 14.1642 8.75 13.75 8.75C13.3358 8.75 13 9.08579 13 9.5C13 10.2956 12.6839 11.0587 12.1213 11.6213C11.5587 12.1839 10.7956 12.5 10 12.5C9.20435 12.5 8.44129 12.1839 7.87868 11.6213C7.31607 11.0587 7 10.2956 7 9.5Z" fill-rule="NONZERO"></path>
  <path d="M3.61159 0.865248C4.13128 0.313085 4.85589 0 5.61415 0L14.3859 0C15.1441 0 15.8687 0.313084 16.3884 0.865247L19.2526 3.9084C19.7327 4.41852 20 5.09263 20 5.79315L20 19.25C20 20.7688 18.7688 22 17.25 22L2.75 22C1.23122 22 0 20.7688 0 19.25L0 5.79315C0 5.09263 0.267338 4.41852 0.74745 3.9084L3.61159 0.865248ZM5.61415 1.5C5.26948 1.5 4.94011 1.64231 4.70389 1.89329L2.25052 4.5L17.7495 4.5L15.2961 1.89329C15.0599 1.64231 14.7305 1.5 14.3859 1.5L5.61415 1.5ZM1.5 19.25L1.5 6L18.5 6L18.5 19.25C18.5 19.9404 17.9404 20.5 17.25 20.5L2.75 20.5C2.05964 20.5 1.5 19.9404 1.5 19.25Z" fill-rule="EVENODD"></path>
 </g>
</svg>