<svg viewBox="0 0 16 16" width="16" height="16" fill="black" xmlns="http://www.w3.org/2000/svg">
 <g transform="translate(0.75, 1.25)">
  <path d="M0.75 0C0.335786 0 0 0.335786 0 0.75C0 1.16421 0.335786 1.5 0.75 1.5L1.85552 1.5L3.43312 8.87754C3.52658 9.34077 3.7793 9.75673 4.14751 10.0531C4.51523 10.3492 4.97483 10.5072 5.44666 10.5L11.6194 10.5C12.0912 10.5072 12.5508 10.3492 12.9185 10.0531C13.2883 9.75546 13.5416 9.33717 13.6341 8.87155L14.6523 3.74454C14.696 3.52432 14.6388 3.29609 14.4963 3.12256C14.3539 2.94903 14.1412 2.84844 13.9166 2.84844L3.67778 2.84844L3.19552 0.593167C3.12154 0.247215 2.81587 0 2.4621 0L0.75 0ZM4.90326 8.57933L3.99854 4.34844L13.0031 4.34844L12.1628 8.57934C12.1389 8.69967 12.0735 8.80776 11.9779 8.88469C11.8823 8.96162 11.7628 9.00249 11.6401 9.00014L11.6257 9L5.44028 9L5.42591 9.00014C5.30325 9.00249 5.18367 8.96162 5.08811 8.88469C4.99255 8.80776 4.92716 8.69966 4.90326 8.57933Z" fill-rule="EVENODD"></path>
  <path d="M3.5 12.25C3.5 11.5596 4.05964 11 4.75 11C5.44036 11 6 11.5596 6 12.25C6 12.9404 5.44036 13.5 4.75 13.5C4.05964 13.5 3.5 12.9404 3.5 12.25Z" fill-rule="NONZERO"></path>
  <path d="M11.5 12.25C11.5 11.5596 12.0596 11 12.75 11C13.4404 11 14 11.5596 14 12.25C14 12.9404 13.4404 13.5 12.75 13.5C12.0596 13.5 11.5 12.9404 11.5 12.25Z" fill-rule="NONZERO"></path>
 </g>
</svg>