<svg viewBox="0 0 16 16" width="16" height="16" fill="black" xmlns="http://www.w3.org/2000/svg">
 <g transform="translate(1.25, 1.25)">
  <path d="M8 0.75C8 0.335786 8.33579 0 8.75 0L12.75 0C13.1642 0 13.5 0.335786 13.5 0.75L13.5 4.75C13.5 5.16421 13.1642 5.5 12.75 5.5C12.3358 5.5 12 5.16421 12 4.75L12 2.56076L1.28033 13.2804C0.987437 13.5733 0.512563 13.5733 0.21967 13.2804C-0.0732233 12.9875 -0.0732233 12.5127 0.21967 12.2198L10.9394 1.5L8.75 1.5C8.33579 1.5 8 1.16421 8 0.75Z" fill-rule="NONZERO"></path>
  <path d="M13.5 8.75C13.5 8.33579 13.1642 8 12.75 8C12.3358 8 12 8.33579 12 8.75L12 10.9393L9.28033 8.21967C8.98744 7.92678 8.51256 7.92678 8.21967 8.21967C7.92678 8.51256 7.92678 8.98744 8.21967 9.28033L10.9393 12L8.75 12C8.33579 12 8 12.3358 8 12.75C8 13.1642 8.33579 13.5 8.75 13.5L12.75 13.5C12.8517 13.5 12.9487 13.4798 13.0371 13.4431C13.1255 13.4065 13.2084 13.3522 13.2803 13.2803C13.3522 13.2084 13.4065 13.1255 13.4431 13.0371C13.4798 12.9487 13.5 12.8517 13.5 12.75L13.5 8.75Z" fill-rule="NONZERO"></path>
  <path d="M1.28033 0.21967C0.987437 -0.0732233 0.512563 -0.0732233 0.21967 0.21967C-0.0732233 0.512563 -0.0732233 0.987437 0.21967 1.28033L4.21967 5.28033C4.51256 5.57322 4.98744 5.57322 5.28033 5.28033C5.57322 4.98744 5.57322 4.51256 5.28033 4.21967L1.28033 0.21967Z" fill-rule="NONZERO"></path>
 </g>
</svg>