<svg viewBox="0 0 16 16" width="16" height="16" fill="black" xmlns="http://www.w3.org/2000/svg">
 <g transform="translate(1, 1)">
  <path d="M8.5 0.75C8.5 0.335786 8.83579 0 9.25 0L13.25 0C13.6642 0 14 0.335786 14 0.75L14 4.75C14 5.16421 13.6642 5.5 13.25 5.5C12.8358 5.5 12.5 5.16421 12.5 4.75L12.5 1.5L9.25 1.5C8.83579 1.5 8.5 1.16421 8.5 0.75Z" fill-rule="EVENODD"></path>
  <path d="M13.7803 0.21967C14.0732 0.512563 14.0732 0.987437 13.7803 1.28033L1.28033 13.7803C0.987437 14.0732 0.512563 14.0732 0.21967 13.7803C-0.0732233 13.4874 -0.0732233 13.0126 0.21967 12.7197L12.7197 0.21967C13.0126 -0.0732233 13.4874 -0.0732233 13.7803 0.21967Z" fill-rule="EVENODD"></path>
  <path d="M8.5 13.25C8.5 13.6642 8.83579 14 9.25 14L13.25 14C13.6642 14 14 13.6642 14 13.25L14 9.25C14 8.83579 13.6642 8.5 13.25 8.5C12.8358 8.5 12.5 8.83579 12.5 9.25L12.5 12.5L9.25 12.5C8.83579 12.5 8.5 12.8358 8.5 13.25Z" fill-rule="EVENODD"></path>
  <path d="M13.7803 13.7803C14.0732 13.4874 14.0732 13.0126 13.7803 12.7197L10.0303 8.96967C9.73744 8.67678 9.26256 8.67678 8.96967 8.96967C8.67678 9.26256 8.67678 9.73744 8.96967 10.0303L12.7197 13.7803C13.0126 14.0732 13.4874 14.0732 13.7803 13.7803ZM5.03033 5.03033C5.32322 4.73744 5.32322 4.26256 5.03033 3.96967L1.28033 0.21967C0.987437 -0.0732231 0.512563 -0.0732231 0.21967 0.21967C-0.0732233 0.512563 -0.0732233 0.987437 0.21967 1.28033L3.96967 5.03033C4.26256 5.32322 4.73744 5.32322 5.03033 5.03033Z" fill-rule="EVENODD"></path>
 </g>
</svg>