<svg viewBox="0 0 16 16" width="16" height="16" fill="currentColor" xmlns="http://www.w3.org/2000/svg">
 <g transform="translate(1, 1)">
  <path d="M13.9431 0.462912C13.9068 0.375106 13.853 0.2928 13.7819 0.221263L13.7803 0.21967L13.7787 0.218082C13.6431 0.0832921 13.4563 0 13.25 0L9.25 0C8.83579 0 8.5 0.335786 8.5 0.75C8.5 1.16421 8.83579 1.5 9.25 1.5L11.4393 1.5L0.21967 12.7197C-0.0732233 13.0126 -0.0732233 13.4874 0.21967 13.7803C0.512563 14.0732 0.987437 14.0732 1.28033 13.7803L12.5 2.56066L12.5 4.75C12.5 5.16421 12.8358 5.5 13.25 5.5C13.6642 5.5 14 5.16421 14 4.75L14 0.75C14 0.648308 13.9798 0.551342 13.9431 0.462912Z" fill-rule="NONZERO"></path>
  <path d="M8.5 13.25C8.5 13.6642 8.83579 14 9.25 14L13.25 14C13.4546 14 13.6401 13.9181 13.7754 13.7852C13.7787 13.782 13.782 13.7787 13.7852 13.7754C13.8547 13.7047 13.9073 13.6235 13.9431 13.5371C13.9798 13.4487 14 13.3517 14 13.25L14 9.25C14 8.83579 13.6642 8.5 13.25 8.5C12.8358 8.5 12.5 8.83579 12.5 9.25L12.5 11.4393L10.0303 8.96967C9.73744 8.67678 9.26256 8.67678 8.96967 8.96967C8.67678 9.26256 8.67678 9.73744 8.96967 10.0303L11.4393 12.5L9.25 12.5C8.83579 12.5 8.5 12.8358 8.5 13.25Z" fill-rule="NONZERO"></path>
  <path d="M5.03033 3.96967C5.32322 4.26256 5.32322 4.73744 5.03033 5.03033C4.73744 5.32322 4.26256 5.32322 3.96967 5.03033L0.21967 1.28033C-0.0732233 0.987437 -0.0732233 0.512563 0.21967 0.21967C0.512563 -0.0732231 0.987437 -0.0732231 1.28033 0.21967L5.03033 3.96967Z" fill-rule="NONZERO"></path>
 </g>
</svg>