<svg viewBox="0 0 24 24" width="24" height="24" fill="currentColor" xmlns="http://www.w3.org/2000/svg">
 <g transform="translate(2, 2)">
  <path d="M19.9431 0.462912C19.9065 0.374453 19.8522 0.291577 19.7803 0.21967C19.6339 0.0732233 19.4419 0 19.25 0L13.75 0C13.3358 0 13 0.335786 13 0.75C13 1.16421 13.3358 1.5 13.75 1.5L17.4393 1.5L0.21967 18.7197C-0.0732233 19.0126 -0.0732233 19.4874 0.21967 19.7803C0.512563 20.0732 0.987437 20.0732 1.28033 19.7803L18.5 2.56066L18.5 6.25C18.5 6.66421 18.8358 7 19.25 7C19.6642 7 20 6.66421 20 6.25L20 0.75C20 0.648308 19.9798 0.551342 19.9431 0.462912Z" fill-rule="NONZERO"></path>
  <path d="M18.5 17.4393L18.5 13.75C18.5 13.3358 18.8358 13 19.25 13C19.6642 13 20 13.3358 20 13.75L20 19.25C20 19.4419 19.9268 19.6339 19.7803 19.7803C19.7084 19.8522 19.6255 19.9065 19.5371 19.9431C19.4487 19.9798 19.3517 20 19.25 20L13.75 20C13.3358 20 13 19.6642 13 19.25C13 18.8358 13.3358 18.5 13.75 18.5L17.4393 18.5L12.4697 13.5303C12.1768 13.2374 12.1768 12.7626 12.4697 12.4697C12.7626 12.1768 13.2374 12.1768 13.5303 12.4697L18.5 17.4393Z" fill-rule="NONZERO"></path>
  <path d="M7.53033 7.53033C7.82322 7.23744 7.82322 6.76256 7.53033 6.46967L1.28033 0.219669C0.987437 -0.0732231 0.512563 -0.0732231 0.21967 0.219669C-0.0732233 0.512564 -0.0732233 0.987436 0.21967 1.28033L6.46967 7.53033C6.76256 7.82322 7.23744 7.82322 7.53033 7.53033Z" fill-rule="NONZERO"></path>
 </g>
</svg>