<svg viewBox="0 0 16 16" width="16" height="16" fill="currentColor" xmlns="http://www.w3.org/2000/svg">
 <g transform="translate(1, 1)">
  <path d="M6.77364 4.26276C6.49034 3.9997 6.47393 3.55679 6.737 3.27349C7.00006 2.99019 7.44297 2.97379 7.72627 3.23685L11.2263 6.48685C11.3689 6.6193 11.45 6.80516 11.45 6.99981C11.45 7.19446 11.3689 7.38031 11.2263 7.51276L7.72627 10.7628C7.44297 11.0258 7.00006 11.0094 6.737 10.7261C6.47393 10.4428 6.49034 9.99991 6.77364 9.73685L9.72122 6.99981L6.77364 4.26276Z" fill-rule="NONZERO"></path>
  <path d="M0 2.25C0 1.00736 1.00736 0 2.25 0L11.75 0C12.9926 0 14 1.00736 14 2.25L14 11.75C14 12.9926 12.9926 14 11.75 14L2.25 14C1.00736 14 0 12.9926 0 11.75L0 2.25ZM2.25 1.5C1.83579 1.5 1.5 1.83579 1.5 2.25L1.5 11.75C1.5 12.1642 1.83579 12.5 2.25 12.5L3.55005 12.5L3.55005 1.5L2.25 1.5ZM11.75 12.5L4.95005 12.5L4.95005 1.5L11.75 1.5C12.1642 1.5 12.5 1.83579 12.5 2.25L12.5 11.75C12.5 12.1642 12.1642 12.5 11.75 12.5Z" fill-rule="EVENODD"></path>
 </g>
</svg>