<svg viewBox="0 0 16 16" width="16" height="16" fill="currentColor" xmlns="http://www.w3.org/2000/svg">
 <g transform="translate(1, 1)">
  <path d="M0 2.25C0 1.00736 1.00736 0 2.25 0L11.75 0C12.9926 0 14 1.00736 14 2.25L14 11.75C14 12.9926 12.9926 14 11.75 14L2.25 14C1.00736 14 0 12.9926 0 11.75L0 2.25ZM2.25 1.5C1.83579 1.5 1.5 1.83579 1.5 2.25L1.5 11.75C1.5 12.1642 1.83579 12.5 2.25 12.5L11.75 12.5C12.1642 12.5 12.5 12.1642 12.5 11.75L12.5 2.25C12.5 1.83579 12.1642 1.5 11.75 1.5L2.25 1.5Z" fill-rule="EVENODD"></path>
  <path d="M4.25 0.3C4.6366 0.3 4.95 0.613401 4.95 1L4.95 13C4.95 13.3866 4.6366 13.7 4.25 13.7C3.8634 13.7 3.55 13.3866 3.55 13L3.55 1C3.55 0.613401 3.8634 0.3 4.25 0.3Z" fill-rule="EVENODD"></path>
  <path d="M10.763 3.27368C11.026 3.55698 11.0096 3.99989 10.7263 4.26296L7.77873 7L10.7263 9.73705C11.0096 10.0001 11.026 10.443 10.763 10.7263C10.4999 11.0096 10.057 11.026 9.77368 10.763L6.27368 7.51296C6.13105 7.38051 6.05 7.19465 6.05 7C6.05 6.80535 6.13105 6.61949 6.27368 6.48704L9.77368 3.23704C10.057 2.97398 10.4999 2.99039 10.763 3.27368Z" fill-rule="EVENODD"></path>
 </g>
</svg>