<svg viewBox="0 0 24 24" width="24" height="24" fill="currentColor" xmlns="http://www.w3.org/2000/svg">
 <g transform="translate(2, 2)">
  <path d="M2.75 0C1.23122 0 0 1.23122 0 2.75L0 17.25C0 18.7688 1.23122 20 2.75 20L17.25 20C18.7688 20 20 18.7688 20 17.25L20 2.75C20 1.23122 18.7688 0 17.25 0L2.75 0ZM1.5 2.75C1.5 2.05964 2.05964 1.5 2.75 1.5L6 1.5L6 18.5L2.75 18.5C2.05964 18.5 1.5 17.9404 1.5 17.25L1.5 2.75ZM7.5 18.5L17.25 18.5C17.9404 18.5 18.5 17.9404 18.5 17.25L18.5 2.75C18.5 2.05964 17.9404 1.5 17.25 1.5L7.5 1.5L7.5 18.5Z" fill-rule="EVENODD"></path>
 </g>
</svg>