<svg viewBox="0 0 16 16" width="16" height="16" fill="currentColor" xmlns="http://www.w3.org/2000/svg">
 <g transform="translate(1, 1)">
  <path d="M0 2.25C0 1.00736 1.00736 0 2.25 0L11.75 0C12.9926 0 14 1.00736 14 2.25L14 11.75C14 12.9926 12.9926 14 11.75 14L2.25 14C1.00736 14 0 12.9926 0 11.75L0 2.25ZM2.25 1.5C1.83579 1.5 1.5 1.83579 1.5 2.25L1.5 11.75C1.5 12.1642 1.83579 12.5 2.25 12.5L11.75 12.5C12.1642 12.5 12.5 12.1642 12.5 11.75L12.5 2.25C12.5 1.83579 12.1642 1.5 11.75 1.5L2.25 1.5Z" fill-rule="EVENODD"></path>
  <path d="M4.25 0.3C4.6366 0.3 4.95 0.613401 4.95 1L4.95 13C4.95 13.3866 4.6366 13.7 4.25 13.7C3.8634 13.7 3.55 13.3866 3.55 13L3.55 1C3.55 0.613401 3.8634 0.3 4.25 0.3Z" fill-rule="EVENODD"></path>
  <path d="M6.73704 3.27368C6.47398 3.55698 6.49039 3.99989 6.77368 4.26296L9.72127 7L6.77368 9.73705C6.49039 10.0001 6.47398 10.443 6.73704 10.7263C7.00011 11.0096 7.44302 11.026 7.72632 10.763L11.2263 7.51296C11.369 7.38051 11.45 7.19465 11.45 7C11.45 6.80535 11.369 6.61949 11.2263 6.48704L7.72632 3.23704C7.44302 2.97398 7.00011 2.99039 6.73704 3.27368Z" fill-rule="EVENODD"></path>
 </g>
</svg>