<svg viewBox="0 0 24 24" width="24" height="24" fill="currentColor" xmlns="http://www.w3.org/2000/svg">
 <g transform="translate(2, 2)">
  <path d="M9.73503 6.29526C9.43389 6.01085 9.42033 5.53617 9.70474 5.23503C9.98915 4.9339 10.4638 4.92033 10.765 5.20474L15.265 9.45474C15.415 9.59642 15.5 9.79366 15.5 10C15.5 10.2063 15.415 10.4036 15.265 10.5453L10.765 14.7953C10.4638 15.0797 9.98915 15.0661 9.70474 14.765C9.42033 14.4638 9.43389 13.9892 9.73503 13.7047L13.6577 10L9.73503 6.29526Z" fill-rule="NONZERO"></path>
  <path d="M0 2.75C0 1.23122 1.23122 0 2.75 0L17.25 0C18.7688 0 20 1.23122 20 2.75L20 17.25C20 18.7688 18.7688 20 17.25 20L2.75 20C1.23122 20 0 18.7688 0 17.25L0 2.75ZM2.75 1.5C2.05964 1.5 1.5 2.05964 1.5 2.75L1.5 17.25C1.5 17.9404 2.05964 18.5 2.75 18.5L5 18.5L5 1.5L2.75 1.5ZM17.25 18.5L6.5 18.5L6.5 1.5L17.25 1.5C17.9404 1.5 18.5 2.05964 18.5 2.75L18.5 17.25C18.5 17.9404 17.9404 18.5 17.25 18.5Z" fill-rule="EVENODD"></path>
 </g>
</svg>