<svg viewBox="0 0 16 16" width="16" height="16" fill="black" xmlns="http://www.w3.org/2000/svg">
 <g transform="translate(1, 1)">
  <path d="M0 2.25C0 1.00736 1.00736 0 2.25 0L11.75 0C12.9926 0 14 1.00736 14 2.25L14 11.75C14 12.9926 12.9926 14 11.75 14L2.25 14C1.00736 14 0 12.9926 0 11.75L0 2.25ZM2.25 1.5C1.83579 1.5 1.5 1.83579 1.5 2.25L1.5 11.75C1.5 12.1642 1.83579 12.5 2.25 12.5L11.75 12.5C12.1642 12.5 12.5 12.1642 12.5 11.75L12.5 2.25C12.5 1.83579 12.1642 1.5 11.75 1.5L2.25 1.5Z" fill-rule="EVENODD"></path>
  <path d="M4.75 0.3C5.1366 0.3 5.45 0.613401 5.45 1L5.45 13C5.45 13.3866 5.1366 13.7 4.75 13.7C4.3634 13.7 4.05 13.3866 4.05 13L4.05 1C4.05 0.613401 4.3634 0.3 4.75 0.3Z" fill-rule="EVENODD"></path>
 </g>
</svg>