<svg viewBox="0 0 24 24" width="24" height="24" fill="black" xmlns="http://www.w3.org/2000/svg">
 <g transform="translate(2, 2)">
  <path d="M0 2.75C0 1.23122 1.23122 0 2.75 0L17.25 0C18.7688 0 20 1.23122 20 2.75L20 17.25C20 18.7688 18.7688 20 17.25 20L2.75 20C1.23122 20 0 18.7688 0 17.25L0 2.75ZM2.75 1.5C2.05964 1.5 1.5 2.05964 1.5 2.75L1.5 17.25C1.5 17.9404 2.05964 18.5 2.75 18.5L17.25 18.5C17.9404 18.5 18.5 17.9404 18.5 17.25L18.5 2.75C18.5 2.05964 17.9404 1.5 17.25 1.5L2.75 1.5Z" fill-rule="EVENODD"></path>
  <path d="M5.75 0.25C6.16421 0.25 6.5 0.585786 6.5 1L6.5 19C6.5 19.4142 6.16421 19.75 5.75 19.75C5.33579 19.75 5 19.4142 5 19L5 1C5 0.585786 5.33579 0.25 5.75 0.25Z" fill-rule="EVENODD"></path>
  <path d="M14.7953 5.23503C15.0797 5.53617 15.0661 6.01085 14.765 6.29526L10.8423 10L14.765 13.7047C15.0661 13.9891 15.0797 14.4638 14.7953 14.765C14.5109 15.0661 14.0362 15.0797 13.735 14.7953L9.23503 10.5453C9.08502 10.4036 9 10.2063 9 10C9 9.79365 9.08502 9.59642 9.23503 9.45474L13.735 5.20474C14.0362 4.92033 14.5109 4.93389 14.7953 5.23503Z" fill-rule="EVENODD"></path>
 </g>
</svg>