<svg viewBox="0 0 16 16" width="16" height="16" fill="black" xmlns="http://www.w3.org/2000/svg">
 <g transform="translate(1.25, 1.25)">
  <path d="M6.25504 3.25483C5.98167 3.5282 5.98167 3.97141 6.25504 4.24478L8.76006 6.7498L6.25504 9.25483C5.98167 9.5282 5.98167 9.97141 6.25504 10.2448C6.5284 10.5181 6.97162 10.5181 7.24499 10.2448L10.245 7.24478C10.5184 6.97141 10.5184 6.5282 10.245 6.25483L7.24499 3.25483C6.97162 2.98146 6.5284 2.98146 6.25504 3.25483Z" fill-rule="NONZERO"></path>
  <path d="M0 2.08333C0 0.93274 0.93274 0 2.08333 0L11.4167 0C12.5673 0 13.5 0.93274 13.5 2.08333L13.5 11.4167C13.5 12.5673 12.5673 13.5 11.4167 13.5L2.08333 13.5C0.93274 13.5 0 12.5673 0 11.4167L0 2.08333ZM2.08333 1.5C1.76117 1.5 1.5 1.76117 1.5 2.08333L1.5 11.4167C1.5 11.7388 1.76117 12 2.08333 12L3.04999 12L3.04999 1.5L2.08333 1.5ZM4.44999 1.5L4.44999 12L11.4167 12C11.7388 12 12 11.7388 12 11.4167L12 2.08333C12 1.76117 11.7388 1.5 11.4167 1.5L4.44999 1.5Z" fill-rule="EVENODD"></path>
 </g>
</svg>