<svg viewBox="0 0 24 24" width="24" height="24" fill="black" xmlns="http://www.w3.org/2000/svg">
 <g transform="translate(2, 2)">
  <path d="M7.5 0.75C7.5 0.335786 7.16421 0 6.75 0L2.75 0C1.23122 0 0 1.23122 0 2.75L0 17.25C0 18.7688 1.23122 20 2.75 20L6.75 20C7.16421 20 7.5 19.6642 7.5 19.25C7.5 18.8358 7.16421 18.5 6.75 18.5L2.75 18.5C2.05964 18.5 1.5 17.9404 1.5 17.25L1.5 2.75C1.5 2.05964 2.05964 1.5 2.75 1.5L6.75 1.5C7.16421 1.5 7.5 1.16421 7.5 0.75Z" fill-rule="EVENODD"></path>
  <path d="M13.4697 4.21967C13.7626 3.92678 14.2374 3.92678 14.5303 4.21967L19.5303 9.21967C19.8232 9.51256 19.8232 9.98744 19.5303 10.2803L14.5303 15.2803C14.2374 15.5732 13.7626 15.5732 13.4697 15.2803C13.1768 14.9874 13.1768 14.5126 13.4697 14.2197L17.9393 9.75L13.4697 5.28033C13.1768 4.98744 13.1768 4.51256 13.4697 4.21967Z" fill-rule="EVENODD"></path>
  <path d="M6.25 9.75C6.25 9.33579 6.58579 9 7 9L19 9C19.4142 9 19.75 9.33579 19.75 9.75C19.75 10.1642 19.4142 10.5 19 10.5L7 10.5C6.58579 10.5 6.25 10.1642 6.25 9.75Z" fill-rule="EVENODD"></path>
 </g>
</svg>