<svg viewBox="0 0 24 24" width="24" height="24" fill="currentColor" xmlns="http://www.w3.org/2000/svg">
 <g transform="translate(2.25, 2)">
  <path d="M12.25 0.75C12.25 0.335786 12.5858 0 13 0L17 0C18.5188 0 19.75 1.23122 19.75 2.75L19.75 17.25C19.75 18.7688 18.5188 20 17 20L13 20C12.5858 20 12.25 19.6642 12.25 19.25C12.25 18.8358 12.5858 18.5 13 18.5L17 18.5C17.6904 18.5 18.25 17.9404 18.25 17.25L18.25 2.75C18.25 2.05964 17.6904 1.5 17 1.5L13 1.5C12.5858 1.5 12.25 1.16421 12.25 0.75Z" fill-rule="EVENODD"></path>
  <path d="M7.21967 4.21967C7.51256 3.92678 7.98744 3.92678 8.28033 4.21967L13.2803 9.21967C13.5732 9.51256 13.5732 9.98744 13.2803 10.2803L8.28033 15.2803C7.98744 15.5732 7.51256 15.5732 7.21967 15.2803C6.92678 14.9874 6.92678 14.5126 7.21967 14.2197L11.6893 9.75L7.21967 5.28033C6.92678 4.98744 6.92678 4.51256 7.21967 4.21967Z" fill-rule="EVENODD"></path>
  <path d="M0 9.75C0 9.33579 0.335786 9 0.75 9L12.75 9C13.1642 9 13.5 9.33579 13.5 9.75C13.5 10.1642 13.1642 10.5 12.75 10.5L0.75 10.5C0.335786 10.5 0 10.1642 0 9.75Z" fill-rule="EVENODD"></path>
 </g>
</svg>