<svg viewBox="0 0 16 16" width="16" height="16" fill="currentColor" xmlns="http://www.w3.org/2000/svg">
 <g transform="translate(2, 2.1767578125)">
  <path d="M2.7592 0.323368C1.59997 -0.494907 0 0.334127 0 1.75306L0 9.89322C0 11.3122 1.59997 12.1412 2.7592 11.3229L8.52514 7.25283C9.51288 6.55561 9.51288 5.09067 8.52514 4.39345L2.7592 0.323368ZM1.5 1.75306C1.5 1.55036 1.72857 1.43192 1.89417 1.54882L7.66012 5.6189C7.80122 5.7185 7.80122 5.92778 7.66012 6.02738L1.89417 10.0975C1.72857 10.2144 1.5 10.0959 1.5 9.89322L1.5 1.75306Z" fill-rule="EVENODD"></path>
  <path d="M12 0.823242C12 0.409029 11.6642 0.0732422 11.25 0.0732422C10.8358 0.0732422 10.5 0.409029 10.5 0.823242L10.5 10.8232C10.5 11.2375 10.8358 11.5732 11.25 11.5732C11.6642 11.5732 12 11.2375 12 10.8232L12 0.823242Z" fill-rule="NONZERO"></path>
 </g>
</svg>