<svg viewBox="0 0 24 24" width="24" height="24" fill="currentColor" xmlns="http://www.w3.org/2000/svg">
 <g transform="translate(1, 1)">
  <path d="M3.1721 18.7281C3.18699 18.7461 3.20285 18.7635 3.21967 18.7803C3.23649 18.7972 3.25391 18.813 3.27186 18.8279C5.25839 20.7893 7.9878 22 11 22C17.0751 22 22 17.0751 22 11C22 7.9878 20.7893 5.25839 18.8279 3.27186C18.813 3.25391 18.7971 3.23649 18.7803 3.21967C18.7635 3.20285 18.7461 3.187 18.7281 3.17211C16.7416 1.21074 14.0122 0 11 0C4.92487 0 0 4.92487 0 11C0 14.0122 1.21073 16.7416 3.1721 18.7281ZM1.5 11C1.5 5.75329 5.75329 1.5 11 1.5C13.3534 1.5 15.5069 2.35573 17.1663 3.77299L3.77299 17.1663C2.35572 15.5069 1.5 13.3534 1.5 11ZM18.227 4.83365C19.6443 6.49312 20.5 8.64663 20.5 11C20.5 16.2467 16.2467 20.5 11 20.5C8.64663 20.5 6.49312 19.6443 4.83365 18.227L18.227 4.83365Z" fill-rule="EVENODD"></path>
 </g>
</svg>