<svg viewBox="0 0 16 16" width="16" height="16" fill="black" xmlns="http://www.w3.org/2000/svg">
 <g transform="translate(2, 2.176858901977539)">
  <path d="M12 1.75306C12 0.334127 10.4 -0.494907 9.2408 0.323368L3.47486 4.39345C2.48712 5.09067 2.48712 6.55561 3.47486 7.25283L9.2408 11.3229C10.4 12.1412 12 11.3122 12 9.89322L12 1.75306ZM10.1058 1.54882C10.2714 1.43192 10.5 1.55036 10.5 1.75306L10.5 9.89322C10.5 10.0959 10.2714 10.2144 10.1058 10.0975L4.33988 6.02738C4.19878 5.92778 4.19878 5.7185 4.33988 5.6189L10.1058 1.54882Z" fill-rule="EVENODD"></path>
  <path d="M0.75 0.0731411C1.16421 0.0731411 1.5 0.408928 1.5 0.823141L1.5 10.8231C1.5 11.2374 1.16421 11.5731 0.75 11.5731C0.335786 11.5731 0 11.2374 0 10.8231L0 0.823141C0 0.408928 0.335786 0.0731411 0.75 0.0731411Z" fill-rule="EVENODD"></path>
 </g>
</svg>