<svg viewBox="0 0 24 24" width="24" height="24" fill="black" xmlns="http://www.w3.org/2000/svg">
 <g transform="translate(4.5, 4.18509578704834)">
  <path d="M15.5 1.75308C15.5 0.33136 13.8945 -0.497015 12.7358 0.326905L4.21139 6.38873C3.23028 7.08641 3.23028 8.5434 4.21139 9.24108L12.7358 15.3029C13.8945 16.1268 15.5 15.2984 15.5 13.8767L15.5 1.75308ZM13.6051 1.54934C13.7706 1.43164 14 1.54997 14 1.75308L14 13.8767C14 14.0798 13.7706 14.1982 13.6051 14.0805L5.08067 8.01864C4.94051 7.91897 4.94052 7.71083 5.08067 7.61117L13.6051 1.54934Z" fill-rule="EVENODD"></path>
  <path d="M0.75 0.0649042C1.16421 0.0649042 1.5 0.400691 1.5 0.814904L1.5 14.8149C1.5 15.2291 1.16421 15.5649 0.75 15.5649C0.335786 15.5649 0 15.2291 0 14.8149L0 0.814904C0 0.400691 0.335786 0.0649042 0.75 0.0649042Z" fill-rule="EVENODD"></path>
 </g>
</svg>