<svg viewBox="0 0 16 16" width="16" height="16" fill="currentColor" xmlns="http://www.w3.org/2000/svg">
 <g transform="translate(2, 2.1767578125)">
  <path d="M9.2408 0.323368C10.4 -0.494907 12 0.334127 12 1.75306L12 9.89322C12 11.3122 10.4 12.1412 9.2408 11.3229L3.47486 7.25283C2.48712 6.55561 2.48712 5.09067 3.47486 4.39345L9.2408 0.323368ZM10.5 1.75306C10.5 1.55036 10.2714 1.43192 10.1058 1.54882L4.33988 5.6189C4.19878 5.7185 4.19878 5.92778 4.33988 6.02738L10.1058 10.0975C10.2714 10.2144 10.5 10.0959 10.5 9.89322L10.5 1.75306Z" fill-rule="EVENODD"></path>
  <path d="M1.5 0.823242C1.5 0.409029 1.16421 0.0732422 0.75 0.0732422C0.335786 0.0732422 0 0.409029 0 0.823242L0 10.8232C0 11.2375 0.335786 11.5732 0.75 11.5732C1.16421 11.5732 1.5 11.2375 1.5 10.8232L1.5 0.823242Z" fill-rule="NONZERO"></path>
 </g>
</svg>