<svg viewBox="0 0 16 16" width="16" height="16" fill="black" xmlns="http://www.w3.org/2000/svg">
 <g transform="translate(1, 1)">
  <path d="M0 2.25C0 1.00736 1.00736 0 2.25 0L11.75 0C12.9926 0 14 1.00736 14 2.25L14 11.75C14 12.9926 12.9926 14 11.75 14L2.25 14C1.00736 14 0 12.9926 0 11.75L0 2.25ZM2.25 1.5C1.83579 1.5 1.5 1.83579 1.5 2.25L1.5 11.75C1.5 12.1642 1.83579 12.5 2.25 12.5L11.75 12.5C12.1642 12.5 12.5 12.1642 12.5 11.75L12.5 2.25C12.5 1.83579 12.1642 1.5 11.75 1.5L2.25 1.5Z" fill-rule="EVENODD"></path>
  <path d="M9.67691 3.13336C9.33634 2.89758 8.86913 2.98253 8.63336 3.32309L4.13336 9.82309C3.89758 10.1637 3.98253 10.6309 4.32309 10.8666C4.66366 11.1024 5.13087 11.0175 5.36664 10.6769L9.86664 4.17691C10.1024 3.83634 10.0175 3.36913 9.67691 3.13336Z" fill-rule="EVENODD"></path>
 </g>
</svg>