<svg viewBox="0 0 24 24" width="24" height="24" fill="currentColor" xmlns="http://www.w3.org/2000/svg">
 <g transform="translate(4, 1)">
  <path d="M0 2.75C0 1.23122 1.23122 0 2.75 0L13.25 0C14.7688 0 16 1.23122 16 2.75L16 19.25C16 20.7688 14.7688 22 13.25 22L2.75 22C1.23122 22 0 20.7688 0 19.25L0 2.75ZM2.75 1.5C2.05964 1.5 1.5 2.05964 1.5 2.75L1.5 19.25C1.5 19.9404 2.05964 20.5 2.75 20.5L13.25 20.5C13.9404 20.5 14.5 19.9404 14.5 19.25L14.5 2.75C14.5 2.05964 13.9404 1.5 13.25 1.5L2.75 1.5Z" fill-rule="EVENODD"></path>
  <path d="M7 19C7 18.4477 7.44772 18 8 18L8.00999 18C8.56228 18 9.00999 18.4477 9.00999 19C9.00999 19.5523 8.56228 20 8.00999 20L8 20C7.44772 20 7 19.5523 7 19Z" fill-rule="EVENODD"></path>
 </g>
</svg>