<svg viewBox="0 0 16 16" width="16" height="16" fill="currentColor" xmlns="http://www.w3.org/2000/svg">
 <g transform="translate(2, 0)">
  <path d="M0 2.25C0 1.00736 1.00736 0 2.25 0L9.75 0C10.9926 0 12 1.00736 12 2.25L12 13.75C12 14.9926 10.9926 16 9.75 16L2.25 16C1.00736 16 0 14.9926 0 13.75L0 2.25ZM2.25 1.5C1.83579 1.5 1.5 1.83579 1.5 2.25L1.5 13.75C1.5 14.1642 1.83579 14.5 2.25 14.5L9.75 14.5C10.1642 14.5 10.5 14.1642 10.5 13.75L10.5 2.25C10.5 1.83579 10.1642 1.5 9.75 1.5L2.25 1.5Z" fill-rule="EVENODD"></path>
  <path d="M5 13C5 12.4477 5.44772 12 6 12L6.00666 12C6.55895 12 7.00666 12.4477 7.00666 13C7.00666 13.5523 6.55895 14 6.00666 14L6 14C5.44772 14 5 13.5523 5 13Z" fill-rule="EVENODD"></path>
 </g>
</svg>