<svg viewBox="0 0 16 16" width="16" height="16" fill="black" xmlns="http://www.w3.org/2000/svg">
 <g transform="translate(0, 0)">
  <path d="M8 1.5C4.41015 1.5 1.5 4.41015 1.5 8C1.5 11.5899 4.41015 14.5 8 14.5C11.5899 14.5 14.5 11.5899 14.5 8C14.5 4.41015 11.5899 1.5 8 1.5ZM0 8C0 3.58172 3.58172 0 8 0C12.4183 0 16 3.58172 16 8C16 12.4183 12.4183 16 8 16C3.58172 16 0 12.4183 0 8Z" fill-rule="EVENODD"></path>
  <path d="M10.267 11.055C9.78214 11.4957 9.00955 12 8 12C6.99045 12 6.21785 11.4957 5.733 11.055C5.48614 10.8305 5.29696 10.6078 5.16886 10.4407L4.95688 10.1359C4.74377 9.78069 4.85894 9.31999 5.21413 9.10688C5.5683 8.89438 6.02737 9.00829 6.24128 9.36108C6.27747 9.4188 6.31785 9.47403 6.35927 9.52805C6.44679 9.64221 6.57636 9.79446 6.742 9.94505C7.08215 10.2543 7.50955 10.5 8 10.5C8.49045 10.5 8.91785 10.2543 9.258 9.94505C9.42364 9.79446 9.55321 9.64221 9.64073 9.52805C9.68215 9.47403 9.72253 9.41879 9.75872 9.36108C9.97263 9.00829 10.4317 8.89438 10.7859 9.10688C11.1411 9.31999 11.2562 9.78069 11.0431 10.1359C10.9793 10.242 10.9064 10.3425 10.8311 10.4407C10.703 10.6078 10.5139 10.8305 10.267 11.055Z" fill-rule="EVENODD"></path>
  <path d="M5 6C5 5.44772 5.44772 5 6 5L6.00667 5C6.55895 5 7.00667 5.44772 7.00667 6C7.00667 6.55228 6.55895 7 6.00667 7L6 7C5.44772 7 5 6.55228 5 6Z" fill-rule="EVENODD"></path>
  <path d="M9 6C9 5.44772 9.44771 5 10 5L10.0067 5C10.559 5 11.0067 5.44772 11.0067 6C11.0067 6.55228 10.559 7 10.0067 7L10 7C9.44771 7 9 6.55228 9 6Z" fill-rule="EVENODD"></path>
 </g>
</svg>