<svg viewBox="0 0 24 24" width="24" height="24" fill="currentColor" xmlns="http://www.w3.org/2000/svg">
 <g transform="translate(1, 1)">
  <path d="M6.36211 13.6932C6.57808 13.9584 6.89638 14.3109 7.31004 14.6649C8.12941 15.3659 9.387 16.125 11 16.125C12.613 16.125 13.8706 15.3659 14.6899 14.6649C15.1036 14.3109 15.4219 13.9584 15.6379 13.6932C15.7463 13.5601 15.8302 13.4475 15.8886 13.3656L15.9878 13.2204C16.2476 12.8129 16.1278 12.2719 15.7204 12.0122C15.3136 11.7529 14.7736 11.8724 14.5132 12.278C14.4417 12.3854 14.3625 12.488 14.2811 12.588C14.1152 12.7916 13.869 13.0641 13.5522 13.3351C12.9108 13.8839 12.0434 14.375 11 14.375C9.95657 14.375 9.08915 13.8839 8.44775 13.3351C8.13094 13.0641 7.88479 12.7916 7.71892 12.588C7.63726 12.4878 7.55791 12.385 7.48628 12.2773C7.22592 11.8717 6.68632 11.7529 6.27962 12.0122C5.87214 12.2719 5.75239 12.8129 6.01216 13.2204C6.11758 13.3855 6.23854 13.5416 6.36211 13.6932Z" fill-rule="NONZERO"></path>
  <path d="M7 8C7 7.44772 7.44772 7 8 7L8.01 7C8.56229 7 9.01 7.44772 9.01 8C9.01 8.55229 8.56229 9 8.01 9L8 9C7.44772 9 7 8.55229 7 8Z" fill-rule="NONZERO"></path>
  <path d="M14 7C13.4477 7 13 7.44772 13 8C13 8.55229 13.4477 9 14 9L14.01 9C14.5623 9 15.01 8.55229 15.01 8C15.01 7.44772 14.5623 7 14.01 7L14 7Z" fill-rule="NONZERO"></path>
  <path d="M11 0C4.92487 0 0 4.92487 0 11C0 17.0751 4.92487 22 11 22C17.0751 22 22 17.0751 22 11C22 4.92487 17.0751 0 11 0ZM1.5 11C1.5 5.75329 5.75329 1.5 11 1.5C16.2467 1.5 20.5 5.75329 20.5 11C20.5 16.2467 16.2467 20.5 11 20.5C5.75329 20.5 1.5 16.2467 1.5 11Z" fill-rule="EVENODD"></path>
 </g>
</svg>