<svg viewBox="0 0 24 24" width="24" height="24" fill="black" xmlns="http://www.w3.org/2000/svg">
 <g transform="translate(1, 1)">
  <path d="M7.49148 14.5477C8.24538 15.253 9.41963 16 11 16C12.5804 16 13.7546 15.253 14.5085 14.5477C14.8866 14.1939 15.1695 13.8415 15.3587 13.5767L15.6606 13.1051C15.8567 12.7402 15.7199 12.2855 15.3551 12.0894C14.9906 11.8935 14.5363 12.0298 14.3399 12.3939C14.279 12.5013 14.2101 12.6042 14.1383 12.7046C13.9926 12.9085 13.7736 13.1811 13.4837 13.4523C12.9016 13.997 12.0759 14.5 11 14.5C9.92412 14.5 9.09837 13.997 8.51633 13.4523C8.22645 13.1811 8.00739 12.9085 7.86168 12.7046L7.66035 12.3944C7.46409 12.0299 7.0096 11.8934 6.64492 12.0894C6.28007 12.2855 6.14328 12.7402 6.33938 13.1051C6.42796 13.2696 6.53274 13.4248 6.64125 13.5767C6.8305 13.8415 7.11339 14.1939 7.49148 14.5477Z" fill-rule="EVENODD"></path>
  <path d="M11 1.5C5.75329 1.5 1.5 5.75329 1.5 11C1.5 16.2467 5.75329 20.5 11 20.5C16.2467 20.5 20.5 16.2467 20.5 11C20.5 5.75329 16.2467 1.5 11 1.5ZM0 11C0 4.92487 4.92487 0 11 0C17.0751 0 22 4.92487 22 11C22 17.0751 17.0751 22 11 22C4.92487 22 0 17.0751 0 11Z" fill-rule="EVENODD"></path>
  <path d="M7 8C7 7.44772 7.44772 7 8 7L8.01 7C8.56229 7 9.01 7.44772 9.01 8C9.01 8.55229 8.56229 9 8.01 9L8 9C7.44772 9 7 8.55229 7 8Z" fill-rule="EVENODD"></path>
  <path d="M13 8C13 7.44772 13.4477 7 14 7L14.01 7C14.5623 7 15.01 7.44772 15.01 8C15.01 8.55229 14.5623 9 14.01 9L14 9C13.4477 9 13 8.55229 13 8Z" fill-rule="EVENODD"></path>
 </g>
</svg>