<svg viewBox="0 0 24 24" width="24" height="24" fill="currentColor" xmlns="http://www.w3.org/2000/svg">
 <g transform="translate(1, 1)">
  <path d="M0 2.75C0 1.23122 1.23122 0 2.75 0L19.25 0C20.7688 0 22 1.23122 22 2.75L22 19.25C22 20.7688 20.7688 22 19.25 22L2.75 22C1.23122 22 0 20.7688 0 19.25L0 2.75ZM2.75 1.5C2.05964 1.5 1.5 2.05964 1.5 2.75L1.5 19.25C1.5 19.9404 2.05964 20.5 2.75 20.5L19.25 20.5C19.9404 20.5 20.5 19.9404 20.5 19.25L20.5 2.75C20.5 2.05964 19.9404 1.5 19.25 1.5L2.75 1.5Z" fill-rule="EVENODD"></path>
  <path d="M11 4.5C7.41015 4.5 4.5 7.41015 4.5 11C4.5 14.5899 7.41015 17.5 11 17.5C14.5899 17.5 17.5 14.5899 17.5 11C17.5 7.41015 14.5899 4.5 11 4.5ZM3 11C3 6.58172 6.58172 3 11 3C15.4183 3 19 6.58172 19 11C19 15.4183 15.4183 19 11 19C6.58172 19 3 15.4183 3 11Z" fill-rule="EVENODD"></path>
  <path d="M8 11C8 10.4477 8.44771 10 9 10L9.01 10C9.56229 10 10.01 10.4477 10.01 11C10.01 11.5523 9.56229 12 9.01 12L9 12C8.44771 12 8 11.5523 8 11Z" fill-rule="EVENODD"></path>
  <path d="M12.01 11C12.01 10.4477 12.4577 10 13.01 10L13.02 10C13.5723 10 14.02 10.4477 14.02 11C14.02 11.5523 13.5723 12 13.02 12L13.01 12C12.4577 12 12.01 11.5523 12.01 11Z" fill-rule="EVENODD"></path>
 </g>
</svg>