<svg viewBox="0 0 16 16" width="16" height="16" fill="black" xmlns="http://www.w3.org/2000/svg">
 <g transform="translate(0, 0)">
  <path d="M0 2.25C0 1.00736 1.00736 0 2.25 0L13.75 0C14.9926 0 16 1.00736 16 2.25L16 13.75C16 14.9926 14.9926 16 13.75 16L2.25 16C1.00736 16 0 14.9926 0 13.75L0 2.25ZM2.25 1.5C1.83579 1.5 1.5 1.83579 1.5 2.25L1.5 13.75C1.5 14.1642 1.83579 14.5 2.25 14.5L13.75 14.5C14.1642 14.5 14.5 14.1642 14.5 13.75L14.5 2.25C14.5 1.83579 14.1642 1.5 13.75 1.5L2.25 1.5Z" fill-rule="EVENODD"></path>
  <path d="M8 4C5.79086 4 4 5.79086 4 8C4 10.2091 5.79086 12 8 12C10.2091 12 12 10.2091 12 8C12 5.79086 10.2091 4 8 4ZM2.5 8C2.5 4.96243 4.96243 2.5 8 2.5C11.0376 2.5 13.5 4.96243 13.5 8C13.5 11.0376 11.0376 13.5 8 13.5C4.96243 13.5 2.5 11.0376 2.5 8Z" fill-rule="EVENODD"></path>
  <path d="M5 8C5 7.44772 5.44772 7 6 7L6.01 7C6.56228 7 7.01 7.44772 7.01 8C7.01 8.55229 6.56228 9 6.01 9L6 9C5.44772 9 5 8.55229 5 8Z" fill-rule="EVENODD"></path>
  <path d="M9.01001 8C9.01001 7.44772 9.45772 7 10.01 7L10.02 7C10.5723 7 11.02 7.44772 11.02 8C11.02 8.55229 10.5723 9 10.02 9L10.01 9C9.45772 9 9.01001 8.55229 9.01001 8Z" fill-rule="EVENODD"></path>
 </g>
</svg>