<svg viewBox="0 0 16 16" width="16" height="16" fill="black" xmlns="http://www.w3.org/2000/svg">
 <g transform="translate(2.25, 3.25)">
  <path d="M0 0.75C0 0.335786 0.335786 0 0.75 0L10.75 0C11.1642 0 11.5 0.335786 11.5 0.75C11.5 1.16421 11.1642 1.5 10.75 1.5L0.75 1.5C0.335786 1.5 0 1.16421 0 0.75Z" fill-rule="NONZERO"></path>
  <path d="M9.46291 10.9431C9.55134 10.9798 9.64831 11 9.75 11C9.85169 11 9.94866 10.9798 10.0371 10.9431C10.1255 10.9065 10.2084 10.8522 10.2803 10.7803L13.2803 7.78033C13.5732 7.48744 13.5732 7.01256 13.2803 6.71967C12.9874 6.42678 12.5126 6.42678 12.2197 6.71967L10.5 8.43934L10.5 3.25C10.5 2.83579 10.1642 2.5 9.75 2.5C9.33579 2.5 9 2.83579 9 3.25L9 8.43934L7.28033 6.71967C6.98744 6.42678 6.51256 6.42678 6.21967 6.71967C5.92678 7.01256 5.92678 7.48744 6.21967 7.78033L9.21967 10.7803C9.29158 10.8522 9.37445 10.9065 9.46291 10.9431Z" fill-rule="NONZERO"></path>
  <path d="M0.75 2.6665C0.335786 2.6665 0 3.00229 0 3.4165C0 3.83072 0.335786 4.1665 0.75 4.1665L6.75 4.1665C7.16421 4.1665 7.5 3.83072 7.5 3.4165C7.5 3.00229 7.16421 2.6665 6.75 2.6665L0.75 2.6665Z" fill-rule="NONZERO"></path>
  <path d="M0.75 5.3335C0.335786 5.3335 0 5.66928 0 6.0835C0 6.49771 0.335786 6.8335 0.75 6.8335L3.75 6.8335C4.16421 6.8335 4.5 6.49771 4.5 6.0835C4.5 5.66928 4.16421 5.3335 3.75 5.3335L0.75 5.3335Z" fill-rule="NONZERO"></path>
  <path d="M0 8.75C0 8.33579 0.335786 8 0.75 8L3.75 8C4.16421 8 4.5 8.33579 4.5 8.75C4.5 9.16421 4.16421 9.5 3.75 9.5L0.75 9.5C0.335786 9.5 0 9.16421 0 8.75Z" fill-rule="NONZERO"></path>
 </g>
</svg>