<svg viewBox="0 0 24 24" width="24" height="24" fill="currentColor" xmlns="http://www.w3.org/2000/svg">
 <g transform="translate(3, 5)">
  <path d="M0 0.75C0 0.335786 0.335786 0 0.75 0L17.25 0C17.6642 0 18 0.335786 18 0.75C18 1.16421 17.6642 1.5 17.25 1.5L0.75 1.5C0.335786 1.5 0 1.16421 0 0.75Z" fill-rule="NONZERO"></path>
  <path d="M0.75 4C0.335786 4 0 4.33579 0 4.75C0 5.16421 0.335786 5.5 0.75 5.5L10.25 5.5C10.6642 5.5 11 5.16421 11 4.75C11 4.33579 10.6642 4 10.25 4L0.75 4Z" fill-rule="NONZERO"></path>
  <path d="M13.9629 15.4431C14.0513 15.4798 14.1483 15.5 14.25 15.5C14.3517 15.5 14.4487 15.4798 14.5371 15.4431C14.6255 15.4065 14.7084 15.3522 14.7803 15.2803L18.7803 11.2803C19.0732 10.9874 19.0732 10.5126 18.7803 10.2197C18.4874 9.92678 18.0126 9.92678 17.7197 10.2197L15 12.9393L15 4.75C15 4.33579 14.6642 4 14.25 4C13.8358 4 13.5 4.33579 13.5 4.75L13.5 12.9393L10.7803 10.2197C10.4874 9.92678 10.0126 9.92678 9.71967 10.2197C9.42678 10.5126 9.42678 10.9874 9.71967 11.2803L13.7197 15.2803C13.7916 15.3522 13.8745 15.4065 13.9629 15.4431Z" fill-rule="NONZERO"></path>
  <path d="M0.75 8C0.335786 8 0 8.33579 0 8.75C0 9.16421 0.335786 9.5 0.75 9.5L6.25 9.5C6.66421 9.5 7 9.16421 7 8.75C7 8.33579 6.66421 8 6.25 8L0.75 8Z" fill-rule="NONZERO"></path>
  <path d="M0 12.75C0 12.3358 0.335786 12 0.75 12L4.25 12C4.66421 12 5 12.3358 5 12.75C5 13.1642 4.66421 13.5 4.25 13.5L0.75 13.5C0.335786 13.5 0 13.1642 0 12.75Z" fill-rule="NONZERO"></path>
 </g>
</svg>