<svg viewBox="0 0 16 16" width="16" height="16" fill="currentColor" xmlns="http://www.w3.org/2000/svg">
 <g transform="translate(2.25, 2.5)">
  <path d="M13.5303 3.21967C13.8232 3.51256 13.8232 3.98744 13.5303 4.28033C13.2374 4.57322 12.7626 4.57322 12.4697 4.28033L10.75 2.56066L10.75 7.25C10.75 7.66421 10.4142 8 10 8C9.58579 8 9.25 7.66421 9.25 7.25L9.25 2.56066L7.53033 4.28033C7.23744 4.57322 6.76256 4.57322 6.46967 4.28033C6.17678 3.98744 6.17678 3.51256 6.46967 3.21967L9.46967 0.21967C9.61554 0.0737953 9.80656 0.000573115 9.99775 3.29229e-06L10 0L10.0022 3.29229e-06C10.1031 0.000299431 10.1993 0.0205095 10.2871 0.056909C10.3755 0.0935088 10.4584 0.147762 10.5303 0.21967L13.5303 3.21967Z" fill-rule="NONZERO"></path>
  <path d="M0.75 8C0.335786 8 0 7.66421 0 7.25C0 6.83579 0.335786 6.5 0.75 6.5L6.75 6.5C7.16421 6.5 7.5 6.83579 7.5 7.25C7.5 7.66421 7.16421 8 6.75 8L0.75 8Z" fill-rule="NONZERO"></path>
  <path d="M0 10.25C0 10.6642 0.335786 11 0.75 11L10.75 11C11.1642 11 11.5 10.6642 11.5 10.25C11.5 9.83579 11.1642 9.5 10.75 9.5L0.75 9.5C0.335786 9.5 0 9.83579 0 10.25Z" fill-rule="NONZERO"></path>
  <path d="M0.75 5C0.335786 5 0 4.66421 0 4.25C0 3.83579 0.335786 3.5 0.75 3.5L3.75 3.5C4.16421 3.5 4.5 3.83579 4.5 4.25C4.5 4.66421 4.16421 5 3.75 5L0.75 5Z" fill-rule="NONZERO"></path>
  <path d="M0 1.25C0 1.66421 0.335786 2 0.75 2L3.75 2C4.16421 2 4.5 1.66421 4.5 1.25C4.5 0.835786 4.16421 0.5 3.75 0.5L0.75 0.5C0.335786 0.5 0 0.835786 0 1.25Z" fill-rule="NONZERO"></path>
 </g>
</svg>