<svg viewBox="0 0 16 16" width="16" height="16" fill="currentColor" xmlns="http://www.w3.org/2000/svg">
 <g transform="translate(1, 0)">
  <path d="M7.00005 5.5498C4.81852 5.5498 3.05005 7.31828 3.05005 9.4998C3.05005 11.6813 4.81852 13.4498 7.00005 13.4498C9.18157 13.4498 10.95 11.6813 10.95 9.4998C10.95 7.31828 9.18157 5.5498 7.00005 5.5498ZM4.45005 9.4998C4.45005 8.09148 5.59172 6.9498 7.00005 6.9498C8.40837 6.9498 9.55005 8.09148 9.55005 9.4998C9.55005 10.9081 8.40837 12.0498 7.00005 12.0498C5.59172 12.0498 4.45005 10.9081 4.45005 9.4998Z" fill-rule="EVENODD"></path>
  <path d="M2.25 0C1.00736 0 0 1.00736 0 2.25L0 13.75C0 14.9926 1.00736 16 2.25 16L11.75 16C12.9926 16 14 14.9926 14 13.75L14 2.25C14 1.00736 12.9926 0 11.75 0L2.25 0ZM1.5 2.25C1.5 1.83579 1.83579 1.5 2.25 1.5L11.75 1.5C12.1642 1.5 12.5 1.83579 12.5 2.25L12.5 13.75C12.5 14.1642 12.1642 14.5 11.75 14.5L2.25 14.5C1.83579 14.5 1.5 14.1642 1.5 13.75L1.5 2.25Z" fill-rule="EVENODD"></path>
 </g>
</svg>