<svg viewBox="0 0 16 16" width="16" height="16" fill="black" xmlns="http://www.w3.org/2000/svg">
 <g transform="translate(1.25, 1.25)">
  <path d="M2.08333 1.5C1.76117 1.5 1.5 1.76117 1.5 2.08333L1.5 11.4167C1.5 11.7388 1.76117 12 2.08333 12L11.4167 12C11.7388 12 12 11.7388 12 11.4167L12 2.08333C12 1.76117 11.7388 1.5 11.4167 1.5L2.08333 1.5ZM0 2.08333C0 0.93274 0.93274 0 2.08333 0L11.4167 0C12.5673 0 13.5 0.93274 13.5 2.08333L13.5 11.4167C13.5 12.5673 12.5673 13.5 11.4167 13.5L2.08333 13.5C0.93274 13.5 0 12.5673 0 11.4167L0 2.08333Z" fill-rule="EVENODD"></path>
 </g>
</svg>