<svg viewBox="0 0 24 24" width="24" height="24" fill="currentColor" xmlns="http://www.w3.org/2000/svg">
 <g transform="translate(1, 1)">
  <path d="M11.6726 0.418094C11.5462 0.162082 11.2855 0 11 0C10.7145 0 10.4538 0.162082 10.3275 0.418094L8.74384 3.62708C8.56053 3.99853 8.71305 4.44825 9.08449 4.63155C9.45594 4.81486 9.90565 4.66234 10.089 4.2909L11 2.44476L13.4947 7.49989C13.6039 7.72105 13.8147 7.87442 14.0588 7.91009L19.639 8.72591L16.8825 11.4113C16.5859 11.7003 16.5797 12.1752 16.8687 12.4719C17.1577 12.7686 17.6326 12.7748 17.9293 12.4857L21.7734 8.74068C21.9778 8.54152 22.0515 8.2436 21.9634 7.97212C21.8754 7.70063 21.6409 7.50265 21.3585 7.46136L14.6655 6.48285L11.6726 0.418094Z" fill-rule="NONZERO"></path>
  <path d="M17.8691 18.9297L18.0737 20.1232C18.122 20.4046 18.0063 20.689 17.7753 20.8568C17.5443 21.0246 17.2381 21.0467 16.9854 20.9138L11 17.7654L5.01467 20.9138C4.76199 21.0467 4.45576 21.0246 4.22476 20.8568C3.99376 20.689 3.87806 20.4046 3.92631 20.1232L5.06915 13.4584L0.22666 8.74068C0.022234 8.54152 -0.0514414 8.2436 0.0365968 7.97212C0.124635 7.70063 0.359127 7.50265 0.641526 7.46136L5.66611 6.72677L0.21967 1.28033C-0.0732233 0.987437 -0.0732233 0.512563 0.21967 0.21967C0.512563 -0.0732233 0.987437 -0.0732233 1.28033 0.21967L21.7803 20.7197C22.0732 21.0126 22.0732 21.4874 21.7803 21.7803C21.4874 22.0732 21.0126 22.0732 20.7197 21.7803L17.8691 18.9297ZM6.9887 8.04936L2.36107 8.72591L6.39838 12.6592C6.57524 12.8315 6.65596 13.0798 6.61423 13.3231L5.66162 18.8786L10.6509 16.2542C10.8694 16.1392 11.1306 16.1392 11.3492 16.2542L16.3384 18.8786L16.0322 17.0929L6.9887 8.04936Z" fill-rule="EVENODD"></path>
 </g>
</svg>