<svg viewBox="0 0 16 16" width="16" height="16" fill="currentColor" xmlns="http://www.w3.org/2000/svg">
 <g transform="translate(0.050000011920928955, 0.050000011920928955)">
  <path d="M7.95 1.95C8.24078 1.95 8.50536 2.11808 8.62892 2.3813L9.9268 5.14614L12.8139 5.58988C13.0917 5.63258 13.3223 5.82698 13.4114 6.09353C13.5004 6.36008 13.433 6.65405 13.2366 6.85513L11.1262 9.01663L11.6257 12.0793C11.672 12.3628 11.5522 12.6477 11.3174 12.8132C11.0826 12.9786 10.7739 12.9953 10.5226 12.8563L7.95 11.4337L5.37744 12.8563C5.12608 12.9953 4.81742 12.9786 4.58259 12.8132C4.34777 12.6477 4.22804 12.3628 4.27428 12.0793L4.77382 9.01663L2.66337 6.85513C2.46704 6.65405 2.3996 6.36008 2.48865 6.09353C2.5777 5.82698 2.80829 5.63258 3.08607 5.58988L5.9732 5.14614L7.27108 2.3813C7.39464 2.11808 7.65922 1.95 7.95 1.95ZM7.95 4.46498L7.16117 6.14541C7.05499 6.37159 6.84315 6.53005 6.59618 6.568L4.75565 6.85089L6.11163 8.23966C6.27799 8.41005 6.35355 8.64932 6.31522 8.88435L6.00339 10.7961L7.58706 9.92038C7.8129 9.79549 8.0871 9.79549 8.31294 9.92038L9.89661 10.7961L9.58478 8.88435C9.54645 8.64932 9.62201 8.41005 9.78837 8.23966L11.1444 6.85089L9.30381 6.568C9.05685 6.53005 8.84501 6.37159 8.73883 6.14541L7.95 4.46498Z" fill-rule="EVENODD"></path>
  <path d="M7.95 1.4C4.33253 1.4 1.4 4.33253 1.4 7.95C1.4 11.5675 4.33253 14.5 7.95 14.5C11.5675 14.5 14.5 11.5675 14.5 7.95C14.5 4.33253 11.5675 1.4 7.95 1.4ZM0 7.95C0 3.55934 3.55934 0 7.95 0C12.3407 0 15.9 3.55934 15.9 7.95C15.9 12.3407 12.3407 15.9 7.95 15.9C3.55934 15.9 0 12.3407 0 7.95Z" fill-rule="EVENODD"></path>
 </g>
</svg>