<svg viewBox="0 0 16 16" width="16" height="16" fill="currentColor" xmlns="http://www.w3.org/2000/svg">
 <g transform="translate(0.050048828125, 0.0498046875)">
  <path d="M8.62889 2.3815C8.50533 2.11827 8.24075 1.9502 7.94997 1.9502C7.65919 1.9502 7.39461 2.11827 7.27105 2.3815L5.97317 5.14634L3.08604 5.59008C2.80826 5.63277 2.57767 5.82717 2.48862 6.09373C2.39957 6.36028 2.46701 6.65425 2.66334 6.85533L4.77379 9.01682L4.27425 12.0795C4.22801 12.3629 4.34774 12.6479 4.58256 12.8133C4.81739 12.9788 5.12605 12.9955 5.37741 12.8565L7.94997 11.4339L10.5225 12.8565C10.7739 12.9955 11.0826 12.9788 11.3174 12.8133C11.5522 12.6479 11.6719 12.3629 11.6257 12.0795L11.1261 9.01682L13.2366 6.85533C13.4329 6.65425 13.5004 6.36028 13.4113 6.09373C13.3223 5.82717 13.0917 5.63277 12.8139 5.59008L9.92677 5.14634L8.62889 2.3815ZM7.16114 6.1456L7.94997 4.46518L8.7388 6.1456C8.84498 6.37179 9.05682 6.53024 9.30379 6.5682L11.1443 6.85108L9.78834 8.23986C9.62198 8.41024 9.54642 8.64952 9.58475 8.88455L9.89658 10.7963L8.31291 9.92057C8.08707 9.79568 7.81287 9.79568 7.58703 9.92057L6.00336 10.7963L6.31519 8.88455C6.35352 8.64952 6.27796 8.41024 6.1116 8.23986L4.75562 6.85108L6.59615 6.5682C6.84312 6.53024 7.05496 6.37179 7.16114 6.1456Z" fill-rule="EVENODD"></path>
  <path d="M7.95 0C3.55934 0 0 3.55934 0 7.95C0 12.3407 3.55934 15.9 7.95 15.9C12.3407 15.9 15.9 12.3407 15.9 7.95C15.9 3.55934 12.3407 0 7.95 0ZM1.4 7.95C1.4 4.33253 4.33253 1.4 7.95 1.4C11.5675 1.4 14.5 4.33253 14.5 7.95C14.5 11.5675 11.5675 14.5 7.95 14.5C4.33253 14.5 1.4 11.5675 1.4 7.95Z" fill-rule="EVENODD"></path>
 </g>
</svg>