<svg viewBox="0 0 16 16" width="16" height="16" fill="black" xmlns="http://www.w3.org/2000/svg">
 <g transform="translate(0.25, 0.25)">
  <path d="M1.28033 0.21967C0.987437 -0.0732233 0.512563 -0.0732233 0.21967 0.21967C-0.0732233 0.512563 -0.0732233 0.987437 0.21967 1.28033L3.72537 4.78603L0.974925 5.18805C0.692505 5.22933 0.457995 5.42733 0.369961 5.69884C0.281928 5.97034 0.355633 6.26828 0.560096 6.46743L3.61084 9.43885L2.89086 13.6367C2.84259 13.9181 2.95828 14.2025 3.18926 14.3703C3.42025 14.5381 3.72646 14.5602 3.97915 14.4273L7.75006 12.4442L11.521 14.4273C11.7737 14.5602 12.0799 14.5381 12.3109 14.3703C12.5312 14.2102 12.6466 13.944 12.6149 13.6756L14.2197 15.2803C14.5126 15.5732 14.9874 15.5732 15.2803 15.2803C15.5732 14.9874 15.5732 14.5126 15.2803 14.2197L12.0636 11.0029C12.0284 10.9589 11.9885 10.919 11.9448 10.8841L5.90454 4.84388C5.86945 4.79991 5.82961 4.76014 5.78592 4.72526L1.28033 0.21967ZM5.04799 6.10865L2.6947 6.45262L4.94003 8.63956C5.11693 8.81187 5.19768 9.06022 5.15594 9.30361L4.6262 12.3923L7.40097 10.933C7.61951 10.8181 7.88061 10.8181 8.09915 10.933L10.8739 12.3923L10.7792 11.8398L5.04799 6.10865Z" fill-rule="EVENODD"></path>
  <path d="M8.42259 0.751528C8.29624 0.49555 8.03553 0.333496 7.75006 0.333496C7.4646 0.333496 7.20389 0.49555 7.07753 0.751528L6.04753 2.83819C5.86419 3.20962 6.01667 3.65935 6.38809 3.84269C6.75952 4.02603 7.20925 3.87356 7.39259 3.50213L7.75006 2.77794L9.13753 5.5888C9.24669 5.80993 9.45758 5.96328 9.70159 5.99894L12.8054 6.45262L11.3926 7.82872C11.0959 8.11773 11.0896 8.59256 11.3786 8.88929C11.6676 9.18601 12.1425 9.19226 12.4392 8.90325L14.94 6.46743C15.1445 6.26828 15.2182 5.97034 15.1302 5.69884C15.0421 5.42733 14.8076 5.22933 14.5252 5.18805L10.3083 4.57168L8.42259 0.751528Z" fill-rule="NONZERO"></path>
 </g>
</svg>