<svg viewBox="0 0 16 16" width="16" height="16" fill="currentColor" xmlns="http://www.w3.org/2000/svg">
 <g transform="translate(-0.0000000013797034625895321, 0.5)">
  <path d="M8.66972 0.412344C8.54223 0.159491 8.2832 0 8.00002 0C7.71685 0 7.45782 0.159491 7.33033 0.412344L6.44799 2.16234C6.26151 2.53221 6.41016 2.98321 6.78003 3.16969C7.14989 3.35617 7.60089 3.20752 7.78737 2.83766L8.00002 2.4159L9.57058 5.53087C9.68095 5.74978 9.89135 5.90093 10.134 5.93566L13.6142 6.43365L12.3152 7.67229C12.0154 7.95814 12.0041 8.43288 12.29 8.73265C12.5758 9.03243 13.0506 9.04371 13.3503 8.75786L15.7676 6.45288C15.9755 6.25464 16.0519 5.95507 15.9643 5.68148C15.8768 5.40789 15.6406 5.20835 15.3563 5.16766L10.7338 4.5062L8.66972 0.412344Z" fill-rule="NONZERO"></path>
  <path d="M13.1469 13.7076L13.2193 14.1206C13.2684 14.4011 13.1544 14.6853 12.925 14.8541C12.6956 15.0229 12.3904 15.0472 12.1372 14.9168L8.00002 12.7868L3.86283 14.9168C3.60961 15.0472 3.30441 15.0229 3.07501 14.8541C2.84562 14.6853 2.73163 14.4011 2.78077 14.1206L3.56703 9.63257L0.232449 6.45288C0.0245535 6.25464 -0.0518472 5.95507 0.0357152 5.68148C0.123278 5.40789 0.359418 5.20835 0.643783 5.16766L4.11087 4.67153L1.21967 1.78033C0.926777 1.48744 0.926777 1.01256 1.21967 0.71967C1.51256 0.426777 1.98744 0.426777 2.28033 0.71967L14.7803 13.2197C15.0732 13.5126 15.0732 13.9874 14.7803 14.2803C14.4874 14.5732 14.0126 14.5732 13.7197 14.2803L13.1469 13.7076ZM5.43646 5.99712L2.38588 6.43365L4.8926 8.82393C5.07404 8.99695 5.15704 9.24919 5.11377 9.49614L4.51887 12.8919L7.65671 11.2764C7.87215 11.1655 8.1279 11.1655 8.34333 11.2764L11.4812 12.8919L11.3006 11.8613L5.43646 5.99712Z" fill-rule="EVENODD"></path>
 </g>
</svg>