<svg viewBox="0 0 24 24" width="24" height="24" fill="currentColor" xmlns="http://www.w3.org/2000/svg">
 <g transform="translate(1, 1)">
  <path d="M11.669 3.91086C11.5412 3.65882 11.2826 3.5 11 3.5C10.7174 3.5 10.4589 3.65882 10.3311 3.91086L8.42194 7.6766L4.14435 8.28535C3.85949 8.32589 3.62293 8.52583 3.53549 8.79996C3.44805 9.07409 3.52516 9.37408 3.73394 9.57207L6.81647 12.4953L6.0899 16.6199C6.04052 16.9002 6.15407 17.1843 6.38305 17.3534C6.61204 17.5224 6.91699 17.5473 7.17034 17.4176L11 15.4567L14.8297 17.4176C15.0831 17.5473 15.388 17.5224 15.617 17.3534C15.846 17.1843 15.9595 16.9002 15.9102 16.6199L15.1836 12.4953L18.2661 9.57207C18.4749 9.37408 18.552 9.07409 18.4646 8.79996C18.3771 8.52583 18.1406 8.32589 17.8557 8.28535L13.5781 7.6766L11.669 3.91086ZM9.58322 8.70323L11 5.90861L12.4168 8.70323C12.5275 8.92155 12.7378 9.07212 12.9801 9.10661L16.1077 9.5517L13.8589 11.6842C13.6763 11.8574 13.5927 12.1107 13.6364 12.3586L14.1713 15.3953L11.3418 13.9465C11.1272 13.8366 10.8728 13.8366 10.6582 13.9465L7.82871 15.3953L8.36365 12.3586C8.40732 12.1107 8.32373 11.8574 8.1411 11.6842L5.89235 9.5517L9.01994 9.10661C9.26228 9.07212 9.47253 8.92155 9.58322 8.70323Z" fill-rule="EVENODD"></path>
  <path d="M11 0C4.92487 0 0 4.92487 0 11C0 17.0751 4.92487 22 11 22C17.0751 22 22 17.0751 22 11C22 4.92487 17.0751 0 11 0ZM1.5 11C1.5 5.75329 5.75329 1.5 11 1.5C16.2467 1.5 20.5 5.75329 20.5 11C20.5 16.2467 16.2467 20.5 11 20.5C5.75329 20.5 1.5 16.2467 1.5 11Z" fill-rule="EVENODD"></path>
 </g>
</svg>