<svg viewBox="0 0 24 24" width="24" height="24" fill="black" xmlns="http://www.w3.org/2000/svg">
 <g transform="translate(0.9999781847000122, 1)">
  <path d="M0.219692 0.21967C0.512585 -0.0732233 0.987459 -0.0732233 1.28035 0.21967L21.7804 20.7197C22.0732 21.0126 22.0732 21.4874 21.7804 21.7803C21.4875 22.0732 21.0126 22.0732 20.7197 21.7803L0.219692 1.28033C-0.0732015 0.987437 -0.0732015 0.512563 0.219692 0.21967Z" fill-rule="EVENODD"></path>
  <path d="M11 0C11.2855 0 11.5462 0.162082 11.6726 0.418094L14.6655 6.48285L21.3585 7.46136C21.6409 7.50265 21.8754 7.70063 21.9634 7.97212C22.0515 8.2436 21.9778 8.54152 21.7734 8.74068L17.9293 12.4857C17.6326 12.7748 17.1577 12.7686 16.8687 12.4719C16.5797 12.1752 16.5859 11.7003 16.8825 11.4113L19.639 8.72591L14.0588 7.91009C13.8147 7.87442 13.6039 7.72105 13.4947 7.49989L11 2.44476L10.089 4.2909C9.90565 4.66234 9.45594 4.81486 9.08449 4.63155C8.71305 4.44825 8.56053 3.99853 8.74384 3.62708L10.3275 0.418094C10.4538 0.162082 10.7145 0 11 0ZM7.96736 7.14831C8.02728 7.55816 7.7436 7.93899 7.33374 7.99891L2.36107 8.72591L6.39838 12.6592C6.57524 12.8315 6.65596 13.0798 6.61423 13.3231L5.66162 18.8786L10.6509 16.2542C10.8694 16.1392 11.1306 16.1392 11.3492 16.2542L16.3384 18.8786L15.9985 16.896C15.9284 16.4877 16.2027 16.1 16.6109 16.03C17.0192 15.96 17.4069 16.2342 17.4769 16.6425L18.0737 20.1232C18.122 20.4046 18.0063 20.689 17.7753 20.8568C17.5443 21.0246 17.2381 21.0467 16.9854 20.9138L11 17.7654L5.01467 20.9138C4.76199 21.0467 4.45576 21.0246 4.22476 20.8568C3.99376 20.689 3.87806 20.4046 3.92631 20.1232L5.06915 13.4584L0.22666 8.74068C0.022234 8.54152 -0.0514414 8.2436 0.0365968 7.97212C0.124635 7.70063 0.359127 7.50265 0.641526 7.46136L7.11675 6.51469C7.52661 6.45477 7.90744 6.73845 7.96736 7.14831Z" fill-rule="EVENODD"></path>
 </g>
</svg>