<svg viewBox="0 0 24 24" width="24" height="24" fill="black" xmlns="http://www.w3.org/2000/svg">
 <g transform="translate(1.249969482421875, 1.25)">
  <path d="M11.4226 0.418032C11.2962 0.162054 11.0355 0 10.75 0C10.4646 0 10.2038 0.162054 10.0775 0.418032L7.16183 6.32485L0.641551 7.27789C0.359131 7.31917 0.124621 7.51717 0.0365873 7.78868C-0.0514459 8.06018 0.0222586 8.35812 0.226722 8.55727L4.94413 13.152L3.83082 19.6432C3.78255 19.9246 3.89824 20.209 4.12922 20.3768C4.3602 20.5446 4.66642 20.5667 4.91911 20.4338L10.75 17.3674L16.5809 20.4338C16.8336 20.5667 17.1398 20.5446 17.3708 20.3768C17.6018 20.209 17.7175 19.9246 17.6692 19.6432L16.5559 13.152L21.2733 8.55727C21.4778 8.35812 21.5515 8.06018 21.4635 7.78868C21.3754 7.51717 21.1409 7.31917 20.8585 7.27789L14.3382 6.32485L11.4226 0.418032Z" fill-rule="NONZERO"></path>
 </g>
</svg>