<svg viewBox="0 0 16 16" width="16" height="16" fill="currentColor" xmlns="http://www.w3.org/2000/svg">
 <g transform="translate(0.0000000010854819265659899, 0.5)">
  <path d="M8.66972 0.412344C8.54223 0.159491 8.2832 0 8.00002 0C7.71685 0 7.45782 0.159491 7.33033 0.412344L5.26623 4.5062L0.643783 5.16766C0.359418 5.20835 0.123278 5.40789 0.0357152 5.68148C-0.0518472 5.95507 0.0245535 6.25464 0.232449 6.45288L3.56703 9.63257L2.78077 14.1206C2.73163 14.4011 2.84562 14.6853 3.07501 14.8541C3.30441 15.0229 3.60961 15.0472 3.86283 14.9168L8.00002 12.7868L12.1372 14.9168C12.3904 15.0472 12.6956 15.0229 12.925 14.8541C13.1544 14.6853 13.2684 14.4011 13.2193 14.1206L12.433 9.63257L15.7676 6.45288C15.9755 6.25464 16.0519 5.95507 15.9643 5.68148C15.8768 5.40789 15.6406 5.20835 15.3563 5.16766L10.7338 4.5062L8.66972 0.412344Z" fill-rule="NONZERO"></path>
 </g>
</svg>