<svg viewBox="0 0 16 16" width="16" height="16" fill="black" xmlns="http://www.w3.org/2000/svg">
 <g transform="translate(0.25, 0.25)">
  <path d="M5.75 5C5.33579 5 5 5.33579 5 5.75L5 9.75C5 10.1642 5.33579 10.5 5.75 10.5L9.75 10.5C10.1642 10.5 10.5 10.1642 10.5 9.75L10.5 5.75C10.5 5.33579 10.1642 5 9.75 5L5.75 5Z" fill-rule="NONZERO"></path>
  <path d="M0 7.75C0 3.46979 3.46979 0 7.75 0C12.0302 0 15.5 3.46979 15.5 7.75C15.5 12.0302 12.0302 15.5 7.75 15.5C3.46979 15.5 0 12.0302 0 7.75ZM7.75 1.5C4.29822 1.5 1.5 4.29822 1.5 7.75C1.5 11.2018 4.29822 14 7.75 14C11.2018 14 14 11.2018 14 7.75C14 4.29822 11.2018 1.5 7.75 1.5Z" fill-rule="EVENODD"></path>
 </g>
</svg>