<svg viewBox="0 0 16 16" width="16" height="16" fill="currentColor" xmlns="http://www.w3.org/2000/svg">
 <g transform="translate(1.25, -0.000003337860107421875)">
  <path d="M0.200408 3.73966C-0.081444 4.04319 -0.0638681 4.51774 0.239665 4.7996C0.543198 5.08145 1.01775 5.06387 1.2996 4.76034L3.25 2.65991L3.25 8.25C3.25 8.66422 3.58579 9 4 9C4.41421 9 4.75 8.66422 4.75 8.25L4.75 2.6599L6.70041 4.76034C6.98226 5.06387 7.45681 5.08145 7.76034 4.7996C8.06388 4.51774 8.08145 4.04319 7.7996 3.73966L4.5496 0.239662C4.40769 0.0868363 4.20856 0 4 0C3.79145 0 3.59232 0.0868363 3.45041 0.239662L0.200408 3.73966Z" fill-rule="NONZERO"></path>
  <path d="M9.5 7C9.08579 7 8.75 7.33579 8.75 7.75L8.75 13.3401L6.79959 11.2397C6.51774 10.9361 6.04319 10.9186 5.73966 11.2004C5.43613 11.4823 5.41855 11.9568 5.7004 12.2603L8.9504 15.7603C9.09231 15.9132 9.29144 16 9.5 16C9.70855 16 9.90768 15.9132 10.0496 15.7603L13.2996 12.2603C13.5814 11.9568 13.5639 11.4823 13.2603 11.2004C12.9568 10.9186 12.4823 10.9361 12.2004 11.2397L10.25 13.3401L10.25 7.75C10.25 7.33579 9.91421 7 9.5 7Z" fill-rule="NONZERO"></path>
 </g>
</svg>