<svg viewBox="0 0 24 24" width="24" height="24" fill="black" xmlns="http://www.w3.org/2000/svg">
 <g transform="translate(1, 5.249998092651367)">
  <path d="M10 5C10 4.58579 10.3358 4.25 10.75 4.25L21.25 4.25C21.6642 4.25 22 4.58579 22 5C22 5.41422 21.6642 5.75 21.25 5.75L10.75 5.75C10.3358 5.75 10 5.41422 10 5Z" fill-rule="EVENODD"></path>
  <path d="M16.2047 0.235034C16.4891 -0.0661045 16.9638 -0.0796667 17.265 0.204742L21.765 4.45474C21.915 4.59642 22 4.79366 22 5C22 5.20635 21.915 5.40358 21.765 5.54526L17.265 9.79526C16.9638 10.0797 16.4891 10.0661 16.2047 9.76497C15.9203 9.46383 15.9339 8.98915 16.235 8.70474L20.1577 5L16.235 1.29526C15.9339 1.01085 15.9203 0.536173 16.2047 0.235034Z" fill-rule="EVENODD"></path>
  <path d="M0 8.5C0 8.08579 0.335786 7.75 0.75 7.75L11.25 7.75C11.6642 7.75 12 8.08579 12 8.5C12 8.91422 11.6642 9.25 11.25 9.25L0.75 9.25C0.335786 9.25 0 8.91422 0 8.5Z" fill-rule="EVENODD"></path>
  <path d="M5.79526 13.265C5.51085 13.5661 5.03617 13.5797 4.73503 13.2953L0.235033 9.04526C0.0850158 8.90358 -2.52702e-17 8.70635 0 8.5C2.52702e-17 8.29366 0.0850158 8.09642 0.235033 7.95474L4.73503 3.70474C5.03617 3.42033 5.51085 3.4339 5.79526 3.73503C6.07967 4.03617 6.06611 4.51085 5.76497 4.79526L1.8423 8.5L5.76497 12.2047C6.06611 12.4892 6.07967 12.9638 5.79526 13.265Z" fill-rule="EVENODD"></path>
 </g>
</svg>