<svg viewBox="0 0 16 16" width="16" height="16" fill="currentColor" xmlns="http://www.w3.org/2000/svg">
 <g transform="translate(-0.000003337860107421875, 1.25)">
  <path d="M12.2603 0.200408C11.9568 -0.081444 11.4823 -0.0638681 11.2004 0.239665C10.9186 0.543198 10.9361 1.01775 11.2397 1.2996L13.3401 3.25L7.75 3.25C7.33579 3.25 7 3.58579 7 4C7 4.41421 7.33579 4.75 7.75 4.75L13.3401 4.75L11.2397 6.70041C10.9361 6.98226 10.9186 7.45681 11.2004 7.76034C11.4823 8.06388 11.9568 8.08145 12.2603 7.7996L15.7603 4.5496C15.9132 4.40769 16 4.20856 16 4C16 3.79145 15.9132 3.59232 15.7603 3.45041L12.2603 0.200408Z" fill-rule="NONZERO"></path>
  <path d="M2.6599 8.75L4.76034 6.79959C5.06387 6.51774 5.08145 6.04319 4.7996 5.73966C4.51774 5.43613 4.04319 5.41855 3.73966 5.7004L0.239662 8.9504C0.0868363 9.09231 0 9.29144 0 9.5C0 9.70855 0.0868363 9.90768 0.239662 10.0496L3.73966 13.2996C4.04319 13.5814 4.51774 13.5639 4.7996 13.2603C5.08145 12.9568 5.06387 12.4823 4.76034 12.2004L2.65991 10.25L8.25 10.25C8.66422 10.25 9 9.91421 9 9.5C9 9.08579 8.66422 8.75 8.25 8.75L2.6599 8.75Z" fill-rule="NONZERO"></path>
 </g>
</svg>