<svg viewBox="0 0 16 16" width="16" height="16" fill="black" xmlns="http://www.w3.org/2000/svg">
 <g transform="translate(1.2499967813491821, -0.0000000000009094947017729282)">
  <path d="M4 9.09495e-13C3.58579 9.60418e-10 3.25 0.335786 3.25 0.75L3.25 8.25C3.25 8.66421 3.58579 9 4 9C4.41422 9 4.75 8.66421 4.75 8.25L4.75 0.75C4.75 0.335786 4.41422 -9.58599e-10 4 9.09495e-13Z" fill-rule="EVENODD"></path>
  <path d="M0.239665 4.7996C-0.0638681 4.51774 -0.081444 4.04319 0.200408 3.73966L3.45041 0.239662C3.59232 0.0868363 3.79145 9.09482e-13 4 9.09495e-13C4.20856 9.09507e-13 4.40769 0.0868363 4.5496 0.239662L7.7996 3.73966C8.08145 4.04319 8.06388 4.51774 7.76034 4.7996C7.45681 5.08145 6.98226 5.06387 6.70041 4.76034L4 1.85221L1.2996 4.76034C1.01775 5.06387 0.543198 5.08145 0.239665 4.7996Z" fill-rule="EVENODD"></path>
  <path d="M9.5 7C9.08579 7 8.75 7.33579 8.75 7.75L8.75 15.25C8.75 15.6642 9.08579 16 9.5 16C9.91422 16 10.25 15.6642 10.25 15.25L10.25 7.75C10.25 7.33579 9.91422 7 9.5 7Z" fill-rule="EVENODD"></path>
  <path d="M13.2603 11.2004C13.5639 11.4823 13.5814 11.9568 13.2996 12.2603L10.0496 15.7603C9.90769 15.9132 9.70855 16 9.5 16C9.29145 16 9.09232 15.9132 8.95041 15.7603L5.70041 12.2603C5.41856 11.9568 5.43613 11.4823 5.73966 11.2004C6.0432 10.9186 6.51775 10.9361 6.7996 11.2397L9.5 14.1478L12.2004 11.2397C12.4823 10.9361 12.9568 10.9186 13.2603 11.2004Z" fill-rule="EVENODD"></path>
 </g>
</svg>