<svg viewBox="0 0 24 24" width="24" height="24" fill="currentColor" xmlns="http://www.w3.org/2000/svg">
 <g transform="translate(1, 1)">
  <path d="M1.25 0C0.559644 0 0 0.559644 0 1.25L0 4.75C0 5.44036 0.559644 6 1.25 6L4.75 6C5.44036 6 6 5.44036 6 4.75L6 1.25C6 0.559644 5.44036 0 4.75 0L1.25 0Z" fill-rule="NONZERO"></path>
  <path d="M9.25 0C8.55964 0 8 0.559644 8 1.25L8 4.75C8 5.44036 8.55964 6 9.25 6L12.75 6C13.4404 6 14 5.44036 14 4.75L14 1.25C14 0.559644 13.4404 0 12.75 0L9.25 0Z" fill-rule="NONZERO"></path>
  <path d="M17.25 0C16.5596 0 16 0.559644 16 1.25L16 4.75C16 5.44036 16.5596 6 17.25 6L20.75 6C21.4404 6 22 5.44036 22 4.75L22 1.25C22 0.559644 21.4404 0 20.75 0L17.25 0Z" fill-rule="NONZERO"></path>
  <path d="M1.25 8C0.559644 8 0 8.55964 0 9.25L0 12.75C0 13.4404 0.559644 14 1.25 14L4.75 14C5.44036 14 6 13.4404 6 12.75L6 9.25C6 8.55964 5.44036 8 4.75 8L1.25 8Z" fill-rule="NONZERO"></path>
  <path d="M9.25 8C8.55964 8 8 8.55964 8 9.25L8 12.75C8 13.4404 8.55964 14 9.25 14L12.75 14C13.4404 14 14 13.4404 14 12.75L14 9.25C14 8.55964 13.4404 8 12.75 8L9.25 8Z" fill-rule="NONZERO"></path>
  <path d="M17.25 8C16.5596 8 16 8.55964 16 9.25L16 12.75C16 13.4404 16.5596 14 17.25 14L20.75 14C21.4404 14 22 13.4404 22 12.75L22 9.25C22 8.55964 21.4404 8 20.75 8L17.25 8Z" fill-rule="NONZERO"></path>
  <path d="M1.25 16C0.559644 16 0 16.5596 0 17.25L0 20.75C0 21.4404 0.559644 22 1.25 22L4.75 22C5.44036 22 6 21.4404 6 20.75L6 17.25C6 16.5596 5.44036 16 4.75 16L1.25 16Z" fill-rule="NONZERO"></path>
  <path d="M9.25 16C8.55964 16 8 16.5596 8 17.25L8 20.75C8 21.4404 8.55964 22 9.25 22L12.75 22C13.4404 22 14 21.4404 14 20.75L14 17.25C14 16.5596 13.4404 16 12.75 16L9.25 16Z" fill-rule="NONZERO"></path>
  <path d="M17.25 16C16.5596 16 16 16.5596 16 17.25L16 20.75C16 21.4404 16.5596 22 17.25 22L20.75 22C21.4404 22 22 21.4404 22 20.75L22 17.25C22 16.5596 21.4404 16 20.75 16L17.25 16Z" fill-rule="NONZERO"></path>
 </g>
</svg>