<svg viewBox="0 0 16 16" width="16" height="16" fill="currentColor" xmlns="http://www.w3.org/2000/svg">
 <g transform="translate(0, 1)">
  <path d="M0 2.25C0 1.00736 1.00736 0 2.25 0L13.75 0C14.9926 0 16 1.00736 16 2.25L16 11.75C16 12.9926 14.9926 14 13.75 14L2.25 14C1.00736 14 0 12.9926 0 11.75L0 2.25ZM2.25 1.5C1.83579 1.5 1.5 1.83579 1.5 2.25L1.5 11.75C1.5 12.1642 1.83579 12.5 2.25 12.5L13.75 12.5C14.1642 12.5 14.5 12.1642 14.5 11.75L14.5 2.25C14.5 1.83579 14.1642 1.5 13.75 1.5L2.25 1.5Z" fill-rule="EVENODD"></path>
  <path d="M7 11C7 10.4477 7.44772 10 8 10L8.01 10C8.56229 10 9.01 10.4477 9.01 11C9.01 11.5523 8.56229 12 8.01 12L8 12C7.44772 12 7 11.5523 7 11Z" fill-rule="EVENODD"></path>
 </g>
</svg>