<svg viewBox="0 0 16 16" width="16" height="16" fill="currentColor" xmlns="http://www.w3.org/2000/svg">
 <g transform="translate(0, 1)">
  <path d="M8 10C7.44772 10 7 10.4477 7 11C7 11.5523 7.44772 12 8 12L8.01 12C8.56229 12 9.01 11.5523 9.01 11C9.01 10.4477 8.56229 10 8.01 10L8 10Z" fill-rule="NONZERO"></path>
  <path d="M2.25 0C1.00736 0 0 1.00736 0 2.25L0 11.75C0 12.9926 1.00736 14 2.25 14L13.75 14C14.9926 14 16 12.9926 16 11.75L16 2.25C16 1.00736 14.9926 0 13.75 0L2.25 0ZM1.5 2.25C1.5 1.83579 1.83579 1.5 2.25 1.5L13.75 1.5C14.1642 1.5 14.5 1.83579 14.5 2.25L14.5 11.75C14.5 12.1642 14.1642 12.5 13.75 12.5L2.25 12.5C1.83579 12.5 1.5 12.1642 1.5 11.75L1.5 2.25Z" fill-rule="EVENODD"></path>
 </g>
</svg>