<svg viewBox="0 0 24 24" width="24" height="24" fill="currentColor" xmlns="http://www.w3.org/2000/svg">
 <g transform="translate(1, 3)">
  <path d="M11 14C10.4477 14 10 14.4477 10 15C10 15.5523 10.4477 16 11 16L11.01 16C11.5623 16 12.01 15.5523 12.01 15C12.01 14.4477 11.5623 14 11.01 14L11 14Z" fill-rule="NONZERO"></path>
  <path d="M2.75 0C1.23122 0 0 1.23122 0 2.75L0 15.25C0 16.7688 1.23122 18 2.75 18L19.25 18C20.7688 18 22 16.7688 22 15.25L22 2.75C22 1.23122 20.7688 0 19.25 0L2.75 0ZM1.5 2.75C1.5 2.05964 2.05964 1.5 2.75 1.5L19.25 1.5C19.9404 1.5 20.5 2.05964 20.5 2.75L20.5 15.25C20.5 15.9404 19.9404 16.5 19.25 16.5L2.75 16.5C2.05964 16.5 1.5 15.9404 1.5 15.25L1.5 2.75Z" fill-rule="EVENODD"></path>
 </g>
</svg>