<svg viewBox="0 0 24 24" width="24" height="24" fill="black" xmlns="http://www.w3.org/2000/svg">
 <g transform="translate(3.25, 1.25)">
  <path d="M8.75 16.75C8.19771 16.75 7.75 17.1977 7.75 17.75C7.75 18.3023 8.19771 18.75 8.75 18.75L8.76 18.75C9.31228 18.75 9.76 18.3023 9.76 17.75C9.76 17.1977 9.31228 16.75 8.76 16.75L8.75 16.75Z" fill-rule="NONZERO"></path>
  <path d="M2.75 0C1.23122 0 0 1.23122 0 2.75L0 18.75C0 20.2688 1.23122 21.5 2.75 21.5L14.75 21.5C16.2688 21.5 17.5 20.2688 17.5 18.75L17.5 2.75C17.5 1.23122 16.2688 0 14.75 0L2.75 0ZM1.5 2.75C1.5 2.05964 2.05964 1.5 2.75 1.5L14.75 1.5C15.4404 1.5 16 2.05964 16 2.75L16 18.75C16 19.4404 15.4404 20 14.75 20L2.75 20C2.05964 20 1.5 19.4404 1.5 18.75L1.5 2.75Z" fill-rule="EVENODD"></path>
 </g>
</svg>