<svg viewBox="0 0 24 24" width="24" height="24" fill="currentColor" xmlns="http://www.w3.org/2000/svg">
 <g transform="translate(2, 2)">
  <path d="M4 3C3.44772 3 3 3.44772 3 4C3 4.55228 3.44772 5 4 5L4.01 5C4.56228 5 5.01 4.55228 5.01 4C5.01 3.44772 4.56228 3 4.01 3L4 3Z" fill-rule="NONZERO"></path>
  <path d="M2.75 0C1.23122 0 0 1.23122 0 2.75L0 9.17157C0 9.90092 0.289731 10.6004 0.805456 11.1161L8.80546 19.1161C9.8794 20.1901 11.6206 20.1901 12.6945 19.1161L19.1161 12.6945C20.1901 11.6206 20.1901 9.8794 19.1161 8.80546L11.1161 0.805456C10.6004 0.289731 9.90092 0 9.17157 0L2.75 0ZM1.5 2.75C1.5 2.05964 2.05964 1.5 2.75 1.5L9.17157 1.5C9.50309 1.5 9.82104 1.6317 10.0555 1.86612L18.0555 9.86612C18.5436 10.3543 18.5436 11.1457 18.0555 11.6339L11.6339 18.0555C11.1457 18.5436 10.3543 18.5436 9.86612 18.0555L1.86612 10.0555C1.6317 9.82104 1.5 9.50309 1.5 9.17157L1.5 2.75Z" fill-rule="EVENODD"></path>
 </g>
</svg>