<svg viewBox="0 0 24 24" width="24" height="24" fill="black" xmlns="http://www.w3.org/2000/svg">
 <g transform="translate(3.25, 4.25)">
  <path d="M1.28033 0.21967C0.987437 -0.0732233 0.512563 -0.0732233 0.21967 0.21967C-0.0732233 0.512563 -0.0732233 0.987437 0.21967 1.28033L5.68934 6.75L0.21967 12.2197C-0.0732233 12.5126 -0.0732233 12.9874 0.21967 13.2803C0.512563 13.5732 0.987437 13.5732 1.28033 13.2803L7.28033 7.28033C7.57322 6.98744 7.57322 6.51256 7.28033 6.21967L1.28033 0.21967Z" fill-rule="NONZERO"></path>
  <path d="M8.75 14C8.33579 14 8 14.3358 8 14.75C8 15.1642 8.33579 15.5 8.75 15.5L16.75 15.5C17.1642 15.5 17.5 15.1642 17.5 14.75C17.5 14.3358 17.1642 14 16.75 14L8.75 14Z" fill-rule="NONZERO"></path>
 </g>
</svg>