<svg viewBox="0 0 24 24" width="24" height="24" fill="currentColor" xmlns="http://www.w3.org/2000/svg">
 <g transform="translate(1, 2)">
  <path d="M5.17385 5.26988C5.43903 4.95167 5.91195 4.90868 6.23016 5.17385L10.7302 8.92385C10.9012 9.06635 11 9.27743 11 9.50002C11 9.7226 10.9012 9.93369 10.7302 10.0762L6.23016 13.8262C5.91195 14.0914 5.43903 14.0484 5.17385 13.7302C4.90868 13.4119 4.95167 12.939 5.26988 12.6739L9.07848 9.50002L5.26988 6.32618C4.95167 6.06101 4.90868 5.58809 5.17385 5.26988Z" fill-rule="NONZERO"></path>
  <path d="M10.75 14C10.3358 14 10 14.3358 10 14.75C10 15.1642 10.3358 15.5 10.75 15.5L16.25 15.5C16.6642 15.5 17 15.1642 17 14.75C17 14.3358 16.6642 14 16.25 14L10.75 14Z" fill-rule="NONZERO"></path>
  <path d="M0 2.75C0 1.23122 1.23122 0 2.75 0L19.25 0C20.7688 0 22 1.23122 22 2.75L22 17.25C22 18.7688 20.7688 20 19.25 20L2.75 20C1.23122 20 0 18.7688 0 17.25L0 2.75ZM2.75 1.5C2.05964 1.5 1.5 2.05964 1.5 2.75L1.5 17.25C1.5 17.9404 2.05964 18.5 2.75 18.5L19.25 18.5C19.9404 18.5 20.5 17.9404 20.5 17.25L20.5 2.75C20.5 2.05964 19.9404 1.5 19.25 1.5L2.75 1.5Z" fill-rule="EVENODD"></path>
 </g>
</svg>