<svg viewBox="0 0 24 24" width="24" height="24" fill="black" xmlns="http://www.w3.org/2000/svg">
 <g transform="translate(2.999981164932251, 3.999981164932251)">
  <path d="M0.173853 0.269881C0.439026 -0.0483271 0.911949 -0.0913202 1.23016 0.173853L8.73016 6.42385C8.90115 6.56635 9.00002 6.77743 9.00002 7.00002C9.00002 7.2226 8.90115 7.43369 8.73016 7.57618L1.23016 13.8262C0.911949 14.0914 0.439026 14.0484 0.173853 13.7302C-0.0913202 13.4119 -0.0483271 12.939 0.269881 12.6739L7.07848 7.00002L0.269881 1.32618C-0.0483271 1.06101 -0.0913202 0.588088 0.173853 0.269881Z" fill-rule="EVENODD"></path>
  <path d="M8.00002 14.75C8.00002 14.3358 8.33581 14 8.75002 14L17.25 14C17.6642 14 18 14.3358 18 14.75C18 15.1642 17.6642 15.5 17.25 15.5L8.75002 15.5C8.33581 15.5 8.00002 15.1642 8.00002 14.75Z" fill-rule="EVENODD"></path>
 </g>
</svg>