<svg viewBox="0 0 16 16" width="16" height="16" fill="currentColor" xmlns="http://www.w3.org/2000/svg">
 <g transform="translate(2, 3)">
  <path d="M1.23016 0.173853C0.911949 -0.0913202 0.439026 -0.0483271 0.173853 0.269881C-0.0913202 0.588088 -0.0483271 1.06101 0.269881 1.32618L4.07848 4.50002L0.269881 7.67385C-0.0483271 7.93903 -0.0913202 8.41195 0.173853 8.73016C0.439026 9.04836 0.911949 9.09136 1.23016 8.82619L5.73016 5.07618C5.90115 4.93369 6.00002 4.7226 6.00002 4.50002C6.00002 4.27743 5.90115 4.06635 5.73016 3.92385L1.23016 0.173853Z" fill-rule="NONZERO"></path>
  <path d="M5.75 9C5.33579 9 5 9.33579 5 9.75C5 10.1642 5.33579 10.5 5.75 10.5L11.25 10.5C11.6642 10.5 12 10.1642 12 9.75C12 9.33579 11.6642 9 11.25 9L5.75 9Z" fill-rule="NONZERO"></path>
 </g>
</svg>