<svg viewBox="0 0 16 16" width="16" height="16" fill="black" xmlns="http://www.w3.org/2000/svg">
 <g transform="translate(1.999981164932251, 2.999981164932251)">
  <path d="M0.173853 0.269881C0.439026 -0.0483271 0.911949 -0.0913202 1.23016 0.173853L5.73016 3.92385C5.90115 4.06635 6.00002 4.27743 6.00002 4.50002C6.00002 4.7226 5.90115 4.93369 5.73016 5.07618L1.23016 8.82619C0.911949 9.09136 0.439026 9.04836 0.173853 8.73016C-0.0913202 8.41195 -0.0483271 7.93903 0.269881 7.67385L4.07848 4.50002L0.269881 1.32618C-0.0483271 1.06101 -0.0913202 0.588088 0.173853 0.269881Z" fill-rule="EVENODD"></path>
  <path d="M5.00002 9.75002C5.00002 9.33581 5.3358 9.00002 5.75002 9.00002L11.25 9.00002C11.6642 9.00002 12 9.33581 12 9.75002C12 10.1642 11.6642 10.5 11.25 10.5L5.75002 10.5C5.3358 10.5 5.00002 10.1642 5.00002 9.75002Z" fill-rule="EVENODD"></path>
 </g>
</svg>