<svg viewBox="0 0 16 16" width="16" height="16" fill="currentColor" xmlns="http://www.w3.org/2000/svg">
 <g transform="translate(0, 0)">
  <path d="M7.5963 1.51566L5.03659 7.27501L5.03659 14.5L12.5106 14.5C12.8813 14.5 13.1964 14.2291 13.2521 13.8626L14.2465 7.31382C14.3154 6.85995 13.9641 6.45122 13.505 6.45122L9.7378 6.45122C9.04745 6.45122 8.4878 5.89157 8.4878 5.20122L8.4878 2.57538C8.4878 2.04416 8.10262 1.60289 7.5963 1.51566ZM3.53659 14.5L3.53659 7.86585L2.25 7.86585C1.83579 7.86585 1.5 8.20164 1.5 8.61585L1.5 13.75C1.5 14.1642 1.83579 14.5 2.25 14.5L3.53659 14.5ZM3.79918 6.36585L6.31005 0.716403C6.50367 0.280758 6.93569 0 7.41242 0C8.83477 0 9.9878 1.15304 9.9878 2.57538L9.9878 4.95122L13.505 4.95122C14.8822 4.95122 15.9363 6.1774 15.7295 7.53901L14.7351 14.0878C14.5681 15.1874 13.6228 16 12.5106 16L2.25 16C1.00736 16 0 14.9926 0 13.75L0 8.61585C0 7.37321 1.00736 6.36585 2.25 6.36585L3.79918 6.36585Z" fill-rule="EVENODD"></path>
 </g>
</svg>