<svg viewBox="0 0 16 16" width="16" height="16" fill="currentColor" xmlns="http://www.w3.org/2000/svg">
 <g transform="translate(0, 3)">
  <path d="M3 5C3 3.89543 3.89543 3 5 3C6.10457 3 7 3.89543 7 5C7 6.10457 6.10457 7 5 7C3.89543 7 3 6.10457 3 5Z" fill-rule="NONZERO"></path>
  <path d="M5 0C2.23858 0 0 2.23858 0 5C0 7.76142 2.23858 10 5 10L11 10C13.7614 10 16 7.76142 16 5C16 2.23858 13.7614 0 11 0L5 0ZM1.5 5C1.5 3.067 3.067 1.5 5 1.5L11 1.5C12.933 1.5 14.5 3.067 14.5 5C14.5 6.933 12.933 8.5 11 8.5L5 8.5C3.067 8.5 1.5 6.933 1.5 5Z" fill-rule="EVENODD"></path>
 </g>
</svg>