<svg viewBox="0 0 16 16" width="16" height="16" fill="currentColor" xmlns="http://www.w3.org/2000/svg">
 <g transform="translate(0, 3)">
  <path d="M13 5C13 3.89543 12.1046 3 11 3C9.89543 3 9 3.89543 9 5C9 6.10457 9.89543 7 11 7C12.1046 7 13 6.10457 13 5Z" fill-rule="NONZERO"></path>
  <path d="M11 0C13.7614 0 16 2.23858 16 5C16 7.76142 13.7614 10 11 10L5 10C2.23858 10 0 7.76142 0 5C0 2.23858 2.23858 0 5 0L11 0ZM14.5 5C14.5 3.067 12.933 1.5 11 1.5L5 1.5C3.067 1.5 1.5 3.067 1.5 5C1.5 6.933 3.067 8.5 5 8.5L11 8.5C12.933 8.5 14.5 6.933 14.5 5Z" fill-rule="EVENODD"></path>
 </g>
</svg>