<svg viewBox="0 0 24 24" width="24" height="24" fill="currentColor" xmlns="http://www.w3.org/2000/svg">
 <g transform="translate(1, 5)">
  <path d="M22 7C22 3.13401 18.866 0 15 0L7 0C3.13401 0 0 3.13401 0 7C0 10.866 3.13401 14 7 14L15 14C18.866 14 22 10.866 22 7ZM15 1.5C18.0376 1.5 20.5 3.96243 20.5 7C20.5 10.0376 18.0376 12.5 15 12.5L7 12.5C3.96243 12.5 1.5 10.0376 1.5 7C1.5 3.96243 3.96243 1.5 7 1.5L15 1.5Z" fill-rule="EVENODD"></path>
  <path d="M15 4.5C16.3807 4.5 17.5 5.61929 17.5 7C17.5 8.38071 16.3807 9.5 15 9.5C13.6193 9.5 12.5 8.38071 12.5 7C12.5 5.61929 13.6193 4.5 15 4.5ZM19 7C19 4.79086 17.2091 3 15 3C12.7909 3 11 4.79086 11 7C11 9.20914 12.7909 11 15 11C17.2091 11 19 9.20914 19 7Z" fill-rule="EVENODD"></path>
 </g>
</svg>