<svg viewBox="0 0 16 16" width="16" height="16" fill="black" xmlns="http://www.w3.org/2000/svg">
 <g transform="translate(0, 0)">
  <path d="M6.5 1.5C3.73858 1.5 1.5 3.73858 1.5 6.5C1.5 9.26142 3.73858 11.5 6.5 11.5C9.26142 11.5 11.5 9.26142 11.5 6.5C11.5 3.73858 9.26142 1.5 6.5 1.5ZM0 6.5C0 2.91015 2.91015 0 6.5 0C10.0899 0 13 2.91015 13 6.5C13 10.0899 10.0899 13 6.5 13C2.91015 13 0 10.0899 0 6.5Z" fill-rule="EVENODD"></path>
  <path d="M11.3248 3.99396C11.5051 3.62105 11.9536 3.46493 12.3265 3.64525C14.499 4.69576 16 6.92186 16 9.5C16 13.0899 13.0899 16 9.5 16C6.92186 16 4.69576 14.499 3.64525 12.3265C3.46493 11.9536 3.62105 11.5051 3.99396 11.3248C4.36686 11.1445 4.81534 11.3006 4.99566 11.6735C5.80526 13.3478 7.5188 14.5 9.5 14.5C12.2614 14.5 14.5 12.2614 14.5 9.5C14.5 7.5188 13.3478 5.80526 11.6735 4.99566C11.3006 4.81534 11.1445 4.36686 11.3248 3.99396Z" fill-rule="EVENODD"></path>
  <path d="M4.73068 6.5L6.49844 8.26771L8.26615 6.5L6.49844 4.73224L4.73068 6.5ZM3.31646 5.79289L5.79133 3.31802C6.18186 2.92749 6.81503 2.9275 7.20555 3.31803L9.68037 5.7929C10.0709 6.18343 10.0709 6.81659 9.68036 7.20711L7.20555 9.68192C6.81502 10.0724 6.18187 10.0724 5.79134 9.68193L3.31647 7.20711C2.92594 6.81659 2.92594 6.18342 3.31646 5.79289Z" fill-rule="EVENODD"></path>
 </g>
</svg>