<svg viewBox="0 0 24 24" width="24" height="24" fill="black" xmlns="http://www.w3.org/2000/svg">
 <g transform="translate(1, 1)">
  <path d="M9 1.5C4.85786 1.5 1.5 4.85786 1.5 9C1.5 13.1421 4.85786 16.5 9 16.5C13.1421 16.5 16.5 13.1421 16.5 9C16.5 4.85786 13.1421 1.5 9 1.5ZM0 9C0 4.02944 4.02944 0 9 0C13.9706 0 18 4.02944 18 9C18 13.9706 13.9706 18 9 18C4.02944 18 0 13.9706 0 9Z" fill-rule="EVENODD"></path>
  <path d="M15.821 5.2085C15.9969 4.83351 16.4436 4.67214 16.8186 4.84808C19.8785 6.28369 22 9.39333 22 13C22 17.9706 17.9706 22 13 22C9.39333 22 6.28369 19.8785 4.84808 16.8186C4.67214 16.4436 4.83351 15.9969 5.2085 15.821C5.5835 15.6451 6.03011 15.8064 6.20605 16.1814C7.40387 18.7345 9.99652 20.5 13 20.5C17.1421 20.5 20.5 17.1421 20.5 13C20.5 9.99652 18.7345 7.40387 16.1814 6.20605C15.8064 6.03011 15.6451 5.5835 15.821 5.2085Z" fill-rule="EVENODD"></path>
  <path d="M8.82296 5.28819L5.28745 8.82371C5.18981 8.92134 5.18982 9.07963 5.28745 9.17726L8.82297 12.7127C8.9206 12.8103 9.07889 12.8103 9.17652 12.7127L12.712 9.17726C12.8096 9.07963 12.8096 8.92134 12.712 8.82371L9.17652 5.28819C9.07889 5.19055 8.9206 5.19055 8.82296 5.28819ZM4.22679 7.76305L7.7623 4.22753C8.44573 3.5441 9.55378 3.54411 10.2372 4.22754L13.7726 7.76306C14.456 8.44648 14.456 9.55451 13.7726 10.2379L10.2372 13.7734C9.55377 14.4568 8.44574 14.4568 7.76232 13.7734L4.2268 10.2379C3.54337 9.55452 3.54336 8.44647 4.22679 7.76305Z" fill-rule="EVENODD"></path>
 </g>
</svg>