<svg viewBox="0 0 16 16" width="16" height="16" fill="black" xmlns="http://www.w3.org/2000/svg">
 <g transform="translate(0, 0)">
  <path d="M4.21094 4.5C4.00897 4.5 3.81554 4.58146 3.67441 4.72594L1.71348 6.73351C1.57662 6.87362 1.5 7.06171 1.5 7.25757L1.5 12.75C1.5 13.1642 1.83579 13.5 2.25 13.5L13.75 13.5C14.1642 13.5 14.5 13.1642 14.5 12.75L14.5 7.25757C14.5 7.06171 14.4234 6.87362 14.2865 6.73351L12.3256 4.72594C12.1845 4.58146 11.991 4.5 11.7891 4.5L4.21094 4.5ZM2.60136 3.67781C3.02474 3.24437 3.60503 3 4.21094 3L11.7891 3C12.395 3 12.9753 3.24437 13.3986 3.67781L15.3596 5.68539C15.7701 6.10572 16 6.66999 16 7.25757L16 12.75C16 13.9926 14.9926 15 13.75 15L2.25 15C1.00736 15 0 13.9926 0 12.75L0 7.25757C0 6.66999 0.229854 6.10572 0.640425 5.68539L2.60136 3.67781Z" fill-rule="EVENODD"></path>
  <path d="M7.25 1.5C6.83579 1.5 6.5 1.83579 6.5 2.25L6.5 3.25C6.5 3.66421 6.16421 4 5.75 4C5.33579 4 5 3.66421 5 3.25L5 2.25C5 1.00736 6.00736 0 7.25 0L8.75 0C9.99264 0 11 1.00736 11 2.25L11 3.25C11 3.66421 10.6642 4 10.25 4C9.83579 4 9.5 3.66421 9.5 3.25L9.5 2.25C9.5 1.83579 9.16421 1.5 8.75 1.5L7.25 1.5Z" fill-rule="EVENODD"></path>
  <path d="M6.25 9.5L1.25 9.5L1.25 8L6.25 8L6.25 9.5ZM14.75 9.5L9.25 9.5L9.25 8L14.75 8L14.75 9.5Z" fill-rule="EVENODD"></path>
  <path d="M5.5 7.75C5.5 7.05964 6.05964 6.5 6.75 6.5L9.25 6.5C9.94036 6.5 10.5 7.05964 10.5 7.75L10.5 9.75C10.5 10.4404 9.94036 11 9.25 11L6.75 11C6.05964 11 5.5 10.4404 5.5 9.75L5.5 7.75ZM7 8L7 9.5L9 9.5L9 8L7 8Z" fill-rule="EVENODD"></path>
 </g>
</svg>