<svg viewBox="0 0 24 24" width="24" height="24" fill="black" xmlns="http://www.w3.org/2000/svg">
 <g transform="translate(2, 1)">
  <path d="M0 4.75C0 4.33579 0.335786 4 0.75 4L19.25 4C19.6642 4 20 4.33579 20 4.75C20 5.16421 19.6642 5.5 19.25 5.5L18 5.5L18 19.25C18 20.7688 16.7688 22 15.25 22L4.75 22C3.23122 22 2 20.7688 2 19.25L2 5.5L0.75 5.5C0.335786 5.5 0 5.16421 0 4.75ZM3.5 5.5L3.5 19.25C3.5 19.9404 4.05964 20.5 4.75 20.5L15.25 20.5C15.9404 20.5 16.5 19.9404 16.5 19.25L16.5 5.5L3.5 5.5Z" fill-rule="EVENODD"></path>
  <path d="M7.75 1.5C7.05964 1.5 6.5 2.05964 6.5 2.75L6.5 4.75C6.5 5.16421 6.16421 5.5 5.75 5.5C5.33579 5.5 5 5.16421 5 4.75L5 2.75C5 1.23122 6.23122 0 7.75 0L12.25 0C13.7688 0 15 1.23122 15 2.75L15 4.75C15 5.16421 14.6642 5.5 14.25 5.5C13.8358 5.5 13.5 5.16421 13.5 4.75L13.5 2.75C13.5 2.05964 12.9404 1.5 12.25 1.5L7.75 1.5Z" fill-rule="EVENODD"></path>
  <path d="M7.75 8C8.16421 8 8.5 8.33579 8.5 8.75L8.5 17.25C8.5 17.6642 8.16421 18 7.75 18C7.33579 18 7 17.6642 7 17.25L7 8.75C7 8.33579 7.33579 8 7.75 8Z" fill-rule="EVENODD"></path>
  <path d="M12.25 8C12.6642 8 13 8.33579 13 8.75L13 17.25C13 17.6642 12.6642 18 12.25 18C11.8358 18 11.5 17.6642 11.5 17.25L11.5 8.75C11.5 8.33579 11.8358 8 12.25 8Z" fill-rule="EVENODD"></path>
 </g>
</svg>