<svg viewBox="0 0 24 24" width="24" height="24" fill="currentColor" xmlns="http://www.w3.org/2000/svg">
 <g transform="translate(0, 5)">
  <path d="M24 7.25C24 7.66421 23.6642 8 23.25 8C22.8358 8 22.5 7.66421 22.5 7.25L22.5 2.56066L14.2803 10.7803C14.0079 11.0528 13.5733 11.0745 13.2751 10.8305L8.30039 6.76027L1.28033 13.7803C0.987437 14.0732 0.512563 14.0732 0.21967 13.7803C-0.0732233 13.4874 -0.0732233 13.0126 0.21967 12.7197L7.71967 5.21967C7.99213 4.94721 8.42671 4.92554 8.72493 5.16953L13.6996 9.23973L21.4393 1.5L16.75 1.5C16.3358 1.5 16 1.16421 16 0.75C16 0.335786 16.3358 0 16.75 0L23.25 0C23.6642 0 24 0.335786 24 0.75L24 7.25Z" fill-rule="NONZERO"></path>
 </g>
</svg>