<svg viewBox="0 0 24 24" width="24" height="24" fill="black" xmlns="http://www.w3.org/2000/svg">
 <g transform="translate(0.8019790649414062, 2.1474609375)">
  <path d="M11.198 0C10.7254 0 10.2607 0.121814 9.84888 0.353688C9.43703 0.585562 9.09189 0.919669 8.84677 1.32377L8.84462 1.32734L0.374536 15.4673L0.368526 15.4777C0.128407 15.8935 0.00135528 16.365 1.0783e-05 16.8452C-0.00133372 17.3253 0.123076 17.7975 0.360862 18.2147C0.598649 18.6318 0.941523 18.9795 1.35537 19.223C1.76922 19.4665 2.23962 19.5975 2.71978 19.6027L19.668 19.6028L19.6763 19.6027C20.1564 19.5974 20.6268 19.4665 21.0407 19.223C21.4545 18.9795 21.7974 18.6318 22.0352 18.2147C22.273 17.7975 22.3974 17.3253 22.396 16.8452C22.3947 16.365 22.2677 15.8935 22.0276 15.4777L13.5514 1.32733L13.5493 1.32377C13.3041 0.919669 12.959 0.585562 12.5472 0.353688C12.1353 0.121814 11.6707 0 11.198 0Z" fill-rule="NONZERO"></path>
 </g>
</svg>