<svg viewBox="0 0 16 16" width="16" height="16" fill="black" xmlns="http://www.w3.org/2000/svg">
 <g transform="translate(0.25, 0.75)">
  <path d="M4.78033 0.21967C4.48744 -0.0732233 4.01256 -0.0732233 3.71967 0.21967C3.42678 0.512563 3.42678 0.987437 3.71967 1.28033L5.93934 3.5L2.08335 3.5C0.932761 3.5 2.11e-05 4.43274 2.00272e-05 5.58333L0 12.9167C0 14.0673 0.93274 15 2.08333 15L13.4166 15C14.5672 15 15.5 14.0673 15.5 12.9167L15.5 5.58333C15.5 4.43274 14.5673 3.5 13.4167 3.5L9.56066 3.5L11.7803 1.28033C12.0732 0.987437 12.0732 0.512563 11.7803 0.21967C11.4874 -0.0732233 11.0126 -0.0732233 10.7197 0.21967L7.75 3.18934L4.78033 0.21967ZM1.50002 5.58333C1.50002 5.26117 1.76119 5 2.08335 5L13.4167 5C13.7388 5 14 5.26117 14 5.58333L14 12.9167C14 13.2388 13.7388 13.5 13.4166 13.5L2.08333 13.5C1.76117 13.5 1.5 13.2388 1.5 12.9167L1.50002 5.58333Z" fill-rule="EVENODD"></path>
 </g>
</svg>