<svg viewBox="0 0 16 16" width="16" height="16" fill="black" xmlns="http://www.w3.org/2000/svg">
 <g transform="translate(0, -0.00007972498133312911)">
  <path d="M0 5.25008C0 4.00744 1.00736 3.00008 2.25 3.00008L13.75 3.00008C14.9926 3.00008 16 4.00744 16 5.25008L16 12.7501C16 13.9927 14.9926 15.0001 13.75 15.0001L2.25 15.0001C1.00736 15.0001 0 13.9927 0 12.7501L0 5.25008ZM2.25 4.50008C1.83579 4.50008 1.5 4.83587 1.5 5.25008L1.5 12.7501C1.5 13.1643 1.83579 13.5001 2.25 13.5001L13.75 13.5001C14.1642 13.5001 14.5 13.1643 14.5 12.7501L14.5 5.25008C14.5 4.83587 14.1642 4.50008 13.75 4.50008L2.25 4.50008Z" fill-rule="EVENODD"></path>
  <path d="M5.58397 0.126042C5.92862 -0.103722 6.39427 -0.010592 6.62404 0.334055L8 2.398L9.37596 0.334055C9.60573 -0.010592 10.0714 -0.103722 10.416 0.126042C10.7607 0.355806 10.8538 0.821458 10.624 1.1661L8.62404 4.1661C8.48494 4.37475 8.25076 4.50008 8 4.50008C7.74924 4.50008 7.51506 4.37475 7.37596 4.1661L5.37596 1.1661C5.1462 0.821458 5.23933 0.355806 5.58397 0.126042Z" fill-rule="EVENODD"></path>
 </g>
</svg>