<svg viewBox="0 0 24 24" width="24" height="24" fill="currentColor" xmlns="http://www.w3.org/2000/svg">
 <g transform="translate(1, 0.9999122023582458)">
  <path d="M0 7.75009C0 6.2313 1.23122 5.00009 2.75 5.00009L19.25 5.00009C20.7688 5.00009 22 6.2313 22 7.75009L22 19.2501C22 20.7689 20.7688 22.0001 19.25 22.0001L2.75 22.0001C1.23122 22.0001 0 20.7689 0 19.2501L0 7.75009ZM2.75 6.50009C2.05964 6.50009 1.5 7.05973 1.5 7.75009L1.5 19.2501C1.5 19.9404 2.05964 20.5001 2.75 20.5001L19.25 20.5001C19.9404 20.5001 20.5 19.9404 20.5 19.2501L20.5 7.75009C20.5 7.05973 19.9404 6.50009 19.25 6.50009L2.75 6.50009Z" fill-rule="EVENODD"></path>
  <path d="M7.34126 0.121255C7.68855 -0.104486 8.15309 -0.00594819 8.37883 0.341347L11 4.37391L13.6212 0.341347C13.8469 -0.00594819 14.3114 -0.104486 14.6587 0.121255C15.006 0.346997 15.1046 0.811534 14.8788 1.15883L11.6288 6.15883C11.4905 6.37167 11.2539 6.50009 11 6.50009C10.7461 6.50009 10.5095 6.37167 10.3712 6.15883L7.12117 1.15883C6.89543 0.811534 6.99396 0.346997 7.34126 0.121255Z" fill-rule="EVENODD"></path>
 </g>
</svg>