<svg viewBox="0 0 24 24" width="24" height="24" fill="black" xmlns="http://www.w3.org/2000/svg">
 <g transform="translate(0.5, 2)">
  <path d="M11.5 0C11.705 0 11.901 0.0838826 12.0425 0.232143L17.2925 5.73214C17.5785 6.03177 17.5675 6.50651 17.2679 6.79252C16.9682 7.07852 16.4935 7.06748 16.2075 6.76786L11.5 1.83621L6.79252 6.76786C6.50651 7.06748 6.03177 7.07852 5.73214 6.79252C5.43252 6.50651 5.42148 6.03177 5.70748 5.73214L10.9575 0.232143C11.099 0.0838826 11.295 0 11.5 0Z" fill-rule="EVENODD"></path>
  <path d="M11.5 20C11.705 20 11.901 19.9161 12.0425 19.7679L17.2925 14.2679C17.5785 13.9682 17.5675 13.4935 17.2679 13.2075C16.9682 12.9215 16.4935 12.9325 16.2075 13.2321L11.5 18.1638L6.79252 13.2321C6.50651 12.9325 6.03177 12.9215 5.73214 13.2075C5.43252 13.4935 5.42148 13.9682 5.70748 14.2679L10.9575 19.7679C11.099 19.9161 11.295 20 11.5 20Z" fill-rule="EVENODD"></path>
  <path d="M0 9.75C0 9.33579 0.335786 9 0.75 9L2.25 9C2.66421 9 3 9.33579 3 9.75C3 10.1642 2.66421 10.5 2.25 10.5L0.75 10.5C0.335786 10.5 0 10.1642 0 9.75ZM5 9.75C5 9.33579 5.33579 9 5.75 9L7.25 9C7.66421 9 8 9.33579 8 9.75C8 10.1642 7.66421 10.5 7.25 10.5L5.75 10.5C5.33579 10.5 5 10.1642 5 9.75ZM10 9.75C10 9.33579 10.3358 9 10.75 9L12.25 9C12.6642 9 13 9.33579 13 9.75C13 10.1642 12.6642 10.5 12.25 10.5L10.75 10.5C10.3358 10.5 10 10.1642 10 9.75ZM15 9.75C15 9.33579 15.3358 9 15.75 9L17.25 9C17.6642 9 18 9.33579 18 9.75C18 10.1642 17.6642 10.5 17.25 10.5L15.75 10.5C15.3358 10.5 15 10.1642 15 9.75ZM20 9.75C20 9.33579 20.3358 9 20.75 9L22.25 9C22.6642 9 23 9.33579 23 9.75C23 10.1642 22.6642 10.5 22.25 10.5L20.75 10.5C20.3358 10.5 20 10.1642 20 9.75Z" fill-rule="EVENODD"></path>
 </g>
</svg>