<svg viewBox="0 0 16 16" width="16" height="16" fill="currentColor" xmlns="http://www.w3.org/2000/svg">
 <g transform="translate(1.1234999895095825, 1)">
  <path d="M6.8765 0C7.08505 0 7.28419 0.0868364 7.4261 0.239662L10.6761 3.73966C10.9579 4.04319 10.9404 4.51774 10.6368 4.79959C10.3333 5.08145 9.85876 5.06387 9.57691 4.76034L6.8765 1.85221L4.1761 4.76034C3.89424 5.06387 3.41969 5.08145 3.11616 4.79959C2.81263 4.51774 2.79505 4.04319 3.07691 3.73966L6.3269 0.239662C6.46881 0.0868364 6.66795 0 6.8765 0Z" fill-rule="EVENODD"></path>
  <path d="M6.8765 14C7.08505 14 7.28419 13.9132 7.4261 13.7603L10.6761 10.2603C10.9579 9.95681 10.9404 9.48226 10.6368 9.20041C10.3333 8.91855 9.85876 8.93613 9.57691 9.23966L6.8765 12.1478L4.1761 9.23966C3.89424 8.93613 3.41969 8.91855 3.11616 9.20041C2.81263 9.48226 2.79505 9.95681 3.07691 10.2603L6.3269 13.7603C6.46881 13.9132 6.66795 14 6.8765 14Z" fill-rule="EVENODD"></path>
  <path d="M0 6.75C0 6.40399 0.280494 6.1235 0.6265 6.1235L1.1265 6.1235C1.47251 6.1235 1.753 6.40399 1.753 6.75C1.753 7.09601 1.47251 7.3765 1.1265 7.3765L0.6265 7.3765C0.280494 7.3765 0 7.09601 0 6.75ZM3 6.75C3 6.40399 3.28049 6.1235 3.6265 6.1235L4.1265 6.1235C4.47251 6.1235 4.753 6.40399 4.753 6.75C4.753 7.09601 4.47251 7.3765 4.1265 7.3765L3.6265 7.3765C3.28049 7.3765 3 7.09601 3 6.75ZM6 6.75C6 6.40399 6.28049 6.1235 6.6265 6.1235L7.1265 6.1235C7.47251 6.1235 7.753 6.40399 7.753 6.75C7.753 7.09601 7.47251 7.3765 7.1265 7.3765L6.6265 7.3765C6.28049 7.3765 6 7.09601 6 6.75ZM9 6.75C9 6.40399 9.28049 6.1235 9.6265 6.1235L10.1265 6.1235C10.4725 6.1235 10.753 6.40399 10.753 6.75C10.753 7.09601 10.4725 7.3765 10.1265 7.3765L9.6265 7.3765C9.28049 7.3765 9 7.09601 9 6.75ZM12 6.75C12 6.40399 12.2805 6.1235 12.6265 6.1235L13.1265 6.1235C13.4725 6.1235 13.753 6.40399 13.753 6.75C13.753 7.09601 13.4725 7.3765 13.1265 7.3765L12.6265 7.3765C12.2805 7.3765 12 7.09601 12 6.75Z" fill-rule="EVENODD"></path>
 </g>
</svg>