<svg viewBox="0 0 16 16" width="16" height="16" fill="black" xmlns="http://www.w3.org/2000/svg">
 <g transform="translate(1.25, 0.75)">
  <path d="M5.02829 2.24571C5.49033 1.76441 6.11032 1.5 6.74999 1.5C7.38966 1.5 8.00964 1.76441 8.47169 2.24571C8.75855 2.54452 9.23332 2.55421 9.53213 2.26735C9.83094 1.98049 9.84063 1.50572 9.55377 1.20691C8.81558 0.437967 7.8077 0 6.74999 0C5.69227 0 4.68439 0.437967 3.94621 1.20691C3.20902 1.97482 2.79999 3.01002 2.79999 4.08333L2.79999 5.5L2.08333 5.5C0.93274 5.5 0 6.43274 0 7.58333L0 12.9167C0 14.0673 0.93274 15 2.08333 15L11.4167 15C12.5673 15 13.5 14.0673 13.5 12.9167L13.5 7.58333C13.5 6.43274 12.5673 5.5 11.4167 5.5L4.29999 5.5L4.29999 4.08333C4.29999 3.38854 4.56524 2.72805 5.02829 2.24571ZM2.08333 7C1.76117 7 1.5 7.26117 1.5 7.58333L1.5 12.9167C1.5 13.2388 1.76117 13.5 2.08333 13.5L11.4167 13.5C11.7388 13.5 12 13.2388 12 12.9167L12 7.58333C12 7.26117 11.7388 7 11.4167 7L2.08333 7Z" fill-rule="EVENODD"></path>
 </g>
</svg>