<svg viewBox="0 0 24 24" width="24" height="24" fill="currentColor" xmlns="http://www.w3.org/2000/svg">
 <g transform="translate(1, 1)">
  <path d="M13.8049 2.75757C14.6464 1.95622 15.795 1.5 17 1.5C18.205 1.5 19.3536 1.95622 20.1951 2.75757C21.0352 3.55774 21.5 4.63496 21.5 5.75C21.5 6.16421 21.8358 6.5 22.25 6.5C22.6642 6.5 23 6.16421 23 5.75C23 4.21287 22.3585 2.74656 21.2296 1.67136C20.1018 0.597351 18.5798 0 17 0C15.4202 0 13.8982 0.597351 12.7704 1.67136C11.6415 2.74656 11 4.21287 11 5.75L11 9L2.75 9C1.23122 9 0 10.2312 0 11.75L0 19.25C0 20.7688 1.23122 22 2.75 22L13.25 22C14.7688 22 16 20.7688 16 19.25L16 11.75C16 10.2312 14.7688 9 13.25 9L12.5 9L12.5 5.75C12.5 4.63496 12.9648 3.55774 13.8049 2.75757ZM2.75 10.5C2.05964 10.5 1.5 11.0596 1.5 11.75L1.5 19.25C1.5 19.9404 2.05964 20.5 2.75 20.5L13.25 20.5C13.9404 20.5 14.5 19.9404 14.5 19.25L14.5 11.75C14.5 11.0596 13.9404 10.5 13.25 10.5L2.75 10.5Z" fill-rule="EVENODD"></path>
 </g>
</svg>