<svg viewBox="0 0 16 16" width="16" height="16" fill="currentColor" xmlns="http://www.w3.org/2000/svg">
 <g transform="translate(1, 0.9999966621398926)">
  <path d="M3.23966 4.7996C3.5432 5.08145 4.01775 5.06387 4.2996 4.76034L6.25 2.65991L6.25 9.25C6.25 9.66422 6.58579 10 7 10C7.41421 10 7.75 9.66422 7.75 9.25L7.75 2.6599L9.70041 4.76034C9.98226 5.06387 10.4568 5.08145 10.7603 4.7996C11.0639 4.51774 11.0815 4.04319 10.7996 3.73966L7.5496 0.239662C7.41142 0.0908506 7.21898 0.00460734 7.01642 0.000179358C7.01095 5.9912e-05 7.00548 0 7 0C6.99452 0 6.98905 5.99302e-05 6.98359 0.000179413C6.77221 0.00471769 6.58236 0.0967071 6.44878 0.241415L3.20041 3.73966C2.91856 4.04319 2.93613 4.51774 3.23966 4.7996Z" fill-rule="NONZERO"></path>
  <path d="M0.75 8C1.16421 8 1.5 8.33579 1.5 8.75L1.5 11.75C1.5 12.1642 1.83579 12.5 2.25 12.5L11.75 12.5C12.1642 12.5 12.5 12.1642 12.5 11.75L12.5 8.75C12.5 8.33579 12.8358 8 13.25 8C13.6642 8 14 8.33579 14 8.75L14 11.75C14 12.9926 12.9926 14 11.75 14L2.25 14C1.00736 14 0 12.9926 0 11.75L0 8.75C0 8.33579 0.335786 8 0.75 8Z" fill-rule="NONZERO"></path>
 </g>
</svg>