<svg viewBox="0 0 16 16" width="16" height="16" fill="black" xmlns="http://www.w3.org/2000/svg">
 <g transform="translate(1, 1)">
  <path d="M0.75 8C1.16421 8 1.5 8.33579 1.5 8.75L1.5 11.75C1.5 12.1642 1.83579 12.5 2.25 12.5L11.75 12.5C12.1642 12.5 12.5 12.1642 12.5 11.75L12.5 8.75C12.5 8.33579 12.8358 8 13.25 8C13.6642 8 14 8.33579 14 8.75L14 11.75C14 12.9926 12.9926 14 11.75 14L2.25 14C1.00736 14 0 12.9926 0 11.75L0 8.75C0 8.33579 0.335786 8 0.75 8Z" fill-rule="EVENODD"></path>
  <path d="M3.23966 4.7996C3.54319 5.08145 4.01774 5.06387 4.2996 4.76034L7 1.85221L9.70041 4.76034C9.98226 5.06387 10.4568 5.08145 10.7603 4.7996C11.0639 4.51774 11.0814 4.04319 10.7996 3.73966L7.54959 0.239662C7.40769 0.0868363 7.20855 0 7 0C6.79145 0 6.59231 0.0868363 6.45041 0.239662L3.2004 3.73966C2.91855 4.04319 2.93613 4.51774 3.23966 4.7996Z" fill-rule="EVENODD"></path>
  <path d="M7 0C7.41421 0 7.75 0.335786 7.75 0.75L7.75 9.25C7.75 9.66421 7.41421 10 7 10C6.58579 10 6.25 9.66421 6.25 9.25L6.25 0.75C6.25 0.335786 6.58579 0 7 0Z" fill-rule="EVENODD"></path>
 </g>
</svg>