<svg viewBox="0 0 24 24" width="24" height="24" fill="currentColor" xmlns="http://www.w3.org/2000/svg">
 <g transform="translate(0, 3)">
  <path d="M9 0C6.23858 0 4 2.23858 4 5C4 7.76142 6.23858 10 9 10C11.7614 10 14 7.76142 14 5C14 2.23858 11.7614 0 9 0ZM5.5 5C5.5 3.067 7.067 1.5 9 1.5C10.933 1.5 12.5 3.067 12.5 5C12.5 6.933 10.933 8.5 9 8.5C7.067 8.5 5.5 6.933 5.5 5Z" fill-rule="EVENODD"></path>
  <path d="M4.75 11.5C2.12665 11.5 0 13.6266 0 16.25L0 17.25C0 17.6642 0.335786 18 0.75 18C1.16421 18 1.5 17.6642 1.5 17.25L1.5 16.25C1.5 14.4551 2.95507 13 4.75 13L13.25 13C15.0449 13 16.5 14.4551 16.5 16.25L16.5 17.25C16.5 17.6642 16.8358 18 17.25 18C17.6642 18 18 17.6642 18 17.25L18 16.25C18 13.6266 15.8734 11.5 13.25 11.5L4.75 11.5Z" fill-rule="NONZERO"></path>
  <path d="M18.25 12.25C18.25 11.8358 18.5858 11.5 19 11.5L19.25 11.5C21.8734 11.5 24 13.6266 24 16.25L24 17.25C24 17.6642 23.6642 18 23.25 18C22.8358 18 22.5 17.6642 22.5 17.25L22.5 16.25C22.5 14.4551 21.0449 13 19.25 13L19 13C18.5858 13 18.25 12.6642 18.25 12.25Z" fill-rule="NONZERO"></path>
  <path d="M15 0C14.5858 0 14.25 0.335786 14.25 0.75C14.25 1.16421 14.5858 1.5 15 1.5C16.933 1.5 18.5 3.067 18.5 5C18.5 6.933 16.933 8.5 15 8.5C14.5858 8.5 14.25 8.83579 14.25 9.25C14.25 9.66421 14.5858 10 15 10C17.7614 10 20 7.76142 20 5C20 2.23858 17.7614 0 15 0Z" fill-rule="NONZERO"></path>
 </g>
</svg>