<svg viewBox="0 0 16 16" width="16" height="16" fill="black" xmlns="http://www.w3.org/2000/svg">
 <g transform="translate(0.25, 0.25)">
  <path d="M2.9901 10.5708C3.60506 10.036 4.41927 9.75 5.25 9.75L10.25 9.75C11.0807 9.75 11.8949 10.036 12.5099 10.5708C13.059 11.0483 13.5 11.6159 13.5 12.5C13.5 12.9142 13.1642 13.25 12.75 13.25C12.3358 13.25 12 12.9142 12 12.5C12 12.231 11.9142 12.0405 11.5256 11.7027C11.2029 11.422 10.7454 11.25 10.25 11.25L5.25 11.25C4.75465 11.25 4.29709 11.422 3.97437 11.7027C3.58582 12.0405 3.5 12.231 3.5 12.5C3.5 12.9142 3.16421 13.25 2.75 13.25C2.33579 13.25 2 12.9142 2 12.5C2 11.6159 2.44096 11.0483 2.9901 10.5708Z" fill-rule="EVENODD"></path>
  <path d="M7.75 1.5C4.29822 1.5 1.5 4.29822 1.5 7.75C1.5 11.2018 4.29822 14 7.75 14C11.2018 14 14 11.2018 14 7.75C14 4.29822 11.2018 1.5 7.75 1.5ZM0 7.75C0 3.46979 3.46979 0 7.75 0C12.0302 0 15.5 3.46979 15.5 7.75C15.5 12.0302 12.0302 15.5 7.75 15.5C3.46979 15.5 0 12.0302 0 7.75Z" fill-rule="EVENODD"></path>
  <path d="M7.75 4.25C6.92157 4.25 6.25 4.92157 6.25 5.75C6.25 6.57843 6.92157 7.25 7.75 7.25C8.57843 7.25 9.25 6.57843 9.25 5.75C9.25 4.92157 8.57843 4.25 7.75 4.25ZM4.75 5.75C4.75 4.09315 6.09315 2.75 7.75 2.75C9.40685 2.75 10.75 4.09315 10.75 5.75C10.75 7.40685 9.40685 8.75 7.75 8.75C6.09315 8.75 4.75 7.40685 4.75 5.75Z" fill-rule="EVENODD"></path>
 </g>
</svg>