<svg viewBox="0 0 16 16" width="16" height="16" fill="currentColor" xmlns="http://www.w3.org/2000/svg">
 <g transform="translate(1.5, 1)">
  <path d="M6.5 0C4.29086 0 2.5 1.79086 2.5 4C2.5 6.20914 4.29086 8 6.5 8C8.70914 8 10.5 6.20914 10.5 4C10.5 1.79086 8.70914 0 6.5 0ZM4 4C4 2.61929 5.11929 1.5 6.5 1.5C7.88071 1.5 9 2.61929 9 4C9 5.38071 7.88071 6.5 6.5 6.5C5.11929 6.5 4 5.38071 4 4Z" fill-rule="EVENODD"></path>
  <path d="M3.75 9C1.67893 9 0 10.6789 0 12.75L0 13.25C0 13.6642 0.335786 14 0.75 14C1.16421 14 1.5 13.6642 1.5 13.25L1.5 12.75C1.5 11.5074 2.50736 10.5 3.75 10.5L9.25 10.5C10.4926 10.5 11.5 11.5074 11.5 12.75L11.5 13.25C11.5 13.6642 11.8358 14 12.25 14C12.6642 14 13 13.6642 13 13.25L13 12.75C13 10.6789 11.3211 9 9.25 9L3.75 9Z" fill-rule="NONZERO"></path>
 </g>
</svg>