<svg viewBox="0 0 24 24" width="24" height="24" fill="black" xmlns="http://www.w3.org/2000/svg">
 <g transform="translate(0, 3)">
  <path d="M0 16.25C0 13.6266 2.12665 11.5 4.75 11.5L13.25 11.5C15.8734 11.5 18 13.6266 18 16.25L18 17.25C18 17.6642 17.6642 18 17.25 18C16.8358 18 16.5 17.6642 16.5 17.25L16.5 16.25C16.5 14.4551 15.0449 13 13.25 13L4.75 13C2.95507 13 1.5 14.4551 1.5 16.25L1.5 17.25C1.5 17.6642 1.16421 18 0.75 18C0.335786 18 0 17.6642 0 17.25L0 16.25Z" fill-rule="EVENODD"></path>
  <path d="M9 1.5C7.067 1.5 5.5 3.067 5.5 5C5.5 6.933 7.067 8.5 9 8.5C10.933 8.5 12.5 6.933 12.5 5C12.5 3.067 10.933 1.5 9 1.5ZM4 5C4 2.23858 6.23858 0 9 0C11.7614 0 14 2.23858 14 5C14 7.76142 11.7614 10 9 10C6.23858 10 4 7.76142 4 5Z" fill-rule="EVENODD"></path>
  <path d="M16.2197 5.21967C16.5126 4.92678 16.9874 4.92678 17.2803 5.21967L21.7803 9.71967C22.0732 10.0126 22.0732 10.4874 21.7803 10.7803C21.4874 11.0732 21.0126 11.0732 20.7197 10.7803L16.2197 6.28033C15.9268 5.98744 15.9268 5.51256 16.2197 5.21967Z" fill-rule="EVENODD"></path>
  <path d="M21.7803 5.21967C22.0732 5.51256 22.0732 5.98744 21.7803 6.28033L17.2803 10.7803C16.9874 11.0732 16.5126 11.0732 16.2197 10.7803C15.9268 10.4874 15.9268 10.0126 16.2197 9.71967L20.7197 5.21967C21.0126 4.92678 21.4874 4.92678 21.7803 5.21967Z" fill-rule="EVENODD"></path>
 </g>
</svg>