<svg viewBox="0 0 24 24" width="24" height="24" fill="currentColor" xmlns="http://www.w3.org/2000/svg">
 <g transform="translate(3, 3)">
  <path d="M9 0C6.23858 0 4 2.23858 4 5C4 7.76142 6.23858 10 9 10C11.7614 10 14 7.76142 14 5C14 2.23858 11.7614 0 9 0ZM5.5 5C5.5 3.067 7.067 1.5 9 1.5C10.933 1.5 12.5 3.067 12.5 5C12.5 6.933 10.933 8.5 9 8.5C7.067 8.5 5.5 6.933 5.5 5Z" fill-rule="EVENODD"></path>
  <path d="M4.75 11.5C2.12665 11.5 0 13.6266 0 16.25L0 17.25C0 17.6642 0.335786 18 0.75 18C1.16421 18 1.5 17.6642 1.5 17.25L1.5 16.25C1.5 14.4551 2.95507 13 4.75 13L13.25 13C15.0449 13 16.5 14.4551 16.5 16.25L16.5 17.25C16.5 17.6642 16.8358 18 17.25 18C17.6642 18 18 17.6642 18 17.25L18 16.25C18 13.6266 15.8734 11.5 13.25 11.5L4.75 11.5Z" fill-rule="NONZERO"></path>
 </g>
</svg>