<svg viewBox="0 0 16 16" width="16" height="16" fill="currentColor" xmlns="http://www.w3.org/2000/svg">
 <g transform="translate(0.5, 2)">
  <path d="M2 3.5C2 1.567 3.567 0 5.5 0C7.433 0 9 1.567 9 3.5C9 5.433 7.433 7 5.5 7C3.567 7 2 5.433 2 3.5ZM5.5 1.5C4.39543 1.5 3.5 2.39543 3.5 3.5C3.5 4.60457 4.39543 5.5 5.5 5.5C6.60457 5.5 7.5 4.60457 7.5 3.5C7.5 2.39543 6.60457 1.5 5.5 1.5Z" fill-rule="EVENODD"></path>
  <path d="M0 11.75C0 9.67893 1.67893 8 3.75 8L7.25 8C9.32107 8 11 9.67893 11 11.75L11 12.25C11 12.6642 10.6642 13 10.25 13C9.83579 13 9.5 12.6642 9.5 12.25L9.5 11.75C9.5 10.5074 8.49264 9.5 7.25 9.5L3.75 9.5C2.50736 9.5 1.5 10.5074 1.5 11.75L1.5 12.25C1.5 12.6642 1.16421 13 0.75 13C0.335786 13 0 12.6642 0 12.25L0 11.75Z" fill-rule="NONZERO"></path>
  <path d="M10.75 5.5C10.3358 5.5 10 5.83579 10 6.25C10 6.66421 10.3358 7 10.75 7L14.25 7C14.6642 7 15 6.66421 15 6.25C15 5.83579 14.6642 5.5 14.25 5.5L10.75 5.5Z" fill-rule="NONZERO"></path>
 </g>
</svg>