<svg viewBox="0 0 24 24" width="24" height="24" fill="black" xmlns="http://www.w3.org/2000/svg">
 <g transform="translate(0, 3)">
  <path d="M0 16.25C0 13.6266 2.12665 11.5 4.75 11.5L13.25 11.5C15.8734 11.5 18 13.6266 18 16.25L18 17.25C18 17.6642 17.6642 18 17.25 18C16.8358 18 16.5 17.6642 16.5 17.25L16.5 16.25C16.5 14.4551 15.0449 13 13.25 13L4.75 13C2.95507 13 1.5 14.4551 1.5 16.25L1.5 17.25C1.5 17.6642 1.16421 18 0.75 18C0.335786 18 0 17.6642 0 17.25L0 16.25Z" fill-rule="EVENODD"></path>
  <path d="M9 1.5C7.067 1.5 5.5 3.067 5.5 5C5.5 6.933 7.067 8.5 9 8.5C10.933 8.5 12.5 6.933 12.5 5C12.5 3.067 10.933 1.5 9 1.5ZM4 5C4 2.23858 6.23858 0 9 0C11.7614 0 14 2.23858 14 5C14 7.76142 11.7614 10 9 10C6.23858 10 4 7.76142 4 5Z" fill-rule="EVENODD"></path>
  <path d="M18.25 12.25C18.25 11.8358 18.5858 11.5 19 11.5L19.25 11.5C21.8734 11.5 24 13.6266 24 16.25L24 17.25C24 17.6642 23.6642 18 23.25 18C22.8358 18 22.5 17.6642 22.5 17.25L22.5 16.25C22.5 14.4551 21.0449 13 19.25 13L19 13C18.5858 13 18.25 12.6642 18.25 12.25Z" fill-rule="EVENODD"></path>
  <path d="M14.25 0.75C14.25 0.335786 14.5858 0 15 0C17.7614 0 20 2.23858 20 5C20 7.76142 17.7614 10 15 10C14.5858 10 14.25 9.66421 14.25 9.25C14.25 8.83579 14.5858 8.5 15 8.5C16.933 8.5 18.5 6.933 18.5 5C18.5 3.067 16.933 1.5 15 1.5C14.5858 1.5 14.25 1.16421 14.25 0.75Z" fill-rule="EVENODD"></path>
 </g>
</svg>