<svg viewBox="0 0 16 16" width="16" height="16" fill="black" xmlns="http://www.w3.org/2000/svg">
 <g transform="translate(0.5, 2)">
  <path d="M0 11.75C0 9.67893 1.67893 8 3.75 8L7.25 8C9.32107 8 11 9.67893 11 11.75L11 12.25C11 12.6642 10.6642 13 10.25 13C9.83579 13 9.5 12.6642 9.5 12.25L9.5 11.75C9.5 10.5074 8.49264 9.5 7.25 9.5L3.75 9.5C2.50736 9.5 1.5 10.5074 1.5 11.75L1.5 12.25C1.5 12.6642 1.16421 13 0.75 13C0.335786 13 0 12.6642 0 12.25L0 11.75Z" fill-rule="EVENODD"></path>
  <path d="M5.5 1.5C4.39543 1.5 3.5 2.39543 3.5 3.5C3.5 4.60457 4.39543 5.5 5.5 5.5C6.60457 5.5 7.5 4.60457 7.5 3.5C7.5 2.39543 6.60457 1.5 5.5 1.5ZM2 3.5C2 1.567 3.567 0 5.5 0C7.433 0 9 1.567 9 3.5C9 5.433 7.433 7 5.5 7C3.567 7 2 5.433 2 3.5Z" fill-rule="EVENODD"></path>
  <path d="M9.75 6.25C9.75 5.83579 10.0858 5.5 10.5 5.5L14 5.5C14.4142 5.5 14.75 5.83579 14.75 6.25C14.75 6.66421 14.4142 7 14 7L10.5 7C10.0858 7 9.75 6.66421 9.75 6.25Z" fill-rule="EVENODD"></path>
  <path d="M12.25 8.75C11.8358 8.75 11.5 8.41421 11.5 8L11.5 4.5C11.5 4.08579 11.8358 3.75 12.25 3.75C12.6642 3.75 13 4.08579 13 4.5L13 8C13 8.41421 12.6642 8.75 12.25 8.75Z" fill-rule="EVENODD"></path>
 </g>
</svg>