<svg viewBox="0 0 24 24" width="24" height="24" fill="currentColor" xmlns="http://www.w3.org/2000/svg">
 <g transform="translate(0, 3)">
  <path d="M4 5C4 2.23858 6.23858 0 9 0C11.7614 0 14 2.23858 14 5C14 7.76142 11.7614 10 9 10C6.23858 10 4 7.76142 4 5ZM9 1.5C7.067 1.5 5.5 3.067 5.5 5C5.5 6.933 7.067 8.5 9 8.5C10.933 8.5 12.5 6.933 12.5 5C12.5 3.067 10.933 1.5 9 1.5Z" fill-rule="EVENODD"></path>
  <path d="M0 16.25C0 13.6266 2.12665 11.5 4.75 11.5L13.25 11.5C15.8734 11.5 18 13.6266 18 16.25L18 17.25C18 17.6642 17.6642 18 17.25 18C16.8358 18 16.5 17.6642 16.5 17.25L16.5 16.25C16.5 14.4551 15.0449 13 13.25 13L4.75 13C2.95507 13 1.5 14.4551 1.5 16.25L1.5 17.25C1.5 17.6642 1.16421 18 0.75 18C0.335786 18 0 17.6642 0 17.25L0 16.25Z" fill-rule="NONZERO"></path>
  <path d="M16.75 7.5C16.3358 7.5 16 7.83579 16 8.25C16 8.66421 16.3358 9 16.75 9L22.25 9C22.6642 9 23 8.66421 23 8.25C23 7.83579 22.6642 7.5 22.25 7.5L16.75 7.5Z" fill-rule="NONZERO"></path>
 </g>
</svg>