<svg viewBox="0 0 16 16" width="16" height="16" fill="currentColor" xmlns="http://www.w3.org/2000/svg">
 <g transform="translate(0.5, 2)">
  <path d="M0 11.75C0 9.67893 1.67893 8 3.75 8L7.25 8C9.32107 8 11 9.67893 11 11.75L11 12.25C11 12.6642 10.6642 13 10.25 13C9.83579 13 9.5 12.6642 9.5 12.25L9.5 11.75C9.5 10.5074 8.49264 9.5 7.25 9.5L3.75 9.5C2.50736 9.5 1.5 10.5074 1.5 11.75L1.5 12.25C1.5 12.6642 1.16421 13 0.75 13C0.335786 13 0 12.6642 0 12.25L0 11.75Z" fill-rule="EVENODD"></path>
  <path d="M5.5 1.5C4.39543 1.5 3.5 2.39543 3.5 3.5C3.5 4.60457 4.39543 5.5 5.5 5.5C6.60457 5.5 7.5 4.60457 7.5 3.5C7.5 2.39543 6.60457 1.5 5.5 1.5ZM2 3.5C2 1.567 3.567 0 5.5 0C7.433 0 9 1.567 9 3.5C9 5.433 7.433 7 5.5 7C3.567 7 2 5.433 2 3.5Z" fill-rule="EVENODD"></path>
  <path d="M14.2803 4.21967C14.5732 4.51256 14.5732 4.98744 14.2803 5.28033L11.7803 7.78033C11.4874 8.07322 11.0126 8.07322 10.7197 7.78033C10.4268 7.48744 10.4268 7.01256 10.7197 6.71967L13.2197 4.21967C13.5126 3.92678 13.9874 3.92678 14.2803 4.21967Z" fill-rule="EVENODD"></path>
  <path d="M9.71967 5.71967C10.0126 5.42678 10.4874 5.42678 10.7803 5.71967L11.7803 6.71967C12.0732 7.01256 12.0732 7.48744 11.7803 7.78033C11.4874 8.07322 11.0126 8.07322 10.7197 7.78033L9.71967 6.78033C9.42678 6.48744 9.42678 6.01256 9.71967 5.71967Z" fill-rule="EVENODD"></path>
 </g>
</svg>