<svg viewBox="0 0 24 24" width="24" height="24" fill="currentColor" xmlns="http://www.w3.org/2000/svg">
 <g transform="translate(1, 2)">
  <path d="M7 10C7 6.68629 9.68629 4 13 4C16.3137 4 19 6.68629 19 10C19 13.3137 16.3137 16 13 16C9.68629 16 7 13.3137 7 10ZM9.33194 7.3926C8.80809 8.12821 8.5 9.02813 8.5 10C8.5 10.9719 8.80809 11.8718 9.33194 12.6074L10.7829 11.1564C10.6022 10.8106 10.5 10.4172 10.5 10C10.5 9.58277 10.6022 9.18942 10.7829 8.84361L9.33194 7.3926ZM10.3926 6.33194L11.8436 7.78295C12.1894 7.60221 12.5828 7.5 13 7.5C13.4172 7.5 13.8106 7.60221 14.1564 7.78295L15.6074 6.33194C14.8718 5.80809 13.9719 5.5 13 5.5C12.0281 5.5 11.1282 5.80809 10.3926 6.33194ZM11.8436 12.2171L10.3926 13.6681C11.1282 14.1919 12.0281 14.5 13 14.5C13.9719 14.5 14.8718 14.1919 15.6074 13.6681L14.1564 12.2171C13.8106 12.3978 13.4172 12.5 13 12.5C12.5828 12.5 12.1894 12.3978 11.8436 12.2171ZM17.5 10C17.5 10.9719 17.1919 11.8718 16.6681 12.6074L15.2171 11.1564C15.3978 10.8106 15.5 10.4172 15.5 10C15.5 9.58277 15.3978 9.18942 15.2171 8.84361L16.6681 7.3926C17.1919 8.12821 17.5 9.02813 17.5 10ZM12 10C12 9.44772 12.4477 9 13 9C13.5523 9 14 9.44772 14 10C14 10.5523 13.5523 11 13 11C12.4477 11 12 10.5523 12 10Z" fill-rule="EVENODD"></path>
  <path d="M3.75 3C4.16421 3 4.5 3.33579 4.5 3.75L4.5 6.25C4.5 6.66421 4.16421 7 3.75 7C3.33579 7 3 6.66421 3 6.25L3 3.75C3 3.33579 3.33579 3 3.75 3Z" fill-rule="NONZERO"></path>
  <path d="M4.5 13.75C4.5 13.3358 4.16421 13 3.75 13C3.33579 13 3 13.3358 3 13.75L3 16.25C3 16.6642 3.33579 17 3.75 17C4.16421 17 4.5 16.6642 4.5 16.25L4.5 13.75Z" fill-rule="NONZERO"></path>
  <path d="M0 2.75C0 1.23122 1.23122 0 2.75 0L19.25 0C20.7688 0 22 1.23122 22 2.75L22 17.25C22 18.7688 20.7688 20 19.25 20L19.125 20L19.125 21C19.125 21.4832 18.7332 21.875 18.25 21.875C17.7668 21.875 17.375 21.4832 17.375 21L17.375 20L4.625 20L4.625 21C4.625 21.4832 4.23325 21.875 3.75 21.875C3.26675 21.875 2.875 21.4832 2.875 21L2.875 20L2.75 20C1.23122 20 0 18.7688 0 17.25L0 2.75ZM2.75 1.5C2.05964 1.5 1.5 2.05964 1.5 2.75L1.5 17.25C1.5 17.9404 2.05964 18.5 2.75 18.5L19.25 18.5C19.9404 18.5 20.5 17.9404 20.5 17.25L20.5 2.75C20.5 2.05964 19.9404 1.5 19.25 1.5L2.75 1.5Z" fill-rule="EVENODD"></path>
 </g>
</svg>