<svg viewBox="0 0 24 24" width="24" height="24" fill="black" xmlns="http://www.w3.org/2000/svg">
 <g transform="translate(1, 2)">
  <path d="M0 2.75C0 1.23122 1.23122 0 2.75 0L19.25 0C20.7688 0 22 1.23122 22 2.75L22 17.25C22 18.7688 20.7688 20 19.25 20L2.75 20C1.23122 20 0 18.7688 0 17.25L0 2.75ZM2.75 1.5C2.05964 1.5 1.5 2.05964 1.5 2.75L1.5 17.25C1.5 17.9404 2.05964 18.5 2.75 18.5L19.25 18.5C19.9404 18.5 20.5 17.9404 20.5 17.25L20.5 2.75C20.5 2.05964 19.9404 1.5 19.25 1.5L2.75 1.5Z" fill-rule="EVENODD"></path>
  <path d="M13 5.5C10.5147 5.5 8.5 7.51472 8.5 10C8.5 12.4853 10.5147 14.5 13 14.5C15.4853 14.5 17.5 12.4853 17.5 10C17.5 7.51472 15.4853 5.5 13 5.5ZM7 10C7 6.68629 9.68629 4 13 4C16.3137 4 19 6.68629 19 10C19 13.3137 16.3137 16 13 16C9.68629 16 7 13.3137 7 10Z" fill-rule="EVENODD"></path>
  <path d="M13 9C12.4477 9 12 9.44772 12 10C12 10.5523 12.4477 11 13 11C13.5523 11 14 10.5523 14 10C14 9.44772 13.5523 9 13 9ZM10.5 10C10.5 8.61929 11.6193 7.5 13 7.5C14.3807 7.5 15.5 8.61929 15.5 10C15.5 11.3807 14.3807 12.5 13 12.5C11.6193 12.5 10.5 11.3807 10.5 10Z" fill-rule="EVENODD"></path>
  <path d="M17.0303 5.96967C17.3232 6.26256 17.3232 6.73744 17.0303 7.03033L15.0303 9.03033C14.7374 9.32322 14.2626 9.32322 13.9697 9.03033C13.6768 8.73744 13.6768 8.26256 13.9697 7.96967L15.9697 5.96967C16.2626 5.67678 16.7374 5.67678 17.0303 5.96967Z" fill-rule="EVENODD"></path>
  <path d="M12.0303 10.9697C12.3232 11.2626 12.3232 11.7374 12.0303 12.0303L10.0303 14.0303C9.73744 14.3232 9.26256 14.3232 8.96967 14.0303C8.67678 13.7374 8.67678 13.2626 8.96967 12.9697L10.9697 10.9697C11.2626 10.6768 11.7374 10.6768 12.0303 10.9697Z" fill-rule="EVENODD"></path>
  <path d="M17.0303 14.0303C16.7374 14.3232 16.2626 14.3232 15.9697 14.0303L13.9697 12.0303C13.6768 11.7374 13.6768 11.2626 13.9697 10.9697C14.2626 10.6768 14.7374 10.6768 15.0303 10.9697L17.0303 12.9697C17.3232 13.2626 17.3232 13.7374 17.0303 14.0303Z" fill-rule="EVENODD"></path>
  <path d="M12.0303 9.03033C11.7374 9.32322 11.2626 9.32322 10.9697 9.03033L8.96967 7.03033C8.67678 6.73744 8.67678 6.26256 8.96967 5.96967C9.26256 5.67678 9.73744 5.67678 10.0303 5.96967L12.0303 7.96967C12.3232 8.26256 12.3232 8.73744 12.0303 9.03033Z" fill-rule="EVENODD"></path>
  <path d="M3.75 3C4.16421 3 4.5 3.33579 4.5 3.75L4.5 6.25C4.5 6.66421 4.16421 7 3.75 7C3.33579 7 3 6.66421 3 6.25L3 3.75C3 3.33579 3.33579 3 3.75 3Z" fill-rule="EVENODD"></path>
  <path d="M3.75 13C4.16421 13 4.5 13.3358 4.5 13.75L4.5 16.25C4.5 16.6642 4.16421 17 3.75 17C3.33579 17 3 16.6642 3 16.25L3 13.75C3 13.3358 3.33579 13 3.75 13Z" fill-rule="EVENODD"></path>
  <path d="M3.75 18.625C4.23325 18.625 4.625 19.0168 4.625 19.5L4.625 21C4.625 21.4832 4.23325 21.875 3.75 21.875C3.26675 21.875 2.875 21.4832 2.875 21L2.875 19.5C2.875 19.0168 3.26675 18.625 3.75 18.625Z" fill-rule="EVENODD"></path>
  <path d="M18.25 18.625C18.7332 18.625 19.125 19.0168 19.125 19.5L19.125 21C19.125 21.4832 18.7332 21.875 18.25 21.875C17.7668 21.875 17.375 21.4832 17.375 21L17.375 19.5C17.375 19.0168 17.7668 18.625 18.25 18.625Z" fill-rule="EVENODD"></path>
 </g>
</svg>