<svg viewBox="0 0 16 16" width="16" height="16" fill="currentColor" xmlns="http://www.w3.org/2000/svg">
 <g transform="translate(0.707763671875, 0.7080078125)">
  <path d="M10.5726 5.01166C10.8655 5.30456 10.8655 5.77943 10.5726 6.07232L6.57257 10.0723C6.27967 10.3652 5.8048 10.3652 5.51191 10.0723L4.01191 8.57232C3.71901 8.27943 3.71901 7.80456 4.01191 7.51166C4.3048 7.21877 4.77967 7.21877 5.07257 7.51166L6.04224 8.48133L9.51191 5.01166C9.8048 4.71877 10.2797 4.71877 10.5726 5.01166Z" fill-rule="NONZERO"></path>
  <path d="M5.69379 0.512233C6.64996 -0.170745 7.93443 -0.170744 8.8906 0.512233L9.58025 1.00484C9.73454 1.11505 9.91187 1.18871 10.0988 1.22025L10.964 1.36623C12.1187 1.56105 13.0233 2.4657 13.2182 3.62038L13.3641 4.48555C13.3957 4.67251 13.4693 4.84985 13.5795 5.00414L14.0722 5.69379C14.7551 6.64996 14.7551 7.93443 14.0722 8.8906L13.5795 9.58025C13.4693 9.73454 13.3957 9.91187 13.3641 10.0988L13.2182 10.964C13.0233 12.1187 12.1187 13.0233 10.964 13.2182L10.0988 13.3641C9.91187 13.3957 9.73454 13.4693 9.58025 13.5795L8.8906 14.0722C7.93443 14.7551 6.64996 14.7551 5.69379 14.0722L5.00413 13.5795C4.84985 13.4693 4.67251 13.3957 4.48555 13.3641L3.62038 13.2182C2.4657 13.0233 1.56105 12.1187 1.36623 10.964L1.22025 10.0988C1.18871 9.91187 1.11505 9.73454 1.00484 9.58025L0.512233 8.8906C-0.170745 7.93443 -0.170744 6.64996 0.512233 5.69379L1.00484 5.00413C1.11505 4.84985 1.18871 4.67251 1.22025 4.48555L1.36623 3.62038C1.56105 2.4657 2.4657 1.56105 3.62038 1.36623L4.48555 1.22025C4.67251 1.18871 4.84985 1.11505 5.00414 1.00484L5.69379 0.512233ZM8.01874 1.73283C7.58412 1.42239 7.00027 1.42239 6.56565 1.73283L5.87599 2.22544C5.53656 2.46789 5.14642 2.62995 4.73511 2.69935L3.86994 2.84532C3.34508 2.93388 2.93388 3.34508 2.84532 3.86994L2.69935 4.73511C2.62995 5.14642 2.46789 5.53656 2.22544 5.87599L1.73283 6.56564C1.42239 7.00027 1.42239 7.58412 1.73283 8.01874L2.22544 8.70839C2.46789 9.04782 2.62995 9.43796 2.69935 9.84928L2.84532 10.7144C2.93388 11.2393 3.34508 11.6505 3.86994 11.7391L4.73511 11.885C5.14642 11.9544 5.53656 12.1165 5.87599 12.3589L6.56564 12.8516C7.00027 13.162 7.58412 13.162 8.01874 12.8516L8.70839 12.3589C9.04782 12.1165 9.43796 11.9544 9.84928 11.885L10.7144 11.7391C11.2393 11.6505 11.6505 11.2393 11.7391 10.7144L11.885 9.84928C11.9544 9.43796 12.1165 9.04782 12.3589 8.70839L12.8516 8.01874C13.162 7.58412 13.162 7.00027 12.8516 6.56565L12.3589 5.87599C12.1165 5.53656 11.9544 5.14642 11.885 4.73511L11.7391 3.86994C11.6505 3.34508 11.2393 2.93388 10.7144 2.84532L9.84928 2.69935C9.43796 2.62995 9.04782 2.46789 8.70839 2.22544L8.01874 1.73283Z" fill-rule="EVENODD"></path>
 </g>
</svg>