<svg viewBox="0 0 24 24" width="24" height="24" fill="currentColor" xmlns="http://www.w3.org/2000/svg">
 <g transform="translate(0, 4)">
  <path d="M0 2.75C0 1.23122 1.23122 0 2.75 0L14.25 0C15.7688 0 17 1.23122 17 2.75L17 5.88821L21.1269 2.56586C22.2642 1.61309 24 2.42103 24 3.9079L24 12.0921C24 13.5797 22.2625 14.3877 21.1252 13.4327L17 10.0769L17 13.25C17 14.7688 15.7688 16 14.25 16L2.75 16C1.23122 16 0 14.7688 0 13.25L0 2.75ZM17 7.97913C17 8.083 17.0468 8.18135 17.1273 8.24689L22.0769 12.2733L22.0884 12.2828C22.2508 12.4205 22.5 12.305 22.5 12.0921L22.5 3.9079C22.5 3.69499 22.2508 3.57952 22.0884 3.71716L22.0739 3.72913L17.1287 7.71027C17.0473 7.77579 17 7.87465 17 7.97913ZM15.5 2.75C15.5 2.05964 14.9404 1.5 14.25 1.5L2.75 1.5C2.05964 1.5 1.5 2.05964 1.5 2.75L1.5 13.25C1.5 13.9404 2.05964 14.5 2.75 14.5L14.25 14.5C14.9404 14.5 15.5 13.9404 15.5 13.25L15.5 2.75Z" fill-rule="EVENODD"></path>
 </g>
</svg>