<svg viewBox="0 0 24 24" width="24" height="24" fill="black" xmlns="http://www.w3.org/2000/svg">
 <g transform="translate(0, 1)">
  <path d="M2.75 4.5C2.05964 4.5 1.5 5.05964 1.5 5.75L1.5 16.25C1.5 16.9404 2.05964 17.5 2.75 17.5L14.25 17.5C14.9404 17.5 15.5 16.9404 15.5 16.25L15.5 15.5C15.5 15.0858 15.8358 14.75 16.25 14.75C16.6642 14.75 17 15.0858 17 15.5L17 16.25C17 17.7688 15.7688 19 14.25 19L2.75 19C1.23122 19 0 17.7688 0 16.25L0 5.75C0 4.23122 1.23122 3 2.75 3L4.5 3C4.91421 3 5.25 3.33579 5.25 3.75C5.25 4.16421 4.91421 4.5 4.5 4.5L2.75 4.5ZM9.75 3.75C9.75 3.33579 10.0858 3 10.5 3L14.25 3C15.7688 3 17 4.23122 17 5.75L17 8.88821L21.1269 5.56586C22.2642 4.61309 24 5.42103 24 6.9079L24 15.0921C24 15.7945 23.6038 16.3526 23.0769 16.6345C22.7116 16.8298 22.2572 16.6921 22.0618 16.3269C21.8664 15.9616 22.0042 15.5072 22.3694 15.3118C22.4113 15.2894 22.4437 15.2584 22.465 15.2245C22.4847 15.193 22.5 15.1512 22.5 15.0921L22.5 6.9079C22.5 6.69499 22.2508 6.57952 22.0884 6.71716L22.0739 6.72913L17.6481 10.2922C17.1229 10.715 16.3634 10.6741 15.8867 10.1973C15.6391 9.94975 15.5 9.61396 15.5 9.26382L15.5 5.75C15.5 5.05964 14.9404 4.5 14.25 4.5L10.5 4.5C10.0858 4.5 9.75 4.16421 9.75 3.75Z" fill-rule="EVENODD"></path>
  <path d="M1.21967 0.21967C1.51256 -0.0732233 1.98744 -0.0732233 2.28033 0.21967L22.7803 20.7197C23.0732 21.0126 23.0732 21.4874 22.7803 21.7803C22.4874 22.0732 22.0126 22.0732 21.7197 21.7803L1.21967 1.28033C0.926777 0.987437 0.926777 0.512563 1.21967 0.21967Z" fill-rule="EVENODD"></path>
 </g>
</svg>