<svg viewBox="0 0 16 16" width="16" height="16" fill="currentColor" xmlns="http://www.w3.org/2000/svg">
 <g transform="translate(0, 3)">
  <path d="M0 2.25C0 1.00736 1.00736 0 2.25 0L8.75 0C9.99264 0 11 1.00736 11 2.25L11 3.06828L14.0182 0.978051C14.8426 0.381639 16 0.969981 16 1.99142L16 8.00858C16 9.03002 14.8426 9.61837 14.0181 9.02194L11 6.93172L11 7.75C11 8.99264 9.99264 10 8.75 10L2.25 10C1.00736 10 0 8.99264 0 7.75L0 2.25ZM11 5C11 5.06709 11.0329 5.1299 11.0881 5.1681L14.5 7.53105L14.5 2.46895L11.0881 4.8319C11.0329 4.87009 11 4.93291 11 5ZM9.5 2.25C9.5 1.83579 9.16421 1.5 8.75 1.5L2.25 1.5C1.83579 1.5 1.5 1.83579 1.5 2.25L1.5 7.75C1.5 8.16421 1.83579 8.5 2.25 8.5L8.75 8.5C9.16421 8.5 9.5 8.16421 9.5 7.75L9.5 2.25Z" fill-rule="EVENODD"></path>
 </g>
</svg>