<svg viewBox="0 0 24 24" width="24" height="24" fill="currentColor" xmlns="http://www.w3.org/2000/svg">
 <g transform="translate(0, 1)">
  <path d="M2.28033 0.21967C1.98744 -0.0732233 1.51256 -0.0732233 1.21967 0.21967C0.926777 0.512563 0.926777 0.987437 1.21967 1.28033L2.93934 3L2.75 3C1.23122 3 0 4.23122 0 5.75L0 16.25C0 17.7688 1.23122 19 2.75 19L14.25 19C15.521 19 16.5905 18.1378 16.9058 16.9664L21.7197 21.7803C22.0126 22.0732 22.4874 22.0732 22.7803 21.7803C23.0732 21.4874 23.0732 21.0126 22.7803 20.7197L2.28033 0.21967ZM15.5 15.5607L4.43934 4.5L2.75 4.5C2.05964 4.5 1.5 5.05964 1.5 5.75L1.5 16.25C1.5 16.9404 2.05964 17.5 2.75 17.5L14.25 17.5C14.9404 17.5 15.5 16.9404 15.5 16.25L15.5 15.5607Z" fill-rule="EVENODD"></path>
  <path d="M10.5 3C10.0858 3 9.75 3.33579 9.75 3.75C9.75 4.16421 10.0858 4.5 10.5 4.5L14.25 4.5C14.9404 4.5 15.5 5.05964 15.5 5.75L15.5 9.26382C15.5 9.61396 15.6391 9.94975 15.8867 10.1973C16.3634 10.6741 17.1229 10.715 17.6481 10.2922L22.0739 6.72913L22.0884 6.71716C22.2508 6.57952 22.5 6.69499 22.5 6.9079L22.5 15.0921C22.5 15.1512 22.4847 15.193 22.465 15.2245C22.4437 15.2584 22.4113 15.2894 22.3694 15.3118C22.0042 15.5072 21.8664 15.9616 22.0618 16.3269C22.2572 16.6921 22.7116 16.8298 23.0769 16.6345C23.6038 16.3526 24 15.7945 24 15.0921L24 6.9079C24 5.42103 22.2642 4.61309 21.1269 5.56586L17 8.88821L17 5.75C17 4.23122 15.7688 3 14.25 3L10.5 3Z" fill-rule="NONZERO"></path>
 </g>
</svg>