<svg viewBox="0 0 24 24" width="24" height="24" fill="black" xmlns="http://www.w3.org/2000/svg">
 <g transform="translate(1, 4.321390628814697)">
  <path d="M9.5 1.75348C9.5 1.53399 9.2374 1.42104 9.07806 1.57199L5.7773 4.69903C5.45225 5.00697 5.02151 5.17861 4.57375 5.17861L1.75 5.17861C1.61193 5.17861 1.5 5.29054 1.5 5.42861L1.5 9.92861C1.5 10.0667 1.61193 10.1786 1.75 10.1786L4.57375 10.1786C5.02152 10.1786 5.45225 10.3502 5.7773 10.6582L9.07806 13.7852C9.2374 13.9362 9.5 13.8232 9.5 13.6037L9.5 1.75348ZM8.04645 0.483061C9.16179 -0.573581 11 0.217093 11 1.75348L11 13.6037C11 15.1401 9.16179 15.9308 8.04645 14.8742L4.74569 11.7471C4.69925 11.7031 4.63772 11.6786 4.57375 11.6786L1.75 11.6786C0.783502 11.6786 0 10.8951 0 9.92861L0 5.42861C0 4.46211 0.783502 3.67861 1.75 3.67861L4.57375 3.67861C4.63772 3.67861 4.69925 3.65409 4.74569 3.6101L8.04645 0.483061Z" fill-rule="EVENODD"></path>
 </g>
</svg>