<svg viewBox="0 0 16 16" width="16" height="16" fill="currentColor" xmlns="http://www.w3.org/2000/svg">
 <g transform="translate(0, 2.4580078125)">
  <path d="M7.03317 0.228135C7.86165 -0.351796 9 0.240898 9 1.25218L9 9.83152C9 10.8428 7.86164 11.4355 7.03317 10.8556L3.72786 8.54185L1.25 8.54185C0.559644 8.54185 0 7.9822 0 7.29185L0 3.79185C0 3.10149 0.559644 2.54185 1.25 2.54185L3.72786 2.54185L7.03317 0.228135ZM7.5 1.73234L4.5235 3.81589C4.31339 3.96296 4.06313 4.04185 3.80667 4.04185L1.5 4.04185L1.5 7.04185L3.80667 7.04185C4.06313 7.04185 4.31339 7.12073 4.5235 7.26781L7.5 9.35136L7.5 1.73234Z" fill-rule="EVENODD"></path>
  <path d="M15.2803 3.26166C15.5732 3.55456 15.5732 4.02943 15.2803 4.32232L14.0607 5.54199L15.2803 6.76166C15.5732 7.05455 15.5732 7.52943 15.2803 7.82232C14.9874 8.11522 14.5126 8.11522 14.2197 7.82232L13 6.60265L11.7803 7.82232C11.4874 8.11522 11.0126 8.11522 10.7197 7.82232C10.4268 7.52943 10.4268 7.05455 10.7197 6.76166L11.9393 5.54199L10.7197 4.32232C10.4268 4.02943 10.4268 3.55456 10.7197 3.26166C11.0126 2.96877 11.4874 2.96877 11.7803 3.26166L13 4.48133L14.2197 3.26166C14.5126 2.96877 14.9874 2.96877 15.2803 3.26166Z" fill-rule="NONZERO"></path>
 </g>
</svg>