<svg viewBox="0 0 16 16" width="16" height="16" fill="black" xmlns="http://www.w3.org/2000/svg">
 <g transform="translate(0.2500051259994507, 2.25007700920105)">
  <path d="M8.08541 0.0791862C8.3395 0.206231 8.5 0.465927 8.5 0.750004L8.5 10.75C8.5 11.0341 8.3395 11.2938 8.08541 11.4208C7.83132 11.5479 7.52726 11.5205 7.29999 11.35L3.5 8.49993L0.75002 8.5C0.551104 8.50001 0.360334 8.42099 0.219677 8.28034C0.0790204 8.13969 0 7.94892 0 7.75L0 3.74992C0 3.33571 0.335786 2.99992 0.75 2.99992L3.5 2.99992L7.30001 0.149998C7.52727 -0.020445 7.83133 -0.0478587 8.08541 0.0791862ZM7 2.24998L4.19999 4.34993C4.07017 4.44729 3.91227 4.49992 3.74999 4.49992L1.5 4.49992L1.5 6.99998L3.74997 6.99992C3.91226 6.99992 4.07017 7.05255 4.2 7.14993L7 9.24998L7 2.24998Z" fill-rule="EVENODD"></path>
 </g>
</svg>