<svg viewBox="0 0 16 16" width="16" height="16" fill="black" xmlns="http://www.w3.org/2000/svg">
 <g transform="translate(0, 2.4581520557403564)">
  <path d="M7.5 1.73234L4.5235 3.81589C4.31339 3.96296 4.06313 4.04185 3.80667 4.04185L1.5 4.04185L1.5 7.04185L3.80667 7.04185C4.06313 7.04185 4.31339 7.12073 4.5235 7.26781L7.5 9.35136L7.5 1.73234ZM7.03317 0.228135C7.86165 -0.351796 9 0.240898 9 1.25218L9 9.83152C9 10.8428 7.86164 11.4355 7.03317 10.8556L3.72786 8.54185L1.25 8.54185C0.559644 8.54185 0 7.9822 0 7.29185L0 3.79185C0 3.10149 0.559644 2.54185 1.25 2.54185L3.72786 2.54185L7.03317 0.228135Z" fill-rule="EVENODD"></path>
 </g>
</svg>