<svg viewBox="0 0 24 24" width="24" height="24" fill="black" xmlns="http://www.w3.org/2000/svg">
 <g transform="translate(1.25, 4.18017578125)">
  <path d="M18.3504 0.21975C18.0575 -0.0731874 17.5827 -0.0732591 17.2897 0.21959C16.9968 0.512439 16.9967 0.987313 17.2896 1.28025C19.0237 3.01488 19.9978 5.36723 19.9978 7.82C19.9978 10.2728 19.0237 12.6251 17.2896 14.3597C16.9967 14.6527 16.9968 15.1276 17.2897 15.4204C17.5827 15.7133 18.0575 15.7132 18.3504 15.4202C20.3657 13.4043 21.4978 10.6705 21.4978 7.82C21.4978 4.96949 20.3657 2.23567 18.3504 0.21975Z" fill-rule="NONZERO"></path>
  <path d="M14.8204 3.74975C14.5275 3.45681 14.0527 3.45674 13.7597 3.74959C13.4668 4.04244 13.4667 4.51731 13.7596 4.81025C14.5563 5.60724 15.0039 6.68805 15.0039 7.815C15.0039 8.94195 14.5563 10.0228 13.7596 10.8198C13.4667 11.1127 13.4668 11.5876 13.7597 11.8804C14.0527 12.1733 14.5275 12.1732 14.8204 11.8802C15.8983 10.802 16.5039 9.33969 16.5039 7.815C16.5039 6.29031 15.8983 4.82803 14.8204 3.74975Z" fill-rule="NONZERO"></path>
  <path d="M10.5 0.819831C10.5 0.531527 10.3347 0.268744 10.0749 0.143854C9.81504 0.0189638 9.50661 0.0540776 9.28148 0.23418L4.48691 4.06983L0.75 4.06983C0.335786 4.06983 0 4.40562 0 4.81983L0 10.8198C0 11.234 0.335786 11.5698 0.75 11.5698L4.48691 11.5698L9.28148 15.4055C9.50661 15.5856 9.81504 15.6207 10.0749 15.4958C10.3347 15.3709 10.5 15.1081 10.5 14.8198L10.5 0.819831ZM5.21852 5.40548L9 2.3803L9 13.2594L5.21852 10.2342C5.08554 10.1278 4.9203 10.0698 4.75 10.0698L1.5 10.0698L1.5 5.56983L4.75 5.56983C4.9203 5.56983 5.08554 5.51187 5.21852 5.40548Z" fill-rule="EVENODD"></path>
 </g>
</svg>