<svg viewBox="0 0 16 16" width="16" height="16" fill="black" xmlns="http://www.w3.org/2000/svg">
 <g transform="translate(0, 1)">
  <path d="M0.583313 9.25C0.583313 8.83579 0.919099 8.5 1.33331 8.5L14.6666 8.5C15.0809 8.5 15.4166 8.83579 15.4166 9.25C15.4166 9.66421 15.0809 10 14.6666 10L1.33331 10C0.919099 10 0.583313 9.66421 0.583313 9.25Z" fill-rule="EVENODD"></path>
  <path d="M0.583313 4.75C0.583313 4.33579 0.919099 4 1.33331 4L14.6666 4C15.0809 4 15.4166 4.33579 15.4166 4.75C15.4166 5.16421 15.0809 5.5 14.6666 5.5L1.33331 5.5C0.919099 5.5 0.583313 5.16421 0.583313 4.75Z" fill-rule="EVENODD"></path>
  <path d="M5.25 0C5.66421 -7.66449e-18 6 0.335786 6 0.75L6 4.75C6 5.16421 5.66421 5.5 5.25 5.5C4.83579 5.5 4.5 5.16421 4.5 4.75L4.5 0.75C4.5 0.335786 4.83579 7.66449e-18 5.25 0Z" fill-rule="EVENODD"></path>
  <path d="M7.75 4.25C8.16421 4.25 8.5 4.58579 8.5 5L8.5 9C8.5 9.41421 8.16421 9.75 7.75 9.75C7.33579 9.75 7 9.41421 7 9L7 5C7 4.58579 7.33579 4.25 7.75 4.25Z" fill-rule="EVENODD"></path>
  <path d="M10.75 0C11.1642 -7.66449e-18 11.5 0.335786 11.5 0.75L11.5 4.75C11.5 5.16421 11.1642 5.5 10.75 5.5C10.3358 5.5 10 5.16421 10 4.75L10 0.75C10 0.335786 10.3358 7.66449e-18 10.75 0Z" fill-rule="EVENODD"></path>
  <path d="M5.25 8.5C5.66421 8.5 6 8.83579 6 9.25L6 13.25C6 13.6642 5.66421 14 5.25 14C4.83579 14 4.5 13.6642 4.5 13.25L4.5 9.25C4.5 8.83579 4.83579 8.5 5.25 8.5Z" fill-rule="EVENODD"></path>
  <path d="M10.75 8.5C11.1642 8.5 11.5 8.83579 11.5 9.25L11.5 13.25C11.5 13.6642 11.1642 14 10.75 14C10.3358 14 10 13.6642 10 13.25L10 9.25C10 8.83579 10.3358 8.5 10.75 8.5Z" fill-rule="EVENODD"></path>
  <path d="M0 2.25C0 1.00736 1.00736 0 2.25 0L13.75 0C14.9926 0 16 1.00736 16 2.25L16 11.75C16 12.9926 14.9926 14 13.75 14L2.25 14C1.00736 14 0 12.9926 0 11.75L0 2.25ZM2.25 1.5C1.83579 1.5 1.5 1.83579 1.5 2.25L1.5 11.75C1.5 12.1642 1.83579 12.5 2.25 12.5L13.75 12.5C14.1642 12.5 14.5 12.1642 14.5 11.75L14.5 2.25C14.5 1.83579 14.1642 1.5 13.75 1.5L2.25 1.5Z" fill-rule="EVENODD"></path>
 </g>
</svg>