<svg viewBox="0 0 16 16" width="16" height="16" fill="currentColor" xmlns="http://www.w3.org/2000/svg">
 <g transform="translate(0, 1)">
  <path d="M2.25 0C1.00736 0 0 1.00736 0 2.25L0 11.75C0 12.9926 1.00736 14 2.25 14L13.75 14C14.9926 14 16 12.9926 16 11.75L16 2.25C16 1.00736 14.9926 0 13.75 0L2.25 0ZM4.5 1.5L2.25 1.5C1.83579 1.5 1.5 1.83579 1.5 2.25L1.5 4L4.5 4L4.5 1.5ZM1.5 5.5L1.5 8.5L7 8.5L7 5.5L1.5 5.5ZM1.5 10L1.5 11.75C1.5 12.1642 1.83579 12.5 2.25 12.5L4.5 12.5L4.5 10L1.5 10ZM6 12.5L10 12.5L10 10L6 10L6 12.5ZM11.5 12.5L13.75 12.5C14.1642 12.5 14.5 12.1642 14.5 11.75L14.5 10L11.5 10L11.5 12.5ZM14.5 8.5L14.5 5.5L8.5 5.5L8.5 8.5L14.5 8.5ZM14.5 4L14.5 2.25C14.5 1.83579 14.1642 1.5 13.75 1.5L11.5 1.5L11.5 4L14.5 4ZM10 1.5L10 4L6 4L6 1.5L10 1.5Z" fill-rule="EVENODD"></path>
 </g>
</svg>