<svg viewBox="0 0 24 24" width="24" height="24" fill="currentColor" xmlns="http://www.w3.org/2000/svg">
 <g transform="translate(1, 2)">
  <path d="M0.25 13.25C0.25 12.8358 0.585786 12.5 1 12.5L21 12.5C21.4142 12.5 21.75 12.8358 21.75 13.25C21.75 13.6642 21.4142 14 21 14L1 14C0.585786 14 0.25 13.6642 0.25 13.25Z" fill-rule="EVENODD"></path>
  <path d="M0.25 6.75C0.25 6.33579 0.585786 6 1 6L21 6C21.4142 6 21.75 6.33579 21.75 6.75C21.75 7.16421 21.4142 7.5 21 7.5L1 7.5C0.585786 7.5 0.25 7.16421 0.25 6.75Z" fill-rule="EVENODD"></path>
  <path d="M6.25 0C6.66421 -1.14967e-17 7 0.335786 7 0.75L7 6.75C7 7.16421 6.66421 7.5 6.25 7.5C5.83579 7.5 5.5 7.16421 5.5 6.75L5.5 0.75C5.5 0.335786 5.83579 1.14967e-17 6.25 0Z" fill-rule="EVENODD"></path>
  <path d="M10.75 6.25C11.1642 6.25 11.5 6.58579 11.5 7L11.5 13C11.5 13.4142 11.1642 13.75 10.75 13.75C10.3358 13.75 10 13.4142 10 13L10 7C10 6.58579 10.3358 6.25 10.75 6.25Z" fill-rule="EVENODD"></path>
  <path d="M15.75 0C16.1642 -1.14967e-17 16.5 0.335786 16.5 0.75L16.5 6.75C16.5 7.16421 16.1642 7.5 15.75 7.5C15.3358 7.5 15 7.16421 15 6.75L15 0.75C15 0.335786 15.3358 1.14967e-17 15.75 0Z" fill-rule="EVENODD"></path>
  <path d="M6.25 12.5C6.66421 12.5 7 12.8358 7 13.25L7 19.25C7 19.6642 6.66421 20 6.25 20C5.83579 20 5.5 19.6642 5.5 19.25L5.5 13.25C5.5 12.8358 5.83579 12.5 6.25 12.5Z" fill-rule="EVENODD"></path>
  <path d="M15.75 12.5C16.1642 12.5 16.5 12.8358 16.5 13.25L16.5 19.25C16.5 19.6642 16.1642 20 15.75 20C15.3358 20 15 19.6642 15 19.25L15 13.25C15 12.8358 15.3358 12.5 15.75 12.5Z" fill-rule="EVENODD"></path>
  <path d="M0 2.75C0 1.23122 1.23122 0 2.75 0L19.25 0C20.7688 0 22 1.23122 22 2.75L22 17.25C22 18.7688 20.7688 20 19.25 20L2.75 20C1.23122 20 0 18.7688 0 17.25L0 2.75ZM2.75 1.5C2.05964 1.5 1.5 2.05964 1.5 2.75L1.5 17.25C1.5 17.9404 2.05964 18.5 2.75 18.5L19.25 18.5C19.9404 18.5 20.5 17.9404 20.5 17.25L20.5 2.75C20.5 2.05964 19.9404 1.5 19.25 1.5L2.75 1.5Z" fill-rule="EVENODD"></path>
 </g>
</svg>