<svg viewBox="0 0 24 24" width="24" height="24" fill="currentColor" xmlns="http://www.w3.org/2000/svg">
 <g transform="translate(4, 0)">
  <path d="M8 5.5C4.41015 5.5 1.5 8.41015 1.5 12C1.5 15.5899 4.41015 18.5 8 18.5C11.5899 18.5 14.5 15.5899 14.5 12C14.5 8.41015 11.5899 5.5 8 5.5ZM0 12C0 7.58172 3.58172 4 8 4C12.4183 4 16 7.58172 16 12C16 16.4183 12.4183 20 8 20C3.58172 20 0 16.4183 0 12Z" fill-rule="EVENODD"></path>
  <path d="M7.75 7.5C8.16421 7.5 8.5 7.83579 8.5 8.25L8.5 12.0365L10.5854 13.0792C10.9559 13.2644 11.1061 13.7149 10.9208 14.0854C10.7356 14.4559 10.2851 14.6061 9.91459 14.4208L7.41459 13.1708C7.1605 13.0438 7 12.7841 7 12.5L7 8.25C7 7.83579 7.33579 7.5 7.75 7.5Z" fill-rule="EVENODD"></path>
  <path d="M3.46351 2.25807C3.70126 0.950468 4.84011 0 6.16915 0L9.83085 0C11.1599 0 12.2987 0.950465 12.5365 2.25806L13.2379 6.11584C13.312 6.52337 13.0417 6.91381 12.6342 6.9879C12.2266 7.062 11.8362 6.7917 11.7621 6.38416L11.0607 2.52639C10.9526 1.93203 10.435 1.5 9.83085 1.5L6.16915 1.5C5.56505 1.5 5.04738 1.93203 4.93931 2.5264L4.2379 6.38416C4.16381 6.7917 3.77337 7.062 3.36584 6.9879C2.9583 6.91381 2.688 6.52337 2.7621 6.11584L3.46351 2.25807Z" fill-rule="EVENODD"></path>
  <path d="M3.46351 21.7419C3.70126 23.0495 4.84011 24 6.16915 24L9.83085 24C11.1599 24 12.2987 23.0495 12.5365 21.7419L13.2379 17.8842C13.312 17.4766 13.0417 17.0862 12.6342 17.0121C12.2266 16.938 11.8362 17.2083 11.7621 17.6158L11.0607 21.4736C10.9526 22.068 10.435 22.5 9.83085 22.5L6.16915 22.5C5.56505 22.5 5.04738 22.068 4.93931 21.4736L4.2379 17.6158C4.16381 17.2083 3.77337 16.938 3.36584 17.0121C2.9583 17.0862 2.688 17.4766 2.7621 17.8842L3.46351 21.7419Z" fill-rule="EVENODD"></path>
 </g>
</svg>