<svg viewBox="0 0 16 16" width="16" height="16" fill="currentColor" xmlns="http://www.w3.org/2000/svg">
 <g transform="translate(2.5, 0)">
  <path d="M5.5 4C3.29086 4 1.5 5.79086 1.5 8C1.5 10.2091 3.29086 12 5.5 12C7.70914 12 9.5 10.2091 9.5 8C9.5 5.79086 7.70914 4 5.5 4ZM0 8C0 4.96243 2.46243 2.5 5.5 2.5C8.53757 2.5 11 4.96243 11 8C11 11.0376 8.53757 13.5 5.5 13.5C2.46243 13.5 0 11.0376 0 8Z" fill-rule="EVENODD"></path>
  <path d="M5.75 5.5C6.16421 5.5 6.5 5.83579 6.5 6.25L6.5 7.95943L7.48717 8.28849C7.88013 8.41947 8.0925 8.84421 7.96151 9.23717C7.83053 9.63013 7.40579 9.8425 7.01283 9.71151L5.51283 9.21151C5.20657 9.10943 5 8.82282 5 8.5L5 6.25C5 5.83579 5.33579 5.5 5.75 5.5Z" fill-rule="EVENODD"></path>
  <path d="M2.07356 1.9318C2.23191 0.82334 3.18123 0 4.30094 0L6.69906 0C7.81877 0 8.76809 0.823342 8.92644 1.9318L9.24246 4.14393C9.30104 4.55398 9.01612 4.93388 8.60607 4.99246C8.19601 5.05104 7.81612 4.76612 7.75754 4.35607L7.44152 2.14393C7.38874 1.77445 7.07229 1.5 6.69906 1.5L4.30094 1.5C3.9277 1.5 3.61126 1.77445 3.55848 2.14393L3.24246 4.35607C3.18388 4.76612 2.80398 5.05104 2.39393 4.99246C1.98388 4.93388 1.69896 4.55398 1.75754 4.14393L2.07356 1.9318Z" fill-rule="EVENODD"></path>
  <path d="M2.07356 14.0682C2.23191 15.1767 3.18123 16 4.30094 16L6.69906 16C7.81877 16 8.76809 15.1767 8.92644 14.0682L9.24246 11.8561C9.30104 11.446 9.01612 11.0661 8.60607 11.0075C8.19601 10.949 7.81612 11.2339 7.75754 11.6439L7.44152 13.8561C7.38874 14.2256 7.07229 14.5 6.69906 14.5L4.30094 14.5C3.9277 14.5 3.61126 14.2256 3.55848 13.8561L3.24246 11.6439C3.18388 11.2339 2.80398 10.949 2.39393 11.0075C1.98388 11.0661 1.69896 11.446 1.75754 11.8561L2.07356 14.0682Z" fill-rule="EVENODD"></path>
 </g>
</svg>