<svg viewBox="0 0 16 16" width="16" height="16" fill="black" xmlns="http://www.w3.org/2000/svg">
 <g transform="translate(0.1966460794210434, 2)">
  <path d="M7.83002 5C6.29048 5 4.79963 5.53956 3.61668 6.52487C3.29841 6.78996 2.8255 6.74686 2.5604 6.42858C2.2953 6.11031 2.33841 5.6374 2.65668 5.3723C4.10916 4.1625 5.9397 3.5 7.83002 3.5C9.72034 3.5 11.5509 4.1625 13.0033 5.3723C13.3216 5.6374 13.3647 6.11031 13.0996 6.42858C12.8345 6.74686 12.3616 6.78996 12.0434 6.52487C10.8604 5.53956 9.36955 5 7.83002 5Z" fill-rule="EVENODD"></path>
  <path d="M7.80334 1.5C5.38882 1.5 3.05724 2.38092 1.24595 3.97752C0.935218 4.25142 0.461284 4.22157 0.187385 3.91084C-0.0865137 3.60011 -0.056657 3.12617 0.254072 2.85228C2.33934 1.01417 5.0236 0 7.80334 0C10.5831 0 13.2673 1.01417 15.3526 2.85228C15.6633 3.12617 15.6932 3.60011 15.4193 3.91084C15.1454 4.22157 14.6715 4.25142 14.3607 3.97752C12.5494 2.38092 10.2179 1.5 7.80334 1.5Z" fill-rule="EVENODD"></path>
  <path d="M7.80668 8.5C7.13213 8.5 6.47429 8.70989 5.92439 9.10057C5.58672 9.34047 5.11851 9.26121 4.87861 8.92354C4.63871 8.58587 4.71797 8.11766 5.05564 7.87776C5.85934 7.30677 6.8208 7 7.80668 7C8.79257 7 9.75402 7.30677 10.5577 7.87776C10.8954 8.11766 10.9747 8.58587 10.7348 8.92354C10.4949 9.26121 10.0266 9.34047 9.68897 9.10057C9.13907 8.70989 8.48123 8.5 7.80668 8.5Z" fill-rule="EVENODD"></path>
  <path d="M6.80335 11C6.80335 10.4477 7.25107 10 7.80335 10L7.81002 10C8.36231 10 8.81002 10.4477 8.81002 11C8.81002 11.5523 8.36231 12 7.81002 12L7.80335 12C7.25107 12 6.80335 11.5523 6.80335 11Z" fill-rule="EVENODD"></path>
 </g>
</svg>