<svg viewBox="0 0 24 24" width="24" height="24" fill="black" xmlns="http://www.w3.org/2000/svg">
 <g transform="translate(0.6699889898300171, 1)">
  <path d="M0.549681 0.21967C0.842574 -0.0732233 1.31745 -0.0732233 1.61034 0.21967L22.1103 20.7197C22.4032 21.0126 22.4032 21.4874 22.1103 21.7803C21.8174 22.0732 21.3426 22.0732 21.0497 21.7803L0.549681 1.28033C0.256788 0.987437 0.256788 0.512563 0.549681 0.21967Z" fill-rule="EVENODD"></path>
  <path d="M11.33 4.5C10.6096 4.5 9.89403 4.55099 9.18818 4.65112C8.77807 4.70929 8.39845 4.42399 8.34028 4.01388C8.28211 3.60377 8.56741 3.22416 8.97751 3.16598C9.75283 3.05601 10.5388 3 11.33 3C15.4083 3 19.3465 4.48794 22.4059 7.18473C22.7167 7.45862 22.7465 7.93256 22.4726 8.24329C22.1987 8.55402 21.7248 8.58387 21.4141 8.30997C18.6286 5.85469 15.0431 4.5 11.33 4.5ZM5.82161 4.70939C5.98211 5.09125 5.80267 5.53091 5.42081 5.69141C3.90847 6.32707 2.49658 7.20758 1.24595 8.30997C0.935218 8.58387 0.461284 8.55402 0.187385 8.24329C-0.0865137 7.93256 -0.056657 7.45862 0.254072 7.18473C1.6277 5.97391 3.17851 5.00677 4.83959 4.30859C5.22145 4.14809 5.66111 4.32754 5.82161 4.70939ZM9.78738 8.83861C9.87459 9.24354 9.61703 9.6425 9.2121 9.72971C7.60337 10.0762 6.09079 10.8074 4.81003 11.8742C4.49175 12.1393 4.01884 12.0961 3.75375 11.7779C3.48865 11.4596 3.53175 10.9867 3.85003 10.7216C5.31824 9.49868 7.0522 8.6605 8.89629 8.26333C9.30122 8.17612 9.70017 8.43369 9.78738 8.83861ZM13.6077 8.9539C13.7192 8.55497 14.1329 8.32193 14.5319 8.4334C16.1184 8.87671 17.6059 9.652 18.89 10.7216C19.2083 10.9867 19.2514 11.4596 18.9863 11.7779C18.7212 12.0961 18.2483 12.1393 17.93 11.8742C16.8098 10.9411 15.5123 10.2648 14.1282 9.87806C13.7293 9.7666 13.4962 9.35284 13.6077 8.9539ZM11.335 14.5C10.2454 14.5 9.1827 14.8391 8.2944 15.4702C7.95673 15.7101 7.48852 15.6308 7.24862 15.2931C7.00872 14.9555 7.08798 14.4872 7.42565 14.2473C8.56775 13.4359 9.93403 13 11.335 13C12.736 13 14.1023 13.4359 15.2444 14.2473C15.5821 14.4872 15.6613 14.9555 15.4214 15.2931C15.1815 15.6308 14.7133 15.7101 14.3757 15.4702C13.4873 14.8391 12.4247 14.5 11.335 14.5Z" fill-rule="EVENODD"></path>
  <path d="M10.33 19C10.33 18.4477 10.7777 18 11.33 18L11.34 18C11.8923 18 12.34 18.4477 12.34 19C12.34 19.5523 11.8923 20 11.34 20L11.33 20C10.7777 20 10.33 19.5523 10.33 19Z" fill-rule="EVENODD"></path>
 </g>
</svg>