<svg viewBox="0 0 16 16" width="16" height="16" fill="currentColor" xmlns="http://www.w3.org/2000/svg">
 <g transform="translate(0.1966552734375, 2)">
  <path d="M1.24595 3.97752C3.05724 2.38092 5.38882 1.5 7.80334 1.5C10.2179 1.5 12.5494 2.38092 14.3607 3.97752C14.6715 4.25142 15.1454 4.22157 15.4193 3.91084C15.6932 3.60011 15.6633 3.12617 15.3526 2.85228C13.2673 1.01417 10.5831 0 7.80334 0C5.0236 0 2.33934 1.01417 0.254072 2.85228C-0.056657 3.12617 -0.0865137 3.60011 0.187385 3.91084C0.461284 4.22157 0.935218 4.25142 1.24595 3.97752Z" fill-rule="NONZERO"></path>
  <path d="M3.61662 6.52487C4.79956 5.53956 6.29041 5 7.82995 5C9.36949 5 10.8603 5.53956 12.0433 6.52487C12.3616 6.78996 12.8345 6.74686 13.0996 6.42858C13.3647 6.11031 13.3216 5.6374 13.0033 5.3723C11.5508 4.1625 9.72027 3.5 7.82995 3.5C5.93963 3.5 4.10909 4.1625 2.65662 5.3723C2.33834 5.6374 2.29524 6.11031 2.56033 6.42858C2.82543 6.74686 3.29834 6.78996 3.61662 6.52487Z" fill-rule="NONZERO"></path>
  <path d="M7.80672 8.5C7.13216 8.5 6.47433 8.70989 5.92443 9.10057C5.58675 9.34047 5.11854 9.26121 4.87864 8.92354C4.63874 8.58587 4.718 8.11766 5.05568 7.87776C5.85938 7.30677 6.82083 7 7.80672 7C8.7926 7 9.75406 7.30677 10.5578 7.87776C10.8954 8.11766 10.9747 8.58587 10.7348 8.92354C10.4949 9.26121 10.0267 9.34047 9.68901 9.10057C9.13911 8.70989 8.48127 8.5 7.80672 8.5Z" fill-rule="NONZERO"></path>
  <path d="M7.80334 10C7.25106 10 6.80334 10.4477 6.80334 11C6.80334 11.5523 7.25106 12 7.80334 12L7.81001 12C8.3623 12 8.81001 11.5523 8.81001 11C8.81001 10.4477 8.3623 10 7.81001 10L7.80334 10Z" fill-rule="NONZERO"></path>
 </g>
</svg>