<svg viewBox="0 0 16 16" width="16" height="16" fill="black" xmlns="http://www.w3.org/2000/svg">
 <g transform="translate(0, 0)">
  <path d="M5.21423 7.16518C5.23845 7.24497 5.2627 7.31965 5.28616 7.38841L0.695105 11.9554L0.693712 11.9568C0.249536 12.401 0 13.0034 0 13.6316C0 14.2597 0.249535 14.8622 0.693712 15.3063C1.13789 15.7505 1.74032 16 2.36848 16C2.99664 16 3.59907 15.7505 4.04325 15.3063L4.04446 15.3051L8.61378 10.7148C8.68229 10.7381 8.75666 10.7623 8.83613 10.7864C9.2548 10.9134 9.8446 11.0488 10.4756 11.0488C13.5266 11.0488 16 8.57543 16 5.52439C16 4.84883 15.9723 4.35841 15.9255 4.00233C15.8824 3.67508 15.8129 3.36515 15.6628 3.13181C15.58 3.00319 15.4337 2.8374 15.1962 2.75563C14.9447 2.66906 14.7175 2.71946 14.5675 2.7888C14.4302 2.85225 14.3386 2.93811 14.2926 2.98588C14.2798 2.99923 14.2682 3.01203 14.2578 3.02395C14.0485 3.23431 13.8025 3.52928 13.5619 3.81775L13.54 3.84403C13.2786 4.15757 13.0025 4.48858 12.7176 4.79663C12.4243 5.11386 12.1448 5.38084 11.8917 5.56403C11.6218 5.75931 11.4753 5.79052 11.4324 5.79052C11.4293 5.79052 11.4263 5.7894 11.424 5.7874L10.2126 4.57605C10.2106 4.57371 10.2095 4.57072 10.2095 4.56762C10.2095 4.52614 10.2403 4.38046 10.4367 4.11085C10.6208 3.85811 10.8892 3.57919 11.2081 3.28645C11.5183 3.00168 11.8517 2.72588 12.1672 2.46485L12.1932 2.44337C12.4846 2.20224 12.7825 1.95575 12.9936 1.74667C13.0084 1.73364 13.0248 1.71838 13.0421 1.70091C13.0902 1.65214 13.1749 1.55642 13.2346 1.4145C13.3002 1.25842 13.3388 1.03317 13.2483 0.790605C13.1633 0.562835 13.0019 0.421383 12.874 0.33963C12.6409 0.190525 12.3318 0.119749 12.0012 0.0757614C11.6433 0.0281466 11.1515 0 10.4756 0C7.42457 0 4.95122 2.47335 4.95122 5.52439C4.95122 6.15558 5.08698 6.74604 5.21423 7.16518ZM10.4756 1.5C8.253 1.5 6.45122 3.30178 6.45122 5.52439C6.45122 5.69187 6.46563 5.86008 6.48934 6.02318C6.52648 6.27862 6.58642 6.52152 6.64954 6.72944C6.70029 6.8966 6.75083 7.03384 6.78786 7.12744C6.80632 7.17409 6.82125 7.20945 6.83093 7.2318L6.84123 7.25519L6.84226 7.25749C6.97569 7.54386 6.91548 7.88341 6.69148 8.10623L1.75371 13.0181C1.59125 13.1809 1.5 13.4015 1.5 13.6316C1.5 13.8619 1.5915 14.0828 1.75437 14.2457C1.91724 14.4085 2.13814 14.5 2.36848 14.5C2.59854 14.5 2.81977 14.4082 2.98259 14.2457L7.89623 9.30942C8.11872 9.0859 8.45723 9.0255 8.74324 9.15811L8.74451 9.1587L8.74703 9.15982L8.77033 9.17009C8.7926 9.17973 8.82786 9.19461 8.87439 9.21301C8.96774 9.24994 9.10468 9.30034 9.27152 9.35095C9.61153 9.45408 10.0456 9.54878 10.4756 9.54878C12.6982 9.54878 14.5 7.747 14.5 5.52439C14.5 5.34674 14.498 5.18625 14.4943 5.04139C14.2855 5.29016 14.0563 5.5584 13.8189 5.81506C13.4996 6.16039 13.1421 6.51074 12.771 6.77925C12.4167 7.03567 11.9516 7.29052 11.4324 7.29052C11.0364 7.29052 10.6562 7.13524 10.3734 6.85803L10.368 6.85278L9.46894 5.95368L9.14199 5.62671C8.86478 5.3439 8.70953 4.96364 8.70953 4.56762C8.70953 4.04697 8.96646 3.5815 9.22424 3.22764C9.49431 2.85692 9.84661 2.50005 10.1937 2.18141C10.2469 2.13261 10.3005 2.08417 10.3544 2.03618C10.5627 1.85066 10.7742 1.67194 10.9732 1.50622C10.8245 1.50222 10.6592 1.5 10.4756 1.5Z" fill-rule="EVENODD"></path>
 </g>
</svg>