<svg viewBox="0 0 24 24" width="24" height="24" fill="currentColor" xmlns="http://www.w3.org/2000/svg">
 <g transform="translate(5, 5)">
  <path d="M13.7803 0.21967C14.0732 0.512563 14.0732 0.987437 13.7803 1.28033L1.28033 13.7803C0.987437 14.0732 0.512563 14.0732 0.21967 13.7803C-0.0732233 13.4874 -0.0732233 13.0126 0.21967 12.7197L12.7197 0.21967C13.0126 -0.0732233 13.4874 -0.0732233 13.7803 0.21967Z" fill-rule="EVENODD"></path>
  <path d="M0.21967 0.21967C0.512563 -0.0732233 0.987437 -0.0732233 1.28033 0.21967L13.7803 12.7197C14.0732 13.0126 14.0732 13.4874 13.7803 13.7803C13.4874 14.0732 13.0126 14.0732 12.7197 13.7803L0.21967 1.28033C-0.0732233 0.987437 -0.0732233 0.512563 0.21967 0.21967Z" fill-rule="EVENODD"></path>
 </g>
</svg>