<svg viewBox="0 0 24 24" width="24" height="24" fill="currentColor" xmlns="http://www.w3.org/2000/svg">
 <g transform="translate(1.25, 1.25)">
  <path d="M10.75 0C4.81294 0 0 4.81294 0 10.75C0 16.6871 4.81294 21.5 10.75 21.5C16.6871 21.5 21.5 16.6871 21.5 10.75C21.5 4.81294 16.6871 0 10.75 0ZM5.96967 5.96967C6.26256 5.67678 6.73744 5.67678 7.03033 5.96967L10.75 9.68934L14.4697 5.96967C14.7626 5.67678 15.2374 5.67678 15.5303 5.96967C15.8232 6.26256 15.8232 6.73744 15.5303 7.03033L11.8107 10.75L15.5303 14.4697C15.8232 14.7626 15.8232 15.2374 15.5303 15.5303C15.2374 15.8232 14.7626 15.8232 14.4697 15.5303L10.75 11.8107L7.03033 15.5303C6.73744 15.8232 6.26256 15.8232 5.96967 15.5303C5.67678 15.2374 5.67678 14.7626 5.96967 14.4697L9.68934 10.75L5.96967 7.03033C5.67678 6.73744 5.67678 6.26256 5.96967 5.96967Z" fill-rule="EVENODD"></path>
 </g>
</svg>