<svg viewBox="0 0 16 16" width="16" height="16" fill="black" xmlns="http://www.w3.org/2000/svg">
 <g transform="translate(0.25, 0.25)">
  <path d="M7.75 1.5C4.29822 1.5 1.5 4.29822 1.5 7.75C1.5 11.2018 4.29822 14 7.75 14C11.2018 14 14 11.2018 14 7.75C14 4.29822 11.2018 1.5 7.75 1.5ZM0 7.75C0 3.46979 3.46979 0 7.75 0C12.0302 0 15.5 3.46979 15.5 7.75C15.5 12.0302 12.0302 15.5 7.75 15.5C3.46979 15.5 0 12.0302 0 7.75Z" fill-rule="EVENODD"></path>
  <path d="M11.0303 4.46967C11.3232 4.76256 11.3232 5.23744 11.0303 5.53033L5.53033 11.0303C5.23744 11.3232 4.76256 11.3232 4.46967 11.0303C4.17678 10.7374 4.17678 10.2626 4.46967 9.96967L9.96967 4.46967C10.2626 4.17678 10.7374 4.17678 11.0303 4.46967Z" fill-rule="EVENODD"></path>
  <path d="M4.46967 4.46967C4.76256 4.17678 5.23744 4.17678 5.53033 4.46967L11.0303 9.96967C11.3232 10.2626 11.3232 10.7374 11.0303 11.0303C10.7374 11.3232 10.2626 11.3232 9.96967 11.0303L4.46967 5.53033C4.17678 5.23744 4.17678 4.76256 4.46967 4.46967Z" fill-rule="EVENODD"></path>
 </g>
</svg>