<svg viewBox="0 0 24 24" width="24" height="24" fill="black" xmlns="http://www.w3.org/2000/svg">
 <g transform="translate(1.25, 1.25)">
  <path d="M10.75 0C4.81294 0 0 4.81294 0 10.75C0 16.6871 4.81294 21.5 10.75 21.5C16.6871 21.5 21.5 16.6871 21.5 10.75C21.5 4.81294 16.6871 0 10.75 0ZM6.04289 6.04289C6.43342 5.65237 7.06658 5.65237 7.45711 6.04289L10.75 9.33579L14.0429 6.04289C14.4334 5.65237 15.0666 5.65237 15.4571 6.04289C15.8476 6.43342 15.8476 7.06658 15.4571 7.45711L12.1642 10.75L15.4571 14.0429C15.8476 14.4334 15.8476 15.0666 15.4571 15.4571C15.0666 15.8476 14.4334 15.8476 14.0429 15.4571L10.75 12.1642L7.45711 15.4571C7.06658 15.8476 6.43342 15.8476 6.04289 15.4571C5.65237 15.0666 5.65237 14.4334 6.04289 14.0429L9.33579 10.75L6.04289 7.45711C5.65237 7.06658 5.65237 6.43342 6.04289 6.04289Z" fill-rule="EVENODD"></path>
 </g>
</svg>