<svg viewBox="0 0 16 16" width="16" height="16" fill="currentColor" xmlns="http://www.w3.org/2000/svg">
 <g transform="translate(0.5, 0.003906240686774254)">
  <path d="M10.2803 5.21576C10.5732 5.50866 10.5732 5.98353 10.2803 6.27642L8.56066 7.99609L10.2803 9.71576C10.5732 10.0087 10.5732 10.4835 10.2803 10.7764C9.98744 11.0693 9.51256 11.0693 9.21967 10.7764L7.5 9.05676L5.78033 10.7764C5.48744 11.0693 5.01256 11.0693 4.71967 10.7764C4.42678 10.4835 4.42678 10.0087 4.71967 9.71576L6.43934 7.99609L4.71967 6.27642C4.42678 5.98353 4.42678 5.50866 4.71967 5.21576C5.01256 4.92287 5.48744 4.92287 5.78033 5.21576L7.5 6.93543L9.21967 5.21576C9.51256 4.92287 9.98744 4.92287 10.2803 5.21576Z" fill-rule="NONZERO"></path>
  <path d="M6.33382 0.325805C7.05059 -0.108601 7.94941 -0.108602 8.66618 0.325805L13.9162 3.50762C14.589 3.91541 15 4.64504 15 5.43182L15 10.5602C15 11.347 14.589 12.0766 13.9162 12.4844L8.66618 15.6662C7.94941 16.1006 7.05059 16.1006 6.33382 15.6662L1.08382 12.4844C0.41097 12.0766 0 11.347 0 10.5602L0 5.43182C0 4.64504 0.41097 3.91541 1.08382 3.50762L6.33382 0.325805ZM7.88873 1.6086C7.6498 1.4638 7.3502 1.4638 7.11127 1.6086L1.86127 4.79042C1.63699 4.92635 1.5 5.16956 1.5 5.43182L1.5 10.5602C1.5 10.8225 1.63699 11.0657 1.86127 11.2016L7.11127 14.3834C7.3502 14.5282 7.6498 14.5282 7.88873 14.3834L13.1387 11.2016C13.363 11.0657 13.5 10.8225 13.5 10.5602L13.5 5.43182C13.5 5.16956 13.363 4.92635 13.1387 4.79042L7.88873 1.6086Z" fill-rule="EVENODD"></path>
 </g>
</svg>