<svg viewBox="0 0 24 24" width="24" height="24" fill="currentColor" xmlns="http://www.w3.org/2000/svg">
 <g transform="translate(1.49993896484375, 0.59814453125)">
  <path d="M11.9413 0.40794C11.0574 -0.135979 9.9426 -0.135981 9.05873 0.407939L1.30873 5.17717C0.495429 5.67766 0 6.56426 0 7.51923L0 15.284C0 16.239 0.495427 17.1256 1.30873 17.6261L9.05873 22.3953C9.9426 22.9393 11.0574 22.9393 11.9413 22.3953L19.6913 17.6261C20.5046 17.1256 21 16.239 21 15.284L21 7.51923C21 6.56426 20.5046 5.67767 19.6913 5.17717L11.9413 0.40794ZM13.2197 7.62128C13.5126 7.32839 13.9874 7.32839 14.2803 7.62128C14.5732 7.91417 14.5732 8.38905 14.2803 8.68194L11.5607 11.4016L14.2803 14.1213C14.5732 14.4142 14.5732 14.889 14.2803 15.1819C13.9874 15.4748 13.5126 15.4748 13.2197 15.1819L10.5 12.4623L7.78033 15.1819C7.48744 15.4748 7.01256 15.4748 6.71967 15.1819C6.42678 14.889 6.42678 14.4142 6.71967 14.1213L9.43934 11.4016L6.71967 8.68194C6.42678 8.38905 6.42678 7.91417 6.71967 7.62128C7.01256 7.32839 7.48744 7.32839 7.78033 7.62128L10.5 10.341L13.2197 7.62128Z" fill-rule="EVENODD"></path>
 </g>
</svg>