<svg viewBox="0 0 16 16" width="16" height="16" fill="currentColor" xmlns="http://www.w3.org/2000/svg">
 <g transform="translate(0.50006103515625, 0.00390625)">
  <path d="M8.66618 0.325805C7.94941 -0.108602 7.05059 -0.108601 6.33382 0.325805L1.08382 3.50762C0.41097 3.91541 0 4.64504 0 5.43182L0 10.5602C0 11.347 0.41097 12.0766 1.08382 12.4844L6.33382 15.6662C7.05059 16.1006 7.94941 16.1006 8.66618 15.6662L13.9162 12.4844C14.589 12.0766 15 11.347 15 10.5602L15 5.43182C15 4.64504 14.589 3.91541 13.9162 3.50762L8.66618 0.325805ZM4.71967 5.21564C5.01256 4.92275 5.48744 4.92275 5.78033 5.21564L7.5 6.93531L9.21967 5.21564C9.51256 4.92275 9.98744 4.92275 10.2803 5.21564C10.5732 5.50853 10.5732 5.98341 10.2803 6.2763L8.56066 7.99597L10.2803 9.71564C10.5732 10.0085 10.5732 10.4834 10.2803 10.7763C9.98744 11.0692 9.51256 11.0692 9.21967 10.7763L7.5 9.05663L5.78033 10.7763C5.48744 11.0692 5.01256 11.0692 4.71967 10.7763C4.42678 10.4834 4.42678 10.0085 4.71967 9.71564L6.43934 7.99597L4.71967 6.2763C4.42678 5.98341 4.42678 5.50853 4.71967 5.21564Z" fill-rule="EVENODD"></path>
 </g>
</svg>