<svg viewBox="0 0 16 16" width="16" height="16" fill="currentColor" xmlns="http://www.w3.org/2000/svg">
 <g transform="translate(1.25, 1.25)">
  <path d="M2.08333 0C0.93274 0 0 0.93274 0 2.08333L0 11.4167C0 12.5673 0.93274 13.5 2.08333 13.5L11.4167 13.5C12.5673 13.5 13.5 12.5673 13.5 11.4167L13.5 2.08333C13.5 0.93274 12.5673 0 11.4167 0L2.08333 0ZM2.96967 2.96967C3.26256 2.67678 3.73744 2.67678 4.03033 2.96967L6.75 5.68934L9.46967 2.96967C9.76256 2.67678 10.2374 2.67678 10.5303 2.96967C10.8232 3.26256 10.8232 3.73744 10.5303 4.03033L7.81066 6.75L10.5303 9.46967C10.8232 9.76256 10.8232 10.2374 10.5303 10.5303C10.2374 10.8232 9.76256 10.8232 9.46967 10.5303L6.75 7.81066L4.03033 10.5303C3.73744 10.8232 3.26256 10.8232 2.96967 10.5303C2.67678 10.2374 2.67678 9.76256 2.96967 9.46967L5.68934 6.75L2.96967 4.03033C2.67678 3.73744 2.67678 3.26256 2.96967 2.96967Z" fill-rule="EVENODD"></path>
 </g>
</svg>