<svg viewBox="0 0 24 24" width="24" height="24" fill="currentColor" xmlns="http://www.w3.org/2000/svg">
 <g transform="translate(2.25, 2.25)">
  <path d="M0 2.75C0 1.23122 1.23122 0 2.75 0L16.75 0C18.2688 0 19.5 1.23122 19.5 2.75L19.5 16.75C19.5 18.2688 18.2688 19.5 16.75 19.5L2.75 19.5C1.23122 19.5 0 18.2688 0 16.75L0 2.75ZM6.03033 4.96967C5.73744 4.67678 5.26256 4.67678 4.96967 4.96967C4.67678 5.26256 4.67678 5.73744 4.96967 6.03033L8.68934 9.75L4.96967 13.4697C4.67678 13.7626 4.67678 14.2374 4.96967 14.5303C5.26256 14.8232 5.73744 14.8232 6.03033 14.5303L9.75 10.8107L13.4697 14.5303C13.7626 14.8232 14.2374 14.8232 14.5303 14.5303C14.8232 14.2374 14.8232 13.7626 14.5303 13.4697L10.8107 9.75L14.5303 6.03033C14.8232 5.73744 14.8232 5.26256 14.5303 4.96967C14.2374 4.67678 13.7626 4.67678 13.4697 4.96967L9.75 8.68934L6.03033 4.96967Z" fill-rule="EVENODD"></path>
 </g>
</svg>