<svg viewBox="0 0 16 16" width="16" height="16" fill="black" xmlns="http://www.w3.org/2000/svg">
 <g transform="translate(1.25, 1.25)">
  <path d="M2.08333 1.5C1.76117 1.5 1.5 1.76117 1.5 2.08333L1.5 11.4167C1.5 11.7388 1.76117 12 2.08333 12L11.4167 12C11.7388 12 12 11.7388 12 11.4167L12 2.08333C12 1.76117 11.7388 1.5 11.4167 1.5L2.08333 1.5ZM0 2.08333C0 0.93274 0.93274 0 2.08333 0L11.4167 0C12.5673 0 13.5 0.93274 13.5 2.08333L13.5 11.4167C13.5 12.5673 12.5673 13.5 11.4167 13.5L2.08333 13.5C0.93274 13.5 0 12.5673 0 11.4167L0 2.08333Z" fill-rule="EVENODD"></path>
  <path d="M10.0303 3.46967C10.3232 3.76256 10.3232 4.23744 10.0303 4.53033L4.53033 10.0303C4.23744 10.3232 3.76256 10.3232 3.46967 10.0303C3.17678 9.73744 3.17678 9.26256 3.46967 8.96967L8.96967 3.46967C9.26256 3.17678 9.73744 3.17678 10.0303 3.46967Z" fill-rule="EVENODD"></path>
  <path d="M3.46967 3.46967C3.76256 3.17678 4.23744 3.17678 4.53033 3.46967L10.0303 8.96967C10.3232 9.26256 10.3232 9.73744 10.0303 10.0303C9.73744 10.3232 9.26256 10.3232 8.96967 10.0303L3.46967 4.53033C3.17678 4.23744 3.17678 3.76256 3.46967 3.46967Z" fill-rule="EVENODD"></path>
 </g>
</svg>