<svg viewBox="0 0 24 24" width="24" height="24" fill="currentColor" xmlns="http://www.w3.org/2000/svg">
 <g transform="translate(1.999989628791809, 0.9999581575393677)">
  <path d="M11.333 0.0649724C11.6393 0.201421 11.8177 0.524527 11.7702 0.85639L10.8522 7.26489L19.3326 8.2046C19.6072 8.23503 19.8429 8.41398 19.9459 8.67033C20.0489 8.92669 20.0027 9.21893 19.8255 9.43095L9.54776 21.7309C9.33279 21.9882 8.97321 22.0716 8.66698 21.9351C8.36075 21.7987 8.18227 21.4756 8.22981 21.1437L9.14779 14.7352L0.667408 13.7955C0.392801 13.765 0.157162 13.5861 0.0541209 13.3298C-0.0489198 13.0734 -0.00267346 12.7812 0.174484 12.5691L10.4523 0.269137C10.6672 0.0118763 11.0268 -0.0714762 11.333 0.0649724ZM2.22164 12.4585L10.0826 13.3296C10.2844 13.352 10.4686 13.4552 10.5929 13.6157C10.7173 13.7763 10.7712 13.9804 10.7424 14.1814L10.0889 18.744L17.7784 9.54156L9.91741 8.67048C9.71558 8.64811 9.53145 8.54487 9.40709 8.38433C9.28274 8.2238 9.2288 8.0197 9.25759 7.81869L9.91116 3.25604L2.22164 12.4585Z" fill-rule="EVENODD"></path>
 </g>
</svg>