<svg viewBox="0 0 16 16" width="16" height="16" fill="black" xmlns="http://www.w3.org/2000/svg">
 <g transform="translate(0.999987006187439, -0.00003477276914054528)">
  <path d="M8.3747 0.078024C8.67891 0.228777 8.8439 0.565087 8.77695 0.897934L8.06073 4.45856C7.97905 4.86464 7.58364 5.12762 7.17756 5.04593C6.77148 4.96425 6.50851 4.56884 6.59019 4.16276L6.75396 3.34856L6.5993 3.52432C6.32565 3.83527 5.85174 3.86551 5.54079 3.59186C5.22984 3.31822 5.1996 2.84431 5.47324 2.53336L7.47865 0.254555C7.70295 -0.000319332 8.07049 -0.0727287 8.3747 0.078024ZM4.52634 4.74461C4.83729 5.01825 4.86753 5.49216 4.59389 5.80312L2.19061 8.53402L6.6126 9.33343C6.99773 9.40305 7.26458 9.75711 7.22541 10.1465L6.9383 13.0012L9.16228 10.4741C9.43592 10.1631 9.90983 10.1329 10.2208 10.4065C10.5317 10.6802 10.562 11.1541 10.2883 11.465L6.52137 15.7455C6.30609 15.9901 5.95747 16.0678 5.65873 15.9376C5.35999 15.8074 5.1795 15.4992 5.21211 15.175L5.66357 10.6862L0.616591 9.77379C0.35038 9.72566 0.130716 9.5379 0.0417395 9.28242C-0.0472368 9.02695 0.00826524 8.74335 0.186986 8.54027L3.46783 4.81216C3.74148 4.5012 4.21539 4.47096 4.52634 4.74461ZM9.3851 6.32385C9.45282 5.91521 9.83899 5.63884 10.2476 5.70655L13.3726 6.22441C13.6414 6.26896 13.865 6.45581 13.9565 6.71247C14.048 6.96914 13.9931 7.25524 13.813 7.4598L12.5978 8.84075C12.3241 9.1517 11.8502 9.18195 11.5393 8.9083C11.2283 8.63465 11.1981 8.16074 11.4717 7.84979L11.7942 7.4833L10.0024 7.18637C9.59376 7.11866 9.31739 6.73249 9.3851 6.32385Z" fill-rule="EVENODD"></path>
  <path d="M0.219683 1.2197C0.512576 0.926812 0.98745 0.926812 1.28034 1.2197L13.7803 13.7197C14.0732 14.0126 14.0732 14.4875 13.7803 14.7804C13.4874 15.0733 13.0126 15.0733 12.7197 14.7804L0.219683 2.28036C-0.0732103 1.98747 -0.0732103 1.5126 0.219683 1.2197Z" fill-rule="EVENODD"></path>
 </g>
</svg>