<svg viewBox="0 0 16 16" width="16" height="16" fill="currentColor" xmlns="http://www.w3.org/2000/svg">
 <g transform="translate(0.9999869465827942, -0.000034774773666867986)">
  <path d="M8.3747 0.078024C8.67891 0.228777 8.8439 0.565087 8.77695 0.897934L7.88834 5.31559L13.3726 6.22441C13.6414 6.26896 13.865 6.45581 13.9565 6.71247C14.048 6.96914 13.9931 7.25524 13.813 7.4598L6.52137 15.7455C6.29708 16.0004 5.92954 16.0728 5.62533 15.922C5.32112 15.7713 5.15612 15.435 5.22307 15.1021L6.11168 10.6845L0.6274 9.77566C0.358576 9.73111 0.135064 9.54426 0.0435624 9.2876C-0.0479389 9.03093 0.0069685 8.74483 0.186986 8.54027L7.47865 0.254555C7.70295 -0.000319332 8.07049 -0.0727287 8.3747 0.078024ZM2.2058 8.51676L7.12263 9.33155C7.32326 9.3648 7.50179 9.4781 7.6173 9.64549C7.73281 9.81287 7.77539 10.02 7.73529 10.2194L7.24606 12.6515L11.7942 7.4833L6.8774 6.66852C6.67676 6.63527 6.49823 6.52197 6.38273 6.35458C6.26722 6.1872 6.22464 5.98008 6.26474 5.78071L6.75396 3.34856L2.2058 8.51676Z" fill-rule="EVENODD"></path>
 </g>
</svg>