<svg viewBox="0 0 24 24" width="24" height="24" fill="currentColor" xmlns="http://www.w3.org/2000/svg">
 <g transform="translate(1, 1)">
  <path d="M1.28033 0.21967C0.987437 -0.0732233 0.512563 -0.0732233 0.21967 0.21967C-0.0732233 0.512563 -0.0732233 0.987437 0.21967 1.28033L5.87869 6.93935L1.17448 12.5691C0.997327 12.7812 0.95108 13.0734 1.05412 13.3298C1.15716 13.5861 1.3928 13.765 1.66741 13.7955L10.1478 14.7352L9.22981 21.1437C9.18227 21.4756 9.36075 21.7987 9.66698 21.9351C9.97321 22.0716 10.3328 21.9882 10.5478 21.7309L15.1557 16.2164L20.7197 21.7803C21.0126 22.0732 21.4874 22.0732 21.7803 21.7803C22.0732 21.4874 22.0732 21.0126 21.7803 20.7197L15.7132 14.6525C15.6787 14.6062 15.6383 14.5632 15.592 14.5245C15.5813 14.5156 15.5704 14.507 15.5594 14.4987L1.28033 0.21967ZM14.0908 15.1515L6.94359 8.00426L3.22164 12.4585L11.0826 13.3296C11.2844 13.352 11.4686 13.4552 11.5929 13.6157C11.7173 13.7763 11.7712 13.9804 11.7424 14.1814L11.0889 18.744L14.0908 15.1515Z" fill-rule="EVENODD"></path>
  <path d="M12.7702 0.85639C12.8177 0.524527 12.6393 0.201421 12.333 0.0649724C12.0268 -0.0714762 11.6672 0.0118763 11.4523 0.269137L8.88282 3.34414C8.61722 3.66199 8.65958 4.13497 8.97744 4.40057C9.29529 4.66616 9.76827 4.6238 10.0339 4.30595L10.9112 3.25604L10.5788 5.57651C10.52 5.98654 10.8048 6.36654 11.2148 6.42528C11.6249 6.48401 12.0049 6.19923 12.0636 5.7892L12.7702 0.85639Z" fill-rule="NONZERO"></path>
  <path d="M13.9732 7.49992C13.5615 7.4543 13.1908 7.75106 13.1452 8.16275C13.0996 8.57444 13.3963 8.94517 13.808 8.99079L18.7784 9.54156L17.105 11.5441C16.8394 11.862 16.8818 12.335 17.1997 12.6006C17.5175 12.8662 17.9905 12.8238 18.2561 12.5059L20.8255 9.43095C21.0027 9.21893 21.0489 8.92669 20.9459 8.67033C20.8429 8.41398 20.6072 8.23503 20.3326 8.2046L13.9732 7.49992Z" fill-rule="NONZERO"></path>
 </g>
</svg>