<svg viewBox="0 0 24 24" width="24" height="24" fill="black" xmlns="http://www.w3.org/2000/svg">
 <g transform="translate(2, 2)">
  <path d="M8.75 1.5C4.74594 1.5 1.5 4.74594 1.5 8.75C1.5 12.7541 4.74594 16 8.75 16C12.7541 16 16 12.7541 16 8.75C16 4.74594 12.7541 1.5 8.75 1.5ZM0 8.75C0 3.91751 3.91751 0 8.75 0C13.5825 0 17.5 3.91751 17.5 8.75C17.5 13.5825 13.5825 17.5 8.75 17.5C3.91751 17.5 0 13.5825 0 8.75Z" fill-rule="EVENODD"></path>
  <path d="M13.9697 13.9697C14.2626 13.6768 14.7374 13.6768 15.0303 13.9697L19.7803 18.7197C20.0732 19.0126 20.0732 19.4874 19.7803 19.7803C19.4874 20.0732 19.0126 20.0732 18.7197 19.7803L13.9697 15.0303C13.6768 14.7374 13.6768 14.2626 13.9697 13.9697Z" fill-rule="EVENODD"></path>
  <path d="M8.75 4.5C9.16421 4.5 9.5 4.83579 9.5 5.25L9.5 12.25C9.5 12.6642 9.16421 13 8.75 13C8.33579 13 8 12.6642 8 12.25L8 5.25C8 4.83579 8.33579 4.5 8.75 4.5Z" fill-rule="EVENODD"></path>
  <path d="M4.5 8.75C4.5 8.33579 4.83579 8 5.25 8L12.25 8C12.6642 8 13 8.33579 13 8.75C13 9.16421 12.6642 9.5 12.25 9.5L5.25 9.5C4.83579 9.5 4.5 9.16421 4.5 8.75Z" fill-rule="EVENODD"></path>
 </g>
</svg>