<svg viewBox="0 0 24 24" width="24" height="24" fill="currentColor" xmlns="http://www.w3.org/2000/svg">
 <g transform="translate(2, 2)">
  <path d="M8.75 4.5C9.16421 4.5 9.5 4.83579 9.5 5.25L9.5 8L12.25 8C12.6642 8 13 8.33579 13 8.75C13 9.16421 12.6642 9.5 12.25 9.5L9.5 9.5L9.5 12.25C9.5 12.6642 9.16421 13 8.75 13C8.33579 13 8 12.6642 8 12.25L8 9.5L5.25 9.5C4.83579 9.5 4.5 9.16421 4.5 8.75C4.5 8.33579 4.83579 8 5.25 8L8 8L8 5.25C8 4.83579 8.33579 4.5 8.75 4.5Z" fill-rule="NONZERO"></path>
  <path d="M8.75 0C3.91751 0 0 3.91751 0 8.75C0 13.5825 3.91751 17.5 8.75 17.5C10.8962 17.5 12.862 16.7273 14.3842 15.4449L18.7197 19.7803C19.0126 20.0732 19.4874 20.0732 19.7803 19.7803C20.0732 19.4874 20.0732 19.0126 19.7803 18.7197L15.4449 14.3842C16.7273 12.862 17.5 10.8962 17.5 8.75C17.5 3.91751 13.5825 0 8.75 0ZM1.5 8.75C1.5 4.74594 4.74594 1.5 8.75 1.5C12.7541 1.5 16 4.74594 16 8.75C16 12.7541 12.7541 16 8.75 16C4.74594 16 1.5 12.7541 1.5 8.75Z" fill-rule="EVENODD"></path>
 </g>
</svg>