<svg viewBox="0 0 16 16" width="16" height="16" fill="currentColor" xmlns="http://www.w3.org/2000/svg">
 <g transform="translate(0.00000000000022737367544323206, 0)">
  <path d="M0 8C0 3.58172 3.58172 0 8 0C12.4183 0 16 3.58172 16 8C16 12.4183 12.4183 16 8 16C3.58172 16 0 12.4183 0 8ZM8 4C8.41421 4 8.75 4.33579 8.75 4.75L8.75 8.25C8.75 8.66421 8.41421 9 8 9C7.58579 9 7.25 8.66421 7.25 8.25L7.25 4.75C7.25 4.33579 7.58579 4 8 4ZM8 10C7.44772 10 7 10.4477 7 11C7 11.5523 7.44772 12 8 12L8.00667 12C8.55895 12 9.00667 11.5523 9.00667 11C9.00667 10.4477 8.55895 10 8.00667 10L8 10Z" fill-rule="EVENODD"></path>
 </g>
</svg>