<svg viewBox="0 0 24 24" width="24" height="24" fill="currentColor" xmlns="http://www.w3.org/2000/svg">
 <g transform="translate(1, 2)">
  <path d="M10 15C10 14.4477 10.4477 14 11 14L11.01 14C11.5623 14 12.01 14.4477 12.01 15C12.01 15.5523 11.5623 16 11.01 16L11 16C10.4477 16 10 15.5523 10 15Z" fill-rule="NONZERO"></path>
  <path d="M11.75 6.75C11.75 6.33579 11.4142 6 11 6C10.5858 6 10.25 6.33579 10.25 6.75L10.25 11.25C10.25 11.6642 10.5858 12 11 12C11.4142 12 11.75 11.6642 11.75 11.25L11.75 6.75Z" fill-rule="NONZERO"></path>
  <path d="M9.65798 0.365926C10.0657 0.126833 10.528 0 11 0C11.472 0 11.9343 0.126833 12.342 0.365926C12.7495 0.604878 13.0873 0.947025 13.3257 1.35646L13.3278 1.35999L21.6431 15.8205C21.8764 16.2414 21.9987 16.7164 22 17.1985C22.0013 17.6806 21.8815 18.1562 21.6505 18.5784C21.4194 19.0007 21.0841 19.3564 20.6749 19.6072C20.2655 19.8582 19.7976 19.9945 19.3181 19.9999L19.3095 20L2.68194 20C2.20239 19.9945 1.73452 19.8582 1.3251 19.6072C0.915939 19.3564 0.580624 19.0007 0.34953 18.5784C0.118526 18.1562 -0.00128552 17.6806 1.04019e-05 17.1985C0.00130627 16.7164 0.123674 16.2414 0.356981 15.8205L0.36269 15.8102L8.67224 1.36L8.67429 1.35646C8.91271 0.947025 9.25055 0.604878 9.65798 0.365926ZM9.97144 2.10972L9.97053 2.11128L1.66637 16.5524C1.55865 16.7485 1.50062 16.9726 1.50001 17.2025C1.49938 17.4342 1.5571 17.6604 1.66541 17.8584C1.77363 18.0561 1.92759 18.2172 2.10899 18.3284C2.28902 18.4387 2.49101 18.497 2.69534 18.5L19.3047 18.5C19.509 18.497 19.711 18.4387 19.891 18.3284C20.0724 18.2172 20.2264 18.0561 20.3346 17.8584C20.4429 17.6604 20.5006 17.4342 20.5 17.2025C20.4994 16.9726 20.4413 16.7485 20.3336 16.5524L12.0295 2.11128L12.0286 2.10972C11.9173 1.91919 11.763 1.76525 11.5832 1.65982C11.4032 1.55424 11.2024 1.5 11 1.5C10.7976 1.5 10.5968 1.55424 10.4168 1.65982C10.237 1.76525 10.0827 1.91919 9.97144 2.10972Z" fill-rule="EVENODD"></path>
 </g>
</svg>