<svg viewBox="0 0 24 24" width="24" height="24" fill="currentColor" xmlns="http://www.w3.org/2000/svg">
 <g transform="translate(1, 1)">
  <path d="M7.58493 0C6.85558 0 6.15611 0.289731 5.64038 0.805456L0.805456 5.64038C0.289732 6.15611 0 6.85558 0 7.58493L0 14.4151C0 15.1444 0.289731 15.8439 0.805456 16.3596L5.64038 21.1945C6.15611 21.7103 6.85558 22 7.58493 22L14.4151 22C15.1444 22 15.8439 21.7103 16.3596 21.1945L21.1945 16.3596C21.7103 15.8439 22 15.1444 22 14.4151L22 7.58493C22 6.85558 21.7103 6.15611 21.1945 5.64038L16.3596 0.805457C15.8439 0.289731 15.1444 0 14.4151 0L7.58493 0ZM10.25 6.75C10.25 6.33579 10.5858 6 11 6C11.4142 6 11.75 6.33579 11.75 6.75L11.75 11.25C11.75 11.6642 11.4142 12 11 12C10.5858 12 10.25 11.6642 10.25 11.25L10.25 6.75ZM10 15C10 14.4477 10.4477 14 11 14L11.01 14C11.5623 14 12.01 14.4477 12.01 15C12.01 15.5523 11.5623 16 11.01 16L11 16C10.4477 16 10 15.5523 10 15Z" fill-rule="EVENODD"></path>
 </g>
</svg>