<svg viewBox="0 0 16 16" width="16" height="16" fill="currentColor" xmlns="http://www.w3.org/2000/svg">
 <g transform="translate(-0.0000000000004547473508864641, 1)">
  <path d="M8 0C7.63327 0 7.27254 0.0940425 6.95256 0.273305C6.63257 0.45258 6.36397 0.711147 6.17301 1.02441L0.293337 10.7916C0.104561 11.117 0.0010682 11.4865 8.41158e-06 11.8631C-0.00104057 12.2359 0.0960397 12.6023 0.28132 12.9257C0.466585 13.2492 0.733464 13.5182 1.05505 13.7065C1.3766 13.8948 1.74181 13.9959 2.11437 14L13.8856 14C14.2582 13.9959 14.6234 13.8948 14.945 13.7065C15.2665 13.5182 15.5334 13.2492 15.7187 12.9257C15.904 12.6023 16.001 12.2359 16 11.8631C15.9989 11.4903 15.8999 11.1244 15.7128 10.802L9.82916 1.02797C9.63808 0.714533 9.36781 0.452792 9.04744 0.273305C8.72746 0.0940425 8.36673 0 8 0ZM7 10C7 9.44771 7.44772 9 8 9L8.00667 9C8.55895 9 9.00667 9.44771 9.00667 10C9.00667 10.5523 8.55895 11 8.00667 11L8 11C7.44772 11 7 10.5523 7 10ZM8.75 4.75C8.75 4.33579 8.41421 4 8 4C7.58579 4 7.25 4.33579 7.25 4.75L7.25 7.25C7.25 7.66421 7.58579 8 8 8C8.41421 8 8.75 7.66421 8.75 7.25L8.75 4.75Z" fill-rule="EVENODD"></path>
 </g>
</svg>