<svg viewBox="0 0 24 24" width="24" height="24" fill="currentColor" xmlns="http://www.w3.org/2000/svg">
 <g transform="translate(2, 5)">
  <path d="M0.75 0C0.335786 0 0 0.335786 0 0.75C0 1.16421 0.335786 1.5 0.75 1.5L19.25 1.5C19.6642 1.5 20 1.16421 20 0.75C20 0.335786 19.6642 0 19.25 0L0.75 0Z" fill-rule="NONZERO"></path>
  <path d="M3.75 4C3.33579 4 3 4.33579 3 4.75C3 5.16421 3.33579 5.5 3.75 5.5L16.25 5.5C16.6642 5.5 17 5.16421 17 4.75C17 4.33579 16.6642 4 16.25 4L3.75 4Z" fill-rule="NONZERO"></path>
  <path d="M0 8.75C0 8.33579 0.335786 8 0.75 8L19.25 8C19.6642 8 20 8.33579 20 8.75C20 9.16421 19.6642 9.5 19.25 9.5L0.75 9.5C0.335786 9.5 0 9.16421 0 8.75Z" fill-rule="NONZERO"></path>
  <path d="M3.75 12C3.33579 12 3 12.3358 3 12.75C3 13.1642 3.33579 13.5 3.75 13.5L16.25 13.5C16.6642 13.5 17 13.1642 17 12.75C17 12.3358 16.6642 12 16.25 12L3.75 12Z" fill-rule="NONZERO"></path>
 </g>
</svg>