<svg viewBox="0 0 16 16" width="16" height="16" fill="currentColor" xmlns="http://www.w3.org/2000/svg">
 <g transform="translate(3, 3)">
  <path d="M0.219669 1.28033C-0.0732231 0.987437 -0.0732231 0.512563 0.219669 0.21967C0.512563 -0.0732233 0.987436 -0.0732233 1.28033 0.21967L8.5 7.43934L8.5 3.75C8.5 3.33579 8.83579 3 9.25 3C9.66421 3 10 3.33579 10 3.75L10 9.25C10 9.35169 9.97976 9.44866 9.94309 9.53709C9.90649 9.62555 9.85224 9.70842 9.78033 9.78033C9.63388 9.92678 9.44194 10 9.25 10L3.75 10C3.33579 10 3 9.66421 3 9.25C3 8.83579 3.33579 8.5 3.75 8.5L7.43934 8.5L0.219669 1.28033Z" fill-rule="NONZERO"></path>
 </g>
</svg>