<svg viewBox="0 0 24 24" width="24" height="24" fill="currentColor" xmlns="http://www.w3.org/2000/svg">
 <g transform="translate(5, 6)">
  <path d="M0.21967 1.28033C-0.0732234 0.987437 -0.0732234 0.512563 0.21967 0.21967C0.512563 -0.0732233 0.987437 -0.0732233 1.28033 0.21967L12.5 11.4393L12.5 3.75C12.5 3.33579 12.8358 3 13.25 3C13.6642 3 14 3.33579 14 3.75L14 13.25C14 13.3517 13.9798 13.4487 13.9431 13.5371C13.9073 13.6235 13.8547 13.7047 13.7852 13.7754C13.782 13.7787 13.7787 13.782 13.7754 13.7852C13.7047 13.8547 13.6235 13.9073 13.5371 13.9431C13.4487 13.9798 13.3517 14 13.25 14L3.75 14C3.33579 14 3 13.6642 3 13.25C3 12.8358 3.33579 12.5 3.75 12.5L11.4393 12.5L0.21967 1.28033Z" fill-rule="NONZERO"></path>
 </g>
</svg>