<svg viewBox="0 0 24 24" width="24" height="24" fill="currentColor" xmlns="http://www.w3.org/2000/svg">
 <g transform="translate(1, 1)">
  <path d="M7.63642 10.25L10.765 7.29526C11.0661 7.01085 11.0797 6.53617 10.7953 6.23503C10.5109 5.9339 10.0362 5.92033 9.73503 6.20474L5.23684 10.453C5.09106 10.5899 5 10.7843 5 11C5 11.1982 5.07692 11.3785 5.20254 11.5126C5.21158 11.5223 5.22087 11.5317 5.23041 11.5409" fill-rule="NONZERO"></path>
  <path d="M5.23597 11.5461L9.73503 15.7953C10.0362 16.0797 10.5109 16.0661 10.7953 15.765C11.0797 15.4638 11.0661 14.9892 10.765 14.7047L7.63642 11.75L16.25 11.75C16.6642 11.75 17 11.4142 17 11C17 10.5858 16.6642 10.25 16.25 10.25L7.63642 10.25" fill-rule="NONZERO"></path>
  <path d="M0 11C0 4.92487 4.92487 0 11 0C17.0751 0 22 4.92487 22 11C22 17.0751 17.0751 22 11 22C4.92487 22 0 17.0751 0 11ZM11 1.5C5.75329 1.5 1.5 5.75329 1.5 11C1.5 16.2467 5.75329 20.5 11 20.5C16.2467 20.5 20.5 16.2467 20.5 11C20.5 5.75329 16.2467 1.5 11 1.5Z" fill-rule="EVENODD"></path>
 </g>
</svg>