<svg viewBox="0 0 24 24" width="24" height="24" fill="currentColor" xmlns="http://www.w3.org/2000/svg">
 <g transform="translate(5, 3)">
  <path d="M13 6C13.5523 6 14 6.44772 14 7L14 17C14 17.5523 13.5523 18 13 18C12.4477 18 12 17.5523 12 17L12 7C12 6.44772 12.4477 6 13 6Z" fill-rule="EVENODD"></path>
  <path d="M7 0C7.55228 0 8 0.447715 8 1L8 17C8 17.5523 7.55228 18 7 18C6.44772 18 6 17.5523 6 17L6 1C6 0.447715 6.44772 0 7 0Z" fill-rule="EVENODD"></path>
  <path d="M1 10C1.55228 10 2 10.4477 2 11L2 17C2 17.5523 1.55228 18 1 18C0.447715 18 0 17.5523 0 17L0 11C0 10.4477 0.447715 10 1 10Z" fill-rule="EVENODD"></path>
 </g>
</svg>