<svg viewBox="0 0 24 24" width="24" height="24" fill="currentColor" xmlns="http://www.w3.org/2000/svg">
 <g transform="translate(1, 4.75)">
  <path d="M12.0562 1.25319C12.3341 0.946037 12.3104 0.471755 12.0032 0.193854C11.696 -0.0840474 11.2218 -0.0603333 10.9439 0.246821L6.19386 5.49682C6.02186 5.68693 5.95888 5.95173 6.02687 6.19892C6.09487 6.44611 6.28441 6.64144 6.52945 6.71684L11.9575 8.38701L7.92179 13.2723C7.65799 13.5917 7.70301 14.0644 8.02235 14.3282C8.34169 14.592 8.81443 14.547 9.07823 14.2277L13.8282 8.47767C13.9877 8.28463 14.0403 8.02474 13.9685 7.78488C13.8967 7.54501 13.7099 7.35681 13.4706 7.28317L8.09654 5.62962L12.0562 1.25319Z" fill-rule="NONZERO"></path>
  <path d="M2.75 1.75C2.05964 1.75 1.5 2.30964 1.5 3L1.5 11.5C1.5 12.1904 2.05964 12.75 2.75 12.75L5.25 12.75C5.66421 12.75 6 13.0858 6 13.5C6 13.9142 5.66421 14.25 5.25 14.25L2.75 14.25C1.23122 14.25 0 13.0188 0 11.5L0 3C0 1.48122 1.23122 0.25 2.75 0.25L7.25 0.25C7.66421 0.25 8 0.585786 8 1C8 1.41421 7.66421 1.75 7.25 1.75L2.75 1.75Z" fill-rule="NONZERO"></path>
  <path d="M14 1C14 0.585786 14.3358 0.25 14.75 0.25L17.25 0.25C18.7688 0.25 20 1.48122 20 3L20 11.5C20 13.0188 18.7688 14.25 17.25 14.25L12.75 14.25C12.3358 14.25 12 13.9142 12 13.5C12 13.0858 12.3358 12.75 12.75 12.75L17.25 12.75C17.9404 12.75 18.5 12.1904 18.5 11.5L18.5 3C18.5 2.30964 17.9404 1.75 17.25 1.75L14.75 1.75C14.3358 1.75 14 1.41421 14 1Z" fill-rule="NONZERO"></path>
  <path d="M21.75 5.25C22.1642 5.25 22.5 5.58579 22.5 6L22.5 8.5C22.5 8.91421 22.1642 9.25 21.75 9.25C21.3358 9.25 21 8.91421 21 8.5L21 6C21 5.58579 21.3358 5.25 21.75 5.25Z" fill-rule="NONZERO"></path>
 </g>
</svg>