<svg viewBox="0 0 24 24" width="24" height="24" fill="currentColor" xmlns="http://www.w3.org/2000/svg">
 <g transform="translate(1, 1)">
  <path d="M19 13.15C19 14.4544 20.0189 15.5 21.25 15.5C21.6642 15.5 22 15.8358 22 16.25C22 16.6642 21.6642 17 21.25 17L0.75 17C0.335786 17 0 16.6642 0 16.25C0 15.8358 0.335786 15.5 0.75 15.5C1.98113 15.5 3 14.4544 3 13.15L3 7.98333C3 3.66511 6.70238 0 11 0C15.2976 0 19 3.66511 19 7.98333L19 13.15ZM4.5 7.98333C4.5 4.49988 7.52444 1.5 11 1.5C14.4756 1.5 17.5 4.49988 17.5 7.98333L17.5 13.15C17.5 14.0225 17.7891 14.8427 18.282 15.5L3.718 15.5C4.21088 14.8427 4.5 14.0225 4.5 13.15L4.5 7.98333Z" fill-rule="EVENODD"></path>
  <path d="M9.42063 19.4141C9.23514 19.0438 8.78453 18.8939 8.41417 19.0794C8.04381 19.2649 7.89396 19.7155 8.07945 20.0859C8.63145 21.188 9.70431 22 11 22C12.2958 22 13.3686 21.188 13.9206 20.0859C14.1061 19.7155 13.9563 19.2649 13.5859 19.0794C13.2156 18.8939 12.7649 19.0438 12.5795 19.4141C12.2332 20.1054 11.6272 20.5 11 20.5C10.3729 20.5 9.76687 20.1054 9.42063 19.4141Z" fill-rule="NONZERO"></path>
 </g>
</svg>