<svg viewBox="0 0 16 16" width="16" height="16" fill="currentColor" xmlns="http://www.w3.org/2000/svg">
 <g transform="translate(2, 1)">
  <path d="M2.25 0C1.00736 0 0 1.00736 0 2.25L0 11.75C0 12.9926 1.00736 14 2.25 14L10.75 14C11.4404 14 12 13.4404 12 12.75L12 1.25C12 0.559644 11.4404 0 10.75 0L2.25 0ZM1.5 11.7504C1.50019 12.1644 1.8359 12.5 2.25 12.5L10.5 12.5L10.5 10.5L2.25001 10.5C1.83571 10.5 1.5 10.8358 1.5 11.2499L1.5 11.7504C1.5 11.7502 1.5 11.7505 1.5 11.7504ZM1.5 9.12802C1.73459 9.04511 1.98703 9 2.25001 9L10.5 9L10.5 1.5L2.25 1.5C1.83579 1.5 1.5 1.83579 1.5 2.25L1.5 9.12802Z" fill-rule="EVENODD"></path>
 </g>
</svg>