<svg viewBox="0 0 16 16" width="16" height="16" fill="currentColor" xmlns="http://www.w3.org/2000/svg">
 <g transform="translate(1, 0.43316650390625)">
  <path d="M5.97921 0.244883C6.62057 -0.0816277 7.37943 -0.0816276 8.02079 0.244883L13.3171 2.94119C13.7361 3.15451 14 3.58494 14 4.05514L14 10.772C14 11.4302 13.6306 12.0328 13.0439 12.3315L8.02079 14.8887C7.37943 15.2152 6.62057 15.2152 5.97921 14.8887L0.956055 12.3315C0.369415 12.0328 0 11.4302 0 10.772L0 4.05514C0 3.58494 0.263868 3.15451 0.682896 2.94119L5.97921 0.244883ZM7.34026 1.58163C7.12648 1.47279 6.87352 1.47279 6.65974 1.58163L2.22368 3.83999L7.00004 6.22817L11.7764 3.84001L7.34026 1.58163ZM1.5 10.772L1.5 5.1552L6.25 7.5302L6.25 13.3434L1.63658 10.9947C1.55277 10.9521 1.5 10.866 1.5 10.772ZM7.75 13.3434L12.3634 10.9947C12.4472 10.9521 12.5 10.866 12.5 10.772L12.5 5.15524L7.75 7.53024L7.75 13.3434Z" fill-rule="EVENODD"></path>
 </g>
</svg>