<svg viewBox="0 0 16 16" width="16" height="16" fill="currentColor" xmlns="http://www.w3.org/2000/svg">
 <g transform="translate(0.499755859375, 0.58331298828125)">
  <path d="M9.63666 0.21967C9.92955 -0.0732233 10.4044 -0.0732233 10.6973 0.21967C10.9902 0.512563 10.9902 0.987437 10.6973 1.28033L10.2822 1.69545C11.0255 2.34903 11.5002 3.26958 11.5002 4.32578C11.5002 4.42864 11.4956 4.53053 11.4865 4.63126C11.5807 4.64721 11.6592 4.6626 11.7243 4.67682C12.1665 4.77347 12.5002 5.15416 12.5002 5.62798L12.5002 6.01551L14.0716 5.38697C14.4562 5.23314 14.8927 5.4202 15.0465 5.80479C15.2003 6.18937 15.0133 6.62585 14.6287 6.77969L12.5002 7.63106L12.5002 8.76008L14.3493 9.00661C14.7599 9.06136 15.0483 9.43858 14.9936 9.84916C14.9388 10.2597 14.5616 10.5482 14.151 10.4935L12.4926 10.2723C12.4582 10.8312 12.3083 11.3543 12.0663 11.828L14.4301 12.7144C14.818 12.8599 15.0145 13.2922 14.869 13.68C14.7236 14.0679 14.2913 14.2644 13.9034 14.1189L11.2368 13.1189C11.1942 13.103 11.154 13.0835 11.1162 13.0611C10.1876 13.908 8.88456 14.4167 7.50024 14.4167C6.11593 14.4167 4.81289 13.908 3.88428 13.0611C3.84653 13.0835 3.80627 13.103 3.76371 13.1189L1.09704 14.1189C0.709202 14.2644 0.276893 14.0679 0.131453 13.68C-0.0139876 13.2922 0.182517 12.8599 0.570357 12.7144L2.93424 11.828C2.6922 11.3543 2.54229 10.8312 2.50787 10.2723L0.849454 10.4935C0.438874 10.5482 0.0616539 10.2597 0.00690991 9.84916C-0.047834 9.43858 0.240628 9.06136 0.651208 9.00661L2.50024 8.76008L2.50024 7.59112L0.471656 6.77969C0.0870688 6.62585 -0.0999931 6.18937 0.053842 5.80479C0.207677 5.4202 0.644155 5.23314 1.02874 5.38697L2.50024 5.97557L2.50024 5.62798C2.50024 5.15416 2.83397 4.77347 3.27623 4.67682C3.34131 4.6626 3.41979 4.64721 3.514 4.63127C3.50489 4.53053 3.50024 4.42864 3.50024 4.32578C3.50024 3.26958 3.97499 2.34903 4.71829 1.69545L4.30317 1.28033C4.01027 0.987437 4.01027 0.512563 4.30317 0.21967C4.59606 -0.0732233 5.07093 -0.0732233 5.36383 0.21967L6.05809 0.91393C6.51036 0.753596 6.99813 0.666687 7.50024 0.666687C8.00235 0.666687 8.49013 0.753596 8.9424 0.91393L9.63666 0.21967ZM5.00648 4.47947C5.63279 4.4423 6.44639 4.41669 7.50024 4.41669C8.5541 4.41669 9.36769 4.4423 9.99401 4.47947C9.99815 4.42871 10.0002 4.37746 10.0002 4.32578C10.0002 3.20934 8.96128 2.16669 7.50024 2.16669C6.03921 2.16669 5.00024 3.20934 5.00024 4.32578C5.00024 4.37746 5.00234 4.42871 5.00648 4.47947ZM4.00024 7.06837L4.00024 6.07492C4.5431 6.00284 5.59294 5.91669 7.50024 5.91669C9.40755 5.91669 10.4574 6.00284 11.0002 6.07492L11.0002 9.40152C11 9.41231 11 9.42306 11.0002 9.43377L11.0002 10.0238C11.0002 11.5172 9.54587 12.9167 7.50024 12.9167C5.45462 12.9167 4.00024 11.5172 4.00024 10.0238L4.00024 9.43377C4.00047 9.42306 4.00048 9.4123 4.00024 9.40151L4.00024 7.09875C4.00045 7.08861 4.00045 7.07848 4.00024 7.06837Z" fill-rule="EVENODD"></path>
 </g>
</svg>