<svg viewBox="0 0 16 16" width="16" height="16" fill="currentColor" xmlns="http://www.w3.org/2000/svg">
 <g transform="translate(1, 0)">
  <path d="M5.25 3.25C5.25 2.83579 5.58579 2.5 6 2.5L8 2.5C8.41421 2.5 8.75 2.83579 8.75 3.25C8.75 3.66421 8.41421 4 8 4L6 4C5.58579 4 5.25 3.66421 5.25 3.25Z" fill-rule="NONZERO"></path>
  <path d="M2.25 0C1.00736 0 0 1.00736 0 2.25L0 11.75C0 12.9926 1.00736 14 2.25 14L3.91961 14L3.80547 14.9132C3.77474 15.159 3.87624 15.4028 4.07236 15.5541C4.26848 15.7055 4.53001 15.7419 4.76003 15.6499L7.00006 14.7539L9.24009 15.6499C9.47011 15.7419 9.73164 15.7055 9.92776 15.5541C10.1239 15.4028 10.2254 15.159 10.1947 14.9132L10.0805 14L11.75 14C12.9926 14 14 12.9926 14 11.75L14 2.25C14 1.00736 12.9926 0 11.75 0L2.25 0ZM9.89301 12.5L11.75 12.5C12.1642 12.5 12.5 12.1642 12.5 11.75L12.5 2.25C12.5 1.83579 12.1642 1.5 11.75 1.5L2.25 1.5C1.83579 1.5 1.5 1.83579 1.5 2.25L1.5 11.75C1.5 12.1642 1.83579 12.5 2.25 12.5L4.10711 12.5L4.27939 11.1217C3.82238 10.5365 3.55005 9.8001 3.55005 9.00005C3.55005 7.09467 5.09467 5.55005 7.00005 5.55005C8.90543 5.55005 10.45 7.09467 10.45 9.00005C10.45 9.80009 10.1777 10.5365 9.72072 11.1217L9.89301 12.5ZM8.43681 12.1376C7.99939 12.3382 7.51278 12.45 7.00005 12.45C6.48732 12.45 6.00072 12.3382 5.56331 12.1376L5.34184 13.9094L6.74009 13.3501C6.90697 13.2833 7.09315 13.2833 7.26003 13.3501L8.65828 13.9094L8.43681 12.1376ZM4.95005 9.00005C4.95005 7.86787 5.86787 6.95005 7.00005 6.95005C8.13223 6.95005 9.05005 7.86787 9.05005 9.00005C9.05005 10.1322 8.13223 11.05 7.00005 11.05C5.86787 11.05 4.95005 10.1322 4.95005 9.00005Z" fill-rule="EVENODD"></path>
 </g>
</svg>