<svg viewBox="0 0 16 16" width="16" height="16" fill="currentColor" xmlns="http://www.w3.org/2000/svg">
 <g transform="translate(1, 1)">
  <path d="M7.5861 6.53208C8.06275 7.12907 8.45043 7.36629 8.72149 7.45263C8.97709 7.53405 9.19864 7.50404 9.41105 7.41179C9.63913 7.31273 9.85258 7.14168 10.0381 6.95444C10.1283 6.86344 10.2058 6.77492 10.2718 6.69697L10.3019 6.66098C10.35 6.60327 10.4215 6.51763 10.4712 6.4682C10.7649 6.17614 11.2398 6.1775 11.5318 6.47122C11.8217 6.76272 11.8225 7.23263 11.5354 7.52521C11.5352 7.52547 11.5347 7.52608 11.5338 7.5271C11.5307 7.53061 11.5235 7.53892 11.5106 7.55424L11.4858 7.58381C11.4641 7.60962 11.4344 7.64509 11.4167 7.66601C11.3386 7.75833 11.2328 7.87989 11.1036 8.01022C10.8505 8.26563 10.4814 8.58228 10.0086 8.78763C9.52011 8.99978 8.92246 9.09091 8.26623 8.88187C7.62546 8.67776 7.00868 8.21294 6.4139 7.468C5.93725 6.87101 5.54957 6.63381 5.27852 6.54747C5.02293 6.46606 4.80138 6.49607 4.58897 6.58833C4.36088 6.6874 4.14742 6.85846 3.96188 7.0457C3.87171 7.1367 3.79421 7.22522 3.72822 7.30317L3.69815 7.33908C3.65 7.3968 3.57848 7.48252 3.52869 7.53201C3.23489 7.82399 2.76002 7.82252 2.46803 7.52873C2.17827 7.23717 2.17751 6.76729 2.46464 6.47478C2.46486 6.47452 2.4654 6.47391 2.46627 6.47291C2.46932 6.46941 2.47657 6.4611 2.48949 6.4458L2.51394 6.41665C2.53568 6.3907 2.56582 6.35472 2.5833 6.33407C2.66143 6.24177 2.76724 6.12023 2.89638 5.9899C3.14945 5.7345 3.51859 5.41786 3.99139 5.21251C4.47987 5.00034 5.07752 4.9092 5.73376 5.11822C6.37454 5.32232 6.99132 5.78714 7.5861 6.53208Z" fill-rule="NONZERO"></path>
  <path d="M2.25 0C1.00736 0 0 1.00736 0 2.25L0 11.75C0 12.9926 1.00736 14 2.25 14L11.75 14C12.9926 14 14 12.9926 14 11.75L14 2.25C14 1.00736 12.9926 0 11.75 0L2.25 0ZM1.5 2.25C1.5 1.83579 1.83579 1.5 2.25 1.5L11.75 1.5C12.1642 1.5 12.5 1.83579 12.5 2.25L12.5 11.75C12.5 12.1642 12.1642 12.5 11.75 12.5L2.25 12.5C1.83579 12.5 1.5 12.1642 1.5 11.75L1.5 2.25Z" fill-rule="EVENODD"></path>
 </g>
</svg>