<svg viewBox="0 0 16 16" width="16" height="16" fill="currentColor" xmlns="http://www.w3.org/2000/svg">
 <g transform="translate(0.5, 0.004028310999274254)">
  <path d="M10.7803 5.71564C11.0732 6.00853 11.0732 6.48341 10.7803 6.7763L6.78033 10.7763C6.48744 11.0692 6.01256 11.0692 5.71967 10.7763L3.71967 8.7763C3.42678 8.48341 3.42678 8.00853 3.71967 7.71564C4.01256 7.42275 4.48744 7.42275 4.78033 7.71564L6.25 9.18531L9.71967 5.71564C10.0126 5.42275 10.4874 5.42275 10.7803 5.71564Z" fill-rule="NONZERO"></path>
  <path d="M6.33382 0.325805C7.05059 -0.108601 7.94941 -0.108602 8.66618 0.325805L13.9162 3.50762C14.589 3.91541 15 4.64504 15 5.43182L15 10.5602C15 11.347 14.589 12.0766 13.9162 12.4844L8.66618 15.6662C7.94941 16.1006 7.05059 16.1006 6.33382 15.6662L1.08382 12.4844C0.41097 12.0766 0 11.347 0 10.5602L0 5.43182C0 4.64504 0.41097 3.91541 1.08382 3.50762L6.33382 0.325805ZM7.88873 1.6086C7.6498 1.4638 7.3502 1.4638 7.11127 1.6086L1.86127 4.79042C1.63699 4.92635 1.5 5.16956 1.5 5.43182L1.5 10.5602C1.5 10.8225 1.63699 11.0657 1.86127 11.2016L7.11127 14.3834C7.3502 14.5282 7.6498 14.5282 7.88873 14.3834L13.1387 11.2016C13.363 11.0657 13.5 10.8225 13.5 10.5602L13.5 5.43182C13.5 5.16956 13.363 4.92635 13.1387 4.79042L7.88873 1.6086Z" fill-rule="EVENODD"></path>
 </g>
</svg>