<svg viewBox="0 0 24 24" width="24" height="24" fill="currentColor" xmlns="http://www.w3.org/2000/svg">
 <g transform="translate(1.078369140625, 1.0787353515625)">
  <path d="M12.8662 0.805477C11.7923 -0.268484 10.0511 -0.268494 8.97711 0.805457L0.805455 8.97712C-0.268495 10.0511 -0.268483 11.7923 0.805478 12.8662L8.97714 21.0377C10.0511 22.1116 11.7923 22.1116 12.8662 21.0377L21.0377 12.8662C22.1116 11.7923 22.1116 10.0511 21.0377 8.97714L12.8662 0.805477ZM15.202 8.7016L9.70202 14.2016C9.40913 14.4945 8.93426 14.4945 8.64136 14.2016L6.14136 11.7016C5.84847 11.4087 5.84847 10.9338 6.14136 10.6409C6.43426 10.348 6.90913 10.348 7.20202 10.6409L9.17169 12.6106L14.1414 7.64093C14.4343 7.34804 14.9091 7.34804 15.202 7.64093C15.4949 7.93383 15.4949 8.4087 15.202 8.7016Z" fill-rule="EVENODD"></path>
 </g>
</svg>