<svg viewBox="0 0 24 24" width="24" height="24" fill="currentColor" xmlns="http://www.w3.org/2000/svg">
 <g transform="translate(1.07830011844635, 1.0787060260772705)">
  <path d="M15.202 7.64096C15.4949 7.93386 15.4949 8.40873 15.202 8.70162L9.70203 14.2016C9.40914 14.4945 8.93426 14.4945 8.64137 14.2016L6.14137 11.7016C5.84848 11.4087 5.84848 10.9339 6.14137 10.641C6.43426 10.3481 6.90914 10.3481 7.20203 10.641L9.1717 12.6106L14.1414 7.64096C14.4343 7.34807 14.9091 7.34807 15.202 7.64096Z" fill-rule="NONZERO"></path>
  <path d="M0.805455 8.97712L8.97711 0.805457C10.0511 -0.268493 11.7923 -0.268485 12.8662 0.805477L21.0377 8.97714C22.1116 10.0511 22.1116 11.7923 21.0377 12.8662L12.8662 21.0377C11.7923 22.1116 10.0511 22.1116 8.97714 21.0377L0.805478 12.8662C-0.268483 11.7923 -0.268495 10.0511 0.805455 8.97712ZM10.0378 1.86612L1.86612 10.0378C1.37796 10.5259 1.37796 11.3174 1.86613 11.8056L10.0378 19.977C10.5259 20.4652 11.3174 20.4652 11.8055 19.977L19.977 11.8055C20.4652 11.3174 20.4652 10.5259 19.977 10.0378L11.8055 1.86613C11.3174 1.37796 10.5259 1.37796 10.0378 1.86612Z" fill-rule="EVENODD"></path>
 </g>
</svg>