<svg viewBox="0 0 16 16" width="16" height="16" fill="currentColor" xmlns="http://www.w3.org/2000/svg">
 <g transform="translate(4, 2.9999966621398926)">
  <path d="M1.2996 4.76034C1.01775 5.06387 0.543198 5.08145 0.239665 4.7996C-0.0638681 4.51774 -0.081444 4.04319 0.200408 3.73966L3.45041 0.239662C3.59232 0.0868363 3.79145 0 4 0C4.20855 0 4.40769 0.0868363 4.5496 0.239662L7.7996 3.73966C8.08145 4.04319 8.06387 4.51774 7.76034 4.7996C7.45681 5.08145 6.98226 5.06387 6.70041 4.76034L4 1.85221L1.2996 4.76034Z" fill-rule="NONZERO"></path>
  <path d="M1.2996 9.76034C1.01775 10.0639 0.543198 10.0814 0.239665 9.7996C-0.0638681 9.51774 -0.081444 9.0432 0.200408 8.73966L3.45041 5.23966C3.59232 5.08684 3.79145 5 4 5C4.20855 5 4.40769 5.08684 4.5496 5.23966L7.7996 8.73966C8.08145 9.0432 8.06387 9.51774 7.76034 9.7996C7.45681 10.0814 6.98226 10.0639 6.70041 9.76034L4 6.85221L1.2996 9.76034Z" fill-rule="NONZERO"></path>
 </g>
</svg>