<svg viewBox="0 0 24 24" width="24" height="24" fill="currentColor" xmlns="http://www.w3.org/2000/svg">
 <g transform="translate(5, 5.999998092651367)">
  <path d="M0.232145 10.7075C-0.0674792 10.9935 -0.0785198 11.4682 0.207485 11.7679C0.493489 12.0675 0.968234 12.0785 1.26786 11.7925L6.76786 6.54252C6.91612 6.401 7 6.20496 7 6C7 5.79504 6.91612 5.59901 6.76786 5.45748L1.26786 0.207484C0.968235 -0.0785198 0.49349 -0.0674791 0.207485 0.232144C-0.0785193 0.531768 -0.0674788 1.00651 0.232145 1.29252L5.16379 6L0.232145 10.7075Z" fill-rule="NONZERO"></path>
  <path d="M7.23214 10.7075C6.93252 10.9935 6.92148 11.4682 7.20748 11.7679C7.49349 12.0675 7.96823 12.0785 8.26786 11.7925L13.7679 6.54252C13.9161 6.401 14 6.20496 14 6C14 5.79504 13.9161 5.59901 13.7679 5.45748L8.26786 0.207484C7.96824 -0.0785198 7.49349 -0.0674791 7.20749 0.232144C6.92148 0.531768 6.93252 1.00651 7.23214 1.29252L12.1638 6L7.23214 10.7075Z" fill-rule="NONZERO"></path>
 </g>
</svg>