<svg viewBox="0 0 24 24" width="24" height="24" fill="currentColor" xmlns="http://www.w3.org/2000/svg">
 <g transform="translate(1, 1)">
  <path d="M11.5 4.75C11.5 4.33579 11.1642 4 10.75 4C10.3358 4 10 4.33579 10 4.75L10 11C10 11.2841 10.1605 11.5438 10.4146 11.6708L14.9146 13.9208C15.2851 14.1061 15.7356 13.9559 15.9208 13.5854C16.1061 13.2149 15.9559 12.7644 15.5854 12.5792L11.5 10.5365L11.5 4.75Z" fill-rule="NONZERO"></path>
  <path d="M11 0C4.92487 0 0 4.92487 0 11C0 17.0751 4.92487 22 11 22C17.0751 22 22 17.0751 22 11C22 4.92487 17.0751 0 11 0ZM1.5 11C1.5 5.75329 5.75329 1.5 11 1.5C16.2467 1.5 20.5 5.75329 20.5 11C20.5 16.2467 16.2467 20.5 11 20.5C5.75329 20.5 1.5 16.2467 1.5 11Z" fill-rule="EVENODD"></path>
 </g>
</svg>