<svg viewBox="0 0 16 16" width="16" height="16" fill="currentColor" xmlns="http://www.w3.org/2000/svg">
 <g transform="translate(0, 1)">
  <path d="M3.05005 3.75005C3.05005 3.36345 3.36345 3.05005 3.75005 3.05005L7.25005 3.05005C7.63665 3.05005 7.95005 3.36345 7.95005 3.75005C7.95005 4.13665 7.63665 4.45005 7.25005 4.45005L3.75005 4.45005C3.36345 4.45005 3.05005 4.13665 3.05005 3.75005Z" fill-rule="NONZERO"></path>
  <path d="M3.75005 6.05005C3.36345 6.05005 3.05005 6.36345 3.05005 6.75005C3.05005 7.13665 3.36345 7.45005 3.75005 7.45005L6.25005 7.45005C6.63665 7.45005 6.95005 7.13665 6.95005 6.75005C6.95005 6.36345 6.63665 6.05005 6.25005 6.05005L3.75005 6.05005Z" fill-rule="NONZERO"></path>
  <path d="M0 2.25C0 1.00736 1.00736 0 2.25 0L8.75 0C9.63343 0 10.3979 0.509141 10.7661 1.25L11.75 1.25C12.4481 1.25 13.0507 1.65876 13.3316 2.25L14.25 2.25C15.2165 2.25 16 3.0335 16 4L16 10C16 10.9665 15.2165 11.75 14.25 11.75L13.3316 11.75C13.0507 12.3412 12.4481 12.75 11.75 12.75L10.7661 12.75C10.3979 13.4909 9.63343 14 8.75 14L2.25 14C1.00736 14 0 12.9926 0 11.75L0 2.25ZM13.5 10.25L14.25 10.25C14.3881 10.25 14.5 10.1381 14.5 10L14.5 4C14.5 3.86193 14.3881 3.75 14.25 3.75L13.5 3.75L13.5 10.25ZM11 11.25L11 2.75L11.75 2.75C11.8881 2.75 12 2.86193 12 3L12 11C12 11.1381 11.8881 11.25 11.75 11.25L11 11.25ZM2.25 1.5C1.83579 1.5 1.5 1.83579 1.5 2.25L1.5 11.75C1.5 12.1642 1.83579 12.5 2.25 12.5L8.75 12.5C9.16421 12.5 9.5 12.1642 9.5 11.75L9.5 2.25C9.5 1.83579 9.16421 1.5 8.75 1.5L2.25 1.5Z" fill-rule="EVENODD"></path>
 </g>
</svg>