<svg viewBox="0 0 16 16" width="16" height="16" fill="currentColor" xmlns="http://www.w3.org/2000/svg">
 <g transform="translate(2.000000476837158, 2.499999761581421)">
  <path d="M11.25 0C11.6642 0 12 0.335787 12 0.75C12 1.16421 11.6642 1.5 11.25 1.5L6.75 1.5C6.28587 1.5 5.84075 1.68437 5.51256 2.01256C5.18437 2.34075 5 2.78587 5 3.25L5 8.93934L7.21967 6.71967C7.51256 6.42678 7.98744 6.42678 8.28033 6.71967C8.57322 7.01256 8.57322 7.48744 8.28033 7.78033L4.78033 11.2803C4.48744 11.5732 4.01256 11.5732 3.71967 11.2803L0.21967 7.78033C-0.0732233 7.48744 -0.0732232 7.01256 0.21967 6.71967C0.512563 6.42678 0.987436 6.42678 1.28033 6.71967L3.5 8.93934L3.5 3.25C3.5 2.38805 3.84241 1.5614 4.4519 0.951903C5.0614 0.34241 5.88805 0 6.75 0L11.25 0Z" fill-rule="NONZERO"></path>
 </g>
</svg>