<svg viewBox="0 0 24 24" width="24" height="24" fill="currentColor" xmlns="http://www.w3.org/2000/svg">
 <g transform="translate(3.2499985694885254, 2.499999761581421)">
  <path d="M17 0C17.4142 0 17.75 0.335787 17.75 0.75C17.75 1.16421 17.4142 1.5 17 1.5L10 1.5C9.15323 1.5 8.33122 1.85699 7.71773 2.50882C7.10278 3.16219 6.75 4.05757 6.75 5L6.75 15.8781L10.7075 11.7321C10.9935 11.4325 11.4682 11.4215 11.7679 11.7075C12.0675 11.9935 12.0785 12.4682 11.7925 12.7679L6.54252 18.2679C6.401 18.4161 6.20496 18.5 6 18.5C5.79504 18.5 5.59901 18.4161 5.45748 18.2679L0.207484 12.7679C-0.0785198 12.4682 -0.0674791 11.9935 0.232144 11.7075C0.531768 11.4215 1.00651 11.4325 1.29252 11.7321L5.25 15.8781L5.25 5C5.25 3.68809 5.74007 2.42146 6.62542 1.48077C7.51223 0.538547 8.72505 0 10 0L17 0Z" fill-rule="NONZERO"></path>
 </g>
</svg>