<svg viewBox="0 0 16 16" width="16" height="16" fill="currentColor" xmlns="http://www.w3.org/2000/svg">
 <g transform="translate(1, 1)">
  <path d="M2.352 0.621468C3.57523 0.230035 5.21843 0 7 0C8.78157 0 10.4248 0.230035 11.648 0.621468C12.2553 0.815817 12.8013 1.06315 13.2114 1.3734C13.6092 1.67442 14 2.13213 14 2.75L14 11.25C14 11.8658 13.6136 12.3237 13.2158 12.6263C12.8069 12.9373 12.2624 13.1849 11.656 13.3792C10.4347 13.7706 8.79121 14 7 14C5.2088 14 3.56529 13.7706 2.34402 13.3792C1.73761 13.1849 1.19306 12.9373 0.784197 12.6263C0.386441 12.3237 0 11.8658 0 11.25L0 2.75C0 2.13213 0.390775 1.67442 0.788647 1.3734C1.19872 1.06315 1.74466 0.815817 2.352 0.621468ZM1.50944 2.75C1.52893 2.7186 1.57756 2.65746 1.69367 2.56962C1.91612 2.40131 2.28548 2.21768 2.80916 2.0501C3.84799 1.71768 5.32979 1.5 7 1.5C8.67021 1.5 10.152 1.71768 11.1908 2.0501C11.7145 2.21768 12.0839 2.40131 12.3063 2.56962C12.4224 2.65746 12.4711 2.7186 12.4906 2.75C12.4711 2.7814 12.4224 2.84254 12.3063 2.93038C12.0839 3.09869 11.7145 3.28232 11.1908 3.4499C10.152 3.78232 8.67021 4 7 4C5.32979 4 3.84799 3.78232 2.80916 3.4499C2.28548 3.28232 1.91612 3.09869 1.69367 2.93038C1.57756 2.84254 1.52893 2.7814 1.50944 2.75ZM1.5 8.72261L1.5 11.2343C1.50924 11.2552 1.54867 11.3231 1.69237 11.4325C1.91284 11.6002 2.27975 11.7835 2.80182 11.9508C3.83748 12.2827 5.31898 12.5 7 12.5C8.68102 12.5 10.1625 12.2827 11.1982 11.9508C11.7203 11.7835 12.0872 11.6002 12.3076 11.4325C12.4513 11.3231 12.4908 11.2552 12.5 11.2343L12.5 8.72261C12.228 8.83598 11.9307 8.9324 11.6193 9.01496C10.4051 9.33686 8.7718 9.5 7 9.5C5.22819 9.5 3.59494 9.33686 2.38072 9.01496C2.06932 8.9324 1.77202 8.83598 1.5 8.72261ZM12.5 6.97671C12.4859 6.99875 12.4448 7.04819 12.3374 7.12192C12.1238 7.26845 11.7615 7.42543 11.2349 7.56504C10.1922 7.84148 8.70041 8 7 8C5.29958 8 3.80783 7.84148 2.76511 7.56504C2.23847 7.42543 1.87618 7.26845 1.66265 7.12192C1.55521 7.04819 1.51406 6.99875 1.5 6.97671L1.5 4.54776C1.76267 4.67196 2.04973 4.78181 2.352 4.87853C3.57523 5.26997 5.21843 5.5 7 5.5C8.78157 5.5 10.4248 5.26997 11.648 4.87853C11.9503 4.78181 12.2373 4.67196 12.5 4.54776L12.5 6.97671Z" fill-rule="EVENODD"></path>
 </g>
</svg>