<svg viewBox="0 0 16 16" width="16" height="16" fill="currentColor" xmlns="http://www.w3.org/2000/svg">
 <g transform="translate(1, 0.38017791509628296)">
  <path d="M10.4362 0.625163C11.0575 -0.115216 12.1613 -0.211792 12.9017 0.409462L13.604 0.99878C14.3444 1.62003 14.441 2.72386 13.8197 3.46424L8.11564 10.2621C7.70215 10.7549 7.19288 11.1585 6.6187 11.4486L4.04695 12.7477C3.77916 12.883 3.45652 12.8457 3.22669 12.6528C2.99686 12.46 2.90407 12.1487 2.9908 11.8615L3.82364 9.10324C4.00958 8.48742 4.31867 7.91579 4.73216 7.42301L10.4362 0.625163ZM11.9375 1.55853C11.8317 1.46978 11.6741 1.48357 11.5853 1.58934L11.0547 2.22173L12.1369 3.13619L12.6706 2.50005C12.7594 2.39429 12.7456 2.2366 12.6398 2.14785L11.9375 1.55853ZM11.1727 4.28526L10.0905 3.37081L5.88123 8.38719C5.59832 8.72436 5.38683 9.11547 5.25961 9.53682L4.93261 10.6198L5.94235 10.1097C6.33521 9.91125 6.68366 9.63507 6.96658 9.2979L11.1727 4.28526Z" fill-rule="EVENODD"></path>
  <path d="M2.25 3.11982C1.83579 3.11982 1.5 3.45561 1.5 3.86982L1.5 13.3698C1.5 13.784 1.83579 14.1198 2.25 14.1198L11.75 14.1198C12.1642 14.1198 12.5 13.784 12.5 13.3698L12.5 8.61982C12.5 8.20561 12.8358 7.86982 13.25 7.86982C13.6642 7.86982 14 8.20561 14 8.61982L14 13.3698C14 14.6125 12.9926 15.6198 11.75 15.6198L2.25 15.6198C1.00736 15.6198 0 14.6125 0 13.3698L0 3.86982C0 2.62718 1.00736 1.61982 2.25 1.61982L5 1.61982C5.41421 1.61982 5.75 1.95561 5.75 2.36982C5.75 2.78404 5.41421 3.11982 5 3.11982L2.25 3.11982Z" fill-rule="NONZERO"></path>
 </g>
</svg>