<svg viewBox="0 0 24 24" width="24" height="24" fill="currentColor" xmlns="http://www.w3.org/2000/svg">
 <g transform="translate(3, 1)">
  <path d="M2.75 1.5C2.05964 1.5 1.5 2.05964 1.5 2.75L1.5 19.25C1.5 19.9404 2.05964 20.5 2.75 20.5L8 20.5C8.41421 20.5 8.75 20.8358 8.75 21.25C8.75 21.6642 8.41421 22 8 22L2.75 22C1.23122 22 0 20.7688 0 19.25L0 2.75C0 1.23122 1.23122 0 2.75 0L10.3358 0C10.7999 0 11.245 0.184374 11.5732 0.512563L17.4874 6.42678C17.8156 6.75497 18 7.20008 18 7.66421L18 12C18 12.4142 17.6642 12.75 17.25 12.75C16.8358 12.75 16.5 12.4142 16.5 12L16.5 8L10.75 8C10.3358 8 10 7.66421 10 7.25L10 1.5L2.75 1.5ZM11.5 2.56066L15.4393 6.5L11.5 6.5L11.5 2.56066Z" fill-rule="EVENODD"></path>
  <path d="M19 18C19 20.7614 16.7614 23 14 23C11.2386 23 9 20.7614 9 18C9 15.2386 11.2386 13 14 13C16.7614 13 19 15.2386 19 18ZM17.1212 15.9697C17.4141 16.2626 17.4141 16.7374 17.1212 17.0303L13.6212 20.5303C13.4806 20.671 13.2898 20.75 13.0909 20.75C12.892 20.75 12.7012 20.671 12.5606 20.5303L10.9697 18.9394C10.6768 18.6465 10.6768 18.1717 10.9697 17.8788C11.2626 17.5859 11.7374 17.5859 12.0303 17.8788L13.0909 18.9393L16.0606 15.9697C16.3535 15.6768 16.8283 15.6768 17.1212 15.9697Z" fill-rule="EVENODD"></path>
 </g>
</svg>