<svg viewBox="0 0 24 24" width="24" height="24" fill="currentColor" xmlns="http://www.w3.org/2000/svg">
 <g transform="translate(3, 1)">
  <path d="M4.875 0C3.24319 0 2.11573 0.273442 1.37276 0.571916C1.00196 0.72088 0.730251 0.87477 0.542203 1.00068C0.448316 1.06354 0.3757 1.11915 0.322347 1.16328L0.218526 1.25653C0.0785736 1.39709 0 1.58736 0 1.78571L0 21.25C0 21.6642 0.335786 22 0.75 22C1.16421 22 1.5 21.6642 1.5 21.25L1.5 14.5993C1.60415 14.5392 1.74638 14.4669 1.93193 14.3924C2.47802 14.173 3.41306 13.9286 4.875 13.9286C6.25671 13.9286 7.41766 14.3869 8.72042 14.9102L8.76442 14.9279C10.0284 15.4358 11.4326 16 13.125 16C14.7568 16 15.8843 15.7266 16.6272 15.4281C16.998 15.2791 17.2697 15.1252 17.4578 14.9993C17.4578 14.9993 17.6415 14.884 17.7815 14.7435C17.9214 14.6029 18 14.4126 18 14.2143L18 1.78571C18 1.48207 17.8169 1.20839 17.5363 1.0925C17.2608 0.97873 16.9446 1.03904 16.7305 1.24481L16.7216 1.25228C16.7065 1.26479 16.6744 1.2901 16.6233 1.32434C16.5213 1.39263 16.3418 1.49767 16.0681 1.60763C15.522 1.82701 14.5869 2.07143 13.125 2.07143C11.7433 2.07143 10.5823 1.61313 9.27958 1.08977L9.23559 1.0721C7.97163 0.564233 6.56738 0 4.875 0ZM1.5 12.9511L1.5 2.17071C1.60415 2.11061 1.74638 2.03834 1.93193 1.9638C2.47802 1.74441 3.41306 1.5 4.875 1.5C6.25671 1.5 7.41766 1.9583 8.72042 2.48166L8.76442 2.49933C10.0284 3.0072 11.4326 3.57143 13.125 3.57143C14.6663 3.57143 15.7576 3.32749 16.5 3.04892L16.5 13.8293C16.3958 13.8894 16.2536 13.9617 16.0681 14.0362C15.522 14.2556 14.5869 14.5 13.125 14.5C11.7433 14.5 10.5823 14.0417 9.27958 13.5183L9.23559 13.5007C7.97163 12.9928 6.56738 12.4286 4.875 12.4286C3.33373 12.4286 2.24239 12.6725 1.5 12.9511Z" fill-rule="EVENODD"></path>
 </g>
</svg>