<svg viewBox="0 0 16 16" width="16" height="16" fill="currentColor" xmlns="http://www.w3.org/2000/svg">
 <g transform="translate(0, 1)">
  <path d="M1.5 2.25C1.5 1.83579 1.83579 1.5 2.25 1.5L6.62868 1.5C6.82759 1.5 7.01836 1.57902 7.15901 1.71967L8.28033 2.84099C8.70229 3.26295 9.27458 3.5 9.87132 3.5L13.75 3.5C14.1642 3.5 14.5 3.83579 14.5 4.25L14.5 5.5C14.5 5.91421 14.8358 6.25 15.25 6.25C15.6642 6.25 16 5.91421 16 5.5L16 4.25C16 3.00736 14.9926 2 13.75 2L9.87132 2C9.67241 2 9.48164 1.92098 9.34099 1.78033L8.21967 0.659009C7.79771 0.237052 7.22542 0 6.62868 0L2.25 0C1.00736 0 0 1.00736 0 2.25L0 11.75C0 12.9926 1.00736 14 2.25 14L4.75 14C5.16421 14 5.5 13.6642 5.5 13.25C5.5 12.8358 5.16421 12.5 4.75 12.5L2.25 12.5C1.83579 12.5 1.5 12.1642 1.5 11.75L1.5 2.25Z" fill-rule="NONZERO"></path>
  <path d="M11.1789 4.4313C11.0554 4.16808 10.7908 4 10.5 4C10.2092 4 9.94467 4.16808 9.8211 4.4313L8.52322 7.19614L5.63609 7.63988C5.35489 7.6831 5.12236 7.8817 5.03568 8.15267C4.949 8.42364 5.0231 8.72033 5.227 8.91872L7.42845 11.0607L6.76727 14.0901C6.70475 14.3765 6.81489 14.6732 7.04921 14.8494C7.28354 15.0256 7.59907 15.0492 7.85694 14.9096L10.5 13.4795L13.1431 14.9096C13.401 15.0492 13.7165 15.0256 13.9508 14.8494C14.1852 14.6732 14.2953 14.3765 14.2328 14.0901L13.5716 11.0607L15.773 8.91872C15.9769 8.72033 16.051 8.42364 15.9644 8.15267C15.8777 7.8817 15.6452 7.6831 15.364 7.63988L12.4768 7.19614L11.1789 4.4313ZM9.71119 8.19541L10.5 6.51498L11.2889 8.19541C11.395 8.42159 11.6069 8.58005 11.8538 8.618L13.6478 8.89372L12.227 10.2761C12.0413 10.4567 11.962 10.7204 12.0173 10.9735L12.4185 12.8121L10.8569 11.9671C10.6343 11.8466 10.3658 11.8466 10.1431 11.9671L8.58151 12.8121L8.98277 10.9735C9.03801 10.7204 8.95872 10.4567 8.77304 10.2761L7.35229 8.89372L9.14621 8.618C9.39317 8.58005 9.60501 8.42159 9.71119 8.19541Z" fill-rule="EVENODD"></path>
 </g>
</svg>