<svg viewBox="0 0 16 16" width="16" height="16" fill="currentColor" xmlns="http://www.w3.org/2000/svg">
 <g transform="translate(0, 1)">
  <path d="M2.25 1.5C1.83579 1.5 1.5 1.83579 1.5 2.25L1.5 11.75C1.5 12.1642 1.83579 12.5 2.25 12.5L2.5 12.5C2.91421 12.5 3.25 12.8358 3.25 13.25C3.25 13.6642 2.91421 14 2.5 14L2.25 14C1.00736 14 0 12.9926 0 11.75L0 2.25C0 1.00736 1.00736 0 2.25 0L6.62868 0C7.22542 0 7.79771 0.237052 8.21967 0.659009L9.34099 1.78033C9.48164 1.92098 9.67241 2 9.87132 2L13.75 2C14.9926 2 16 3.00736 16 4.25L16 9.5C16 9.91421 15.6642 10.25 15.25 10.25C14.8358 10.25 14.5 9.91421 14.5 9.5L14.5 4.25C14.5 3.83579 14.1642 3.5 13.75 3.5L9.87132 3.5C9.27458 3.5 8.70229 3.26295 8.28033 2.84099L7.15901 1.71967C7.01836 1.57902 6.82759 1.5 6.62868 1.5L2.25 1.5Z" fill-rule="NONZERO"></path>
  <path d="M4.5742 10.7608C4.95662 10.2972 5.50974 9.99992 6.125 9.99992L8.875 9.99992C9.49026 9.99992 10.0434 10.2972 10.4258 10.7608C10.8048 11.2202 11 11.8173 11 12.4166L11 13.2499C11 13.6641 10.6642 13.9999 10.25 13.9999C9.83579 13.9999 9.5 13.6641 9.5 13.2499L9.5 12.4166C9.5 12.1318 9.40543 11.881 9.26874 11.7154C9.13544 11.5538 8.98909 11.4999 8.875 11.4999L6.125 11.4999C6.01091 11.4999 5.86456 11.5538 5.73126 11.7154C5.59457 11.881 5.5 12.1318 5.5 12.4166L5.5 13.2499C5.5 13.6641 5.16421 13.9999 4.75 13.9999C4.33579 13.9999 4 13.6641 4 13.2499L4 12.4166C4 11.8173 4.19516 11.2202 4.5742 10.7608Z" fill-rule="NONZERO"></path>
  <path d="M7.5 4.49992C6.11929 4.49992 5 5.61921 5 6.99992C5 8.38063 6.11929 9.49992 7.5 9.49992C8.88071 9.49992 10 8.38063 10 6.99992C10 5.61921 8.88071 4.49992 7.5 4.49992ZM6.5 6.99992C6.5 6.44764 6.94772 5.99992 7.5 5.99992C8.05228 5.99992 8.5 6.44764 8.5 6.99992C8.5 7.55221 8.05228 7.99992 7.5 7.99992C6.94772 7.99992 6.5 7.55221 6.5 6.99992Z" fill-rule="EVENODD"></path>
  <path d="M11.5175 10.5888C11.6065 10.1843 12.0066 9.92846 12.4111 10.0174C12.9776 10.142 13.5 10.4275 13.8854 10.8509C14.273 11.2768 14.4995 11.82 14.5 12.3975L14.5 13.2499C14.5 13.6641 14.1642 13.9999 13.75 13.9999C13.3358 13.9999 13 13.6641 13 13.2499L13 12.3985C12.9998 12.2211 12.9313 12.0311 12.776 11.8605C12.6184 11.6873 12.3806 11.5466 12.0889 11.4824C11.6844 11.3934 11.4285 10.9934 11.5175 10.5888Z" fill-rule="NONZERO"></path>
  <path d="M11.4194 4.51931C11.0159 4.42575 10.6129 4.67701 10.5194 5.08052C10.4258 5.48403 10.6771 5.88698 11.0806 5.98054C11.3631 6.04604 11.6 6.1919 11.7616 6.38035C11.9218 6.56727 12 6.78558 12 6.99992C12 7.21426 11.9218 7.43258 11.7616 7.6195C11.6 7.80795 11.3631 7.9538 11.0806 8.01931C10.6771 8.11287 10.4258 8.51582 10.5194 8.91933C10.6129 9.32284 11.0159 9.5741 11.4194 9.48054C11.9951 9.34706 12.5188 9.04094 12.9004 8.59568C13.2834 8.14889 13.5 7.5878 13.5 6.99992C13.5 6.41204 13.2834 5.85096 12.9004 5.40416C12.5188 4.9589 11.9951 4.65279 11.4194 4.51931Z" fill-rule="NONZERO"></path>
 </g>
</svg>