<svg viewBox="0 0 16 16" width="16" height="16" fill="currentColor" xmlns="http://www.w3.org/2000/svg">
 <g transform="translate(2, 4.75)">
  <path d="M8.90549 2.25C8.57246 0.956079 7.39788 0 6 0C4.60212 0 3.42755 0.956079 3.09451 2.25L0.75 2.25C0.335786 2.25 0 2.58579 0 3C0 3.41421 0.335786 3.75 0.75 3.75L3.09451 3.75C3.42754 5.04392 4.60212 6 6 6C7.39788 6 8.57246 5.04392 8.90549 3.75L11.25 3.75C11.6642 3.75 12 3.41421 12 3C12 2.58579 11.6642 2.25 11.25 2.25L8.90549 2.25ZM6 1.5C5.17157 1.5 4.5 2.17157 4.5 3C4.5 3.82843 5.17157 4.5 6 4.5C6.82843 4.5 7.5 3.82843 7.5 3C7.5 2.17157 6.82843 1.5 6 1.5Z" fill-rule="EVENODD"></path>
 </g>
</svg>