<svg viewBox="0 0 24 24" width="24" height="24" fill="currentColor" xmlns="http://www.w3.org/2000/svg">
 <g transform="translate(1, 1)">
  <path d="M0 1.25C0 0.559644 0.559644 0 1.25 0L4.75 0C5.44036 0 6 0.559644 6 1.25L6 4.75C6 5.44036 5.44036 6 4.75 6L1.25 6C0.559644 6 0 5.44036 0 4.75L0 1.25ZM1.5 1.5L1.5 4.5L4.5 4.5L4.5 1.5L1.5 1.5Z" fill-rule="EVENODD"></path>
  <path d="M8 1.25C8 0.559644 8.55964 0 9.25 0L12.75 0C13.4404 0 14 0.559644 14 1.25L14 4.75C14 5.44036 13.4404 6 12.75 6L9.25 6C8.55964 6 8 5.44036 8 4.75L8 1.25ZM9.5 1.5L9.5 4.5L12.5 4.5L12.5 1.5L9.5 1.5Z" fill-rule="EVENODD"></path>
  <path d="M17.25 0C16.5596 0 16 0.559644 16 1.25L16 4.75C16 5.44036 16.5596 6 17.25 6L20.75 6C21.4404 6 22 5.44036 22 4.75L22 1.25C22 0.559644 21.4404 0 20.75 0L17.25 0ZM17.5 4.5L17.5 1.5L20.5 1.5L20.5 4.5L17.5 4.5Z" fill-rule="EVENODD"></path>
  <path d="M0 9.25C0 8.55964 0.559644 8 1.25 8L4.75 8C5.44036 8 6 8.55964 6 9.25L6 12.75C6 13.4404 5.44036 14 4.75 14L1.25 14C0.559644 14 0 13.4404 0 12.75L0 9.25ZM1.5 9.5L1.5 12.5L4.5 12.5L4.5 9.5L1.5 9.5Z" fill-rule="EVENODD"></path>
  <path d="M9.25 8C8.55964 8 8 8.55964 8 9.25L8 12.75C8 13.4404 8.55964 14 9.25 14L12.75 14C13.4404 14 14 13.4404 14 12.75L14 9.25C14 8.55964 13.4404 8 12.75 8L9.25 8ZM9.5 12.5L9.5 9.5L12.5 9.5L12.5 12.5L9.5 12.5Z" fill-rule="EVENODD"></path>
  <path d="M16 9.25C16 8.55964 16.5596 8 17.25 8L20.75 8C21.4404 8 22 8.55964 22 9.25L22 12.75C22 13.4404 21.4404 14 20.75 14L17.25 14C16.5596 14 16 13.4404 16 12.75L16 9.25ZM17.5 9.5L17.5 12.5L20.5 12.5L20.5 9.5L17.5 9.5Z" fill-rule="EVENODD"></path>
  <path d="M1.25 16C0.559644 16 0 16.5596 0 17.25L0 20.75C0 21.4404 0.559644 22 1.25 22L4.75 22C5.44036 22 6 21.4404 6 20.75L6 17.25C6 16.5596 5.44036 16 4.75 16L1.25 16ZM1.5 20.5L1.5 17.5L4.5 17.5L4.5 20.5L1.5 20.5Z" fill-rule="EVENODD"></path>
  <path d="M8 17.25C8 16.5596 8.55964 16 9.25 16L12.75 16C13.4404 16 14 16.5596 14 17.25L14 20.75C14 21.4404 13.4404 22 12.75 22L9.25 22C8.55964 22 8 21.4404 8 20.75L8 17.25ZM9.5 17.5L9.5 20.5L12.5 20.5L12.5 17.5L9.5 17.5Z" fill-rule="EVENODD"></path>
  <path d="M17.25 16C16.5596 16 16 16.5596 16 17.25L16 20.75C16 21.4404 16.5596 22 17.25 22L20.75 22C21.4404 22 22 21.4404 22 20.75L22 17.25C22 16.5596 21.4404 16 20.75 16L17.25 16ZM17.5 20.5L17.5 17.5L20.5 17.5L20.5 20.5L17.5 20.5Z" fill-rule="EVENODD"></path>
 </g>
</svg>