<svg viewBox="0 0 24 24" width="24" height="24" fill="currentColor" xmlns="http://www.w3.org/2000/svg">
 <g transform="translate(1, 3)">
  <path d="M1.75 0C0.783502 0 0 0.783501 0 1.75L0 14.25C0 15.2165 0.783501 16 1.75 16L6.925 16C9.26687 16 10.25 17.1906 10.25 18.25C10.25 18.6642 10.5858 19 11 19C11.4142 19 11.75 18.6642 11.75 18.25C11.75 17.1906 12.7331 16 15.075 16L20.25 16C21.2165 16 22 15.2165 22 14.25L22 1.75C22 0.783501 21.2165 0 20.25 0L15.1 0C13.4001 0 12.1418 0.504644 11.3234 1.43877C11.2041 1.57487 11.0966 1.71741 11 1.86535C10.9034 1.71741 10.7959 1.57487 10.6766 1.43877C9.85825 0.504644 8.59994 0 6.9 0L1.75 0ZM11.75 15.4428C12.5946 14.8451 13.7462 14.5 15.075 14.5L20.25 14.5C20.3881 14.5 20.5 14.3881 20.5 14.25L20.5 1.75C20.5 1.61193 20.3881 1.5 20.25 1.5L15.1 1.5C13.6999 1.5 12.9082 1.90602 12.4516 2.42723C11.9787 2.96709 11.75 3.76069 11.75 4.75L11.75 15.4428ZM10.25 15.4428L10.25 4.75C10.25 3.76069 10.0213 2.96709 9.54837 2.42723C9.09175 1.90602 8.30006 1.5 6.9 1.5L1.75 1.5C1.61193 1.5 1.5 1.61193 1.5 1.75L1.5 14.25C1.5 14.3881 1.61193 14.5 1.75 14.5L6.925 14.5C8.25379 14.5 9.40541 14.8451 10.25 15.4428Z" fill-rule="EVENODD"></path>
 </g>
</svg>