<svg viewBox="0 0 16 16" width="16" height="16" fill="currentColor" xmlns="http://www.w3.org/2000/svg">
 <g transform="translate(-0.00024413665232714266, 0)">
  <path d="M7.65568 0.0838368C7.87179 -0.0279456 8.1287 -0.0279456 8.34481 0.0838368L15.5948 3.83384C15.8439 3.96265 16.0002 4.21962 16.0002 4.5C16.0002 4.78038 15.8439 5.03735 15.5948 5.16616L8.34481 8.91616C8.1287 9.02795 7.87179 9.02795 7.65568 8.91616L0.405677 5.16616C0.156637 5.03735 0.000244137 4.78038 0.000244137 4.5C0.000244137 4.21962 0.156637 3.96265 0.405677 3.83384L7.65568 0.0838368ZM2.38273 4.5L8.00024 7.40561L13.6178 4.5L8.00024 1.59439L2.38273 4.5Z" fill-rule="EVENODD"></path>
  <path d="M0.0934554 10.8876C0.293553 10.5249 0.749771 10.3931 1.11245 10.5932L8.00014 14.3933L14.8878 10.5932C15.2505 10.3931 15.7067 10.5249 15.9068 10.8876C16.1069 11.2503 15.9751 11.7065 15.6124 11.9066L8.36245 15.9066C8.13693 16.031 7.86335 16.031 7.63783 15.9066L0.387831 11.9066C0.0251545 11.7065 -0.106642 11.2503 0.0934554 10.8876Z" fill-rule="NONZERO"></path>
  <path d="M1.11245 7.09321C0.749771 6.89311 0.293553 7.02491 0.0934554 7.38759C-0.106642 7.75026 0.0251545 8.20648 0.387831 8.40658L7.63783 12.4066C7.86335 12.531 8.13693 12.531 8.36245 12.4066L15.6124 8.40658C15.9751 8.20648 16.1069 7.75026 15.9068 7.38759C15.7067 7.02491 15.2505 6.89311 14.8878 7.09321L8.00014 10.8933L1.11245 7.09321Z" fill-rule="NONZERO"></path>
 </g>
</svg>