<svg viewBox="0 0 24 24" width="24" height="24" fill="currentColor" xmlns="http://www.w3.org/2000/svg">
 <g transform="translate(2, 2)">
  <path d="M0 2.75C0 1.23122 1.23122 0 2.75 0L17.25 0C18.7688 0 20 1.23122 20 2.75L20 17.25C20 18.7688 18.7688 20 17.25 20L2.75 20C1.23122 20 0 18.7688 0 17.25L0 2.75ZM7 18.5L17.25 18.5C17.9404 18.5 18.5 17.9404 18.5 17.25L18.5 7.5L7 7.5L7 18.5ZM5.5 7.5L5.5 18.5L2.75 18.5C2.05964 18.5 1.5 17.9404 1.5 17.25L1.5 7.5L5.5 7.5ZM18.5 6L18.5 2.75C18.5 2.05964 17.9404 1.5 17.25 1.5L2.75 1.5C2.05964 1.5 1.5 2.05964 1.5 2.75L1.5 6L18.5 6Z" fill-rule="EVENODD"></path>
 </g>
</svg>