<svg viewBox="0 0 16 16" width="16" height="16" fill="currentColor" xmlns="http://www.w3.org/2000/svg">
 <g transform="translate(0.25, 0)">
  <path d="M4 6.5C3.58579 6.5 3.25 6.83579 3.25 7.25L3.25 12.75C3.25 13.1642 3.58579 13.5 4 13.5L11.5 13.5C11.8355 13.5 12.1214 13.2792 12.2165 12.9731C12.3394 12.5776 12.7597 12.3566 13.1552 12.4795C13.5508 12.6024 13.7718 13.0227 13.6489 13.4183C13.3644 14.3338 12.511 15 11.5 15L4 15C2.75736 15 1.75 13.9926 1.75 12.75L1.75 7.25C1.75 6.00736 2.75736 5 4 5L5.25 5C5.66421 5 6 5.33579 6 5.75C6 6.16421 5.66421 6.5 5.25 6.5L4 6.5ZM8.5 5.75C8.5 5.33579 8.83579 5 9.25 5L11.5 5C12.7426 5 13.75 6.00736 13.75 7.25L13.75 9.5C13.75 9.91421 13.4142 10.25 13 10.25C12.5858 10.25 12.25 9.91421 12.25 9.5L12.25 7.25C12.25 6.83579 11.9142 6.5 11.5 6.5L9.25 6.5C8.83579 6.5 8.5 6.16421 8.5 5.75Z" fill-rule="EVENODD"></path>
  <path d="M7.75 1.5C7.09317 1.5 6.45929 1.76744 5.9889 2.24989C5.69974 2.54646 5.2249 2.55247 4.92833 2.26331C4.63175 1.97415 4.62574 1.49931 4.9149 1.20274C5.6635 0.434943 6.68292 0 7.75 0C8.81708 0 9.8365 0.434943 10.5851 1.20274C11.3331 1.96988 11.75 3.00641 11.75 4.08333L11.75 5.65625C11.75 6.07046 11.4142 6.40625 11 6.40625C10.5858 6.40625 10.25 6.07046 10.25 5.65625L10.25 4.08333C10.25 3.39215 9.98211 2.73298 9.5111 2.24989C9.04071 1.76744 8.40683 1.5 7.75 1.5Z" fill-rule="EVENODD"></path>
  <path d="M0.21967 0.46967C0.512563 0.176777 0.987437 0.176777 1.28033 0.46967L15.2803 14.4697C15.5732 14.7626 15.5732 15.2374 15.2803 15.5303C14.9874 15.8232 14.5126 15.8232 14.2197 15.5303L0.21967 1.53033C-0.0732233 1.23744 -0.0732233 0.762563 0.21967 0.46967Z" fill-rule="EVENODD"></path>
 </g>
</svg>