<svg viewBox="0 0 24 24" width="24" height="24" fill="currentColor" xmlns="http://www.w3.org/2000/svg">
 <g transform="translate(2, 0)">
  <path d="M9.58496 23.8747C9.58496 23.8747 9.58539 23.875 10 23.25L10.4146 23.875C10.1633 24.0417 9.83623 24.0414 9.58496 23.8747Z" fill-rule="NONZERO"></path>
  <path d="M10 6C7.79086 6 6 7.79086 6 10C6 12.2091 7.79086 14 10 14C12.2091 14 14 12.2091 14 10C14 7.79086 12.2091 6 10 6ZM7.5 10C7.5 8.61929 8.61929 7.5 10 7.5C11.3807 7.5 12.5 8.61929 12.5 10C12.5 11.3807 11.3807 12.5 10 12.5C8.61929 12.5 7.5 11.3807 7.5 10Z" fill-rule="EVENODD"></path>
  <path d="M9.58496 23.8747L10 23.25C10.4146 23.875 10.4157 23.8743 10.4157 23.8743L10.4176 23.873L10.424 23.8687L10.4465 23.8536C10.4658 23.8405 10.4937 23.8216 10.5295 23.7969C10.6011 23.7475 10.7045 23.6753 10.8352 23.5814C11.0965 23.3936 11.4672 23.1189 11.9111 22.7672C12.7976 22.0647 13.9816 21.0504 15.1682 19.8041C17.5102 17.3441 20 13.8369 20 9.95455C20 7.31324 18.9455 4.78087 17.0698 2.91431C15.1941 1.04789 12.651 0 10 0C7.34902 0 4.80588 1.04789 2.93024 2.91431C1.05447 4.78087 0 7.31324 0 9.95455C0 13.8369 2.48976 17.3441 4.83181 19.8041C6.01839 21.0504 7.2024 22.0647 8.0889 22.7672C8.53275 23.1189 8.90355 23.3936 9.16484 23.5814C9.29553 23.6753 9.39893 23.7475 9.47051 23.7969C9.50631 23.8216 9.53415 23.8405 9.55349 23.8536L9.57603 23.8687L9.58239 23.873L9.58496 23.8747ZM3.98828 3.97758C5.58206 2.39164 7.74447 1.5 10 1.5C12.2555 1.5 14.4179 2.39164 16.0117 3.97758C17.6054 5.56341 18.5 7.71346 18.5 9.95455C18.5 13.2312 16.3648 16.3718 14.0818 18.7698C12.9559 19.9524 11.8274 20.9197 10.9795 21.5915C10.5789 21.909 10.2422 22.1594 10 22.3343C9.75775 22.1594 9.42113 21.909 9.02047 21.5915C8.1726 20.9197 7.04411 19.9524 5.91819 18.7698C3.63524 16.3718 1.5 13.2312 1.5 9.95455C1.5 7.71346 2.39463 5.56341 3.98828 3.97758Z" fill-rule="EVENODD"></path>
 </g>
</svg>