<svg viewBox="0 0 24 24" width="24" height="24" fill="currentColor" xmlns="http://www.w3.org/2000/svg">
 <g transform="translate(2, 2)">
  <path d="M4 4.75C4 4.33579 4.33579 4 4.75 4L14.75 4C15.1642 4 15.5 4.33579 15.5 4.75C15.5 5.16421 15.1642 5.5 14.75 5.5L4.75 5.5C4.33579 5.5 4 5.16421 4 4.75Z" fill-rule="NONZERO"></path>
  <path d="M4 7.75C4 7.33579 4.33579 7 4.75 7L9.75 7C10.1642 7 10.5 7.33579 10.5 7.75C10.5 8.16421 10.1642 8.5 9.75 8.5L4.75 8.5C4.33579 8.5 4 8.16421 4 7.75Z" fill-rule="NONZERO"></path>
  <path d="M4 10.75C4 10.3358 4.33579 10 4.75 10L11.75 10C12.1642 10 12.5 10.3358 12.5 10.75C12.5 11.1642 12.1642 11.5 11.75 11.5L4.75 11.5C4.33579 11.5 4 11.1642 4 10.75Z" fill-rule="NONZERO"></path>
  <path d="M17.25 0C18.7688 0 20 1.23122 20 2.75L20 13.25C20 14.7688 18.7688 16 17.25 16L6.26038 16C5.96728 16 5.68349 16.103 5.45862 16.291L1.23106 19.8254C1.00762 20.0122 0.696257 20.0528 0.432425 19.9294C0.168592 19.8061 0 19.5412 0 19.25L0 2.75C0 1.23122 1.23122 0 2.75 0L17.25 0ZM18.5 2.75C18.5 2.05964 17.9404 1.5 17.25 1.5L2.75 1.5C2.05964 1.5 1.5 2.05964 1.5 2.75L1.5 17.6454L4.49651 15.1402C4.99123 14.7266 5.61555 14.5 6.26038 14.5L17.25 14.5C17.9404 14.5 18.5 13.9404 18.5 13.25L18.5 2.75Z" fill-rule="EVENODD"></path>
 </g>
</svg>