<svg viewBox="0 0 16 16" width="16" height="16" fill="currentColor" xmlns="http://www.w3.org/2000/svg">
 <g transform="translate(2.5, 0)">
  <path d="M5.5 0C4.71922 0 3.96157 0.290571 3.39583 0.821388C2.82847 1.35372 2.5 2.08632 2.5 2.86111L2.5 8.13889C2.5 8.91368 2.82847 9.64628 3.39583 10.1786C3.96157 10.7094 4.71922 11 5.5 11C6.28078 11 7.03843 10.7094 7.60417 10.1786C8.17153 9.64628 8.5 8.91368 8.5 8.13889L8.5 2.86111C8.5 2.08632 8.17153 1.35372 7.60417 0.821388C7.03843 0.290571 6.28078 0 5.5 0ZM4.42219 1.91527C4.70036 1.65427 5.0873 1.5 5.5 1.5C5.9127 1.5 6.29964 1.65427 6.57781 1.91527C6.85437 2.17476 7 2.5161 7 2.86111L7 8.13889C7 8.4839 6.85437 8.82524 6.57781 9.08473C6.29963 9.34573 5.9127 9.5 5.5 9.5C5.0873 9.5 4.70037 9.34573 4.42219 9.08473C4.14563 8.82524 4 8.4839 4 8.13889L4 2.86111C4 2.5161 4.14563 2.17476 4.42219 1.91527Z" fill-rule="EVENODD"></path>
  <path d="M1.5 6.75C1.5 6.33579 1.16421 6 0.75 6C0.335786 6 0 6.33579 0 6.75L0 8.13461C0 9.56467 0.584859 10.9316 1.61859 11.9361C2.47214 12.7654 3.57392 13.292 4.75 13.4499L4.75 14.5L3 14.5C2.58579 14.5 2.25 14.8358 2.25 15.25C2.25 15.6642 2.58579 16 3 16L8 16C8.41421 16 8.75 15.6642 8.75 15.25C8.75 14.8358 8.41421 14.5 8 14.5L6.25 14.5L6.25 13.4499C7.42608 13.292 8.52786 12.7654 9.38141 11.9361C10.4151 10.9316 11 9.56467 11 8.13461L11 6.75C11 6.33579 10.6642 6 10.25 6C9.83579 6 9.5 6.33579 9.5 6.75L9.5 8.13461C9.5 9.15271 9.08397 10.1336 8.3361 10.8603C7.5875 11.5877 6.56771 12 5.5 12C4.43229 12 3.41249 11.5877 2.6639 10.8603C1.91603 10.1336 1.5 9.15271 1.5 8.13461L1.5 6.75Z" fill-rule="NONZERO"></path>
 </g>
</svg>