<svg viewBox="0 0 24 24" width="24" height="24" fill="currentColor" xmlns="http://www.w3.org/2000/svg">
 <g transform="translate(10, 3.5)">
  <path d="M2 0C0.89543 0 0 0.89543 0 2C0 3.10457 0.895431 4 2 4C3.10457 4 4 3.10457 4 2C4 0.895431 3.10457 0 2 0Z" fill-rule="NONZERO"></path>
  <path d="M2 6.5C0.89543 6.5 0 7.39543 0 8.5C0 9.60457 0.895431 10.5 2 10.5C3.10457 10.5 4 9.60457 4 8.5C4 7.39543 3.10457 6.5 2 6.5Z" fill-rule="NONZERO"></path>
  <path d="M2 13C0.89543 13 0 13.8954 0 15C0 16.1046 0.895431 17 2 17C3.10457 17 4 16.1046 4 15C4 13.8954 3.10457 13 2 13Z" fill-rule="NONZERO"></path>
 </g>
</svg>