<svg viewBox="0 0 24 24" width="24" height="24" fill="currentColor" xmlns="http://www.w3.org/2000/svg">
 <g transform="translate(2, 2)">
  <path d="M1.03845 0.0577022C0.757921 -0.0591732 0.434586 0.0047975 0.219692 0.219692C0.0047975 0.434586 -0.0591732 0.757921 0.0577022 1.03845L7.34851 18.5385C7.4685 18.8265 7.75425 19.0101 8.06607 18.9996C8.37789 18.9891 8.65065 18.7866 8.75099 18.4912L10.9516 12.0122L16.7197 17.7803C17.0126 18.0732 17.4874 18.0732 17.7803 17.7803C18.0732 17.4874 18.0732 17.0126 17.7803 16.7197L12.0122 10.9516L18.4912 8.75099C18.7866 8.65065 18.9891 8.37789 18.9996 8.06607C19.0101 7.75425 18.8265 7.4685 18.5385 7.34851L1.03845 0.0577022ZM7.96938 16.1283L2.14274 2.14274L16.1283 7.96938L10.388 9.91907C10.1673 9.99402 9.99402 10.1673 9.91907 10.388L7.96938 16.1283Z" fill-rule="EVENODD"></path>
 </g>
</svg>