<svg viewBox="0 0 24 24" width="24" height="24" fill="currentColor" xmlns="http://www.w3.org/2000/svg">
 <g transform="translate(1, 5.999998092651367)">
  <path d="M22 6C22 5.79504 21.9161 5.59901 21.7679 5.45748L16.2679 0.207484C15.9682 -0.0785198 15.4935 -0.0674791 15.2075 0.232144C14.9215 0.531768 14.9325 1.00651 15.2321 1.29252L20.1638 6L15.2321 10.7075C14.9325 10.9935 14.9215 11.4682 15.2075 11.7679C15.4935 12.0675 15.9682 12.0785 16.2679 11.7925L21.7679 6.54252C21.9161 6.401 22 6.20496 22 6Z" fill-rule="NONZERO"></path>
  <path d="M0 6C0 5.79504 0.0838826 5.59901 0.232143 5.45748L5.73214 0.207485C6.03177 -0.0785198 6.50651 -0.0674791 6.79252 0.232144C7.07852 0.531769 7.06748 1.00651 6.76786 1.29252L1.83621 6L6.76786 10.7075C7.06748 10.9935 7.07852 11.4682 6.79252 11.7679C6.50651 12.0675 6.03177 12.0785 5.73214 11.7925L0.232143 6.54252C0.0838826 6.401 0 6.20496 0 6Z" fill-rule="NONZERO"></path>
  <path d="M7 5C6.44772 5 6 5.44772 6 6C6 6.55229 6.44772 7 7 7L7.01 7C7.56228 7 8.01 6.55229 8.01 6C8.01 5.44772 7.56228 5 7.01 5L7 5Z" fill-rule="NONZERO"></path>
  <path d="M10 6C10 5.44772 10.4477 5 11 5L11.01 5C11.5623 5 12.01 5.44772 12.01 6C12.01 6.55229 11.5623 7 11.01 7L11 7C10.4477 7 10 6.55229 10 6Z" fill-rule="NONZERO"></path>
  <path d="M15 5C14.4477 5 14 5.44772 14 6C14 6.55229 14.4477 7 15 7L15.01 7C15.5623 7 16.01 6.55229 16.01 6C16.01 5.44772 15.5623 5 15.01 5L15 5Z" fill-rule="NONZERO"></path>
 </g>
</svg>