<svg viewBox="0 0 16 16" width="16" height="16" fill="currentColor" xmlns="http://www.w3.org/2000/svg">
 <g transform="translate(0.5, 0.012276828289031982)">
  <path d="M8.8874 2.08931C9.66307 1.30356 10.9751 1.30356 11.7508 2.08931C12.5265 2.87505 12.5 4.26827 11.7508 5.01745C11.0016 5.76664 5.36138 11.4828 5.36138 11.4828C5.12037 11.727 4.70442 11.727 4.46341 11.4828C4.21601 11.2322 4.21622 10.7964 4.46341 10.5457L10.3594 4.58009C10.6506 4.28549 10.6478 3.81062 10.3532 3.51945C10.0586 3.22828 9.58375 3.23106 9.29258 3.52567L3.39593 9.49186C2.57173 10.3268 2.57173 11.7017 3.39593 12.5366C4.22416 13.3756 5.60051 13.3754 6.42886 12.5366L12.8183 6.07125C14.1783 4.69353 14.1783 2.41323 12.8183 1.03551C11.4553 -0.345171 9.1829 -0.345171 7.81992 1.03551L1.43743 7.50089C0.515966 8.43432 0 9.69829 0 11.0142C0 12.3302 0.515967 13.5942 1.43743 14.5276C2.35922 15.4613 3.6115 15.9877 4.91934 15.9877C6.22718 15.9877 7.47946 15.4613 8.40125 14.5276L14.7837 8.06222C15.0747 7.76744 15.0717 7.29258 14.7769 7.00158C14.4821 6.71058 14.0073 6.71364 13.7163 7.00842L7.33377 13.4738C6.69175 14.1242 5.82306 14.4877 4.91934 14.4877C4.01562 14.4877 3.14693 14.1242 2.50491 13.4738C1.86257 12.8231 1.5 11.9386 1.5 11.0142C1.5 10.0899 1.86257 9.20537 2.50491 8.55468L8.8874 2.08931Z" fill-rule="NONZERO"></path>
 </g>
</svg>