<svg viewBox="0 0 24 24" width="24" height="24" fill="currentColor" xmlns="http://www.w3.org/2000/svg">
 <g transform="translate(7.5, 4.5)">
  <path d="M1.5 0.75C1.5 0.335786 1.16421 0 0.75 0C0.335786 0 0 0.335786 0 0.75L0 14.25C0 14.6642 0.335786 15 0.75 15C1.16421 15 1.5 14.6642 1.5 14.25L1.5 0.75Z" fill-rule="NONZERO"></path>
  <path d="M9 0.75C9 0.335786 8.66421 0 8.25 0C7.83579 0 7.5 0.335786 7.5 0.75L7.5 14.25C7.5 14.6642 7.83579 15 8.25 15C8.66421 15 9 14.6642 9 14.25L9 0.75Z" fill-rule="NONZERO"></path>
 </g>
</svg>