<svg viewBox="0 0 24 24" width="24" height="24" fill="currentColor" xmlns="http://www.w3.org/2000/svg">
 <g transform="translate(3.25, 4.07861328125)">
  <path d="M15.6946 0.805456C14.6206 -0.268486 12.8794 -0.268484 11.8055 0.805457L2.80025 9.81069C2.34538 10.2656 1.98765 10.8081 1.74874 11.4053L0.0536643 15.643C-0.0577607 15.9216 0.00754483 16.2398 0.219692 16.4519C0.431839 16.664 0.750002 16.7294 1.02856 16.6179L5.26626 14.9229C5.86352 14.6839 6.40604 14.3262 6.86091 13.8713L15.8661 4.86612C16.9401 3.79217 16.9401 2.05097 15.8661 0.977028L15.6946 0.805456ZM12.8661 1.86612C13.3543 1.37796 14.1458 1.37796 14.6339 1.86612L14.8055 2.03769C15.2936 2.52584 15.2936 3.3173 14.8055 3.80546L14.2501 4.36083L12.3108 2.42149L12.8661 1.86612ZM11.2501 3.48215L3.86091 10.8713C3.54968 11.1826 3.30492 11.5538 3.14146 11.9624L2.09631 14.5753L4.70917 13.5301C5.11783 13.3667 5.48902 13.1219 5.80025 12.8107L13.1894 5.42149L11.2501 3.48215Z" fill-rule="EVENODD"></path>
 </g>
</svg>