<svg viewBox="0 0 24 24" width="24" height="24" fill="currentColor" xmlns="http://www.w3.org/2000/svg">
 <g transform="translate(1, 1)">
  <path d="M10.75 0C10.5511 0 10.3603 0.0790176 10.2197 0.21967C10.079 0.360322 10 0.551088 10 0.75L10 11.25C10 11.6642 10.3358 12 10.75 12L21.25 12C21.6642 12 22 11.6642 22 11.25C22 9.77263 21.709 8.30972 21.1436 6.94481C20.5783 5.5799 19.7496 4.33971 18.705 3.29505C17.6603 2.25039 16.4201 1.42172 15.0552 0.856355C13.6903 0.29099 12.2274 0 10.75 0ZM11.5 10.5L11.5 1.52889C12.5235 1.60786 13.5298 1.84812 14.4812 2.24217C15.6641 2.73216 16.7389 3.45034 17.6443 4.35571C18.5497 5.26108 19.2678 6.33591 19.7578 7.51884C20.1519 8.47018 20.3921 9.47645 20.4711 10.5L11.5 10.5Z" fill-rule="EVENODD"></path>
  <path d="M7.07917 2.3443C7.45637 2.17315 7.62341 1.72862 7.45225 1.35142C7.2811 0.974219 6.83658 0.807184 6.45938 0.978335C2.65112 2.7063 0 6.54286 0 11.0002C0 17.0753 4.92487 22.0002 11 22.0002C15.4574 22.0002 19.2939 19.3491 21.0219 15.5408C21.193 15.1636 21.026 14.7191 20.6488 14.548C20.2716 14.3768 19.8271 14.5438 19.6559 14.921C18.1622 18.2131 14.8474 20.5002 11 20.5002C5.75329 20.5002 1.5 16.2469 1.5 11.0002C1.5 7.15282 3.78715 3.83803 7.07917 2.3443Z" fill-rule="NONZERO"></path>
 </g>
</svg>