<svg viewBox="0 0 16 16" width="16" height="16" fill="currentColor" xmlns="http://www.w3.org/2000/svg">
 <g transform="translate(0, 2.25)">
  <path d="M3.41001 0.226273C3.69925 0.522768 3.69338 0.997605 3.39688 1.28685C2.18003 2.47396 1.5 4.07974 1.5 5.75C1.5 7.42026 2.18003 9.02604 3.39688 10.2131C3.69338 10.5024 3.69925 10.9772 3.41001 11.2737C3.12076 11.5702 2.64592 11.5761 2.34943 11.2869C0.847369 9.82151 0 7.8303 0 5.75C0 3.6697 0.847369 1.67849 2.34943 0.213149C2.64592 -0.0760979 3.12076 -0.0702219 3.41001 0.226273Z" fill-rule="NONZERO"></path>
  <path d="M12.59 0.226273C12.8792 -0.0702219 13.3541 -0.0760979 13.6506 0.213149C15.1526 1.67849 16 3.6697 16 5.75C16 7.8303 15.1526 9.82151 13.6506 11.2869C13.3541 11.5761 12.8792 11.5702 12.59 11.2737C12.3007 10.9772 12.3066 10.5024 12.6031 10.2131C13.82 9.02604 14.5 7.42026 14.5 5.75C14.5 4.07974 13.82 2.47396 12.6031 1.28685C12.3066 0.997605 12.3007 0.522768 12.59 0.226273Z" fill-rule="NONZERO"></path>
  <path d="M7 5.75C7 5.19772 7.44772 4.75 8 4.75L8.01 4.75C8.56228 4.75 9.01 5.19772 9.01 5.75C9.01 6.30228 8.56228 6.75 8.01 6.75L8 6.75C7.44772 6.75 7 6.30228 7 5.75Z" fill-rule="NONZERO"></path>
  <path d="M5.86358 3.79645C6.16538 3.51274 6.18004 3.03809 5.89632 2.73629C5.61261 2.4345 5.13796 2.41984 4.83617 2.70355C4.4158 3.09874 4.07972 3.57051 3.8495 4.09318C3.61922 4.61599 3.5 5.17814 3.5 5.74706C3.5 6.31598 3.61922 6.87813 3.8495 7.40094C4.07972 7.92361 4.4158 8.39539 4.83617 8.79057C5.13796 9.07428 5.61261 9.05962 5.89632 8.75783C6.18004 8.45603 6.16538 7.98139 5.86358 7.69767C5.58659 7.43728 5.36946 7.13055 5.22223 6.79629C5.07506 6.46217 5 6.10578 5 5.74706C5 5.38835 5.07506 5.03195 5.22223 4.69783C5.36946 4.36358 5.5866 4.05684 5.86358 3.79645Z" fill-rule="NONZERO"></path>
  <path d="M11.1638 2.70944C10.862 2.42572 10.3874 2.44038 10.1037 2.74218C9.81996 3.04397 9.83462 3.51862 10.1364 3.80233C10.4134 4.06273 10.6305 4.36946 10.7778 4.70371C10.9249 5.03783 11 5.39423 11 5.75294C11 6.11166 10.9249 6.46805 10.7778 6.80217C10.6305 7.13643 10.4134 7.44316 10.1364 7.70356C9.83462 7.98727 9.81996 8.46192 10.1037 8.76371C10.3874 9.0655 10.862 9.08016 11.1638 8.79645C11.5842 8.40127 11.9203 7.92949 12.1505 7.40682C12.3808 6.88402 12.5 6.32187 12.5 5.75294C12.5 5.18402 12.3808 4.62187 12.1505 4.09907C11.9203 3.57639 11.5842 3.10462 11.1638 2.70944Z" fill-rule="NONZERO"></path>
 </g>
</svg>