<svg viewBox="0 0 16 16" width="16" height="16" fill="currentColor" xmlns="http://www.w3.org/2000/svg">
 <g transform="translate(0.875, 1.28076171875)">
  <path d="M8.90533 5.99957C9.19822 5.70668 9.19822 5.2318 8.90533 4.93891C8.61244 4.64602 8.13756 4.64602 7.84467 4.93891L7.34467 5.43891C7.05178 5.7318 7.05178 6.20668 7.34467 6.49957C7.63756 6.79246 8.11244 6.79246 8.40533 6.49957L8.90533 5.99957Z" fill-rule="NONZERO"></path>
  <path d="M11.7517 0.0386011C12.9801 -0.220405 14.0646 0.864035 13.8056 2.0925C13.5358 3.37205 13.1198 5.2824 12.7026 6.95108C12.5908 7.3985 12.387 7.80597 12.1238 8.17551C12.1246 8.18994 12.125 8.20447 12.125 8.21911L12.125 10.6603C12.125 11.268 11.8097 11.8322 11.2922 12.1507L9.27086 13.3946C8.5185 13.8576 7.53904 13.6872 6.98717 12.9974L5.71779 11.4107C5.24761 11.2484 4.86004 10.8935 4.63664 10.4933C4.48925 10.2293 4.30616 9.96099 4.09468 9.74951C3.88319 9.53802 3.61492 9.35493 3.3509 9.20754C2.95079 8.98418 2.59597 8.59672 2.43359 8.12667L0.846584 6.85707C0.156755 6.3052 -0.013596 5.32574 0.449398 4.57337L1.69328 2.55207C2.01178 2.03451 2.57597 1.71924 3.18368 1.71924L5.62489 1.71924C5.63955 1.71924 5.65412 1.71966 5.66858 1.72049C6.03815 1.45721 6.44565 1.25343 6.8931 1.14157C8.56178 0.724399 10.4721 0.308379 11.7517 0.0386011ZM6.32227 9.99546C6.26756 9.9806 6.21136 9.97197 6.15482 9.96969C6.07948 9.93142 6.00085 9.8597 5.94637 9.76212C5.75901 9.4265 5.49777 9.03128 5.15533 8.68884C4.8129 8.34641 4.41768 8.08517 4.08206 7.89781C3.9843 7.84324 3.91251 7.76441 3.87428 7.68896C3.87198 7.63268 3.86339 7.57674 3.84861 7.52228L3.851 7.51439C4.10602 6.73365 4.5446 5.5729 5.15833 4.55673C5.79237 3.50691 6.51054 2.78337 7.25691 2.59678C8.89826 2.18644 10.7871 1.77496 12.0611 1.50633C12.2291 1.47091 12.3733 1.61505 12.3378 1.78304C12.0692 3.05711 11.6577 4.94592 11.2474 6.58727C11.0608 7.33364 10.3373 8.05181 9.28745 8.68585C8.27128 9.29958 7.11054 9.73816 6.32979 9.99318C6.32732 9.99399 6.32482 9.99475 6.32227 9.99546ZM7.46093 11.1884L8.15848 12.0604C8.23731 12.1589 8.37724 12.1833 8.48472 12.1171L10.506 10.8732C10.58 10.8277 10.625 10.7471 10.625 10.6603L10.625 9.60462C10.4389 9.73513 10.2501 9.85678 10.0629 9.96985C9.18339 10.501 8.23082 10.906 7.46093 11.1884ZM1.78363 5.68576L2.65569 6.38341C2.93812 5.61349 3.3431 4.66085 3.87433 3.78126C3.98738 3.59407 4.10903 3.40535 4.23952 3.21924L3.18368 3.21924C3.09687 3.21924 3.01627 3.26428 2.97077 3.33821L1.72689 5.35952C1.66074 5.467 1.68508 5.60692 1.78363 5.68576Z" fill-rule="EVENODD"></path>
  <path d="M3.56694 10.2773C3.81102 10.5214 3.81102 10.9171 3.56694 11.1612L1.56694 13.1612C1.32286 13.4053 0.927136 13.4053 0.683058 13.1612C0.438981 12.9171 0.438981 12.5214 0.683058 12.2773L2.68306 10.2773C2.92714 10.0332 3.32286 10.0332 3.56694 10.2773Z" fill-rule="NONZERO"></path>
  <path d="M1.81694 9.0273C2.06102 9.27137 2.06102 9.6671 1.81694 9.91118L1.06694 10.6612C0.822864 10.9053 0.427136 10.9053 0.183058 10.6612C-0.0610194 10.4171 -0.0610194 10.0214 0.183058 9.7773L0.933058 9.0273C1.17714 8.78322 1.57286 8.78322 1.81694 9.0273Z" fill-rule="NONZERO"></path>
  <path d="M4.81694 12.9112C5.06102 12.6671 5.06102 12.2714 4.81694 12.0273C4.57286 11.7832 4.17714 11.7832 3.93306 12.0273L3.18306 12.7773C2.93898 13.0214 2.93898 13.4171 3.18306 13.6612C3.42714 13.9053 3.82286 13.9053 4.06694 13.6612L4.81694 12.9112Z" fill-rule="NONZERO"></path>
 </g>
</svg>