<svg viewBox="0 0 16 16" width="16" height="16" fill="currentColor" xmlns="http://www.w3.org/2000/svg">
 <g transform="translate(1, 0)">
  <path d="M1 0.75C1 0.335786 1.33579 0 1.75 0C2.16421 0 2.5 0.335786 2.5 0.75L2.5 2.63794C3.71634 1.61627 5.28667 1 7 1C10.866 1 14 4.13401 14 8C14 11.866 10.866 15 7 15C3.13401 15 0 11.866 0 8C0 7.58579 0.335787 7.25 0.75 7.25C1.16421 7.25 1.5 7.58579 1.5 8C1.5 11.0376 3.96243 13.5 7 13.5C10.0376 13.5 12.5 11.0376 12.5 8C12.5 4.96243 10.0376 2.5 7 2.5C5.53832 2.5 4.21073 3.06933 3.22505 4L5.75 4C6.16421 4 6.5 4.33579 6.5 4.75C6.5 5.16421 6.16421 5.5 5.75 5.5L1.75 5.5C1.33579 5.5 1 5.16421 1 4.75L1 0.75Z" fill-rule="NONZERO"></path>
 </g>
</svg>