<svg viewBox="0 0 16 16" width="16" height="16" fill="currentColor" xmlns="http://www.w3.org/2000/svg">
 <g transform="translate(1, 1)">
  <path d="M0 2.25C0 1.00736 1.00736 0 2.25 0L9.12868 0C9.72542 0 10.2977 0.237053 10.7197 0.65901L13.341 3.28033C13.7629 3.70229 14 4.27458 14 4.87132L14 11.75C14 12.9926 12.9926 14 11.75 14L2.25 14C1.00736 14 0 12.9926 0 11.75L0 2.25ZM2.25 1.5C1.83579 1.5 1.5 1.83579 1.5 2.25L1.5 11.75C1.5 12.1642 1.83579 12.5 2.25 12.5L3.05005 12.5L3.05005 8.2498C3.05005 7.58706 3.58731 7.0498 4.25005 7.0498L9.75005 7.0498C10.4128 7.0498 10.95 7.58706 10.95 8.2498L10.95 12.5L11.75 12.5C12.1642 12.5 12.5 12.1642 12.5 11.75L12.5 4.87132C12.5 4.67241 12.421 4.48164 12.2803 4.34099L9.65901 1.71967C9.51836 1.57902 9.32759 1.5 9.12868 1.5L4.45005 1.5L4.45005 3.5498L8.25005 3.5498C8.63665 3.5498 8.95005 3.86321 8.95005 4.2498C8.95005 4.6364 8.63665 4.9498 8.25005 4.9498L4.25005 4.9498C3.58731 4.9498 3.05005 4.41255 3.05005 3.7498L3.05005 1.5L2.25 1.5ZM9.55005 12.5L4.45005 12.5L4.45005 8.4498L9.55005 8.4498L9.55005 12.5Z" fill-rule="EVENODD"></path>
 </g>
</svg>