<svg viewBox="0 0 16 16" width="16" height="16" fill="currentColor" xmlns="http://www.w3.org/2000/svg">
 <g transform="translate(1, 1)">
  <path d="M0 3C0 1.34315 1.34315 0 3 0C4.65685 0 6 1.34315 6 3C6 3.55642 5.84852 4.07746 5.58455 4.52412L6.9999 5.93931L11.803 1.13617C12.0959 0.843281 12.5708 0.84328 12.8637 1.13617C13.1566 1.42907 13.1566 1.90394 12.8637 2.19683L7.53835 7.52219C7.53571 7.52491 7.53305 7.52761 7.53036 7.53029C7.52765 7.533 7.52493 7.53569 7.52219 7.53835L5.58459 9.47595C5.84854 9.9226 6 10.4436 6 11C6 12.6569 4.65685 14 3 14C1.34315 14 0 12.6569 0 11C0 9.34315 1.34315 8 3 8C3.55632 8 4.07728 8.15143 4.5239 8.41532L5.93924 6.99997L4.52383 5.58472C4.07722 5.84859 3.55629 6 3 6C1.34315 6 0 4.65685 0 3ZM3 1.5C2.17157 1.5 1.5 2.17157 1.5 3C1.5 3.82843 2.17157 4.5 3 4.5C3.82843 4.5 4.5 3.82843 4.5 3C4.5 2.17157 3.82843 1.5 3 1.5ZM3 9.5C2.17157 9.5 1.5 10.1716 1.5 11C1.5 11.8284 2.17157 12.5 3 12.5C3.82843 12.5 4.5 11.8284 4.5 11C4.5 10.1716 3.82843 9.5 3 9.5Z" fill-rule="EVENODD"></path>
  <path d="M8.11592 8.12347C8.40855 7.83031 8.88342 7.82988 9.17658 8.12251L12.8632 11.8025C13.1564 12.0951 13.1568 12.57 12.8642 12.8632C12.5716 13.1563 12.0967 13.1568 11.8035 12.8641L8.11688 9.18413C7.82372 8.8915 7.82329 8.41663 8.11592 8.12347Z" fill-rule="NONZERO"></path>
 </g>
</svg>