<svg viewBox="0 0 24 24" width="24" height="24" fill="currentColor" xmlns="http://www.w3.org/2000/svg">
 <g transform="translate(2.1190185546875, 2.68359375)">
  <path d="M19.0858 2.35877C19.6019 0.957879 18.2396 -0.404433 16.8387 0.111686L1.14538 5.89343C-0.173274 6.37925 -0.410344 8.14275 0.733197 8.95956L6.2437 12.8956C6.26614 12.9117 6.28578 12.9313 6.30182 12.9538L10.2379 18.4643C11.0547 19.6078 12.8182 19.3707 13.304 18.0521L19.0858 2.35877ZM17.3572 1.5192C17.5574 1.44547 17.752 1.64008 17.6782 1.84021L11.8965 17.5335C11.8271 17.7219 11.5752 17.7558 11.4585 17.5924L7.79481 12.4632L13.4113 6.84674C13.7042 6.55384 13.7042 6.07897 13.4113 5.78608C13.1184 5.49318 12.6435 5.49318 12.3507 5.78608L6.73414 11.4026L1.60505 7.73896C1.44169 7.62227 1.47556 7.37035 1.66394 7.30094L17.3572 1.5192Z" fill-rule="EVENODD"></path>
 </g>
</svg>