<svg viewBox="0 0 24 24" width="24" height="24" fill="currentColor" xmlns="http://www.w3.org/2000/svg">
 <g transform="translate(0.5, 0.5)">
  <path d="M4.5 17.25C4.5 16.8358 4.83579 16.5 5.25 16.5L5.75 16.5C6.16421 16.5 6.5 16.8358 6.5 17.25C6.5 17.6642 6.16421 18 5.75 18L5.25 18C4.83579 18 4.5 17.6642 4.5 17.25Z" fill-rule="NONZERO"></path>
  <path d="M1.28033 0.21967C0.987437 -0.0732233 0.512563 -0.0732233 0.21967 0.21967C-0.0732233 0.512563 -0.0732233 0.987437 0.21967 1.28033L0.848599 1.90926C0.626766 2.30591 0.5 2.76344 0.5 3.25L0.5 7.75C0.5 9.26878 1.73122 10.5 3.25 10.5L9.43934 10.5L11.4393 12.5L3.25 12.5C1.73122 12.5 0.5 13.7312 0.5 15.25L0.5 19.75C0.5 21.2688 1.73122 22.5 3.25 22.5L19.75 22.5C20.2363 22.5 20.6939 22.3733 21.0907 22.1514L21.7197 22.7803C22.0126 23.0732 22.4874 23.0732 22.7803 22.7803C23.0732 22.4874 23.0732 22.0126 22.7803 21.7197L2.36618 1.30552L1.28033 0.21967ZM2.01237 3.07303C2.00421 3.13081 2 3.18989 2 3.25L2 7.75C2 8.44036 2.55964 9 3.25 9L7.93934 9L2.01237 3.07303ZM19.927 20.9876L12.9393 14L3.25 14C2.55964 14 2 14.5596 2 15.25L2 19.75C2 20.4404 2.55964 21 3.25 21L19.75 21C19.8101 21 19.8692 20.9958 19.927 20.9876Z" fill-rule="EVENODD"></path>
  <path d="M5.5 0.5C5.08579 0.5 4.75 0.835786 4.75 1.25C4.75 1.66421 5.08579 2 5.5 2L19.75 2C20.4404 2 21 2.55964 21 3.25L21 7.75C21 8.44036 20.4404 9 19.75 9L14 9C13.5858 9 13.25 9.33579 13.25 9.75C13.25 10.1642 13.5858 10.5 14 10.5L19.75 10.5C21.2688 10.5 22.5 9.26878 22.5 7.75L22.5 3.25C22.5 1.73122 21.2688 0.5 19.75 0.5L5.5 0.5Z" fill-rule="NONZERO"></path>
  <path d="M17.5 12.5C17.0858 12.5 16.75 12.8358 16.75 13.25C16.75 13.6642 17.0858 14 17.5 14L19.75 14C20.4404 14 21 14.5596 21 15.25L21 17.5C21 17.9142 21.3358 18.25 21.75 18.25C22.1642 18.25 22.5 17.9142 22.5 17.5L22.5 15.25C22.5 13.7312 21.2688 12.5 19.75 12.5L17.5 12.5Z" fill-rule="NONZERO"></path>
 </g>
</svg>