<svg viewBox="0 0 24 24" width="24" height="24" fill="currentColor" xmlns="http://www.w3.org/2000/svg">
 <g transform="translate(3, 1.13427734375)">
  <path d="M9 5.86572C9.41421 5.86572 9.75 6.20151 9.75 6.61572L9.75 11.1157C9.75 11.5299 9.41421 11.8657 9 11.8657C8.58579 11.8657 8.25 11.5299 8.25 11.1157L8.25 6.61572C8.25 6.20151 8.58579 5.86572 9 5.86572Z" fill-rule="NONZERO"></path>
  <path d="M9 13.8657C8.44771 13.8657 8 14.3134 8 14.8657C8 15.418 8.44771 15.8657 9 15.8657L9.01 15.8657C9.56228 15.8657 10.01 15.418 10.01 14.8657C10.01 14.3134 9.56228 13.8657 9.01 13.8657L9 13.8657Z" fill-rule="NONZERO"></path>
  <path d="M8.03955 0.173174C8.65903 -0.0577248 9.34097 -0.0577249 9.96045 0.173174L16.2105 2.50272C17.2865 2.90378 18 3.93122 18 5.07954L18 10.8656C18 13.5976 16.5385 15.9041 14.8963 17.6401C13.2467 19.3838 11.3341 20.6392 10.2467 21.2815C9.4723 21.7389 8.5277 21.7389 7.75332 21.2815C6.66594 20.6392 4.75328 19.3838 3.10373 17.6401C1.46155 15.9041 0 13.5976 0 10.8656L0 5.07955C0 3.93122 0.713529 2.90378 1.78955 2.50272L8.03955 0.173174ZM9.43657 1.57872C9.15499 1.47376 8.84501 1.47376 8.56343 1.57872L2.31343 3.90826C1.82433 4.09056 1.5 4.55758 1.5 5.07955L1.5 10.8656C1.5 13.0479 2.67243 15.0014 4.19343 16.6093C5.70705 18.2094 7.48677 19.3819 8.5162 19.99C8.81997 20.1694 9.18003 20.1694 9.4838 19.99C10.5132 19.3819 12.2929 18.2094 13.8066 16.6093C15.3276 15.0014 16.5 13.0479 16.5 10.8656L16.5 5.07954C16.5 4.55758 16.1757 4.09056 15.6866 3.90826L9.43657 1.57872Z" fill-rule="EVENODD"></path>
 </g>
</svg>