<svg viewBox="0 0 16 16" width="16" height="16" fill="currentColor" xmlns="http://www.w3.org/2000/svg">
 <g transform="translate(1, 0.08837890625)">
  <path d="M6 10.9116C6 10.3593 6.44772 9.91162 7 9.91162L7.00667 9.91162C7.55895 9.91162 8.00667 10.3593 8.00667 10.9116C8.00667 11.4639 7.55895 11.9116 7.00667 11.9116L7 11.9116C6.44772 11.9116 6 11.4639 6 10.9116Z" fill-rule="NONZERO"></path>
  <path d="M7.75 4.66162C7.75 4.24741 7.41421 3.91162 7 3.91162C6.58579 3.91162 6.25 4.24741 6.25 4.66162L6.25 8.16162C6.25 8.57583 6.58579 8.91162 7 8.91162C7.41421 8.91162 7.75 8.57583 7.75 8.16162L7.75 4.66162Z" fill-rule="NONZERO"></path>
  <path d="M6.2605 0.124997C6.73941 -0.0416658 7.26059 -0.0416655 7.7395 0.124997L12.4895 1.778C13.3939 2.09273 14 2.9454 14 3.903L14 7.91177C14 9.96033 12.8189 11.6597 11.5495 12.9037C10.2683 14.1591 8.79278 15.0544 7.97686 15.5015C7.36525 15.8367 6.63475 15.8367 6.02314 15.5015C5.20722 15.0544 3.73174 14.1591 2.45054 12.9037C1.18107 11.6597 0 9.96033 0 7.91177L0 3.903C0 2.9454 0.606102 2.09273 1.5105 1.778L6.2605 0.124997ZM7.2465 1.54167C7.08686 1.48611 6.91314 1.48611 6.7535 1.54167L2.0035 3.19467C1.70203 3.29958 1.5 3.5838 1.5 3.903L1.5 7.91177C1.5 9.36779 2.34728 10.7024 3.50037 11.8323C4.64173 12.9507 5.98302 13.7691 6.74394 14.1861C6.90652 14.2752 7.09348 14.2752 7.25606 14.1861C8.01698 13.7691 9.35826 12.9507 10.4996 11.8323C11.6527 10.7024 12.5 9.36779 12.5 7.91177L12.5 3.903C12.5 3.5838 12.298 3.29958 11.9965 3.19467L7.2465 1.54167Z" fill-rule="EVENODD"></path>
 </g>
</svg>