<svg viewBox="0 0 24 24" width="24" height="24" fill="currentColor" xmlns="http://www.w3.org/2000/svg">
 <g transform="translate(2, 2)">
  <path d="M12.1009 4.87435C12.3085 4.51588 12.7673 4.39352 13.1258 4.60105C13.4842 4.80859 13.6066 5.26743 13.3991 5.6259L7.89907 15.1259C7.69153 15.4844 7.23269 15.6067 6.87422 15.3992C6.51575 15.1917 6.39339 14.7328 6.60093 14.3743L12.1009 4.87435Z" fill-rule="NONZERO"></path>
  <path d="M2.75 0C1.23122 0 0 1.23122 0 2.75L0 17.25C0 18.7688 1.23122 20 2.75 20L17.25 20C18.7688 20 20 18.7688 20 17.25L20 2.75C20 1.23122 18.7688 0 17.25 0L2.75 0ZM1.5 2.75C1.5 2.05964 2.05964 1.5 2.75 1.5L17.25 1.5C17.9404 1.5 18.5 2.05964 18.5 2.75L18.5 17.25C18.5 17.9404 17.9404 18.5 17.25 18.5L2.75 18.5C2.05964 18.5 1.5 17.9404 1.5 17.25L1.5 2.75Z" fill-rule="EVENODD"></path>
 </g>
</svg>