<svg viewBox="0 0 24 24" width="24" height="24" fill="currentColor" xmlns="http://www.w3.org/2000/svg">
 <g transform="translate(3, 3)">
  <path d="M13.9629 0.0569091C14.0513 0.0202391 14.1483 0 14.25 0C14.3517 0 14.4487 0.0202391 14.5371 0.0569091C14.6255 0.0935089 14.7084 0.147762 14.7803 0.21967L18.7803 4.21967C19.0732 4.51256 19.0732 4.98744 18.7803 5.28033C18.4874 5.57322 18.0126 5.57322 17.7197 5.28033L15 2.56066L15 10.75C15 11.1642 14.6642 11.5 14.25 11.5C13.8358 11.5 13.5 11.1642 13.5 10.75L13.5 2.56066L10.7803 5.28033C10.4874 5.57322 10.0126 5.57322 9.71967 5.28033C9.42678 4.98744 9.42678 4.51256 9.71967 4.21967L13.7197 0.21967C13.7916 0.147762 13.8745 0.0935089 13.9629 0.0569091Z" fill-rule="NONZERO"></path>
  <path d="M0.75 11.5C0.335786 11.5 0 11.1642 0 10.75C0 10.3358 0.335786 10 0.75 10L10.25 10C10.6642 10 11 10.3358 11 10.75C11 11.1642 10.6642 11.5 10.25 11.5L0.75 11.5Z" fill-rule="NONZERO"></path>
  <path d="M0 14.75C0 15.1642 0.335786 15.5 0.75 15.5L17.25 15.5C17.6642 15.5 18 15.1642 18 14.75C18 14.3358 17.6642 14 17.25 14L0.75 14C0.335786 14 0 14.3358 0 14.75Z" fill-rule="NONZERO"></path>
  <path d="M0.75 7.5C0.335786 7.5 0 7.16421 0 6.75C0 6.33579 0.335786 6 0.75 6L6.25 6C6.66421 6 7 6.33579 7 6.75C7 7.16421 6.66421 7.5 6.25 7.5L0.75 7.5Z" fill-rule="NONZERO"></path>
  <path d="M0 2.75C0 3.16421 0.335786 3.5 0.75 3.5L4.25 3.5C4.66421 3.5 5 3.16421 5 2.75C5 2.33579 4.66421 2 4.25 2L0.75 2C0.335786 2 0 2.33579 0 2.75Z" fill-rule="NONZERO"></path>
 </g>
</svg>