<svg viewBox="0 0 16 16" width="16" height="16" fill="currentColor" xmlns="http://www.w3.org/2000/svg">
 <g transform="translate(0, 0)">
  <path d="M6.25 5C5.55964 5 5 5.55964 5 6.25L5 9.75C5 10.4404 5.55964 11 6.25 11L9.75 11C10.4404 11 11 10.4404 11 9.75L11 6.25C11 5.55964 10.4404 5 9.75 5L6.25 5ZM6.5 9.5L6.5 6.5L9.5 6.5L9.5 9.5L6.5 9.5Z" fill-rule="EVENODD"></path>
  <path d="M8 0C3.58172 0 0 3.58172 0 8C0 12.4183 3.58172 16 8 16C12.4183 16 16 12.4183 16 8C16 3.58172 12.4183 0 8 0ZM1.5 8C1.5 4.41015 4.41015 1.5 8 1.5C11.5899 1.5 14.5 4.41015 14.5 8C14.5 11.5899 11.5899 14.5 8 14.5C4.41015 14.5 1.5 11.5899 1.5 8Z" fill-rule="EVENODD"></path>
 </g>
</svg>