<svg viewBox="0 0 24 24" width="24" height="24" fill="currentColor" xmlns="http://www.w3.org/2000/svg">
 <g transform="translate(2, 2)">
  <path d="M10 1.5C5.30558 1.5 1.5 5.30558 1.5 10C1.5 10.4142 1.16421 10.75 0.75 10.75C0.335786 10.75 0 10.4142 0 10C0 4.47715 4.47715 0 10 0C12.9874 0 15.6684 1.31035 17.5 3.38554L17.5 0.75C17.5 0.335786 17.8358 0 18.25 0C18.6642 0 19 0.335786 19 0.75L19 5.25C19 5.66421 18.6642 6 18.25 6L13.75 6C13.3358 6 13 5.66421 13 5.25C13 4.83579 13.3358 4.5 13.75 4.5L16.4811 4.5C14.9211 2.6636 12.5963 1.5 10 1.5Z" fill-rule="NONZERO"></path>
  <path d="M19.25 9.25C19.6642 9.25 20 9.58579 20 10C20 15.5228 15.5228 20 10 20C7.01268 20 4.33156 18.6896 2.5 16.6145L2.5 19.25C2.5 19.6642 2.16421 20 1.75 20C1.33579 20 1 19.6642 1 19.25L1 14.75C1 14.3358 1.33579 14 1.75 14L6.25 14C6.66421 14 7 14.3358 7 14.75C7 15.1642 6.66421 15.5 6.25 15.5L3.51897 15.5C5.07898 17.3365 7.40369 18.5 10 18.5C14.6944 18.5 18.5 14.6944 18.5 10C18.5 9.58579 18.8358 9.25 19.25 9.25Z" fill-rule="NONZERO"></path>
 </g>
</svg>