<svg viewBox="0 0 24 24" width="24" height="24" fill="currentColor" xmlns="http://www.w3.org/2000/svg">
 <g transform="translate(2, 2)">
  <path d="M10 1.5C14.6944 1.5 18.5 5.30558 18.5 10C18.5 10.4142 18.8358 10.75 19.25 10.75C19.6642 10.75 20 10.4142 20 10C20 4.47715 15.5228 0 10 0C7.01261 0 4.33164 1.31035 2.5 3.38554L2.5 0.75C2.5 0.335786 2.16421 0 1.75 0C1.33579 0 1 0.335786 1 0.75L1 5.25C1 5.66421 1.33579 6 1.75 6L6.25 6C6.66421 6 7 5.66421 7 5.25C7 4.83579 6.66421 4.5 6.25 4.5L3.51895 4.5C5.07887 2.6636 7.40373 1.5 10 1.5Z" fill-rule="NONZERO"></path>
  <path d="M0.75 9.25C0.335787 9.25 0 9.58579 0 10C0 15.5228 4.47715 20 10 20C12.9873 20 15.6684 18.6896 17.5 16.6145L17.5 19.25C17.5 19.6642 17.8358 20 18.25 20C18.6642 20 19 19.6642 19 19.25L19 14.75C19 14.3358 18.6642 14 18.25 14L13.75 14C13.3358 14 13 14.3358 13 14.75C13 15.1642 13.3358 15.5 13.75 15.5L16.481 15.5C14.921 17.3365 12.5963 18.5 10 18.5C5.30558 18.5 1.5 14.6944 1.5 10C1.5 9.58579 1.16421 9.25 0.75 9.25Z" fill-rule="NONZERO"></path>
 </g>
</svg>