<svg viewBox="0 0 24 24" width="24" height="24" fill="currentColor" xmlns="http://www.w3.org/2000/svg">
 <g transform="translate(1, 1)">
  <path d="M10.2303 1.5159L6.5 9.90916L6.5 20.5L17.4808 20.5C18.0987 20.5 18.6238 20.0485 18.7166 19.4377L20.1592 9.93766C20.2741 9.18121 19.6885 8.5 18.9234 8.5L13.75 8.5C12.7835 8.5 12 7.7165 12 6.75L12 3.52461C12 2.4928 11.2281 1.64127 10.2303 1.5159ZM5 20.5L5 10.5L2.75 10.5C2.05964 10.5 1.5 11.0596 1.5 11.75L1.5 19.25C1.5 19.9404 2.05964 20.5 2.75 20.5L5 20.5ZM5.2626 9L8.9731 0.651363C9.14914 0.255271 9.54194 0 9.97539 0C11.922 0 13.5 1.57802 13.5 3.52461L13.5 6.75C13.5 6.88807 13.6119 7 13.75 7L18.9234 7C20.6066 7 21.8949 8.49867 21.6422 10.1629L20.1996 19.6629C19.9955 21.0068 18.8401 22 17.4808 22L2.75 22C1.23122 22 0 20.7688 0 19.25L0 11.75C0 10.2312 1.23122 9 2.75 9L5.2626 9Z" fill-rule="EVENODD"></path>
 </g>
</svg>