<svg viewBox="0 0 24 24" width="24" height="24" fill="currentColor" xmlns="http://www.w3.org/2000/svg">
 <g transform="translate(1, 2)">
  <path d="M6 4L6 2.75C6 1.23122 7.23122 0 8.75 0L13.25 0C14.7688 0 16 1.23122 16 2.75L16 4L16.4216 4C17.1509 4 17.8504 4.28973 18.3661 4.80546L21.1945 7.63388C21.7103 8.14961 22 8.84908 22 9.57843L22 17.25C22 18.7688 20.7688 20 19.25 20L2.75 20C1.23122 20 0 18.7688 0 17.25L0 9.57843C0 8.84908 0.289731 8.14961 0.805456 7.63388L3.63388 4.80546C4.14961 4.28973 4.84908 4 5.57843 4L6 4ZM7.5 2.75C7.5 2.05964 8.05964 1.5 8.75 1.5L13.25 1.5C13.9404 1.5 14.5 2.05964 14.5 2.75L14.5 4L7.5 4L7.5 2.75ZM5.57843 5.5C5.24691 5.5 4.92896 5.6317 4.69454 5.86612L1.86612 8.69454C1.6317 8.92896 1.5 9.24691 1.5 9.57843L1.5 11L8 11L8 10.25C8 9.55964 8.55964 9 9.25 9L12.75 9C13.4404 9 14 9.55964 14 10.25L14 11L20.5 11L20.5 9.57843C20.5 9.24691 20.3683 8.92896 20.1339 8.69454L17.3055 5.86612C17.071 5.6317 16.7531 5.5 16.4216 5.5L5.57843 5.5ZM14 13.75L14 12.5L20.5 12.5L20.5 17.25C20.5 17.9404 19.9404 18.5 19.25 18.5L2.75 18.5C2.05964 18.5 1.5 17.9404 1.5 17.25L1.5 12.5L8 12.5L8 13.75C8 14.4404 8.55964 15 9.25 15L12.75 15C13.4404 15 14 14.4404 14 13.75ZM9.5 10.5L9.5 13.5L12.5 13.5L12.5 10.5L9.5 10.5Z" fill-rule="EVENODD"></path>
 </g>
</svg>