<svg viewBox="0 0 16 16" width="16" height="16" fill="currentColor" xmlns="http://www.w3.org/2000/svg">
 <g transform="translate(0.25, 0.25)">
  <path d="M0 7.75C0 3.46979 3.46979 0 7.75 0C12.0302 0 15.5 3.46979 15.5 7.75C15.5 12.0302 12.0302 15.5 7.75 15.5C3.46979 15.5 0 12.0302 0 7.75ZM3.18923 9.58349C3.77933 9.04335 4.56656 8.75 5.375 8.75L10.125 8.75C10.9334 8.75 11.7207 9.04335 12.3108 9.58349C12.8387 10.0667 13.25 10.6314 13.25 11.5C13.25 11.9142 12.9142 12.25 12.5 12.25C12.0858 12.25 11.75 11.9142 11.75 11.5C11.75 11.2155 11.6609 11.0221 11.298 10.69C10.9973 10.4147 10.5763 10.25 10.125 10.25L5.375 10.25C4.92366 10.25 4.50271 10.4147 4.20201 10.69C3.83912 11.0221 3.75 11.2155 3.75 11.5C3.75 11.9142 3.41421 12.25 3 12.25C2.58579 12.25 2.25 11.9142 2.25 11.5C2.25 10.6314 2.66132 10.0667 3.18923 9.58349ZM6.25 4.75C6.25 3.92157 6.92157 3.25 7.75 3.25C8.57843 3.25 9.25 3.92157 9.25 4.75C9.25 5.57843 8.57843 6.25 7.75 6.25C6.92157 6.25 6.25 5.57843 6.25 4.75ZM7.75 1.75C6.09315 1.75 4.75 3.09315 4.75 4.75C4.75 6.40685 6.09315 7.75 7.75 7.75C9.40685 7.75 10.75 6.40685 10.75 4.75C10.75 3.09315 9.40685 1.75 7.75 1.75Z" fill-rule="EVENODD"></path>
 </g>
</svg>