<svg viewBox="0 0 16 16" width="16" height="16" fill="currentColor" xmlns="http://www.w3.org/2000/svg">
 <g transform="translate(0, 2)">
  <path d="M13.2423 0.184158C12.9297 -0.0877043 12.456 -0.054751 12.1842 0.257761C11.9123 0.570273 11.9452 1.044 12.2578 1.31586C13.7091 2.57844 14.5 4.26632 14.5 6.00001C14.5 7.7337 13.7091 9.42158 12.2578 10.6842C11.9452 10.956 11.9123 11.4297 12.1842 11.7423C12.456 12.0548 12.9297 12.0877 13.2423 11.8159C14.9924 10.2934 16 8.2044 16 6.00001C16 3.79562 14.9924 1.70665 13.2423 0.184158Z" fill-rule="NONZERO"></path>
  <path d="M7.03317 0.686142C7.86165 0.106212 9 0.698906 9 1.71018L9 10.2895C9 11.3008 7.86164 11.8935 7.03317 11.3136L3.72786 8.99986L1.25 8.99986C0.559644 8.99986 0 8.44021 0 7.74986L0 4.24986C0 3.5595 0.559644 2.99986 1.25 2.99986L3.72786 2.99986L7.03317 0.686142ZM7.5 2.19035L4.5235 4.2739C4.31339 4.42097 4.06313 4.49986 3.80667 4.49986L1.5 4.49986L1.5 7.49986L3.80667 7.49986C4.06313 7.49986 4.31339 7.57874 4.5235 7.72582L7.5 9.80937L7.5 2.19035Z" fill-rule="EVENODD"></path>
  <path d="M10.7014 3.23864C10.9838 2.93563 11.4584 2.91894 11.7614 3.20136C12.5475 3.93406 13 4.93947 13 6C13 7.06053 12.5475 8.06595 11.7614 8.79864C11.4584 9.08106 10.9838 9.06437 10.7014 8.76137C10.4189 8.45836 10.4356 7.98378 10.7386 7.70136C11.2331 7.24046 11.5 6.62722 11.5 6C11.5 5.37278 11.2331 4.75955 10.7386 4.29864C10.4356 4.01622 10.4189 3.54164 10.7014 3.23864Z" fill-rule="NONZERO"></path>
 </g>
</svg>