<svg viewBox="0 0 24 24" width="24" height="24" fill="currentColor" xmlns="http://www.w3.org/2000/svg">
 <g transform="translate(1, 4.3212890625)">
  <path d="M11 1.75348C11 0.217093 9.16179 -0.573581 8.04645 0.483061L4.74569 3.6101C4.69925 3.65409 4.63772 3.67861 4.57375 3.67861L1.75 3.67861C0.783502 3.67861 0 4.46211 0 5.42861L0 9.92861C0 10.8951 0.783502 11.6786 1.75 11.6786L4.57375 11.6786C4.63772 11.6786 4.69925 11.7031 4.74569 11.7471L8.04645 14.8742C9.16179 15.9308 11 15.1401 11 13.6037L11 1.75348ZM9.07806 1.57199C9.2374 1.42104 9.5 1.53399 9.5 1.75348L9.5 13.6037C9.5 13.8232 9.2374 13.9362 9.07806 13.7852L5.7773 10.6582C5.45225 10.3502 5.02152 10.1786 4.57375 10.1786L1.75 10.1786C1.61193 10.1786 1.5 10.0667 1.5 9.92861L1.5 5.42861C1.5 5.29054 1.61193 5.17861 1.75 5.17861L4.57375 5.17861C5.02151 5.17861 5.45225 5.00697 5.7773 4.69903L9.07806 1.57199Z" fill-rule="EVENODD"></path>
  <path d="M15.2712 3.63945C14.9734 3.35157 14.4986 3.35964 14.2107 3.65747C13.9229 3.9553 13.9309 4.4301 14.2288 4.71798C15.0459 5.50782 15.5 6.57335 15.5 7.67871C15.5 8.78407 15.0459 9.8496 14.2288 10.6394C13.9309 10.9273 13.9229 11.4021 14.2107 11.7C14.4986 11.9978 14.9734 12.0058 15.2712 11.718C16.375 10.6511 17 9.19874 17 7.67871C17 6.15869 16.375 4.70631 15.2712 3.63945Z" fill-rule="NONZERO"></path>
 </g>
</svg>