<svg viewBox="0 0 24 24" width="24" height="24" fill="currentColor" xmlns="http://www.w3.org/2000/svg">
 <g transform="translate(1, 4)">
  <path d="M17.72 0.219377C18.013 -0.0733542 18.4879 -0.0730921 18.7806 0.219963C20.8421 2.28368 22 5.08217 22 8C22 10.9178 20.8421 13.7163 18.7806 15.78C18.4879 16.0731 18.013 16.0734 17.72 15.7806C17.4269 15.4879 17.4266 15.013 17.7194 14.72C19.4997 12.9376 20.5 10.5205 20.5 8C20.5 5.47953 19.4997 3.06237 17.7194 1.28004C17.4266 0.986982 17.4269 0.512109 17.72 0.219377Z" fill-rule="NONZERO"></path>
  <path d="M8.04645 0.80435C9.16179 -0.252292 11 0.538382 11 2.07477L11 13.925C11 15.4614 9.16179 16.2521 8.04645 15.1954L4.74569 12.0684C4.69925 12.0244 4.63772 11.9999 4.57375 11.9999L1.75 11.9999C0.783502 11.9999 0 11.2164 0 10.2499L0 5.7499C0 4.7834 0.783502 3.9999 1.75 3.9999L4.57375 3.9999C4.63772 3.9999 4.69925 3.97538 4.74569 3.93139L8.04645 0.80435ZM9.5 2.07477C9.5 1.85528 9.2374 1.74233 9.07806 1.89328L5.7773 5.02032C5.45225 5.32826 5.02151 5.4999 4.57375 5.4999L1.75 5.4999C1.61193 5.4999 1.5 5.61183 1.5 5.7499L1.5 10.2499C1.5 10.388 1.61193 10.4999 1.75 10.4999L4.57375 10.4999C5.02152 10.4999 5.45225 10.6715 5.7773 10.9795L9.07806 14.1065C9.2374 14.2575 9.5 14.1445 9.5 13.925L9.5 2.07477Z" fill-rule="EVENODD"></path>
  <path d="M15.2712 3.96074C14.9734 3.67286 14.4986 3.68093 14.2107 3.97876C13.9229 4.27658 13.9309 4.75139 14.2288 5.03926C15.0459 5.82911 15.5 6.89464 15.5 8C15.5 9.10536 15.0459 10.1709 14.2288 10.9607C13.9309 11.2486 13.9229 11.7234 14.2107 12.0212C14.4986 12.3191 14.9734 12.3271 15.2712 12.0393C16.375 10.9724 17 9.52003 17 8C17 6.47998 16.375 5.0276 15.2712 3.96074Z" fill-rule="NONZERO"></path>
 </g>
</svg>