<svg viewBox="0 0 24 24" width="24" height="24" fill="currentColor" xmlns="http://www.w3.org/2000/svg">
 <g transform="translate(0.6700439453125, 4)">
  <path d="M1.24595 5.30997C4.03138 2.85469 7.61692 1.5 11.33 1.5C15.0431 1.5 18.6286 2.85469 21.4141 5.30997C21.7248 5.58387 22.1987 5.55402 22.4726 5.24329C22.7465 4.93256 22.7167 4.45862 22.4059 4.18473C19.3465 1.48794 15.4083 0 11.33 0C7.25169 0 3.31348 1.48794 0.254072 4.18473C-0.0566571 4.45862 -0.0865137 4.93256 0.187385 5.24329C0.461284 5.55402 0.935218 5.58387 1.24595 5.30997Z" fill-rule="NONZERO"></path>
  <path d="M4.80997 8.87416C6.65177 7.34008 8.97297 6.5 11.37 6.5C13.767 6.5 16.0882 7.34008 17.93 8.87416C18.2482 9.13925 18.7212 9.09615 18.9863 8.77788C19.2514 8.45961 19.2082 7.98669 18.89 7.7216C16.7786 5.96301 14.1178 5 11.37 5C8.62219 5 5.9613 5.96301 3.84997 7.7216C3.5317 7.98669 3.4886 8.45961 3.75369 8.77788C4.01879 9.09615 4.4917 9.13925 4.80997 8.87416Z" fill-rule="NONZERO"></path>
  <path d="M11.3349 11.5C10.2453 11.5 9.1826 11.8391 8.2943 12.4702C7.95663 12.7101 7.48841 12.6308 7.24852 12.2931C7.00862 11.9555 7.08788 11.4872 7.42555 11.2473C8.56765 10.4359 9.93393 10 11.3349 10C12.7359 10 14.1022 10.4359 15.2443 11.2473C15.582 11.4872 15.6612 11.9555 15.4213 12.2931C15.1814 12.6308 14.7132 12.7101 14.3755 12.4702C13.4872 11.8391 12.4246 11.5 11.3349 11.5Z" fill-rule="NONZERO"></path>
  <path d="M11.33 15C10.7777 15 10.33 15.4477 10.33 16C10.33 16.5523 10.7777 17 11.33 17L11.34 17C11.8922 17 12.34 16.5523 12.34 16C12.34 15.4477 11.8922 15 11.34 15L11.33 15Z" fill-rule="NONZERO"></path>
 </g>
</svg>