<svg viewBox="0 0 16 16" width="16" height="16" fill="currentColor" xmlns="http://www.w3.org/2000/svg">
 <g transform="translate(0.07135007530450821, 0.0932617336511612)">
  <path d="M9.49784 0.659027C8.61916 -0.219669 7.19452 -0.219677 6.31584 0.659011L0.659009 6.31584C-0.219677 7.19453 -0.219668 8.61916 0.659027 9.49784L6.31586 15.1545C7.19454 16.0332 8.61915 16.0332 9.49782 15.1545L15.1545 9.49782C16.0332 8.61915 16.0332 7.19454 15.1545 6.31586L9.49784 0.659027ZM5.14838 5.12629C5.44127 4.83339 5.91615 4.83339 6.20904 5.12629L7.92871 6.84596L9.64838 5.12629C9.94127 4.83339 10.4161 4.83339 10.709 5.12629C11.0019 5.41918 11.0019 5.89405 10.709 6.18695L8.98937 7.90662L10.709 9.62629C11.0019 9.91918 11.0019 10.3941 10.709 10.6869C10.4161 10.9798 9.94127 10.9798 9.64838 10.6869L7.92871 8.96728L6.20904 10.6869C5.91615 10.9798 5.44127 10.9798 5.14838 10.6869C4.85549 10.3941 4.85549 9.91918 5.14838 9.62629L6.86805 7.90662L5.14838 6.18695C4.85549 5.89405 4.85549 5.41918 5.14838 5.12629Z" fill-rule="EVENODD"></path>
 </g>
</svg>